<?xml version="1.0" encoding="utf-8" ?>
<svg baseProfile="full" height="311.6064365254715" version="1.1" width="1022.3369107116014" xmlns="http://www.w3.org/2000/svg" xmlns:ev="http://www.w3.org/2001/xml-events" xmlns:xlink="http://www.w3.org/1999/xlink"><defs /><rect fill="white" height="311.6064365254715" width="1022.3369107116014" x="0" y="0" /><path d="M25, 25 m0.0, 0.0 m30.728204464539886, 41.52361101587303 l-2.130194753408432, -0.22165676578879356 -1.8948283791542053, 0.6475110352039337 l-1.0672419518232346, 1.2022960931062698 0.258288960903883, 1.3517585396766663 l0.5583769455552101, 1.611705720424652 0.9542038291692734, 1.8642900884151459 l1.3114033639431, 1.8690253794193268 1.0924722254276276, 1.8180936574935913 l1.165912002325058, 1.2698473036289215 1.3166861236095428, 0.9854097664356232 l1.2071477621793747, 0.7887358218431473 1.2356995791196823, 0.7928598672151566 l0.6562746316194534, 0.9095880389213562 0.6928981095552444, 0.5110915377736092 l0.3951665759086609, 0.6276154518127441 0.6307101994752884, 0.5875485762953758 l0.42212121188640594, 0.8466461300849915 0.3079853765666485, 0.6968112289905548 l0.4196685925126076, 0.4559583216905594 0.43914083391427994, 0.17820915207266808 l0.33577099442481995, 0.07681974209845066 0.4024609178304672, 0.17014946788549423 l0.14478076249361038, 0.20175987854599953 0.38541175425052643, -0.09895278140902519 l0.26695236563682556, -0.47253597527742386 0.41393499821424484, -0.09678313508629799 l0.3557217866182327, 0.02118110889568925 0.5024459585547447, 0.02124111633747816 l0.530821718275547, -0.2896448224782944 0.5210356041789055, -0.807831659913063 l0.3687404468655586, -0.595482774078846 0.37944331765174866, -0.2311340719461441 l0.46833205968141556, -0.47221191227436066 0.5494832620024681, -0.955154299736023 l0.6163915246725082, -0.7345873862504959 0.5599366873502731, -0.3515912964940071 l0.6870134919881821, -0.5554429441690445 0.7458382844924927, -0.7529394328594208 l0.5845438688993454, -0.4881695285439491 0.7050073891878128, -0.6178516894578934 l0.665600374341011, -0.7100386172533035 0.6126656010746956, -0.6245488300919533 l0.7421092689037323, -0.5860670283436775 0.7210841774940491, -0.9152637422084808 l0.6887053698301315, -0.7474898546934128 0.6014284119009972, -0.5969167128205299 l0.7798385620117188, -0.7671080529689789 0.6558582186698914, -0.5772257223725319 l0.6730390340089798, -0.703025683760643 0.608515590429306, -0.592273399233818 l0.8000233024358749, -0.8457397669553757 0.6742938607931137, -0.44695712625980377 l0.839635357260704, -0.6980922818183899 0.825703963637352, -0.6168860197067261 l0.7989111542701721, -0.4282594844698906 0.6357880681753159, -0.4638727754354477 l0.7351099699735641, -0.36665353924036026 0.7117123901844025, -0.446794256567955 l0.7443089783191681, -0.4881766065955162 0.7171904295682907, -0.21057171747088432 l0.952925980091095, -0.48872366547584534 0.8891379088163376, -0.34237612038850784 l0.6755471974611282, -0.4087918624281883 0.21121861413121223, 0.4460413008928299 l0.9636867791414261, -0.26785505935549736 0.784233808517456, -0.20704327151179314 l0.8537092059850693, -0.3550756350159645 0.761609822511673, -0.26667287573218346 l0.7424665987491608, -0.4022754356265068 0.8134502172470093, -0.37205830216407776 m-40.55516054155305, 101.92407635651762 l-2.039566785097122, -0.3126741200685501 -2.056230902671814, 0.6481142342090607 l-0.9036397933959961, 1.2521617114543915 -0.20050251856446266, 2.144322991371155 l0.5331852287054062, 2.004041075706482 1.1075358092784882, 1.7085500061511993 l1.1172208935022354, 1.6109858453273773 1.1226551979780197, 1.6200853884220123 l1.3446249067783356, 1.2687686085700989 0.9532507508993149, 1.3112974166870117 l0.7292370498180389, 1.1271731555461884 0.9871560335159302, 0.5810865387320518 l0.8772478997707367, 0.8567539602518082 0.6330017745494843, 0.5777547135949135 l0.5944604426622391, 0.3716946020722389 0.5900187790393829, 0.42771395295858383 l0.6628969311714172, 0.44041119515895844 0.4884212836623192, 0.6929522007703781 l0.3010561130940914, -0.051963143050670624 0.46815264970064163, -0.002635899290908128 l0.38209088146686554, 0.435049906373024 0.45790571719408035, 0.11664736084640026 l0.2789364196360111, 0.33944103866815567 0.18701791763305664, 0.07505805231630802 l0.40925171226263046, -0.23628311231732368 0.4153716564178467, -0.046936129219830036 l0.5174265056848526, -0.12171107344329357 0.440824031829834, -0.22965097799897194 l0.5112337693572044, -0.5098868533968925 0.4717835411429405, -0.48876140266656876 l0.42781002819538116, -0.2702258713543415 0.4339490458369255, -0.21443400532007217 l0.3227987140417099, -0.2617279440164566 0.4414958506822586, -0.622306801378727 l0.6775645911693573, -0.6435907632112503 0.37831269204616547, -0.4622558131814003 l0.64692422747612, -0.8966518193483353 0.756470263004303, -0.7303009927272797 l0.4928914085030556, -0.5560751631855965 0.6288650631904602, -0.5607203394174576 l0.5686358362436295, -0.5676743015646935 0.699039101600647, -0.5410518497228622 l0.6465774774551392, -0.5385679379105568 0.6577196717262268, -0.5640722066164017 l0.6602122634649277, -0.7410865277051926 0.6804379820823669, -0.6247378513216972 l0.6532934308052063, -0.7689318060874939 0.5534518137574196, -0.429283007979393 l0.06382056046277285, 0.042525818571448326 0.687321275472641, -0.6077108159661293 l0.6565691530704498, -0.44057779014110565 0.8337564766407013, -0.4769213870167732 l0.5458905175328255, -0.44577546417713165 0.7337635010480881, -0.2735256776213646 l0.7506866753101349, -0.5535306036472321 0.6521741300821304, -0.8092635869979858 l0.19080551341176033, 0.11749212630093098 0.2046368084847927, 0.17423545941710472 l0.8918376266956329, -0.25573795661330223 0.875929668545723, -0.3012082353234291 l0.8907244354486465, -0.2241078019142151 0.7799119502305984, -0.4434001073241234 l0.7074201107025146, -0.5376424640417099 0.9562760591506958, -0.5187518894672394 l0.8912405371665955, -0.4001447930932045 0.6805992871522903, -0.36092471331357956 l0.7841166108846664, -0.41928309947252274 0.9028091281652451, -0.4693925380706787 l0.8352666348218918, -0.33672429621219635 0.959177240729332, -0.28674472123384476 l0.13413313776254654, 0.5031778663396835 1.0027045011520386, -0.07678920868784189 l1.0040899366140366, -0.4789423942565918 0.9360433369874954, -0.4516063258051872 l0.7825084775686264, -0.424530953168869 0.9810986369848251, -0.15835527330636978 m-41.00108331302181, 102.58935699530412 l-2.3382604122161865, -0.36024976521730423 -2.0973433554172516, 0.5374230071902275 l-1.2219203263521194, 1.2753044068813324 0.12458624318242073, 1.6792601346969604 l0.465409979224205, 1.7535887658596039 0.5829437077045441, 2.0807842910289764 l1.320401132106781, 1.6842693090438843 1.21156744658947, 1.5700781345367432 l0.9744524955749512, 1.5033911168575287 0.751098096370697, 0.9433897584676743 l0.7833243906497955, 1.11149400472641 0.6638617813587189, 0.7593017071485519 l0.762719064950943, 0.7800187915563583 0.7187788933515549, 0.8036907762289047 l0.7652045041322708, 0.6725779175758362 0.6036245822906494, 0.6150870397686958 l0.5377475917339325, 0.13341108337044716 0.48237964510917664, 0.3910684585571289 l0.46864960342645645, 0.1195282768458128 0.44247422367334366, 0.43099522590637207 l0.36770474165678024, -0.0014523969730362296 0.5216490104794502, 0.1803763024508953 l0.2537115104496479, 0.25270359590649605 0.23026186972856522, -0.037007585633546114 l0.39440859109163284, -0.09808702394366264 0.3667242079973221, -0.10037879459559917 l0.33758100122213364, -0.04376132506877184 0.5444733425974846, -0.18236396834254265 l0.49375664442777634, -0.4305674880743027 0.5142834037542343, -0.3922457620501518 l0.5245933309197426, -0.30290529131889343 0.4957186430692673, -0.783744603395462 l0.8250050246715546, -0.7427410036325455 0.5541239678859711, -0.5500704795122147 l0.49568336457014084, -0.7054536044597626 0.6958010792732239, -0.6217294186353683 l0.5437424033880234, -0.8104272186756134 0.6505963206291199, -0.654614120721817 l0.6048690155148506, -0.6892270594835281 0.5046672001481056, -0.750151127576828 l0.7759623229503632, -0.8203645050525665 0.5726177245378494, -0.5192007496953011 l0.6843042373657227, -0.49098018556833267 0.5560552701354027, -0.6229302659630775 l0.8835048228502274, -0.7435054332017899 0.593576654791832, -0.6194350123405457 l0.7448012381792068, -0.6061377003788948 0.5897624790668488, -0.45399025082588196 l0.427560955286026, -0.3757457435131073 0.7075367867946625, -0.40979355573654175 l0.5648590624332428, -0.490320660173893 0.6164843961596489, -0.21823404356837273 l0.7130701094865799, -0.6838567554950714 0.8500298857688904, -0.6465465575456619 l0.6644447892904282, -0.40318936109542847 0.6268925964832306, -0.6575605273246765 l0.7102255523204803, -0.6301776319742203 0.6272578239440918, -0.43359488248825073 l0.9408430755138397, -0.4522857815027237 0.7939630746841431, -0.29449865221977234 l0.8005625754594803, -0.34975212067365646 0.7489883154630661, -0.31785890460014343 l0.3954128175973892, -0.2010793797671795 0.913473442196846, -0.2795584499835968 l1.0100610554218292, -0.2860645577311516 0.8823675662279129, -0.3123617544770241 l1.0327525436878204, -0.4843805357813835 0.9341767430305481, -0.36605868488550186 l0.7608824968338013, -0.48038024455308914 0.9501058608293533, -0.3494264930486679 l0.9275021404027939, -0.2412901073694229 0.9174858033657074, -0.42882442474365234 m59.56707052886486, -198.3271966560278 l-2.1582533419132233, -0.394945926964283 -1.92904531955719, 0.730813667178154 l-0.954572930932045, 1.2279162555932999 -0.26332560926675797, 1.5831983089447021 l0.3560622036457062, 1.8330201506614685 0.8237743377685547, 1.9792674481868744 l1.101791262626648, 2.027757614850998 1.0506963729858398, 1.5773235261440277 l0.8779934048652649, 1.5449519455432892 1.216672956943512, 1.0719874501228333 l1.1248432844877243, 1.1370477080345154 1.1984239518642426, 0.9872353076934814 l0.9458698332309723, 0.708460733294487 0.8589772135019302, 0.43908413499593735 l0.8284404128789902, 0.5575703829526901 0.45120060443878174, 0.4326063394546509 l0.6069899350404739, 0.5085044354200363 0.7125286012887955, 0.3854966536164284 l0.5818773061037064, 0.4527163878083229 0.4664818197488785, 0.1645311340689659 l0.4064374417066574, 0.21896954625844955 0.30747344717383385, 0.37129350006580353 l0.4918743669986725, -0.12991373427212238 0.4142414405941963, -0.007850611000321805 l0.27137480676174164, -0.030288412235677242 0.24510091170668602, -0.08322129026055336 l0.32970722764730453, -0.08984650485217571 0.5002516880631447, -0.2674136497080326 l0.46503495424985886, -0.3027999773621559 0.241631381213665, -0.2730005607008934 l0.5752513185143471, -0.6335864216089249 0.5070150271058083, -0.35607844591140747 l0.5170576274394989, -0.5161942914128304 0.5712819471955299, -0.3632744401693344 l0.5722423642873764, -0.7245101034641266 0.44865790754556656, -0.318775437772274 l0.6433241814374924, -0.6646579504013062 0.5778426676988602, -0.6409081816673279 l0.4603417217731476, -0.7084183394908905 0.7197034358978271, -0.6819748878479004 l0.5912182107567787, -0.36394573748111725 0.7177636027336121, -0.38246024399995804 l0.774993896484375, -0.7512569427490234 0.6453006714582443, -0.4011616110801697 l0.6243119388818741, -0.6186030060052872 0.5872617661952972, -0.510273240506649 l0.6977939605712891, -0.6223757937550545 0.5735526978969574, -0.33342164009809494 l0.7851038128137589, -0.5255423486232758 0.46873725950717926, -0.40478598326444626 l0.7237555831670761, -0.538330078125 0.6440535932779312, -0.6151259317994118 l0.6987205147743225, -0.2918994799256325 0.6217573955655098, -0.2841617166996002 l0.7222545146942139, -0.4400491341948509 0.683758407831192, -0.5206659436225891 l0.5945724248886108, -0.3646944835782051 0.8248184621334076, -0.4950244352221489 l0.7347022742033005, -0.25917399674654007 0.7241899520158768, -0.4214918985962868 l0.8364686369895935, -0.2834419161081314 0.8096159249544144, -0.2831384353339672 l0.8573655784130096, -0.2481107972562313 0.7221926748752594, -0.2718075178563595 l0.7913069427013397, -0.19148293882608414 0.8615859597921371, -0.019179272931069136 l0.947246178984642, -0.2788015082478523 0.9489230066537857, -0.3908543661236763 l1.0114748030900955, -0.28948191553354263 0.7997722178697586, -0.2049444615840912 l0.9155848622322083, -0.27994565665721893 0.9315381199121475, -0.20800814032554626 m-40.67704150918871, 101.2427390681114 l-1.9009748101234436, -0.45154131948947906 -1.9534726440906525, 0.6091605871915817 l-0.9176007658243179, 1.3118307292461395 -0.06538937333971262, 1.3795746862888336 l0.09474862366914749, 1.9780415296554565 0.5897388979792595, 2.2744888067245483 l0.9636879712343216, 1.810130625963211 1.4772525429725647, 1.4960426092147827 l1.423366665840149, 1.3332006335258484 0.8339748531579971, 1.1525015532970428 l0.8226075768470764, 1.4363758265972137 0.7749245315790176, 1.069335862994194 l0.8669371902942657, 0.7577074319124222 0.8149375021457672, 0.8591528236865997 l0.786227360367775, 0.023545946460217237 0.4381629452109337, 0.5007101222872734 l0.6662894040346146, 0.3098595142364502 0.4932967573404312, 0.529710166156292 l0.5712398514151573, 0.2583392709493637 0.2775407023727894, 0.366947278380394 l0.5386888608336449, -0.07479989435523748 0.40651343762874603, -0.12355806306004524 l0.3131614997982979, 0.04397423937916756 0.4230419546365738, -0.009901871671900153 l0.4712732881307602, -0.3872303292155266 0.369003564119339, -0.25171922519803047 l0.4395218566060066, 0.043721338734030724 0.37866417318582535, -0.3952319175004959 l0.2536054700613022, -0.2685816027224064 0.3995046764612198, -0.3512774780392647 l0.6861044466495514, -0.5384467914700508 0.5536886677145958, -0.5888498574495316 l0.38834426552057266, -0.48017967492341995 0.5403903871774673, -0.5058767274022102 l0.6435777992010117, -0.6021930277347565 0.3616022691130638, -0.6218449398875237 l0.5731542780995369, -0.8614327013492584 0.5391039699316025, -0.595405325293541 l0.6367482990026474, -0.4221237823367119 0.6703208386898041, -0.5134705081582069 l0.6533239036798477, -0.5256545543670654 0.5589266121387482, -0.5702711269259453 l0.6863442063331604, -0.7856020331382751 0.5353053286671638, -0.6147003546357155 l0.7575979828834534, -0.6996159255504608 0.6007779017090797, -0.7149659097194672 l0.76130211353302, -0.7994887977838516 0.583384670317173, -0.6219609826803207 l0.5564328283071518, -0.5055633559823036 0.5541232600808144, -0.604034811258316 l0.6314074248075485, -0.6354456394910812 0.7486176490783691, -0.559055395424366 l0.7646987587213516, -0.6566371023654938 0.5887353420257568, -0.5146219208836555 l0.81617571413517, -0.5743708088994026 0.7676580548286438, -0.6076733395457268 l0.7072920352220535, -0.4463636130094528 0.7351583987474442, -0.4195220023393631 l0.7666249573230743, -0.5549681931734085 0.7295091450214386, -0.4032517969608307 l0.949479341506958, -0.3306185081601143 0.8148762583732605, -0.47248031944036484 l0.7398317009210587, -0.2665834315121174 0.6682413816452026, -0.2749425731599331 l0.8399396389722824, -0.45274175703525543 1.0931099206209183, -0.2747923880815506 l0.8068385720252991, -0.17147360369563103 0.7831602543592453, -0.3632034733891487 l-0.5574431270360947, 0.9742314368486404 0.7846596837043762, -0.3821590915322304 l0.8017094433307648, -0.40052954107522964 0.767776295542717, -0.30940547585487366 l0.8790544420480728, -0.3306673467159271 0.8477725833654404, -0.40238142013549805 m-40.75638015754521, 102.85074308909316 l-2.1750468015670776, -0.4035454988479614 -2.1722282469272614, 0.594416968524456 l-1.2491713464260101, 1.2641963362693787 0.23894738405942917, 1.3655303418636322 l0.8289318531751633, 1.6513937711715698 0.8463645726442337, 1.873926818370819 l1.2079069018363953, 1.8726430833339691 1.155197024345398, 1.7597872018814087 l1.1951741576194763, 1.3002662360668182 1.1908997595310211, 1.5942110121250153 l0.9422515332698822, 1.388990581035614 0.8018220961093903, 1.1517859250307083 l0.9558910131454468, 0.6404069066047668 0.8900809288024902, 0.4410385340452194 l0.7386951893568039, 0.6311414390802383 0.7108482718467712, 0.5891034752130508 l0.35695090889930725, 0.3065108321607113 0.37337526679039, 0.3166016936302185 l0.3425399959087372, 0.27702514082193375 0.43746601790189743, 0.31212015077471733 l0.5133207514882088, 0.124184750020504 0.3873300924897194, 0.26898257434368134 l0.27634983882308006, -0.05737905390560627 0.44273097068071365, -0.0004604607602232136 l0.3776947036385536, -0.01924699521623552 0.5783694609999657, -0.23861413821578026 l0.29026707634329796, -0.09446698240935802 0.35816457122564316, -0.4572722688317299 l0.31841039657592773, -0.1885436289012432 0.29122112318873405, -0.4582236707210541 l0.35414449870586395, -0.31117459759116173 0.4852777346968651, -0.6192880868911743 l0.2618047408759594, -0.3452117368578911 0.6082144379615784, -0.4549989476799965 l0.577060654759407, -0.7187686115503311 0.5682285130023956, -0.6362857669591904 l0.5152902379631996, -0.6826673448085785 0.4863271489739418, -0.6439667195081711 l0.7193883508443832, -0.8121154457330704 0.9010860323905945, -0.5748466402292252 l0.6471803784370422, -0.7523626834154129 0.5857968330383301, -0.7360357791185379 l0.5417265370488167, -0.537041425704956 0.6328467279672623, -0.4933224618434906 l0.6919652968645096, -0.5319041013717651 0.6030343845486641, -0.6558484584093094 l0.6320482492446899, -0.710689127445221 0.6744933128356934, -0.5342615395784378 l0.5561212822794914, -0.6787404417991638 0.6643335521221161, 0.12706340290606022 l0.5223129689693451, -0.6269729137420654 0.7939565926790237, -0.44606152921915054 l0.5341034382581711, -0.3119983896613121 0.6416045874357224, -0.20399738103151321 l0.8165189623832703, -0.47883402556180954 0.5981922894716263, -0.3933867812156677 l0.6268753111362457, -0.3990156948566437 0.5904241278767586, -0.5551103875041008 l0.7113627344369888, -0.5050285533070564 1.016342043876648, -0.4154585674405098 l0.7129479944705963, -0.36469560116529465 0.7446953654289246, -0.25474704802036285 l0.7422319054603577, -0.5298643559217453 0.8378295600414276, -0.285904873162508 l0.7682270556688309, -0.3946330398321152 0.9028708934783936, -0.4398892819881439 l0.9930320829153061, -0.5563985928893089 0.9719417244195938, -0.3249959275126457 l0.7190647721290588, -0.36185547709465027 1.0718204081058502, -0.15748415142297745 l0.78346848487854, -0.20637087523937225 0.8876479417085648, -0.20475076511502266 l0.8102233707904816, -0.23685986176133156 -0.3174862638115883, 0.4596022143959999 l0.7203799486160278, -0.3584923595190048 m58.27553689479828, -198.83377412346817 l-1.8430086970329285, -0.2832564525306225 -1.8426264822483063, 0.6464241445064545 l-0.9699449688196182, 1.192564070224762 -0.3436916694045067, 1.626477688550949 l0.42249511927366257, 1.9014547765254974 1.1974579095840454, 1.8063561618328094 l0.9227687120437622, 1.9407302141189575 1.0052026808261871, 1.5278185904026031 l0.9009497612714767, 1.7786113917827606 0.8461815118789673, 1.2305490672588348 l0.9529521316289902, 0.8929015696048737 0.9719786792993546, 0.8091887831687927 l0.7843397557735443, 0.8236200362443924 0.9975538402795792, 0.7035566866397858 l0.9294608235359192, 0.5468224361538887 0.8869882673025131, 0.2722731977701187 l0.48973899334669113, 0.21088626235723495 0.6677740812301636, 0.41166897863149643 l0.4808911681175232, 0.33833790570497513 0.6299265474081039, 0.430971123278141 l0.19966602325439453, 0.611615963280201 0.07884431630373001, 0.42540088295936584 l0.39513856172561646, 0.03782919142395258 0.4839692637324333, -0.06306041032075882 l0.33686310052871704, -0.11170793324708939 0.5039763078093529, -0.1653599925339222 l0.3276900202035904, -0.13091220520436764 0.32349493354558945, -0.16431311145424843 l0.4164488986134529, -0.23879891261458397 0.5298179388046265, -0.4008210450410843 l0.5243061482906342, -0.36174118518829346 0.4411449655890465, -0.6317184865474701 l0.5019945278763771, -0.45490074902772903 0.6746317446231842, -0.5062905699014664 l0.6240565329790115, -0.3782419487833977 0.7285904884338379, -0.739789605140686 l0.7234670221805573, -0.8254297822713852 0.6956347078084946, -0.5162401497364044 l0.693618431687355, -0.41837356984615326 0.8252000063657761, -0.6196846440434456 l0.8122622966766357, -0.5219869688153267 0.6324926763772964, -0.6431315094232559 l0.6018158420920372, -0.6027282401919365 0.6441124528646469, -0.6171446293592453 l0.5622873082756996, -0.6045744568109512 0.6154824048280716, -0.48456721007823944 l0.6977199763059616, -0.5334434658288956 0.562506727874279, -0.5405028536915779 l0.8026619255542755, -0.661509782075882 0.6954208016395569, -0.5678629502654076 l0.6396787613630295, -0.5136251822113991 0.6972977519035339, -0.5427080765366554 l0.7053688168525696, -0.5594778060913086 0.7692491263151169, -0.6497800350189209 l0.6661026179790497, -0.45568838715553284 0.7084423303604126, -0.43707944452762604 l0.6684666872024536, -0.4436460882425308 0.769636258482933, -0.5193199217319489 l0.8244714885950089, -0.45906245708465576 0.6622911989688873, -0.19111393019557 l0.7072717696428299, -0.4916239529848099 0.8556554466485977, -0.3700302913784981 l0.7762674242258072, -0.2643163688480854 0.8990748971700668, -0.27123570442199707 l0.8745231479406357, -0.21366063505411148 0.7999850064516068, -0.3887055069208145 l0.8049958199262619, -0.21811507642269135 1.018337532877922, -0.29215341433882713 l0.8864177018404007, -0.11098756454885006 0.9880376607179642, -0.23432549089193344 l1.0044179856777191, -0.20601807162165642 0.689421221613884, -0.2512011490762234 m-44.29605067707598, 102.82137228758074 l-1.6806508600711823, -0.27108702808618546 -1.6802065074443817, 0.5281481146812439 l-0.9458423405885696, 1.1809711903333664 -0.22296173498034477, 1.6274276375770569 l0.80283522605896, 2.009476125240326 1.1424528062343597, 1.7691542208194733 l1.2082675844430923, 1.4975996315479279 1.106247678399086, 1.7789752781391144 l1.3773751258850098, 1.2598909437656403 1.2777416408061981, 1.3953548669815063 l1.1946269124746323, 1.1023281514644623 0.8029742538928986, 0.8706230670213699 l0.6477437913417816, 1.0986734926700592 0.6417325884103775, 0.6135264039039612 l1.0410954803228378, 0.7540889084339142 0.7950609177350998, 0.6481184810400009 l0.5626470595598221, 0.27989042922854424 0.5263328924775124, 0.38426224142313004 l0.5691983923316002, 0.2303672954440117 0.44118430465459824, 0.33766821026802063 l0.1690203882753849, 0.21578768268227577 0.29384953901171684, 0.10656573809683323 l0.35737238824367523, -0.039300285279750824 0.5186203867197037, -0.21077744662761688 l0.2859659306704998, 0.15143194235861301 0.2679454907774925, 0.12141319923102856 l0.28191711753606796, -0.042335730977356434 0.4217981919646263, -0.045417738147079945 l0.43973609805107117, -0.45821674168109894 0.4989917203783989, -0.503898561000824 l0.3262460231781006, -0.3867943584918976 0.33602509647607803, -0.6067677587270737 l0.5662435293197632, -0.5969833955168724 0.493292473256588, -0.4564239829778671 l0.6212868914008141, -0.6037814170122147 0.6698192656040192, -0.6511317938566208 l0.5608968064188957, -0.6108317896723747 0.7728759944438934, -0.7124904543161392 l0.7158596813678741, -0.6904622912406921 0.6624925881624222, -0.816391184926033 l0.6478380411863327, -0.6084171682596207 0.2882922813296318, 0.028988297563046217 l0.6490834802389145, -0.5239010602235794 0.4226762056350708, -0.5000023171305656 l0.6534505635499954, -0.7439234107732773 0.5972698330879211, -0.6463826447725296 l0.701829269528389, -0.5671006813645363 0.7083845138549805, -0.5671077221632004 l0.8629437536001205, -0.7681573182344437 0.7508228719234467, -0.5772975832223892 l0.7587467133998871, -0.623452216386795 0.7232804596424103, -0.4108622670173645 l0.7281649857759476, -0.6863770633935928 0.6306269019842148, -0.40403764694929123 l0.8029108494520187, -0.6059239432215691 0.6882001459598541, -0.49575701355934143 l0.6895743310451508, -0.5853516608476639 0.7674118131399155, -0.7501723617315292 l0.857970342040062, -0.5929971486330032 0.668574720621109, -0.4848327487707138 l0.804721862077713, -0.5338536947965622 0.7564813643693924, -0.47589853405952454 l0.9379152208566666, -0.30966904014348984 0.8857309818267822, -0.4955531656742096 l0.9004420042037964, -0.3921187296509743 0.8920217305421829, -0.07242118008434772 l1.0361514240503311, -0.45626450330018997 0.8829732984304428, -0.4178526997566223 l0.8991780877113342, -0.30659036710858345 0.8692310005426407, -0.28746863827109337 l0.7356607913970947, -0.5703311040997505 0.9218328446149826, -0.17647238448262215 l0.9772542864084244, -0.33768147230148315 0.8790501207113266, -0.2954773046076298 l0.7158889621496201, -0.1983363926410675 0.7283946126699448, -0.289869699627161 m-44.34690225869417, 102.86776324908715 l-1.9926759600639343, -0.3044569306075573 -2.169046849012375, 0.5213195085525513 l-0.580437183380127, 1.116136759519577 0.23445019498467445, 1.3895836472511292 l0.3629482537508011, 1.773250699043274 0.537433959543705, 2.3150768876075745 l1.3043694198131561, 1.8822316825389862 1.0977404564619064, 1.8800318241119385 l0.9548985958099365, 1.810777485370636 0.9933594614267349, 1.1362433433532715 l0.9800049662590027, 0.9729626029729843 0.44985830783843994, 1.0171227902173996 l0.5122659355401993, 0.9598598629236221 1.0025563091039658, 0.5239246040582657 l0.5180854722857475, 0.5783494189381599 0.3562435507774353, 0.4559386149048805 l0.6636226177215576, 0.4697391018271446 0.5590126663446426, 0.2377472259104252 l0.38002874702215195, 0.39734821766614914 0.4194730147719383, 0.11896769516170025 l0.37370942533016205, -0.10978264734148979 0.5369238927960396, 0.07210768293589354 l0.3386883810162544, 0.25617582723498344 0.20922835916280746, -0.006642229855060577 l0.27477724477648735, -0.14407618902623653 0.49169082194566727, 0.012600863119587302 l0.2876385487616062, -0.022803177125751972 0.3869497776031494, -0.37649374455213547 l0.43501876294612885, -0.31808510422706604 0.544358640909195, -0.35594359040260315 l0.5135368928313255, -0.3920985013246536 0.3551356866955757, -0.22913988679647446 l0.5545205622911453, -0.5894102156162262 0.4829810932278633, -0.39440106600522995 l0.5418140441179276, -0.458533875644207 0.4595945030450821, -0.6290989369153976 l0.5332320183515549, -0.6675602495670319 0.6549805402755737, -0.5656317993998528 l0.6648077070713043, -0.5800414830446243 0.8311479538679123, -0.7515142112970352 l0.6034913286566734, -0.6234315410256386 0.5182555690407753, -0.6335071474313736 l0.6331565231084824, -0.41475653648376465 0.7015229761600494, -0.593600682914257 l0.5086525902152061, -0.6940631568431854 0.7745938748121262, -0.7017479091882706 l0.6347310543060303, -0.6599148362874985 0.6676007062196732, -0.5381562560796738 l0.627501979470253, -0.39566822350025177 0.7438770681619644, -0.5855360254645348 l0.6033273786306381, -0.5415230616927147 0.6344717741012573, -0.49972984939813614 l-0.4354853183031082, 1.087094321846962 0.6775978207588196, -0.4381590336561203 l0.6785143911838531, -0.5365579202771187 0.6865416467189789, -0.4145865887403488 l0.7691904157400131, -0.6279496103525162 0.7268985360860825, -0.2635742165148258 l0.7284931838512421, -0.4119547829031944 0.6161568313837051, -0.17556378617882729 l0.7840561121702194, -0.22959889844059944 0.7829189300537109, -0.5157366394996643 l0.7347052544355392, -0.32214123755693436 0.7827386260032654, -0.43336644768714905 l0.7942719012498856, -0.5493413284420967 0.881909653544426, -0.3351036086678505 l1.0585296899080276, -0.451243594288826 0.8222402632236481, -0.3768111765384674 l0.9502884745597839, -0.39813291281461716 0.9194475412368774, -0.16785234212875366 l0.9206929802894592, -0.28797054663300514 1.0384949296712875, -0.32041192054748535 l0.7198014110326767, -0.2593683451414108 0.9050333499908447, -0.5534909293055534 l0.8634383976459503, -0.210343599319458 0.8805767446756363, -0.29005255550146103 m60.000879894942045, -199.1654487833148 l-1.8993157148361206, -0.32156459987163544 -1.6281595826148987, 0.47953415662050247 l-0.7277554273605347, 1.1799677461385727 0.33705510199069977, 1.605522483587265 l0.48086341470479965, 1.7061880230903625 0.7502638548612595, 1.9907046854496002 l1.0367754101753235, 1.75026074051857 1.1392063647508621, 1.6780085861682892 l1.0816548764705658, 1.4997227489948273 1.068921685218811, 1.3957180082798004 l1.3319849967956543, 1.0393103957176208 1.0250651836395264, 0.7837386429309845 l0.9384026378393173, 1.1508043110370636 0.9434785693883896, 0.5879998207092285 l0.6941993534564972, 0.5513641983270645 0.6682893633842468, 0.13690900057554245 l0.5286801978945732, 0.4559674486517906 0.43466564267873764, 0.4841497167944908 l0.5474940314888954, 0.5225188657641411 0.44993434101343155, 0.43295081704854965 l0.4039878025650978, 0.26983922347426414 0.28741633519530296, 0.07297847419977188 l0.09154685772955418, -0.1635589823126793 0.44095665216445923, -0.21814392879605293 l0.2778644300997257, 0.16471214592456818 0.48053544014692307, -0.12912164442241192 l0.22633075714111328, -0.2001061849296093 0.31820952892303467, 0.32253678888082504 l0.43686095625162125, -0.20192056894302368 0.47682616859674454, -0.4498297721147537 l0.510203056037426, -0.6373177468776703 0.41366085410118103, -0.35453878343105316 l0.570751316845417, -0.4886067286133766 0.5969982966780663, -0.5493184551596642 l0.6240817531943321, -0.6904454529285431 0.8269642293453217, -0.6619777530431747 l0.5350646376609802, -0.5688365921378136 0.5465243384242058, -0.6607100367546082 l0.617617666721344, -0.7621301710605621 0.6781037896871567, -0.44000349938869476 l0.5438898131251335, -0.686243325471878 0.5214350298047066, -0.6171827018260956 l0.5605929717421532, -0.571516864001751 0.8099501579999924, -0.6395524740219116 l0.5722956359386444, -0.5067900940775871 0.49010004848241806, -0.6268348544836044 l0.6495024263858795, -0.6396378576755524 0.7009680569171906, -0.5655200406908989 l0.6178641691803932, -0.6473593413829803 0.5984202027320862, -0.7257735729217529 l0.6654494255781174, -0.7196256518363953 0.4982905462384224, 0.2389269322156906 l0.6946714222431183, -0.6430952250957489 0.751839280128479, -0.4655418172478676 l0.15601259656250477, 0.43990805745124817 0.665501207113266, -0.6137823686003685 l0.6956516951322556, -0.5286645144224167 0.7416843622922897, -0.23467853665351868 l0.7306531071662903, -0.23100079968571663 0.8163926005363464, -0.3671687841415405 l0.6567211449146271, -0.44979479163885117 0.8532214164733887, -0.6521087884902954 l0.16493123024702072, -0.25619057938456535 0.8639912307262421, -0.3641141578555107 l0.8494970947504044, -0.48524074256420135 0.6857424974441528, -0.5240458995103836 l0.8965607732534409, -0.2399030141532421 0.7605595886707306, -0.32807208597660065 l0.9302711486816406, -0.4358571767807007 m-37.631855281069875, 100.48804780934006 l-1.9324122369289398, -0.32273218035697937 -2.1170616149902344, 0.6114403158426285 l-0.6440591067075729, 1.1812767386436462 -0.27244606986641884, 1.6313579678535461 l0.6218598037958145, 1.7747591435909271 0.9027451276779175, 1.687098741531372 l1.17367222905159, 1.6856229305267334 1.099243387579918, 1.846858561038971 l1.1754754185676575, 1.378200352191925 0.9768110513687134, 1.4554911851882935 l1.0446267575025558, 0.8344954997301102 1.0784218460321426, 0.9789479523897171 l1.0738421231508255, 0.588897354900837 0.7586725801229477, 0.8473470062017441 l0.6746450811624527, 0.678013265132904 0.39689913392066956, 0.6394986063241959 l0.7042025029659271, 0.3675984963774681 0.5242195725440979, 0.2867434173822403 l0.7396334409713745, 0.34301459789276123 0.612109899520874, 0.24426165968179703 l0.42632531374692917, 0.2062314748764038 0.32987363636493683, 0.1756567507982254 l0.5908478051424026, -0.06784024182707071 0.5511545017361641, 0.01874555484391749 l0.20152151584625244, 0.013801688328385353 0.3229857236146927, -0.011827541748061776 l0.4574925824999809, -0.3015167638659477 0.5094164237380028, -0.2889871969819069 l0.2575606293976307, -0.44921763241291046 0.31112033873796463, -0.237108264118433 l0.42993057519197464, -0.5896139517426491 0.42932555079460144, -0.5579975992441177 l0.44370170682668686, -0.3533562645316124 0.5621479079127312, -0.7770982384681702 l0.7115510851144791, -0.6676619499921799 0.5689778923988342, -0.6852662563323975 l0.6319458037614822, -0.7018830627202988 0.5996112525463104, -0.2657494507730007 l0.6626025587320328, -0.5480655655264854 0.6939445436000824, -0.6171749532222748 l0.5495651811361313, -0.4281266778707504 0.6526780873537064, -0.43584510684013367 l0.6574477255344391, -0.3815409913659096 0.7825881987810135, -0.5164743587374687 l0.5601326748728752, -0.4645632207393646 0.5343594402074814, -0.6110348552465439 l0.685199499130249, -0.5717099830508232 0.7624321430921555, -0.47049008309841156 l0.6400530785322189, -0.4691988229751587 0.6838733702898026, -0.5296000093221664 l0.601954460144043, -0.20902054384350777 0.6989140808582306, -0.45294206589460373 l0.6891652196645737, -0.5238986760377884 0.54508987814188, -0.4713451862335205 l0.7322092354297638, -0.5389666557312012 0.793348103761673, -0.4258320480585098 l0.7531316578388214, -0.50825085490942 0.8113998919725418, -0.5500122904777527 l0.8980309963226318, -0.5403369292616844 0.661509707570076, -0.18738223239779472 l0.7206787914037704, -0.4548593610525131 0.8720442652702332, -0.387493297457695 l0.6412223726511002, -0.36290913820266724 -0.21946361288428307, 0.3373580053448677 l0.8995591849088669, -0.27765581384301186 0.7544948160648346, -0.15723751857876778 l0.8189583569765091, -0.15384580940008163 0.9389304369688034, -0.1979323849081993 l0.8007502555847168, -0.07702148053795099 m-38.64795454777777, 99.70925101011744 l-1.8034659326076508, -0.3186099976301193 -1.6623586416244507, 0.6341094523668289 l-1.1926183849573135, 1.113620102405548 0.2357330173254013, 1.613677740097046 l0.6866850703954697, 1.941247284412384 0.8086998015642166, 1.6955360770225525 l0.8337292075157166, 1.7572186887264252 0.9327472001314163, 1.489359438419342 l0.9624909609556198, 1.3609613478183746 1.2463881075382233, 1.4306245744228363 l0.9723863750696182, 1.0368139296770096 0.9347386658191681, 0.7409337908029556 l0.8467235416173935, 1.0123951733112335 0.4903748631477356, 0.5903729796409607 l0.6320254504680634, 0.9128129482269287 0.5915716663002968, 0.6051091849803925 l0.4051082953810692, 0.7499350607395172 0.4644912853837013, 0.3274260461330414 l0.5650348216295242, -0.05458320025354624 0.7097119837999344, -0.1923677697777748 l0.28728773817420006, 0.3226783499121666 0.39166368544101715, 0.14495926909148693 l0.5631543323397636, 0.008630609954707325 0.4254582151770592, -0.04885650705546141 l0.22834230214357376, 0.0029712231480516493 0.25310536846518517, 0.00032116298825712875 l0.406842865049839, -0.20286839455366135 0.5025479570031166, -0.4149099811911583 l0.24623634293675423, -0.15803251415491104 0.3417310491204262, -0.315067358314991 l0.5027125403285027, -0.5216213688254356 0.5697942152619362, -0.47756362706422806 l0.39373796433210373, -0.19008776172995567 0.5968792736530304, -0.6545144319534302 l0.5182338133454323, -0.5312999710440636 0.5694649741053581, -0.8105633407831192 l0.4262099042534828, -0.529702715575695 0.4912490025162697, -0.544876754283905 l0.5475407093763351, -0.5381328985095024 0.4605003818869591, -0.6390200555324554 l0.6495826691389084, -0.6141436845064163 0.48148591071367264, -0.4089166596531868 l0.6712589412927628, -0.6966908276081085 0.6634024530649185, -0.48029277473688126 l0.7091763615608215, -0.7456541061401367 0.4992612823843956, -0.5104026570916176 l0.5840472877025604, -0.6483014672994614 0.4775731638073921, -0.5879824981093407 l0.5721927806735039, -0.3063362278044224 0.4520285129547119, -0.5150801688432693 l0.4745931178331375, -0.2981666103005409 0.7137591391801834, -0.5363029986619949 l0.5985942855477333, -0.45630328357219696 0.6755877286195755, -0.6626569479703903 l0.7412820309400558, -0.3632665425539017 0.6841731816530228, -0.4056861996650696 l0.5158155411481857, -0.36573387682437897 0.6373219192028046, -0.31192000955343246 l0.6646152585744858, -0.3093418478965759 0.718541294336319, -0.42699437588453293 l0.7095500826835632, -0.42546767741441727 0.7193980365991592, -0.3139917925000191 l0.7209979742765427, -0.21095409989356995 0.8398637175559998, -0.19241714850068092 l0.8874213695526123, -0.3483250364661217 0.8629118651151657, -0.3447426110506058 l0.7998370379209518, -0.23415157571434975 0.8460664749145508, -0.21573761478066444 l0.7793721556663513, -0.34089136868715286 0.7423179596662521, -0.40714964270591736 l0.8135538548231125, -0.4898582398891449 0.8122289925813675, -0.318637415766716 l0.9421674907207489, -0.4204963892698288 m59.30633362848312, -198.10982540855548 l-2.2412315011024475, -0.27881499379873276 -1.7567689716815948, 0.7381608337163925 l-1.095680370926857, 1.2158329039812088 -0.06942715030163527, 1.9689571857452393 l0.7367676496505737, 1.686883419752121 1.1714151501655579, 1.8961204588413239 l1.0284341871738434, 1.6898375749588013 1.2975545227527618, 1.4880628883838654 l0.9453289955854416, 1.3466784358024597 0.8314517885446548, 1.316361278295517 l0.9248810261487961, 1.097084954380989 0.8021089434623718, 0.8088034391403198 l0.6922589242458344, 0.6015258282423019 0.680033266544342, 0.8777351677417755 l0.5803351476788521, 0.9363488852977753 0.6081986054778099, 0.3121465630829334 l0.5197011679410934, 0.26963047683238983 0.4794381931424141, 0.35098176449537277 l0.27568312361836433, 0.5494390055537224 0.45995552092790604, 0.09265578351914883 l0.2924773842096329, 0.12223497033119202 0.409993939101696, 0.049734204076230526 l0.29576297849416733, 0.17806941643357277 0.3849487379193306, 0.08786909282207489 l0.2578859217464924, -0.016000360483303666 0.40730904787778854, 0.0036551072844304144 l0.3124275431036949, -0.2612803690135479 0.3546150028705597, -0.46110786497592926 l0.5791119113564491, -0.6661151349544525 0.5035478249192238, -0.48554956912994385 l0.4680901765823364, -0.6150949001312256 0.439353883266449, -0.32155390828847885 l0.5117522180080414, -0.5125396326184273 0.6137113273143768, -0.6442587077617645 l0.4942205920815468, -0.47665931284427643 0.4959823936223984, -0.42626868933439255 l0.5300908163189888, -0.578710176050663 0.49743257462978363, -0.3914717584848404 l0.6284096837043762, -0.7906384021043777 0.7631131261587143, -0.8305887877941132 l0.7651298493146896, -0.8304911106824875 0.6642342358827591, -0.6588613241910934 l0.625334158539772, -0.655025839805603 0.6369349360466003, -0.6767791509628296 l0.7933318614959717, -0.6038494408130646 0.673348531126976, -0.5384871363639832 l0.7711097598075867, -0.5689804255962372 0.5417130142450333, -0.5610651522874832 l0.7608330249786377, -0.45050248503685 0.7817885279655457, -0.3863720968365669 l0.7905735820531845, -0.5331646651029587 0.6861977279186249, -0.5783270671963692 l0.5748412013053894, -0.3925551101565361 0.7974781095981598, -0.5574482679367065 l0.6612777709960938, -0.5823928862810135 0.6610973924398422, -0.46220581978559494 l0.8080337196588516, -0.4544251412153244 0.6872513890266418, -0.41621170938014984 l0.8124831318855286, -0.4478749632835388 0.8519704639911652, -0.35343214869499207 l0.7931353896856308, -0.3350045159459114 0.8032191544771194, -0.37805818021297455 l0.9054001420736313, -0.2892064303159714 0.8385114371776581, -0.4330190271139145 l0.9632387757301331, -0.3118309751152992 1.0437221080064774, -0.3438882529735565 l0.8818496018648148, -0.310361348092556 0.80389603972435, -0.27529094368219376 l0.719509944319725, -0.22414984181523323 0.9094318002462387, -0.3380747511982918 l0.9156829863786697, -0.3534252941608429 0.9279146790504456, -0.2436746098101139 l-0.7203073054552078, 0.9944254159927368 0.8704807609319687, -0.20517930388450623 l0.8622735738754272, -0.02618101891130209 m-40.94745322596282, 101.67164931059233 l-2.185584157705307, -0.23213626816868782 -1.447439044713974, 0.4680829495191574 l-0.7075076550245285, 1.1643222719430923 -0.44765863567590714, 1.5273275971412659 l0.5085411667823792, 1.9125725328922272 0.9960615634918213, 2.0070746541023254 l1.1730638146400452, 1.8726828694343567 1.1343615502119064, 1.8416620790958405 l1.270308792591095, 1.3197550177574158 1.0324627161026, 1.3289928436279297 l0.7983946800231934, 1.269170343875885 0.8977962285280228, 1.0750167071819305 l0.9234785288572311, 0.635751411318779 1.064247488975525, 0.2713712118566036 l0.9620723873376846, 0.40467221289873123 0.805085301399231, 0.44915635138750076 l0.7007543742656708, 0.4932389035820961 0.5731058865785599, 0.19315024837851524 l0.5721280723810196, 0.3675161302089691 0.4557543620467186, 0.3289130702614784 l0.5082828551530838, 0.1663646474480629 0.3408987447619438, 0.03433044534176588 l0.22567249834537506, 0.04048282280564308 0.41170910000801086, 0.2246820367872715 l0.11368195526301861, -0.14621267095208168 0.481342114508152, -0.04176184069365263 l0.4335106536746025, -0.47028452157974243 0.4790077358484268, -0.47999076545238495 l0.3495386242866516, -0.29556866735219955 0.4071694612503052, -0.5333752930164337 l0.6374801695346832, -0.6164536997675896 0.4344063997268677, -0.36474592983722687 l0.6284400820732117, -0.6170081347227097 0.6444808840751648, -0.47131679952144623 l0.6295031309127808, -0.8147170394659042 0.44076982885599136, -0.7542450726032257 l0.6169459968805313, -0.5594782531261444 0.6658963859081268, -0.578329861164093 l0.6689796596765518, -0.698346272110939 0.5907421186566353, -0.5558322742581367 l0.6306499242782593, -0.6191544234752655 0.518098771572113, -0.6605725735425949 l0.7476700842380524, -0.6022718176245689 0.7624681293964386, -0.582987442612648 l0.6829017400741577, -0.658024400472641 0.6580693274736404, -0.6656383723020554 l0.7200238108634949, -0.5418436229228973 0.7103017717599869, -0.42278941720724106 l0.5562267452478409, -0.54566890001297 0.564362145960331, -0.5197958275675774 l0.5391127616167068, -0.31707119196653366 0.677366778254509, -0.5246778577566147 l0.7036484777927399, -0.3327537700533867 0.8295786380767822, -0.7236795872449875 l0.4839908704161644, -0.6874018162488937 0.7908771187067032, -0.3557223826646805 l0.670725405216217, -0.11178468354046345 0.783909410238266, -0.302861575037241 l0.77757328748703, -0.4880177229642868 0.7240089029073715, -0.30401043593883514 l0.7778910547494888, -0.36787740886211395 0.609709657728672, -0.41840627789497375 l0.9908995032310486, -0.5328143760561943 0.8729217946529388, -0.2747161127626896 l0.8488103747367859, -0.3700248897075653 0.7693836838006973, -0.12974444776773453 l0.6851939857006073, -0.4529700428247452 0.8330953121185303, -0.28193892911076546 l0.9503305703401566, -0.29287155717611313 m-40.05875966977328, 101.70392083236948 l-2.2893866896629333, -0.19848644733428955 -2.405278980731964, 0.5791798979043961 l-1.1602628231048584, 1.3034220039844513 -0.25308843702077866, 1.7987288534641266 l0.5524993315339088, 1.9382201135158539 1.0669100284576416, 1.8990163505077362 l1.182766780257225, 1.7506974935531616 0.9787479043006897, 1.4576201140880585 l1.074102446436882, 1.2037044763565063 0.9023135900497437, 1.4357632398605347 l0.8491494506597519, 1.153900921344757 0.8892578631639481, 0.8158606290817261 l0.9208551049232483, 0.8717244863510132 0.7820525020360947, 0.3048449009656906 l0.7598461210727692, 0.8740796148777008 0.4454783722758293, 0.5316725745797157 l0.5897459387779236, 0.10842295363545418 0.51149632781744, 0.27422020211815834 l0.37150483578443527, 0.31946543604135513 0.39606906473636627, 0.2268085815012455 l0.41699517518281937, 0.13520637527108192 0.3206993266940117, 0.5751596018671989 l0.27835913002491, 0.1594381220638752 0.3348098322749138, 0.36031153053045273 l0.14972474426031113, 0.10130511596798897 0.30785609036684036, -0.18254563212394714 l0.27871038764715195, -0.09797121398150921 0.42524632066488266, -0.37593021988868713 l0.3482436388731003, -0.37681955844163895 0.46896863728761673, -0.5124038085341454 l0.3089301660656929, -0.2513108402490616 0.4508933052420616, -0.39359476417303085 l0.5194617062807083, -0.6323812901973724 0.6149208918213844, -0.46439923346042633 l0.48014726489782333, -0.5854995548725128 0.5431686341762543, -0.6557693332433701 l0.4112754389643669, -0.6710245460271835 0.644124448299408, -0.5063604936003685 l0.6808584183454514, -0.8414999395608902 0.7501739263534546, -0.4886700212955475 l0.6378892809152603, -0.7132896035909653 0.6893176585435867, -0.7188449800014496 l0.6563998013734818, -0.5266828835010529 0.5960894003510475, -0.6998654454946518 l0.730595663189888, -0.6211140379309654 0.5547976493835449, -0.5886799097061157 l0.7822898030281067, -0.7160934805870056 0.673382356762886, -0.37429023534059525 l0.41304342448711395, -0.4459715634584427 0.60745719820261, -0.43145816773176193 l0.8232855796813965, -0.6288351118564606 0.7224717736244202, -0.4095016047358513 l0.7047439366579056, -0.47636784613132477 0.5928734317421913, -0.11605300940573215 l0.7467325776815414, -0.30582282692193985 0.6628182530403137, -0.39726272225379944 l0.7376469671726227, -0.30007079243659973 0.6467261910438538, -0.4058923199772835 l0.8307584375143051, -0.5312888696789742 0.6976999342441559, -0.4439055547118187 l0.7526075094938278, -0.24592893198132515 0.8718433976173401, -0.22099724039435387 l0.8667527884244919, -0.33057622611522675 0.8009530603885651, -0.42634759098291397 l0.8935955166816711, -0.45030198991298676 0.778028815984726, -0.19330859184265137 l0.8727265894412994, -0.4217645898461342 0.8795515447854996, -0.4660418629646301 l0.87885782122612, -0.3024030476808548 0.9023676067590714, -0.4510795325040817 l0.8030655980110168, -0.19822202622890472 0.8451983332633972, -0.36588605493307114 l0.9521997720003128, -0.4779966175556183 1.0615942627191544, -0.3686868026852608 l1.0073477029800415, -0.4083448275923729 m58.08827184140682, -197.84711946675088 l-2.061184346675873, -0.37320226430892944 -1.9846279919147491, 0.41503753513097763 l-0.9191654622554779, 1.3374152779579163 -0.2239098958671093, 1.4848974347114563 l0.29477208852767944, 1.7827311158180237 1.1725596338510513, 1.8670028448104858 l1.2670893967151642, 1.4097802340984344 1.3583940267562866, 1.5908963978290558 l0.8782562613487244, 1.690874844789505 1.0883840173482895, 1.260019689798355 l0.9422378987073898, 1.411127746105194 1.1922195553779602, 0.8447864651679993 l0.6410908699035645, 0.9338071197271347 0.6429340690374374, 0.7780341058969498 l0.7831118255853653, 0.4655250161886215 0.5227850377559662, 0.6957793980836868 l0.4053051024675369, 0.3866615518927574 0.5889494344592094, 0.16168197616934776 l0.4284970089793205, 0.5081076547503471 0.34391723573207855, 0.2193128690123558 l0.35767387598752975, 0.09522204287350178 0.48708170652389526, 0.07363622076809406 l0.2899409458041191, -0.009539465536363423 0.15970226377248764, -0.032722989562898874 l0.28288859874010086, 0.09049102663993835 0.5021997541189194, -0.27703089639544487 l0.37269044667482376, -0.5896246433258057 0.42245838791131973, -0.42471207678318024 l0.4654814675450325, -0.3993549570441246 0.4553021490573883, -0.30553046613931656 l0.5454430729150772, -0.3424583375453949 0.6361665576696396, -0.3760550916194916 l0.5617609620094299, -0.709100216627121 0.5506377667188644, -0.6508300453424454 l0.5999382585287094, -0.5517160519957542 0.6006762757897377, -0.761960819363594 l0.7700779289007187, -0.4252563416957855 0.5229282006621361, -0.7636586576700211 l0.6167764589190483, -0.7548993825912476 0.7308635860681534, -0.7019273191690445 l0.6658617407083511, -0.6271601468324661 0.7215934991836548, -0.5830987170338631 l0.7166719436645508, -0.7016719877719879 0.6791211664676666, -0.6177813559770584 l0.889253169298172, -0.7483678311109543 0.7622621208429337, -0.4418906942009926 l0.6169610098004341, -0.8099412173032761 0.6437844038009644, -0.5241825804114342 l0.5922118574380875, -0.573490634560585 0.6137954071164131, -0.4879574477672577 l0.6843538582324982, -0.589408278465271 0.7979549467563629, -0.5270691961050034 l0.9474372118711472, -0.5428094789385796 -0.5299641564488411, 1.1793828755617142 l0.6482148915529251, -0.26933781802654266 0.8449853956699371, -0.4660874605178833 l0.8317666500806808, -0.42328983545303345 0.6538427621126175, -0.4081053286790848 l0.771198496222496, -0.37402842193841934 0.6580951809883118, -0.40181417018175125 l0.8623486012220383, -0.5526932701468468 0.8004217594861984, -0.40636830031871796 l0.7650671899318695, -0.30750684440135956 0.75832799077034, -0.2287328615784645 l0.9166111052036285, -0.060551492497324944 0.7946860790252686, -0.25008274242281914 l0.8830852061510086, -0.39071280509233475 0.9218642115592957, -0.17586186528205872 l0.9091820567846298, -0.08214181289076805 0.9267384558916092, -0.5423011630773544 l0.9000407159328461, -0.2750210464000702 0.9173011779785156, -0.3703638166189194 l0.9312953799962997, 0.046034189872443676 m-43.85092481272295, 103.4532615786884 l-1.9096192717552185, -0.4012416675686836 -1.9378699362277985, 0.6391968578100204 l-0.7994180917739868, 1.13241508603096 0.14356146566569805, 1.6530410945415497 l0.8439163118600845, 1.529504507780075 1.2253835797309875, 1.7655186355113983 l1.0250691324472427, 2.0585015416145325 0.8885109424591064, 1.5238891541957855 l0.9967980533838272, 1.4044822752475739 1.0453246533870697, 1.3935601711273193 l1.1329715698957443, 0.6993154436349869 1.0083171725273132, 1.0611769556999207 l0.7623124122619629, 0.7167721539735794 0.7621759176254272, 0.6528858840465546 l0.7688628137111664, 0.6427424401044846 0.3175884485244751, 0.3681536763906479 l0.4297665134072304, 0.5397207289934158 0.5098306760191917, 0.38958117365837097 l0.4746575281023979, 0.025907771196216345 0.2125910297036171, 0.11849621310830116 l0.5197162553668022, 0.16022004187107086 0.37918850779533386, 0.12350905686616898 l0.3992195799946785, -0.07756432052701712 0.43257083743810654, -0.27242472395300865 l0.42567241936922073, 0.03519112942740321 0.5734188109636307, -0.3482842817902565 l0.2636741101741791, -0.5919234454631805 0.3806333616375923, -0.335015244781971 l0.43157055974006653, -0.39561279118061066 0.4558487981557846, -0.20877737551927567 l0.3621930256485939, -0.20599551498889923 0.3284136578440666, -0.2701962739229202 l0.41836708784103394, -0.3179166838526726 0.5138714984059334, -0.7059632986783981 l0.5937660112977028, -0.6070977821946144 0.7685473561286926, -0.7684997469186783 l0.6018192693591118, -0.6608180701732635 0.5824493989348412, -0.5698809772729874 l0.6396957486867905, -0.49597010016441345 0.6293884664773941, -0.5724881961941719 l0.730145052075386, -0.6534203141927719 0.8256823569536209, -0.5514276772737503 l0.7551803439855576, -0.7531821727752686 0.704912543296814, -0.4713064059615135 l0.5566792190074921, -0.5517520755529404 0.5492429062724113, -0.4789658263325691 l0.6103299930691719, -0.7522934675216675 0.6530532240867615, -0.5021171644330025 l0.78758604824543, -0.3492310270667076 0.6891731172800064, -0.5439242348074913 l0.6580658257007599, -0.37948206067085266 0.6374009698629379, -0.44457245618104935 l0.8329500257968903, -0.3652060031890869 0.7949554920196533, -0.6416831910610199 l0.6696750968694687, -0.5070911347866058 0.8489257842302322, -0.6708444654941559 l0.6760893762111664, -0.5289744958281517 0.6816455721855164, -0.37047915160655975 l0.7301782816648483, -0.5035600066184998 0.8088012784719467, -0.48358045518398285 l0.8362201601266861, -0.3989963233470917 0.8569921553134918, -0.2614324539899826 l0.9836699813604355, -0.38549918681383133 0.7707716524600983, -0.5475185438990593 l0.8087964355945587, -0.29291920363903046 0.8217433840036392, -0.3261907026171684 l0.8782287687063217, -0.37309397011995316 0.6713682413101196, -0.38251977413892746 l0.8755497634410858, -0.15718793496489525 0.8382251858711243, -0.37216905504465103 l0.067756581120193, -0.20063308998942375 0.8457767963409424, -0.14664660207927227 l0.8598217368125916, -0.23649906739592552 0.9981347620487213, -0.24638039991259575 l0.9211844205856323, -0.13242260552942753 1.0035594552755356, -0.290740504860878 l0.8350957930088043, -0.21162478253245354 m-43.06760590756312, 104.24791511886724 l-2.235778719186783, -0.2964656986296177 -2.1315640211105347, 0.4876028001308441 l-0.6549348682165146, 0.9317020326852798 -0.12390507385134697, 1.6839995980262756 l0.21180154755711555, 2.030782103538513 1.157594844698906, 1.8824724853038788 l1.095484271645546, 1.5376971662044525 0.8413974940776825, 1.8235734105110168 l0.8249388635158539, 1.6646760702133179 1.121603548526764, 1.0439524799585342 l0.8594092726707458, 1.0712938010692596 1.0693559795618057, 0.7142412662506104 l0.8119247108697891, 1.0504619777202606 0.7631757855415344, 0.7770225405693054 l0.6537314504384995, 0.8516747504472733 0.5114738643169403, 0.38635581731796265 l0.5523350089788437, 0.2703823894262314 0.3475760295987129, 0.4671044647693634 l0.36821018904447556, 0.3297318145632744 0.4356985539197922, 0.1560658123344183 l0.43448783457279205, 0.14969154261052608 0.5208040401339531, 0.16288567334413528 l0.5168606340885162, 0.00026161858841078356 0.42637668550014496, -0.22066032513976097 l0.3484521806240082, -0.22366495802998543 0.4663442075252533, -0.37733063101768494 l0.4359627515077591, -0.31968727707862854 0.46074386686086655, -0.40833238512277603 l0.6209530308842659, -0.6112153828144073 0.6058027595281601, -0.5746741965413094 l0.36539003252983093, -0.27733901515603065 0.4560834541916847, -0.6129825487732887 l0.5046604201197624, -0.6893442571163177 0.8436372131109238, -0.5986179411411285 l0.4906545579433441, -0.7169999182224274 0.7652319222688675, -0.7873211801052094 l0.7732401788234711, -0.4993492364883423 0.6793878972530365, -0.7018183916807175 l0.7223473489284515, -0.790063664317131 0.6525032967329025, -0.6921258568763733 l0.6434103846549988, -0.5020224303007126 0.565195195376873, -0.5385143309831619 l0.6503278017044067, -0.6309967488050461 0.624757707118988, -0.5684142932295799 l0.7622227817773819, -0.824306309223175 0.7143830507993698, -0.6542282551527023 l0.6582304090261459, -0.38638923317193985 0.6258070468902588, -0.2509872801601887 l0.784953236579895, -0.6932105869054794 0.49917031079530716, -0.6724673509597778 l0.6690490245819092, -0.35136882215738297 0.5060194060206413, -0.7831304520368576 l0.7176750898361206, -0.6612905859947205 0.5699195340275764, -0.43437056243419647 l0.7558402419090271, -0.4058431461453438 0.5615945532917976, -0.5841197073459625 l0.7480457425117493, -0.33843565732240677 0.6628074496984482, -0.6594513356685638 l0.6421699374914169, -0.4072093591094017 0.8261948823928833, -0.4845093935728073 l0.8302423357963562, -0.45432690531015396 0.8533503115177155, -0.2900546230375767 l0.7608035206794739, -0.11848743073642254 0.8653447031974792, -0.3356531634926796 l0.9821303188800812, -0.40926575660705566 0.9023922681808472, -0.2665313147008419 l0.7046732306480408, -0.46051859855651855 0.9216437488794327, -0.4238346591591835 l0.9532555192708969, -0.38321077823638916 0.8506537228822708, -0.2849992550909519 l0.9261283278465271, -0.4461289569735527 m59.05326072126627, -196.60630451980978 l-1.9447039067745209, -0.2688458375632763 -1.9719773530960083, 0.4900030046701431 l-0.8875622600317001, 1.2526299059391022 -0.26002343744039536, 1.9141064584255219 l0.3460860252380371, 2.1370723843574524 0.8909733593463898, 2.124752104282379 l1.3211184740066528, 1.618737280368805 1.3074317574501038, 1.4684563875198364 l1.3210436701774597, 1.6968762874603271 1.06401726603508, 0.8829530328512192 l0.9096968173980713, 1.0284380614757538 0.7060239464044571, 0.9885263442993164 l0.792350098490715, 1.0174652934074402 0.6691758334636688, 0.94474196434021 l0.6416426599025726, 0.670793429017067 0.575270764529705, 0.35373102873563766 l0.7331085950136185, 0.5006802827119827 0.4952111840248108, 0.6453881412744522 l0.6858038157224655, 0.16948774456977844 0.4166211187839508, 0.09808777831494808 l0.43699048459529877, 0.18652144819498062 0.35902511328458786, -0.26758428663015366 l0.3372936323285103, 0.3803466260433197 0.2403218299150467, 0.19827459007501602 l0.3474215045571327, -0.053835129365324974 0.3338337689638138, -0.053268978372216225 l0.3372132033109665, -0.25535188615322113 0.29858795925974846, -0.5135108530521393 l0.6040115281939507, -0.44228099286556244 0.4755111038684845, -0.6255768984556198 l0.574290081858635, -0.761355459690094 0.4055751860141754, -0.5604930594563484 l0.475260429084301, -0.5861326307058334 0.5553063005208969, -0.49145426601171494 l0.6656532734632492, -0.34376371651887894 0.6291434168815613, -0.5272519960999489 l0.5215343087911606, -0.5033518001437187 0.6286289542913437, -0.6315792351961136 l0.8705723285675049, -0.6340114772319794 0.7304185628890991, -0.789417177438736 l0.6918615847826004, -0.6657647341489792 0.700681209564209, -0.6204443052411079 l0.7578784227371216, -0.580730102956295 0.7918181270360947, -0.5684008449316025 l0.6640750169754028, -0.4774424806237221 0.6779975444078445, -0.7404811680316925 l0.6688694655895233, -0.7038808614015579 0.6153273582458496, -0.41069474071264267 l0.6854439526796341, -0.5818630754947662 0.7159512490034103, -0.5253212153911591 l0.7249904423952103, -0.3854101523756981 0.7904048264026642, -0.48831526190042496 l0.6169932335615158, -0.6251225620508194 0.6516072899103165, -0.6213434413075447 l0.843082070350647, -0.5170842632651329 0.8823835104703903, -0.4269951954483986 l0.7226891815662384, -0.32857295125722885 0.6950311362743378, -0.5782444775104523 l0.8141440153121948, -0.5133276060223579 0.6293261051177979, -0.6336520612239838 l0.6932344287633896, -0.527225024998188 0.8875182271003723, -0.40604647248983383 l0.8014450967311859, -0.38112111389636993 0.6663261353969574, -0.5006833001971245 l0.714343786239624, -0.4696075990796089 0.8743482828140259, -0.21155137568712234 l0.8923095464706421, -0.428079292178154 0.8611824363470078, -0.2596873603761196 l0.8169480413198471, -0.385514460504055 0.9522555768489838, -0.3273838385939598 l0.972101166844368, -0.23934977129101753 0.9753977507352829, -0.48764903098344803 m-38.97735400125384, 102.12264089030214 l-2.100650668144226, -0.2245468832552433 -1.980508714914322, 0.8393549919128418 l-1.2489980459213257, 1.1862435191869736 -0.03460377687588334, 1.4541442692279816 l0.3602122887969017, 1.9696764647960663 1.0785642266273499, 2.0746654272079468 l0.9707655757665634, 1.9803386926651 1.371772140264511, 1.830427348613739 l1.0647784173488617, 1.185111328959465 0.8775339275598526, 1.232164204120636 l1.1389435082674026, 0.7377246767282486 0.7662880420684814, 1.228294000029564 l0.5700787529349327, 0.8461672812700272 0.6652384996414185, 0.9358088672161102 l0.6240120902657509, 0.5518210306763649 0.631730705499649, 0.43587345629930496 l0.49800533801317215, 0.2304961159825325 0.48212993890047073, 0.1909669116139412 l0.27936240658164024, 0.45579440891742706 0.4160674661397934, -0.017766699893400073 l0.49176715314388275, 0.1552119106054306 0.28942903503775597, 0.4492507502436638 l0.54828230291605, -0.026636398397386074 0.6890713423490524, -0.37540171295404434 l0.6732901185750961, -0.35211749374866486 0.28289204463362694, -0.1723022572696209 l0.3456307575106621, -0.19926052540540695 0.37694986909627914, -0.22489335387945175 l0.4214266687631607, -0.1379131432622671 0.4596259444952011, -0.4739775136113167 l0.3891429305076599, -0.4308956488966942 0.39955683052539825, -0.640379935503006 l0.603209026157856, -0.43258097022771835 0.4713486135005951, -0.445600263774395 l0.5812960118055344, -0.730731338262558 0.5188291147351265, -0.5534456297755241 l0.5128797143697739, -0.6462016701698303 0.6228670105338097, -0.6244533881545067 l0.6397079676389694, -0.5968430265784264 0.7426021993160248, -0.6329811364412308 l0.6778335571289062, -0.5416287481784821 0.4571375250816345, -0.49654681235551834 l0.672856867313385, -0.47951992601156235 0.6521803885698318, -0.7628295570611954 l0.6213695183396339, -0.808526873588562 0.7236906141042709, -0.5750354751944542 l0.6659771502017975, -0.37191014736890793 0.6571551412343979, -0.39166159927845 l0.5088594555854797, -0.5684220418334007 0.7616666704416275, -0.7244013249874115 l0.5475441738963127, -0.398535393178463 0.786745473742485, -0.5356277525424957 l0.726570263504982, -0.48687078058719635 0.7959666848182678, -0.45587625354528427 l0.7105786353349686, -0.8658472448587418 0.7976817339658737, -0.5483973771333694 l-0.06463311146944761, 0.34516531974077225 0.7328464090824127, -0.5107048153877258 l0.6337906420230865, -0.25227487087249756 0.8121592551469803, -0.5066435411572456 l-0.3743458539247513, 0.35999011248350143 0.7559951394796371, -0.4296872392296791 l0.8565694838762283, -0.3856556862592697 0.8152353763580322, -0.30764633789658546 l0.8102859556674957, -0.5373417213559151 0.9964192658662796, -0.3527498245239258 l0.9329302608966827, -0.29944539070129395 0.842258557677269, -0.347699336707592 l0.8535891026258469, -0.2885562740266323 m-39.49206972014508, 102.1396324277157 l-2.2069820761680603, -0.26266805827617645 -1.5660959482192993, 0.5570589378476143 l-1.0482928901910782, 0.97531758248806 0.003371280326973647, 1.6361473500728607 l0.562312938272953, 1.9682061672210693 1.0122362524271011, 1.839781254529953 l1.020524650812149, 1.7484056949615479 1.1604753136634827, 1.4755462110042572 l1.0386909544467926, 1.372792273759842 1.09172023832798, 1.2623411417007446 l0.976458340883255, 1.202649548649788 0.8438137173652649, 0.8419278264045715 l0.7883548736572266, 0.7948032021522522 0.6558786332607269, 0.721861943602562 l0.8902868628501892, 0.699637234210968 0.417819581925869, 0.7365822792053223 l0.5963269993662834, 0.432652123272419 0.41437041014432907, 0.3226298838853836 l0.6252219527959824, 0.17822358757257462 0.6723146140575409, 0.13655267655849457 l0.5312661454081535, -0.02142085926607251 0.3566233068704605, -0.028055780567228794 l0.5496738478541374, -0.1202275138348341 0.4855867847800255, -0.11262228712439537 l0.2476082369685173, -0.33061977475881577 0.40753521025180817, -0.2933221869170666 l0.28154730796813965, 0.01930261612869799 0.26866234838962555, -0.3827109560370445 l0.5051593855023384, -0.1978096179664135 0.4316272959113121, -0.1981191337108612 l0.42539406567811966, -0.3234655410051346 0.4715436324477196, -0.48219043761491776 l0.5272544920444489, -0.32350435853004456 0.47842711210250854, -0.6967879086732864 l0.6206255406141281, -0.7263857126235962 0.5844138935208321, -0.6020236015319824 l0.5646831542253494, -0.547601729631424 0.7061459869146347, -0.7028364390134811 l0.8403602987527847, -0.4562751203775406 0.6756297498941422, -0.5030359700322151 l0.4791470617055893, -0.7191823422908783 0.6941161304712296, -0.7246821373701096 l0.6566085666418076, -0.7459505647420883 0.6696167588233948, -0.6086830049753189 l0.6006937474012375, -0.5598891526460648 0.5607951059937477, -0.4672713205218315 l0.5644608289003372, -0.5532718822360039 0.5824059993028641, -0.5786490067839622 l0.789053812623024, -0.4550139978528023 0.8428862690925598, -0.743177980184555 l0.7275181263685226, -0.5939427390694618 0.6884366273880005, -0.48189058899879456 l0.8416341990232468, -0.6943924725055695 0.6148020923137665, -0.6234022974967957 l0.8025339990854263, -0.3794519603252411 0.7648622989654541, -0.5186550319194794 l0.43034784495830536, 0.2674602158367634 0.6883569806814194, -0.6930927187204361 l0.6914260983467102, -0.5598684027791023 0.8935227990150452, -0.3785128518939018 l-0.14234356582164764, 0.2647952549159527 0.8517611771821976, -0.26031438261270523 l0.7857254147529602, -0.4217303916811943 0.8765671402215958, -0.24374553933739662 l0.9295451641082764, -0.22442180663347244 0.8138329535722733, -0.2941982075572014 l0.6833243370056152, -0.39554886519908905 0.8882930129766464, -0.3859066963195801 l0.8971206098794937, -0.2257685363292694 0.9037228673696518, -0.44122934341430664 l0.8112706989049911, -0.3299979493021965 0.8349919319152832, -0.3382939472794533 l0.8619491755962372, -0.23447193205356598 0.8830844610929489, -0.04283771384507418 m56.989093281008536, -196.50538294750731 l-2.0215624570846558, -0.31614717096090317 -1.4592885971069336, 0.40067147463560104 l-0.633661299943924, 1.0434037446975708 0.17753882333636284, 1.623261719942093 l0.6446938216686249, 1.643606275320053 0.9676478058099747, 1.996472328901291 l0.9319885075092316, 1.6699224710464478 1.1446638405323029, 1.7897109687328339 l1.2415574491024017, 1.4288859069347382 1.1159619688987732, 1.2863117456436157 l1.134290173649788, 0.6976047903299332 0.6214117258787155, 1.1341002583503723 l1.0617558658123016, 0.6624871492385864 0.6592927128076553, 0.745646134018898 l0.644739493727684, 0.5021096765995026 0.6161139160394669, 0.691055953502655 l0.44042982161045074, 0.14577344991266727 0.5562382191419601, 0.46855345368385315 l0.17853714525699615, 0.29160114005208015 0.5597423017024994, 0.2629956230521202 l0.3533250093460083, 0.3383537009358406 0.29448768123984337, 0.3140662610530853 l0.4066937789320946, 0.13738990761339664 0.3339860215783119, -0.09426841512322426 l0.3314700350165367, -0.2547980099916458 0.3440207242965698, -0.047480259090662 l0.5612177029252052, -0.09697393514215946 0.5673291906714439, -0.19451767206192017 l0.5094100162386894, -0.4350827634334564 0.2572950907051563, -0.575198233127594 l0.3421827033162117, -0.6145169213414192 0.45894041657447815, -0.5294069275259972 l0.5477231740951538, -0.7094929367303848 0.5606910586357117, -0.2802211791276932 l0.5215338990092278, -0.6534308195114136 0.6989722698926926, -0.6704404205083847 l0.6819067895412445, -0.6870884448289871 0.5903643369674683, -0.8071807026863098 l0.5985520407557487, -0.5384356528520584 0.740261897444725, -0.6887415051460266 l0.5647735297679901, -0.8326509594917297 0.7078652083873749, -0.6592433899641037 l0.8082450926303864, -0.9091799706220627 0.4807129129767418, -0.648074597120285 l0.5757855996489525, -0.4357835277915001 0.7305362075567245, -0.5063958093523979 l0.622800849378109, -0.5476587638258934 0.7139703631401062, -0.5326526984572411 l0.5418999865651131, -0.5704774707555771 0.7540830224752426, -0.686388686299324 l0.6854790449142456, -0.49451012164354324 0.7592254132032394, -0.6426906585693359 l0.7630763202905655, -0.5425385758280754 0.7613130658864975, -0.4728931188583374 l0.8255984634160995, -0.3948819637298584 0.6090947985649109, -0.5551470443606377 l0.7136209309101105, -0.56399155408144 0.7121849805116653, -0.43364446610212326 l0.6568620353937149, -0.48789583146572113 0.7149384915828705, -0.37648651748895645 l0.693548396229744, -0.510348491370678 0.7820366322994232, -0.4985278472304344 l0.759875699877739, -0.44789478182792664 0.9474427998065948, -0.33925626426935196 l0.9696806222200394, -0.4186710715293884 0.74846550822258, -0.2847520262002945 l0.9964334964752197, -0.38308538496494293 0.8248702436685562, -0.2514786273241043 l0.8459501713514328, -0.2775673568248749 0.8818747848272324, -0.12867119163274765 l0.8988689631223679, -0.35035353153944016 1.0511726886034012, -0.3032584860920906 l0.9304074943065643, -0.23263806477189064 m-41.71394802629948, 103.06083018891513 l-2.1256446838378906, -0.26122385635972023 -1.979157030582428, 0.5062707886099815 l-0.8207555860280991, 1.212587058544159 -0.22153599187731743, 1.906813532114029 l0.6136662513017654, 1.7323237657546997 1.2080112099647522, 1.8404501676559448 l1.2111388146877289, 1.904892921447754 1.6246476769447327, 1.1961119621992111 l0.998842716217041, 1.5726900100708008 1.0829208046197891, 1.3113225996494293 l1.0474687814712524, 1.0745271295309067 1.1462301760911942, 0.8965425938367844 l0.8092359453439713, 0.7524994760751724 0.9355276077985764, 0.4625432938337326 l0.42208366096019745, 0.818227082490921 0.6823106855154037, 0.6831942498683929 l0.7102876156568527, 0.28248846530914307 0.3759574145078659, 0.3895050287246704 l0.44891275465488434, 0.20881043747067451 0.4042040556669235, 0.08700842037796974 l0.4633401334285736, 0.12239172123372555 0.21251210942864418, 0.25176331400871277 l0.37164390087127686, -0.08489138446748257 0.4034314304590225, 0.07521616294980049 l0.4672306030988693, -0.16823654994368553 0.5319274589419365, -0.0967860221862793 l0.2749042958021164, -0.12977655977010727 0.21679773926734924, -0.2246599644422531 l0.32403603196144104, -0.5200127139687538 0.3761276975274086, -0.12689495459198952 l0.3157326206564903, -0.6180883571505547 0.5033896118402481, -0.5477913469076157 l0.5197210609912872, -0.4272788390517235 0.4747522249817848, -0.43443746864795685 l0.646698996424675, -0.486653707921505 0.701887384057045, -0.5411901697516441 l0.5858570709824562, -0.5847616493701935 0.5825440958142281, -0.6571607291698456 l0.5531032010912895, -0.5203702300786972 0.9334801882505417, -0.5844079703092575 l0.537034347653389, -0.5673973262310028 0.5131373926997185, -0.5987183004617691 l0.6620220839977264, -0.8084641396999359 0.708080381155014, -0.4751329869031906 l0.5898724123835564, -0.6663544476032257 0.8085597306489944, -0.7371464371681213 l0.7077588886022568, -0.6783682852983475 0.5793241411447525, -0.5671831592917442 l0.6520888954401016, -0.7721642404794693 0.7219062745571136, -0.4297294095158577 l0.5677435919642448, -0.3688168525695801 0.8508742600679398, -0.6277048587799072 l0.7159906625747681, -0.47203876078128815 0.6221287697553635, 0.37179090082645416 l0.901394858956337, -0.38264498114585876 0.7897891849279404, -0.4798305407166481 l0.7439717650413513, -0.6451620161533356 0.7251788675785065, -0.3001066856086254 l0.8595456182956696, -0.29934946447610855 0.671127438545227, -0.2739216387271881 l0.7983159273862839, -0.4185747727751732 0.8530696481466293, -0.6908136606216431 l0.7115427404642105, -0.24619324132800102 0.7786647975444794, -0.3491685912013054 l0.8453068137168884, -0.4464193806052208 0.7533489912748337, -0.31582530587911606 l0.7956652343273163, -0.3347114473581314 0.9089450538158417, -0.29856573790311813 l0.798080563545227, -0.1866818591952324 0.8706831932067871, -0.2693063020706177 l0.8625403791666031, -0.30544403940439224 m-40.04499340429902, 101.14246068987995 l-2.1823182702064514, -0.3202938288450241 -1.974301040172577, 0.5440943315625191 l-0.9528801590204239, 1.2380695343017578 -0.2039462886750698, 1.745489090681076 l0.5328138172626495, 2.0940591394901276 0.6119293719530106, 2.105848491191864 l1.0423514246940613, 1.8284468352794647 1.1865246295928955, 1.7009496688842773 l1.0746248066425323, 1.4186479151248932 1.3233789801597595, 1.1275317519903183 l0.8907072991132736, 1.0867203772068024 1.2113220244646072, 0.4679017886519432 l0.6864508986473083, 0.7261862605810165 0.7300169765949249, 0.5618839338421822 l0.24713952094316483, 0.4914432391524315 0.7017982751131058, 0.2241225354373455 l0.6320344656705856, 0.2810913138091564 0.3560357913374901, 0.47463424503803253 l0.3487250953912735, 0.4856690764427185 0.5457806587219238, 0.3966466709971428 l0.4180903732776642, 0.4487597197294235 0.4471449926495552, 0.08214190602302551 l0.4166042432188988, 0.11639844626188278 0.3939718008041382, -0.0513544213026762 l0.2193588763475418, -0.43053023517131805 0.4919612407684326, -0.3105529025197029 l0.32762449234724045, -0.2611222304403782 0.4442209005355835, -0.22228481248021126 l0.5175740271806717, -0.43356120586395264 0.43530579656362534, -0.4309045150876045 l0.4095366597175598, -0.23881211876869202 0.5381594970822334, -0.45272380113601685 l0.45806560665369034, -0.4886435344815254 0.45861218124628067, -0.3610213100910187 l0.7173334807157516, -0.5361807346343994 0.7171148806810379, -0.6881707906723022 l0.7577428966760635, -0.6662701815366745 0.7211523503065109, -0.491265133023262 l0.6445398181676865, -0.6344730406999588 0.7530990242958069, -0.6830354779958725 l0.6142514944076538, -0.5858990177512169 0.611204244196415, -0.5622860789299011 l0.6038457527756691, -0.6994248181581497 0.52510567009449, -0.5823296308517456 l0.5279994010925293, -0.5551929026842117 0.5773498862981796, -0.5132345855236053 l0.6161544844508171, -0.8157674968242645 0.023290757089853287, 0.12269453145563602 l0.7090051472187042, -0.36634258925914764 0.6461682915687561, -0.5092008411884308 l0.7401129603385925, -0.619344674050808 0.6497009843587875, -0.5832641571760178 l0.672299787402153, -0.5769528821110725 0.6177375093102455, -0.5622860416769981 l0.6134477257728577, -0.39243757724761963 0.6336057931184769, -0.21441690623760223 l0.7873667031526566, -0.3968234732747078 0.7830707728862762, -0.35611461848020554 l0.5544763803482056, -0.44194042682647705 0.6647676974534988, -0.48442885279655457 l0.7276571542024612, -0.3955749049782753 0.8402254432439804, -0.18935298547148705 l0.8328386396169662, -0.4212465137243271 0.8525821566581726, -0.406346395611763 l0.9145663678646088, -0.3052026033401489 0.8409831672906876, -0.3131835162639618 l0.8954080194234848, -0.16998948529362679 0.8846868574619293, -0.35246118903160095 l0.6785400211811066, -0.16937021166086197 0.7591146230697632, -0.4701182246208191 l0.8891464024782181, -0.18992185592651367 0.8237167447805405, -0.27894841507077217 m59.651793679222465, -199.25406436203048 l-2.1447426080703735, -0.25181563571095467 -1.9281421601772308, 0.5618757754564285 l-0.9640265256166458, 1.0614368319511414 -0.2713440917432308, 1.647341400384903 l0.5898614600300789, 2.012607604265213 0.9610284864902496, 1.9047410786151886 l1.1859240382909775, 1.7932312190532684 0.974462553858757, 1.7573319375514984 l1.2417718768119812, 1.594809889793396 1.0466384887695312, 1.1781953275203705 l1.0215175151824951, 1.3072553277015686 1.0771871358156204, 0.8482276648283005 l0.8121602237224579, 0.7057498395442963 0.857403576374054, 0.6309366226196289 l0.7823137938976288, 0.4552440717816353 0.3760874271392822, 0.7276651263237 l0.5543478578329086, 0.5632288008928299 0.38154300302267075, 0.18952056765556335 l0.5474777519702911, 0.5720923095941544 0.6034330651164055, 0.18500465899705887 l0.3577643260359764, 0.055132173001766205 0.4209190234541893, 0.0920518022030592 l0.2608388289809227, -0.023276163265109062 0.4687419906258583, -0.04912762902677059 l0.34940414130687714, 0.047191157937049866 0.35044196993112564, 0.06786477286368608 l0.2537800930440426, -0.06573431193828583 0.3663646802306175, -0.39284292608499527 l0.6120316311717033, -0.4173057898879051 0.26679573580622673, -0.378333181142807 l0.3878290206193924, -0.5805354192852974 0.4964139312505722, -0.6251955777406693 l0.5506786704063416, -0.5937626957893372 0.4291900247335434, -0.6742439419031143 l0.4975477233529091, -0.7439900934696198 0.4070417955517769, -0.574973002076149 l0.688064768910408, -0.5320125445723534 0.6038624793291092, -0.5978982523083687 l0.6038369983434677, -0.660347118973732 0.6508782505989075, -0.9090255200862885 l0.64479760825634, -0.5442774295806885 0.8067096024751663, -0.8626514673233032 l0.6900513172149658, -0.3856803849339485 0.5716460943222046, -0.4245653748512268 l0.622408501803875, -0.5075610429048538 0.7145661860704422, -0.46447571367025375 l0.7245168089866638, -0.7643193751573563 0.7986757159233093, -0.2731655538082123 l0.7779230177402496, -0.4941597580909729 0.6327040493488312, -0.6492753326892853 l0.7191251963376999, -0.5779363214969635 0.6381063163280487, -0.3866225481033325 l0.7120770961046219, -0.26833996176719666 0.8991974592208862, -0.3688361868262291 l0.8255758881568909, -0.32833248376846313 0.7393559813499451, -0.3818005695939064 l0.7286900281906128, -0.29920659959316254 0.811154842376709, -0.341000072658062 l0.7974296063184738, -0.2954360470175743 0.7114293426275253, -0.17427626997232437 l0.5706088244915009, -0.2240430936217308 0.8946336805820465, -0.28624173253774643 l0.8717893809080124, -0.3503808006644249 -0.5536474287509918, 0.9113243222236633 l0.942753329873085, -0.41909053921699524 0.8453192561864853, -0.2596922963857651 l0.8907385915517807, -0.26694053784012794 0.927332192659378, -0.16548771411180496 l0.9575481712818146, -0.45240551233291626 1.0829979926347733, -0.328369177877903 l0.8662025630474091, -0.20661376416683197 0.9864752739667892, -0.2374284714460373 l0.9843236953020096, -0.2796405740082264 m-42.206755401566625, 103.3287087152712 l-1.7670688033103943, -0.5249101668596268 -1.8198522925376892, 0.5388011410832405 l-0.8866334706544876, 1.0573837906122208 0.09131891652941704, 1.4881700277328491 l0.3936122730374336, 1.7501044273376465 1.0172664374113083, 1.8592637777328491 l0.8617009222507477, 1.8633639812469482 1.5379533171653748, 1.2520898878574371 l1.2144561856985092, 1.2510624527931213 1.1354312300682068, 1.2087944149971008 l0.9685967862606049, 0.9127563238143921 0.7158472388982773, 1.157723069190979 l0.9146671742200851, 0.9175916016101837 0.6451654434204102, 0.41300948709249496 l0.7685668021440506, 0.6993670761585236 0.6977909803390503, 0.43780941516160965 l0.5982596799731255, 0.26748452335596085 0.6295342743396759, 0.6102859601378441 l0.6419619917869568, 0.3251945599913597 0.516209602355957, 0.17209090292453766 l0.6827412545681, 0.13654811307787895 0.294492207467556, -0.13247106224298477 l0.23645266890525818, -0.17095867544412613 0.4440486803650856, 0.024451585486531258 l0.4272284731268883, -0.14082998037338257 0.49313150346279144, -0.37535306066274643 l0.4848449304699898, -0.18442783504724503 0.4293490946292877, -0.5303369835019112 l0.23769870400428772, -0.4389023780822754 0.5266837775707245, -0.3557733818888664 l0.4149344936013222, -0.4409430921077728 0.39391275495290756, -0.5091732367873192 l0.5058103427290916, -0.4792531207203865 0.46454090625047684, -0.7674546539783478 l0.6009302660822868, -0.6454211473464966 0.6082004308700562, -0.8588495850563049 l0.6677767634391785, -0.6576603651046753 0.6622844189405441, -0.712675079703331 l0.6149065494537354, -0.7827275991439819 0.5320588126778603, -0.5998495221138 l0.6078134477138519, -0.8547848463058472 0.5699092894792557, -0.5857298150658607 l0.6247121840715408, -0.528290756046772 0.6786137074232101, -0.5307843536138535 l0.5777033418416977, -0.5343860387802124 0.6862780451774597, -0.6278634071350098 l0.6648476421833038, -0.33489394932985306 0.7171217352151871, -0.670880600810051 l0.6013268604874611, -0.7195670902729034 0.6743456423282623, -0.7436100393533707 l0.6774403899908066, -0.7234349101781845 0.7422589510679245, -0.7006361335515976 l0.6996119022369385, -0.6124291196465492 0.7569661736488342, -0.5259133502840996 l0.8947217464447021, -0.41756607592105865 0.7542651146650314, -0.3849002346396446 l0.6334436684846878, -0.5399864912033081 0.541769415140152, -0.495816245675087 l0.6812680512666702, -0.7051973789930344 0.8443935215473175, -0.47246072441339493 l1.0058324038982391, -0.5193892493844032 0.9147594124078751, -0.42455531656742096 l0.817398875951767, -0.35131562501192093 0.8740899711847305, -0.43087173253297806 l0.907171219587326, -0.3820102661848068 0.8918239176273346, -0.382009819149971 l0.7005290687084198, -0.2785634249448776 0.8749490231275558, -0.15052881091833115 l0.9707936644554138, -0.28877729550004005 0.9390778839588165, -0.28200048953294754 l0.8165153115987778, -0.28102992102503777 0.8350491523742676, -0.23285798728466034 m-40.786324786022305, 104.6346721680311 l-1.8513469398021698, -0.4606858640909195 -1.7582188546657562, 0.43625447899103165 l-0.8269867300987244, 1.441381722688675 -0.07814829237759113, 1.5337616205215454 l0.5590501427650452, 1.7843037843704224 0.70369653403759, 1.9403204321861267 l0.8664729446172714, 1.7379871010780334 0.9353180974721909, 1.6668832302093506 l1.1328517645597458, 1.3824591040611267 0.8616635203361511, 1.200924962759018 l0.8400018513202667, 1.0285524278879166 0.6859956681728363, 1.0708913952112198 l0.8743210881948471, 0.6943739205598831 0.7939513027667999, 0.6460686028003693 l0.8217658847570419, 0.34477222710847855 0.6501134485006332, 0.49327898770570755 l0.7221090793609619, 0.38346055895090103 0.38952797651290894, 0.46495378017425537 l0.2693226933479309, 0.47283098101615906 0.5460311844944954, 0.1329527236521244 l0.4445674270391464, 0.18425630405545235 0.33475756645202637, -0.0930196512490511 l0.42099539190530777, 0.003710943565238267 0.21003777161240578, -0.09345480240881443 l0.3867330402135849, -0.3802207484841347 0.6061837822198868, -0.4335707798600197 l0.2765672095119953, -0.3532814607024193 0.38387153297662735, -0.2279691956937313 l0.26505516842007637, -0.23086803033947945 0.3723539412021637, -0.4871862381696701 l0.49543995410203934, -0.4152393341064453 0.2790447138249874, -0.1649194024503231 l0.510181300342083, -0.47209568321704865 0.470360592007637, -0.7642710953950882 l0.5565918609499931, -0.48577651381492615 0.41818514466285706, -0.4557039216160774 l0.7200245559215546, -0.7072834670543671 0.51150843501091, -0.32330475747585297 l0.6789331883192062, -0.6517249345779419 0.6904201209545135, -0.6298799812793732 l0.5488381534814835, -0.5990975722670555 0.6009714677929878, -0.7162748277187347 l0.6249197199940681, -0.6898629665374756 0.6795027852058411, -0.7376262545585632 l0.7294710725545883, -0.7280420511960983 0.6419572979211807, -0.7812106609344482 l0.4772268980741501, -0.6415127217769623 0.7752200216054916, -0.47210346907377243 l0.7574009895324707, -0.6446050107479095 0.7275950163602829, -0.6533567607402802 l0.7161318510770798, -0.6317856907844543 0.6248276680707932, -0.49737099558115005 l0.6458821892738342, -0.5405589565634727 0.7308021932840347, -0.4590112715959549 l0.5944514274597168, -0.37928733974695206 0.5383285507559776, -0.3711323067545891 l0.6494150310754776, -0.6098524108529091 0.8366799354553223, -0.2825269475579262 l0.8535448461771011, -0.35398710519075394 0.72074294090271, -0.6069610640406609 l0.75430728495121, -0.44456254690885544 0.7900445908308029, -0.39267420768737793 l0.6795208156108856, -0.23861810564994812 0.6781576573848724, -0.20770898088812828 l0.7219041138887405, -0.20442208275198936 -0.18683528527617455, 0.4192217066884041 l0.8199306577444077, -0.258403904736042 0.9646116942167282, -0.46889398247003555 l0.8556163311004639, -0.22648349404335022 1.0928910225629807, -0.4373803362250328 l0.9723249077796936, -0.2704220823943615 0.8859381824731827, -0.33663656562566757 m60.96019454766065, -196.77518843687722 l-1.8075776100158691, -0.3972911462187767 -1.5786604583263397, 0.49436207860708237 l-0.7237909734249115, 0.994948148727417 0.04953213967382908, 1.5216830372810364 l0.705147385597229, 1.743856519460678 0.8071768283843994, 1.742069572210312 l1.098247542977333, 1.6428212821483612 1.0755950212478638, 1.6273784637451172 l1.2843981385231018, 1.2345065921545029 1.0166934877634048, 1.0739263147115707 l0.9451555460691452, 0.9335849434137344 0.5686381459236145, 0.879107192158699 l0.8709768205881119, 0.9260071069002151 0.4114844650030136, 0.24772433564066887 l0.5639562010765076, 0.5349539965391159 0.45825522392988205, 0.6772772967815399 l0.6214671581983566, 0.3667788952589035 0.6548366695642471, 0.472673736512661 l0.5187497660517693, 0.24086100980639458 0.38941334933042526, 0.07816441357135773 l0.5384911596775055, 0.2920973487198353 0.5224932357668877, 0.054123844020068645 l0.436648428440094, 0.07145304698497057 0.19203301519155502, 0.383889377117157 l0.3420151025056839, 0.021435751114040613 0.37053167819976807, -0.3211924061179161 l0.4533591866493225, -0.20811853930354118 0.4107193648815155, -0.2631043829023838 l0.4314257949590683, -0.4381881281733513 0.49960531294345856, -0.4208831116557121 l0.299900658428669, -0.3375304117798805 0.469648577272892, -0.3290720656514168 l0.5406615138053894, -0.5735821276903152 0.3251958638429642, -0.4359419643878937 l0.5675047636032104, -0.8209512382745743 0.5247651785612106, -0.7062271237373352 l0.5878577753901482, -0.8818051964044571 0.6110789254307747, -0.6295514851808548 l0.6598811596632004, -0.5771564692258835 0.7020018994808197, -0.7766923308372498 l0.7052651792764664, -0.6940294802188873 0.8033889532089233, -0.7425197213888168 l0.7624494284391403, -0.7630613446235657 0.7662291079759598, -0.7387267798185349 l-0.41477326303720474, 1.2208573520183563 0.6216684728860855, -0.5465937033295631 l0.8574263006448746, -0.4794304445385933 0.5249577388167381, -0.6081706285476685 l0.7195057719945908, -0.5053281784057617 0.6610864400863647, -0.5483796820044518 l0.8647286146879196, -0.5719451978802681 0.44644828885793686, -0.5524735897779465 l0.6535911560058594, -0.5813177302479744 0.6041068956255913, -0.7446261495351791 l0.8066777139902115, -0.5139259994029999 0.7943958044052124, -0.18507059663534164 l0.8292893320322037, -0.32808735966682434 0.8354547619819641, -0.4149132966995239 l0.8665977418422699, -0.4091480001807213 0.7668661326169968, -0.27504293248057365 l0.7681377977132797, -0.4255541041493416 0.7427238672971725, -0.3595142811536789 l0.7448311150074005, -0.3454224020242691 0.7504329085350037, -0.2454470656812191 l0.8541232347488403, -0.19408639520406723 1.0177776217460632, -0.4788879305124283 l0.8407318592071533, -0.40136221796274185 0.7568713277578354, -0.25037162005901337 l0.804070234298706, -0.3872920572757721 0.9202767163515091, -0.4205414652824402 m-41.197565991897136, 102.38966676319251 l-1.8256555497646332, -0.38581520318984985 -1.8502907454967499, 0.4783780127763748 l-0.8942683786153793, 1.00972518324852 -0.01330340513959527, 1.651342660188675 l0.5517140030860901, 1.9297967851161957 0.9168827533721924, 1.7474284768104553 l1.1906050890684128, 1.7773638665676117 1.1637376248836517, 1.8107225000858307 l1.196865290403366, 1.594841480255127 1.0523933172225952, 1.2531591951847076 l0.9318452328443527, 1.0423648357391357 0.8894360810518265, 1.0483916103839874 l0.7280343770980835, 0.6943250447511673 0.6855872273445129, 0.7143422961235046 l0.7518626749515533, 0.45260656625032425 0.5716216936707497, 0.5989738926291466 l0.40022630244493484, 0.503404326736927 0.6729605048894882, 0.3592226654291153 l0.35275794565677643, 0.45750994235277176 0.428633950650692, 0.22105198353528976 l0.5527523532509804, 0.32346636056900024 0.5114690214395523, 0.15322660095989704 l0.3237152099609375, 0.15332961454987526 0.24658171460032463, 0.004427445528563112 l0.35376694053411484, -0.05385786760598421 0.3580179065465927, -0.12849221006035805 l0.4711071774363518, 0.10000311769545078 0.40823183953762054, -0.07741739973425865 l0.3936127945780754, -0.0840978417545557 0.6719840317964554, -0.6616054475307465 l0.29067758470773697, -0.5362498387694359 0.32996028661727905, -0.4773939773440361 l0.47953784465789795, -0.6098884716629982 0.5860845744609833, -0.5689645186066628 l0.42713604867458344, -0.6198069825768471 0.5601739510893822, -0.5856741219758987 l0.709947794675827, -0.7230516523122787 0.6951241195201874, -0.5603329464793205 l0.5235601961612701, -0.7513301819562912 0.7163317501544952, -0.6150468066334724 l0.6232936680316925, -0.5682444199919701 0.7057347148656845, -0.5234638229012489 l0.6966543942689896, -0.6264962255954742 0.62843918800354, -0.7898369431495667 l0.660640150308609, -0.7945874333381653 0.647069662809372, -0.594697892665863 l0.49588151276111603, -0.757070854306221 0.7881450653076172, -0.5469537153840065 l0.6627723574638367, -0.6342940032482147 0.5940748751163483, -0.8631032705307007 l0.5761569738388062, -0.7910085469484329 0.7844902575016022, -0.6486932933330536 l0.6855433434247971, -0.39728794246912 0.7747973501682281, -0.39394620805978775 l0.7873415946960449, -0.5049548298120499 0.6427621841430664, -0.6204643100500107 l0.770510733127594, -0.2951870486140251 0.7229079306125641, -0.6153009086847305 l0.8861206471920013, -0.6175949051976204 0.7169695198535919, -0.4414254054427147 l0.7716929167509079, -0.3552200272679329 1.0021928697824478, -0.5534001067280769 l0.9192883968353271, -0.41064031422138214 0.8525990694761276, -0.3381965309381485 l0.8935807645320892, -0.433475598692894 0.8309809118509293, -0.2542511746287346 l0.9116331487894058, -0.3232331946492195 0.9210754930973053, -0.28084341436624527 l0.9373032301664352, -0.3250660374760628 0.8907899260520935, -0.2837635576725006 l0.8462493121623993, -0.28426872566342354 0.8207911252975464, -0.35974249243736267 l0.8986063301563263, -0.32032299786806107 0.8831056952476501, -0.23290064185857773 m-42.28228527121246, 104.90209432551637 l-2.2002260386943817, -0.3990526869893074 -2.084209769964218, 0.5429250746965408 l-0.9211154282093048, 1.4267052710056305 -0.16103792935609818, 1.4880391955375671 l0.7203724980354309, 1.937747448682785 0.7988924533128738, 1.7586533725261688 l1.1923907697200775, 1.9814379513263702 0.9091144800186157, 1.5898650884628296 l1.1640941351652145, 1.3172151148319244 1.0060063004493713, 1.2172981351613998 l0.9324203431606293, 1.005023866891861 0.752493143081665, 0.8288818597793579 l0.877947136759758, 0.6567994505167007 0.8207599818706512, 0.3495205193758011 l0.7778724282979965, 0.5524850264191628 0.4451952502131462, 0.49039486795663834 l0.6701541692018509, 0.45639917254447937 0.6241611391305923, 0.06770380772650242 l0.5070628598332405, 0.11980091221630573 0.5099698901176453, 0.304983165115118 l0.13547418639063835, 0.4794695973396301 0.3640764206647873, -0.39603907614946365 l0.5056878924369812, -0.17999399453401566 0.32646119594573975, 0.05354497581720352 l0.3045037016272545, -0.20134206861257553 0.25386426597833633, -0.27640555053949356 l0.41907187551259995, -0.18446745350956917 0.3372357040643692, 0.1832200214266777 l0.48564545810222626, -0.5223321542143822 0.3918300196528435, -0.3266582638025284 l0.4836159199476242, -0.6530238687992096 0.6383902579545975, -0.6035619601607323 l0.41854970157146454, -0.3511885926127434 0.6030899286270142, -0.48647094517946243 l0.5190867185592651, -0.7194674015045166 0.17294282093644142, -0.40493663400411606 l0.8701323717832565, -1.1083140224218369 0.4589493200182915, -0.698925107717514 l0.7005293667316437, -0.42087268084287643 0.5759363994002342, -0.6470754742622375 l0.7163262367248535, -0.8216428756713867 0.6791672855615616, -0.535980723798275 l0.6792903691530228, -0.6540648639202118 0.8129636198282242, -0.4834701120853424 l0.6598979234695435, -0.37605803459882736 0.5871563032269478, -0.6648779660463333 l0.6159507855772972, -0.37810396403074265 0.6924037635326385, -0.4609033837914467 l0.7506488263607025, -0.6176572665572166 0.6948402523994446, -0.5519814789295197 l0.9173894673585892, -0.6213225051760674 0.6588902324438095, -0.4783530533313751 l0.5159128084778786, -0.532783530652523 0.7427415996789932, -0.7501687109470367 l0.7202038913965225, -0.5159667506814003 0.9080564230680466, -0.5131649971008301 l0.8054801821708679, -0.4139433056116104 0.6826240569353104, -0.5805692076683044 l0.8624362200498581, -0.3307253494858742 0.7508412003517151, -0.4095359146595001 l0.6672757863998413, -0.1594933308660984 0.8928491920232773, -0.2638528123497963 l0.8695038408041, -0.44700682163238525 0.7151954621076584, -0.3387973830103874 l0.9180261939764023, -0.43065350502729416 0.8574783056974411, -0.3162849694490433 l0.7409770786762238, -0.18282687291502953 0.8338391035795212, -0.4906023293733597 l0.8557947725057602, -0.342734195291996 0.8673913776874542, -0.3606271743774414 l0.8727047592401505, -0.24933179840445518 1.0052375495433807, -0.22431666031479836 " fill="none" stroke="black" stroke-width="1" /></svg>