<?xml version="1.0" encoding="utf-8" ?>
<svg baseProfile="full" height="94.24351325258613" version="1.1" width="95.5175418406725" xmlns="http://www.w3.org/2000/svg" xmlns:ev="http://www.w3.org/2001/xml-events" xmlns:xlink="http://www.w3.org/1999/xlink"><defs /><rect fill="white" height="94.24351325258613" width="95.5175418406725" x="0" y="0" /><path d="M45.8477290533483, 39.130127280950546 m0.0, -1.6214899718761444 l-2.895517945289612, -7.180884480476379 -3.358800709247589, -5.3277528285980225 l-1.505669355392456, 5.906856656074524 -3.8220837712287903, 9.49729859828949 l-1.1582071334123611, 0.23164143785834312 -3.242979943752289, 1.9689521193504333 l-3.70626300573349, 3.5904422402381897 -0.9265657514333725, 2.0847728848457336 l-0.23164143785834312, 5.096111297607422 1.505669355392456, 4.285366535186768 l3.5904422402381897, 5.096111297607422 1.853131502866745, 1.853131502866745 l3.70626300573349, 2.4322350323200226 3.70626300573349, 1.505669355392456 l3.70626300573349, 0.6949242949485779 14.361768960952759, -0.23164143785834312 l4.864470064640045, -0.8107449859380722 4.748649299144745, -1.853131502866745 l2.3164142668247223, -1.6214899718761444 0.8107449859380722, -1.505669355392456 l0.34746214747428894, -2.3164142668247223 -0.11582071892917156, -5.3277528285980225 l-1.853131502866745, -3.5904422402381897 -4.169545769691467, -5.096111297607422 l-2.0847728848457336, -1.1582071334123611 -2.7796971797943115, -0.23164143785834312 l0.11582071892917156, -2.6638764142990112 2.3164142668247223, -8.223270773887634 l0.34746214747428894, -3.011338710784912 -0.8107449859380722, 0.34746214747428894 l-2.3164142668247223, 3.5904422402381897 -3.4746214747428894, 7.52834677696228 l-0.6949242949485779, 0.23164143785834312 -7.065063714981079, -4.169545769691467 l-1.2740278244018555, -0.46328287571668625 -1.505669355392456, 0.11582071892917156 m-8.339091539382935, 6.949242949485779 l0.34746214747428894, 1.2740278244018555 0.0, 3.011338710784912 l0.23164143785834312, 0.5791035667061806 0.5791035667061806, 0.23164143785834312 l0.6949242949485779, -1.1582071334123611 0.11582071892917156, -1.853131502866745 l-1.505669355392456, -2.4322350323200226 m14.24594759941101, 1.9689521193504333 l-1.1582071334123611, 2.4322350323200226 0.34746214747428894, 1.2740278244018555 l0.6949242949485779, 0.0 2.6638764142990112, -1.853131502866745 l1.0423864424228668, -1.3898485898971558 -0.5791035667061806, -2.0847728848457336 l-2.7796971797943115, -0.11582071892917156 m-7.29670524597168, 6.254318952560425 l0.0, 0.0 m0.34746214747428894, 0.11582071892917156 l-0.23164143785834312, 1.3898485898971558 -0.34746214747428894, 0.5791035667061806 l0.34746214747428894, -1.3898485898971558 m1.3898485898971558, 0.9265657514333725 l1.1582071334123611, -0.6949242949485779 4.285366535186768, -0.23164143785834312 l9.26565706729889, -1.505669355392456 m-12.740278244018555, 3.70626300573349 l13.782665729522705, -0.23164143785834312 m-12.392816543579102, 3.242979943752289 l9.034016132354736, 0.6949242949485779 m-17.37310767173767, -5.443573594093323 l-10.887147188186646, 0.0 " fill="none" stroke="black" stroke-width="1" /></svg>