<?xml version="1.0" encoding="utf-8" ?>
<svg baseProfile="full" height="62.29293605312705" version="1.1" width="62.61285210493952" xmlns="http://www.w3.org/2000/svg" xmlns:ev="http://www.w3.org/2001/xml-events" xmlns:xlink="http://www.w3.org/1999/xlink"><defs /><rect fill="white" height="62.29293605312705" width="62.61285210493952" x="0" y="0" /><path d="M36.509674900444224, 25.217511020600796 m-0.8514761924743652, -0.21751102060079575 l-2.0687320828437805, 0.42336057871580124 -1.5521618723869324, 1.2176381051540375 l-0.7380109280347824, 1.9561958312988281 0.011660646414384246, 2.162763327360153 l0.4931488633155823, 1.9194616377353668 1.178152784705162, 1.5072020888328552 l1.0365687310695648, 1.0302046686410904 0.7442404329776764, 1.0565796494483948 l1.1853308975696564, 0.2812344580888748 0.8121951669454575, -0.28722016140818596 l0.4282210022211075, -0.2597382478415966 0.2697846293449402, -0.6002544984221458 l0.04149310290813446, -0.7423652708530426 0.11276202276349068, -0.6831135600805283 l-0.052019343711435795, -0.9593356400728226 -0.2231709286570549, -0.7105875760316849 l-0.5585150420665741, -0.6664567440748215 -0.389568954706192, -0.5911492556333542 l-0.6415506452322006, -0.6187348812818527 -0.6896089017391205, -0.530676394701004 l-0.7601270079612732, -0.26666533201932907 -0.7188636064529419, -0.5135367065668106 l-0.7078126072883606, -0.42341504245996475 -0.7711996138095856, -0.33252809196710587 l-0.8209352195262909, -0.36810096353292465 -0.5929297581315041, -0.2827880159020424 l-0.7340006530284882, -0.12085768394172192 -0.564579926431179, -0.4755732789635658 l-0.516028106212616, -0.25389689952135086 -0.6667471677064896, -0.06461768876761198 l-0.5499659106135368, 0.03885077778249979 -0.4989785701036453, -0.13944106176495552 l-0.42545415461063385, 0.1938355527818203 -0.3268669918179512, 0.1643749512732029 l-0.17075218260288239, -0.07821583189070225 -0.1853824220597744, -0.03628506790846586 l-0.2056308463215828, 0.09627195075154305 -0.21290093660354614, 0.16826657578349113 l-0.2468288503587246, 0.13016344048082829 -0.04405220039188862, 0.1506419386714697 l-0.20467771217226982, 0.1790056936442852 -0.07408707868307829, 0.09447179734706879 l0.058968751691281796, 0.25369009003043175 -0.11858551762998104, 0.1524213794618845 l0.04608756396919489, 0.32060693949460983 0.05071596708148718, 0.2696032263338566 l0.07551181595772505, 0.3638117387890816 -0.06413149181753397, 0.34325946122407913 l0.04236757289618254, 0.32600037753582 0.27997154742479324, 0.16685573384165764 l0.1355493627488613, 0.1989566907286644 0.11518286541104317, 0.48824239522218704 l0.09010107256472111, 0.43650850653648376 0.24915862828493118, 0.32938331365585327 l0.07312844507396221, 0.2964962460100651 0.2000463381409645, 0.29988422989845276 l0.030302300583571196, 0.4333117604255676 0.025432927068322897, 0.3331667184829712 l0.13373609632253647, 0.29003091156482697 0.2170499972999096, 0.3717433661222458 l0.11581837199628353, 0.37723030894994736 0.09225201793015003, 0.30944453552365303 l0.15455731190741062, 0.30009277164936066 0.18132556229829788, 0.3641292080283165 l0.17417915165424347, 0.3230038285255432 0.1763686165213585, 0.2693122439086437 l0.2566349320113659, 0.16260525211691856 0.23703915998339653, 0.36235395818948746 l0.14740478247404099, 0.3089967370033264 0.20681634545326233, 0.26580652222037315 l0.07889590226113796, 0.27469318360090256 0.08089692331850529, 0.27740467339754105 l0.01607010723091662, 0.18276747316122055 0.21142708137631416, 0.07615314330905676 l0.6284312158823013, -0.9825114160776138 0.15271001495420933, -0.007304900209419429 l-0.28569623827934265, -0.8699549734592438 0.2852737344801426, -0.11901802383363247 l0.1879708468914032, -0.0068544881651178 0.2045130729675293, 0.07888803258538246 l0.23788370192050934, -0.06268980447202921 0.33029042184352875, 0.02737051108852029 l0.4010285437107086, 0.053546689450740814 -0.7668288797140121, -0.6985805928707123 l0.08044863119721413, 0.07786556612700224 0.2766880579292774, -0.024227648973464966 l0.25874756276607513, 0.035172183997929096 0.3495064377784729, 0.13005193322896957 l-0.49294061958789825, -0.6308171898126602 0.27474435046315193, -0.01498068799264729 l-0.5422572046518326, -0.7574240863323212 0.2723431773483753, -0.01545923063531518 l-0.6321603804826736, -0.5302980914711952 0.17545871436595917, -0.04093708470463753 l-0.9349469095468521, -0.5299945175647736 -1.2421949952840805, -0.6098930910229683 l0.11547506786882877, 0.07117644883692265 0.23235730826854706, -1.3060054183006287 l0.1813710667192936, 0.0057857303181663156 0.3187756985425949, 0.11301838792860508 l-0.9931585937738419, -0.6781105697154999 -0.4862524941563606, -0.6296458095312119 l0.15292879194021225, 0.05271346773952246 0.25978561490774155, -0.018040878931060433 l0.35782281309366226, -1.3476279377937317 0.38965828716754913, 0.008784785168245435 " fill="none" stroke="black" stroke-width="1" /></svg>