<?xml version="1.0" encoding="utf-8" ?>
<svg baseProfile="full" height="78.14443401992321" version="1.1" width="103.04588906466961" xmlns="http://www.w3.org/2000/svg" xmlns:ev="http://www.w3.org/2001/xml-events" xmlns:xlink="http://www.w3.org/1999/xlink"><defs /><rect fill="white" height="78.14443401992321" width="103.04588906466961" x="0" y="0" /><path d="M63.91576152294874, 36.11878908239305 m0.0, 6.485959887504578 l0.34746214747428894, 1.853131502866745 0.34746214747428894, 0.9265657514333725 l2.3164142668247223, 1.505669355392456 3.011338710784912, -0.34746214747428894 l4.053725004196167, -2.3164142668247223 1.853131502866745, -3.70626300573349 l0.34746214747428894, -4.864470064640045 -0.23164143785834312, -0.5791035667061806 l-3.8220837712287903, -1.7373107373714447 -2.4322350323200226, -0.11582071892917156 l-4.632828533649445, 3.242979943752289 m1.6214899718761444, 1.1582071334123611 l0.11582071892917156, 0.0 m4.517008066177368, 4.401187300682068 l0.0, 0.0 m0.0, -1.9689521193504333 l0.11582071892917156, 0.5791035667061806 -0.46328287571668625, 0.8107449859380722 l0.0, -0.9265657514333725 m-5.096111297607422, 0.0 l0.0, 0.5791035667061806 1.2740278244018555, 2.3164142668247223 m-2.548055648803711, -7.644167542457581 l1.9689521193504333, -4.401187300682068 1.2740278244018555, -6.370139122009277 m0.6949242949485779, 2.0847728848457336 l1.0423864424228668, 5.791035890579224 m2.548055648803711, 0.11582071892917156 l4.9802908301353455, -5.906856656074524 0.9265657514333725, 0.6949242949485779 l0.0, 4.748649299144745 -0.6949242949485779, 1.505669355392456 l-1.2740278244018555, 1.2740278244018555 m-12.856099605560303, 1.7373107373714447 l-5.906856656074524, -1.1582071334123611 -8.454912304878235, 0.0 l-3.1271594762802124, 0.9265657514333725 -4.517008066177368, 2.7796971797943115 l-2.7796971797943115, 2.6638764142990112 -0.23164143785834312, 1.0423864424228668 l0.9265657514333725, 0.46328287571668625 2.7796971797943115, 0.34746214747428894 l5.906856656074524, -0.23164143785834312 1.6214899718761444, -0.46328287571668625 l8.107450008392334, -0.5791035667061806 1.9689521193504333, -0.46328287571668625 l4.401187300682068, 0.0 -1.505669355392456, 0.23164143785834312 m-18.299673795700073, 1.2740278244018555 l-0.8107449859380722, 4.053725004196167 -0.11582071892917156, 2.895517945289612 l1.505669355392456, 1.7373107373714447 1.505669355392456, 0.11582071892917156 l1.0423864424228668, -0.46328287571668625 0.8107449859380722, -1.2740278244018555 l0.0, -0.9265657514333725 -1.2740278244018555, -0.5791035667061806 l-0.8107449859380722, -1.1582071334123611 -0.34746214747428894, -1.7373107373714447 l0.34746214747428894, -3.011338710784912 m6.601780652999878, -0.46328287571668625 l0.11582071892917156, 8.918195366859436 0.34746214747428894, 0.9265657514333725 l2.200593650341034, 0.23164143785834312 6.949242949485779, 0.0 l0.9265657514333725, -0.23164143785834312 1.3898485898971558, -1.2740278244018555 l-0.23164143785834312, -0.6949242949485779 -0.8107449859380722, -0.46328287571668625 l-3.70626300573349, 0.0 -4.9802908301353455, -3.011338710784912 l1.853131502866745, -4.285366535186768 m-16.90982460975647, -2.200593650341034 l-5.211932063102722, 0.9265657514333725 -2.4322350323200226, -0.34746214747428894 l-1.505669355392456, -1.0423864424228668 -1.9689521193504333, -2.3164142668247223 l-0.6949242949485779, -0.23164143785834312 -2.4322350323200226, 2.4322350323200226 l-0.46328287571668625, 1.3898485898971558 " fill="none" stroke="black" stroke-width="1" /></svg>