<?xml version="1.0" encoding="utf-8" ?>
<svg baseProfile="full" height="101.66807694360614" version="1.1" width="406.2082330044359" xmlns="http://www.w3.org/2000/svg" xmlns:ev="http://www.w3.org/2001/xml-events" xmlns:xlink="http://www.w3.org/1999/xlink"><defs /><rect fill="white" height="101.66807694360614" width="406.2082330044359" x="0" y="0" /><path d="M57.059827744960785, 25.504892375320196 m-1.087355986237526, -0.33593103289604187 l-2.283127009868622, -0.16896134242415428 -3.9697864651679993, 0.29526369646191597 l-5.51979660987854, 1.4590848982334137 -5.966214537620544, 2.4281688034534454 l-5.451168417930603, 3.2903167605400085 -3.9460933208465576, 3.809974193572998 l-2.698470652103424, 4.30217444896698 -1.1378147453069687, 4.883964359760284 l0.8126452565193176, 5.503348708152771 2.3908893764019012, 5.6184762716293335 l3.76595675945282, 4.775148332118988 4.891153573989868, 3.087354600429535 l6.712037920951843, 0.799776017665863 7.884124517440796, -1.4771366119384766 l7.699427604675293, -2.9015856981277466 6.779243350028992, -3.711960017681122 l5.561927556991577, -3.584076166152954 4.6482643485069275, -3.571048080921173 l3.8111448287963867, -3.4028738737106323 3.2738253474235535, -3.5501837730407715 l2.623809278011322, -3.1226813793182373 2.3306597769260406, -2.8775110840797424 l2.0717498660087585, -2.547917366027832 1.818811446428299, -2.013554275035858 l1.6495965421199799, -1.365826278924942 1.8674544990062714, -0.6351407617330551 l2.1419979631900787, 0.2533629722893238 2.4266183376312256, 1.2335068732500076 l2.6013359427452087, 2.278771251440048 2.4872703850269318, 3.2433146238327026 l2.0709875226020813, 3.9106449484825134 1.1587297171354294, 4.431963264942169 l0.11661532334983349, 5.088531970977783 -0.5163155868649483, 5.199841856956482 l-1.4346334338188171, 4.819363653659821 -1.7263288795948029, 4.390020668506622 l-1.8290665745735168, 3.7833982706069946 -2.0298929512500763, 3.303391933441162 l-2.2935213148593903, 2.4407854676246643 -2.8688427805900574, 1.6538891196250916 l-3.17760169506073, 0.14573434367775917 -4.245272278785706, -1.532442420721054 l-4.213824570178986, -3.03227037191391 -3.510250747203827, -4.4736048579216 l-1.957676112651825, -5.513452887535095 -0.2001573145389557, -6.310500502586365 l1.2989123165607452, -6.012399792671204 2.762932777404785, -5.311815142631531 l4.222978949546814, -4.32007759809494 5.1665085554122925, -2.69649475812912 l6.273797154426575, -1.0317237675189972 0.8964166045188904, 0.4024956375360489 l1.320432871580124, 1.6350629925727844 1.8165069818496704, 3.0094021558761597 l2.2331950068473816, 4.203405678272247 1.8442675471305847, 4.766854643821716 l1.7752262949943542, 4.841493666172028 1.2986695766448975, 4.7397759556770325 l1.3263420760631561, 4.571719467639923 1.5726317465305328, 3.8057830929756165 l1.744210124015808, 2.9910755157470703 2.2983328998088837, 1.9198241829872131 l3.250952363014221, 0.579153262078762 4.24534410238266, -1.1718052625656128 l5.050760507583618, -2.4234725534915924 5.032884478569031, -3.047402799129486 l4.9072182178497314, -3.0462324619293213 4.733926951885223, -3.1551000475883484 l4.331771433353424, -2.5917086005210876 4.156707227230072, -2.4366672337055206 l4.067698121070862, -2.025311142206192 3.884536325931549, -1.525178849697113 l3.6515384912490845, -0.6789412349462509 3.746253252029419, -0.6023022532463074 l3.828277885913849, -0.2800913527607918 4.022969603538513, -0.17840007320046425 l3.918249011039734, -0.03031504573300481 4.156196117401123, 0.12130672112107277 l3.938722610473633, 0.27655748650431633 4.103086888790131, 0.03668981371447444 l4.08698707818985, -0.008338869665749371 3.8411492109298706, 0.08480565622448921 l3.9606451988220215, -0.01745704561471939 4.063631892204285, -0.07128263358026743 l3.991078734397888, -0.0923080276697874 3.985844850540161, -0.12624606490135193 l3.844825029373169, -0.3280497342348099 4.07741904258728, -0.46494998037815094 l3.891737163066864, -0.5492659658193588 4.154100716114044, -0.7237045466899872 l3.9356181025505066, -0.3238479048013687 4.1343653202056885, -0.11213775724172592 l4.198566675186157, -0.19759289920330048 4.409245550632477, -0.30843697488307953 l4.040714800357819, -0.22633912041783333 3.7941154837608337, 0.0035097956424579024 l3.7750214338302612, -0.083821015432477 3.8220205903053284, -0.1014842838048935 l3.9344456791877747, -0.13532182201743126 3.810259997844696, -0.3026067279279232 l3.679458498954773, -0.5439978092908859 3.7037426233291626, -0.8424235880374908 l3.559514880180359, -1.0474950820207596 3.632102906703949, -1.0039061307907104 l3.4661242365837097, -0.6905020028352737 4.01027649641037, -0.8565003424882889 l4.210332930088043, -0.5857174471020699 3.94196093082428, -0.5809218436479568 l3.8139161467552185, -0.35155706107616425 3.6108097434043884, -0.19331494346261024 l3.5784223675727844, 0.08103323169052601 3.691737949848175, 0.2664589323103428 l4.21107143163681, 0.32428078353405 4.1597554087638855, 0.05864967592060566 l4.0699103474617, 0.11771014891564846 4.041298031806946, -0.06561921909451485 l3.974146246910095, -0.1403569057583809 3.9118579030036926, -0.1519495714455843 l4.091385900974274, -0.3412497788667679 4.26674485206604, -0.29980383813381195 l4.298258721828461, -0.3960629180073738 4.077142179012299, -0.13792066834867 l4.141722917556763, -0.3226318955421448 3.8437455892562866, -0.3795897215604782 l3.8938337564468384, -0.8692595362663269 3.9580941200256348, -1.020767092704773 l4.197740256786346, -1.060425415635109 3.9499852061271667, -0.9021812677383423 " fill="none" stroke="black" stroke-width="1" /></svg>