<?xml version="1.0" encoding="utf-8" ?>
<svg baseProfile="full" height="76.87040582299232" version="1.1" width="78.26025426387787" xmlns="http://www.w3.org/2000/svg" xmlns:ev="http://www.w3.org/2001/xml-events" xmlns:xlink="http://www.w3.org/1999/xlink"><defs /><rect fill="white" height="76.87040582299232" width="78.26025426387787" x="0" y="0" /><path d="M30.559394545853138, 34.38147836364806 m-0.11582071892917156, 5.096111297607422 l1.2740278244018555, 5.559394359588623 1.853131502866745, 3.011338710784912 l1.7373107373714447, 1.505669355392456 1.7373107373714447, 0.8107449859380722 l1.853131502866745, 0.23164143785834312 4.632828533649445, -0.23164143785834312 l2.6638764142990112, -2.548055648803711 1.505669355392456, -2.548055648803711 l1.2740278244018555, -3.70626300573349 0.46328287571668625, -5.559394359588623 l-0.6949242949485779, -3.011338710784912 -2.4322350323200226, -0.6949242949485779 l-3.358800709247589, -0.11582071892917156 -8.802374601364136, 1.6214899718761444 l-4.864470064640045, 0.34746214747428894 m1.6214899718761444, 2.200593650341034 l-0.8107449859380722, -0.8107449859380722 -0.6949242949485779, -1.6214899718761444 l-0.6949242949485779, -3.011338710784912 0.0, -3.70626300573349 l0.9265657514333725, -1.0423864424228668 1.2740278244018555, 0.46328287571668625 l4.401187300682068, 5.3277528285980225 1.9689521193504333, 1.505669355392456 m3.70626300573349, 0.23164143785834312 l6.254318952560425, -8.686553835868835 0.6949242949485779, 3.4746214747428894 l0.23164143785834312, 5.096111297607422 m-9.149836897850037, 11.6978919506073 l0.0, -2.3164142668247223 0.6949242949485779, -0.34746214747428894 l0.34746214747428894, 0.5791035667061806 0.0, 0.5791035667061806 l-0.6949242949485779, 0.34746214747428894 -0.11582071892917156, -0.8107449859380722 l1.7373107373714447, -0.6949242949485779 m-4.632828533649445, 1.853131502866745 l-9.61311936378479, 3.9379042387008667 m10.887147188186646, -2.548055648803711 l-12.624458074569702, 6.022677421569824 m18.53131413459778, -7.29670524597168 l9.72894012928009, 0.8107449859380722 m-12.392816543579102, 0.6949242949485779 l12.392816543579102, 1.1582071334123611 " fill="none" stroke="black" stroke-width="1" /></svg>