<?xml version="1.0" encoding="utf-8" ?>
<svg baseProfile="full" height="69.67551230452955" version="1.1" width="69.92409244179726" xmlns="http://www.w3.org/2000/svg" xmlns:ev="http://www.w3.org/2001/xml-events" xmlns:xlink="http://www.w3.org/1999/xlink"><defs /><rect fill="white" height="69.67551230452955" width="69.92409244179726" x="0" y="0" /><path d="M25, 31.927303969860077 m0.16139432787895203, -3.756153881549835 l1.203465461730957, -3.1711500883102417 1.9127699732780457, 3.4966182708740234 l1.487916260957718, 2.712472677230835 2.9791146516799927, -1.3992442190647125 l3.8462039828300476, -0.7267057150602341 3.084193766117096, 0.3894795849919319 l1.8566960096359253, -3.3344945311546326 1.0456183552742004, -0.5845071375370026 l1.516207605600357, 6.045479774475098 0.8305120468139648, 3.9551568031311035 l-0.538652129471302, 3.4705811738967896 -1.7264758050441742, 2.583799660205841 l-3.0574211478233337, 2.030103951692581 -2.764568328857422, 0.8908124268054962 l-4.1479721665382385, 0.14595958404242992 -2.4250823259353638, -0.5670052021741867 l-1.92792609333992, -1.3005490601062775 -1.3777932524681091, -1.9539956748485565 l-0.7148292660713196, -2.493119090795517 -0.04410100169479847, -3.226029872894287 l0.6392168253660202, -1.939118206501007 m6.596356630325317, 3.5327041149139404 l-0.24101940914988518, 0.5102966725826263 0.34766044467687607, 0.4504670575261116 l0.5581583827733994, -0.479804202914238 -0.06751099601387978, -0.6908805668354034 l-0.3957000747323036, -0.044952770695090294 -0.07502730935811996, 0.5434990301728249 l0.4003768786787987, 0.15829216688871384 0.2848200500011444, -0.6863292306661606 l-0.17992567270994186, -0.15498794615268707 -0.11295601725578308, 0.3632684424519539 l0.2506847679615021, 0.25044333189725876 0.22038204595446587, -0.3441530466079712 l-0.0805774237960577, -0.31100450083613396 -0.09316072799265385, 0.24217858910560608 l0.14614610001444817, 0.4300760105252266 0.26559753343462944, -0.14780119992792606 l0.02928879577666521, -0.511116087436676 -0.16444992274045944, 0.036971187219023705 l0.06532225292176008, 0.47067180275917053 0.31603332608938217, 0.17315374687314034 l0.187863539904356, -0.5097594857215881 -0.11024175211787224, -0.2377161756157875 l-0.04715849179774523, 0.1958070881664753 0.16505520790815353, 0.5284189432859421 l0.3126996383070946, -0.09137759916484356 0.12119839899241924, -0.6509454548358917 l-0.17091846093535423, -0.11060615070164204 -0.01766703906469047, 0.6312093138694763 l0.34791920334100723, 0.28429364785552025 0.32922152429819107, -0.6693499535322189 l-0.2042793110013008, -0.4649477079510689 -0.24327272549271584, 0.2402990125119686 l0.20535625517368317, 0.6532100588083267 0.5005569010972977, -0.2269292064011097 l0.045529804192483425, -0.7489091157913208 -0.3495095297694206, -9.41223515837919e-05 l-0.006236110930331051, 0.7416705787181854 0.4841996729373932, 0.1930667832493782 l0.28471918776631355, -0.8862429857254028 -0.3535211831331253, -0.35498492419719696 l-0.2268165536224842, 0.3053384833037853 0.3261781483888626, 0.5373101308941841 l0.4635785147547722, -0.23674346506595612 -0.04759357310831547, -0.7275394350290298 l-0.32717611640691757, -0.04603640642017126 0.01425183261744678, 0.5733180418610573 l0.44122081249952316, 0.15721524134278297 0.22448187693953514, -0.728859081864357 l-0.3062204085290432, -0.24353699758648872 -0.08185825310647488, 0.38604453206062317 l0.2923661097884178, 0.3721216693520546 0.2707189880311489, -0.35720840096473694 l-0.19955236464738846, -0.47045405954122543 -0.2267460711300373, 0.13877454213798046 l0.11517129838466644, 0.5102315172553062 0.3638637065887451, 0.0839636754244566 l0.09522286243736744, -0.689767375588417 -0.23089563474059105, -0.2684311755001545 l-0.12677657417953014, 0.3316446393728256 0.1838078536093235, 0.48662375658750534 l0.33635564148426056, -0.2254076860845089 -0.024430265184491873, -0.6682761758565903 l-0.2980520576238632, -0.07050532381981611 -0.03919753711670637, 0.5991479009389877 l0.3871119022369385, 0.21106654778122902 0.21720059216022491, -0.7358337193727493 l-0.33727996051311493, -0.3134564310312271 -0.13540079817175865, 0.39167575538158417 l0.3621823340654373, 0.36112137138843536 0.32449569553136826, -0.40917497128248215 l-0.15889685600996017, -0.44393159449100494 -0.24185273796319962, 0.11069140397012234 l0.1109148096293211, 0.48103034496307373 0.35497620701789856, 0.08696163073182106 l0.1135042030364275, -0.6748829036951065 -0.2904042787849903, -0.2514132112264633 l-0.14143399894237518, 0.3770279139280319 0.24521373212337494, 0.4577406495809555 l0.30790792778134346, -0.3790058195590973 -0.16789738088846207, -0.6161943823099136 l-0.2907145209610462, 0.09597687050700188 0.11303446255624294, 0.5309683829545975 l0.34580048173666, 0.04469613078981638 0.07162364199757576, -0.7088127732276917 l-0.36210764199495316, -0.2746901661157608 -0.1136572752147913, 0.4512862116098404 l0.32981131225824356, 0.39977528154850006 0.311917457729578, -0.4281362146139145 l-0.21465683355927467, -0.5977234989404678 -0.28972188010811806, 0.11379573494195938 l0.10008404031395912, 0.5696221813559532 0.3869025781750679, -0.0834843423217535 l0.06874761544167995, -0.7271003723144531 -0.3769068792462349, -0.036078288685530424 l-0.012134488206356764, 0.6273487210273743 0.4328453540802002, 0.0010596441279631108 l0.13332663103938103, -0.6713788956403732 -0.3097369894385338, -0.15611052513122559 l-0.11026984080672264, 0.5955441296100616 0.38177624344825745, 0.22094344720244408 l0.2690860815346241, -0.6348971277475357 -0.2821491099894047, -0.3604581207036972 l-0.1823650673031807, 0.3642183542251587 0.21571123972535133, 0.5293387919664383 l0.36048799753189087, -0.2209245041012764 -0.023442492820322514, -0.7488228380680084 " fill="none" stroke="black" stroke-width="1" /></svg>