<?xml version="1.0" encoding="utf-8" ?>
<svg baseProfile="full" height="43.15255323424935" version="1.1" width="38.281156700104475" xmlns="http://www.w3.org/2000/svg" xmlns:ev="http://www.w3.org/2001/xml-events" xmlns:xlink="http://www.w3.org/1999/xlink"><defs /><rect fill="white" height="43.15255323424935" width="38.281156700104475" x="0" y="0" /><path d="M6.08253232203424, 13.795574866235256 m-0.9472157806158066, -2.571014165878296 l-0.1353165414184332, -1.6237984597682953 1.6237984597682953, -0.6765826791524887 l1.7591150104999542, 0.0 0.6765826791524887, 0.5412661656737328 l0.9472157806158066, 0.0 3.6535465717315674, -1.4884819090366364 l0.4059496149420738, -1.6237984597682953 1.3531653583049774, -1.3531653583049774 l2.9769638180732727, 0.0 0.6765826791524887, 0.9472157806158066 l0.2706330828368664, 2.571014165878296 6.089244484901428, 2.30038121342659 l1.3531653583049774, 0.9472157806158066 2.571014165878296, 3.2475969195365906 l2.165064662694931, 4.194812774658203 1.3531653583049774, 4.194812774658203 l0.4059496149420738, 8.795575499534607 -0.5412661656737328, 1.4884819090366364 l-0.6765826791524887, 0.5412661656737328 -0.9472157806158066, -0.2706330828368664 m-25.574827194213867, -20.568113327026367 l1.8944315612316132, 5.142028331756592 0.2706330828368664, 2.165064662694931 l0.0, 2.30038121342659 -1.7591150104999542, 5.6832945346832275 l0.0, 4.465445876121521 0.8118992298841476, 4.60076242685318 l0.5412661656737328, 0.4059496149420738 m13.396337032318115, -19.07963275909424 l-4.059496223926544, 2.9769638180732727 -0.2706330828368664, 0.9472157806158066 l0.5412661656737328, 0.6765826791524887 4.736078977584839, 0.0 l1.6237984597682953, -0.8118992298841476 0.6765826791524887, -0.9472157806158066 m-15.020135641098022, -1.0825323313474655 l1.8944315612316132, 1.6237984597682953 0.9472157806158066, 1.7591150104999542 l-0.8118992298841476, 0.4059496149420738 -0.9472157806158066, -0.1353165414184332 m-1.7591150104999542, -11.772539615631104 l0.2706330828368664, 0.6765826791524887 0.8118992298841476, 0.4059496149420738 m7.983676195144653, -4.465445876121521 l-1.8944315612316132, 1.8944315612316132 -0.1353165414184332, 0.6765826791524887 " fill="none" stroke="black" stroke-width="1" /></svg>