<?xml version="1.0" encoding="utf-8" ?>
<svg baseProfile="full" height="41.39343726448715" version="1.1" width="38.281157817691565" xmlns="http://www.w3.org/2000/svg" xmlns:ev="http://www.w3.org/2001/xml-events" xmlns:xlink="http://www.w3.org/1999/xlink"><defs /><rect fill="white" height="41.39343726448715" width="38.281157817691565" x="0" y="0" /><path d="M12.577727232128382, 11.765827238559723 m4.059496223926544, -0.9472157806158066 l2.706330716609955, 0.0 2.435697764158249, 0.8118992298841476 l4.60076242685318, 2.706330716609955 1.6237984597682953, -4.736078977584839 l2.571014165878296, -4.60076242685318 1.2178488820791245, 0.9472157806158066 l1.0825323313474655, 3.1122803688049316 0.4059496149420738, 2.9769638180732727 l-0.2706330828368664, 4.465445876121521 m-20.297482013702393, -4.736078977584839 l-2.165064662694931, -0.8118992298841476 -1.4884819090366364, -1.7591150104999542 l-2.029748111963272, -3.6535465717315674 -0.6765826791524887, -0.4059496149420738 l-1.3531653583049774, 3.6535465717315674 0.0, 1.3531653583049774 l2.706330716609955, 5.41266143321991 0.4059496149420738, 6.901143789291382 l0.4059496149420738, 2.029748111963272 1.2178488820791245, 2.706330716609955 l3.3829134702682495, 5.006712079048157 4.059496223926544, 4.059496223926544 l0.5412661656737328, 0.1353165414184332 2.435697764158249, 0.0 l1.4884819090366364, -0.5412661656737328 1.4884819090366364, -0.8118992298841476 l2.9769638180732727, -3.2475969195365906 6.089244484901428, -10.55469036102295 l0.8118992298841476, -4.194812774658203 0.0, -1.8944315612316132 l-0.4059496149420738, -1.2178488820791245 m-14.61418628692627, 5.953927636146545 l0.2706330828368664, 3.7888631224632263 -0.1353165414184332, 2.706330716609955 l-0.6765826791524887, 1.4884819090366364 -1.2178488820791245, 0.5412661656737328 " fill="none" stroke="black" stroke-width="1" /></svg>