<?xml version="1.0" encoding="utf-8" ?>
<svg baseProfile="full" height="35.03355965949595" version="1.1" width="38.687106333673" xmlns="http://www.w3.org/2000/svg" xmlns:ev="http://www.w3.org/2001/xml-events" xmlns:xlink="http://www.w3.org/1999/xlink"><defs /><rect fill="white" height="35.03355965949595" width="38.687106333673" x="0" y="0" /><path d="M28.139129104092717, 11.359877306967974 m-8.660258650779724, -3.1122803688049316 l-3.1122803688049316, 0.1353165414184332 -3.1122803688049316, 1.0825323313474655 l-1.7591150104999542, 1.0825323313474655 -2.571014165878296, 2.029748111963272 l-2.435697764158249, 2.8416472673416138 -1.0825323313474655, 2.571014165878296 l0.0, 2.165064662694931 1.7591150104999542, 3.5182300209999084 l3.6535465717315674, 3.7888631224632263 5.41266143321991, 2.571014165878296 l1.3531653583049774, 0.0 3.7888631224632263, -1.8944315612316132 l2.706330716609955, -1.8944315612316132 3.5182300209999084, -2.8416472673416138 l2.571014165878296, -3.3829134702682495 0.8118992298841476, -2.30038121342659 l-0.5412661656737328, -4.330129325389862 -4.330129325389862, -2.706330716609955 m-13.802287578582764, 4.194812774658203 l1.0825323313474655, 0.4059496149420738 m10.148741006851196, -1.4884819090366364 l-1.2178488820791245, 3.3829134702682495 0.1353165414184332, -1.4884819090366364 l-0.6765826791524887, -0.4059496149420738 0.0, 0.6765826791524887 l0.6765826791524887, 0.0 0.6765826791524887, -0.4059496149420738 l-0.1353165414184332, -0.6765826791524887 -1.4884819090366364, 0.0 m-5.953927636146545, 5.142028331756592 l0.6765826791524887, -0.1353165414184332 -0.2706330828368664, 0.6765826791524887 l0.6765826791524887, 0.0 0.2706330828368664, -0.6765826791524887 l-0.6765826791524887, -0.4059496149420738 -0.1353165414184332, 0.5412661656737328 m-1.2178488820791245, 0.9472157806158066 l0.8118992298841476, 2.9769638180732727 -1.3531653583049774, 1.6237984597682953 l-2.571014165878296, 0.0 -0.9472157806158066, -1.2178488820791245 m4.465445876121521, -3.7888631224632263 l0.6765826791524887, 3.3829134702682495 1.8944315612316132, 1.0825323313474655 l3.2475969195365906, -1.3531653583049774 0.2706330828368664, -0.6765826791524887 m-14.3435537815094, -9.066208004951477 l-1.2178488820791245, -1.4884819090366364 -0.8118992298841476, -2.8416472673416138 l0.5412661656737328, -1.7591150104999542 0.9472157806158066, -1.0825323313474655 l2.029748111963272, -1.4884819090366364 1.7591150104999542, -0.2706330828368664 l1.7591150104999542, 1.6237984597682953 1.0825323313474655, 2.571014165878296 m12.449121475219727, 1.6237984597682953 l8.118992447853088, -3.7888631224632263 -0.6765826791524887, 2.571014165878296 l-1.4884819090366364, 2.571014165878296 " fill="none" stroke="black" stroke-width="1" /></svg>