<?xml version="1.0" encoding="utf-8" ?>
<svg baseProfile="full" height="36.79267487488687" version="1.1" width="50.32432824373245" xmlns="http://www.w3.org/2000/svg" xmlns:ev="http://www.w3.org/2001/xml-events" xmlns:xlink="http://www.w3.org/1999/xlink"><defs /><rect fill="white" height="36.79267487488687" width="50.32432824373245" x="0" y="0" /><path d="M41.4001486916095, 10.412661889567971 m-3.5182300209999084, 0.1353165414184332 l-2.165064662694931, 0.9472157806158066 -0.1353165414184332, 5.142028331756592 l1.6237984597682953, 3.5182300209999084 1.2178488820791245, 1.3531653583049774 l2.706330716609955, -1.0825323313474655 1.3531653583049774, -2.029748111963272 l1.2178488820791245, -4.60076242685318 -1.6237984597682953, -3.5182300209999084 l-0.6765826791524887, -0.5412661656737328 -0.6765826791524887, 0.4059496149420738 l-0.8118992298841476, -2.165064662694931 0.0, -1.3531653583049774 l0.2706330828368664, -0.6765826791524887 1.4884819090366364, -0.5412661656737328 l1.8944315612316132, -0.4059496149420738 1.3531653583049774, 0.4059496149420738 l0.4059496149420738, 3.5182300209999084 -2.8416472673416138, 1.4884819090366364 m-6.901143789291382, 0.6765826791524887 l-2.029748111963272, -0.6765826791524887 -0.6765826791524887, 0.2706330828368664 l-0.4059496149420738, 1.3531653583049774 0.2706330828368664, 2.30038121342659 l1.3531653583049774, 0.4059496149420738 1.7591150104999542, -0.1353165414184332 m-0.4059496149420738, 1.4884819090366364 l-20.568113327026367, -3.6535465717315674 -3.2475969195365906, 0.1353165414184332 l-2.9769638180732727, 0.9472157806158066 -2.029748111963272, 2.30038121342659 l-1.3531653583049774, 2.706330716609955 -0.2706330828368664, 1.4884819090366364 l0.4059496149420738, 1.3531653583049774 1.0825323313474655, 1.3531653583049774 l4.194812774658203, 1.2178488820791245 9.87810730934143, 1.8944315612316132 l8.930891752243042, 0.8118992298841476 4.60076242685318, -0.1353165414184332 l4.059496223926544, -1.0825323313474655 1.0825323313474655, -0.5412661656737328 l0.8118992298841476, -1.3531653583049774 -0.1353165414184332, -0.6765826791524887 l-0.9472157806158066, -0.4059496149420738 m-9.336841106414795, 3.7888631224632263 l1.3531653583049774, 5.5479782819747925 -0.8118992298841476, -0.1353165414184332 l-0.8118992298841476, -0.8118992298841476 " fill="none" stroke="black" stroke-width="1" /></svg>