<?xml version="1.0" encoding="utf-8" ?>
<svg baseProfile="full" height="90.37802527658641" version="1.1" width="60.202435702085495" xmlns="http://www.w3.org/2000/svg" xmlns:ev="http://www.w3.org/2001/xml-events" xmlns:xlink="http://www.w3.org/1999/xlink"><defs /><rect fill="white" height="90.37802527658641" width="60.202435702085495" x="0" y="0" /><path d="M12.171776229515672, 22.04988431185484 m-2.571014165878296, -8.524942398071289 l0.1353165414184332, -2.571014165878296 2.9769638180732727, -4.059496223926544 l1.8944315612316132, -1.3531653583049774 2.165064662694931, -0.5412661656737328 l1.4884819090366364, 1.7591150104999542 2.571014165878296, 4.871395528316498 l0.8118992298841476, 0.6765826791524887 0.2706330828368664, 1.6237984597682953 l3.1122803688049316, 6.765826940536499 1.4884819090366364, 0.2706330828368664 l2.571014165878296, 0.0 2.30038121342659, -2.435697764158249 l1.0825323313474655, -3.7888631224632263 1.7591150104999542, -3.3829134702682495 l2.571014165878296, -2.8416472673416138 2.9769638180732727, -1.8944315612316132 l1.4884819090366364, 0.2706330828368664 6.359877586364746, 4.194812774658203 l1.0825323313474655, 1.3531653583049774 0.4059496149420738, 4.465445876121521 l-1.2178488820791245, 4.736078977584839 7.036460041999817, 3.2475969195365906 l0.2706330828368664, 11.63722276687622 -3.1122803688049316, 4.059496223926544 l-4.330129325389862, 3.1122803688049316 -5.41266143321991, 2.9769638180732727 l-2.706330716609955, 0.4059496149420738 -12.449121475219727, -0.1353165414184332 l-8.118992447853088, -2.165064662694931 -6.765826940536499, -2.706330716609955 l-2.9769638180732727, -1.6237984597682953 -2.571014165878296, -2.029748111963272 l-0.9472157806158066, -2.029748111963272 -0.8118992298841476, -2.9769638180732727 l0.0, -5.41266143321991 3.3829134702682495, -4.871395528316498 l4.194812774658203, -2.029748111963272 m4.330129325389862, 4.871395528316498 l-0.8118992298841476, 3.6535465717315674 0.0, 0.6765826791524887 l0.8118992298841476, 0.5412661656737328 1.6237984597682953, -0.5412661656737328 l0.1353165414184332, -0.6765826791524887 -0.4059496149420738, -2.165064662694931 l-0.8118992298841476, -1.2178488820791245 m21.921279430389404, 1.0825323313474655 l0.5412661656737328, 1.2178488820791245 0.9472157806158066, 0.5412661656737328 l2.571014165878296, -0.4059496149420738 -0.6765826791524887, -0.5412661656737328 l-5.41266143321991, -1.0825323313474655 m-3.7888631224632263, 3.1122803688049316 l-0.6765826791524887, 2.9769638180732727 -0.4059496149420738, 5.142028331756592 l-0.6765826791524887, 0.4059496149420738 -4.736078977584839, 0.0 l0.8118992298841476, 0.2706330828368664 m3.5182300209999084, -0.4059496149420738 l1.0825323313474655, 1.4884819090366364 m-18.40304970741272, 4.736078977584839 l-0.8118992298841476, 4.60076242685318 0.0, 3.7888631224632263 l1.6237984597682953, 9.336841106414795 3.9241796731948853, 8.254309296607971 l3.7888631224632263, 4.736078977584839 5.277345180511475, 3.7888631224632263 l12.990387678146362, 5.142028331756592 6.224560737609863, 0.9472157806158066 l6.224560737609863, 0.0 " fill="none" stroke="black" stroke-width="1" /></svg>