<?xml version="1.0" encoding="utf-8" ?>
<svg baseProfile="full" height="31.24469667673111" version="1.1" width="40.987486839294434" xmlns="http://www.w3.org/2000/svg" xmlns:ev="http://www.w3.org/2001/xml-events" xmlns:xlink="http://www.w3.org/1999/xlink"><defs /><rect fill="white" height="31.24469667673111" width="40.987486839294434" x="0" y="0" /><path d="M31.116091664880514, 8.92417966388166 m1.3531653583049774, 5.006712079048157 l-0.1353165414184332, 0.6765826791524887 -0.8118992298841476, 0.2706330828368664 l-1.4884819090366364, 0.0 -3.6535465717315674, -1.0825323313474655 l-1.8944315612316132, -1.6237984597682953 -0.1353165414184332, -0.9472157806158066 l0.9472157806158066, -4.60076242685318 -2.029748111963272, -0.8118992298841476 l-2.9769638180732727, 0.0 -1.3531653583049774, 1.4884819090366364 l-0.1353165414184332, 0.8118992298841476 m4.736078977584839, 5.142028331756592 l-5.953927636146545, 0.2706330828368664 -1.3531653583049774, 0.6765826791524887 l-0.8118992298841476, 1.8944315612316132 0.1353165414184332, 2.435697764158249 l0.5412661656737328, 1.3531653583049774 0.6765826791524887, 0.5412661656737328 l1.6237984597682953, -0.1353165414184332 0.0, -1.0825323313474655 l-2.165064662694931, -1.4884819090366364 -5.142028331756592, -1.7591150104999542 l-1.7591150104999542, -1.6237984597682953 -1.0825323313474655, -3.3829134702682495 l-0.9472157806158066, -5.953927636146545 -0.1353165414184332, 1.8944315612316132 l0.6765826791524887, 3.9241796731948853 2.30038121342659, 5.142028331756592 l0.1353165414184332, 2.165064662694931 -1.2178488820791245, 3.9241796731948853 l-2.8416472673416138, 4.194812774658203 -0.6765826791524887, -0.8118992298841476 l-0.2706330828368664, -1.6237984597682953 -0.2706330828368664, -5.5479782819747925 m30.987486839294434, -12.178488969802856 l-3.5182300209999084, -0.5412661656737328 -2.435697764158249, 0.2706330828368664 l-5.6832945346832275, 1.7591150104999542 " fill="none" stroke="black" stroke-width="1" /></svg>