<?xml version="1.0" encoding="utf-8" ?>
<svg baseProfile="full" height="58.849271051585674" version="1.1" width="76.03447177447379" xmlns="http://www.w3.org/2000/svg" xmlns:ev="http://www.w3.org/2001/xml-events" xmlns:xlink="http://www.w3.org/1999/xlink"><defs /><rect fill="white" height="58.849271051585674" width="76.03447177447379" x="0" y="0" /><path d="M47.08344420418143, 15.013423850759864 m0.6765826791524887, -0.1353165414184332 l1.8944315612316132, 3.1122803688049316 0.4059496149420738, 1.8944315612316132 l0.0, 6.495193839073181 -1.2178488820791245, 3.7888631224632263 l-2.435697764158249, 2.165064662694931 -2.706330716609955, 1.3531653583049774 l-1.6237984597682953, 0.4059496149420738 -10.284056663513184, 0.0 l-1.7591150104999542, -0.4059496149420738 -2.8416472673416138, -1.8944315612316132 l-1.6237984597682953, -1.7591150104999542 -1.3531653583049774, -3.6535465717315674 l-0.2706330828368664, -3.6535465717315674 0.0, -3.1122803688049316 l0.5412661656737328, -1.6237984597682953 6.224560737609863, -12.990387678146362 l0.6765826791524887, 0.2706330828368664 0.8118992298841476, 1.7591150104999542 l1.4884819090366364, 5.006712079048157 9.066208004951477, 0.1353165414184332 l7.307093143463135, -3.9241796731948853 0.4059496149420738, 1.4884819090366364 l-0.1353165414184332, 1.7591150104999542 -0.9472157806158066, 1.3531653583049774 l-1.4884819090366364, 0.8118992298841476 -0.8118992298841476, 1.0825323313474655 m-8.660258650779724, 7.7130430936813354 l-4.465445876121521, 0.1353165414184332 -0.2706330828368664, 0.6765826791524887 l0.6765826791524887, 0.4059496149420738 3.5182300209999084, -0.4059496149420738 l-2.029748111963272, 0.5412661656737328 -0.8118992298841476, -0.2706330828368664 l-0.2706330828368664, -0.6765826791524887 0.6765826791524887, -0.1353165414184332 l2.30038121342659, 0.4059496149420738 m7.577726244926453, 9.066208004951477 l7.8483593463897705, -0.8118992298841476 4.465445876121521, -2.029748111963272 l5.6832945346832275, -1.8944315612316132 2.30038121342659, -0.1353165414184332 l2.029748111963272, 1.0825323313474655 1.7591150104999542, 3.3829134702682495 l1.6237984597682953, 5.006712079048157 0.0, 2.435697764158249 l-1.4884819090366364, 1.2178488820791245 -2.571014165878296, 1.0825323313474655 l-2.029748111963272, 0.5412661656737328 -10.419373512268066, 0.0 l-2.029748111963272, 1.6237984597682953 -2.165064662694931, 0.9472157806158066 l-1.0825323313474655, 1.3531653583049774 0.0, 2.9769638180732727 l0.6765826791524887, 2.30038121342659 0.1353165414184332, 2.571014165878296 m-23.13912868499756, -22.19191312789917 l-14.61418628692627, -0.2706330828368664 -4.194812774658203, 5.142028331756592 l-2.165064662694931, 4.736078977584839 -0.9472157806158066, 4.60076242685318 " fill="none" stroke="black" stroke-width="1" /></svg>