<?xml version="1.0" encoding="utf-8" ?>
<svg baseProfile="full" height="40.446221474558115" version="1.1" width="39.63432263582945" xmlns="http://www.w3.org/2000/svg" xmlns:ev="http://www.w3.org/2001/xml-events" xmlns:xlink="http://www.w3.org/1999/xlink"><defs /><rect fill="white" height="40.446221474558115" width="39.63432263582945" x="0" y="0" /><path d="M25.162164270877838, 10.818610908463597 m-2.9769638180732727, -1.3531653583049774 l-2.30038121342659, -0.2706330828368664 -2.165064662694931, 0.4059496149420738 l-5.953927636146545, 2.435697764158249 -2.9769638180732727, 2.029748111963272 l-1.0825323313474655, 1.2178488820791245 -1.8944315612316132, 4.194812774658203 l-0.8118992298841476, 4.194812774658203 0.4059496149420738, 4.465445876121521 l1.8944315612316132, 3.9241796731948853 2.8416472673416138, 2.435697764158249 l2.029748111963272, 0.8118992298841476 5.81861138343811, 0.1353165414184332 l6.901143789291382, -2.8416472673416138 4.736078977584839, -3.1122803688049316 l2.30038121342659, -2.706330716609955 2.706330716609955, -4.60076242685318 l0.0, -4.330129325389862 -1.0825323313474655, -2.029748111963272 l-5.6832945346832275, -5.81861138343811 -2.571014165878296, -1.6237984597682953 m2.706330716609955, 0.2706330828368664 l1.2178488820791245, -2.9769638180732727 1.0825323313474655, -0.6765826791524887 l2.30038121342659, 0.4059496149420738 1.0825323313474655, 1.7591150104999542 l0.5412661656737328, 7.036460041999817 m-23.409762382507324, -3.2475969195365906 l-2.9769638180732727, -2.029748111963272 -1.4884819090366364, 0.8118992298841476 l-0.5412661656737328, 2.165064662694931 0.1353165414184332, 2.30038121342659 l0.4059496149420738, 1.3531653583049774 0.8118992298841476, 0.5412661656737328 m9.336841106414795, 9.066208004951477 l1.8944315612316132, -1.6237984597682953 2.30038121342659, -0.4059496149420738 l0.6765826791524887, 0.1353165414184332 0.1353165414184332, 2.165064662694931 l-1.2178488820791245, 1.4884819090366364 -1.8944315612316132, 0.1353165414184332 l-1.7591150104999542, -0.6765826791524887 -0.5412661656737328, -0.8118992298841476 l0.6765826791524887, -1.2178488820791245 " fill="none" stroke="black" stroke-width="1" /></svg>