<?xml version="1.0" encoding="utf-8" ?>
<svg baseProfile="full" height="85.77726401388645" version="1.1" width="100.93271453864872" xmlns="http://www.w3.org/2000/svg" xmlns:ev="http://www.w3.org/2001/xml-events" xmlns:xlink="http://www.w3.org/1999/xlink"><defs /><rect fill="white" height="85.77726401388645" width="100.93271453864872" x="0" y="0" /><path d="M79.55941335298121, 33.68710753507912 m-0.9472157806158066, -2.706330716609955 l0.0, -2.029748111963272 -2.029748111963272, -2.9769638180732727 l-3.3829134702682495, -0.2706330828368664 -1.0825323313474655, 0.4059496149420738 l-1.4884819090366364, 1.0825323313474655 -0.9472157806158066, 1.4884819090366364 m9.336841106414795, 5.41266143321991 l1.4884819090366364, -0.4059496149420738 2.8416472673416138, 1.0825323313474655 l8.660258650779724, 5.5479782819747925 3.3829134702682495, 3.3829134702682495 l0.5412661656737328, 1.3531653583049774 -0.2706330828368664, 1.3531653583049774 l-4.60076242685318, 6.765826940536499 -3.5182300209999084, 2.30038121342659 l-3.6535465717315674, 1.6237984597682953 -6.359877586364746, -0.5412661656737328 l-8.660258650779724, -4.059496223926544 -5.953927636146545, -5.41266143321991 l-3.2475969195365906, -4.194812774658203 -1.4884819090366364, -2.706330716609955 l-4.194812774658203, -1.3531653583049774 -2.30038121342659, -1.7591150104999542 l-1.4884819090366364, -2.165064662694931 -0.1353165414184332, -1.7591150104999542 l2.9769638180732727, -1.7591150104999542 10.284056663513184, -0.5412661656737328 l4.059496223926544, -1.3531653583049774 3.3829134702682495, -0.5412661656737328 m-6.901143789291382, 20.026848316192627 l1.0825323313474655, 1.2178488820791245 -3.5182300209999084, 4.465445876121521 l-1.6237984597682953, 1.3531653583049774 -5.5479782819747925, 3.2475969195365906 l-6.359877586364746, 2.30038121342659 -5.5479782819747925, 2.706330716609955 l-5.41266143321991, 1.4884819090366364 -5.81861138343811, 0.4059496149420738 l-6.224560737609863, -1.0825323313474655 -5.006712079048157, -2.30038121342659 l-2.165064662694931, -2.165064662694931 0.0, -4.330129325389862 l3.5182300209999084, -9.336841106414795 1.8944315612316132, -2.9769638180732727 l3.2475969195365906, -3.3829134702682495 2.30038121342659, -4.059496223926544 l3.5182300209999084, -3.7888631224632263 6.224560737609863, -3.1122803688049316 l3.6535465717315674, -0.6765826791524887 6.495193839073181, 0.2706330828368664 l1.0825323313474655, 0.4059496149420738 1.0825323313474655, 1.4884819090366364 m10.284056663513184, 25.845458507537842 l4.194812774658203, 14.749503135681152 5.142028331756592, 0.1353165414184332 l0.2706330828368664, 1.8944315612316132 -2.435697764158249, 1.7591150104999542 l-5.41266143321991, 2.029748111963272 -2.571014165878296, 1.4884819090366364 l-2.435697764158249, 0.4059496149420738 -0.2706330828368664, -0.6765826791524887 l0.0, -5.81861138343811 -1.0825323313474655, -5.953927636146545 l-0.1353165414184332, -3.7888631224632263 -1.3531653583049774, -2.8416472673416138 l-0.8118992298841476, -0.4059496149420738 m-19.891531467437744, 6.765826940536499 l-1.6237984597682953, 1.4884819090366364 -2.435697764158249, 8.524942398071289 l7.7130430936813354, 2.9769638180732727 -8.254309296607971, 1.0825323313474655 l-4.736078977584839, -2.029748111963272 -1.8944315612316132, -1.7591150104999542 l0.0, -0.9472157806158066 2.435697764158249, -2.706330716609955 l0.4059496149420738, -1.2178488820791245 -0.1353165414184332, -7.577726244926453 m61.43371105194092, -17.049884796142578 l-1.6237984597682953, -2.029748111963272 -4.871395528316498, -2.029748111963272 m-10.690007209777832, -5.142028331756592 l-3.6535465717315674, -2.706330716609955 -6.224560737609863, -2.571014165878296 m15.426086187362671, 17.185200452804565 l-1.2178488820791245, 2.706330716609955 -0.1353165414184332, 2.029748111963272 m-18.267732858657837, -37.076733112335205 l0.4059496149420738, -4.736078977584839 -1.6237984597682953, -3.7888631224632263 l-1.4884819090366364, -1.0825323313474655 -1.8944315612316132, -0.2706330828368664 l-4.194812774658203, 2.435697764158249 -0.8118992298841476, 2.8416472673416138 l-0.4059496149420738, 9.20152485370636 -1.6237984597682953, 0.2706330828368664 l-3.3829134702682495, -3.6535465717315674 -7.8483593463897705, -10.419373512268066 l-2.571014165878296, -2.029748111963272 -5.41266143321991, -1.6237984597682953 l-6.495193839073181, 0.1353165414184332 -3.1122803688049316, 0.9472157806158066 l-2.9769638180732727, 1.8944315612316132 -5.277345180511475, 4.60076242685318 l-2.029748111963272, 2.8416472673416138 -0.1353165414184332, 3.6535465717315674 l0.9472157806158066, 2.30038121342659 1.7591150104999542, 2.165064662694931 l2.9769638180732727, 2.571014165878296 6.495193839073181, 4.330129325389862 l3.2475969195365906, 1.4884819090366364 5.6832945346832275, 1.7591150104999542 l0.8118992298841476, 0.4059496149420738 0.2706330828368664, 0.8118992298841476 l-2.029748111963272, -0.1353165414184332 -3.1122803688049316, -1.3531653583049774 l-6.495193839073181, -1.0825323313474655 -4.736078977584839, 0.9472157806158066 l-3.6535465717315674, 2.8416472673416138 -0.4059496149420738, 1.6237984597682953 " fill="none" stroke="black" stroke-width="1" /></svg>