<?xml version="1.0" encoding="utf-8" ?>
<svg baseProfile="full" height="42.61128660291433" version="1.1" width="41.66407153010368" xmlns="http://www.w3.org/2000/svg" xmlns:ev="http://www.w3.org/2001/xml-events" xmlns:xlink="http://www.w3.org/1999/xlink"><defs /><rect fill="white" height="42.61128660291433" width="41.66407153010368" x="0" y="0" /><path d="M24.62089989334345, 6.488481909036636 m-1.2178488820791245, -1.4884819090366364 l-3.6535465717315674, 0.2706330828368664 -6.359877586364746, 2.571014165878296 l-1.0825323313474655, 1.4884819090366364 1.6237984597682953, 3.1122803688049316 l3.3829134702682495, 4.059496223926544 2.9769638180732727, 2.9769638180732727 l2.30038121342659, 0.9472157806158066 1.4884819090366364, -0.4059496149420738 l1.2178488820791245, -1.0825323313474655 1.3531653583049774, -2.706330716609955 l0.6765826791524887, -2.435697764158249 -0.2706330828368664, -1.6237984597682953 l-3.6535465717315674, -2.706330716609955 m-13.531653881072998, 0.0 l1.4884819090366364, -2.30038121342659 1.4884819090366364, -1.3531653583049774 l0.5412661656737328, 0.0 0.5412661656737328, 2.165064662694931 m9.066208004951477, 2.435697764158249 l1.7591150104999542, -3.6535465717315674 0.5412661656737328, -0.2706330828368664 l1.3531653583049774, 1.0825323313474655 0.0, 0.9472157806158066 l-0.2706330828368664, 0.6765826791524887 -2.165064662694931, 1.3531653583049774 m-7.442409992218018, 5.81861138343811 l-6.089244484901428, 5.5479782819747925 -1.7591150104999542, 4.871395528316498 l0.5412661656737328, 4.871395528316498 2.706330716609955, 3.6535465717315674 l3.2475969195365906, 2.30038121342659 2.706330716609955, 0.0 l3.6535465717315674, -2.30038121342659 3.7888631224632263, -3.7888631224632263 l2.30038121342659, -3.5182300209999084 0.0, -3.2475969195365906 l-1.4884819090366364, -3.5182300209999084 -1.0825323313474655, -1.0825323313474655 l-2.165064662694931, -0.9472157806158066 m-4.60076242685318, 2.706330716609955 l-0.8118992298841476, -0.4059496149420738 -5.41266143321991, 4.736078977584839 l-0.9472157806158066, 2.435697764158249 0.2706330828368664, 1.3531653583049774 l1.4884819090366364, 2.165064662694931 2.30038121342659, 0.8118992298841476 l2.706330716609955, -0.4059496149420738 0.8118992298841476, -0.5412661656737328 l1.8944315612316132, -3.3829134702682495 0.0, -1.0825323313474655 l-0.2706330828368664, -2.30038121342659 -1.2178488820791245, -2.029748111963272 m-8.524942398071289, 0.0 l-1.8944315612316132, -0.5412661656737328 -3.9241796731948853, -0.2706330828368664 m25.574827194213867, 2.165064662694931 l2.30038121342659, 0.1353165414184332 2.029748111963272, 0.9472157806158066 l1.7591150104999542, 2.165064662694931 " fill="none" stroke="black" stroke-width="1" /></svg>