<?xml version="1.0" encoding="utf-8" ?>
<svg baseProfile="full" height="45.04698331467807" version="1.1" width="50.59496193192899" xmlns="http://www.w3.org/2000/svg" xmlns:ev="http://www.w3.org/2001/xml-events" xmlns:xlink="http://www.w3.org/1999/xlink"><defs /><rect fill="white" height="45.04698331467807" width="50.59496193192899" x="0" y="0" /><path d="M19.343553110957146, 13.795575369149446 m-2.30038121342659, -2.435697764158249 l-3.9241796731948853, -2.029748111963272 -5.41266143321991, -0.1353165414184332 l-1.8944315612316132, 2.165064662694931 -0.8118992298841476, 5.142028331756592 l0.1353165414184332, 3.7888631224632263 1.6237984597682953, 1.0825323313474655 l2.706330716609955, 0.6765826791524887 2.9769638180732727, 1.6237984597682953 l1.6237984597682953, 0.4059496149420738 m15.155452489852905, -7.8483593463897705 l0.4059496149420738, -4.60076242685318 0.6765826791524887, -1.7591150104999542 l2.30038121342659, -3.1122803688049316 1.2178488820791245, -0.9472157806158066 l2.029748111963272, -0.6765826791524887 4.871395528316498, -0.1353165414184332 l0.8118992298841476, 0.5412661656737328 3.5182300209999084, 3.7888631224632263 l0.5412661656737328, 1.6237984597682953 -0.1353165414184332, 2.706330716609955 l-1.6237984597682953, 3.2475969195365906 -2.706330716609955, 3.5182300209999084 l-3.5182300209999084, 1.3531653583049774 -1.4884819090366364, 0.0 m-7.8483593463897705, -6.765826940536499 l-0.6765826791524887, -0.5412661656737328 -2.706330716609955, -0.6765826791524887 l-6.630510687828064, -0.4059496149420738 -0.8118992298841476, 1.8944315612316132 l-0.1353165414184332, 3.5182300209999084 m-3.6535465717315674, 5.142028331756592 l-1.0825323313474655, 2.8416472673416138 0.0, 2.8416472673416138 l0.5412661656737328, 1.7591150104999542 1.3531653583049774, 1.8944315612316132 l4.330129325389862, 3.7888631224632263 2.435697764158249, 1.4884819090366364 l4.465445876121521, 1.3531653583049774 5.81861138343811, 0.1353165414184332 l4.330129325389862, -0.6765826791524887 2.8416472673416138, -1.2178488820791245 l1.0825323313474655, -0.9472157806158066 0.5412661656737328, -1.8944315612316132 l0.1353165414184332, -9.20152485370636 -0.4059496149420738, -2.435697764158249 l-0.5412661656737328, -0.9472157806158066 -0.9472157806158066, -0.2706330828368664 l-4.60076242685318, 0.0 m-13.802287578582764, 7.1717768907547 l0.4059496149420738, -2.029748111963272 " fill="none" stroke="black" stroke-width="1" /></svg>