<?xml version="1.0" encoding="utf-8" ?>
<svg baseProfile="full" height="54.24850904382765" version="1.1" width="37.063308246433735" xmlns="http://www.w3.org/2000/svg" xmlns:ev="http://www.w3.org/2001/xml-events" xmlns:xlink="http://www.w3.org/1999/xlink"><defs /><rect fill="white" height="54.24850904382765" width="37.063308246433735" x="0" y="0" /><path d="M13.660258613526821, 5.811899295076728 m-3.7888631224632263, 2.165064662694931 l-2.30038121342659, 2.029748111963272 -2.029748111963272, 2.9769638180732727 l-0.5412661656737328, 3.2475969195365906 1.2178488820791245, 3.1122803688049316 l2.029748111963272, 2.9769638180732727 2.571014165878296, 2.165064662694931 l2.9769638180732727, 0.9472157806158066 1.8944315612316132, 0.0 l5.5479782819747925, -1.7591150104999542 1.8944315612316132, -1.4884819090366364 l0.4059496149420738, -0.8118992298841476 0.0, -1.7591150104999542 l-1.6237984597682953, -6.495193839073181 -1.2178488820791245, -2.029748111963272 l-1.8944315612316132, -2.029748111963272 -5.81861138343811, -3.9241796731948853 l-0.5412661656737328, -0.1353165414184332 -0.6765826791524887, 0.6765826791524887 m-0.4059496149420738, 23.27444553375244 l2.571014165878296, -4.736078977584839 -0.5412661656737328, 0.4059496149420738 l-2.30038121342659, 4.465445876121521 -1.3531653583049774, 4.871395528316498 l-0.4059496149420738, 15.155452489852905 12.719755172729492, -6.089244484901428 l1.0825323313474655, -0.9472157806158066 -1.2178488820791245, -2.571014165878296 l-2.9769638180732727, -10.419373512268066 -0.6765826791524887, -1.3531653583049774 l-1.3531653583049774, -0.6765826791524887 -5.006712079048157, 0.9472157806158066 l-1.3531653583049774, 0.6765826791524887 0.5412661656737328, 0.1353165414184332 m4.330129325389862, 19.214948415756226 l0.1353165414184332, 0.5412661656737328 0.8118992298841476, 0.4059496149420738 l1.7591150104999542, 0.2706330828368664 3.1122803688049316, -0.6765826791524887 l0.5412661656737328, -0.9472157806158066 -0.1353165414184332, -1.6237984597682953 l-2.706330716609955, 0.0 m6.495193839073181, -2.571014165878296 l1.0825323313474655, 1.4884819090366364 1.4884819090366364, 0.8118992298841476 l1.7591150104999542, 0.5412661656737328 1.2178488820791245, -0.2706330828368664 l1.0825323313474655, -2.435697764158249 0.0, -1.7591150104999542 l-2.029748111963272, -0.1353165414184332 -3.3829134702682495, 0.9472157806158066 l0.2706330828368664, -2.435697764158249 m-16.102668046951294, -25.980775356292725 l0.0, 0.0 m7.307093143463135, -1.0825323313474655 l0.0, 0.0 m-8.118992447853088, 0.6765826791524887 l0.0, 0.0 m9.20152485370636, -0.6765826791524887 l-0.1353165414184332, 0.0 m-5.006712079048157, 7.8483593463897705 l1.7591150104999542, 0.2706330828368664 3.9241796731948853, -0.8118992298841476 l1.2178488820791245, -0.8118992298841476 -0.1353165414184332, -2.8416472673416138 l-1.4884819090366364, -1.7591150104999542 -1.8944315612316132, -0.4059496149420738 l-1.4884819090366364, 0.6765826791524887 -0.9472157806158066, 1.0825323313474655 l0.1353165414184332, 3.9241796731948853 0.2706330828368664, 0.5412661656737328 l1.3531653583049774, -1.7591150104999542 m0.2706330828368664, -3.7888631224632263 l-0.6765826791524887, 1.3531653583049774 0.5412661656737328, 2.165064662694931 l0.5412661656737328, -0.2706330828368664 0.9472157806158066, -1.8944315612316132 l0.5412661656737328, 0.0 1.4884819090366364, 2.8416472673416138 l0.5412661656737328, -0.2706330828368664 0.4059496149420738, -2.9769638180732727 l-0.5412661656737328, -2.30038121342659 0.5412661656737328, -0.2706330828368664 " fill="none" stroke="black" stroke-width="1" /></svg>