<?xml version="1.0" encoding="utf-8" ?>
<svg baseProfile="full" height="61.55560183338821" version="1.1" width="63.8559824693948" xmlns="http://www.w3.org/2000/svg" xmlns:ev="http://www.w3.org/2001/xml-events" xmlns:xlink="http://www.w3.org/1999/xlink"><defs /><rect fill="white" height="61.55560183338821" width="63.8559824693948" x="0" y="0" /><path d="M12.036459967494011, 26.38001305051148 m-2.8416472673416138, 0.4059496149420738 l-1.4884819090366364, -1.6237984597682953 -1.7591150104999542, -3.2475969195365906 l-0.9472157806158066, -3.9241796731948853 0.2706330828368664, -4.059496223926544 l1.6237984597682953, -2.30038121342659 3.1122803688049316, -2.9769638180732727 l2.9769638180732727, -0.5412661656737328 2.029748111963272, 0.0 l1.7591150104999542, 0.5412661656737328 2.9769638180732727, 2.435697764158249 l3.1122803688049316, 4.330129325389862 4.330129325389862, -1.0825323313474655 l5.81861138343811, -0.1353165414184332 1.4884819090366364, 0.4059496149420738 l2.8416472673416138, 2.165064662694931 0.9472157806158066, -2.8416472673416138 l1.6237984597682953, -2.9769638180732727 4.059496223926544, -4.059496223926544 l2.706330716609955, -1.6237984597682953 5.41266143321991, -0.2706330828368664 l2.165064662694931, 0.5412661656737328 2.8416472673416138, 2.165064662694931 l1.6237984597682953, 3.6535465717315674 0.1353165414184332, 3.1122803688049316 l-0.8118992298841476, 1.7591150104999542 -2.9769638180732727, 3.2475969195365906 l-5.6832945346832275, 3.2475969195365906 2.029748111963272, 5.277345180511475 l2.029748111963272, 8.118992447853088 0.4059496149420738, 2.8416472673416138 l-0.4059496149420738, 4.330129325389862 -2.30038121342659, 4.059496223926544 l-3.6535465717315674, 3.6535465717315674 -2.9769638180732727, 2.30038121342659 l-4.465445876121521, 2.029748111963272 -6.630510687828064, 1.0825323313474655 l-5.953927636146545, 0.1353165414184332 -7.8483593463897705, -2.435697764158249 l-3.2475969195365906, -2.165064662694931 -2.30038121342659, -2.571014165878296 l-2.30038121342659, -3.9241796731948853 -1.3531653583049774, -4.465445876121521 l-0.4059496149420738, -7.307093143463135 0.2706330828368664, -1.3531653583049774 l1.8944315612316132, -2.8416472673416138 4.059496223926544, -4.736078977584839 m-2.435697764158249, -5.006712079048157 l-0.9472157806158066, -0.2706330828368664 -0.4059496149420738, -0.6765826791524887 l-0.6765826791524887, -2.029748111963272 0.0, -2.435697764158249 l1.0825323313474655, -0.5412661656737328 1.4884819090366364, 0.0 l1.3531653583049774, 0.6765826791524887 1.3531653583049774, 2.029748111963272 l-1.6237984597682953, 2.165064662694931 m27.33394145965576, -3.2475969195365906 l4.465445876121521, -3.9241796731948853 3.2475969195365906, -0.5412661656737328 l0.8118992298841476, 1.8944315612316132 0.4059496149420738, 3.1122803688049316 l-4.871395528316498, -0.1353165414184332 -2.706330716609955, 1.0825323313474655 l-0.6765826791524887, -1.0825323313474655 " fill="none" stroke="black" stroke-width="1" /></svg>