<?xml version="1.0" encoding="utf-8" ?>
<svg baseProfile="full" height="27.72646663710475" version="1.1" width="26.237984923645854" xmlns="http://www.w3.org/2000/svg" xmlns:ev="http://www.w3.org/2001/xml-events" xmlns:xlink="http://www.w3.org/1999/xlink"><defs /><rect fill="white" height="27.72646663710475" width="26.237984923645854" x="0" y="0" /><path d="M11.901143435388803, 9.73607886582613 m-1.8944315612316132, 0.0 l-0.8118992298841476, 0.5412661656737328 -0.6765826791524887, 0.9472157806158066 l-0.5412661656737328, 2.706330716609955 0.1353165414184332, 3.6535465717315674 l0.8118992298841476, 1.6237984597682953 2.30038121342659, 2.165064662694931 l2.029748111963272, 1.0825323313474655 1.8944315612316132, 0.2706330828368664 l2.165064662694931, -2.165064662694931 1.4884819090366364, -2.30038121342659 l0.6765826791524887, -3.6535465717315674 -0.1353165414184332, -1.7591150104999542 l-3.2475969195365906, -3.9241796731948853 -2.30038121342659, -1.3531653583049774 l-2.029748111963272, -0.2706330828368664 m-3.6535465717315674, 4.059496223926544 l-2.8416472673416138, -2.165064662694931 -0.2706330828368664, -2.571014165878296 l0.4059496149420738, -0.8118992298841476 1.8944315612316132, -0.8118992298841476 l2.029748111963272, 0.1353165414184332 1.3531653583049774, 1.2178488820791245 l0.1353165414184332, 1.0825323313474655 m5.5479782819747925, 0.5412661656737328 l1.8944315612316132, -1.0825323313474655 2.165064662694931, -0.1353165414184332 l0.8118992298841476, 0.5412661656737328 0.0, 2.30038121342659 l-0.8118992298841476, 1.6237984597682953 -0.8118992298841476, 0.5412661656737328 m-8.524942398071289, 0.9472157806158066 l0.1353165414184332, 0.0 m4.60076242685318, -0.6765826791524887 l0.0, 0.6765826791524887 0.4059496149420738, -0.6765826791524887 l-0.6765826791524887, -0.1353165414184332 m-2.706330716609955, 4.194812774658203 l0.9472157806158066, 0.6765826791524887 m0.0, -0.4059496149420738 l-0.8118992298841476, -0.1353165414184332 m0.2706330828368664, 0.1353165414184332 l-0.1353165414184332, 3.2475969195365906 -2.30038121342659, 0.4059496149420738 l-0.8118992298841476, -0.2706330828368664 -0.4059496149420738, -1.2178488820791245 m3.7888631224632263, -1.4884819090366364 l0.0, 4.330129325389862 2.8416472673416138, -0.2706330828368664 " fill="none" stroke="black" stroke-width="1" /></svg>