<?xml version="1.0" encoding="utf-8" ?>
<svg baseProfile="full" height="46.80609930306673" version="1.1" width="30.02684772014618" xmlns="http://www.w3.org/2000/svg" xmlns:ev="http://www.w3.org/2001/xml-events" xmlns:xlink="http://www.w3.org/1999/xlink"><defs /><rect fill="white" height="46.80609930306673" width="30.02684772014618" x="0" y="0" /><path d="M5.676582269370556, 7.029748074710369 m0.1353165414184332, -1.6237984597682953 l0.6765826791524887, -0.4059496149420738 2.165064662694931, 0.0 l0.8118992298841476, 0.4059496149420738 3.7888631224632263, 3.6535465717315674 l0.8118992298841476, 2.30038121342659 -0.4059496149420738, 1.4884819090366364 l-4.60076242685318, 0.0 -3.1122803688049316, -1.2178488820791245 l-0.6765826791524887, -0.9472157806158066 -0.1353165414184332, -2.165064662694931 l1.4884819090366364, -2.435697764158249 m2.30038121342659, 6.359877586364746 l1.7591150104999542, 0.0 1.2178488820791245, 0.5412661656737328 l5.81861138343811, 3.3829134702682495 2.435697764158249, 2.435697764158249 l4.194812774658203, 5.81861138343811 0.6765826791524887, 1.7591150104999542 l0.0, 2.706330716609955 -1.0825323313474655, 1.6237984597682953 l-1.6237984597682953, 1.0825323313474655 -1.7591150104999542, 0.5412661656737328 l-7.307093143463135, 0.0 -2.8416472673416138, -0.5412661656737328 l-2.571014165878296, -1.2178488820791245 -1.7591150104999542, -2.30038121342659 l-1.0825323313474655, -3.2475969195365906 0.0, -5.006712079048157 l2.165064662694931, -5.81861138343811 0.5412661656737328, -0.6765826791524887 l2.706330716609955, -1.2178488820791245 0.6765826791524887, -0.8118992298841476 m0.1353165414184332, 20.16216516494751 l0.0, 5.953927636146545 2.30038121342659, 2.8416472673416138 l1.3531653583049774, 0.5412661656737328 1.0825323313474655, -5.142028331756592 l-0.1353165414184332, -2.029748111963272 -0.8118992298841476, -2.029748111963272 m7.7130430936813354, -0.9472157806158066 l0.8118992298841476, 6.224560737609863 0.0, 3.2475969195365906 l-0.5412661656737328, 1.4884819090366364 -2.165064662694931, 0.0 l-1.0825323313474655, -1.6237984597682953 -0.6765826791524887, -2.571014165878296 l0.0, -3.5182300209999084 " fill="none" stroke="black" stroke-width="1" /></svg>