<?xml version="1.0" encoding="utf-8" ?>
<svg baseProfile="full" height="59.525853684172034" version="1.1" width="63.3147169649601" xmlns="http://www.w3.org/2000/svg" xmlns:ev="http://www.w3.org/2001/xml-events" xmlns:xlink="http://www.w3.org/1999/xlink"><defs /><rect fill="white" height="59.525853684172034" width="63.3147169649601" x="0" y="0" /><path d="M18.666970767080784, 44.91837899200618 m-0.6765826791524887, 0.6765826791524887 l-1.3531653583049774, 7.1717768907547 0.8118992298841476, 0.5412661656737328 l3.6535465717315674, 0.0 m3.2475969195365906, -4.871395528316498 l0.0, -2.571014165878296 m0.0, 0.0 l-0.5412661656737328, 0.6765826791524887 -0.9472157806158066, 5.277345180511475 l-1.6237984597682953, 2.029748111963272 -1.4884819090366364, 0.6765826791524887 m4.871395528316498, -8.795575499534607 l7.577726244926453, -0.2706330828368664 1.6237984597682953, 3.6535465717315674 l1.6237984597682953, 0.9472157806158066 2.30038121342659, 0.5412661656737328 l1.2178488820791245, -5.142028331756592 -0.4059496149420738, -1.3531653583049774 l-0.6765826791524887, 0.0 m-2.30038121342659, 2.30038121342659 l0.8118992298841476, 0.1353165414184332 0.0, 2.165064662694931 m-14.749503135681152, -0.5412661656737328 l-0.9472157806158066, 0.1353165414184332 -1.2178488820791245, 1.0825323313474655 l0.1353165414184332, 1.4884819090366364 0.9472157806158066, 0.9472157806158066 m-2.706330716609955, -8.118992447853088 l-2.30038121342659, 0.0 -0.6765826791524887, -0.4059496149420738 l-0.8118992298841476, -5.5479782819747925 0.0, -6.089244484901428 l2.029748111963272, -3.3829134702682495 3.6535465717315674, -3.6535465717315674 l5.006712079048157, -2.165064662694931 2.165064662694931, -0.6765826791524887 l10.960639715194702, -0.1353165414184332 2.706330716609955, 0.9472157806158066 l1.4884819090366364, 0.9472157806158066 1.6237984597682953, 2.165064662694931 l1.0825323313474655, 2.8416472673416138 0.9472157806158066, 5.81861138343811 m0.0, 1.8944315612316132 l0.0, 2.30038121342659 -0.4059496149420738, 0.8118992298841476 l-5.41266143321991, 6.630510687828064 -1.6237984597682953, 0.9472157806158066 l-1.3531653583049774, 0.0 -0.2706330828368664, -0.9472157806158066 m8.660258650779724, -11.90785527229309 l0.1353165414184332, 4.465445876121521 m-0.6765826791524887, -10.690007209777832 l6.224560737609863, -2.435697764158249 5.41266143321991, 0.4059496149420738 m1.8944315612316132, 1.0825323313474655 l-0.8118992298841476, 2.706330716609955 -1.0825323313474655, 1.6237984597682953 l-0.8118992298841476, 0.4059496149420738 m-0.5412661656737328, 0.2706330828368664 l-8.930891752243042, 0.6765826791524887 m10.690007209777832, -5.5479782819747925 l1.3531653583049774, -0.1353165414184332 m-42.083444595336914, 1.2178488820791245 l-2.9769638180732727, 0.0 -4.736078977584839, 0.8118992298841476 l-2.8416472673416138, 1.0825323313474655 -0.5412661656737328, 0.8118992298841476 l0.0, 0.9472157806158066 1.4884819090366364, 1.4884819090366364 l4.465445876121521, 0.9472157806158066 2.029748111963272, -0.1353165414184332 m10.284056663513184, -10.960639715194702 l-0.2706330828368664, -3.6535465717315674 -1.6237984597682953, -4.60076242685318 l0.0, -4.330129325389862 2.706330716609955, -3.3829134702682495 l2.8416472673416138, -0.6765826791524887 6.359877586364746, 0.0 l2.165064662694931, 0.9472157806158066 0.2706330828368664, 2.435697764158249 l0.5412661656737328, 0.6765826791524887 1.0825323313474655, 4.059496223926544 l0.1353165414184332, 8.254309296607971 -0.4059496149420738, 2.30038121342659 l0.4059496149420738, -1.0825323313474655 m-0.4059496149420738, -10.82532286643982 l3.9241796731948853, -2.029748111963272 0.4059496149420738, -5.006712079048157 l-0.1353165414184332, -0.8118992298841476 -0.9472157806158066, -0.4059496149420738 l-2.571014165878296, 0.0 -0.6765826791524887, 0.6765826791524887 l-0.5412661656737328, 2.30038121342659 " fill="none" stroke="black" stroke-width="1" /></svg>