<?xml version="1.0" encoding="utf-8" ?>
<svg baseProfile="full" height="55.33104043453932" version="1.1" width="60.067119877785444" xmlns="http://www.w3.org/2000/svg" xmlns:ev="http://www.w3.org/2001/xml-events" xmlns:xlink="http://www.w3.org/1999/xlink"><defs /><rect fill="white" height="55.33104043453932" width="60.067119877785444" x="0" y="0" /><path d="M15.013424437493086, 19.072920512408018 m-0.9472157806158066, -3.3829134702682495 l-0.1353165414184332, -4.465445876121521 0.6765826791524887, -2.435697764158249 l1.2178488820791245, -1.6237984597682953 2.435697764158249, -1.0825323313474655 l1.7591150104999542, -0.2706330828368664 2.165064662694931, 0.0 l0.9472157806158066, 0.8118992298841476 2.706330716609955, 7.307093143463135 l0.5412661656737328, 2.9769638180732727 3.5182300209999084, -6.630510687828064 l3.6535465717315674, -3.9241796731948853 3.1122803688049316, -1.3531653583049774 l3.7888631224632263, 1.3531653583049774 2.165064662694931, 2.9769638180732727 l1.0825323313474655, 4.330129325389862 0.1353165414184332, 4.059496223926544 l0.9472157806158066, 4.059496223926544 0.2706330828368664, 6.765826940536499 l0.5412661656737328, 3.2475969195365906 0.0, 6.495193839073181 l-1.6237984597682953, 3.3829134702682495 -2.165064662694931, 2.571014165878296 l-8.389625549316406, 5.6832945346832275 -4.736078977584839, 0.4059496149420738 l-6.630510687828064, -1.0825323313474655 -2.571014165878296, -0.9472157806158066 l-2.30038121342659, -2.9769638180732727 -1.6237984597682953, -3.1122803688049316 l-2.571014165878296, -7.7130430936813354 -0.1353165414184332, -5.953927636146545 l0.5412661656737328, -3.2475969195365906 1.6237984597682953, -4.60076242685318 l0.1353165414184332, -2.9769638180732727 m4.194812774658203, 16.508618593215942 l-5.277345180511475, -0.6765826791524887 -5.5479782819747925, -0.1353165414184332 l-3.5182300209999084, 0.8118992298841476 0.2706330828368664, 0.2706330828368664 m22.73317813873291, 1.7591150104999542 l-5.142028331756592, 0.0 m-4.330129325389862, 0.6765826791524887 l-4.059496223926544, 1.3531653583049774 -7.036460041999817, 1.3531653583049774 m17.591150999069214, -5.006712079048157 l-0.2706330828368664, -1.4884819090366364 0.5412661656737328, -0.8118992298841476 l2.706330716609955, -1.4884819090366364 1.6237984597682953, -0.4059496149420738 l5.142028331756592, -0.2706330828368664 1.3531653583049774, 1.8944315612316132 l0.0, 1.4884819090366364 -0.5412661656737328, 1.0825323313474655 l-3.7888631224632263, 1.6237984597682953 -4.871395528316498, 0.4059496149420738 l-1.6237984597682953, -1.3531653583049774 -1.0825323313474655, -1.6237984597682953 l-0.2706330828368664, -0.6765826791524887 0.8118992298841476, -1.4884819090366364 m-4.194812774658203, -12.58443832397461 l-1.6237984597682953, 1.2178488820791245 -1.2178488820791245, 3.1122803688049316 l0.1353165414184332, 1.6237984597682953 0.5412661656737328, 0.6765826791524887 l2.165064662694931, 0.5412661656737328 2.029748111963272, -0.1353165414184332 l2.706330716609955, -0.9472157806158066 0.8118992298841476, -0.8118992298841476 l0.5412661656737328, -1.8944315612316132 -0.1353165414184332, -1.6237984597682953 l-1.0825323313474655, -1.3531653583049774 -2.30038121342659, -0.9472157806158066 l-3.5182300209999084, -0.1353165414184332 -0.6765826791524887, 0.2706330828368664 l0.0, 1.0825323313474655 m16.64393424987793, 0.0 l-2.571014165878296, 1.8944315612316132 -1.0825323313474655, 1.6237984597682953 l0.0, 0.6765826791524887 2.029748111963272, 2.029748111963272 l2.30038121342659, 0.0 0.9472157806158066, -0.8118992298841476 l1.0825323313474655, -1.8944315612316132 0.0, -1.0825323313474655 l-0.8118992298841476, -1.4884819090366364 -4.60076242685318, -0.1353165414184332 m-9.742791056632996, 2.706330716609955 l0.0, 1.3531653583049774 -1.6237984597682953, 0.2706330828368664 l-0.5412661656737328, -1.8944315612316132 0.6765826791524887, -0.1353165414184332 l0.4059496149420738, 0.6765826791524887 -0.8118992298841476, 0.5412661656737328 l-0.2706330828368664, -0.8118992298841476 0.1353165414184332, -0.8118992298841476 l1.0825323313474655, -0.5412661656737328 2.029748111963272, 1.0825323313474655 l1.0825323313474655, 0.9472157806158066 0.0, 0.5412661656737328 m9.87810730934143, 0.0 l-0.6765826791524887, 0.0 -0.2706330828368664, -0.6765826791524887 l0.8118992298841476, -0.2706330828368664 0.6765826791524887, 0.5412661656737328 l-0.1353165414184332, 0.9472157806158066 m0.6765826791524887, 7.442409992218018 l3.9241796731948853, 1.0825323313474655 14.884819984436035, -0.2706330828368664 m-18.132416009902954, 2.9769638180732727 l4.059496223926544, 1.6237984597682953 9.20152485370636, 1.7591150104999542 " fill="none" stroke="black" stroke-width="1" /></svg>