<?xml version="1.0" encoding="utf-8" ?>
<svg baseProfile="full" height="80.77055014669895" version="1.1" width="73.73409066349268" xmlns="http://www.w3.org/2000/svg" xmlns:ev="http://www.w3.org/2001/xml-events" xmlns:xlink="http://www.w3.org/1999/xlink"><defs /><rect fill="white" height="80.77055014669895" width="73.73409066349268" x="0" y="0" /><path d="M47.624710984528065, 25.432797577232122 m0.6765826791524887, -1.3531653583049774 l0.0, -1.3531653583049774 -0.6765826791524887, -0.9472157806158066 l-8.524942398071289, -1.2178488820791245 -5.5479782819747925, 0.0 l-5.277345180511475, 0.2706330828368664 -4.330129325389862, 0.8118992298841476 l-6.901143789291382, 2.435697764158249 -2.9769638180732727, 2.30038121342659 l-4.059496223926544, 5.142028331756592 -1.6237984597682953, 2.9769638180732727 l-1.8944315612316132, 5.41266143321991 -1.0825323313474655, 6.224560737609863 l-0.4059496149420738, 6.224560737609863 1.2178488820791245, 6.224560737609863 l3.3829134702682495, 6.359877586364746 5.41266143321991, 4.330129325389862 l7.036460041999817, 3.5182300209999084 8.660258650779724, 2.435697764158249 l9.20152485370636, 0.5412661656737328 9.20152485370636, -0.4059496149420738 l6.495193839073181, -1.4884819090366364 4.059496223926544, -2.165064662694931 l2.8416472673416138, -2.30038121342659 2.435697764158249, -3.6535465717315674 l1.3531653583049774, -4.330129325389862 0.8118992298841476, -4.871395528316498 l0.4059496149420738, -9.20152485370636 -0.1353165414184332, -4.736078977584839 l-5.5479782819747925, -20.838747024536133 -3.2475969195365906, -6.224560737609863 l-1.4884819090366364, -1.7591150104999542 -2.029748111963272, -1.4884819090366364 l-2.571014165878296, -0.5412661656737328 -3.5182300209999084, 0.0 l-5.006712079048157, 1.3531653583049774 m21.1093807220459, 16.37330174446106 l0.9472157806158066, -8.254309296607971 2.571014165878296, -10.82532286643982 l0.1353165414184332, -2.8416472673416138 -0.9472157806158066, -0.1353165414184332 l-4.330129325389862, 3.5182300209999084 -1.2178488820791245, 1.2178488820791245 l-3.3829134702682495, 5.5479782819747925 -0.9472157806158066, 0.1353165414184332 m-35.4529333114624, 3.5182300209999084 l0.0, -0.8118992298841476 -1.7591150104999542, -3.7888631224632263 l-5.81861138343811, -9.742791056632996 -0.8118992298841476, -2.029748111963272 l-0.5412661656737328, 1.6237984597682953 -1.4884819090366364, 13.396337032318115 l0.1353165414184332, 6.359877586364746 m16.914567947387695, 34.91166830062866 l0.4059496149420738, 2.571014165878296 2.8416472673416138, 4.194812774658203 l1.6237984597682953, 1.6237984597682953 5.277345180511475, 3.3829134702682495 l5.142028331756592, 0.2706330828368664 3.5182300209999084, -1.3531653583049774 l7.036460041999817, -3.6535465717315674 1.0825323313474655, -1.4884819090366364 l0.1353165414184332, -1.8944315612316132 -4.194812774658203, -9.607474207878113 m-22.868494987487793, -22.73317813873291 l1.2178488820791245, 2.029748111963272 1.2178488820791245, 6.495193839073181 l0.9472157806158066, 1.4884819090366364 0.8118992298841476, -3.2475969195365906 m5.6832945346832275, -8.660258650779724 l5.6832945346832275, 14.884819984436035 m-15.426086187362671, 14.749503135681152 l1.3531653583049774, 0.0 10.148741006851196, -3.2475969195365906 l10.419373512268066, 0.2706330828368664 m-19.35026526451111, 10.148741006851196 l6.359877586364746, 0.0 5.006712079048157, -0.4059496149420738 l1.7591150104999542, -0.5412661656737328 7.307093143463135, -0.1353165414184332 l4.465445876121521, -0.6765826791524887 0.5412661656737328, -0.4059496149420738 m-18.40304970741272, -5.81861138343811 l0.6765826791524887, 5.277345180511475 1.3531653583049774, 4.465445876121521 l0.5412661656737328, -0.4059496149420738 m3.9241796731948853, -6.224560737609863 l0.0, 2.435697764158249 1.0825323313474655, 2.9769638180732727 l1.0825323313474655, 5.142028331756592 0.0, -0.9472157806158066 m2.9769638180732727, -14.072920083999634 " fill="none" stroke="black" stroke-width="1" /></svg>