<?xml version="1.0" encoding="utf-8" ?>
<svg baseProfile="full" height="55.466358326375484" version="1.1" width="54.248509583994746" xmlns="http://www.w3.org/2000/svg" xmlns:ev="http://www.w3.org/2001/xml-events" xmlns:xlink="http://www.w3.org/1999/xlink"><defs /><rect fill="white" height="55.466358326375484" width="54.248509583994746" x="0" y="0" /><path d="M33.010524241253734, 8.924179915338755 m0.6765826791524887, -0.1353165414184332 l0.0, -1.6237984597682953 -2.029748111963272, -0.9472157806158066 l-1.4884819090366364, 0.0 -5.142028331756592, 1.0825323313474655 l-5.6832945346832275, 3.1122803688049316 -2.8416472673416138, 3.3829134702682495 l-0.6765826791524887, 1.6237984597682953 -0.2706330828368664, 2.8416472673416138 l0.6765826791524887, 2.706330716609955 1.6237984597682953, 2.435697764158249 l1.2178488820791245, 0.8118992298841476 5.6832945346832275, 1.3531653583049774 l2.8416472673416138, -0.1353165414184332 1.7591150104999542, -0.5412661656737328 l2.9769638180732727, -1.8944315612316132 4.736078977584839, -7.036460041999817 l0.6765826791524887, -4.059496223926544 -0.8118992298841476, -2.30038121342659 l-1.6237984597682953, -2.435697764158249 -1.4884819090366364, -1.3531653583049774 l-2.029748111963272, -0.8118992298841476 m-5.142028331756592, 22.327229976654053 l-4.465445876121521, -0.9472157806158066 -5.953927636146545, 0.5412661656737328 l-3.6535465717315674, 1.7591150104999542 -1.6237984597682953, 1.8944315612316132 l-0.4059496149420738, 1.6237984597682953 0.2706330828368664, 2.30038121342659 l4.194812774658203, 7.307093143463135 4.330129325389862, 3.7888631224632263 l5.81861138343811, 3.6535465717315674 3.7888631224632263, 1.2178488820791245 l3.6535465717315674, -0.2706330828368664 5.277345180511475, -2.571014165878296 l3.2475969195365906, -2.571014165878296 1.3531653583049774, -2.571014165878296 l0.5412661656737328, -2.706330716609955 0.0, -4.059496223926544 l-0.8118992298841476, -4.465445876121521 -2.30038121342659, -4.330129325389862 l-4.059496223926544, -2.9769638180732727 -4.059496223926544, -1.3531653583049774 l-6.630510687828064, -0.4059496149420738 -4.194812774658203, 0.4059496149420738 l-3.2475969195365906, 0.9472157806158066 m22.056596279144287, 6.765826940536499 l0.4059496149420738, -1.0825323313474655 2.8416472673416138, -2.706330716609955 l0.6765826791524887, -0.5412661656737328 1.6237984597682953, -0.2706330828368664 l2.706330716609955, 1.4884819090366364 0.8118992298841476, 1.0825323313474655 l0.4059496149420738, 1.8944315612316132 -0.4059496149420738, 1.8944315612316132 l-1.4884819090366364, 1.2178488820791245 -1.8944315612316132, 0.4059496149420738 l-6.089244484901428, 0.0 m-25.439510345458984, -2.8416472673416138 l-4.194812774658203, -0.4059496149420738 -3.7888631224632263, 0.8118992298841476 l-0.8118992298841476, 0.4059496149420738 -0.1353165414184332, 3.5182300209999084 l1.4884819090366364, 4.330129325389862 2.30038121342659, 2.029748111963272 l1.7591150104999542, 0.4059496149420738 1.0825323313474655, -0.1353165414184332 l3.5182300209999084, -2.9769638180732727 m7.442409992218018, -25.3041934967041 l1.3531653583049774, -1.4884819090366364 1.2178488820791245, -0.2706330828368664 l-1.3531653583049774, 2.30038121342659 -1.6237984597682953, 1.0825323313474655 " fill="none" stroke="black" stroke-width="1" /></svg>