<?xml version="1.0" encoding="utf-8" ?>
<svg baseProfile="full" height="35.71014404296875" version="1.1" width="38.95773949101567" xmlns="http://www.w3.org/2000/svg" xmlns:ev="http://www.w3.org/2001/xml-events" xmlns:xlink="http://www.w3.org/1999/xlink"><defs /><rect fill="white" height="35.71014404296875" width="38.95773949101567" x="0" y="0" /><path d="M22.86178357899189, 6.623798403888941 m-1.4884819090366364, -0.6765826791524887 l-3.2475969195365906, 0.0 -5.006712079048157, 1.4884819090366364 l-2.706330716609955, 1.7591150104999542 -1.7591150104999542, 2.571014165878296 l-0.2706330828368664, 1.4884819090366364 0.2706330828368664, 4.871395528316498 l0.9472157806158066, 2.8416472673416138 1.4884819090366364, 2.706330716609955 l1.7591150104999542, 2.165064662694931 2.30038121342659, 1.7591150104999542 l2.9769638180732727, 0.8118992298841476 1.4884819090366364, 0.0 l4.736078977584839, -1.2178488820791245 3.5182300209999084, -2.706330716609955 l2.571014165878296, -3.7888631224632263 0.8118992298841476, -4.330129325389862 l-0.2706330828368664, -2.9769638180732727 -0.8118992298841476, -2.8416472673416138 l-3.1122803688049316, -3.2475969195365906 -1.6237984597682953, -0.9472157806158066 l-3.3829134702682495, -0.6765826791524887 -3.5182300209999084, 1.2178488820791245 m-11.63722276687622, 4.465445876121521 l-0.5412661656737328, 0.0 -1.0825323313474655, -1.4884819090366364 l-0.2706330828368664, -1.6237984597682953 0.4059496149420738, -1.4884819090366364 l1.0825323313474655, -1.2178488820791245 1.2178488820791245, -0.2706330828368664 l2.165064662694931, 0.5412661656737328 1.7591150104999542, 1.4884819090366364 l0.6765826791524887, 1.4884819090366364 0.0, 0.5412661656737328 l-1.2178488820791245, 0.9472157806158066 -1.2178488820791245, 0.2706330828368664 l-2.165064662694931, -0.1353165414184332 m21.921279430389404, -4.194812774658203 l-0.5412661656737328, -0.5412661656737328 -0.6765826791524887, 0.1353165414184332 l-0.5412661656737328, 0.9472157806158066 0.2706330828368664, 1.2178488820791245 l2.029748111963272, 0.9472157806158066 1.3531653583049774, 0.0 l1.2178488820791245, -0.2706330828368664 1.2178488820791245, -1.2178488820791245 l0.0, -0.9472157806158066 -0.5412661656737328, -0.6765826791524887 l-2.165064662694931, -0.8118992298841476 -3.1122803688049316, 0.0 m-6.901143789291382, 25.71014404296875 l-2.8416472673416138, -0.6765826791524887 -2.30038121342659, -2.165064662694931 l-1.4884819090366364, -3.2475969195365906 0.2706330828368664, -2.9769638180732727 l1.2178488820791245, -1.6237984597682953 2.435697764158249, -1.6237984597682953 l4.194812774658203, -0.5412661656737328 1.0825323313474655, 0.0 l1.3531653583049774, 0.8118992298841476 1.4884819090366364, 3.2475969195365906 l0.0, 1.7591150104999542 -0.5412661656737328, 1.4884819090366364 l-1.8944315612316132, 2.029748111963272 -2.029748111963272, 0.9472157806158066 l-2.571014165878296, 0.4059496149420738 -1.3531653583049774, -0.2706330828368664 m3.1122803688049316, -9.20152485370636 l0.8118992298841476, 1.3531653583049774 0.5412661656737328, -0.1353165414184332 l0.0, -0.8118992298841476 -0.8118992298841476, -0.6765826791524887 l-2.029748111963272, 0.2706330828368664 " fill="none" stroke="black" stroke-width="1" /></svg>