<?xml version="1.0" encoding="utf-8" ?>
<svg baseProfile="full" height="36.79267483763397" version="1.1" width="35.71014268323779" xmlns="http://www.w3.org/2000/svg" xmlns:ev="http://www.w3.org/2001/xml-events" xmlns:xlink="http://www.w3.org/1999/xlink"><defs /><rect fill="white" height="36.79267483763397" width="35.71014268323779" x="0" y="0" /><path d="M13.660258492454886, 12.848359337076545 m-2.029748111963272, 0.0 l-2.571014165878296, 1.3531653583049774 -2.165064662694931, 2.9769638180732727 l-1.0825323313474655, 2.30038121342659 -0.6765826791524887, 2.8416472673416138 l-0.1353165414184332, 4.736078977584839 0.4059496149420738, 0.8118992298841476 l1.8944315612316132, 2.165064662694931 2.9769638180732727, 1.3531653583049774 l6.359877586364746, 0.4059496149420738 2.9769638180732727, -1.2178488820791245 l2.8416472673416138, -2.165064662694931 2.029748111963272, -2.30038121342659 l0.6765826791524887, -1.3531653583049774 0.4059496149420738, -2.9769638180732727 l-0.2706330828368664, -2.571014165878296 -0.8118992298841476, -1.2178488820791245 l-3.6535465717315674, -3.2475969195365906 -4.736078977584839, -1.8944315612316132 l-5.006712079048157, -0.5412661656737328 m0.5412661656737328, 5.41266143321991 l0.4059496149420738, -0.6765826791524887 -0.6765826791524887, -0.4059496149420738 l-2.029748111963272, -0.1353165414184332 -0.2706330828368664, 2.435697764158249 l0.4059496149420738, 0.1353165414184332 m7.307093143463135, -2.8416472673416138 l1.4884819090366364, 0.0 0.9472157806158066, 1.0825323313474655 m-11.366589069366455, -1.3531653583049774 l-0.5412661656737328, -4.871395528316498 2.435697764158249, -3.9241796731948853 l2.165064662694931, -1.6237984597682953 0.9472157806158066, -0.4059496149420738 l3.1122803688049316, -0.1353165414184332 0.8118992298841476, 0.1353165414184332 l1.4884819090366364, 1.2178488820791245 0.9472157806158066, 2.9769638180732727 l0.2706330828368664, 4.194812774658203 2.029748111963272, -4.465445876121521 l2.029748111963272, -2.30038121342659 3.9241796731948853, -0.4059496149420738 l1.4884819090366364, 0.5412661656737328 1.2178488820791245, 1.4884819090366364 l0.5412661656737328, 4.330129325389862 -2.165064662694931, 3.2475969195365906 l-4.059496223926544, 2.435697764158249 m-11.231273412704468, 6.224560737609863 l0.0, 0.0 " fill="none" stroke="black" stroke-width="1" /></svg>