<?xml version="1.0" encoding="utf-8" ?>
<svg baseProfile="full" height="38.01052332855761" version="1.1" width="34.35697715729475" xmlns="http://www.w3.org/2000/svg" xmlns:ev="http://www.w3.org/2001/xml-events" xmlns:xlink="http://www.w3.org/1999/xlink"><defs /><rect fill="white" height="38.01052332855761" width="34.35697715729475" x="0" y="0" /><path d="M17.855070922523737, 16.366589097306132 m-0.9472157806158066, -0.8118992298841476 l-2.706330716609955, 0.2706330828368664 -3.6535465717315674, 1.6237984597682953 l-2.30038121342659, 1.8944315612316132 -1.4884819090366364, 3.9241796731948853 l0.0, 5.142028331756592 2.029748111963272, 3.3829134702682495 l2.9769638180732727, 1.2178488820791245 5.006712079048157, 0.0 l4.736078977584839, -2.30038121342659 1.7591150104999542, -2.435697764158249 l0.5412661656737328, -4.059496223926544 -0.1353165414184332, -3.6535465717315674 l-2.435697764158249, -3.5182300209999084 -3.5182300209999084, -1.2178488820791245 m-9.336841106414795, 4.194812774658203 l-1.6237984597682953, -2.029748111963272 -1.6237984597682953, -4.330129325389862 l-0.1353165414184332, -3.7888631224632263 1.0825323313474655, -2.165064662694931 l0.5412661656737328, -0.1353165414184332 m5.41266143321991, 10.013424158096313 l1.3531653583049774, -3.2475969195365906 -0.1353165414184332, -3.3829134702682495 l-2.571014165878296, -2.706330716609955 -3.2475969195365906, -2.165064662694931 m1.3531653583049774, 11.095956563949585 l-0.2706330828368664, -3.2475969195365906 -0.8118992298841476, -2.165064662694931 l0.2706330828368664, -2.029748111963272 1.3531653583049774, 0.2706330828368664 l1.6237984597682953, 1.8944315612316132 1.0825323313474655, 4.736078977584839 m9.472157955169678, 0.8118992298841476 l0.0, -9.472157955169678 1.0825323313474655, -1.3531653583049774 l2.30038121342659, -1.6237984597682953 2.8416472673416138, 0.0 l1.4884819090366364, 2.706330716609955 0.1353165414184332, 4.465445876121521 l-2.165064662694931, 3.7888631224632263 -2.30038121342659, 2.435697764158249 m-1.3531653583049774, -2.435697764158249 l-0.1353165414184332, -2.165064662694931 0.5412661656737328, -3.9241796731948853 l1.4884819090366364, -1.0825323313474655 1.3531653583049774, 0.0 l1.0825323313474655, 2.8416472673416138 -0.2706330828368664, 3.2475969195365906 l-2.165064662694931, 3.5182300209999084 m-10.55469036102295, 6.901143789291382 l-0.4059496149420738, 0.6765826791524887 0.1353165414184332, 1.3531653583049774 l2.30038121342659, 0.2706330828368664 1.7591150104999542, -1.2178488820791245 l0.2706330828368664, -0.9472157806158066 -0.9472157806158066, -0.6765826791524887 l-3.3829134702682495, -0.4059496149420738 -0.4059496149420738, 0.5412661656737328 m0.5412661656737328, 2.706330716609955 l-5.41266143321991, 3.7888631224632263 m7.577726244926453, -3.1122803688049316 l1.6237984597682953, 0.4059496149420738 1.0825323313474655, 1.3531653583049774 m-7.307093143463135, -10.55469036102295 l0.1353165414184332, 2.435697764158249 0.9472157806158066, 1.3531653583049774 l0.6765826791524887, -0.5412661656737328 0.2706330828368664, -2.029748111963272 m4.059496223926544, -1.4884819090366364 l0.0, 1.2178488820791245 0.6765826791524887, 1.2178488820791245 l1.2178488820791245, 0.9472157806158066 1.8944315612316132, -0.4059496149420738 l-0.2706330828368664, -1.7591150104999542 -0.5412661656737328, -0.4059496149420738 " fill="none" stroke="black" stroke-width="1" /></svg>