<?xml version="1.0" encoding="utf-8" ?>
<svg baseProfile="full" height="77.25232085213065" version="1.1" width="104.99221303500235" xmlns="http://www.w3.org/2000/svg" xmlns:ev="http://www.w3.org/2001/xml-events" xmlns:xlink="http://www.w3.org/1999/xlink"><defs /><rect fill="white" height="77.25232085213065" width="104.99221303500235" x="0" y="0" /><path d="M34.76964103989303, 24.89153143018484 m-0.2706330828368664, -3.1122803688049316 l-2.029748111963272, -3.3829134702682495 -1.0825323313474655, -4.059496223926544 l-0.1353165414184332, -4.871395528316498 1.8944315612316132, -2.029748111963272 l6.765826940536499, -1.8944315612316132 3.2475969195365906, -0.5412661656737328 l8.118992447853088, 0.1353165414184332 4.871395528316498, 2.30038121342659 l1.4884819090366364, 1.3531653583049774 0.9472157806158066, 2.165064662694931 l0.2706330828368664, 5.953927636146545 -0.8118992298841476, 3.2475969195365906 m-0.1353165414184332, 0.0 l2.165064662694931, -0.2706330828368664 13.531653881072998, -6.089244484901428 m-6.901143789291382, 16.508618593215942 l7.577726244926453, -5.5479782819747925 3.3829134702682495, -1.4884819090366364 l1.2178488820791245, -1.0825323313474655 m-5.142028331756592, -8.524942398071289 l1.3531653583049774, -2.435697764158249 2.571014165878296, -2.706330716609955 l2.8416472673416138, -1.7591150104999542 3.2475969195365906, -1.2178488820791245 l0.4059496149420738, 2.30038121342659 -1.2178488820791245, 4.059496223926544 l9.472157955169678, -2.571014165878296 7.577726244926453, -0.4059496149420738 l-7.036460041999817, 5.5479782819747925 2.435697764158249, 0.2706330828368664 l3.6535465717315674, 2.8416472673416138 0.5412661656737328, 2.30038121342659 l-0.9472157806158066, 0.8118992298841476 -3.6535465717315674, 1.8944315612316132 l-9.607474207878113, 3.2475969195365906 -8.118992447853088, 0.9472157806158066 m-42.2187614440918, -1.3531653583049774 l-0.8118992298841476, -0.4059496149420738 -8.795575499534607, -0.9472157806158066 m10.82532286643982, 7.1717768907547 l-4.330129325389862, -2.435697764158249 -7.983676195144653, -2.435697764158249 m-0.5412661656737328, -2.165064662694931 l2.029748111963272, -3.1122803688049316 0.6765826791524887, -1.8944315612316132 l-0.2706330828368664, -5.41266143321991 -3.5182300209999084, -3.7888631224632263 l-2.30038121342659, -1.3531653583049774 -3.1122803688049316, -0.2706330828368664 l-0.9472157806158066, 0.2706330828368664 -0.4059496149420738, 0.6765826791524887 l1.2178488820791245, 2.30038121342659 -0.4059496149420738, 2.029748111963272 l-0.5412661656737328, 0.6765826791524887 -3.9241796731948853, 3.1122803688049316 l-4.465445876121521, 2.571014165878296 0.1353165414184332, 0.6765826791524887 l3.1122803688049316, 1.7591150104999542 -0.2706330828368664, 1.0825323313474655 l-3.1122803688049316, 2.435697764158249 -2.30038121342659, 2.571014165878296 l1.3531653583049774, 0.4059496149420738 11.772539615631104, 0.0 l3.3829134702682495, -0.5412661656737328 2.029748111963272, -1.3531653583049774 m11.772539615631104, 4.465445876121521 l0.1353165414184332, 4.60076242685318 -1.4884819090366364, 5.006712079048157 l-0.4059496149420738, 3.5182300209999084 0.0, 12.990387678146362 l1.3531653583049774, 4.059496223926544 2.435697764158249, 4.736078977584839 l2.165064662694931, 2.8416472673416138 2.029748111963272, 1.7591150104999542 l2.9769638180732727, 1.0825323313474655 9.066208004951477, 0.1353165414184332 l11.90785527229309, -1.7591150104999542 3.5182300209999084, -2.165064662694931 l0.8118992298841476, -0.9472157806158066 1.0825323313474655, -3.1122803688049316 l1.3531653583049774, -7.307093143463135 -0.1353165414184332, -14.072920083999634 l-2.30038121342659, -4.60076242685318 -2.571014165878296, -3.7888631224632263 l-1.2178488820791245, -3.1122803688049316 " fill="none" stroke="black" stroke-width="1" /></svg>