<?xml version="1.0" encoding="utf-8" ?>
<svg baseProfile="full" height="47.2120492067188" version="1.1" width="58.17269048653543" xmlns="http://www.w3.org/2000/svg" xmlns:ev="http://www.w3.org/2001/xml-events" xmlns:xlink="http://www.w3.org/1999/xlink"><defs /><rect fill="white" height="47.2120492067188" width="58.17269048653543" x="0" y="0" /><path d="M27.32722921296954, 8.382913945242763 m-7.8483593463897705, -0.2706330828368664 l-3.3829134702682495, 1.2178488820791245 -1.3531653583049774, 0.9472157806158066 l-2.30038121342659, 3.5182300209999084 -1.6237984597682953, 4.059496223926544 l-5.5479782819747925, 5.142028331756592 -0.2706330828368664, 4.736078977584839 l0.4059496149420738, 1.8944315612316132 0.6765826791524887, 0.6765826791524887 l6.630510687828064, 1.7591150104999542 3.6535465717315674, 0.1353165414184332 l1.0825323313474655, -0.9472157806158066 0.9472157806158066, -3.7888631224632263 l0.6765826791524887, -0.4059496149420738 8.254309296607971, -0.5412661656737328 l1.4884819090366364, -1.0825323313474655 2.029748111963272, -3.3829134702682495 l0.8118992298841476, -2.435697764158249 0.6765826791524887, -7.1717768907547 l-0.5412661656737328, -2.029748111963272 -1.4884819090366364, -1.2178488820791245 l-1.7591150104999542, -0.5412661656737328 -1.0825323313474655, 0.5412661656737328 m-0.1353165414184332, -1.6237984597682953 l0.1353165414184332, -2.029748111963272 0.6765826791524887, -0.5412661656737328 l0.6765826791524887, 0.1353165414184332 0.8118992298841476, 1.4884819090366364 l-0.8118992298841476, 1.7591150104999542 m2.165064662694931, 13.125704526901245 l2.165064662694931, 0.1353165414184332 2.8416472673416138, 1.6237984597682953 l2.165064662694931, 2.8416472673416138 3.2475969195365906, 5.5479782819747925 m-24.76292610168457, -0.1353165414184332 l0.0, 10.690007209777832 m25.574827194213867, -11.095956563949585 l0.1353165414184332, -3.5182300209999084 2.9769638180732727, -5.277345180511475 l2.165064662694931, -2.165064662694931 2.029748111963272, -1.2178488820791245 l3.6535465717315674, -1.3531653583049774 " fill="none" stroke="black" stroke-width="1" /></svg>