<?xml version="1.0" encoding="utf-8" ?>
<svg baseProfile="full" height="47.482681134715676" version="1.1" width="34.492293344810605" xmlns="http://www.w3.org/2000/svg" xmlns:ev="http://www.w3.org/2001/xml-events" xmlns:xlink="http://www.w3.org/1999/xlink"><defs /><rect fill="white" height="47.482681134715676" width="34.492293344810605" x="0" y="0" /><path d="M10.277344845235348, 13.660258827731013 m-1.8944315612316132, -0.8118992298841476 l-1.3531653583049774, 0.0 -0.4059496149420738, 0.5412661656737328 l0.1353165414184332, 0.9472157806158066 0.9472157806158066, 0.8118992298841476 l2.706330716609955, 1.3531653583049774 -3.3829134702682495, 1.8944315612316132 l-0.1353165414184332, 1.0825323313474655 1.2178488820791245, 0.6765826791524887 l3.9241796731948853, -0.4059496149420738 m-5.277345180511475, -6.495193839073181 l0.1353165414184332, 2.435697764158249 0.6765826791524887, 0.4059496149420738 l1.2178488820791245, -1.0825323313474655 0.9472157806158066, 1.2178488820791245 m-2.435697764158249, 1.3531653583049774 l-0.4059496149420738, -0.5412661656737328 0.6765826791524887, -0.1353165414184332 l1.0825323313474655, 0.9472157806158066 1.3531653583049774, -0.9472157806158066 m0.5412661656737328, -4.871395528316498 l-0.2706330828368664, -0.9472157806158066 0.2706330828368664, -1.8944315612316132 l2.706330716609955, -0.6765826791524887 5.142028331756592, 0.0 l1.2178488820791245, 1.0825323313474655 0.6765826791524887, 1.4884819090366364 l0.8118992298841476, 5.81861138343811 m-6.224560737609863, -8.795575499534607 l-0.2706330828368664, -1.6237984597682953 0.2706330828368664, -0.9472157806158066 l1.4884819090366364, -0.5412661656737328 1.2178488820791245, 0.8118992298841476 l0.5412661656737328, 3.2475969195365906 m1.8944315612316132, 7.983676195144653 l0.4059496149420738, 0.5412661656737328 -0.2706330828368664, 5.142028331756592 l0.5412661656737328, 2.9769638180732727 0.5412661656737328, 0.1353165414184332 l5.5479782819747925, -3.7888631224632263 2.165064662694931, -0.4059496149420738 l0.5412661656737328, 0.6765826791524887 -0.2706330828368664, 2.029748111963272 l-5.6832945346832275, 5.277345180511475 -1.4884819090366364, 2.165064662694931 m-9.607474207878113, -12.178488969802856 l-0.1353165414184332, 1.6237984597682953 0.2706330828368664, 1.7591150104999542 l-2.165064662694931, 0.0 -2.571014165878296, -1.6237984597682953 l-1.6237984597682953, -0.2706330828368664 -0.9472157806158066, 0.4059496149420738 l-0.2706330828368664, 1.6237984597682953 1.4884819090366364, 2.706330716609955 l5.81861138343811, 4.059496223926544 0.8118992298841476, 0.6765826791524887 l0.1353165414184332, 0.6765826791524887 m-0.4059496149420738, 0.5412661656737328 l-2.029748111963272, 7.036460041999817 -0.1353165414184332, 2.9769638180732727 l1.0825323313474655, 0.6765826791524887 1.8944315612316132, -0.1353165414184332 l1.2178488820791245, -0.8118992298841476 0.9472157806158066, -1.2178488820791245 l1.3531653583049774, -3.2475969195365906 0.5412661656737328, -0.4059496149420738 l1.2178488820791245, 1.8944315612316132 1.6237984597682953, 1.3531653583049774 l1.2178488820791245, 0.5412661656737328 1.7591150104999542, 0.0 l0.4059496149420738, -0.5412661656737328 -0.1353165414184332, -2.571014165878296 l-1.6237984597682953, -4.871395528316498 " fill="none" stroke="black" stroke-width="1" /></svg>