<?xml version="1.0" encoding="utf-8" ?>
<svg baseProfile="full" height="79.82333500869572" version="1.1" width="58.713954566046596" xmlns="http://www.w3.org/2000/svg" xmlns:ev="http://www.w3.org/2001/xml-events" xmlns:xlink="http://www.w3.org/1999/xlink"><defs /><rect fill="white" height="79.82333500869572" width="58.713954566046596" x="0" y="0" /><path d="M47.35407719388604, 20.83203550428152 m-1.7591150104999542, -7.1717768907547 l-1.7591150104999542, -0.9472157806158066 -7.577726244926453, -1.6237984597682953 l-3.2475969195365906, 0.5412661656737328 -1.8944315612316132, 0.9472157806158066 l-1.4884819090366364, 2.165064662694931 -0.2706330828368664, 2.9769638180732727 l0.8118992298841476, 1.7591150104999542 2.706330716609955, 3.5182300209999084 l3.3829134702682495, 3.2475969195365906 7.1717768907547, 2.8416472673416138 l5.953927636146545, 1.2178488820791245 2.8416472673416138, -0.6765826791524887 l1.3531653583049774, -1.3531653583049774 0.1353165414184332, -0.8118992298841476 l-1.2178488820791245, -3.3829134702682495 -4.059496223926544, -3.1122803688049316 m-3.2475969195365906, -4.871395528316498 l0.2706330828368664, -1.4884819090366364 1.8944315612316132, -3.7888631224632263 l2.571014165878296, -3.3829134702682495 2.9769638180732727, -2.435697764158249 l0.2706330828368664, 1.0825323313474655 -1.8944315612316132, 9.066208004951477 l-0.6765826791524887, 0.6765826791524887 -5.81861138343811, 1.3531653583049774 m-6.224560737609863, -5.142028331756592 l-2.029748111963272, -1.6237984597682953 -6.359877586364746, -3.2475969195365906 l-5.006712079048157, -1.4884819090366364 -4.60076242685318, -0.6765826791524887 l-1.4884819090366364, 0.8118992298841476 -3.2475969195365906, 3.5182300209999084 l-1.2178488820791245, 2.30038121342659 -0.1353165414184332, 1.0825323313474655 l0.5412661656737328, 0.6765826791524887 7.307093143463135, 1.2178488820791245 l6.359877586364746, -0.1353165414184332 2.435697764158249, -1.7591150104999542 l2.30038121342659, -2.435697764158249 m18.538366556167603, 14.749503135681152 l-0.5412661656737328, 1.4884819090366364 1.3531653583049774, -1.6237984597682953 l0.6765826791524887, -1.6237984597682953 -1.0825323313474655, 1.6237984597682953 m-21.921279430389404, 0.5412661656737328 l-1.4884819090366364, 1.0825323313474655 -3.9241796731948853, 1.2178488820791245 l-11.095956563949585, 9.20152485370636 -6.359877586364746, 7.036460041999817 l-1.8944315612316132, 3.6535465717315674 -0.6765826791524887, 2.8416472673416138 l0.0, 1.3531653583049774 1.0825323313474655, 1.2178488820791245 l3.5182300209999084, 0.6765826791524887 10.960639715194702, -11.095956563949585 l-0.4059496149420738, 1.6237984597682953 0.0, 6.495193839073181 l-2.435697764158249, 7.1717768907547 -0.6765826791524887, 4.871395528316498 l0.1353165414184332, 12.043172121047974 -1.4884819090366364, 0.0 l10.013424158096313, 0.0 " fill="none" stroke="black" stroke-width="1" /></svg>