<?xml version="1.0" encoding="utf-8" ?>
<svg baseProfile="full" height="33.95102760754526" version="1.1" width="41.7993872705847" xmlns="http://www.w3.org/2000/svg" xmlns:ev="http://www.w3.org/2001/xml-events" xmlns:xlink="http://www.w3.org/1999/xlink"><defs /><rect fill="white" height="33.95102760754526" width="41.7993872705847" x="0" y="0" /><path d="M6.759115206077695, 14.336841236799955 m-1.4884819090366364, -4.736078977584839 l0.0, -2.30038121342659 0.5412661656737328, -0.6765826791524887 l1.4884819090366364, -0.4059496149420738 4.194812774658203, 0.0 l2.435697764158249, 2.165064662694931 1.0825323313474655, 2.029748111963272 l0.9472157806158066, 0.2706330828368664 10.013424158096313, 0.0 l1.8944315612316132, -2.9769638180732727 2.435697764158249, -2.029748111963272 l1.4884819090366364, -0.6765826791524887 1.4884819090366364, 0.1353165414184332 l2.8416472673416138, 1.7591150104999542 0.6765826791524887, 2.30038121342659 l0.0, 2.165064662694931 -2.029748111963272, 3.9241796731948853 l-0.4059496149420738, 1.6237984597682953 0.1353165414184332, 7.036460041999817 l-1.3531653583049774, 2.029748111963272 -4.871395528316498, 2.029748111963272 l-6.089244484901428, 0.9472157806158066 -4.871395528316498, -0.2706330828368664 l-4.871395528316498, -2.165064662694931 -4.465445876121521, -4.194812774658203 l-2.571014165878296, -4.736078977584839 -0.4059496149420738, -2.30038121342659 l0.1353165414184332, -0.6765826791524887 1.7591150104999542, -0.9472157806158066 m7.036460041999817, 1.6237984597682953 l0.6765826791524887, 0.1353165414184332 -0.5412661656737328, -0.4059496149420738 m10.148741006851196, -0.4059496149420738 l-0.4059496149420738, 0.6765826791524887 1.3531653583049774, 0.0 l0.5412661656737328, -0.6765826791524887 -2.435697764158249, 0.0 m-4.871395528316498, 2.9769638180732727 l0.5412661656737328, -0.5412661656737328 m-0.5412661656737328, 0.1353165414184332 l-0.1353165414184332, 2.8416472673416138 -0.6765826791524887, 0.6765826791524887 l-2.029748111963272, 0.5412661656737328 " fill="none" stroke="black" stroke-width="1" /></svg>