<?xml version="1.0" encoding="utf-8" ?>
<svg baseProfile="full" height="47.48268117196858" version="1.1" width="46.12951658666134" xmlns="http://www.w3.org/2000/svg" xmlns:ev="http://www.w3.org/2001/xml-events" xmlns:xlink="http://www.w3.org/1999/xlink"><defs /><rect fill="white" height="47.48268117196858" width="46.12951658666134" x="0" y="0" /><path d="M20.69671922363341, 11.089244037866592 m-3.5182300209999084, 0.1353165414184332 l-4.736078977584839, 3.1122803688049316 -1.4884819090366364, 2.165064662694931 l-2.30038121342659, 5.81861138343811 -0.6765826791524887, 2.9769638180732727 l-0.1353165414184332, 4.330129325389862 1.3531653583049774, 2.30038121342659 l2.029748111963272, 1.8944315612316132 2.706330716609955, 1.2178488820791245 l7.036460041999817, 0.5412661656737328 4.059496223926544, -0.2706330828368664 l3.9241796731948853, -1.2178488820791245 3.7888631224632263, -1.6237984597682953 l3.1122803688049316, -2.165064662694931 2.029748111963272, -2.9769638180732727 l1.0825323313474655, -3.6535465717315674 0.0, -3.9241796731948853 l-0.5412661656737328, -3.1122803688049316 -1.8944315612316132, -2.30038121342659 l-2.8416472673416138, -1.6237984597682953 -3.3829134702682495, -0.9472157806158066 l-7.8483593463897705, -0.1353165414184332 -8.118992447853088, 1.6237984597682953 m-3.5182300209999084, 3.1122803688049316 l-0.8118992298841476, -0.6765826791524887 -0.8118992298841476, -1.6237984597682953 l-0.9472157806158066, -3.5182300209999084 0.0, -3.2475969195365906 l0.4059496149420738, -0.9472157806158066 1.4884819090366364, -1.0825323313474655 l3.9241796731948853, -0.2706330828368664 2.029748111963272, 2.165064662694931 l0.9472157806158066, 2.8416472673416138 0.8118992298841476, 1.6237984597682953 l0.5412661656737328, 0.1353165414184332 m14.072920083999634, 1.2178488820791245 l-0.2706330828368664, -1.4884819090366364 2.029748111963272, -4.330129325389862 l1.6237984597682953, -1.3531653583049774 4.330129325389862, -0.2706330828368664 l0.9472157806158066, 2.165064662694931 0.0, 2.9769638180732727 l-3.3829134702682495, 7.307093143463135 m-24.22166109085083, 16.64393424987793 l-1.2178488820791245, 1.4884819090366364 -0.9472157806158066, 5.953927636146545 l-0.8118992298841476, 0.4059496149420738 -1.4884819090366364, -0.4059496149420738 l-4.059496223926544, -1.7591150104999542 " fill="none" stroke="black" stroke-width="1" /></svg>