<?xml version="1.0" encoding="utf-8" ?>
<svg baseProfile="full" height="100.25613388046622" version="1.1" width="109.45765906944871" xmlns="http://www.w3.org/2000/svg" xmlns:ev="http://www.w3.org/2001/xml-events" xmlns:xlink="http://www.w3.org/1999/xlink"><defs /><rect fill="white" height="100.25613388046622" width="109.45765906944871" x="0" y="0" /><path d="M22.04988420009613, 41.67078351601958 m-3.7888631224632263, 1.2178488820791245 l-4.736078977584839, 2.9769638180732727 -4.330129325389862, 3.7888631224632263 l-2.029748111963272, 3.5182300209999084 -1.2178488820791245, 3.7888631224632263 l-0.9472157806158066, 5.81861138343811 0.2706330828368664, 16.914567947387695 l2.435697764158249, 4.194812774658203 2.029748111963272, 2.165064662694931 l3.1122803688049316, 2.30038121342659 10.690007209777832, 5.953927636146545 l5.5479782819747925, 0.9472157806158066 7.1717768907547, 0.0 l1.7591150104999542, -0.1353165414184332 4.059496223926544, -2.029748111963272 l2.9769638180732727, -2.9769638180732727 1.3531653583049774, -2.029748111963272 l4.60076242685318, -8.930891752243042 1.8944315612316132, -7.442409992218018 l0.1353165414184332, -12.990387678146362 -0.6765826791524887, -2.30038121342659 l-3.9241796731948853, -5.6832945346832275 -4.194812774658203, -3.5182300209999084 l-7.307093143463135, -2.30038121342659 -11.366589069366455, -2.029748111963272 l-2.9769638180732727, 0.0 -3.5182300209999084, 1.2178488820791245 m4.60076242685318, 36.67078256607056 l-1.7591150104999542, -1.4884819090366364 -1.2178488820791245, -1.8944315612316132 l-1.8944315612316132, -4.736078977584839 -0.8118992298841476, -4.736078977584839 l0.0, -8.660258650779724 0.6765826791524887, -2.706330716609955 l2.9769638180732727, -6.495193839073181 4.059496223926544, -2.571014165878296 l3.6535465717315674, -0.4059496149420738 4.330129325389862, 2.571014165878296 l2.435697764158249, 2.9769638180732727 4.194812774658203, 6.901143789291382 l0.8118992298841476, 4.60076242685318 -0.2706330828368664, 7.577726244926453 l-1.6237984597682953, 2.435697764158249 -3.5182300209999084, 3.5182300209999084 l-5.142028331756592, 2.435697764158249 -4.330129325389862, 0.0 l-6.224560737609863, -1.8944315612316132 -0.8118992298841476, -0.8118992298841476 l-0.4059496149420738, -1.2178488820791245 m1.6237984597682953, -34.099769592285156 l-0.6765826791524887, -1.0825323313474655 -3.2475969195365906, -2.8416472673416138 l-2.435697764158249, -3.3829134702682495 -0.5412661656737328, -1.7591150104999542 l0.0, -5.006712079048157 1.3531653583049774, -2.571014165878296 l2.9769638180732727, -3.1122803688049316 8.389625549316406, -3.9241796731948853 l4.059496223926544, -0.5412661656737328 7.8483593463897705, 0.0 l3.3829134702682495, 1.2178488820791245 2.30038121342659, 2.029748111963272 l1.6237984597682953, 2.165064662694931 1.4884819090366364, 6.765826940536499 l-0.1353165414184332, 5.81861138343811 -1.7591150104999542, 3.3829134702682495 l-3.7888631224632263, 4.194812774658203 -6.089244484901428, 2.029748111963272 l-2.706330716609955, -0.1353165414184332 -0.8118992298841476, -0.6765826791524887 m-15.561401844024658, -23.27444553375244 l-1.3531653583049774, -7.1717768907547 0.0, -3.9241796731948853 l1.0825323313474655, -2.9769638180732727 2.30038121342659, -2.30038121342659 l1.4884819090366364, 0.0 0.8118992298841476, 0.5412661656737328 l2.9769638180732727, 3.9241796731948853 0.6765826791524887, 1.4884819090366364 l1.0825323313474655, 6.765826940536499 m13.125704526901245, 0.4059496149420738 l2.029748111963272, -5.5479782819747925 1.4884819090366364, -1.8944315612316132 l2.8416472673416138, -1.7591150104999542 5.5479782819747925, -0.4059496149420738 l0.6765826791524887, 0.4059496149420738 1.2178488820791245, 2.029748111963272 l0.8118992298841476, 3.5182300209999084 0.0, 2.8416472673416138 l-1.7591150104999542, 3.1122803688049316 -1.6237984597682953, 0.8118992298841476 l-1.2178488820791245, 1.2178488820791245 m4.871395528316498, 32.74660348892212 l0.6765826791524887, 0.4059496149420738 4.60076242685318, 0.0 l6.224560737609863, -3.5182300209999084 4.736078977584839, -3.6535465717315674 l4.465445876121521, -4.736078977584839 10.419373512268066, -14.208236932754517 l0.4059496149420738, 0.6765826791524887 0.0, 2.30038121342659 l-0.6765826791524887, 6.495193839073181 1.7591150104999542, -0.1353165414184332 l5.006712079048157, -6.630510687828064 2.029748111963272, -1.4884819090366364 l1.6237984597682953, -0.1353165414184332 0.5412661656737328, 0.6765826791524887 l-0.2706330828368664, 6.224560737609863 1.4884819090366364, -0.4059496149420738 l3.7888631224632263, -3.6535465717315674 0.8118992298841476, 0.0 l0.0, 6.630510687828064 0.9472157806158066, 0.1353165414184332 l1.2178488820791245, -0.6765826791524887 1.4884819090366364, -1.6237984597682953 l0.0, 0.9472157806158066 -1.4884819090366364, 2.8416472673416138 " fill="none" stroke="black" stroke-width="1" /></svg>