<?xml version="1.0" encoding="utf-8" ?>
<svg baseProfile="full" height="60.879019405692816" version="1.1" width="39.76963873952627" xmlns="http://www.w3.org/2000/svg" xmlns:ev="http://www.w3.org/2001/xml-events" xmlns:xlink="http://www.w3.org/1999/xlink"><defs /><rect fill="white" height="60.879019405692816" width="39.76963873952627" x="0" y="0" /><path d="M21.779250958934426, 13.795575145632029 m-2.9769638180732727, 0.8118992298841476 l-1.0825323313474655, 0.6765826791524887 -1.0825323313474655, 1.6237984597682953 l1.4884819090366364, 1.8944315612316132 2.706330716609955, 0.2706330828368664 m-2.706330716609955, -3.3829134702682495 l0.5412661656737328, -3.6535465717315674 3.1122803688049316, -4.194812774658203 l2.165064662694931, -1.7591150104999542 2.9769638180732727, -1.0825323313474655 l1.8944315612316132, 0.0 4.194812774658203, 2.706330716609955 l1.6237984597682953, 3.2475969195365906 0.1353165414184332, 2.706330716609955 l-0.4059496149420738, 1.8944315612316132 -1.4884819090366364, 2.9769638180732727 m-12.58443832397461, 1.0825323313474655 l-1.0825323313474655, 1.2178488820791245 -1.7591150104999542, 0.8118992298841476 l-2.8416472673416138, -0.2706330828368664 -2.30038121342659, -1.4884819090366364 l-3.2475969195365906, -5.142028331756592 -1.3531653583049774, -0.9472157806158066 l-1.6237984597682953, -0.1353165414184332 -0.9472157806158066, 0.4059496149420738 l0.6765826791524887, -0.4059496149420738 0.0, 0.6765826791524887 l-0.8118992298841476, 0.9472157806158066 0.8118992298841476, 0.0 l0.1353165414184332, 0.6765826791524887 -0.6765826791524887, 0.8118992298841476 l0.6765826791524887, 0.0 2.706330716609955, 4.60076242685318 l3.2475969195365906, 2.571014165878296 3.1122803688049316, 1.2178488820791245 l1.8944315612316132, 0.0 2.029748111963272, -0.4059496149420738 l2.706330716609955, -2.165064662694931 0.0, 3.5182300209999084 l-0.9472157806158066, 8.660258650779724 -3.9241796731948853, 14.884819984436035 l-2.029748111963272, 5.41266143321991 0.2706330828368664, 0.6765826791524887 l3.1122803688049316, 0.1353165414184332 1.2178488820791245, -1.7591150104999542 l2.571014165878296, -7.983676195144653 1.2178488820791245, -1.0825323313474655 l3.3829134702682495, -0.4059496149420738 0.5412661656737328, 2.165064662694931 l-1.4884819090366364, 7.442409992218018 0.8118992298841476, 1.0825323313474655 l2.30038121342659, 0.5412661656737328 1.0825323313474655, -0.1353165414184332 l1.3531653583049774, -1.4884819090366364 0.6765826791524887, -3.2475969195365906 l0.4059496149420738, -12.31380581855774 0.0, -6.495193839073181 l-0.9472157806158066, -7.983676195144653 " fill="none" stroke="black" stroke-width="1" /></svg>