<?xml version="1.0" encoding="utf-8" ?>
<svg baseProfile="full" height="40.31090437434614" version="1.1" width="28.1324162799865" xmlns="http://www.w3.org/2000/svg" xmlns:ev="http://www.w3.org/2001/xml-events" xmlns:xlink="http://www.w3.org/1999/xlink"><defs /><rect fill="white" height="40.31090437434614" width="28.1324162799865" x="0" y="0" /><path d="M15.419373605400324, 9.736078446730971 m-4.465445876121521, 1.0825323313474655 l-2.706330716609955, 2.029748111963272 -1.0825323313474655, 1.8944315612316132 l0.0, 4.736078977584839 1.6237984597682953, 0.9472157806158066 l1.8944315612316132, 0.0 1.0825323313474655, -0.5412661656737328 l2.706330716609955, -2.571014165878296 2.9769638180732727, -5.142028331756592 l0.5412661656737328, -3.3829134702682495 -1.2178488820791245, -0.1353165414184332 m-0.4059496149420738, -0.5412661656737328 l0.1353165414184332, -0.8118992298841476 1.8944315612316132, -1.4884819090366364 l4.330129325389862, -0.8118992298841476 0.4059496149420738, 2.435697764158249 l-1.0825323313474655, 2.435697764158249 m-12.990387678146362, 1.0825323313474655 l0.1353165414184332, -1.4884819090366364 -0.4059496149420738, -0.8118992298841476 l-0.9472157806158066, -0.8118992298841476 -1.4884819090366364, 0.0 l-0.4059496149420738, 0.9472157806158066 0.0, 2.706330716609955 l0.6765826791524887, 1.4884819090366364 m3.3829134702682495, 8.254309296607971 l-2.435697764158249, 1.4884819090366364 -2.029748111963272, 2.706330716609955 l-0.5412661656737328, 1.4884819090366364 0.0, 3.6535465717315674 l0.5412661656737328, 1.3531653583049774 1.6237984597682953, 2.029748111963272 l1.3531653583049774, 0.9472157806158066 1.8944315612316132, 0.2706330828368664 m1.7591150104999542, -15.426086187362671 l1.0825323313474655, -0.1353165414184332 1.3531653583049774, 0.5412661656737328 l2.8416472673416138, 2.029748111963272 1.3531653583049774, 2.029748111963272 l0.0, 2.706330716609955 -1.0825323313474655, 3.2475969195365906 l-1.2178488820791245, 1.6237984597682953 -5.277345180511475, 2.9769638180732727 l-2.029748111963272, 0.5412661656737328 " fill="none" stroke="black" stroke-width="1" /></svg>