<?xml version="1.0" encoding="utf-8" ?>
<svg baseProfile="full" height="34.76292667910457" version="1.1" width="38.68710623122752" xmlns="http://www.w3.org/2000/svg" xmlns:ev="http://www.w3.org/2001/xml-events" xmlns:xlink="http://www.w3.org/1999/xlink"><defs /><rect fill="white" height="34.76292667910457" width="38.68710623122752" x="0" y="0" /><path d="M9.465445894747972, 23.403049241751432 m-1.0825323313474655, -0.9472157806158066 l-0.6765826791524887, -1.3531653583049774 -0.2706330828368664, -2.029748111963272 l1.8944315612316132, -4.60076242685318 3.3829134702682495, -2.9769638180732727 l4.60076242685318, -1.7591150104999542 4.60076242685318, 0.0 l3.6535465717315674, 1.3531653583049774 1.3531653583049774, 1.0825323313474655 l2.029748111963272, 2.9769638180732727 1.0825323313474655, 5.5479782819747925 l-0.8118992298841476, 3.9241796731948853 -2.435697764158249, 3.1122803688049316 l-1.7591150104999542, 0.9472157806158066 -4.60076242685318, 1.0825323313474655 l-2.706330716609955, 0.0 -5.277345180511475, -0.9472157806158066 l-3.9241796731948853, -2.8416472673416138 -2.30038121342659, -4.059496223926544 l0.0, -2.165064662694931 m2.165064662694931, -3.5182300209999084 l-2.165064662694931, -0.6765826791524887 -0.8118992298841476, -1.0825323313474655 l-0.4059496149420738, -1.6237984597682953 0.1353165414184332, -3.3829134702682495 l1.6237984597682953, -2.9769638180732727 1.4884819090366364, -1.2178488820791245 l2.706330716609955, -0.2706330828368664 1.7591150104999542, 0.6765826791524887 l1.7591150104999542, 1.4884819090366364 0.1353165414184332, 1.6237984597682953 m8.930891752243042, 0.0 l-0.4059496149420738, -0.5412661656737328 0.1353165414184332, -0.6765826791524887 l0.9472157806158066, -0.9472157806158066 2.571014165878296, -1.2178488820791245 l3.1122803688049316, 0.0 2.571014165878296, 1.7591150104999542 l1.2178488820791245, 2.8416472673416138 -0.9472157806158066, 2.029748111963272 l-2.165064662694931, 1.0825323313474655 -2.435697764158249, 0.2706330828368664 m-2.9769638180732727, -4.194812774658203 l0.4059496149420738, -1.2178488820791245 1.2178488820791245, -0.6765826791524887 l1.4884819090366364, -0.2706330828368664 1.2178488820791245, 0.6765826791524887 l0.4059496149420738, 0.6765826791524887 -0.1353165414184332, 1.4884819090366364 l-2.706330716609955, 2.30038121342659 m-17.591150999069214, 0.4059496149420738 l-2.30038121342659, 0.0 -0.5412661656737328, -1.6237984597682953 l1.2178488820791245, -2.571014165878296 1.8944315612316132, -1.7591150104999542 l0.9472157806158066, -0.2706330828368664 1.7591150104999542, 0.4059496149420738 l1.4884819090366364, 3.1122803688049316 m0.1353165414184332, 7.7130430936813354 l1.0825323313474655, -1.0825323313474655 0.5412661656737328, 0.6765826791524887 l-0.2706330828368664, 1.0825323313474655 -0.8118992298841476, 0.0 l-0.5412661656737328, -1.8944315612316132 0.1353165414184332, -0.5412661656737328 l0.8118992298841476, -0.1353165414184332 0.5412661656737328, 0.2706330828368664 m8.254309296607971, 0.5412661656737328 l0.1353165414184332, 0.6765826791524887 -0.6765826791524887, 0.6765826791524887 l-0.6765826791524887, 0.1353165414184332 " fill="none" stroke="black" stroke-width="1" /></svg>