<?xml version="1.0" encoding="utf-8" ?>
<svg baseProfile="full" height="61.42028427682817" version="1.1" width="92.81372278928757" xmlns="http://www.w3.org/2000/svg" xmlns:ev="http://www.w3.org/2001/xml-events" xmlns:xlink="http://www.w3.org/1999/xlink"><defs /><rect fill="white" height="61.42028427682817" width="92.81372278928757" x="0" y="0" /><path d="M75.36460162140429, 7.976964116096497 m-5.5479782819747925, 0.4059496149420738 l-11.095956563949585, 2.435697764158249 -3.2475969195365906, 1.3531653583049774 l-5.006712079048157, 3.3829134702682495 -4.465445876121521, 5.6832945346832275 l-1.3531653583049774, 4.059496223926544 0.5412661656737328, 3.7888631224632263 l1.4884819090366364, 2.30038121342659 2.435697764158249, 1.6237984597682953 l3.7888631224632263, 1.3531653583049774 6.359877586364746, 0.4059496149420738 l6.089244484901428, -0.6765826791524887 3.9241796731948853, -1.0825323313474655 l3.7888631224632263, -1.8944315612316132 5.142028331756592, -3.3829134702682495 l2.9769638180732727, -2.8416472673416138 3.6535465717315674, -5.5479782819747925 l0.8118992298841476, -4.059496223926544 -0.5412661656737328, -3.3829134702682495 l-1.3531653583049774, -2.165064662694931 -4.194812774658203, -3.5182300209999084 l-3.3829134702682495, -1.2178488820791245 -3.2475969195365906, 0.8118992298841476 m-16.237984895706177, 25.845458507537842 l-0.4059496149420738, -1.0825323313474655 0.2706330828368664, -10.690007209777832 l0.6765826791524887, 0.2706330828368664 0.9472157806158066, 1.6237984597682953 l3.5182300209999084, 12.449121475219727 1.0825323313474655, -0.2706330828368664 l1.3531653583049774, -3.6535465717315674 -0.1353165414184332, -3.1122803688049316 l-1.0825323313474655, -3.1122803688049316 1.8944315612316132, 2.706330716609955 l3.5182300209999084, 6.630510687828064 0.8118992298841476, -0.5412661656737328 l0.6765826791524887, -2.706330716609955 0.0, -2.8416472673416138 l-1.0825323313474655, -9.336841106414795 0.6765826791524887, 0.2706330828368664 l2.165064662694931, 4.059496223926544 3.7888631224632263, 5.5479782819747925 l2.30038121342659, 0.8118992298841476 2.8416472673416138, -1.0825323313474655 l1.4884819090366364, -2.029748111963272 0.5412661656737328, -3.6535465717315674 l-1.8944315612316132, -5.277345180511475 -2.029748111963272, -2.029748111963272 l2.30038121342659, 6.224560737609863 2.435697764158249, 4.871395528316498 l1.4884819090366364, 1.8944315612316132 1.2178488820791245, 0.8118992298841476 l1.7591150104999542, 0.1353165414184332 m-34.23508405685425, -15.155452489852905 l-0.6765826791524887, -0.1353165414184332 -0.8118992298841476, -0.9472157806158066 l-1.2178488820791245, -2.706330716609955 6.089244484901428, 2.029748111963272 m-5.5479782819747925, 3.7888631224632263 l-6.089244484901428, -0.1353165414184332 -3.6535465717315674, 0.5412661656737328 l-18.40304970741272, 4.60076242685318 -8.524942398071289, 3.2475969195365906 l-3.9241796731948853, 2.30038121342659 -2.435697764158249, 2.165064662694931 l-2.30038121342659, 3.3829134702682495 -1.0825323313474655, 4.736078977584839 l0.5412661656737328, 2.165064662694931 0.8118992298841476, 1.0825323313474655 l2.706330716609955, 2.165064662694931 1.4884819090366364, 0.1353165414184332 l7.983676195144653, -1.7591150104999542 19.48558211326599, -6.089244484901428 l13.531653881072998, -3.6535465717315674 5.81861138343811, -0.8118992298841476 l5.142028331756592, -0.1353165414184332 m-43.165974617004395, 9.607474207878113 l-0.8118992298841476, 4.465445876121521 0.0, 5.277345180511475 l0.6765826791524887, 2.8416472673416138 1.3531653583049774, 2.8416472673416138 l1.7591150104999542, 1.3531653583049774 2.165064662694931, 0.6765826791524887 l0.8118992298841476, -0.1353165414184332 1.7591150104999542, -1.6237984597682953 l0.8118992298841476, -2.435697764158249 0.2706330828368664, -3.2475969195365906 l-0.2706330828368664, -3.5182300209999084 -1.2178488820791245, -3.5182300209999084 l-1.3531653583049774, -2.029748111963272 -1.8944315612316132, -1.3531653583049774 " fill="none" stroke="black" stroke-width="1" /></svg>