<?xml version="1.0" encoding="utf-8" ?>
<svg baseProfile="full" height="102.55651319399476" version="1.1" width="77.52295216545463" xmlns="http://www.w3.org/2000/svg" xmlns:ev="http://www.w3.org/2001/xml-events" xmlns:xlink="http://www.w3.org/1999/xlink"><defs /><rect fill="white" height="102.55651319399476" width="77.52295216545463" x="0" y="0" /><path d="M28.81571002304554, 93.0910659674555 m0.1353165414184332, -9.87810730934143 l1.8944315612316132, -10.419373512268066 2.029748111963272, -5.953927636146545 l1.8944315612316132, -3.5182300209999084 2.029748111963272, -2.30038121342659 l2.029748111963272, -1.2178488820791245 2.029748111963272, 1.3531653583049774 l1.4884819090366364, 2.706330716609955 1.0825323313474655, 3.3829134702682495 l0.0, 3.6535465717315674 -2.165064662694931, 23.545079231262207 m-10.82532286643982, -1.2178488820791245 l-3.1122803688049316, 0.5412661656737328 -7.036460041999817, -0.2706330828368664 l-1.4884819090366364, -0.5412661656737328 -1.0825323313474655, -1.4884819090366364 l-0.9472157806158066, -3.9241796731948853 -0.5412661656737328, -7.983676195144653 l-0.1353165414184332, -18.132416009902954 0.4059496149420738, -4.736078977584839 l0.9472157806158066, -2.165064662694931 2.30038121342659, -3.1122803688049316 l3.2475969195365906, -2.8416472673416138 3.5182300209999084, -1.8944315612316132 l4.059496223926544, -1.4884819090366364 6.089244484901428, -1.2178488820791245 l12.449121475219727, -0.8118992298841476 8.795575499534607, 0.8118992298841476 l8.660258650779724, 2.571014165878296 2.435697764158249, 1.4884819090366364 l2.029748111963272, 2.029748111963272 1.2178488820791245, 2.9769638180732727 l0.1353165414184332, 2.435697764158249 -0.4059496149420738, 2.8416472673416138 l-1.6237984597682953, 5.41266143321991 -6.359877586364746, 17.185200452804565 l-0.1353165414184332, 2.30038121342659 0.6765826791524887, 5.142028331756592 l-0.9472157806158066, 1.6237984597682953 -4.330129325389862, 3.1122803688049316 l-4.465445876121521, 1.3531653583049774 -6.495193839073181, 0.1353165414184332 l-5.142028331756592, -1.0825323313474655 m-18.808999061584473, -51.01433753967285 l-0.8118992298841476, -2.029748111963272 -1.4884819090366364, -1.7591150104999542 l-2.9769638180732727, -1.2178488820791245 -4.60076242685318, 0.2706330828368664 l-5.006712079048157, 2.435697764158249 -2.571014165878296, 2.8416472673416138 l-1.4884819090366364, 3.5182300209999084 -0.4059496149420738, 3.3829134702682495 l1.6237984597682953, 4.330129325389862 2.029748111963272, 1.2178488820791245 l3.3829134702682495, 0.2706330828368664 3.6535465717315674, -1.0825323313474655 l4.330129325389862, -2.8416472673416138 2.706330716609955, -4.059496223926544 l0.9472157806158066, -2.9769638180732727 -0.1353165414184332, -2.029748111963272 l-1.2178488820791245, -2.029748111963272 m21.380014419555664, 51.28497123718262 l-1.2178488820791245, 4.60076242685318 2.571014165878296, -1.7591150104999542 l0.6765826791524887, 0.4059496149420738 1.2178488820791245, 2.30038121342659 l1.6237984597682953, -0.5412661656737328 3.5182300209999084, -2.9769638180732727 l0.6765826791524887, 0.0 2.435697764158249, 1.6237984597682953 l3.2475969195365906, -1.0825323313474655 m5.5479782819747925, -2.706330716609955 l0.4059496149420738, 0.2706330828368664 m-45.060410499572754, -2.571014165878296 l-1.4884819090366364, 2.706330716609955 -1.0825323313474655, 3.2475969195365906 l1.3531653583049774, -0.8118992298841476 2.706330716609955, 1.7591150104999542 l3.5182300209999084, -0.1353165414184332 m18.67368221282959, -55.07383346557617 l-3.9241796731948853, -11.366589069366455 -4.059496223926544, -7.8483593463897705 l-7.307093143463135, -11.90785527229309 1.7591150104999542, -0.9472157806158066 l3.3829134702682495, -0.9472157806158066 2.9769638180732727, -0.1353165414184332 l2.9769638180732727, 0.5412661656737328 2.9769638180732727, 2.435697764158249 l1.6237984597682953, 3.3829134702682495 3.2475969195365906, 15.426086187362671 l1.8944315612316132, 6.901143789291382 2.8416472673416138, 7.8483593463897705 l1.0825323313474655, 1.8944315612316132 m-27.875206470489502, -37.48268127441406 l0.6765826791524887, -2.9769638180732727 0.6765826791524887, -0.2706330828368664 l0.5412661656737328, 0.4059496149420738 m4.736078977584839, 3.3829134702682495 l2.571014165878296, -3.6535465717315674 0.6765826791524887, -0.4059496149420738 l1.7591150104999542, 0.2706330828368664 m0.6765826791524887, 0.1353165414184332 l0.6765826791524887, 0.1353165414184332 2.9769638180732727, -1.0825323313474655 l1.8944315612316132, 1.6237984597682953 m17.591150999069214, 43.43660831451416 l-0.1353165414184332, -10.013424158096313 2.9769638180732727, -17.7264666557312 l1.7591150104999542, -5.5479782819747925 2.165064662694931, -3.3829134702682495 l1.4884819090366364, -1.3531653583049774 1.3531653583049774, -0.8118992298841476 l1.6237984597682953, -0.1353165414184332 0.8118992298841476, 0.9472157806158066 l0.4059496149420738, 2.165064662694931 -0.4059496149420738, 7.8483593463897705 l-3.7888631224632263, 22.462546825408936 m-1.6237984597682953, -28.551790714263916 l-2.165064662694931, -2.706330716609955 -1.6237984597682953, -2.9769638180732727 l-0.6765826791524887, -2.029748111963272 -0.1353165414184332, -3.1122803688049316 " fill="none" stroke="black" stroke-width="1" /></svg>