<?xml version="1.0" encoding="utf-8" ?>
<svg baseProfile="full" height="87.53637766465545" version="1.1" width="73.86940637603402" xmlns="http://www.w3.org/2000/svg" xmlns:ev="http://www.w3.org/2001/xml-events" xmlns:xlink="http://www.w3.org/1999/xlink"><defs /><rect fill="white" height="87.53637766465545" width="73.86940637603402" x="0" y="0" /><path d="M27.86849551834166, 18.12570027075708 m-1.4884819090366364, 5.5479782819747925 l-2.029748111963272, 11.772539615631104 -0.5412661656737328, 13.261021375656128 l0.1353165414184332, 2.9769638180732727 0.6765826791524887, 2.8416472673416138 l2.30038121342659, 4.871395528316498 1.8944315612316132, 1.7591150104999542 l2.029748111963272, 1.3531653583049774 2.706330716609955, 0.8118992298841476 l6.089244484901428, 0.4059496149420738 3.1122803688049316, -0.2706330828368664 l3.1122803688049316, -1.2178488820791245 3.1122803688049316, -2.029748111963272 l2.435697764158249, -2.30038121342659 3.5182300209999084, -5.81861138343811 l0.8118992298841476, -2.8416472673416138 0.2706330828368664, -6.765826940536499 l-2.029748111963272, -7.307093143463135 -1.7591150104999542, -3.9241796731948853 l-4.194812774658203, -6.224560737609863 -2.571014165878296, -2.571014165878296 l-2.706330716609955, -1.8944315612316132 -8.118992447853088, -3.1122803688049316 l-5.5479782819747925, -0.4059496149420738 -0.8118992298841476, 0.5412661656737328 l0.0, 0.8118992298841476 m0.4059496149420738, 0.6765826791524887 l-5.006712079048157, 3.7888631224632263 -7.307093143463135, 7.307093143463135 l-8.660258650779724, 11.095956563949585 -2.435697764158249, 4.330129325389862 l-0.2706330828368664, 2.9769638180732727 4.059496223926544, -0.1353165414184332 l2.706330716609955, -1.4884819090366364 5.953927636146545, -4.736078977584839 l5.6832945346832275, -7.036460041999817 5.6832945346832275, -10.284056663513184 l0.2706330828368664, -4.330129325389862 -1.0825323313474655, -1.3531653583049774 m7.036460041999817, -0.9472157806158066 l4.465445876121521, 4.330129325389862 5.6832945346832275, 7.1717768907547 l3.5182300209999084, 3.5182300209999084 3.9241796731948853, 2.706330716609955 l4.059496223926544, 1.6237984597682953 4.871395528316498, 0.2706330828368664 l2.435697764158249, -0.5412661656737328 2.9769638180732727, -2.571014165878296 l1.2178488820791245, -2.029748111963272 0.4059496149420738, -1.7591150104999542 l-0.1353165414184332, -4.330129325389862 -3.3829134702682495, -3.7888631224632263 l-5.006712079048157, -2.8416472673416138 -6.089244484901428, -2.029748111963272 l-7.442409992218018, -1.7591150104999542 -3.7888631224632263, -0.4059496149420738 l-0.6765826791524887, 0.2706330828368664 m-10.55469036102295, 46.95484161376953 l-2.165064662694931, 6.224560737609863 -1.2178488820791245, 5.277345180511475 l-0.4059496149420738, 6.495193839073181 0.1353165414184332, 0.9472157806158066 l0.8118992298841476, 0.5412661656737328 3.7888631224632263, -0.4059496149420738 l2.029748111963272, -1.4884819090366364 1.6237984597682953, -1.8944315612316132 l1.2178488820791245, -2.30038121342659 0.6765826791524887, -1.8944315612316132 l0.0, -5.41266143321991 -1.8944315612316132, -6.089244484901428 m9.336841106414795, -4.330129325389862 l-0.1353165414184332, 1.4884819090366364 2.30038121342659, 8.795575499534607 l1.2178488820791245, 2.8416472673416138 1.3531653583049774, 1.8944315612316132 l1.6237984597682953, 1.0825323313474655 1.3531653583049774, 0.2706330828368664 l3.2475969195365906, -0.2706330828368664 2.8416472673416138, -2.8416472673416138 l0.6765826791524887, -1.7591150104999542 0.1353165414184332, -2.029748111963272 l0.0, -2.029748111963272 -0.6765826791524887, -1.8944315612316132 l-1.3531653583049774, -2.029748111963272 -10.284056663513184, -8.118992447853088 m-23.003811836242676, -35.72356700897217 l-0.4059496149420738, -1.2178488820791245 0.0, -2.9769638180732727 l0.8118992298841476, -2.9769638180732727 1.8944315612316132, -2.571014165878296 l2.706330716609955, -1.3531653583049774 6.901143789291382, 0.0 l3.9241796731948853, 1.3531653583049774 3.5182300209999084, 2.8416472673416138 l0.2706330828368664, 2.706330716609955 -1.3531653583049774, 1.7591150104999542 l-4.194812774658203, 2.706330716609955 -2.571014165878296, 0.8118992298841476 l-4.330129325389862, 0.2706330828368664 -2.165064662694931, -0.4059496149420738 l-1.7591150104999542, -0.9472157806158066 -5.277345180511475, -3.9241796731948853 l-0.5412661656737328, -1.3531653583049774 3.7888631224632263, -0.2706330828368664 m3.6535465717315674, -0.2706330828368664 l0.0, 0.0 m6.495193839073181, 0.0 l0.0, 0.0 m-4.871395528316498, -2.8416472673416138 l0.0, 0.0 m0.0, 1.4884819090366364 l0.0, 0.0 m5.142028331756592, -0.2706330828368664 l0.4059496149420738, 0.0 m-7.442409992218018, 1.4884819090366364 l0.0, 0.0 m0.2706330828368664, -0.8118992298841476 l1.0825323313474655, 2.029748111963272 -0.2706330828368664, -0.9472157806158066 m-2.435697764158249, 2.571014165878296 l2.9769638180732727, 0.0 4.736078977584839, 1.0825323313474655 l6.901143789291382, 0.2706330828368664 m-19.48558211326599, -4.871395528316498 l-0.4059496149420738, -3.7888631224632263 1.3531653583049774, -1.6237984597682953 l1.6237984597682953, -0.4059496149420738 0.5412661656737328, 3.9241796731948853 m9.742791056632996, -2.8416472673416138 l4.736078977584839, -1.6237984597682953 3.6535465717315674, -0.4059496149420738 l0.6765826791524887, 0.2706330828368664 -0.4059496149420738, 2.029748111963272 l-1.7591150104999542, 1.4884819090366364 " fill="none" stroke="black" stroke-width="1" /></svg>