<?xml version="1.0" encoding="utf-8" ?>
<svg baseProfile="full" height="49.783062962815166" version="1.1" width="61.2849691696465" xmlns="http://www.w3.org/2000/svg" xmlns:ev="http://www.w3.org/2001/xml-events" xmlns:xlink="http://www.w3.org/1999/xlink"><defs /><rect fill="white" height="49.783062962815166" width="61.2849691696465" x="0" y="0" /><path d="M25.162164606153965, 14.742791103199124 m-8.389625549316406, 0.2706330828368664 l-3.9241796731948853, 1.4884819090366364 -4.465445876121521, 3.1122803688049316 l-1.6237984597682953, 2.435697764158249 -1.2178488820791245, 5.81861138343811 l-0.5412661656737328, 5.006712079048157 0.1353165414184332, 5.41266143321991 l0.2706330828368664, 0.8118992298841476 2.029748111963272, 1.7591150104999542 l6.630510687828064, 3.1122803688049316 5.277345180511475, 0.8118992298841476 l11.501905918121338, 0.0 3.5182300209999084, -1.0825323313474655 l2.029748111963272, -1.2178488820791245 4.871395528316498, -4.059496223926544 l1.3531653583049774, -2.029748111963272 1.0825323313474655, -2.435697764158249 l0.0, -9.472157955169678 -1.8944315612316132, -4.059496223926544 l-3.9241796731948853, -2.9769638180732727 -4.194812774658203, -1.4884819090366364 l-7.983676195144653, -1.3531653583049774 m14.3435537815094, 2.435697764158249 l0.2706330828368664, -4.871395528316498 0.8118992298841476, -1.3531653583049774 l2.165064662694931, -1.4884819090366364 1.6237984597682953, -0.5412661656737328 l4.60076242685318, 0.0 5.41266143321991, 4.330129325389862 l1.2178488820791245, 2.571014165878296 0.1353165414184332, 3.2475969195365906 l-0.4059496149420738, 0.8118992298841476 -2.9769638180732727, 2.435697764158249 l-6.630510687828064, 2.706330716609955 m-35.72356700897217, -6.089244484901428 l0.1353165414184332, -3.2475969195365906 -1.6237984597682953, -5.41266143321991 l0.0, -2.8416472673416138 1.4884819090366364, -1.0825323313474655 l3.2475969195365906, -1.0825323313474655 3.6535465717315674, -0.1353165414184332 l2.571014165878296, 1.6237984597682953 4.871395528316498, 5.142028331756592 l0.5412661656737328, 1.4884819090366364 -0.1353165414184332, 2.029748111963272 m-1.8944315612316132, 14.749503135681152 l-0.1353165414184332, 1.2178488820791245 1.0825323313474655, 1.4884819090366364 l2.029748111963272, 0.6765826791524887 0.4059496149420738, -0.9472157806158066 l-0.4059496149420738, -2.30038121342659 -1.8944315612316132, -2.165064662694931 l-1.3531653583049774, -0.6765826791524887 -0.8118992298841476, 0.0 l-0.5412661656737328, 0.6765826791524887 1.7591150104999542, 1.6237984597682953 m-0.4059496149420738, 2.30038121342659 l-4.330129325389862, 2.165064662694931 -1.3531653583049774, 0.1353165414184332 l-1.2178488820791245, -0.5412661656737328 m8.795575499534607, -0.2706330828368664 l1.6237984597682953, 0.0 3.2475969195365906, 1.4884819090366364 l3.6535465717315674, 0.0 0.8118992298841476, -0.5412661656737328 m-16.102668046951294, -11.366589069366455 " fill="none" stroke="black" stroke-width="1" /></svg>