<?xml version="1.0" encoding="utf-8" ?>
<svg baseProfile="full" height="51.67749475687742" version="1.1" width="55.466357320547104" xmlns="http://www.w3.org/2000/svg" xmlns:ev="http://www.w3.org/2001/xml-events" xmlns:xlink="http://www.w3.org/1999/xlink"><defs /><rect fill="white" height="51.67749475687742" width="55.466357320547104" x="0" y="0" /><path d="M42.212048852816224, 23.132415935397148 m-6.359877586364746, -1.7591150104999542 l-7.577726244926453, -1.0825323313474655 -1.2178488820791245, -0.6765826791524887 m0.0, 0.8118992298841476 l0.0, 10.55469036102295 3.3829134702682495, -4.736078977584839 l0.5412661656737328, 3.7888631224632263 0.8118992298841476, 0.1353165414184332 l3.2475969195365906, -2.435697764158249 0.5412661656737328, 3.5182300209999084 l0.6765826791524887, -0.1353165414184332 2.571014165878296, -2.435697764158249 l1.7591150104999542, -0.6765826791524887 0.6765826791524887, 4.194812774658203 l0.6765826791524887, 0.4059496149420738 m0.1353165414184332, -0.1353165414184332 l4.059496223926544, -5.6832945346832275 0.5412661656737328, -2.706330716609955 l-0.4059496149420738, -0.8118992298841476 -1.3531653583049774, -0.2706330828368664 m1.3531653583049774, 1.0825323313474655 l2.029748111963272, 0.1353165414184332 0.6765826791524887, -0.4059496149420738 l0.6765826791524887, -0.6765826791524887 0.8118992298841476, -2.165064662694931 l-0.1353165414184332, -3.5182300209999084 -0.4059496149420738, -0.6765826791524887 l-1.7591150104999542, -0.1353165414184332 m0.6765826791524887, 0.0 l-0.5412661656737328, -1.4884819090366364 -4.465445876121521, -2.029748111963272 l-3.6535465717315674, -0.8118992298841476 -6.630510687828064, -0.5412661656737328 m8.795575499534607, 0.1353165414184332 l-0.9472157806158066, -1.6237984597682953 -1.6237984597682953, -1.2178488820791245 l-7.8483593463897705, -3.7888631224632263 -7.442409992218018, -0.2706330828368664 l-1.6237984597682953, 0.5412661656737328 -2.8416472673416138, 1.6237984597682953 l-1.7591150104999542, 2.8416472673416138 -0.5412661656737328, 1.7591150104999542 l-0.4059496149420738, 2.435697764158249 0.1353165414184332, 3.3829134702682495 l2.165064662694931, 7.1717768907547 m-0.9472157806158066, -1.8944315612316132 l-1.0825323313474655, 3.3829134702682495 -1.3531653583049774, 2.029748111963272 l-5.142028331756592, 4.736078977584839 -4.330129325389862, 5.277345180511475 l-1.7591150104999542, 2.9769638180732727 m21.65064573287964, -5.953927636146545 l-4.871395528316498, 6.765826940536499 -1.7591150104999542, 4.60076242685318 m6.765826940536499, -10.690007209777832 l0.5412661656737328, 2.435697764158249 0.8118992298841476, 0.0 l1.7591150104999542, -3.5182300209999084 1.2178488820791245, -1.0825323313474655 l0.1353165414184332, 4.871395528316498 3.6535465717315674, -2.435697764158249 l0.8118992298841476, 1.8944315612316132 0.9472157806158066, 0.1353165414184332 l2.029748111963272, -1.3531653583049774 1.6237984597682953, -0.4059496149420738 l0.2706330828368664, 1.3531653583049774 0.8118992298841476, 0.1353165414184332 l1.0825323313474655, -1.2178488820791245 m0.8118992298841476, -1.8944315612316132 l0.4059496149420738, 6.630510687828064 -0.9472157806158066, 2.165064662694931 l-1.2178488820791245, 1.2178488820791245 -4.465445876121521, 0.2706330828368664 l-6.359877586364746, -2.435697764158249 -6.224560737609863, -3.2475969195365906 " fill="none" stroke="black" stroke-width="1" /></svg>