<?xml version="1.0" encoding="utf-8" ?>
<svg baseProfile="full" height="64.39724977128208" version="1.1" width="46.53546563349664" xmlns="http://www.w3.org/2000/svg" xmlns:ev="http://www.w3.org/2001/xml-events" xmlns:xlink="http://www.w3.org/1999/xlink"><defs /><rect fill="white" height="64.39724977128208" width="46.53546563349664" x="0" y="0" /><path d="M25.703430445864797, 6.894431887194514 m-2.571014165878296, -0.6765826791524887 l-2.9769638180732727, 0.8118992298841476 -2.571014165878296, 1.3531653583049774 l-1.3531653583049774, 2.571014165878296 0.1353165414184332, 2.571014165878296 l2.165064662694931, 4.194812774658203 3.3829134702682495, 2.706330716609955 l3.1122803688049316, 0.6765826791524887 1.3531653583049774, -0.4059496149420738 l1.7591150104999542, -2.8416472673416138 0.5412661656737328, -4.465445876121521 l-0.2706330828368664, -2.9769638180732727 -1.0825323313474655, -2.165064662694931 l-2.706330716609955, -2.165064662694931 -2.571014165878296, -0.5412661656737328 l-2.165064662694931, 1.3531653583049774 m5.41266143321991, 0.1353165414184332 l0.0, -0.5412661656737328 1.4884819090366364, -1.2178488820791245 l0.6765826791524887, -0.2706330828368664 0.5412661656737328, 0.4059496149420738 l-0.8118992298841476, 1.7591150104999542 -1.0825323313474655, 0.4059496149420738 l-0.8118992298841476, -0.2706330828368664 -0.5412661656737328, -0.8118992298841476 l0.1353165414184332, -0.6765826791524887 0.5412661656737328, -0.2706330828368664 m-6.630510687828064, 3.5182300209999084 l-1.6237984597682953, -2.165064662694931 -1.4884819090366364, -0.1353165414184332 l-1.7591150104999542, 1.3531653583049774 -0.8118992298841476, 2.165064662694931 l0.1353165414184332, 0.5412661656737328 0.9472157806158066, 0.4059496149420738 l2.435697764158249, -1.3531653583049774 m1.6237984597682953, 8.795575499534607 l-0.8118992298841476, -0.2706330828368664 -0.9472157806158066, 0.4059496149420738 l-3.1122803688049316, 2.8416472673416138 -2.8416472673416138, 3.5182300209999084 l-1.8944315612316132, 3.6535465717315674 -1.8944315612316132, 6.359877586364746 l0.0, 4.059496223926544 0.8118992298841476, 4.736078977584839 l3.7888631224632263, 8.118992447853088 4.059496223926544, 4.736078977584839 l2.9769638180732727, 1.7591150104999542 2.706330716609955, 0.8118992298841476 l4.871395528316498, -0.1353165414184332 2.706330716609955, -0.8118992298841476 l5.006712079048157, -2.8416472673416138 2.706330716609955, -2.706330716609955 l1.8944315612316132, -2.571014165878296 1.3531653583049774, -2.8416472673416138 l1.2178488820791245, -4.194812774658203 0.5412661656737328, -3.3829134702682495 l0.1353165414184332, -5.41266143321991 -1.0825323313474655, -5.953927636146545 l-2.706330716609955, -5.277345180511475 -2.9769638180732727, -3.7888631224632263 l-4.059496223926544, -3.6535465717315674 -2.029748111963272, -0.8118992298841476 l-1.0825323313474655, 0.1353165414184332 m-2.8416472673416138, -1.6237984597682953 l0.0, -0.9472157806158066 -0.9472157806158066, 0.0 m-3.9241796731948853, 2.165064662694931 l-0.5412661656737328, -0.4059496149420738 -0.1353165414184332, 0.8118992298841476 l0.6765826791524887, 0.8118992298841476 m2.706330716609955, 1.4884819090366364 l1.2178488820791245, 0.4059496149420738 0.0, -0.6765826791524887 l-0.4059496149420738, 0.0 m-4.871395528316498, 13.125704526901245 l0.4059496149420738, 10.419373512268066 1.0825323313474655, 8.118992447853088 l1.2178488820791245, 2.165064662694931 1.8944315612316132, 0.0 l2.571014165878296, -1.7591150104999542 1.6237984597682953, -1.8944315612316132 l2.165064662694931, -4.871395528316498 0.9472157806158066, -5.953927636146545 l0.0, -10.419373512268066 m-12.043172121047974, 12.855072021484375 l5.277345180511475, -0.8118992298841476 5.6832945346832275, -1.8944315612316132 l1.3531653583049774, -0.5412661656737328 -0.9472157806158066, 0.1353165414184332 l-4.059496223926544, 1.4884819090366364 m-12.449121475219727, -14.749503135681152 l-0.8118992298841476, -0.6765826791524887 -5.142028331756592, 0.9472157806158066 l-1.7591150104999542, 0.6765826791524887 -0.5412661656737328, 1.2178488820791245 l0.0, 0.6765826791524887 1.0825323313474655, 1.2178488820791245 l2.706330716609955, 0.5412661656737328 2.9769638180732727, -0.1353165414184332 " fill="none" stroke="black" stroke-width="1" /></svg>