<?xml version="1.0" encoding="utf-8" ?>
<svg baseProfile="full" height="90.37802550941706" version="1.1" width="89.02485992759466" xmlns="http://www.w3.org/2000/svg" xmlns:ev="http://www.w3.org/2001/xml-events" xmlns:xlink="http://www.w3.org/1999/xlink"><defs /><rect fill="white" height="90.37802550941706" width="89.02485992759466" x="0" y="0" /><path d="M54.25522044301033, 10.006713680922985 m-13.937603235244751, -3.5182300209999084 l-3.1122803688049316, 0.0 -9.336841106414795, 6.359877586364746 l-2.029748111963272, 1.7591150104999542 -1.2178488820791245, 1.7591150104999542 l-1.4884819090366364, 4.871395528316498 0.0, 3.3829134702682495 l0.4059496149420738, 1.7591150104999542 1.6237984597682953, 3.1122803688049316 l1.4884819090366364, 1.7591150104999542 4.194812774658203, 3.2475969195365906 l9.336841106414795, 3.6535465717315674 6.901143789291382, 0.1353165414184332 l6.089244484901428, -1.8944315612316132 2.435697764158249, -1.2178488820791245 l2.706330716609955, -2.029748111963272 3.1122803688049316, -3.6535465717315674 l2.706330716609955, -6.765826940536499 0.2706330828368664, -4.194812774658203 l-0.9472157806158066, -4.194812774658203 -1.2178488820791245, -2.435697764158249 l-1.7591150104999542, -1.3531653583049774 -2.165064662694931, -0.1353165414184332 m-23.13912868499756, 26.79267406463623 l-1.6237984597682953, 1.0825323313474655 -0.9472157806158066, 1.2178488820791245 l-2.435697764158249, 4.465445876121521 -4.330129325389862, 12.449121475219727 l-1.8944315612316132, 9.87810730934143 -0.4059496149420738, 5.6832945346832275 l0.1353165414184332, 6.630510687828064 1.7591150104999542, 3.1122803688049316 l4.871395528316498, 2.30038121342659 2.029748111963272, 0.6765826791524887 l5.41266143321991, 0.6765826791524887 4.330129325389862, 0.0 l2.571014165878296, -0.9472157806158066 2.165064662694931, -1.6237984597682953 l6.495193839073181, -7.983676195144653 2.706330716609955, -5.5479782819747925 l1.7591150104999542, -5.81861138343811 0.5412661656737328, -3.6535465717315674 l-0.1353165414184332, -9.20152485370636 -1.7591150104999542, -9.336841106414795 l-1.3531653583049774, -3.6535465717315674 -4.736078977584839, -2.165064662694931 m6.901143789291382, 2.9769638180732727 l-0.2706330828368664, -4.059496223926544 2.571014165878296, -3.6535465717315674 l3.1122803688049316, -2.435697764158249 12.719755172729492, -7.307093143463135 l1.7591150104999542, -0.5412661656737328 6.901143789291382, 2.9769638180732727 l-1.2178488820791245, 2.706330716609955 -2.9769638180732727, 2.9769638180732727 l-2.8416472673416138, 0.4059496149420738 -2.30038121342659, 0.9472157806158066 l-3.6535465717315674, 2.435697764158249 -10.284056663513184, 4.871395528316498 l-3.6535465717315674, 3.5182300209999084 m-24.492294788360596, -2.8416472673416138 l-0.8118992298841476, -2.029748111963272 -4.465445876121521, -5.953927636146545 l-2.165064662694931, -2.165064662694931 -2.706330716609955, -2.30038121342659 l-7.036460041999817, -3.6535465717315674 -8.389625549316406, -0.2706330828368664 l-1.6237984597682953, 0.6765826791524887 -0.4059496149420738, 1.6237984597682953 l1.3531653583049774, 3.5182300209999084 3.3829134702682495, 1.8944315612316132 l10.284056663513184, 2.029748111963272 1.6237984597682953, 0.8118992298841476 l2.9769638180732727, 2.435697764158249 2.029748111963272, 2.30038121342659 l0.5412661656737328, -0.4059496149420738 m6.224560737609863, -20.974063873291016 l2.8416472673416138, 1.3531653583049774 2.571014165878296, 0.5412661656737328 l7.577726244926453, -1.8944315612316132 5.142028331756592, -0.8118992298841476 m-15.155452489852905, 2.435697764158249 l-1.7591150104999542, 1.0825323313474655 -0.6765826791524887, 1.0825323313474655 l0.0, 0.8118992298841476 0.6765826791524887, -0.4059496149420738 l1.6237984597682953, -1.4884819090366364 0.1353165414184332, -0.6765826791524887 l-0.5412661656737328, 0.9472157806158066 0.4059496149420738, 0.2706330828368664 m6.630510687828064, -2.165064662694931 l0.0, 2.30038121342659 0.5412661656737328, -1.6237984597682953 l0.0, 1.4884819090366364 m-10.55469036102295, -8.930891752243042 l-2.571014165878296, -1.3531653583049774 -1.3531653583049774, -1.6237984597682953 l-0.2706330828368664, -1.4884819090366364 2.8416472673416138, -0.8118992298841476 l1.3531653583049774, 0.4059496149420738 1.6237984597682953, 1.7591150104999542 m24.356977939605713, 1.7591150104999542 l2.029748111963272, -1.3531653583049774 2.9769638180732727, -0.6765826791524887 l0.8118992298841476, 0.6765826791524887 -0.2706330828368664, 2.029748111963272 l-1.3531653583049774, 1.3531653583049774 -0.6765826791524887, 0.1353165414184332 m-25.033559799194336, 14.208236932754517 l0.1353165414184332, 0.6765826791524887 0.4059496149420738, -0.9472157806158066 m-0.1353165414184332, 0.2706330828368664 l0.0, 0.6765826791524887 1.4884819090366364, 1.6237984597682953 l1.7591150104999542, 1.0825323313474655 0.5412661656737328, -0.6765826791524887 l-0.4059496149420738, -0.5412661656737328 m-2.706330716609955, -1.4884819090366364 l-0.4059496149420738, 0.6765826791524887 0.0, 1.7591150104999542 " fill="none" stroke="black" stroke-width="1" /></svg>