<?xml version="1.0" encoding="utf-8" ?>
<svg baseProfile="full" height="40.310905231162906" version="1.1" width="55.466356398537755" xmlns="http://www.w3.org/2000/svg" xmlns:ev="http://www.w3.org/2001/xml-events" xmlns:xlink="http://www.w3.org/1999/xlink"><defs /><rect fill="white" height="40.310905231162906" width="55.466356398537755" x="0" y="0" /><path d="M5, 33.5517908167094 m0.1353165414184332, -6.089244484901428 l0.8118992298841476, -2.706330716609955 4.194812774658203, -6.630510687828064 l6.089244484901428, -3.1122803688049316 3.1122803688049316, -0.8118992298841476 l10.690007209777832, -1.0825323313474655 5.41266143321991, -0.1353165414184332 l1.4884819090366364, -1.0825323313474655 0.8118992298841476, -1.7591150104999542 m-31.934704780578613, 24.898242950439453 l2.9769638180732727, 0.2706330828368664 0.6765826791524887, -0.4059496149420738 l0.9472157806158066, -4.60076242685318 0.2706330828368664, -3.9241796731948853 l1.0825323313474655, -0.6765826791524887 0.6765826791524887, 0.2706330828368664 l0.5412661656737328, 3.1122803688049316 0.1353165414184332, 6.089244484901428 l0.6765826791524887, 0.1353165414184332 1.8944315612316132, -0.9472157806158066 l1.0825323313474655, -2.165064662694931 0.8118992298841476, -3.9241796731948853 l-0.1353165414184332, -5.142028331756592 2.029748111963272, 0.2706330828368664 l6.495193839073181, -0.4059496149420738 4.330129325389862, -0.8118992298841476 l0.1353165414184332, 9.336841106414795 2.165064662694931, 0.2706330828368664 l0.6765826791524887, -0.4059496149420738 0.0, -3.9241796731948853 l0.6765826791524887, -4.465445876121521 0.2706330828368664, -0.6765826791524887 l1.6237984597682953, -0.2706330828368664 0.6765826791524887, 1.3531653583049774 l0.0, 4.059496223926544 0.8118992298841476, 2.706330716609955 l0.6765826791524887, 0.5412661656737328 0.6765826791524887, -0.2706330828368664 l1.3531653583049774, -2.9769638180732727 0.6765826791524887, -3.2475969195365906 l-0.1353165414184332, -2.9769638180732727 m-2.706330716609955, -11.63722276687622 l0.2706330828368664, -3.7888631224632263 1.4884819090366364, -0.6765826791524887 l4.194812774658203, -0.1353165414184332 1.4884819090366364, 0.2706330828368664 l2.30038121342659, 2.706330716609955 2.165064662694931, 0.9472157806158066 l0.6765826791524887, 1.3531653583049774 0.0, 0.6765826791524887 l-2.8416472673416138, 1.7591150104999542 -1.6237984597682953, 2.706330716609955 l-2.706330716609955, 1.3531653583049774 -2.30038121342659, 3.6535465717315674 l-0.1353165414184332, 1.6237984597682953 " fill="none" stroke="black" stroke-width="1" /></svg>