<?xml version="1.0" encoding="utf-8" ?>
<svg baseProfile="full" height="60.87902066297829" version="1.1" width="43.423185711726546" xmlns="http://www.w3.org/2000/svg" xmlns:ev="http://www.w3.org/2001/xml-events" xmlns:xlink="http://www.w3.org/1999/xlink"><defs /><rect fill="white" height="60.87902066297829" width="43.423185711726546" x="0" y="0" /><path d="M13.795575108379126, 5 m-1.3531653583049774, 0.0 l-2.30038121342659, 1.2178488820791245 -0.9472157806158066, 0.9472157806158066 l-1.4884819090366364, 2.8416472673416138 -0.2706330828368664, 6.359877586364746 l0.5412661656737328, 4.871395528316498 2.165064662694931, 4.465445876121521 l1.4884819090366364, 1.7591150104999542 1.7591150104999542, 1.2178488820791245 l3.6535465717315674, 1.2178488820791245 7.7130430936813354, 0.1353165414184332 l4.465445876121521, -2.029748111963272 2.571014165878296, -2.435697764158249 l3.2475969195365906, -4.60076242685318 0.4059496149420738, -5.6832945346832275 l-0.6765826791524887, -2.9769638180732727 -1.4884819090366364, -2.029748111963272 l-2.029748111963272, -1.7591150104999542 -3.5182300209999084, -1.6237984597682953 l-7.442409992218018, -1.0825323313474655 -7.577726244926453, 0.0 m-2.435697764158249, 21.24469757080078 l-1.7591150104999542, 1.3531653583049774 -1.6237984597682953, 2.571014165878296 l-0.9472157806158066, 0.6765826791524887 -0.9472157806158066, 1.8944315612316132 l0.1353165414184332, 5.81861138343811 1.0825323313474655, 4.330129325389862 l2.30038121342659, 2.9769638180732727 3.2475969195365906, 1.8944315612316132 l6.630510687828064, 1.4884819090366364 2.571014165878296, 0.1353165414184332 l7.1717768907547, 0.0 4.194812774658203, -0.9472157806158066 l3.5182300209999084, -2.30038121342659 2.571014165878296, -2.571014165878296 l-0.1353165414184332, -7.577726244926453 -1.2178488820791245, -2.165064662694931 l-3.1122803688049316, -3.1122803688049316 -3.1122803688049316, -4.194812774658203 m-19.75621461868286, 20.026848316192627 l0.0, 4.465445876121521 0.9472157806158066, 2.8416472673416138 l2.029748111963272, 1.0825323313474655 2.30038121342659, 0.1353165414184332 l1.4884819090366364, -0.2706330828368664 3.3829134702682495, -1.6237984597682953 " fill="none" stroke="black" stroke-width="1" /></svg>