<?xml version="1.0" encoding="utf-8" ?>
<svg baseProfile="full" height="49.783062813803554" version="1.1" width="93.21967348456383" xmlns="http://www.w3.org/2000/svg" xmlns:ev="http://www.w3.org/2001/xml-events" xmlns:xlink="http://www.w3.org/1999/xlink"><defs /><rect fill="white" height="49.783062813803554" width="93.21967348456383" x="0" y="0" /><path d="M39.37040340155363, 11.90114300698042 m-0.5412661656737328, 2.8416472673416138 l-3.2475969195365906, 7.036460041999817 -1.2178488820791245, 1.7591150104999542 l-3.2475969195365906, 11.231273412704468 -0.6765826791524887, 4.736078977584839 l0.0, 4.330129325389862 0.5412661656737328, 0.8118992298841476 l0.6765826791524887, 0.1353165414184332 8.930891752243042, 0.0 l4.465445876121521, -1.3531653583049774 5.41266143321991, -2.706330716609955 l1.6237984597682953, -1.7591150104999542 1.4884819090366364, -5.81861138343811 l0.5412661656737328, -6.901143789291382 0.0, -7.1717768907547 l-1.7591150104999542, -5.277345180511475 -2.571014165878296, -3.1122803688049316 l-2.8416472673416138, -1.7591150104999542 -7.307093143463135, -2.30038121342659 l-3.9241796731948853, 0.0 -2.165064662694931, 1.0825323313474655 l-2.706330716609955, 2.30038121342659 -2.571014165878296, 4.465445876121521 l-0.5412661656737328, 5.81861138343811 0.9472157806158066, 2.165064662694931 l1.2178488820791245, 0.9472157806158066 1.6237984597682953, 0.4059496149420738 l1.4884819090366364, 0.9472157806158066 9.20152485370636, 0.5412661656737328 l13.937603235244751, 0.0 7.7130430936813354, -0.9472157806158066 l2.8416472673416138, -1.0825323313474655 0.4059496149420738, -0.8118992298841476 l-2.165064662694931, -0.8118992298841476 -51.28497123718262, 0.0 l12.855072021484375, -0.8118992298841476 8.118992447853088, 0.0 l10.013424158096313, -1.3531653583049774 10.013424158096313, -0.5412661656737328 l33.558502197265625, -0.9472157806158066 -57.64484882354736, -0.2706330828368664 l-16.64393424987793, 0.9472157806158066 -5.277345180511475, 1.2178488820791245 l-0.2706330828368664, 0.6765826791524887 6.359877586364746, 1.3531653583049774 l52.09686756134033, 0.2706330828368664 -26.386725902557373, -0.1353165414184332 l-15.967352390289307, 1.2178488820791245 -8.795575499534607, 2.435697764158249 l-2.435697764158249, 1.4884819090366364 0.2706330828368664, 1.3531653583049774 l1.6237984597682953, 0.9472157806158066 3.2475969195365906, 0.5412661656737328 l4.194812774658203, 1.8944315612316132 20.974063873291016, 4.465445876121521 l16.914567947387695, 2.571014165878296 12.990387678146362, 1.3531653583049774 l-17.45583415031433, -0.4059496149420738 -15.155452489852905, -2.8416472673416138 l5.81861138343811, -1.0825323313474655 28.551790714263916, -0.2706330828368664 l-26.927990913391113, 0.0 -18.132416009902954, -1.0825323313474655 l2.165064662694931, -0.6765826791524887 25.71014404296875, -2.165064662694931 l8.795575499534607, -1.6237984597682953 -52.50281810760498, -0.6765826791524887 l-9.336841106414795, -0.8118992298841476 21.1093807220459, 0.0 l18.132416009902954, -1.6237984597682953 15.561401844024658, -0.8118992298841476 l8.524942398071289, -1.0825323313474655 -7.442409992218018, -2.30038121342659 l-25.439510345458984, -4.465445876121521 -21.1093807220459, -5.41266143321991 l0.9472157806158066, -0.5412661656737328 37.88863182067871, -0.2706330828368664 l-10.690007209777832, -5.142028331756592 -2.706330716609955, -2.029748111963272 " fill="none" stroke="black" stroke-width="1" /></svg>