<?xml version="1.0" encoding="utf-8" ?>
<svg baseProfile="full" height="35.71014261804521" version="1.1" width="30.297480765730143" xmlns="http://www.w3.org/2000/svg" xmlns:ev="http://www.w3.org/2001/xml-events" xmlns:xlink="http://www.w3.org/1999/xlink"><defs /><rect fill="white" height="35.71014261804521" width="30.297480765730143" x="0" y="0" /><path d="M14.47215711697936, 11.359877185896039 m-1.4884819090366364, -0.2706330828368664 l-1.8944315612316132, 0.9472157806158066 -3.6535465717315674, 3.3829134702682495 l-1.3531653583049774, 2.029748111963272 -0.2706330828368664, 4.330129325389862 l0.4059496149420738, 1.8944315612316132 3.2475969195365906, 6.359877586364746 l2.435697764158249, 0.6765826791524887 4.330129325389862, 0.0 l5.006712079048157, -3.6535465717315674 1.4884819090366364, -2.9769638180732727 l0.2706330828368664, -5.5479782819747925 -1.4884819090366364, -3.6535465717315674 l-4.059496223926544, -3.7888631224632263 -3.2475969195365906, -1.4884819090366364 l-1.3531653583049774, -0.1353165414184332 m1.6237984597682953, 0.9472157806158066 l1.4884819090366364, -1.6237984597682953 2.30038121342659, -1.4884819090366364 l6.089244484901428, -2.30038121342659 0.5412661656737328, 0.2706330828368664 l0.4059496149420738, 1.3531653583049774 0.0, 1.0825323313474655 l-0.8118992298841476, 1.2178488820791245 -3.9241796731948853, 3.9241796731948853 l-0.6765826791524887, 0.2706330828368664 -0.2706330828368664, -1.7591150104999542 m-5.142028331756592, -2.435697764158249 l-1.6237984597682953, 0.1353165414184332 -3.2475969195365906, -1.8944315612316132 l-1.2178488820791245, -0.2706330828368664 -1.7591150104999542, 0.1353165414184332 l-1.2178488820791245, 0.9472157806158066 -0.4059496149420738, 1.2178488820791245 l1.2178488820791245, 1.7591150104999542 3.3829134702682495, 1.6237984597682953 l1.7591150104999542, 0.0 -0.1353165414184332, -0.4059496149420738 m0.0, 8.389625549316406 l-1.7591150104999542, -0.1353165414184332 -0.9472157806158066, 1.0825323313474655 l0.0, 0.5412661656737328 0.5412661656737328, 0.1353165414184332 l3.3829134702682495, -0.2706330828368664 0.1353165414184332, -0.5412661656737328 l-0.4059496149420738, -0.5412661656737328 -1.4884819090366364, -0.4059496149420738 m2.706330716609955, -4.194812774658203 l0.0, 0.0 m1.8944315612316132, -0.4059496149420738 l0.1353165414184332, 0.0 " fill="none" stroke="black" stroke-width="1" /></svg>