<?xml version="1.0" encoding="utf-8" ?>
<svg baseProfile="full" height="41.66407100856304" version="1.1" width="58.17268963903189" xmlns="http://www.w3.org/2000/svg" xmlns:ev="http://www.w3.org/2001/xml-events" xmlns:xlink="http://www.w3.org/1999/xlink"><defs /><rect fill="white" height="41.66407100856304" width="58.17268963903189" x="0" y="0" /><path d="M37.6112871337682, 10.277345385402441 m-1.3531653583049774, -0.6765826791524887 l-2.9769638180732727, -0.4059496149420738 -6.089244484901428, 0.2706330828368664 l-3.6535465717315674, 1.7591150104999542 -2.571014165878296, 2.435697764158249 l-2.165064662694931, 4.194812774658203 -0.4059496149420738, 6.359877586364746 l1.0825323313474655, 4.059496223926544 2.8416472673416138, 4.194812774658203 l4.736078977584839, 3.2475969195365906 4.736078977584839, 0.9472157806158066 l3.6535465717315674, 0.0 2.30038121342659, -0.5412661656737328 l2.571014165878296, -1.3531653583049774 1.6237984597682953, -1.7591150104999542 l0.9472157806158066, -2.029748111963272 1.8944315612316132, -10.55469036102295 l0.2706330828368664, -7.442409992218018 -0.4059496149420738, -1.7591150104999542 l-2.165064662694931, -2.571014165878296 -2.571014165878296, -0.4059496149420738 l-3.3829134702682495, 0.8118992298841476 m-7.1717768907547, 7.1717768907547 l-0.9472157806158066, 1.2178488820791245 0.2706330828368664, 2.30038121342659 l1.3531653583049774, 0.4059496149420738 0.6765826791524887, -0.2706330828368664 l0.1353165414184332, -0.6765826791524887 -0.9472157806158066, -2.30038121342659 l-0.5412661656737328, -0.4059496149420738 m7.983676195144653, 1.0825323313474655 l-2.30038121342659, 1.7591150104999542 -0.4059496149420738, 0.8118992298841476 l0.6765826791524887, 0.2706330828368664 1.3531653583049774, -1.4884819090366364 l-0.1353165414184332, -1.4884819090366364 m-5.142028331756592, 5.6832945346832275 l-0.9472157806158066, 2.165064662694931 1.3531653583049774, 0.0 l-0.9472157806158066, -1.8944315612316132 m0.6765826791524887, 1.8944315612316132 l-0.8118992298841476, 1.3531653583049774 -0.4059496149420738, 6.089244484901428 l-1.3531653583049774, 0.5412661656737328 -1.4884819090366364, 0.0 m2.029748111963272, -2.9769638180732727 l0.6765826791524887, 1.4884819090366364 0.9472157806158066, 0.4059496149420738 l3.9241796731948853, 0.4059496149420738 m7.036460041999817, -24.356977939605713 l6.630510687828064, -2.8416472673416138 3.6535465717315674, -0.4059496149420738 l0.6765826791524887, 0.5412661656737328 0.1353165414184332, 3.3829134702682495 l-1.2178488820791245, 2.435697764158249 -1.4884819090366364, 1.2178488820791245 l-3.9241796731948853, 0.4059496149420738 m-21.515331268310547, -3.1122803688049316 l-3.6535465717315674, -2.30038121342659 -6.359877586364746, -1.7591150104999542 l-3.3829134702682495, -0.5412661656737328 -5.142028331756592, 0.0 l-0.9472157806158066, 0.1353165414184332 -0.5412661656737328, 0.8118992298841476 l0.2706330828368664, 2.435697764158249 0.9472157806158066, 2.435697764158249 l2.706330716609955, 3.7888631224632263 3.9241796731948853, 1.2178488820791245 l10.148741006851196, 1.2178488820791245 " fill="none" stroke="black" stroke-width="1" /></svg>