<?xml version="1.0" encoding="utf-8" ?>
<svg baseProfile="full" height="39.499005284160376" version="1.1" width="40.71685488335788" xmlns="http://www.w3.org/2000/svg" xmlns:ev="http://www.w3.org/2001/xml-events" xmlns:xlink="http://www.w3.org/1999/xlink"><defs /><rect fill="white" height="39.499005284160376" width="40.71685488335788" x="0" y="0" /><path d="M16.501906411722302, 10.277344919741154 m-7.1717768907547, 1.0825323313474655 l-0.2706330828368664, 0.5412661656737328 0.0, 4.330129325389862 l1.0825323313474655, 2.029748111963272 1.4884819090366364, 0.6765826791524887 l1.2178488820791245, 0.0 0.8118992298841476, -1.3531653583049774 l1.6237984597682953, -4.194812774658203 0.0, -4.059496223926544 m0.0, 0.0 l3.1122803688049316, -1.3531653583049774 16.779251098632812, -2.9769638180732727 l0.5412661656737328, 0.8118992298841476 0.0, 1.4884819090366364 l-2.165064662694931, 3.1122803688049316 -2.029748111963272, 1.3531653583049774 l-13.125704526901245, 0.2706330828368664 m-5.006712079048157, -2.706330716609955 l-4.60076242685318, -0.1353165414184332 -3.1122803688049316, -1.0825323313474655 l-0.5412661656737328, 0.1353165414184332 -0.1353165414184332, 1.6237984597682953 l0.8118992298841476, 1.3531653583049774 3.2475969195365906, 0.9472157806158066 m0.1353165414184332, 5.142028331756592 l-1.6237984597682953, 1.7591150104999542 -0.5412661656737328, 3.7888631224632263 l-1.0825323313474655, 3.7888631224632263 0.0, 5.6832945346832275 l1.2178488820791245, 0.9472157806158066 5.81861138343811, 1.2178488820791245 l1.4884819090366364, -0.4059496149420738 2.165064662694931, -3.2475969195365906 l3.7888631224632263, -10.284056663513184 -0.9472157806158066, -2.029748111963272 l-3.3829134702682495, -1.4884819090366364 -2.571014165878296, 0.0 m-2.029748111963272, -4.60076242685318 l0.0, 0.0 m0.5412661656737328, 0.0 l-0.5412661656737328, 0.0 -0.5412661656737328, 0.5412661656737328 l0.1353165414184332, 0.1353165414184332 m1.8944315612316132, -0.5412661656737328 l0.6765826791524887, 0.5412661656737328 m-2.165064662694931, 1.0825323313474655 l1.3531653583049774, 0.4059496149420738 " fill="none" stroke="black" stroke-width="1" /></svg>