<?xml version="1.0" encoding="utf-8" ?>
<svg baseProfile="full" height="67.23889593034983" version="1.1" width="69.6745948586613" xmlns="http://www.w3.org/2000/svg" xmlns:ev="http://www.w3.org/2001/xml-events" xmlns:xlink="http://www.w3.org/1999/xlink"><defs /><rect fill="white" height="67.23889593034983" width="69.6745948586613" x="0" y="0" /><path d="M46.406861674040556, 33.55178941041231 m2.9769638180732727, 6.630510687828064 l-0.1353165414184332, 3.2475969195365906 -1.3531653583049774, 3.2475969195365906 l-0.8118992298841476, 3.7888631224632263 -0.8118992298841476, 0.0 l-1.8944315612316132, -1.0825323313474655 m-20.432798862457275, -15.290769338607788 l0.1353165414184332, 4.059496223926544 -0.9472157806158066, 2.165064662694931 l-0.6765826791524887, 3.6535465717315674 0.1353165414184332, 2.8416472673416138 l0.9472157806158066, 2.706330716609955 m22.056596279144287, 0.4059496149420738 l-0.1353165414184332, 0.6765826791524887 1.8944315612316132, 3.6535465717315674 l1.7591150104999542, 5.81861138343811 -0.4059496149420738, 0.6765826791524887 l-3.7888631224632263, 1.0825323313474655 -2.706330716609955, 0.4059496149420738 l-3.3829134702682495, -2.165064662694931 -1.7591150104999542, -2.8416472673416138 l-0.6765826791524887, -5.41266143321991 m0.0, 0.0 l-0.9472157806158066, -1.3531653583049774 -2.706330716609955, -0.1353165414184332 l-1.8944315612316132, 3.7888631224632263 -0.9472157806158066, 4.465445876121521 l-1.2178488820791245, 2.571014165878296 -1.2178488820791245, 0.9472157806158066 l-2.571014165878296, 0.1353165414184332 -2.571014165878296, -2.435697764158249 l-1.3531653583049774, -2.9769638180732727 0.0, -2.029748111963272 l1.4884819090366364, -4.330129325389862 m1.7591150104999542, -17.7264666557312 l-2.8416472673416138, -3.7888631224632263 -0.9472157806158066, -0.6765826791524887 l-7.307093143463135, -2.8416472673416138 -5.953927636146545, -3.6535465717315674 l-1.3531653583049774, -1.7591150104999542 -0.5412661656737328, -1.4884819090366364 l-0.2706330828368664, -5.142028331756592 0.8118992298841476, -0.5412661656737328 l3.9241796731948853, -0.2706330828368664 7.7130430936813354, 2.435697764158249 l2.029748111963272, 1.3531653583049774 2.571014165878296, 3.2475969195365906 l7.442409992218018, 4.736078977584839 1.3531653583049774, -0.2706330828368664 l1.2178488820791245, -3.6535465717315674 -5.006712079048157, -6.765826940536499 l-2.30038121342659, -4.736078977584839 0.1353165414184332, -2.706330716609955 l0.6765826791524887, -0.5412661656737328 9.336841106414795, -0.6765826791524887 l7.577726244926453, 0.0 0.8118992298841476, 0.4059496149420738 l0.1353165414184332, 0.6765826791524887 -1.7591150104999542, 2.30038121342659 l-0.4059496149420738, 3.7888631224632263 -2.571014165878296, 5.006712079048157 l-0.1353165414184332, 2.435697764158249 1.0825323313474655, 1.8944315612316132 l0.6765826791524887, 0.4059496149420738 3.5182300209999084, 0.0 l5.81861138343811, -1.2178488820791245 3.3829134702682495, -1.6237984597682953 l5.81861138343811, -5.5479782819747925 5.5479782819747925, -2.165064662694931 l0.2706330828368664, 0.8118992298841476 " fill="none" stroke="black" stroke-width="1" /></svg>