<?xml version="1.0" encoding="utf-8" ?>
<svg baseProfile="full" height="66.96826316416264" version="1.1" width="37.33394056558609" xmlns="http://www.w3.org/2000/svg" xmlns:ev="http://www.w3.org/2001/xml-events" xmlns:xlink="http://www.w3.org/1999/xlink"><defs /><rect fill="white" height="66.96826316416264" width="37.33394056558609" x="0" y="0" /><path d="M22.997099542990327, 59.26193208433688 m-0.9472157806158066, 0.6765826791524887 l-2.30038121342659, 0.2706330828368664 -3.3829134702682495, 0.0 l-2.435697764158249, -0.9472157806158066 -1.0825323313474655, -0.8118992298841476 l-1.7591150104999542, -2.435697764158249 -0.9472157806158066, -2.435697764158249 l-0.4059496149420738, -2.9769638180732727 0.0, -3.1122803688049316 l0.4059496149420738, -1.3531653583049774 1.6237984597682953, -2.9769638180732727 l2.571014165878296, -3.2475969195365906 4.194812774658203, -3.3829134702682495 l3.9241796731948853, -0.1353165414184332 1.4884819090366364, 0.6765826791524887 l2.706330716609955, 2.30038121342659 3.6535465717315674, 4.736078977584839 l1.8944315612316132, 5.006712079048157 0.1353165414184332, 2.9769638180732727 l-0.4059496149420738, 1.4884819090366364 -4.059496223926544, 4.871395528316498 l-4.059496223926544, 2.571014165878296 -1.7591150104999542, 0.5412661656737328 l-4.60076242685318, 0.4059496149420738 -1.2178488820791245, -0.6765826791524887 l-2.571014165878296, -3.3829134702682495 m0.8118992298841476, -21.78596258163452 l-1.4884819090366364, -1.6237984597682953 -1.0825323313474655, -2.9769638180732727 l-0.5412661656737328, -4.465445876121521 0.1353165414184332, -4.330129325389862 l1.2178488820791245, -2.9769638180732727 1.7591150104999542, -2.8416472673416138 l1.8944315612316132, -2.571014165878296 2.571014165878296, -1.8944315612316132 l3.2475969195365906, 0.0 1.8944315612316132, 1.2178488820791245 l1.4884819090366364, 1.8944315612316132 2.706330716609955, 5.81861138343811 l0.6765826791524887, 3.1122803688049316 0.0, 5.41266143321991 l-1.2178488820791245, 3.2475969195365906 -2.435697764158249, 2.571014165878296 l-4.059496223926544, 0.4059496149420738 -2.9769638180732727, -1.2178488820791245 m4.60076242685318, -22.056596279144287 l0.6765826791524887, -0.4059496149420738 1.2178488820791245, -3.1122803688049316 l0.8118992298841476, -4.330129325389862 1.8944315612316132, 2.9769638180732727 l2.029748111963272, 6.901143789291382 m-13.937603235244751, -1.3531653583049774 l-5.41266143321991, -6.495193839073181 -1.3531653583049774, -0.8118992298841476 l1.6237984597682953, 17.32051730155945 -0.8118992298841476, -5.41266143321991 l-1.6237984597682953, -4.194812774658203 -0.1353165414184332, -6.495193839073181 l1.7591150104999542, -1.3531653583049774 1.3531653583049774, 0.1353165414184332 l4.465445876121521, 8.524942398071289 0.4059496149420738, 1.6237984597682953 l-3.5182300209999084, -5.277345180511475 -3.6535465717315674, -3.6535465717315674 l-2.571014165878296, -1.2178488820791245 -0.6765826791524887, 0.0 l-0.4059496149420738, 0.8118992298841476 0.2706330828368664, 4.60076242685318 l6.630510687828064, 12.855072021484375 -2.706330716609955, -10.013424158096313 l-0.5412661656737328, -7.036460041999817 1.2178488820791245, -0.6765826791524887 l0.9472157806158066, 0.0 1.0825323313474655, 0.6765826791524887 l2.165064662694931, 2.8416472673416138 1.8944315612316132, 4.736078977584839 l0.2706330828368664, 1.8944315612316132 -5.953927636146545, -7.036460041999817 l-2.029748111963272, -1.4884819090366364 -1.8944315612316132, -0.4059496149420738 l0.4059496149420738, 5.142028331756592 0.9472157806158066, 1.8944315612316132 l3.2475969195365906, 4.60076242685318 1.8944315612316132, 0.9472157806158066 " fill="none" stroke="black" stroke-width="1" /></svg>