<?xml version="1.0" encoding="utf-8" ?>
<svg baseProfile="full" height="71.83966018259525" version="1.1" width="41.258120499551296" xmlns="http://www.w3.org/2000/svg" xmlns:ev="http://www.w3.org/2001/xml-events" xmlns:xlink="http://www.w3.org/1999/xlink"><defs /><rect fill="white" height="71.83966018259525" width="41.258120499551296" x="0" y="0" /><path d="M16.095956237986684, 56.55560310930014 m-0.2706330828368664, 6.765826940536499 l-2.706330716609955, 0.1353165414184332 -0.5412661656737328, 0.6765826791524887 l0.1353165414184332, 0.6765826791524887 1.8944315612316132, 0.6765826791524887 l4.330129325389862, -0.1353165414184332 0.5412661656737328, -0.9472157806158066 l0.2706330828368664, -2.029748111963272 0.0, -3.9241796731948853 m9.336841106414795, -1.6237984597682953 l0.2706330828368664, 6.089244484901428 0.6765826791524887, 0.4059496149420738 l2.706330716609955, -1.0825323313474655 2.435697764158249, 0.0 l0.4059496149420738, 0.8118992298841476 -4.871395528316498, 2.165064662694931 l-4.736078977584839, 1.6237984597682953 -0.2706330828368664, -7.577726244926453 l0.4059496149420738, -1.2178488820791245 m-7.442409992218018, 0.5412661656737328 l7.7130430936813354, -0.2706330828368664 0.5412661656737328, -0.5412661656737328 m-1.2178488820791245, -0.6765826791524887 l2.029748111963272, -0.6765826791524887 1.8944315612316132, -1.2178488820791245 l2.165064662694931, -2.30038121342659 1.6237984597682953, -2.571014165878296 l2.30038121342659, -5.142028331756592 0.5412661656737328, -5.81861138343811 l-0.5412661656737328, -3.3829134702682495 -2.8416472673416138, -6.224560737609863 l-7.307093143463135, -7.983676195144653 -5.41266143321991, -3.5182300209999084 l-2.435697764158249, -0.6765826791524887 -2.435697764158249, 0.0 l-2.30038121342659, 0.6765826791524887 -2.571014165878296, 3.2475969195365906 l-2.30038121342659, 4.736078977584839 -1.7591150104999542, 5.41266143321991 l-1.3531653583049774, 8.254309296607971 0.0, 5.6832945346832275 l0.6765826791524887, 3.7888631224632263 1.7591150104999542, 2.706330716609955 l1.4884819090366364, 1.3531653583049774 2.30038121342659, 0.6765826791524887 l7.983676195144653, 0.6765826791524887 m-0.2706330828368664, -35.046985149383545 l-1.0825323313474655, -1.3531653583049774 -0.2706330828368664, -2.435697764158249 l0.5412661656737328, -2.029748111963272 2.8416472673416138, -3.5182300209999084 l4.194812774658203, -1.7591150104999542 4.871395528316498, -0.2706330828368664 l0.9472157806158066, 0.4059496149420738 -0.2706330828368664, 3.1122803688049316 l-3.6535465717315674, 4.330129325389862 -3.7888631224632263, 3.3829134702682495 l-1.7591150104999542, 0.9472157806158066 m-1.6237984597682953, -11.366589069366455 l-0.1353165414184332, -1.8944315612316132 0.4059496149420738, -0.9472157806158066 l1.0825323313474655, -0.8118992298841476 0.8118992298841476, 0.0 l0.2706330828368664, 5.41266143321991 m4.871395528316498, -4.059496223926544 l3.2475969195365906, -1.8944315612316132 0.4059496149420738, 5.6832945346832275 l-0.5412661656737328, 0.6765826791524887 m-10.419373512268066, 1.6237984597682953 " fill="none" stroke="black" stroke-width="1" /></svg>