<?xml version="1.0" encoding="utf-8" ?>
<svg baseProfile="full" height="37.73989014327526" version="1.1" width="36.25140842050314" xmlns="http://www.w3.org/2000/svg" xmlns:ev="http://www.w3.org/2001/xml-events" xmlns:xlink="http://www.w3.org/1999/xlink"><defs /><rect fill="white" height="37.73989014327526" width="36.25140842050314" x="0" y="0" /><path d="M20.155453337356448, 12.983675301074982 m-3.5182300209999084, 0.0 l-3.7888631224632263, 1.0825323313474655 -4.736078977584839, 3.7888631224632263 l-0.8118992298841476, 2.435697764158249 -0.2706330828368664, 4.60076242685318 l0.4059496149420738, 1.6237984597682953 2.9769638180732727, 3.6535465717315674 l6.089244484901428, 2.571014165878296 2.8416472673416138, 0.0 l4.465445876121521, -1.3531653583049774 2.706330716609955, -1.3531653583049774 l1.3531653583049774, -1.7591150104999542 1.2178488820791245, -3.3829134702682495 l0.1353165414184332, -3.6535465717315674 -1.0825323313474655, -5.142028331756592 l-1.6237984597682953, -2.165064662694931 -4.465445876121521, -1.6237984597682953 l-5.81861138343811, 0.0 m-11.231273412704468, 4.60076242685318 l1.8944315612316132, -9.607474207878113 0.5412661656737328, -0.9472157806158066 l2.571014165878296, -1.3531653583049774 1.7591150104999542, 0.5412661656737328 l1.0825323313474655, 1.0825323313474655 3.1122803688049316, 7.1717768907547 l0.4059496149420738, 1.8944315612316132 -1.0825323313474655, -1.3531653583049774 m5.6832945346832275, -1.3531653583049774 l0.0, -0.9472157806158066 1.2178488820791245, -1.7591150104999542 l2.8416472673416138, -1.8944315612316132 2.30038121342659, -0.2706330828368664 l2.165064662694931, 1.7591150104999542 1.3531653583049774, 2.435697764158249 l0.4059496149420738, 4.736078977584839 m-11.90785527229309, 3.2475969195365906 l-4.059496223926544, 0.0 -1.3531653583049774, 0.4059496149420738 l-0.5412661656737328, 1.7591150104999542 0.9472157806158066, 1.2178488820791245 l2.8416472673416138, 1.0825323313474655 2.8416472673416138, 0.0 l2.706330716609955, -1.3531653583049774 0.5412661656737328, -1.3531653583049774 l-4.60076242685318, -1.3531653583049774 m-5.41266143321991, -3.2475969195365906 l-1.6237984597682953, 1.7591150104999542 0.8118992298841476, 0.4059496149420738 l0.9472157806158066, -0.5412661656737328 0.9472157806158066, -1.3531653583049774 l-1.2178488820791245, -0.6765826791524887 -2.30038121342659, 0.0 m13.261021375656128, 2.706330716609955 l0.0, -1.3531653583049774 0.6765826791524887, -0.1353165414184332 l0.2706330828368664, -0.6765826791524887 -0.9472157806158066, -0.4059496149420738 l-2.435697764158249, -0.1353165414184332 -0.8118992298841476, 1.4884819090366364 l0.0, 0.9472157806158066 1.0825323313474655, 0.9472157806158066 l1.8944315612316132, 0.9472157806158066 1.0825323313474655, 0.0 l0.9472157806158066, -1.2178488820791245 0.5412661656737328, -2.30038121342659 l-0.4059496149420738, -1.8944315612316132 -0.6765826791524887, -0.5412661656737328 " fill="none" stroke="black" stroke-width="1" /></svg>