<?xml version="1.0" encoding="utf-8" ?>
<svg baseProfile="full" height="77.11700311861932" version="1.1" width="40.85217095911503" xmlns="http://www.w3.org/2000/svg" xmlns:ev="http://www.w3.org/2001/xml-events" xmlns:xlink="http://www.w3.org/1999/xlink"><defs /><rect fill="white" height="77.11700311861932" width="40.85217095911503" x="0" y="0" /><path d="M22.726467764005065, 6.488481825217605 m-0.9472157806158066, -0.5412661656737328 l-2.9769638180732727, 0.1353165414184332 -4.194812774658203, 2.165064662694931 l-4.330129325389862, 3.7888631224632263 -1.4884819090366364, 2.9769638180732727 l-0.1353165414184332, 3.1122803688049316 0.5412661656737328, 1.4884819090366364 l2.706330716609955, 2.435697764158249 4.194812774658203, 1.6237984597682953 l4.059496223926544, 0.1353165414184332 1.6237984597682953, -0.8118992298841476 l2.571014165878296, -2.029748111963272 3.3829134702682495, -5.6832945346832275 l0.2706330828368664, -4.194812774658203 -0.4059496149420738, -0.8118992298841476 l-1.4884819090366364, -1.3531653583049774 -4.60076242685318, -2.571014165878296 m2.706330716609955, 0.6765826791524887 l1.3531653583049774, -1.4884819090366364 2.165064662694931, -0.4059496149420738 l2.706330716609955, 0.2706330828368664 2.165064662694931, 1.4884819090366364 l0.8118992298841476, 1.8944315612316132 -0.5412661656737328, 0.9472157806158066 l-2.165064662694931, 1.3531653583049774 -2.165064662694931, 0.4059496149420738 m-15.832035541534424, -3.7888631224632263 l0.0, -0.9472157806158066 -0.8118992298841476, -0.8118992298841476 l-2.029748111963272, -0.8118992298841476 -2.029748111963272, -0.1353165414184332 l-1.0825323313474655, 0.4059496149420738 -0.5412661656737328, 0.9472157806158066 l-0.2706330828368664, 2.029748111963272 0.5412661656737328, 1.2178488820791245 l3.1122803688049316, 2.9769638180732727 1.3531653583049774, 0.4059496149420738 m2.8416472673416138, 9.336841106414795 l-2.029748111963272, 1.3531653583049774 -2.30038121342659, 2.30038121342659 l-2.165064662694931, 3.7888631224632263 -1.7591150104999542, 6.495193839073181 l-0.5412661656737328, 4.194812774658203 0.0, 7.036460041999817 l0.4059496149420738, 2.706330716609955 2.435697764158249, 9.607474207878113 l2.571014165878296, 5.142028331756592 1.6237984597682953, 2.30038121342659 l2.029748111963272, 2.029748111963272 2.435697764158249, 1.3531653583049774 l4.60076242685318, 1.3531653583049774 2.435697764158249, 0.1353165414184332 l2.571014165878296, -0.1353165414184332 2.8416472673416138, -1.0825323313474655 l2.029748111963272, -1.6237984597682953 1.4884819090366364, -2.571014165878296 l1.3531653583049774, -3.3829134702682495 1.4884819090366364, -6.359877586364746 l0.5412661656737328, -6.630510687828064 0.0, -7.983676195144653 l-0.5412661656737328, -3.7888631224632263 -4.194812774658203, -13.937603235244751 l-1.0825323313474655, -1.6237984597682953 -1.0825323313474655, -0.6765826791524887 l-1.4884819090366364, -0.4059496149420738 -3.9241796731948853, 0.0 m-6.901143789291382, 11.366589069366455 l-2.435697764158249, 4.736078977584839 -1.2178488820791245, 7.036460041999817 l-0.1353165414184332, 11.095956563949585 0.8118992298841476, 3.2475969195365906 l1.2178488820791245, 2.571014165878296 1.3531653583049774, 1.6237984597682953 l2.165064662694931, 1.0825323313474655 2.165064662694931, 0.0 l2.029748111963272, -1.8944315612316132 2.029748111963272, -8.254309296607971 l0.2706330828368664, -4.330129325389862 -0.5412661656737328, -8.930891752243042 l-1.7591150104999542, -7.577726244926453 -1.0825323313474655, -2.165064662694931 l-1.3531653583049774, -1.2178488820791245 -1.3531653583049774, -0.4059496149420738 l-1.3531653583049774, 0.2706330828368664 -2.571014165878296, 5.277345180511475 l-0.6765826791524887, 4.330129325389862 -0.1353165414184332, 9.742791056632996 l0.9472157806158066, 5.277345180511475 1.3531653583049774, 4.059496223926544 l2.706330716609955, 2.9769638180732727 1.7591150104999542, -0.4059496149420738 l1.6237984597682953, -2.435697764158249 0.6765826791524887, -3.9241796731948853 l0.5412661656737328, -12.855072021484375 -1.6237984597682953, -5.142028331756592 l-2.30038121342659, -3.5182300209999084 -1.2178488820791245, 1.2178488820791245 l-1.3531653583049774, 7.7130430936813354 -0.2706330828368664, 12.990387678146362 l0.4059496149420738, 2.435697764158249 0.5412661656737328, 1.2178488820791245 l0.6765826791524887, 0.2706330828368664 0.8118992298841476, -1.3531653583049774 l1.2178488820791245, -8.524942398071289 0.0, -15.832035541534424 l-0.6765826791524887, -4.465445876121521 -0.6765826791524887, -0.5412661656737328 l-0.9472157806158066, 1.7591150104999542 -0.6765826791524887, 3.5182300209999084 l-0.4059496149420738, 4.330129325389862 0.0, 10.419373512268066 l0.4059496149420738, 4.059496223926544 1.3531653583049774, 4.059496223926544 l0.5412661656737328, 0.6765826791524887 0.9472157806158066, 0.0 l1.2178488820791245, -2.706330716609955 0.4059496149420738, -4.465445876121521 l-0.1353165414184332, -13.125704526901245 -0.9472157806158066, -4.60076242685318 l-0.6765826791524887, -0.6765826791524887 -1.0825323313474655, 0.2706330828368664 l-1.2178488820791245, 3.1122803688049316 -0.9472157806158066, 4.60076242685318 l-0.5412661656737328, 5.5479782819747925 0.0, 11.366589069366455 " fill="none" stroke="black" stroke-width="1" /></svg>