<?xml version="1.0" encoding="utf-8" ?>
<svg baseProfile="full" height="67.37421171739697" version="1.1" width="61.149652069434524" xmlns="http://www.w3.org/2000/svg" xmlns:ev="http://www.w3.org/2001/xml-events" xmlns:xlink="http://www.w3.org/1999/xlink"><defs /><rect fill="white" height="67.37421171739697" width="61.149652069434524" x="0" y="0" /><path d="M22.455833675339818, 44.647744577378035 m1.6237984597682953, 13.261021375656128 l1.2178488820791245, 2.9769638180732727 2.029748111963272, 0.9472157806158066 l3.5182300209999084, 0.5412661656737328 1.3531653583049774, -0.6765826791524887 l2.165064662694931, -2.165064662694931 0.4059496149420738, -5.6832945346832275 l-1.3531653583049774, -6.901143789291382 0.8118992298841476, 7.7130430936813354 l1.2178488820791245, 3.7888631224632263 2.165064662694931, 1.7591150104999542 l2.029748111963272, 0.8118992298841476 3.3829134702682495, 0.0 l2.165064662694931, -10.284056663513184 -1.7591150104999542, -10.284056663513184 l-2.435697764158249, -5.953927636146545 2.706330716609955, -2.8416472673416138 l3.5182300209999084, -1.3531653583049774 2.9769638180732727, 0.1353165414184332 l5.006712079048157, 2.706330716609955 0.6765826791524887, 0.0 l0.2706330828368664, -0.6765826791524887 -0.1353165414184332, -1.4884819090366364 l-1.3531653583049774, -2.9769638180732727 -1.8944315612316132, -2.30038121342659 l-2.165064662694931, -0.8118992298841476 -1.6237984597682953, 0.1353165414184332 l-8.524942398071289, -1.0825323313474655 -2.706330716609955, -3.1122803688049316 l-1.3531653583049774, -0.6765826791524887 3.1122803688049316, -15.155452489852905 l0.0, 0.6765826791524887 -3.6535465717315674, -0.1353165414184332 l-5.006712079048157, 1.6237984597682953 -1.2178488820791245, 0.8118992298841476 l-3.5182300209999084, 4.465445876121521 -1.3531653583049774, 4.60076242685318 l-3.3829134702682495, 1.6237984597682953 -10.284056663513184, 3.1122803688049316 l-4.465445876121521, 2.029748111963272 -0.6765826791524887, 0.6765826791524887 l-0.9472157806158066, 4.059496223926544 0.2706330828368664, 1.4884819090366364 l1.0825323313474655, 1.7591150104999542 2.706330716609955, 1.7591150104999542 l3.2475969195365906, -1.3531653583049774 6.630510687828064, -5.953927636146545 l2.165064662694931, -0.9472157806158066 0.6765826791524887, 0.5412661656737328 l0.1353165414184332, 6.495193839073181 1.0825323313474655, 10.82532286643982 l-0.1353165414184332, 5.277345180511475 m10.55469036102295, -32.611286640167236 l-0.4059496149420738, -2.029748111963272 -0.2706330828368664, 1.3531653583049774 l-1.3531653583049774, 0.9472157806158066 -2.9769638180732727, 0.0 l0.0, -0.6765826791524887 m5.006712079048157, -0.1353165414184332 l1.3531653583049774, 2.165064662694931 1.4884819090366364, 0.4059496149420738 l0.4059496149420738, -0.6765826791524887 " fill="none" stroke="black" stroke-width="1" /></svg>