<?xml version="1.0" encoding="utf-8" ?>
<svg baseProfile="full" height="43.82913495413959" version="1.1" width="41.79938633926213" xmlns="http://www.w3.org/2000/svg" xmlns:ev="http://www.w3.org/2001/xml-events" xmlns:xlink="http://www.w3.org/1999/xlink"><defs /><rect fill="white" height="43.82913495413959" width="41.79938633926213" x="0" y="0" /><path d="M7.43569771759212, 13.930891528725624 m-1.8944315612316132, -3.1122803688049316 l-0.4059496149420738, -1.6237984597682953 -0.1353165414184332, -2.9769638180732727 l0.9472157806158066, -1.2178488820791245 1.4884819090366364, 0.2706330828368664 l2.30038121342659, 3.5182300209999084 0.8118992298841476, 2.029748111963272 l0.6765826791524887, 0.2706330828368664 5.6832945346832275, -1.6237984597682953 l3.3829134702682495, -0.2706330828368664 5.953927636146545, 0.0 l2.8416472673416138, 1.4884819090366364 0.5412661656737328, -0.6765826791524887 l0.0, -0.9472157806158066 1.6237984597682953, -2.165064662694931 l1.6237984597682953, -0.8118992298841476 1.3531653583049774, 0.1353165414184332 l1.4884819090366364, 1.6237984597682953 0.1353165414184332, 1.3531653583049774 l-1.3531653583049774, 2.029748111963272 -0.2706330828368664, 1.4884819090366364 l2.571014165878296, 6.495193839073181 0.0, 4.059496223926544 l-0.6765826791524887, 1.6237984597682953 -4.194812774658203, 5.5479782819747925 l-2.706330716609955, 2.435697764158249 -4.465445876121521, 3.2475969195365906 l-2.9769638180732727, 1.6237984597682953 -2.571014165878296, 0.8118992298841476 l-3.9241796731948853, 0.2706330828368664 -2.30038121342659, -0.4059496149420738 l-3.7888631224632263, -2.571014165878296 -2.30038121342659, -3.1122803688049316 l-1.3531653583049774, -5.5479782819747925 -0.4059496149420738, -6.224560737609863 l0.8118992298841476, -3.5182300209999084 2.029748111963272, -3.6535465717315674 m9.336841106414795, 15.020135641098022 l-1.6237984597682953, -0.8118992298841476 -1.0825323313474655, -2.706330716609955 l-0.1353165414184332, -4.059496223926544 0.4059496149420738, -0.8118992298841476 l1.6237984597682953, -1.2178488820791245 3.5182300209999084, -1.2178488820791245 l2.571014165878296, 0.2706330828368664 1.2178488820791245, 1.4884819090366364 l0.4059496149420738, 3.2475969195365906 -0.8118992298841476, 1.3531653583049774 l-4.871395528316498, 4.330129325389862 " fill="none" stroke="black" stroke-width="1" /></svg>