<?xml version="1.0" encoding="utf-8" ?>
<svg baseProfile="full" height="40.71685399860144" version="1.1" width="48.294580448418856" xmlns="http://www.w3.org/2000/svg" xmlns:ev="http://www.w3.org/2001/xml-events" xmlns:xlink="http://www.w3.org/1999/xlink"><defs /><rect fill="white" height="40.71685399860144" width="48.294580448418856" x="0" y="0" /><path d="M18.80228640511632, 10.683294627815485 m-1.6237984597682953, -2.706330716609955 l-2.8416472673416138, -1.0825323313474655 -5.142028331756592, -0.4059496149420738 l-2.029748111963272, 0.9472157806158066 -1.3531653583049774, 2.029748111963272 l-0.5412661656737328, 2.706330716609955 2.571014165878296, 5.277345180511475 m11.095956563949585, -7.307093143463135 l1.3531653583049774, -0.1353165414184332 3.6535465717315674, -2.435697764158249 l0.6765826791524887, 0.0 3.2475969195365906, 2.9769638180732727 l2.706330716609955, 1.0825323313474655 0.4059496149420738, 2.165064662694931 l-0.6765826791524887, 1.3531653583049774 -0.2706330828368664, -0.9472157806158066 m0.2706330828368664, -3.2475969195365906 l2.165064662694931, -3.6535465717315674 2.571014165878296, -2.165064662694931 l4.194812774658203, -0.1353165414184332 2.165064662694931, 0.6765826791524887 l1.2178488820791245, 1.4884819090366364 0.6765826791524887, 3.3829134702682495 l-1.2178488820791245, 2.029748111963272 -2.706330716609955, 2.435697764158249 l-2.8416472673416138, 1.2178488820791245 -0.5412661656737328, 0.6765826791524887 l-1.4884819090366364, 0.2706330828368664 m2.029748111963272, 1.2178488820791245 l1.7591150104999542, 2.8416472673416138 0.5412661656737328, 2.029748111963272 l-0.9472157806158066, 3.3829134702682495 -0.9472157806158066, 1.3531653583049774 l-3.2475969195365906, 2.8416472673416138 -2.8416472673416138, 1.3531653583049774 l-0.6765826791524887, 0.0 -0.5412661656737328, -0.8118992298841476 m-21.921279430389404, -13.802287578582764 l-0.6765826791524887, 0.2706330828368664 -1.7591150104999542, 4.330129325389862 l-0.2706330828368664, 3.5182300209999084 1.3531653583049774, 5.006712079048157 l3.2475969195365906, 4.194812774658203 2.706330716609955, 0.8118992298841476 l5.277345180511475, -1.2178488820791245 4.736078977584839, 0.8118992298841476 l2.8416472673416138, -0.6765826791524887 2.165064662694931, -1.0825323313474655 l2.706330716609955, 0.0 0.5412661656737328, -0.6765826791524887 l0.0, -0.8118992298841476 " fill="none" stroke="black" stroke-width="1" /></svg>