<?xml version="1.0" encoding="utf-8" ?>
<svg baseProfile="full" height="41.12280486151576" version="1.1" width="65.6150983273983" xmlns="http://www.w3.org/2000/svg" xmlns:ev="http://www.w3.org/2001/xml-events" xmlns:xlink="http://www.w3.org/1999/xlink"><defs /><rect fill="white" height="41.12280486151576" width="65.6150983273983" x="0" y="0" /><path d="M7.841647332534194, 16.501906719058752 m1.6237984597682953, -6.359877586364746 l0.1353165414184332, -2.9769638180732727 m-1.3531653583049774, 9.336841106414795 l-1.2178488820791245, 2.165064662694931 -1.7591150104999542, 5.006712079048157 l-0.2706330828368664, 5.81861138343811 0.4059496149420738, 2.571014165878296 l1.2178488820791245, 2.9769638180732727 2.029748111963272, 1.0825323313474655 l3.6535465717315674, -0.2706330828368664 1.0825323313474655, -1.4884819090366364 l0.4059496149420738, -1.4884819090366364 0.0, -13.261021375656128 l-1.6237984597682953, -3.6535465717315674 -0.2706330828368664, -6.359877586364746 l-1.4884819090366364, -4.60076242685318 m-0.6765826791524887, 6.089244484901428 l2.029748111963272, 0.0 0.6765826791524887, -1.3531653583049774 l-1.3531653583049774, -0.8118992298841476 -1.3531653583049774, 0.0 l-0.2706330828368664, 0.6765826791524887 1.3531653583049774, 0.2706330828368664 l-1.3531653583049774, 0.6765826791524887 2.165064662694931, -0.2706330828368664 l-1.2178488820791245, -1.2178488820791245 -0.1353165414184332, -0.6765826791524887 l0.6765826791524887, -0.5412661656737328 -2.30038121342659, -0.1353165414184332 l3.3829134702682495, 0.0 -4.465445876121521, -0.1353165414184332 l4.60076242685318, 0.0 m20.297482013702393, 11.90785527229309 l-1.0825323313474655, -3.3829134702682495 0.2706330828368664, -3.3829134702682495 l4.059496223926544, -0.6765826791524887 6.495193839073181, -0.1353165414184332 l5.142028331756592, 2.435697764158249 7.7130430936813354, 5.142028331756592 l2.30038121342659, 2.571014165878296 1.0825323313474655, 2.30038121342659 l-0.4059496149420738, 0.6765826791524887 -3.9241796731948853, 2.435697764158249 l-4.736078977584839, 2.435697764158249 -2.435697764158249, 0.9472157806158066 l-5.006712079048157, 0.2706330828368664 -2.706330716609955, -2.165064662694931 l-5.5479782819747925, -9.607474207878113 -2.029748111963272, -5.277345180511475 l-0.2706330828368664, -3.7888631224632263 0.4059496149420738, -0.2706330828368664 m6.224560737609863, 6.765826940536499 l-0.6765826791524887, -0.2706330828368664 1.2178488820791245, -0.4059496149420738 l2.30038121342659, 0.6765826791524887 0.2706330828368664, 0.8118992298841476 l-0.9472157806158066, 1.3531653583049774 -1.2178488820791245, -1.8944315612316132 m7.036460041999817, 2.165064662694931 l-0.4059496149420738, -1.6237984597682953 0.6765826791524887, -0.5412661656737328 l1.8944315612316132, 0.0 3.6535465717315674, 1.7591150104999542 l1.3531653583049774, 2.571014165878296 -0.1353165414184332, 1.3531653583049774 l-0.8118992298841476, 0.1353165414184332 -6.901143789291382, -3.3829134702682495 l0.0, -0.6765826791524887 0.6765826791524887, -0.2706330828368664 m-3.9241796731948853, 5.142028331756592 l-0.6765826791524887, -0.1353165414184332 0.0, 0.9472157806158066 l3.1122803688049316, 2.8416472673416138 2.30038121342659, 0.6765826791524887 l2.571014165878296, 0.0 5.006712079048157, -1.6237984597682953 l2.8416472673416138, -1.7591150104999542 2.029748111963272, -1.7591150104999542 l1.3531653583049774, -2.706330716609955 m-23.545079231262207, 0.0 l-1.2178488820791245, -2.30038121342659 -1.8944315612316132, -2.30038121342659 l-4.194812774658203, -4.059496223926544 -3.3829134702682495, -2.029748111963272 l-2.165064662694931, 0.0 -2.165064662694931, 1.2178488820791245 l-0.8118992298841476, 0.9472157806158066 -1.4884819090366364, 3.2475969195365906 l0.0, 2.571014165878296 " fill="none" stroke="black" stroke-width="1" /></svg>