<?xml version="1.0" encoding="utf-8" ?>
<svg baseProfile="full" height="73.05750923231244" version="1.1" width="91.18992528878152" xmlns="http://www.w3.org/2000/svg" xmlns:ev="http://www.w3.org/2001/xml-events" xmlns:xlink="http://www.w3.org/1999/xlink"><defs /><rect fill="white" height="73.05750923231244" width="91.18992528878152" x="0" y="0" /><path d="M33.281156765297055, 25.16216428950429 m-0.9472157806158066, 12.719755172729492 l-4.330129325389862, 23.545079231262207 -0.2706330828368664, 4.194812774658203 l0.8118992298841476, 1.3531653583049774 1.4884819090366364, 0.8118992298841476 l3.3829134702682495, 0.1353165414184332 1.3531653583049774, -0.8118992298841476 l2.029748111963272, -5.6832945346832275 0.6765826791524887, -3.1122803688049316 l0.0, -3.5182300209999084 m0.4059496149420738, -0.1353165414184332 l0.2706330828368664, -2.029748111963272 0.8118992298841476, -0.8118992298841476 l2.8416472673416138, -1.3531653583049774 2.029748111963272, 0.1353165414184332 l2.165064662694931, 1.4884819090366364 1.0825323313474655, 1.6237984597682953 l1.0825323313474655, 3.6535465717315674 0.1353165414184332, 5.6832945346832275 l0.4059496149420738, 1.7591150104999542 0.5412661656737328, 1.3531653583049774 l0.6765826791524887, 0.5412661656737328 1.4884819090366364, 0.0 l2.435697764158249, -2.571014165878296 0.8118992298841476, -1.4884819090366364 l0.5412661656737328, -2.571014165878296 0.0, -4.465445876121521 l-0.6765826791524887, -6.089244484901428 m-23.6803936958313, 13.66697072982788 l-0.6765826791524887, 4.059496223926544 0.8118992298841476, -0.1353165414184332 m1.3531653583049774, -2.435697764158249 l0.4059496149420738, 2.8416472673416138 0.9472157806158066, 0.5412661656737328 l1.2178488820791245, -0.2706330828368664 m15.561401844024658, -5.41266143321991 l0.2706330828368664, 3.6535465717315674 m1.0825323313474655, -2.435697764158249 l0.8118992298841476, 2.30038121342659 m1.8944315612316132, -15.426086187362671 l0.2706330828368664, -10.82532286643982 -1.6237984597682953, -15.426086187362671 m-12.178488969802856, 13.396337032318115 l-0.6765826791524887, 0.0 -0.5412661656737328, 0.6765826791524887 l-0.2706330828368664, 2.8416472673416138 0.4059496149420738, 0.6765826791524887 l2.8416472673416138, 2.165064662694931 2.9769638180732727, 0.0 l0.6765826791524887, -0.1353165414184332 1.6237984597682953, -2.30038121342659 l0.2706330828368664, -4.736078977584839 -0.9472157806158066, -1.4884819090366364 l-3.5182300209999084, -0.4059496149420738 -2.029748111963272, 1.4884819090366364 l-0.6765826791524887, 1.6237984597682953 m-9.20152485370636, -7.036460041999817 l-5.41266143321991, 0.0 -4.736078977584839, -1.3531653583049774 l-8.389625549316406, -1.4884819090366364 m19.620898962020874, -1.6237984597682953 l-9.742791056632996, -1.6237984597682953 -6.901143789291382, -0.1353165414184332 l-2.029748111963272, -0.4059496149420738 m-0.5412661656737328, -0.4059496149420738 l-6.224560737609863, -0.2706330828368664 -1.8944315612316132, 0.4059496149420738 l-0.6765826791524887, 0.4059496149420738 0.0, 0.8118992298841476 l1.3531653583049774, 0.5412661656737328 5.277345180511475, 0.5412661656737328 l-2.30038121342659, 0.2706330828368664 0.1353165414184332, 0.6765826791524887 l-3.9241796731948853, 0.8118992298841476 0.6765826791524887, 0.5412661656737328 l3.7888631224632263, 0.5412661656737328 6.901143789291382, 0.4059496149420738 m37.21204996109009, -3.5182300209999084 l14.072920083999634, 0.0 6.495193839073181, -0.6765826791524887 m-19.620898962020874, 4.736078977584839 l17.32051730155945, 0.0 4.194812774658203, -0.5412661656737328 m-1.4884819090366364, -4.194812774658203 l8.930891752243042, 1.4884819090366364 2.165064662694931, 0.0 l-8.524942398071289, 0.9472157806158066 1.2178488820791245, 0.6765826791524887 l4.330129325389862, 1.0825323313474655 -5.006712079048157, 1.4884819090366364 l-3.5182300209999084, -0.2706330828368664 m-40.594964027404785, -5.277345180511475 l-1.3531653583049774, -0.5412661656737328 -0.2706330828368664, -4.194812774658203 l0.4059496149420738, -2.165064662694931 1.4884819090366364, -2.30038121342659 l2.9769638180732727, -1.7591150104999542 2.435697764158249, -0.8118992298841476 l6.630510687828064, -0.9472157806158066 13.125704526901245, -0.5412661656737328 l4.871395528316498, 0.4059496149420738 0.8118992298841476, 1.8944315612316132 l-0.4059496149420738, 3.1122803688049316 -0.9472157806158066, 2.9769638180732727 l-1.4884819090366364, 2.165064662694931 -2.9769638180732727, 0.9472157806158066 l-5.6832945346832275, -0.4059496149420738 m-18.40304970741272, -8.660258650779724 l-1.7591150104999542, -0.5412661656737328 -1.8944315612316132, -2.8416472673416138 l0.0, -3.5182300209999084 1.7591150104999542, -1.8944315612316132 l4.330129325389862, -0.9472157806158066 3.2475969195365906, 0.2706330828368664 l0.9472157806158066, 1.7591150104999542 -0.2706330828368664, 2.571014165878296 m21.65064573287964, -3.5182300209999084 l2.435697764158249, 0.0 " fill="none" stroke="black" stroke-width="1" /></svg>