<?xml version="1.0" encoding="utf-8" ?>
<svg baseProfile="full" height="78.47016881220043" version="1.1" width="60.20243615843356" xmlns="http://www.w3.org/2000/svg" xmlns:ev="http://www.w3.org/2001/xml-events" xmlns:xlink="http://www.w3.org/1999/xlink"><defs /><rect fill="white" height="78.47016881220043" width="60.20243615843356" x="0" y="0" /><path d="M21.102666929364204, 24.485581889748573 m0.9472157806158066, -9.472157955169678 l0.5412661656737328, -1.6237984597682953 1.4884819090366364, -2.30038121342659 l5.006712079048157, -3.7888631224632263 4.60076242685318, -1.4884819090366364 l10.690007209777832, -0.8118992298841476 5.277345180511475, 0.4059496149420738 l2.571014165878296, 1.3531653583049774 1.2178488820791245, 1.4884819090366364 l0.9472157806158066, 2.8416472673416138 -0.1353165414184332, 3.3829134702682495 l-0.8118992298841476, 1.6237984597682953 -6.089244484901428, 6.495193839073181 l-5.41266143321991, 2.165064662694931 -1.7591150104999542, 1.2178488820791245 l-0.6765826791524887, 0.6765826791524887 -0.1353165414184332, 2.165064662694931 l0.4059496149420738, 1.8944315612316132 2.165064662694931, 1.2178488820791245 l1.7591150104999542, 1.8944315612316132 1.4884819090366364, 2.571014165878296 l8.795575499534607, 10.82532286643982 1.0825323313474655, 3.6535465717315674 l0.1353165414184332, 3.7888631224632263 -1.2178488820791245, 5.006712079048157 l-0.5412661656737328, 0.6765826791524887 -0.9472157806158066, 0.0 l-5.006712079048157, -3.6535465717315674 -1.7591150104999542, -1.7591150104999542 l-3.2475969195365906, -3.9241796731948853 -1.3531653583049774, -2.706330716609955 l-1.3531653583049774, 0.0 -2.165064662694931, 2.30038121342659 l-0.6765826791524887, 2.706330716609955 0.4059496149420738, 1.8944315612316132 l2.30038121342659, 3.1122803688049316 0.2706330828368664, 2.029748111963272 l0.2706330828368664, 7.983676195144653 -0.9472157806158066, 3.3829134702682495 l-1.6237984597682953, 1.3531653583049774 -0.8118992298841476, 0.1353165414184332 l-2.435697764158249, -1.6237984597682953 -0.4059496149420738, -0.8118992298841476 l-0.5412661656737328, -5.277345180511475 -0.8118992298841476, -2.435697764158249 l-2.029748111963272, 2.9769638180732727 -0.6765826791524887, 3.7888631224632263 l-1.3531653583049774, 2.435697764158249 -2.8416472673416138, 1.2178488820791245 l-1.3531653583049774, -0.2706330828368664 -1.6237984597682953, -1.7591150104999542 l-0.8118992298841476, -1.6237984597682953 -0.1353165414184332, -12.855072021484375 l-2.029748111963272, -7.577726244926453 -0.6765826791524887, -0.8118992298841476 l-1.7591150104999542, -0.8118992298841476 -2.435697764158249, 0.2706330828368664 l-3.5182300209999084, 4.194812774658203 -1.0825323313474655, 0.8118992298841476 l-0.9472157806158066, -0.1353165414184332 -4.059496223926544, -4.059496223926544 l-0.2706330828368664, -1.6237984597682953 0.1353165414184332, -3.1122803688049316 l1.7591150104999542, -3.2475969195365906 5.006712079048157, -5.142028331756592 l5.5479782819747925, -7.036460041999817 3.5182300209999084, -2.435697764158249 l0.5412661656737328, -1.3531653583049774 -0.1353165414184332, -2.30038121342659 " fill="none" stroke="black" stroke-width="1" /></svg>