<?xml version="1.0" encoding="utf-8" ?>
<svg baseProfile="full" height="62.77345100417733" version="1.1" width="71.02775981649756" xmlns="http://www.w3.org/2000/svg" xmlns:ev="http://www.w3.org/2001/xml-events" xmlns:xlink="http://www.w3.org/1999/xlink"><defs /><rect fill="white" height="62.77345100417733" width="71.02775981649756" x="0" y="0" /><path d="M26.380012575536966, 28.545079110190272 m0.5412661656737328, -1.8944315612316132 l2.435697764158249, -3.1122803688049316 3.6535465717315674, -1.4884819090366364 l3.6535465717315674, -0.2706330828368664 1.6237984597682953, 0.0 l2.30038121342659, 1.0825323313474655 3.9241796731948853, 3.5182300209999084 l1.2178488820791245, 1.7591150104999542 1.2178488820791245, 3.2475969195365906 l0.1353165414184332, 4.465445876121521 -2.435697764158249, 4.330129325389862 l0.0, 2.706330716609955 0.0, -0.8118992298841476 l-3.7888631224632263, 1.2178488820791245 -5.006712079048157, -0.2706330828368664 l-3.7888631224632263, -1.4884819090366364 -1.6237984597682953, -2.165064662694931 l-2.571014165878296, -7.983676195144653 -1.8944315612316132, -1.8944315612316132 l-0.2706330828368664, -1.0825323313474655 m8.795575499534607, -1.0825323313474655 l1.4884819090366364, 2.706330716609955 4.194812774658203, 5.41266143321991 l2.165064662694931, -7.442409992218018 -0.6765826791524887, -0.8118992298841476 l-3.2475969195365906, 0.2706330828368664 -2.9769638180732727, -0.2706330828368664 m-12.31380581855774, -6.630510687828064 l-3.2475969195365906, 0.1353165414184332 -0.6765826791524887, -0.5412661656737328 l-0.1353165414184332, -5.41266143321991 0.1353165414184332, -0.8118992298841476 l0.9472157806158066, -0.8118992298841476 1.8944315612316132, -0.5412661656737328 l2.30038121342659, 0.1353165414184332 1.0825323313474655, 2.9769638180732727 l0.0, 2.30038121342659 -0.6765826791524887, 2.029748111963272 l-1.0825323313474655, 0.9472157806158066 m24.356977939605713, -1.4884819090366364 l-1.7591150104999542, -1.0825323313474655 -1.4884819090366364, -2.30038121342659 l-0.1353165414184332, -3.3829134702682495 0.4059496149420738, -0.8118992298841476 l1.7591150104999542, -0.6765826791524887 2.029748111963272, 0.0 l0.9472157806158066, 0.4059496149420738 1.6237984597682953, 2.571014165878296 l0.0, 2.706330716609955 -1.8944315612316132, 2.165064662694931 l-1.0825323313474655, 0.0 m-41.81281089782715, -2.9769638180732727 l-1.2178488820791245, -4.736078977584839 -0.4059496149420738, -4.871395528316498 l0.2706330828368664, -0.6765826791524887 1.7591150104999542, -0.4059496149420738 l5.81861138343811, 0.1353165414184332 2.9769638180732727, 2.706330716609955 l12.178488969802856, -0.2706330828368664 4.194812774658203, 0.9472157806158066 l6.765826940536499, 0.2706330828368664 2.571014165878296, 1.0825323313474655 l-0.8118992298841476, 0.4059496149420738 6.089244484901428, -3.3829134702682495 l9.066208004951477, -2.30038121342659 3.1122803688049316, 0.0 l1.3531653583049774, 0.4059496149420738 4.059496223926544, 3.1122803688049316 l1.6237984597682953, 2.165064662694931 -0.1353165414184332, 0.6765826791524887 l-2.571014165878296, 2.30038121342659 -2.30038121342659, 1.2178488820791245 l-4.60076242685318, 1.3531653583049774 0.1353165414184332, 1.6237984597682953 l4.330129325389862, 6.901143789291382 1.0825323313474655, 4.194812774658203 l-0.2706330828368664, 15.832035541534424 -1.7591150104999542, 5.142028331756592 l-1.4884819090366364, 2.029748111963272 -2.706330716609955, 0.8118992298841476 l-7.7130430936813354, 3.7888631224632263 -3.5182300209999084, 0.9472157806158066 l-3.9241796731948853, 0.2706330828368664 -5.5479782819747925, -0.8118992298841476 l-3.6535465717315674, -2.435697764158249 -1.6237984597682953, -0.1353165414184332 l-4.465445876121521, -2.165064662694931 -4.465445876121521, -2.8416472673416138 l-7.036460041999817, -5.6832945346832275 -3.6535465717315674, -13.802287578582764 l-1.2178488820791245, -6.495193839073181 -0.4059496149420738, -7.442409992218018 l0.6765826791524887, -0.6765826791524887 " fill="none" stroke="black" stroke-width="1" /></svg>