<?xml version="1.0" encoding="utf-8" ?>
<svg baseProfile="full" height="73.32814059220254" version="1.1" width="72.5162413995713" xmlns="http://www.w3.org/2000/svg" xmlns:ev="http://www.w3.org/2001/xml-events" xmlns:xlink="http://www.w3.org/1999/xlink"><defs /><rect fill="white" height="73.32814059220254" width="72.5162413995713" x="0" y="0" /><path d="M17.990388004109263, 25.568114100024104 m-2.165064662694931, 0.8118992298841476 l-3.2475969195365906, 3.5182300209999084 -2.30038121342659, 4.871395528316498 l-2.30038121342659, 7.307093143463135 -1.8944315612316132, 11.501905918121338 l0.0, 4.059496223926544 1.4884819090366364, 5.953927636146545 l1.7591150104999542, 2.8416472673416138 2.9769638180732727, 1.3531653583049774 l7.8483593463897705, 0.5412661656737328 5.006712079048157, 0.0 l4.60076242685318, -1.0825323313474655 2.706330716609955, -1.2178488820791245 l6.630510687828064, -5.6832945346832275 9.066208004951477, -6.765826940536499 l2.029748111963272, -2.30038121342659 2.571014165878296, -4.059496223926544 l0.8118992298841476, -2.30038121342659 0.4059496149420738, -2.435697764158249 l-0.1353165414184332, -3.3829134702682495 -1.8944315612316132, -4.194812774658203 l-3.3829134702682495, -5.142028331756592 -2.706330716609955, -2.706330716609955 l-3.1122803688049316, -1.8944315612316132 -4.194812774658203, -1.7591150104999542 l-4.059496223926544, -0.9472157806158066 -14.208236932754517, 0.0 l-2.30038121342659, 1.7591150104999542 -3.7888631224632263, 7.036460041999817 m-2.571014165878296, -0.9472157806158066 l-1.8944315612316132, -1.7591150104999542 -1.7591150104999542, -3.7888631224632263 l-2.30038121342659, -6.089244484901428 -0.6765826791524887, -3.7888631224632263 l0.0, -1.7591150104999542 1.0825323313474655, -2.706330716609955 l4.194812774658203, -4.60076242685318 1.3531653583049774, -0.6765826791524887 l3.3829134702682495, -0.1353165414184332 2.165064662694931, 0.6765826791524887 l3.1122803688049316, 1.8944315612316132 2.706330716609955, 2.571014165878296 l1.2178488820791245, 2.029748111963272 0.6765826791524887, 2.165064662694931 l0.4059496149420738, 11.772539615631104 m14.61418628692627, -5.277345180511475 l4.465445876121521, -4.194812774658203 5.006712079048157, -3.9241796731948853 l2.029748111963272, -1.2178488820791245 2.8416472673416138, -0.8118992298841476 l4.059496223926544, 0.4059496149420738 3.3829134702682495, 1.8944315612316132 l3.5182300209999084, 3.1122803688049316 2.165064662694931, 3.2475969195365906 l0.1353165414184332, 4.194812774658203 -0.4059496149420738, 1.2178488820791245 l-2.029748111963272, 4.330129325389862 -2.8416472673416138, 4.059496223926544 l-5.41266143321991, 5.41266143321991 -4.194812774658203, 2.571014165878296 l-3.9241796731948853, 1.7591150104999542 m-24.62761163711548, -11.63722276687622 l-2.30038121342659, 0.5412661656737328 -1.3531653583049774, 1.2178488820791245 l-0.8118992298841476, 1.7591150104999542 0.4059496149420738, 2.706330716609955 l1.6237984597682953, 1.6237984597682953 1.4884819090366364, 0.5412661656737328 l5.277345180511475, 0.1353165414184332 3.6535465717315674, -0.5412661656737328 l1.3531653583049774, -1.2178488820791245 0.0, -4.736078977584839 l-1.3531653583049774, -1.7591150104999542 -2.706330716609955, -1.8944315612316132 l-1.6237984597682953, -0.8118992298841476 -0.6765826791524887, 0.1353165414184332 l-0.2706330828368664, 0.6765826791524887 m16.237984895706177, 5.81861138343811 l-1.8944315612316132, -0.1353165414184332 -2.8416472673416138, 1.6237984597682953 l-1.8944315612316132, 3.6535465717315674 0.0, 2.435697764158249 l0.9472157806158066, 2.30038121342659 2.30038121342659, 2.706330716609955 l2.9769638180732727, 0.5412661656737328 1.3531653583049774, -0.6765826791524887 l1.0825323313474655, -2.9769638180732727 0.0, -2.571014165878296 l-0.9472157806158066, -3.3829134702682495 m-17.32051730155945, 6.089244484901428 l-0.4059496149420738, 2.165064662694931 -2.8416472673416138, 3.9241796731948853 l-2.571014165878296, 1.2178488820791245 -3.7888631224632263, -0.1353165414184332 " fill="none" stroke="black" stroke-width="1" /></svg>