<?xml version="1.0" encoding="utf-8" ?>
<svg baseProfile="full" height="40.04027208313346" version="1.1" width="46.6707818210125" xmlns="http://www.w3.org/2000/svg" xmlns:ev="http://www.w3.org/2001/xml-events" xmlns:xlink="http://www.w3.org/1999/xlink"><defs /><rect fill="white" height="40.04027208313346" width="46.6707818210125" x="0" y="0" /><path d="M29.627610007300973, 6.623798906803131 m-3.7888631224632263, 0.2706330828368664 l-8.254309296607971, 2.706330716609955 -4.194812774658203, 2.8416472673416138 l-0.8118992298841476, 1.7591150104999542 0.0, 6.765826940536499 l1.8944315612316132, 3.9241796731948853 3.5182300209999084, 4.465445876121521 l2.8416472673416138, 2.571014165878296 3.1122803688049316, 2.165064662694931 l3.5182300209999084, 0.9472157806158066 3.2475969195365906, -0.2706330828368664 l3.7888631224632263, -4.330129325389862 2.571014165878296, -7.442409992218018 l2.165064662694931, -9.336841106414795 -0.5412661656737328, -2.435697764158249 l-1.0825323313474655, -2.029748111963272 -1.6237984597682953, -0.8118992298841476 l-6.765826940536499, -1.7591150104999542 m7.983676195144653, 1.2178488820791245 l0.1353165414184332, -2.165064662694931 2.435697764158249, -0.6765826791524887 l0.6765826791524887, 0.2706330828368664 0.4059496149420738, 0.8118992298841476 l0.8118992298841476, 2.8416472673416138 0.0, 5.142028331756592 l-0.9472157806158066, 1.6237984597682953 -1.4884819090366364, 1.2178488820791245 l-0.5412661656737328, 0.0 m-21.65064573287964, -9.066208004951477 l-0.6765826791524887, -0.5412661656737328 -6.901143789291382, -1.2178488820791245 l-3.2475969195365906, 0.0 -0.6765826791524887, 0.4059496149420738 l-0.5412661656737328, 2.029748111963272 0.1353165414184332, 2.30038121342659 l1.7591150104999542, 3.3829134702682495 2.571014165878296, 1.7591150104999542 m0.4059496149420738, 0.1353165414184332 l0.4059496149420738, 0.1353165414184332 " fill="none" stroke="black" stroke-width="1" /></svg>