<?xml version="1.0" encoding="utf-8" ?>
<svg baseProfile="full" height="47.75331452488899" version="1.1" width="46.94141577929258" xmlns="http://www.w3.org/2000/svg" xmlns:ev="http://www.w3.org/2001/xml-events" xmlns:xlink="http://www.w3.org/1999/xlink"><defs /><rect fill="white" height="47.75331452488899" width="46.94141577929258" x="0" y="0" /><path d="M14.607474952936172, 17.313805017620325 m1.6237984597682953, -0.9472157806158066 l3.2475969195365906, -0.9472157806158066 9.472157955169678, -1.2178488820791245 l3.1122803688049316, 0.1353165414184332 2.029748111963272, 0.5412661656737328 l2.30038121342659, 2.165064662694931 0.9472157806158066, 1.6237984597682953 l0.4059496149420738, 1.8944315612316132 -1.0825323313474655, 4.871395528316498 l-1.8944315612316132, 3.3829134702682495 -2.30038121342659, 2.571014165878296 l-2.30038121342659, 1.7591150104999542 -2.571014165878296, 1.2178488820791245 l-4.330129325389862, 0.1353165414184332 -7.7130430936813354, -1.8944315612316132 l-3.2475969195365906, -1.8944315612316132 -2.029748111963272, -2.029748111963272 l-0.8118992298841476, -1.4884819090366364 0.0, -2.30038121342659 l0.5412661656737328, -2.571014165878296 2.165064662694931, -3.3829134702682495 l5.006712079048157, -2.8416472673416138 3.7888631224632263, -0.4059496149420738 m7.036460041999817, -0.8118992298841476 l0.0, -2.165064662694931 0.4059496149420738, -2.435697764158249 l1.0825323313474655, -2.029748111963272 1.4884819090366364, -1.4884819090366364 l3.3829134702682495, -1.7591150104999542 4.059496223926544, 0.5412661656737328 l2.8416472673416138, 1.3531653583049774 0.6765826791524887, 2.165064662694931 l-0.4059496149420738, 2.165064662694931 -2.571014165878296, 3.3829134702682495 l-1.8944315612316132, 1.0825323313474655 -3.2475969195365906, 0.9472157806158066 m-18.67368221282959, 16.64393424987793 l-0.8118992298841476, 3.7888631224632263 0.0, 4.059496223926544 l0.6765826791524887, 0.0 2.165064662694931, -3.2475969195365906 l0.0, -1.4884819090366364 -1.6237984597682953, -1.6237984597682953 m5.41266143321991, 1.4884819090366364 l-0.8118992298841476, 3.2475969195365906 0.0, 1.6237984597682953 l0.6765826791524887, 1.2178488820791245 1.2178488820791245, 0.4059496149420738 l1.7591150104999542, -4.330129325389862 0.0, -1.3531653583049774 l-0.9472157806158066, -1.3531653583049774 m4.60076242685318, -1.6237984597682953 l-0.6765826791524887, 3.6535465717315674 0.4059496149420738, 2.029748111963272 l0.6765826791524887, 0.2706330828368664 0.6765826791524887, -0.1353165414184332 l0.6765826791524887, -1.6237984597682953 -1.0825323313474655, -3.2475969195365906 m3.1122803688049316, -1.7591150104999542 l-0.2706330828368664, 4.871395528316498 0.5412661656737328, 1.2178488820791245 l1.0825323313474655, 0.0 0.8118992298841476, -0.9472157806158066 l0.2706330828368664, -1.3531653583049774 -2.165064662694931, -2.029748111963272 m-18.538366556167603, -15.561401844024658 l-2.30038121342659, -0.9472157806158066 -2.435697764158249, 0.1353165414184332 l-1.7591150104999542, 1.0825323313474655 -0.8118992298841476, 1.3531653583049774 l-0.6765826791524887, 3.3829134702682495 0.4059496149420738, 1.7591150104999542 l0.8118992298841476, 0.4059496149420738 1.3531653583049774, 0.1353165414184332 l1.6237984597682953, -0.5412661656737328 " fill="none" stroke="black" stroke-width="1" /></svg>