<?xml version="1.0" encoding="utf-8" ?>
<svg baseProfile="full" height="66.15636460483074" version="1.1" width="66.02104799821973" xmlns="http://www.w3.org/2000/svg" xmlns:ev="http://www.w3.org/2001/xml-events" xmlns:xlink="http://www.w3.org/1999/xlink"><defs /><rect fill="white" height="66.15636460483074" width="66.02104799821973" x="0" y="0" /><path d="M19.072920102626085, 15.284056700766087 m0.1353165414184332, -1.7591150104999542 l0.8118992298841476, -1.2178488820791245 1.2178488820791245, -0.8118992298841476 l3.7888631224632263, -1.3531653583049774 5.81861138343811, -0.2706330828368664 l1.4884819090366364, 0.8118992298841476 4.059496223926544, 5.277345180511475 l-0.5412661656737328, -2.9769638180732727 0.0, -3.2475969195365906 l1.6237984597682953, -2.571014165878296 3.1122803688049316, -1.8944315612316132 l3.6535465717315674, -0.2706330828368664 1.3531653583049774, 0.5412661656737328 l1.8944315612316132, 1.3531653583049774 1.2178488820791245, 1.7591150104999542 l0.5412661656737328, 3.2475969195365906 -0.2706330828368664, 3.1122803688049316 l-9.87810730934143, 8.524942398071289 -2.9769638180732727, 2.029748111963272 l-2.706330716609955, 1.0825323313474655 0.1353165414184332, 0.6765826791524887 l5.6832945346832275, 3.9241796731948853 1.3531653583049774, 2.029748111963272 l1.4884819090366364, 8.795575499534607 10.148741006851196, -2.029748111963272 l2.029748111963272, -0.8118992298841476 0.5412661656737328, -2.8416472673416138 l-0.5412661656737328, -6.089244484901428 0.5412661656737328, -0.9472157806158066 l5.6832945346832275, -0.5412661656737328 0.5412661656737328, 1.0825323313474655 l-0.1353165414184332, 0.9472157806158066 -2.30038121342659, 4.871395528316498 l-0.1353165414184332, 3.9241796731948853 -2.435697764158249, 2.706330716609955 l-3.1122803688049316, 2.571014165878296 -5.277345180511475, 2.165064662694931 l-2.30038121342659, 0.2706330828368664 -2.165064662694931, 1.8944315612316132 l-1.6237984597682953, 0.5412661656737328 -0.4059496149420738, 0.6765826791524887 l-0.2706330828368664, 3.9241796731948853 3.5182300209999084, 0.8118992298841476 l4.736078977584839, 0.2706330828368664 2.165064662694931, 1.2178488820791245 l0.5412661656737328, 3.2475969195365906 -2.029748111963272, 1.2178488820791245 l-9.20152485370636, -0.1353165414184332 -2.30038121342659, -0.5412661656737328 l-2.571014165878296, -2.029748111963272 -6.089244484901428, -2.30038121342659 l-0.8118992298841476, -3.1122803688049316 -2.165064662694931, 0.8118992298841476 l-3.3829134702682495, -0.2706330828368664 -0.2706330828368664, 2.435697764158249 l-2.029748111963272, 0.2706330828368664 -2.165064662694931, 1.6237984597682953 l-3.7888631224632263, 0.9472157806158066 -8.389625549316406, 0.2706330828368664 l-0.8118992298841476, -0.5412661656737328 -0.8118992298841476, -1.4884819090366364 l0.0, -2.30038121342659 0.9472157806158066, -1.7591150104999542 l1.6237984597682953, -1.0825323313474655 5.41266143321991, -0.8118992298841476 l0.9472157806158066, -0.5412661656737328 1.3531653583049774, -1.8944315612316132 l0.0, -0.6765826791524887 -2.571014165878296, -2.029748111963272 l-2.029748111963272, -2.706330716609955 " fill="none" stroke="black" stroke-width="1" /></svg>