<?xml version="1.0" encoding="utf-8" ?>
<svg baseProfile="full" height="42.475970024243" version="1.1" width="41.79938671179116" xmlns="http://www.w3.org/2000/svg" xmlns:ev="http://www.w3.org/2001/xml-events" xmlns:xlink="http://www.w3.org/1999/xlink"><defs /><rect fill="white" height="42.475970024243" width="41.79938671179116" x="0" y="0" /><path d="M24.62089767679572, 7.435697764158249 m-1.2178488820791245, -0.8118992298841476 l-2.435697764158249, -0.1353165414184332 -7.442409992218018, 2.435697764158249 l-1.4884819090366364, 2.029748111963272 -2.435697764158249, 5.81861138343811 l-1.0825323313474655, 5.006712079048157 -0.6765826791524887, 6.359877586364746 l-0.1353165414184332, 2.8416472673416138 0.5412661656737328, 2.9769638180732727 l0.6765826791524887, 1.4884819090366364 1.8944315612316132, 1.2178488820791245 l2.8416472673416138, 0.8118992298841476 2.435697764158249, 0.0 l7.7130430936813354, -2.165064662694931 3.7888631224632263, -2.165064662694931 l3.3829134702682495, -2.9769638180732727 2.435697764158249, -4.194812774658203 l0.9472157806158066, -5.953927636146545 -0.2706330828368664, -3.2475969195365906 l-0.9472157806158066, -3.7888631224632263 -3.2475969195365906, -4.194812774658203 l-1.7591150104999542, -1.0825323313474655 -1.8944315612316132, -0.4059496149420738 m-11.366589069366455, 9.336841106414795 l-0.5412661656737328, 1.8944315612316132 0.2706330828368664, 0.6765826791524887 l0.6765826791524887, 0.4059496149420738 1.4884819090366364, 0.0 l1.3531653583049774, -0.4059496149420738 1.2178488820791245, -1.6237984597682953 l0.0, -1.4884819090366364 -0.4059496149420738, -0.6765826791524887 l-0.6765826791524887, -0.1353165414184332 -1.2178488820791245, 0.5412661656737328 l-1.2178488820791245, 2.029748111963272 0.0, 0.6765826791524887 l0.8118992298841476, 0.4059496149420738 1.0825323313474655, -0.1353165414184332 l1.0825323313474655, -1.0825323313474655 -0.2706330828368664, -0.8118992298841476 l-0.8118992298841476, -0.4059496149420738 -0.6765826791524887, 0.1353165414184332 l-0.4059496149420738, 0.8118992298841476 0.0, 0.8118992298841476 l0.8118992298841476, 0.8118992298841476 m8.930891752243042, -4.059496223926544 l-1.0825323313474655, 1.7591150104999542 -0.1353165414184332, 1.3531653583049774 l0.6765826791524887, 0.1353165414184332 1.0825323313474655, -0.9472157806158066 l0.0, -1.3531653583049774 -0.6765826791524887, -0.2706330828368664 l-0.2706330828368664, 0.6765826791524887 0.2706330828368664, 0.6765826791524887 l1.2178488820791245, -0.4059496149420738 0.0, -0.6765826791524887 l-0.8118992298841476, -0.4059496149420738 -1.2178488820791245, 1.3531653583049774 l-0.1353165414184332, 0.8118992298841476 m-16.914567947387695, -5.277345180511475 l-0.4059496149420738, -1.4884819090366364 0.1353165414184332, -1.8944315612316132 l0.8118992298841476, -1.6237984597682953 1.4884819090366364, -1.2178488820791245 l2.165064662694931, -0.4059496149420738 0.5412661656737328, 0.5412661656737328 l0.2706330828368664, 1.6237984597682953 -0.9472157806158066, 2.706330716609955 m17.45583415031433, -2.435697764158249 l2.029748111963272, -1.7591150104999542 2.30038121342659, -0.6765826791524887 l1.0825323313474655, 0.0 1.0825323313474655, 1.3531653583049774 l0.0, 0.5412661656737328 -2.571014165878296, 3.1122803688049316 l-2.706330716609955, 1.0825323313474655 m-26.116092205047607, 1.3531653583049774 l1.3531653583049774, 1.2178488820791245 1.6237984597682953, 0.6765826791524887 m-0.4059496149420738, -3.1122803688049316 l0.4059496149420738, 3.2475969195365906 -0.5412661656737328, 0.1353165414184332 l-0.1353165414184332, -3.7888631224632263 1.8944315612316132, -4.871395528316498 l1.3531653583049774, -1.3531653583049774 1.2178488820791245, 0.0 l0.4059496149420738, 0.8118992298841476 0.4059496149420738, 1.4884819090366364 l0.0, 2.165064662694931 m18.267732858657837, -2.029748111963272 l3.3829134702682495, -2.571014165878296 1.3531653583049774, -0.2706330828368664 l1.2178488820791245, 0.2706330828368664 0.0, 1.6237984597682953 l-3.3829134702682495, 3.3829134702682495 " fill="none" stroke="black" stroke-width="1" /></svg>