<?xml version="1.0" encoding="utf-8" ?>
<svg baseProfile="full" height="72.24560860544443" version="1.1" width="46.535466061905026" xmlns="http://www.w3.org/2000/svg" xmlns:ev="http://www.w3.org/2001/xml-events" xmlns:xlink="http://www.w3.org/1999/xlink"><defs /><rect fill="white" height="72.24560860544443" width="46.535466061905026" x="0" y="0" /><path d="M17.584438724443316, 38.2878699246794 m5.5479782819747925, -3.9241796731948853 l2.571014165878296, -0.6765826791524887 3.7888631224632263, 0.0 l1.2178488820791245, 1.2178488820791245 0.1353165414184332, 2.30038121342659 m-12.449121475219727, 6.901143789291382 l-0.2706330828368664, -4.736078977584839 2.30038121342659, -3.2475969195365906 l3.7888631224632263, -1.8944315612316132 6.359877586364746, -0.2706330828368664 l0.4059496149420738, 0.8118992298841476 0.1353165414184332, 14.3435537815094 l0.5412661656737328, 3.3829134702682495 -0.2706330828368664, 7.983676195144653 l0.5412661656737328, 0.6765826791524887 m-1.2178488820791245, -27.604575157165527 l0.0, 0.0 m-12.31380581855774, 3.3829134702682495 l-1.0825323313474655, 2.435697764158249 0.0, 1.3531653583049774 l1.3531653583049774, 0.4059496149420738 m12.449121475219727, -7.7130430936813354 l0.6765826791524887, -3.9241796731948853 1.2178488820791245, -1.0825323313474655 l2.165064662694931, -0.1353165414184332 0.2706330828368664, -0.8118992298841476 l0.0, -1.4884819090366364 -1.3531653583049774, -5.81861138343811 l0.4059496149420738, -12.855072021484375 -0.5412661656737328, -1.6237984597682953 l-0.9472157806158066, -0.6765826791524887 m-2.571014165878296, 11.63722276687622 l-2.435697764158249, 0.4059496149420738 -1.6237984597682953, 1.0825323313474655 m6.359877586364746, 38.565213680267334 l3.2475969195365906, -0.1353165414184332 2.8416472673416138, 2.029748111963272 l1.7591150104999542, 2.435697764158249 0.6765826791524887, 1.7591150104999542 l0.2706330828368664, 2.435697764158249 -0.6765826791524887, 1.0825323313474655 l-1.8944315612316132, 0.8118992298841476 -7.1717768907547, 0.1353165414184332 l-2.706330716609955, -0.8118992298841476 -2.165064662694931, -1.4884819090366364 m-7.8483593463897705, -19.620898962020874 l-3.3829134702682495, 3.6535465717315674 -2.029748111963272, 3.5182300209999084 l-0.4059496149420738, 2.571014165878296 0.1353165414184332, 3.7888631224632263 l2.30038121342659, 3.1122803688049316 3.3829134702682495, 2.029748111963272 l4.059496223926544, 0.1353165414184332 1.6237984597682953, -1.2178488820791245 m-5.953927636146545, -23.81571054458618 l5.277345180511475, 0.1353165414184332 6.765826940536499, -2.029748111963272 m-5.6832945346832275, -2.029748111963272 l0.2706330828368664, 3.2475969195365906 m-7.442409992218018, 3.5182300209999084 l-0.2706330828368664, 1.6237984597682953 -1.3531653583049774, 1.2178488820791245 l-8.930891752243042, 5.5479782819747925 -2.435697764158249, 2.8416472673416138 m16.779251098632812, -18.267732858657837 l-3.7888631224632263, -0.1353165414184332 -2.435697764158249, 1.4884819090366364 l-4.330129325389862, 4.194812774658203 -2.165064662694931, 4.059496223926544 m13.396337032318115, -11.366589069366455 " fill="none" stroke="black" stroke-width="1" /></svg>