<?xml version="1.0" encoding="utf-8" ?>
<svg baseProfile="full" height="28.40304946526885" version="1.1" width="31.515329806134105" xmlns="http://www.w3.org/2000/svg" xmlns:ev="http://www.w3.org/2001/xml-events" xmlns:xlink="http://www.w3.org/1999/xlink"><defs /><rect fill="white" height="28.40304946526885" width="31.515329806134105" x="0" y="0" /><path d="M7.1650646440684795, 13.79557503387332 m-1.8944315612316132, -3.1122803688049316 l-0.2706330828368664, -1.8944315612316132 0.5412661656737328, -2.165064662694931 l1.2178488820791245, -1.3531653583049774 0.9472157806158066, -0.2706330828368664 l1.2178488820791245, 0.0 1.2178488820791245, 0.6765826791524887 l1.7591150104999542, 3.9241796731948853 0.5412661656737328, 0.2706330828368664 l3.7888631224632263, 0.0 1.8944315612316132, 0.9472157806158066 l0.4059496149420738, -1.4884819090366364 1.2178488820791245, -1.6237984597682953 l0.5412661656737328, -0.5412661656737328 1.6237984597682953, -0.2706330828368664 l2.706330716609955, 0.2706330828368664 1.3531653583049774, 1.7591150104999542 l0.4059496149420738, 1.2178488820791245 0.1353165414184332, 2.706330716609955 l-1.4884819090366364, 5.277345180511475 -4.059496223926544, 3.2475969195365906 l-2.9769638180732727, 1.4884819090366364 -6.089244484901428, 0.5412661656737328 l-2.029748111963272, -0.6765826791524887 -1.8944315612316132, -1.3531653583049774 l-0.9472157806158066, -1.6237984597682953 -0.1353165414184332, -2.8416472673416138 l0.2706330828368664, -1.3531653583049774 m6.359877586364746, 0.5412661656737328 l0.0, 1.4884819090366364 0.9472157806158066, 2.30038121342659 m-0.8118992298841476, -2.8416472673416138 l2.706330716609955, 0.2706330828368664 0.9472157806158066, 0.8118992298841476 l-1.0825323313474655, 1.6237984597682953 -3.2475969195365906, 0.9472157806158066 l-2.029748111963272, 0.0 -3.5182300209999084, -2.435697764158249 m7.983676195144653, 2.029748111963272 l3.1122803688049316, 0.5412661656737328 2.165064662694931, -0.4059496149420738 l2.029748111963272, -0.9472157806158066 m-2.435697764158249, -5.41266143321991 l-0.6765826791524887, 0.0 m-9.607474207878113, -1.0825323313474655 l0.4059496149420738, 0.0 " fill="none" stroke="black" stroke-width="1" /></svg>