<?xml version="1.0" encoding="utf-8" ?>
<svg baseProfile="full" height="30.97406353801489" version="1.1" width="35.710142431780696" xmlns="http://www.w3.org/2000/svg" xmlns:ev="http://www.w3.org/2001/xml-events" xmlns:xlink="http://www.w3.org/1999/xlink"><defs /><rect fill="white" height="30.97406353801489" width="35.710142431780696" x="0" y="0" /><path d="M18.26102082617581, 7.976963939145207 m-2.435697764158249, -0.6765826791524887 l-1.0825323313474655, 0.1353165414184332 -2.435697764158249, 0.8118992298841476 l-1.6237984597682953, 1.0825323313474655 -1.4884819090366364, 3.3829134702682495 l0.2706330828368664, 5.6832945346832275 1.3531653583049774, 2.706330716609955 l2.9769638180732727, 2.435697764158249 3.9241796731948853, 1.6237984597682953 l5.5479782819747925, 0.8118992298841476 2.706330716609955, -1.3531653583049774 l1.0825323313474655, -1.8944315612316132 0.4059496149420738, -3.5182300209999084 l-0.5412661656737328, -3.5182300209999084 -1.6237984597682953, -3.7888631224632263 l-1.7591150104999542, -1.7591150104999542 -3.6535465717315674, -1.6237984597682953 l-2.8416472673416138, -0.4059496149420738 m6.765826940536499, 0.2706330828368664 l0.6765826791524887, -1.6237984597682953 1.6237984597682953, -1.4884819090366364 l2.435697764158249, -0.2706330828368664 1.4884819090366364, 0.5412661656737328 l0.6765826791524887, 1.7591150104999542 -0.4059496149420738, 3.1122803688049316 l-1.2178488820791245, 2.165064662694931 -1.4884819090366364, 1.3531653583049774 m-16.64393424987793, -5.6832945346832275 l-1.8944315612316132, -1.8944315612316132 -2.165064662694931, -1.3531653583049774 l-0.9472157806158066, 0.1353165414184332 -0.8118992298841476, 0.9472157806158066 l-0.1353165414184332, 3.1122803688049316 1.4884819090366364, 2.9769638180732727 l1.3531653583049774, 1.3531653583049774 m7.577726244926453, 4.330129325389862 l2.435697764158249, -1.2178488820791245 2.029748111963272, 0.0 l1.2178488820791245, 1.0825323313474655 0.4059496149420738, 1.8944315612316132 l-0.9472157806158066, 0.5412661656737328 -2.571014165878296, 0.0 l-2.165064662694931, -1.6237984597682953 -0.2706330828368664, -1.6237984597682953 m-3.2475969195365906, -4.059496223926544 l0.0, 0.0 m8.118992447853088, -0.1353165414184332 l0.0, 0.0 m0.8118992298841476, -0.9472157806158066 l0.9472157806158066, 0.0 0.4059496149420738, 1.7591150104999542 l-0.6765826791524887, 0.4059496149420738 0.0, -1.0825323313474655 m-8.118992447853088, -0.2706330828368664 l1.0825323313474655, -0.1353165414184332 0.0, 0.8118992298841476 l-0.6765826791524887, 0.4059496149420738 -0.2706330828368664, -0.4059496149420738 " fill="none" stroke="black" stroke-width="1" /></svg>