<?xml version="1.0" encoding="utf-8" ?>
<svg baseProfile="full" height="33.40976098552346" version="1.1" width="38.68710605427623" xmlns="http://www.w3.org/2000/svg" xmlns:ev="http://www.w3.org/2001/xml-events" xmlns:xlink="http://www.w3.org/1999/xlink"><defs /><rect fill="white" height="33.40976098552346" width="38.68710605427623" x="0" y="0" /><path d="M28.815711978822947, 11.765826791524887 m1.7591150104999542, -5.142028331756592 l-4.871395528316498, -1.6237984597682953 -0.6765826791524887, 2.435697764158249 l0.0, 0.6765826791524887 0.6765826791524887, -2.029748111963272 l0.6765826791524887, -0.5412661656737328 0.8118992298841476, 0.2706330828368664 l2.029748111963272, 1.3531653583049774 0.5412661656737328, 1.3531653583049774 l-0.6765826791524887, 0.4059496149420738 m-17.861783504486084, -1.3531653583049774 l-4.059496223926544, -0.9472157806158066 -0.6765826791524887, 0.6765826791524887 l-0.2706330828368664, 1.0825323313474655 0.0, 2.706330716609955 l0.8118992298841476, -1.4884819090366364 m5.277345180511475, -3.5182300209999084 l5.142028331756592, 1.3531653583049774 4.465445876121521, 0.5412661656737328 m-15.426086187362671, 3.7888631224632263 l-1.4884819090366364, 2.9769638180732727 0.0, 2.571014165878296 l1.0825323313474655, 3.2475969195365906 1.7591150104999542, 2.706330716609955 l2.8416472673416138, 2.8416472673416138 3.1122803688049316, 2.30038121342659 m15.020135641098022, -17.049884796142578 l3.6535465717315674, 1.2178488820791245 0.9472157806158066, 1.7591150104999542 l0.2706330828368664, 2.029748111963272 -0.1353165414184332, 2.165064662694931 l-0.9472157806158066, 3.3829134702682495 -2.165064662694931, 2.8416472673416138 l-3.7888631224632263, 2.435697764158249 -2.9769638180732727, 0.8118992298841476 l-3.3829134702682495, -0.1353165414184332 -6.359877586364746, -1.7591150104999542 l-0.6765826791524887, -0.5412661656737328 m0.5412661656737328, -6.901143789291382 l-1.8944315612316132, 7.307093143463135 2.706330716609955, -2.571014165878296 l1.0825323313474655, -1.8944315612316132 " fill="none" stroke="black" stroke-width="1" /></svg>