<?xml version="1.0" encoding="utf-8" ?>
<svg baseProfile="full" height="37.87520706653595" version="1.1" width="45.317617608234286" xmlns="http://www.w3.org/2000/svg" xmlns:ev="http://www.w3.org/2001/xml-events" xmlns:xlink="http://www.w3.org/1999/xlink"><defs /><rect fill="white" height="37.87520706653595" width="45.317617608234286" x="0" y="0" /><path d="M8.518230011686683, 14.066208228468895 m-1.3531653583049774, -0.9472157806158066 l-2.029748111963272, -4.465445876121521 -0.1353165414184332, -2.30038121342659 l1.0825323313474655, -1.3531653583049774 2.30038121342659, 0.0 l2.706330716609955, 1.0825323313474655 1.8944315612316132, 1.4884819090366364 l0.4059496149420738, 2.706330716609955 m17.049884796142578, 1.8944315612316132 l0.0, -1.3531653583049774 1.0825323313474655, -2.029748111963272 l2.571014165878296, -2.30038121342659 4.736078977584839, -0.2706330828368664 l1.3531653583049774, 2.706330716609955 0.1353165414184332, 2.165064662694931 l-1.2178488820791245, 3.3829134702682495 -0.8118992298841476, 0.5412661656737328 m-29.22837257385254, 0.4059496149420738 l-1.6237984597682953, 4.059496223926544 0.1353165414184332, 4.194812774658203 l1.3531653583049774, 2.706330716609955 5.953927636146545, 4.059496223926544 l5.277345180511475, 2.165064662694931 10.013424158096313, 0.2706330828368664 l3.9241796731948853, -1.8944315612316132 2.435697764158249, -2.706330716609955 l1.0825323313474655, -7.1717768907547 -0.4059496149420738, -5.6832945346832275 l-0.4059496149420738, -0.5412661656737328 m-22.327229976654053, -4.330129325389862 l0.4059496149420738, 0.6765826791524887 1.3531653583049774, 0.4059496149420738 l6.765826940536499, 1.0825323313474655 8.118992447853088, -0.4059496149420738 m-16.102668046951294, 5.953927636146545 l-0.6765826791524887, 0.5412661656737328 -0.5412661656737328, 2.30038121342659 l0.5412661656737328, 0.6765826791524887 2.029748111963272, 0.0 l1.2178488820791245, -2.029748111963272 -0.4059496149420738, -2.029748111963272 l-1.3531653583049774, -0.4059496149420738 -1.6237984597682953, 1.2178488820791245 m15.290769338607788, 1.7591150104999542 l-0.6765826791524887, -0.2706330828368664 -0.5412661656737328, 0.6765826791524887 l0.0, 1.3531653583049774 0.8118992298841476, 0.4059496149420738 l4.736078977584839, -0.1353165414184332 -0.1353165414184332, -2.30038121342659 l-1.6237984597682953, -1.8944315612316132 " fill="none" stroke="black" stroke-width="1" /></svg>