<?xml version="1.0" encoding="utf-8" ?>
<svg baseProfile="full" height="62.36750206910074" version="1.1" width="98.63233432173729" xmlns="http://www.w3.org/2000/svg" xmlns:ev="http://www.w3.org/2001/xml-events" xmlns:xlink="http://www.w3.org/1999/xlink"><defs /><rect fill="white" height="62.36750206910074" width="98.63233432173729" x="0" y="0" /><path d="M19.884819705039263, 8.924179133027792 m-1.7591150104999542, -0.1353165414184332 l-1.8944315612316132, 1.7591150104999542 -3.9241796731948853, 8.524942398071289 l-0.6765826791524887, 4.871395528316498 0.9472157806158066, 0.4059496149420738 l2.30038121342659, -0.1353165414184332 0.2706330828368664, 0.8118992298841476 m2.706330716609955, -18.267732858657837 l-0.9472157806158066, -1.3531653583049774 -0.8118992298841476, -0.4059496149420738 l-0.6765826791524887, 0.2706330828368664 -7.7130430936813354, 5.953927636146545 l-1.7591150104999542, 3.2475969195365906 -0.9472157806158066, 5.81861138343811 l0.0, 3.6535465717315674 1.7591150104999542, 5.277345180511475 l1.2178488820791245, 0.8118992298841476 2.435697764158249, 0.2706330828368664 l6.630510687828064, 0.0 4.60076242685318, -1.7591150104999542 l2.165064662694931, -1.4884819090366364 1.4884819090366364, -1.6237984597682953 l1.0825323313474655, -2.9769638180732727 0.1353165414184332, -3.5182300209999084 l-1.6237984597682953, -3.5182300209999084 -1.4884819090366364, -1.4884819090366364 l-7.577726244926453, -4.871395528316498 -4.736078977584839, -1.0825323313474655 m-1.4884819090366364, 0.5412661656737328 l1.2178488820791245, -2.165064662694931 2.571014165878296, -0.8118992298841476 m2.9769638180732727, -0.2706330828368664 l0.8118992298841476, 1.3531653583049774 0.1353165414184332, 1.2178488820791245 m3.7888631224632263, 3.5182300209999084 l4.871395528316498, -0.8118992298841476 0.5412661656737328, 2.029748111963272 l-1.0825323313474655, 0.9472157806158066 m1.7591150104999542, 8.524942398071289 l6.630510687828064, -5.41266143321991 1.6237984597682953, -1.0825323313474655 l2.435697764158249, -0.6765826791524887 25.980775356292725, 0.1353165414184332 l12.719755172729492, 1.8944315612316132 9.20152485370636, 3.7888631224632263 l3.3829134702682495, 2.165064662694931 1.3531653583049774, 1.3531653583049774 l1.3531653583049774, 3.1122803688049316 1.4884819090366364, 5.6832945346832275 l0.2706330828368664, 15.426086187362671 -0.8118992298841476, 3.2475969195365906 l-1.3531653583049774, 1.6237984597682953 -7.1717768907547, 2.165064662694931 l-5.953927636146545, 1.6237984597682953 -5.142028331756592, 0.2706330828368664 l-3.9241796731948853, -0.5412661656737328 -20.026848316192627, -5.5479782819747925 l-2.30038121342659, -1.3531653583049774 -4.330129325389862, -4.330129325389862 l-9.742791056632996, -6.359877586364746 -5.277345180511475, -7.036460041999817 l-2.30038121342659, -5.277345180511475 " fill="none" stroke="black" stroke-width="1" /></svg>