<?xml version="1.0" encoding="utf-8" ?>
<svg baseProfile="full" height="48.835846399888396" version="1.1" width="63.17940056324005" xmlns="http://www.w3.org/2000/svg" xmlns:ev="http://www.w3.org/2001/xml-events" xmlns:xlink="http://www.w3.org/1999/xlink"><defs /><rect fill="white" height="48.835846399888396" width="63.17940056324005" x="0" y="0" /><path d="M14.742791019380093, 5.947215920314193 m-5.81861138343811, 2.165064662694931 l-1.6237984597682953, 1.3531653583049774 -1.7591150104999542, 2.165064662694931 l-0.5412661656737328, 2.9769638180732727 1.6237984597682953, 2.8416472673416138 l2.029748111963272, 1.4884819090366364 7.036460041999817, 0.4059496149420738 m-2.029748111963272, -13.531653881072998 l3.7888631224632263, 0.4059496149420738 0.2706330828368664, 1.4884819090366364 l-0.5412661656737328, 1.4884819090366364 -1.3531653583049774, 1.0825323313474655 l-0.6765826791524887, -0.1353165414184332 -2.9769638180732727, -2.029748111963272 l-0.4059496149420738, -0.8118992298841476 0.1353165414184332, -2.30038121342659 l1.2178488820791245, 0.2706330828368664 m8.118992447853088, 3.2475969195365906 l1.3531653583049774, -0.6765826791524887 0.6765826791524887, 0.2706330828368664 l0.1353165414184332, 4.059496223926544 -4.465445876121521, -1.8944315612316132 l-0.4059496149420738, -1.3531653583049774 m-2.571014165878296, -3.2475969195365906 l6.089244484901428, -0.2706330828368664 1.3531653583049774, 0.6765826791524887 l2.30038121342659, 2.8416472673416138 7.7130430936813354, -1.0825323313474655 l11.366589069366455, -0.1353165414184332 4.194812774658203, 1.4884819090366364 l7.036460041999817, 4.059496223926544 1.0825323313474655, 1.2178488820791245 l1.0825323313474655, 3.2475969195365906 m-42.624711990356445, 2.706330716609955 l-5.5479782819747925, 6.224560737609863 -0.9472157806158066, 1.6237984597682953 l-1.3531653583049774, 5.142028331756592 0.4059496149420738, 2.706330716609955 l0.9472157806158066, 1.3531653583049774 3.2475969195365906, 2.435697764158249 l-0.1353165414184332, -0.6765826791524887 0.6765826791524887, 0.1353165414184332 l1.4884819090366364, 1.0825323313474655 0.4059496149420738, -1.4884819090366364 l1.4884819090366364, 0.5412661656737328 0.4059496149420738, -1.4884819090366364 l2.8416472673416138, 0.6765826791524887 0.5412661656737328, -0.8118992298841476 l-0.2706330828368664, -1.4884819090366364 1.7591150104999542, 1.4884819090366364 l1.4884819090366364, 0.4059496149420738 0.6765826791524887, -1.3531653583049774 l-0.1353165414184332, -8.524942398071289 0.5412661656737328, -1.6237984597682953 l1.6237984597682953, -0.8118992298841476 1.3531653583049774, -0.1353165414184332 l-0.5412661656737328, 6.359877586364746 0.8118992298841476, 4.059496223926544 l0.9472157806158066, 2.30038121342659 0.6765826791524887, 1.4884819090366364 l1.3531653583049774, 1.4884819090366364 2.435697764158249, 1.6237984597682953 l2.30038121342659, 0.6765826791524887 " fill="none" stroke="black" stroke-width="1" /></svg>