<?xml version="1.0" encoding="utf-8" ?>
<svg baseProfile="full" height="32.327228989452124" version="1.1" width="32.46254610829055" xmlns="http://www.w3.org/2000/svg" xmlns:ev="http://www.w3.org/2001/xml-events" xmlns:xlink="http://www.w3.org/1999/xlink"><defs /><rect fill="white" height="32.327228989452124" width="32.46254610829055" x="0" y="0" /><path d="M17.584438091143966, 9.871395416557789 m-0.6765826791524887, -0.5412661656737328 l-2.435697764158249, -0.5412661656737328 -3.1122803688049316, 0.0 l-1.0825323313474655, 0.4059496149420738 -2.706330716609955, 2.165064662694931 l-1.6237984597682953, 2.8416472673416138 -0.8118992298841476, 2.8416472673416138 l-0.1353165414184332, 4.60076242685318 2.571014165878296, 2.9769638180732727 l4.871395528316498, 2.435697764158249 5.006712079048157, 0.2706330828368664 l1.8944315612316132, -0.9472157806158066 1.6237984597682953, -1.6237984597682953 l1.2178488820791245, -1.7591150104999542 1.4884819090366364, -4.194812774658203 l0.1353165414184332, -5.41266143321991 -1.2178488820791245, -2.435697764158249 l-1.3531653583049774, -1.4884819090366364 -3.7888631224632263, -0.2706330828368664 l-0.4059496149420738, -0.8118992298841476 m-10.419373512268066, 3.6535465717315674 l-0.6765826791524887, -0.6765826791524887 -0.1353165414184332, -4.871395528316498 l1.3531653583049774, -1.4884819090366364 4.736078977584839, 0.1353165414184332 l1.0825323313474655, 1.7591150104999542 0.1353165414184332, 2.30038121342659 m6.630510687828064, 0.0 l0.0, -1.3531653583049774 1.4884819090366364, -1.2178488820791245 l3.9241796731948853, -0.4059496149420738 1.2178488820791245, 0.8118992298841476 l1.0825323313474655, 3.1122803688049316 0.0, 2.165064662694931 l-3.3829134702682495, 2.571014165878296 m-12.855072021484375, -1.0825323313474655 l-0.6765826791524887, -0.1353165414184332 -0.1353165414184332, 0.6765826791524887 l0.6765826791524887, 0.4059496149420738 0.5412661656737328, -0.6765826791524887 l-0.8118992298841476, -0.8118992298841476 m7.036460041999817, -0.1353165414184332 l-0.8118992298841476, 0.5412661656737328 0.0, 1.4884819090366364 l0.6765826791524887, 0.4059496149420738 0.9472157806158066, -1.4884819090366364 l-0.9472157806158066, -0.9472157806158066 " fill="none" stroke="black" stroke-width="1" /></svg>