<?xml version="1.0" encoding="utf-8" ?>
<svg baseProfile="full" height="58.30800683237612" version="1.1" width="91.73119092360139" xmlns="http://www.w3.org/2000/svg" xmlns:ev="http://www.w3.org/2001/xml-events" xmlns:xlink="http://www.w3.org/1999/xlink"><defs /><rect fill="white" height="58.30800683237612" width="91.73119092360139" x="0" y="0" /><path d="M62.78016297146678, 6.6238003596663475 m-0.8118992298841476, -0.8118992298841476 l-1.6237984597682953, -0.5412661656737328 -2.165064662694931, 0.0 l-5.277345180511475, 0.2706330828368664 -4.465445876121521, 1.0825323313474655 l-3.1122803688049316, 1.4884819090366364 -3.6535465717315674, 2.571014165878296 l-2.30038121342659, 3.5182300209999084 -0.8118992298841476, 2.435697764158249 l-0.1353165414184332, 2.435697764158249 0.6765826791524887, 3.1122803688049316 l1.4884819090366364, 1.8944315612316132 4.465445876121521, 2.9769638180732727 l3.6535465717315674, 1.0825323313474655 3.1122803688049316, 0.2706330828368664 l3.3829134702682495, -0.2706330828368664 3.7888631224632263, -0.9472157806158066 l2.571014165878296, -1.2178488820791245 3.2475969195365906, -3.2475969195365906 l1.6237984597682953, -2.8416472673416138 0.5412661656737328, -3.1122803688049316 l-0.5412661656737328, -3.7888631224632263 -2.029748111963272, -4.194812774658203 l-1.2178488820791245, -1.2178488820791245 -1.7591150104999542, -0.4059496149420738 m-9.87810730934143, 10.148741006851196 l-1.7591150104999542, 0.4059496149420738 -1.6237984597682953, 2.571014165878296 l-0.4059496149420738, 2.029748111963272 1.0825323313474655, 2.029748111963272 l2.029748111963272, 0.4059496149420738 2.9769638180732727, -0.8118992298841476 l1.4884819090366364, -1.6237984597682953 0.1353165414184332, -2.8416472673416138 l0.4059496149420738, -0.6765826791524887 m-6.630510687828064, -7.442409992218018 l0.4059496149420738, 0.0 m9.742791056632996, 1.6237984597682953 l0.0, 0.2706330828368664 m-16.102668046951294, 13.396337032318115 l-0.6765826791524887, -0.1353165414184332 -1.3531653583049774, 0.8118992298841476 l-1.7591150104999542, 2.029748111963272 -3.6535465717315674, 1.3531653583049774 l-2.706330716609955, 2.165064662694931 -1.6237984597682953, 2.435697764158249 l-1.0825323313474655, 2.435697764158249 -0.9472157806158066, 7.8483593463897705 l-3.3829134702682495, 7.7130430936813354 m38.8358473777771, -28.82242441177368 l2.029748111963272, 0.1353165414184332 3.6535465717315674, 2.435697764158249 l1.6237984597682953, 1.2178488820791245 3.2475969195365906, 3.9241796731948853 l4.871395528316498, 9.742791056632996 1.3531653583049774, 6.089244484901428 l2.571014165878296, 2.9769638180732727 2.435697764158249, 2.029748111963272 m-44.78977680206299, -19.07963275909424 l-2.435697764158249, 4.194812774658203 -2.30038121342659, 9.607474207878113 m8.524942398071289, -9.607474207878113 l-1.0825323313474655, 7.307093143463135 m12.719755172729492, -6.089244484901428 l0.0, 3.2475969195365906 1.2178488820791245, 7.7130430936813354 m14.072920083999634, -7.983676195144653 l2.029748111963272, 6.765826940536499 m-1.2178488820791245, -12.043172121047974 l-3.2475969195365906, 4.194812774658203 m-25.845458507537842, -5.006712079048157 l-3.1122803688049316, 4.059496223926544 -5.006712079048157, 12.58443832397461 m-1.3531653583049774, -18.944315910339355 l-0.6765826791524887, 3.2475969195365906 -0.4059496149420738, 9.607474207878113 m24.62761163711548, -12.719755172729492 l1.6237984597682953, 2.9769638180732727 5.41266143321991, 7.577726244926453 m11.501905918121338, -10.82532286643982 l-5.142028331756592, 6.630510687828064 m-22.19191312789917, -5.81861138343811 l-2.165064662694931, 2.9769638180732727 -2.435697764158249, 9.742791056632996 m4.330129325389862, -11.772539615631104 l1.8944315612316132, 5.277345180511475 m18.267732858657837, -4.194812774658203 l2.9769638180732727, 8.524942398071289 m-18.267732858657837, -10.82532286643982 l-2.029748111963272, 2.029748111963272 -0.6765826791524887, 1.2178488820791245 l-1.7591150104999542, 5.006712079048157 m0.0, -7.8483593463897705 l2.165064662694931, 7.983676195144653 m-44.24850940704346, -37.75331497192383 l-1.0825323313474655, 0.5412661656737328 -1.3531653583049774, 4.330129325389862 l-0.2706330828368664, 4.330129325389862 0.4059496149420738, 8.524942398071289 l-0.1353165414184332, 2.571014165878296 m3.6535465717315674, -16.914567947387695 l0.6765826791524887, 0.0 1.3531653583049774, 1.4884819090366364 l0.0, 2.165064662694931 -0.4059496149420738, 0.8118992298841476 l-3.2475969195365906, 2.435697764158249 0.2706330828368664, 0.5412661656737328 l2.8416472673416138, 1.3531653583049774 0.5412661656737328, 0.6765826791524887 l0.9472157806158066, 1.8944315612316132 0.0, 1.3531653583049774 l-0.9472157806158066, 2.435697764158249 -1.2178488820791245, 1.3531653583049774 l-1.7591150104999542, 0.9472157806158066 m6.630510687828064, -5.142028331756592 l6.089244484901428, -0.2706330828368664 1.6237984597682953, -0.9472157806158066 l0.4059496149420738, -1.0825323313474655 -2.30038121342659, -0.6765826791524887 l-2.571014165878296, 0.2706330828368664 -2.571014165878296, 2.435697764158249 l0.1353165414184332, 1.4884819090366364 m12.719755172729492, -2.435697764158249 l-1.7591150104999542, 0.8118992298841476 -1.0825323313474655, 1.6237984597682953 m0.6765826791524887, 1.6237984597682953 l2.9769638180732727, -4.059496223926544 0.5412661656737328, 0.8118992298841476 l0.0, 3.9241796731948853 m2.435697764158249, -4.194812774658203 l-0.1353165414184332, 3.6535465717315674 2.165064662694931, -3.7888631224632263 l2.9769638180732727, -3.3829134702682495 " fill="none" stroke="black" stroke-width="1" /></svg>