<?xml version="1.0" encoding="utf-8" ?>
<svg baseProfile="full" height="43.423185450956225" version="1.1" width="40.175588224083185" xmlns="http://www.w3.org/2000/svg" xmlns:ev="http://www.w3.org/2001/xml-events" xmlns:xlink="http://www.w3.org/1999/xlink"><defs /><rect fill="white" height="43.423185450956225" width="40.175588224083185" x="0" y="0" /><path d="M26.515329871326685, 9.330129288136959 m0.5412661656737328, -2.30038121342659 l1.0825323313474655, -1.6237984597682953 1.4884819090366364, -0.4059496149420738 l2.30038121342659, 0.9472157806158066 2.165064662694931, 3.6535465717315674 l0.6765826791524887, 2.30038121342659 -0.1353165414184332, 2.706330716609955 l-0.6765826791524887, 0.4059496149420738 -1.2178488820791245, -0.2706330828368664 m-6.495193839073181, -5.142028331756592 l-4.736078977584839, -0.1353165414184332 -1.3531653583049774, 0.6765826791524887 l-1.8944315612316132, 2.571014165878296 m-1.2178488820791245, 0.2706330828368664 l-4.465445876121521, -2.571014165878296 -3.5182300209999084, -0.2706330828368664 l-2.30038121342659, 0.8118992298841476 -1.6237984597682953, 2.165064662694931 l-0.1353165414184332, 2.571014165878296 1.2178488820791245, 2.165064662694931 l2.706330716609955, 2.571014165878296 3.7888631224632263, 0.8118992298841476 m0.0, 0.0 l0.5412661656737328, 9.472157955169678 2.706330716609955, 3.7888631224632263 l2.30038121342659, 1.8944315612316132 3.7888631224632263, 1.4884819090366364 l2.30038121342659, 0.5412661656737328 2.9769638180732727, -0.2706330828368664 l2.9769638180732727, -1.6237984597682953 2.30038121342659, -2.435697764158249 l1.3531653583049774, -4.059496223926544 0.2706330828368664, -3.7888631224632263 l0.9472157806158066, -2.8416472673416138 0.0, -3.9241796731948853 l-1.4884819090366364, -2.029748111963272 -1.3531653583049774, -3.5182300209999084 " fill="none" stroke="black" stroke-width="1" /></svg>