<?xml version="1.0" encoding="utf-8" ?>
<svg baseProfile="full" height="30.162164717912674" version="1.1" width="35.84545916877687" xmlns="http://www.w3.org/2000/svg" xmlns:ev="http://www.w3.org/2001/xml-events" xmlns:xlink="http://www.w3.org/1999/xlink"><defs /><rect fill="white" height="30.162164717912674" width="35.84545916877687" x="0" y="0" /><path d="M5.947215780615807, 14.06620821915567 m-0.9472157806158066, -5.006712079048157 l0.6765826791524887, -2.8416472673416138 1.6237984597682953, -1.0825323313474655 l1.4884819090366364, -0.1353165414184332 3.5182300209999084, 1.3531653583049774 l5.006712079048157, 0.2706330828368664 4.871395528316498, 2.435697764158249 l1.8944315612316132, -0.4059496149420738 3.1122803688049316, -3.2475969195365906 l2.165064662694931, 0.0 1.3531653583049774, 2.029748111963272 l0.1353165414184332, 0.8118992298841476 0.0, 3.2475969195365906 l-0.5412661656737328, 1.8944315612316132 -2.029748111963272, 3.1122803688049316 l-7.036460041999817, 7.1717768907547 -4.871395528316498, 1.2178488820791245 l-6.359877586364746, 0.2706330828368664 -2.30038121342659, -0.6765826791524887 l-0.6765826791524887, -0.6765826791524887 -0.8118992298841476, -3.5182300209999084 l0.1353165414184332, -3.2475969195365906 0.4059496149420738, -1.7591150104999542 m7.983676195144653, 3.2475969195365906 l0.1353165414184332, -1.7591150104999542 0.5412661656737328, -0.2706330828368664 l0.5412661656737328, 0.5412661656737328 -0.4059496149420738, 1.0825323313474655 m-0.5412661656737328, 1.7591150104999542 l-0.9472157806158066, 1.3531653583049774 -1.4884819090366364, 0.9472157806158066 l-1.2178488820791245, -0.9472157806158066 -0.6765826791524887, -1.2178488820791245 m5.142028331756592, 0.0 l4.60076242685318, 1.2178488820791245 0.6765826791524887, -0.1353165414184332 l0.9472157806158066, -1.3531653583049774 0.4059496149420738, -2.8416472673416138 m-3.5182300209999084, -4.60076242685318 l0.1353165414184332, 2.435697764158249 m-7.1717768907547, -3.2475969195365906 " fill="none" stroke="black" stroke-width="1" /></svg>