<?xml version="1.0" encoding="utf-8" ?>
<svg baseProfile="full" height="101.47398184984922" version="1.1" width="174.81554627418518" xmlns="http://www.w3.org/2000/svg" xmlns:ev="http://www.w3.org/2001/xml-events" xmlns:xlink="http://www.w3.org/1999/xlink"><defs /><rect fill="white" height="101.47398184984922" width="174.81554627418518" x="0" y="0" /><path d="M83.4835968259722, 56.28496973775327 m-4.871395528316498, 0.0 l-2.8416472673416138, 1.4884819090366364 -2.571014165878296, 2.165064662694931 l-1.7591150104999542, 2.571014165878296 -0.4059496149420738, 1.4884819090366364 l0.0, 4.059496223926544 1.4884819090366364, 2.30038121342659 l6.089244484901428, 3.3829134702682495 7.8483593463897705, -0.1353165414184332 l1.4884819090366364, -1.0825323313474655 0.6765826791524887, -2.029748111963272 l0.4059496149420738, -7.307093143463135 -3.3829134702682495, -4.736078977584839 l-2.435697764158249, -1.2178488820791245 m-10.690007209777832, -6.089244484901428 l-1.8944315612316132, 0.2706330828368664 -1.0825323313474655, 1.2178488820791245 l0.1353165414184332, 4.330129325389862 2.706330716609955, 4.330129325389862 l2.9769638180732727, 0.2706330828368664 1.0825323313474655, -3.9241796731948853 l0.0, -2.165064662694931 -0.6765826791524887, -1.4884819090366364 l-1.2178488820791245, -1.6237984597682953 -1.3531653583049774, -0.6765826791524887 l-2.9769638180732727, -0.1353165414184332 -1.3531653583049774, 0.5412661656737328 m18.538366556167603, -0.1353165414184332 l-0.6765826791524887, -0.1353165414184332 -1.0825323313474655, 1.4884819090366364 l0.0, 4.059496223926544 2.30038121342659, 3.3829134702682495 l1.4884819090366364, 0.0 1.7591150104999542, -1.7591150104999542 l0.8118992298841476, -2.8416472673416138 0.0, -2.435697764158249 l-0.6765826791524887, -1.3531653583049774 -0.6765826791524887, -0.2706330828368664 l-4.465445876121521, -0.2706330828368664 m-4.059496223926544, 9.336841106414795 l-1.4884819090366364, 0.2706330828368664 -0.2706330828368664, 0.6765826791524887 l2.30038121342659, 0.2706330828368664 0.5412661656737328, -0.6765826791524887 l-1.0825323313474655, -0.4059496149420738 m-5.142028331756592, 1.2178488820791245 l-0.8118992298841476, -0.1353165414184332 -0.4059496149420738, 0.6765826791524887 l0.6765826791524887, 0.4059496149420738 0.0, -1.6237984597682953 l-0.4059496149420738, 0.0 m0.2706330828368664, 5.277345180511475 l2.706330716609955, 1.0825323313474655 4.465445876121521, 0.9472157806158066 l2.165064662694931, 0.0 0.5412661656737328, -1.8944315612316132 m-81.18992805480957, 29.22837257385254 l6.089244484901428, -0.4059496149420738 7.577726244926453, -2.165064662694931 l10.148741006851196, -4.736078977584839 11.90785527229309, -7.7130430936813354 l13.66697072982788, -10.419373512268066 58.321428298950195, -48.30800533294678 l14.749503135681152, -11.366589069366455 13.125704526901245, -6.359877586364746 l29.22837257385254, 0.0 " fill="none" stroke="black" stroke-width="1" /></svg>