<?xml version="1.0" encoding="utf-8" ?>
<svg baseProfile="full" height="98.09106848202646" version="1.1" width="56.278257332742214" xmlns="http://www.w3.org/2000/svg" xmlns:ev="http://www.w3.org/2001/xml-events" xmlns:xlink="http://www.w3.org/1999/xlink"><defs /><rect fill="white" height="98.09106848202646" width="56.278257332742214" x="0" y="0" /><path d="M44.64774591848254, 26.244696471840143 m0.6765826791524887, -0.9472157806158066 l0.0, -4.465445876121521 -1.2178488820791245, -3.3829134702682495 l-0.8118992298841476, -0.9472157806158066 -4.194812774658203, -2.9769638180732727 l-4.059496223926544, -0.9472157806158066 -2.30038121342659, 0.0 l-1.8944315612316132, 0.5412661656737328 -2.30038121342659, 1.6237984597682953 l-5.142028331756592, 5.142028331756592 -3.3829134702682495, 4.871395528316498 l-2.435697764158249, 6.089244484901428 -0.1353165414184332, 4.60076242685318 l1.4884819090366364, 2.029748111963272 3.3829134702682495, 2.029748111963272 l4.194812774658203, 1.6237984597682953 4.330129325389862, 0.5412661656737328 l5.6832945346832275, -0.1353165414184332 1.7591150104999542, -0.6765826791524887 l6.901143789291382, -5.277345180511475 2.9769638180732727, -3.1122803688049316 l0.5412661656737328, -1.4884819090366364 0.1353165414184332, -4.736078977584839 l-0.4059496149420738, -2.9769638180732727 -1.3531653583049774, -3.2475969195365906 l-7.036460041999817, -6.224560737609863 -1.8944315612316132, -1.0825323313474655 l-3.1122803688049316, -0.9472157806158066 -3.5182300209999084, -0.1353165414184332 l-5.142028331756592, 3.7888631224632263 -0.8118992298841476, 0.2706330828368664 l-0.8118992298841476, -0.2706330828368664 -1.6237984597682953, -4.059496223926544 l-0.2706330828368664, -3.2475969195365906 0.1353165414184332, -0.9472157806158066 l1.8944315612316132, -1.7591150104999542 2.435697764158249, -0.4059496149420738 l0.6765826791524887, 0.8118992298841476 1.2178488820791245, 2.706330716609955 l0.6765826791524887, 2.9769638180732727 m10.690007209777832, 3.9241796731948853 l0.2706330828368664, -1.7591150104999542 2.706330716609955, -3.3829134702682495 l2.30038121342659, -1.3531653583049774 3.1122803688049316, -0.1353165414184332 l0.9472157806158066, 0.4059496149420738 1.2178488820791245, 1.4884819090366364 l0.1353165414184332, 3.2475969195365906 -1.7591150104999542, 2.165064662694931 l-2.30038121342659, 0.8118992298841476 m-16.508618593215942, 3.2475969195365906 l-1.3531653583049774, 0.5412661656737328 -1.3531653583049774, 2.30038121342659 l0.0, 0.9472157806158066 2.435697764158249, 0.4059496149420738 l2.435697764158249, -0.6765826791524887 2.165064662694931, -2.029748111963272 l0.2706330828368664, -1.7591150104999542 -0.9472157806158066, -0.6765826791524887 l-1.6237984597682953, 0.0 -0.4059496149420738, 0.8118992298841476 m11.90785527229309, 0.5412661656737328 l-2.30038121342659, 0.0 -2.30038121342659, 2.165064662694931 l-1.0825323313474655, 2.435697764158249 0.0, 1.6237984597682953 l1.7591150104999542, -0.1353165414184332 1.2178488820791245, -0.9472157806158066 l1.4884819090366364, -2.30038121342659 -0.2706330828368664, -1.7591150104999542 l-2.435697764158249, 0.1353165414184332 m-10.55469036102295, 20.432798862457275 l-2.029748111963272, 12.855072021484375 -0.6765826791524887, 7.1717768907547 l4.059496223926544, 13.261021375656128 3.1122803688049316, 6.224560737609863 m-7.036460041999817, -40.4596471786499 l-2.706330716609955, -0.1353165414184332 -2.9769638180732727, 1.4884819090366364 l-1.6237984597682953, 2.571014165878296 -1.4884819090366364, 4.736078977584839 l-0.8118992298841476, 6.359877586364746 0.2706330828368664, 7.036460041999817 l0.9472157806158066, 1.7591150104999542 1.3531653583049774, 1.2178488820791245 l1.6237984597682953, 0.6765826791524887 3.1122803688049316, 0.1353165414184332 l2.571014165878296, -1.2178488820791245 4.194812774658203, -6.089244484901428 l1.7591150104999542, -5.006712079048157 0.0, -4.194812774658203 l-0.5412661656737328, -1.8944315612316132 -3.3829134702682495, -5.953927636146545 l-3.2475969195365906, -2.8416472673416138 -1.3531653583049774, 0.0 l-0.8118992298841476, 0.6765826791524887 m2.165064662694931, 28.010523319244385 l-0.5412661656737328, -0.6765826791524887 -1.0825323313474655, 0.0 l-5.006712079048157, 2.165064662694931 -1.6237984597682953, 1.4884819090366364 l-1.2178488820791245, 2.30038121342659 -0.4059496149420738, 6.359877586364746 l0.6765826791524887, 1.6237984597682953 1.3531653583049774, 1.6237984597682953 l1.6237984597682953, 1.2178488820791245 1.2178488820791245, 0.2706330828368664 l3.6535465717315674, -0.4059496149420738 2.165064662694931, -1.2178488820791245 l1.7591150104999542, -1.3531653583049774 2.029748111963272, -3.1122803688049316 l0.2706330828368664, -4.330129325389862 -1.7591150104999542, -3.5182300209999084 l-2.571014165878296, -2.029748111963272 -3.9241796731948853, -0.9472157806158066 m3.5182300209999084, 11.501905918121338 l6.359877586364746, 6.495193839073181 8.389625549316406, 6.630510687828064 m-18.267732858657837, -6.765826940536499 l-0.6765826791524887, 0.4059496149420738 -3.2475969195365906, 4.465445876121521 l-2.9769638180732727, 2.30038121342659 m18.267732858657837, -39.106481075286865 l10.690007209777832, 4.330129325389862 m-27.469258308410645, -2.30038121342659 l-4.60076242685318, -0.4059496149420738 -2.8416472673416138, -1.2178488820791245 l-2.571014165878296, -2.706330716609955 -1.7591150104999542, -2.9769638180732727 l-0.6765826791524887, -1.6237984597682953 0.1353165414184332, -1.8944315612316132 " fill="none" stroke="black" stroke-width="1" /></svg>