<?xml version="1.0" encoding="utf-8" ?>
<svg baseProfile="full" height="88.2129599712789" version="1.1" width="82.12371564470232" xmlns="http://www.w3.org/2000/svg" xmlns:ev="http://www.w3.org/2001/xml-events" xmlns:xlink="http://www.w3.org/1999/xlink"><defs /><rect fill="white" height="88.2129599712789" width="82.12371564470232" x="0" y="0" /><path d="M26.10937947407365, 11.901142541319132 m-1.7591150104999542, 0.4059496149420738 l-3.6535465717315674, 2.30038121342659 -5.41266143321991, 5.006712079048157 l-2.029748111963272, 4.330129325389862 -0.4059496149420738, 3.9241796731948853 l2.571014165878296, 6.901143789291382 2.571014165878296, 4.330129325389862 l7.8483593463897705, 5.81861138343811 4.059496223926544, 1.4884819090366364 l4.059496223926544, 0.6765826791524887 8.524942398071289, 0.1353165414184332 l3.3829134702682495, -0.8118992298841476 2.435697764158249, -1.6237984597682953 l1.0825323313474655, -1.3531653583049774 1.8944315612316132, -4.330129325389862 l1.0825323313474655, -4.194812774658203 -0.2706330828368664, -10.284056663513184 l-0.9472157806158066, -3.5182300209999084 -1.6237984597682953, -2.9769638180732727 l-2.029748111963272, -1.8944315612316132 -6.495193839073181, -4.60076242685318 l-3.7888631224632263, -2.165064662694931 -2.9769638180732727, -0.8118992298841476 l-2.706330716609955, 0.1353165414184332 -3.3829134702682495, 2.30038121342659 l-3.5182300209999084, 0.5412661656737328 m-2.165064662694931, 1.0825323313474655 l-5.953927636146545, -3.9241796731948853 -4.60076242685318, -3.7888631224632263 l-1.8944315612316132, 4.60076242685318 -4.059496223926544, 6.901143789291382 l-0.9472157806158066, 3.7888631224632263 0.0, 2.435697764158249 l2.029748111963272, 4.465445876121521 1.4884819090366364, 1.6237984597682953 l2.435697764158249, 1.0825323313474655 4.871395528316498, 0.9472157806158066 m30.446221828460693, -15.020135641098022 l0.0, -1.3531653583049774 0.8118992298841476, -2.029748111963272 l2.435697764158249, -0.8118992298841476 2.9769638180732727, 0.1353165414184332 l3.2475969195365906, 2.029748111963272 1.4884819090366364, 1.4884819090366364 l1.8944315612316132, 2.571014165878296 1.7591150104999542, 4.330129325389862 l0.0, 2.165064662694931 -0.9472157806158066, 2.8416472673416138 l-2.571014165878296, 2.706330716609955 -1.7591150104999542, 1.3531653583049774 l-3.7888631224632263, 1.7591150104999542 -1.3531653583049774, 0.4059496149420738 l-0.6765826791524887, -0.2706330828368664 m-22.868494987487793, -12.178488969802856 l-2.029748111963272, -0.2706330828368664 -1.3531653583049774, 0.6765826791524887 l-0.8118992298841476, 2.165064662694931 1.6237984597682953, 1.7591150104999542 l2.706330716609955, 0.1353165414184332 0.6765826791524887, -0.4059496149420738 l0.4059496149420738, -2.029748111963272 -1.6237984597682953, -1.3531653583049774 m15.020135641098022, 1.3531653583049774 l-3.9241796731948853, -0.1353165414184332 -0.4059496149420738, 0.6765826791524887 l0.4059496149420738, 3.1122803688049316 1.3531653583049774, 0.9472157806158066 l2.165064662694931, 0.5412661656737328 1.4884819090366364, -1.0825323313474655 l0.1353165414184332, -2.8416472673416138 -0.9472157806158066, -1.6237984597682953 l-0.9472157806158066, -0.2706330828368664 m-14.208236932754517, 13.396337032318115 l0.6765826791524887, 0.2706330828368664 3.2475969195365906, 3.7888631224632263 l2.435697764158249, 0.9472157806158066 4.465445876121521, 0.0 l3.1122803688049316, -1.6237984597682953 m-16.37330174446106, 6.359877586364746 l-3.9241796731948853, 10.82532286643982 -0.5412661656737328, 3.3829134702682495 l0.0, 4.194812774658203 0.8118992298841476, 3.7888631224632263 l1.4884819090366364, 3.2475969195365906 5.5479782819747925, 7.442409992218018 l3.2475969195365906, 2.30038121342659 3.3829134702682495, 1.4884819090366364 l5.006712079048157, 0.9472157806158066 4.871395528316498, 0.1353165414184332 l1.7591150104999542, -0.4059496149420738 4.871395528316498, -2.029748111963272 l2.9769638180732727, -2.571014165878296 2.165064662694931, -2.9769638180732727 l2.8416472673416138, -5.81861138343811 2.8416472673416138, -7.7130430936813354 l0.8118992298841476, -5.41266143321991 0.0, -7.7130430936813354 l-0.4059496149420738, -2.029748111963272 -1.3531653583049774, -3.3829134702682495 l-2.029748111963272, -2.571014165878296 -3.2475969195365906, -2.706330716609955 l-4.871395528316498, -2.706330716609955 -4.194812774658203, -0.9472157806158066 l-1.6237984597682953, 0.0 -0.4059496149420738, 1.4884819090366364 l2.8416472673416138, 3.2475969195365906 m17.861783504486084, 10.284056663513184 l-1.4884819090366364, 0.0 1.7591150104999542, 1.3531653583049774 l6.765826940536499, 8.524942398071289 2.9769638180732727, 4.871395528316498 l1.2178488820791245, 3.3829134702682495 0.9472157806158066, 11.095956563949585 l-0.9472157806158066, 0.6765826791524887 -4.736078977584839, -3.2475969195365906 m-49.119906425476074, -23.27444553375244 l-1.6237984597682953, 0.0 -3.9241796731948853, 2.435697764158249 l-4.736078977584839, 7.307093143463135 -2.30038121342659, 6.495193839073181 " fill="none" stroke="black" stroke-width="1" /></svg>