<?xml version="1.0" encoding="utf-8" ?>
<svg baseProfile="full" height="27.861783439293504" version="1.1" width="34.49229396879673" xmlns="http://www.w3.org/2000/svg" xmlns:ev="http://www.w3.org/2001/xml-events" xmlns:xlink="http://www.w3.org/1999/xlink"><defs /><rect fill="white" height="27.861783439293504" width="34.49229396879673" x="0" y="0" /><path d="M15.2840575017035, 8.518229555338621 m-5.277345180511475, 2.165064662694931 l-1.3531653583049774, 1.8944315612316132 -1.4884819090366364, 6.359877586364746 l1.8944315612316132, 2.706330716609955 1.7591150104999542, 0.5412661656737328 l9.607474207878113, 0.5412661656737328 2.435697764158249, -0.5412661656737328 l1.7591150104999542, -1.6237984597682953 0.9472157806158066, -6.224560737609863 l-0.9472157806158066, -3.2475969195365906 -3.6535465717315674, -2.8416472673416138 l-3.3829134702682495, -0.4059496149420738 -2.8416472673416138, 1.2178488820791245 m9.066208004951477, 0.2706330828368664 l1.0825323313474655, -2.8416472673416138 1.0825323313474655, -0.9472157806158066 l1.4884819090366364, -0.5412661656737328 1.7591150104999542, 0.5412661656737328 l0.2706330828368664, 0.8118992298841476 -0.8118992298841476, 3.7888631224632263 l-1.4884819090366364, 1.8944315612316132 -1.8944315612316132, 0.6765826791524887 m-12.178488969802856, -6.765826940536499 l-6.224560737609863, 1.3531653583049774 -1.8944315612316132, 1.7591150104999542 l0.0, 1.6237984597682953 1.2178488820791245, 2.435697764158249 l1.4884819090366364, 1.4884819090366364 m6.630510687828064, 1.2178488820791245 l0.1353165414184332, 2.029748111963272 3.1122803688049316, 1.7591150104999542 l0.2706330828368664, -0.6765826791524887 -2.029748111963272, -3.9241796731948853 l-2.165064662694931, -0.4059496149420738 m0.5412661656737328, -5.277345180511475 l-1.7591150104999542, 4.736078977584839 3.2475969195365906, 0.0 l0.0, -1.6237984597682953 -2.8416472673416138, -2.165064662694931 l-0.6765826791524887, 0.0 m8.118992447853088, 1.2178488820791245 l0.0, 2.029748111963272 0.8118992298841476, -0.1353165414184332 l-0.8118992298841476, -2.30038121342659 -1.7591150104999542, 1.2178488820791245 m-5.953927636146545, 9.472157955169678 l-0.6765826791524887, 0.0 -0.2706330828368664, 1.0825323313474655 l8.660258650779724, -2.571014165878296 m-6.089244484901428, 2.571014165878296 " fill="none" stroke="black" stroke-width="1" /></svg>