<?xml version="1.0" encoding="utf-8" ?>
<svg baseProfile="full" height="76.9816882815212" version="1.1" width="49.78306293487549" xmlns="http://www.w3.org/2000/svg" xmlns:ev="http://www.w3.org/2001/xml-events" xmlns:xlink="http://www.w3.org/1999/xlink"><defs /><rect fill="white" height="76.9816882815212" width="49.78306293487549" x="0" y="0" /><path d="M30.710144778713584, 6.35316570289433 m-8.524942398071289, 1.8944315612316132 l-5.41266143321991, 2.029748111963272 -2.165064662694931, 2.571014165878296 l-1.8944315612316132, 4.059496223926544 -0.1353165414184332, 2.571014165878296 l1.4884819090366364, 3.5182300209999084 2.165064662694931, 2.435697764158249 l2.706330716609955, 2.165064662694931 4.330129325389862, 2.029748111963272 l2.30038121342659, 0.1353165414184332 0.9472157806158066, -0.5412661656737328 l1.6237984597682953, -1.4884819090366364 12.043172121047974, -7.7130430936813354 l2.8416472673416138, -2.435697764158249 0.8118992298841476, -1.6237984597682953 l-0.4059496149420738, -2.8416472673416138 -3.5182300209999084, -4.059496223926544 l-2.8416472673416138, -1.2178488820791245 -10.690007209777832, -2.8416472673416138 m-13.802287578582764, 19.75621461868286 l-2.9769638180732727, 9.87810730934143 -3.1122803688049316, 14.3435537815094 l0.0, 8.930891752243042 0.4059496149420738, 0.5412661656737328 m28.957738876342773, -36.40014886856079 l5.953927636146545, 8.930891752243042 1.3531653583049774, 3.9241796731948853 l0.9472157806158066, 8.118992447853088 0.0, 12.178488969802856 l0.6765826791524887, 4.330129325389862 -0.5412661656737328, 0.8118992298841476 l-2.30038121342659, 1.4884819090366364 -4.465445876121521, 1.2178488820791245 l-10.82532286643982, 0.4059496149420738 -8.524942398071289, -2.165064662694931 l-8.254309296607971, -2.9769638180732727 -3.7888631224632263, -0.8118992298841476 m0.0, 0.0 l0.0, 0.1353165414184332 m11.095956563949585, 2.9769638180732727 l-0.4059496149420738, 5.142028331756592 -1.0825323313474655, 2.571014165878296 l-6.765826940536499, 3.6535465717315674 -2.029748111963272, 0.0 l-1.8944315612316132, -3.2475969195365906 0.0, -1.4884819090366364 l1.7591150104999542, -5.81861138343811 0.8118992298841476, -6.089244484901428 l0.1353165414184332, 2.165064662694931 m8.254309296607971, 5.81861138343811 l-0.9472157806158066, 0.1353165414184332 1.2178488820791245, -3.7888631224632263 l-1.6237984597682953, 1.4884819090366364 -3.6535465717315674, 1.4884819090366364 l-1.8944315612316132, 0.2706330828368664 -0.4059496149420738, -0.6765826791524887 l0.5412661656737328, -0.6765826791524887 0.0, 0.8118992298841476 l-2.435697764158249, 2.30038121342659 -1.2178488820791245, 2.029748111963272 l7.1717768907547, -0.6765826791524887 -1.2178488820791245, 1.2178488820791245 l-1.6237984597682953, 0.8118992298841476 -0.4059496149420738, 0.6765826791524887 l0.6765826791524887, 0.0 4.60076242685318, -5.277345180511475 m0.9472157806158066, -1.4884819090366364 l1.2178488820791245, -3.3829134702682495 m2.8416472673416138, -14.61418628692627 l0.6765826791524887, 0.0 m2.9769638180732727, 0.1353165414184332 l0.9472157806158066, 0.0 -0.6765826791524887, 1.2178488820791245 l-4.330129325389862, 3.1122803688049316 3.2475969195365906, -2.165064662694931 l7.307093143463135, -3.2475969195365906 -16.508618593215942, -0.1353165414184332 l0.9472157806158066, -1.4884819090366364 8.795575499534607, -2.706330716609955 l5.81861138343811, -0.2706330828368664 -1.2178488820791245, 0.9472157806158066 l-2.9769638180732727, 0.8118992298841476 -5.6832945346832275, 0.8118992298841476 l3.6535465717315674, -1.3531653583049774 4.465445876121521, -0.6765826791524887 l0.0, 0.6765826791524887 -0.6765826791524887, 0.6765826791524887 l-2.9769638180732727, 1.3531653583049774 -1.3531653583049774, 0.1353165414184332 l3.3829134702682495, -1.6237984597682953 8.389625549316406, -3.1122803688049316 l-4.194812774658203, 2.435697764158249 -1.3531653583049774, 1.7591150104999542 l-0.5412661656737328, 1.4884819090366364 4.871395528316498, 0.0 l-0.4059496149420738, 1.4884819090366364 " fill="none" stroke="black" stroke-width="1" /></svg>