<?xml version="1.0" encoding="utf-8" ?>
<svg baseProfile="full" height="30.703430473804474" version="1.1" width="30.026848316192627" xmlns="http://www.w3.org/2000/svg" xmlns:ev="http://www.w3.org/2001/xml-events" xmlns:xlink="http://www.w3.org/1999/xlink"><defs /><rect fill="white" height="30.703430473804474" width="30.026848316192627" x="0" y="0" /><path d="M9.059496819972992, 6.623798003420234 m4.059496223926544, 2.9769638180732727 m-1.8944315612316132, -1.0825323313474655 l-1.2178488820791245, 2.706330716609955 1.4884819090366364, -2.9769638180732727 m6.765826940536499, 1.4884819090366364 l0.6765826791524887, 0.0 2.435697764158249, -2.435697764158249 m-1.0825323313474655, 2.165064662694931 l0.0, -1.0825323313474655 m-9.87810730934143, 7.7130430936813354 l0.0, 1.3531653583049774 0.0, -0.8118992298841476 l1.2178488820791245, -0.8118992298841476 0.9472157806158066, 1.4884819090366364 l1.4884819090366364, -0.9472157806158066 0.2706330828368664, 0.6765826791524887 l1.0825323313474655, -1.2178488820791245 0.6765826791524887, 1.4884819090366364 l1.4884819090366364, -1.7591150104999542 0.4059496149420738, 0.8118992298841476 l-0.1353165414184332, 4.60076242685318 -0.6765826791524887, -0.2706330828368664 l-0.6765826791524887, -1.8944315612316132 -0.9472157806158066, 2.9769638180732727 l-0.6765826791524887, -0.1353165414184332 -0.5412661656737328, -1.6237984597682953 l-0.8118992298841476, 1.6237984597682953 -1.2178488820791245, -1.7591150104999542 l-0.1353165414184332, 1.7591150104999542 -1.2178488820791245, -2.571014165878296 l-0.2706330828368664, -2.165064662694931 m2.706330716609955, -5.41266143321991 l0.6765826791524887, 0.0 0.4059496149420738, 0.6765826791524887 l-0.4059496149420738, 0.6765826791524887 -0.6765826791524887, 0.1353165414184332 l-0.4059496149420738, -1.3531653583049774 m0.6765826791524887, 1.3531653583049774 l0.0, 2.165064662694931 -0.9472157806158066, 0.4059496149420738 m1.3531653583049774, -1.8944315612316132 l0.4059496149420738, 1.3531653583049774 0.5412661656737328, 0.1353165414184332 m-8.118992447853088, -7.7130430936813354 l-0.1353165414184332, 10.148741006851196 1.3531653583049774, 4.194812774658203 l2.9769638180732727, 2.8416472673416138 1.7591150104999542, 0.6765826791524887 l4.60076242685318, 0.4059496149420738 1.8944315612316132, -1.0825323313474655 l2.165064662694931, -2.435697764158249 1.3531653583049774, -3.3829134702682495 l1.2178488820791245, -5.142028331756592 -0.2706330828368664, -4.60076242685318 l1.0825323313474655, -1.4884819090366364 0.1353165414184332, -1.4884819090366364 l-2.571014165878296, -1.0825323313474655 -5.81861138343811, 0.0 l-5.5479782819747925, 0.8118992298841476 -6.089244484901428, -0.2706330828368664 " fill="none" stroke="black" stroke-width="1" /></svg>