<?xml version="1.0" encoding="utf-8" ?>
<svg baseProfile="full" height="33.00381229259074" version="1.1" width="42.61128596961498" xmlns="http://www.w3.org/2000/svg" xmlns:ev="http://www.w3.org/2001/xml-events" xmlns:xlink="http://www.w3.org/1999/xlink"><defs /><rect fill="white" height="33.00381229259074" width="42.61128596961498" x="0" y="0" /><path d="M7.029748251661658, 14.742791214957833 m1.6237984597682953, -2.8416472673416138 l6.630510687828064, -4.871395528316498 3.7888631224632263, -0.9472157806158066 l3.9241796731948853, 0.0 6.765826940536499, 2.165064662694931 l2.30038121342659, 1.0825323313474655 1.3531653583049774, 1.3531653583049774 l1.6237984597682953, 4.465445876121521 -0.1353165414184332, 4.194812774658203 l-2.30038121342659, 5.006712079048157 -0.6765826791524887, 0.6765826791524887 l-3.6535465717315674, 1.8944315612316132 -4.465445876121521, 1.0825323313474655 l-5.5479782819747925, -1.2178488820791245 -9.742791056632996, -2.9769638180732727 l-1.7591150104999542, -0.9472157806158066 -0.5412661656737328, -1.6237984597682953 l0.0, -1.8944315612316132 1.0825323313474655, -4.871395528316498 m7.036460041999817, -7.577726244926453 l-0.4059496149420738, -0.8118992298841476 -1.6237984597682953, -0.9472157806158066 l-2.706330716609955, 0.0 -2.30038121342659, 0.8118992298841476 l-1.4884819090366364, 2.706330716609955 -0.8118992298841476, 3.6535465717315674 l0.0, 0.8118992298841476 1.4884819090366364, 2.165064662694931 l0.8118992298841476, 0.1353165414184332 m20.838747024536133, -8.254309296607971 l4.330129325389862, -2.165064662694931 3.7888631224632263, 0.5412661656737328 l1.3531653583049774, 1.7591150104999542 0.0, 2.435697764158249 l-0.4059496149420738, 1.6237984597682953 -0.9472157806158066, 1.3531653583049774 l-1.6237984597682953, 1.0825323313474655 m-3.5182300209999084, -6.089244484901428 l3.7888631224632263, 0.0 0.2706330828368664, 0.8118992298841476 l-0.4059496149420738, 1.3531653583049774 -1.0825323313474655, 1.2178488820791245 m-25.574827194213867, 1.2178488820791245 l-0.1353165414184332, -1.4884819090366364 1.0825323313474655, -2.30038121342659 l1.4884819090366364, -0.6765826791524887 0.9472157806158066, 0.2706330828368664 m5.6832945346832275, 5.006712079048157 l-0.8118992298841476, -0.1353165414184332 -1.3531653583049774, 1.0825323313474655 l0.2706330828368664, 1.4884819090366364 2.30038121342659, 0.9472157806158066 l0.8118992298841476, -0.2706330828368664 0.2706330828368664, -0.8118992298841476 l0.1353165414184332, -2.435697764158249 -1.2178488820791245, -1.3531653583049774 m4.465445876121521, 3.9241796731948853 l1.3531653583049774, -2.30038121342659 1.6237984597682953, -0.4059496149420738 l1.3531653583049774, 0.6765826791524887 1.2178488820791245, 1.6237984597682953 l-0.6765826791524887, 2.165064662694931 -1.7591150104999542, 2.165064662694931 l-1.6237984597682953, 0.2706330828368664 -0.9472157806158066, -0.4059496149420738 l-0.6765826791524887, -0.8118992298841476 0.0, -0.6765826791524887 l1.4884819090366364, -4.330129325389862 " fill="none" stroke="black" stroke-width="1" /></svg>