<?xml version="1.0" encoding="utf-8" ?>
<svg baseProfile="full" height="57.49610522761941" version="1.1" width="94.3022042978555" xmlns="http://www.w3.org/2000/svg" xmlns:ev="http://www.w3.org/2001/xml-events" xmlns:xlink="http://www.w3.org/1999/xlink"><defs /><rect fill="white" height="57.49610522761941" width="94.3022042978555" x="0" y="0" /><path d="M29.492294043302536, 20.15545219182968 m1.2178488820791245, -5.41266143321991 l0.1353165414184332, -5.5479782819747925 -0.5412661656737328, -1.7591150104999542 l-1.7591150104999542, -0.6765826791524887 -1.2178488820791245, 0.9472157806158066 l-2.30038121342659, 4.330129325389862 -1.8944315612316132, 6.765826940536499 l-6.359877586364746, 0.0 0.5412661656737328, -12.449121475219727 l-0.6765826791524887, -1.3531653583049774 -1.2178488820791245, 0.0 l-3.6535465717315674, 1.4884819090366364 -1.0825323313474655, 1.2178488820791245 l-0.6765826791524887, 3.6535465717315674 0.1353165414184332, 5.81861138343811 l-0.2706330828368664, 0.8118992298841476 -4.871395528316498, 3.9241796731948853 l0.4059496149420738, 5.142028331756592 0.5412661656737328, 1.8944315612316132 l4.60076242685318, 3.6535465717315674 1.8944315612316132, 0.5412661656737328 l2.30038121342659, 0.0 8.930891752243042, -4.736078977584839 l1.7591150104999542, 0.0 m-5.5479782819747925, 3.7888631224632263 l6.630510687828064, -5.6832945346832275 1.6237984597682953, -5.277345180511475 l0.8118992298841476, -1.4884819090366364 m-17.997100353240967, 2.706330716609955 l0.4059496149420738, 0.1353165414184332 m11.501905918121338, 2.8416472673416138 l0.2706330828368664, -0.2706330828368664 m-5.953927636146545, 3.9241796731948853 l-5.006712079048157, 0.1353165414184332 -0.8118992298841476, 0.5412661656737328 l-0.5412661656737328, 1.8944315612316132 0.0, 1.6237984597682953 m5.6832945346832275, -3.6535465717315674 l0.4059496149420738, 0.1353165414184332 m4.736078977584839, 1.0825323313474655 l-1.0825323313474655, 1.0825323313474655 4.194812774658203, 0.4059496149420738 l4.330129325389862, -0.1353165414184332 1.2178488820791245, -1.0825323313474655 l4.465445876121521, -1.2178488820791245 2.8416472673416138, 0.0 l1.6237984597682953, 0.8118992298841476 -1.8944315612316132, 18.267732858657837 l0.1353165414184332, 3.2475969195365906 0.6765826791524887, 0.2706330828368664 l7.036460041999817, -2.571014165878296 2.9769638180732727, -2.571014165878296 l1.6237984597682953, -2.165064662694931 0.0, -3.5182300209999084 l-2.571014165878296, -10.013424158096313 2.165064662694931, -0.6765826791524887 l4.465445876121521, -0.1353165414184332 5.6832945346832275, 0.2706330828368664 l0.5412661656737328, 7.7130430936813354 0.8118992298841476, 3.6535465717315674 l1.2178488820791245, 0.4059496149420738 2.9769638180732727, 0.0 l5.006712079048157, -1.2178488820791245 -0.5412661656737328, -7.7130430936813354 l0.5412661656737328, -1.6237984597682953 4.871395528316498, -1.0825323313474655 l4.059496223926544, -1.4884819090366364 7.8483593463897705, -4.330129325389862 l2.435697764158249, -2.435697764158249 0.0, -2.8416472673416138 l-1.6237984597682953, -3.2475969195365906 -0.9472157806158066, -1.3531653583049774 l-2.30038121342659, -1.6237984597682953 " fill="none" stroke="black" stroke-width="1" /></svg>