<?xml version="1.0" encoding="utf-8" ?>
<svg baseProfile="full" height="39.09305644221604" version="1.1" width="43.01723603159189" xmlns="http://www.w3.org/2000/svg" xmlns:ev="http://www.w3.org/2001/xml-events" xmlns:xlink="http://www.w3.org/1999/xlink"><defs /><rect fill="white" height="39.09305644221604" width="43.01723603159189" x="0" y="0" /><path d="M22.455834187567234, 9.194813007488847 m-1.2178488820791245, -0.6765826791524887 l-2.9769638180732727, 0.0 -3.5182300209999084, 1.8944315612316132 l-3.6535465717315674, 3.5182300209999084 -0.8118992298841476, 1.7591150104999542 l-0.2706330828368664, 1.8944315612316132 0.2706330828368664, 9.20152485370636 l0.6765826791524887, 3.2475969195365906 0.8118992298841476, 1.4884819090366364 l1.3531653583049774, 1.2178488820791245 1.8944315612316132, 0.8118992298841476 l3.6535465717315674, 0.5412661656737328 5.6832945346832275, -0.2706330828368664 l3.2475969195365906, -1.7591150104999542 2.165064662694931, -2.435697764158249 l0.9472157806158066, -4.871395528316498 0.2706330828368664, -7.983676195144653 l-0.5412661656737328, -1.7591150104999542 -1.4884819090366364, -1.6237984597682953 l-2.9769638180732727, -1.8944315612316132 -4.736078977584839, -2.029748111963272 m5.142028331756592, 1.4884819090366364 l0.1353165414184332, -2.8416472673416138 1.0825323313474655, -1.4884819090366364 l2.30038121342659, -1.4884819090366364 4.194812774658203, -0.1353165414184332 l2.435697764158249, 2.30038121342659 1.3531653583049774, 2.706330716609955 l0.1353165414184332, 1.8944315612316132 -1.7591150104999542, 2.435697764158249 l-4.059496223926544, 2.706330716609955 m-17.32051730155945, -6.224560737609863 l-2.435697764158249, -2.165064662694931 -1.4884819090366364, -0.6765826791524887 l-4.330129325389862, -0.2706330828368664 -1.0825323313474655, 1.0825323313474655 l-0.5412661656737328, 1.8944315612316132 0.2706330828368664, 2.435697764158249 l3.3829134702682495, 3.5182300209999084 2.435697764158249, 1.0825323313474655 m16.64393424987793, -6.630510687828064 l2.435697764158249, -0.2706330828368664 0.8118992298841476, 0.6765826791524887 l0.0, 3.1122803688049316 m-19.891531467437744, -2.30038121342659 l-0.4059496149420738, -0.8118992298841476 -2.30038121342659, -0.6765826791524887 l-0.6765826791524887, 0.0 -0.2706330828368664, 0.9472157806158066 l1.4884819090366364, 1.7591150104999542 2.435697764158249, 0.9472157806158066 m6.901143789291382, 1.6237984597682953 l-1.6237984597682953, -0.1353165414184332 -0.9472157806158066, 1.6237984597682953 l0.0, 0.8118992298841476 2.165064662694931, 0.4059496149420738 l0.8118992298841476, 0.0 0.2706330828368664, -0.8118992298841476 l-0.6765826791524887, -0.4059496149420738 m8.118992447853088, -1.7591150104999542 l-1.7591150104999542, 0.1353165414184332 -0.8118992298841476, 0.9472157806158066 l-0.1353165414184332, 1.6237984597682953 0.9472157806158066, 0.5412661656737328 l1.0825323313474655, -0.2706330828368664 0.2706330828368664, -1.4884819090366364 " fill="none" stroke="black" stroke-width="1" /></svg>