<?xml version="1.0" encoding="utf-8" ?>
<svg baseProfile="full" height="42.74660318158567" version="1.1" width="40.175588857382536" xmlns="http://www.w3.org/2000/svg" xmlns:ev="http://www.w3.org/2001/xml-events" xmlns:xlink="http://www.w3.org/1999/xlink"><defs /><rect fill="white" height="42.74660318158567" width="40.175588857382536" x="0" y="0" /><path d="M14.201524732634425, 8.112280536442995 m-2.435697764158249, -0.2706330828368664 l-1.3531653583049774, 0.5412661656737328 -3.1122803688049316, 2.571014165878296 l-1.8944315612316132, 2.9769638180732727 m9.336841106414795, -3.7888631224632263 l0.9472157806158066, -3.5182300209999084 1.8944315612316132, -1.6237984597682953 l-0.1353165414184332, 4.465445876121521 m-9.607474207878113, 1.8944315612316132 l-1.2178488820791245, -2.435697764158249 -1.0825323313474655, -0.9472157806158066 l-0.5412661656737328, 1.6237984597682953 0.0, 1.3531653583049774 l0.4059496149420738, 0.1353165414184332 m3.7888631224632263, 6.495193839073181 l-2.029748111963272, 1.2178488820791245 -0.6765826791524887, 1.2178488820791245 l0.2706330828368664, 2.029748111963272 0.8118992298841476, 1.8944315612316132 l5.81861138343811, -2.8416472673416138 3.1122803688049316, -0.6765826791524887 m-6.765826940536499, -3.2475969195365906 l0.1353165414184332, -1.7591150104999542 1.7591150104999542, -3.2475969195365906 m-4.194812774658203, 7.1717768907547 l-0.6765826791524887, -0.4059496149420738 0.0, -0.6765826791524887 l2.029748111963272, -2.8416472673416138 1.6237984597682953, -1.0825323313474655 m2.706330716609955, 8.795575499534607 l-0.8118992298841476, 1.3531653583049774 -0.4059496149420738, 3.7888631224632263 l2.165064662694931, 1.7591150104999542 12.31380581855774, 1.6237984597682953 l3.9241796731948853, 0.0 3.5182300209999084, -0.9472157806158066 m-15.832035541534424, -15.967352390289307 l0.6765826791524887, -0.9472157806158066 1.3531653583049774, -0.6765826791524887 l2.9769638180732727, -0.6765826791524887 9.742791056632996, -0.9472157806158066 l1.7591150104999542, 0.4059496149420738 m-20.70343017578125, 18.944315910339355 l-1.6237984597682953, 0.9472157806158066 -1.3531653583049774, 1.3531653583049774 l-0.5412661656737328, 2.706330716609955 m13.396337032318115, -9.066208004951477 l-1.8944315612316132, 4.736078977584839 -0.6765826791524887, 5.142028331756592 m10.960639715194702, -8.118992447853088 l2.706330716609955, 9.20152485370636 m-0.1353165414184332, -11.772539615631104 l0.5412661656737328, 3.5182300209999084 " fill="none" stroke="black" stroke-width="1" /></svg>