<?xml version="1.0" encoding="utf-8" ?>
<svg baseProfile="full" height="53.436608761548996" version="1.1" width="44.9116684589535" xmlns="http://www.w3.org/2000/svg" xmlns:ev="http://www.w3.org/2001/xml-events" xmlns:xlink="http://www.w3.org/1999/xlink"><defs /><rect fill="white" height="53.436608761548996" width="44.9116684589535" x="0" y="0" /><path d="M18.80228820256889, 11.901142597198486 m0.0, -0.6765826791524887 l-1.6237984597682953, -0.2706330828368664 -2.8416472673416138, 0.2706330828368664 l-0.8118992298841476, 0.6765826791524887 -3.2475969195365906, 3.9241796731948853 l-0.2706330828368664, 2.30038121342659 0.2706330828368664, 2.165064662694931 l2.706330716609955, 2.9769638180732727 3.1122803688049316, 0.8118992298841476 l1.4884819090366364, 0.0 5.277345180511475, -2.435697764158249 l1.7591150104999542, -4.059496223926544 0.2706330828368664, -2.706330716609955 l-1.4884819090366364, -2.9769638180732727 -0.6765826791524887, -0.5412661656737328 l-4.871395528316498, -2.029748111963272 m-4.059496223926544, 15.832035541534424 l-0.5412661656737328, -0.5412661656737328 -2.165064662694931, 0.2706330828368664 l-1.6237984597682953, 2.165064662694931 -1.0825323313474655, 2.706330716609955 l-0.8118992298841476, 4.871395528316498 0.2706330828368664, 5.6832945346832275 l1.3531653583049774, 4.059496223926544 1.3531653583049774, 2.165064662694931 l1.6237984597682953, 1.2178488820791245 0.5412661656737328, 0.4059496149420738 l2.435697764158249, 0.2706330828368664 2.9769638180732727, -0.5412661656737328 l4.059496223926544, -2.706330716609955 1.3531653583049774, -1.6237984597682953 l2.435697764158249, -4.059496223926544 1.8944315612316132, -4.871395528316498 l0.0, -3.7888631224632263 -1.3531653583049774, -3.7888631224632263 l-2.8416472673416138, -3.7888631224632263 -1.4884819090366364, -0.5412661656737328 m4.871395528316498, 4.194812774658203 l1.3531653583049774, -0.5412661656737328 2.165064662694931, -2.30038121342659 l1.3531653583049774, -2.706330716609955 0.6765826791524887, -5.41266143321991 l-1.0825323313474655, -6.224560737609863 0.2706330828368664, -1.3531653583049774 l2.165064662694931, -1.0825323313474655 2.706330716609955, -0.2706330828368664 l1.6237984597682953, 0.8118992298841476 1.0825323313474655, 1.4884819090366364 l0.5412661656737328, 6.224560737609863 -0.8118992298841476, 2.435697764158249 l-1.7591150104999542, 2.8416472673416138 -5.953927636146545, 7.442409992218018 l-3.5182300209999084, 2.706330716609955 m5.953927636146545, -19.75621461868286 l-1.6237984597682953, -3.5182300209999084 -0.1353165414184332, -1.3531653583049774 l0.8118992298841476, 0.0 1.8944315612316132, 1.3531653583049774 l0.5412661656737328, -0.2706330828368664 1.4884819090366364, -2.435697764158249 l0.2706330828368664, 5.41266143321991 m-29.76963996887207, 20.974063873291016 l-0.5412661656737328, -0.5412661656737328 -0.9472157806158066, -2.435697764158249 l-0.8118992298841476, -4.330129325389862 0.6765826791524887, -7.577726244926453 l-0.6765826791524887, -8.389625549316406 " fill="none" stroke="black" stroke-width="1" /></svg>