<?xml version="1.0" encoding="utf-8" ?>
<svg baseProfile="full" height="87.80701176263392" version="1.1" width="125.69564303383231" xmlns="http://www.w3.org/2000/svg" xmlns:ev="http://www.w3.org/2001/xml-events" xmlns:xlink="http://www.w3.org/1999/xlink"><defs /><rect fill="white" height="87.80701176263392" width="125.69564303383231" x="0" y="0" /><path d="M43.02394995465875, 25.97406418994069 m16.64393424987793, -7.442409992218018 l14.478869438171387, -3.9241796731948853 6.765826940536499, -0.6765826791524887 l11.366589069366455, 0.0 3.1122803688049316, 0.8118992298841476 l3.1122803688049316, 1.7591150104999542 2.30038121342659, -4.736078977584839 l3.5182300209999084, -5.006712079048157 2.165064662694931, -1.0825323313474655 l2.165064662694931, -0.4059496149420738 5.006712079048157, -0.2706330828368664 l1.3531653583049774, 0.4059496149420738 2.435697764158249, 3.2475969195365906 l0.4059496149420738, 1.3531653583049774 2.8416472673416138, 19.07963275909424 l-0.1353165414184332, 9.20152485370636 -3.3829134702682495, 7.983676195144653 l-4.059496223926544, 6.224560737609863 -8.118992447853088, 10.148741006851196 l-2.435697764158249, 0.1353165414184332 m-60.62180995941162, -35.85888385772705 l-2.30038121342659, -1.2178488820791245 -5.953927636146545, -2.029748111963272 l-5.81861138343811, -0.4059496149420738 -2.30038121342659, 1.8944315612316132 l-2.029748111963272, 3.2475969195365906 -0.9472157806158066, 3.3829134702682495 l-0.1353165414184332, 4.60076242685318 1.6237984597682953, 3.6535465717315674 l5.953927636146545, 7.7130430936813354 10.960639715194702, 8.930891752243042 l7.036460041999817, 4.465445876121521 8.118992447853088, 2.165064662694931 l11.772539615631104, 1.6237984597682953 26.65735960006714, 0.6765826791524887 l7.442409992218018, -1.6237984597682953 5.006712079048157, -2.029748111963272 l1.4884819090366364, -0.9472157806158066 0.4059496149420738, -1.0825323313474655 m-25.439510345458984, -21.78596258163452 l-10.284056663513184, -1.3531653583049774 -11.231273412704468, -0.1353165414184332 l-5.142028331756592, 2.029748111963272 -3.5182300209999084, 2.571014165878296 l-1.7591150104999542, 2.706330716609955 -1.2178488820791245, 3.9241796731948853 l0.0, 3.9241796731948853 0.5412661656737328, 1.8944315612316132 l3.5182300209999084, 4.330129325389862 1.0825323313474655, 0.5412661656737328 l2.30038121342659, 0.9472157806158066 5.277345180511475, 1.2178488820791245 l5.953927636146545, 0.5412661656737328 10.960639715194702, 0.0 l5.142028331756592, -1.2178488820791245 7.577726244926453, -3.5182300209999084 l1.6237984597682953, -1.4884819090366364 1.0825323313474655, -1.7591150104999542 l0.6765826791524887, -2.165064662694931 0.1353165414184332, -2.571014165878296 l-0.5412661656737328, -1.7591150104999542 -1.7591150104999542, -2.571014165878296 l-2.571014165878296, -1.6237984597682953 -12.178488969802856, -3.9241796731948853 l-2.029748111963272, -0.2706330828368664 m-12.58443832397461, 6.495193839073181 l-0.2706330828368664, 0.6765826791524887 0.0, -2.706330716609955 l1.0825323313474655, -2.435697764158249 m9.87810730934143, 5.5479782819747925 l-0.5412661656737328, 4.059496223926544 0.0, -2.029748111963272 l0.6765826791524887, -3.3829134702682495 m-9.336841106414795, 9.87810730934143 l0.0, 0.6765826791524887 1.7591150104999542, 0.8118992298841476 l4.465445876121521, 0.4059496149420738 2.571014165878296, -1.3531653583049774 l1.3531653583049774, -1.3531653583049774 -0.1353165414184332, -0.5412661656737328 m-23.409762382507324, -29.363689422607422 l-2.029748111963272, 0.4059496149420738 -0.6765826791524887, 2.30038121342659 l0.0, 4.194812774658203 0.9472157806158066, 1.3531653583049774 l1.3531653583049774, 0.0 0.6765826791524887, -0.8118992298841476 l0.4059496149420738, -1.7591150104999542 0.0, -4.330129325389862 l-0.4059496149420738, -1.4884819090366364 1.2178488820791245, 0.0 m24.086344242095947, 1.2178488820791245 l-0.9472157806158066, 0.2706330828368664 -0.5412661656737328, 0.6765826791524887 l-0.1353165414184332, 2.435697764158249 0.6765826791524887, 0.9472157806158066 l4.194812774658203, 0.1353165414184332 1.4884819090366364, -1.6237984597682953 l0.1353165414184332, -2.435697764158249 -1.0825323313474655, -0.9472157806158066 l-1.6237984597682953, -0.2706330828368664 m-18.944315910339355, 39.78306293487549 l-2.30038121342659, 0.2706330828368664 -1.0825323313474655, 0.5412661656737328 l-5.81861138343811, 3.9241796731948853 -4.465445876121521, 4.059496223926544 l-3.6535465717315674, 4.059496223926544 -2.706330716609955, 0.2706330828368664 l-3.5182300209999084, -1.7591150104999542 -17.861783504486084, -12.043172121047974 l-4.60076242685318, -1.6237984597682953 -0.8118992298841476, 0.4059496149420738 l-7.577726244926453, 13.396337032318115 -1.7591150104999542, 4.330129325389862 l-0.2706330828368664, 3.1122803688049316 " fill="none" stroke="black" stroke-width="1" /></svg>