<?xml version="1.0" encoding="utf-8" ?>
<svg baseProfile="full" height="31.65064630098641" version="1.1" width="40.31090460717678" xmlns="http://www.w3.org/2000/svg" xmlns:ev="http://www.w3.org/2001/xml-events" xmlns:xlink="http://www.w3.org/1999/xlink"><defs /><rect fill="white" height="31.65064630098641" width="40.31090460717678" x="0" y="0" /><path d="M24.21494849026203, 7.165064653381705 m4.330129325389862, -2.029748111963272 l5.41266143321991, -0.1353165414184332 0.6765826791524887, 0.4059496149420738 l0.6765826791524887, 2.435697764158249 -0.5412661656737328, 3.7888631224632263 l-1.7591150104999542, 2.571014165878296 -0.6765826791524887, 0.4059496149420738 l-2.165064662694931, 0.1353165414184332 m-14.478869438171387, -5.41266143321991 l-3.3829134702682495, -1.3531653583049774 -3.9241796731948853, 0.2706330828368664 l-1.2178488820791245, 1.0825323313474655 -1.0825323313474655, 1.3531653583049774 l-0.6765826791524887, 1.8944315612316132 -0.4059496149420738, 3.6535465717315674 l0.6765826791524887, 0.6765826791524887 3.2475969195365906, 0.4059496149420738 m14.478869438171387, -9.20152485370636 l3.9241796731948853, 1.3531653583049774 4.60076242685318, 3.1122803688049316 l1.2178488820791245, 2.165064662694931 0.2706330828368664, 1.4884819090366364 l-0.2706330828368664, 4.330129325389862 -1.0825323313474655, 1.8944315612316132 l-2.8416472673416138, 2.029748111963272 -7.983676195144653, 1.7591150104999542 l-7.442409992218018, 0.4059496149420738 -1.7591150104999542, -0.6765826791524887 l-2.8416472673416138, -2.029748111963272 -0.5412661656737328, -1.6237984597682953 l0.2706330828368664, -4.60076242685318 2.9769638180732727, -4.736078977584839 l1.2178488820791245, -1.2178488820791245 3.1122803688049316, -1.7591150104999542 l3.3829134702682495, -1.0825323313474655 m2.165064662694931, 10.013424158096313 l-0.4059496149420738, 1.4884819090366364 0.2706330828368664, 2.8416472673416138 l2.30038121342659, 0.5412661656737328 2.8416472673416138, -0.6765826791524887 l0.9472157806158066, -0.8118992298841476 0.6765826791524887, -0.9472157806158066 l0.0, -0.9472157806158066 -0.8118992298841476, -0.2706330828368664 m-5.006712079048157, -1.7591150104999542 l0.0, 2.029748111963272 -1.3531653583049774, 3.2475969195365906 l-2.165064662694931, 2.029748111963272 -3.3829134702682495, 0.1353165414184332 l-1.7591150104999542, -1.7591150104999542 m17.591150999069214, -2.30038121342659 " fill="none" stroke="black" stroke-width="1" /></svg>