<?xml version="1.0" encoding="utf-8" ?>
<svg baseProfile="full" height="72.51624081283808" version="1.1" width="56.954840486869216" xmlns="http://www.w3.org/2000/svg" xmlns:ev="http://www.w3.org/2001/xml-events" xmlns:xlink="http://www.w3.org/1999/xlink"><defs /><rect fill="white" height="72.51624081283808" width="56.954840486869216" x="0" y="0" /><path d="M8.112280406057835, 24.485581452026963 m0.0, 0.8118992298841476 l-0.9472157806158066, 0.8118992298841476 -0.9472157806158066, 1.8944315612316132 l-0.8118992298841476, 2.706330716609955 -0.4059496149420738, 4.059496223926544 l0.9472157806158066, 1.8944315612316132 3.2475969195365906, 4.330129325389862 l1.6237984597682953, 1.7591150104999542 1.6237984597682953, 0.9472157806158066 l6.089244484901428, 1.3531653583049774 9.742791056632996, 0.2706330828368664 l6.089244484901428, -1.4884819090366364 6.765826940536499, -3.1122803688049316 l2.706330716609955, -2.706330716609955 0.2706330828368664, -1.6237984597682953 l-1.8944315612316132, -4.059496223926544 -0.9472157806158066, -0.8118992298841476 l-3.9241796731948853, -7.036460041999817 -7.577726244926453, -3.2475969195365906 l-10.82532286643982, -1.7591150104999542 -5.6832945346832275, -0.1353165414184332 l-1.8944315612316132, 0.8118992298841476 -0.5412661656737328, 0.8118992298841476 l0.0, 5.006712079048157 -2.165064662694931, 0.9472157806158066 m0.8118992298841476, -2.706330716609955 l-2.30038121342659, -8.660258650779724 -0.1353165414184332, -4.330129325389862 l1.2178488820791245, -1.6237984597682953 3.6535465717315674, -2.706330716609955 l7.577726244926453, -1.8944315612316132 1.6237984597682953, 3.2475969195365906 l0.6765826791524887, 12.449121475219727 m11.231273412704468, 0.8118992298841476 l5.6832945346832275, -8.930891752243042 4.60076242685318, -4.330129325389862 l2.165064662694931, -0.8118992298841476 3.2475969195365906, 2.8416472673416138 l2.706330716609955, 3.9241796731948853 0.5412661656737328, 3.7888631224632263 l-0.4059496149420738, 1.8944315612316132 -0.9472157806158066, 2.165064662694931 l-5.953927636146545, 6.495193839073181 -1.2178488820791245, 4.871395528316498 m-28.82242441177368, 10.82532286643982 l-3.2475969195365906, 5.953927636146545 -0.8118992298841476, 2.435697764158249 l0.0, 3.7888631224632263 2.165064662694931, 4.736078977584839 l3.5182300209999084, 4.736078977584839 2.165064662694931, 1.0825323313474655 l3.7888631224632263, 0.5412661656737328 14.3435537815094, 0.0 l5.142028331756592, -1.0825323313474655 3.7888631224632263, -2.571014165878296 l1.6237984597682953, -3.6535465717315674 0.5412661656737328, -3.7888631224632263 l0.0, -4.871395528316498 -1.4884819090366364, -1.3531653583049774 l-4.871395528316498, -1.8944315612316132 -4.871395528316498, -3.5182300209999084 l-6.089244484901428, -1.8944315612316132 " fill="none" stroke="black" stroke-width="1" /></svg>