<?xml version="1.0" encoding="utf-8" ?>
<svg baseProfile="full" height="87.26574417203665" version="1.1" width="53.436608938500285" xmlns="http://www.w3.org/2000/svg" xmlns:ev="http://www.w3.org/2001/xml-events" xmlns:xlink="http://www.w3.org/1999/xlink"><defs /><rect fill="white" height="87.26574417203665" width="53.436608938500285" x="0" y="0" /><path d="M18.937603635713458, 76.1764998268336 m-1.0825323313474655, 0.0 l-2.029748111963272, 2.029748111963272 -1.6237984597682953, 2.30038121342659 l0.8118992298841476, 0.5412661656737328 1.6237984597682953, 0.2706330828368664 l1.4884819090366364, 0.8118992298841476 1.6237984597682953, 0.1353165414184332 l2.30038121342659, -0.9472157806158066 2.9769638180732727, -2.029748111963272 l1.7591150104999542, -4.736078977584839 0.8118992298841476, -7.036460041999817 l0.9472157806158066, -0.2706330828368664 2.9769638180732727, 0.0 l1.4884819090366364, 0.5412661656737328 1.4884819090366364, 1.8944315612316132 l1.0825323313474655, 5.5479782819747925 1.4884819090366364, 2.30038121342659 l2.9769638180732727, 2.435697764158249 1.3531653583049774, 0.1353165414184332 l3.2475969195365906, -1.8944315612316132 1.8944315612316132, -1.2178488820791245 l1.8944315612316132, -2.165064662694931 -4.059496223926544, -0.8118992298841476 l-2.8416472673416138, -1.3531653583049774 -0.6765826791524887, -3.1122803688049316 l0.0, -3.2475969195365906 -1.0825323313474655, -7.036460041999817 l-0.4059496149420738, -7.442409992218018 -1.4884819090366364, -9.87810730934143 l-0.2706330828368664, -5.953927636146545 0.1353165414184332, -11.366589069366455 l1.7591150104999542, -9.607474207878113 0.1353165414184332, -4.330129325389862 l-1.6237984597682953, -4.871395528316498 -0.8118992298841476, -0.8118992298841476 l-0.8118992298841476, 0.2706330828368664 -1.7591150104999542, 3.1122803688049316 l-1.6237984597682953, 4.60076242685318 -0.8118992298841476, 4.465445876121521 l0.0, 2.435697764158249 -0.6765826791524887, 2.30038121342659 l-2.165064662694931, 3.2475969195365906 -0.8118992298841476, 0.5412661656737328 l-0.4059496149420738, -0.8118992298841476 -0.2706330828368664, -7.442409992218018 l-1.6237984597682953, -2.571014165878296 -1.6237984597682953, -0.1353165414184332 l-6.495193839073181, 2.165064662694931 0.5412661656737328, 1.0825323313474655 l0.1353165414184332, 1.7591150104999542 -0.6765826791524887, 3.9241796731948853 l-0.4059496149420738, 0.9472157806158066 -0.6765826791524887, 0.1353165414184332 l-1.0825323313474655, -0.4059496149420738 -0.8118992298841476, -1.4884819090366364 l-1.4884819090366364, -4.871395528316498 -0.5412661656737328, -6.630510687828064 l-1.8944315612316132, -5.006712079048157 -1.0825323313474655, -1.4884819090366364 l-1.6237984597682953, -0.1353165414184332 -0.8118992298841476, 1.0825323313474655 l-1.4884819090366364, 4.330129325389862 -1.2178488820791245, 9.742791056632996 l1.4884819090366364, 2.30038121342659 5.6832945346832275, 13.396337032318115 l1.8944315612316132, 10.82532286643982 1.0825323313474655, 10.284056663513184 l0.6765826791524887, 3.3829134702682495 2.165064662694931, 5.81861138343811 l1.6237984597682953, 10.55469036102295 m0.2706330828368664, -55.750412940979004 l3.1122803688049316, 0.2706330828368664 1.0825323313474655, 1.2178488820791245 l0.0, 1.7591150104999542 -2.706330716609955, 2.029748111963272 l-1.4884819090366364, -2.029748111963272 -0.4059496149420738, -2.8416472673416138 " fill="none" stroke="black" stroke-width="1" /></svg>