<?xml version="1.0" encoding="utf-8" ?>
<svg baseProfile="full" height="81.31181648001075" version="1.1" width="83.0709309130907" xmlns="http://www.w3.org/2000/svg" xmlns:ev="http://www.w3.org/2001/xml-events" xmlns:xlink="http://www.w3.org/1999/xlink"><defs /><rect fill="white" height="81.31181648001075" width="83.0709309130907" x="0" y="0" /><path d="M15.14874055981636, 12.442409759387374 m-3.7888631224632263, -0.9472157806158066 l-3.9241796731948853, 0.9472157806158066 -2.435697764158249, 3.9241796731948853 l0.0, 2.165064662694931 2.435697764158249, 2.435697764158249 l4.330129325389862, 1.7591150104999542 2.8416472673416138, 2.706330716609955 l1.0825323313474655, 4.871395528316498 0.9472157806158066, 2.165064662694931 l1.3531653583049774, 1.4884819090366364 3.5182300209999084, 1.4884819090366364 l7.7130430936813354, 1.3531653583049774 10.55469036102295, -1.4884819090366364 l2.571014165878296, -1.0825323313474655 6.359877586364746, -1.4884819090366364 l7.036460041999817, -3.3829134702682495 2.706330716609955, -3.9241796731948853 l4.194812774658203, -4.330129325389862 0.6765826791524887, -5.953927636146545 l-2.571014165878296, -6.359877586364746 -2.30038121342659, -2.30038121342659 l-2.165064662694931, -1.3531653583049774 -2.571014165878296, -0.1353165414184332 l-1.3531653583049774, 0.1353165414184332 -4.465445876121521, 3.3829134702682495 l-2.9769638180732727, 3.6535465717315674 -4.330129325389862, -0.1353165414184332 l-10.148741006851196, -1.8944315612316132 -12.855072021484375, 1.7591150104999542 l-2.029748111963272, 0.8118992298841476 0.1353165414184332, 0.4059496149420738 m1.6237984597682953, 18.132416009902954 l0.0, 0.0 m11.231273412704468, 6.224560737609863 l-4.871395528316498, 3.6535465717315674 -6.089244484901428, 6.359877586364746 l-1.4884819090366364, 3.9241796731948853 0.0, 2.165064662694931 l0.6765826791524887, 0.2706330828368664 2.706330716609955, -0.4059496149420738 l3.2475969195365906, 0.1353165414184332 1.2178488820791245, -0.9472157806158066 l1.6237984597682953, -0.2706330828368664 0.9472157806158066, 0.1353165414184332 l0.5412661656737328, 0.6765826791524887 -1.0825323313474655, 2.571014165878296 l1.2178488820791245, 18.944315910339355 0.5412661656737328, 1.6237984597682953 l0.6765826791524887, -0.5412661656737328 2.435697764158249, -0.1353165414184332 l2.30038121342659, -1.2178488820791245 1.3531653583049774, -0.1353165414184332 l0.5412661656737328, -0.8118992298841476 2.029748111963272, -5.6832945346832275 l0.9472157806158066, -4.465445876121521 -0.5412661656737328, -1.4884819090366364 l0.0, -1.6237984597682953 1.4884819090366364, 0.4059496149420738 l3.9241796731948853, -1.0825323313474655 5.953927636146545, -0.1353165414184332 l3.6535465717315674, -0.9472157806158066 0.8118992298841476, 0.2706330828368664 l0.8118992298841476, 2.9769638180732727 -0.1353165414184332, 6.224560737609863 l1.7591150104999542, 3.5182300209999084 4.871395528316498, -0.6765826791524887 l3.5182300209999084, -1.7591150104999542 0.8118992298841476, -1.6237984597682953 l0.4059496149420738, -3.9241796731948853 -2.029748111963272, -4.60076242685318 l-3.3829134702682495, -3.6535465717315674 -0.4059496149420738, -6.765826940536499 l-0.9472157806158066, -3.5182300209999084 13.396337032318115, -6.224560737609863 l6.089244484901428, -3.7888631224632263 -0.1353165414184332, -0.6765826791524887 l-3.1122803688049316, -1.2178488820791245 -10.284056663513184, -1.3531653583049774 l-4.60076242685318, -1.3531653583049774 -3.3829134702682495, -0.1353165414184332 l-0.1353165414184332, 1.2178488820791245 " fill="none" stroke="black" stroke-width="1" /></svg>