<?xml version="1.0" encoding="utf-8" ?>
<svg baseProfile="full" height="47.8886307310313" version="1.1" width="59.39053720794618" xmlns="http://www.w3.org/2000/svg" xmlns:ev="http://www.w3.org/2001/xml-events" xmlns:xlink="http://www.w3.org/1999/xlink"><defs /><rect fill="white" height="47.8886307310313" width="59.39053720794618" x="0" y="0" /><path d="M6.6237984504550695, 17.043172027915716 m-1.4884819090366364, -1.4884819090366364 l-0.1353165414184332, -4.465445876121521 1.2178488820791245, -2.571014165878296 l1.0825323313474655, -1.2178488820791245 3.1122803688049316, -2.029748111963272 l4.194812774658203, -0.2706330828368664 2.8416472673416138, 1.4884819090366364 l2.165064662694931, 2.029748111963272 1.6237984597682953, 3.7888631224632263 l0.9472157806158066, 0.4059496149420738 5.81861138343811, -0.6765826791524887 l8.389625549316406, 0.0 4.059496223926544, 1.3531653583049774 l1.2178488820791245, -2.571014165878296 2.571014165878296, -2.8416472673416138 l3.9241796731948853, -1.8944315612316132 2.30038121342659, 0.0 l3.1122803688049316, 1.7591150104999542 0.6765826791524887, 1.4884819090366364 l0.1353165414184332, 2.706330716609955 -0.9472157806158066, 2.571014165878296 l-2.30038121342659, 2.9769638180732727 0.1353165414184332, 3.5182300209999084 l-0.6765826791524887, 2.9769638180732727 -2.9769638180732727, 6.224560737609863 l-2.9769638180732727, 4.330129325389862 -2.571014165878296, 2.571014165878296 l-3.5182300209999084, 2.571014165878296 -3.9241796731948853, 2.165064662694931 l-4.059496223926544, 0.8118992298841476 -5.953927636146545, 0.1353165414184332 l-5.81861138343811, -1.0825323313474655 -5.6832945346832275, -3.3829134702682495 l-1.7591150104999542, -2.029748111963272 -3.1122803688049316, -6.089244484901428 l-1.8944315612316132, -7.307093143463135 0.2706330828368664, -6.901143789291382 l0.2706330828368664, -0.9472157806158066 1.0825323313474655, -0.5412661656737328 m23.6803936958313, 10.284056663513184 l-0.9472157806158066, -0.6765826791524887 -3.7888631224632263, 0.0 l-1.3531653583049774, 1.4884819090366364 0.0, 1.0825323313474655 l0.6765826791524887, 1.0825323313474655 4.194812774658203, 0.1353165414184332 l2.435697764158249, -2.165064662694931 0.1353165414184332, -0.8118992298841476 l-0.8118992298841476, -0.6765826791524887 -0.8118992298841476, 0.0 m-3.2475969195365906, 5.953927636146545 l0.1353165414184332, 3.6535465717315674 -0.6765826791524887, 1.4884819090366364 l-2.571014165878296, 1.0825323313474655 -2.706330716609955, 0.0 l-0.6765826791524887, -0.5412661656737328 m6.630510687828064, -7.8483593463897705 l1.3531653583049774, 5.41266143321991 0.6765826791524887, 1.0825323313474655 l3.3829134702682495, 1.3531653583049774 2.706330716609955, -0.8118992298841476 " fill="none" stroke="black" stroke-width="1" /></svg>