<?xml version="1.0" encoding="utf-8" ?>
<svg baseProfile="full" height="80.22928493097425" version="1.1" width="38.957739882171154" xmlns="http://www.w3.org/2000/svg" xmlns:ev="http://www.w3.org/2001/xml-events" xmlns:xlink="http://www.w3.org/1999/xlink"><defs /><rect fill="white" height="80.22928493097425" width="38.957739882171154" x="0" y="0" /><path d="M24.21494886279106, 15.284057697281241 m-4.465445876121521, 1.4884819090366364 l-2.165064662694931, 3.1122803688049316 -1.6237984597682953, 5.142028331756592 l0.2706330828368664, 5.6832945346832275 1.6237984597682953, 1.3531653583049774 l2.8416472673416138, 0.9472157806158066 2.30038121342659, 0.1353165414184332 l8.930891752243042, -2.9769638180732727 0.8118992298841476, -0.6765826791524887 l0.0, -2.029748111963272 -0.6765826791524887, -2.029748111963272 l-3.1122803688049316, -4.465445876121521 -4.330129325389862, -2.706330716609955 l-6.224560737609863, 0.8118992298841476 m-0.2706330828368664, 0.0 l-1.2178488820791245, -3.3829134702682495 -0.2706330828368664, -3.6535465717315674 l0.2706330828368664, -1.7591150104999542 0.9472157806158066, -0.5412661656737328 l1.7591150104999542, 0.5412661656737328 1.2178488820791245, 1.8944315612316132 l0.5412661656737328, 6.224560737609863 m2.029748111963272, -0.9472157806158066 l1.3531653583049774, -1.6237984597682953 2.435697764158249, -6.089244484901428 l1.8944315612316132, -2.435697764158249 2.30038121342659, -2.029748111963272 l0.8118992298841476, -0.2706330828368664 0.9472157806158066, 0.4059496149420738 l0.8118992298841476, 2.30038121342659 -0.4059496149420738, 4.465445876121521 l-0.6765826791524887, 1.7591150104999542 -4.871395528316498, 7.307093143463135 l-0.6765826791524887, 2.029748111963272 m-7.577726244926453, -0.2706330828368664 l-0.2706330828368664, 0.4059496149420738 m5.006712079048157, -0.5412661656737328 l0.1353165414184332, 0.0 m0.0, 0.0 l0.0, 0.0 m-5.006712079048157, 4.465445876121521 l0.4059496149420738, 0.6765826791524887 0.8118992298841476, 0.2706330828368664 l2.30038121342659, 0.0 2.706330716609955, -0.8118992298841476 l-1.2178488820791245, -1.0825323313474655 m-6.901143789291382, 5.5479782819747925 l-3.5182300209999084, 10.55469036102295 -0.2706330828368664, 6.765826940536499 l0.2706330828368664, 5.953927636146545 1.4884819090366364, 4.059496223926544 l1.2178488820791245, 0.9472157806158066 3.1122803688049316, -0.9472157806158066 l3.1122803688049316, -2.435697764158249 1.4884819090366364, -1.3531653583049774 l1.8944315612316132, -3.6535465717315674 0.4059496149420738, -1.6237984597682953 l0.0, -7.1717768907547 1.0825323313474655, -3.6535465717315674 l0.1353165414184332, -5.6832945346832275 0.8118992298841476, -2.706330716609955 m-12.990387678146362, 25.439510345458984 l-0.8118992298841476, 3.5182300209999084 0.0, 6.224560737609863 l-2.165064662694931, 5.6832945346832275 -2.9769638180732727, 1.6237984597682953 l-1.6237984597682953, -0.2706330828368664 -2.165064662694931, -1.8944315612316132 l-1.2178488820791245, -3.7888631224632263 1.7591150104999542, -0.8118992298841476 l2.571014165878296, 0.0 3.6535465717315674, -7.577726244926453 l2.9769638180732727, -4.330129325389862 0.0, -0.8118992298841476 m2.706330716609955, 5.6832945346832275 l-0.1353165414184332, 2.706330716609955 -1.2178488820791245, 4.330129325389862 l0.4059496149420738, 8.118992447853088 3.9241796731948853, 0.4059496149420738 l5.277345180511475, -1.7591150104999542 0.2706330828368664, -0.9472157806158066 l-1.0825323313474655, -1.7591150104999542 -6.224560737609863, -3.5182300209999084 l0.0, -9.607474207878113 " fill="none" stroke="black" stroke-width="1" /></svg>