<?xml version="1.0" encoding="utf-8" ?>
<svg baseProfile="full" height="57.090155985206366" version="1.1" width="79.41738469526172" xmlns="http://www.w3.org/2000/svg" xmlns:ev="http://www.w3.org/2001/xml-events" xmlns:xlink="http://www.w3.org/1999/xlink"><defs /><rect fill="white" height="57.090155985206366" width="79.41738469526172" x="0" y="0" /><path d="M57.3675003554672, 9.059495711699128 m-3.7888631224632263, -1.4884819090366364 l-4.60076242685318, -0.6765826791524887 -4.194812774658203, 0.0 l-4.059496223926544, 0.8118992298841476 -5.41266143321991, 2.029748111963272 l-5.6832945346832275, 4.059496223926544 -2.571014165878296, 3.6535465717315674 l-3.1122803688049316, 7.1717768907547 -0.1353165414184332, 1.4884819090366364 l0.9472157806158066, 2.30038121342659 2.435697764158249, 2.435697764158249 l3.9241796731948853, 2.571014165878296 6.495193839073181, 2.165064662694931 l24.086344242095947, 0.0 7.036460041999817, -1.8944315612316132 l3.3829134702682495, -2.435697764158249 1.4884819090366364, -4.330129325389862 l0.1353165414184332, -2.8416472673416138 -0.4059496149420738, -1.6237984597682953 l-2.029748111963272, -4.60076242685318 -0.9472157806158066, -1.0825323313474655 l-9.066208004951477, -4.465445876121521 -6.901143789291382, -2.165064662694931 m-19.620898962020874, 24.22166109085083 l-0.4059496149420738, 3.2475969195365906 -2.571014165878296, 7.307093143463135 l-1.3531653583049774, 2.706330716609955 -1.3531653583049774, 1.6237984597682953 l-1.6237984597682953, 0.4059496149420738 3.7888631224632263, 0.5412661656737328 l4.194812774658203, 0.0 3.6535465717315674, -1.0825323313474655 l3.2475969195365906, -6.495193839073181 1.6237984597682953, -6.495193839073181 m13.802287578582764, -0.4059496149420738 l-1.2178488820791245, 9.607474207878113 -1.4884819090366364, 4.871395528316498 l-1.2178488820791245, 1.0825323313474655 -3.1122803688049316, 0.2706330828368664 l1.2178488820791245, 0.4059496149420738 9.336841106414795, 0.1353165414184332 l3.2475969195365906, -1.8944315612316132 2.165064662694931, -3.5182300209999084 l1.3531653583049774, -5.5479782819747925 0.1353165414184332, -4.736078977584839 l-0.4059496149420738, -1.0825323313474655 m5.81861138343811, -16.102668046951294 l0.0, -0.8118992298841476 -1.3531653583049774, 0.1353165414184332 l-0.5412661656737328, 0.6765826791524887 0.0, 1.4884819090366364 l0.9472157806158066, 0.9472157806158066 0.8118992298841476, 0.1353165414184332 l0.9472157806158066, -1.7591150104999542 -2.029748111963272, 0.0 l0.5412661656737328, -0.9472157806158066 0.8118992298841476, -0.2706330828368664 m-38.70053052902222, -7.577726244926453 l-1.6237984597682953, -2.165064662694931 -2.9769638180732727, -1.8944315612316132 l-1.0825323313474655, -0.2706330828368664 -10.55469036102295, -1.8944315612316132 l-3.7888631224632263, 0.0 -3.3829134702682495, 1.0825323313474655 l0.4059496149420738, 0.8118992298841476 6.089244484901428, 1.0825323313474655 l-10.284056663513184, 2.9769638180732727 -1.0825323313474655, 0.9472157806158066 l-1.4884819090366364, 2.571014165878296 -0.2706330828368664, 2.435697764158249 l0.4059496149420738, 0.8118992298841476 4.871395528316498, 0.9472157806158066 l3.3829134702682495, -0.1353165414184332 -6.901143789291382, 4.465445876121521 l-0.5412661656737328, 0.9472157806158066 0.4059496149420738, 1.3531653583049774 l3.2475969195365906, 1.0825323313474655 3.7888631224632263, 0.5412661656737328 l4.194812774658203, 0.0 1.2178488820791245, -0.2706330828368664 l5.81861138343811, -3.5182300209999084 " fill="none" stroke="black" stroke-width="1" /></svg>