<?xml version="1.0" encoding="utf-8" ?>
<svg baseProfile="full" height="69.94522631168365" version="1.1" width="88.34827662445605" xmlns="http://www.w3.org/2000/svg" xmlns:ev="http://www.w3.org/2001/xml-events" xmlns:xlink="http://www.w3.org/1999/xlink"><defs /><rect fill="white" height="69.94522631168365" width="88.34827662445605" x="0" y="0" /><path d="M12.983675450086594, 19.749501552432775 m11.231273412704468, -2.435697764158249 l8.795575499534607, -0.6765826791524887 5.953927636146545, 0.2706330828368664 l5.81861138343811, 1.7591150104999542 5.41266143321991, 3.1122803688049316 l4.194812774658203, 3.9241796731948853 1.2178488820791245, 1.8944315612316132 l0.8118992298841476, 1.8944315612316132 0.1353165414184332, 4.194812774658203 l-0.8118992298841476, 2.165064662694931 -1.4884819090366364, 1.7591150104999542 l-4.059496223926544, 3.2475969195365906 -5.142028331756592, 3.1122803688049316 l-3.2475969195365906, 1.2178488820791245 -3.7888631224632263, 0.6765826791524887 l-8.254309296607971, 0.4059496149420738 -4.330129325389862, -0.9472157806158066 l-4.736078977584839, -1.7591150104999542 -3.9241796731948853, -2.165064662694931 l-6.901143789291382, -5.142028331756592 -2.30038121342659, -2.706330716609955 l-1.6237984597682953, -2.706330716609955 -0.8118992298841476, -2.706330716609955 l-0.1353165414184332, -2.571014165878296 0.2706330828368664, -2.165064662694931 l1.0825323313474655, -1.7591150104999542 1.7591150104999542, -1.2178488820791245 l4.736078977584839, -0.5412661656737328 m31.528754234313965, 22.056596279144287 l-1.4884819090366364, 11.63722276687622 0.0, 3.7888631224632263 l0.5412661656737328, 2.029748111963272 1.2178488820791245, 2.029748111963272 l3.1122803688049316, 2.9769638180732727 m1.3531653583049774, -22.056596279144287 l0.0, 13.396337032318115 4.736078977584839, 4.736078977584839 l1.2178488820791245, 2.435697764158249 -0.2706330828368664, 0.8118992298841476 l-1.3531653583049774, 0.5412661656737328 -4.736078977584839, -0.1353165414184332 m4.059496223926544, -5.41266143321991 l5.006712079048157, 0.1353165414184332 m-1.3531653583049774, 2.706330716609955 l2.571014165878296, 0.0 0.2706330828368664, 0.6765826791524887 m-5.81861138343811, 0.6765826791524887 l2.571014165878296, 2.029748111963272 m-1.3531653583049774, 0.0 l0.0, 0.0 m-1.0825323313474655, -41.677494049072266 l1.3531653583049774, -5.6832945346832275 1.4884819090366364, -2.706330716609955 l3.5182300209999084, -2.706330716609955 3.2475969195365906, -1.3531653583049774 l0.9472157806158066, -0.8118992298841476 1.0825323313474655, -3.7888631224632263 l1.6237984597682953, -0.4059496149420738 m-6.495193839073181, 6.359877586364746 l0.6765826791524887, -0.4059496149420738 0.9472157806158066, -1.7591150104999542 l0.8118992298841476, -3.1122803688049316 0.8118992298841476, -0.9472157806158066 l2.435697764158249, -0.9472157806158066 2.165064662694931, 0.0 l1.0825323313474655, 1.7591150104999542 0.8118992298841476, 2.435697764158249 l0.0, 1.4884819090366364 7.036460041999817, 2.8416472673416138 l1.7591150104999542, 1.4884819090366364 1.7591150104999542, 3.2475969195365906 l2.435697764158249, 6.630510687828064 -0.8118992298841476, 0.5412661656737328 l-1.4884819090366364, 0.0 -2.165064662694931, -0.6765826791524887 l-3.2475969195365906, -0.2706330828368664 -6.901143789291382, 4.736078977584839 l-5.41266143321991, 0.0 -0.6765826791524887, 0.4059496149420738 l-0.5412661656737328, 2.435697764158249 -0.8118992298841476, 1.0825323313474655 l-3.2475969195365906, 2.30038121342659 m9.336841106414795, -20.974063873291016 l-0.6765826791524887, 1.8944315612316132 -0.9472157806158066, 0.5412661656737328 l-0.4059496149420738, -1.8944315612316132 1.4884819090366364, -0.1353165414184332 l0.5412661656737328, 0.6765826791524887 -0.6765826791524887, -0.2706330828368664 l0.0, -1.3531653583049774 0.6765826791524887, -0.2706330828368664 l0.5412661656737328, 0.9472157806158066 m15.561401844024658, 10.148741006851196 l0.1353165414184332, 1.4884819090366364 -0.8118992298841476, 3.1122803688049316 l-1.3531653583049774, 0.8118992298841476 -0.8118992298841476, -0.8118992298841476 l-2.165064662694931, -4.736078977584839 m-0.9472157806158066, 0.2706330828368664 l-0.2706330828368664, 4.465445876121521 -0.6765826791524887, 0.8118992298841476 l-1.7591150104999542, -0.2706330828368664 -2.30038121342659, -2.30038121342659 m-0.9472157806158066, 0.5412661656737328 " fill="none" stroke="black" stroke-width="1" /></svg>