<?xml version="1.0" encoding="utf-8" ?>
<svg baseProfile="full" height="33.00381143577397" version="1.1" width="34.898243295028806" xmlns="http://www.w3.org/2000/svg" xmlns:ev="http://www.w3.org/2001/xml-events" xmlns:xlink="http://www.w3.org/1999/xlink"><defs /><rect fill="white" height="33.00381143577397" width="34.898243295028806" x="0" y="0" /><path d="M9.736078903079033, 15.284056961536407 m-1.7591150104999542, 0.0 l-1.8944315612316132, -1.0825323313474655 -0.5412661656737328, -0.8118992298841476 l-0.5412661656737328, -2.9769638180732727 0.2706330828368664, -2.029748111963272 l2.30038121342659, -2.165064662694931 0.9472157806158066, -0.4059496149420738 l3.5182300209999084, 0.0 1.0825323313474655, 0.4059496149420738 l0.8118992298841476, 0.4059496149420738 1.8944315612316132, 3.7888631224632263 l0.6765826791524887, 0.5412661656737328 2.029748111963272, 0.0 l0.9472157806158066, -2.435697764158249 2.8416472673416138, -2.571014165878296 l2.30038121342659, -0.9472157806158066 3.2475969195365906, 0.2706330828368664 l1.8944315612316132, 2.9769638180732727 0.1353165414184332, 2.706330716609955 l-2.706330716609955, 3.5182300209999084 0.6765826791524887, 2.8416472673416138 l0.0, 2.8416472673416138 -0.8118992298841476, 2.8416472673416138 l-1.3531653583049774, 1.8944315612316132 -3.7888631224632263, 2.30038121342659 l-2.8416472673416138, 0.6765826791524887 -4.330129325389862, 0.1353165414184332 l-4.330129325389862, -1.7591150104999542 -1.2178488820791245, -1.2178488820791245 l-1.2178488820791245, -2.8416472673416138 -0.2706330828368664, -4.194812774658203 l2.165064662694931, -3.2475969195365906 0.9472157806158066, -0.4059496149420738 m5.006712079048157, 4.059496223926544 l2.8416472673416138, -0.2706330828368664 0.5412661656737328, 0.6765826791524887 l-0.8118992298841476, 2.165064662694931 -0.6765826791524887, 0.1353165414184332 l-1.4884819090366364, -1.8944315612316132 " fill="none" stroke="black" stroke-width="1" /></svg>