<?xml version="1.0" encoding="utf-8" ?>
<svg baseProfile="full" height="31.515329964458942" version="1.1" width="30.56811454705894" xmlns="http://www.w3.org/2000/svg" xmlns:ev="http://www.w3.org/2001/xml-events" xmlns:xlink="http://www.w3.org/1999/xlink"><defs /><rect fill="white" height="31.515329964458942" width="30.56811454705894" x="0" y="0" /><path d="M7.706331107765436, 9.600762575864792 m5.953927636146545, -1.2178488820791245 l-2.029748111963272, 0.4059496149420738 -1.8944315612316132, 2.30038121342659 l-3.5182300209999084, 7.8483593463897705 -0.1353165414184332, 2.9769638180732727 l1.2178488820791245, 2.571014165878296 4.871395528316498, 2.029748111963272 l9.20152485370636, -1.6237984597682953 2.435697764158249, -2.30038121342659 l1.7591150104999542, -5.277345180511475 -1.2178488820791245, -3.7888631224632263 l-3.6535465717315674, -3.5182300209999084 -2.706330716609955, -1.3531653583049774 l-3.1122803688049316, 0.0 m3.6535465717315674, -0.5412661656737328 l1.0825323313474655, -2.435697764158249 2.435697764158249, -0.6765826791524887 l1.2178488820791245, 0.2706330828368664 0.9472157806158066, 1.0825323313474655 l0.5412661656737328, 2.571014165878296 -1.3531653583049774, 3.2475969195365906 m-12.31380581855774, -4.330129325389862 l-1.2178488820791245, -1.4884819090366364 -2.165064662694931, -0.2706330828368664 l-1.3531653583049774, 0.4059496149420738 -1.2178488820791245, 1.2178488820791245 l-0.1353165414184332, 2.029748111963272 1.0825323313474655, 2.30038121342659 l1.3531653583049774, 1.2178488820791245 2.165064662694931, 0.6765826791524887 m3.5182300209999084, 6.901143789291382 l5.142028331756592, -0.2706330828368664 0.0, 1.4884819090366364 l-0.4059496149420738, 1.4884819090366364 -1.2178488820791245, 1.2178488820791245 l-2.571014165878296, 0.2706330828368664 -1.2178488820791245, -0.8118992298841476 m-0.2706330828368664, -3.2475969195365906 l0.0, 1.0825323313474655 " fill="none" stroke="black" stroke-width="1" /></svg>