<?xml version="1.0" encoding="utf-8" ?>
<svg baseProfile="full" height="56.684206193313" version="1.1" width="37.46925716288388" xmlns="http://www.w3.org/2000/svg" xmlns:ev="http://www.w3.org/2001/xml-events" xmlns:xlink="http://www.w3.org/1999/xlink"><defs /><rect fill="white" height="56.684206193313" width="37.46925716288388" x="0" y="0" /><path d="M11.765826940536499, 6.353165423497558 m-2.435697764158249, -1.2178488820791245 l-2.571014165878296, -0.1353165414184332 -0.9472157806158066, 0.6765826791524887 l-0.8118992298841476, 1.6237984597682953 0.1353165414184332, 3.2475969195365906 l1.0825323313474655, 1.2178488820791245 1.6237984597682953, 0.9472157806158066 l1.7591150104999542, 0.2706330828368664 1.7591150104999542, 0.0 l1.4884819090366364, -0.9472157806158066 0.9472157806158066, -1.3531653583049774 l0.2706330828368664, -1.2178488820791245 0.0, -1.6237984597682953 l-0.9472157806158066, -1.0825323313474655 -2.435697764158249, -0.4059496149420738 m21.78596258163452, 4.465445876121521 l-1.7591150104999542, -2.706330716609955 -3.6535465717315674, -2.571014165878296 l-6.089244484901428, -0.4059496149420738 -1.3531653583049774, 0.9472157806158066 l-0.5412661656737328, 1.3531653583049774 0.1353165414184332, 3.1122803688049316 l1.7591150104999542, 1.7591150104999542 2.029748111963272, 1.2178488820791245 l2.165064662694931, 0.6765826791524887 3.5182300209999084, 0.1353165414184332 l1.0825323313474655, -0.1353165414184332 0.5412661656737328, -0.9472157806158066 l-0.2706330828368664, -3.5182300209999084 -1.2178488820791245, -1.8944315612316132 l-1.2178488820791245, -0.9472157806158066 -1.4884819090366364, -0.4059496149420738 l-1.7591150104999542, 0.5412661656737328 m-1.0825323313474655, 6.224560737609863 l-1.8944315612316132, -0.1353165414184332 -3.9241796731948853, -1.7591150104999542 l-3.3829134702682495, -0.1353165414184332 -1.3531653583049774, 0.5412661656737328 l-2.30038121342659, 2.165064662694931 -1.4884819090366364, 3.6535465717315674 l-0.2706330828368664, 6.765826940536499 1.2178488820791245, 3.6535465717315674 l1.0825323313474655, 1.3531653583049774 1.4884819090366364, 0.9472157806158066 l3.9241796731948853, 1.2178488820791245 2.029748111963272, 0.0 l1.7591150104999542, 0.0 2.029748111963272, -0.6765826791524887 l2.8416472673416138, -2.30038121342659 1.7591150104999542, -2.8416472673416138 l0.6765826791524887, -3.1122803688049316 -0.2706330828368664, -4.736078977584839 l-2.30038121342659, -3.6535465717315674 -2.8416472673416138, -1.4884819090366364 l-2.30038121342659, 0.5412661656737328 m-1.4884819090366364, 19.891531467437744 l-0.8118992298841476, -0.4059496149420738 -4.330129325389862, 0.1353165414184332 l-1.7591150104999542, 1.6237984597682953 -0.8118992298841476, 1.2178488820791245 l-0.6765826791524887, 3.1122803688049316 0.1353165414184332, 5.142028331756592 l0.6765826791524887, 1.7591150104999542 3.1122803688049316, 3.6535465717315674 l3.3829134702682495, 1.8944315612316132 4.330129325389862, 0.4059496149420738 l1.8944315612316132, -0.5412661656737328 3.3829134702682495, -2.30038121342659 l2.30038121342659, -3.3829134702682495 0.9472157806158066, -3.2475969195365906 l0.0, -2.9769638180732727 -0.6765826791524887, -1.4884819090366364 l-3.3829134702682495, -4.465445876121521 -2.571014165878296, -1.3531653583049774 " fill="none" stroke="black" stroke-width="1" /></svg>