<?xml version="1.0" encoding="utf-8" ?>
<svg baseProfile="full" height="61.55560261569917" version="1.1" width="55.195724815130234" xmlns="http://www.w3.org/2000/svg" xmlns:ev="http://www.w3.org/2001/xml-events" xmlns:xlink="http://www.w3.org/1999/xlink"><defs /><rect fill="white" height="61.55560261569917" width="55.195724815130234" x="0" y="0" /><path d="M15.013424903154373, 23.132416419684887 m-5.006712079048157, -6.224560737609863 l-0.5412661656737328, -2.30038121342659 0.0, -3.3829134702682495 l0.8118992298841476, -2.029748111963272 1.3531653583049774, -0.5412661656737328 l5.41266143321991, -0.2706330828368664 0.6765826791524887, 0.5412661656737328 l3.5182300209999084, 6.765826940536499 2.8416472673416138, -8.930891752243042 l2.8416472673416138, -0.2706330828368664 4.330129325389862, -1.4884819090366364 l4.059496223926544, 0.1353165414184332 3.3829134702682495, 2.30038121342659 l1.7591150104999542, 4.871395528316498 0.4059496149420738, 2.8416472673416138 l0.9472157806158066, 1.3531653583049774 4.736078977584839, 4.330129325389862 l2.706330716609955, 10.013424158096313 0.9472157806158066, 6.359877586364746 l0.0, 8.524942398071289 -1.7591150104999542, 3.5182300209999084 l-8.118992447853088, 4.465445876121521 -5.5479782819747925, 2.165064662694931 l-11.63722276687622, 0.6765826791524887 -4.60076242685318, -0.4059496149420738 l-2.571014165878296, -0.6765826791524887 -3.7888631224632263, -1.7591150104999542 l-2.30038121342659, -2.029748111963272 -2.9769638180732727, -4.736078977584839 l-1.8944315612316132, -6.495193839073181 0.0, -7.8483593463897705 l0.4059496149420738, -1.3531653583049774 1.7591150104999542, -2.165064662694931 l4.194812774658203, -7.7130430936813354 3.1122803688049316, -0.9472157806158066 m14.3435537815094, 5.5479782819747925 l-0.5412661656737328, -0.1353165414184332 " fill="none" stroke="black" stroke-width="1" /></svg>