<?xml version="1.0" encoding="utf-8" ?>
<svg baseProfile="full" height="53.43660872429609" version="1.1" width="57.49610682949424" xmlns="http://www.w3.org/2000/svg" xmlns:ev="http://www.w3.org/2001/xml-events" xmlns:xlink="http://www.w3.org/1999/xlink"><defs /><rect fill="white" height="53.43660872429609" width="57.49610682949424" x="0" y="0" /><path d="M13.254309743642807, 38.69381880387664 m-0.8118992298841476, -4.60076242685318 l0.1353165414184332, -6.901143789291382 2.706330716609955, -6.089244484901428 l4.194812774658203, -4.465445876121521 3.3829134702682495, -1.8944315612316132 l2.571014165878296, -1.2178488820791245 5.5479782819747925, -0.5412661656737328 l4.330129325389862, 0.2706330828368664 6.224560737609863, 3.1122803688049316 l4.736078977584839, 5.41266143321991 1.8944315612316132, 3.7888631224632263 l2.029748111963272, 5.953927636146545 0.1353165414184332, 4.059496223926544 l-0.6765826791524887, 3.1122803688049316 -3.1122803688049316, 4.60076242685318 l-2.30038121342659, 1.6237984597682953 -6.630510687828064, 3.1122803688049316 l-5.006712079048157, 0.4059496149420738 -5.81861138343811, -0.5412661656737328 l-4.60076242685318, -1.0825323313474655 -6.089244484901428, -5.277345180511475 l-1.6237984597682953, -5.277345180511475 m23.545079231262207, -23.6803936958313 l1.3531653583049774, -3.1122803688049316 1.4884819090366364, -1.6237984597682953 l2.9769638180732727, -1.7591150104999542 3.7888631224632263, -1.0825323313474655 l3.7888631224632263, 0.5412661656737328 1.0825323313474655, 3.9241796731948853 l0.0, 3.6535465717315674 -0.6765826791524887, 2.8416472673416138 l-2.165064662694931, 2.571014165878296 -1.4884819090366364, 0.9472157806158066 l-2.029748111963272, 0.4059496149420738 -0.9472157806158066, -0.5412661656737328 m-26.65735960006714, -2.9769638180732727 l-5.81861138343811, -2.30038121342659 -1.6237984597682953, -0.2706330828368664 l-2.8416472673416138, 0.4059496149420738 -1.7591150104999542, 1.7591150104999542 l-1.2178488820791245, 3.2475969195365906 -0.2706330828368664, 2.30038121342659 l0.9472157806158066, 1.4884819090366364 2.8416472673416138, 0.9472157806158066 l2.30038121342659, 0.0 4.465445876121521, -1.2178488820791245 m9.20152485370636, 2.435697764158249 l-1.3531653583049774, 1.3531653583049774 -0.5412661656737328, 2.165064662694931 l0.8118992298841476, 0.5412661656737328 0.6765826791524887, -0.1353165414184332 l1.8944315612316132, -2.029748111963272 -0.5412661656737328, -1.3531653583049774 l-1.3531653583049774, -0.1353165414184332 -0.2706330828368664, 1.3531653583049774 l1.3531653583049774, -0.1353165414184332 0.0, -0.6765826791524887 l-0.6765826791524887, 0.0 -0.1353165414184332, 0.4059496149420738 m14.208236932754517, -3.5182300209999084 l-0.6765826791524887, 0.0 -0.4059496149420738, 2.30038121342659 l0.6765826791524887, 0.4059496149420738 0.6765826791524887, -1.6237984597682953 l0.1353165414184332, -0.6765826791524887 -0.6765826791524887, -0.1353165414184332 l-0.4059496149420738, 1.3531653583049774 0.6765826791524887, 0.2706330828368664 l0.5412661656737328, -0.6765826791524887 -0.6765826791524887, -0.4059496149420738 l-0.6765826791524887, 0.4059496149420738 -0.9472157806158066, 2.165064662694931 m-3.5182300209999084, 9.87810730934143 l0.1353165414184332, -1.3531653583049774 0.6765826791524887, -0.6765826791524887 l3.2475969195365906, -1.0825323313474655 2.30038121342659, 0.0 l1.2178488820791245, 0.9472157806158066 -0.2706330828368664, 1.6237984597682953 l-0.4059496149420738, 0.6765826791524887 -2.706330716609955, 1.4884819090366364 " fill="none" stroke="black" stroke-width="1" /></svg>