<?xml version="1.0" encoding="utf-8" ?>
<svg baseProfile="full" height="33.13912901096046" version="1.1" width="34.356977166607976" xmlns="http://www.w3.org/2000/svg" xmlns:ev="http://www.w3.org/2001/xml-events" xmlns:xlink="http://www.w3.org/1999/xlink"><defs /><rect fill="white" height="33.13912901096046" width="34.356977166607976" x="0" y="0" /><path d="M15.690006883814931, 10.006712572649121 m0.0, 0.2706330828368664 m0.9472157806158066, -0.6765826791524887 l-4.60076242685318, 1.7591150104999542 -4.60076242685318, 3.2475969195365906 l-0.9472157806158066, 1.4884819090366364 -0.2706330828368664, 1.8944315612316132 l0.0, 1.2178488820791245 1.0825323313474655, 2.029748111963272 l3.7888631224632263, 5.277345180511475 2.9769638180732727, 1.6237984597682953 l1.3531653583049774, 0.0 6.495193839073181, 0.0 l3.6535465717315674, -1.0825323313474655 1.8944315612316132, -2.435697764158249 l0.0, -4.194812774658203 -1.0825323313474655, -4.60076242685318 l-6.765826940536499, -7.1717768907547 -3.2475969195365906, -0.1353165414184332 l-3.2475969195365906, 0.6765826791524887 m-4.194812774658203, 5.41266143321991 l-3.7888631224632263, -4.059496223926544 -0.1353165414184332, -0.5412661656737328 l0.4059496149420738, -1.2178488820791245 2.029748111963272, -1.7591150104999542 l5.142028331756592, -2.029748111963272 0.5412661656737328, 0.1353165414184332 l0.0, 1.0825323313474655 -0.6765826791524887, 3.2475969195365906 l0.2706330828368664, 0.5412661656737328 m9.472157955169678, 1.4884819090366364 l2.029748111963272, -3.9241796731948853 1.8944315612316132, -1.0825323313474655 l1.7591150104999542, 0.5412661656737328 1.3531653583049774, 0.9472157806158066 l0.1353165414184332, 0.5412661656737328 -0.8118992298841476, 2.165064662694931 l-1.0825323313474655, 1.3531653583049774 -1.4884819090366364, 0.9472157806158066 l-1.0825323313474655, 2.706330716609955 -0.6765826791524887, 0.4059496149420738 m-11.501905918121338, -2.029748111963272 l0.0, -0.4059496149420738 m5.41266143321991, 0.8118992298841476 l0.2706330828368664, 0.0 " fill="none" stroke="black" stroke-width="1" /></svg>