<?xml version="1.0" encoding="utf-8" ?>
<svg baseProfile="full" height="43.558501778170466" version="1.1" width="47.88863099180162" xmlns="http://www.w3.org/2000/svg" xmlns:ev="http://www.w3.org/2001/xml-events" xmlns:xlink="http://www.w3.org/1999/xlink"><defs /><rect fill="white" height="43.558501778170466" width="47.88863099180162" x="0" y="0" /><path d="M9.059495562687516, 20.29076878912747 m0.1353165414184332, 2.9769638180732727 l1.4884819090366364, 5.006712079048157 1.4884819090366364, 2.165064662694931 l2.706330716609955, 2.435697764158249 8.254309296607971, 3.6535465717315674 l6.901143789291382, 1.7591150104999542 8.660258650779724, 0.2706330828368664 l1.4884819090366364, -0.6765826791524887 2.571014165878296, -3.9241796731948853 l0.1353165414184332, -7.307093143463135 -1.3531653583049774, -4.465445876121521 l-3.1122803688049316, -3.9241796731948853 0.1353165414184332, -0.6765826791524887 l1.4884819090366364, -0.4059496149420738 0.5412661656737328, -0.6765826791524887 l0.4059496149420738, -2.8416472673416138 0.0, -3.6535465717315674 l-1.0825323313474655, -2.165064662694931 -1.3531653583049774, -1.3531653583049774 l-3.6535465717315674, -1.3531653583049774 -3.1122803688049316, -0.1353165414184332 l-1.4884819090366364, 0.8118992298841476 -1.0825323313474655, 1.6237984597682953 l-0.6765826791524887, 2.435697764158249 0.0, 2.706330716609955 l-0.6765826791524887, 0.4059496149420738 -3.6535465717315674, -1.4884819090366364 l-3.6535465717315674, 0.0 -2.165064662694931, 1.0825323313474655 l-1.3531653583049774, 2.029748111963272 -4.194812774658203, -7.577726244926453 l-3.5182300209999084, -1.4884819090366364 -2.029748111963272, 0.4059496149420738 l-1.0825323313474655, 1.4884819090366364 -0.9472157806158066, 2.435697764158249 l-0.2706330828368664, 3.2475969195365906 0.9472157806158066, 2.8416472673416138 l2.30038121342659, 2.706330716609955 1.7591150104999542, 0.8118992298841476 m13.66697072982788, 1.8944315612316132 l-0.5412661656737328, 0.6765826791524887 0.2706330828368664, 0.6765826791524887 l2.165064662694931, 0.2706330828368664 0.0, -2.029748111963272 l-1.0825323313474655, -0.5412661656737328 m6.089244484901428, -4.465445876121521 l-1.4884819090366364, 0.0 " fill="none" stroke="black" stroke-width="1" /></svg>