<?xml version="1.0" encoding="utf-8" ?>
<svg baseProfile="full" height="56.41357449814677" version="1.1" width="100.93271574005485" xmlns="http://www.w3.org/2000/svg" xmlns:ev="http://www.w3.org/2001/xml-events" xmlns:xlink="http://www.w3.org/1999/xlink"><defs /><rect fill="white" height="56.41357449814677" width="100.93271574005485" x="0" y="0" /><path d="M34.228374287486076, 25.838747676461935 m-2.029748111963272, 0.0 l-0.5412661656737328, 0.6765826791524887 0.2706330828368664, 1.3531653583049774 l0.6765826791524887, 0.5412661656737328 2.029748111963272, -0.2706330828368664 l1.3531653583049774, -0.9472157806158066 0.2706330828368664, -0.6765826791524887 l-1.3531653583049774, -0.5412661656737328 -2.029748111963272, 0.1353165414184332 l0.6765826791524887, 1.3531653583049774 -0.6765826791524887, 8.660258650779724 l-4.736078977584839, 1.3531653583049774 0.6765826791524887, 0.1353165414184332 l5.5479782819747925, -1.4884819090366364 2.706330716609955, 3.9241796731948853 m10.284056663513184, -22.19191312789917 l0.4059496149420738, 0.8118992298841476 m-21.24469757080078, 0.9472157806158066 l-2.165064662694931, 1.2178488820791245 -0.4059496149420738, 1.0825323313474655 m-8.524942398071289, -14.61418628692627 l-4.330129325389862, 0.9472157806158066 -2.9769638180732727, 1.2178488820791245 l-2.165064662694931, 1.4884819090366364 -0.9472157806158066, 2.029748111963272 l0.4059496149420738, 2.029748111963272 2.706330716609955, 2.029748111963272 l1.3531653583049774, -0.1353165414184332 0.6765826791524887, -1.4884819090366364 m36.129517555236816, -5.953927636146545 l5.6832945346832275, -2.706330716609955 2.30038121342659, -0.4059496149420738 l2.706330716609955, 0.1353165414184332 3.2475969195365906, 1.0825323313474655 l2.30038121342659, 2.029748111963272 0.9472157806158066, 2.30038121342659 l-0.8118992298841476, 3.6535465717315674 -2.029748111963272, 2.029748111963272 m-40.594964027404785, -5.6832945346832275 l4.871395528316498, -1.7591150104999542 8.660258650779724, -0.5412661656737328 l4.194812774658203, 0.8118992298841476 1.7591150104999542, 2.30038121342659 m-27.875206470489502, 17.049884796142578 l0.1353165414184332, 8.118992447853088 2.435697764158249, 5.5479782819747925 l5.006712079048157, 5.142028331756592 3.6535465717315674, 2.029748111963272 l3.2475969195365906, 0.8118992298841476 3.9241796731948853, 0.0 l3.1122803688049316, -0.5412661656737328 9.20152485370636, -2.571014165878296 l3.6535465717315674, -1.7591150104999542 3.2475969195365906, -3.3829134702682495 l2.165064662694931, -4.059496223926544 1.0825323313474655, -3.5182300209999084 l-0.4059496149420738, -3.5182300209999084 m0.0, 0.0 l0.0, 0.0 m7.983676195144653, 14.478869438171387 l5.277345180511475, -6.630510687828064 10.960639715194702, -10.284056663513184 l7.1717768907547, -9.472157955169678 4.465445876121521, -1.6237984597682953 l2.706330716609955, -0.4059496149420738 2.435697764158249, 0.4059496149420738 l1.6237984597682953, 1.8944315612316132 1.0825323313474655, 4.330129325389862 l0.1353165414184332, 7.036460041999817 -0.6765826791524887, 4.465445876121521 l-2.30038121342659, 5.006712079048157 -2.706330716609955, 2.30038121342659 l-2.571014165878296, 0.2706330828368664 m0.8118992298841476, -33.017237186431885 l0.1353165414184332, -1.3531653583049774 0.9472157806158066, -1.3531653583049774 l3.2475969195365906, -3.1122803688049316 " fill="none" stroke="black" stroke-width="1" /></svg>