<?xml version="1.0" encoding="utf-8" ?>
<svg baseProfile="full" height="40.17558845691383" version="1.1" width="30.703431013971567" xmlns="http://www.w3.org/2000/svg" xmlns:ev="http://www.w3.org/2001/xml-events" xmlns:xlink="http://www.w3.org/1999/xlink"><defs /><rect fill="white" height="40.17558845691383" width="30.703431013971567" x="0" y="0" /><path d="M16.366589767858386, 15.148740475997329 m0.5412661656737328, 1.3531653583049774 l0.5412661656737328, -0.8118992298841476 0.0, -0.6765826791524887 l-1.0825323313474655, -0.4059496149420738 -0.6765826791524887, 0.5412661656737328 l-0.2706330828368664, 2.435697764158249 0.8118992298841476, -0.2706330828368664 l0.2706330828368664, -1.4884819090366364 -0.2706330828368664, 1.3531653583049774 l0.6765826791524887, 0.1353165414184332 0.1353165414184332, -1.3531653583049774 m-5.41266143321991, -4.330129325389862 l-1.8944315612316132, -4.465445876121521 0.1353165414184332, -1.4884819090366364 l0.8118992298841476, -0.6765826791524887 0.8118992298841476, 0.4059496149420738 l0.9472157806158066, 2.30038121342659 0.4059496149420738, 2.9769638180732727 l0.6765826791524887, 0.2706330828368664 2.706330716609955, -1.6237984597682953 l2.8416472673416138, 0.0 2.30038121342659, 2.165064662694931 l0.2706330828368664, 0.9472157806158066 m-0.1353165414184332, -0.5412661656737328 l2.165064662694931, -2.8416472673416138 1.4884819090366364, -0.5412661656737328 l0.5412661656737328, 0.8118992298841476 0.0, 2.30038121342659 l-0.9472157806158066, 1.6237984597682953 -1.0825323313474655, 0.1353165414184332 m-7.307093143463135, -0.9472157806158066 l-0.1353165414184332, -0.1353165414184332 m3.2475969195365906, 0.0 l0.0, 0.0 m-0.8118992298841476, -0.8118992298841476 l0.0, 0.0 m-0.2706330828368664, 1.2178488820791245 l0.0, 0.0 m0.1353165414184332, -0.4059496149420738 l0.0, 0.0 m0.0, 0.0 l0.0, 0.0 m0.0, 0.0 l0.0, 0.0 m0.0, 0.0 l0.0, 0.0 m0.0, 1.2178488820791245 l0.0, 0.0 m0.0, -1.7591150104999542 l0.0, -0.2706330828368664 m-7.442409992218018, 0.6765826791524887 l-1.8944315612316132, 3.9241796731948853 0.0, 2.165064662694931 l1.4884819090366364, 3.1122803688049316 2.435697764158249, 1.7591150104999542 l2.706330716609955, 0.9472157806158066 3.9241796731948853, 0.2706330828368664 l0.6765826791524887, -0.5412661656737328 1.0825323313474655, -2.165064662694931 l1.0825323313474655, -3.2475969195365906 0.5412661656737328, -2.165064662694931 l0.0, -5.006712079048157 m-13.125704526901245, 10.55469036102295 l-0.6765826791524887, -0.1353165414184332 -2.8416472673416138, 1.4884819090366364 l-0.8118992298841476, 0.8118992298841476 -0.6765826791524887, 1.8944315612316132 l0.2706330828368664, 9.336841106414795 " fill="none" stroke="black" stroke-width="1" /></svg>