<?xml version="1.0" encoding="utf-8" ?>
<svg baseProfile="full" height="38.95773947238922" version="1.1" width="40.17558803781867" xmlns="http://www.w3.org/2000/svg" xmlns:ev="http://www.w3.org/2001/xml-events" xmlns:xlink="http://www.w3.org/1999/xlink"><defs /><rect fill="white" height="38.95773947238922" width="40.17558803781867" x="0" y="0" /><path d="M11.3598773162812, 7.9769642651081085 m-0.9472157806158066, -0.8118992298841476 l-2.9769638180732727, -0.2706330828368664 -1.8944315612316132, 2.029748111963272 l-0.4059496149420738, 1.6237984597682953 -0.1353165414184332, 4.60076242685318 l1.7591150104999542, 1.3531653583049774 3.5182300209999084, 0.1353165414184332 m2.9769638180732727, -7.983676195144653 l1.4884819090366364, 0.4059496149420738 0.9472157806158066, 2.8416472673416138 l0.1353165414184332, -0.9472157806158066 0.6765826791524887, -0.8118992298841476 l1.3531653583049774, -1.2178488820791245 0.9472157806158066, -0.2706330828368664 l3.5182300209999084, 0.0 1.0825323313474655, 1.2178488820791245 l2.706330716609955, -3.6535465717315674 2.165064662694931, -1.0825323313474655 l2.706330716609955, -0.1353165414184332 1.8944315612316132, 0.6765826791524887 l1.6237984597682953, 2.165064662694931 0.4059496149420738, 2.9769638180732727 l-1.7591150104999542, 2.029748111963272 -2.9769638180732727, 1.7591150104999542 l2.706330716609955, 3.5182300209999084 1.6237984597682953, 2.9769638180732727 l0.5412661656737328, 1.8944315612316132 0.1353165414184332, 3.9241796731948853 l-1.2178488820791245, 1.8944315612316132 -1.7591150104999542, 1.6237984597682953 l-4.736078977584839, 2.30038121342659 -5.81861138343811, 1.2178488820791245 l-6.359877586364746, 0.0 -1.7591150104999542, -0.5412661656737328 l-2.706330716609955, -1.6237984597682953 -2.30038121342659, -3.3829134702682495 l-0.4059496149420738, -1.8944315612316132 0.0, -4.60076242685318 l2.435697764158249, -3.7888631224632263 m5.142028331756592, -1.8944315612316132 l-0.1353165414184332, 2.706330716609955 0.4059496149420738, 0.6765826791524887 l1.8944315612316132, 0.0 1.3531653583049774, -1.6237984597682953 l0.0, -1.6237984597682953 -0.9472157806158066, -0.6765826791524887 l-1.0825323313474655, -0.1353165414184332 -0.9472157806158066, 0.0 l-0.6765826791524887, 0.6765826791524887 m7.036460041999817, -1.6237984597682953 l-0.4059496149420738, 0.9472157806158066 0.0, 2.571014165878296 l0.8118992298841476, 0.5412661656737328 " fill="none" stroke="black" stroke-width="1" /></svg>