<?xml version="1.0" encoding="utf-8" ?>
<svg baseProfile="full" height="34.356977324932814" version="1.1" width="44.09976840950549" xmlns="http://www.w3.org/2000/svg" xmlns:ev="http://www.w3.org/2001/xml-events" xmlns:xlink="http://www.w3.org/1999/xlink"><defs /><rect fill="white" height="34.356977324932814" width="44.09976840950549" x="0" y="0" /><path d="M26.244696751236916, 5.405949614942074 m-8.930891752243042, -0.4059496149420738 l-7.036460041999817, 1.8944315612316132 -2.8416472673416138, 1.4884819090366364 m0.0, 0.0 l-0.6765826791524887, 1.6237984597682953 m-1.7591150104999542, 0.1353165414184332 l0.0, 0.0 m2.165064662694931, -1.3531653583049774 l-1.0825323313474655, 1.2178488820791245 -0.2706330828368664, 2.165064662694931 l3.3829134702682495, 4.194812774658203 8.389625549316406, 2.706330716609955 l12.178488969802856, 0.5412661656737328 0.1353165414184332, -0.2706330828368664 m-4.059496223926544, -12.990387678146362 l3.6535465717315674, 1.6237984597682953 1.8944315612316132, 2.029748111963272 l1.7591150104999542, -1.6237984597682953 1.3531653583049774, 0.0 l1.4884819090366364, -0.9472157806158066 2.165064662694931, 0.0 l0.9472157806158066, 0.5412661656737328 m-4.194812774658203, -0.2706330828368664 l-0.1353165414184332, -0.6765826791524887 1.3531653583049774, -1.2178488820791245 l0.8118992298841476, 0.2706330828368664 0.4059496149420738, 0.8118992298841476 l-0.8118992298841476, 0.6765826791524887 m0.1353165414184332, -0.2706330828368664 l1.6237984597682953, -1.7591150104999542 0.5412661656737328, 0.6765826791524887 l-0.2706330828368664, 1.2178488820791245 m0.0, 0.0 l0.5412661656737328, 0.6765826791524887 0.0, 3.3829134702682495 l-0.9472157806158066, 1.7591150104999542 -1.8944315612316132, 0.9472157806158066 l-2.165064662694931, 0.4059496149420738 -1.3531653583049774, 5.41266143321991 l-0.5412661656737328, 0.6765826791524887 -1.0825323313474655, 0.2706330828368664 l-2.165064662694931, -0.2706330828368664 m-4.330129325389862, -0.5412661656737328 l0.6765826791524887, 0.1353165414184332 0.5412661656737328, 6.630510687828064 l0.4059496149420738, 1.8944315612316132 0.6765826791524887, 0.5412661656737328 l1.7591150104999542, -0.8118992298841476 0.1353165414184332, -8.660258650779724 m-8.254309296607971, -1.2178488820791245 l-0.1353165414184332, 8.930891752243042 " fill="none" stroke="black" stroke-width="1" /></svg>