<?xml version="1.0" encoding="utf-8" ?>
<svg baseProfile="full" height="42.61128633283079" version="1.1" width="42.74660237133503" xmlns="http://www.w3.org/2000/svg" xmlns:ev="http://www.w3.org/2001/xml-events" xmlns:xlink="http://www.w3.org/1999/xlink"><defs /><rect fill="white" height="42.61128633283079" width="42.74660237133503" x="0" y="0" /><path d="M22.185200015082955, 6.623798981308937 m-3.3829134702682495, 0.0 l-2.9769638180732727, 0.9472157806158066 -4.194812774658203, 2.706330716609955 l-2.165064662694931, 2.435697764158249 -1.8944315612316132, 3.2475969195365906 l-1.6237984597682953, 4.059496223926544 -0.8118992298841476, 4.194812774658203 l0.0, 3.2475969195365906 2.706330716609955, 5.142028331756592 l4.465445876121521, 3.5182300209999084 6.359877586364746, 1.3531653583049774 l3.7888631224632263, 0.1353165414184332 4.60076242685318, -1.8944315612316132 l4.330129325389862, -4.059496223926544 3.5182300209999084, -5.5479782819747925 l2.165064662694931, -4.60076242685318 -0.1353165414184332, -3.1122803688049316 l-8.118992447853088, -9.742791056632996 -2.029748111963272, -0.8118992298841476 l-5.5479782819747925, -0.5412661656737328 m-2.165064662694931, 15.832035541534424 l1.3531653583049774, 0.1353165414184332 1.3531653583049774, 1.3531653583049774 l1.3531653583049774, 2.706330716609955 -0.5412661656737328, 0.6765826791524887 l-1.3531653583049774, 0.2706330828368664 -2.029748111963272, 0.0 l-0.6765826791524887, -0.6765826791524887 -0.9472157806158066, -1.3531653583049774 l-0.2706330828368664, -1.3531653583049774 0.5412661656737328, -1.3531653583049774 l1.0825323313474655, -0.5412661656737328 m10.55469036102295, -13.66697072982788 l0.5412661656737328, -2.029748111963272 2.029748111963272, -1.8944315612316132 l2.165064662694931, -0.4059496149420738 2.706330716609955, 1.3531653583049774 l0.8118992298841476, 1.3531653583049774 0.0, 1.3531653583049774 l-1.6237984597682953, 3.1122803688049316 -3.9241796731948853, 0.0 m-19.214948415756226, -3.3829134702682495 l-1.6237984597682953, -1.8944315612316132 -2.029748111963272, -0.6765826791524887 l-2.029748111963272, 0.0 -1.3531653583049774, 0.5412661656737328 l-0.9472157806158066, 2.029748111963272 0.4059496149420738, 2.706330716609955 l0.5412661656737328, 0.6765826791524887 3.1122803688049316, 0.2706330828368664 m15.561401844024658, 3.9241796731948853 l0.0, 0.0 m-8.795575499534607, -0.5412661656737328 " fill="none" stroke="black" stroke-width="1" /></svg>