<?xml version="1.0" encoding="utf-8" ?>
<svg baseProfile="full" height="77.5229540746659" version="1.1" width="106.48069291375577" xmlns="http://www.w3.org/2000/svg" xmlns:ev="http://www.w3.org/2001/xml-events" xmlns:xlink="http://www.w3.org/1999/xlink"><defs /><rect fill="white" height="77.5229540746659" width="106.48069291375577" x="0" y="0" /><path d="M13.660257160663605, 37.88191965781152 m0.8118992298841476, -3.5182300209999084 l2.029748111963272, -2.165064662694931 1.7591150104999542, -2.8416472673416138 l1.8944315612316132, -1.2178488820791245 0.6765826791524887, -1.4884819090366364 l9.742791056632996, -7.1717768907547 8.389625549316406, -1.0825323313474655 l12.449121475219727, -0.2706330828368664 1.4884819090366364, 0.6765826791524887 l5.81861138343811, 0.4059496149420738 7.577726244926453, 1.4884819090366364 l2.8416472673416138, 1.3531653583049774 1.8944315612316132, 0.2706330828368664 l9.472157955169678, 7.307093143463135 2.30038121342659, 3.9241796731948853 l0.0, 1.3531653583049774 1.3531653583049774, 4.60076242685318 l0.0, 4.330129325389862 -1.4884819090366364, 4.465445876121521 l-3.5182300209999084, 4.330129325389862 -2.706330716609955, 1.7591150104999542 l-3.6535465717315674, 1.4884819090366364 -47.63142108917236, 0.0 l-14.072920083999634, -3.6535465717315674 -4.60076242685318, -1.7591150104999542 l-0.8118992298841476, -0.8118992298841476 -0.6765826791524887, -2.8416472673416138 l0.0, -4.465445876121521 0.6765826791524887, -2.9769638180732727 l0.6765826791524887, -1.2178488820791245 3.6535465717315674, -2.029748111963272 m16.64393424987793, 16.37330174446106 l1.0825323313474655, 10.419373512268066 1.0825323313474655, 3.6535465717315674 l3.5182300209999084, 3.1122803688049316 2.571014165878296, 1.4884819090366364 l2.30038121342659, -2.706330716609955 1.3531653583049774, -3.2475969195365906 l0.0, -4.871395528316498 -0.8118992298841476, -3.9241796731948853 m15.561401844024658, 2.706330716609955 l0.0, -3.9241796731948853 0.6765826791524887, 6.359877586364746 l1.6237984597682953, 7.307093143463135 1.7591150104999542, 2.571014165878296 l1.7591150104999542, 1.0825323313474655 0.9472157806158066, 0.0 l3.5182300209999084, -3.1122803688049316 2.435697764158249, -3.6535465717315674 l0.5412661656737328, -5.6832945346832275 -0.2706330828368664, -2.9769638180732727 l-0.6765826791524887, -1.2178488820791245 -0.6765826791524887, -3.6535465717315674 l0.4059496149420738, -0.8118992298841476 m10.690007209777832, -26.522042751312256 l-0.1353165414184332, -3.5182300209999084 0.8118992298841476, -2.8416472673416138 l0.5412661656737328, -0.9472157806158066 2.029748111963272, -0.6765826791524887 l0.9472157806158066, -0.8118992298841476 5.6832945346832275, -0.9472157806158066 l7.1717768907547, 0.0 5.41266143321991, 2.435697764158249 l2.9769638180732727, 3.1122803688049316 -1.7591150104999542, 3.1122803688049316 l-3.7888631224632263, 2.435697764158249 -0.8118992298841476, 0.0 l-9.20152485370636, 4.871395528316498 -2.165064662694931, 0.0 m-5.953927636146545, -14.749503135681152 l-3.1122803688049316, -4.059496223926544 -0.1353165414184332, -2.9769638180732727 l2.029748111963272, -1.7591150104999542 3.5182300209999084, -0.2706330828368664 l1.0825323313474655, 1.7591150104999542 1.2178488820791245, 4.60076242685318 l1.6237984597682953, -0.2706330828368664 m5.41266143321991, 0.6765826791524887 l-2.706330716609955, -3.9241796731948853 -1.2178488820791245, -2.9769638180732727 l0.6765826791524887, -1.0825323313474655 3.5182300209999084, -0.9472157806158066 l3.3829134702682495, -0.1353165414184332 1.2178488820791245, 3.6535465717315674 l0.0, 3.2475969195365906 -0.5412661656737328, 1.2178488820791245 " fill="none" stroke="black" stroke-width="1" /></svg>