<?xml version="1.0" encoding="utf-8" ?>
<svg baseProfile="full" height="49.24179608002305" version="1.1" width="54.92508891969919" xmlns="http://www.w3.org/2000/svg" xmlns:ev="http://www.w3.org/2001/xml-events" xmlns:xlink="http://www.w3.org/1999/xlink"><defs /><rect fill="white" height="49.24179608002305" width="54.92508891969919" x="0" y="0" /><path d="M23.673680163919926, 16.09595611691475 m-7.036460041999817, 0.1353165414184332 l-2.9769638180732727, 1.3531653583049774 -1.3531653583049774, 2.029748111963272 l-1.3531653583049774, 4.330129325389862 0.0, 3.1122803688049316 l1.3531653583049774, 2.165064662694931 5.6832945346832275, 1.6237984597682953 l5.006712079048157, 0.8118992298841476 5.41266143321991, 0.5412661656737328 l7.1717768907547, 0.0 1.8944315612316132, -0.2706330828368664 l2.706330716609955, -1.3531653583049774 0.9472157806158066, -0.8118992298841476 l0.9472157806158066, -2.165064662694931 0.0, -0.9472157806158066 l-2.029748111963272, -4.465445876121521 -4.059496223926544, -4.330129325389862 l-2.30038121342659, -1.2178488820791245 -1.0825323313474655, -0.1353165414184332 l-9.20152485370636, 0.9472157806158066 m2.029748111963272, -0.6765826791524887 l12.58443832397461, -4.330129325389862 5.142028331756592, -0.4059496149420738 l5.5479782819747925, 3.9241796731948853 1.2178488820791245, 2.30038121342659 l-9.336841106414795, 1.8944315612316132 -3.6535465717315674, 0.0 m3.3829134702682495, -3.9241796731948853 l1.2178488820791245, 2.435697764158249 m-30.175588130950928, 11.90785527229309 l0.1353165414184332, -0.6765826791524887 0.5412661656737328, 1.3531653583049774 l0.0, 10.148741006851196 m12.855072021484375, -11.501905918121338 l0.0, 11.501905918121338 0.4059496149420738, -1.8944315612316132 m8.795575499534607, -5.5479782819747925 l0.2706330828368664, 10.284056663513184 m7.1717768907547, -13.802287578582764 l0.2706330828368664, 6.630510687828064 0.8118992298841476, 3.2475969195365906 m-30.040271282196045, -23.6803936958313 l-2.30038121342659, -0.5412661656737328 -4.330129325389862, 0.2706330828368664 l-0.8118992298841476, 1.4884819090366364 -0.1353165414184332, 3.2475969195365906 l0.5412661656737328, 1.4884819090366364 1.4884819090366364, 1.8944315612316132 l2.029748111963272, 0.6765826791524887 3.7888631224632263, 0.1353165414184332 l1.8944315612316132, -0.9472157806158066 2.435697764158249, -2.029748111963272 l1.3531653583049774, -1.6237984597682953 0.9472157806158066, -2.30038121342659 l-0.2706330828368664, -1.6237984597682953 -2.9769638180732727, -1.3531653583049774 l-3.3829134702682495, -1.0825323313474655 -2.706330716609955, -0.1353165414184332 l-0.4059496149420738, 0.4059496149420738 m28.82242441177368, -2.8416472673416138 l-15.426086187362671, -6.765826940536499 6.495193839073181, 9.066208004951477 l2.029748111963272, 2.029748111963272 " fill="none" stroke="black" stroke-width="1" /></svg>