<?xml version="1.0" encoding="utf-8" ?>
<svg baseProfile="full" height="62.09686699323356" version="1.1" width="59.119903864338994" xmlns="http://www.w3.org/2000/svg" xmlns:ev="http://www.w3.org/2001/xml-events" xmlns:xlink="http://www.w3.org/1999/xlink"><defs /><rect fill="white" height="62.09686699323356" width="59.119903864338994" x="0" y="0" /><path d="M40.99419937469065, 5.270633082836866 m-1.4884819090366364, -0.2706330828368664 l-3.6535465717315674, 2.8416472673416138 -2.8416472673416138, 0.6765826791524887 l-1.2178488820791245, 0.9472157806158066 -0.9472157806158066, 1.4884819090366364 l0.1353165414184332, 2.706330716609955 -0.6765826791524887, 0.6765826791524887 l-1.4884819090366364, 0.1353165414184332 -3.3829134702682495, 2.30038121342659 l-0.2706330828368664, 1.3531653583049774 0.6765826791524887, 0.4059496149420738 l2.8416472673416138, -0.1353165414184332 -2.571014165878296, 0.5412661656737328 l-0.2706330828368664, 1.3531653583049774 0.6765826791524887, 0.4059496149420738 l4.194812774658203, 0.4059496149420738 0.5412661656737328, 0.6765826791524887 l-0.2706330828368664, 2.165064662694931 -3.9241796731948853, 1.2178488820791245 l-3.2475969195365906, 1.6237984597682953 -2.165064662694931, -1.2178488820791245 l-1.8944315612316132, -2.029748111963272 -1.8944315612316132, -3.7888631224632263 l-0.6765826791524887, -0.5412661656737328 -2.706330716609955, -0.9472157806158066 l-2.165064662694931, 0.0 -2.30038121342659, 2.8416472673416138 l0.0, 2.165064662694931 0.5412661656737328, 1.4884819090366364 l-2.165064662694931, 0.2706330828368664 -1.7591150104999542, -2.165064662694931 l-0.6765826791524887, -0.2706330828368664 -0.6765826791524887, 0.6765826791524887 l-0.2706330828368664, 2.706330716609955 0.8118992298841476, 2.8416472673416138 l1.6237984597682953, 2.30038121342659 3.2475969195365906, 2.165064662694931 l3.9241796731948853, 0.9472157806158066 4.465445876121521, 0.1353165414184332 l4.871395528316498, 0.8118992298841476 3.5182300209999084, 1.3531653583049774 l2.571014165878296, 1.7591150104999542 1.0825323313474655, 1.3531653583049774 l0.1353165414184332, 4.736078977584839 -1.3531653583049774, 5.142028331756592 l-0.2706330828368664, 5.6832945346832275 1.2178488820791245, 1.2178488820791245 l3.2475969195365906, 0.6765826791524887 1.4884819090366364, -0.4059496149420738 l1.7591150104999542, -2.9769638180732727 0.2706330828368664, -7.442409992218018 l0.8118992298841476, -2.706330716609955 0.0, 9.20152485370636 l1.3531653583049774, 3.2475969195365906 0.6765826791524887, 0.4059496149420738 l2.9769638180732727, 0.0 4.194812774658203, -2.706330716609955 l0.5412661656737328, -0.8118992298841476 0.0, -4.059496223926544 l0.2706330828368664, 3.2475969195365906 2.165064662694931, 0.8118992298841476 l0.8118992298841476, 0.0 0.6765826791524887, -0.5412661656737328 l1.4884819090366364, -2.8416472673416138 0.5412661656737328, -2.435697764158249 l0.0, -7.442409992218018 -1.0825323313474655, -5.6832945346832275 " fill="none" stroke="black" stroke-width="1" /></svg>