<?xml version="1.0" encoding="utf-8" ?>
<svg baseProfile="full" height="43.829135028645396" version="1.1" width="42.475969735533" xmlns="http://www.w3.org/2000/svg" xmlns:ev="http://www.w3.org/2001/xml-events" xmlns:xlink="http://www.w3.org/1999/xlink"><defs /><rect fill="white" height="43.829135028645396" width="42.475969735533" x="0" y="0" /><path d="M24.214949142187834, 10.412661656737328 m-0.6765826791524887, -0.4059496149420738 l-2.30038121342659, 0.1353165414184332 -10.419373512268066, 6.495193839073181 l-1.0825323313474655, 2.8416472673416138 -1.0825323313474655, 4.871395528316498 l0.0, 5.41266143321991 1.0825323313474655, 2.029748111963272 l7.8483593463897705, 5.81861138343811 5.006712079048157, 1.2178488820791245 l3.7888631224632263, 0.0 3.2475969195365906, -1.4884819090366364 l1.3531653583049774, -1.0825323313474655 1.8944315612316132, -2.165064662694931 l1.6237984597682953, -2.9769638180732727 1.3531653583049774, -6.765826940536499 l-0.2706330828368664, -4.465445876121521 -2.571014165878296, -4.871395528316498 l-2.571014165878296, -2.30038121342659 -4.194812774658203, -2.029748111963272 l-4.465445876121521, -0.1353165414184332 -0.9472157806158066, 0.4059496149420738 m-11.231273412704468, 6.765826940536499 l-2.30038121342659, -1.2178488820791245 -1.4884819090366364, -1.4884819090366364 l-0.8118992298841476, -2.30038121342659 0.5412661656737328, -2.30038121342659 l2.706330716609955, -1.8944315612316132 2.029748111963272, -0.5412661656737328 l3.7888631224632263, 0.0 1.2178488820791245, 1.2178488820791245 l0.9472157806158066, 2.435697764158249 m13.125704526901245, -0.5412661656737328 l0.0, -1.4884819090366364 0.9472157806158066, -1.6237984597682953 l4.736078977584839, -2.9769638180732727 0.8118992298841476, 0.0 l1.3531653583049774, 3.1122803688049316 0.2706330828368664, 4.330129325389862 l-1.0825323313474655, 3.6535465717315674 -1.4884819090366364, 2.165064662694931 l-2.8416472673416138, 2.30038121342659 m-14.61418628692627, 0.2706330828368664 l2.435697764158249, 0.4059496149420738 0.8118992298841476, -2.9769638180732727 l-1.3531653583049774, -0.4059496149420738 -1.3531653583049774, 0.5412661656737328 l-1.0825323313474655, 1.4884819090366364 0.1353165414184332, 2.165064662694931 l2.30038121342659, 0.0 0.2706330828368664, -3.5182300209999084 l-0.9472157806158066, 0.6765826791524887 0.0, 1.3531653583049774 l-0.6765826791524887, -0.2706330828368664 m7.983676195144653, -1.2178488820791245 l-0.1353165414184332, 1.3531653583049774 0.9472157806158066, 0.5412661656737328 l0.9472157806158066, -0.1353165414184332 -0.1353165414184332, -1.4884819090366364 l-0.8118992298841476, -0.5412661656737328 -0.9472157806158066, 0.0 l-0.6765826791524887, 1.3531653583049774 0.6765826791524887, 0.2706330828368664 l0.6765826791524887, -0.4059496149420738 0.4059496149420738, -0.8118992298841476 l-0.6765826791524887, -0.1353165414184332 -0.1353165414184332, 0.8118992298841476 l0.6765826791524887, 0.5412661656737328 0.5412661656737328, -0.8118992298841476 l-1.2178488820791245, -0.5412661656737328 -0.9472157806158066, 0.2706330828368664 l-0.4059496149420738, 0.6765826791524887 0.0, 2.029748111963272 l2.706330716609955, -0.1353165414184332 m-4.871395528316498, 3.2475969195365906 l0.0, 1.4884819090366364 0.8118992298841476, 0.2706330828368664 l-0.2706330828368664, -1.6237984597682953 -0.8118992298841476, -0.1353165414184332 l-0.4059496149420738, 1.4884819090366364 1.6237984597682953, 0.1353165414184332 l0.1353165414184332, -1.4884819090366364 -0.6765826791524887, 0.0 m-0.6765826791524887, 4.330129325389862 l-0.2706330828368664, 3.1122803688049316 -3.5182300209999084, 0.0 m3.7888631224632263, -2.165064662694931 l0.1353165414184332, 0.6765826791524887 0.8118992298841476, 0.2706330828368664 l2.9769638180732727, 0.5412661656737328 0.9472157806158066, -0.4059496149420738 " fill="none" stroke="black" stroke-width="1" /></svg>