<?xml version="1.0" encoding="utf-8" ?>
<svg baseProfile="full" height="45.723566859960556" version="1.1" width="51.67749403975904" xmlns="http://www.w3.org/2000/svg" xmlns:ev="http://www.w3.org/2001/xml-events" xmlns:xlink="http://www.w3.org/1999/xlink"><defs /><rect fill="white" height="45.723566859960556" width="51.67749403975904" x="0" y="0" /><path d="M16.366589441895485, 9.19481223449111 m0.1353165414184332, -0.6765826791524887 l-0.6765826791524887, -0.6765826791524887 -4.059496223926544, -2.571014165878296 l-4.736078977584839, 0.0 -1.0825323313474655, 1.0825323313474655 l-0.8118992298841476, 1.2178488820791245 -0.1353165414184332, 1.0825323313474655 l0.0, 2.165064662694931 0.8118992298841476, 2.9769638180732727 l0.9472157806158066, 1.7591150104999542 2.9769638180732727, 3.5182300209999084 m26.116092205047607, -10.82532286643982 l5.953927636146545, -2.9769638180732727 3.2475969195365906, -0.2706330828368664 l0.8118992298841476, 0.5412661656737328 0.6765826791524887, 2.30038121342659 l0.1353165414184332, 4.60076242685318 -0.9472157806158066, 3.2475969195365906 l-1.0825323313474655, 2.435697764158249 -0.6765826791524887, 0.5412661656737328 m-6.495193839073181, -10.013424158096313 l0.0, 0.0 m-22.462546825408936, 1.2178488820791245 l1.7591150104999542, -1.0825323313474655 6.901143789291382, -1.6237984597682953 l5.006712079048157, 0.0 7.036460041999817, 2.029748111963272 l1.4884819090366364, 0.0 m-28.145840167999268, 8.930891752243042 l0.6765826791524887, 8.118992447853088 2.30038121342659, 4.60076242685318 l3.2475969195365906, 5.006712079048157 2.706330716609955, 2.165064662694931 l2.9769638180732727, 1.6237984597682953 3.9241796731948853, 1.0825323313474655 l2.706330716609955, 0.0 5.277345180511475, -2.9769638180732727 l5.81861138343811, -5.953927636146545 2.029748111963272, -5.41266143321991 l2.571014165878296, -9.066208004951477 " fill="none" stroke="black" stroke-width="1" /></svg>