<?xml version="1.0" encoding="utf-8" ?>
<svg baseProfile="full" height="86.45384683273733" version="1.1" width="85.64194615930319" xmlns="http://www.w3.org/2000/svg" xmlns:ev="http://www.w3.org/2001/xml-events" xmlns:xlink="http://www.w3.org/1999/xlink"><defs /><rect fill="white" height="86.45384683273733" width="85.64194615930319" x="0" y="0" /><path d="M52.766739036887884, 7.706330269575119 m-5.953927636146545, -2.029748111963272 l-4.330129325389862, 0.4059496149420738 -4.736078977584839, 2.30038121342659 l-4.059496223926544, 3.6535465717315674 -3.2475969195365906, 4.330129325389862 l-2.165064662694931, 5.5479782819747925 -0.1353165414184332, 1.6237984597682953 l0.5412661656737328, 3.1122803688049316 0.5412661656737328, 1.6237984597682953 l2.029748111963272, 3.1122803688049316 4.330129325389862, 3.2475969195365906 l4.059496223926544, 1.2178488820791245 3.9241796731948853, 0.4059496149420738 l4.330129325389862, -1.0825323313474655 5.277345180511475, -2.706330716609955 l4.330129325389862, -3.3829134702682495 3.1122803688049316, -3.3829134702682495 l1.8944315612316132, -3.5182300209999084 0.2706330828368664, -1.7591150104999542 l-0.1353165414184332, -2.706330716609955 -1.0825323313474655, -3.2475969195365906 l-2.165064662694931, -3.2475969195365906 -2.571014165878296, -2.706330716609955 l-4.194812774658203, -2.706330716609955 -2.30038121342659, -0.8118992298841476 m-7.983676195144653, 28.551790714263916 l-2.8416472673416138, 5.006712079048157 -3.3829134702682495, 9.742791056632996 l-1.0825323313474655, 8.930891752243042 0.6765826791524887, 6.901143789291382 l1.6237984597682953, 6.359877586364746 2.706330716609955, 4.330129325389862 l2.165064662694931, 2.435697764158249 3.1122803688049316, 2.165064662694931 l2.571014165878296, 1.2178488820791245 2.9769638180732727, 0.6765826791524887 l2.9769638180732727, 0.1353165414184332 1.4884819090366364, -0.4059496149420738 l2.30038121342659, -1.4884819090366364 2.435697764158249, -3.1122803688049316 l2.165064662694931, -4.330129325389862 2.165064662694931, -7.036460041999817 l0.5412661656737328, -4.194812774658203 -0.2706330828368664, -5.006712079048157 l-0.6765826791524887, -4.330129325389862 -1.3531653583049774, -4.330129325389862 l-1.3531653583049774, -2.8416472673416138 -2.571014165878296, -3.5182300209999084 l-4.736078977584839, -3.9241796731948853 -7.8483593463897705, -2.9769638180732727 m17.32051730155945, 11.772539615631104 l-0.6765826791524887, -2.706330716609955 0.0, -2.029748111963272 l0.9472157806158066, -4.736078977584839 1.8944315612316132, -5.6832945346832275 l2.9769638180732727, -4.60076242685318 2.435697764158249, -2.165064662694931 l2.706330716609955, -1.4884819090366364 1.4884819090366364, -0.2706330828368664 l1.8944315612316132, 0.2706330828368664 1.6237984597682953, 1.8944315612316132 l0.9472157806158066, 2.706330716609955 0.9472157806158066, 15.020135641098022 l-0.2706330828368664, 6.901143789291382 -0.6765826791524887, 3.9241796731948853 l-0.9472157806158066, -2.706330716609955 -2.30038121342659, -4.465445876121521 l-2.571014165878296, -3.1122803688049316 -4.194812774658203, -0.2706330828368664 l-2.435697764158249, 2.706330716609955 -4.059496223926544, 1.8944315612316132 l-2.165064662694931, 0.2706330828368664 -0.2706330828368664, -0.2706330828368664 m-25.033559799194336, -5.006712079048157 l-4.871395528316498, -4.736078977584839 -4.465445876121521, -5.41266143321991 l-3.2475969195365906, -2.571014165878296 -3.2475969195365906, -1.0825323313474655 l-5.006712079048157, 0.1353165414184332 -2.706330716609955, 1.4884819090366364 l-7.1717768907547, 9.742791056632996 " fill="none" stroke="black" stroke-width="1" /></svg>