<?xml version="1.0" encoding="utf-8" ?>
<svg baseProfile="full" height="114.59968749433756" version="1.1" width="94.70815585926175" xmlns="http://www.w3.org/2000/svg" xmlns:ev="http://www.w3.org/2001/xml-events" xmlns:xlink="http://www.w3.org/1999/xlink"><defs /><rect fill="white" height="114.59968749433756" width="94.70815585926175" x="0" y="0" /><path d="M60.073832888156176, 28.545078532770276 m-6.359877586364746, 3.1122803688049316 l-8.118992447853088, 5.6832945346832275 -4.736078977584839, 4.60076242685318 l-4.330129325389862, 7.036460041999817 -1.6237984597682953, 3.9241796731948853 l-1.3531653583049774, 5.5479782819747925 -1.0825323313474655, 22.73317813873291 l0.6765826791524887, 1.7591150104999542 2.8416472673416138, 2.706330716609955 l6.224560737609863, 5.006712079048157 4.60076242685318, 2.435697764158249 l2.571014165878296, 1.8944315612316132 7.036460041999817, 2.029748111963272 l9.20152485370636, 0.1353165414184332 3.5182300209999084, -1.0825323313474655 l2.8416472673416138, -1.8944315612316132 12.855072021484375, -15.020135641098022 l1.4884819090366364, -4.194812774658203 0.1353165414184332, -1.4884819090366364 l0.0, -5.6832945346832275 -0.8118992298841476, -5.142028331756592 l-2.029748111963272, -3.6535465717315674 -1.8944315612316132, -2.435697764158249 l-19.891531467437744, -21.24469757080078 -3.1122803688049316, -5.41266143321991 m0.0, 0.0 l-2.029748111963272, -1.7591150104999542 -1.4884819090366364, -2.706330716609955 l-1.2178488820791245, -5.277345180511475 0.1353165414184332, -8.389625549316406 l1.0825323313474655, -3.1122803688049316 1.2178488820791245, -1.4884819090366364 l2.9769638180732727, -1.6237984597682953 2.30038121342659, -0.5412661656737328 l8.930891752243042, 0.1353165414184332 5.953927636146545, 0.9472157806158066 l2.9769638180732727, 2.30038121342659 2.571014165878296, 3.3829134702682495 l-0.2706330828368664, 9.336841106414795 -2.029748111963272, 4.60076242685318 l-1.8944315612316132, 2.571014165878296 -5.142028331756592, 3.2475969195365906 l-1.8944315612316132, 0.6765826791524887 -5.41266143321991, 1.3531653583049774 l-3.9241796731948853, 0.4059496149420738 m21.1093807220459, -13.125704526901245 l0.8118992298841476, 0.1353165414184332 1.3531653583049774, -0.8118992298841476 l3.6535465717315674, -4.465445876121521 1.2178488820791245, -3.1122803688049316 l0.0, -2.706330716609955 -1.4884819090366364, -1.0825323313474655 l-1.4884819090366364, -0.4059496149420738 -3.3829134702682495, 0.1353165414184332 l-1.8944315612316132, 1.2178488820791245 m-27.469258308410645, -1.3531653583049774 l-6.901143789291382, -0.8118992298841476 -1.4884819090366364, 0.8118992298841476 l-1.8944315612316132, 1.8944315612316132 0.2706330828368664, 3.1122803688049316 l2.029748111963272, 3.1122803688049316 1.6237984597682953, 1.0825323313474655 l3.1122803688049316, 0.9472157806158066 0.9472157806158066, 0.8118992298841476 m-18.538366556167603, 59.67459678649902 l-1.4884819090366364, 0.9472157806158066 -8.660258650779724, 2.9769638180732727 l-7.036460041999817, 6.224560737609863 -7.983676195144653, 8.389625549316406 l-2.165064662694931, 3.1122803688049316 -0.8118992298841476, 2.8416472673416138 l0.0, 1.7591150104999542 0.4059496149420738, 0.8118992298841476 l0.9472157806158066, 0.9472157806158066 4.330129325389862, 2.435697764158249 l5.953927636146545, 0.1353165414184332 8.524942398071289, -3.2475969195365906 l6.765826940536499, -3.7888631224632263 9.336841106414795, -6.359877586364746 l3.3829134702682495, -3.9241796731948853 " fill="none" stroke="black" stroke-width="1" /></svg>