<?xml version="1.0" encoding="utf-8" ?>
<svg baseProfile="full" height="53.16597579047084" version="1.1" width="81.04118444025517" xmlns="http://www.w3.org/2000/svg" xmlns:ev="http://www.w3.org/2001/xml-events" xmlns:xlink="http://www.w3.org/1999/xlink"><defs /><rect fill="white" height="53.16597579047084" width="81.04118444025517" x="0" y="0" /><path d="M17.99038882367313, 28.00381099805236 m-0.9472157806158066, 3.6535465717315674 l-0.8118992298841476, 6.359877586364746 -0.4059496149420738, 5.81861138343811 l0.8118992298841476, 3.5182300209999084 3.9241796731948853, 0.8118992298841476 l1.4884819090366364, -0.2706330828368664 2.029748111963272, -1.6237984597682953 l0.9472157806158066, -6.224560737609863 -0.1353165414184332, -3.3829134702682495 l0.9472157806158066, -2.165064662694931 0.6765826791524887, 0.0 l1.6237984597682953, 4.465445876121521 2.8416472673416138, 3.2475969195365906 l2.435697764158249, 4.059496223926544 2.571014165878296, 1.0825323313474655 l3.7888631224632263, 0.0 1.4884819090366364, -0.4059496149420738 l0.2706330828368664, -4.60076242685318 -3.2475969195365906, -4.736078977584839 l-0.2706330828368664, -3.6535465717315674 m0.1353165414184332, 0.2706330828368664 l3.3829134702682495, 1.7591150104999542 4.465445876121521, 1.6237984597682953 l3.9241796731948853, 0.5412661656737328 4.465445876121521, 0.0 l2.029748111963272, 1.8944315612316132 3.5182300209999084, 5.006712079048157 l0.8118992298841476, 0.5412661656737328 10.148741006851196, 0.6765826791524887 l-0.2706330828368664, -2.30038121342659 -4.60076242685318, -5.6832945346832275 l-2.029748111963272, -4.194812774658203 2.165064662694931, 3.1122803688049316 l4.465445876121521, 3.3829134702682495 0.5412661656737328, 0.8118992298841476 l1.6237984597682953, 0.8118992298841476 2.165064662694931, 0.1353165414184332 l0.4059496149420738, -1.3531653583049774 -0.8118992298841476, -1.4884819090366364 l-8.795575499534607, -10.419373512268066 4.330129325389862, -4.465445876121521 l1.6237984597682953, 0.0 1.6237984597682953, -0.6765826791524887 l2.571014165878296, -1.8944315612316132 0.1353165414184332, -0.8118992298841476 l-1.2178488820791245, -0.9472157806158066 -5.41266143321991, 0.1353165414184332 l-2.8416472673416138, 3.3829134702682495 -2.30038121342659, 0.2706330828368664 l-9.607474207878113, -3.5182300209999084 -2.165064662694931, -0.4059496149420738 l-14.3435537815094, -0.2706330828368664 -0.6765826791524887, -0.4059496149420738 l-0.6765826791524887, -1.4884819090366364 -5.277345180511475, -6.359877586364746 l-2.029748111963272, -1.6237984597682953 -5.5479782819747925, -1.7591150104999542 l-11.231273412704468, 0.0 -2.165064662694931, 1.0825323313474655 l-1.3531653583049774, 2.165064662694931 -0.4059496149420738, 2.30038121342659 l0.1353165414184332, 4.465445876121521 3.1122803688049316, 3.5182300209999084 l9.20152485370636, 5.6832945346832275 m-2.571014165878296, -20.70343017578125 l2.8416472673416138, -1.0825323313474655 4.059496223926544, -0.6765826791524887 l0.4059496149420738, 0.8118992298841476 0.1353165414184332, 2.706330716609955 m-11.095956563949585, 0.9472157806158066 l-0.8118992298841476, 0.2706330828368664 4.465445876121521, 0.1353165414184332 l-0.2706330828368664, 0.6765826791524887 m-7.307093143463135, 4.330129325389862 l-5.142028331756592, -1.8944315612316132 -0.9472157806158066, -1.0825323313474655 m4.465445876121521, 4.194812774658203 l0.0, 4.194812774658203 " fill="none" stroke="black" stroke-width="1" /></svg>