<?xml version="1.0" encoding="utf-8" ?>
<svg baseProfile="full" height="90.91928885318339" version="1.1" width="92.94903776608407" xmlns="http://www.w3.org/2000/svg" xmlns:ev="http://www.w3.org/2001/xml-events" xmlns:xlink="http://www.w3.org/1999/xlink"><defs /><rect fill="white" height="90.91928885318339" width="92.94903776608407" x="0" y="0" /><path d="M39.9116653110832, 8.247593408450484 m-2.029748111963272, 0.4059496149420738 l-2.8416472673416138, 1.4884819090366364 -6.495193839073181, 5.953927636146545 l-3.7888631224632263, 4.465445876121521 -2.029748111963272, 5.81861138343811 l-0.1353165414184332, 4.60076242685318 4.465445876121521, 8.795575499534607 l1.2178488820791245, 1.8944315612316132 2.8416472673416138, 2.571014165878296 l5.277345180511475, 2.30038121342659 9.607474207878113, 0.2706330828368664 l2.571014165878296, -0.8118992298841476 4.330129325389862, -2.165064662694931 l4.194812774658203, -2.571014165878296 4.330129325389862, -3.5182300209999084 l2.029748111963272, -2.435697764158249 0.4059496149420738, -1.3531653583049774 l0.0, -7.983676195144653 -2.8416472673416138, -6.495193839073181 l-4.330129325389862, -3.5182300209999084 -12.178488969802856, -7.1717768907547 l-2.8416472673416138, -0.5412661656737328 -3.3829134702682495, 0.2706330828368664 m-13.396337032318115, 29.76963996887207 l-5.006712079048157, 4.871395528316498 -4.330129325389862, 5.953927636146545 l-3.7888631224632263, 8.524942398071289 -1.2178488820791245, 3.3829134702682495 l-1.0825323313474655, 5.41266143321991 0.0, 6.089244484901428 l0.8118992298841476, 2.8416472673416138 1.6237984597682953, 2.8416472673416138 l2.029748111963272, 2.435697764158249 2.435697764158249, 1.8944315612316132 l4.059496223926544, 1.8944315612316132 5.142028331756592, 1.2178488820791245 l15.967352390289307, 0.2706330828368664 11.772539615631104, -2.165064662694931 l14.749503135681152, -6.495193839073181 6.765826940536499, -3.7888631224632263 l5.142028331756592, -4.059496223926544 2.8416472673416138, -2.8416472673416138 l2.435697764158249, -3.2475969195365906 1.4884819090366364, -3.2475969195365906 l0.9472157806158066, -5.277345180511475 0.1353165414184332, -2.30038121342659 l-0.4059496149420738, -1.7591150104999542 -5.81861138343811, -7.1717768907547 l-4.194812774658203, -2.435697764158249 -7.8483593463897705, -2.706330716609955 l-6.495193839073181, -1.6237984597682953 m10.284056663513184, 1.6237984597682953 l0.0, -3.1122803688049316 1.4884819090366364, -4.330129325389862 l2.165064662694931, -2.706330716609955 3.1122803688049316, -1.3531653583049774 l4.60076242685318, -0.1353165414184332 1.8944315612316132, 1.8944315612316132 l1.3531653583049774, 4.465445876121521 -0.1353165414184332, 1.6237984597682953 l-1.6237984597682953, 1.8944315612316132 m-68.4701681137085, 6.630510687828064 l-2.30038121342659, -1.8944315612316132 -2.8416472673416138, -1.2178488820791245 l-2.30038121342659, -0.4059496149420738 -2.9769638180732727, 0.2706330828368664 l-1.6237984597682953, 1.7591150104999542 -0.6765826791524887, 4.194812774658203 l0.2706330828368664, 3.2475969195365906 3.6535465717315674, 2.165064662694931 l5.142028331756592, 0.8118992298841476 m19.75621461868286, -41.00090980529785 l0.0, -0.6765826791524887 -1.6237984597682953, -2.165064662694931 l-4.194812774658203, -2.8416472673416138 -1.8944315612316132, -0.5412661656737328 l-2.165064662694931, 0.0 -3.6535465717315674, 1.0825323313474655 l-1.7591150104999542, 1.7591150104999542 -0.4059496149420738, 1.3531653583049774 l0.0, 4.059496223926544 0.9472157806158066, 2.029748111963272 l3.2475969195365906, 1.8944315612316132 " fill="none" stroke="black" stroke-width="1" /></svg>