<?xml version="1.0" encoding="utf-8" ?>
<svg baseProfile="full" height="47.888632798567414" version="1.1" width="36.92799131385982" xmlns="http://www.w3.org/2000/svg" xmlns:ev="http://www.w3.org/2001/xml-events" xmlns:xlink="http://www.w3.org/1999/xlink"><defs /><rect fill="white" height="47.888632798567414" width="36.92799131385982" x="0" y="0" /><path d="M20.967351533472538, 8.112281821668148 m-1.8944315612316132, -0.1353165414184332 l-0.9472157806158066, 0.4059496149420738 -2.8416472673416138, 2.30038121342659 l-3.5182300209999084, 6.224560737609863 -2.8416472673416138, 4.059496223926544 l-3.3829134702682495, 7.8483593463897705 -0.5412661656737328, 4.465445876121521 l0.4059496149420738, 5.5479782819747925 2.165064662694931, 2.165064662694931 l2.029748111963272, 1.2178488820791245 2.8416472673416138, 0.6765826791524887 l2.571014165878296, 0.0 5.953927636146545, -1.6237984597682953 l6.089244484901428, -3.6535465717315674 2.435697764158249, -2.30038121342659 l1.2178488820791245, -2.9769638180732727 0.4059496149420738, -5.6832945346832275 l-4.059496223926544, -13.802287578582764 -2.706330716609955, -3.3829134702682495 l-3.5182300209999084, -2.029748111963272 -4.194812774658203, -0.8118992298841476 m-5.81861138343811, 25.845458507537842 l1.8944315612316132, -1.2178488820791245 2.029748111963272, -0.5412661656737328 l6.359877586364746, -0.4059496149420738 1.4884819090366364, 0.5412661656737328 l1.4884819090366364, 2.571014165878296 -0.1353165414184332, 1.7591150104999542 l-0.8118992298841476, 1.6237984597682953 -1.4884819090366364, 0.2706330828368664 l-3.2475969195365906, 0.0 -6.765826940536499, -1.8944315612316132 l-2.165064662694931, -1.2178488820791245 -0.6765826791524887, -2.706330716609955 m5.006712079048157, -0.9472157806158066 l0.9472157806158066, 2.30038121342659 0.9472157806158066, 0.1353165414184332 l1.4884819090366364, -2.706330716609955 0.0, 4.465445876121521 l5.5479782819747925, -3.2475969195365906 0.0, 0.6765826791524887 m-7.983676195144653, 2.571014165878296 l1.3531653583049774, -0.4059496149420738 0.5412661656737328, 1.4884819090366364 l1.6237984597682953, 0.2706330828368664 0.4059496149420738, 1.4884819090366364 l2.706330716609955, -0.5412661656737328 m-9.742791056632996, -20.974063873291016 l0.2706330828368664, -10.148741006851196 0.5412661656737328, -0.6765826791524887 l0.8118992298841476, 0.8118992298841476 0.6765826791524887, 4.059496223926544 l0.6765826791524887, 1.6237984597682953 m10.55469036102295, -0.8118992298841476 l2.706330716609955, -1.4884819090366364 4.059496223926544, -1.4884819090366364 l-0.1353165414184332, 1.8944315612316132 -2.029748111963272, 4.330129325389862 l-0.8118992298841476, 0.5412661656737328 " fill="none" stroke="black" stroke-width="1" /></svg>