<?xml version="1.0" encoding="utf-8" ?>
<svg baseProfile="full" height="52.62470992282033" version="1.1" width="56.548889353871346" xmlns="http://www.w3.org/2000/svg" xmlns:ev="http://www.w3.org/2001/xml-events" xmlns:xlink="http://www.w3.org/1999/xlink"><defs /><rect fill="white" height="52.62470992282033" width="56.548889353871346" x="0" y="0" /><path d="M29.221660159528255, 12.983676111325622 m-0.8118992298841476, -0.4059496149420738 l-5.6832945346832275, 0.1353165414184332 -4.871395528316498, 1.2178488820791245 l-4.465445876121521, 1.4884819090366364 -4.736078977584839, 3.1122803688049316 l7.8483593463897705, 29.093055725097656 6.765826940536499, 0.0 l6.089244484901428, -2.706330716609955 6.901143789291382, -4.465445876121521 l3.2475969195365906, -2.8416472673416138 2.706330716609955, -3.2475969195365906 l1.6237984597682953, -3.5182300209999084 0.5412661656737328, -6.224560737609863 l-2.9769638180732727, -5.5479782819747925 -1.8944315612316132, -2.30038121342659 l-3.5182300209999084, -1.7591150104999542 -7.8483593463897705, -0.4059496149420738 m0.0, 0.0 l1.0825323313474655, -0.9472157806158066 5.006712079048157, -7.036460041999817 l2.435697764158249, -1.3531653583049774 5.953927636146545, -0.2706330828368664 l5.953927636146545, 1.4884819090366364 1.6237984597682953, 1.0825323313474655 l1.3531653583049774, 1.6237984597682953 0.0, 1.2178488820791245 l-1.0825323313474655, 1.7591150104999542 -2.30038121342659, 2.8416472673416138 l-2.9769638180732727, 2.571014165878296 -2.8416472673416138, 1.8944315612316132 l-4.059496223926544, 1.6237984597682953 m-15.561401844024658, -6.765826940536499 l-5.953927636146545, -4.871395528316498 -4.059496223926544, -0.5412661656737328 l-4.059496223926544, 0.1353165414184332 -0.9472157806158066, 0.6765826791524887 l-1.6237984597682953, 2.30038121342659 -1.0825323313474655, 3.7888631224632263 l0.0, 3.9241796731948853 1.2178488820791245, 2.165064662694931 m11.231273412704468, 6.765826940536499 l0.4059496149420738, -1.3531653583049774 2.30038121342659, -2.30038121342659 l4.194812774658203, -1.0825323313474655 1.8944315612316132, 0.0 l2.435697764158249, 0.8118992298841476 7.307093143463135, 3.6535465717315674 l2.165064662694931, 2.029748111963272 0.8118992298841476, 2.8416472673416138 l-0.1353165414184332, 8.524942398071289 -0.8118992298841476, 1.3531653583049774 l-0.8118992298841476, 0.1353165414184332 m-10.284056663513184, -10.690007209777832 l-0.5412661656737328, -0.6765826791524887 -1.8944315612316132, -0.1353165414184332 l-0.5412661656737328, 0.8118992298841476 -0.1353165414184332, 2.30038121342659 l0.2706330828368664, 0.6765826791524887 1.0825323313474655, 0.5412661656737328 l1.0825323313474655, -0.9472157806158066 0.5412661656737328, -2.029748111963272 l0.0, -2.9769638180732727 m-1.2178488820791245, 5.277345180511475 l-0.8118992298841476, 7.983676195144653 -0.6765826791524887, 0.6765826791524887 l-1.4884819090366364, 0.0 -1.4884819090366364, -0.6765826791524887 l-4.194812774658203, -0.1353165414184332 8.524942398071289, -0.5412661656737328 l2.30038121342659, 0.6765826791524887 3.3829134702682495, 0.1353165414184332 " fill="none" stroke="black" stroke-width="1" /></svg>