<?xml version="1.0" encoding="utf-8" ?>
<svg baseProfile="full" height="42.88191909901798" version="1.1" width="56.007622983306646" xmlns="http://www.w3.org/2000/svg" xmlns:ev="http://www.w3.org/2001/xml-events" xmlns:xlink="http://www.w3.org/1999/xlink"><defs /><rect fill="white" height="42.88191909901798" width="56.007622983306646" x="0" y="0" /><path d="M41.806097980588675, 6.082532098516822 m-2.30038121342659, -0.5412661656737328 l-4.194812774658203, 0.0 -4.465445876121521, 1.0825323313474655 l-6.495193839073181, 2.706330716609955 -5.6832945346832275, 4.059496223926544 l-3.1122803688049316, 3.7888631224632263 -3.7888631224632263, 6.495193839073181 l-1.4884819090366364, 6.089244484901428 0.1353165414184332, 4.871395528316498 l0.4059496149420738, 1.4884819090366364 0.8118992298841476, 0.8118992298841476 l3.6535465717315674, 0.9472157806158066 15.426086187362671, -0.1353165414184332 l3.2475969195365906, -3.2475969195365906 1.3531653583049774, -2.165064662694931 l3.1122803688049316, -7.7130430936813354 0.8118992298841476, -5.6832945346832275 l0.1353165414184332, -11.366589069366455 -1.2178488820791245, -2.165064662694931 l-4.194812774658203, -0.4059496149420738 -3.7888631224632263, 1.7591150104999542 l-3.2475969195365906, 2.435697764158249 -1.4884819090366364, 0.5412661656737328 l-4.330129325389862, 0.0 -3.2475969195365906, -3.1122803688049316 l-1.6237984597682953, -0.6765826791524887 -5.142028331756592, -0.1353165414184332 l-3.9241796731948853, 0.9472157806158066 -1.3531653583049774, 1.0825323313474655 l-0.8118992298841476, 1.4884819090366364 0.0, 4.736078977584839 l1.4884819090366364, 2.435697764158249 3.3829134702682495, 3.3829134702682495 m28.957738876342773, -12.855072021484375 l5.5479782819747925, -1.4884819090366364 2.029748111963272, 0.1353165414184332 l2.029748111963272, 0.8118992298841476 1.4884819090366364, 0.9472157806158066 l0.8118992298841476, 1.3531653583049774 0.2706330828368664, 4.194812774658203 l-2.706330716609955, 2.029748111963272 -7.1717768907547, 2.8416472673416138 l-5.277345180511475, 0.4059496149420738 -2.30038121342659, -0.6765826791524887 m-11.366589069366455, 0.6765826791524887 l0.1353165414184332, -1.6237984597682953 m9.472157955169678, 0.0 l0.0, -0.1353165414184332 m-16.914567947387695, 9.87810730934143 l2.30038121342659, 3.2475969195365906 2.30038121342659, 1.3531653583049774 l2.571014165878296, 0.2706330828368664 1.7591150104999542, -0.4059496149420738 l4.60076242685318, -2.706330716609955 2.029748111963272, -2.435697764158249 l0.8118992298841476, -2.029748111963272 " fill="none" stroke="black" stroke-width="1" /></svg>