<?xml version="1.0" encoding="utf-8" ?>
<svg baseProfile="full" height="51.812811167910695" version="1.1" width="44.776351265609264" xmlns="http://www.w3.org/2000/svg" xmlns:ev="http://www.w3.org/2001/xml-events" xmlns:xlink="http://www.w3.org/1999/xlink"><defs /><rect fill="white" height="51.812811167910695" width="44.776351265609264" x="0" y="0" /><path d="M13.254309464246035, 6.0825324058532715 m-3.3829134702682495, 2.029748111963272 l-1.2178488820791245, 1.2178488820791245 0.8118992298841476, 1.3531653583049774 l2.706330716609955, 2.165064662694931 2.706330716609955, 0.4059496149420738 l1.0825323313474655, -1.2178488820791245 0.2706330828368664, -2.165064662694931 l-1.6237984597682953, -4.330129325389862 -0.6765826791524887, -0.5412661656737328 l-2.029748111963272, 0.0 -0.6765826791524887, 0.4059496149420738 l-0.2706330828368664, 0.8118992298841476 m17.997100353240967, 0.0 l-1.3531653583049774, -0.1353165414184332 -2.706330716609955, 1.6237984597682953 l-0.5412661656737328, 1.3531653583049774 0.1353165414184332, 1.3531653583049774 l1.0825323313474655, 1.3531653583049774 1.3531653583049774, 0.6765826791524887 l2.029748111963272, 0.1353165414184332 1.3531653583049774, -0.5412661656737328 l1.2178488820791245, -1.0825323313474655 0.1353165414184332, -1.3531653583049774 l-0.6765826791524887, -2.165064662694931 -0.9472157806158066, -1.3531653583049774 l-2.029748111963272, -0.4059496149420738 -2.571014165878296, 2.165064662694931 m2.571014165878296, 1.6237984597682953 l-0.4059496149420738, 0.5412661656737328 m-16.37330174446106, 0.1353165414184332 l0.2706330828368664, 0.1353165414184332 m5.6832945346832275, 7.983676195144653 l7.442409992218018, -0.8118992298841476 -2.029748111963272, 3.3829134702682495 l-0.6765826791524887, 0.1353165414184332 -0.6765826791524887, 0.0 l-4.60076242685318, -2.9769638180732727 m-9.472157955169678, 13.66697072982788 l0.2706330828368664, -1.3531653583049774 2.706330716609955, -1.7591150104999542 l11.501905918121338, -2.30038121342659 9.336841106414795, -0.4059496149420738 l4.871395528316498, 2.435697764158249 1.0825323313474655, 1.2178488820791245 l1.7591150104999542, 3.6535465717315674 1.0825323313474655, 6.359877586364746 l-1.0825323313474655, 2.029748111963272 -2.165064662694931, 1.7591150104999542 l-4.736078977584839, 1.6237984597682953 -10.960639715194702, 0.1353165414184332 l-8.524942398071289, -0.8118992298841476 -1.3531653583049774, -0.5412661656737328 l-4.330129325389862, -2.706330716609955 -1.2178488820791245, -1.2178488820791245 l-0.4059496149420738, -5.81861138343811 1.6237984597682953, -2.706330716609955 m0.4059496149420738, -2.435697764158249 l2.029748111963272, 1.3531653583049774 3.2475969195365906, 3.5182300209999084 l2.9769638180732727, 1.6237984597682953 0.2706330828368664, -8.389625549316406 m8.389625549316406, -0.1353165414184332 l4.736078977584839, 5.953927636146545 2.029748111963272, 1.4884819090366364 l-0.1353165414184332, -4.736078977584839 0.5412661656737328, -1.6237984597682953 m-11.772539615631104, 15.155452489852905 l0.5412661656737328, -2.8416472673416138 1.6237984597682953, -2.9769638180732727 l0.8118992298841476, 2.706330716609955 0.6765826791524887, 0.0 l2.029748111963272, -4.465445876121521 2.8416472673416138, 8.389625549316406 l1.8944315612316132, 2.9769638180732727 -0.5412661656737328, -0.4059496149420738 " fill="none" stroke="black" stroke-width="1" /></svg>