<?xml version="1.0" encoding="utf-8" ?>
<svg baseProfile="full" height="61.826235139742494" version="1.1" width="62.232184456661344" xmlns="http://www.w3.org/2000/svg" xmlns:ev="http://www.w3.org/2001/xml-events" xmlns:xlink="http://www.w3.org/1999/xlink"><defs /><rect fill="white" height="61.826235139742494" width="62.232184456661344" x="0" y="0" /><path d="M10.683293929323554, 36.528754476457834 m-0.8118992298841476, 0.1353165414184332 l-0.8118992298841476, -1.7591150104999542 -0.2706330828368664, -6.765826940536499 l3.1122803688049316, -4.059496223926544 3.5182300209999084, -2.029748111963272 l4.736078977584839, -1.4884819090366364 7.442409992218018, -1.0825323313474655 l9.336841106414795, 0.0 2.165064662694931, 1.3531653583049774 l1.7591150104999542, 2.8416472673416138 0.4059496149420738, 6.765826940536499 l-0.9472157806158066, 2.165064662694931 -3.5182300209999084, 3.2475969195365906 l-9.066208004951477, 4.60076242685318 -7.307093143463135, 1.3531653583049774 l-5.81861138343811, 0.0 -3.2475969195365906, -1.0825323313474655 l-1.4884819090366364, -0.8118992298841476 -0.8118992298841476, -3.9241796731948853 m36.535465717315674, -23.27444553375244 l-0.5412661656737328, -1.3531653583049774 -2.165064662694931, -0.1353165414184332 l-4.736078977584839, 3.2475969195365906 -1.2178488820791245, 2.029748111963272 l-0.5412661656737328, 2.706330716609955 0.2706330828368664, 2.706330716609955 l3.6535465717315674, 4.059496223926544 3.9241796731948853, 0.8118992298841476 l2.30038121342659, -1.0825323313474655 3.3829134702682495, -4.194812774658203 l2.9769638180732727, -5.6832945346832275 0.1353165414184332, -3.5182300209999084 l-0.4059496149420738, -0.8118992298841476 -1.8944315612316132, -1.8944315612316132 l-2.571014165878296, -1.0825323313474655 -1.3531653583049774, 0.0 m-35.31761646270752, 31.528754234313965 l-0.8118992298841476, 0.1353165414184332 -0.9472157806158066, 1.3531653583049774 l-1.3531653583049774, 3.1122803688049316 -1.4884819090366364, 2.165064662694931 l-1.6237984597682953, 5.006712079048157 -0.2706330828368664, 4.330129325389862 l0.5412661656737328, 0.6765826791524887 1.7591150104999542, -0.1353165414184332 l1.4884819090366364, -1.0825323313474655 0.8118992298841476, -1.2178488820791245 l1.4884819090366364, -7.307093143463135 1.0825323313474655, -2.9769638180732727 l0.8118992298841476, -5.953927636146545 m2.165064662694931, 3.1122803688049316 l-1.8944315612316132, 3.5182300209999084 -1.3531653583049774, 5.41266143321991 l0.1353165414184332, 4.059496223926544 1.8944315612316132, 1.7591150104999542 l1.4884819090366364, -0.4059496149420738 1.7591150104999542, -2.029748111963272 l1.8944315612316132, -5.953927636146545 1.0825323313474655, -5.142028331756592 m13.531653881072998, -4.465445876121521 l0.9472157806158066, 0.4059496149420738 4.330129325389862, 4.736078977584839 l5.142028331756592, 3.7888631224632263 3.5182300209999084, 1.6237984597682953 l2.30038121342659, 0.1353165414184332 0.8118992298841476, -0.6765826791524887 l0.0, -8.930891752243042 -0.8118992298841476, -1.3531653583049774 l-2.571014165878296, -1.6237984597682953 -2.30038121342659, -0.6765826791524887 l-7.442409992218018, -1.6237984597682953 -3.6535465717315674, 0.1353165414184332 m19.620898962020874, -2.8416472673416138 l-14.208236932754517, -2.8416472673416138 -3.5182300209999084, -0.2706330828368664 l-1.0825323313474655, 1.2178488820791245 -0.2706330828368664, 4.60076242685318 l1.4884819090366364, 1.7591150104999542 2.706330716609955, 1.3531653583049774 l7.307093143463135, 1.6237984597682953 7.7130430936813354, 0.8118992298841476 l2.8416472673416138, 0.0 0.6765826791524887, -0.6765826791524887 l0.0, -2.30038121342659 -0.6765826791524887, -1.6237984597682953 l-2.435697764158249, -2.435697764158249 -2.9769638180732727, -1.8944315612316132 l-6.359877586364746, -2.571014165878296 m-6.901143789291382, -17.591150999069214 l-0.5412661656737328, 1.6237984597682953 0.6765826791524887, 0.5412661656737328 l1.3531653583049774, -0.2706330828368664 1.3531653583049774, -1.2178488820791245 l0.1353165414184332, -0.6765826791524887 -0.6765826791524887, -2.30038121342659 l-0.8118992298841476, 0.0 -1.7591150104999542, 2.30038121342659 l0.2706330828368664, 1.7591150104999542 m9.336841106414795, -7.036460041999817 l-2.029748111963272, 1.8944315612316132 -1.6237984597682953, 3.5182300209999084 l0.0, 0.6765826791524887 1.4884819090366364, 0.2706330828368664 l1.3531653583049774, -0.1353165414184332 0.6765826791524887, -0.6765826791524887 l1.2178488820791245, -1.4884819090366364 0.2706330828368664, -1.6237984597682953 l0.0, -0.8118992298841476 -1.3531653583049774, -0.5412661656737328 m0.0, 9.066208004951477 l0.1353165414184332, 0.0 m-0.4059496149420738, 0.0 l-0.2706330828368664, 5.277345180511475 -0.5412661656737328, 0.6765826791524887 l-0.5412661656737328, -0.8118992298841476 -0.1353165414184332, -2.435697764158249 l0.6765826791524887, -1.0825323313474655 m0.8118992298841476, 0.8118992298841476 l0.1353165414184332, 2.165064662694931 1.0825323313474655, 0.9472157806158066 l0.5412661656737328, -1.3531653583049774 0.0, -2.30038121342659 m-6.224560737609863, -2.8416472673416138 l0.1353165414184332, 1.6237984597682953 1.0825323313474655, 1.6237984597682953 l1.4884819090366364, -0.2706330828368664 0.1353165414184332, -2.30038121342659 l-0.8118992298841476, -0.4059496149420738 m6.224560737609863, -2.9769638180732727 l-1.4884819090366364, -0.1353165414184332 -2.571014165878296, 1.8944315612316132 l-0.4059496149420738, 3.2475969195365906 0.5412661656737328, 0.6765826791524887 l0.8118992298841476, 0.0 " fill="none" stroke="black" stroke-width="1" /></svg>