<?xml version="1.0" encoding="utf-8" ?>
<svg baseProfile="full" height="39.228372909128666" version="1.1" width="44.370400896295905" xmlns="http://www.w3.org/2000/svg" xmlns:ev="http://www.w3.org/2001/xml-events" xmlns:xlink="http://www.w3.org/1999/xlink"><defs /><rect fill="white" height="39.228372909128666" width="44.370400896295905" x="0" y="0" /><path d="M14.201524769887328, 7.706330791115761 m-2.435697764158249, -2.029748111963272 l-3.5182300209999084, -0.6765826791524887 -1.2178488820791245, 0.5412661656737328 l-0.9472157806158066, 1.0825323313474655 -0.9472157806158066, 2.165064662694931 l-0.1353165414184332, 1.3531653583049774 0.1353165414184332, 2.30038121342659 l1.4884819090366364, 3.5182300209999084 1.3531653583049774, 1.8944315612316132 l2.706330716609955, 2.30038121342659 1.3531653583049774, 6.901143789291382 l2.029748111963272, 3.6535465717315674 1.4884819090366364, 1.6237984597682953 l1.8944315612316132, 1.0825323313474655 3.6535465717315674, 0.8118992298841476 l4.736078977584839, -0.5412661656737328 6.765826940536499, -2.571014165878296 l2.9769638180732727, -2.029748111963272 0.8118992298841476, -0.9472157806158066 l1.0825323313474655, -3.1122803688049316 1.7591150104999542, -10.419373512268066 l-0.4059496149420738, -1.3531653583049774 0.5412661656737328, -4.194812774658203 l-1.0825323313474655, -1.7591150104999542 -4.194812774658203, -1.7591150104999542 l-1.8944315612316132, -0.1353165414184332 -3.6535465717315674, 0.8118992298841476 l-1.0825323313474655, 1.7591150104999542 0.8118992298841476, 4.871395528316498 l-4.330129325389862, -1.8944315612316132 -12.178488969802856, -2.706330716609955 l0.0, 0.4059496149420738 m9.336841106414795, 8.524942398071289 l-5.41266143321991, -3.6535465717315674 -1.0825323313474655, 0.1353165414184332 l-1.4884819090366364, 2.165064662694931 0.1353165414184332, 2.435697764158249 l3.3829134702682495, 6.630510687828064 1.8944315612316132, 2.435697764158249 l1.6237984597682953, 1.6237984597682953 2.165064662694931, 1.3531653583049774 l2.165064662694931, 0.5412661656737328 m-1.6237984597682953, -12.58443832397461 l0.0, -0.5412661656737328 0.9472157806158066, -1.2178488820791245 l2.571014165878296, -1.0825323313474655 3.1122803688049316, 0.1353165414184332 l2.029748111963272, 1.3531653583049774 0.6765826791524887, 6.495193839073181 l-1.6237984597682953, 3.3829134702682495 m-5.5479782819747925, 1.7591150104999542 l0.0, 0.8118992298841476 m4.871395528316498, -2.571014165878296 l0.0, 0.0 m-2.435697764158249, 1.8944315612316132 l-0.9472157806158066, 0.2706330828368664 -0.9472157806158066, 1.0825323313474655 l-0.6765826791524887, 1.6237984597682953 m-5.6832945346832275, -13.396337032318115 l-0.4059496149420738, 0.5412661656737328 0.0, 1.2178488820791245 l0.4059496149420738, 3.3829134702682495 m5.953927636146545, -4.60076242685318 l0.1353165414184332, 5.41266143321991 m-3.6535465717315674, 1.6237984597682953 l2.30038121342659, 1.7591150104999542 1.4884819090366364, 0.4059496149420738 l0.5412661656737328, -0.2706330828368664 " fill="none" stroke="black" stroke-width="1" /></svg>