<?xml version="1.0" encoding="utf-8" ?>
<svg baseProfile="full" height="54.65445895679295" version="1.1" width="34.22166048549116" xmlns="http://www.w3.org/2000/svg" xmlns:ev="http://www.w3.org/2001/xml-events" xmlns:xlink="http://www.w3.org/1999/xlink"><defs /><rect fill="white" height="54.65445895679295" width="34.22166048549116" x="0" y="0" /><path d="M10.683294581249356, 26.109381560236216 m1.4884819090366364, 13.396337032318115 l2.029748111963272, 1.3531653583049774 3.3829134702682495, 0.5412661656737328 l4.330129325389862, -0.4059496149420738 3.7888631224632263, -1.4884819090366364 l-0.5412661656737328, -2.30038121342659 0.2706330828368664, -8.524942398071289 l-0.4059496149420738, -2.435697764158249 m-2.9769638180732727, 12.719755172729492 l2.9769638180732727, 0.0 0.4059496149420738, 0.6765826791524887 l2.571014165878296, 1.6237984597682953 1.2178488820791245, 2.30038121342659 l-0.1353165414184332, 1.7591150104999542 -0.6765826791524887, 0.4059496149420738 l-4.60076242685318, -1.0825323313474655 -1.8944315612316132, -4.059496223926544 l0.6765826791524887, -1.0825323313474655 m-6.224560737609863, 1.7591150104999542 l-1.4884819090366364, 0.1353165414184332 -4.194812774658203, 2.029748111963272 l-5.6832945346832275, 3.9241796731948853 0.0, 0.6765826791524887 l3.5182300209999084, 1.6237984597682953 6.630510687828064, -2.8416472673416138 l7.577726244926453, -4.736078977584839 0.6765826791524887, -0.8118992298841476 m-13.802287578582764, -16.237984895706177 l5.81861138343811, -3.5182300209999084 5.277345180511475, -1.4884819090366364 l1.7591150104999542, 2.30038121342659 1.8944315612316132, 1.6237984597682953 l0.9472157806158066, 2.30038121342659 m0.0, 0.0 l0.0, -3.1122803688049316 -1.4884819090366364, -11.095956563949585 l-1.3531653583049774, -3.3829134702682495 -2.30038121342659, -1.3531653583049774 l-4.330129325389862, 0.1353165414184332 -0.6765826791524887, 0.5412661656737328 l-1.0825323313474655, 2.706330716609955 -2.029748111963272, 1.4884819090366364 l-2.8416472673416138, 3.7888631224632263 -0.4059496149420738, 2.30038121342659 l2.029748111963272, 2.8416472673416138 0.6765826791524887, 3.3829134702682495 m10.690007209777832, -13.261021375656128 l4.60076242685318, -1.3531653583049774 1.3531653583049774, -2.029748111963272 l-1.4884819090366364, -2.029748111963272 -1.3531653583049774, -0.8118992298841476 l-1.2178488820791245, 0.9472157806158066 -1.4884819090366364, 0.2706330828368664 l0.0, 2.165064662694931 " fill="none" stroke="black" stroke-width="1" /></svg>