<?xml version="1.0" encoding="utf-8" ?>
<svg baseProfile="full" height="75.22257205098867" version="1.1" width="103.63904358819127" xmlns="http://www.w3.org/2000/svg" xmlns:ev="http://www.w3.org/2001/xml-events" xmlns:xlink="http://www.w3.org/1999/xlink"><defs /><rect fill="white" height="75.22257205098867" width="103.63904358819127" x="0" y="0" /><path d="M58.45003557391465, 31.52204306796193 m6.765826940536499, -7.577726244926453 l7.307093143463135, -4.465445876121521 3.9241796731948853, -1.2178488820791245 l2.8416472673416138, -0.5412661656737328 5.6832945346832275, -0.1353165414184332 l2.30038121342659, 1.0825323313474655 4.465445876121521, 4.059496223926544 l0.6765826791524887, 2.9769638180732727 -0.1353165414184332, 2.8416472673416138 l-1.7591150104999542, 4.330129325389862 -2.165064662694931, 2.706330716609955 l-5.41266143321991, 2.706330716609955 -3.2475969195365906, 0.6765826791524887 l-13.802287578582764, 4.465445876121521 m-7.7130430936813354, -12.855072021484375 l-2.9769638180732727, -6.901143789291382 5.953927636146545, -8.660258650779724 l0.5412661656737328, -2.165064662694931 -0.6765826791524887, -1.8944315612316132 l-5.81861138343811, -2.9769638180732727 -9.742791056632996, -2.8416472673416138 l-10.55469036102295, -0.1353165414184332 -4.330129325389862, 0.6765826791524887 l-3.6535465717315674, 1.7591150104999542 -2.165064662694931, 2.706330716609955 l-0.2706330828368664, 13.125704526901245 0.5412661656737328, 3.3829134702682495 l1.8944315612316132, 2.571014165878296 3.5182300209999084, 1.7591150104999542 l2.165064662694931, 0.4059496149420738 5.006712079048157, 0.0 l2.165064662694931, -0.5412661656737328 -0.4059496149420738, 5.006712079048157 l-1.3531653583049774, 3.6535465717315674 -0.5412661656737328, 0.9472157806158066 l-4.736078977584839, 0.2706330828368664 -10.690007209777832, -3.6535465717315674 l-12.178488969802856, -1.4884819090366364 -3.1122803688049316, 1.8944315612316132 l-1.7591150104999542, 1.8944315612316132 0.1353165414184332, 2.8416472673416138 l2.029748111963272, 5.6832945346832275 4.60076242685318, 7.8483593463897705 l1.4884819090366364, 1.0825323313474655 3.7888631224632263, 1.2178488820791245 l9.336841106414795, 2.165064662694931 4.60076242685318, 0.6765826791524887 l3.7888631224632263, 0.0 2.9769638180732727, -0.9472157806158066 l1.8944315612316132, -1.3531653583049774 1.3531653583049774, -1.7591150104999542 l2.029748111963272, 5.6832945346832275 3.5182300209999084, 4.330129325389862 l5.41266143321991, 3.1122803688049316 2.571014165878296, 0.2706330828368664 l1.0825323313474655, -0.6765826791524887 0.9472157806158066, -1.3531653583049774 l0.0, -2.029748111963272 -2.029748111963272, -4.194812774658203 l15.561401844024658, 1.7591150104999542 5.6832945346832275, 0.0 l2.165064662694931, -0.8118992298841476 4.059496223926544, -4.330129325389862 l0.2706330828368664, -2.165064662694931 -0.5412661656737328, -1.0825323313474655 l-1.4884819090366364, -1.2178488820791245 -3.6535465717315674, -0.9472157806158066 l-5.142028331756592, -0.4059496149420738 -2.435697764158249, -0.8118992298841476 l-2.8416472673416138, -1.6237984597682953 -0.6765826791524887, -0.6765826791524887 l-0.2706330828368664, -4.736078977584839 m-30.71685552597046, -26.522042751312256 l2.029748111963272, 0.6765826791524887 1.4884819090366364, 0.0 l8.524942398071289, -0.2706330828368664 4.330129325389862, -0.8118992298841476 l1.8944315612316132, 0.2706330828368664 0.2706330828368664, 2.706330716609955 l-2.30038121342659, 3.9241796731948853 -1.3531653583049774, 1.0825323313474655 l-5.953927636146545, 0.5412661656737328 -4.871395528316498, -0.5412661656737328 l-5.142028331756592, -3.5182300209999084 -0.8118992298841476, -1.0825323313474655 l0.0, -2.435697764158249 m-0.1353165414184332, -0.4059496149420738 l5.41266143321991, 4.465445876121521 0.6765826791524887, -0.5412661656737328 l0.8118992298841476, -3.1122803688049316 0.6765826791524887, 0.5412661656737328 l0.9472157806158066, 2.9769638180732727 1.7591150104999542, 2.30038121342659 l0.6765826791524887, -0.5412661656737328 0.5412661656737328, -2.435697764158249 l1.2178488820791245, 2.706330716609955 0.6765826791524887, 0.2706330828368664 l0.9472157806158066, -6.495193839073181 2.706330716609955, 3.9241796731948853 l0.1353165414184332, 1.0825323313474655 m-4.194812774658203, 0.8118992298841476 l-0.6765826791524887, -0.1353165414184332 -2.30038121342659, 0.9472157806158066 m30.040271282196045, -4.330129325389862 l3.7888631224632263, -1.7591150104999542 7.036460041999817, -5.277345180511475 l2.165064662694931, 6.901143789291382 0.1353165414184332, 6.224560737609863 l-0.2706330828368664, 0.6765826791524887 -0.6765826791524887, 0.1353165414184332 l-0.8118992298841476, -2.029748111963272 0.6765826791524887, -0.5412661656737328 l10.82532286643982, -0.1353165414184332 2.165064662694931, 0.5412661656737328 l0.6765826791524887, 0.6765826791524887 0.4059496149420738, 3.3829134702682495 l-2.165064662694931, 1.2178488820791245 -2.706330716609955, 0.6765826791524887 l-6.359877586364746, 0.5412661656737328 " fill="none" stroke="black" stroke-width="1" /></svg>