<?xml version="1.0" encoding="utf-8" ?>
<svg baseProfile="full" height="37.739890636876225" version="1.1" width="52.624709978699684" xmlns="http://www.w3.org/2000/svg" xmlns:ev="http://www.w3.org/2001/xml-events" xmlns:xlink="http://www.w3.org/1999/xlink"><defs /><rect fill="white" height="37.739890636876225" width="52.624709978699684" x="0" y="0" /><path d="M11.22456081211567, 27.868495378643274 m-1.3531653583049774, -0.9472157806158066 l-3.9241796731948853, -5.953927636146545 -0.9472157806158066, -3.9241796731948853 l0.2706330828368664, -3.7888631224632263 4.059496223926544, -5.5479782819747925 l1.8944315612316132, 0.0 2.571014165878296, 0.9472157806158066 l2.029748111963272, 1.6237984597682953 1.3531653583049774, 2.029748111963272 l1.7591150104999542, -1.8944315612316132 2.029748111963272, -1.0825323313474655 l4.059496223926544, -0.5412661656737328 2.029748111963272, 0.8118992298841476 l1.0825323313474655, 1.3531653583049774 0.5412661656737328, 1.6237984597682953 l0.8118992298841476, -0.2706330828368664 3.2475969195365906, -3.9241796731948853 l2.8416472673416138, -1.8944315612316132 3.9241796731948853, -1.4884819090366364 l4.330129325389862, 0.0 1.7591150104999542, 0.9472157806158066 l1.7591150104999542, 2.706330716609955 0.2706330828368664, 4.871395528316498 l-0.4059496149420738, 2.165064662694931 -2.9769638180732727, 4.736078977584839 l-5.277345180511475, 3.7888631224632263 m-23.27444553375244, -3.1122803688049316 l-0.5412661656737328, -0.6765826791524887 0.0, -0.8118992298841476 l1.7591150104999542, -2.9769638180732727 4.194812774658203, -0.9472157806158066 l1.3531653583049774, 0.2706330828368664 2.165064662694931, 1.3531653583049774 l2.029748111963272, 1.7591150104999542 0.5412661656737328, 1.6237984597682953 m0.8118992298841476, -3.9241796731948853 l1.6237984597682953, -1.8944315612316132 1.6237984597682953, -0.6765826791524887 l5.277345180511475, -0.4059496149420738 1.7591150104999542, 2.8416472673416138 l0.2706330828368664, 3.1122803688049316 m-19.35026526451111, 1.8944315612316132 l-0.6765826791524887, 0.5412661656737328 -0.8118992298841476, 2.30038121342659 l0.0, 1.6237984597682953 0.6765826791524887, 0.2706330828368664 l1.7591150104999542, -0.2706330828368664 4.059496223926544, -2.30038121342659 l1.2178488820791245, -2.029748111963272 m-6.089244484901428, -1.2178488820791245 l0.8118992298841476, -0.5412661656737328 2.165064662694931, 0.0 m5.81861138343811, 0.8118992298841476 l0.6765826791524887, 0.1353165414184332 1.8944315612316132, 2.8416472673416138 l2.165064662694931, 0.1353165414184332 3.2475969195365906, -2.571014165878296 l0.5412661656737328, -1.6237984597682953 m-8.524942398071289, -0.9472157806158066 l2.029748111963272, -0.1353165414184332 2.435697764158249, 1.6237984597682953 m-6.359877586364746, 3.9241796731948853 l1.4884819090366364, 0.2706330828368664 0.1353165414184332, 1.4884819090366364 l-0.2706330828368664, 0.6765826791524887 -0.8118992298841476, 0.2706330828368664 m-5.6832945346832275, 3.2475969195365906 l2.30038121342659, 1.7591150104999542 2.30038121342659, 0.8118992298841476 l0.8118992298841476, -0.1353165414184332 2.435697764158249, -1.8944315612316132 l0.9472157806158066, -1.4884819090366364 m-14.478869438171387, 0.4059496149420738 l-0.9472157806158066, 1.7591150104999542 " fill="none" stroke="black" stroke-width="1" /></svg>