<?xml version="1.0" encoding="utf-8" ?>
<svg baseProfile="full" height="45.99420040845871" version="1.1" width="34.356977017596364" xmlns="http://www.w3.org/2000/svg" xmlns:ev="http://www.w3.org/2001/xml-events" xmlns:xlink="http://www.w3.org/1999/xlink"><defs /><rect fill="white" height="45.99420040845871" width="34.356977017596364" x="0" y="0" /><path d="M13.930891612544656, 12.983676670119166 m-1.2178488820791245, -0.1353165414184332 l-1.8944315612316132, 1.0825323313474655 -1.8944315612316132, 2.571014165878296 l-0.5412661656737328, 2.029748111963272 0.0, 1.8944315612316132 l0.8118992298841476, 1.8944315612316132 2.30038121342659, 1.7591150104999542 l1.8944315612316132, 0.8118992298841476 4.871395528316498, 0.8118992298841476 l3.3829134702682495, -1.3531653583049774 3.1122803688049316, -4.059496223926544 l0.1353165414184332, -2.9769638180732727 -2.435697764158249, -4.60076242685318 l-3.1122803688049316, -2.30038121342659 -1.8944315612316132, -0.5412661656737328 l-2.029748111963272, 0.0 -4.059496223926544, 1.6237984597682953 m2.029748111963272, 14.208236932754517 l-0.5412661656737328, 0.0 -0.8118992298841476, 0.8118992298841476 l-2.30038121342659, 3.3829134702682495 -0.4059496149420738, 2.571014165878296 l0.5412661656737328, 2.435697764158249 2.571014165878296, 3.2475969195365906 l2.8416472673416138, 1.8944315612316132 3.3829134702682495, 0.9472157806158066 l3.3829134702682495, -0.4059496149420738 1.8944315612316132, -1.0825323313474655 l2.435697764158249, -2.571014165878296 1.2178488820791245, -2.435697764158249 l0.2706330828368664, -2.30038121342659 -1.6237984597682953, -6.089244484901428 l-1.7591150104999542, -1.8944315612316132 -2.30038121342659, -1.2178488820791245 m-2.571014165878296, -14.884819984436035 l0.0, -0.6765826791524887 0.5412661656737328, -0.5412661656737328 l2.9769638180732727, -1.8944315612316132 1.6237984597682953, 0.5412661656737328 l1.0825323313474655, 1.7591150104999542 0.2706330828368664, 1.2178488820791245 l-0.4059496149420738, 1.3531653583049774 -3.9241796731948853, 3.3829134702682495 m-9.066208004951477, -2.165064662694931 l-1.6237984597682953, -0.6765826791524887 -3.2475969195365906, -0.2706330828368664 l-2.30038121342659, 1.0825323313474655 -0.5412661656737328, 1.7591150104999542 l0.4059496149420738, 1.3531653583049774 0.5412661656737328, 0.8118992298841476 l2.30038121342659, 1.6237984597682953 m4.736078977584839, -2.165064662694931 l0.0, 0.0 m5.41266143321991, 0.2706330828368664 l0.0, 0.0 m-6.089244484901428, 3.3829134702682495 l1.6237984597682953, 1.4884819090366364 2.8416472673416138, 0.6765826791524887 l1.7591150104999542, -0.8118992298841476 0.9472157806158066, -1.7591150104999542 m6.089244484901428, 8.795575499534607 l-0.1353165414184332, -0.5412661656737328 1.3531653583049774, -1.4884819090366364 l2.165064662694931, -0.5412661656737328 0.4059496149420738, 0.5412661656737328 l-0.4059496149420738, 1.7591150104999542 -2.706330716609955, 2.30038121342659 " fill="none" stroke="black" stroke-width="1" /></svg>