<?xml version="1.0" encoding="utf-8" ?>
<svg baseProfile="full" height="50.1890121307224" version="1.1" width="44.911667658016086" xmlns="http://www.w3.org/2000/svg" xmlns:ev="http://www.w3.org/2001/xml-events" xmlns:xlink="http://www.w3.org/1999/xlink"><defs /><rect fill="white" height="50.1890121307224" width="44.911667658016086" x="0" y="0" /><path d="M31.386725520715117, 13.930891696363688 m-2.435697764158249, 0.0 l-3.3829134702682495, 0.8118992298841476 -6.495193839073181, 4.736078977584839 l-1.6237984597682953, 2.029748111963272 -0.6765826791524887, 1.6237984597682953 l0.2706330828368664, 3.3829134702682495 1.8944315612316132, 2.9769638180732727 l1.2178488820791245, 0.9472157806158066 3.5182300209999084, 0.2706330828368664 l3.3829134702682495, -1.3531653583049774 4.059496223926544, -2.435697764158249 l2.571014165878296, -3.5182300209999084 -0.1353165414184332, -4.330129325389862 l-1.2178488820791245, -3.3829134702682495 -1.4884819090366364, -2.165064662694931 m0.0, 0.9472157806158066 l-0.1353165414184332, -2.435697764158249 0.4059496149420738, -3.2475969195365906 l1.2178488820791245, -2.435697764158249 2.30038121342659, -1.3531653583049774 l2.165064662694931, 0.8118992298841476 2.029748111963272, 2.30038121342659 l1.0825323313474655, 2.706330716609955 -0.2706330828368664, 2.706330716609955 l-3.6535465717315674, 5.142028331756592 m0.1353165414184332, -6.630510687828064 l-0.8118992298841476, -1.0825323313474655 -1.6237984597682953, 0.2706330828368664 l-1.6237984597682953, 1.3531653583049774 -1.6237984597682953, 2.571014165878296 l-0.2706330828368664, 1.4884819090366364 1.4884819090366364, 1.7591150104999542 l1.7591150104999542, 0.5412661656737328 1.7591150104999542, 0.0 l0.6765826791524887, -0.8118992298841476 0.4059496149420738, -2.9769638180732727 l0.0, -1.0825323313474655 -1.0825323313474655, -2.706330716609955 l0.1353165414184332, -0.4059496149420738 m-16.237984895706177, 8.254309296607971 l-0.4059496149420738, -1.3531653583049774 0.6765826791524887, -9.336841106414795 l0.6765826791524887, -0.5412661656737328 2.029748111963272, 0.0 l1.7591150104999542, 1.2178488820791245 2.165064662694931, 5.953927636146545 m-2.30038121342659, -3.5182300209999084 l-0.8118992298841476, -0.8118992298841476 -0.4059496149420738, 1.2178488820791245 l-1.2178488820791245, 1.2178488820791245 -0.9472157806158066, 2.435697764158249 l0.0, 1.2178488820791245 0.6765826791524887, 0.0 l3.1122803688049316, -3.2475969195365906 0.1353165414184332, -1.3531653583049774 l-0.6765826791524887, -0.2706330828368664 m-7.307093143463135, 11.501905918121338 l-1.0825323313474655, -1.2178488820791245 -4.330129325389862, -0.8118992298841476 l-4.736078977584839, 3.2475969195365906 -1.0825323313474655, 1.4884819090366364 l0.0, 1.3531653583049774 1.0825323313474655, 1.6237984597682953 l0.9472157806158066, 0.5412661656737328 2.9769638180732727, 0.2706330828368664 l3.1122803688049316, -1.2178488820791245 4.60076242685318, -2.8416472673416138 m-7.983676195144653, -1.2178488820791245 l0.0, 1.4884819090366364 m13.937603235244751, -8.930891752243042 l-0.4059496149420738, 1.2178488820791245 0.8118992298841476, 2.165064662694931 m3.3829134702682495, -3.5182300209999084 l0.4059496149420738, 1.7591150104999542 1.0825323313474655, 0.9472157806158066 m-8.660258650779724, 6.224560737609863 l2.435697764158249, 0.0 4.871395528316498, -1.7591150104999542 l2.30038121342659, -0.1353165414184332 m-6.224560737609863, 6.765826940536499 l-4.194812774658203, 1.3531653583049774 -4.059496223926544, 2.8416472673416138 l0.0, 1.2178488820791245 0.5412661656737328, 2.435697764158249 l2.029748111963272, 4.330129325389862 1.8944315612316132, 2.029748111963272 l2.9769638180732727, 0.0 2.9769638180732727, -0.4059496149420738 l2.571014165878296, -1.8944315612316132 2.706330716609955, -3.1122803688049316 l1.2178488820791245, -2.029748111963272 0.6765826791524887, -2.8416472673416138 l-0.5412661656737328, -1.6237984597682953 -2.30038121342659, -2.165064662694931 l-3.5182300209999084, -2.029748111963272 " fill="none" stroke="black" stroke-width="1" /></svg>