<?xml version="1.0" encoding="utf-8" ?>
<svg baseProfile="full" height="62.90876682847738" version="1.1" width="105.53347788751125" xmlns="http://www.w3.org/2000/svg" xmlns:ev="http://www.w3.org/2001/xml-events" xmlns:xlink="http://www.w3.org/1999/xlink"><defs /><rect fill="white" height="62.90876682847738" width="105.53347788751125" x="0" y="0" /><path d="M56.284968946129084, 18.39633870869875 m-0.5412661656737328, -0.9472157806158066 l0.2706330828368664, -3.3829134702682495 1.4884819090366364, -2.029748111963272 l2.9769638180732727, -1.7591150104999542 4.330129325389862, -0.5412661656737328 l9.742791056632996, 0.0 7.577726244926453, 1.4884819090366364 l1.3531653583049774, 2.571014165878296 0.6765826791524887, 3.3829134702682495 l1.0825323313474655, 0.4059496149420738 6.359877586364746, -0.1353165414184332 l3.7888631224632263, 0.8118992298841476 4.60076242685318, 3.2475969195365906 l0.5412661656737328, 0.6765826791524887 -0.6765826791524887, 1.4884819090366364 l-5.277345180511475, 3.6535465717315674 -7.577726244926453, 2.8416472673416138 l-10.013424158096313, 0.1353165414184332 -2.706330716609955, 0.5412661656737328 l-3.9241796731948853, 1.4884819090366364 -1.7591150104999542, 2.435697764158249 l1.6237984597682953, 3.3829134702682495 -3.2475969195365906, 4.330129325389862 l-13.66697072982788, 6.224560737609863 -13.531653881072998, 2.30038121342659 l-19.35026526451111, 0.0 -4.60076242685318, -3.2475969195365906 l-7.1717768907547, -11.095956563949585 -3.6535465717315674, -8.930891752243042 l0.1353165414184332, -6.901143789291382 2.8416472673416138, -6.089244484901428 l0.9472157806158066, -1.0825323313474655 11.366589069366455, -5.81861138343811 l12.449121475219727, -2.8416472673416138 13.66697072982788, 0.0 l5.006712079048157, 1.2178488820791245 1.6237984597682953, 1.2178488820791245 l5.142028331756592, 6.224560737609863 0.4059496149420738, 0.6765826791524887 l-0.6765826791524887, 1.2178488820791245 m-40.053696632385254, 34.37040090560913 l0.0, 1.3531653583049774 -1.7591150104999542, 4.465445876121521 l1.3531653583049774, 1.6237984597682953 8.524942398071289, 0.5412661656737328 l0.5412661656737328, -1.0825323313474655 0.8118992298841476, -4.736078977584839 l1.8944315612316132, -2.435697764158249 1.0825323313474655, -0.6765826791524887 m27.19862461090088, -3.1122803688049316 l2.029748111963272, 2.029748111963272 1.8944315612316132, 2.9769638180732727 l0.6765826791524887, 0.2706330828368664 2.30038121342659, 0.0 l3.5182300209999084, -1.2178488820791245 -2.435697764158249, -1.8944315612316132 l-1.0825323313474655, -1.4884819090366364 -1.8944315612316132, -4.194812774658203 " fill="none" stroke="black" stroke-width="1" /></svg>