<?xml version="1.0" encoding="utf-8" ?>
<svg baseProfile="full" height="54.51914148405194" version="1.1" width="54.51914159581065" xmlns="http://www.w3.org/2000/svg" xmlns:ev="http://www.w3.org/2001/xml-events" xmlns:xlink="http://www.w3.org/1999/xlink"><defs /><rect fill="white" height="54.51914148405194" width="54.51914159581065" x="0" y="0" /><path d="M29.627609495073557, 19.072919571772218 m-0.1353165414184332, 4.330129325389862 l-0.9472157806158066, 3.5182300209999084 m-11.90785527229309, -7.577726244926453 l-0.6765826791524887, 7.442409992218018 m1.6237984597682953, 11.501905918121338 l-1.6237984597682953, -2.9769638180732727 -2.029748111963272, -1.4884819090366364 l6.630510687828064, 0.5412661656737328 -0.5412661656737328, 1.4884819090366364 l-1.4884819090366364, 1.3531653583049774 -1.7591150104999542, 2.706330716609955 m18.40304970741272, -25.980775356292725 l0.0, -2.029748111963272 1.2178488820791245, -2.029748111963272 l0.9472157806158066, -0.9472157806158066 2.8416472673416138, -1.4884819090366364 l3.5182300209999084, -0.1353165414184332 3.5182300209999084, 1.7591150104999542 l1.0825323313474655, 0.9472157806158066 1.0825323313474655, 2.165064662694931 l0.1353165414184332, 3.3829134702682495 -0.8118992298841476, 3.1122803688049316 l-2.165064662694931, 3.1122803688049316 m-7.036460041999817, -7.036460041999817 l-2.029748111963272, -2.9769638180732727 -2.029748111963272, -1.4884819090366364 l-5.277345180511475, -2.029748111963272 -3.7888631224632263, -0.2706330828368664 l-3.3829134702682495, 0.4059496149420738 -5.006712079048157, 2.571014165878296 l-0.2706330828368664, -3.1122803688049316 -0.9472157806158066, -1.6237984597682953 l-0.6765826791524887, -0.5412661656737328 -2.706330716609955, -0.6765826791524887 l-2.9769638180732727, 0.6765826791524887 -2.8416472673416138, 2.435697764158249 l-1.3531653583049774, 2.30038121342659 -1.2178488820791245, 4.059496223926544 l0.9472157806158066, 2.9769638180732727 1.3531653583049774, 1.0825323313474655 l1.4884819090366364, 0.2706330828368664 0.4059496149420738, 0.6765826791524887 l-2.30038121342659, 4.330129325389862 -1.0825323313474655, 7.307093143463135 l0.6765826791524887, 5.41266143321991 0.5412661656737328, 1.4884819090366364 l1.8944315612316132, 2.8416472673416138 1.4884819090366364, 1.0825323313474655 l2.165064662694931, 0.1353165414184332 3.5182300209999084, -2.029748111963272 l0.6765826791524887, 0.1353165414184332 1.7591150104999542, 2.165064662694931 l2.30038121342659, 1.3531653583049774 2.435697764158249, 0.5412661656737328 l4.60076242685318, -0.2706330828368664 3.5182300209999084, -0.9472157806158066 l3.2475969195365906, -1.4884819090366364 1.8944315612316132, -1.3531653583049774 l3.3829134702682495, -3.7888631224632263 m-27.19862461090088, 5.5479782819747925 l1.4884819090366364, 3.1122803688049316 3.1122803688049316, 2.8416472673416138 l6.359877586364746, 1.6237984597682953 5.277345180511475, -0.1353165414184332 l5.006712079048157, -1.7591150104999542 3.5182300209999084, -2.029748111963272 " fill="none" stroke="black" stroke-width="1" /></svg>