<?xml version="1.0" encoding="utf-8" ?>
<svg baseProfile="full" height="24.61418615654111" version="1.1" width="27.997099701315165" xmlns="http://www.w3.org/2000/svg" xmlns:ev="http://www.w3.org/2001/xml-events" xmlns:xlink="http://www.w3.org/1999/xlink"><defs /><rect fill="white" height="24.61418615654111" width="27.997099701315165" x="0" y="0" /><path d="M11.765826912596822, 8.653546459972858 m-2.165064662694931, -0.4059496149420738 l-0.8118992298841476, 0.2706330828368664 -0.4059496149420738, 2.165064662694931 l2.435697764158249, 2.571014165878296 1.2178488820791245, -0.2706330828368664 l0.0, -3.2475969195365906 m-1.8944315612316132, 1.0825323313474655 l0.0, 0.0 m1.0825323313474655, -1.4884819090366364 l0.1353165414184332, 0.0 m1.8944315612316132, -2.8416472673416138 l2.029748111963272, -1.4884819090366364 0.6765826791524887, 0.0 l1.6237984597682953, 2.029748111963272 0.0, 0.9472157806158066 l-1.2178488820791245, 1.7591150104999542 m-6.495193839073181, -3.2475969195365906 l-2.165064662694931, -0.2706330828368664 -1.6237984597682953, 0.5412661656737328 l-1.0825323313474655, 2.165064662694931 0.5412661656737328, 1.3531653583049774 m4.059496223926544, -3.2475969195365906 l3.1122803688049316, 0.4059496149420738 m3.2475969195365906, 1.8944315612316132 l0.0, 2.571014165878296 -0.5412661656737328, 1.3531653583049774 l-2.165064662694931, 1.6237984597682953 -4.059496223926544, 0.0 l-1.0825323313474655, -0.4059496149420738 -1.4884819090366364, -1.2178488820791245 l-0.2706330828368664, -2.029748111963272 m9.472157955169678, 2.30038121342659 l5.6832945346832275, -0.8118992298841476 1.4884819090366364, 1.3531653583049774 l-0.2706330828368664, 2.435697764158249 -3.2475969195365906, 2.571014165878296 l-2.029748111963272, 0.5412661656737328 " fill="none" stroke="black" stroke-width="1" /></svg>