<?xml version="1.0" encoding="utf-8" ?>
<svg baseProfile="full" height="75.49320558086038" version="1.1" width="70.21586018614471" xmlns="http://www.w3.org/2000/svg" xmlns:ev="http://www.w3.org/2001/xml-events" xmlns:xlink="http://www.w3.org/1999/xlink"><defs /><rect fill="white" height="75.49320558086038" width="70.21586018614471" x="0" y="0" /><path d="M48.4366101026535, 31.79267439059913 m-5.006712079048157, -5.5479782819747925 l-6.901143789291382, -3.7888631224632263 -5.277345180511475, -1.6237984597682953 l-8.660258650779724, 0.1353165414184332 -2.165064662694931, 1.0825323313474655 l-11.095956563949585, 11.231273412704468 -2.571014165878296, 3.9241796731948853 l-1.7591150104999542, 5.41266143321991 0.0, 16.237984895706177 l7.8483593463897705, 7.983676195144653 2.435697764158249, 1.4884819090366364 l8.118992447853088, 2.165064662694931 19.48558211326599, -0.2706330828368664 l3.7888631224632263, -2.706330716609955 2.8416472673416138, -2.9769638180732727 l2.029748111963272, -2.9769638180732727 2.706330716609955, -4.60076242685318 l0.8118992298841476, -5.142028331756592 0.4059496149420738, -3.7888631224632263 l-0.1353165414184332, -10.960639715194702 -2.029748111963272, -3.6535465717315674 l-0.6765826791524887, -2.9769638180732727 -1.3531653583049774, -1.3531653583049774 l-2.435697764158249, 0.0 m-36.80609941482544, -0.5412661656737328 l-0.5412661656737328, -4.330129325389862 -0.2706330828368664, -15.426086187362671 l0.2706330828368664, -1.8944315612316132 0.5412661656737328, -1.0825323313474655 l1.0825323313474655, -0.8118992298841476 0.8118992298841476, 0.0 l1.3531653583049774, 0.8118992298841476 4.465445876121521, 3.2475969195365906 l2.571014165878296, 2.435697764158249 2.706330716609955, 3.5182300209999084 l0.2706330828368664, 4.059496223926544 m19.35026526451111, 4.871395528316498 l2.706330716609955, -3.5182300209999084 4.736078977584839, -4.465445876121521 l4.60076242685318, -0.4059496149420738 0.8118992298841476, 0.5412661656737328 l6.089244484901428, 5.6832945346832275 0.9472157806158066, 1.8944315612316132 l0.0, 2.165064662694931 0.6765826791524887, 2.029748111963272 l0.0, 3.6535465717315674 -0.6765826791524887, 1.8944315612316132 l-2.435697764158249, 2.435697764158249 -0.6765826791524887, 0.2706330828368664 l-1.0825323313474655, -0.2706330828368664 m-45.6016731262207, -12.178488969802856 l0.0, -6.224560737609863 1.3531653583049774, -1.4884819090366364 l2.435697764158249, -0.1353165414184332 1.6237984597682953, 0.5412661656737328 l3.7888631224632263, 2.435697764158249 0.5412661656737328, 1.0825323313474655 m17.997100353240967, 3.1122803688049316 l2.706330716609955, 0.0 m2.029748111963272, 5.81861138343811 l2.9769638180732727, -5.142028331756592 2.9769638180732727, 0.2706330828368664 l1.3531653583049774, 0.8118992298841476 1.8944315612316132, 3.7888631224632263 l-0.2706330828368664, 2.165064662694931 -2.165064662694931, 1.3531653583049774 m-30.040271282196045, 4.330129325389862 l-1.0825323313474655, -0.8118992298841476 -5.277345180511475, 0.4059496149420738 l-0.6765826791524887, 1.7591150104999542 0.0, 1.8944315612316132 l0.6765826791524887, 0.8118992298841476 1.6237984597682953, 1.3531653583049774 l8.524942398071289, 0.2706330828368664 1.0825323313474655, -0.6765826791524887 l0.2706330828368664, -5.277345180511475 -1.0825323313474655, -1.8944315612316132 l-1.7591150104999542, -1.6237984597682953 m22.597861289978027, 7.1717768907547 l-0.5412661656737328, -0.6765826791524887 -6.901143789291382, 0.0 l-2.706330716609955, 2.8416472673416138 -0.1353165414184332, 1.7591150104999542 l0.6765826791524887, 0.4059496149420738 3.6535465717315674, -0.1353165414184332 l0.6765826791524887, -0.5412661656737328 -0.1353165414184332, -4.059496223926544 l-1.8944315612316132, -1.3531653583049774 -1.3531653583049774, -0.2706330828368664 m-25.845458507537842, 12.719755172729492 l0.6765826791524887, 0.0 6.495193839073181, 3.2475969195365906 l7.8483593463897705, 2.165064662694931 7.577726244926453, 0.2706330828368664 " fill="none" stroke="black" stroke-width="1" /></svg>