<?xml version="1.0" encoding="utf-8" ?>
<svg baseProfile="full" height="98.09106832370162" version="1.1" width="75.89915598742664" xmlns="http://www.w3.org/2000/svg" xmlns:ev="http://www.w3.org/2001/xml-events" xmlns:xlink="http://www.w3.org/1999/xlink"><defs /><rect fill="white" height="98.09106832370162" width="75.89915598742664" x="0" y="0" /><path d="M30.710144117474556, 12.983675971627235 m-0.9472157806158066, 3.7888631224632263 l0.0, 5.142028331756592 0.9472157806158066, 2.8416472673416138 l1.8944315612316132, 2.435697764158249 2.435697764158249, 1.6237984597682953 l4.330129325389862, 0.1353165414184332 4.871395528316498, -1.3531653583049774 l5.277345180511475, -2.706330716609955 5.6832945346832275, -4.330129325389862 l2.029748111963272, -3.7888631224632263 0.1353165414184332, -2.029748111963272 l-0.8118992298841476, -2.029748111963272 -3.3829134702682495, -3.9241796731948853 l-3.2475969195365906, -2.571014165878296 -3.9241796731948853, -1.0825323313474655 l-8.930891752243042, -0.1353165414184332 -2.706330716609955, 0.6765826791524887 l-2.706330716609955, 1.8944315612316132 -3.6535465717315674, 5.5479782819747925 m0.5412661656737328, 11.90785527229309 l-2.029748111963272, 4.194812774658203 -4.736078977584839, 6.359877586364746 l-3.7888631224632263, 5.953927636146545 -1.7591150104999542, 4.330129325389862 l-1.0825323313474655, 5.277345180511475 -2.9769638180732727, 10.013424158096313 l-1.6237984597682953, 21.515331268310547 0.9472157806158066, 2.435697764158249 l1.2178488820791245, 1.6237984597682953 1.4884819090366364, 1.2178488820791245 l4.194812774658203, 1.4884819090366364 4.330129325389862, 0.4059496149420738 l12.449121475219727, 0.0 4.465445876121521, -0.6765826791524887 l4.330129325389862, -1.4884819090366364 6.901143789291382, -4.465445876121521 l3.7888631224632263, -3.7888631224632263 1.6237984597682953, -2.8416472673416138 l1.7591150104999542, -5.142028331756592 2.029748111963272, -8.930891752243042 l0.6765826791524887, -12.855072021484375 -1.0825323313474655, -4.60076242685318 l-3.2475969195365906, -8.254309296607971 -3.2475969195365906, -7.036460041999817 l-2.30038121342659, -2.571014165878296 -3.6535465717315674, -2.435697764158249 l-1.4884819090366364, -0.8118992298841476 -2.165064662694931, 0.0 l-5.006712079048157, 2.571014165878296 m22.597861289978027, 20.70343017578125 l0.5412661656737328, -0.8118992298841476 2.029748111963272, -1.0825323313474655 l2.571014165878296, -0.6765826791524887 1.8944315612316132, 0.1353165414184332 l2.165064662694931, 2.029748111963272 0.5412661656737328, 1.4884819090366364 l-0.1353165414184332, 1.6237984597682953 -1.6237984597682953, 0.5412661656737328 l-9.472157955169678, -0.4059496149420738 m-42.2187614440918, -8.389625549316406 l-2.8416472673416138, -0.8118992298841476 -3.7888631224632263, 0.2706330828368664 l-3.3829134702682495, 1.7591150104999542 -2.029748111963272, 2.165064662694931 l-0.4059496149420738, 0.8118992298841476 0.0, 2.706330716609955 l1.7591150104999542, 2.029748111963272 1.8944315612316132, 1.0825323313474655 l0.9472157806158066, 0.0 0.8118992298841476, -0.1353165414184332 l1.7591150104999542, -1.7591150104999542 m-2.435697764158249, 33.69381904602051 l-0.9472157806158066, 6.495193839073181 0.0, 2.165064662694931 l0.4059496149420738, 0.6765826791524887 2.029748111963272, 0.0 l2.9769638180732727, -1.3531653583049774 1.2178488820791245, -1.4884819090366364 l0.2706330828368664, -3.3829134702682495 m36.535465717315674, -3.9241796731948853 l0.8118992298841476, 0.4059496149420738 0.2706330828368664, 2.8416472673416138 l-1.7591150104999542, 3.7888631224632263 -2.165064662694931, 2.435697764158249 l-1.6237984597682953, 0.9472157806158066 -2.165064662694931, -0.6765826791524887 l-2.571014165878296, -1.6237984597682953 -0.5412661656737328, -1.2178488820791245 " fill="none" stroke="black" stroke-width="1" /></svg>