<?xml version="1.0" encoding="utf-8" ?>
<svg baseProfile="full" height="32.46254554949701" version="1.1" width="74.54598966985941" xmlns="http://www.w3.org/2000/svg" xmlns:ev="http://www.w3.org/2001/xml-events" xmlns:xlink="http://www.w3.org/1999/xlink"><defs /><rect fill="white" height="32.46254554949701" width="74.54598966985941" x="0" y="0" /><path d="M10.412661526352167, 14.336841152980924 m-0.5412661656737328, 0.1353165414184332 l-2.571014165878296, 4.465445876121521 -2.029748111963272, 4.60076242685318 l-0.2706330828368664, 1.8944315612316132 1.3531653583049774, 0.5412661656737328 l3.3829134702682495, -1.0825323313474655 1.7591150104999542, -0.9472157806158066 l3.3829134702682495, -2.571014165878296 4.465445876121521, -4.736078977584839 l2.165064662694931, -1.0825323313474655 0.8118992298841476, 0.1353165414184332 l0.8118992298841476, 1.4884819090366364 -0.1353165414184332, 2.9769638180732727 l-3.6535465717315674, 7.307093143463135 3.9241796731948853, -0.6765826791524887 l3.2475969195365906, -1.3531653583049774 3.5182300209999084, -3.7888631224632263 l1.3531653583049774, -3.2475969195365906 0.5412661656737328, -0.4059496149420738 l9.742791056632996, 1.4884819090366364 3.7888631224632263, 1.2178488820791245 l2.165064662694931, 3.2475969195365906 4.059496223926544, 3.2475969195365906 l0.5412661656737328, 0.0 1.2178488820791245, -1.6237984597682953 l-0.8118992298841476, -4.330129325389862 0.1353165414184332, -1.3531653583049774 l3.1122803688049316, 3.1122803688049316 1.8944315612316132, 2.435697764158249 l1.8944315612316132, 0.8118992298841476 0.5412661656737328, -0.5412661656737328 l0.0, -0.9472157806158066 -2.165064662694931, -7.036460041999817 l0.0, -0.9472157806158066 0.6765826791524887, -0.9472157806158066 l1.0825323313474655, -0.1353165414184332 3.9241796731948853, 1.3531653583049774 l4.059496223926544, 0.4059496149420738 1.7591150104999542, -1.0825323313474655 l0.0, -1.6237984597682953 -1.0825323313474655, -1.8944315612316132 l-2.165064662694931, -0.4059496149420738 -0.6765826791524887, -0.5412661656737328 l0.8118992298841476, -2.30038121342659 -3.5182300209999084, -0.6765826791524887 l-2.30038121342659, -0.9472157806158066 -3.5182300209999084, -0.4059496149420738 m0.1353165414184332, 0.5412661656737328 l-6.495193839073181, -2.706330716609955 -3.2475969195365906, -0.4059496149420738 l-5.953927636146545, 0.0 -6.359877586364746, 1.0825323313474655 l-6.630510687828064, -0.4059496149420738 -7.307093143463135, 0.2706330828368664 l-2.9769638180732727, 0.6765826791524887 -2.8416472673416138, 1.6237984597682953 l-8.118992447853088, 7.8483593463897705 m1.8944315612316132, -3.2475969195365906 l-0.4059496149420738, -0.6765826791524887 0.1353165414184332, -3.3829134702682495 l0.0, 1.0825323313474655 2.30038121342659, -3.2475969195365906 l1.2178488820791245, -0.9472157806158066 0.4059496149420738, 0.9472157806158066 l0.1353165414184332, 4.194812774658203 -1.8944315612316132, 0.2706330828368664 l-2.029748111963272, 0.9472157806158066 m53.720664978027344, -2.706330716609955 l0.0, -1.4884819090366364 0.6765826791524887, -1.0825323313474655 l0.5412661656737328, -0.2706330828368664 0.1353165414184332, 1.8944315612316132 m0.9472157806158066, 1.4884819090366364 l1.2178488820791245, -2.30038121342659 0.6765826791524887, -0.5412661656737328 l0.0, 0.9472157806158066 -0.5412661656737328, 0.8118992298841476 m-2.9769638180732727, 2.8416472673416138 l0.0, 0.0 m2.029748111963272, 0.2706330828368664 l0.0, 0.0 m-0.6765826791524887, 5.953927636146545 l2.706330716609955, -1.6237984597682953 1.6237984597682953, -0.1353165414184332 " fill="none" stroke="black" stroke-width="1" /></svg>