<?xml version="1.0" encoding="utf-8" ?>
<svg baseProfile="full" height="41.93470345810056" version="1.1" width="57.36078907735646" xmlns="http://www.w3.org/2000/svg" xmlns:ev="http://www.w3.org/2001/xml-events" xmlns:xlink="http://www.w3.org/1999/xlink"><defs /><rect fill="white" height="41.93470345810056" width="57.36078907735646" x="0" y="0" /><path d="M36.66407074779272, 13.660258008167148 m-7.577726244926453, -0.9472157806158066 l-11.095956563949585, 0.1353165414184332 -4.871395528316498, 1.0825323313474655 l-2.435697764158249, 1.0825323313474655 -2.029748111963272, 1.4884819090366364 l-3.2475969195365906, 4.871395528316498 -0.4059496149420738, 3.2475969195365906 l0.5412661656737328, 2.029748111963272 1.3531653583049774, 1.2178488820791245 l2.30038121342659, 0.0 1.7591150104999542, -1.0825323313474655 l-1.8944315612316132, 10.148741006851196 2.165064662694931, -0.4059496149420738 l0.5412661656737328, -0.9472157806158066 0.0, -3.2475969195365906 l0.6765826791524887, -2.9769638180732727 0.6765826791524887, -0.4059496149420738 l1.8944315612316132, 0.0 1.2178488820791245, 1.0825323313474655 l-0.5412661656737328, 2.029748111963272 -0.1353165414184332, 3.3829134702682495 l1.6237984597682953, -0.1353165414184332 0.0, -4.736078977584839 l0.5412661656737328, -1.6237984597682953 0.6765826791524887, -0.4059496149420738 l2.165064662694931, 0.8118992298841476 4.736078977584839, -0.2706330828368664 l0.5412661656737328, 0.8118992298841476 -0.5412661656737328, 4.465445876121521 l0.6765826791524887, 0.4059496149420738 1.4884819090366364, -0.2706330828368664 l0.6765826791524887, -0.6765826791524887 0.4059496149420738, -4.330129325389862 l3.9241796731948853, -0.1353165414184332 0.4059496149420738, 0.6765826791524887 l-0.8118992298841476, 4.194812774658203 2.435697764158249, 0.0 l0.6765826791524887, -8.389625549316406 0.9472157806158066, -2.165064662694931 l1.3531653583049774, -1.2178488820791245 4.330129325389862, -1.0825323313474655 l3.5182300209999084, -2.165064662694931 1.2178488820791245, -1.2178488820791245 l0.9472157806158066, -2.029748111963272 m-11.366589069366455, -3.6535465717315674 l1.7591150104999542, -4.059496223926544 2.571014165878296, -2.571014165878296 l2.165064662694931, -0.6765826791524887 3.7888631224632263, 0.0 l2.706330716609955, 0.2706330828368664 2.8416472673416138, 0.9472157806158066 l0.4059496149420738, 0.6765826791524887 0.0, 4.194812774658203 l-0.5412661656737328, 1.4884819090366364 -0.9472157806158066, 1.6237984597682953 l-3.2475969195365906, 2.8416472673416138 " fill="none" stroke="black" stroke-width="1" /></svg>