<?xml version="1.0" encoding="utf-8" ?>
<svg baseProfile="full" height="47.888631634414196" version="1.1" width="56.00762294605374" xmlns="http://www.w3.org/2000/svg" xmlns:ev="http://www.w3.org/2001/xml-events" xmlns:xlink="http://www.w3.org/1999/xlink"><defs /><rect fill="white" height="47.888631634414196" width="56.00762294605374" x="0" y="0" /><path d="M38.96445062942803, 24.891531728208065 m-2.706330716609955, -0.1353165414184332 l-3.3829134702682495, -0.9472157806158066 -3.3829134702682495, -2.029748111963272 l-1.3531653583049774, -1.4884819090366364 -1.3531653583049774, -3.7888631224632263 l0.0, -5.277345180511475 2.029748111963272, -2.706330716609955 l3.1122803688049316, -1.0825323313474655 8.524942398071289, -0.2706330828368664 l2.9769638180732727, 0.8118992298841476 1.6237984597682953, 2.435697764158249 l0.4059496149420738, 3.3829134702682495 -0.1353165414184332, 3.9241796731948853 l-2.571014165878296, 2.706330716609955 -2.571014165878296, 1.7591150104999542 l-2.30038121342659, 0.9472157806158066 -1.6237984597682953, 0.0 m-5.6832945346832275, -2.029748111963272 l0.1353165414184332, -0.8118992298841476 1.6237984597682953, -1.6237984597682953 l2.435697764158249, -1.2178488820791245 1.7591150104999542, -0.2706330828368664 l2.571014165878296, 0.2706330828368664 1.0825323313474655, 1.4884819090366364 l0.6765826791524887, 2.165064662694931 m-8.524942398071289, -8.118992447853088 l-0.5412661656737328, -0.8118992298841476 0.1353165414184332, -0.8118992298841476 l1.0825323313474655, -0.4059496149420738 2.571014165878296, 0.1353165414184332 l0.1353165414184332, 0.6765826791524887 -0.8118992298841476, 0.8118992298841476 l-1.7591150104999542, 0.1353165414184332 m7.577726244926453, 0.5412661656737328 l-0.6765826791524887, -0.5412661656737328 0.1353165414184332, -1.2178488820791245 l0.5412661656737328, -0.6765826791524887 0.8118992298841476, 0.0 l0.6765826791524887, 0.5412661656737328 -0.4059496149420738, 2.165064662694931 l-0.9472157806158066, 0.2706330828368664 m3.2475969195365906, -5.006712079048157 l0.0, -0.9472157806158066 2.165064662694931, -2.029748111963272 l2.30038121342659, -0.6765826791524887 1.7591150104999542, 0.1353165414184332 l0.6765826791524887, 1.4884819090366364 0.0, 1.6237984597682953 l-1.3531653583049774, 0.8118992298841476 -2.30038121342659, 0.1353165414184332 l-0.9472157806158066, -0.5412661656737328 -2.571014165878296, -0.2706330828368664 m-15.155452489852905, 2.9769638180732727 l-1.2178488820791245, 0.0 -2.9769638180732727, -2.435697764158249 l-0.5412661656737328, -3.2475969195365906 0.8118992298841476, -0.6765826791524887 l2.165064662694931, -0.1353165414184332 1.0825323313474655, 0.5412661656737328 l0.9472157806158066, 2.571014165878296 0.5412661656737328, 0.4059496149420738 m4.330129325389862, 14.884819984436035 l-20.974063873291016, -0.2706330828368664 -1.3531653583049774, 0.2706330828368664 l-2.165064662694931, 1.2178488820791245 -1.2178488820791245, 1.7591150104999542 l-0.2706330828368664, 2.9769638180732727 0.2706330828368664, 1.0825323313474655 l2.165064662694931, 1.8944315612316132 4.60076242685318, 1.7591150104999542 l7.7130430936813354, 0.4059496149420738 3.9241796731948853, -0.9472157806158066 l5.5479782819747925, -2.571014165878296 4.465445876121521, -3.1122803688049316 l5.006712079048157, -4.60076242685318 m-29.093055725097656, 9.066208004951477 l-0.1353165414184332, 4.871395528316498 1.0825323313474655, 4.194812774658203 l0.9472157806158066, 1.4884819090366364 2.165064662694931, -9.066208004951477 l7.8483593463897705, 8.660258650779724 -0.6765826791524887, -5.5479782819747925 l-0.6765826791524887, -2.165064662694931 0.2706330828368664, 0.8118992298841476 l3.3829134702682495, 2.9769638180732727 3.1122803688049316, 1.4884819090366364 l1.7591150104999542, 0.1353165414184332 0.4059496149420738, -0.8118992298841476 l0.0, -1.8944315612316132 -1.8944315612316132, -4.465445876121521 l0.2706330828368664, 0.8118992298841476 1.4884819090366364, 1.3531653583049774 l3.5182300209999084, 2.30038121342659 1.8944315612316132, 0.6765826791524887 l0.5412661656737328, -1.2178488820791245 -0.1353165414184332, -4.330129325389862 l-0.6765826791524887, -2.165064662694931 -1.0825323313474655, -1.0825323313474655 m-28.416473865509033, -1.4884819090366364 l-1.7591150104999542, -3.6535465717315674 -0.6765826791524887, -3.2475969195365906 l0.6765826791524887, -0.4059496149420738 1.3531653583049774, 0.9472157806158066 l1.8944315612316132, 2.9769638180732727 0.4059496149420738, 0.0 m2.706330716609955, 7.8483593463897705 l-0.4059496149420738, -0.6765826791524887 1.6237984597682953, -1.7591150104999542 l4.059496223926544, -0.8118992298841476 " fill="none" stroke="black" stroke-width="1" /></svg>