<?xml version="1.0" encoding="utf-8" ?>
<svg baseProfile="full" height="77.52295601181686" version="1.1" width="89.83675921335816" xmlns="http://www.w3.org/2000/svg" xmlns:ev="http://www.w3.org/2001/xml-events" xmlns:xlink="http://www.w3.org/1999/xlink"><defs /><rect fill="white" height="77.52295601181686" width="89.83675921335816" x="0" y="0" /><path d="M10.953927226364613, 17.584438575431705 m2.706330716609955, -2.30038121342659 l3.3829134702682495, -1.8944315612316132 4.736078977584839, -1.6237984597682953 l13.261021375656128, -1.7591150104999542 9.742791056632996, 0.2706330828368664 l9.607474207878113, 1.2178488820791245 10.148741006851196, 2.9769638180732727 l5.41266143321991, 3.1122803688049316 6.089244484901428, 4.736078977584839 l2.30038121342659, 1.2178488820791245 m-54.39724922180176, -13.125704526901245 l1.0825323313474655, -4.059496223926544 0.5412661656737328, 0.2706330828368664 l2.571014165878296, 5.41266143321991 1.8944315612316132, 1.2178488820791245 l1.7591150104999542, -0.1353165414184332 m22.597861289978027, -2.571014165878296 l3.1122803688049316, -5.5479782819747925 0.5412661656737328, 0.0 l0.2706330828368664, 0.5412661656737328 1.0825323313474655, 4.194812774658203 l1.3531653583049774, 0.5412661656737328 m14.61418628692627, 11.63722276687622 l0.4059496149420738, -0.5412661656737328 0.5412661656737328, 0.5412661656737328 l0.6765826791524887, 2.165064662694931 0.4059496149420738, 6.089244484901428 l-0.6765826791524887, 2.9769638180732727 -3.5182300209999084, 5.81861138343811 l-3.2475969195365906, 3.1122803688049316 -3.9241796731948853, 2.571014165878296 l-6.765826940536499, 2.165064662694931 -5.41266143321991, 0.1353165414184332 l-12.990387678146362, -2.571014165878296 -16.102668046951294, -4.465445876121521 l-7.1717768907547, -2.9769638180732727 -5.142028331756592, -3.5182300209999084 l-2.706330716609955, -2.435697764158249 -2.8416472673416138, -3.9241796731948853 l-1.6237984597682953, -4.059496223926544 -0.2706330828368664, -2.8416472673416138 l0.4059496149420738, -3.1122803688049316 1.2178488820791245, -2.165064662694931 l1.6237984597682953, -0.8118992298841476 m9.472157955169678, 23.409762382507324 l-2.571014165878296, 17.997100353240967 0.2706330828368664, 6.901143789291382 l0.6765826791524887, 2.435697764158249 1.4884819090366364, 2.30038121342659 l3.1122803688049316, 2.165064662694931 4.330129325389862, 1.6237984597682953 l5.006712079048157, 1.2178488820791245 6.765826940536499, 0.4059496149420738 l8.795575499534607, -2.9769638180732727 4.465445876121521, -2.8416472673416138 l1.4884819090366364, -2.029748111963272 3.3829134702682495, -7.307093143463135 l0.4059496149420738, -3.2475969195365906 -0.4059496149420738, -6.765826940536499 m-1.7591150104999542, 12.043172121047974 l6.224560737609863, 1.7591150104999542 2.8416472673416138, 0.2706330828368664 l6.765826940536499, -0.2706330828368664 4.465445876121521, -0.8118992298841476 l5.81861138343811, -1.8944315612316132 4.194812774658203, -3.1122803688049316 l1.3531653583049774, -1.8944315612316132 -0.2706330828368664, -0.5412661656737328 l-0.6765826791524887, 0.0 -3.9241796731948853, 0.0 l-7.7130430936813354, 1.4884819090366364 " fill="none" stroke="black" stroke-width="1" /></svg>