<?xml version="1.0" encoding="utf-8" ?>
<svg baseProfile="full" height="83.4768829215318" version="1.1" width="129.213873334229" xmlns="http://www.w3.org/2000/svg" xmlns:ev="http://www.w3.org/2001/xml-events" xmlns:xlink="http://www.w3.org/1999/xlink"><defs /><rect fill="white" height="83.4768829215318" width="129.213873334229" x="0" y="0" /><path d="M76.17649856954813, 15.284056160598993 m1.2178488820791245, -3.6535465717315674 l2.9769638180732727, -3.5182300209999084 5.142028331756592, -2.165064662694931 l2.571014165878296, -0.1353165414184332 1.7591150104999542, 0.2706330828368664 l2.8416472673416138, 1.2178488820791245 1.8944315612316132, 1.3531653583049774 l2.571014165878296, 3.1122803688049316 2.165064662694931, 5.277345180511475 l0.9472157806158066, 6.630510687828064 -0.2706330828368664, 7.7130430936813354 l-2.9769638180732727, 13.261021375656128 -2.9769638180732727, 7.442409992218018 l-2.571014165878296, 2.706330716609955 -3.3829134702682495, 1.7591150104999542 l-10.82532286643982, 2.9769638180732727 -5.6832945346832275, 0.8118992298841476 l-5.953927636146545, 0.1353165414184332 -11.63722276687622, -1.7591150104999542 l-9.607474207878113, -2.9769638180732727 -7.1717768907547, -3.7888631224632263 l-6.224560737609863, -4.330129325389862 -4.465445876121521, -5.5479782819747925 l-2.8416472673416138, -4.60076242685318 -3.3829134702682495, -9.472157955169678 l-0.4059496149420738, -2.8416472673416138 0.2706330828368664, -2.706330716609955 l3.3829134702682495, -9.742791056632996 3.2475969195365906, -3.9241796731948853 l5.142028331756592, -2.9769638180732727 6.359877586364746, -0.8118992298841476 l2.571014165878296, 1.0825323313474655 3.1122803688049316, 3.2475969195365906 l3.9241796731948853, 5.81861138343811 2.30038121342659, 2.029748111963272 l3.7888631224632263, 1.3531653583049774 2.9769638180732727, 0.2706330828368664 l2.571014165878296, -0.2706330828368664 17.049884796142578, -4.059496223926544 l2.029748111963272, -0.1353165414184332 m-26.79267406463623, 40.594964027404785 l-0.4059496149420738, 2.571014165878296 -0.9472157806158066, 2.435697764158249 l-1.2178488820791245, 1.8944315612316132 -1.7591150104999542, 1.4884819090366364 l-5.953927636146545, 3.1122803688049316 -4.194812774658203, 0.9472157806158066 l-4.736078977584839, 0.2706330828368664 -2.435697764158249, -0.5412661656737328 l-3.6535465717315674, -1.6237984597682953 -1.2178488820791245, -1.0825323313474655 l-2.029748111963272, -2.30038121342659 -5.006712079048157, -8.389625549316406 l-2.706330716609955, -3.1122803688049316 -3.1122803688049316, -1.4884819090366364 l-1.6237984597682953, 0.1353165414184332 -0.8118992298841476, 0.1353165414184332 l-2.9769638180732727, 2.571014165878296 -1.6237984597682953, 3.1122803688049316 l-0.4059496149420738, 5.953927636146545 0.5412661656737328, 1.7591150104999542 l3.3829134702682495, 3.7888631224632263 2.9769638180732727, 2.029748111963272 l8.118992447853088, 3.9241796731948853 9.20152485370636, 3.1122803688049316 l5.006712079048157, 2.435697764158249 2.706330716609955, 0.4059496149420738 m52.63813495635986, -19.620898962020874 l7.7130430936813354, -0.5412661656737328 2.30038121342659, -0.5412661656737328 l6.089244484901428, -2.706330716609955 6.901143789291382, -4.465445876121521 l3.2475969195365906, -1.3531653583049774 2.029748111963272, -0.2706330828368664 l2.706330716609955, 0.1353165414184332 2.571014165878296, 1.8944315612316132 l1.0825323313474655, 1.6237984597682953 0.0, 1.7591150104999542 l-5.142028331756592, 4.330129325389862 -11.095956563949585, 6.359877586364746 l-6.901143789291382, 2.8416472673416138 -13.802287578582764, 3.7888631224632263 l-4.60076242685318, 2.435697764158249 -4.194812774658203, 3.9241796731948853 m-27.73989200592041, -43.30129146575928 l0.9472157806158066, -0.1353165414184332 1.2178488820791245, -1.3531653583049774 l-0.4059496149420738, -0.6765826791524887 -1.2178488820791245, 0.0 l-0.9472157806158066, 1.4884819090366364 0.2706330828368664, 0.6765826791524887 l1.4884819090366364, -0.1353165414184332 m19.07963275909424, -3.3829134702682495 l0.0, 1.6237984597682953 0.8118992298841476, 0.8118992298841476 l0.9472157806158066, 0.2706330828368664 0.8118992298841476, -0.5412661656737328 l0.2706330828368664, -0.6765826791524887 -1.0825323313474655, -0.8118992298841476 l-1.0825323313474655, -0.2706330828368664 -1.2178488820791245, 0.2706330828368664 m-14.749503135681152, 7.577726244926453 l2.571014165878296, 0.4059496149420738 5.142028331756592, -0.4059496149420738 l0.1353165414184332, 1.3531653583049774 -2.571014165878296, 4.60076242685318 l-0.6765826791524887, 0.4059496149420738 -2.30038121342659, -2.029748111963272 l-1.7591150104999542, -2.8416472673416138 0.5412661656737328, -0.4059496149420738 " fill="none" stroke="black" stroke-width="1" /></svg>