<?xml version="1.0" encoding="utf-8" ?>
<svg baseProfile="full" height="38.82242325693369" version="1.1" width="45.45293324626982" xmlns="http://www.w3.org/2000/svg" xmlns:ev="http://www.w3.org/2001/xml-events" xmlns:xlink="http://www.w3.org/1999/xlink"><defs /><rect fill="white" height="38.82242325693369" width="45.45293324626982" x="0" y="0" /><path d="M9.059496074914932, 14.336841106414795 m-0.6765826791524887, 0.5412661656737328 l-0.6765826791524887, -0.1353165414184332 -2.706330716609955, -5.41266143321991 l0.0, -2.029748111963272 0.8118992298841476, -1.3531653583049774 l3.5182300209999084, -0.4059496149420738 2.9769638180732727, 0.0 l0.6765826791524887, 0.4059496149420738 1.7591150104999542, 2.029748111963272 l0.8118992298841476, 4.059496223926544 2.8416472673416138, -0.9472157806158066 l3.1122803688049316, -0.1353165414184332 1.4884819090366364, 0.2706330828368664 l2.30038121342659, 1.4884819090366364 0.4059496149420738, -0.6765826791524887 l-0.1353165414184332, -4.465445876121521 0.4059496149420738, -0.9472157806158066 l1.3531653583049774, -1.0825323313474655 4.60076242685318, -0.5412661656737328 l4.330129325389862, 1.0825323313474655 0.6765826791524887, 0.2706330828368664 l1.6237984597682953, 2.029748111963272 1.8944315612316132, 3.7888631224632263 l0.0, 5.5479782819747925 -1.2178488820791245, 2.8416472673416138 l-1.3531653583049774, 0.9472157806158066 -6.765826940536499, 0.4059496149420738 m-23.003811836242676, -6.359877586364746 l-0.2706330828368664, 5.277345180511475 0.8118992298841476, 4.194812774658203 l1.7591150104999542, 5.81861138343811 1.6237984597682953, 2.165064662694931 l1.3531653583049774, 0.5412661656737328 6.765826940536499, 0.2706330828368664 l6.359877586364746, -0.5412661656737328 2.165064662694931, -3.9241796731948853 l1.2178488820791245, -8.118992447853088 " fill="none" stroke="black" stroke-width="1" /></svg>