<?xml version="1.0" encoding="utf-8" ?>
<svg baseProfile="full" height="31.515329526737332" version="1.1" width="36.65735824033618" xmlns="http://www.w3.org/2000/svg" xmlns:ev="http://www.w3.org/2001/xml-events" xmlns:xlink="http://www.w3.org/1999/xlink"><defs /><rect fill="white" height="31.515329526737332" width="36.65735824033618" x="0" y="0" /><path d="M9.330129511654377, 24.620897630229592 m-1.0825323313474655, -3.7888631224632263 l0.0, -3.1122803688049316 1.4884819090366364, -3.7888631224632263 l2.029748111963272, -2.706330716609955 4.60076242685318, -2.9769638180732727 l5.142028331756592, 0.4059496149420738 2.029748111963272, 1.4884819090366364 l1.4884819090366364, 2.30038121342659 0.1353165414184332, 5.5479782819747925 l-1.3531653583049774, 2.435697764158249 -2.029748111963272, 2.30038121342659 l-4.465445876121521, 3.1122803688049316 -2.029748111963272, 0.6765826791524887 l-3.1122803688049316, -0.2706330828368664 -1.0825323313474655, -1.6237984597682953 l-0.4059496149420738, -5.6832945346832275 m1.6237984597682953, -9.607474207878113 l-0.4059496149420738, -0.9472157806158066 -2.165064662694931, -1.7591150104999542 l-2.029748111963272, -0.5412661656737328 -2.029748111963272, 0.4059496149420738 l-0.5412661656737328, 0.6765826791524887 -0.1353165414184332, 2.435697764158249 l1.8944315612316132, 2.029748111963272 1.2178488820791245, 0.6765826791524887 l1.4884819090366364, 0.1353165414184332 m15.155452489852905, -3.7888631224632263 l0.2706330828368664, -1.3531653583049774 2.706330716609955, -2.029748111963272 l3.2475969195365906, -0.2706330828368664 0.6765826791524887, 1.4884819090366364 l0.0, 1.2178488820791245 -2.165064662694931, 2.8416472673416138 l-2.571014165878296, 1.7591150104999542 -1.7591150104999542, 0.2706330828368664 m-7.1717768907547, 2.8416472673416138 l0.1353165414184332, -0.6765826791524887 0.8118992298841476, -0.5412661656737328 l0.8118992298841476, 0.0 0.0, 0.8118992298841476 l-1.8944315612316132, 0.8118992298841476 m-3.2475969195365906, -2.571014165878296 l0.9472157806158066, -0.4059496149420738 m5.277345180511475, -0.8118992298841476 " fill="none" stroke="black" stroke-width="1" /></svg>