<?xml version="1.0" encoding="utf-8" ?>
<svg baseProfile="full" height="64.39724896103144" version="1.1" width="48.835846139118075" xmlns="http://www.w3.org/2000/svg" xmlns:ev="http://www.w3.org/2001/xml-events" xmlns:xlink="http://www.w3.org/1999/xlink"><defs /><rect fill="white" height="64.39724896103144" width="48.835846139118075" x="0" y="0" /><path d="M16.772538190707564, 8.924179766327143 m-2.165064662694931, 1.0825323313474655 l-1.8944315612316132, 4.059496223926544 -2.571014165878296, 2.165064662694931 l0.4059496149420738, 1.4884819090366364 1.6237984597682953, 0.5412661656737328 l2.30038121342659, 0.0 m1.7591150104999542, -9.742791056632996 l0.1353165414184332, -1.4884819090366364 1.7591150104999542, -1.7591150104999542 l0.8118992298841476, -0.2706330828368664 0.8118992298841476, 0.2706330828368664 l0.8118992298841476, 3.2475969195365906 m0.2706330828368664, 0.0 l0.5412661656737328, -2.30038121342659 0.9472157806158066, -0.6765826791524887 l1.7591150104999542, -0.1353165414184332 1.0825323313474655, 0.9472157806158066 l0.0, 2.435697764158249 m0.1353165414184332, 0.1353165414184332 l14.072920083999634, 15.832035541534424 1.8944315612316132, 3.2475969195365906 l1.8944315612316132, 4.736078977584839 0.6765826791524887, 3.9241796731948853 m-29.22837257385254, -18.538366556167603 l0.4059496149420738, 0.6765826791524887 0.0, 6.765826940536499 m0.0, -0.2706330828368664 l-5.277345180511475, 1.2178488820791245 -2.8416472673416138, 1.4884819090366364 l-0.8118992298841476, 0.8118992298841476 -0.2706330828368664, 1.6237984597682953 l2.029748111963272, 1.4884819090366364 0.9472157806158066, -0.4059496149420738 l1.4884819090366364, -2.165064662694931 1.0825323313474655, -0.8118992298841476 m13.261021375656128, -2.30038121342659 l-3.1122803688049316, -0.1353165414184332 -2.435697764158249, 0.4059496149420738 l-2.8416472673416138, 1.2178488820791245 -1.3531653583049774, 1.7591150104999542 l-0.6765826791524887, 1.7591150104999542 0.1353165414184332, 1.4884819090366364 l1.8944315612316132, 1.2178488820791245 1.3531653583049774, -0.1353165414184332 l5.006712079048157, -3.6535465717315674 m-16.64393424987793, 2.029748111963272 l-0.9472157806158066, 1.7591150104999542 m2.9769638180732727, -2.706330716609955 l0.0, 2.435697764158249 m6.765826940536499, -0.2706330828368664 l-1.2178488820791245, 1.8944315612316132 m2.706330716609955, -1.4884819090366364 l0.1353165414184332, 1.6237984597682953 0.6765826791524887, 0.9472157806158066 m2.029748111963272, -2.9769638180732727 l0.6765826791524887, 1.7591150104999542 m-8.795575499534607, -6.224560737609863 l3.2475969195365906, 0.0 m5.81861138343811, 2.30038121342659 l-0.2706330828368664, 2.029748111963272 0.6765826791524887, 2.571014165878296 l2.571014165878296, 8.254309296607971 1.4884819090366364, 2.435697764158249 m13.802287578582764, -7.1717768907547 l-4.871395528316498, 1.8944315612316132 -1.7591150104999542, 2.435697764158249 l-0.4059496149420738, 1.7591150104999542 0.1353165414184332, 2.165064662694931 l1.6237984597682953, 5.142028331756592 0.0, 1.3531653583049774 l-5.41266143321991, 1.0825323313474655 -1.4884819090366364, 1.2178488820791245 l-0.8118992298841476, 1.8944315612316132 m3.2475969195365906, -1.0825323313474655 l-1.3531653583049774, 2.165064662694931 m3.1122803688049316, -1.6237984597682953 l0.0, 1.6237984597682953 m-1.4884819090366364, -1.0825323313474655 l1.8944315612316132, 0.1353165414184332 8.254309296607971, -1.2178488820791245 l2.435697764158249, -1.0825323313474655 " fill="none" stroke="black" stroke-width="1" /></svg>