<?xml version="1.0" encoding="utf-8" ?>
<svg baseProfile="full" height="39.09305606037378" version="1.1" width="38.41647408902645" xmlns="http://www.w3.org/2000/svg" xmlns:ev="http://www.w3.org/2001/xml-events" xmlns:xlink="http://www.w3.org/1999/xlink"><defs /><rect fill="white" height="39.09305606037378" width="38.41647408902645" x="0" y="0" /><path d="M22.997100707143545, 7.976963818073273 m-0.8118992298841476, -1.4884819090366364 l1.7591150104999542, -1.4884819090366364 2.706330716609955, 0.4059496149420738 l0.2706330828368664, 1.3531653583049774 0.2706330828368664, -0.6765826791524887 l2.029748111963272, -0.9472157806158066 3.5182300209999084, 0.0 l0.2706330828368664, 1.3531653583049774 -1.3531653583049774, 1.8944315612316132 m-8.389625549316406, -0.8118992298841476 l-2.165064662694931, 0.1353165414184332 -2.029748111963272, 1.0825323313474655 l-0.6765826791524887, 1.4884819090366364 0.0, 1.4884819090366364 l0.6765826791524887, 1.3531653583049774 1.3531653583049774, 1.2178488820791245 l3.5182300209999084, 1.7591150104999542 4.194812774658203, 0.1353165414184332 l2.9769638180732727, -0.9472157806158066 2.30038121342659, -3.3829134702682495 l0.0, -1.3531653583049774 -1.2178488820791245, -1.4884819090366364 m-12.719755172729492, 4.465445876121521 l-7.8483593463897705, -0.4059496149420738 -6.630510687828064, 0.2706330828368664 l0.0, 0.6765826791524887 2.706330716609955, 2.435697764158249 l-1.3531653583049774, 0.4059496149420738 1.2178488820791245, 1.2178488820791245 l2.9769638180732727, 0.4059496149420738 -2.029748111963272, 0.4059496149420738 l-0.8118992298841476, 2.165064662694931 0.6765826791524887, 0.2706330828368664 l2.029748111963272, 0.4059496149420738 4.194812774658203, -3.5182300209999084 l2.706330716609955, -0.5412661656737328 0.4059496149420738, 0.6765826791524887 l-0.6765826791524887, 10.419373512268066 0.1353165414184332, 0.6765826791524887 l0.6765826791524887, 0.2706330828368664 0.0, 0.8118992298841476 l-1.8944315612316132, 3.5182300209999084 " fill="none" stroke="black" stroke-width="1" /></svg>