<?xml version="1.0" encoding="utf-8" ?>
<svg baseProfile="full" height="197.95467656105757" version="1.1" width="229.48343236930668" xmlns="http://www.w3.org/2000/svg" xmlns:ev="http://www.w3.org/2001/xml-events" xmlns:xlink="http://www.w3.org/1999/xlink"><defs /><rect fill="white" height="197.95467656105757" width="229.48343236930668" x="0" y="0" /><path d="M170.35681385546923, 139.0986945386976 m-1.7591150104999542, -4.60076242685318 l-1.7591150104999542, -14.884819984436035 0.6765826791524887, -10.013424158096313 l1.3531653583049774, -6.224560737609863 1.2178488820791245, -4.194812774658203 l1.2178488820791245, -2.571014165878296 2.165064662694931, -3.5182300209999084 l2.8416472673416138, -3.1122803688049316 4.465445876121521, -2.435697764158249 l3.7888631224632263, -0.1353165414184332 5.142028331756592, 3.3829134702682495 l3.9241796731948853, 3.6535465717315674 5.81861138343811, 6.765826940536499 l2.9769638180732727, 6.359877586364746 0.8118992298841476, 4.059496223926544 l0.1353165414184332, 4.871395528316498 -1.0825323313474655, 4.465445876121521 l-2.571014165878296, 5.6832945346832275 -3.1122803688049316, 4.736078977584839 l-3.7888631224632263, 4.330129325389862 -6.224560737609863, 4.330129325389862 l-4.871395528316498, 1.6237984597682953 -4.871395528316498, 0.0 l-1.0825323313474655, -0.4059496149420738 -1.0825323313474655, -1.0825323313474655 m-5.006712079048157, -0.8118992298841476 l-5.142028331756592, 9.607474207878113 -1.3531653583049774, 5.41266143321991 l0.0, 8.389625549316406 0.8118992298841476, 5.81861138343811 l1.8944315612316132, 7.8483593463897705 2.435697764158249, 5.41266143321991 l2.9769638180732727, 1.7591150104999542 4.059496223926544, 1.3531653583049774 l2.9769638180732727, 0.4059496149420738 6.089244484901428, -0.4059496149420738 l4.736078977584839, -2.435697764158249 2.8416472673416138, -2.706330716609955 l2.029748111963272, -4.059496223926544 0.6765826791524887, -3.6535465717315674 l0.0, -3.9241796731948853 -2.9769638180732727, -20.974063873291016 l-1.6237984597682953, -6.359877586364746 -0.9472157806158066, -1.4884819090366364 m3.2475969195365906, 41.94812774658203 l2.435697764158249, 5.142028331756592 4.194812774658203, 6.495193839073181 m-28.010523319244385, -10.419373512268066 l-2.30038121342659, 2.30038121342659 -4.736078977584839, 2.9769638180732727 m30.852172374725342, -35.588250160217285 l9.87810730934143, -6.224560737609863 5.5479782819747925, -2.706330716609955 m-15.561401844024658, 14.884819984436035 l19.214948415756226, -2.571014165878296 4.60076242685318, -1.4884819090366364 l2.165064662694931, -1.2178488820791245 -0.1353165414184332, -0.6765826791524887 l-4.194812774658203, -2.435697764158249 -8.795575499534607, 3.3829134702682495 l-4.059496223926544, 1.0825323313474655 -8.795575499534607, 0.0 l-5.277345180511475, 2.435697764158249 m20.297482013702393, -14.749503135681152 l-5.5479782819747925, -3.5182300209999084 -1.4884819090366364, -0.5412661656737328 l-3.2475969195365906, 0.0 -2.571014165878296, 1.3531653583049774 l-1.3531653583049774, 1.2178488820791245 -4.871395528316498, 6.089244484901428 m10.148741006851196, -8.660258650779724 l1.3531653583049774, -5.5479782819747925 0.8118992298841476, -1.8944315612316132 l0.6765826791524887, -0.9472157806158066 0.2706330828368664, 0.1353165414184332 m0.1353165414184332, 7.307093143463135 l6.765826940536499, -0.4059496149420738 m-1.7591150104999542, 4.059496223926544 l4.465445876121521, -1.4884819090366364 1.4884819090366364, 0.2706330828368664 m2.30038121342659, 9.336841106414795 l0.6765826791524887, -1.8944315612316132 1.4884819090366364, -2.165064662694931 m0.8118992298841476, 5.81861138343811 l0.4059496149420738, -0.9472157806158066 2.435697764158249, -2.30038121342659 m-1.0825323313474655, 4.60076242685318 l2.435697764158249, -1.3531653583049774 m-48.713955879211426, -46.27825736999512 l0.0, -0.6765826791524887 0.6765826791524887, -0.4059496149420738 l2.571014165878296, 0.1353165414184332 -0.5412661656737328, 0.2706330828368664 m11.095956563949585, 0.8118992298841476 l-1.7591150104999542, 0.4059496149420738 1.0825323313474655, -0.8118992298841476 l1.7591150104999542, -0.2706330828368664 -0.9472157806158066, 0.9472157806158066 m-18.267732858657837, 16.779251098632812 l10.013424158096313, 3.6535465717315674 4.736078977584839, 0.8118992298841476 l3.3829134702682495, -1.2178488820791245 1.8944315612316132, -1.7591150104999542 l0.9472157806158066, -2.165064662694931 0.1353165414184332, -1.6237984597682953 m-26.65735960006714, 35.046985149383545 l-0.8118992298841476, 0.0 -3.3829134702682495, 2.571014165878296 m-41.54217720031738, -84.57283973693848 l-24.086344242095947, -38.15926551818848 -16.779251098632812, -24.086344242095947 l-16.914567947387695, -4.871395528316498 -57.3742151260376, 0.0 " fill="none" stroke="black" stroke-width="1" /></svg>