<?xml version="1.0" encoding="utf-8" ?>
<svg baseProfile="full" height="46.12951631657779" version="1.1" width="50.73027890175581" xmlns="http://www.w3.org/2000/svg" xmlns:ev="http://www.w3.org/2001/xml-events" xmlns:xlink="http://www.w3.org/1999/xlink"><defs /><rect fill="white" height="46.12951631657779" width="50.73027890175581" x="0" y="0" /><path d="M33.687106585130095, 15.284057399258018 m-1.3531653583049774, -1.0825323313474655 l-1.7591150104999542, -0.6765826791524887 -3.2475969195365906, -0.5412661656737328 l-3.9241796731948853, 0.0 -8.930891752243042, 3.2475969195365906 l-5.006712079048157, 2.9769638180732727 -3.1122803688049316, 3.6535465717315674 l-1.2178488820791245, 3.1122803688049316 -0.1353165414184332, 4.059496223926544 l2.029748111963272, 3.7888631224632263 1.7591150104999542, 1.3531653583049774 l4.465445876121521, 2.165064662694931 7.307093143463135, 2.571014165878296 l5.81861138343811, 1.2178488820791245 7.1717768907547, -0.1353165414184332 l3.2475969195365906, -1.2178488820791245 3.6535465717315674, -2.435697764158249 l2.9769638180732727, -3.2475969195365906 1.7591150104999542, -3.1122803688049316 l0.5412661656737328, -1.8944315612316132 0.0, -2.9769638180732727 l-0.9472157806158066, -2.165064662694931 -7.7130430936813354, -9.472157955169678 l-2.30038121342659, -0.9472157806158066 -2.165064662694931, 0.2706330828368664 m1.6237984597682953, 0.2706330828368664 l2.029748111963272, -1.7591150104999542 1.6237984597682953, -0.5412661656737328 l4.059496223926544, 0.0 2.9769638180732727, 1.3531653583049774 l0.4059496149420738, 0.6765826791524887 -0.9472157806158066, 3.5182300209999084 l-0.6765826791524887, 1.4884819090366364 -1.4884819090366364, 0.8118992298841476 m-28.28115701675415, -3.6535465717315674 l-0.5412661656737328, -3.5182300209999084 0.1353165414184332, -4.059496223926544 l1.6237984597682953, -2.8416472673416138 1.4884819090366364, -0.5412661656737328 l2.706330716609955, 0.1353165414184332 2.165064662694931, 0.8118992298841476 l1.4884819090366364, 1.0825323313474655 0.8118992298841476, 0.9472157806158066 l1.0825323313474655, 3.1122803688049316 0.4059496149420738, 3.9241796731948853 m-8.118992447853088, -2.029748111963272 l1.3531653583049774, -5.142028331756592 0.8118992298841476, -1.6237984597682953 l0.6765826791524887, -0.1353165414184332 1.4884819090366364, 1.3531653583049774 l1.0825323313474655, 2.029748111963272 0.4059496149420738, 4.330129325389862 m15.561401844024658, -0.9472157806158066 l1.6237984597682953, -0.5412661656737328 1.8944315612316132, 0.0 l0.8118992298841476, 0.4059496149420738 1.0825323313474655, 1.6237984597682953 l0.0, 1.3531653583049774 -1.2178488820791245, 1.3531653583049774 l-3.3829134702682495, 0.5412661656737328 m-6.495193839073181, 0.2706330828368664 l-0.1353165414184332, 0.6765826791524887 -0.4059496149420738, -0.6765826791524887 l0.6765826791524887, -0.2706330828368664 0.0, 0.5412661656737328 m-9.607474207878113, -0.8118992298841476 l0.5412661656737328, -0.6765826791524887 0.1353165414184332, 0.6765826791524887 l-1.0825323313474655, -0.9472157806158066 m1.2178488820791245, 7.1717768907547 l0.0, 2.571014165878296 2.30038121342659, 0.8118992298841476 l0.6765826791524887, -0.6765826791524887 0.4059496149420738, -2.165064662694931 l-2.8416472673416138, -0.9472157806158066 " fill="none" stroke="black" stroke-width="1" /></svg>