<?xml version="1.0" encoding="utf-8" ?>
<svg baseProfile="full" height="38.28115688636899" version="1.1" width="36.927991062402725" xmlns="http://www.w3.org/2000/svg" xmlns:ev="http://www.w3.org/2001/xml-events" xmlns:xlink="http://www.w3.org/1999/xlink"><defs /><rect fill="white" height="38.28115688636899" width="36.927991062402725" x="0" y="0" /><path d="M9.33012924157083, 12.983675487339497 m-1.7591150104999542, -0.8118992298841476 l-1.3531653583049774, -1.3531653583049774 -1.0825323313474655, -1.6237984597682953 l-0.1353165414184332, -1.4884819090366364 1.8944315612316132, -1.4884819090366364 l2.8416472673416138, -0.9472157806158066 1.4884819090366364, 0.0 l0.6765826791524887, 0.5412661656737328 3.1122803688049316, 6.089244484901428 l1.3531653583049774, 0.4059496149420738 3.9241796731948853, 0.1353165414184332 l3.2475969195365906, -0.4059496149420738 0.0, -0.8118992298841476 l-1.0825323313474655, -2.30038121342659 0.0, -1.4884819090366364 l0.6765826791524887, -1.6237984597682953 1.6237984597682953, -0.6765826791524887 l2.706330716609955, -0.1353165414184332 1.4884819090366364, 0.2706330828368664 l2.029748111963272, 1.2178488820791245 0.9472157806158066, 1.8944315612316132 l0.0, 2.029748111963272 -2.435697764158249, 2.706330716609955 l-0.4059496149420738, 1.2178488820791245 0.2706330828368664, 11.501905918121338 l-1.7591150104999542, 3.9241796731948853 -1.6237984597682953, 1.7591150104999542 l-2.571014165878296, 1.2178488820791245 -4.059496223926544, 0.5412661656737328 l-3.3829134702682495, -0.4059496149420738 -2.30038121342659, -0.8118992298841476 l-2.706330716609955, -2.30038121342659 -2.8416472673416138, -3.7888631224632263 l-1.6237984597682953, -3.7888631224632263 -0.1353165414184332, -3.6535465717315674 l0.5412661656737328, -2.435697764158249 1.8944315612316132, -2.165064662694931 l1.7591150104999542, -0.2706330828368664 m-0.9472157806158066, 15.155452489852905 l1.2178488820791245, -2.30038121342659 4.194812774658203, -3.1122803688049316 l2.435697764158249, -0.8118992298841476 2.029748111963272, 0.0 l3.2475969195365906, 0.5412661656737328 3.1122803688049316, 2.029748111963272 l1.6237984597682953, 2.029748111963272 0.2706330828368664, 2.9769638180732727 m-9.87810730934143, -8.118992447853088 l-0.5412661656737328, 1.0825323313474655 0.0, 0.9472157806158066 l1.2178488820791245, 1.2178488820791245 0.9472157806158066, 0.0 l1.0825323313474655, -0.5412661656737328 1.7591150104999542, -1.6237984597682953 l0.1353165414184332, -0.5412661656737328 -0.8118992298841476, -0.4059496149420738 l-1.8944315612316132, 0.0 -4.330129325389862, 1.2178488820791245 l0.2706330828368664, 0.8118992298841476 3.5182300209999084, -0.1353165414184332 l3.1122803688049316, -1.3531653583049774 -0.4059496149420738, -0.8118992298841476 l-0.8118992298841476, -0.2706330828368664 -2.029748111963272, 0.1353165414184332 l-2.706330716609955, 1.8944315612316132 0.0, 1.2178488820791245 l1.7591150104999542, 0.4059496149420738 2.571014165878296, -1.0825323313474655 l0.1353165414184332, -1.0825323313474655 -0.9472157806158066, -0.8118992298841476 l-1.8944315612316132, 0.0 -0.8118992298841476, 0.2706330828368664 l-0.6765826791524887, 1.0825323313474655 0.5412661656737328, 1.3531653583049774 l1.8944315612316132, 0.5412661656737328 0.9472157806158066, -0.2706330828368664 l1.0825323313474655, -1.2178488820791245 0.0, -1.4884819090366364 l-0.9472157806158066, -1.0825323313474655 -1.6237984597682953, -0.1353165414184332 l-0.8118992298841476, 0.5412661656737328 " fill="none" stroke="black" stroke-width="1" /></svg>