<?xml version="1.0" encoding="utf-8" ?>
<svg baseProfile="full" height="86.18321355432272" version="1.1" width="80.22928638383746" xmlns="http://www.w3.org/2000/svg" xmlns:ev="http://www.w3.org/2001/xml-events" xmlns:xlink="http://www.w3.org/1999/xlink"><defs /><rect fill="white" height="86.18321355432272" width="80.22928638383746" x="0" y="0" /><path d="M32.19862346537411, 14.066210482269526 m-5.953927636146545, 1.2178488820791245 l-2.9769638180732727, 1.6237984597682953 -0.9472157806158066, 0.9472157806158066 l-0.8118992298841476, 0.9472157806158066 -0.9472157806158066, 3.2475969195365906 l-0.1353165414184332, 4.60076242685318 1.4884819090366364, 3.7888631224632263 l1.6237984597682953, 2.571014165878296 3.1122803688049316, 2.435697764158249 l3.5182300209999084, 0.0 8.254309296607971, -1.8944315612316132 l2.706330716609955, -2.435697764158249 2.9769638180732727, -6.630510687828064 l1.2178488820791245, -4.871395528316498 0.0, -3.2475969195365906 l-0.5412661656737328, -0.8118992298841476 -1.2178488820791245, -0.5412661656737328 l-2.706330716609955, -0.5412661656737328 -3.9241796731948853, 0.0 l-9.336841106414795, 2.165064662694931 m-3.1122803688049316, 18.40304970741272 l-0.8118992298841476, 0.2706330828368664 -1.6237984597682953, 1.6237984597682953 l-2.435697764158249, 4.60076242685318 -6.630510687828064, 14.072920083999634 l-0.2706330828368664, 2.706330716609955 1.2178488820791245, 1.8944315612316132 l1.4884819090366364, 1.3531653583049774 5.81861138343811, 3.7888631224632263 l4.60076242685318, 1.0825323313474655 4.330129325389862, -0.2706330828368664 l6.359877586364746, -1.3531653583049774 2.9769638180732727, -1.6237984597682953 l5.006712079048157, -6.224560737609863 3.9241796731948853, -7.1717768907547 l2.029748111963272, -7.442409992218018 0.0, -2.8416472673416138 l-1.4884819090366364, -4.330129325389862 -1.8944315612316132, -0.4059496149420738 l-8.524942398071289, 1.2178488820791245 m-18.132416009902954, 4.059496223926544 l-0.2706330828368664, -3.2475969195365906 -1.8944315612316132, -8.389625549316406 l-1.0825323313474655, -2.8416472673416138 -1.3531653583049774, -2.029748111963272 l-3.3829134702682495, -2.8416472673416138 -2.571014165878296, -1.2178488820791245 l-1.2178488820791245, -0.4059496149420738 -2.571014165878296, 0.0 l-0.8118992298841476, 0.9472157806158066 -0.2706330828368664, 6.224560737609863 l2.8416472673416138, 8.524942398071289 1.6237984597682953, 3.2475969195365906 l6.359877586364746, 8.930891752243042 m35.046985149383545, -9.742791056632996 l3.9241796731948853, -5.953927636146545 4.465445876121521, -4.194812774658203 l12.31380581855774, -8.660258650779724 2.029748111963272, -0.9472157806158066 l1.3531653583049774, 0.2706330828368664 0.2706330828368664, 5.6832945346832275 l-0.5412661656737328, 2.435697764158249 -5.006712079048157, 9.607474207878113 l-3.7888631224632263, 2.706330716609955 -5.6832945346832275, 3.2475969195365906 l-6.765826940536499, 2.8416472673416138 m-11.366589069366455, 16.779251098632812 l1.0825323313474655, 1.8944315612316132 2.706330716609955, 10.419373512268066 l0.0, 1.6237984597682953 -0.9472157806158066, 2.706330716609955 l-1.7591150104999542, 3.1122803688049316 -1.7591150104999542, 0.4059496149420738 l-3.2475969195365906, -1.0825323313474655 -1.3531653583049774, -1.0825323313474655 l-1.7591150104999542, -1.7591150104999542 -2.435697764158249, -6.359877586364746 l-2.029748111963272, -1.3531653583049774 m-11.772539615631104, -6.224560737609863 l-3.3829134702682495, 2.706330716609955 -1.4884819090366364, 2.165064662694931 l-2.435697764158249, 6.224560737609863 -0.4059496149420738, 3.5182300209999084 l1.0825323313474655, 0.6765826791524887 1.8944315612316132, 0.2706330828368664 l4.736078977584839, -1.0825323313474655 0.8118992298841476, -0.5412661656737328 l1.7591150104999542, -4.736078977584839 2.165064662694931, -3.9241796731948853 m15.290769338607788, -56.96826457977295 l2.435697764158249, -3.2475969195365906 2.165064662694931, -1.7591150104999542 l2.435697764158249, -1.3531653583049774 2.571014165878296, -0.2706330828368664 l1.3531653583049774, 0.9472157806158066 0.4059496149420738, 3.1122803688049316 l-1.2178488820791245, 2.029748111963272 -0.6765826791524887, 2.30038121342659 l-1.4884819090366364, 1.2178488820791245 m-20.297482013702393, -0.1353165414184332 l-1.0825323313474655, -4.194812774658203 -1.4884819090366364, -0.2706330828368664 l-2.8416472673416138, 0.5412661656737328 -2.435697764158249, 3.3829134702682495 l0.1353165414184332, 2.9769638180732727 1.3531653583049774, 1.2178488820791245 " fill="none" stroke="black" stroke-width="1" /></svg>