<?xml version="1.0" encoding="utf-8" ?>
<svg baseProfile="full" height="78.06422114372253" version="1.1" width="75.08725775405765" xmlns="http://www.w3.org/2000/svg" xmlns:ev="http://www.w3.org/2001/xml-events" xmlns:xlink="http://www.w3.org/1999/xlink"><defs /><rect fill="white" height="78.06422114372253" width="75.08725775405765" x="0" y="0" /><path d="M42.61799870058894, 44.37711457721889 m-0.1353165414184332, 6.765826940536499 l-0.8118992298841476, 5.953927636146545 -1.8944315612316132, 6.630510687828064 l-0.8118992298841476, 0.6765826791524887 -1.6237984597682953, 0.1353165414184332 l-1.6237984597682953, -1.2178488820791245 -2.706330716609955, -4.059496223926544 l-0.6765826791524887, -1.6237984597682953 0.0, -1.4884819090366364 m10.55469036102295, -10.960639715194702 l0.0, 10.148741006851196 0.8118992298841476, 3.1122803688049316 l1.8944315612316132, 2.8416472673416138 2.30038121342659, 0.8118992298841476 l2.165064662694931, 0.0 2.9769638180732727, -1.8944315612316132 l1.0825323313474655, -2.029748111963272 0.0, -2.571014165878296 l-1.6237984597682953, -2.9769638180732727 m-12.449121475219727, -6.359877586364746 l5.142028331756592, 0.0 2.165064662694931, -0.8118992298841476 l-3.3829134702682495, -5.277345180511475 -1.3531653583049774, -1.2178488820791245 l-1.3531653583049774, 5.81861138343811 0.6765826791524887, -0.5412661656737328 l1.7591150104999542, -3.5182300209999084 0.2706330828368664, 3.2475969195365906 l-1.0825323313474655, 3.6535465717315674 1.3531653583049774, -3.7888631224632263 m-9.20152485370636, -11.63722276687622 l0.0, 3.7888631224632263 m16.102668046951294, -5.41266143321991 l0.4059496149420738, 3.9241796731948853 m-28.82242441177368, 37.34736442565918 l17.185200452804565, 0.0 5.142028331756592, -1.0825323313474655 l5.41266143321991, -2.029748111963272 4.059496223926544, -2.9769638180732727 l3.9241796731948853, -4.059496223926544 4.871395528316498, -6.224560737609863 l3.7888631224632263, -6.495193839073181 1.2178488820791245, -4.330129325389862 l0.1353165414184332, -11.63722276687622 -2.571014165878296, -11.772539615631104 l-2.30038121342659, -6.359877586364746 -2.30038121342659, -4.194812774658203 l-2.8416472673416138, -2.9769638180732727 -5.41266143321991, -2.435697764158249 l-5.142028331756592, -0.2706330828368664 -2.571014165878296, 0.4059496149420738 l-2.8416472673416138, 1.2178488820791245 -9.20152485370636, 5.277345180511475 l-10.82532286643982, 8.389625549316406 -6.224560737609863, 6.901143789291382 l-3.2475969195365906, 4.736078977584839 -4.194812774658203, 8.524942398071289 l-2.571014165878296, 8.524942398071289 -1.2178488820791245, 7.036460041999817 l0.0, 6.359877586364746 1.0825323313474655, 2.30038121342659 l1.6237984597682953, 2.165064662694931 2.165064662694931, 1.7591150104999542 l5.006712079048157, 2.435697764158249 6.359877586364746, 1.6237984597682953 l11.63722276687622, 0.4059496149420738 3.9241796731948853, -1.2178488820791245 l4.059496223926544, -1.8944315612316132 m-15.020135641098022, -52.773451805114746 l-4.465445876121521, -2.9769638180732727 -2.571014165878296, -1.0825323313474655 l-1.4884819090366364, -0.1353165414184332 -0.6765826791524887, 0.4059496149420738 l-1.3531653583049774, 6.630510687828064 0.0, 2.8416472673416138 l2.435697764158249, 3.6535465717315674 1.6237984597682953, 1.2178488820791245 m44.24850940704346, -13.937603235244751 l4.736078977584839, 0.0 0.6765826791524887, 0.1353165414184332 l0.2706330828368664, 0.6765826791524887 0.8118992298841476, 4.330129325389862 l-0.2706330828368664, 1.3531653583049774 -1.0825323313474655, 1.3531653583049774 l-2.571014165878296, 0.6765826791524887 " fill="none" stroke="black" stroke-width="1" /></svg>