<?xml version="1.0" encoding="utf-8" ?>
<svg baseProfile="full" height="95.11410338804126" version="1.1" width="121.36551283299923" xmlns="http://www.w3.org/2000/svg" xmlns:ev="http://www.w3.org/2001/xml-events" xmlns:xlink="http://www.w3.org/1999/xlink"><defs /><rect fill="white" height="95.11410338804126" width="121.36551283299923" x="0" y="0" /><path d="M36.122804302722216, 79.42409696057439 m-2.8416472673416138, 0.0 l-2.571014165878296, -0.6765826791524887 -8.660258650779724, -3.9241796731948853 l-6.630510687828064, -5.142028331756592 -3.9241796731948853, -4.60076242685318 l-1.3531653583049774, -2.706330716609955 -0.8118992298841476, -2.571014165878296 l0.0, -8.389625549316406 1.4884819090366364, -3.1122803688049316 l2.165064662694931, -1.7591150104999542 1.8944315612316132, -0.4059496149420738 l-0.5412661656737328, -1.8944315612316132 -4.736078977584839, -6.359877586364746 l-1.3531653583049774, -2.571014165878296 -2.9769638180732727, -8.660258650779724 l-0.2706330828368664, -9.742791056632996 0.4059496149420738, -2.165064662694931 l0.9472157806158066, -1.7591150104999542 2.9769638180732727, -3.2475969195365906 l3.9241796731948853, -2.8416472673416138 5.006712079048157, -1.6237984597682953 l2.30038121342659, -0.2706330828368664 3.6535465717315674, 0.0 l4.736078977584839, 3.5182300209999084 3.2475969195365906, 3.2475969195365906 l2.30038121342659, 3.2475969195365906 0.6765826791524887, 1.7591150104999542 l1.8944315612316132, 8.795575499534607 1.2178488820791245, 10.55469036102295 l5.5479782819747925, -2.029748111963272 8.254309296607971, -1.0825323313474655 l23.951027393341064, -0.4059496149420738 1.8944315612316132, 0.2706330828368664 l2.706330716609955, 1.3531653583049774 1.2178488820791245, 0.8118992298841476 l1.8944315612316132, 2.571014165878296 -2.30038121342659, -0.2706330828368664 l0.0, -0.6765826791524887 2.706330716609955, -7.1717768907547 l4.736078977584839, -9.20152485370636 2.571014165878296, -3.7888631224632263 l3.3829134702682495, -3.6535465717315674 2.706330716609955, -2.165064662694931 l7.1717768907547, -3.9241796731948853 4.736078977584839, -1.3531653583049774 l2.9769638180732727, 0.0 1.0825323313474655, 0.4059496149420738 l1.3531653583049774, 1.8944315612316132 0.9472157806158066, 3.2475969195365906 l0.5412661656737328, 5.6832945346832275 0.0, 9.607474207878113 l-2.029748111963272, 9.87810730934143 -2.9769638180732727, 7.442409992218018 l2.029748111963272, 9.607474207878113 0.5412661656737328, 6.495193839073181 l-0.5412661656737328, 10.419373512268066 -1.3531653583049774, 2.165064662694931 l-2.029748111963272, 1.8944315612316132 -3.6535465717315674, 2.165064662694931 l-8.389625549316406, 3.6535465717315674 -16.914567947387695, 6.089244484901428 l-13.66697072982788, 3.1122803688049316 -6.901143789291382, 0.6765826791524887 l-13.396337032318115, 0.2706330828368664 -3.6535465717315674, -0.5412661656737328 l-6.359877586364746, -2.8416472673416138 -3.7888631224632263, -3.1122803688049316 l-7.8483593463897705, -8.389625549316406 -2.8416472673416138, -3.2475969195365906 l-0.9472157806158066, -2.165064662694931 m3.5182300209999084, -34.37040090560913 l-1.2178488820791245, -0.2706330828368664 -4.059496223926544, -3.3829134702682495 l-1.0825323313474655, -3.6535465717315674 0.0, -1.4884819090366364 l0.8118992298841476, -1.2178488820791245 1.3531653583049774, -0.2706330828368664 l1.7591150104999542, 0.9472157806158066 1.8944315612316132, 3.5182300209999084 l0.9472157806158066, 5.41266143321991 m63.734092712402344, 2.571014165878296 l2.435697764158249, -5.953927636146545 1.6237984597682953, -2.435697764158249 l5.277345180511475, -5.142028331756592 3.1122803688049316, -1.6237984597682953 l2.9769638180732727, -0.9472157806158066 6.630510687828064, -0.2706330828368664 l0.9472157806158066, 0.4059496149420738 0.4059496149420738, 0.6765826791524887 l0.0, 1.7591150104999542 -2.30038121342659, 3.3829134702682495 l-3.6535465717315674, 3.5182300209999084 -8.118992447853088, 6.359877586364746 l-2.9769638180732727, 3.2475969195365906 m-46.27825736999512, 12.043172121047974 l-0.8118992298841476, 1.4884819090366364 0.2706330828368664, -0.8118992298841476 l1.3531653583049774, -0.9472157806158066 1.7591150104999542, 0.0 l0.6765826791524887, 1.0825323313474655 0.0, 1.0825323313474655 l-1.0825323313474655, 0.5412661656737328 -0.6765826791524887, 0.0 l-0.4059496149420738, -1.3531653583049774 0.5412661656737328, -0.6765826791524887 l0.9472157806158066, -0.1353165414184332 0.1353165414184332, 2.571014165878296 l-1.3531653583049774, 0.5412661656737328 -0.5412661656737328, -0.6765826791524887 l0.4059496149420738, 2.029748111963272 m18.40304970741272, 1.7591150104999542 l-1.6237984597682953, -0.1353165414184332 -0.6765826791524887, -0.6765826791524887 l-0.2706330828368664, -2.706330716609955 0.4059496149420738, -0.6765826791524887 l2.029748111963272, -0.1353165414184332 0.1353165414184332, 1.2178488820791245 l-0.6765826791524887, 0.6765826791524887 -1.0825323313474655, 0.0 l0.0, -2.165064662694931 1.3531653583049774, -1.0825323313474655 l2.435697764158249, -0.5412661656737328 0.5412661656737328, 1.8944315612316132 l-0.1353165414184332, 1.3531653583049774 -1.2178488820791245, 1.2178488820791245 l-0.9472157806158066, 0.4059496149420738 -0.8118992298841476, 0.0 l0.8118992298841476, -0.4059496149420738 m-20.16216516494751, 17.049884796142578 l7.036460041999817, 1.2178488820791245 5.81861138343811, 0.0 l2.571014165878296, -1.3531653583049774 1.7591150104999542, -1.4884819090366364 " fill="none" stroke="black" stroke-width="1" /></svg>