<?xml version="1.0" encoding="utf-8" ?>
<svg baseProfile="full" height="34.221660271286964" version="1.1" width="46.264832289889455" xmlns="http://www.w3.org/2000/svg" xmlns:ev="http://www.w3.org/2001/xml-events" xmlns:xlink="http://www.w3.org/1999/xlink"><defs /><rect fill="white" height="34.221660271286964" width="46.264832289889455" x="0" y="0" /><path d="M24.485581275075674, 10.412661284208298 m-10.419373512268066, 4.059496223926544 l-2.029748111963272, 2.029748111963272 -0.2706330828368664, 1.8944315612316132 l0.1353165414184332, 1.3531653583049774 1.0825323313474655, 2.165064662694931 l2.571014165878296, 3.3829134702682495 4.465445876121521, 3.1122803688049316 l2.435697764158249, 0.8118992298841476 2.435697764158249, 0.0 l2.435697764158249, -1.0825323313474655 2.706330716609955, -2.029748111963272 l1.6237984597682953, -2.029748111963272 2.165064662694931, -4.059496223926544 l0.5412661656737328, -2.30038121342659 -0.1353165414184332, -2.9769638180732727 l-1.6237984597682953, -2.706330716609955 -5.142028331756592, -4.059496223926544 l-6.224560737609863, -2.30038121342659 -4.871395528316498, -0.4059496149420738 l-7.036460041999817, 1.2178488820791245 -1.3531653583049774, 0.8118992298841476 m4.059496223926544, 10.013424158096313 l-3.5182300209999084, -2.435697764158249 -3.1122803688049316, -3.1122803688049316 l-0.4059496149420738, -0.6765826791524887 0.2706330828368664, -1.3531653583049774 l2.029748111963272, -1.2178488820791245 2.029748111963272, -0.4059496149420738 l3.5182300209999084, 0.2706330828368664 0.1353165414184332, 3.3829134702682495 l1.6237984597682953, 3.1122803688049316 m19.75621461868286, -0.9472157806158066 l2.8416472673416138, -0.2706330828368664 2.706330716609955, -1.6237984597682953 l1.3531653583049774, -2.706330716609955 -0.1353165414184332, -2.706330716609955 l-3.3829134702682495, -1.6237984597682953 -4.059496223926544, 0.0 l-4.194812774658203, 2.435697764158249 -0.5412661656737328, 1.7591150104999542 m-5.81861138343811, 11.501905918121338 l1.2178488820791245, 0.2706330828368664 m-6.901143789291382, -5.142028331756592 l0.0, 0.0 m1.2178488820791245, 0.2706330828368664 l0.4059496149420738, 0.0 " fill="none" stroke="black" stroke-width="1" /></svg>