<?xml version="1.0" encoding="utf-8" ?>
<svg baseProfile="full" height="63.991300240159035" version="1.1" width="43.829135028645396" xmlns="http://www.w3.org/2000/svg" xmlns:ev="http://www.w3.org/2001/xml-events" xmlns:xlink="http://www.w3.org/1999/xlink"><defs /><rect fill="white" height="63.991300240159035" width="43.829135028645396" x="0" y="0" /><path d="M11.765826232731342, 9.330129669979215 m-2.029748111963272, 0.9472157806158066 l-1.8944315612316132, 3.9241796731948853 -0.4059496149420738, 9.87810730934143 l1.0825323313474655, 5.142028331756592 1.2178488820791245, 1.2178488820791245 l3.6535465717315674, 0.9472157806158066 8.660258650779724, 0.0 l2.8416472673416138, -0.5412661656737328 6.359877586364746, -2.706330716609955 l2.165064662694931, -2.165064662694931 0.5412661656737328, -2.435697764158249 l0.0, -4.059496223926544 -0.6765826791524887, -2.30038121342659 l-1.4884819090366364, -2.435697764158249 -3.1122803688049316, -2.9769638180732727 l-7.8483593463897705, -3.9241796731948853 -5.142028331756592, 0.1353165414184332 l-3.2475969195365906, 1.7591150104999542 m0.0, 0.1353165414184332 l-2.571014165878296, -4.736078977584839 -2.9769638180732727, -0.1353165414184332 l-1.4884819090366364, 0.4059496149420738 -0.4059496149420738, 2.029748111963272 l1.0825323313474655, 2.165064662694931 1.2178488820791245, 1.2178488820791245 l1.6237984597682953, 0.8118992298841476 m16.237984895706177, -2.029748111963272 l0.5412661656737328, -0.9472157806158066 0.4059496149420738, -2.706330716609955 l5.953927636146545, -0.9472157806158066 0.6765826791524887, 0.5412661656737328 l0.5412661656737328, 1.6237984597682953 0.1353165414184332, 2.165064662694931 l-1.0825323313474655, 2.706330716609955 -1.0825323313474655, 0.2706330828368664 m-14.61418628692627, 18.40304970741272 l-0.6765826791524887, -0.4059496149420738 -0.8118992298841476, 0.2706330828368664 l-4.059496223926544, 2.029748111963272 -2.706330716609955, 10.148741006851196 l0.0, 2.571014165878296 1.3531653583049774, 1.2178488820791245 l5.81861138343811, 8.389625549316406 1.6237984597682953, 0.9472157806158066 l6.765826940536499, 1.4884819090366364 4.194812774658203, 1.6237984597682953 l1.8944315612316132, 0.0 1.3531653583049774, -0.2706330828368664 l1.4884819090366364, -0.9472157806158066 2.029748111963272, -1.7591150104999542 l1.6237984597682953, -2.165064662694931 1.4884819090366364, -4.194812774658203 l0.8118992298841476, -4.465445876121521 0.0, -3.3829134702682495 l-0.8118992298841476, -5.142028331756592 -2.029748111963272, -4.330129325389862 l-2.165064662694931, -2.30038121342659 -2.435697764158249, -1.7591150104999542 l-3.6535465717315674, -1.6237984597682953 -0.6765826791524887, 1.3531653583049774 l-1.8944315612316132, 10.148741006851196 " fill="none" stroke="black" stroke-width="1" /></svg>