<?xml version="1.0" encoding="utf-8" ?>
<svg baseProfile="full" height="38.416473623365164" version="1.1" width="73.46345767378807" xmlns="http://www.w3.org/2000/svg" xmlns:ev="http://www.w3.org/2001/xml-events" xmlns:xlink="http://www.w3.org/1999/xlink"><defs /><rect fill="white" height="38.416473623365164" width="73.46345767378807" x="0" y="0" /><path d="M17.719755619764328, 8.247596882283688 m18.67368221282959, -2.706330716609955 l7.577726244926453, -0.5412661656737328 12.990387678146362, 0.0 l5.277345180511475, 1.8944315612316132 2.8416472673416138, 4.330129325389862 l1.0825323313474655, 5.277345180511475 2.029748111963272, -1.3531653583049774 m-1.2178488820791245, 0.2706330828368664 l1.4884819090366364, 12.043172121047974 -0.2706330828368664, 0.8118992298841476 l-1.4884819090366364, 1.4884819090366364 -2.8416472673416138, 1.8944315612316132 l-10.284056663513184, 1.7591150104999542 -20.297482013702393, 0.0 l-11.63722276687622, -1.8944315612316132 -2.30038121342659, 0.0 l-4.736078977584839, -1.2178488820791245 -1.4884819090366364, -1.0825323313474655 l-0.5412661656737328, -0.9472157806158066 -0.6765826791524887, -2.30038121342659 l-1.3531653583049774, -9.472157955169678 0.0, -3.9241796731948853 l0.9472157806158066, -2.571014165878296 2.9769638180732727, -2.571014165878296 l6.359877586364746, -2.165064662694931 0.0, 1.6237984597682953 m-11.366589069366455, 9.87810730934143 l-3.3829134702682495, 0.1353165414184332 -0.8118992298841476, 1.4884819090366364 l-0.2706330828368664, 3.1122803688049316 1.0825323313474655, 1.2178488820791245 l3.7888631224632263, 0.2706330828368664 3.2475969195365906, -1.0825323313474655 l0.5412661656737328, -1.6237984597682953 0.0, -1.8944315612316132 l-0.5412661656737328, -1.3531653583049774 -0.8118992298841476, -0.5412661656737328 l-3.9241796731948853, -0.5412661656737328 -0.6765826791524887, 0.9472157806158066 " fill="none" stroke="black" stroke-width="1" /></svg>