<?xml version="1.0" encoding="utf-8" ?>
<svg baseProfile="full" height="65.61509711667895" version="1.1" width="52.48939371667802" xmlns="http://www.w3.org/2000/svg" xmlns:ev="http://www.w3.org/2001/xml-events" xmlns:xlink="http://www.w3.org/1999/xlink"><defs /><rect fill="white" height="65.61509711667895" width="52.48939371667802" x="0" y="0" /><path d="M11.089243637397885, 14.201524704694748 m-0.5412661656737328, -0.6765826791524887 l-0.4059496149420738, -2.029748111963272 0.2706330828368664, -3.6535465717315674 l1.7591150104999542, -2.029748111963272 1.7591150104999542, -0.8118992298841476 l0.9472157806158066, 0.1353165414184332 1.3531653583049774, 1.7591150104999542 l0.8118992298841476, 2.029748111963272 0.1353165414184332, 2.571014165878296 l1.4884819090366364, 0.5412661656737328 5.277345180511475, 0.1353165414184332 l2.435697764158249, 2.571014165878296 0.4059496149420738, -2.8416472673416138 l0.8118992298841476, -1.0825323313474655 2.9769638180732727, -1.2178488820791245 l3.2475969195365906, 0.1353165414184332 1.4884819090366364, 2.571014165878296 l-3.1122803688049316, 5.6832945346832275 m0.2706330828368664, 0.1353165414184332 l2.8416472673416138, 0.8118992298841476 2.029748111963272, 1.7591150104999542 l0.2706330828368664, 3.9241796731948853 -1.3531653583049774, 2.571014165878296 l-1.4884819090366364, 2.029748111963272 -2.435697764158249, 2.029748111963272 l-5.953927636146545, 0.6765826791524887 -1.4884819090366364, 0.5412661656737328 m-13.396337032318115, -19.07963275909424 l-1.0825323313474655, 0.2706330828368664 -1.8944315612316132, 2.30038121342659 l-0.2706330828368664, 2.165064662694931 0.4059496149420738, 3.1122803688049316 l2.029748111963272, 3.7888631224632263 4.465445876121521, 2.9769638180732727 l1.7591150104999542, 0.6765826791524887 -7.307093143463135, 6.359877586364746 l-3.2475969195365906, 5.006712079048157 -1.3531653583049774, 10.960639715194702 l1.4884819090366364, 4.871395528316498 0.9472157806158066, 1.0825323313474655 l5.81861138343811, 3.1122803688049316 10.284056663513184, 0.5412661656737328 l7.307093143463135, -0.6765826791524887 7.983676195144653, -3.7888631224632263 l2.435697764158249, -1.6237984597682953 4.736078977584839, -5.277345180511475 l1.3531653583049774, -2.9769638180732727 0.1353165414184332, -2.8416472673416138 l-0.6765826791524887, -2.571014165878296 -2.029748111963272, -1.7591150104999542 l-8.389625549316406, -2.706330716609955 -4.194812774658203, -1.8944315612316132 l-8.389625549316406, -1.0825323313474655 " fill="none" stroke="black" stroke-width="1" /></svg>