<?xml version="1.0" encoding="utf-8" ?>
<svg baseProfile="full" height="43.287869431078434" version="1.1" width="39.09305593930185" xmlns="http://www.w3.org/2000/svg" xmlns:ev="http://www.w3.org/2001/xml-events" xmlns:xlink="http://www.w3.org/1999/xlink"><defs /><rect fill="white" height="43.287869431078434" width="39.09305593930185" x="0" y="0" /><path d="M27.19191238284111, 8.788863774389029 m-1.7591150104999542, -1.3531653583049774 l-2.706330716609955, -0.8118992298841476 -5.006712079048157, 0.0 l-3.3829134702682495, 1.3531653583049774 -2.8416472673416138, 2.029748111963272 l-2.571014165878296, 2.571014165878296 -2.029748111963272, 2.706330716609955 l-1.2178488820791245, 2.9769638180732727 -0.6765826791524887, 6.089244484901428 l0.1353165414184332, 3.5182300209999084 0.8118992298841476, 2.8416472673416138 l1.6237984597682953, 2.435697764158249 2.029748111963272, 2.029748111963272 l2.8416472673416138, 1.7591150104999542 3.3829134702682495, 1.0825323313474655 l5.953927636146545, 0.2706330828368664 2.9769638180732727, -0.8118992298841476 l2.435697764158249, -1.4884819090366364 2.029748111963272, -1.6237984597682953 l3.2475969195365906, -4.330129325389862 1.4884819090366364, -5.006712079048157 l-0.1353165414184332, -7.983676195144653 -1.7591150104999542, -3.9241796731948853 l-1.4884819090366364, -1.7591150104999542 -3.3829134702682495, -2.30038121342659 l-3.2475969195365906, -1.0825323313474655 -3.7888631224632263, -0.2706330828368664 m-6.765826940536499, 0.2706330828368664 l-0.8118992298841476, -0.5412661656737328 -2.165064662694931, -0.2706330828368664 l-1.6237984597682953, 0.2706330828368664 -0.8118992298841476, 2.165064662694931 l0.0, 2.9769638180732727 0.6765826791524887, 1.2178488820791245 m19.35026526451111, -5.006712079048157 l0.1353165414184332, -1.0825323313474655 2.029748111963272, -2.029748111963272 l1.8944315612316132, -0.6765826791524887 1.3531653583049774, 0.2706330828368664 l0.6765826791524887, 1.6237984597682953 0.0, 4.194812774658203 l-0.4059496149420738, 2.029748111963272 m-3.2475969195365906, -4.194812774658203 l0.4059496149420738, -0.6765826791524887 0.5412661656737328, 3.5182300209999084 m-10.419373512268066, 15.020135641098022 l-1.0825323313474655, 1.3531653583049774 0.8118992298841476, -0.5412661656737328 l0.1353165414184332, -1.3531653583049774 -0.1353165414184332, -0.8118992298841476 l-0.9472157806158066, -0.1353165414184332 -0.8118992298841476, 1.8944315612316132 l0.0, 1.8944315612316132 0.6765826791524887, 0.6765826791524887 l0.9472157806158066, 0.0 0.9472157806158066, -1.8944315612316132 l-0.5412661656737328, -1.7591150104999542 -1.8944315612316132, 0.1353165414184332 l-0.2706330828368664, 0.6765826791524887 0.0, 1.4884819090366364 l1.7591150104999542, 0.2706330828368664 0.5412661656737328, -2.165064662694931 l-0.6765826791524887, 0.1353165414184332 -0.2706330828368664, 1.6237984597682953 l-0.2706330828368664, 7.307093143463135 -2.706330716609955, -0.1353165414184332 l-1.2178488820791245, -0.9472157806158066 m4.871395528316498, -6.224560737609863 l1.0825323313474655, 4.60076242685318 1.3531653583049774, 3.1122803688049316 l1.3531653583049774, -1.3531653583049774 m-10.013424158096313, -19.75621461868286 l-1.0825323313474655, 0.2706330828368664 -1.4884819090366364, 2.8416472673416138 l-0.5412661656737328, 1.8944315612316132 -0.1353165414184332, 3.1122803688049316 l0.2706330828368664, 0.8118992298841476 0.8118992298841476, 0.5412661656737328 l2.30038121342659, -0.1353165414184332 1.2178488820791245, -1.4884819090366364 l0.8118992298841476, -1.8944315612316132 0.5412661656737328, -2.029748111963272 l-0.2706330828368664, -3.9241796731948853 -0.5412661656737328, -0.6765826791524887 l-2.165064662694931, 0.0 -0.2706330828368664, 3.9241796731948853 l0.9472157806158066, 0.0 0.8118992298841476, -1.2178488820791245 l0.1353165414184332, -1.8944315612316132 -0.9472157806158066, 0.2706330828368664 l-0.4059496149420738, 1.0825323313474655 0.1353165414184332, 2.165064662694931 l0.8118992298841476, 0.2706330828368664 m7.983676195144653, -3.9241796731948853 l-1.0825323313474655, 1.4884819090366364 -0.1353165414184332, 1.4884819090366364 l0.0, 4.871395528316498 1.2178488820791245, 2.30038121342659 l0.9472157806158066, 0.6765826791524887 1.0825323313474655, 0.0 l1.0825323313474655, -0.6765826791524887 0.8118992298841476, -1.2178488820791245 l0.4059496149420738, -1.7591150104999542 -0.1353165414184332, -3.7888631224632263 " fill="none" stroke="black" stroke-width="1" /></svg>