<?xml version="1.0" encoding="utf-8" ?>
<svg baseProfile="full" height="76.30510550923645" version="1.1" width="94.97878821566701" xmlns="http://www.w3.org/2000/svg" xmlns:ev="http://www.w3.org/2001/xml-events" xmlns:xlink="http://www.w3.org/1999/xlink"><defs /><rect fill="white" height="76.30510550923645" width="94.97878821566701" x="0" y="0" /><path d="M59.39724958501756, 16.63722245953977 m0.4059496149420738, -3.5182300209999084 l2.435697764158249, -3.9241796731948853 1.8944315612316132, -1.8944315612316132 l4.871395528316498, -2.165064662694931 6.901143789291382, -0.1353165414184332 l3.5182300209999084, 2.30038121342659 7.7130430936813354, 10.148741006851196 l2.706330716609955, 5.5479782819747925 0.1353165414184332, 5.41266143321991 l-0.9472157806158066, 2.029748111963272 -1.4884819090366364, 1.7591150104999542 l-1.7591150104999542, 0.9472157806158066 -2.165064662694931, 0.4059496149420738 l-7.442409992218018, -0.1353165414184332 -3.1122803688049316, -1.0825323313474655 l-4.194812774658203, -2.435697764158249 -5.142028331756592, -4.736078977584839 l-2.165064662694931, -3.5182300209999084 -0.2706330828368664, -1.6237984597682953 m-23.409762382507324, -5.41266143321991 l-1.4884819090366364, -1.7591150104999542 -2.571014165878296, -1.0825323313474655 l-5.5479782819747925, -0.9472157806158066 -13.125704526901245, 0.0 l-1.8944315612316132, 0.5412661656737328 -2.706330716609955, 1.8944315612316132 l-3.5182300209999084, 3.5182300209999084 -1.4884819090366364, 2.30038121342659 l-0.5412661656737328, 5.81861138343811 1.8944315612316132, 2.435697764158249 l3.1122803688049316, 1.2178488820791245 5.5479782819747925, 0.8118992298841476 l7.8483593463897705, 0.0 5.41266143321991, -1.2178488820791245 l2.9769638180732727, -1.2178488820791245 2.435697764158249, -3.1122803688049316 l2.9769638180732727, -7.1717768907547 m-16.779251098632812, 14.208236932754517 l-4.465445876121521, 3.2475969195365906 -2.30038121342659, 2.706330716609955 l-2.029748111963272, 2.9769638180732727 -1.6237984597682953, 5.006712079048157 l0.1353165414184332, 5.81861138343811 2.706330716609955, 5.006712079048157 l2.30038121342659, 2.9769638180732727 2.435697764158249, 2.30038121342659 l5.277345180511475, 2.8416472673416138 8.930891752243042, 3.6535465717315674 l2.706330716609955, 0.4059496149420738 7.577726244926453, 2.435697764158249 l7.7130430936813354, 1.0825323313474655 14.884819984436035, -0.2706330828368664 l3.1122803688049316, -1.4884819090366364 4.330129325389862, -4.330129325389862 l1.2178488820791245, -1.7591150104999542 2.571014165878296, -5.142028331756592 l1.0825323313474655, -5.277345180511475 0.1353165414184332, -6.630510687828064 l-0.4059496149420738, -2.435697764158249 -1.0825323313474655, -3.7888631224632263 l-3.6535465717315674, -6.495193839073181 -1.3531653583049774, -1.6237984597682953 l-4.194812774658203, -2.9769638180732727 -7.7130430936813354, -3.1122803688049316 l-1.4884819090366364, -0.1353165414184332 -4.871395528316498, -1.7591150104999542 l-10.82532286643982, -0.1353165414184332 -2.30038121342659, 0.4059496149420738 l-3.7888631224632263, 1.4884819090366364 -4.059496223926544, 0.6765826791524887 m7.577726244926453, 21.1093807220459 l-4.330129325389862, -0.1353165414184332 -2.029748111963272, 1.2178488820791245 l-0.6765826791524887, 1.4884819090366364 -0.1353165414184332, 3.3829134702682495 l0.2706330828368664, 0.6765826791524887 3.1122803688049316, 2.30038121342659 l5.142028331756592, 2.435697764158249 8.524942398071289, 0.1353165414184332 l2.029748111963272, -0.9472157806158066 2.571014165878296, -2.30038121342659 l0.2706330828368664, -3.9241796731948853 -2.029748111963272, -2.8416472673416138 l-4.059496223926544, -1.7591150104999542 -5.006712079048157, -1.0825323313474655 l-7.307093143463135, 0.2706330828368664 m5.006712079048157, -9.066208004951477 l-2.30038121342659, -0.4059496149420738 -1.6237984597682953, -0.9472157806158066 l-0.1353165414184332, -0.6765826791524887 1.6237984597682953, -0.9472157806158066 l0.0, 3.2475969195365906 m14.749503135681152, 2.571014165878296 l2.165064662694931, -2.706330716609955 0.2706330828368664, 2.435697764158249 " fill="none" stroke="black" stroke-width="1" /></svg>