<?xml version="1.0" encoding="utf-8" ?>
<svg baseProfile="full" height="41.12280398607254" version="1.1" width="53.165975343436" xmlns="http://www.w3.org/2000/svg" xmlns:ev="http://www.w3.org/2001/xml-events" xmlns:xlink="http://www.w3.org/1999/xlink"><defs /><rect fill="white" height="41.12280398607254" width="53.165975343436" x="0" y="0" /><path d="M18.26102027669549, 12.848359551280737 m-2.9769638180732727, -6.359877586364746 l-2.029748111963272, -1.2178488820791245 -2.165064662694931, -0.2706330828368664 l-0.9472157806158066, 0.6765826791524887 -3.9241796731948853, 5.006712079048157 l-0.8118992298841476, 2.8416472673416138 0.0, 2.029748111963272 l0.6765826791524887, 0.5412661656737328 m28.145840167999268, -3.7888631224632263 l5.953927636146545, -4.736078977584839 2.029748111963272, -1.0825323313474655 l3.9241796731948853, -0.9472157806158066 1.4884819090366364, 0.1353165414184332 l0.5412661656737328, 2.9769638180732727 0.0, 3.1122803688049316 l-0.6765826791524887, 4.871395528316498 -1.0825323313474655, 2.30038121342659 l-0.9472157806158066, 0.6765826791524887 m-12.990387678146362, 2.706330716609955 l-0.6765826791524887, 1.3531653583049774 0.2706330828368664, 2.706330716609955 l1.4884819090366364, 0.6765826791524887 2.30038121342659, 0.0 l0.6765826791524887, -1.8944315612316132 -0.1353165414184332, -3.7888631224632263 l-0.6765826791524887, -0.1353165414184332 -1.3531653583049774, 0.6765826791524887 m-17.185200452804565, -1.0825323313474655 l-2.029748111963272, 0.8118992298841476 -0.4059496149420738, 0.6765826791524887 l0.1353165414184332, 1.3531653583049774 2.571014165878296, 2.029748111963272 l0.8118992298841476, 0.1353165414184332 0.9472157806158066, -0.9472157806158066 l0.4059496149420738, -3.6535465717315674 -0.6765826791524887, -0.5412661656737328 l-2.029748111963272, -0.2706330828368664 m1.0825323313474655, -8.254309296607971 l10.55469036102295, -0.5412661656737328 3.3829134702682495, 0.0 l1.0825323313474655, 0.4059496149420738 m11.772539615631104, 7.983676195144653 l0.0, 7.442409992218018 -0.9472157806158066, 2.165064662694931 l-2.8416472673416138, 3.5182300209999084 -5.5479782819747925, 1.4884819090366364 l-9.87810730934143, 1.3531653583049774 -4.736078977584839, 0.1353165414184332 l-9.20152485370636, -2.9769638180732727 -2.029748111963272, -1.7591150104999542 l-4.194812774658203, -9.472157955169678 -0.4059496149420738, -6.224560737609863 " fill="none" stroke="black" stroke-width="1" /></svg>