<?xml version="1.0" encoding="utf-8" ?>
<svg baseProfile="full" height="86.72447775490582" version="1.1" width="148.42882111668587" xmlns="http://www.w3.org/2000/svg" xmlns:ev="http://www.w3.org/2001/xml-events" xmlns:xlink="http://www.w3.org/1999/xlink"><defs /><rect fill="white" height="86.72447775490582" width="148.42882111668587" x="0" y="0" /><path d="M95.52676510997117, 16.3665899541229 m-1.4884819090366364, -0.5412661656737328 l-3.3829134702682495, -0.1353165414184332 -4.60076242685318, 0.1353165414184332 l-3.3829134702682495, 0.6765826791524887 -6.224560737609863, 3.3829134702682495 l-1.3531653583049774, 3.3829134702682495 0.1353165414184332, 2.706330716609955 l1.6237984597682953, 2.8416472673416138 1.6237984597682953, 1.2178488820791245 l4.059496223926544, 0.6765826791524887 3.7888631224632263, -0.4059496149420738 l3.1122803688049316, -1.0825323313474655 2.9769638180732727, -1.6237984597682953 l2.30038121342659, -1.8944315612316132 1.6237984597682953, -3.1122803688049316 l0.0, -2.165064662694931 m-1.6237984597682953, -0.1353165414184332 l-0.4059496149420738, -3.1122803688049316 -1.3531653583049774, -2.30038121342659 m4.194812774658203, 3.6535465717315674 l3.7888631224632263, -0.5412661656737328 3.9241796731948853, 0.0 l-7.577726244926453, 3.9241796731948853 -2.9769638180732727, 1.0825323313474655 m-12.58443832397461, 7.8483593463897705 l0.2706330828368664, 3.2475969195365906 1.2178488820791245, 2.571014165878296 l0.4059496149420738, 2.571014165878296 1.0825323313474655, 11.772539615631104 m0.1353165414184332, -0.8118992298841476 l-3.1122803688049316, -6.089244484901428 -3.3829134702682495, -4.330129325389862 l-2.9769638180732727, -5.81861138343811 -2.571014165878296, -3.3829134702682495 l0.0, -1.3531653583049774 1.0825323313474655, -2.706330716609955 l2.706330716609955, -4.871395528316498 0.5412661656737328, 0.0 m2.029748111963272, 22.056596279144287 l-6.224560737609863, 9.472157955169678 -0.8118992298841476, 5.41266143321991 l-0.2706330828368664, 0.8118992298841476 -0.1353165414184332, -0.8118992298841476 m8.524942398071289, -12.719755172729492 l0.6765826791524887, 5.6832945346832275 1.4884819090366364, 4.330129325389862 l2.9769638180732727, 5.277345180511475 1.0825323313474655, 1.3531653583049774 l0.6765826791524887, 0.1353165414184332 1.2178488820791245, -0.2706330828368664 l2.9769638180732727, -2.165064662694931 m-18.67368221282959, -15.561401844024658 l-2.435697764158249, 1.0825323313474655 -1.3531653583049774, 1.4884819090366364 l6.224560737609863, -0.4059496149420738 m-12.178488969802856, 0.2706330828368664 l3.6535465717315674, -2.029748111963272 21.1093807220459, -4.059496223926544 l-12.58443832397461, -0.2706330828368664 -16.37330174446106, 1.0825323313474655 l-10.82532286643982, 0.0 12.719755172729492, -3.3829134702682495 l8.118992447853088, -2.706330716609955 -10.284056663513184, -8.524942398071289 l-21.78596258163452, -7.983676195144653 -23.003811836242676, -3.9241796731948853 l5.41266143321991, 0.1353165414184332 33.69381904602051, -3.7888631224632263 l-0.8118992298841476, -3.9241796731948853 -27.604575157165527, -2.706330716609955 l8.930891752243042, 12.043172121047974 21.65064573287964, 10.013424158096313 l-5.6832945346832275, 0.1353165414184332 -44.24850940704346, -1.8944315612316132 l2.706330716609955, 4.60076242685318 43.30129146575928, 13.937603235244751 l8.524942398071289, 0.4059496149420738 -1.4884819090366364, -0.2706330828368664 l-6.495193839073181, 0.8118992298841476 -6.089244484901428, 9.87810730934143 l62.92219161987305, 27.063307762145996 35.046985149383545, 0.0 l-1.2178488820791245, -2.029748111963272 -1.8944315612316132, -10.013424158096313 l3.1122803688049316, -5.142028331756592 0.0, -19.75621461868286 l-10.148741006851196, -6.765826940536499 -17.049884796142578, -2.571014165878296 l-17.997100353240967, -0.4059496149420738 -0.4059496149420738, -2.706330716609955 " fill="none" stroke="black" stroke-width="1" /></svg>