<?xml version="1.0" encoding="utf-8" ?>
<svg baseProfile="full" height="83.61219744198024" version="1.1" width="62.09686839953065" xmlns="http://www.w3.org/2000/svg" xmlns:ev="http://www.w3.org/2001/xml-events" xmlns:xlink="http://www.w3.org/1999/xlink"><defs /><rect fill="white" height="83.61219744198024" width="62.09686839953065" x="0" y="0" /><path d="M22.72646757774055, 8.788862833753228 m-3.9241796731948853, 2.435697764158249 l-2.706330716609955, 3.2475969195365906 -2.30038121342659, 4.059496223926544 l-1.2178488820791245, 4.465445876121521 -0.1353165414184332, 2.706330716609955 l1.6237984597682953, 5.5479782819747925 1.8944315612316132, 2.8416472673416138 l3.2475969195365906, 2.30038121342659 2.706330716609955, 1.2178488820791245 l3.7888631224632263, 0.2706330828368664 3.2475969195365906, -0.8118992298841476 l3.3829134702682495, -1.6237984597682953 3.2475969195365906, -4.60076242685318 l0.9472157806158066, -2.571014165878296 0.5412661656737328, -3.3829134702682495 l0.0, -5.006712079048157 -0.9472157806158066, -2.9769638180732727 l-8.118992447853088, -7.577726244926453 -1.4884819090366364, -0.8118992298841476 m0.9472157806158066, 0.9472157806158066 l2.435697764158249, -2.706330716609955 2.706330716609955, -1.6237984597682953 l2.165064662694931, -0.1353165414184332 3.2475969195365906, 1.8944315612316132 l1.0825323313474655, 1.7591150104999542 0.1353165414184332, 3.6535465717315674 l-3.1122803688049316, 7.1717768907547 m-15.967352390289307, -10.82532286643982 l-0.8118992298841476, 0.0 -4.059496223926544, -2.435697764158249 l-1.8944315612316132, -0.5412661656737328 -1.4884819090366364, 0.0 l-2.571014165878296, 0.9472157806158066 -2.435697764158249, 2.029748111963272 l-1.7591150104999542, 2.9769638180732727 -0.1353165414184332, 1.6237984597682953 l0.4059496149420738, 0.8118992298841476 2.30038121342659, 2.30038121342659 m5.81861138343811, 23.6803936958313 l-2.30038121342659, 1.2178488820791245 -1.4884819090366364, 2.8416472673416138 l-1.0825323313474655, 4.059496223926544 -0.6765826791524887, 6.089244484901428 l0.0, 6.495193839073181 1.2178488820791245, 5.5479782819747925 l2.9769638180732727, 5.953927636146545 3.2475969195365906, 3.2475969195365906 l4.465445876121521, 2.9769638180732727 14.884819984436035, 0.1353165414184332 l4.059496223926544, -0.6765826791524887 1.6237984597682953, -0.5412661656737328 l2.8416472673416138, -2.165064662694931 2.30038121342659, -3.1122803688049316 l1.0825323313474655, -2.435697764158249 0.5412661656737328, -2.571014165878296 l0.1353165414184332, -6.495193839073181 -1.4884819090366364, -9.472157955169678 l-1.8944315612316132, -6.089244484901428 -1.0825323313474655, -2.029748111963272 l-2.706330716609955, -2.435697764158249 -4.059496223926544, -2.8416472673416138 l-2.165064662694931, -0.8118992298841476 -6.359877586364746, 0.1353165414184332 m18.267732858657837, 10.960639715194702 l1.3531653583049774, -0.6765826791524887 3.5182300209999084, -0.2706330828368664 l2.435697764158249, -1.7591150104999542 3.2475969195365906, -4.465445876121521 l0.5412661656737328, -1.4884819090366364 0.1353165414184332, -2.571014165878296 " fill="none" stroke="black" stroke-width="1" /></svg>