<?xml version="1.0" encoding="utf-8" ?>
<svg baseProfile="full" height="55.46635778620839" version="1.1" width="49.78306301869452" xmlns="http://www.w3.org/2000/svg" xmlns:ev="http://www.w3.org/2001/xml-events" xmlns:xlink="http://www.w3.org/1999/xlink"><defs /><rect fill="white" height="55.46635778620839" width="49.78306301869452" x="0" y="0" /><path d="M12.713042721152306, 16.366588678210974 m-2.9769638180732727, 0.2706330828368664 l-1.6237984597682953, 3.3829134702682495 -2.029748111963272, 6.089244484901428 l-1.0825323313474655, 7.036460041999817 0.1353165414184332, 3.2475969195365906 l1.3531653583049774, 4.194812774658203 2.8416472673416138, 3.5182300209999084 l2.30038121342659, 1.3531653583049774 7.307093143463135, 2.30038121342659 l10.284056663513184, 0.1353165414184332 5.41266143321991, -3.2475969195365906 l4.059496223926544, -4.194812774658203 2.30038121342659, -4.194812774658203 l0.9472157806158066, -2.9769638180732727 0.1353165414184332, -5.41266143321991 l-0.8118992298841476, -2.571014165878296 -2.8416472673416138, -3.7888631224632263 l-2.8416472673416138, -2.165064662694931 -2.706330716609955, -1.2178488820791245 l-11.63722276687622, -4.059496223926544 -5.81861138343811, -0.9472157806158066 l-1.3531653583049774, 1.2178488820791245 m-1.2178488820791245, 18.538366556167603 l4.059496223926544, -0.4059496149420738 0.5412661656737328, 0.8118992298841476 l-0.2706330828368664, 2.165064662694931 -0.4059496149420738, 0.6765826791524887 l-0.9472157806158066, 0.2706330828368664 -1.3531653583049774, -0.1353165414184332 l-0.6765826791524887, -0.6765826791524887 -0.2706330828368664, -2.706330716609955 m15.155452489852905, -14.208236932754517 l-3.2475969195365906, 1.7591150104999542 -4.330129325389862, 3.7888631224632263 m0.0, 0.0 l3.3829134702682495, 0.9472157806158066 1.6237984597682953, 1.2178488820791245 m-13.125704526901245, -4.871395528316498 l0.8118992298841476, -0.1353165414184332 6.630510687828064, 1.6237984597682953 l-1.6237984597682953, 1.2178488820791245 -1.3531653583049774, 2.30038121342659 m-0.4059496149420738, 14.478869438171387 l1.4884819090366364, 0.1353165414184332 5.277345180511475, -1.4884819090366364 l6.495193839073181, -3.7888631224632263 2.435697764158249, -2.30038121342659 l0.8118992298841476, -2.165064662694931 0.0, -1.4884819090366364 l-0.9472157806158066, 12.855072021484375 -0.8118992298841476, 3.1122803688049316 l-1.6237984597682953, 3.2475969195365906 -0.6765826791524887, 0.4059496149420738 l-3.5182300209999084, 0.9472157806158066 -2.8416472673416138, -0.1353165414184332 l-2.165064662694931, -0.6765826791524887 -2.706330716609955, -3.1122803688049316 l-1.3531653583049774, -2.435697764158249 -0.9472157806158066, -3.1122803688049316 l0.0, -2.9769638180732727 m3.9241796731948853, 6.359877586364746 l-1.4884819090366364, -1.2178488820791245 -0.2706330828368664, -0.8118992298841476 l10.148741006851196, 7.577726244926453 -7.8483593463897705, -10.419373512268066 l2.435697764158249, 0.8118992298841476 -0.2706330828368664, -0.8118992298841476 l1.4884819090366364, 0.4059496149420738 2.706330716609955, 1.7591150104999542 l-1.8944315612316132, -1.7591150104999542 3.3829134702682495, 1.6237984597682953 l3.1122803688049316, 0.0 0.1353165414184332, -0.6765826791524887 l-0.8118992298841476, -1.4884819090366364 0.6765826791524887, -0.1353165414184332 l1.8944315612316132, 0.8118992298841476 -2.9769638180732727, -3.3829134702682495 m-3.9241796731948853, -22.327229976654053 l0.0, 0.6765826791524887 8.118992447853088, -6.495193839073181 l5.5479782819747925, -3.5182300209999084 4.059496223926544, 3.6535465717315674 l0.6765826791524887, 2.9769638180732727 0.0, 4.194812774658203 l-4.194812774658203, 3.6535465717315674 -1.8944315612316132, 2.435697764158249 m-1.7591150104999542, -3.1122803688049316 l-2.571014165878296, -0.8118992298841476 m-0.4059496149420738, 0.0 l0.5412661656737328, -2.8416472673416138 2.029748111963272, -3.6535465717315674 l2.571014165878296, -1.3531653583049774 1.7591150104999542, 0.0 l1.4884819090366364, 0.5412661656737328 0.5412661656737328, 1.2178488820791245 l0.1353165414184332, 6.630510687828064 " fill="none" stroke="black" stroke-width="1" /></svg>