<?xml version="1.0" encoding="utf-8" ?>
<svg baseProfile="full" height="35.84545978344977" version="1.1" width="47.88863152265549" xmlns="http://www.w3.org/2000/svg" xmlns:ev="http://www.w3.org/2001/xml-events" xmlns:xlink="http://www.w3.org/1999/xlink"><defs /><rect fill="white" height="35.84545978344977" width="47.88863152265549" x="0" y="0" /><path d="M12.57772603072226, 12.577726114541292 m-1.3531653583049774, -1.3531653583049774 l-1.2178488820791245, -3.1122803688049316 0.0, -0.9472157806158066 l0.4059496149420738, -1.3531653583049774 0.9472157806158066, -0.5412661656737328 l2.435697764158249, -0.2706330828368664 5.5479782819747925, 0.4059496149420738 l3.3829134702682495, 1.2178488820791245 0.2706330828368664, 1.2178488820791245 l-0.1353165414184332, 2.30038121342659 0.9472157806158066, 0.1353165414184332 l11.095956563949585, -0.4059496149420738 -0.8118992298841476, -0.5412661656737328 l0.6765826791524887, -2.30038121342659 2.435697764158249, -1.4884819090366364 l2.435697764158249, 0.0 1.6237984597682953, 0.6765826791524887 l1.0825323313474655, 1.3531653583049774 0.5412661656737328, 1.7591150104999542 l0.0, 1.8944315612316132 -4.059496223926544, 11.772539615631104 l-2.9769638180732727, 4.60076242685318 -1.7591150104999542, 1.3531653583049774 l-2.571014165878296, 0.9472157806158066 -4.736078977584839, 0.6765826791524887 l-7.1717768907547, 0.2706330828368664 -3.9241796731948853, -0.4059496149420738 l-6.359877586364746, -1.4884819090366364 -2.8416472673416138, -1.0825323313474655 l-1.4884819090366364, -1.8944315612316132 0.0, -2.30038121342659 l0.8118992298841476, -2.706330716609955 2.9769638180732727, -5.81861138343811 l1.2178488820791245, -3.3829134702682495 1.7591150104999542, -2.165064662694931 l0.8118992298841476, -0.4059496149420738 m11.095956563949585, 12.043172121047974 l-2.029748111963272, 2.30038121342659 0.0, 1.2178488820791245 l2.8416472673416138, 2.8416472673416138 2.30038121342659, 1.0825323313474655 l1.3531653583049774, 0.1353165414184332 1.8944315612316132, -0.5412661656737328 l2.165064662694931, -1.6237984597682953 m-6.359877586364746, -12.855072021484375 l-0.2706330828368664, 1.2178488820791245 m6.495193839073181, 2.029748111963272 l-1.2178488820791245, 0.4059496149420738 m-3.1122803688049316, 2.8416472673416138 l0.0, 0.0 m0.9472157806158066, 0.8118992298841476 l0.0, 0.0 m0.4059496149420738, 0.4059496149420738 l-1.0825323313474655, 0.5412661656737328 -1.8944315612316132, 5.277345180511475 " fill="none" stroke="black" stroke-width="1" /></svg>