<?xml version="1.0" encoding="utf-8" ?>
<svg baseProfile="full" height="73.73408956453204" version="1.1" width="98.76765003427863" xmlns="http://www.w3.org/2000/svg" xmlns:ev="http://www.w3.org/2001/xml-events" xmlns:xlink="http://www.w3.org/1999/xlink"><defs /><rect fill="white" height="73.73408956453204" width="98.76765003427863" x="0" y="0" /><path d="M10.818611085414886, 27.868495574221015 m-2.9769638180732727, -1.6237984597682953 l-1.4884819090366364, -2.165064662694931 -1.3531653583049774, -4.059496223926544 l0.0, -4.330129325389862 1.0825323313474655, -2.571014165878296 l1.4884819090366364, -1.8944315612316132 6.359877586364746, -3.9241796731948853 l2.571014165878296, -0.9472157806158066 3.5182300209999084, -0.8118992298841476 l5.277345180511475, 0.2706330828368664 1.8944315612316132, 0.8118992298841476 l2.8416472673416138, 2.571014165878296 1.7591150104999542, 3.1122803688049316 l0.6765826791524887, 3.6535465717315674 -1.3531653583049774, 5.006712079048157 l-1.4884819090366364, 2.029748111963272 7.307093143463135, -3.1122803688049316 l5.142028331756592, -0.9472157806158066 3.5182300209999084, -0.1353165414184332 l4.330129325389862, 0.2706330828368664 4.194812774658203, 0.8118992298841476 l2.706330716609955, 1.0825323313474655 2.30038121342659, 1.4884819090366364 l0.8118992298841476, -0.4059496149420738 4.871395528316498, -8.930891752243042 l6.495193839073181, -6.359877586364746 1.3531653583049774, -0.8118992298841476 l4.059496223926544, -0.9472157806158066 2.30038121342659, 0.0 l2.571014165878296, 0.6765826791524887 1.4884819090366364, 0.5412661656737328 l3.5182300209999084, 2.706330716609955 3.2475969195365906, 3.2475969195365906 l1.7591150104999542, 2.571014165878296 1.2178488820791245, 3.3829134702682495 l0.6765826791524887, 3.5182300209999084 0.2706330828368664, 3.3829134702682495 l-0.6765826791524887, 3.9241796731948853 -1.0825323313474655, 2.8416472673416138 l-6.901143789291382, 7.577726244926453 -3.5182300209999084, 2.571014165878296 l-4.736078977584839, 2.571014165878296 -8.660258650779724, 3.1122803688049316 m-28.145840167999268, 1.4884819090366364 l-2.9769638180732727, -1.7591150104999542 -1.8944315612316132, -0.5412661656737328 l-1.8944315612316132, 0.1353165414184332 -1.0825323313474655, 0.4059496149420738 l-0.4059496149420738, 0.6765826791524887 0.4059496149420738, 2.029748111963272 l1.8944315612316132, 1.6237984597682953 1.7591150104999542, 0.9472157806158066 l2.30038121342659, 0.4059496149420738 3.2475969195365906, -0.8118992298841476 l2.30038121342659, -2.029748111963272 0.4059496149420738, -1.7591150104999542 l-1.0825323313474655, -1.6237984597682953 -2.435697764158249, -1.0825323313474655 l-0.9472157806158066, 0.0 -1.7591150104999542, 0.4059496149420738 l-1.7591150104999542, 1.4884819090366364 -0.1353165414184332, 1.2178488820791245 l0.8118992298841476, 1.3531653583049774 1.3531653583049774, 0.9472157806158066 l2.9769638180732727, 0.5412661656737328 1.3531653583049774, -1.0825323313474655 l0.4059496149420738, -1.3531653583049774 -0.4059496149420738, -1.6237984597682953 l-0.6765826791524887, -0.9472157806158066 -0.9472157806158066, -0.4059496149420738 l-0.9472157806158066, -0.2706330828368664 -1.8944315612316132, 0.4059496149420738 l-2.029748111963272, 1.0825323313474655 -0.4059496149420738, 0.6765826791524887 l0.0, 0.6765826791524887 0.9472157806158066, 1.2178488820791245 l1.7591150104999542, 0.6765826791524887 2.029748111963272, 0.1353165414184332 l1.3531653583049774, -0.6765826791524887 0.6765826791524887, -0.9472157806158066 l0.1353165414184332, -0.9472157806158066 -0.4059496149420738, -0.8118992298841476 l-2.30038121342659, -0.5412661656737328 -2.8416472673416138, 1.2178488820791245 l-0.8118992298841476, 0.8118992298841476 -0.1353165414184332, 1.7591150104999542 l1.2178488820791245, 0.9472157806158066 2.30038121342659, 0.0 l0.8118992298841476, -0.6765826791524887 0.4059496149420738, -1.3531653583049774 l-1.0825323313474655, -2.165064662694931 -1.6237984597682953, -1.2178488820791245 l-2.029748111963272, -0.4059496149420738 -2.571014165878296, 1.0825323313474655 l-0.9472157806158066, 1.2178488820791245 0.9472157806158066, 0.9472157806158066 l0.8118992298841476, 0.0 m1.0825323313474655, -17.861783504486084 l-0.9472157806158066, 7.7130430936813354 m14.749503135681152, -7.983676195144653 l0.0, 3.7888631224632263 -0.6765826791524887, 3.3829134702682495 m-37.88863182067871, -8.524942398071289 l-0.6765826791524887, 0.0 -1.8944315612316132, 4.194812774658203 l-1.2178488820791245, 5.006712079048157 0.4059496149420738, 4.736078977584839 l2.8416472673416138, 6.765826940536499 4.194812774658203, 6.765826940536499 l2.706330716609955, 2.435697764158249 13.396337032318115, 7.983676195144653 l2.706330716609955, 0.9472157806158066 2.571014165878296, 0.2706330828368664 l4.465445876121521, -0.4059496149420738 10.284056663513184, -2.435697764158249 l3.5182300209999084, -1.2178488820791245 8.254309296607971, -4.465445876121521 l7.1717768907547, -6.089244484901428 1.4884819090366364, -1.8944315612316132 l2.9769638180732727, -5.81861138343811 0.6765826791524887, -2.571014165878296 l-0.2706330828368664, -1.6237984597682953 m-46.00762367248535, 14.3435537815094 l-1.3531653583049774, 2.571014165878296 -0.9472157806158066, 3.3829134702682495 l0.6765826791524887, 0.0 4.465445876121521, -2.8416472673416138 l2.165064662694931, -0.8118992298841476 " fill="none" stroke="black" stroke-width="1" /></svg>