<?xml version="1.0" encoding="utf-8" ?>
<svg baseProfile="full" height="37.06330821849406" version="1.1" width="43.01723494194448" xmlns="http://www.w3.org/2000/svg" xmlns:ev="http://www.w3.org/2001/xml-events" xmlns:xlink="http://www.w3.org/1999/xlink"><defs /><rect fill="white" height="37.06330821849406" width="43.01723494194448" x="0" y="0" /><path d="M14.201524630188942, 13.524942370131612 m-1.0825323313474655, 0.0 l-1.6237984597682953, 1.2178488820791245 -3.9241796731948853, 4.330129325389862 l-1.3531653583049774, 3.7888631224632263 -0.1353165414184332, 3.2475969195365906 l0.5412661656737328, 1.3531653583049774 3.3829134702682495, 2.706330716609955 l5.41266143321991, 1.4884819090366364 10.55469036102295, 0.4059496149420738 l1.8944315612316132, -0.5412661656737328 2.029748111963272, -3.1122803688049316 l0.8118992298841476, -3.1122803688049316 0.1353165414184332, -8.660258650779724 l-1.6237984597682953, -2.8416472673416138 -2.435697764158249, -0.9472157806158066 l-4.194812774658203, 0.0 -5.6832945346832275, -0.9472157806158066 l-2.571014165878296, 0.0 -0.8118992298841476, 0.2706330828368664 l-0.8118992298841476, 1.2178488820791245 m-6.630510687828064, -6.630510687828064 l-0.6765826791524887, 0.9472157806158066 -0.4059496149420738, 2.571014165878296 l0.0, 1.4884819090366364 0.5412661656737328, 0.8118992298841476 l1.6237984597682953, 0.8118992298841476 2.30038121342659, 0.1353165414184332 l0.8118992298841476, -0.2706330828368664 0.8118992298841476, -0.9472157806158066 l0.6765826791524887, -3.1122803688049316 0.0, -3.6535465717315674 l-0.8118992298841476, -0.5412661656737328 -1.7591150104999542, 0.2706330828368664 l-3.3829134702682495, 1.6237984597682953 0.0, 0.5412661656737328 m26.79267406463623, 1.4884819090366364 l-2.165064662694931, 1.3531653583049774 -0.6765826791524887, 1.6237984597682953 l0.1353165414184332, 3.1122803688049316 0.5412661656737328, 0.6765826791524887 l1.7591150104999542, 0.5412661656737328 1.7591150104999542, 0.0 l2.029748111963272, -0.9472157806158066 0.9472157806158066, -0.8118992298841476 l1.0825323313474655, -2.029748111963272 0.0, -1.6237984597682953 l-0.5412661656737328, -0.8118992298841476 -0.8118992298841476, -0.4059496149420738 l-3.7888631224632263, -0.1353165414184332 -2.165064662694931, 0.9472157806158066 l-1.4884819090366364, 1.3531653583049774 m-13.66697072982788, 4.465445876121521 l-1.4884819090366364, 1.3531653583049774 -0.2706330828368664, 1.7591150104999542 l1.0825323313474655, 0.4059496149420738 2.435697764158249, -0.1353165414184332 l0.8118992298841476, -0.6765826791524887 0.0, -2.30038121342659 l-3.6535465717315674, 0.0 m8.524942398071289, 1.6237984597682953 l-0.5412661656737328, 0.8118992298841476 0.6765826791524887, 0.6765826791524887 l0.8118992298841476, 0.0 2.30038121342659, -0.8118992298841476 l1.0825323313474655, -1.0825323313474655 -0.4059496149420738, -0.8118992298841476 l-4.330129325389862, 0.0 -0.8118992298841476, 0.4059496149420738 l-1.2178488820791245, 2.8416472673416138 -0.1353165414184332, 2.435697764158249 " fill="none" stroke="black" stroke-width="1" /></svg>