<?xml version="1.0" encoding="utf-8" ?>
<svg baseProfile="full" height="63.85598339140415" version="1.1" width="45.99419932812452" xmlns="http://www.w3.org/2000/svg" xmlns:ev="http://www.w3.org/2001/xml-events" xmlns:xlink="http://www.w3.org/1999/xlink"><defs /><rect fill="white" height="63.85598339140415" width="45.99419932812452" x="0" y="0" /><path d="M12.713043158873916, 11.630510501563549 m-0.6765826791524887, 1.6237984597682953 l0.1353165414184332, 2.30038121342659 0.5412661656737328, 1.4884819090366364 l3.7888631224632263, 3.2475969195365906 2.706330716609955, 0.9472157806158066 l2.9769638180732727, -0.6765826791524887 2.571014165878296, -2.165064662694931 l1.4884819090366364, -2.029748111963272 0.5412661656737328, -2.165064662694931 l-0.2706330828368664, -1.3531653583049774 -2.029748111963272, -2.30038121342659 l-3.7888631224632263, -1.3531653583049774 -4.871395528316498, 0.2706330828368664 l-1.7591150104999542, 0.4059496149420738 -1.7591150104999542, 1.2178488820791245 m-0.2706330828368664, 3.7888631224632263 l-1.0825323313474655, -1.4884819090366364 -0.4059496149420738, -1.8944315612316132 l0.4059496149420738, -2.165064662694931 1.3531653583049774, -2.30038121342659 l2.165064662694931, -1.7591150104999542 1.6237984597682953, -0.2706330828368664 l1.0825323313474655, 2.30038121342659 m5.142028331756592, 2.435697764158249 l4.330129325389862, -4.059496223926544 2.435697764158249, -0.2706330828368664 l0.6765826791524887, 0.2706330828368664 0.4059496149420738, 1.3531653583049774 l-0.2706330828368664, 1.4884819090366364 -1.6237984597682953, 3.2475969195365906 m-10.419373512268066, 9.742791056632996 l-0.8118992298841476, -0.1353165414184332 -2.165064662694931, 0.6765826791524887 l-2.30038121342659, 1.3531653583049774 -2.029748111963272, 2.029748111963272 l-2.9769638180732727, 4.871395528316498 -1.3531653583049774, 3.6535465717315674 l-1.2178488820791245, 5.277345180511475 0.0, 2.029748111963272 l2.8416472673416138, 9.472157955169678 2.30038121342659, 5.006712079048157 l1.3531653583049774, 1.4884819090366364 1.6237984597682953, 0.8118992298841476 l2.8416472673416138, 0.6765826791524887 3.1122803688049316, 0.1353165414184332 l4.60076242685318, -1.6237984597682953 1.3531653583049774, -1.3531653583049774 l0.9472157806158066, -2.165064662694931 1.6237984597682953, -6.224560737609863 l2.165064662694931, -15.696718692779541 -0.5412661656737328, -3.3829134702682495 l-3.1122803688049316, -3.5182300209999084 -7.036460041999817, -3.6535465717315674 m9.87810730934143, 7.577726244926453 l7.307093143463135, -2.9769638180732727 2.029748111963272, -0.1353165414184332 l1.3531653583049774, 0.4059496149420738 1.3531653583049774, 1.0825323313474655 l0.0, 0.6765826791524887 -2.029748111963272, 1.8944315612316132 l-2.706330716609955, 3.6535465717315674 -0.6765826791524887, 0.5412661656737328 l0.4059496149420738, -2.029748111963272 -0.6765826791524887, -1.3531653583049774 l-0.6765826791524887, 0.1353165414184332 -0.9472157806158066, 2.8416472673416138 " fill="none" stroke="black" stroke-width="1" /></svg>