<?xml version="1.0" encoding="utf-8" ?>
<svg baseProfile="full" height="49.241797011345625" version="1.1" width="39.36368984170258" xmlns="http://www.w3.org/2000/svg" xmlns:ev="http://www.w3.org/2001/xml-events" xmlns:xlink="http://www.w3.org/1999/xlink"><defs /><rect fill="white" height="49.241797011345625" width="39.36368984170258" x="0" y="0" /><path d="M26.650646971538663, 8.788863187655807 m-5.142028331756592, 0.5412661656737328 l-2.029748111963272, 0.6765826791524887 -1.7591150104999542, 2.029748111963272 l-0.5412661656737328, 2.029748111963272 0.4059496149420738, 3.2475969195365906 l1.6237984597682953, 2.571014165878296 2.435697764158249, 2.029748111963272 l2.571014165878296, 1.0825323313474655 3.3829134702682495, -0.2706330828368664 l2.029748111963272, -1.4884819090366364 3.3829134702682495, -7.036460041999817 l-0.1353165414184332, -3.2475969195365906 -0.6765826791524887, -0.5412661656737328 l-4.330129325389862, -1.7591150104999542 -2.435697764158249, 0.1353165414184332 m-8.389625549316406, 2.8416472673416138 l-3.1122803688049316, -3.6535465717315674 0.0, -1.0825323313474655 l4.736078977584839, -1.8944315612316132 0.6765826791524887, 0.2706330828368664 l1.4884819090366364, 3.1122803688049316 m4.194812774658203, -0.8118992298841476 l2.435697764158249, -1.2178488820791245 4.330129325389862, -1.2178488820791245 l1.0825323313474655, 0.4059496149420738 1.3531653583049774, 1.6237984597682953 l0.1353165414184332, 1.3531653583049774 -0.4059496149420738, 0.8118992298841476 l-2.30038121342659, 1.2178488820791245 m-4.736078977584839, 12.178488969802856 l-6.089244484901428, 1.4884819090366364 -5.277345180511475, 2.435697764158249 l-1.6237984597682953, 2.30038121342659 -0.4059496149420738, 1.8944315612316132 l0.5412661656737328, 4.736078977584839 3.7888631224632263, 4.194812774658203 l5.142028331756592, 4.059496223926544 1.6237984597682953, 0.4059496149420738 l0.8118992298841476, -0.2706330828368664 0.9472157806158066, -2.571014165878296 l4.059496223926544, -6.765826940536499 0.5412661656737328, -3.7888631224632263 l-0.2706330828368664, -3.7888631224632263 -1.0825323313474655, -2.029748111963272 l-1.8944315612316132, -2.029748111963272 m-10.419373512268066, 1.0825323313474655 l-1.7591150104999542, -1.3531653583049774 -4.736078977584839, -1.6237984597682953 l-5.006712079048157, 0.1353165414184332 -0.6765826791524887, 0.4059496149420738 l-0.1353165414184332, 1.4884819090366364 0.2706330828368664, 0.8118992298841476 l0.8118992298841476, 0.5412661656737328 4.059496223926544, 1.2178488820791245 l5.5479782819747925, -0.8118992298841476 m13.125704526901245, -0.8118992298841476 l2.029748111963272, -2.435697764158249 2.30038121342659, -0.9472157806158066 " fill="none" stroke="black" stroke-width="1" /></svg>