<?xml version="1.0" encoding="utf-8" ?>
<svg baseProfile="full" height="40.17558865249157" version="1.1" width="48.023948054760695" xmlns="http://www.w3.org/2000/svg" xmlns:ev="http://www.w3.org/2001/xml-events" xmlns:xlink="http://www.w3.org/1999/xlink"><defs /><rect fill="white" height="40.17558865249157" width="48.023948054760695" x="0" y="0" /><path d="M28.40976190753281, 34.49900597333908 m-2.029748111963272, 0.6765826791524887 l-5.5479782819747925, 0.0 -2.165064662694931, -1.2178488820791245 l-2.165064662694931, -2.8416472673416138 -1.8944315612316132, -3.5182300209999084 l-1.0825323313474655, -3.5182300209999084 -0.2706330828368664, -5.953927636146545 l0.6765826791524887, -2.30038121342659 1.6237984597682953, -1.8944315612316132 l2.029748111963272, -1.6237984597682953 2.706330716609955, -1.0825323313474655 l6.901143789291382, -0.5412661656737328 2.706330716609955, 0.6765826791524887 l1.8944315612316132, 1.6237984597682953 1.3531653583049774, 2.571014165878296 l0.6765826791524887, 3.3829134702682495 0.1353165414184332, 7.442409992218018 l-0.5412661656737328, 2.9769638180732727 -1.3531653583049774, 2.165064662694931 l-1.2178488820791245, 1.0825323313474655 -1.4884819090366364, 0.1353165414184332 l-2.029748111963272, -0.1353165414184332 -4.059496223926544, -2.706330716609955 m7.036460041999817, -15.967352390289307 l0.0, -3.2475969195365906 1.0825323313474655, -1.6237984597682953 l2.029748111963272, -1.7591150104999542 2.435697764158249, -1.7591150104999542 l2.165064662694931, -0.5412661656737328 3.7888631224632263, 0.0 l0.8118992298841476, 1.0825323313474655 0.4059496149420738, 3.6535465717315674 l-0.2706330828368664, 2.165064662694931 -1.6237984597682953, 2.165064662694931 l-2.9769638180732727, 2.30038121342659 -2.029748111963272, 0.4059496149420738 l-2.9769638180732727, -0.4059496149420738 m-14.884819984436035, -2.8416472673416138 l0.5412661656737328, -2.30038121342659 -2.9769638180732727, -3.7888631224632263 l-1.4884819090366364, -0.9472157806158066 -2.571014165878296, -0.8118992298841476 l-4.194812774658203, 0.1353165414184332 -0.9472157806158066, 0.6765826791524887 l-1.2178488820791245, 1.8944315612316132 -0.4059496149420738, 6.224560737609863 l1.3531653583049774, 2.165064662694931 1.4884819090366364, 0.6765826791524887 l2.165064662694931, 0.1353165414184332 " fill="none" stroke="black" stroke-width="1" /></svg>