<?xml version="1.0" encoding="utf-8" ?>
<svg baseProfile="full" height="55.060408636927605" version="1.1" width="40.71685451082885" xmlns="http://www.w3.org/2000/svg" xmlns:ev="http://www.w3.org/2001/xml-events" xmlns:xlink="http://www.w3.org/1999/xlink"><defs /><rect fill="white" height="55.060408636927605" width="40.71685451082885" x="0" y="0" /><path d="M21.508617382496595, 5.541266417130828 m-1.3531653583049774, -0.4059496149420738 l-2.9769638180732727, 0.0 -5.277345180511475, 2.165064662694931 l-1.2178488820791245, 1.0825323313474655 -2.029748111963272, 3.1122803688049316 l-1.3531653583049774, 6.224560737609863 0.1353165414184332, 2.9769638180732727 l1.6237984597682953, 1.2178488820791245 6.765826940536499, 1.4884819090366364 l5.5479782819747925, -0.1353165414184332 7.442409992218018, -3.1122803688049316 l1.6237984597682953, -2.165064662694931 0.1353165414184332, -3.5182300209999084 l-3.7888631224632263, -3.5182300209999084 -2.8416472673416138, -5.5479782819747925 l-3.3829134702682495, -0.4059496149420738 -5.142028331756592, 1.3531653583049774 m-8.660258650779724, 14.884819984436035 l-1.2178488820791245, 3.5182300209999084 -0.5412661656737328, 3.3829134702682495 l0.1353165414184332, 4.465445876121521 3.1122803688049316, 6.630510687828064 l2.571014165878296, 2.435697764158249 1.2178488820791245, 1.8944315612316132 l1.0825323313474655, 3.3829134702682495 1.3531653583049774, 0.9472157806158066 l6.630510687828064, 2.165064662694931 2.8416472673416138, 0.0 l2.9769638180732727, -0.6765826791524887 4.059496223926544, -1.2178488820791245 l1.4884819090366364, -0.9472157806158066 1.8944315612316132, -4.059496223926544 l0.8118992298841476, -3.7888631224632263 0.5412661656737328, -11.366589069366455 l-0.1353165414184332, -10.284056663513184 -0.8118992298841476, -2.165064662694931 l-0.8118992298841476, -0.4059496149420738 -2.435697764158249, 0.0 l-1.7591150104999542, 0.6765826791524887 m-15.967352390289307, -4.465445876121521 l0.0, 0.0 m5.277345180511475, 0.0 l0.0, 0.0 m2.571014165878296, -1.3531653583049774 l0.0, 0.0 m0.4059496149420738, 0.2706330828368664 l-0.1353165414184332, 0.6765826791524887 0.0, -0.8118992298841476 m-8.524942398071289, 4.736078977584839 l6.359877586364746, -0.1353165414184332 " fill="none" stroke="black" stroke-width="1" /></svg>