<?xml version="1.0" encoding="utf-8" ?>
<svg baseProfile="full" height="42.340653324499726" version="1.1" width="41.122803995385766" xmlns="http://www.w3.org/2000/svg" xmlns:ev="http://www.w3.org/2001/xml-events" xmlns:xlink="http://www.w3.org/1999/xlink"><defs /><rect fill="white" height="42.340653324499726" width="41.122803995385766" x="0" y="0" /><path d="M12.57772620767355, 12.577726664021611 m-0.6765826791524887, 0.2706330828368664 l-1.0825323313474655, 1.6237984597682953 -1.0825323313474655, 3.1122803688049316 l-0.4059496149420738, 5.6832945346832275 0.5412661656737328, 1.7591150104999542 l2.9769638180732727, 4.736078977584839 8.930891752243042, 7.307093143463135 l6.089244484901428, 0.2706330828368664 0.6765826791524887, -0.2706330828368664 l1.0825323313474655, -2.165064662694931 1.0825323313474655, -5.5479782819747925 l-0.2706330828368664, -5.81861138343811 -0.6765826791524887, -2.706330716609955 l-1.2178488820791245, -2.435697764158249 -3.7888631224632263, -4.330129325389862 l-5.277345180511475, -2.165064662694931 -5.006712079048157, -1.3531653583049774 l-2.165064662694931, -0.1353165414184332 -0.6765826791524887, 0.5412661656737328 l-0.4059496149420738, 1.8944315612316132 m-0.2706330828368664, 0.0 l-3.9241796731948853, -2.30038121342659 -1.6237984597682953, -1.6237984597682953 l-0.4059496149420738, -0.9472157806158066 0.1353165414184332, -1.4884819090366364 l1.6237984597682953, -0.8118992298841476 1.4884819090366364, 0.0 l0.0, -0.6765826791524887 1.4884819090366364, 0.4059496149420738 l5.277345180511475, 3.7888631224632263 m10.284056663513184, 5.5479782819747925 l-0.2706330828368664, -3.1122803688049316 3.2475969195365906, -0.1353165414184332 l5.5479782819747925, 1.8944315612316132 2.30038121342659, 1.8944315612316132 l-0.1353165414184332, 1.4884819090366364 -0.5412661656737328, 0.6765826791524887 l-2.571014165878296, 2.30038121342659 -2.571014165878296, 1.3531653583049774 " fill="none" stroke="black" stroke-width="1" /></svg>