<?xml version="1.0" encoding="utf-8" ?>
<svg baseProfile="full" height="57.90205631405115" version="1.1" width="87.94232795014977" xmlns="http://www.w3.org/2000/svg" xmlns:ev="http://www.w3.org/2001/xml-events" xmlns:xlink="http://www.w3.org/1999/xlink"><defs /><rect fill="white" height="57.90205631405115" width="87.94232795014977" x="0" y="0" /><path d="M26.515329545363784, 14.20152461156249 m6.901143789291382, -3.2475969195365906 l4.871395528316498, -1.7591150104999542 8.389625549316406, -1.2178488820791245 l12.855072021484375, -2.706330716609955 9.472157955169678, -0.2706330828368664 l2.30038121342659, 0.5412661656737328 3.1122803688049316, 1.6237984597682953 l3.2475969195365906, 3.2475969195365906 1.0825323313474655, 1.7591150104999542 l1.8944315612316132, 4.736078977584839 0.8118992298841476, 4.059496223926544 l0.4059496149420738, 11.231273412704468 0.9472157806158066, 9.20152485370636 l0.1353165414184332, 8.524942398071289 -0.8118992298841476, 1.2178488820791245 l-2.029748111963272, 0.8118992298841476 -8.795575499534607, 0.9472157806158066 l-0.6765826791524887, -3.3829134702682495 -0.1353165414184332, -11.772539615631104 l-9.607474207878113, 3.6535465717315674 -7.036460041999817, 1.6237984597682953 l-6.224560737609863, 0.1353165414184332 -4.736078977584839, -1.7591150104999542 l-6.224560737609863, -0.2706330828368664 -0.6765826791524887, 1.0825323313474655 l-1.0825323313474655, 10.419373512268066 -13.802287578582764, 0.2706330828368664 l0.1353165414184332, -5.6832945346832275 2.165064662694931, -8.524942398071289 l0.2706330828368664, -2.8416472673416138 -1.4884819090366364, -1.3531653583049774 l-4.059496223926544, -1.2178488820791245 -12.178488969802856, 0.0 l-0.5412661656737328, -0.8118992298841476 -0.4059496149420738, -3.3829134702682495 l0.1353165414184332, -1.2178488820791245 0.9472157806158066, -1.7591150104999542 l2.706330716609955, -2.706330716609955 7.577726244926453, -5.277345180511475 l3.3829134702682495, -1.7591150104999542 1.4884819090366364, -1.3531653583049774 m2.8416472673416138, 4.330129325389862 l-2.571014165878296, -3.6535465717315674 -0.6765826791524887, -1.7591150104999542 l-0.2706330828368664, -2.9769638180732727 0.9472157806158066, -0.6765826791524887 l2.8416472673416138, -0.4059496149420738 1.6237984597682953, 0.8118992298841476 l1.8944315612316132, 6.901143789291382 " fill="none" stroke="black" stroke-width="1" /></svg>