<?xml version="1.0" encoding="utf-8" ?>
<svg baseProfile="full" height="40.44622141867876" version="1.1" width="66.42699665389955" xmlns="http://www.w3.org/2000/svg" xmlns:ev="http://www.w3.org/2001/xml-events" xmlns:xlink="http://www.w3.org/1999/xlink"><defs /><rect fill="white" height="40.44622141867876" width="66.42699665389955" x="0" y="0" /><path d="M9.194812700152397, 9.465446127578616 m-1.4884819090366364, 0.2706330828368664 l-0.8118992298841476, 1.3531653583049774 -1.8944315612316132, 11.90785527229309 l2.8416472673416138, 6.495193839073181 0.5412661656737328, 4.736078977584839 l0.2706330828368664, 0.6765826791524887 0.6765826791524887, 0.2706330828368664 l7.8483593463897705, -0.1353165414184332 -2.029748111963272, -2.435697764158249 l-0.4059496149420738, -3.6535465717315674 1.0825323313474655, -2.029748111963272 l1.4884819090366364, -1.0825323313474655 14.478869438171387, -0.8118992298841476 l0.4059496149420738, 0.8118992298841476 0.0, 3.3829134702682495 l-0.5412661656737328, 4.330129325389862 0.5412661656737328, 1.3531653583049774 l1.7591150104999542, 0.5412661656737328 3.2475969195365906, 0.0 l0.6765826791524887, -0.4059496149420738 0.1353165414184332, -0.8118992298841476 l-0.4059496149420738, -0.6765826791524887 -1.3531653583049774, -0.5412661656737328 l-0.5412661656737328, -1.4884819090366364 -0.1353165414184332, -4.871395528316498 l0.4059496149420738, -1.3531653583049774 5.277345180511475, -0.1353165414184332 l6.224560737609863, -1.8944315612316132 1.0825323313474655, -1.4884819090366364 l0.0, -4.059496223926544 0.5412661656737328, -0.6765826791524887 l3.3829134702682495, -0.1353165414184332 3.5182300209999084, 1.6237984597682953 l2.029748111963272, 0.0 0.6765826791524887, -0.5412661656737328 l0.6765826791524887, -0.8118992298841476 0.2706330828368664, -1.3531653583049774 l-1.3531653583049774, -0.2706330828368664 -1.3531653583049774, 1.2178488820791245 l0.2706330828368664, -2.30038121342659 -2.30038121342659, 0.6765826791524887 l-0.1353165414184332, -2.8416472673416138 1.4884819090366364, 0.8118992298841476 l1.7591150104999542, -2.029748111963272 0.6765826791524887, 1.3531653583049774 l0.9472157806158066, -0.2706330828368664 0.8118992298841476, -1.3531653583049774 l0.4059496149420738, 0.6765826791524887 0.5412661656737328, -0.8118992298841476 l-0.1353165414184332, -2.435697764158249 -1.8944315612316132, -1.4884819090366364 l-3.6535465717315674, -1.4884819090366364 -2.435697764158249, -0.2706330828368664 l-4.871395528316498, 0.2706330828368664 -4.60076242685318, 0.6765826791524887 l-5.5479782819747925, 1.6237984597682953 -8.254309296607971, 0.5412661656737328 l-2.571014165878296, 0.8118992298841476 -4.871395528316498, 0.6765826791524887 l-12.855072021484375, -0.6765826791524887 " fill="none" stroke="black" stroke-width="1" /></svg>