<?xml version="1.0" encoding="utf-8" ?>
<svg baseProfile="full" height="101.47398539818823" version="1.1" width="51.27154369838536" xmlns="http://www.w3.org/2000/svg" xmlns:ev="http://www.w3.org/2001/xml-events" xmlns:xlink="http://www.w3.org/1999/xlink"><defs /><rect fill="white" height="101.47398539818823" width="51.27154369838536" x="0" y="0" /><path d="M13.79557534120977, 12.577729355543852 m0.0, 11.366589069366455 l0.4059496149420738, 1.7591150104999542 0.2706330828368664, 8.660258650779724 l-1.7591150104999542, -5.5479782819747925 1.4884819090366364, -17.45583415031433 l1.3531653583049774, 0.1353165414184332 5.6832945346832275, -1.4884819090366364 l4.194812774658203, -0.1353165414184332 1.2178488820791245, 4.330129325389862 l0.2706330828368664, 7.307093143463135 0.8118992298841476, 2.029748111963272 l0.2706330828368664, 3.1122803688049316 0.9472157806158066, 3.1122803688049316 l2.571014165878296, 27.469258308410645 0.8118992298841476, 1.8944315612316132 l0.9472157806158066, 0.8118992298841476 m-19.891531467437744, -26.927990913391113 l0.0, 19.07963275909424 1.7591150104999542, 11.501905918121338 l0.2706330828368664, 0.6765826791524887 0.1353165414184332, -0.6765826791524887 l-0.9472157806158066, -2.029748111963272 m0.0, 0.0 l-3.3829134702682495, 0.1353165414184332 -2.8416472673416138, 5.006712079048157 l-1.7591150104999542, 9.607474207878113 -0.4059496149420738, 5.006712079048157 l-0.9472157806158066, 0.5412661656737328 -0.2706330828368664, 0.9472157806158066 l0.2706330828368664, 13.66697072982788 m27.875206470489502, -37.75331497192383 l0.1353165414184332, 4.059496223926544 2.706330716609955, -0.2706330828368664 l2.8416472673416138, 1.6237984597682953 0.9472157806158066, 0.9472157806158066 l1.6237984597682953, 3.5182300209999084 2.9769638180732727, 10.960639715194702 l1.8944315612316132, 13.261021375656128 m-32.34065294265747, -81.46056175231934 l-1.2178488820791245, -0.8118992298841476 -0.1353165414184332, -2.029748111963272 l1.2178488820791245, -1.3531653583049774 3.5182300209999084, -1.2178488820791245 l6.089244484901428, -0.5412661656737328 1.7591150104999542, 1.7591150104999542 l0.2706330828368664, 2.435697764158249 m-11.231273412704468, 0.6765826791524887 l9.336841106414795, -0.1353165414184332 1.3531653583049774, -5.142028331756592 l-6.901143789291382, 0.0 -2.435697764158249, 0.9472157806158066 l-1.6237984597682953, 1.3531653583049774 -2.435697764158249, 3.2475969195365906 l0.6765826791524887, 0.5412661656737328 0.8118992298841476, 0.0 l7.7130430936813354, -1.7591150104999542 m13.261021375656128, 2.435697764158249 l0.0, 21.24469757080078 -2.165064662694931, -7.442409992218018 l-2.30038121342659, -10.419373512268066 -0.5412661656737328, -8.389625549316406 " fill="none" stroke="black" stroke-width="1" /></svg>