<?xml version="1.0" encoding="utf-8" ?>
<svg baseProfile="full" height="95.92600441537797" version="1.1" width="108.37512588128448" xmlns="http://www.w3.org/2000/svg" xmlns:ev="http://www.w3.org/2001/xml-events" xmlns:xlink="http://www.w3.org/1999/xlink"><defs /><rect fill="white" height="95.92600441537797" width="108.37512588128448" x="0" y="0" /><path d="M41.26483406871557, 5 m-2.706330716609955, 0.2706330828368664 l-6.765826940536499, 3.6535465717315674 -3.3829134702682495, 2.30038121342659 l-1.0825323313474655, 2.30038121342659 -0.1353165414184332, 3.5182300209999084 l1.0825323313474655, 2.165064662694931 2.165064662694931, 2.029748111963272 l2.9769638180732727, 0.4059496149420738 7.983676195144653, -0.4059496149420738 l2.571014165878296, -0.6765826791524887 1.6237984597682953, -1.2178488820791245 l0.5412661656737328, -1.0825323313474655 0.0, -3.5182300209999084 l-2.9769638180732727, -5.41266143321991 -2.9769638180732727, -2.30038121342659 l-2.571014165878296, -1.2178488820791245 m48.44332218170166, 1.2178488820791245 l-11.095956563949585, 0.8118992298841476 -1.4884819090366364, 0.5412661656737328 l-2.029748111963272, 2.30038121342659 -1.3531653583049774, 3.5182300209999084 l-0.2706330828368664, 4.330129325389862 0.8118992298841476, 1.6237984597682953 l2.30038121342659, 1.8944315612316132 4.059496223926544, 1.6237984597682953 l6.089244484901428, 0.1353165414184332 6.359877586364746, -2.165064662694931 l3.2475969195365906, -2.435697764158249 0.8118992298841476, -1.8944315612316132 l-0.6765826791524887, -3.6535465717315674 -3.1122803688049316, -3.2475969195365906 l-3.2475969195365906, -2.029748111963272 -2.435697764158249, -0.9472157806158066 l-4.736078977584839, -0.1353165414184332 -1.4884819090366364, 0.2706330828368664 l-2.30038121342659, 1.2178488820791245 m-4.330129325389862, 11.501905918121338 l-7.442409992218018, -0.1353165414184332 -8.389625549316406, 0.8118992298841476 l-12.31380581855774, -0.4059496149420738 -7.7130430936813354, 2.029748111963272 l-6.224560737609863, 1.0825323313474655 -2.9769638180732727, 1.7591150104999542 l-2.165064662694931, 5.142028331756592 -0.4059496149420738, 5.006712079048157 l1.0825323313474655, 3.3829134702682495 6.089244484901428, 7.307093143463135 l3.7888631224632263, 3.5182300209999084 6.495193839073181, 3.7888631224632263 l16.102668046951294, 7.1717768907547 12.449121475219727, 2.571014165878296 l6.495193839073181, 0.2706330828368664 9.742791056632996, -2.30038121342659 l3.5182300209999084, -1.6237984597682953 3.7888631224632263, -2.8416472673416138 l6.495193839073181, -6.630510687828064 2.571014165878296, -3.7888631224632263 l1.0825323313474655, -2.706330716609955 0.1353165414184332, -4.059496223926544 l-4.059496223926544, -8.795575499534607 -2.9769638180732727, -4.194812774658203 l-4.059496223926544, -2.571014165878296 -7.442409992218018, -1.7591150104999542 l-5.277345180511475, 0.2706330828368664 -13.66697072982788, 2.165064662694931 m-8.389625549316406, 10.690007209777832 l-1.3531653583049774, 2.165064662694931 0.0, 2.9769638180732727 l0.6765826791524887, 0.8118992298841476 1.4884819090366364, 0.1353165414184332 l1.4884819090366364, -1.0825323313474655 0.1353165414184332, -1.4884819090366364 l-1.3531653583049774, -2.30038121342659 -0.6765826791524887, -0.2706330828368664 m-17.185200452804565, -10.284056663513184 l-0.6765826791524887, 0.2706330828368664 -1.0825323313474655, 2.435697764158249 l0.8118992298841476, 0.4059496149420738 2.029748111963272, -1.3531653583049774 l0.0, -0.8118992298841476 -0.6765826791524887, -0.2706330828368664 l-2.029748111963272, 0.5412661656737328 1.0825323313474655, 0.4059496149420738 m36.67078256607056, 3.2475969195365906 l-2.435697764158249, 0.1353165414184332 -3.1122803688049316, 1.0825323313474655 l-0.2706330828368664, 3.3829134702682495 1.7591150104999542, 1.6237984597682953 l1.6237984597682953, 0.5412661656737328 0.9472157806158066, 0.0 l2.165064662694931, -1.3531653583049774 0.9472157806158066, -1.6237984597682953 l0.0, -2.706330716609955 -2.029748111963272, -1.4884819090366364 l-3.9241796731948853, -0.2706330828368664 m-28.6871075630188, 13.531653881072998 l2.435697764158249, 4.194812774658203 3.2475969195365906, 3.1122803688049316 l5.006712079048157, 2.706330716609955 3.5182300209999084, 0.5412661656737328 l5.142028331756592, 0.0 15.426086187362671, -1.7591150104999542 l1.7591150104999542, -2.435697764158249 0.8118992298841476, -4.194812774658203 m-23.6803936958313, -5.953927636146545 l-1.2178488820791245, 7.1717768907547 0.0, 5.6832945346832275 l-0.5412661656737328, 2.029748111963272 m7.577726244926453, -10.148741006851196 l3.7888631224632263, -0.9472157806158066 m-2.029748111963272, 4.60076242685318 l2.571014165878296, -1.2178488820791245 -1.6237984597682953, -0.1353165414184332 m-16.102668046951294, -4.871395528316498 l-1.6237984597682953, -0.6765826791524887 m7.036460041999817, 5.5479782819747925 l-3.5182300209999084, -0.6765826791524887 -4.330129325389862, -1.4884819090366364 l-1.7591150104999542, -0.8118992298841476 0.5412661656737328, 0.0 m-21.380014419555664, 0.9472157806158066 l-9.472157955169678, 6.765826940536499 -8.930891752243042, 12.855072021484375 l-0.6765826791524887, 2.165064662694931 -0.6765826791524887, 6.901143789291382 l-0.1353165414184332, 7.8483593463897705 0.4059496149420738, 2.8416472673416138 l1.4884819090366364, 4.194812774658203 0.9472157806158066, 1.2178488820791245 l2.30038121342659, 0.9472157806158066 3.5182300209999084, 0.1353165414184332 l2.165064662694931, -0.4059496149420738 9.607474207878113, -4.059496223926544 " fill="none" stroke="black" stroke-width="1" /></svg>