<?xml version="1.0" encoding="utf-8" ?>
<svg baseProfile="full" height="54.65445768088102" version="1.1" width="77.11700405925512" xmlns="http://www.w3.org/2000/svg" xmlns:ev="http://www.w3.org/2001/xml-events" xmlns:xlink="http://www.w3.org/1999/xlink"><defs /><rect fill="white" height="54.65445768088102" width="77.11700405925512" x="0" y="0" /><path d="M13.66025841794908, 21.50861798785627 m-3.3829134702682495, -0.6765826791524887 l-2.9769638180732727, -1.6237984597682953 -1.3531653583049774, -1.8944315612316132 l-0.8118992298841476, -2.30038121342659 -0.1353165414184332, -4.194812774658203 l0.5412661656737328, -1.2178488820791245 2.029748111963272, -2.30038121342659 l4.330129325389862, -2.165064662694931 4.60076242685318, -0.1353165414184332 l3.3829134702682495, 2.435697764158249 3.6535465717315674, 5.41266143321991 l0.9472157806158066, 4.059496223926544 0.8118992298841476, -1.6237984597682953 l2.30038121342659, -1.3531653583049774 2.706330716609955, -0.6765826791524887 l7.307093143463135, -0.5412661656737328 6.630510687828064, 0.0 l3.6535465717315674, 0.5412661656737328 3.7888631224632263, 1.4884819090366364 l1.4884819090366364, 1.4884819090366364 0.6765826791524887, -1.8944315612316132 l1.4884819090366364, -2.165064662694931 3.3829134702682495, -2.435697764158249 l4.059496223926544, -1.4884819090366364 4.465445876121521, -0.2706330828368664 l2.029748111963272, 0.9472157806158066 2.029748111963272, 2.9769638180732727 l0.8118992298841476, 3.5182300209999084 0.0, 5.142028331756592 l-0.9472157806158066, 2.30038121342659 -1.8944315612316132, 2.165064662694931 l-4.465445876121521, 2.8416472673416138 -2.165064662694931, 0.4059496149420738 m-50.87902069091797, -6.495193839073181 l-1.7591150104999542, 0.6765826791524887 -1.3531653583049774, 1.0825323313474655 l-2.435697764158249, 4.465445876121521 -0.4059496149420738, 5.41266143321991 l2.029748111963272, 3.1122803688049316 3.9241796731948853, 3.9241796731948853 l5.6832945346832275, 3.5182300209999084 9.336841106414795, 3.3829134702682495 l9.066208004951477, 2.029748111963272 10.55469036102295, 0.2706330828368664 l8.660258650779724, -2.30038121342659 4.465445876121521, -2.435697764158249 l2.435697764158249, -2.30038121342659 1.6237984597682953, -2.435697764158249 l0.9472157806158066, -4.059496223926544 0.0, -1.4884819090366364 l-0.8118992298841476, -2.706330716609955 -3.1122803688049316, -4.330129325389862 m-44.38382625579834, -8.795575499534607 l-3.3829134702682495, -2.30038121342659 -1.2178488820791245, -1.7591150104999542 l-0.1353165414184332, -1.2178488820791245 0.5412661656737328, -1.7591150104999542 l1.6237984597682953, -0.6765826791524887 2.029748111963272, 0.0 l0.8118992298841476, 0.2706330828368664 1.4884819090366364, 1.7591150104999542 l0.5412661656737328, 1.7591150104999542 0.0, 2.165064662694931 l-1.2178488820791245, 1.0825323313474655 -2.029748111963272, 0.4059496149420738 " fill="none" stroke="black" stroke-width="1" /></svg>