<?xml version="1.0" encoding="utf-8" ?>
<svg baseProfile="full" height="89.29549493826926" version="1.1" width="67.23889775574207" xmlns="http://www.w3.org/2000/svg" xmlns:ev="http://www.w3.org/2001/xml-events" xmlns:xlink="http://www.w3.org/1999/xlink"><defs /><rect fill="white" height="89.29549493826926" width="67.23889775574207" x="0" y="0" /><path d="M28.139129038900137, 13.254308989271522 m-0.8118992298841476, 0.2706330828368664 l-2.706330716609955, 2.706330716609955 -2.30038121342659, 3.2475969195365906 l-5.81861138343811, 15.020135641098022 -4.059496223926544, 15.967352390289307 l-0.5412661656737328, 7.983676195144653 0.4059496149420738, 1.8944315612316132 l1.6237984597682953, 3.1122803688049316 3.2475969195365906, 3.1122803688049316 l3.5182300209999084, 1.6237984597682953 6.224560737609863, 1.8944315612316132 l4.059496223926544, -0.1353165414184332 4.330129325389862, -3.1122803688049316 l1.7591150104999542, -1.8944315612316132 2.8416472673416138, -4.194812774658203 l3.1122803688049316, -6.359877586364746 2.30038121342659, -7.577726244926453 l0.8118992298841476, -5.953927636146545 0.0, -14.884819984436035 l-1.6237984597682953, -6.089244484901428 -1.3531653583049774, -2.571014165878296 l-1.8944315612316132, -1.6237984597682953 -3.3829134702682495, -1.3531653583049774 l-3.6535465717315674, -0.5412661656737328 -2.30038121342659, 0.0 l-3.2475969195365906, 0.9472157806158066 -3.3829134702682495, 0.2706330828368664 m12.178488969802856, -9.066208004951477 l-1.6237984597682953, -0.9472157806158066 -3.9241796731948853, 0.0 l-3.1122803688049316, 1.7591150104999542 -2.435697764158249, 2.571014165878296 l-0.1353165414184332, 2.435697764158249 2.165064662694931, 2.165064662694931 l3.6535465717315674, 1.7591150104999542 2.30038121342659, 0.4059496149420738 l6.224560737609863, 0.1353165414184332 1.4884819090366364, -0.6765826791524887 l0.8118992298841476, -0.9472157806158066 0.5412661656737328, -2.9769638180732727 l-0.2706330828368664, -1.7591150104999542 -2.165064662694931, -2.8416472673416138 l-1.0825323313474655, -0.6765826791524887 m-8.795575499534607, 0.9472157806158066 l-0.8118992298841476, 0.4059496149420738 0.8118992298841476, 0.9472157806158066 l2.571014165878296, 0.2706330828368664 0.5412661656737328, -1.2178488820791245 l-0.2706330828368664, -0.8118992298841476 -1.0825323313474655, -0.9472157806158066 m4.059496223926544, 1.8944315612316132 l0.4059496149420738, 0.8118992298841476 1.0825323313474655, 0.2706330828368664 l0.1353165414184332, -1.6237984597682953 -1.3531653583049774, -0.6765826791524887 m-19.48558211326599, 23.13912868499756 l-4.194812774658203, -11.90785527229309 -1.4884819090366364, -2.435697764158249 l-2.8416472673416138, -3.6535465717315674 -2.165064662694931, -1.4884819090366364 l-1.7591150104999542, -0.2706330828368664 -0.2706330828368664, 5.41266143321991 l3.9241796731948853, 12.31380581855774 4.194812774658203, 10.960639715194702 m34.099769592285156, -8.118992447853088 l3.2475969195365906, -3.2475969195365906 5.6832945346832275, -3.6535465717315674 l3.3829134702682495, -0.8118992298841476 2.029748111963272, 0.0 l0.6765826791524887, 0.6765826791524887 0.0, 1.0825323313474655 l-2.029748111963272, 3.6535465717315674 -3.9241796731948853, 4.465445876121521 l-7.1717768907547, 7.036460041999817 -4.871395528316498, 3.7888631224632263 m-29.904956817626953, 23.003811836242676 l-3.7888631224632263, 7.1717768907547 -1.7591150104999542, 4.60076242685318 l-0.1353165414184332, 2.30038121342659 0.6765826791524887, 0.4059496149420738 l1.2178488820791245, -0.5412661656737328 3.7888631224632263, -5.6832945346832275 l2.165064662694931, -5.953927636146545 0.2706330828368664, -2.9769638180732727 m5.006712079048157, 2.706330716609955 l-2.029748111963272, 8.795575499534607 -0.2706330828368664, 6.359877586364746 l0.9472157806158066, 0.5412661656737328 0.9472157806158066, -0.2706330828368664 l4.330129325389862, -5.41266143321991 1.0825323313474655, -3.3829134702682495 l0.1353165414184332, -2.8416472673416138 m7.577726244926453, -27.063307762145996 l1.0825323313474655, -4.736078977584839 m-1.3531653583049774, -6.495193839073181 l-1.4884819090366364, 0.2706330828368664 -1.4884819090366364, 1.4884819090366364 l-3.2475969195365906, 6.359877586364746 -3.9241796731948853, 10.013424158096313 l-2.30038121342659, 9.472157955169678 -0.2706330828368664, 5.41266143321991 l1.3531653583049774, 0.9472157806158066 2.706330716609955, 0.0 l3.3829134702682495, -2.165064662694931 3.3829134702682495, -4.465445876121521 l2.706330716609955, -7.7130430936813354 0.8118992298841476, -4.330129325389862 l0.6765826791524887, -7.577726244926453 0.1353165414184332, -8.118992447853088 l-0.2706330828368664, -0.8118992298841476 -0.8118992298841476, -0.5412661656737328 l-1.4884819090366364, 0.1353165414184332 -2.706330716609955, 2.8416472673416138 l-3.1122803688049316, 5.953927636146545 -2.029748111963272, 7.7130430936813354 l-1.4884819090366364, 8.930891752243042 " fill="none" stroke="black" stroke-width="1" /></svg>