<?xml version="1.0" encoding="utf-8" ?>
<svg baseProfile="full" height="37.19862475991249" version="1.1" width="32.19191242940724" xmlns="http://www.w3.org/2000/svg" xmlns:ev="http://www.w3.org/2001/xml-events" xmlns:xlink="http://www.w3.org/1999/xlink"><defs /><rect fill="white" height="37.19862475991249" width="32.19191242940724" x="0" y="0" /><path d="M17.449122220277786, 5 m-1.4884819090366364, 0.5412661656737328 l-1.3531653583049774, 1.3531653583049774 -0.8118992298841476, 1.6237984597682953 l0.0, 1.8944315612316132 0.4059496149420738, 0.5412661656737328 l1.7591150104999542, 0.8118992298841476 2.571014165878296, -0.2706330828368664 l0.6765826791524887, -0.6765826791524887 0.6765826791524887, -1.8944315612316132 l0.0, -0.8118992298841476 -1.3531653583049774, -1.2178488820791245 m-3.6535465717315674, 6.359877586364746 l-0.6765826791524887, -0.2706330828368664 -0.8118992298841476, 0.5412661656737328 l-2.029748111963272, 2.8416472673416138 -1.6237984597682953, 4.059496223926544 l-0.2706330828368664, 3.2475969195365906 0.2706330828368664, 1.7591150104999542 l1.2178488820791245, 2.165064662694931 2.165064662694931, 1.7591150104999542 l2.571014165878296, 0.9472157806158066 2.706330716609955, -0.2706330828368664 l2.8416472673416138, -1.4884819090366364 0.8118992298841476, -1.2178488820791245 l0.5412661656737328, -2.30038121342659 0.0, -4.059496223926544 l-0.6765826791524887, -3.3829134702682495 -1.3531653583049774, -2.165064662694931 l-2.30038121342659, -1.8944315612316132 m4.465445876121521, 2.706330716609955 l1.2178488820791245, -1.4884819090366364 1.6237984597682953, -0.4059496149420738 l0.5412661656737328, 1.3531653583049774 -0.4059496149420738, 0.8118992298841476 l-2.029748111963272, 1.0825323313474655 -2.706330716609955, 0.1353165414184332 m-10.690007209777832, -1.2178488820791245 l-1.2178488820791245, -0.8118992298841476 -1.4884819090366364, -0.1353165414184332 l-1.7591150104999542, 1.3531653583049774 -0.8118992298841476, 2.029748111963272 l0.0, 1.2178488820791245 3.2475969195365906, 0.1353165414184332 m3.3829134702682495, 8.254309296607971 l-2.706330716609955, 0.1353165414184332 -1.7591150104999542, 1.4884819090366364 l-0.2706330828368664, 0.8118992298841476 0.1353165414184332, 0.8118992298841476 l0.5412661656737328, 0.4059496149420738 2.571014165878296, -0.9472157806158066 m14.61418628692627, -5.277345180511475 l0.9472157806158066, -0.4059496149420738 0.8118992298841476, 0.1353165414184332 l0.6765826791524887, 1.2178488820791245 -0.1353165414184332, 1.0825323313474655 l-2.8416472673416138, 0.8118992298841476 -0.6765826791524887, 0.0 l-1.0825323313474655, -0.8118992298841476 " fill="none" stroke="black" stroke-width="1" /></svg>