<?xml version="1.0" encoding="utf-8" ?>
<svg baseProfile="full" height="61.014336347579956" version="1.1" width="51.542176976799965" xmlns="http://www.w3.org/2000/svg" xmlns:ev="http://www.w3.org/2001/xml-events" xmlns:xlink="http://www.w3.org/1999/xlink"><defs /><rect fill="white" height="61.014336347579956" width="51.542176976799965" x="0" y="0" /><path d="M25.297480281442404, 11.630510203540325 m-5.277345180511475, -1.8944315612316132 l-2.165064662694931, -0.1353165414184332 -3.6535465717315674, 1.3531653583049774 l-2.435697764158249, 2.435697764158249 -1.3531653583049774, 2.435697764158249 l-0.4059496149420738, 4.059496223926544 1.4884819090366364, 2.029748111963272 l3.5182300209999084, 3.1122803688049316 6.224560737609863, 2.435697764158249 l2.435697764158249, 0.0 5.81861138343811, -2.165064662694931 l2.30038121342659, -1.6237984597682953 0.6765826791524887, -0.6765826791524887 l1.0825323313474655, -3.5182300209999084 -0.1353165414184332, -3.2475969195365906 l-2.706330716609955, -2.165064662694931 -3.2475969195365906, -1.3531653583049774 m-10.013424158096313, 10.55469036102295 l-2.8416472673416138, 3.7888631224632263 -2.30038121342659, 2.029748111963272 l-1.2178488820791245, 4.736078977584839 0.0, 3.2475969195365906 l0.6765826791524887, 2.8416472673416138 3.1122803688049316, 5.142028331756592 l2.435697764158249, 2.029748111963272 2.435697764158249, 0.5412661656737328 l2.571014165878296, 0.0 4.60076242685318, -1.3531653583049774 l2.8416472673416138, -2.30038121342659 2.8416472673416138, -3.2475969195365906 l0.9472157806158066, -2.30038121342659 -0.1353165414184332, -4.194812774658203 l-0.5412661656737328, -2.30038121342659 -1.3531653583049774, -2.30038121342659 l-2.165064662694931, -1.8944315612316132 m5.953927636146545, 5.81861138343811 l4.330129325389862, -2.029748111963272 6.901143789291382, -8.524942398071289 m-36.26483201980591, 9.20152485370636 l-0.9472157806158066, -1.3531653583049774 -1.6237984597682953, -0.9472157806158066 l-2.706330716609955, -5.5479782819747925 m8.660258650779724, 20.297482013702393 l-0.1353165414184332, 0.8118992298841476 -4.465445876121521, 3.2475969195365906 l-1.7591150104999542, 2.30038121342659 2.165064662694931, 0.1353165414184332 m15.020135641098022, -6.089244484901428 l3.2475969195365906, 4.330129325389862 2.706330716609955, 6.630510687828064 m-1.6237984597682953, -44.24850940704346 l0.2706330828368664, -3.5182300209999084 0.5412661656737328, -0.6765826791524887 l1.7591150104999542, -0.8118992298841476 2.8416472673416138, 0.2706330828368664 l1.3531653583049774, 1.3531653583049774 0.5412661656737328, 2.165064662694931 l-0.9472157806158066, 1.3531653583049774 -2.8416472673416138, 2.165064662694931 m-19.214948415756226, -4.194812774658203 l-0.8118992298841476, -1.6237984597682953 -0.1353165414184332, -1.4884819090366364 l-0.9472157806158066, -1.4884819090366364 -2.029748111963272, -0.2706330828368664 l-1.7591150104999542, 0.6765826791524887 -1.7591150104999542, 2.029748111963272 l-0.1353165414184332, 2.029748111963272 0.8118992298841476, 1.3531653583049774 l2.9769638180732727, 1.6237984597682953 m12.178488969802856, 5.81861138343811 l-1.3531653583049774, 0.2706330828368664 0.0, 0.6765826791524887 l0.8118992298841476, 0.6765826791524887 0.8118992298841476, 0.0 l0.2706330828368664, -0.6765826791524887 -0.8118992298841476, -0.4059496149420738 " fill="none" stroke="black" stroke-width="1" /></svg>