<?xml version="1.0" encoding="utf-8" ?>
<svg baseProfile="full" height="46.264832746237516" version="1.1" width="35.98077562637627" xmlns="http://www.w3.org/2000/svg" xmlns:ev="http://www.w3.org/2001/xml-events" xmlns:xlink="http://www.w3.org/1999/xlink"><defs /><rect fill="white" height="46.264832746237516" width="35.98077562637627" x="0" y="0" /><path d="M5.40594975464046, 22.45583351701498 m-0.1353165414184332, -3.1122803688049316 l0.8118992298841476, -5.006712079048157 3.2475969195365906, -5.142028331756592 l1.4884819090366364, -1.4884819090366364 1.7591150104999542, -0.2706330828368664 l2.571014165878296, 1.2178488820791245 2.571014165878296, 3.7888631224632263 l0.9472157806158066, 2.8416472673416138 0.5412661656737328, 5.277345180511475 l-1.2178488820791245, 2.706330716609955 -2.165064662694931, 2.30038121342659 l-5.953927636146545, 0.8118992298841476 -2.571014165878296, -0.2706330828368664 l-2.30038121342659, -2.165064662694931 0.1353165414184332, -2.435697764158249 m9.472157955169678, -14.61418628692627 l4.194812774658203, -1.8944315612316132 0.6765826791524887, 1.4884819090366364 l0.2706330828368664, 3.7888631224632263 0.0, 0.9472157806158066 l-1.4884819090366364, 1.0825323313474655 m-8.795575499534607, -3.2475969195365906 l-1.2178488820791245, -1.8944315612316132 -1.2178488820791245, -0.4059496149420738 l-1.4884819090366364, 1.7591150104999542 -0.4059496149420738, 1.0825323313474655 l0.1353165414184332, 1.6237984597682953 3.5182300209999084, 1.0825323313474655 m6.089244484901428, -0.6765826791524887 l0.0, 0.1353165414184332 m-2.9769638180732727, 2.8416472673416138 l-0.1353165414184332, 0.0 m1.0825323313474655, 5.81861138343811 l0.2706330828368664, -0.2706330828368664 m-3.7888631224632263, 2.571014165878296 l1.6237984597682953, 0.2706330828368664 5.953927636146545, -2.029748111963272 m-2.435697764158249, 5.006712079048157 l4.871395528316498, 1.3531653583049774 3.5182300209999084, 0.0 l4.465445876121521, -1.2178488820791245 3.3829134702682495, -1.8944315612316132 l0.2706330828368664, 1.4884819090366364 -1.2178488820791245, 4.330129325389862 l-2.435697764158249, 4.465445876121521 -2.435697764158249, 1.7591150104999542 l-2.8416472673416138, 0.8118992298841476 -4.736078977584839, 0.1353165414184332 l-2.571014165878296, -0.4059496149420738 -4.465445876121521, -2.029748111963272 l-2.165064662694931, -3.3829134702682495 -0.2706330828368664, -1.3531653583049774 l0.5412661656737328, -1.7591150104999542 3.3829134702682495, -4.736078977584839 m-1.4884819090366364, 11.366589069366455 l-0.1353165414184332, 6.359877586364746 " fill="none" stroke="black" stroke-width="1" /></svg>