<?xml version="1.0" encoding="utf-8" ?>
<svg baseProfile="full" height="33.95102786831558" version="1.1" width="59.11990428343415" xmlns="http://www.w3.org/2000/svg" xmlns:ev="http://www.w3.org/2001/xml-events" xmlns:xlink="http://www.w3.org/1999/xlink"><defs /><rect fill="white" height="33.95102786831558" width="59.11990428343415" x="0" y="0" /><path d="M10.412662327289581, 28.139128144830465 m2.029748111963272, 0.5412661656737328 l1.3531653583049774, -0.1353165414184332 0.5412661656737328, -2.8416472673416138 l0.0, -5.6832945346832275 m2.706330716609955, 7.8483593463897705 l0.4059496149420738, -8.389625549316406 0.4059496149420738, 7.442409992218018 l1.2178488820791245, 2.029748111963272 2.029748111963272, -0.2706330828368664 l1.7591150104999542, -1.8944315612316132 0.2706330828368664, -6.359877586364746 m7.307093143463135, 0.2706330828368664 l-0.2706330828368664, 5.41266143321991 0.2706330828368664, 0.6765826791524887 l0.6765826791524887, 0.2706330828368664 4.736078977584839, 0.0 l0.5412661656737328, -1.6237984597682953 -0.4059496149420738, -4.736078977584839 m2.30038121342659, -0.1353165414184332 l0.1353165414184332, 4.059496223926544 0.8118992298841476, 1.3531653583049774 l0.6765826791524887, 0.5412661656737328 2.706330716609955, 0.1353165414184332 l0.8118992298841476, -0.2706330828368664 0.2706330828368664, -0.6765826791524887 l0.2706330828368664, -2.8416472673416138 -0.2706330828368664, -2.706330716609955 l-0.8118992298841476, -0.5412661656737328 m-33.017237186431885, 8.118992447853088 l-0.1353165414184332, -4.330129325389862 -0.9472157806158066, -3.5182300209999084 l23.81571054458618, -0.1353165414184332 11.231273412704468, -0.8118992298841476 l0.0, -0.5412661656737328 m-36.26483201980591, 1.0825323313474655 l-1.8944315612316132, -1.7591150104999542 -0.6765826791524887, -1.4884819090366364 l0.1353165414184332, -5.277345180511475 2.706330716609955, -3.5182300209999084 l2.165064662694931, -1.4884819090366364 7.1717768907547, -0.9472157806158066 l8.930891752243042, 0.0 3.1122803688049316, 0.4059496149420738 l9.472157955169678, 2.435697764158249 2.029748111963272, 1.2178488820791245 l4.059496223926544, 5.006712079048157 0.1353165414184332, 2.706330716609955 l-1.8944315612316132, 1.6237984597682953 m1.6237984597682953, -5.41266143321991 l5.953927636146545, -0.1353165414184332 2.9769638180732727, -1.2178488820791245 m-7.983676195144653, 4.194812774658203 l8.254309296607971, 0.9472157806158066 m-0.8118992298841476, -5.5479782819747925 l0.6765826791524887, 0.0 0.4059496149420738, 0.6765826791524887 l0.0, 4.330129325389862 -1.2178488820791245, 0.4059496149420738 m-2.165064662694931, -4.330129325389862 l-2.9769638180732727, -2.706330716609955 -3.3829134702682495, -1.2178488820791245 l-1.3531653583049774, 0.8118992298841476 -0.9472157806158066, 1.6237984597682953 m2.165064662694931, -0.4059496149420738 l2.029748111963272, -1.6237984597682953 0.6765826791524887, 0.2706330828368664 l0.4059496149420738, 1.8944315612316132 " fill="none" stroke="black" stroke-width="1" /></svg>