<?xml version="1.0" encoding="utf-8" ?>
<svg baseProfile="full" height="46.12951584160328" version="1.1" width="41.528753815218806" xmlns="http://www.w3.org/2000/svg" xmlns:ev="http://www.w3.org/2001/xml-events" xmlns:xlink="http://www.w3.org/1999/xlink"><defs /><rect fill="white" height="46.12951584160328" width="41.528753815218806" x="0" y="0" /><path d="M11.22456063516438, 17.71975476294756 m-0.1353165414184332, -3.7888631224632263 l0.6765826791524887, -1.6237984597682953 -2.029748111963272, -0.6765826791524887 l-0.8118992298841476, -1.7591150104999542 0.1353165414184332, -4.330129325389862 l0.6765826791524887, -0.5412661656737328 3.6535465717315674, 0.0 l0.8118992298841476, 0.5412661656737328 0.9472157806158066, 2.30038121342659 l1.2178488820791245, 0.4059496149420738 4.871395528316498, 0.2706330828368664 l3.3829134702682495, 0.8118992298841476 0.0, -2.165064662694931 l1.8944315612316132, -1.0825323313474655 1.4884819090366364, 0.5412661656737328 l1.2178488820791245, 2.9769638180732727 -0.2706330828368664, 0.6765826791524887 l-1.8944315612316132, 1.3531653583049774 1.8944315612316132, 10.960639715194702 l6.359877586364746, 0.1353165414184332 0.6765826791524887, 0.8118992298841476 l0.5412661656737328, 2.029748111963272 -0.2706330828368664, 0.8118992298841476 l-1.4884819090366364, 0.8118992298841476 -5.41266143321991, 0.4059496149420738 l0.1353165414184332, 5.41266143321991 -0.4059496149420738, 2.30038121342659 l3.6535465717315674, 1.0825323313474655 0.4059496149420738, 0.6765826791524887 l0.0, 1.7591150104999542 -0.6765826791524887, 1.6237984597682953 l-1.2178488820791245, 0.5412661656737328 -2.165064662694931, 0.1353165414184332 l-1.2178488820791245, -0.5412661656737328 -3.2475969195365906, -3.1122803688049316 l-6.765826940536499, -0.9472157806158066 -5.81861138343811, -0.2706330828368664 l-2.165064662694931, 1.6237984597682953 -4.330129325389862, 0.1353165414184332 l-0.5412661656737328, -0.6765826791524887 0.1353165414184332, -1.3531653583049774 l2.9769638180732727, -1.7591150104999542 0.6765826791524887, -4.194812774658203 l0.4059496149420738, -8.660258650779724 " fill="none" stroke="black" stroke-width="1" /></svg>