<?xml version="1.0" encoding="utf-8" ?>
<svg baseProfile="full" height="72.51624149270356" version="1.1" width="88.07764545083046" xmlns="http://www.w3.org/2000/svg" xmlns:ev="http://www.w3.org/2001/xml-events" xmlns:xlink="http://www.w3.org/1999/xlink"><defs /><rect fill="white" height="72.51624149270356" width="88.07764545083046" x="0" y="0" /><path d="M29.898243136703968, 10.277344640344381 m-3.2475969195365906, 0.1353165414184332 l-6.495193839073181, 2.30038121342659 -6.224560737609863, 4.465445876121521 l-4.330129325389862, 5.6832945346832275 -2.9769638180732727, 7.307093143463135 l-1.2178488820791245, 5.277345180511475 -0.4059496149420738, 4.194812774658203 l0.0, 10.55469036102295 2.571014165878296, 4.871395528316498 l2.029748111963272, 2.30038121342659 5.006712079048157, 3.7888631224632263 l7.442409992218018, 4.194812774658203 4.465445876121521, 1.4884819090366364 l4.60076242685318, 0.6765826791524887 12.855072021484375, 0.0 l13.531653881072998, -2.165064662694931 12.855072021484375, -3.9241796731948853 l5.81861138343811, -3.1122803688049316 3.6535465717315674, -2.9769638180732727 l1.7591150104999542, -3.2475969195365906 1.4884819090366364, -5.5479782819747925 l0.0, -4.736078977584839 -4.465445876121521, -14.61418628692627 l-2.706330716609955, -3.9241796731948853 -2.165064662694931, -2.165064662694931 l-8.389625549316406, -6.089244484901428 -5.142028331756592, -2.8416472673416138 l-5.41266143321991, -1.6237984597682953 -10.419373512268066, -1.4884819090366364 l-6.901143789291382, 0.5412661656737328 -3.1122803688049316, 1.0825323313474655 l-3.2475969195365906, 2.30038121342659 -1.6237984597682953, 0.1353165414184332 m-15.832035541534424, 2.435697764158249 l-1.4884819090366364, 0.0 -2.30038121342659, -1.0825323313474655 l-2.165064662694931, -1.8944315612316132 -0.6765826791524887, -1.3531653583049774 l-0.1353165414184332, -1.8944315612316132 0.6765826791524887, -0.8118992298841476 l2.30038121342659, -0.4059496149420738 1.4884819090366364, 0.5412661656737328 l0.8118992298841476, 0.6765826791524887 1.2178488820791245, 2.435697764158249 l0.0, 1.6237984597682953 -1.8944315612316132, 0.9472157806158066 m54.12661552429199, -2.8416472673416138 l-1.2178488820791245, -1.0825323313474655 -0.6765826791524887, -1.7591150104999542 l0.0, -2.435697764158249 1.6237984597682953, -1.2178488820791245 l1.4884819090366364, 0.0 1.4884819090366364, 1.3531653583049774 l0.2706330828368664, 3.5182300209999084 -4.059496223926544, 2.029748111963272 m-37.617998123168945, 9.87810730934143 l-2.8416472673416138, 0.4059496149420738 -2.30038121342659, 1.6237984597682953 l-0.8118992298841476, 0.6765826791524887 -1.2178488820791245, 2.435697764158249 l0.2706330828368664, 3.3829134702682495 3.3829134702682495, 2.30038121342659 l3.1122803688049316, 0.1353165414184332 4.465445876121521, -2.029748111963272 l0.6765826791524887, -0.6765826791524887 0.0, -0.8118992298841476 l-0.4059496149420738, -1.3531653583049774 -3.2475969195365906, -3.5182300209999084 l-2.165064662694931, -1.6237984597682953 -2.165064662694931, -0.5412661656737328 m28.145840167999268, 1.0825323313474655 l-1.4884819090366364, 0.4059496149420738 -0.6765826791524887, 2.029748111963272 l0.0, 2.571014165878296 2.435697764158249, 2.435697764158249 l2.30038121342659, 1.2178488820791245 3.3829134702682495, -0.2706330828368664 l1.8944315612316132, -2.435697764158249 0.1353165414184332, -3.1122803688049316 l-1.6237984597682953, -2.30038121342659 -3.1122803688049316, -1.8944315612316132 l-2.706330716609955, -0.4059496149420738 -2.8416472673416138, 0.4059496149420738 " fill="none" stroke="black" stroke-width="1" /></svg>