<?xml version="1.0" encoding="utf-8" ?>
<svg baseProfile="full" height="48.42989709228277" version="1.1" width="62.232184782624245" xmlns="http://www.w3.org/2000/svg" xmlns:ev="http://www.w3.org/2001/xml-events" xmlns:xlink="http://www.w3.org/1999/xlink"><defs /><rect fill="white" height="48.42989709228277" width="62.232184782624245" x="0" y="0" /><path d="M33.41647367924452, 42.617997685447335 m-10.013424158096313, 0.1353165414184332 l-8.930891752243042, -3.9241796731948853 -5.41266143321991, -4.871395528316498 l-0.9472157806158066, -2.706330716609955 -0.1353165414184332, -5.953927636146545 l0.5412661656737328, -2.029748111963272 2.30038121342659, -3.3829134702682495 l4.059496223926544, -4.194812774658203 1.3531653583049774, -0.8118992298841476 l4.871395528316498, -2.165064662694931 4.736078977584839, -1.2178488820791245 l8.118992447853088, -0.9472157806158066 5.277345180511475, 0.0 l2.706330716609955, 0.6765826791524887 4.465445876121521, 2.165064662694931 l3.7888631224632263, 3.7888631224632263 1.4884819090366364, 2.165064662694931 l1.8944315612316132, 4.736078977584839 0.8118992298841476, 4.60076242685318 l-0.4059496149420738, 4.871395528316498 -2.30038121342659, 3.5182300209999084 l-1.8944315612316132, 1.6237984597682953 -7.307093143463135, 2.8416472673416138 l-6.089244484901428, 1.4884819090366364 -4.330129325389862, 0.4059496149420738 l-7.036460041999817, -0.1353165414184332 -2.165064662694931, -0.6765826791524887 m-9.742791056632996, -25.980775356292725 l-0.2706330828368664, 1.3531653583049774 -0.9472157806158066, 0.1353165414184332 l-3.3829134702682495, -1.2178488820791245 -2.165064662694931, -1.4884819090366364 l-1.2178488820791245, -2.165064662694931 -0.1353165414184332, -1.8944315612316132 l0.4059496149420738, -0.9472157806158066 5.41266143321991, -2.30038121342659 l2.571014165878296, 0.0 0.6765826791524887, 1.6237984597682953 l0.0, 4.330129325389862 -1.3531653583049774, 3.5182300209999084 l-0.5412661656737328, 0.4059496149420738 m32.74660348892212, -6.495193839073181 l0.0, -2.30038121342659 1.2178488820791245, -2.30038121342659 l0.9472157806158066, -0.9472157806158066 2.571014165878296, -0.9472157806158066 l2.8416472673416138, 0.0 2.9769638180732727, 1.4884819090366364 l1.7591150104999542, 3.1122803688049316 0.0, 1.3531653583049774 l-1.0825323313474655, 0.9472157806158066 -1.0825323313474655, 0.2706330828368664 l-3.3829134702682495, 0.1353165414184332 -6.089244484901428, -2.029748111963272 m-26.522042751312256, 28.010523319244385 l-0.5412661656737328, -0.9472157806158066 0.0, -2.8416472673416138 l0.9472157806158066, -1.6237984597682953 2.706330716609955, -2.706330716609955 l3.9241796731948853, -1.4884819090366364 6.224560737609863, -0.1353165414184332 l6.359877586364746, 1.4884819090366364 4.871395528316498, 2.30038121342659 l2.8416472673416138, 3.5182300209999084 0.2706330828368664, 2.8416472673416138 l-0.8118992298841476, 0.1353165414184332 m-17.7264666557312, -5.006712079048157 l1.2178488820791245, 0.4059496149420738 3.5182300209999084, 0.0 l3.7888631224632263, -1.0825323313474655 -2.706330716609955, 0.0 l-7.1717768907547, 1.3531653583049774 " fill="none" stroke="black" stroke-width="1" /></svg>