<?xml version="1.0" encoding="utf-8" ?>
<svg baseProfile="full" height="50.189012475311756" version="1.1" width="75.35788893699646" xmlns="http://www.w3.org/2000/svg" xmlns:ev="http://www.w3.org/2001/xml-events" xmlns:xlink="http://www.w3.org/1999/xlink"><defs /><rect fill="white" height="50.189012475311756" width="75.35788893699646" x="0" y="0" /><path d="M9.600762352347374, 20.83203517831862 m-1.4884819090366364, -0.5412661656737328 l-2.435697764158249, -2.8416472673416138 -0.6765826791524887, -3.9241796731948853 l0.4059496149420738, -1.6237984597682953 1.3531653583049774, -2.165064662694931 l3.7888631224632263, -2.30038121342659 2.571014165878296, -0.1353165414184332 l3.5182300209999084, 0.9472157806158066 6.630510687828064, 4.736078977584839 l1.8944315612316132, 2.8416472673416138 0.8118992298841476, -2.30038121342659 l2.571014165878296, -1.7591150104999542 2.8416472673416138, -1.0825323313474655 l6.359877586364746, -1.3531653583049774 5.5479782819747925, 1.2178488820791245 l6.495193839073181, 2.706330716609955 1.2178488820791245, 1.2178488820791245 l1.0825323313474655, -3.6535465717315674 3.6535465717315674, -3.5182300209999084 l3.7888631224632263, -2.029748111963272 2.9769638180732727, -0.2706330828368664 l3.6535465717315674, 1.2178488820791245 3.6535465717315674, 3.2475969195365906 l0.5412661656737328, 2.706330716609955 0.0, 8.930891752243042 l-0.4059496149420738, 0.6765826791524887 -1.4884819090366364, 0.8118992298841476 l-5.5479782819747925, 2.029748111963272 -2.029748111963272, 2.029748111963272 l-3.3829134702682495, 7.1717768907547 -3.3829134702682495, 5.953927636146545 l-2.706330716609955, 2.8416472673416138 -4.330129325389862, 2.029748111963272 l-7.307093143463135, 0.5412661656737328 -5.81861138343811, -0.8118992298841476 l-8.254309296607971, -2.435697764158249 -3.3829134702682495, -1.7591150104999542 l-5.6832945346832275, -4.059496223926544 -2.165064662694931, -2.706330716609955 l-3.9241796731948853, -8.795575499534607 -0.6765826791524887, -6.224560737609863 m16.508618593215942, 1.4884819090366364 l-1.3531653583049774, 1.4884819090366364 -0.5412661656737328, 1.6237984597682953 l0.4059496149420738, 1.6237984597682953 1.7591150104999542, 1.0825323313474655 l3.3829134702682495, 0.1353165414184332 0.9472157806158066, -1.2178488820791245 l-0.1353165414184332, -2.029748111963272 -0.8118992298841476, -1.8944315612316132 l-1.4884819090366364, -1.7591150104999542 m11.772539615631104, 4.194812774658203 l-1.0825323313474655, -2.029748111963272 0.1353165414184332, -0.6765826791524887 l1.4884819090366364, -1.4884819090366364 2.165064662694931, -0.6765826791524887 l3.2475969195365906, 0.1353165414184332 1.2178488820791245, 1.3531653583049774 l0.2706330828368664, 1.6237984597682953 -0.5412661656737328, 2.165064662694931 l-0.6765826791524887, 0.4059496149420738 -3.3829134702682495, 0.1353165414184332 l-2.165064662694931, -0.6765826791524887 -0.6765826791524887, -0.6765826791524887 l-0.4059496149420738, -0.9472157806158066 0.1353165414184332, -1.7591150104999542 m-12.31380581855774, 9.20152485370636 l0.5412661656737328, 0.6765826791524887 -0.2706330828368664, 0.8118992298841476 " fill="none" stroke="black" stroke-width="1" /></svg>