<?xml version="1.0" encoding="utf-8" ?>
<svg baseProfile="full" height="39.769638795405626" version="1.1" width="47.753314366564155" xmlns="http://www.w3.org/2000/svg" xmlns:ev="http://www.w3.org/2001/xml-events" xmlns:xlink="http://www.w3.org/1999/xlink"><defs /><rect fill="white" height="39.769638795405626" width="47.753314366564155" x="0" y="0" /><path d="M19.072920251637697, 7.706330828368664 m-2.706330716609955, 0.2706330828368664 l-2.165064662694931, 0.8118992298841476 -3.2475969195365906, 1.7591150104999542 l-3.3829134702682495, 2.706330716609955 -1.2178488820791245, 2.30038121342659 l-0.6765826791524887, 2.571014165878296 -0.1353165414184332, 5.006712079048157 l0.9472157806158066, 3.3829134702682495 1.0825323313474655, 1.7591150104999542 l5.277345180511475, 4.465445876121521 2.8416472673416138, 1.2178488820791245 l3.5182300209999084, 0.8118992298841476 2.8416472673416138, -0.1353165414184332 l2.165064662694931, -0.5412661656737328 1.7591150104999542, -0.8118992298841476 l2.8416472673416138, -2.435697764158249 3.2475969195365906, -3.7888631224632263 l0.9472157806158066, -2.165064662694931 0.9472157806158066, -3.3829134702682495 l0.4059496149420738, -3.1122803688049316 -0.1353165414184332, -3.9241796731948853 l-0.6765826791524887, -2.435697764158249 -0.9472157806158066, -1.4884819090366364 l-2.029748111963272, -1.7591150104999542 -2.435697764158249, -1.2178488820791245 l-2.571014165878296, -0.6765826791524887 -4.736078977584839, 0.0 l-6.765826940536499, 2.571014165878296 m-5.5479782819747925, 3.7888631224632263 l-1.3531653583049774, -0.1353165414184332 -1.2178488820791245, -0.9472157806158066 l-0.9472157806158066, -2.165064662694931 0.1353165414184332, -2.571014165878296 l0.8118992298841476, -1.3531653583049774 0.8118992298841476, -0.5412661656737328 l1.6237984597682953, -0.5412661656737328 2.706330716609955, 0.5412661656737328 l4.194812774658203, 3.9241796731948853 m18.267732858657837, 1.0825323313474655 l0.9472157806158066, -2.8416472673416138 3.2475969195365906, -1.8944315612316132 l2.571014165878296, -0.4059496149420738 1.4884819090366364, 0.2706330828368664 l0.9472157806158066, 1.0825323313474655 0.0, 0.9472157806158066 l-1.3531653583049774, 3.3829134702682495 -2.029748111963272, 2.8416472673416138 l-2.30038121342659, 1.7591150104999542 -3.3829134702682495, 1.2178488820791245 m-14.208236932754517, 2.8416472673416138 l-0.9472157806158066, 3.3829134702682495 0.4059496149420738, 1.0825323313474655 l0.5412661656737328, 0.0 0.5412661656737328, -0.4059496149420738 l0.9472157806158066, -1.8944315612316132 -0.1353165414184332, -0.5412661656737328 l-1.0825323313474655, 0.4059496149420738 0.6765826791524887, 0.1353165414184332 l0.2706330828368664, -1.2178488820791245 -0.5412661656737328, -0.1353165414184332 l-0.8118992298841476, 0.5412661656737328 m-3.2475969195365906, -6.901143789291382 l-1.0825323313474655, 1.2178488820791245 0.0, 0.6765826791524887 l0.5412661656737328, 0.2706330828368664 2.029748111963272, -0.6765826791524887 l0.5412661656737328, -1.0825323313474655 m6.495193839073181, -0.2706330828368664 l0.0, 0.0 " fill="none" stroke="black" stroke-width="1" /></svg>