<?xml version="1.0" encoding="utf-8" ?>
<svg baseProfile="full" height="48.700529942288995" version="1.1" width="48.159264139831066" xmlns="http://www.w3.org/2000/svg" xmlns:ev="http://www.w3.org/2001/xml-events" xmlns:xlink="http://www.w3.org/1999/xlink"><defs /><rect fill="white" height="48.700529942288995" width="48.159264139831066" x="0" y="0" /><path d="M18.125704489648342, 43.02394754253328 m-2.435697764158249, 0.1353165414184332 l-5.006712079048157, -1.3531653583049774 -3.5182300209999084, -2.706330716609955 l-1.7591150104999542, -3.3829134702682495 -0.4059496149420738, -7.7130430936813354 l0.6765826791524887, -3.5182300209999084 2.029748111963272, -3.2475969195365906 l3.3829134702682495, -2.8416472673416138 0.2706330828368664, -0.6765826791524887 l-4.194812774658203, -6.495193839073181 -1.8944315612316132, -5.953927636146545 l0.6765826791524887, -0.2706330828368664 0.9472157806158066, 0.0 l2.9769638180732727, 1.4884819090366364 3.9241796731948853, 3.5182300209999084 l2.571014165878296, 3.6535465717315674 2.8416472673416138, 5.277345180511475 l2.029748111963272, -0.8118992298841476 3.7888631224632263, -0.1353165414184332 l1.4884819090366364, 0.2706330828368664 5.81861138343811, 2.571014165878296 l4.465445876121521, -11.63722276687622 2.029748111963272, -2.30038121342659 l1.4884819090366364, -0.2706330828368664 0.6765826791524887, 0.8118992298841476 l0.4059496149420738, 1.6237984597682953 -0.4059496149420738, 16.102668046951294 l1.8944315612316132, 4.60076242685318 0.2706330828368664, 5.277345180511475 l-4.194812774658203, 4.059496223926544 -5.277345180511475, 2.706330716609955 l-3.1122803688049316, 1.0825323313474655 -9.20152485370636, 0.8118992298841476 l-4.330129325389862, 0.0 -1.0825323313474655, -0.6765826791524887 m-2.029748111963272, -20.568113327026367 l-0.6765826791524887, 0.4059496149420738 1.2178488820791245, 0.0 m16.779251098632812, 1.3531653583049774 l0.6765826791524887, 0.4059496149420738 m-13.937603235244751, 5.41266143321991 l4.736078977584839, -0.1353165414184332 5.953927636146545, 1.6237984597682953 l2.9769638180732727, 1.3531653583049774 0.8118992298841476, 1.3531653583049774 l-0.1353165414184332, 0.6765826791524887 -4.330129325389862, 1.2178488820791245 l-7.8483593463897705, 0.1353165414184332 -2.029748111963272, -0.5412661656737328 m-4.736078977584839, 2.706330716609955 l0.4059496149420738, 1.3531653583049774 5.5479782819747925, 1.2178488820791245 l3.7888631224632263, 0.0 5.142028331756592, -1.4884819090366364 m-16.508618593215942, -1.3531653583049774 l4.60076242685318, -0.2706330828368664 10.284056663513184, 0.5412661656737328 m8.254309296607971, -16.64393424987793 l2.435697764158249, -0.2706330828368664 1.0825323313474655, -1.7591150104999542 l1.3531653583049774, -5.006712079048157 0.1353165414184332, -6.495193839073181 l-5.6832945346832275, 9.607474207878113 -0.9472157806158066, 2.9769638180732727 l0.1353165414184332, 0.8118992298841476 m-2.435697764158249, 2.30038121342659 l2.571014165878296, 0.8118992298841476 0.9472157806158066, 0.8118992298841476 l0.6765826791524887, 0.9472157806158066 0.2706330828368664, 2.8416472673416138 l-0.9472157806158066, 1.0825323313474655 -1.6237984597682953, 0.6765826791524887 l-3.7888631224632263, 0.0 -1.6237984597682953, -1.8944315612316132 l-0.2706330828368664, -2.029748111963272 0.6765826791524887, -1.0825323313474655 l3.5182300209999084, -0.9472157806158066 2.165064662694931, 0.4059496149420738 " fill="none" stroke="black" stroke-width="1" /></svg>