<?xml version="1.0" encoding="utf-8" ?>
<svg baseProfile="full" height="49.37711350619793" version="1.1" width="36.11609235405922" xmlns="http://www.w3.org/2000/svg" xmlns:ev="http://www.w3.org/2001/xml-events" xmlns:xlink="http://www.w3.org/1999/xlink"><defs /><rect fill="white" height="49.37711350619793" width="36.11609235405922" x="0" y="0" /><path d="M15.148740708827972, 8.653546748682857 m-3.9241796731948853, 2.435697764158249 l-1.7591150104999542, 2.706330716609955 0.5412661656737328, 3.5182300209999084 l3.2475969195365906, 3.9241796731948853 2.165064662694931, 0.8118992298841476 l3.6535465717315674, -0.9472157806158066 3.1122803688049316, -1.8944315612316132 l1.6237984597682953, -2.571014165878296 -0.4059496149420738, -5.5479782819747925 l-3.3829134702682495, -0.1353165414184332 -2.165064662694931, -0.4059496149420738 l-0.6765826791524887, -0.6765826791524887 m6.089244484901428, 0.4059496149420738 l1.3531653583049774, -2.8416472673416138 2.8416472673416138, -1.7591150104999542 l2.9769638180732727, 0.8118992298841476 0.6765826791524887, 2.571014165878296 l-0.8118992298841476, 2.8416472673416138 -2.9769638180732727, 0.9472157806158066 m-11.63722276687622, -4.330129325389862 l-0.6765826791524887, 0.0 -2.165064662694931, -2.9769638180732727 l-2.9769638180732727, -0.5412661656737328 -3.1122803688049316, 1.4884819090366364 l-1.7591150104999542, 2.706330716609955 1.7591150104999542, 2.435697764158249 l3.2475969195365906, 1.0825323313474655 m1.3531653583049774, 6.089244484901428 l-3.5182300209999084, 6.359877586364746 -1.4884819090366364, 9.066208004951477 l0.0, 7.442409992218018 0.9472157806158066, 2.706330716609955 l5.5479782819747925, -0.1353165414184332 2.9769638180732727, -3.1122803688049316 l5.41266143321991, -18.538366556167603 0.1353165414184332, -4.736078977584839 m-1.2178488820791245, 0.9472157806158066 l2.9769638180732727, 0.9472157806158066 4.059496223926544, 4.059496223926544 l1.2178488820791245, 3.2475969195365906 0.0, 2.029748111963272 l-6.630510687828064, 0.0 -0.6765826791524887, -0.2706330828368664 l-1.8944315612316132, -9.20152485370636 " fill="none" stroke="black" stroke-width="1" /></svg>