<?xml version="1.0" encoding="utf-8" ?>
<svg baseProfile="full" height="47.48268329538405" version="1.1" width="46.80609812960029" xmlns="http://www.w3.org/2000/svg" xmlns:ev="http://www.w3.org/2001/xml-events" xmlns:xlink="http://www.w3.org/1999/xlink"><defs /><rect fill="white" height="47.48268329538405" width="46.80609812960029" x="0" y="0" /><path d="M21.102668326348066, 10.27734654955566 m-4.871395528316498, 0.0 l-6.495193839073181, 4.059496223926544 -2.30038121342659, 2.30038121342659 l-0.9472157806158066, 1.2178488820791245 -1.2178488820791245, 3.3829134702682495 l-0.2706330828368664, 8.524942398071289 1.7591150104999542, 5.41266143321991 l3.1122803688049316, 4.059496223926544 3.5182300209999084, 1.4884819090366364 l5.5479782819747925, 1.4884819090366364 6.359877586364746, 0.2706330828368664 l3.1122803688049316, -0.4059496149420738 4.871395528316498, -1.6237984597682953 l2.435697764158249, -2.706330716609955 2.571014165878296, -5.277345180511475 l1.3531653583049774, -4.736078977584839 0.1353165414184332, -6.089244484901428 l-2.029748111963272, -4.194812774658203 -2.706330716609955, -2.8416472673416138 l-1.3531653583049774, -0.8118992298841476 -7.983676195144653, -3.5182300209999084 l-5.953927636146545, -0.4059496149420738 -2.029748111963272, 0.6765826791524887 m-0.8118992298841476, 9.066208004951477 l-0.1353165414184332, 2.9769638180732727 -0.9472157806158066, -3.1122803688049316 l0.1353165414184332, 3.5182300209999084 0.2706330828368664, -3.3829134702682495 m10.82532286643982, -0.4059496149420738 l0.0, 4.194812774658203 -0.8118992298841476, -3.7888631224632263 l0.6765826791524887, -0.5412661656737328 0.8118992298841476, 0.9472157806158066 m-2.571014165878296, 7.577726244926453 l-6.495193839073181, 0.0 -0.8118992298841476, 0.2706330828368664 l-0.4059496149420738, 0.8118992298841476 -0.6765826791524887, 3.3829134702682495 l0.0, 1.4884819090366364 0.4059496149420738, 0.6765826791524887 l2.165064662694931, 0.8118992298841476 3.5182300209999084, 0.0 l2.8416472673416138, -1.0825323313474655 1.4884819090366364, -1.2178488820791245 l0.5412661656737328, -1.3531653583049774 -0.4059496149420738, -1.8944315612316132 l-1.0825323313474655, -1.6237984597682953 -2.029748111963272, -0.1353165414184332 m-3.9241796731948853, 3.7888631224632263 l1.8944315612316132, 0.0 m0.2706330828368664, 0.5412661656737328 l-0.1353165414184332, 3.9241796731948853 -1.0825323313474655, 1.4884819090366364 l-3.6535465717315674, 1.4884819090366364 -2.435697764158249, 0.2706330828368664 l-1.2178488820791245, -1.7591150104999542 -0.1353165414184332, -1.0825323313474655 m8.930891752243042, -2.8416472673416138 l0.4059496149420738, 2.706330716609955 1.4884819090366364, 2.30038121342659 l2.9769638180732727, 0.4059496149420738 1.6237984597682953, -2.435697764158249 m-7.442409992218018, -4.736078977584839 l1.8944315612316132, -0.1353165414184332 0.5412661656737328, 0.6765826791524887 l-1.4884819090366364, 0.2706330828368664 -0.6765826791524887, -0.8118992298841476 l0.2706330828368664, -0.6765826791524887 1.7591150104999542, 0.0 l0.1353165414184332, 0.6765826791524887 -0.8118992298841476, 0.8118992298841476 l-1.4884819090366364, 0.1353165414184332 0.0, -1.4884819090366364 m-1.8944315612316132, 6.630510687828064 l0.4059496149420738, 1.3531653583049774 2.165064662694931, 0.6765826791524887 l0.6765826791524887, 0.0 2.029748111963272, -1.3531653583049774 m-18.538366556167603, -21.515331268310547 l-1.2178488820791245, -2.165064662694931 -0.4059496149420738, -4.059496223926544 l1.2178488820791245, -2.571014165878296 1.2178488820791245, -1.2178488820791245 l2.8416472673416138, -1.4884819090366364 4.194812774658203, -0.5412661656737328 l2.029748111963272, 0.6765826791524887 1.2178488820791245, 1.6237984597682953 m11.63722276687622, 4.194812774658203 l1.6237984597682953, -3.5182300209999084 1.7591150104999542, -1.0825323313474655 l3.7888631224632263, -0.2706330828368664 3.1122803688049316, 1.4884819090366364 l1.4884819090366364, 2.30038121342659 0.5412661656737328, 5.142028331756592 l-1.6237984597682953, 2.165064662694931 -1.8944315612316132, 1.3531653583049774 m-5.953927636146545, -7.442409992218018 l1.8944315612316132, -0.9472157806158066 1.4884819090366364, 0.0 l1.0825323313474655, 1.4884819090366364 0.1353165414184332, 0.9472157806158066 l-0.9472157806158066, 2.30038121342659 m-25.033559799194336, -2.30038121342659 l-0.9472157806158066, -1.6237984597682953 0.0, -1.7591150104999542 l0.5412661656737328, -0.8118992298841476 4.465445876121521, -0.4059496149420738 l1.4884819090366364, 1.8944315612316132 " fill="none" stroke="black" stroke-width="1" /></svg>