<?xml version="1.0" encoding="utf-8" ?>
<svg baseProfile="full" height="102.55651399493217" version="1.1" width="56.14294051192701" xmlns="http://www.w3.org/2000/svg" xmlns:ev="http://www.w3.org/2001/xml-events" xmlns:xlink="http://www.w3.org/1999/xlink"><defs /><rect fill="white" height="102.55651399493217" width="56.14294051192701" x="0" y="0" /><path d="M20.96735124476254, 18.531652530655265 m-0.9472157806158066, 0.1353165414184332 l-3.3829134702682495, 2.029748111963272 -4.465445876121521, 3.6535465717315674 l-2.706330716609955, 3.3829134702682495 -2.30038121342659, 4.059496223926544 l-1.0825323313474655, 2.706330716609955 -0.8118992298841476, 5.142028331756592 l0.2706330828368664, 4.330129325389862 1.6237984597682953, 3.5182300209999084 l2.435697764158249, 1.8944315612316132 3.6535465717315674, 1.2178488820791245 l4.736078977584839, 1.0825323313474655 3.7888631224632263, 0.2706330828368664 l11.231273412704468, 0.0 3.9241796731948853, -0.5412661656737328 l6.089244484901428, -2.571014165878296 3.9241796731948853, -3.6535465717315674 l2.706330716609955, -3.6535465717315674 1.0825323313474655, -3.3829134702682495 l0.4059496149420738, -3.1122803688049316 0.0, -2.435697764158249 l-1.4884819090366364, -4.330129325389862 -1.4884819090366364, -2.8416472673416138 l-3.5182300209999084, -3.1122803688049316 -5.277345180511475, -2.029748111963272 l-4.465445876121521, -0.5412661656737328 -13.66697072982788, 0.5412661656737328 l-5.41266143321991, 1.3531653583049774 -6.630510687828064, 2.706330716609955 l-1.0825323313474655, 1.3531653583049774 -0.1353165414184332, 2.029748111963272 m2.30038121342659, 21.515331268310547 l-2.435697764158249, 7.442409992218018 -1.8944315612316132, 9.066208004951477 l-0.9472157806158066, 11.231273412704468 0.0, 5.5479782819747925 l1.0825323313474655, 4.871395528316498 1.6237984597682953, 3.9241796731948853 l1.4884819090366364, 2.706330716609955 2.706330716609955, 3.5182300209999084 l16.508618593215942, 0.0 2.165064662694931, -0.5412661656737328 l3.2475969195365906, -1.4884819090366364 5.006712079048157, -4.330129325389862 l3.2475969195365906, -5.277345180511475 1.6237984597682953, -6.765826940536499 l0.0, -4.736078977584839 -0.6765826791524887, -3.9241796731948853 l-2.706330716609955, -5.953927636146545 -8.795575499534607, -10.55469036102295 m-10.419373512268066, -15.832035541534424 l0.2706330828368664, 3.2475969195365906 1.2178488820791245, 1.4884819090366364 l1.3531653583049774, 0.6765826791524887 2.029748111963272, 0.1353165414184332 l1.4884819090366364, -0.5412661656737328 1.4884819090366364, -0.9472157806158066 l0.9472157806158066, -1.4884819090366364 0.2706330828368664, -2.435697764158249 l-0.6765826791524887, -2.165064662694931 -1.4884819090366364, -0.9472157806158066 l-4.60076242685318, -0.2706330828368664 -1.2178488820791245, 0.8118992298841476 l-2.029748111963272, 5.142028331756592 m-4.059496223926544, -13.937603235244751 l-0.2706330828368664, 0.6765826791524887 0.5412661656737328, 0.1353165414184332 m17.861783504486084, 0.0 l0.0, 0.0 m-19.75621461868286, -6.089244484901428 l-0.8118992298841476, -1.3531653583049774 -0.6765826791524887, -2.706330716609955 l-0.2706330828368664, -7.036460041999817 2.30038121342659, -3.2475969195365906 l3.5182300209999084, -2.30038121342659 3.2475969195365906, 4.871395528316498 l1.8944315612316132, 3.9241796731948853 1.3531653583049774, 4.330129325389862 l0.4059496149420738, 5.277345180511475 0.0, -0.9472157806158066 l0.9472157806158066, -1.3531653583049774 m6.765826940536499, 1.2178488820791245 l3.2475969195365906, -4.60076242685318 3.3829134702682495, -3.5182300209999084 l5.5479782819747925, -3.5182300209999084 3.6535465717315674, -0.2706330828368664 " fill="none" stroke="black" stroke-width="1" /></svg>