<?xml version="1.0" encoding="utf-8" ?>
<svg baseProfile="full" height="32.8684950619936" version="1.1" width="37.46925838291645" xmlns="http://www.w3.org/2000/svg" xmlns:ev="http://www.w3.org/2001/xml-events" xmlns:xlink="http://www.w3.org/1999/xlink"><defs /><rect fill="white" height="32.8684950619936" width="37.46925838291645" x="0" y="0" /><path d="M23.5383662302047, 11.630510166287422 m-1.6237984597682953, -0.6765826791524887 l-5.6832945346832275, 0.6765826791524887 -4.059496223926544, 1.7591150104999542 l-1.8944315612316132, 2.30038121342659 -0.6765826791524887, 2.165064662694931 l0.2706330828368664, 5.277345180511475 2.435697764158249, 3.2475969195365906 l2.435697764158249, 1.4884819090366364 9.472157955169678, 0.0 l3.1122803688049316, -2.571014165878296 1.6237984597682953, -2.9769638180732727 l0.9472157806158066, -2.30038121342659 -0.1353165414184332, -5.142028331756592 l-3.5182300209999084, -2.435697764158249 -3.1122803688049316, -0.9472157806158066 m-2.165064662694931, -0.6765826791524887 l0.0, -2.435697764158249 1.2178488820791245, -1.2178488820791245 l4.60076242685318, -2.165064662694931 2.435697764158249, 0.0 l1.4884819090366364, 0.8118992298841476 1.2178488820791245, 2.165064662694931 l0.5412661656737328, 5.5479782819747925 0.0, 0.8118992298841476 l-0.6765826791524887, 0.6765826791524887 -2.435697764158249, 0.0 m-12.855072021484375, -3.3829134702682495 l-1.4884819090366364, -3.5182300209999084 -1.3531653583049774, -1.3531653583049774 l-6.089244484901428, 0.0 -2.571014165878296, 4.194812774658203 l0.0, 2.30038121342659 1.4884819090366364, 2.165064662694931 l2.165064662694931, 1.3531653583049774 2.8416472673416138, 0.2706330828368664 m3.9241796731948853, 5.953927636146545 l1.0825323313474655, 1.3531653583049774 0.6765826791524887, 0.1353165414184332 l1.4884819090366364, -0.2706330828368664 1.3531653583049774, -0.9472157806158066 l0.4059496149420738, 1.4884819090366364 2.029748111963272, 0.2706330828368664 l0.6765826791524887, -0.1353165414184332 0.4059496149420738, -2.029748111963272 m-0.6765826791524887, -6.495193839073181 l0.0, 2.165064662694931 m-8.524942398071289, -2.8416472673416138 l0.1353165414184332, 2.435697764158249 " fill="none" stroke="black" stroke-width="1" /></svg>