<?xml version="1.0" encoding="utf-8" ?>
<svg baseProfile="full" height="61.28496925346553" version="1.1" width="49.51243062503636" xmlns="http://www.w3.org/2000/svg" xmlns:ev="http://www.w3.org/2001/xml-events" xmlns:xlink="http://www.w3.org/1999/xlink"><defs /><rect fill="white" height="61.28496925346553" width="49.51243062503636" x="0" y="0" /><path d="M16.366589348763227, 11.359877437353134 m-0.9472157806158066, -0.8118992298841476 l-0.1353165414184332, -1.8944315612316132 1.2178488820791245, -2.435697764158249 l1.8944315612316132, -1.2178488820791245 1.2178488820791245, 0.1353165414184332 l2.435697764158249, 2.8416472673416138 5.953927636146545, -0.2706330828368664 l2.706330716609955, 0.9472157806158066 0.9472157806158066, 0.8118992298841476 l0.0, 0.5412661656737328 0.5412661656737328, -1.7591150104999542 l1.3531653583049774, -1.8944315612316132 1.7591150104999542, -0.8118992298841476 l1.2178488820791245, 0.1353165414184332 1.4884819090366364, 1.0825323313474655 l0.8118992298841476, 1.8944315612316132 -0.5412661656737328, 2.706330716609955 l0.0, 3.9241796731948853 -0.8118992298841476, 3.2475969195365906 l-2.435697764158249, 2.435697764158249 -2.435697764158249, 1.2178488820791245 l-4.736078977584839, 1.3531653583049774 -4.465445876121521, 0.1353165414184332 l-2.9769638180732727, -0.2706330828368664 -3.7888631224632263, -2.571014165878296 l-1.6237984597682953, -3.3829134702682495 -1.0825323313474655, -3.6535465717315674 l0.0, -1.6237984597682953 0.2706330828368664, -0.6765826791524887 l1.6237984597682953, 0.0 m7.442409992218018, -0.1353165414184332 l-0.2706330828368664, 0.1353165414184332 m8.254309296607971, 1.0825323313474655 l0.0, 0.0 m-9.336841106414795, 3.5182300209999084 l1.0825323313474655, 2.706330716609955 2.029748111963272, 1.2178488820791245 l2.8416472673416138, -0.6765826791524887 2.8416472673416138, -2.435697764158249 m-12.990387678146362, 7.307093143463135 l-1.6237984597682953, 0.5412661656737328 -1.2178488820791245, 2.9769638180732727 l-0.1353165414184332, 4.871395528316498 0.5412661656737328, 2.435697764158249 l1.8944315612316132, 4.330129325389862 1.4884819090366364, 1.4884819090366364 l3.9241796731948853, 1.6237984597682953 4.60076242685318, -0.5412661656737328 l1.8944315612316132, -1.0825323313474655 1.8944315612316132, -1.7591150104999542 l1.6237984597682953, -2.165064662694931 1.6237984597682953, -2.435697764158249 l0.6765826791524887, -2.30038121342659 0.0, -3.9241796731948853 l-1.2178488820791245, -3.3829134702682495 -1.6237984597682953, -1.0825323313474655 l-2.706330716609955, 0.0 -1.3531653583049774, 0.4059496149420738 m-12.31380581855774, 3.5182300209999084 l-4.194812774658203, -3.6535465717315674 -1.4884819090366364, -0.8118992298841476 l-1.4884819090366364, -0.4059496149420738 -2.9769638180732727, 0.1353165414184332 l-0.5412661656737328, 0.4059496149420738 0.2706330828368664, 0.5412661656737328 l3.6535465717315674, 1.3531653583049774 7.7130430936813354, 0.0 l1.8944315612316132, 0.6765826791524887 m19.07963275909424, 0.6765826791524887 l-0.1353165414184332, -0.5412661656737328 1.2178488820791245, -1.3531653583049774 l1.6237984597682953, -1.2178488820791245 1.7591150104999542, -0.5412661656737328 l2.165064662694931, 0.6765826791524887 0.2706330828368664, 1.4884819090366364 l-2.165064662694931, 2.9769638180732727 -2.30038121342659, 0.8118992298841476 l-2.9769638180732727, 0.1353165414184332 m-18.808999061584473, 12.855072021484375 l-1.4884819090366364, 0.6765826791524887 -5.142028331756592, 5.6832945346832275 l-4.871395528316498, 7.983676195144653 3.2475969195365906, -0.4059496149420738 l3.2475969195365906, -2.029748111963272 " fill="none" stroke="black" stroke-width="1" /></svg>