<?xml version="1.0" encoding="utf-8" ?>
<svg baseProfile="full" height="45.317616909742355" version="1.1" width="62.773450538516045" xmlns="http://www.w3.org/2000/svg" xmlns:ev="http://www.w3.org/2001/xml-events" xmlns:xlink="http://www.w3.org/1999/xlink"><defs /><rect fill="white" height="45.317616909742355" width="62.773450538516045" x="0" y="0" /><path d="M5, 13.118992280215025 m10.419373512268066, -0.9472157806158066 l15.696718692779541, 1.8944315612316132 3.5182300209999084, -0.2706330828368664 l3.5182300209999084, -1.0825323313474655 1.8944315612316132, -2.706330716609955 l1.0825323313474655, -2.8416472673416138 5.5479782819747925, -2.165064662694931 l0.6765826791524887, 0.0 1.2178488820791245, 2.706330716609955 l2.8416472673416138, 0.5412661656737328 3.5182300209999084, -0.2706330828368664 l1.4884819090366364, 0.9472157806158066 1.3531653583049774, 0.2706330828368664 l-0.4059496149420738, 2.029748111963272 -2.029748111963272, 1.2178488820791245 l-2.8416472673416138, 0.8118992298841476 -1.8944315612316132, 1.6237984597682953 l-1.3531653583049774, 2.706330716609955 -0.4059496149420738, 2.165064662694931 l-2.706330716609955, 4.059496223926544 -0.5412661656737328, 2.165064662694931 l0.4059496149420738, 4.194812774658203 -1.2178488820791245, 4.330129325389862 l2.8416472673416138, 0.4059496149420738 0.5412661656737328, 0.6765826791524887 l0.4059496149420738, 2.165064662694931 -1.2178488820791245, 1.4884819090366364 l-2.165064662694931, 1.0825323313474655 -4.194812774658203, -0.1353165414184332 l-2.165064662694931, -0.8118992298841476 -0.9472157806158066, -2.30038121342659 l0.9472157806158066, -5.5479782819747925 -1.4884819090366364, -5.6832945346832275 l-2.029748111963272, -1.4884819090366364 -4.60076242685318, -1.0825323313474655 l-2.30038121342659, 0.0 -3.7888631224632263, 0.4059496149420738 l-4.465445876121521, 1.3531653583049774 -0.5412661656737328, 0.6765826791524887 l-1.0825323313474655, 2.8416472673416138 0.0, 2.165064662694931 l1.0825323313474655, 3.7888631224632263 1.6237984597682953, 3.5182300209999084 l0.1353165414184332, 1.3531653583049774 " fill="none" stroke="black" stroke-width="1" /></svg>