<?xml version="1.0" encoding="utf-8" ?>
<svg baseProfile="full" height="35.033559864386916" version="1.1" width="35.033560022711754" xmlns="http://www.w3.org/2000/svg" xmlns:ev="http://www.w3.org/2001/xml-events" xmlns:xlink="http://www.w3.org/1999/xlink"><defs /><rect fill="white" height="35.033559864386916" width="35.033560022711754" x="0" y="0" /><path d="M11.089245108887553, 6.4884822722524405 m-2.165064662694931, -1.0825323313474655 l-0.6765826791524887, 0.1353165414184332 -1.2178488820791245, 2.9769638180732727 l0.8118992298841476, 0.5412661656737328 m0.8118992298841476, -0.2706330828368664 l-1.0825323313474655, 2.30038121342659 0.1353165414184332, 1.8944315612316132 m3.1122803688049316, 2.029748111963272 l-2.029748111963272, 0.0 -0.4059496149420738, 1.0825323313474655 l0.4059496149420738, 0.6765826791524887 0.6765826791524887, 0.0 l1.3531653583049774, -0.4059496149420738 0.8118992298841476, -1.3531653583049774 m6.359877586364746, -8.524942398071289 l0.2706330828368664, -0.6765826791524887 1.3531653583049774, -0.8118992298841476 l1.4884819090366364, 1.7591150104999542 -0.5412661656737328, 0.6765826791524887 m-7.036460041999817, -0.9472157806158066 l1.8944315612316132, -0.2706330828368664 1.6237984597682953, 0.2706330828368664 m5.006712079048157, 4.059496223926544 l0.2706330828368664, 3.7888631224632263 -1.4884819090366364, 3.2475969195365906 m-11.772539615631104, 0.1353165414184332 l0.2706330828368664, 1.3531653583049774 2.029748111963272, 0.1353165414184332 m10.960639715194702, 1.7591150104999542 l1.3531653583049774, -0.1353165414184332 2.165064662694931, 0.8118992298841476 l2.571014165878296, 4.059496223926544 1.6237984597682953, 4.330129325389862 m-19.891531467437744, -7.307093143463135 l-2.029748111963272, 0.9472157806158066 -2.029748111963272, 1.6237984597682953 l-1.0825323313474655, 2.706330716609955 " fill="none" stroke="black" stroke-width="1" /></svg>