<?xml version="1.0" encoding="utf-8" ?>
<svg baseProfile="full" height="55.73699037544429" version="1.1" width="65.0738338381052" xmlns="http://www.w3.org/2000/svg" xmlns:ev="http://www.w3.org/2001/xml-events" xmlns:xlink="http://www.w3.org/1999/xlink"><defs /><rect fill="white" height="55.73699037544429" width="65.0738338381052" x="0" y="0" /><path d="M49.3838276527822, 13.524942034855485 m-2.165064662694931, -0.2706330828368664 l-6.901143789291382, 3.6535465717315674 -3.9241796731948853, 4.194812774658203 l-1.2178488820791245, 2.571014165878296 -0.6765826791524887, 2.706330716609955 l0.0, 2.571014165878296 2.029748111963272, 2.029748111963272 l3.2475969195365906, 1.0825323313474655 5.006712079048157, 0.0 l5.277345180511475, -1.2178488820791245 4.194812774658203, -2.165064662694931 l3.3829134702682495, -2.8416472673416138 1.4884819090366364, -2.9769638180732727 l0.2706330828368664, -3.7888631224632263 -1.2178488820791245, -1.7591150104999542 l-3.3829134702682495, -1.6237984597682953 -6.495193839073181, -2.029748111963272 m-13.802287578582764, 9.472157955169678 l-0.9472157806158066, -0.5412661656737328 -2.435697764158249, -3.5182300209999084 l-0.5412661656737328, -1.8944315612316132 0.4059496149420738, -3.3829134702682495 l2.8416472673416138, -3.1122803688049316 2.435697764158249, -1.0825323313474655 l2.9769638180732727, 0.1353165414184332 0.9472157806158066, 0.5412661656737328 l1.4884819090366364, 1.6237984597682953 0.5412661656737328, 1.3531653583049774 m8.524942398071289, 0.5412661656737328 l-0.5412661656737328, -1.8944315612316132 2.706330716609955, -5.006712079048157 l1.6237984597682953, -1.6237984597682953 2.571014165878296, -0.2706330828368664 l2.435697764158249, 3.2475969195365906 0.5412661656737328, 3.6535465717315674 l-0.1353165414184332, 4.871395528316498 m-23.27444553375244, 6.495193839073181 l-2.706330716609955, -1.4884819090366364 -2.30038121342659, -0.2706330828368664 l-14.478869438171387, 0.1353165414184332 -4.60076242685318, 1.4884819090366364 l-3.9241796731948853, 2.571014165878296 -1.3531653583049774, 1.4884819090366364 l-1.6237984597682953, 3.1122803688049316 -0.1353165414184332, 4.60076242685318 l2.435697764158249, 2.30038121342659 4.059496223926544, 1.8944315612316132 l5.142028331756592, 1.4884819090366364 2.9769638180732727, 0.2706330828368664 l14.072920083999634, 0.2706330828368664 6.630510687828064, -1.6237984597682953 l6.224560737609863, -2.706330716609955 4.194812774658203, -2.9769638180732727 l2.706330716609955, -3.1122803688049316 0.5412661656737328, -3.9241796731948853 l-0.8118992298841476, -2.029748111963272 m-46.684207916259766, 10.284056663513184 l-0.8118992298841476, 0.2706330828368664 -0.9472157806158066, 1.4884819090366364 l-0.2706330828368664, 3.3829134702682495 0.2706330828368664, 6.359877586364746 l1.4884819090366364, 1.7591150104999542 2.435697764158249, 0.0 l3.7888631224632263, -4.059496223926544 2.029748111963272, -4.059496223926544 l0.1353165414184332, -2.706330716609955 m0.1353165414184332, 4.059496223926544 l0.0, 3.2475969195365906 1.2178488820791245, 2.8416472673416138 l1.8944315612316132, 1.6237984597682953 2.165064662694931, -0.1353165414184332 l1.3531653583049774, -1.4884819090366364 1.0825323313474655, -2.165064662694931 l0.6765826791524887, -2.435697764158249 0.2706330828368664, -5.41266143321991 m17.45583415031433, 0.1353165414184332 l-1.0825323313474655, 3.7888631224632263 -0.5412661656737328, 7.577726244926453 l0.2706330828368664, 0.9472157806158066 0.9472157806158066, 0.6765826791524887 l0.8118992298841476, -0.1353165414184332 1.2178488820791245, -1.6237984597682953 l1.7591150104999542, -3.7888631224632263 1.2178488820791245, -4.330129325389862 l0.4059496149420738, -2.571014165878296 -0.2706330828368664, -3.5182300209999084 m1.3531653583049774, 5.6832945346832275 l-0.6765826791524887, 0.9472157806158066 -0.2706330828368664, 2.435697764158249 l0.1353165414184332, 2.9769638180732727 0.5412661656737328, 0.8118992298841476 l1.4884819090366364, 1.2178488820791245 1.6237984597682953, 0.2706330828368664 l0.6765826791524887, -0.5412661656737328 0.6765826791524887, -2.029748111963272 l-0.1353165414184332, -6.901143789291382 -0.6765826791524887, -2.029748111963272 l-2.435697764158249, -3.6535465717315674 m-0.6765826791524887, -10.960639715194702 l0.9472157806158066, 0.5412661656737328 0.1353165414184332, -0.4059496149420738 " fill="none" stroke="black" stroke-width="1" /></svg>