<?xml version="1.0" encoding="utf-8" ?>
<svg baseProfile="full" height="51.27154501155019" version="1.1" width="35.8454589638859" xmlns="http://www.w3.org/2000/svg" xmlns:ev="http://www.w3.org/2001/xml-events" xmlns:xlink="http://www.w3.org/1999/xlink"><defs /><rect fill="white" height="51.27154501155019" width="35.8454589638859" x="0" y="0" /><path d="M5.135316075757146, 44.91837972775102 m1.8944315612316132, -4.059496223926544 l0.9472157806158066, 2.029748111963272 0.0, 2.706330716609955 l-0.2706330828368664, 0.6765826791524887 -2.029748111963272, -0.1353165414184332 l-0.1353165414184332, -2.435697764158249 m7.983676195144653, -2.706330716609955 l-0.6765826791524887, 4.736078977584839 2.029748111963272, 0.1353165414184332 l2.029748111963272, -0.9472157806158066 0.9472157806158066, -1.2178488820791245 l-0.5412661656737328, -2.029748111963272 -1.3531653583049774, -1.0825323313474655 m-1.4884819090366364, 0.4059496149420738 l-7.577726244926453, 0.2706330828368664 -1.3531653583049774, -0.8118992298841476 l-0.5412661656737328, -5.41266143321991 0.4059496149420738, -8.795575499534607 l1.2178488820791245, -4.059496223926544 2.571014165878296, -5.41266143321991 l2.571014165878296, -2.435697764158249 1.3531653583049774, -0.8118992298841476 l2.706330716609955, -0.2706330828368664 2.706330716609955, 3.5182300209999084 l0.6765826791524887, 2.029748111963272 0.2706330828368664, 3.3829134702682495 l-1.8944315612316132, 6.901143789291382 -2.165064662694931, 5.41266143321991 l-0.1353165414184332, 7.442409992218018 -0.4059496149420738, 0.0 m2.30038121342659, -27.469258308410645 l-1.2178488820791245, -1.2178488820791245 -0.5412661656737328, -1.3531653583049774 l0.0, -2.706330716609955 0.8118992298841476, -2.029748111963272 l2.571014165878296, -1.8944315612316132 2.8416472673416138, -0.2706330828368664 l1.3531653583049774, 0.4059496149420738 2.8416472673416138, 1.8944315612316132 l0.2706330828368664, 1.3531653583049774 -0.9472157806158066, 2.029748111963272 l-2.706330716609955, 2.029748111963272 -5.006712079048157, 2.029748111963272 l-2.165064662694931, -0.2706330828368664 0.0, -0.9472157806158066 m4.465445876121521, 8.660258650779724 l3.7888631224632263, -3.2475969195365906 3.7888631224632263, 0.4059496149420738 m-0.2706330828368664, -0.1353165414184332 l2.029748111963272, -1.3531653583049774 m-1.0825323313474655, 1.0825323313474655 l1.3531653583049774, 2.165064662694931 m-1.6237984597682953, -0.4059496149420738 l1.8944315612316132, 2.435697764158249 m-10.82532286643982, 1.7591150104999542 l0.1353165414184332, 1.3531653583049774 6.630510687828064, 0.2706330828368664 l0.2706330828368664, 0.4059496149420738 m-0.1353165414184332, -0.1353165414184332 l2.8416472673416138, -0.2706330828368664 1.7591150104999542, 0.5412661656737328 m-6.495193839073181, -0.1353165414184332 l2.706330716609955, 2.165064662694931 1.3531653583049774, 1.7591150104999542 m-2.8416472673416138, -3.7888631224632263 l1.3531653583049774, -0.1353165414184332 4.465445876121521, 1.0825323313474655 " fill="none" stroke="black" stroke-width="1" /></svg>