<?xml version="1.0" encoding="utf-8" ?>
<svg baseProfile="full" height="89.4308099988848" version="1.1" width="61.82623556815088" xmlns="http://www.w3.org/2000/svg" xmlns:ev="http://www.w3.org/2001/xml-events" xmlns:xlink="http://www.w3.org/1999/xlink"><defs /><rect fill="white" height="89.4308099988848" width="61.82623556815088" x="0" y="0" /><path d="M42.4826824106276, 16.637223893776536 m-1.7591150104999542, -0.6765826791524887 l-6.495193839073181, 0.2706330828368664 -5.5479782819747925, 2.706330716609955 l-4.465445876121521, 3.7888631224632263 -0.5412661656737328, 1.7591150104999542 l-0.1353165414184332, 2.9769638180732727 1.0825323313474655, 3.3829134702682495 l1.8944315612316132, 2.9769638180732727 1.7591150104999542, 1.7591150104999542 l3.1122803688049316, 2.029748111963272 1.6237984597682953, 0.4059496149420738 l7.983676195144653, -0.1353165414184332 1.7591150104999542, -1.2178488820791245 l1.7591150104999542, -2.029748111963272 0.5412661656737328, -3.3829134702682495 l0.0, -4.194812774658203 -0.5412661656737328, -2.571014165878296 l-0.6765826791524887, -2.029748111963272 -3.6535465717315674, -6.630510687828064 m-11.231273412704468, 20.568113327026367 l-5.81861138343811, -0.1353165414184332 -6.901143789291382, 1.0825323313474655 l-4.465445876121521, 1.3531653583049774 -3.5182300209999084, 1.8944315612316132 l-1.4884819090366364, 2.029748111963272 -1.6237984597682953, 11.095956563949585 l-0.1353165414184332, 12.719755172729492 1.3531653583049774, 4.871395528316498 l1.8944315612316132, 2.8416472673416138 3.9241796731948853, 4.330129325389862 l6.630510687828064, 4.059496223926544 1.0825323313474655, 0.5412661656737328 l7.036460041999817, 1.3531653583049774 12.31380581855774, 0.0 l4.736078977584839, -1.3531653583049774 1.4884819090366364, -0.8118992298841476 l6.224560737609863, -8.254309296607971 2.165064662694931, -4.194812774658203 l1.3531653583049774, -4.059496223926544 1.4884819090366364, -6.630510687828064 l0.1353165414184332, -2.8416472673416138 -0.1353165414184332, -6.765826940536499 l-1.0825323313474655, -2.706330716609955 -1.6237984597682953, -2.029748111963272 l-2.706330716609955, -2.30038121342659 -6.630510687828064, -3.1122803688049316 l-2.8416472673416138, -1.8944315612316132 m-11.772539615631104, -14.884819984436035 l0.6765826791524887, -0.2706330828368664 m6.765826940536499, -0.2706330828368664 l1.0825323313474655, 0.4059496149420738 m-10.284056663513184, 8.524942398071289 l14.884819984436035, 0.1353165414184332 -0.5412661656737328, 0.8118992298841476 l-2.029748111963272, 1.3531653583049774 -2.165064662694931, 0.5412661656737328 l-9.607474207878113, 0.5412661656737328 -0.5412661656737328, -0.6765826791524887 l0.1353165414184332, -2.8416472673416138 m-0.5412661656737328, -12.178488969802856 l-0.6765826791524887, -3.9241796731948853 0.0, -5.277345180511475 l0.4059496149420738, -2.165064662694931 0.2706330828368664, 6.359877586364746 l0.9472157806158066, 3.5182300209999084 m6.901143789291382, -1.4884819090366364 l0.9472157806158066, -6.359877586364746 1.2178488820791245, -3.2475969195365906 l0.9472157806158066, -1.0825323313474655 0.6765826791524887, 0.4059496149420738 l1.0825323313474655, 12.178488969802856 " fill="none" stroke="black" stroke-width="1" /></svg>