<?xml version="1.0" encoding="utf-8" ?>
<svg baseProfile="full" height="63.85598383843899" version="1.1" width="153.7061633169651" xmlns="http://www.w3.org/2000/svg" xmlns:ev="http://www.w3.org/2001/xml-events" xmlns:xlink="http://www.w3.org/1999/xlink"><defs /><rect fill="white" height="63.85598383843899" width="153.7061633169651" x="0" y="0" /><path d="M31.11608736217022, 24.350266372784972 m0.0, -0.9472157806158066 l1.7591150104999542, -2.30038121342659 2.8416472673416138, -1.6237984597682953 l3.9241796731948853, -0.5412661656737328 29.904956817626953, 0.4059496149420738 l3.7888631224632263, -0.9472157806158066 1.3531653583049774, -0.8118992298841476 l4.059496223926544, -4.871395528316498 2.9769638180732727, -1.3531653583049774 l5.142028331756592, -0.9472157806158066 2.706330716609955, 0.9472157806158066 l2.165064662694931, 1.2178488820791245 1.6237984597682953, 3.2475969195365906 l1.0825323313474655, 3.7888631224632263 0.0, 2.9769638180732727 l-1.4884819090366364, 2.029748111963272 -3.1122803688049316, 0.9472157806158066 l-4.059496223926544, 2.706330716609955 -3.1122803688049316, 4.871395528316498 l-1.0825323313474655, 4.871395528316498 -0.2706330828368664, 10.013424158096313 l-0.6765826791524887, 2.435697764158249 -0.9472157806158066, 0.9472157806158066 l-4.059496223926544, 1.6237984597682953 -0.6765826791524887, -0.1353165414184332 l-2.165064662694931, -6.495193839073181 0.0, -4.194812774658203 l-0.8118992298841476, -7.307093143463135 -1.8944315612316132, 4.736078977584839 l-2.30038121342659, 17.185200452804565 -2.029748111963272, -2.029748111963272 l-0.9472157806158066, -1.7591150104999542 -1.8944315612316132, -14.61418628692627 l-2.571014165878296, -4.60076242685318 -2.435697764158249, 1.4884819090366364 l-7.307093143463135, 6.630510687828064 -1.0825323313474655, 5.142028331756592 l-1.2178488820791245, 2.029748111963272 -0.2706330828368664, 2.9769638180732727 l-1.2178488820791245, 2.9769638180732727 -1.6237984597682953, -2.029748111963272 l-3.5182300209999084, -6.630510687828064 -0.2706330828368664, -7.1717768907547 l0.6765826791524887, -3.6535465717315674 -3.7888631224632263, 2.9769638180732727 l-3.3829134702682495, 3.3829134702682495 -0.8118992298841476, 1.4884819090366364 l-1.6237984597682953, 5.5479782819747925 0.0, 6.901143789291382 l-0.4059496149420738, 2.9769638180732727 -0.9472157806158066, -0.6765826791524887 l-5.953927636146545, -9.87810730934143 -0.2706330828368664, -10.419373512268066 l0.2706330828368664, -1.8944315612316132 2.706330716609955, -6.089244484901428 l4.330129325389862, -5.277345180511475 3.3829134702682495, -3.2475969195365906 m47.49610424041748, -6.089244484901428 l0.6765826791524887, 0.4059496149420738 0.2706330828368664, 1.0825323313474655 l-0.5412661656737328, 0.8118992298841476 -1.4884819090366364, 0.0 l-1.2178488820791245, -3.1122803688049316 1.3531653583049774, 0.6765826791524887 l0.9472157806158066, -0.1353165414184332 2.571014165878296, 0.6765826791524887 l0.1353165414184332, 0.6765826791524887 0.0, 1.6237984597682953 l-2.165064662694931, 0.4059496149420738 m2.30038121342659, 2.9769638180732727 l2.9769638180732727, -1.0825323313474655 0.1353165414184332, 0.6765826791524887 l1.6237984597682953, 0.6765826791524887 0.1353165414184332, 0.6765826791524887 l-0.8118992298841476, 0.1353165414184332 m-10.690007209777832, -10.148741006851196 l0.1353165414184332, -7.307093143463135 3.1122803688049316, 4.736078977584839 l2.435697764158249, 2.029748111963272 1.3531653583049774, -0.4059496149420738 l2.706330716609955, -1.8944315612316132 2.30038121342659, -3.3829134702682495 l0.4059496149420738, 1.0825323313474655 0.4059496149420738, 8.660258650779724 m-60.48649311065674, 5.953927636146545 l-1.6237984597682953, 1.3531653583049774 -2.30038121342659, 0.8118992298841476 l-1.2178488820791245, 1.6237984597682953 2.9769638180732727, 4.059496223926544 m18.40304970741272, -11.095956563949585 l-1.3531653583049774, 0.8118992298841476 -2.30038121342659, 0.5412661656737328 l-8.660258650779724, 1.3531653583049774 0.6765826791524887, 0.4059496149420738 l6.630510687828064, 0.0 -29.499006271362305, 1.2178488820791245 l135.31654357910156, -0.1353165414184332 -1.3531653583049774, -0.4059496149420738 l-102.97588348388672, 0.2706330828368664 -14.3435537815094, 0.6765826791524887 l-12.178488969802856, 1.0825323313474655 -8.254309296607971, 1.0825323313474655 l-4.60076242685318, 1.0825323313474655 2.706330716609955, -1.2178488820791245 " fill="none" stroke="black" stroke-width="1" /></svg>