<?xml version="1.0" encoding="utf-8" ?>
<svg baseProfile="full" height="57.36078909598291" version="1.1" width="43.42318559065461" xmlns="http://www.w3.org/2000/svg" xmlns:ev="http://www.w3.org/2001/xml-events" xmlns:xlink="http://www.w3.org/1999/xlink"><defs /><rect fill="white" height="57.36078909598291" width="43.42318559065461" x="0" y="0" /><path d="M28.545078421011567, 7.8416473884135485 m-1.4884819090366364, -0.9472157806158066 l-2.029748111963272, -0.5412661656737328 -3.6535465717315674, 0.0 l-2.8416472673416138, 1.7591150104999542 -2.435697764158249, 3.9241796731948853 l-2.029748111963272, 5.6832945346832275 0.2706330828368664, 4.194812774658203 l1.4884819090366364, 1.3531653583049774 2.30038121342659, 0.6765826791524887 l5.006712079048157, 0.2706330828368664 3.5182300209999084, -1.0825323313474655 l4.194812774658203, -3.5182300209999084 1.6237984597682953, -4.059496223926544 l-0.1353165414184332, -3.2475969195365906 -1.7591150104999542, -6.224560737609863 l-1.3531653583049774, -0.9472157806158066 -1.6237984597682953, -0.1353165414184332 m-11.231273412704468, 18.40304970741272 l-5.277345180511475, 0.6765826791524887 -2.706330716609955, 1.2178488820791245 l-2.435697764158249, 2.706330716609955 -0.9472157806158066, 2.706330716609955 l0.0, 0.6765826791524887 1.3531653583049774, 0.5412661656737328 l9.472157955169678, -0.5412661656737328 0.4059496149420738, 0.8118992298841476 l0.2706330828368664, 4.059496223926544 -0.5412661656737328, 3.3829134702682495 l-5.5479782819747925, 11.501905918121338 2.30038121342659, 1.0825323313474655 l2.30038121342659, 0.1353165414184332 1.2178488820791245, -0.2706330828368664 l3.1122803688049316, -2.165064662694931 2.029748111963272, -4.194812774658203 l0.6765826791524887, -3.2475969195365906 0.8118992298841476, 2.8416472673416138 l2.435697764158249, 5.41266143321991 0.9472157806158066, 0.6765826791524887 l1.6237984597682953, 0.2706330828368664 1.6237984597682953, -1.4884819090366364 l0.6765826791524887, -2.30038121342659 0.0, -2.30038121342659 l-2.8416472673416138, -9.87810730934143 -0.5412661656737328, -5.006712079048157 l7.442409992218018, 2.435697764158249 2.706330716609955, 0.1353165414184332 l1.4884819090366364, -1.2178488820791245 0.0, -2.165064662694931 l-0.6765826791524887, -1.4884819090366364 -6.630510687828064, -5.277345180511475 " fill="none" stroke="black" stroke-width="1" /></svg>