<?xml version="1.0" encoding="utf-8" ?>
<svg baseProfile="full" height="66.96826608851552" version="1.1" width="66.02104902267456" xmlns="http://www.w3.org/2000/svg" xmlns:ev="http://www.w3.org/2001/xml-events" xmlns:xlink="http://www.w3.org/1999/xlink"><defs /><rect fill="white" height="66.96826608851552" width="66.02104902267456" x="0" y="0" /><path d="M27.1919128857553, 61.96826608851552 m-2.571014165878296, -2.029748111963272 l-2.435697764158249, -4.194812774658203 -2.435697764158249, -8.254309296607971 l-0.6765826791524887, -13.261021375656128 2.8416472673416138, -6.089244484901428 l3.1122803688049316, -3.5182300209999084 2.706330716609955, -2.30038121342659 l7.7130430936813354, -3.5182300209999084 5.41266143321991, -0.1353165414184332 l8.118992447853088, 1.2178488820791245 4.871395528316498, 2.30038121342659 l2.029748111963272, 1.4884819090366364 2.571014165878296, 2.30038121342659 l1.6237984597682953, 2.30038121342659 0.8118992298841476, 7.307093143463135 l0.0, 5.41266143321991 -2.8416472673416138, 7.8483593463897705 l-2.435697764158249, 2.9769638180732727 -4.059496223926544, 3.2475969195365906 l-5.006712079048157, 2.165064662694931 -7.7130430936813354, 1.3531653583049774 l-16.102668046951294, 0.1353165414184332 -0.2706330828368664, -0.5412661656737328 m1.7591150104999542, -35.994200706481934 l-0.8118992298841476, -1.6237984597682953 -2.435697764158249, -2.706330716609955 l-2.706330716609955, -1.7591150104999542 -6.630510687828064, -1.7591150104999542 l-1.3531653583049774, 0.2706330828368664 -1.6237984597682953, 1.8944315612316132 l-3.6535465717315674, 6.224560737609863 0.0, 1.3531653583049774 l2.435697764158249, 3.6535465717315674 2.165064662694931, 2.30038121342659 l7.442409992218018, -1.0825323313474655 m31.934704780578613, -13.261021375656128 l0.8118992298841476, -2.9769638180732727 2.706330716609955, -5.006712079048157 l0.9472157806158066, -0.9472157806158066 2.8416472673416138, -1.3531653583049774 l3.2475969195365906, -0.4059496149420738 1.4884819090366364, 2.435697764158249 l-0.2706330828368664, 11.63722276687622 -2.029748111963272, 5.006712079048157 l-1.2178488820791245, 1.8944315612316132 " fill="none" stroke="black" stroke-width="1" /></svg>