<?xml version="1.0" encoding="utf-8" ?>
<svg baseProfile="full" height="66.15636301226914" version="1.1" width="55.33104034140706" xmlns="http://www.w3.org/2000/svg" xmlns:ev="http://www.w3.org/2001/xml-events" xmlns:xlink="http://www.w3.org/1999/xlink"><defs /><rect fill="white" height="66.15636301226914" width="55.33104034140706" x="0" y="0" /><path d="M25.568114705383778, 8.112280555069447 m-6.224560737609863, 2.571014165878296 l-2.706330716609955, 2.30038121342659 -1.3531653583049774, 3.3829134702682495 l-0.1353165414184332, 1.3531653583049774 0.0, 4.871395528316498 l0.6765826791524887, 1.7591150104999542 3.1122803688049316, 4.871395528316498 l2.9769638180732727, 2.706330716609955 1.8944315612316132, 0.8118992298841476 l2.165064662694931, 0.4059496149420738 9.87810730934143, -0.2706330828368664 l2.029748111963272, -3.3829134702682495 0.5412661656737328, -3.6535465717315674 l0.0, -3.6535465717315674 -1.6237984597682953, -5.81861138343811 l-2.165064662694931, -2.435697764158249 -2.435697764158249, -1.2178488820791245 l-4.059496223926544, -1.3531653583049774 -4.194812774658203, -0.8118992298841476 l-3.9241796731948853, 0.0 m9.20152485370636, 0.2706330828368664 l-0.1353165414184332, -1.4884819090366364 0.8118992298841476, -1.7591150104999542 l2.30038121342659, -1.8944315612316132 4.330129325389862, -0.6765826791524887 l3.7888631224632263, 0.1353165414184332 1.8944315612316132, 1.6237984597682953 l0.4059496149420738, 2.9769638180732727 -8.254309296607971, 10.148741006851196 m-14.61418628692627, -10.419373512268066 l-3.5182300209999084, -1.6237984597682953 -2.9769638180732727, -2.30038121342659 l-0.8118992298841476, 0.0 -1.7591150104999542, 4.465445876121521 l-0.4059496149420738, 7.307093143463135 1.2178488820791245, 2.165064662694931 l2.571014165878296, 0.6765826791524887 m11.772539615631104, 5.41266143321991 l0.6765826791524887, -0.2706330828368664 0.1353165414184332, 0.6765826791524887 l0.0, -0.6765826791524887 -0.9472157806158066, 0.1353165414184332 m1.4884819090366364, 0.6765826791524887 l0.0, 3.6535465717315674 -1.3531653583049774, 1.4884819090366364 l-1.0825323313474655, -0.2706330828368664 -0.6765826791524887, -0.8118992298841476 l-0.8118992298841476, -2.435697764158249 m3.9241796731948853, -2.30038121342659 l1.0825323313474655, 1.7591150104999542 1.7591150104999542, 1.3531653583049774 l1.8944315612316132, 0.4059496149420738 1.0825323313474655, -0.6765826791524887 m-0.9472157806158066, -9.742791056632996 l0.0, 4.330129325389862 0.2706330828368664, -3.9241796731948853 m-11.095956563949585, -0.2706330828368664 l0.1353165414184332, 3.1122803688049316 0.6765826791524887, -1.0825323313474655 l0.6765826791524887, -1.4884819090366364 0.0, -3.1122803688049316 m-3.7888631224632263, 14.072920083999634 l-4.465445876121521, 7.983676195144653 -0.8118992298841476, 2.435697764158249 l-0.6765826791524887, 6.224560737609863 0.0, 6.495193839073181 l1.8944315612316132, 4.059496223926544 1.7591150104999542, 1.3531653583049774 l4.871395528316498, 1.7591150104999542 2.571014165878296, 0.2706330828368664 m14.478869438171387, -29.904956817626953 l2.9769638180732727, 3.3829134702682495 2.029748111963272, 4.736078977584839 l0.2706330828368664, 6.630510687828064 -0.9472157806158066, 3.5182300209999084 l-1.7591150104999542, 3.6535465717315674 -1.3531653583049774, 1.8944315612316132 l-4.059496223926544, 3.7888631224632263 -1.6237984597682953, 0.8118992298841476 l-2.435697764158249, 0.9472157806158066 -5.142028331756592, 0.1353165414184332 l-6.359877586364746, 0.8118992298841476 m22.597861289978027, -24.492294788360596 l0.6765826791524887, -2.30038121342659 3.7888631224632263, -4.871395528316498 l1.6237984597682953, -0.4059496149420738 1.2178488820791245, 1.7591150104999542 l0.2706330828368664, 2.029748111963272 -0.1353165414184332, 2.165064662694931 l-7.577726244926453, 9.607474207878113 m-28.010523319244385, -7.577726244926453 l-0.8118992298841476, -0.4059496149420738 -6.495193839073181, 0.2706330828368664 l-1.6237984597682953, 1.3531653583049774 -0.5412661656737328, 1.8944315612316132 l-0.1353165414184332, 4.059496223926544 1.0825323313474655, 1.7591150104999542 " fill="none" stroke="black" stroke-width="1" /></svg>