<?xml version="1.0" encoding="utf-8" ?>
<svg baseProfile="full" height="99.30891711264849" version="1.1" width="84.01814742945135" xmlns="http://www.w3.org/2000/svg" xmlns:ev="http://www.w3.org/2001/xml-events" xmlns:xlink="http://www.w3.org/1999/xlink"><defs /><rect fill="white" height="99.30891711264849" width="84.01814742945135" x="0" y="0" /><path d="M29.08634460531175, 74.14675264619291 m-0.8118992298841476, -0.2706330828368664 l-1.2178488820791245, 0.8118992298841476 -1.8944315612316132, 2.165064662694931 l-1.0825323313474655, 2.165064662694931 -0.5412661656737328, 1.7591150104999542 l-0.1353165414184332, 2.8416472673416138 0.1353165414184332, 0.9472157806158066 l0.6765826791524887, 0.6765826791524887 1.7591150104999542, 0.0 l1.3531653583049774, -0.9472157806158066 5.142028331756592, -7.036460041999817 l0.5412661656737328, 0.8118992298841476 0.0, 5.953927636146545 l0.4059496149420738, 2.029748111963272 1.0825323313474655, 1.3531653583049774 l1.7591150104999542, -0.1353165414184332 1.3531653583049774, -1.2178488820791245 l2.9769638180732727, -4.465445876121521 0.8118992298841476, -2.435697764158249 l0.0, 8.930891752243042 0.5412661656737328, 0.6765826791524887 l0.9472157806158066, 0.2706330828368664 0.9472157806158066, -0.4059496149420738 l3.2475969195365906, -3.5182300209999084 1.8944315612316132, -3.1122803688049316 l0.0, 6.224560737609863 0.4059496149420738, 0.8118992298841476 l5.5479782819747925, -3.7888631224632263 1.7591150104999542, -2.571014165878296 l-0.2706330828368664, 7.1717768907547 0.9472157806158066, 1.2178488820791245 l0.6765826791524887, 0.4059496149420738 4.736078977584839, -6.901143789291382 l0.0, 4.465445876121521 1.0825323313474655, 4.736078977584839 l1.3531653583049774, 0.5412661656737328 1.4884819090366364, 0.0 l3.3829134702682495, -1.7591150104999542 2.8416472673416138, -4.465445876121521 l1.4884819090366364, -5.006712079048157 0.4059496149420738, -5.006712079048157 l1.4884819090366364, -7.7130430936813354 2.435697764158249, -25.16887664794922 l0.2706330828368664, -14.749503135681152 -3.2475969195365906, -11.90785527229309 l-0.6765826791524887, 0.5412661656737328 -3.2475969195365906, -2.029748111963272 l-2.165064662694931, -0.8118992298841476 -4.871395528316498, -0.6765826791524887 l-5.142028331756592, 0.1353165414184332 0.0, -0.6765826791524887 l-1.8944315612316132, -3.6535465717315674 -1.7591150104999542, -2.165064662694931 l-2.029748111963272, -1.6237984597682953 -2.029748111963272, -0.9472157806158066 l-6.495193839073181, -1.4884819090366364 -4.465445876121521, -0.1353165414184332 l-3.5182300209999084, 0.4059496149420738 -5.006712079048157, 1.4884819090366364 l-1.4884819090366364, 5.006712079048157 -0.1353165414184332, 8.118992447853088 l-0.6765826791524887, 0.1353165414184332 -1.2178488820791245, -1.2178488820791245 l-4.465445876121521, -2.571014165878296 -2.029748111963272, -0.5412661656737328 l-2.9769638180732727, 0.0 -3.1122803688049316, 1.3531653583049774 l-6.901143789291382, 4.871395528316498 -3.7888631224632263, 4.871395528316498 l-0.6765826791524887, 2.571014165878296 0.2706330828368664, 4.330129325389862 l2.9769638180732727, 11.095956563949585 2.706330716609955, 6.901143789291382 l3.2475969195365906, 6.630510687828064 4.60076242685318, 6.359877586364746 " fill="none" stroke="black" stroke-width="1" /></svg>