<?xml version="1.0" encoding="utf-8" ?>
<svg baseProfile="full" height="66.42699738033116" version="1.1" width="101.06803270988166" xmlns="http://www.w3.org/2000/svg" xmlns:ev="http://www.w3.org/2001/xml-events" xmlns:xlink="http://www.w3.org/1999/xlink"><defs /><rect fill="white" height="66.42699738033116" width="101.06803270988166" x="0" y="0" /><path d="M5, 26.921279467642307 m1.3531653583049774, -1.2178488820791245 l8.795575499534607, -3.6535465717315674 10.148741006851196, -0.9472157806158066 l16.508618593215942, 0.8118992298841476 10.82532286643982, -0.4059496149420738 l1.2178488820791245, -1.0825323313474655 4.194812774658203, -8.389625549316406 l2.029748111963272, -2.706330716609955 7.577726244926453, -3.1122803688049316 l4.60076242685318, -1.2178488820791245 15.155452489852905, 0.0 l2.8416472673416138, 2.165064662694931 1.4884819090366364, 3.3829134702682495 l0.6765826791524887, 3.7888631224632263 0.1353165414184332, 4.059496223926544 l-0.6765826791524887, 0.2706330828368664 -0.4059496149420738, 1.3531653583049774 l1.3531653583049774, 4.194812774658203 2.30038121342659, 3.2475969195365906 l0.9472157806158066, 2.30038121342659 -0.4059496149420738, 2.165064662694931 l-1.6237984597682953, 2.165064662694931 -0.8118992298841476, 0.4059496149420738 l-7.577726244926453, 0.0 -3.5182300209999084, -4.736078977584839 l-2.165064662694931, -0.5412661656737328 -2.029748111963272, 0.1353165414184332 l-1.6237984597682953, 1.0825323313474655 -1.6237984597682953, 5.81861138343811 l-2.706330716609955, 6.495193839073181 -0.5412661656737328, 3.2475969195365906 l0.0, 9.742791056632996 -0.4059496149420738, 2.029748111963272 l-0.8118992298841476, 1.7591150104999542 -2.029748111963272, 1.8944315612316132 l-2.435697764158249, 0.0 -4.871395528316498, -2.435697764158249 l-2.9769638180732727, -0.5412661656737328 -0.2706330828368664, -0.6765826791524887 l0.8118992298841476, -6.359877586364746 -0.5412661656737328, -10.55469036102295 " fill="none" stroke="black" stroke-width="1" /></svg>