<?xml version="1.0" encoding="utf-8" ?>
<svg baseProfile="full" height="65.88573209941387" version="1.1" width="65.47978293150663" xmlns="http://www.w3.org/2000/svg" xmlns:ev="http://www.w3.org/2001/xml-events" xmlns:xlink="http://www.w3.org/1999/xlink"><defs /><rect fill="white" height="65.88573209941387" width="65.47978293150663" x="0" y="0" /><path d="M20.020137168467045, 18.26102176681161 m16.779251098632812, -3.3829134702682495 l5.5479782819747925, -0.4059496149420738 4.60076242685318, 0.0 l1.7591150104999542, 0.4059496149420738 1.6237984597682953, 0.8118992298841476 l4.059496223926544, 3.6535465717315674 3.5182300209999084, 5.142028331756592 l1.8944315612316132, 4.60076242685318 0.6765826791524887, 8.254309296607971 l-1.2178488820791245, 6.495193839073181 -3.1122803688049316, 6.495193839073181 l-4.60076242685318, 5.81861138343811 -2.706330716609955, 2.165064662694931 l-3.2475969195365906, 1.4884819090366364 -3.9241796731948853, 0.8118992298841476 l-15.832035541534424, 0.2706330828368664 -2.8416472673416138, -0.9472157806158066 l-3.7888631224632263, -2.435697764158249 -4.194812774658203, -5.142028331756592 l-4.736078977584839, -9.472157955169678 -3.2475969195365906, -10.419373512268066 l-0.1353165414184332, -4.60076242685318 0.1353165414184332, -1.6237984597682953 l1.4884819090366364, -1.7591150104999542 2.571014165878296, -1.7591150104999542 l6.224560737609863, -2.435697764158249 4.194812774658203, -0.6765826791524887 m5.6832945346832275, 16.914567947387695 l10.960639715194702, 0.0 -1.7591150104999542, 8.389625549316406 l-0.5412661656737328, 1.4884819090366364 -0.9472157806158066, 0.8118992298841476 l-3.7888631224632263, 0.2706330828368664 -1.3531653583049774, -0.4059496149420738 l-3.3829134702682495, -1.8944315612316132 -0.5412661656737328, -0.8118992298841476 l-0.8118992298841476, -2.571014165878296 0.0, -2.9769638180732727 l3.7888631224632263, -3.3829134702682495 m12.990387678146362, 15.832035541534424 l-4.194812774658203, 0.1353165414184332 -3.2475969195365906, -2.165064662694931 l-1.3531653583049774, -1.6237984597682953 0.0, -0.6765826791524887 l-1.6237984597682953, 3.7888631224632263 -2.165064662694931, 3.1122803688049316 l-2.30038121342659, 0.9472157806158066 -2.029748111963272, -0.1353165414184332 l-1.8944315612316132, -1.3531653583049774 -1.8944315612316132, -2.30038121342659 l-0.9472157806158066, -1.7591150104999542 0.2706330828368664, -1.6237984597682953 m-0.4059496149420738, -20.297482013702393 l2.30038121342659, -0.1353165414184332 0.8118992298841476, 0.5412661656737328 l0.2706330828368664, 5.142028331756592 -2.706330716609955, 0.8118992298841476 l-2.8416472673416138, -0.1353165414184332 -0.8118992298841476, -0.4059496149420738 l-0.4059496149420738, -1.4884819090366364 0.6765826791524887, -1.8944315612316132 l1.0825323313474655, -2.165064662694931 1.3531653583049774, -0.6765826791524887 m17.7264666557312, -5.277345180511475 l1.4884819090366364, 0.0 0.2706330828368664, 2.8416472673416138 l-0.1353165414184332, 4.330129325389862 -1.3531653583049774, 0.6765826791524887 l-2.706330716609955, 0.0 -1.3531653583049774, -2.30038121342659 l-0.1353165414184332, -2.165064662694931 0.4059496149420738, -0.9472157806158066 l2.029748111963272, -2.165064662694931 m5.142028331756592, -10.013424158096313 l2.165064662694931, -5.277345180511475 0.6765826791524887, 0.2706330828368664 l3.1122803688049316, 8.660258650779724 m-27.469258308410645, 1.7591150104999542 l-0.5412661656737328, -2.9769638180732727 -3.7888631224632263, -4.871395528316498 l-4.330129325389862, -3.3829134702682495 -2.165064662694931, -0.8118992298841476 l-1.7591150104999542, 0.2706330828368664 -1.2178488820791245, 2.8416472673416138 l-0.8118992298841476, 4.059496223926544 0.1353165414184332, 5.142028331756592 l7.1717768907547, 7.036460041999817 m28.145840167999268, -11.63722276687622 l0.4059496149420738, -6.224560737609863 0.9472157806158066, -0.9472157806158066 l1.7591150104999542, -0.8118992298841476 2.8416472673416138, 0.1353165414184332 l0.8118992298841476, 0.6765826791524887 2.30038121342659, 4.736078977584839 l0.0, 3.2475969195365906 -0.9472157806158066, 3.1122803688049316 l-0.8118992298841476, -10.82532286643982 " fill="none" stroke="black" stroke-width="1" /></svg>