<?xml version="1.0" encoding="utf-8" ?>
<svg baseProfile="full" height="94.9787862598896" version="1.1" width="173.46237741410732" xmlns="http://www.w3.org/2000/svg" xmlns:ev="http://www.w3.org/2001/xml-events" xmlns:xlink="http://www.w3.org/1999/xlink"><defs /><rect fill="white" height="94.9787862598896" width="173.46237741410732" x="0" y="0" /><path d="M88.08435254730284, 35.85217095911503 m-1.6237984597682953, -9.066208004951477 m1.6237984597682953, -10.284056663513184 l0.0, 0.0 m0.0, 11.63722276687622 l0.0, 1.2178488820791245 m-21.1093807220459, -24.356977939605713 l0.0, 0.0 m-7.7130430936813354, 1.8944315612316132 l0.0, 0.0 m26.927990913391113, 28.957738876342773 l0.0, 0.0 m-30.71685552597046, -3.7888631224632263 l0.0, 0.0 m0.0, -17.45583415031433 l0.0, 0.0 m9.607474207878113, 21.24469757080078 l0.0, 0.0 m15.832035541534424, 0.0 l0.0, 0.0 m7.1717768907547, 0.0 l0.1353165414184332, 54.12661552429199 m80.24271011352539, -31.122803688049316 l0.0, -0.2706330828368664 m-80.37802696228027, -3.3829134702682495 l0.0, 0.0 m0.0, 15.426086187362671 l0.0, 0.0 m0.0, 0.0 l0.0, 0.0 m-79.70144271850586, 16.37330174446106 m0.0, 0.0 l0.2706330828368664, -0.6765826791524887 1.3531653583049774, -0.5412661656737328 m0.0, 0.0 l0.2706330828368664, 0.0 m0.5412661656737328, -0.2706330828368664 l81.18992805480957, -32.20533609390259 m-87.0085334777832, 4.736078977584839 l0.1353165414184332, 0.8118992298841476 m0.0, 0.0 l0.0, 0.6765826791524887 135.31654357910156, -7.1717768907547 m0.0, 0.0 l0.1353165414184332, 0.1353165414184332 m0.0, 0.0 l0.0, 0.0 m-80.51334381103516, 0.8118992298841476 l0.0, 0.0 m0.0, -30.987486839294434 l0.0, 0.0 m0.0, 34.77635145187378 l0.0, -2.571014165878296 0.4059496149420738, 0.9472157806158066 l0.8118992298841476, -0.1353165414184332 0.2706330828368664, 0.9472157806158066 l-1.4884819090366364, 12.449121475219727 m82.0018196105957, -14.072920083999634 m0.0, 0.0 l0.0, 0.0 m0.0, 0.0 l0.0, 0.0 m0.0, 0.0 l-0.4059496149420738, -0.1353165414184332 " fill="none" stroke="black" stroke-width="1" /></svg>