<?xml version="1.0" encoding="utf-8" ?>
<svg baseProfile="full" height="55.19572410732508" version="1.1" width="66.69763062149286" xmlns="http://www.w3.org/2000/svg" xmlns:ev="http://www.w3.org/2001/xml-events" xmlns:xlink="http://www.w3.org/1999/xlink"><defs /><rect fill="white" height="55.19572410732508" width="66.69763062149286" x="0" y="0" /><path d="M10.142028480768204, 23.538366332650185 m-3.3829134702682495, -3.9241796731948853 l-1.7591150104999542, -4.194812774658203 0.0, -7.7130430936813354 l0.4059496149420738, -1.6237984597682953 1.3531653583049774, -1.0825323313474655 l1.3531653583049774, 0.0 5.5479782819747925, 2.706330716609955 l2.029748111963272, 1.8944315612316132 3.5182300209999084, 4.465445876121521 l7.7130430936813354, -1.6237984597682953 7.036460041999817, 0.0 l8.660258650779724, 0.2706330828368664 4.059496223926544, 1.3531653583049774 l4.465445876121521, -3.1122803688049316 2.435697764158249, -1.3531653583049774 l1.6237984597682953, -0.2706330828368664 2.8416472673416138, 0.5412661656737328 l2.8416472673416138, 1.8944315612316132 0.8118992298841476, 2.165064662694931 l-1.3531653583049774, 3.2475969195365906 -1.8944315612316132, 2.165064662694931 l-4.330129325389862, 3.5182300209999084 -0.8118992298841476, 1.2178488820791245 l-0.6765826791524887, 4.059496223926544 -0.6765826791524887, 9.336841106414795 l-0.5412661656737328, 3.1122803688049316 -1.3531653583049774, 3.5182300209999084 l-2.435697764158249, 2.571014165878296 -2.435697764158249, 1.6237984597682953 l-2.30038121342659, 0.9472157806158066 -3.7888631224632263, 0.9472157806158066 l-4.465445876121521, 0.0 -6.765826940536499, -1.8944315612316132 l-7.442409992218018, -4.60076242685318 -2.706330716609955, -2.435697764158249 l-3.3829134702682495, -4.330129325389862 -2.8416472673416138, -6.495193839073181 l-0.4059496149420738, -3.6535465717315674 0.6765826791524887, -3.2475969195365906 m13.802287578582764, 23.81571054458618 " fill="none" stroke="black" stroke-width="1" /></svg>