<?xml version="1.0" encoding="utf-8" ?>
<svg baseProfile="full" height="37.33394118025899" version="1.1" width="31.109380079433322" xmlns="http://www.w3.org/2000/svg" xmlns:ev="http://www.w3.org/2001/xml-events" xmlns:xlink="http://www.w3.org/1999/xlink"><defs /><rect fill="white" height="37.33394118025899" width="31.109380079433322" x="0" y="0" /><path d="M17.719754688441753, 6.759114991873503 m1.7591150104999542, 0.9472157806158066 l1.2178488820791245, 3.6535465717315674 0.0, 2.029748111963272 l-0.6765826791524887, 1.8944315612316132 -2.165064662694931, 0.9472157806158066 l-1.7591150104999542, -0.5412661656737328 -1.2178488820791245, -1.4884819090366364 l-0.6765826791524887, -4.059496223926544 0.6765826791524887, -1.6237984597682953 l1.4884819090366364, -1.0825323313474655 m3.1122803688049316, -0.4059496149420738 l2.029748111963272, -1.7591150104999542 1.8944315612316132, -0.2706330828368664 l1.6237984597682953, 0.2706330828368664 0.9472157806158066, 0.6765826791524887 l0.1353165414184332, 1.2178488820791245 -0.6765826791524887, 0.8118992298841476 l-3.2475969195365906, 1.8944315612316132 m-7.7130430936813354, -1.0825323313474655 l-3.3829134702682495, 0.5412661656737328 -2.706330716609955, 2.165064662694931 l-0.1353165414184332, 0.8118992298841476 0.9472157806158066, 0.5412661656737328 l2.30038121342659, 0.0 m3.5182300209999084, 4.059496223926544 l-1.7591150104999542, 2.029748111963272 -1.0825323313474655, 3.1122803688049316 l0.2706330828368664, 2.8416472673416138 1.0825323313474655, 1.8944315612316132 l1.6237984597682953, 0.9472157806158066 1.8944315612316132, 0.0 l1.0825323313474655, -0.5412661656737328 1.8944315612316132, -1.4884819090366364 l1.2178488820791245, -2.029748111963272 0.4059496149420738, -3.1122803688049316 l-0.2706330828368664, -1.7591150104999542 -2.435697764158249, -1.0825323313474655 m3.5182300209999084, 0.9472157806158066 l2.9769638180732727, -0.4059496149420738 0.5412661656737328, 1.0825323313474655 l-0.4059496149420738, 1.6237984597682953 -2.8416472673416138, 2.165064662694931 m-12.449121475219727, -0.2706330828368664 l-1.4884819090366364, -1.4884819090366364 -1.3531653583049774, -0.4059496149420738 l-1.4884819090366364, 0.9472157806158066 -0.9472157806158066, 1.2178488820791245 l0.5412661656737328, 0.9472157806158066 4.194812774658203, 0.1353165414184332 m4.60076242685318, 4.059496223926544 l-0.1353165414184332, 3.9241796731948853 1.7591150104999542, 0.1353165414184332 l2.165064662694931, -2.435697764158249 " fill="none" stroke="black" stroke-width="1" /></svg>