<?xml version="1.0" encoding="utf-8" ?>
<svg baseProfile="full" height="90.51334056071937" version="1.1" width="120.28298016637564" xmlns="http://www.w3.org/2000/svg" xmlns:ev="http://www.w3.org/2001/xml-events" xmlns:xlink="http://www.w3.org/1999/xlink"><defs /><rect fill="white" height="90.51334056071937" width="120.28298016637564" x="0" y="0" /><path d="M42.61799774132669, 32.46925706975162 m8.795575499534607, -6.089244484901428 l2.8416472673416138, -0.9472157806158066 3.3829134702682495, -0.5412661656737328 l8.118992447853088, 0.2706330828368664 4.736078977584839, 1.3531653583049774 l4.60076242685318, 2.30038121342659 4.059496223926544, 3.1122803688049316 l3.6535465717315674, 3.6535465717315674 2.8416472673416138, 3.9241796731948853 l1.7591150104999542, 4.60076242685318 0.8118992298841476, 5.006712079048157 l-0.1353165414184332, 4.60076242685318 -1.8944315612316132, 4.871395528316498 l-3.1122803688049316, 4.465445876121521 -4.194812774658203, 3.5182300209999084 l-5.277345180511475, 2.571014165878296 -5.81861138343811, 1.4884819090366364 l-6.224560737609863, 0.2706330828368664 -6.089244484901428, -0.4059496149420738 l-6.089244484901428, -2.30038121342659 -5.6832945346832275, -3.2475969195365906 l-4.465445876121521, -3.9241796731948853 -3.2475969195365906, -3.9241796731948853 l-1.6237984597682953, -3.3829134702682495 -0.4059496149420738, -2.9769638180732727 l0.4059496149420738, -3.6535465717315674 4.330129325389862, -8.118992447853088 l3.7888631224632263, -4.194812774658203 4.465445876121521, -3.7888631224632263 m-5.953927636146545, 0.6765826791524887 l-1.6237984597682953, -2.30038121342659 -3.3829134702682495, -2.571014165878296 l-4.059496223926544, -2.706330716609955 -8.118992447853088, -4.194812774658203 l-7.307093143463135, -1.0825323313474655 -3.7888631224632263, 0.4059496149420738 l-3.3829134702682495, 1.8944315612316132 -2.706330716609955, 2.706330716609955 l-1.6237984597682953, 6.359877586364746 3.2475969195365906, 7.8483593463897705 l3.2475969195365906, 2.9769638180732727 7.577726244926453, 3.2475969195365906 l3.5182300209999084, 0.6765826791524887 2.8416472673416138, 0.0 l2.9769638180732727, -0.9472157806158066 2.8416472673416138, -2.8416472673416138 l1.8944315612316132, -3.3829134702682495 m41.81281089782715, 35.4529333114624 l-0.8118992298841476, 3.2475969195365906 -0.5412661656737328, 9.066208004951477 m-22.597861289978027, -14.072920083999634 l-1.2178488820791245, 7.307093143463135 m-7.7130430936813354, -11.90785527229309 l-2.30038121342659, 6.224560737609863 -3.7888631224632263, 6.901143789291382 m52.232184410095215, -35.4529333114624 l1.8944315612316132, -0.8118992298841476 6.765826940536499, -0.5412661656737328 l3.2475969195365906, -0.9472157806158066 2.706330716609955, 0.0 l4.330129325389862, 1.2178488820791245 3.9241796731948853, 2.435697764158249 l2.9769638180732727, 2.571014165878296 1.2178488820791245, 2.029748111963272 l0.0, 2.571014165878296 -1.0825323313474655, 3.2475969195365906 l-3.1122803688049316, 2.9769638180732727 -4.194812774658203, 1.6237984597682953 l-9.472157955169678, 0.5412661656737328 -4.194812774658203, -0.5412661656737328 l-3.1122803688049316, -1.2178488820791245 -1.7591150104999542, -1.6237984597682953 l-1.0825323313474655, -2.165064662694931 -0.2706330828368664, -4.194812774658203 m-67.5229549407959, -22.597861289978027 l-2.30038121342659, -0.9472157806158066 -0.8118992298841476, -1.0825323313474655 l-0.1353165414184332, -1.4884819090366364 1.3531653583049774, 0.0 l1.8944315612316132, 2.30038121342659 0.0, 1.6237984597682953 l-0.9472157806158066, 0.1353165414184332 -2.571014165878296, -1.2178488820791245 l-0.2706330828368664, -1.7591150104999542 0.9472157806158066, -0.1353165414184332 m9.066208004951477, 7.1717768907547 l-1.8944315612316132, 1.2178488820791245 -3.6535465717315674, 0.4059496149420738 l-4.194812774658203, 0.0 -9.742791056632996, -1.0825323313474655 m20.16216516494751, -21.380014419555664 l0.1353165414184332, -3.7888631224632263 m7.307093143463135, 13.802287578582764 l-0.2706330828368664, -4.330129325389862 -4.330129325389862, -8.930891752243042 l-2.30038121342659, -3.9241796731948853 -0.6765826791524887, -0.5412661656737328 l-1.4884819090366364, -0.1353165414184332 -3.6535465717315674, 5.81861138343811 l-0.5412661656737328, 6.765826940536499 1.4884819090366364, 2.435697764158249 l0.4059496149420738, -2.435697764158249 -0.9472157806158066, -3.9241796731948853 l-1.6237984597682953, -3.1122803688049316 -2.165064662694931, -2.029748111963272 l-1.3531653583049774, -0.5412661656737328 -5.5479782819747925, 0.4059496149420738 l-1.8944315612316132, 0.9472157806158066 -2.571014165878296, 2.706330716609955 l-0.5412661656737328, 1.4884819090366364 -0.1353165414184332, 5.277345180511475 l2.435697764158249, 7.983676195144653 " fill="none" stroke="black" stroke-width="1" /></svg>