<?xml version="1.0" encoding="utf-8" ?>
<svg baseProfile="full" height="67.50953028909862" version="1.1" width="74.95194090530276" xmlns="http://www.w3.org/2000/svg" xmlns:ev="http://www.w3.org/2001/xml-events" xmlns:xlink="http://www.w3.org/1999/xlink"><defs /><rect fill="white" height="67.50953028909862" width="74.95194090530276" x="0" y="0" /><path d="M46.67749575339258, 12.036459967494011 m2.435697764158249, -2.571014165878296 l5.142028331756592, -3.3829134702682495 4.330129325389862, -1.0825323313474655 l3.1122803688049316, 0.1353165414184332 3.3829134702682495, 1.6237984597682953 l1.2178488820791245, 1.7591150104999542 0.6765826791524887, 2.706330716609955 l-0.1353165414184332, 4.871395528316498 m-40.32433032989502, -6.630510687828064 l-2.706330716609955, -2.165064662694931 -4.059496223926544, -1.6237984597682953 l-2.8416472673416138, -0.4059496149420738 -4.871395528316498, 0.6765826791524887 l-3.6535465717315674, 1.8944315612316132 -2.706330716609955, 2.9769638180732727 l-0.6765826791524887, 3.6535465717315674 1.3531653583049774, 3.3829134702682495 l3.6535465717315674, 2.8416472673416138 m40.73028087615967, -9.607474207878113 l-1.4884819090366364, 0.0 -4.465445876121521, -2.435697764158249 l-3.6535465717315674, -1.0825323313474655 -5.006712079048157, 0.0 l-10.82532286643982, 2.8416472673416138 m41.4068603515625, 10.148741006851196 l-4.330129325389862, 7.7130430936813354 m2.435697764158249, -3.6535465717315674 l2.30038121342659, 3.5182300209999084 1.7591150104999542, 6.901143789291382 l0.2706330828368664, 2.571014165878296 -1.0825323313474655, 6.089244484901428 l-1.2178488820791245, 3.7888631224632263 -1.6237984597682953, 2.9769638180732727 m4.736078977584839, -5.41266143321991 l-2.435697764158249, 3.9241796731948853 -4.736078977584839, 4.465445876121521 l-3.6535465717315674, 2.9769638180732727 -6.224560737609863, 2.9769638180732727 l-7.577726244926453, 2.029748111963272 -6.495193839073181, 1.0825323313474655 l-5.5479782819747925, 0.0 -5.6832945346832275, -0.6765826791524887 l-5.81861138343811, -1.7591150104999542 -3.5182300209999084, -1.7591150104999542 l-3.1122803688049316, -2.165064662694931 -3.9241796731948853, -4.194812774658203 l-3.3829134702682495, -6.495193839073181 -1.7591150104999542, -5.006712079048157 l-0.4059496149420738, -3.2475969195365906 0.8118992298841476, -4.60076242685318 l1.7591150104999542, -4.194812774658203 3.5182300209999084, -6.089244484901428 m25.845458507537842, 16.508618593215942 l-2.706330716609955, 0.9472157806158066 -1.3531653583049774, 1.0825323313474655 l-0.9472157806158066, 2.029748111963272 0.9472157806158066, 2.029748111963272 l1.3531653583049774, 0.2706330828368664 2.165064662694931, -0.8118992298841476 l2.706330716609955, 1.3531653583049774 1.4884819090366364, -0.1353165414184332 l1.2178488820791245, -1.0825323313474655 0.9472157806158066, -2.029748111963272 l0.6765826791524887, -0.2706330828368664 " fill="none" stroke="black" stroke-width="1" /></svg>