<?xml version="1.0" encoding="utf-8" ?>
<svg baseProfile="full" height="56.413574665784836" version="1.1" width="38.95774017088115" xmlns="http://www.w3.org/2000/svg" xmlns:ev="http://www.w3.org/2001/xml-events" xmlns:xlink="http://www.w3.org/1999/xlink"><defs /><rect fill="white" height="56.413574665784836" width="38.95774017088115" x="0" y="0" /><path d="M8.38291403837502, 13.118992932140827 m-2.435697764158249, 3.6535465717315674 l-0.2706330828368664, 1.6237984597682953 -0.5412661656737328, 0.6765826791524887 l0.0, 9.472157955169678 1.3531653583049774, 1.8944315612316132 l3.6535465717315674, 4.330129325389862 7.7130430936813354, 4.871395528316498 l5.6832945346832275, 0.9472157806158066 4.059496223926544, -0.9472157806158066 l1.8944315612316132, -1.4884819090366364 3.2475969195365906, -5.277345180511475 l1.2178488820791245, -8.254309296607971 -0.1353165414184332, -4.736078977584839 l-1.6237984597682953, -4.059496223926544 -1.0825323313474655, -1.6237984597682953 l-5.41266143321991, -2.30038121342659 -1.7591150104999542, -1.2178488820791245 l-6.089244484901428, -0.9472157806158066 -3.7888631224632263, 0.0 l-6.495193839073181, 3.3829134702682495 -0.9472157806158066, 2.30038121342659 m10.419373512268066, 8.660258650779724 l-0.9472157806158066, 0.2706330828368664 -0.4059496149420738, 0.8118992298841476 l-0.2706330828368664, 2.8416472673416138 1.7591150104999542, 0.8118992298841476 l1.4884819090366364, 0.0 2.435697764158249, -2.30038121342659 l0.5412661656737328, -1.6237984597682953 -0.2706330828368664, -1.3531653583049774 l-3.6535465717315674, -0.4059496149420738 -2.30038121342659, 1.0825323313474655 l-0.1353165414184332, 0.5412661656737328 m1.8944315612316132, -1.4884819090366364 l0.4059496149420738, -2.30038121342659 0.0, 2.165064662694931 m-1.2178488820791245, 4.465445876121521 l2.029748111963272, -0.8118992298841476 0.8118992298841476, -1.2178488820791245 l0.4059496149420738, 1.3531653583049774 1.8944315612316132, 0.4059496149420738 m-11.231273412704468, -8.118992447853088 l0.8118992298841476, -1.3531653583049774 0.8118992298841476, -0.1353165414184332 l0.8118992298841476, 2.9769638180732727 -0.8118992298841476, 0.2706330828368664 l-0.1353165414184332, -0.6765826791524887 0.0, -1.3531653583049774 l0.6765826791524887, -0.6765826791524887 m8.118992447853088, 0.9472157806158066 l0.8118992298841476, -2.30038121342659 0.6765826791524887, -0.5412661656737328 l0.6765826791524887, 3.3829134702682495 -0.6765826791524887, 0.4059496149420738 l-0.2706330828368664, -2.165064662694931 m-14.61418628692627, -1.4884819090366364 l-0.6765826791524887, 0.1353165414184332 -1.0825323313474655, -2.029748111963272 l-0.4059496149420738, -2.165064662694931 0.4059496149420738, -5.5479782819747925 l1.3531653583049774, -0.6765826791524887 2.706330716609955, 0.0 l2.9769638180732727, 2.706330716609955 0.6765826791524887, 2.029748111963272 m9.87810730934143, -0.8118992298841476 l2.165064662694931, -3.6535465717315674 1.3531653583049774, -1.0825323313474655 l1.4884819090366364, -0.4059496149420738 1.2178488820791245, 1.3531653583049774 l1.2178488820791245, 3.9241796731948853 0.1353165414184332, 2.571014165878296 l-1.2178488820791245, 1.6237984597682953 m-13.66697072982788, 24.492294788360596 l-4.330129325389862, 10.690007209777832 -0.1353165414184332, 1.7591150104999542 " fill="none" stroke="black" stroke-width="1" /></svg>