<?xml version="1.0" encoding="utf-8" ?>
<svg baseProfile="full" height="87.80701071023941" version="1.1" width="76.30510494112968" xmlns="http://www.w3.org/2000/svg" xmlns:ev="http://www.w3.org/2001/xml-events" xmlns:xlink="http://www.w3.org/1999/xlink"><defs /><rect fill="white" height="87.80701071023941" width="76.30510494112968" x="0" y="0" /><path d="M46.13622737117112, 15.419373791664839 m-2.9769638180732727, -2.029748111963272 l-5.6832945346832275, -0.2706330828368664 -2.029748111963272, 0.4059496149420738 l-5.6832945346832275, 1.8944315612316132 -4.465445876121521, 2.30038121342659 l-3.3829134702682495, 2.571014165878296 -1.7591150104999542, 2.30038121342659 l-1.4884819090366364, 4.059496223926544 -0.5412661656737328, 2.706330716609955 l0.0, 3.3829134702682495 1.0825323313474655, 3.3829134702682495 l1.7591150104999542, 2.9769638180732727 3.9241796731948853, 2.9769638180732727 l4.059496223926544, 1.7591150104999542 5.277345180511475, 1.4884819090366364 l10.55469036102295, 0.4059496149420738 1.8944315612316132, -0.5412661656737328 l1.6237984597682953, -1.0825323313474655 7.307093143463135, -7.442409992218018 l1.0825323313474655, -1.7591150104999542 1.0825323313474655, -3.7888631224632263 l0.0, -3.5182300209999084 -0.6765826791524887, -3.5182300209999084 l-0.9472157806158066, -2.165064662694931 -2.165064662694931, -2.165064662694931 l-4.465445876121521, -2.9769638180732727 -6.359877586364746, -3.1122803688049316 l-2.029748111963272, -0.5412661656737328 m-22.73317813873291, 8.930891752243042 l-0.5412661656737328, -2.8416472673416138 -2.571014165878296, -5.953927636146545 l-0.1353165414184332, -2.435697764158249 1.7591150104999542, -2.9769638180732727 l2.30038121342659, -1.6237984597682953 3.2475969195365906, -1.2178488820791245 l3.6535465717315674, 1.2178488820791245 3.5182300209999084, 3.1122803688049316 l0.6765826791524887, 2.165064662694931 0.0, 2.571014165878296 m17.861783504486084, 1.2178488820791245 l1.2178488820791245, -5.81861138343811 1.4884819090366364, -2.029748111963272 l2.706330716609955, -0.6765826791524887 9.20152485370636, 1.4884819090366364 l0.8118992298841476, 1.3531653583049774 0.8118992298841476, 3.1122803688049316 l-0.2706330828368664, 3.5182300209999084 -0.6765826791524887, 1.6237984597682953 l-2.435697764158249, 3.9241796731948853 -2.435697764158249, 1.6237984597682953 l-3.6535465717315674, 0.8118992298841476 m-36.80609941482544, 17.591150999069214 l-5.142028331756592, 1.8944315612316132 -2.435697764158249, 2.30038121342659 l-4.330129325389862, 9.607474207878113 -1.2178488820791245, 8.118992447853088 l0.9472157806158066, 4.60076242685318 1.4884819090366364, 2.8416472673416138 l3.1122803688049316, 3.2475969195365906 2.30038121342659, 0.9472157806158066 l4.736078977584839, 3.2475969195365906 3.7888631224632263, 1.6237984597682953 l6.495193839073181, 1.4884819090366364 13.66697072982788, 1.0825323313474655 l5.41266143321991, -0.1353165414184332 4.465445876121521, -0.9472157806158066 l7.442409992218018, -0.8118992298841476 4.194812774658203, -1.3531653583049774 l2.30038121342659, -1.7591150104999542 2.706330716609955, -4.330129325389862 l2.165064662694931, -4.871395528316498 1.0825323313474655, -7.1717768907547 l-1.8944315612316132, -5.277345180511475 -1.6237984597682953, -2.435697764158249 l-3.5182300209999084, -3.6535465717315674 -10.013424158096313, -7.8483593463897705 l-0.6765826791524887, 0.5412661656737328 " fill="none" stroke="black" stroke-width="1" /></svg>