<?xml version="1.0" encoding="utf-8" ?>
<svg baseProfile="full" height="62.77345132082701" version="1.1" width="62.63813488185406" xmlns="http://www.w3.org/2000/svg" xmlns:ev="http://www.w3.org/2001/xml-events" xmlns:xlink="http://www.w3.org/1999/xlink"><defs /><rect fill="white" height="62.77345132082701" width="62.63813488185406" x="0" y="0" /><path d="M24.214949533343315, 13.795575313270092 m0.0, 0.0 m-5.142028331756592, 6.089244484901428 l0.0, 0.0 m-6.901143789291382, 4.059496223926544 l0.0, 0.0 m-6.089244484901428, 11.231273412704468 l0.0, 0.0 m-0.4059496149420738, 10.284056663513184 l0.0, 0.0 m9.472157955169678, 6.901143789291382 l0.0, 0.0 m15.561401844024658, 5.41266143321991 l0.0, 0.0 m11.366589069366455, -3.1122803688049316 l0.0, 0.0 m12.990387678146362, -2.9769638180732727 l0.0, 0.0 m0.5412661656737328, -9.336841106414795 l0.0, 0.0 m-1.7591150104999542, -9.336841106414795 l0.0, 0.0 m-1.2178488820791245, -5.277345180511475 l0.0, 0.0 m-6.089244484901428, -7.442409992218018 l0.0, 0.0 m-4.194812774658203, -3.7888631224632263 l0.0, 0.0 m-9.20152485370636, -2.435697764158249 l0.0, 0.0 m-4.194812774658203, 0.2706330828368664 l0.0, 0.0 m-11.772539615631104, 14.749503135681152 l0.0, 0.0 m-3.6535465717315674, 5.953927636146545 l0.0, 0.0 m4.059496223926544, 2.165064662694931 l0.0, 0.0 m2.435697764158249, -1.8944315612316132 l0.0, 0.0 m0.8118992298841476, -5.277345180511475 l0.0, 0.0 m-2.165064662694931, -1.6237984597682953 l0.0, 0.0 m21.24469757080078, 1.8944315612316132 l0.0, 0.0 m-1.8944315612316132, 4.871395528316498 l0.0, 0.0 m2.8416472673416138, 2.706330716609955 l0.0, 0.0 m3.2475969195365906, -0.4059496149420738 l0.0, 0.0 m2.8416472673416138, -0.6765826791524887 l0.0, 0.0 m2.30038121342659, -2.30038121342659 l0.0, 0.0 m-2.029748111963272, -5.5479782819747925 l0.0, 0.0 m-4.059496223926544, -1.0825323313474655 l0.0, 0.0 m-16.779251098632812, 10.148741006851196 l0.0, 0.0 m8.118992447853088, 0.9472157806158066 l0.0, 0.0 m-5.277345180511475, -0.6765826791524887 l0.0, 0.0 m-2.8416472673416138, 3.2475969195365906 l0.0, 0.0 m1.4884819090366364, 2.8416472673416138 l0.0, 0.0 m2.9769638180732727, 0.0 l0.0, 0.0 m2.9769638180732727, -0.9472157806158066 l0.0, 0.0 m1.6237984597682953, -2.435697764158249 l0.0, 0.0 m-7.1717768907547, 5.6832945346832275 l0.0, 0.0 m-1.0825323313474655, 4.194812774658203 l0.0, 0.0 m-2.571014165878296, 2.029748111963272 l0.0, 0.0 m5.277345180511475, -5.277345180511475 l0.0, 0.0 m2.706330716609955, 6.359877586364746 l0.0, 0.0 m2.8416472673416138, -0.2706330828368664 l0.0, 0.0 m-27.875206470489502, -31.79938793182373 l0.0, 0.0 m-2.571014165878296, -9.336841106414795 l0.0, 0.0 m1.6237984597682953, -4.736078977584839 l0.0, 0.0 m4.871395528316498, -2.165064662694931 l0.0, 0.0 m4.465445876121521, -0.6765826791524887 l0.0, 0.0 m2.571014165878296, 4.059496223926544 l0.0, 0.0 m1.0825323313474655, 5.953927636146545 l0.0, 0.0 m23.27444553375244, -1.8944315612316132 l0.0, 0.0 m2.706330716609955, -4.871395528316498 l0.0, 0.0 m6.089244484901428, -1.7591150104999542 l0.0, 0.0 m2.029748111963272, 2.165064662694931 l0.0, 0.0 m1.7591150104999542, 3.6535465717315674 l0.0, 0.0 m2.165064662694931, 3.6535465717315674 l0.0, 0.0 m-4.871395528316498, 8.389625549316406 l0.0, 0.0 " fill="none" stroke="black" stroke-width="1" /></svg>