<?xml version="1.0" encoding="utf-8" ?>
<svg baseProfile="full" height="47.21204845234752" version="1.1" width="49.10648098215461" xmlns="http://www.w3.org/2000/svg" xmlns:ev="http://www.w3.org/2001/xml-events" xmlns:xlink="http://www.w3.org/1999/xlink"><defs /><rect fill="white" height="47.21204845234752" width="49.10648098215461" x="0" y="0" /><path d="M14.47215761989355, 17.855071052908897 m-1.2178488820791245, -0.8118992298841476 l-1.3531653583049774, 0.0 -0.9472157806158066, 0.6765826791524887 l-2.8416472673416138, 4.736078977584839 -2.706330716609955, 1.3531653583049774 l-0.4059496149420738, 0.6765826791524887 0.1353165414184332, 2.029748111963272 l0.9472157806158066, 1.3531653583049774 2.8416472673416138, -0.6765826791524887 l4.871395528316498, -2.435697764158249 3.6535465717315674, -0.2706330828368664 m-1.2178488820791245, -6.224560737609863 l0.1353165414184332, -2.435697764158249 2.029748111963272, -3.1122803688049316 l5.5479782819747925, -3.9241796731948853 4.736078977584839, -1.3531653583049774 l3.3829134702682495, 0.0 5.277345180511475, 0.8118992298841476 l1.0825323313474655, 0.8118992298841476 2.435697764158249, 2.165064662694931 l1.7591150104999542, 2.8416472673416138 0.6765826791524887, 3.7888631224632263 l0.0, 6.765826940536499 -0.9472157806158066, 3.3829134702682495 l-2.435697764158249, 3.1122803688049316 -4.330129325389862, 1.3531653583049774 m-19.214948415756226, -8.660258650779724 l-0.9472157806158066, 1.8944315612316132 0.0, 1.6237984597682953 l2.571014165878296, 2.9769638180732727 1.2178488820791245, 0.6765826791524887 l5.81861138343811, 0.0 8.254309296607971, -1.3531653583049774 l2.8416472673416138, -0.9472157806158066 5.006712079048157, -2.165064662694931 l2.9769638180732727, -2.571014165878296 0.0, -0.5412661656737328 m-27.19862461090088, 5.5479782819747925 l0.9472157806158066, 5.006712079048157 -0.5412661656737328, 6.359877586364746 l0.1353165414184332, 1.0825323313474655 1.3531653583049774, 0.8118992298841476 l0.8118992298841476, 0.0 1.2178488820791245, -0.4059496149420738 l1.0825323313474655, -1.4884819090366364 1.6237984597682953, -4.194812774658203 l0.2706330828368664, -4.871395528316498 m2.029748111963272, -1.7591150104999542 l-0.4059496149420738, 8.389625549316406 0.5412661656737328, 3.1122803688049316 l0.5412661656737328, 0.1353165414184332 0.9472157806158066, 0.1353165414184332 l1.0825323313474655, -2.165064662694931 1.4884819090366364, -8.524942398071289 m4.194812774658203, -2.30038121342659 l0.0, 4.60076242685318 1.2178488820791245, 6.359877586364746 l1.3531653583049774, -2.9769638180732727 0.1353165414184332, -1.6237984597682953 l-0.4059496149420738, -6.630510687828064 m2.165064662694931, -1.0825323313474655 l0.9472157806158066, 6.630510687828064 0.4059496149420738, 1.0825323313474655 l1.4884819090366364, 1.4884819090366364 0.1353165414184332, -5.277345180511475 l-0.6765826791524887, -3.7888631224632263 -0.1353165414184332, -3.6535465717315674 m-3.7888631224632263, -14.478869438171387 l1.3531653583049774, -2.029748111963272 3.7888631224632263, -1.8944315612316132 l-0.6765826791524887, 1.6237984597682953 -5.277345180511475, 6.630510687828064 " fill="none" stroke="black" stroke-width="1" /></svg>