<?xml version="1.0" encoding="utf-8" ?>
<svg baseProfile="full" height="55.33103961497545" version="1.1" width="94.43751841783524" xmlns="http://www.w3.org/2000/svg" xmlns:ev="http://www.w3.org/2001/xml-events" xmlns:xlink="http://www.w3.org/1999/xlink"><defs /><rect fill="white" height="55.33103961497545" width="94.43751841783524" x="0" y="0" /><path d="M64.80990830808878, 10.142028592526913 m1.7591150104999542, -2.165064662694931 l4.465445876121521, -2.435697764158249 9.066208004951477, -0.5412661656737328 l1.7591150104999542, 1.2178488820791245 2.165064662694931, 3.2475969195365906 l0.5412661656737328, 5.006712079048157 m-1.8944315612316132, -0.5412661656737328 l6.765826940536499, 3.7888631224632263 0.0, 3.5182300209999084 l-0.5412661656737328, 0.6765826791524887 -2.435697764158249, 0.8118992298841476 l-2.9769638180732727, 0.0 -3.9241796731948853, -1.2178488820791245 m-12.58443832397461, -12.855072021484375 l-0.4059496149420738, 4.330129325389862 3.7888631224632263, 0.4059496149420738 l0.6765826791524887, -0.1353165414184332 1.4884819090366364, -5.006712079048157 m4.330129325389862, 3.3829134702682495 l1.0825323313474655, 1.4884819090366364 0.6765826791524887, 0.1353165414184332 l0.2706330828368664, -2.029748111963272 -1.3531653583049774, -0.2706330828368664 l-0.1353165414184332, 0.5412661656737328 m2.706330716609955, 10.82532286643982 l-0.8118992298841476, 1.3531653583049774 -0.6765826791524887, 0.2706330828368664 l-7.307093143463135, 1.2178488820791245 -0.5412661656737328, -0.2706330828368664 m-7.8483593463897705, -13.531653881072998 l-41.00090980529785, 0.2706330828368664 -6.495193839073181, 1.3531653583049774 l-1.8944315612316132, 0.6765826791524887 -1.4884819090366364, 1.0825323313474655 l-2.029748111963272, 4.465445876121521 -0.5412661656737328, 4.330129325389862 l0.4059496149420738, 6.901143789291382 3.3829134702682495, 10.82532286643982 l1.4884819090366364, 3.1122803688049316 4.330129325389862, 5.953927636146545 m6.495193839073181, -16.102668046951294 l1.2178488820791245, 10.148741006851196 -0.1353165414184332, 1.4884819090366364 l-1.0825323313474655, 1.2178488820791245 m7.577726244926453, -12.58443832397461 l2.029748111963272, 2.165064662694931 2.165064662694931, 5.006712079048157 l-0.1353165414184332, 3.3829134702682495 -0.9472157806158066, 1.3531653583049774 l-2.029748111963272, 1.0825323313474655 m4.465445876121521, -9.20152485370636 l0.5412661656737328, 0.6765826791524887 2.8416472673416138, 0.9472157806158066 l6.765826940536499, 0.9472157806158066 5.142028331756592, 0.1353165414184332 l0.9472157806158066, -0.1353165414184332 5.006712079048157, -2.9769638180732727 m-1.4884819090366364, 0.8118992298841476 l0.1353165414184332, 2.706330716609955 1.7591150104999542, 2.165064662694931 l2.8416472673416138, 1.2178488820791245 4.194812774658203, 0.6765826791524887 m3.3829134702682495, -10.690007209777832 l1.0825323313474655, 4.736078977584839 0.1353165414184332, 4.330129325389862 m5.953927636146545, -11.366589069366455 l0.9472157806158066, 1.3531653583049774 1.2178488820791245, 3.9241796731948853 l0.0, 4.330129325389862 -0.4059496149420738, 0.6765826791524887 l-2.571014165878296, 1.3531653583049774 m-4.059496223926544, -18.808999061584473 l0.8118992298841476, 0.1353165414184332 3.6535465717315674, 3.1122803688049316 l0.5412661656737328, 2.9769638180732727 -2.165064662694931, 0.4059496149420738 m-66.44042015075684, -14.072920083999634 l-0.1353165414184332, -0.8118992298841476 -0.6765826791524887, -0.5412661656737328 l-2.571014165878296, -0.6765826791524887 -1.0825323313474655, 2.165064662694931 l0.0, 1.8944315612316132 0.8118992298841476, 1.4884819090366364 l1.8944315612316132, 1.2178488820791245 1.8944315612316132, 0.5412661656737328 l0.9472157806158066, -0.2706330828368664 0.6765826791524887, -2.9769638180732727 " fill="none" stroke="black" stroke-width="1" /></svg>