<?xml version="1.0" encoding="utf-8" ?>
<svg baseProfile="full" height="74.5459908619523" version="1.1" width="123.80121098831296" xmlns="http://www.w3.org/2000/svg" xmlns:ev="http://www.w3.org/2001/xml-events" xmlns:xlink="http://www.w3.org/1999/xlink"><defs /><rect fill="white" height="74.5459908619523" width="123.80121098831296" x="0" y="0" /><path d="M87.94903926551342, 21.643935898318887 m-2.30038121342659, -3.1122803688049316 l-3.2475969195365906, -2.9769638180732727 -3.7888631224632263, -2.435697764158249 l-7.577726244926453, -2.9769638180732727 -6.495193839073181, -1.2178488820791245 l-7.307093143463135, -0.5412661656737328 -7.577726244926453, 0.0 l-7.577726244926453, 0.6765826791524887 -3.6535465717315674, 0.6765826791524887 l-7.1717768907547, 2.30038121342659 -3.3829134702682495, 1.4884819090366364 l-6.765826940536499, 4.059496223926544 -5.81861138343811, 5.277345180511475 l-4.465445876121521, 6.224560737609863 -1.7591150104999542, 3.2475969195365906 l-3.1122803688049316, 9.607474207878113 -0.9472157806158066, 5.41266143321991 l0.2706330828368664, 5.006712079048157 2.30038121342659, 5.953927636146545 l0.9472157806158066, 1.6237984597682953 2.9769638180732727, 2.435697764158249 l3.7888631224632263, 1.4884819090366364 2.029748111963272, 0.1353165414184332 l4.059496223926544, 0.0 4.059496223926544, -0.8118992298841476 l2.706330716609955, -1.3531653583049774 2.30038121342659, -2.435697764158249 l-0.2706330828368664, 0.9472157806158066 0.1353165414184332, 2.8416472673416138 l1.6237984597682953, 5.277345180511475 0.6765826791524887, 1.0825323313474655 l2.435697764158249, -0.1353165414184332 11.63722276687622, -2.571014165878296 l7.1717768907547, -0.4059496149420738 0.4059496149420738, -0.6765826791524887 l-3.3829134702682495, -5.142028331756592 -2.706330716609955, -5.953927636146545 l-0.8118992298841476, -4.465445876121521 2.571014165878296, 2.029748111963272 l5.142028331756592, 7.8483593463897705 3.3829134702682495, 3.9241796731948853 l4.059496223926544, 3.1122803688049316 1.6237984597682953, 0.6765826791524887 l2.706330716609955, 0.6765826791524887 3.2475969195365906, 0.0 l5.6832945346832275, -1.2178488820791245 10.148741006851196, -2.9769638180732727 l1.6237984597682953, -2.029748111963272 -0.1353165414184332, -3.3829134702682495 l-1.6237984597682953, -4.059496223926544 -5.953927636146545, -7.577726244926453 l-1.6237984597682953, -5.006712079048157 -0.2706330828368664, 0.4059496149420738 m9.742791056632996, -20.974063873291016 l0.5412661656737328, -2.165064662694931 1.2178488820791245, -0.9472157806158066 l2.8416472673416138, -1.0825323313474655 4.194812774658203, -0.8118992298841476 l5.142028331756592, -0.1353165414184332 2.8416472673416138, 0.2706330828368664 l5.006712079048157, 1.4884819090366364 4.059496223926544, 2.706330716609955 l4.059496223926544, 5.6832945346832275 1.2178488820791245, 4.059496223926544 l0.0, 3.9241796731948853 -0.5412661656737328, 1.7591150104999542 l-3.9241796731948853, 5.41266143321991 -1.7591150104999542, 1.6237984597682953 l-4.194812774658203, 2.571014165878296 -2.029748111963272, 1.0825323313474655 l-6.495193839073181, 1.8944315612316132 -4.059496223926544, 0.4059496149420738 l-7.8483593463897705, -1.4884819090366364 -6.495193839073181, -3.2475969195365906 l-1.3531653583049774, -1.2178488820791245 -0.8118992298841476, -1.4884819090366364 l-0.6765826791524887, -2.165064662694931 0.1353165414184332, -1.7591150104999542 m21.24469757080078, -22.462546825408936 l-0.1353165414184332, -1.0825323313474655 -2.571014165878296, -4.194812774658203 l-3.9241796731948853, -4.330129325389862 -0.6765826791524887, 0.4059496149420738 l-0.4059496149420738, 1.0825323313474655 0.0, 1.8944315612316132 l1.4884819090366364, 7.442409992218018 -0.1353165414184332, 0.6765826791524887 m6.901143789291382, -3.1122803688049316 l0.9472157806158066, -6.765826940536499 1.3531653583049774, -2.029748111963272 l1.3531653583049774, -0.5412661656737328 1.4884819090366364, 0.5412661656737328 l1.4884819090366364, 2.029748111963272 1.3531653583049774, 6.765826940536499 m5.277345180511475, 20.026848316192627 l-5.81861138343811, 4.330129325389862 -5.006712079048157, 2.30038121342659 l-5.953927636146545, 0.2706330828368664 -4.059496223926544, -0.4059496149420738 l-5.142028331756592, -1.7591150104999542 -3.2475969195365906, -2.30038121342659 l-1.7591150104999542, -2.435697764158249 -1.6237984597682953, -3.5182300209999084 l0.0, -0.8118992298841476 m22.73317813873291, -4.60076242685318 l0.0, 0.4059496149420738 m-9.87810730934143, 0.5412661656737328 l0.0, 0.1353165414184332 " fill="none" stroke="black" stroke-width="1" /></svg>