<?xml version="1.0" encoding="utf-8" ?>
<svg baseProfile="full" height="38.687106501311064" version="1.1" width="44.09976899623871" xmlns="http://www.w3.org/2000/svg" xmlns:ev="http://www.w3.org/2001/xml-events" xmlns:xlink="http://www.w3.org/1999/xlink"><defs /><rect fill="white" height="38.687106501311064" width="44.09976899623871" x="0" y="0" /><path d="M15.148740289732814, 18.531654765829444 m0.4059496149420738, 0.1353165414184332 m13.531653881072998, -0.5412661656737328 l0.4059496149420738, 0.6765826791524887 0.0, -0.6765826791524887 l-0.4059496149420738, -0.1353165414184332 m-5.5479782819747925, 2.9769638180732727 l-2.029748111963272, 1.4884819090366364 -0.9472157806158066, 1.3531653583049774 l0.0, 0.6765826791524887 1.2178488820791245, 1.3531653583049774 l0.6765826791524887, 0.4059496149420738 1.6237984597682953, -0.1353165414184332 l1.4884819090366364, -1.2178488820791245 0.8118992298841476, -1.3531653583049774 l-0.2706330828368664, -1.3531653583049774 -2.435697764158249, -1.7591150104999542 m-3.9241796731948853, -10.690007209777832 l-1.6237984597682953, 0.1353165414184332 -3.3829134702682495, 1.2178488820791245 l-5.142028331756592, 3.2475969195365906 -1.3531653583049774, 1.6237984597682953 l-1.3531653583049774, 3.9241796731948853 -0.2706330828368664, 3.6535465717315674 l2.029748111963272, 4.059496223926544 2.435697764158249, 2.571014165878296 l2.30038121342659, 1.0825323313474655 9.87810730934143, 2.30038121342659 l1.7591150104999542, 0.1353165414184332 6.089244484901428, -1.3531653583049774 l2.165064662694931, -1.2178488820791245 1.8944315612316132, -3.2475969195365906 l1.4884819090366364, -5.277345180511475 0.1353165414184332, -2.8416472673416138 l-1.6237984597682953, -4.330129325389862 -2.435697764158249, -2.706330716609955 l-3.1122803688049316, -1.6237984597682953 -7.307093143463135, -1.8944315612316132 l-2.706330716609955, 0.2706330828368664 -1.6237984597682953, 1.4884819090366364 m-5.006712079048157, 0.4059496149420738 l-0.5412661656737328, -1.6237984597682953 -2.8416472673416138, -2.435697764158249 l-0.6765826791524887, 0.0 -1.3531653583049774, 0.9472157806158066 l-2.30038121342659, 2.8416472673416138 -0.2706330828368664, 2.029748111963272 l1.2178488820791245, 1.2178488820791245 2.30038121342659, 1.2178488820791245 m23.409762382507324, -4.330129325389862 l-0.1353165414184332, -1.6237984597682953 0.6765826791524887, -1.7591150104999542 l1.4884819090366364, -1.8944315612316132 2.165064662694931, -0.9472157806158066 l1.4884819090366364, 0.6765826791524887 1.3531653583049774, 2.165064662694931 l0.1353165414184332, 2.30038121342659 -0.6765826791524887, 1.4884819090366364 l-2.029748111963272, 1.7591150104999542 -1.3531653583049774, 0.5412661656737328 " fill="none" stroke="black" stroke-width="1" /></svg>