<?xml version="1.0" encoding="utf-8" ?>
<svg baseProfile="full" height="82.80029967427254" version="1.1" width="88.34827688522637" xmlns="http://www.w3.org/2000/svg" xmlns:ev="http://www.w3.org/2001/xml-events" xmlns:xlink="http://www.w3.org/1999/xlink"><defs /><rect fill="white" height="82.80029967427254" width="88.34827688522637" x="0" y="0" /><path d="M7.841647267341614, 38.01723560318351 m-2.8416472673416138, -20.838747024536133 l0.0, -4.871395528316498 0.8118992298841476, -3.1122803688049316 l2.30038121342659, -2.9769638180732727 1.6237984597682953, -0.9472157806158066 l1.7591150104999542, -0.2706330828368664 4.194812774658203, 1.2178488820791245 l4.194812774658203, 2.706330716609955 1.4884819090366364, 3.6535465717315674 l2.029748111963272, 7.983676195144653 0.4059496149420738, 6.630510687828064 l-0.1353165414184332, -0.8118992298841476 2.435697764158249, -2.9769638180732727 l3.3829134702682495, -2.706330716609955 4.330129325389862, -2.165064662694931 l2.435697764158249, -0.5412661656737328 2.571014165878296, 0.0 l7.442409992218018, 1.7591150104999542 5.006712079048157, 2.30038121342659 l4.736078977584839, 3.2475969195365906 3.5182300209999084, 5.277345180511475 l0.0, -2.9769638180732727 1.7591150104999542, -5.6832945346832275 l2.9769638180732727, -5.142028331756592 1.8944315612316132, -2.30038121342659 l1.7591150104999542, -1.4884819090366364 2.9769638180732727, -1.4884819090366364 l2.165064662694931, -0.5412661656737328 3.2475969195365906, 0.1353165414184332 l2.8416472673416138, 3.7888631224632263 3.1122803688049316, 7.036460041999817 l1.0825323313474655, 6.495193839073181 0.0, 7.983676195144653 l-2.30038121342659, 5.5479782819747925 -6.495193839073181, 11.501905918121338 l-1.3531653583049774, 3.3829134702682495 -0.2706330828368664, -0.1353165414184332 m-33.82913589477539, -9.472157955169678 l-6.224560737609863, 3.1122803688049316 -1.4884819090366364, 1.8944315612316132 l-4.330129325389862, 3.9241796731948853 -2.029748111963272, 3.3829134702682495 l-0.2706330828368664, 3.1122803688049316 0.0, 6.495193839073181 l1.7591150104999542, 5.006712079048157 2.029748111963272, 2.706330716609955 l3.7888631224632263, -0.2706330828368664 2.9769638180732727, -0.8118992298841476 l2.8416472673416138, 0.8118992298841476 3.5182300209999084, 0.1353165414184332 l1.2178488820791245, 0.9472157806158066 4.194812774658203, 0.1353165414184332 l1.3531653583049774, -0.8118992298841476 1.6237984597682953, -2.9769638180732727 l1.0825323313474655, -3.7888631224632263 0.5412661656737328, -0.6765826791524887 l0.6765826791524887, -8.118992447853088 -0.1353165414184332, -5.5479782819747925 l-2.165064662694931, -4.871395528316498 -3.7888631224632263, -3.2475969195365906 l-7.1717768907547, 0.0 m0.5412661656737328, 13.937603235244751 l-1.4884819090366364, 0.9472157806158066 -0.2706330828368664, 0.6765826791524887 l0.0, 1.4884819090366364 0.6765826791524887, 0.2706330828368664 l2.029748111963272, 0.0 0.8118992298841476, -0.8118992298841476 l0.0, -2.165064662694931 " fill="none" stroke="black" stroke-width="1" /></svg>