<?xml version="1.0" encoding="utf-8" ?>
<svg baseProfile="full" height="49.918380193412304" version="1.1" width="42.611286314204335" xmlns="http://www.w3.org/2000/svg" xmlns:ev="http://www.w3.org/2001/xml-events" xmlns:xlink="http://www.w3.org/1999/xlink"><defs /><rect fill="white" height="49.918380193412304" width="42.611286314204335" x="0" y="0" /><path d="M31.251408960670233, 16.231273896992207 m3.6535465717315674, 4.194812774658203 l1.2178488820791245, 2.706330716609955 1.3531653583049774, 5.5479782819747925 l0.1353165414184332, 2.571014165878296 -0.1353165414184332, 0.6765826791524887 l-2.571014165878296, 2.706330716609955 -0.9472157806158066, 1.6237984597682953 l-1.2178488820791245, 3.5182300209999084 -3.9241796731948853, 3.5182300209999084 l-5.006712079048157, 1.6237984597682953 -3.5182300209999084, 0.0 l-2.8416472673416138, -1.2178488820791245 -2.9769638180732727, -2.029748111963272 l-3.1122803688049316, -3.5182300209999084 -1.3531653583049774, -2.706330716609955 l-0.6765826791524887, -3.7888631224632263 0.0, -5.5479782819747925 l0.9472157806158066, -2.9769638180732727 2.706330716609955, -5.006712079048157 l1.4884819090366364, -1.0825323313474655 3.2475969195365906, -0.9472157806158066 l9.20152485370636, -1.2178488820791245 1.4884819090366364, 0.0 l2.571014165878296, 1.4884819090366364 m-18.944315910339355, 2.8416472673416138 l-6.765826940536499, -11.772539615631104 -0.2706330828368664, -2.029748111963272 l0.6765826791524887, -0.4059496149420738 1.4884819090366364, 1.0825323313474655 l4.059496223926544, 4.465445876121521 3.3829134702682495, 9.607474207878113 m13.937603235244751, -4.330129325389862 l1.8944315612316132, -5.41266143321991 1.3531653583049774, -2.165064662694931 l1.3531653583049774, -0.4059496149420738 1.7591150104999542, 0.4059496149420738 l0.6765826791524887, 3.3829134702682495 -1.0825323313474655, 4.194812774658203 l-1.7591150104999542, 4.330129325389862 m-14.749503135681152, 0.9472157806158066 l-0.9472157806158066, 0.9472157806158066 -0.6765826791524887, 2.435697764158249 l0.9472157806158066, 0.4059496149420738 2.029748111963272, -0.9472157806158066 l0.4059496149420738, -1.3531653583049774 -2.029748111963272, -1.0825323313474655 m12.31380581855774, 1.8944315612316132 l-1.2178488820791245, 0.4059496149420738 -2.8416472673416138, 3.2475969195365906 l-0.1353165414184332, 0.6765826791524887 0.6765826791524887, 0.4059496149420738 l0.9472157806158066, -0.2706330828368664 1.0825323313474655, -0.6765826791524887 l2.165064662694931, -2.571014165878296 -0.6765826791524887, -0.6765826791524887 l-0.9472157806158066, 0.0 m-5.953927636146545, 4.059496223926544 l0.1353165414184332, 3.1122803688049316 -2.165064662694931, -0.1353165414184332 l-0.6765826791524887, -0.4059496149420738 2.30038121342659, -3.3829134702682495 m-7.442409992218018, 5.142028331756592 " fill="none" stroke="black" stroke-width="1" /></svg>