<?xml version="1.0" encoding="utf-8" ?>
<svg baseProfile="full" height="83.6121980752796" version="1.1" width="74.95193930342793" xmlns="http://www.w3.org/2000/svg" xmlns:ev="http://www.w3.org/2001/xml-events" xmlns:xlink="http://www.w3.org/1999/xlink"><defs /><rect fill="white" height="83.6121980752796" width="74.95193930342793" x="0" y="0" /><path d="M19.749502753838897, 10.006711408495903 m-0.9472157806158066, -0.6765826791524887 l-3.2475969195365906, -0.8118992298841476 -2.435697764158249, 0.1353165414184332 l-1.2178488820791245, 0.8118992298841476 -2.8416472673416138, 3.1122803688049316 l-1.0825323313474655, 2.029748111963272 -2.8416472673416138, 8.118992447853088 l-0.1353165414184332, 7.7130430936813354 1.6237984597682953, 4.60076242685318 l1.2178488820791245, 1.7591150104999542 3.2475969195365906, 2.571014165878296 l3.7888631224632263, 0.9472157806158066 4.60076242685318, -0.2706330828368664 l4.736078977584839, -2.706330716609955 1.7591150104999542, -1.8944315612316132 l1.6237984597682953, -2.165064662694931 1.8944315612316132, -4.736078977584839 l0.0, -5.6832945346832275 -2.029748111963272, -5.6832945346832275 l-2.9769638180732727, -4.330129325389862 -3.2475969195365906, -2.9769638180732727 l-1.8944315612316132, -1.0825323313474655 -3.7888631224632263, -0.9472157806158066 l-3.7888631224632263, 0.1353165414184332 -0.4059496149420738, 0.9472157806158066 m7.1717768907547, 0.6765826791524887 l-0.8118992298841476, -0.6765826791524887 0.0, -0.9472157806158066 l2.029748111963272, -1.8944315612316132 3.3829134702682495, -1.0825323313474655 l3.2475969195365906, 0.1353165414184332 0.8118992298841476, 0.6765826791524887 l0.6765826791524887, 1.0825323313474655 0.0, 4.194812774658203 l-1.6237984597682953, 2.435697764158249 -1.4884819090366364, 1.3531653583049774 m2.165064662694931, 19.35026526451111 l0.2706330828368664, -0.6765826791524887 1.0825323313474655, -0.6765826791524887 l5.41266143321991, -2.165064662694931 5.277345180511475, -0.6765826791524887 l7.1717768907547, 0.0 2.9769638180732727, 0.4059496149420738 l11.366589069366455, 4.194812774658203 3.2475969195365906, 2.029748111963272 l5.41266143321991, 4.736078977584839 0.8118992298841476, 1.6237984597682953 m-54.93851661682129, -1.7591150104999542 l-0.5412661656737328, 2.30038121342659 0.0, 4.059496223926544 l0.5412661656737328, 2.706330716609955 1.4884819090366364, 4.059496223926544 l4.059496223926544, 6.224560737609863 -2.165064662694931, 12.178488969802856 l-1.4884819090366364, 5.41266143321991 2.029748111963272, 0.4059496149420738 l5.6832945346832275, -0.6765826791524887 2.30038121342659, -0.6765826791524887 l1.4884819090366364, -5.5479782819747925 1.6237984597682953, -12.719755172729492 l0.6765826791524887, 1.8944315612316132 m5.142028331756592, -2.165064662694931 l-1.7591150104999542, 6.630510687828064 -0.6765826791524887, 11.095956563949585 l-2.571014165878296, 0.1353165414184332 " fill="none" stroke="black" stroke-width="1" /></svg>