<?xml version="1.0" encoding="utf-8" ?>
<svg baseProfile="full" height="36.11609300598502" version="1.1" width="35.98077644594014" xmlns="http://www.w3.org/2000/svg" xmlns:ev="http://www.w3.org/2001/xml-events" xmlns:xlink="http://www.w3.org/1999/xlink"><defs /><rect fill="white" height="36.11609300598502" width="35.98077644594014" x="0" y="0" /><path d="M27.59786299429834, 6.082532806321979 m-4.736078977584839, -0.1353165414184332 l-5.5479782819747925, 0.4059496149420738 -5.277345180511475, 2.165064662694931 l-2.571014165878296, 2.435697764158249 -1.3531653583049774, 2.9769638180732727 l-0.4059496149420738, 2.8416472673416138 1.7591150104999542, 4.059496223926544 l3.6535465717315674, 3.5182300209999084 2.706330716609955, 0.9472157806158066 l2.165064662694931, 0.0 3.1122803688049316, -2.165064662694931 l5.006712079048157, -6.089244484901428 1.3531653583049774, -4.330129325389862 l0.0, -2.435697764158249 -2.706330716609955, -5.277345180511475 m-12.449121475219727, 17.049884796142578 l-0.5412661656737328, 1.0825323313474655 -0.5412661656737328, 3.7888631224632263 l0.4059496149420738, 3.9241796731948853 0.5412661656737328, 0.2706330828368664 l1.4884819090366364, -1.2178488820791245 1.4884819090366364, -4.736078977584839 m4.330129325389862, 0.0 l2.30038121342659, 4.871395528316498 0.4059496149420738, 0.5412661656737328 l0.5412661656737328, -0.1353165414184332 0.6765826791524887, -1.7591150104999542 l0.0, -2.30038121342659 -1.2178488820791245, -2.571014165878296 m4.059496223926544, -6.359877586364746 l2.706330716609955, 7.983676195144653 0.2706330828368664, 2.8416472673416138 l1.2178488820791245, -0.6765826791524887 0.5412661656737328, -2.9769638180732727 l-0.1353165414184332, -2.706330716609955 -3.1122803688049316, -5.6832945346832275 m-21.24469757080078, -0.8118992298841476 l-0.2706330828368664, -0.8118992298841476 -1.2178488820791245, 1.7591150104999542 " fill="none" stroke="black" stroke-width="1" /></svg>