<?xml version="1.0" encoding="utf-8" ?>
<svg baseProfile="full" height="83.0709312018007" version="1.1" width="91.054608207196" xmlns="http://www.w3.org/2000/svg" xmlns:ev="http://www.w3.org/2001/xml-events" xmlns:xlink="http://www.w3.org/1999/xlink"><defs /><rect fill="white" height="83.0709312018007" width="91.054608207196" x="0" y="0" /><path d="M58.585349917411804, 10.277344733476639 m-9.20152485370636, -1.3531653583049774 l-8.795575499534607, 0.2706330828368664 -6.089244484901428, 1.7591150104999542 l-5.006712079048157, 3.2475969195365906 -1.7591150104999542, 2.029748111963272 l-2.029748111963272, 4.60076242685318 -0.1353165414184332, 2.571014165878296 l1.2178488820791245, 5.277345180511475 1.3531653583049774, 2.435697764158249 l4.059496223926544, 4.60076242685318 4.871395528316498, 3.2475969195365906 l2.8416472673416138, 0.9472157806158066 5.6832945346832275, 0.8118992298841476 l5.41266143321991, -0.6765826791524887 2.571014165878296, -0.8118992298841476 l6.089244484901428, -3.7888631224632263 1.4884819090366364, -1.7591150104999542 l2.165064662694931, -3.9241796731948853 0.6765826791524887, -4.330129325389862 l-0.2706330828368664, -2.029748111963272 -1.3531653583049774, -3.7888631224632263 l-3.1122803688049316, -4.465445876121521 -7.442409992218018, -6.495193839073181 m-26.79267406463623, 8.118992447853088 l-1.3531653583049774, -2.9769638180732727 -0.1353165414184332, -2.571014165878296 l0.6765826791524887, -2.30038121342659 2.165064662694931, -2.165064662694931 l3.5182300209999084, -1.4884819090366364 4.059496223926544, -0.2706330828368664 l2.029748111963272, 0.6765826791524887 1.0825323313474655, 1.2178488820791245 l0.1353165414184332, 2.571014165878296 -1.3531653583049774, 2.165064662694931 l-3.5182300209999084, 2.706330716609955 -2.435697764158249, 0.8118992298841476 l-2.029748111963272, 0.0 -0.8118992298841476, -0.2706330828368664 l-0.8118992298841476, -0.9472157806158066 m32.881920337677, -8.795575499534607 l-1.6237984597682953, 0.4059496149420738 -1.6237984597682953, 1.2178488820791245 l-1.0825323313474655, 1.7591150104999542 -0.2706330828368664, 2.8416472673416138 l1.0825323313474655, 2.029748111963272 2.029748111963272, 1.8944315612316132 l2.8416472673416138, 1.4884819090366364 3.1122803688049316, 0.8118992298841476 l4.059496223926544, -0.1353165414184332 2.30038121342659, -1.0825323313474655 l0.8118992298841476, -1.2178488820791245 0.2706330828368664, -1.7591150104999542 l-1.2178488820791245, -3.1122803688049316 -1.4884819090366364, -1.8944315612316132 l-2.435697764158249, -1.6237984597682953 -9.742791056632996, -1.6237984597682953 m-24.492294788360596, 31.393437385559082 l-2.435697764158249, 0.9472157806158066 -2.9769638180732727, 2.029748111963272 l-3.9241796731948853, 4.465445876121521 -1.7591150104999542, 3.5182300209999084 l-0.8118992298841476, 3.3829134702682495 0.1353165414184332, 3.7888631224632263 l0.5412661656737328, 2.029748111963272 3.1122803688049316, 6.359877586364746 l3.1122803688049316, 3.7888631224632263 2.029748111963272, 1.7591150104999542 l6.089244484901428, 4.059496223926544 12.043172121047974, 5.41266143321991 m18.40304970741272, -46.684207916259766 l11.231273412704468, 2.029748111963272 4.059496223926544, 2.029748111963272 l1.8944315612316132, 1.4884819090366364 2.435697764158249, 3.3829134702682495 l1.2178488820791245, 4.194812774658203 -0.2706330828368664, 5.277345180511475 l-0.5412661656737328, 2.435697764158249 -1.8944315612316132, 4.736078977584839 l-2.571014165878296, 4.059496223926544 -2.9769638180732727, 3.3829134702682495 l-3.7888631224632263, 2.8416472673416138 -8.524942398071289, 3.9241796731948853 l-6.901143789291382, 1.8944315612316132 -8.930891752243042, 1.7591150104999542 m-27.19862461090088, -32.74660348892212 l-6.495193839073181, -3.6535465717315674 -6.359877586364746, -2.30038121342659 l-3.2475969195365906, 0.2706330828368664 -0.8118992298841476, 0.4059496149420738 l-0.5412661656737328, 0.9472157806158066 1.3531653583049774, 2.029748111963272 l4.330129325389862, 2.435697764158249 3.2475969195365906, 1.0825323313474655 l7.983676195144653, 1.3531653583049774 " fill="none" stroke="black" stroke-width="1" /></svg>