<?xml version="1.0" encoding="utf-8" ?>
<svg baseProfile="full" height="64.93851531296968" version="1.1" width="49.51243018731475" xmlns="http://www.w3.org/2000/svg" xmlns:ev="http://www.w3.org/2001/xml-events" xmlns:xlink="http://www.w3.org/1999/xlink"><defs /><rect fill="white" height="64.93851531296968" width="49.51243018731475" x="0" y="0" /><path d="M22.997099794447422, 20.561401769518852 m-4.465445876121521, -2.706330716609955 l-7.8483593463897705, -1.0825323313474655 -2.8416472673416138, 3.1122803688049316 l-1.6237984597682953, 2.8416472673416138 -0.8118992298841476, 4.736078977584839 l-0.4059496149420738, 7.1717768907547 2.165064662694931, 7.577726244926453 l3.9241796731948853, 7.1717768907547 3.7888631224632263, 3.6535465717315674 l4.194812774658203, 2.571014165878296 7.1717768907547, 2.8416472673416138 l4.871395528316498, 1.0825323313474655 4.60076242685318, 0.4059496149420738 l3.5182300209999084, -0.2706330828368664 1.2178488820791245, -0.9472157806158066 l2.029748111963272, -3.7888631224632263 1.7591150104999542, -6.359877586364746 l0.2706330828368664, -8.930891752243042 -1.7591150104999542, -7.577726244926453 l-1.6237984597682953, -4.871395528316498 -0.9472157806158066, -1.4884819090366364 l-2.706330716609955, -2.165064662694931 -4.736078977584839, -2.435697764158249 l-8.389625549316406, -2.029748111963272 -0.6765826791524887, 0.0 l-1.0825323313474655, 0.9472157806158066 m11.63722276687622, 0.0 l0.8118992298841476, -0.9472157806158066 3.7888631224632263, -2.165064662694931 l1.4884819090366364, -1.7591150104999542 1.0825323313474655, -2.8416472673416138 l0.5412661656737328, 1.7591150104999542 0.8118992298841476, 7.442409992218018 l0.0, 3.9241796731948853 -1.2178488820791245, -0.2706330828368664 l-1.8944315612316132, -1.3531653583049774 m-25.980775356292725, -6.359877586364746 l0.6765826791524887, -2.571014165878296 -0.2706330828368664, -3.1122803688049316 l-1.8944315612316132, -4.194812774658203 -2.30038121342659, -2.571014165878296 l-3.6535465717315674, 4.871395528316498 -0.6765826791524887, 2.165064662694931 l-0.2706330828368664, 5.6832945346832275 0.6765826791524887, 2.435697764158249 m11.501905918121338, 9.87810730934143 l-0.6765826791524887, -0.1353165414184332 -0.6765826791524887, 0.5412661656737328 l-0.4059496149420738, 2.029748111963272 1.4884819090366364, 0.8118992298841476 l4.194812774658203, 0.5412661656737328 0.0, -2.029748111963272 l-1.7591150104999542, -2.029748111963272 m10.55469036102295, 3.6535465717315674 l-0.5412661656737328, 2.9769638180732727 0.8118992298841476, 2.30038121342659 l2.165064662694931, -1.2178488820791245 0.4059496149420738, -1.3531653583049774 l0.0, -0.6765826791524887 -1.3531653583049774, -1.6237984597682953 " fill="none" stroke="black" stroke-width="1" /></svg>