<?xml version="1.0" encoding="utf-8" ?>
<svg baseProfile="full" height="38.01052358932793" version="1.1" width="42.611286621540785" xmlns="http://www.w3.org/2000/svg" xmlns:ev="http://www.w3.org/2001/xml-events" xmlns:xlink="http://www.w3.org/1999/xlink"><defs /><rect fill="white" height="38.01052358932793" width="42.611286621540785" x="0" y="0" /><path d="M26.380014372989535, 9.330129893496633 m-0.5412661656737328, -0.1353165414184332 l-6.359877586364746, 1.6237984597682953 -2.435697764158249, 1.2178488820791245 l-2.029748111963272, 2.571014165878296 -1.2178488820791245, 2.706330716609955 l-0.4059496149420738, 2.8416472673416138 0.5412661656737328, 3.1122803688049316 m11.366589069366455, -14.208236932754517 l2.435697764158249, 0.0 2.165064662694931, 0.5412661656737328 l1.4884819090366364, 0.5412661656737328 1.8944315612316132, 1.7591150104999542 l0.8118992298841476, 1.4884819090366364 0.8118992298841476, 3.3829134702682495 l0.2706330828368664, 5.277345180511475 -0.4059496149420738, 0.9472157806158066 m-1.6237984597682953, -14.208236932754517 l-0.1353165414184332, -1.3531653583049774 1.6237984597682953, -0.9472157806158066 l1.4884819090366364, -0.2706330828368664 1.0825323313474655, 0.0 l0.4059496149420738, 0.6765826791524887 -0.2706330828368664, 1.2178488820791245 l-1.6237984597682953, 2.30038121342659 -4.194812774658203, 2.706330716609955 m-15.832035541534424, -3.3829134702682495 l-0.5412661656737328, -2.165064662694931 -1.3531653583049774, -2.571014165878296 l-1.0825323313474655, 0.0 -0.5412661656737328, 0.5412661656737328 l-1.0825323313474655, 2.165064662694931 -0.4059496149420738, 2.8416472673416138 l0.2706330828368664, 2.165064662694931 1.2178488820791245, 1.0825323313474655 m0.9472157806158066, 9.336841106414795 l1.3531653583049774, 1.6237984597682953 1.4884819090366364, 0.8118992298841476 l3.7888631224632263, 0.8118992298841476 m-2.165064662694931, 0.0 l-3.7888631224632263, 0.1353165414184332 -1.8944315612316132, -0.4059496149420738 l-2.30038121342659, -1.2178488820791245 -2.029748111963272, -1.8944315612316132 l-1.7591150104999542, -0.2706330828368664 -0.2706330828368664, 0.5412661656737328 l-0.5412661656737328, 2.706330716609955 0.6765826791524887, 2.029748111963272 l9.20152485370636, 5.006712079048157 " fill="none" stroke="black" stroke-width="1" /></svg>