<?xml version="1.0" encoding="utf-8" ?>
<svg baseProfile="full" height="45.58825058862567" version="1.1" width="42.47597016394138" xmlns="http://www.w3.org/2000/svg" xmlns:ev="http://www.w3.org/2001/xml-events" xmlns:xlink="http://www.w3.org/1999/xlink"><defs /><rect fill="white" height="45.58825058862567" width="42.47597016394138" x="0" y="0" /><path d="M26.10938080586493, 10.683294525370002 m-3.9241796731948853, -1.7591150104999542 l-5.81861138343811, -0.4059496149420738 -1.6237984597682953, 4.059496223926544 l-0.1353165414184332, 4.059496223926544 0.4059496149420738, 0.8118992298841476 l2.165064662694931, 1.0825323313474655 4.871395528316498, 0.0 l1.7591150104999542, -0.4059496149420738 1.7591150104999542, -1.0825323313474655 l0.6765826791524887, -4.736078977584839 -0.9472157806158066, -2.706330716609955 m-8.930891752243042, 0.9472157806158066 l0.4059496149420738, -0.9472157806158066 0.0, -2.8416472673416138 l-1.2178488820791245, -1.6237984597682953 -1.6237984597682953, -0.1353165414184332 l-1.0825323313474655, 2.029748111963272 -0.1353165414184332, 2.9769638180732727 l0.4059496149420738, 0.9472157806158066 1.8944315612316132, 1.4884819090366364 m10.013424158096313, -3.6535465717315674 l1.7591150104999542, -2.9769638180732727 0.8118992298841476, -0.6765826791524887 l0.8118992298841476, 0.0 0.8118992298841476, 3.6535465717315674 l-0.2706330828368664, 3.3829134702682495 m-11.095956563949585, 0.4059496149420738 l0.4059496149420738, -0.6765826791524887 1.6237984597682953, 0.0 m3.3829134702682495, -0.1353165414184332 l-0.9472157806158066, -0.1353165414184332 m-4.871395528316498, 3.9241796731948853 l7.307093143463135, -0.9472157806158066 m-6.765826940536499, 2.706330716609955 l-1.6237984597682953, 4.60076242685318 -0.2706330828368664, 2.165064662694931 l-0.2706330828368664, 10.690007209777832 1.6237984597682953, 4.330129325389862 l2.029748111963272, 1.4884819090366364 2.9769638180732727, 0.0 l2.435697764158249, -1.2178488820791245 1.0825323313474655, -0.6765826791524887 l1.4884819090366364, -2.30038121342659 0.1353165414184332, -10.284056663513184 l-1.7591150104999542, -7.036460041999817 -1.4884819090366364, -1.4884819090366364 m-7.8483593463897705, 6.224560737609863 l-0.8118992298841476, 0.6765826791524887 -5.81861138343811, -0.2706330828368664 l-3.1122803688049316, -1.3531653583049774 -1.7591150104999542, -2.165064662694931 l0.0, -1.3531653583049774 0.9472157806158066, -0.8118992298841476 l3.7888631224632263, -0.1353165414184332 3.1122803688049316, 0.6765826791524887 l3.3829134702682495, 1.7591150104999542 m10.690007209777832, 3.2475969195365906 l1.7591150104999542, -2.029748111963272 4.194812774658203, -3.5182300209999084 l2.165064662694931, -0.8118992298841476 2.435697764158249, 0.4059496149420738 l0.0, 2.8416472673416138 -0.8118992298841476, 1.6237984597682953 l-2.30038121342659, 2.165064662694931 -2.706330716609955, 1.4884819090366364 " fill="none" stroke="black" stroke-width="1" /></svg>