<?xml version="1.0" encoding="utf-8" ?>
<svg baseProfile="full" height="56.68420669622719" version="1.1" width="67.64484628103673" xmlns="http://www.w3.org/2000/svg" xmlns:ev="http://www.w3.org/2001/xml-events" xmlns:xlink="http://www.w3.org/1999/xlink"><defs /><rect fill="white" height="56.68420669622719" width="67.64484628103673" x="0" y="0" /><path d="M9.194812690839171, 6.488481815904379 m-3.2475969195365906, 3.2475969195365906 l-0.8118992298841476, 3.6535465717315674 -0.1353165414184332, 4.194812774658203 l2.30038121342659, 1.2178488820791245 3.6535465717315674, 0.2706330828368664 m-4.059496223926544, -10.419373512268066 l3.1122803688049316, -3.2475969195365906 4.194812774658203, -0.4059496149420738 l2.571014165878296, 1.8944315612316132 1.8944315612316132, 2.165064662694931 l1.0825323313474655, 3.1122803688049316 m0.5412661656737328, 0.6765826791524887 l2.435697764158249, -3.5182300209999084 2.30038121342659, -1.4884819090366364 l3.7888631224632263, -1.6237984597682953 3.5182300209999084, -0.8118992298841476 l6.089244484901428, -0.1353165414184332 0.4059496149420738, 0.6765826791524887 l5.142028331756592, 2.8416472673416138 4.736078977584839, 4.465445876121521 l0.8118992298841476, -2.8416472673416138 1.2178488820791245, -1.6237984597682953 l1.6237984597682953, -1.0825323313474655 2.9769638180732727, -0.2706330828368664 l0.2706330828368664, 0.9472157806158066 1.4884819090366364, 1.0825323313474655 l1.6237984597682953, 2.165064662694931 0.5412661656737328, 5.142028331756592 l-2.165064662694931, 2.029748111963272 -3.3829134702682495, 2.029748111963272 m-43.84255886077881, -2.029748111963272 l0.0, 3.1122803688049316 -0.6765826791524887, 0.5412661656737328 l-2.435697764158249, 6.359877586364746 -0.4059496149420738, 2.30038121342659 l-0.1353165414184332, 7.1717768907547 2.571014165878296, 4.330129325389862 l4.736078977584839, 4.194812774658203 5.5479782819747925, 2.706330716609955 l8.660258650779724, 1.8944315612316132 12.990387678146362, 0.2706330828368664 l8.930891752243042, -3.3829134702682495 5.006712079048157, -3.3829134702682495 l4.059496223926544, -4.330129325389862 1.8944315612316132, -2.9769638180732727 l1.3531653583049774, -2.8416472673416138 0.6765826791524887, -4.871395528316498 l0.0, -1.7591150104999542 -0.8118992298841476, -0.4059496149420738 l-1.2178488820791245, -1.6237984597682953 -4.194812774658203, -2.30038121342659 m-37.21204996109009, 10.013424158096313 l0.0, 4.736078977584839 1.4884819090366364, 2.9769638180732727 l2.029748111963272, 2.30038121342659 0.8118992298841476, 0.1353165414184332 l1.2178488820791245, -0.9472157806158066 1.0825323313474655, -1.8944315612316132 l0.8118992298841476, -5.81861138343811 3.9241796731948853, 6.224560737609863 l1.8944315612316132, 1.3531653583049774 3.2475969195365906, 0.1353165414184332 l3.2475969195365906, -2.9769638180732727 2.435697764158249, -3.9241796731948853 l0.4059496149420738, -2.8416472673416138 -2.435697764158249, -0.9472157806158066 " fill="none" stroke="black" stroke-width="1" /></svg>