<?xml version="1.0" encoding="utf-8" ?>
<svg baseProfile="full" height="51.67749469168484" version="1.1" width="42.74660266004503" xmlns="http://www.w3.org/2000/svg" xmlns:ev="http://www.w3.org/2001/xml-events" xmlns:xlink="http://www.w3.org/1999/xlink"><defs /><rect fill="white" height="51.67749469168484" width="42.74660266004503" x="0" y="0" /><path d="M5.0000000931322575, 41.53546646237373 m0.1353165414184332, -13.66697072982788 l2.8416472673416138, -10.148741006851196 2.571014165878296, -3.3829134702682495 l4.059496223926544, -2.435697764158249 2.029748111963272, -0.6765826791524887 l-0.1353165414184332, -3.3829134702682495 0.4059496149420738, -0.6765826791524887 l2.706330716609955, -1.7591150104999542 0.6765826791524887, 0.1353165414184332 l0.5412661656737328, 1.4884819090366364 1.8944315612316132, -1.8944315612316132 l2.706330716609955, -0.1353165414184332 0.6765826791524887, 0.5412661656737328 l0.8118992298841476, 2.029748111963272 0.1353165414184332, 2.706330716609955 l6.901143789291382, 0.9472157806158066 1.3531653583049774, 0.5412661656737328 l2.165064662694931, 1.7591150104999542 0.2706330828368664, 0.6765826791524887 l-0.1353165414184332, 0.6765826791524887 -2.165064662694931, 1.6237984597682953 l-2.571014165878296, 1.0825323313474655 -4.465445876121521, 0.8118992298841476 l-5.81861138343811, -0.1353165414184332 -1.8944315612316132, 1.4884819090366364 l-0.9472157806158066, 2.9769638180732727 0.0, 2.30038121342659 l3.1122803688049316, 12.31380581855774 0.0, 1.3531653583049774 l-1.7591150104999542, 1.6237984597682953 -2.9769638180732727, 1.6237984597682953 l-1.8944315612316132, 0.5412661656737328 -6.224560737609863, 0.2706330828368664 l-1.8944315612316132, -0.2706330828368664 -3.1122803688049316, -2.571014165878296 m5.6832945346832275, 2.571014165878296 l-0.1353165414184332, 1.6237984597682953 -1.2178488820791245, 1.8944315612316132 m7.8483593463897705, -3.6535465717315674 l0.9472157806158066, 3.1122803688049316 1.7591150104999542, 1.2178488820791245 l1.0825323313474655, -0.1353165414184332 m0.4059496149420738, -17.591150999069214 l5.006712079048157, -1.6237984597682953 m-0.4059496149420738, -14.3435537815094 l0.0, 0.0 m-1.6237984597682953, -0.5412661656737328 l0.0, 0.0 m-0.5412661656737328, 0.6765826791524887 l0.2706330828368664, 0.0 m0.8118992298841476, 0.0 l-0.8118992298841476, -0.2706330828368664 m10.960639715194702, 2.8416472673416138 l-3.7888631224632263, 0.1353165414184332 m3.2475969195365906, 0.2706330828368664 l1.3531653583049774, -0.6765826791524887 m-4.60076242685318, 0.2706330828368664 l-1.4884819090366364, 1.2178488820791245 0.6765826791524887, -0.6765826791524887 l0.4059496149420738, 1.3531653583049774 1.7591150104999542, -0.5412661656737328 l1.0825323313474655, -1.3531653583049774 -0.9472157806158066, 1.3531653583049774 l-0.4059496149420738, -0.6765826791524887 -1.2178488820791245, -0.1353165414184332 l-2.8416472673416138, 0.5412661656737328 -0.5412661656737328, -0.9472157806158066 l0.1353165414184332, -0.8118992298841476 0.0, 2.30038121342659 " fill="none" stroke="black" stroke-width="1" /></svg>