<?xml version="1.0" encoding="utf-8" ?>
<svg baseProfile="full" height="41.258120983839035" version="1.1" width="33.95102764479816" xmlns="http://www.w3.org/2000/svg" xmlns:ev="http://www.w3.org/2001/xml-events" xmlns:xlink="http://www.w3.org/1999/xlink"><defs /><rect fill="white" height="41.258120983839035" width="33.95102764479816" x="0" y="0" /><path d="M22.861783439293504, 7.165064411237836 m-3.5182300209999084, -0.8118992298841476 l-4.871395528316498, 0.2706330828368664 -0.9472157806158066, 0.4059496149420738 l-2.30038121342659, 2.571014165878296 -0.6765826791524887, 2.30038121342659 l0.4059496149420738, 4.059496223926544 2.165064662694931, 3.1122803688049316 l4.194812774658203, 1.8944315612316132 4.60076242685318, -0.1353165414184332 l1.4884819090366364, -0.8118992298841476 0.5412661656737328, -0.8118992298841476 l1.3531653583049774, -5.142028331756592 -0.5412661656737328, -2.706330716609955 l-1.8944315612316132, -3.9241796731948853 m0.2706330828368664, 0.8118992298841476 l0.5412661656737328, -1.8944315612316132 1.7591150104999542, -1.3531653583049774 l1.6237984597682953, 0.4059496149420738 1.3531653583049774, 1.6237984597682953 l0.5412661656737328, 1.6237984597682953 -0.1353165414184332, 1.2178488820791245 l-1.0825323313474655, 1.2178488820791245 -2.435697764158249, 1.2178488820791245 m-11.501905918121338, -3.5182300209999084 l-1.7591150104999542, -1.7591150104999542 -1.2178488820791245, -0.6765826791524887 l-1.7591150104999542, -0.1353165414184332 -1.8944315612316132, 0.2706330828368664 l-1.6237984597682953, 1.3531653583049774 -0.5412661656737328, 1.8944315612316132 l0.5412661656737328, 2.165064662694931 2.8416472673416138, 1.2178488820791245 l2.435697764158249, -0.1353165414184332 m4.60076242685318, -2.435697764158249 l-1.3531653583049774, 0.9472157806158066 0.0, 0.6765826791524887 l1.6237984597682953, 0.9472157806158066 0.0, -0.9472157806158066 m6.765826940536499, -0.2706330828368664 l0.0, 1.7591150104999542 0.5412661656737328, 0.0 l0.0, -0.6765826791524887 -0.9472157806158066, -0.4059496149420738 l-0.5412661656737328, 0.2706330828368664 m-6.359877586364746, 7.442409992218018 l-0.5412661656737328, 1.3531653583049774 -0.6765826791524887, 5.142028331756592 l0.5412661656737328, 5.5479782819747925 0.2706330828368664, 0.9472157806158066 l1.8944315612316132, 2.029748111963272 1.7591150104999542, 0.9472157806158066 l0.9472157806158066, 0.0 3.3829134702682495, -1.0825323313474655 l0.8118992298841476, -0.6765826791524887 1.0825323313474655, -2.706330716609955 l0.4059496149420738, -6.089244484901428 -1.4884819090366364, -4.60076242685318 l-0.2706330828368664, -0.1353165414184332 m-10.55469036102295, 1.0825323313474655 l-2.435697764158249, 0.0 -1.8944315612316132, 1.6237984597682953 l0.0, 1.3531653583049774 1.2178488820791245, 0.9472157806158066 " fill="none" stroke="black" stroke-width="1" /></svg>