<?xml version="1.0" encoding="utf-8" ?>
<svg baseProfile="full" height="65.88573226705194" version="1.1" width="88.48359366878867" xmlns="http://www.w3.org/2000/svg" xmlns:ev="http://www.w3.org/2001/xml-events" xmlns:xlink="http://www.w3.org/1999/xlink"><defs /><rect fill="white" height="65.88573226705194" width="88.48359366878867" x="0" y="0" /><path d="M17.178489211946726, 60.885732267051935 m2.706330716609955, -0.2706330828368664 l2.165064662694931, -0.8118992298841476 0.2706330828368664, -15.426086187362671 l0.1353165414184332, -1.6237984597682953 0.6765826791524887, -0.5412661656737328 l5.142028331756592, 1.6237984597682953 5.6832945346832275, 1.0825323313474655 l2.435697764158249, 0.0 4.871395528316498, -1.0825323313474655 l5.41266143321991, -2.029748111963272 6.765826940536499, -4.465445876121521 l0.5412661656737328, 2.8416472673416138 -0.1353165414184332, 17.861783504486084 l0.6765826791524887, 0.5412661656737328 5.6832945346832275, -0.5412661656737328 l-1.3531653583049774, -21.24469757080078 5.6832945346832275, 0.0 l1.3531653583049774, -0.5412661656737328 4.60076242685318, -4.194812774658203 l1.3531653583049774, -2.165064662694931 0.9472157806158066, -2.8416472673416138 l-0.1353165414184332, -5.81861138343811 -3.7888631224632263, -9.066208004951477 l-2.165064662694931, -1.7591150104999542 -4.871395528316498, -2.029748111963272 l-16.779251098632812, -2.9769638180732727 -9.066208004951477, -0.4059496149420738 l-6.495193839073181, 1.4884819090366364 -7.036460041999817, 2.30038121342659 l-2.706330716609955, 1.6237984597682953 -1.7591150104999542, 1.6237984597682953 l-5.277345180511475, 6.630510687828064 -3.2475969195365906, 9.066208004951477 l-0.9472157806158066, 4.330129325389862 0.0, 2.30038121342659 l1.3531653583049774, 5.142028331756592 2.8416472673416138, 2.706330716609955 l3.2475969195365906, 0.6765826791524887 1.4884819090366364, 8.660258650779724 l0.5412661656737328, 8.524942398071289 m-11.366589069366455, -22.19191312789917 l0.0, -1.4884819090366364 0.6765826791524887, -0.5412661656737328 l1.4884819090366364, 1.0825323313474655 0.5412661656737328, 0.9472157806158066 l0.1353165414184332, 1.7591150104999542 -0.9472157806158066, 0.6765826791524887 l-1.3531653583049774, 0.0 -1.6237984597682953, -0.8118992298841476 l-0.5412661656737328, -2.029748111963272 1.6237984597682953, -0.6765826791524887 l1.0825323313474655, 0.2706330828368664 m62.92219161987305, -20.026848316192627 l0.9472157806158066, -2.30038121342659 1.7591150104999542, -2.165064662694931 l1.6237984597682953, -0.5412661656737328 3.1122803688049316, 0.1353165414184332 l3.9241796731948853, 4.194812774658203 1.2178488820791245, 2.30038121342659 l0.2706330828368664, 1.4884819090366364 -0.5412661656737328, 1.4884819090366364 l-0.8118992298841476, 0.5412661656737328 -3.3829134702682495, 1.0825323313474655 l-3.6535465717315674, 0.0 -1.8944315612316132, 0.5412661656737328 " fill="none" stroke="black" stroke-width="1" /></svg>