<?xml version="1.0" encoding="utf-8" ?>
<svg baseProfile="full" height="64.39724929630756" version="1.1" width="80.63523388467729" xmlns="http://www.w3.org/2000/svg" xmlns:ev="http://www.w3.org/2001/xml-events" xmlns:xlink="http://www.w3.org/1999/xlink"><defs /><rect fill="white" height="64.39724929630756" width="80.63523388467729" x="0" y="0" /><path d="M54.11990409716964, 7.706331480294466 m-13.531653881072998, 0.0 l-15.696718692779541, 2.029748111963272 -11.095956563949585, 3.3829134702682495 l-2.029748111963272, 0.9472157806158066 -1.3531653583049774, 1.2178488820791245 l-1.7591150104999542, 2.571014165878296 -1.3531653583049774, 2.9769638180732727 l-1.3531653583049774, 4.871395528316498 -0.6765826791524887, 4.330129325389862 l-0.2706330828368664, 13.396337032318115 0.8118992298841476, 8.660258650779724 l0.8118992298841476, 2.706330716609955 1.0825323313474655, 1.3531653583049774 l3.1122803688049316, 2.165064662694931 2.30038121342659, 0.8118992298841476 l2.9769638180732727, 0.2706330828368664 3.3829134702682495, -0.9472157806158066 l0.4059496149420738, -2.029748111963272 -2.706330716609955, -2.435697764158249 m0.8118992298841476, 0.4059496149420738 l0.6765826791524887, -13.261021375656128 m0.0, 2.8416472673416138 l11.501905918121338, 0.6765826791524887 9.607474207878113, 0.0 l2.706330716609955, -0.4059496149420738 m-0.5412661656737328, -2.706330716609955 l0.0, 4.330129325389862 0.8118992298841476, 8.524942398071289 l0.8118992298841476, 2.9769638180732727 1.3531653583049774, 0.6765826791524887 l6.495193839073181, 0.0 0.0, -2.029748111963272 l-1.2178488820791245, -1.2178488820791245 -0.6765826791524887, -1.4884819090366364 l0.1353165414184332, -10.013424158096313 2.165064662694931, -0.5412661656737328 l11.095956563949585, 0.0 4.736078977584839, -0.5412661656737328 l2.165064662694931, -0.9472157806158066 2.029748111963272, -2.165064662694931 l1.7591150104999542, -2.706330716609955 2.029748111963272, -5.41266143321991 l0.0, -5.5479782819747925 -0.8118992298841476, -2.165064662694931 l-2.706330716609955, -3.7888631224632263 -7.8483593463897705, -4.465445876121521 m-8.524942398071289, -4.194812774658203 l-0.5412661656737328, -5.142028331756592 4.871395528316498, -0.6765826791524887 l0.6765826791524887, 0.5412661656737328 0.6765826791524887, 2.165064662694931 l0.2706330828368664, 4.059496223926544 0.8118992298841476, 1.4884819090366364 l1.2178488820791245, 0.6765826791524887 m-4.330129325389862, 6.089244484901428 l-0.6765826791524887, -0.1353165414184332 0.1353165414184332, 0.6765826791524887 l0.4059496149420738, -0.2706330828368664 " fill="none" stroke="black" stroke-width="1" /></svg>