<?xml version="1.0" encoding="utf-8" ?>
<svg baseProfile="full" height="38.010524064302444" version="1.1" width="41.93470427766442" xmlns="http://www.w3.org/2000/svg" xmlns:ev="http://www.w3.org/2001/xml-events" xmlns:xlink="http://www.w3.org/1999/xlink"><defs /><rect fill="white" height="38.010524064302444" width="41.93470427766442" x="0" y="0" /><path d="M17.313806051388383, 14.201524928212166 m-4.059496223926544, 0.4059496149420738 l-2.8416472673416138, 2.30038121342659 -1.0825323313474655, 2.30038121342659 l-0.1353165414184332, 8.118992447853088 2.30038121342659, 3.3829134702682495 l3.2475969195365906, 1.7591150104999542 3.5182300209999084, 0.5412661656737328 l5.5479782819747925, 0.0 9.066208004951477, -2.8416472673416138 l1.4884819090366364, -1.2178488820791245 1.3531653583049774, -1.8944315612316132 l1.2178488820791245, -4.059496223926544 -0.1353165414184332, -6.630510687828064 l-0.2706330828368664, -0.8118992298841476 -1.7591150104999542, -1.6237984597682953 l-6.359877586364746, -2.8416472673416138 -3.1122803688049316, -0.8118992298841476 l-10.55469036102295, 0.0 -2.706330716609955, 0.8118992298841476 l-1.3531653583049774, 1.2178488820791245 -0.9472157806158066, 3.9241796731948853 l0.0, 3.3829134702682495 0.8118992298841476, 2.435697764158249 m16.64393424987793, -10.55469036102295 l0.8118992298841476, -3.7888631224632263 1.3531653583049774, -2.029748111963272 l1.3531653583049774, -0.6765826791524887 3.7888631224632263, 0.4059496149420738 l0.8118992298841476, 0.6765826791524887 0.8118992298841476, 2.571014165878296 l-0.1353165414184332, 3.5182300209999084 -1.8944315612316132, 3.5182300209999084 l-1.0825323313474655, 0.2706330828368664 -0.8118992298841476, -0.4059496149420738 m-18.40304970741272, -7.307093143463135 l-0.2706330828368664, -1.4884819090366364 -2.165064662694931, -1.3531653583049774 l-3.7888631224632263, 0.1353165414184332 -1.8944315612316132, 2.30038121342659 l-0.6765826791524887, 3.1122803688049316 0.0, 2.165064662694931 l1.7591150104999542, 4.194812774658203 1.4884819090366364, 1.3531653583049774 m7.983676195144653, -1.8944315612316132 l-0.9472157806158066, 0.8118992298841476 -0.5412661656737328, 1.4884819090366364 l0.1353165414184332, 1.4884819090366364 0.6765826791524887, 0.6765826791524887 l2.30038121342659, -0.2706330828368664 0.1353165414184332, -2.435697764158249 l-0.6765826791524887, -0.4059496149420738 -2.30038121342659, 0.0 l-0.5412661656737328, 1.2178488820791245 m10.82532286643982, 0.1353165414184332 l-0.5412661656737328, 0.6765826791524887 -0.1353165414184332, 1.4884819090366364 l1.7591150104999542, 0.0 0.6765826791524887, -0.4059496149420738 l0.5412661656737328, -0.6765826791524887 0.0, -1.6237984597682953 l-3.1122803688049316, -0.5412661656737328 -1.3531653583049774, 0.6765826791524887 m-4.871395528316498, 5.6832945346832275 l1.4884819090366364, 2.571014165878296 " fill="none" stroke="black" stroke-width="1" /></svg>