<?xml version="1.0" encoding="utf-8" ?>
<svg baseProfile="full" height="70.89244367554784" version="1.1" width="127.04880462028086" xmlns="http://www.w3.org/2000/svg" xmlns:ev="http://www.w3.org/2001/xml-events" xmlns:xlink="http://www.w3.org/1999/xlink"><defs /><rect fill="white" height="70.89244367554784" width="127.04880462028086" x="0" y="0" /><path d="M98.09777741320431, 11.08924463391304 m2.165064662694931, -0.6765826791524887 l1.4884819090366364, 0.0 2.706330716609955, 0.5412661656737328 l3.9241796731948853, 1.6237984597682953 5.142028331756592, 4.059496223926544 l2.571014165878296, 3.1122803688049316 3.6535465717315674, 5.953927636146545 l1.8944315612316132, 5.277345180511475 0.4059496149420738, 2.435697764158249 l-0.1353165414184332, 2.165064662694931 -0.9472157806158066, 2.30038121342659 l-2.165064662694931, 2.029748111963272 -2.029748111963272, 0.6765826791524887 l-4.465445876121521, -0.5412661656737328 -2.029748111963272, -0.9472157806158066 l-3.7888631224632263, -2.9769638180732727 -3.3829134702682495, -4.465445876121521 l-1.4884819090366364, -3.1122803688049316 -1.8944315612316132, -7.1717768907547 l-0.1353165414184332, -2.706330716609955 0.6765826791524887, -6.901143789291382 m1.0825323313474655, -2.029748111963272 l-0.1353165414184332, -2.029748111963272 0.8118992298841476, -1.6237984597682953 l2.165064662694931, -1.0825323313474655 1.7591150104999542, 0.0 l1.3531653583049774, 0.9472157806158066 0.8118992298841476, 1.4884819090366364 l0.0, 5.006712079048157 m-10.82532286643982, 10.82532286643982 l-9.742791056632996, -5.41266143321991 -5.41266143321991, -2.165064662694931 l-9.607474207878113, -2.9769638180732727 -6.224560737609863, -1.2178488820791245 l-9.742791056632996, -1.0825323313474655 -5.142028331756592, -0.1353165414184332 l-13.937603235244751, 0.8118992298841476 -5.81861138343811, 0.8118992298841476 l-5.6832945346832275, 1.0825323313474655 -5.953927636146545, 1.8944315612316132 l-4.465445876121521, 2.30038121342659 -3.1122803688049316, 3.1122803688049316 l-1.4884819090366364, 3.1122803688049316 -0.4059496149420738, 2.029748111963272 l0.4059496149420738, 3.9241796731948853 1.6237984597682953, 4.194812774658203 l2.165064662694931, 3.1122803688049316 4.059496223926544, 3.5182300209999084 l3.6535465717315674, 2.165064662694931 5.006712079048157, 2.029748111963272 l4.736078977584839, 1.0825323313474655 10.690007209777832, 1.2178488820791245 l8.930891752243042, 0.0 14.072920083999634, -0.9472157806158066 l15.290769338607788, -1.8944315612316132 6.224560737609863, -1.7591150104999542 l4.194812774658203, -1.7591150104999542 5.953927636146545, -4.194812774658203 l2.9769638180732727, -3.1122803688049316 2.165064662694931, -3.2475969195365906 m-87.54980087280273, -12.043172121047974 l-1.4884819090366364, -0.5412661656737328 -3.7888631224632263, -0.1353165414184332 l-2.9769638180732727, 1.0825323313474655 -1.4884819090366364, 1.2178488820791245 l-0.4059496149420738, 1.2178488820791245 0.4059496149420738, 1.6237984597682953 l1.8944315612316132, 1.2178488820791245 2.30038121342659, 0.4059496149420738 m24.086344242095947, 17.45583415031433 l-3.7888631224632263, 10.960639715194702 -0.6765826791524887, 7.7130430936813354 l1.3531653583049774, 2.8416472673416138 3.3829134702682495, 2.165064662694931 l4.330129325389862, 0.9472157806158066 6.089244484901428, 0.0 l3.7888631224632263, -0.9472157806158066 1.6237984597682953, -1.0825323313474655 l-5.41266143321991, -4.60076242685318 -2.029748111963272, -2.8416472673416138 l-1.2178488820791245, -2.9769638180732727 -1.3531653583049774, -10.55469036102295 m13.937603235244751, -2.8416472673416138 l-1.2178488820791245, 5.41266143321991 -0.2706330828368664, 4.330129325389862 l0.4059496149420738, 9.066208004951477 0.4059496149420738, 2.029748111963272 l1.2178488820791245, 2.706330716609955 3.1122803688049316, 1.3531653583049774 l6.765826940536499, 0.1353165414184332 5.006712079048157, -0.8118992298841476 l1.2178488820791245, -0.4059496149420738 0.2706330828368664, -0.6765826791524887 l-6.359877586364746, -10.284056663513184 -1.8944315612316132, -5.277345180511475 l-0.5412661656737328, -2.8416472673416138 0.2706330828368664, -3.2475969195365906 " fill="none" stroke="black" stroke-width="1" /></svg>