<?xml version="1.0" encoding="utf-8" ?>
<svg baseProfile="full" height="59.79648569598794" version="1.1" width="50.45964560471475" xmlns="http://www.w3.org/2000/svg" xmlns:ev="http://www.w3.org/2001/xml-events" xmlns:xlink="http://www.w3.org/1999/xlink"><defs /><rect fill="white" height="59.79648569598794" width="50.45964560471475" x="0" y="0" /><path d="M27.597862370312214, 14.472157964482903 m-1.3531653583049774, -3.1122803688049316 l0.1353165414184332, -3.2475969195365906 3.5182300209999084, -0.2706330828368664 l0.9472157806158066, 2.30038121342659 1.7591150104999542, 2.029748111963272 l1.6237984597682953, 0.4059496149420738 1.7591150104999542, -0.1353165414184332 l6.089244484901428, -7.442409992218018 0.6765826791524887, 0.0 l0.8118992298841476, 0.6765826791524887 1.0825323313474655, 1.6237984597682953 l0.4059496149420738, 1.4884819090366364 -0.2706330828368664, 5.277345180511475 m-12.855072021484375, 2.8416472673416138 l0.6765826791524887, -0.1353165414184332 m8.389625549316406, 0.5412661656737328 l-0.5412661656737328, -0.1353165414184332 m-5.41266143321991, 2.165064662694931 l1.4884819090366364, 0.0 m-1.7591150104999542, 0.0 l-0.1353165414184332, 0.8118992298841476 1.3531653583049774, 0.6765826791524887 l0.6765826791524887, -1.4884819090366364 m-0.5412661656737328, 1.4884819090366364 l-0.8118992298841476, 1.3531653583049774 -1.6237984597682953, 0.8118992298841476 m2.165064662694931, -1.3531653583049774 l2.165064662694931, 0.8118992298841476 0.2706330828368664, -0.5412661656737328 m-10.82532286643982, -7.1717768907547 l0.0, 6.224560737609863 0.8118992298841476, 4.330129325389862 l1.2178488820791245, 2.8416472673416138 2.571014165878296, 1.3531653583049774 l6.089244484901428, 0.4059496149420738 2.9769638180732727, -0.5412661656737328 l3.3829134702682495, -2.435697764158249 0.8118992298841476, -3.3829134702682495 l0.1353165414184332, -4.194812774658203 0.0, -2.706330716609955 l-0.6765826791524887, -2.8416472673416138 m-12.58443832397461, 16.64393424987793 l-11.63722276687622, 10.284056663513184 -6.224560737609863, 6.224560737609863 l-5.6832945346832275, 4.330129325389862 -3.5182300209999084, 1.7591150104999542 l-0.1353165414184332, 1.7591150104999542 " fill="none" stroke="black" stroke-width="1" /></svg>