<?xml version="1.0" encoding="utf-8" ?>
<svg baseProfile="full" height="83.74751393683255" version="1.1" width="59.52585299499333" xmlns="http://www.w3.org/2000/svg" xmlns:ev="http://www.w3.org/2001/xml-events" xmlns:xlink="http://www.w3.org/1999/xlink"><defs /><rect fill="white" height="83.74751393683255" width="59.52585299499333" x="0" y="0" /><path d="M11.765826977789402, 18.396336240693927 m-0.2706330828368664, 17.32051730155945 l-1.3531653583049774, 5.81861138343811 -0.2706330828368664, 2.9769638180732727 l-1.4884819090366364, 4.465445876121521 -0.5412661656737328, 3.1122803688049316 l-0.5412661656737328, 0.6765826791524887 -2.30038121342659, 9.472157955169678 l0.2706330828368664, 14.208236932754517 0.8118992298841476, 1.3531653583049774 l2.165064662694931, 0.1353165414184332 1.3531653583049774, -1.4884819090366364 l4.059496223926544, -2.571014165878296 2.706330716609955, -2.706330716609955 l0.6765826791524887, -1.4884819090366364 0.1353165414184332, -1.6237984597682953 l0.0, -1.0825323313474655 -1.2178488820791245, -2.30038121342659 l0.5412661656737328, -1.0825323313474655 1.8944315612316132, -0.8118992298841476 l5.142028331756592, -0.5412661656737328 5.142028331756592, 0.1353165414184332 l0.0, 5.006712079048157 -1.2178488820791245, 4.871395528316498 l0.0, 3.1122803688049316 0.8118992298841476, 0.8118992298841476 l0.8118992298841476, 0.0 3.9241796731948853, 2.571014165878296 l2.8416472673416138, 0.0 4.330129325389862, -2.029748111963272 l1.3531653583049774, -1.0825323313474655 1.0825323313474655, -2.435697764158249 l0.9472157806158066, -4.465445876121521 -0.1353165414184332, -14.61418628692627 l-0.4059496149420738, -0.6765826791524887 -0.9472157806158066, -0.4059496149420738 l-6.630510687828064, -1.3531653583049774 -1.6237984597682953, -4.736078977584839 l0.1353165414184332, -2.9769638180732727 1.0825323313474655, -1.4884819090366364 l2.165064662694931, -1.6237984597682953 13.66697072982788, -0.4059496149420738 l2.8416472673416138, -1.8944315612316132 0.8118992298841476, -2.8416472673416138 l0.0, -0.6765826791524887 -0.6765826791524887, -0.2706330828368664 l-1.7591150104999542, 0.0 1.3531653583049774, -0.6765826791524887 l0.5412661656737328, -1.3531653583049774 0.2706330828368664, -1.6237984597682953 l-0.9472157806158066, -0.5412661656737328 -17.049884796142578, -0.1353165414184332 l-3.9241796731948853, -1.8944315612316132 -1.2178488820791245, -1.4884819090366364 l-0.5412661656737328, -2.165064662694931 0.5412661656737328, -1.6237984597682953 l4.059496223926544, -1.6237984597682953 3.1122803688049316, -3.1122803688049316 l3.3829134702682495, -0.8118992298841476 5.81861138343811, -2.30038121342659 l0.4059496149420738, -1.3531653583049774 -0.4059496149420738, -3.5182300209999084 l-1.0825323313474655, -2.9769638180732727 -0.6765826791524887, -0.4059496149420738 l-7.983676195144653, -2.165064662694931 -12.178488969802856, 0.0 l-0.6765826791524887, 0.4059496149420738 -3.7888631224632263, 0.4059496149420738 l-4.60076242685318, 2.571014165878296 -5.41266143321991, 2.029748111963272 l-2.9769638180732727, 2.30038121342659 0.2706330828368664, 2.571014165878296 l3.1122803688049316, 5.006712079048157 m31.393437385559082, -10.419373512268066 l0.0, 0.0 " fill="none" stroke="black" stroke-width="1" /></svg>