<?xml version="1.0" encoding="utf-8" ?>
<svg baseProfile="full" height="62.23218481987715" version="1.1" width="79.95865128934383" xmlns="http://www.w3.org/2000/svg" xmlns:ev="http://www.w3.org/2001/xml-events" xmlns:xlink="http://www.w3.org/1999/xlink"><defs /><rect fill="white" height="62.23218481987715" width="79.95865128934383" x="0" y="0" /><path d="M39.37040004879236, 30.980776911601424 m-3.6535465717315674, -0.9472157806158066 l-3.9241796731948853, 0.1353165414184332 -0.6765826791524887, 0.6765826791524887 l-0.5412661656737328, 2.571014165878296 -0.2706330828368664, 5.006712079048157 l0.4059496149420738, 0.8118992298841476 2.165064662694931, 1.4884819090366364 l7.8483593463897705, 0.2706330828368664 2.9769638180732727, -2.571014165878296 l0.6765826791524887, -2.435697764158249 -0.2706330828368664, -4.059496223926544 l-1.6237984597682953, -1.8944315612316132 -2.435697764158249, -0.1353165414184332 m-10.55469036102295, -16.37330174446106 l-2.30038121342659, 2.30038121342659 -1.4884819090366364, 2.571014165878296 l0.1353165414184332, 1.3531653583049774 2.30038121342659, 0.2706330828368664 l2.30038121342659, -0.9472157806158066 1.2178488820791245, -3.6535465717315674 l-0.1353165414184332, -2.029748111963272 m20.432798862457275, 2.8416472673416138 l-2.8416472673416138, -1.3531653583049774 -1.3531653583049774, 0.1353165414184332 l-1.6237984597682953, 1.7591150104999542 -0.8118992298841476, 1.7591150104999542 l0.0, 1.4884819090366364 0.8118992298841476, 0.5412661656737328 l2.165064662694931, 0.2706330828368664 1.8944315612316132, -1.3531653583049774 l0.0, -1.4884819090366364 -1.4884819090366364, -2.30038121342659 l-1.2178488820791245, -1.0825323313474655 m-3.5182300209999084, -4.60076242685318 l-6.224560737609863, -2.8416472673416138 -4.60076242685318, -1.4884819090366364 l-6.224560737609863, -0.5412661656737328 -6.630510687828064, 0.0 l-3.1122803688049316, 1.2178488820791245 -3.2475969195365906, 1.8944315612316132 l-6.359877586364746, 6.765826940536499 -1.2178488820791245, 1.7591150104999542 l-1.3531653583049774, 3.2475969195365906 0.0, 14.072920083999634 l1.7591150104999542, 4.871395528316498 2.706330716609955, 3.6535465717315674 l2.8416472673416138, 2.9769638180732727 3.5182300209999084, 2.435697764158249 l6.224560737609863, 2.571014165878296 5.6832945346832275, 2.9769638180732727 l8.254309296607971, 3.2475969195365906 3.5182300209999084, 0.4059496149420738 l10.55469036102295, -0.2706330828368664 9.472157955169678, -2.706330716609955 l3.7888631224632263, -1.4884819090366364 2.8416472673416138, -2.30038121342659 l5.6832945346832275, -5.81861138343811 2.165064662694931, -3.2475969195365906 l0.9472157806158066, -2.571014165878296 0.0, -5.006712079048157 l-1.3531653583049774, -6.630510687828064 -1.8944315612316132, -2.706330716609955 l-13.261021375656128, -12.58443832397461 -5.81861138343811, -4.736078977584839 l-3.5182300209999084, -1.8944315612316132 -7.036460041999817, -0.2706330828368664 l-5.006712079048157, 1.7591150104999542 -2.165064662694931, 1.2178488820791245 m-9.472157955169678, 35.994200706481934 l0.5412661656737328, 1.0825323313474655 2.30038121342659, 2.30038121342659 l3.1122803688049316, 1.8944315612316132 4.194812774658203, 0.8118992298841476 l17.591150999069214, 0.6765826791524887 1.8944315612316132, -2.30038121342659 l1.2178488820791245, -2.30038121342659 0.4059496149420738, -2.30038121342659 l-0.6765826791524887, -0.4059496149420738 -3.5182300209999084, -0.4059496149420738 l-12.990387678146362, 0.2706330828368664 -1.3531653583049774, -0.4059496149420738 l-3.2475969195365906, 0.0 -7.7130430936813354, 0.5412661656737328 l-1.4884819090366364, 0.6765826791524887 m4.736078977584839, -1.0825323313474655 l2.029748111963272, 5.006712079048157 1.2178488820791245, -1.4884819090366364 l2.435697764158249, -4.60076242685318 m3.5182300209999084, 0.9472157806158066 l3.2475969195365906, 6.765826940536499 0.8118992298841476, -0.2706330828368664 l3.1122803688049316, -3.7888631224632263 1.4884819090366364, -2.8416472673416138 m2.571014165878296, 2.435697764158249 l1.6237984597682953, 3.7888631224632263 3.2475969195365906, -2.9769638180732727 l1.0825323313474655, -2.165064662694931 " fill="none" stroke="black" stroke-width="1" /></svg>