<?xml version="1.0" encoding="utf-8" ?>
<svg baseProfile="full" height="37.87520691752434" version="1.1" width="30.703430688008666" xmlns="http://www.w3.org/2000/svg" xmlns:ev="http://www.w3.org/2001/xml-events" xmlns:xlink="http://www.w3.org/1999/xlink"><defs /><rect fill="white" height="37.87520691752434" width="30.703430688008666" x="0" y="0" /><path d="M16.772538796067238, 9.194812290370464 m-5.41266143321991, 0.9472157806158066 l-3.2475969195365906, 2.706330716609955 -2.30038121342659, 5.81861138343811 l-0.8118992298841476, 4.194812774658203 0.0, 4.871395528316498 l1.3531653583049774, 2.706330716609955 3.3829134702682495, 1.8944315612316132 l3.3829134702682495, 0.5412661656737328 6.901143789291382, -0.1353165414184332 l2.571014165878296, -1.8944315612316132 1.0825323313474655, -2.706330716609955 l1.3531653583049774, -8.118992447853088 0.0, -4.194812774658203 l-0.8118992298841476, -2.8416472673416138 -1.3531653583049774, -2.706330716609955 l-2.165064662694931, -1.7591150104999542 -6.224560737609863, -0.1353165414184332 l-1.3531653583049774, 0.4059496149420738 -1.2178488820791245, 0.9472157806158066 m-4.465445876121521, 4.465445876121521 l0.2706330828368664, -7.8483593463897705 1.0825323313474655, 1.3531653583049774 m0.1353165414184332, -0.9472157806158066 l-2.029748111963272, -0.2706330828368664 -1.3531653583049774, 0.8118992298841476 l-0.5412661656737328, 1.3531653583049774 0.0, 4.871395528316498 l1.3531653583049774, 0.5412661656737328 1.4884819090366364, -0.6765826791524887 l2.30038121342659, -1.8944315612316132 0.5412661656737328, -1.3531653583049774 l0.0, -2.165064662694931 -2.165064662694931, -2.571014165878296 l-2.029748111963272, -0.4059496149420738 -0.6765826791524887, 0.6765826791524887 l-0.4059496149420738, 1.7591150104999542 0.4059496149420738, 1.2178488820791245 m15.155452489852905, -0.6765826791524887 l0.1353165414184332, -0.6765826791524887 1.3531653583049774, -0.5412661656737328 l2.029748111963272, 0.1353165414184332 0.6765826791524887, 0.6765826791524887 l0.4059496149420738, 1.3531653583049774 0.1353165414184332, 3.3829134702682495 l-0.6765826791524887, 0.5412661656737328 -3.3829134702682495, -0.2706330828368664 l-1.0825323313474655, -1.3531653583049774 -0.4059496149420738, -1.7591150104999542 m-5.953927636146545, 11.501905918121338 l-0.6765826791524887, 0.1353165414184332 -1.0825323313474655, 1.2178488820791245 l-0.2706330828368664, 2.706330716609955 4.059496223926544, 0.0 l1.3531653583049774, -0.6765826791524887 0.8118992298841476, -1.3531653583049774 l-0.1353165414184332, -2.165064662694931 -1.0825323313474655, -0.9472157806158066 l-2.165064662694931, 0.1353165414184332 -0.8118992298841476, 1.3531653583049774 " fill="none" stroke="black" stroke-width="1" /></svg>