<?xml version="1.0" encoding="utf-8" ?>
<svg baseProfile="full" height="52.48939395882189" version="1.1" width="92.1371400821954" xmlns="http://www.w3.org/2000/svg" xmlns:ev="http://www.w3.org/2001/xml-events" xmlns:xlink="http://www.w3.org/1999/xlink"><defs /><rect fill="white" height="52.48939395882189" width="92.1371400821954" x="0" y="0" /><path d="M13.93089166842401, 12.442409340292215 m-2.165064662694931, 3.5182300209999084 l-3.5182300209999084, 8.795575499534607 -2.30038121342659, 10.013424158096313 l-0.8118992298841476, 5.277345180511475 -0.1353165414184332, 5.277345180511475 l1.0825323313474655, 1.3531653583049774 1.3531653583049774, 0.6765826791524887 l5.142028331756592, 0.1353165414184332 0.2706330828368664, -9.336841106414795 l2.571014165878296, -6.359877586364746 1.0825323313474655, -1.6237984597682953 l13.261021375656128, -12.31380581855774 7.8483593463897705, 3.5182300209999084 l4.465445876121521, 5.006712079048157 0.8118992298841476, 2.706330716609955 l1.2178488820791245, 8.118992447853088 1.7591150104999542, 6.901143789291382 l2.165064662694931, 0.8118992298841476 2.9769638180732727, 0.0 l1.3531653583049774, -0.6765826791524887 0.1353165414184332, -0.6765826791524887 l-0.4059496149420738, -1.6237984597682953 -1.3531653583049774, -2.165064662694931 l0.4059496149420738, -4.194812774658203 2.571014165878296, -4.60076242685318 l3.2475969195365906, -3.6535465717315674 3.1122803688049316, -2.435697764158249 l11.501905918121338, -5.006712079048157 5.006712079048157, -0.5412661656737328 l6.630510687828064, -2.571014165878296 2.8416472673416138, -2.029748111963272 l1.0825323313474655, -2.165064662694931 0.0, -2.165064662694931 l-1.0825323313474655, -1.4884819090366364 -1.3531653583049774, -0.8118992298841476 l-12.178488969802856, -0.6765826791524887 -15.561401844024658, 5.6832945346832275 l-4.059496223926544, 0.1353165414184332 -18.67368221282959, -5.142028331756592 l-15.561401844024658, -2.571014165878296 -6.495193839073181, -0.5412661656737328 l-5.5479782819747925, 0.0 -1.4884819090366364, 1.8944315612316132 l0.0, 3.3829134702682495 2.30038121342659, 1.7591150104999542 l2.165064662694931, 0.6765826791524887 1.3531653583049774, 0.2706330828368664 l3.3829134702682495, -0.4059496149420738 m66.30510330200195, -3.9241796731948853 " fill="none" stroke="black" stroke-width="1" /></svg>