<?xml version="1.0" encoding="utf-8" ?>
<svg baseProfile="full" height="48.56521391309798" version="1.1" width="95.79068697057664" xmlns="http://www.w3.org/2000/svg" xmlns:ev="http://www.w3.org/2001/xml-events" xmlns:xlink="http://www.w3.org/1999/xlink"><defs /><rect fill="white" height="48.56521391309798" width="95.79068697057664" x="0" y="0" /><path d="M18.125704042613506, 22.45583351701498 m0.8118992298841476, -0.5412661656737328 l2.9769638180732727, -6.224560737609863 1.2178488820791245, -3.6535465717315674 l0.0, -2.435697764158249 -1.8944315612316132, -0.6765826791524887 l-5.142028331756592, 0.4059496149420738 -5.6832945346832275, 2.029748111963272 l-2.029748111963272, 1.0825323313474655 -2.8416472673416138, 2.435697764158249 l-0.5412661656737328, 3.6535465717315674 0.9472157806158066, 2.435697764158249 l3.7888631224632263, 3.1122803688049316 5.142028331756592, 0.8118992298841476 l4.465445876121521, -1.3531653583049774 2.571014165878296, -1.8944315612316132 l2.571014165878296, -3.9241796731948853 -1.3531653583049774, -2.165064662694931 l2.30038121342659, -1.6237984597682953 m-1.0825323313474655, 0.9472157806158066 l1.0825323313474655, -0.9472157806158066 4.736078977584839, -2.165064662694931 l12.31380581855774, -3.3829134702682495 3.7888631224632263, -0.5412661656737328 l6.630510687828064, -1.7591150104999542 11.90785527229309, -1.0825323313474655 l7.7130430936813354, 0.2706330828368664 13.531653881072998, 3.1122803688049316 l2.571014165878296, 0.9472157806158066 2.029748111963272, 2.165064662694931 l0.1353165414184332, 1.4884819090366364 -2.706330716609955, 5.142028331756592 l-7.036460041999817, 4.194812774658203 -5.277345180511475, 2.029748111963272 l-6.630510687828064, 0.9472157806158066 -11.63722276687622, 3.9241796731948853 l-2.571014165878296, 0.4059496149420738 -16.779251098632812, 0.8118992298841476 l-9.20152485370636, -1.2178488820791245 -1.3531653583049774, 0.1353165414184332 l-1.3531653583049774, -1.2178488820791245 -1.2178488820791245, -2.706330716609955 l-3.1122803688049316, -3.1122803688049316 m10.284056663513184, 6.495193839073181 l-0.1353165414184332, 7.036460041999817 2.571014165878296, 6.630510687828064 l1.6237984597682953, 1.0825323313474655 2.165064662694931, -0.6765826791524887 l4.60076242685318, -6.224560737609863 1.2178488820791245, -2.30038121342659 l1.7591150104999542, -5.5479782819747925 -0.6765826791524887, -2.029748111963272 l0.6765826791524887, 0.1353165414184332 2.435697764158249, 3.1122803688049316 l4.194812774658203, 3.2475969195365906 4.059496223926544, 1.3531653583049774 m7.307093143463135, -8.254309296607971 l-0.1353165414184332, 5.277345180511475 0.9472157806158066, 4.059496223926544 l0.4059496149420738, 4.60076242685318 0.4059496149420738, 0.6765826791524887 l0.8118992298841476, -0.1353165414184332 1.8944315612316132, -1.8944315612316132 l5.41266143321991, -6.089244484901428 1.2178488820791245, -1.8944315612316132 l0.8118992298841476, -4.194812774658203 -0.2706330828368664, -3.3829134702682495 l-0.5412661656737328, -1.3531653583049774 0.8118992298841476, 1.8944315612316132 l2.165064662694931, 2.571014165878296 m3.3829134702682495, -3.7888631224632263 l2.30038121342659, 8.930891752243042 2.029748111963272, 2.435697764158249 l1.3531653583049774, -1.7591150104999542 0.5412661656737328, -4.465445876121521 l-1.4884819090366364, -4.736078977584839 -1.0825323313474655, -1.4884819090366364 l-2.8416472673416138, -2.706330716609955 -1.8944315612316132, -1.2178488820791245 l-5.6832945346832275, -1.8944315612316132 -6.495193839073181, -1.0825323313474655 " fill="none" stroke="black" stroke-width="1" /></svg>