<?xml version="1.0" encoding="utf-8" ?>
<svg baseProfile="full" height="26.508617969229817" version="1.1" width="27.997099729254842" xmlns="http://www.w3.org/2000/svg" xmlns:ev="http://www.w3.org/2001/xml-events" xmlns:xlink="http://www.w3.org/1999/xlink"><defs /><rect fill="white" height="26.508617969229817" width="27.997099729254842" x="0" y="0" /><path d="M13.38962516747415, 9.059496419504285 m-1.7591150104999542, -0.5412661656737328 l-1.4884819090366364, 0.5412661656737328 -1.4884819090366364, 2.571014165878296 l-0.6765826791524887, 4.465445876121521 0.2706330828368664, 1.6237984597682953 l1.0825323313474655, 1.4884819090366364 2.165064662694931, 1.6237984597682953 l4.059496223926544, 0.6765826791524887 4.465445876121521, -1.6237984597682953 l2.30038121342659, -1.7591150104999542 0.6765826791524887, -1.0825323313474655 l-0.2706330828368664, -2.571014165878296 -1.7591150104999542, -2.029748111963272 l-3.2475969195365906, -2.029748111963272 -4.059496223926544, -1.0825323313474655 m-6.224560737609863, 1.4884819090366364 l-2.30038121342659, -2.9769638180732727 -0.1353165414184332, -1.0825323313474655 l0.5412661656737328, -1.0825323313474655 1.0825323313474655, -0.5412661656737328 l1.2178488820791245, 0.1353165414184332 3.2475969195365906, 2.706330716609955 m-1.4884819090366364, 2.8416472673416138 l-1.3531653583049774, -2.165064662694931 0.5412661656737328, -0.4059496149420738 l0.9472157806158066, 0.5412661656737328 m7.1717768907547, 1.0825323313474655 l-0.2706330828368664, -1.2178488820791245 0.9472157806158066, -2.30038121342659 l1.4884819090366364, -1.3531653583049774 1.2178488820791245, 0.1353165414184332 l1.0825323313474655, 1.0825323313474655 0.6765826791524887, 1.4884819090366364 l-1.4884819090366364, 4.871395528316498 m-2.9769638180732727, -2.029748111963272 l0.6765826791524887, -2.30038121342659 0.5412661656737328, -0.2706330828368664 l0.5412661656737328, 0.5412661656737328 0.1353165414184332, 1.2178488820791245 m-4.330129325389862, 5.277345180511475 l-1.0825323313474655, 0.0 -0.5412661656737328, 0.4059496149420738 l-0.1353165414184332, 0.5412661656737328 0.4059496149420738, 0.5412661656737328 l1.7591150104999542, 0.0 0.5412661656737328, -0.4059496149420738 l-0.2706330828368664, -0.4059496149420738 m-0.5412661656737328, 1.7591150104999542 l-0.9472157806158066, 1.6237984597682953 -2.165064662694931, 0.2706330828368664 m2.9769638180732727, -2.8416472673416138 l-0.4059496149420738, 0.5412661656737328 0.1353165414184332, 0.6765826791524887 l1.0825323313474655, 1.0825323313474655 2.165064662694931, 0.4059496149420738 l1.3531653583049774, -0.2706330828368664 " fill="none" stroke="black" stroke-width="1" /></svg>