<?xml version="1.0" encoding="utf-8" ?>
<svg baseProfile="full" height="30.432797530665994" version="1.1" width="21.907855663448572" xmlns="http://www.w3.org/2000/svg" xmlns:ev="http://www.w3.org/2001/xml-events" xmlns:xlink="http://www.w3.org/1999/xlink"><defs /><rect fill="white" height="30.432797530665994" width="21.907855663448572" x="0" y="0" /><path d="M16.907855663448572, 11.495193867012858 m-3.9241796731948853, 0.9472157806158066 l-3.2475969195365906, 0.2706330828368664 -2.029748111963272, 1.3531653583049774 l-0.9472157806158066, 2.30038121342659 -0.1353165414184332, 5.006712079048157 l0.5412661656737328, 1.4884819090366364 1.6237984597682953, 1.6237984597682953 l3.7888631224632263, 0.9472157806158066 0.6765826791524887, -0.5412661656737328 l2.706330716609955, -5.006712079048157 0.4059496149420738, -5.006712079048157 l-1.6237984597682953, -3.5182300209999084 -0.1353165414184332, -1.2178488820791245 m-0.6765826791524887, 2.029748111963272 l0.1353165414184332, -2.9769638180732727 -1.0825323313474655, -2.8416472673416138 l-0.6765826791524887, -0.1353165414184332 -2.706330716609955, 0.2706330828368664 l-1.2178488820791245, 1.2178488820791245 -0.1353165414184332, 2.8416472673416138 l0.4059496149420738, 0.6765826791524887 1.3531653583049774, 0.5412661656737328 m1.7591150104999542, -3.1122803688049316 l0.0, 0.0 m-1.3531653583049774, 0.0 l-0.1353165414184332, 0.0 m1.2178488820791245, 0.1353165414184332 l0.0, -0.1353165414184332 m0.9472157806158066, -2.8416472673416138 l1.3531653583049774, -0.8118992298841476 0.6765826791524887, 0.1353165414184332 l0.0, 2.029748111963272 -0.2706330828368664, 0.6765826791524887 l-0.5412661656737328, 0.0 m-4.465445876121521, -1.7591150104999542 l-4.059496223926544, -0.2706330828368664 -0.1353165414184332, 0.6765826791524887 l0.6765826791524887, 0.5412661656737328 1.3531653583049774, 0.2706330828368664 " fill="none" stroke="black" stroke-width="1" /></svg>