<?xml version="1.0" encoding="utf-8" ?>
<svg baseProfile="full" height="38.687106389552355" version="1.1" width="78.47016877494752" xmlns="http://www.w3.org/2000/svg" xmlns:ev="http://www.w3.org/2001/xml-events" xmlns:xlink="http://www.w3.org/1999/xlink"><defs /><rect fill="white" height="38.687106389552355" width="78.47016877494752" x="0" y="0" /><path d="M7.029748111963272, 33.687106389552355 m-2.029748111963272, -9.87810730934143 l0.1353165414184332, -7.442409992218018 1.2178488820791245, -2.706330716609955 l2.165064662694931, -2.9769638180732727 3.5182300209999084, -2.706330716609955 l1.7591150104999542, -0.4059496149420738 13.937603235244751, 0.6765826791524887 l10.419373512268066, 0.0 11.366589069366455, -2.9769638180732727 l6.495193839073181, -0.2706330828368664 1.4884819090366364, 0.4059496149420738 l0.8118992298841476, 1.0825323313474655 -0.5412661656737328, 3.2475969195365906 l0.0, 1.6237984597682953 0.4059496149420738, 0.6765826791524887 l1.2178488820791245, 0.8118992298841476 6.901143789291382, 1.8944315612316132 l5.5479782819747925, 2.30038121342659 1.6237984597682953, 1.6237984597682953 l-0.5412661656737328, 2.029748111963272 -1.8944315612316132, 1.2178488820791245 l-4.465445876121521, 0.6765826791524887 -2.30038121342659, -0.1353165414184332 l-4.60076242685318, -1.4884819090366364 -3.3829134702682495, -1.8944315612316132 l-2.029748111963272, 0.0 -2.30038121342659, 0.9472157806158066 l-1.0825323313474655, 2.165064662694931 -0.5412661656737328, 5.006712079048157 l-0.9472157806158066, 3.6535465717315674 -1.8944315612316132, 2.435697764158249 l-1.8944315612316132, -0.4059496149420738 -0.5412661656737328, -4.059496223926544 l0.5412661656737328, -5.142028331756592 -0.2706330828368664, -0.8118992298841476 l-0.9472157806158066, -0.4059496149420738 -0.6765826791524887, 0.0 l-0.6765826791524887, 0.8118992298841476 -1.8944315612316132, 7.8483593463897705 l-0.4059496149420738, 0.8118992298841476 -1.4884819090366364, 0.9472157806158066 l-1.4884819090366364, -0.9472157806158066 -0.4059496149420738, -1.8944315612316132 l-0.1353165414184332, -6.901143789291382 -1.7591150104999542, -0.4059496149420738 l-9.87810730934143, 0.2706330828368664 -3.7888631224632263, -0.8118992298841476 l-0.6765826791524887, 0.4059496149420738 -0.1353165414184332, 0.6765826791524887 l0.0, 7.442409992218018 -1.8944315612316132, 1.2178488820791245 l-1.4884819090366364, -0.1353165414184332 -2.165064662694931, -1.3531653583049774 l-0.8118992298841476, -2.571014165878296 0.6765826791524887, -3.6535465717315674 l-0.4059496149420738, -0.6765826791524887 -1.3531653583049774, -0.4059496149420738 l-0.6765826791524887, 0.6765826791524887 -1.3531653583049774, 4.871395528316498 l-2.029748111963272, 4.330129325389862 -0.6765826791524887, 0.0 l-0.9472157806158066, -1.3531653583049774 1.0825323313474655, -0.1353165414184332 " fill="none" stroke="black" stroke-width="1" /></svg>