<?xml version="1.0" encoding="utf-8" ?>
<svg baseProfile="full" height="39.49900556355715" version="1.1" width="43.42318529263139" xmlns="http://www.w3.org/2000/svg" xmlns:ev="http://www.w3.org/2001/xml-events" xmlns:xlink="http://www.w3.org/1999/xlink"><defs /><rect fill="white" height="39.49900556355715" width="43.42318529263139" x="0" y="0" /><path d="M18.531653825193644, 34.49900556355715 m-3.5182300209999084, -0.8118992298841476 l-2.9769638180732727, -1.6237984597682953 -2.029748111963272, -1.8944315612316132 l-2.029748111963272, -3.1122803688049316 -0.9472157806158066, -4.330129325389862 l0.4059496149420738, -2.435697764158249 1.2178488820791245, -2.571014165878296 l-2.571014165878296, -2.30038121342659 -0.8118992298841476, -1.7591150104999542 l-0.2706330828368664, -1.8944315612316132 0.2706330828368664, -2.706330716609955 l1.3531653583049774, -2.165064662694931 1.8944315612316132, -1.4884819090366364 l1.7591150104999542, -0.4059496149420738 2.9769638180732727, 0.9472157806158066 l1.6237984597682953, 1.4884819090366364 1.8944315612316132, 3.6535465717315674 l6.089244484901428, 0.1353165414184332 2.706330716609955, 1.0825323313474655 l2.435697764158249, -2.9769638180732727 3.1122803688049316, -2.029748111963272 l2.571014165878296, -0.5412661656737328 1.8944315612316132, 0.1353165414184332 l2.30038121342659, 1.3531653583049774 0.5412661656737328, 1.4884819090366364 l0.0, 1.7591150104999542 -0.1353165414184332, 1.6237984597682953 l-1.2178488820791245, 2.8416472673416138 -0.9472157806158066, 1.3531653583049774 l-1.8944315612316132, 1.3531653583049774 -2.8416472673416138, 0.5412661656737328 l0.0, 7.307093143463135 -0.6765826791524887, 3.6535465717315674 l-0.5412661656737328, 1.2178488820791245 -2.9769638180732727, 2.029748111963272 l-4.194812774658203, 0.9472157806158066 -5.006712079048157, -0.6765826791524887 l-1.7591150104999542, -0.9472157806158066 m-0.5412661656737328, -15.696718692779541 l-0.8118992298841476, 0.5412661656737328 m10.960639715194702, 0.0 l-1.7591150104999542, 0.5412661656737328 -1.4884819090366364, 1.4884819090366364 l-0.2706330828368664, 0.6765826791524887 0.8118992298841476, 0.4059496149420738 l0.5412661656737328, -0.2706330828368664 -0.6765826791524887, -0.6765826791524887 m-6.495193839073181, 5.277345180511475 l5.142028331756592, 0.0 3.5182300209999084, 0.6765826791524887 l-0.2706330828368664, 1.4884819090366364 -1.4884819090366364, 1.8944315612316132 l-1.4884819090366364, 0.6765826791524887 -2.9769638180732727, 0.1353165414184332 l-0.8118992298841476, -0.1353165414184332 -0.8118992298841476, -1.0825323313474655 l0.0, -3.2475969195365906 m6.359877586364746, -5.142028331756592 l0.2706330828368664, -0.5412661656737328 1.3531653583049774, -0.5412661656737328 " fill="none" stroke="black" stroke-width="1" /></svg>