<?xml version="1.0" encoding="utf-8" ?>
<svg baseProfile="full" height="72.2456087730825" version="1.1" width="48.159264996647835" xmlns="http://www.w3.org/2000/svg" xmlns:ev="http://www.w3.org/2001/xml-events" xmlns:xlink="http://www.w3.org/1999/xlink"><defs /><rect fill="white" height="72.2456087730825" width="48.159264996647835" x="0" y="0" /><path d="M21.10266711562872, 9.871395658701658 m-8.118992447853088, 0.0 l-0.8118992298841476, 0.6765826791524887 -1.7591150104999542, 4.465445876121521 l-0.8118992298841476, 4.736078977584839 0.0, 5.41266143321991 l1.3531653583049774, 2.435697764158249 3.2475969195365906, 2.165064662694931 l2.9769638180732727, 1.2178488820791245 5.277345180511475, 0.9472157806158066 l10.148741006851196, -0.2706330828368664 2.029748111963272, -0.6765826791524887 l2.9769638180732727, -2.30038121342659 1.7591150104999542, -3.9241796731948853 l0.1353165414184332, -7.442409992218018 -2.571014165878296, -4.059496223926544 l-3.2475969195365906, -2.571014165878296 -5.142028331756592, -2.435697764158249 l-3.3829134702682495, -0.4059496149420738 m-10.419373512268066, 0.5412661656737328 l-5.81861138343811, -3.3829134702682495 -1.7591150104999542, 3.6535465717315674 l-0.8118992298841476, 3.3829134702682495 -0.1353165414184332, 5.006712079048157 l0.4059496149420738, 0.1353165414184332 m25.16887664794922, -7.983676195144653 l2.8416472673416138, -1.7591150104999542 3.7888631224632263, -0.6765826791524887 l2.8416472673416138, 0.1353165414184332 1.7591150104999542, 1.4884819090366364 l0.0, 2.30038121342659 -1.0825323313474655, 2.30038121342659 l-1.4884819090366364, 1.4884819090366364 m-25.845458507537842, 15.696718692779541 l-6.359877586364746, 7.442409992218018 -2.435697764158249, 4.194812774658203 l-0.8118992298841476, 2.30038121342659 3.6535465717315674, 0.9472157806158066 l5.5479782819747925, 0.4059496149420738 5.277345180511475, -2.706330716609955 l-3.3829134702682495, 8.930891752243042 -3.9241796731948853, 15.155452489852905 l0.9472157806158066, 0.4059496149420738 18.538366556167603, 0.0 l0.0, -4.871395528316498 -2.165064662694931, -19.35026526451111 l2.029748111963272, 0.4059496149420738 3.2475969195365906, 2.435697764158249 l0.8118992298841476, 1.2178488820791245 2.165064662694931, 1.3531653583049774 l3.2475969195365906, 0.1353165414184332 0.8118992298841476, -0.2706330828368664 l1.3531653583049774, -1.6237984597682953 " fill="none" stroke="black" stroke-width="1" /></svg>