<?xml version="1.0" encoding="utf-8" ?>
<svg baseProfile="full" height="44.505717949941754" version="1.1" width="48.023947440087795" xmlns="http://www.w3.org/2000/svg" xmlns:ev="http://www.w3.org/2001/xml-events" xmlns:xlink="http://www.w3.org/1999/xlink"><defs /><rect fill="white" height="44.505717949941754" width="48.023947440087795" x="0" y="0" /><path d="M6.623798031359911, 12.036459855735302 m2.435697764158249, -5.142028331756592 l0.5412661656737328, -0.6765826791524887 2.029748111963272, -0.8118992298841476 l1.8944315612316132, -0.4059496149420738 4.059496223926544, 0.0 l1.8944315612316132, 0.8118992298841476 1.2178488820791245, 1.2178488820791245 l1.8944315612316132, 3.2475969195365906 0.9472157806158066, 4.059496223926544 l0.0, 2.571014165878296 -1.3531653583049774, 1.4884819090366364 l-1.6237984597682953, 0.4059496149420738 -6.765826940536499, 0.1353165414184332 l-2.029748111963272, -0.5412661656737328 -5.142028331756592, -3.5182300209999084 l-1.3531653583049774, -2.029748111963272 -0.2706330828368664, -2.30038121342659 l0.4059496149420738, -0.1353165414184332 m20.70343017578125, 5.006712079048157 l0.8118992298841476, -1.4884819090366364 2.30038121342659, -2.435697764158249 l1.8944315612316132, -1.4884819090366364 2.165064662694931, -0.9472157806158066 l5.5479782819747925, -0.1353165414184332 1.4884819090366364, 0.8118992298841476 l2.029748111963272, 2.30038121342659 0.6765826791524887, 2.30038121342659 l0.0, 1.6237984597682953 -0.2706330828368664, 2.30038121342659 l-0.6765826791524887, 1.2178488820791245 -2.435697764158249, 1.4884819090366364 l-1.0825323313474655, 0.0 -2.435697764158249, 1.0825323313474655 l-4.871395528316498, -0.4059496149420738 -2.165064662694931, -1.7591150104999542 l-3.1122803688049316, -3.6535465717315674 -0.8118992298841476, -1.2178488820791245 l-0.4059496149420738, -2.029748111963272 m-8.524942398071289, 7.577726244926453 l-1.6237984597682953, 7.577726244926453 0.1353165414184332, 6.089244484901428 l0.8118992298841476, 1.2178488820791245 2.706330716609955, 1.8944315612316132 l7.8483593463897705, 2.165064662694931 5.142028331756592, 0.0 l4.60076242685318, -0.8118992298841476 2.9769638180732727, -1.4884819090366364 l1.8944315612316132, -1.8944315612316132 0.1353165414184332, -3.3829134702682495 l-1.4884819090366364, -1.8944315612316132 0.1353165414184332, -1.3531653583049774 l-0.6765826791524887, -1.3531653583049774 -3.2475969195365906, -2.9769638180732727 l-1.2178488820791245, -2.165064662694931 -1.3531653583049774, -1.3531653583049774 m-17.185200452804565, -0.5412661656737328 l3.5182300209999084, -1.8944315612316132 m2.8416472673416138, -0.5412661656737328 l5.006712079048157, -0.4059496149420738 0.4059496149420738, 0.5412661656737328 m-8.660258650779724, 11.90785527229309 l0.1353165414184332, 3.6535465717315674 0.6765826791524887, 1.6237984597682953 l1.3531653583049774, 0.8118992298841476 6.359877586364746, 0.9472157806158066 l2.8416472673416138, 0.0 3.1122803688049316, -0.9472157806158066 l0.9472157806158066, -1.0825323313474655 m-9.066208004951477, -9.607474207878113 l-0.1353165414184332, -2.029748111963272 2.029748111963272, -0.4059496149420738 l1.0825323313474655, 1.3531653583049774 -0.2706330828368664, 0.8118992298841476 l-1.6237984597682953, 0.9472157806158066 -4.194812774658203, 0.5412661656737328 l-0.6765826791524887, -0.2706330828368664 -0.4059496149420738, -0.9472157806158066 m7.7130430936813354, 3.2475969195365906 l0.4059496149420738, -1.6237984597682953 0.6765826791524887, -0.4059496149420738 l2.30038121342659, -0.2706330828368664 0.5412661656737328, 0.6765826791524887 l-0.5412661656737328, 0.6765826791524887 -1.3531653583049774, -0.1353165414184332 " fill="none" stroke="black" stroke-width="1" /></svg>