<?xml version="1.0" encoding="utf-8" ?>
<svg baseProfile="full" height="41.12280448898673" version="1.1" width="43.82913488894701" xmlns="http://www.w3.org/2000/svg" xmlns:ev="http://www.w3.org/2001/xml-events" xmlns:xlink="http://www.w3.org/1999/xlink"><defs /><rect fill="white" height="41.12280448898673" width="43.82913488894701" x="0" y="0" /><path d="M21.64393433369696, 21.37330143712461 m1.2178488820791245, -0.6765826791524887 l2.30038121342659, -0.1353165414184332 0.2706330828368664, 2.165064662694931 l-0.6765826791524887, 0.6765826791524887 -2.706330716609955, 0.0 l-0.6765826791524887, -0.4059496149420738 -0.1353165414184332, -2.30038121342659 m-2.029748111963272, -8.254309296607971 l6.765826940536499, -0.8118992298841476 3.5182300209999084, 0.1353165414184332 l1.4884819090366364, -2.165064662694931 1.6237984597682953, -1.0825323313474655 l2.30038121342659, -2.571014165878296 0.6765826791524887, -0.1353165414184332 l2.706330716609955, 3.3829134702682495 0.5412661656737328, 1.3531653583049774 l-0.2706330828368664, 3.6535465717315674 -1.2178488820791245, 1.2178488820791245 l-1.7591150104999542, 0.0 -2.029748111963272, 1.2178488820791245 l0.2706330828368664, 0.6765826791524887 1.3531653583049774, 0.4059496149420738 l0.6765826791524887, 1.3531653583049774 1.2178488820791245, 10.690007209777832 l-1.3531653583049774, 4.059496223926544 -2.9769638180732727, 2.029748111963272 l-1.3531653583049774, 0.2706330828368664 -2.435697764158249, 0.0 l-6.495193839073181, -1.6237984597682953 -4.465445876121521, -1.4884819090366364 l-4.059496223926544, -2.706330716609955 -1.2178488820791245, -3.9241796731948853 l0.0, -2.165064662694931 0.8118992298841476, -2.30038121342659 l-6.495193839073181, -6.901143789291382 -1.4884819090366364, -3.2475969195365906 l-0.5412661656737328, -5.81861138343811 0.5412661656737328, -0.6765826791524887 l5.41266143321991, -0.2706330828368664 7.1717768907547, 4.194812774658203 l2.029748111963272, 3.1122803688049316 m3.6535465717315674, 13.531653881072998 l0.0, 2.571014165878296 -2.435697764158249, 2.571014165878296 l-0.8118992298841476, 0.2706330828368664 m4.736078977584839, -4.059496223926544 l1.2178488820791245, 3.1122803688049316 0.8118992298841476, 0.5412661656737328 l1.7591150104999542, -0.1353165414184332 m-2.435697764158249, -15.967352390289307 l0.0, 0.0 m-9.20152485370636, 0.8118992298841476 l0.0, 0.0 " fill="none" stroke="black" stroke-width="1" /></svg>