<?xml version="1.0" encoding="utf-8" ?>
<svg baseProfile="full" height="27.72646650671959" version="1.1" width="38.145840000361204" xmlns="http://www.w3.org/2000/svg" xmlns:ev="http://www.w3.org/2001/xml-events" xmlns:xlink="http://www.w3.org/1999/xlink"><defs /><rect fill="white" height="27.72646650671959" width="38.145840000361204" x="0" y="0" /><path d="M10.953927747905254, 7.029748009517789 m-0.8118992298841476, -1.0825323313474655 l-2.435697764158249, -0.8118992298841476 -1.4884819090366364, 0.2706330828368664 l-0.6765826791524887, 0.6765826791524887 -0.5412661656737328, 1.8944315612316132 l0.1353165414184332, 2.9769638180732727 1.2178488820791245, 1.7591150104999542 l1.7591150104999542, 1.2178488820791245 m4.194812774658203, -5.6832945346832275 l0.1353165414184332, -0.5412661656737328 5.6832945346832275, -1.7591150104999542 l2.8416472673416138, 0.1353165414184332 2.9769638180732727, 1.6237984597682953 m0.0, 0.2706330828368664 l1.3531653583049774, -1.4884819090366364 2.029748111963272, -0.9472157806158066 l3.3829134702682495, -0.5412661656737328 1.6237984597682953, 0.2706330828368664 l0.8118992298841476, 1.0825323313474655 0.0, 1.6237984597682953 l-0.6765826791524887, 1.6237984597682953 -1.8944315612316132, 2.165064662694931 m-22.19191312789917, 1.3531653583049774 l-0.5412661656737328, 0.5412661656737328 -0.2706330828368664, 2.571014165878296 l0.8118992298841476, 2.9769638180732727 1.3531653583049774, 1.4884819090366364 l4.330129325389862, 1.7591150104999542 5.5479782819747925, 0.2706330828368664 l6.765826940536499, -1.8944315612316132 2.165064662694931, -1.0825323313474655 l1.2178488820791245, -1.3531653583049774 1.4884819090366364, -2.706330716609955 l0.1353165414184332, -1.8944315612316132 -0.2706330828368664, -1.4884819090366364 l-1.2178488820791245, -1.2178488820791245 m-16.779251098632812, 0.6765826791524887 l-0.1353165414184332, 1.3531653583049774 0.6765826791524887, 0.0 l0.2706330828368664, -0.5412661656737328 -0.5412661656737328, -0.4059496149420738 m10.419373512268066, -1.3531653583049774 l-0.5412661656737328, 0.0 -0.2706330828368664, 0.6765826791524887 l0.0, 0.5412661656737328 0.5412661656737328, 0.2706330828368664 l-0.1353165414184332, -0.9472157806158066 " fill="none" stroke="black" stroke-width="1" /></svg>