<?xml version="1.0" encoding="utf-8" ?>
<svg baseProfile="full" height="48.42989806085825" version="1.1" width="59.6611706726253" xmlns="http://www.w3.org/2000/svg" xmlns:ev="http://www.w3.org/2001/xml-events" xmlns:xlink="http://www.w3.org/1999/xlink"><defs /><rect fill="white" height="48.42989806085825" width="59.6611706726253" x="0" y="0" /><path d="M13.389625744894147, 15.960639845579863 m-0.6765826791524887, -0.6765826791524887 l-0.6765826791524887, -2.8416472673416138 -0.1353165414184332, -6.089244484901428 l1.3531653583049774, -1.0825323313474655 4.871395528316498, -0.2706330828368664 l2.9769638180732727, 1.7591150104999542 1.2178488820791245, 6.630510687828064 l2.165064662694931, 1.6237984597682953 3.6535465717315674, 1.7591150104999542 l4.194812774658203, 0.9472157806158066 5.277345180511475, 0.1353165414184332 l0.9472157806158066, -0.4059496149420738 4.059496223926544, -4.330129325389862 l2.8416472673416138, -2.029748111963272 4.60076242685318, -0.1353165414184332 l3.9241796731948853, 1.8944315612316132 0.6765826791524887, 1.3531653583049774 l0.0, 3.7888631224632263 -3.7888631224632263, 8.254309296607971 l-3.3829134702682495, 5.006712079048157 -4.736078977584839, 5.277345180511475 l-7.442409992218018, 4.60076242685318 -3.2475969195365906, 1.3531653583049774 l-4.736078977584839, 0.9472157806158066 -4.736078977584839, 0.0 l-9.742791056632996, -5.6832945346832275 -2.165064662694931, -2.435697764158249 l-5.41266143321991, -8.118992447853088 -0.2706330828368664, -0.9472157806158066 l0.0, -6.901143789291382 1.3531653583049774, -2.571014165878296 l5.953927636146545, -4.871395528316498 1.4884819090366364, 0.1353165414184332 m8.118992447853088, 7.1717768907547 l-1.2178488820791245, 1.6237984597682953 1.7591150104999542, -0.1353165414184332 l0.5412661656737328, -0.6765826791524887 m15.290769338607788, 5.006712079048157 l-1.4884819090366364, 0.5412661656737328 1.4884819090366364, -0.2706330828368664 l0.1353165414184332, -1.7591150104999542 m-10.960639715194702, 1.8944315612316132 l-1.6237984597682953, 2.30038121342659 -0.2706330828368664, 2.029748111963272 l0.8118992298841476, 0.6765826791524887 3.1122803688049316, -0.5412661656737328 l1.4884819090366364, -1.4884819090366364 0.0, -2.8416472673416138 l-2.9769638180732727, -0.4059496149420738 m0.5412661656737328, 5.6832945346832275 l-0.4059496149420738, 3.1122803688049316 1.4884819090366364, 2.029748111963272 l4.871395528316498, 1.0825323313474655 1.8944315612316132, -0.4059496149420738 l1.0825323313474655, -1.0825323313474655 m-9.20152485370636, -6.224560737609863 l-3.5182300209999084, 5.81861138343811 -1.7591150104999542, 0.6765826791524887 l-1.7591150104999542, -0.6765826791524887 -2.706330716609955, -2.30038121342659 l-1.4884819090366364, -2.029748111963272 -0.6765826791524887, -2.029748111963272 " fill="none" stroke="black" stroke-width="1" /></svg>