<?xml version="1.0" encoding="utf-8" ?>
<svg baseProfile="full" height="54.24850824289024" version="1.1" width="58.71395446360111" xmlns="http://www.w3.org/2000/svg" xmlns:ev="http://www.w3.org/2001/xml-events" xmlns:xlink="http://www.w3.org/1999/xlink"><defs /><rect fill="white" height="54.24850824289024" width="58.71395446360111" x="0" y="0" /><path d="M26.380012845620513, 14.87810674123466 m-6.630510687828064, 2.165064662694931 l-2.706330716609955, 1.7591150104999542 -3.1122803688049316, 2.9769638180732727 l-5.6832945346832275, 8.254309296607971 -1.3531653583049774, 3.5182300209999084 l-0.1353165414184332, 2.435697764158249 0.4059496149420738, 3.5182300209999084 l0.8118992298841476, 2.30038121342659 4.059496223926544, 4.465445876121521 l7.442409992218018, 2.9769638180732727 8.389625549316406, 0.0 l3.3829134702682495, -0.9472157806158066 4.736078977584839, -2.30038121342659 l3.1122803688049316, -2.30038121342659 3.7888631224632263, -4.194812774658203 l3.2475969195365906, -5.953927636146545 0.5412661656737328, -4.330129325389862 l-0.6765826791524887, -3.5182300209999084 -2.9769638180732727, -3.9241796731948853 l-0.9472157806158066, -0.8118992298841476 -3.3829134702682495, -2.435697764158249 l-6.630510687828064, -3.1122803688049316 -5.6832945346832275, -1.3531653583049774 l-4.736078977584839, -0.1353165414184332 -2.706330716609955, 0.4059496149420738 l-1.8944315612316132, 1.7591150104999542 m-5.41266143321991, 7.307093143463135 l-5.81861138343811, -9.336841106414795 -0.8118992298841476, -2.571014165878296 l0.0, -2.30038121342659 1.2178488820791245, 0.0 l4.330129325389862, 2.029748111963272 7.577726244926453, 5.953927636146545 m19.35026526451111, 0.6765826791524887 l3.3829134702682495, -3.9241796731948853 5.953927636146545, -5.142028331756592 l4.60076242685318, -2.9769638180732727 2.30038121342659, -0.8118992298841476 l0.0, 1.3531653583049774 -7.577726244926453, 16.779251098632812 m-27.469258308410645, 3.9241796731948853 l-0.2706330828368664, 1.3531653583049774 0.0, 0.5412661656737328 l0.0, -0.5412661656737328 0.2706330828368664, 0.1353165414184332 m15.426086187362671, 0.1353165414184332 l-0.6765826791524887, -0.9472157806158066 0.0, 1.2178488820791245 l0.4059496149420738, 0.0 m-15.832035541534424, 7.7130430936813354 l-0.2706330828368664, 0.5412661656737328 0.2706330828368664, 2.029748111963272 l1.4884819090366364, 2.30038121342659 4.736078977584839, 4.059496223926544 l2.435697764158249, 0.5412661656737328 2.30038121342659, -0.2706330828368664 l2.8416472673416138, -1.6237984597682953 2.435697764158249, -4.60076242685318 l0.2706330828368664, -1.7591150104999542 -1.6237984597682953, -2.8416472673416138 l-1.2178488820791245, -1.0825323313474655 -5.006712079048157, -1.3531653583049774 l-3.7888631224632263, -0.2706330828368664 -3.3829134702682495, 1.2178488820791245 l-1.7591150104999542, 1.3531653583049774 -0.2706330828368664, 1.7591150104999542 l0.8118992298841476, 2.165064662694931 m-1.3531653583049774, -4.194812774658203 l1.8944315612316132, 1.6237984597682953 2.706330716609955, 0.9472157806158066 l0.5412661656737328, -0.1353165414184332 0.4059496149420738, -2.571014165878296 l2.165064662694931, -2.165064662694931 0.2706330828368664, 0.5412661656737328 l-0.2706330828368664, 4.871395528316498 0.5412661656737328, 0.2706330828368664 l1.3531653583049774, -0.8118992298841476 5.006712079048157, -0.8118992298841476 l-1.6237984597682953, 1.4884819090366364 -0.1353165414184332, 2.029748111963272 l0.5412661656737328, 0.4059496149420738 1.7591150104999542, 0.0 l1.0825323313474655, 0.5412661656737328 -0.5412661656737328, 0.2706330828368664 l-2.8416472673416138, -0.6765826791524887 -0.5412661656737328, 0.4059496149420738 l-1.8944315612316132, 2.435697764158249 -0.4059496149420738, 2.30038121342659 l-0.5412661656737328, 0.0 -0.6765826791524887, -1.3531653583049774 l0.0, -4.194812774658203 -0.5412661656737328, -0.2706330828368664 l-4.465445876121521, 2.706330716609955 0.0, -0.5412661656737328 l1.6237984597682953, -2.706330716609955 -1.7591150104999542, -0.6765826791524887 " fill="none" stroke="black" stroke-width="1" /></svg>