<?xml version="1.0" encoding="utf-8" ?>
<svg baseProfile="full" height="52.2187605779618" version="1.1" width="70.2158619184047" xmlns="http://www.w3.org/2000/svg" xmlns:ev="http://www.w3.org/2001/xml-events" xmlns:xlink="http://www.w3.org/1999/xlink"><defs /><rect fill="white" height="52.2187605779618" width="70.2158619184047" x="0" y="0" /><path d="M17.71975487470627, 11.495193904265761 m-2.165064662694931, 0.2706330828368664 l-9.20152485370636, 2.9769638180732727 -1.3531653583049774, 3.5182300209999084 l0.0, 7.577726244926453 0.2706330828368664, 0.6765826791524887 l1.3531653583049774, 0.9472157806158066 11.772539615631104, 7.7130430936813354 l3.2475969195365906, 0.9472157806158066 5.277345180511475, 0.5412661656737328 l11.90785527229309, 0.0 1.3531653583049774, -0.4059496149420738 l1.8944315612316132, -1.4884819090366364 2.30038121342659, -2.30038121342659 l0.9472157806158066, -2.165064662694931 0.0, -6.495193839073181 l-0.8118992298841476, -5.953927636146545 -2.571014165878296, -4.330129325389862 l-0.9472157806158066, -0.8118992298841476 -1.0825323313474655, -0.2706330828368664 l-1.6237984597682953, 0.0 -3.7888631224632263, 1.2178488820791245 l-3.9241796731948853, 0.6765826791524887 -3.2475969195365906, 0.0 l-2.8416472673416138, -1.0825323313474655 -6.224560737609863, -0.4059496149420738 m-12.043172121047974, 13.531653881072998 l0.4059496149420738, 2.571014165878296 0.0, 14.61418628692627 l1.0825323313474655, 0.5412661656737328 8.930891752243042, -2.571014165878296 l0.2706330828368664, -0.6765826791524887 -1.7591150104999542, -4.60076242685318 l-0.8118992298841476, -4.465445876121521 m5.5479782819747925, 4.059496223926544 l2.165064662694931, 4.194812774658203 2.30038121342659, 6.765826940536499 l0.6765826791524887, 0.4059496149420738 2.30038121342659, -0.1353165414184332 l2.9769638180732727, -0.9472157806158066 0.4059496149420738, -0.6765826791524887 l-0.1353165414184332, -2.706330716609955 -1.8944315612316132, -6.359877586364746 m4.330129325389862, 1.2178488820791245 l1.6237984597682953, 5.142028331756592 1.2178488820791245, 2.30038121342659 l6.359877586364746, 0.4059496149420738 0.2706330828368664, -0.6765826791524887 l-1.3531653583049774, -7.307093143463135 -0.1353165414184332, -3.2475969195365906 m1.7591150104999542, -1.8944315612316132 l0.0, 7.036460041999817 1.3531653583049774, 5.41266143321991 l2.30038121342659, 0.0 2.706330716609955, -0.6765826791524887 l-1.3531653583049774, -3.6535465717315674 -0.8118992298841476, -7.7130430936813354 l-1.3531653583049774, -5.41266143321991 m-1.6237984597682953, -11.90785527229309 l-0.2706330828368664, -0.6765826791524887 0.6765826791524887, -0.6765826791524887 l3.1122803688049316, -1.7591150104999542 7.983676195144653, -1.8944315612316132 l3.9241796731948853, 0.0 4.736078977584839, 2.9769638180732727 l0.9472157806158066, 1.6237984597682953 0.1353165414184332, 2.30038121342659 l-1.6237984597682953, 2.8416472673416138 -4.194812774658203, 2.706330716609955 l-2.9769638180732727, 0.8118992298841476 -3.2475969195365906, 0.0 l-3.6535465717315674, -2.571014165878296 -1.6237984597682953, -2.029748111963272 l-1.6237984597682953, -2.706330716609955 0.0, -2.8416472673416138 m1.8944315612316132, -1.7591150104999542 l-0.6765826791524887, 0.0 -0.4059496149420738, -0.6765826791524887 l-0.8118992298841476, -2.571014165878296 0.1353165414184332, -2.706330716609955 l0.6765826791524887, -0.6765826791524887 2.571014165878296, 0.0 l1.4884819090366364, 0.6765826791524887 1.2178488820791245, 1.6237984597682953 l0.8118992298841476, 2.9769638180732727 m2.8416472673416138, -1.2178488820791245 l2.706330716609955, -2.165064662694931 4.059496223926544, -2.029748111963272 l0.8118992298841476, 0.5412661656737328 0.6765826791524887, 1.3531653583049774 l0.0, 3.1122803688049316 -2.8416472673416138, 0.6765826791524887 " fill="none" stroke="black" stroke-width="1" /></svg>