<?xml version="1.0" encoding="utf-8" ?>
<svg baseProfile="full" height="56.27825636416674" version="1.1" width="47.076731994748116" xmlns="http://www.w3.org/2000/svg" xmlns:ev="http://www.w3.org/2001/xml-events" xmlns:xlink="http://www.w3.org/1999/xlink"><defs /><rect fill="white" height="56.27825636416674" width="47.076731994748116" x="0" y="0" /><path d="M10.547978123649955, 17.58443814702332 m-3.9241796731948853, 4.871395528316498 l-1.4884819090366364, 5.41266143321991 -0.1353165414184332, 7.442409992218018 l1.7591150104999542, 5.142028331756592 3.5182300209999084, 5.142028331756592 l1.2178488820791245, 1.0825323313474655 3.7888631224632263, 2.8416472673416138 l1.7591150104999542, 0.8118992298841476 2.8416472673416138, 0.8118992298841476 l5.142028331756592, 0.1353165414184332 5.006712079048157, -1.7591150104999542 l5.006712079048157, -2.571014165878296 4.736078977584839, -4.871395528316498 l2.30038121342659, -6.901143789291382 -0.1353165414184332, -5.142028331756592 l-2.165064662694931, -4.194812774658203 -4.465445876121521, -5.6832945346832275 l-0.6765826791524887, -1.8944315612316132 2.30038121342659, -1.7591150104999542 l1.2178488820791245, -3.2475969195365906 0.1353165414184332, -5.41266143321991 l-0.5412661656737328, -1.6237984597682953 -0.6765826791524887, -0.6765826791524887 l-1.0825323313474655, -0.5412661656737328 -2.029748111963272, 0.0 l-1.4884819090366364, 0.6765826791524887 -2.029748111963272, 1.4884819090366364 l-2.706330716609955, 2.9769638180732727 0.0, 1.8944315612316132 l-2.165064662694931, -0.8118992298841476 -6.765826940536499, 2.571014165878296 l-0.8118992298841476, -0.4059496149420738 -0.8118992298841476, -3.5182300209999084 l-0.9472157806158066, -1.3531653583049774 -0.8118992298841476, -0.6765826791524887 l-1.7591150104999542, 0.0 -2.706330716609955, 2.9769638180732727 l-1.2178488820791245, 2.9769638180732727 0.1353165414184332, 1.4884819090366364 l1.2178488820791245, 1.3531653583049774 m7.307093143463135, 11.095956563949585 l0.0, 2.165064662694931 0.5412661656737328, -0.6765826791524887 l-0.1353165414184332, -0.6765826791524887 m8.930891752243042, 0.8118992298841476 l0.6765826791524887, 0.2706330828368664 -0.1353165414184332, -0.6765826791524887 l-0.8118992298841476, 0.0 0.5412661656737328, 0.4059496149420738 m-6.359877586364746, 8.660258650779724 l0.4059496149420738, 0.6765826791524887 0.6765826791524887, 0.1353165414184332 l1.2178488820791245, -2.30038121342659 -2.029748111963272, 0.0 m0.5412661656737328, 2.8416472673416138 l2.165064662694931, 4.059496223926544 0.6765826791524887, 0.0 l0.4059496149420738, -0.9472157806158066 0.1353165414184332, -2.029748111963272 m-2.706330716609955, -0.9472157806158066 l-1.0825323313474655, 4.059496223926544 -0.6765826791524887, 0.1353165414184332 l-2.029748111963272, -2.165064662694931 -0.6765826791524887, -2.029748111963272 m-4.465445876121521, -23.951027393341064 l-0.6765826791524887, -1.4884819090366364 " fill="none" stroke="black" stroke-width="1" /></svg>