<?xml version="1.0" encoding="utf-8" ?>
<svg baseProfile="full" height="48.294580429792404" version="1.1" width="70.6218099500984" xmlns="http://www.w3.org/2000/svg" xmlns:ev="http://www.w3.org/2001/xml-events" xmlns:xlink="http://www.w3.org/1999/xlink"><defs /><rect fill="white" height="48.294580429792404" width="70.6218099500984" x="0" y="0" /><path d="M8.112279837951064, 23.538365066051483 m-0.5412661656737328, 3.1122803688049316 m1.0825323313474655, -3.9241796731948853 l1.3531653583049774, 0.4059496149420738 7.1717768907547, -1.4884819090366364 l1.7591150104999542, -1.4884819090366364 4.194812774658203, -2.165064662694931 l2.706330716609955, -2.30038121342659 2.8416472673416138, -0.9472157806158066 l0.6765826791524887, 0.0 0.2706330828368664, 0.6765826791524887 l0.2706330828368664, 3.3829134702682495 1.4884819090366364, 0.6765826791524887 l14.208236932754517, -2.029748111963272 7.1717768907547, 0.1353165414184332 l7.036460041999817, 2.435697764158249 4.871395528316498, 2.706330716609955 l0.9472157806158066, 1.3531653583049774 -0.1353165414184332, 0.6765826791524887 l-0.6765826791524887, 0.2706330828368664 0.5412661656737328, -1.3531653583049774 l-0.5412661656737328, 0.6765826791524887 -4.60076242685318, 11.231273412704468 l-1.0825323313474655, 0.9472157806158066 -0.6765826791524887, 0.4059496149420738 l-2.706330716609955, 0.1353165414184332 -6.901143789291382, -1.0825323313474655 l-0.9472157806158066, 6.089244484901428 -0.2706330828368664, 0.8118992298841476 l-0.6765826791524887, 0.4059496149420738 -3.2475969195365906, -2.706330716609955 l-0.2706330828368664, -4.059496223926544 -9.20152485370636, 0.2706330828368664 l-0.5412661656737328, 0.6765826791524887 -0.6765826791524887, 3.1122803688049316 l-0.6765826791524887, 0.4059496149420738 -1.4884819090366364, 0.0 l-2.571014165878296, -1.6237984597682953 -0.4059496149420738, -0.6765826791524887 l0.1353165414184332, -2.30038121342659 -2.8416472673416138, -2.165064662694931 l-1.0825323313474655, -0.2706330828368664 -2.435697764158249, 1.4884819090366364 l-5.006712079048157, -1.2178488820791245 0.4059496149420738, 1.0825323313474655 l-0.1353165414184332, 2.435697764158249 -2.706330716609955, 5.006712079048157 l-1.0825323313474655, 0.4059496149420738 -3.3829134702682495, -1.2178488820791245 l-2.571014165878296, -4.330129325389862 -2.165064662694931, -14.072920083999634 l4.059496223926544, -13.937603235244751 7.307093143463135, -4.60076242685318 l8.254309296607971, 0.5412661656737328 3.3829134702682495, 2.9769638180732727 " fill="none" stroke="black" stroke-width="1" /></svg>