<?xml version="1.0" encoding="utf-8" ?>
<svg baseProfile="full" height="71.56902528367937" version="1.1" width="65.8857312053442" xmlns="http://www.w3.org/2000/svg" xmlns:ev="http://www.w3.org/2001/xml-events" xmlns:xlink="http://www.w3.org/1999/xlink"><defs /><rect fill="white" height="71.56902528367937" width="65.8857312053442" x="0" y="0" /><path d="M25.43279773555696, 26.10937918536365 m-7.442409992218018, 0.0 l-1.8944315612316132, 0.4059496149420738 -3.9241796731948853, 2.435697764158249 l-3.5182300209999084, 3.9241796731948853 -2.571014165878296, 4.736078977584839 l-0.9472157806158066, 3.7888631224632263 -0.1353165414184332, 10.55469036102295 l1.0825323313474655, 2.435697764158249 3.7888631224632263, 3.6535465717315674 l16.237984895706177, 6.359877586364746 5.6832945346832275, 1.0825323313474655 l10.419373512268066, 1.0825323313474655 6.089244484901428, 0.0 l2.435697764158249, -0.5412661656737328 1.2178488820791245, -0.8118992298841476 l4.60076242685318, -6.495193839073181 3.5182300209999084, -11.366589069366455 l0.8118992298841476, -4.736078977584839 0.0, -3.7888631224632263 l-1.2178488820791245, -2.8416472673416138 -2.706330716609955, -2.571014165878296 l-10.55469036102295, -5.953927636146545 -4.330129325389862, -1.7591150104999542 l-6.765826940536499, -1.3531653583049774 -5.006712079048157, 0.0 l-6.495193839073181, 1.3531653583049774 m7.1717768907547, -1.7591150104999542 l-2.30038121342659, -0.6765826791524887 -3.5182300209999084, -6.224560737609863 l-0.2706330828368664, -2.30038121342659 0.9472157806158066, -1.7591150104999542 l4.736078977584839, -2.8416472673416138 5.277345180511475, -2.029748111963272 l7.307093143463135, -0.1353165414184332 2.165064662694931, 1.3531653583049774 l1.6237984597682953, 1.6237984597682953 1.2178488820791245, 3.6535465717315674 l-0.1353165414184332, 2.706330716609955 -1.3531653583049774, 4.465445876121521 l-1.2178488820791245, 1.4884819090366364 -2.8416472673416138, 1.3531653583049774 l-2.029748111963272, 0.2706330828368664 m-13.66697072982788, -13.125704526901245 l-5.6832945346832275, -0.2706330828368664 -1.8944315612316132, -2.029748111963272 l0.1353165414184332, -2.30038121342659 1.8944315612316132, -1.7591150104999542 l4.059496223926544, -0.4059496149420738 2.029748111963272, 2.029748111963272 l0.4059496149420738, 2.30038121342659 0.9472157806158066, 0.4059496149420738 m16.237984895706177, -0.6765826791524887 l10.013424158096313, -1.8944315612316132 2.571014165878296, 0.0 l0.4059496149420738, 0.6765826791524887 0.1353165414184332, 3.3829134702682495 l-0.4059496149420738, 0.6765826791524887 -2.571014165878296, 1.6237984597682953 l-7.307093143463135, 1.6237984597682953 -0.9472157806158066, 1.3531653583049774 " fill="none" stroke="black" stroke-width="1" /></svg>