<?xml version="1.0" encoding="utf-8" ?>
<svg baseProfile="full" height="70.3511762060225" version="1.1" width="47.076734052971005" xmlns="http://www.w3.org/2000/svg" xmlns:ev="http://www.w3.org/2001/xml-events" xmlns:xlink="http://www.w3.org/1999/xlink"><defs /><rect fill="white" height="70.3511762060225" width="47.076734052971005" x="0" y="0" /><path d="M30.439511463046074, 7.3003812320530415 m-3.2475969195365906, 0.2706330828368664 l-4.871395528316498, 3.3829134702682495 -2.9769638180732727, 3.3829134702682495 l-1.2178488820791245, 2.9769638180732727 0.5412661656737328, 4.60076242685318 l1.3531653583049774, 2.706330716609955 1.8944315612316132, 2.165064662694931 l2.8416472673416138, 1.6237984597682953 3.9241796731948853, 0.1353165414184332 l4.194812774658203, -1.8944315612316132 3.9241796731948853, -2.706330716609955 l2.30038121342659, -3.9241796731948853 0.2706330828368664, -3.2475969195365906 l-2.165064662694931, -5.006712079048157 -3.5182300209999084, -3.9241796731948853 l-2.165064662694931, -1.2178488820791245 -2.029748111963272, 0.0 l-1.0825323313474655, 0.9472157806158066 m-7.307093143463135, 6.359877586364746 l-0.4059496149420738, -0.8118992298841476 0.1353165414184332, -4.871395528316498 l1.8944315612316132, -2.029748111963272 2.435697764158249, -1.0825323313474655 l2.029748111963272, -0.1353165414184332 5.006712079048157, 2.571014165878296 m1.7591150104999542, 0.5412661656737328 l0.6765826791524887, -0.6765826791524887 2.029748111963272, -0.6765826791524887 l4.194812774658203, -0.5412661656737328 1.2178488820791245, 2.435697764158249 l0.0, 1.8944315612316132 -0.6765826791524887, 3.1122803688049316 l-1.4884819090366364, 2.30038121342659 m-10.690007209777832, 1.0825323313474655 l-2.029748111963272, -0.2706330828368664 -1.0825323313474655, 0.9472157806158066 l-1.0825323313474655, 2.571014165878296 -0.1353165414184332, 3.2475969195365906 l5.142028331756592, -0.1353165414184332 1.2178488820791245, -1.3531653583049774 l0.4059496149420738, -1.7591150104999542 -0.4059496149420738, -4.194812774658203 l-1.3531653583049774, -0.2706330828368664 -1.2178488820791245, 0.8118992298841476 m-1.4884819090366364, -6.630510687828064 l-0.2706330828368664, 2.571014165878296 m5.953927636146545, -2.165064662694931 l0.4059496149420738, 0.8118992298841476 -0.1353165414184332, 2.435697764158249 m-13.802287578582764, 13.396337032318115 l0.0, 0.0 m0.1353165414184332, -1.0825323313474655 l0.0, 0.0 m1.2178488820791245, -0.1353165414184332 l-2.8416472673416138, 4.60076242685318 -6.089244484901428, 8.118992447853088 l-1.8944315612316132, 3.3829134702682495 -3.3829134702682495, 8.118992447853088 l-0.4059496149420738, 5.277345180511475 0.8118992298841476, 3.1122803688049316 l3.5182300209999084, 4.059496223926544 5.142028331756592, 2.30038121342659 l2.435697764158249, 0.5412661656737328 4.736078977584839, 0.0 l5.006712079048157, -0.9472157806158066 3.5182300209999084, -1.8944315612316132 l4.465445876121521, -3.6535465717315674 1.2178488820791245, -1.3531653583049774 l1.7591150104999542, -3.2475969195365906 1.3531653583049774, -5.277345180511475 l1.3531653583049774, -8.389625549316406 -9.607474207878113, -15.020135641098022 m-23.409762382507324, 32.881920337677 l-0.8118992298841476, 0.5412661656737328 -2.571014165878296, 6.224560737609863 " fill="none" stroke="black" stroke-width="1" /></svg>