<?xml version="1.0" encoding="utf-8" ?>
<svg baseProfile="full" height="89.16017500683665" version="1.1" width="66.83294844813645" xmlns="http://www.w3.org/2000/svg" xmlns:ev="http://www.w3.org/2001/xml-events" xmlns:xlink="http://www.w3.org/1999/xlink"><defs /><rect fill="white" height="89.16017500683665" width="66.83294844813645" x="0" y="0" /><path d="M43.42989690601826, 14.066208070144057 m-1.8944315612316132, -2.165064662694931 l-3.6535465717315674, -2.165064662694931 -1.8944315612316132, -0.5412661656737328 l-3.3829134702682495, -0.4059496149420738 -5.953927636146545, 0.4059496149420738 l-5.41266143321991, 2.30038121342659 -5.81861138343811, 4.736078977584839 l-2.8416472673416138, 3.7888631224632263 -3.3829134702682495, 5.953927636146545 l-0.8118992298841476, 4.465445876121521 0.0, 4.871395528316498 l0.6765826791524887, 3.2475969195365906 1.0825323313474655, 2.029748111963272 l2.029748111963272, 2.30038121342659 3.2475969195365906, 2.435697764158249 l7.307093143463135, 2.706330716609955 5.6832945346832275, 0.1353165414184332 l2.706330716609955, -0.5412661656737328 5.953927636146545, -2.30038121342659 l3.2475969195365906, -2.30038121342659 4.194812774658203, -4.330129325389862 l1.7591150104999542, -3.2475969195365906 0.8118992298841476, -3.7888631224632263 l0.0, -2.029748111963272 -0.9472157806158066, -8.389625549316406 l-2.571014165878296, -5.41266143321991 -1.4884819090366364, -1.2178488820791245 m-28.010523319244385, 4.871395528316498 l-4.330129325389862, 0.4059496149420738 -3.2475969195365906, -0.8118992298841476 l-1.4884819090366364, -2.165064662694931 0.0, -4.871395528316498 l1.6237984597682953, -2.029748111963272 2.029748111963272, -1.4884819090366364 l4.330129325389862, -1.2178488820791245 3.7888631224632263, 0.8118992298841476 l2.706330716609955, 3.3829134702682495 m23.003811836242676, 1.8944315612316132 l-0.5412661656737328, -1.4884819090366364 0.0, -1.6237984597682953 l1.0825323313474655, -2.8416472673416138 1.4884819090366364, -1.6237984597682953 l1.3531653583049774, -0.5412661656737328 1.0825323313474655, -0.2706330828368664 l2.30038121342659, 0.4059496149420738 2.165064662694931, 3.5182300209999084 l0.1353165414184332, 1.2178488820791245 -0.5412661656737328, 3.1122803688049316 l-1.6237984597682953, 2.706330716609955 -2.8416472673416138, 1.0825323313474655 m-28.957738876342773, 31.122803688049316 l-2.9769638180732727, -0.2706330828368664 -2.435697764158249, 0.4059496149420738 l-2.8416472673416138, 1.4884819090366364 -2.571014165878296, 3.3829134702682495 l-1.2178488820791245, 3.6535465717315674 -0.5412661656737328, 7.307093143463135 l0.2706330828368664, 3.2475969195365906 0.8118992298841476, 2.30038121342659 l2.165064662694931, 4.059496223926544 2.706330716609955, 3.3829134702682495 l2.8416472673416138, 2.9769638180732727 4.194812774658203, 2.706330716609955 l4.194812774658203, 0.9472157806158066 5.006712079048157, 0.4059496149420738 l5.277345180511475, -0.8118992298841476 5.953927636146545, -3.5182300209999084 l4.60076242685318, -4.736078977584839 2.706330716609955, -3.5182300209999084 l3.6535465717315674, -7.307093143463135 1.6237984597682953, -5.6832945346832275 l0.0, -5.81861138343811 -2.30038121342659, -7.036460041999817 l-3.1122803688049316, -4.330129325389862 -1.8944315612316132, -1.4884819090366364 l-3.1122803688049316, -0.9472157806158066 -1.6237984597682953, 0.2706330828368664 m20.16216516494751, -6.359877586364746 l-2.571014165878296, 0.0 -2.029748111963272, 0.6765826791524887 l-2.9769638180732727, 2.706330716609955 -1.6237984597682953, 2.435697764158249 l-0.9472157806158066, 2.571014165878296 0.0, 2.706330716609955 l1.4884819090366364, 2.9769638180732727 2.706330716609955, 1.2178488820791245 l3.3829134702682495, -0.5412661656737328 3.1122803688049316, -2.8416472673416138 l1.6237984597682953, -2.435697764158249 0.5412661656737328, -2.029748111963272 l0.0, -3.7888631224632263 -0.4059496149420738, -1.2178488820791245 l-1.6237984597682953, -1.7591150104999542 -0.8118992298841476, -0.2706330828368664 m1.6237984597682953, -7.577726244926453 l-1.0825323313474655, 2.8416472673416138 " fill="none" stroke="black" stroke-width="1" /></svg>