<?xml version="1.0" encoding="utf-8" ?>
<svg baseProfile="full" height="35.43950915336609" version="1.1" width="38.9577392488718" xmlns="http://www.w3.org/2000/svg" xmlns:ev="http://www.w3.org/2001/xml-events" xmlns:xlink="http://www.w3.org/1999/xlink"><defs /><rect fill="white" height="35.43950915336609" width="38.9577392488718" x="0" y="0" /><path d="M22.861783066764474, 11.495193466544151 m-4.736078977584839, -0.6765826791524887 l-1.7591150104999542, 0.9472157806158066 -1.4884819090366364, 2.435697764158249 l-1.6237984597682953, 5.81861138343811 0.1353165414184332, 5.6832945346832275 l1.2178488820791245, 2.30038121342659 1.6237984597682953, 1.7591150104999542 l1.8944315612316132, 0.6765826791524887 2.706330716609955, 0.0 l2.571014165878296, -0.9472157806158066 2.30038121342659, -1.6237984597682953 l1.6237984597682953, -1.7591150104999542 1.0825323313474655, -1.6237984597682953 l0.8118992298841476, -4.194812774658203 -0.1353165414184332, -5.142028331756592 l-0.5412661656737328, -0.9472157806158066 -2.165064662694931, -1.3531653583049774 l-5.142028331756592, -0.8118992298841476 m3.6535465717315674, 0.5412661656737328 l0.5412661656737328, -3.6535465717315674 1.4884819090366364, -2.8416472673416138 l1.4884819090366364, -0.9472157806158066 3.5182300209999084, 0.0 l0.9472157806158066, 0.5412661656737328 0.9472157806158066, 1.3531653583049774 l0.1353165414184332, 3.3829134702682495 -1.8944315612316132, 3.1122803688049316 l-3.1122803688049316, 1.8944315612316132 m-11.90785527229309, -5.142028331756592 l-3.9241796731948853, -4.059496223926544 -2.029748111963272, -1.2178488820791245 l-2.30038121342659, 0.0 -2.706330716609955, 2.9769638180732727 l-1.0825323313474655, 2.706330716609955 0.0, 2.706330716609955 l0.5412661656737328, 1.0825323313474655 2.029748111963272, 1.4884819090366364 l1.3531653583049774, 0.4059496149420738 3.7888631224632263, 0.0 m3.1122803688049316, -0.4059496149420738 " fill="none" stroke="black" stroke-width="1" /></svg>