<?xml version="1.0" encoding="utf-8" ?>
<svg baseProfile="full" height="47.482681423425674" version="1.1" width="30.974063649773598" xmlns="http://www.w3.org/2000/svg" xmlns:ev="http://www.w3.org/2001/xml-events" xmlns:xlink="http://www.w3.org/1999/xlink"><defs /><rect fill="white" height="47.482681423425674" width="30.974063649773598" x="0" y="0" /><path d="M17.719754800200462, 42.48268121853471 m-4.465445876121521, 0.0 l-3.7888631224632263, -1.0825323313474655 -2.30038121342659, -2.706330716609955 l-1.3531653583049774, -2.9769638180732727 -0.8118992298841476, -6.765826940536499 l0.4059496149420738, -4.60076242685318 3.7888631224632263, -3.7888631224632263 l1.7591150104999542, -0.6765826791524887 5.006712079048157, 0.0 l1.4884819090366364, 0.6765826791524887 3.2475969195365906, 2.8416472673416138 l1.8944315612316132, 2.9769638180732727 2.8416472673416138, 6.359877586364746 l0.5412661656737328, 8.118992447853088 -2.165064662694931, 1.3531653583049774 l-5.6832945346832275, 0.2706330828368664 -4.60076242685318, -2.165064662694931 l-1.6237984597682953, -1.4884819090366364 m-2.8416472673416138, -19.35026526451111 l-0.8118992298841476, -3.7888631224632263 0.0, -3.3829134702682495 l1.4884819090366364, -1.4884819090366364 1.3531653583049774, -0.5412661656737328 l1.6237984597682953, 0.4059496149420738 1.8944315612316132, 1.4884819090366364 l0.5412661656737328, 1.6237984597682953 -0.1353165414184332, 5.277345180511475 l-0.9472157806158066, 2.029748111963272 -2.029748111963272, 0.8118992298841476 l-1.7591150104999542, 0.0 -1.4884819090366364, -1.4884819090366364 m-1.6237984597682953, -8.930891752243042 l-2.165064662694931, -2.9769638180732727 0.2706330828368664, -2.8416472673416138 l1.6237984597682953, -0.6765826791524887 1.4884819090366364, 0.0 l0.5412661656737328, 0.9472157806158066 0.0, 3.5182300209999084 l-0.4059496149420738, 0.5412661656737328 m5.41266143321991, -0.2706330828368664 l-0.5412661656737328, -0.8118992298841476 -0.1353165414184332, -1.3531653583049774 l1.6237984597682953, -0.8118992298841476 2.165064662694931, 0.1353165414184332 l0.6765826791524887, 0.4059496149420738 0.6765826791524887, 1.7591150104999542 l0.0, 1.6237984597682953 -1.0825323313474655, 0.8118992298841476 l-3.3829134702682495, 0.1353165414184332 m-3.7888631224632263, 1.6237984597682953 l0.1353165414184332, 0.0 m3.5182300209999084, 0.2706330828368664 l0.0, 0.0 m-0.5412661656737328, -0.8118992298841476 l0.0, 0.0 m-0.5412661656737328, -0.6765826791524887 l0.0, 0.0 m-0.4059496149420738, 1.6237984597682953 l0.0, 0.0 m0.2706330828368664, -0.8118992298841476 l0.0, 0.0 m-0.1353165414184332, 0.1353165414184332 l0.0, 0.0 " fill="none" stroke="black" stroke-width="1" /></svg>