<?xml version="1.0" encoding="utf-8" ?>
<svg baseProfile="full" height="69.94522823020816" version="1.1" width="85.77726364135742" xmlns="http://www.w3.org/2000/svg" xmlns:ev="http://www.w3.org/2001/xml-events" xmlns:xlink="http://www.w3.org/1999/xlink"><defs /><rect fill="white" height="69.94522823020816" width="85.77726364135742" x="0" y="0" /><path d="M19.749503768980503, 13.524941867217422 m2.9769638180732727, -2.706330716609955 l1.6237984597682953, -0.8118992298841476 10.55469036102295, -3.3829134702682495 l9.742791056632996, -1.4884819090366364 5.277345180511475, -0.1353165414184332 l5.5479782819747925, 0.2706330828368664 5.41266143321991, 1.3531653583049774 l5.6832945346832275, 2.706330716609955 4.871395528316498, 3.5182300209999084 l4.194812774658203, 3.7888631224632263 2.9769638180732727, 3.6535465717315674 l1.7591150104999542, 3.5182300209999084 0.4059496149420738, 6.901143789291382 l-2.029748111963272, 3.5182300209999084 -3.1122803688049316, 3.3829134702682495 l-4.60076242685318, 2.9769638180732727 -5.81861138343811, 2.029748111963272 l-6.359877586364746, 1.6237984597682953 -6.901143789291382, 0.6765826791524887 l-13.66697072982788, 0.2706330828368664 -6.359877586364746, -0.9472157806158066 l-6.765826940536499, -2.165064662694931 -6.089244484901428, -3.5182300209999084 l-5.277345180511475, -3.7888631224632263 -4.465445876121521, -4.059496223926544 l-2.8416472673416138, -4.330129325389862 -1.4884819090366364, -3.6535465717315674 l0.0, -2.8416472673416138 1.0825323313474655, -3.1122803688049316 l2.30038121342659, -2.30038121342659 3.2475969195365906, -1.7591150104999542 l3.6535465717315674, -1.0825323313474655 5.142028331756592, -0.2706330828368664 m45.46635627746582, 30.852172374725342 l-0.6765826791524887, 0.6765826791524887 -0.9472157806158066, 2.9769638180732727 l0.0, 5.142028331756592 0.9472157806158066, 6.765826940536499 l0.1353165414184332, 6.495193839073181 -0.6765826791524887, 0.6765826791524887 l-0.6765826791524887, -0.2706330828368664 -1.3531653583049774, -4.059496223926544 l-0.2706330828368664, -2.571014165878296 0.1353165414184332, -5.6832945346832275 l0.9472157806158066, -2.435697764158249 3.1122803688049316, -3.6535465717315674 l5.41266143321991, -3.7888631224632263 1.2178488820791245, -0.2706330828368664 l1.7591150104999542, 0.0 0.8118992298841476, 0.9472157806158066 l1.3531653583049774, 4.330129325389862 0.4059496149420738, 13.125704526901245 l-0.8118992298841476, 3.1122803688049316 -0.6765826791524887, 0.8118992298841476 l-0.6765826791524887, 0.0 m-31.664071083068848, -21.921279430389404 l0.5412661656737328, 1.8944315612316132 0.6765826791524887, 9.066208004951477 l-0.2706330828368664, 8.524942398071289 -0.9472157806158066, -1.7591150104999542 l-0.9472157806158066, -7.1717768907547 0.0, -9.20152485370636 l1.2178488820791245, -1.3531653583049774 1.2178488820791245, -0.5412661656737328 l2.029748111963272, 0.0 4.059496223926544, 0.9472157806158066 l1.7591150104999542, 0.9472157806158066 2.435697764158249, 2.435697764158249 l1.8944315612316132, 2.706330716609955 1.2178488820791245, 2.706330716609955 l0.6765826791524887, 2.435697764158249 0.1353165414184332, 4.871395528316498 l-0.4059496149420738, 2.165064662694931 -2.029748111963272, 3.6535465717315674 m-31.122803688049316, -24.086344242095947 l-0.6765826791524887, 0.2706330828368664 -0.4059496149420738, 1.3531653583049774 l0.0, 14.478869438171387 -0.5412661656737328, 4.194812774658203 l-0.6765826791524887, 2.706330716609955 -0.5412661656737328, 0.6765826791524887 l-0.5412661656737328, -1.6237984597682953 -0.1353165414184332, -2.8416472673416138 l0.1353165414184332, -3.3829134702682495 0.6765826791524887, -3.2475969195365906 l2.029748111963272, -5.277345180511475 1.4884819090366364, -1.6237984597682953 l1.6237984597682953, -0.9472157806158066 2.9769638180732727, -0.2706330828368664 l1.6237984597682953, 0.6765826791524887 2.165064662694931, 2.9769638180732727 l1.0825323313474655, 5.5479782819747925 0.1353165414184332, 6.765826940536499 " fill="none" stroke="black" stroke-width="1" /></svg>