<?xml version="1.0" encoding="utf-8" ?>
<svg baseProfile="full" height="75.49320510588586" version="1.1" width="55.331040173769" xmlns="http://www.w3.org/2000/svg" xmlns:ev="http://www.w3.org/2001/xml-events" xmlns:xlink="http://www.w3.org/1999/xlink"><defs /><rect fill="white" height="75.49320510588586" width="55.331040173769" x="0" y="0" /><path d="M42.34736455604434, 19.614186258986592 m-5.953927636146545, 0.1353165414184332 l-3.6535465717315674, -1.7591150104999542 -3.9241796731948853, -3.1122803688049316 l-0.9472157806158066, -2.165064662694931 -2.706330716609955, -3.1122803688049316 l-0.9472157806158066, -1.7591150104999542 -2.8416472673416138, -2.435697764158249 l-1.3531653583049774, -0.4059496149420738 -2.029748111963272, 0.1353165414184332 l-1.6237984597682953, 2.029748111963272 -0.1353165414184332, 1.2178488820791245 l-0.5412661656737328, 0.1353165414184332 -0.8118992298841476, -0.8118992298841476 l-2.029748111963272, -0.5412661656737328 -2.8416472673416138, -0.1353165414184332 l-0.5412661656737328, 0.4059496149420738 -0.1353165414184332, 3.5182300209999084 l0.4059496149420738, 0.8118992298841476 1.3531653583049774, 0.8118992298841476 l2.029748111963272, 0.4059496149420738 -3.5182300209999084, -1.2178488820791245 l-2.8416472673416138, 0.0 -1.3531653583049774, 1.7591150104999542 l-0.4059496149420738, 3.5182300209999084 0.8118992298841476, 1.2178488820791245 l2.8416472673416138, 1.6237984597682953 4.736078977584839, 0.9472157806158066 l3.9241796731948853, 0.0 3.6535465717315674, 2.165064662694931 l3.9241796731948853, 1.3531653583049774 0.5412661656737328, 0.5412661656737328 l3.1122803688049316, 0.8118992298841476 9.87810730934143, 0.9472157806158066 l2.706330716609955, 0.5412661656737328 3.1122803688049316, 1.6237984597682953 l0.5412661656737328, 1.3531653583049774 0.4059496149420738, 4.736078977584839 l0.0, 5.953927636146545 -0.5412661656737328, 2.029748111963272 l-0.1353165414184332, 2.8416472673416138 -2.8416472673416138, 8.254309296607971 l-0.8118992298841476, 0.9472157806158066 -0.9472157806158066, 3.1122803688049316 l-4.871395528316498, 10.82532286643982 0.1353165414184332, 1.2178488820791245 l1.3531653583049774, 0.4059496149420738 10.82532286643982, 0.0 l1.3531653583049774, -1.7591150104999542 0.0, -8.930891752243042 l1.6237984597682953, -3.6535465717315674 " fill="none" stroke="black" stroke-width="1" /></svg>