<?xml version="1.0" encoding="utf-8" ?>
<svg baseProfile="full" height="82.12371494621038" version="1.1" width="66.83294648304582" xmlns="http://www.w3.org/2000/svg" xmlns:ev="http://www.w3.org/2001/xml-events" xmlns:xlink="http://www.w3.org/1999/xlink"><defs /><rect fill="white" height="82.12371494621038" width="66.83294648304582" x="0" y="0" /><path d="M46.136228274554014, 17.584438072517514 m-1.4884819090366364, -1.8944315612316132 l-1.7591150104999542, -1.0825323313474655 -2.706330716609955, -0.2706330828368664 l-4.871395528316498, 2.165064662694931 -5.006712079048157, 4.736078977584839 l-4.194812774658203, 5.81861138343811 -1.4884819090366364, 5.277345180511475 l0.2706330828368664, 3.9241796731948853 4.059496223926544, 1.6237984597682953 l6.359877586364746, -1.6237984597682953 6.359877586364746, -4.194812774658203 l5.006712079048157, -5.006712079048157 3.1122803688049316, -4.194812774658203 l0.6765826791524887, -2.571014165878296 -1.0825323313474655, -1.7591150104999542 l-3.3829134702682495, -0.9472157806158066 -6.765826940536499, 0.1353165414184332 l-1.4884819090366364, 1.4884819090366364 m-9.742791056632996, 0.0 l-0.2706330828368664, -2.30038121342659 2.435697764158249, -5.5479782819747925 l2.165064662694931, -2.9769638180732727 2.165064662694931, -2.029748111963272 l1.7591150104999542, -1.0825323313474655 1.4884819090366364, -0.2706330828368664 l0.9472157806158066, 0.5412661656737328 0.8118992298841476, 1.7591150104999542 l0.4059496149420738, 6.359877586364746 -0.8118992298841476, 2.30038121342659 l-0.2706330828368664, -1.4884819090366364 2.30038121342659, -3.7888631224632263 l1.8944315612316132, -1.8944315612316132 2.8416472673416138, -1.6237984597682953 l2.9769638180732727, -1.2178488820791245 5.142028331756592, -0.2706330828368664 l1.6237984597682953, 0.8118992298841476 0.8118992298841476, 1.3531653583049774 l0.1353165414184332, 3.2475969195365906 -1.4884819090366364, 2.165064662694931 l-2.706330716609955, 2.029748111963272 -2.9769638180732727, 1.4884819090366364 l-4.60076242685318, 1.2178488820791245 -0.6765826791524887, 0.0 l0.9472157806158066, -0.5412661656737328 m-10.55469036102295, 4.736078977584839 l-0.6765826791524887, 0.6765826791524887 -0.8118992298841476, 2.9769638180732727 l-0.1353165414184332, 2.706330716609955 0.9472157806158066, 0.2706330828368664 l1.8944315612316132, 0.0 1.7591150104999542, -1.4884819090366364 l1.0825323313474655, -1.6237984597682953 0.4059496149420738, -1.4884819090366364 l-0.1353165414184332, -1.0825323313474655 -3.5182300209999084, -0.8118992298841476 m9.336841106414795, -1.7591150104999542 l-4.60076242685318, 1.0825323313474655 -2.165064662694931, 1.7591150104999542 l-0.2706330828368664, 2.165064662694931 3.9241796731948853, 0.9472157806158066 l2.165064662694931, -0.4059496149420738 1.4884819090366364, -1.0825323313474655 l0.8118992298841476, -2.571014165878296 -0.9472157806158066, -1.2178488820791245 l-1.6237984597682953, -0.8118992298841476 -1.3531653583049774, -0.1353165414184332 m-13.261021375656128, 15.561401844024658 l-1.0825323313474655, 1.0825323313474655 -2.571014165878296, 5.006712079048157 l-2.9769638180732727, 7.8483593463897705 -0.8118992298841476, 4.059496223926544 l-0.1353165414184332, 3.9241796731948853 0.2706330828368664, 3.3829134702682495 l1.6237984597682953, 2.8416472673416138 2.029748111963272, 1.4884819090366364 l3.2475969195365906, 0.2706330828368664 3.3829134702682495, -0.5412661656737328 l6.089244484901428, -4.465445876121521 2.435697764158249, -2.9769638180732727 l1.7591150104999542, -3.6535465717315674 0.9472157806158066, -4.194812774658203 l0.2706330828368664, -3.6535465717315674 -0.2706330828368664, -3.3829134702682495 l-1.8944315612316132, -2.435697764158249 -2.706330716609955, -1.6237984597682953 l-3.3829134702682495, -0.6765826791524887 -6.089244484901428, 0.0 l-3.2475969195365906, 1.6237984597682953 -0.2706330828368664, 0.8118992298841476 l0.9472157806158066, 0.6765826791524887 m12.990387678146362, 5.41266143321991 l-0.2706330828368664, -1.0825323313474655 0.6765826791524887, -1.4884819090366364 l6.765826940536499, -7.577726244926453 6.089244484901428, -4.736078977584839 l4.736078977584839, -1.7591150104999542 3.1122803688049316, 0.1353165414184332 l0.9472157806158066, 1.2178488820791245 0.4059496149420738, 1.8944315612316132 l0.0, 2.165064662694931 -0.8118992298841476, 2.571014165878296 l-2.30038121342659, 2.571014165878296 -3.3829134702682495, 2.571014165878296 l-3.6535465717315674, 2.029748111963272 -6.630510687828064, 2.706330716609955 l-3.6535465717315674, 0.4059496149420738 0.0, -1.8944315612316132 m-20.70343017578125, -4.330129325389862 l1.4884819090366364, -3.7888631224632263 0.2706330828368664, -4.465445876121521 l-1.2178488820791245, -2.029748111963272 -2.571014165878296, -1.3531653583049774 l-3.3829134702682495, -0.4059496149420738 -3.6535465717315674, 0.2706330828368664 l-3.3829134702682495, 1.8944315612316132 -2.30038121342659, 2.706330716609955 l-0.9472157806158066, 2.571014165878296 0.1353165414184332, 3.3829134702682495 l2.30038121342659, 2.9769638180732727 3.9241796731948853, 2.706330716609955 l4.194812774658203, 2.165064662694931 7.983676195144653, 2.9769638180732727 l4.059496223926544, 2.30038121342659 0.6765826791524887, 1.2178488820791245 m18.267732858657837, 5.6832945346832275 l-6.630510687828064, -0.8118992298841476 0.5412661656737328, 1.7591150104999542 l4.736078977584839, 6.089244484901428 0.9472157806158066, 1.7591150104999542 l0.2706330828368664, 1.7591150104999542 0.0, 1.7591150104999542 l-1.3531653583049774, 1.6237984597682953 -4.871395528316498, 2.30038121342659 " fill="none" stroke="black" stroke-width="1" /></svg>