<?xml version="1.0" encoding="utf-8" ?>
<svg baseProfile="full" height="57.49610498547554" version="1.1" width="77.52295486629009" xmlns="http://www.w3.org/2000/svg" xmlns:ev="http://www.w3.org/2001/xml-events" xmlns:xlink="http://www.w3.org/1999/xlink"><defs /><rect fill="white" height="57.49610498547554" width="77.52295486629009" x="0" y="0" /><path d="M61.697631292045116, 22.320516537874937 m2.30038121342659, 0.9472157806158066 l2.435697764158249, 2.435697764158249 3.1122803688049316, 4.330129325389862 l1.4884819090366364, 3.6535465717315674 0.4059496149420738, 4.736078977584839 l-2.029748111963272, 3.6535465717315674 -2.8416472673416138, 3.5182300209999084 l-2.30038121342659, 1.7591150104999542 -3.3829134702682495, 1.6237984597682953 l-3.2475969195365906, 0.9472157806158066 -7.577726244926453, 0.2706330828368664 l-10.148741006851196, -1.0825323313474655 -7.1717768907547, 2.9769638180732727 l-5.6832945346832275, 0.4059496149420738 -9.742791056632996, -1.3531653583049774 l-8.254309296607971, -2.571014165878296 -1.6237984597682953, -1.3531653583049774 l-1.7591150104999542, -3.9241796731948853 -0.6765826791524887, -5.6832945346832275 l1.2178488820791245, -4.736078977584839 2.9769638180732727, -2.706330716609955 l7.8483593463897705, -4.194812774658203 1.7591150104999542, -2.435697764158249 l0.1353165414184332, -2.706330716609955 m7.036460041999817, -9.87810730934143 l-12.855072021484375, -5.953927636146545 -2.9769638180732727, 1.8944315612316132 l-1.0825323313474655, 1.3531653583049774 -0.9472157806158066, 1.4884819090366364 l-1.2178488820791245, 4.194812774658203 -0.1353165414184332, 7.8483593463897705 l1.7591150104999542, 10.419373512268066 0.6765826791524887, 1.3531653583049774 l0.9472157806158066, -0.2706330828368664 m46.95484161376953, -20.026848316192627 l7.307093143463135, -4.60076242685318 3.5182300209999084, -0.5412661656737328 l1.7591150104999542, 0.6765826791524887 2.029748111963272, 2.571014165878296 l0.8118992298841476, 3.9241796731948853 -0.4059496149420738, 10.55469036102295 l-0.9472157806158066, -1.0825323313474655 m-11.231273412704468, -12.990387678146362 l-8.930891752243042, -3.9241796731948853 -8.389625549316406, -1.3531653583049774 l-7.036460041999817, -0.1353165414184332 -4.465445876121521, 0.6765826791524887 l-3.9241796731948853, 1.3531653583049774 -1.6237984597682953, 0.6765826791524887 l-4.465445876121521, 3.1122803688049316 m31.79938793182373, 11.772539615631104 l-2.706330716609955, 3.6535465717315674 1.0825323313474655, 0.2706330828368664 l1.0825323313474655, -0.1353165414184332 0.8118992298841476, -0.6765826791524887 l-0.2706330828368664, -2.165064662694931 -1.0825323313474655, -0.8118992298841476 l-1.3531653583049774, -0.2706330828368664 -2.435697764158249, 0.5412661656737328 m-19.48558211326599, -2.8416472673416138 l-5.81861138343811, 2.165064662694931 -0.1353165414184332, 2.165064662694931 l1.6237984597682953, 1.2178488820791245 1.4884819090366364, 0.0 l2.30038121342659, -1.8944315612316132 0.5412661656737328, -1.8944315612316132 l-0.6765826791524887, -0.2706330828368664 m17.7264666557312, 3.7888631224632263 l-10.960639715194702, -0.6765826791524887 -0.4059496149420738, 1.0825323313474655 l4.60076242685318, 13.396337032318115 0.6765826791524887, 0.1353165414184332 l0.9472157806158066, -1.0825323313474655 3.6535465717315674, -8.254309296607971 l1.3531653583049774, -1.8944315612316132 m-6.089244484901428, 11.63722276687622 l1.6237984597682953, 5.277345180511475 1.2178488820791245, 0.9472157806158066 l1.0825323313474655, 0.2706330828368664 1.2178488820791245, -0.9472157806158066 l0.2706330828368664, -1.2178488820791245 -0.1353165414184332, -1.2178488820791245 l-2.029748111963272, -1.6237984597682953 " fill="none" stroke="black" stroke-width="1" /></svg>