<?xml version="1.0" encoding="utf-8" ?>
<svg baseProfile="full" height="91.18992370553315" version="1.1" width="138.00945034250617" xmlns="http://www.w3.org/2000/svg" xmlns:ev="http://www.w3.org/2001/xml-events" xmlns:xlink="http://www.w3.org/1999/xlink"><defs /><rect fill="white" height="91.18992370553315" width="138.00945034250617" x="0" y="0" /><path d="M33.82242358289659, 12.577726161107421 m-1.6237984597682953, -4.059496223926544 l0.1353165414184332, -2.706330716609955 0.2706330828368664, -0.6765826791524887 l0.6765826791524887, -0.1353165414184332 10.284056663513184, 0.1353165414184332 l0.2706330828368664, 2.165064662694931 -1.7591150104999542, 4.465445876121521 m-13.937603235244751, -2.571014165878296 l-8.254309296607971, -3.1122803688049316 -1.0825323313474655, 2.8416472673416138 l-1.6237984597682953, 1.6237984597682953 1.2178488820791245, 2.029748111963272 l1.8944315612316132, 0.8118992298841476 m5.142028331756592, 0.1353165414184332 l-3.5182300209999084, 0.1353165414184332 -7.307093143463135, 5.142028331756592 l-1.4884819090366364, 1.8944315612316132 -1.8944315612316132, 4.194812774658203 l-0.1353165414184332, 1.4884819090366364 m14.072920083999634, -2.029748111963272 l0.4059496149420738, 1.3531653583049774 2.029748111963272, -0.1353165414184332 l1.3531653583049774, -1.3531653583049774 0.1353165414184332, -0.6765826791524887 l0.0, -0.6765826791524887 -1.3531653583049774, -0.5412661656737328 l-2.165064662694931, 1.3531653583049774 -0.1353165414184332, 0.6765826791524887 l1.4884819090366364, 0.2706330828368664 0.6765826791524887, -0.1353165414184332 l0.2706330828368664, -0.5412661656737328 m-16.779251098632812, 2.165064662694931 l-0.1353165414184332, 0.6765826791524887 -5.6832945346832275, 2.30038121342659 l-0.2706330828368664, 0.6765826791524887 0.2706330828368664, 1.3531653583049774 l3.6535465717315674, 6.901143789291382 2.571014165878296, 3.5182300209999084 l1.4884819090366364, 0.5412661656737328 17.997100353240967, 0.0 m12.855072021484375, -30.175588130950928 l4.736078977584839, -0.2706330828368664 1.3531653583049774, -1.4884819090366364 l4.194812774658203, -2.435697764158249 11.231273412704468, -1.3531653583049774 l7.036460041999817, 0.1353165414184332 7.577726244926453, -0.6765826791524887 l0.5412661656737328, 1.3531653583049774 0.6765826791524887, 0.5412661656737328 l19.07963275909424, -0.6765826791524887 -0.2706330828368664, 1.4884819090366364 l0.8118992298841476, 0.4059496149420738 11.63722276687622, 0.2706330828368664 l0.1353165414184332, 0.6765826791524887 7.983676195144653, 5.41266143321991 l-0.8118992298841476, 0.2706330828368664 -0.1353165414184332, 0.6765826791524887 l0.6765826791524887, 1.0825323313474655 7.442409992218018, 5.81861138343811 l0.5412661656737328, 0.8118992298841476 -1.6237984597682953, 0.1353165414184332 l-0.1353165414184332, 1.4884819090366364 5.006712079048157, 4.194812774658203 l-1.3531653583049774, 2.029748111963272 -0.1353165414184332, 3.6535465717315674 l0.5412661656737328, 1.4884819090366364 2.435697764158249, 3.6535465717315674 l-0.9472157806158066, 3.1122803688049316 0.0, 2.9769638180732727 m-100.40487289428711, -4.059496223926544 l0.2706330828368664, 2.571014165878296 3.7888631224632263, 12.990387678146362 l1.6237984597682953, 2.9769638180732727 1.8944315612316132, 1.6237984597682953 l11.772539615631104, 6.630510687828064 -0.8118992298841476, 2.9769638180732727 l-0.2706330828368664, 5.142028331756592 -11.63722276687622, 2.706330716609955 l-0.4059496149420738, 2.165064662694931 0.8118992298841476, 1.3531653583049774 l0.9472157806158066, 0.6765826791524887 3.3829134702682495, 0.5412661656737328 l16.779251098632812, 0.4059496149420738 11.772539615631104, 0.8118992298841476 l0.8118992298841476, -3.5182300209999084 1.7591150104999542, -3.9241796731948853 l1.3531653583049774, -5.142028331756592 6.495193839073181, 1.0825323313474655 l21.515331268310547, 0.5412661656737328 " fill="none" stroke="black" stroke-width="1" /></svg>