<?xml version="1.0" encoding="utf-8" ?>
<svg baseProfile="full" height="48.29458234831691" version="1.1" width="45.04698434844613" xmlns="http://www.w3.org/2000/svg" xmlns:ev="http://www.w3.org/2001/xml-events" xmlns:xlink="http://www.w3.org/1999/xlink"><defs /><rect fill="white" height="48.29458234831691" width="45.04698434844613" x="0" y="0" /><path d="M19.74950375035405, 43.29458234831691 m-4.330129325389862, -1.3531653583049774 l-2.8416472673416138, -2.029748111963272 -1.4884819090366364, -1.6237984597682953 l-2.435697764158249, -4.194812774658203 -1.0825323313474655, -4.736078977584839 l0.0, -5.277345180511475 2.165064662694931, -5.142028331756592 l1.4884819090366364, -2.30038121342659 2.029748111963272, -2.029748111963272 l4.736078977584839, -3.2475969195365906 5.142028331756592, -1.4884819090366364 l5.142028331756592, 0.1353165414184332 2.571014165878296, 1.0825323313474655 l4.194812774658203, 3.1122803688049316 2.9769638180732727, 4.194812774658203 l1.0825323313474655, 2.571014165878296 0.9472157806158066, 8.660258650779724 l-0.2706330828368664, 2.9769638180732727 -2.165064662694931, 5.006712079048157 l-1.3531653583049774, 1.4884819090366364 -3.5182300209999084, 1.4884819090366364 l-5.006712079048157, 0.0 -1.3531653583049774, -0.4059496149420738 m-10.690007209777832, -28.6871075630188 l-3.1122803688049316, -1.0825323313474655 -2.30038121342659, -0.1353165414184332 l-2.9769638180732727, 2.165064662694931 -1.8944315612316132, 2.8416472673416138 l-0.4059496149420738, 1.0825323313474655 0.2706330828368664, 1.2178488820791245 l1.2178488820791245, 0.6765826791524887 2.571014165878296, 0.2706330828368664 m20.568113327026367, -8.524942398071289 l0.6765826791524887, -2.30038121342659 2.571014165878296, -2.029748111963272 l4.194812774658203, -0.6765826791524887 1.6237984597682953, 1.2178488820791245 l0.6765826791524887, 2.165064662694931 0.0, 1.4884819090366364 l-2.029748111963272, 3.5182300209999084 -2.706330716609955, 2.706330716609955 m-12.58443832397461, 20.16216516494751 l-1.3531653583049774, -0.6765826791524887 -1.3531653583049774, -1.7591150104999542 l-0.6765826791524887, -2.30038121342659 0.0, -2.30038121342659 l1.3531653583049774, -2.435697764158249 2.706330716609955, -2.029748111963272 l3.9241796731948853, -0.5412661656737328 1.8944315612316132, 1.2178488820791245 l1.0825323313474655, 2.165064662694931 0.1353165414184332, 2.8416472673416138 l-0.6765826791524887, 1.7591150104999542 -2.029748111963272, 2.435697764158249 l-1.8944315612316132, 0.4059496149420738 " fill="none" stroke="black" stroke-width="1" /></svg>