<?xml version="1.0" encoding="utf-8" ?>
<svg baseProfile="full" height="41.52875340543687" version="1.1" width="63.450033627450466" xmlns="http://www.w3.org/2000/svg" xmlns:ev="http://www.w3.org/2001/xml-events" xmlns:xlink="http://www.w3.org/1999/xlink"><defs /><rect fill="white" height="41.52875340543687" width="63.450033627450466" x="0" y="0" /><path d="M21.77925180643797, 8.788862191140652 m7.307093143463135, -1.3531653583049774 l11.366589069366455, 0.0 7.036460041999817, 2.029748111963272 l3.3829134702682495, 3.1122803688049316 1.7591150104999542, 2.30038121342659 l1.8944315612316132, 5.142028331756592 1.3531653583049774, 7.7130430936813354 l2.571014165878296, 5.006712079048157 0.0, 0.6765826791524887 l-1.3531653583049774, 0.6765826791524887 -2.435697764158249, 0.8118992298841476 l-2.8416472673416138, 0.2706330828368664 -0.5412661656737328, -0.6765826791524887 l1.8944315612316132, -1.4884819090366364 0.2706330828368664, -0.8118992298841476 l-3.3829134702682495, -7.442409992218018 -0.2706330828368664, 8.524942398071289 l-0.5412661656737328, 2.30038121342659 -5.81861138343811, -1.0825323313474655 l-1.0825323313474655, -0.9472157806158066 3.9241796731948853, -3.5182300209999084 l1.0825323313474655, -2.9769638180732727 -0.6765826791524887, 0.0 l-3.7888631224632263, 2.029748111963272 -15.967352390289307, -0.1353165414184332 l-1.4884819090366364, 2.30038121342659 -1.6237984597682953, 3.7888631224632263 l-2.165064662694931, 0.5412661656737328 -1.3531653583049774, 0.9472157806158066 l-7.8483593463897705, -1.3531653583049774 2.029748111963272, -1.3531653583049774 l7.1717768907547, -1.7591150104999542 0.2706330828368664, -0.6765826791524887 m-3.5182300209999084, -4.330129325389862 l-2.571014165878296, 2.706330716609955 -4.736078977584839, 2.9769638180732727 l0.6765826791524887, 0.5412661656737328 2.30038121342659, 0.2706330828368664 l0.9472157806158066, -0.2706330828368664 m7.036460041999817, -24.898242950439453 l-0.4059496149420738, 0.0 m-0.2706330828368664, -0.1353165414184332 l0.6765826791524887, -2.8416472673416138 -0.6765826791524887, -0.4059496149420738 l-0.9472157806158066, 0.2706330828368664 -2.435697764158249, 2.30038121342659 l-0.8118992298841476, 2.029748111963272 -3.6535465717315674, 1.4884819090366364 l-1.4884819090366364, 2.706330716609955 -7.036460041999817, 3.2475969195365906 " fill="none" stroke="black" stroke-width="1" /></svg>