<?xml version="1.0" encoding="utf-8" ?>
<svg baseProfile="full" height="61.55560249462724" version="1.1" width="67.50953072682023" xmlns="http://www.w3.org/2000/svg" xmlns:ev="http://www.w3.org/2001/xml-events" xmlns:xlink="http://www.w3.org/1999/xlink"><defs /><rect fill="white" height="61.55560249462724" width="67.50953072682023" x="0" y="0" /><path d="M29.35697829350829, 16.90785531885922 m-11.63722276687622, -0.1353165414184332 l-3.5182300209999084, 1.3531653583049774 -1.4884819090366364, 1.7591150104999542 l-0.4059496149420738, 0.9472157806158066 0.0, 6.630510687828064 l2.165064662694931, 7.307093143463135 1.7591150104999542, 3.5182300209999084 l2.8416472673416138, 3.6535465717315674 7.577726244926453, 7.1717768907547 l6.359877586364746, 3.9241796731948853 3.3829134702682495, 1.0825323313474655 l4.194812774658203, 0.5412661656737328 9.742791056632996, 0.4059496149420738 l3.5182300209999084, 0.0 2.30038121342659, -0.5412661656737328 l0.9472157806158066, -0.8118992298841476 4.194812774658203, -7.1717768907547 l1.2178488820791245, -4.736078977584839 -0.6765826791524887, -2.029748111963272 l-3.2475969195365906, -4.194812774658203 -3.6535465717315674, -3.2475969195365906 l-7.577726244926453, -3.7888631224632263 -4.194812774658203, -1.6237984597682953 l-2.029748111963272, -2.8416472673416138 -4.194812774658203, -3.7888631224632263 l-5.953927636146545, -3.3829134702682495 m-20.974063873291016, 1.4884819090366364 l0.0, -5.6832945346832275 0.6765826791524887, -0.4059496149420738 l9.87810730934143, -1.8944315612316132 2.8416472673416138, 0.0 l1.3531653583049774, 0.8118992298841476 0.4059496149420738, 1.6237984597682953 l-0.5412661656737328, 2.165064662694931 -0.4059496149420738, 0.6765826791524887 l0.0, -0.6765826791524887 m0.9472157806158066, -0.1353165414184332 l0.9472157806158066, -1.7591150104999542 4.871395528316498, -4.871395528316498 l3.6535465717315674, -2.435697764158249 1.7591150104999542, -0.6765826791524887 l1.3531653583049774, -0.1353165414184332 0.8118992298841476, 0.4059496149420738 l0.2706330828368664, 3.1122803688049316 -0.9472157806158066, 13.261021375656128 m-18.538366556167603, 17.997100353240967 l-12.449121475219727, 10.82532286643982 0.4059496149420738, -1.3531653583049774 m18.944315910339355, -0.2706330828368664 l-1.3531653583049774, 0.4059496149420738 -3.6535465717315674, 2.30038121342659 l-5.6832945346832275, 4.871395528316498 0.9472157806158066, -1.6237984597682953 m17.185200452804565, -3.1122803688049316 l-2.8416472673416138, 1.6237984597682953 -0.4059496149420738, 0.6765826791524887 l0.4059496149420738, 0.6765826791524887 m-12.855072021484375, -35.31761646270752 l-7.983676195144653, 0.0 -3.3829134702682495, 0.9472157806158066 l-1.6237984597682953, 1.0825323313474655 0.0, 0.9472157806158066 l0.9472157806158066, 1.0825323313474655 1.8944315612316132, 1.6237984597682953 l1.2178488820791245, 0.4059496149420738 6.495193839073181, 1.0825323313474655 l0.4059496149420738, -1.6237984597682953 m5.277345180511475, -3.9241796731948853 l0.0, 0.1353165414184332 " fill="none" stroke="black" stroke-width="1" /></svg>