<?xml version="1.0" encoding="utf-8" ?>
<svg baseProfile="full" height="64.93851583451033" version="1.1" width="38.68710655719042" xmlns="http://www.w3.org/2000/svg" xmlns:ev="http://www.w3.org/2001/xml-events" xmlns:xlink="http://www.w3.org/1999/xlink"><defs /><rect fill="white" height="64.93851583451033" width="38.68710655719042" x="0" y="0" /><path d="M14.201524714007974, 13.930891808122396 m-2.30038121342659, -0.1353165414184332 l-1.6237984597682953, 0.8118992298841476 -3.1122803688049316, 3.2475969195365906 l-1.7591150104999542, 4.736078977584839 -0.2706330828368664, 4.871395528316498 l0.4059496149420738, 2.30038121342659 1.4884819090366364, 2.571014165878296 l1.6237984597682953, 1.4884819090366364 2.30038121342659, 1.2178488820791245 l2.8416472673416138, 0.5412661656737328 3.5182300209999084, 0.0 l2.571014165878296, -0.4059496149420738 2.706330716609955, -1.2178488820791245 l4.465445876121521, -3.3829134702682495 2.706330716609955, -3.6535465717315674 l0.8118992298841476, -2.029748111963272 0.2706330828368664, -2.435697764158249 l-0.4059496149420738, -5.006712079048157 -2.9769638180732727, -3.9241796731948853 l-1.8944315612316132, -1.2178488820791245 -1.6237984597682953, -0.6765826791524887 l-1.7591150104999542, -0.1353165414184332 -2.9769638180732727, 0.0 l-0.8118992298841476, 0.1353165414184332 -0.1353165414184332, 0.4059496149420738 m6.089244484901428, -0.4059496149420738 l-0.4059496149420738, -1.0825323313474655 3.1122803688049316, -2.435697764158249 l2.029748111963272, -0.9472157806158066 4.330129325389862, -0.6765826791524887 l0.2706330828368664, 1.6237984597682953 -0.4059496149420738, 1.3531653583049774 l-4.194812774658203, 4.736078977584839 m-23.003811836242676, 2.706330716609955 l0.0, -1.2178488820791245 -1.0825323313474655, -3.3829134702682495 l0.0, -1.8944315612316132 0.4059496149420738, -2.029748111963272 l0.9472157806158066, -1.6237984597682953 1.8944315612316132, -1.6237984597682953 l2.8416472673416138, -0.1353165414184332 0.6765826791524887, 0.4059496149420738 l0.6765826791524887, 2.30038121342659 0.2706330828368664, 4.871395528316498 l0.2706330828368664, 0.6765826791524887 0.9472157806158066, 0.0 m-0.6765826791524887, 19.48558211326599 l-0.4059496149420738, 0.8118992298841476 -0.5412661656737328, 6.089244484901428 l-1.6237984597682953, 9.87810730934143 0.0, 4.194812774658203 l0.6765826791524887, 2.165064662694931 0.6765826791524887, 1.0825323313474655 l2.435697764158249, 2.029748111963272 2.30038121342659, 0.9472157806158066 l4.059496223926544, -0.5412661656737328 2.435697764158249, -1.7591150104999542 " fill="none" stroke="black" stroke-width="1" /></svg>