<?xml version="1.0" encoding="utf-8" ?>
<svg baseProfile="full" height="50.32432917505503" version="1.1" width="30.97406366840005" xmlns="http://www.w3.org/2000/svg" xmlns:ev="http://www.w3.org/2001/xml-events" xmlns:xlink="http://www.w3.org/1999/xlink"><defs /><rect fill="white" height="50.32432917505503" width="30.97406366840005" x="0" y="0" /><path d="M16.23127273283899, 8.788864174857736 m0.0, 0.0 m0.0, 0.0 l-2.165064662694931, 1.0825323313474655 -0.8118992298841476, 0.0 l-3.5182300209999084, 2.435697764158249 -2.571014165878296, 2.9769638180732727 l-2.029748111963272, 4.465445876121521 -0.1353165414184332, 2.9769638180732727 l0.9472157806158066, 2.165064662694931 2.571014165878296, 2.571014165878296 l1.7591150104999542, 0.5412661656737328 5.142028331756592, 0.8118992298841476 l3.2475969195365906, -0.5412661656737328 6.224560737609863, -5.277345180511475 l0.5412661656737328, -2.165064662694931 0.0, -8.254309296607971 l-1.4884819090366364, -2.029748111963272 -1.4884819090366364, -0.8118992298841476 l-5.142028331756592, -0.6765826791524887 m-6.765826940536499, 16.779251098632812 l-1.3531653583049774, 2.9769638180732727 -0.5412661656737328, 2.435697764158249 l-0.2706330828368664, 10.82532286643982 1.0825323313474655, 1.8944315612316132 l0.9472157806158066, 0.5412661656737328 2.571014165878296, 0.6765826791524887 l3.3829134702682495, 0.1353165414184332 4.465445876121521, -2.9769638180732727 l2.30038121342659, -3.1122803688049316 0.4059496149420738, -1.6237984597682953 l-0.4059496149420738, -7.1717768907547 -0.9472157806158066, -2.9769638180732727 l-1.3531653583049774, -2.30038121342659 m4.330129325389862, -13.125704526901245 l0.8118992298841476, -3.1122803688049316 -0.2706330828368664, -1.2178488820791245 l-2.165064662694931, -2.30038121342659 -1.4884819090366364, -0.4059496149420738 l-3.1122803688049316, 2.9769638180732727 m-8.524942398071289, 4.465445876121521 l-0.8118992298841476, -0.1353165414184332 0.1353165414184332, -2.165064662694931 l1.6237984597682953, -2.029748111963272 3.2475969195365906, -1.4884819090366364 l0.5412661656737328, 1.6237984597682953 " fill="none" stroke="black" stroke-width="1" /></svg>