<?xml version="1.0" encoding="utf-8" ?>
<svg baseProfile="full" height="39.36368944123387" version="1.1" width="63.31471739336848" xmlns="http://www.w3.org/2000/svg" xmlns:ev="http://www.w3.org/2001/xml-events" xmlns:xlink="http://www.w3.org/1999/xlink"><defs /><rect fill="white" height="39.36368944123387" width="63.31471739336848" x="0" y="0" /><path d="M7.165064588189125, 9.059496112167835 m-1.3531653583049774, 2.435697764158249 l-0.8118992298841476, 3.6535465717315674 0.8118992298841476, 3.6535465717315674 l2.435697764158249, 0.5412661656737328 2.029748111963272, -0.6765826791524887 l3.9241796731948853, -0.4059496149420738 2.029748111963272, -1.0825323313474655 l0.2706330828368664, -1.4884819090366364 -0.9472157806158066, -2.571014165878296 l-2.9769638180732727, -1.8944315612316132 -3.3829134702682495, -1.0825323313474655 m1.8944315612316132, 9.87810730934143 l5.5479782819747925, 0.6765826791524887 5.142028331756592, 1.3531653583049774 l8.660258650779724, 0.0 9.336841106414795, 2.8416472673416138 l11.772539615631104, 1.6237984597682953 3.2475969195365906, -0.2706330828368664 l2.029748111963272, -1.3531653583049774 1.4884819090366364, -1.8944315612316132 l-0.5412661656737328, -1.0825323313474655 -2.706330716609955, -2.706330716609955 l-3.3829134702682495, -1.8944315612316132 -2.9769638180732727, -1.4884819090366364 l-14.208236932754517, -5.277345180511475 -5.5479782819747925, -1.3531653583049774 l-12.178488969802856, -1.0825323313474655 -1.8944315612316132, 1.0825323313474655 l-0.5412661656737328, 1.6237984597682953 0.2706330828368664, 0.9472157806158066 m2.571014165878296, 10.419373512268066 l-1.3531653583049774, 8.524942398071289 4.330129325389862, -0.5412661656737328 l1.3531653583049774, -3.9241796731948853 0.1353165414184332, -2.9769638180732727 m26.522042751312256, 2.029748111963272 l-0.8118992298841476, 3.2475969195365906 -0.2706330828368664, 4.871395528316498 l1.4884819090366364, 0.9472157806158066 1.2178488820791245, -0.2706330828368664 l1.8944315612316132, -1.3531653583049774 1.0825323313474655, -1.8944315612316132 l0.2706330828368664, -3.2475969195365906 -0.4059496149420738, -1.2178488820791245 m-46.27825736999512, -16.779251098632812 l-0.6765826791524887, 0.0 -0.2706330828368664, -1.0825323313474655 l0.0, -3.2475969195365906 1.7591150104999542, 0.0 l0.6765826791524887, 0.4059496149420738 1.7591150104999542, 2.9769638180732727 l0.0, 1.6237984597682953 m-2.571014165878296, -0.9472157806158066 l0.0, -2.571014165878296 0.6765826791524887, 0.4059496149420738 l0.0, 1.4884819090366364 0.8118992298841476, 0.4059496149420738 m3.2475969195365906, 1.7591150104999542 l1.6237984597682953, -5.81861138343811 0.8118992298841476, 0.0 l1.8944315612316132, 2.029748111963272 0.2706330828368664, 1.0825323313474655 l-0.4059496149420738, 2.435697764158249 -0.9472157806158066, 1.0825323313474655 " fill="none" stroke="black" stroke-width="1" /></svg>