<?xml version="1.0" encoding="utf-8" ?>
<svg baseProfile="full" height="51.81281093508005" version="1.1" width="58.037371849641204" xmlns="http://www.w3.org/2000/svg" xmlns:ev="http://www.w3.org/2001/xml-events" xmlns:xlink="http://www.w3.org/1999/xlink"><defs /><rect fill="white" height="51.81281093508005" width="58.037371849641204" x="0" y="0" /><path d="M10.00671342946589, 16.095956256613135 m-1.2178488820791245, -2.8416472673416138 l-0.1353165414184332, -3.1122803688049316 0.9472157806158066, -2.165064662694931 l3.1122803688049316, -1.8944315612316132 1.7591150104999542, -0.1353165414184332 l4.059496223926544, 1.7591150104999542 0.8118992298841476, 0.8118992298841476 l1.6237984597682953, 3.2475969195365906 0.6765826791524887, 0.4059496149420738 l12.043172121047974, 0.6765826791524887 1.3531653583049774, -0.5412661656737328 l2.8416472673416138, -3.5182300209999084 2.571014165878296, -1.7591150104999542 l6.359877586364746, -2.029748111963272 2.8416472673416138, 0.2706330828368664 l1.8944315612316132, 2.435697764158249 0.0, 3.1122803688049316 l-1.4884819090366364, 4.465445876121521 -0.2706330828368664, 2.706330716609955 l1.3531653583049774, 3.5182300209999084 0.5412661656737328, 7.307093143463135 l-0.5412661656737328, 3.1122803688049316 -0.9472157806158066, 0.2706330828368664 m-40.32433032989502, -16.237984895706177 l-1.3531653583049774, 2.435697764158249 -2.9769638180732727, 10.013424158096313 l-0.5412661656737328, 3.2475969195365906 0.1353165414184332, 5.006712079048157 l0.9472157806158066, 2.435697764158249 2.706330716609955, 2.8416472673416138 l3.6535465717315674, 2.029748111963272 4.736078977584839, 1.7591150104999542 l6.901143789291382, 1.0825323313474655 8.254309296607971, -0.2706330828368664 l14.478869438171387, -2.9769638180732727 1.3531653583049774, -1.0825323313474655 l3.5182300209999084, -5.41266143321991 1.3531653583049774, -5.41266143321991 l0.0, -0.9472157806158066 -0.5412661656737328, -0.6765826791524887 m-36.94141626358032, -8.795575499534607 l3.7888631224632263, 1.0825323313474655 2.30038121342659, 1.8944315612316132 l0.8118992298841476, 1.3531653583049774 m-4.736078977584839, -3.2475969195365906 l-0.8118992298841476, 0.9472157806158066 0.1353165414184332, 0.6765826791524887 l0.9472157806158066, 1.6237984597682953 0.9472157806158066, 0.6765826791524887 l2.165064662694931, 0.1353165414184332 1.0825323313474655, -1.0825323313474655 m12.449121475219727, 0.5412661656737328 l0.9472157806158066, -2.30038121342659 2.165064662694931, -2.706330716609955 l2.8416472673416138, -0.8118992298841476 0.9472157806158066, 0.4059496149420738 m-5.953927636146545, 3.9241796731948853 l1.2178488820791245, 0.6765826791524887 0.6765826791524887, -0.4059496149420738 l1.2178488820791245, -1.6237984597682953 0.6765826791524887, -2.706330716609955 m-13.937603235244751, 13.802287578582764 l7.7130430936813354, 0.5412661656737328 m-7.307093143463135, -0.5412661656737328 l2.029748111963272, 2.706330716609955 1.6237984597682953, 0.8118992298841476 l0.8118992298841476, -0.1353165414184332 1.8944315612316132, -2.165064662694931 " fill="none" stroke="black" stroke-width="1" /></svg>