<?xml version="1.0" encoding="utf-8" ?>
<svg baseProfile="full" height="35.03355992026627" version="1.1" width="46.4001492690295" xmlns="http://www.w3.org/2000/svg" xmlns:ev="http://www.w3.org/2001/xml-events" xmlns:xlink="http://www.w3.org/1999/xlink"><defs /><rect fill="white" height="35.03355992026627" width="46.4001492690295" x="0" y="0" /><path d="M9.46544574573636, 7.571014370769262 m0.2706330828368664, -0.6765826791524887 l-1.0825323313474655, -1.3531653583049774 -1.3531653583049774, 0.0 l-0.9472157806158066, 0.5412661656737328 -1.3531653583049774, 2.165064662694931 l0.1353165414184332, 1.6237984597682953 2.165064662694931, 1.2178488820791245 l-1.3531653583049774, 6.224560737609863 0.9472157806158066, 3.2475969195365906 l0.9472157806158066, 2.029748111963272 2.029748111963272, 2.30038121342659 l4.059496223926544, 2.30038121342659 3.9241796731948853, 0.8118992298841476 l10.82532286643982, -0.1353165414184332 7.1717768907547, -1.0825323313474655 l3.1122803688049316, -0.9472157806158066 1.8944315612316132, -2.8416472673416138 l0.5412661656737328, -4.194812774658203 -0.4059496149420738, -3.7888631224632263 l-0.6765826791524887, -1.6237984597682953 -1.3531653583049774, -1.2178488820791245 l-2.9769638180732727, -1.0825323313474655 m-26.116092205047607, -4.465445876121521 l9.066208004951477, -0.1353165414184332 10.013424158096313, 2.571014165878296 l1.7591150104999542, -3.6535465717315674 2.029748111963272, -0.4059496149420738 l1.4884819090366364, 0.4059496149420738 0.2706330828368664, 4.059496223926544 l0.8118992298841476, 1.3531653583049774 m-14.3435537815094, 9.472157955169678 l-0.9472157806158066, -0.6765826791524887 -1.3531653583049774, 0.0 l-0.9472157806158066, 1.6237984597682953 -0.1353165414184332, 1.4884819090366364 l0.8118992298841476, 0.8118992298841476 2.8416472673416138, 0.9472157806158066 l1.3531653583049774, -0.2706330828368664 0.6765826791524887, -0.8118992298841476 l0.1353165414184332, -1.6237984597682953 -0.6765826791524887, -1.6237984597682953 l-1.4884819090366364, -1.0825323313474655 -0.9472157806158066, -0.1353165414184332 m-4.059496223926544, -7.036460041999817 l-0.6765826791524887, 0.4059496149420738 0.0, 0.6765826791524887 l0.6765826791524887, -0.2706330828368664 0.0, -1.0825323313474655 m7.7130430936813354, 0.4059496149420738 l-0.1353165414184332, 0.6765826791524887 0.5412661656737328, -0.4059496149420738 m-12.043172121047974, 14.61418628692627 l-0.8118992298841476, 1.7591150104999542 0.0, 1.3531653583049774 " fill="none" stroke="black" stroke-width="1" /></svg>