<?xml version="1.0" encoding="utf-8" ?>
<svg baseProfile="full" height="38.957739593461156" version="1.1" width="44.23508412204683" xmlns="http://www.w3.org/2000/svg" xmlns:ev="http://www.w3.org/2001/xml-events" xmlns:xlink="http://www.w3.org/1999/xlink"><defs /><rect fill="white" height="38.957739593461156" width="44.23508412204683" x="0" y="0" /><path d="M24.07963154837489, 14.878107598051429 m-9.336841106414795, 0.0 l-1.0825323313474655, 0.2706330828368664 -1.7591150104999542, 2.30038121342659 l-1.3531653583049774, 3.2475969195365906 -1.7591150104999542, 6.224560737609863 l0.0, 1.3531653583049774 0.6765826791524887, 1.0825323313474655 l2.30038121342659, 1.8944315612316132 5.41266143321991, 1.7591150104999542 l6.089244484901428, 0.9472157806158066 2.435697764158249, 0.0 l2.8416472673416138, -2.435697764158249 1.7591150104999542, -2.435697764158249 l1.3531653583049774, -3.2475969195365906 0.5412661656737328, -3.6535465717315674 l-0.1353165414184332, -3.7888631224632263 -0.6765826791524887, -1.6237984597682953 l-2.165064662694931, -1.6237984597682953 -3.2475969195365906, -0.8118992298841476 l-2.706330716609955, -0.1353165414184332 3.1122803688049316, -3.3829134702682495 l5.953927636146545, -4.465445876121521 2.30038121342659, -1.0825323313474655 l1.6237984597682953, -0.2706330828368664 1.3531653583049774, 0.2706330828368664 l0.5412661656737328, 0.6765826791524887 1.0825323313474655, 4.059496223926544 l0.0, 4.60076242685318 -0.1353165414184332, 1.3531653583049774 l-1.8944315612316132, 2.029748111963272 -5.142028331756592, 0.4059496149420738 m-18.132416009902954, -4.194812774658203 l-2.30038121342659, 0.0 -2.165064662694931, -1.0825323313474655 l-3.7888631224632263, 0.0 -0.6765826791524887, 0.4059496149420738 l0.0, 2.706330716609955 0.9472157806158066, 1.6237984597682953 l2.571014165878296, 0.9472157806158066 1.4884819090366364, 1.0825323313474655 m10.55469036102295, 4.194812774658203 l-3.7888631224632263, -0.1353165414184332 -0.5412661656737328, 2.571014165878296 l0.2706330828368664, 0.6765826791524887 1.7591150104999542, 1.3531653583049774 l2.9769638180732727, 0.1353165414184332 0.5412661656737328, -2.9769638180732727 l-2.029748111963272, -1.2178488820791245 m4.465445876121521, -4.059496223926544 l0.0, 0.0 m-7.307093143463135, -0.5412661656737328 l-1.6237984597682953, 0.0 -0.4059496149420738, 0.6765826791524887 l0.6765826791524887, 0.5412661656737328 0.5412661656737328, -1.2178488820791245 m7.1717768907547, 0.0 l0.1353165414184332, 2.029748111963272 " fill="none" stroke="black" stroke-width="1" /></svg>