<?xml version="1.0" encoding="utf-8" ?>
<svg baseProfile="full" height="56.00762418471277" version="1.1" width="37.06330834887922" xmlns="http://www.w3.org/2000/svg" xmlns:ev="http://www.w3.org/2001/xml-events" xmlns:xlink="http://www.w3.org/1999/xlink"><defs /><rect fill="white" height="56.00762418471277" width="37.06330834887922" x="0" y="0" /><path d="M9.600763451308012, 11.630510231480002 m-2.30038121342659, 5.41266143321991 l-0.5412661656737328, 7.442409992218018 1.7591150104999542, 2.029748111963272 l5.41266143321991, 2.30038121342659 3.3829134702682495, 0.6765826791524887 l3.5182300209999084, 0.1353165414184332 2.571014165878296, -1.6237984597682953 l0.8118992298841476, -2.30038121342659 0.4059496149420738, -2.9769638180732727 l0.0, -3.3829134702682495 -0.5412661656737328, -2.571014165878296 l-3.2475969195365906, -4.059496223926544 -4.60076242685318, -2.30038121342659 l-3.6535465717315674, -0.2706330828368664 -4.60076242685318, 1.0825323313474655 m-0.2706330828368664, -0.9472157806158066 l0.1353165414184332, -2.165064662694931 2.029748111963272, -2.165064662694931 l3.9241796731948853, -0.9472157806158066 1.2178488820791245, 2.029748111963272 l0.6765826791524887, 4.60076242685318 m6.224560737609863, 1.0825323313474655 l1.0825323313474655, -1.0825323313474655 5.6832945346832275, -1.6237984597682953 l2.9769638180732727, 0.1353165414184332 0.4059496149420738, 0.9472157806158066 l-0.1353165414184332, 2.165064662694931 -6.765826940536499, 7.1717768907547 m-17.45583415031433, 4.871395528316498 l-2.706330716609955, 13.125704526901245 0.1353165414184332, 7.307093143463135 l1.0825323313474655, 1.7591150104999542 0.9472157806158066, 0.6765826791524887 l4.465445876121521, 1.7591150104999542 9.87810730934143, 1.0825323313474655 l5.142028331756592, 0.0 2.165064662694931, -1.0825323313474655 l1.0825323313474655, -1.7591150104999542 1.8944315612316132, -12.58443832397461 l-0.4059496149420738, -5.277345180511475 -0.9472157806158066, -1.4884819090366364 l-3.7888631224632263, -2.435697764158249 -3.7888631224632263, -0.2706330828368664 l-2.165064662694931, 0.8118992298841476 " fill="none" stroke="black" stroke-width="1" /></svg>