<?xml version="1.0" encoding="utf-8" ?>
<svg baseProfile="full" height="46.400149781256914" version="1.1" width="59.52585346996784" xmlns="http://www.w3.org/2000/svg" xmlns:ev="http://www.w3.org/2001/xml-events" xmlns:xlink="http://www.w3.org/1999/xlink"><defs /><rect fill="white" height="46.400149781256914" width="59.52585346996784" x="0" y="0" /><path d="M11.630509989336133, 21.37330205179751 m0.4059496149420738, -3.1122803688049316 l1.0825323313474655, -2.435697764158249 1.0825323313474655, -1.4884819090366364 l1.4884819090366364, -0.9472157806158066 5.006712079048157, -1.6237984597682953 l5.41266143321991, -0.8118992298841476 10.148741006851196, -0.1353165414184332 l6.089244484901428, 1.3531653583049774 3.9241796731948853, 1.8944315612316132 l2.30038121342659, 2.435697764158249 0.6765826791524887, 2.165064662694931 l0.0, 4.736078977584839 -1.4884819090366364, 5.6832945346832275 l-3.6535465717315674, 6.495193839073181 -3.3829134702682495, 2.706330716609955 l-3.1122803688049316, 1.7591150104999542 -6.089244484901428, 1.3531653583049774 l-3.1122803688049316, -0.1353165414184332 -4.194812774658203, -0.9472157806158066 l-4.194812774658203, -2.165064662694931 -2.165064662694931, -2.8416472673416138 l-3.7888631224632263, -11.095956563949585 -0.8118992298841476, -3.7888631224632263 l0.1353165414184332, -3.6535465717315674 m3.5182300209999084, -5.277345180511475 l-1.6237984597682953, -2.8416472673416138 -2.435697764158249, -1.8944315612316132 l-2.165064662694931, -0.9472157806158066 -2.435697764158249, -0.4059496149420738 l-1.7591150104999542, 0.1353165414184332 -0.6765826791524887, 0.8118992298841476 l-0.8118992298841476, 2.9769638180732727 0.0, 2.30038121342659 l1.2178488820791245, 2.435697764158249 0.9472157806158066, 0.8118992298841476 l2.30038121342659, 0.4059496149420738 4.871395528316498, -0.2706330828368664 m25.033559799194336, -6.630510687828064 l1.6237984597682953, -2.165064662694931 2.8416472673416138, -0.8118992298841476 l5.142028331756592, -0.4059496149420738 4.871395528316498, 1.0825323313474655 l0.6765826791524887, 2.706330716609955 0.0, 4.330129325389862 l-1.6237984597682953, 1.3531653583049774 -1.0825323313474655, 0.0 " fill="none" stroke="black" stroke-width="1" /></svg>