<?xml version="1.0" encoding="utf-8" ?>
<svg baseProfile="full" height="63.450033543631434" version="1.1" width="50.45964553952217" xmlns="http://www.w3.org/2000/svg" xmlns:ev="http://www.w3.org/2001/xml-events" xmlns:xlink="http://www.w3.org/1999/xlink"><defs /><rect fill="white" height="63.450033543631434" width="50.45964553952217" x="0" y="0" /><path d="M22.185200778767467, 5.947215780615807 m-1.3531653583049774, -0.9472157806158066 l-4.60076242685318, 0.1353165414184332 -2.029748111963272, 0.8118992298841476 l-5.41266143321991, 5.953927636146545 -1.0825323313474655, 1.7591150104999542 l-1.3531653583049774, 4.059496223926544 0.0, 4.736078977584839 l2.9769638180732727, 4.330129325389862 4.059496223926544, 2.30038121342659 l4.60076242685318, 0.6765826791524887 6.495193839073181, -0.4059496149420738 l5.5479782819747925, -1.8944315612316132 3.1122803688049316, -3.1122803688049316 l1.2178488820791245, -3.9241796731948853 -0.1353165414184332, -6.089244484901428 l-2.165064662694931, -3.5182300209999084 -6.765826940536499, -3.9241796731948853 l-3.3829134702682495, -0.9472157806158066 -3.3829134702682495, 0.0 m-1.4884819090366364, 24.22166109085083 l-2.8416472673416138, 4.059496223926544 -1.7591150104999542, 5.6832945346832275 l-0.6765826791524887, 4.194812774658203 0.0, 4.871395528316498 l0.4059496149420738, 1.4884819090366364 0.9472157806158066, 2.435697764158249 l2.30038121342659, 2.9769638180732727 1.7591150104999542, 1.4884819090366364 l4.059496223926544, 1.0825323313474655 4.330129325389862, 0.0 l5.6832945346832275, -0.9472157806158066 3.1122803688049316, -2.165064662694931 l2.029748111963272, -3.7888631224632263 0.9472157806158066, -7.036460041999817 l0.0, -5.6832945346832275 -1.0825323313474655, -3.1122803688049316 l-1.7591150104999542, -2.165064662694931 -2.435697764158249, -1.6237984597682953 l-2.165064662694931, -2.8416472673416138 -1.2178488820791245, -0.2706330828368664 m-14.3435537815094, 9.336841106414795 l-4.059496223926544, 1.4884819090366364 -2.571014165878296, 2.029748111963272 l-1.2178488820791245, 1.6237984597682953 -1.4884819090366364, 3.6535465717315674 l0.0, 5.81861138343811 0.8118992298841476, 0.8118992298841476 l1.7591150104999542, 0.1353165414184332 2.571014165878296, -2.571014165878296 l2.706330716609955, -5.41266143321991 m22.19191312789917, -10.690007209777832 l1.4884819090366364, 0.5412661656737328 5.41266143321991, 4.465445876121521 l2.571014165878296, 3.2475969195365906 0.9472157806158066, 2.30038121342659 l0.0, 2.435697764158249 -1.4884819090366364, 0.4059496149420738 l-4.059496223926544, -0.1353165414184332 -1.4884819090366364, -0.9472157806158066 l-0.6765826791524887, -3.7888631224632263 " fill="none" stroke="black" stroke-width="1" /></svg>