<?xml version="1.0" encoding="utf-8" ?>
<svg baseProfile="full" height="45.18230024725199" version="1.1" width="42.881918754428625" xmlns="http://www.w3.org/2000/svg" xmlns:ev="http://www.w3.org/2001/xml-events" xmlns:xlink="http://www.w3.org/1999/xlink"><defs /><rect fill="white" height="45.18230024725199" width="42.881918754428625" x="0" y="0" /><path d="M25.297480653971434, 12.577725993469357 m-4.465445876121521, -0.6765826791524887 l-3.7888631224632263, 1.0825323313474655 -2.165064662694931, 1.3531653583049774 l-5.006712079048157, 5.142028331756592 -1.6237984597682953, 2.435697764158249 l-0.1353165414184332, 1.7591150104999542 1.0825323313474655, 3.6535465717315674 l2.8416472673416138, 3.2475969195365906 8.254309296607971, 7.983676195144653 l3.6535465717315674, 1.4884819090366364 2.029748111963272, 0.1353165414184332 l2.706330716609955, -0.8118992298841476 2.165064662694931, -2.029748111963272 l2.029748111963272, -4.736078977584839 -0.1353165414184332, -3.6535465717315674 l-0.9472157806158066, -5.142028331756592 -2.165064662694931, -6.224560737609863 l-3.2475969195365906, -4.871395528316498 m-0.4059496149420738, -0.5412661656737328 l-0.2706330828368664, -0.6765826791524887 0.6765826791524887, -2.435697764158249 l0.6765826791524887, -0.6765826791524887 6.765826940536499, -3.3829134702682495 l2.571014165878296, 2.571014165878296 1.4884819090366364, 5.41266143321991 l-0.1353165414184332, 1.6237984597682953 -3.1122803688049316, 5.953927636146545 l-2.571014165878296, 1.2178488820791245 m-15.561401844024658, -8.389625549316406 l-0.8118992298841476, -3.1122803688049316 -2.8416472673416138, -5.006712079048157 l-4.330129325389862, 0.1353165414184332 -0.6765826791524887, 0.4059496149420738 l-0.6765826791524887, 0.6765826791524887 -2.029748111963272, 4.330129325389862 l-0.1353165414184332, 3.7888631224632263 1.8944315612316132, 2.9769638180732727 l1.4884819090366364, 1.2178488820791245 1.6237984597682953, 0.1353165414184332 m9.066208004951477, 0.5412661656737328 l-1.4884819090366364, -1.0825323313474655 -0.6765826791524887, 0.4059496149420738 l-0.2706330828368664, 2.9769638180732727 0.6765826791524887, 0.4059496149420738 l0.6765826791524887, -0.4059496149420738 0.4059496149420738, -2.435697764158249 l-0.6765826791524887, -0.1353165414184332 0.5412661656737328, 1.3531653583049774 m6.224560737609863, 0.5412661656737328 l-0.9472157806158066, -0.1353165414184332 -0.2706330828368664, 0.6765826791524887 l0.2706330828368664, 0.8118992298841476 0.6765826791524887, 0.2706330828368664 l1.4884819090366364, 0.0 0.5412661656737328, -0.6765826791524887 l-1.7591150104999542, -1.6237984597682953 0.1353165414184332, 0.6765826791524887 " fill="none" stroke="black" stroke-width="1" /></svg>