<?xml version="1.0" encoding="utf-8" ?>
<svg baseProfile="full" height="48.02394752390683" version="1.1" width="50.45964680612087" xmlns="http://www.w3.org/2000/svg" xmlns:ev="http://www.w3.org/2001/xml-events" xmlns:xlink="http://www.w3.org/1999/xlink"><defs /><rect fill="white" height="48.02394752390683" width="50.45964680612087" x="0" y="0" /><path d="M37.340654619038105, 14.201524974778295 m-7.1717768907547, -1.4884819090366364 l-9.472157955169678, -0.5412661656737328 -2.30038121342659, 0.0 l-0.9472157806158066, 0.4059496149420738 m19.48558211326599, 0.9472157806158066 l1.3531653583049774, -3.6535465717315674 1.4884819090366364, -2.165064662694931 l2.30038121342659, -0.4059496149420738 1.6237984597682953, 0.9472157806158066 l1.3531653583049774, 2.706330716609955 0.4059496149420738, 3.6535465717315674 l-2.30038121342659, 2.571014165878296 -1.0825323313474655, 0.5412661656737328 l-1.8944315612316132, 0.1353165414184332 m-24.62761163711548, -5.5479782819747925 l0.0, -1.8944315612316132 -0.8118992298841476, -1.7591150104999542 l-2.8416472673416138, -3.1122803688049316 -3.6535465717315674, -0.5412661656737328 l-2.165064662694931, 1.6237984597682953 -1.0825323313474655, 2.30038121342659 l0.1353165414184332, 3.1122803688049316 1.4884819090366364, 4.465445876121521 l1.0825323313474655, 1.6237984597682953 3.1122803688049316, 3.1122803688049316 l2.706330716609955, 0.2706330828368664 m-1.6237984597682953, -1.2178488820791245 l-1.7591150104999542, 1.4884819090366364 -1.0825323313474655, 1.6237984597682953 l-0.5412661656737328, 1.3531653583049774 0.0, 2.706330716609955 l1.3531653583049774, 3.6535465717315674 3.3829134702682495, 4.465445876121521 l2.30038121342659, 2.165064662694931 5.41266143321991, 3.5182300209999084 l5.6832945346832275, 1.6237984597682953 5.6832945346832275, 0.1353165414184332 l2.706330716609955, -0.8118992298841476 4.194812774658203, -2.435697764158249 l1.4884819090366364, -2.029748111963272 0.6765826791524887, -2.571014165878296 l0.5412661656737328, -3.2475969195365906 0.0, -9.20152485370636 l-1.4884819090366364, -4.194812774658203 -2.30038121342659, -2.165064662694931 m-5.81861138343811, 7.442409992218018 l-2.165064662694931, -1.2178488820791245 -4.194812774658203, -1.4884819090366364 l-6.089244484901428, -0.5412661656737328 -3.5182300209999084, 1.7591150104999542 l-1.3531653583049774, 1.4884819090366364 -1.4884819090366364, 3.3829134702682495 l-0.2706330828368664, 5.142028331756592 0.5412661656737328, 1.7591150104999542 l2.30038121342659, 3.3829134702682495 4.330129325389862, 3.1122803688049316 l3.3829134702682495, 1.0825323313474655 2.9769638180732727, 0.4059496149420738 m3.7888631224632263, -19.35026526451111 l1.0825323313474655, 0.0 1.0825323313474655, 0.8118992298841476 l3.3829134702682495, 3.5182300209999084 0.9472157806158066, 2.165064662694931 " fill="none" stroke="black" stroke-width="1" /></svg>