<?xml version="1.0" encoding="utf-8" ?>
<svg baseProfile="full" height="54.51914184726775" version="1.1" width="37.333940202370286" xmlns="http://www.w3.org/2000/svg" xmlns:ev="http://www.w3.org/2001/xml-events" xmlns:xlink="http://www.w3.org/1999/xlink"><defs /><rect fill="white" height="54.51914184726775" width="37.333940202370286" x="0" y="0" /><path d="M16.366589423269033, 11.765827527269721 m-4.736078977584839, 4.465445876121521 l-2.165064662694931, 3.1122803688049316 -0.2706330828368664, 3.3829134702682495 l0.6765826791524887, 2.029748111963272 3.1122803688049316, 3.7888631224632263 l2.30038121342659, 1.4884819090366364 5.5479782819747925, 2.435697764158249 l1.4884819090366364, 0.1353165414184332 2.029748111963272, -1.0825323313474655 l2.571014165878296, -3.3829134702682495 0.2706330828368664, -2.029748111963272 l-0.1353165414184332, -2.706330716609955 -0.9472157806158066, -4.194812774658203 l-5.142028331756592, -9.742791056632996 -2.165064662694931, -0.4059496149420738 l-2.9769638180732727, 1.0825323313474655 -3.1122803688049316, 1.8944315612316132 l-2.165064662694931, 3.5182300209999084 m4.736078977584839, 3.7888631224632263 l0.0, -0.2706330828368664 m6.359877586364746, -0.6765826791524887 l0.0, 0.0 m-0.9472157806158066, 0.2706330828368664 l0.0, 0.0 m-8.254309296607971, -7.577726244926453 l-5.277345180511475, -1.8944315612316132 -0.9472157806158066, 0.2706330828368664 l-1.0825323313474655, 1.8944315612316132 -0.1353165414184332, 4.330129325389862 l0.5412661656737328, 2.435697764158249 1.4884819090366364, 1.8944315612316132 l2.029748111963272, 1.0825323313474655 m14.478869438171387, -10.148741006851196 l3.7888631224632263, -4.330129325389862 2.165064662694931, -1.6237984597682953 l0.9472157806158066, 0.0 0.4059496149420738, 1.3531653583049774 l0.2706330828368664, 4.465445876121521 -1.6237984597682953, 4.330129325389862 l-2.435697764158249, 2.9769638180732727 -1.0825323313474655, 0.8118992298841476 l-0.9472157806158066, 0.0 m-5.81861138343811, 0.8118992298841476 l0.0, 0.0 m-0.4059496149420738, -0.1353165414184332 l0.6765826791524887, -1.2178488820791245 0.5412661656737328, 0.5412661656737328 l0.2706330828368664, 1.7591150104999542 m-4.059496223926544, 3.1122803688049316 l2.30038121342659, 2.30038121342659 3.1122803688049316, 0.5412661656737328 l2.30038121342659, -1.0825323313474655 1.0825323313474655, -1.8944315612316132 m-10.690007209777832, 3.5182300209999084 l-2.571014165878296, 8.118992447853088 -0.2706330828368664, 2.435697764158249 l3.2475969195365906, 7.442409992218018 4.60076242685318, 2.9769638180732727 l3.9241796731948853, 1.3531653583049774 4.871395528316498, -1.0825323313474655 l3.5182300209999084, -2.165064662694931 0.5412661656737328, -2.165064662694931 l0.1353165414184332, -6.089244484901428 -1.4884819090366364, -6.765826940536499 l-1.3531653583049774, -2.9769638180732727 " fill="none" stroke="black" stroke-width="1" /></svg>