<?xml version="1.0" encoding="utf-8" ?>
<svg baseProfile="full" height="23.125704284757376" version="1.1" width="26.779251024127007" xmlns="http://www.w3.org/2000/svg" xmlns:ev="http://www.w3.org/2001/xml-events" xmlns:xlink="http://www.w3.org/1999/xlink"><defs /><rect fill="white" height="23.125704284757376" width="26.779251024127007" x="0" y="0" /><path d="M12.577726505696774, 9.194812597706914 m-1.2178488820791245, -0.1353165414184332 l-1.2178488820791245, 0.5412661656737328 -2.30038121342659, 2.435697764158249 l-0.4059496149420738, 3.2475969195365906 0.4059496149420738, 1.2178488820791245 l1.3531653583049774, 1.2178488820791245 2.435697764158249, 0.4059496149420738 l2.8416472673416138, -0.4059496149420738 3.1122803688049316, -1.2178488820791245 l0.9472157806158066, -1.3531653583049774 0.0, -2.435697764158249 l-1.3531653583049774, -2.9769638180732727 -1.7591150104999542, -0.8118992298841476 l-4.465445876121521, 0.0 m3.3829134702682495, -0.8118992298841476 l-0.5412661656737328, 0.2706330828368664 0.9472157806158066, -1.2178488820791245 l2.029748111963272, -1.4884819090366364 2.165064662694931, -0.6765826791524887 l2.029748111963272, 0.0 0.8118992298841476, 1.3531653583049774 l-0.5412661656737328, 1.8944315612316132 -1.6237984597682953, 1.7591150104999542 l-1.8944315612316132, 0.5412661656737328 m-7.8483593463897705, -1.0825323313474655 l0.0, -0.5412661656737328 -2.435697764158249, -2.435697764158249 l-0.5412661656737328, -0.2706330828368664 -1.2178488820791245, 0.8118992298841476 l-0.6765826791524887, 1.8944315612316132 0.4059496149420738, 1.8944315612316132 l1.8944315612316132, 0.9472157806158066 0.5412661656737328, -0.1353165414184332 m2.165064662694931, 0.5412661656737328 l-0.4059496149420738, 0.5412661656737328 0.2706330828368664, 0.5412661656737328 l0.5412661656737328, 0.0 0.0, -0.5412661656737328 l-0.2706330828368664, -0.5412661656737328 -0.4059496149420738, 0.5412661656737328 l0.5412661656737328, 0.0 m4.330129325389862, -1.0825323313474655 l-0.4059496149420738, 0.8118992298841476 0.2706330828368664, 0.5412661656737328 l0.6765826791524887, 0.0 0.2706330828368664, -0.5412661656737328 l-0.4059496149420738, -0.5412661656737328 -0.2706330828368664, 0.1353165414184332 m-0.1353165414184332, 0.5412661656737328 l0.1353165414184332, 0.0 " fill="none" stroke="black" stroke-width="1" /></svg>