<?xml version="1.0" encoding="utf-8" ?>
<svg baseProfile="full" height="30.70343067869544" version="1.1" width="36.11609237268567" xmlns="http://www.w3.org/2000/svg" xmlns:ev="http://www.w3.org/2001/xml-events" xmlns:xlink="http://www.w3.org/1999/xlink"><defs /><rect fill="white" height="30.70343067869544" width="36.11609237268567" x="0" y="0" /><path d="M24.620898365974426, 8.924179645255208 m-0.5412661656737328, -0.6765826791524887 l-3.1122803688049316, -1.6237984597682953 -4.871395528316498, -0.2706330828368664 l-2.029748111963272, 1.3531653583049774 -2.029748111963272, 2.165064662694931 l-0.5412661656737328, 2.029748111963272 -0.9472157806158066, -3.7888631224632263 l-1.0825323313474655, -2.029748111963272 -1.6237984597682953, -0.9472157806158066 l-2.165064662694931, -0.1353165414184332 -0.6765826791524887, 0.6765826791524887 l0.0, 2.029748111963272 2.029748111963272, 2.8416472673416138 l-0.8118992298841476, 3.1122803688049316 0.1353165414184332, 4.465445876121521 l2.435697764158249, 4.871395528316498 2.571014165878296, 2.435697764158249 l8.660258650779724, 0.2706330828368664 1.3531653583049774, -0.6765826791524887 l4.871395528316498, -4.330129325389862 1.0825323313474655, -3.6535465717315674 l0.5412661656737328, -3.9241796731948853 0.6765826791524887, -1.4884819090366364 l2.435697764158249, -2.8416472673416138 0.1353165414184332, -2.165064662694931 l-0.4059496149420738, -0.6765826791524887 -1.3531653583049774, -0.6765826791524887 l-1.4884819090366364, 0.1353165414184332 -1.8944315612316132, 2.571014165878296 m-10.013424158096313, 10.148741006851196 l1.6237984597682953, 0.0 0.1353165414184332, -0.6765826791524887 l-2.029748111963272, 0.2706330828368664 -0.1353165414184332, 0.6765826791524887 l0.8118992298841476, 0.4059496149420738 0.4059496149420738, -0.2706330828368664 m0.0, -0.4059496149420738 l0.0, 2.706330716609955 -1.3531653583049774, 0.9472157806158066 l-2.8416472673416138, 0.1353165414184332 -0.9472157806158066, -1.2178488820791245 l0.1353165414184332, -0.9472157806158066 m5.006712079048157, -1.3531653583049774 l-0.1353165414184332, 1.3531653583049774 1.3531653583049774, 1.6237984597682953 l0.8118992298841476, 0.5412661656737328 2.706330716609955, 0.0 " fill="none" stroke="black" stroke-width="1" /></svg>