<?xml version="1.0" encoding="utf-8" ?>
<svg baseProfile="full" height="42.205336121842265" version="1.1" width="54.38382585532963" xmlns="http://www.w3.org/2000/svg" xmlns:ev="http://www.w3.org/2001/xml-events" xmlns:xlink="http://www.w3.org/1999/xlink"><defs /><rect fill="white" height="42.205336121842265" width="54.38382585532963" x="0" y="0" /><path d="M11.495193839073181, 25.838747695088387 m-3.1122803688049316, -8.524942398071289 l-1.8944315612316132, -3.7888631224632263 -1.4884819090366364, -6.359877586364746 l0.2706330828368664, -1.4884819090366364 1.6237984597682953, -0.6765826791524887 l2.9769638180732727, 0.0 2.165064662694931, 0.6765826791524887 l0.9472157806158066, 0.8118992298841476 1.4884819090366364, 2.435697764158249 l1.2178488820791245, 7.577726244926453 m20.16216516494751, 3.3829134702682495 l0.9472157806158066, -5.6832945346832275 1.8944315612316132, -6.089244484901428 l3.1122803688049316, -1.6237984597682953 5.277345180511475, 0.0 l2.165064662694931, 1.0825323313474655 0.1353165414184332, 5.41266143321991 l-0.9472157806158066, 5.142028331756592 -1.4884819090366364, 3.9241796731948853 l-0.8118992298841476, 0.4059496149420738 m-28.28115701675415, -4.465445876121521 l-1.3531653583049774, -0.5412661656737328 -2.8416472673416138, 0.5412661656737328 l-0.9472157806158066, 1.3531653583049774 -2.029748111963272, 1.0825323313474655 l-2.30038121342659, 8.660258650779724 0.4059496149420738, 2.9769638180732727 l1.8944315612316132, 1.8944315612316132 7.7130430936813354, 2.30038121342659 l5.953927636146545, 0.1353165414184332 5.41266143321991, 0.8118992298841476 l6.089244484901428, 0.0 7.442409992218018, -2.571014165878296 l1.3531653583049774, -3.3829134702682495 0.4059496149420738, -3.7888631224632263 l-0.8118992298841476, -2.165064662694931 -3.5182300209999084, -3.3829134702682495 l-5.006712079048157, -2.435697764158249 -13.125704526901245, -2.706330716609955 l-3.7888631224632263, 0.5412661656737328 -1.6237984597682953, 1.0825323313474655 m5.81861138343811, 10.55469036102295 l-0.4059496149420738, 0.6765826791524887 0.9472157806158066, 1.2178488820791245 l1.3531653583049774, 0.5412661656737328 1.4884819090366364, 0.0 l0.5412661656737328, -0.8118992298841476 -0.4059496149420738, -2.029748111963272 l-3.2475969195365906, -0.2706330828368664 -0.8118992298841476, 0.8118992298841476 m-4.465445876121521, -5.006712079048157 l0.2706330828368664, 0.6765826791524887 1.4884819090366364, 0.1353165414184332 l0.6765826791524887, -0.2706330828368664 0.1353165414184332, -0.6765826791524887 l-1.3531653583049774, -0.9472157806158066 -0.6765826791524887, 0.4059496149420738 l-0.4059496149420738, 0.9472157806158066 " fill="none" stroke="black" stroke-width="1" /></svg>