<?xml version="1.0" encoding="utf-8" ?>
<svg baseProfile="full" height="77.38763635978103" version="1.1" width="94.97878713533282" xmlns="http://www.w3.org/2000/svg" xmlns:ev="http://www.w3.org/2001/xml-events" xmlns:xlink="http://www.w3.org/1999/xlink"><defs /><rect fill="white" height="77.38763635978103" width="94.97878713533282" x="0" y="0" /><path d="M41.264832597225904, 5 m-5.6832945346832275, 0.8118992298841476 l-3.2475969195365906, 1.6237984597682953 -2.435697764158249, 2.435697764158249 l-0.8118992298841476, 1.6237984597682953 0.2706330828368664, 3.5182300209999084 l3.2475969195365906, 4.871395528316498 2.165064662694931, 2.435697764158249 l1.6237984597682953, 0.8118992298841476 2.435697764158249, 2.706330716609955 l0.5412661656737328, 1.6237984597682953 -1.0825323313474655, 1.8944315612316132 l-0.8118992298841476, 0.5412661656737328 -2.165064662694931, -0.5412661656737328 l-7.8483593463897705, -5.142028331756592 -4.60076242685318, -2.165064662694931 l-3.7888631224632263, -1.0825323313474655 -5.953927636146545, 0.0 l-2.435697764158249, 1.3531653583049774 -1.6237984597682953, 1.6237984597682953 l-1.8944315612316132, 2.706330716609955 -2.165064662694931, 5.41266143321991 l0.0, 3.2475969195365906 2.9769638180732727, 1.3531653583049774 l2.435697764158249, 0.0 2.9769638180732727, -0.8118992298841476 l5.6832945346832275, -3.7888631224632263 3.2475969195365906, 0.2706330828368664 l4.871395528316498, 3.7888631224632263 2.435697764158249, 2.435697764158249 l5.41266143321991, 2.706330716609955 2.165064662694931, 2.435697764158249 l1.0825323313474655, 2.435697764158249 0.5412661656737328, 3.5182300209999084 l3.2475969195365906, 5.953927636146545 -0.8118992298841476, 0.5412661656737328 l-4.059496223926544, 0.2706330828368664 -4.871395528316498, 1.6237984597682953 l-3.5182300209999084, 2.9769638180732727 -2.706330716609955, 3.5182300209999084 l0.2706330828368664, 3.2475969195365906 2.165064662694931, 2.165064662694931 l1.6237984597682953, 0.5412661656737328 3.7888631224632263, -3.2475969195365906 l2.706330716609955, -2.9769638180732727 14.884819984436035, 0.2706330828368664 l5.142028331756592, -0.5412661656737328 4.60076242685318, -0.8118992298841476 l8.660258650779724, -2.435697764158249 0.8118992298841476, 0.0 l0.0, 0.8118992298841476 -2.9769638180732727, 2.706330716609955 l-1.3531653583049774, 1.8944315612316132 -0.5412661656737328, 1.8944315612316132 l0.0, 2.706330716609955 7.577726244926453, 1.6237984597682953 l2.9769638180732727, -0.5412661656737328 3.2475969195365906, -1.8944315612316132 l2.9769638180732727, -3.2475969195365906 0.2706330828368664, -7.577726244926453 l-3.7888631224632263, -5.953927636146545 -2.435697764158249, -1.8944315612316132 l-0.5412661656737328, -1.6237984597682953 4.330129325389862, 2.9769638180732727 l2.706330716609955, 1.0825323313474655 0.8118992298841476, 0.2706330828368664 l2.435697764158249, -0.2706330828368664 1.8944315612316132, -0.8118992298841476 l1.3531653583049774, -1.3531653583049774 0.2706330828368664, -5.41266143321991 l-0.8118992298841476, -1.0825323313474655 -11.095956563949585, -0.8118992298841476 l-1.0825323313474655, 1.8944315612316132 -4.330129325389862, -10.013424158096313 l-1.6237984597682953, -5.41266143321991 0.0, -2.9769638180732727 l-1.0825323313474655, -5.953927636146545 -1.8944315612316132, -2.706330716609955 l-0.8118992298841476, -0.5412661656737328 -6.765826940536499, -1.0825323313474655 l-6.495193839073181, 0.0 -2.706330716609955, 1.0825323313474655 l-1.8944315612316132, 1.6237984597682953 -1.3531653583049774, 2.165064662694931 l-1.3531653583049774, 3.7888631224632263 -0.2706330828368664, 8.660258650779724 l0.8118992298841476, 2.706330716609955 0.8118992298841476, 1.0825323313474655 l1.0825323313474655, 0.8118992298841476 3.7888631224632263, 0.2706330828368664 l1.8944315612316132, -0.5412661656737328 2.435697764158249, -1.6237984597682953 l2.706330716609955, -5.6832945346832275 2.9769638180732727, 1.3531653583049774 l4.059496223926544, 0.2706330828368664 7.036460041999817, -1.6237984597682953 l-0.2706330828368664, -1.3531653583049774 " fill="none" stroke="black" stroke-width="1" /></svg>