<?xml version="1.0" encoding="utf-8" ?>
<svg baseProfile="full" height="65.34446553327143" version="1.1" width="91.32524118758738" xmlns="http://www.w3.org/2000/svg" xmlns:ev="http://www.w3.org/2001/xml-events" xmlns:xlink="http://www.w3.org/1999/xlink"><defs /><rect fill="white" height="65.34446553327143" width="91.32524118758738" x="0" y="0" /><path d="M39.23508383333683, 38.423186177387834 m1.3531653583049774, 16.102668046951294 l-0.2706330828368664, 4.736078977584839 -2.9769638180732727, 1.0825323313474655 l-3.5182300209999084, 0.0 -6.495193839073181, -1.6237984597682953 l-2.9769638180732727, -1.2178488820791245 -1.3531653583049774, -1.2178488820791245 l-0.4059496149420738, -6.089244484901428 -1.7591150104999542, -6.901143789291382 l-1.0825323313474655, -8.524942398071289 0.0, -3.3829134702682495 m21.24469757080078, 12.990387678146362 l-1.2178488820791245, 0.0 m-0.1353165414184332, 0.0 l3.7888631224632263, -0.6765826791524887 10.419373512268066, -3.5182300209999084 m-3.1122803688049316, -0.1353165414184332 l0.0, 16.914567947387695 2.30038121342659, 0.8118992298841476 l5.81861138343811, -0.1353165414184332 7.442409992218018, -2.571014165878296 l0.5412661656737328, -0.6765826791524887 0.5412661656737328, -5.953927636146545 l0.4059496149420738, -21.380014419555664 m0.0, 8.795575499534607 l3.1122803688049316, -0.2706330828368664 6.495193839073181, -2.30038121342659 l5.81861138343811, -5.006712079048157 1.3531653583049774, -2.165064662694931 l1.4884819090366364, -4.194812774658203 0.2706330828368664, -5.41266143321991 l-1.8944315612316132, -2.571014165878296 -4.465445876121521, -1.4884819090366364 l-12.449121475219727, -0.1353165414184332 m0.8118992298841476, 14.749503135681152 l0.5412661656737328, -6.359877586364746 -9.336841106414795, -2.435697764158249 m2.029748111963272, -9.336841106414795 l-2.8416472673416138, -1.6237984597682953 -5.5479782819747925, -2.029748111963272 l-6.359877586364746, -0.2706330828368664 -1.4884819090366364, 0.5412661656737328 l-6.630510687828064, 3.5182300209999084 -11.501905918121338, 4.871395528316498 l-7.7130430936813354, 3.9241796731948853 -5.81861138343811, 7.442409992218018 l-0.5412661656737328, 2.029748111963272 0.1353165414184332, 3.5182300209999084 m2.165064662694931, -10.419373512268066 l-4.871395528316498, 2.435697764158249 -2.706330716609955, 3.7888631224632263 l-1.8944315612316132, 4.059496223926544 -0.9472157806158066, 4.194812774658203 l0.4059496149420738, 0.6765826791524887 3.7888631224632263, 1.0825323313474655 l2.30038121342659, -7.7130430936813354 " fill="none" stroke="black" stroke-width="1" /></svg>