<?xml version="1.0" encoding="utf-8" ?>
<svg baseProfile="full" height="68.86269484646618" version="1.1" width="67.23889637738466" xmlns="http://www.w3.org/2000/svg" xmlns:ev="http://www.w3.org/2001/xml-events" xmlns:xlink="http://www.w3.org/1999/xlink"><defs /><rect fill="white" height="68.86269484646618" width="67.23889637738466" x="0" y="0" /><path d="M17.855071164667606, 59.93851536884904 m-3.7888631224632263, -1.3531653583049774 l-3.2475969195365906, -2.30038121342659 -2.571014165878296, -2.8416472673416138 l-0.9472157806158066, -1.4884819090366364 -1.7591150104999542, -4.871395528316498 l-0.5412661656737328, -4.194812774658203 0.4059496149420738, -7.036460041999817 l4.059496223926544, -11.095956563949585 1.8944315612316132, -1.3531653583049774 l6.359877586364746, -0.5412661656737328 m0.0, 0.0 l-4.194812774658203, -2.30038121342659 -2.435697764158249, -4.059496223926544 l0.5412661656737328, -3.3829134702682495 1.6237984597682953, -2.706330716609955 l1.8944315612316132, -2.029748111963272 2.435697764158249, -1.6237984597682953 l3.6535465717315674, -1.4884819090366364 7.577726244926453, -0.2706330828368664 l9.336841106414795, 2.30038121342659 1.4884819090366364, 2.029748111963272 l0.8118992298841476, 3.5182300209999084 -0.1353165414184332, 4.736078977584839 l-2.435697764158249, 4.194812774658203 -3.3829134702682495, 2.435697764158249 l-4.60076242685318, 1.2178488820791245 m0.4059496149420738, 0.0 l2.706330716609955, 0.2706330828368664 1.6237984597682953, 2.029748111963272 l0.1353165414184332, 1.3531653583049774 1.3531653583049774, 0.6765826791524887 l2.165064662694931, 0.1353165414184332 13.125704526901245, -5.41266143321991 l4.60076242685318, -1.3531653583049774 3.7888631224632263, -0.2706330828368664 l1.4884819090366364, 0.6765826791524887 0.4059496149420738, 0.6765826791524887 l0.5412661656737328, 3.3829134702682495 -2.706330716609955, 3.2475969195365906 l-4.330129325389862, 2.029748111963272 -2.8416472673416138, 0.5412661656737328 l-6.765826940536499, 0.1353165414184332 -7.577726244926453, 1.6237984597682953 l-1.3531653583049774, -0.1353165414184332 0.9472157806158066, 1.0825323313474655 l2.165064662694931, 0.4059496149420738 3.5182300209999084, -0.2706330828368664 l7.307093143463135, 1.7591150104999542 0.6765826791524887, 0.6765826791524887 l0.2706330828368664, 1.3531653583049774 -0.2706330828368664, 0.6765826791524887 l-0.8118992298841476, 0.4059496149420738 -2.435697764158249, 0.9472157806158066 l-4.736078977584839, 0.4059496149420738 -12.178488969802856, -0.5412661656737328 l-1.2178488820791245, 4.330129325389862 -0.1353165414184332, 3.5182300209999084 l1.4884819090366364, 2.8416472673416138 0.5412661656737328, 0.6765826791524887 l3.5182300209999084, 1.6237984597682953 7.1717768907547, 1.8944315612316132 l2.9769638180732727, 1.4884819090366364 0.5412661656737328, 3.3829134702682495 l-0.8118992298841476, 1.3531653583049774 -2.706330716609955, 0.8118992298841476 l-7.1717768907547, -0.4059496149420738 -4.871395528316498, -1.8944315612316132 l-3.3829134702682495, -0.8118992298841476 -10.419373512268066, 0.1353165414184332 m4.736078977584839, -47.63142108917236 l-0.1353165414184332, 2.029748111963272 0.6765826791524887, 0.1353165414184332 l1.6237984597682953, -0.6765826791524887 " fill="none" stroke="black" stroke-width="1" /></svg>