<?xml version="1.0" encoding="utf-8" ?>
<svg baseProfile="full" height="41.934703374281526" version="1.1" width="46.26483228057623" xmlns="http://www.w3.org/2000/svg" xmlns:ev="http://www.w3.org/2001/xml-events" xmlns:xlink="http://www.w3.org/1999/xlink"><defs /><rect fill="white" height="41.934703374281526" width="46.26483228057623" x="0" y="0" /><path d="M12.983675859868526, 15.825323164463043 m-4.465445876121521, -0.9472157806158066 l-2.9769638180732727, -2.8416472673416138 -0.5412661656737328, -1.4884819090366364 l0.1353165414184332, -2.30038121342659 1.7591150104999542, -2.029748111963272 l2.8416472673416138, -1.2178488820791245 1.6237984597682953, 0.0 l1.7591150104999542, 0.8118992298841476 2.706330716609955, 3.1122803688049316 l1.0825323313474655, 3.9241796731948853 m-0.2706330828368664, 0.1353165414184332 l2.30038121342659, -2.8416472673416138 2.30038121342659, -1.6237984597682953 l2.571014165878296, -1.0825323313474655 2.571014165878296, -0.1353165414184332 l1.4884819090366364, 0.2706330828368664 1.6237984597682953, 1.0825323313474655 l1.2178488820791245, 3.7888631224632263 0.1353165414184332, 2.165064662694931 l0.2706330828368664, -2.8416472673416138 1.4884819090366364, -2.30038121342659 l3.6535465717315674, -2.30038121342659 2.9769638180732727, -0.1353165414184332 l1.7591150104999542, 1.8944315612316132 0.2706330828368664, 2.30038121342659 l-0.4059496149420738, 1.6237984597682953 -3.6535465717315674, 3.2475969195365906 l-0.6765826791524887, 0.2706330828368664 -0.2706330828368664, -0.5412661656737328 m-23.545079231262207, -0.5412661656737328 l0.0, 0.0 m0.0, 0.0 l-2.8416472673416138, 2.30038121342659 -1.7591150104999542, 2.9769638180732727 l-0.4059496149420738, 5.006712079048157 0.8118992298841476, 3.5182300209999084 l1.7591150104999542, 2.8416472673416138 3.9241796731948853, 2.9769638180732727 l4.330129325389862, 1.6237984597682953 3.5182300209999084, 0.4059496149420738 l2.30038121342659, -0.2706330828368664 4.60076242685318, -2.165064662694931 l2.9769638180732727, -1.8944315612316132 2.8416472673416138, -3.1122803688049316 l0.8118992298841476, -3.1122803688049316 -0.1353165414184332, -2.9769638180732727 l-3.1122803688049316, -6.495193839073181 2.435697764158249, -1.0825323313474655 m-21.24469757080078, -2.706330716609955 l-1.0825323313474655, -2.029748111963272 " fill="none" stroke="black" stroke-width="1" /></svg>