<?xml version="1.0" encoding="utf-8" ?>
<svg baseProfile="full" height="72.11029414087534" version="1.1" width="45.45293349772692" xmlns="http://www.w3.org/2000/svg" xmlns:ev="http://www.w3.org/2001/xml-events" xmlns:xlink="http://www.w3.org/1999/xlink"><defs /><rect fill="white" height="72.11029414087534" width="45.45293349772692" x="0" y="0" /><path d="M26.515329461544752, 6.48848183453083 m-0.2706330828368664, -0.8118992298841476 l-1.4884819090366364, -0.5412661656737328 -3.3829134702682495, 0.0 l-3.1122803688049316, 0.8118992298841476 -1.4884819090366364, 0.9472157806158066 l-3.5182300209999084, 4.60076242685318 -1.0825323313474655, 3.7888631224632263 l0.0, 4.330129325389862 1.7591150104999542, 3.6535465717315674 l3.9241796731948853, 2.8416472673416138 1.4884819090366364, 0.2706330828368664 l5.81861138343811, -0.2706330828368664 4.465445876121521, -1.7591150104999542 l4.60076242685318, -4.194812774658203 1.8944315612316132, -3.2475969195365906 l0.5412661656737328, -2.9769638180732727 -0.4059496149420738, -1.7591150104999542 l-3.3829134702682495, -4.330129325389862 -2.706330716609955, -1.6237984597682953 l-2.029748111963272, -0.6765826791524887 -2.8416472673416138, -0.5412661656737328 l-1.0825323313474655, 0.4059496149420738 m-7.7130430936813354, 20.297482013702393 l-2.8416472673416138, 0.0 -1.8944315612316132, 1.0825323313474655 l-3.1122803688049316, 3.6535465717315674 -1.6237984597682953, 2.8416472673416138 l-1.2178488820791245, 4.059496223926544 -0.8118992298841476, 6.224560737609863 l0.0, 4.330129325389862 0.8118992298841476, 3.2475969195365906 l1.8944315612316132, 2.571014165878296 3.5182300209999084, 1.2178488820791245 l8.118992447853088, 0.4059496149420738 6.224560737609863, -1.3531653583049774 l5.006712079048157, -2.571014165878296 2.9769638180732727, -2.8416472673416138 l3.9241796731948853, -5.277345180511475 2.435697764158249, -5.81861138343811 l0.5412661656737328, -6.495193839073181 -0.6765826791524887, -3.3829134702682495 l-2.435697764158249, -5.81861138343811 -0.6765826791524887, -0.8118992298841476 l-1.6237984597682953, -0.5412661656737328 m-25.3041934967041, 33.017237186431885 l-1.4884819090366364, 8.930891752243042 0.0, 4.736078977584839 l2.029748111963272, -1.8944315612316132 3.7888631224632263, -1.0825323313474655 m-3.9241796731948853, 0.8118992298841476 l0.8118992298841476, 0.8118992298841476 3.9241796731948853, 0.1353165414184332 l2.029748111963272, -0.4059496149420738 0.5412661656737328, -0.6765826791524887 l0.0, -4.871395528316498 -0.9472157806158066, -7.036460041999817 l0.4059496149420738, 0.0 m7.8483593463897705, 2.029748111963272 l-1.3531653583049774, 10.960639715194702 2.706330716609955, 0.4059496149420738 l7.8483593463897705, -2.165064662694931 -0.4059496149420738, -4.871395528316498 l-0.9472157806158066, -5.006712079048157 -1.0825323313474655, -3.1122803688049316 l0.4059496149420738, -0.2706330828368664 " fill="none" stroke="black" stroke-width="1" /></svg>