<?xml version="1.0" encoding="utf-8" ?>
<svg baseProfile="full" height="56.5488906390965" version="1.1" width="48.97116388194263" xmlns="http://www.w3.org/2000/svg" xmlns:ev="http://www.w3.org/2001/xml-events" xmlns:xlink="http://www.w3.org/1999/xlink"><defs /><rect fill="white" height="56.5488906390965" width="48.97116388194263" x="0" y="0" /><path d="M15.554690444841981, 16.637223530560732 m-3.5182300209999084, 3.9241796731948853 l-3.7888631224632263, 5.6832945346832275 -1.0825323313474655, 5.81861138343811 l0.1353165414184332, 6.224560737609863 0.5412661656737328, 1.8944315612316132 l1.7591150104999542, 3.1122803688049316 2.571014165878296, 2.8416472673416138 l5.142028331756592, 3.3829134702682495 5.81861138343811, 2.029748111963272 l1.4884819090366364, 0.0 9.472157955169678, -3.2475969195365906 l4.60076242685318, -0.8118992298841476 3.1122803688049316, -4.330129325389862 l2.029748111963272, -4.871395528316498 0.1353165414184332, -9.20152485370636 l-2.571014165878296, -5.81861138343811 -5.006712079048157, -6.901143789291382 l-8.524942398071289, -7.1717768907547 -1.3531653583049774, -0.4059496149420738 l-5.006712079048157, 0.0 -4.60076242685318, 2.30038121342659 l-3.1122803688049316, 2.165064662694931 -1.4884819090366364, 2.029748111963272 l-0.1353165414184332, 1.0825323313474655 m-2.9769638180732727, 10.148741006851196 l-2.165064662694931, -4.465445876121521 -1.4884819090366364, -4.871395528316498 l-0.5412661656737328, -3.3829134702682495 0.1353165414184332, -2.165064662694931 l1.7591150104999542, -3.6535465717315674 2.8416472673416138, -2.435697764158249 l1.3531653583049774, -0.2706330828368664 0.8118992298841476, 1.3531653583049774 l0.5412661656737328, 3.1122803688049316 0.4059496149420738, 2.8416472673416138 l-0.1353165414184332, 3.3829134702682495 m18.538366556167603, -6.630510687828064 l3.3829134702682495, -3.5182300209999084 1.4884819090366364, -0.8118992298841476 l3.6535465717315674, 0.0 1.3531653583049774, 0.8118992298841476 l1.3531653583049774, 2.029748111963272 -0.1353165414184332, 2.9769638180732727 l-2.029748111963272, 5.006712079048157 -2.706330716609955, 3.5182300209999084 l-0.9472157806158066, 0.0 m-1.7591150104999542, -5.6832945346832275 l0.1353165414184332, -0.9472157806158066 2.571014165878296, -2.571014165878296 l0.5412661656737328, 0.6765826791524887 0.0, 2.30038121342659 l-2.30038121342659, 3.7888631224632263 -1.3531653583049774, 0.8118992298841476 m-24.76292610168457, 2.029748111963272 l-0.6765826791524887, -4.194812774658203 1.3531653583049774, -1.0825323313474655 l1.2178488820791245, 1.3531653583049774 2.165064662694931, 4.059496223926544 " fill="none" stroke="black" stroke-width="1" /></svg>