<?xml version="1.0" encoding="utf-8" ?>
<svg baseProfile="full" height="68.45674523152411" version="1.1" width="78.47017014399171" xmlns="http://www.w3.org/2000/svg" xmlns:ev="http://www.w3.org/2001/xml-events" xmlns:xlink="http://www.w3.org/1999/xlink"><defs /><rect fill="white" height="68.45674523152411" width="78.47017014399171" x="0" y="0" /><path d="M9.871395789086819, 47.489393623545766 m0.9472157806158066, 6.495193839073181 l0.0, 7.577726244926453 2.9769638180732727, 0.1353165414184332 l6.359877586364746, -1.2178488820791245 0.4059496149420738, -6.765826940536499 l1.2178488820791245, -4.330129325389862 3.6535465717315674, -5.5479782819747925 l0.9472157806158066, -0.8118992298841476 1.3531653583049774, -0.1353165414184332 l1.0825323313474655, 0.5412661656737328 1.4884819090366364, 3.1122803688049316 l7.442409992218018, 7.983676195144653 1.4884819090366364, 5.6832945346832275 l1.3531653583049774, 1.6237984597682953 2.165064662694931, 1.6237984597682953 l3.6535465717315674, -1.7591150104999542 2.435697764158249, -1.6237984597682953 l2.30038121342659, -5.81861138343811 -0.9472157806158066, -7.8483593463897705 l-0.2706330828368664, -15.155452489852905 2.435697764158249, -0.6765826791524887 l3.1122803688049316, 0.0 8.660258650779724, 2.9769638180732727 l2.8416472673416138, 0.2706330828368664 5.5479782819747925, -0.2706330828368664 l0.9472157806158066, -9.472157955169678 -0.1353165414184332, -7.442409992218018 l-1.8944315612316132, -2.8416472673416138 -1.4884819090366364, -0.6765826791524887 l-6.765826940536499, 0.0 -5.142028331756592, 1.0825323313474655 l-3.5182300209999084, 0.1353165414184332 -4.736078977584839, -1.4884819090366364 l-8.524942398071289, -1.4884819090366364 -10.148741006851196, -0.2706330828368664 l-2.029748111963272, 0.5412661656737328 -5.006712079048157, 3.2475969195365906 l-5.142028331756592, 4.330129325389862 -5.41266143321991, 8.389625549316406 l-4.330129325389862, 13.531653881072998 0.1353165414184332, 5.41266143321991 m51.690917015075684, -33.15255165100098 l-0.1353165414184332, -6.224560737609863 1.4884819090366364, -1.8944315612316132 l1.4884819090366364, -0.2706330828368664 0.6765826791524887, 0.2706330828368664 l0.5412661656737328, 0.9472157806158066 0.0, 5.006712079048157 m-53.99129867553711, 20.297482013702393 l-3.3829134702682495, 0.1353165414184332 -2.571014165878296, 0.6765826791524887 l-0.1353165414184332, 2.9769638180732727 0.6765826791524887, 1.4884819090366364 l1.7591150104999542, 0.1353165414184332 2.435697764158249, -1.3531653583049774 l1.3531653583049774, -1.4884819090366364 0.8118992298841476, -2.029748111963272 l-0.5412661656737328, -0.1353165414184332 m52.773451805114746, -15.832035541534424 l-0.6765826791524887, 0.0 -0.5412661656737328, 1.6237984597682953 l0.0, 0.8118992298841476 0.8118992298841476, 0.2706330828368664 l1.4884819090366364, -0.2706330828368664 0.6765826791524887, -1.4884819090366364 l-1.4884819090366364, -0.8118992298841476 -2.165064662694931, -0.1353165414184332 m-27.875206470489502, 35.4529333114624 l0.0, 5.142028331756592 1.6237984597682953, 0.8118992298841476 l4.465445876121521, -0.1353165414184332 " fill="none" stroke="black" stroke-width="1" /></svg>