<?xml version="1.0" encoding="utf-8" ?>
<svg baseProfile="full" height="38.145840456709266" version="1.1" width="34.08634382300079" xmlns="http://www.w3.org/2000/svg" xmlns:ev="http://www.w3.org/2001/xml-events" xmlns:xlink="http://www.w3.org/1999/xlink"><defs /><rect fill="white" height="38.145840456709266" width="34.08634382300079" x="0" y="0" /><path d="M15.825323555618525, 10.277345012873411 m0.8118992298841476, -2.8416472673416138 l2.165064662694931, -2.165064662694931 0.8118992298841476, -0.2706330828368664 l2.8416472673416138, 0.2706330828368664 0.0, 1.8944315612316132 m-6.359877586364746, 2.571014165878296 l-0.5412661656737328, 4.059496223926544 -0.9472157806158066, 1.2178488820791245 l-2.165064662694931, -0.2706330828368664 -5.006712079048157, -2.706330716609955 l-1.4884819090366364, 0.0 -0.6765826791524887, 0.4059496149420738 l-0.2706330828368664, 2.8416472673416138 0.6765826791524887, 1.3531653583049774 l3.1122803688049316, 1.0825323313474655 3.5182300209999084, 0.4059496149420738 l0.4059496149420738, 0.6765826791524887 -0.9472157806158066, 2.9769638180732727 l-1.3531653583049774, 9.742791056632996 0.6765826791524887, 0.4059496149420738 l1.3531653583049774, -0.8118992298841476 1.0825323313474655, -1.3531653583049774 l1.2178488820791245, -2.706330716609955 1.4884819090366364, -0.5412661656737328 l0.0, 4.465445876121521 0.4059496149420738, 0.6765826791524887 l1.4884819090366364, 1.3531653583049774 2.165064662694931, 0.1353165414184332 l0.4059496149420738, -0.6765826791524887 2.165064662694931, -13.531653881072998 l5.41266143321991, -1.2178488820791245 0.6765826791524887, -0.5412661656737328 l0.1353165414184332, -0.8118992298841476 -0.4059496149420738, -2.029748111963272 l-1.3531653583049774, -0.8118992298841476 -2.029748111963272, -0.1353165414184332 l-2.165064662694931, 0.9472157806158066 " fill="none" stroke="black" stroke-width="1" /></svg>