<?xml version="1.0" encoding="utf-8" ?>
<svg baseProfile="full" height="53.03065928630531" version="1.1" width="56.684207394719124" xmlns="http://www.w3.org/2000/svg" xmlns:ev="http://www.w3.org/2001/xml-events" xmlns:xlink="http://www.w3.org/1999/xlink"><defs /><rect fill="white" height="53.03065928630531" width="56.684207394719124" x="0" y="0" /><path d="M25.297480961307883, 48.03065928630531 m-7.036460041999817, -5.41266143321991 l-1.2178488820791245, -1.6237984597682953 -1.6237984597682953, -5.277345180511475 l-0.1353165414184332, -4.60076242685318 1.7591150104999542, -4.194812774658203 l2.435697764158249, -3.9241796731948853 2.571014165878296, -2.8416472673416138 l1.6237984597682953, -1.0825323313474655 2.706330716609955, -0.6765826791524887 l2.029748111963272, 0.0 2.165064662694931, 0.9472157806158066 l1.7591150104999542, 1.6237984597682953 2.706330716609955, 4.059496223926544 l0.9472157806158066, 3.3829134702682495 -2.435697764158249, 13.802287578582764 l-3.3829134702682495, 5.006712079048157 -0.6765826791524887, 0.2706330828368664 l-2.30038121342659, -0.5412661656737328 -2.706330716609955, 0.5412661656737328 m0.1353165414184332, -7.307093143463135 l-1.8944315612316132, -1.3531653583049774 -2.165064662694931, -4.059496223926544 l-0.5412661656737328, -2.435697764158249 0.0, -3.7888631224632263 l0.9472157806158066, -1.8944315612316132 2.706330716609955, -2.30038121342659 l1.4884819090366364, -0.6765826791524887 2.165064662694931, 0.8118992298841476 l1.3531653583049774, 1.8944315612316132 0.6765826791524887, 2.571014165878296 l0.4059496149420738, 6.089244484901428 -0.2706330828368664, 1.2178488820791245 l-0.6765826791524887, 0.6765826791524887 -2.9769638180732727, 2.029748111963272 l-2.9769638180732727, 1.4884819090366364 -0.6765826791524887, -0.1353165414184332 m-1.6237984597682953, -20.026848316192627 l-1.4884819090366364, -1.0825323313474655 -1.0825323313474655, -2.435697764158249 l-0.4059496149420738, -2.706330716609955 0.5412661656737328, -1.8944315612316132 l3.9241796731948853, -2.571014165878296 5.277345180511475, -2.435697764158249 l3.7888631224632263, 0.2706330828368664 1.6237984597682953, 2.435697764158249 l1.0825323313474655, 4.330129325389862 0.1353165414184332, 2.706330716609955 l-0.1353165414184332, 0.6765826791524887 -1.3531653583049774, 0.2706330828368664 l-0.6765826791524887, 0.9472157806158066 m-12.990387678146362, -8.389625549316406 l0.0, -3.6535465717315674 1.3531653583049774, -0.2706330828368664 l1.4884819090366364, 2.435697764158249 m9.066208004951477, -1.3531653583049774 l2.435697764158249, -2.571014165878296 0.8118992298841476, 0.0 l1.2178488820791245, 1.3531653583049774 0.4059496149420738, 1.3531653583049774 l-0.1353165414184332, 0.6765826791524887 -2.029748111963272, 0.6765826791524887 m-16.779251098632812, 17.185200452804565 l-3.9241796731948853, -3.1122803688049316 -2.30038121342659, -0.5412661656737328 l-5.142028331756592, -0.2706330828368664 -0.2706330828368664, 0.8118992298841476 l1.8944315612316132, 9.607474207878113 0.5412661656737328, 1.6237984597682953 l1.3531653583049774, 1.6237984597682953 4.465445876121521, 0.4059496149420738 l4.330129325389862, -0.4059496149420738 2.029748111963272, -0.6765826791524887 m16.508618593215942, -9.066208004951477 l7.983676195144653, -4.059496223926544 3.1122803688049316, -0.9472157806158066 l3.9241796731948853, -0.4059496149420738 0.5412661656737328, 1.0825323313474655 l-0.4059496149420738, 3.1122803688049316 -1.6237984597682953, 1.6237984597682953 l-2.165064662694931, 0.8118992298841476 -7.1717768907547, 0.5412661656737328 l-2.8416472673416138, 0.6765826791524887 " fill="none" stroke="black" stroke-width="1" /></svg>