<?xml version="1.0" encoding="utf-8" ?>
<svg baseProfile="full" height="99.71486773341894" version="1.1" width="69.6745937038213" xmlns="http://www.w3.org/2000/svg" xmlns:ev="http://www.w3.org/2001/xml-events" xmlns:xlink="http://www.w3.org/1999/xlink"><defs /><rect fill="white" height="99.71486773341894" width="69.6745937038213" x="0" y="0" /><path d="M43.700530882924795, 5.67658388055861 m-5.277345180511475, 0.5412661656737328 l-4.059496223926544, 2.435697764158249 -2.571014165878296, 2.165064662694931 l-4.871395528316498, 5.81861138343811 -2.30038121342659, 3.6535465717315674 l-1.4884819090366364, 3.6535465717315674 -0.6765826791524887, 2.9769638180732727 l0.0, 2.571014165878296 0.9472157806158066, 2.165064662694931 l1.8944315612316132, 1.7591150104999542 2.9769638180732727, 1.4884819090366364 l3.5182300209999084, 1.0825323313474655 4.059496223926544, 0.6765826791524887 l4.465445876121521, 0.1353165414184332 5.006712079048157, -0.6765826791524887 l4.60076242685318, -1.4884819090366364 4.059496223926544, -2.165064662694931 l3.3829134702682495, -2.706330716609955 2.8416472673416138, -3.1122803688049316 l1.6237984597682953, -3.2475969195365906 0.6765826791524887, -3.5182300209999084 l0.0, -3.1122803688049316 -1.3531653583049774, -2.9769638180732727 l-2.435697764158249, -2.30038121342659 -3.3829134702682495, -2.165064662694931 l-5.6832945346832275, -1.8944315612316132 m-23.27444553375244, 25.16887664794922 l-0.8118992298841476, 0.5412661656737328 -1.0825323313474655, 2.029748111963272 l-3.9241796731948853, 9.066208004951477 -2.30038121342659, 7.8483593463897705 l-0.9472157806158066, 7.8483593463897705 0.1353165414184332, 7.577726244926453 l1.6237984597682953, 6.630510687828064 4.60076242685318, 12.449121475219727 l2.9769638180732727, 5.006712079048157 1.6237984597682953, 1.7591150104999542 l1.8944315612316132, 0.9472157806158066 2.029748111963272, 0.4059496149420738 l5.277345180511475, 0.0 m9.336841106414795, 0.0 l1.0825323313474655, -0.4059496149420738 9.607474207878113, -15.155452489852905 l3.7888631224632263, -6.495193839073181 2.706330716609955, -7.036460041999817 l0.6765826791524887, -7.7130430936813354 -1.0825323313474655, -7.983676195144653 l-1.4884819090366364, -6.630510687828064 -2.8416472673416138, -6.089244484901428 l-1.3531653583049774, -1.2178488820791245 -2.30038121342659, -0.9472157806158066 m-30.175588130950928, -15.426086187362671 l-0.5412661656737328, -0.6765826791524887 -0.1353165414184332, -8.118992447853088 l1.7591150104999542, -0.9472157806158066 1.2178488820791245, -0.1353165414184332 l4.465445876121521, 0.2706330828368664 m21.24469757080078, -0.8118992298841476 l0.1353165414184332, -0.6765826791524887 2.8416472673416138, -0.1353165414184332 l1.0825323313474655, 0.2706330828368664 2.029748111963272, 1.4884819090366364 l1.8944315612316132, 2.8416472673416138 0.1353165414184332, 2.435697764158249 l-0.5412661656737328, 1.3531653583049774 m-17.997100353240967, -11.501905918121338 l5.5479782819747925, -0.2706330828368664 2.029748111963272, 1.2178488820791245 m5.277345180511475, 2.029748111963272 l1.7591150104999542, -0.6765826791524887 4.059496223926544, -0.1353165414184332 l1.4884819090366364, 0.9472157806158066 0.6765826791524887, 2.706330716609955 l0.0, 3.9241796731948853 -1.3531653583049774, 4.194812774658203 l-1.3531653583049774, 2.571014165878296 m-33.69381904602051, 22.868494987487793 l-5.142028331756592, 0.9472157806158066 -7.8483593463897705, 2.706330716609955 l-8.930891752243042, 7.8483593463897705 -0.5412661656737328, 0.6765826791524887 l0.0, 2.8416472673416138 0.2706330828368664, 1.0825323313474655 l1.2178488820791245, 1.2178488820791245 2.8416472673416138, 0.1353165414184332 l4.330129325389862, -1.3531653583049774 " fill="none" stroke="black" stroke-width="1" /></svg>