<?xml version="1.0" encoding="utf-8" ?>
<svg baseProfile="full" height="40.58153837919235" version="1.1" width="61.014336198568344" xmlns="http://www.w3.org/2000/svg" xmlns:ev="http://www.w3.org/2001/xml-events" xmlns:xlink="http://www.w3.org/1999/xlink"><defs /><rect fill="white" height="40.58153837919235" width="61.014336198568344" x="0" y="0" /><path d="M51.27825742587447, 13.389625996351242 m-0.5412661656737328, -0.6765826791524887 l-1.4884819090366364, -0.1353165414184332 -1.8944315612316132, 1.4884819090366364 l-1.2178488820791245, 4.465445876121521 0.4059496149420738, 5.006712079048157 l1.3531653583049774, 3.1122803688049316 1.0825323313474655, 0.9472157806158066 l1.7591150104999542, -0.8118992298841476 2.9769638180732727, -2.9769638180732727 l1.2178488820791245, -4.465445876121521 0.0, -3.2475969195365906 l-1.3531653583049774, -3.2475969195365906 -1.7591150104999542, -0.8118992298841476 m-2.30038121342659, 1.7591150104999542 l-2.706330716609955, -1.2178488820791245 -0.9472157806158066, -1.3531653583049774 l0.0, -0.6765826791524887 1.0825323313474655, -1.2178488820791245 l1.3531653583049774, -0.2706330828368664 1.3531653583049774, 1.0825323313474655 l0.4059496149420738, 1.2178488820791245 m1.6237984597682953, -0.1353165414184332 l1.2178488820791245, -3.5182300209999084 0.6765826791524887, -0.6765826791524887 l1.3531653583049774, -0.2706330828368664 0.8118992298841476, 0.2706330828368664 l0.2706330828368664, 1.3531653583049774 -1.2178488820791245, 3.2475969195365906 m-8.660258650779724, 11.366589069366455 l-2.029748111963272, 2.706330716609955 -4.60076242685318, 3.9241796731948853 l-3.2475969195365906, 2.029748111963272 -14.3435537815094, 3.5182300209999084 l-2.435697764158249, 0.4059496149420738 -5.41266143321991, 0.0 l-3.9241796731948853, -1.0825323313474655 -4.465445876121521, -7.036460041999817 l-0.6765826791524887, -4.736078977584839 0.5412661656737328, -2.165064662694931 l2.165064662694931, -3.1122803688049316 7.7130430936813354, -7.442409992218018 l5.277345180511475, -3.7888631224632263 4.330129325389862, -1.2178488820791245 l3.7888631224632263, 0.1353165414184332 8.118992447853088, 2.435697764158249 l2.8416472673416138, 1.4884819090366364 6.089244484901428, 5.5479782819747925 l0.9472157806158066, 0.5412661656737328 0.6765826791524887, -0.2706330828368664 l-0.1353165414184332, 0.6765826791524887 m-41.54217720031738, 5.81861138343811 l-0.6765826791524887, -0.2706330828368664 " fill="none" stroke="black" stroke-width="1" /></svg>