<?xml version="1.0" encoding="utf-8" ?>
<svg baseProfile="full" height="71.56902557238936" version="1.1" width="74.2753587756306" xmlns="http://www.w3.org/2000/svg" xmlns:ev="http://www.w3.org/2001/xml-events" xmlns:xlink="http://www.w3.org/1999/xlink"><defs /><rect fill="white" height="71.56902557238936" width="74.2753587756306" x="0" y="0" /><path d="M14.607474459335208, 5.270633082836866 m-5.277345180511475, -0.2706330828368664 l-2.165064662694931, 0.6765826791524887 -1.4884819090366364, 1.0825323313474655 l-0.5412661656737328, 0.8118992298841476 -0.1353165414184332, 1.8944315612316132 l0.9472157806158066, 0.9472157806158066 3.2475969195365906, 1.0825323313474655 l3.3829134702682495, -0.1353165414184332 2.30038121342659, -1.7591150104999542 l0.4059496149420738, -2.706330716609955 -1.3531653583049774, -1.3531653583049774 l-1.3531653583049774, -0.2706330828368664 m39.24179792404175, 0.6765826791524887 l-8.524942398071289, -0.2706330828368664 -3.6535465717315674, 1.4884819090366364 l-0.6765826791524887, 0.9472157806158066 0.0, 1.0825323313474655 l1.3531653583049774, 1.3531653583049774 1.8944315612316132, 0.6765826791524887 l4.60076242685318, 0.1353165414184332 1.6237984597682953, -0.4059496149420738 l1.6237984597682953, -1.2178488820791245 0.4059496149420738, -1.0825323313474655 l-0.2706330828368664, -1.2178488820791245 -1.4884819090366364, -1.0825323313474655 l-2.165064662694931, -0.6765826791524887 -5.81861138343811, 0.5412661656737328 m-0.4059496149420738, 4.465445876121521 l-4.465445876121521, -0.8118992298841476 -8.389625549316406, 0.5412661656737328 l-11.501905918121338, 3.5182300209999084 -2.30038121342659, 1.2178488820791245 l-2.706330716609955, 3.5182300209999084 -0.5412661656737328, 2.029748111963272 l0.1353165414184332, 4.059496223926544 1.7591150104999542, 3.1122803688049316 l1.8944315612316132, 2.165064662694931 1.7591150104999542, 1.2178488820791245 l4.871395528316498, 1.3531653583049774 7.442409992218018, 0.1353165414184332 l8.795575499534607, -1.7591150104999542 5.006712079048157, -2.165064662694931 l2.165064662694931, -1.6237984597682953 1.8944315612316132, -2.706330716609955 l0.5412661656737328, -3.1122803688049316 0.0, -3.1122803688049316 l-1.0825323313474655, -2.706330716609955 -1.6237984597682953, -1.6237984597682953 l-3.9241796731948853, -2.30038121342659 -3.5182300209999084, -1.3531653583049774 l-4.330129325389862, -0.8118992298841476 -7.1717768907547, 0.0 l-5.142028331756592, 1.2178488820791245 -4.736078977584839, 2.029748111963272 m16.508618593215942, 20.568113327026367 l-8.660258650779724, 0.1353165414184332 -5.6832945346832275, 2.30038121342659 l-2.9769638180732727, 2.165064662694931 -1.3531653583049774, 1.6237984597682953 l-0.5412661656737328, 1.8944315612316132 0.4059496149420738, 3.2475969195365906 l5.81861138343811, 11.095956563949585 2.30038121342659, 3.2475969195365906 l4.871395528316498, 3.6535465717315674 4.736078977584839, 1.8944315612316132 l3.6535465717315674, 0.8118992298841476 10.82532286643982, 1.2178488820791245 l8.118992447853088, 0.0 3.3829134702682495, -0.2706330828368664 l3.1122803688049316, -0.8118992298841476 4.059496223926544, -1.7591150104999542 l3.3829134702682495, -3.5182300209999084 1.6237984597682953, -3.5182300209999084 l0.5412661656737328, -2.571014165878296 -0.1353165414184332, -3.9241796731948853 l-1.2178488820791245, -2.706330716609955 -3.9241796731948853, -4.871395528316498 l-3.7888631224632263, -2.9769638180732727 -3.3829134702682495, -1.7591150104999542 l-5.81861138343811, -2.706330716609955 -4.059496223926544, -1.2178488820791245 l-9.607474207878113, -0.4059496149420738 -12.178488969802856, 1.7591150104999542 l-7.036460041999817, 1.6237984597682953 -5.277345180511475, 1.8944315612316132 l-2.029748111963272, 1.4884819090366364 " fill="none" stroke="black" stroke-width="1" /></svg>