<?xml version="1.0" encoding="utf-8" ?>
<svg baseProfile="full" height="67.78016186319292" version="1.1" width="52.895343750715256" xmlns="http://www.w3.org/2000/svg" xmlns:ev="http://www.w3.org/2001/xml-events" xmlns:xlink="http://www.w3.org/1999/xlink"><defs /><rect fill="white" height="67.78016186319292" width="52.895343750715256" x="0" y="0" /><path d="M26.10938085243106, 22.320517050102353 m-6.224560737609863, 4.194812774658203 l-3.5182300209999084, 4.330129325389862 -2.165064662694931, 5.6832945346832275 l0.0, 6.765826940536499 0.6765826791524887, 2.165064662694931 l1.3531653583049774, 1.6237984597682953 3.3829134702682495, 2.9769638180732727 l2.029748111963272, 1.0825323313474655 2.571014165878296, 0.5412661656737328 l5.953927636146545, -0.1353165414184332 2.9769638180732727, -0.9472157806158066 l4.60076242685318, -4.059496223926544 1.4884819090366364, -4.465445876121521 l0.0, -3.1122803688049316 -2.165064662694931, -7.983676195144653 l-2.571014165878296, -4.871395528316498 -3.7888631224632263, -2.165064662694931 l-6.089244484901428, -1.3531653583049774 m-5.6832945346832275, 5.5479782819747925 l-0.9472157806158066, 0.1353165414184332 -0.5412661656737328, -0.6765826791524887 l-2.165064662694931, -10.284056663513184 0.2706330828368664, -3.3829134702682495 l1.7591150104999542, -2.165064662694931 1.3531653583049774, -0.8118992298841476 l5.006712079048157, -2.30038121342659 3.7888631224632263, -0.2706330828368664 l1.4884819090366364, 0.5412661656737328 2.029748111963272, 1.7591150104999542 l1.6237984597682953, 2.435697764158249 1.8944315612316132, 6.765826940536499 m-13.125704526901245, 28.010523319244385 l-1.7591150104999542, 1.4884819090366364 -4.871395528316498, 7.577726244926453 l-0.4059496149420738, 2.9769638180732727 0.6765826791524887, 2.165064662694931 l1.3531653583049774, 0.6765826791524887 3.2475969195365906, 0.0 l3.1122803688049316, -2.8416472673416138 1.8944315612316132, -4.194812774658203 l0.2706330828368664, -3.5182300209999084 m9.87810730934143, -0.5412661656737328 l1.4884819090366364, 3.7888631224632263 3.2475969195365906, 4.465445876121521 l2.165064662694931, 0.9472157806158066 2.9769638180732727, 0.0 l0.5412661656737328, -2.9769638180732727 -0.8118992298841476, -2.706330716609955 l-1.3531653583049774, -2.30038121342659 -1.8944315612316132, -1.6237984597682953 l-1.7591150104999542, -0.5412661656737328 m-11.90785527229309, -18.267732858657837 l-1.6237984597682953, 0.9472157806158066 -1.4884819090366364, 2.029748111963272 l-1.7591150104999542, 2.8416472673416138 0.0, 0.9472157806158066 l2.706330716609955, 0.8118992298841476 5.277345180511475, -0.6765826791524887 l0.9472157806158066, -1.0825323313474655 0.1353165414184332, -0.8118992298841476 l0.0, -1.0825323313474655 -0.8118992298841476, -1.2178488820791245 l-3.5182300209999084, -1.2178488820791245 m12.719755172729492, -1.7591150104999542 l0.1353165414184332, -0.6765826791524887 1.8944315612316132, -0.9472157806158066 l2.029748111963272, -0.4059496149420738 2.571014165878296, 0.2706330828368664 l0.6765826791524887, 0.9472157806158066 0.5412661656737328, 3.1122803688049316 l-0.6765826791524887, 1.3531653583049774 -2.571014165878296, 1.7591150104999542 l-2.029748111963272, 0.4059496149420738 m-26.386725902557373, -2.165064662694931 l-8.930891752243042, -0.9472157806158066 -1.6237984597682953, 1.6237984597682953 l-0.6765826791524887, 2.029748111963272 0.1353165414184332, 2.571014165878296 l1.0825323313474655, 1.4884819090366364 1.6237984597682953, 0.6765826791524887 l4.465445876121521, -0.1353165414184332 m10.148741006851196, -23.6803936958313 l2.8416472673416138, 0.5412661656737328 1.4884819090366364, -0.4059496149420738 m-13.66697072982788, -4.194812774658203 l-2.435697764158249, 0.0 -1.7591150104999542, -1.7591150104999542 l-1.0825323313474655, -3.1122803688049316 0.0, -2.9769638180732727 l3.9241796731948853, -2.165064662694931 1.8944315612316132, -0.2706330828368664 l2.706330716609955, 2.571014165878296 m12.449121475219727, 3.3829134702682495 l1.2178488820791245, -3.7888631224632263 2.165064662694931, -1.6237984597682953 l2.571014165878296, -0.6765826791524887 2.029748111963272, 0.1353165414184332 l2.435697764158249, 2.029748111963272 1.6237984597682953, 3.7888631224632263 l0.1353165414184332, 1.0825323313474655 -2.9769638180732727, 2.435697764158249 " fill="none" stroke="black" stroke-width="1" /></svg>