<?xml version="1.0" encoding="utf-8" ?>
<svg baseProfile="full" height="35.71014307439327" version="1.1" width="47.75331515818834" xmlns="http://www.w3.org/2000/svg" xmlns:ev="http://www.w3.org/2001/xml-events" xmlns:xlink="http://www.w3.org/1999/xlink"><defs /><rect fill="white" height="35.71014307439327" width="47.75331515818834" x="0" y="0" /><path d="M24.485582830384374, 10.95392782241106 m-0.8118992298841476, -1.0825323313474655 l-0.1353165414184332, -2.165064662694931 0.4059496149420738, -1.2178488820791245 l1.0825323313474655, -0.9472157806158066 1.7591150104999542, -0.5412661656737328 l0.5412661656737328, 0.2706330828368664 0.6765826791524887, 1.3531653583049774 l0.0, 1.7591150104999542 0.2706330828368664, 0.0 m0.8118992298841476, 0.6765826791524887 l-0.5412661656737328, -0.4059496149420738 1.8944315612316132, -1.2178488820791245 l1.0825323313474655, 0.0 1.2178488820791245, 1.2178488820791245 m0.4059496149420738, 0.5412661656737328 l-0.8118992298841476, -2.8416472673416138 1.2178488820791245, -1.0825323313474655 l0.9472157806158066, 0.0 2.30038121342659, 2.30038121342659 m-8.524942398071289, 10.148741006851196 l1.3531653583049774, 0.9472157806158066 5.41266143321991, -2.029748111963272 l2.8416472673416138, 0.2706330828368664 3.6535465717315674, -0.8118992298841476 l1.2178488820791245, -4.330129325389862 -0.2706330828368664, -1.2178488820791245 l-1.2178488820791245, -0.5412661656737328 -3.9241796731948853, 0.2706330828368664 l-0.2706330828368664, -0.6765826791524887 0.4059496149420738, -0.1353165414184332 m-13.66697072982788, 3.2475969195365906 l-7.442409992218018, -1.6237984597682953 -4.059496223926544, -0.4059496149420738 l-1.7591150104999542, 0.4059496149420738 -3.2475969195365906, 1.7591150104999542 m1.0825323313474655, 1.6237984597682953 l-0.5412661656737328, -0.1353165414184332 -1.6237984597682953, 0.6765826791524887 l-1.2178488820791245, 2.706330716609955 1.6237984597682953, 9.20152485370636 l0.6765826791524887, 2.029748111963272 1.2178488820791245, 1.7591150104999542 l1.7591150104999542, 0.0 0.5412661656737328, -0.4059496149420738 l1.3531653583049774, -6.224560737609863 1.7591150104999542, 0.0 l2.8416472673416138, 0.9472157806158066 2.571014165878296, -0.4059496149420738 l0.6765826791524887, -0.5412661656737328 m1.0825323313474655, -2.571014165878296 " fill="none" stroke="black" stroke-width="1" /></svg>