<?xml version="1.0" encoding="utf-8" ?>
<svg baseProfile="full" height="60.33775310963392" version="1.1" width="82.12371464818716" xmlns="http://www.w3.org/2000/svg" xmlns:ev="http://www.w3.org/2001/xml-events" xmlns:xlink="http://www.w3.org/1999/xlink"><defs /><rect fill="white" height="60.33775310963392" width="82.12371464818716" x="0" y="0" /><path d="M12.713042758405209, 26.244696946814656 m-2.165064662694931, -0.1353165414184332 l-1.3531653583049774, -0.8118992298841476 -3.7888631224632263, -5.006712079048157 l-0.4059496149420738, -1.4884819090366364 0.1353165414184332, -2.706330716609955 l2.029748111963272, -3.1122803688049316 1.4884819090366364, -0.9472157806158066 l5.41266143321991, -0.6765826791524887 2.571014165878296, 0.2706330828368664 l1.6237984597682953, 0.6765826791524887 2.30038121342659, 2.30038121342659 l2.165064662694931, 4.465445876121521 0.2706330828368664, 1.6237984597682953 l0.6765826791524887, 0.4059496149420738 11.90785527229309, -0.1353165414184332 l11.90785527229309, -1.7591150104999542 4.871395528316498, -0.1353165414184332 l2.706330716609955, 0.4059496149420738 0.6765826791524887, -5.81861138343811 l2.8416472673416138, -5.277345180511475 0.6765826791524887, -0.8118992298841476 l3.7888631224632263, -2.30038121342659 2.8416472673416138, -0.2706330828368664 l5.41266143321991, 3.3829134702682495 2.706330716609955, 3.1122803688049316 l1.2178488820791245, 1.7591150104999542 1.7591150104999542, 4.194812774658203 l0.1353165414184332, 1.7591150104999542 -0.4059496149420738, 2.029748111963272 l-2.435697764158249, 4.059496223926544 -2.435697764158249, 1.8944315612316132 l-5.142028331756592, 2.435697764158249 -1.8944315612316132, 2.029748111963272 l-0.2706330828368664, -0.4059496149420738 m-51.5556001663208, -3.3829134702682495 l-1.2178488820791245, 5.5479782819747925 0.0, 4.465445876121521 l0.5412661656737328, 3.3829134702682495 1.6237984597682953, 2.9769638180732727 l4.60076242685318, 4.465445876121521 1.3531653583049774, 0.8118992298841476 l11.095956563949585, 3.9241796731948853 9.336841106414795, 1.8944315612316132 l3.2475969195365906, 0.0 10.284056663513184, -2.571014165878296 l2.435697764158249, -1.0825323313474655 2.30038121342659, -2.706330716609955 l5.142028331756592, -4.465445876121521 1.8944315612316132, -2.8416472673416138 l1.2178488820791245, -3.3829134702682495 -0.5412661656737328, -3.3829134702682495 l-0.4059496149420738, -0.8118992298841476 -0.6765826791524887, -0.2706330828368664 m-39.24179792404175, 0.2706330828368664 l-2.435697764158249, 1.3531653583049774 -0.6765826791524887, 0.9472157806158066 l-0.9472157806158066, 3.9241796731948853 0.2706330828368664, 1.8944315612316132 l1.0825323313474655, 2.435697764158249 2.165064662694931, 1.2178488820791245 l0.6765826791524887, -0.4059496149420738 " fill="none" stroke="black" stroke-width="1" /></svg>