<?xml version="1.0" encoding="utf-8" ?>
<svg baseProfile="full" height="48.02394769154489" version="1.1" width="50.73027833364904" xmlns="http://www.w3.org/2000/svg" xmlns:ev="http://www.w3.org/2001/xml-events" xmlns:xlink="http://www.w3.org/1999/xlink"><defs /><rect fill="white" height="48.02394769154489" width="50.73027833364904" x="0" y="0" /><path d="M40.31761683523655, 17.04317208379507 m0.4059496149420738, -4.194812774658203 l-0.8118992298841476, -0.5412661656737328 -1.4884819090366364, -0.1353165414184332 l-4.330129325389862, 0.1353165414184332 -1.3531653583049774, 0.5412661656737328 l-2.30038121342659, 1.7591150104999542 -1.0825323313474655, 1.6237984597682953 l-0.4059496149420738, 1.7591150104999542 0.5412661656737328, 5.81861138343811 l0.8118992298841476, 3.1122803688049316 0.4059496149420738, 0.8118992298841476 l2.571014165878296, 1.7591150104999542 5.006712079048157, 0.4059496149420738 l6.224560737609863, -1.6237984597682953 1.0825323313474655, -1.4884819090366364 l0.1353165414184332, -2.8416472673416138 -1.2178488820791245, -2.8416472673416138 l-0.1353165414184332, -1.3531653583049774 m-8.118992447853088, -8.254309296607971 l0.0, -0.8118992298841476 2.30038121342659, -2.571014165878296 l1.6237984597682953, -0.6765826791524887 2.706330716609955, -2.435697764158249 l0.8118992298841476, 0.0 -0.4059496149420738, 2.30038121342659 l-2.435697764158249, 3.7888631224632263 -1.4884819090366364, 1.4884819090366364 m4.194812774658203, 7.307093143463135 l-2.30038121342659, -2.571014165878296 m-3.9241796731948853, 2.8416472673416138 l-0.1353165414184332, 0.0 m0.5412661656737328, 3.9241796731948853 l5.006712079048157, 0.2706330828368664 0.6765826791524887, 0.5412661656737328 l2.029748111963272, 0.2706330828368664 m-14.749503135681152, -2.30038121342659 l-8.660258650779724, 0.0 -2.435697764158249, 0.9472157806158066 l-1.8944315612316132, 0.0 -0.5412661656737328, 0.8118992298841476 l-2.30038121342659, 0.5412661656737328 -2.9769638180732727, 1.4884819090366364 l-1.6237984597682953, 1.2178488820791245 -0.1353165414184332, 0.6765826791524887 l-0.6765826791524887, -0.1353165414184332 -0.6765826791524887, 0.5412661656737328 l0.0, 1.4884819090366364 -0.4059496149420738, 0.6765826791524887 l0.8118992298841476, 2.30038121342659 2.9769638180732727, 2.706330716609955 l4.059496223926544, 0.5412661656737328 9.742791056632996, -2.029748111963272 l0.9472157806158066, -0.6765826791524887 4.465445876121521, -1.4884819090366364 l6.495193839073181, -1.7591150104999542 0.2706330828368664, -0.5412661656737328 m-31.122803688049316, -0.4059496149420738 l-2.029748111963272, 0.6765826791524887 1.8944315612316132, 0.5412661656737328 m6.765826940536499, 4.871395528316498 l1.2178488820791245, 3.5182300209999084 0.1353165414184332, 2.029748111963272 l0.5412661656737328, 1.3531653583049774 0.6765826791524887, 0.2706330828368664 m8.389625549316406, -8.118992447853088 l1.4884819090366364, 4.194812774658203 0.1353165414184332, 2.30038121342659 " fill="none" stroke="black" stroke-width="1" /></svg>