<?xml version="1.0" encoding="utf-8" ?>
<svg baseProfile="full" height="85.23599622771144" version="1.1" width="55.19572294317186" xmlns="http://www.w3.org/2000/svg" xmlns:ev="http://www.w3.org/2001/xml-events" xmlns:xlink="http://www.w3.org/1999/xlink"><defs /><rect fill="white" height="85.23599622771144" width="55.19572294317186" x="0" y="0" /><path d="M38.693818747997284, 13.93089228309691 m-0.6765826791524887, -0.5412661656737328 l-9.742791056632996, -1.3531653583049774 -7.577726244926453, 0.5412661656737328 l-4.194812774658203, 1.7591150104999542 -4.059496223926544, 2.706330716609955 l-3.9241796731948853, 3.6535465717315674 -2.435697764158249, 3.7888631224632263 l-1.0825323313474655, 3.5182300209999084 0.5412661656737328, 5.41266143321991 l2.8416472673416138, 2.435697764158249 3.6535465717315674, 1.7591150104999542 l4.330129325389862, 0.9472157806158066 10.960639715194702, 0.2706330828368664 l6.359877586364746, -1.7591150104999542 6.224560737609863, -2.8416472673416138 l4.60076242685318, -3.3829134702682495 1.7591150104999542, -3.6535465717315674 l-0.1353165414184332, -3.7888631224632263 -2.029748111963272, -3.5182300209999084 l-2.435697764158249, -3.1122803688049316 -2.435697764158249, -2.165064662694931 l-2.435697764158249, -1.3531653583049774 -8.524942398071289, -2.706330716609955 l-2.30038121342659, 0.6765826791524887 m-17.45583415031433, 11.366589069366455 l-1.4884819090366364, -11.095956563949585 0.1353165414184332, -5.277345180511475 l3.1122803688049316, -1.0825323313474655 2.30038121342659, -0.1353165414184332 l2.571014165878296, 0.1353165414184332 2.165064662694931, 1.3531653583049774 l2.571014165878296, 3.9241796731948853 0.5412661656737328, 1.6237984597682953 l0.1353165414184332, 2.9769638180732727 m17.185200452804565, -3.6535465717315674 l0.8118992298841476, -1.2178488820791245 5.142028331756592, -2.9769638180732727 l3.9241796731948853, 0.1353165414184332 1.8944315612316132, 2.8416472673416138 l0.6765826791524887, 3.2475969195365906 -0.2706330828368664, 3.2475969195365906 l-3.7888631224632263, 4.871395528316498 -2.9769638180732727, 1.8944315612316132 m-31.2581205368042, 16.102668046951294 l0.1353165414184332, 1.6237984597682953 -1.8944315612316132, 11.095956563949585 l-0.5412661656737328, 5.81861138343811 0.0, 14.61418628692627 l1.0825323313474655, 3.7888631224632263 1.8944315612316132, 2.706330716609955 l3.1122803688049316, 1.0825323313474655 2.571014165878296, 0.0 l8.118992447853088, -3.7888631224632263 8.660258650779724, -5.81861138343811 l6.495193839073181, -5.5479782819747925 3.1122803688049316, -3.2475969195365906 l2.165064662694931, -3.5182300209999084 1.2178488820791245, -3.7888631224632263 l0.6765826791524887, -3.9241796731948853 -0.2706330828368664, -6.765826940536499 l-1.7591150104999542, -6.495193839073181 " fill="none" stroke="black" stroke-width="1" /></svg>