<?xml version="1.0" encoding="utf-8" ?>
<svg baseProfile="full" height="62.23218482919037" version="1.1" width="70.21586023271084" xmlns="http://www.w3.org/2000/svg" xmlns:ev="http://www.w3.org/2001/xml-events" xmlns:xlink="http://www.w3.org/1999/xlink"><defs /><rect fill="white" height="62.23218482919037" width="70.21586023271084" x="0" y="0" /><path d="M12.036459520459175, 30.03356014378369 m0.2706330828368664, -9.607474207878113 l1.0825323313474655, -2.8416472673416138 2.165064662694931, -0.9472157806158066 l19.214948415756226, -3.3829134702682495 12.58443832397461, -0.4059496149420738 l3.5182300209999084, 0.5412661656737328 7.307093143463135, 3.6535465717315674 l4.465445876121521, 5.142028331756592 1.0825323313474655, 3.2475969195365906 l-0.1353165414184332, 7.442409992218018 -0.5412661656737328, 3.9241796731948853 l-1.3531653583049774, 4.60076242685318 -0.5412661656737328, 1.2178488820791245 l-1.2178488820791245, 1.2178488820791245 -7.442409992218018, 3.1122803688049316 l-3.9241796731948853, 0.9472157806158066 -6.765826940536499, 0.6765826791524887 l-18.40304970741272, 5.142028331756592 -8.389625549316406, 3.5182300209999084 l-2.165064662694931, -0.1353165414184332 -3.1122803688049316, -1.2178488820791245 l-2.9769638180732727, -2.8416472673416138 -1.0825323313474655, -1.4884819090366364 l-0.4059496149420738, -1.6237984597682953 0.2706330828368664, -3.6535465717315674 l1.6237984597682953, -6.224560737609863 3.3829134702682495, -9.336841106414795 l1.3531653583049774, -2.435697764158249 m40.18901348114014, -15.426086187362671 l1.4884819090366364, -4.736078977584839 1.3531653583049774, -1.8944315612316132 l6.089244484901428, -0.6765826791524887 3.1122803688049316, 0.2706330828368664 l0.9472157806158066, 1.0825323313474655 0.1353165414184332, 0.8118992298841476 l0.0, 5.006712079048157 -0.4059496149420738, 1.7591150104999542 l-2.571014165878296, 2.571014165878296 m-37.75331497192383, -4.059496223926544 l-12.990387678146362, -7.577726244926453 -1.6237984597682953, -0.4059496149420738 l-1.8944315612316132, 0.2706330828368664 -2.571014165878296, 3.7888631224632263 l-0.4059496149420738, 4.059496223926544 0.5412661656737328, 1.2178488820791245 l2.435697764158249, 2.8416472673416138 3.5182300209999084, 1.6237984597682953 m22.597861289978027, 16.37330174446106 l0.0, -1.6237984597682953 0.8118992298841476, -0.4059496149420738 l0.8118992298841476, 0.2706330828368664 0.4059496149420738, 1.6237984597682953 l-2.435697764158249, 1.0825323313474655 -2.029748111963272, -0.2706330828368664 l-0.1353165414184332, -0.6765826791524887 2.8416472673416138, -0.2706330828368664 l0.6765826791524887, 0.4059496149420738 0.1353165414184332, 0.8118992298841476 l-1.0825323313474655, 0.5412661656737328 -0.5412661656737328, -0.8118992298841476 l-0.1353165414184332, -1.7591150104999542 0.6765826791524887, -0.5412661656737328 l0.9472157806158066, 0.0 0.0, 1.3531653583049774 l-0.9472157806158066, 0.2706330828368664 m0.0, 0.4059496149420738 l1.7591150104999542, 3.9241796731948853 2.706330716609955, 0.6765826791524887 l2.30038121342659, 0.0 2.571014165878296, -2.706330716609955 l1.2178488820791245, -3.1122803688049316 m-9.336841106414795, 1.0825323313474655 l-1.4884819090366364, 1.6237984597682953 -1.6237984597682953, 3.2475969195365906 l-1.4884819090366364, 1.6237984597682953 -5.5479782819747925, 0.2706330828368664 l-1.7591150104999542, -2.165064662694931 0.1353165414184332, -1.2178488820791245 m19.214948415756226, -15.561401844024658 l-1.6237984597682953, 0.0 0.8118992298841476, -0.5412661656737328 l0.8118992298841476, 1.3531653583049774 -0.1353165414184332, 1.0825323313474655 l-1.6237984597682953, 0.4059496149420738 -0.5412661656737328, -1.2178488820791245 l0.0, -1.3531653583049774 0.8118992298841476, -0.6765826791524887 l0.8118992298841476, 0.1353165414184332 0.5412661656737328, 1.7591150104999542 l-0.9472157806158066, 0.5412661656737328 -1.0825323313474655, -1.4884819090366364 l-0.1353165414184332, -0.6765826791524887 0.8118992298841476, 0.4059496149420738 m-14.3435537815094, 2.571014165878296 l0.1353165414184332, -1.4884819090366364 1.6237984597682953, -0.5412661656737328 l1.0825323313474655, 0.2706330828368664 0.9472157806158066, 0.9472157806158066 l0.4059496149420738, 1.8944315612316132 -0.6765826791524887, 0.5412661656737328 l-3.9241796731948853, -0.1353165414184332 -0.2706330828368664, -0.9472157806158066 l0.4059496149420738, -0.8118992298841476 2.029748111963272, -0.1353165414184332 l0.4059496149420738, 1.0825323313474655 -0.2706330828368664, 0.8118992298841476 l-1.8944315612316132, 0.1353165414184332 -1.0825323313474655, -1.0825323313474655 l-0.2706330828368664, -1.7591150104999542 0.4059496149420738, -0.6765826791524887 l0.8118992298841476, 0.0 0.9472157806158066, 0.4059496149420738 l0.4059496149420738, 1.4884819090366364 0.0, -1.0825323313474655 l0.4059496149420738, 0.9472157806158066 -0.9472157806158066, 0.5412661656737328 " fill="none" stroke="black" stroke-width="1" /></svg>