<?xml version="1.0" encoding="utf-8" ?>
<svg baseProfile="full" height="40.446221362799406" version="1.1" width="67.50952892936766" xmlns="http://www.w3.org/2000/svg" xmlns:ev="http://www.w3.org/2001/xml-events" xmlns:xlink="http://www.w3.org/1999/xlink"><defs /><rect fill="white" height="40.446221362799406" width="67.50952892936766" x="0" y="0" /><path d="M58.58535086736083, 16.366589404642582 m-0.6765826791524887, -0.8118992298841476 l-1.3531653583049774, -4.60076242685318 -1.2178488820791245, -1.3531653583049774 l-2.165064662694931, -1.0825323313474655 -3.5182300209999084, 0.1353165414184332 l-1.0825323313474655, 1.3531653583049774 -0.1353165414184332, 2.706330716609955 l-0.6765826791524887, 0.4059496149420738 -2.8416472673416138, 0.6765826791524887 l-6.224560737609863, 0.0 -6.224560737609863, -1.8944315612316132 l-7.442409992218018, -5.6832945346832275 -2.9769638180732727, -1.0825323313474655 l-2.435697764158249, -0.1353165414184332 -1.0825323313474655, 1.3531653583049774 l-1.6237984597682953, 1.0825323313474655 -6.901143789291382, 2.8416472673416138 l-2.30038121342659, 1.4884819090366364 1.2178488820791245, 2.029748111963272 l0.0, 2.029748111963272 -0.6765826791524887, 2.706330716609955 l-0.6765826791524887, 8.254309296607971 -0.4059496149420738, 0.9472157806158066 m16.779251098632812, -10.013424158096313 l1.3531653583049774, -0.2706330828368664 0.8118992298841476, 0.6765826791524887 l0.8118992298841476, 2.30038121342659 -0.4059496149420738, 1.7591150104999542 l-2.30038121342659, 2.029748111963272 -7.7130430936813354, 4.194812774658203 l-1.3531653583049774, 1.4884819090366364 0.0, 1.3531653583049774 l2.8416472673416138, 0.4059496149420738 6.224560737609863, 0.0 l0.1353165414184332, 0.6765826791524887 -0.8118992298841476, 0.9472157806158066 l-3.6535465717315674, 1.4884819090366364 -5.277345180511475, 0.6765826791524887 l-8.524942398071289, 0.0 -0.8118992298841476, -2.165064662694931 l-0.2706330828368664, -5.142028331756592 1.2178488820791245, -3.9241796731948853 l1.0825323313474655, -1.7591150104999542 m27.875206470489502, -1.8944315612316132 l0.0, 2.706330716609955 -1.0825323313474655, 6.495193839073181 l0.0, 2.165064662694931 0.6765826791524887, 0.4059496149420738 l9.20152485370636, 0.2706330828368664 0.5412661656737328, -2.165064662694931 l0.0, -5.953927636146545 -0.4059496149420738, -0.6765826791524887 l-4.736078977584839, -2.029748111963272 m5.142028331756592, -0.5412661656737328 l0.1353165414184332, 2.30038121342659 0.5412661656737328, 0.8118992298841476 l1.6237984597682953, 0.5412661656737328 8.524942398071289, 0.0 l2.9769638180732727, 0.5412661656737328 1.6237984597682953, -0.4059496149420738 l2.30038121342659, -1.7591150104999542 0.2706330828368664, -2.30038121342659 l-2.706330716609955, -2.706330716609955 -1.6237984597682953, -3.3829134702682495 " fill="none" stroke="black" stroke-width="1" /></svg>