<?xml version="1.0" encoding="utf-8" ?>
<svg baseProfile="full" height="56.54888876713812" version="1.1" width="45.18230037763715" xmlns="http://www.w3.org/2000/svg" xmlns:ev="http://www.w3.org/2001/xml-events" xmlns:xlink="http://www.w3.org/1999/xlink"><defs /><rect fill="white" height="56.54888876713812" width="45.18230037763715" x="0" y="0" /><path d="M20.020135948434472, 30.033558178693056 m-0.5412661656737328, 0.0 l-1.3531653583049774, 1.3531653583049774 -1.0825323313474655, 2.9769638180732727 l0.0, 3.9241796731948853 0.5412661656737328, 2.571014165878296 l1.6237984597682953, 2.706330716609955 1.2178488820791245, 0.8118992298841476 l1.8944315612316132, 0.1353165414184332 3.1122803688049316, -0.9472157806158066 l2.30038121342659, -2.8416472673416138 0.1353165414184332, -0.9472157806158066 l-0.5412661656737328, -2.435697764158249 -1.7591150104999542, -3.3829134702682495 l-2.435697764158249, -3.2475969195365906 -1.3531653583049774, -0.8118992298841476 l-2.029748111963272, 0.2706330828368664 m-1.3531653583049774, 17.049884796142578 l2.435697764158249, 1.2178488820791245 3.3829134702682495, 0.1353165414184332 l2.165064662694931, -0.4059496149420738 1.3531653583049774, -1.6237984597682953 m1.2178488820791245, 0.0 l3.2475969195365906, 3.7888631224632263 2.029748111963272, 1.0825323313474655 l2.706330716609955, 0.0 1.7591150104999542, -1.3531653583049774 l1.2178488820791245, -2.435697764158249 0.2706330828368664, -2.30038121342659 l-0.2706330828368664, -2.165064662694931 -3.1122803688049316, -1.7591150104999542 l-1.4884819090366364, -0.4059496149420738 -0.6765826791524887, 0.1353165414184332 m-16.779251098632812, 5.006712079048157 l0.0, 0.5412661656737328 -0.8118992298841476, 1.7591150104999542 l-2.706330716609955, 1.8944315612316132 -3.6535465717315674, 1.2178488820791245 l-2.435697764158249, 0.0 -1.8944315612316132, -0.9472157806158066 l-0.8118992298841476, -0.9472157806158066 -0.5412661656737328, -1.0825323313474655 l0.0, -0.8118992298841476 1.7591150104999542, -1.8944315612316132 l6.359877586364746, -1.7591150104999542 m-0.5412661656737328, -0.6765826791524887 l-2.571014165878296, -4.059496223926544 -0.4059496149420738, -1.3531653583049774 l0.0, -3.5182300209999084 1.3531653583049774, -3.6535465717315674 l1.0825323313474655, -1.6237984597682953 2.30038121342659, -2.435697764158249 l2.706330716609955, -1.7591150104999542 m16.914567947387695, 16.237984895706177 l0.4059496149420738, -1.7591150104999542 -0.1353165414184332, -2.435697764158249 l-2.029748111963272, -5.142028331756592 -1.3531653583049774, -2.029748111963272 l-4.871395528316498, -2.8416472673416138 -0.2706330828368664, -0.5412661656737328 m-11.095956563949585, 0.5412661656737328 l-2.30038121342659, 0.2706330828368664 -3.5182300209999084, -0.9472157806158066 l-2.30038121342659, -1.8944315612316132 -1.3531653583049774, -2.9769638180732727 l0.0, -1.6237984597682953 1.3531653583049774, -2.571014165878296 l1.0825323313474655, -0.9472157806158066 1.6237984597682953, -0.2706330828368664 l1.3531653583049774, 0.2706330828368664 1.0825323313474655, 1.6237984597682953 l1.8944315612316132, 4.871395528316498 m13.261021375656128, 4.059496223926544 l2.435697764158249, 0.0 2.435697764158249, -0.6765826791524887 l3.6535465717315674, -3.2475969195365906 1.2178488820791245, -2.165064662694931 l0.0, -0.9472157806158066 -1.6237984597682953, -1.6237984597682953 l-1.8944315612316132, -0.4059496149420738 -1.6237984597682953, 0.0 l-2.435697764158249, 1.0825323313474655 -0.5412661656737328, 2.8416472673416138 m-16.508618593215942, 1.0825323313474655 l2.706330716609955, 0.1353165414184332 0.8118992298841476, -0.8118992298841476 l-1.6237984597682953, -3.7888631224632263 0.0, -2.8416472673416138 l2.435697764158249, -3.7888631224632263 m12.449121475219727, 10.55469036102295 l-0.9472157806158066, -1.0825323313474655 0.5412661656737328, -5.142028331756592 l-0.4059496149420738, -2.9769638180732727 -0.9472157806158066, -1.6237984597682953 l-1.0825323313474655, -0.4059496149420738 -1.8944315612316132, 0.2706330828368664 m-11.501905918121338, 5.142028331756592 l-2.706330716609955, -1.6237984597682953 -1.7591150104999542, -2.029748111963272 l-0.6765826791524887, -2.30038121342659 0.2706330828368664, -1.0825323313474655 l2.029748111963272, -1.8944315612316132 2.706330716609955, 0.0 l2.029748111963272, 1.7591150104999542 1.7591150104999542, 2.706330716609955 m7.7130430936813354, -0.8118992298841476 l0.4059496149420738, -2.9769638180732727 1.0825323313474655, -2.165064662694931 l0.8118992298841476, -0.6765826791524887 2.029748111963272, -0.4059496149420738 l1.7591150104999542, 1.0825323313474655 0.4059496149420738, 1.2178488820791245 l-0.1353165414184332, 2.9769638180732727 -1.3531653583049774, 2.706330716609955 l-1.3531653583049774, 1.7591150104999542 m-11.366589069366455, -2.165064662694931 l4.330129325389862, -1.6237984597682953 3.9241796731948853, 0.2706330828368664 m-7.036460041999817, 6.224560737609863 l0.0, 0.0 m-1.6237984597682953, -1.0825323313474655 l1.4884819090366364, 0.5412661656737328 0.8118992298841476, -0.1353165414184332 l-0.4059496149420738, -0.5412661656737328 m5.81861138343811, -0.2706330828368664 l0.6765826791524887, 0.0 -0.2706330828368664, 0.1353165414184332 " fill="none" stroke="black" stroke-width="1" /></svg>