<?xml version="1.0" encoding="utf-8" ?>
<svg baseProfile="full" height="30.29748123139143" version="1.1" width="35.98077624104917" xmlns="http://www.w3.org/2000/svg" xmlns:ev="http://www.w3.org/2001/xml-events" xmlns:xlink="http://www.w3.org/1999/xlink"><defs /><rect fill="white" height="30.29748123139143" width="35.98077624104917" x="0" y="0" /><path d="M9.600763134658337, 12.44241002947092 m0.2706330828368664, 5.142028331756592 l2.571014165878296, 4.60076242685318 3.3829134702682495, 2.435697764158249 l3.5182300209999084, 0.6765826791524887 4.736078977584839, -1.8944315612316132 l1.3531653583049774, -1.2178488820791245 1.4884819090366364, -2.30038121342659 l0.6765826791524887, -6.630510687828064 -1.0825323313474655, -2.8416472673416138 m-17.45583415031433, 2.165064662694931 l0.5412661656737328, -2.435697764158249 2.029748111963272, -3.5182300209999084 l1.4884819090366364, -1.0825323313474655 2.029748111963272, -0.5412661656737328 l3.1122803688049316, 0.0 2.9769638180732727, 0.9472157806158066 l3.3829134702682495, 1.8944315612316132 1.3531653583049774, 1.6237984597682953 l0.2706330828368664, 0.9472157806158066 m-14.61418628692627, -2.435697764158249 l-1.2178488820791245, -0.6765826791524887 -2.029748111963272, 0.0 l-1.3531653583049774, 0.4059496149420738 -1.4884819090366364, 1.7591150104999542 l-0.5412661656737328, 2.029748111963272 0.1353165414184332, 2.029748111963272 l0.6765826791524887, 1.2178488820791245 1.4884819090366364, 0.9472157806158066 m17.049884796142578, -9.336841106414795 l1.4884819090366364, -0.6765826791524887 1.4884819090366364, -0.1353165414184332 l1.4884819090366364, 0.4059496149420738 1.3531653583049774, 1.3531653583049774 l0.8118992298841476, 2.029748111963272 0.0, 1.6237984597682953 l-0.5412661656737328, 1.6237984597682953 -1.4884819090366364, 1.4884819090366364 m-10.55469036102295, 4.330129325389862 l0.6765826791524887, -1.0825323313474655 0.5412661656737328, 0.2706330828368664 l0.1353165414184332, 1.2178488820791245 -0.9472157806158066, 0.9472157806158066 l-1.0825323313474655, -0.1353165414184332 m-2.165064662694931, -7.8483593463897705 l0.0, 0.4059496149420738 m7.7130430936813354, -1.0825323313474655 l0.0, 0.6765826791524887 m-3.1122803688049316, 9.336841106414795 l-0.5412661656737328, 3.6535465717315674 m0.2706330828368664, -4.871395528316498 l-0.2706330828368664, 1.8944315612316132 -0.8118992298841476, 1.2178488820791245 l-1.0825323313474655, 0.8118992298841476 -1.8944315612316132, 0.2706330828368664 m5.142028331756592, -0.8118992298841476 l1.8944315612316132, -0.4059496149420738 m-2.029748111963272, -1.7591150104999542 " fill="none" stroke="black" stroke-width="1" /></svg>