<?xml version="1.0" encoding="utf-8" ?>
<svg baseProfile="full" height="25.967351673170924" version="1.1" width="30.432797810062766" xmlns="http://www.w3.org/2000/svg" xmlns:ev="http://www.w3.org/2001/xml-events" xmlns:xlink="http://www.w3.org/1999/xlink"><defs /><rect fill="white" height="25.967351673170924" width="30.432797810062766" x="0" y="0" /><path d="M18.531654998660088, 9.871395556256175 m-1.7591150104999542, -1.4884819090366364 l-2.165064662694931, -0.6765826791524887 -2.165064662694931, 0.0 l-1.2178488820791245, 0.8118992298841476 -2.30038121342659, 2.9769638180732727 l-0.5412661656737328, 2.706330716609955 0.1353165414184332, 2.9769638180732727 l2.706330716609955, 2.435697764158249 3.5182300209999084, 1.3531653583049774 l3.2475969195365906, 0.0 1.7591150104999542, -1.0825323313474655 l2.571014165878296, -3.2475969195365906 0.1353165414184332, -2.8416472673416138 l-2.029748111963272, -3.5182300209999084 -1.8944315612316132, -1.7591150104999542 l-1.3531653583049774, -0.6765826791524887 m3.2475969195365906, -0.4059496149420738 l2.165064662694931, -0.9472157806158066 1.4884819090366364, -0.1353165414184332 l0.2706330828368664, 3.7888631224632263 -0.4059496149420738, 1.4884819090366364 l-0.9472157806158066, 1.3531653583049774 m-11.231273412704468, -4.871395528316498 l-0.5412661656737328, -1.4884819090366364 -0.8118992298841476, -0.6765826791524887 l-2.029748111963272, -0.9472157806158066 -2.435697764158249, 0.0 l-0.9472157806158066, 2.029748111963272 0.0, 2.165064662694931 l2.029748111963272, 3.3829134702682495 m12.719755172729492, -5.5479782819747925 l0.6765826791524887, -0.4059496149420738 2.8416472673416138, -0.2706330828368664 l1.3531653583049774, 0.9472157806158066 0.6765826791524887, 1.3531653583049774 l0.1353165414184332, 1.6237984597682953 -1.4884819090366364, 2.029748111963272 " fill="none" stroke="black" stroke-width="1" /></svg>