<?xml version="1.0" encoding="utf-8" ?>
<svg baseProfile="full" height="67.50952862203121" version="1.1" width="84.83004769310355" xmlns="http://www.w3.org/2000/svg" xmlns:ev="http://www.w3.org/2001/xml-events" xmlns:xlink="http://www.w3.org/1999/xlink"><defs /><rect fill="white" height="67.50952862203121" width="84.83004769310355" x="0" y="0" /><path d="M12.03646007925272, 16.50190545246005 m3.3829134702682495, -0.6765826791524887 l3.5182300209999084, 0.6765826791524887 6.495193839073181, 4.736078977584839 l3.7888631224632263, 3.7888631224632263 1.4884819090366364, 2.435697764158249 l1.2178488820791245, 3.3829134702682495 -0.4059496149420738, 3.6535465717315674 l-3.1122803688049316, 5.277345180511475 -3.6535465717315674, 1.8944315612316132 l-2.435697764158249, 0.2706330828368664 -2.706330716609955, -0.4059496149420738 l-3.1122803688049316, -1.3531653583049774 -3.6535465717315674, -2.30038121342659 l-2.571014165878296, -2.30038121342659 -0.4059496149420738, -2.435697764158249 l0.0, -1.3531653583049774 1.4884819090366364, -4.194812774658203 l-0.4059496149420738, -6.495193839073181 m0.6765826791524887, 23.545079231262207 l-1.8944315612316132, -4.736078977584839 m0.0, 0.0 l-4.736078977584839, -34.91166830062866 m17.185200452804565, 10.013424158096313 l11.90785527229309, 0.6765826791524887 12.178488969802856, 1.3531653583049774 l10.960639715194702, -0.1353165414184332 7.7130430936813354, 1.7591150104999542 l6.224560737609863, 2.8416472673416138 2.571014165878296, 2.029748111963272 l3.3829134702682495, 4.736078977584839 0.6765826791524887, 2.706330716609955 l-0.2706330828368664, 3.6535465717315674 -0.6765826791524887, 1.8944315612316132 l-3.5182300209999084, 3.5182300209999084 -5.5479782819747925, 1.4884819090366364 m-0.4059496149420738, 0.0 l-3.3829134702682495, 0.2706330828368664 m-43.43660831451416, -1.3531653583049774 l2.165064662694931, 0.4059496149420738 6.359877586364746, -0.9472157806158066 l7.307093143463135, -1.7591150104999542 3.2475969195365906, -0.2706330828368664 l25.033559799194336, 0.4059496149420738 9.472157955169678, 2.435697764158249 l5.6832945346832275, 2.571014165878296 m-44.654459953308105, -5.6832945346832275 l0.0, 10.55469036102295 1.3531653583049774, 7.442409992218018 m0.8118992298841476, 2.029748111963272 l1.4884819090366364, 3.1122803688049316 m1.4884819090366364, 0.2706330828368664 l1.3531653583049774, 0.1353165414184332 0.6765826791524887, -0.6765826791524887 l1.6237984597682953, -3.6535465717315674 m0.0, -0.2706330828368664 l0.4059496149420738, -1.0825323313474655 m0.9472157806158066, -24.62761163711548 l0.9472157806158066, 4.194812774658203 0.1353165414184332, 5.142028331756592 l-1.7591150104999542, 10.013424158096313 m-0.9472157806158066, 2.30038121342659 l-1.2178488820791245, 2.571014165878296 m-1.2178488820791245, 2.571014165878296 l-0.8118992298841476, 2.30038121342659 -0.2706330828368664, 2.571014165878296 m11.501905918121338, -27.19862461090088 l0.9472157806158066, 7.983676195144653 3.7888631224632263, 10.690007209777832 l0.5412661656737328, 0.6765826791524887 1.8944315612316132, 0.8118992298841476 l2.706330716609955, 0.4059496149420738 3.2475969195365906, -0.4059496149420738 l2.165064662694931, -1.2178488820791245 4.059496223926544, -5.142028331756592 l2.029748111963272, -6.359877586364746 0.4059496149420738, -4.871395528316498 l-0.2706330828368664, -4.194812774658203 m-57.3742151260376, -13.66697072982788 l-0.2706330828368664, 0.8118992298841476 " fill="none" stroke="black" stroke-width="1" /></svg>