<?xml version="1.0" encoding="utf-8" ?>
<svg baseProfile="full" height="68.45674705691636" version="1.1" width="57.22547182813287" xmlns="http://www.w3.org/2000/svg" xmlns:ev="http://www.w3.org/2001/xml-events" xmlns:xlink="http://www.w3.org/1999/xlink"><defs /><rect fill="white" height="68.45674705691636" width="57.22547182813287" x="0" y="0" /><path d="M16.77254014648497, 26.109380656853318 m-0.8118992298841476, 3.2475969195365906 l0.1353165414184332, 2.9769638180732727 1.8944315612316132, 1.8944315612316132 l4.059496223926544, 1.2178488820791245 4.465445876121521, 0.0 l3.2475969195365906, -0.9472157806158066 3.1122803688049316, -1.4884819090366364 l2.571014165878296, -2.30038121342659 2.165064662694931, -3.1122803688049316 l0.0, -4.60076242685318 -2.165064662694931, -2.8416472673416138 l-4.465445876121521, -3.1122803688049316 -3.1122803688049316, -0.6765826791524887 l-3.6535465717315674, -0.1353165414184332 -3.5182300209999084, 1.0825323313474655 l-4.194812774658203, 2.9769638180732727 -0.9472157806158066, 1.4884819090366364 l-0.4059496149420738, 2.435697764158249 0.0, 2.30038121342659 l0.9472157806158066, 1.6237984597682953 m18.132416009902954, -10.690007209777832 l-1.6237984597682953, -0.9472157806158066 -1.4884819090366364, -2.165064662694931 l-0.5412661656737328, -3.2475969195365906 1.7591150104999542, -2.029748111963272 l3.5182300209999084, -2.30038121342659 3.7888631224632263, -0.9472157806158066 l3.2475969195365906, 0.4059496149420738 1.3531653583049774, 1.7591150104999542 l0.8118992298841476, 2.435697764158249 0.2706330828368664, 5.953927636146545 l-1.4884819090366364, 2.8416472673416138 -2.165064662694931, 1.7591150104999542 l-2.029748111963272, 0.6765826791524887 m-20.16216516494751, -5.953927636146545 l-0.8118992298841476, -5.953927636146545 -1.7591150104999542, -2.571014165878296 l-3.3829134702682495, -1.8944315612316132 -1.8944315612316132, -0.2706330828368664 l-2.435697764158249, 0.2706330828368664 -1.2178488820791245, 0.6765826791524887 l-2.706330716609955, 2.9769638180732727 -0.2706330828368664, 2.029748111963272 l0.4059496149420738, 3.2475969195365906 2.571014165878296, 4.059496223926544 l4.194812774658203, 3.3829134702682495 1.3531653583049774, 0.4059496149420738 m5.953927636146545, 12.855072021484375 l-1.3531653583049774, 1.7591150104999542 -1.3531653583049774, 4.871395528316498 l-0.1353165414184332, 7.7130430936813354 2.029748111963272, 2.706330716609955 l2.706330716609955, 2.165064662694931 3.5182300209999084, 1.2178488820791245 l2.165064662694931, 0.1353165414184332 4.194812774658203, 0.0 l2.165064662694931, -0.6765826791524887 5.277345180511475, -3.9241796731948853 l1.7591150104999542, -2.9769638180732727 0.4059496149420738, -3.2475969195365906 l-1.6237984597682953, -5.41266143321991 -3.5182300209999084, -4.059496223926544 m-15.290769338607788, 17.997100353240967 l-2.30038121342659, 1.6237984597682953 -2.165064662694931, 2.30038121342659 l-2.165064662694931, 3.6535465717315674 -0.1353165414184332, 2.30038121342659 l4.194812774658203, 0.4059496149420738 1.7591150104999542, -0.8118992298841476 l1.4884819090366364, -1.0825323313474655 4.465445876121521, -5.6832945346832275 m11.366589069366455, -2.435697764158249 l-0.4059496149420738, 0.6765826791524887 0.2706330828368664, 1.6237984597682953 l1.6237984597682953, 4.465445876121521 1.7591150104999542, 1.4884819090366364 l0.9472157806158066, 0.0 3.1122803688049316, -2.8416472673416138 l0.5412661656737328, -2.706330716609955 0.0, -0.8118992298841476 l-2.9769638180732727, -3.9241796731948853 m0.4059496149420738, -13.937603235244751 l-0.2706330828368664, -0.8118992298841476 2.435697764158249, -2.029748111963272 l3.3829134702682495, -1.4884819090366364 4.059496223926544, -0.2706330828368664 l0.4059496149420738, 0.6765826791524887 -0.1353165414184332, 2.8416472673416138 l-5.277345180511475, 5.006712079048157 m-28.551790714263916, -2.029748111963272 l-2.30038121342659, -0.5412661656737328 -6.224560737609863, -2.571014165878296 l-4.059496223926544, -0.2706330828368664 " fill="none" stroke="black" stroke-width="1" /></svg>