<?xml version="1.0" encoding="utf-8" ?>
<svg baseProfile="full" height="70.75712540186942" version="1.1" width="78.1995365023613" xmlns="http://www.w3.org/2000/svg" xmlns:ev="http://www.w3.org/2001/xml-events" xmlns:xlink="http://www.w3.org/1999/xlink"><defs /><rect fill="white" height="70.75712540186942" width="78.1995365023613" x="0" y="0" /><path d="M25.432796692475677, 16.63722289726138 m-0.9472157806158066, 2.9769638180732727 l-0.1353165414184332, 2.165064662694931 0.2706330828368664, 2.029748111963272 l1.0825323313474655, 2.30038121342659 3.6535465717315674, 1.0825323313474655 l5.006712079048157, -0.9472157806158066 0.8118992298841476, -0.5412661656737328 l0.6765826791524887, -2.30038121342659 0.0, -1.3531653583049774 l-2.571014165878296, -1.2178488820791245 -4.736078977584839, -0.9472157806158066 l-3.6535465717315674, 0.2706330828368664 m21.24469757080078, 0.6765826791524887 l-0.8118992298841476, 1.7591150104999542 0.4059496149420738, 3.6535465717315674 l0.6765826791524887, 0.5412661656737328 3.3829134702682495, 0.0 l1.7591150104999542, -0.6765826791524887 2.8416472673416138, -2.9769638180732727 l-3.2475969195365906, -1.6237984597682953 -8.795575499534607, 0.4059496149420738 m-2.30038121342659, -14.3435537815094 l-3.5182300209999084, -1.6237984597682953 -3.6535465717315674, -0.9472157806158066 l-5.277345180511475, 0.0 -3.1122803688049316, 0.6765826791524887 l-1.6237984597682953, 1.3531653583049774 -5.953927636146545, 8.660258650779724 l-1.2178488820791245, 7.983676195144653 0.6765826791524887, 7.307093143463135 l2.571014165878296, 3.5182300209999084 4.059496223926544, 3.1122803688049316 l8.254309296607971, 4.330129325389862 5.81861138343811, 1.0825323313474655 l8.389625549316406, -0.1353165414184332 3.1122803688049316, -0.5412661656737328 l5.81861138343811, -3.1122803688049316 3.2475969195365906, -3.9241796731948853 l1.4884819090366364, -2.8416472673416138 -0.2706330828368664, -6.359877586364746 l-1.7591150104999542, -7.983676195144653 -1.4884819090366364, -3.3829134702682495 l-1.7591150104999542, -2.435697764158249 -3.5182300209999084, -2.30038121342659 l-7.7130430936813354, -3.5182300209999084 -1.4884819090366364, -0.2706330828368664 l-4.736078977584839, 0.1353165414184332 -2.435697764158249, 0.2706330828368664 l-1.3531653583049774, 0.6765826791524887 m3.1122803688049316, 25.71014404296875 l-0.5412661656737328, 0.1353165414184332 0.6765826791524887, 1.7591150104999542 l2.571014165878296, -0.4059496149420738 1.4884819090366364, -0.9472157806158066 l-2.9769638180732727, -0.2706330828368664 -1.6237984597682953, 0.4059496149420738 m9.742791056632996, 0.9472157806158066 l1.2178488820791245, -1.2178488820791245 0.0, -0.8118992298841476 l-2.9769638180732727, 0.2706330828368664 -0.9472157806158066, 0.6765826791524887 m-9.742791056632996, 4.465445876121521 l-1.0825323313474655, 0.1353165414184332 3.3829134702682495, 0.4059496149420738 l2.30038121342659, 1.2178488820791245 2.9769638180732727, 0.8118992298841476 l6.359877586364746, -0.2706330828368664 3.3829134702682495, -1.2178488820791245 l0.5412661656737328, -1.0825323313474655 m7.1717768907547, -22.327229976654053 l2.029748111963272, -3.7888631224632263 2.165064662694931, -2.029748111963272 l2.30038121342659, -1.3531653583049774 2.9769638180732727, -0.4059496149420738 l5.5479782819747925, 3.1122803688049316 0.5412661656737328, 2.30038121342659 l0.0, 3.9241796731948853 -0.9472157806158066, 5.006712079048157 l-1.2178488820791245, 3.1122803688049316 -2.165064662694931, 3.9241796731948853 l-3.2475969195365906, 2.9769638180732727 -3.7888631224632263, 1.8944315612316132 l-1.0825323313474655, -0.5412661656737328 m-41.94812774658203, -19.07963275909424 l-1.0825323313474655, -0.1353165414184332 -1.2178488820791245, -1.4884819090366364 l-4.330129325389862, 0.4059496149420738 -1.8944315612316132, 0.5412661656737328 l-2.706330716609955, 1.4884819090366364 -1.7591150104999542, 2.029748111963272 l-0.8118992298841476, 4.194812774658203 0.2706330828368664, 3.6535465717315674 l1.6237984597682953, 5.6832945346832275 4.330129325389862, 5.277345180511475 l0.6765826791524887, 0.5412661656737328 2.8416472673416138, 0.5412661656737328 l4.194812774658203, 0.1353165414184332 m4.330129325389862, 2.029748111963272 l-1.7591150104999542, -0.5412661656737328 -2.571014165878296, 1.3531653583049774 l-2.165064662694931, 2.435697764158249 -0.6765826791524887, 5.5479782819747925 l0.5412661656737328, 9.20152485370636 0.9472157806158066, 3.6535465717315674 l3.6535465717315674, 3.5182300209999084 3.5182300209999084, -0.1353165414184332 l1.3531653583049774, -0.5412661656737328 4.60076242685318, -3.5182300209999084 l0.9472157806158066, -2.029748111963272 0.0, -1.2178488820791245 l-1.8944315612316132, -1.6237984597682953 -3.6535465717315674, -0.1353165414184332 l-2.9769638180732727, 1.0825323313474655 -4.60076242685318, 3.6535465717315674 l0.0, 3.7888631224632263 m31.2581205368042, -21.380014419555664 l2.8416472673416138, 0.1353165414184332 2.8416472673416138, 1.3531653583049774 l0.8118992298841476, 3.5182300209999084 0.0, 11.501905918121338 l-1.4884819090366364, 4.059496223926544 -1.8944315612316132, 1.3531653583049774 l-3.7888631224632263, 1.0825323313474655 -3.3829134702682495, 0.0 l-5.953927636146545, -1.2178488820791245 -2.029748111963272, -3.2475969195365906 l2.571014165878296, -4.736078977584839 2.571014165878296, -2.571014165878296 l4.465445876121521, -1.4884819090366364 1.6237984597682953, 0.0 l1.6237984597682953, 0.6765826791524887 0.6765826791524887, 1.6237984597682953 l0.0, 1.7591150104999542 -1.2178488820791245, 4.330129325389862 " fill="none" stroke="black" stroke-width="1" /></svg>