<?xml version="1.0" encoding="utf-8" ?>
<svg baseProfile="full" height="62.638134118169546" version="1.1" width="68.4567454084754" xmlns="http://www.w3.org/2000/svg" xmlns:ev="http://www.w3.org/2001/xml-events" xmlns:xlink="http://www.w3.org/1999/xlink"><defs /><rect fill="white" height="62.638134118169546" width="68.4567454084754" x="0" y="0" /><path d="M39.64103481732309, 12.98367666080594 m-0.5412661656737328, -0.8118992298841476 l-7.8483593463897705, 0.2706330828368664 -8.118992447853088, 2.9769638180732727 l-7.7130430936813354, 5.41266143321991 -6.089244484901428, 6.224560737609863 l-2.30038121342659, 3.5182300209999084 -1.3531653583049774, 3.2475969195365906 l-0.5412661656737328, 2.8416472673416138 -0.1353165414184332, 6.495193839073181 l0.4059496149420738, 3.5182300209999084 1.3531653583049774, 3.1122803688049316 l2.029748111963272, 2.706330716609955 2.165064662694931, 1.7591150104999542 l2.8416472673416138, 1.4884819090366364 6.630510687828064, 1.6237984597682953 l3.7888631224632263, 0.2706330828368664 6.630510687828064, -0.2706330828368664 l9.472157955169678, -2.8416472673416138 6.765826940536499, -3.3829134702682495 l3.5182300209999084, -3.1122803688049316 2.571014165878296, -4.194812774658203 l1.6237984597682953, -5.006712079048157 0.6765826791524887, -4.059496223926544 l0.1353165414184332, -7.442409992218018 -1.3531653583049774, -3.9241796731948853 l-1.0825323313474655, -1.6237984597682953 -6.901143789291382, -6.359877586364746 l-9.20152485370636, -5.6832945346832275 -2.435697764158249, -0.6765826791524887 m-20.297482013702393, 12.719755172729492 l-2.165064662694931, -0.4059496149420738 -2.30038121342659, -1.7591150104999542 l-1.7591150104999542, -2.165064662694931 -1.3531653583049774, -2.9769638180732727 l-0.2706330828368664, -5.81861138343811 2.165064662694931, -2.435697764158249 l1.7591150104999542, -0.8118992298841476 4.059496223926544, -0.4059496149420738 l4.736078977584839, 3.3829134702682495 3.3829134702682495, 5.41266143321991 l0.6765826791524887, 4.194812774658203 m21.380014419555664, -4.465445876121521 l0.1353165414184332, -1.0825323313474655 2.029748111963272, -3.1122803688049316 l1.4884819090366364, -1.3531653583049774 1.8944315612316132, -0.9472157806158066 l3.3829134702682495, -1.0825323313474655 4.736078977584839, -0.5412661656737328 l2.029748111963272, 0.0 1.0825323313474655, 0.5412661656737328 l2.029748111963272, 3.5182300209999084 0.0, 3.5182300209999084 l-0.5412661656737328, 2.029748111963272 -1.8944315612316132, 2.706330716609955 l-6.630510687828064, 3.9241796731948853 -0.6765826791524887, 1.0825323313474655 m-29.22837257385254, 4.059496223926544 l-0.9472157806158066, 0.9472157806158066 -0.4059496149420738, 3.6535465717315674 l1.0825323313474655, 0.5412661656737328 1.0825323313474655, -0.2706330828368664 l0.6765826791524887, -1.2178488820791245 -0.2706330828368664, -2.30038121342659 l-1.2178488820791245, -0.6765826791524887 m21.1093807220459, -0.2706330828368664 l-0.6765826791524887, -0.2706330828368664 -0.6765826791524887, 0.2706330828368664 l-0.6765826791524887, 2.165064662694931 0.1353165414184332, 0.9472157806158066 l0.9472157806158066, 0.9472157806158066 1.0825323313474655, 0.0 l0.5412661656737328, -0.9472157806158066 0.0, -1.4884819090366364 l-0.8118992298841476, -1.4884819090366364 -0.4059496149420738, 0.9472157806158066 l0.2706330828368664, 1.0825323313474655 0.6765826791524887, 0.4059496149420738 l0.0, -0.6765826791524887 -1.0825323313474655, -1.2178488820791245 m-21.1093807220459, 1.6237984597682953 l0.4059496149420738, -1.7591150104999542 0.0, 1.4884819090366364 l0.1353165414184332, -1.7591150104999542 m20.297482013702393, 0.9472157806158066 " fill="none" stroke="black" stroke-width="1" /></svg>