<?xml version="1.0" encoding="utf-8" ?>
<svg baseProfile="full" height="45.994199588894844" version="1.1" width="57.36078861169517" xmlns="http://www.w3.org/2000/svg" xmlns:ev="http://www.w3.org/2001/xml-events" xmlns:xlink="http://www.w3.org/1999/xlink"><defs /><rect fill="white" height="45.994199588894844" width="57.36078861169517" x="0" y="0" /><path d="M9.465445801615715, 19.072920083999634 m-1.4884819090366364, -0.5412661656737328 l-0.8118992298841476, -0.8118992298841476 -1.0825323313474655, -1.8944315612316132 l-1.0825323313474655, -3.9241796731948853 0.1353165414184332, -1.3531653583049774 l1.6237984597682953, -3.2475969195365906 1.8944315612316132, -2.029748111963272 l2.435697764158249, -0.1353165414184332 1.7591150104999542, 1.8944315612316132 l2.165064662694931, 3.6535465717315674 1.0825323313474655, -2.30038121342659 l1.4884819090366364, -0.8118992298841476 16.102668046951294, -0.1353165414184332 l2.571014165878296, 0.8118992298841476 2.571014165878296, 2.571014165878296 l2.435697764158249, -2.8416472673416138 2.029748111963272, -1.3531653583049774 l2.571014165878296, -1.3531653583049774 2.029748111963272, -0.2706330828368664 l1.7591150104999542, 1.2178488820791245 2.30038121342659, 3.5182300209999084 l0.4059496149420738, 1.8944315612316132 -0.9472157806158066, 3.6535465717315674 l-1.3531653583049774, 2.029748111963272 -2.9769638180732727, 2.30038121342659 l-4.736078977584839, 0.4059496149420738 -0.6765826791524887, 5.41266143321991 l0.2706330828368664, 2.706330716609955 -1.0825323313474655, 5.277345180511475 l-2.571014165878296, 4.60076242685318 -1.3531653583049774, 1.3531653583049774 l-2.9769638180732727, 1.2178488820791245 -1.4884819090366364, 0.4059496149420738 l-11.63722276687622, -0.1353165414184332 -7.7130430936813354, -1.0825323313474655 l-4.330129325389862, -2.165064662694931 -1.0825323313474655, -2.029748111963272 l-1.3531653583049774, -6.765826940536499 0.2706330828368664, -3.6535465717315674 l1.2178488820791245, -2.435697764158249 0.8118992298841476, -3.7888631224632263 m7.1717768907547, -1.6237984597682953 l0.6765826791524887, 0.5412661656737328 m15.561401844024658, -0.6765826791524887 l0.0, 0.0 m-11.366589069366455, 5.41266143321991 l7.1717768907547, 0.0 0.1353165414184332, 1.6237984597682953 l-1.3531653583049774, 4.465445876121521 -1.3531653583049774, -0.8118992298841476 l-1.4884819090366364, -2.571014165878296 -2.435697764158249, -2.029748111963272 l-0.5412661656737328, -0.9472157806158066 m11.90785527229309, -2.9769638180732727 l-0.2706330828368664, -0.5412661656737328 " fill="none" stroke="black" stroke-width="1" /></svg>