<?xml version="1.0" encoding="utf-8" ?>
<svg baseProfile="full" height="27.320517227053642" version="1.1" width="34.49229338206351" xmlns="http://www.w3.org/2000/svg" xmlns:ev="http://www.w3.org/2001/xml-events" xmlns:xlink="http://www.w3.org/1999/xlink"><defs /><rect fill="white" height="27.320517227053642" width="34.49229338206351" x="0" y="0" /><path d="M13.795575257390738, 14.201524956151843 m-0.5412661656737328, 0.1353165414184332 l-1.2178488820791245, 2.571014165878296 -0.1353165414184332, 2.9769638180732727 l1.2178488820791245, 2.165064662694931 1.4884819090366364, 0.2706330828368664 l2.8416472673416138, -1.0825323313474655 2.8416472673416138, -2.165064662694931 l1.7591150104999542, -2.435697764158249 0.0, -1.6237984597682953 l-0.9472157806158066, -1.4884819090366364 -2.029748111963272, -1.0825323313474655 l-2.029748111963272, -0.4059496149420738 -3.1122803688049316, 0.5412661656737328 l-1.2178488820791245, 1.6237984597682953 m-0.1353165414184332, -0.4059496149420738 l-3.7888631224632263, 0.6765826791524887 -3.3829134702682495, -0.4059496149420738 l-0.4059496149420738, -1.6237984597682953 0.8118992298841476, -2.165064662694931 l2.9769638180732727, -4.330129325389862 1.8944315612316132, -0.9472157806158066 l1.0825323313474655, 0.1353165414184332 0.9472157806158066, 1.3531653583049774 l0.0, 4.059496223926544 0.4059496149420738, 2.029748111963272 m6.224560737609863, -0.1353165414184332 l-0.1353165414184332, -0.8118992298841476 0.4059496149420738, -1.3531653583049774 l1.8944315612316132, -2.706330716609955 1.3531653583049774, -0.8118992298841476 l2.8416472673416138, -0.6765826791524887 1.3531653583049774, 0.2706330828368664 l1.7591150104999542, 1.2178488820791245 0.6765826791524887, 1.6237984597682953 l-0.1353165414184332, 0.9472157806158066 -1.7591150104999542, 1.2178488820791245 l-2.9769638180732727, 1.2178488820791245 -1.7591150104999542, 0.4059496149420738 l-0.8118992298841476, 0.0 0.1353165414184332, -0.2706330828368664 m-7.442409992218018, 2.571014165878296 l0.0, 0.0 m2.8416472673416138, -0.2706330828368664 l-0.1353165414184332, 0.0 m-2.435697764158249, 4.059496223926544 l0.4059496149420738, -0.2706330828368664 m-0.1353165414184332, 0.1353165414184332 l-1.2178488820791245, 1.7591150104999542 -0.8118992298841476, 0.4059496149420738 l-0.8118992298841476, -0.8118992298841476 " fill="none" stroke="black" stroke-width="1" /></svg>