<?xml version="1.0" encoding="utf-8" ?>
<svg baseProfile="full" height="30.162165286019444" version="1.1" width="53.84256004355848" xmlns="http://www.w3.org/2000/svg" xmlns:ev="http://www.w3.org/2001/xml-events" xmlns:xlink="http://www.w3.org/1999/xlink"><defs /><rect fill="white" height="30.162165286019444" width="53.84256004355848" x="0" y="0" /><path d="M15.690007293596864, 5.811899732798338 m-2.029748111963272, 2.165064662694931 l-0.2706330828368664, 4.60076242685318 0.6765826791524887, 1.8944315612316132 l2.029748111963272, 3.3829134702682495 7.307093143463135, 7.1717768907547 l11.231273412704468, 0.1353165414184332 3.2475969195365906, -0.9472157806158066 l0.8118992298841476, -2.8416472673416138 0.0, -8.524942398071289 l-1.4884819090366364, -2.029748111963272 -4.330129325389862, -2.9769638180732727 l-4.330129325389862, -1.2178488820791245 -6.089244484901428, -0.6765826791524887 l-4.736078977584839, 0.0 -0.6765826791524887, 0.1353165414184332 l-0.4059496149420738, 0.6765826791524887 m3.3829134702682495, 12.043172121047974 l0.8118992298841476, 2.30038121342659 1.0825323313474655, 0.4059496149420738 l3.1122803688049316, -3.3829134702682495 0.6765826791524887, -0.1353165414184332 l0.6765826791524887, 1.4884819090366364 0.8118992298841476, 0.2706330828368664 l1.7591150104999542, -1.2178488820791245 1.4884819090366364, 0.0 l0.8118992298841476, 1.4884819090366364 2.165064662694931, -1.2178488820791245 l0.5412661656737328, 2.8416472673416138 -1.7591150104999542, 1.2178488820791245 l-1.3531653583049774, -0.2706330828368664 -0.2706330828368664, -0.6765826791524887 l-0.6765826791524887, -0.2706330828368664 -1.8944315612316132, 0.0 l-2.435697764158249, 0.8118992298841476 -2.029748111963272, 0.1353165414184332 l-0.5412661656737328, -0.8118992298841476 -0.4059496149420738, -2.30038121342659 l-0.2706330828368664, -4.60076242685318 m-1.4884819090366364, -7.983676195144653 l-0.1353165414184332, 1.4884819090366364 0.6765826791524887, 0.0 l0.0, -0.4059496149420738 m11.90785527229309, 4.059496223926544 l-2.8416472673416138, 0.0 m-14.884819984436035, -4.871395528316498 l-1.4884819090366364, -1.8944315612316132 -2.029748111963272, -0.2706330828368664 l-4.465445876121521, 0.0 -2.571014165878296, 1.8944315612316132 l0.0, 3.2475969195365906 5.5479782819747925, 2.029748111963272 l3.3829134702682495, 0.2706330828368664 m23.409762382507324, -2.9769638180732727 l3.3829134702682495, -0.5412661656737328 4.736078977584839, -2.165064662694931 l3.2475969195365906, -0.1353165414184332 0.1353165414184332, 2.9769638180732727 l-3.6535465717315674, 2.706330716609955 -6.224560737609863, 2.029748111963272 l-2.435697764158249, 0.1353165414184332 " fill="none" stroke="black" stroke-width="1" /></svg>