<?xml version="1.0" encoding="utf-8" ?>
<svg baseProfile="full" height="90.78397537581623" version="1.1" width="62.2321841865778" xmlns="http://www.w3.org/2000/svg" xmlns:ev="http://www.w3.org/2001/xml-events" xmlns:xlink="http://www.w3.org/1999/xlink"><defs /><rect fill="white" height="90.78397537581623" width="62.2321841865778" x="0" y="0" /><path d="M30.980775179341435, 19.208238376304507 m0.1353165414184332, 2.165064662694931 l1.3531653583049774, -1.2178488820791245 0.6765826791524887, 0.4059496149420738 l0.4059496149420738, 1.7591150104999542 2.165064662694931, -2.029748111963272 l0.8118992298841476, 0.2706330828368664 0.5412661656737328, 1.7591150104999542 l5.5479782819747925, -3.1122803688049316 m-14.749503135681152, 9.066208004951477 l0.8118992298841476, 1.6237984597682953 1.6237984597682953, -0.2706330828368664 l1.7591150104999542, -1.2178488820791245 1.0825323313474655, 1.0825323313474655 l0.6765826791524887, -0.6765826791524887 0.6765826791524887, 0.1353165414184332 l0.2706330828368664, 0.6765826791524887 1.4884819090366364, -0.4059496149420738 l1.2178488820791245, 0.8118992298841476 3.2475969195365906, -2.029748111963272 m-12.58443832397461, 0.6765826791524887 l2.029748111963272, -7.983676195144653 m10.148741006851196, 6.224560737609863 l1.3531653583049774, -7.307093143463135 m-6.224560737609863, -8.930891752243042 l-0.6765826791524887, 0.4059496149420738 -0.4059496149420738, 1.6237984597682953 l0.0, 0.6765826791524887 0.6765826791524887, 0.2706330828368664 l2.029748111963272, -1.3531653583049774 0.1353165414184332, -0.6765826791524887 l-0.8118992298841476, -0.6765826791524887 -1.3531653583049774, -0.2706330828368664 m5.81861138343811, 0.8118992298841476 l-0.5412661656737328, 0.6765826791524887 0.0, 1.4884819090366364 l0.4059496149420738, 0.6765826791524887 2.165064662694931, 0.2706330828368664 l0.4059496149420738, -0.8118992298841476 -0.2706330828368664, -2.165064662694931 l-2.029748111963272, -0.4059496149420738 m-9.742791056632996, -4.871395528316498 l-3.5182300209999084, 5.5479782819747925 -1.2178488820791245, 3.5182300209999084 l-0.6765826791524887, 4.736078977584839 -0.1353165414184332, 11.095956563949585 l1.0825323313474655, 1.6237984597682953 1.8944315612316132, 1.6237984597682953 l2.706330716609955, 1.4884819090366364 1.6237984597682953, 0.2706330828368664 l6.089244484901428, -0.2706330828368664 3.7888631224632263, -2.165064662694931 l1.6237984597682953, -2.165064662694931 m-12.990387678146362, -25.574827194213867 l4.871395528316498, -1.0825323313474655 4.194812774658203, 0.0 l2.571014165878296, 0.5412661656737328 2.571014165878296, 2.435697764158249 l0.9472157806158066, 2.30038121342659 1.2178488820791245, 5.81861138343811 l0.1353165414184332, 6.901143789291382 -0.8118992298841476, 4.871395528316498 l-1.0825323313474655, 2.029748111963272 -0.8118992298841476, 2.8416472673416138 m-14.3435537815094, 2.571014165878296 l-2.30038121342659, 1.7591150104999542 -4.465445876121521, 5.5479782819747925 l-3.9241796731948853, 8.254309296607971 -1.0825323313474655, 4.194812774658203 l-0.6765826791524887, 6.765826940536499 -0.1353165414184332, 7.8483593463897705 l3.6535465717315674, 13.125704526901245 1.4884819090366364, 1.4884819090366364 l3.2475969195365906, 1.3531653583049774 12.855072021484375, 0.1353165414184332 l3.2475969195365906, -1.4884819090366364 6.495193839073181, -4.330129325389862 l2.9769638180732727, -3.6535465717315674 0.8118992298841476, -4.330129325389862 l3.6535465717315674, -6.224560737609863 0.4059496149420738, -2.029748111963272 l0.0, -10.960639715194702 -1.8944315612316132, -4.059496223926544 l-4.059496223926544, -6.495193839073181 -2.165064662694931, -2.029748111963272 l-1.3531653583049774, -2.30038121342659 -2.8416472673416138, -3.1122803688049316 l-1.7591150104999542, -1.4884819090366364 -3.2475969195365906, -3.9241796731948853 l-0.8118992298841476, -0.4059496149420738 m-18.944315910339355, 19.214948415756226 l-3.7888631224632263, -10.013424158096313 -3.7888631224632263, -7.036460041999817 l-1.7591150104999542, -2.435697764158249 m7.1717768907547, 28.6871075630188 l-1.4884819090366364, -1.2178488820791245 -1.8944315612316132, -2.571014165878296 l-5.6832945346832275, -13.802287578582764 -3.9241796731948853, -7.577726244926453 " fill="none" stroke="black" stroke-width="1" /></svg>