<?xml version="1.0" encoding="utf-8" ?>
<svg baseProfile="full" height="66.69762961566448" version="1.1" width="55.19572299905121" xmlns="http://www.w3.org/2000/svg" xmlns:ev="http://www.w3.org/2001/xml-events" xmlns:xlink="http://www.w3.org/1999/xlink"><defs /><rect fill="white" height="66.69762961566448" width="55.19572299905121" x="0" y="0" /><path d="M22.04988240264356, 7.165064662694931 m5.953927636146545, -0.5412661656737328 l8.254309296607971, 1.2178488820791245 4.736078977584839, -1.2178488820791245 l4.465445876121521, 0.4059496149420738 1.4884819090366364, 0.5412661656737328 l1.3531653583049774, 1.0825323313474655 1.6237984597682953, 2.9769638180732727 l0.2706330828368664, 1.8944315612316132 -1.0825323313474655, 2.029748111963272 l-3.3829134702682495, 2.165064662694931 -2.8416472673416138, 0.8118992298841476 l-4.736078977584839, 0.0 -0.4059496149420738, 0.5412661656737328 l0.4059496149420738, 1.7591150104999542 0.0, 2.706330716609955 l-0.6765826791524887, 2.029748111963272 -2.30038121342659, 3.1122803688049316 l-2.029748111963272, 1.3531653583049774 -2.706330716609955, 1.0825323313474655 l-10.960639715194702, 2.165064662694931 -3.7888631224632263, 0.0 l-2.706330716609955, -1.6237984597682953 -0.8118992298841476, -1.8944315612316132 l-0.2706330828368664, -4.465445876121521 0.2706330828368664, -2.165064662694931 l1.3531653583049774, -3.3829134702682495 -1.2178488820791245, 0.4059496149420738 l-2.165064662694931, 0.0 -1.8944315612316132, -0.5412661656737328 l-1.3531653583049774, -0.8118992298841476 -1.0825323313474655, -1.0825323313474655 l-0.6765826791524887, -1.4884819090366364 0.0, -2.8416472673416138 l0.5412661656737328, -1.7591150104999542 2.30038121342659, -2.706330716609955 l1.6237984597682953, -1.0825323313474655 5.006712079048157, -2.029748111963272 l4.059496223926544, -0.8118992298841476 3.1122803688049316, 0.0 l1.3531653583049774, 0.5412661656737328 1.4884819090366364, 1.3531653583049774 m-5.6832945346832275, 7.036460041999817 l0.1353165414184332, 0.0 m15.426086187362671, 0.4059496149420738 l0.0, 0.2706330828368664 m-10.284056663513184, 4.60076242685318 l0.2706330828368664, 0.0 m-5.5479782819747925, 7.442409992218018 l0.8118992298841476, 0.8118992298841476 1.3531653583049774, 0.0 l5.81861138343811, -2.571014165878296 m0.1353165414184332, 0.0 l0.2706330828368664, -0.2706330828368664 m-9.20152485370636, 9.607474207878113 l-0.2706330828368664, 1.2178488820791245 -1.3531653583049774, 1.8944315612316132 l-1.0825323313474655, 0.6765826791524887 -0.9472157806158066, 0.0 m2.8416472673416138, -2.165064662694931 l-5.41266143321991, 4.736078977584839 -2.8416472673416138, 3.1122803688049316 l-3.1122803688049316, 5.142028331756592 -0.6765826791524887, 1.8944315612316132 l-0.1353165414184332, 3.5182300209999084 0.4059496149420738, 0.5412661656737328 l1.2178488820791245, 0.2706330828368664 2.435697764158249, -1.0825323313474655 l4.465445876121521, -4.736078977584839 m16.37330174446106, -17.049884796142578 l0.0, 2.9769638180732727 2.9769638180732727, 3.7888631224632263 l1.2178488820791245, 2.435697764158249 1.3531653583049774, 4.194812774658203 l0.2706330828368664, 3.5182300209999084 -0.4059496149420738, 2.435697764158249 l-0.6765826791524887, 1.3531653583049774 -1.3531653583049774, 0.8118992298841476 l-2.029748111963272, 0.0 -1.6237984597682953, -1.8944315612316132 l-0.2706330828368664, -2.706330716609955 0.2706330828368664, -2.706330716609955 m-15.967352390289307, 3.2475969195365906 l-1.6237984597682953, 2.435697764158249 -6.765826940536499, 6.495193839073181 l-0.4059496149420738, 1.8944315612316132 1.4884819090366364, 0.5412661656737328 l3.9241796731948853, -0.2706330828368664 7.442409992218018, -2.571014165878296 l3.1122803688049316, 1.8944315612316132 7.577726244926453, 1.6237984597682953 " fill="none" stroke="black" stroke-width="1" /></svg>