<?xml version="1.0" encoding="utf-8" ?>
<svg baseProfile="full" height="55.19572388380766" version="1.1" width="55.060408152639866" xmlns="http://www.w3.org/2000/svg" xmlns:ev="http://www.w3.org/2001/xml-events" xmlns:xlink="http://www.w3.org/1999/xlink"><defs /><rect fill="white" height="55.19572388380766" width="55.060408152639866" x="0" y="0" /><path d="M11.765826921910048, 39.9116668663919 m-2.029748111963272, -1.2178488820791245 l-1.7591150104999542, -2.706330716609955 -2.706330716609955, -9.607474207878113 l-0.2706330828368664, -5.953927636146545 1.0825323313474655, -3.6535465717315674 l2.029748111963272, -3.5182300209999084 3.2475969195365906, -3.5182300209999084 l4.330129325389862, -2.8416472673416138 5.142028331756592, -1.6237984597682953 l9.472157955169678, -0.2706330828368664 8.524942398071289, 1.6237984597682953 l4.465445876121521, 2.30038121342659 2.029748111963272, 1.7591150104999542 l2.706330716609955, 3.6535465717315674 1.4884819090366364, 3.3829134702682495 l0.5412661656737328, 2.8416472673416138 -0.1353165414184332, 4.059496223926544 l-3.6535465717315674, 1.4884819090366364 m-32.34065294265747, 12.449121475219727 l-4.059496223926544, -0.8118992298841476 -2.029748111963272, 1.0825323313474655 l-1.6237984597682953, 2.165064662694931 -0.2706330828368664, 2.029748111963272 l0.6765826791524887, 1.7591150104999542 1.2178488820791245, 1.3531653583049774 l1.6237984597682953, 0.9472157806158066 3.9241796731948853, 1.0825323313474655 l1.4884819090366364, 0.0 2.571014165878296, -0.8118992298841476 l2.029748111963272, -1.4884819090366364 0.9472157806158066, -2.435697764158249 l-0.1353165414184332, -2.30038121342659 m22.19191312789917, -2.165064662694931 l-8.930891752243042, -1.3531653583049774 -2.8416472673416138, 0.0 l-1.4884819090366364, 0.5412661656737328 -1.4884819090366364, 1.3531653583049774 l-0.5412661656737328, 1.4884819090366364 0.0, 1.8944315612316132 l1.0825323313474655, 2.029748111963272 2.435697764158249, 2.571014165878296 l3.3829134702682495, 1.8944315612316132 3.1122803688049316, 0.8118992298841476 l4.330129325389862, 0.0 3.9241796731948853, -1.7591150104999542 l0.9472157806158066, -1.4884819090366364 0.4059496149420738, -2.571014165878296 m-31.393437385559082, -7.983676195144653 l-0.1353165414184332, -4.059496223926544 1.2178488820791245, -5.81861138343811 l0.5412661656737328, -1.3531653583049774 1.2178488820791245, -1.3531653583049774 l3.5182300209999084, -2.165064662694931 2.8416472673416138, -0.4059496149420738 l4.736078977584839, 0.2706330828368664 1.4884819090366364, 0.5412661656737328 l2.435697764158249, 2.571014165878296 1.7591150104999542, 5.142028331756592 l0.2706330828368664, 3.5182300209999084 -2.029748111963272, 6.089244484901428 m-24.492294788360596, -1.3531653583049774 l-0.6765826791524887, 0.0 -0.5412661656737328, 0.6765826791524887 l0.0, 2.029748111963272 " fill="none" stroke="black" stroke-width="1" /></svg>