<?xml version="1.0" encoding="utf-8" ?>
<svg baseProfile="full" height="74.81662326492369" version="1.1" width="48.700530864298344" xmlns="http://www.w3.org/2000/svg" xmlns:ev="http://www.w3.org/2001/xml-events" xmlns:xlink="http://www.w3.org/1999/xlink"><defs /><rect fill="white" height="74.81662326492369" width="48.700530864298344" x="0" y="0" /><path d="M12.036459995433688, 34.904954470694065 m-2.165064662694931, -0.1353165414184332 l-1.4884819090366364, -2.165064662694931 -0.8118992298841476, -2.706330716609955 l-0.6765826791524887, -5.6832945346832275 0.5412661656737328, -2.571014165878296 l1.2178488820791245, -2.435697764158249 1.6237984597682953, -2.435697764158249 l2.029748111963272, -2.029748111963272 2.571014165878296, -1.4884819090366364 l2.9769638180732727, -0.9472157806158066 6.089244484901428, 0.0 l2.029748111963272, 0.6765826791524887 2.165064662694931, 1.6237984597682953 l2.435697764158249, 4.465445876121521 0.0, 5.142028331756592 l-1.4884819090366364, 2.435697764158249 -7.8483593463897705, 8.254309296607971 l-2.435697764158249, 1.8944315612316132 -2.30038121342659, 1.0825323313474655 l-2.30038121342659, 0.1353165414184332 -2.029748111963272, -0.5412661656737328 l-1.6237984597682953, -2.029748111963272 -1.3531653583049774, -2.8416472673416138 l-1.0825323313474655, -7.307093143463135 m13.66697072982788, -11.90785527229309 l-0.6765826791524887, -0.9472157806158066 -0.2706330828368664, -3.7888631224632263 l2.8416472673416138, -2.9769638180732727 2.706330716609955, -0.6765826791524887 l0.1353165414184332, 8.524942398071289 -0.6765826791524887, 1.8944315612316132 m-13.125704526901245, -4.059496223926544 l-1.7591150104999542, -1.4884819090366364 -1.6237984597682953, -0.6765826791524887 l-1.0825323313474655, -0.1353165414184332 -0.6765826791524887, 0.4059496149420738 l-0.8118992298841476, 3.3829134702682495 0.0, 5.41266143321991 l0.6765826791524887, 2.165064662694931 m3.7888631224632263, 14.208236932754517 l-1.4884819090366364, 0.6765826791524887 -2.029748111963272, 2.706330716609955 l-1.7591150104999542, 4.059496223926544 -0.9472157806158066, 6.901143789291382 l0.2706330828368664, 6.765826940536499 2.571014165878296, 6.089244484901428 l2.30038121342659, 3.3829134702682495 1.6237984597682953, 1.4884819090366364 l3.9241796731948853, 2.571014165878296 2.029748111963272, 0.5412661656737328 l3.6535465717315674, -0.1353165414184332 4.736078977584839, -4.194812774658203 l2.435697764158249, -4.330129325389862 0.8118992298841476, -2.8416472673416138 l0.4059496149420738, -6.359877586364746 -0.2706330828368664, -5.953927636146545 l-2.8416472673416138, -8.524942398071289 -3.2475969195365906, -4.871395528316498 l-1.7591150104999542, -1.0825323313474655 m16.37330174446106, -1.8944315612316132 l5.6832945346832275, -1.6237984597682953 " fill="none" stroke="black" stroke-width="1" /></svg>