<?xml version="1.0" encoding="utf-8" ?>
<svg baseProfile="full" height="55.4663578979671" version="1.1" width="75.22257284261286" xmlns="http://www.w3.org/2000/svg" xmlns:ev="http://www.w3.org/2001/xml-events" xmlns:xlink="http://www.w3.org/1999/xlink"><defs /><rect fill="white" height="55.4663578979671" width="75.22257284261286" x="0" y="0" /><path d="M19.34355340898037, 13.118992503732443 m-4.871395528316498, -4.871395528316498 l-2.30038121342659, -0.2706330828368664 -2.165064662694931, 0.4059496149420738 l-2.029748111963272, 1.4884819090366364 -2.165064662694931, 3.2475969195365906 l-0.8118992298841476, 3.6535465717315674 0.1353165414184332, 4.059496223926544 l0.6765826791524887, 1.7591150104999542 1.8944315612316132, 2.30038121342659 l2.571014165878296, 1.0825323313474655 3.6535465717315674, 0.1353165414184332 l2.165064662694931, -0.4059496149420738 3.9241796731948853, -2.30038121342659 l2.8416472673416138, -3.2475969195365906 0.6765826791524887, -2.029748111963272 l0.2706330828368664, -4.059496223926544 -0.4059496149420738, -1.8944315612316132 l-2.029748111963272, -2.8416472673416138 -2.8416472673416138, -1.7591150104999542 l-2.571014165878296, 0.0 -2.029748111963272, 0.6765826791524887 l-0.8118992298841476, 1.2178488820791245 m7.577726244926453, 0.1353165414184332 l5.6832945346832275, -2.30038121342659 10.419373512268066, -2.029748111963272 l10.148741006851196, -0.2706330828368664 5.81861138343811, 1.3531653583049774 l4.871395528316498, 1.6237984597682953 4.330129325389862, 2.029748111963272 l4.194812774658203, 3.6535465717315674 3.3829134702682495, 4.465445876121521 l0.6765826791524887, 2.435697764158249 0.0, 4.736078977584839 l-1.0825323313474655, 2.165064662694931 -2.029748111963272, 1.7591150104999542 l-2.30038121342659, 1.6237984597682953 -2.9769638180732727, 1.3531653583049774 l-6.901143789291382, 1.3531653583049774 -10.013424158096313, 0.0 l-10.013424158096313, -2.706330716609955 -6.089244484901428, -2.8416472673416138 l-2.706330716609955, -1.7591150104999542 -6.224560737609863, -5.6832945346832275 l-1.0825323313474655, -1.3531653583049774 -0.6765826791524887, -1.8944315612316132 m7.577726244926453, 8.389625549316406 l-1.7591150104999542, 1.8944315612316132 -2.706330716609955, 4.60076242685318 l-1.7591150104999542, 3.6535465717315674 -0.8118992298841476, 2.9769638180732727 l0.0, 2.571014165878296 0.5412661656737328, 1.0825323313474655 l2.9769638180732727, 0.8118992298841476 2.706330716609955, -0.2706330828368664 l1.2178488820791245, -1.2178488820791245 0.6765826791524887, -1.7591150104999542 l2.029748111963272, -8.795575499534607 0.8118992298841476, -6.630510687828064 m6.224560737609863, 3.2475969195365906 l-1.8944315612316132, 6.359877586364746 -0.8118992298841476, 5.277345180511475 l0.4059496149420738, 4.330129325389862 0.4059496149420738, 0.8118992298841476 l1.2178488820791245, 0.6765826791524887 1.7591150104999542, -0.4059496149420738 l2.30038121342659, -4.194812774658203 1.2178488820791245, -4.871395528316498 l0.2706330828368664, -5.41266143321991 m3.3829134702682495, 1.8944315612316132 l0.4059496149420738, 11.63722276687622 1.4884819090366364, 5.006712079048157 l1.3531653583049774, 1.4884819090366364 1.2178488820791245, -0.8118992298841476 l0.8118992298841476, -3.5182300209999084 0.2706330828368664, -17.185200452804565 m6.359877586364746, 3.3829134702682495 l0.0, 2.435697764158249 3.2475969195365906, 10.55469036102295 l2.029748111963272, 1.7591150104999542 1.4884819090366364, -0.2706330828368664 l0.5412661656737328, -4.736078977584839 -0.8118992298841476, -6.089244484901428 l-1.4884819090366364, -3.5182300209999084 -2.029748111963272, -1.3531653583049774 " fill="none" stroke="black" stroke-width="1" /></svg>