<?xml version="1.0" encoding="utf-8" ?>
<svg baseProfile="full" height="97.68511885777116" version="1.1" width="143.96337617188692" xmlns="http://www.w3.org/2000/svg" xmlns:ev="http://www.w3.org/2001/xml-events" xmlns:xlink="http://www.w3.org/1999/xlink"><defs /><rect fill="white" height="97.68511885777116" width="143.96337617188692" x="0" y="0" /><path d="M74.68802031129599, 8.518230002373457 m-0.2706330828368664, -1.6237984597682953 l-2.706330716609955, -1.6237984597682953 -11.095956563949585, -0.2706330828368664 l-1.7591150104999542, 1.0825323313474655 -4.465445876121521, 3.5182300209999084 l-1.0825323313474655, 1.4884819090366364 -1.6237984597682953, 4.059496223926544 l-0.2706330828368664, 6.765826940536499 1.6237984597682953, 2.165064662694931 m21.65064573287964, -17.7264666557312 l2.029748111963272, 0.4059496149420738 0.9472157806158066, 0.6765826791524887 l2.30038121342659, 2.9769638180732727 0.2706330828368664, 10.960639715194702 l0.4059496149420738, 2.165064662694931 m-26.65735960006714, 0.1353165414184332 l1.8944315612316132, 0.2706330828368664 0.8118992298841476, 0.6765826791524887 l1.2178488820791245, 3.6535465717315674 -0.2706330828368664, 4.736078977584839 l-0.4059496149420738, 0.6765826791524887 -0.8118992298841476, 0.2706330828368664 l-1.7591150104999542, -0.2706330828368664 -2.706330716609955, -1.2178488820791245 l-7.036460041999817, -1.7591150104999542 -1.2178488820791245, -0.9472157806158066 l-3.6535465717315674, -5.6832945346832275 -4.60076242685318, -5.41266143321991 l-10.55469036102295, -7.577726244926453 -7.036460041999817, -2.435697764158249 l-2.30038121342659, -0.1353165414184332 -2.435697764158249, -0.9472157806158066 l-3.1122803688049316, 0.0 -1.8944315612316132, 1.7591150104999542 l-1.7591150104999542, 2.9769638180732727 -1.3531653583049774, 10.148741006851196 l0.0, 5.81861138343811 2.571014165878296, 4.330129325389862 l2.8416472673416138, 3.1122803688049316 6.630510687828064, 4.465445876121521 l7.1717768907547, 2.9769638180732727 12.31380581855774, 3.5182300209999084 l8.524942398071289, 2.9769638180732727 2.9769638180732727, 0.2706330828368664 m32.611286640167236, -24.898242950439453 l0.0, 3.1122803688049316 1.3531653583049774, 3.1122803688049316 l1.2178488820791245, 0.9472157806158066 2.8416472673416138, 0.9472157806158066 l2.9769638180732727, 0.0 4.194812774658203, -1.2178488820791245 l2.029748111963272, -1.3531653583049774 3.3829134702682495, -2.571014165878296 l5.142028331756592, -6.765826940536499 2.706330716609955, -2.435697764158249 l2.165064662694931, -1.3531653583049774 3.5182300209999084, -1.3531653583049774 l7.307093143463135, -1.8944315612316132 5.277345180511475, -0.4059496149420738 l8.930891752243042, -1.6237984597682953 3.1122803688049316, 0.2706330828368664 l1.6237984597682953, 2.8416472673416138 0.5412661656737328, 3.9241796731948853 l0.0, 5.953927636146545 -0.4059496149420738, 2.029748111963272 l-3.2475969195365906, 7.8483593463897705 -1.4884819090366364, 2.30038121342659 l-4.736078977584839, 5.006712079048157 -3.1122803688049316, 2.165064662694931 l-7.1717768907547, 2.9769638180732727 -9.472157955169678, 2.30038121342659 l-17.185200452804565, 2.571014165878296 -4.194812774658203, 1.6237984597682953 l-1.0825323313474655, 0.8118992298841476 m-0.8118992298841476, -0.2706330828368664 l0.2706330828368664, 7.7130430936813354 0.6765826791524887, 1.7591150104999542 l1.0825323313474655, 11.366589069366455 4.736078977584839, 3.7888631224632263 l6.901143789291382, 3.2475969195365906 4.60076242685318, 3.7888631224632263 l2.165064662694931, 2.8416472673416138 0.6765826791524887, 2.706330716609955 l-0.4059496149420738, 0.6765826791524887 -6.901143789291382, 0.2706330828368664 l-3.7888631224632263, -1.0825323313474655 -3.6535465717315674, -0.4059496149420738 l-6.901143789291382, 0.0 -3.7888631224632263, -5.6832945346832275 l-2.435697764158249, -5.6832945346832275 -1.8944315612316132, -2.029748111963272 l-2.9769638180732727, -1.3531653583049774 -2.029748111963272, 0.9472157806158066 l-4.465445876121521, 0.9472157806158066 -5.006712079048157, 2.029748111963272 l-1.3531653583049774, 0.0 -11.095956563949585, 6.224560737609863 l-6.765826940536499, 2.8416472673416138 -4.60076242685318, 0.9472157806158066 l-0.6765826791524887, -3.7888631224632263 0.0, -4.059496223926544 l2.029748111963272, -1.6237984597682953 3.9241796731948853, -1.0825323313474655 l6.765826940536499, -3.2475969195365906 3.7888631224632263, -2.8416472673416138 l0.4059496149420738, -0.8118992298841476 -0.1353165414184332, -8.118992447853088 l-1.3531653583049774, -5.5479782819747925 -0.4059496149420738, -3.9241796731948853 l-0.4059496149420738, -0.6765826791524887 -3.2475969195365906, -1.2178488820791245 l-1.4884819090366364, -1.3531653583049774 m-30.040271282196045, -35.72356700897217 l-0.5412661656737328, -1.4884819090366364 -1.6237984597682953, -1.4884819090366364 " fill="none" stroke="black" stroke-width="1" /></svg>