<?xml version="1.0" encoding="utf-8" ?>
<svg baseProfile="full" height="42.34065290540457" version="1.1" width="31.380013497546315" xmlns="http://www.w3.org/2000/svg" xmlns:ev="http://www.w3.org/2001/xml-events" xmlns:xlink="http://www.w3.org/1999/xlink"><defs /><rect fill="white" height="42.34065290540457" width="31.380013497546315" x="0" y="0" /><path d="M11.495193876326084, 18.125704396516085 m-2.029748111963272, -2.029748111963272 l-0.8118992298841476, -2.706330716609955 0.0, -1.7591150104999542 l1.8944315612316132, -2.9769638180732727 1.3531653583049774, -0.5412661656737328 l2.029748111963272, 0.0 4.194812774658203, 1.2178488820791245 l2.165064662694931, 3.2475969195365906 0.2706330828368664, 2.029748111963272 l-1.4884819090366364, 2.30038121342659 -2.029748111963272, 1.3531653583049774 l-2.165064662694931, 0.4059496149420738 -2.029748111963272, -0.2706330828368664 m-2.706330716609955, -8.930891752243042 l-0.4059496149420738, -1.3531653583049774 -2.165064662694931, -1.7591150104999542 l-1.0825323313474655, 0.0 -1.2178488820791245, 0.6765826791524887 l-0.2706330828368664, 1.4884819090366364 0.9472157806158066, 2.435697764158249 l0.9472157806158066, 0.6765826791524887 2.30038121342659, 0.0 m7.7130430936813354, -3.7888631224632263 l2.571014165878296, -2.435697764158249 2.029748111963272, -0.4059496149420738 l1.0825323313474655, 0.4059496149420738 0.5412661656737328, 1.4884819090366364 l0.0, 2.571014165878296 0.0, 0.6765826791524887 l-1.2178488820791245, 1.4884819090366364 m-12.043172121047974, 6.224560737609863 l-2.706330716609955, 7.1717768907547 -0.1353165414184332, 3.2475969195365906 l0.6765826791524887, 3.1122803688049316 0.6765826791524887, 1.2178488820791245 l2.029748111963272, 2.029748111963272 2.029748111963272, 1.3531653583049774 l3.1122803688049316, 1.3531653583049774 2.30038121342659, 0.0 l4.330129325389862, -1.8944315612316132 2.8416472673416138, -4.194812774658203 l1.3531653583049774, -4.736078977584839 -0.2706330828368664, -2.571014165878296 l-1.3531653583049774, -2.706330716609955 -2.029748111963272, -2.30038121342659 l-1.6237984597682953, -0.9472157806158066 -1.8944315612316132, -2.30038121342659 " fill="none" stroke="black" stroke-width="1" /></svg>