<?xml version="1.0" encoding="utf-8" ?>
<svg baseProfile="full" height="65.34446400590241" version="1.1" width="54.65445784851909" xmlns="http://www.w3.org/2000/svg" xmlns:ev="http://www.w3.org/2001/xml-events" xmlns:xlink="http://www.w3.org/1999/xlink"><defs /><rect fill="white" height="65.34446400590241" width="54.65445784851909" x="0" y="0" /><path d="M23.53836551308632, 31.792674139142036 m-7.7130430936813354, -4.465445876121521 l-0.9472157806158066, -0.9472157806158066 -1.0825323313474655, -2.706330716609955 l-0.1353165414184332, -3.6535465717315674 0.6765826791524887, -2.571014165878296 l1.2178488820791245, -2.706330716609955 2.8416472673416138, -3.6535465717315674 l2.8416472673416138, -1.7591150104999542 2.30038121342659, -0.8118992298841476 l6.089244484901428, -1.2178488820791245 5.6832945346832275, -0.1353165414184332 l4.465445876121521, 2.029748111963272 1.6237984597682953, 1.8944315612316132 l1.0825323313474655, 2.165064662694931 0.4059496149420738, 2.8416472673416138 l-0.1353165414184332, 5.006712079048157 -2.029748111963272, 4.330129325389862 l-3.1122803688049316, 3.3829134702682495 -7.307093143463135, 4.059496223926544 l-2.9769638180732727, 0.9472157806158066 -5.006712079048157, 0.1353165414184332 l-1.7591150104999542, -1.6237984597682953 -0.8118992298841476, -2.9769638180732727 l0.0, -3.5182300209999084 2.165064662694931, -4.059496223926544 m16.37330174446106, -13.937603235244751 l2.029748111963272, -1.6237984597682953 4.330129325389862, -1.2178488820791245 l3.1122803688049316, 0.0 1.2178488820791245, 0.5412661656737328 l0.6765826791524887, 1.2178488820791245 -0.2706330828368664, 3.3829134702682495 l-1.6237984597682953, 1.7591150104999542 -2.30038121342659, 1.6237984597682953 l-3.7888631224632263, 1.2178488820791245 m-21.78596258163452, -5.006712079048157 l-1.8944315612316132, -1.6237984597682953 -4.330129325389862, -0.1353165414184332 l-3.7888631224632263, 1.0825323313474655 -3.3829134702682495, 2.435697764158249 l-1.4884819090366364, 2.571014165878296 0.1353165414184332, 2.571014165878296 l6.765826940536499, 3.3829134702682495 m9.87810730934143, 13.396337032318115 l-1.0825323313474655, 0.6765826791524887 -0.4059496149420738, 0.8118992298841476 l-3.3829134702682495, 9.336841106414795 -0.1353165414184332, 7.577726244926453 l2.706330716609955, 4.194812774658203 2.706330716609955, 2.029748111963272 l3.2475969195365906, 1.6237984597682953 3.6535465717315674, 0.6765826791524887 l1.8944315612316132, 0.0 1.4884819090366364, -0.8118992298841476 l1.4884819090366364, -2.029748111963272 2.435697764158249, -5.277345180511475 l1.2178488820791245, -4.736078977584839 0.0, -6.765826940536499 l-1.6237984597682953, -2.435697764158249 -1.8944315612316132, -1.7591150104999542 l-0.4059496149420738, -2.30038121342659 m3.5182300209999084, 2.8416472673416138 l0.6765826791524887, -1.0825323313474655 1.7591150104999542, -1.2178488820791245 l3.2475969195365906, -0.8118992298841476 " fill="none" stroke="black" stroke-width="1" /></svg>