<?xml version="1.0" encoding="utf-8" ?>
<svg baseProfile="full" height="63.04408134892583" version="1.1" width="62.63813488185406" xmlns="http://www.w3.org/2000/svg" xmlns:ev="http://www.w3.org/2001/xml-events" xmlns:xlink="http://www.w3.org/1999/xlink"><defs /><rect fill="white" height="63.04408134892583" width="62.63813488185406" x="0" y="0" /><path d="M5.947215557098389, 39.09976528957486 m0.8118992298841476, 1.7591150104999542 l2.30038121342659, 9.742791056632996 0.5412661656737328, 7.442409992218018 l3.5182300209999084, -1.7591150104999542 5.277345180511475, 0.1353165414184332 l0.1353165414184332, -1.3531653583049774 -0.4059496149420738, -0.6765826791524887 l0.5412661656737328, -2.029748111963272 0.0, -5.5479782819747925 l1.2178488820791245, -9.066208004951477 0.6765826791524887, -0.2706330828368664 l4.871395528316498, 1.8944315612316132 4.194812774658203, 3.9241796731948853 l0.5412661656737328, 5.277345180511475 0.6765826791524887, 2.435697764158249 m-0.1353165414184332, -0.5412661656737328 l1.8944315612316132, 4.194812774658203 5.81861138343811, 1.0825323313474655 l1.8944315612316132, -0.1353165414184332 m5.5479782819747925, -23.6803936958313 l0.0, 0.0 m-1.3531653583049774, 3.1122803688049316 l-2.029748111963272, 17.32051730155945 m2.165064662694931, -17.185200452804565 l4.736078977584839, -1.0825323313474655 8.254309296607971, -4.465445876121521 l-4.330129325389862, -0.9472157806158066 -12.855072021484375, -5.6832945346832275 l-8.389625549316406, 0.9472157806158066 m-26.116092205047607, 13.125704526901245 l-0.9472157806158066, -5.6832945346832275 3.5182300209999084, -15.020135641098022 l3.2475969195365906, -11.366589069366455 0.4059496149420738, 0.8118992298841476 l1.4884819090366364, 1.0825323313474655 7.577726244926453, 1.3531653583049774 l2.8416472673416138, 2.029748111963272 5.81861138343811, 9.472157955169678 l5.142028331756592, 5.5479782819747925 " fill="none" stroke="black" stroke-width="1" /></svg>