<?xml version="1.0" encoding="utf-8" ?>
<svg baseProfile="full" height="77.38763701170683" version="1.1" width="84.15346449241042" xmlns="http://www.w3.org/2000/svg" xmlns:ev="http://www.w3.org/2001/xml-events" xmlns:xlink="http://www.w3.org/1999/xlink"><defs /><rect fill="white" height="77.38763701170683" width="84.15346449241042" x="0" y="0" /><path d="M44.106482323259115, 37.61128654703498 m-2.165064662694931, -0.8118992298841476 l-0.8118992298841476, 0.4059496149420738 -0.4059496149420738, 0.8118992298841476 l0.5412661656737328, 0.6765826791524887 1.7591150104999542, 0.1353165414184332 l0.5412661656737328, -0.8118992298841476 m-1.2178488820791245, 3.1122803688049316 l1.3531653583049774, 5.142028331756592 m-0.4059496149420738, -5.81861138343811 l1.7591150104999542, 2.30038121342659 -0.8118992298841476, 0.0 l-2.8416472673416138, -1.4884819090366364 -1.3531653583049774, 2.029748111963272 l1.4884819090366364, -0.1353165414184332 1.8944315612316132, 1.7591150104999542 m-0.5412661656737328, 0.8118992298841476 l-1.4884819090366364, 0.4059496149420738 -0.8118992298841476, 0.9472157806158066 m-0.4059496149420738, -17.32051730155945 l1.0825323313474655, 1.2178488820791245 m5.81861138343811, 0.8118992298841476 l1.3531653583049774, 2.165064662694931 m2.165064662694931, 10.55469036102295 l-0.8118992298841476, 1.0825323313474655 m-13.396337032318115, -0.8118992298841476 l-0.5412661656737328, -0.1353165414184332 m7.7130430936813354, -20.16216516494751 l-2.029748111963272, -0.1353165414184332 -4.736078977584839, 0.6765826791524887 l-4.330129325389862, 2.8416472673416138 -2.435697764158249, 3.3829134702682495 l-2.30038121342659, 8.118992447853088 -0.1353165414184332, 4.194812774658203 l2.706330716609955, 8.795575499534607 3.6535465717315674, 3.7888631224632263 l3.1122803688049316, 1.4884819090366364 4.194812774658203, 1.2178488820791245 l5.81861138343811, -1.0825323313474655 5.5479782819747925, -2.30038121342659 l4.059496223926544, -4.059496223926544 2.30038121342659, -4.465445876121521 l1.0825323313474655, -4.059496223926544 -0.1353165414184332, -3.7888631224632263 l-2.165064662694931, -6.630510687828064 -2.706330716609955, -4.330129325389862 l-2.165064662694931, -2.435697764158249 -2.029748111963272, -1.2178488820791245 l-1.8944315612316132, -0.5412661656737328 m-2.029748111963272, -0.1353165414184332 l0.5412661656737328, -1.4884819090366364 3.2475969195365906, -3.3829134702682495 l2.165064662694931, -1.0825323313474655 0.8118992298841476, 0.0 l0.6765826791524887, 0.2706330828368664 0.1353165414184332, 1.3531653583049774 l-1.8944315612316132, 5.6832945346832275 m-9.336841106414795, -3.5182300209999084 l-5.953927636146545, -2.706330716609955 -2.165064662694931, 0.6765826791524887 l-1.8944315612316132, 1.4884819090366364 -1.3531653583049774, 2.9769638180732727 l-0.1353165414184332, 1.0825323313474655 1.3531653583049774, 2.571014165878296 m17.7264666557312, -14.208236932754517 l-6.359877586364746, -1.3531653583049774 -5.81861138343811, -0.2706330828368664 l-10.148741006851196, 2.30038121342659 -5.277345180511475, 3.1122803688049316 l-4.465445876121521, 4.60076242685318 -2.435697764158249, 3.2475969195365906 l-2.9769638180732727, 7.307093143463135 -1.0825323313474655, 8.930891752243042 l1.4884819090366364, 12.31380581855774 2.8416472673416138, 8.254309296607971 l4.059496223926544, 5.5479782819747925 4.194812774658203, 3.1122803688049316 l4.871395528316498, 1.6237984597682953 7.8483593463897705, 0.1353165414184332 l5.5479782819747925, -0.6765826791524887 8.930891752243042, -3.3829134702682495 l8.930891752243042, -5.5479782819747925 7.577726244926453, -9.472157955169678 l2.706330716609955, -4.736078977584839 1.6237984597682953, -5.953927636146545 l0.4059496149420738, -4.736078977584839 -1.4884819090366364, -9.066208004951477 l-4.60076242685318, -7.7130430936813354 -4.194812774658203, -5.142028331756592 l-3.3829134702682495, -2.165064662694931 -7.7130430936813354, -3.3829134702682495 l-7.036460041999817, -0.2706330828368664 -0.6765826791524887, 0.2706330828368664 l-0.6765826791524887, 1.0825323313474655 0.1353165414184332, 0.5412661656737328 m9.607474207878113, -0.4059496149420738 l-1.0825323313474655, -0.5412661656737328 0.9472157806158066, -2.8416472673416138 l1.3531653583049774, -1.7591150104999542 3.1122803688049316, -1.4884819090366364 l2.9769638180732727, 0.8118992298841476 0.8118992298841476, 1.2178488820791245 l0.1353165414184332, 1.3531653583049774 -0.6765826791524887, 3.6535465717315674 l-1.7591150104999542, 3.9241796731948853 -1.2178488820791245, 1.0825323313474655 m-17.7264666557312, -7.7130430936813354 l-1.0825323313474655, -1.2178488820791245 -2.435697764158249, -1.3531653583049774 l-5.41266143321991, -1.2178488820791245 -6.089244484901428, 1.0825323313474655 l-2.706330716609955, 1.8944315612316132 -1.8944315612316132, 1.7591150104999542 l-0.8118992298841476, 1.8944315612316132 0.2706330828368664, 1.2178488820791245 l2.029748111963272, 2.571014165878296 5.5479782819747925, 2.435697764158249 m45.195722579956055, 11.63722276687622 l0.2706330828368664, -1.8944315612316132 1.3531653583049774, -1.4884819090366364 l2.165064662694931, -1.4884819090366364 1.8944315612316132, -0.5412661656737328 l0.6765826791524887, 0.5412661656737328 -0.2706330828368664, 1.8944315612316132 l-4.736078977584839, 7.577726244926453 m-62.92219161987305, -2.165064662694931 l-2.435697764158249, -0.2706330828368664 -1.4884819090366364, 0.8118992298841476 l-0.9472157806158066, 1.0825323313474655 -1.3531653583049774, 3.6535465717315674 l0.0, 1.8944315612316132 0.8118992298841476, 1.6237984597682953 l1.8944315612316132, 1.2178488820791245 2.9769638180732727, 0.4059496149420738 m-3.1122803688049316, -3.7888631224632263 l2.8416472673416138, 2.165064662694931 m65.62852382659912, -13.261021375656128 l-2.029748111963272, 2.706330716609955 " fill="none" stroke="black" stroke-width="1" /></svg>