<?xml version="1.0" encoding="utf-8" ?>
<svg baseProfile="full" height="85.37131432443857" version="1.1" width="73.05750729516149" xmlns="http://www.w3.org/2000/svg" xmlns:ev="http://www.w3.org/2001/xml-events" xmlns:xlink="http://www.w3.org/1999/xlink"><defs /><rect fill="white" height="85.37131432443857" width="73.05750729516149" x="0" y="0" /><path d="M11.224559862166643, 24.620898328721523 m0.2706330828368664, -7.036460041999817 l0.6765826791524887, -4.059496223926544 7.8483593463897705, -3.1122803688049316 l2.029748111963272, -0.1353165414184332 2.165064662694931, 1.2178488820791245 l0.8118992298841476, 2.9769638180732727 1.4884819090366364, 10.148741006851196 l0.0, 4.330129325389862 1.4884819090366364, -1.2178488820791245 l1.8944315612316132, -0.5412661656737328 19.07963275909424, -2.706330716609955 l2.571014165878296, -0.2706330828368664 -0.6765826791524887, 0.5412661656737328 l-0.4059496149420738, -1.6237984597682953 0.0, -15.967352390289307 l0.5412661656737328, -2.029748111963272 1.6237984597682953, -0.1353165414184332 l2.9769638180732727, 0.9472157806158066 2.165064662694931, 1.7591150104999542 l4.736078977584839, 5.41266143321991 2.165064662694931, 3.6535465717315674 l0.6765826791524887, 2.435697764158249 -0.2706330828368664, 5.6832945346832275 m-45.87230682373047, 12.990387678146362 l7.8483593463897705, 0.0 m19.214948415756226, 1.3531653583049774 l7.983676195144653, -0.6765826791524887 1.6237984597682953, -0.5412661656737328 l6.224560737609863, -0.6765826791524887 5.953927636146545, 0.0 m-37.617998123168945, 9.066208004951477 l0.2706330828368664, 3.6535465717315674 1.3531653583049774, 3.7888631224632263 l1.2178488820791245, 1.0825323313474655 3.2475969195365906, 0.6765826791524887 l3.1122803688049316, 0.0 5.41266143321991, -2.029748111963272 l2.30038121342659, -1.7591150104999542 0.9472157806158066, -1.8944315612316132 m-38.42989683151245, -24.898242950439453 l-2.029748111963272, 7.8483593463897705 -2.8416472673416138, 20.432798862457275 l0.0, 14.749503135681152 0.4059496149420738, 1.4884819090366364 l2.30038121342659, 5.5479782819747925 1.8944315612316132, 2.30038121342659 l1.8944315612316132, 1.2178488820791245 2.9769638180732727, 1.0825323313474655 l6.224560737609863, 0.6765826791524887 4.871395528316498, 0.0 l6.089244484901428, -0.9472157806158066 15.155452489852905, -5.953927636146545 l9.607474207878113, -5.6832945346832275 2.435697764158249, -1.8944315612316132 l2.706330716609955, -3.3829134702682495 2.165064662694931, -5.006712079048157 l0.6765826791524887, -6.224560737609863 0.0, -7.983676195144653 l-0.2706330828368664, -3.6535465717315674 -2.30038121342659, -8.930891752243042 l-0.5412661656737328, -8.389625549316406 " fill="none" stroke="black" stroke-width="1" /></svg>