<?xml version="1.0" encoding="utf-8" ?>
<svg baseProfile="full" height="53.707242561504245" version="1.1" width="56.27825686708093" xmlns="http://www.w3.org/2000/svg" xmlns:ev="http://www.w3.org/2001/xml-events" xmlns:xlink="http://www.w3.org/1999/xlink"><defs /><rect fill="white" height="53.707242561504245" width="56.27825686708093" x="0" y="0" /><path d="M21.102667953819036, 34.76963880471885 m0.5412661656737328, 1.3531653583049774 l0.2706330828368664, 5.006712079048157 -5.41266143321991, 5.5479782819747925 l-2.30038121342659, 1.3531653583049774 -2.8416472673416138, 0.6765826791524887 l-1.4884819090366364, -0.5412661656737328 -2.8416472673416138, -2.571014165878296 l-2.029748111963272, -3.9241796731948853 0.0, -2.30038121342659 l4.736078977584839, -5.41266143321991 1.7591150104999542, -1.0825323313474655 l1.4884819090366364, 0.5412661656737328 m8.795575499534607, 0.8118992298841476 l0.0, 4.465445876121521 0.9472157806158066, 3.1122803688049316 l2.9769638180732727, 3.3829134702682495 1.3531653583049774, 0.8118992298841476 l2.165064662694931, 0.4059496149420738 4.059496223926544, -0.2706330828368664 l3.3829134702682495, -2.30038121342659 0.8118992298841476, -1.0825323313474655 l0.0, -5.5479782819747925 -0.5412661656737328, -0.8118992298841476 m-0.5412661656737328, 0.0 l6.901143789291382, 0.4059496149420738 4.059496223926544, -0.2706330828368664 l2.30038121342659, -2.30038121342659 0.5412661656737328, -1.8944315612316132 l0.1353165414184332, -2.30038121342659 -0.6765826791524887, -2.706330716609955 l-2.30038121342659, -3.2475969195365906 -2.571014165878296, -1.4884819090366364 l-5.81861138343811, -1.8944315612316132 -3.6535465717315674, -0.5412661656737328 l-5.277345180511475, 0.0 -4.465445876121521, 1.0825323313474655 l-7.8483593463897705, 5.277345180511475 -4.059496223926544, 4.736078977584839 m35.4529333114624, -8.524942398071289 l-6.765826940536499, -0.2706330828368664 -3.2475969195365906, -1.3531653583049774 l-1.7591150104999542, -1.3531653583049774 m-0.1353165414184332, -0.1353165414184332 l-1.4884819090366364, -3.1122803688049316 0.2706330828368664, -5.277345180511475 l0.6765826791524887, -2.435697764158249 2.029748111963272, -3.5182300209999084 l2.9769638180732727, -0.2706330828368664 3.7888631224632263, 0.9472157806158066 l2.435697764158249, 2.30038121342659 2.706330716609955, 3.7888631224632263 l0.6765826791524887, 4.330129325389862 -2.571014165878296, 4.194812774658203 m-11.231273412704468, -0.8118992298841476 l5.142028331756592, -3.9241796731948853 -0.5412661656737328, 2.30038121342659 l2.30038121342659, 0.1353165414184332 1.4884819090366364, -0.4059496149420738 l0.9472157806158066, 0.4059496149420738 3.5182300209999084, 0.0 l0.8118992298841476, -0.4059496149420738 -0.6765826791524887, 0.4059496149420738 l-1.2178488820791245, 2.9769638180732727 " fill="none" stroke="black" stroke-width="1" /></svg>