<?xml version="1.0" encoding="utf-8" ?>
<svg baseProfile="full" height="68.45674493350089" version="1.1" width="47.21204863861203" xmlns="http://www.w3.org/2000/svg" xmlns:ev="http://www.w3.org/2001/xml-events" xmlns:xlink="http://www.w3.org/1999/xlink"><defs /><rect fill="white" height="68.45674493350089" width="47.21204863861203" x="0" y="0" /><path d="M15.825322726741433, 29.898242885246873 m-0.8118992298841476, 4.330129325389862 l-3.5182300209999084, 12.043172121047974 0.1353165414184332, 5.81861138343811 l0.5412661656737328, 2.571014165878296 0.9472157806158066, 1.4884819090366364 l2.165064662694931, 2.165064662694931 8.930891752243042, 3.1122803688049316 l12.719755172729492, 2.029748111963272 4.330129325389862, -0.5412661656737328 l0.6765826791524887, -2.029748111963272 0.2706330828368664, -5.277345180511475 l-0.4059496149420738, -2.706330716609955 -5.277345180511475, -13.396337032318115 l-5.41266143321991, -9.066208004951477 -4.871395528316498, -4.465445876121521 l-1.2178488820791245, -0.9472157806158066 -1.3531653583049774, -0.4059496149420738 l-1.8944315612316132, 0.1353165414184332 -3.7888631224632263, 1.2178488820791245 l-1.0825323313474655, 1.3531653583049774 0.0, 2.706330716609955 l-0.9472157806158066, -1.3531653583049774 -3.1122803688049316, -2.706330716609955 l-1.7591150104999542, -3.6535465717315674 -0.5412661656737328, -9.066208004951477 l0.6765826791524887, -4.194812774658203 0.9472157806158066, -1.2178488820791245 l3.7888631224632263, -1.6237984597682953 1.6237984597682953, -0.5412661656737328 l1.3531653583049774, 0.2706330828368664 5.006712079048157, 2.165064662694931 l5.81861138343811, 4.871395528316498 0.6765826791524887, 3.5182300209999084 l-0.2706330828368664, 1.6237984597682953 -0.4059496149420738, 0.6765826791524887 l-2.029748111963272, 0.8118992298841476 -0.8118992298841476, 2.8416472673416138 l-1.7591150104999542, 1.7591150104999542 4.736078977584839, -5.5479782819747925 l0.6765826791524887, -2.9769638180732727 m-19.48558211326599, -8.795575499534607 l-4.059496223926544, -0.8118992298841476 -2.029748111963272, 0.4059496149420738 l0.9472157806158066, 5.277345180511475 1.4884819090366364, 2.435697764158249 m13.261021375656128, -7.307093143463135 l3.5182300209999084, -1.6237984597682953 2.30038121342659, -0.2706330828368664 l1.3531653583049774, 0.4059496149420738 1.2178488820791245, 1.4884819090366364 l-2.029748111963272, 3.6535465717315674 m-9.472157955169678, -0.6765826791524887 l2.9769638180732727, 1.3531653583049774 0.2706330828368664, 0.6765826791524887 l-1.4884819090366364, 0.1353165414184332 -0.6765826791524887, -0.4059496149420738 l-0.8118992298841476, -2.30038121342659 m10.690007209777832, 3.1122803688049316 l0.1353165414184332, 0.8118992298841476 m0.0, 0.0 l1.4884819090366364, -0.1353165414184332 m-14.208236932754517, 19.75621461868286 l0.0, 0.0 " fill="none" stroke="black" stroke-width="1" /></svg>