<?xml version="1.0" encoding="utf-8" ?>
<svg baseProfile="full" height="28.673682464286685" version="1.1" width="35.71014306508005" xmlns="http://www.w3.org/2000/svg" xmlns:ev="http://www.w3.org/2001/xml-events" xmlns:xlink="http://www.w3.org/1999/xlink"><defs /><rect fill="white" height="28.673682464286685" width="35.71014306508005" x="0" y="0" /><path d="M19.20823729597032, 13.254308933392167 m-5.6832945346832275, -0.2706330828368664 l-1.8944315612316132, 1.8944315612316132 -0.6765826791524887, 2.8416472673416138 l0.1353165414184332, 2.30038121342659 1.6237984597682953, 2.165064662694931 l2.571014165878296, 1.4884819090366364 5.41266143321991, 0.0 l3.3829134702682495, -1.6237984597682953 2.165064662694931, -2.571014165878296 l1.7591150104999542, -4.330129325389862 -0.1353165414184332, -2.8416472673416138 l-0.6765826791524887, -0.2706330828368664 -6.224560737609863, -0.1353165414184332 l-3.9241796731948853, 1.0825323313474655 m5.6832945346832275, -2.435697764158249 l0.8118992298841476, -2.30038121342659 2.165064662694931, -2.165064662694931 l1.0825323313474655, -0.8118992298841476 2.435697764158249, -0.2706330828368664 l1.4884819090366364, 1.6237984597682953 0.0, 2.8416472673416138 l-2.435697764158249, 3.3829134702682495 m-6.630510687828064, -3.3829134702682495 l-1.2178488820791245, 1.0825323313474655 0.0, 1.3531653583049774 m-7.1717768907547, 2.165064662694931 l-3.5182300209999084, -3.6535465717315674 -2.9769638180732727, -1.3531653583049774 l-0.8118992298841476, 0.6765826791524887 -0.8118992298841476, 2.571014165878296 l-0.1353165414184332, 3.9241796731948853 1.8944315612316132, 1.3531653583049774 l2.30038121342659, 0.5412661656737328 2.571014165878296, 0.0 m3.6535465717315674, -2.165064662694931 l0.0, 0.0 m2.165064662694931, -3.2475969195365906 l0.0, 0.0 m-3.6535465717315674, 3.7888631224632263 l0.0, 0.0 m0.4059496149420738, -0.6765826791524887 l3.1122803688049316, 0.9472157806158066 0.0, -0.5412661656737328 m3.3829134702682495, -2.165064662694931 l0.2706330828368664, 0.8118992298841476 0.8118992298841476, 0.4059496149420738 l0.5412661656737328, -0.2706330828368664 m-3.3829134702682495, 3.2475969195365906 l-1.8944315612316132, 0.0 -1.8944315612316132, 0.6765826791524887 l0.6765826791524887, 0.5412661656737328 4.059496223926544, 1.0825323313474655 l0.4059496149420738, -0.8118992298841476 -0.4059496149420738, -0.8118992298841476 l-0.4059496149420738, -0.6765826791524887 -0.9472157806158066, -0.1353165414184332 m-0.6765826791524887, 0.9472157806158066 l0.0, 0.0 m-2.571014165878296, -0.9472157806158066 l0.0, 0.0 m-0.6765826791524887, 2.8416472673416138 l5.6832945346832275, 1.0825323313474655 " fill="none" stroke="black" stroke-width="1" /></svg>