<?xml version="1.0" encoding="utf-8" ?>
<svg baseProfile="full" height="81.44713489338756" version="1.1" width="78.60548622906208" xmlns="http://www.w3.org/2000/svg" xmlns:ev="http://www.w3.org/2001/xml-events" xmlns:xlink="http://www.w3.org/1999/xlink"><defs /><rect fill="white" height="81.44713489338756" width="78.60548622906208" x="0" y="0" /><path d="M69.275356605649, 7.70633140578866 m-1.3531653583049774, -1.3531653583049774 l-1.8944315612316132, -0.2706330828368664 -3.1122803688049316, 0.0 l-2.8416472673416138, 0.5412661656737328 -4.194812774658203, 2.571014165878296 l-3.6535465717315674, 3.9241796731948853 -2.8416472673416138, 5.6832945346832275 l-0.8118992298841476, 6.359877586364746 0.8118992298841476, 5.41266143321991 l0.9472157806158066, 1.4884819090366364 1.4884819090366364, 1.3531653583049774 l4.059496223926544, 1.3531653583049774 4.194812774658203, -0.8118992298841476 l3.3829134702682495, -1.6237984597682953 4.871395528316498, -4.60076242685318 l4.60076242685318, -9.20152485370636 0.6765826791524887, -1.6237984597682953 l0.0, -1.3531653583049774 -5.142028331756592, -6.359877586364746 l-4.330129325389862, -4.194812774658203 m-14.072920083999634, 8.524942398071289 l-6.630510687828064, -0.6765826791524887 -20.026848316192627, 3.3829134702682495 l-3.3829134702682495, 1.3531653583049774 -4.059496223926544, 2.706330716609955 l-1.7591150104999542, 1.4884819090366364 -4.736078977584839, 6.224560737609863 l-2.435697764158249, 5.953927636146545 -1.3531653583049774, 4.736078977584839 l-0.6765826791524887, 4.465445876121521 0.8118992298841476, 4.736078977584839 l1.7591150104999542, 2.30038121342659 1.0825323313474655, 0.6765826791524887 l3.1122803688049316, 1.2178488820791245 2.435697764158249, 0.2706330828368664 l5.81861138343811, 0.0 9.336841106414795, -2.571014165878296 l7.1717768907547, -3.3829134702682495 14.208236932754517, -9.87810730934143 l2.435697764158249, -2.8416472673416138 3.3829134702682495, -5.142028331756592 l0.0, -0.6765826791524887 m-24.898242950439453, 14.884819984436035 l-1.0825323313474655, 3.7888631224632263 -0.5412661656737328, 6.630510687828064 l3.2475969195365906, 12.31380581855774 1.3531653583049774, 3.2475969195365906 l1.3531653583049774, 0.9472157806158066 1.3531653583049774, -2.165064662694931 l1.2178488820791245, -5.6832945346832275 0.0, -21.1093807220459 l0.1353165414184332, -2.571014165878296 1.2178488820791245, -0.6765826791524887 m7.442409992218018, -1.8944315612316132 l-0.6765826791524887, 8.660258650779724 0.1353165414184332, 8.389625549316406 l1.7591150104999542, 11.501905918121338 0.6765826791524887, 0.0 l0.6765826791524887, -2.435697764158249 1.0825323313474655, -9.87810730934143 l0.0, -13.66697072982788 -0.5412661656737328, -7.8483593463897705 m-38.023948669433594, 18.67368221282959 l-0.5412661656737328, 1.4884819090366364 -0.5412661656737328, 6.901143789291382 l0.0, 3.9241796731948853 -1.2178488820791245, 9.336841106414795 l0.4059496149420738, 4.194812774658203 0.6765826791524887, 1.6237984597682953 l0.5412661656737328, 0.0 0.8118992298841476, -1.3531653583049774 l4.330129325389862, -14.3435537815094 0.8118992298841476, -7.307093143463135 l0.0, -7.036460041999817 " fill="none" stroke="black" stroke-width="1" /></svg>