<?xml version="1.0" encoding="utf-8" ?>
<svg baseProfile="full" height="49.10648028366268" version="1.1" width="50.18901215866208" xmlns="http://www.w3.org/2000/svg" xmlns:ev="http://www.w3.org/2001/xml-events" xmlns:xlink="http://www.w3.org/1999/xlink"><defs /><rect fill="white" height="49.10648028366268" width="50.18901215866208" x="0" y="0" /><path d="M5, 31.657358584925532 m0.6765826791524887, -0.1353165414184332 l0.1353165414184332, -0.8118992298841476 0.5412661656737328, -4.330129325389862 l0.0, -4.736078977584839 0.9472157806158066, -5.41266143321991 l1.0825323313474655, -1.3531653583049774 2.706330716609955, -1.7591150104999542 l1.4884819090366364, -0.8118992298841476 10.690007209777832, -0.2706330828368664 l6.765826940536499, 1.6237984597682953 2.9769638180732727, 0.2706330828368664 l5.953927636146545, 1.7591150104999542 3.6535465717315674, 3.2475969195365906 l1.2178488820791245, 2.029748111963272 0.2706330828368664, 5.5479782819747925 l-1.3531653583049774, 2.8416472673416138 -1.2178488820791245, 4.059496223926544 l-0.8118992298841476, 6.765826940536499 -3.2475969195365906, 2.8416472673416138 l-3.1122803688049316, 0.9472157806158066 -11.366589069366455, 0.1353165414184332 l-3.7888631224632263, -0.9472157806158066 -2.435697764158249, -1.2178488820791245 l-4.194812774658203, -2.9769638180732727 -3.6535465717315674, -3.7888631224632263 l-1.3531653583049774, -2.8416472673416138 -0.1353165414184332, -4.059496223926544 l-0.9472157806158066, -2.165064662694931 m26.927990913391113, -13.802287578582764 l3.1122803688049316, -2.9769638180732727 2.8416472673416138, 0.6765826791524887 l3.2475969195365906, 1.7591150104999542 2.571014165878296, 2.165064662694931 l0.0, 4.059496223926544 -0.4059496149420738, 1.3531653583049774 l-3.2475969195365906, 0.1353165414184332 -4.871395528316498, -2.571014165878296 l-1.2178488820791245, -1.3531653583049774 -0.8118992298841476, -3.3829134702682495 l-0.2706330828368664, -2.029748111963272 0.6765826791524887, -0.2706330828368664 l0.4059496149420738, 0.5412661656737328 m-16.779251098632812, 1.3531653583049774 l0.0, -1.3531653583049774 -1.7591150104999542, -3.6535465717315674 l-5.142028331756592, -1.7591150104999542 -2.165064662694931, 1.3531653583049774 l-1.3531653583049774, 2.165064662694931 -0.2706330828368664, 3.3829134702682495 l0.6765826791524887, 1.3531653583049774 2.029748111963272, 1.4884819090366364 l5.006712079048157, 0.4059496149420738 0.6765826791524887, -0.4059496149420738 l0.8118992298841476, -2.706330716609955 0.0, -2.706330716609955 l-0.4059496149420738, -0.5412661656737328 m1.3531653583049774, 11.095956563949585 l0.5412661656737328, 0.6765826791524887 -0.6765826791524887, 0.2706330828368664 l-2.029748111963272, -0.1353165414184332 -1.4884819090366364, -2.165064662694931 l0.8118992298841476, -0.1353165414184332 2.165064662694931, 1.7591150104999542 " fill="none" stroke="black" stroke-width="1" /></svg>