<?xml version="1.0" encoding="utf-8" ?>
<svg baseProfile="full" height="61.96155026555061" version="1.1" width="102.55651294253767" xmlns="http://www.w3.org/2000/svg" xmlns:ev="http://www.w3.org/2001/xml-events" xmlns:xlink="http://www.w3.org/1999/xlink"><defs /><rect fill="white" height="61.96155026555061" width="102.55651294253767" x="0" y="0" /><path d="M47.218760419636965, 20.56140311062336 m1.6237984597682953, 5.5479782819747925 l0.1353165414184332, 9.742791056632996 -0.4059496149420738, 2.30038121342659 l-1.3531653583049774, 2.9769638180732727 -1.4884819090366364, 1.6237984597682953 l-0.8118992298841476, 0.2706330828368664 m4.059496223926544, -20.432798862457275 l2.8416472673416138, -1.6237984597682953 1.4884819090366364, -1.6237984597682953 l0.9472157806158066, -1.7591150104999542 0.4059496149420738, -1.8944315612316132 l0.1353165414184332, -1.8944315612316132 -0.5412661656737328, -1.6237984597682953 l-2.9769638180732727, -4.194812774658203 -2.435697764158249, -1.7591150104999542 l-2.706330716609955, -0.9472157806158066 -3.3829134702682495, -0.2706330828368664 l-2.165064662694931, 0.4059496149420738 -2.435697764158249, 1.3531653583049774 l-1.4884819090366364, 1.6237984597682953 -0.6765826791524887, 1.8944315612316132 l0.5412661656737328, 1.8944315612316132 m-2.165064662694931, -0.1353165414184332 l-2.571014165878296, -0.6765826791524887 -8.118992447853088, -0.5412661656737328 l-9.20152485370636, 1.8944315612316132 m1.3531653583049774, -1.0825323313474655 l-0.6765826791524887, -2.165064662694931 -1.6237984597682953, -1.4884819090366364 l-2.029748111963272, -0.6765826791524887 -2.8416472673416138, 0.1353165414184332 l-1.7591150104999542, 1.6237984597682953 -1.8944315612316132, 3.3829134702682495 l0.0, 2.30038121342659 0.9472157806158066, 1.3531653583049774 l1.2178488820791245, 0.2706330828368664 m1.3531653583049774, 2.8416472673416138 l-1.0825323313474655, 2.571014165878296 -0.1353165414184332, 3.5182300209999084 l2.435697764158249, 11.366589069366455 1.6237984597682953, 2.571014165878296 l4.871395528316498, 1.7591150104999542 m32.20533609390259, -14.3435537815094 l5.41266143321991, -1.3531653583049774 6.901143789291382, -3.1122803688049316 l8.660258650779724, -2.706330716609955 10.82532286643982, -2.571014165878296 l3.5182300209999084, -1.7591150104999542 5.81861138343811, 1.3531653583049774 l2.9769638180732727, 1.6237984597682953 3.6535465717315674, 1.2178488820791245 l1.0825323313474655, 1.3531653583049774 0.2706330828368664, 1.3531653583049774 l-2.165064662694931, 0.8118992298841476 -2.571014165878296, 4.736078977584839 l1.0825323313474655, 9.066208004951477 0.0, 4.871395528316498 l-0.6765826791524887, 6.359877586364746 -0.9472157806158066, 2.9769638180732727 l-5.277345180511475, 1.0825323313474655 -1.3531653583049774, -0.4059496149420738 l-0.4059496149420738, -0.6765826791524887 -0.1353165414184332, -2.571014165878296 l0.4059496149420738, -1.3531653583049774 2.165064662694931, -0.9472157806158066 l0.5412661656737328, -0.6765826791524887 0.1353165414184332, -3.5182300209999084 l-1.7591150104999542, -6.359877586364746 -0.5412661656737328, -0.6765826791524887 l-0.9472157806158066, 0.1353165414184332 -4.330129325389862, 2.8416472673416138 l-2.8416472673416138, 4.059496223926544 -4.330129325389862, 13.531653881072998 l-1.4884819090366364, 1.4884819090366364 -2.30038121342659, 0.1353165414184332 l-0.9472157806158066, -0.4059496149420738 -0.6765826791524887, -1.4884819090366364 l0.1353165414184332, -0.8118992298841476 3.1122803688049316, -3.9241796731948853 l0.5412661656737328, -1.6237984597682953 -0.1353165414184332, -3.2475969195365906 l-0.9472157806158066, -3.1122803688049316 " fill="none" stroke="black" stroke-width="1" /></svg>