<?xml version="1.0" encoding="utf-8" ?>
<svg baseProfile="full" height="78.19953743368387" version="1.1" width="54.11319276317954" xmlns="http://www.w3.org/2000/svg" xmlns:ev="http://www.w3.org/2001/xml-events" xmlns:xlink="http://www.w3.org/1999/xlink"><defs /><rect fill="white" height="78.19953743368387" width="54.11319276317954" x="0" y="0" /><path d="M36.52875371277332, 7.165064662694931 m-3.6535465717315674, -2.165064662694931 l-2.571014165878296, 0.0 -4.330129325389862, 0.8118992298841476 l-5.6832945346832275, 2.706330716609955 -2.571014165878296, 2.571014165878296 l0.0, 5.277345180511475 1.8944315612316132, 3.6535465717315674 l4.059496223926544, 3.3829134702682495 3.5182300209999084, 2.165064662694931 l1.0825323313474655, 0.4059496149420738 6.630510687828064, 0.1353165414184332 l3.5182300209999084, -1.8944315612316132 2.8416472673416138, -4.465445876121521 l1.3531653583049774, -4.465445876121521 0.0, -2.029748111963272 l-6.630510687828064, -5.6832945346832275 -2.8416472673416138, -1.7591150104999542 m-10.284056663513184, 16.779251098632812 l-1.3531653583049774, -0.1353165414184332 -6.765826940536499, 4.736078977584839 l-3.5182300209999084, 4.736078977584839 -1.7591150104999542, 3.1122803688049316 l-1.0825323313474655, 3.2475969195365906 -0.6765826791524887, 4.194812774658203 l0.6765826791524887, 9.87810730934143 5.953927636146545, 8.254309296607971 l10.690007209777832, 8.660258650779724 12.990387678146362, 0.0 l4.736078977584839, -0.8118992298841476 1.0825323313474655, -0.8118992298841476 l0.2706330828368664, -15.020135641098022 1.7591150104999542, -10.419373512268066 l0.8118992298841476, -1.7591150104999542 0.1353165414184332, -1.6237984597682953 l-0.4059496149420738, -7.036460041999817 -4.059496223926544, -4.736078977584839 l-6.630510687828064, -1.6237984597682953 -2.029748111963272, 0.8118992298841476 l-0.1353165414184332, 0.6765826791524887 m4.330129325389862, 28.416473865509033 l1.6237984597682953, 0.0 7.8483593463897705, 6.765826940536499 l1.3531653583049774, 2.435697764158249 0.4059496149420738, 1.6237984597682953 l0.0, 1.6237984597682953 -1.6237984597682953, 3.6535465717315674 l-2.029748111963272, 1.7591150104999542 -2.435697764158249, -0.1353165414184332 l-3.3829134702682495, -1.8944315612316132 -2.9769638180732727, -10.419373512268066 l-0.2706330828368664, -3.6535465717315674 1.7591150104999542, -4.194812774658203 l0.6765826791524887, -0.5412661656737328 -3.5182300209999084, -0.5412661656737328 m-21.24469757080078, 2.165064662694931 l-4.194812774658203, 2.029748111963272 -2.9769638180732727, 2.029748111963272 l-1.8944315612316132, 3.3829134702682495 0.1353165414184332, 3.5182300209999084 l0.9472157806158066, 2.165064662694931 2.571014165878296, 1.4884819090366364 l7.307093143463135, 0.4059496149420738 " fill="none" stroke="black" stroke-width="1" /></svg>