<?xml version="1.0" encoding="utf-8" ?>
<svg baseProfile="full" height="35.57482581585646" version="1.1" width="37.33394157141447" xmlns="http://www.w3.org/2000/svg" xmlns:ev="http://www.w3.org/2001/xml-events" xmlns:xlink="http://www.w3.org/1999/xlink"><defs /><rect fill="white" height="35.57482581585646" width="37.33394157141447" x="0" y="0" /><path d="M22.04988468438387, 11.495193941518664 m-0.6765826791524887, -0.5412661656737328 l-1.2178488820791245, -0.1353165414184332 -6.089244484901428, 0.4059496149420738 l-2.30038121342659, 1.8944315612316132 -0.9472157806158066, 1.4884819090366364 l-0.9472157806158066, 3.3829134702682495 0.1353165414184332, 5.953927636146545 l0.6765826791524887, 2.571014165878296 1.0825323313474655, 2.029748111963272 l2.571014165878296, 1.2178488820791245 4.465445876121521, 0.8118992298841476 l4.736078977584839, -0.4059496149420738 5.277345180511475, -2.029748111963272 l2.8416472673416138, -2.8416472673416138 0.4059496149420738, -1.8944315612316132 l-0.1353165414184332, -2.30038121342659 -1.2178488820791245, -3.7888631224632263 l-1.4884819090366364, -2.571014165878296 -4.194812774658203, -3.2475969195365906 l-1.3531653583049774, -0.4059496149420738 -1.0825323313474655, 0.5412661656737328 m1.8944315612316132, -0.9472157806158066 l1.0825323313474655, -2.9769638180732727 1.0825323313474655, -1.4884819090366364 l1.8944315612316132, -1.2178488820791245 1.7591150104999542, 0.2706330828368664 l0.8118992298841476, 0.5412661656737328 0.6765826791524887, 1.3531653583049774 l0.5412661656737328, 2.706330716609955 -0.4059496149420738, 3.2475969195365906 l-0.6765826791524887, 1.7591150104999542 m-17.997100353240967, -3.6535465717315674 l-2.30038121342659, -2.706330716609955 -2.30038121342659, -1.4884819090366364 l-2.9769638180732727, 2.30038121342659 -0.6765826791524887, 2.30038121342659 l0.4059496149420738, 2.029748111963272 1.6237984597682953, 2.706330716609955 l2.9769638180732727, 1.7591150104999542 3.1122803688049316, 0.5412661656737328 m6.089244484901428, 1.6237984597682953 l-0.6765826791524887, 0.6765826791524887 0.9472157806158066, 2.165064662694931 l1.3531653583049774, 0.2706330828368664 0.6765826791524887, -0.2706330828368664 l0.4059496149420738, -2.435697764158249 -2.435697764158249, -1.4884819090366364 l-1.2178488820791245, 0.1353165414184332 m2.30038121342659, 3.5182300209999084 l0.8118992298841476, 2.029748111963272 0.6765826791524887, 0.5412661656737328 l1.3531653583049774, -0.1353165414184332 -1.0825323313474655, -1.8944315612316132 m-2.8416472673416138, -0.6765826791524887 l-0.1353165414184332, 1.7591150104999542 -0.8118992298841476, 1.4884819090366364 l-0.6765826791524887, 0.4059496149420738 -2.30038121342659, -0.4059496149420738 m-0.5412661656737328, -8.660258650779724 l0.0, 0.0 " fill="none" stroke="black" stroke-width="1" /></svg>