<?xml version="1.0" encoding="utf-8" ?>
<svg baseProfile="full" height="53.165976367890835" version="1.1" width="77.11700349114835" xmlns="http://www.w3.org/2000/svg" xmlns:ev="http://www.w3.org/2001/xml-events" xmlns:xlink="http://www.w3.org/1999/xlink"><defs /><rect fill="white" height="53.165976367890835" width="77.11700349114835" x="0" y="0" /><path d="M10.683294646441936, 46.000911612063646 m-3.5182300209999084, -3.9241796731948853 l-1.6237984597682953, -3.7888631224632263 -0.5412661656737328, -3.2475969195365906 l0.0, -7.036460041999817 1.0825323313474655, -4.871395528316498 l1.4884819090366364, -3.5182300209999084 2.8416472673416138, -4.059496223926544 l0.1353165414184332, -8.118992447853088 0.8118992298841476, -1.3531653583049774 l0.9472157806158066, -0.2706330828368664 7.036460041999817, 0.2706330828368664 l2.029748111963272, 2.706330716609955 0.2706330828368664, 2.029748111963272 l0.8118992298841476, 0.2706330828368664 12.043172121047974, 0.0 l3.9241796731948853, 0.8118992298841476 4.194812774658203, -5.953927636146545 l0.6765826791524887, -0.5412661656737328 3.3829134702682495, -0.4059496149420738 l1.4884819090366364, 0.4059496149420738 2.9769638180732727, 3.1122803688049316 l0.5412661656737328, 4.330129325389862 9.607474207878113, 7.036460041999817 l2.706330716609955, 2.571014165878296 3.7888631224632263, 4.871395528316498 l2.165064662694931, 4.330129325389862 1.8944315612316132, 5.41266143321991 l0.2706330828368664, 7.7130430936813354 -1.0825323313474655, 3.3829134702682495 m-54.66788291931152, -9.336841106414795 l-0.6765826791524887, -1.8944315612316132 0.0, -3.9241796731948853 l0.4059496149420738, -1.4884819090366364 2.8416472673416138, -3.9241796731948853 l3.5182300209999084, -2.571014165878296 6.359877586364746, -1.8944315612316132 l7.036460041999817, -0.1353165414184332 2.029748111963272, 0.6765826791524887 l4.059496223926544, 2.8416472673416138 2.9769638180732727, 5.277345180511475 l0.9472157806158066, 3.9241796731948853 -0.2706330828368664, 3.5182300209999084 l-2.165064662694931, 2.029748111963272 -2.165064662694931, 1.0825323313474655 l-5.5479782819747925, 1.3531653583049774 -10.690007209777832, 0.1353165414184332 l-5.277345180511475, -2.30038121342659 -1.2178488820791245, -0.9472157806158066 m7.307093143463135, -9.742791056632996 l-0.1353165414184332, 1.6237984597682953 -0.9472157806158066, 2.165064662694931 l-1.3531653583049774, 1.4884819090366364 -1.7591150104999542, 0.2706330828368664 m3.3829134702682495, -3.9241796731948853 l1.4884819090366364, 2.9769638180732727 2.706330716609955, 1.7591150104999542 l7.036460041999817, 0.1353165414184332 0.2706330828368664, -0.4059496149420738 m0.5412661656737328, -22.327229976654053 l0.0, 0.0 " fill="none" stroke="black" stroke-width="1" /></svg>