<?xml version="1.0" encoding="utf-8" ?>
<svg baseProfile="full" height="62.23218550905585" version="1.1" width="68.99801247753203" xmlns="http://www.w3.org/2000/svg" xmlns:ev="http://www.w3.org/2001/xml-events" xmlns:xlink="http://www.w3.org/1999/xlink"><defs /><rect fill="white" height="62.23218550905585" width="68.99801247753203" x="0" y="0" /><path d="M25.974063565954566, 15.284056952223182 m0.1353165414184332, -4.465445876121521 l-2.8416472673416138, -2.8416472673416138 -4.059496223926544, -2.8416472673416138 l-5.6832945346832275, -0.1353165414184332 -3.6535465717315674, 1.2178488820791245 l-4.60076242685318, 7.8483593463897705 -0.2706330828368664, 1.3531653583049774 l0.2706330828368664, 7.7130430936813354 5.5479782819747925, 7.983676195144653 l3.1122803688049316, 1.6237984597682953 0.8118992298841476, 0.0 l3.3829134702682495, -2.029748111963272 0.8118992298841476, -1.3531653583049774 l-2.9769638180732727, 2.165064662694931 -1.8944315612316132, 3.9241796731948853 l-1.4884819090366364, 6.089244484901428 0.0, 4.194812774658203 l0.5412661656737328, 1.4884819090366364 2.029748111963272, 3.1122803688049316 l6.901143789291382, 6.630510687828064 3.2475969195365906, 0.2706330828368664 l5.142028331756592, -0.4059496149420738 2.165064662694931, -0.9472157806158066 l2.8416472673416138, 0.0 12.31380581855774, -1.4884819090366364 l2.9769638180732727, -1.8944315612316132 2.30038121342659, -2.165064662694931 l1.2178488820791245, -1.4884819090366364 0.6765826791524887, -2.165064662694931 l0.1353165414184332, -5.953927636146545 -3.5182300209999084, -7.1717768907547 l-4.194812774658203, -5.142028331756592 5.5479782819747925, -1.8944315612316132 l3.2475969195365906, -1.7591150104999542 6.089244484901428, -8.930891752243042 l0.5412661656737328, -1.8944315612316132 0.5412661656737328, -0.8118992298841476 l0.6765826791524887, -0.1353165414184332 -8.930891752243042, -6.224560737609863 l-3.2475969195365906, -0.4059496149420738 -2.029748111963272, 0.5412661656737328 l-2.165064662694931, 2.029748111963272 -1.7591150104999542, 3.1122803688049316 l-2.8416472673416138, 3.2475969195365906 -2.706330716609955, 4.736078977584839 l-0.9472157806158066, 7.307093143463135 -0.5412661656737328, -2.30038121342659 l-6.630510687828064, -4.60076242685318 -2.30038121342659, -0.1353165414184332 l-3.5182300209999084, 1.8944315612316132 0.1353165414184332, -5.5479782819747925 l0.8118992298841476, -4.871395528316498 -1.3531653583049774, 0.0 m-0.9472157806158066, 26.25140905380249 l0.1353165414184332, 0.8118992298841476 -0.6765826791524887, 0.5412661656737328 l0.2706330828368664, -2.8416472673416138 0.6765826791524887, 1.6237984597682953 m12.449121475219727, -1.8944315612316132 l0.2706330828368664, 2.165064662694931 0.4059496149420738, -0.6765826791524887 l0.2706330828368664, -0.6765826791524887 -1.8944315612316132, 1.3531653583049774 m-12.990387678146362, 8.254309296607971 l1.6237984597682953, -0.1353165414184332 1.4884819090366364, -0.9472157806158066 l2.8416472673416138, -0.8118992298841476 3.2475969195365906, 0.0 l1.4884819090366364, 0.5412661656737328 2.165064662694931, 1.7591150104999542 l0.4059496149420738, 0.9472157806158066 0.0, 3.9241796731948853 l-1.4884819090366364, 1.4884819090366364 -0.6765826791524887, 0.1353165414184332 l-2.165064662694931, 0.0 -3.6535465717315674, -1.6237984597682953 l-3.6535465717315674, -2.9769638180732727 -0.2706330828368664, -2.30038121342659 " fill="none" stroke="black" stroke-width="1" /></svg>