<?xml version="1.0" encoding="utf-8" ?>
<svg baseProfile="full" height="38.68710675276816" version="1.1" width="59.119903929531574" xmlns="http://www.w3.org/2000/svg" xmlns:ev="http://www.w3.org/2001/xml-events" xmlns:xlink="http://www.w3.org/1999/xlink"><defs /><rect fill="white" height="38.68710675276816" width="59.119903929531574" x="0" y="0" /><path d="M40.3176165279001, 10.547978095710278 m-3.7888631224632263, -2.8416472673416138 l-2.571014165878296, -1.0825323313474655 -7.8483593463897705, -0.2706330828368664 l-5.41266143321991, 1.6237984597682953 -5.953927636146545, -0.1353165414184332 l-3.6535465717315674, 2.165064662694931 -1.6237984597682953, 1.3531653583049774 l-1.4884819090366364, 2.029748111963272 -0.6765826791524887, 1.0825323313474655 l-2.165064662694931, 9.742791056632996 -0.1353165414184332, 8.660258650779724 l0.8118992298841476, 0.5412661656737328 3.2475969195365906, 0.2706330828368664 l2.165064662694931, -0.8118992298841476 0.6765826791524887, -2.30038121342659 l0.2706330828368664, -5.953927636146545 4.60076242685318, 0.8118992298841476 l6.495193839073181, 0.1353165414184332 1.6237984597682953, 0.5412661656737328 l7.8483593463897705, 0.0 0.6765826791524887, 0.5412661656737328 l0.0, 3.1122803688049316 0.5412661656737328, 1.3531653583049774 l2.9769638180732727, 0.9472157806158066 2.30038121342659, 0.0 l0.4059496149420738, -0.6765826791524887 0.8118992298841476, -8.660258650779724 l0.8118992298841476, -0.5412661656737328 4.465445876121521, 0.4059496149420738 l4.059496223926544, -0.4059496149420738 2.9769638180732727, -2.8416472673416138 l1.0825323313474655, -2.571014165878296 0.2706330828368664, -8.254309296607971 l-0.6765826791524887, -1.8944315612316132 -1.4884819090366364, -1.0825323313474655 l-1.8944315612316132, -0.5412661656737328 -3.5182300209999084, 0.0 l-2.706330716609955, 0.5412661656737328 " fill="none" stroke="black" stroke-width="1" /></svg>