<?xml version="1.0" encoding="utf-8" ?>
<svg baseProfile="full" height="65.47978111542761" version="1.1" width="56.007624408230186" xmlns="http://www.w3.org/2000/svg" xmlns:ev="http://www.w3.org/2001/xml-events" xmlns:xlink="http://www.w3.org/1999/xlink"><defs /><rect fill="white" height="65.47978111542761" width="56.007624408230186" x="0" y="0" /><path d="M45.32433004118502, 29.086344251409173 m-1.2178488820791245, -1.8944315612316132 l-2.706330716609955, -7.8483593463897705 -0.9472157806158066, -1.0825323313474655 l-4.871395528316498, -0.6765826791524887 -3.3829134702682495, 1.2178488820791245 l-3.2475969195365906, 1.8944315612316132 -3.7888631224632263, 4.465445876121521 l-0.6765826791524887, 1.4884819090366364 -0.1353165414184332, 2.8416472673416138 l2.571014165878296, 8.795575499534607 2.706330716609955, 4.871395528316498 l1.4884819090366364, 1.8944315612316132 2.30038121342659, 1.7591150104999542 l2.706330716609955, 1.2178488820791245 3.7888631224632263, 0.4059496149420738 l2.9769638180732727, -0.8118992298841476 2.571014165878296, -2.029748111963272 l2.165064662694931, -2.435697764158249 0.8118992298841476, -2.30038121342659 l0.1353165414184332, -2.9769638180732727 -7.036460041999817, -13.802287578582764 m1.2178488820791245, 5.6832945346832275 l3.6535465717315674, -0.6765826791524887 3.9241796731948853, -2.571014165878296 l0.5412661656737328, 1.2178488820791245 m-0.2706330828368664, 6.630510687828064 l0.0, -0.2706330828368664 m-0.9472157806158066, -5.277345180511475 l0.6765826791524887, 1.6237984597682953 0.6765826791524887, 6.495193839073181 l-0.4059496149420738, -1.0825323313474655 -3.9241796731948853, -0.2706330828368664 l-1.4884819090366364, -0.5412661656737328 m-10.148741006851196, -7.577726244926453 l0.1353165414184332, 0.0 m-1.3531653583049774, -9.472157955169678 l-0.5412661656737328, -0.1353165414184332 -0.8118992298841476, -1.4884819090366364 l-2.8416472673416138, -9.87810730934143 -0.4059496149420738, -1.2178488820791245 l-0.5412661656737328, -0.2706330828368664 -1.3531653583049774, 6.224560737609863 l-0.6765826791524887, 6.224560737609863 1.6237984597682953, 4.60076242685318 l1.7591150104999542, 1.7591150104999542 0.0, -1.0825323313474655 m-5.142028331756592, 9.607474207878113 l-7.1717768907547, -3.5182300209999084 -8.254309296607971, -0.9472157806158066 l-2.029748111963272, 0.2706330828368664 -1.2178488820791245, 1.8944315612316132 l-0.9472157806158066, 5.277345180511475 -0.2706330828368664, 8.118992447853088 l0.9472157806158066, 1.8944315612316132 2.8416472673416138, 2.029748111963272 l5.5479782819747925, 1.8944315612316132 8.118992447853088, -0.1353165414184332 l6.495193839073181, -2.30038121342659 0.8118992298841476, -0.9472157806158066 m-21.78596258163452, -17.049884796142578 l-1.4884819090366364, -0.1353165414184332 -0.5412661656737328, 0.2706330828368664 l-0.8118992298841476, 1.4884819090366364 0.0, 2.165064662694931 l1.0825323313474655, 2.706330716609955 -0.4059496149420738, -0.4059496149420738 m2.029748111963272, 7.442409992218018 l0.2706330828368664, 7.442409992218018 -0.2706330828368664, 4.60076242685318 l-0.6765826791524887, 3.5182300209999084 0.0, 2.435697764158249 l0.6765826791524887, 0.1353165414184332 1.3531653583049774, -0.5412661656737328 l1.3531653583049774, -1.7591150104999542 2.165064662694931, -4.736078977584839 l0.6765826791524887, -5.006712079048157 0.1353165414184332, -9.066208004951477 l0.0, -1.7591150104999542 -0.9472157806158066, 6.901143789291382 m9.066208004951477, -5.41266143321991 l0.0, 8.930891752243042 0.6765826791524887, 4.60076242685318 l0.2706330828368664, 1.0825323313474655 1.3531653583049774, 1.3531653583049774 l0.4059496149420738, -1.6237984597682953 -0.4059496149420738, -7.577726244926453 l-1.0825323313474655, -1.7591150104999542 " fill="none" stroke="black" stroke-width="1" /></svg>