<?xml version="1.0" encoding="utf-8" ?>
<svg baseProfile="full" height="84.96536251157522" version="1.1" width="82.12371695786715" xmlns="http://www.w3.org/2000/svg" xmlns:ev="http://www.w3.org/2001/xml-events" xmlns:xlink="http://www.w3.org/1999/xlink"><defs /><rect fill="white" height="84.96536251157522" width="82.12371695786715" x="0" y="0" /><path d="M28.54507753625512, 18.261020677164197 m-3.2475969195365906, 0.8118992298841476 l-2.571014165878296, 1.2178488820791245 -5.006712079048157, 3.5182300209999084 l-2.30038121342659, 2.30038121342659 -3.2475969195365906, 4.871395528316498 l-1.6237984597682953, 6.359877586364746 1.2178488820791245, 6.765826940536499 l1.4884819090366364, 3.1122803688049316 1.7591150104999542, 2.165064662694931 l3.9241796731948853, 2.571014165878296 2.571014165878296, 0.6765826791524887 l5.006712079048157, 0.1353165414184332 2.029748111963272, -0.5412661656737328 l6.359877586364746, -2.435697764158249 3.7888631224632263, -2.435697764158249 l7.307093143463135, -6.495193839073181 3.2475969195365906, -5.142028331756592 l1.4884819090366364, -5.277345180511475 -0.2706330828368664, -3.6535465717315674 l-1.0825323313474655, -2.571014165878296 -2.8416472673416138, -3.7888631224632263 l-3.1122803688049316, -2.8416472673416138 -4.60076242685318, -1.4884819090366364 l-3.5182300209999084, -0.6765826791524887 -4.871395528316498, 0.6765826791524887 l-3.1122803688049316, 1.6237984597682953 -0.5412661656737328, 0.6765826791524887 l0.0, 1.0825323313474655 m0.0, -2.571014165878296 l-5.41266143321991, -6.630510687828064 -4.059496223926544, -3.3829134702682495 l-1.4884819090366364, -0.8118992298841476 -4.330129325389862, -1.0825323313474655 l-2.165064662694931, 0.6765826791524887 -0.6765826791524887, 0.6765826791524887 l-2.9769638180732727, 4.059496223926544 -0.6765826791524887, 4.736078977584839 l0.9472157806158066, 4.736078977584839 1.8944315612316132, 4.330129325389862 l2.029748111963272, 2.571014165878296 3.9241796731948853, 2.9769638180732727 l1.7591150104999542, -0.1353165414184332 m24.62761163711548, -11.772539615631104 l3.3829134702682495, -2.9769638180732727 4.60076242685318, -2.30038121342659 l8.389625549316406, -2.165064662694931 5.6832945346832275, -0.1353165414184332 l3.7888631224632263, 1.0825323313474655 3.5182300209999084, 2.30038121342659 l5.142028331756592, 5.277345180511475 2.029748111963272, 4.465445876121521 l0.4059496149420738, 3.6535465717315674 -0.2706330828368664, 1.4884819090366364 l-1.2178488820791245, 2.435697764158249 -2.706330716609955, 2.029748111963272 l-7.7130430936813354, 3.5182300209999084 -10.013424158096313, 0.9472157806158066 l-5.277345180511475, 1.7591150104999542 -4.60076242685318, 0.8118992298841476 m-27.604575157165527, -1.3531653583049774 l2.435697764158249, 1.6237984597682953 3.5182300209999084, 1.3531653583049774 l4.194812774658203, 1.0825323313474655 5.41266143321991, 0.4059496149420738 l5.953927636146545, -1.0825323313474655 4.194812774658203, -3.5182300209999084 m-6.495193839073181, -12.58443832397461 l0.0, 0.0 m-10.960639715194702, 2.165064662694931 l0.1353165414184332, 2.165064662694931 m10.284056663513184, -6.359877586364746 l-0.5412661656737328, 4.871395528316498 0.1353165414184332, 1.2178488820791245 l1.0825323313474655, 1.6237984597682953 m-17.185200452804565, 20.838747024536133 l-1.7591150104999542, 9.87810730934143 -0.6765826791524887, 7.7130430936813354 l0.2706330828368664, 2.571014165878296 0.9472157806158066, 2.30038121342659 l2.571014165878296, 3.1122803688049316 3.6535465717315674, 1.6237984597682953 l2.165064662694931, 0.2706330828368664 5.41266143321991, -1.6237984597682953 l4.194812774658203, -3.6535465717315674 3.3829134702682495, -5.6832945346832275 l0.6765826791524887, -2.8416472673416138 0.0, -3.6535465717315674 l-1.3531653583049774, -4.330129325389862 -1.4884819090366364, -2.8416472673416138 l-1.6237984597682953, -1.4884819090366364 -4.059496223926544, -2.165064662694931 m1.4884819090366364, -1.3531653583049774 l4.194812774658203, 1.0825323313474655 2.30038121342659, -0.2706330828368664 l10.82532286643982, 0.9472157806158066 4.465445876121521, 1.8944315612316132 l1.6237984597682953, 2.30038121342659 0.1353165414184332, 1.4884819090366364 l-1.2178488820791245, 2.165064662694931 -0.9472157806158066, 0.8118992298841476 l-1.7591150104999542, 0.4059496149420738 -6.495193839073181, -0.4059496149420738 l-5.81861138343811, -1.8944315612316132 -4.194812774658203, -0.8118992298841476 " fill="none" stroke="black" stroke-width="1" /></svg>