<?xml version="1.0" encoding="utf-8" ?>
<svg baseProfile="full" height="31.24469674192369" version="1.1" width="35.98077580332756" xmlns="http://www.w3.org/2000/svg" xmlns:ev="http://www.w3.org/2001/xml-events" xmlns:xlink="http://www.w3.org/1999/xlink"><defs /><rect fill="white" height="31.24469674192369" width="35.98077580332756" x="0" y="0" /><path d="M9.736078819260001, 13.25430890545249 m-1.8944315612316132, 0.2706330828368664 l-2.706330716609955, -0.5412661656737328 -0.1353165414184332, -2.029748111963272 l0.2706330828368664, -2.571014165878296 1.2178488820791245, -1.2178488820791245 l3.2475969195365906, -0.5412661656737328 3.1122803688049316, 1.6237984597682953 l1.3531653583049774, 1.2178488820791245 0.0, 0.5412661656737328 l7.1717768907547, 0.0 0.0, -2.30038121342659 l2.029748111963272, -1.7591150104999542 3.1122803688049316, -0.9472157806158066 l1.8944315612316132, 0.4059496149420738 1.6237984597682953, 2.571014165878296 l0.4059496149420738, 1.7591150104999542 -3.6535465717315674, 3.5182300209999084 l0.9472157806158066, 0.1353165414184332 1.0825323313474655, 1.2178488820791245 l1.8944315612316132, 3.7888631224632263 0.2706330828368664, 2.165064662694931 l-2.30038121342659, 2.30038121342659 -3.5182300209999084, 2.165064662694931 l-2.165064662694931, 0.8118992298841476 -2.9769638180732727, 0.4059496149420738 l-2.8416472673416138, -0.1353165414184332 -4.194812774658203, -0.6765826791524887 l-5.142028331756592, -2.9769638180732727 -0.9472157806158066, -0.9472157806158066 l-0.1353165414184332, -2.029748111963272 0.4059496149420738, -1.3531653583049774 l2.571014165878296, -3.5182300209999084 0.9472157806158066, -0.5412661656737328 m2.706330716609955, 1.7591150104999542 l0.8118992298841476, 1.3531653583049774 m6.359877586364746, -3.7888631224632263 l0.6765826791524887, 2.8416472673416138 " fill="none" stroke="black" stroke-width="1" /></svg>