<?xml version="1.0" encoding="utf-8" ?>
<svg baseProfile="full" height="75.712199062109" version="1.1" width="66.678182836622" xmlns="http://www.w3.org/2000/svg" xmlns:ev="http://www.w3.org/2001/xml-events" xmlns:xlink="http://www.w3.org/1999/xlink"><defs /><rect fill="white" height="75.712199062109" width="66.678182836622" x="0" y="0" /><path d="M25, 31.138497907668352 m0.0, 7.29670524597168 l1.505669355392456, 1.7373107373714447 4.401187300682068, 1.2740278244018555 l4.517008066177368, 0.23164143785834312 1.6214899718761444, -0.8107449859380722 l1.6214899718761444, -1.853131502866745 0.9265657514333725, -3.011338710784912 l0.11582071892917156, -1.9689521193504333 -1.6214899718761444, -4.632828533649445 l-0.11582071892917156, -4.401187300682068 -2.6638764142990112, 4.285366535186768 l-5.3277528285980225, 0.0 -0.6949242949485779, -0.46328287571668625 l-2.3164142668247223, -3.358800709247589 -0.9265657514333725, 1.2740278244018555 l-0.9265657514333725, 4.169545769691467 m3.358800709247589, 5.096111297607422 l0.0, 0.0 m7.991629242897034, -1.3898485898971558 l0.0, 0.0 m-7.41252601146698, 0.34746214747428894 l-0.8107449859380722, -0.11582071892917156 -0.34746214747428894, 0.46328287571668625 m9.49729859828949, -0.9265657514333725 l-0.23164143785834312, 0.5791035667061806 0.46328287571668625, 0.11582071892917156 m-5.906856656074524, 2.7796971797943115 l-0.11582071892917156, 0.5791035667061806 0.5791035667061806, 0.34746214747428894 l1.9689521193504333, 0.0 1.1582071334123611, -2.4322350323200226 m-6.485959887504578, 3.5904422402381897 l-0.5791035667061806, 0.5791035667061806 -0.34746214747428894, 1.505669355392456 l-0.46328287571668625, 6.1384981870651245 2.0847728848457336, 0.34746214747428894 l0.8107449859380722, -1.3898485898971558 0.0, -0.8107449859380722 l1.9689521193504333, 3.4746214747428894 0.8107449859380722, 0.5791035667061806 l1.6214899718761444, 0.34746214747428894 1.7373107373714447, -0.23164143785834312 l1.1582071334123611, -1.0423864424228668 0.34746214747428894, -4.169545769691467 l-0.5791035667061806, -4.401187300682068 m1.3898485898971558, -2.4322350323200226 l2.7796971797943115, 3.9379042387008667 0.11582071892917156, 1.3898485898971558 l-0.6949242949485779, 1.2740278244018555 -2.3164142668247223, 1.1582071334123611 m-6.254318952560425, -10.887147188186646 l0.34746214747428894, 0.5791035667061806 0.5791035667061806, -0.23164143785834312 l-0.46328287571668625, -0.34746214747428894 m0.6949242949485779, 0.5791035667061806 l0.23164143785834312, 2.3164142668247223 m2.7796971797943115, -8.802374601364136 l0.23164143785834312, -0.6949242949485779 m-9.26565706729889, 1.6214899718761444 l0.0, -2.4322350323200226 " fill="none" stroke="black" stroke-width="1" /></svg>