<?xml version="1.0" encoding="utf-8" ?>
<svg baseProfile="full" height="253.73392555862665" version="1.1" width="154.1137569118291" xmlns="http://www.w3.org/2000/svg" xmlns:ev="http://www.w3.org/2001/xml-events" xmlns:xlink="http://www.w3.org/1999/xlink"><defs /><rect fill="white" height="253.73392555862665" width="154.1137569118291" x="0" y="0" /><path d="M46.06907330919057, 228.73392555862665 m-0.6648430228233337, -1.1002441495656967 l-0.07585432846099138, -1.3190947473049164 0.4556063190102577, -1.3465666770935059 l1.3434119522571564, -1.4830484986305237 2.2932812571525574, -1.842275857925415 l3.198642134666443, -2.0280827581882477 3.8118457794189453, -2.3552709817886353 l4.049525856971741, -2.918168604373932 3.8255587220191956, -3.2883891463279724 l3.4271395206451416, -3.7637928128242493 2.8224849700927734, -3.774186372756958 l1.9720058143138885, -3.816738724708557 1.0919331014156342, -3.718569278717041 l0.3979092836380005, -3.8745537400245667 -0.30268436297774315, -3.6942246556282043 l-1.1870501935482025, -3.590303361415863 -1.9168289005756378, -3.6890995502471924 l-2.3205479979515076, -3.237501084804535 -2.63217955827713, -2.815823256969452 l-2.913411259651184, -2.3665833473205566 -3.0483388900756836, -2.2263415157794952 l-2.947840392589569, -2.125190943479538 -2.902677357196808, -1.9430577754974365 l-2.8293633460998535, -1.9285808503627777 -2.7772417664527893, -1.6062641143798828 l-2.650083005428314, -1.5039119124412537 -2.537040412425995, -1.3943064212799072 l-2.1420280635356903, -1.286870688199997 -1.7902038991451263, -1.322556883096695 l-1.5338005125522614, -1.5096168220043182 -1.2325892597436905, -1.7162415385246277 l-0.6957404315471649, -1.6692446172237396 -0.4470660537481308, -1.7532755434513092 l0.07604049053043127, -1.9806911051273346 0.3327997401356697, -2.1795974671840668 l0.45930955559015274, -2.4076148867607117 0.45975811779499054, -2.095855623483658 l0.6256690621376038, -1.9025573134422302 0.5698233097791672, -1.7752452194690704 l0.43569181114435196, -1.9200220704078674 0.5030146241188049, -2.213399112224579 l0.4706714302301407, -2.2389447689056396 0.5309564620256424, -2.72007554769516 l0.390675850212574, -2.666202485561371 0.31871162354946136, -2.5053822994232178 l0.14863982796669006, -2.5641536712646484 -0.0622711842879653, -2.4510613083839417 l-0.16837414354085922, -2.372574210166931 -0.15828145667910576, -2.22906157374382 l-0.23048914968967438, -2.1090885996818542 -0.34945499151945114, -2.0474961400032043 l-0.5066171288490295, -2.130938470363617 -0.6657975167036057, -2.259993255138397 l-0.9427551180124283, -2.266605645418167 -0.6203494220972061, -2.1359220147132874 l-0.5441570281982422, -2.0381034910678864 -0.5351811274886131, -2.0887283980846405 l-0.5611466616392136, -1.8773181736469269 -0.7787568867206573, -2.1304520964622498 l-0.9975822269916534, -2.1508586406707764 -1.1711438745260239, -2.079353779554367 l-0.841556191444397, -2.1492500603199005 -0.9299974888563156, -1.9924816489219666 l-1.0766077786684036, -1.8652437627315521 -1.212051585316658, -1.9466441869735718 l-1.0987437516450882, -1.931757926940918 -0.7289109379053116, -1.9229182600975037 l-0.5818056687712669, -1.8475951254367828 -0.513586550951004, -1.7560319602489471 l-0.2571490406990051, -1.1998014897108078 0.05493191070854664, -1.1939206719398499 l0.19026566296815872, -1.1782775819301605 0.5294643715023994, -1.200026422739029 l0.6558657437562943, -1.2218721956014633 0.8902689814567566, -0.9250004589557648 l1.3100524246692657, -0.9988484531641006 1.5695708990097046, -0.9639129042625427 l1.6877031326293945, -0.8213911205530167 1.7677250504493713, -0.7983060926198959 l2.124609053134918, -0.9137477725744247 2.3130670189857483, -0.8747532963752747 l2.543150782585144, -0.7515259832143784 2.6679542660713196, -1.020510345697403 l2.700757086277008, -1.0685660690069199 2.8290405869483948, -1.0449202358722687 l2.8097209334373474, -0.793633908033371 2.9439914226531982, -0.899946466088295 l2.8805628418922424, -1.0502969473600388 3.0706176161766052, -1.0970189422369003 l3.0733194947242737, -1.0125600546598434 3.0852511525154114, -1.0832690447568893 l3.041493594646454, -1.0106418281793594 3.009677529335022, -1.0370665043592453 l2.866986393928528, -1.1606916785240173 2.6598048210144043, -1.1275962740182877 l2.5297820568084717, -1.2954531610012054 2.288798689842224, -1.281796246767044 l2.3374618589878082, -1.2443028390407562 2.0454303920269012, -1.1864211410284042 l1.9199764728546143, -1.0418139398097992 1.8490895628929138, -0.9146154671907425 l1.7866969108581543, -1.084626391530037 1.7272430658340454, -1.0781745612621307 l1.6830505430698395, -0.909414142370224 1.6537900269031525, -0.6039593368768692 l1.6412366926670074, -1.001831442117691 1.5200553834438324, -0.8824413269758224 l1.6177745163440704, -0.6835831701755524 1.4847387373447418, -0.6902169436216354 l1.3846440613269806, -0.7247892767190933 1.1640172451734543, -0.719887986779213 l1.2377960979938507, -0.7500247657299042 1.4349815249443054, -0.8544394373893738 l1.3508039712905884, -0.7166591286659241 1.1986447125673294, -0.3980899229645729 l1.5318456292152405, -0.3807350993156433 1.3638018071651459, -0.1752219721674919 l1.2274421751499176, -0.29942385852336884 1.1000487953424454, -0.45701369643211365 l1.211850792169571, -0.5618984997272491 0.9839952737092972, -0.2641010656952858 l1.0970458388328552, -0.41919462382793427 0.8957759290933609, -0.4700346291065216 l1.0153091698884964, -0.45185569673776627 1.2533266842365265, -0.2934703044593334 l1.1951155215501785, 0.02302328124642372 1.3177680969238281, -0.15209732577204704 l1.2565816938877106, -0.15890194103121758 1.5319842100143433, -0.20515922456979752 " fill="none" stroke="black" stroke-width="1" /></svg>