<?xml version="1.0" encoding="utf-8" ?>
<svg baseProfile="full" height="310.0987061491469" version="1.1" width="1010.2654093119781" xmlns="http://www.w3.org/2000/svg" xmlns:ev="http://www.w3.org/2001/xml-events" xmlns:xlink="http://www.w3.org/1999/xlink"><defs /><rect fill="white" height="310.0987061491469" width="1010.2654093119781" x="0" y="0" /><path d="M25, 25 m0.0, 0.0 m42.83384751994163, 45.13960296171717 l0.05688157398253679, -2.712455987930298 1.1759503930807114, -2.6502278447151184 l0.5644308775663376, -0.0339577067643404 2.050936669111252, 4.174707531929016 l2.2122155129909515, -0.7133518159389496 3.2299500703811646, -0.007796946447342634 l1.514522135257721, 0.5593760311603546 3.6842727661132812, -3.4100785851478577 l0.4580780491232872, 0.38841139525175095 -0.1982850395143032, 4.540419280529022 l0.5837920680642128, 1.5832118690013885 -0.07358592934906483, 1.9543768465518951 l-0.8631318062543869, 2.06847608089447 -1.622345745563507, 1.8721148371696472 l-2.1748846769332886, 1.326310932636261 -2.5816363096237183, 0.6822483986616135 l-2.596839666366577, 0.07073932327330112 -2.2353121638298035, -0.5618292838335037 l-1.7745257914066315, -1.1428900808095932 -1.3597822189331055, -1.543564796447754 l-0.9373777359724045, -2.4550817906856537 0.061926920898258686, -2.522502839565277 l0.5967820435762405, -1.4334121346473694 m4.588388502597809, 2.860611081123352 l0.0033695288584567606, 0.003438713902141899 m6.127966642379761, -0.7865971326828003 l0.00792676699347794, 0.002227213262813166 m-4.626939296722412, 2.1658648550510406 l0.006812302162870765, 0.001234567753272131 m3.08791846036911, -0.4983687400817871 l0.008677071309648454, 0.0009354571375297382 m-1.6628709435462952, 1.6910244524478912 l0.01067401492036879, 0.0025028275558725 m0.26469336822628975, -0.27864839881658554 l0.9386805444955826, -0.2664157934486866 m-0.995938777923584, 0.3224411979317665 l1.3443364202976227, -0.3037347085773945 m-0.40387801826000214, 0.7103363424539566 l4.083133339881897, -0.4197011888027191 m-3.3486518263816833, 1.2485139071941376 l2.9392623901367188, 0.5617348104715347 m-7.395470142364502, -0.9996227920055389 l-3.9866334199905396, -0.008312753634527326 m3.60431969165802, 0.71355901658535 l-3.8492515683174133, 1.2441593408584595 m-0.6388805850292556, 91.95992698672853 l0.024039074778556824, -2.6066675782203674 1.1474725604057312, -2.450065016746521 l0.5906674638390541, 0.0002186618439736776 2.153922915458679, 4.044974446296692 l2.261071652173996, -0.7008887082338333 3.0919963121414185, -0.007595387287437916 l2.176966220140457, 0.9811802208423615 1.5302756428718567, -2.589884400367737 l2.1059083938598633, -1.7084328830242157 0.39539217948913574, 0.5284631624817848 l-0.5056066066026688, 4.571869969367981 0.3537450358271599, 1.5727812051773071 l-0.26935385540127754, 2.0614470541477203 -0.9757480025291443, 2.111622542142868 l-1.6448739171028137, 1.7566831409931183 -2.255096882581711, 1.2427294254302979 l-2.576283812522888, 0.5726831033825874 -2.593691349029541, -0.043640006333589554 l-2.173534333705902, -0.7133869081735611 -1.6715671122074127, -1.1647478491067886 l-1.4937891066074371, -2.130618393421173 -0.5285947024822235, -2.4863967299461365 l0.3351907432079315, -2.3363077640533447 0.7782141119241714, -1.2105981260538101 m4.193525016307831, 3.436494469642639 l0.002916085359174758, 0.0013465058873407543 m5.990885496139526, -0.5472756922245026 l0.0090614496730268, 0.0015350345347542316 m-5.077268481254578, 1.4734399318695068 l0.004243093426339328, -0.0005941680137766525 m4.459471106529236, -0.5661915615200996 l0.007451838464476168, 0.0032669436768628657 m-2.6849043369293213, 1.9828735291957855 l0.01053679152391851, 0.001549266598885879 m1.065136045217514, -0.011154781095683575 l3.251507580280304, -0.7772420346736908 m-2.135631740093231, 1.4719730615615845 l2.9184815287590027, 0.35168617963790894 m-2.7738484740257263, 0.7021059840917587 l2.5581058859825134, 1.0260160267353058 m-7.9641640186309814, -2.332308292388916 l-4.266652464866638, -0.005290392437018454 m4.016839861869812, 0.9272377192974091 l-3.7877044081687927, 1.372121274471283 m3.992602229118347, -0.29424717649817467 l-3.336048722267151, 2.130722552537918 m1.5143292883294635, 105.35526364887119 l-1.508076936006546, -0.21110083907842636 -1.6965974867343903, -1.3243062794208527 l-1.285511702299118, -2.3106978833675385 -0.5177251249551773, -2.852180600166321 l0.3869291767477989, -2.7147898077964783 1.5561756491661072, -2.5143757462501526 l2.4403204023838043, -1.8367744982242584 2.976449429988861, -0.9939619153738022 l4.239530861377716, -0.016296840040013194 2.7330681681632996, 1.0907354205846786 l1.5799666941165924, 1.2220682203769684 1.130812019109726, 1.627965122461319 l0.4953528195619583, 2.0264308154582977 -0.177188441157341, 2.1895731985569 l-1.0309287160634995, 2.13852196931839 -1.7402742803096771, 1.8385228514671326 l-2.2489994764328003, 1.293444186449051 -3.4592702984809875, 0.8182445168495178 l-2.211124747991562, -0.01237925374880433 m-4.710640013217926, -10.6077241897583 l0.4139023646712303, -5.38784921169281 0.9928470104932785, -3.007141649723053 l0.560937337577343, -0.07888950407505035 2.30098158121109, 4.50273871421814 l0.918133333325386, 0.9472894668579102 m6.227121949195862, -0.827786922454834 l2.849258780479431, -3.83988618850708 2.1438859403133392, -1.5679062902927399 l0.36757417023181915, 0.7249120622873306 -1.1052874475717545, 5.964849591255188 l-0.06640673149377108, 1.1383644491434097 m-9.772974848747253, 4.276776015758514 l0.010691095376387239, 0.0003885849946527742 -0.0928189605474472, -0.21287579089403152 l0.28474727645516396, 0.03192360047250986 0.2030545473098755, -0.0005961113492958248 m5.108826756477356, -0.8279503136873245 l0.06859296467155218, 0.15343105420470238 0.19239144399762154, -0.3384258970618248 l-0.0486324168741703, 0.025630365125834942 m-3.06304931640625, 3.3654040098190308 l1.6623395681381226, -0.24955503642559052 6.944470405578613, -1.5306323766708374 m-7.247024774551392, 2.8077778220176697 l6.567904949188232, 0.06432084366679192 2.1291565895080566, 0.3350730240345001 m-8.376765847206116, 0.6152969971299171 l5.983367562294006, 1.6312998533248901 1.9694700837135315, 0.2736497297883034 m-15.146962404251099, -3.4167084097862244 l-5.616674423217773, 0.0974325742572546 -2.7126064896583557, 0.6792500615119934 m8.261114954948425, 0.4594176262617111 l-3.5848268866539, 0.5824699997901917 -1.8908974528312683, 0.728958249092102 m104.44842705503106, -212.7310952168409 l0.03611951135098934, -3.1017202138900757 0.5359233543276787, -1.5303680300712585 l0.573597252368927, -0.1144236046820879 2.3603641986846924, 3.5133200883865356 l2.1631182730197906, -0.7216314971446991 1.9314482808113098, -0.028995331376791 l1.3686974346637726, 0.47081243246793747 0.9782709926366806, 0.9129725396633148 l1.3496483862400055, -2.3555466532707214 2.0809507369995117, -1.733776330947876 l0.4222041368484497, 0.5032115802168846 -0.48414483666419983, 4.377658665180206 l0.3644568473100662, 1.2864090502262115 -0.15735004097223282, 3.010859191417694 l-0.9042270481586456, 2.0356623828411102 -1.7025011777877808, 1.7404617369174957 l-2.219710350036621, 1.1312071233987808 -2.5433075428009033, 0.4689975455403328 l-2.3733551800251007, -0.1413268782198429 -1.9705954194068909, -0.7785523682832718 l-1.5515904128551483, -1.2582339346408844 -1.252894401550293, -2.1899396181106567 l-0.2845364809036255, -2.470855414867401 0.5507965758442879, -2.2933603823184967 l0.8142673224210739, -1.1262287944555283 m3.6165252327919006, 3.5354629158973694 l0.003548174281604588, 0.0012751950998790562 m5.562835335731506, -0.453907810151577 l0.00803438713774085, 0.002634831762406975 m-3.639827072620392, 1.429455578327179 l0.0070792005863040686, 0.0019264371076133102 m0.6129950657486916, 0.40362104773521423 l0.011972762877121568, 0.0019011502445209771 m0.5830420553684235, 0.4356101527810097 l2.6893427968025208, -0.4020097106695175 m-1.8751375377178192, 1.073806807398796 l2.423834353685379, 0.535648800432682 m-2.3894768953323364, 0.23293526843190193 l1.9081442058086395, 1.3826575875282288 m-5.753346085548401, -2.6498064398765564 l-3.83330374956131, -0.25620613247156143 m3.3745750784873962, 1.13729827105999 l-3.22482168674469, 1.0709268599748611 m3.3329302072525024, -0.11653460562229156 l-2.9060164093971252, 1.83876633644104 m-1.4442643389338627, 91.93404868492507 l-0.022069041151553392, -2.7884700894355774 1.0002943873405457, -2.5850558280944824 l0.5761457234621048, -0.028386700432747602 2.4587982892990112, 3.9154276251792908 l2.503654360771179, -0.7763043791055679 1.9818677008152008, -0.006726720603182912 l2.2687068581581116, 0.9419258683919907 4.015665352344513, -3.5850974917411804 l0.4129834845662117, 0.4318629205226898 -0.46288322657346725, 4.685909152030945 l0.5897259712219238, 1.5262040495872498 -0.03937255125492811, 2.0222726464271545 l-0.8415068686008453, 2.1349623799324036 -1.5848620235919952, 1.8381686508655548 l-2.163862884044647, 1.2733304500579834 -2.633706033229828, 0.6513582915067673 l-4.962801933288574, 0.0033818473457358778 -1.9886556267738342, -0.7093307375907898 l-1.5064628422260284, -1.1771973967552185 -1.2432985752820969, -2.0954975485801697 l-0.34505695104599, -2.570939362049103 0.590556263923645, -2.2522591054439545 l0.9477231651544571, -1.2554644048213959 m4.084266126155853, 3.3018839359283447 l-2.4171867966651917, 0.19859526306390762 m4.546749591827393, 1.0874805599451065 l-3.839384615421295, 1.1526498198509216 m4.170300364494324, 0.1930217444896698 l-3.6743664741516113, 2.20050185918808 m9.535908699035645, -5.793188810348511 l4.1247475147247314, -0.056533096358180046 m-4.180332720279694, 1.9203026592731476 l3.4872841835021973, 0.5929618701338768 m-3.765411376953125, 1.1687258630990982 l3.1694886088371277, 0.8690140396356583 m-8.312329053878784, -5.97231388092041 l0.010675012599676847, 0.0006555828440468758 m3.2325655221939087, -0.2702938951551914 l0.013179908273741603, -0.0002634618977026548 m-9.466681176563725, 100.18521275580497 l0.1580105908215046, -3.0608895421028137 1.2532216310501099, -2.5631150603294373 l0.5782550945878029, -0.014532820787280798 2.158638685941696, 4.286603629589081 l2.1996569633483887, -0.6675146520137787 1.8712221086025238, 0.03635278670117259 l1.5273012220859528, 0.5706793442368507 1.7290936410427094, -2.559170722961426 l2.0121949911117554, -1.416107714176178 0.45730937272310257, 0.49610137939453125 l-0.34001991152763367, 4.532827138900757 0.3643358126282692, 1.3757166266441345 l-0.1798178255558014, 2.0357391238212585 -0.950067862868309, 2.093087136745453 l-1.6642685234546661, 1.7166447639465332 -2.307603806257248, 1.2333550304174423 l-2.532733976840973, 0.5057982727885246 -2.370443493127823, -0.08697404526174068 l-1.9462765753269196, -0.7330029457807541 -1.5308597683906555, -1.2352205067873 l-1.2207359075546265, -2.0816127955913544 -0.28872299939393997, -2.3454758524894714 l0.21171335130929947, -1.5070246160030365 0.7226445525884628, -1.1051686108112335 m4.354007840156555, 3.062615692615509 l-2.6767373085021973, 0.1902640424668789 m3.692898452281952, 0.9397315233945847 l-3.607465624809265, 1.209825575351715 m4.035894274711609, -0.018906350014731288 l-3.436797857284546, 2.1604591608047485 m8.74048113822937, -5.276960730552673 l3.921949863433838, -0.13914212584495544 m-4.108258485794067, 1.5965361893177032 l3.264159858226776, 0.6909153610467911 m-3.5960912704467773, 0.8274137228727341 l3.014223277568817, 1.0342318564653397 m-7.226648330688477, -5.52685022354126 l0.010548036079853773, 0.00030606635846197605 m2.831595242023468, -0.34496672451496124 l0.012869363417848945, 0.0007752408419037238 m90.41379561531357, -200.52466263972747 l-0.1208951510488987, -2.8059715032577515 0.9126969426870346, -2.421826273202896 l0.5889812484383583, -0.08397500030696392 2.1480371057987213, 3.588988184928894 l0.8510360866785049, 0.6879673153162003 4.8499855399131775, -0.496189147233963 l3.423849642276764, -2.559804618358612 2.653517425060272, -1.0417333245277405 l0.4006410390138626, 0.5365050956606865 -0.8431746065616608, 4.6082934737205505 l0.4922710359096527, 1.5943872928619385 -0.18127916380763054, 1.8995921313762665 l-1.4863403141498566, 3.085479736328125 -1.7706838250160217, 1.7273440957069397 l-2.3621882498264313, 1.1879096925258636 -2.5915247201919556, 0.5003170296549797 l-2.5789418816566467, -0.09222941473126411 -2.1104082465171814, -0.7467643916606903 l-2.138127088546753, -1.6977624595165253 -1.3194848597049713, -2.2655832767486572 l-0.2746046148240566, -2.522657811641693 0.6103239953517914, -2.2204378247261047 l0.9096407890319824, -1.143909990787506 m4.204582870006561, 3.5429826378822327 l0.002848357253242284, 0.0010313132224837318 m6.146647930145264, -0.5622768774628639 l0.008413086761720479, 0.002126937033608556 m-4.849956929683685, 1.8799906969070435 l0.007001821068115532, -0.00022927470126887783 m3.1456705927848816, -0.4810047149658203 l0.008627373026683927, 0.002146607148461044 m-1.5532872080802917, 1.740557700395584 l0.01050841179676354, 0.0026761789922602475 m0.10622499510645866, 0.09793292731046677 l0.18615372478961945, -0.3671341761946678 m-0.42673036456108093, 0.25907253846526146 l0.012101585743948817, -0.0002641572973516304 m1.324947476387024, -0.14389174059033394 l4.207439720630646, -0.6947414577007294 m-3.2986971735954285, 1.6719041764736176 l3.79884272813797, 0.18249232321977615 m-3.7039077281951904, 0.959763303399086 l3.194364011287689, 0.8517272770404816 m-8.983822464942932, -2.3391450941562653 l-4.474656581878662, -0.0113366125151515 m4.099850654602051, 0.9525051712989807 l-3.985142409801483, 1.1151643097400665 m4.1106292605400085, -0.08783021941781044 l-3.733106553554535, 1.9338656961917877 m0.027368503797333688, 89.9050334570893 l-0.02930027199909091, -2.8884410858154297 1.0267052054405212, -2.656683325767517 l0.5743542313575745, -0.10070992633700371 2.3513263463974, 4.062887728214264 l5.993214249610901, -0.24606725201010704 3.174603283405304, -3.2759782671928406 l2.1811139583587646, -0.42075570672750473 -0.39640363305807114, 4.1850027441978455 l0.10760082863271236, 2.0230473577976227 0.4943661019206047, 2.3232777416706085 l-0.18859198316931725, 2.1666544675827026 -1.0544084757566452, 2.068428099155426 l-1.7524993419647217, 1.7111727595329285 -2.3462654650211334, 1.1944789439439774 l-2.642028033733368, 0.5679764226078987 -2.6221784949302673, -0.05004828330129385 l-2.1499252319335938, -0.7148377597332001 -1.7842793464660645, -1.2734676897525787 l-1.4866265654563904, -2.1721653640270233 -0.6771926581859589, -2.7348092198371887 l0.24644270539283752, -2.6033470034599304 0.7332170754671097, -1.462990939617157 m4.5209479331970215, 3.596014678478241 l-2.8468212485313416, 0.15530383214354515 m3.6851611733436584, 1.2924666702747345 l-3.940526247024536, 1.259041577577591 m4.437758922576904, 0.2865290828049183 l-3.48033607006073, 2.346190959215164 m9.822176098823547, -6.1918705701828 l4.396725594997406, -0.28791461139917374 m-4.342387020587921, 2.123154252767563 l3.6835601925849915, 0.6057367846369743 m-4.068558514118195, 1.202753633260727 l3.395792245864868, 1.0295416414737701 m-8.801271319389343, -6.304122805595398 l0.011019135126844049, 7.863208338676486e-05 m3.7605881690979004, -0.4185119643807411 l0.01271782792173326, -0.00051444807468215 m-9.696364488918334, 100.14785374888561 l0.22656632587313652, -2.990187704563141 1.3378581404685974, -2.6279103755950928 l0.5773979425430298, -0.01827689236961305 1.9428420066833496, 4.024222493171692 l2.4705277383327484, -0.7803548127412796 3.140532076358795, -0.006623828667216003 l1.5491977334022522, 0.5553732067346573 3.8715267181396484, -3.3271637558937073 l0.4482146352529526, 0.34294702112674713 -0.2547069452702999, 4.517749845981598 l0.3914570063352585, 1.659487783908844 -0.17792614176869392, 2.0364175736904144 l-1.0111800581216812, 2.1353237330913544 -1.646595448255539, 1.7309744656085968 l-2.2760657966136932, 1.2477318942546844 -2.665940225124359, 0.60442004352808 l-2.579087018966675, -0.015766796423122287 -2.221275717020035, -0.6841909885406494 l-1.6952939331531525, -1.156972125172615 -1.282397210597992, -1.557731181383133 l-0.8202704042196274, -2.381422370672226 0.10483081452548504, -2.42607519030571 l0.6419654935598373, -1.3161291182041168 m4.665033519268036, 2.806454300880432 l0.002849823795258999, 0.0009283906547352672 m5.832346081733704, -0.5203312635421753 l0.00802225200459361, 0.002550491481088102 m-4.476101100444794, 1.6522030532360077 l0.0056227517779916525, 0.0004953322786604986 m3.6630845069885254, -0.38678087294101715 l0.008840275695547462, 0.001409744145348668 m-2.841595709323883, 1.9567686319351196 l0.009256633929908276, 0.0022196925419848412 m0.6575214862823486, -0.0636042607948184 l0.012679841602221131, 0.000845957183628343 m0.592653900384903, -0.17442774027585983 l2.835600972175598, -0.43835416436195374 m-2.077345997095108, 1.1751705408096313 l2.494462877511978, 0.6698450446128845 m-2.326243221759796, 0.30739637091755867 l1.9902385771274567, 1.3763569295406342 m-6.777828335762024, -2.603922188282013 l-4.082642197608948, -0.030473540537059307 m3.6302024126052856, 0.9237048774957657 l-3.3162695169448853, 1.3246197998523712 m3.547791540622711, -0.3437609598040581 l-2.903842031955719, 2.207469940185547 m100.17079626675695, -194.7808989774785 l-1.786489486694336, -0.17233308404684067 -1.8765465915203094, -1.283758282661438 l-1.3039477169513702, -2.1240195631980896 -0.6277709454298019, -2.792651951313019 l0.2557694725692272, -2.9123330116271973 1.3819630444049835, -2.5643447041511536 l2.257317304611206, -1.9486714899539948 2.912134826183319, -1.1403998732566833 l3.3951419591903687, -0.34174561500549316 2.206481695175171, 0.24521484971046448 l2.7167871594429016, 1.3256268203258514 1.4904284477233887, 1.4036016166210175 l0.952356606721878, 1.8098363280296326 0.3107456676661968, 2.172650992870331 l-0.33681727945804596, 2.1009133756160736 -1.1173384636640549, 2.0556941628456116 l-1.7711922526359558, 1.715092957019806 -2.2783447802066803, 1.1899901926517487 l-2.4631693959236145, 0.5374358594417572 -2.895791232585907, -0.0035145555739291012 m-5.119096636772156, -10.18315315246582 l0.5791952088475227, -5.18415093421936 1.1327873170375824, -3.1535881757736206 l0.5424844473600388, -0.034234183840453625 2.1497289836406708, 4.3872591853141785 l0.9894631803035736, 1.0830337554216385 m6.605174541473389, -1.1629630625247955 l3.1187573075294495, -3.731600046157837 1.412261426448822, -0.972050130367279 l0.4640990123152733, 1.3182233273983002 -0.936679020524025, 5.489781498908997 l-0.014156351098790765, 1.1058861017227173 m-10.126571655273438, 3.7377920746803284 l0.008907103911042213, 0.0020157263497821987 -0.16835900023579597, -0.17213154584169388 l0.29933858662843704, 0.10403241030871868 m5.611674189567566, -0.9319053590297699 l0.04194044508039951, 0.1663578674197197 0.20319217815995216, -0.34222058951854706 m-3.2070794701576233, 3.679547607898712 l2.065788209438324, -0.3176878020167351 7.351176142692566, -1.4516618847846985 m-8.134853839874268, 2.9104816913604736 l6.606924533843994, 0.026302963960915804 2.0596297085285187, 0.3125395253300667 m-8.37167739868164, 0.44204723089933395 l5.9199947118759155, 1.6200537979602814 3.765130639076233, 0.37728771567344666 m-16.12817645072937, -3.458849787712097 l-5.155212879180908, -0.055528972297906876 -3.052339255809784, 0.6370161473751068 m8.155397772789001, 0.5383381620049477 l-3.7978681921958923, 0.4690619930624962 -2.021993100643158, 0.6884633004665375 m2.448311550542712, 88.04089015131467 l0.12207845225930214, -2.882412374019623 1.251671463251114, -2.602926790714264 l0.5727778747677803, 0.013833062257617712 2.0800943672657013, 4.140324294567108 l2.399955093860626, -0.7651936262845993 3.109498620033264, -0.0058717344654724 l1.5112078189849854, 0.5311150476336479 4.049117863178253, -3.56076180934906 l0.45842256397008896, 0.3861026093363762 -0.3698011115193367, 4.625291526317596 l0.550241582095623, 1.6172145307064056 -0.09488548152148724, 2.0781268179416656 l-0.9174782037734985, 2.2214527428150177 -1.5545940399169922, 1.7791646718978882 l-2.24471315741539, 1.3577324151992798 -2.693663239479065, 0.7118572294712067 l-2.6311731338500977, 0.05469390191137791 -2.2964756190776825, -0.561029314994812 l-1.8127347528934479, -1.1065828800201416 -1.6448572278022766, -2.1006526052951813 l-0.7019659876823425, -2.531541585922241 0.230301171541214, -2.504386007785797 l0.7074485719203949, -1.3421377539634705 m4.422447085380554, 3.200191557407379 l-2.014271765947342, 0.14547931961715221 -2.045304775238037, 1.0766342282295227 l-1.0836584866046906, 1.0149938613176346 m5.821881294250488, -0.22702641785144806 l-2.2416551411151886, 0.667329728603363 -1.421167403459549, 0.9370239824056625 m4.846489727497101, -0.41378214955329895 l-1.7064717411994934, 0.8369506150484085 -1.1437945067882538, 1.0662208497524261 m10.398329496383667, -6.119873523712158 l3.8925495743751526, 0.40871988981962204 1.6365978121757507, 0.6032766401767731 m-5.546448230743408, 1.0161694139242172 l2.093713879585266, 0.23496458306908607 2.527899444103241, 1.0206720978021622 m-4.691716730594635, 0.3456662967801094 l3.355754017829895, 1.018540933728218 1.2707312405109406, 0.6135423853993416 m-10.413765907287598, -7.0371705293655396 l0.00980631448328495, 0.00077914992289152 m4.022636711597443, -0.3392496705055237 l0.011527609312906861, -0.0014881005336064845 m-4.635167717933655, 1.683482974767685 l0.010967339621856809, 0.0004550689845927991 m-7.5432134186849, 97.61629420612735 l-0.014523185091093183, -2.8320887684822083 1.0397969186306, -2.4143488705158234 l2.1231047809123993, 2.892637550830841 0.9983105212450027, 0.7911860197782516 l5.506860017776489, -0.21337846294045448 3.324471116065979, -2.764049470424652 l2.5489142537117004, -0.6331541389226913 -0.5414066836237907, 3.9568480849266052 l0.237056203186512, 2.1444477140903473 0.5412159487605095, 2.162996828556061 l-0.22849300876259804, 3.2861164212226868 -0.956382229924202, 1.9185318052768707 l-1.7345482110977173, 1.6967841982841492 -2.33666330575943, 1.1776608973741531 l-2.7002689242362976, 0.5468788743019104 -2.7320417761802673, -0.07115598302334547 l-2.2157034277915955, -0.7522925734519958 -1.7639483511447906, -1.293099969625473 l-1.311357170343399, -1.6794365644454956 -0.9279230237007141, -2.73099422454834 l0.03019555937498808, -2.9588618874549866 0.5369690805673599, -1.6307282447814941 l0.9082185477018356, -1.0382391512393951 m3.682357370853424, 3.89631986618042 l-2.7921825647354126, 0.27005767449736595 -2.117128074169159, 1.0708572715520859 m5.257716774940491, 0.8485199511051178 l-2.6831668615341187, 0.7686002552509308 -1.4466863870620728, 0.8836681395769119 m5.116056799888611, -0.00379308097762987 l-1.968926340341568, 0.9560719877481461 -1.9445070624351501, 1.6851700842380524 m12.086334228515625, -6.891297698020935 l4.375278353691101, 0.2178345061838627 1.7281563580036163, 0.5335002020001411 m-6.017369031906128, 1.5502066910266876 l3.8897353410720825, 0.6807972490787506 1.5526926517486572, 0.5996011197566986 m-5.664898753166199, 0.6514588743448257 l4.094521999359131, 1.221805363893509 1.4217060804367065, -0.006206275429576635 m-11.252861022949219, -7.349238395690918 l-0.15473918057978153, 0.5953060835599899 0.5306614190340042, 0.19458964467048645 l-0.0005493183925864287, -0.4163064807653427 -0.2723585069179535, 0.2071029134094715 m4.383123219013214, -0.6409762799739838 l-0.060273963026702404, 0.3044925443828106 0.11536986567080021, -0.21009420976042747 l-0.18967485055327415, 0.11491437442600727 m89.41233817942702, -200.50654663093155 l0.15753298997879028, -2.8732863068580627 1.2822693586349487, -2.547183930873871 l0.5820227041840553, -0.005446085124276578 1.876695156097412, 4.0613240003585815 l0.781540647149086, 0.7336416840553284 4.81178492307663, -0.4136599600315094 l3.460315763950348, -2.9815673828125 2.5721052289009094, -1.1511008441448212 l0.41029397398233414, 0.5783392861485481 -0.8633384853601456, 4.993942677974701 l0.5391543731093407, 1.5472960472106934 -0.12345492839813232, 2.2327443957328796 l-0.9223377704620361, 2.2277794778347015 -1.5936602652072906, 1.8269911408424377 l-2.1951328217983246, 1.2923058867454529 -2.653086483478546, 0.6682728230953217 l-2.5820374488830566, 0.04640772007405758 -2.341478168964386, -0.6318632513284683 l-1.831006109714508, -1.1347421258687973 -1.6842393577098846, -2.1298398077487946 l-0.7280775904655457, -2.574443519115448 0.23479005321860313, -2.579508125782013 l0.6933485716581345, -1.3596758246421814 m4.196273684501648, 3.518807291984558 l-2.8755083680152893, 0.2913013659417629 m3.939421772956848, 1.3037317991256714 l-3.994254767894745, 1.2668614089488983 m4.502162039279938, 0.21632088348269463 l-3.7570199370384216, 2.3084038496017456 m10.703879594802856, -6.1191195249557495 l4.445754289627075, -0.18240097910165787 m-4.390798509120941, 1.9602622091770172 l3.620012104511261, 0.6514886766672134 m-4.0905651450157166, 1.126628816127777 l3.503347337245941, 1.1185342073440552 m-8.572282791137695, -6.298975348472595 l0.010761703597381711, 5.6769194998196326e-05 m3.0544820427894592, -0.33624038100242615 l0.012271750019863248, -0.0009007459448184818 m-10.012540274765342, 99.18742433249463 l0.03491891082376242, -2.765064239501953 1.1713193356990814, -2.4980826675891876 l2.04486146569252, 3.0798304080963135 0.925753191113472, 0.8513528108596802 l5.283025503158569, -0.23495102301239967 3.526770770549774, -2.721635103225708 l2.5184908509254456, -0.8072442561388016 0.38995731621980667, 0.6326456367969513 l-0.03993355669081211, 2.422018349170685 -0.06626325193792582, 2.5358030200004578 l0.6006553024053574, 2.134704291820526 -0.10033100843429565, 2.138032913208008 l-0.983496680855751, 2.1364302933216095 -1.7274188995361328, 1.7781758308410645 l-2.335336357355118, 1.2317858636379242 -2.8216615319252014, 0.6584817171096802 l-2.756861448287964, 0.04036629106849432 -2.277531921863556, -0.6114723533391953 l-1.853090226650238, -1.1539410054683685 -1.7367896437644958, -2.1634940803050995 l-0.7900454849004745, -2.574242651462555 0.12444302439689636, -2.577548623085022 l0.6311935931444168, -1.4079587161540985 m4.702387750148773, 2.9139405488967896 l0.42174123227596283, -0.17839135602116585 m6.469656229019165, -0.5192723870277405 l0.007462510257028043, 0.0007722211012151092 m-4.9024152755737305, 2.0474787056446075 l-0.47625351697206497, -0.001854962029028684 m3.6768585443496704, -0.447908453643322 l0.008290860569104552, -0.0013691770436707884 m-2.03409880399704, 1.5377689898014069 l0.01125367940403521, 0.002361856313655153 m0.8166807144880295, 0.2765413001179695 l3.4056147933006287, -0.5492444708943367 m-2.4251894652843475, 1.2314234673976898 l3.1835851073265076, 0.4335107281804085 m-3.047248125076294, 0.6411990523338318 l2.609536051750183, 1.0518691688776016 m-7.8528594970703125, -2.330876439809799 l-4.290182292461395, 0.07040457334369421 m4.0812742710113525, 0.8214040100574493 l-3.910316228866577, 1.2675249576568604 m4.094395041465759, -0.379473939538002 l-3.4309521317481995, 2.1097762882709503 m-1.229720501578413, 90.03905195902917 l0.20601479336619377, -2.910778820514679 1.3511848449707031, -2.719329297542572 l0.5697236955165863, -0.015440537827089429 2.0974478125572205, 4.394473433494568 l2.201511710882187, -0.7675369083881378 1.873757690191269, -0.03949601203203201 l1.5432167053222656, 0.48146605491638184 1.0595567524433136, 0.8805464953184128 l1.2101124972105026, -2.4200010299682617 2.0089584589004517, -1.9208712875843048 l0.44505856931209564, 0.4653586074709892 -0.08407082408666611, 4.427393972873688 l0.45458685606718063, 1.6954128444194794 -0.10986428707838058, 3.1185221672058105 l-0.8632873743772507, 2.146286815404892 -1.5463772416114807, 1.7366904020309448 l-2.140256315469742, 1.217341348528862 -2.6911577582359314, 0.6123257800936699 l-2.47063547372818, -0.0433014240115881 -2.1392492949962616, -0.6867264956235886 l-1.6993743181228638, -1.18199422955513 -1.5710090100765228, -2.130270004272461 l-0.6705714017152786, -2.5883784890174866 0.22014327347278595, -2.4178093671798706 l1.293112337589264, -1.7820626497268677 m3.949859142303467, 3.7387079000473022 l-2.593417167663574, 0.1728295162320137 -2.194417119026184, 1.0405877977609634 m5.038588047027588, 0.7308749109506607 l-2.5185972452163696, 0.6898768991231918 -1.4608760178089142, 0.8796148002147675 m4.747796356678009, -0.2897647023200989 l-3.514578342437744, 2.406160533428192 -0.840330645442009, 1.0124130547046661 m11.409759521484375, -7.239587903022766 l4.093067646026611, 0.01827213680371642 m-4.344483911991119, 1.8741308152675629 l3.6218807101249695, 0.6718515604734421 1.4564190804958344, 0.5807314813137054 m-5.163928270339966, 0.5243183299899101 l3.6638298630714417, 1.5102873742580414 m-8.884892463684082, -6.922768950462341 l0.01076958142220974, 0.0009590308036422357 m3.266294002532959, -0.35892870277166367 l0.012788936728611588, -0.0005102026989334263 m92.63303587795235, -185.44936734560906 l-1.6709114611148834, -0.027610587421804667 -2.0329369604587555, -1.198488250374794 l-1.5195803344249725, -2.1553999185562134 -0.8317031711339951, -2.7526620030403137 l0.05776848178356886, -2.8266823291778564 1.1780232936143875, -2.670465409755707 l2.151932269334793, -2.1217653155326843 2.7613216638565063, -1.3356035947799683 l3.309212327003479, -0.5678731948137283 3.3251166343688965, 0.22552881389856339 l2.749205529689789, 1.2486853450536728 1.5504369139671326, 1.288318932056427 l1.0220572352409363, 1.7016513645648956 0.36858372390270233, 1.9151315093040466 l-0.2768189273774624, 2.135523408651352 -1.0994182527065277, 2.162878066301346 l-1.673070341348648, 1.7792601883411407 -2.2558239102363586, 1.3812167942523956 l-2.501431703567505, 0.7358801364898682 -2.8713172674179077, -0.00422983372118324 m-5.697272419929504, -10.579107999801636 l0.4542939364910126, -5.2826762199401855 0.6624983996152878, -2.0660290122032166 l0.579671710729599, -0.14882993884384632 2.4381141364574432, 4.05734121799469 l1.0706554353237152, 0.9367208927869797 m6.544950604438782, -1.1747650802135468 l3.1026431918144226, -3.4161555767059326 1.4974109828472137, -0.9940493851900101 l0.46794697642326355, 0.5460831522941589 -0.8807341754436493, 5.317346453666687 l0.005861230310983956, 1.0438222438097 m-10.72680950164795, 4.229347109794617 l0.0075781624764204025, 0.0012119452730985358 m5.852574706077576, -1.027134358882904 l0.0085674092406407, 0.00242452384554781 m-4.888933598995209, 3.0316585302352905 l0.008087315945886075, 0.0008700331818545237 m2.281029522418976, -0.459127239882946 l0.010702493600547314, -0.000729907478671521 m-1.019449457526207, 1.122768372297287 l0.1256065722554922, -0.48115573823451996 m0.19081290811300278, 0.06441149860620499 l0.013600833481177688, 0.0007668663602089509 m0.673719197511673, -0.34639354795217514 l0.01171841286122799, -0.0007782407192280516 m-0.8491665869951248, -0.011807176051661372 l0.013029205147176981, 0.00036459776310948655 m0.02365547465160489, -0.07841400802135468 l0.013292470248416066, 0.0012674056051764637 m0.6581537425518036, -0.21206891164183617 l0.01228404464200139, 0.00138105868245475 m0.7267381250858307, 0.23552579805254936 l0.012616940075531602, 0.002133261732524261 m0.41390977799892426, 0.39147157222032547 l0.010189162567257881, 0.0026258453726768494 m0.271648894995451, 0.19776340574026108 l0.010774560505524278, 0.003286413848400116 m0.38609277456998825, 0.16149446368217468 l0.01130076707340777, 0.0033090097713284194 m0.043966895900666714, 0.3403155878186226 l0.011293913703411818, 0.0040230879676528275 m0.09538840502500534, 0.18911592662334442 l0.013325797626748681, 0.004999525845050812 m0.0034559908090159297, 0.19350199028849602 l0.014018462970852852, 0.0027826096629723907 m-0.008548346813768148, 0.1275858748704195 l0.015069851651787758, 0.0037369783967733383 m-0.5498704314231873, 0.30215365812182426 l0.014273952692747116, 0.0037923245690762997 m-0.1791980117559433, 0.20125696435570717 l0.0148567755240947, 0.002599621657282114 m0.08703712373971939, 0.343126580119133 l0.01401491928845644, 0.002417122741462663 m-0.3387284278869629, 0.03701177891343832 l0.015987204387784004, 0.0023079360835254192 m-0.016287415055558085, 0.32020285725593567 l0.016203339910134673, 0.002659500460140407 m0.11973242275416851, 0.17964424565434456 l0.015501343877986073, 0.001332504762103781 m-0.31313419342041016, 0.32711658626794815 l0.016209231689572334, 0.0019274785881862044 m-0.11498084291815758, 0.13129658065736294 l0.017675759736448526, 0.0016579109069425613 m-0.021275784820318222, 0.2749292738735676 l0.01522308331914246, 0.002049640897894278 m0.11965101584792137, 0.21260231733322144 l0.015209749108180404, 0.0008055297075770795 m-0.22296613082289696, 0.3498944267630577 l0.01641314709559083, 0.0003505316999508068 m-0.1616034284234047, 0.40317222476005554 l0.017073239432647824, 0.00048162066377699375 m-0.05213811993598938, -0.03926898818463087 l0.01549946260638535, 0.0017345734522677958 m-0.1748155616223812, 0.47776784747838974 l0.016222712583839893, 0.0004917829210171476 m0.017033062176778913, 0.055074822157621384 l0.015561690088361502, 0.00011591567272262182 m-0.0023979794059414417, 0.37675347179174423 l0.015146109508350492, -0.0004625093060894869 m0.10790461674332619, -0.005975748063065112 l0.016026297817006707, 0.0013593173935078084 m0.023590733762830496, 0.1054990105330944 l0.016422716435045004, 0.0006389440386556089 m-0.09523036889731884, 0.34538231790065765 l0.014823658857494593, -0.00036044304579263553 m-0.014308876125141978, 0.08967848494648933 l0.015985873760655522, 0.00015978814190020785 m-0.134536512196064, 0.32644715160131454 l0.015861951978877187, 0.00046436049160547554 m-4.748408198356628, -1.0626935958862305 l0.012234559981152415, 0.004432542773429304 m2.7583223581314087, 0.12374836020171642 l0.01313276938162744, -0.00023181622964330018 m-3.2724720239639282, -0.40750108659267426 l0.013058705953881145, 0.0028434809064492583 m-0.7897467166185379, 0.6019765138626099 l0.011809940915554762, 0.0023143977159634233 m2.1340973675251007, -0.12032587081193924 l0.011772159487009048, -0.0003999792897957377 m-1.5396411716938019, 0.12202017940580845 l0.013144677504897118, 0.0015265961701516062 m1.4160831272602081, 0.14847170561552048 l0.012730142334476113, 0.0005519234764506109 m-2.289738804101944, -0.13719533570110798 l0.011533066863194108, 0.0005862094258191064 m1.878410130739212, 0.011597609845921397 l0.011558863334357738, 0.0005389364741859026 m0.3675425425171852, 0.40640827268362045 m-3.451878775813384, 85.31901463463328 l0.08876534178853035, -2.9517680406570435 1.1979184299707413, -2.4965620040893555 l0.5629176646471024, 0.01776288030669093 1.9312770664691925, 4.031635522842407 l0.7335371524095535, 0.640614703297615 5.243890285491943, -0.3440633788704872 l3.3096283674240112, -3.0989161133766174 2.4017737805843353, -0.9051644802093506 l0.4352619871497154, 0.5680109933018684 0.09185151197016239, 2.4394716322422028 l-0.4530467465519905, 2.773541212081909 0.44228583574295044, 2.0003776252269745 l-0.23540854454040527, 2.1882659196853638 -1.0252811014652252, 2.080685943365097 l-1.7746080458164215, 1.6959960758686066 -2.486083060503006, 1.2123188376426697 l-2.7761712670326233, 0.5389361828565598 -2.6742029190063477, -0.07636073976755142 l-2.1262526512145996, -0.7128947228193283 -2.257557213306427, -1.7079825699329376 l-1.449289619922638, -2.2648540139198303 -0.46878788620233536, -2.6399996876716614 l0.4669668525457382, -2.293885350227356 0.8691217005252838, -1.1959510296583176 m4.521650969982147, 3.7073898315429688 l-2.9884889721870422, 0.09642135351896286 m4.193190634250641, 1.2635372579097748 l-4.142727255821228, 1.1663226038217545 m4.565258622169495, 0.16367776319384575 l-3.8026162981987, 2.2183942794799805 m9.941088557243347, -5.682759881019592 l4.427109062671661, -0.17028724774718285 m-4.3267276883125305, 1.94629967212677 l3.5231244564056396, 0.6568440794944763 m-3.909023106098175, 1.0578092187643051 l3.1802386045455933, 1.019335612654686 m-8.038162589073181, -6.118296980857849 l0.009470543009229004, -0.0004677822289522737 m3.036077320575714, -0.3107554279267788 l0.012275611516088247, 0.00030619547032983974 m-10.365143903181888, 99.73523133779963 l0.2849976718425751, -3.0550983548164368 1.4216162264347076, -2.6283326745033264 l2.0755375921726227, 3.6012744903564453 0.8497580140829086, 0.9032711386680603 l5.331209301948547, -0.20935356616973877 3.6377352476119995, -2.995387017726898 l2.5195246934890747, -0.9883178770542145 0.4086655378341675, 0.5913287028670311 l-0.7906866818666458, 4.804219901561737 0.4996027424931526, 1.5398947894573212 l-0.1534780953079462, 2.105586975812912 -0.9193824976682663, 2.186114490032196 l-1.6431652009487152, 1.9262485206127167 -2.2148899734020233, 1.3386926054954529 l-2.653173804283142, 0.7149669528007507 -2.6753413677215576, 0.08804022334516048 l-2.336317002773285, -0.5486160889267921 -1.9010557234287262, -1.1016019433736801 l-1.7885081470012665, -2.0357513427734375 -0.8595427870750427, -2.474585920572281 l0.08599135093390942, -2.666240930557251 0.6164151802659035, -1.4976488053798676 m4.901081919670105, 3.569639027118683 l-3.2809513807296753, 0.15591326169669628 m3.89497309923172, 1.5719379484653473 l-4.201672673225403, 1.162165254354477 m4.741676151752472, 0.30995743349194527 l-3.756740391254425, 2.0347996056079865 m10.440070629119873, -5.939275026321411 l4.47059690952301, -0.3121735341846943 m-4.270597696304321, 2.1250633895397186 l3.7385281920433044, 0.51303680986166 m-4.166828989982605, 1.3238300383090973 l3.4799399971961975, 0.8340124785900116 m-8.725554943084717, -6.0154712200164795 l0.007402814808301628, 0.0008943271677708253 m3.3235040307044983, -0.3098566457629204 l0.013294573873281479, -6.507293164759176e-05 m90.68949201435316, -200.26304658178105 l0.2093629166483879, -2.7223876118659973 1.3933008909225464, -2.60012686252594 l0.589885376393795, 0.007083387463353574 1.7771796882152557, 4.020797908306122 l2.2211432456970215, -0.6816904991865158 1.9155395030975342, -0.008982677245512605 l1.5476226806640625, 0.5263527110219002 1.4956489205360413, 1.3576222956180573 l1.237219199538231, -2.7109408378601074 1.9253353774547577, -1.858520656824112 l0.43935541063547134, 0.44554322957992554 -0.18508026376366615, 4.578046202659607 l0.25275666266679764, 1.522248089313507 -0.3239769861102104, 1.9614672660827637 l-1.0373084247112274, 2.1803881227970123 -1.679493933916092, 1.7543424665927887 l-2.286481410264969, 1.2273970246315002 -2.585889995098114, 0.508883148431778 l-2.494543194770813, -0.11120419017970562 -2.0413990318775177, -0.7354818284511566 l-1.6022317111492157, -1.2486164271831512 -1.4263595640659332, -2.182985246181488 l-0.4019252583384514, -2.3981599509716034 0.44758956879377365, -2.243710160255432 l0.8314834535121918, -1.1211176216602325 m4.072570204734802, 3.32839697599411 l0.0025200439267791808, 0.0018886683392338455 m5.931240916252136, -0.4017554596066475 l0.007270416826941073, 0.0022118705965112895 m-4.750804901123047, 1.7617209255695343 l0.003932279360014945, 0.0018921287846751511 m3.2886284589767456, -0.3162570297718048 l0.009068812360055745, 0.001257819531019777 m-2.1083401143550873, 1.5232530236244202 l-1.1363930255174637, -0.02628222806379199 m1.8042609095573425, 0.16141444444656372 l1.4185433089733124, -0.20033884793519974 m-0.6124911829829216, 0.6042006611824036 l3.432389199733734, -0.04555140621960163 m-3.0908283591270447, 0.759352371096611 l2.573166787624359, 0.7053550332784653 m-6.135353446006775, -1.4383628964424133 l-3.8055995106697083, 0.18126055598258972 m3.3782869577407837, 0.48005107790231705 l-3.6521875858306885, 1.0842986404895782 m3.7769153714179993, -0.2093721181154251 l-3.030020594596863, 1.2949959933757782 m-1.9998625881271437, 89.72194960954084 l-0.0684660580009222, -2.8036439418792725 0.9328519552946091, -2.6001617312431335 l0.5953749269247055, -0.04177357070147991 2.4393491446971893, 4.008634388446808 l2.221915125846863, -0.7674962282180786 2.7884143590927124, -0.007379415910691023 l1.5854282677173615, 0.5438210815191269 3.9673444628715515, -3.4532997012138367 l0.4423973336815834, 0.35075031220912933 -0.2874394506216049, 4.348485767841339 l0.447598434984684, 1.8123801052570343 -0.20446226000785828, 2.0319539308547974 l-0.9837991744279861, 2.0722946524620056 -1.6629362106323242, 1.7151398956775665 l-2.297259569168091, 1.2216218560934067 -2.650350034236908, 0.5710812285542488 l-2.5606411695480347, -0.026205233298242092 -2.126423716545105, -0.6964870542287827 l-1.6949030756950378, -1.2386784702539444 -1.4926157891750336, -2.1589158475399017 l-0.4441652074456215, -2.4021360278129578 0.1734117604792118, -1.6323944926261902 l0.7168177515268326, -1.2317077815532684 m4.123018383979797, 2.631278336048126 l0.0014149384514894336, 0.002821266243699938 m6.22722864151001, -0.5387109145522118 l0.00805811898317188, 0.0027806154685094953 m-4.9397072196006775, 1.8087288737297058 l0.005945097655057907, -0.00023417213014909066 m3.5950064659118652, -0.4601336270570755 l0.008450253517366946, 0.002169014187529683 m-2.001178413629532, 1.5491917729377747 l0.010463666403666139, 0.0024658002075739205 m0.2899632975459099, 0.25513317435979843 l0.29623424634337425, -0.3612201660871506 m0.2995172329246998, 0.21600784733891487 l0.009984952630475163, 0.0010908825061051175 m-0.4988175630569458, -0.17301518470048904 l0.012047396739944816, 0.001174819772131741 m-0.30170269310474396, -0.0894529651850462 l0.011421279050409794, 0.0013721625145990402 m1.128516048192978, -0.10333911515772343 l0.012860592687502503, 0.0021265874966047704 m0.8624621480703354, 0.18680965527892113 l0.010801623575389385, 0.002350286376895383 m0.1299939677119255, 0.4201020672917366 l0.01059007947333157, 0.0036295372410677373 m0.193202905356884, 0.37070032209157944 l0.013724045129492879, 0.004848343669436872 m0.012066239723935723, 0.2283291332423687 l0.013466633390635252, 0.0044593968777917325 m0.04278313368558884, 0.14560995623469353 l0.01549766631796956, 0.0026380669442005455 m-0.1085780467838049, 0.2462862990796566 l0.013946853578090668, 0.003662418166641146 m-0.323544517159462, 0.3374345228075981 l0.015690105501562357, 0.003311894543003291 m-0.26402153074741364, 0.11843174695968628 l0.01474491786211729, 0.004351750831119716 m-0.3188411518931389, 0.35427432507276535 l0.01645264681428671, 0.004072401497978717 m0.014896319480612874, 0.20000619813799858 l0.015852098586037755, 0.002984774182550609 m-0.25067729875445366, 0.22189488634467125 l0.016513429582118988, 0.0014415911573451012 m-0.07270814850926399, 0.2783196419477463 l0.01622322015464306, 0.0025630273739807308 m-0.020886759739369154, 0.04327389411628246 l0.015949009684845805, 0.001815206342143938 m-0.09520587511360645, 0.5397903546690941 l0.01669334014877677, 0.0017076900985557586 m-0.3386944904923439, 0.3086989000439644 l0.017085556173697114, 0.0026371830608695745 m-0.22484226152300835, 0.40744978934526443 l0.015488084172829986, 0.0016110928845591843 m0.05307062529027462, -0.022878802847117186 l0.016406794311478734, 0.0013991844025440514 m0.12786714360117912, 0.24977561086416245 l0.015778123633936048, 0.0016437502927146852 m-0.15744682401418686, 0.12644528411328793 l0.016671124612912536, 0.0011012961476808414 m-0.03889548825100064, 0.37471000105142593 l0.015750174643471837, 0.0009147138916887343 m-0.07971398532390594, 0.38862142711877823 l0.014342162758111954, 0.00034142656659241766 m-4.907515347003937, -0.8273732662200928 l0.0141923688352108, 0.002146101323887706 m2.1315431594848633, 0.17820894718170166 l0.011695846915245056, -0.0008147377229761332 m0.5365217104554176, 0.2884209528565407 l0.012244331883266568, -0.00029950911994092166 m0.3395693749189377, 0.5166511982679367 l0.013275538804009557, 9.037862582772505e-05 m-2.665896713733673, -0.31471990048885345 l0.012819432886317372, 0.0029034633189439774 m1.757788211107254, 0.14362997375428677 l0.011223453329876065, 0.00024652563297422603 m0.40277663618326187, 0.48567961901426315 l0.012749552261084318, 4.2268379729648586e-05 m0.255219005048275, 0.3123488835990429 l0.013599948724731803, -5.1755218919424806e-05 m0.12131618335843086, 0.24528635665774345 l0.013467553071677685, 4.662257651943946e-05 m0.22470738738775253, 0.20743470638990402 l0.012213985901325941, -0.0006332201883196831 m-0.011583745945245028, 0.31522661447525024 l0.012597960885614157, 0.00010693771400838159 m-0.1434451900422573, 0.39188165217638016 l0.014192977687343955, -0.00029634797101607546 m-0.002329523558728397, 0.14254079200327396 l0.01328837824985385, 0.0005048358798376285 m-0.014765223022550344, 0.2735719457268715 l0.013846430229023099, 0.00013530941942008212 m-0.049074506387114525, 0.15814648941159248 l0.0140320451464504, -0.0006332305201794952 m-4.5162928104400635, -0.8917371183633804 l0.010480909841135144, 0.0027709550340659916 m2.336205840110779, 0.2983321063220501 l0.012198216281831264, 0.00010720274985942524 m-2.1838192641735077, 0.06243205163627863 l0.011566507164388895, 0.002731311833485961 m1.7154358327388763, 0.08880870416760445 l0.010930962162092328, -0.0001286735277972184 m-2.973271608352661, 0.13781431131064892 l0.01100587542168796, 0.0017607322661206126 m-0.022301708813756704, 0.41609350591897964 l0.011679244926199317, 0.0013179528468754143 m-0.6502321362495422, -0.12083961628377438 l0.011412843596190214, 0.0014022727555129677 m1.0168077539128717, 94.2584558511794 l0.12682263739407063, -2.447666972875595 1.3323995471000671, -2.442583441734314 l1.967816799879074, -1.7864124476909637 1.6500966250896454, -0.6432460248470306 l1.7666834592819214, -0.053931036964058876 1.8124358355998993, 0.603119283914566 l1.6502287983894348, 1.1816585063934326 1.1372777074575424, 1.639079749584198 l0.5119327083230019, 2.040558159351349 -0.09138946421444416, 2.1767157316207886 l-0.83114854991436, 1.9838069379329681 -1.3620728254318237, 1.4953559637069702 l-1.959272176027298, 0.9555571526288986 -2.315252125263214, 0.2845880948007107 l-2.1205081045627594, -0.3120899200439453 -1.7191529273986816, -0.8916624635457993 l-1.3214677572250366, -1.6401208937168121 -0.5197270214557648, -2.1851427853107452 l0.4474783316254616, -2.1475936472415924 m0.7399123907089233, -2.146006077528 l0.27193186804652214, -5.503498911857605 0.5582034215331078, -0.05721801891922951 l2.3790155351161957, 3.210427761077881 0.8814240992069244, 0.4894014447927475 m4.654174447059631, -0.8075466752052307 l2.8306567668914795, -3.0543607473373413 1.3430169224739075, -0.7864236831665039 l0.425146259367466, 0.5534106492996216 -1.0293027758598328, 5.07778525352478 l-0.09601239114999771, 0.9002906084060669 m-8.006986379623413, 2.8271400928497314 l0.010295187821611762, 0.001798499870346859 m4.221736192703247, -0.7713984698057175 l0.009171004057861865, 0.002863553527276963 m-3.1517308950424194, 1.9931045174598694 l0.010239246767014265, 0.0035276575363241136 m1.6929756104946136, -0.05839166697114706 l3.8072264194488525, -0.8608856797218323 m-2.797248363494873, 2.2060543298721313 l3.214128017425537, 0.07818981073796749 m-3.2023578882217407, 1.268381029367447 l2.819257080554962, 0.9682195633649826 m-8.675704002380371, -2.8069347143173218 l-4.052850306034088, -0.05837226286530495 m4.120871722698212, 1.4932747185230255 l-3.6132830381393433, 1.0158378630876541 m3.862852156162262, 0.45482806861400604 l-3.352433145046234, 1.8056635558605194 m98.87829561164835, -210.66348233063763 l0.2730785124003887, -3.119249641895294 1.3333167135715485, -2.4827484786510468 l0.5811839923262596, 0.0025025132345035672 2.0217597484588623, 4.203115105628967 l2.4059046804904938, -0.7247267663478851 3.101683259010315, -0.007940928917378187 l1.5312859416007996, 0.5432198941707611 1.0126160085201263, 0.9405292570590973 l1.2310609221458435, -2.7111098170280457 2.0290160179138184, -2.1106013655662537 l0.42765986174345016, 0.5527018755674362 -0.14095707796514034, 4.953282475471497 l0.32471299171447754, 1.5859454870224 -0.21105919033288956, 1.924416422843933 l-0.9686844050884247, 2.1876442432403564 -1.6535411775112152, 1.8514993786811829 l-2.2257769107818604, 1.2785127758979797 -2.670719623565674, 0.6244180351495743 l-3.47796767950058, -0.012055652914568782 -2.158985882997513, -0.6972254067659378 l-1.711098998785019, -1.1670021712779999 -1.5753324329853058, -2.1059218049049377 l-0.6109319999814034, -2.4278222024440765 0.29472628608345985, -2.4030515551567078 l0.7296942919492722, -1.233457773923874 m4.780541658401489, 3.395704925060272 l-3.001897931098938, 0.2071911096572876 m4.1643741726875305, 1.2694980204105377 l-4.159392416477203, 1.2955816090106964 m4.558005630970001, 0.2519102208316326 l-3.7985673546791077, 2.1508893370628357 m9.963763952255249, -5.893722176551819 l4.4593745470047, -0.1169387623667717 m-4.4808197021484375, 1.9148123264312744 l3.521498739719391, 0.6502395868301392 m-4.002045392990112, 1.1170759052038193 l3.3305624127388, 0.9391254931688309 m-8.27855110168457, -6.274745464324951 l0.010597252985462546, 0.0014725698565598577 m3.50931853055954, -0.2922384813427925 l0.01220060745254159, 0.00016094354577944614 m-10.612927420297638, 99.3199684231331 l0.06296654231846333, -2.9274430871009827 1.1224105954170227, -2.480209618806839 l2.068394124507904, 3.0093955993652344 0.9465025365352631, 0.7802955061197281 l5.921075940132141, -0.15648633241653442 3.643985688686371, -2.8820228576660156 l2.3197463154792786, -0.54606594145298 -0.47965139150619507, 4.0026602149009705 l0.18263330683112144, 2.173074036836624 0.6492408365011215, 2.550688683986664 l-0.16549643129110336, 2.0864540338516235 -1.0077255219221115, 1.930127739906311 l-1.7536590993404388, 1.6385084390640259 -2.405153065919876, 1.1906655877828598 l-2.743006646633148, 0.5493171885609627 -2.7361291646957397, -0.05911251995712519 l-2.3027925193309784, -0.7366637885570526 -1.7661498486995697, -1.215905025601387 l-1.68564110994339, -2.290291488170624 -0.7393702119588852, -2.7379050850868225 l0.20362380892038345, -2.7564316987991333 0.7382571697235107, -1.4827074110507965 m4.698948860168457, 3.4233781695365906 l0.0034010782837867737, -9.210338248522021e-05 m6.388668417930603, -0.5475573241710663 l0.007624437566846609, 0.002181388554163277 m-4.572002291679382, 1.7469671368598938 l0.005728876567445695, 0.0008166790212271735 m3.4962624311447144, -0.48247214406728745 l0.007255623349919915, -0.0009320516983279958 m-2.580949366092682, 2.1677424013614655 l0.010964618995785713, 0.0019242613052483648 m0.7090778648853302, -0.16910620033740997 l2.1367335319519043, -0.3902968019247055 m-1.2314614653587341, 1.0021109133958817 l1.635211557149887, 0.6788033246994019 m-1.2751390039920807, 0.12802187353372574 l1.281466782093048, 1.2396779656410217 m-5.692074298858643, -2.0643210411071777 l-3.9066272974014282, -0.192057266831398 m3.2640069723129272, 0.9061390161514282 l-2.9164013266563416, 1.3111808896064758 m3.2499143481254578, -0.4061364382505417 l-2.5442957878112793, 1.8974445760250092 m-1.573144172434695, 90.92834227427375 l0.11623719707131386, -2.421513646841049 1.2509067356586456, -2.4051710963249207 l0.5707374960184097, 0.015464003663510084 1.8783049285411835, 3.61790269613266 l2.2890783846378326, -0.6426933407783508 2.9560866951942444, -0.006785636651329696 l2.2531287372112274, 0.9881475567817688 1.5339858829975128, -2.441391944885254 l2.0329810678958893, -1.5219038724899292 0.4218665510416031, 0.5470101907849312 l-0.493704192340374, 4.4438570737838745 0.513286367058754, 1.4430996775627136 l-0.08120973594486713, 2.0124463737010956 -0.9026573598384857, 2.1746928989887238 l-1.5959857404232025, 1.8042036890983582 -2.274252027273178, 1.3658881187438965 l-2.6814019680023193, 0.6755435466766357 -2.5847578048706055, 0.045765615068376064 l-2.200630307197571, -0.5847329646348953 -1.7757654190063477, -1.132730320096016 l-1.5865150094032288, -2.0495691895484924 -0.6410541385412216, -2.4176999926567078 l0.2861620672047138, -2.327079176902771 0.7493945956230164, -1.3054746389389038 m4.3111565709114075, 3.047682046890259 l0.0025274502695538104, 0.0006284454138949513 m6.063747406005859, -0.5847566947340965 l0.007671936764381826, 0.002351026196265593 m-4.407873451709747, 1.7250247299671173 l0.005626638303510845, 0.0019258953398093581 m2.9552242159843445, -0.31262490898370743 l0.007595953647978604, 0.0005995863830321468 m-2.334269732236862, 1.4690004289150238 l0.010820336174219847, 0.002488016616553068 m1.1952323466539383, -0.22611046209931374 l3.1708556413650513, -0.5350761488080025 m-2.1855351328849792, 1.4253813028335571 l2.738994061946869, 0.5331550538539886 m-2.6551616191864014, 0.47932710498571396 l2.1863454580307007, 1.1033327132463455 m-7.3881596326828, -2.3190656304359436 l-3.736202120780945, 0.05783338565379381 m3.5080355405807495, 0.9164275228977203 l-3.2310599088668823, 1.2486960738897324 m3.3876973390579224, -0.24309607222676277 l-2.8331848978996277, 2.036047726869583 m99.60033094190294, -209.9262139043458 l-0.021748878061771393, -2.7780115604400635 1.038697510957718, -2.4784231185913086 l2.35872283577919, 3.362751305103302 2.235008180141449, -0.7192093133926392 l3.1649458408355713, -0.008126316242851317 1.4621958136558533, 0.5539677664637566 l3.685414493083954, -3.061637282371521 0.44453050941228867, 0.3878534212708473 l-0.40526866912841797, 4.2824119329452515 0.5086750909686089, 1.475178748369217 l-0.03258570563048124, 3.0712616443634033 -0.8282085508108139, 2.0702670514583588 l-1.5091866254806519, 1.758328378200531 -2.142079174518585, 1.293739378452301 l-2.5522580742836, 0.6523831188678741 -2.609916627407074, -0.00032464475225424394 l-2.138913869857788, -0.683198869228363 -1.7097963392734528, -1.2384717166423798 l-1.5417896211147308, -2.207750827074051 -0.6612975150346756, -2.6211118698120117 l0.2565320394933224, -2.482987493276596 0.7020409405231476, -1.2975895404815674 m4.487740099430084, 3.189901113510132 l0.003985249204561114, 0.0010522954835323617 m5.929174423217773, -0.5617563053965569 l0.0071021681651473045, 0.0027036471874453127 m-4.869692027568817, 1.662207692861557 l0.005895631038583815, 7.151988938858267e-05 m3.998340368270874, -0.5190720409154892 l0.0072400993667542934, 0.002474640787113458 m-2.459331303834915, 1.84906467795372 l0.010325177572667599, 0.0016025095828808844 m0.6188040971755981, -0.10058463551104069 l1.834380030632019, -0.3053233027458191 m-0.9739521145820618, 0.8496549725532532 l1.2014959752559662, 0.7532044500112534 m-0.9399144351482391, 0.056418757885694504 l1.0977167636156082, 1.1775630712509155 m-4.87048476934433, -2.137547582387924 l-3.2008376717567444, 0.08202061057090759 m2.6379507780075073, 0.8066798001527786 l-2.4919167160987854, 1.2285929918289185 m2.880423665046692, -0.311068519949913 l-2.2048625349998474, 1.4956802129745483 m-2.9870672937249765, 91.88038707729902 l0.10834106244146824, -3.054179847240448 1.1939270794391632, -2.7476245164871216 l0.5797209590673447, 0.007247549947351217 2.2559547424316406, 4.4605448842048645 l2.194834053516388, -0.7646910101175308 1.8905824422836304, -0.04226432181894779 l1.5254127979278564, 0.4925009608268738 1.0377135872840881, 0.8967964351177216 l1.4045871794223785, -2.704348862171173 2.018622010946274, -1.8754687905311584 l0.43158959597349167, 0.43587271124124527 -0.3347814455628395, 4.871466755867004 l0.36905255168676376, 1.4460581541061401 -0.19705984741449356, 1.9560633599758148 l-0.9653431922197342, 2.096520960330963 -1.6210439801216125, 1.6964036226272583 l-2.283746302127838, 1.2522073090076447 -2.617798149585724, 0.5622072145342827 l-2.482263743877411, -0.06002634298056364 -2.045222818851471, -0.7192712277173996 l-1.6069592535495758, -1.1923681199550629 -1.4182564616203308, -2.0597051084041595 l-0.4666116461157799, -2.4761343002319336 0.45297130942344666, -2.197209745645523 l0.8245031535625458, -1.1582759022712708 m4.104442298412323, 3.5619711875915527 l-2.7655306458473206, 0.22807471454143524 m3.8597360253334045, 1.111176535487175 l-3.9008238911628723, 1.2074492126703262 m4.362072050571442, 0.06465924438089132 l-3.6480051279067993, 2.0996548235416412 m9.044156074523926, -5.529345870018005 l4.348011016845703, -0.09640531614422798 m-4.200620353221893, 1.6194383800029755 l3.3621424436569214, 0.775621235370636 m-3.788905143737793, 0.7608307152986526 l3.1481733918190002, 1.1291100084781647 m-7.717576622962952, -5.572603344917297 l0.010162687394768, 0.001188497117254883 m3.130847215652466, -0.4390115663409233 l0.012397352838888764, -0.0003854683745885268 m-10.059644257416949, 99.0194044708187 l0.20336540415883064, -2.4949289858341217 1.3994821906089783, -2.5769221782684326 l1.8772618472576141, 3.126506805419922 2.3655055463314056, -0.5324975028634071 l3.4166204929351807, -0.006762123084627092 1.5340088307857513, 0.5512990057468414 l3.97856742143631, -3.040245771408081 -0.20151523873209953, 3.793382942676544 l0.34612666815519333, 2.010165750980377 0.8716094493865967, 2.48417392373085 l0.0581043167039752, 2.2029568254947662 -0.7393635809421539, 1.9980616867542267 l-1.4961878955364227, 1.7363663017749786 -2.1560196578502655, 1.2865903973579407 l-2.637905478477478, 0.7094154506921768 -3.777572810649872, -0.012272404273971915 l-2.1969719231128693, -0.7180311530828476 -1.8026651442050934, -1.2419043481349945 l-1.6139544546604156, -2.2344891726970673 -0.6527572125196457, -2.7186688780784607 l0.24025263264775276, -2.839788496494293 1.2783004343509674, -1.9735638797283173 m3.9585080742836, 3.9995738863945007 l-2.7834731340408325, 0.23752054199576378 m4.15167897939682, 1.3047802448272705 l-3.9630162715911865, 1.205383911728859 m4.426145851612091, 0.25286125019192696 l-3.7045857310295105, 2.3958997428417206 m10.26350736618042, -6.158565878868103 l4.295767247676849, -0.04793691448867321 m-4.249735176563263, 2.0067574083805084 l3.4839996695518494, 0.7584090530872345 m-3.9652806520462036, 1.0545428097248077 l3.4030383825302124, 1.244056224822998 m-8.408613204956055, -6.655057668685913 l0.009661770309321582, 0.0004580587483360432 m3.0905723571777344, -0.2596058137714863 l0.012960998574271798, -8.67624839884229e-05 m91.04431015148293, -200.2169359059917 l0.23941798135638237, -2.9143542051315308 1.308085024356842, -2.6733973622322083 l1.9407331943511963, 3.447975218296051 4.8125240206718445, -0.37410397082567215 l1.6849339008331299, 0.3853534162044525 3.519273102283478, -3.0771100521087646 l0.4710829630494118, 0.36967169493436813 -0.05994364619255066, 4.362455904483795 l0.6824987381696701, 1.521259844303131 0.0764352735131979, 2.1293343603610992 l-0.6156399846076965, 2.1129216253757477 -1.367858648300171, 1.9477687776088715 l-1.9846740365028381, 1.4142267405986786 -2.462812513113022, 0.8395490795373917 l-2.5245270133018494, 0.1712646521627903 -3.2173892855644226, -0.6358879804611206 l-1.7396867275238037, -1.046949103474617 -1.6560734808444977, -2.0712700486183167 l-0.7142283022403717, -2.534435987472534 0.21118691191077232, -2.537427246570587 l1.2788082659244537, -1.9188222289085388 m3.933061957359314, 3.473656475543976 l0.003046320052817464, 0.0021256229956634343 m6.069090366363525, -0.4818596690893173 l0.007115968037396669, 0.002595417608972639 m-4.429157972335815, 1.4176176488399506 l0.00496407737955451, 0.0003543118145898916 m3.445427119731903, -0.38946419954299927 l0.007916223839856684, 0.0008032113692024723 m-1.7745701968669891, 1.9539451599121094 l0.011369992280378938, 0.0022416815045289695 m0.17454147338867188, -0.07719737477600574 l1.4201657474040985, -0.43677039444446564 m-0.5509448796510696, 0.7612358033657074 l3.889901340007782, -0.3507523238658905 m-3.2192271947860718, 1.3532866537570953 l3.090796172618866, 0.5139832198619843 m-7.76235818862915, -1.1047087609767914 l-4.337502717971802, -0.18724583089351654 m4.024006426334381, 1.0903847962617874 l-4.252578616142273, 1.126420572400093 m-0.3694572934182361, 92.09508671239746 l-0.020959728863090277, -3.11000257730484 0.5070307850837708, -1.5123054385185242 l0.5771531537175179, -0.15213596634566784 2.5332751870155334, 3.7602943181991577 l2.1647801995277405, -0.7948063313961029 1.8741759657859802, -0.05655773915350437 l1.5026317536830902, 0.4571707174181938 0.9597198665142059, 0.8449028432369232 l1.3772861659526825, -2.357904613018036 2.0958365499973297, -1.7393159866333008 l0.38079190999269485, 0.5722102150321007 -0.6422429531812668, 4.473870396614075 l0.4227851703763008, 1.3209734857082367 -0.155996885150671, 1.8739937245845795 l-0.9462140500545502, 2.0947623252868652 -1.6091002523899078, 1.6859400272369385 l-2.279002368450165, 1.216464340686798 -2.5598371028900146, 0.5131339281797409 l-2.3751260340213776, -0.12372503988444805 -1.9594459235668182, -0.7595683634281158 l-1.4887607097625732, -1.2499438226222992 -1.2498987466096878, -2.1405285596847534 l-0.2623309753835201, -2.3849008977413177 0.5960016697645187, -1.982901692390442 m4.3501171469688416, 2.763015627861023 l-2.8347736597061157, 0.3071211464703083 m3.7239226698875427, 1.1298418790102005 l-3.7464678287506104, 1.2695665657520294 m4.3819960951805115, -0.039983466267585754 l-3.389795422554016, 2.1124467253684998 m9.005765318870544, -5.678586959838867 l4.231064021587372, -0.025700763799250126 m-4.276426434516907, 1.7677271366119385 l3.2800334692001343, 0.7146147638559341 m-3.6901673674583435, 0.9198847413063049 l3.125027120113373, 1.1519036442041397 m-7.76699960231781, -5.899661183357239 l0.010585937416180968, 0.0014663134061265737 m3.4338074922561646, -0.4374755546450615 l0.014186440967023373, 0.0010695257515180856 m-11.439035689691082, 99.2343614724814 l0.018088495125994086, -2.4677640199661255 1.1099450290203094, -2.4277296662330627 l0.588306151330471, -0.022073660511523485 2.123173028230667, 3.832648992538452 l6.027765870094299, -0.17492733895778656 3.039574921131134, -2.8967708349227905 l2.292979806661606, -0.6682141870260239 0.37792693823575974, 0.6628325581550598 l-0.0771153811365366, 2.392033040523529 -0.041779857128858566, 2.347596138715744 l0.729333758354187, 2.301228940486908 -0.05022070370614529, 2.180509865283966 l-0.8577168732881546, 1.9869689643383026 -1.6427065432071686, 1.8117216229438782 l-2.3175278306007385, 1.3619056344032288 -2.7009278535842896, 0.7270155102014542 l-2.6615387201309204, 0.08984477259218693 -2.3459766805171967, -0.551256351172924 l-1.9450141489505768, -1.0777995735406876 -1.83258518576622, -2.0890766382217407 l-0.8921831846237183, -2.5330421328544617 0.06493949331343174, -2.6366129517555237 l0.5854794010519981, -1.5335986018180847 m4.899555146694183, 2.9614537954330444 l-2.870960831642151, 0.306183397769928 -2.246224731206894, 1.1037839204072952 m5.35808801651001, 0.4799569770693779 l-2.6619192957878113, 0.9083281457424164 -1.4300231635570526, 0.9668747335672379 m5.086127519607544, -0.46343639492988586 l-3.584461212158203, 2.437557429075241 -0.9540567547082901, 1.0710977017879486 m12.19997763633728, -7.436644434928894 l4.356649219989777, 0.15603234991431236 1.6914711892604828, 0.4568341374397278 m-6.0692983865737915, 1.4671346545219421 l2.2797489166259766, 0.20058533176779747 2.8296485543251038, 1.0308051854372025 m-5.475250482559204, 0.5150250717997551 l3.9758339524269104, 1.3650406897068024 m-8.9748215675354, -6.9394999742507935 l-0.015349016757681966, 0.4663846641778946 m3.111254870891571, -0.6743836402893066 l0.011316901072859764, -0.0016640155809000134 " fill="none" stroke="black" stroke-width="1" /></svg>