<?xml version="1.0" encoding="utf-8" ?>
<svg baseProfile="full" height="136.02838896214962" version="1.1" width="77.05861165333772" xmlns="http://www.w3.org/2000/svg" xmlns:ev="http://www.w3.org/2001/xml-events" xmlns:xlink="http://www.w3.org/1999/xlink"><defs /><rect fill="white" height="136.02838896214962" width="77.05861165333772" x="0" y="0" /><path d="M52.05861165333772, 108.89729430899024 m-1.576358675956726, -1.672542244195938 l-2.372942566871643, -0.7860715687274933 -2.203550636768341, 0.22441089153289795 l-1.5197445452213287, 0.4786727577447891 -0.9765575081110001, 1.199968308210373 l-0.2129029482603073, 1.2269799411296844 0.48248540610074997, 0.7365276664495468 l0.6836145371198654, 0.5084304884076118 0.6909648329019547, 0.21471841260790825 l0.7361897081136703, -0.15179621055722237 0.291299968957901, -0.5149858817458153 l-0.18899071961641312, -0.08686969988048077 -0.2928433381021023, -1.132313311100006 l-0.5242226272821426, -1.4837820827960968 -0.6352631747722626, -1.4931651949882507 l-0.6317585706710815, -1.2502892315387726 -1.3454695045948029, -0.8456060290336609 l-1.0817186534404755, -0.9516582638025284 -1.2838216125965118, -0.7558577507734299 l-1.2915681302547455, -1.0418617725372314 -1.3236609101295471, -1.319652795791626 l-1.4669181406497955, -0.6695255637168884 -1.3234919309616089, -0.560530349612236 l-1.4736899733543396, -1.049586609005928 -1.138804778456688, -0.5719886347651482 l-1.0783480107784271, -0.6422369182109833 -1.1158374696969986, -0.409906767308712 l-1.0073866695165634, -0.6944388151168823 -0.9371714293956757, -0.7870528846979141 l-0.7392894476652145, -0.6192812323570251 -0.4870199039578438, -0.2390608936548233 l-0.3495962545275688, -0.5187715962529182 -0.2965431474149227, -0.6326808780431747 l-0.33199988305568695, -0.3462505340576172 0.024937773123383522, -0.416824035346508 l-0.12906301766633987, -0.40192820131778717 0.03246761392802, -0.7035764306783676 l-0.15310379676520824, -0.4807247221469879 0.002564249443821609, -0.14861815609037876 l0.337616428732872, -0.4738158732652664 0.237748920917511, -0.6230557709932327 l0.24190422147512436, -0.6433998048305511 0.0066578981932252645, -0.668022483587265 l0.2020404115319252, -0.7776439934968948 0.2545050345361233, -0.747746154665947 l0.3090517781674862, -0.6600737571716309 0.30868418514728546, -0.6555482745170593 l0.245488490909338, -0.7643009722232819 0.1335717737674713, -0.7657325267791748 l0.24967225268483162, -0.829101949930191 0.3220003470778465, -0.6697435677051544 l0.3239814564585686, -0.7882661372423172 0.38502123206853867, -0.9501296281814575 l0.3997665271162987, -1.08683280646801 0.23284060880541801, -0.83354152739048 l0.24585239589214325, -0.8892690390348434 0.17170654609799385, -0.8124786615371704 l0.14235212467610836, -0.732431635260582 0.0056209799367934465, -0.8825206756591797 l0.004590475291479379, -0.6789753586053848 -0.12130106799304485, -0.5675557628273964 l-0.12356714345514774, -0.5649197846651077 -0.28410008177161217, -0.5505669116973877 l-0.042530400678515434, -0.6752156466245651 -0.2674540504813194, -0.6202661246061325 l-0.21847179159522057, -0.6670831143856049 -0.16052581369876862, -0.7473505288362503 l-0.13512719422578812, -0.6613946706056595 -0.166904516518116, -0.8057448267936707 l-0.34175317734479904, -0.37931472063064575 -0.34657668322324753, -0.6162165105342865 l-0.13120663352310658, -1.0234029591083527 -0.33492017537355423, -0.47329891473054886 l-0.2496730349957943, -0.8338421583175659 -0.14147314243018627, -0.6703235954046249 l-0.21069370210170746, -1.1986923962831497 -0.3248384967446327, -1.0894912481307983 l-0.14227242209017277, -0.9698738902807236 -0.2060982584953308, -0.9264145046472549 l-0.16302850097417831, -1.090354174375534 -0.10809555649757385, -1.2249716371297836 l-0.27896733954548836, -1.2479083985090256 -0.2920246496796608, -1.4423508942127228 l-0.2327324077486992, -1.3148187100887299 -0.11827604845166206, -1.3555341958999634 l0.03991216421127319, -1.406843513250351 -0.0531209260225296, -1.3787765800952911 l-0.07668169680982828, -1.472732424736023 0.00902497791685164, -1.5347820520401 l0.11619996279478073, -1.4510111510753632 -0.16689404845237732, -1.2784244120121002 l0.46865954995155334, -0.7497210055589676 -0.12963070534169674, -1.2284375727176666 l0.04717615898698568, -1.495213806629181 -0.03320265095680952, -1.4272022247314453 l-0.06681110709905624, -1.2326715886592865 -0.14146375469863415, -1.4063289761543274 l-0.05897983442991972, -1.3714241981506348 0.09728503413498402, -1.2223908305168152 l-0.09752567857503891, -1.3253888487815857 0.7570866495370865, 0.467643141746521 l0.27001844719052315, -1.1161359399557114 0.37522777915000916, 0.4497164860367775 l0.24339525029063225, -1.1312543600797653 0.35475321114063263, 0.4766462743282318 l0.3063764236867428, -0.8173081278800964 0.5167058482766151, -0.7245969027280807 l0.22123489528894424, -0.09891735389828682 0.2936619706451893, -0.9505986422300339 l0.34301720559597015, -0.9922658652067184 0.45267485082149506, -1.0491243749856949 l0.41075583547353745, -1.045735478401184 0.573694072663784, -0.9447503089904785 l0.32780151814222336, 0.11920956894755363 " fill="none" stroke="black" stroke-width="1" /></svg>