<?xml version="1.0" encoding="utf-8" ?>
<svg baseProfile="full" height="74.20652997680008" version="1.1" width="110.574233783409" xmlns="http://www.w3.org/2000/svg" xmlns:ev="http://www.w3.org/2001/xml-events" xmlns:xlink="http://www.w3.org/1999/xlink"><defs /><rect fill="white" height="74.20652997680008" width="110.574233783409" x="0" y="0" /><path d="M44.68952115625143, 32.41252601146698 m-1.1582071334123611, -7.41252601146698 l3.358800709247589, 5.443573594093323 0.5791035667061806, 0.34746214747428894 l1.9689521193504333, -1.3898485898971558 4.517008066177368, -0.34746214747428894 l5.559394359588623, 1.1582071334123611 1.9689521193504333, 1.0423864424228668 l3.70626300573349, -4.748649299144745 0.23164143785834312, 5.791035890579224 l1.505669355392456, 2.4322350323200226 1.0423864424228668, 2.6638764142990112 l-0.11582071892917156, 3.011338710784912 -1.0423864424228668, 2.548055648803711 l-1.3898485898971558, 1.505669355392456 -2.895517945289612, 1.6214899718761444 l-2.895517945289612, 1.0423864424228668 -4.053725004196167, 0.23164143785834312 l-4.285366535186768, -0.6949242949485779 -3.4746214747428894, -1.2740278244018555 l-7.065063714981079, -4.401187300682068 -1.0423864424228668, -1.2740278244018555 l-0.34746214747428894, -2.895517945289612 0.9265657514333725, -1.9689521193504333 l1.853131502866745, -1.853131502866745 1.7373107373714447, -0.9265657514333725 m9.960581660270691, 7.644167542457581 l-0.11582071892917156, 1.1582071334123611 2.4322350323200226, -0.11582071892917156 l-0.23164143785834312, -0.5791035667061806 -2.7796971797943115, -0.46328287571668625 m1.505669355392456, 0.9265657514333725 l2.6638764142990112, 0.23164143785834312 0.6949242949485779, 0.46328287571668625 m-2.895517945289612, -1.0423864424228668 l-0.34746214747428894, 1.9689521193504333 0.9265657514333725, 1.1582071334123611 l2.548055648803711, 1.0423864424228668 0.5791035667061806, 0.0 l0.46328287571668625, -0.8107449859380722 m-4.401187300682068, -2.3164142668247223 l0.11582071892917156, 1.3898485898971558 -0.34746214747428894, 0.5791035667061806 l-1.853131502866745, 1.1582071334123611 -1.1582071334123611, 0.11582071892917156 l-0.5791035667061806, -0.46328287571668625 -0.23164143785834312, -1.3898485898971558 m5.211932063102722, -2.4322350323200226 l2.7796971797943115, -1.0423864424228668 8.918195366859436, -1.505669355392456 l8.570733070373535, -0.11582071892917156 9.26565706729889, 1.505669355392456 m-28.376076221466064, 1.853131502866745 l11.002968549728394, 1.505669355392456 5.3277528285980225, 1.853131502866745 l3.011338710784912, 1.7373107373714447 3.011338710784912, 2.7796971797943115 l-0.11582071892917156, 0.34746214747428894 m-25.94383955001831, -9.26565706729889 l-5.791035890579224, -2.4322350323200226 -7.991629242897034, -1.7373107373714447 l-3.358800709247589, -0.34746214747428894 -7.41252601146698, 0.0 l-3.9379042387008667, 0.9265657514333725 " fill="none" stroke="black" stroke-width="1" /></svg>