<?xml version="1.0" encoding="utf-8" ?>
<svg baseProfile="full" height="82.77726264670491" version="1.1" width="103.97245204076171" xmlns="http://www.w3.org/2000/svg" xmlns:ev="http://www.w3.org/2001/xml-events" xmlns:xlink="http://www.w3.org/1999/xlink"><defs /><rect fill="white" height="82.77726264670491" width="103.97245204076171" x="0" y="0" /><path d="M35.539684696123004, 31.1384978890419 m0.11582071892917156, -2.200593650341034 l1.2740278244018555, -3.9379042387008667 0.5791035667061806, 0.23164143785834312 l1.6214899718761444, 4.864470064640045 0.5791035667061806, 0.11582071892917156 l1.2740278244018555, -0.6949242949485779 2.895517945289612, 0.0 l3.358800709247589, 1.3898485898971558 0.5791035667061806, 0.0 l1.0423864424228668, -2.548055648803711 0.9265657514333725, -1.2740278244018555 l1.9689521193504333, -1.0423864424228668 0.0, 6.8334221839904785 m-16.099079847335815, -2.200593650341034 l-3.1271594762802124, 2.895517945289612 -1.9689521193504333, 2.4322350323200226 l-0.46328287571668625, 1.505669355392456 0.23164143785834312, 3.358800709247589 l1.2740278244018555, 1.9689521193504333 3.011338710784912, 2.3164142668247223 l5.443573594093323, 2.548055648803711 3.1271594762802124, 0.8107449859380722 l4.517008066177368, 0.11582071892917156 1.1582071334123611, -0.34746214747428894 l2.7796971797943115, -1.6214899718761444 1.2740278244018555, -1.1582071334123611 l0.8107449859380722, -1.3898485898971558 0.34746214747428894, -9.149836897850037 l-1.1582071334123611, -1.7373107373714447 -1.1582071334123611, -0.46328287571668625 l-0.5791035667061806, 0.23164143785834312 m-12.971919775009155, 1.6214899718761444 l-1.9689521193504333, 0.11582071892917156 -1.2740278244018555, 0.9265657514333725 l0.23164143785834312, 1.2740278244018555 1.9689521193504333, 0.8107449859380722 l1.2740278244018555, 0.0 0.6949242949485779, -1.7373107373714447 l-0.9265657514333725, -1.0423864424228668 -0.9265657514333725, 0.8107449859380722 l-0.34746214747428894, 1.853131502866745 m11.582071781158447, 0.11582071892917156 l-2.3164142668247223, -0.34746214747428894 -1.1582071334123611, 0.8107449859380722 l-0.34746214747428894, 0.5791035667061806 0.5791035667061806, 0.6949242949485779 l2.0847728848457336, 0.8107449859380722 1.2740278244018555, 0.0 l0.6949242949485779, -1.2740278244018555 -0.34746214747428894, -1.1582071334123611 l-0.6949242949485779, 0.23164143785834312 -1.2740278244018555, 1.6214899718761444 m-8.223270773887634, 1.7373107373714447 l1.1582071334123611, -0.23164143785834312 -1.1582071334123611, 0.23164143785834312 l0.0, -0.5791035667061806 0.8107449859380722, -0.23164143785834312 l0.6949242949485779, 0.0 0.23164143785834312, 0.5791035667061806 l-0.5791035667061806, 0.11582071892917156 0.5791035667061806, -0.46328287571668625 l-1.7373107373714447, 1.1582071334123611 m-4.053725004196167, -0.11582071892917156 l-5.3277528285980225, -2.200593650341034 -1.853131502866745, -1.6214899718761444 l-2.548055648803711, -3.5904422402381897 m8.107450008392334, 9.149836897850037 l-5.791035890579224, 0.46328287571668625 -1.6214899718761444, 0.6949242949485779 l1.0423864424228668, 0.23164143785834312 m7.065063714981079, 0.0 l-5.675215125083923, 1.2740278244018555 -1.7373107373714447, 0.6949242949485779 l0.34746214747428894, 0.46328287571668625 m20.84772825241089, -3.9379042387008667 l9.84476089477539, -1.1582071334123611 m-10.655505657196045, 3.8220837712287903 l6.485959887504578, 4.517008066177368 1.2740278244018555, 1.6214899718761444 m-10.771327018737793, -2.548055648803711 l6.370139122009277, 7.991629242897034 m4.864470064640045, -16.90982460975647 l0.23164143785834312, -1.2740278244018555 1.3898485898971558, -1.3898485898971558 l1.6214899718761444, -0.46328287571668625 4.632828533649445, 0.11582071892917156 l7.065063714981079, 1.0423864424228668 4.169545769691467, 1.1582071334123611 l2.0847728848457336, 0.6949242949485779 2.7796971797943115, 2.3164142668247223 " fill="none" stroke="black" stroke-width="1" /></svg>