<?xml version="1.0" encoding="utf-8" ?>
<svg baseProfile="full" height="308.21288352133706" version="1.1" width="1013.0053123447578" xmlns="http://www.w3.org/2000/svg" xmlns:ev="http://www.w3.org/2001/xml-events" xmlns:xlink="http://www.w3.org/1999/xlink"><defs /><rect fill="white" height="308.21288352133706" width="1013.0053123447578" x="0" y="0" /><path d="M25, 25 m0.0, 0.0 m38.872426746966084, 41.95803076843731 l-1.40553817152977, -0.1774168200790882 -1.4518038928508759, 0.4095284268260002 l-0.8422765135765076, 1.0698194056749344 0.004932133015245199, 1.46293044090271 l0.526341088116169, 1.6823108494281769 0.8121676743030548, 1.946529895067215 l1.1868605762720108, 1.4011532068252563 1.3311465084552765, 1.629749983549118 l1.0869922488927841, 1.62054643034935 1.13439179956913, 1.146690472960472 l0.9287861734628677, 0.9409864246845245 0.9894076734781265, 0.8317688852548599 l0.7992594689130783, 0.725361779332161 0.8867456763982773, 0.5659099295735359 l0.5913892760872841, 0.3683685138821602 0.5088812112808228, 0.018516050186008215 l0.5574031919240952, -0.027677076868712902 0.3220643475651741, 0.2914448454976082 l0.3132440894842148, -0.15095666982233524 0.41282039135694504, -0.003388065379112959 l0.4497012123465538, -0.032135588116943836 0.41276678442955017, -0.040044388733804226 l0.4338596761226654, -0.2940414287149906 0.3263114020228386, -0.13419540598988533 l0.36060597747564316, -0.0053206359734758735 0.3985999524593353, 0.13878058642148972 l0.29792100191116333, 0.23317059502005577 0.3724425286054611, -0.520358681678772 l0.4180006682872772, -0.30356982722878456 0.2721130847930908, -0.07677554618567228 l0.8128348737955093, -0.2633984573185444 0.3940054029226303, -0.5579674616456032 l0.3250373899936676, -0.33532559871673584 0.4538514092564583, -0.4822397232055664 l0.3435928747057915, -0.463971309363842 0.3816121444106102, -0.5980482697486877 l0.2359488047659397, -0.019743239972740412 0.6569722294807434, -0.11557464487850666 l0.26566850021481514, -0.4692194238305092 0.3515349328517914, -0.7443493604660034 l0.4553786665201187, -0.5689611658453941 0.2939087152481079, 0.06515373941510916 l0.37827979773283005, -0.39388179779052734 0.430418886244297, -0.41129734367132187 l0.26918480172753334, -0.36883682012557983 -0.274004228413105, -0.04194405861198902 l0.490250326693058, -0.46269651502370834 0.25061318650841713, -0.4994724690914154 l0.10240226052701473, -0.015942294849082828 0.005065398872829974, -0.19606510177254677 l-0.04984305240213871, -0.21390102803707123 -0.004085916152689606, -0.08842345327138901 l0.12242679484188557, -0.14820795506238937 -0.2053884044289589, -0.05997016094624996 l0.35342566668987274, -0.3988049179315567 -0.07165619172155857, -0.15580241568386555 l1.289006620645523, 0.4720401018857956 1.2234875559806824, 0.4158592224121094 l0.015490794321522117, -0.06720335688441992 1.412731260061264, 0.30086176469922066 l-0.043362295255064964, -0.08046683855354786 m-24.0468272283033, 91.95531153818592 l-1.4614847302436829, -0.09363722987473011 -1.4745621383190155, 0.6789262592792511 l-0.5895163118839264, 1.2312236428260803 -0.08620154112577438, 1.3404099643230438 l1.0257568210363388, 1.362585574388504 1.2755772471427917, 1.3821786642074585 l1.2949062883853912, 1.58693328499794 1.3518829643726349, 1.2858320772647858 l1.5485908091068268, 1.7213694751262665 1.305047869682312, 1.1628319323062897 l1.1171303689479828, 1.1255012452602386 0.8928345888853073, 0.8879848569631577 l0.9672444313764572, 0.5097261816263199 0.8117236196994781, 0.4011790081858635 l0.4932422935962677, 0.42388293892145157 0.728972777724266, 0.6662501394748688 l0.44207360595464706, 0.2925359085202217 0.5069046095013618, -0.14515667222440243 l0.3134510666131973, 0.2012569084763527 0.5975997820496559, 0.1218167133629322 l0.30618293210864067, 0.024500538129359484 0.3541671857237816, 0.026742361951619387 l0.6019158661365509, 0.06761992815881968 0.3979693353176117, 0.2400236576795578 l0.2891666255891323, -0.019163453252986073 0.5772921442985535, -0.013474002480506897 l0.4312683641910553, 0.11002578772604465 0.41874710470438004, -0.4216981306672096 l0.3767009824514389, -0.2168952114880085 0.4406683146953583, -0.2758461609482765 l0.49003757536411285, -0.5690066143870354 0.46860385686159134, -0.34219101071357727 l0.4872659966349602, -0.21676165983080864 0.5342607572674751, -0.7563339173793793 l0.3282471373677254, -0.5501837283372879 0.33920880407094955, -0.4954496771097183 l0.41276663541793823, -0.4162527248263359 0.3337390348315239, -0.5101845413446426 l0.417497381567955, -0.6096572056412697 0.32713398337364197, -0.5755296349525452 l0.10176114737987518, -0.18254857510328293 0.3361132740974426, -0.44090230017900467 l0.24416372179985046, 0.17487699165940285 0.36414820700883865, -0.39898835122585297 l0.6514304876327515, -0.028149173595011234 0.5100437998771667, -0.13491319492459297 l0.21698184311389923, -0.18309222534298897 -0.30769841745495796, -0.09450938552618027 l-0.4141070693731308, -0.031764255836606026 -0.11619981378316879, -0.16983341425657272 l-0.013537512859329581, -0.07054111454635859 1.1021123081445694, 0.39247337728738785 l0.030100096482783556, -0.04120953846722841 0.332183800637722, -0.5077878385782242 l-0.36261849105358124, -0.17994025722146034 -0.02248384291306138, 0.022216334473341703 l1.3629719614982605, 0.2907618507742882 1.2388504296541214, 0.5342284590005875 l0.1887129619717598, -0.03195320488885045 m-23.834565523284255, 90.44462151185144 l-1.3112816214561462, -0.1369267702102661 -1.5869688987731934, 0.5258369818329811 l-0.8933565020561218, 0.8477539569139481 0.36467190831899643, 1.442921757698059 l0.7301260530948639, 1.6987630724906921 1.0286150872707367, 1.6077767312526703 l1.4835458993911743, 1.5772072970867157 1.5152619779109955, 1.393159031867981 l1.1675602942705154, 1.2211240828037262 0.9496479481458664, 1.5428826212882996 l1.1638134717941284, 1.14840567111969 1.1678598821163177, 0.645415410399437 l0.7702291756868362, 0.7825160026550293 0.7201562076807022, 0.30373284593224525 l0.5665753409266472, 0.5276346579194069 0.37965837866067886, 0.3062322735786438 l0.369233600795269, 0.20455708727240562 0.4676017165184021, -0.047535477206110954 l0.5564269796013832, 0.12291548773646355 0.4104253277182579, 0.49953747540712357 l0.47184471040964127, 0.09559711441397667 0.3835783526301384, 0.2007208950817585 l0.46142932027578354, 0.052465605549514294 0.3490012511610985, -0.12038544751703739 l0.3090435266494751, -0.1550864428281784 0.37868890911340714, -0.38036856800317764 l0.4621049389243126, -0.054033990018069744 0.3255065530538559, -0.11155894957482815 l0.5209284648299217, -0.2915232256054878 0.4764892905950546, -0.5597961321473122 l0.4285331070423126, -0.6154297664761543 0.3833659738302231, -0.4200892522931099 l0.47360606491565704, -0.39360620081424713 0.42982418090105057, -0.43629519641399384 l0.49738701432943344, -0.6705153733491898 0.37908703088760376, -0.4231615364551544 l0.4993477463722229, -0.6783799082040787 0.35088609904050827, -0.5492351576685905 l0.002943707804661244, 0.11584962718188763 0.2822488732635975, -0.22673754021525383 l0.33986732363700867, -0.6586095690727234 0.41826963424682617, -0.20897094160318375 l0.5745270848274231, -0.16484403982758522 0.2748793177306652, -0.5428588390350342 l0.05102658178657293, 0.0031919250614009798 0.016231072368100286, -0.13794425874948502 l0.29634950682520866, -0.1561696920543909 0.37396393716335297, -0.663101077079773 l0.2946142293512821, -0.5062253400683403 -0.21449139341711998, 0.03085900330916047 l-0.005820083897560835, -0.04446572158485651 0.2343451976776123, -0.13759675435721874 l-0.011115045053884387, 0.018955667037516832 -0.49359507858753204, 0.054620238952338696 l1.2134461104869843, 0.393291674554348 1.2984417378902435, 0.4857230558991432 l0.39426300674676895, -0.15576010569930077 0.37158574908971786, -0.16866307705640793 l-0.020002445671707392, -0.12678682804107666 0.012124492786824703, -0.01729666953906417 m75.71534172064275, -207.63968691317132 l-1.5358678996562958, -0.13458425179123878 -1.4668115973472595, 0.5535799264907837 l-0.40787220001220703, 1.0305076837539673 0.20197786390781403, 1.3864988088607788 l0.636024996638298, 1.9316872954368591 1.185324639081955, 1.6689853370189667 l1.6860637068748474, 1.316768229007721 1.465429812669754, 1.4329475164413452 l1.013774648308754, 1.1599541455507278 1.134122684597969, 0.9150169789791107 l1.189575269818306, 1.1146797239780426 0.6663674861192703, 0.6824070960283279 l0.8493462949991226, 0.4300228878855705 1.0299694538116455, 0.27182627469301224 l0.6348429620265961, 0.6565061956644058 0.6343942135572433, 0.32101843506097794 l0.4481961950659752, 0.2089962549507618 0.48414941877126694, 0.04850463941693306 l0.3010992147028446, 0.44845499098300934 0.5688691884279251, 0.15108277089893818 l0.330086313188076, 0.1637372374534607 0.3944406658411026, -0.06079633254557848 l0.37367817014455795, 0.18838413059711456 0.240876954048872, 0.1788453757762909 l0.40518850088119507, -0.16203496605157852 0.5178739503026009, -0.06584133487194777 l0.5414118617773056, -0.21470654755830765 0.3669166564941406, -0.151385385543108 l0.5348894745111465, -0.4111437126994133 0.38044948130846024, -0.06631904747337103 l0.4148361086845398, -0.278883446007967 0.33509813249111176, -0.42529918253421783 l0.44550884515047073, -0.6268636882305145 0.3924756497144699, -0.3065352886915207 l0.3734198212623596, -0.35910334438085556 0.29443513602018356, -0.6062305346131325 l0.4314352944493294, -0.39240285754203796 -0.15491102822124958, 0.00717310409527272 l0.3158140182495117, -0.6057543307542801 0.37689559161663055, -0.6039804220199585 l0.23697098717093468, -0.17193656414747238 0.4593571648001671, -0.5077200010418892 l0.47752466052770615, -0.5295281484723091 0.45347627252340317, -0.49522601068019867 l0.18614070490002632, -0.1356253493577242 -0.17629597336053848, 0.06939372513443232 l0.17588632181286812, 0.04018723964691162 -0.11186466552317142, 0.009249607683159411 l-0.06354719866067171, -0.08892761543393135 0.3548058122396469, -0.3428627923130989 l1.1049332469701767, 0.45730479061603546 1.2074985355138779, 0.4540831223130226 l-0.38481418043375015, -0.07697025313973427 1.241370439529419, 0.40688809007406235 l-0.1537355687469244, 0.0943492166697979 1.3272391259670258, 0.4242553189396858 l0.07766671478748322, -0.13757558539509773 -0.005528727197088301, 0.012795694638043642 l-0.20867038518190384, 0.022135695908218622 m-23.245528701518197, 89.93511637527263 l-1.551419198513031, -0.2714523486793041 -1.546274572610855, 0.5418841168284416 l-0.5214850232005119, 1.0330939292907715 0.09543556720018387, 1.2659116089344025 l0.6522391736507416, 1.3796782493591309 1.3046319782733917, 1.544010490179062 l1.3638508319854736, 1.603539139032364 1.219528242945671, 1.5167824923992157 l1.0693971812725067, 1.555631309747696 0.9906813502311707, 1.3635623455047607 l1.2644478678703308, 0.9757320582866669 0.9158554673194885, 0.7747334986925125 l1.0196580737829208, 0.32612044364213943 0.8824808150529861, 0.4604826122522354 l0.5775709077715874, 0.25192806497216225 0.5326684936881065, 0.3144536539912224 l0.5109040066599846, -0.10249296203255653 0.45411139726638794, -0.0032194796949625015 l0.2990770898759365, 0.16340680420398712 0.5163264274597168, -0.09507104754447937 l0.3691578656435013, 0.11470992118120193 0.5533787608146667, 0.20051352679729462 l0.40170542895793915, 0.22322062402963638 0.26650380343198776, -0.006976497243158519 l0.2874578908085823, 0.18110154196619987 0.20453929901123047, 0.1466653123497963 l0.3843686729669571, -0.204713623970747 0.4684489592909813, -0.09028056636452675 l0.44635001569986343, -0.4366995021700859 0.5043209716677666, -0.33481135964393616 l0.4558120667934418, -0.29082201421260834 0.42859043926000595, -0.4373999312520027 l0.47578051686286926, -0.28386324644088745 0.4726143181324005, -0.4616885259747505 l0.38953810930252075, -0.3707240894436836 0.4009673371911049, -0.4965205118060112 l0.3774307295680046, -0.04623773507773876 0.41575197130441666, -0.5622986704111099 l0.3724619001150131, -0.5615581199526787 0.3572598844766617, -0.768669992685318 l0.2992231212556362, -0.4909879341721535 0.37837162613868713, -0.3795722872018814 l-0.1958494819700718, -0.1920134201645851 -0.008178772986866534, -0.06172442343086004 l-0.15671184286475182, -0.1089866366237402 0.20799998193979263, -0.37275608628988266 l-0.005207998910918832, -0.16653764992952347 -0.0890687108039856, 0.06955823861062527 l0.338442400097847, -0.43188299983739853 1.1201287806034088, 0.4822714999318123 l0.419902540743351, -0.5040847882628441 0.4042213410139084, -0.7139521837234497 l0.0899705570191145, -0.005289058317430317 1.322876214981079, 0.33416707068681717 l-0.1572795771062374, -0.02997326198965311 -0.2974194288253784, -0.06936206016689539 l0.24062218144536018, -0.2185232751071453 -0.5809058994054794, -0.21083692088723183 l0.01798556069843471, -0.12235879898071289 1.2233241647481918, 0.4044128954410553 l-0.30271532014012337, -0.02729575615376234 m-25.123574972094502, 92.42206612514565 l-1.1060523986816406, -0.16097063198685646 -1.8156720697879791, 0.5488382279872894 l-0.477331206202507, 0.9491919726133347 0.31700681895017624, 1.320396363735199 l0.4176703467965126, 1.2933619320392609 1.3483572006225586, 1.5687750279903412 l1.3749992847442627, 1.589457094669342 1.2828704714775085, 1.5094028413295746 l1.3446597754955292, 1.2912136316299438 1.0390742123126984, 1.1804305762052536 l0.9930711984634399, 1.0534195601940155 0.7926196604967117, 1.1239340156316757 l1.056026667356491, 0.8546826243400574 0.7672494649887085, 0.31600233167409897 l0.7463253289461136, 0.3949563577771187 0.435238815844059, 0.3709679841995239 l0.639176219701767, -0.15726620331406593 0.33249594271183014, 0.31219322234392166 l0.4829585924744606, -0.015691411681473255 0.31829435378313065, 0.48437122255563736 l0.45782189816236496, 0.3047647699713707 0.3458843007683754, -0.17151402309536934 l0.3336469456553459, -0.15629800036549568 0.29934631660580635, 0.05269328597933054 l0.4120248183608055, -0.3297528624534607 0.3530997782945633, -0.13801438733935356 l0.36027517169713974, -0.4244016110897064 0.3716498613357544, -0.4545649141073227 l0.2803558297455311, -0.30161894857883453 0.35689476877450943, -0.4786936193704605 l0.26348112151026726, -0.39366286247968674 0.3973875194787979, -0.5691659078001976 l0.42513757944107056, -0.3079323284327984 0.4845595359802246, -0.19486203789710999 l0.3667925298213959, -0.33529017120599747 0.5104133486747742, -0.533289834856987 l0.519610084593296, -0.8186665922403336 0.39507273584604263, -0.5658106878399849 l0.4642551764845848, -0.5368656665086746 0.4005080461502075, -0.3876711428165436 l0.34623458981513977, -0.3883400931954384 0.4681653529405594, -0.3926144912838936 l0.3411382809281349, -0.8875485509634018 0.2353101596236229, -0.41111670434474945 l0.33070940524339676, -0.3628973290324211 0.46312615275382996, -0.37762731313705444 l0.3579779714345932, -0.009841759456321597 -0.3338172659277916, -0.14310414902865887 l0.33739544451236725, -0.6879804283380508 -0.13218309730291367, 0.035677601117640734 l1.0525818914175034, 0.5411802232265472 0.38737133145332336, -0.5117812007665634 l-0.236688032746315, -0.08799426257610321 1.2639029324054718, 0.41783425956964493 l1.3079887628555298, 0.44241588562726974 1.3182428479194641, 0.2430160529911518 l0.1358948927372694, -0.12406626716256142 1.3057436048984528, 0.5024672299623489 l1.2945841252803802, 0.4138406738638878 0.5376838892698288, -0.2629297412931919 l-0.335221029818058, 0.07578221149742603 -0.3972240164875984, 0.12061744928359985 m73.26714951741451, -207.0829203177709 l-1.2886540591716766, -0.17505215480923653 -1.6484670341014862, 0.46519506722688675 l-0.6275215744972229, 1.0558436065912247 -0.02766489516943693, 1.4528478682041168 l1.1340582370758057, 1.427832841873169 1.4097067713737488, 1.5710781514644623 l1.4389951527118683, 1.6035397350788116 1.276812106370926, 1.3997597992420197 l1.055300086736679, 0.992116779088974 1.352841705083847, 0.9544075280427933 l1.1174912005662918, 1.0633865743875504 0.978550985455513, 0.8142432570457458 l0.8760182559490204, 0.5149675905704498 0.5927650630474091, 0.45964788645505905 l0.5518070980906487, 0.21339546889066696 0.5304186418652534, 0.650678426027298 l0.38544926792383194, 0.33643364906311035 0.5972873419523239, 0.5415065214037895 l0.4905381053686142, 0.3385775163769722 0.45718736946582794, -0.17123786732554436 l0.19739752635359764, 0.09432277642190456 0.311800055205822, 0.08268743753433228 l0.37215154618024826, -0.12175241485238075 0.3195297345519066, 0.255687590688467 l0.2620798721909523, -0.22014860063791275 0.5353730171918869, 0.00422871729824692 l0.5023491382598877, -0.25238433852791786 0.4696037992835045, -0.43704498559236526 l0.3241981938481331, -0.4074123501777649 0.3414476290345192, -0.34935060888528824 l0.32896339893341064, -0.31401604413986206 0.39260704070329666, -0.17772376537322998 l0.39663810282945633, -0.5125690624117851 0.4538945108652115, -0.5930590257048607 l0.38387730717658997, -0.31807374209165573 0.4670638218522072, -0.42032256722450256 l0.5534538999199867, -0.323486328125 0.031105305533856153, -0.15758035704493523 l0.28686782345175743, -0.014674394624307752 0.287577323615551, -0.32132845371961594 l0.41841380298137665, -0.5156157538294792 0.29096540063619614, -0.31277045607566833 l-0.1459222286939621, -0.3136274591088295 -0.14927816577255726, -0.21446185186505318 l-0.1953490823507309, -0.03542224643751979 0.05824244115501642, -0.012172035640105605 l0.08219578303396702, -0.10788640007376671 0.3477669879794121, -0.4410354048013687 l0.24021387100219727, 0.07827799767255783 0.46879254281520844, -0.20188391208648682 l0.3872707486152649, -0.41265547275543213 1.126602366566658, 0.43844494968652725 l0.0037550885463133454, -0.1721036620438099 1.2843380868434906, 0.4235752671957016 l0.4415075480937958, -0.21552355960011482 -0.20296884700655937, -0.294471587985754 l-0.3062871843576431, -0.042284741066396236 -0.0019273276848252863, 0.06338321603834629 l1.1983812600374222, 0.3261580690741539 1.4124122262001038, 0.5101752281188965 l1.2599961459636688, 0.34584276378154755 m-25.966298812199966, 90.57138718198985 l-1.0648633539676666, -0.35382427275180817 -1.4052566885948181, 0.6084651127457619 l-0.6174368038773537, 1.1296260356903076 0.4956163838505745, 1.1475785076618195 l1.0034360736608505, 1.33757084608078 1.3537134230136871, 1.6297060251235962 l1.2079769372940063, 1.3691870868206024 1.2973248958587646, 1.512039601802826 l1.215389221906662, 1.3435691595077515 1.186208724975586, 1.2991991639137268 l1.0780545324087143, 0.7233656197786331 0.9065919369459152, 0.4800257831811905 l0.8969169110059738, 0.7419886440038681 1.0209155082702637, 0.231369286775589 l0.6475484371185303, 0.5264751240611076 0.8675406873226166, 0.010017226450145245 l0.4156874492764473, 0.2364838682115078 0.409093014895916, 0.10945657268166542 l0.4583517462015152, 0.043721385300159454 0.24904083460569382, 0.4343658685684204 l0.41350867599248886, 0.014616288244724274 0.36882080137729645, -0.12854262255132198 l0.28269657865166664, -0.025260720867663622 0.19310077652335167, 0.2599763497710228 l0.3588847815990448, 0.019169860752299428 0.48686638474464417, -0.4403543099761009 l0.6370395421981812, -0.27917105704545975 0.19317587837576866, -0.1674162782728672 l0.45990224927663803, -0.36431197077035904 0.29829030856490135, -0.17836658284068108 l0.3792164474725723, -0.35498689860105515 0.519009567797184, -0.5337127298116684 l0.454898439347744, -0.45851264148950577 0.42874567210674286, -0.48799123615026474 l0.40685657411813736, -0.6154875457286835 0.45285582542419434, -0.46248659491539 l0.40402792394161224, -0.5107362568378448 0.12653791345655918, -0.016464503714814782 l0.42895276099443436, -0.136598264798522 0.4100966081023216, -0.5803327262401581 l0.28801484033465385, -0.3783205524086952 0.5561933666467667, -0.11631143279373646 l0.3755031153559685, -0.3920092433691025 0.3412982076406479, -0.09177912026643753 l0.03377154702320695, -0.105576878413558 -0.3453892096877098, -0.21265201270580292 l0.3611118346452713, -0.2546091750264168 -0.21951325237751007, -0.16331028193235397 l-0.08193774148821831, -0.137768117710948 1.2283777445554733, 0.3775116801261902 l-0.24454670026898384, -0.14643694274127483 0.4913109168410301, -0.3605922684073448 l1.2256788462400436, 0.3850606456398964 1.241178959608078, 0.38663141429424286 l0.06089707836508751, -0.09653015062212944 1.2678970396518707, 0.4367878660559654 l0.08022780530154705, -0.09224508889019489 m-24.73732385202311, 91.91572231609257 l-1.4289703965187073, -0.34039005637168884 -1.1433975398540497, 0.4987642168998718 l-0.7067662477493286, 1.0222841054201126 0.1566927507519722, 1.3834989070892334 l0.6737884134054184, 1.5354545414447784 1.1287537217140198, 1.2965480983257294 l1.2529821693897247, 1.2780261039733887 1.3677646219730377, 1.4146217703819275 l1.258121132850647, 1.206102892756462 1.089734435081482, 1.229427009820938 l0.9396208077669144, 0.7144703716039658 1.0562524944543839, 0.9490380436182022 l0.8688876032829285, 0.4578164219856262 0.44975709170103073, 0.6208257377147675 l0.9343940764665604, -2.6091245217685355e-05 0.5172362923622131, 0.2496044896543026 l0.466398186981678, 0.002090296329697594 0.5961915850639343, 0.20518165081739426 l0.4435252770781517, 0.24750800803303719 0.2510130777955055, 0.3470107913017273 l0.4517747461795807, 0.008123477455228567 0.3818639740347862, 0.2005542814731598 l0.3026752546429634, 0.05326722748577595 0.4704907163977623, -0.25278106331825256 l0.2496447041630745, 0.10720592923462391 0.22731581702828407, -0.13501758687198162 l0.4069612920284271, -0.0015682063531130552 0.4029271751642227, -0.3449356183409691 l0.3677605092525482, -0.3976473957300186 0.3994602710008621, -0.29369644820690155 l0.564255602657795, -0.38357775658369064 0.47360293567180634, -0.3007485158741474 l0.489279069006443, -0.5584844574332237 0.4444565623998642, -0.36807797849178314 l0.3076292760670185, -0.3205162286758423 0.3784230723977089, -0.3100239671766758 l0.1370686385780573, -0.09071745909750462 0.4319635406136513, -0.6468933820724487 l0.3678476810455322, -0.5423281714320183 0.43994393199682236, 0.08811822161078453 l0.1341480389237404, -0.0620814086869359 0.4677530750632286, -0.39921902120113373 l0.39176415652036667, -0.47215692698955536 0.20836599171161652, -0.19334618002176285 l0.2640833333134651, -0.19119013100862503 0.2564776688814163, -0.15059784054756165 l0.275140218436718, -0.5429017171263695 -0.23383889347314835, -0.06555621046572924 l0.31718168407678604, -0.19350865855813026 -0.05247143562883139, -0.192896518856287 l-0.2953171357512474, -0.1719348318874836 1.344645768404007, 0.4066065326333046 l0.21298374980688095, -0.19857700914144516 -0.04660636652261019, -0.044866735115647316 l-0.05959802307188511, -0.027688166592270136 0.4028436914086342, -0.5096132308244705 l0.05710464436560869, -0.17971418797969818 1.440618485212326, 0.41428592056035995 l-0.11931047774851322, -0.0365346041508019 -0.1369844563305378, -0.06878188345581293 m77.36639247392304, -207.55269154362963 l-1.7165511846542358, -0.026189258787781 -1.3884203135967255, 0.575554184615612 l-0.5492531880736351, 1.103338971734047 -0.23939069360494614, 1.5749900043010712 l0.6517050415277481, 1.7333808541297913 1.004505231976509, 1.469729095697403 l1.3934512436389923, 1.4701534807682037 1.2240850925445557, 1.6983889043331146 l1.220923513174057, 0.9405497461557388 1.0785969346761703, 1.2038098275661469 l1.107400432229042, 1.0064223408699036 0.6753280013799667, 0.6907587498426437 l1.017821952700615, 0.7311087101697922 0.8421432226896286, 0.13622567057609558 l0.4926176369190216, -0.025990870781242847 0.6547193229198456, 0.6129401549696922 l0.37603575736284256, 0.39631668478250504 0.4939427226781845, 0.32127629965543747 l0.43709974735975266, 0.0353008508682251 0.36825455725193024, 0.2981070429086685 l0.4506690427660942, 0.15753593295812607 0.49612071365118027, -0.2554393745958805 l0.4550223797559738, 0.017401232616975904 0.3961936756968498, -0.2086278423666954 l0.35478953272104263, -0.15786558389663696 0.4765279218554497, -0.11963236145675182 l0.4026434198021889, -0.08452445268630981 0.4722936823964119, -0.2594699151813984 l0.3981170803308487, -0.07597819436341524 0.55483628064394, -0.5621433258056641 l0.5720802396535873, -0.3637509420514107 0.4472370445728302, -0.5380985513329506 l0.38704030215740204, -0.4171936959028244 0.549650751054287, -0.28268640860915184 l0.4270074889063835, -0.23824358358979225 0.4581589251756668, -0.338662825524807 l0.3707724064588547, -0.45652590692043304 0.4132228344678879, -0.33904489129781723 l0.05271945148706436, 0.07353263441473246 0.5874228104948997, -0.379728339612484 l0.3198106959462166, -0.39664454758167267 0.34727632999420166, -0.6702324002981186 l0.15551278367638588, -0.12182171456515789 0.04218892194330692, -0.08784778416156769 l0.15112550929188728, -0.12824645265936852 0.35270199179649353, -0.26092516258358955 l-0.1499888114631176, -0.13104266487061977 -0.2350313402712345, -0.0912929605692625 l0.21910525858402252, -0.03234108444303274 -0.21362779662013054, -0.12681282125413418 l0.40244121104478836, -0.2399679459631443 -0.023782120551913977, -0.06074815057218075 l0.10727162472903728, -0.07736131083220243 -0.08648407645523548, 0.062239510007202625 l-0.15711788088083267, -0.1101937796920538 -0.2565905265510082, -0.15275362879037857 l1.1840590834617615, 0.38313012570142746 1.2015465646982193, 0.4032749682664871 l0.40545061230659485, -0.09209522977471352 1.2331125140190125, 0.4513947293162346 m-23.956507238326594, 90.26351021486335 l-1.3956163823604584, -0.29234834015369415 -1.1494117230176926, 0.2564196288585663 l-0.84117591381073, 1.019580066204071 0.0654711714014411, 1.444026231765747 l0.8063486218452454, 1.5267661213874817 1.4677983522415161, 1.5312311053276062 l1.2999716401100159, 1.4860574901103973 1.3542553782463074, 1.6274310648441315 l1.4685359597206116, 1.1495094001293182 1.251252442598343, 1.275000274181366 l1.1027541011571884, 1.152588278055191 0.9904526174068451, 1.006404235959053 l1.0430016368627548, 0.3240368515253067 0.5779441073536873, 0.4910825937986374 l0.5354015156626701, 0.4053056240081787 0.5190554261207581, 0.32913412898778915 l0.4930122569203377, 0.1503239292651415 0.4560988023877144, 0.1571330428123474 l0.45197345316410065, 0.278979055583477 0.45533880591392517, 0.39688028395175934 l0.5678686872124672, 0.13043471612036228 0.4322988912463188, 0.19107859581708908 l0.8367346972227097, -0.8372040092945099 0.3826318308711052, 0.005896848742850125 l0.3729357570409775, -0.008399597718380392 0.30640600249171257, 0.03376508131623268 l0.3502459451556206, -0.09440362453460693 0.4823295772075653, -0.160303246229887 l0.3763793408870697, -0.12703116051852703 0.5305301025509834, -0.2666109800338745 l0.48250097781419754, -0.1945292018353939 0.4372859001159668, -0.44696155935525894 l0.3633364662528038, -0.48097915947437286 0.46471040695905685, -0.6418135762214661 l0.4859960824251175, -0.3235295042395592 0.3586322069168091, -0.44516991823911667 l0.4319686070084572, -0.4516161233186722 0.2799726650118828, -0.3690055385231972 l0.2777348645031452, -0.7053474336862564 0.2932113967835903, -0.4700459912419319 l0.3178108111023903, -0.38229070603847504 0.2508736029267311, -0.6107983365654945 l0.6941431760787964, 0.33583205193281174 0.1880580186843872, 0.024232326541095972 l-0.26411211118102074, 0.0002753788612608332 0.40011968463659286, -0.3975193202495575 l0.3205931559205055, -0.5006896331906319 -0.05522602237761021, -0.2958702854812145 l0.20199252292513847, -0.5902326107025146 0.18496083095669746, -0.08206197991967201 l1.1067677289247513, 0.3990695998072624 -0.15402685850858688, -0.24875085800886154 l0.4126160964369774, -0.41240207850933075 1.1370517313480377, 0.41336867958307266 l-0.23628352209925652, -0.0016219087410718203 1.2094396352767944, 0.3258085250854492 l-0.0550943473353982, -0.10220712050795555 -0.151614248752594, -0.08092358708381653 l0.14535113237798214, -0.035065540578216314 m-23.555989286396652, 92.72433064337747 l-1.613156944513321, -0.14954503625631332 -1.4915521442890167, 0.5259544402360916 l-1.0301819443702698, 1.1033710837364197 0.047714291140437126, 1.4609943330287933 l0.8169882744550705, 1.3922379910945892 1.0248938202857971, 1.6714100539684296 l1.3013681769371033, 1.2555308640003204 1.2560902535915375, 1.2497207522392273 l1.3441923260688782, 1.1449045687913895 1.2629322707653046, 0.8317427337169647 l1.225571483373642, 0.66289983689785 0.8310064673423767, 0.7789666205644608 l0.8041217923164368, 0.9204065054655075 0.9626433253288269, 0.5578263476490974 l0.7433037459850311, 0.08098172023892403 0.5687064304947853, 0.41583213955163956 l0.430104061961174, 0.4258003458380699 0.5183631181716919, 0.34578174352645874 l0.49400079995393753, 0.19045941531658173 0.4807303473353386, 0.19856171682476997 l0.3788900375366211, 0.04352165851742029 0.34607119858264923, -0.254971943795681 l0.44519007205963135, 0.09919699281454086 0.18516426905989647, 0.08015550673007965 l0.4639098793268204, -0.13865618035197258 0.8515556156635284, -0.6776314973831177 l0.48018086701631546, -0.28100064024329185 0.3945625200867653, -0.2271205559372902 l0.44547561556100845, -0.22943230345845222 0.5324399098753929, -0.21402999758720398 l0.27873942628502846, -0.37430327385663986 0.5065632611513138, -0.16787346452474594 l0.4561709612607956, -0.5973349139094353 0.4457687959074974, -0.41346490383148193 l0.38328859955072403, -0.3156209737062454 0.32474514096975327, -0.35271815955638885 l0.386994369328022, -0.3027108497917652 0.5650702863931656, -0.5032236874103546 l0.40376462042331696, -0.7504253089427948 0.28353486210107803, -0.2482341043651104 l0.2989448606967926, -0.01418770058080554 0.551767386496067, -0.7578474283218384 l0.326196625828743, -0.5148650333285332 0.08246076293289661, -0.11563212610781193 l0.3348565846681595, -0.058410149067640305 0.9114235639572144, 0.33255405724048615 l0.44935766607522964, -0.39997611194849014 -0.16874507069587708, 0.08658665232360363 l0.3185011073946953, -0.5778656154870987 0.3178276866674423, -0.577942468225956 l-0.09029721841216087, 0.006878573331050575 0.27861859649419785, -0.4587835818529129 l-0.369509793817997, -0.039745792746543884 -0.4685048758983612, 0.20681679248809814 l0.18615134060382843, 0.08027816191315651 -0.45325636863708496, 0.024558245204389095 l0.06805835757404566, 0.012132382253184915 -0.0468297628685832, -0.1825190708041191 l1.3044065237045288, 0.5069487169384956 m76.92527189385146, -206.76134552370058 l-1.5439507365226746, -0.29204893857240677 -1.4879412949085236, 0.5392277613282204 l-0.617775171995163, 1.149434745311737 0.1855531707406044, 1.674835979938507 l0.6818379461765289, 1.6071660816669464 0.9347426146268845, 1.6824126243591309 l1.5287475287914276, 1.61873459815979 1.3217437267303467, 1.1371087282896042 l1.0561543703079224, 1.238158866763115 1.2565693259239197, 1.2691283226013184 l0.9830265492200851, 0.8661672472953796 1.0940805822610855, 0.621856190264225 l0.925641730427742, 0.26961542665958405 0.5924001708626747, -0.007364737684838474 l0.640871450304985, 0.2806486003100872 0.6502403318881989, -0.09471696801483631 l0.5563399195671082, 0.16213245689868927 0.4443177580833435, 0.08998075500130653 l0.3482070192694664, 0.15754655003547668 0.6529942899942398, -0.0125077401753515 l0.5329351872205734, 0.2713567763566971 0.47245677560567856, 0.5646026507019997 l0.3768162429332733, -0.06388080306351185 0.4816168174147606, 0.11386722326278687 l0.39078041911125183, 0.05020842421799898 0.4626651853322983, -0.1806863583624363 l0.42083457112312317, 0.056066825054585934 0.4650581628084183, -0.3043951280415058 l0.5745578929781914, -0.5210424214601517 0.4985397309064865, -0.08649706840515137 l0.379447266459465, -0.5293137580156326 0.38107525557279587, -0.29150305315852165 l0.4881307855248451, -0.5265543982386589 0.3700929880142212, -0.7257380336523056 l0.1672024093568325, -0.028727115131914616 0.6463058292865753, -0.49575064331293106 l0.47013506293296814, -0.539076142013073 0.449119471013546, -0.3690336272120476 l0.3045213036239147, -0.8109224587678909 0.34144945442676544, -0.49881361424922943 l0.6372793018817902, -0.11189325712621212 0.23235462605953217, -0.013043801300227642 l0.4277859255671501, -0.3093572147190571 0.24239663034677505, -0.5398175865411758 l0.17194798216223717, -0.009203227236866951 -0.16829095780849457, -0.1396090630441904 l0.33652108162641525, -0.41861724108457565 0.915219634771347, 0.42406830936670303 l-0.45620664954185486, -0.06191333755850792 0.055320486426353455, -0.008061762200668454 l-0.22722668945789337, -0.12336645275354385 0.3116815909743309, -0.5794347822666168 l-0.012886514887213707, 0.03323725424706936 -0.5523628368973732, 0.03115062601864338 l1.2348967790603638, 0.4237060621380806 0.07810212671756744, -0.14641566202044487 l1.245720311999321, 0.34667525440454483 0.0855016428977251, -0.03509300062432885 l-0.19237225875258446, 0.023562046699225903 m-22.65009559923783, 91.70455461513484 l-1.0937117040157318, -0.259280763566494 -1.86444491147995, 0.5080392211675644 l-0.8216043561697006, 0.8890191465616226 0.22108739241957664, 1.2003684043884277 l0.7808965444564819, 1.3735786080360413 1.0885942727327347, 1.5928059816360474 l1.4276374876499176, 1.5541240572929382 1.331915408372879, 1.4378979802131653 l1.1559342592954636, 1.3875970244407654 1.2675197422504425, 1.3500435650348663 l1.0770417749881744, 1.0616091638803482 0.9534536302089691, 0.5955854058265686 l0.7519152760505676, 0.4693354293704033 0.7874906063079834, 0.4011883959174156 l0.7530836760997772, 0.2844039537012577 0.5456364154815674, 0.40156275033950806 l0.1730073057115078, 0.6145739555358887 0.5768835172057152, -0.1099830400198698 l0.3038261830806732, 0.40299445390701294 0.6932610273361206, 0.2754765748977661 l0.40233734995126724, 0.0587410107254982 0.31125057488679886, 0.3711345046758652 l0.27389632537961006, -0.07806547451764345 0.3617812693119049, -0.056281243450939655 l0.36205150187015533, -0.10604859329760075 0.33767063170671463, -0.0005856511415913701 l0.4382871463894844, -0.3161458298563957 0.5353944003582001, -0.18768310546875 l0.35492077469825745, -0.18494950607419014 0.562216155230999, -0.5446862801909447 l0.25858787819743156, -0.2747505158185959 0.4070821776986122, -0.6255048513412476 l0.5108216777443886, 0.39642658084630966 0.5697758495807648, -0.1661711372435093 l0.3269360214471817, -0.2451072633266449 0.3372716158628464, -0.2510269545018673 l0.41862472891807556, -0.6274073570966721 0.5016237124800682, -0.2412155456840992 l0.4227706417441368, -0.4887041077017784 0.35690970718860626, -0.5201300606131554 l0.33613167703151703, -0.6730432063341141 -0.02207430312409997, -0.10057752951979637 l0.4336107522249222, -0.16479209065437317 0.36698535084724426, -0.13650862500071526 l0.34513410180807114, -0.5459997802972794 0.13644084334373474, -0.03051517065614462 l0.9505912661552429, 0.5585023760795593 0.2785329520702362, -0.01895728404633701 l0.12914450839161873, -0.1713566854596138 1.2201790511608124, 0.4469521716237068 l-0.01992668490856886, 0.0641958462074399 -0.025529081467539072, 0.04608553368598223 l-0.06282422225922346, -0.17738884314894676 -0.18156729638576508, 0.1372236292809248 l-0.11423793621361256, -0.01814475515857339 -0.16422994434833527, -0.1092513557523489 l0.3578651696443558, -0.39128173142671585 -0.1418000739067793, -0.04560481756925583 l1.2981511652469635, 0.3857077658176422 -0.2389105223119259, -0.07716972846537828 m-22.367426581913605, 89.53326210961677 l-1.2596651911735535, -0.15709206461906433 -1.4553551375865936, 0.36562491208314896 l-0.7018040120601654, 1.2569616734981537 0.135771157220006, 1.3789857923984528 l0.8383073657751083, 1.345997154712677 1.4696206152439117, 1.3254007697105408 l1.2103256583213806, 1.690228432416916 1.2888480722904205, 1.5830008685588837 l1.421007215976715, 1.359872817993164 0.995226725935936, 1.1919104307889938 l1.0921567678451538, 1.0972312837839127 0.7973895221948624, 0.8666680753231049 l0.8832316845655441, 0.5657892674207687 0.9515715390443802, 0.4869542270898819 l0.4884066805243492, 0.14419488608837128 0.7001718133687973, 0.2604111284017563 l0.4246103763580322, 0.28182564303278923 0.5007845535874367, 0.4918358474969864 l0.3678189218044281, 0.00615039374679327 0.535612441599369, 0.26797931641340256 l0.3257506713271141, 0.2701687067747116 0.40918435901403427, -0.052897920832037926 l0.3504854813218117, 0.010176497744396329 0.23642661049962044, 0.217392910271883 l0.4956192895770073, -0.18611934036016464 0.4762308672070503, -0.23857207968831062 l0.48305828124284744, -0.11786375194787979 0.35688236355781555, -0.550602376461029 l0.5433090031147003, -0.23048939183354378 0.4032924771308899, -0.43979812413454056 l0.4086116701364517, -0.7182059437036514 0.4138558730483055, -0.8297888934612274 l0.4598855599761009, -0.4242612048983574 0.25407005101442337, -0.32375503331422806 l0.24473559111356735, -0.4513120651245117 0.421220101416111, -0.4896194115281105 l0.18842166289687157, -0.09561765007674694 0.35154297947883606, -0.5226247012615204 l0.11192458681762218, -0.02168636303395033 0.3604765236377716, -0.6775720417499542 l0.21478993818163872, -0.23158540949225426 0.2889716811478138, -0.662238821387291 l0.24148477241396904, -0.10499055497348309 0.27503399178385735, -0.4280545935034752 l-0.09821598418056965, -0.12082251720130444 0.2505113370716572, -0.6228509917855263 l0.15312916599214077, 0.05041650030761957 0.1599116064608097, -0.21013762801885605 l-0.1401977799832821, 0.04056534729897976 1.1115460842847824, 0.4709317162632942 l-0.031237772200256586, -0.09859224781394005 -0.14772324822843075, 0.01712638302706182 l0.3948947787284851, -0.4711327701807022 0.4633788391947746, 0.11621787212789059 l0.12232143431901932, -0.22852091118693352 m76.51659036637284, -207.08709256432485 l-1.2718629837036133, -0.24666111916303635 -1.4918680489063263, 0.5955613777041435 l-0.18853772431612015, 0.8920144289731979 0.22063801065087318, 1.3067087531089783 l0.7467459142208099, 1.5260758996009827 1.141584888100624, 1.7044684290885925 l1.3566647469997406, 1.4049853384494781 1.3887925446033478, 1.2570594251155853 l1.2516771256923676, 1.0107635706663132 1.0897547751665115, 0.889105424284935 l0.8542498201131821, 1.2295307219028473 0.8951003849506378, 0.6026645004749298 l0.8951468765735626, 0.6633248180150986 0.7982448488473892, 0.639522597193718 l0.6082072481513023, 0.011108797043561935 0.5685437843203545, 0.522807203233242 l0.42704928666353226, 0.5577900633215904 0.5119651556015015, 0.29678793624043465 l0.532182902097702, 0.2693164348602295 0.4242969676852226, 0.05851163528859615 l0.5028948187828064, 0.24151278659701347 0.4154415428638458, -0.13181076385080814 l0.4925713315606117, -0.03955824300646782 0.311752799898386, -0.15113993547856808 l0.3761858865618706, -0.1004940364509821 0.4669203981757164, -0.16579633578658104 l0.36397743970155716, -0.21470339968800545 0.40698081254959106, -0.16826853156089783 l0.4099123552441597, -0.18328027799725533 0.4973176494240761, -0.4515599086880684 l0.45342668890953064, -0.5798277258872986 0.4827206954360008, -0.3962564095854759 l0.44089678674936295, -0.16131507232785225 0.4111623391509056, -0.33086467534303665 l0.40065981447696686, -0.4311026260256767 0.32344166189432144, -0.30472075566649437 l-0.13326873071491718, -0.23770414292812347 0.5758867040276527, -0.7570197433233261 l0.4747731611132622, -0.1927628368139267 0.3256695345044136, -0.29515819624066353 l0.42038239538669586, -0.4249897599220276 0.28405243530869484, -0.6265664845705032 l0.3327968716621399, -0.48270944505929947 0.3583402559161186, -0.5163794010877609 l0.343996025621891, -0.6211391091346741 0.29937393963336945, -0.5429984256625175 l0.1182030513882637, 0.04024816211313009 -0.037279860116541386, -0.07721774280071259 l0.14807726256549358, -0.12087861075997353 1.1990992724895477, 0.46385567635297775 l0.09847249835729599, -0.019164768746122718 1.3386492431163788, 0.39383266121149063 l0.42751796543598175, -0.3013331815600395 -0.09844871237874031, 0.030430443584918976 l-0.3132670372724533, -0.015192992286756635 0.21878793835639954, 0.001402358029736206 l0.026034978218376637, -0.13142204843461514 -0.08431185036897659, -0.08506235666573048 l1.4018715918064117, 0.1906587928533554 m-22.882810572336894, 91.97000083469902 l-1.3840579986572266, -0.21510092541575432 -1.2470351159572601, 0.284220390021801 l-0.7880361378192902, 0.8932629227638245 -0.0001297399285249412, 1.4752347767353058 l0.5574754998087883, 1.803819090127945 0.7328173518180847, 1.496320217847824 l1.1194324493408203, 1.6284793615341187 1.1782561242580414, 1.0310150682926178 l1.2636257708072662, 1.2275144457817078 1.0318781435489655, 1.3388453423976898 l1.1594618111848831, 1.1622188985347748 0.8066406846046448, 0.9560549259185791 l0.7602551579475403, 0.8947917819023132 0.824415385723114, 0.318492166697979 l0.6215357780456543, 0.6197700276970863 0.6538716703653336, 0.4046943783760071 l0.668763667345047, -0.2650045417249203 0.4528055712580681, 0.5436742678284645 l0.37374701350927353, 0.19992075860500336 0.3540252149105072, 0.2456376701593399 l0.5373826250433922, 0.3741838410496712 0.4214641824364662, 0.41281744837760925 l0.48470109701156616, 0.10367688722908497 0.4519478604197502, -0.094829136505723 l0.351346880197525, 0.02142949728295207 0.3380637615919113, -0.012681762455031276 l0.3750534728169441, -0.16378115862607956 0.5031637474894524, -0.0017000825027935207 l0.44167108833789825, -0.2342250570654869 0.4573414474725723, -0.25679636746644974 l0.47199878841638565, -0.4641586169600487 0.3895508125424385, -0.5416577309370041 l0.47081664204597473, -0.4494282603263855 0.4630979150533676, -0.5348384752869606 l0.12810636311769485, -0.20937157794833183 0.4328588396310806, -0.4582662880420685 l0.01383184571750462, -0.22707464173436165 0.4605128988623619, -0.5946993082761765 l0.536879301071167, 0.015731046441942453 0.43287258595228195, -0.19923096522688866 l0.5171161890029907, -0.4249948263168335 0.1868649758398533, -0.12962477281689644 l0.0509773101657629, -0.28562435880303383 0.32483961433172226, -0.7183836400508881 l0.08258734829723835, -0.23068932816386223 -0.031043672934174538, -0.22449322044849396 l0.7926706969738007, 0.34901898354291916 0.4298534616827965, -0.6646658480167389 l-0.030421505216509104, -0.08764765225350857 1.0579948872327805, 0.4589468613266945 l0.08412310853600502, -0.1114689651876688 -0.053767068311572075, -0.25486862286925316 l-0.47267112880945206, -0.12556089088320732 0.06799028720706701, -0.07960790768265724 l0.058651422150433064, 0.07822178304195404 -0.19847581163048744, -0.1156126894056797 l-0.5889156088232994, -0.11023089289665222 -0.08309941738843918, -0.07404185365885496 m-20.93383222760167, 90.77981289796298 l-1.586037278175354, -0.09836209937930107 -1.381632685661316, 0.5578761547803879 l-0.7298483699560165, 1.0611069947481155 0.2039729431271553, 1.5570177137851715 l0.7448650896549225, 1.3053728640079498 1.338498443365097, 1.3648644089698792 l1.3737846910953522, 1.4606577157974243 1.2132252007722855, 1.3401038944721222 l1.365453153848648, 1.1259372532367706 1.009509563446045, 1.3564647734165192 l0.7645129412412643, 1.1266113072633743 0.776926800608635, 0.7704463601112366 l0.8627695590257645, 0.6147725507616997 0.7378287613391876, 0.810520127415657 l0.4123053327202797, 0.5178449675440788 0.4719278961420059, 0.42075973004102707 l0.49808986485004425, 0.13791103847324848 0.45234009623527527, 0.19177494570612907 l0.5243528261780739, 0.09455690160393715 0.298638679087162, 0.2201496809720993 l0.44772904366254807, -0.1412941887974739 0.3180544078350067, -0.13380211777985096 l0.2686847187578678, -0.051957955583930016 0.3166218474507332, 0.22491896525025368 l0.4962830990552902, -0.21646829321980476 0.5288540944457054, -0.41918784379959106 l0.39767175912857056, -0.26935359463095665 0.35527247935533524, -0.24521414190530777 l0.3012406826019287, -0.13580955564975739 0.43635282665491104, -0.3234679251909256 l0.48307541757822037, -0.3723952919244766 0.3743978962302208, -0.27083149179816246 l0.4091145098209381, -0.4174339771270752 0.5554557591676712, -0.7152597606182098 l0.453265942633152, -0.26864320039749146 0.4745945706963539, -0.5414053797721863 l0.3854220360517502, -0.6858449429273605 0.4166330397129059, -0.5902541428804398 l0.4130668565630913, -0.8021062612533569 0.42986687272787094, -0.38279909640550613 l0.41202109307050705, -0.49892086535692215 0.20609695464372635, -0.6434045732021332 l0.2569916844367981, -0.28394196182489395 0.27678873389959335, -0.7476283609867096 l0.24118246510624886, -0.1493940781801939 0.3751661255955696, -0.5056320875883102 l0.19394299015402794, -0.6894640624523163 0.18537994474172592, -0.07133669685572386 l0.45935124158859253, -0.3480757027864456 1.1563200503587723, 0.48738300800323486 l-0.09902907535433769, -0.06079335231333971 0.3667202591896057, -0.2003326267004013 l-0.3872867301106453, 0.06790853571146727 -0.22900598123669624, 0.023757927119731903 l1.2705469131469727, 0.4922237992286682 -0.2616813965141773, -0.06571702193468809 l1.2883871793746948, 0.4234159365296364 -0.11411892250180244, -0.18552007153630257 l-0.05487455055117607, -0.16636479645967484 0.35852666944265366, -0.27586448937654495 m75.47183629067149, -205.2117067828658 l-1.4092592895030975, -0.14695552177727222 -1.3501101732254028, 0.24670705199241638 l-0.46555619686841965, 0.9857840090990067 -0.06853796541690826, 1.5784052014350891 l1.0777003318071365, 1.3501010835170746 1.2787528336048126, 1.34347602725029 l1.2017150223255157, 1.2974737584590912 1.1913339048624039, 1.695437878370285 l1.156722977757454, 1.2881501019001007 1.340450495481491, 0.801616907119751 l1.098155528306961, 0.7395651936531067 0.894886702299118, 0.7679298520088196 l0.6709642708301544, 0.5210158973932266 0.6686645746231079, 0.5404925346374512 l0.844607874751091, 0.41495244950056076 0.7381893694400787, 0.25172511115670204 l0.6195886433124542, 0.0617117527872324 0.6142201647162437, 0.20173465833067894 l0.5489581450819969, 0.008921282715164125 0.43557923287153244, 0.27055224403738976 l0.36294180899858475, 0.5322588607668877 0.32577428966760635, -0.15496806241571903 l0.36794696003198624, -0.25781285017728806 0.3822745382785797, -0.184567179530859 l0.25330211967229843, -0.1942797563970089 0.41592150926589966, -0.254135150462389 l0.39658568799495697, -0.2068660780787468 0.5984829738736153, -0.5225063860416412 l0.5746187642216682, -0.27290431782603264 0.3857153654098511, -0.18939275294542313 l0.4238821938633919, -0.5481848865747452 0.5668504908680916, -0.4239233210682869 l0.4243861883878708, -0.3781178966164589 0.4478565603494644, -0.3629695996642113 l0.417541079223156, -0.2902563661336899 0.5120513960719109, -0.18411070108413696 l0.38805384188890457, -0.41228123009204865 0.42996086180210114, -0.672609955072403 l0.17289653420448303, -0.0062472798163071275 0.3232397884130478, -0.5618797987699509 l0.2985207177698612, -0.5084823444485664 0.5057894438505173, -0.42771976441144943 l0.33520475029945374, 0.12771670706570148 0.16456851735711098, -0.1462374348193407 l0.10050556622445583, 0.02796863205730915 0.12579960748553276, -0.02273774240165949 l0.5483080819249153, -0.4398368299007416 0.19164945930242538, -0.08425639942288399 l0.24066688492894173, -0.02353545743972063 -0.22904898971319199, -0.030745819676667452 l-0.17412038519978523, -0.04474409390240908 1.153811365365982, 0.38013432174921036 l-0.017298207385465503, -0.21364957094192505 0.4196225106716156, -0.3786645084619522 l1.321253776550293, 0.47591432929039 1.2487191706895828, 0.34760355949401855 m-24.963423811714165, 92.24912390200188 l-1.638874113559723, -0.2664520777761936 -1.46345853805542, 0.4261757805943489 l-0.6035248562693596, 0.9135878086090088 0.037962133064866066, 1.559673696756363 l0.9467247128486633, 1.41744926571846 1.1665929108858109, 1.9083556532859802 l1.4467930793762207, 1.5378883481025696 1.1123088002204895, 1.4432525634765625 l1.3606393337249756, 0.8833587914705276 1.0785261541604996, 1.1860447376966476 l1.025884971022606, 0.8614345639944077 0.8840836584568024, 0.6805815547704697 l1.035669520497322, 0.6836488842964172 0.7312779873609543, 0.3340648487210274 l0.6734500080347061, 0.31590942293405533 2.2169123589992523, -0.7616986334323883 l0.5466022342443466, 0.2972525916993618 0.2515188790857792, 0.2172849141061306 l0.3391650691628456, 0.27655722573399544 0.3200758993625641, 0.3187599405646324 l0.4221232980489731, 0.4766413941979408 0.35285063087940216, -0.09735758416354656 l0.44721297919750214, -0.0021885983005631715 0.4499710351228714, -0.1593419536948204 l0.40860075503587723, -0.0006211079016793519 0.2785857766866684, -0.10697712190449238 l0.3172869235277176, 0.02648923546075821 0.4129491001367569, -0.30563246458768845 l0.4101738706231117, -0.31223567202687263 0.3306511789560318, -0.49345027655363083 l0.28410838916897774, -0.479666106402874 0.33154748380184174, -0.3684038296341896 l0.38764994591474533, -0.3720153868198395 0.3797011077404022, -0.709879994392395 l0.34004610031843185, -0.3212199732661247 0.6083154678344727, -0.5403792858123779 l0.42812101542949677, -0.6771867722272873 0.5523849651217461, -0.4166695475578308 l0.35644784569740295, -0.568741075694561 0.45845571905374527, -0.6425283849239349 l0.3661968931555748, -0.047691529616713524 0.2102557010948658, -0.15946164727210999 l0.2865717187523842, -0.5174586176872253 0.029435474425554276, -0.056836167350411415 l-0.23582980036735535, -0.27065418660640717 0.40967274457216263, -0.14772838912904263 l0.38431499153375626, -0.4199278727173805 0.10443976148962975, 0.07669590879231691 l0.056513636372983456, -0.1322528626769781 -0.08010013960301876, -0.07638596929609776 l0.03262458136305213, -0.06755700800567865 1.189596876502037, 0.3982318937778473 l-0.26874586939811707, 0.0089724495774135 1.2007718533277512, 0.31248288229107857 l-0.18148496747016907, -0.05869837012141943 1.4590029418468475, 0.49428272992372513 m-24.583358709933236, 91.85560559824808 l-1.1535776406526566, -0.21205224096775055 -1.472436785697937, 0.5672116577625275 l-1.0503041744232178, 1.0170026868581772 -0.04116141237318516, 1.245775893330574 l1.0174740850925446, 1.6408297419548035 1.2996996939182281, 1.7279469966888428 l1.452941745519638, 1.6068954765796661 1.3503700494766235, 1.567671149969101 l1.2794436514377594, 1.2118139117956161 1.0399685055017471, 1.0324127972126007 l1.058078184723854, 0.985635370016098 0.8616295456886292, 1.0573983192443848 l0.8300165832042694, 0.6433908641338348 0.783473402261734, 0.6940542906522751 l0.7232702523469925, 0.2067740447819233 0.5709389597177505, -0.150542501360178 l0.3999985381960869, 0.0815547164529562 0.630781352519989, 0.07589440792798996 l0.24258211255073547, 0.2957783453166485 0.19809618592262268, 0.14250430278480053 l0.2964690513908863, 0.17737580463290215 0.35222873091697693, 0.256188977509737 l0.4325741156935692, 0.1858876645565033 0.8749164640903473, -0.9670276194810867 l0.27463337406516075, -0.28502389788627625 0.4596162587404251, -0.2743079327046871 l0.41493605822324753, -0.25223543867468834 0.44546887278556824, -0.171082504093647 l0.4426305368542671, -0.11659882962703705 0.2196941152215004, -0.00967010564636439 l0.4322957247495651, -0.33830054104328156 0.3653160482645035, -0.5807996541261673 l0.3760312870144844, -0.3182373568415642 0.3440055251121521, -0.6289059668779373 l0.3849456086754799, -0.6067343801259995 0.36572910845279694, -0.1816011592745781 l0.512252077460289, -0.8433528989553452 0.40754321962594986, -0.1113637164235115 l0.3978635370731354, -0.5176437646150589 0.36427270621061325, -0.329233855009079 l0.5218299478292465, -0.45935969799757004 -0.11563309468328953, 0.07181795313954353 l0.13484828174114227, -0.14953717589378357 0.3954794257879257, -0.5369312316179276 l0.538393147289753, -0.0965946726500988 0.2673156000673771, -0.1573522947728634 l0.40089696645736694, -0.4591386765241623 0.27563150972127914, -0.40507305413484573 l-0.06730827502906322, 0.07798704318702221 0.20851783454418182, -0.18485216423869133 l-0.1632215455174446, -0.2944559417665005 -0.08284277282655239, 0.05525143817067146 l0.05682157352566719, -0.01283247023820877 -0.261393990367651, -0.16021179035305977 l1.241547167301178, 0.4349260777235031 1.184469535946846, 0.36083217710256577 l1.2878277897834778, 0.5278550460934639 1.28959059715271, 0.39880096912384033 l-0.03556031733751297, 0.03074729349464178 0.4982680454850197, -0.29464341700077057 m74.80051960010314, -208.8517258578213 l-1.6417196393013, -0.22086601704359055 -1.8906235694885254, 0.5000990629196167 l-0.702776312828064, 1.1300591379404068 0.0662563182413578, 1.6522888839244843 l0.746796727180481, 1.6254113614559174 1.0163430869579315, 1.6420195996761322 l1.2962757050991058, 1.4582347869873047 1.090536043047905, 1.122283861041069 l1.1165203154087067, 1.3535910844802856 1.034398004412651, 1.1416591703891754 l1.1095122992992401, 0.7851891219615936 0.8499844372272491, 0.721019059419632 l0.7397819310426712, 0.7849625498056412 0.6272134929895401, 0.6510903686285019 l0.608186200261116, 0.5455488711595535 0.5573371425271034, 0.5467958375811577 l0.5468085780739784, 0.25733694434165955 0.4687298461794853, 0.10349955409765244 l0.42399290949106216, 0.39805062115192413 0.33107392489910126, 0.3294314071536064 l0.40952805429697037, 0.21013664081692696 0.37511397153139114, 0.08697310462594032 l0.39523638784885406, 0.2045157551765442 0.5398926511406898, 0.17767291516065598 l0.3737064078450203, -0.14986111782491207 0.36557599902153015, -0.19942525774240494 l0.3583997115492821, -0.23051345720887184 0.4398657754063606, -0.17058227211236954 l0.32562702894210815, -0.3812529519200325 0.4717351123690605, -0.33979449421167374 l0.282707754522562, -0.33524271100759506 0.4335431009531021, -0.5084685981273651 l0.39233773946762085, -0.5235901102423668 -0.12508194893598557, -0.3943980485200882 l0.4136675223708153, -0.4221780598163605 0.39191901683807373, -0.3598538786172867 l0.3632381185889244, -0.3403545171022415 0.5440065637230873, -0.5341197550296783 l0.21762792021036148, -0.25728609412908554 0.4906339570879936, -0.5372712761163712 l0.3117394633591175, -0.6598792970180511 0.4034031555056572, -0.6245601177215576 l0.3528286889195442, -0.3416714444756508 0.4507468268275261, -0.5115984380245209 l0.29028359800577164, -0.024067414924502373 0.17598796635866165, -0.04552209284156561 l0.08258972316980362, -0.15616689808666706 0.15281240455806255, -0.5078431218862534 l0.31394630670547485, -0.5925648659467697 0.09168329648673534, -0.05157944746315479 l1.046728789806366, 0.5326534807682037 0.004978740471415222, 0.011973789660260081 l1.2247991561889648, 0.37142228335142136 0.32462626695632935, -0.01848555519245565 l0.07706271018832922, -0.16593649983406067 -0.09131318889558315, -0.09286108426749706 l1.2975890934467316, 0.4745278134942055 0.4667804390192032, -0.275889839977026 l1.348951905965805, 0.4333709180355072 m-23.231283473141957, 91.77603627787903 l-1.2440615147352219, -0.3273516148328781 -1.7315222322940826, 0.568319596350193 l-0.8027589321136475, 1.1721032857894897 0.07862632162868977, 1.4136816561222076 l0.8123448491096497, 1.6777342557907104 1.1979899555444717, 1.4646418392658234 l1.283884346485138, 1.7035400867462158 1.5019017457962036, 1.1910263448953629 l0.9969668090343475, 1.3691139221191406 1.3008812069892883, 0.946367084980011 l1.0609541088342667, 0.9798844158649445 0.9750691801309586, 0.6604612618684769 l0.7843154668807983, 0.08136220276355743 0.7578132301568985, 0.35760823637247086 l0.6358955055475235, 0.23707114160060883 0.5690254271030426, 0.32883524894714355 l0.4744978994131088, 0.1882607489824295 0.4255202040076256, 0.21306417882442474 l0.5053399130702019, 0.12631298042833805 0.49332723021507263, 0.06670511793345213 l0.24755991995334625, 0.10755523107945919 0.30455831438302994, 0.17208963632583618 l0.378267802298069, 0.29379216954112053 0.2969798073172569, -0.027300100773572922 l0.36593176424503326, -0.41097987443208694 0.4386640340089798, -0.43593257665634155 l0.3989386558532715, 0.0028227883740328252 0.38170523941516876, -0.2339617908000946 l0.4874872416257858, -0.3114721365272999 0.3286617621779442, -0.2291976474225521 l0.341721847653389, -0.258650965988636 0.45921366661787033, -0.43229173868894577 l0.3525032475590706, -0.2807765081524849 0.45345984399318695, -0.604521669447422 l0.41288744658231735, -0.6103234365582466 0.5395117774605751, -0.5441790074110031 l0.42001448571681976, -0.6741636246442795 0.3747880086302757, -0.24410830810666084 l0.2119612693786621, -0.13778170570731163 0.435737743973732, -0.7547568529844284 l0.4612874612212181, -0.23343032225966454 0.23105120286345482, -0.7272511720657349 l0.21405722945928574, -0.2825288660824299 0.3697687014937401, -0.45632701367139816 l0.2009262703359127, -0.4386267438530922 0.04743059631437063, -0.20197642967104912 l0.2295350655913353, -0.653923749923706 0.3711550310254097, -0.37260107696056366 l0.1911710388958454, -0.05248404107987881 0.23527555167675018, -0.1497946958988905 l1.1336466670036316, 0.38124505430459976 0.01371675985865295, -0.11354010552167892 l0.11316769756376743, -0.11032164096832275 -0.1955655962228775, -0.04806655924767256 l1.297784447669983, 0.4087422043085098 -0.31780172139406204, -0.03856551833450794 l-0.13174458406865597, -0.006830078782513738 m-21.938104006112553, 94.17883274407359 l-1.5237106382846832, -0.20072434097528458 -1.4841431379318237, 0.5148885026574135 l-0.8279622346162796, 1.2078401446342468 0.160039272159338, 1.2633509933948517 l0.5724206939339638, 1.6057553887367249 1.2350893020629883, 1.359761357307434 l1.3147224485874176, 1.6500425338745117 1.2319235503673553, 1.6733896732330322 l0.970584973692894, 1.2405525892972946 1.0322383791208267, 1.0131871700286865 l1.271471232175827, 0.7782292366027832 1.1507682502269745, 0.9025611728429794 l0.7904046028852463, 0.9672354161739349 0.83694227039814, 0.3988838568329811 l0.5012034252285957, 0.23299138993024826 0.6666076183319092, 0.28701167553663254 l0.46295851469039917, 0.1644158735871315 0.4854918271303177, 0.28512194752693176 l1.7734049260616302, -0.7452848553657532 0.5907608568668365, -0.0394522026181221 l0.45577965676784515, -0.030910654459148645 0.30527273193001747, 0.41034627705812454 l0.527384914457798, -0.04452559631317854 0.3486870974302292, 0.010281017748638988 l0.5235541239380836, -0.1755024865269661 0.32580554485321045, -0.22067071869969368 l0.34354738891124725, -0.3877909481525421 0.26281774044036865, -0.6870287656784058 l0.3666726127266884, -0.02424475969746709 0.49413297325372696, -0.585283450782299 l0.4264708235859871, -0.554865337908268 0.3062483109533787, -0.23530498147010803 l0.4302739351987839, -0.4533584415912628 0.4017333313822746, -0.3342980518937111 l0.3982600197196007, -0.450989194214344 -0.08707375265657902, -0.3336668759584427 l0.5122643336653709, -0.5872166529297829 0.4334540292620659, -0.26053549721837044 l0.30584027990698814, -0.6745172291994095 0.36357756704092026, -0.6985335052013397 l0.3891805559396744, -0.5322786048054695 0.3937607631087303, -0.5079877004027367 l0.3317612037062645, -0.1561878900974989 0.3698159009218216, -0.6111389026045799 l0.37351094186306, -0.40461719036102295 0.13351318426430225, -0.02435937523841858 l0.18552379682660103, 0.20768120884895325 -0.12657946906983852, -0.06217516493052244 l0.030135365668684244, -0.15839895233511925 0.1985066942870617, -0.11521419510245323 l-0.15242702327668667, -0.011637056013569236 -0.39122991263866425, -0.1159642543643713 l-0.06492495071142912, -0.0661668786779046 -0.27725255116820335, -0.0465692114084959 l0.42387690395116806, -0.44925566762685776 1.1794117838144302, 0.4681481048464775 l-0.3447842597961426, -0.10274125263094902 -0.030090634245425463, 0.02185319783166051 l-0.1514857169240713, 0.13861872255802155 -0.5826890841126442, 0.020082397386431694 m78.09068702859804, -205.64006520347903 l-1.2941248714923859, -0.167169738560915 -1.2092041224241257, 0.5553194507956505 l-0.7874101400375366, 1.0660501569509506 0.34415505826473236, 1.5767739713191986 l0.7802759110927582, 1.4326317608356476 1.0980138182640076, 1.428673267364502 l1.312725991010666, 1.3515891134738922 1.3620655238628387, 1.4622850716114044 l1.0780832916498184, 1.4993861317634583 1.141626462340355, 1.0452818870544434 l1.2554346024990082, 1.022338941693306 0.9948848187923431, 0.6610310077667236 l0.7107745856046677, 0.5607129633426666 0.7244011759757996, 0.6105100736021996 l0.8418585360050201, 0.47028791159391403 0.6830442696809769, 0.3075215220451355 l0.44251512736082077, 0.006542301853187382 0.4853812977671623, -0.15753697603940964 l0.311933197081089, 0.1884949579834938 0.4348122701048851, 0.15575610101222992 l0.341871976852417, 0.11603370308876038 1.3808293640613556, -0.516599752008915 l0.46868905425071716, -0.4034370556473732 0.3630641847848892, 0.025091897696256638 l0.25526175275444984, -0.22672748193144798 0.312020406126976, -0.4907478019595146 l0.4199882596731186, -0.25939248502254486 0.22481774911284447, -0.23095887154340744 l0.30662618577480316, 0.03614428453147411 0.5278514325618744, -0.36561116576194763 l0.6216597184538841, -0.23022040724754333 0.3925648704171181, -0.37367112934589386 l0.40766850113868713, -0.6113111227750778 0.12059713713824749, -0.26052139699459076 l0.3899093344807625, -0.3090443089604378 0.4149491712450981, -0.253846887499094 l0.6367911398410797, -0.1370362751185894 0.45027516782283783, -0.42118601500988007 l0.27770884335041046, -0.6253711134195328 0.41224420070648193, -0.5149208381772041 l0.5227432772517204, -0.33837199211120605 0.37761304527521133, -0.6849460303783417 l0.07170654833316803, -0.23508599027991295 0.3190629929304123, -0.3187362849712372 l0.2490222081542015, -0.462554432451725 -0.03838187316432595, -0.33113256096839905 l-0.41866235435009, 0.04776697140187025 0.0640996778383851, -0.2354184351861477 l0.3420395404100418, -0.4454284533858299 0.2517884410917759, -0.18840337172150612 l0.4244334250688553, -0.30668435618281364 1.1334920674562454, 0.4193853586912155 l0.05390415899455547, 0.017236436251550913 1.3077729940414429, 0.441281720995903 l0.2010476030409336, -0.1838362216949463 -0.18414106220006943, -0.1879296638071537 l-0.20937057211995125, -0.17491186037659645 -0.19417589530348778, -0.20726626738905907 l-0.45280370861291885, 0.1022171601653099 -0.20929276943206787, 0.048454487696290016 l0.08556704968214035, -0.1057658065110445 m-20.579539904138073, 93.9574643780361 l-1.4621128141880035, -0.18860645592212677 -1.658051460981369, 0.5480415746569633 l-0.5910266935825348, 1.1562007665634155 0.06727918051183224, 1.324409693479538 l0.8862410485744476, 1.4299219846725464 1.2922823429107666, 1.7294171452522278 l1.2632659077644348, 1.647629588842392 1.3879580795764923, 1.0970181226730347 l1.207587942481041, 1.1985238641500473 1.1979198455810547, 1.2161906063556671 l0.9112341701984406, 1.1042893677949905 0.9640505164861679, 0.8278913050889969 l0.8193755149841309, 0.5039288476109505 0.6418599933385849, 0.36733832210302353 l0.7284896075725555, 0.4357319325208664 0.4436466470360756, 0.41651517152786255 l0.6054506823420525, 0.030564814805984497 0.3538641333580017, 0.015803819987922907 l0.569571778178215, 0.16128206625580788 0.46216849237680435, 0.35750359296798706 l0.4739084839820862, 0.49051985144615173 0.23565059527754784, -0.19948575645685196 l0.35182978957891464, -0.30507316812872887 0.3850780799984932, -0.08762659505009651 l0.3040219284594059, -0.0438038632273674 0.4017304256558418, -0.05234898533672094 l0.36787260323762894, -0.11094299145042896 0.4601065441966057, -0.08097028359770775 l0.412447489798069, -0.120706707239151 0.4018770903348923, -0.32506559044122696 l0.3390780836343765, -0.3902669623494148 0.5116197839379311, -0.6742613762617111 l0.3855752572417259, -0.4519747942686081 0.4406561702489853, -0.6059915572404861 l0.3485428914427757, -0.44505175203084946 0.5094427242875099, -0.02546310657635331 l0.46526335179805756, -0.4757736623287201 0.2241448499262333, 0.001362343755317852 l0.21215636283159256, -0.23989498615264893 0.21163325756788254, 0.0635765865445137 l0.3409947454929352, -0.5825063213706017 0.29713159427046776, -0.5280207470059395 l0.3799174353480339, -0.4689597710967064 0.3109011799097061, -0.3536846861243248 l0.07560869213193655, -0.09605810977518559 0.3354283422231674, -0.46145033091306686 l-0.21359644830226898, -0.16967134550213814 -0.16760537400841713, 0.00458141730632633 l-0.4711269214749336, 0.004203787248115987 -0.23445824161171913, 0.01993430545553565 l0.09134598076343536, -0.36835238337516785 0.012868179474025965, 0.007317329873330891 l-0.19914556294679642, 0.002711268898565322 0.23808391764760017, -0.04948320332914591 l-0.5129114538431168, -0.24038182571530342 1.202048659324646, 0.4315055161714554 l-0.11822296306490898, 0.05397810600697994 0.11883138678967953, -0.10465826839208603 l-0.17876408994197845, -0.09632937610149384 m-21.803188531193882, 92.24060052380082 l-1.6542686522006989, -0.1481008343398571 -1.4896516501903534, 0.4063941538333893 l-0.6757959723472595, 1.101350486278534 0.48347465693950653, 1.1793524026870728 l0.7240094989538193, 1.2004244327545166 1.2102211266756058, 1.4999264478683472 l1.3496118783950806, 1.5702250599861145 1.6031904518604279, 1.3231980800628662 l1.300884187221527, 1.311057060956955 1.0039132088422775, 1.2525062263011932 l1.0892954468727112, 1.2101254612207413 1.1303730309009552, 0.22550487890839577 l0.7186423242092133, 0.6977009028196335 0.6800843775272369, 0.34334108233451843 l0.7568487524986267, 0.3035750053822994 0.7325828075408936, 0.25174928829073906 l0.37314504384994507, 0.5062061175704002 0.5315909907221794, -0.004558195360004902 l0.2174590341746807, 0.29888998717069626 0.4667701944708824, 0.29049623757600784 l0.26207106187939644, -0.09207121096551418 0.3672666847705841, -0.10731684975326061 l0.5208037048578262, 0.02268692245706916 0.4334193468093872, -0.03403777023777366 l0.37285666912794113, -0.4235081374645233 0.3486761450767517, -0.0293607241474092 l0.40780503302812576, -0.3712940216064453 0.45955415815114975, -0.24979369714856148 l0.44220440089702606, -0.5086024478077888 0.3847269341349602, -0.703776478767395 l0.4714447259902954, -0.29022136703133583 0.47365736216306686, -0.31212713569402695 l0.4747358709573746, -0.46496301889419556 0.4293641820549965, -0.25373850017786026 l0.6046627834439278, -0.5883852764964104 0.42304281145334244, -0.47106627374887466 l0.34033410251140594, -0.1758616417646408 0.4614924266934395, -0.6061461195349693 l0.3290362283587456, -0.6350434571504593 0.11094125919044018, -0.26021460071206093 l0.32386239618062973, -0.2692648209631443 0.05602498073130846, -0.12940448708832264 l0.8956088870763779, 0.4187999665737152 -0.19336136057972908, -0.05564646329730749 l0.3378104418516159, -0.34139741212129593 0.481664203107357, -0.6217207759618759 l-0.1588776707649231, -0.24303510785102844 0.261605829000473, 0.09902522899210453 l1.1298730224370956, 0.3912299871444702 -0.04588542506098747, 0.038935786578804255 l1.0745812207460403, 0.31459078192710876 -0.22885337471961975, 0.0465752137824893 l0.1211254671216011, -0.13167517259716988 0.22694095969200134, -0.05650011822581291 l-0.18605031073093414, 0.034323243889957666 1.3875868916511536, 0.34379858523607254 l-0.2852810360491276, -0.15111488290131092 -0.360519178211689, -0.023628731723874807 l1.413891315460205, 0.3325280547142029 -0.03353432985022664, 0.15533209778368473 m76.06110463297227, -208.54602944804356 l-1.6218531131744385, -0.24962002411484718 -1.4791451394557953, 0.6506635993719101 l-1.088627576828003, 1.225353255867958 -0.2222425676882267, 1.5179553627967834 l1.0628093779087067, 1.5139278769493103 1.0633796453475952, 1.6069015860557556 l1.2935437262058258, 1.4952093362808228 1.3102246820926666, 1.081208512187004 l1.1641627550125122, 1.3253121078014374 1.0553548485040665, 0.892769992351532 l1.0198414325714111, 0.852334126830101 1.0128650069236755, 0.8808896690607071 l0.9265976399183273, 0.4200949892401695 0.8517267554998398, 0.4285186156630516 l0.8662108331918716, 0.34868940711021423 0.6143169477581978, 0.3490210324525833 l0.5024750530719757, 0.24955065920948982 0.4504738375544548, 0.3885769844055176 l1.516975313425064, -0.7943853735923767 0.401143915951252, -0.09631955996155739 l0.43102167546749115, 0.0323063600808382 0.35834450274705887, 0.28267141431570053 l0.40600549429655075, 0.1633697748184204 0.27818305417895317, 0.12432859279215336 l0.29225101694464684, -0.19017616286873817 0.40758054703474045, -0.26477156206965446 l0.4556995630264282, -0.36361124366521835 0.39228271692991257, -0.08522560819983482 l0.42587418109178543, -0.29050668701529503 0.32803311944007874, -0.43378233909606934 l0.5039320886135101, -0.422525554895401 0.4919910803437233, -0.3246680274605751 l0.2101060003042221, -0.40652159601449966 0.37436503916978836, -0.2416684478521347 l0.5012784898281097, -0.43617330491542816 0.5206748098134995, -0.6510993093252182 l0.5614956840872765, -0.5383120104670525 0.44844161719083786, -0.43409455567598343 l0.4377327114343643, -0.3615681454539299 0.541040413081646, -0.5261700600385666 l0.32463498413562775, -0.6158934533596039 0.15916120260953903, -0.13764231465756893 l0.5625667050480843, -0.5322441086173058 0.26969412341713905, -0.03736340440809727 l0.18002064898610115, -0.13308415189385414 0.24651551619172096, 0.005803924868814647 l-0.1051976066082716, -0.05151920486241579 0.008170264190994203, 0.014674942940473557 l0.06997730117291212, -0.07198189850896597 -0.6943657994270325, 0.03395439591258764 l-0.30099857598543167, 0.12340877205133438 1.0710552334785461, 0.45278556644916534 l1.1619015038013458, 0.40212608873844147 0.15845976769924164, -0.013641209807246923 l-0.026470019947737455, -0.0418812595307827 0.2912867069244385, 0.012817546958103776 l-0.12405682355165482, -0.11064357124269009 1.3012519478797913, 0.4699160158634186 l0.05944444797933102, -0.06855944637209177 -0.028146132826805115, -0.04261544905602932 l-0.6718333810567856, 0.08926562964916229 m-22.05116492768866, 91.66458707128186 l-1.6100913286209106, -0.04252691753208637 -1.7494979500770569, 0.5035242810845375 l-0.7350088655948639, 0.9299886971712112 -0.002281300403410569, 1.560874730348587 l0.8189960569143295, 1.5458711981773376 0.9981811791658401, 1.8138425052165985 l1.317523717880249, 1.5600726008415222 1.3498999178409576, 1.5649929642677307 l1.3524916768074036, 0.8671797811985016 0.905514732003212, 0.9136473387479782 l1.1811212450265884, 0.9711134433746338 1.0644515603780746, 0.4165278375148773 l0.9290099889039993, 0.33015742897987366 0.6942515820264816, 0.3177167475223541 l0.7879796624183655, 0.5706989765167236 0.6985761970281601, 0.32031185925006866 l0.42190544307231903, 0.3376752883195877 0.5478698387742043, 0.14817999675869942 l0.5430540442466736, -0.011170101352036 0.4512465000152588, 0.13077647425234318 l0.37523943930864334, 0.02755437744781375 0.265402439981699, 0.14599235728383064 l0.30852776020765305, -0.05448583047837019 0.8771538734436035, -0.6902916729450226 l0.342605821788311, -0.0411294586956501 0.2059105597436428, -0.3233860805630684 l0.4172283411026001, 0.022867622319608927 0.4590243846178055, -0.22015776485204697 l0.32761838287115097, -0.29710251837968826 0.44667690992355347, -0.2521958760917187 l0.3304477035999298, -0.415259450674057 0.41303329169750214, -0.5791954696178436 l0.5932899937033653, -0.8070854842662811 0.4621708020567894, -0.48704102635383606 l0.36031071096658707, -0.42096562683582306 0.3988354653120041, -0.44817037880420685 l0.37792444229125977, -0.4467729479074478 0.06380138918757439, -0.3137368708848953 l-0.020622755400836468, -0.2987532317638397 0.39991237223148346, -0.5546123161911964 l0.32590247690677643, -0.138695128262043 0.32537922263145447, -0.5837814882397652 l0.15621143393218517, -0.015216077445074916 0.9578254818916321, 0.3672891855239868 l0.2603905275464058, -0.19378874450922012 -0.1209857128560543, -0.1611308567225933 l0.1420753076672554, 0.08699590340256691 0.22801969200372696, -0.08880486711859703 l0.9578908234834671, 0.3727703168988228 -0.09663605131208897, -0.06505911704152822 l-0.13423155061900616, -0.20151684060692787 -0.17001889646053314, 0.043078106828033924 l0.3896423429250717, -0.4978927969932556 -0.22722814232110977, -0.14052174054086208 l1.167282611131668, 0.45914173126220703 -0.006712882313877344, -0.27194492518901825 l-0.08810833096504211, 0.038338431622833014 m-23.058532451977953, 92.74534448049963 l-1.2941502034664154, -0.2728642150759697 -1.7122577130794525, 0.5527911335229874 l-0.6378019601106644, 1.0405956953763962 0.24261189624667168, 0.9314759075641632 l0.975237712264061, 1.489436775445938 1.0485143959522247, 1.647142767906189 l1.6259418427944183, 1.428469866514206 1.2836654484272003, 1.196799948811531 l1.3937513530254364, 1.0470599681138992 1.009746640920639, 0.9801045060157776 l1.0851263999938965, 1.0583003610372543 0.9776613861322403, 0.5578958615660667 l0.7357554882764816, 0.5164102464914322 0.5365064740180969, 0.5359980463981628 l0.6360078603029251, 0.9479771554470062 0.715218111872673, 0.1278384868055582 l0.7242830097675323, -0.15814531594514847 0.3775790333747864, 0.1020154356956482 l0.17181847244501114, 0.2705877088010311 0.3442830219864845, 0.12776310555636883 l0.34683525562286377, 0.19163526594638824 0.43457619845867157, -0.040453230030834675 l0.26752233505249023, 0.3135629743337631 0.29021192342042923, -0.06956039927899837 l0.33025845885276794, -0.3260570392012596 0.3305106610059738, 0.012905107578262687 l0.2708488516509533, 0.07219682913273573 0.38230426609516144, 0.10992047376930714 l0.5030805990099907, -0.29260165989398956 0.3721226006746292, -0.3689159080386162 l0.5378923937678337, -0.3511514514684677 0.40131106972694397, -0.4387874901294708 l0.4374926909804344, -0.3867543116211891 0.09518924169242382, -0.17708368599414825 l0.5178810656070709, -0.3059854172170162 0.23729782551527023, -0.1604577712714672 l0.23150593042373657, -0.058052847161889076 0.48292968422174454, -0.4255877062678337 l0.21579455584287643, 0.12416484765708447 0.24903681129217148, -0.46265382319688797 l0.41437532752752304, -0.6355220079421997 0.08051268756389618, -0.08824937976896763 l0.3781488537788391, -0.3249688819050789 0.10153817944228649, -0.13893106020987034 l0.8673705905675888, 0.3554850071668625 -0.0761221069842577, -0.1077785063534975 l0.3826507553458214, -0.49539852887392044 0.0796241033822298, -0.07035764399915934 l-0.03643381409347057, -0.03092347178608179 -0.09372707456350327, 0.17305279150605202 l0.4128517210483551, -0.5669601261615753 0.30790386721491814, -0.6569348275661469 l1.052708849310875, 0.47978825867176056 1.268022507429123, 0.4238232597708702 l0.23696191608905792, 0.07609054446220398 -0.38071606308221817, 0.02255922183394432 l0.032152857165783644, -0.04373100586235523 0.3162669390439987, -0.13120527379214764 l1.2045148760080338, 0.3882180154323578 1.232009157538414, 0.3388684242963791 l-0.18415242433547974, 0.03803763072937727 " fill="none" stroke="black" stroke-width="1" /></svg>