<?xml version="1.0" encoding="utf-8" ?>
<svg baseProfile="full" height="65.27890423079953" version="1.1" width="76.52675038669258" xmlns="http://www.w3.org/2000/svg" xmlns:ev="http://www.w3.org/2001/xml-events" xmlns:xlink="http://www.w3.org/1999/xlink"><defs /><rect fill="white" height="65.27890423079953" width="76.52675038669258" x="0" y="0" /><path d="M28.554473146796227, 25.29095144942403 m-1.4724691212177277, -0.2909514494240284 l-1.5179648995399475, 0.5552371218800545 -0.5640391260385513, 1.1662372201681137 l0.44539328664541245, 1.4653410017490387 0.9276281297206879, 1.279432773590088 l1.2979955971240997, 1.5177328884601593 1.4182031154632568, 1.4516589045524597 l1.6142462193965912, 1.3285921514034271 1.0951541364192963, 1.1181560158729553 l1.2746967375278473, 1.186424121260643 1.002846360206604, 1.0885974019765854 l0.9467121213674545, 0.7658788561820984 0.627787783741951, 0.6708037108182907 l0.6892454624176025, 0.34849390387535095 0.7540169358253479, 0.5336495488882065 l0.6243501976132393, 0.2825327031314373 0.5643804743885994, 0.2123923972249031 l0.44023890048265457, 0.2441178262233734 0.5494692549109459, -0.17697032541036606 l0.36744121462106705, 0.08280804380774498 0.35578474402427673, -0.10098477825522423 l0.23331386968493462, 0.09385979734361172 0.4602651670575142, 0.045621972531080246 l0.33548668026924133, 0.08378265425562859 0.3402780368924141, 0.03550831926986575 l0.4251357913017273, -0.1996348612010479 0.2593092992901802, -0.17751764506101608 l0.43200716376304626, -0.1462278701364994 0.43138500303030014, -0.2940942160785198 l0.361875556409359, 0.07524096872657537 0.49341604113578796, -0.12222189456224442 l0.39403337985277176, -0.3216470032930374 0.424540638923645, -0.36233361810445786 l0.376117080450058, -0.3291689604520798 0.26444388553500175, -0.1346233580261469 l0.47881457954645157, -0.5353573337197304 0.4861031100153923, -0.39260249584913254 l0.32515380531549454, -0.5760789290070534 0.4657727852463722, -0.4573182761669159 l0.4478582739830017, 0.13802668079733849 0.49342893064022064, -0.5122247338294983 l0.27711065486073494, -0.14259662479162216 -0.11252657510340214, -0.055379513651132584 l0.4264068603515625, -0.011789393611252308 0.1356961950659752, -0.7059346139431 l0.3684183582663536, -0.46896934509277344 0.008992822840809822, -0.013995725894346833 l0.06742625962942839, -0.04825982730835676 -0.24713238701224327, -0.15804585069417953 l-0.08498408831655979, -0.04905326757580042 -0.19736208021640778, -0.0901402160525322 l0.09534106589853764, -0.05622624885290861 0.0741482712328434, -0.048129973001778126 l-0.44866178184747696, -0.08603292517364025 1.0451940447092056, 0.46370744705200195 l-0.12273459695279598, -0.3062807023525238 -0.32072383910417557, -0.2280227094888687 l1.2936626374721527, 0.3264400362968445 1.3441488146781921, 0.47426559031009674 " fill="none" stroke="black" stroke-width="1" /></svg>