<?xml version="1.0" encoding="utf-8" ?>
<svg baseProfile="full" height="177.09295209497213" version="1.1" width="151.8244891805807" xmlns="http://www.w3.org/2000/svg" xmlns:ev="http://www.w3.org/2001/xml-events" xmlns:xlink="http://www.w3.org/1999/xlink"><defs /><rect fill="white" height="177.09295209497213" width="151.8244891805807" x="0" y="0" /><path d="M126.82448918058071, 84.35178577899933 m-1.5046246349811554, -3.348110616207123 l-2.3788778483867645, -5.170297622680664 -2.0713841915130615, -4.59919661283493 l-2.000938653945923, -4.247595965862274 -2.1131712198257446, -4.033742845058441 l-2.426932156085968, -4.0100544691085815 -2.422650307416916, -3.8739582896232605 l-2.6404187083244324, -3.9409905672073364 -2.961277663707733, -3.900005519390106 l-3.085603415966034, -3.567684292793274 -3.28416109085083, -3.4792593121528625 l-3.4739890694618225, -3.318222463130951 -3.733943998813629, -3.0814823508262634 l-4.098916947841644, -2.80812531709671 -4.3625834584236145, -2.3649585247039795 l-4.7405752539634705, -1.9253529608249664 -4.990119636058807, -1.267109215259552 l-5.3075456619262695, -0.41563883423805237 -5.734050869941711, 0.8472120761871338 l-5.399031043052673, 2.3783770203590393 -4.655241370201111, 3.871728479862213 l-3.597632944583893, 5.160367488861084 -2.168242037296295, 5.867425799369812 l-0.6824763119220734, 6.09485924243927 0.6656689196825027, 5.936328768730164 l2.019380033016205, 5.503637194633484 3.182942271232605, 5.205058455467224 l3.776046931743622, 4.644770622253418 4.306727051734924, 4.354569613933563 l4.56397145986557, 3.945643901824951 5.234208703041077, 3.5363471508026123 l5.48704981803894, 2.840697467327118 6.10210120677948, 2.109418362379074 l6.659969091415405, 1.2641216814517975 6.722474694252014, 0.32482296228408813 l6.773028373718262, -0.7878431677818298 6.2549275159835815, -2.002505362033844 l5.598517656326294, -3.434862792491913 4.478650987148285, -4.798499047756195 l3.0238497257232666, -5.614668130874634 1.4318817853927612, -5.939130783081055 l-0.0669361837208271, -5.969951748847961 -1.7003025114536285, -5.613430142402649 l-3.5304197669029236, -5.164991617202759 -4.96768057346344, -4.194654822349548 l-6.063094139099121, -2.9676973819732666 -6.651164293289185, -1.5386711061000824 l-6.996974349021912, -0.38847852498292923 -4.529373943805695, 0.31365666538476944 l-5.887230038642883, 1.1697107553482056 -3.533143401145935, 1.535821259021759 l-4.601846635341644, 2.626016139984131 -4.558579325675964, 3.2685086131095886 l-3.5671186447143555, 3.384433686733246 -3.2729771733283997, 3.7161776423454285 l-2.5784358382225037, 3.705621361732483 -2.1020671725273132, 3.911401331424713 l-1.5814583003520966, 4.3230366706848145 -0.877750962972641, 4.441042840480804 l-0.023604505695402622, 4.414986073970795 0.6295634806156158, 2.6081258058547974 l2.006884664297104, 3.9161697030067444 2.3328401148319244, 2.248878628015518 l4.748201072216034, 2.959635555744171 5.966956615447998, 2.352159023284912 l6.442869305610657, 1.4092008769512177 6.9244831800460815, 0.5659602954983711 l6.469646692276001, -0.6360143423080444 6.054734587669373, -1.908729374408722 l5.3510648012161255, -3.362426459789276 4.137632846832275, -4.446796178817749 l2.4705149233341217, -5.076141357421875 0.76176717877388, -5.643022656440735 l-1.1148830503225327, -5.343012809753418 -3.404887318611145, -5.164989233016968 l-5.15727162361145, -3.837050497531891 -6.440017223358154, -2.4303072690963745 l-7.217419743537903, -0.9933411329984665 -7.467399835586548, 0.32821349799633026 l-7.117754220962524, 1.2872925400733948 -3.998344838619232, 1.5627795457839966 l-4.764365553855896, 2.6859012246131897 -4.6281081438064575, 3.3212748169898987 l-4.23998236656189, 3.5751211643218994 -3.7609919905662537, 3.6871200799942017 l-3.2760319113731384, 3.6621591448783875 -3.067527413368225, 3.7979891896247864 l-2.7776309847831726, 3.653508424758911 -2.747063636779785, 4.098906517028809 l-2.2475023567676544, 3.700394332408905 -2.2831887006759644, 4.07757043838501 l-2.058715671300888, 4.245301783084869 -1.8062245845794678, 4.31417316198349 l-1.5083684027194977, 4.619821012020111 -1.01102776825428, 5.0157630443573 l-0.27734486386179924, 5.075513124465942 0.6859972327947617, 5.079551935195923 l1.739104688167572, 5.040678977966309 2.6860660314559937, 4.687593877315521 l3.529162108898163, 4.37042236328125 4.137077629566193, 4.140345454216003 l4.8235127329826355, 3.7952685356140137 5.31473696231842, 3.111985921859741 l5.85757315158844, 2.373620420694351 6.068155765533447, 1.5636681020259857 l6.255876421928406, 0.722300186753273 6.263993978500366, -0.12579151429235935 l6.0237932205200195, -1.188773289322853 5.96704363822937, -2.5108709931373596 l5.240476131439209, -3.784935176372528 4.046254754066467, -4.676322638988495 l2.757919728755951, -5.219323635101318 1.4974486827850342, -5.710195302963257 l-0.0014369894051924348, -5.9594422578811646 -1.6393621265888214, -5.872488617897034 l-3.137066960334778, -5.2283793687820435 -4.5596712827682495, -4.491085112094879 l-5.37625253200531, -3.3402979373931885 -6.2638795375823975, -2.2678066790103912 l-6.682801842689514, -0.9916113317012787 -6.928194761276245, 0.04752971697598696 l-6.633507013320923, 1.052914783358574 -6.586343050003052, 1.843620240688324 l-6.072773337364197, 2.2816382348537445 -5.020418167114258, 2.500322461128235 l-4.5942622423172, 2.8177720308303833 -4.409266710281372, 3.0685943365097046 l-4.122364819049835, 3.1949231028556824 -3.973037898540497, 3.2782378792762756 " fill="none" stroke="black" stroke-width="1" /></svg>