<?xml version="1.0" encoding="utf-8" ?>
<svg baseProfile="full" height="98.99216257967055" version="1.1" width="97.94977686367929" xmlns="http://www.w3.org/2000/svg" xmlns:ev="http://www.w3.org/2001/xml-events" xmlns:xlink="http://www.w3.org/1999/xlink"><defs /><rect fill="white" height="98.99216257967055" width="97.94977686367929" x="0" y="0" /><path d="M25, 43.6471351608634 m10.423864126205444, -3.242979943752289 l6.022677421569824, -1.0423864424228668 6.485959887504578, -0.11582071892917156 l6.022677421569824, 0.46328287571668625 4.864470064640045, 1.0423864424228668 l3.70626300573349, 2.3164142668247223 3.011338710784912, 2.7796971797943115 l2.3164142668247223, 4.169545769691467 0.9265657514333725, 2.200593650341034 l1.3898485898971558, 6.949242949485779 -0.9265657514333725, 5.211932063102722 l-1.2740278244018555, 2.3164142668247223 -2.895517945289612, 3.242979943752289 l-2.6638764142990112, 1.853131502866745 -2.895517945289612, 1.3898485898971558 l-2.3164142668247223, 0.34746214747428894 -3.4746214747428894, 0.0 l-3.358800709247589, 0.46328287571668625 -2.895517945289612, -0.46328287571668625 l-5.096111297607422, -1.6214899718761444 -4.169545769691467, -2.0847728848457336 l-4.9802908301353455, -4.053725004196167 -2.4322350323200226, -3.70626300573349 l-1.7373107373714447, -9.38147783279419 0.11582071892917156, -3.5904422402381897 l0.6949242949485779, -2.4322350323200226 1.6214899718761444, -3.4746214747428894 l3.9379042387008667, -5.211932063102722 0.9265657514333725, -0.46328287571668625 m-1.3898485898971558, 0.11582071892917156 l0.0, -2.7796971797943115 1.853131502866745, -7.065063714981079 l0.9265657514333725, -2.3164142668247223 0.9265657514333725, -0.46328287571668625 l8.339091539382935, 6.601780652999878 2.3164142668247223, 3.4746214747428894 l0.46328287571668625, 1.853131502866745 m6.1384981870651245, 2.7796971797943115 l0.8107449859380722, -0.23164143785834312 3.358800709247589, -3.8220837712287903 l4.517008066177368, -2.7796971797943115 7.065063714981079, -2.3164142668247223 l1.2740278244018555, -0.11582071892917156 -0.8107449859380722, 1.1582071334123611 l-1.0423864424228668, 4.401187300682068 -1.3898485898971558, 3.358800709247589 l-4.632828533649445, 6.8334221839904785 m-22.46922016143799, 9.84476089477539 l3.9379042387008667, 0.0 0.0, 0.8107449859380722 l-1.3898485898971558, 2.0847728848457336 -0.8107449859380722, -0.6949242949485779 l-0.5791035667061806, -1.2740278244018555 m-2.548055648803711, -3.358800709247589 l0.0, 0.0 m0.23164143785834312, 0.23164143785834312 l0.11582071892917156, -0.5791035667061806 1.3898485898971558, -0.11582071892917156 l0.34746214747428894, 1.1582071334123611 -0.6949242949485779, 0.46328287571668625 l-0.6949242949485779, -0.11582071892917156 -0.9265657514333725, -0.9265657514333725 m6.949242949485779, -0.8107449859380722 l1.3898485898971558, 1.1582071334123611 -0.46328287571668625, 1.853131502866745 l-0.9265657514333725, 0.9265657514333725 -0.9265657514333725, 0.11582071892917156 l-0.9265657514333725, -0.5791035667061806 -0.23164143785834312, -0.8107449859380722 l0.46328287571668625, -0.9265657514333725 1.1582071334123611, -0.9265657514333725 " fill="none" stroke="black" stroke-width="1" /></svg>