<?xml version="1.0" encoding="utf-8" ?>
<svg baseProfile="full" height="94.85717441537417" version="1.1" width="142.89627251331694" xmlns="http://www.w3.org/2000/svg" xmlns:ev="http://www.w3.org/2001/xml-events" xmlns:xlink="http://www.w3.org/1999/xlink"><defs /><rect fill="white" height="94.85717441537417" width="142.89627251331694" x="0" y="0" /><path d="M28.72223772108555, 52.56025567185134 m-1.4051900804042816, -1.3183632493019104 l-1.2451732903718948, -0.8023228496313095 -0.8048651367425919, 0.09732373058795929 l-0.2670092135667801, 0.6027670204639435 0.3836365416646004, 0.8064815402030945 l0.6807948648929596, 0.44758327305316925 1.242724433541298, 0.06750617641955614 l1.5165513753890991, -0.6450846791267395 1.4218603074550629, -0.5411947146058083 l1.2651576101779938, -0.9010558575391769 0.9360004961490631, -1.4418230950832367 l0.6023168936371803, -1.685851514339447 0.49858909100294113, -1.7688457667827606 l-0.13434121385216713, -1.4805035293102264 -0.07244674488902092, -1.4388582110404968 l-0.22013388574123383, -1.717609316110611 -0.3002612106502056, -1.4418840408325195 l-0.06293834652751684, -1.7523744702339172 -0.07472646422684193, -1.424267292022705 l-0.3611728921532631, -1.446557193994522 -0.23651344701647758, -1.6709332168102264 l-0.31664978712797165, -1.743503361940384 -0.3724338114261627, -0.6502842903137207 l-0.32622721046209335, -0.7934281975030899 -0.07741912268102169, -0.8620845526456833 l-0.3013189323246479, -0.42967263609170914 -0.009526758221909404, -0.8522091805934906 l0.09372897446155548, -0.6793433427810669 0.23448705673217773, -0.7725884020328522 l-0.005073673091828823, -0.34344855695962906 0.09491948410868645, -0.39510004222393036 l0.26772674173116684, -0.14422928914427757 0.3600585460662842, -0.2670747600495815 l0.28997406363487244, -0.17142180353403091 0.47595150768756866, 0.01595479785464704 l0.47080159187316895, 0.11026467196643353 0.6672798842191696, 0.35276249051094055 l0.7508587837219238, -0.027823043055832386 0.9005212038755417, -0.1852872595191002 l0.9209352731704712, -0.1779022067785263 0.7748965173959732, 0.14928053133189678 l0.9905083477497101, 0.06966240704059601 0.7164100557565689, -0.03449489362537861 l1.0276319831609726, 0.036506999749690294 0.9479420632123947, 0.07938154973089695 l1.0337088257074356, 0.14530960470438004 1.0091938078403473, 0.4906512424349785 l1.180097609758377, 0.292047131806612 1.0757239162921906, 0.45417670160532 l0.9746860712766647, 0.26604168117046356 0.9103754907846451, 0.4147525504231453 l0.8763647824525833, 0.2361585758626461 1.081058457493782, 0.4055194556713104 l0.9839798510074615, 0.5384678021073341 1.0589233040809631, 0.20932931452989578 l0.9334099292755127, 0.3573688864707947 1.1748433113098145, 0.47069232910871506 l1.1387186497449875, 0.3005671873688698 1.2302333861589432, 0.39376452565193176 l1.1440400034189224, 0.46139687299728394 1.0229799151420593, 0.4589036852121353 l1.0399075597524643, 0.3603522479534149 1.0731171071529388, 0.4508834332227707 l0.9136832505464554, 0.4043939337134361 0.8720821887254715, 0.2509316988289356 l1.1953441798686981, 0.3174569085240364 0.8719100058078766, 0.4382064566016197 l1.398332267999649, 0.5130348354578018 0.9991432726383209, 0.872451514005661 l0.9444425255060196, 0.41572626680135727 0.9791525453329086, 0.5093096941709518 l1.1571358144283295, 0.4251701384782791 1.1425135284662247, 0.4795648530125618 l1.0629592090845108, 0.5769142881035805 1.0157493501901627, 0.6527058780193329 l1.1671427637338638, 0.25547971948981285 1.119968369603157, 0.34987736493349075 l0.9194426983594894, 0.5684467777609825 1.0048674046993256, 0.7860107719898224 l0.957663282752037, 0.6844794750213623 1.1672554910182953, 0.5288085713982582 l1.186428815126419, 0.5763379484415054 0.9270957857370377, 0.4722636565566063 l-0.4389971122145653, -0.1925021968781948 0.7798262685537338, 0.5600428581237793 l0.917726531624794, 0.7198619842529297 0.9121298044919968, 0.46944722533226013 l0.9657628834247589, 0.6787220388650894 1.0323461145162582, 0.6008551269769669 l0.9505182504653931, 0.5747098848223686 1.1768277734518051, 0.8693252503871918 l1.0051437467336655, 0.5084332823753357 1.0593023151159286, 0.34256476908922195 l0.9010645747184753, 0.8963699638843536 0.8765190839767456, 0.6474841386079788 l0.723956972360611, 0.6873377412557602 -0.47147274017333984, -0.19696800038218498 l0.5965623632073402, 0.48493050038814545 0.8728615939617157, 0.4783058911561966 l-0.5613916367292404, -0.06784690078347921 0.7710765302181244, 0.45689359307289124 l0.7674717903137207, 0.5787467211484909 0.9321627765893936, 0.5455649271607399 l0.831090584397316, 0.5841834843158722 1.0118502378463745, 0.6244668364524841 l1.0101225227117538, 0.6956194341182709 0.8833010494709015, 0.7161320745944977 l0.9270539879798889, 0.8101761341094971 1.0545193403959274, 0.8249107748270035 l1.0244126617908478, 0.7227400690317154 0.9434599429368973, 0.5662155523896217 l0.9707781672477722, 1.1277790367603302 1.1885397136211395, 0.7854466140270233 l0.9458359330892563, 0.44925980269908905 0.805719718337059, 0.8346446603536606 l1.028025671839714, 0.5867235362529755 -0.3846545144915581, -0.09703337214887142 l0.8571373671293259, 0.7123670727014542 0.9271085262298584, 0.5095648020505905 l0.9165623039007187, 0.5708701908588409 0.911443904042244, 0.7046232372522354 l0.9047070145606995, 0.7584896683692932 0.9607120603322983, 0.7577531784772873 l0.8326485753059387, 0.9055888652801514 0.8774509280920029, 0.8202552050352097 l0.9847579151391983, 0.9294375777244568 1.0637156665325165, 0.7151158154010773 l1.0259263217449188, 0.6284604221582413 1.0198941081762314, 0.7988449186086655 " fill="none" stroke="black" stroke-width="1" /></svg>