<?xml version="1.0" encoding="utf-8" ?>
<svg baseProfile="full" height="132.1478787716478" version="1.1" width="75.91230230180372" xmlns="http://www.w3.org/2000/svg" xmlns:ev="http://www.w3.org/2001/xml-events" xmlns:xlink="http://www.w3.org/1999/xlink"><defs /><rect fill="white" height="132.1478787716478" width="75.91230230180372" x="0" y="0" /><path d="M30.04238847643137, 31.686031398712657 m-1.0575510561466217, -0.44915053993463516 l-2.3057156801223755, 0.4538225382566452 -1.3209591805934906, 1.4287333190441132 l-0.358162559568882, 2.1674498915672302 0.4719635099172592, 1.9244879484176636 l1.1537618190050125, 1.5444155037403107 1.3121913373470306, 1.0995294898748398 l1.2211020290851593, 0.7754126191139221 1.0155171155929565, 0.5519439280033112 l1.0152345895767212, 0.18637269735336304 1.2465662509202957, -0.49140114337205887 l0.5765334516763687, -0.9292919188737869 0.30790895223617554, -1.1632652580738068 l0.20793691277503967, -1.2541685998439789 -0.1148905511945486, -1.3240714371204376 l-0.04981145262718201, -0.8936354517936707 -0.21973710507154465, -1.3789752125740051 l-0.13155866414308548, -1.3979706168174744 -0.4002346470952034, -1.2328433990478516 l-0.2885979600250721, -1.3215826451778412 -0.5391036346554756, -0.8637621253728867 l-0.16630420461297035, -1.0276459157466888 -0.6305842101573944, -0.7546268403530121 l-0.22491933777928352, -0.5015680193901062 -0.4642011970281601, -0.5689221993088722 l-0.5293729901313782, -0.5213834717869759 -0.276335459202528, -0.061002760194242 l-0.34855570644140244, -0.30081436038017273 -0.41947782039642334, -0.37394870072603226 l-0.5047855898737907, -0.008168718195520341 -0.362616628408432, 0.2690712735056877 l-0.3566543757915497, 0.03030780702829361 -0.2834749408066273, 0.13341198675334454 l-0.3437051922082901, 0.19381346181035042 -0.2374950796365738, 0.45409560203552246 l-0.13140561990439892, 0.1490820199251175 -0.04558851011097431, 0.32634034752845764 l-0.07072821725159883, 0.27740301564335823 -0.06781098898500204, 0.8027031272649765 l0.10110997594892979, 0.8462316542863846 -0.09916326962411404, 0.7270921766757965 l-0.046103871427476406, 0.7100449502468109 -0.07009624503552914, 0.6587569415569305 l-0.07691515143960714, 0.7590459287166595 0.057343882508575916, 0.6856852769851685 l-0.04109288100153208, 1.0629048943519592 0.05762581713497639, 0.9703314304351807 l-0.12508182786405087, 0.9448912739753723 0.068264314904809, 1.1876638978719711 l0.03480713348835707, 0.9545160830020905 -0.0920648593455553, 1.014341562986374 l0.019365614280104637, 0.9409219026565552 0.08258706890046597, 0.9727821499109268 l0.1939217373728752, 0.9980325400829315 0.0961972214281559, 1.1488959193229675 l0.09266580455005169, 1.0534857213497162 -0.07265788968652487, 1.3972622156143188 l0.10453968308866024, 1.3702388107776642 -0.047484422102570534, 1.0630393028259277 l0.10183088481426239, 1.1648669093847275 0.20590327680110931, 0.9419652074575424 l0.02702505560591817, 1.098804697394371 0.2597309276461601, 1.4231669902801514 l-0.0831806194037199, 1.1652528494596481 0.17378080636262894, 1.2369030714035034 l0.02023266162723303, 1.400231271982193 -0.024602378252893686, 1.338995099067688 l0.05205072462558746, 1.3911284506320953 0.2743704430758953, 1.269613802433014 l-0.03589432220906019, 1.11145481467247 0.08926657028496265, 1.0773268342018127 l0.04889750387519598, 1.206616759300232 0.04031076095998287, 1.2273452430963516 l0.041564302518963814, 1.371464729309082 0.16477931290864944, 1.3135498762130737 l0.7252705842256546, -0.07249552756547928 -0.022684189025312662, 1.176939308643341 l0.09705591015517712, 1.4009451866149902 0.1060305256396532, 1.3176430761814117 l0.029426442924886942, 1.318567544221878 -0.11618802323937416, 1.39089897274971 l0.05534030497074127, 1.1848851293325424 -0.0010003288480220363, 1.3509179651737213 l-0.01211186172440648, 1.333770900964737 0.24042489007115364, 1.1806034296751022 l0.17508098855614662, 1.247110664844513 0.2911873161792755, 1.3608090579509735 l0.11995895765721798, 1.2547323107719421 0.10639541782438755, 1.1664489656686783 l-0.0921345129609108, 1.272275149822235 0.3613198921084404, 1.3190199434757233 l0.12258058413863182, 1.2583298981189728 0.221536997705698, 1.2060298770666122 l0.29890477657318115, 1.061161682009697 0.21562274545431137, 1.1335709691047668 l0.30582837760448456, 1.0939309000968933 0.45212123543024063, 1.070297583937645 l1.0643790662288666, -0.5270319059491158 0.3588148206472397, 0.8667510002851486 l0.3871070593595505, 0.7718176394701004 0.31642571091651917, 1.0533656179904938 l0.32614924013614655, 0.9596174955368042 0.9278246015310287, -0.6518574804067612 l0.4146098345518112, 0.9114518016576767 0.42684294283390045, 1.1031976342201233 l1.1211895197629929, -0.7947563380002975 0.39074838161468506, 0.7800736278295517 l0.3760877251625061, 0.9867830574512482 0.9955879300832748, -0.8961793780326843 l0.3036938048899174, 0.7056108862161636 0.6157521530985832, 0.8085983246564865 l1.159573644399643, -0.8840721845626831 0.4103849083185196, 0.8123728632926941 l0.4984291270375252, 0.6743907928466797 0.4504634439945221, 0.7037594169378281 l0.3966810181736946, 0.7769297808408737 0.8451134711503983, 0.8765359222888947 l0.40654364973306656, 0.8033138513565063 0.5542898178100586, 0.7318125665187836 l0.4176296666264534, 0.7023811340332031 1.1485885828733444, -0.9376928955316544 l0.3658105432987213, 0.6916387379169464 0.49447041004896164, 0.7832076400518417 l0.4209749400615692, 0.7601137459278107 0.4783530905842781, 0.8344585448503494 l1.2013725936412811, -0.9849106520414352 0.43615829199552536, 0.8403702825307846 l0.45534413307905197, 1.018354371190071 1.152341514825821, -0.9912565350532532 " fill="none" stroke="black" stroke-width="1" /></svg>