<?xml version="1.0" encoding="utf-8" ?>
<svg baseProfile="full" height="68.3909406606108" version="1.1" width="138.111461866647" xmlns="http://www.w3.org/2000/svg" xmlns:ev="http://www.w3.org/2001/xml-events" xmlns:xlink="http://www.w3.org/1999/xlink"><defs /><rect fill="white" height="68.3909406606108" width="138.111461866647" x="0" y="0" /><path d="M112.48580670915544, 16.910590576007962 m-2.0335152745246887, 1.3072597980499268 l-4.502783715724945, 6.10054612159729 -1.0167576372623444, 8.569814562797546 l0.0, 5.6647926568984985 1.5977619588375092, 1.5977619588375092 l4.793286025524139, 0.726255476474762 5.08378803730011, 0.0 l6.826801300048828, -1.452510952949524 2.0335152745246887, -1.8882642686367035 l1.452510952949524, -2.905021905899048 1.8882642686367035, -7.988809943199158 l0.14525108970701694, -3.1955239176750183 -4.212281703948975, -7.1173036098480225 l-1.5977619588375092, -2.178766429424286 -4.357532858848572, -2.6145195960998535 l-7.407805919647217, -0.14525108970701694 -2.178766429424286, 8.279312252998352 l0.14525108970701694, 0.726255476474762 0.8715065568685532, 0.14525108970701694 l2.0335152745246887, -0.4357532784342766 m-1.7430131137371063, -2.178766429424286 l-0.2905021794140339, -0.726255476474762 -3.4860262274742126, -3.050273060798645 l-9.586572051048279, -6.681550145149231 0.0, 1.0167576372623444 l1.3072597980499268, 3.1955239176750183 2.178766429424286, 4.067030549049377 l2.0335152745246887, 3.1955239176750183 8.279312252998352, 10.312827825546265 l-4.357532858848572, -4.648034870624542 -7.698307633399963, -5.810043811798096 l0.726255476474762, 1.8882642686367035 6.391047835350037, 9.296069741249084 l-1.1620087176561356, 0.14525108970701694 -2.0335152745246887, -0.726255476474762 l-5.374290347099304, -2.7597707509994507 -7.988809943199158, -3.1955239176750183 l2.0335152745246887, 0.8715065568685532 8.715065717697144, 5.955294966697693 l5.6647926568984985, 2.905021905899048 -2.905021905899048, -1.0167576372623444 l-7.988809943199158, -4.067030549049377 7.8435587882995605, 6.972052454948425 l3.776528537273407, 4.212281703948975 -10.748580694198608, -7.407805919647217 l1.5977619588375092, 0.726255476474762 5.955294966697693, 6.972052454948425 l4.502783715724945, 6.826801300048828 -6.681550145149231, -8.715065717697144 l2.4692685902118683, 0.4357532784342766 0.4357532784342766, -1.0167576372623444 l1.0167576372623444, -0.5810043588280678 2.0335152745246887, 0.4357532784342766 l0.8715065568685532, 3.1955239176750183 -0.5810043588280678, 3.050273060798645 l2.324017435312271, -5.6647926568984985 2.324017435312271, -3.776528537273407 l-0.2905021794140339, 4.067030549049377 -1.3072597980499268, 4.793286025524139 l1.5977619588375092, -0.8715065568685532 5.6647926568984985, -7.26255476474762 l0.5810043588280678, 2.6145195960998535 -0.4357532784342766, 4.938537180423737 l4.067030549049377, -10.603330135345459 4.502783715724945, -5.955294966697693 l1.0167576372623444, -0.726255476474762 0.4357532784342766, 1.1620087176561356 l-0.14525108970701694, 13.798853158950806 0.8715065568685532, -2.0335152745246887 l2.4692685902118683, -10.748580694198608 0.2905021794140339, -6.681550145149231 l0.8715065568685532, 0.2905021794140339 0.5810043588280678, 1.452510952949524 l0.4357532784342766, 2.178766429424286 -1.0167576372623444, -1.8882642686367035 l-4.793286025524139, -10.458078384399414 -0.5810043588280678, -0.726255476474762 l0.726255476474762, 2.4692685902118683 1.3072597980499268, 1.7430131137371063 l1.8882642686367035, 1.0167576372623444 -6.2457966804504395, -11.329585313796997 l2.4692685902118683, 3.4860262274742126 -6.681550145149231, -3.4860262274742126 l-0.2905021794140339, 0.8715065568685532 0.5810043588280678, 2.6145195960998535 l-1.5977619588375092, 1.5977619588375092 -1.7430131137371063, 0.14525108970701694 m-11.329585313796997, 14.52510952949524 l-2.905021905899048, -0.2905021794140339 -27.307205200195312, -6.972052454948425 l-16.8491268157959, -0.2905021794140339 -1.7430131137371063, 0.8715065568685532 l-4.067030549049377, -1.0167576372623444 -3.050273060798645, 0.0 l-5.229039192199707, 0.8715065568685532 -4.502783715724945, 3.776528537273407 l-1.7430131137371063, 1.5977619588375092 -2.178766429424286, 3.4860262274742126 l-1.5977619588375092, 3.9217793941497803 1.452510952949524, 2.324017435312271 l10.603330135345459, 3.9217793941497803 8.715065717697144, 0.726255476474762 l12.636845111846924, 3.776528537273407 14.960862398147583, 3.4860262274742126 l5.08378803730011, 0.14525108970701694 5.955294966697693, -1.1620087176561356 l5.955294966697693, -0.2905021794140339 1.5977619588375092, -0.8715065568685532 l3.4860262274742126, -0.726255476474762 2.0335152745246887, -1.7430131137371063 m-72.6255464553833, -14.08935546875 l0.726255476474762, 0.2905021794140339 -2.178766429424286, 0.8715065568685532 l-15.977619886398315, 4.938537180423737 -6.391047835350037, 3.3407750725746155 l-3.9217793941497803, 3.050273060798645 -1.7430131137371063, 6.10054612159729 l3.3407750725746155, 1.452510952949524 3.050273060798645, 0.14525108970701694 l9.731823205947876, -6.391047835350037 4.793286025524139, -4.357532858848572 l10.748580694198608, -4.357532858848572 m9.296069741249084, 5.810043811798096 l0.4357532784342766, 11.620087623596191 -0.726255476474762, 5.955294966697693 l0.5810043588280678, 0.8715065568685532 1.7430131137371063, 0.8715065568685532 l4.212281703948975, 1.452510952949524 7.407805919647217, 0.0 l3.3407750725746155, -3.63127738237381 3.9217793941497803, -2.4692685902118683 l0.4357532784342766, -9.586572051048279 m15.977619886398315, 1.7430131137371063 l0.14525108970701694, 7.8435587882995605 0.8715065568685532, 3.4860262274742126 l0.8715065568685532, 7.1173036098480225 0.5810043588280678, 0.726255476474762 l19.027893543243408, 0.2905021794140339 1.0167576372623444, -1.452510952949524 l0.14525108970701694, -4.212281703948975 -3.050273060798645, -8.279312252998352 l-1.452510952949524, -9.877074360847473 " fill="none" stroke="black" stroke-width="1" /></svg>