<?xml version="1.0" encoding="utf-8" ?>
<svg baseProfile="full" height="107.89923598989844" version="1.1" width="94.82663720846176" xmlns="http://www.w3.org/2000/svg" xmlns:ev="http://www.w3.org/2001/xml-events" xmlns:xlink="http://www.w3.org/1999/xlink"><defs /><rect fill="white" height="107.89923598989844" width="94.82663720846176" x="0" y="0" /><path d="M24.463644390925765, 57.72614653222263 m0.2905021794140339, 7.988809943199158 l1.0167576372623444, 3.1955239176750183 1.7430131137371063, 2.7597707509994507 l2.905021905899048, 2.324017435312271 4.648034870624542, 1.0167576372623444 l10.893832445144653, 0.2905021794140339 5.519541501998901, -1.0167576372623444 l4.938537180423737, -2.0335152745246887 4.357532858848572, -2.6145195960998535 l3.776528537273407, -3.3407750725746155 2.6145195960998535, -3.776528537273407 l1.7430131137371063, -4.502783715724945 0.8715065568685532, -4.793286025524139 l-0.5810043588280678, -9.877074360847473 -2.178766429424286, -4.502783715724945 l-3.050273060798645, -3.9217793941497803 -3.9217793941497803, -3.1955239176750183 l-4.067030549049377, -2.324017435312271 -4.067030549049377, -1.5977619588375092 l-4.357532858848572, -0.726255476474762 -4.357532858848572, -0.14525108970701694 l-4.502783715724945, 0.5810043588280678 -4.067030549049377, 2.178766429424286 l-3.776528537273407, 3.050273060798645 -3.1955239176750183, 3.4860262274742126 l-2.6145195960998535, 4.067030549049377 -1.7430131137371063, 4.357532858848572 l-1.3072597980499268, 4.938537180423737 -0.4357532784342766, 4.357532858848572 l0.0, 4.212281703948975 0.4357532784342766, 1.8882642686367035 m32.390992641448975, -17.284879684448242 l-0.5810043588280678, -0.8715065568685532 -0.5810043588280678, 0.0 m-20.189902782440186, 3.050273060798645 l0.0, 0.0 m3.9217793941497803, -1.5977619588375092 l0.726255476474762, 0.5810043588280678 -0.5810043588280678, 0.8715065568685532 l-1.5977619588375092, -0.2905021794140339 -0.14525108970701694, -1.0167576372623444 l1.5977619588375092, -0.14525108970701694 0.2905021794140339, 0.4357532784342766 m1.3072597980499268, 10.458078384399414 l0.8715065568685532, -0.8715065568685532 3.4860262274742126, -1.1620087176561356 l2.905021905899048, -0.4357532784342766 4.067030549049377, 0.14525108970701694 l0.8715065568685532, 0.8715065568685532 -0.14525108970701694, 1.5977619588375092 l-5.519541501998901, 2.0335152745246887 -3.050273060798645, 0.4357532784342766 l-2.0335152745246887, -0.2905021794140339 -1.1620087176561356, -1.3072597980499268 l0.14525108970701694, -1.1620087176561356 m10.312827825546265, -0.4357532784342766 l8.715065717697144, -3.050273060798645 10.458078384399414, -2.4692685902118683 l5.229039192199707, -0.726255476474762 m-32.390992641448975, 8.715065717697144 l-1.1620087176561356, -0.4357532784342766 -2.4692685902118683, 0.0 l-3.3407750725746155, 0.5810043588280678 -7.1173036098480225, 3.3407750725746155 l-2.4692685902118683, 1.5977619588375092 -1.3072597980499268, 2.0335152745246887 m16.558624505996704, -5.08378803730011 l-4.212281703948975, 1.5977619588375092 -6.681550145149231, 5.08378803730011 m16.12287163734436, -7.26255476474762 l-0.14525108970701694, 2.6145195960998535 1.1620087176561356, 2.324017435312271 l1.1620087176561356, 1.0167576372623444 5.6647926568984985, 0.2905021794140339 l6.10054612159729, -2.178766429424286 m-11.620087623596191, -5.519541501998901 l-0.8715065568685532, 0.4357532784342766 -1.1620087176561356, 6.10054612159729 l-1.5977619588375092, 2.178766429424286 -1.452510952949524, 0.8715065568685532 l-2.324017435312271, 0.5810043588280678 -4.067030549049377, 0.14525108970701694 m-18.882641792297363, -30.6479811668396 l-2.6145195960998535, -1.5977619588375092 -2.6145195960998535, -3.3407750725746155 l-1.1620087176561356, -2.905021905899048 -0.5810043588280678, -3.4860262274742126 l0.4357532784342766, -4.357532858848572 2.324017435312271, -4.212281703948975 l2.7597707509994507, -3.63127738237381 2.7597707509994507, -2.0335152745246887 l2.6145195960998535, -1.1620087176561356 1.8882642686367035, -0.14525108970701694 l4.938537180423737, 2.905021905899048 2.905021905899048, 0.2905021794140339 l4.938537180423737, -1.5977619588375092 10.02232551574707, -4.938537180423737 l3.050273060798645, -0.5810043588280678 1.7430131137371063, 0.0 l0.8715065568685532, 0.726255476474762 1.452510952949524, 2.6145195960998535 l1.5977619588375092, 1.0167576372623444 11.039083003997803, 1.3072597980499268 l2.6145195960998535, 1.3072597980499268 1.3072597980499268, 2.178766429424286 l-0.14525108970701694, 9.731823205947876 2.178766429424286, 0.8715065568685532 l10.02232551574707, 0.2905021794140339 3.776528537273407, 1.0167576372623444 l2.178766429424286, 1.7430131137371063 0.4357532784342766, 3.3407750725746155 l-1.0167576372623444, 4.502783715724945 -4.502783715724945, 11.76533818244934 l0.0, 2.178766429424286 0.8715065568685532, 1.1620087176561356 l4.502783715724945, 1.1620087176561356 1.5977619588375092, 1.0167576372623444 l0.4357532784342766, 2.0335152745246887 -0.2905021794140339, 3.63127738237381 l-2.6145195960998535, 4.938537180423737 -11.474835872650146, 17.86588430404663 l-0.4357532784342766, 1.452510952949524 -21.061408519744873, 17.139629125595093 l-4.502783715724945, 2.4692685902118683 -3.3407750725746155, 0.4357532784342766 l-3.050273060798645, -0.726255476474762 -14.08935546875, -8.42456340789795 l-2.7597707509994507, -0.5810043588280678 -5.6647926568984985, 0.0 l-2.324017435312271, -0.4357532784342766 -1.5977619588375092, -3.3407750725746155 l-2.4692685902118683, -14.815611839294434 -1.3072597980499268, -3.4860262274742126 l-6.10054612159729, -6.10054612159729 -1.452510952949524, -3.1955239176750183 l-0.2905021794140339, -8.134061098098755 3.050273060798645, -11.329585313796997 l3.4860262274742126, -8.134061098098755 3.776528537273407, -6.536298990249634 " fill="none" stroke="black" stroke-width="1" /></svg>