<?xml version="1.0" encoding="utf-8" ?>
<svg baseProfile="full" height="52.70382142625749" version="1.1" width="47.474781554192305" xmlns="http://www.w3.org/2000/svg" xmlns:ev="http://www.w3.org/2001/xml-events" xmlns:xlink="http://www.w3.org/1999/xlink"><defs /><rect fill="white" height="52.70382142625749" width="47.474781554192305" x="0" y="0" /><path d="M24.173144586384296, 20.68711762316525 m7.8435587882995605, -10.748580694198608 l1.1620087176561356, -2.6145195960998535 -3.1955239176750183, 0.4357532784342766 l-5.810043811798096, 3.050273060798645 -2.178766429424286, 0.4357532784342766 l-0.726255476474762, -5.519541501998901 -0.726255476474762, -0.5810043588280678 l-1.452510952949524, -0.14525108970701694 -2.0335152745246887, 0.4357532784342766 l-3.4860262274742126, 4.067030549049377 -1.0167576372623444, 1.8882642686367035 l0.0, 2.0335152745246887 1.452510952949524, 0.0 l1.7430131137371063, -1.0167576372623444 -6.10054612159729, 6.972052454948425 l-0.8715065568685532, 2.178766429424286 1.7430131137371063, 0.726255476474762 l3.63127738237381, -0.5810043588280678 -0.5810043588280678, 1.5977619588375092 l-5.519541501998901, 5.6647926568984985 -2.0335152745246887, 2.7597707509994507 l-1.0167576372623444, 2.905021905899048 2.6145195960998535, 0.5810043588280678 l6.826801300048828, -1.3072597980499268 -0.726255476474762, 2.4692685902118683 l-3.4860262274742126, 4.648034870624542 -0.5810043588280678, 2.4692685902118683 l2.178766429424286, -0.14525108970701694 5.08378803730011, -2.324017435312271 l2.0335152745246887, -0.4357532784342766 0.2905021794140339, 1.7430131137371063 l-0.8715065568685532, 4.357532858848572 0.2905021794140339, 1.0167576372623444 l2.324017435312271, 0.0 3.3407750725746155, -1.3072597980499268 l3.050273060798645, -2.4692685902118683 3.4860262274742126, -4.212281703948975 l0.0, 1.1620087176561356 1.0167576372623444, 0.726255476474762 l2.6145195960998535, -0.14525108970701694 3.3407750725746155, -2.178766429424286 l2.6145195960998535, -2.905021905899048 1.1620087176561356, -2.324017435312271 l0.0, -2.4692685902118683 -5.519541501998901, -0.2905021794140339 l-2.4692685902118683, 0.726255476474762 0.2905021794140339, -1.0167576372623444 l5.955294966697693, -6.972052454948425 2.178766429424286, -3.1955239176750183 l0.4357532784342766, -3.3407750725746155 -1.8882642686367035, -0.726255476474762 l-3.9217793941497803, 0.14525108970701694 -3.776528537273407, 1.1620087176561356 l-3.9217793941497803, 2.324017435312271 2.178766429424286, 0.14525108970701694 l5.08378803730011, -3.63127738237381 1.0167576372623444, -1.8882642686367035 l-3.9217793941497803, -0.14525108970701694 -3.63127738237381, 1.452510952949524 l-5.229039192199707, 3.3407750725746155 m-1.1620087176561356, -1.1620087176561356 l-2.178766429424286, 2.7597707509994507 -2.6145195960998535, 4.502783715724945 l-0.8715065568685532, 3.9217793941497803 0.4357532784342766, 2.6145195960998535 l2.324017435312271, 1.3072597980499268 3.4860262274742126, -0.14525108970701694 l3.1955239176750183, -2.324017435312271 2.905021905899048, -4.067030549049377 l1.1620087176561356, -4.067030549049377 0.14525108970701694, -3.4860262274742126 l-0.2905021794140339, -1.3072597980499268 -1.452510952949524, -1.452510952949524 l-4.212281703948975, -0.2905021794140339 -1.5977619588375092, 0.8715065568685532 l-2.6145195960998535, 3.1955239176750183 -0.8715065568685532, 3.9217793941497803 m2.7597707509994507, -3.050273060798645 l0.8715065568685532, -0.14525108970701694 -0.726255476474762, 0.726255476474762 m6.10054612159729, 0.5810043588280678 l-1.1620087176561356, 1.8882642686367035 m-3.3407750725746155, 5.229039192199707 l0.0, 0.0 m-3.4860262274742126, -2.324017435312271 l0.0, 0.8715065568685532 1.0167576372623444, 1.1620087176561356 l1.8882642686367035, 0.4357532784342766 2.4692685902118683, 0.0 l0.2905021794140339, -0.4357532784342766 " fill="none" stroke="black" stroke-width="1" /></svg>