<?xml version="1.0" encoding="utf-8" ?>
<svg baseProfile="full" height="74.63673613034189" version="1.1" width="110.80425749532878" xmlns="http://www.w3.org/2000/svg" xmlns:ev="http://www.w3.org/2001/xml-events" xmlns:xlink="http://www.w3.org/1999/xlink"><defs /><rect fill="white" height="74.63673613034189" width="110.80425749532878" x="0" y="0" /><path d="M51.77085160277784, 19.670360246673226 m-0.726255476474762, 0.0 l-1.8882642686367035, 1.3072597980499268 -5.229039192199707, 6.391047835350037 l-2.178766429424286, 4.938537180423737 -0.8715065568685532, 4.648034870624542 l1.0167576372623444, 4.212281703948975 2.324017435312271, 3.3407750725746155 l2.905021905899048, 2.4692685902118683 3.1955239176750183, 1.1620087176561356 l10.02232551574707, 0.14525108970701694 2.324017435312271, -0.726255476474762 l5.6647926568984985, -3.4860262274742126 2.6145195960998535, -3.050273060798645 l0.5810043588280678, -2.324017435312271 0.14525108970701694, -3.4860262274742126 l-2.4692685902118683, -5.374290347099304 -2.7597707509994507, -3.1955239176750183 l-8.279312252998352, -5.374290347099304 -3.776528537273407, -1.1620087176561356 m-7.407805919647217, -11.039083003997803 l-0.726255476474762, -0.4357532784342766 -11.474835872650146, 0.2905021794140339 l-7.698307633399963, 2.178766429424286 -6.391047835350037, 2.7597707509994507 l-6.10054612159729, 3.3407750725746155 -6.10054612159729, 4.357532858848572 l-2.4692685902118683, 3.050273060798645 0.0, 0.726255476474762 l8.86031687259674, 4.648034870624542 2.7597707509994507, 1.7430131137371063 l1.3072597980499268, 1.5977619588375092 -1.452510952949524, 1.452510952949524 l-9.731823205947876, 6.2457966804504395 -2.178766429424286, 2.178766429424286 l-0.5810043588280678, 2.0335152745246887 0.0, 1.0167576372623444 l0.5810043588280678, 0.8715065568685532 3.050273060798645, 1.8882642686367035 l4.793286025524139, 2.178766429424286 8.86031687259674, 3.050273060798645 l0.4357532784342766, 0.8715065568685532 -0.4357532784342766, 6.391047835350037 l0.4357532784342766, 0.8715065568685532 1.7430131137371063, 1.3072597980499268 l7.26255476474762, 1.3072597980499268 8.279312252998352, 0.0 l3.3407750725746155, 1.1620087176561356 3.4860262274742126, 0.0 m3.3407750725746155, -59.84344959259033 l27.8882098197937, -1.3072597980499268 12.782095670700073, 0.5810043588280678 l6.2457966804504395, 1.452510952949524 1.452510952949524, 0.726255476474762 l0.0, 0.726255476474762 -0.8715065568685532, 1.0167576372623444 l-5.519541501998901, 2.6145195960998535 -7.1173036098480225, 2.4692685902118683 l-0.14525108970701694, 0.726255476474762 0.5810043588280678, 1.0167576372623444 l3.4860262274742126, 2.6145195960998535 13.363100290298462, 6.972052454948425 l2.6145195960998535, 2.0335152745246887 0.8715065568685532, 1.7430131137371063 l-6.972052454948425, 4.067030549049377 -3.9217793941497803, 5.229039192199707 l-0.726255476474762, 2.4692685902118683 0.5810043588280678, 0.8715065568685532 l0.2905021794140339, 1.8882642686367035 -0.2905021794140339, 0.8715065568685532 l-4.212281703948975, 4.357532858848572 -0.4357532784342766, 1.3072597980499268 l0.14525108970701694, 2.905021905899048 -0.5810043588280678, 5.374290347099304 l-0.726255476474762, 1.452510952949524 -4.648034870624542, 0.2905021794140339 l-10.02232551574707, -1.452510952949524 -0.4357532784342766, 7.1173036098480225 l-1.0167576372623444, 1.8882642686367035 -2.7597707509994507, 1.1620087176561356 l-4.502783715724945, 0.14525108970701694 -3.9217793941497803, -0.726255476474762 l-7.1173036098480225, -2.324017435312271 0.4357532784342766, -0.5810043588280678 m-3.1955239176750183, -34.569759368896484 l0.14525108970701694, 3.1955239176750183 m6.681550145149231, -2.4692685902118683 " fill="none" stroke="black" stroke-width="1" /></svg>