<?xml version="1.0" encoding="utf-8" ?>
<svg baseProfile="full" height="93.9551324211061" version="1.1" width="90.03335174173117" xmlns="http://www.w3.org/2000/svg" xmlns:ev="http://www.w3.org/2001/xml-events" xmlns:xlink="http://www.w3.org/1999/xlink"><defs /><rect fill="white" height="93.9551324211061" width="90.03335174173117" x="0" y="0" /><path d="M49.011080926284194, 38.84350464679301 m-13.798853158950806, 6.681550145149231 l-6.972052454948425, 4.648034870624542 -2.178766429424286, 2.6145195960998535 l-0.4357532784342766, 1.3072597980499268 0.14525108970701694, 4.502783715724945 l5.229039192199707, 4.212281703948975 11.910589933395386, 6.826801300048828 l2.0335152745246887, 0.2905021794140339 3.1955239176750183, -2.0335152745246887 l2.905021905899048, -2.6145195960998535 3.050273060798645, -3.4860262274742126 l0.726255476474762, -1.452510952949524 0.4357532784342766, -8.715065717697144 l2.6145195960998535, -5.374290347099304 -0.5810043588280678, -1.452510952949524 l-4.793286025524139, -0.14525108970701694 m-40.525054931640625, -2.0335152745246887 l-4.938537180423737, -23.675928115844727 0.726255476474762, -0.2905021794140339 l0.726255476474762, 0.8715065568685532 3.3407750725746155, 0.5810043588280678 l4.357532858848572, 1.5977619588375092 2.7597707509994507, 2.0335152745246887 l2.6145195960998535, -4.793286025524139 1.452510952949524, -0.5810043588280678 l3.9217793941497803, 5.229039192199707 5.6647926568984985, 5.6647926568984985 l1.452510952949524, -1.452510952949524 4.357532858848572, -7.698307633399963 l5.519541501998901, -11.76533818244934 2.7597707509994507, -3.3407750725746155 l1.452510952949524, 8.86031687259674 14.670360088348389, 0.14525108970701694 l0.5810043588280678, 1.0167576372623444 -0.726255476474762, 12.20109224319458 l-1.1620087176561356, 6.972052454948425 -0.5810043588280678, 7.407805919647217 l0.0, 6.391047835350037 1.1620087176561356, 2.905021905899048 l2.324017435312271, 3.4860262274742126 1.0167576372623444, 0.14525108970701694 l3.9217793941497803, -2.0335152745246887 2.6145195960998535, -0.726255476474762 l13.072597980499268, -1.8882642686367035 -3.3407750725746155, 0.726255476474762 l-4.793286025524139, 2.178766429424286 -1.7430131137371063, 1.452510952949524 l-2.178766429424286, 3.050273060798645 -1.0167576372623444, 2.7597707509994507 l0.14525108970701694, 1.5977619588375092 4.357532858848572, 1.1620087176561356 l0.4357532784342766, 0.8715065568685532 -2.324017435312271, 1.1620087176561356 l-6.2457966804504395, 1.8882642686367035 -3.9217793941497803, 2.4692685902118683 l1.0167576372623444, 0.5810043588280678 9.877074360847473, 2.178766429424286 l4.212281703948975, 1.7430131137371063 0.2905021794140339, 0.726255476474762 l-18.44688892364502, 5.519541501998901 -4.357532858848572, 2.178766429424286 l-2.4692685902118683, 2.6145195960998535 -2.6145195960998535, 1.8882642686367035 l-1.5977619588375092, 0.8715065568685532 -5.374290347099304, 1.452510952949524 l-2.7597707509994507, -0.2905021794140339 -4.938537180423737, -10.02232551574707 l-7.1173036098480225, 6.826801300048828 -1.8882642686367035, 1.0167576372623444 l-2.0335152745246887, 0.0 -0.5810043588280678, -1.7430131137371063 l0.14525108970701694, -7.1173036098480225 -2.4692685902118683, -1.1620087176561356 l-6.10054612159729, -1.5977619588375092 -2.7597707509994507, -1.3072597980499268 l-0.2905021794140339, -0.726255476474762 1.7430131137371063, -8.279312252998352 l0.0, -5.6647926568984985 m-2.4692685902118683, 0.4357532784342766 l1.3072597980499268, -2.6145195960998535 0.726255476474762, -0.4357532784342766 l-8.279312252998352, 1.0167576372623444 0.4357532784342766, -6.2457966804504395 l-2.324017435312271, -3.1955239176750183 -0.2905021794140339, -2.6145195960998535 l7.8435587882995605, -6.2457966804504395 5.6647926568984985, -5.229039192199707 l3.1955239176750183, -4.067030549049377 0.14525108970701694, -0.726255476474762 l-1.3072597980499268, -0.14525108970701694 -4.357532858848572, 1.1620087176561356 m28.1787109375, 18.737391233444214 l-0.2905021794140339, 0.0 m3.776528537273407, 0.5810043588280678 l-0.14525108970701694, 1.5977619588375092 0.726255476474762, 1.8882642686367035 " fill="none" stroke="black" stroke-width="1" /></svg>