<?xml version="1.0" encoding="utf-8" ?>
<svg baseProfile="full" height="69.84345144592226" version="1.1" width="81.8992920126766" xmlns="http://www.w3.org/2000/svg" xmlns:ev="http://www.w3.org/2001/xml-events" xmlns:xlink="http://www.w3.org/1999/xlink"><defs /><rect fill="white" height="69.84345144592226" width="81.8992920126766" x="0" y="0" /><path d="M36.95524048060179, 30.709444973617792 m-4.212281703948975, 1.0167576372623444 l-1.8882642686367035, 1.452510952949524 -3.63127738237381, 5.955294966697693 l-1.7430131137371063, 5.08378803730011 -0.14525108970701694, 4.502783715724945 l1.0167576372623444, 5.229039192199707 1.7430131137371063, 2.7597707509994507 l1.1620087176561356, 1.0167576372623444 3.1955239176750183, 0.8715065568685532 l3.3407750725746155, -0.726255476474762 2.4692685902118683, -2.178766429424286 l3.63127738237381, -4.357532858848572 2.178766429424286, -3.63127738237381 l1.3072597980499268, -3.3407750725746155 0.726255476474762, -4.212281703948975 l-0.5810043588280678, -4.067030549049377 -2.0335152745246887, -3.3407750725746155 l-4.648034870624542, -2.0335152745246887 -3.63127738237381, 0.0 m7.988809943199158, -0.726255476474762 l0.0, -2.324017435312271 1.0167576372623444, -3.1955239176750183 l2.324017435312271, -3.1955239176750183 1.452510952949524, -1.1620087176561356 l2.6145195960998535, -1.0167576372623444 1.8882642686367035, 0.726255476474762 l0.726255476474762, 1.1620087176561356 0.14525108970701694, 5.08378803730011 l-1.7430131137371063, 5.374290347099304 -2.0335152745246887, 2.905021905899048 l-2.905021905899048, 2.324017435312271 m-18.59213948249817, 2.7597707509994507 l-1.0167576372623444, 0.0 -2.4692685902118683, -1.1620087176561356 l-2.6145195960998535, -3.050273060798645 -1.3072597980499268, -2.905021905899048 l0.0, -4.212281703948975 1.3072597980499268, -4.212281703948975 l1.452510952949524, -2.178766429424286 1.0167576372623444, -0.726255476474762 l2.6145195960998535, -0.726255476474762 0.8715065568685532, 0.4357532784342766 l1.3072597980499268, 1.7430131137371063 1.1620087176561356, 3.3407750725746155 l0.8715065568685532, 7.407805919647217 m-4.938537180423737, 18.59213948249817 l-2.324017435312271, 0.726255476474762 -3.776528537273407, 0.2905021794140339 l-3.9217793941497803, -0.726255476474762 -2.4692685902118683, -1.1620087176561356 l-3.3407750725746155, -2.905021905899048 -2.4692685902118683, -3.050273060798645 l-2.178766429424286, -4.648034870624542 -0.8715065568685532, -3.63127738237381 l0.0, -3.050273060798645 0.726255476474762, -4.357532858848572 l1.8882642686367035, -4.938537180423737 1.8882642686367035, -2.178766429424286 l5.229039192199707, -3.63127738237381 9.150818586349487, -4.502783715724945 l7.407805919647217, -2.178766429424286 3.776528537273407, -0.4357532784342766 l7.26255476474762, -0.2905021794140339 5.6647926568984985, 0.4357532784342766 l11.329585313796997, 1.8882642686367035 3.776528537273407, 1.3072597980499268 l2.324017435312271, 1.5977619588375092 1.5977619588375092, 1.7430131137371063 l1.1620087176561356, 1.8882642686367035 0.5810043588280678, 2.4692685902118683 l-0.14525108970701694, 2.7597707509994507 -1.7430131137371063, 5.955294966697693 l-1.5977619588375092, 2.324017435312271 -4.357532858848572, 3.9217793941497803 l-4.938537180423737, 3.050273060798645 -5.6647926568984985, 2.0335152745246887 l-5.810043811798096, 0.8715065568685532 m-18.301637172698975, 0.726255476474762 l-18.156386613845825, -5.810043811798096 -1.3072597980499268, -0.8715065568685532 m18.44688892364502, 0.726255476474762 l-2.0335152745246887, 0.2905021794140339 -3.050273060798645, -0.726255476474762 l-4.502783715724945, -3.3407750725746155 -4.938537180423737, -7.26255476474762 l-3.1955239176750183, -7.26255476474762 -0.4357532784342766, -2.324017435312271 m29.05021905899048, 11.184333562850952 l-2.6145195960998535, -6.972052454948425 -0.8715065568685532, -4.648034870624542 l0.0, -6.972052454948425 1.0167576372623444, -5.08378803730011 m6.391047835350037, 20.916156768798828 l4.502783715724945, -7.8435587882995605 3.3407750725746155, -4.502783715724945 l6.391047835350037, -5.955294966697693 3.1955239176750183, -1.8882642686367035 m-5.229039192199707, 27.016704082489014 l1.5977619588375092, -2.0335152745246887 14.234607219696045, -12.782095670700073 l8.86031687259674, -5.6647926568984985 m-28.323962688446045, 27.8882098197937 l7.8435587882995605, -3.3407750725746155 10.893832445144653, -6.391047835350037 l7.698307633399963, -3.4860262274742126 m-40.96080780029297, 10.458078384399414 l0.4357532784342766, 1.452510952949524 -0.726255476474762, 0.5810043588280678 l-0.726255476474762, -0.2905021794140339 -0.14525108970701694, -0.726255476474762 l0.726255476474762, -0.5810043588280678 -0.4357532784342766, 0.726255476474762 l-0.2905021794140339, -0.8715065568685532 0.726255476474762, -0.5810043588280678 l-1.0167576372623444, 1.8882642686367035 -0.5810043588280678, 0.14525108970701694 m7.407805919647217, 1.1620087176561356 l2.0335152745246887, -2.324017435312271 -0.2905021794140339, 1.1620087176561356 l-1.452510952949524, 2.0335152745246887 0.726255476474762, -2.0335152745246887 l1.3072597980499268, -1.0167576372623444 -0.726255476474762, 2.324017435312271 l-1.0167576372623444, 1.1620087176561356 -0.2905021794140339, -1.3072597980499268 l0.726255476474762, -1.1620087176561356 0.14525108970701694, 1.452510952949524 l1.3072597980499268, -2.6145195960998535 -0.8715065568685532, 1.0167576372623444 m-7.698307633399963, 7.1173036098480225 l-1.7430131137371063, -0.726255476474762 -0.8715065568685532, 0.726255476474762 l-0.726255476474762, 2.178766429424286 0.4357532784342766, 2.905021905899048 l1.0167576372623444, 0.0 2.324017435312271, -1.1620087176561356 l2.6145195960998535, -3.1955239176750183 0.14525108970701694, -1.7430131137371063 l-0.5810043588280678, -1.0167576372623444 -0.8715065568685532, -0.4357532784342766 l-1.1620087176561356, 0.0 -1.7430131137371063, 1.452510952949524 m2.6145195960998535, 12.927347421646118 l-24.547433853149414, -3.776528537273407 m22.078166007995605, 1.452510952949524 l-26.58094882965088, 9.150818586349487 -0.726255476474762, -4.357532858848572 l1.5977619588375092, -4.648034870624542 m29.195468425750732, -0.14525108970701694 l1.452510952949524, 6.2457966804504395 0.726255476474762, 1.3072597980499268 l1.452510952949524, 0.8715065568685532 0.8715065568685532, -0.14525108970701694 l3.3407750725746155, -2.178766429424286 8.279312252998352, -7.8435587882995605 l7.8435587882995605, -6.391047835350037 12.782095670700073, -6.826801300048828 l-2.324017435312271, 0.4357532784342766 -1.8882642686367035, 1.0167576372623444 l-5.229039192199707, 5.229039192199707 " fill="none" stroke="black" stroke-width="1" /></svg>