<?xml version="1.0" encoding="utf-8" ?>
<svg baseProfile="full" height="77.54175745882094" version="1.1" width="74.63673556223512" xmlns="http://www.w3.org/2000/svg" xmlns:ev="http://www.w3.org/2001/xml-events" xmlns:xlink="http://www.w3.org/1999/xlink"><defs /><rect fill="white" height="77.54175745882094" width="74.63673556223512" x="0" y="0" /><path d="M52.35185571014881, 21.558624068275094 m2.6145195960998535, -1.3072597980499268 l1.3072597980499268, 0.0 3.63127738237381, -1.1620087176561356 l9.441320896148682, -0.726255476474762 0.2905021794140339, 0.8715065568685532 l-0.5810043588280678, 2.6145195960998535 -2.6145195960998535, 4.212281703948975 l-3.776528537273407, 3.776528537273407 -6.681550145149231, 5.374290347099304 l0.0, 0.726255476474762 6.10054612159729, 1.0167576372623444 l2.7597707509994507, 1.452510952949524 2.178766429424286, 2.324017435312271 l-0.14525108970701694, 2.178766429424286 -3.9217793941497803, 3.9217793941497803 l-10.02232551574707, 6.2457966804504395 -0.4357532784342766, 0.726255476474762 l7.988809943199158, 2.7597707509994507 1.5977619588375092, 0.8715065568685532 l0.8715065568685532, 1.452510952949524 0.0, 4.357532858848572 l-3.3407750725746155, 8.569814562797546 -0.4357532784342766, 0.726255476474762 l-4.357532858848572, -6.2457966804504395 -7.26255476474762, -8.134061098098755 l-1.1620087176561356, 1.1620087176561356 0.0, 1.3072597980499268 l-2.6145195960998535, 7.698307633399963 -2.4692685902118683, 2.6145195960998535 l-10.16757607460022, -10.16757607460022 -3.1955239176750183, -7.553057074546814 l-4.212281703948975, 4.212281703948975 -6.826801300048828, 4.502783715724945 l-3.3407750725746155, -3.776528537273407 0.0, -3.050273060798645 l0.5810043588280678, -2.324017435312271 2.905021905899048, -4.938537180423737 l1.452510952949524, -4.502783715724945 0.0, -2.0335152745246887 l-12.636845111846924, 0.2905021794140339 -0.726255476474762, -0.14525108970701694 l-0.14525108970701694, -0.726255476474762 0.8715065568685532, -2.178766429424286 l2.7597707509994507, -4.212281703948975 5.374290347099304, -5.810043811798096 l5.810043811798096, -5.08378803730011 1.8882642686367035, -1.1620087176561356 l-0.14525108970701694, 1.0167576372623444 -4.067030549049377, 2.0335152745246887 l6.2457966804504395, -4.357532858848572 6.536298990249634, -5.519541501998901 l5.08378803730011, -5.6647926568984985 -0.4357532784342766, 12.20109224319458 l1.0167576372623444, -0.2905021794140339 5.08378803730011, -4.502783715724945 l4.212281703948975, -4.502783715724945 3.9217793941497803, -4.938537180423737 l1.5977619588375092, -2.7597707509994507 -0.14525108970701694, 11.329585313796997 l0.14525108970701694, 0.726255476474762 2.4692685902118683, 3.050273060798645 m-5.6647926568984985, 12.34634280204773 l-2.7597707509994507, -1.1620087176561356 -5.08378803730011, 0.0 l-1.452510952949524, 0.2905021794140339 -2.324017435312271, 1.5977619588375092 l-0.5810043588280678, 1.0167576372623444 -7.407805919647217, 7.1173036098480225 l-1.1620087176561356, 1.8882642686367035 -0.4357532784342766, 2.6145195960998535 l0.0, 2.4692685902118683 0.4357532784342766, 1.0167576372623444 l1.7430131137371063, 1.452510952949524 2.4692685902118683, 0.4357532784342766 l6.391047835350037, 0.0 3.3407750725746155, -0.4357532784342766 l1.7430131137371063, -0.726255476474762 2.905021905899048, -3.3407750725746155 l2.324017435312271, -4.938537180423737 0.4357532784342766, -9.00556743144989 l-0.726255476474762, -2.178766429424286 -1.0167576372623444, 0.4357532784342766 m-8.42456340789795, 10.02232551574707 l-0.5810043588280678, 1.452510952949524 0.726255476474762, 0.4357532784342766 l0.4357532784342766, -0.8715065568685532 " fill="none" stroke="black" stroke-width="1" /></svg>