<?xml version="1.0" encoding="utf-8" ?>
<svg baseProfile="full" height="113.12827568501234" version="1.1" width="105.72047035209835" xmlns="http://www.w3.org/2000/svg" xmlns:ev="http://www.w3.org/2001/xml-events" xmlns:xlink="http://www.w3.org/1999/xlink"><defs /><rect fill="white" height="113.12827568501234" width="105.72047035209835" x="0" y="0" /><path d="M28.966431552544236, 52.06135265529156 m1.0167576372623444, -2.7597707509994507 l1.8882642686367035, -2.324017435312271 9.296069741249084, -8.715065717697144 l5.6647926568984985, -3.050273060798645 4.648034870624542, -1.1620087176561356 l3.9217793941497803, 0.0 2.324017435312271, 0.4357532784342766 l4.648034870624542, 2.6145195960998535 6.10054612159729, 5.955294966697693 l2.905021905899048, 4.357532858848572 1.1620087176561356, 2.7597707509994507 l0.726255476474762, 3.1955239176750183 0.14525108970701694, 3.3407750725746155 l-3.1955239176750183, 9.296069741249084 -2.4692685902118683, 3.9217793941497803 l-1.7430131137371063, 1.8882642686367035 -5.374290347099304, 3.4860262274742126 l-6.536298990249634, 2.905021905899048 -4.938537180423737, 0.8715065568685532 l-9.00556743144989, -0.2905021794140339 -6.972052454948425, -1.5977619588375092 l-3.4860262274742126, -1.7430131137371063 -2.178766429424286, -2.0335152745246887 l-1.8882642686367035, -2.324017435312271 -1.3072597980499268, -3.9217793941497803 l0.14525108970701694, -4.648034870624542 2.6145195960998535, -13.798853158950806 l2.905021905899048, -9.296069741249084 2.324017435312271, -4.648034870624542 l-2.324017435312271, 7.407805919647217 m-5.810043811798096, 15.396615266799927 l-1.3072597980499268, -5.08378803730011 -3.050273060798645, -23.966429233551025 l-3.63127738237381, -23.240175247192383 0.8715065568685532, -0.2905021794140339 l2.7597707509994507, 1.0167576372623444 13.798853158950806, 7.988809943199158 l1.3072597980499268, -4.212281703948975 1.5977619588375092, -1.5977619588375092 l1.1620087176561356, -0.2905021794140339 3.1955239176750183, 3.050273060798645 l4.212281703948975, 5.374290347099304 2.324017435312271, 1.7430131137371063 l1.0167576372623444, -0.14525108970701694 3.4860262274742126, -3.776528537273407 l3.9217793941497803, -3.1955239176750183 2.6145195960998535, -1.7430131137371063 l4.357532858848572, -1.7430131137371063 3.1955239176750183, 0.4357532784342766 l3.1955239176750183, 1.8882642686367035 1.7430131137371063, 2.4692685902118683 l0.4357532784342766, 2.178766429424286 -0.2905021794140339, 1.0167576372623444 l2.0335152745246887, 0.2905021794140339 8.279312252998352, -2.0335152745246887 l1.452510952949524, -0.14525108970701694 1.1620087176561356, 0.4357532784342766 l4.793286025524139, 7.8435587882995605 2.178766429424286, 6.2457966804504395 l0.5810043588280678, 4.212281703948975 -0.2905021794140339, 2.324017435312271 l-1.5977619588375092, 1.452510952949524 7.407805919647217, 3.63127738237381 l1.7430131137371063, 1.8882642686367035 1.3072597980499268, 2.324017435312271 l0.5810043588280678, 2.324017435312271 -0.4357532784342766, 4.502783715724945 l-1.7430131137371063, 4.067030549049377 -4.212281703948975, 6.10054612159729 l-2.4692685902118683, 2.0335152745246887 -1.452510952949524, 0.5810043588280678 l0.726255476474762, 4.212281703948975 0.0, 17.430131435394287 l-0.8715065568685532, 5.6647926568984985 -1.452510952949524, 0.726255476474762 l-3.3407750725746155, -0.4357532784342766 -5.810043811798096, -1.452510952949524 l-6.536298990249634, -2.324017435312271 2.178766429424286, 5.6647926568984985 l0.14525108970701694, 3.4860262274742126 -1.452510952949524, 3.1955239176750183 l-1.0167576372623444, 1.1620087176561356 -1.3072597980499268, 0.8715065568685532 l-3.4860262274742126, 0.4357532784342766 -9.586572051048279, -1.5977619588375092 l-0.14525108970701694, 1.5977619588375092 -1.1620087176561356, 1.8882642686367035 l-3.63127738237381, 2.7597707509994507 -2.905021905899048, 1.0167576372623444 l-4.357532858848572, 0.2905021794140339 -4.067030549049377, -0.5810043588280678 l-5.810043811798096, -2.0335152745246887 -2.7597707509994507, -1.5977619588375092 l-0.2905021794140339, -0.726255476474762 -1.0167576372623444, 1.452510952949524 l-1.1620087176561356, 0.4357532784342766 -1.8882642686367035, 0.14525108970701694 l-4.793286025524139, -0.8715065568685532 -6.10054612159729, -2.4692685902118683 l-3.776528537273407, -2.6145195960998535 -0.5810043588280678, -0.726255476474762 l-0.14525108970701694, -1.7430131137371063 0.2905021794140339, -1.0167576372623444 l1.452510952949524, -0.8715065568685532 -1.1620087176561356, 0.0 l-2.324017435312271, -1.5977619588375092 -4.793286025524139, -4.793286025524139 l-2.178766429424286, -4.067030549049377 -0.2905021794140339, -3.1955239176750183 l0.4357532784342766, -1.7430131137371063 4.648034870624542, -8.715065717697144 l5.374290347099304, -7.8435587882995605 3.776528537273407, -3.63127738237381 l0.726255476474762, 0.8715065568685532 -0.14525108970701694, 1.7430131137371063 l-0.8715065568685532, -6.391047835350037 -0.14525108970701694, -6.681550145149231 l0.5810043588280678, -4.648034870624542 0.8715065568685532, -2.6145195960998535 l5.08378803730011, -4.938537180423737 4.793286025524139, -2.7597707509994507 l5.6647926568984985, -2.178766429424286 " fill="none" stroke="black" stroke-width="1" /></svg>