<?xml version="1.0" encoding="utf-8" ?>
<svg baseProfile="full" height="73.18422422744334" version="1.1" width="82.91604759171605" xmlns="http://www.w3.org/2000/svg" xmlns:ev="http://www.w3.org/2001/xml-events" xmlns:xlink="http://www.w3.org/1999/xlink"><defs /><rect fill="white" height="73.18422422744334" width="82.91604759171605" x="0" y="0" /><path d="M52.497107638046145, 24.463645396754146 m0.0, -1.7430131137371063 l-0.726255476474762, -1.452510952949524 -0.726255476474762, -0.4357532784342766 l-3.776528537273407, -0.726255476474762 -2.7597707509994507, 0.0 l-2.6145195960998535, 0.8715065568685532 -4.793286025524139, 3.63127738237381 l-1.8882642686367035, 2.6145195960998535 -2.0335152745246887, 7.407805919647217 l0.0, 6.536298990249634 1.8882642686367035, 4.648034870624542 l1.8882642686367035, 2.6145195960998535 5.519541501998901, 3.1955239176750183 l3.3407750725746155, 1.0167576372623444 3.4860262274742126, -0.14525108970701694 l2.0335152745246887, -0.8715065568685532 5.810043811798096, -3.776528537273407 l2.0335152745246887, -2.0335152745246887 1.0167576372623444, -4.357532858848572 l0.2905021794140339, -3.776528537273407 -0.2905021794140339, -7.26255476474762 l-0.726255476474762, -2.324017435312271 -1.5977619588375092, -2.7597707509994507 l-2.905021905899048, -2.324017435312271 -3.050273060798645, -1.1620087176561356 m-1.8882642686367035, -7.8435587882995605 l-0.4357532784342766, 0.8715065568685532 -2.905021905899048, -5.6647926568984985 l-2.178766429424286, -2.6145195960998535 -0.726255476474762, 1.8882642686367035 l0.0, 7.1173036098480225 -0.726255476474762, 0.2905021794140339 l-2.178766429424286, -2.6145195960998535 -4.793286025524139, -3.3407750725746155 l-0.726255476474762, 0.14525108970701694 -0.8715065568685532, 1.5977619588375092 l-0.2905021794140339, 6.972052454948425 -8.134061098098755, -3.9217793941497803 l-4.212281703948975, -0.2905021794140339 -0.4357532784342766, 2.178766429424286 l2.905021905899048, 1.7430131137371063 5.229039192199707, 1.8882642686367035 l-1.0167576372623444, 1.0167576372623444 -14.670360088348389, 5.374290347099304 l-0.726255476474762, 0.5810043588280678 -0.14525108970701694, 0.8715065568685532 l12.34634280204773, 1.5977619588375092 -3.776528537273407, 1.3072597980499268 l-15.541867017745972, 2.7597707509994507 -1.0167576372623444, 0.2905021794140339 l0.14525108970701694, 0.726255476474762 16.12287163734436, 2.905021905899048 l0.2905021794140339, 2.0335152745246887 -2.178766429424286, 2.0335152745246887 l-2.6145195960998535, 1.3072597980499268 -0.726255476474762, 0.726255476474762 l-0.14525108970701694, 1.452510952949524 1.8882642686367035, 0.4357532784342766 l14.08935546875, 0.0 -4.793286025524139, 14.234607219696045 l3.9217793941497803, -2.324017435312271 4.212281703948975, -1.7430131137371063 l0.5810043588280678, 0.726255476474762 0.4357532784342766, 2.178766429424286 l0.4357532784342766, 9.441320896148682 1.0167576372623444, -0.14525108970701694 l5.374290347099304, -8.279312252998352 1.7430131137371063, -1.3072597980499268 l1.1620087176561356, 0.14525108970701694 0.726255476474762, 0.8715065568685532 l3.3407750725746155, 6.536298990249634 0.726255476474762, -0.14525108970701694 l1.5977619588375092, -2.0335152745246887 2.6145195960998535, -7.988809943199158 l1.5977619588375092, -0.5810043588280678 4.357532858848572, 4.938537180423737 l1.3072597980499268, -3.9217793941497803 0.5810043588280678, -6.972052454948425 l6.826801300048828, -1.1620087176561356 0.2905021794140339, -0.726255476474762 l-1.3072597980499268, -1.1620087176561356 -0.2905021794140339, -0.8715065568685532 l1.5977619588375092, -1.452510952949524 3.3407750725746155, -4.793286025524139 l0.4357532784342766, -1.5977619588375092 -0.5810043588280678, -1.3072597980499268 l-3.9217793941497803, -2.178766429424286 -6.391047835350037, -1.8882642686367035 l3.9217793941497803, -4.502783715724945 11.184333562850952, -10.458078384399414 l-1.0167576372623444, -0.5810043588280678 -3.050273060798645, 1.452510952949524 l-8.42456340789795, 11.329585313796997 -0.2905021794140339, -7.1173036098480225 l1.1620087176561356, -17.284879684448242 -1.0167576372623444, 0.14525108970701694 l-0.8715065568685532, 0.8715065568685532 -4.357532858848572, 5.810043811798096 l-1.5977619588375092, 1.3072597980499268 -1.0167576372623444, -1.452510952949524 l-0.14525108970701694, -2.905021905899048 -1.7430131137371063, 0.2905021794140339 l-3.1955239176750183, 6.391047835350037 -1.3072597980499268, 0.8715065568685532 m-7.1173036098480225, 18.156386613845825 l2.905021905899048, 0.14525108970701694 0.4357532784342766, 0.726255476474762 l-1.0167576372623444, 2.178766429424286 -0.726255476474762, 0.14525108970701694 l-0.5810043588280678, -0.726255476474762 0.0, -2.0335152745246887 m0.726255476474762, 4.067030549049377 l-0.14525108970701694, 6.972052454948425 0.726255476474762, 0.4357532784342766 l2.6145195960998535, 0.14525108970701694 1.0167576372623444, -0.4357532784342766 l2.178766429424286, -2.4692685902118683 0.2905021794140339, -2.6145195960998535 m-7.1173036098480225, -3.63127738237381 l0.0, 9.150818586349487 -2.178766429424286, 1.1620087176561356 l-0.726255476474762, -0.14525108970701694 -1.5977619588375092, -2.178766429424286 l0.2905021794140339, -5.229039192199707 m3.4860262274742126, -12.055840492248535 l-0.8715065568685532, 1.5977619588375092 m4.648034870624542, -0.14525108970701694 l0.0, 1.0167576372623444 " fill="none" stroke="black" stroke-width="1" /></svg>