<?xml version="1.0" encoding="utf-8" ?>
<svg baseProfile="full" height="95.98864736035466" version="1.1" width="165.56391819380224" xmlns="http://www.w3.org/2000/svg" xmlns:ev="http://www.w3.org/2001/xml-events" xmlns:xlink="http://www.w3.org/1999/xlink"><defs /><rect fill="white" height="95.98864736035466" width="165.56391819380224" x="0" y="0" /><path d="M52.642358262091875, 35.212228279560804 m0.0, 11.620087623596191 l0.5810043588280678, 13.653602600097656 2.324017435312271, 10.16757607460022 l1.1620087176561356, 3.63127738237381 2.0335152745246887, 4.648034870624542 l5.229039192199707, 6.536298990249634 5.955294966697693, 3.4860262274742126 l7.553057074546814, 1.452510952949524 8.715065717697144, 0.5810043588280678 l8.715065717697144, -0.5810043588280678 4.793286025524139, -1.0167576372623444 l6.391047835350037, -2.178766429424286 5.374290347099304, -3.050273060798645 l5.229039192199707, -4.648034870624542 3.776528537273407, -5.955294966697693 l1.452510952949524, -5.6647926568984985 0.2905021794140339, -10.02232551574707 l-2.0335152745246887, -8.715065717697144 -3.4860262274742126, -7.553057074546814 l-4.502783715724945, -5.6647926568984985 -4.502783715724945, -4.067030549049377 l-6.972052454948425, -4.938537180423737 -4.793286025524139, -2.178766429424286 l-6.972052454948425, -1.452510952949524 -4.938537180423737, -0.4357532784342766 l-12.927347421646118, 1.452510952949524 -5.810043811798096, 1.8882642686367035 l-7.26255476474762, 4.938537180423737 -2.0335152745246887, 2.4692685902118683 m-5.810043811798096, 38.49153995513916 l-14.08935546875, -0.5810043588280678 -15.106114149093628, -3.776528537273407 l-4.502783715724945, -1.8882642686367035 -3.4860262274742126, -2.324017435312271 l-3.9217793941497803, -4.067030549049377 -2.178766429424286, -3.050273060798645 l-1.8882642686367035, -5.229039192199707 0.4357532784342766, -1.1620087176561356 l1.0167576372623444, -0.726255476474762 2.178766429424286, -0.5810043588280678 l12.491593360900879, 0.0 1.7430131137371063, -0.2905021794140339 l0.726255476474762, -0.726255476474762 0.4357532784342766, -1.452510952949524 l-0.14525108970701694, -4.938537180423737 -2.178766429424286, -6.10054612159729 l-2.6145195960998535, -11.039083003997803 1.0167576372623444, -2.4692685902118683 l2.324017435312271, -0.4357532784342766 3.1955239176750183, 0.4357532784342766 l8.569814562797546, 2.324017435312271 1.7430131137371063, 0.0 l1.1620087176561356, -0.5810043588280678 0.5810043588280678, -1.3072597980499268 l0.4357532784342766, -7.8435587882995605 0.5810043588280678, -2.905021905899048 l2.0335152745246887, -1.7430131137371063 2.905021905899048, -1.0167576372623444 l5.810043811798096, 0.0 10.458078384399414, 1.3072597980499268 l3.4860262274742126, -1.5977619588375092 1.7430131137371063, 0.14525108970701694 l7.698307633399963, 4.648034870624542 3.1955239176750183, 0.5810043588280678 l5.955294966697693, -1.1620087176561356 6.972052454948425, -3.3407750725746155 l4.648034870624542, -1.1620087176561356 3.1955239176750183, 1.1620087176561356 l4.212281703948975, 5.08378803730011 2.324017435312271, 0.726255476474762 l2.324017435312271, -0.5810043588280678 4.648034870624542, -2.324017435312271 l6.972052454948425, -5.374290347099304 2.178766429424286, -1.0167576372623444 l0.2905021794140339, -0.5810043588280678 1.3072597980499268, -0.14525108970701694 l1.7430131137371063, 0.726255476474762 1.7430131137371063, 2.905021905899048 l0.4357532784342766, 14.234607219696045 0.14525108970701694, 1.8882642686367035 l1.0167576372623444, 2.178766429424286 1.7430131137371063, 0.8715065568685532 l1.1620087176561356, 0.0 6.391047835350037, -1.8882642686367035 l3.9217793941497803, -1.7430131137371063 3.1955239176750183, -0.4357532784342766 l1.3072597980499268, 0.2905021794140339 1.7430131137371063, 1.452510952949524 l0.5810043588280678, 1.452510952949524 1.1620087176561356, 6.681550145149231 l1.5977619588375092, 5.519541501998901 2.324017435312271, 2.0335152745246887 l4.793286025524139, 0.5810043588280678 2.4692685902118683, 0.8715065568685532 l1.8882642686367035, 2.178766429424286 0.14525108970701694, 1.452510952949524 l-1.0167576372623444, 6.826801300048828 -1.8882642686367035, 4.793286025524139 l-4.212281703948975, 6.391047835350037 -3.1955239176750183, 2.4692685902118683 l-2.905021905899048, 1.5977619588375092 -3.63127738237381, 0.726255476474762 l-17.284879684448242, 1.0167576372623444 -4.648034870624542, 0.0 l0.4357532784342766, -0.4357532784342766 m-55.7764196395874, -13.798853158950806 l3.63127738237381, 0.4357532784342766 6.10054612159729, 0.0 l5.229039192199707, -1.1620087176561356 1.1620087176561356, -1.1620087176561356 l-3.776528537273407, -2.6145195960998535 -5.229039192199707, -0.726255476474762 l-4.067030549049377, 1.1620087176561356 -2.6145195960998535, 1.452510952949524 l-1.1620087176561356, 1.3072597980499268 0.0, 0.5810043588280678 l0.5810043588280678, 0.2905021794140339 m24.983186721801758, -1.5977619588375092 l1.1620087176561356, 1.7430131137371063 4.067030549049377, 0.8715065568685532 l5.6647926568984985, -0.5810043588280678 3.1955239176750183, -1.5977619588375092 l0.4357532784342766, -1.3072597980499268 -0.5810043588280678, -0.5810043588280678 l-1.7430131137371063, -1.1620087176561356 -1.7430131137371063, -0.4357532784342766 l-5.229039192199707, -0.14525108970701694 -2.324017435312271, 0.5810043588280678 l-1.8882642686367035, 1.1620087176561356 0.4357532784342766, 0.0 m-22.22341775894165, 19.6088969707489 l3.776528537273407, 2.6145195960998535 6.391047835350037, 2.324017435312271 l6.2457966804504395, 1.0167576372623444 5.519541501998901, 0.0 l8.715065717697144, -2.178766429424286 5.229039192199707, -3.050273060798645 l2.7597707509994507, -2.905021905899048 " fill="none" stroke="black" stroke-width="1" /></svg>