<?xml version="1.0" encoding="utf-8" ?>
<svg baseProfile="full" height="112.25676906295121" version="1.1" width="101.94394206628203" xmlns="http://www.w3.org/2000/svg" xmlns:ev="http://www.w3.org/2001/xml-events" xmlns:xlink="http://www.w3.org/1999/xlink"><defs /><rect fill="white" height="112.25676906295121" width="101.94394206628203" x="0" y="0" /><path d="M49.156335880979896, 30.564192347228527 m-4.067030549049377, -1.8882642686367035 l-4.938537180423737, 0.0 -1.7430131137371063, 0.726255476474762 l-4.212281703948975, 2.4692685902118683 -4.357532858848572, 3.3407750725746155 l-2.0335152745246887, 1.8882642686367035 -3.4860262274742126, 4.793286025524139 l-2.6145195960998535, 5.955294966697693 -1.3072597980499268, 5.519541501998901 l-0.14525108970701694, 14.234607219696045 1.8882642686367035, 5.519541501998901 l1.5977619588375092, 2.4692685902118683 2.178766429424286, 2.178766429424286 l2.6145195960998535, 2.0335152745246887 2.905021905899048, 1.452510952949524 l6.391047835350037, 2.0335152745246887 3.3407750725746155, 0.5810043588280678 l9.296069741249084, 0.4357532784342766 5.6647926568984985, -1.0167576372623444 l4.648034870624542, -1.8882642686367035 6.2457966804504395, -4.212281703948975 l3.9217793941497803, -4.212281703948975 1.7430131137371063, -2.905021905899048 l2.6145195960998535, -7.553057074546814 0.5810043588280678, -12.055840492248535 l-1.3072597980499268, -4.067030549049377 -2.324017435312271, -3.9217793941497803 l-4.212281703948975, -4.938537180423737 -4.357532858848572, -4.212281703948975 l-3.9217793941497803, -2.7597707509994507 -2.905021905899048, -1.3072597980499268 l-6.10054612159729, -1.3072597980499268 m-40.37980556488037, 14.08935546875 l-1.1620087176561356, -0.726255476474762 0.0, -4.793286025524139 l1.0167576372623444, -6.391047835350037 2.905021905899048, -9.586572051048279 l2.178766429424286, -4.212281703948975 1.7430131137371063, -2.178766429424286 l2.6145195960998535, -0.14525108970701694 8.715065717697144, 9.150818586349487 l1.7430131137371063, 1.0167576372623444 2.0335152745246887, 0.2905021794140339 l2.0335152745246887, -0.4357532784342766 2.178766429424286, -1.7430131137371063 l9.441320896148682, -12.34634280204773 3.4860262274742126, -3.1955239176750183 l2.905021905899048, -1.5977619588375092 2.4692685902118683, -0.14525108970701694 l1.1620087176561356, 0.8715065568685532 1.7430131137371063, 4.212281703948975 l1.7430131137371063, 6.681550145149231 0.8715065568685532, 1.0167576372623444 l1.3072597980499268, 0.4357532784342766 2.324017435312271, -0.2905021794140339 l11.474835872650146, -6.826801300048828 4.648034870624542, -0.5810043588280678 l1.5977619588375092, 0.726255476474762 1.452510952949524, 2.178766429424286 l0.726255476474762, 3.63127738237381 0.5810043588280678, 14.52510952949524 l0.726255476474762, 1.7430131137371063 1.5977619588375092, 1.3072597980499268 l2.178766429424286, 0.5810043588280678 7.407805919647217, 0.2905021794140339 l0.726255476474762, 1.0167576372623444 -0.4357532784342766, 6.681550145149231 l-2.4692685902118683, 9.877074360847473 0.0, 2.4692685902118683 l1.5977619588375092, 4.938537180423737 0.0, 9.877074360847473 l-1.0167576372623444, 3.050273060798645 -3.776528537273407, 6.536298990249634 l-0.726255476474762, 3.1955239176750183 0.14525108970701694, 1.7430131137371063 l1.5977619588375092, 2.4692685902118683 0.4357532784342766, 2.0335152745246887 l-0.14525108970701694, 3.63127738237381 -1.3072597980499268, 1.3072597980499268 l-5.229039192199707, 1.452510952949524 -7.407805919647217, -0.14525108970701694 l-5.6647926568984985, -0.8715065568685532 -2.7597707509994507, 0.2905021794140339 l-0.5810043588280678, 1.1620087176561356 -1.5977619588375092, 7.8435587882995605 l-2.4692685902118683, 3.1955239176750183 -8.134061098098755, -0.14525108970701694 l-5.810043811798096, -1.8882642686367035 -3.3407750725746155, -2.0335152745246887 l-4.793286025524139, 3.3407750725746155 -1.8882642686367035, 0.2905021794140339 l-3.050273060798645, -0.2905021794140339 -3.1955239176750183, -1.1620087176561356 l-2.7597707509994507, -1.7430131137371063 -2.178766429424286, -2.178766429424286 l-1.1620087176561356, -3.1955239176750183 -0.4357532784342766, -7.1173036098480225 l1.452510952949524, -5.519541501998901 -0.14525108970701694, -2.178766429424286 l-1.7430131137371063, 0.4357532784342766 -8.279312252998352, 4.212281703948975 l-5.810043811798096, 1.5977619588375092 -4.212281703948975, -0.14525108970701694 l-1.7430131137371063, -1.3072597980499268 -1.3072597980499268, -2.0335152745246887 l-0.726255476474762, -2.6145195960998535 0.0, -5.810043811798096 l1.8882642686367035, -6.10054612159729 3.9217793941497803, -7.698307633399963 l-1.3072597980499268, 0.0 -3.776528537273407, 1.5977619588375092 l-0.8715065568685532, -0.14525108970701694 -0.5810043588280678, -1.3072597980499268 l-0.14525108970701694, -4.648034870624542 0.8715065568685532, -2.6145195960998535 l3.4860262274742126, -4.793286025524139 9.150818586349487, -10.312827825546265 m16.994377374649048, 6.681550145149231 l0.4357532784342766, -1.3072597980499268 1.452510952949524, 0.2905021794140339 l1.8882642686367035, 1.452510952949524 1.0167576372623444, 2.6145195960998535 l-0.726255476474762, 1.7430131137371063 " fill="none" stroke="black" stroke-width="1" /></svg>