<?xml version="1.0" encoding="utf-8" ?>
<svg baseProfile="full" height="47.62003295123577" version="1.1" width="48.63679103553295" xmlns="http://www.w3.org/2000/svg" xmlns:ev="http://www.w3.org/2001/xml-events" xmlns:xlink="http://www.w3.org/1999/xlink"><defs /><rect fill="white" height="47.62003295123577" width="48.63679103553295" x="0" y="0" /><path d="M15.89383208192885, 17.636845503002405 m2.4692685902118683, -2.905021905899048 l1.452510952949524, -0.726255476474762 2.178766429424286, 0.0 l3.050273060798645, 1.5977619588375092 1.0167576372623444, 1.1620087176561356 l1.1620087176561356, 2.4692685902118683 -0.14525108970701694, 3.050273060798645 l-1.0167576372623444, 2.0335152745246887 -2.905021905899048, 2.324017435312271 l-0.8715065568685532, 0.14525108970701694 -4.067030549049377, -1.0167576372623444 l-2.0335152745246887, -2.0335152745246887 -0.726255476474762, -1.452510952949524 l0.4357532784342766, -3.9217793941497803 m7.553057074546814, -6.2457966804504395 l2.324017435312271, -3.4860262274742126 2.905021905899048, -2.0335152745246887 l3.63127738237381, -1.452510952949524 2.324017435312271, -0.14525108970701694 l5.08378803730011, 0.5810043588280678 1.5977619588375092, 1.452510952949524 l0.726255476474762, 3.050273060798645 -1.5977619588375092, 5.374290347099304 l-2.7597707509994507, 3.050273060798645 1.5977619588375092, -0.2905021794140339 l2.905021905899048, 1.5977619588375092 1.0167576372623444, 1.452510952949524 l0.4357532784342766, 2.6145195960998535 -0.2905021794140339, 1.7430131137371063 l-1.8882642686367035, 2.905021905899048 -1.8882642686367035, 1.8882642686367035 l-3.1955239176750183, 2.0335152745246887 -3.1955239176750183, 0.2905021794140339 l-2.4692685902118683, -0.2905021794140339 -0.2905021794140339, -0.5810043588280678 l1.5977619588375092, -1.0167576372623444 1.1620087176561356, 0.0 l0.5810043588280678, 1.0167576372623444 -2.7597707509994507, 1.7430131137371063 l-5.810043811798096, 0.0 m-3.050273060798645, -24.40218448638916 l-3.4860262274742126, -2.7597707509994507 -1.7430131137371063, -0.726255476474762 l-2.7597707509994507, -0.726255476474762 -2.905021905899048, 1.0167576372623444 l-2.905021905899048, 2.905021905899048 -1.452510952949524, 2.324017435312271 l-1.8882642686367035, 5.955294966697693 0.0, 1.8882642686367035 l0.4357532784342766, 1.7430131137371063 3.4860262274742126, 0.14525108970701694 l-3.050273060798645, 5.229039192199707 -0.14525108970701694, 1.0167576372623444 l0.5810043588280678, 2.0335152745246887 2.4692685902118683, 1.3072597980499268 l6.10054612159729, 1.3072597980499268 7.8435587882995605, 0.0 m0.14525108970701694, -17.284879684448242 l0.0, 1.0167576372623444 m-3.63127738237381, -0.2905021794140339 l-0.4357532784342766, 1.452510952949524 -0.2905021794140339, -0.726255476474762 m0.4357532784342766, 3.9217793941497803 l0.5810043588280678, 0.8715065568685532 0.5810043588280678, 0.14525108970701694 l0.8715065568685532, -0.8715065568685532 m-0.726255476474762, 4.212281703948975 l-3.1955239176750183, 9.150818586349487 -0.4357532784342766, 2.7597707509994507 l0.2905021794140339, 2.0335152745246887 3.3407750725746155, 2.7597707509994507 l2.0335152745246887, 0.8715065568685532 3.1955239176750183, 0.726255476474762 l4.938537180423737, -0.14525108970701694 m-3.63127738237381, -17.430131435394287 l1.452510952949524, -1.1620087176561356 2.6145195960998535, -0.4357532784342766 l1.8882642686367035, 0.2905021794140339 2.7597707509994507, 1.3072597980499268 l2.4692685902118683, 2.178766429424286 1.8882642686367035, 3.1955239176750183 l0.14525108970701694, 1.8882642686367035 -0.2905021794140339, 2.178766429424286 l-1.7430131137371063, 3.050273060798645 " fill="none" stroke="black" stroke-width="1" /></svg>