<?xml version="1.0" encoding="utf-8" ?>
<svg baseProfile="full" height="70.56970606558025" version="1.1" width="76.67025060392916" xmlns="http://www.w3.org/2000/svg" xmlns:ev="http://www.w3.org/2001/xml-events" xmlns:xlink="http://www.w3.org/1999/xlink"><defs /><rect fill="white" height="70.56970606558025" width="76.67025060392916" x="0" y="0" /><path d="M43.49153880961239, 17.782097226008773 m-1.8882642686367035, -0.14525108970701694 l-4.067030549049377, 1.5977619588375092 -3.63127738237381, 2.178766429424286 l-2.905021905899048, 3.3407750725746155 -1.7430131137371063, 4.502783715724945 l-0.4357532784342766, 5.08378803730011 0.0, 2.7597707509994507 l2.0335152745246887, 6.10054612159729 1.3072597980499268, 2.0335152745246887 l2.905021905899048, 2.4692685902118683 4.793286025524139, 0.4357532784342766 l3.776528537273407, -1.5977619588375092 3.63127738237381, -2.6145195960998535 l3.1955239176750183, -3.776528537273407 1.3072597980499268, -2.324017435312271 l1.7430131137371063, -4.938537180423737 0.2905021794140339, -4.938537180423737 l-3.776528537273407, -4.212281703948975 -6.972052454948425, -5.6647926568984985 l-0.2905021794140339, -1.452510952949524 m2.6145195960998535, 2.6145195960998535 l0.2905021794140339, -1.0167576372623444 7.553057074546814, -7.553057074546814 l3.776528537273407, -2.6145195960998535 2.324017435312271, -0.8715065568685532 l0.0, 2.7597707509994507 -4.067030549049377, 10.748580694198608 l-0.4357532784342766, 4.067030549049377 2.178766429424286, 0.14525108970701694 l9.441320896148682, -5.08378803730011 2.178766429424286, -0.2905021794140339 l0.5810043588280678, 0.726255476474762 -4.648034870624542, 7.8435587882995605 l-1.8882642686367035, 4.357532858848572 -0.5810043588280678, 2.6145195960998535 l1.5977619588375092, 0.726255476474762 1.5977619588375092, 0.0 l5.374290347099304, -0.8715065568685532 0.726255476474762, 0.8715065568685532 l0.2905021794140339, 2.6145195960998535 -1.3072597980499268, 4.357532858848572 l-6.681550145149231, 7.407805919647217 1.0167576372623444, 0.726255476474762 l3.050273060798645, 0.726255476474762 -2.905021905899048, 3.1955239176750183 l-10.748580694198608, 5.374290347099304 4.357532858848572, -0.726255476474762 l-1.7430131137371063, 2.0335152745246887 -5.6647926568984985, 3.050273060798645 l-1.8882642686367035, 0.726255476474762 -2.6145195960998535, 0.2905021794140339 l-0.8715065568685532, -0.14525108970701694 -1.1620087176561356, -1.5977619588375092 l-0.14525108970701694, -1.7430131137371063 -0.8715065568685532, 0.2905021794140339 l-1.1620087176561356, -0.4357532784342766 -1.3072597980499268, -1.3072597980499268 l-6.391047835350037, -8.569814562797546 0.0, -4.648034870624542 m9.731823205947876, -30.6479811668396 l-2.905021905899048, -3.050273060798645 -2.6145195960998535, -4.648034870624542 l-2.6145195960998535, -3.1955239176750183 -2.6145195960998535, -0.8715065568685532 l-1.0167576372623444, 0.5810043588280678 -0.726255476474762, 2.324017435312271 l-2.6145195960998535, -2.0335152745246887 -2.4692685902118683, -0.5810043588280678 l-1.3072597980499268, 0.4357532784342766 -1.3072597980499268, 1.7430131137371063 l-0.8715065568685532, 2.178766429424286 -1.452510952949524, 8.715065717697144 l-4.938537180423737, -1.452510952949524 -2.0335152745246887, -0.14525108970701694 l-2.178766429424286, 0.0 -2.178766429424286, 1.0167576372623444 l-3.4860262274742126, 3.63127738237381 -1.3072597980499268, 2.4692685902118683 l-0.726255476474762, 2.7597707509994507 0.0, 7.698307633399963 l1.7430131137371063, 2.324017435312271 1.8882642686367035, 0.4357532784342766 l0.14525108970701694, 0.726255476474762 -0.5810043588280678, 7.1173036098480225 l0.4357532784342766, 4.938537180423737 1.0167576372623444, 1.7430131137371063 l2.6145195960998535, 1.7430131137371063 4.502783715724945, 0.8715065568685532 l1.8882642686367035, 2.4692685902118683 1.7430131137371063, 4.067030549049377 l2.4692685902118683, 1.8882642686367035 1.452510952949524, 0.14525108970701694 l1.7430131137371063, -0.5810043588280678 2.178766429424286, -2.0335152745246887 l1.0167576372623444, 0.14525108970701694 0.8715065568685532, -1.0167576372623444 l4.502783715724945, -11.474835872650146 2.7597707509994507, -3.776528537273407 m-3.1955239176750183, -17.430131435394287 l0.5810043588280678, 0.726255476474762 0.726255476474762, -0.14525108970701694 l0.14525108970701694, -2.7597707509994507 -1.0167576372623444, -0.14525108970701694 l-0.726255476474762, 0.726255476474762 0.726255476474762, 1.0167576372623444 m11.910589933395386, 2.7597707509994507 l1.0167576372623444, 0.2905021794140339 0.8715065568685532, -0.4357532784342766 l0.0, -1.8882642686367035 -0.4357532784342766, -0.726255476474762 l-1.1620087176561356, 0.0 " fill="none" stroke="black" stroke-width="1" /></svg>