<?xml version="1.0" encoding="utf-8" ?>
<svg baseProfile="full" height="60.837882375344634" version="1.1" width="60.111627178266644" xmlns="http://www.w3.org/2000/svg" xmlns:ev="http://www.w3.org/2001/xml-events" xmlns:xlink="http://www.w3.org/1999/xlink"><defs /><rect fill="white" height="60.837882375344634" width="60.111627178266644" x="0" y="0" /><path d="M10.955295413732529, 15.312826400622725 m4.793286025524139, 3.776528537273407 l1.3072597980499268, 1.5977619588375092 -9.731823205947876, -0.8715065568685532 l0.4357532784342766, 1.5977619588375092 6.536298990249634, 6.10054612159729 l-7.26255476474762, 0.14525108970701694 -0.4357532784342766, 0.726255476474762 l2.7597707509994507, 2.178766429424286 2.7597707509994507, 1.452510952949524 l-0.5810043588280678, 0.726255476474762 -6.10054612159729, 3.4860262274742126 l-0.4357532784342766, 1.8882642686367035 1.0167576372623444, 3.63127738237381 l1.452510952949524, 1.1620087176561356 2.6145195960998535, 0.726255476474762 l5.229039192199707, -1.0167576372623444 0.5810043588280678, 0.8715065568685532 l-0.4357532784342766, 3.050273060798645 1.0167576372623444, 3.3407750725746155 l1.3072597980499268, 1.5977619588375092 1.452510952949524, 0.8715065568685532 l1.5977619588375092, -0.8715065568685532 3.776528537273407, -5.519541501998901 l1.8882642686367035, 1.8882642686367035 3.63127738237381, 6.10054612159729 l1.452510952949524, 1.1620087176561356 0.726255476474762, -0.14525108970701694 l1.7430131137371063, -7.8435587882995605 6.536298990249634, 7.407805919647217 l1.8882642686367035, 1.3072597980499268 1.452510952949524, -5.6647926568984985 l-1.0167576372623444, -12.782095670700073 5.810043811798096, 4.938537180423737 l4.648034870624542, 2.6145195960998535 1.5977619588375092, 0.4357532784342766 l-1.5977619588375092, -3.63127738237381 -4.502783715724945, -5.955294966697693 l0.14525108970701694, -0.726255476474762 3.776528537273407, -1.3072597980499268 l1.7430131137371063, -1.1620087176561356 0.5810043588280678, -1.8882642686367035 l-0.14525108970701694, -1.452510952949524 -2.324017435312271, -2.178766429424286 l-8.86031687259674, -2.324017435312271 2.905021905899048, -2.324017435312271 l1.8882642686367035, -2.7597707509994507 0.4357532784342766, -3.63127738237381 l-1.3072597980499268, -2.324017435312271 -9.441320896148682, 4.502783715724945 l-1.8882642686367035, -3.9217793941497803 -1.452510952949524, -1.1620087176561356 l-1.7430131137371063, -0.5810043588280678 -3.3407750725746155, 0.14525108970701694 l-2.4692685902118683, 0.726255476474762 -2.7597707509994507, 1.1620087176561356 l-1.1620087176561356, 1.5977619588375092 -2.178766429424286, -5.08378803730011 l-1.8882642686367035, -6.10054612159729 -3.050273060798645, 1.7430131137371063 l-1.7430131137371063, 1.5977619588375092 -1.5977619588375092, 5.519541501998901 l0.14525108970701694, 1.452510952949524 3.4860262274742126, 3.4860262274742126 l1.0167576372623444, 2.178766429424286 m11.329585313796997, 17.139629125595093 l-5.08378803730011, -3.776528537273407 -1.8882642686367035, -2.178766429424286 l-1.8882642686367035, -5.374290347099304 0.4357532784342766, -3.3407750725746155 l1.3072597980499268, -1.5977619588375092 5.229039192199707, -1.5977619588375092 l5.374290347099304, 2.4692685902118683 3.776528537273407, 2.4692685902118683 l2.324017435312271, 2.4692685902118683 1.7430131137371063, 2.7597707509994507 l-0.726255476474762, 4.212281703948975 -2.905021905899048, 2.7597707509994507 l-4.067030549049377, 1.8882642686367035 -2.178766429424286, 0.0 l-2.7597707509994507, -2.4692685902118683 m-1.8882642686367035, -5.955294966697693 l1.8882642686367035, 2.178766429424286 3.63127738237381, 1.8882642686367035 l1.452510952949524, -0.8715065568685532 1.8882642686367035, -2.0335152745246887 m-6.2457966804504395, -7.698307633399963 l0.14525108970701694, 4.212281703948975 m2.905021905899048, -3.3407750725746155 l-0.5810043588280678, 2.178766429424286 0.0, 2.4692685902118683 " fill="none" stroke="black" stroke-width="1" /></svg>