<?xml version="1.0" encoding="utf-8" ?>
<svg baseProfile="full" height="62.435644026845694" version="1.1" width="66.06692219153047" xmlns="http://www.w3.org/2000/svg" xmlns:ev="http://www.w3.org/2001/xml-events" xmlns:xlink="http://www.w3.org/1999/xlink"><defs /><rect fill="white" height="62.435644026845694" width="66.06692219153047" x="0" y="0" /><path d="M24.318395415320992, 20.687118116766214 m-1.5977619588375092, 0.2905021794140339 l-1.0167576372623444, 1.1620087176561356 -0.8715065568685532, 5.6647926568984985 l0.4357532784342766, 7.988809943199158 1.7430131137371063, 4.067030549049377 l1.3072597980499268, 1.5977619588375092 3.1955239176750183, 2.4692685902118683 l2.0335152745246887, 0.8715065568685532 7.26255476474762, 1.1620087176561356 l2.7597707509994507, 0.0 2.178766429424286, -0.8715065568685532 l3.1955239176750183, -3.050273060798645 1.8882642686367035, -4.212281703948975 l0.14525108970701694, -7.8435587882995605 -1.7430131137371063, -4.648034870624542 l-2.905021905899048, -3.4860262274742126 -1.7430131137371063, -1.3072597980499268 l-4.357532858848572, -1.8882642686367035 -5.08378803730011, -0.726255476474762 l-4.938537180423737, 0.14525108970701694 -1.8882642686367035, 1.0167576372623444 l-2.905021905899048, 2.905021905899048 -0.5810043588280678, 1.5977619588375092 l-0.2905021794140339, 3.3407750725746155 m9.00556743144989, -0.8715065568685532 l-0.8715065568685532, 0.2905021794140339 -0.4357532784342766, 2.905021905899048 l-1.1620087176561356, -1.1620087176561356 -1.5977619588375092, 0.14525108970701694 l0.0, 1.0167576372623444 1.3072597980499268, 1.0167576372623444 m13.072597980499268, -2.6145195960998535 l-0.8715065568685532, -0.4357532784342766 m-4.357532858848572, 14.379857778549194 l0.5810043588280678, -1.0167576372623444 0.0, -1.3072597980499268 l-0.8715065568685532, -0.8715065568685532 m-18.01113486289978, -16.558624505996704 l-2.7597707509994507, -1.0167576372623444 -1.8882642686367035, 0.0 l-2.0335152745246887, 1.0167576372623444 -4.648034870624542, 4.067030549049377 l2.178766429424286, 1.7430131137371063 0.4357532784342766, 1.5977619588375092 l-0.5810043588280678, 9.00556743144989 1.1620087176561356, 0.726255476474762 l5.519541501998901, 0.2905021794140339 1.0167576372623444, 0.8715065568685532 l0.2905021794140339, 4.067030549049377 -2.6145195960998535, 13.217849731445312 l2.7597707509994507, -0.2905021794140339 5.6647926568984985, -3.63127738237381 l3.776528537273407, -1.3072597980499268 1.0167576372623444, 0.0 l1.0167576372623444, 1.5977619588375092 1.3072597980499268, -5.08378803730011 l0.726255476474762, -12.927347421646118 m-15.832369327545166, -9.731823205947876 l-0.726255476474762, -1.0167576372623444 -1.3072597980499268, 5.955294966697693 l0.726255476474762, 0.8715065568685532 4.212281703948975, 0.8715065568685532 l1.0167576372623444, 2.324017435312271 0.4357532784342766, 5.374290347099304 l0.8715065568685532, 0.5810043588280678 3.9217793941497803, 0.4357532784342766 l1.8882642686367035, 1.1620087176561356 0.4357532784342766, 4.648034870624542 l-1.1620087176561356, 9.586572051048279 0.2905021794140339, 0.4357532784342766 m-9.00556743144989, -37.76528358459473 l0.2905021794140339, -2.178766429424286 1.452510952949524, -2.324017435312271 l6.972052454948425, -5.374290347099304 4.648034870624542, -2.178766429424286 l4.938537180423737, -1.5977619588375092 4.357532858848572, -0.8715065568685532 l5.519541501998901, 0.4357532784342766 1.1620087176561356, 1.5977619588375092 l0.14525108970701694, 2.324017435312271 -0.726255476474762, 3.1955239176750183 l-2.324017435312271, 5.08378803730011 0.0, 1.5977619588375092 l0.5810043588280678, 1.1620087176561356 2.4692685902118683, 0.726255476474762 l9.877074360847473, 1.0167576372623444 2.0335152745246887, 0.726255476474762 l1.3072597980499268, 1.0167576372623444 0.0, 4.067030549049377 l-3.4860262274742126, 5.374290347099304 -0.726255476474762, 1.8882642686367035 l-0.2905021794140339, 2.7597707509994507 5.810043811798096, 2.324017435312271 l2.4692685902118683, 2.0335152745246887 0.14525108970701694, 1.7430131137371063 l-0.726255476474762, 2.324017435312271 -2.324017435312271, 2.4692685902118683 l-2.4692685902118683, 2.0335152745246887 -4.502783715724945, 2.6145195960998535 l-1.5977619588375092, 0.2905021794140339 -1.5977619588375092, -0.2905021794140339 l0.0, -5.374290347099304 1.3072597980499268, -3.776528537273407 l2.7597707509994507, -5.08378803730011 2.324017435312271, -3.050273060798645 " fill="none" stroke="black" stroke-width="1" /></svg>