<?xml version="1.0" encoding="utf-8" ?>
<svg baseProfile="full" height="56.77085103467107" version="1.1" width="61.41888616606593" xmlns="http://www.w3.org/2000/svg" xmlns:ev="http://www.w3.org/2001/xml-events" xmlns:xlink="http://www.w3.org/1999/xlink"><defs /><rect fill="white" height="56.77085103467107" width="61.41888616606593" x="0" y="0" /><path d="M18.508351109921932, 10.083788111805916 m0.726255476474762, -0.5810043588280678 l2.0335152745246887, -0.2905021794140339 5.374290347099304, -3.9217793941497803 l2.324017435312271, -0.2905021794140339 2.324017435312271, 1.452510952949524 l1.1620087176561356, 2.0335152745246887 0.5810043588280678, 5.810043811798096 l0.726255476474762, 0.4357532784342766 7.407805919647217, -2.905021905899048 l3.9217793941497803, -0.5810043588280678 0.4357532784342766, 5.229039192199707 l2.178766429424286, 1.7430131137371063 4.502783715724945, 2.178766429424286 l3.050273060798645, 2.6145195960998535 0.8715065568685532, 1.5977619588375092 l0.2905021794140339, 2.6145195960998535 -1.1620087176561356, 2.0335152745246887 l-0.4357532784342766, 2.0335152745246887 0.726255476474762, 14.08935546875 l-0.2905021794140339, 2.0335152745246887 -1.1620087176561356, 2.905021905899048 l-1.8882642686367035, 1.1620087176561356 -1.452510952949524, 0.2905021794140339 l-3.9217793941497803, -3.9217793941497803 -2.6145195960998535, -1.5977619588375092 l-1.452510952949524, -0.14525108970701694 -2.324017435312271, 0.0 l-6.391047835350037, 1.7430131137371063 -2.7597707509994507, 0.2905021794140339 l-6.536298990249634, 0.0 -3.4860262274742126, -1.452510952949524 l-2.324017435312271, 2.7597707509994507 -0.8715065568685532, 0.726255476474762 l-1.0167576372623444, 0.14525108970701694 -0.8715065568685532, 0.0 l-1.5977619588375092, -1.5977619588375092 -5.955294966697693, -14.52510952949524 l-2.6145195960998535, -4.067030549049377 -1.0167576372623444, -2.4692685902118683 l0.14525108970701694, -3.9217793941497803 1.8882642686367035, -2.905021905899048 l6.2457966804504395, -5.6647926568984985 4.648034870624542, -2.0335152745246887 l2.6145195960998535, -0.2905021794140339 1.5977619588375092, -0.8715065568685532 l0.0, -5.229039192199707 m3.050273060798645, 13.798853158950806 l-2.7597707509994507, -0.14525108970701694 -1.5977619588375092, 0.726255476474762 l-2.6145195960998535, 3.050273060798645 -1.0167576372623444, 2.4692685902118683 l0.0, 4.938537180423737 1.1620087176561356, 1.8882642686367035 l2.7597707509994507, 2.6145195960998535 3.776528537273407, 1.0167576372623444 l11.329585313796997, -0.2905021794140339 1.3072597980499268, -2.905021905899048 l-0.14525108970701694, -10.02232551574707 -1.3072597980499268, -1.3072597980499268 l-3.050273060798645, -0.14525108970701694 -5.519541501998901, -1.8882642686367035 l-2.7597707509994507, -1.452510952949524 -5.955294966697693, -1.452510952949524 m5.519541501998901, 11.039083003997803 l-1.3072597980499268, 1.452510952949524 0.14525108970701694, 1.452510952949524 l0.726255476474762, 0.4357532784342766 2.6145195960998535, 0.0 l0.726255476474762, -0.2905021794140339 0.14525108970701694, -0.726255476474762 l-0.2905021794140339, 0.726255476474762 1.0167576372623444, 1.452510952949524 l4.212281703948975, -0.2905021794140339 0.5810043588280678, -0.726255476474762 l-0.4357532784342766, -4.357532858848572 -8.134061098098755, 0.0 m-1.1620087176561356, -3.1955239176750183 " fill="none" stroke="black" stroke-width="1" /></svg>