<?xml version="1.0" encoding="utf-8" ?>
<svg baseProfile="full" height="81.02778349071741" version="1.1" width="76.67025103233755" xmlns="http://www.w3.org/2000/svg" xmlns:ev="http://www.w3.org/2001/xml-events" xmlns:xlink="http://www.w3.org/1999/xlink"><defs /><rect fill="white" height="81.02778349071741" width="76.67025103233755" x="0" y="0" /><path d="M46.68706391938031, 23.592141726985574 m2.4692685902118683, -3.3407750725746155 l3.050273060798645, -2.0335152745246887 2.905021905899048, 0.0 l1.7430131137371063, 1.452510952949524 0.5810043588280678, 2.0335152745246887 l-1.0167576372623444, 3.1955239176750183 -2.178766429424286, 3.050273060798645 l-2.0335152745246887, 1.8882642686367035 -1.452510952949524, 0.726255476474762 m-5.229039192199707, -6.2457966804504395 l-1.5977619588375092, -1.8882642686367035 -3.3407750725746155, -0.726255476474762 l-4.357532858848572, 0.8715065568685532 -4.067030549049377, 2.7597707509994507 m-0.4357532784342766, -0.726255476474762 l-1.0167576372623444, -2.4692685902118683 -1.7430131137371063, -1.5977619588375092 l-3.1955239176750183, -1.3072597980499268 -2.905021905899048, 0.5810043588280678 l-1.1620087176561356, 1.8882642686367035 0.2905021794140339, 2.905021905899048 l2.178766429424286, 3.4860262274742126 1.7430131137371063, 1.1620087176561356 m0.726255476474762, 0.726255476474762 l-0.8715065568685532, 6.536298990249634 -3.776528537273407, 7.1173036098480225 l-0.5810043588280678, 3.3407750725746155 1.1620087176561356, 2.6145195960998535 l2.324017435312271, 2.324017435312271 5.374290347099304, 2.324017435312271 l3.1955239176750183, 0.5810043588280678 2.178766429424286, 0.0 l2.0335152745246887, -0.5810043588280678 3.4860262274742126, -2.178766429424286 l9.150818586349487, -15.832369327545166 0.8715065568685532, -3.050273060798645 l-0.14525108970701694, -1.1620087176561356 m-16.413373947143555, 14.379857778549194 l-9.877074360847473, -1.0167576372623444 3.3407750725746155, 3.3407750725746155 l0.14525108970701694, 2.324017435312271 2.324017435312271, -1.3072597980499268 l5.229039192199707, -0.4357532784342766 -1.0167576372623444, -1.7430131137371063 m6.10054612159729, -13.508352041244507 l-1.0167576372623444, 1.5977619588375092 -0.5810043588280678, 2.6145195960998535 l1.0167576372623444, 0.2905021794140339 1.7430131137371063, -1.1620087176561356 l0.726255476474762, -2.324017435312271 -1.0167576372623444, -0.726255476474762 m-11.039083003997803, -1.452510952949524 l-1.0167576372623444, 1.3072597980499268 -0.14525108970701694, 1.452510952949524 l0.2905021794140339, 0.8715065568685532 1.5977619588375092, 0.4357532784342766 l1.8882642686367035, -1.3072597980499268 0.8715065568685532, -1.452510952949524 l0.0, -0.726255476474762 -1.1620087176561356, -1.1620087176561356 m6.681550145149231, -15.832369327545166 l-4.067030549049377, -3.4860262274742126 -4.648034870624542, -2.0335152745246887 l-3.3407750725746155, -0.5810043588280678 -6.972052454948425, 0.4357532784342766 l-4.357532858848572, 1.452510952949524 -4.067030549049377, 2.4692685902118683 l-2.7597707509994507, 2.905021905899048 -3.1955239176750183, 5.374290347099304 l-1.3072597980499268, 6.826801300048828 0.2905021794140339, 3.9217793941497803 l0.726255476474762, 0.0 7.26255476474762, -8.86031687259674 l2.324017435312271, -2.0335152745246887 2.0335152745246887, -0.8715065568685532 l-0.4357532784342766, 2.6145195960998535 -3.1955239176750183, 5.519541501998901 l-1.8882642686367035, 4.793286025524139 -1.452510952949524, 7.1173036098480225 l-0.2905021794140339, 5.229039192199707 1.1620087176561356, 7.698307633399963 l2.0335152745246887, 5.6647926568984985 0.8715065568685532, -0.4357532784342766 l1.0167576372623444, -2.4692685902118683 2.0335152745246887, -6.826801300048828 l0.8715065568685532, -1.5977619588375092 0.726255476474762, 0.0 l0.5810043588280678, 1.8882642686367035 2.324017435312271, 19.6088969707489 l1.452510952949524, 5.08378803730011 0.726255476474762, 0.14525108970701694 l1.0167576372623444, -0.8715065568685532 3.4860262274742126, -5.810043811798096 l2.6145195960998535, -3.4860262274742126 1.452510952949524, -1.1620087176561356 l0.726255476474762, 0.2905021794140339 0.14525108970701694, 2.0335152745246887 l-2.0335152745246887, 8.42456340789795 0.8715065568685532, 0.14525108970701694 l3.1955239176750183, -2.178766429424286 5.810043811798096, -7.698307633399963 l8.134061098098755, -14.08935546875 0.5810043588280678, 1.1620087176561356 l-0.2905021794140339, 9.296069741249084 2.178766429424286, -2.905021905899048 l11.474835872650146, -22.51391887664795 0.8715065568685532, 0.14525108970701694 l0.2905021794140339, 0.726255476474762 1.8882642686367035, 9.150818586349487 l1.452510952949524, -1.3072597980499268 1.5977619588375092, -4.793286025524139 l0.5810043588280678, -5.08378803730011 -0.2905021794140339, -5.810043811798096 l-1.5977619588375092, -4.793286025524139 -1.3072597980499268, -2.4692685902118683 l3.9217793941497803, 2.7597707509994507 0.726255476474762, -1.7430131137371063 l-0.14525108970701694, -2.7597707509994507 -2.4692685902118683, -5.374290347099304 l-3.4860262274742126, -4.067030549049377 -4.793286025524139, -3.776528537273407 l1.0167576372623444, -2.4692685902118683 -2.6145195960998535, 0.2905021794140339 l-3.3407750725746155, 1.5977619588375092 -10.458078384399414, 6.391047835350037 l-1.5977619588375092, -0.5810043588280678 -4.793286025524139, -3.9217793941497803 l-3.1955239176750183, -1.452510952949524 -0.4357532784342766, 0.726255476474762 l0.2905021794140339, 5.229039192199707 " fill="none" stroke="black" stroke-width="1" /></svg>