<?xml version="1.0" encoding="utf-8" ?>
<svg baseProfile="full" height="85.96632000990212" version="1.1" width="90.61435527168214" xmlns="http://www.w3.org/2000/svg" xmlns:ev="http://www.w3.org/2001/xml-events" xmlns:xlink="http://www.w3.org/1999/xlink"><defs /><rect fill="white" height="85.96632000990212" width="90.61435527168214" x="0" y="0" /><path d="M35.64797996543348, 16.039082454517484 m-1.8882642686367035, 0.14525108970701694 l-1.3072597980499268, 0.726255476474762 -6.972052454948425, 6.826801300048828 l-3.9217793941497803, 5.6647926568984985 -2.324017435312271, 8.42456340789795 l-0.5810043588280678, 7.553057074546814 0.2905021794140339, 4.067030549049377 l3.9217793941497803, 9.00556743144989 2.178766429424286, 2.6145195960998535 l2.324017435312271, 1.8882642686367035 6.826801300048828, 3.1955239176750183 l4.793286025524139, 0.4357532784342766 5.229039192199707, -0.5810043588280678 l9.296069741249084, -3.63127738237381 1.8882642686367035, -1.452510952949524 l2.6145195960998535, -3.1955239176750183 3.3407750725746155, -8.279312252998352 l0.5810043588280678, -4.502783715724945 -0.14525108970701694, -4.502783715724945 l-3.1955239176750183, -14.379857778549194 -1.452510952949524, -3.050273060798645 l-3.776528537273407, -3.776528537273407 -2.905021905899048, -1.5977619588375092 l-4.648034870624542, -1.1620087176561356 -3.4860262274742126, -0.2905021794140339 l-4.212281703948975, 0.4357532784342766 -4.067030549049377, 1.1620087176561356 l5.08378803730011, -2.6145195960998535 12.782095670700073, -7.988809943199158 l5.229039192199707, -2.178766429424286 0.726255476474762, 1.3072597980499268 l-2.0335152745246887, 5.519541501998901 -3.1955239176750183, 6.391047835350037 l-1.5977619588375092, 4.648034870624542 12.20109224319458, -5.374290347099304 l6.681550145149231, -4.067030549049377 1.5977619588375092, -0.4357532784342766 l0.14525108970701694, 1.1620087176561356 -0.726255476474762, 2.178766429424286 l-8.86031687259674, 17.284879684448242 2.7597707509994507, -0.14525108970701694 l4.938537180423737, -2.178766429424286 10.603330135345459, -6.10054612159729 l2.0335152745246887, -0.4357532784342766 0.2905021794140339, 1.0167576372623444 l-0.4357532784342766, 1.7430131137371063 -7.698307633399963, 12.636845111846924 l-4.212281703948975, 5.519541501998901 1.5977619588375092, -0.4357532784342766 l8.134061098098755, -5.519541501998901 4.212281703948975, -2.324017435312271 l1.3072597980499268, -0.2905021794140339 -6.826801300048828, 7.988809943199158 l-4.067030549049377, 3.9217793941497803 -11.039083003997803, 10.16757607460022 l-5.519541501998901, 4.212281703948975 10.893832445144653, -6.10054612159729 l-0.2905021794140339, 0.726255476474762 -11.329585313796997, 11.039083003997803 l-5.08378803730011, 2.324017435312271 -4.938537180423737, 1.1620087176561356 l-2.0335152745246887, -2.0335152745246887 0.0, -4.793286025524139 l3.776528537273407, -8.279312252998352 2.178766429424286, -3.050273060798645 l-0.2905021794140339, 1.1620087176561356 -9.296069741249084, 13.653602600097656 l-5.519541501998901, 5.374290347099304 -0.726255476474762, 0.2905021794140339 l-1.0167576372623444, -2.4692685902118683 2.324017435312271, -10.16757607460022 l-3.63127738237381, 3.3407750725746155 -9.586572051048279, 11.910589933395386 l-3.1955239176750183, 3.1955239176750183 -1.1620087176561356, 0.2905021794140339 l-0.4357532784342766, -4.502783715724945 1.3072597980499268, -6.681550145149231 l2.4692685902118683, -7.553057074546814 -4.938537180423737, 3.9217793941497803 l-4.067030549049377, 4.357532858848572 -2.0335152745246887, 1.5977619588375092 l-1.5977619588375092, 0.5810043588280678 -0.8715065568685532, -6.826801300048828 l3.9217793941497803, -14.08935546875 0.14525108970701694, -2.324017435312271 l-4.938537180423737, 2.0335152745246887 -1.7430131137371063, 0.14525108970701694 l-1.452510952949524, -1.5977619588375092 0.5810043588280678, -5.810043811798096 l6.972052454948425, -13.653602600097656 -2.6145195960998535, 2.178766429424286 l-1.0167576372623444, 0.4357532784342766 0.726255476474762, -1.1620087176561356 l8.42456340789795, -6.681550145149231 8.134061098098755, -5.229039192199707 l-6.972052454948425, 2.7597707509994507 -1.7430131137371063, 0.0 l0.0, -1.3072597980499268 5.08378803730011, -6.536298990249634 l5.08378803730011, -4.067030549049377 -0.726255476474762, 0.0 m2.324017435312271, 16.558624505996704 l-1.7430131137371063, 2.6145195960998535 0.14525108970701694, 2.4692685902118683 l1.1620087176561356, 2.0335152745246887 2.0335152745246887, 0.726255476474762 l1.1620087176561356, -0.4357532784342766 1.7430131137371063, -2.0335152745246887 l-0.2905021794140339, -1.452510952949524 -1.452510952949524, -1.3072597980499268 l2.0335152745246887, -3.3407750725746155 m10.603330135345459, 0.14525108970701694 l-1.1620087176561356, 1.452510952949524 -0.14525108970701694, 1.1620087176561356 l0.5810043588280678, 2.0335152745246887 1.8882642686367035, 2.324017435312271 l2.178766429424286, 0.726255476474762 1.8882642686367035, -1.0167576372623444 l1.452510952949524, -1.8882642686367035 0.14525108970701694, -0.726255476474762 l-1.1620087176561356, -0.726255476474762 -2.178766429424286, -0.2905021794140339 " fill="none" stroke="black" stroke-width="1" /></svg>