<?xml version="1.0" encoding="utf-8" ?>
<svg baseProfile="full" height="39.050217969343066" version="1.1" width="38.46921266056597" xmlns="http://www.w3.org/2000/svg" xmlns:ev="http://www.w3.org/2001/xml-events" xmlns:xlink="http://www.w3.org/1999/xlink"><defs /><rect fill="white" height="39.050217969343066" width="38.46921266056597" x="0" y="0" /><path d="M14.150817543268204, 17.346342466771603 m-3.1955239176750183, 3.1955239176750183 l-1.3072597980499268, 2.905021905899048 0.0, 0.726255476474762 l1.8882642686367035, 2.4692685902118683 1.8882642686367035, 0.5810043588280678 l2.6145195960998535, -0.4357532784342766 1.0167576372623444, -1.452510952949524 l1.5977619588375092, -1.1620087176561356 1.1620087176561356, -2.324017435312271 l0.2905021794140339, -2.6145195960998535 -0.5810043588280678, -1.452510952949524 l-1.5977619588375092, -1.1620087176561356 -3.1955239176750183, 0.8715065568685532 m-1.1620087176561356, 2.4692685902118683 l0.4357532784342766, 0.14525108970701694 m2.905021905899048, 0.0 l0.0, 0.0 m0.0, 0.0 l0.0, 0.0 m0.0, 0.2905021794140339 l0.2905021794140339, -0.2905021794140339 m-6.2457966804504395, -1.7430131137371063 l0.0, -2.324017435312271 1.3072597980499268, -1.3072597980499268 l1.5977619588375092, 0.2905021794140339 0.5810043588280678, 2.0335152745246887 m4.212281703948975, -0.2905021794140339 l0.5810043588280678, -1.7430131137371063 1.452510952949524, -1.0167576372623444 l0.4357532784342766, 0.8715065568685532 0.0, 2.4692685902118683 m-13.798853158950806, -5.810043811798096 l-0.726255476474762, 0.2905021794140339 -1.1620087176561356, 3.3407750725746155 l0.0, 3.1955239176750183 0.726255476474762, 2.4692685902118683 l-1.1620087176561356, 1.3072597980499268 0.0, 2.6145195960998535 l1.3072597980499268, 2.178766429424286 1.5977619588375092, -0.14525108970701694 l5.229039192199707, -2.4692685902118683 -1.452510952949524, 0.2905021794140339 l-3.1955239176750183, 3.050273060798645 -0.726255476474762, 4.648034870624542 l0.726255476474762, 0.4357532784342766 2.324017435312271, -0.14525108970701694 l2.905021905899048, 1.452510952949524 1.5977619588375092, -0.14525108970701694 l0.8715065568685532, -0.2905021794140339 1.1620087176561356, -1.3072597980499268 l2.7597707509994507, -5.374290347099304 2.6145195960998535, 0.726255476474762 l6.2457966804504395, -7.8435587882995605 1.1620087176561356, -3.3407750725746155 l0.14525108970701694, -3.1955239176750183 -2.7597707509994507, -4.938537180423737 l-1.452510952949524, -1.7430131137371063 -3.9217793941497803, -1.5977619588375092 l-2.178766429424286, 0.4357532784342766 -1.1620087176561356, 1.3072597980499268 l0.0, 0.726255476474762 -1.7430131137371063, -0.8715065568685532 l-1.7430131137371063, -0.14525108970701694 -1.1620087176561356, 2.6145195960998535 l-1.7430131137371063, 1.5977619588375092 -0.5810043588280678, 1.5977619588375092 l-0.5810043588280678, -0.726255476474762 -0.8715065568685532, -0.14525108970701694 l-2.324017435312271, 0.8715065568685532 m11.474835872650146, 16.8491268157959 l2.7597707509994507, 0.4357532784342766 11.184333562850952, 0.0 " fill="none" stroke="black" stroke-width="1" /></svg>