<?xml version="1.0" encoding="utf-8" ?>
<svg baseProfile="full" height="70.13395167887211" version="1.1" width="78.55851661413908" xmlns="http://www.w3.org/2000/svg" xmlns:ev="http://www.w3.org/2001/xml-events" xmlns:xlink="http://www.w3.org/1999/xlink"><defs /><rect fill="white" height="70.13395167887211" width="78.55851661413908" x="0" y="0" /><path d="M52.351859267801046, 20.54186711087823 m-5.519541501998901, -1.1620087176561356 l-4.067030549049377, 0.0 -3.776528537273407, 0.2905021794140339 l-5.374290347099304, 1.5977619588375092 -7.698307633399963, 5.374290347099304 l-2.7597707509994507, 3.3407750725746155 -0.8715065568685532, 3.3407750725746155 l0.0, 3.050273060798645 0.726255476474762, 2.905021905899048 l2.4692685902118683, 2.324017435312271 3.776528537273407, 1.7430131137371063 l7.1173036098480225, 1.5977619588375092 2.7597707509994507, 0.0 l11.76533818244934, -2.178766429424286 3.63127738237381, -1.452510952949524 l4.212281703948975, -3.776528537273407 4.793286025524139, -5.955294966697693 l0.5810043588280678, -2.905021905899048 -0.2905021794140339, -1.0167576372623444 l-1.7430131137371063, -1.8882642686367035 -3.050273060798645, -2.178766429424286 l-8.86031687259674, -2.178766429424286 m-42.413320541381836, 10.748580694198608 l-0.726255476474762, -2.4692685902118683 0.0, -9.877074360847473 l0.5810043588280678, -5.519541501998901 1.0167576372623444, -1.452510952949524 l1.452510952949524, 0.14525108970701694 5.08378803730011, 2.178766429424286 l11.620087623596191, 7.553057074546814 0.5810043588280678, -0.8715065568685532 l2.7597707509994507, -13.798853158950806 0.5810043588280678, -1.7430131137371063 l0.8715065568685532, -0.726255476474762 1.8882642686367035, 0.4357532784342766 l7.8435587882995605, 4.793286025524139 2.905021905899048, 0.14525108970701694 l4.502783715724945, -0.8715065568685532 2.0335152745246887, -1.0167576372623444 l4.648034870624542, -3.776528537273407 1.452510952949524, -0.2905021794140339 l2.7597707509994507, 1.3072597980499268 4.067030549049377, 4.502783715724945 l2.324017435312271, 4.357532858848572 5.229039192199707, 14.960862398147583 l1.452510952949524, 3.050273060798645 0.8715065568685532, 4.067030549049377 l0.0, 3.9217793941497803 -0.8715065568685532, 3.3407750725746155 l-1.1620087176561356, 1.8882642686367035 -1.452510952949524, 1.3072597980499268 l-13.653602600097656, 5.08378803730011 -22.22341775894165, 9.296069741249084 l-3.3407750725746155, 1.8882642686367035 -3.63127738237381, 1.1620087176561356 l-2.178766429424286, 0.0 -2.0335152745246887, -0.8715065568685532 l-3.776528537273407, -4.067030549049377 -7.553057074546814, -10.458078384399414 l-2.7597707509994507, -2.0335152745246887 -1.7430131137371063, -0.726255476474762 l-1.7430131137371063, -2.178766429424286 -0.4357532784342766, -6.10054612159729 l1.452510952949524, -4.793286025524139 1.0167576372623444, -1.452510952949524 " fill="none" stroke="black" stroke-width="1" /></svg>