<?xml version="1.0" encoding="utf-8" ?>
<svg baseProfile="full" height="50.52505482919514" version="1.1" width="103.97745517082512" xmlns="http://www.w3.org/2000/svg" xmlns:ev="http://www.w3.org/2001/xml-events" xmlns:xlink="http://www.w3.org/1999/xlink"><defs /><rect fill="white" height="50.52505482919514" width="103.97745517082512" x="0" y="0" /><path d="M33.75971577130258, 10.810043988749385 m-3.4860262274742126, 0.14525108970701694 l-3.050273060798645, 1.5977619588375092 -5.519541501998901, 6.536298990249634 l-1.452510952949524, 4.648034870624542 -0.14525108970701694, 4.648034870624542 l1.5977619588375092, 4.357532858848572 1.452510952949524, 2.178766429424286 l1.8882642686367035, 1.7430131137371063 3.9217793941497803, 1.8882642686367035 l6.391047835350037, 0.14525108970701694 4.357532858848572, -1.7430131137371063 l3.3407750725746155, -3.1955239176750183 2.324017435312271, -4.793286025524139 l0.5810043588280678, -2.324017435312271 0.2905021794140339, -6.391047835350037 l-1.0167576372623444, -3.1955239176750183 -3.9217793941497803, -3.776528537273407 l-2.4692685902118683, -1.452510952949524 -3.050273060798645, -0.5810043588280678 m-5.08378803730011, 12.927347421646118 l-0.726255476474762, 0.14525108970701694 -0.726255476474762, 1.452510952949524 l0.2905021794140339, 1.452510952949524 1.5977619588375092, 0.0 l0.5810043588280678, -0.726255476474762 -0.2905021794140339, -0.5810043588280678 m-5.810043811798096, 4.502783715724945 l-0.14525108970701694, 0.726255476474762 0.5810043588280678, 0.8715065568685532 l1.7430131137371063, 1.0167576372623444 5.374290347099304, 0.2905021794140339 l1.3072597980499268, -1.0167576372623444 0.0, -0.726255476474762 l-4.212281703948975, -1.452510952949524 -2.905021905899048, -0.2905021794140339 m0.4357532784342766, -14.52510952949524 l-1.5977619588375092, 1.0167576372623444 -0.2905021794140339, 0.726255476474762 l1.452510952949524, 0.5810043588280678 1.0167576372623444, -0.2905021794140339 m8.715065717697144, -1.0167576372623444 l-0.14525108970701694, 0.8715065568685532 1.1620087176561356, 1.0167576372623444 l1.5977619588375092, 0.0 -0.2905021794140339, -1.8882642686367035 m-13.798853158950806, -1.1620087176561356 l-1.5977619588375092, -0.8715065568685532 -4.938537180423737, -0.4357532784342766 l-4.648034870624542, 0.2905021794140339 -3.9217793941497803, 1.7430131137371063 l-0.14525108970701694, 0.8715065568685532 3.050273060798645, 1.0167576372623444 l0.726255476474762, 0.4357532784342766 0.14525108970701694, 0.726255476474762 l-6.681550145149231, 6.972052454948425 -1.452510952949524, 2.178766429424286 l-0.8715065568685532, 1.452510952949524 -0.2905021794140339, 1.5977619588375092 l0.2905021794140339, 2.324017435312271 2.0335152745246887, 2.0335152745246887 l2.324017435312271, 1.1620087176561356 -1.5977619588375092, 0.5810043588280678 l-0.14525108970701694, 1.1620087176561356 0.5810043588280678, 0.8715065568685532 l2.4692685902118683, 1.5977619588375092 4.793286025524139, 0.8715065568685532 l-1.0167576372623444, 0.0 1.3072597980499268, 0.8715065568685532 l9.731823205947876, 0.14525108970701694 7.26255476474762, -1.0167576372623444 l1.452510952949524, -0.2905021794140339 1.8882642686367035, -1.8882642686367035 l-1.1620087176561356, 1.8882642686367035 -0.726255476474762, 2.6145195960998535 l0.5810043588280678, 1.452510952949524 3.63127738237381, -1.1620087176561356 l1.3072597980499268, -1.1620087176561356 6.826801300048828, -7.988809943199158 l0.8715065568685532, -2.178766429424286 0.0, 3.050273060798645 l0.4357532784342766, 1.0167576372623444 0.726255476474762, 1.3072597980499268 l2.0335152745246887, 1.452510952949524 3.63127738237381, 0.0 l2.0335152745246887, -1.3072597980499268 1.3072597980499268, -4.357532858848572 l-0.2905021794140339, -2.4692685902118683 -1.5977619588375092, -2.905021905899048 l-3.63127738237381, -2.6145195960998535 1.1620087176561356, -1.0167576372623444 l5.08378803730011, -2.4692685902118683 1.7430131137371063, -2.4692685902118683 l0.0, -1.8882642686367035 -2.6145195960998535, -2.4692685902118683 l-4.212281703948975, -2.7597707509994507 -5.6647926568984985, -3.050273060798645 l-3.9217793941497803, -1.452510952949524 1.3072597980499268, -1.1620087176561356 l-1.1620087176561356, -0.8715065568685532 -4.502783715724945, -1.0167576372623444 l-7.407805919647217, -0.14525108970701694 -0.726255476474762, -0.4357532784342766 l-4.938537180423737, 1.1620087176561356 -9.150818586349487, 5.810043811798096 l-4.938537180423737, 4.212281703948975 m31.374235153198242, 1.7430131137371063 l2.6145195960998535, -0.2905021794140339 1.8882642686367035, -1.452510952949524 l12.491593360900879, -1.8882642686367035 14.670360088348389, -1.0167576372623444 l9.586572051048279, 0.4357532784342766 4.648034870624542, 2.4692685902118683 l6.972052454948425, 5.519541501998901 2.0335152745246887, 5.6647926568984985 l0.2905021794140339, 4.357532858848572 " fill="none" stroke="black" stroke-width="1" /></svg>