<?xml version="1.0" encoding="utf-8" ?>
<svg baseProfile="full" height="64.32390830479562" version="1.1" width="52.12281706742942" xmlns="http://www.w3.org/2000/svg" xmlns:ev="http://www.w3.org/2001/xml-events" xmlns:xlink="http://www.w3.org/1999/xlink"><defs /><rect fill="white" height="64.32390830479562" width="52.12281706742942" x="0" y="0" /><path d="M12.407805770635605, 23.737389408051968 m8.569814562797546, -0.5810043588280678 l2.7597707509994507, 0.726255476474762 5.810043811798096, 4.067030549049377 l1.3072597980499268, 1.452510952949524 1.0167576372623444, 2.905021905899048 l0.14525108970701694, 4.648034870624542 0.726255476474762, 0.726255476474762 l2.7597707509994507, 1.1620087176561356 0.5810043588280678, 4.648034870624542 l-1.0167576372623444, 0.726255476474762 -6.391047835350037, 1.8882642686367035 m-8.86031687259674, -4.648034870624542 l1.5977619588375092, 0.0 2.0335152745246887, -1.7430131137371063 l3.776528537273407, 1.8882642686367035 m-9.00556743144989, -13.798853158950806 l0.0, 7.988809943199158 m7.698307633399963, -6.972052454948425 l1.0167576372623444, 1.7430131137371063 1.0167576372623444, 4.212281703948975 l-0.14525108970701694, 1.452510952949524 m-15.687117576599121, -22.949671745300293 l0.0, -2.0335152745246887 1.8882642686367035, -2.178766429424286 l6.536298990249634, -3.3407750725746155 3.3407750725746155, -0.726255476474762 l1.3072597980499268, 1.7430131137371063 0.5810043588280678, 2.324017435312271 l0.5810043588280678, 7.26255476474762 0.726255476474762, 0.4357532784342766 l2.324017435312271, -0.4357532784342766 0.2905021794140339, 4.648034870624542 l1.452510952949524, 0.726255476474762 4.502783715724945, 0.14525108970701694 l1.1620087176561356, 1.0167576372623444 0.14525108970701694, 7.8435587882995605 l0.5810043588280678, 1.7430131137371063 3.776528537273407, 2.178766429424286 l4.502783715724945, 1.3072597980499268 1.3072597980499268, 1.452510952949524 l-0.2905021794140339, 1.7430131137371063 -3.63127738237381, 5.374290347099304 l-0.5810043588280678, 1.8882642686367035 0.0, 6.681550145149231 l-1.452510952949524, 4.793286025524139 -1.0167576372623444, 0.2905021794140339 l-3.050273060798645, -1.0167576372623444 -2.324017435312271, 1.7430131137371063 l-2.324017435312271, 0.4357532784342766 -1.1620087176561356, -0.2905021794140339 l-5.810043811798096, -5.955294966697693 -3.9217793941497803, -3.3407750725746155 l-0.14525108970701694, 4.648034870624542 -0.4357532784342766, 0.726255476474762 l-1.7430131137371063, 0.2905021794140339 -10.312827825546265, -12.491593360900879 l-2.6145195960998535, -7.988809943199158 -1.3072597980499268, -6.826801300048828 l0.2905021794140339, -11.474835872650146 0.8715065568685532, -2.178766429424286 l0.726255476474762, -0.4357532784342766 0.726255476474762, 0.2905021794140339 l2.6145195960998535, -7.553057074546814 0.726255476474762, 0.2905021794140339 l3.4860262274742126, 5.374290347099304 m-2.6145195960998535, 11.039083003997803 l-2.0335152745246887, -2.178766429424286 0.0, 1.452510952949524 " fill="none" stroke="black" stroke-width="1" /></svg>