<?xml version="1.0" encoding="utf-8" ?>
<svg baseProfile="full" height="76.23449912294745" version="1.1" width="123.87685442343354" xmlns="http://www.w3.org/2000/svg" xmlns:ev="http://www.w3.org/2001/xml-events" xmlns:xlink="http://www.w3.org/1999/xlink"><defs /><rect fill="white" height="76.23449912294745" width="123.87685442343354" x="0" y="0" /><path d="M93.3126612007618, 16.329584876075387 m-0.8715065568685532, -0.8715065568685532 l-3.3407750725746155, -0.8715065568685532 -9.586572051048279, 0.14525108970701694 l-6.2457966804504395, 0.726255476474762 -3.050273060798645, 0.4357532784342766 l-7.8435587882995605, 2.905021905899048 -4.357532858848572, 3.050273060798645 l-2.905021905899048, 4.067030549049377 -0.726255476474762, 2.0335152745246887 l-0.14525108970701694, 4.212281703948975 0.2905021794140339, 1.8882642686367035 l2.178766429424286, 4.357532858848572 5.955294966697693, 7.26255476474762 l4.938537180423737, 2.7597707509994507 4.793286025524139, 0.14525108970701694 l2.905021905899048, -0.8715065568685532 3.9217793941497803, -2.0335152745246887 l13.653602600097656, -8.86031687259674 5.6647926568984985, -4.793286025524139 l1.1620087176561356, -1.8882642686367035 0.8715065568685532, -3.4860262274742126 l-0.5810043588280678, -3.9217793941497803 -1.452510952949524, -2.905021905899048 l-2.7597707509994507, -3.3407750725746155 -5.08378803730011, -5.374290347099304 l0.0, 1.7430131137371063 m-29.485971927642822, 27.307205200195312 l-1.452510952949524, 0.5810043588280678 -3.9217793941497803, 3.9217793941497803 l-3.4860262274742126, 8.569814562797546 0.14525108970701694, 1.3072597980499268 l0.5810043588280678, 0.2905021794140339 3.050273060798645, -0.14525108970701694 l2.178766429424286, -0.8715065568685532 2.324017435312271, -2.324017435312271 l1.452510952949524, -3.1955239176750183 -1.5977619588375092, 3.776528537273407 l0.8715065568685532, 2.4692685902118683 1.452510952949524, 1.3072597980499268 l3.776528537273407, 1.0167576372623444 4.938537180423737, 0.2905021794140339 l5.08378803730011, -1.0167576372623444 3.1955239176750183, 0.0 l1.3072597980499268, 0.5810043588280678 0.14525108970701694, 0.5810043588280678 l3.63127738237381, -0.14525108970701694 2.324017435312271, -2.0335152745246887 l0.14525108970701694, -1.3072597980499268 -1.3072597980499268, -1.1620087176561356 l-1.0167576372623444, -2.178766429424286 1.8882642686367035, 1.5977619588375092 l9.586572051048279, 3.1955239176750183 6.681550145149231, 0.5810043588280678 l2.905021905899048, -0.8715065568685532 1.452510952949524, -2.324017435312271 l-1.1620087176561356, -1.3072597980499268 -0.726255476474762, -4.648034870624542 l-0.2905021794140339, -1.0167576372623444 -1.7430131137371063, -2.0335152745246887 l-1.7430131137371063, -0.8715065568685532 -2.6145195960998535, 0.726255476474762 l0.8715065568685532, 0.4357532784342766 2.324017435312271, -0.2905021794140339 l11.329585313796997, -3.63127738237381 2.324017435312271, -1.1620087176561356 l-1.5977619588375092, -2.4692685902118683 -1.452510952949524, -1.0167576372623444 l-2.4692685902118683, -0.726255476474762 -2.6145195960998535, -0.14525108970701694 l-2.324017435312271, 0.14525108970701694 -0.5810043588280678, 0.5810043588280678 l1.1620087176561356, 1.452510952949524 0.5810043588280678, 0.0 l1.3072597980499268, -0.726255476474762 10.02232551574707, -9.00556743144989 l0.726255476474762, -1.452510952949524 -4.938537180423737, -6.391047835350037 l-4.067030549049377, -3.050273060798645 -1.7430131137371063, -0.4357532784342766 l-2.7597707509994507, 0.2905021794140339 -1.5977619588375092, 1.1620087176561356 l-1.0167576372623444, 1.452510952949524 2.4692685902118683, -3.63127738237381 l-0.2905021794140339, -2.324017435312271 -1.0167576372623444, -2.905021905899048 l-1.3072597980499268, -1.8882642686367035 -4.793286025524139, -2.4692685902118683 l-3.050273060798645, -0.2905021794140339 -0.8715065568685532, 0.2905021794140339 l-4.793286025524139, 5.374290347099304 -0.5810043588280678, 0.0 l-1.3072597980499268, -2.905021905899048 -1.452510952949524, -0.8715065568685532 l-1.5977619588375092, -0.14525108970701694 -4.357532858848572, 1.0167576372623444 l-5.519541501998901, 3.63127738237381 -0.4357532784342766, 0.5810043588280678 l-5.08378803730011, -5.955294966697693 -2.7597707509994507, -1.0167576372623444 l-3.63127738237381, 0.4357532784342766 -2.7597707509994507, 1.7430131137371063 l-3.9217793941497803, 4.648034870624542 -3.050273060798645, 3.9217793941497803 l0.5810043588280678, 0.2905021794140339 1.0167576372623444, -0.2905021794140339 l0.8715065568685532, -0.726255476474762 0.4357532784342766, -1.1620087176561356 l-0.2905021794140339, -0.726255476474762 -1.3072597980499268, -0.726255476474762 l-2.905021905899048, 0.14525108970701694 -5.955294966697693, 2.905021905899048 l-5.08378803730011, 4.938537180423737 -0.2905021794140339, 1.452510952949524 l1.0167576372623444, 1.1620087176561356 5.229039192199707, 2.905021905899048 l5.08378803730011, 2.0335152745246887 -0.2905021794140339, -1.452510952949524 l-0.8715065568685532, -0.726255476474762 -0.8715065568685532, 0.0 l-0.726255476474762, 0.0 -2.6145195960998535, 2.4692685902118683 l-0.8715065568685532, 3.4860262274742126 -2.905021905899048, 5.519541501998901 l-2.178766429424286, 5.374290347099304 -1.0167576372623444, 3.776528537273407 l0.14525108970701694, 2.0335152745246887 1.452510952949524, 0.726255476474762 l18.737391233444214, -3.9217793941497803 2.178766429424286, 0.5810043588280678 m7.698307633399963, -19.463646411895752 l-1.3072597980499268, 0.5810043588280678 0.0, 0.5810043588280678 l1.3072597980499268, 0.2905021794140339 m8.715065717697144, -3.776528537273407 l0.2905021794140339, 0.2905021794140339 m-12.491593360900879, 5.519541501998901 l2.0335152745246887, 5.955294966697693 1.7430131137371063, 2.178766429424286 l3.4860262274742126, 1.7430131137371063 1.3072597980499268, 0.14525108970701694 l1.1620087176561356, -0.726255476474762 m-3.3407750725746155, -11.184333562850952 l4.502783715724945, 3.9217793941497803 -0.5810043588280678, 0.5810043588280678 l-2.4692685902118683, -0.14525108970701694 -1.8882642686367035, 0.2905021794140339 l0.8715065568685532, 0.5810043588280678 -0.14525108970701694, 0.14525108970701694 m-30.793230533599854, 3.63127738237381 l-0.726255476474762, -0.8715065568685532 -1.1620087176561356, -0.2905021794140339 l-14.08935546875, -0.14525108970701694 -4.648034870624542, 0.5810043588280678 l-8.715065717697144, 3.776528537273407 -5.229039192199707, 4.648034870624542 l-1.7430131137371063, 2.7597707509994507 0.0, 0.8715065568685532 l0.4357532784342766, 2.0335152745246887 0.5810043588280678, 0.8715065568685532 l2.178766429424286, 2.905021905899048 2.178766429424286, 1.8882642686367035 l6.826801300048828, 3.1955239176750183 6.681550145149231, 0.4357532784342766 l8.86031687259674, -3.9217793941497803 10.16757607460022, -5.229039192199707 l3.1955239176750183, -2.0335152745246887 1.1620087176561356, -1.452510952949524 l3.4860262274742126, -2.324017435312271 m-31.374235153198242, 14.234607219696045 l-1.8882642686367035, 2.7597707509994507 -1.5977619588375092, 4.502783715724945 l-0.4357532784342766, 3.776528537273407 0.2905021794140339, 1.1620087176561356 l0.5810043588280678, 0.14525108970701694 2.178766429424286, -1.0167576372623444 l7.8435587882995605, -0.2905021794140339 0.4357532784342766, -0.726255476474762 l-0.5810043588280678, -5.955294966697693 0.4357532784342766, -6.2457966804504395 l0.14525108970701694, -0.5810043588280678 0.0, 1.5977619588375092 m6.2457966804504395, -1.0167576372623444 l4.648034870624542, 9.441320896148682 " fill="none" stroke="black" stroke-width="1" /></svg>