<?xml version="1.0" encoding="utf-8" ?>
<svg baseProfile="full" height="54.30158328264952" version="1.1" width="55.31833998858929" xmlns="http://www.w3.org/2000/svg" xmlns:ev="http://www.w3.org/2001/xml-events" xmlns:xlink="http://www.w3.org/1999/xlink"><defs /><rect fill="white" height="54.30158328264952" width="55.31833998858929" x="0" y="0" /><path d="M32.01670181937516, 35.066976537927985 m-4.212281703948975, 1.5977619588375092 l-5.229039192199707, 0.4357532784342766 -3.9217793941497803, -2.178766429424286 l-1.5977619588375092, -2.0335152745246887 -0.726255476474762, -3.776528537273407 l0.4357532784342766, -2.324017435312271 0.8715065568685532, -1.7430131137371063 l1.5977619588375092, -1.7430131137371063 2.7597707509994507, -1.8882642686367035 l3.776528537273407, -1.452510952949524 2.324017435312271, -0.14525108970701694 l2.905021905899048, 0.8715065568685532 3.63127738237381, 3.1955239176750183 l1.3072597980499268, 2.905021905899048 0.14525108970701694, 3.63127738237381 l-1.1620087176561356, 2.4692685902118683 -5.519541501998901, 2.905021905899048 m4.938537180423737, -19.754148721694946 l1.5977619588375092, -2.178766429424286 1.452510952949524, -0.5810043588280678 l0.726255476474762, 1.0167576372623444 0.0, 2.0335152745246887 l-0.4357532784342766, 0.5810043588280678 -0.8715065568685532, 0.14525108970701694 l-1.1620087176561356, -0.14525108970701694 m-21.64241313934326, 5.374290347099304 l-2.905021905899048, -1.3072597980499268 -0.14525108970701694, -2.324017435312271 l0.8715065568685532, -1.1620087176561356 1.452510952949524, -0.5810043588280678 l1.3072597980499268, 0.0 0.5810043588280678, 1.3072597980499268 l-0.14525108970701694, 1.5977619588375092 -1.5977619588375092, 1.3072597980499268 m8.715065717697144, 8.715065717697144 l0.2905021794140339, 1.452510952949524 0.726255476474762, 0.726255476474762 l2.0335152745246887, 0.4357532784342766 2.178766429424286, -0.4357532784342766 l2.0335152745246887, -1.8882642686367035 m-6.2457966804504395, -5.955294966697693 l-0.5810043588280678, 0.14525108970701694 0.0, 0.726255476474762 l-0.4357532784342766, 0.4357532784342766 m4.938537180423737, -3.050273060798645 l0.2905021794140339, 1.3072597980499268 -1.452510952949524, 0.8715065568685532 m-10.748580694198608, -14.960862398147583 l1.7430131137371063, -2.178766429424286 1.5977619588375092, -0.8715065568685532 l2.7597707509994507, 0.726255476474762 2.905021905899048, 1.8882642686367035 l1.8882642686367035, 0.14525108970701694 2.6145195960998535, -0.4357532784342766 l8.42456340789795, -3.9217793941497803 0.5810043588280678, 0.2905021794140339 l0.2905021794140339, 2.178766429424286 1.3072597980499268, 1.0167576372623444 l8.134061098098755, 0.2905021794140339 0.8715065568685532, 0.4357532784342766 l0.2905021794140339, 0.5810043588280678 -1.1620087176561356, 3.3407750725746155 l-0.726255476474762, 4.357532858848572 3.1955239176750183, 1.7430131137371063 l0.4357532784342766, 0.8715065568685532 -0.5810043588280678, 3.050273060798645 l-6.391047835350037, 6.681550145149231 -1.452510952949524, 2.324017435312271 l0.0, 1.452510952949524 2.178766429424286, 2.4692685902118683 l0.5810043588280678, 3.776528537273407 -3.1955239176750183, 4.793286025524139 l-4.938537180423737, 2.6145195960998535 -1.452510952949524, 0.0 l-5.08378803730011, -2.905021905899048 -4.502783715724945, 0.726255476474762 l-7.988809943199158, 4.212281703948975 -1.8882642686367035, -0.726255476474762 l-1.3072597980499268, -2.0335152745246887 -1.5977619588375092, -7.698307633399963 l-3.4860262274742126, 1.1620087176561356 -1.7430131137371063, -0.14525108970701694 l-1.5977619588375092, -2.324017435312271 -0.8715065568685532, -3.63127738237381 l0.8715065568685532, -12.636845111846924 0.4357532784342766, -1.1620087176561356 l2.178766429424286, -2.6145195960998535 0.2905021794140339, -1.452510952949524 l-1.5977619588375092, -3.3407750725746155 0.0, -1.5977619588375092 l2.0335152745246887, -2.7597707509994507 3.9217793941497803, -1.8882642686367035 l1.0167576372623444, 0.0 1.5977619588375092, 0.5810043588280678 l-1.1620087176561356, 0.4357532784342766 " fill="none" stroke="black" stroke-width="1" /></svg>