<?xml version="1.0" encoding="utf-8" ?>
<svg baseProfile="full" height="68.24568720534444" version="1.1" width="112.40202053450048" xmlns="http://www.w3.org/2000/svg" xmlns:ev="http://www.w3.org/2001/xml-events" xmlns:xlink="http://www.w3.org/1999/xlink"><defs /><rect fill="white" height="68.24568720534444" width="112.40202053450048" x="0" y="0" /><path d="M79.07805651426315, 12.11730271577835 m-8.134061098098755, -0.4357532784342766 l-3.4860262274742126, 0.8715065568685532 -12.636845111846924, 7.407805919647217 l-5.6647926568984985, 4.357532858848572 -6.391047835350037, 2.178766429424286 l-5.374290347099304, 0.2905021794140339 -14.960862398147583, -1.0167576372623444 l-3.1955239176750183, -0.5810043588280678 -9.296069741249084, 0.0 l-1.452510952949524, 1.0167576372623444 -1.8882642686367035, 3.63127738237381 l-1.5977619588375092, 4.793286025524139 0.0, 2.178766429424286 l2.178766429424286, 3.9217793941497803 3.776528537273407, 3.050273060798645 l12.34634280204773, 4.502783715724945 3.776528537273407, 0.2905021794140339 l5.229039192199707, -0.4357532784342766 7.407805919647217, -2.0335152745246887 l1.1620087176561356, 2.178766429424286 1.8882642686367035, 9.150818586349487 l1.3072597980499268, 3.1955239176750183 0.726255476474762, 0.726255476474762 l7.407805919647217, 1.5977619588375092 3.4860262274742126, 0.2905021794140339 l0.14525108970701694, -9.00556743144989 -0.726255476474762, -6.2457966804504395 l4.067030549049377, -0.726255476474762 5.08378803730011, 0.0 l4.067030549049377, 6.10054612159729 3.3407750725746155, 8.715065717697144 l4.502783715724945, 0.5810043588280678 4.067030549049377, -1.1620087176561356 l0.2905021794140339, -6.2457966804504395 -2.0335152745246887, -8.569814562797546 l6.536298990249634, -0.2905021794140339 3.776528537273407, -2.178766429424286 l2.178766429424286, -2.178766429424286 3.050273060798645, -8.42456340789795 l0.4357532784342766, -4.648034870624542 6.10054612159729, -2.4692685902118683 l5.519541501998901, -8.569814562797546 1.3072597980499268, -2.905021905899048 l-2.0335152745246887, -2.324017435312271 -8.42456340789795, -5.955294966697693 l-2.4692685902118683, -1.3072597980499268 -1.8882642686367035, -0.4357532784342766 l-3.4860262274742126, 0.14525108970701694 -3.63127738237381, 1.7430131137371063 l-6.391047835350037, 5.6647926568984985 -1.3072597980499268, 0.14525108970701694 m0.2905021794140339, -1.1620087176561356 l3.3407750725746155, 1.3072597980499268 3.1955239176750183, 1.8882642686367035 l3.63127738237381, 8.279312252998352 3.4860262274742126, 1.8882642686367035 l0.8715065568685532, 1.3072597980499268 1.7430131137371063, 1.0167576372623444 l3.1955239176750183, 1.1620087176561356 -1.7430131137371063, -0.4357532784342766 m-2.7597707509994507, -17.139629125595093 l-4.067030549049377, -0.2905021794140339 m2.4692685902118683, 1.8882642686367035 l1.0167576372623444, 4.067030549049377 2.178766429424286, 3.776528537273407 l1.8882642686367035, 2.0335152745246887 2.324017435312271, 0.8715065568685532 " fill="none" stroke="black" stroke-width="1" /></svg>