<?xml version="1.0" encoding="utf-8" ?>
<svg baseProfile="full" height="72.45796955190599" version="1.1" width="89.30709628388286" xmlns="http://www.w3.org/2000/svg" xmlns:ev="http://www.w3.org/2001/xml-events" xmlns:xlink="http://www.w3.org/1999/xlink"><defs /><rect fill="white" height="72.45796955190599" width="89.30709628388286" x="0" y="0" /><path d="M40.44126683846116, 22.28487964719534 m-7.553057074546814, 0.0 l-3.050273060798645, 1.0167576372623444 -1.8882642686367035, 1.8882642686367035 l-1.5977619588375092, 4.067030549049377 -0.8715065568685532, 5.08378803730011 l-0.14525108970701694, 8.569814562797546 3.9217793941497803, 4.793286025524139 l3.1955239176750183, 3.050273060798645 4.357532858848572, 2.7597707509994507 l4.212281703948975, 1.7430131137371063 7.8435587882995605, 0.8715065568685532 l8.279312252998352, 0.14525108970701694 1.7430131137371063, -0.14525108970701694 l2.7597707509994507, -1.452510952949524 3.776528537273407, -4.067030549049377 l2.4692685902118683, -5.6647926568984985 1.0167576372623444, -7.8435587882995605 l-0.14525108970701694, -5.810043811798096 -2.4692685902118683, -5.810043811798096 l-3.3407750725746155, -4.502783715724945 -3.9217793941497803, -4.067030549049377 l-4.648034870624542, -3.050273060798645 -2.4692685902118683, -0.5810043588280678 l-6.2457966804504395, 0.14525108970701694 -3.050273060798645, 2.0335152745246887 l-2.905021905899048, 4.502783715724945 m-3.9217793941497803, -5.374290347099304 l-10.893832445144653, -4.793286025524139 -8.715065717697144, -1.8882642686367035 l-6.2457966804504395, -0.5810043588280678 5.6647926568984985, 5.810043811798096 l-2.6145195960998535, -0.14525108970701694 -7.988809943199158, -3.1955239176750183 l0.8715065568685532, 3.1955239176750183 4.502783715724945, 8.279312252998352 l-2.7597707509994507, 0.726255476474762 -0.8715065568685532, 1.0167576372623444 l-0.4357532784342766, 4.793286025524139 2.7597707509994507, 5.955294966697693 l5.08378803730011, 7.407805919647217 -0.4357532784342766, 7.8435587882995605 l0.4357532784342766, 0.726255476474762 1.3072597980499268, -0.14525108970701694 l3.3407750725746155, -4.648034870624542 2.178766429424286, 5.955294966697693 l0.5810043588280678, 4.648034870624542 -2.178766429424286, 2.6145195960998535 l-0.5810043588280678, 1.452510952949524 0.5810043588280678, 2.178766429424286 l7.8435587882995605, 1.5977619588375092 5.810043811798096, 0.0 l10.893832445144653, -2.0335152745246887 -0.5810043588280678, 1.1620087176561356 l-4.212281703948975, 4.502783715724945 2.324017435312271, 0.4357532784342766 l15.541867017745972, 0.0 3.776528537273407, -0.2905021794140339 l4.067030549049377, -1.3072597980499268 3.4860262274742126, 0.2905021794140339 l3.1955239176750183, -1.1620087176561356 3.9217793941497803, -2.324017435312271 l0.8715065568685532, -0.726255476474762 0.14525108970701694, -0.8715065568685532 l4.793286025524139, 0.0 0.8715065568685532, -2.7597707509994507 l0.0, -9.00556743144989 -0.8715065568685532, -2.324017435312271 l-3.050273060798645, -2.7597707509994507 4.938537180423737, -2.324017435312271 l0.14525108970701694, -0.726255476474762 -1.3072597980499268, -1.1620087176561356 l-2.7597707509994507, -0.726255476474762 2.0335152745246887, -3.050273060798645 l2.0335152745246887, -2.0335152745246887 1.0167576372623444, -2.0335152745246887 l0.0, -1.7430131137371063 -2.324017435312271, -3.1955239176750183 l-3.1955239176750183, -1.8882642686367035 2.7597707509994507, -3.1955239176750183 l0.0, -2.905021905899048 -0.4357532784342766, -1.1620087176561356 l-2.905021905899048, -1.8882642686367035 -5.374290347099304, -0.5810043588280678 l-0.14525108970701694, -1.8882642686367035 1.3072597980499268, -3.050273060798645 l0.2905021794140339, -3.63127738237381 -0.726255476474762, -1.0167576372623444 l-1.5977619588375092, -0.726255476474762 -6.681550145149231, -0.2905021794140339 l-2.324017435312271, 1.5977619588375092 -1.1620087176561356, 1.452510952949524 l-2.178766429424286, -1.7430131137371063 -2.4692685902118683, -1.1620087176561356 l-3.3407750725746155, -0.14525108970701694 -1.8882642686367035, 0.4357532784342766 " fill="none" stroke="black" stroke-width="1" /></svg>