<?xml version="1.0" encoding="utf-8" ?>
<svg baseProfile="full" height="45.296014938503504" version="1.1" width="53.865829575806856" xmlns="http://www.w3.org/2000/svg" xmlns:ev="http://www.w3.org/2001/xml-events" xmlns:xlink="http://www.w3.org/1999/xlink"><defs /><rect fill="white" height="45.296014938503504" width="53.865829575806856" x="0" y="0" /><path d="M27.513919854536653, 15.748580601066351 m3.4860262274742126, 0.5810043588280678 l5.229039192199707, 4.648034870624542 2.905021905899048, 5.519541501998901 l0.14525108970701694, 4.502783715724945 -0.726255476474762, 2.4692685902118683 l-1.452510952949524, 2.6145195960998535 -3.776528537273407, 3.4860262274742126 l-2.7597707509994507, 0.726255476474762 -3.4860262274742126, -0.14525108970701694 l-3.63127738237381, -2.4692685902118683 -3.776528537273407, -4.212281703948975 l-1.452510952949524, -3.9217793941497803 -0.4357532784342766, -6.10054612159729 l2.4692685902118683, -3.9217793941497803 2.0335152745246887, -1.5977619588375092 l3.3407750725746155, -0.726255476474762 6.2457966804504395, 0.14525108970701694 m14.234607219696045, 20.62565565109253 l-5.955294966697693, -0.5810043588280678 0.4357532784342766, -1.1620087176561356 l4.357532858848572, -2.905021905899048 3.9217793941497803, -4.357532858848572 l-0.726255476474762, -0.4357532784342766 -5.374290347099304, 1.1620087176561356 l-1.7430131137371063, 0.0 -0.726255476474762, -0.4357532784342766 l0.14525108970701694, -1.5977619588375092 4.067030549049377, -6.972052454948425 l-3.63127738237381, 0.2905021794140339 -2.324017435312271, -2.4692685902118683 l-1.0167576372623444, -3.9217793941497803 0.0, -4.793286025524139 l-0.2905021794140339, 1.8882642686367035 -1.452510952949524, 1.7430131137371063 l-2.6145195960998535, 0.0 -7.988809943199158, -8.42456340789795 l0.14525108970701694, 8.279312252998352 -2.6145195960998535, 0.5810043588280678 l-2.905021905899048, -1.1620087176561356 -4.212281703948975, -3.1955239176750183 l1.8882642686367035, 3.9217793941497803 0.2905021794140339, 2.7597707509994507 l-3.3407750725746155, 0.4357532784342766 -6.536298990249634, -1.8882642686367035 l3.1955239176750183, 3.4860262274742126 0.5810043588280678, 3.1955239176750183 l-3.050273060798645, 2.905021905899048 0.8715065568685532, 0.5810043588280678 l0.0, 1.1620087176561356 -4.502783715724945, 7.26255476474762 l8.134061098098755, 0.726255476474762 0.726255476474762, 0.8715065568685532 m-1.7430131137371063, 1.3072597980499268 l2.0335152745246887, -1.1620087176561356 2.6145195960998535, -0.4357532784342766 m27.59770631790161, 4.357532858848572 l0.5810043588280678, -1.7430131137371063 -5.519541501998901, 0.0 l-4.938537180423737, -0.5810043588280678 m-1.452510952949524, -13.217849731445312 l0.726255476474762, 0.2905021794140339 0.0, 2.0335152745246887 l-2.178766429424286, 0.2905021794140339 -0.726255476474762, -0.4357532784342766 l-0.14525108970701694, -0.8715065568685532 1.3072597980499268, 0.14525108970701694 m-6.536298990249634, -0.2905021794140339 l0.14525108970701694, 1.7430131137371063 -1.0167576372623444, 0.14525108970701694 l-0.2905021794140339, -1.1620087176561356 m4.357532858848572, 4.793286025524139 l1.8882642686367035, 3.050273060798645 -1.3072597980499268, 0.726255476474762 l-3.1955239176750183, 0.0 0.0, -2.178766429424286 l0.5810043588280678, -1.0167576372623444 0.8715065568685532, -0.2905021794140339 m1.1620087176561356, 2.324017435312271 l0.2905021794140339, 1.5977619588375092 1.452510952949524, 1.7430131137371063 l0.726255476474762, 0.2905021794140339 0.8715065568685532, -0.2905021794140339 l0.726255476474762, -1.1620087176561356 m-5.519541501998901, 0.2905021794140339 l-1.452510952949524, 0.5810043588280678 -1.452510952949524, -0.8715065568685532 l-1.5977619588375092, -2.178766429424286 " fill="none" stroke="black" stroke-width="1" /></svg>