<?xml version="1.0" encoding="utf-8" ?>
<svg baseProfile="full" height="44.86026336438954" version="1.1" width="45.44126706197858" xmlns="http://www.w3.org/2000/svg" xmlns:ev="http://www.w3.org/2001/xml-events" xmlns:xlink="http://www.w3.org/1999/xlink"><defs /><rect fill="white" height="44.86026336438954" width="45.44126706197858" x="0" y="0" /><path d="M23.592140506953, 11.681550219655037 m0.5810043588280678, -3.1955239176750183 l0.726255476474762, -0.8715065568685532 2.6145195960998535, -1.8882642686367035 l3.3407750725746155, -0.726255476474762 2.0335152745246887, 1.1620087176561356 l3.3407750725746155, 0.14525108970701694 1.452510952949524, 0.726255476474762 l1.452510952949524, 2.905021905899048 1.3072597980499268, 8.86031687259674 l0.0, 7.407805919647217 -6.2457966804504395, 8.86031687259674 l-2.0335152745246887, 1.7430131137371063 -3.1955239176750183, 1.0167576372623444 m-7.698307633399963, -25.128438472747803 l-0.5810043588280678, -0.726255476474762 -5.955294966697693, -1.1620087176561356 l-4.067030549049377, 0.0 -2.7597707509994507, 0.5810043588280678 l-0.8715065568685532, 0.8715065568685532 0.2905021794140339, 6.826801300048828 m10.458078384399414, 19.463646411895752 l8.134061098098755, 1.3072597980499268 3.776528537273407, 0.0 l1.0167576372623444, -0.8715065568685532 m-8.42456340789795, -0.4357532784342766 l-4.502783715724945, -0.14525108970701694 -2.178766429424286, -0.5810043588280678 l-2.7597707509994507, -1.7430131137371063 -2.905021905899048, -3.4860262274742126 l-1.7430131137371063, -3.776528537273407 0.0, -7.26255476474762 l-0.8715065568685532, -5.955294966697693 m23.094923496246338, 0.14525108970701694 l-2.905021905899048, 1.3072597980499268 -1.5977619588375092, 1.7430131137371063 l-0.726255476474762, 2.905021905899048 0.0, 2.905021905899048 l0.4357532784342766, 0.726255476474762 2.324017435312271, 1.0167576372623444 l2.324017435312271, 0.14525108970701694 1.1620087176561356, -0.4357532784342766 l1.452510952949524, -1.3072597980499268 0.5810043588280678, -1.7430131137371063 l0.0, -1.7430131137371063 -0.726255476474762, -1.0167576372623444 m-14.960862398147583, -3.4860262274742126 l-2.4692685902118683, 2.324017435312271 -0.726255476474762, 3.776528537273407 l0.14525108970701694, 4.357532858848572 1.1620087176561356, 1.7430131137371063 l0.726255476474762, 0.2905021794140339 3.1955239176750183, -0.14525108970701694 l1.3072597980499268, -1.5977619588375092 0.726255476474762, -2.905021905899048 l-0.14525108970701694, -3.776528537273407 -1.3072597980499268, -1.3072597980499268 l-2.7597707509994507, -1.5977619588375092 m-1.0167576372623444, 4.212281703948975 l0.5810043588280678, 2.905021905899048 0.5810043588280678, -0.726255476474762 m10.458078384399414, -2.324017435312271 l-0.14525108970701694, 1.7430131137371063 -0.2905021794140339, -1.5977619588375092 l-0.2905021794140339, 1.452510952949524 m0.0, 7.553057074546814 l-3.3407750725746155, 1.5977619588375092 -2.905021905899048, 0.0 m1.5977619588375092, -19.899399280548096 l1.5977619588375092, -3.1955239176750183 0.8715065568685532, -0.2905021794140339 l2.0335152745246887, 3.63127738237381 1.0167576372623444, -0.4357532784342766 l1.5977619588375092, -3.63127738237381 1.1620087176561356, 0.4357532784342766 l1.0167576372623444, 3.9217793941497803 0.726255476474762, 0.2905021794140339 l2.4692685902118683, -4.502783715724945 1.3072597980499268, 3.776528537273407 l0.0, 6.10054612159729 1.3072597980499268, -2.0335152745246887 l0.0, 1.452510952949524 -1.7430131137371063, 6.972052454948425 l-2.7597707509994507, 5.374290347099304 -0.4357532784342766, 1.5977619588375092 l0.2905021794140339, 0.726255476474762 -5.08378803730011, 5.374290347099304 l-3.63127738237381, 1.3072597980499268 -0.726255476474762, 0.0 l-0.14525108970701694, -0.726255476474762 -1.452510952949524, -0.4357532784342766 l-8.42456340789795, 0.14525108970701694 -0.8715065568685532, -3.4860262274742126 l0.5810043588280678, -1.7430131137371063 0.0, -1.8882642686367035 l-3.4860262274742126, -2.6145195960998535 -0.726255476474762, -1.1620087176561356 l-1.0167576372623444, -6.10054612159729 -1.1620087176561356, -2.7597707509994507 l-0.726255476474762, -0.8715065568685532 -0.8715065568685532, 0.2905021794140339 l-0.5810043588280678, 0.8715065568685532 2.0335152745246887, -4.357532858848572 l0.5810043588280678, -4.212281703948975 3.3407750725746155, 0.14525108970701694 l2.0335152745246887, -2.0335152745246887 1.8882642686367035, -0.4357532784342766 l1.3072597980499268, 0.4357532784342766 2.4692685902118683, 1.8882642686367035 l1.5977619588375092, 0.2905021794140339 " fill="none" stroke="black" stroke-width="1" /></svg>