<?xml version="1.0" encoding="utf-8" ?>
<svg baseProfile="full" height="49.79879912920296" version="1.1" width="49.217794416472316" xmlns="http://www.w3.org/2000/svg" xmlns:ev="http://www.w3.org/2001/xml-events" xmlns:xlink="http://www.w3.org/1999/xlink"><defs /><rect fill="white" height="49.79879912920296" width="49.217794416472316" x="0" y="0" /><path d="M27.94967146590352, 17.491593416780233 m-3.63127738237381, -1.3072597980499268 l-2.178766429424286, 0.4357532784342766 -2.7597707509994507, 1.8882642686367035 l-2.905021905899048, 5.374290347099304 -0.5810043588280678, 4.067030549049377 l0.2905021794140339, 2.0335152745246887 1.7430131137371063, 3.4860262274742126 l3.1955239176750183, 2.905021905899048 2.0335152745246887, 1.3072597980499268 l2.0335152745246887, 0.4357532784342766 2.178766429424286, 0.14525108970701694 l2.0335152745246887, -0.2905021794140339 1.8882642686367035, -0.726255476474762 l3.3407750725746155, -2.6145195960998535 1.5977619588375092, -2.4692685902118683 l0.14525108970701694, -3.1955239176750183 -1.0167576372623444, -3.050273060798645 l-2.324017435312271, -4.212281703948975 -2.0335152745246887, -2.178766429424286 l-2.178766429424286, -1.3072597980499268 -3.1955239176750183, -0.5810043588280678 l-2.0335152745246887, 0.726255476474762 -1.7430131137371063, 1.452510952949524 m1.3072597980499268, 5.229039192199707 l-0.14525108970701694, -0.14525108970701694 m5.810043811798096, -0.4357532784342766 l0.14525108970701694, 0.0 m-3.3407750725746155, 3.63127738237381 l-0.5810043588280678, 0.0 0.4357532784342766, 0.14525108970701694 m0.0, 1.3072597980499268 l-1.3072597980499268, 2.905021905899048 -1.7430131137371063, 0.726255476474762 l-0.5810043588280678, 0.0 0.0, -0.2905021794140339 m3.9217793941497803, -3.4860262274742126 l0.5810043588280678, 3.63127738237381 0.5810043588280678, 0.726255476474762 l1.7430131137371063, -0.4357532784342766 1.452510952949524, -1.0167576372623444 m-1.452510952949524, -14.670360088348389 l2.7597707509994507, -3.776528537273407 1.0167576372623444, 0.0 l1.8882642686367035, 0.726255476474762 1.452510952949524, 2.178766429424286 l0.14525108970701694, 2.324017435312271 -0.5810043588280678, 1.3072597980499268 l-1.3072597980499268, 1.0167576372623444 -1.7430131137371063, 0.14525108970701694 m-14.379857778549194, -1.5977619588375092 l-1.1620087176561356, -1.3072597980499268 -2.178766429424286, 0.0 l-1.7430131137371063, 1.0167576372623444 -1.1620087176561356, 1.7430131137371063 l-0.14525108970701694, 1.452510952949524 0.726255476474762, 2.0335152745246887 l1.5977619588375092, 1.0167576372623444 1.5977619588375092, 0.0 m-7.988809943199158, -8.279312252998352 l1.1620087176561356, -6.826801300048828 1.3072597980499268, -0.14525108970701694 l2.178766429424286, 1.1620087176561356 1.5977619588375092, 0.14525108970701694 l0.726255476474762, -0.2905021794140339 3.050273060798645, -3.1955239176750183 l1.0167576372623444, -0.5810043588280678 2.905021905899048, 2.0335152745246887 l4.212281703948975, -4.648034870624542 1.1620087176561356, -0.2905021794140339 l1.5977619588375092, 0.2905021794140339 2.905021905899048, 2.6145195960998535 l2.4692685902118683, -1.452510952949524 4.357532858848572, 2.324017435312271 l3.1955239176750183, 0.14525108970701694 -1.1620087176561356, 7.988809943199158 l0.0, 1.452510952949524 0.8715065568685532, 1.8882642686367035 l2.905021905899048, 2.0335152745246887 0.2905021794140339, 0.726255476474762 l-0.4357532784342766, 3.3407750725746155 -2.0335152745246887, 5.229039192199707 l0.14525108970701694, 1.3072597980499268 1.8882642686367035, 2.178766429424286 l0.2905021794140339, 1.1620087176561356 -9.00556743144989, 5.810043811798096 l-0.4357532784342766, 0.726255476474762 0.5810043588280678, 0.2905021794140339 l-6.826801300048828, 0.0 -3.9217793941497803, -0.726255476474762 l-4.938537180423737, 2.178766429424286 -1.452510952949524, -1.8882642686367035 l-2.4692685902118683, -0.8715065568685532 -6.536298990249634, 3.050273060798645 l-0.14525108970701694, -1.3072597980499268 0.8715065568685532, -4.212281703948975 l0.0, -2.6145195960998535 -2.178766429424286, -1.1620087176561356 l-2.4692685902118683, -0.2905021794140339 -0.14525108970701694, -1.8882642686367035 l0.726255476474762, -1.5977619588375092 2.4692685902118683, -3.3407750725746155 l-1.5977619588375092, -1.452510952949524 0.5810043588280678, -4.502783715724945 l-0.726255476474762, -1.3072597980499268 -0.726255476474762, -0.2905021794140339 l0.14525108970701694, -1.0167576372623444 " fill="none" stroke="black" stroke-width="1" /></svg>