<?xml version="1.0" encoding="utf-8" ?>
<svg baseProfile="full" height="42.53624441102147" version="1.1" width="40.35747837275267" xmlns="http://www.w3.org/2000/svg" xmlns:ev="http://www.w3.org/2001/xml-events" xmlns:xlink="http://www.w3.org/1999/xlink"><defs /><rect fill="white" height="42.53624441102147" width="40.35747837275267" x="0" y="0" /><path d="M20.97762018442154, 10.374290347099304 m-0.4357532784342766, -5.374290347099304 l-1.8882642686367035, 2.4692685902118683 -1.7430131137371063, 1.0167576372623444 l-1.0167576372623444, -2.6145195960998535 -2.7597707509994507, 3.1955239176750183 l-0.8715065568685532, 0.0 -0.4357532784342766, -1.5977619588375092 l-2.4692685902118683, 4.648034870624542 -0.726255476474762, -0.5810043588280678 l-1.3072597980499268, 1.3072597980499268 -2.324017435312271, 8.42456340789795 l0.14525108970701694, -3.050273060798645 0.5810043588280678, 1.3072597980499268 l0.8715065568685532, 5.519541501998901 0.2905021794140339, -2.324017435312271 l0.8715065568685532, 2.905021905899048 0.5810043588280678, 0.726255476474762 l1.452510952949524, 0.5810043588280678 0.4357532784342766, 1.0167576372623444 l0.14525108970701694, 3.3407750725746155 -0.8715065568685532, 3.3407750725746155 l0.5810043588280678, -3.63127738237381 1.0167576372623444, 1.8882642686367035 l0.726255476474762, 0.0 2.324017435312271, -1.452510952949524 l1.0167576372623444, 0.726255476474762 0.726255476474762, 4.067030549049377 l0.4357532784342766, 1.0167576372623444 0.726255476474762, 0.2905021794140339 l0.726255476474762, -0.5810043588280678 2.178766429424286, -4.212281703948975 l0.8715065568685532, 0.0 2.324017435312271, 1.7430131137371063 l0.8715065568685532, 0.0 1.1620087176561356, -0.8715065568685532 l3.63127738237381, -6.826801300048828 -0.4357532784342766, 3.050273060798645 l1.8882642686367035, -1.5977619588375092 1.5977619588375092, -2.905021905899048 l3.4860262274742126, -7.8435587882995605 -3.4860262274742126, 7.553057074546814 l0.14525108970701694, -9.00556743144989 -1.3072597980499268, -2.4692685902118683 l-2.0335152745246887, -0.14525108970701694 -6.536298990249634, 4.793286025524139 l0.726255476474762, -4.648034870624542 0.0, -4.648034870624542 l-0.726255476474762, 0.8715065568685532 -0.14525108970701694, 1.0167576372623444 l1.0167576372623444, -2.6145195960998535 -1.452510952949524, 3.1955239176750183 m-6.536298990249634, 5.519541501998901 l-0.726255476474762, 0.0 0.5810043588280678, 1.452510952949524 l0.14525108970701694, -1.0167576372623444 -0.726255476474762, 0.5810043588280678 l0.8715065568685532, 1.0167576372623444 m4.502783715724945, 6.826801300048828 l0.0, 0.0 m0.2905021794140339, -0.14525108970701694 l-2.4692685902118683, 0.0 1.1620087176561356, 0.5810043588280678 l2.4692685902118683, -0.2905021794140339 5.229039192199707, -6.972052454948425 l-0.726255476474762, 0.2905021794140339 -3.3407750725746155, 3.776528537273407 l-2.6145195960998535, 1.0167576372623444 -4.067030549049377, 0.0 l-4.938537180423737, -1.8882642686367035 m-3.4860262274742126, -5.6647926568984985 l1.5977619588375092, 0.14525108970701694 m0.2905021794140339, 0.4357532784342766 " fill="none" stroke="black" stroke-width="1" /></svg>