<?xml version="1.0" encoding="utf-8" ?>
<svg baseProfile="full" height="68.97194393910468" version="1.1" width="87.85458500497043" xmlns="http://www.w3.org/2000/svg" xmlns:ev="http://www.w3.org/2001/xml-events" xmlns:xlink="http://www.w3.org/1999/xlink"><defs /><rect fill="white" height="68.97194393910468" width="87.85458500497043" x="0" y="0" /><path d="M39.86026233062148, 15.167578114196658 m-3.63127738237381, 0.2905021794140339 l-3.776528537273407, 1.452510952949524 -2.4692685902118683, 1.7430131137371063 l-2.178766429424286, 2.6145195960998535 -1.0167576372623444, 3.4860262274742126 l-0.5810043588280678, 4.357532858848572 0.4357532784342766, 4.938537180423737 l1.0167576372623444, 3.1955239176750183 1.452510952949524, 2.6145195960998535 l3.4860262274742126, 3.4860262274742126 1.8882642686367035, 1.0167576372623444 l2.4692685902118683, 0.4357532784342766 7.8435587882995605, -0.14525108970701694 l5.519541501998901, -1.452510952949524 3.63127738237381, -1.7430131137371063 l4.648034870624542, -3.776528537273407 2.4692685902118683, -3.63127738237381 l1.0167576372623444, -3.63127738237381 0.2905021794140339, -3.9217793941497803 l-0.4357532784342766, -2.6145195960998535 -1.5977619588375092, -3.4860262274742126 l-1.452510952949524, -1.8882642686367035 -3.3407750725746155, -2.324017435312271 l-2.324017435312271, -1.1620087176561356 -2.6145195960998535, -0.5810043588280678 l-5.374290347099304, -0.14525108970701694 -2.4692685902118683, 0.4357532784342766 m-10.748580694198608, -0.2905021794140339 l-2.178766429424286, -2.6145195960998535 -2.0335152745246887, -1.3072597980499268 l-2.7597707509994507, -1.1620087176561356 -4.212281703948975, -0.726255476474762 l-3.776528537273407, 0.0 -3.050273060798645, 1.1620087176561356 l-2.178766429424286, 1.3072597980499268 -2.7597707509994507, 2.6145195960998535 l-1.3072597980499268, 2.0335152745246887 -0.5810043588280678, 2.4692685902118683 l0.0, 3.9217793941497803 0.5810043588280678, 1.0167576372623444 l0.726255476474762, 0.14525108970701694 0.5810043588280678, -0.8715065568685532 l-0.8715065568685532, 1.5977619588375092 -3.1955239176750183, 18.59213948249817 l0.14525108970701694, 2.178766429424286 1.0167576372623444, 2.6145195960998535 l1.0167576372623444, 1.1620087176561356 3.050273060798645, 1.5977619588375092 l13.363100290298462, 0.2905021794140339 1.0167576372623444, 1.3072597980499268 l2.324017435312271, 6.2457966804504395 1.0167576372623444, 1.1620087176561356 l1.8882642686367035, 0.726255476474762 15.832369327545166, 0.8715065568685532 l2.905021905899048, 0.726255476474762 3.9217793941497803, 2.324017435312271 l1.452510952949524, 0.14525108970701694 3.1955239176750183, -0.14525108970701694 l5.374290347099304, -1.5977619588375092 4.938537180423737, -2.0335152745246887 l11.184333562850952, -5.955294966697693 2.178766429424286, -1.7430131137371063 l1.7430131137371063, -3.63127738237381 0.2905021794140339, -6.10054612159729 l-0.726255476474762, -8.279312252998352 -3.3407750725746155, -10.312827825546265 l-4.938537180423737, -7.698307633399963 -5.229039192199707, -4.357532858848572 l-4.067030549049377, -4.502783715724945 -3.776528537273407, -1.8882642686367035 l-4.938537180423737, -0.726255476474762 -6.2457966804504395, 0.0 l-8.279312252998352, 1.5977619588375092 -2.324017435312271, 0.726255476474762 l-0.8715065568685532, 0.726255476474762 -3.9217793941497803, 5.6647926568984985 " fill="none" stroke="black" stroke-width="1" /></svg>