<?xml version="1.0" encoding="utf-8" ?>
<svg baseProfile="full" height="84.36855863779783" version="1.1" width="77.83225951716304" xmlns="http://www.w3.org/2000/svg" xmlns:ev="http://www.w3.org/2001/xml-events" xmlns:xlink="http://www.w3.org/1999/xlink"><defs /><rect fill="white" height="84.36855863779783" width="77.83225951716304" x="0" y="0" /><path d="M63.536188108846545, 18.798852851614356 m-14.379857778549194, -2.324017435312271 l-8.42456340789795, -0.726255476474762 -2.905021905899048, 0.0 l-5.229039192199707, 1.5977619588375092 -4.502783715724945, 3.4860262274742126 l-5.810043811798096, 6.536298990249634 -3.1955239176750183, 5.08378803730011 l-2.178766429424286, 6.10054612159729 -0.14525108970701694, 9.877074360847473 l2.7597707509994507, 6.10054612159729 3.63127738237381, 4.502783715724945 l3.9217793941497803, 2.7597707509994507 2.324017435312271, 0.726255476474762 l8.86031687259674, -0.2905021794140339 3.4860262274742126, -1.1620087176561356 l5.6647926568984985, -3.050273060798645 5.810043811798096, -4.648034870624542 l2.324017435312271, -2.7597707509994507 1.8882642686367035, -3.050273060798645 l2.905021905899048, -7.1173036098480225 2.0335152745246887, -9.150818586349487 l0.14525108970701694, -6.10054612159729 m-33.40775012969971, -8.134061098098755 l-8.279312252998352, -4.357532858848572 -3.4860262274742126, -0.726255476474762 l0.2905021794140339, 2.324017435312271 3.9217793941497803, 7.26255476474762 l1.8882642686367035, 5.374290347099304 -2.178766429424286, 0.2905021794140339 l-12.34634280204773, -3.63127738237381 -0.14525108970701694, 2.905021905899048 l3.3407750725746155, 14.08935546875 0.4357532784342766, 5.229039192199707 l-1.7430131137371063, 0.14525108970701694 -2.6145195960998535, -0.5810043588280678 l-3.1955239176750183, -1.452510952949524 14.960862398147583, 23.385426998138428 l-1.3072597980499268, -3.9217793941497803 6.391047835350037, 4.793286025524139 l6.972052454948425, 6.391047835350037 0.726255476474762, -0.14525108970701694 l-0.2905021794140339, -4.938537180423737 1.5977619588375092, 0.14525108970701694 l6.826801300048828, 4.938537180423737 2.7597707509994507, 2.905021905899048 l2.7597707509994507, 1.8882642686367035 0.0, -6.2457966804504395 l-0.5810043588280678, -4.357532858848572 6.536298990249634, 3.4860262274742126 l4.793286025524139, 3.63127738237381 0.4357532784342766, -0.8715065568685532 l-0.726255476474762, -15.977619886398315 1.452510952949524, -3.1955239176750183 l1.452510952949524, -0.4357532784342766 3.4860262274742126, 0.5810043588280678 l7.8435587882995605, 6.681550145149231 -1.5977619588375092, -21.061408519744873 l0.726255476474762, -7.988809943199158 0.8715065568685532, -0.2905021794140339 l0.8715065568685532, 0.5810043588280678 0.8715065568685532, -0.4357532784342766 l-5.229039192199707, -16.703875064849854 -7.553057074546814, -9.00556743144989 l-0.8715065568685532, -0.2905021794140339 -1.5977619588375092, 11.184333562850952 l-2.0335152745246887, -2.0335152745246887 -6.10054612159729, -11.620087623596191 l-1.3072597980499268, 1.7430131137371063 -1.1620087176561356, 0.2905021794140339 l-6.391047835350037, -2.0335152745246887 -4.502783715724945, 4.648034870624542 l-4.357532858848572, -1.1620087176561356 -3.050273060798645, 7.553057074546814 m2.6145195960998535, 7.8435587882995605 l0.8715065568685532, -0.14525108970701694 1.5977619588375092, 2.905021905899048 l0.0, 1.7430131137371063 -4.067030549049377, 3.63127738237381 l-1.7430131137371063, -0.4357532784342766 -1.8882642686367035, -3.63127738237381 l2.324017435312271, -1.0167576372623444 m19.899399280548096, -0.4357532784342766 l0.8715065568685532, 0.726255476474762 0.14525108970701694, 3.63127738237381 l-2.4692685902118683, 2.178766429424286 -1.1620087176561356, 0.0 l-1.5977619588375092, -4.793286025524139 0.0, -1.7430131137371063 l1.5977619588375092, -2.178766429424286 1.452510952949524, 0.0 m-24.837937355041504, 18.44688892364502 l6.681550145149231, -0.8715065568685532 5.519541501998901, 0.0 l4.648034870624542, 1.5977619588375092 2.905021905899048, 2.324017435312271 l1.5977619588375092, 2.6145195960998535 " fill="none" stroke="black" stroke-width="1" /></svg>