<?xml version="1.0" encoding="utf-8" ?>
<svg baseProfile="full" height="55.31834061257541" version="1.1" width="55.60884258709848" xmlns="http://www.w3.org/2000/svg" xmlns:ev="http://www.w3.org/2001/xml-events" xmlns:xlink="http://www.w3.org/1999/xlink"><defs /><rect fill="white" height="55.31834061257541" width="55.60884258709848" x="0" y="0" /><path d="M32.88820871151984, 13.569814506918192 m-0.2905021794140339, -0.726255476474762 l-3.4860262274742126, -1.0167576372623444 -1.8882642686367035, 0.14525108970701694 l-2.7597707509994507, 1.5977619588375092 -3.4860262274742126, 3.050273060798645 l-2.324017435312271, 3.776528537273407 -0.8715065568685532, 2.905021905899048 l-0.14525108970701694, 9.441320896148682 1.8882642686367035, 4.648034870624542 l1.452510952949524, 1.5977619588375092 1.1620087176561356, 0.4357532784342766 l6.2457966804504395, 0.14525108970701694 4.357532858848572, -2.6145195960998535 l5.955294966697693, -6.10054612159729 1.452510952949524, -2.905021905899048 l0.726255476474762, -4.067030549049377 0.0, -3.776528537273407 l-2.324017435312271, -5.229039192199707 -3.050273060798645, -3.1955239176750183 l-3.4860262274742126, -0.8715065568685532 -4.793286025524139, 0.14525108970701694 l0.14525108970701694, 3.1955239176750183 m0.5810043588280678, 12.927347421646118 l-0.4357532784342766, 0.8715065568685532 0.0, 3.4860262274742126 l-1.0167576372623444, 1.3072597980499268 -2.178766429424286, -0.726255476474762 l-0.4357532784342766, -1.7430131137371063 m3.4860262274742126, -3.3407750725746155 l0.726255476474762, 4.212281703948975 0.8715065568685532, 1.5977619588375092 l0.726255476474762, 0.4357532784342766 0.726255476474762, -0.4357532784342766 l0.8715065568685532, -2.4692685902118683 m-5.08378803730011, -5.08378803730011 l1.452510952949524, 0.8715065568685532 0.4357532784342766, -0.726255476474762 l-0.726255476474762, 0.2905021794140339 m-5.08378803730011, -5.519541501998901 l1.8882642686367035, -1.452510952949524 2.324017435312271, -0.4357532784342766 l3.050273060798645, 0.4357532784342766 m3.3407750725746155, 0.2905021794140339 l6.10054612159729, 0.0 m9.441320896148682, -8.134061098098755 l0.8715065568685532, 0.8715065568685532 0.14525108970701694, 0.726255476474762 l-0.5810043588280678, 0.0 m-17.575381994247437, -2.4692685902118683 l8.715065717697144, -1.7430131137371063 6.536298990249634, 0.14525108970701694 l0.2905021794140339, 0.726255476474762 -2.905021905899048, 2.7597707509994507 l-1.452510952949524, 2.324017435312271 4.793286025524139, 1.3072597980499268 l3.1955239176750183, 3.3407750725746155 0.14525108970701694, 0.726255476474762 l-1.7430131137371063, 0.8715065568685532 -1.452510952949524, 1.452510952949524 l0.4357532784342766, 1.5977619588375092 2.0335152745246887, 2.0335152745246887 l-0.14525108970701694, 3.1955239176750183 -2.324017435312271, 4.212281703948975 l-2.4692685902118683, 2.6145195960998535 -4.793286025524139, 2.178766429424286 l0.2905021794140339, 4.648034870624542 -0.4357532784342766, 1.0167576372623444 l-1.5977619588375092, 1.452510952949524 -5.08378803730011, 1.452510952949524 l-3.1955239176750183, 0.14525108970701694 -2.4692685902118683, -2.4692685902118683 l-1.7430131137371063, 3.9217793941497803 -2.6145195960998535, 2.0335152745246887 l-4.212281703948975, 0.4357532784342766 -1.7430131137371063, -1.1620087176561356 l-1.5977619588375092, -2.7597707509994507 -1.0167576372623444, -5.955294966697693 l-5.519541501998901, -3.63127738237381 -3.4860262274742126, -3.1955239176750183 l-0.726255476474762, -1.5977619588375092 0.14525108970701694, -2.324017435312271 l3.776528537273407, -5.374290347099304 0.0, -0.726255476474762 l-2.324017435312271, -0.726255476474762 0.2905021794140339, -2.324017435312271 l1.8882642686367035, -3.1955239176750183 3.1955239176750183, -2.6145195960998535 l1.1620087176561356, 0.14525108970701694 2.905021905899048, -2.178766429424286 l5.810043811798096, -2.324017435312271 0.5810043588280678, 2.4692685902118683 l3.3407750725746155, -4.938537180423737 0.726255476474762, -0.4357532784342766 l1.0167576372623444, 2.324017435312271 0.726255476474762, 0.0 l3.4860262274742126, -4.067030549049377 1.7430131137371063, -0.726255476474762 l0.726255476474762, 0.0 0.14525108970701694, 1.8882642686367035 l-1.1620087176561356, 4.938537180423737 m-12.927347421646118, 26.435699462890625 l-2.324017435312271, 0.5810043588280678 -3.1955239176750183, 0.0 " fill="none" stroke="black" stroke-width="1" /></svg>