<?xml version="1.0" encoding="utf-8" ?>
<svg baseProfile="full" height="32.51391929574311" version="1.1" width="54.59208467975259" xmlns="http://www.w3.org/2000/svg" xmlns:ev="http://www.w3.org/2001/xml-events" xmlns:xlink="http://www.w3.org/1999/xlink"><defs /><rect fill="white" height="32.51391929574311" width="54.59208467975259" x="0" y="0" /><path d="M40.87701923213899, 10.955294519662857 m-3.1955239176750183, -0.8715065568685532 l-2.905021905899048, 1.452510952949524 -2.178766429424286, 1.8882642686367035 l-3.1955239176750183, 4.793286025524139 0.0, 1.8882642686367035 l1.3072597980499268, 1.5977619588375092 3.4860262274742126, 1.7430131137371063 l6.826801300048828, 0.4357532784342766 2.178766429424286, -0.726255476474762 l0.726255476474762, -1.8882642686367035 0.14525108970701694, -2.4692685902118683 l-0.4357532784342766, -4.648034870624542 -0.4357532784342766, -2.0335152745246887 l-2.324017435312271, -0.8715065568685532 m-6.972052454948425, 3.776528537273407 l0.14525108970701694, 0.14525108970701694 m4.938537180423737, 0.2905021794140339 l-0.14525108970701694, 0.14525108970701694 m-5.955294966697693, 4.067030549049377 l6.972052454948425, -0.14525108970701694 m-7.553057074546814, -4.502783715724945 l-0.5810043588280678, -1.8882642686367035 0.0, -2.0335152745246887 l0.8715065568685532, -3.4860262274742126 0.4357532784342766, -0.726255476474762 l0.0, 0.726255476474762 0.8715065568685532, 0.14525108970701694 l2.178766429424286, -2.7597707509994507 -0.14525108970701694, 2.7597707509994507 l1.1620087176561356, 0.0 3.1955239176750183, -1.1620087176561356 l0.14525108970701694, 0.8715065568685532 -0.5810043588280678, 1.1620087176561356 l3.63127738237381, -0.4357532784342766 1.452510952949524, 0.2905021794140339 l0.2905021794140339, 0.726255476474762 -0.4357532784342766, 1.0167576372623444 l1.0167576372623444, 0.726255476474762 3.776528537273407, 0.5810043588280678 l-3.050273060798645, 1.7430131137371063 -0.2905021794140339, 0.726255476474762 l2.4692685902118683, 0.5810043588280678 0.0, 0.726255476474762 l-2.7597707509994507, 2.0335152745246887 1.7430131137371063, 2.0335152745246887 l-1.8882642686367035, 0.8715065568685532 -0.5810043588280678, 0.726255476474762 l1.5977619588375092, 0.5810043588280678 0.5810043588280678, 2.324017435312271 l-1.3072597980499268, 0.2905021794140339 -2.0335152745246887, -0.5810043588280678 l0.2905021794140339, 1.8882642686367035 -0.726255476474762, 1.3072597980499268 l-1.3072597980499268, 0.5810043588280678 -1.7430131137371063, 0.14525108970701694 l-0.8715065568685532, -0.8715065568685532 -0.4357532784342766, -1.5977619588375092 l-0.8715065568685532, -0.2905021794140339 -1.7430131137371063, 1.452510952949524 l-3.050273060798645, 1.1620087176561356 -1.5977619588375092, -0.5810043588280678 l-1.3072597980499268, -2.0335152745246887 -2.7597707509994507, -0.14525108970701694 l-2.0335152745246887, -4.502783715724945 0.14525108970701694, -1.7430131137371063 l3.9217793941497803, -2.7597707509994507 0.14525108970701694, -1.5977619588375092 m2.0335152745246887, -0.2905021794140339 l-23.966429233551025, -0.2905021794140339 -2.4692685902118683, 1.0167576372623444 l-0.726255476474762, 1.0167576372623444 0.14525108970701694, 2.905021905899048 l1.1620087176561356, 1.5977619588375092 6.972052454948425, 2.7597707509994507 l7.698307633399963, 1.3072597980499268 10.02232551574707, -0.14525108970701694 l0.726255476474762, -0.4357532784342766 " fill="none" stroke="black" stroke-width="1" /></svg>