<?xml version="1.0" encoding="utf-8" ?>
<svg baseProfile="full" height="85.67581916227937" version="1.1" width="136.65895321406424" xmlns="http://www.w3.org/2000/svg" xmlns:ev="http://www.w3.org/2001/xml-events" xmlns:xlink="http://www.w3.org/1999/xlink"><defs /><rect fill="white" height="85.67581916227937" width="136.65895321406424" x="0" y="0" /><path d="M81.25682329759002, 36.519487984478474 m-5.519541501998901, -0.726255476474762 l-7.988809943199158, 0.2905021794140339 -4.793286025524139, 1.8882642686367035 l-4.793286025524139, 3.63127738237381 -1.1620087176561356, 1.5977619588375092 l-0.8715065568685532, 2.178766429424286 -1.1620087176561356, 7.8435587882995605 l-0.14525108970701694, 7.26255476474762 0.726255476474762, 1.3072597980499268 l2.178766429424286, 2.0335152745246887 2.6145195960998535, 1.1620087176561356 l2.7597707509994507, 0.2905021794140339 5.08378803730011, 0.0 l5.6647926568984985, -1.8882642686367035 7.698307633399963, -4.502783715724945 l3.050273060798645, -2.6145195960998535 2.6145195960998535, -8.279312252998352 l0.2905021794140339, -4.938537180423737 -2.324017435312271, -1.7430131137371063 l-0.4357532784342766, -1.0167576372623444 -4.212281703948975, -3.776528537273407 m-0.5810043588280678, -1.0167576372623444 l5.519541501998901, -8.42456340789795 4.938537180423737, -6.10054612159729 l4.502783715724945, -4.212281703948975 6.10054612159729, -3.9217793941497803 m-14.52510952949524, 32.97199726104736 l2.4692685902118683, 0.14525108970701694 6.681550145149231, -1.5977619588375092 l16.26812219619751, -2.4692685902118683 8.279312252998352, -0.2905021794140339 m-32.681496143341064, 16.703875064849854 l1.8882642686367035, 6.536298990249634 1.0167576372623444, 8.86031687259674 l-0.2905021794140339, 5.955294966697693 -1.3072597980499268, 0.2905021794140339 m-10.603330135345459, -10.16757607460022 l-1.452510952949524, 4.212281703948975 -2.6145195960998535, 5.374290347099304 l-0.8715065568685532, 1.1620087176561356 -1.0167576372623444, 0.14525108970701694 l-3.1955239176750183, -6.391047835350037 -4.067030549049377, -11.039083003997803 l-0.8715065568685532, 0.5810043588280678 -3.3407750725746155, 5.519541501998901 l-4.938537180423737, 6.2457966804504395 -3.63127738237381, 3.4860262274742126 l-2.4692685902118683, 0.5810043588280678 -1.1620087176561356, -0.2905021794140339 l-1.3072597980499268, -1.452510952949524 0.14525108970701694, -9.150818586349487 l1.7430131137371063, -7.698307633399963 -10.893832445144653, -0.2905021794140339 l-1.3072597980499268, -0.4357532784342766 0.4357532784342766, -2.905021905899048 l3.4860262274742126, -5.6647926568984985 5.6647926568984985, -5.6647926568984985 l9.150818586349487, -6.972052454948425 5.229039192199707, -4.938537180423737 l-3.9217793941497803, 6.536298990249634 -0.726255476474762, 2.324017435312271 l0.0, -3.3407750725746155 1.1620087176561356, -2.0335152745246887 l3.9217793941497803, -5.08378803730011 4.938537180423737, -4.793286025524139 l0.8715065568685532, 0.0 1.7430131137371063, 3.050273060798645 l1.7430131137371063, 1.7430131137371063 3.050273060798645, -0.2905021794140339 l13.94410490989685, -13.508352041244507 6.681550145149231, -5.519541501998901 l6.2457966804504395, -4.357532858848572 5.519541501998901, -3.1955239176750183 l3.3407750725746155, -0.726255476474762 -0.726255476474762, 5.955294966697693 l-2.7597707509994507, 9.150818586349487 -4.648034870624542, 9.296069741249084 l-6.972052454948425, 10.16757607460022 4.938537180423737, -5.955294966697693 l4.357532858848572, -3.1955239176750183 0.14525108970701694, 0.726255476474762 l-1.1620087176561356, 3.63127738237381 -3.776528537273407, 5.6647926568984985 l-7.407805919647217, 8.569814562797546 -0.726255476474762, 2.6145195960998535 l2.905021905899048, 0.2905021794140339 7.1173036098480225, -1.0167576372623444 l8.279312252998352, -0.14525108970701694 2.0335152745246887, 0.5810043588280678 l0.726255476474762, 0.8715065568685532 0.0, 1.5977619588375092 l-1.8882642686367035, 3.050273060798645 -2.7597707509994507, 2.7597707509994507 l-8.42456340789795, 6.391047835350037 2.324017435312271, 0.0 l3.1955239176750183, -0.8715065568685532 -11.474835872650146, -0.5810043588280678 l-2.0335152745246887, -2.6145195960998535 m-24.547433853149414, -18.737391233444214 l-1.0167576372623444, 0.726255476474762 -0.5810043588280678, 2.178766429424286 l0.8715065568685532, 0.2905021794140339 0.5810043588280678, -0.8715065568685532 l0.0, -4.212281703948975 m11.76533818244934, 4.793286025524139 l-0.5810043588280678, 1.0167576372623444 0.0, 1.7430131137371063 l0.726255476474762, 0.14525108970701694 1.0167576372623444, -2.4692685902118683 l0.14525108970701694, -3.1955239176750183 -0.726255476474762, -0.2905021794140339 m-10.603330135345459, 16.413373947143555 l1.7430131137371063, -2.6145195960998535 2.0335152745246887, -4.938537180423737 l1.7430131137371063, -2.7597707509994507 0.726255476474762, 2.6145195960998535 l0.0, 4.938537180423737 -2.324017435312271, 1.0167576372623444 l-2.0335152745246887, -0.5810043588280678 m4.648034870624542, -3.050273060798645 l21.061408519744873, -4.648034870624542 10.458078384399414, -2.905021905899048 m-29.631223678588867, 9.150818586349487 l18.44688892364502, 0.14525108970701694 0.726255476474762, -0.4357532784342766 m-21.351909637451172, 4.938537180423737 l3.4860262274742126, 3.050273060798645 5.229039192199707, 2.6145195960998535 l12.927347421646118, 7.988809943199158 m-26.726200580596924, -21.93291425704956 l-13.217849731445312, -2.0335152745246887 -13.363100290298462, -0.5810043588280678 l-17.284879684448242, -2.324017435312271 -0.726255476474762, -0.5810043588280678 m42.994322776794434, 9.877074360847473 l-24.983186721801758, 0.0 -32.97199726104736, -3.63127738237381 l-4.357532858848572, -1.3072597980499268 0.14525108970701694, -0.4357532784342766 m59.55294609069824, 6.826801300048828 l-10.748580694198608, 3.4860262274742126 -22.80442237854004, 3.3407750725746155 l-3.1955239176750183, 0.726255476474762 -1.5977619588375092, 0.8715065568685532 m105.30704498291016, -16.703875064849854 l-3.9217793941497803, 4.357532858848572 -6.10054612159729, 11.329585313796997 l-2.0335152745246887, 2.4692685902118683 -0.14525108970701694, -3.63127738237381 l2.905021905899048, -7.698307633399963 5.08378803730011, -6.2457966804504395 l0.2905021794140339, 2.905021905899048 -3.4860262274742126, 6.681550145149231 l-0.726255476474762, 2.4692685902118683 1.7430131137371063, 0.8715065568685532 l4.212281703948975, 0.0 " fill="none" stroke="black" stroke-width="1" /></svg>