<?xml version="1.0" encoding="utf-8" ?>
<svg baseProfile="full" height="86.25682337209582" version="1.1" width="102.23444418981671" xmlns="http://www.w3.org/2000/svg" xmlns:ev="http://www.w3.org/2001/xml-events" xmlns:xlink="http://www.w3.org/1999/xlink"><defs /><rect fill="white" height="86.25682337209582" width="102.23444418981671" x="0" y="0" /><path d="M50.60884338803589, 20.83236726000905 m-2.905021905899048, 0.14525108970701694 l-2.178766429424286, 2.0335152745246887 -4.212281703948975, 6.10054612159729 l-1.3072597980499268, 2.6145195960998535 -3.4860262274742126, 9.441320896148682 l-1.0167576372623444, 4.212281703948975 -0.2905021794140339, 6.681550145149231 l1.0167576372623444, 2.324017435312271 2.905021905899048, 2.178766429424286 l5.08378803730011, 1.5977619588375092 5.810043811798096, 0.726255476474762 l9.296069741249084, 0.0 5.6647926568984985, -2.0335152745246887 l2.7597707509994507, -2.0335152745246887 1.5977619588375092, -2.6145195960998535 l1.7430131137371063, -6.681550145149231 0.14525108970701694, -8.279312252998352 l-1.5977619588375092, -6.10054612159729 -2.0335152745246887, -4.357532858848572 l-1.7430131137371063, -1.8882642686367035 -2.324017435312271, -1.452510952949524 l-2.6145195960998535, -0.5810043588280678 -9.00556743144989, -0.14525108970701694 l-1.8882642686367035, -0.4357532784342766 m-1.0167576372623444, 6.2457966804504395 l-1.7430131137371063, 7.698307633399963 0.8715065568685532, 0.0 l1.1620087176561356, -2.324017435312271 0.14525108970701694, -2.178766429424286 l-0.8715065568685532, -1.452510952949524 m6.681550145149231, -0.2905021794140339 l-0.14525108970701694, 6.826801300048828 0.8715065568685532, 0.5810043588280678 l1.0167576372623444, -0.14525108970701694 2.324017435312271, -2.0335152745246887 l1.0167576372623444, -2.0335152745246887 0.14525108970701694, -1.452510952949524 l-3.63127738237381, -0.14525108970701694 m-4.357532858848572, 10.458078384399414 l-0.5810043588280678, 3.9217793941497803 0.726255476474762, 0.2905021794140339 l2.178766429424286, -1.3072597980499268 1.3072597980499268, -1.8882642686367035 l0.14525108970701694, -1.452510952949524 -2.324017435312271, -1.7430131137371063 l-1.5977619588375092, -0.4357532784342766 m0.14525108970701694, 4.357532858848572 l-0.8715065568685532, 2.905021905899048 -1.3072597980499268, 2.0335152745246887 l-2.178766429424286, 2.905021905899048 -2.905021905899048, 2.7597707509994507 l-1.5977619588375092, 0.726255476474762 -2.7597707509994507, 0.0 l-2.7597707509994507, -1.3072597980499268 m15.977619886398315, -9.00556743144989 l-1.452510952949524, 5.374290347099304 0.14525108970701694, 3.1955239176750183 l1.0167576372623444, 1.5977619588375092 0.8715065568685532, 0.4357532784342766 l5.955294966697693, 0.4357532784342766 m1.452510952949524, -44.73733425140381 l-2.0335152745246887, 7.1173036098480225 -2.905021905899048, 7.1173036098480225 l13.653602600097656, -7.988809943199158 3.3407750725746155, -3.3407750725746155 l-9.877074360847473, 9.731823205947876 1.3072597980499268, -1.3072597980499268 l3.4860262274742126, -2.0335152745246887 4.793286025524139, -2.178766429424286 l11.620087623596191, -3.050273060798645 -0.2905021794140339, 1.1620087176561356 l-2.6145195960998535, 3.050273060798645 -9.441320896148682, 7.8435587882995605 l13.508352041244507, -1.5977619588375092 8.279312252998352, 0.0 l0.726255476474762, 0.2905021794140339 0.0, 1.7430131137371063 l-1.8882642686367035, 1.8882642686367035 -6.10054612159729, 2.324017435312271 l-9.877074360847473, 2.324017435312271 17.139629125595093, 0.0 l-8.86031687259674, 3.050273060798645 -13.508352041244507, 3.63127738237381 l23.675928115844727, 0.14525108970701694 -17.284879684448242, 4.938537180423737 l1.0167576372623444, 0.5810043588280678 2.7597707509994507, 0.4357532784342766 l14.52510952949524, 0.2905021794140339 -24.837937355041504, 0.14525108970701694 l18.156386613845825, 2.4692685902118683 -3.1955239176750183, 1.0167576372623444 l-10.893832445144653, 1.5977619588375092 -3.9217793941497803, 0.0 l-0.4357532784342766, -1.452510952949524 0.0, 4.938537180423737 l3.9217793941497803, 25.273690223693848 -1.1620087176561356, -2.7597707509994507 l-9.441320896148682, -9.877074360847473 -5.955294966697693, -10.02232551574707 l-0.2905021794140339, 7.407805919647217 -2.7597707509994507, 8.279312252998352 l-0.726255476474762, 0.0 -0.4357532784342766, -1.3072597980499268 l-3.4860262274742126, -12.782095670700073 -3.3407750725746155, 6.2457966804504395 l-2.7597707509994507, 4.067030549049377 -9.441320896148682, 10.748580694198608 l-0.4357532784342766, -8.86031687259674 1.1620087176561356, -6.2457966804504395 l-1.3072597980499268, 1.5977619588375092 -2.4692685902118683, 1.5977619588375092 l-3.776528537273407, 1.1620087176561356 -0.8715065568685532, -0.2905021794140339 l-0.5810043588280678, -1.8882642686367035 0.0, -0.726255476474762 l1.5977619588375092, -1.8882642686367035 3.1955239176750183, -2.178766429424286 m-27.742958068847656, -22.368667125701904 l3.4860262274742126, 0.0 m29.77647304534912, 15.396615266799927 l-7.553057074546814, 2.6145195960998535 -11.474835872650146, 3.1955239176750183 l-1.5977619588375092, 0.8715065568685532 4.212281703948975, -2.905021905899048 l8.42456340789795, -3.63127738237381 -11.184333562850952, 0.726255476474762 l1.452510952949524, -1.5977619588375092 3.050273060798645, -1.3072597980499268 l10.02232551574707, -2.905021905899048 -13.217849731445312, -1.8882642686367035 l-1.452510952949524, -0.5810043588280678 1.3072597980499268, -0.5810043588280678 l14.234607219696045, 0.0 -25.128438472747803, -3.63127738237381 l28.033461570739746, -0.4357532784342766 -0.4357532784342766, -0.8715065568685532 l-8.42456340789795, -5.08378803730011 -3.3407750725746155, -2.905021905899048 l-6.10054612159729, -7.26255476474762 -2.4692685902118683, -5.6647926568984985 l-1.0167576372623444, -5.374290347099304 0.0, -6.391047835350037 l1.8882642686367035, -4.938537180423737 1.452510952949524, -1.0167576372623444 l1.7430131137371063, 0.4357532784342766 8.134061098098755, 6.826801300048828 l5.6647926568984985, 6.391047835350037 -6.536298990249634, -6.972052454948425 l-0.726255476474762, -4.212281703948975 1.1620087176561356, -1.452510952949524 l1.3072597980499268, -0.4357532784342766 2.4692685902118683, 2.178766429424286 l3.3407750725746155, 4.502783715724945 1.8882642686367035, 3.776528537273407 " fill="none" stroke="black" stroke-width="1" /></svg>