<?xml version="1.0" encoding="utf-8" ?>
<svg baseProfile="full" height="94.39088446088135" version="1.1" width="92.50262114219368" xmlns="http://www.w3.org/2000/svg" xmlns:ev="http://www.w3.org/2001/xml-events" xmlns:xlink="http://www.w3.org/1999/xlink"><defs /><rect fill="white" height="94.39088446088135" width="92.50262114219368" x="0" y="0" /><path d="M52.787609715014696, 34.63122194632888 m-0.726255476474762, -2.6145195960998535 l-3.4860262274742126, -1.452510952949524 -1.5977619588375092, 0.4357532784342766 l-3.050273060798645, 2.0335152745246887 -2.6145195960998535, 3.1955239176750183 l-2.178766429424286, 5.955294966697693 -0.14525108970701694, 3.3407750725746155 l1.0167576372623444, 2.324017435312271 1.7430131137371063, 1.7430131137371063 l4.067030549049377, 1.452510952949524 8.715065717697144, 0.2905021794140339 l1.1620087176561356, -0.2905021794140339 0.726255476474762, -0.8715065568685532 l1.3072597980499268, -5.519541501998901 -0.4357532784342766, -5.519541501998901 l-1.5977619588375092, -4.067030549049377 -3.63127738237381, -6.10054612159729 l-3.3407750725746155, -1.0167576372623444 m-8.715065717697144, 5.6647926568984985 l-4.357532858848572, -12.20109224319458 -1.1620087176561356, -4.793286025524139 l0.14525108970701694, -3.3407750725746155 2.178766429424286, -0.5810043588280678 l2.4692685902118683, 1.8882642686367035 3.1955239176750183, 4.648034870624542 l0.726255476474762, 2.0335152745246887 1.3072597980499268, 10.603330135345459 l4.938537180423737, -5.6647926568984985 5.810043811798096, -2.905021905899048 l2.324017435312271, -0.5810043588280678 1.452510952949524, 0.14525108970701694 l1.5977619588375092, 3.050273060798645 0.726255476474762, 2.905021905899048 l-0.14525108970701694, 2.905021905899048 -0.8715065568685532, 1.452510952949524 l-1.5977619588375092, 1.0167576372623444 -2.905021905899048, 0.14525108970701694 m-3.4860262274742126, -24.11168098449707 l1.7430131137371063, 0.0 7.553057074546814, -1.5977619588375092 l2.6145195960998535, 0.14525108970701694 -0.4357532784342766, 3.4860262274742126 l11.910589933395386, 5.810043811798096 2.4692685902118683, 1.7430131137371063 l0.8715065568685532, 1.1620087176561356 -0.2905021794140339, 2.178766429424286 l-7.1173036098480225, 4.502783715724945 -0.4357532784342766, 1.5977619588375092 l3.776528537273407, 2.7597707509994507 9.441320896148682, 5.374290347099304 l2.324017435312271, 2.0335152745246887 0.726255476474762, 2.178766429424286 l-0.726255476474762, 1.1620087176561356 -2.178766429424286, 1.452510952949524 l-6.826801300048828, 3.050273060798645 0.726255476474762, 0.2905021794140339 l0.4357532784342766, 1.1620087176561356 -0.14525108970701694, 6.10054612159729 l-2.0335152745246887, 4.357532858848572 -1.452510952949524, 2.0335152745246887 l-1.452510952949524, 1.7430131137371063 -3.1955239176750183, 2.178766429424286 l0.726255476474762, -2.4692685902118683 -2.6145195960998535, 5.374290347099304 l-6.10054612159729, 10.02232551574707 -2.905021905899048, 3.3407750725746155 l0.0, -0.726255476474762 -1.1620087176561356, -0.4357532784342766 l-1.3072597980499268, 0.2905021794140339 -13.653602600097656, 5.374290347099304 l-17.430131435394287, 3.4860262274742126 -4.212281703948975, 0.0 l-0.5810043588280678, -0.726255476474762 0.8715065568685532, -6.536298990249634 l1.5977619588375092, -5.519541501998901 -4.793286025524139, -1.7430131137371063 l-11.620087623596191, -2.6145195960998535 -0.5810043588280678, -1.0167576372623444 l0.0, -2.324017435312271 0.726255476474762, -2.4692685902118683 l1.452510952949524, -2.6145195960998535 4.648034870624542, -5.6647926568984985 l2.905021905899048, -2.178766429424286 0.4357532784342766, -0.8715065568685532 l-1.8882642686367035, -4.648034870624542 -0.2905021794140339, -3.050273060798645 l0.0, -9.150818586349487 0.8715065568685532, -5.810043811798096 l-8.42456340789795, -3.9217793941497803 -2.324017435312271, -2.0335152745246887 l0.0, -3.050273060798645 0.4357532784342766, -1.3072597980499268 l2.0335152745246887, -2.905021905899048 2.905021905899048, -1.3072597980499268 l6.10054612159729, -0.4357532784342766 -4.502783715724945, -1.8882642686367035 l-0.5810043588280678, -0.726255476474762 0.726255476474762, -2.4692685902118683 l2.905021905899048, -1.8882642686367035 2.4692685902118683, -0.8715065568685532 l5.810043811798096, -0.8715065568685532 3.4860262274742126, 0.0 l2.178766429424286, -1.1620087176561356 3.9217793941497803, -1.1620087176561356 l9.731823205947876, -1.3072597980499268 6.681550145149231, -0.14525108970701694 l0.2905021794140339, 0.8715065568685532 -0.8715065568685532, 2.4692685902118683 l5.374290347099304, 4.067030549049377 2.324017435312271, 2.7597707509994507 " fill="none" stroke="black" stroke-width="1" /></svg>