<?xml version="1.0" encoding="utf-8" ?>
<svg baseProfile="full" height="59.530622176826" version="1.1" width="50.379803236573935" xmlns="http://www.w3.org/2000/svg" xmlns:ev="http://www.w3.org/2001/xml-events" xmlns:xlink="http://www.w3.org/1999/xlink"><defs /><rect fill="white" height="59.530622176826" width="50.379803236573935" x="0" y="0" /><path d="M32.7429583016783, 23.882642202079296 m0.4357532784342766, -0.726255476474762 l-0.2905021794140339, -1.1620087176561356 -1.1620087176561356, -0.8715065568685532 l-2.7597707509994507, -0.14525108970701694 -3.3407750725746155, 0.726255476474762 l-2.6145195960998535, 1.3072597980499268 -2.4692685902118683, 2.324017435312271 l-1.8882642686367035, 3.1955239176750183 -0.8715065568685532, 2.6145195960998535 l-0.14525108970701694, 2.0335152745246887 0.4357532784342766, 1.5977619588375092 l1.3072597980499268, 1.5977619588375092 2.7597707509994507, 1.5977619588375092 l2.905021905899048, 0.8715065568685532 2.6145195960998535, 0.14525108970701694 l2.324017435312271, -0.2905021794140339 1.8882642686367035, -0.8715065568685532 l2.178766429424286, -2.6145195960998535 0.4357532784342766, -2.178766429424286 l-0.5810043588280678, -5.519541501998901 -0.8715065568685532, -1.8882642686367035 l-1.3072597980499268, -1.1620087176561356 -2.178766429424286, -1.0167576372623444 m3.050273060798645, -10.458078384399414 l0.726255476474762, -0.726255476474762 0.0, -0.726255476474762 l-1.0167576372623444, -1.452510952949524 -7.26255476474762, -4.793286025524139 l-2.7597707509994507, -0.2905021794140339 -1.1620087176561356, 0.726255476474762 l-1.0167576372623444, 1.8882642686367035 -0.5810043588280678, 2.905021905899048 l-0.2905021794140339, 5.08378803730011 -0.5810043588280678, 0.14525108970701694 l-4.212281703948975, -2.0335152745246887 -1.1620087176561356, 0.14525108970701694 l-1.3072597980499268, 1.3072597980499268 -1.1620087176561356, 2.4692685902118683 l-1.0167576372623444, 7.8435587882995605 -0.4357532784342766, 0.726255476474762 l-2.6145195960998535, 1.7430131137371063 -0.8715065568685532, 2.324017435312271 l0.4357532784342766, 5.519541501998901 2.4692685902118683, 6.536298990249634 l-3.3407750725746155, 7.407805919647217 -0.4357532784342766, 2.324017435312271 l0.2905021794140339, 1.3072597980499268 1.3072597980499268, 0.8715065568685532 l2.178766429424286, 0.2905021794140339 2.178766429424286, -0.4357532784342766 l8.134061098098755, -2.7597707509994507 1.8882642686367035, 0.2905021794140339 l2.7597707509994507, 1.5977619588375092 1.452510952949524, 0.0 l1.7430131137371063, -0.8715065568685532 6.536298990249634, -5.374290347099304 l1.1620087176561356, -0.14525108970701694 1.1620087176561356, 0.2905021794140339 l2.6145195960998535, 1.7430131137371063 1.7430131137371063, -0.2905021794140339 l1.3072597980499268, -1.5977619588375092 1.3072597980499268, -4.212281703948975 l0.0, -1.7430131137371063 -1.8882642686367035, 0.0 l-2.0335152745246887, 2.178766429424286 1.3072597980499268, -1.8882642686367035 l1.452510952949524, -3.1955239176750183 3.1955239176750183, -8.715065717697144 l0.5810043588280678, -4.357532858848572 -0.5810043588280678, -4.357532858848572 l-1.0167576372623444, -0.726255476474762 -5.519541501998901, -0.726255476474762 l-1.0167576372623444, -0.5810043588280678 -1.1620087176561356, -1.5977619588375092 l-2.0335152745246887, -7.407805919647217 -1.452510952949524, 0.14525108970701694 l-2.905021905899048, 2.178766429424286 m-6.972052454948425, 14.379857778549194 l-0.8715065568685532, 1.3072597980499268 0.726255476474762, 3.4860262274742126 m6.391047835350037, -3.776528537273407 l0.0, 1.0167576372623444 m0.2905021794140339, 5.229039192199707 l-2.4692685902118683, 2.4692685902118683 -2.6145195960998535, 1.452510952949524 l-1.3072597980499268, 0.0 -1.3072597980499268, -0.726255476474762 l-1.452510952949524, -2.4692685902118683 " fill="none" stroke="black" stroke-width="1" /></svg>