<?xml version="1.0" encoding="utf-8" ?>
<svg baseProfile="full" height="42.82674599438906" version="1.1" width="40.06697615608573" xmlns="http://www.w3.org/2000/svg" xmlns:ev="http://www.w3.org/2001/xml-events" xmlns:xlink="http://www.w3.org/1999/xlink"><defs /><rect fill="white" height="42.82674599438906" width="40.06697615608573" x="0" y="0" /><path d="M16.039083348587155, 12.843558341264725 m-0.726255476474762, 1.452510952949524 l1.452510952949524, 0.4357532784342766 0.5810043588280678, -0.726255476474762 l-0.2905021794140339, -0.726255476474762 -0.5810043588280678, -0.14525108970701694 m4.067030549049377, -0.2905021794140339 l-0.5810043588280678, 0.726255476474762 1.3072597980499268, 0.8715065568685532 l-0.5810043588280678, -1.452510952949524 -0.726255476474762, 0.0 m-2.178766429424286, 4.067030549049377 l0.2905021794140339, 0.726255476474762 0.726255476474762, 0.0 l0.14525108970701694, -0.726255476474762 -0.8715065568685532, -0.726255476474762 m-2.4692685902118683, 2.324017435312271 l2.4692685902118683, 1.0167576372623444 3.4860262274742126, -0.14525108970701694 l0.2905021794140339, -0.4357532784342766 m-7.1173036098480225, -8.86031687259674 l-2.324017435312271, -1.452510952949524 -7.407805919647217, -3.050273060798645 l3.3407750725746155, 1.452510952949524 1.452510952949524, 3.9217793941497803 l-3.4860262274742126, -0.5810043588280678 0.0, 5.955294966697693 l-0.8715065568685532, 0.4357532784342766 -0.2905021794140339, 1.1620087176561356 l0.14525108970701694, 3.776528537273407 1.8882642686367035, 2.178766429424286 l1.0167576372623444, 2.7597707509994507 0.726255476474762, 0.5810043588280678 l1.452510952949524, -2.324017435312271 0.5810043588280678, 3.4860262274742126 l0.726255476474762, 0.5810043588280678 0.2905021794140339, 1.5977619588375092 l2.178766429424286, 1.1620087176561356 0.4357532784342766, -0.726255476474762 l1.452510952949524, 1.0167576372623444 0.5810043588280678, -0.726255476474762 l0.2905021794140339, 3.3407750725746155 0.8715065568685532, 3.050273060798645 l0.726255476474762, -0.8715065568685532 2.324017435312271, -7.698307633399963 l3.3407750725746155, 0.4357532784342766 0.2905021794140339, 0.8715065568685532 l0.8715065568685532, 0.4357532784342766 0.4357532784342766, -0.2905021794140339 m0.8715065568685532, -4.502783715724945 l0.0, 0.0 m-0.4357532784342766, 5.810043811798096 l0.726255476474762, 0.5810043588280678 0.2905021794140339, -0.8715065568685532 l0.0, -3.3407750725746155 0.5810043588280678, 1.3072597980499268 l2.0335152745246887, 1.3072597980499268 0.726255476474762, -1.0167576372623444 l0.2905021794140339, -4.502783715724945 0.5810043588280678, -1.0167576372623444 l0.0, -5.08378803730011 0.14525108970701694, -0.726255476474762 l0.726255476474762, 0.2905021794140339 0.8715065568685532, -3.776528537273407 l0.726255476474762, -1.3072597980499268 1.1620087176561356, -6.681550145149231 l-1.452510952949524, -1.0167576372623444 -9.441320896148682, 0.0 l-2.6145195960998535, -1.1620087176561356 " fill="none" stroke="black" stroke-width="1" /></svg>