<?xml version="1.0" encoding="utf-8" ?>
<svg baseProfile="full" height="82.48029327951372" version="1.1" width="80.0110275670886" xmlns="http://www.w3.org/2000/svg" xmlns:ev="http://www.w3.org/2001/xml-events" xmlns:xlink="http://www.w3.org/1999/xlink"><defs /><rect fill="white" height="82.48029327951372" width="80.0110275670886" x="0" y="0" /><path d="M30.12843900360167, 15.893832240253687 m-10.748580694198608, 0.14525108970701694 l-8.715065717697144, 3.050273060798645 -2.4692685902118683, 1.5977619588375092 l-2.0335152745246887, 2.178766429424286 -1.0167576372623444, 2.7597707509994507 l-0.14525108970701694, 4.067030549049377 1.5977619588375092, 3.3407750725746155 l2.4692685902118683, 2.4692685902118683 3.050273060798645, 1.452510952949524 l3.050273060798645, 0.14525108970701694 6.536298990249634, -1.8882642686367035 l4.793286025524139, -2.6145195960998535 1.452510952949524, -1.7430131137371063 l0.726255476474762, -2.178766429424286 0.2905021794140339, -9.00556743144989 l0.726255476474762, -3.63127738237381 m-19.899399280548096, 2.324017435312271 l2.324017435312271, -7.1173036098480225 0.2905021794140339, -5.374290347099304 l-1.7430131137371063, 6.2457966804504395 -0.2905021794140339, 3.4860262274742126 l1.7430131137371063, -0.4357532784342766 2.6145195960998535, -2.6145195960998535 l4.938537180423737, -7.553057074546814 -0.8715065568685532, 9.150818586349487 l1.1620087176561356, -1.452510952949524 -2.7597707509994507, 5.374290347099304 l2.0335152745246887, -3.9217793941497803 m-8.134061098098755, 23.53067636489868 l0.4357532784342766, 4.212281703948975 0.726255476474762, 0.5810043588280678 l2.324017435312271, -4.212281703948975 1.452510952949524, -6.391047835350037 l-0.726255476474762, 6.972052454948425 0.0, 4.212281703948975 l0.726255476474762, 0.2905021794140339 1.1620087176561356, -0.8715065568685532 l1.8882642686367035, -2.6145195960998535 4.793286025524139, -9.150818586349487 l-3.63127738237381, 13.072597980499268 3.050273060798645, -11.184333562850952 m-14.379857778549194, -5.519541501998901 l0.0, 0.0 m0.14525108970701694, -0.14525108970701694 l0.2905021794140339, -0.726255476474762 m0.0, -0.726255476474762 l0.0, 0.0 m-1.452510952949524, 3.1955239176750183 l0.14525108970701694, 2.324017435312271 1.452510952949524, 0.726255476474762 l3.9217793941497803, 0.5810043588280678 m13.508352041244507, -5.6647926568984985 l1.0167576372623444, 1.5977619588375092 6.2457966804504395, 6.2457966804504395 l1.8882642686367035, 3.9217793941497803 2.178766429424286, 7.988809943199158 l0.2905021794140339, 7.1173036098480225 -1.0167576372623444, 6.391047835350037 l1.3072597980499268, 1.8882642686367035 5.229039192199707, 3.63127738237381 l7.553057074546814, 3.1955239176750183 13.363100290298462, 0.5810043588280678 l10.02232551574707, -0.2905021794140339 m-51.85463905334473, -36.89377784729004 l1.8882642686367035, 6.2457966804504395 1.0167576372623444, 5.519541501998901 l0.14525108970701694, 13.217849731445312 0.726255476474762, 2.7597707509994507 l2.0335152745246887, 1.7430131137371063 10.312827825546265, 5.374290347099304 l8.715065717697144, 10.16757607460022 1.0167576372623444, 0.4357532784342766 l5.229039192199707, 0.0 2.0335152745246887, -1.1620087176561356 l6.972052454948425, -0.4357532784342766 6.536298990249634, -3.9217793941497803 l1.452510952949524, -1.7430131137371063 0.2905021794140339, -1.1620087176561356 m-35.29601573944092, -16.413373947143555 l7.988809943199158, -3.1955239176750183 2.0335152745246887, -1.7430131137371063 l1.452510952949524, -2.4692685902118683 1.8882642686367035, -1.452510952949524 l3.63127738237381, -0.4357532784342766 0.8715065568685532, 0.5810043588280678 l0.5810043588280678, 1.1620087176561356 " fill="none" stroke="black" stroke-width="1" /></svg>