<?xml version="1.0" encoding="utf-8" ?>
<svg baseProfile="full" height="56.916103176772594" version="1.1" width="50.67030567675829" xmlns="http://www.w3.org/2000/svg" xmlns:ev="http://www.w3.org/2001/xml-events" xmlns:xlink="http://www.w3.org/1999/xlink"><defs /><rect fill="white" height="56.916103176772594" width="50.67030567675829" x="0" y="0" /><path d="M31.726200254634023, 17.491593128070235 m-0.726255476474762, -0.5810043588280678 l-4.648034870624542, -1.0167576372623444 -2.905021905899048, 0.0 l-1.8882642686367035, 0.5810043588280678 -5.229039192199707, 5.955294966697693 l-1.8882642686367035, 4.212281703948975 -0.5810043588280678, 2.178766429424286 l0.0, 2.905021905899048 1.7430131137371063, 3.63127738237381 l2.4692685902118683, 2.905021905899048 2.178766429424286, 1.3072597980499268 l2.324017435312271, 0.5810043588280678 4.357532858848572, -0.2905021794140339 l2.6145195960998535, -1.5977619588375092 2.178766429424286, -2.0335152745246887 l3.1955239176750183, -4.793286025524139 2.0335152745246887, -6.391047835350037 l-0.14525108970701694, -3.776528537273407 -1.5977619588375092, -2.324017435312271 l-2.4692685902118683, -2.178766429424286 -1.3072597980499268, -0.726255476474762 l-3.050273060798645, -0.2905021794140339 -1.7430131137371063, 0.2905021794140339 l-1.0167576372623444, 0.8715065568685532 m-8.42456340789795, 4.938537180423737 l-0.2905021794140339, -1.452510952949524 3.050273060798645, -9.586572051048279 l2.178766429424286, -3.63127738237381 0.4357532784342766, 3.3407750725746155 l1.1620087176561356, 0.4357532784342766 3.050273060798645, -3.9217793941497803 l1.5977619588375092, -1.0167576372623444 0.14525108970701694, 5.955294966697693 l1.452510952949524, -0.14525108970701694 3.4860262274742126, -5.519541501998901 l1.0167576372623444, -0.8715065568685532 1.5977619588375092, -0.4357532784342766 l0.4357532784342766, 3.9217793941497803 -0.726255476474762, 4.067030549049377 l1.8882642686367035, -0.14525108970701694 3.050273060798645, -1.452510952949524 l2.7597707509994507, -0.4357532784342766 0.4357532784342766, 2.905021905899048 l-2.4692685902118683, 6.536298990249634 3.776528537273407, 0.2905021794140339 l0.4357532784342766, 1.5977619588375092 -0.14525108970701694, 1.1620087176561356 l-4.648034870624542, 7.407805919647217 -0.2905021794140339, 3.63127738237381 l2.178766429424286, 2.4692685902118683 2.905021905899048, 1.8882642686367035 l-2.178766429424286, 0.14525108970701694 -0.8715065568685532, 1.0167576372623444 l-0.5810043588280678, 1.452510952949524 -0.8715065568685532, 5.955294966697693 l-0.726255476474762, 0.14525108970701694 -1.7430131137371063, -1.3072597980499268 l-1.452510952949524, 0.14525108970701694 -3.4860262274742126, 3.63127738237381 l-3.050273060798645, 0.4357532784342766 -1.7430131137371063, -4.067030549049377 l-0.8715065568685532, -0.5810043588280678 -1.1620087176561356, 0.4357532784342766 l-3.1955239176750183, 4.793286025524139 -1.5977619588375092, 0.8715065568685532 l-1.0167576372623444, -0.4357532784342766 -1.452510952949524, -3.4860262274742126 l-1.7430131137371063, -0.4357532784342766 -1.1620087176561356, 0.0 l-4.502783715724945, 2.7597707509994507 -1.0167576372623444, -0.14525108970701694 l-0.726255476474762, -5.519541501998901 -0.8715065568685532, -2.4692685902118683 l-1.1620087176561356, -0.726255476474762 -2.324017435312271, 0.0 l-0.5810043588280678, -0.726255476474762 -0.5810043588280678, -11.184333562850952 l1.5977619588375092, 0.4357532784342766 0.726255476474762, -0.726255476474762 l0.4357532784342766, -1.452510952949524 0.14525108970701694, -3.1955239176750183 l-0.726255476474762, -3.9217793941497803 3.4860262274742126, -1.7430131137371063 l1.452510952949524, -2.178766429424286 1.0167576372623444, -3.1955239176750183 l1.8882642686367035, 1.7430131137371063 0.726255476474762, 0.14525108970701694 l3.4860262274742126, -1.3072597980499268 2.905021905899048, 0.0 " fill="none" stroke="black" stroke-width="1" /></svg>