<?xml version="1.0" encoding="utf-8" ?>
<svg baseProfile="full" height="70.86020708084106" version="1.1" width="98.60316795296967" xmlns="http://www.w3.org/2000/svg" xmlns:ev="http://www.w3.org/2001/xml-events" xmlns:xlink="http://www.w3.org/1999/xlink"><defs /><rect fill="white" height="70.86020708084106" width="98.60316795296967" x="0" y="0" /><path d="M27.94967407360673, 36.37423644773662 m6.2457966804504395, 1.3072597980499268 l11.76533818244934, 0.2905021794140339 7.26255476474762, -1.452510952949524 l11.76533818244934, -4.793286025524139 6.10054612159729, -1.0167576372623444 l4.648034870624542, 5.374290347099304 1.3072597980499268, 3.050273060798645 l0.0, 1.5977619588375092 -0.726255476474762, 2.178766429424286 l-2.178766429424286, 2.7597707509994507 -4.648034870624542, 2.324017435312271 l-9.877074360847473, 2.905021905899048 -20.33515214920044, 1.7430131137371063 l-6.536298990249634, 0.0 -7.407805919647217, -2.7597707509994507 l-1.8882642686367035, -1.5977619588375092 -2.0335152745246887, -3.3407750725746155 l-0.5810043588280678, -2.324017435312271 0.14525108970701694, -3.776528537273407 l0.726255476474762, -1.0167576372623444 4.212281703948975, -2.4692685902118683 l3.4860262274742126, -1.0167576372623444 7.1173036098480225, -0.8715065568685532 m-7.988809943199158, 18.301637172698975 l1.7430131137371063, 8.279312252998352 1.7430131137371063, 3.050273060798645 l0.726255476474762, 0.5810043588280678 0.8715065568685532, -0.14525108970701694 l4.793286025524139, -11.329585313796997 2.178766429424286, -7.553057074546814 m10.458078384399414, 6.681550145149231 l0.726255476474762, 1.8882642686367035 0.5810043588280678, 5.08378803730011 l1.3072597980499268, 5.08378803730011 1.3072597980499268, 2.4692685902118683 l0.726255476474762, 0.0 1.1620087176561356, -2.324017435312271 l8.134061098098755, -9.296069741249084 1.5977619588375092, -2.4692685902118683 l0.8715065568685532, -2.4692685902118683 m7.553057074546814, -15.396615266799927 l2.905021905899048, -5.810043811798096 4.648034870624542, -12.636845111846924 l0.0, 3.1955239176750183 0.8715065568685532, 5.6647926568984985 l0.5810043588280678, -1.8882642686367035 0.726255476474762, -12.34634280204773 l0.8715065568685532, -5.08378803730011 -0.8715065568685532, 17.86588430404663 l0.8715065568685532, -0.8715065568685532 1.5977619588375092, -3.63127738237381 l2.178766429424286, -6.2457966804504395 0.2905021794140339, 3.1955239176750183 l1.8882642686367035, -4.793286025524139 -1.452510952949524, 6.826801300048828 l-1.1620087176561356, 1.8882642686367035 -0.726255476474762, 3.4860262274742126 l0.8715065568685532, 2.178766429424286 1.5977619588375092, 1.3072597980499268 l2.4692685902118683, 4.357532858848572 0.4357532784342766, 2.905021905899048 l-1.3072597980499268, 2.4692685902118683 -0.726255476474762, 0.4357532784342766 l-4.067030549049377, 0.5810043588280678 -0.8715065568685532, 3.1955239176750183 l-6.536298990249634, 0.5810043588280678 -0.5810043588280678, -1.5977619588375092 l-0.4357532784342766, 4.357532858848572 2.0335152745246887, -2.4692685902118683 l0.726255476474762, 0.4357532784342766 0.8715065568685532, -0.5810043588280678 l0.2905021794140339, 2.178766429424286 4.212281703948975, -7.26255476474762 m2.905021905899048, -6.681550145149231 l0.0, 0.0 m-0.5810043588280678, 0.5810043588280678 l-0.726255476474762, 1.1620087176561356 m-69.2847728729248, 6.391047835350037 l-4.357532858848572, 3.3407750725746155 -1.1620087176561356, 1.452510952949524 l-5.229039192199707, 11.910589933395386 -1.5977619588375092, 2.324017435312271 l1.3072597980499268, -1.3072597980499268 -1.5977619588375092, 3.050273060798645 l1.3072597980499268, -1.0167576372623444 1.5977619588375092, -2.6145195960998535 l-3.776528537273407, 7.1173036098480225 2.6145195960998535, -4.502783715724945 l-0.726255476474762, 0.0 0.14525108970701694, -3.63127738237381 l-2.6145195960998535, 3.9217793941497803 1.3072597980499268, -2.4692685902118683 l-0.4357532784342766, 2.905021905899048 -1.3072597980499268, 3.050273060798645 l2.905021905899048, -2.178766429424286 4.212281703948975, -5.374290347099304 l2.324017435312271, -4.938537180423737 m8.279312252998352, -11.329585313796997 l3.4860262274742126, 0.14525108970701694 m-6.536298990249634, -0.5810043588280678 l2.905021905899048, 0.5810043588280678 " fill="none" stroke="black" stroke-width="1" /></svg>