<?xml version="1.0" encoding="utf-8" ?>
<svg baseProfile="full" height="52.12281724438071" version="1.1" width="58.949617967009544" xmlns="http://www.w3.org/2000/svg" xmlns:ev="http://www.w3.org/2001/xml-events" xmlns:xlink="http://www.w3.org/1999/xlink"><defs /><rect fill="white" height="52.12281724438071" width="58.949617967009544" x="0" y="0" /><path d="M36.08373284339905, 12.117303479462862 m-4.212281703948975, -0.4357532784342766 l-3.1955239176750183, 1.5977619588375092 -4.357532858848572, 4.793286025524139 l-1.452510952949524, 3.63127738237381 -0.2905021794140339, 4.938537180423737 l0.5810043588280678, 1.1620087176561356 2.4692685902118683, 2.324017435312271 l4.212281703948975, 2.178766429424286 5.955294966697693, 0.2905021794140339 l1.452510952949524, -1.0167576372623444 2.905021905899048, -5.374290347099304 l1.7430131137371063, -5.519541501998901 0.2905021794140339, -3.776528537273407 l-0.4357532784342766, -0.726255476474762 -3.050273060798645, -2.178766429424286 l-5.374290347099304, -2.4692685902118683 m-15.251364707946777, -6.536298990249634 l0.5810043588280678, 0.8715065568685532 1.8882642686367035, 0.726255476474762 l-4.648034870624542, -0.14525108970701694 -2.0335152745246887, 0.4357532784342766 l-2.7597707509994507, 1.8882642686367035 -0.5810043588280678, 0.8715065568685532 l-0.14525108970701694, 1.5977619588375092 4.357532858848572, 1.452510952949524 l0.4357532784342766, 1.7430131137371063 -6.536298990249634, 6.972052454948425 l-2.324017435312271, 4.067030549049377 -0.14525108970701694, 2.324017435312271 l0.726255476474762, 0.726255476474762 4.938537180423737, 0.5810043588280678 l0.0, 1.1620087176561356 -6.536298990249634, 8.86031687259674 m-0.2905021794140339, 1.8882642686367035 l2.6145195960998535, -2.6145195960998535 3.4860262274742126, -2.324017435312271 l4.938537180423737, -1.7430131137371063 0.8715065568685532, 0.4357532784342766 l-0.14525108970701694, 3.9217793941497803 -2.4692685902118683, 6.391047835350037 l0.726255476474762, 0.4357532784342766 8.42456340789795, -6.2457966804504395 l0.14525108970701694, 1.1620087176561356 -1.3072597980499268, 5.810043811798096 l2.178766429424286, 0.2905021794140339 4.502783715724945, -2.324017435312271 l2.6145195960998535, -0.5810043588280678 0.726255476474762, 0.14525108970701694 l0.4357532784342766, 2.6145195960998535 1.452510952949524, 0.726255476474762 l1.1620087176561356, 0.0 3.4860262274742126, -1.3072597980499268 l3.63127738237381, -2.4692685902118683 2.4692685902118683, -4.357532858848572 l1.452510952949524, -0.4357532784342766 3.9217793941497803, 0.0 l1.5977619588375092, 0.4357532784342766 0.4357532784342766, -1.8882642686367035 l-0.14525108970701694, -4.212281703948975 1.5977619588375092, -1.3072597980499268 l0.14525108970701694, -1.1620087176561356 -0.14525108970701694, -1.0167576372623444 l-3.3407750725746155, -4.938537180423737 -3.3407750725746155, -3.9217793941497803 l1.5977619588375092, -2.7597707509994507 -0.14525108970701694, -2.7597707509994507 l-4.357532858848572, -2.0335152745246887 -3.4860262274742126, -0.5810043588280678 l-7.698307633399963, -0.2905021794140339 8.279312252998352, -3.3407750725746155 l2.178766429424286, -1.452510952949524 -3.1955239176750183, -0.5810043588280678 l-3.4860262274742126, 0.5810043588280678 -11.039083003997803, 3.1955239176750183 l-0.4357532784342766, -1.7430131137371063 -2.905021905899048, 0.0 l-1.5977619588375092, 0.5810043588280678 m9.00556743144989, 14.815611839294434 l-1.0167576372623444, 1.1620087176561356 0.0, 3.4860262274742126 l0.5810043588280678, 0.8715065568685532 2.0335152745246887, 1.0167576372623444 l2.905021905899048, 0.0 2.6145195960998535, -2.178766429424286 l0.5810043588280678, -2.4692685902118683 -0.14525108970701694, -1.7430131137371063 l-2.905021905899048, -1.452510952949524 -2.905021905899048, 0.0 l0.14525108970701694, 0.726255476474762 " fill="none" stroke="black" stroke-width="1" /></svg>