<?xml version="1.0" encoding="utf-8" ?>
<svg baseProfile="full" height="81.75403873436153" version="1.1" width="119.66457411646843" xmlns="http://www.w3.org/2000/svg" xmlns:ev="http://www.w3.org/2001/xml-events" xmlns:xlink="http://www.w3.org/1999/xlink"><defs /><rect fill="white" height="81.75403873436153" width="119.66457411646843" x="0" y="0" /><path d="M61.50267357006669, 20.54186719469726 m-1.452510952949524, -0.5810043588280678 l-13.072597980499268, -1.0167576372623444 -6.972052454948425, 4.067030549049377 l-1.8882642686367035, 1.8882642686367035 -2.4692685902118683, 4.793286025524139 l-0.8715065568685532, 4.793286025524139 0.4357532784342766, 4.793286025524139 l2.324017435312271, 3.63127738237381 3.776528537273407, 2.7597707509994507 l5.229039192199707, 1.7430131137371063 6.2457966804504395, 1.1620087176561356 l6.681550145149231, 0.14525108970701694 6.681550145149231, -0.5810043588280678 l5.955294966697693, -2.0335152745246887 4.648034870624542, -3.050273060798645 l3.050273060798645, -3.3407750725746155 1.5977619588375092, -4.212281703948975 l0.2905021794140339, -4.357532858848572 -1.452510952949524, -4.648034870624542 l-3.776528537273407, -4.938537180423737 -5.229039192199707, -3.63127738237381 l-6.391047835350037, -2.324017435312271 -6.536298990249634, -0.4357532784342766 l-6.2457966804504395, 0.8715065568685532 m-6.391047835350037, 3.9217793941497803 l-0.8715065568685532, -2.905021905899048 -3.63127738237381, -2.905021905899048 l-6.2457966804504395, -3.1955239176750183 -6.972052454948425, -3.050273060798645 l-6.826801300048828, -2.0335152745246887 -4.938537180423737, -0.8715065568685532 l-2.905021905899048, 0.0 -1.0167576372623444, 1.452510952949524 l1.1620087176561356, 3.3407750725746155 8.42456340789795, 7.988809943199158 l2.178766429424286, 2.6145195960998535 0.5810043588280678, 1.5977619588375092 l-1.3072597980499268, 1.1620087176561356 -10.16757607460022, 1.0167576372623444 l-4.648034870624542, 1.0167576372623444 -2.905021905899048, 1.452510952949524 l-0.5810043588280678, 2.4692685902118683 2.0335152745246887, 3.776528537273407 l4.502783715724945, 3.776528537273407 5.229039192199707, 3.1955239176750183 l9.877074360847473, 4.212281703948975 5.229039192199707, 0.726255476474762 l4.648034870624542, 0.0 3.9217793941497803, -1.1620087176561356 l2.905021905899048, -1.452510952949524 1.3072597980499268, -1.3072597980499268 l-1.0167576372623444, 0.14525108970701694 -2.7597707509994507, 3.4860262274742126 l-1.3072597980499268, 4.938537180423737 0.0, 5.08378803730011 l1.0167576372623444, 3.9217793941497803 1.1620087176561356, 2.324017435312271 l1.5977619588375092, 1.3072597980499268 1.8882642686367035, 0.14525108970701694 l2.4692685902118683, -1.0167576372623444 6.2457966804504395, -6.391047835350037 l2.4692685902118683, -1.452510952949524 2.0335152745246887, -0.4357532784342766 l2.7597707509994507, 0.4357532784342766 8.86031687259674, 4.793286025524139 l5.810043811798096, 2.4692685902118683 5.6647926568984985, 1.1620087176561356 l4.357532858848572, 0.0 2.7597707509994507, -1.5977619588375092 l1.5977619588375092, -3.050273060798645 0.2905021794140339, -4.648034870624542 l-0.4357532784342766, -10.02232551574707 2.905021905899048, -1.3072597980499268 l10.458078384399414, -0.726255476474762 4.502783715724945, -0.8715065568685532 l3.050273060798645, -1.452510952949524 2.0335152745246887, -2.324017435312271 l1.3072597980499268, -3.63127738237381 0.2905021794140339, -4.793286025524139 l-0.4357532784342766, -5.08378803730011 -2.905021905899048, -9.441320896148682 l-1.8882642686367035, -3.3407750725746155 -2.905021905899048, -2.4692685902118683 l-4.938537180423737, -1.5977619588375092 -6.536298990249634, -0.2905021794140339 l-19.463646411895752, 3.3407750725746155 -14.815611839294434, 0.14525108970701694 l-5.374290347099304, 0.726255476474762 -4.357532858848572, 1.452510952949524 l-3.050273060798645, 2.4692685902118683 m9.731823205947876, 18.01113486289978 l-0.4357532784342766, 2.0335152745246887 0.4357532784342766, 0.726255476474762 l0.726255476474762, -0.14525108970701694 0.0, -0.8715065568685532 l-0.726255476474762, -0.2905021794140339 0.8715065568685532, -0.8715065568685532 l-0.4357532784342766, 1.1620087176561356 m1.8882642686367035, 2.178766429424286 l-0.14525108970701694, 3.1955239176750183 1.0167576372623444, 2.0335152745246887 l3.9217793941497803, 3.63127738237381 4.357532858848572, 2.324017435312271 l2.4692685902118683, 0.14525108970701694 0.2905021794140339, -1.5977619588375092 m-14.08935546875, -9.150818586349487 l-0.14525108970701694, 1.452510952949524 -1.5977619588375092, 1.7430131137371063 l-3.776528537273407, 1.8882642686367035 -6.972052454948425, 0.5810043588280678 l-1.8882642686367035, -1.3072597980499268 m4.648034870624542, -3.776528537273407 l0.0, 0.0 m8.134061098098755, 0.2905021794140339 l0.0, 0.0 m12.20109224319458, -4.067030549049377 l0.0, 0.0 m4.648034870624542, 4.938537180423737 l0.0, 0.0 m0.2905021794140339, 2.324017435312271 l0.0, 0.0 m-6.536298990249634, -2.324017435312271 l2.905021905899048, -1.0167576372623444 5.810043811798096, -0.5810043588280678 l14.379857778549194, 0.726255476474762 m-19.6088969707489, -3.050273060798645 l8.279312252998352, 0.726255476474762 9.150818586349487, 2.7597707509994507 m-14.52510952949524, -0.8715065568685532 l8.86031687259674, 3.3407750725746155 6.536298990249634, 5.08378803730011 m-33.55300188064575, -13.508352041244507 l-12.34634280204773, -0.2905021794140339 -6.536298990249634, 1.0167576372623444 m8.86031687259674, 5.6647926568984985 l-3.9217793941497803, 0.8715065568685532 -6.391047835350037, 3.4860262274742126 m14.234607219696045, -18.44688892364502 l0.0, 1.8882642686367035 0.726255476474762, 1.1620087176561356 l1.3072597980499268, 0.8715065568685532 3.776528537273407, 0.14525108970701694 l1.452510952949524, -1.0167576372623444 0.4357532784342766, -3.1955239176750183 l-1.452510952949524, -1.3072597980499268 -2.4692685902118683, -0.4357532784342766 l-2.905021905899048, 0.4357532784342766 -1.1620087176561356, 1.0167576372623444 l-0.2905021794140339, 1.8882642686367035 m14.379857778549194, -3.1955239176750183 l-1.0167576372623444, 1.7430131137371063 -0.726255476474762, 3.4860262274742126 l1.3072597980499268, 1.7430131137371063 2.0335152745246887, 0.5810043588280678 l2.178766429424286, -0.14525108970701694 1.5977619588375092, -1.3072597980499268 l1.0167576372623444, -1.8882642686367035 -0.14525108970701694, -3.4860262274742126 l-2.0335152745246887, -0.8715065568685532 -1.5977619588375092, 0.0 m-2.0335152745246887, 25.128438472747803 l0.0, 10.02232551574707 0.726255476474762, 3.9217793941497803 l2.178766429424286, 5.955294966697693 4.212281703948975, 5.810043811798096 l3.4860262274742126, 3.050273060798645 3.050273060798645, 1.3072597980499268 m-28.614466190338135, -26.87145233154297 l0.5810043588280678, 13.798853158950806 0.0, 2.905021905899048 l-0.5810043588280678, 2.0335152745246887 -0.726255476474762, 1.5977619588375092 l-2.6145195960998535, 2.0335152745246887 -5.229039192199707, 0.8715065568685532 " fill="none" stroke="black" stroke-width="1" /></svg>