<?xml version="1.0" encoding="utf-8" ?>
<svg baseProfile="full" height="94.39088519662619" version="1.1" width="102.37969538196921" xmlns="http://www.w3.org/2000/svg" xmlns:ev="http://www.w3.org/2001/xml-events" xmlns:xlink="http://www.w3.org/1999/xlink"><defs /><rect fill="white" height="94.39088519662619" width="102.37969538196921" x="0" y="0" /><path d="M47.41331939585507, 27.07816557958722 m-3.9217793941497803, 0.2905021794140339 l-4.502783715724945, 2.7597707509994507 -2.905021905899048, 2.905021905899048 l-3.050273060798645, 4.502783715724945 -2.0335152745246887, 5.519541501998901 l-1.5977619588375092, 6.826801300048828 -0.4357532784342766, 9.441320896148682 l1.452510952949524, 5.229039192199707 1.5977619588375092, 2.6145195960998535 l4.793286025524139, 5.519541501998901 4.502783715724945, 3.4860262274742126 l2.324017435312271, 1.1620087176561356 2.4692685902118683, 0.726255476474762 l5.955294966697693, 0.2905021794140339 2.6145195960998535, -0.4357532784342766 l3.63127738237381, -2.324017435312271 3.63127738237381, -3.4860262274742126 l5.374290347099304, -7.698307633399963 2.4692685902118683, -6.2457966804504395 l-0.14525108970701694, -13.363100290298462 -1.8882642686367035, -6.391047835350037 l-2.0335152745246887, -3.63127738237381 -2.6145195960998535, -3.776528537273407 l-2.905021905899048, -2.324017435312271 -4.938537180423737, -1.8882642686367035 l-9.877074360847473, 0.4357532784342766 m-3.776528537273407, 15.106114149093628 l-0.14525108970701694, 1.5977619588375092 0.726255476474762, 0.2905021794140339 l2.0335152745246887, -1.8882642686367035 1.1620087176561356, -1.7430131137371063 l0.0, -0.726255476474762 -1.5977619588375092, 1.1620087176561356 l-1.7430131137371063, 2.4692685902118683 1.0167576372623444, -1.3072597980499268 l-0.14525108970701694, -1.0167576372623444 -1.0167576372623444, 0.726255476474762 l-0.8715065568685532, 1.8882642686367035 -0.4357532784342766, 1.1620087176561356 l1.0167576372623444, 0.0 2.0335152745246887, -1.1620087176561356 l2.4692685902118683, -2.0335152745246887 -2.178766429424286, 1.5977619588375092 l-0.2905021794140339, -1.5977619588375092 -1.0167576372623444, 0.5810043588280678 l0.8715065568685532, -0.726255476474762 -0.5810043588280678, 0.726255476474762 l0.2905021794140339, -1.0167576372623444 m11.910589933395386, 0.2905021794140339 l-2.0335152745246887, 1.7430131137371063 0.0, 0.726255476474762 l1.1620087176561356, -0.14525108970701694 1.0167576372623444, -2.6145195960998535 l-1.0167576372623444, 0.0 -0.8715065568685532, 0.5810043588280678 l-0.5810043588280678, 1.452510952949524 0.726255476474762, 0.0 l0.726255476474762, -0.726255476474762 0.14525108970701694, -0.8715065568685532 l-0.8715065568685532, 0.2905021794140339 -0.4357532784342766, 1.452510952949524 l0.8715065568685532, 0.14525108970701694 1.3072597980499268, -2.178766429424286 l-0.726255476474762, 0.726255476474762 m-9.586572051048279, 11.910589933395386 l-0.2905021794140339, 3.3407750725746155 0.8715065568685532, 1.7430131137371063 l1.1620087176561356, 0.0 1.452510952949524, -1.3072597980499268 l0.2905021794140339, -1.0167576372623444 0.4357532784342766, 1.452510952949524 l1.452510952949524, 0.4357532784342766 0.8715065568685532, -0.14525108970701694 l0.8715065568685532, -0.8715065568685532 1.1620087176561356, -2.905021905899048 l0.14525108970701694, -2.0335152745246887 m-9.731823205947876, 4.067030549049377 l1.0167576372623444, 7.988809943199158 1.5977619588375092, 2.324017435312271 l1.452510952949524, 0.14525108970701694 1.3072597980499268, -1.452510952949524 l1.5977619588375092, -3.050273060798645 0.726255476474762, -2.905021905899048 l1.3072597980499268, -2.7597707509994507 0.0, -1.0167576372623444 m-20.916156768798828, -28.033461570739746 l1.452510952949524, -8.134061098098755 1.452510952949524, -4.067030549049377 l0.4357532784342766, -3.1955239176750183 2.324017435312271, -5.374290347099304 l1.8882642686367035, -2.324017435312271 2.178766429424286, 1.7430131137371063 l2.6145195960998535, 3.1955239176750183 1.3072597980499268, 1.8882642686367035 l0.2905021794140339, 1.5977619588375092 3.3407750725746155, -0.2905021794140339 l4.648034870624542, -1.8882642686367035 4.212281703948975, -0.8715065568685532 l4.648034870624542, 0.2905021794140339 3.4860262274742126, 3.3407750725746155 l0.4357532784342766, 1.5977619588375092 -0.14525108970701694, 3.776528537273407 l9.150818586349487, 2.4692685902118683 14.670360088348389, 6.391047835350037 l6.10054612159729, 3.4860262274742126 1.0167576372623444, 0.8715065568685532 l0.14525108970701694, 1.1620087176561356 -2.6145195960998535, 2.7597707509994507 l-8.134061098098755, 5.810043811798096 -0.5810043588280678, 1.1620087176561356 l0.5810043588280678, 1.7430131137371063 5.08378803730011, 7.26255476474762 l1.0167576372623444, 4.212281703948975 0.0, 4.502783715724945 l-1.5977619588375092, 3.4860262274742126 -1.0167576372623444, 0.5810043588280678 l-0.726255476474762, -0.14525108970701694 -1.1620087176561356, 1.0167576372623444 l-7.553057074546814, 17.139629125595093 -2.0335152745246887, 0.14525108970701694 l-3.050273060798645, -2.905021905899048 -3.776528537273407, -6.536298990249634 l-2.0335152745246887, 0.8715065568685532 -11.329585313796997, 12.20109224319458 l-3.776528537273407, 2.324017435312271 -0.726255476474762, -0.14525108970701694 l-0.5810043588280678, -2.0335152745246887 -0.2905021794140339, -5.810043811798096 l-3.050273060798645, 0.2905021794140339 -7.26255476474762, 2.6145195960998535 l-5.519541501998901, 1.1620087176561356 -3.3407750725746155, 0.4357532784342766 l-7.988809943199158, 0.0 -7.8435587882995605, -2.4692685902118683 l-1.0167576372623444, -0.8715065568685532 -1.0167576372623444, -4.357532858848572 l0.0, -5.229039192199707 0.8715065568685532, -3.776528537273407 l-0.726255476474762, -1.5977619588375092 -7.1173036098480225, -4.938537180423737 l-1.452510952949524, -2.178766429424286 -2.6145195960998535, -5.374290347099304 l0.0, -3.9217793941497803 1.0167576372623444, -1.7430131137371063 l1.1620087176561356, -0.5810043588280678 3.776528537273407, 0.14525108970701694 l1.8882642686367035, 1.5977619588375092 0.5810043588280678, 1.1620087176561356 l0.2905021794140339, -10.748580694198608 0.8715065568685532, -3.1955239176750183 l4.502783715724945, -9.150818586349487 0.5810043588280678, -0.8715065568685532 l1.7430131137371063, 1.5977619588375092 0.8715065568685532, 1.0167576372623444 l0.4357532784342766, 2.0335152745246887 4.357532858848572, -8.279312252998352 l4.502783715724945, -5.229039192199707 1.0167576372623444, 3.9217793941497803 " fill="none" stroke="black" stroke-width="1" /></svg>