<?xml version="1.0" encoding="utf-8" ?>
<svg baseProfile="full" height="91.48586129769683" version="1.1" width="119.66457419097424" xmlns="http://www.w3.org/2000/svg" xmlns:ev="http://www.w3.org/2001/xml-events" xmlns:xlink="http://www.w3.org/1999/xlink"><defs /><rect fill="white" height="91.48586129769683" width="119.66457419097424" x="0" y="0" /><path d="M57.1451433096081, 30.854694563895464 m-6.972052454948425, 0.14525108970701694 l-4.357532858848572, 1.7430131137371063 -11.620087623596191, 7.26255476474762 l-4.502783715724945, 3.776528537273407 -1.0167576372623444, 1.7430131137371063 l-1.452510952949524, 5.6647926568984985 0.14525108970701694, 5.08378803730011 l5.374290347099304, 9.441320896148682 1.452510952949524, 1.452510952949524 l3.3407750725746155, 1.7430131137371063 6.536298990249634, 2.4692685902118683 l4.793286025524139, 0.5810043588280678 8.279312252998352, -0.14525108970701694 l4.502783715724945, -1.452510952949524 18.301637172698975, -3.63127738237381 l3.4860262274742126, -1.452510952949524 1.8882642686367035, -1.3072597980499268 l1.452510952949524, -1.1620087176561356 1.0167576372623444, -1.7430131137371063 l0.726255476474762, -2.324017435312271 0.0, -7.1173036098480225 l-0.726255476474762, -3.4860262274742126 -2.4692685902118683, -4.793286025524139 l-3.4860262274742126, -3.63127738237381 -4.067030549049377, -2.7597707509994507 l-10.893832445144653, -5.229039192199707 -12.055840492248535, -3.4860262274742126 l-1.5977619588375092, 0.0 -0.5810043588280678, 0.726255476474762 m-5.08378803730011, 11.76533818244934 l-2.0335152745246887, 2.0335152745246887 0.0, 0.726255476474762 l1.7430131137371063, 0.726255476474762 1.8882642686367035, -0.2905021794140339 l3.050273060798645, -3.050273060798645 -0.14525108970701694, -0.8715065568685532 l-1.452510952949524, -0.5810043588280678 -2.7597707509994507, -0.14525108970701694 m15.251364707946777, 0.0 l-1.5977619588375092, 2.178766429424286 0.14525108970701694, 1.5977619588375092 l2.324017435312271, 0.8715065568685532 0.5810043588280678, -0.8715065568685532 l0.2905021794140339, -5.810043811798096 -0.14525108970701694, -0.8715065568685532 l-0.5810043588280678, -0.2905021794140339 m-18.737391233444214, 16.994377374649048 l0.14525108970701694, 2.7597707509994507 1.1620087176561356, 1.1620087176561356 l5.6647926568984985, 2.324017435312271 6.10054612159729, 0.4357532784342766 l0.8715065568685532, -0.4357532784342766 0.5810043588280678, -1.1620087176561356 l0.14525108970701694, -2.0335152745246887 m-23.094923496246338, -38.927292823791504 l-2.905021905899048, 0.2905021794140339 -6.681550145149231, 3.1955239176750183 l-7.407805919647217, 5.08378803730011 -3.050273060798645, 2.6145195960998535 l-4.357532858848572, 5.955294966697693 -2.6145195960998535, 4.938537180423737 l-0.8715065568685532, 3.4860262274742126 0.5810043588280678, 1.7430131137371063 l-2.905021905899048, 4.502783715724945 -0.8715065568685532, 2.324017435312271 l-0.726255476474762, 3.050273060798645 -0.14525108970701694, 4.212281703948975 l4.212281703948975, 3.3407750725746155 4.793286025524139, 6.681550145149231 l2.6145195960998535, 2.7597707509994507 7.698307633399963, 5.229039192199707 l0.4357532784342766, 2.324017435312271 0.8715065568685532, 0.4357532784342766 l4.502783715724945, 0.14525108970701694 5.519541501998901, 6.681550145149231 l1.7430131137371063, 0.2905021794140339 2.324017435312271, -1.452510952949524 l1.3072597980499268, -1.7430131137371063 2.324017435312271, -4.938537180423737 l0.726255476474762, -0.726255476474762 1.7430131137371063, -0.4357532784342766 l10.02232551574707, 7.407805919647217 2.905021905899048, 1.5977619588375092 l1.0167576372623444, 0.0 5.810043811798096, -6.681550145149231 l2.7597707509994507, 1.1620087176561356 3.3407750725746155, 0.14525108970701694 l3.9217793941497803, -2.324017435312271 6.536298990249634, 3.776528537273407 l2.905021905899048, 0.0 2.324017435312271, -2.4692685902118683 l3.050273060798645, -0.2905021794140339 2.0335152745246887, -4.502783715724945 l2.7597707509994507, -3.1955239176750183 2.6145195960998535, -2.0335152745246887 l1.452510952949524, -0.5810043588280678 5.519541501998901, 0.0 l2.178766429424286, -0.4357532784342766 3.3407750725746155, -1.7430131137371063 l2.0335152745246887, -3.776528537273407 1.7430131137371063, -6.681550145149231 l0.5810043588280678, -5.374290347099304 0.0, -9.150818586349487 l-7.698307633399963, -26.145195960998535 -3.9217793941497803, -5.6647926568984985 l-3.3407750725746155, -2.4692685902118683 -11.474835872650146, -2.6145195960998535 l-11.620087623596191, -0.14525108970701694 -4.357532858848572, 0.4357532784342766 l-11.620087623596191, 2.905021905899048 -3.3407750725746155, 2.324017435312271 l-3.050273060798645, 0.0 -3.050273060798645, -1.1620087176561356 l-5.810043811798096, 0.0 -4.067030549049377, 1.7430131137371063 l-3.3407750725746155, 2.4692685902118683 -1.5977619588375092, 1.5977619588375092 l-1.0167576372623444, 2.0335152745246887 " fill="none" stroke="black" stroke-width="1" /></svg>