<?xml version="1.0" encoding="utf-8" ?>
<svg baseProfile="full" height="85.53056688047945" version="1.1" width="107.46348355896771" xmlns="http://www.w3.org/2000/svg" xmlns:ev="http://www.w3.org/2001/xml-events" xmlns:xlink="http://www.w3.org/1999/xlink"><defs /><rect fill="white" height="85.53056688047945" width="107.46348355896771" x="0" y="0" /><path d="M63.8266921043396, 35.21222743205726 m-1.452510952949524, -2.905021905899048 l-3.9217793941497803, -2.905021905899048 -4.067030549049377, -0.8715065568685532 l-13.94410490989685, 0.2905021794140339 -6.2457966804504395, 2.324017435312271 l-5.374290347099304, 3.9217793941497803 -5.955294966697693, 5.08378803730011 l-1.7430131137371063, 2.4692685902118683 -1.0167576372623444, 0.726255476474762 l-2.4692685902118683, 7.988809943199158 -0.5810043588280678, 3.4860262274742126 l0.0, 4.648034870624542 4.067030549049377, 5.810043811798096 l1.8882642686367035, 1.5977619588375092 5.229039192199707, 2.905021905899048 l9.296069741249084, 3.1955239176750183 1.8882642686367035, 1.7430131137371063 l6.826801300048828, 1.1620087176561356 2.4692685902118683, 3.3407750725746155 l6.391047835350037, 0.0 2.905021905899048, -1.1620087176561356 l1.0167576372623444, -0.5810043588280678 8.569814562797546, -8.715065717697144 l4.648034870624542, -7.698307633399963 5.374290347099304, -13.072597980499268 l0.14525108970701694, -1.8882642686367035 1.1620087176561356, -2.905021905899048 l0.5810043588280678, -4.212281703948975 -0.2905021794140339, -5.810043811798096 l-2.905021905899048, -3.4860262274742126 -5.08378803730011, -2.178766429424286 l-19.899399280548096, -0.14525108970701694 m-19.463646411895752, -2.178766429424286 l0.2905021794140339, -1.5977619588375092 10.02232551574707, -11.76533818244934 l3.050273060798645, -3.3407750725746155 4.357532858848572, -3.4860262274742126 l0.2905021794140339, 6.681550145149231 1.452510952949524, 6.972052454948425 l4.357532858848572, 11.620087623596191 1.452510952949524, 2.905021905899048 l1.8882642686367035, 2.4692685902118683 1.3072597980499268, 0.0 l3.3407750725746155, -1.8882642686367035 21.64241313934326, -16.12287163734436 l1.5977619588375092, 0.0 1.1620087176561356, 3.63127738237381 l0.0, 6.681550145149231 -1.1620087176561356, 6.391047835350037 l1.7430131137371063, 0.5810043588280678 2.905021905899048, 0.0 l6.536298990249634, -2.178766429424286 4.067030549049377, -0.5810043588280678 l0.2905021794140339, 2.324017435312271 -1.5977619588375092, 4.648034870624542 l-4.648034870624542, 6.972052454948425 -5.810043811798096, 6.2457966804504395 l-2.905021905899048, 2.324017435312271 6.2457966804504395, 4.793286025524139 l1.1620087176561356, 1.8882642686367035 0.5810043588280678, 2.178766429424286 l-0.2905021794140339, 0.726255476474762 -2.0335152745246887, 1.452510952949524 l-4.648034870624542, 1.1620087176561356 -13.798853158950806, 0.14525108970701694 l-0.5810043588280678, 1.0167576372623444 0.14525108970701694, 4.793286025524139 l2.6145195960998535, 4.212281703948975 0.8715065568685532, 3.1955239176750183 l-11.76533818244934, -2.324017435312271 -4.793286025524139, -1.7430131137371063 l-21.787664890289307, -4.357532858848572 -1.1620087176561356, 7.988809943199158 l-0.5810043588280678, 0.726255476474762 -1.452510952949524, 0.0 l-3.3407750725746155, -1.452510952949524 -5.810043811798096, -5.519541501998901 l-3.3407750725746155, -4.212281703948975 -2.324017435312271, -4.067030549049377 l-6.681550145149231, 5.955294966697693 -3.776528537273407, 5.08378803730011 l-1.8882642686367035, -5.810043811798096 -0.4357532784342766, -3.63127738237381 l0.0, -14.379857778549194 1.7430131137371063, -2.905021905899048 l4.648034870624542, -5.6647926568984985 1.0167576372623444, -0.14525108970701694 l-0.5810043588280678, 0.726255476474762 -3.050273060798645, 1.1620087176561356 l-4.648034870624542, 1.5977619588375092 -2.7597707509994507, 0.4357532784342766 l0.0, -7.988809943199158 4.502783715724945, -13.508352041244507 l3.63127738237381, -5.6647926568984985 1.0167576372623444, -0.4357532784342766 l5.519541501998901, -0.2905021794140339 2.324017435312271, 4.067030549049377 l0.4357532784342766, -0.8715065568685532 m17.284879684448242, 19.173144102096558 l-1.7430131137371063, 0.2905021794140339 -1.452510952949524, 1.3072597980499268 l-1.1620087176561356, 3.63127738237381 -0.14525108970701694, 5.229039192199707 l1.3072597980499268, 2.6145195960998535 6.391047835350037, -0.5810043588280678 l1.7430131137371063, -1.7430131137371063 1.452510952949524, -3.4860262274742126 l0.14525108970701694, -6.681550145149231 -1.1620087176561356, -3.050273060798645 " fill="none" stroke="black" stroke-width="1" /></svg>