<?xml version="1.0" encoding="utf-8" ?>
<svg baseProfile="full" height="140.29023087583482" version="1.1" width="139.41872471943498" xmlns="http://www.w3.org/2000/svg" xmlns:ev="http://www.w3.org/2001/xml-events" xmlns:xlink="http://www.w3.org/1999/xlink"><defs /><rect fill="white" height="140.29023087583482" width="139.41872471943498" x="0" y="0" /><path d="M111.03329862467945, 53.80436857230961 m-2.4692685902118683, -7.1173036098480225 l-1.452510952949524, -1.7430131137371063 -3.1955239176750183, -2.0335152745246887 l-4.357532858848572, -1.452510952949524 -5.229039192199707, -0.726255476474762 l-7.1173036098480225, 0.14525108970701694 -3.9217793941497803, 1.1620087176561356 l-4.938537180423737, 3.050273060798645 -5.6647926568984985, 7.698307633399963 l-3.3407750725746155, 9.00556743144989 -0.5810043588280678, 8.715065717697144 l2.4692685902118683, 4.938537180423737 3.63127738237381, 0.5810043588280678 l6.2457966804504395, 2.0335152745246887 3.776528537273407, 0.726255476474762 l11.039083003997803, 0.2905021794140339 1.8882642686367035, -0.4357532784342766 l3.1955239176750183, -1.7430131137371063 3.4860262274742126, -2.7597707509994507 l5.6647926568984985, -9.441320896148682 1.0167576372623444, -3.63127738237381 l0.4357532784342766, -5.08378803730011 0.0, -3.3407750725746155 l-1.1620087176561356, -3.63127738237381 m-20.33515214920044, -6.391047835350037 l-0.726255476474762, -6.826801300048828 -0.4357532784342766, -23.82117986679077 l-0.4357532784342766, -3.63127738237381 m-1.1620087176561356, 33.11724901199341 l-0.726255476474762, -28.614466190338135 -1.0167576372623444, -7.8435587882995605 l-0.726255476474762, 0.0 -3.050273060798645, 2.4692685902118683 l-6.10054612159729, 7.26255476474762 -2.905021905899048, 4.067030549049377 l-4.502783715724945, 9.150818586349487 -4.502783715724945, 7.553057074546814 l-0.8715065568685532, 3.776528537273407 9.150818586349487, -4.793286025524139 l8.42456340789795, -3.1955239176750183 2.0335152745246887, -0.14525108970701694 l-5.810043811798096, 2.7597707509994507 -3.1955239176750183, 0.8715065568685532 l-18.44688892364502, 9.150818586349487 -2.7597707509994507, 2.6145195960998535 l11.910589933395386, 2.6145195960998535 3.3407750725746155, 1.452510952949524 l0.2905021794140339, 0.726255476474762 -4.357532858848572, 2.7597707509994507 l-10.02232551574707, 4.212281703948975 -1.452510952949524, 1.452510952949524 l-0.2905021794140339, 2.6145195960998535 0.726255476474762, 2.4692685902118683 l0.14525108970701694, 4.502783715724945 -6.10054612159729, 7.553057074546814 l-0.5810043588280678, 1.8882642686367035 0.0, 4.357532858848572 l1.8882642686367035, 3.4860262274742126 1.5977619588375092, 5.810043811798096 l0.726255476474762, 0.5810043588280678 3.63127738237381, 0.0 l5.08378803730011, -2.4692685902118683 10.312827825546265, -6.2457966804504395 l0.5810043588280678, 3.776528537273407 1.452510952949524, 4.793286025524139 l0.8715065568685532, 1.452510952949524 2.324017435312271, 1.5977619588375092 l3.050273060798645, 0.0 4.648034870624542, -1.7430131137371063 l4.067030549049377, -2.6145195960998535 4.648034870624542, -5.519541501998901 l1.8882642686367035, 4.938537180423737 2.6145195960998535, 4.502783715724945 l2.7597707509994507, 2.4692685902118683 1.1620087176561356, 0.5810043588280678 l2.0335152745246887, 0.14525108970701694 1.452510952949524, -0.14525108970701694 l2.324017435312271, -1.1620087176561356 2.6145195960998535, -2.905021905899048 l5.229039192199707, -9.296069741249084 2.178766429424286, -5.08378803730011 l1.5977619588375092, 2.178766429424286 3.1955239176750183, 2.7597707509994507 l1.3072597980499268, 0.5810043588280678 5.519541501998901, 1.3072597980499268 l3.776528537273407, 0.0 1.452510952949524, -1.1620087176561356 l0.726255476474762, -1.8882642686367035 0.4357532784342766, -9.150818586349487 l-1.452510952949524, -3.9217793941497803 -2.4692685902118683, -4.357532858848572 l-3.9217793941497803, -4.357532858848572 -2.4692685902118683, -1.7430131137371063 l0.14525108970701694, -0.8715065568685532 6.10054612159729, -2.905021905899048 l1.8882642686367035, -1.5977619588375092 2.0335152745246887, -2.6145195960998535 l1.3072597980499268, -4.357532858848572 0.14525108970701694, -6.2457966804504395 l-1.0167576372623444, -4.502783715724945 -0.726255476474762, -1.0167576372623444 l-2.178766429424286, -1.1620087176561356 -8.715065717697144, -0.4357532784342766 l-3.9217793941497803, 2.0335152745246887 0.0, -1.452510952949524 l1.3072597980499268, -4.938537180423737 0.14525108970701694, -6.681550145149231 l-0.726255476474762, -2.324017435312271 -1.3072597980499268, -1.7430131137371063 l-5.229039192199707, -2.6145195960998535 -2.7597707509994507, -0.4357532784342766 l-5.810043811798096, 0.0 -6.391047835350037, 2.6145195960998535 l-2.905021905899048, 3.776528537273407 -2.905021905899048, 10.748580694198608 l-1.7430131137371063, 4.648034870624542 -0.2905021794140339, 2.178766429424286 m-5.519541501998901, 7.553057074546814 l0.14525108970701694, 9.296069741249084 m7.407805919647217, -10.02232551574707 l3.1955239176750183, 6.972052454948425 1.1620087176561356, 3.776528537273407 m-11.184333562850952, 6.681550145149231 l6.391047835350037, -3.050273060798645 2.324017435312271, -0.14525108970701694 l2.0335152745246887, 1.0167576372623444 3.9217793941497803, 2.7597707509994507 l0.5810043588280678, 0.726255476474762 0.4357532784342766, 2.6145195960998535 l-0.726255476474762, 0.8715065568685532 -2.7597707509994507, 1.5977619588375092 l-1.452510952949524, 0.14525108970701694 -1.7430131137371063, -0.14525108970701694 l-0.8715065568685532, -0.5810043588280678 -4.648034870624542, -3.776528537273407 l-1.7430131137371063, -2.0335152745246887 m-10.893832445144653, 34.13400650024414 l-1.1620087176561356, -1.7430131137371063 -3.050273060798645, -2.324017435312271 l-4.357532858848572, -2.0335152745246887 -39.65354919433594, 0.0 l-5.955294966697693, 1.0167576372623444 -6.826801300048828, 2.178766429424286 l-6.536298990249634, 4.793286025524139 -1.452510952949524, 2.178766429424286 l-1.0167576372623444, 3.4860262274742126 -0.2905021794140339, 6.826801300048828 l1.5977619588375092, 4.502783715724945 3.1955239176750183, 3.3407750725746155 l6.536298990249634, 4.648034870624542 10.603330135345459, 5.810043811798096 l5.519541501998901, 2.0335152745246887 7.698307633399963, 1.5977619588375092 l11.910589933395386, 0.14525108970701694 8.42456340789795, -3.1955239176750183 l4.938537180423737, -3.050273060798645 5.229039192199707, -6.681550145149231 l3.63127738237381, -7.1173036098480225 3.63127738237381, -5.810043811798096 " fill="none" stroke="black" stroke-width="1" /></svg>