<?xml version="1.0" encoding="utf-8" ?>
<svg baseProfile="full" height="42.97199794091284" version="1.1" width="69.55294500105083" xmlns="http://www.w3.org/2000/svg" xmlns:ev="http://www.w3.org/2001/xml-events" xmlns:xlink="http://www.w3.org/1999/xlink"><defs /><rect fill="white" height="42.97199794091284" width="69.55294500105083" x="0" y="0" /><path d="M5.290501415729523, 31.87145210802555 m1.452510952949524, 4.067030549049377 l1.0167576372623444, 1.1620087176561356 0.726255476474762, 0.726255476474762 l2.178766429424286, 0.14525108970701694 1.7430131137371063, -0.8715065568685532 l1.5977619588375092, -2.324017435312271 2.6145195960998535, -7.988809943199158 l1.0167576372623444, 5.810043811798096 1.3072597980499268, 3.63127738237381 l2.178766429424286, 1.1620087176561356 2.4692685902118683, 0.0 l1.452510952949524, -2.905021905899048 2.4692685902118683, -7.8435587882995605 l0.0, 4.357532858848572 0.726255476474762, 3.050273060798645 l1.8882642686367035, 2.178766429424286 1.452510952949524, 0.14525108970701694 l1.452510952949524, -0.726255476474762 2.4692685902118683, -2.4692685902118683 l1.3072597980499268, -2.0335152745246887 1.1620087176561356, -4.212281703948975 l0.726255476474762, 3.4860262274742126 1.0167576372623444, 2.324017435312271 l4.357532858848572, 1.7430131137371063 0.726255476474762, -0.2905021794140339 l1.452510952949524, -2.324017435312271 3.1955239176750183, -8.42456340789795 l3.9217793941497803, 1.5977619588375092 3.9217793941497803, 0.0 l1.452510952949524, -0.8715065568685532 0.4357532784342766, -6.2457966804504395 l-0.5810043588280678, -1.5977619588375092 -2.905021905899048, -4.067030549049377 l-2.4692685902118683, -1.8882642686367035 -11.76533818244934, -1.8882642686367035 l-13.94410490989685, -1.1620087176561356 -2.324017435312271, 1.1620087176561356 l-12.491593360900879, 3.63127738237381 -5.519541501998901, 4.212281703948975 l-2.178766429424286, 5.08378803730011 0.0, 8.134061098098755 l0.726255476474762, 3.1955239176750183 m43.13957214355469, -23.240175247192383 l3.050273060798645, -3.63127738237381 1.7430131137371063, -0.8715065568685532 l0.726255476474762, 1.5977619588375092 -0.14525108970701694, 2.178766429424286 l1.3072597980499268, 0.0 4.502783715724945, -1.7430131137371063 l1.3072597980499268, 0.0 -1.3072597980499268, 2.0335152745246887 l-3.050273060798645, 1.8882642686367035 -0.8715065568685532, 1.0167576372623444 l5.229039192199707, 0.14525108970701694 0.4357532784342766, 0.726255476474762 l-3.4860262274742126, 3.050273060798645 6.2457966804504395, 0.726255476474762 l-0.14525108970701694, 0.726255476474762 -3.050273060798645, 1.7430131137371063 l2.324017435312271, 1.1620087176561356 -4.938537180423737, 2.6145195960998535 l0.5810043588280678, 2.178766429424286 -1.452510952949524, 5.519541501998901 l-0.726255476474762, -0.726255476474762 -2.0335152745246887, -4.793286025524139 l-1.7430131137371063, 3.9217793941497803 -0.726255476474762, 0.2905021794140339 l-0.726255476474762, -0.726255476474762 -0.5810043588280678, -4.357532858848572 m5.519541501998901, -3.4860262274742126 l-1.8882642686367035, -0.8715065568685532 -0.5810043588280678, -1.452510952949524 l0.14525108970701694, -2.324017435312271 1.452510952949524, -1.7430131137371063 l1.7430131137371063, -1.0167576372623444 m-1.3072597980499268, 4.648034870624542 l0.0, 0.0 m0.0, 0.0 l0.0, 0.0 m-9.150818586349487, 0.5810043588280678 " fill="none" stroke="black" stroke-width="1" /></svg>