<?xml version="1.0" encoding="utf-8" ?>
<svg baseProfile="full" height="92.06686743535101" version="1.1" width="170.06670512259007" xmlns="http://www.w3.org/2000/svg" xmlns:ev="http://www.w3.org/2001/xml-events" xmlns:xlink="http://www.w3.org/1999/xlink"><defs /><rect fill="white" height="92.06686743535101" width="170.06670512259007" x="0" y="0" /><path d="M32.597707845270634, 31.580949425697327 m-0.2905021794140339, 0.726255476474762 l-12.34634280204773, 4.793286025524139 -11.910589933395386, 3.9217793941497803 l-2.7597707509994507, 1.7430131137371063 -0.2905021794140339, 2.7597707509994507 l1.5977619588375092, 7.988809943199158 0.8715065568685532, 3.776528537273407 l1.0167576372623444, 1.1620087176561356 5.374290347099304, 0.14525108970701694 l5.6647926568984985, -1.7430131137371063 2.905021905899048, -1.452510952949524 l2.178766429424286, -1.3072597980499268 4.357532858848572, -4.067030549049377 l2.7597707509994507, -4.938537180423737 0.726255476474762, -1.0167576372623444 l0.726255476474762, 0.0 1.452510952949524, 2.324017435312271 l4.793286025524139, 5.229039192199707 5.374290347099304, 4.067030549049377 l5.374290347099304, 2.6145195960998535 9.731823205947876, 2.905021905899048 l11.910589933395386, 1.7430131137371063 7.8435587882995605, 0.0 l5.519541501998901, -1.8882642686367035 3.4860262274742126, -2.324017435312271 l3.776528537273407, -5.229039192199707 1.452510952949524, -2.7597707509994507 l3.050273060798645, -10.603330135345459 0.726255476474762, -5.229039192199707 l0.0, -4.212281703948975 -3.1955239176750183, -5.08378803730011 l-4.357532858848572, -0.5810043588280678 -2.7597707509994507, 0.14525108970701694 l-3.050273060798645, 1.8882642686367035 -4.357532858848572, 1.8882642686367035 l-2.4692685902118683, 0.726255476474762 -4.502783715724945, 0.2905021794140339 l-12.782095670700073, 0.0 -6.2457966804504395, -0.8715065568685532 l-9.441320896148682, -2.6145195960998535 -3.776528537273407, 0.0 l-6.10054612159729, 0.8715065568685532 -2.0335152745246887, 2.905021905899048 l-0.726255476474762, 1.8882642686367035 m4.938537180423737, 22.80442237854004 l-0.14525108970701694, 18.737391233444214 -1.7430131137371063, 10.603330135345459 l0.0, 0.726255476474762 0.8715065568685532, 0.726255476474762 l7.26255476474762, 0.4357532784342766 4.212281703948975, -14.815611839294434 l0.2905021794140339, -11.910589933395386 0.8715065568685532, -0.14525108970701694 l8.42456340789795, 5.519541501998901 9.00556743144989, 4.938537180423737 l4.793286025524139, 1.7430131137371063 2.7597707509994507, 0.14525108970701694 m-1.1620087176561356, -9.877074360847473 l0.14525108970701694, 24.69268560409546 1.7430131137371063, 0.4357532784342766 l9.586572051048279, 0.14525108970701694 0.8715065568685532, -0.4357532784342766 l0.2905021794140339, -0.726255476474762 0.0, -13.508352041244507 l-2.0335152745246887, -14.379857778549194 m9.877074360847473, -14.960862398147583 l1.452510952949524, 0.726255476474762 2.0335152745246887, -0.14525108970701694 l4.793286025524139, -2.0335152745246887 4.793286025524139, -3.050273060798645 l3.776528537273407, -3.63127738237381 0.4357532784342766, -1.0167576372623444 l1.0167576372623444, -3.776528537273407 -0.2905021794140339, -10.748580694198608 l-1.3072597980499268, -3.776528537273407 -1.8882642686367035, -3.050273060798645 l-2.324017435312271, -3.1955239176750183 -1.5977619588375092, -1.3072597980499268 l3.9217793941497803, -1.7430131137371063 3.1955239176750183, -0.8715065568685532 l8.715065717697144, -0.4357532784342766 17.86588430404663, 0.14525108970701694 l12.20109224319458, 2.178766429424286 9.296069741249084, 2.7597707509994507 l4.067030549049377, 2.6145195960998535 1.8882642686367035, 2.0335152745246887 l0.2905021794140339, 6.536298990249634 " fill="none" stroke="black" stroke-width="1" /></svg>