<?xml version="1.0" encoding="utf-8" ?>
<svg baseProfile="full" height="60.69263033568859" version="1.1" width="51.97756585665047" xmlns="http://www.w3.org/2000/svg" xmlns:ev="http://www.w3.org/2001/xml-events" xmlns:xlink="http://www.w3.org/1999/xlink"><defs /><rect fill="white" height="60.69263033568859" width="51.97756585665047" x="0" y="0" /><path d="M24.754148311913013, 11.826800489798188 m-2.4692685902118683, -2.324017435312271 l-1.452510952949524, -0.4357532784342766 -4.502783715724945, 0.0 l-5.6647926568984985, 1.1620087176561356 -2.324017435312271, 1.8882642686367035 l2.324017435312271, 1.0167576372623444 -5.08378803730011, 5.955294966697693 l-0.5810043588280678, 4.793286025524139 3.050273060798645, -0.8715065568685532 l0.2905021794140339, 0.8715065568685532 -2.0335152745246887, 2.7597707509994507 l-0.8715065568685532, 2.324017435312271 0.0, 7.26255476474762 l0.5810043588280678, 2.4692685902118683 1.452510952949524, -0.4357532784342766 l1.8882642686367035, -2.4692685902118683 1.3072597980499268, 5.374290347099304 l4.067030549049377, 7.988809943199158 2.324017435312271, -0.14525108970701694 l0.8715065568685532, 1.1620087176561356 0.726255476474762, 2.6145195960998535 l1.8882642686367035, 1.3072597980499268 6.826801300048828, 1.5977619588375092 l2.4692685902118683, -0.2905021794140339 3.050273060798645, -1.7430131137371063 l5.374290347099304, -5.08378803730011 4.648034870624542, -9.150818586349487 l2.178766429424286, -6.2457966804504395 -0.14525108970701694, -4.212281703948975 l0.5810043588280678, 0.726255476474762 0.5810043588280678, -1.7430131137371063 l0.8715065568685532, -5.6647926568984985 -1.0167576372623444, -1.5977619588375092 l-0.2905021794140339, -2.178766429424286 0.4357532784342766, -4.648034870624542 l-1.3072597980499268, -2.4692685902118683 -2.0335152745246887, -1.5977619588375092 l-0.2905021794140339, -0.726255476474762 1.0167576372623444, -2.0335152745246887 l-0.726255476474762, -0.5810043588280678 -2.7597707509994507, -0.2905021794140339 l-8.86031687259674, 1.452510952949524 -3.1955239176750183, -1.5977619588375092 l-0.5810043588280678, -0.726255476474762 -1.0167576372623444, 1.5977619588375092 l-0.2905021794140339, 1.452510952949524 -2.4692685902118683, -1.5977619588375092 l-0.726255476474762, -1.7430131137371063 -0.2905021794140339, 4.067030549049377 l1.0167576372623444, 1.5977619588375092 m-4.067030549049377, 9.731823205947876 l-1.8882642686367035, -1.5977619588375092 -0.726255476474762, 0.0 l2.0335152745246887, -1.0167576372623444 5.6647926568984985, -0.8715065568685532 l4.212281703948975, 0.5810043588280678 3.1955239176750183, 1.452510952949524 l1.3072597980499268, 0.14525108970701694 1.8882642686367035, 1.3072597980499268 l0.726255476474762, -0.5810043588280678 0.8715065568685532, -2.324017435312271 l2.6145195960998535, -1.3072597980499268 2.6145195960998535, 1.5977619588375092 l2.0335152745246887, 3.050273060798645 -0.2905021794140339, 1.7430131137371063 l-3.050273060798645, 4.938537180423737 -0.5810043588280678, 2.4692685902118683 l0.2905021794140339, 5.08378803730011 -1.8882642686367035, 5.08378803730011 l-3.050273060798645, 3.776528537273407 -5.229039192199707, 4.212281703948975 l-2.4692685902118683, 1.1620087176561356 -8.86031687259674, -5.374290347099304 l-2.4692685902118683, -4.067030549049377 -1.3072597980499268, -8.42456340789795 l-3.9217793941497803, -9.586572051048279 -0.2905021794140339, -2.4692685902118683 l0.5810043588280678, -1.452510952949524 1.5977619588375092, -1.452510952949524 l3.9217793941497803, 2.324017435312271 1.1620087176561356, 2.0335152745246887 " fill="none" stroke="black" stroke-width="1" /></svg>