<?xml version="1.0" encoding="utf-8" ?>
<svg baseProfile="full" height="51.10605873167515" version="1.1" width="52.703820802271366" xmlns="http://www.w3.org/2000/svg" xmlns:ev="http://www.w3.org/2001/xml-events" xmlns:xlink="http://www.w3.org/1999/xlink"><defs /><rect fill="white" height="51.10605873167515" width="52.703820802271366" x="0" y="0" /><path d="M29.983187532052398, 16.9105901196599 m-1.3072597980499268, -1.3072597980499268 l-1.5977619588375092, -0.5810043588280678 -2.905021905899048, 0.0 l-2.905021905899048, 0.8715065568685532 -2.178766429424286, 1.3072597980499268 l-1.5977619588375092, 2.178766429424286 -0.2905021794140339, 2.178766429424286 l-0.8715065568685532, -3.050273060798645 -1.452510952949524, -1.1620087176561356 l-0.8715065568685532, 0.0 -0.2905021794140339, 3.050273060798645 l1.8882642686367035, 4.212281703948975 0.726255476474762, 0.0 l-0.2905021794140339, 9.00556743144989 1.7430131137371063, 3.050273060798645 l4.067030549049377, 1.8882642686367035 10.02232551574707, 1.1620087176561356 l8.134061098098755, 0.0 4.938537180423737, -1.3072597980499268 l1.3072597980499268, -1.1620087176561356 0.14525108970701694, -0.726255476474762 l0.2905021794140339, -1.7430131137371063 -0.8715065568685532, -1.0167576372623444 l-1.452510952949524, -0.726255476474762 -5.519541501998901, -0.2905021794140339 l5.229039192199707, 0.0 3.63127738237381, -1.452510952949524 l0.0, -0.726255476474762 -3.776528537273407, -1.5977619588375092 l-4.648034870624542, -0.8715065568685532 -3.9217793941497803, -1.3072597980499268 l-0.4357532784342766, -2.178766429424286 1.452510952949524, -1.1620087176561356 l1.1620087176561356, -1.7430131137371063 0.0, -1.7430131137371063 l-1.3072597980499268, -1.0167576372623444 -1.5977619588375092, 0.0 l-2.178766429424286, 0.8715065568685532 -3.050273060798645, -2.178766429424286 l-0.2905021794140339, -0.726255476474762 m-5.519541501998901, 6.536298990249634 l0.0, 0.0 m4.938537180423737, 0.2905021794140339 l0.0, 0.0 m1.0167576372623444, -0.726255476474762 l0.0, 0.0 m-0.726255476474762, 0.4357532784342766 l0.0, 0.0 m0.0, 0.0 l0.0, 0.0 m0.0, 0.0 l0.8715065568685532, 1.5977619588375092 -0.8715065568685532, 0.0 l-0.4357532784342766, -0.5810043588280678 m-4.793286025524139, 6.681550145149231 l0.0, 0.0 m3.776528537273407, -16.12287163734436 l-3.1955239176750183, -6.391047835350037 -2.4692685902118683, -2.905021905899048 l-2.0335152745246887, -0.726255476474762 -2.4692685902118683, 0.14525108970701694 l-1.0167576372623444, 2.4692685902118683 0.0, 1.1620087176561356 l-0.726255476474762, 0.5810043588280678 -5.374290347099304, 0.0 l-0.726255476474762, 0.5810043588280678 -0.2905021794140339, 2.6145195960998535 l0.4357532784342766, 1.7430131137371063 -0.4357532784342766, 0.726255476474762 l-1.7430131137371063, 0.2905021794140339 -1.1620087176561356, 2.178766429424286 l-1.1620087176561356, 10.02232551574707 0.14525108970701694, 1.3072597980499268 l1.8882642686367035, 3.9217793941497803 0.14525108970701694, 2.324017435312271 l1.7430131137371063, 3.1955239176750183 0.14525108970701694, 5.08378803730011 l2.324017435312271, 2.0335152745246887 1.452510952949524, 0.5810043588280678 l3.050273060798645, 0.14525108970701694 3.776528537273407, -1.7430131137371063 l1.0167576372623444, -1.452510952949524 0.726255476474762, -0.2905021794140339 l3.9217793941497803, 0.0 3.050273060798645, -2.324017435312271 l0.0, -3.3407750725746155 m-3.776528537273407, -24.547433853149414 l1.452510952949524, -1.7430131137371063 3.050273060798645, -0.5810043588280678 l1.452510952949524, 1.5977619588375092 0.726255476474762, 0.2905021794140339 l2.324017435312271, -0.2905021794140339 1.452510952949524, 1.3072597980499268 l2.0335152745246887, 4.648034870624542 2.178766429424286, 6.972052454948425 l-3.4860262274742126, 5.519541501998901 " fill="none" stroke="black" stroke-width="1" /></svg>