<?xml version="1.0" encoding="utf-8" ?>
<svg baseProfile="full" height="64.32390864938498" version="1.1" width="49.65354757383466" xmlns="http://www.w3.org/2000/svg" xmlns:ev="http://www.w3.org/2001/xml-events" xmlns:xlink="http://www.w3.org/1999/xlink"><defs /><rect fill="white" height="64.32390864938498" width="49.65354757383466" x="0" y="0" /><path d="M21.558623798191547, 25.48040430061519 m-0.4357532784342766, -1.0167576372623444 l0.0, -3.050273060798645 1.1620087176561356, -3.4860262274742126 l2.178766429424286, -1.5977619588375092 1.452510952949524, -0.4357532784342766 l3.776528537273407, -0.14525108970701694 2.0335152745246887, 0.8715065568685532 l1.452510952949524, 2.6145195960998535 0.2905021794140339, 5.229039192199707 l-0.4357532784342766, 1.1620087176561356 -2.0335152745246887, 2.178766429424286 l-1.7430131137371063, 0.5810043588280678 -7.26255476474762, 0.2905021794140339 l-1.0167576372623444, -0.4357532784342766 -0.4357532784342766, -1.0167576372623444 m-4.502783715724945, -16.558624505996704 l1.3072597980499268, -2.0335152745246887 2.324017435312271, -1.8882642686367035 l4.357532858848572, -1.7430131137371063 5.374290347099304, 0.0 l1.1620087176561356, 0.726255476474762 1.5977619588375092, 2.4692685902118683 l4.793286025524139, 0.4357532784342766 2.0335152745246887, 4.212281703948975 l1.8882642686367035, 1.8882642686367035 0.8715065568685532, 0.2905021794140339 l0.8715065568685532, 1.5977619588375092 2.0335152745246887, 8.134061098098755 l-3.3407750725746155, 3.776528537273407 -3.1955239176750183, 6.536298990249634 l-1.5977619588375092, 2.0335152745246887 -6.10054612159729, 1.452510952949524 l-11.474835872650146, 0.14525108970701694 -3.3407750725746155, -0.2905021794140339 l-2.178766429424286, -1.0167576372623444 -3.1955239176750183, -2.905021905899048 l-2.324017435312271, -2.905021905899048 -2.6145195960998535, -6.826801300048828 l-0.2905021794140339, -3.63127738237381 0.14525108970701694, -1.1620087176561356 l1.3072597980499268, -1.7430131137371063 2.905021905899048, -1.7430131137371063 l3.4860262274742126, -6.2457966804504395 3.776528537273407, -1.7430131137371063 m7.26255476474762, 13.217849731445312 l1.1620087176561356, -2.178766429424286 1.1620087176561356, 0.0 l0.5810043588280678, 0.726255476474762 -0.726255476474762, 0.5810043588280678 l-0.5810043588280678, -0.4357532784342766 m4.067030549049377, -0.2905021794140339 l0.4357532784342766, -1.0167576372623444 0.8715065568685532, -0.4357532784342766 l0.4357532784342766, 0.8715065568685532 m-6.2457966804504395, 6.2457966804504395 l0.5810043588280678, -1.1620087176561356 5.6647926568984985, -0.8715065568685532 l0.4357532784342766, 1.452510952949524 -1.3072597980499268, 1.0167576372623444 l-3.63127738237381, 0.14525108970701694 -1.452510952949524, 1.0167576372623444 l-0.726255476474762, -0.4357532784342766 m-13.94410490989685, 7.1173036098480225 l-1.0167576372623444, 8.134061098098755 -1.452510952949524, 4.938537180423737 l-0.8715065568685532, 5.229039192199707 0.14525108970701694, 4.793286025524139 l1.452510952949524, 2.178766429424286 " fill="none" stroke="black" stroke-width="1" /></svg>