<?xml version="1.0" encoding="utf-8" ?>
<svg baseProfile="full" height="75.07248803041875" version="1.1" width="113.1282757408917" xmlns="http://www.w3.org/2000/svg" xmlns:ev="http://www.w3.org/2001/xml-events" xmlns:xlink="http://www.w3.org/1999/xlink"><defs /><rect fill="white" height="75.07248803041875" width="113.1282757408917" x="0" y="0" /><path d="M10.810043513774872, 14.73182306624949 m-2.6145195960998535, 2.6145195960998535 l-3.1955239176750183, 9.150818586349487 0.14525108970701694, 5.810043811798096 l2.178766429424286, 0.14525108970701694 9.877074360847473, -2.324017435312271 l-3.63127738237381, 10.16757607460022 5.374290347099304, -1.452510952949524 l18.882641792297363, -0.5810043588280678 9.296069741249084, 0.2905021794140339 l4.212281703948975, 1.8882642686367035 0.14525108970701694, 2.178766429424286 l-2.0335152745246887, 4.067030549049377 -4.793286025524139, 6.10054612159729 l7.553057074546814, -8.715065717697144 2.4692685902118683, -4.793286025524139 l4.067030549049377, 0.4357532784342766 5.519541501998901, -2.6145195960998535 l8.715065717697144, -8.134061098098755 1.1620087176561356, -2.905021905899048 l-0.2905021794140339, -4.648034870624542 -6.391047835350037, 2.7597707509994507 l-6.972052454948425, 1.452510952949524 -7.26255476474762, -0.5810043588280678 l-1.0167576372623444, -0.4357532784342766 0.4357532784342766, -5.6647926568984985 l2.324017435312271, -5.374290347099304 -2.905021905899048, 2.178766429424286 l-6.2457966804504395, 3.1955239176750183 2.7597707509994507, -5.810043811798096 l0.726255476474762, -3.1955239176750183 -4.067030549049377, -1.0167576372623444 l-10.458078384399414, 0.5810043588280678 -11.039083003997803, 2.324017435312271 l-0.8715065568685532, -1.1620087176561356 -4.502783715724945, -2.4692685902118683 l-6.681550145149231, -1.3072597980499268 -0.5810043588280678, 0.8715065568685532 l0.5810043588280678, 3.9217793941497803 1.5977619588375092, 2.178766429424286 m12.636845111846924, 5.955294966697693 l3.050273060798645, -2.324017435312271 11.039083003997803, -0.2905021794140339 l16.8491268157959, 1.7430131137371063 6.391047835350037, 1.1620087176561356 l4.793286025524139, 1.5977619588375092 0.0, 10.02232551574707 l-1.7430131137371063, 6.972052454948425 -2.905021905899048, 2.905021905899048 l-6.391047835350037, 3.776528537273407 -8.134061098098755, 0.8715065568685532 l-4.502783715724945, 0.0 -18.59213948249817, -6.972052454948425 l-5.519541501998901, -2.6145195960998535 -0.726255476474762, -1.0167576372623444 l0.4357532784342766, -8.134061098098755 0.2905021794140339, -2.178766429424286 l1.5977619588375092, -1.5977619588375092 2.178766429424286, -0.4357532784342766 l8.715065717697144, 0.8715065568685532 7.553057074546814, 2.905021905899048 l3.3407750725746155, 1.7430131137371063 m-14.234607219696045, 5.374290347099304 l9.150818586349487, -1.0167576372623444 6.391047835350037, -1.452510952949524 l4.502783715724945, -0.2905021794140339 -0.8715065568685532, 1.0167576372623444 m3.3407750725746155, 0.0 l9.731823205947876, -2.324017435312271 1.5977619588375092, -1.0167576372623444 l4.357532858848572, -0.14525108970701694 -1.5977619588375092, 0.2905021794140339 m-22.22341775894165, -14.234607219696045 l11.474835872650146, -5.6647926568984985 11.474835872650146, -4.212281703948975 l19.463646411895752, -0.14525108970701694 4.357532858848572, 0.5810043588280678 l2.0335152745246887, 2.0335152745246887 11.910589933395386, 17.139629125595093 l2.324017435312271, 5.229039192199707 1.3072597980499268, 26.58094882965088 l-0.4357532784342766, 3.9217793941497803 -1.0167576372623444, 3.1955239176750183 l-1.3072597980499268, 0.5810043588280678 -5.810043811798096, -0.14525108970701694 l-3.63127738237381, -3.050273060798645 -0.5810043588280678, -1.0167576372623444 l-0.4357532784342766, -4.648034870624542 0.0, -9.586572051048279 l-0.8715065568685532, -4.212281703948975 -5.08378803730011, 4.067030549049377 l-12.782095670700073, 13.653602600097656 -0.14525108970701694, 2.6145195960998535 l-1.0167576372623444, 3.3407750725746155 -4.502783715724945, 2.905021905899048 l-2.0335152745246887, 1.8882642686367035 -5.6647926568984985, 0.0 l-7.698307633399963, -0.8715065568685532 -2.905021905899048, -5.08378803730011 l-0.14525108970701694, -3.9217793941497803 -2.7597707509994507, -6.10054612159729 l-3.776528537273407, -5.08378803730011 -5.6647926568984985, 14.379857778549194 l-0.2905021794140339, 2.324017435312271 -7.8435587882995605, -7.8435587882995605 l-3.776528537273407, -6.681550145149231 -2.6145195960998535, -6.10054612159729 l-4.938537180423737, -8.279312252998352 -3.3407750725746155, -0.2905021794140339 l-0.4357532784342766, -0.4357532784342766 m70.01102447509766, -9.150818586349487 l13.363100290298462, -3.63127738237381 m-24.547433853149414, 14.08935546875 l4.938537180423737, -3.9217793941497803 3.776528537273407, -4.067030549049377 l2.6145195960998535, -1.452510952949524 5.229039192199707, 0.0 m-18.44688892364502, -14.960862398147583 l8.134061098098755, 0.4357532784342766 5.810043811798096, -0.726255476474762 m-20.62565565109253, 0.0 l9.586572051048279, -2.4692685902118683 m-6.681550145149231, 38.20103645324707 l17.430131435394287, -8.134061098098755 14.234607219696045, -3.1955239176750183 m-32.82674789428711, 14.234607219696045 l17.72063374519348, -4.648034870624542 10.16757607460022, -1.1620087176561356 m-63.038973808288574, 3.050273060798645 l4.938537180423737, -4.502783715724945 6.681550145149231, -4.067030549049377 l9.441320896148682, -3.4860262274742126 " fill="none" stroke="black" stroke-width="1" /></svg>