<?xml version="1.0" encoding="utf-8" ?>
<svg baseProfile="full" height="82.62554573826492" version="1.1" width="116.3238007761538" xmlns="http://www.w3.org/2000/svg" xmlns:ev="http://www.w3.org/2001/xml-events" xmlns:xlink="http://www.w3.org/1999/xlink"><defs /><rect fill="white" height="82.62554573826492" width="116.3238007761538" x="0" y="0" /><path d="M50.89934446848929, 11.681550145149231 m-4.648034870624542, -4.067030549049377 l-4.793286025524139, -2.6145195960998535 1.5977619588375092, 4.212281703948975 l-1.0167576372623444, 0.4357532784342766 -6.826801300048828, 0.0 l-2.4692685902118683, 0.4357532784342766 -2.6145195960998535, 0.5810043588280678 l-5.6647926568984985, 2.4692685902118683 -1.0167576372623444, 1.3072597980499268 l2.4692685902118683, 0.4357532784342766 2.7597707509994507, 1.5977619588375092 l0.726255476474762, 1.5977619588375092 -0.2905021794140339, 1.1620087176561356 l-12.782095670700073, 4.938537180423737 -5.6647926568984985, 3.050273060798645 l1.0167576372623444, 0.5810043588280678 4.938537180423737, 0.8715065568685532 l0.726255476474762, 0.4357532784342766 0.14525108970701694, 0.8715065568685532 l-7.8435587882995605, 7.407805919647217 -3.050273060798645, 3.776528537273407 l-1.5977619588375092, 3.1955239176750183 1.3072597980499268, 0.5810043588280678 l5.810043811798096, -1.3072597980499268 -0.14525108970701694, 3.63127738237381 l-1.452510952949524, 7.8435587882995605 0.14525108970701694, 7.8435587882995605 l2.178766429424286, 6.681550145149231 3.050273060798645, 4.502783715724945 l1.452510952949524, 1.1620087176561356 2.0335152745246887, 0.4357532784342766 l1.3072597980499268, -1.0167576372623444 1.3072597980499268, -1.8882642686367035 l1.8882642686367035, -3.1955239176750183 1.3072597980499268, -5.955294966697693 l2.0335152745246887, 2.6145195960998535 1.8882642686367035, 1.5977619588375092 l5.810043811798096, 3.4860262274742126 14.670360088348389, 5.810043811798096 l2.4692685902118683, 0.2905021794140339 4.938537180423737, 0.14525108970701694 l1.8882642686367035, -0.726255476474762 2.4692685902118683, -3.050273060798645 l0.8715065568685532, -3.050273060798645 0.2905021794140339, -3.4860262274742126 l22.22341775894165, 3.050273060798645 6.972052454948425, -0.2905021794140339 l3.776528537273407, -2.324017435312271 1.7430131137371063, -1.7430131137371063 l3.050273060798645, -4.357532858848572 1.7430131137371063, -5.229039192199707 l0.0, -0.8715065568685532 -0.726255476474762, -1.0167576372623444 l-1.0167576372623444, -0.2905021794140339 0.726255476474762, -0.8715065568685532 l5.6647926568984985, -2.905021905899048 3.3407750725746155, -3.63127738237381 l1.3072597980499268, -4.212281703948975 -0.14525108970701694, -2.905021905899048 l-2.0335152745246887, -0.8715065568685532 -3.776528537273407, 0.0 l-0.2905021794140339, -0.8715065568685532 4.212281703948975, -6.826801300048828 l1.0167576372623444, -3.1955239176750183 0.0, -3.050273060798645 l-0.8715065568685532, -1.1620087176561356 -1.5977619588375092, -1.0167576372623444 l-1.8882642686367035, -0.4357532784342766 -11.039083003997803, 0.0 l-1.5977619588375092, -4.067030549049377 -2.0335152745246887, -9.441320896148682 l-1.5977619588375092, -1.8882642686367035 -2.4692685902118683, -0.14525108970701694 l-6.826801300048828, 5.519541501998901 -1.7430131137371063, 1.0167576372623444 l-2.6145195960998535, 0.726255476474762 -1.0167576372623444, -0.4357532784342766 l-0.726255476474762, -2.4692685902118683 -1.8882642686367035, -2.6145195960998535 l-2.0335152745246887, -1.5977619588375092 -2.0335152745246887, -0.5810043588280678 l-2.324017435312271, 0.14525108970701694 -4.793286025524139, 3.776528537273407 l-2.0335152745246887, 0.2905021794140339 -0.8715065568685532, -2.178766429424286 l-1.8882642686367035, -2.4692685902118683 -1.1620087176561356, -0.726255476474762 l-1.1620087176561356, 0.0 -5.08378803730011, 5.229039192199707 m9.877074360847473, 15.977619886398315 l-1.3072597980499268, -0.4357532784342766 -4.648034870624542, 0.0 l-5.955294966697693, 2.6145195960998535 -7.988809943199158, 5.229039192199707 l-5.519541501998901, 5.229039192199707 -1.452510952949524, 2.178766429424286 l-0.726255476474762, 2.4692685902118683 -0.2905021794140339, 5.374290347099304 l0.726255476474762, 2.324017435312271 1.452510952949524, 2.178766429424286 l2.324017435312271, 2.178766429424286 3.3407750725746155, 1.5977619588375092 l7.698307633399963, 1.8882642686367035 4.357532858848572, 0.4357532784342766 l13.363100290298462, -0.14525108970701694 8.134061098098755, -2.0335152745246887 l3.1955239176750183, -1.7430131137371063 4.648034870624542, -3.63127738237381 l3.3407750725746155, -4.502783715724945 1.1620087176561356, -5.229039192199707 l-0.4357532784342766, -6.10054612159729 -1.1620087176561356, -3.1955239176750183 l-3.1955239176750183, -4.357532858848572 -5.08378803730011, -3.050273060798645 l-3.050273060798645, -0.8715065568685532 -7.698307633399963, -1.0167576372623444 l-4.067030549049377, 0.4357532784342766 m-3.050273060798645, 18.01113486289978 l-1.5977619588375092, 1.0167576372623444 -0.2905021794140339, 1.452510952949524 l0.14525108970701694, 2.4692685902118683 1.452510952949524, 0.0 l1.452510952949524, -2.324017435312271 -0.14525108970701694, -2.178766429424286 l-0.8715065568685532, -0.726255476474762 -2.0335152745246887, -0.4357532784342766 l-1.0167576372623444, 1.452510952949524 -0.14525108970701694, 1.452510952949524 l1.0167576372623444, 0.4357532784342766 1.1620087176561356, 0.14525108970701694 l0.4357532784342766, -1.5977619588375092 -1.0167576372623444, -0.4357532784342766 l-0.14525108970701694, 6.972052454948425 -0.726255476474762, 1.7430131137371063 l-2.4692685902118683, 1.7430131137371063 -3.050273060798645, 0.14525108970701694 l-1.5977619588375092, -0.726255476474762 -0.4357532784342766, -1.452510952949524 m10.458078384399414, -6.536298990249634 l-0.726255476474762, 0.5810043588280678 0.14525108970701694, 1.1620087176561356 l1.3072597980499268, 3.9217793941497803 2.178766429424286, 2.6145195960998535 l1.7430131137371063, 0.4357532784342766 3.1955239176750183, -0.2905021794140339 l3.050273060798645, -1.5977619588375092 1.7430131137371063, -1.7430131137371063 l1.0167576372623444, -1.7430131137371063 0.0, -1.5977619588375092 l-1.5977619588375092, -2.178766429424286 m-3.9217793941497803, -12.055840492248535 " fill="none" stroke="black" stroke-width="1" /></svg>