<?xml version="1.0" encoding="utf-8" ?>
<svg baseProfile="full" height="61.418886790052056" version="1.1" width="66.93842872045934" xmlns="http://www.w3.org/2000/svg" xmlns:ev="http://www.w3.org/2001/xml-events" xmlns:xlink="http://www.w3.org/1999/xlink"><defs /><rect fill="white" height="61.418886790052056" width="66.93842872045934" x="0" y="0" /><path d="M35.06697597913444, 48.575327238067985 m-5.08378803730011, -1.1620087176561356 l-1.8882642686367035, -2.178766429424286 0.14525108970701694, -0.726255476474762 l5.374290347099304, -1.7430131137371063 5.810043811798096, -0.726255476474762 l1.452510952949524, 0.2905021794140339 0.4357532784342766, 0.726255476474762 l-0.5810043588280678, 1.0167576372623444 -1.452510952949524, 0.8715065568685532 l-3.4860262274742126, 3.4860262274742126 0.14525108970701694, 1.5977619588375092 l0.726255476474762, 0.726255476474762 m3.3407750725746155, -11.039083003997803 l0.0, -0.726255476474762 -2.178766429424286, -2.7597707509994507 l-1.7430131137371063, -4.212281703948975 -0.8715065568685532, -3.4860262274742126 l-0.14525108970701694, -3.3407750725746155 1.0167576372623444, -2.7597707509994507 l1.452510952949524, -1.5977619588375092 2.0335152745246887, -1.3072597980499268 l2.178766429424286, 0.2905021794140339 4.793286025524139, 4.648034870624542 l1.0167576372623444, 1.7430131137371063 1.3072597980499268, 4.648034870624542 l0.0, 2.7597707509994507 -1.0167576372623444, 1.452510952949524 l-2.6145195960998535, 2.0335152745246887 -2.6145195960998535, 1.3072597980499268 l-3.3407750725746155, 0.2905021794140339 -2.0335152745246887, -0.8715065568685532 m-10.748580694198608, 4.648034870624542 l-1.5977619588375092, -0.2905021794140339 -0.8715065568685532, -1.0167576372623444 l-1.3072597980499268, -4.357532858848572 0.0, -4.212281703948975 l0.5810043588280678, -1.8882642686367035 1.0167576372623444, -2.4692685902118683 l0.726255476474762, -0.5810043588280678 0.8715065568685532, 0.0 l2.905021905899048, 1.5977619588375092 1.452510952949524, 2.324017435312271 l1.452510952949524, 5.810043811798096 0.0, 3.776528537273407 l-1.3072597980499268, 2.324017435312271 m12.055840492248535, -31.374235153198242 l-1.7430131137371063, -1.452510952949524 -7.553057074546814, -2.905021905899048 l4.212281703948975, 6.681550145149231 -3.9217793941497803, -1.8882642686367035 l-8.134061098098755, -0.4357532784342766 -0.726255476474762, 0.5810043588280678 l-0.5810043588280678, 2.4692685902118683 1.0167576372623444, 0.5810043588280678 l4.357532858848572, 0.14525108970701694 -2.324017435312271, 0.4357532784342766 l-3.050273060798645, 1.452510952949524 -5.08378803730011, 4.212281703948975 l-1.8882642686367035, 3.776528537273407 3.9217793941497803, 0.14525108970701694 l-1.5977619588375092, -1.452510952949524 -3.776528537273407, -2.0335152745246887 l-3.776528537273407, -0.8715065568685532 -3.050273060798645, 0.14525108970701694 l-3.3407750725746155, 3.4860262274742126 -0.4357532784342766, 0.8715065568685532 l0.2905021794140339, 3.9217793941497803 3.63127738237381, 1.1620087176561356 l2.0335152745246887, 0.0 3.050273060798645, -2.0335152745246887 l0.0, 6.972052454948425 1.1620087176561356, 2.905021905899048 l4.067030549049377, 5.6647926568984985 0.8715065568685532, 0.726255476474762 l2.7597707509994507, 0.8715065568685532 -2.6145195960998535, 1.1620087176561356 l-3.63127738237381, 2.6145195960998535 -0.4357532784342766, 0.8715065568685532 l1.8882642686367035, 0.8715065568685532 3.3407750725746155, 0.0 l3.4860262274742126, -1.1620087176561356 -0.8715065568685532, 2.4692685902118683 l0.0, 2.0335152745246887 2.905021905899048, 1.1620087176561356 l2.905021905899048, -0.2905021794140339 1.1620087176561356, -1.3072597980499268 l1.5977619588375092, -3.1955239176750183 0.14525108970701694, 3.63127738237381 l2.905021905899048, 1.1620087176561356 2.7597707509994507, 0.14525108970701694 l11.910589933395386, -8.569814562797546 3.63127738237381, -3.63127738237381 l5.08378803730011, -6.391047835350037 2.905021905899048, -6.10054612159729 l-1.1620087176561356, -0.14525108970701694 -5.08378803730011, 1.5977619588375092 l2.4692685902118683, -4.502783715724945 0.2905021794140339, -2.324017435312271 l-0.4357532784342766, -0.8715065568685532 -3.050273060798645, -0.726255476474762 l-3.4860262274742126, 0.2905021794140339 0.4357532784342766, -1.8882642686367035 l1.452510952949524, -2.7597707509994507 0.0, -8.42456340789795 l-0.726255476474762, -4.067030549049377 -4.938537180423737, -2.6145195960998535 l-5.6647926568984985, -0.2905021794140339 -1.0167576372623444, 0.4357532784342766 l-0.726255476474762, 2.178766429424286 0.2905021794140339, 2.178766429424286 l1.1620087176561356, 1.0167576372623444 m-0.4357532784342766, -1.5977619588375092 l-4.357532858848572, -1.7430131137371063 -3.4860262274742126, -0.726255476474762 l-9.296069741249084, -0.14525108970701694 -1.5977619588375092, 1.1620087176561356 l-0.2905021794140339, 0.726255476474762 4.793286025524139, 1.5977619588375092 l3.050273060798645, 1.8882642686367035 " fill="none" stroke="black" stroke-width="1" /></svg>