<?xml version="1.0" encoding="utf-8" ?>
<svg baseProfile="full" height="43.117249459028244" version="1.1" width="55.608842773362994" xmlns="http://www.w3.org/2000/svg" xmlns:ev="http://www.w3.org/2001/xml-events" xmlns:xlink="http://www.w3.org/1999/xlink"><defs /><rect fill="white" height="43.117249459028244" width="55.608842773362994" x="0" y="0" /><path d="M26.497160913422704, 15.167576652020216 m-3.1955239176750183, -0.14525108970701694 l-3.4860262274742126, 1.8882642686367035 -1.7430131137371063, 2.0335152745246887 l-1.3072597980499268, 2.7597707509994507 -0.2905021794140339, 3.050273060798645 l0.14525108970701694, 3.9217793941497803 1.452510952949524, 2.0335152745246887 l4.067030549049377, 2.4692685902118683 3.050273060798645, 0.5810043588280678 l4.502783715724945, -0.14525108970701694 3.776528537273407, -1.8882642686367035 l0.8715065568685532, -0.8715065568685532 1.452510952949524, -2.0335152745246887 l0.8715065568685532, -2.324017435312271 0.726255476474762, -5.519541501998901 l-0.5810043588280678, -1.5977619588375092 -2.324017435312271, -2.178766429424286 l-2.178766429424286, -1.3072597980499268 -4.793286025524139, -1.0167576372623444 l-4.212281703948975, 0.0 m-4.502783715724945, 16.26812219619751 l-7.698307633399963, 2.0335152745246887 -3.3407750725746155, 0.14525108970701694 l-1.1620087176561356, -0.726255476474762 -0.8715065568685532, -2.178766429424286 l-0.726255476474762, -3.4860262274742126 0.0, -5.955294966697693 l1.3072597980499268, -2.905021905899048 1.452510952949524, -1.5977619588375092 l2.6145195960998535, -0.2905021794140339 1.8882642686367035, 0.4357532784342766 l-1.3072597980499268, -2.7597707509994507 0.0, -2.7597707509994507 l0.4357532784342766, -1.5977619588375092 1.0167576372623444, -1.3072597980499268 l2.6145195960998535, -1.7430131137371063 2.4692685902118683, -0.5810043588280678 l2.0335152745246887, 0.2905021794140339 1.452510952949524, 1.5977619588375092 l4.212281703948975, -2.6145195960998535 1.7430131137371063, -0.14525108970701694 l0.8715065568685532, 0.4357532784342766 0.8715065568685532, 1.5977619588375092 l0.726255476474762, 3.63127738237381 3.4860262274742126, -2.905021905899048 l5.229039192199707, -0.4357532784342766 2.324017435312271, 1.7430131137371063 l0.8715065568685532, 1.5977619588375092 0.5810043588280678, 1.1620087176561356 l0.2905021794140339, 3.63127738237381 0.726255476474762, -1.1620087176561356 l1.7430131137371063, -0.726255476474762 2.6145195960998535, 0.2905021794140339 l1.3072597980499268, 1.3072597980499268 1.1620087176561356, 1.5977619588375092 l0.726255476474762, 2.324017435312271 0.14525108970701694, 3.63127738237381 l-0.726255476474762, 1.5977619588375092 -1.1620087176561356, 1.1620087176561356 l-1.8882642686367035, 0.8715065568685532 1.1620087176561356, 2.324017435312271 l-0.14525108970701694, 1.8882642686367035 -1.0167576372623444, 0.8715065568685532 l-5.519541501998901, 1.8882642686367035 -2.7597707509994507, 0.14525108970701694 l-0.8715065568685532, 2.4692685902118683 -1.0167576372623444, 0.4357532784342766 l-2.324017435312271, 0.0 -1.3072597980499268, -1.1620087176561356 m-15.832369327545166, -5.08378803730011 l-4.067030549049377, 5.955294966697693 -0.2905021794140339, 1.8882642686367035 l3.050273060798645, 0.14525108970701694 3.3407750725746155, -2.6145195960998535 m4.793286025524139, -14.379857778549194 l-0.8715065568685532, -0.2905021794140339 -0.8715065568685532, 0.726255476474762 l-0.14525108970701694, 1.0167576372623444 1.5977619588375092, 0.5810043588280678 l0.726255476474762, -0.2905021794140339 0.5810043588280678, -2.4692685902118683 l-2.4692685902118683, 0.4357532784342766 -0.14525108970701694, 0.8715065568685532 m11.329585313796997, -0.8715065568685532 l-1.452510952949524, -1.0167576372623444 -0.726255476474762, 0.2905021794140339 l-0.14525108970701694, 1.0167576372623444 " fill="none" stroke="black" stroke-width="1" /></svg>