<?xml version="1.0" encoding="utf-8" ?>
<svg baseProfile="full" height="94.2456320207566" version="1.1" width="119.66457379050553" xmlns="http://www.w3.org/2000/svg" xmlns:ev="http://www.w3.org/2001/xml-events" xmlns:xlink="http://www.w3.org/1999/xlink"><defs /><rect fill="white" height="94.2456320207566" width="119.66457379050553" x="0" y="0" /><path d="M40.44126637279987, 30.41893874295056 m4.212281703948975, -5.08378803730011 l3.1955239176750183, -6.536298990249634 1.0167576372623444, -1.1620087176561356 l2.0335152745246887, 0.2905021794140339 5.6647926568984985, 3.776528537273407 l0.8715065568685532, 0.14525108970701694 21.93291425704956, -0.4357532784342766 l7.26255476474762, 0.5810043588280678 2.324017435312271, 4.067030549049377 l2.4692685902118683, 6.391047835350037 1.452510952949524, 8.42456340789795 l-0.726255476474762, 5.08378803730011 -1.7430131137371063, 3.776528537273407 l-5.229039192199707, 6.536298990249634 -4.793286025524139, 2.178766429424286 l-5.810043811798096, 1.3072597980499268 -6.826801300048828, -0.14525108970701694 l-6.391047835350037, -2.7597707509994507 -3.4860262274742126, -1.0167576372623444 l-1.7430131137371063, -1.5977619588375092 -3.9217793941497803, -2.178766429424286 l-4.067030549049377, -7.26255476474762 -1.0167576372623444, -5.374290347099304 l-3.63127738237381, -9.150818586349487 0.2905021794140339, -2.6145195960998535 l1.8882642686367035, -4.648034870624542 m10.312827825546265, 26.435699462890625 l-8.42456340789795, -4.212281703948975 -6.826801300048828, -2.0335152745246887 l-15.396615266799927, -2.324017435312271 -3.4860262274742126, 0.14525108970701694 l-3.776528537273407, 1.1620087176561356 -8.86031687259674, 3.3407750725746155 l-2.0335152745246887, 2.4692685902118683 -1.8882642686367035, 4.067030549049377 l-0.2905021794140339, 2.324017435312271 0.726255476474762, 3.4860262274742126 l2.0335152745246887, 5.374290347099304 1.5977619588375092, 2.4692685902118683 l1.8882642686367035, 1.0167576372623444 16.8491268157959, 4.357532858848572 l15.832369327545166, 0.14525108970701694 8.279312252998352, -1.8882642686367035 l6.536298990249634, -2.4692685902118683 3.050273060798645, -2.4692685902118683 l2.0335152745246887, -3.050273060798645 0.4357532784342766, -1.7430131137371063 m-44.01108264923096, 8.569814562797546 l-1.5977619588375092, 1.0167576372623444 -4.067030549049377, 5.6647926568984985 l-3.050273060798645, 8.134061098098755 0.0, 1.452510952949524 l1.1620087176561356, 1.452510952949524 5.374290347099304, 2.324017435312271 l3.050273060798645, 0.726255476474762 6.826801300048828, 0.2905021794140339 l3.63127738237381, -0.8715065568685532 1.5977619588375092, -1.0167576372623444 l2.7597707509994507, -4.502783715724945 0.4357532784342766, -1.5977619588375092 l-0.2905021794140339, -4.938537180423737 -1.0167576372623444, -3.4860262274742126 l-1.1620087176561356, -0.726255476474762 m14.815611839294434, -3.63127738237381 l-0.8715065568685532, 3.63127738237381 -0.5810043588280678, 5.6647926568984985 l0.0, 9.150818586349487 0.8715065568685532, 1.7430131137371063 l2.905021905899048, 0.4357532784342766 3.050273060798645, -3.4860262274742126 l1.5977619588375092, -3.1955239176750183 1.1620087176561356, -4.212281703948975 l0.2905021794140339, -9.00556743144989 -1.3072597980499268, -2.0335152745246887 m-1.0167576372623444, -47.06135272979736 l2.4692685902118683, -4.067030549049377 2.905021905899048, -8.715065717697144 l0.4357532784342766, 13.653602600097656 0.5810043588280678, 4.357532858848572 m8.715065717697144, -10.312827825546265 l4.067030549049377, -6.391047835350037 0.8715065568685532, -2.178766429424286 l1.1620087176561356, 9.586572051048279 0.14525108970701694, 7.988809943199158 m-6.10054612159729, -15.977619886398315 l3.1955239176750183, 1.0167576372623444 3.63127738237381, 0.14525108970701694 l9.586572051048279, -2.6145195960998535 3.050273060798645, -1.5977619588375092 l0.14525108970701694, 7.407805919647217 1.0167576372623444, 3.050273060798645 l1.7430131137371063, 0.8715065568685532 5.6647926568984985, 1.452510952949524 l2.905021905899048, 1.452510952949524 2.6145195960998535, 1.452510952949524 l3.4860262274742126, 3.1955239176750183 0.4357532784342766, 0.8715065568685532 l0.0, 2.7597707509994507 -0.5810043588280678, 4.502783715724945 l2.6145195960998535, 3.1955239176750183 1.0167576372623444, 1.8882642686367035 l0.2905021794140339, 1.8882642686367035 0.14525108970701694, 10.458078384399414 l3.1955239176750183, 3.63127738237381 0.4357532784342766, 1.452510952949524 l-1.0167576372623444, 2.324017435312271 -4.793286025524139, 3.9217793941497803 l-3.776528537273407, 3.9217793941497803 -0.726255476474762, -0.5810043588280678 l-12.782095670700073, 0.0 -4.502783715724945, 1.1620087176561356 l-4.212281703948975, 2.4692685902118683 -4.067030549049377, -1.5977619588375092 l-5.08378803730011, 0.0 -4.212281703948975, 1.3072597980499268 l-4.067030549049377, 0.4357532784342766 -3.63127738237381, 3.4860262274742126 l-7.26255476474762, 9.441320896148682 -2.905021905899048, 2.178766429424286 l-0.14525108970701694, -3.1955239176750183 -0.5810043588280678, -1.7430131137371063 l0.0, -5.6647926568984985 -0.5810043588280678, -1.1620087176561356 l-2.324017435312271, -3.050273060798645 -4.648034870624542, -4.357532858848572 l-6.536298990249634, -5.955294966697693 -5.6647926568984985, -4.212281703948975 l-1.8882642686367035, -2.0335152745246887 -0.726255476474762, -1.7430131137371063 l-0.2905021794140339, -2.7597707509994507 0.14525108970701694, -9.731823205947876 l-0.726255476474762, -3.3407750725746155 1.3072597980499268, -1.8882642686367035 l3.3407750725746155, -3.1955239176750183 0.8715065568685532, -3.050273060798645 l2.7597707509994507, -2.0335152745246887 6.2457966804504395, -1.8882642686367035 l3.1955239176750183, 0.0 2.7597707509994507, -1.1620087176561356 l1.452510952949524, -2.324017435312271 0.14525108970701694, -4.067030549049377 l-0.4357532784342766, -0.8715065568685532 2.324017435312271, -0.14525108970701694 l4.067030549049377, 1.1620087176561356 m0.5810043588280678, 15.977619886398315 l-0.4357532784342766, 1.452510952949524 m19.6088969707489, 1.0167576372623444 l0.0, 0.0 m-10.16757607460022, 7.8435587882995605 l-0.14525108970701694, 0.726255476474762 0.5810043588280678, 1.3072597980499268 l5.08378803730011, 2.178766429424286 5.08378803730011, 1.452510952949524 l2.7597707509994507, -0.2905021794140339 1.3072597980499268, -2.324017435312271 l0.14525108970701694, -1.8882642686367035 " fill="none" stroke="black" stroke-width="1" /></svg>