<?xml version="1.0" encoding="utf-8" ?>
<svg baseProfile="full" height="76.37974916025996" version="1.1" width="102.81544719822705" xmlns="http://www.w3.org/2000/svg" xmlns:ev="http://www.w3.org/2001/xml-events" xmlns:xlink="http://www.w3.org/1999/xlink"><defs /><rect fill="white" height="76.37974916025996" width="102.81544719822705" x="0" y="0" /><path d="M47.558570289984345, 29.837935427203774 m-0.2905021794140339, 12.20109224319458 l0.8715065568685532, 0.2905021794140339 8.134061098098755, -0.2905021794140339 m-8.715065717697144, 0.2905021794140339 l4.648034870624542, 5.229039192199707 3.63127738237381, -4.793286025524139 m-4.502783715724945, 5.374290347099304 l-2.178766429424286, 2.905021905899048 -1.452510952949524, 1.0167576372623444 l-3.9217793941497803, 0.0 -1.452510952949524, -1.7430131137371063 l-0.5810043588280678, -1.1620087176561356 -0.4357532784342766, -4.648034870624542 l-6.826801300048828, -5.374290347099304 -1.0167576372623444, -1.452510952949524 l0.14525108970701694, -6.2457966804504395 1.1620087176561356, -1.5977619588375092 l2.7597707509994507, -0.8715065568685532 m15.396615266799927, 19.027893543243408 l1.1620087176561356, 1.452510952949524 3.050273060798645, 1.8882642686367035 l4.502783715724945, 0.4357532784342766 1.8882642686367035, -3.9217793941497803 l3.4860262274742126, -1.452510952949524 3.63127738237381, -4.212281703948975 l0.8715065568685532, -3.4860262274742126 0.0, -2.6145195960998535 l-0.726255476474762, -2.7597707509994507 -2.4692685902118683, -2.7597707509994507 l-2.324017435312271, -1.452510952949524 -4.357532858848572, -1.452510952949524 l1.452510952949524, 0.2905021794140339 m-35.73176860809326, -11.76533818244934 l-6.2457966804504395, 0.5810043588280678 -4.357532858848572, 1.7430131137371063 l-4.793286025524139, 2.7597707509994507 3.4860262274742126, 4.067030549049377 l2.0335152745246887, 0.726255476474762 -1.452510952949524, 1.7430131137371063 l-8.42456340789795, 6.826801300048828 -1.5977619588375092, 1.7430131137371063 l-1.0167576372623444, 2.0335152745246887 0.0, 1.0167576372623444 l2.4692685902118683, 2.7597707509994507 10.312827825546265, 4.648034870624542 l0.14525108970701694, 0.726255476474762 -2.324017435312271, 5.229039192199707 l0.0, 1.5977619588375092 0.4357532784342766, 0.726255476474762 l4.648034870624542, 2.4692685902118683 8.134061098098755, 1.7430131137371063 l-1.3072597980499268, 2.905021905899048 0.8715065568685532, 1.8882642686367035 l1.452510952949524, 0.8715065568685532 3.9217793941497803, 1.0167576372623444 l8.279312252998352, -0.4357532784342766 2.4692685902118683, 5.08378803730011 l2.178766429424286, 0.5810043588280678 6.536298990249634, 0.14525108970701694 l4.648034870624542, -1.1620087176561356 4.648034870624542, -1.5977619588375092 l7.8435587882995605, -4.067030549049377 4.502783715724945, 2.4692685902118683 l8.279312252998352, 0.726255476474762 3.1955239176750183, -0.5810043588280678 l3.9217793941497803, -1.7430131137371063 1.3072597980499268, -1.7430131137371063 l0.5810043588280678, -1.8882642686367035 0.0, -1.3072597980499268 l-1.452510952949524, -2.905021905899048 2.4692685902118683, -0.726255476474762 l2.0335152745246887, -1.452510952949524 2.0335152745246887, -3.776528537273407 l0.5810043588280678, -3.1955239176750183 -0.726255476474762, -5.374290347099304 l-2.4692685902118683, -3.3407750725746155 -3.1955239176750183, -2.178766429424286 l0.0, -11.039083003997803 -0.8715065568685532, -2.7597707509994507 l-1.5977619588375092, -1.5977619588375092 -0.4357532784342766, -4.357532858848572 l-0.726255476474762, -2.324017435312271 -1.5977619588375092, -2.324017435312271 l-23.240175247192383, -7.1173036098480225 -3.776528537273407, -0.726255476474762 l-12.636845111846924, -0.2905021794140339 -3.9217793941497803, 0.726255476474762 l-5.08378803730011, 0.0 -5.810043811798096, 0.8715065568685532 l-6.972052454948425, 1.7430131137371063 -3.1955239176750183, 1.3072597980499268 l-3.63127738237381, 2.7597707509994507 -1.7430131137371063, 3.4860262274742126 l-0.4357532784342766, 3.1955239176750183 0.0, -1.1620087176561356 m25.854694843292236, 14.815611839294434 l-1.7430131137371063, 0.2905021794140339 -0.14525108970701694, 0.726255476474762 l5.519541501998901, -1.3072597980499268 -0.2905021794140339, -0.726255476474762 l-3.050273060798645, 0.14525108970701694 -0.8715065568685532, 0.4357532784342766 l-0.2905021794140339, 0.726255476474762 1.3072597980499268, 0.5810043588280678 l2.324017435312271, -0.14525108970701694 0.8715065568685532, -0.4357532784342766 l-0.726255476474762, -0.4357532784342766 -2.178766429424286, -0.14525108970701694 m17.575381994247437, 0.2905021794140339 l-2.6145195960998535, 0.2905021794140339 0.2905021794140339, 0.726255476474762 l1.3072597980499268, 0.0 1.7430131137371063, -0.5810043588280678 l-1.3072597980499268, -0.2905021794140339 -6.2457966804504395, 0.2905021794140339 l1.0167576372623444, 0.8715065568685532 6.10054612159729, -0.14525108970701694 l3.776528537273407, -1.452510952949524 -0.726255476474762, -0.726255476474762 l-6.536298990249634, -0.5810043588280678 " fill="none" stroke="black" stroke-width="1" /></svg>