<?xml version="1.0" encoding="utf-8" ?>
<svg baseProfile="full" height="64.3239083699882" version="1.1" width="71.00545859895647" xmlns="http://www.w3.org/2000/svg" xmlns:ev="http://www.w3.org/2001/xml-events" xmlns:xlink="http://www.w3.org/1999/xlink"><defs /><rect fill="white" height="64.3239083699882" width="71.00545859895647" x="0" y="0" /><path d="M11.391048058867455, 43.05578627623618 m-3.4860262274742126, -3.4860262274742126 l-1.1620087176561356, -2.0335152745246887 -1.7430131137371063, -7.1173036098480225 l0.2905021794140339, -5.229039192199707 0.8715065568685532, -2.4692685902118683 l1.8882642686367035, -2.324017435312271 4.212281703948975, -4.648034870624542 l3.776528537273407, -2.905021905899048 4.938537180423737, -2.905021905899048 l1.7430131137371063, 0.14525108970701694 1.0167576372623444, 1.5977619588375092 l0.0, 1.452510952949524 3.4860262274742126, -3.776528537273407 l3.776528537273407, -2.7597707509994507 4.502783715724945, -1.3072597980499268 l6.826801300048828, -0.2905021794140339 3.1955239176750183, 0.4357532784342766 l4.067030549049377, 1.7430131137371063 2.324017435312271, 2.324017435312271 l0.14525108970701694, 1.452510952949524 4.793286025524139, -1.7430131137371063 l3.3407750725746155, 0.14525108970701694 2.6145195960998535, 1.5977619588375092 l2.6145195960998535, 3.1955239176750183 0.5810043588280678, 3.3407750725746155 l-0.4357532784342766, 2.324017435312271 -1.452510952949524, 3.1955239176750183 l0.0, 2.178766429424286 0.726255476474762, 0.2905021794140339 l-0.2905021794140339, 2.178766429424286 -4.648034870624542, 7.407805919647217 l-0.4357532784342766, 1.5977619588375092 1.7430131137371063, 2.324017435312271 l0.0, 1.452510952949524 -0.4357532784342766, 1.1620087176561356 l-2.6145195960998535, 3.3407750725746155 -2.4692685902118683, 2.4692685902118683 l-2.178766429424286, 1.452510952949524 -3.1955239176750183, 1.5977619588375092 l-5.955294966697693, 1.7430131137371063 -8.42456340789795, 1.5977619588375092 l-6.536298990249634, 0.5810043588280678 -4.502783715724945, -0.14525108970701694 l-3.776528537273407, -1.0167576372623444 1.5977619588375092, 3.050273060798645 l0.14525108970701694, 2.4692685902118683 -1.8882642686367035, 0.5810043588280678 l-2.4692685902118683, 0.0 -3.3407750725746155, -1.0167576372623444 l-2.7597707509994507, -1.5977619588375092 -2.324017435312271, -2.0335152745246887 l-0.8715065568685532, -1.8882642686367035 0.4357532784342766, -2.905021905899048 l3.776528537273407, -7.407805919647217 0.726255476474762, -2.324017435312271 m14.670360088348389, -17.284879684448242 l-0.4357532784342766, 0.8715065568685532 m-1.8882642686367035, 3.9217793941497803 l-0.726255476474762, 3.4860262274742126 0.0, 3.63127738237381 l1.1620087176561356, 3.63127738237381 1.5977619588375092, 1.8882642686367035 l4.502783715724945, 3.63127738237381 3.63127738237381, 0.8715065568685532 l7.407805919647217, -1.0167576372623444 7.1173036098480225, -3.1955239176750183 l0.726255476474762, -0.726255476474762 2.6145195960998535, -6.10054612159729 l1.3072597980499268, -4.793286025524139 0.14525108970701694, -8.715065717697144 l-0.726255476474762, -2.4692685902118683 -2.4692685902118683, -3.1955239176750183 l-2.905021905899048, -2.178766429424286 -2.6145195960998535, -1.3072597980499268 l-6.2457966804504395, -0.4357532784342766 -2.7597707509994507, 0.5810043588280678 l-5.08378803730011, 2.7597707509994507 -4.502783715724945, 1.7430131137371063 l-1.0167576372623444, 2.0335152745246887 m10.603330135345459, 12.20109224319458 l7.1173036098480225, -0.8715065568685532 0.2905021794140339, 0.726255476474762 l-1.3072597980499268, 1.7430131137371063 -0.8715065568685532, 2.324017435312271 l-0.726255476474762, 0.14525108970701694 -0.5810043588280678, -0.726255476474762 " fill="none" stroke="black" stroke-width="1" /></svg>