<?xml version="1.0" encoding="utf-8" ?>
<svg baseProfile="full" height="65.05016416311264" version="1.1" width="55.027838898822665" xmlns="http://www.w3.org/2000/svg" xmlns:ev="http://www.w3.org/2001/xml-events" xmlns:xlink="http://www.w3.org/1999/xlink"><defs /><rect fill="white" height="65.05016416311264" width="55.027838898822665" x="0" y="0" /><path d="M44.363046204671264, 25.33515308983624 m1.452510952949524, -2.905021905899048 l2.0335152745246887, -1.5977619588375092 0.14525108970701694, -0.726255476474762 l0.0, -2.324017435312271 -0.5810043588280678, -1.452510952949524 l-0.8715065568685532, -0.2905021794140339 -1.5977619588375092, -3.050273060798645 l-0.8715065568685532, -0.4357532784342766 -3.776528537273407, 0.726255476474762 l-0.726255476474762, -0.2905021794140339 -0.726255476474762, -0.4357532784342766 l-2.324017435312271, -4.357532858848572 -0.8715065568685532, -0.14525108970701694 l-1.5977619588375092, 1.8882642686367035 -2.6145195960998535, -3.63127738237381 l-2.6145195960998535, -1.3072597980499268 -1.5977619588375092, 0.0 l-2.7597707509994507, 2.6145195960998535 -1.7430131137371063, -2.0335152745246887 l-1.452510952949524, -0.14525108970701694 -3.050273060798645, 2.0335152745246887 l-2.178766429424286, 0.4357532784342766 -6.10054612159729, 8.569814562797546 l-0.726255476474762, 0.2905021794140339 -0.5810043588280678, -0.726255476474762 l-0.726255476474762, 0.0 -1.5977619588375092, 1.0167576372623444 l-1.3072597980499268, 3.050273060798645 0.0, 2.4692685902118683 l1.0167576372623444, 2.178766429424286 0.4357532784342766, 3.776528537273407 l0.726255476474762, 2.178766429424286 2.7597707509994507, 4.793286025524139 l-0.14525108970701694, 5.6647926568984985 1.8882642686367035, 3.1955239176750183 l2.324017435312271, 0.726255476474762 2.4692685902118683, -0.2905021794140339 l-2.0335152745246887, 2.7597707509994507 -0.5810043588280678, 2.6145195960998535 l1.3072597980499268, 1.0167576372623444 3.050273060798645, 0.2905021794140339 l0.2905021794140339, 3.3407750725746155 1.5977619588375092, 1.452510952949524 l3.63127738237381, 1.0167576372623444 2.905021905899048, 0.0 l1.1620087176561356, 2.324017435312271 1.0167576372623444, 0.2905021794140339 l3.63127738237381, 0.14525108970701694 2.324017435312271, -0.5810043588280678 l2.324017435312271, 0.4357532784342766 0.2905021794140339, -1.452510952949524 l1.452510952949524, -1.452510952949524 5.6647926568984985, -2.324017435312271 l5.519541501998901, -1.0167576372623444 -1.452510952949524, 0.2905021794140339 l-0.5810043588280678, -3.050273060798645 0.4357532784342766, -7.407805919647217 l-0.2905021794140339, -4.357532858848572 -3.776528537273407, -11.329585313796997 l1.0167576372623444, -1.5977619588375092 0.14525108970701694, -1.452510952949524 l-1.8882642686367035, -1.1620087176561356 -2.4692685902118683, -0.4357532784342766 m-15.541867017745972, -2.0335152745246887 l-3.050273060798645, 0.14525108970701694 -2.4692685902118683, 1.1620087176561356 l-1.3072597980499268, 1.452510952949524 -1.0167576372623444, 2.4692685902118683 l-0.14525108970701694, 6.536298990249634 1.0167576372623444, 3.3407750725746155 l1.7430131137371063, 2.324017435312271 4.648034870624542, 3.63127738237381 l3.3407750725746155, 1.5977619588375092 4.648034870624542, 0.0 l1.5977619588375092, -1.1620087176561356 2.4692685902118683, -3.9217793941497803 l0.5810043588280678, -2.178766429424286 0.14525108970701694, -4.067030549049377 l-5.955294966697693, -12.34634280204773 -0.726255476474762, -1.1620087176561356 l-1.7430131137371063, -1.0167576372623444 -2.4692685902118683, -0.14525108970701694 l-2.0335152745246887, 0.8715065568685532 m-4.212281703948975, 9.441320896148682 l1.7430131137371063, -0.4357532784342766 m8.134061098098755, -2.7597707509994507 l0.0, 0.0 " fill="none" stroke="black" stroke-width="1" /></svg>