<?xml version="1.0" encoding="utf-8" ?>
<svg baseProfile="full" height="58.223362574353814" version="1.1" width="59.96637603268027" xmlns="http://www.w3.org/2000/svg" xmlns:ev="http://www.w3.org/2001/xml-events" xmlns:xlink="http://www.w3.org/1999/xlink"><defs /><rect fill="white" height="58.223362574353814" width="59.96637603268027" x="0" y="0" /><path d="M9.357532728463411, 42.47478169389069 m-0.726255476474762, -0.14525108970701694 l-0.4357532784342766, -2.0335152745246887 0.4357532784342766, -7.8435587882995605 l-2.0335152745246887, -0.726255476474762 -1.3072597980499268, -1.8882642686367035 l-0.2905021794140339, -1.3072597980499268 0.0, -2.905021905899048 l2.324017435312271, -4.212281703948975 0.0, -1.0167576372623444 l-1.5977619588375092, -1.3072597980499268 -0.726255476474762, -1.3072597980499268 l0.0, -1.452510952949524 2.905021905899048, -4.212281703948975 l2.6145195960998535, -2.4692685902118683 1.8882642686367035, -0.2905021794140339 l1.8882642686367035, 0.4357532784342766 1.5977619588375092, -0.4357532784342766 l6.10054612159729, -4.067030549049377 2.7597707509994507, -0.2905021794140339 l3.9217793941497803, 2.905021905899048 1.1620087176561356, 0.2905021794140339 l3.9217793941497803, -0.5810043588280678 4.067030549049377, -1.452510952949524 l3.050273060798645, -0.14525108970701694 1.1620087176561356, 0.2905021794140339 l0.5810043588280678, 1.0167576372623444 0.2905021794140339, 5.519541501998901 l0.8715065568685532, 2.0335152745246887 4.357532858848572, 2.4692685902118683 l1.8882642686367035, 1.5977619588375092 1.1620087176561356, 2.0335152745246887 l1.5977619588375092, 4.648034870624542 1.452510952949524, 4.793286025524139 l0.726255476474762, 8.569814562797546 -0.14525108970701694, 3.4860262274742126 l-1.8882642686367035, 2.7597707509994507 -4.648034870624542, 3.1955239176750183 l-4.648034870624542, 2.4692685902118683 -3.050273060798645, 0.2905021794140339 l-1.5977619588375092, -1.5977619588375092 -1.1620087176561356, 0.0 l-5.6647926568984985, 2.4692685902118683 -4.067030549049377, 1.1620087176561356 l-6.681550145149231, 0.0 -0.8715065568685532, -0.5810043588280678 l-1.3072597980499268, -3.1955239176750183 -8.134061098098755, -0.14525108970701694 l-2.178766429424286, -0.726255476474762 -1.5977619588375092, -1.8882642686367035 l0.0, -1.452510952949524 1.0167576372623444, -1.7430131137371063 m4.938537180423737, -18.59213948249817 l-0.8715065568685532, 0.0 -0.726255476474762, -0.726255476474762 l-0.8715065568685532, -2.324017435312271 0.0, -2.7597707509994507 l0.8715065568685532, -1.7430131137371063 1.5977619588375092, -1.0167576372623444 l3.3407750725746155, -0.14525108970701694 1.452510952949524, 0.8715065568685532 l1.7430131137371063, 2.0335152745246887 m10.748580694198608, 0.0 l-0.14525108970701694, -0.8715065568685532 2.4692685902118683, -2.324017435312271 l3.776528537273407, -1.1620087176561356 3.63127738237381, 0.0 l1.452510952949524, 1.7430131137371063 0.2905021794140339, 1.0167576372623444 l0.2905021794140339, 4.357532858848572 m-21.206660270690918, 10.16757607460022 l-0.4357532784342766, 0.8715065568685532 0.14525108970701694, 6.536298990249634 l2.178766429424286, 3.1955239176750183 4.212281703948975, 2.4692685902118683 l6.681550145149231, 0.2905021794140339 3.63127738237381, -1.5977619588375092 l1.452510952949524, -0.8715065568685532 4.357532858848572, -7.1173036098480225 l0.4357532784342766, -5.08378803730011 -1.7430131137371063, -3.050273060798645 l-3.9217793941497803, -2.178766429424286 -4.502783715724945, -0.726255476474762 l-5.08378803730011, 0.0 -3.1955239176750183, 1.452510952949524 l-2.0335152745246887, 1.5977619588375092 -1.5977619588375092, 2.0335152745246887 l-1.452510952949524, 4.357532858848572 m5.374290347099304, -2.6145195960998535 l0.14525108970701694, 0.5810043588280678 m8.86031687259674, -2.6145195960998535 l-0.14525108970701694, 2.324017435312271 -0.4357532784342766, -0.8715065568685532 l0.726255476474762, -0.4357532784342766 -0.14525108970701694, 0.8715065568685532 m-4.502783715724945, 6.391047835350037 l3.63127738237381, -1.0167576372623444 0.2905021794140339, 1.1620087176561356 l-0.5810043588280678, 1.7430131137371063 -3.3407750725746155, -1.8882642686367035 m-0.14525108970701694, 3.4860262274742126 l-0.14525108970701694, 0.726255476474762 1.8882642686367035, 0.14525108970701694 l2.4692685902118683, -2.905021905899048 2.4692685902118683, 0.0 l2.178766429424286, -1.8882642686367035 " fill="none" stroke="black" stroke-width="1" /></svg>