<?xml version="1.0" encoding="utf-8" ?>
<svg baseProfile="full" height="90.61435629613698" version="1.1" width="129.39639668911695" xmlns="http://www.w3.org/2000/svg" xmlns:ev="http://www.w3.org/2001/xml-events" xmlns:xlink="http://www.w3.org/1999/xlink"><defs /><rect fill="white" height="90.61435629613698" width="129.39639668911695" x="0" y="0" /><path d="M52.2066062130034, 17.782095344737172 m-15.832369327545166, -0.14525108970701694 l-1.3072597980499268, 0.14525108970701694 -2.905021905899048, 1.8882642686367035 l-2.178766429424286, 3.1955239176750183 -2.0335152745246887, 4.357532858848572 l-0.2905021794140339, 12.20109224319458 0.5810043588280678, 3.3407750725746155 l3.9217793941497803, 8.569814562797546 2.0335152745246887, 2.6145195960998535 l2.0335152745246887, 3.776528537273407 3.050273060798645, 3.776528537273407 l3.3407750725746155, 2.7597707509994507 4.938537180423737, 2.4692685902118683 l6.2457966804504395, 1.7430131137371063 3.4860262274742126, 0.4357532784342766 l8.134061098098755, -0.726255476474762 4.212281703948975, -1.8882642686367035 l3.9217793941497803, -3.9217793941497803 4.067030549049377, -5.519541501998901 l3.4860262274742126, -7.8435587882995605 0.726255476474762, -2.905021905899048 l0.0, -13.217849731445312 -0.8715065568685532, -3.9217793941497803 l-2.905021905899048, -4.067030549049377 -4.357532858848572, -2.6145195960998535 l-2.7597707509994507, -1.0167576372623444 -6.10054612159729, -0.726255476474762 l-16.558624505996704, 0.0 m16.994377374649048, -2.6145195960998535 l4.067030549049377, -0.14525108970701694 7.407805919647217, -1.3072597980499268 l8.86031687259674, -0.14525108970701694 -1.452510952949524, 0.0 l-1.1620087176561356, 0.726255476474762 9.441320896148682, -0.5810043588280678 l15.687117576599121, 0.0 0.4357532784342766, 1.1620087176561356 l-2.324017435312271, 5.519541501998901 -3.776528537273407, 5.6647926568984985 l1.1620087176561356, 0.2905021794140339 11.039083003997803, -1.5977619588375092 l-0.8715065568685532, 3.776528537273407 -4.648034870624542, 6.972052454948425 l-5.6647926568984985, 6.826801300048828 9.150818586349487, -3.776528537273407 l10.16757607460022, -1.8882642686367035 1.1620087176561356, 0.0 l0.4357532784342766, 1.0167576372623444 -3.050273060798645, 8.569814562797546 l-2.4692685902118683, 4.067030549049377 -5.229039192199707, 6.681550145149231 l-6.826801300048828, 6.391047835350037 5.810043811798096, -1.7430131137371063 l0.0, 0.8715065568685532 -9.441320896148682, 8.134061098098755 l-5.6647926568984985, 3.776528537273407 -19.6088969707489, 8.42456340789795 l-2.4692685902118683, 0.0 -1.0167576372623444, -0.726255476474762 l0.0, -8.279312252998352 -1.3072597980499268, 0.4357532784342766 l-3.4860262274742126, 3.63127738237381 -6.2457966804504395, 4.212281703948975 l-4.067030549049377, 0.14525108970701694 -3.63127738237381, -1.7430131137371063 l-5.08378803730011, -4.793286025524139 -0.8715065568685532, -0.2905021794140339 l-1.8882642686367035, 0.5810043588280678 -3.9217793941497803, 2.7597707509994507 l-0.8715065568685532, -0.14525108970701694 -2.178766429424286, -3.3407750725746155 l-1.3072597980499268, -3.776528537273407 -9.150818586349487, -0.14525108970701694 l-9.877074360847473, -1.3072597980499268 -0.5810043588280678, -1.3072597980499268 l0.0, -2.4692685902118683 1.3072597980499268, -2.905021905899048 l0.8715065568685532, -0.2905021794140339 -10.312827825546265, -1.0167576372623444 l0.2905021794140339, -2.6145195960998535 2.324017435312271, -5.519541501998901 l-9.150818586349487, -0.2905021794140339 -0.2905021794140339, -0.726255476474762 l13.363100290298462, -8.715065717697144 -6.536298990249634, 0.0 l-0.4357532784342766, -0.8715065568685532 0.14525108970701694, -2.4692685902118683 l1.1620087176561356, -1.0167576372623444 6.536298990249634, -3.1955239176750183 l-3.9217793941497803, -0.2905021794140339 -1.0167576372623444, -1.0167576372623444 l0.2905021794140339, -3.4860262274742126 2.0335152745246887, -1.8882642686367035 l5.6647926568984985, -2.178766429424286 -6.391047835350037, -0.2905021794140339 l-1.0167576372623444, -0.8715065568685532 -0.2905021794140339, -1.5977619588375092 l0.4357532784342766, -1.3072597980499268 1.3072597980499268, -1.452510952949524 l7.988809943199158, -5.6647926568984985 3.1955239176750183, -3.63127738237381 m0.0, 0.0 l-4.502783715724945, -0.14525108970701694 0.726255476474762, -1.8882642686367035 l4.357532858848572, -4.502783715724945 1.0167576372623444, -0.2905021794140339 l0.14525108970701694, 1.0167576372623444 1.452510952949524, 1.5977619588375092 l2.0335152745246887, 0.14525108970701694 14.670360088348389, -6.681550145149231 l1.3072597980499268, 2.6145195960998535 0.726255476474762, 0.2905021794140339 l3.1955239176750183, -1.452510952949524 1.0167576372623444, 1.5977619588375092 l8.279312252998352, -2.7597707509994507 1.8882642686367035, 4.793286025524139 l0.2905021794140339, 4.793286025524139 0.726255476474762, -0.726255476474762 l0.2905021794140339, 2.4692685902118683 " fill="none" stroke="black" stroke-width="1" /></svg>