<?xml version="1.0" encoding="utf-8" ?>
<svg baseProfile="full" height="66.06692117638886" version="1.1" width="65.48591709695756" xmlns="http://www.w3.org/2000/svg" xmlns:ev="http://www.w3.org/2001/xml-events" xmlns:xlink="http://www.w3.org/1999/xlink"><defs /><rect fill="white" height="66.06692117638886" width="65.48591709695756" x="0" y="0" /><path d="M31.435697777196765, 37.97199902124703 m-2.178766429424286, -2.0335152745246887 l-0.5810043588280678, -3.63127738237381 4.793286025524139, 0.0 l3.050273060798645, 0.726255476474762 0.4357532784342766, 1.452510952949524 l-1.3072597980499268, 2.178766429424286 -2.905021905899048, 1.0167576372623444 l-0.4357532784342766, 0.8715065568685532 0.4357532784342766, 8.42456340789795 l-1.3072597980499268, 1.452510952949524 -2.178766429424286, 0.5810043588280678 m3.63127738237381, -1.8882642686367035 l2.905021905899048, 2.6145195960998535 0.726255476474762, 0.2905021794140339 l0.4357532784342766, -1.0167576372623444 m-12.636845111846924, 2.324017435312271 l-2.6145195960998535, -3.63127738237381 -0.8715065568685532, -4.212281703948975 l-2.324017435312271, -6.10054612159729 -3.9217793941497803, -7.1173036098480225 l-0.2905021794140339, -5.519541501998901 0.4357532784342766, -1.5977619588375092 l2.905021905899048, -3.9217793941497803 2.905021905899048, -1.8882642686367035 l6.536298990249634, -1.7430131137371063 11.329585313796997, 0.4357532784342766 l3.776528537273407, 1.5977619588375092 4.793286025524139, 3.4860262274742126 l0.726255476474762, 0.5810043588280678 1.0167576372623444, 2.324017435312271 l0.8715065568685532, 15.977619886398315 -1.0167576372623444, 3.1955239176750183 l-4.648034870624542, 6.681550145149231 -3.1955239176750183, 2.4692685902118683 l-7.26255476474762, 0.8715065568685532 -7.26255476474762, 0.0 l-1.8882642686367035, -1.452510952949524 -0.2905021794140339, -1.3072597980499268 m-11.474835872650146, -29.631223678588867 l-0.726255476474762, 2.4692685902118683 0.2905021794140339, -2.7597707509994507 l1.8882642686367035, -1.3072597980499268 2.4692685902118683, -0.2905021794140339 l-3.3407750725746155, 0.5810043588280678 -4.502783715724945, 1.8882642686367035 l0.14525108970701694, 0.8715065568685532 2.0335152745246887, 0.4357532784342766 l-3.4860262274742126, 1.7430131137371063 -0.5810043588280678, 0.726255476474762 l0.726255476474762, 0.4357532784342766 0.2905021794140339, 0.8715065568685532 l-1.7430131137371063, 2.4692685902118683 -1.0167576372623444, 2.7597707509994507 l1.7430131137371063, 1.452510952949524 0.2905021794140339, 3.3407750725746155 l2.178766429424286, 1.5977619588375092 -0.5810043588280678, 3.63127738237381 l2.178766429424286, 2.7597707509994507 0.0, 4.938537180423737 l1.5977619588375092, 1.452510952949524 1.8882642686367035, 0.726255476474762 l0.5810043588280678, 1.8882642686367035 1.452510952949524, 1.7430131137371063 l7.26255476474762, 0.0 2.324017435312271, 2.4692685902118683 l6.681550145149231, 2.324017435312271 10.748580694198608, 1.0167576372623444 l1.3072597980499268, -0.2905021794140339 0.8715065568685532, -1.1620087176561356 l1.0167576372623444, -4.067030549049377 1.3072597980499268, -1.452510952949524 l5.519541501998901, -0.14525108970701694 2.7597707509994507, -2.178766429424286 l0.5810043588280678, -2.6145195960998535 -0.726255476474762, -4.938537180423737 l3.3407750725746155, -1.7430131137371063 1.0167576372623444, -1.7430131137371063 l0.14525108970701694, -3.63127738237381 -2.324017435312271, -3.3407750725746155 l-0.2905021794140339, -1.1620087176561356 0.0, -7.698307633399963 l-1.452510952949524, -5.08378803730011 -1.5977619588375092, -3.4860262274742126 l-6.391047835350037, -5.374290347099304 0.0, -3.050273060798645 l-1.0167576372623444, -1.3072597980499268 -2.7597707509994507, -1.3072597980499268 l-3.63127738237381, -0.2905021794140339 -10.312827825546265, 3.1955239176750183 l-7.988809943199158, 0.2905021794140339 -9.296069741249084, 4.357532858848572 l-0.2905021794140339, 3.1955239176750183 0.726255476474762, 1.7430131137371063 m1.3072597980499268, 0.0 l-4.212281703948975, -7.26255476474762 -0.14525108970701694, -3.4860262274742126 l7.698307633399963, 3.9217793941497803 1.0167576372623444, 0.726255476474762 l1.1620087176561356, 2.178766429424286 m21.497161388397217, 0.2905021794140339 l1.452510952949524, -1.8882642686367035 2.0335152745246887, -1.0167576372623444 l6.972052454948425, -1.452510952949524 0.726255476474762, 0.0 l0.0, 1.1620087176561356 " fill="none" stroke="black" stroke-width="1" /></svg>