<?xml version="1.0" encoding="utf-8" ?>
<svg baseProfile="full" height="121.69808820821345" version="1.1" width="121.40758988447487" xmlns="http://www.w3.org/2000/svg" xmlns:ev="http://www.w3.org/2001/xml-events" xmlns:xlink="http://www.w3.org/1999/xlink"><defs /><rect fill="white" height="121.69808820821345" width="121.40758988447487" x="0" y="0" /><path d="M34.195469468832016, 36.37423484586179 m-1.5977619588375092, 0.4357532784342766 l-7.407805919647217, -4.938537180423737 -7.1173036098480225, -3.3407750725746155 l-7.698307633399963, -2.7597707509994507 -4.648034870624542, -0.5810043588280678 l-0.726255476474762, 1.0167576372623444 0.5810043588280678, 2.178766429424286 l3.9217793941497803, 3.050273060798645 5.519541501998901, 3.3407750725746155 l13.072597980499268, 6.972052454948425 9.731823205947876, 4.212281703948975 l-0.8715065568685532, 0.2905021794140339 -8.42456340789795, -6.536298990249634 l-6.2457966804504395, -4.067030549049377 -6.536298990249634, -3.4860262274742126 l-2.0335152745246887, -2.0335152745246887 -5.374290347099304, -3.050273060798645 m67.68701076507568, 18.156386613845825 l0.8715065568685532, -1.5977619588375092 0.5810043588280678, -3.3407750725746155 l-1.452510952949524, -4.502783715724945 -2.6145195960998535, -2.7597707509994507 l-3.63127738237381, -2.7597707509994507 -4.502783715724945, -2.178766429424286 l-4.938537180423737, -1.5977619588375092 -5.08378803730011, -0.726255476474762 l-4.648034870624542, 0.0 -3.63127738237381, 0.8715065568685532 l-2.178766429424286, 1.8882642686367035 -2.4692685902118683, 5.229039192199707 l-0.5810043588280678, 2.7597707509994507 0.14525108970701694, 5.519541501998901 l0.726255476474762, 1.0167576372623444 5.374290347099304, 2.4692685902118683 l5.519541501998901, 1.7430131137371063 7.698307633399963, 1.5977619588375092 l2.0335152745246887, -0.5810043588280678 3.9217793941497803, -3.776528537273407 l2.6145195960998535, -3.63127738237381 1.8882642686367035, -4.212281703948975 l0.726255476474762, -2.4692685902118683 -0.4357532784342766, -4.502783715724945 l-1.8882642686367035, -2.4692685902118683 -5.955294966697693, -3.050273060798645 l-4.357532858848572, -0.5810043588280678 m51.70938968658447, 89.18416976928711 l0.4357532784342766, 1.3072597980499268 0.726255476474762, 0.0 l0.8715065568685532, 0.8715065568685532 0.2905021794140339, 1.7430131137371063 m0.8715065568685532, -79.59759712219238 l-0.2905021794140339, -0.8715065568685532 2.0335152745246887, -2.905021905899048 m-65.94399452209473, -16.994377374649048 l1.452510952949524, -3.4860262274742126 0.726255476474762, -4.067030549049377 l-0.4357532784342766, -2.905021905899048 -0.5810043588280678, -0.726255476474762 l-1.1620087176561356, -0.14525108970701694 -1.1620087176561356, 0.5810043588280678 l1.3072597980499268, -0.4357532784342766 6.2457966804504395, 5.519541501998901 l3.63127738237381, 7.8435587882995605 3.63127738237381, 6.2457966804504395 l0.8715065568685532, 0.2905021794140339 0.4357532784342766, -0.2905021794140339 " fill="none" stroke="black" stroke-width="1" /></svg>