<?xml version="1.0" encoding="utf-8" ?>
<svg baseProfile="full" height="77.10600509308279" version="1.1" width="87.27358104661107" xmlns="http://www.w3.org/2000/svg" xmlns:ev="http://www.w3.org/2001/xml-events" xmlns:xlink="http://www.w3.org/1999/xlink"><defs /><rect fill="white" height="77.10600509308279" width="87.27358104661107" x="0" y="0" /><path d="M47.12281685322523, 31.58094896003604 m-3.3407750725746155, -2.178766429424286 l-2.324017435312271, -0.5810043588280678 -3.776528537273407, 0.0 l-1.8882642686367035, 0.5810043588280678 -2.7597707509994507, 2.4692685902118683 l-1.1620087176561356, 2.178766429424286 -1.3072597980499268, 2.905021905899048 l-0.8715065568685532, 4.212281703948975 11.910589933395386, 10.748580694198608 l3.63127738237381, 0.5810043588280678 4.357532858848572, 0.0 l3.1955239176750183, -1.1620087176561356 0.726255476474762, -0.5810043588280678 l1.452510952949524, -2.7597707509994507 1.452510952949524, -7.698307633399963 l-2.905021905899048, -4.067030549049377 -1.8882642686367035, -1.5977619588375092 l-6.2457966804504395, -2.0335152745246887 m-5.08378803730011, 12.927347421646118 l2.7597707509994507, 0.0 4.502783715724945, 1.3072597980499268 l-0.4357532784342766, 0.726255476474762 -0.8715065568685532, 0.14525108970701694 l-1.452510952949524, 0.0 -4.502783715724945, -1.452510952949524 l-0.2905021794140339, -0.726255476474762 m0.2905021794140339, -8.715065717697144 l0.0, 0.0 m-2.0335152745246887, -0.14525108970701694 l-0.726255476474762, -0.2905021794140339 1.452510952949524, 0.0 m3.9217793941497803, 0.2905021794140339 l0.2905021794140339, 0.0 m-10.748580694198608, -6.2457966804504395 l-0.8715065568685532, -8.569814562797546 0.4357532784342766, -2.178766429424286 l1.8882642686367035, -3.1955239176750183 1.8882642686367035, -1.452510952949524 l6.391047835350037, 0.14525108970701694 0.5810043588280678, 1.0167576372623444 l0.5810043588280678, 2.178766429424286 0.0, 2.324017435312271 l-3.050273060798645, 7.26255476474762 2.6145195960998535, -8.279312252998352 l1.5977619588375092, -3.3407750725746155 2.7597707509994507, -3.63127738237381 l0.8715065568685532, -0.14525108970701694 1.7430131137371063, 0.2905021794140339 l0.726255476474762, 0.5810043588280678 0.8715065568685532, 1.1620087176561356 l0.14525108970701694, 1.1620087176561356 -2.4692685902118683, 6.2457966804504395 l-2.905021905899048, 4.212281703948975 -2.178766429424286, 2.324017435312271 m-16.994377374649048, -12.782095670700073 l0.14525108970701694, -1.3072597980499268 2.905021905899048, -3.1955239176750183 l4.502783715724945, -2.4692685902118683 5.08378803730011, -1.5977619588375092 l3.9217793941497803, -0.4357532784342766 6.2457966804504395, -1.7430131137371063 l9.877074360847473, 1.1620087176561356 -2.4692685902118683, 5.519541501998901 l4.212281703948975, 1.5977619588375092 1.452510952949524, 1.5977619588375092 l1.7430131137371063, 3.050273060798645 0.2905021794140339, 1.452510952949524 l0.0, 1.1620087176561356 -2.178766429424286, 6.826801300048828 l14.379857778549194, 0.5810043588280678 4.212281703948975, 1.1620087176561356 l0.8715065568685532, 1.5977619588375092 0.0, 1.452510952949524 l-0.8715065568685532, 2.0335152745246887 -4.938537180423737, 5.810043811798096 l-6.391047835350037, 6.10054612159729 1.3072597980499268, 0.2905021794140339 l-3.776528537273407, 6.972052454948425 -1.7430131137371063, 0.8715065568685532 l3.4860262274742126, 0.14525108970701694 -2.178766429424286, 1.7430131137371063 l-1.5977619588375092, 2.7597707509994507 -7.698307633399963, 7.1173036098480225 l-6.10054612159729, 3.776528537273407 -6.2457966804504395, 2.324017435312271 l-1.5977619588375092, 0.0 1.0167576372623444, -0.8715065568685532 l7.407805919647217, -1.5977619588375092 -4.938537180423737, 1.452510952949524 l-14.815611839294434, 0.2905021794140339 -3.050273060798645, -11.474835872650146 l-2.324017435312271, -3.776528537273407 -0.8715065568685532, -0.726255476474762 l-1.7430131137371063, -0.4357532784342766 -8.569814562797546, 0.0 l-5.08378803730011, -1.1620087176561356 -3.050273060798645, -2.6145195960998535 l-1.0167576372623444, -1.5977619588375092 -1.5977619588375092, -5.519541501998901 l-0.2905021794140339, -5.6647926568984985 2.324017435312271, -6.10054612159729 l-0.726255476474762, 0.0 3.4860262274742126, -1.1620087176561356 l13.072597980499268, -1.8882642686367035 0.14525108970701694, -5.6647926568984985 l-0.5810043588280678, -2.7597707509994507 -2.4692685902118683, -2.324017435312271 l-3.050273060798645, -0.8715065568685532 0.8715065568685532, -4.502783715724945 l3.3407750725746155, -2.4692685902118683 5.229039192199707, -2.178766429424286 l-3.63127738237381, 3.050273060798645 -0.726255476474762, 1.8882642686367035 l0.726255476474762, 0.0 " fill="none" stroke="black" stroke-width="1" /></svg>