<?xml version="1.0" encoding="utf-8" ?>
<svg baseProfile="full" height="81.17303538136184" version="1.1" width="81.31828767247498" xmlns="http://www.w3.org/2000/svg" xmlns:ev="http://www.w3.org/2001/xml-events" xmlns:xlink="http://www.w3.org/1999/xlink"><defs /><rect fill="white" height="81.17303538136184" width="81.31828767247498" x="0" y="0" /><path d="M18.07259821332991, 60.77641962096095 m-2.0335152745246887, -0.4357532784342766 l-2.4692685902118683, -2.7597707509994507 -5.229039192199707, -3.9217793941497803 l-1.8882642686367035, -2.7597707509994507 -1.3072597980499268, -4.648034870624542 l-0.14525108970701694, -8.86031687259674 0.5810043588280678, -2.7597707509994507 l1.8882642686367035, -4.502783715724945 2.905021905899048, -3.9217793941497803 l4.502783715724945, -3.1955239176750183 5.955294966697693, -2.178766429424286 l10.893832445144653, -1.452510952949524 8.279312252998352, 0.0 l4.067030549049377, 0.726255476474762 3.050273060798645, 1.5977619588375092 l1.452510952949524, 3.3407750725746155 -0.726255476474762, -0.2905021794140339 l-0.4357532784342766, -1.8882642686367035 0.14525108970701694, -5.955294966697693 l1.3072597980499268, -2.905021905899048 2.0335152745246887, -2.905021905899048 l2.4692685902118683, -2.0335152745246887 3.4860262274742126, -2.0335152745246887 l7.407805919647217, -2.0335152745246887 5.6647926568984985, 0.0 l2.178766429424286, 0.8715065568685532 1.7430131137371063, 1.7430131137371063 l1.0167576372623444, 2.324017435312271 0.4357532784342766, 3.1955239176750183 l-0.14525108970701694, 7.553057074546814 -1.5977619588375092, 6.536298990249634 l-5.08378803730011, 10.458078384399414 0.14525108970701694, -1.3072597980499268 l1.452510952949524, -1.7430131137371063 1.5977619588375092, -1.452510952949524 l1.8882642686367035, -0.2905021794140339 1.7430131137371063, 1.452510952949524 l1.0167576372623444, 3.050273060798645 0.0, 4.067030549049377 l-1.3072597980499268, 3.776528537273407 -2.4692685902118683, 3.63127738237381 l-12.927347421646118, 15.541867017745972 -1.7430131137371063, 1.0167576372623444 l-1.8882642686367035, 0.2905021794140339 -9.150818586349487, 0.14525108970701694 l-8.569814562797546, 2.324017435312271 3.9217793941497803, 1.452510952949524 l0.5810043588280678, 0.726255476474762 0.14525108970701694, 1.7430131137371063 l-0.726255476474762, 1.5977619588375092 -1.7430131137371063, 1.452510952949524 l-2.6145195960998535, 0.726255476474762 -5.955294966697693, 0.2905021794140339 l-12.20109224319458, -3.050273060798645 -3.9217793941497803, -1.7430131137371063 l-2.905021905899048, -1.8882642686367035 -2.0335152745246887, -2.4692685902118683 l-0.8715065568685532, -3.4860262274742126 0.14525108970701694, -3.776528537273407 l2.7597707509994507, -3.050273060798645 m32.390992641448975, -23.675928115844727 l-3.050273060798645, -0.2905021794140339 -3.050273060798645, 0.8715065568685532 l-6.826801300048828, 4.067030549049377 -3.63127738237381, 2.905021905899048 l-1.452510952949524, 1.7430131137371063 -0.8715065568685532, 1.8882642686367035 l-0.2905021794140339, 2.178766429424286 0.0, 2.7597707509994507 l0.8715065568685532, 2.4692685902118683 1.7430131137371063, 2.4692685902118683 l4.938537180423737, 3.3407750725746155 2.905021905899048, 0.726255476474762 l3.050273060798645, 0.0 3.4860262274742126, -0.5810043588280678 l3.4860262274742126, -1.452510952949524 3.1955239176750183, -1.8882642686367035 l5.08378803730011, -4.502783715724945 1.5977619588375092, -2.324017435312271 l1.1620087176561356, -2.905021905899048 0.726255476474762, -3.9217793941497803 l0.0, -3.776528537273407 -0.14525108970701694, -3.050273060798645 l-1.1620087176561356, -2.324017435312271 -2.178766429424286, -1.7430131137371063 l-2.178766429424286, -0.8715065568685532 -2.6145195960998535, -0.5810043588280678 l-4.357532858848572, 0.0 -1.5977619588375092, 0.2905021794140339 l-1.5977619588375092, 1.452510952949524 -0.8715065568685532, 1.5977619588375092 m-9.586572051048279, 12.782095670700073 l1.452510952949524, 0.8715065568685532 m0.8715065568685532, -0.5810043588280678 l2.6145195960998535, -0.726255476474762 -0.726255476474762, 1.0167576372623444 l-2.6145195960998535, 2.178766429424286 -1.7430131137371063, 0.5810043588280678 l-0.4357532784342766, -0.8715065568685532 0.2905021794140339, -2.0335152745246887 l1.8882642686367035, -2.6145195960998535 1.8882642686367035, -0.5810043588280678 l0.8715065568685532, 0.4357532784342766 0.14525108970701694, 2.4692685902118683 m10.16757607460022, -1.7430131137371063 l-0.2905021794140339, -0.726255476474762 1.3072597980499268, -2.178766429424286 l1.5977619588375092, -1.1620087176561356 0.8715065568685532, -0.14525108970701694 l0.14525108970701694, 0.726255476474762 -0.5810043588280678, 1.7430131137371063 l-3.050273060798645, 4.502783715724945 -0.726255476474762, 0.4357532784342766 l0.4357532784342766, -1.7430131137371063 2.324017435312271, -3.1955239176750183 l2.0335152745246887, -1.7430131137371063 -3.3407750725746155, 5.229039192199707 l-0.726255476474762, 0.8715065568685532 -0.5810043588280678, -0.4357532784342766 m-13.363100290298462, 1.3072597980499268 l0.14525108970701694, -1.452510952949524 4.938537180423737, -3.4860262274742126 " fill="none" stroke="black" stroke-width="1" /></svg>