<?xml version="1.0" encoding="utf-8" ?>
<svg baseProfile="full" height="57.497106762602925" version="1.1" width="51.83231491595507" xmlns="http://www.w3.org/2000/svg" xmlns:ev="http://www.w3.org/2001/xml-events" xmlns:xlink="http://www.w3.org/1999/xlink"><defs /><rect fill="white" height="57.497106762602925" width="51.83231491595507" x="0" y="0" /><path d="M20.54186719469726, 17.63684395700693 m-1.7430131137371063, 0.4357532784342766 l-2.6145195960998535, 1.8882642686367035 -2.7597707509994507, 3.63127738237381 l-1.3072597980499268, 5.810043811798096 0.0, 3.9217793941497803 l1.0167576372623444, 2.178766429424286 1.8882642686367035, 1.8882642686367035 l3.776528537273407, 2.178766429424286 5.519541501998901, 0.726255476474762 l3.63127738237381, -0.2905021794140339 3.63127738237381, -2.4692685902118683 l1.3072597980499268, -2.0335152745246887 0.5810043588280678, -3.3407750725746155 l0.0, -6.2457966804504395 -1.452510952949524, -4.067030549049377 l-3.050273060798645, -2.6145195960998535 -1.7430131137371063, -0.8715065568685532 l-4.938537180423737, -1.3072597980499268 -2.324017435312271, 0.4357532784342766 m-12.636845111846924, 1.1620087176561356 l0.0, -5.229039192199707 0.2905021794140339, -1.7430131137371063 l1.3072597980499268, -2.7597707509994507 1.0167576372623444, 0.14525108970701694 l0.726255476474762, 1.0167576372623444 2.4692685902118683, 1.5977619588375092 l4.212281703948975, 0.14525108970701694 1.3072597980499268, -1.1620087176561356 l3.63127738237381, -5.08378803730011 1.452510952949524, -0.5810043588280678 l1.1620087176561356, 4.648034870624542 1.1620087176561356, 2.178766429424286 l0.8715065568685532, 0.5810043588280678 2.0335152745246887, 0.0 l5.08378803730011, -3.4860262274742126 1.7430131137371063, -0.2905021794140339 l1.0167576372623444, 0.726255476474762 0.8715065568685532, 5.955294966697693 l1.1620087176561356, 0.726255476474762 5.6647926568984985, 0.0 l1.0167576372623444, 1.452510952949524 0.2905021794140339, 1.452510952949524 l0.0, 6.2457966804504395 -1.1620087176561356, 5.08378803730011 l0.0, 3.1955239176750183 2.0335152745246887, 4.502783715724945 l0.14525108970701694, 3.776528537273407 -8.715065717697144, 0.14525108970701694 l-1.452510952949524, 4.502783715724945 -2.324017435312271, 2.905021905899048 l-3.050273060798645, 1.8882642686367035 -2.178766429424286, 0.4357532784342766 l-2.324017435312271, -0.14525108970701694 -3.050273060798645, -2.7597707509994507 l-2.324017435312271, -0.5810043588280678 -1.0167576372623444, 0.14525108970701694 l-3.3407750725746155, 2.7597707509994507 -2.324017435312271, 1.1620087176561356 l-3.9217793941497803, 0.2905021794140339 -2.905021905899048, -3.050273060798645 l-1.452510952949524, -4.212281703948975 0.0, -3.63127738237381 l0.726255476474762, -4.212281703948975 -1.452510952949524, -0.726255476474762 l-0.4357532784342766, -1.0167576372623444 1.1620087176561356, -5.229039192199707 l-1.452510952949524, -2.7597707509994507 0.0, -2.178766429424286 l0.14525108970701694, -1.452510952949524 2.7597707509994507, -2.4692685902118683 l-1.0167576372623444, -2.4692685902118683 3.776528537273407, -2.178766429424286 " fill="none" stroke="black" stroke-width="1" /></svg>