<?xml version="1.0" encoding="utf-8" ?>
<svg baseProfile="full" height="52.55857135169208" version="1.1" width="43.553002094849944" xmlns="http://www.w3.org/2000/svg" xmlns:ev="http://www.w3.org/2001/xml-events" xmlns:xlink="http://www.w3.org/1999/xlink"><defs /><rect fill="white" height="52.55857135169208" width="43.553002094849944" x="0" y="0" /><path d="M26.642412710934877, 11.826801337301731 m0.5810043588280678, -0.8715065568685532 l-2.905021905899048, -3.3407750725746155 -4.067030549049377, -2.178766429424286 l-2.6145195960998535, -0.4357532784342766 -5.08378803730011, 1.5977619588375092 l-5.519541501998901, 2.7597707509994507 m19.6088969707489, 1.452510952949524 l1.452510952949524, 0.726255476474762 1.7430131137371063, 2.0335152745246887 m-2.905021905899048, 17.72063374519348 l0.5810043588280678, 0.726255476474762 -1.1620087176561356, 1.0167576372623444 l-0.8715065568685532, 0.2905021794140339 -0.726255476474762, -0.2905021794140339 l0.2905021794140339, -1.0167576372623444 1.452510952949524, -1.452510952949524 m1.5977619588375092, 1.0167576372623444 l1.1620087176561356, -2.7597707509994507 0.5810043588280678, -3.4860262274742126 m-1.7430131137371063, -4.648034870624542 l-0.5810043588280678, 0.726255476474762 -0.14525108970701694, -1.0167576372623444 l0.5810043588280678, -0.2905021794140339 m-10.458078384399414, 2.4692685902118683 l0.14525108970701694, 0.2905021794140339 m10.893832445144653, -7.8435587882995605 l3.9217793941497803, -4.212281703948975 -1.1620087176561356, 7.1173036098480225 m-18.737391233444214, -0.14525108970701694 l0.726255476474762, 0.14525108970701694 -0.14525108970701694, -0.726255476474762 l-3.050273060798645, -1.8882642686367035 -1.0167576372623444, -0.2905021794140339 l-0.8715065568685532, 0.4357532784342766 0.0, 0.726255476474762 m24.69268560409546, -1.5977619588375092 l2.6145195960998535, 4.067030549049377 2.178766429424286, 4.793286025524139 l0.8715065568685532, 7.26255476474762 -0.2905021794140339, 1.7430131137371063 l-0.8715065568685532, 0.14525108970701694 -4.648034870624542, -1.5977619588375092 l-0.14525108970701694, 1.8882642686367035 0.726255476474762, 3.3407750725746155 l0.2905021794140339, 4.938537180423737 -2.6145195960998535, -1.1620087176561356 l-1.0167576372623444, 3.776528537273407 -1.452510952949524, 2.0335152745246887 l-1.1620087176561356, 0.0 -1.452510952949524, -1.3072597980499268 l-5.6647926568984985, 3.050273060798645 -0.8715065568685532, -3.63127738237381 l-1.0167576372623444, -1.3072597980499268 -2.324017435312271, 1.7430131137371063 l-2.0335152745246887, 0.14525108970701694 -2.324017435312271, -1.1620087176561356 l-0.8715065568685532, -2.324017435312271 0.2905021794140339, -0.4357532784342766 m0.0, -20.916156768798828 l-1.0167576372623444, 0.726255476474762 -4.067030549049377, 6.391047835350037 l-1.0167576372623444, 7.8435587882995605 0.0, 1.1620087176561356 l2.905021905899048, -0.726255476474762 1.452510952949524, 5.374290347099304 l1.0167576372623444, 0.8715065568685532 m17.139629125595093, -8.279312252998352 l-1.3072597980499268, -0.4357532784342766 -3.1955239176750183, 0.4357532784342766 l-3.63127738237381, -2.178766429424286 -1.7430131137371063, -2.178766429424286 m0.0, -7.8435587882995605 l0.726255476474762, 0.14525108970701694 0.8715065568685532, 1.1620087176561356 l0.0, 0.8715065568685532 -1.5977619588375092, 0.4357532784342766 l-0.8715065568685532, -1.0167576372623444 0.0, -1.7430131137371063 m11.620087623596191, -5.519541501998901 l0.14525108970701694, -0.726255476474762 -0.5810043588280678, -0.8715065568685532 l-1.0167576372623444, -0.2905021794140339 -7.988809943199158, 3.050273060798645 l-3.1955239176750183, -0.14525108970701694 -1.0167576372623444, -0.4357532784342766 m13.508352041244507, 13.653602600097656 l-2.4692685902118683, 7.407805919647217 -0.5810043588280678, -0.8715065568685532 " fill="none" stroke="black" stroke-width="1" /></svg>