<?xml version="1.0" encoding="utf-8" ?>
<svg baseProfile="full" height="43.6982536315918" version="1.1" width="41.80998879484832" xmlns="http://www.w3.org/2000/svg" xmlns:ev="http://www.w3.org/2001/xml-events" xmlns:xlink="http://www.w3.org/1999/xlink"><defs /><rect fill="white" height="43.6982536315918" width="41.80998879484832" x="0" y="0" /><path d="M14.586571687832475, 19.67036065645516 m-0.14525108970701694, 2.0335152745246887 l1.1620087176561356, 3.3407750725746155 1.1620087176561356, 1.3072597980499268 l2.324017435312271, 0.8715065568685532 2.178766429424286, 0.0 l1.1620087176561356, -0.726255476474762 1.452510952949524, -1.7430131137371063 l1.3072597980499268, -2.7597707509994507 0.5810043588280678, -3.776528537273407 l-0.2905021794140339, -1.7430131137371063 -3.3407750725746155, -1.8882642686367035 l-2.324017435312271, 0.0 -2.905021905899048, 1.1620087176561356 l-2.7597707509994507, 3.1955239176750183 -0.2905021794140339, 2.178766429424286 m4.938537180423737, -1.3072597980499268 l0.0, 0.0 m0.0, 0.4357532784342766 l-0.2905021794140339, -1.1620087176561356 m4.793286025524139, -0.8715065568685532 l-0.726255476474762, 0.4357532784342766 m-4.502783715724945, 3.4860262274742126 l1.8882642686367035, 0.2905021794140339 m-1.8882642686367035, 0.2905021794140339 l0.14525108970701694, 2.178766429424286 0.8715065568685532, -2.178766429424286 m1.3072597980499268, -0.726255476474762 l0.5810043588280678, 2.178766429424286 0.4357532784342766, -0.8715065568685532 l0.0, -3.050273060798645 m-0.14525108970701694, -10.02232551574707 l-6.2457966804504395, -3.3407750725746155 -4.502783715724945, -1.1620087176561356 l-0.2905021794140339, 0.8715065568685532 0.0, 7.1173036098480225 l-3.776528537273407, 0.0 -1.0167576372623444, 1.5977619588375092 l-0.4357532784342766, 4.648034870624542 0.8715065568685532, 0.726255476474762 l0.2905021794140339, 1.3072597980499268 0.4357532784342766, 8.279312252998352 l2.0335152745246887, -0.726255476474762 1.0167576372623444, 0.4357532784342766 l2.0335152745246887, 3.1955239176750183 1.3072597980499268, 0.8715065568685532 l4.067030549049377, -0.8715065568685532 3.3407750725746155, 3.4860262274742126 l0.726255476474762, 0.14525108970701694 3.1955239176750183, -4.793286025524139 l1.3072597980499268, -0.14525108970701694 1.8882642686367035, 1.0167576372623444 l0.5810043588280678, -0.14525108970701694 2.4692685902118683, -3.3407750725746155 l4.502783715724945, -2.4692685902118683 1.5977619588375092, -2.6145195960998535 l0.14525108970701694, -1.452510952949524 -0.2905021794140339, -0.726255476474762 l-4.793286025524139, -2.324017435312271 -1.452510952949524, -2.324017435312271 l-0.2905021794140339, -3.9217793941497803 1.0167576372623444, -4.648034870624542 l-0.5810043588280678, -0.4357532784342766 -2.905021905899048, 0.4357532784342766 l-1.0167576372623444, -0.2905021794140339 -1.7430131137371063, -3.3407750725746155 l-0.5810043588280678, -0.2905021794140339 -3.1955239176750183, 1.3072597980499268 m-11.910589933395386, 24.256932735443115 l1.1620087176561356, 3.4860262274742126 0.8715065568685532, 4.648034870624542 " fill="none" stroke="black" stroke-width="1" /></svg>