<?xml version="1.0" encoding="utf-8" ?>
<svg baseProfile="full" height="68.53618944995105" version="1.1" width="89.74285046570003" xmlns="http://www.w3.org/2000/svg" xmlns:ev="http://www.w3.org/2001/xml-events" xmlns:xlink="http://www.w3.org/1999/xlink"><defs /><rect fill="white" height="68.53618944995105" width="89.74285046570003" x="0" y="0" /><path d="M26.932915281504393, 15.6033293902874 m-0.8715065568685532, -1.5977619588375092 l2.905021905899048, -2.6145195960998535 5.810043811798096, -6.391047835350037 l4.648034870624542, 7.8435587882995605 6.972052454948425, -3.776528537273407 l4.938537180423737, -1.1620087176561356 4.212281703948975, 0.0 l1.1620087176561356, 1.7430131137371063 0.14525108970701694, 3.3407750725746155 l1.3072597980499268, 1.1620087176561356 11.039083003997803, 1.1620087176561356 l3.4860262274742126, 0.8715065568685532 1.7430131137371063, 1.1620087176561356 l0.4357532784342766, 1.1620087176561356 0.0, 3.9217793941497803 l-1.1620087176561356, 2.7597707509994507 0.0, 1.7430131137371063 l1.452510952949524, 1.8882642686367035 1.8882642686367035, 1.3072597980499268 l5.955294966697693, 2.6145195960998535 1.7430131137371063, 1.3072597980499268 l0.0, 1.7430131137371063 -1.1620087176561356, 1.7430131137371063 l-2.324017435312271, 2.0335152745246887 -9.877074360847473, 4.648034870624542 l-1.7430131137371063, 1.452510952949524 0.0, 0.8715065568685532 l2.178766429424286, 1.7430131137371063 1.1620087176561356, 1.7430131137371063 l0.4357532784342766, 1.7430131137371063 -0.2905021794140339, 1.3072597980499268 l-3.050273060798645, 2.0335152745246887 -3.776528537273407, 1.3072597980499268 l-8.569814562797546, 0.8715065568685532 -0.5810043588280678, 0.2905021794140339 l-2.905021905899048, 4.067030549049377 -2.324017435312271, 1.7430131137371063 l-4.357532858848572, 0.14525108970701694 -1.3072597980499268, -0.4357532784342766 l-6.826801300048828, -3.9217793941497803 -1.7430131137371063, -2.4692685902118683 l-10.893832445144653, 3.3407750725746155 -2.4692685902118683, 0.0 l-0.2905021794140339, -1.5977619588375092 -1.7430131137371063, 0.0 l-3.9217793941497803, 1.1620087176561356 -5.519541501998901, 0.0 l-3.3407750725746155, -3.050273060798645 -2.0335152745246887, -4.502783715724945 l-0.2905021794140339, -2.178766429424286 0.0, -4.212281703948975 l0.5810043588280678, -2.178766429424286 1.452510952949524, -2.324017435312271 l-1.3072597980499268, 1.1620087176561356 -0.14525108970701694, -1.1620087176561356 l0.5810043588280678, -4.067030549049377 0.0, -5.519541501998901 l-0.4357532784342766, -0.8715065568685532 -2.905021905899048, -1.5977619588375092 l0.14525108970701694, -3.050273060798645 1.452510952949524, -3.3407750725746155 l0.0, -1.3072597980499268 1.7430131137371063, -0.14525108970701694 l0.8715065568685532, -0.726255476474762 0.8715065568685532, -2.6145195960998535 l0.0, -1.452510952949524 2.324017435312271, -1.1620087176561356 l4.793286025524139, -1.5977619588375092 1.7430131137371063, 0.0 l0.2905021794140339, 0.726255476474762 0.5810043588280678, 0.0 l5.6647926568984985, -1.7430131137371063 2.6145195960998535, -0.14525108970701694 m7.988809943199158, 9.877074360847473 l-3.4860262274742126, 0.0 -5.229039192199707, 1.5977619588375092 l-4.502783715724945, 2.178766429424286 -1.1620087176561356, 1.1620087176561356 l-0.726255476474762, 2.905021905899048 0.0, 6.391047835350037 l0.726255476474762, 2.7597707509994507 2.0335152745246887, 3.050273060798645 l3.4860262274742126, 2.178766429424286 9.296069741249084, 2.6145195960998535 l10.458078384399414, 0.0 11.620087623596191, -3.4860262274742126 l4.212281703948975, -2.7597707509994507 1.0167576372623444, -1.1620087176561356 l2.4692685902118683, -6.2457966804504395 0.0, -4.067030549049377 l-2.324017435312271, -3.1955239176750183 -3.4860262274742126, -1.452510952949524 l-4.648034870624542, -0.5810043588280678 -17.86588430404663, 0.0 m-4.212281703948975, 7.407805919647217 l-1.3072597980499268, -0.8715065568685532 0.0, -1.3072597980499268 l1.1620087176561356, 1.1620087176561356 m15.687117576599121, 2.4692685902118683 l0.14525108970701694, -1.452510952949524 0.5810043588280678, -0.14525108970701694 l0.5810043588280678, 0.4357532784342766 0.0, 0.2905021794140339 " fill="none" stroke="black" stroke-width="1" /></svg>