<?xml version="1.0" encoding="utf-8" ?>
<svg baseProfile="full" height="56.62560164928436" version="1.1" width="55.02783823758364" xmlns="http://www.w3.org/2000/svg" xmlns:ev="http://www.w3.org/2001/xml-events" xmlns:xlink="http://www.w3.org/1999/xlink"><defs /><rect fill="white" height="56.62560164928436" width="55.02783823758364" x="0" y="0" /><path d="M5, 29.692684402689338 m6.536298990249634, -4.502783715724945 l3.3407750725746155, -1.452510952949524 5.955294966697693, -1.1620087176561356 l7.988809943199158, 0.5810043588280678 3.63127738237381, 1.0167576372623444 l0.726255476474762, 0.5810043588280678 0.8715065568685532, 2.4692685902118683 l-1.0167576372623444, 4.357532858848572 -3.4860262274742126, 6.826801300048828 l-3.050273060798645, 3.1955239176750183 -4.067030549049377, 0.14525108970701694 l-5.229039192199707, -0.5810043588280678 -7.1173036098480225, -2.905021905899048 l-2.905021905899048, -2.4692685902118683 -0.14525108970701694, -5.08378803730011 m34.13400650024414, -12.34634280204773 l-7.553057074546814, 10.16757607460022 -0.2905021794140339, 3.050273060798645 l0.2905021794140339, 3.050273060798645 1.5977619588375092, 3.776528537273407 l1.5977619588375092, 1.7430131137371063 3.050273060798645, 0.8715065568685532 l0.8715065568685532, 0.0 2.178766429424286, -1.3072597980499268 l3.1955239176750183, -5.374290347099304 0.8715065568685532, -4.502783715724945 l0.0, -3.050273060798645 -0.726255476474762, -4.067030549049377 l-2.6145195960998535, -6.391047835350037 -0.726255476474762, -0.726255476474762 l-2.4692685902118683, 0.0 -1.5977619588375092, 1.5977619588375092 m-22.078166007995605, 24.837937355041504 l-1.5977619588375092, 4.793286025524139 -0.5810043588280678, 3.9217793941497803 m7.553057074546814, -8.134061098098755 l0.5810043588280678, 6.681550145149231 m6.536298990249634, -29.921724796295166 l1.1620087176561356, -6.391047835350037 2.324017435312271, -5.519541501998901 l2.7597707509994507, 6.972052454948425 0.4357532784342766, 0.5810043588280678 l0.726255476474762, 0.0 7.26255476474762, -10.02232551574707 l1.1620087176561356, 4.793286025524139 2.4692685902118683, 3.776528537273407 l0.726255476474762, 5.6647926568984985 0.14525108970701694, 7.407805919647217 l1.5977619588375092, 7.553057074546814 -0.14525108970701694, 4.212281703948975 l-0.5810043588280678, 2.905021905899048 -3.9217793941497803, 10.312827825546265 l-1.3072597980499268, -2.178766429424286 -3.4860262274742126, -2.905021905899048 l-4.938537180423737, -2.324017435312271 -0.14525108970701694, 6.10054612159729 l-2.178766429424286, -3.3407750725746155 -1.8882642686367035, -4.793286025524139 l-1.8882642686367035, -1.0167576372623444 -4.357532858848572, -4.648034870624542 l0.0, -1.7430131137371063 3.4860262274742126, -5.374290347099304 l-3.4860262274742126, -1.452510952949524 -1.8882642686367035, -2.324017435312271 l5.374290347099304, -3.4860262274742126 -0.14525108970701694, -2.7597707509994507 m9.586572051048279, 12.927347421646118 l-10.458078384399414, -1.5977619588375092 m9.150818586349487, 6.536298990249634 l-1.7430131137371063, 1.452510952949524 -2.324017435312271, 0.8715065568685532 m8.86031687259674, -5.229039192199707 l4.067030549049377, -3.050273060798645 4.212281703948975, -1.8882642686367035 m-7.988809943199158, 7.553057074546814 l7.407805919647217, -1.3072597980499268 " fill="none" stroke="black" stroke-width="1" /></svg>