<?xml version="1.0" encoding="utf-8" ?>
<svg baseProfile="full" height="53.28482670709491" version="1.1" width="51.68706247583032" xmlns="http://www.w3.org/2000/svg" xmlns:ev="http://www.w3.org/2001/xml-events" xmlns:xlink="http://www.w3.org/1999/xlink"><defs /><rect fill="white" height="53.28482670709491" width="51.68706247583032" x="0" y="0" /><path d="M14.005567422136664, 13.279311824589968 m-1.7430131137371063, 0.2905021794140339 l-1.5977619588375092, 1.1620087176561356 -0.8715065568685532, 1.3072597980499268 l-1.5977619588375092, 4.357532858848572 0.0, 4.067030549049377 l0.5810043588280678, 2.6145195960998535 1.8882642686367035, 2.0335152745246887 l1.0167576372623444, 0.2905021794140339 2.324017435312271, -0.4357532784342766 l2.0335152745246887, -1.1620087176561356 1.7430131137371063, -1.8882642686367035 l1.0167576372623444, -2.0335152745246887 0.0, -7.698307633399963 l-1.8882642686367035, -2.7597707509994507 -1.5977619588375092, 0.2905021794140339 m-7.698307633399963, 0.8715065568685532 l0.4357532784342766, -9.00556743144989 4.938537180423737, 1.0167576372623444 l1.7430131137371063, -0.5810043588280678 0.5810043588280678, -1.0167576372623444 l2.178766429424286, 2.4692685902118683 2.7597707509994507, -1.8882642686367035 l-0.8715065568685532, 3.4860262274742126 0.726255476474762, 0.2905021794140339 l3.63127738237381, -0.2905021794140339 -0.14525108970701694, 1.1620087176561356 l-1.452510952949524, 2.6145195960998535 1.1620087176561356, 1.452510952949524 l-1.3072597980499268, 2.324017435312271 0.5810043588280678, 0.726255476474762 l-1.452510952949524, 0.4357532784342766 m-14.234607219696045, -4.502783715724945 l-0.5810043588280678, 0.0 -1.0167576372623444, 2.4692685902118683 l-0.2905021794140339, 2.0335152745246887 0.14525108970701694, 3.050273060798645 m5.955294966697693, -1.0167576372623444 l0.0, 0.0 m5.374290347099304, -1.3072597980499268 l-0.14525108970701694, 0.0 m-5.229039192199707, 7.26255476474762 l0.2905021794140339, -0.8715065568685532 1.7430131137371063, -1.452510952949524 l1.5977619588375092, 0.0 0.8715065568685532, 1.1620087176561356 m2.4692685902118683, -3.1955239176750183 l4.067030549049377, -1.5977619588375092 3.9217793941497803, -0.2905021794140339 l9.441320896148682, 0.8715065568685532 0.8715065568685532, 0.5810043588280678 l0.4357532784342766, 1.3072597980499268 0.0, 5.229039192199707 l-0.5810043588280678, 1.0167576372623444 -3.776528537273407, 1.452510952949524 l-16.413373947143555, 0.4357532784342766 -3.4860262274742126, -0.5810043588280678 m3.4860262274742126, 2.324017435312271 l0.2905021794140339, 13.508352041244507 m14.08935546875, -14.670360088348389 l0.0, 2.7597707509994507 -1.3072597980499268, 10.312827825546265 l0.14525108970701694, 3.3407750725746155 0.8715065568685532, 0.8715065568685532 m5.374290347099304, -29.340720176696777 l0.14525108970701694, -2.4692685902118683 1.7430131137371063, -3.63127738237381 l5.955294966697693, -2.324017435312271 1.452510952949524, 0.2905021794140339 l1.3072597980499268, 1.5977619588375092 0.5810043588280678, 2.178766429424286 l0.0, 1.5977619588375092 -1.1620087176561356, 2.6145195960998535 l-3.1955239176750183, 2.4692685902118683 -5.08378803730011, 2.6145195960998535 " fill="none" stroke="black" stroke-width="1" /></svg>