<?xml version="1.0" encoding="utf-8" ?>
<svg baseProfile="full" height="45.00551292672753" version="1.1" width="55.31834049150348" xmlns="http://www.w3.org/2000/svg" xmlns:ev="http://www.w3.org/2001/xml-events" xmlns:xlink="http://www.w3.org/1999/xlink"><defs /><rect fill="white" height="45.00551292672753" width="55.31834049150348" x="0" y="0" /><path d="M32.59770706295967, 16.03908186778426 m0.726255476474762, -0.5810043588280678 l1.5977619588375092, -0.14525108970701694 2.4692685902118683, 0.4357532784342766 l0.4357532784342766, 0.726255476474762 0.0, 1.452510952949524 l-1.8882642686367035, 2.178766429424286 m0.14525108970701694, 0.0 l1.7430131137371063, 1.7430131137371063 0.14525108970701694, 0.726255476474762 l-0.726255476474762, 0.5810043588280678 -3.3407750725746155, -0.14525108970701694 l-2.0335152745246887, -1.5977619588375092 m0.2905021794140339, -6.2457966804504395 l2.178766429424286, -1.8882642686367035 -0.2905021794140339, -2.178766429424286 l-1.1620087176561356, -1.0167576372623444 m-0.8715065568685532, 1.5977619588375092 l-2.7597707509994507, -2.4692685902118683 m1.1620087176561356, 5.955294966697693 l-1.8882642686367035, -2.0335152745246887 -1.7430131137371063, -1.0167576372623444 m0.2905021794140339, 3.776528537273407 l-2.178766429424286, -1.452510952949524 -0.8715065568685532, 0.0 m1.5977619588375092, 3.9217793941497803 l-2.178766429424286, -0.8715065568685532 m2.178766429424286, 5.374290347099304 l-1.3072597980499268, 0.4357532784342766 m2.6145195960998535, 0.2905021794140339 l0.2905021794140339, 0.726255476474762 m1.1620087176561356, 0.0 l0.726255476474762, -0.5810043588280678 0.5810043588280678, 0.4357532784342766 l1.3072597980499268, -0.2905021794140339 0.5810043588280678, 0.2905021794140339 l0.0, 0.8715065568685532 m-1.0167576372623444, 1.8882642686367035 l0.14525108970701694, 1.3072597980499268 -0.726255476474762, 3.050273060798645 l-2.0335152745246887, 2.324017435312271 -2.178766429424286, 1.1620087176561356 l-5.810043811798096, 0.4357532784342766 -4.938537180423737, -1.452510952949524 l-2.905021905899048, -2.178766429424286 -1.452510952949524, -4.067030549049377 l0.0, -1.452510952949524 0.14525108970701694, -1.452510952949524 l1.7430131137371063, -3.4860262274742126 1.8882642686367035, -1.452510952949524 l2.7597707509994507, -0.726255476474762 3.050273060798645, 0.0 l2.7597707509994507, 0.5810043588280678 2.324017435312271, 1.1620087176561356 m0.726255476474762, 11.910589933395386 l2.0335152745246887, -0.2905021794140339 3.4860262274742126, 1.452510952949524 l-0.14525108970701694, 0.5810043588280678 -1.1620087176561356, 0.5810043588280678 l-4.067030549049377, 0.726255476474762 m-11.474835872650146, -1.8882642686367035 l0.0, -0.8715065568685532 m13.363100290298462, 0.0 l2.905021905899048, 4.502783715724945 0.0, 1.3072597980499268 l-1.0167576372623444, 0.4357532784342766 m-16.994377374649048, -6.536298990249634 l1.452510952949524, -0.2905021794140339 1.1620087176561356, 0.4357532784342766 l1.3072597980499268, 1.452510952949524 -0.2905021794140339, 2.0335152745246887 l-2.0335152745246887, 3.776528537273407 m-0.8715065568685532, -6.826801300048828 l-0.4357532784342766, 4.067030549049377 -0.5810043588280678, 1.7430131137371063 l-0.8715065568685532, -0.14525108970701694 m-1.5977619588375092, -13.508352041244507 l-1.0167576372623444, -1.1620087176561356 -1.0167576372623444, 0.2905021794140339 l-0.8715065568685532, 1.452510952949524 -0.8715065568685532, 4.648034870624542 l-0.726255476474762, 0.14525108970701694 -0.14525108970701694, -0.2905021794140339 m4.212281703948975, -7.1173036098480225 l-3.63127738237381, 10.02232551574707 3.63127738237381, -6.391047835350037 l-4.793286025524139, 8.134061098098755 5.374290347099304, -7.988809943199158 l-0.726255476474762, 2.324017435312271 -1.5977619588375092, 2.4692685902118683 l0.5810043588280678, -2.905021905899048 1.452510952949524, -2.4692685902118683 m29.921724796295166, -12.491593360900879 l-0.726255476474762, 1.5977619588375092 -0.4357532784342766, -0.5810043588280678 l-0.2905021794140339, -1.5977619588375092 1.3072597980499268, -3.63127738237381 l1.3072597980499268, -1.1620087176561356 0.726255476474762, 1.452510952949524 l-0.2905021794140339, 1.7430131137371063 1.5977619588375092, 3.1955239176750183 m1.1620087176561356, -4.938537180423737 l-0.5810043588280678, 0.0 -0.8715065568685532, 1.0167576372623444 l-0.14525108970701694, 1.3072597980499268 0.726255476474762, 0.726255476474762 l1.1620087176561356, -0.8715065568685532 0.0, -2.7597707509994507 m1.452510952949524, 1.452510952949524 l0.2905021794140339, -3.9217793941497803 1.7430131137371063, 3.9217793941497803 l-1.1620087176561356, -0.4357532784342766 m1.1620087176561356, -0.2905021794140339 l-0.14525108970701694, -1.3072597980499268 0.5810043588280678, -3.9217793941497803 l0.2905021794140339, 2.905021905899048 1.452510952949524, 1.5977619588375092 m-18.156386613845825, 6.2457966804504395 l-0.726255476474762, 0.2905021794140339 0.14525108970701694, -0.8715065568685532 l0.2905021794140339, 0.5810043588280678 -0.2905021794140339, 1.8882642686367035 m1.452510952949524, -2.324017435312271 l-0.5810043588280678, -0.5810043588280678 0.0, -0.5810043588280678 l0.8715065568685532, 0.14525108970701694 -0.4357532784342766, -0.14525108970701694 m-2.4692685902118683, 1.7430131137371063 l-0.4357532784342766, 1.7430131137371063 -0.4357532784342766, -1.452510952949524 l0.4357532784342766, -0.726255476474762 0.2905021794140339, 1.0167576372623444 m3.63127738237381, -1.7430131137371063 l-0.726255476474762, 0.14525108970701694 -0.2905021794140339, -1.0167576372623444 l0.8715065568685532, -0.14525108970701694 0.726255476474762, 1.0167576372623444 l-0.5810043588280678, 0.2905021794140339 m2.324017435312271, 8.569814562797546 l0.726255476474762, 0.8715065568685532 0.14525108970701694, 1.3072597980499268 l-4.212281703948975, -0.4357532784342766 -3.63127738237381, 0.14525108970701694 l-1.3072597980499268, 0.4357532784342766 " fill="none" stroke="black" stroke-width="1" /></svg>