<?xml version="1.0" encoding="utf-8" ?>
<svg baseProfile="full" height="70.42445455677807" version="1.1" width="66.21217330917716" xmlns="http://www.w3.org/2000/svg" xmlns:ev="http://www.w3.org/2001/xml-events" xmlns:xlink="http://www.w3.org/1999/xlink"><defs /><rect fill="white" height="70.42445455677807" width="66.21217330917716" x="0" y="0" /><path d="M13.860317524522543, 35.938481260091066 m3.4860262274742126, -6.972052454948425 l3.1955239176750183, -3.3407750725746155 4.212281703948975, -2.6145195960998535 l2.6145195960998535, -0.8715065568685532 3.050273060798645, -0.2905021794140339 l3.63127738237381, 0.0 3.4860262274742126, 1.7430131137371063 l3.4860262274742126, 3.3407750725746155 5.374290347099304, 8.715065717697144 l1.452510952949524, 4.357532858848572 0.4357532784342766, 4.648034870624542 l-0.14525108970701694, 4.938537180423737 -1.5977619588375092, 4.357532858848572 l-2.6145195960998535, 3.3407750725746155 -3.3407750725746155, 1.7430131137371063 l-3.1955239176750183, 0.4357532784342766 -3.776528537273407, -0.4357532784342766 l-3.4860262274742126, -2.0335152745246887 -6.391047835350037, -6.2457966804504395 l-4.793286025524139, -5.955294966697693 -2.7597707509994507, -4.357532858848572 m2.0335152745246887, -12.491593360900879 l0.0, -1.0167576372623444 -3.63127738237381, -3.050273060798645 l0.14525108970701694, -4.357532858848572 1.3072597980499268, -1.8882642686367035 l1.5977619588375092, -0.5810043588280678 1.7430131137371063, 0.0 l1.3072597980499268, 1.3072597980499268 1.0167576372623444, 5.519541501998901 m9.150818586349487, -3.1955239176750183 l1.3072597980499268, -2.4692685902118683 1.7430131137371063, -1.452510952949524 l1.452510952949524, -0.4357532784342766 3.1955239176750183, 0.4357532784342766 l1.1620087176561356, 1.3072597980499268 1.5977619588375092, 3.4860262274742126 l0.14525108970701694, 3.1955239176750183 -2.178766429424286, 1.7430131137371063 l-1.8882642686367035, 0.4357532784342766 m-15.832369327545166, 11.039083003997803 l2.4692685902118683, -1.452510952949524 0.5810043588280678, 0.726255476474762 l0.14525108970701694, 1.7430131137371063 -0.8715065568685532, 0.14525108970701694 l-0.2905021794140339, -1.0167576372623444 0.726255476474762, 0.0 l0.4357532784342766, 1.5977619588375092 m11.184333562850952, -0.5810043588280678 l-0.2905021794140339, 0.8715065568685532 -0.8715065568685532, 0.0 l-0.2905021794140339, -1.5977619588375092 0.5810043588280678, -1.7430131137371063 l0.726255476474762, -0.14525108970701694 0.2905021794140339, 2.905021905899048 l-0.4357532784342766, 1.0167576372623444 -1.7430131137371063, 0.2905021794140339 l-0.5810043588280678, -2.0335152745246887 0.726255476474762, -0.4357532784342766 l0.2905021794140339, 0.726255476474762 -0.726255476474762, 0.2905021794140339 m3.4860262274742126, 12.055840492248535 l-1.1620087176561356, 2.6145195960998535 -1.5977619588375092, 0.726255476474762 l-2.324017435312271, 0.0 -2.0335152745246887, -2.324017435312271 l-0.5810043588280678, -1.452510952949524 m2.4692685902118683, -3.776528537273407 l0.4357532784342766, 1.1620087176561356 m-1.1620087176561356, 7.26255476474762 l1.0167576372623444, -1.0167576372623444 0.0, 1.7430131137371063 l0.2905021794140339, -0.726255476474762 0.726255476474762, -0.14525108970701694 l1.0167576372623444, 1.452510952949524 1.0167576372623444, -1.452510952949524 l1.1620087176561356, 1.3072597980499268 0.4357532784342766, -1.3072597980499268 l0.0, -2.0335152745246887 -0.4357532784342766, -0.4357532784342766 m-5.229039192199707, -5.08378803730011 l0.5810043588280678, 0.8715065568685532 0.4357532784342766, 5.6647926568984985 l1.452510952949524, 0.4357532784342766 m-9.877074360847473, -8.279312252998352 l1.1620087176561356, 0.726255476474762 0.4357532784342766, 1.3072597980499268 l-0.5810043588280678, 1.0167576372623444 -5.6647926568984985, 2.0335152745246887 l-3.1955239176750183, 0.14525108970701694 -0.5810043588280678, -0.726255476474762 l-0.14525108970701694, -3.9217793941497803 -1.0167576372623444, -6.2457966804504395 l1.1620087176561356, 0.14525108970701694 1.8882642686367035, 1.452510952949524 l-7.988809943199158, -6.536298990249634 -0.5810043588280678, -0.8715065568685532 l2.7597707509994507, -0.5810043588280678 2.324017435312271, 1.0167576372623444 l-7.407805919647217, -7.8435587882995605 -1.3072597980499268, -2.4692685902118683 l0.14525108970701694, -0.726255476474762 3.9217793941497803, 0.4357532784342766 l4.212281703948975, 2.6145195960998535 -8.279312252998352, -8.42456340789795 l0.8715065568685532, -0.4357532784342766 6.10054612159729, 0.5810043588280678 l0.4357532784342766, -0.8715065568685532 -0.2905021794140339, -1.8882642686367035 l-1.8882642686367035, -3.9217793941497803 -0.2905021794140339, -1.5977619588375092 l0.4357532784342766, -1.8882642686367035 2.0335152745246887, -0.14525108970701694 l3.4860262274742126, 0.5810043588280678 9.877074360847473, 4.648034870624542 l0.2905021794140339, -0.726255476474762 -4.502783715724945, -6.391047835350037 l0.0, -2.0335152745246887 5.6647926568984985, 0.0 l14.234607219696045, 5.229039192199707 0.8715065568685532, -2.4692685902118683 l1.8882642686367035, -0.5810043588280678 1.8882642686367035, 0.726255476474762 l8.279312252998352, 6.681550145149231 2.905021905899048, 1.7430131137371063 l-5.519541501998901, -1.7430131137371063 -1.3072597980499268, -0.14525108970701694 l-0.4357532784342766, 0.726255476474762 2.905021905899048, 4.648034870624542 l1.7430131137371063, 5.229039192199707 0.0, 1.3072597980499268 l-2.905021905899048, 0.2905021794140339 2.4692685902118683, 1.7430131137371063 l2.324017435312271, 2.4692685902118683 2.0335152745246887, 2.7597707509994507 l1.3072597980499268, 2.905021905899048 -7.1173036098480225, -3.1955239176750183 l4.648034870624542, 5.6647926568984985 3.3407750725746155, 5.955294966697693 l0.4357532784342766, 2.7597707509994507 -3.776528537273407, -0.5810043588280678 l-2.324017435312271, -0.8715065568685532 -0.2905021794140339, 0.726255476474762 l4.502783715724945, 8.715065717697144 0.4357532784342766, 2.0335152745246887 l-0.4357532784342766, 0.726255476474762 -2.4692685902118683, 0.0 l-6.536298990249634, -2.7597707509994507 -1.0167576372623444, 2.905021905899048 l-6.536298990249634, 2.6145195960998535 -3.1955239176750183, 0.0 l-4.067030549049377, -1.7430131137371063 -0.8715065568685532, 0.4357532784342766 l-0.2905021794140339, 4.793286025524139 -0.4357532784342766, 0.726255476474762 l-1.0167576372623444, 0.0 -1.7430131137371063, -1.0167576372623444 l-1.452510952949524, -2.0335152745246887 -0.726255476474762, -1.5977619588375092 l-0.2905021794140339, -2.6145195960998535 -1.8882642686367035, 2.324017435312271 l-1.3072597980499268, -0.4357532784342766 -1.1620087176561356, -1.5977619588375092 l-3.050273060798645, -2.178766429424286 0.4357532784342766, 4.357532858848572 l-0.726255476474762, 0.14525108970701694 -1.3072597980499268, -2.6145195960998535 l-0.14525108970701694, -6.10054612159729 " fill="none" stroke="black" stroke-width="1" /></svg>