<?xml version="1.0" encoding="utf-8" ?>
<svg baseProfile="full" height="91.34061189368367" version="1.1" width="119.6645743213594" xmlns="http://www.w3.org/2000/svg" xmlns:ev="http://www.w3.org/2001/xml-events" xmlns:xlink="http://www.w3.org/1999/xlink"><defs /><rect fill="white" height="91.34061189368367" width="119.6645743213594" x="0" y="0" /><path d="M24.027891913428903, 31.580951884388924 m-3.050273060798645, 0.726255476474762 m-7.1173036098480225, 4.648034870624542 l-1.3072597980499268, -0.5810043588280678 -0.5810043588280678, -0.8715065568685532 l-0.4357532784342766, -1.1620087176561356 0.0, -2.4692685902118683 l1.1620087176561356, -3.776528537273407 2.7597707509994507, -4.357532858848572 l4.648034870624542, -5.374290347099304 5.6647926568984985, -4.502783715724945 l4.212281703948975, -2.178766429424286 1.1620087176561356, -0.2905021794140339 l-2.324017435312271, 3.1955239176750183 -0.5810043588280678, 1.3072597980499268 l0.726255476474762, 0.14525108970701694 5.08378803730011, -0.726255476474762 l6.972052454948425, -2.178766429424286 12.927347421646118, -2.6145195960998535 l1.5977619588375092, 0.0 -0.4357532784342766, 2.6145195960998535 l2.7597707509994507, 0.726255476474762 15.541867017745972, -0.2905021794140339 l0.5810043588280678, 1.0167576372623444 -3.050273060798645, 4.212281703948975 l0.0, 1.3072597980499268 2.905021905899048, 1.5977619588375092 l4.212281703948975, 1.3072597980499268 3.050273060798645, 1.8882642686367035 l1.452510952949524, 1.8882642686367035 0.8715065568685532, 2.324017435312271 l4.357532858848572, 5.08378803730011 -0.4357532784342766, 3.050273060798645 l-5.6647926568984985, 6.391047835350037 -0.2905021794140339, 2.0335152745246887 l1.1620087176561356, 1.7430131137371063 3.63127738237381, 1.452510952949524 l2.0335152745246887, 1.452510952949524 -0.2905021794140339, 2.4692685902118683 l-12.055840492248535, 8.42456340789795 -0.4357532784342766, 1.3072597980499268 l0.2905021794140339, 1.1620087176561356 1.3072597980499268, 1.1620087176561356 l0.14525108970701694, 1.7430131137371063 -3.1955239176750183, 2.178766429424286 l-5.374290347099304, 2.6145195960998535 -11.474835872650146, 4.357532858848572 l-3.9217793941497803, -0.8715065568685532 -17.139629125595093, 0.2905021794140339 l-2.324017435312271, -0.4357532784342766 -1.452510952949524, -1.452510952949524 l-0.5810043588280678, -1.452510952949524 -0.2905021794140339, -4.212281703948975 l-1.1620087176561356, -1.8882642686367035 -3.4860262274742126, -0.8715065568685532 l-10.16757607460022, 0.5810043588280678 -4.793286025524139, -0.2905021794140339 l-0.726255476474762, -1.452510952949524 0.8715065568685532, -2.905021905899048 l1.8882642686367035, -2.905021905899048 0.2905021794140339, -2.0335152745246887 l-0.8715065568685532, -1.452510952949524 -5.810043811798096, -0.8715065568685532 l-1.5977619588375092, -0.5810043588280678 -0.8715065568685532, -1.3072597980499268 l0.726255476474762, -2.905021905899048 6.681550145149231, -8.279312252998352 l1.0167576372623444, -3.1955239176750183 m25.128438472747803, 10.893832445144653 l2.905021905899048, -0.4357532784342766 12.491593360900879, -0.14525108970701694 l0.4357532784342766, 1.8882642686367035 -0.5810043588280678, 1.1620087176561356 l-2.0335152745246887, 2.178766429424286 -2.6145195960998535, 1.3072597980499268 l-4.793286025524139, 0.14525108970701694 -3.1955239176750183, -1.1620087176561356 l-1.0167576372623444, -1.0167576372623444 -0.14525108970701694, -1.452510952949524 l0.14525108970701694, -2.6145195960998535 0.5810043588280678, -0.14525108970701694 m-8.715065717697144, -23.385426998138428 l1.3072597980499268, 15.106114149093628 0.5810043588280678, 1.8882642686367035 m27.8882098197937, -16.26812219619751 l-0.2905021794140339, 12.055840492248535 m-20.62565565109253, 23.240175247192383 l1.1620087176561356, -0.726255476474762 14.52510952949524, -0.5810043588280678 l0.4357532784342766, 1.452510952949524 -2.324017435312271, 5.6647926568984985 l-2.4692685902118683, 2.6145195960998535 -1.5977619588375092, 0.726255476474762 l-3.63127738237381, 0.14525108970701694 -2.4692685902118683, -0.726255476474762 l-2.0335152745246887, -1.3072597980499268 -1.5977619588375092, -1.8882642686367035 l-1.3072597980499268, -3.776528537273407 0.14525108970701694, -1.5977619588375092 l1.1620087176561356, -0.14525108970701694 m41.25131130218506, -28.033461570739746 l16.558624505996704, -0.2905021794140339 14.670360088348389, 1.5977619588375092 l1.3072597980499268, 0.726255476474762 m-35.58651685714722, 34.569759368896484 l16.558624505996704, 4.212281703948975 12.927347421646118, 1.452510952949524 l1.5977619588375092, 0.726255476474762 m-20.04465103149414, -49.67587471008301 l2.7597707509994507, 3.9217793941497803 1.452510952949524, 4.502783715724945 l0.4357532784342766, 7.407805919647217 -0.14525108970701694, 8.42456340789795 l-2.324017435312271, 11.76533818244934 -3.9217793941497803, 10.16757607460022 m13.363100290298462, -39.944050312042236 l2.7597707509994507, 3.1955239176750183 1.1620087176561356, 5.519541501998901 l0.0, 4.212281703948975 -0.5810043588280678, 3.9217793941497803 l-5.229039192199707, 17.139629125595093 -1.452510952949524, 3.3407750725746155 l-1.5977619588375092, 1.5977619588375092 m13.653602600097656, -36.60327434539795 l2.4692685902118683, 5.810043811798096 1.452510952949524, 7.8435587882995605 l0.14525108970701694, 3.4860262274742126 0.0, 7.8435587882995605 l-0.4357532784342766, 3.4860262274742126 -3.050273060798645, 10.16757607460022 l-0.4357532784342766, 8.134061098098755 m-87.44115829467773, -16.703875064849854 l-0.2905021794140339, 13.508352041244507 1.5977619588375092, 6.391047835350037 l-1.7430131137371063, 0.0 -3.9217793941497803, -1.0167576372623444 l-3.9217793941497803, 0.0 -2.4692685902118683, 1.7430131137371063 l12.34634280204773, 0.5810043588280678 m49.82112407684326, -15.977619886398315 l-0.5810043588280678, 3.776528537273407 -3.050273060798645, 9.150818586349487 l1.8882642686367035, -1.1620087176561356 2.324017435312271, -0.5810043588280678 l6.391047835350037, -0.14525108970701694 1.0167576372623444, 0.2905021794140339 l0.726255476474762, 0.8715065568685532 -0.5810043588280678, 1.3072597980499268 l-1.8882642686367035, 1.1620087176561356 -4.357532858848572, 0.5810043588280678 l-6.826801300048828, 0.0 -2.324017435312271, -1.1620087176561356 m34.42451000213623, -9.296069741249084 l-0.2905021794140339, 2.4692685902118683 m6.826801300048828, -1.0167576372623444 l1.8882642686367035, 4.357532858848572 -0.14525108970701694, 5.810043811798096 l4.648034870624542, -0.14525108970701694 -1.0167576372623444, 0.5810043588280678 l-5.08378803730011, 0.0 -0.726255476474762, -0.14525108970701694 l1.0167576372623444, -0.2905021794140339 m-8.42456340789795, -11.474835872650146 l-1.5977619588375092, 0.5810043588280678 -8.134061098098755, 0.2905021794140339 l-0.2905021794140339, 2.0335152745246887 0.726255476474762, 1.452510952949524 l3.776528537273407, 3.9217793941497803 1.5977619588375092, 0.726255476474762 l3.3407750725746155, 0.0 0.726255476474762, -0.5810043588280678 l0.2905021794140339, -1.5977619588375092 -2.7597707509994507, -0.8715065568685532 l-3.4860262274742126, -0.14525108970701694 m3.9217793941497803, -1.5977619588375092 l0.14525108970701694, -2.7597707509994507 1.452510952949524, -3.050273060798645 l0.4357532784342766, 0.0 m-71.46353721618652, -33.6982536315918 l-0.14525108970701694, -2.4692685902118683 m-12.20109224319458, -17.139629125595093 l0.14525108970701694, -2.905021905899048 1.5977619588375092, -3.050273060798645 l4.067030549049377, -2.4692685902118683 2.324017435312271, -0.5810043588280678 l5.374290347099304, 0.0 2.7597707509994507, 0.8715065568685532 m20.04465103149414, 0.5810043588280678 l5.08378803730011, -3.9217793941497803 3.776528537273407, -2.0335152745246887 l3.776528537273407, -1.0167576372623444 2.905021905899048, 0.0 l4.793286025524139, 1.5977619588375092 2.7597707509994507, 3.776528537273407 " fill="none" stroke="black" stroke-width="1" /></svg>