<?xml version="1.0" encoding="utf-8" ?>
<svg baseProfile="full" height="39.19546912424266" version="1.1" width="64.17865650728345" xmlns="http://www.w3.org/2000/svg" xmlns:ev="http://www.w3.org/2001/xml-events" xmlns:xlink="http://www.w3.org/1999/xlink"><defs /><rect fill="white" height="39.19546912424266" width="64.17865650728345" x="0" y="0" /><path d="M35.50272837281227, 10.083787934854627 m1.452510952949524, -0.5810043588280678 l3.050273060798645, 0.14525108970701694 2.178766429424286, 0.8715065568685532 l1.1620087176561356, 1.452510952949524 1.0167576372623444, 2.905021905899048 l-1.5977619588375092, 5.6647926568984985 -1.452510952949524, 0.726255476474762 l-7.8435587882995605, -0.2905021794140339 -1.7430131137371063, -0.726255476474762 l-1.452510952949524, -1.452510952949524 -0.2905021794140339, -0.726255476474762 l1.7430131137371063, -6.826801300048828 4.938537180423737, -1.3072597980499268 l-6.2457966804504395, -3.9217793941497803 1.5977619588375092, -1.0167576372623444 l-2.178766429424286, 0.4357532784342766 -0.5810043588280678, 0.726255476474762 l1.7430131137371063, 5.955294966697693 m12.34634280204773, -2.4692685902118683 l-0.726255476474762, 0.0 3.63127738237381, -1.452510952949524 l3.776528537273407, -2.4692685902118683 -0.5810043588280678, 4.648034870624542 l-3.9217793941497803, 5.6647926568984985 m-10.748580694198608, -0.4357532784342766 l-0.5810043588280678, -1.3072597980499268 0.2905021794140339, -0.726255476474762 l2.0335152745246887, 1.3072597980499268 -0.726255476474762, 0.4357532784342766 l-0.8715065568685532, -0.14525108970701694 m4.648034870624542, 0.0 l-0.726255476474762, 0.4357532784342766 1.452510952949524, -1.7430131137371063 l-0.5810043588280678, 1.452510952949524 -1.0167576372623444, 0.2905021794140339 m-1.452510952949524, 2.178766429424286 l2.4692685902118683, 0.14525108970701694 1.0167576372623444, -0.4357532784342766 m-6.391047835350037, 0.2905021794140339 l0.2905021794140339, 1.452510952949524 1.1620087176561356, 1.3072597980499268 l1.3072597980499268, -2.7597707509994507 m1.0167576372623444, 0.0 l0.5810043588280678, 1.5977619588375092 1.3072597980499268, 1.0167576372623444 l0.5810043588280678, -2.324017435312271 m-11.76533818244934, -1.0167576372623444 l0.0, -2.324017435312271 -0.726255476474762, -0.4357532784342766 l-6.10054612159729, -1.7430131137371063 -2.6145195960998535, -0.2905021794140339 l-10.02232551574707, 0.14525108970701694 -2.6145195960998535, 1.452510952949524 l-1.452510952949524, 2.4692685902118683 -0.2905021794140339, 3.3407750725746155 l1.8882642686367035, 3.050273060798645 3.63127738237381, 3.050273060798645 l6.2457966804504395, 3.4860262274742126 4.648034870624542, 3.1955239176750183 l2.905021905899048, 0.5810043588280678 10.893832445144653, 0.0 l5.519541501998901, -0.726255476474762 1.452510952949524, -1.452510952949524 l0.4357532784342766, -1.452510952949524 -0.726255476474762, -6.681550145149231 m-23.385426998138428, 4.793286025524139 l-2.7597707509994507, -2.178766429424286 -2.4692685902118683, -4.067030549049377 l-1.452510952949524, -3.4860262274742126 -0.8715065568685532, -6.10054612159729 l7.26255476474762, 14.379857778549194 2.4692685902118683, 3.050273060798645 l2.7597707509994507, 0.4357532784342766 2.905021905899048, -1.7430131137371063 l5.08378803730011, -6.826801300048828 -0.2905021794140339, 8.715065717697144 l0.8715065568685532, -0.14525108970701694 4.938537180423737, -3.776528537273407 l3.1955239176750183, -1.452510952949524 2.0335152745246887, 0.0 l1.452510952949524, 2.0335152745246887 0.726255476474762, 6.391047835350037 l1.1620087176561356, 1.3072597980499268 13.653602600097656, 0.14525108970701694 " fill="none" stroke="black" stroke-width="1" /></svg>