<?xml version="1.0" encoding="utf-8" ?>
<svg baseProfile="full" height="59.530622474849224" version="1.1" width="52.413318417966366" xmlns="http://www.w3.org/2000/svg" xmlns:ev="http://www.w3.org/2001/xml-events" xmlns:xlink="http://www.w3.org/1999/xlink"><defs /><rect fill="white" height="59.530622474849224" width="52.413318417966366" x="0" y="0" /><path d="M11.391048077493906, 16.184334233403206 m-4.938537180423737, 2.4692685902118683 l-1.1620087176561356, 1.8882642686367035 -0.2905021794140339, 2.905021905899048 l0.4357532784342766, 0.8715065568685532 2.7597707509994507, 1.452510952949524 l4.502783715724945, 0.2905021794140339 m-6.10054612159729, -1.8882642686367035 l0.726255476474762, 4.648034870624542 0.8715065568685532, 0.2905021794140339 l2.178766429424286, -2.324017435312271 0.726255476474762, -1.452510952949524 l0.5810043588280678, 3.9217793941497803 3.1955239176750183, -4.502783715724945 m-3.050273060798645, -8.569814562797546 l-1.0167576372623444, 0.0 -0.726255476474762, -0.5810043588280678 l-1.5977619588375092, -3.050273060798645 0.0, -0.726255476474762 l1.8882642686367035, -3.3407750725746155 2.324017435312271, -1.8882642686367035 l7.407805919647217, -1.5977619588375092 6.536298990249634, 0.2905021794140339 l1.452510952949524, 0.726255476474762 4.793286025524139, 0.8715065568685532 l5.374290347099304, 9.150818586349487 0.726255476474762, 4.067030549049377 l2.0335152745246887, 6.10054612159729 0.4357532784342766, 9.441320896148682 l1.0167576372623444, 2.4692685902118683 4.067030549049377, 5.519541501998901 l0.8715065568685532, 2.178766429424286 0.0, 0.726255476474762 l-4.067030549049377, 1.3072597980499268 -0.726255476474762, 2.6145195960998535 l-0.2905021794140339, 3.776528537273407 -0.726255476474762, 0.2905021794140339 l-3.9217793941497803, -4.648034870624542 -2.178766429424286, -4.212281703948975 l-0.726255476474762, -0.5810043588280678 -3.1955239176750183, 0.2905021794140339 l-1.7430131137371063, -0.5810043588280678 -4.212281703948975, -2.324017435312271 l-7.988809943199158, -5.519541501998901 -1.0167576372623444, 3.050273060798645 l-1.452510952949524, 7.553057074546814 -1.3072597980499268, 1.1620087176561356 l-2.178766429424286, -0.14525108970701694 -1.1620087176561356, -0.726255476474762 l-1.1620087176561356, -2.0335152745246887 -0.14525108970701694, -3.1955239176750183 l0.5810043588280678, -2.6145195960998535 3.050273060798645, -4.357532858848572 l2.178766429424286, -4.793286025524139 0.5810043588280678, -5.519541501998901 l-0.726255476474762, -0.4357532784342766 m0.5810043588280678, -11.474835872650146 l-3.3407750725746155, 1.7430131137371063 -2.324017435312271, 0.14525108970701694 l-1.1620087176561356, -1.1620087176561356 -0.2905021794140339, -1.7430131137371063 l1.7430131137371063, -1.452510952949524 5.229039192199707, -0.14525108970701694 l0.8715065568685532, 0.726255476474762 0.5810043588280678, 2.0335152745246887 l-2.0335152745246887, 2.0335152745246887 -1.1620087176561356, 0.2905021794140339 m-3.3407750725746155, -2.6145195960998535 l0.0, 0.0 m0.726255476474762, -0.14525108970701694 l0.0, 0.0 m-0.14525108970701694, -1.0167576372623444 l0.4357532784342766, 0.726255476474762 -0.726255476474762, -0.4357532784342766 l0.4357532784342766, 0.8715065568685532 m5.6647926568984985, -7.8435587882995605 l-2.4692685902118683, 1.1620087176561356 -5.374290347099304, 5.08378803730011 " fill="none" stroke="black" stroke-width="1" /></svg>