<?xml version="1.0" encoding="utf-8" ?>
<svg baseProfile="full" height="52.12281667627394" version="1.1" width="76.8155023176223" xmlns="http://www.w3.org/2000/svg" xmlns:ev="http://www.w3.org/2001/xml-events" xmlns:xlink="http://www.w3.org/1999/xlink"><defs /><rect fill="white" height="52.12281667627394" width="76.8155023176223" x="0" y="0" /><path d="M21.12287152558565, 8.486026274040341 m0.5810043588280678, -0.726255476474762 l2.905021905899048, -1.452510952949524 5.519541501998901, -1.0167576372623444 m1.1620087176561356, 0.0 l6.2457966804504395, 0.8715065568685532 m12.491593360900879, 0.0 l9.441320896148682, -0.2905021794140339 3.050273060798645, 1.0167576372623444 l1.3072597980499268, 1.7430131137371063 0.0, 1.5977619588375092 l0.8715065568685532, -0.4357532784342766 1.1620087176561356, 0.14525108970701694 l3.4860262274742126, 3.1955239176750183 1.7430131137371063, 2.324017435312271 l0.4357532784342766, 3.050273060798645 -0.726255476474762, 1.8882642686367035 l-2.6145195960998535, 2.4692685902118683 -3.4860262274742126, 1.3072597980499268 l-3.1955239176750183, 0.4357532784342766 -0.5810043588280678, 0.8715065568685532 l1.1620087176561356, 4.793286025524139 -1.7430131137371063, 3.63127738237381 l-4.938537180423737, 5.374290347099304 -4.793286025524139, 3.3407750725746155 l-5.519541501998901, 2.0335152745246887 -5.519541501998901, 0.5810043588280678 l-6.391047835350037, 1.7430131137371063 -9.296069741249084, 0.14525108970701694 l-3.4860262274742126, -0.726255476474762 -4.793286025524139, -3.1955239176750183 l-2.7597707509994507, -3.4860262274742126 -4.067030549049377, -8.42456340789795 l-1.7430131137371063, -2.6145195960998535 -2.0335152745246887, -12.055840492248535 l0.14525108970701694, -0.726255476474762 4.067030549049377, -3.050273060798645 l4.648034870624542, -1.5977619588375092 10.02232551574707, -1.7430131137371063 l17.284879684448242, -0.14525108970701694 7.407805919647217, 1.1620087176561356 l-0.4357532784342766, -2.4692685902118683 4.502783715724945, -2.178766429424286 l4.067030549049377, -0.8715065568685532 11.329585313796997, 0.14525108970701694 l1.3072597980499268, 3.63127738237381 2.4692685902118683, 3.3407750725746155 m-44.15633201599121, 9.150818586349487 l-3.3407750725746155, 0.0 -2.905021905899048, 1.8882642686367035 l-3.1955239176750183, 1.0167576372623444 -4.793286025524139, 0.5810043588280678 l-1.3072597980499268, 1.3072597980499268 0.14525108970701694, 2.178766429424286 l1.8882642686367035, 2.178766429424286 2.178766429424286, 1.1620087176561356 l1.5977619588375092, -0.4357532784342766 4.793286025524139, -3.1955239176750183 l6.681550145149231, -1.3072597980499268 m-10.458078384399414, 6.391047835350037 l1.5977619588375092, 1.5977619588375092 1.8882642686367035, 0.8715065568685532 l5.229039192199707, 0.8715065568685532 4.067030549049377, 0.14525108970701694 l5.519541501998901, -2.7597707509994507 3.9217793941497803, -3.1955239176750183 l-0.4357532784342766, -0.726255476474762 m-21.497161388397217, 2.178766429424286 l13.217849731445312, -1.3072597980499268 8.134061098098755, 0.2905021794140339 m-21.206660270690918, -2.4692685902118683 l0.4357532784342766, 1.0167576372623444 m1.1620087176561356, -1.0167576372623444 l0.4357532784342766, 0.2905021794140339 m1.452510952949524, -0.8715065568685532 l1.3072597980499268, 1.1620087176561356 m0.4357532784342766, -0.8715065568685532 l0.5810043588280678, -0.2905021794140339 m0.726255476474762, -0.2905021794140339 l0.14525108970701694, 0.726255476474762 0.0, -0.8715065568685532 l-1.0167576372623444, 1.452510952949524 -0.726255476474762, 0.14525108970701694 l-1.7430131137371063, -1.0167576372623444 -2.905021905899048, 1.0167576372623444 l-0.726255476474762, 0.4357532784342766 0.2905021794140339, 1.0167576372623444 l2.324017435312271, -0.8715065568685532 2.178766429424286, 1.7430131137371063 l1.452510952949524, -2.178766429424286 2.178766429424286, 2.4692685902118683 l0.5810043588280678, -0.726255476474762 0.14525108970701694, -1.452510952949524 l1.452510952949524, -0.8715065568685532 0.8715065568685532, -1.7430131137371063 l-0.14525108970701694, 2.4692685902118683 -1.452510952949524, -1.1620087176561356 l-0.726255476474762, 0.8715065568685532 -1.452510952949524, 0.14525108970701694 l-1.1620087176561356, 0.4357532784342766 -1.1620087176561356, 1.1620087176561356 l-0.8715065568685532, 0.0 m7.553057074546814, -14.670360088348389 l-1.0167576372623444, -0.4357532784342766 -1.452510952949524, 0.14525108970701694 l0.14525108970701694, 0.8715065568685532 0.4357532784342766, 0.726255476474762 l2.6145195960998535, 1.3072597980499268 0.726255476474762, -0.4357532784342766 l0.0, -0.726255476474762 -2.0335152745246887, -1.7430131137371063 l0.0, 1.5977619588375092 0.726255476474762, 0.0 l0.0, -1.5977619588375092 -0.2905021794140339, 0.726255476474762 l2.4692685902118683, 0.0 m7.698307633399963, 2.6145195960998535 l-1.7430131137371063, 0.4357532784342766 -0.5810043588280678, -0.8715065568685532 l0.8715065568685532, -1.7430131137371063 1.3072597980499268, -1.0167576372623444 l3.1955239176750183, -0.726255476474762 1.452510952949524, 0.4357532784342766 l0.726255476474762, 0.8715065568685532 -0.2905021794140339, 1.452510952949524 l-0.8715065568685532, 0.2905021794140339 -2.324017435312271, 0.0 l-1.5977619588375092, -1.3072597980499268 1.0167576372623444, -0.2905021794140339 l0.726255476474762, 0.5810043588280678 -1.452510952949524, 0.5810043588280678 l2.4692685902118683, -0.4357532784342766 0.726255476474762, 0.14525108970701694 l0.0, 0.726255476474762 -1.7430131137371063, 0.726255476474762 l-0.726255476474762, -0.4357532784342766 -0.8715065568685532, -1.5977619588375092 l0.726255476474762, 0.2905021794140339 0.14525108970701694, 0.726255476474762 l-2.4692685902118683, -0.14525108970701694 2.324017435312271, -1.1620087176561356 l1.7430131137371063, 0.0 0.4357532784342766, 0.8715065568685532 l-0.5810043588280678, 0.8715065568685532 -1.0167576372623444, 0.5810043588280678 l-2.6145195960998535, 0.2905021794140339 -1.5977619588375092, -0.726255476474762 l0.0, -1.452510952949524 0.726255476474762, -0.4357532784342766 l3.1955239176750183, 0.14525108970701694 1.3072597980499268, 1.0167576372623444 l0.5810043588280678, 1.452510952949524 -1.8882642686367035, -0.14525108970701694 l-1.452510952949524, -1.1620087176561356 0.4357532784342766, -0.8715065568685532 l3.9217793941497803, 0.0 0.4357532784342766, 0.726255476474762 l-0.726255476474762, 0.726255476474762 -3.050273060798645, 0.0 l-2.6145195960998535, -1.0167576372623444 -0.5810043588280678, -0.726255476474762 l0.4357532784342766, -0.726255476474762 1.5977619588375092, -0.4357532784342766 l6.826801300048828, 0.2905021794140339 0.8715065568685532, 0.14525108970701694 l-0.726255476474762, 0.726255476474762 -2.324017435312271, 0.2905021794140339 " fill="none" stroke="black" stroke-width="1" /></svg>