<?xml version="1.0" encoding="utf-8" ?>
<svg baseProfile="full" height="65.77641993761063" version="1.1" width="80.01102659851313" xmlns="http://www.w3.org/2000/svg" xmlns:ev="http://www.w3.org/2001/xml-events" xmlns:xlink="http://www.w3.org/1999/xlink"><defs /><rect fill="white" height="65.77641993761063" width="80.01102659851313" x="0" y="0" /><path d="M51.6256005410105, 39.13400604389608 m-0.2905021794140339, -2.4692685902118683 l-1.7430131137371063, -2.324017435312271 -4.357532858848572, -1.8882642686367035 l-11.184333562850952, -0.4357532784342766 -2.905021905899048, 0.8715065568685532 l-3.3407750725746155, 1.8882642686367035 -0.4357532784342766, 1.452510952949524 l-0.14525108970701694, 3.050273060798645 1.7430131137371063, 6.10054612159729 l0.8715065568685532, 1.5977619588375092 2.178766429424286, 2.178766429424286 l5.08378803730011, 1.5977619588375092 5.810043811798096, 0.0 l4.357532858848572, -1.8882642686367035 3.4860262274742126, -3.776528537273407 l1.8882642686367035, -3.9217793941497803 0.0, -3.3407750725746155 l-1.3072597980499268, -2.178766429424286 -1.5977619588375092, -1.1620087176561356 l-1.5977619588375092, -0.14525108970701694 m-14.379857778549194, 2.4692685902118683 l0.0, -0.726255476474762 -0.726255476474762, -0.5810043588280678 l-0.8715065568685532, 0.5810043588280678 -1.0167576372623444, 1.452510952949524 l-0.14525108970701694, 1.452510952949524 2.178766429424286, 0.726255476474762 l2.178766429424286, -1.5977619588375092 0.5810043588280678, -1.452510952949524 l0.0, -1.452510952949524 -0.5810043588280678, -0.4357532784342766 m10.02232551574707, 3.3407750725746155 l-2.178766429424286, 0.4357532784342766 0.4357532784342766, 2.178766429424286 l1.452510952949524, 0.4357532784342766 1.1620087176561356, -1.452510952949524 l-0.14525108970701694, -1.452510952949524 -1.3072597980499268, -0.8715065568685532 m-6.10054612159729, 5.6647926568984985 l0.726255476474762, 0.14525108970701694 0.14525108970701694, -0.726255476474762 l-0.726255476474762, -0.14525108970701694 0.0, 0.4357532784342766 m-11.910589933395386, 0.2905021794140339 l-1.5977619588375092, -1.3072597980499268 -6.10054612159729, -2.4692685902118683 l-12.20109224319458, -3.4860262274742126 2.4692685902118683, 2.0335152745246887 l0.4357532784342766, -0.726255476474762 -1.452510952949524, -3.3407750725746155 l-3.3407750725746155, -11.039083003997803 -0.14525108970701694, -5.08378803730011 l0.726255476474762, -0.4357532784342766 0.726255476474762, 0.4357532784342766 l3.776528537273407, 3.63127738237381 1.452510952949524, 0.5810043588280678 l1.452510952949524, -1.5977619588375092 4.212281703948975, -7.1173036098480225 l3.3407750725746155, -8.134061098098755 4.938537180423737, 10.312827825546265 l2.178766429424286, 2.4692685902118683 1.7430131137371063, 0.2905021794140339 l9.731823205947876, -5.6647926568984985 3.3407750725746155, -1.0167576372623444 l0.4357532784342766, 8.715065717697144 1.1620087176561356, 3.050273060798645 l0.726255476474762, 0.2905021794140339 4.648034870624542, -3.4860262274742126 l2.324017435312271, -1.0167576372623444 7.1173036098480225, 2.178766429424286 l4.938537180423737, 2.0335152745246887 1.5977619588375092, 1.452510952949524 l0.0, 1.0167576372623444 -0.5810043588280678, 0.8715065568685532 l6.391047835350037, 0.0 3.050273060798645, 1.5977619588375092 l0.5810043588280678, 3.4860262274742126 -1.8882642686367035, 4.793286025524139 l1.0167576372623444, 3.4860262274742126 -4.067030549049377, 3.4860262274742126 l-0.726255476474762, 1.1620087176561356 -0.4357532784342766, 1.8882642686367035 l0.2905021794140339, 1.5977619588375092 -11.910589933395386, 0.726255476474762 l-0.5810043588280678, 0.8715065568685532 0.2905021794140339, 0.726255476474762 l3.63127738237381, 4.212281703948975 0.726255476474762, 1.7430131137371063 l-0.726255476474762, 0.8715065568685532 -3.3407750725746155, 1.7430131137371063 l-3.3407750725746155, 0.2905021794140339 -3.4860262274742126, -1.8882642686367035 l-2.6145195960998535, -0.4357532784342766 -0.726255476474762, 0.726255476474762 l-0.5810043588280678, 2.324017435312271 -1.8882642686367035, 0.2905021794140339 l-6.10054612159729, -3.63127738237381 -4.938537180423737, -0.4357532784342766 l-6.2457966804504395, 2.905021905899048 -1.0167576372623444, 1.7430131137371063 l-4.067030549049377, -4.502783715724945 -6.10054612159729, -3.1955239176750183 l-2.0335152745246887, -0.5810043588280678 0.726255476474762, -0.4357532784342766 l2.7597707509994507, -4.212281703948975 1.5977619588375092, -4.212281703948975 l0.2905021794140339, -2.7597707509994507 5.374290347099304, -1.5977619588375092 l0.726255476474762, -0.5810043588280678 -0.14525108970701694, -0.726255476474762 l-0.8715065568685532, 0.0 " fill="none" stroke="black" stroke-width="1" /></svg>