<?xml version="1.0" encoding="utf-8" ?>
<svg baseProfile="full" height="101.508186776191" version="1.1" width="135.3516914974898" xmlns="http://www.w3.org/2000/svg" xmlns:ev="http://www.w3.org/2001/xml-events" xmlns:xlink="http://www.w3.org/1999/xlink"><defs /><rect fill="white" height="101.508186776191" width="135.3516914974898" x="0" y="0" /><path d="M78.06129991076887, 25.18990165553987 m-5.374290347099304, -0.8715065568685532 l-17.72063374519348, -0.14525108970701694 -10.603330135345459, 0.8715065568685532 l-3.776528537273407, 1.452510952949524 -4.793286025524139, 3.1955239176750183 l-4.212281703948975, 4.067030549049377 -1.452510952949524, 2.178766429424286 l-1.7430131137371063, 4.793286025524139 0.14525108970701694, 8.715065717697144 l1.8882642686367035, 6.391047835350037 2.905021905899048, 3.776528537273407 l6.826801300048828, 6.972052454948425 4.793286025524139, 3.3407750725746155 l2.905021905899048, 1.3072597980499268 8.715065717697144, 3.050273060798645 l10.16757607460022, 0.4357532784342766 6.391047835350037, -0.5810043588280678 l8.86031687259674, -2.324017435312271 3.050273060798645, -1.5977619588375092 l1.7430131137371063, -1.7430131137371063 2.4692685902118683, -3.3407750725746155 l2.7597707509994507, -6.681550145149231 0.726255476474762, -3.63127738237381 l-0.14525108970701694, -10.893832445144653 -3.776528537273407, -7.988809943199158 l-1.5977619588375092, -1.3072597980499268 -8.715065717697144, -4.357532858848572 l-7.553057074546814, -2.7597707509994507 m-29.921724796295166, -18.01113486289978 l0.8715065568685532, 2.178766429424286 3.9217793941497803, 5.6647926568984985 l3.3407750725746155, 3.4860262274742126 2.0335152745246887, 1.1620087176561356 l2.4692685902118683, -2.905021905899048 2.7597707509994507, -5.6647926568984985 l2.4692685902118683, -2.7597707509994507 0.726255476474762, -0.2905021794140339 l0.726255476474762, 0.5810043588280678 3.1955239176750183, 9.296069741249084 l2.6145195960998535, -2.4692685902118683 5.519541501998901, -6.972052454948425 l3.3407750725746155, -3.3407750725746155 4.067030549049377, -2.4692685902118683 l0.726255476474762, 0.0 0.5810043588280678, 2.7597707509994507 l0.14525108970701694, 6.2457966804504395 -2.0335152745246887, 6.826801300048828 l6.681550145149231, -5.810043811798096 5.229039192199707, -3.050273060798645 l2.4692685902118683, -1.3072597980499268 5.810043811798096, -0.5810043588280678 l1.7430131137371063, 1.3072597980499268 -0.2905021794140339, 2.324017435312271 l-1.452510952949524, 2.7597707509994507 -5.810043811798096, 6.826801300048828 l25.70944309234619, 0.0 4.793286025524139, 1.452510952949524 l-14.52510952949524, 4.938537180423737 -6.681550145149231, 3.4860262274742126 l0.14525108970701694, 0.726255476474762 3.776528537273407, 0.8715065568685532 l10.603330135345459, 1.0167576372623444 5.374290347099304, 1.5977619588375092 l0.4357532784342766, 0.8715065568685532 -9.00556743144989, 6.536298990249634 l-0.4357532784342766, 1.7430131137371063 4.212281703948975, 3.1955239176750183 l10.748580694198608, 4.793286025524139 2.324017435312271, 1.5977619588375092 l-3.1955239176750183, 1.7430131137371063 -17.575381994247437, 0.8715065568685532 l0.14525108970701694, 0.8715065568685532 1.3072597980499268, 1.7430131137371063 l5.955294966697693, 6.536298990249634 0.726255476474762, 3.050273060798645 l-0.726255476474762, 1.0167576372623444 -3.1955239176750183, 0.5810043588280678 l-2.4692685902118683, 0.0 -6.536298990249634, -1.452510952949524 l0.0, 7.988809943199158 0.8715065568685532, 9.441320896148682 l-1.0167576372623444, -0.2905021794140339 -9.00556743144989, -9.150818586349487 l-10.893832445144653, -8.134061098098755 -5.229039192199707, -3.3407750725746155 l2.0335152745246887, 3.4860262274742126 1.3072597980499268, 4.648034870624542 l0.0, 1.0167576372623444 -0.726255476474762, 0.4357532784342766 l-0.726255476474762, 11.76533818244934 -0.5810043588280678, 1.1620087176561356 l-0.14525108970701694, 2.0335152745246887 -0.726255476474762, -1.7430131137371063 l-2.6145195960998535, 4.793286025524139 -1.5977619588375092, 1.3072597980499268 l-1.1620087176561356, -7.988809943199158 -1.1620087176561356, -0.2905021794140339 l-6.2457966804504395, 5.08378803730011 -0.5810043588280678, -1.0167576372623444 l-0.14525108970701694, -9.00556743144989 -0.726255476474762, -5.955294966697693 l-2.178766429424286, 1.3072597980499268 -3.050273060798645, 2.905021905899048 l-6.826801300048828, 5.229039192199707 0.0, -7.26255476474762 l-9.731823205947876, 2.6145195960998535 -9.150818586349487, 1.452510952949524 l3.9217793941497803, -6.391047835350037 1.5977619588375092, -4.793286025524139 l-5.229039192199707, 2.905021905899048 -9.586572051048279, 3.4860262274742126 l3.4860262274742126, -9.150818586349487 -9.00556743144989, -0.2905021794140339 l-5.810043811798096, -1.0167576372623444 -5.229039192199707, -3.050273060798645 l-1.3072597980499268, -1.7430131137371063 0.14525108970701694, -2.7597707509994507 l1.5977619588375092, -2.324017435312271 1.7430131137371063, -1.5977619588375092 l3.4860262274742126, -2.0335152745246887 0.726255476474762, -1.0167576372623444 l-0.2905021794140339, -1.0167576372623444 -2.4692685902118683, -2.178766429424286 l-7.407805919647217, -4.502783715724945 -0.14525108970701694, -1.0167576372623444 l2.6145195960998535, -4.502783715724945 9.296069741249084, -12.055840492248535 l1.0167576372623444, -2.324017435312271 0.5810043588280678, -4.357532858848572 l-0.8715065568685532, -1.8882642686367035 -1.5977619588375092, -1.0167576372623444 " fill="none" stroke="black" stroke-width="1" /></svg>