<?xml version="1.0" encoding="utf-8" ?>
<svg baseProfile="full" height="48.49153811112046" version="1.1" width="48.201036769896746" xmlns="http://www.w3.org/2000/svg" xmlns:ev="http://www.w3.org/2001/xml-events" xmlns:xlink="http://www.w3.org/1999/xlink"><defs /><rect fill="white" height="48.49153811112046" width="48.201036769896746" x="0" y="0" /><path d="M21.558624440804124, 9.648033678531647 m1.5977619588375092, -2.905021905899048 l2.324017435312271, -1.0167576372623444 2.324017435312271, 0.2905021794140339 l5.519541501998901, 3.63127738237381 0.726255476474762, -2.905021905899048 l1.0167576372623444, -0.5810043588280678 1.0167576372623444, 0.14525108970701694 l1.8882642686367035, 1.8882642686367035 0.2905021794140339, 1.0167576372623444 m-16.558624505996704, 0.4357532784342766 l-0.2905021794140339, -2.0335152745246887 -0.726255476474762, -1.1620087176561356 l-1.3072597980499268, -0.726255476474762 -4.067030549049377, -0.14525108970701694 l-5.374290347099304, 1.5977619588375092 -2.178766429424286, 2.4692685902118683 l-2.6145195960998535, 5.08378803730011 -0.14525108970701694, 1.1620087176561356 l0.2905021794140339, 1.452510952949524 1.452510952949524, 2.6145195960998535 l0.0, 7.26255476474762 1.8882642686367035, 4.357532858848572 l3.9217793941497803, 4.938537180423737 6.681550145149231, 3.1955239176750183 l1.5977619588375092, 1.452510952949524 1.0167576372623444, 2.324017435312271 l1.5977619588375092, -4.502783715724945 0.726255476474762, -0.5810043588280678 l1.0167576372623444, 3.776528537273407 2.905021905899048, -2.0335152745246887 l0.5810043588280678, 2.178766429424286 1.1620087176561356, 0.0 l5.229039192199707, -4.357532858848572 3.1955239176750183, -5.374290347099304 l2.324017435312271, -6.391047835350037 2.0335152745246887, -7.407805919647217 l0.5810043588280678, -3.776528537273407 0.0, -4.067030549049377 l-0.4357532784342766, -1.3072597980499268 -1.0167576372623444, -1.5977619588375092 l-1.7430131137371063, -0.5810043588280678 m-19.754148721694946, 6.826801300048828 l-5.229039192199707, -3.4860262274742126 -0.726255476474762, -0.2905021794140339 l-0.5810043588280678, 0.8715065568685532 0.14525108970701694, 2.0335152745246887 l1.5977619588375092, 2.324017435312271 0.2905021794140339, 4.938537180423737 l1.5977619588375092, 3.4860262274742126 0.4357532784342766, 5.955294966697693 l0.5810043588280678, 1.452510952949524 1.452510952949524, 1.1620087176561356 l5.6647926568984985, 0.5810043588280678 3.050273060798645, -2.4692685902118683 l1.452510952949524, -4.502783715724945 5.08378803730011, -7.553057074546814 l1.8882642686367035, -4.067030549049377 0.0, -1.5977619588375092 l-1.5977619588375092, -0.2905021794140339 -2.905021905899048, 1.5977619588375092 l-9.150818586349487, -0.4357532784342766 -1.1620087176561356, 0.8715065568685532 m-0.8715065568685532, 4.357532858848572 l0.2905021794140339, 1.7430131137371063 0.5810043588280678, 0.726255476474762 m6.536298990249634, -3.1955239176750183 l0.14525108970701694, 3.4860262274742126 m-6.391047835350037, 8.86031687259674 l0.8715065568685532, -0.5810043588280678 2.324017435312271, -0.14525108970701694 l0.726255476474762, -0.4357532784342766 -1.1620087176561356, -1.0167576372623444 l-2.324017435312271, -0.14525108970701694 3.1955239176750183, 0.0 l-1.5977619588375092, 0.0 -0.8715065568685532, 0.4357532784342766 l0.0, 0.4357532784342766 m-1.8882642686367035, -20.916156768798828 l-0.726255476474762, -0.5810043588280678 -1.0167576372623444, -2.905021905899048 l0.726255476474762, 0.0 2.6145195960998535, 1.7430131137371063 l2.6145195960998535, 0.8715065568685532 1.0167576372623444, 0.2905021794140339 l-1.452510952949524, -1.452510952949524 5.519541501998901, 1.7430131137371063 l-6.972052454948425, -0.726255476474762 -12.055840492248535, 0.0 l-2.7597707509994507, 1.8882642686367035 -1.8882642686367035, 2.6145195960998535 l-0.726255476474762, 1.7430131137371063 0.726255476474762, 0.5810043588280678 l2.324017435312271, -1.7430131137371063 4.212281703948975, -4.793286025524139 l-1.7430131137371063, 0.2905021794140339 -2.324017435312271, 2.178766429424286 l-3.1955239176750183, 4.793286025524139 -1.3072597980499268, 4.357532858848572 l0.0, 0.8715065568685532 1.3072597980499268, 0.0 l2.178766429424286, -1.8882642686367035 5.08378803730011, -6.536298990249634 l-4.793286025524139, 5.229039192199707 -1.3072597980499268, 3.9217793941497803 l0.2905021794140339, 6.391047835350037 1.452510952949524, 0.5810043588280678 l1.5977619588375092, -0.14525108970701694 m2.6145195960998535, -12.636845111846924 l-0.8715065568685532, 1.3072597980499268 -1.0167576372623444, 5.229039192199707 l0.0, 8.42456340789795 2.0335152745246887, 4.067030549049377 l1.5977619588375092, 1.0167576372623444 m-2.178766429424286, -14.379857778549194 l-0.5810043588280678, 0.8715065568685532 -0.4357532784342766, 3.3407750725746155 l0.14525108970701694, 7.407805919647217 1.0167576372623444, 2.4692685902118683 l3.776528537273407, 4.212281703948975 1.7430131137371063, 1.0167576372623444 l2.324017435312271, 0.2905021794140339 m-4.648034870624542, -12.055840492248535 l-0.14525108970701694, 1.0167576372623444 1.3072597980499268, 3.3407750725746155 l2.905021905899048, 4.212281703948975 2.905021905899048, 2.4692685902118683 l3.776528537273407, 1.3072597980499268 " fill="none" stroke="black" stroke-width="1" /></svg>