<?xml version="1.0" encoding="utf-8" ?>
<svg baseProfile="full" height="99.47467407211661" version="1.1" width="124.02210498228669" xmlns="http://www.w3.org/2000/svg" xmlns:ev="http://www.w3.org/2001/xml-events" xmlns:xlink="http://www.w3.org/1999/xlink"><defs /><rect fill="white" height="99.47467407211661" width="124.02210498228669" x="0" y="0" /><path d="M56.85464030131698, 34.48597435839474 m5.6647926568984985, -0.8715065568685532 l5.810043811798096, -0.14525108970701694 4.793286025524139, 1.452510952949524 l4.502783715724945, 3.1955239176750183 2.0335152745246887, 2.0335152745246887 l1.7430131137371063, 2.6145195960998535 1.5977619588375092, 2.905021905899048 l1.452510952949524, 6.391047835350037 0.4357532784342766, 8.279312252998352 l-0.14525108970701694, 3.9217793941497803 -1.1620087176561356, 3.9217793941497803 l-2.178766429424286, 4.067030549049377 -2.4692685902118683, 3.63127738237381 l-6.10054612159729, 4.793286025524139 -3.63127738237381, 1.0167576372623444 l-8.279312252998352, 0.4357532784342766 -4.502783715724945, -1.452510952949524 l-8.569814562797546, -5.955294966697693 -5.810043811798096, -7.988809943199158 l-1.7430131137371063, -4.793286025524139 -0.8715065568685532, -4.793286025524139 l-0.14525108970701694, -3.4860262274742126 0.726255476474762, -3.3407750725746155 l4.357532858848572, -5.6647926568984985 11.474835872650146, -8.42456340789795 m5.229039192199707, -3.9217793941497803 l0.14525108970701694, -1.3072597980499268 -1.3072597980499268, -4.212281703948975 l-5.374290347099304, -8.279312252998352 -8.134061098098755, -8.134061098098755 l-2.905021905899048, -2.0335152745246887 -5.810043811798096, -2.905021905899048 l-4.502783715724945, -0.14525108970701694 -0.14525108970701694, 1.452510952949524 l0.4357532784342766, 1.1620087176561356 4.212281703948975, 4.648034870624542 l3.4860262274742126, 5.229039192199707 3.050273060798645, 6.391047835350037 l1.1620087176561356, 3.63127738237381 0.726255476474762, 4.502783715724945 l-2.7597707509994507, -0.14525108970701694 -9.877074360847473, -5.519541501998901 l-3.9217793941497803, -2.7597707509994507 -11.474835872650146, -5.519541501998901 l-5.810043811798096, -0.726255476474762 -4.357532858848572, 1.0167576372623444 l-2.324017435312271, 2.7597707509994507 -0.5810043588280678, 2.178766429424286 l0.14525108970701694, 5.955294966697693 3.3407750725746155, 6.2457966804504395 l3.4860262274742126, 4.502783715724945 3.9217793941497803, 2.905021905899048 l4.793286025524139, 1.3072597980499268 16.413373947143555, 0.14525108970701694 l-3.050273060798645, 0.14525108970701694 -10.893832445144653, 3.63127738237381 l-6.681550145149231, 4.067030549049377 -5.810043811798096, 5.229039192199707 l-2.0335152745246887, 2.4692685902118683 -2.178766429424286, 4.938537180423737 l-0.726255476474762, 3.9217793941497803 0.8715065568685532, 2.7597707509994507 l1.8882642686367035, 1.1620087176561356 2.4692685902118683, 0.726255476474762 l10.458078384399414, 1.1620087176561356 7.26255476474762, 0.14525108970701694 l3.63127738237381, -0.4357532784342766 3.3407750725746155, -1.3072597980499268 l5.229039192199707, -3.3407750725746155 3.3407750725746155, -4.502783715724945 l-1.8882642686367035, 0.5810043588280678 -2.178766429424286, 2.178766429424286 l-15.106114149093628, 19.899399280548096 2.7597707509994507, 1.1620087176561356 l2.7597707509994507, 0.4357532784342766 11.039083003997803, 0.14525108970701694 l7.26255476474762, -1.452510952949524 8.569814562797546, -3.9217793941497803 l-7.26255476474762, 5.810043811798096 -1.1620087176561356, 3.1955239176750183 l1.3072597980499268, 1.0167576372623444 15.977619886398315, -0.2905021794140339 l3.63127738237381, -1.3072597980499268 11.184333562850952, -5.810043811798096 l0.726255476474762, 0.2905021794140339 -0.4357532784342766, 6.2457966804504395 l1.1620087176561356, 0.2905021794140339 2.178766429424286, -0.4357532784342766 l14.670360088348389, -10.312827825546265 5.955294966697693, -3.1955239176750183 l4.938537180423737, -2.0335152745246887 -7.988809943199158, 1.7430131137371063 l-2.905021905899048, 0.14525108970701694 0.14525108970701694, -1.0167576372623444 l11.184333562850952, -9.296069741249084 5.08378803730011, -5.810043811798096 l2.7597707509994507, -6.972052454948425 0.4357532784342766, -5.229039192199707 l-0.8715065568685532, -1.8882642686367035 -1.7430131137371063, -1.3072597980499268 l-2.0335152745246887, -0.8715065568685532 -2.6145195960998535, -0.2905021794140339 l-5.519541501998901, 0.4357532784342766 -7.26255476474762, 2.324017435312271 l3.9217793941497803, -3.776528537273407 3.050273060798645, -5.810043811798096 l0.726255476474762, -2.6145195960998535 0.14525108970701694, -3.050273060798645 l0.0, -2.7597707509994507 -0.8715065568685532, -1.8882642686367035 l-1.0167576372623444, -0.5810043588280678 -1.3072597980499268, 0.0 l-4.067030549049377, 6.10054612159729 -2.178766429424286, 0.14525108970701694 l-0.5810043588280678, -2.4692685902118683 -1.452510952949524, -16.413373947143555 l-0.8715065568685532, 0.4357532784342766 -3.3407750725746155, 4.502783715724945 l-1.8882642686367035, 1.452510952949524 -1.452510952949524, 0.0 l-1.8882642686367035, -0.726255476474762 -1.5977619588375092, -2.6145195960998535 l-3.776528537273407, -9.877074360847473 -3.1955239176750183, -4.067030549049377 l-1.7430131137371063, -0.8715065568685532 -2.4692685902118683, 0.0 l-2.178766429424286, 1.0167576372623444 -7.1173036098480225, 7.26255476474762 l-2.7597707509994507, 1.8882642686367035 -0.726255476474762, 0.14525108970701694 l-0.2905021794140339, -0.5810043588280678 m-3.9217793941497803, 33.84350538253784 l0.4357532784342766, 1.1620087176561356 -2.324017435312271, 2.178766429424286 m16.413373947143555, -4.502783715724945 l1.0167576372623444, 0.14525108970701694 0.4357532784342766, 0.726255476474762 l-0.2905021794140339, 2.0335152745246887 -0.726255476474762, 0.8715065568685532 l-2.178766429424286, 0.2905021794140339 -0.726255476474762, -2.178766429424286 m-17.284879684448242, 11.620087623596191 l6.536298990249634, -2.905021905899048 5.810043811798096, -0.2905021794140339 l4.938537180423737, 1.5977619588375092 4.793286025524139, 2.4692685902118683 l2.178766429424286, 2.4692685902118683 0.4357532784342766, 3.050273060798645 l-0.726255476474762, 2.0335152745246887 -1.5977619588375092, 1.8882642686367035 l-4.648034870624542, 3.050273060798645 " fill="none" stroke="black" stroke-width="1" /></svg>