<?xml version="1.0" encoding="utf-8" ?>
<svg baseProfile="full" height="89.5975982118398" version="1.1" width="108.04448688402772" xmlns="http://www.w3.org/2000/svg" xmlns:ev="http://www.w3.org/2001/xml-events" xmlns:xlink="http://www.w3.org/1999/xlink"><defs /><rect fill="white" height="89.5975982118398" width="108.04448688402772" x="0" y="0" /><path d="M49.44683387875557, 21.558622354641557 m-4.648034870624542, 1.8882642686367035 l-3.9217793941497803, 3.1955239176750183 -3.9217793941497803, 4.938537180423737 l-2.4692685902118683, 5.955294966697693 -1.3072597980499268, 5.519541501998901 l-0.8715065568685532, 8.279312252998352 1.3072597980499268, 8.134061098098755 l2.7597707509994507, 4.067030549049377 2.6145195960998535, 2.6145195960998535 l3.9217793941497803, 2.7597707509994507 6.536298990249634, 2.7597707509994507 l6.972052454948425, 1.3072597980499268 6.2457966804504395, -0.14525108970701694 l4.793286025524139, -1.1620087176561356 3.1955239176750183, -1.3072597980499268 l3.9217793941497803, -3.1955239176750183 3.63127738237381, -4.648034870624542 l1.7430131137371063, -5.08378803730011 m1.8882642686367035, -7.988809943199158 l0.0, -0.2905021794140339 m-0.726255476474762, -6.391047835350037 l-2.6145195960998535, -9.296069741249084 -2.7597707509994507, -4.502783715724945 l-4.067030549049377, -5.08378803730011 -6.972052454948425, -4.793286025524139 l-4.648034870624542, -1.8882642686367035 -4.502783715724945, -0.8715065568685532 l-2.7597707509994507, 0.0 -3.4860262274742126, 0.726255476474762 m18.882641792297363, 2.6145195960998535 l3.63127738237381, -3.1955239176750183 3.050273060798645, -1.3072597980499268 l2.7597707509994507, -0.2905021794140339 2.0335152745246887, 0.8715065568685532 l1.0167576372623444, 1.5977619588375092 -0.5810043588280678, 3.050273060798645 l-1.7430131137371063, 3.050273060798645 -3.1955239176750183, 3.1955239176750183 m-34.569759368896484, -3.3407750725746155 l-0.8715065568685532, -2.905021905899048 -1.452510952949524, -1.8882642686367035 l-3.1955239176750183, -2.178766429424286 -2.324017435312271, -0.14525108970701694 l-1.3072597980499268, 0.4357532784342766 -1.452510952949524, 0.726255476474762 l-1.7430131137371063, 1.8882642686367035 -0.5810043588280678, 3.63127738237381 l1.1620087176561356, 3.776528537273407 1.5977619588375092, 2.4692685902118683 l3.1955239176750183, 2.905021905899048 0.726255476474762, 0.14525108970701694 m-5.955294966697693, -25.128438472747803 l-4.648034870624542, -1.3072597980499268 -5.374290347099304, -0.726255476474762 l-2.905021905899048, 0.5810043588280678 -2.6145195960998535, 1.452510952949524 l-1.8882642686367035, 3.1955239176750183 -0.726255476474762, 2.6145195960998535 l0.14525108970701694, 3.3407750725746155 1.1620087176561356, 2.6145195960998535 l-2.7597707509994507, 2.178766429424286 -2.4692685902118683, 3.4860262274742126 l-1.1620087176561356, 4.357532858848572 -0.14525108970701694, 3.050273060798645 l0.726255476474762, 4.357532858848572 1.0167576372623444, 2.178766429424286 l1.7430131137371063, 1.7430131137371063 1.5977619588375092, 0.8715065568685532 l2.0335152745246887, 0.2905021794140339 0.4357532784342766, 1.1620087176561356 l-0.2905021794140339, 13.072597980499268 0.8715065568685532, 4.793286025524139 l1.3072597980499268, 2.7597707509994507 3.3407750725746155, 3.4860262274742126 l2.6145195960998535, 1.0167576372623444 2.7597707509994507, -0.5810043588280678 l2.7597707509994507, -1.3072597980499268 1.3072597980499268, 2.178766429424286 l2.4692685902118683, 7.8435587882995605 3.3407750725746155, 3.4860262274742126 l0.726255476474762, 0.4357532784342766 3.4860262274742126, -0.14525108970701694 l5.955294966697693, -2.4692685902118683 0.8715065568685532, 0.4357532784342766 l4.212281703948975, 4.938537180423737 2.6145195960998535, 1.5977619588375092 l2.178766429424286, 0.5810043588280678 2.178766429424286, 0.0 l3.1955239176750183, -0.726255476474762 8.134061098098755, -4.357532858848572 l5.519541501998901, 1.8882642686367035 2.324017435312271, 0.14525108970701694 l5.374290347099304, -0.8715065568685532 4.938537180423737, -2.905021905899048 l1.5977619588375092, -1.8882642686367035 1.0167576372623444, -3.4860262274742126 l0.4357532784342766, -3.776528537273407 0.726255476474762, -0.5810043588280678 l4.793286025524139, 0.0 3.3407750725746155, -1.1620087176561356 l3.3407750725746155, -2.7597707509994507 2.4692685902118683, -4.357532858848572 l0.5810043588280678, -7.1173036098480225 -0.4357532784342766, -3.050273060798645 l-1.452510952949524, -2.178766429424286 -3.63127738237381, -2.4692685902118683 l-3.63127738237381, -0.2905021794140339 2.0335152745246887, -10.748580694198608 l0.0, -5.229039192199707 -0.5810043588280678, -2.0335152745246887 l-1.0167576372623444, -1.452510952949524 -2.6145195960998535, -1.1620087176561356 l-2.324017435312271, 0.4357532784342766 -0.4357532784342766, -1.452510952949524 l2.0335152745246887, -9.150818586349487 -0.726255476474762, -2.6145195960998535 l-1.0167576372623444, -0.8715065568685532 -1.452510952949524, -0.5810043588280678 l-4.212281703948975, 0.4357532784342766 -4.212281703948975, 2.4692685902118683 l-3.050273060798645, -5.955294966697693 -2.178766429424286, -0.8715065568685532 l-2.0335152745246887, 0.0 -4.502783715724945, 1.452510952949524 l-5.08378803730011, 4.502783715724945 -0.726255476474762, 0.14525108970701694 l-4.212281703948975, -2.324017435312271 -3.9217793941497803, -0.14525108970701694 l-4.502783715724945, 2.0335152745246887 -3.776528537273407, 3.050273060798645 l-1.8882642686367035, -1.452510952949524 -2.7597707509994507, -0.726255476474762 l-5.519541501998901, 1.5977619588375092 -1.0167576372623444, -1.0167576372623444 l-1.8882642686367035, -3.4860262274742126 -1.452510952949524, -0.8715065568685532 l-2.324017435312271, 0.14525108970701694 m54.46916103363037, 32.97199726104736 l0.5810043588280678, 3.3407750725746155 " fill="none" stroke="black" stroke-width="1" /></svg>