<?xml version="1.0" encoding="utf-8" ?>
<svg baseProfile="full" height="61.999890664592385" version="1.1" width="74.49148528277874" xmlns="http://www.w3.org/2000/svg" xmlns:ev="http://www.w3.org/2001/xml-events" xmlns:xlink="http://www.w3.org/1999/xlink"><defs /><rect fill="white" height="61.999890664592385" width="74.49148528277874" x="0" y="0" /><path d="M28.82118009030819, 21.70387445949018 m-1.3072597980499268, -3.050273060798645 l-1.7430131137371063, -2.0335152745246887 -1.7430131137371063, -0.726255476474762 l-3.9217793941497803, -0.14525108970701694 -3.63127738237381, 5.08378803730011 l-0.726255476474762, 3.050273060798645 0.0, 2.905021905899048 l2.905021905899048, 3.63127738237381 m29.05021905899048, -5.519541501998901 l3.3407750725746155, -4.648034870624542 2.4692685902118683, -2.0335152745246887 l2.178766429424286, -0.8715065568685532 1.5977619588375092, 0.0 l2.324017435312271, 1.5977619588375092 1.5977619588375092, 2.4692685902118683 l0.5810043588280678, 4.357532858848572 -0.2905021794140339, 3.3407750725746155 l-1.0167576372623444, 1.452510952949524 -0.8715065568685532, 0.0 m-12.20109224319458, -5.229039192199707 l2.6145195960998535, 0.726255476474762 7.698307633399963, 4.648034870624542 l0.726255476474762, 1.5977619588375092 0.14525108970701694, 2.6145195960998535 l-2.905021905899048, 4.648034870624542 -5.229039192199707, 5.955294966697693 l-1.7430131137371063, 1.5977619588375092 -6.972052454948425, 3.3407750725746155 l-2.324017435312271, 0.0 -4.357532858848572, -1.5977619588375092 l-7.407805919647217, -6.10054612159729 -4.938537180423737, -6.536298990249634 l-1.7430131137371063, -6.391047835350037 0.0, -2.178766429424286 l1.452510952949524, -3.050273060798645 1.3072597980499268, -1.452510952949524 l3.4860262274742126, -1.452510952949524 7.407805919647217, 0.2905021794140339 l7.698307633399963, 2.0335152745246887 5.08378803730011, 2.0335152745246887 m-13.508352041244507, 1.7430131137371063 l0.14525108970701694, 1.1620087176561356 m11.039083003997803, 1.0167576372623444 l0.4357532784342766, 2.0335152745246887 m-9.441320896148682, 3.63127738237381 l5.6647926568984985, 0.8715065568685532 0.726255476474762, 1.452510952949524 l-0.14525108970701694, 1.5977619588375092 -1.7430131137371063, 2.178766429424286 l-1.5977619588375092, 0.5810043588280678 -1.5977619588375092, -0.14525108970701694 l-1.0167576372623444, -1.5977619588375092 -0.2905021794140339, -4.502783715724945 m2.178766429424286, 6.10054612159729 l0.8715065568685532, 1.5977619588375092 1.7430131137371063, 0.2905021794140339 l0.5810043588280678, -0.4357532784342766 m-2.178766429424286, 0.14525108970701694 l-2.4692685902118683, 0.2905021794140339 -1.3072597980499268, -1.0167576372623444 m17.284879684448242, -29.77647304534912 l-1.3072597980499268, -2.4692685902118683 -3.9217793941497803, -2.905021905899048 l-2.6145195960998535, -0.4357532784342766 -6.536298990249634, 2.178766429424286 l-2.0335152745246887, -1.7430131137371063 -5.519541501998901, -2.905021905899048 l-1.0167576372623444, 0.0 -5.519541501998901, 2.324017435312271 l-7.8435587882995605, 1.0167576372623444 -7.407805919647217, 4.938537180423737 l-3.050273060798645, 6.2457966804504395 -0.8715065568685532, 3.1955239176750183 l-0.14525108970701694, 6.391047835350037 0.8715065568685532, 3.050273060798645 l1.1620087176561356, 1.8882642686367035 6.681550145149231, 7.988809943199158 l2.905021905899048, 2.324017435312271 3.4860262274742126, 1.0167576372623444 l8.715065717697144, 6.10054612159729 8.42456340789795, 4.212281703948975 l3.63127738237381, 1.1620087176561356 3.9217793941497803, 0.14525108970701694 l2.178766429424286, -0.726255476474762 2.324017435312271, -1.7430131137371063 l8.42456340789795, -3.9217793941497803 4.212281703948975, -3.9217793941497803 l1.452510952949524, -2.0335152745246887 4.938537180423737, -9.441320896148682 l1.1620087176561356, -6.391047835350037 0.0, -2.7597707509994507 l-4.938537180423737, -8.715065717697144 -2.7597707509994507, -2.178766429424286 l-6.536298990249634, -3.3407750725746155 " fill="none" stroke="black" stroke-width="1" /></svg>