<?xml version="1.0" encoding="utf-8" ?>
<svg baseProfile="full" height="80.88253297843039" version="1.1" width="115.01654059626162" xmlns="http://www.w3.org/2000/svg" xmlns:ev="http://www.w3.org/2001/xml-events" xmlns:xlink="http://www.w3.org/1999/xlink"><defs /><rect fill="white" height="80.88253297843039" width="115.01654059626162" x="0" y="0" /><path d="M47.413317458704114, 29.547434989362955 m-3.3407750725746155, 0.8715065568685532 l-2.0335152745246887, 3.3407750725746155 -0.5810043588280678, 2.7597707509994507 l0.14525108970701694, 6.826801300048828 0.2905021794140339, 2.6145195960998535 l1.7430131137371063, 3.9217793941497803 2.6145195960998535, 2.4692685902118683 l3.63127738237381, 1.452510952949524 6.536298990249634, 0.14525108970701694 l3.776528537273407, -0.5810043588280678 3.776528537273407, -2.7597707509994507 l1.0167576372623444, -4.212281703948975 0.14525108970701694, -2.6145195960998535 l-1.452510952949524, -8.42456340789795 -2.6145195960998535, -9.00556743144989 l-2.4692685902118683, -3.776528537273407 -2.324017435312271, -1.5977619588375092 l-2.324017435312271, -0.8715065568685532 -6.2457966804504395, -0.4357532784342766 l-2.324017435312271, 0.5810043588280678 -3.050273060798645, 2.178766429424286 l-1.3072597980499268, 2.4692685902118683 -1.3072597980499268, 4.067030549049377 m1.452510952949524, 6.681550145149231 l-0.5810043588280678, -5.810043811798096 -1.3072597980499268, -3.050273060798645 l-2.6145195960998535, -4.212281703948975 -2.6145195960998535, -2.905021905899048 l-2.7597707509994507, -2.178766429424286 -1.7430131137371063, -0.5810043588280678 l-1.8882642686367035, 0.14525108970701694 -1.8882642686367035, 1.8882642686367035 l2.178766429424286, -3.9217793941497803 3.63127738237381, -4.793286025524139 l1.452510952949524, -1.0167576372623444 2.324017435312271, 0.0 l11.620087623596191, -3.776528537273407 3.050273060798645, -0.4357532784342766 l0.0, 3.4860262274742126 1.1620087176561356, 0.14525108970701694 l8.42456340789795, -1.1620087176561356 10.893832445144653, -0.4357532784342766 l-0.726255476474762, 2.178766429424286 0.0, 1.3072597980499268 l0.726255476474762, 1.0167576372623444 3.4860262274742126, 2.324017435312271 l12.34634280204773, 4.212281703948975 -2.7597707509994507, 1.7430131137371063 l-2.178766429424286, 2.0335152745246887 -1.1620087176561356, 3.1955239176750183 l1.5977619588375092, 4.502783715724945 5.955294966697693, 7.407805919647217 l8.715065717697144, 6.826801300048828 13.508352041244507, 8.42456340789795 l-1.1620087176561356, 0.8715065568685532 -6.536298990249634, 1.452510952949524 l-4.212281703948975, 1.5977619588375092 -3.776528537273407, 2.4692685902118683 l-0.8715065568685532, 2.4692685902118683 0.0, 3.050273060798645 l1.3072597980499268, 3.4860262274742126 4.067030549049377, 5.229039192199707 l-1.452510952949524, 0.5810043588280678 -32.97199726104736, 1.1620087176561356 l-5.229039192199707, 1.3072597980499268 -21.206660270690918, -8.42456340789795 l-11.910589933395386, -3.776528537273407 -14.815611839294434, -3.776528537273407 l-2.178766429424286, -0.14525108970701694 4.212281703948975, -1.452510952949524 l-1.1620087176561356, -0.726255476474762 -6.972052454948425, -0.2905021794140339 l-0.14525108970701694, -1.0167576372623444 1.7430131137371063, -2.6145195960998535 l14.234607219696045, -15.832369327545166 2.0335152745246887, -2.4692685902118683 l0.4357532784342766, -1.1620087176561356 9.00556743144989, -1.8882642686367035 l2.0335152745246887, -1.1620087176561356 -0.726255476474762, -0.726255476474762 l-1.7430131137371063, -0.2905021794140339 2.905021905899048, -1.8882642686367035 l1.0167576372623444, -0.14525108970701694 m14.52510952949524, 14.379857778549194 l0.0, 0.0 m0.726255476474762, 0.8715065568685532 l-0.14525108970701694, 1.452510952949524 -1.452510952949524, 1.452510952949524 l-0.8715065568685532, 0.14525108970701694 -0.2905021794140339, -1.5977619588375092 " fill="none" stroke="black" stroke-width="1" /></svg>