<?xml version="1.0" encoding="utf-8" ?>
<svg baseProfile="full" height="54.882588014006615" version="1.1" width="61.99989039450884" xmlns="http://www.w3.org/2000/svg" xmlns:ev="http://www.w3.org/2001/xml-events" xmlns:xlink="http://www.w3.org/1999/xlink"><defs /><rect fill="white" height="54.882588014006615" width="61.99989039450884" x="0" y="0" /><path d="M35.502728559076786, 19.234607899561524 m-0.4357532784342766, -0.726255476474762 l-1.7430131137371063, -0.4357532784342766 -4.793286025524139, -0.2905021794140339 l-3.3407750725746155, 1.7430131137371063 -2.178766429424286, 3.1955239176750183 l-1.7430131137371063, 6.391047835350037 0.2905021794140339, 5.374290347099304 l2.324017435312271, 3.1955239176750183 3.3407750725746155, 2.324017435312271 l1.7430131137371063, 0.5810043588280678 5.955294966697693, 0.14525108970701694 l3.63127738237381, -2.178766429424286 2.324017435312271, -2.0335152745246887 l1.0167576372623444, -1.7430131137371063 0.726255476474762, -5.08378803730011 l-0.14525108970701694, -3.1955239176750183 -1.1620087176561356, -3.050273060798645 l-2.4692685902118683, -1.8882642686367035 -3.4860262274742126, -1.1620087176561356 l-4.067030549049377, -0.5810043588280678 m1.1620087176561356, -11.76533818244934 l2.4692685902118683, -0.726255476474762 5.955294966697693, -0.2905021794140339 l1.8882642686367035, 0.4357532784342766 1.452510952949524, 1.452510952949524 l0.5810043588280678, 1.0167576372623444 0.14525108970701694, 2.6145195960998535 l-0.2905021794140339, 1.0167576372623444 -1.452510952949524, 1.5977619588375092 l5.08378803730011, 0.8715065568685532 2.7597707509994507, 1.8882642686367035 l1.1620087176561356, 1.7430131137371063 0.4357532784342766, 1.5977619588375092 l0.0, 1.7430131137371063 -0.726255476474762, 2.324017435312271 l2.324017435312271, 1.5977619588375092 2.178766429424286, 2.4692685902118683 l0.5810043588280678, 4.357532858848572 -0.8715065568685532, 1.7430131137371063 l-1.3072597980499268, 1.1620087176561356 -2.6145195960998535, 1.3072597980499268 l0.0, 3.4860262274742126 -3.9217793941497803, 5.519541501998901 l-1.7430131137371063, 1.1620087176561356 -6.681550145149231, 0.2905021794140339 l-1.3072597980499268, -0.2905021794140339 -1.452510952949524, -1.1620087176561356 l-1.1620087176561356, 1.0167576372623444 -5.08378803730011, 1.5977619588375092 l-3.776528537273407, 0.2905021794140339 -2.324017435312271, -1.0167576372623444 l-1.1620087176561356, -1.7430131137371063 -0.726255476474762, -0.14525108970701694 l-4.648034870624542, 1.3072597980499268 -7.8435587882995605, 0.14525108970701694 l-2.178766429424286, -0.726255476474762 -2.7597707509994507, -2.0335152745246887 l-0.4357532784342766, -1.1620087176561356 0.14525108970701694, -10.603330135345459 l0.2905021794140339, -1.8882642686367035 2.324017435312271, -3.3407750725746155 l0.4357532784342766, -4.357532858848572 2.0335152745246887, -2.7597707509994507 l2.905021905899048, -2.178766429424286 1.3072597980499268, -3.3407750725746155 l1.8882642686367035, -3.050273060798645 3.3407750725746155, -2.324017435312271 l3.63127738237381, -1.0167576372623444 0.0, -1.0167576372623444 l3.1955239176750183, -2.6145195960998535 4.212281703948975, -1.0167576372623444 l2.6145195960998535, 1.5977619588375092 0.726255476474762, 0.0 l2.178766429424286, -1.1620087176561356 4.067030549049377, 0.0 l1.7430131137371063, 0.8715065568685532 1.0167576372623444, 2.178766429424286 m-15.687117576599121, 16.994377374649048 l1.1620087176561356, 0.0 0.4357532784342766, 0.8715065568685532 l0.0, 1.0167576372623444 -0.726255476474762, 0.4357532784342766 l0.0, -1.5977619588375092 m5.810043811798096, 0.5810043588280678 l1.1620087176561356, -0.5810043588280678 0.8715065568685532, 0.14525108970701694 l0.14525108970701694, 0.8715065568685532 -1.0167576372623444, 0.5810043588280678 l-0.5810043588280678, -0.5810043588280678 " fill="none" stroke="black" stroke-width="1" /></svg>