<?xml version="1.0" encoding="utf-8" ?>
<svg baseProfile="full" height="69.98870072886348" version="1.1" width="127.94388576410711" xmlns="http://www.w3.org/2000/svg" xmlns:ev="http://www.w3.org/2001/xml-events" xmlns:xlink="http://www.w3.org/1999/xlink"><defs /><rect fill="white" height="69.98870072886348" width="127.94388576410711" x="0" y="0" /><path d="M38.40775187127292, 21.7038753349334 m-4.357532858848572, 0.14525108970701694 l-3.3407750725746155, 1.7430131137371063 -2.7597707509994507, 2.324017435312271 l-1.5977619588375092, 4.212281703948975 -0.2905021794140339, 5.229039192199707 l0.5810043588280678, 3.3407750725746155 2.7597707509994507, 5.08378803730011 l3.050273060798645, 2.324017435312271 1.5977619588375092, 0.5810043588280678 l4.357532858848572, 0.8715065568685532 5.955294966697693, 0.4357532784342766 l2.324017435312271, -2.0335152745246887 2.4692685902118683, -5.6647926568984985 l1.452510952949524, -10.603330135345459 -1.3072597980499268, -2.6145195960998535 l-2.6145195960998535, -2.324017435312271 -2.0335152745246887, -0.726255476474762 l-7.1173036098480225, -1.1620087176561356 m-2.4692685902118683, 27.452456951141357 l-1.8882642686367035, 2.178766429424286 -3.1955239176750183, 2.178766429424286 l-6.10054612159729, 1.8882642686367035 -3.050273060798645, -0.2905021794140339 l-10.893832445144653, -5.810043811798096 -0.726255476474762, -0.8715065568685532 l-0.14525108970701694, -0.8715065568685532 0.4357532784342766, -0.726255476474762 l3.1955239176750183, -2.0335152745246887 -5.519541501998901, -1.5977619588375092 l-1.452510952949524, -2.6145195960998535 -0.726255476474762, -3.050273060798645 l0.4357532784342766, -4.502783715724945 1.7430131137371063, -1.8882642686367035 l2.7597707509994507, -1.0167576372623444 0.14525108970701694, -0.8715065568685532 l-3.63127738237381, -5.229039192199707 -0.726255476474762, -2.324017435312271 l0.0, -3.1955239176750183 1.1620087176561356, -1.8882642686367035 l5.374290347099304, -5.374290347099304 1.452510952949524, -1.0167576372623444 l0.8715065568685532, 0.726255476474762 0.8715065568685532, -0.5810043588280678 l2.7597707509994507, -3.9217793941497803 3.1955239176750183, -1.7430131137371063 l5.6647926568984985, -0.8715065568685532 3.4860262274742126, 0.0 l1.0167576372623444, 4.502783715724945 4.648034870624542, -2.4692685902118683 l6.826801300048828, -0.8715065568685532 5.955294966697693, 0.0 l1.0167576372623444, 4.648034870624542 0.5810043588280678, 0.726255476474762 l12.491593360900879, 1.7430131137371063 3.9217793941497803, 1.1620087176561356 l2.0335152745246887, 2.7597707509994507 0.14525108970701694, 1.0167576372623444 l-1.0167576372623444, 2.7597707509994507 -1.1620087176561356, 1.1620087176561356 l5.08378803730011, 4.502783715724945 1.8882642686367035, 2.4692685902118683 l0.0, 2.324017435312271 -0.726255476474762, 1.0167576372623444 l-2.6145195960998535, 2.0335152745246887 -4.502783715724945, 1.8882642686367035 l0.2905021794140339, 0.8715065568685532 3.3407750725746155, 3.050273060798645 l0.14525108970701694, 1.7430131137371063 -1.452510952949524, 4.502783715724945 l-3.776528537273407, 4.212281703948975 0.2905021794140339, 5.810043811798096 l-0.5810043588280678, 1.7430131137371063 -1.5977619588375092, 1.7430131137371063 l-2.7597707509994507, 0.8715065568685532 -1.7430131137371063, 0.0 l-1.452510952949524, -0.4357532784342766 -0.8715065568685532, -1.3072597980499268 l-4.067030549049377, 3.1955239176750183 -4.067030549049377, 2.324017435312271 l-2.7597707509994507, 0.2905021794140339 -1.8882642686367035, -0.5810043588280678 l-8.42456340789795, -3.1955239176750183 -1.5977619588375092, -3.776528537273407 l0.8715065568685532, -3.1955239176750183 -0.4357532784342766, -3.4860262274742126 m35.87702035903931, -28.46921443939209 l5.955294966697693, -1.5977619588375092 9.00556743144989, -0.8715065568685532 l15.687117576599121, 0.14525108970701694 6.826801300048828, 1.7430131137371063 l15.977619886398315, 5.519541501998901 " fill="none" stroke="black" stroke-width="1" /></svg>