<?xml version="1.0" encoding="utf-8" ?>
<svg baseProfile="full" height="76.08924636617303" version="1.1" width="89.59759814664721" xmlns="http://www.w3.org/2000/svg" xmlns:ev="http://www.w3.org/2001/xml-events" xmlns:xlink="http://www.w3.org/1999/xlink"><defs /><rect fill="white" height="76.08924636617303" width="89.59759814664721" x="0" y="0" /><path d="M45.08930009789765, 21.70387557707727 m-2.324017435312271, -2.178766429424286 l-6.10054612159729, 0.0 -1.8882642686367035, 1.0167576372623444 l-6.391047835350037, 6.391047835350037 -3.1955239176750183, 5.955294966697693 l-1.5977619588375092, 5.08378803730011 0.14525108970701694, 4.938537180423737 l1.0167576372623444, 2.7597707509994507 3.63127738237381, 5.374290347099304 l5.08378803730011, 4.502783715724945 5.810043811798096, 2.905021905899048 l3.050273060798645, 0.726255476474762 5.955294966697693, 0.2905021794140339 l2.7597707509994507, -0.8715065568685532 2.6145195960998535, -2.0335152745246887 l2.4692685902118683, -2.905021905899048 1.8882642686367035, -3.1955239176750183 l2.905021905899048, -7.988809943199158 1.7430131137371063, -6.681550145149231 l0.0, -5.519541501998901 -1.3072597980499268, -2.6145195960998535 l-1.8882642686367035, -1.8882642686367035 -5.08378803730011, -2.7597707509994507 l-2.6145195960998535, -0.8715065568685532 -4.648034870624542, -1.0167576372623444 l-4.938537180423737, -0.2905021794140339 m-8.42456340789795, 1.0167576372623444 l1.7430131137371063, -5.519541501998901 2.178766429424286, -4.502783715724945 l2.7597707509994507, -2.7597707509994507 3.63127738237381, -2.178766429424286 l3.3407750725746155, -0.8715065568685532 1.8882642686367035, 0.14525108970701694 l0.5810043588280678, 1.0167576372623444 0.14525108970701694, 4.067030549049377 l0.8715065568685532, 0.726255476474762 6.681550145149231, -4.212281703948975 l2.905021905899048, -1.1620087176561356 6.10054612159729, -1.5977619588375092 l4.938537180423737, 0.0 1.3072597980499268, 1.3072597980499268 l0.5810043588280678, 1.5977619588375092 -0.14525108970701694, 3.050273060798645 l-3.9217793941497803, 4.793286025524139 -5.229039192199707, 2.7597707509994507 l11.76533818244934, 0.2905021794140339 1.8882642686367035, 0.726255476474762 l1.0167576372623444, 1.1620087176561356 0.0, 4.793286025524139 l-1.3072597980499268, 2.4692685902118683 -1.5977619588375092, 2.0335152745246887 l-5.374290347099304, 4.357532858848572 4.793286025524139, 2.6145195960998535 l3.3407750725746155, 2.7597707509994507 5.08378803730011, 6.536298990249634 l0.8715065568685532, 4.212281703948975 -0.726255476474762, 2.6145195960998535 l-1.8882642686367035, 2.324017435312271 -3.1955239176750183, 2.6145195960998535 l-3.4860262274742126, 1.7430131137371063 -3.9217793941497803, 1.0167576372623444 l-3.3407750725746155, 0.4357532784342766 -6.826801300048828, 0.0 l-4.067030549049377, -0.8715065568685532 0.0, 0.8715065568685532 l-14.960862398147583, 7.698307633399963 -4.067030549049377, 1.5977619588375092 l-3.1955239176750183, 0.5810043588280678 -4.938537180423737, -0.14525108970701694 l-2.0335152745246887, -1.7430131137371063 -1.7430131137371063, -4.502783715724945 l0.0, -6.536298990249634 0.2905021794140339, -1.0167576372623444 l0.726255476474762, -0.5810043588280678 -1.3072597980499268, 0.8715065568685532 l-3.050273060798645, 0.5810043588280678 -2.178766429424286, 0.0 l-2.6145195960998535, -0.726255476474762 -2.0335152745246887, -1.5977619588375092 l-2.905021905899048, -4.212281703948975 -0.4357532784342766, -5.08378803730011 l0.5810043588280678, -2.905021905899048 2.7597707509994507, -3.3407750725746155 l1.8882642686367035, -1.1620087176561356 -4.793286025524139, -1.452510952949524 l-2.324017435312271, -1.3072597980499268 -2.178766429424286, -1.5977619588375092 l-1.7430131137371063, -2.0335152745246887 -1.1620087176561356, -2.324017435312271 l-0.726255476474762, -2.905021905899048 0.2905021794140339, -6.10054612159729 l1.3072597980499268, -2.6145195960998535 1.7430131137371063, -1.8882642686367035 l1.7430131137371063, -0.8715065568685532 3.9217793941497803, -0.2905021794140339 l2.0335152745246887, 1.0167576372623444 0.2905021794140339, 1.0167576372623444 l-1.7430131137371063, 0.5810043588280678 -2.0335152745246887, -0.2905021794140339 l-0.2905021794140339, -1.7430131137371063 1.0167576372623444, -2.0335152745246887 l6.391047835350037, -4.502783715724945 4.502783715724945, -2.0335152745246887 l4.648034870624542, -1.1620087176561356 3.9217793941497803, -0.14525108970701694 l4.067030549049377, 0.5810043588280678 2.6145195960998535, 1.5977619588375092 l2.7597707509994507, 4.067030549049377 0.14525108970701694, 2.6145195960998535 l-1.1620087176561356, 0.14525108970701694 m-3.4860262274742126, 19.027893543243408 l-1.0167576372623444, -0.726255476474762 0.726255476474762, -0.2905021794140339 l-0.726255476474762, 0.5810043588280678 m14.52510952949524, -1.5977619588375092 l-0.726255476474762, 0.14525108970701694 -0.14525108970701694, -0.5810043588280678 " fill="none" stroke="black" stroke-width="1" /></svg>