<?xml version="1.0" encoding="utf-8" ?>
<svg baseProfile="full" height="48.34628652781248" version="1.1" width="131.28466319292784" xmlns="http://www.w3.org/2000/svg" xmlns:ev="http://www.w3.org/2001/xml-events" xmlns:xlink="http://www.w3.org/1999/xlink"><defs /><rect fill="white" height="48.34628652781248" width="131.28466319292784" x="0" y="0" /><path d="M7.469268590211868, 7.033512257039547 m-0.8715065568685532, 8.42456340789795 l-0.8715065568685532, 3.3407750725746155 -0.726255476474762, 9.731823205947876 m2.905021905899048, -22.368667125701904 l2.0335152745246887, 0.0 0.726255476474762, 0.4357532784342766 l2.0335152745246887, 5.229039192199707 -0.4357532784342766, 4.212281703948975 l-1.5977619588375092, 0.726255476474762 -2.178766429424286, -0.8715065568685532 l-0.5810043588280678, -0.8715065568685532 -0.8715065568685532, -1.8882642686367035 l4.212281703948975, 4.067030549049377 3.4860262274742126, 5.810043811798096 l5.6647926568984985, 6.10054612159729 2.6145195960998535, 5.08378803730011 m8.134061098098755, -27.59770631790161 l-3.3407750725746155, -0.726255476474762 -3.1955239176750183, 1.452510952949524 l-2.178766429424286, 3.1955239176750183 -0.8715065568685532, 2.905021905899048 l0.2905021794140339, 4.067030549049377 1.0167576372623444, 3.776528537273407 l4.212281703948975, 6.10054612159729 2.905021905899048, 6.10054612159729 l0.8715065568685532, 0.726255476474762 3.050273060798645, 1.8882642686367035 l2.178766429424286, 0.726255476474762 2.178766429424286, 0.0 l3.050273060798645, -1.7430131137371063 1.0167576372623444, -1.0167576372623444 l1.5977619588375092, -3.1955239176750183 0.8715065568685532, -3.63127738237381 l0.0, -5.810043811798096 -1.3072597980499268, -3.63127738237381 l-1.7430131137371063, -2.0335152745246887 -3.9217793941497803, -6.391047835350037 l-2.905021905899048, -2.178766429424286 -4.793286025524139, -1.1620087176561356 l-1.1620087176561356, -1.0167576372623444 m24.69268560409546, 27.161953449249268 l-0.4357532784342766, -0.726255476474762 0.5810043588280678, -1.0167576372623444 l9.441320896148682, -13.508352041244507 3.776528537273407, -8.569814562797546 l3.776528537273407, 18.44688892364502 1.7430131137371063, 5.955294966697693 l0.14525108970701694, 0.726255476474762 -0.4357532784342766, -0.4357532784342766 m-12.927347421646118, -11.329585313796997 l13.653602600097656, -0.14525108970701694 m9.877074360847473, -13.217849731445312 l2.324017435312271, 11.184333562850952 1.452510952949524, 12.636845111846924 l0.2905021794140339, 6.826801300048828 m-1.8882642686367035, -28.904967308044434 l5.810043811798096, 0.14525108970701694 2.905021905899048, 0.8715065568685532 l1.7430131137371063, 1.3072597980499268 0.4357532784342766, 0.8715065568685532 l-0.14525108970701694, 3.050273060798645 -4.067030549049377, 5.08378803730011 l-4.357532858848572, 0.14525108970701694 -1.0167576372623444, -0.14525108970701694 l-1.0167576372623444, -0.8715065568685532 -0.4357532784342766, -3.4860262274742126 l6.681550145149231, 3.4860262274742126 7.26255476474762, 5.955294966697693 l1.8882642686367035, 2.324017435312271 3.9217793941497803, 6.972052454948425 l2.905021905899048, 4.067030549049377 1.1620087176561356, 3.4860262274742126 m10.893832445144653, -37.62003183364868 l0.0, 14.08935546875 0.5810043588280678, 4.212281703948975 m-0.4357532784342766, 9.731823205947876 l0.726255476474762, -1.5977619588375092 0.4357532784342766, 1.1620087176561356 l-0.8715065568685532, -1.3072597980499268 0.0, -1.8882642686367035 l1.452510952949524, -0.14525108970701694 0.726255476474762, 2.324017435312271 l-1.7430131137371063, 1.3072597980499268 -0.726255476474762, 0.14525108970701694 l-0.4357532784342766, -0.8715065568685532 0.14525108970701694, -4.067030549049377 l0.5810043588280678, -1.1620087176561356 1.1620087176561356, -0.4357532784342766 l1.0167576372623444, 0.2905021794140339 0.726255476474762, 3.776528537273407 l-0.4357532784342766, 1.452510952949524 -2.324017435312271, 2.6145195960998535 l-1.3072597980499268, 0.14525108970701694 -0.2905021794140339, -2.178766429424286 l0.4357532784342766, -4.067030549049377 1.1620087176561356, -2.0335152745246887 l2.4692685902118683, -0.726255476474762 2.324017435312271, 0.2905021794140339 l1.1620087176561356, 1.7430131137371063 0.14525108970701694, 1.7430131137371063 l-0.2905021794140339, 1.1620087176561356 -2.7597707509994507, 1.7430131137371063 l-3.3407750725746155, 0.2905021794140339 -0.726255476474762, -0.4357532784342766 l-0.2905021794140339, -2.905021905899048 0.726255476474762, -2.178766429424286 l1.0167576372623444, -0.4357532784342766 2.324017435312271, -0.2905021794140339 l0.8715065568685532, 0.2905021794140339 -4.212281703948975, 2.178766429424286 l1.1620087176561356, -1.1620087176561356 3.4860262274742126, -0.5810043588280678 l1.3072597980499268, 0.5810043588280678 0.2905021794140339, 2.178766429424286 l-2.7597707509994507, 1.3072597980499268 -2.905021905899048, 0.2905021794140339 l0.14525108970701694, -4.212281703948975 1.8882642686367035, -1.3072597980499268 l1.3072597980499268, -0.4357532784342766 1.1620087176561356, 0.2905021794140339 l0.2905021794140339, 0.8715065568685532 -1.0167576372623444, 2.0335152745246887 l-1.7430131137371063, 1.452510952949524 -4.648034870624542, 2.4692685902118683 l1.1620087176561356, -2.7597707509994507 1.452510952949524, -1.0167576372623444 " fill="none" stroke="black" stroke-width="1" /></svg>