<?xml version="1.0" encoding="utf-8" ?>
<svg baseProfile="full" height="107.31823030859232" version="1.1" width="119.66457337141037" xmlns="http://www.w3.org/2000/svg" xmlns:ev="http://www.w3.org/2001/xml-events" xmlns:xlink="http://www.w3.org/1999/xlink"><defs /><rect fill="white" height="107.31823030859232" width="119.66457337141037" x="0" y="0" /><path d="M56.12838444299996, 7.178766494616866 m-5.810043811798096, -1.1620087176561356 l-10.02232551574707, 0.0 -7.988809943199158, 2.324017435312271 l-5.08378803730011, 2.0335152745246887 -0.726255476474762, 0.4357532784342766 l1.1620087176561356, 0.4357532784342766 3.63127738237381, 0.5810043588280678 l-0.4357532784342766, 0.726255476474762 -1.0167576372623444, 1.0167576372623444 l-4.067030549049377, 2.324017435312271 -3.050273060798645, 1.0167576372623444 l-3.9217793941497803, 2.0335152745246887 -5.6647926568984985, 4.938537180423737 l-3.776528537273407, 4.648034870624542 -1.452510952949524, 3.1955239176750183 l-0.14525108970701694, 0.8715065568685532 3.63127738237381, -0.14525108970701694 l0.0, 0.8715065568685532 -5.374290347099304, 11.76533818244934 l-1.0167576372623444, 5.519541501998901 0.0, 3.1955239176750183 l3.776528537273407, -3.3407750725746155 2.324017435312271, -1.452510952949524 l0.4357532784342766, 1.0167576372623444 -0.726255476474762, 7.988809943199158 l-1.0167576372623444, 5.229039192199707 0.0, 7.407805919647217 l1.7430131137371063, 3.3407750725746155 1.8882642686367035, 1.452510952949524 l3.4860262274742126, 0.2905021794140339 1.7430131137371063, 2.0335152745246887 l1.5977619588375092, -4.938537180423737 1.3072597980499268, 1.0167576372623444 l6.536298990249634, 11.474835872650146 4.357532858848572, 6.681550145149231 l1.8882642686367035, 2.0335152745246887 1.0167576372623444, 0.4357532784342766 l1.0167576372623444, -1.0167576372623444 2.6145195960998535, -7.407805919647217 m17.430131435394287, -79.59759712219238 l11.474835872650146, -1.452510952949524 20.770905017852783, 0.0 l3.4860262274742126, 0.2905021794140339 5.810043811798096, 1.8882642686367035 l3.776528537273407, 1.5977619588375092 1.5977619588375092, 1.1620087176561356 l0.5810043588280678, 0.726255476474762 -0.726255476474762, 0.0 l-0.4357532784342766, 1.7430131137371063 6.826801300048828, 12.782095670700073 l-1.0167576372623444, -0.14525108970701694 -0.726255476474762, -0.726255476474762 l-0.4357532784342766, 2.6145195960998535 6.391047835350037, 15.977619886398315 l0.8715065568685532, 6.391047835350037 -0.2905021794140339, 5.6647926568984985 l-0.2905021794140339, 1.0167576372623444 -0.8715065568685532, 0.14525108970701694 l-1.5977619588375092, -1.5977619588375092 -1.5977619588375092, -3.050273060798645 l0.0, 3.1955239176750183 -2.324017435312271, 14.815611839294434 l-2.0335152745246887, 6.681550145149231 -2.178766429424286, 3.3407750725746155 l-0.8715065568685532, -0.5810043588280678 -0.4357532784342766, -1.8882642686367035 l0.0, 2.324017435312271 -4.067030549049377, 13.798853158950806 l-1.8882642686367035, 3.050273060798645 -4.212281703948975, 4.793286025524139 l-1.7430131137371063, 0.4357532784342766 -2.4692685902118683, -4.938537180423737 l-1.0167576372623444, 0.2905021794140339 -1.7430131137371063, 2.0335152745246887 l-2.4692685902118683, 1.8882642686367035 -4.067030549049377, 1.5977619588375092 l-3.63127738237381, -4.212281703948975 -3.4860262274742126, -2.178766429424286 l-5.810043811798096, 0.0 -5.519541501998901, -1.5977619588375092 l-2.6145195960998535, -0.2905021794140339 -10.312827825546265, 0.2905021794140339 l-2.7597707509994507, -1.1620087176561356 -8.279312252998352, -4.938537180423737 m25.273690223693848, -57.22893238067627 l-1.452510952949524, -1.452510952949524 -3.1955239176750183, -0.4357532784342766 l-2.6145195960998535, 0.14525108970701694 -4.212281703948975, 2.324017435312271 l-4.502783715724945, 4.648034870624542 -2.905021905899048, 3.9217793941497803 l-4.502783715724945, 7.553057074546814 -1.0167576372623444, 3.63127738237381 l-0.14525108970701694, 7.553057074546814 4.648034870624542, 7.988809943199158 l2.324017435312271, 2.324017435312271 4.648034870624542, 2.4692685902118683 l3.4860262274742126, 0.726255476474762 7.407805919647217, 0.4357532784342766 l7.698307633399963, 0.0 3.1955239176750183, -0.8715065568685532 l5.374290347099304, -2.4692685902118683 1.7430131137371063, -1.5977619588375092 l1.3072597980499268, -1.7430131137371063 2.178766429424286, -6.826801300048828 l0.8715065568685532, -9.441320896148682 -0.2905021794140339, -7.1173036098480225 l-1.0167576372623444, -2.905021905899048 -3.050273060798645, -4.648034870624542 l-3.3407750725746155, -2.7597707509994507 -5.6647926568984985, -2.0335152745246887 l-2.7597707509994507, -0.726255476474762 -9.150818586349487, -0.14525108970701694 m2.905021905899048, 20.916156768798828 l-2.0335152745246887, -0.4357532784342766 -7.26255476474762, 2.4692685902118683 l6.826801300048828, 3.050273060798645 3.3407750725746155, 0.14525108970701694 l2.4692685902118683, -1.0167576372623444 1.3072597980499268, -1.452510952949524 l-0.8715065568685532, -1.3072597980499268 -2.905021905899048, -0.726255476474762 " fill="none" stroke="black" stroke-width="1" /></svg>