<?xml version="1.0" encoding="utf-8" ?>
<svg baseProfile="full" height="64.03340612538159" version="1.1" width="63.74290509149432" xmlns="http://www.w3.org/2000/svg" xmlns:ev="http://www.w3.org/2001/xml-events" xmlns:xlink="http://www.w3.org/1999/xlink"><defs /><rect fill="white" height="64.03340612538159" width="63.74290509149432" x="0" y="0" /><path d="M36.809989381581545, 6.162008717656136 m-3.1955239176750183, -1.1620087176561356 l-3.3407750725746155, 0.0 -6.10054612159729, 2.7597707509994507 l-4.067030549049377, 4.648034870624542 -2.6145195960998535, 4.793286025524139 l0.0, 3.050273060798645 2.0335152745246887, 3.4860262274742126 l0.2905021794140339, -1.7430131137371063 -0.4357532784342766, -1.452510952949524 l-1.8882642686367035, -2.6145195960998535 -1.3072597980499268, -0.726255476474762 l-4.357532858848572, 0.14525108970701694 -2.4692685902118683, 1.7430131137371063 l-1.8882642686367035, 2.4692685902118683 -1.5977619588375092, 2.7597707509994507 l-0.8715065568685532, 3.4860262274742126 0.14525108970701694, 4.648034870624542 l0.8715065568685532, 2.324017435312271 2.0335152745246887, 2.905021905899048 l0.8715065568685532, 0.0 1.452510952949524, -1.452510952949524 l3.050273060798645, -4.648034870624542 -2.905021905899048, 9.150818586349487 l-0.2905021794140339, 4.938537180423737 0.5810043588280678, 1.3072597980499268 l1.7430131137371063, 1.1620087176561356 8.279312252998352, -0.4357532784342766 l2.178766429424286, 1.0167576372623444 0.2905021794140339, 2.905021905899048 l-0.8715065568685532, 4.793286025524139 0.14525108970701694, 2.6145195960998535 l4.648034870624542, -0.14525108970701694 21.787664890289307, -8.279312252998352 l3.1955239176750183, -2.4692685902118683 4.648034870624542, -5.229039192199707 l1.8882642686367035, -3.9217793941497803 0.0, -5.810043811798096 l-3.1955239176750183, -14.379857778549194 -2.7597707509994507, -5.955294966697693 l-2.6145195960998535, -2.6145195960998535 -4.648034870624542, -2.6145195960998535 l-2.7597707509994507, 0.0 -4.648034870624542, 1.7430131137371063 l-1.3072597980499268, 0.0 m-5.229039192199707, 12.927347421646118 l-1.0167576372623444, -0.726255476474762 -2.178766429424286, 0.14525108970701694 l-2.6145195960998535, 2.178766429424286 -4.212281703948975, 5.519541501998901 l-1.3072597980499268, 2.178766429424286 -0.4357532784342766, 2.178766429424286 l0.4357532784342766, 1.452510952949524 2.324017435312271, 3.3407750725746155 l3.4860262274742126, 2.6145195960998535 7.8435587882995605, 3.050273060798645 l3.050273060798645, 0.0 2.178766429424286, -1.0167576372623444 l3.4860262274742126, -2.6145195960998535 3.3407750725746155, -5.08378803730011 l1.0167576372623444, -5.229039192199707 -0.726255476474762, -6.972052454948425 l-4.648034870624542, -2.6145195960998535 -8.279312252998352, 0.14525108970701694 l-3.9217793941497803, 2.178766429424286 m2.0335152745246887, 11.474835872650146 l4.938537180423737, 0.14525108970701694 1.7430131137371063, 0.8715065568685532 l-0.14525108970701694, 4.502783715724945 -1.5977619588375092, 0.8715065568685532 l-1.7430131137371063, -0.14525108970701694 -1.7430131137371063, -1.3072597980499268 l-0.8715065568685532, -1.7430131137371063 -0.14525108970701694, -1.7430131137371063 m3.3407750725746155, 4.357532858848572 l0.2905021794140339, 0.8715065568685532 " fill="none" stroke="black" stroke-width="1" /></svg>