<?xml version="1.0" encoding="utf-8" ?>
<svg baseProfile="full" height="59.09486899152398" version="1.1" width="62.14514127932489" xmlns="http://www.w3.org/2000/svg" xmlns:ev="http://www.w3.org/2001/xml-events" xmlns:xlink="http://www.w3.org/1999/xlink"><defs /><rect fill="white" height="59.09486899152398" width="62.14514127932489" x="0" y="0" /><path d="M23.59213904477656, 42.18427937477827 m0.14525108970701694, 7.407805919647217 l0.726255476474762, 0.4357532784342766 1.5977619588375092, -1.3072597980499268 l4.212281703948975, -5.6647926568984985 0.0, 6.681550145149231 l0.5810043588280678, 2.6145195960998535 0.726255476474762, 0.5810043588280678 l1.7430131137371063, -0.5810043588280678 7.988809943199158, -6.536298990249634 l0.726255476474762, 0.2905021794140339 0.14525108970701694, 7.988809943199158 l2.178766429424286, -1.452510952949524 0.8715065568685532, -1.1620087176561356 l4.648034870624542, -6.826801300048828 0.8715065568685532, -1.5977619588375092 l-0.726255476474762, -0.14525108970701694 -1.0167576372623444, 2.0335152745246887 l1.8882642686367035, -1.1620087176561356 4.793286025524139, -4.938537180423737 l1.452510952949524, -3.050273060798645 -0.14525108970701694, -2.178766429424286 l-3.1955239176750183, 0.14525108970701694 -3.3407750725746155, 3.050273060798645 l5.955294966697693, -17.86588430404663 0.5810043588280678, -5.519541501998901 l-1.8882642686367035, 1.7430131137371063 -3.050273060798645, 4.938537180423737 l0.5810043588280678, -11.039083003997803 -1.1620087176561356, 0.2905021794140339 l-2.6145195960998535, 2.324017435312271 -1.0167576372623444, 1.5977619588375092 l-2.6145195960998535, 2.4692685902118683 -0.4357532784342766, -7.26255476474762 l-4.938537180423737, 2.178766429424286 -3.4860262274742126, 3.4860262274742126 l-0.2905021794140339, -5.6647926568984985 -1.3072597980499268, -0.4357532784342766 l-3.63127738237381, 1.1620087176561356 -5.229039192199707, 3.050273060798645 l-0.5810043588280678, -0.8715065568685532 -0.2905021794140339, -6.391047835350037 l-1.3072597980499268, 0.2905021794140339 -12.782095670700073, 11.184333562850952 l0.8715065568685532, 0.0 -0.2905021794140339, 3.1955239176750183 l-2.178766429424286, 3.776528537273407 -3.3407750725746155, 8.134061098098755 l-1.0167576372623444, 3.776528537273407 1.7430131137371063, 0.0 l3.050273060798645, -2.178766429424286 5.229039192199707, -5.374290347099304 l-0.8715065568685532, 1.8882642686367035 -8.569814562797546, 8.42456340789795 l5.955294966697693, -4.212281703948975 3.776528537273407, -1.3072597980499268 l0.2905021794140339, 2.905021905899048 -4.212281703948975, 10.603330135345459 l4.502783715724945, -2.4692685902118683 2.0335152745246887, -2.178766429424286 l1.0167576372623444, -2.4692685902118683 -1.0167576372623444, 2.324017435312271 l-0.726255476474762, 5.6647926568984985 4.067030549049377, -5.374290347099304 l0.2905021794140339, 2.0335152745246887 -0.4357532784342766, 2.4692685902118683 m13.217849731445312, -11.620087623596191 l-6.2457966804504395, -1.452510952949524 -2.4692685902118683, -2.4692685902118683 l-2.7597707509994507, -4.938537180423737 -0.2905021794140339, -5.519541501998901 l1.1620087176561356, -2.324017435312271 3.1955239176750183, -1.1620087176561356 l7.1173036098480225, -0.8715065568685532 1.3072597980499268, 0.2905021794140339 l2.7597707509994507, 2.0335152745246887 4.067030549049377, 4.502783715724945 l0.2905021794140339, 9.731823205947876 -1.8882642686367035, 6.10054612159729 l-0.726255476474762, 0.726255476474762 -3.050273060798645, 1.1620087176561356 l-2.178766429424286, 0.0 -1.5977619588375092, -0.726255476474762 l-0.8715065568685532, -1.0167576372623444 -0.8715065568685532, -2.324017435312271 l-1.5977619588375092, -5.6647926568984985 m-0.2905021794140339, -8.279312252998352 l-0.8715065568685532, 0.5810043588280678 -0.8715065568685532, 1.7430131137371063 l0.8715065568685532, 0.2905021794140339 1.3072597980499268, -1.452510952949524 l-0.14525108970701694, -1.8882642686367035 -0.726255476474762, -0.2905021794140339 l-0.726255476474762, 1.1620087176561356 -0.2905021794140339, 2.0335152745246887 l1.7430131137371063, 0.5810043588280678 m7.1173036098480225, -0.5810043588280678 l-0.2905021794140339, 2.6145195960998535 1.0167576372623444, 0.5810043588280678 l3.9217793941497803, 0.0 0.5810043588280678, -1.452510952949524 l-0.4357532784342766, -1.5977619588375092 -1.3072597980499268, -1.5977619588375092 l-1.7430131137371063, -0.14525108970701694 -1.452510952949524, 1.8882642686367035 l-0.726255476474762, 2.905021905899048 " fill="none" stroke="black" stroke-width="1" /></svg>