<?xml version="1.0" encoding="utf-8" ?>
<svg baseProfile="full" height="75.94399719499052" version="1.1" width="109.93275502696633" xmlns="http://www.w3.org/2000/svg" xmlns:ev="http://www.w3.org/2001/xml-events" xmlns:xlink="http://www.w3.org/1999/xlink"><defs /><rect fill="white" height="75.94399719499052" width="109.93275502696633" x="0" y="0" /><path d="M8.195524886250496, 69.05573315918446 m3.1955239176750183, -4.793286025524139 l2.324017435312271, -5.08378803730011 3.1955239176750183, -13.798853158950806 l3.3407750725746155, -7.407805919647217 m-15.106114149093628, 30.793230533599854 l0.8715065568685532, -2.324017435312271 0.0, -2.324017435312271 l-1.0167576372623444, -3.9217793941497803 0.0, -3.3407750725746155 l0.5810043588280678, -2.178766429424286 3.63127738237381, -6.10054612159729 l5.6647926568984985, -7.988809943199158 2.4692685902118683, -5.519541501998901 m-11.76533818244934, 33.6982536315918 l3.776528537273407, -0.14525108970701694 m11.039083003997803, 2.324017435312271 l1.1620087176561356, -0.5810043588280678 6.2457966804504395, -1.0167576372623444 l2.178766429424286, -1.452510952949524 2.324017435312271, -4.212281703948975 l4.793286025524139, -10.893832445144653 1.7430131137371063, -12.055840492248535 m-18.59213948249817, 28.46921443939209 l2.6145195960998535, -3.050273060798645 5.229039192199707, -10.458078384399414 l1.3072597980499268, -4.212281703948975 0.14525108970701694, -2.6145195960998535 l1.0167576372623444, -2.4692685902118683 2.6145195960998535, -2.324017435312271 l0.8715065568685532, -2.7597707509994507 1.452510952949524, -2.324017435312271 m8.279312252998352, 14.234607219696045 l0.14525108970701694, -1.452510952949524 4.938537180423737, -8.569814562797546 l5.519541501998901, -13.072597980499268 2.905021905899048, -0.2905021794140339 l2.0335152745246887, 3.1955239176750183 -0.14525108970701694, 3.050273060798645 l-3.3407750725746155, 5.955294966697693 -2.0335152745246887, 6.2457966804504395 l-1.7430131137371063, 3.9217793941497803 -0.726255476474762, 0.726255476474762 l-1.7430131137371063, 0.5810043588280678 -1.5977619588375092, -0.2905021794140339 l-1.452510952949524, -1.7430131137371063 -1.3072597980499268, -3.4860262274742126 m14.960862398147583, 7.698307633399963 l3.63127738237381, -4.938537180423737 5.374290347099304, -10.603330135345459 l3.9217793941497803, -6.2457966804504395 0.0, -1.5977619588375092 l-0.8715065568685532, -1.452510952949524 -2.4692685902118683, -1.5977619588375092 l-2.905021905899048, 0.0 -2.905021905899048, 3.1955239176750183 l-1.5977619588375092, 4.067030549049377 -0.726255476474762, 5.955294966697693 l-2.7597707509994507, 7.1173036098480225 0.0, 7.698307633399963 l0.8715065568685532, 1.452510952949524 1.3072597980499268, 0.8715065568685532 l2.4692685902118683, 0.14525108970701694 m-50.69262981414795, -27.016704082489014 l-0.14525108970701694, 0.726255476474762 0.5810043588280678, 1.0167576372623444 l1.452510952949524, 0.8715065568685532 2.7597707509994507, 1.1620087176561356 l2.905021905899048, 0.4357532784342766 5.6647926568984985, 0.0 l7.407805919647217, -1.452510952949524 9.731823205947876, 0.0 l8.42456340789795, 1.0167576372623444 7.988809943199158, -3.050273060798645 l11.910589933395386, -2.905021905899048 22.368667125701904, -0.8715065568685532 l1.3072597980499268, -1.452510952949524 0.0, -1.8882642686367035 l-2.178766429424286, -2.324017435312271 -3.63127738237381, -2.0335152745246887 l-11.039083003997803, -4.357532858848572 -7.1173036098480225, -4.357532858848572 l-24.69268560409546, -6.681550145149231 -11.184333562850952, -1.5977619588375092 l-6.391047835350037, 0.0 -5.374290347099304, 1.3072597980499268 l-3.63127738237381, 2.4692685902118683 -2.4692685902118683, 2.7597707509994507 l-4.502783715724945, 6.826801300048828 -0.8715065568685532, 2.4692685902118683 l0.0, 2.4692685902118683 0.8715065568685532, 1.7430131137371063 l2.0335152745246887, 1.7430131137371063 4.212281703948975, 1.3072597980499268 m20.480403900146484, 15.687117576599121 l0.5810043588280678, -7.26255476474762 m-4.793286025524139, 2.6145195960998535 l-0.2905021794140339, -0.8715065568685532 3.63127738237381, -5.08378803730011 l0.14525108970701694, -0.8715065568685532 m51.99989318847656, -14.815611839294434 l2.6145195960998535, 0.2905021794140339 1.0167576372623444, 1.0167576372623444 l0.4357532784342766, 1.3072597980499268 0.0, 22.078166007995605 l-0.14525108970701694, 1.1620087176561356 -1.452510952949524, 1.3072597980499268 l-2.324017435312271, 0.0 -1.3072597980499268, -1.1620087176561356 l0.4357532784342766, -2.178766429424286 m2.6145195960998535, -20.480403900146484 l-0.14525108970701694, -5.6647926568984985 m-4.067030549049377, 2.6145195960998535 l1.5977619588375092, 4.357532858848572 0.14525108970701694, 4.793286025524139 m-4.357532858848572, 13.94410490989685 l1.0167576372623444, 0.4357532784342766 4.212281703948975, 0.0 l2.178766429424286, -0.5810043588280678 2.324017435312271, -1.7430131137371063 l2.324017435312271, -2.324017435312271 2.905021905899048, -4.502783715724945 l0.0, -2.905021905899048 m-39.36304569244385, -1.7430131137371063 l1.1620087176561356, 1.5977619588375092 2.178766429424286, 1.1620087176561356 l5.374290347099304, 1.5977619588375092 34.569759368896484, 7.698307633399963 " fill="none" stroke="black" stroke-width="1" /></svg>