<?xml version="1.0" encoding="utf-8" ?>
<svg baseProfile="full" height="68.10043634846807" version="1.1" width="80.73728148825467" xmlns="http://www.w3.org/2000/svg" xmlns:ev="http://www.w3.org/2001/xml-events" xmlns:xlink="http://www.w3.org/1999/xlink"><defs /><rect fill="white" height="68.10043634846807" width="80.73728148825467" x="0" y="0" /><path d="M43.34628847427666, 15.458078533411026 m-1.5977619588375092, -0.726255476474762 l-3.1955239176750183, 0.0 -3.050273060798645, 0.5810043588280678 l-3.1955239176750183, 2.0335152745246887 -4.212281703948975, 4.502783715724945 l-3.776528537273407, 5.6647926568984985 -1.452510952949524, 3.776528537273407 l-0.4357532784342766, 3.4860262274742126 0.0, 8.42456340789795 l2.4692685902118683, 6.2457966804504395 5.229039192199707, 3.4860262274742126 l8.42456340789795, 1.7430131137371063 4.793286025524139, 0.0 l2.7597707509994507, -1.452510952949524 6.826801300048828, -9.877074360847473 l2.6145195960998535, -2.905021905899048 1.5977619588375092, -7.988809943199158 l0.0, -6.536298990249634 -1.8882642686367035, -4.212281703948975 l-3.050273060798645, -4.648034870624542 -3.776528537273407, -3.4860262274742126 l-1.5977619588375092, -0.5810043588280678 m-9.296069741249084, 2.7597707509994507 l0.2905021794140339, -6.681550145149231 3.4860262274742126, -4.067030549049377 l2.7597707509994507, 6.2457966804504395 3.3407750725746155, -2.905021905899048 l3.4860262274742126, -1.7430131137371063 4.067030549049377, -0.726255476474762 l1.0167576372623444, 2.6145195960998535 0.2905021794140339, 4.357532858848572 l0.726255476474762, 0.5810043588280678 6.826801300048828, 0.0 l5.229039192199707, -0.726255476474762 -0.5810043588280678, 1.452510952949524 l-1.7430131137371063, 1.7430131137371063 1.3072597980499268, 0.8715065568685532 l4.357532858848572, 0.726255476474762 2.7597707509994507, 1.5977619588375092 l0.5810043588280678, 0.726255476474762 0.0, 1.452510952949524 l-1.7430131137371063, 1.7430131137371063 -7.8435587882995605, 3.63127738237381 l0.0, 1.0167576372623444 4.793286025524139, 2.4692685902118683 l0.5810043588280678, 0.726255476474762 0.0, 1.5977619588375092 l-7.407805919647217, 4.212281703948975 -5.519541501998901, 1.1620087176561356 l1.8882642686367035, 1.3072597980499268 1.452510952949524, 2.0335152745246887 l0.14525108970701694, 1.5977619588375092 -1.452510952949524, 1.5977619588375092 l0.2905021794140339, 0.726255476474762 7.26255476474762, 2.324017435312271 l0.8715065568685532, 0.4357532784342766 1.0167576372623444, 1.7430131137371063 l-1.452510952949524, 1.7430131137371063 -9.586572051048279, 1.7430131137371063 l5.6647926568984985, -0.4357532784342766 5.374290347099304, 0.2905021794140339 l3.3407750725746155, 1.0167576372623444 1.3072597980499268, 0.8715065568685532 l-1.0167576372623444, 1.0167576372623444 -6.391047835350037, 1.5977619588375092 l-12.20109224319458, 1.0167576372623444 6.826801300048828, 0.0 l4.067030549049377, 1.3072597980499268 -1.452510952949524, 0.726255476474762 l-7.698307633399963, 0.8715065568685532 -4.938537180423737, 0.0 l-3.9217793941497803, -0.726255476474762 4.067030549049377, 0.2905021794140339 l1.452510952949524, 0.8715065568685532 -2.178766429424286, 1.1620087176561356 l-6.2457966804504395, -0.2905021794140339 -2.324017435312271, -0.726255476474762 l1.1620087176561356, -0.4357532784342766 4.357532858848572, 0.726255476474762 l-11.76533818244934, 0.8715065568685532 -4.648034870624542, -0.5810043588280678 l0.5810043588280678, -0.8715065568685532 1.452510952949524, -0.14525108970701694 l-7.407805919647217, -0.2905021794140339 -0.726255476474762, -0.2905021794140339 l0.8715065568685532, -1.1620087176561356 1.452510952949524, -0.8715065568685532 l3.4860262274742126, -0.8715065568685532 -17.575381994247437, 0.0 l2.178766429424286, -0.726255476474762 11.184333562850952, -0.4357532784342766 l-1.8882642686367035, 0.0 -10.458078384399414, -2.7597707509994507 l-0.8715065568685532, -0.4357532784342766 3.1955239176750183, -1.452510952949524 l-1.1620087176561356, -1.0167576372623444 -9.586572051048279, -3.4860262274742126 l-1.5977619588375092, -1.5977619588375092 1.7430131137371063, -1.452510952949524 l2.6145195960998535, -0.8715065568685532 0.0, -0.726255476474762 l-2.0335152745246887, -1.3072597980499268 1.452510952949524, -1.452510952949524 l5.229039192199707, -3.3407750725746155 0.4357532784342766, -0.726255476474762 l-0.726255476474762, -1.3072597980499268 -1.3072597980499268, -0.5810043588280678 l0.0, -1.0167576372623444 3.1955239176750183, -1.1620087176561356 l3.4860262274742126, -2.324017435312271 -0.726255476474762, -0.726255476474762 l-2.6145195960998535, -0.726255476474762 0.8715065568685532, -1.3072597980499268 l6.972052454948425, -6.2457966804504395 -0.14525108970701694, -0.726255476474762 l-2.905021905899048, -2.178766429424286 -5.374290347099304, -2.178766429424286 l0.14525108970701694, -1.0167576372623444 3.9217793941497803, -2.7597707509994507 l8.134061098098755, -2.0335152745246887 2.0335152745246887, 0.0 l-0.8715065568685532, 0.726255476474762 7.553057074546814, -0.4357532784342766 l-0.8715065568685532, 0.726255476474762 5.810043811798096, 0.726255476474762 m-8.569814562797546, 16.12287163734436 l-1.452510952949524, 3.050273060798645 -0.14525108970701694, 1.8882642686367035 l1.0167576372623444, 0.4357532784342766 2.324017435312271, -0.4357532784342766 l0.726255476474762, -4.357532858848572 -0.4357532784342766, -1.0167576372623444 l-1.1620087176561356, -0.8715065568685532 m10.893832445144653, 4.067030549049377 l-0.2905021794140339, 5.08378803730011 0.726255476474762, 0.5810043588280678 l0.8715065568685532, -0.2905021794140339 0.726255476474762, -5.08378803730011 l-0.2905021794140339, -0.726255476474762 -0.8715065568685532, -0.2905021794140339 m-0.4357532784342766, 3.63127738237381 l0.0, 0.0 m-11.039083003997803, -4.357532858848572 l-0.14525108970701694, 0.2905021794140339 " fill="none" stroke="black" stroke-width="1" /></svg>