<?xml version="1.0" encoding="utf-8" ?>
<svg baseProfile="full" height="48.636790569871664" version="1.1" width="45.731769092381" xmlns="http://www.w3.org/2000/svg" xmlns:ev="http://www.w3.org/2001/xml-events" xmlns:xlink="http://www.w3.org/1999/xlink"><defs /><rect fill="white" height="48.636790569871664" width="45.731769092381" x="0" y="0" /><path d="M27.804421931505203, 13.279312252998352 m1.0167576372623444, -2.324017435312271 l2.905021905899048, -4.067030549049377 2.0335152745246887, -1.8882642686367035 l0.5810043588280678, 0.8715065568685532 -0.4357532784342766, 4.502783715724945 l4.502783715724945, -4.067030549049377 1.8882642686367035, -1.1620087176561356 l0.4357532784342766, 0.726255476474762 -2.7597707509994507, 6.972052454948425 l2.324017435312271, 2.0335152745246887 0.2905021794140339, 1.5977619588375092 l-0.2905021794140339, 0.726255476474762 -2.7597707509994507, 1.3072597980499268 l-0.2905021794140339, 1.0167576372623444 1.3072597980499268, 2.7597707509994507 l0.0, 1.5977619588375092 -1.0167576372623444, 2.178766429424286 l-2.0335152745246887, 2.0335152745246887 1.5977619588375092, 2.905021905899048 l0.726255476474762, 3.776528537273407 -1.3072597980499268, 1.452510952949524 l-1.7430131137371063, 0.2905021794140339 -1.1620087176561356, 2.6145195960998535 l0.5810043588280678, 1.452510952949524 -0.14525108970701694, 0.8715065568685532 l-1.1620087176561356, 0.8715065568685532 -1.8882642686367035, 0.4357532784342766 l-0.2905021794140339, 0.8715065568685532 -5.519541501998901, -1.5977619588375092 l0.14525108970701694, 1.0167576372623444 -2.0335152745246887, -2.4692685902118683 l-1.5977619588375092, -0.8715065568685532 -1.7430131137371063, 1.1620087176561356 l-1.8882642686367035, -0.14525108970701694 -1.3072597980499268, -1.7430131137371063 l0.0, -1.8882642686367035 -2.324017435312271, -1.0167576372623444 l-1.8882642686367035, 0.0 1.8882642686367035, 0.2905021794140339 l0.4357532784342766, -1.0167576372623444 -2.178766429424286, -2.4692685902118683 l0.2905021794140339, -18.59213948249817 -0.14525108970701694, -0.726255476474762 l-0.726255476474762, 2.178766429424286 -1.0167576372623444, -1.7430131137371063 l2.324017435312271, 0.4357532784342766 0.4357532784342766, -1.8882642686367035 l-0.726255476474762, -1.452510952949524 0.8715065568685532, -0.5810043588280678 l3.776528537273407, 0.5810043588280678 0.14525108970701694, -4.067030549049377 l1.1620087176561356, 0.14525108970701694 2.4692685902118683, 2.324017435312271 l0.8715065568685532, 0.2905021794140339 2.178766429424286, -0.14525108970701694 l0.726255476474762, -1.1620087176561356 3.9217793941497803, 5.519541501998901 l0.4357532784342766, 0.726255476474762 -0.2905021794140339, 0.4357532784342766 m-20.04465103149414, -0.8715065568685532 l-1.452510952949524, 0.0 -2.905021905899048, 5.955294966697693 l0.2905021794140339, 6.10054612159729 2.178766429424286, 0.8715065568685532 l0.726255476474762, 1.1620087176561356 m15.106114149093628, -9.731823205947876 l-0.8715065568685532, -0.4357532784342766 -1.8882642686367035, 4.067030549049377 l-0.4357532784342766, 5.810043811798096 0.8715065568685532, 2.0335152745246887 l1.0167576372623444, 1.0167576372623444 6.10054612159729, 2.4692685902118683 l2.4692685902118683, -0.8715065568685532 1.452510952949524, -2.0335152745246887 l0.5810043588280678, -7.8435587882995605 -1.0167576372623444, -3.3407750725746155 l-1.3072597980499268, -1.3072597980499268 -2.324017435312271, -1.1620087176561356 l-4.212281703948975, 0.14525108970701694 m0.0, 7.26255476474762 l0.14525108970701694, 2.7597707509994507 0.8715065568685532, 1.8882642686367035 l0.726255476474762, -0.8715065568685532 0.4357532784342766, -2.0335152745246887 " fill="none" stroke="black" stroke-width="1" /></svg>