<?xml version="1.0" encoding="utf-8" ?>
<svg baseProfile="full" height="69.11719430238008" version="1.1" width="73.18422513082623" xmlns="http://www.w3.org/2000/svg" xmlns:ev="http://www.w3.org/2001/xml-events" xmlns:xlink="http://www.w3.org/1999/xlink"><defs /><rect fill="white" height="69.11719430238008" width="73.18422513082623" x="0" y="0" /><path d="M22.865884685888886, 28.385425247251987 m-1.3072597980499268, 1.1620087176561356 l-1.5977619588375092, 3.1955239176750183 0.0, 5.810043811798096 l1.3072597980499268, 3.9217793941497803 1.7430131137371063, 2.7597707509994507 l2.0335152745246887, 1.7430131137371063 6.681550145149231, 3.63127738237381 l3.776528537273407, 0.8715065568685532 3.776528537273407, 0.14525108970701694 l3.4860262274742126, -0.5810043588280678 4.067030549049377, -1.7430131137371063 l6.2457966804504395, -4.357532858848572 1.8882642686367035, -1.7430131137371063 l1.452510952949524, -2.324017435312271 2.178766429424286, -5.08378803730011 l-0.14525108970701694, -2.0335152745246887 -2.178766429424286, -5.08378803730011 l-1.5977619588375092, -2.0335152745246887 -4.212281703948975, -3.4860262274742126 l-2.0335152745246887, -0.726255476474762 -8.715065717697144, -2.324017435312271 l-5.08378803730011, -0.726255476474762 -1.7430131137371063, 0.5810043588280678 l-1.452510952949524, 1.7430131137371063 -4.502783715724945, 2.7597707509994507 l-3.1955239176750183, 0.2905021794140339 -2.178766429424286, -1.1620087176561356 m-12.20109224319458, -0.726255476474762 l-4.357532858848572, 1.5977619588375092 0.726255476474762, 0.726255476474762 l1.5977619588375092, 0.14525108970701694 1.5977619588375092, 0.8715065568685532 l1.7430131137371063, 2.178766429424286 -0.2905021794140339, 1.7430131137371063 l-4.938537180423737, 7.698307633399963 3.050273060798645, 0.5810043588280678 l0.726255476474762, 0.5810043588280678 0.0, 1.452510952949524 l-2.0335152745246887, 3.050273060798645 0.2905021794140339, 0.726255476474762 l4.502783715724945, 0.4357532784342766 0.5810043588280678, 0.726255476474762 l-0.8715065568685532, 11.329585313796997 1.0167576372623444, 0.0 l3.4860262274742126, -1.8882642686367035 5.374290347099304, -1.452510952949524 l1.3072597980499268, 0.8715065568685532 0.0, 2.4692685902118683 l0.726255476474762, 1.5977619588375092 1.5977619588375092, 0.14525108970701694 l4.793286025524139, -1.3072597980499268 0.726255476474762, 0.726255476474762 l0.4357532784342766, 1.7430131137371063 2.905021905899048, 2.178766429424286 l1.7430131137371063, -2.324017435312271 0.726255476474762, 0.0 l3.1955239176750183, 2.905021905899048 1.5977619588375092, 0.726255476474762 l1.3072597980499268, -2.178766429424286 0.8715065568685532, -0.14525108970701694 l10.02232551574707, 3.3407750725746155 1.8882642686367035, 0.0 l1.5977619588375092, -0.5810043588280678 0.726255476474762, -2.905021905899048 l8.715065717697144, -1.3072597980499268 1.452510952949524, -0.726255476474762 l0.2905021794140339, -1.0167576372623444 -1.1620087176561356, -3.4860262274742126 l-1.3072597980499268, -2.0335152745246887 -1.7430131137371063, -1.5977619588375092 l2.324017435312271, -0.14525108970701694 m-56.793174743652344, -28.904967308044434 l-0.2905021794140339, -2.0335152745246887 0.726255476474762, -0.4357532784342766 l3.050273060798645, -0.2905021794140339 1.8882642686367035, -5.229039192199707 l3.9217793941497803, 1.8882642686367035 4.502783715724945, -4.067030549049377 l0.726255476474762, 0.0 0.726255476474762, 0.726255476474762 l0.5810043588280678, 1.452510952949524 5.810043811798096, -2.905021905899048 m0.0, 0.0 l2.324017435312271, -0.14525108970701694 5.229039192199707, -3.63127738237381 l3.63127738237381, -1.7430131137371063 0.726255476474762, 0.726255476474762 l0.8715065568685532, 3.1955239176750183 0.8715065568685532, 0.4357532784342766 l4.357532858848572, -0.5810043588280678 1.1620087176561356, 1.0167576372623444 l0.726255476474762, 2.324017435312271 1.3072597980499268, -0.14525108970701694 " fill="none" stroke="black" stroke-width="1" /></svg>