<?xml version="1.0" encoding="utf-8" ?>
<svg baseProfile="full" height="107.89923603646457" version="1.1" width="142.46899434365332" xmlns="http://www.w3.org/2000/svg" xmlns:ev="http://www.w3.org/2001/xml-events" xmlns:xlink="http://www.w3.org/1999/xlink"><defs /><rect fill="white" height="107.89923603646457" width="142.46899434365332" x="0" y="0" /><path d="M71.8155010510236, 16.039082845672965 m-2.7597707509994507, 0.4357532784342766 l-6.972052454948425, 3.3407750725746155 -4.212281703948975, 3.4860262274742126 l-8.569814562797546, 8.715065717697144 -3.050273060798645, 5.374290347099304 l-4.067030549049377, 10.893832445144653 -1.0167576372623444, 5.229039192199707 l-0.2905021794140339, 5.08378803730011 0.2905021794140339, 5.374290347099304 l1.5977619588375092, 5.374290347099304 4.067030549049377, 7.407805919647217 l2.4692685902118683, 2.178766429424286 2.905021905899048, 1.1620087176561356 l8.42456340789795, 1.7430131137371063 12.782095670700073, -0.14525108970701694 l4.502783715724945, -1.1620087176561356 1.8882642686367035, -1.3072597980499268 l1.1620087176561356, -1.1620087176561356 3.3407750725746155, -6.681550145149231 l1.452510952949524, -3.3407750725746155 2.324017435312271, -8.715065717697144 l0.8715065568685532, -5.519541501998901 0.4357532784342766, -8.279312252998352 l-1.7430131137371063, -12.34634280204773 -2.6145195960998535, -7.553057074546814 l-1.452510952949524, -2.6145195960998535 -0.8715065568685532, -0.726255476474762 l-3.3407750725746155, -1.1620087176561356 -9.731823205947876, -2.7597707509994507 l3.63127738237381, -1.7430131137371063 11.620087623596191, -1.5977619588375092 l20.04465103149414, -0.8715065568685532 19.318394660949707, -1.452510952949524 l13.217849731445312, -2.0335152745246887 -2.6145195960998535, 2.6145195960998535 l-8.86031687259674, 4.212281703948975 -1.8882642686367035, 0.4357532784342766 l10.893832445144653, -1.8882642686367035 -1.5977619588375092, 1.8882642686367035 l-4.067030549049377, 2.6145195960998535 -24.983186721801758, 8.569814562797546 l1.3072597980499268, 0.2905021794140339 3.63127738237381, -0.2905021794140339 l7.553057074546814, -1.0167576372623444 -3.1955239176750183, 1.7430131137371063 l-29.631223678588867, 9.296069741249084 0.14525108970701694, 0.8715065568685532 l20.33515214920044, 0.0 -0.4357532784342766, 1.0167576372623444 l-4.357532858848572, 4.648034870624542 -1.452510952949524, 2.324017435312271 l-0.14525108970701694, 1.452510952949524 0.2905021794140339, 1.1620087176561356 l1.7430131137371063, 0.726255476474762 10.893832445144653, 0.8715065568685532 l1.3072597980499268, 0.4357532784342766 -2.324017435312271, 5.374290347099304 l-0.4357532784342766, 2.7597707509994507 0.2905021794140339, 0.726255476474762 l1.3072597980499268, 0.5810043588280678 2.178766429424286, 2.324017435312271 l0.726255476474762, 4.502783715724945 0.0, 6.681550145149231 l-0.8715065568685532, 4.502783715724945 -1.0167576372623444, 2.324017435312271 l-1.3072597980499268, 1.3072597980499268 -1.3072597980499268, 0.14525108970701694 l-2.6145195960998535, -1.5977619588375092 -12.927347421646118, -12.782095670700073 l-1.0167576372623444, 5.374290347099304 -2.178766429424286, 7.407805919647217 l-2.4692685902118683, 4.502783715724945 -12.927347421646118, 13.94410490989685 l-2.6145195960998535, 1.5977619588375092 -3.63127738237381, 0.5810043588280678 l-1.8882642686367035, -0.5810043588280678 -3.1955239176750183, -2.6145195960998535 l-8.279312252998352, -10.458078384399414 -5.955294966697693, 1.5977619588375092 l-3.776528537273407, 0.0 -1.452510952949524, -3.776528537273407 l-0.726255476474762, -0.14525108970701694 -24.983186721801758, 0.2905021794140339 l0.4357532784342766, -2.324017435312271 2.178766429424286, -3.3407750725746155 l-1.5977619588375092, -1.1620087176561356 -11.184333562850952, -1.452510952949524 l-3.63127738237381, -1.0167576372623444 -0.14525108970701694, -2.324017435312271 l19.463646411895752, -15.977619886398315 9.150818586349487, -8.715065717697144 l1.8882642686367035, -2.6145195960998535 -0.14525108970701694, -1.3072597980499268 l-1.7430131137371063, -1.452510952949524 -3.776528537273407, -1.5977619588375092 l-7.988809943199158, -1.7430131137371063 -14.670360088348389, -2.178766429424286 l0.2905021794140339, -0.8715065568685532 5.374290347099304, -1.8882642686367035 l3.3407750725746155, -2.178766429424286 0.2905021794140339, -1.1620087176561356 l-0.8715065568685532, -1.7430131137371063 0.14525108970701694, -2.0335152745246887 l1.7430131137371063, -4.357532858848572 7.553057074546814, -11.329585313796997 l0.8715065568685532, -3.3407750725746155 2.6145195960998535, -2.905021905899048 l4.648034870624542, -2.324017435312271 4.793286025524139, -0.8715065568685532 l8.42456340789795, 0.0 -0.5810043588280678, 5.519541501998901 l4.502783715724945, -0.8715065568685532 6.972052454948425, -2.6145195960998535 l6.972052454948425, -1.8882642686367035 7.26255476474762, 0.2905021794140339 l1.1620087176561356, 0.5810043588280678 0.2905021794140339, 0.726255476474762 l0.0, 3.3407750725746155 -1.5977619588375092, 2.905021905899048 l-0.5810043588280678, 4.793286025524139 m-13.508352041244507, 19.173144102096558 l-1.7430131137371063, 2.7597707509994507 -2.4692685902118683, 7.407805919647217 l0.0, 0.8715065568685532 2.6145195960998535, -0.2905021794140339 l0.726255476474762, -0.2905021794140339 0.726255476474762, -1.8882642686367035 l0.4357532784342766, -14.234607219696045 m-0.726255476474762, 11.184333562850952 l-1.0167576372623444, 1.452510952949524 " fill="none" stroke="black" stroke-width="1" /></svg>