<?xml version="1.0" encoding="utf-8" ?>
<svg baseProfile="full" height="77.54175777547061" version="1.1" width="85.5305680911988" xmlns="http://www.w3.org/2000/svg" xmlns:ev="http://www.w3.org/2001/xml-events" xmlns:xlink="http://www.w3.org/1999/xlink"><defs /><rect fill="white" height="77.54175777547061" width="85.5305680911988" x="0" y="0" /><path d="M35.35747800953686, 15.89383265003562 m-2.6145195960998535, -0.14525108970701694 l-3.9217793941497803, 2.0335152745246887 -7.698307633399963, 5.374290347099304 l-3.63127738237381, 4.067030549049377 -2.324017435312271, 5.374290347099304 l-0.5810043588280678, 3.1955239176750183 0.0, 6.826801300048828 l1.1620087176561356, 3.3407750725746155 1.8882642686367035, 3.3407750725746155 l2.4692685902118683, 2.905021905899048 5.6647926568984985, 5.08378803730011 l3.1955239176750183, 1.7430131137371063 6.10054612159729, 1.8882642686367035 l3.776528537273407, 0.2905021794140339 3.776528537273407, -0.2905021794140339 l3.4860262274742126, -1.1620087176561356 5.519541501998901, -3.63127738237381 l2.178766429424286, -2.178766429424286 2.7597707509994507, -4.212281703948975 l1.1620087176561356, -5.6647926568984985 -0.4357532784342766, -6.391047835350037 l-2.6145195960998535, -6.2457966804504395 -7.698307633399963, -12.20109224319458 l-4.212281703948975, -3.776528537273407 -3.63127738237381, -0.8715065568685532 m-10.603330135345459, -0.4357532784342766 l1.0167576372623444, -3.1955239176750183 2.7597707509994507, -2.178766429424286 l3.63127738237381, -0.2905021794140339 1.0167576372623444, 1.1620087176561356 l3.1955239176750183, 0.14525108970701694 6.972052454948425, -4.793286025524139 l0.8715065568685532, 2.0335152745246887 0.2905021794140339, 6.826801300048828 l0.5810043588280678, 2.178766429424286 1.1620087176561356, 1.452510952949524 l1.8882642686367035, 0.726255476474762 3.1955239176750183, -0.4357532784342766 l6.826801300048828, -6.536298990249634 0.5810043588280678, 1.452510952949524 l-2.178766429424286, 9.441320896148682 -0.14525108970701694, 6.2457966804504395 l0.4357532784342766, 1.7430131137371063 1.0167576372623444, 0.5810043588280678 l3.63127738237381, -0.14525108970701694 10.748580694198608, -4.648034870624542 l3.1955239176750183, -0.726255476474762 1.1620087176561356, 0.14525108970701694 l0.14525108970701694, 2.0335152745246887 -12.34634280204773, 25.273690223693848 l3.63127738237381, -4.212281703948975 2.905021905899048, -1.8882642686367035 l-0.4357532784342766, 1.3072597980499268 -12.34634280204773, 14.234607219696045 l-0.726255476474762, -0.5810043588280678 -1.1620087176561356, 0.0 l-2.178766429424286, 1.0167576372623444 -2.905021905899048, 2.178766429424286 l-7.407805919647217, 7.1173036098480225 -0.726255476474762, 0.0 l0.14525108970701694, -11.620087623596191 -1.3072597980499268, -1.7430131137371063 l-3.1955239176750183, -0.14525108970701694 -4.793286025524139, 2.6145195960998535 l-4.212281703948975, 3.3407750725746155 -4.067030549049377, 5.519541501998901 l-0.8715065568685532, 2.7597707509994507 -3.63127738237381, -10.02232551574707 l-2.324017435312271, -2.178766429424286 -4.357532858848572, -0.4357532784342766 l-4.793286025524139, 1.5977619588375092 -4.357532858848572, 2.6145195960998535 l-4.067030549049377, 3.776528537273407 2.905021905899048, -5.374290347099304 l2.0335152745246887, -5.229039192199707 1.8882642686367035, -9.296069741249084 l0.0, -2.324017435312271 -0.5810043588280678, -0.726255476474762 l-2.0335152745246887, 0.2905021794140339 -2.4692685902118683, 2.6145195960998535 l1.5977619588375092, -7.988809943199158 3.63127738237381, -13.798853158950806 l0.0, -1.8882642686367035 -1.8882642686367035, -0.14525108970701694 l-0.8715065568685532, 1.0167576372623444 1.1620087176561356, -0.5810043588280678 l5.810043811798096, -7.1173036098480225 5.374290347099304, -8.279312252998352 l2.6145195960998535, -3.1955239176750183 -0.4357532784342766, 7.553057074546814 l0.0, 2.0335152745246887 0.4357532784342766, 0.8715065568685532 l1.0167576372623444, 0.0 5.519541501998901, -5.6647926568984985 l0.5810043588280678, 2.0335152745246887 m-5.6647926568984985, 11.329585313796997 l-0.4357532784342766, 1.1620087176561356 0.0, 3.63127738237381 l1.452510952949524, 0.5810043588280678 1.7430131137371063, -1.0167576372623444 l0.8715065568685532, -2.324017435312271 0.0, -1.8882642686367035 m14.960862398147583, 4.502783715724945 l-0.4357532784342766, 0.8715065568685532 0.0, 3.776528537273407 l0.726255476474762, 0.4357532784342766 3.1955239176750183, -6.826801300048828 " fill="none" stroke="black" stroke-width="1" /></svg>