<?xml version="1.0" encoding="utf-8" ?>
<svg baseProfile="full" height="48.49153940565884" version="1.1" width="57.20660410821438" xmlns="http://www.w3.org/2000/svg" xmlns:ev="http://www.w3.org/2001/xml-events" xmlns:xlink="http://www.w3.org/1999/xlink"><defs /><rect fill="white" height="48.49153940565884" width="57.20660410821438" x="0" y="0" /><path d="M28.966429345309734, 13.71506541967392 m-2.324017435312271, 0.8715065568685532 l-3.050273060798645, 0.2905021794140339 -0.8715065568685532, 0.5810043588280678 l-4.793286025524139, 6.536298990249634 -0.8715065568685532, 1.452510952949524 l-0.2905021794140339, 1.8882642686367035 0.5810043588280678, 0.5810043588280678 l1.1620087176561356, 3.776528537273407 2.905021905899048, 4.067030549049377 l2.6145195960998535, 2.6145195960998535 2.324017435312271, 0.726255476474762 l4.648034870624542, 0.14525108970701694 1.1620087176561356, -0.4357532784342766 l2.6145195960998535, -2.6145195960998535 2.6145195960998535, -1.5977619588375092 l2.0335152745246887, -2.7597707509994507 1.8882642686367035, -4.067030549049377 l0.4357532784342766, -3.1955239176750183 -0.4357532784342766, -4.212281703948975 l-1.7430131137371063, -2.6145195960998535 -4.502783715724945, -0.8715065568685532 l-4.212281703948975, -1.452510952949524 -3.4860262274742126, 0.14525108970701694 l-1.5977619588375092, 1.0167576372623444 m-1.0167576372623444, -4.938537180423737 l2.6145195960998535, -2.4692685902118683 4.067030549049377, -2.178766429424286 l1.452510952949524, 0.14525108970701694 1.7430131137371063, 3.3407750725746155 l0.5810043588280678, 0.0 0.8715065568685532, 0.8715065568685532 l8.569814562797546, -0.726255476474762 3.050273060798645, 0.4357532784342766 l1.8882642686367035, 5.374290347099304 0.2905021794140339, 3.3407750725746155 l0.4357532784342766, 1.1620087176561356 -0.726255476474762, 2.905021905899048 l2.6145195960998535, -0.5810043588280678 0.0, 3.776528537273407 l-2.0335152745246887, 5.08378803730011 -0.8715065568685532, 1.1620087176561356 l-2.4692685902118683, 0.8715065568685532 -2.324017435312271, 4.357532858848572 l-4.357532858848572, 5.6647926568984985 -3.1955239176750183, 0.726255476474762 l-6.536298990249634, 0.0 -6.2457966804504395, 0.2905021794140339 l-1.1620087176561356, 0.2905021794140339 -5.08378803730011, -0.4357532784342766 l-2.324017435312271, -1.1620087176561356 -1.0167576372623444, -3.9217793941497803 l-1.8882642686367035, -0.8715065568685532 -4.502783715724945, -0.14525108970701694 l-1.1620087176561356, -1.0167576372623444 -2.0335152745246887, -5.374290347099304 l0.726255476474762, -4.067030549049377 2.905021905899048, -4.212281703948975 l3.776528537273407, -1.452510952949524 2.4692685902118683, -3.9217793941497803 l3.63127738237381, -2.905021905899048 2.178766429424286, -3.63127738237381 l3.9217793941497803, -2.324017435312271 0.4357532784342766, -1.452510952949524 l0.726255476474762, -0.5810043588280678 1.8882642686367035, -0.4357532784342766 m-4.357532858848572, 15.106114149093628 l2.178766429424286, 0.0 -1.452510952949524, 0.2905021794140339 m8.86031687259674, -0.14525108970701694 l1.3072597980499268, -1.452510952949524 0.8715065568685532, 0.14525108970701694 l0.0, 0.5810043588280678 -2.0335152745246887, 0.726255476474762 m-8.42456340789795, 9.150818586349487 l7.8435587882995605, -1.1620087176561356 " fill="none" stroke="black" stroke-width="1" /></svg>