<?xml version="1.0" encoding="utf-8" ?>
<svg baseProfile="full" height="112.25676887668669" version="1.1" width="119.66457764618099" xmlns="http://www.w3.org/2000/svg" xmlns:ev="http://www.w3.org/2001/xml-events" xmlns:xlink="http://www.w3.org/1999/xlink"><defs /><rect fill="white" height="112.25676887668669" width="119.66457764618099" x="0" y="0" /><path d="M56.273633325472474, 36.51948645710945 m-4.357532858848572, 0.4357532784342766 l-4.357532858848572, 3.1955239176750183 -2.178766429424286, 5.810043811798096 l-0.14525108970701694, 3.4860262274742126 0.14525108970701694, 1.0167576372623444 l1.3072597980499268, 1.5977619588375092 5.08378803730011, 1.7430131137371063 l3.9217793941497803, -0.14525108970701694 2.7597707509994507, -1.7430131137371063 l0.8715065568685532, -3.050273060798645 0.0, -2.905021905899048 l-1.1620087176561356, -1.8882642686367035 -2.6145195960998535, -2.0335152745246887 l-1.7430131137371063, -0.14525108970701694 m-5.810043811798096, 6.10054612159729 l2.4692685902118683, -0.726255476474762 m18.59213948249817, -8.715065717697144 l-2.324017435312271, 0.0 -2.6145195960998535, 1.3072597980499268 l-2.6145195960998535, 3.776528537273407 -0.8715065568685532, 2.905021905899048 l0.2905021794140339, 3.63127738237381 1.1620087176561356, 1.0167576372623444 l3.776528537273407, 1.3072597980499268 1.5977619588375092, -0.2905021794140339 l0.5810043588280678, -0.726255476474762 0.8715065568685532, -2.0335152745246887 l0.14525108970701694, -2.905021905899048 -2.178766429424286, -3.63127738237381 m-2.0335152745246887, 3.1955239176750183 l0.14525108970701694, 0.14525108970701694 m-14.08935546875, 12.782095670700073 l0.14525108970701694, -1.0167576372623444 2.178766429424286, -0.8715065568685532 l4.212281703948975, -0.726255476474762 5.955294966697693, 0.0 l3.4860262274742126, 2.0335152745246887 2.324017435312271, 1.7430131137371063 l2.178766429424286, 2.905021905899048 0.726255476474762, 3.63127738237381 l0.0, 5.6647926568984985 -1.8882642686367035, 3.63127738237381 l-1.3072597980499268, 1.3072597980499268 -6.972052454948425, 3.3407750725746155 l-4.067030549049377, 1.3072597980499268 -7.26255476474762, -0.14525108970701694 l-5.08378803730011, -2.178766429424286 -2.0335152745246887, -2.178766429424286 l-0.2905021794140339, -3.1955239176750183 -2.324017435312271, -3.3407750725746155 l-0.4357532784342766, -1.7430131137371063 0.2905021794140339, -0.726255476474762 l2.324017435312271, -2.6145195960998535 2.324017435312271, -1.452510952949524 l7.1173036098480225, -2.905021905899048 m-3.050273060798645, -3.050273060798645 l-0.14525108970701694, 0.8715065568685532 1.0167576372623444, 3.3407750725746155 l1.8882642686367035, 4.357532858848572 0.726255476474762, 0.4357532784342766 l0.0, -2.4692685902118683 0.8715065568685532, -4.502783715724945 m2.7597707509994507, -1.452510952949524 l1.0167576372623444, 1.0167576372623444 2.6145195960998535, 6.2457966804504395 l0.8715065568685532, 0.14525108970701694 3.4860262274742126, -5.6647926568984985 m-14.08935546875, 18.44688892364502 l1.5977619588375092, -6.391047835350037 2.178766429424286, -0.2905021794140339 l1.1620087176561356, 0.5810043588280678 3.776528537273407, 3.9217793941497803 l0.8715065568685532, -1.0167576372623444 1.0167576372623444, -3.776528537273407 m1.7430131137371063, -2.178766429424286 l1.452510952949524, 1.0167576372623444 2.905021905899048, 3.3407750725746155 l0.8715065568685532, -0.4357532784342766 0.14525108970701694, -5.6647926568984985 l0.8715065568685532, -0.14525108970701694 2.905021905899048, 2.6145195960998535 l2.178766429424286, 3.63127738237381 m-47.06135272979736, -35.58651685714722 l-1.3072597980499268, -1.5977619588375092 -2.6145195960998535, -1.5977619588375092 l-3.1955239176750183, -1.0167576372623444 -3.9217793941497803, -0.2905021794140339 l-2.905021905899048, 1.3072597980499268 -2.178766429424286, 2.178766429424286 l-1.452510952949524, 2.7597707509994507 -0.2905021794140339, 5.519541501998901 l0.4357532784342766, 1.3072597980499268 4.648034870624542, 2.905021905899048 l7.1173036098480225, 2.324017435312271 -4.357532858848572, 1.452510952949524 l-9.150818586349487, 1.452510952949524 -2.905021905899048, 1.1620087176561356 l0.0, 0.8715065568685532 1.5977619588375092, 1.7430131137371063 l10.893832445144653, 6.536298990249634 0.5810043588280678, 0.8715065568685532 l-0.2905021794140339, 0.726255476474762 -5.08378803730011, 2.178766429424286 l0.0, 2.178766429424286 16.8491268157959, 12.636845111846924 l0.8715065568685532, 1.8882642686367035 0.0, 1.8882642686367035 l-1.452510952949524, 0.8715065568685532 0.0, 0.8715065568685532 l20.480403900146484, 17.139629125595093 1.7430131137371063, 0.14525108970701694 l4.357532858848572, -2.0335152745246887 4.793286025524139, -1.3072597980499268 l6.681550145149231, -0.8715065568685532 9.150818586349487, -0.14525108970701694 l3.63127738237381, -1.1620087176561356 8.715065717697144, -3.9217793941497803 l4.067030549049377, -3.63127738237381 1.5977619588375092, -2.4692685902118683 l1.8882642686367035, -4.212281703948975 0.5810043588280678, -5.374290347099304 l0.0, -2.905021905899048 -1.0167576372623444, -5.519541501998901 l-2.324017435312271, -4.648034870624542 -6.536298990249634, -8.715065717697144 l6.536298990249634, -2.178766429424286 1.1620087176561356, -1.1620087176561356 l1.1620087176561356, -3.1955239176750183 0.14525108970701694, -6.681550145149231 l-3.4860262274742126, -9.731823205947876 -3.3407750725746155, -5.6647926568984985 l-14.960862398147583, -18.882641792297363 -2.6145195960998535, -2.7597707509994507 l-2.4692685902118683, -0.8715065568685532 -4.357532858848572, 0.0 l-19.6088969707489, 7.407805919647217 -4.502783715724945, 0.0 l-3.050273060798645, -0.8715065568685532 -5.374290347099304, -0.5810043588280678 l-5.08378803730011, 9.441320896148682 -0.8715065568685532, 5.08378803730011 l-0.5810043588280678, 1.1620087176561356 -1.8882642686367035, 0.4357532784342766 m-5.229039192199707, -2.0335152745246887 l0.726255476474762, 0.8715065568685532 3.4860262274742126, 1.7430131137371063 l2.7597707509994507, 0.0 2.4692685902118683, -1.3072597980499268 l14.08935546875, -12.055840492248535 10.893832445144653, -7.553057074546814 l7.553057074546814, -4.067030549049377 7.26255476474762, -1.8882642686367035 l3.1955239176750183, 3.3407750725746155 0.8715065568685532, 2.324017435312271 l0.8715065568685532, 7.26255476474762 10.02232551574707, 4.648034870624542 l-1.452510952949524, 2.6145195960998535 0.0, 0.726255476474762 l1.3072597980499268, 1.1620087176561356 2.4692685902118683, 1.5977619588375092 l10.893832445144653, 4.502783715724945 10.603330135345459, 5.519541501998901 l8.279312252998352, 6.2457966804504395 m-1.5977619588375092, 1.0167576372623444 l-0.5810043588280678, 1.0167576372623444 0.8715065568685532, 0.726255476474762 l-3.4860262274742126, 0.2905021794140339 -15.541867017745972, -2.324017435312271 l-3.63127738237381, 0.0 3.1955239176750183, 2.0335152745246887 l11.76533818244934, 5.08378803730011 3.4860262274742126, 2.4692685902118683 l-1.452510952949524, 1.1620087176561356 -10.603330135345459, 3.4860262274742126 l-2.905021905899048, 1.3072597980499268 -0.726255476474762, 0.8715065568685532 l2.178766429424286, 3.3407750725746155 2.6145195960998535, 2.0335152745246887 l7.698307633399963, 3.3407750725746155 " fill="none" stroke="black" stroke-width="1" /></svg>