<?xml version="1.0" encoding="utf-8" ?>
<svg baseProfile="full" height="65.4859159886837" version="1.1" width="108.77074089832604" xmlns="http://www.w3.org/2000/svg" xmlns:ev="http://www.w3.org/2001/xml-events" xmlns:xlink="http://www.w3.org/1999/xlink"><defs /><rect fill="white" height="65.4859159886837" width="108.77074089832604" x="0" y="0" /><path d="M34.776474284008145, 19.52510803937912 m-1.3072597980499268, -0.5810043588280678 l-11.039083003997803, -0.726255476474762 -1.3072597980499268, 0.4357532784342766 l-1.5977619588375092, 1.3072597980499268 -1.8882642686367035, 3.776528537273407 l0.2905021794140339, 7.553057074546814 1.1620087176561356, 3.3407750725746155 l1.3072597980499268, 2.0335152745246887 3.1955239176750183, 2.905021905899048 l1.7430131137371063, 0.8715065568685532 6.536298990249634, 1.5977619588375092 l5.374290347099304, -0.14525108970701694 3.050273060798645, -1.5977619588375092 l2.324017435312271, -1.8882642686367035 1.0167576372623444, -1.5977619588375092 l1.3072597980499268, -3.776528537273407 0.5810043588280678, -5.374290347099304 l-0.14525108970701694, -1.7430131137371063 -1.7430131137371063, -2.178766429424286 l-6.826801300048828, -3.3407750725746155 -5.6647926568984985, -1.0167576372623444 m-13.653602600097656, 0.2905021794140339 l-1.1620087176561356, -0.2905021794140339 -1.0167576372623444, -1.1620087176561356 l-0.726255476474762, -1.8882642686367035 -0.726255476474762, -4.502783715724945 l0.14525108970701694, -4.502783715724945 0.5810043588280678, -0.8715065568685532 l1.0167576372623444, 0.2905021794140339 2.324017435312271, 8.134061098098755 l0.5810043588280678, 1.452510952949524 0.726255476474762, 0.2905021794140339 l1.7430131137371063, -0.5810043588280678 3.776528537273407, -5.955294966697693 l1.0167576372623444, -1.3072597980499268 1.5977619588375092, -1.0167576372623444 l1.1620087176561356, 7.8435587882995605 0.8715065568685532, 1.5977619588375092 l4.648034870624542, -5.955294966697693 0.8715065568685532, -0.8715065568685532 l2.178766429424286, -0.8715065568685532 0.726255476474762, 0.4357532784342766 l0.14525108970701694, 1.0167576372623444 -0.4357532784342766, 7.8435587882995605 l5.955294966697693, -2.905021905899048 1.5977619588375092, -0.14525108970701694 l0.14525108970701694, 0.726255476474762 -1.0167576372623444, 1.8882642686367035 l-3.3407750725746155, 3.4860262274742126 -2.7597707509994507, 1.1620087176561356 l5.229039192199707, -2.178766429424286 4.357532858848572, -0.726255476474762 l4.648034870624542, -0.14525108970701694 -0.8715065568685532, 2.0335152745246887 l-3.63127738237381, 3.050273060798645 -3.3407750725746155, 2.0335152745246887 l5.374290347099304, -0.8715065568685532 2.324017435312271, 0.0 l0.726255476474762, 0.8715065568685532 -0.2905021794140339, 2.0335152745246887 l-1.7430131137371063, 1.8882642686367035 -5.810043811798096, 3.63127738237381 l-2.0335152745246887, 0.5810043588280678 3.9217793941497803, 0.2905021794140339 l1.0167576372623444, 0.4357532784342766 1.1620087176561356, 1.7430131137371063 l-0.2905021794140339, 1.7430131137371063 -1.0167576372623444, 1.7430131137371063 l-1.8882642686367035, 0.8715065568685532 -2.905021905899048, 0.4357532784342766 l0.4357532784342766, 1.0167576372623444 2.7597707509994507, 2.4692685902118683 l-2.324017435312271, 0.4357532784342766 -3.050273060798645, -2.0335152745246887 l-1.7430131137371063, -1.8882642686367035 -0.2905021794140339, 0.8715065568685532 l1.0167576372623444, 6.2457966804504395 -0.8715065568685532, 0.2905021794140339 l-10.748580694198608, -4.067030549049377 -0.5810043588280678, 1.7430131137371063 l-0.4357532784342766, -8.86031687259674 -0.8715065568685532, 5.519541501998901 l-2.324017435312271, 3.776528537273407 -3.776528537273407, 2.324017435312271 l-2.6145195960998535, 0.0 -0.8715065568685532, -1.8882642686367035 l-0.2905021794140339, -2.178766429424286 0.14525108970701694, -5.229039192199707 l0.726255476474762, -2.324017435312271 -5.08378803730011, 3.1955239176750183 l-2.6145195960998535, 0.8715065568685532 0.4357532784342766, -3.1955239176750183 l2.178766429424286, -4.357532858848572 -5.6647926568984985, -1.0167576372623444 l-1.3072597980499268, -0.726255476474762 -0.2905021794140339, -1.7430131137371063 l3.1955239176750183, -1.3072597980499268 7.8435587882995605, -1.5977619588375092 l-7.26255476474762, -1.1620087176561356 -1.5977619588375092, -1.0167576372623444 l0.4357532784342766, -0.726255476474762 11.039083003997803, -2.7597707509994507 l-6.391047835350037, -0.5810043588280678 -1.0167576372623444, -0.4357532784342766 l0.0, -1.5977619588375092 4.502783715724945, -0.5810043588280678 l4.793286025524139, 0.0 3.4860262274742126, 1.452510952949524 m19.6088969707489, 7.698307633399963 l2.4692685902118683, -0.2905021794140339 19.899399280548096, -5.229039192199707 l9.00556743144989, -0.5810043588280678 8.42456340789795, 0.4357532784342766 m-39.50829744338989, 15.541867017745972 l1.3072597980499268, 0.726255476474762 38.346288204193115, 0.2905021794140339 m-0.4357532784342766, -19.173144102096558 l0.5810043588280678, 2.4692685902118683 1.1620087176561356, 15.541867017745972 m-35.00551223754883, -0.14525108970701694 l2.905021905899048, 14.08935546875 0.726255476474762, 7.553057074546814 m4.793286025524139, -18.301637172698975 l0.726255476474762, 1.0167576372623444 0.0, 3.9217793941497803 l2.4692685902118683, 6.391047835350037 0.726255476474762, 4.502783715724945 m22.368667125701904, -19.173144102096558 l-0.726255476474762, 0.726255476474762 0.0, 3.050273060798645 l1.452510952949524, 5.810043811798096 0.726255476474762, 7.553057074546814 m-9.150818586349487, -13.94410490989685 l1.452510952949524, 3.1955239176750183 1.1620087176561356, 4.938537180423737 l1.0167576372623444, 10.458078384399414 m4.067030549049377, -38.636789321899414 l0.14525108970701694, -1.3072597980499268 1.5977619588375092, -2.178766429424286 l9.296069741249084, -4.938537180423737 2.4692685902118683, -1.8882642686367035 l2.178766429424286, -2.0335152745246887 3.4860262274742126, -4.502783715724945 " fill="none" stroke="black" stroke-width="1" /></svg>