<?xml version="1.0" encoding="utf-8" ?>
<svg baseProfile="full" height="50.960808796808124" version="1.1" width="53.72057914733887" xmlns="http://www.w3.org/2000/svg" xmlns:ev="http://www.w3.org/2001/xml-events" xmlns:xlink="http://www.w3.org/1999/xlink"><defs /><rect fill="white" height="50.960808796808124" width="53.72057914733887" x="0" y="0" /><path d="M35.93848306685686, 27.949672313407063 m-1.5977619588375092, -1.7430131137371063 l0.0, -7.1173036098480225 0.5810043588280678, -1.452510952949524 l1.5977619588375092, -1.5977619588375092 1.7430131137371063, -0.2905021794140339 l1.0167576372623444, 1.1620087176561356 0.5810043588280678, 1.8882642686367035 l0.14525108970701694, 4.212281703948975 -0.14525108970701694, 2.0335152745246887 l-1.0167576372623444, 1.5977619588375092 -0.8715065568685532, 0.726255476474762 l-2.7597707509994507, -0.4357532784342766 -0.8715065568685532, -1.8882642686367035 l-0.2905021794140339, -2.4692685902118683 m1.0167576372623444, -6.2457966804504395 l-0.2905021794140339, -7.1173036098480225 0.726255476474762, -0.5810043588280678 l2.0335152745246887, 3.3407750725746155 0.726255476474762, 0.5810043588280678 l1.452510952949524, 0.14525108970701694 1.8882642686367035, -3.1955239176750183 l1.1620087176561356, -4.502783715724945 -1.5977619588375092, 7.1173036098480225 l-0.14525108970701694, 2.6145195960998535 5.229039192199707, -5.519541501998901 l0.14525108970701694, 1.5977619588375092 -4.357532858848572, 10.458078384399414 l4.938537180423737, -4.502783715724945 1.7430131137371063, -0.726255476474762 l0.0, 0.726255476474762 -0.2905021794140339, 2.178766429424286 l-3.1955239176750183, 7.1173036098480225 -1.452510952949524, 2.178766429424286 l0.8715065568685532, -0.14525108970701694 0.4357532784342766, 3.4860262274742126 l-0.4357532784342766, 2.4692685902118683 -1.3072597980499268, 0.5810043588280678 l-1.0167576372623444, -0.726255476474762 -2.6145195960998535, -4.067030549049377 l-0.726255476474762, -0.4357532784342766 -0.8715065568685532, 5.810043811798096 l-0.2905021794140339, 0.726255476474762 -1.3072597980499268, 0.4357532784342766 l-0.8715065568685532, -1.1620087176561356 -0.5810043588280678, -2.4692685902118683 l-0.14525108970701694, -5.955294966697693 -1.8882642686367035, 5.810043811798096 l-0.8715065568685532, 0.4357532784342766 -0.5810043588280678, -1.5977619588375092 l0.0, -13.072597980499268 1.3072597980499268, 2.178766429424286 l1.1620087176561356, 4.938537180423737 -2.0335152745246887, -4.357532858848572 l-0.726255476474762, -3.63127738237381 0.14525108970701694, -3.1955239176750183 l2.324017435312271, 0.0 3.4860262274742126, 1.3072597980499268 m-4.212281703948975, 7.553057074546814 l-4.648034870624542, -0.726255476474762 -5.229039192199707, -2.6145195960998535 l-2.4692685902118683, -0.726255476474762 -2.905021905899048, 0.0 l-3.776528537273407, 0.726255476474762 -2.0335152745246887, 1.0167576372623444 l-1.1620087176561356, 1.452510952949524 -1.1620087176561356, 3.3407750725746155 l0.0, 3.63127738237381 0.4357532784342766, 1.1620087176561356 l1.1620087176561356, 1.1620087176561356 1.8882642686367035, 0.4357532784342766 l4.502783715724945, 0.0 9.00556743144989, -2.905021905899048 l4.212281703948975, -2.0335152745246887 6.10054612159729, -0.726255476474762 m-20.189902782440186, 4.212281703948975 l-0.14525108970701694, 4.793286025524139 0.5810043588280678, 7.988809943199158 l0.5810043588280678, 1.8882642686367035 1.1620087176561356, 0.726255476474762 l1.452510952949524, -0.5810043588280678 0.8715065568685532, -1.5977619588375092 l1.3072597980499268, -4.793286025524139 0.4357532784342766, -2.6145195960998535 l-0.14525108970701694, -7.8435587882995605 m5.229039192199707, -2.4692685902118683 l0.0, 3.63127738237381 2.7597707509994507, 12.782095670700073 l1.3072597980499268, 0.8715065568685532 1.3072597980499268, 0.0 l1.452510952949524, -1.1620087176561356 1.3072597980499268, -2.178766429424286 l0.5810043588280678, -2.4692685902118683 0.0, -5.374290347099304 l-1.7430131137371063, -4.067030549049377 -3.3407750725746155, -4.212281703948975 l-0.5810043588280678, -1.452510952949524 m-19.318394660949707, -3.776528537273407 l-3.9217793941497803, -0.14525108970701694 -2.6145195960998535, 2.0335152745246887 l-0.2905021794140339, 1.7430131137371063 " fill="none" stroke="black" stroke-width="1" /></svg>