<?xml version="1.0" encoding="utf-8" ?>
<svg baseProfile="full" height="70.2792027592659" version="1.1" width="74.20098206028342" xmlns="http://www.w3.org/2000/svg" xmlns:ev="http://www.w3.org/2001/xml-events" xmlns:xlink="http://www.w3.org/1999/xlink"><defs /><rect fill="white" height="70.2792027592659" width="74.20098206028342" x="0" y="0" /><path d="M37.24574181251228, 13.424563314765692 m1.0167576372623444, -2.324017435312271 l4.067030549049377, -3.63127738237381 1.3072597980499268, -0.8715065568685532 l3.776528537273407, -0.2905021794140339 5.08378803730011, 1.5977619588375092 l3.776528537273407, 2.0335152745246887 1.8882642686367035, 2.905021905899048 l0.4357532784342766, 2.324017435312271 -0.14525108970701694, -2.0335152745246887 l0.8715065568685532, -0.726255476474762 1.1620087176561356, 0.0 l1.7430131137371063, 0.5810043588280678 3.9217793941497803, 3.3407750725746155 l1.3072597980499268, 1.8882642686367035 1.7430131137371063, 5.229039192199707 l-0.2905021794140339, 4.648034870624542 -1.5977619588375092, 2.4692685902118683 l-2.324017435312271, 2.324017435312271 -2.4692685902118683, 1.452510952949524 l-5.229039192199707, 1.0167576372623444 0.2905021794140339, 1.5977619588375092 l2.905021905899048, 3.776528537273407 1.5977619588375092, 3.1955239176750183 l-0.2905021794140339, 4.502783715724945 -1.452510952949524, 3.3407750725746155 l-2.324017435312271, 3.1955239176750183 -3.050273060798645, 3.050273060798645 l-3.9217793941497803, 2.6145195960998535 -4.357532858848572, 2.0335152745246887 l-4.502783715724945, 0.8715065568685532 -4.067030549049377, 0.14525108970701694 l-3.1955239176750183, -0.8715065568685532 -5.08378803730011, -2.7597707509994507 l-2.6145195960998535, -0.2905021794140339 -3.4860262274742126, 1.8882642686367035 l-3.4860262274742126, 3.4860262274742126 -2.905021905899048, 0.14525108970701694 l-4.648034870624542, -3.9217793941497803 -2.178766429424286, -3.63127738237381 l-1.5977619588375092, -4.938537180423737 -0.726255476474762, -4.648034870624542 l0.2905021794140339, -6.536298990249634 -0.2905021794140339, 1.8882642686367035 l-2.6145195960998535, 4.502783715724945 -0.5810043588280678, -2.7597707509994507 l0.726255476474762, -5.08378803730011 1.8882642686367035, -5.374290347099304 l5.6647926568984985, -12.055840492248535 1.8882642686367035, -2.7597707509994507 l0.2905021794140339, 0.726255476474762 0.14525108970701694, -1.0167576372623444 l5.955294966697693, -8.715065717697144 4.357532858848572, -4.502783715724945 l2.7597707509994507, -1.452510952949524 1.8882642686367035, 0.4357532784342766 l3.776528537273407, 4.067030549049377 1.0167576372623444, 3.3407750725746155 l0.2905021794140339, -0.14525108970701694 m-9.00556743144989, 17.139629125595093 l2.7597707509994507, -1.5977619588375092 4.357532858848572, -0.8715065568685532 l8.569814562797546, -0.4357532784342766 2.905021905899048, 1.3072597980499268 l1.8882642686367035, 3.1955239176750183 0.14525108970701694, 6.2457966804504395 l-0.8715065568685532, 2.4692685902118683 -2.905021905899048, 4.212281703948975 l-5.810043811798096, 3.776528537273407 -5.810043811798096, 0.726255476474762 l-1.8882642686367035, -1.0167576372623444 -3.050273060798645, -4.067030549049377 l-0.8715065568685532, -4.212281703948975 0.0, -5.810043811798096 l1.5977619588375092, -5.810043811798096 -5.374290347099304, -6.826801300048828 l-1.8882642686367035, -1.3072597980499268 -1.5977619588375092, -0.14525108970701694 l-0.5810043588280678, 3.776528537273407 0.5810043588280678, 1.5977619588375092 l1.0167576372623444, 1.1620087176561356 5.229039192199707, 2.4692685902118683 m16.994377374649048, -1.452510952949524 l1.7430131137371063, -2.6145195960998535 3.050273060798645, -2.4692685902118683 l3.050273060798645, -1.0167576372623444 4.938537180423737, -0.5810043588280678 l0.5810043588280678, 1.1620087176561356 -0.2905021794140339, 1.5977619588375092 l-1.0167576372623444, 1.7430131137371063 -2.324017435312271, 3.050273060798645 l-2.905021905899048, 2.178766429424286 m-15.977619886398315, 5.955294966697693 l2.4692685902118683, -0.14525108970701694 2.4692685902118683, 0.8715065568685532 l2.0335152745246887, 2.0335152745246887 0.0, 2.0335152745246887 l-2.0335152745246887, 1.7430131137371063 -2.178766429424286, 0.8715065568685532 l-3.776528537273407, 0.14525108970701694 -1.1620087176561356, -0.5810043588280678 l-1.1620087176561356, -1.3072597980499268 -0.14525108970701694, -1.452510952949524 l1.0167576372623444, -2.178766429424286 1.8882642686367035, -1.452510952949524 m2.4692685902118683, -5.08378803730011 l-2.0335152745246887, 2.324017435312271 -1.8882642686367035, 0.5810043588280678 l-0.8715065568685532, -0.2905021794140339 -0.2905021794140339, -2.905021905899048 l1.0167576372623444, -0.8715065568685532 1.7430131137371063, -0.2905021794140339 m7.553057074546814, 1.0167576372623444 l2.4692685902118683, -0.4357532784342766 1.0167576372623444, 0.5810043588280678 l1.0167576372623444, 2.0335152745246887 0.0, 0.726255476474762 l-0.8715065568685532, 0.5810043588280678 -1.8882642686367035, -0.2905021794140339 l-2.4692685902118683, -2.4692685902118683 0.726255476474762, -0.4357532784342766 m-8.715065717697144, -0.726255476474762 " fill="none" stroke="black" stroke-width="1" /></svg>