<?xml version="1.0" encoding="utf-8" ?>
<svg baseProfile="full" height="60.25687903165817" version="1.1" width="118.50256737321615" xmlns="http://www.w3.org/2000/svg" xmlns:ev="http://www.w3.org/2001/xml-events" xmlns:xlink="http://www.w3.org/1999/xlink"><defs /><rect fill="white" height="60.25687903165817" width="118.50256737321615" x="0" y="0" /><path d="M23.156387005001307, 24.02789662592113 m2.4692685902118683, -1.3072597980499268 l3.776528537273407, -0.8715065568685532 10.02232551574707, -0.2905021794140339 l1.8882642686367035, 0.5810043588280678 7.1173036098480225, 9.586572051048279 l2.178766429424286, 5.08378803730011 -0.14525108970701694, 2.6145195960998535 l-1.1620087176561356, 2.0335152745246887 -2.324017435312271, 2.324017435312271 l-2.324017435312271, 1.1620087176561356 -6.681550145149231, 0.4357532784342766 l-5.810043811798096, -0.5810043588280678 -4.357532858848572, -1.0167576372623444 l-2.178766429424286, -4.357532858848572 -1.0167576372623444, -3.3407750725746155 l-0.14525108970701694, -7.26255476474762 0.726255476474762, -4.067030549049377 m6.10054612159729, 12.782095670700073 l2.7597707509994507, -1.0167576372623444 4.212281703948975, -0.4357532784342766 l2.0335152745246887, 3.9217793941497803 m0.0, 0.0 l0.0, 0.0 m0.4357532784342766, -17.575381994247437 l0.5810043588280678, -0.8715065568685532 2.4692685902118683, -1.5977619588375092 l3.1955239176750183, -0.4357532784342766 1.3072597980499268, 5.08378803730011 l0.0, 1.8882642686367035 -0.5810043588280678, 1.1620087176561356 m-21.206660270690918, -7.407805919647217 l-4.938537180423737, -0.8715065568685532 -1.7430131137371063, 0.0 l-0.5810043588280678, 0.8715065568685532 0.8715065568685532, 6.681550145149231 l1.452510952949524, 1.5977619588375092 2.178766429424286, 0.4357532784342766 m-18.737391233444214, -10.603330135345459 l0.8715065568685532, -1.5977619588375092 6.972052454948425, -6.826801300048828 l3.776528537273407, -2.0335152745246887 2.905021905899048, 0.0 l4.648034870624542, 0.8715065568685532 5.374290347099304, 1.7430131137371063 l1.8882642686367035, 1.1620087176561356 3.050273060798645, 0.5810043588280678 l10.458078384399414, 0.4357532784342766 4.793286025524139, -1.452510952949524 l4.212281703948975, -0.2905021794140339 3.050273060798645, 1.7430131137371063 l2.4692685902118683, 3.3407750725746155 11.474835872650146, 21.93291425704956 l1.452510952949524, 3.63127738237381 -9.586572051048279, 6.681550145149231 l-11.184333562850952, 6.826801300048828 -1.0167576372623444, 0.14525108970701694 l-5.955294966697693, -0.5810043588280678 -14.670360088348389, -4.793286025524139 l-6.391047835350037, -0.4357532784342766 -9.731823205947876, -2.905021905899048 l-6.681550145149231, -3.63127738237381 -1.1620087176561356, -1.8882642686367035 l0.0, -4.793286025524139 1.8882642686367035, -10.312827825546265 l0.0, -4.648034870624542 -1.0167576372623444, -6.972052454948425 m3.050273060798645, 7.26255476474762 l0.8715065568685532, 2.4692685902118683 4.212281703948975, 5.6647926568984985 l3.050273060798645, 5.229039192199707 -3.9217793941497803, -2.4692685902118683 l-1.452510952949524, -1.7430131137371063 1.3072597980499268, -2.4692685902118683 l-1.0167576372623444, -3.63127738237381 0.0, -7.407805919647217 l2.324017435312271, -12.20109224319458 3.4860262274742126, 6.2457966804504395 l2.6145195960998535, 2.178766429424286 13.94410490989685, -0.4357532784342766 l6.2457966804504395, 1.7430131137371063 6.10054612159729, 0.5810043588280678 l3.4860262274742126, 2.324017435312271 4.648034870624542, 5.810043811798096 l3.3407750725746155, 2.0335152745246887 -1.8882642686367035, 6.681550145149231 l-2.0335152745246887, 3.4860262274742126 0.14525108970701694, 0.726255476474762 l3.1955239176750183, 2.324017435312271 0.14525108970701694, 1.7430131137371063 l-2.4692685902118683, 3.3407750725746155 -0.14525108970701694, 0.726255476474762 l0.8715065568685532, 0.4357532784342766 -4.938537180423737, 0.0 l-1.8882642686367035, 0.5810043588280678 -2.0335152745246887, 1.3072597980499268 l-0.8715065568685532, 3.776528537273407 -6.2457966804504395, 3.776528537273407 l-0.14525108970701694, -0.8715065568685532 -1.452510952949524, -1.1620087176561356 l-2.324017435312271, -0.5810043588280678 -3.1955239176750183, 0.4357532784342766 l-3.3407750725746155, -0.8715065568685532 -3.050273060798645, -0.14525108970701694 l-3.776528537273407, -2.6145195960998535 -8.569814562797546, -4.212281703948975 l-3.050273060798645, -4.502783715724945 -1.8882642686367035, -3.9217793941497803 m20.189902782440186, -8.715065717697144 l0.14525108970701694, 0.0 m9.586572051048279, 2.4692685902118683 l0.14525108970701694, 0.0 m38.78204107284546, 3.63127738237381 l1.0167576372623444, -1.3072597980499268 3.4860262274742126, -1.8882642686367035 m4.357532858848572, -9.877074360847473 l2.178766429424286, 11.184333562850952 m0.0, 0.0 l0.0, 0.0 m-0.8715065568685532, -10.748580694198608 l0.0, -0.726255476474762 1.0167576372623444, 0.4357532784342766 l2.0335152745246887, 3.050273060798645 -0.5810043588280678, 2.324017435312271 l-2.0335152745246887, 2.0335152745246887 -0.4357532784342766, 1.0167576372623444 l2.0335152745246887, 2.905021905899048 0.8715065568685532, 0.726255476474762 l1.8882642686367035, 0.4357532784342766 m0.14525108970701694, 0.0 l0.8715065568685532, 0.0 m-0.5810043588280678, -6.10054612159729 l2.4692685902118683, 3.050273060798645 -0.8715065568685532, 0.5810043588280678 l-0.726255476474762, -0.14525108970701694 0.14525108970701694, -2.324017435312271 l2.7597707509994507, 3.9217793941497803 m1.8882642686367035, -3.4860262274742126 l0.5810043588280678, 2.324017435312271 0.726255476474762, 0.14525108970701694 m0.726255476474762, 0.0 l2.178766429424286, -3.63127738237381 1.1620087176561356, -0.726255476474762 m6.10054612159729, 1.7430131137371063 l0.726255476474762, 4.357532858848572 1.1620087176561356, -3.050273060798645 " fill="none" stroke="black" stroke-width="1" /></svg>