<?xml version="1.0" encoding="utf-8" ?>
<svg baseProfile="full" height="77.832259722054" version="1.1" width="104.12270743399858" xmlns="http://www.w3.org/2000/svg" xmlns:ev="http://www.w3.org/2001/xml-events" xmlns:xlink="http://www.w3.org/1999/xlink"><defs /><rect fill="white" height="77.832259722054" width="104.12270743399858" x="0" y="0" /><path d="M38.69825307279825, 9.938536565750837 m-5.08378803730011, -0.14525108970701694 l-4.067030549049377, 1.5977619588375092 -4.502783715724945, 3.050273060798645 l-4.067030549049377, 3.63127738237381 -3.776528537273407, 4.502783715724945 l-2.7597707509994507, 4.938537180423737 -1.5977619588375092, 4.212281703948975 l-0.4357532784342766, 5.6647926568984985 1.452510952949524, 1.452510952949524 l3.776528537273407, 0.2905021794140339 1.0167576372623444, -0.4357532784342766 l-2.905021905899048, 0.0 -3.776528537273407, 2.6145195960998535 l-3.4860262274742126, 3.63127738237381 -2.324017435312271, 4.502783715724945 l-1.1620087176561356, 4.938537180423737 0.0, 4.793286025524139 l0.726255476474762, 4.357532858848572 2.0335152745246887, 3.1955239176750183 l3.050273060798645, 2.4692685902118683 3.63127738237381, 1.452510952949524 l3.9217793941497803, 0.4357532784342766 4.212281703948975, -0.14525108970701694 l10.02232551574707, -3.4860262274742126 2.324017435312271, -0.5810043588280678 l3.4860262274742126, 0.0 1.3072597980499268, 1.1620087176561356 l2.178766429424286, 3.63127738237381 1.8882642686367035, 1.0167576372623444 l2.7597707509994507, 0.0 4.502783715724945, -1.5977619588375092 l4.938537180423737, -2.6145195960998535 11.184333562850952, -7.1173036098480225 l1.452510952949524, 0.0 0.5810043588280678, 2.178766429424286 l0.5810043588280678, 6.972052454948425 1.1620087176561356, 2.0335152745246887 l2.178766429424286, 0.2905021794140339 3.4860262274742126, -1.8882642686367035 l8.134061098098755, -9.150818586349487 8.42456340789795, -11.474835872650146 l5.374290347099304, -10.02232551574707 0.5810043588280678, -5.374290347099304 l-1.452510952949524, -1.452510952949524 -2.324017435312271, -0.726255476474762 l-5.955294966697693, -0.14525108970701694 -2.178766429424286, -0.5810043588280678 l-1.1620087176561356, -1.8882642686367035 0.0, -4.067030549049377 l3.1955239176750183, -11.039083003997803 0.0, -3.63127738237381 l-1.7430131137371063, -0.726255476474762 -3.050273060798645, 0.0 l-6.391047835350037, 1.5977619588375092 -4.357532858848572, 0.14525108970701694 l-1.7430131137371063, -1.0167576372623444 -2.7597707509994507, -3.1955239176750183 l-2.0335152745246887, -1.452510952949524 -2.4692685902118683, -1.0167576372623444 l-3.63127738237381, -0.726255476474762 -3.776528537273407, 0.0 l-4.212281703948975, 0.726255476474762 -13.363100290298462, 5.08378803730011 l-2.6145195960998535, -0.2905021794140339 -2.0335152745246887, -2.7597707509994507 l-1.5977619588375092, -0.4357532784342766 -5.519541501998901, 0.5810043588280678 l-2.178766429424286, 2.4692685902118683 m37.32953071594238, 10.458078384399414 l-1.7430131137371063, -2.6145195960998535 -1.7430131137371063, -1.0167576372623444 l-2.905021905899048, -0.2905021794140339 -4.502783715724945, 0.4357532784342766 l-4.212281703948975, 1.5977619588375092 -4.648034870624542, 2.7597707509994507 l-4.212281703948975, 3.3407750725746155 -3.1955239176750183, 3.3407750725746155 l-2.324017435312271, 3.050273060798645 -1.452510952949524, 3.4860262274742126 l-0.726255476474762, 3.63127738237381 -0.2905021794140339, 5.955294966697693 l1.1620087176561356, 2.178766429424286 2.0335152745246887, 2.0335152745246887 l2.905021905899048, 1.7430131137371063 3.1955239176750183, 1.1620087176561356 l3.4860262274742126, 0.5810043588280678 10.458078384399414, 0.14525108970701694 l3.63127738237381, -0.726255476474762 3.4860262274742126, -1.1620087176561356 l3.3407750725746155, -1.7430131137371063 2.7597707509994507, -2.7597707509994507 l2.6145195960998535, -3.4860262274742126 3.050273060798645, -8.134061098098755 l0.2905021794140339, -6.681550145149231 -0.8715065568685532, -3.1955239176750183 l-1.7430131137371063, -2.324017435312271 -2.0335152745246887, -1.452510952949524 l-2.6145195960998535, -0.5810043588280678 m-20.04465103149414, 22.80442237854004 l1.1620087176561356, 4.502783715724945 1.8882642686367035, 1.1620087176561356 l1.7430131137371063, -0.2905021794140339 0.8715065568685532, -1.5977619588375092 l0.0, -2.178766429424286 -1.5977619588375092, -1.0167576372623444 m-12.636845111846924, -1.452510952949524 l20.916156768798828, 0.14525108970701694 m-8.569814562797546, -12.055840492248535 l-0.14525108970701694, 0.8715065568685532 1.452510952949524, -0.14525108970701694 m9.00556743144989, -2.6145195960998535 " fill="none" stroke="black" stroke-width="1" /></svg>