<?xml version="1.0" encoding="utf-8" ?>
<svg baseProfile="full" height="49.50829677283764" version="1.1" width="85.96632095053792" xmlns="http://www.w3.org/2000/svg" xmlns:ev="http://www.w3.org/2001/xml-events" xmlns:xlink="http://www.w3.org/1999/xlink"><defs /><rect fill="white" height="49.50829677283764" width="85.96632095053792" x="0" y="0" /><path d="M30.273688910529017, 22.139629228040576 m-0.2905021794140339, -1.0167576372623444 l-1.7430131137371063, -1.5977619588375092 -6.391047835350037, -3.1955239176750183 l-4.502783715724945, -0.2905021794140339 -2.7597707509994507, 1.5977619588375092 l-1.7430131137371063, 1.7430131137371063 -1.452510952949524, 3.3407750725746155 l0.0, 3.9217793941497803 2.0335152745246887, 5.519541501998901 l3.1955239176750183, 4.648034870624542 3.63127738237381, 1.3072597980499268 l4.938537180423737, -0.14525108970701694 3.050273060798645, -1.8882642686367035 l2.905021905899048, -3.4860262274742126 1.452510952949524, -3.63127738237381 l0.2905021794140339, -5.519541501998901 -1.3072597980499268, -1.8882642686367035 l-1.5977619588375092, -1.3072597980499268 -2.0335152745246887, -0.726255476474762 m-7.988809943199158, -3.776528537273407 l0.8715065568685532, -2.905021905899048 1.0167576372623444, -7.8435587882995605 l1.1620087176561356, 3.4860262274742126 1.3072597980499268, 9.296069741249084 l1.5977619588375092, 0.2905021794140339 5.955294966697693, -5.08378803730011 l0.4357532784342766, 2.0335152745246887 -1.7430131137371063, 12.34634280204773 l2.905021905899048, 0.2905021794140339 0.726255476474762, 0.8715065568685532 l0.4357532784342766, 4.502783715724945 -0.726255476474762, 2.6145195960998535 l-1.1620087176561356, 2.178766429424286 -1.5977619588375092, 1.1620087176561356 l-3.4860262274742126, -0.8715065568685532 -1.0167576372623444, 4.648034870624542 l-0.8715065568685532, 1.1620087176561356 -1.1620087176561356, 0.5810043588280678 l-2.0335152745246887, 0.0 -0.8715065568685532, -0.4357532784342766 l-5.08378803730011, -4.793286025524139 -0.726255476474762, 0.5810043588280678 l-1.452510952949524, -0.2905021794140339 -2.0335152745246887, -1.3072597980499268 l-1.5977619588375092, -1.8882642686367035 -1.1620087176561356, -2.905021905899048 l0.14525108970701694, -0.726255476474762 0.726255476474762, -0.4357532784342766 l-0.4357532784342766, -0.8715065568685532 -3.63127738237381, -3.63127738237381 l-1.452510952949524, -2.7597707509994507 0.726255476474762, -0.2905021794140339 l0.5810043588280678, -1.1620087176561356 0.4357532784342766, -3.776528537273407 l0.8715065568685532, -0.5810043588280678 1.5977619588375092, 0.5810043588280678 l-0.2905021794140339, -7.26255476474762 0.5810043588280678, -1.1620087176561356 l1.452510952949524, -0.4357532784342766 2.178766429424286, 1.7430131137371063 l1.7430131137371063, 2.4692685902118683 0.14525108970701694, -4.648034870624542 l0.8715065568685532, -2.324017435312271 1.452510952949524, -1.5977619588375092 l1.7430131137371063, 5.810043811798096 -0.14525108970701694, 1.8882642686367035 m-0.726255476474762, 7.407805919647217 l0.0, 0.0 m6.972052454948425, 1.5977619588375092 l0.0, 0.0 m-8.715065717697144, -1.3072597980499268 l0.0, 0.0 m-0.14525108970701694, -0.14525108970701694 l1.1620087176561356, 1.3072597980499268 0.726255476474762, 0.0 l0.14525108970701694, -1.0167576372623444 -0.5810043588280678, -0.726255476474762 l-1.8882642686367035, -0.2905021794140339 m7.698307633399963, 0.14525108970701694 l1.8882642686367035, 0.4357532784342766 0.2905021794140339, -0.726255476474762 l-2.0335152745246887, 0.0 -0.2905021794140339, 0.726255476474762 l0.726255476474762, 0.8715065568685532 m0.2905021794140339, 5.229039192199707 l0.2905021794140339, 0.8715065568685532 -3.050273060798645, 0.14525108970701694 l-2.905021905899048, -0.2905021794140339 -1.0167576372623444, -0.726255476474762 m14.234607219696045, -4.067030549049377 l13.217849731445312, -2.0335152745246887 7.988809943199158, -0.2905021794140339 l18.59213948249817, 2.0335152745246887 5.955294966697693, 0.14525108970701694 l2.0335152745246887, 0.2905021794140339 1.1620087176561356, 0.726255476474762 m-49.966373443603516, 9.877074360847473 l0.8715065568685532, 0.4357532784342766 13.217849731445312, -1.0167576372623444 l18.44688892364502, 0.0 1.452510952949524, 2.324017435312271 " fill="none" stroke="black" stroke-width="1" /></svg>