<?xml version="1.0" encoding="utf-8" ?>
<svg baseProfile="full" height="95.8433951344341" version="1.1" width="86.54732530936599" xmlns="http://www.w3.org/2000/svg" xmlns:ev="http://www.w3.org/2001/xml-events" xmlns:xlink="http://www.w3.org/1999/xlink"><defs /><rect fill="white" height="95.8433951344341" width="86.54732530936599" x="0" y="0" /><path d="M38.69825450703502, 31.72620107419789 m-0.726255476474762, -0.5810043588280678 l-4.938537180423737, 0.0 -1.3072597980499268, 0.4357532784342766 l-2.324017435312271, 1.3072597980499268 -3.9217793941497803, 3.4860262274742126 l-2.905021905899048, 5.6647926568984985 -2.178766429424286, 6.10054612159729 l-1.8882642686367035, 10.458078384399414 1.0167576372623444, 9.00556743144989 l1.8882642686367035, 4.212281703948975 3.63127738237381, 4.502783715724945 l2.178766429424286, 1.8882642686367035 2.324017435312271, 1.3072597980499268 l4.938537180423737, 1.452510952949524 7.1173036098480225, -0.2905021794140339 l11.184333562850952, -7.26255476474762 4.793286025524139, -4.502783715724945 l3.1955239176750183, -7.407805919647217 1.7430131137371063, -5.810043811798096 l0.5810043588280678, -3.4860262274742126 0.0, -9.441320896148682 l-0.726255476474762, -3.3407750725746155 -2.7597707509994507, -4.793286025524139 l-6.681550145149231, -7.26255476474762 -2.7597707509994507, -2.0335152745246887 l-1.8882642686367035, -0.5810043588280678 -6.536298990249634, 0.2905021794140339 l-8.42456340789795, 3.63127738237381 -3.776528537273407, 2.7597707509994507 m-16.994377374649048, 14.52510952949524 l-5.374290347099304, -5.6647926568984985 -1.0167576372623444, -5.374290347099304 l0.0, -5.6647926568984985 2.178766429424286, -4.067030549049377 l3.050273060798645, -2.0335152745246887 0.2905021794140339, -4.648034870624542 l2.0335152745246887, -2.7597707509994507 2.6145195960998535, -1.452510952949524 l3.1955239176750183, -1.0167576372623444 7.988809943199158, -0.14525108970701694 l2.324017435312271, -2.7597707509994507 3.3407750725746155, -2.0335152745246887 l14.08935546875, -3.3407750725746155 9.00556743144989, 0.0 l3.9217793941497803, 1.0167576372623444 2.0335152745246887, 1.7430131137371063 l0.14525108970701694, 0.726255476474762 5.810043811798096, -0.14525108970701694 l5.08378803730011, 2.4692685902118683 3.3407750725746155, 3.776528537273407 l0.5810043588280678, 3.4860262274742126 0.0, 5.6647926568984985 l-1.8882642686367035, 4.502783715724945 0.2905021794140339, 0.8715065568685532 l3.1955239176750183, 3.4860262274742126 2.0335152745246887, 6.536298990249634 l0.5810043588280678, 4.502783715724945 -0.14525108970701694, 7.26255476474762 l-1.452510952949524, 4.212281703948975 -1.3072597980499268, 2.0335152745246887 l1.8882642686367035, 2.0335152745246887 1.1620087176561356, 2.6145195960998535 l-0.2905021794140339, 7.988809943199158 -1.1620087176561356, 4.067030549049377 l-2.178766429424286, 3.4860262274742126 -1.5977619588375092, 1.452510952949524 l-2.905021905899048, 2.0335152745246887 -2.4692685902118683, 0.8715065568685532 l-5.519541501998901, 0.5810043588280678 -0.5810043588280678, 1.7430131137371063 l-2.6145195960998535, 3.9217793941497803 -5.810043811798096, 2.6145195960998535 l-7.988809943199158, 0.2905021794140339 -3.9217793941497803, -2.178766429424286 l-5.374290347099304, 1.8882642686367035 -5.810043811798096, 0.2905021794140339 l-2.324017435312271, -0.4357532784342766 -6.2457966804504395, -4.212281703948975 l-4.648034870624542, -2.324017435312271 -3.776528537273407, -1.0167576372623444 l-3.3407750725746155, -2.324017435312271 -2.178766429424286, -3.63127738237381 l-1.0167576372623444, -4.938537180423737 -2.0335152745246887, -1.1620087176561356 l-1.8882642686367035, -3.63127738237381 -0.8715065568685532, -2.7597707509994507 l0.0, -3.776528537273407 3.3407750725746155, -10.02232551574707 l-1.0167576372623444, -3.3407750725746155 -2.324017435312271, -4.502783715724945 l0.0, -1.7430131137371063 1.7430131137371063, -1.3072597980499268 l0.8715065568685532, -0.14525108970701694 4.212281703948975, 2.324017435312271 l1.452510952949524, 1.452510952949524 m20.04465103149414, 3.3407750725746155 l5.229039192199707, 2.0335152745246887 2.4692685902118683, -0.2905021794140339 l0.14525108970701694, 1.5977619588375092 -1.5977619588375092, 3.1955239176750183 l-3.776528537273407, 2.324017435312271 -0.8715065568685532, -0.5810043588280678 l-2.0335152745246887, -3.9217793941497803 -1.0167576372623444, -4.793286025524139 l-0.14525108970701694, -1.7430131137371063 0.2905021794140339, 0.2905021794140339 m4.067030549049377, 9.150818586349487 l-1.0167576372623444, 1.5977619588375092 -0.726255476474762, 4.502783715724945 l-1.7430131137371063, 2.905021905899048 -1.5977619588375092, 0.8715065568685532 l-5.519541501998901, 0.14525108970701694 -1.7430131137371063, -1.1620087176561356 l3.050273060798645, -1.452510952949524 m8.715065717697144, -6.10054612159729 l1.0167576372623444, 2.4692685902118683 0.4357532784342766, 4.502783715724945 l1.5977619588375092, 1.0167576372623444 2.6145195960998535, 0.2905021794140339 " fill="none" stroke="black" stroke-width="1" /></svg>