<?xml version="1.0" encoding="utf-8" ?>
<svg baseProfile="full" height="72.45796997100115" version="1.1" width="96.86015364713967" xmlns="http://www.w3.org/2000/svg" xmlns:ev="http://www.w3.org/2001/xml-events" xmlns:xlink="http://www.w3.org/1999/xlink"><defs /><rect fill="white" height="72.45796997100115" width="96.86015364713967" x="0" y="0" /><path d="M42.62003396637738, 37.10049245506525 m-1.3072597980499268, 2.178766429424286 l-0.14525108970701694, 1.8882642686367035 0.2905021794140339, 0.726255476474762 l2.0335152745246887, 1.3072597980499268 2.905021905899048, -0.14525108970701694 l0.726255476474762, -0.726255476474762 0.5810043588280678, -1.1620087176561356 l-0.14525108970701694, -2.905021905899048 -1.1620087176561356, -1.3072597980499268 l-5.810043811798096, 0.0 m4.357532858848572, 6.2457966804504395 l0.14525108970701694, 6.972052454948425 0.726255476474762, 2.4692685902118683 l0.8715065568685532, 1.0167576372623444 2.0335152745246887, 0.8715065568685532 l1.5977619588375092, -0.14525108970701694 0.726255476474762, -0.726255476474762 l0.5810043588280678, -3.3407750725746155 m-7.8435587882995605, -7.698307633399963 l-0.4357532784342766, 6.826801300048828 -1.3072597980499268, 2.0335152745246887 l-2.7597707509994507, 1.452510952949524 -3.9217793941497803, -0.14525108970701694 l-0.8715065568685532, -1.0167576372623444 -0.2905021794140339, -2.178766429424286 m0.4357532784342766, -19.027893543243408 l-2.4692685902118683, -0.14525108970701694 -0.726255476474762, 0.5810043588280678 l0.4357532784342766, 0.726255476474762 4.502783715724945, 0.2905021794140339 l-0.2905021794140339, -0.8715065568685532 -4.067030549049377, -1.0167576372623444 l1.7430131137371063, 0.4357532784342766 0.5810043588280678, -0.2905021794140339 m19.463646411895752, 0.14525108970701694 l-0.726255476474762, 0.14525108970701694 -0.2905021794140339, 1.452510952949524 l2.324017435312271, 0.5810043588280678 0.5810043588280678, -0.726255476474762 l-1.5977619588375092, -0.2905021794140339 1.7430131137371063, 0.2905021794140339 l0.5810043588280678, -1.5977619588375092 -1.5977619588375092, -0.4357532784342766 l-0.2905021794140339, 0.2905021794140339 m-18.156386613845825, -5.810043811798096 l-2.905021905899048, 0.0 -2.324017435312271, 0.8715065568685532 l-2.905021905899048, 3.3407750725746155 -2.178766429424286, 5.6647926568984985 l-0.4357532784342766, 3.63127738237381 0.0, 9.296069741249084 l1.3072597980499268, 6.2457966804504395 1.1620087176561356, 3.050273060798645 l1.5977619588375092, 2.6145195960998535 4.357532858848572, 3.9217793941497803 l3.050273060798645, 1.7430131137371063 6.536298990249634, 1.8882642686367035 l5.519541501998901, 0.8715065568685532 7.988809943199158, 0.0 l2.7597707509994507, -0.4357532784342766 5.08378803730011, -1.7430131137371063 l3.4860262274742126, -2.6145195960998535 1.452510952949524, -4.067030549049377 l0.4357532784342766, -3.3407750725746155 0.0, -8.715065717697144 l-0.4357532784342766, -1.5977619588375092 -2.6145195960998535, -5.519541501998901 l-6.10054612159729, -10.16757607460022 -4.357532858848572, -4.502783715724945 l-3.1955239176750183, -2.0335152745246887 -5.6647926568984985, -2.905021905899048 l-2.4692685902118683, -0.2905021794140339 -7.553057074546814, 2.178766429424286 l-3.3407750725746155, 1.3072597980499268 -1.8882642686367035, 1.3072597980499268 m-7.553057074546814, 25.564191341400146 l-1.1620087176561356, -1.7430131137371063 -5.519541501998901, -5.229039192199707 l-8.279312252998352, -6.972052454948425 -3.63127738237381, -4.212281703948975 l-1.3072597980499268, -2.4692685902118683 -0.2905021794140339, -1.3072597980499268 l1.0167576372623444, -1.0167576372623444 1.5977619588375092, -0.4357532784342766 l5.955294966697693, 0.0 9.586572051048279, 2.324017435312271 l-9.150818586349487, -6.972052454948425 -2.0335152745246887, -2.178766429424286 l0.14525108970701694, -0.726255476474762 1.8882642686367035, -1.7430131137371063 l2.0335152745246887, -0.8715065568685532 6.391047835350037, -0.2905021794140339 l1.1620087176561356, -2.324017435312271 0.2905021794140339, -5.810043811798096 l0.4357532784342766, -1.0167576372623444 0.8715065568685532, 0.14525108970701694 l7.26255476474762, 5.6647926568984985 0.4357532784342766, -4.502783715724945 l1.0167576372623444, -2.0335152745246887 0.8715065568685532, -1.0167576372623444 l1.5977619588375092, -0.14525108970701694 4.212281703948975, 4.357532858848572 l2.6145195960998535, 2.0335152745246887 1.1620087176561356, 0.8715065568685532 l2.324017435312271, 0.5810043588280678 1.0167576372623444, 0.0 l0.8715065568685532, -1.452510952949524 0.2905021794140339, -4.938537180423737 l1.7430131137371063, 1.8882642686367035 1.1620087176561356, 2.178766429424286 l0.8715065568685532, 0.8715065568685532 1.452510952949524, 0.4357532784342766 l3.63127738237381, -0.14525108970701694 3.050273060798645, -1.3072597980499268 l5.374290347099304, -3.3407750725746155 0.726255476474762, 0.8715065568685532 l0.726255476474762, 2.4692685902118683 10.893832445144653, 2.905021905899048 l0.8715065568685532, 0.5810043588280678 -2.4692685902118683, 1.7430131137371063 l-2.905021905899048, 1.0167576372623444 -4.793286025524139, 2.7597707509994507 l0.5810043588280678, 1.452510952949524 1.3072597980499268, 0.726255476474762 l7.988809943199158, 2.324017435312271 -0.5810043588280678, 1.452510952949524 l-4.502783715724945, 1.1620087176561356 0.4357532784342766, 1.0167576372623444 l6.972052454948425, 4.212281703948975 -0.726255476474762, 1.1620087176561356 l-5.810043811798096, 2.4692685902118683 -0.5810043588280678, 0.726255476474762 l6.2457966804504395, 2.178766429424286 2.324017435312271, 1.3072597980499268 l0.8715065568685532, 0.726255476474762 0.0, 0.726255476474762 l-1.0167576372623444, 2.324017435312271 1.1620087176561356, 1.3072597980499268 l3.63127738237381, 2.4692685902118683 4.357532858848572, 2.0335152745246887 l-0.14525108970701694, 1.0167576372623444 -2.905021905899048, 1.452510952949524 l-5.6647926568984985, 0.0 -0.4357532784342766, 0.726255476474762 l2.6145195960998535, 1.7430131137371063 -1.8882642686367035, 1.452510952949524 l-7.553057074546814, 2.905021905899048 -5.6647926568984985, 0.2905021794140339 " fill="none" stroke="black" stroke-width="1" /></svg>