<?xml version="1.0" encoding="utf-8" ?>
<svg baseProfile="full" height="76.08924765139818" version="1.1" width="73.03897390142083" xmlns="http://www.w3.org/2000/svg" xmlns:ev="http://www.w3.org/2001/xml-events" xmlns:xlink="http://www.w3.org/1999/xlink"><defs /><rect fill="white" height="76.08924765139818" width="73.03897390142083" x="0" y="0" /><path d="M46.977565474808216, 24.17314480058849 m-0.4357532784342766, -0.726255476474762 l-4.648034870624542, -1.3072597980499268 -2.4692685902118683, 0.14525108970701694 l-2.7597707509994507, 1.0167576372623444 -5.374290347099304, 2.6145195960998535 l-2.178766429424286, 3.1955239176750183 -1.452510952949524, 3.1955239176750183 l-0.5810043588280678, 2.7597707509994507 0.0, 2.0335152745246887 l0.5810043588280678, 1.452510952949524 8.715065717697144, 9.150818586349487 l2.324017435312271, 1.1620087176561356 2.4692685902118683, -0.2905021794140339 l3.63127738237381, -3.4860262274742126 2.6145195960998535, -4.067030549049377 l1.3072597980499268, -3.9217793941497803 0.14525108970701694, -9.150818586349487 l-1.0167576372623444, -1.5977619588375092 -2.178766429424286, -1.7430131137371063 l-1.7430131137371063, -0.5810043588280678 m-13.653602600097656, 6.681550145149231 l-0.14525108970701694, 0.14525108970701694 m19.754148721694946, 0.5810043588280678 l0.0, 0.0 m-3.1955239176750183, 0.2905021794140339 l0.0, 0.0 m-1.1620087176561356, -0.4357532784342766 l-0.2905021794140339, 2.324017435312271 m-2.0335152745246887, 3.3407750725746155 l-7.407805919647217, 1.3072597980499268 -1.452510952949524, 1.1620087176561356 l-0.4357532784342766, 1.452510952949524 2.905021905899048, 1.1620087176561356 l3.776528537273407, -0.14525108970701694 1.1620087176561356, -1.452510952949524 l1.1620087176561356, -4.502783715724945 m6.536298990249634, -23.240175247192383 l-4.793286025524139, -5.374290347099304 -4.938537180423737, -2.324017435312271 l-3.050273060798645, 0.4357532784342766 -5.519541501998901, 4.357532858848572 l-3.050273060798645, 1.7430131137371063 -0.2905021794140339, -1.7430131137371063 l-1.5977619588375092, -0.726255476474762 -3.3407750725746155, 1.5977619588375092 l-4.793286025524139, 0.0 -0.8715065568685532, -0.726255476474762 l-0.8715065568685532, -2.324017435312271 -1.5977619588375092, -0.5810043588280678 l-2.7597707509994507, 2.178766429424286 -6.972052454948425, 8.134061098098755 l0.4357532784342766, 0.726255476474762 -0.2905021794140339, 18.156386613845825 l0.5810043588280678, 2.4692685902118683 1.3072597980499268, 2.4692685902118683 l1.5977619588375092, -0.5810043588280678 1.452510952949524, -1.7430131137371063 l-0.2905021794140339, 5.810043811798096 1.1620087176561356, 5.955294966697693 l3.050273060798645, 5.810043811798096 1.7430131137371063, 2.178766429424286 l1.7430131137371063, 1.0167576372623444 1.0167576372623444, 0.0 l1.452510952949524, -1.0167576372623444 0.0, 5.955294966697693 l1.7430131137371063, 4.212281703948975 1.5977619588375092, 1.1620087176561356 l4.502783715724945, 0.5810043588280678 5.6647926568984985, -4.212281703948975 l1.8882642686367035, 3.1955239176750183 1.7430131137371063, 1.1620087176561356 l4.648034870624542, 0.4357532784342766 3.3407750725746155, -0.8715065568685532 l7.26255476474762, -4.938537180423737 7.698307633399963, -12.491593360900879 l0.726255476474762, -2.4692685902118683 0.2905021794140339, -8.715065717697144 l3.776528537273407, -5.374290347099304 2.6145195960998535, -5.08378803730011 l0.5810043588280678, -5.374290347099304 -0.8715065568685532, -0.726255476474762 l-0.726255476474762, 0.0 0.14525108970701694, -5.229039192199707 l-0.726255476474762, 0.0 -2.7597707509994507, -7.407805919647217 l-1.5977619588375092, -0.2905021794140339 -0.4357532784342766, -2.905021905899048 l-0.726255476474762, -0.4357532784342766 -1.5977619588375092, 0.8715065568685532 l-3.050273060798645, 0.14525108970701694 -1.452510952949524, -0.5810043588280678 l-4.357532858848572, 0.0 -5.08378803730011, -1.0167576372623444 " fill="none" stroke="black" stroke-width="1" /></svg>