<?xml version="1.0" encoding="utf-8" ?>
<svg baseProfile="full" height="80.5920303426683" version="1.1" width="78.41326374560595" xmlns="http://www.w3.org/2000/svg" xmlns:ev="http://www.w3.org/2001/xml-events" xmlns:xlink="http://www.w3.org/1999/xlink"><defs /><rect fill="white" height="80.5920303426683" width="78.41326374560595" x="0" y="0" /><path d="M26.06141016818583, 28.821179792284966 m-1.3072597980499268, 3.1955239176750183 l-0.5810043588280678, 4.067030549049377 0.0, 3.9217793941497803 l1.0167576372623444, 2.4692685902118683 -1.8882642686367035, 2.4692685902118683 l-1.452510952949524, 3.4860262274742126 -0.726255476474762, 4.212281703948975 l0.2905021794140339, 4.212281703948975 0.8715065568685532, 1.7430131137371063 l2.178766429424286, 2.4692685902118683 1.5977619588375092, 0.8715065568685532 l4.357532858848572, 1.0167576372623444 4.938537180423737, -0.2905021794140339 l3.1955239176750183, -2.6145195960998535 1.3072597980499268, -2.4692685902118683 l0.4357532784342766, -1.8882642686367035 0.0, -4.357532858848572 m-15.541867017745972, 2.0335152745246887 l2.178766429424286, 2.6145195960998535 0.8715065568685532, 0.0 l0.726255476474762, -0.726255476474762 0.8715065568685532, -1.8882642686367035 m-0.4357532784342766, -15.977619886398315 l0.0, 0.0 m8.279312252998352, -0.5810043588280678 l0.0, 0.0 m2.7597707509994507, 3.4860262274742126 l0.2905021794140339, -1.0167576372623444 -0.5810043588280678, 0.726255476474762 m-10.893832445144653, -2.178766429424286 l0.4357532784342766, 1.0167576372623444 0.14525108970701694, -0.726255476474762 m11.039083003997803, 12.055840492248535 l2.178766429424286, -0.4357532784342766 1.452510952949524, -0.8715065568685532 l1.8882642686367035, -1.8882642686367035 1.1620087176561356, -2.4692685902118683 m-23.385426998138428, -22.22341775894165 l-2.0335152745246887, -0.8715065568685532 -2.6145195960998535, -2.6145195960998535 l-4.793286025524139, -0.5810043588280678 -3.050273060798645, 1.3072597980499268 l-2.905021905899048, 2.4692685902118683 -2.0335152745246887, 2.4692685902118683 l-1.0167576372623444, 2.4692685902118683 -0.2905021794140339, 4.648034870624542 l1.5977619588375092, 2.324017435312271 3.050273060798645, 0.8715065568685532 l-2.0335152745246887, 4.502783715724945 -0.5810043588280678, 2.6145195960998535 l0.14525108970701694, 5.229039192199707 2.178766429424286, 2.905021905899048 l1.7430131137371063, 1.0167576372623444 4.502783715724945, 0.726255476474762 l-0.2905021794140339, 1.1620087176561356 -3.63127738237381, 5.6647926568984985 l-1.3072597980499268, 2.905021905899048 -0.5810043588280678, 2.178766429424286 l0.5810043588280678, 4.502783715724945 1.7430131137371063, 1.7430131137371063 l2.6145195960998535, 1.5977619588375092 4.648034870624542, 0.14525108970701694 l6.391047835350037, -2.6145195960998535 m0.0, 0.0 l0.726255476474762, -0.14525108970701694 0.726255476474762, 3.050273060798645 l1.452510952949524, 1.8882642686367035 2.324017435312271, 1.3072597980499268 l5.519541501998901, 0.4357532784342766 2.905021905899048, -1.0167576372623444 l3.1955239176750183, -2.178766429424286 3.050273060798645, -2.905021905899048 l2.4692685902118683, -3.63127738237381 1.5977619588375092, -3.3407750725746155 l0.726255476474762, -3.9217793941497803 7.698307633399963, 0.5810043588280678 l4.067030549049377, -1.5977619588375092 3.9217793941497803, -2.7597707509994507 l3.4860262274742126, -3.1955239176750183 2.4692685902118683, -3.3407750725746155 l1.1620087176561356, -3.1955239176750183 0.14525108970701694, -2.4692685902118683 l-1.0167576372623444, -1.3072597980499268 -2.324017435312271, 0.0 l-2.6145195960998535, 1.452510952949524 -2.178766429424286, 2.178766429424286 l1.5977619588375092, -0.726255476474762 2.6145195960998535, -2.905021905899048 l3.3407750725746155, -6.972052454948425 0.2905021794140339, -3.4860262274742126 l-0.5810043588280678, -3.1955239176750183 -2.324017435312271, -2.905021905899048 l-3.3407750725746155, -1.5977619588375092 -3.4860262274742126, 0.14525108970701694 l-3.3407750725746155, 2.324017435312271 -2.4692685902118683, 3.050273060798645 l1.8882642686367035, -1.452510952949524 2.0335152745246887, -2.6145195960998535 l2.178766429424286, -5.519541501998901 0.0, -2.4692685902118683 l-0.8715065568685532, -2.6145195960998535 -2.0335152745246887, -1.8882642686367035 l-2.4692685902118683, -1.1620087176561356 -3.63127738237381, -0.14525108970701694 l-3.9217793941497803, 0.726255476474762 -6.972052454948425, 2.324017435312271 l-3.4860262274742126, 0.4357532784342766 -0.726255476474762, -0.4357532784342766 l-1.0167576372623444, -3.1955239176750183 -1.8882642686367035, -3.4860262274742126 l-2.7597707509994507, -1.8882642686367035 -3.776528537273407, -0.2905021794140339 l-3.63127738237381, 2.324017435312271 -3.050273060798645, 3.050273060798645 l-2.0335152745246887, 3.63127738237381 -0.4357532784342766, 1.8882642686367035 " fill="none" stroke="black" stroke-width="1" /></svg>