<?xml version="1.0" encoding="utf-8" ?>
<svg baseProfile="full" height="54.73733644001186" version="1.1" width="55.17308983951807" xmlns="http://www.w3.org/2000/svg" xmlns:ev="http://www.w3.org/2001/xml-events" xmlns:xlink="http://www.w3.org/1999/xlink"><defs /><rect fill="white" height="54.73733644001186" width="55.17308983951807" x="0" y="0" /><path d="M18.21784899570048, 25.625655595213175 m-0.726255476474762, 0.0 l-0.726255476474762, -0.726255476474762 0.0, -1.7430131137371063 l1.1620087176561356, -2.6145195960998535 1.7430131137371063, -1.5977619588375092 l0.726255476474762, -0.4357532784342766 1.452510952949524, 0.4357532784342766 l1.7430131137371063, 2.4692685902118683 0.2905021794140339, 1.452510952949524 l-0.5810043588280678, 0.726255476474762 -1.452510952949524, 0.5810043588280678 l-1.3072597980499268, 0.0 m11.329585313796997, 1.452510952949524 l-1.0167576372623444, -1.452510952949524 0.2905021794140339, -2.0335152745246887 l6.391047835350037, -2.178766429424286 0.0, 1.452510952949524 l-0.726255476474762, 1.0167576372623444 -2.7597707509994507, 1.0167576372623444 l-2.905021905899048, 0.2905021794140339 m-9.150818586349487, 7.698307633399963 l0.2905021794140339, -0.8715065568685532 1.1620087176561356, -1.0167576372623444 l1.5977619588375092, -0.5810043588280678 1.8882642686367035, 1.3072597980499268 l0.8715065568685532, 1.3072597980499268 m-3.1955239176750183, -0.14525108970701694 l0.2905021794140339, 1.7430131137371063 -0.8715065568685532, 1.8882642686367035 l-2.178766429424286, 1.1620087176561356 -2.7597707509994507, 0.0 m5.810043811798096, -4.502783715724945 l1.7430131137371063, 3.4860262274742126 2.6145195960998535, 2.178766429424286 l4.793286025524139, 0.14525108970701694 2.4692685902118683, -0.726255476474762 l-0.726255476474762, -0.726255476474762 m-13.363100290298462, -24.256932735443115 l-0.4357532784342766, -1.0167576372623444 -8.569814562797546, -4.793286025524139 l-0.726255476474762, 0.0 -0.14525108970701694, 0.5810043588280678 m5.810043811798096, 7.1173036098480225 l-6.536298990249634, -2.178766429424286 -2.0335152745246887, 0.8715065568685532 m3.63127738237381, 6.681550145149231 l-5.955294966697693, -0.726255476474762 -0.726255476474762, 0.8715065568685532 l-0.2905021794140339, 2.6145195960998535 m4.357532858848572, 3.4860262274742126 l-0.2905021794140339, -0.726255476474762 -2.0335152745246887, -1.3072597980499268 l-3.050273060798645, -0.8715065568685532 -0.4357532784342766, 2.178766429424286 l1.0167576372623444, 3.3407750725746155 1.3072597980499268, 1.5977619588375092 l1.0167576372623444, 0.2905021794140339 m5.6647926568984985, 0.4357532784342766 l-3.1955239176750183, -0.5810043588280678 -3.3407750725746155, 0.2905021794140339 l-0.5810043588280678, 1.3072597980499268 0.14525108970701694, 2.0335152745246887 l1.1620087176561356, 2.0335152745246887 m2.905021905899048, 0.0 l-1.5977619588375092, -0.14525108970701694 -1.452510952949524, 1.3072597980499268 l-0.5810043588280678, 0.726255476474762 -0.14525108970701694, 2.7597707509994507 l1.5977619588375092, 2.7597707509994507 4.067030549049377, 2.0335152745246887 m1.7430131137371063, -2.0335152745246887 l-0.726255476474762, 0.0 -2.6145195960998535, 2.4692685902118683 l-0.5810043588280678, 1.7430131137371063 0.726255476474762, 1.7430131137371063 l1.3072597980499268, 1.0167576372623444 1.5977619588375092, -0.14525108970701694 l1.0167576372623444, -1.3072597980499268 m7.553057074546814, -38.927292823791504 l0.726255476474762, -2.4692685902118683 3.4860262274742126, -1.5977619588375092 l2.178766429424286, -0.2905021794140339 0.726255476474762, 0.8715065568685532 l0.14525108970701694, 1.452510952949524 m-2.905021905899048, 1.3072597980499268 l2.324017435312271, -1.5977619588375092 4.502783715724945, -1.7430131137371063 l0.8715065568685532, -0.14525108970701694 2.0335152745246887, 1.7430131137371063 m-2.4692685902118683, 3.3407750725746155 l1.1620087176561356, -1.1620087176561356 2.6145195960998535, -1.1620087176561356 l3.4860262274742126, 0.4357532784342766 0.4357532784342766, 1.5977619588375092 l-0.726255476474762, 1.7430131137371063 -1.452510952949524, 1.452510952949524 m-4.357532858848572, 1.1620087176561356 l1.7430131137371063, -1.0167576372623444 2.905021905899048, -0.14525108970701694 l2.4692685902118683, 0.5810043588280678 0.8715065568685532, 0.726255476474762 l0.14525108970701694, 0.8715065568685532 -1.0167576372623444, 3.63127738237381 m-3.776528537273407, 3.4860262274742126 l0.5810043588280678, -1.3072597980499268 2.0335152745246887, -1.7430131137371063 l2.324017435312271, -0.5810043588280678 0.726255476474762, 0.2905021794140339 l2.4692685902118683, 2.178766429424286 -0.2905021794140339, 2.7597707509994507 l-1.3072597980499268, 1.452510952949524 m-3.1955239176750183, -1.5977619588375092 l4.793286025524139, -0.4357532784342766 1.8882642686367035, 1.3072597980499268 l0.4357532784342766, 0.8715065568685532 0.5810043588280678, 4.648034870624542 l-1.8882642686367035, 2.178766429424286 -2.178766429424286, 0.726255476474762 m3.1955239176750183, -0.14525108970701694 l-0.2905021794140339, 6.10054612159729 -3.050273060798645, 2.178766429424286 l-1.1620087176561356, 0.2905021794140339 -1.0167576372623444, -2.7597707509994507 m3.3407750725746155, 1.7430131137371063 l-2.6145195960998535, 2.178766429424286 -6.391047835350037, 1.3072597980499268 m-16.703875064849854, -7.553057074546814 l-1.452510952949524, -0.2905021794140339 -0.5810043588280678, 1.3072597980499268 l0.0, 3.9217793941497803 0.726255476474762, -0.8715065568685532 l0.4357532784342766, -5.810043811798096 m10.458078384399414, 2.324017435312271 l-0.4357532784342766, 3.3407750725746155 0.5810043588280678, -0.726255476474762 l0.0, -1.0167576372623444 -0.2905021794140339, -1.5977619588375092 l-0.8715065568685532, -0.8715065568685532 m-14.670360088348389, 3.050273060798645 l2.7597707509994507, 3.9217793941497803 3.050273060798645, 2.4692685902118683 l4.067030549049377, 2.0335152745246887 2.905021905899048, 0.0 l2.7597707509994507, -1.8882642686367035 1.8882642686367035, -3.776528537273407 l0.4357532784342766, -1.8882642686367035 m-16.558624505996704, 5.08378803730011 l0.14525108970701694, 0.726255476474762 1.452510952949524, 1.0167576372623444 l5.810043811798096, 1.452510952949524 1.5977619588375092, 0.0 l0.726255476474762, -0.5810043588280678 1.452510952949524, -2.6145195960998535 l2.6145195960998535, 1.1620087176561356 3.9217793941497803, 0.2905021794140339 " fill="none" stroke="black" stroke-width="1" /></svg>