<?xml version="1.0" encoding="utf-8" ?>
<svg baseProfile="full" height="70.5697044543922" version="1.1" width="83.49705277942121" xmlns="http://www.w3.org/2000/svg" xmlns:ev="http://www.w3.org/2001/xml-events" xmlns:xlink="http://www.w3.org/1999/xlink"><defs /><rect fill="white" height="70.5697044543922" width="83.49705277942121" x="0" y="0" /><path d="M17.63684486038983, 19.379856353625655 m-1.3072597980499268, 9.731823205947876 l0.0, 6.826801300048828 1.0167576372623444, 2.905021905899048 l3.63127738237381, 5.08378803730011 7.8435587882995605, 4.938537180423737 l5.955294966697693, 2.324017435312271 7.8435587882995605, 2.178766429424286 l4.793286025524139, 0.5810043588280678 6.391047835350037, 0.0 l6.681550145149231, -2.6145195960998535 5.08378803730011, -3.776528537273407 l2.6145195960998535, -3.63127738237381 0.726255476474762, -1.8882642686367035 l1.452510952949524, -6.681550145149231 0.0, -9.00556743144989 l-2.7597707509994507, -6.972052454948425 0.8715065568685532, -8.42456340789795 l-0.5810043588280678, -0.726255476474762 -2.178766429424286, -0.14525108970701694 l-1.452510952949524, 0.8715065568685532 -2.0335152745246887, 3.4860262274742126 l-1.5977619588375092, 0.8715065568685532 -10.458078384399414, -1.5977619588375092 l-11.184333562850952, 0.14525108970701694 -4.067030549049377, 0.726255476474762 l-2.0335152745246887, 1.0167576372623444 -8.134061098098755, 2.0335152745246887 l-6.972052454948425, -6.10054612159729 -0.726255476474762, -0.4357532784342766 l-0.8715065568685532, 0.14525108970701694 -1.5977619588375092, 2.178766429424286 l-0.14525108970701694, 2.178766429424286 2.4692685902118683, 2.905021905899048 l1.3072597980499268, 3.63127738237381 m-4.357532858848572, -7.8435587882995605 l-1.7430131137371063, 1.452510952949524 -2.4692685902118683, 3.3407750725746155 l-3.4860262274742126, 8.279312252998352 -1.1620087176561356, 6.972052454948425 l0.0, 11.620087623596191 0.5810043588280678, 2.7597707509994507 l2.324017435312271, 5.374290347099304 0.2905021794140339, 8.715065717697144 l0.8715065568685532, -0.14525108970701694 1.5977619588375092, -3.3407750725746155 l3.63127738237381, -5.519541501998901 0.4357532784342766, 1.5977619588375092 l0.0, 8.715065717697144 0.8715065568685532, 0.5810043588280678 l2.4692685902118683, -3.3407750725746155 3.050273060798645, -2.905021905899048 l0.726255476474762, 0.14525108970701694 0.14525108970701694, 1.452510952949524 l6.826801300048828, -9.441320896148682 0.8715065568685532, 6.972052454948425 l1.3072597980499268, 4.938537180423737 0.4357532784342766, 0.726255476474762 l0.8715065568685532, 0.2905021794140339 3.9217793941497803, -2.4692685902118683 l5.229039192199707, -1.0167576372623444 2.4692685902118683, 5.08378803730011 l0.8715065568685532, 0.2905021794140339 5.519541501998901, -3.1955239176750183 l1.8882642686367035, -0.2905021794140339 2.7597707509994507, 1.0167576372623444 l2.7597707509994507, 2.6145195960998535 0.726255476474762, 0.0 l1.8882642686367035, -2.178766429424286 2.905021905899048, -2.0335152745246887 l2.324017435312271, 1.8882642686367035 0.726255476474762, -0.4357532784342766 l3.63127738237381, -7.698307633399963 1.7430131137371063, 3.63127738237381 l6.826801300048828, -14.379857778549194 0.0, -0.726255476474762 l-0.14525108970701694, -2.0335152745246887 -2.0335152745246887, -6.536298990249634 l-0.726255476474762, -0.14525108970701694 -0.4357532784342766, 1.5977619588375092 l-0.726255476474762, -6.2457966804504395 -1.3072597980499268, -2.4692685902118683 l-1.0167576372623444, -5.08378803730011 -2.4692685902118683, -3.776528537273407 l-0.726255476474762, -0.14525108970701694 m-49.67587471008301, -6.972052454948425 l3.9217793941497803, -5.6647926568984985 1.7430131137371063, 1.452510952949524 l1.452510952949524, 0.0 4.648034870624542, -1.452510952949524 l0.726255476474762, 0.0 0.726255476474762, 0.726255476474762 l2.905021905899048, 0.0 9.150818586349487, -1.8882642686367035 l0.8715065568685532, 1.1620087176561356 1.1620087176561356, 4.793286025524139 l1.3072597980499268, 1.1620087176561356 0.8715065568685532, 0.0 l6.10054612159729, -3.776528537273407 2.4692685902118683, -0.8715065568685532 l2.0335152745246887, 3.776528537273407 2.6145195960998535, 2.0335152745246887 m-32.97199726104736, 13.508352041244507 l0.0, 0.0 m3.4860262274742126, 0.0 l0.4357532784342766, 0.726255476474762 -0.14525108970701694, 1.5977619588375092 l-1.0167576372623444, 1.1620087176561356 " fill="none" stroke="black" stroke-width="1" /></svg>