<?xml version="1.0" encoding="utf-8" ?>
<svg baseProfile="full" height="28.15638666972518" version="1.1" width="45.29601494781673" xmlns="http://www.w3.org/2000/svg" xmlns:ev="http://www.w3.org/2001/xml-events" xmlns:xlink="http://www.w3.org/1999/xlink"><defs /><rect fill="white" height="28.15638666972518" width="45.29601494781673" x="0" y="0" /><path d="M23.882642667740583, 14.731823205947876 m-10.603330135345459, -0.2905021794140339 l-2.7597707509994507, 0.726255476474762 -2.0335152745246887, 2.178766429424286 l0.2905021794140339, 2.4692685902118683 3.050273060798645, 2.4692685902118683 l2.6145195960998535, 0.8715065568685532 3.050273060798645, -0.14525108970701694 l0.726255476474762, -0.8715065568685532 0.0, -0.8715065568685532 l-3.050273060798645, -0.726255476474762 m0.14525108970701694, -0.726255476474762 l4.938537180423737, 0.14525108970701694 3.1955239176750183, 1.3072597980499268 l3.776528537273407, 0.14525108970701694 0.726255476474762, -0.4357532784342766 l0.0, -0.8715065568685532 -0.8715065568685532, -0.5810043588280678 l-2.905021905899048, -0.2905021794140339 m1.0167576372623444, 0.14525108970701694 l5.374290347099304, -1.3072597980499268 1.7430131137371063, -1.0167576372623444 l1.5977619588375092, -2.6145195960998535 0.4357532784342766, -3.3407750725746155 l-3.3407750725746155, -2.178766429424286 -4.502783715724945, 0.2905021794140339 l-1.8882642686367035, 2.0335152745246887 -1.3072597980499268, 3.9217793941497803 m1.0167576372623444, -1.1620087176561356 l-0.8715065568685532, -0.2905021794140339 -2.0335152745246887, -2.7597707509994507 l-0.5810043588280678, -2.0335152745246887 4.212281703948975, -0.14525108970701694 l2.324017435312271, 1.0167576372623444 -0.14525108970701694, -3.1955239176750183 l1.1620087176561356, 0.0 3.1955239176750183, 1.5977619588375092 l0.14525108970701694, -1.0167576372623444 1.1620087176561356, -1.3072597980499268 l2.0335152745246887, -0.14525108970701694 1.452510952949524, 1.3072597980499268 l0.8715065568685532, 2.0335152745246887 0.726255476474762, -0.726255476474762 l1.452510952949524, 0.14525108970701694 0.14525108970701694, 1.7430131137371063 l-1.8882642686367035, 1.7430131137371063 m-29.485971927642822, 5.955294966697693 l-2.905021905899048, -0.8715065568685532 -0.2905021794140339, -0.726255476474762 l0.2905021794140339, -2.178766429424286 1.7430131137371063, -1.8882642686367035 l2.6145195960998535, -1.0167576372623444 2.7597707509994507, -0.14525108970701694 l1.1620087176561356, 0.14525108970701694 3.4860262274742126, 1.7430131137371063 m-0.8715065568685532, 0.2905021794140339 l1.0167576372623444, -0.8715065568685532 1.5977619588375092, 0.0 l0.0, 0.8715065568685532 -2.905021905899048, 0.14525108970701694 l-1.1620087176561356, -1.452510952949524 m14.670360088348389, -5.955294966697693 l6.536298990249634, -1.0167576372623444 -0.5810043588280678, 1.1620087176561356 l-2.178766429424286, 2.178766429424286 -0.726255476474762, 1.1620087176561356 l0.14525108970701694, 0.726255476474762 5.810043811798096, 0.14525108970701694 l1.452510952949524, 0.2905021794140339 0.4357532784342766, 0.726255476474762 l-4.357532858848572, 2.0335152745246887 -2.178766429424286, 1.5977619588375092 l2.4692685902118683, 1.0167576372623444 0.4357532784342766, 0.8715065568685532 l0.0, 0.8715065568685532 -1.8882642686367035, 1.1620087176561356 l-5.08378803730011, 0.726255476474762 -0.5810043588280678, 0.8715065568685532 l-0.14525108970701694, 1.7430131137371063 -0.726255476474762, 0.5810043588280678 l-2.324017435312271, -1.452510952949524 -0.2905021794140339, -1.1620087176561356 m1.5977619588375092, -4.067030549049377 l0.4357532784342766, -2.178766429424286 0.8715065568685532, -0.8715065568685532 l3.050273060798645, -0.726255476474762 1.7430131137371063, 0.14525108970701694 l0.0, 1.5977619588375092 -1.452510952949524, 1.5977619588375092 l-5.08378803730011, 1.5977619588375092 m0.2905021794140339, -5.374290347099304 " fill="none" stroke="black" stroke-width="1" /></svg>