<?xml version="1.0" encoding="utf-8" ?>
<svg baseProfile="full" height="69.6981989312917" version="1.1" width="82.04454210586846" xmlns="http://www.w3.org/2000/svg" xmlns:ev="http://www.w3.org/2001/xml-events" xmlns:xlink="http://www.w3.org/1999/xlink"><defs /><rect fill="white" height="69.6981989312917" width="82.04454210586846" x="0" y="0" /><path d="M33.90496676787734, 22.865883745253086 m5.6647926568984985, -2.178766429424286 l1.8882642686367035, -2.324017435312271 1.1620087176561356, 1.5977619588375092 l7.26255476474762, 2.178766429424286 3.63127738237381, -1.0167576372623444 l1.0167576372623444, -1.3072597980499268 0.8715065568685532, 3.050273060798645 l2.905021905899048, 3.4860262274742126 3.9217793941497803, 0.5810043588280678 l-0.8715065568685532, 5.6647926568984985 0.2905021794140339, 0.8715065568685532 l1.7430131137371063, 0.726255476474762 -2.6145195960998535, 5.519541501998901 l-0.2905021794140339, 3.9217793941497803 -1.452510952949524, -1.5977619588375092 l-7.8435587882995605, -0.4357532784342766 -6.972052454948425, 4.648034870624542 l-0.4357532784342766, 2.7597707509994507 -0.4357532784342766, -1.1620087176561356 l-5.810043811798096, -0.5810043588280678 -1.5977619588375092, 0.726255476474762 l-0.2905021794140339, 1.3072597980499268 -0.14525108970701694, -1.8882642686367035 l-4.212281703948975, -3.776528537273407 -5.519541501998901, -1.5977619588375092 l-2.4692685902118683, 0.4357532784342766 1.0167576372623444, -2.178766429424286 l-0.2905021794140339, -2.905021905899048 2.324017435312271, -2.324017435312271 l1.8882642686367035, -3.1955239176750183 0.5810043588280678, -5.08378803730011 l2.178766429424286, -2.6145195960998535 0.726255476474762, -2.324017435312271 l2.7597707509994507, -0.5810043588280678 2.0335152745246887, -1.5977619588375092 m-17.575381994247437, -7.988809943199158 l3.050273060798645, -2.6145195960998535 7.1173036098480225, -3.3407750725746155 l6.972052454948425, -0.726255476474762 5.810043811798096, 2.905021905899048 l1.3072597980499268, 1.8882642686367035 2.905021905899048, -2.4692685902118683 l4.357532858848572, -1.1620087176561356 3.1955239176750183, 0.4357532784342766 l3.9217793941497803, 3.4860262274742126 0.5810043588280678, 1.3072597980499268 l5.374290347099304, -0.2905021794140339 3.050273060798645, 0.8715065568685532 l3.63127738237381, 3.1955239176750183 0.726255476474762, 2.0335152745246887 l0.0, 1.452510952949524 -0.8715065568685532, 0.726255476474762 l4.648034870624542, 3.1955239176750183 1.7430131137371063, 2.324017435312271 l0.5810043588280678, 2.324017435312271 -0.4357532784342766, 3.3407750725746155 l-1.0167576372623444, 1.7430131137371063 -0.14525108970701694, 4.793286025524139 l-2.324017435312271, 7.553057074546814 -4.357532858848572, 3.3407750725746155 l-1.5977619588375092, 0.726255476474762 0.0, 4.357532858848572 l-2.0335152745246887, 1.452510952949524 -6.826801300048828, 1.1620087176561356 l-1.3072597980499268, 2.6145195960998535 -2.178766429424286, 2.4692685902118683 l-7.407805919647217, 2.324017435312271 -3.1955239176750183, -0.14525108970701694 l-2.178766429424286, 1.3072597980499268 -5.08378803730011, 0.4357532784342766 l-4.793286025524139, -3.4860262274742126 -1.5977619588375092, -3.63127738237381 l-8.569814562797546, 0.726255476474762 -13.508352041244507, -5.229039192199707 l-2.324017435312271, -2.0335152745246887 0.0, -0.8715065568685532 l-1.1620087176561356, -1.8882642686367035 0.14525108970701694, -3.9217793941497803 l2.4692685902118683, -1.7430131137371063 4.938537180423737, -9.296069741249084 l2.178766429424286, -2.905021905899048 1.7430131137371063, -0.2905021794140339 l-0.8715065568685532, 0.14525108970701694 -1.1620087176561356, -5.08378803730011 l0.5810043588280678, -3.9217793941497803 1.0167576372623444, -1.5977619588375092 l1.7430131137371063, -1.0167576372623444 0.2905021794140339, -4.938537180423737 l2.324017435312271, -2.905021905899048 1.0167576372623444, -0.2905021794140339 l0.726255476474762, -1.0167576372623444 0.8715065568685532, -0.14525108970701694 m13.363100290298462, 20.62565565109253 l2.0335152745246887, 0.8715065568685532 m10.16757607460022, -2.324017435312271 l-3.776528537273407, 3.3407750725746155 " fill="none" stroke="black" stroke-width="1" /></svg>