<?xml version="1.0" encoding="utf-8" ?>
<svg baseProfile="full" height="60.54737988859415" version="1.1" width="51.687063574790955" xmlns="http://www.w3.org/2000/svg" xmlns:ev="http://www.w3.org/2001/xml-events" xmlns:xlink="http://www.w3.org/1999/xlink"><defs /><rect fill="white" height="60.54737988859415" width="51.687063574790955" x="0" y="0" /><path d="M20.8323688339442, 9.93853653781116 m-0.726255476474762, -0.5810043588280678 l-5.08378803730011, -1.1620087176561356 -0.4357532784342766, 1.1620087176561356 l0.0, 3.050273060798645 -4.357532858848572, -0.4357532784342766 l-0.5810043588280678, 6.10054612159729 -2.6145195960998535, -0.5810043588280678 l-0.2905021794140339, 8.134061098098755 -1.5977619588375092, 3.9217793941497803 l-0.14525108970701694, 8.279312252998352 0.726255476474762, 0.14525108970701694 l2.4692685902118683, -2.7597707509994507 0.14525108970701694, 11.039083003997803 l0.8715065568685532, 0.4357532784342766 2.6145195960998535, 0.0 l1.1620087176561356, 0.726255476474762 1.3072597980499268, 3.776528537273407 l0.726255476474762, 0.726255476474762 2.324017435312271, 0.4357532784342766 l3.63127738237381, -0.726255476474762 1.0167576372623444, 0.726255476474762 l0.2905021794140339, 2.7597707509994507 0.8715065568685532, 0.4357532784342766 l7.26255476474762, -3.776528537273407 0.8715065568685532, 0.14525108970701694 l0.4357532784342766, 2.6145195960998535 0.726255476474762, 0.8715065568685532 l1.1620087176561356, 0.0 4.938537180423737, -4.212281703948975 l0.726255476474762, -0.4357532784342766 0.726255476474762, 0.5810043588280678 l0.8715065568685532, -0.726255476474762 4.793286025524139, -6.2457966804504395 l0.8715065568685532, -6.391047835350037 0.0, -4.793286025524139 l-0.8715065568685532, -2.4692685902118683 -2.324017435312271, -0.4357532784342766 l0.14525108970701694, -2.178766429424286 3.1955239176750183, -8.569814562797546 l0.0, -1.1620087176561356 -1.7430131137371063, -1.452510952949524 l-0.2905021794140339, -1.0167576372623444 0.0, -4.067030549049377 l0.8715065568685532, -3.9217793941497803 -0.2905021794140339, -1.8882642686367035 l-1.3072597980499268, 0.0 -7.26255476474762, 2.905021905899048 l-0.726255476474762, 0.0 0.0, -2.6145195960998535 l-2.324017435312271, -0.14525108970701694 -4.938537180423737, 2.4692685902118683 l-2.4692685902118683, 0.726255476474762 1.8882642686367035, -3.63127738237381 l0.0, -0.726255476474762 -1.1620087176561356, 0.0 l-6.681550145149231, 3.63127738237381 m13.653602600097656, 4.938537180423737 l-2.178766429424286, -0.2905021794140339 -7.407805919647217, 2.178766429424286 l-5.08378803730011, 2.6145195960998535 -2.4692685902118683, 2.178766429424286 l-1.7430131137371063, 2.4692685902118683 -1.452510952949524, 5.6647926568984985 l0.0, 3.050273060798645 1.5977619588375092, 5.6647926568984985 l1.452510952949524, 2.905021905899048 1.5977619588375092, 1.3072597980499268 l3.4860262274742126, 1.5977619588375092 7.407805919647217, 0.2905021794140339 l4.793286025524139, -2.324017435312271 3.9217793941497803, -3.9217793941497803 l1.1620087176561356, -1.7430131137371063 0.726255476474762, -2.6145195960998535 l1.1620087176561356, -9.00556743144989 0.0, -3.4860262274742126 l-1.1620087176561356, -1.7430131137371063 -3.9217793941497803, -2.7597707509994507 l-0.8715065568685532, -2.7597707509994507 m-18.01113486289978, 13.94410490989685 l3.63127738237381, 0.4357532784342766 1.452510952949524, -1.8882642686367035 l0.2905021794140339, -1.452510952949524 " fill="none" stroke="black" stroke-width="1" /></svg>