<?xml version="1.0" encoding="utf-8" ?>
<svg baseProfile="full" height="56.916102916002274" version="1.1" width="63.5976530238986" xmlns="http://www.w3.org/2000/svg" xmlns:ev="http://www.w3.org/2001/xml-events" xmlns:xlink="http://www.w3.org/1999/xlink"><defs /><rect fill="white" height="56.916102916002274" width="63.5976530238986" x="0" y="0" /><path d="M34.34072099626064, 21.41337255947292 m-2.905021905899048, -1.0167576372623444 l-5.519541501998901, -0.2905021794140339 -5.229039192199707, 3.050273060798645 l-2.905021905899048, 3.776528537273407 -1.1620087176561356, 5.519541501998901 l0.0, 4.357532858848572 2.178766429424286, 4.212281703948975 l2.905021905899048, 2.6145195960998535 1.8882642686367035, 1.0167576372623444 l3.9217793941497803, 1.0167576372623444 6.536298990249634, 0.14525108970701694 l6.826801300048828, -2.6145195960998535 3.63127738237381, -2.7597707509994507 l2.178766429424286, -5.229039192199707 -0.4357532784342766, -6.681550145149231 l-1.452510952949524, -3.3407750725746155 -2.0335152745246887, -2.7597707509994507 l-2.6145195960998535, -1.7430131137371063 -5.519541501998901, -0.2905021794140339 l-1.3072597980499268, 0.4357532784342766 m0.5810043588280678, -14.670360088348389 l-0.8715065568685532, -0.726255476474762 -3.050273060798645, -0.4357532784342766 l-1.8882642686367035, 4.793286025524139 -0.726255476474762, 0.5810043588280678 l-1.452510952949524, -1.5977619588375092 -1.1620087176561356, 0.2905021794140339 l-4.357532858848572, 3.4860262274742126 -1.0167576372623444, 0.2905021794140339 l-0.726255476474762, -1.3072597980499268 -1.1620087176561356, -0.2905021794140339 l-3.776528537273407, 2.905021905899048 -1.452510952949524, 2.7597707509994507 l-1.3072597980499268, 4.067030549049377 -0.726255476474762, 0.0 l-3.4860262274742126, 5.519541501998901 -1.7430131137371063, 5.08378803730011 l0.4357532784342766, 10.312827825546265 1.5977619588375092, 0.726255476474762 l0.5810043588280678, 2.4692685902118683 1.5977619588375092, 2.324017435312271 l2.7597707509994507, 0.2905021794140339 4.212281703948975, -1.5977619588375092 l0.8715065568685532, 0.726255476474762 0.8715065568685532, 2.6145195960998535 l0.726255476474762, 0.4357532784342766 1.7430131137371063, 0.14525108970701694 l3.1955239176750183, -0.8715065568685532 3.63127738237381, -0.14525108970701694 l3.3407750725746155, 1.5977619588375092 2.0335152745246887, 0.2905021794140339 l3.4860262274742126, -1.3072597980499268 3.3407750725746155, 2.0335152745246887 l3.63127738237381, 0.2905021794140339 3.3407750725746155, -2.6145195960998535 l2.905021905899048, -3.1955239176750183 3.4860262274742126, 0.0 l1.8882642686367035, -2.6145195960998535 1.1620087176561356, -4.502783715724945 l0.5810043588280678, -0.8715065568685532 0.726255476474762, -0.14525108970701694 l1.452510952949524, -7.988809943199158 -4.212281703948975, -8.134061098098755 l-3.776528537273407, -4.357532858848572 -0.2905021794140339, -5.6647926568984985 l-0.5810043588280678, -1.0167576372623444 -1.452510952949524, -0.8715065568685532 l-2.7597707509994507, -0.4357532784342766 -5.955294966697693, -2.6145195960998535 l-3.050273060798645, -0.5810043588280678 -2.6145195960998535, 0.14525108970701694 m-8.715065717697144, 25.273690223693848 l-0.2905021794140339, 1.7430131137371063 2.4692685902118683, 0.2905021794140339 l0.5810043588280678, -0.726255476474762 -2.905021905899048, -1.0167576372623444 l-0.14525108970701694, 0.726255476474762 m12.20109224319458, -2.905021905899048 l-1.5977619588375092, 0.726255476474762 -0.4357532784342766, 1.5977619588375092 l0.726255476474762, 0.4357532784342766 1.8882642686367035, 0.0 l1.0167576372623444, -0.8715065568685532 0.4357532784342766, -1.0167576372623444 l-1.1620087176561356, -0.4357532784342766 -1.5977619588375092, 0.2905021794140339 m-14.52510952949524, 8.715065717697144 l0.5810043588280678, 1.1620087176561356 2.324017435312271, 1.3072597980499268 l5.810043811798096, 0.4357532784342766 5.810043811798096, -2.905021905899048 l4.793286025524139, -3.63127738237381 m-12.34634280204773, 10.893832445144653 l1.0167576372623444, -2.0335152745246887 0.14525108970701694, -3.9217793941497803 " fill="none" stroke="black" stroke-width="1" /></svg>