<?xml version="1.0" encoding="utf-8" ?>
<svg baseProfile="full" height="34.98318796977401" version="1.1" width="43.69825339876115" xmlns="http://www.w3.org/2000/svg" xmlns:ev="http://www.w3.org/2001/xml-events" xmlns:xlink="http://www.w3.org/1999/xlink"><defs /><rect fill="white" height="34.98318796977401" width="43.69825339876115" x="0" y="0" /><path d="M18.944104705005884, 11.39104824513197 m-1.5977619588375092, 0.0 l-2.0335152745246887, 0.8715065568685532 -1.5977619588375092, 1.7430131137371063 l-1.0167576372623444, 2.6145195960998535 0.2905021794140339, 3.1955239176750183 l1.3072597980499268, 1.5977619588375092 3.4860262274742126, 2.178766429424286 l1.8882642686367035, 0.5810043588280678 4.357532858848572, 0.0 l1.7430131137371063, -0.5810043588280678 1.8882642686367035, -3.3407750725746155 l0.0, -2.4692685902118683 -0.726255476474762, -2.6145195960998535 l-2.324017435312271, -1.8882642686367035 -4.357532858848572, -1.5977619588375092 l-2.4692685902118683, 0.5810043588280678 m0.4357532784342766, 5.519541501998901 l-0.8715065568685532, 0.14525108970701694 -0.5810043588280678, 0.726255476474762 l-0.8715065568685532, 2.324017435312271 0.726255476474762, 0.5810043588280678 l3.3407750725746155, -0.2905021794140339 0.14525108970701694, -1.7430131137371063 l-2.324017435312271, -1.0167576372623444 -0.14525108970701694, 1.7430131137371063 m6.391047835350037, -1.0167576372623444 l-1.7430131137371063, -0.5810043588280678 -1.0167576372623444, 0.5810043588280678 l-1.0167576372623444, 1.5977619588375092 2.6145195960998535, -0.14525108970701694 l1.1620087176561356, -1.452510952949524 -0.5810043588280678, -0.5810043588280678 m-2.0335152745246887, 0.8715065568685532 l0.0, 0.0 m1.1620087176561356, -0.2905021794140339 l0.0, 0.0 m-2.6145195960998535, -8.86031687259674 l-3.1955239176750183, -0.5810043588280678 -2.6145195960998535, -2.178766429424286 l-2.905021905899048, -1.452510952949524 -2.905021905899048, -0.2905021794140339 l-3.3407750725746155, 7.553057074546814 0.4357532784342766, 1.5977619588375092 l2.905021905899048, 0.5810043588280678 0.0, 8.715065717697144 l1.7430131137371063, 1.0167576372623444 9.586572051048279, 0.2905021794140339 l-0.2905021794140339, 0.8715065568685532 -1.5977619588375092, 0.8715065568685532 l-0.4357532784342766, 0.8715065568685532 8.42456340789795, 0.2905021794140339 l4.938537180423737, 1.452510952949524 7.8435587882995605, -3.4860262274742126 l0.14525108970701694, -1.0167576372623444 -2.7597707509994507, -1.3072597980499268 l0.4357532784342766, -5.810043811798096 -0.4357532784342766, -2.0335152745246887 l-0.8715065568685532, -1.3072597980499268 -5.229039192199707, -2.4692685902118683 l-5.519541501998901, -1.452510952949524 1.0167576372623444, -0.2905021794140339 l1.8882642686367035, 0.5810043588280678 4.502783715724945, 0.0 l-4.212281703948975, -1.7430131137371063 -0.5810043588280678, -0.8715065568685532 l0.0, -2.324017435312271 -0.5810043588280678, -0.726255476474762 l-1.7430131137371063, -0.726255476474762 -1.7430131137371063, 0.14525108970701694 l-1.0167576372623444, 1.5977619588375092 0.726255476474762, 0.2905021794140339 l-0.726255476474762, 0.4357532784342766 -2.324017435312271, 3.63127738237381 " fill="none" stroke="black" stroke-width="1" /></svg>