<?xml version="1.0" encoding="utf-8" ?>
<svg baseProfile="full" height="64.61441013030708" version="1.1" width="54.59208474494517" xmlns="http://www.w3.org/2000/svg" xmlns:ev="http://www.w3.org/2001/xml-events" xmlns:xlink="http://www.w3.org/1999/xlink"><defs /><rect fill="white" height="64.61441013030708" width="54.59208474494517" x="0" y="0" /><path d="M14.586571929976344, 19.525108858942986 m0.726255476474762, -1.452510952949524 l2.6145195960998535, -0.5810043588280678 0.8715065568685532, 0.2905021794140339 l2.0335152745246887, 2.6145195960998535 m2.6145195960998535, -0.5810043588280678 l1.0167576372623444, -0.5810043588280678 m-3.3407750725746155, 0.2905021794140339 l11.039083003997803, 0.0 m1.8882642686367035, -1.0167576372623444 l2.0335152745246887, -2.324017435312271 1.1620087176561356, -0.4357532784342766 l2.0335152745246887, 0.14525108970701694 1.452510952949524, 3.4860262274742126 l0.0, 2.324017435312271 m-25.70944309234619, -1.452510952949524 l-0.4357532784342766, 0.8715065568685532 0.0, 3.63127738237381 l1.7430131137371063, 5.810043811798096 1.7430131137371063, 3.3407750725746155 l1.3072597980499268, 7.988809943199158 1.0167576372623444, 2.4692685902118683 l1.7430131137371063, 1.3072597980499268 2.7597707509994507, 0.8715065568685532 l7.1173036098480225, 0.14525108970701694 m7.26255476474762, -23.82117986679077 l0.4357532784342766, 4.067030549049377 0.0, 8.569814562797546 l-0.4357532784342766, 2.324017435312271 -2.178766429424286, 3.3407750725746155 l-4.212281703948975, 3.1955239176750183 m-7.988809943199158, -8.279312252998352 l3.1955239176750183, -0.14525108970701694 -3.3407750725746155, -0.14525108970701694 l0.0, 1.8882642686367035 0.726255476474762, 0.726255476474762 l0.726255476474762, 0.0 0.726255476474762, -0.4357532784342766 l0.8715065568685532, -2.4692685902118683 0.8715065568685532, -0.4357532784342766 m-2.4692685902118683, 4.212281703948975 l0.14525108970701694, 4.938537180423737 -0.4357532784342766, 0.726255476474762 l-2.178766429424286, 0.4357532784342766 -1.0167576372623444, -0.726255476474762 l0.0, -1.7430131137371063 m3.63127738237381, -4.212281703948975 l0.726255476474762, 3.63127738237381 1.8882642686367035, 2.0335152745246887 l2.178766429424286, 0.0 1.0167576372623444, -1.3072597980499268 m0.14525108970701694, -15.396615266799927 l-0.5810043588280678, 0.726255476474762 0.726255476474762, 0.2905021794140339 m-10.893832445144653, 0.5810043588280678 l0.4357532784342766, -0.726255476474762 -0.14525108970701694, 0.8715065568685532 l0.0, -1.5977619588375092 m2.0335152745246887, -14.08935546875 l0.14525108970701694, -1.1620087176561356 1.5977619588375092, -2.6145195960998535 l3.63127738237381, -4.357532858848572 0.4357532784342766, 4.212281703948975 l1.0167576372623444, 0.5810043588280678 1.452510952949524, -0.2905021794140339 l5.229039192199707, -4.067030549049377 2.178766429424286, -1.0167576372623444 l1.0167576372623444, 0.0 0.4357532784342766, 0.8715065568685532 l0.0, 6.391047835350037 1.3072597980499268, 0.4357532784342766 l5.08378803730011, -0.2905021794140339 1.5977619588375092, 0.2905021794140339 l-0.2905021794140339, 3.4860262274742126 -3.050273060798645, 6.2457966804504395 l-0.4357532784342766, 2.905021905899048 0.14525108970701694, 2.0335152745246887 l3.3407750725746155, 1.8882642686367035 0.726255476474762, 2.0335152745246887 l0.14525108970701694, 4.648034870624542 -0.5810043588280678, 3.776528537273407 l0.0, 4.502783715724945 -0.726255476474762, 1.452510952949524 l-3.1955239176750183, 2.178766429424286 -9.296069741249084, 2.178766429424286 l-0.4357532784342766, 1.8882642686367035 1.1620087176561356, 4.793286025524139 l-1.5977619588375092, 0.2905021794140339 -3.9217793941497803, -3.4860262274742126 l-1.5977619588375092, -0.4357532784342766 -2.4692685902118683, 5.08378803730011 l-1.3072597980499268, 1.3072597980499268 -0.726255476474762, 0.14525108970701694 l-1.0167576372623444, -0.2905021794140339 -3.9217793941497803, -5.6647926568984985 l-1.8882642686367035, -1.3072597980499268 -0.726255476474762, 0.0 l-1.1620087176561356, 0.8715065568685532 -1.5977619588375092, 2.7597707509994507 l-1.7430131137371063, 1.3072597980499268 -0.8715065568685532, 0.0 l-0.726255476474762, -2.6145195960998535 -0.14525108970701694, -13.508352041244507 l-1.8882642686367035, -0.4357532784342766 -0.5810043588280678, -1.8882642686367035 l2.6145195960998535, -6.681550145149231 0.0, -3.63127738237381 l-0.5810043588280678, -1.3072597980499268 -1.1620087176561356, -0.8715065568685532 l-4.502783715724945, -1.452510952949524 2.178766429424286, -0.726255476474762 l1.0167576372623444, -0.8715065568685532 0.726255476474762, -1.3072597980499268 l0.14525108970701694, -1.5977619588375092 -0.14525108970701694, -1.7430131137371063 l-2.6145195960998535, -3.63127738237381 -1.1620087176561356, -3.050273060798645 l2.6145195960998535, -0.4357532784342766 3.9217793941497803, 1.1620087176561356 l4.067030549049377, 0.2905021794140339 0.726255476474762, -0.5810043588280678 l0.0, -4.212281703948975 2.905021905899048, 2.324017435312271 l3.3407750725746155, 1.8882642686367035 " fill="none" stroke="black" stroke-width="1" /></svg>