<?xml version="1.0" encoding="utf-8" ?>
<svg baseProfile="full" height="92.21211789175868" version="1.1" width="140.14498062431812" xmlns="http://www.w3.org/2000/svg" xmlns:ev="http://www.w3.org/2001/xml-events" xmlns:xlink="http://www.w3.org/1999/xlink"><defs /><rect fill="white" height="92.21211789175868" width="140.14498062431812" x="0" y="0" /><path d="M24.027893096208572, 54.09486886113882 m-2.905021905899048, -2.178766429424286 l-4.502783715724945, -1.8882642686367035 -2.178766429424286, -1.452510952949524 l-5.6647926568984985, -7.698307633399963 -1.7430131137371063, -3.776528537273407 l-2.0335152745246887, -9.150818586349487 0.0, -3.776528537273407 l0.8715065568685532, -2.324017435312271 1.3072597980499268, -1.452510952949524 l2.324017435312271, -1.3072597980499268 5.08378803730011, -0.8715065568685532 l1.1620087176561356, 1.3072597980499268 1.0167576372623444, 3.1955239176750183 l1.0167576372623444, 7.553057074546814 0.4357532784342766, -9.877074360847473 l0.8715065568685532, -3.776528537273407 1.1620087176561356, -2.4692685902118683 l0.726255476474762, -0.8715065568685532 2.178766429424286, -1.1620087176561356 l1.452510952949524, 0.4357532784342766 1.8882642686367035, 3.050273060798645 l2.0335152745246887, 5.6647926568984985 0.2905021794140339, -4.067030549049377 l1.1620087176561356, -4.212281703948975 4.793286025524139, -7.988809943199158 l21.206660270690918, 3.776528537273407 4.067030549049377, 2.178766429424286 l4.212281703948975, 4.648034870624542 5.6647926568984985, 11.76533818244934 l1.452510952949524, 6.2457966804504395 1.452510952949524, 11.184333562850952 l-0.5810043588280678, 5.08378803730011 -2.0335152745246887, 3.63127738237381 l-3.63127738237381, 3.4860262274742126 -3.050273060798645, 0.726255476474762 l-4.648034870624542, 0.2905021794140339 -2.178766429424286, -0.2905021794140339 l-3.050273060798645, -1.1620087176561356 -31.95523977279663, 1.1620087176561356 l-2.178766429424286, -1.1620087176561356 -0.5810043588280678, -1.5977619588375092 l0.14525108970701694, -2.0335152745246887 m32.97199726104736, -29.77647304534912 l-1.0167576372623444, -1.3072597980499268 -4.793286025524139, -1.1620087176561356 l-7.26255476474762, -0.14525108970701694 -2.324017435312271, 0.4357532784342766 l-3.1955239176750183, 1.8882642686367035 -5.08378803730011, 5.955294966697693 l0.5810043588280678, 29.340720176696777 1.5977619588375092, 1.1620087176561356 l3.1955239176750183, 1.1620087176561356 4.793286025524139, 0.4357532784342766 l6.391047835350037, -1.1620087176561356 4.067030549049377, -2.4692685902118683 l1.5977619588375092, -1.8882642686367035 1.0167576372623444, -2.178766429424286 l2.0335152745246887, -12.782095670700073 0.726255476474762, -14.08935546875 l-0.8715065568685532, -4.648034870624542 m-22.51391887664795, 20.480403900146484 l21.206660270690918, -0.2905021794140339 m-19.318394660949707, 0.726255476474762 l1.452510952949524, 4.067030549049377 0.8715065568685532, 0.8715065568685532 l2.178766429424286, 0.5810043588280678 3.776528537273407, -1.3072597980499268 l1.5977619588375092, -1.3072597980499268 2.178766429424286, -3.3407750725746155 m-9.441320896148682, 1.1620087176561356 l0.14525108970701694, 2.178766429424286 0.726255476474762, 0.14525108970701694 l1.8882642686367035, -2.4692685902118683 m1.0167576372623444, 0.14525108970701694 l0.8715065568685532, 1.3072597980499268 1.8882642686367035, -2.178766429424286 l-0.2905021794140339, 0.726255476474762 m-2.178766429424286, -11.910589933395386 l-2.324017435312271, 1.3072597980499268 -1.7430131137371063, 0.2905021794140339 l-1.452510952949524, -0.726255476474762 -0.726255476474762, -2.324017435312271 l0.4357532784342766, -1.452510952949524 1.1620087176561356, -1.452510952949524 l1.452510952949524, 0.14525108970701694 4.502783715724945, 1.7430131137371063 l0.5810043588280678, 0.726255476474762 -1.8882642686367035, 2.178766429424286 l-0.726255476474762, 0.2905021794140339 -1.1620087176561356, -0.4357532784342766 m13.653602600097656, -2.4692685902118683 l-1.452510952949524, -0.726255476474762 -2.324017435312271, 0.0 l-3.4860262274742126, 0.4357532784342766 -0.5810043588280678, 0.726255476474762 l0.14525108970701694, 1.8882642686367035 1.0167576372623444, 1.5977619588375092 l2.905021905899048, 2.0335152745246887 2.6145195960998535, 0.4357532784342766 l0.726255476474762, -0.2905021794140339 0.726255476474762, -1.8882642686367035 l-0.4357532784342766, -3.9217793941497803 -0.2905021794140339, -0.726255476474762 l-0.8715065568685532, 0.4357532784342766 m-1.452510952949524, 3.63127738237381 l0.0, 0.0 m-10.458078384399414, -1.452510952949524 l0.0, 0.0 m-11.76533818244934, 27.8882098197937 l-1.452510952949524, 6.391047835350037 -0.4357532784342766, 6.826801300048828 l-1.3072597980499268, 6.391047835350037 -0.8715065568685532, 2.4692685902118683 l-2.905021905899048, 3.9217793941497803 -0.5810043588280678, 2.0335152745246887 m36.167521476745605, -31.083734035491943 l-1.5977619588375092, 19.463646411895752 2.324017435312271, 3.9217793941497803 l0.8715065568685532, 0.726255476474762 1.7430131137371063, 0.2905021794140339 l7.988809943199158, -3.9217793941497803 4.357532858848572, -3.050273060798645 l5.374290347099304, -4.938537180423737 5.810043811798096, -6.2457966804504395 l10.312827825546265, -14.08935546875 7.1173036098480225, -13.653602600097656 l7.1173036098480225, -17.284879684448242 -0.14525108970701694, -0.726255476474762 l-0.726255476474762, -0.2905021794140339 -3.050273060798645, 3.4860262274742126 l-2.0335152745246887, 4.067030549049377 -1.5977619588375092, 6.972052454948425 l-0.8715065568685532, 8.134061098098755 25.70944309234619, 36.60327434539795 l5.229039192199707, -5.6647926568984985 1.452510952949524, -2.178766429424286 l2.7597707509994507, -6.10054612159729 2.0335152745246887, -9.731823205947876 l0.0, -3.4860262274742126 -0.5810043588280678, -3.050273060798645 l-3.3407750725746155, -7.8435587882995605 -2.178766429424286, -3.63127738237381 l-4.067030549049377, -1.3072597980499268 -6.681550145149231, -0.726255476474762 l-3.4860262274742126, 0.4357532784342766 -2.324017435312271, 0.8715065568685532 l-2.0335152745246887, 1.8882642686367035 -2.0335152745246887, 3.3407750725746155 l-1.7430131137371063, 5.229039192199707 -1.452510952949524, 6.826801300048828 l-1.5977619588375092, 15.832369327545166 0.2905021794140339, 6.826801300048828 l0.5810043588280678, 2.4692685902118683 0.8715065568685532, 2.0335152745246887 l2.6145195960998535, 2.6145195960998535 3.1955239176750183, 1.3072597980499268 l3.9217793941497803, 0.2905021794140339 1.5977619588375092, -0.14525108970701694 l4.793286025524139, -1.8882642686367035 8.42456340789795, -5.810043811798096 " fill="none" stroke="black" stroke-width="1" /></svg>