<?xml version="1.0" encoding="utf-8" ?>
<svg baseProfile="full" height="57.35185733996332" version="1.1" width="56.04459541849792" xmlns="http://www.w3.org/2000/svg" xmlns:ev="http://www.w3.org/2001/xml-events" xmlns:xlink="http://www.w3.org/1999/xlink"><defs /><rect fill="white" height="57.35185733996332" width="56.04459541849792" x="0" y="0" /><path d="M21.70387540012598, 13.134061796590686 m-4.067030549049377, 1.3072597980499268 l-3.776528537273407, 2.4692685902118683 -2.178766429424286, 3.3407750725746155 l-0.4357532784342766, 3.1955239176750183 0.4357532784342766, 3.9217793941497803 l1.7430131137371063, 3.776528537273407 3.4860262274742126, 4.357532858848572 l2.905021905899048, 1.7430131137371063 1.7430131137371063, 0.4357532784342766 l3.1955239176750183, -0.4357532784342766 3.4860262274742126, -2.178766429424286 l1.0167576372623444, -1.3072597980499268 1.3072597980499268, -3.63127738237381 l0.0, -4.502783715724945 -0.5810043588280678, -2.7597707509994507 l-1.8882642686367035, -4.938537180423737 -1.3072597980499268, -2.178766429424286 l-3.1955239176750183, -3.776528537273407 -3.1955239176750183, -2.324017435312271 l-1.5977619588375092, -0.5810043588280678 -1.3072597980499268, 0.4357532784342766 l-1.3072597980499268, 1.1620087176561356 m-9.441320896148682, 18.01113486289978 l-1.7430131137371063, -13.94410490989685 0.0, -6.391047835350037 l1.0167576372623444, -0.14525108970701694 4.357532858848572, 1.3072597980499268 l0.8715065568685532, -0.2905021794140339 0.726255476474762, -1.7430131137371063 l0.14525108970701694, -2.4692685902118683 5.6647926568984985, 2.324017435312271 l3.3407750725746155, -2.178766429424286 4.648034870624542, 2.4692685902118683 l5.6647926568984985, 5.810043811798096 2.324017435312271, 6.681550145149231 l0.5810043588280678, 4.357532858848572 0.14525108970701694, 8.715065717697144 l-0.8715065568685532, 7.553057074546814 -3.4860262274742126, 3.3407750725746155 l-1.3072597980499268, 3.776528537273407 -2.324017435312271, -1.0167576372623444 l-2.4692685902118683, 0.2905021794140339 -0.5810043588280678, 0.2905021794140339 l0.14525108970701694, 1.8882642686367035 -2.0335152745246887, 0.14525108970701694 l-1.452510952949524, 1.0167576372623444 -1.0167576372623444, -0.8715065568685532 l-3.3407750725746155, -5.519541501998901 -0.2905021794140339, 0.5810043588280678 l0.0, 5.229039192199707 -2.178766429424286, -3.1955239176750183 l-3.3407750725746155, -6.681550145149231 -1.8882642686367035, -9.150818586349487 l-2.0335152745246887, -6.10054612159729 m29.195468425750732, -6.972052454948425 l0.0, -1.1620087176561356 1.452510952949524, -0.2905021794140339 l2.178766429424286, 0.5810043588280678 2.4692685902118683, 1.7430131137371063 l1.7430131137371063, 2.4692685902118683 2.0335152745246887, 6.972052454948425 l0.726255476474762, 10.893832445144653 -0.2905021794140339, 0.8715065568685532 l-1.5977619588375092, 1.1620087176561356 -2.0335152745246887, 0.5810043588280678 l-9.441320896148682, 1.452510952949524 m13.653602600097656, -14.815611839294434 l0.0, -2.4692685902118683 0.4357532784342766, -2.178766429424286 l1.5977619588375092, -2.0335152745246887 2.905021905899048, -2.0335152745246887 m-11.620087623596191, 19.027893543243408 l-0.4357532784342766, 4.212281703948975 0.5810043588280678, 5.810043811798096 m3.9217793941497803, -6.536298990249634 l0.0, 9.00556743144989 -0.4357532784342766, 1.3072597980499268 " fill="none" stroke="black" stroke-width="1" /></svg>