<?xml version="1.0" encoding="utf-8" ?>
<svg baseProfile="full" height="69.4076967984438" version="1.1" width="76.96075371466577" xmlns="http://www.w3.org/2000/svg" xmlns:ev="http://www.w3.org/2001/xml-events" xmlns:xlink="http://www.w3.org/1999/xlink"><defs /><rect fill="white" height="69.4076967984438" width="76.96075371466577" x="0" y="0" /><path d="M49.59208591841161, 12.988810576498508 m-3.4860262274742126, -0.8715065568685532 l-4.502783715724945, 0.14525108970701694 -5.810043811798096, 1.1620087176561356 l-3.1955239176750183, 1.3072597980499268 -3.050273060798645, 1.7430131137371063 l-2.7597707509994507, 3.1955239176750183 -1.7430131137371063, 3.4860262274742126 l-0.8715065568685532, 3.4860262274742126 -0.14525108970701694, 4.212281703948975 l1.1620087176561356, 6.681550145149231 1.5977619588375092, 3.050273060798645 l2.905021905899048, 3.1955239176750183 3.1955239176750183, 1.7430131137371063 l2.178766429424286, 0.5810043588280678 4.212281703948975, 0.0 l8.86031687259674, -2.905021905899048 3.1955239176750183, -2.178766429424286 l3.4860262274742126, -4.212281703948975 1.5977619588375092, -4.067030549049377 l0.0, -2.6145195960998535 -0.726255476474762, -2.905021905899048 l-3.776528537273407, -6.972052454948425 -3.1955239176750183, -4.357532858848572 l-2.905021905899048, -2.905021905899048 2.0335152745246887, -2.178766429424286 l2.905021905899048, -2.0335152745246887 2.6145195960998535, -1.0167576372623444 l4.067030549049377, -0.14525108970701694 2.905021905899048, 0.5810043588280678 l1.0167576372623444, 1.7430131137371063 -1.5977619588375092, 4.357532858848572 l-2.905021905899048, 4.938537180423737 0.0, 1.5977619588375092 l4.067030549049377, 1.7430131137371063 7.698307633399963, 1.8882642686367035 l2.0335152745246887, 1.1620087176561356 1.1620087176561356, 1.7430131137371063 l0.14525108970701694, 3.1955239176750183 -1.7430131137371063, 5.08378803730011 l-2.905021905899048, 4.648034870624542 -1.452510952949524, 1.1620087176561356 l-1.7430131137371063, 2.6145195960998535 -1.1620087176561356, 0.0 l-2.0335152745246887, 3.050273060798645 -0.14525108970701694, 0.726255476474762 l4.648034870624542, 1.452510952949524 0.2905021794140339, 1.7430131137371063 l-1.452510952949524, 3.776528537273407 -4.357532858848572, 4.067030549049377 l-4.502783715724945, 2.178766429424286 -8.134061098098755, 2.905021905899048 l-2.905021905899048, 0.4357532784342766 -3.776528537273407, -0.2905021794140339 l-1.452510952949524, -0.5810043588280678 -1.5977619588375092, -1.5977619588375092 l-1.7430131137371063, -3.050273060798645 -4.648034870624542, -10.893832445144653 l-3.1955239176750183, -3.3407750725746155 -2.7597707509994507, -1.7430131137371063 l-1.452510952949524, -0.5810043588280678 -5.519541501998901, -0.14525108970701694 l-7.26255476474762, 1.7430131137371063 -2.0335152745246887, 0.0 l-1.7430131137371063, -0.5810043588280678 -1.1620087176561356, -1.5977619588375092 l-0.5810043588280678, -1.5977619588375092 -0.4357532784342766, -6.681550145149231 l0.5810043588280678, -6.536298990249634 1.8882642686367035, -7.8435587882995605 l2.324017435312271, -5.810043811798096 2.905021905899048, -3.3407750725746155 l2.6145195960998535, -1.452510952949524 4.793286025524139, -1.5977619588375092 l3.3407750725746155, -0.14525108970701694 4.357532858848572, 0.8715065568685532 l2.4692685902118683, 1.3072597980499268 4.357532858848572, 3.4860262274742126 l3.1955239176750183, 1.0167576372623444 3.3407750725746155, -1.0167576372623444 l3.776528537273407, -1.8882642686367035 3.3407750725746155, -2.6145195960998535 l5.08378803730011, -2.905021905899048 m-13.653602600097656, 26.435699462890625 l0.0, 0.0 m9.731823205947876, -1.5977619588375092 l0.0, 0.0 m-8.42456340789795, 4.067030549049377 l0.2905021794140339, 0.0 m0.8715065568685532, -1.1620087176561356 l-2.0335152745246887, 1.1620087176561356 " fill="none" stroke="black" stroke-width="1" /></svg>