<?xml version="1.0" encoding="utf-8" ?>
<svg baseProfile="full" height="69.69819884747267" version="1.1" width="60.40212869644165" xmlns="http://www.w3.org/2000/svg" xmlns:ev="http://www.w3.org/2001/xml-events" xmlns:xlink="http://www.w3.org/1999/xlink"><defs /><rect fill="white" height="69.69819884747267" width="60.40212869644165" x="0" y="0" /><path d="M29.40218393690884, 63.245687959715724 m-3.776528537273407, 1.3072597980499268 l-5.6647926568984985, 0.14525108970701694 -2.178766429424286, -0.726255476474762 l-3.050273060798645, -2.6145195960998535 -0.4357532784342766, -2.4692685902118683 l0.8715065568685532, -2.0335152745246887 2.178766429424286, -1.7430131137371063 l2.905021905899048, -1.452510952949524 -5.955294966697693, -3.1955239176750183 l-3.3407750725746155, -2.6145195960998535 -1.3072597980499268, -1.5977619588375092 l-0.4357532784342766, -1.0167576372623444 0.4357532784342766, -1.7430131137371063 l3.3407750725746155, -2.4692685902118683 3.050273060798645, -1.3072597980499268 l-2.4692685902118683, -0.14525108970701694 -3.776528537273407, -2.0335152745246887 l-2.0335152745246887, -1.5977619588375092 -1.1620087176561356, -3.050273060798645 l0.0, -2.178766429424286 0.8715065568685532, -1.5977619588375092 l3.4860262274742126, -3.4860262274742126 2.324017435312271, -0.4357532784342766 l-6.972052454948425, 0.14525108970701694 -1.1620087176561356, -1.0167576372623444 l-0.14525108970701694, -1.3072597980499268 1.5977619588375092, -3.776528537273407 l1.5977619588375092, -2.0335152745246887 3.3407750725746155, -3.63127738237381 l3.9217793941497803, -2.7597707509994507 2.4692685902118683, -1.0167576372623444 l5.374290347099304, -1.1620087176561356 0.2905021794140339, -1.1620087176561356 l1.0167576372623444, -0.8715065568685532 2.0335152745246887, -0.726255476474762 l4.502783715724945, -0.8715065568685532 4.648034870624542, 0.0 l3.4860262274742126, 1.3072597980499268 1.5977619588375092, 1.3072597980499268 l0.4357532784342766, 0.726255476474762 0.0, 1.7430131137371063 l6.10054612159729, 0.8715065568685532 2.324017435312271, 1.3072597980499268 l1.5977619588375092, 1.5977619588375092 0.2905021794140339, 1.8882642686367035 l-0.4357532784342766, 1.452510952949524 -5.6647926568984985, 5.519541501998901 l-1.452510952949524, 2.4692685902118683 4.357532858848572, 0.4357532784342766 l2.4692685902118683, 0.726255476474762 3.050273060798645, 2.178766429424286 l1.0167576372623444, 1.5977619588375092 0.4357532784342766, 1.7430131137371063 l-0.4357532784342766, 4.067030549049377 -2.905021905899048, 2.7597707509994507 l-2.7597707509994507, 0.8715065568685532 -1.7430131137371063, 1.452510952949524 l0.4357532784342766, 2.178766429424286 4.938537180423737, 3.9217793941497803 l1.0167576372623444, 1.3072597980499268 0.14525108970701694, 1.3072597980499268 l-0.8715065568685532, 3.1955239176750183 -1.5977619588375092, 0.8715065568685532 l-6.391047835350037, 0.726255476474762 -0.2905021794140339, 3.63127738237381 l-1.3072597980499268, 1.452510952949524 -2.7597707509994507, 1.5977619588375092 l-5.6647926568984985, 2.0335152745246887 -8.134061098098755, -0.14525108970701694 m3.4860262274742126, -20.480403900146484 l-3.776528537273407, -3.1955239176750183 -3.4860262274742126, -4.938537180423737 l-0.726255476474762, -2.905021905899048 -0.14525108970701694, -5.810043811798096 l1.0167576372623444, -2.6145195960998535 3.050273060798645, -2.0335152745246887 l4.357532858848572, -1.3072597980499268 2.905021905899048, 0.4357532784342766 l2.905021905899048, 4.067030549049377 1.1620087176561356, 3.050273060798645 l0.2905021794140339, 12.34634280204773 -1.0167576372623444, 1.8882642686367035 l-0.8715065568685532, 0.4357532784342766 -2.0335152745246887, 0.0 l-5.810043811798096, -1.1620087176561356 0.14525108970701694, -0.2905021794140339 m-1.1620087176561356, -13.363100290298462 l0.0, 0.0 m5.810043811798096, -1.3072597980499268 l0.4357532784342766, 1.8882642686367035 m-5.374290347099304, -2.6145195960998535 l0.0, 1.1620087176561356 m-4.067030549049377, 3.63127738237381 l1.3072597980499268, 1.7430131137371063 2.905021905899048, 1.8882642686367035 l3.776528537273407, 1.1620087176561356 0.726255476474762, 0.0 l0.726255476474762, -1.0167576372623444 " fill="none" stroke="black" stroke-width="1" /></svg>