<?xml version="1.0" encoding="utf-8" ?>
<svg baseProfile="full" height="56.480349730700254" version="1.1" width="52.268068166449666" xmlns="http://www.w3.org/2000/svg" xmlns:ev="http://www.w3.org/2001/xml-events" xmlns:xlink="http://www.w3.org/1999/xlink"><defs /><rect fill="white" height="56.480349730700254" width="52.268068166449666" x="0" y="0" /><path d="M6.452510952949524, 19.525109184905887 m-1.452510952949524, -0.726255476474762 l1.3072597980499268, -4.793286025524139 0.8715065568685532, -0.5810043588280678 l1.452510952949524, 2.178766429424286 1.3072597980499268, 0.726255476474762 l1.452510952949524, 0.0 5.6647926568984985, -7.553057074546814 l3.3407750725746155, -3.1955239176750183 0.726255476474762, 0.2905021794140339 l0.14525108970701694, 2.7597707509994507 2.178766429424286, 3.050273060798645 l1.5977619588375092, -1.5977619588375092 3.050273060798645, -4.938537180423737 l0.726255476474762, -0.14525108970701694 0.8715065568685532, 4.648034870624542 l0.726255476474762, 0.8715065568685532 1.0167576372623444, 0.2905021794140339 l2.6145195960998535, -2.905021905899048 1.8882642686367035, -1.0167576372623444 l0.5810043588280678, 4.793286025524139 1.1620087176561356, 3.1955239176750183 l1.8882642686367035, 0.726255476474762 1.452510952949524, -1.5977619588375092 l1.452510952949524, -0.2905021794140339 0.726255476474762, 2.0335152745246887 l0.726255476474762, 14.234607219696045 0.5810043588280678, 1.1620087176561356 l2.178766429424286, 0.4357532784342766 0.5810043588280678, 0.726255476474762 l-1.3072597980499268, 11.474835872650146 -0.5810043588280678, 1.1620087176561356 l-1.8882642686367035, -4.648034870624542 -1.3072597980499268, -0.8715065568685532 l-1.8882642686367035, 5.810043811798096 -1.7430131137371063, 3.63127738237381 l-1.452510952949524, -8.715065717697144 -2.178766429424286, 0.2905021794140339 l-6.2457966804504395, 9.877074360847473 -0.8715065568685532, 0.726255476474762 l-0.8715065568685532, -1.1620087176561356 -0.2905021794140339, -6.536298990249634 l-1.1620087176561356, -3.4860262274742126 -0.8715065568685532, -0.14525108970701694 l-1.452510952949524, 1.1620087176561356 -3.1955239176750183, 7.407805919647217 l-1.8882642686367035, 3.050273060798645 -0.726255476474762, 0.14525108970701694 l-2.7597707509994507, -4.067030549049377 -3.1955239176750183, -8.42456340789795 l-0.4357532784342766, 1.5977619588375092 0.0, 3.63127738237381 l-4.357532858848572, -15.396615266799927 -0.8715065568685532, -8.134061098098755 m14.234607219696045, 4.793286025524139 l-1.8882642686367035, 0.4357532784342766 -2.4692685902118683, 2.178766429424286 l-1.452510952949524, 2.0335152745246887 -0.5810043588280678, 2.324017435312271 l3.3407750725746155, 0.726255476474762 6.972052454948425, 0.14525108970701694 m-9.586572051048279, -3.3407750725746155 l-0.14525108970701694, 1.7430131137371063 0.4357532784342766, 0.726255476474762 l0.14525108970701694, -2.4692685902118683 -0.2905021794140339, 1.3072597980499268 m5.6647926568984985, -16.994377374649048 l-0.5810043588280678, 0.8715065568685532 -0.5810043588280678, 3.63127738237381 m14.379857778549194, -4.502783715724945 l-0.726255476474762, 4.938537180423737 " fill="none" stroke="black" stroke-width="1" /></svg>