<?xml version="1.0" encoding="utf-8" ?>
<svg baseProfile="full" height="77.83225979655981" version="1.1" width="79.72052405588329" xmlns="http://www.w3.org/2000/svg" xmlns:ev="http://www.w3.org/2001/xml-events" xmlns:xlink="http://www.w3.org/1999/xlink"><defs /><rect fill="white" height="77.83225979655981" width="79.72052405588329" x="0" y="0" /><path d="M34.631222588941455, 24.754148926585913 m-2.905021905899048, 0.0 l-2.0335152745246887, 0.5810043588280678 -3.3407750725746155, 2.4692685902118683 l-1.5977619588375092, 2.7597707509994507 0.0, 4.212281703948975 l3.9217793941497803, 6.681550145149231 1.452510952949524, 1.3072597980499268 l3.63127738237381, 1.5977619588375092 1.3072597980499268, 1.1620087176561356 l0.0, 4.357532858848572 0.8715065568685532, 2.324017435312271 l2.0335152745246887, 1.1620087176561356 3.63127738237381, 0.726255476474762 l2.4692685902118683, -0.4357532784342766 2.324017435312271, -2.0335152745246887 l0.4357532784342766, -2.7597707509994507 -0.726255476474762, -3.63127738237381 l5.08378803730011, -0.14525108970701694 2.905021905899048, -2.178766429424286 l1.7430131137371063, -2.4692685902118683 2.0335152745246887, -5.955294966697693 l0.4357532784342766, -5.6647926568984985 -2.178766429424286, -4.212281703948975 l-4.357532858848572, -1.7430131137371063 -4.938537180423737, -0.8715065568685532 l-4.648034870624542, -0.4357532784342766 -4.502783715724945, 0.14525108970701694 l-2.0335152745246887, 1.452510952949524 -0.726255476474762, 1.5977619588375092 m0.0, 5.6647926568984985 l-0.726255476474762, 2.6145195960998535 -0.14525108970701694, 2.905021905899048 l0.14525108970701694, 1.0167576372623444 1.0167576372623444, 1.1620087176561356 l0.726255476474762, 0.0 1.0167576372623444, -0.726255476474762 l1.1620087176561356, -2.0335152745246887 0.5810043588280678, -2.324017435312271 l-0.14525108970701694, -2.0335152745246887 -1.5977619588375092, -2.324017435312271 l-0.5810043588280678, 0.0 -1.1620087176561356, 1.3072597980499268 l-0.2905021794140339, 3.1955239176750183 1.1620087176561356, 2.6145195960998535 l0.4357532784342766, -2.905021905899048 0.0, 2.7597707509994507 m13.363100290298462, -4.793286025524139 l0.0, 2.7597707509994507 1.1620087176561356, 0.5810043588280678 l0.726255476474762, -0.2905021794140339 0.5810043588280678, -0.2905021794140339 l0.0, -1.0167576372623444 -1.0167576372623444, -0.8715065568685532 l-1.452510952949524, 0.726255476474762 -0.2905021794140339, 3.050273060798645 l0.14525108970701694, 0.5810043588280678 0.726255476474762, -0.4357532784342766 l0.14525108970701694, -2.324017435312271 -0.726255476474762, -1.5977619588375092 l-2.6145195960998535, 1.452510952949524 m-12.20109224319458, 12.34634280204773 l-2.7597707509994507, 5.229039192199707 -0.5810043588280678, 3.1955239176750183 l1.1620087176561356, 1.0167576372623444 2.324017435312271, 0.0 l0.5810043588280678, 0.2905021794140339 1.8882642686367035, -2.0335152745246887 l0.8715065568685532, 0.4357532784342766 m7.26255476474762, -2.4692685902118683 l2.178766429424286, 3.3407750725746155 0.726255476474762, -4.067030549049377 l-0.2905021794140339, -2.0335152745246887 -1.0167576372623444, -2.178766429424286 m-5.08378803730011, -31.95523977279663 l-3.63127738237381, -5.519541501998901 -5.08378803730011, -3.776528537273407 l0.5810043588280678, 6.2457966804504395 -3.3407750725746155, 0.0 l-9.441320896148682, -2.178766429424286 -1.0167576372623444, 0.2905021794140339 l0.0, 1.1620087176561356 1.7430131137371063, 4.648034870624542 l2.178766429424286, 3.9217793941497803 -3.1955239176750183, -1.3072597980499268 l-2.7597707509994507, -0.2905021794140339 -4.793286025524139, -0.14525108970701694 l-1.1620087176561356, 0.726255476474762 1.0167576372623444, 4.212281703948975 l2.6145195960998535, 2.905021905899048 1.7430131137371063, 1.1620087176561356 l-0.2905021794140339, 1.452510952949524 -7.988809943199158, 10.458078384399414 l-2.905021905899048, 5.08378803730011 0.0, 2.0335152745246887 l2.4692685902118683, -0.726255476474762 -2.905021905899048, 10.02232551574707 l-1.1620087176561356, 6.681550145149231 0.14525108970701694, 2.7597707509994507 l1.452510952949524, 0.0 6.681550145149231, -2.7597707509994507 l2.0335152745246887, 0.14525108970701694 2.7597707509994507, 10.893832445144653 l0.8715065568685532, 0.4357532784342766 1.8882642686367035, 0.0 l4.648034870624542, -2.6145195960998535 4.648034870624542, -4.502783715724945 l0.8715065568685532, 0.2905021794140339 1.1620087176561356, 4.357532858848572 l1.1620087176561356, 1.5977619588375092 3.1955239176750183, -1.1620087176561356 l2.4692685902118683, -1.8882642686367035 6.10054612159729, -6.826801300048828 l3.1955239176750183, 6.391047835350037 2.6145195960998535, 1.5977619588375092 l1.3072597980499268, -0.14525108970701694 4.357532858848572, -4.212281703948975 l2.0335152745246887, -2.7597707509994507 1.8882642686367035, -4.502783715724945 l2.4692685902118683, 1.1620087176561356 0.8715065568685532, -0.2905021794140339 l2.324017435312271, -3.776528537273407 0.726255476474762, -4.212281703948975 l-0.2905021794140339, -4.067030549049377 2.7597707509994507, 0.0 l1.0167576372623444, -0.5810043588280678 1.1620087176561356, -1.452510952949524 l1.0167576372623444, -4.793286025524139 0.0, -1.7430131137371063 l-0.4357532784342766, -1.452510952949524 -3.050273060798645, -2.324017435312271 l2.7597707509994507, -1.8882642686367035 1.452510952949524, -1.8882642686367035 l1.452510952949524, -3.9217793941497803 " fill="none" stroke="black" stroke-width="1" /></svg>