<?xml version="1.0" encoding="utf-8" ?>
<svg baseProfile="full" height="76.0892472974956" version="1.1" width="80.44677935540676" xmlns="http://www.w3.org/2000/svg" xmlns:ev="http://www.w3.org/2001/xml-events" xmlns:xlink="http://www.w3.org/1999/xlink"><defs /><rect fill="white" height="76.0892472974956" width="80.44677935540676" x="0" y="0" /><path d="M35.50272866152227, 15.458079390227795 m-1.5977619588375092, 0.0 l-2.6145195960998535, 1.3072597980499268 -2.7597707509994507, 2.6145195960998535 l-1.7430131137371063, 4.212281703948975 -0.5810043588280678, 5.229039192199707 l0.14525108970701694, 6.391047835350037 1.3072597980499268, 4.212281703948975 l2.178766429424286, 4.793286025524139 3.1955239176750183, 5.374290347099304 l2.4692685902118683, 3.1955239176750183 2.7597707509994507, 2.6145195960998535 l1.5977619588375092, 0.8715065568685532 3.776528537273407, 0.8715065568685532 l6.536298990249634, 0.0 2.178766429424286, -0.4357532784342766 l2.6145195960998535, -0.726255476474762 5.6647926568984985, -3.1955239176750183 l1.0167576372623444, -2.178766429424286 0.4357532784342766, -5.519541501998901 l-0.2905021794140339, -6.681550145149231 -3.1955239176750183, -7.988809943199158 l-2.6145195960998535, -3.3407750725746155 -2.7597707509994507, -1.5977619588375092 l-14.379857778549194, -0.5810043588280678 -9.00556743144989, -1.5977619588375092 m3.9217793941497803, 8.715065717697144 l5.955294966697693, 0.8715065568685532 m8.279312252998352, 0.8715065568685532 l0.0, 0.0 m-13.508352041244507, 7.698307633399963 l0.726255476474762, 0.4357532784342766 1.8882642686367035, 2.905021905899048 l1.452510952949524, 1.0167576372623444 4.212281703948975, 1.0167576372623444 l3.3407750725746155, 0.0 0.4357532784342766, -0.4357532784342766 m-9.877074360847473, -25.854694843292236 l0.726255476474762, -0.8715065568685532 5.955294966697693, -14.234607219696045 l0.726255476474762, 1.7430131137371063 1.1620087176561356, 6.972052454948425 l0.8715065568685532, 2.178766429424286 0.726255476474762, 0.4357532784342766 l4.067030549049377, -3.63127738237381 6.2457966804504395, -8.134061098098755 l0.2905021794140339, 7.26255476474762 0.726255476474762, 4.793286025524139 l0.8715065568685532, 2.6145195960998535 2.324017435312271, -1.0167576372623444 l5.955294966697693, -4.793286025524139 0.4357532784342766, 0.726255476474762 l0.0, 16.8491268157959 0.2905021794140339, 0.726255476474762 l4.067030549049377, -1.3072597980499268 0.8715065568685532, 0.5810043588280678 l0.0, 4.793286025524139 -1.0167576372623444, 4.357532858848572 l0.14525108970701694, 0.726255476474762 2.6145195960998535, 2.0335152745246887 l0.14525108970701694, 0.8715065568685532 0.0, 4.067030549049377 l-2.178766429424286, 5.519541501998901 2.324017435312271, 1.8882642686367035 l0.4357532784342766, 0.8715065568685532 0.0, 2.4692685902118683 l-2.0335152745246887, 2.0335152745246887 -5.229039192199707, 2.7597707509994507 l-5.519541501998901, 0.8715065568685532 2.324017435312271, 0.2905021794140339 l0.0, 2.324017435312271 -6.681550145149231, 2.324017435312271 l-2.4692685902118683, 1.452510952949524 0.14525108970701694, -2.324017435312271 l-1.452510952949524, 1.452510952949524 -0.726255476474762, 0.14525108970701694 l-0.5810043588280678, -0.726255476474762 -1.5977619588375092, -5.374290347099304 l-0.726255476474762, -0.5810043588280678 -2.4692685902118683, 3.050273060798645 l-2.4692685902118683, 0.726255476474762 -0.2905021794140339, -3.3407750725746155 l-6.826801300048828, 1.8882642686367035 -3.1955239176750183, 0.14525108970701694 l0.0, -3.3407750725746155 -12.055840492248535, -1.1620087176561356 l-1.8882642686367035, -0.5810043588280678 0.726255476474762, -1.7430131137371063 l3.1955239176750183, -2.0335152745246887 2.0335152745246887, -0.726255476474762 l-1.452510952949524, -0.4357532784342766 -0.14525108970701694, -3.3407750725746155 l-1.8882642686367035, -1.3072597980499268 -11.76533818244934, -3.050273060798645 l-7.1173036098480225, -2.7597707509994507 -0.2905021794140339, -0.726255476474762 l0.726255476474762, -0.5810043588280678 6.536298990249634, -3.3407750725746155 l3.050273060798645, -2.7597707509994507 0.2905021794140339, -0.726255476474762 l-0.8715065568685532, -0.5810043588280678 -3.1955239176750183, 0.0 l-0.4357532784342766, -1.8882642686367035 0.5810043588280678, -1.452510952949524 l7.988809943199158, -6.391047835350037 7.26255476474762, -3.9217793941497803 l-2.4692685902118683, -7.698307633399963 0.0, -6.972052454948425 l1.452510952949524, 5.08378803730011 0.726255476474762, 0.0 l1.8882642686367035, -4.067030549049377 " fill="none" stroke="black" stroke-width="1" /></svg>