<?xml version="1.0" encoding="utf-8" ?>
<svg baseProfile="full" height="59.38537140376866" version="1.1" width="74.49148492887616" xmlns="http://www.w3.org/2000/svg" xmlns:ev="http://www.w3.org/2001/xml-events" xmlns:xlink="http://www.w3.org/1999/xlink"><defs /><rect fill="white" height="59.38537140376866" width="74.49148492887616" x="0" y="0" /><path d="M51.91610365174711, 9.067031480371952 m-1.5977619588375092, 0.0 l-2.324017435312271, 0.726255476474762 -3.1955239176750183, 1.5977619588375092 l-10.312827825546265, 6.681550145149231 -4.793286025524139, 3.776528537273407 l-3.050273060798645, 3.4860262274742126 -1.0167576372623444, 1.8882642686367035 l-0.5810043588280678, 2.7597707509994507 0.0, 5.229039192199707 l1.0167576372623444, 0.8715065568685532 12.491593360900879, 3.1955239176750183 l5.229039192199707, 0.2905021794140339 3.3407750725746155, -1.452510952949524 l3.4860262274742126, -2.905021905899048 2.905021905899048, -4.357532858848572 l1.7430131137371063, -4.212281703948975 0.4357532784342766, -3.4860262274742126 l0.0, -7.407805919647217 -0.5810043588280678, -1.7430131137371063 l-2.6145195960998535, -3.63127738237381 -0.8715065568685532, -0.5810043588280678 l-2.6145195960998535, -0.2905021794140339 m-17.139629125595093, 9.150818586349487 l-1.1620087176561356, -2.6145195960998535 -2.0335152745246887, -7.26255476474762 l-1.452510952949524, -2.6145195960998535 -1.7430131137371063, -1.1620087176561356 l-1.7430131137371063, 3.4860262274742126 -5.519541501998901, 8.569814562797546 l-1.3072597980499268, 5.229039192199707 -0.14525108970701694, 2.905021905899048 l0.5810043588280678, -0.8715065568685532 0.0, -1.452510952949524 l-1.3072597980499268, -1.452510952949524 -1.7430131137371063, -0.4357532784342766 l-1.5977619588375092, 0.4357532784342766 -0.726255476474762, 3.3407750725746155 l0.2905021794140339, 5.519541501998901 -2.7597707509994507, 1.0167576372623444 l-3.4860262274742126, 3.050273060798645 -0.5810043588280678, 1.1620087176561356 l-0.4357532784342766, 1.452510952949524 0.2905021794140339, 2.905021905899048 l0.8715065568685532, 0.5810043588280678 1.7430131137371063, 0.14525108970701694 l-0.8715065568685532, 1.0167576372623444 -0.2905021794140339, 1.5977619588375092 l0.0, 3.63127738237381 0.4357532784342766, 0.8715065568685532 l2.0335152745246887, 1.7430131137371063 2.178766429424286, 0.4357532784342766 l3.050273060798645, 0.0 0.8715065568685532, -0.5810043588280678 l0.14525108970701694, -0.726255476474762 -0.5810043588280678, 1.1620087176561356 l0.4357532784342766, 3.1955239176750183 2.7597707509994507, 1.452510952949524 l3.3407750725746155, 0.0 2.324017435312271, -1.1620087176561356 l2.4692685902118683, -2.7597707509994507 0.726255476474762, -3.050273060798645 l0.0, 3.050273060798645 1.452510952949524, 2.178766429424286 l1.3072597980499268, 0.4357532784342766 3.050273060798645, 0.0 l1.0167576372623444, -0.2905021794140339 2.6145195960998535, -2.6145195960998535 l1.1620087176561356, -2.324017435312271 0.2905021794140339, -3.4860262274742126 l0.14525108970701694, 2.6145195960998535 0.8715065568685532, 1.5977619588375092 l1.7430131137371063, 0.8715065568685532 3.1955239176750183, 0.0 l5.6647926568984985, -1.7430131137371063 6.391047835350037, -4.067030549049377 l3.776528537273407, -3.63127738237381 1.5977619588375092, -2.4692685902118683 l1.3072597980499268, -3.050273060798645 0.14525108970701694, -3.050273060798645 l1.0167576372623444, 2.4692685902118683 2.4692685902118683, 0.14525108970701694 l2.4692685902118683, -2.324017435312271 0.726255476474762, -1.8882642686367035 l0.14525108970701694, -2.905021905899048 -5.519541501998901, -6.681550145149231 l-2.324017435312271, -0.726255476474762 -3.3407750725746155, 0.2905021794140339 m-16.413373947143555, -0.14525108970701694 l-2.178766429424286, 1.3072597980499268 -0.2905021794140339, 0.726255476474762 l0.8715065568685532, 0.0 0.8715065568685532, -0.14525108970701694 l0.5810043588280678, -0.726255476474762 0.0, -0.8715065568685532 l-1.0167576372623444, -0.4357532784342766 -1.8882642686367035, 0.2905021794140339 l-0.14525108970701694, 1.7430131137371063 0.4357532784342766, 0.2905021794140339 m9.731823205947876, -3.63127738237381 l-1.0167576372623444, 0.14525108970701694 -0.2905021794140339, 0.726255476474762 l-0.14525108970701694, 0.8715065568685532 1.0167576372623444, 0.14525108970701694 l0.2905021794140339, -0.726255476474762 -0.8715065568685532, -0.5810043588280678 l-0.4357532784342766, 0.8715065568685532 " fill="none" stroke="black" stroke-width="1" /></svg>