<?xml version="1.0" encoding="utf-8" ?>
<svg baseProfile="full" height="53.430076241493225" version="1.1" width="119.66457488946617" xmlns="http://www.w3.org/2000/svg" xmlns:ev="http://www.w3.org/2001/xml-events" xmlns:xlink="http://www.w3.org/1999/xlink"><defs /><rect fill="white" height="53.430076241493225" width="119.66457488946617" x="0" y="0" /><path d="M29.547435250133276, 12.407804504036903 m-4.212281703948975, 0.0 l-4.067030549049377, 1.1620087176561356 -3.776528537273407, 3.776528537273407 l-2.0335152745246887, 4.357532858848572 0.0, 8.569814562797546 l1.5977619588375092, 4.212281703948975 2.905021905899048, 3.4860262274742126 l4.212281703948975, 0.726255476474762 6.972052454948425, -0.14525108970701694 l2.7597707509994507, -0.8715065568685532 1.452510952949524, -1.5977619588375092 l0.4357532784342766, -1.1620087176561356 0.0, -7.1173036098480225 l-1.452510952949524, -4.648034870624542 -4.357532858848572, -9.731823205947876 l-2.0335152745246887, -1.8882642686367035 m-4.357532858848572, -4.067030549049377 l-13.508352041244507, 0.5810043588280678 -1.5977619588375092, 0.4357532784342766 l-1.3072597980499268, 1.3072597980499268 -1.8882642686367035, 4.357532858848572 l-0.2905021794140339, 2.6145195960998535 0.4357532784342766, 3.63127738237381 l2.324017435312271, 3.776528537273407 0.2905021794140339, 1.452510952949524 l0.0, 3.63127738237381 -2.0335152745246887, 4.212281703948975 l0.0, 6.972052454948425 1.452510952949524, 3.4860262274742126 l1.452510952949524, 1.7430131137371063 3.4860262274742126, 1.8882642686367035 l7.1173036098480225, 0.14525108970701694 5.229039192199707, -2.178766429424286 l7.553057074546814, 2.905021905899048 4.357532858848572, 0.0 l1.0167576372623444, -0.5810043588280678 4.212281703948975, -3.050273060798645 l3.776528537273407, -3.63127738237381 2.0335152745246887, -4.793286025524139 l-0.14525108970701694, -6.536298990249634 -2.178766429424286, -4.502783715724945 l-3.4860262274742126, -3.1955239176750183 -1.7430131137371063, -7.8435587882995605 l-2.178766429424286, -3.776528537273407 -1.452510952949524, -1.5977619588375092 l-5.6647926568984985, -3.4860262274742126 -3.3407750725746155, -0.4357532784342766 l-0.8715065568685532, 0.14525108970701694 -0.4357532784342766, 0.5810043588280678 m-2.905021905899048, 17.575381994247437 l-0.4357532784342766, 0.14525108970701694 m0.0, 0.0 l0.0, 0.0 m7.1173036098480225, -1.0167576372623444 l0.0, 0.0 m0.0, 0.14525108970701694 l-0.2905021794140339, 0.0 m-0.14525108970701694, 0.0 l-0.14525108970701694, 0.0 m-3.1955239176750183, 6.536298990249634 l-5.810043811798096, 0.0 -1.1620087176561356, 1.8882642686367035 l0.0, 2.324017435312271 0.2905021794140339, 1.1620087176561356 l0.726255476474762, 0.726255476474762 2.324017435312271, 1.1620087176561356 l4.793286025524139, -0.2905021794140339 m-6.972052454948425, -2.7597707509994507 l2.324017435312271, 0.0 2.7597707509994507, -0.8715065568685532 m21.206660270690918, -2.7597707509994507 l-0.8715065568685532, -0.5810043588280678 m-0.726255476474762, -2.7597707509994507 l10.02232551574707, -2.905021905899048 9.00556743144989, -1.452510952949524 l6.972052454948425, -0.726255476474762 22.51391887664795, 0.0 l6.536298990249634, 1.3072597980499268 9.00556743144989, 3.9217793941497803 l3.050273060798645, 2.0335152745246887 2.4692685902118683, 2.4692685902118683 " fill="none" stroke="black" stroke-width="1" /></svg>