<?xml version="1.0" encoding="utf-8" ?>
<svg baseProfile="full" height="94.68138597905636" version="1.1" width="117.34055754728615" xmlns="http://www.w3.org/2000/svg" xmlns:ev="http://www.w3.org/2001/xml-events" xmlns:xlink="http://www.w3.org/1999/xlink"><defs /><rect fill="white" height="94.68138597905636" width="117.34055754728615" x="0" y="0" /><path d="M44.217797350138426, 32.88821036927402 m-1.8882642686367035, -1.7430131137371063 l-2.4692685902118683, -1.0167576372623444 -5.519541501998901, -1.3072597980499268 l-3.9217793941497803, -0.2905021794140339 -2.178766429424286, 0.0 l-1.5977619588375092, 0.5810043588280678 -3.63127738237381, 2.905021905899048 l-0.8715065568685532, 2.905021905899048 0.2905021794140339, 3.1955239176750183 l0.4357532784342766, 0.726255476474762 2.324017435312271, 2.6145195960998535 l7.988809943199158, 5.6647926568984985 m13.798853158950806, -14.960862398147583 l0.8715065568685532, 0.4357532784342766 5.08378803730011, -0.8715065568685532 l8.86031687259674, 0.0 8.134061098098755, 2.7597707509994507 l6.10054612159729, 3.9217793941497803 3.9217793941497803, -4.648034870624542 l5.519541501998901, -4.793286025524139 3.63127738237381, -1.7430131137371063 l2.6145195960998535, -0.4357532784342766 0.4357532784342766, 0.8715065568685532 l1.452510952949524, 11.329585313796997 -0.4357532784342766, 7.698307633399963 l-1.5977619588375092, 2.7597707509994507 0.8715065568685532, 2.7597707509994507 l0.2905021794140339, 3.1955239176750183 0.0, 4.793286025524139 l-0.8715065568685532, 2.324017435312271 -8.715065717697144, 8.279312252998352 l-1.7430131137371063, 1.1620087176561356 -5.229039192199707, 2.0335152745246887 l-17.86588430404663, 1.5977619588375092 -3.9217793941497803, 0.0 l-6.826801300048828, -1.1620087176561356 -2.905021905899048, -1.1620087176561356 l-2.324017435312271, -1.5977619588375092 -2.7597707509994507, -3.4860262274742126 l-2.324017435312271, -4.067030549049377 -2.4692685902118683, -6.2457966804504395 l-0.4357532784342766, -6.10054612159729 0.726255476474762, -2.0335152745246887 l2.905021905899048, -3.4860262274742126 m15.832369327545166, -2.4692685902118683 l1.0167576372623444, 0.2905021794140339 0.5810043588280678, 1.7430131137371063 l-1.0167576372623444, 3.63127738237381 -2.324017435312271, 0.5810043588280678 l-1.8882642686367035, -0.14525108970701694 -1.452510952949524, -0.726255476474762 l-1.8882642686367035, -5.6647926568984985 2.0335152745246887, -0.5810043588280678 l1.5977619588375092, 0.2905021794140339 2.0335152745246887, 6.2457966804504395 l-1.7430131137371063, 0.726255476474762 -2.0335152745246887, -2.0335152745246887 l0.2905021794140339, -2.178766429424286 2.905021905899048, -0.8715065568685532 l0.5810043588280678, 1.1620087176561356 m19.318394660949707, 0.14525108970701694 l3.776528537273407, 1.0167576372623444 1.1620087176561356, 1.0167576372623444 l0.5810043588280678, 1.3072597980499268 -2.7597707509994507, 3.050273060798645 l-1.7430131137371063, -0.4357532784342766 -1.452510952949524, -1.3072597980499268 l-0.8715065568685532, -5.955294966697693 2.4692685902118683, -0.726255476474762 l3.9217793941497803, 2.178766429424286 -0.4357532784342766, 1.1620087176561356 l-5.810043811798096, 0.2905021794140339 m-14.379857778549194, 10.312827825546265 l-15.541867017745972, -4.502783715724945 -1.7430131137371063, 0.2905021794140339 m14.08935546875, 8.279312252998352 l-6.972052454948425, 0.14525108970701694 -5.08378803730011, 1.3072597980499268 l-0.726255476474762, 0.5810043588280678 m11.76533818244934, 2.0335152745246887 l-5.955294966697693, 4.938537180423737 m30.35747766494751, -12.636845111846924 l9.731823205947876, -2.4692685902118683 m-13.798853158950806, 7.407805919647217 l4.793286025524139, -0.2905021794140339 6.972052454948425, 3.1955239176750183 l1.7430131137371063, 1.5977619588375092 m-11.039083003997803, 1.5977619588375092 l5.519541501998901, 2.324017435312271 4.067030549049377, 3.4860262274742126 m-18.156386613845825, -67.3965072631836 l-0.5810043588280678, -1.3072597980499268 -2.178766429424286, -0.5810043588280678 l-16.8491268157959, -1.3072597980499268 -3.776528537273407, 0.5810043588280678 l-5.519541501998901, 7.407805919647217 4.212281703948975, 10.02232551574707 l-22.80442237854004, -0.726255476474762 -12.782095670700073, 6.2457966804504395 l-1.0167576372623444, 2.4692685902118683 2.7597707509994507, 12.782095670700073 l7.553057074546814, 11.039083003997803 0.14525108970701694, 1.0167576372623444 l-2.6145195960998535, 3.3407750725746155 -0.4357532784342766, 1.1620087176561356 l2.0335152745246887, 9.441320896148682 1.5977619588375092, 2.324017435312271 l7.988809943199158, 6.972052454948425 5.6647926568984985, 0.4357532784342766 l11.329585313796997, -3.050273060798645 3.63127738237381, 6.681550145149231 l1.7430131137371063, 1.8882642686367035 18.882641792297363, 4.648034870624542 l7.553057074546814, -1.452510952949524 9.441320896148682, -0.5810043588280678 l3.4860262274742126, 0.5810043588280678 2.905021905899048, -0.726255476474762 l13.363100290298462, -8.42456340789795 1.5977619588375092, -4.793286025524139 l-1.1620087176561356, -8.134061098098755 7.407805919647217, -1.3072597980499268 l1.1620087176561356, -1.8882642686367035 1.3072597980499268, -6.536298990249634 l0.0, -3.776528537273407 -11.039083003997803, -16.703875064849854 l-0.726255476474762, 0.0 2.6145195960998535, -5.519541501998901 l0.8715065568685532, -8.134061098098755 -10.603330135345459, -8.42456340789795 l-3.9217793941497803, 0.4357532784342766 -3.3407750725746155, 1.1620087176561356 l-6.681550145149231, 5.374290347099304 0.726255476474762, -1.5977619588375092 l-2.7597707509994507, -12.34634280204773 -1.8882642686367035, -1.5977619588375092 l-10.458078384399414, 2.324017435312271 -1.452510952949524, 2.0335152745246887 " fill="none" stroke="black" stroke-width="1" /></svg>