<?xml version="1.0" encoding="utf-8" ?>
<svg baseProfile="full" height="68.1004368700087" version="1.1" width="97.87691060453653" xmlns="http://www.w3.org/2000/svg" xmlns:ev="http://www.w3.org/2001/xml-events" xmlns:xlink="http://www.w3.org/1999/xlink"><defs /><rect fill="white" height="68.1004368700087" width="97.87691060453653" x="0" y="0" /><path d="M37.24574220366776, 14.00556743144989 m-1.1620087176561356, -9.00556743144989 l0.8715065568685532, 0.0 2.0335152745246887, 1.452510952949524 l3.1955239176750183, 3.3407750725746155 2.0335152745246887, 0.4357532784342766 l3.050273060798645, -0.5810043588280678 6.826801300048828, -3.3407750725746155 l0.14525108970701694, 2.0335152745246887 -1.1620087176561356, 3.4860262274742126 l2.178766429424286, 0.4357532784342766 17.284879684448242, -1.3072597980499268 l5.519541501998901, 0.0 2.0335152745246887, 0.5810043588280678 l0.2905021794140339, 1.5977619588375092 -1.8882642686367035, 3.1955239176750183 l-4.502783715724945, 4.357532858848572 14.52510952949524, -0.14525108970701694 l1.5977619588375092, 0.4357532784342766 2.178766429424286, 1.452510952949524 l0.5810043588280678, 1.5977619588375092 0.0, 0.8715065568685532 l-1.0167576372623444, 1.3072597980499268 -1.3072597980499268, 0.5810043588280678 l-17.86588430404663, 5.374290347099304 8.569814562797546, 3.3407750725746155 l4.212281703948975, 3.9217793941497803 0.726255476474762, 3.050273060798645 l-0.5810043588280678, 1.1620087176561356 -2.324017435312271, 2.324017435312271 l-3.776528537273407, 2.4692685902118683 2.4692685902118683, 1.452510952949524 l0.4357532784342766, 0.726255476474762 -1.8882642686367035, 1.8882642686367035 l-3.050273060798645, 1.7430131137371063 -10.02232551574707, 3.63127738237381 l2.0335152745246887, 0.2905021794140339 -3.776528537273407, 0.14525108970701694 l-18.737391233444214, 4.793286025524139 -1.0167576372623444, -1.3072597980499268 l-6.2457966804504395, -0.8715065568685532 -29.340720176696777, -0.2905021794140339 l-0.5810043588280678, -0.8715065568685532 0.2905021794140339, -0.8715065568685532 l2.324017435312271, -1.7430131137371063 8.134061098098755, -2.7597707509994507 l-15.106114149093628, -1.8882642686367035 0.2905021794140339, -1.452510952949524 l2.7597707509994507, -2.7597707509994507 8.279312252998352, -5.810043811798096 l6.10054612159729, -2.905021905899048 -0.726255476474762, -0.5810043588280678 l-6.2457966804504395, -0.8715065568685532 -10.458078384399414, -2.7597707509994507 l-0.4357532784342766, -0.8715065568685532 0.4357532784342766, -0.8715065568685532 l2.4692685902118683, -2.4692685902118683 12.34634280204773, -6.972052454948425 l-9.441320896148682, -0.5810043588280678 -1.0167576372623444, -0.2905021794140339 l0.14525108970701694, -0.726255476474762 3.63127738237381, -2.6145195960998535 l8.134061098098755, -4.212281703948975 1.8882642686367035, 0.2905021794140339 l2.0335152745246887, 2.324017435312271 0.5810043588280678, -0.726255476474762 l-0.8715065568685532, -1.452510952949524 -5.6647926568984985, -3.9217793941497803 l1.1620087176561356, -0.5810043588280678 4.212281703948975, -1.3072597980499268 l4.938537180423737, -0.8715065568685532 2.905021905899048, 1.1620087176561356 l2.178766429424286, 1.452510952949524 0.2905021794140339, 0.726255476474762 l1.1620087176561356, 0.2905021794140339 m15.977619886398315, 8.279312252998352 l-5.519541501998901, 0.2905021794140339 -3.9217793941497803, 1.452510952949524 l-3.3407750725746155, 1.8882642686367035 -1.7430131137371063, 4.502783715724945 l-0.5810043588280678, 4.212281703948975 0.14525108970701694, 5.519541501998901 l0.5810043588280678, 2.4692685902118683 1.8882642686367035, 3.3407750725746155 l1.5977619588375092, 1.452510952949524 3.1955239176750183, 1.7430131137371063 l2.7597707509994507, 0.8715065568685532 2.905021905899048, 0.2905021794140339 l3.4860262274742126, 0.0 2.905021905899048, -0.5810043588280678 l3.1955239176750183, -2.0335152745246887 3.9217793941497803, -6.536298990249634 l1.0167576372623444, -3.4860262274742126 0.14525108970701694, -2.905021905899048 l-1.452510952949524, -4.938537180423737 -0.8715065568685532, -2.6145195960998535 l-1.7430131137371063, -2.324017435312271 -3.050273060798645, -1.8882642686367035 l-1.5977619588375092, -0.5810043588280678 -5.374290347099304, 0.0 l-2.7597707509994507, 0.8715065568685532 m-3.1955239176750183, 19.173144102096558 l8.86031687259674, 0.5810043588280678 m-9.150818586349487, -0.8715065568685532 l0.14525108970701694, 1.452510952949524 1.452510952949524, 0.8715065568685532 l3.1955239176750183, -1.7430131137371063 m0.0, 0.0 l0.0, 0.726255476474762 1.8882642686367035, 3.4860262274742126 l2.178766429424286, -4.212281703948975 m-7.8435587882995605, -12.927347421646118 l0.8715065568685532, 0.14525108970701694 0.726255476474762, -0.4357532784342766 l-2.178766429424286, 0.0 " fill="none" stroke="black" stroke-width="1" /></svg>