<?xml version="1.0" encoding="utf-8" ?>
<svg baseProfile="full" height="92.35737087205052" version="1.1" width="93.80987991578877" xmlns="http://www.w3.org/2000/svg" xmlns:ev="http://www.w3.org/2001/xml-events" xmlns:xlink="http://www.w3.org/1999/xlink"><defs /><rect fill="white" height="92.35737087205052" width="93.80987991578877" x="0" y="0" /><path d="M52.351854825392365, 17.782096033915877 m-2.6145195960998535, -1.8882642686367035 l-6.536298990249634, -1.3072597980499268 -5.519541501998901, 0.14525108970701694 l-5.810043811798096, 2.324017435312271 -5.519541501998901, 3.4860262274742126 l-5.08378803730011, 5.229039192199707 -3.9217793941497803, 6.10054612159729 l-1.452510952949524, 3.4860262274742126 -1.3072597980499268, 3.9217793941497803 l-0.8715065568685532, 7.8435587882995605 0.0, 4.067030549049377 l2.178766429424286, 8.279312252998352 1.452510952949524, 3.776528537273407 l4.212281703948975, 6.391047835350037 2.6145195960998535, 2.324017435312271 l6.536298990249634, 3.9217793941497803 3.63127738237381, 1.3072597980499268 l4.067030549049377, 0.726255476474762 8.279312252998352, 0.2905021794140339 l4.067030549049377, -0.726255476474762 7.8435587882995605, -3.3407750725746155 l7.1173036098480225, -5.6647926568984985 3.1955239176750183, -3.4860262274742126 l2.6145195960998535, -3.776528537273407 2.178766429424286, -4.212281703948975 l1.5977619588375092, -4.502783715724945 1.452510952949524, -9.00556743144989 l0.14525108970701694, -8.134061098098755 -2.324017435312271, -6.391047835350037 l-3.3407750725746155, -5.6647926568984985 -4.502783715724945, -4.648034870624542 l-4.648034870624542, -2.7597707509994507 -2.6145195960998535, -1.0167576372623444 l-4.938537180423737, -0.8715065568685532 -5.810043811798096, -0.14525108970701694 l-2.6145195960998535, 1.1620087176561356 m-29.921724796295166, 9.441320896148682 l-0.2905021794140339, -2.324017435312271 0.726255476474762, -3.776528537273407 l2.6145195960998535, -8.279312252998352 3.4860262274742126, 7.26255476474762 l1.3072597980499268, 0.726255476474762 2.0335152745246887, -0.14525108970701694 l1.7430131137371063, -3.050273060798645 2.6145195960998535, -7.698307633399963 l1.5977619588375092, -2.178766429424286 1.1620087176561356, 0.0 l1.452510952949524, 1.8882642686367035 3.050273060798645, 5.955294966697693 l1.0167576372623444, 1.3072597980499268 1.0167576372623444, 0.2905021794140339 l1.0167576372623444, -0.2905021794140339 2.4692685902118683, -4.212281703948975 l3.050273060798645, -2.7597707509994507 1.8882642686367035, 0.0 l1.7430131137371063, 0.5810043588280678 3.63127738237381, 7.1173036098480225 l1.0167576372623444, 0.726255476474762 1.3072597980499268, 0.0 l4.502783715724945, -6.10054612159729 1.5977619588375092, -1.3072597980499268 l1.7430131137371063, -0.4357532784342766 0.4357532784342766, 3.050273060798645 l-0.5810043588280678, 5.229039192199707 0.8715065568685532, 0.4357532784342766 l2.7597707509994507, -0.726255476474762 9.296069741249084, -5.519541501998901 l2.7597707509994507, -0.5810043588280678 0.0, 0.8715065568685532 l-5.229039192199707, 9.441320896148682 -0.726255476474762, 3.050273060798645 l0.726255476474762, 0.2905021794140339 3.050273060798645, -0.8715065568685532 l6.10054612159729, -3.1955239176750183 2.905021905899048, -1.0167576372623444 l-8.86031687259674, 14.234607219696045 -0.726255476474762, 2.4692685902118683 l1.3072597980499268, 0.0 10.02232551574707, -3.776528537273407 l-0.2905021794140339, 1.7430131137371063 -9.877074360847473, 14.52510952949524 l-1.452510952949524, 3.4860262274742126 -0.14525108970701694, 2.7597707509994507 l1.8882642686367035, 0.0 3.3407750725746155, -0.8715065568685532 l7.553057074546814, -3.3407750725746155 -4.648034870624542, 5.374290347099304 l-7.407805919647217, 10.893832445144653 -3.1955239176750183, 7.407805919647217 l0.2905021794140339, 1.0167576372623444 2.4692685902118683, -3.3407750725746155 l1.452510952949524, -3.9217793941497803 0.4357532784342766, -2.7597707509994507 l-0.4357532784342766, -1.0167576372623444 -3.9217793941497803, 0.8715065568685532 l-4.212281703948975, 4.212281703948975 -4.212281703948975, 6.10054612159729 l-4.648034870624542, 11.039083003997803 -1.1620087176561356, 1.7430131137371063 l-0.8715065568685532, -2.178766429424286 0.5810043588280678, -10.603330135345459 l-0.8715065568685532, -0.726255476474762 -2.4692685902118683, 0.0 l-3.3407750725746155, 2.7597707509994507 -3.1955239176750183, 3.4860262274742126 l-5.955294966697693, 7.553057074546814 -0.8715065568685532, -0.8715065568685532 l0.5810043588280678, -14.52510952949524 -0.726255476474762, -0.5810043588280678 l-3.63127738237381, 1.452510952949524 -4.067030549049377, 3.776528537273407 l-8.134061098098755, 9.731823205947876 -1.1620087176561356, 0.726255476474762 l-0.726255476474762, -0.14525108970701694 -0.726255476474762, -11.329585313796997 l-0.2905021794140339, -2.0335152745246887 -0.726255476474762, -1.0167576372623444 l-1.5977619588375092, 0.0 -2.0335152745246887, 1.3072597980499268 l-5.374290347099304, 5.6647926568984985 -0.726255476474762, -1.1620087176561356 l0.0, -5.08378803730011 1.7430131137371063, -10.02232551574707 l-0.14525108970701694, -3.1955239176750183 -1.452510952949524, 0.0 l-2.905021905899048, 1.452510952949524 -5.08378803730011, 7.698307633399963 l-0.4357532784342766, -2.905021905899048 0.0, -6.536298990249634 l3.9217793941497803, -20.33515214920044 0.0, -1.0167576372623444 l-1.0167576372623444, 0.4357532784342766 -1.452510952949524, 3.3407750725746155 l5.229039192199707, -17.139629125595093 1.0167576372623444, -4.793286025524139 l0.4357532784342766, 11.620087623596191 0.726255476474762, 0.8715065568685532 l1.1620087176561356, -0.2905021794140339 1.3072597980499268, -3.776528537273407 l1.7430131137371063, -9.877074360847473 0.14525108970701694, -2.7597707509994507 l-1.0167576372623444, 1.5977619588375092 -0.5810043588280678, 2.4692685902118683 m24.256932735443115, 5.810043811798096 l-3.4860262274742126, -1.0167576372623444 -3.9217793941497803, 0.2905021794140339 l-1.7430131137371063, 1.1620087176561356 -1.5977619588375092, 1.8882642686367035 l-1.452510952949524, 2.905021905899048 -0.14525108970701694, 6.681550145149231 l1.452510952949524, 2.6145195960998535 1.8882642686367035, 2.0335152745246887 l2.178766429424286, 0.726255476474762 2.6145195960998535, 0.0 l2.4692685902118683, -1.0167576372623444 2.324017435312271, -2.0335152745246887 l1.3072597980499268, -1.8882642686367035 0.726255476474762, -2.178766429424286 l0.0, -2.6145195960998535 -0.2905021794140339, -2.178766429424286 l-1.1620087176561356, -1.8882642686367035 -2.4692685902118683, -1.452510952949524 l-2.324017435312271, -0.2905021794140339 m24.11168098449707, 2.4692685902118683 l-0.4357532784342766, -0.726255476474762 -3.3407750725746155, -0.8715065568685532 l-5.6647926568984985, 0.0 -2.0335152745246887, 1.5977619588375092 l-1.5977619588375092, 2.0335152745246887 -0.726255476474762, 2.905021905899048 l0.14525108970701694, 4.067030549049377 1.5977619588375092, 3.63127738237381 l1.7430131137371063, 2.4692685902118683 1.8882642686367035, 1.3072597980499268 l4.648034870624542, 0.2905021794140339 2.178766429424286, -1.3072597980499268 l3.9217793941497803, -4.212281703948975 1.1620087176561356, -2.178766429424286 l0.5810043588280678, -2.905021905899048 0.0, -3.050273060798645 l-0.8715065568685532, -2.324017435312271 -1.7430131137371063, -1.7430131137371063 l-1.7430131137371063, -0.5810043588280678 -2.7597707509994507, 0.0 m-29.921724796295166, 34.860262870788574 l0.726255476474762, -0.14525108970701694 " fill="none" stroke="black" stroke-width="1" /></svg>