<?xml version="1.0" encoding="utf-8" ?>
<svg baseProfile="full" height="80.15627744607627" version="1.1" width="112.98302336595953" xmlns="http://www.w3.org/2000/svg" xmlns:ev="http://www.w3.org/2001/xml-events" xmlns:xlink="http://www.w3.org/1999/xlink"><defs /><rect fill="white" height="80.15627744607627" width="112.98302336595953" x="0" y="0" /><path d="M32.30720364488661, 21.122871041297913 m0.726255476474762, 0.4357532784342766 l0.8715065568685532, -0.5810043588280678 6.10054612159729, -6.2457966804504395 l11.039083003997803, -8.569814562797546 2.178766429424286, -1.1620087176561356 l0.726255476474762, 0.8715065568685532 0.726255476474762, 4.793286025524139 l1.7430131137371063, 5.08378803730011 7.407805919647217, -7.407805919647217 l3.63127738237381, -1.7430131137371063 0.726255476474762, 2.178766429424286 l0.0, 3.1955239176750183 -0.5810043588280678, 3.050273060798645 l-1.8882642686367035, 3.776528537273407 1.452510952949524, 0.2905021794140339 l15.687117576599121, -8.715065717697144 2.6145195960998535, -1.0167576372623444 l-5.374290347099304, 5.229039192199707 -2.905021905899048, 5.374290347099304 l0.0, 3.3407750725746155 1.452510952949524, 1.452510952949524 l4.502783715724945, 1.3072597980499268 8.42456340789795, 0.8715065568685532 l7.553057074546814, 1.452510952949524 6.10054612159729, 1.8882642686367035 l2.4692685902118683, 1.452510952949524 0.2905021794140339, 0.726255476474762 l-0.4357532784342766, 1.0167576372623444 -1.7430131137371063, 1.1620087176561356 l-9.00556743144989, 3.3407750725746155 -3.3407750725746155, 1.5977619588375092 l-1.0167576372623444, 1.0167576372623444 0.2905021794140339, 2.178766429424286 l6.826801300048828, 18.44688892364502 0.4357532784342766, 6.536298990249634 l-0.5810043588280678, 1.0167576372623444 -1.7430131137371063, 0.5810043588280678 l-2.178766429424286, -1.0167576372623444 -10.02232551574707, -8.134061098098755 l-0.726255476474762, 0.2905021794140339 -0.8715065568685532, 1.7430131137371063 l-2.7597707509994507, 7.26255476474762 -1.5977619588375092, 2.0335152745246887 l-3.4860262274742126, 2.0335152745246887 -2.324017435312271, 0.0 l-2.4692685902118683, -0.726255476474762 -2.7597707509994507, -1.5977619588375092 l-5.519541501998901, -4.502783715724945 -1.3072597980499268, -0.4357532784342766 l-1.5977619588375092, 1.0167576372623444 -3.1955239176750183, 3.776528537273407 l-1.8882642686367035, 1.3072597980499268 -1.452510952949524, -0.726255476474762 l-2.6145195960998535, -2.905021905899048 -2.0335152745246887, -1.452510952949524 l-2.4692685902118683, -0.2905021794140339 -4.938537180423737, 1.0167576372623444 l-16.703875064849854, 5.810043811798096 -6.2457966804504395, 1.1620087176561356 l-4.938537180423737, 0.14525108970701694 -0.14525108970701694, -1.1620087176561356 l1.5977619588375092, -2.324017435312271 2.178766429424286, -2.0335152745246887 l0.5810043588280678, -1.7430131137371063 -6.972052454948425, -1.7430131137371063 l-2.324017435312271, -1.5977619588375092 -1.7430131137371063, -1.8882642686367035 l-1.0167576372623444, -2.324017435312271 -0.726255476474762, -8.569814562797546 l0.14525108970701694, 2.178766429424286 4.502783715724945, 5.229039192199707 l0.726255476474762, 0.2905021794140339 0.2905021794140339, -2.178766429424286 l-1.0167576372623444, -5.6647926568984985 -3.050273060798645, -10.02232551574707 l10.312827825546265, 6.972052454948425 4.938537180423737, 2.178766429424286 l2.905021905899048, 0.5810043588280678 0.2905021794140339, -5.08378803730011 l-0.4357532784342766, -5.08378803730011 -1.0167576372623444, -4.357532858848572 l-2.4692685902118683, -6.10054612159729 -0.5810043588280678, -2.905021905899048 l2.7597707509994507, 3.63127738237381 2.324017435312271, 0.8715065568685532 l1.3072597980499268, -4.067030549049377 1.1620087176561356, -11.184333562850952 l1.1620087176561356, -0.726255476474762 0.8715065568685532, 0.4357532784342766 l3.4860262274742126, 4.212281703948975 m30.793230533599854, 4.502783715724945 l-6.2457966804504395, -2.7597707509994507 -3.63127738237381, -0.14525108970701694 l-6.2457966804504395, 1.3072597980499268 -5.519541501998901, 2.178766429424286 l-5.229039192199707, 3.1955239176750183 -2.905021905899048, 3.050273060798645 l-1.1620087176561356, 1.7430131137371063 -0.726255476474762, 2.4692685902118683 l-0.4357532784342766, 5.229039192199707 1.8882642686367035, 4.502783715724945 l3.050273060798645, 3.63127738237381 4.938537180423737, 3.63127738237381 l3.1955239176750183, 1.8882642686367035 3.3407750725746155, 1.3072597980499268 l5.08378803730011, 1.0167576372623444 5.955294966697693, 0.14525108970701694 l7.26255476474762, -3.3407750725746155 3.3407750725746155, -3.050273060798645 l2.4692685902118683, -3.4860262274742126 0.8715065568685532, -5.955294966697693 l-0.2905021794140339, -5.229039192199707 -1.3072597980499268, -3.1955239176750183 l-3.3407750725746155, -4.938537180423737 -3.4860262274742126, -2.4692685902118683 l-2.324017435312271, 0.0 -1.0167576372623444, 0.5810043588280678 m-14.379857778549194, 6.10054612159729 l-0.2905021794140339, 0.726255476474762 1.0167576372623444, 0.0 l0.726255476474762, -0.5810043588280678 0.4357532784342766, -0.726255476474762 l-0.4357532784342766, 0.14525108970701694 m6.536298990249634, 0.2905021794140339 l-1.0167576372623444, 0.14525108970701694 -0.5810043588280678, 0.726255476474762 l2.178766429424286, 0.2905021794140339 0.726255476474762, -0.4357532784342766 l-0.726255476474762, -0.4357532784342766 -0.2905021794140339, 0.5810043588280678 m-4.502783715724945, 3.776528537273407 l2.0335152745246887, 1.452510952949524 0.726255476474762, -1.452510952949524 l-0.8715065568685532, -0.4357532784342766 -2.324017435312271, 0.14525108970701694 l1.7430131137371063, 0.0 0.4357532784342766, 0.726255476474762 " fill="none" stroke="black" stroke-width="1" /></svg>