<?xml version="1.0" encoding="utf-8" ?>
<svg baseProfile="full" height="75.21774036809802" version="1.1" width="119.66457230038941" xmlns="http://www.w3.org/2000/svg" xmlns:ev="http://www.w3.org/2001/xml-events" xmlns:xlink="http://www.w3.org/1999/xlink"><defs /><rect fill="white" height="75.21774036809802" width="119.66457230038941" x="0" y="0" /><path d="M84.1618421766907, 12.407805668190122 m2.178766429424286, -0.14525108970701694 l5.229039192199707, 1.1620087176561356 7.26255476474762, 2.7597707509994507 l2.905021905899048, 1.7430131137371063 3.63127738237381, 4.067030549049377 l1.8882642686367035, 3.1955239176750183 0.8715065568685532, 2.7597707509994507 l-0.2905021794140339, 3.63127738237381 -1.452510952949524, 2.324017435312271 l-2.7597707509994507, 2.6145195960998535 -3.1955239176750183, 1.452510952949524 l-1.452510952949524, 0.4357532784342766 -8.134061098098755, 0.0 l-1.5977619588375092, -0.8715065568685532 -4.067030549049377, -3.776528537273407 l-1.1620087176561356, -2.324017435312271 -1.7430131137371063, -6.536298990249634 l0.0, -9.296069741249084 m-0.8715065568685532, 2.178766429424286 l0.8715065568685532, -2.178766429424286 2.324017435312271, -2.324017435312271 l0.2905021794140339, -1.1620087176561356 m0.0, 0.0 l5.955294966697693, -7.1173036098480225 1.7430131137371063, 3.63127738237381 l2.0335152745246887, 6.391047835350037 0.726255476474762, -0.4357532784342766 l3.4860262274742126, -4.793286025524139 1.7430131137371063, -1.1620087176561356 l1.1620087176561356, 2.178766429424286 2.324017435312271, 8.569814562797546 l1.8882642686367035, -2.324017435312271 3.4860262274742126, -2.178766429424286 l0.726255476474762, 1.0167576372623444 -2.4692685902118683, 13.653602600097656 l3.3407750725746155, -1.452510952949524 3.050273060798645, 1.1620087176561356 l0.5810043588280678, 1.0167576372623444 -0.5810043588280678, 1.8882642686367035 l-2.7597707509994507, 0.726255476474762 -4.357532858848572, 0.2905021794140339 l7.698307633399963, 3.63127738237381 -1.3072597980499268, 0.5810043588280678 l-2.4692685902118683, 0.0 -7.698307633399963, -1.1620087176561356 l-0.5810043588280678, 1.3072597980499268 0.0, 9.00556743144989 l-2.7597707509994507, -8.42456340789795 -1.8882642686367035, 4.067030549049377 l-0.726255476474762, 1.0167576372623444 -0.726255476474762, 0.14525108970701694 l-4.502783715724945, -5.6647926568984985 -1.452510952949524, 7.988809943199158 l-1.5977619588375092, -3.63127738237381 -0.726255476474762, -5.810043811798096 l-3.4860262274742126, 4.357532858848572 -1.3072597980499268, -0.8715065568685532 l-1.5977619588375092, -5.519541501998901 2.324017435312271, -0.8715065568685532 l-5.6647926568984985, -1.7430131137371063 -4.793286025524139, -2.4692685902118683 l3.4860262274742126, -1.5977619588375092 6.536298990249634, -1.1620087176561356 l3.776528537273407, -0.14525108970701694 -7.8435587882995605, -1.7430131137371063 l-4.357532858848572, -1.452510952949524 -2.324017435312271, -0.8715065568685532 l-0.4357532784342766, -1.1620087176561356 0.726255476474762, -0.8715065568685532 l6.391047835350037, -0.8715065568685532 -3.3407750725746155, -2.905021905899048 l-0.5810043588280678, -1.3072597980499268 0.2905021794140339, -0.8715065568685532 l2.178766429424286, -0.4357532784342766 4.212281703948975, 0.0 l-0.4357532784342766, -1.7430131137371063 -1.7430131137371063, -3.1955239176750183 l10.02232551574707, 5.519541501998901 m-2.905021905899048, 1.1620087176561356 l3.4860262274742126, -0.4357532784342766 4.648034870624542, 0.4357532784342766 l1.7430131137371063, 1.0167576372623444 -0.14525108970701694, 3.1955239176750183 l-2.0335152745246887, -0.14525108970701694 -6.10054612159729, -5.08378803730011 m13.508352041244507, 6.391047835350037 l1.5977619588375092, 1.1620087176561356 0.0, 0.726255476474762 l-1.1620087176561356, 0.5810043588280678 -1.0167576372623444, -0.5810043588280678 l0.0, -1.7430131137371063 m-2.178766429424286, 9.586572051048279 l-2.6145195960998535, 0.726255476474762 -5.08378803730011, 0.0 l-3.3407750725746155, -1.452510952949524 m0.0, 0.5810043588280678 l-0.2905021794140339, 7.553057074546814 1.1620087176561356, -0.5810043588280678 l1.452510952949524, -2.4692685902118683 1.5977619588375092, -6.536298990249634 m-11.620087623596191, -11.329585313796997 l-29.77647304534912, 0.0 -13.653602600097656, 0.8715065568685532 l-20.33515214920044, 2.6145195960998535 -7.698307633399963, -0.4357532784342766 l-4.502783715724945, -0.726255476474762 0.2905021794140339, 2.324017435312271 l2.6145195960998535, 6.826801300048828 0.2905021794140339, 3.4860262274742126 l3.9217793941497803, 7.988809943199158 0.8715065568685532, 3.050273060798645 l2.178766429424286, 4.648034870624542 23.240175247192383, 0.0 l27.8882098197937, -4.502783715724945 6.826801300048828, -2.4692685902118683 l11.329585313796997, -6.972052454948425 m-9.731823205947876, 2.6145195960998535 l2.7597707509994507, 10.02232551574707 1.0167576372623444, 6.536298990249634 l0.4357532784342766, 11.620087623596191 -1.0167576372623444, 0.4357532784342766 l-9.150818586349487, 0.14525108970701694 -3.3407750725746155, -11.039083003997803 l-4.648034870624542, -12.34634280204773 m-38.78204107284546, 6.2457966804504395 l8.134061098098755, 22.22341775894165 1.5977619588375092, -1.7430131137371063 l3.9217793941497803, -2.178766429424286 5.374290347099304, -2.0335152745246887 l0.2905021794140339, -1.452510952949524 -0.8715065568685532, -4.938537180423737 l-5.374290347099304, -14.08935546875 " fill="none" stroke="black" stroke-width="1" /></svg>