<?xml version="1.0" encoding="utf-8" ?>
<svg baseProfile="full" height="73.47472719848156" version="1.1" width="119.66457513161004" xmlns="http://www.w3.org/2000/svg" xmlns:ev="http://www.w3.org/2001/xml-events" xmlns:xlink="http://www.w3.org/1999/xlink"><defs /><rect fill="white" height="73.47472719848156" width="119.66457513161004" x="0" y="0" /><path d="M28.966430881991982, 47.994322748854756 m-1.452510952949524, 0.4357532784342766 l-2.7597707509994507, -4.648034870624542 -1.3072597980499268, -3.9217793941497803 l-0.2905021794140339, -4.793286025524139 0.2905021794140339, -2.0335152745246887 l2.7597707509994507, -4.357532858848572 1.5977619588375092, -1.8882642686367035 l3.63127738237381, -2.905021905899048 4.212281703948975, -1.5977619588375092 l4.502783715724945, 0.0 1.7430131137371063, 0.8715065568685532 l2.6145195960998535, 3.3407750725746155 0.726255476474762, 2.4692685902118683 l0.14525108970701694, 5.6647926568984985 -0.4357532784342766, 2.905021905899048 l-1.7430131137371063, 5.374290347099304 -1.1620087176561356, 2.0335152745246887 l-3.3407750725746155, 4.067030549049377 -2.0335152745246887, 1.5977619588375092 l-4.212281703948975, 1.8882642686367035 -3.63127738237381, 0.14525108970701694 l-1.3072597980499268, -1.0167576372623444 -0.726255476474762, -2.178766429424286 m1.0167576372623444, -18.44688892364502 l0.2905021794140339, 1.3072597980499268 -0.5810043588280678, 3.3407750725746155 l1.5977619588375092, 0.4357532784342766 0.8715065568685532, -1.8882642686367035 l0.14525108970701694, -1.7430131137371063 -0.8715065568685532, -1.1620087176561356 l-1.7430131137371063, -0.2905021794140339 0.0, 0.4357532784342766 m9.586572051048279, -3.3407750725746155 l-1.452510952949524, 0.14525108970701694 -0.14525108970701694, 1.8882642686367035 l1.8882642686367035, 1.7430131137371063 1.1620087176561356, 0.0 l0.5810043588280678, -1.8882642686367035 0.0, -2.324017435312271 l-1.7430131137371063, -0.726255476474762 -0.726255476474762, 0.8715065568685532 m-2.7597707509994507, 9.441320896148682 l-0.2905021794140339, 3.4860262274742126 2.7597707509994507, -0.2905021794140339 l-0.14525108970701694, -1.1620087176561356 -2.178766429424286, -2.178766429424286 m0.5810043588280678, 3.9217793941497803 l-0.5810043588280678, 0.726255476474762 -0.14525108970701694, 1.7430131137371063 m-7.1173036098480225, -1.3072597980499268 l0.4357532784342766, 1.0167576372623444 4.357532858848572, 2.324017435312271 l3.4860262274742126, 0.14525108970701694 1.8882642686367035, -0.4357532784342766 l2.905021905899048, -2.0335152745246887 3.63127738237381, -3.4860262274742126 m-6.536298990249634, -1.1620087176561356 l0.14525108970701694, -1.0167576372623444 3.1955239176750183, -2.7597707509994507 m-3.1955239176750183, 5.955294966697693 l1.5977619588375092, -1.1620087176561356 3.63127738237381, -1.1620087176561356 m-10.312827825546265, 0.726255476474762 l-1.8882642686367035, -1.3072597980499268 m-8.279312252998352, -7.698307633399963 l-4.793286025524139, -0.4357532784342766 -0.726255476474762, -0.8715065568685532 l-0.726255476474762, -4.067030549049377 0.2905021794140339, -3.1955239176750183 l1.5977619588375092, -4.067030549049377 5.229039192199707, -7.698307633399963 l2.905021905899048, -2.6145195960998535 2.6145195960998535, -1.452510952949524 l2.4692685902118683, -0.726255476474762 2.178766429424286, 0.0 l2.0335152745246887, 0.8715065568685532 1.5977619588375092, 1.5977619588375092 l1.1620087176561356, 2.0335152745246887 1.1620087176561356, 5.08378803730011 l5.955294966697693, -5.519541501998901 3.3407750725746155, -2.0335152745246887 l2.905021905899048, -1.1620087176561356 5.810043811798096, -0.4357532784342766 l3.9217793941497803, 2.324017435312271 0.726255476474762, 2.0335152745246887 l0.14525108970701694, 2.6145195960998535 -0.5810043588280678, 2.6145195960998535 l-1.1620087176561356, 2.4692685902118683 -2.905021905899048, 3.63127738237381 l3.9217793941497803, -1.7430131137371063 3.1955239176750183, -0.8715065568685532 l3.3407750725746155, -0.2905021794140339 4.648034870624542, 0.4357532784342766 l1.3072597980499268, 1.1620087176561356 0.2905021794140339, 1.452510952949524 l-0.5810043588280678, 2.178766429424286 -2.4692685902118683, 2.905021905899048 l-6.826801300048828, 5.6647926568984985 -5.810043811798096, 3.776528537273407 l5.229039192199707, 0.2905021794140339 2.7597707509994507, 1.5977619588375092 l0.5810043588280678, 1.5977619588375092 0.0, 2.324017435312271 l-1.5977619588375092, 2.7597707509994507 -6.972052454948425, 5.6647926568984985 l-3.3407750725746155, 1.7430131137371063 -5.955294966697693, 1.3072597980499268 l-0.2905021794140339, 0.8715065568685532 1.0167576372623444, 2.0335152745246887 l0.14525108970701694, 3.3407750725746155 -1.1620087176561356, 2.178766429424286 l-5.6647926568984985, 4.938537180423737 -6.10054612159729, 2.0335152745246887 l-4.502783715724945, -0.2905021794140339 -1.3072597980499268, -1.0167576372623444 l-0.4357532784342766, -3.9217793941497803 -8.134061098098755, 2.0335152745246887 l-2.324017435312271, 0.0 -2.6145195960998535, -1.0167576372623444 l-2.905021905899048, -4.067030549049377 -0.14525108970701694, -4.648034870624542 l4.357532858848572, -6.10054612159729 -6.826801300048828, 1.452510952949524 l-5.08378803730011, 0.0 -1.3072597980499268, -1.3072597980499268 l-0.4357532784342766, -2.178766429424286 0.2905021794140339, -3.050273060798645 l3.1955239176750183, -6.972052454948425 3.9217793941497803, -6.391047835350037 l3.4860262274742126, -2.7597707509994507 2.324017435312271, -0.8715065568685532 l2.324017435312271, -0.14525108970701694 m41.97756767272949, 12.491593360900879 l17.72063374519348, -1.1620087176561356 10.02232551574707, 0.0 l3.3407750725746155, 0.4357532784342766 6.10054612159729, 1.3072597980499268 l5.08378803730011, 1.8882642686367035 5.6647926568984985, 3.050273060798645 l2.178766429424286, 1.8882642686367035 -0.8715065568685532, 0.5810043588280678 m-60.13395309448242, 9.877074360847473 l-0.8715065568685532, 0.4357532784342766 -0.14525108970701694, 1.0167576372623444 l0.5810043588280678, 1.1620087176561356 1.8882642686367035, 1.3072597980499268 l3.1955239176750183, 1.1620087176561356 8.279312252998352, 0.726255476474762 l10.02232551574707, -0.2905021794140339 31.809988021850586, -7.988809943199158 l8.279312252998352, -2.7597707509994507 " fill="none" stroke="black" stroke-width="1" /></svg>