<?xml version="1.0" encoding="utf-8" ?>
<svg baseProfile="full" height="115.45229285024107" version="1.1" width="134.4801879581064" xmlns="http://www.w3.org/2000/svg" xmlns:ev="http://www.w3.org/2001/xml-events" xmlns:xlink="http://www.w3.org/1999/xlink"><defs /><rect fill="white" height="115.45229285024107" width="134.4801879581064" x="0" y="0" /><path d="M61.35742495767772, 47.122816583141685 m-1.1620087176561356, -2.0335152745246887 l-0.8715065568685532, -0.5810043588280678 -1.452510952949524, 0.0 l-5.374290347099304, 4.648034870624542 -1.5977619588375092, 3.3407750725746155 l0.0, 2.178766429424286 1.1620087176561356, 3.776528537273407 l0.8715065568685532, 1.1620087176561356 2.4692685902118683, 2.0335152745246887 l3.9217793941497803, 0.2905021794140339 3.776528537273407, -3.050273060798645 l1.5977619588375092, -5.08378803730011 -0.4357532784342766, -4.067030549049377 l-1.3072597980499268, -2.905021905899048 -1.452510952949524, -1.1620087176561356 m-8.86031687259674, 9.296069741249084 l1.0167576372623444, 0.4357532784342766 2.0335152745246887, 2.178766429424286 l0.726255476474762, 0.0 0.4357532784342766, -1.1620087176561356 m1.0167576372623444, -4.502783715724945 l0.0, -0.14525108970701694 m-4.357532858848572, -0.2905021794140339 l0.14525108970701694, 0.0 m3.4860262274742126, -26.87145233154297 l-9.877074360847473, 0.14525108970701694 -4.793286025524139, 2.324017435312271 l-5.519541501998901, 5.374290347099304 -2.905021905899048, 6.536298990249634 l-0.726255476474762, 6.536298990249634 0.0, 4.067030549049377 l0.726255476474762, 4.067030549049377 5.374290347099304, 8.569814562797546 l5.810043811798096, 5.955294966697693 14.08935546875, 8.569814562797546 l5.519541501998901, 1.8882642686367035 5.810043811798096, -0.14525108970701694 l1.452510952949524, -0.5810043588280678 6.972052454948425, -6.972052454948425 l0.14525108970701694, -9.00556743144989 -0.5810043588280678, -6.536298990249634 l-1.0167576372623444, -3.776528537273407 -1.452510952949524, -4.793286025524139 l-2.0335152745246887, -4.648034870624542 -5.374290347099304, -9.00556743144989 m-0.8715065568685532, 6.681550145149231 l-3.1955239176750183, 0.5810043588280678 -0.5810043588280678, 1.5977619588375092 l0.0, 2.7597707509994507 1.3072597980499268, 1.7430131137371063 l1.452510952949524, 0.726255476474762 4.648034870624542, 0.4357532784342766 l0.4357532784342766, -2.0335152745246887 -0.2905021794140339, -2.0335152745246887 l-1.0167576372623444, -2.0335152745246887 -1.7430131137371063, -2.0335152745246887 l-2.4692685902118683, -1.8882642686367035 -1.7430131137371063, -0.14525108970701694 m-17.575381994247437, -3.776528537273407 l-1.0167576372623444, 0.2905021794140339 -1.5977619588375092, 2.905021905899048 l0.14525108970701694, 3.4860262274742126 2.0335152745246887, 1.8882642686367035 l4.938537180423737, 0.4357532784342766 1.0167576372623444, -4.067030549049377 l0.0, -2.905021905899048 -3.050273060798645, -5.08378803730011 m-21.787664890289307, 25.70944309234619 l-3.4860262274742126, -0.5810043588280678 -8.42456340789795, -7.26255476474762 l-10.16757607460022, -9.877074360847473 -0.726255476474762, -1.8882642686367035 l0.726255476474762, -1.7430131137371063 4.067030549049377, 0.4357532784342766 l3.776528537273407, 1.3072597980499268 1.1620087176561356, 0.0 l0.726255476474762, -4.212281703948975 0.0, -5.519541501998901 l-0.726255476474762, -5.229039192199707 2.7597707509994507, -0.14525108970701694 l1.8882642686367035, -0.726255476474762 0.8715065568685532, -0.8715065568685532 l4.502783715724945, -9.441320896148682 2.4692685902118683, -3.1955239176750183 l1.1620087176561356, 0.0 1.5977619588375092, 6.972052454948425 l0.4357532784342766, -1.452510952949524 0.0, -3.776528537273407 l1.0167576372623444, -2.178766429424286 1.7430131137371063, -1.1620087176561356 l3.3407750725746155, -0.5810043588280678 9.731823205947876, -0.2905021794140339 l5.6647926568984985, 3.3407750725746155 16.413373947143555, -1.3072597980499268 l16.12287163734436, 0.0 0.8715065568685532, 0.4357532784342766 l-0.14525108970701694, 1.3072597980499268 -9.296069741249084, 5.229039192199707 l-3.63127738237381, 1.3072597980499268 0.4357532784342766, -0.726255476474762 l12.055840492248535, -3.3407750725746155 23.240175247192383, -2.178766429424286 l7.553057074546814, -0.14525108970701694 0.726255476474762, 1.0167576372623444 l0.0, 0.8715065568685532 -9.877074360847473, 6.826801300048828 l13.508352041244507, -0.2905021794140339 3.4860262274742126, 0.4357532784342766 l5.229039192199707, 1.8882642686367035 0.8715065568685532, 3.3407750725746155 l-4.067030549049377, 3.776528537273407 -8.86031687259674, 3.3407750725746155 l4.938537180423737, 0.14525108970701694 1.7430131137371063, 5.374290347099304 l0.0, 5.955294966697693 -1.3072597980499268, 3.1955239176750183 l-6.2457966804504395, 0.4357532784342766 -4.357532858848572, -0.8715065568685532 l0.726255476474762, 0.14525108970701694 6.826801300048828, 6.10054612159729 l1.5977619588375092, 2.905021905899048 0.2905021794140339, 2.324017435312271 l-1.3072597980499268, 2.178766429424286 -7.698307633399963, 0.726255476474762 l5.374290347099304, 4.938537180423737 0.2905021794140339, 2.4692685902118683 l-2.6145195960998535, 1.7430131137371063 -4.067030549049377, 1.3072597980499268 l-4.938537180423737, 0.5810043588280678 0.5810043588280678, 1.0167576372623444 l6.972052454948425, 3.3407750725746155 -1.0167576372623444, 4.648034870624542 l-6.972052454948425, 4.648034870624542 0.2905021794140339, 1.0167576372623444 l1.5977619588375092, 1.8882642686367035 0.0, 0.8715065568685532 l-2.7597707509994507, 1.0167576372623444 -7.553057074546814, 1.452510952949524 l-3.776528537273407, 0.0 -7.8435587882995605, -1.1620087176561356 l-2.324017435312271, -1.0167576372623444 m-42.55856990814209, -19.027893543243408 l-5.08378803730011, 18.737391233444214 -0.4357532784342766, 5.955294966697693 l0.8715065568685532, 1.452510952949524 15.541867017745972, 10.458078384399414 l3.4860262274742126, 0.8715065568685532 7.1173036098480225, 0.4357532784342766 l-1.8882642686367035, 2.6145195960998535 0.0, 0.8715065568685532 l1.0167576372623444, 0.5810043588280678 3.3407750725746155, 0.0 l1.5977619588375092, -0.726255476474762 2.0335152745246887, -2.0335152745246887 l1.0167576372623444, -0.2905021794140339 0.8715065568685532, 0.0 l0.726255476474762, 0.8715065568685532 " fill="none" stroke="black" stroke-width="1" /></svg>