<?xml version="1.0" encoding="utf-8" ?>
<svg baseProfile="full" height="76.52499995194376" version="1.1" width="82.77079581283033" xmlns="http://www.w3.org/2000/svg" xmlns:ev="http://www.w3.org/2001/xml-events" xmlns:xlink="http://www.w3.org/1999/xlink"><defs /><rect fill="white" height="76.52499995194376" width="82.77079581283033" x="0" y="0" /><path d="M47.70382033661008, 13.134061386808753 m-4.793286025524139, -1.7430131137371063 l-5.6647926568984985, -1.3072597980499268 -1.8882642686367035, 0.0 l-3.1955239176750183, 0.8715065568685532 -6.391047835350037, 3.4860262274742126 l-2.178766429424286, 2.6145195960998535 -0.5810043588280678, 1.7430131137371063 l-0.4357532784342766, 4.938537180423737 0.8715065568685532, 2.0335152745246887 l1.8882642686367035, 2.4692685902118683 1.5977619588375092, 1.452510952949524 l2.4692685902118683, 1.3072597980499268 8.134061098098755, 3.3407750725746155 l14.08935546875, 3.63127738237381 3.63127738237381, -0.14525108970701694 l2.905021905899048, -2.7597707509994507 2.178766429424286, -4.212281703948975 l0.5810043588280678, -2.0335152745246887 0.14525108970701694, -3.1955239176750183 l-0.8715065568685532, -2.7597707509994507 -2.324017435312271, -3.776528537273407 l-3.3407750725746155, -3.4860262274742126 -2.324017435312271, -1.7430131137371063 l-2.905021905899048, -1.1620087176561356 -1.452510952949524, -0.4357532784342766 l-2.178766429424286, 0.2905021794140339 0.726255476474762, -0.8715065568685532 l5.08378803730011, -2.0335152745246887 10.748580694198608, -1.452510952949524 l5.519541501998901, 0.0 -4.648034870624542, 2.7597707509994507 l-3.776528537273407, 3.1955239176750183 0.726255476474762, 0.5810043588280678 l7.26255476474762, 0.726255476474762 6.391047835350037, 1.3072597980499268 l4.067030549049377, 1.7430131137371063 -0.5810043588280678, 1.8882642686367035 l-3.050273060798645, 2.0335152745246887 -12.782095670700073, 3.9217793941497803 l-6.536298990249634, 2.7597707509994507 -0.4357532784342766, 0.726255476474762 l7.407805919647217, -0.4357532784342766 8.42456340789795, 1.452510952949524 l3.3407750725746155, 2.0335152745246887 0.4357532784342766, 1.5977619588375092 l-0.726255476474762, 3.63127738237381 -4.067030549049377, 5.08378803730011 l-3.3407750725746155, 2.178766429424286 -8.569814562797546, 4.067030549049377 l1.5977619588375092, -3.3407750725746155 -1.1620087176561356, -0.2905021794140339 l-13.508352041244507, 2.0335152745246887 -6.10054612159729, 1.5977619588375092 l-0.5810043588280678, -0.726255476474762 0.0, -6.536298990249634 l1.452510952949524, -3.776528537273407 -12.055840492248535, 3.050273060798645 l-5.519541501998901, 0.8715065568685532 -0.14525108970701694, -1.7430131137371063 l1.452510952949524, -4.793286025524139 0.0, -1.7430131137371063 l-4.357532858848572, -0.5810043588280678 -5.229039192199707, -2.6145195960998535 l-2.0335152745246887, -2.6145195960998535 0.14525108970701694, -0.8715065568685532 l3.4860262274742126, -5.810043811798096 -8.42456340789795, -5.374290347099304 l-0.2905021794140339, -0.726255476474762 3.776528537273407, -1.8882642686367035 l4.938537180423737, -1.452510952949524 4.938537180423737, -0.8715065568685532 l5.519541501998901, -0.2905021794140339 -0.2905021794140339, -0.726255476474762 l-4.938537180423737, -1.3072597980499268 -3.050273060798645, -1.452510952949524 l-0.14525108970701694, -0.726255476474762 1.1620087176561356, -0.5810043588280678 l5.229039192199707, -1.1620087176561356 10.603330135345459, 0.2905021794140339 l17.284879684448242, 2.6145195960998535 0.726255476474762, 0.14525108970701694 l-3.1955239176750183, 1.452510952949524 m-14.379857778549194, 6.826801300048828 l-1.7430131137371063, 0.726255476474762 2.7597707509994507, -0.14525108970701694 l-1.8882642686367035, 0.4357532784342766 m13.94410490989685, 1.8882642686367035 l-1.0167576372623444, 1.5977619588375092 0.4357532784342766, 0.2905021794140339 m-14.815611839294434, 2.905021905899048 l2.905021905899048, 4.357532858848572 3.3407750725746155, 3.1955239176750183 l4.648034870624542, 1.8882642686367035 1.452510952949524, 0.2905021794140339 l4.212281703948975, -1.8882642686367035 2.178766429424286, -1.452510952949524 l1.5977619588375092, -1.5977619588375092 -0.5810043588280678, 0.14525108970701694 m-23.966429233551025, 11.329585313796997 l-6.2457966804504395, 1.8882642686367035 -7.1173036098480225, 4.502783715724945 l-5.374290347099304, 6.391047835350037 -3.63127738237381, 7.8435587882995605 l-0.2905021794140339, 1.452510952949524 1.452510952949524, 1.3072597980499268 l1.8882642686367035, 0.5810043588280678 16.26812219619751, -2.0335152745246887 l2.7597707509994507, -1.1620087176561356 -5.374290347099304, 7.1173036098480225 l-1.3072597980499268, 3.3407750725746155 3.3407750725746155, -1.1620087176561356 l11.76533818244934, 0.0 3.1955239176750183, -0.5810043588280678 l6.391047835350037, -2.4692685902118683 3.3407750725746155, -2.324017435312271 l3.1955239176750183, -4.212281703948975 1.7430131137371063, -5.374290347099304 l1.3072597980499268, -6.2457966804504395 0.0, -5.229039192199707 l-0.8715065568685532, 0.726255476474762 m-43.43007564544678, 3.4860262274742126 " fill="none" stroke="black" stroke-width="1" /></svg>