<?xml version="1.0" encoding="utf-8" ?>
<svg baseProfile="full" height="51.68706389144063" version="1.1" width="72.16746777296066" xmlns="http://www.w3.org/2000/svg" xmlns:ev="http://www.w3.org/2001/xml-events" xmlns:xlink="http://www.w3.org/1999/xlink"><defs /><rect fill="white" height="51.68706389144063" width="72.16746777296066" x="0" y="0" /><path d="M34.19546958990395, 21.703875558450818 m1.3072597980499268, 0.0 l1.0167576372623444, -0.5810043588280678 0.14525108970701694, -1.5977619588375092 l-0.8715065568685532, -4.067030549049377 0.14525108970701694, -3.050273060798645 l6.972052454948425, -3.3407750725746155 0.726255476474762, -0.14525108970701694 l0.2905021794140339, 0.726255476474762 0.0, 2.324017435312271 l1.0167576372623444, 3.776528537273407 1.452510952949524, -1.452510952949524 l2.4692685902118683, -4.648034870624542 3.9217793941497803, -3.776528537273407 l2.4692685902118683, -0.8715065568685532 -0.8715065568685532, 5.6647926568984985 l-2.324017435312271, 8.134061098098755 1.452510952949524, -2.178766429424286 l5.955294966697693, -4.793286025524139 4.648034870624542, -1.3072597980499268 l0.726255476474762, 2.324017435312271 -0.14525108970701694, 2.4692685902118683 l-2.0335152745246887, 5.229039192199707 -1.5977619588375092, 1.7430131137371063 l-1.8882642686367035, 0.726255476474762 -2.0335152745246887, -0.14525108970701694 l-0.8715065568685532, 0.4357532784342766 8.569814562797546, 2.7597707509994507 l2.324017435312271, 2.324017435312271 0.0, 1.7430131137371063 l-2.905021905899048, 3.1955239176750183 -5.810043811798096, 1.7430131137371063 l-11.039083003997803, 2.324017435312271 6.826801300048828, 3.1955239176750183 l-4.938537180423737, -0.14525108970701694 -8.569814562797546, -1.3072597980499268 l-12.636845111846924, -2.6145195960998535 -0.14525108970701694, -1.3072597980499268 l0.4357532784342766, -0.726255476474762 1.1620087176561356, -0.2905021794140339 l1.5977619588375092, 0.4357532784342766 1.1620087176561356, 1.1620087176561356 l2.905021905899048, 0.5810043588280678 -1.452510952949524, -1.8882642686367035 l-3.4860262274742126, -2.324017435312271 -3.050273060798645, -1.5977619588375092 l-4.357532858848572, -1.452510952949524 0.2905021794140339, -1.1620087176561356 l2.0335152745246887, -1.8882642686367035 2.7597707509994507, -3.9217793941497803 l1.7430131137371063, -1.3072597980499268 2.4692685902118683, 3.776528537273407 l-1.5977619588375092, -2.324017435312271 -0.4357532784342766, -2.0335152745246887 l2.4692685902118683, -1.8882642686367035 2.0335152745246887, 1.0167576372623444 l0.726255476474762, 1.452510952949524 0.726255476474762, 0.4357532784342766 m7.553057074546814, 0.8715065568685532 l-0.726255476474762, 0.14525108970701694 -0.726255476474762, 0.8715065568685532 l-0.14525108970701694, 2.178766429424286 3.776528537273407, 1.8882642686367035 l3.1955239176750183, 0.4357532784342766 0.5810043588280678, -3.050273060798645 l-2.0335152745246887, -2.6145195960998535 -2.178766429424286, -0.5810043588280678 l-1.8882642686367035, 0.0 -0.726255476474762, 0.726255476474762 l0.4357532784342766, 0.8715065568685532 2.0335152745246887, 1.5977619588375092 m0.2905021794140339, 0.0 l0.8715065568685532, -1.5977619588375092 1.1620087176561356, 0.14525108970701694 l0.4357532784342766, 0.8715065568685532 -1.8882642686367035, 0.8715065568685532 l-0.2905021794140339, -0.4357532784342766 m-15.396615266799927, -7.1173036098480225 l-6.10054612159729, -2.178766429424286 -6.826801300048828, 0.0 l-3.1955239176750183, 0.4357532784342766 -7.26255476474762, 2.0335152745246887 l-1.5977619588375092, 2.0335152745246887 -0.4357532784342766, 2.6145195960998535 l0.5810043588280678, 3.3407750725746155 2.7597707509994507, 6.10054612159729 l1.7430131137371063, 2.4692685902118683 1.3072597980499268, 0.5810043588280678 l2.6145195960998535, 0.5810043588280678 12.055840492248535, 1.0167576372623444 l1.8882642686367035, -0.4357532784342766 4.067030549049377, -2.6145195960998535 l0.8715065568685532, -0.726255476474762 0.0, -0.726255476474762 m-23.675928115844727, 2.6145195960998535 l-0.726255476474762, 6.10054612159729 0.4357532784342766, 3.050273060798645 m6.536298990249634, -6.681550145149231 l2.4692685902118683, 8.134061098098755 2.0335152745246887, -1.5977619588375092 m2.905021905899048, -7.407805919647217 l0.0, 3.63127738237381 0.8715065568685532, 6.10054612159729 l1.3072597980499268, -2.905021905899048 m3.4860262274742126, -3.63127738237381 l1.3072597980499268, 5.519541501998901 0.726255476474762, 1.8882642686367035 l0.4357532784342766, -0.726255476474762 " fill="none" stroke="black" stroke-width="1" /></svg>