<?xml version="1.0" encoding="utf-8" ?>
<svg baseProfile="full" height="41.22898479923606" version="1.1" width="47.91053507477045" xmlns="http://www.w3.org/2000/svg" xmlns:ev="http://www.w3.org/2001/xml-events" xmlns:xlink="http://www.w3.org/1999/xlink"><defs /><rect fill="white" height="41.22898479923606" width="47.91053507477045" x="0" y="0" /><path d="M8.776528798043728, 9.938537143170834 m-0.726255476474762, -2.4692685902118683 l0.0, -2.0335152745246887 0.726255476474762, -0.4357532784342766 l3.9217793941497803, 3.050273060798645 1.1620087176561356, -0.14525108970701694 l2.324017435312271, -1.452510952949524 6.681550145149231, 3.3407750725746155 l2.905021905899048, 0.0 0.8715065568685532, -2.905021905899048 l1.0167576372623444, 2.0335152745246887 1.452510952949524, 0.2905021794140339 l3.9217793941497803, -1.7430131137371063 0.8715065568685532, 0.0 l0.726255476474762, 0.4357532784342766 0.8715065568685532, 3.1955239176750183 l0.8715065568685532, 0.5810043588280678 6.536298990249634, -1.3072597980499268 l0.0, 14.815611839294434 -0.5810043588280678, 1.452510952949524 l-1.5977619588375092, 0.14525108970701694 -0.726255476474762, 0.5810043588280678 l-5.374290347099304, 6.2457966804504395 -4.793286025524139, 2.6145195960998535 l-0.8715065568685532, -0.14525108970701694 -1.0167576372623444, -1.0167576372623444 l-2.4692685902118683, -3.3407750725746155 -2.0335152745246887, 0.2905021794140339 l-3.050273060798645, 2.0335152745246887 -2.0335152745246887, -3.4860262274742126 l-3.1955239176750183, 1.3072597980499268 -2.4692685902118683, -0.14525108970701694 l-0.726255476474762, -1.1620087176561356 -1.1620087176561356, -4.212281703948975 l-3.050273060798645, 1.8882642686367035 -1.452510952949524, 0.2905021794140339 l-1.3072597980499268, -4.357532858848572 1.7430131137371063, -3.63127738237381 l1.7430131137371063, -0.2905021794140339 0.2905021794140339, -1.452510952949524 l-0.4357532784342766, -1.452510952949524 -1.7430131137371063, -1.1620087176561356 l-0.2905021794140339, -0.726255476474762 0.2905021794140339, -2.6145195960998535 l3.050273060798645, -2.4692685902118683 m15.541867017745972, 7.988809943199158 l-2.6145195960998535, 0.0 -1.8882642686367035, 1.5977619588375092 l-0.8715065568685532, 2.0335152745246887 0.4357532784342766, 1.0167576372623444 l1.7430131137371063, 1.3072597980499268 2.178766429424286, 0.5810043588280678 l3.050273060798645, 0.0 1.8882642686367035, -0.726255476474762 l0.5810043588280678, -0.726255476474762 0.0, -1.452510952949524 l-0.726255476474762, -1.5977619588375092 -2.324017435312271, -1.452510952949524 m-4.793286025524139, -1.1620087176561356 l-0.8715065568685532, -2.178766429424286 -0.726255476474762, -0.5810043588280678 l-0.8715065568685532, 5.08378803730011 m6.2457966804504395, -0.8715065568685532 " fill="none" stroke="black" stroke-width="1" /></svg>