<?xml version="1.0" encoding="utf-8" ?>
<svg baseProfile="full" height="64.32390783913434" version="1.1" width="78.55851477012038" xmlns="http://www.w3.org/2000/svg" xmlns:ev="http://www.w3.org/2001/xml-events" xmlns:xlink="http://www.w3.org/1999/xlink"><defs /><rect fill="white" height="64.32390783913434" width="78.55851477012038" x="0" y="0" /><path d="M26.78766374476254, 48.57532796449959 m-2.0335152745246887, -6.972052454948425 l0.0, -4.648034870624542 0.726255476474762, -1.7430131137371063 l1.3072597980499268, -1.7430131137371063 3.776528537273407, -2.7597707509994507 l3.050273060798645, -1.7430131137371063 4.793286025524139, -1.1620087176561356 l10.748580694198608, -0.14525108970701694 4.067030549049377, 1.7430131137371063 l3.776528537273407, 3.776528537273407 2.0335152745246887, 5.519541501998901 l0.5810043588280678, 5.810043811798096 -0.8715065568685532, 2.905021905899048 l-2.6145195960998535, 4.067030549049377 -7.553057074546814, 4.067030549049377 l-2.7597707509994507, 0.5810043588280678 -5.810043811798096, 0.0 l-3.63127738237381, -0.5810043588280678 -6.2457966804504395, -2.178766429424286 l-2.905021905899048, -1.7430131137371063 -0.726255476474762, -1.1620087176561356 m-2.905021905899048, -6.972052454948425 l-7.988809943199158, -5.810043811798096 -6.826801300048828, -7.1173036098480225 l-0.14525108970701694, -0.8715065568685532 1.0167576372623444, -0.14525108970701694 l-1.1620087176561356, -0.4357532784342766 -1.7430131137371063, -2.0335152745246887 l-1.7430131137371063, -3.776528537273407 0.5810043588280678, -3.050273060798645 l1.1620087176561356, -1.5977619588375092 2.6145195960998535, -2.324017435312271 l3.1955239176750183, -2.0335152745246887 5.229039192199707, -2.178766429424286 l5.519541501998901, -1.7430131137371063 5.6647926568984985, -0.726255476474762 l11.76533818244934, -0.4357532784342766 0.8715065568685532, 0.4357532784342766 l0.5810043588280678, 1.8882642686367035 -1.452510952949524, 1.5977619588375092 l-1.1620087176561356, 0.5810043588280678 3.3407750725746155, -0.2905021794140339 l-0.4357532784342766, 1.0167576372623444 1.7430131137371063, -2.178766429424286 l8.42456340789795, -5.810043811798096 4.648034870624542, -1.3072597980499268 l2.905021905899048, -0.14525108970701694 1.7430131137371063, 1.3072597980499268 l0.5810043588280678, 1.0167576372623444 0.0, 4.212281703948975 l-0.5810043588280678, 1.7430131137371063 -1.1620087176561356, 1.5977619588375092 l-4.067030549049377, 3.4860262274742126 3.63127738237381, -1.5977619588375092 l4.648034870624542, -0.726255476474762 5.08378803730011, 0.14525108970701694 l1.1620087176561356, 0.4357532784342766 1.1620087176561356, 1.1620087176561356 l0.0, 3.1955239176750183 -0.5810043588280678, 2.0335152745246887 l0.5810043588280678, 0.726255476474762 0.2905021794140339, 4.502783715724945 l-0.8715065568685532, 5.229039192199707 -2.6145195960998535, 6.391047835350037 l2.324017435312271, -1.5977619588375092 2.0335152745246887, -0.726255476474762 l-2.324017435312271, 4.648034870624542 -4.067030549049377, 5.374290347099304 l-4.648034870624542, 3.9217793941497803 -2.905021905899048, 1.7430131137371063 l-1.1620087176561356, -2.6145195960998535 m-42.413320541381836, -19.463646411895752 l-7.8435587882995605, 2.0335152745246887 -0.8715065568685532, 0.4357532784342766 l-0.5810043588280678, 1.0167576372623444 1.8882642686367035, 5.955294966697693 l2.178766429424286, 3.4860262274742126 1.7430131137371063, 1.7430131137371063 l2.905021905899048, 1.3072597980499268 7.698307633399963, 0.2905021794140339 l3.3407750725746155, 1.1620087176561356 1.7430131137371063, 0.14525108970701694 l3.4860262274742126, 2.324017435312271 -0.2905021794140339, 5.6647926568984985 l1.452510952949524, 2.4692685902118683 2.6145195960998535, 0.14525108970701694 l2.0335152745246887, -0.8715065568685532 m-5.229039192199707, -20.770905017852783 l3.4860262274742126, -2.4692685902118683 2.324017435312271, -1.0167576372623444 l1.8882642686367035, -0.14525108970701694 1.0167576372623444, 0.8715065568685532 l0.5810043588280678, 3.776528537273407 -3.9217793941497803, 1.1620087176561356 l-2.7597707509994507, 0.0 -1.1620087176561356, -0.4357532784342766 l-2.6145195960998535, -2.7597707509994507 -0.4357532784342766, -1.452510952949524 l3.3407750725746155, -1.0167576372623444 1.8882642686367035, 0.0 m16.12287163734436, -2.4692685902118683 l0.8715065568685532, 0.14525108970701694 1.0167576372623444, 1.7430131137371063 l0.4357532784342766, 2.905021905899048 -1.1620087176561356, 1.8882642686367035 l-1.7430131137371063, 0.8715065568685532 -2.6145195960998535, 0.0 l-0.5810043588280678, -3.4860262274742126 0.8715065568685532, -3.4860262274742126 " fill="none" stroke="black" stroke-width="1" /></svg>