<?xml version="1.0" encoding="utf-8" ?>
<svg baseProfile="full" height="72.89372250437737" version="1.1" width="78.41326440684497" xmlns="http://www.w3.org/2000/svg" xmlns:ev="http://www.w3.org/2001/xml-events" xmlns:xlink="http://www.w3.org/1999/xlink"><defs /><rect fill="white" height="72.89372250437737" width="78.41326440684497" x="0" y="0" /><path d="M40.441266847774386, 28.96643042564392 m-2.905021905899048, 0.4357532784342766 l-5.519541501998901, 3.1955239176750183 -1.8882642686367035, 1.452510952949524 l-2.905021905899048, 3.4860262274742126 -2.324017435312271, 6.391047835350037 l0.14525108970701694, 6.681550145149231 1.7430131137371063, 4.357532858848572 l1.3072597980499268, 1.5977619588375092 4.067030549049377, 2.6145195960998535 l2.7597707509994507, 0.5810043588280678 3.3407750725746155, 0.0 l3.63127738237381, -0.8715065568685532 3.050273060798645, -1.452510952949524 l4.938537180423737, -4.648034870624542 3.4860262274742126, -5.519541501998901 l1.7430131137371063, -6.10054612159729 -0.2905021794140339, -7.26255476474762 l-0.8715065568685532, -1.5977619588375092 -3.3407750725746155, -2.324017435312271 l-5.519541501998901, -1.0167576372623444 -2.905021905899048, 0.14525108970701694 l-7.988809943199158, 3.9217793941497803 m-6.10054612159729, 2.4692685902118683 l-2.0335152745246887, -8.42456340789795 -0.14525108970701694, -2.905021905899048 l0.4357532784342766, -2.178766429424286 1.3072597980499268, -1.1620087176561356 l3.050273060798645, -0.14525108970701694 1.1620087176561356, 1.1620087176561356 l1.452510952949524, 3.3407750725746155 1.0167576372623444, 4.648034870624542 m12.20109224319458, -1.452510952949524 l7.1173036098480225, -6.972052454948425 4.357532858848572, -2.6145195960998535 l2.178766429424286, -0.4357532784342766 1.1620087176561356, 0.4357532784342766 l0.5810043588280678, 1.0167576372623444 0.0, 3.63127738237381 l-2.324017435312271, 4.212281703948975 -3.1955239176750183, 3.4860262274742126 m-16.413373947143555, 10.312827825546265 l-1.5977619588375092, 4.212281703948975 0.0, 1.1620087176561356 l1.452510952949524, 0.0 0.726255476474762, -0.726255476474762 l1.0167576372623444, -2.7597707509994507 0.14525108970701694, -2.905021905899048 l-2.4692685902118683, 1.0167576372623444 -2.0335152745246887, 1.5977619588375092 m3.3407750725746155, 0.5810043588280678 l10.748580694198608, -2.6145195960998535 m-7.8435587882995605, 2.324017435312271 l6.681550145149231, 4.938537180423737 m-10.893832445144653, -3.3407750725746155 l-6.681550145149231, 0.14525108970701694 -3.3407750725746155, 1.0167576372623444 l-1.5977619588375092, 1.3072597980499268 m10.312827825546265, -6.826801300048828 l-7.26255476474762, -2.7597707509994507 -2.178766429424286, -0.2905021794140339 m-1.5977619588375092, -14.234607219696045 l-0.5810043588280678, 3.050273060798645 -0.14525108970701694, 6.391047835350037 l0.4357532784342766, 3.776528537273407 1.452510952949524, 4.212281703948975 l-1.8882642686367035, -4.648034870624542 -1.3072597980499268, -2.0335152745246887 l-2.905021905899048, -2.4692685902118683 -1.7430131137371063, -0.14525108970701694 l-0.8715065568685532, 0.8715065568685532 0.4357532784342766, 3.4860262274742126 l4.502783715724945, 5.955294966697693 -2.6145195960998535, -1.0167576372623444 l-2.4692685902118683, -0.2905021794140339 -2.6145195960998535, 0.0 l-3.050273060798645, 0.8715065568685532 -3.1955239176750183, 2.6145195960998535 l-2.178766429424286, 2.905021905899048 -1.0167576372623444, 2.4692685902118683 l-0.4357532784342766, 3.050273060798645 0.8715065568685532, 0.8715065568685532 l3.050273060798645, 0.0 4.502783715724945, -1.452510952949524 l10.458078384399414, -6.972052454948425 -1.7430131137371063, 1.1620087176561356 l-6.536298990249634, 7.8435587882995605 -2.7597707509994507, 4.793286025524139 l-1.7430131137371063, 4.212281703948975 -0.5810043588280678, 2.324017435312271 l0.2905021794140339, 2.0335152745246887 1.8882642686367035, 0.0 l3.050273060798645, -1.3072597980499268 7.8435587882995605, -5.6647926568984985 l-0.4357532784342766, 3.4860262274742126 0.2905021794140339, 3.4860262274742126 l1.5977619588375092, 0.726255476474762 5.08378803730011, -0.2905021794140339 l2.905021905899048, -1.7430131137371063 4.357532858848572, -4.212281703948975 l-1.1620087176561356, 1.5977619588375092 -1.452510952949524, 3.4860262274742126 l0.0, 0.726255476474762 1.1620087176561356, 0.4357532784342766 l2.4692685902118683, -1.452510952949524 2.6145195960998535, -2.324017435312271 l6.972052454948425, -7.553057074546814 -1.1620087176561356, 2.178766429424286 l-0.4357532784342766, 2.178766429424286 1.8882642686367035, -0.2905021794140339 l3.63127738237381, -3.63127738237381 4.067030549049377, -5.955294966697693 l-0.14525108970701694, 3.63127738237381 1.0167576372623444, 0.5810043588280678 l2.324017435312271, -1.3072597980499268 1.7430131137371063, -2.324017435312271 l1.7430131137371063, -5.229039192199707 -0.2905021794140339, -5.08378803730011 l-0.726255476474762, -0.5810043588280678 -3.4860262274742126, 0.5810043588280678 l-1.8882642686367035, 1.7430131137371063 -1.452510952949524, 2.324017435312271 l0.726255476474762, 0.4357532784342766 2.178766429424286, -1.0167576372623444 l2.7597707509994507, -2.178766429424286 3.3407750725746155, -4.648034870624542 l0.14525108970701694, -1.5977619588375092 -1.452510952949524, -0.8715065568685532 l-3.63127738237381, 0.4357532784342766 -1.1620087176561356, 0.726255476474762 l-0.4357532784342766, 0.8715065568685532 3.050273060798645, -0.2905021794140339 l3.1955239176750183, -1.8882642686367035 4.938537180423737, -4.502783715724945 l1.5977619588375092, -2.905021905899048 -0.4357532784342766, -2.324017435312271 l-1.0167576372623444, -0.8715065568685532 -1.8882642686367035, -0.4357532784342766 l-4.067030549049377, 0.0 -1.8882642686367035, 0.8715065568685532 l3.63127738237381, -3.1955239176750183 5.6647926568984985, -6.681550145149231 l1.1620087176561356, -2.0335152745246887 0.4357532784342766, -1.8882642686367035 l0.0, -1.3072597980499268 -0.8715065568685532, -1.1620087176561356 l-2.324017435312271, -0.8715065568685532 -7.553057074546814, -0.2905021794140339 l-3.63127738237381, 0.8715065568685532 -5.810043811798096, 2.4692685902118683 l3.3407750725746155, -3.9217793941497803 0.726255476474762, -1.7430131137371063 l-1.0167576372623444, -0.4357532784342766 -2.6145195960998535, 0.0 l-3.4860262274742126, 0.5810043588280678 -6.536298990249634, 2.905021905899048 l-7.8435587882995605, 6.391047835350037 0.726255476474762, -0.14525108970701694 l2.178766429424286, -1.8882642686367035 2.0335152745246887, -2.324017435312271 l1.1620087176561356, -2.178766429424286 0.2905021794140339, -2.0335152745246887 l-1.8882642686367035, -0.726255476474762 -2.7597707509994507, 0.0 l-2.7597707509994507, 0.726255476474762 -3.776528537273407, 2.0335152745246887 l-3.63127738237381, 3.3407750725746155 -3.9217793941497803, 5.374290347099304 l-0.8715065568685532, 2.178766429424286 0.8715065568685532, -1.452510952949524 l-0.14525108970701694, -2.0335152745246887 -1.5977619588375092, -0.726255476474762 l-2.6145195960998535, -0.2905021794140339 -3.3407750725746155, 0.2905021794140339 l-3.3407750725746155, 2.178766429424286 -5.374290347099304, 7.26255476474762 l-1.452510952949524, 3.1955239176750183 -0.5810043588280678, 3.050273060798645 l0.726255476474762, 1.3072597980499268 m31.519486904144287, 1.5977619588375092 l0.0, 2.178766429424286 1.5977619588375092, 0.5810043588280678 l-0.2905021794140339, -0.8715065568685532 -0.726255476474762, -0.14525108970701694 l1.5977619588375092, 0.0 m3.63127738237381, -0.5810043588280678 l1.1620087176561356, 0.8715065568685532 1.5977619588375092, 0.14525108970701694 l0.14525108970701694, -0.8715065568685532 1.3072597980499268, -0.726255476474762 " fill="none" stroke="black" stroke-width="1" /></svg>