<?xml version="1.0" encoding="utf-8" ?>
<svg baseProfile="full" height="50.08930144831538" version="1.1" width="59.09487186931074" xmlns="http://www.w3.org/2000/svg" xmlns:ev="http://www.w3.org/2001/xml-events" xmlns:xlink="http://www.w3.org/1999/xlink"><defs /><rect fill="white" height="50.08930144831538" width="59.09487186931074" x="0" y="0" /><path d="M13.134064776822925, 10.22904030047357 m0.8715065568685532, -0.726255476474762 l9.00556743144989, -3.63127738237381 -0.4357532784342766, 4.502783715724945 l-1.7430131137371063, 4.502783715724945 2.178766429424286, 1.8882642686367035 l6.536298990249634, -4.067030549049377 -6.2457966804504395, 8.134061098098755 l1.7430131137371063, 0.14525108970701694 6.681550145149231, 2.905021905899048 l-9.441320896148682, 2.0335152745246887 2.905021905899048, 5.810043811798096 l-0.14525108970701694, 1.3072597980499268 -8.279312252998352, 1.8882642686367035 l0.2905021794140339, -2.7597707509994507 -3.9217793941497803, 4.648034870624542 l-6.681550145149231, -6.972052454948425 0.0, -15.541867017745972 l5.810043811798096, -7.407805919647217 0.5810043588280678, 0.0 l1.452510952949524, 3.050273060798645 m1.0167576372623444, 2.6145195960998535 l-5.955294966697693, 4.793286025524139 -0.2905021794140339, 0.726255476474762 l5.955294966697693, 8.569814562797546 7.1173036098480225, -6.681550145149231 l-0.726255476474762, -2.4692685902118683 -5.810043811798096, -4.067030549049377 l-2.7597707509994507, 1.3072597980499268 -0.8715065568685532, 1.3072597980499268 m6.536298990249634, 0.0 l2.0335152745246887, -3.3407750725746155 2.6145195960998535, -2.6145195960998535 l0.14525108970701694, 5.6647926568984985 -1.3072597980499268, 1.1620087176561356 m-11.184333562850952, -0.4357532784342766 l0.5810043588280678, -6.391047835350037 2.905021905899048, -2.324017435312271 l1.3072597980499268, 6.2457966804504395 m-0.5810043588280678, 6.2457966804504395 l0.0, 0.0 m4.067030549049377, -0.14525108970701694 l0.0, 0.0 m6.681550145149231, 2.7597707509994507 l5.374290347099304, -5.08378803730011 6.681550145149231, 0.8715065568685532 l3.9217793941497803, 4.212281703948975 8.42456340789795, 5.6647926568984985 l1.7430131137371063, 3.050273060798645 0.0, 2.6145195960998535 l-3.9217793941497803, 0.726255476474762 -6.391047835350037, 3.1955239176750183 l-2.905021905899048, 4.793286025524139 -0.5810043588280678, -1.1620087176561356 l-0.8715065568685532, -8.715065717697144 -0.4357532784342766, -1.0167576372623444 l-3.050273060798645, 4.357532858848572 -4.357532858848572, 4.067030549049377 l-1.0167576372623444, -0.2905021794140339 -1.5977619588375092, -8.86031687259674 l1.452510952949524, -2.6145195960998535 -2.4692685902118683, 6.10054612159729 l-1.7430131137371063, 1.1620087176561356 -4.938537180423737, -2.4692685902118683 l1.0167576372623444, -6.972052454948425 1.0167576372623444, -1.3072597980499268 m27.452456951141357, 5.519541501998901 l1.5977619588375092, -2.0335152745246887 2.4692685902118683, -5.810043811798096 l-3.4860262274742126, -4.648034870624542 -0.5810043588280678, -1.8882642686367035 l1.0167576372623444, -3.9217793941497803 4.212281703948975, 2.6145195960998535 m-40.815558433532715, 4.502783715724945 l0.0, 0.0 m1.7430131137371063, 3.1955239176750183 l2.0335152745246887, 0.0 m-0.5810043588280678, 0.726255476474762 l-0.4357532784342766, -0.14525108970701694 m-1.1620087176561356, -0.4357532784342766 l-0.2905021794140339, 0.0 m0.8715065568685532, 0.2905021794140339 l0.0, 0.0 m6.2457966804504395, 12.491593360900879 l-1.1620087176561356, 3.4860262274742126 0.0, 1.7430131137371063 l2.7597707509994507, 1.452510952949524 3.050273060798645, -2.905021905899048 l0.5810043588280678, -4.212281703948975 m6.536298990249634, 1.1620087176561356 l-1.1620087176561356, 6.10054612159729 1.0167576372623444, 2.178766429424286 l2.324017435312271, 0.4357532784342766 4.067030549049377, -0.4357532784342766 l0.5810043588280678, -2.6145195960998535 m2.6145195960998535, -5.6647926568984985 l-1.5977619588375092, 5.810043811798096 0.5810043588280678, 1.5977619588375092 l3.3407750725746155, 1.3072597980499268 2.4692685902118683, -3.1955239176750183 l0.0, -2.7597707509994507 -1.452510952949524, -5.955294966697693 m7.407805919647217, -16.8491268157959 l-0.5810043588280678, 0.0 -1.1620087176561356, 1.1620087176561356 l0.0, 1.7430131137371063 1.3072597980499268, 0.726255476474762 l0.8715065568685532, -0.2905021794140339 0.2905021794140339, -4.938537180423737 l-0.726255476474762, -1.8882642686367035 m-45.60884475708008, 0.4357532784342766 l0.14525108970701694, -2.0335152745246887 6.681550145149231, -6.2457966804504395 l1.1620087176561356, 4.938537180423737 6.681550145149231, -1.7430131137371063 l0.0, 3.63127738237381 5.519541501998901, 1.1620087176561356 l-1.8882642686367035, 5.955294966697693 5.08378803730011, 4.793286025524139 l-4.648034870624542, 3.050273060798645 -1.452510952949524, 3.050273060798645 l-5.6647926568984985, 3.776528537273407 -7.553057074546814, -0.8715065568685532 l-0.726255476474762, 3.4860262274742126 -3.63127738237381, -11.039083003997803 l-1.452510952949524, 0.726255476474762 m-1.0167576372623444, 2.7597707509994507 l5.08378803730011, -14.379857778549194 -0.8715065568685532, 0.4357532784342766 " fill="none" stroke="black" stroke-width="1" /></svg>