<?xml version="1.0" encoding="utf-8" ?>
<svg baseProfile="full" height="71.73171376809478" version="1.1" width="88.4355890005827" xmlns="http://www.w3.org/2000/svg" xmlns:ev="http://www.w3.org/2001/xml-events" xmlns:xlink="http://www.w3.org/1999/xlink"><defs /><rect fill="white" height="71.73171376809478" width="88.4355890005827" x="0" y="0" /><path d="M27.513917665928602, 23.737391447648406 m0.0, 10.312827825546265 l0.5810043588280678, 5.374290347099304 1.1620087176561356, 5.229039192199707 l1.3072597980499268, 3.4860262274742126 2.0335152745246887, 3.1955239176750183 l1.8882642686367035, 1.5977619588375092 3.3407750725746155, 1.452510952949524 l2.7597707509994507, 0.14525108970701694 7.26255476474762, -2.6145195960998535 l3.63127738237381, -2.324017435312271 2.6145195960998535, -3.050273060798645 l1.7430131137371063, -4.938537180423737 0.726255476474762, -3.776528537273407 l0.0, -4.502783715724945 -0.726255476474762, -3.9217793941497803 l-0.8715065568685532, -2.178766429424286 -1.0167576372623444, -1.452510952949524 l-1.8882642686367035, -1.452510952949524 -11.039083003997803, -1.8882642686367035 l-3.9217793941497803, 0.0 -13.798853158950806, 2.0335152745246887 m-1.7430131137371063, -12.927347421646118 l1.1620087176561356, -1.452510952949524 1.7430131137371063, -1.0167576372623444 l5.229039192199707, -1.8882642686367035 13.653602600097656, -2.178766429424286 l7.8435587882995605, 0.0 4.212281703948975, 1.3072597980499268 l1.8882642686367035, 2.324017435312271 5.519541501998901, 0.0 l1.5977619588375092, 1.5977619588375092 0.4357532784342766, 3.9217793941497803 l8.86031687259674, 3.9217793941497803 0.726255476474762, 1.0167576372623444 l-0.5810043588280678, 1.1620087176561356 -3.63127738237381, 3.63127738237381 l-0.726255476474762, 1.0167576372623444 -0.2905021794140339, 1.5977619588375092 l1.8882642686367035, 1.1620087176561356 7.26255476474762, 2.178766429424286 l2.4692685902118683, 1.3072597980499268 0.4357532784342766, 1.3072597980499268 l-1.0167576372623444, 1.7430131137371063 -4.648034870624542, 4.212281703948975 l-1.0167576372623444, 1.452510952949524 0.4357532784342766, 1.1620087176561356 l6.681550145149231, 2.0335152745246887 1.0167576372623444, 0.4357532784342766 l0.726255476474762, 1.0167576372623444 -1.452510952949524, 1.8882642686367035 l-5.374290347099304, 3.9217793941497803 -0.4357532784342766, 1.8882642686367035 l1.1620087176561356, 1.5977619588375092 -1.0167576372623444, 2.0335152745246887 l-2.324017435312271, 1.5977619588375092 -6.972052454948425, 3.3407750725746155 l-1.8882642686367035, 0.2905021794140339 -12.782095670700073, 4.793286025524139 l-1.5977619588375092, -1.3072597980499268 -3.1955239176750183, 0.0 l-12.491593360900879, 2.178766429424286 -4.212281703948975, 0.0 l-1.452510952949524, -1.1620087176561356 -0.2905021794140339, -3.9217793941497803 l-0.726255476474762, -0.726255476474762 -2.178766429424286, -0.14525108970701694 l-7.988809943199158, 2.178766429424286 -3.776528537273407, 0.2905021794140339 l-0.5810043588280678, -1.1620087176561356 2.178766429424286, -5.810043811798096 l-0.4357532784342766, -2.0335152745246887 -2.7597707509994507, -2.0335152745246887 l-7.553057074546814, -2.178766429424286 -0.2905021794140339, -0.8715065568685532 l1.1620087176561356, -1.8882642686367035 3.776528537273407, -4.067030549049377 l1.7430131137371063, -2.905021905899048 0.0, -1.0167576372623444 l-1.452510952949524, -1.8882642686367035 -0.726255476474762, -2.178766429424286 l4.212281703948975, -6.2457966804504395 0.2905021794140339, -1.5977619588375092 l-0.4357532784342766, -6.2457966804504395 0.4357532784342766, -1.452510952949524 l1.3072597980499268, -2.0335152745246887 4.938537180423737, -4.212281703948975 l0.2905021794140339, -1.452510952949524 2.4692685902118683, -1.3072597980499268 l7.553057074546814, -2.4692685902118683 0.8715065568685532, -0.726255476474762 " fill="none" stroke="black" stroke-width="1" /></svg>