<?xml version="1.0" encoding="utf-8" ?>
<svg baseProfile="full" height="96.424400806427" version="1.1" width="120.1003328897059" xmlns="http://www.w3.org/2000/svg" xmlns:ev="http://www.w3.org/2001/xml-events" xmlns:xlink="http://www.w3.org/1999/xlink"><defs /><rect fill="white" height="96.424400806427" width="120.1003328897059" x="0" y="0" /><path d="M65.71496260352433, 90.69814532063901 m-2.4692685902118683, 0.726255476474762 l-1.7430131137371063, -0.2905021794140339 -4.212281703948975, -2.4692685902118683 l-4.212281703948975, -4.067030549049377 -2.905021905899048, -8.86031687259674 l-0.4357532784342766, -3.1955239176750183 0.0, -8.279312252998352 l0.8715065568685532, -1.0167576372623444 6.536298990249634, -2.178766429424286 l5.519541501998901, -1.452510952949524 4.212281703948975, -0.4357532784342766 l3.63127738237381, 0.0 2.0335152745246887, 1.0167576372623444 l1.5977619588375092, 1.3072597980499268 1.0167576372623444, 2.178766429424286 l0.4357532784342766, 2.178766429424286 0.0, 10.458078384399414 l-0.8715065568685532, 4.067030549049377 -2.905021905899048, 5.229039192199707 l-2.324017435312271, 1.7430131137371063 -4.357532858848572, 1.5977619588375092 m-5.955294966697693, 1.0167576372623444 l-4.357532858848572, -0.2905021794140339 -9.296069741249084, -4.502783715724945 l-10.16757607460022, -9.296069741249084 -2.7597707509994507, -3.4860262274742126 l-1.3072597980499268, -2.7597707509994507 -1.8882642686367035, -5.955294966697693 l-0.726255476474762, -6.536298990249634 0.4357532784342766, -9.150818586349487 l0.5810043588280678, -2.0335152745246887 2.0335152745246887, -3.63127738237381 l7.1173036098480225, -6.2457966804504395 2.905021905899048, -1.452510952949524 l5.6647926568984985, -1.5977619588375092 5.08378803730011, -0.5810043588280678 l13.072597980499268, 0.14525108970701694 8.86031687259674, 2.178766429424286 l4.502783715724945, 2.0335152745246887 5.229039192199707, 3.776528537273407 l2.6145195960998535, 3.63127738237381 1.8882642686367035, 5.810043811798096 l0.8715065568685532, 11.184333562850952 -0.5810043588280678, 2.324017435312271 l-4.502783715724945, 10.02232551574707 -5.08378803730011, 7.1173036098480225 l-3.1955239176750183, 3.050273060798645 -5.229039192199707, 1.7430131137371063 l-6.391047835350037, 0.5810043588280678 m-5.229039192199707, -17.139629125595093 l-2.6145195960998535, 0.4357532784342766 -0.14525108970701694, 0.8715065568685532 l0.0, 0.726255476474762 0.726255476474762, 0.5810043588280678 l1.5977619588375092, -0.2905021794140339 0.4357532784342766, -0.8715065568685532 m4.648034870624542, -2.905021905899048 l2.178766429424286, -0.14525108970701694 0.5810043588280678, -0.726255476474762 l-0.726255476474762, -0.14525108970701694 -0.5810043588280678, 0.726255476474762 l0.14525108970701694, 1.0167576372623444 3.4860262274742126, 1.7430131137371063 l0.5810043588280678, -0.726255476474762 -0.2905021794140339, -0.8715065568685532 m-16.558624505996704, -21.787664890289307 l-2.178766429424286, 0.4357532784342766 m-2.6145195960998535, 0.0 l3.776528537273407, 1.3072597980499268 1.452510952949524, 0.0 l-0.726255476474762, -0.726255476474762 -3.776528537273407, 0.2905021794140339 l4.648034870624542, -0.14525108970701694 -0.2905021794140339, -1.0167576372623444 l-3.776528537273407, 0.0 0.5810043588280678, 0.2905021794140339 m21.93291425704956, -1.5977619588375092 l-2.324017435312271, 0.0 -0.726255476474762, 0.4357532784342766 l0.726255476474762, 0.726255476474762 2.324017435312271, 0.5810043588280678 l2.7597707509994507, 0.0 0.8715065568685532, -0.5810043588280678 l-0.2905021794140339, -0.726255476474762 -2.324017435312271, -0.14525108970701694 l-0.8715065568685532, 0.2905021794140339 0.726255476474762, 0.2905021794140339 l-3.776528537273407, -1.1620087176561356 m-28.75971555709839, -10.458078384399414 l-10.16757607460022, -1.7430131137371063 -9.731823205947876, -0.4357532784342766 l-5.08378803730011, 2.324017435312271 -1.7430131137371063, 2.905021905899048 l11.474835872650146, 1.3072597980499268 5.229039192199707, 1.3072597980499268 l3.63127738237381, 1.7430131137371063 m41.832313537597656, -10.02232551574707 l-1.452510952949524, 0.0 -3.050273060798645, 1.1620087176561356 l1.5977619588375092, 0.2905021794140339 13.94410490989685, -3.050273060798645 l12.782095670700073, 0.0 1.452510952949524, 0.5810043588280678 l1.452510952949524, 3.050273060798645 -1.1620087176561356, 0.726255476474762 l-11.474835872650146, 2.905021905899048 -6.2457966804504395, 3.050273060798645 l-0.726255476474762, 0.5810043588280678 -0.4357532784342766, 1.7430131137371063 m18.59213948249817, 5.6647926568984985 l0.0, 22.80442237854004 -0.726255476474762, 4.938537180423737 l-1.8882642686367035, 4.357532858848572 -4.357532858848572, 4.502783715724945 l-6.681550145149231, 3.1955239176750183 -7.8435587882995605, 2.0335152745246887 l-6.391047835350037, 0.8715065568685532 -23.240175247192383, 0.0 l-3.4860262274742126, -0.4357532784342766 -10.748580694198608, -2.905021905899048 l-5.519541501998901, -2.4692685902118683 -5.6647926568984985, -3.9217793941497803 l-2.324017435312271, -2.178766429424286 -3.3407750725746155, -4.648034870624542 l-3.1955239176750183, -5.6647926568984985 -2.4692685902118683, -7.8435587882995605 l-0.8715065568685532, -5.08378803730011 -0.14525108970701694, -16.413373947143555 l0.8715065568685532, -7.988809943199158 2.905021905899048, -11.76533818244934 l1.0167576372623444, -2.324017435312271 2.6145195960998535, -3.776528537273407 l1.3072597980499268, -1.3072597980499268 4.502783715724945, -2.6145195960998535 l5.08378803730011, -1.5977619588375092 3.050273060798645, -0.4357532784342766 l25.854694843292236, 0.0 23.675928115844727, 3.1955239176750183 l10.748580694198608, 3.3407750725746155 3.9217793941497803, 2.7597707509994507 l4.067030549049377, 10.312827825546265 -0.4357532784342766, 28.1787109375 l0.5810043588280678, 4.067030549049377 m13.363100290298462, -44.15633201599121 l-8.134061098098755, 0.0 -25.418941974639893, 2.905021905899048 l-6.10054612159729, 1.7430131137371063 -19.027893543243408, 0.0 l5.519541501998901, -1.1620087176561356 1.0167576372623444, -0.4357532784342766 l-1.5977619588375092, -0.14525108970701694 -10.748580694198608, 2.324017435312271 l0.2905021794140339, 0.8715065568685532 12.055840492248535, -0.14525108970701694 l14.08935546875, -2.178766429424286 1.3072597980499268, -0.2905021794140339 l-0.8715065568685532, -0.14525108970701694 -28.614466190338135, 0.0 l-6.681550145149231, 0.4357532784342766 1.0167576372623444, 1.5977619588375092 l6.391047835350037, 0.0 7.698307633399963, -2.324017435312271 l5.374290347099304, -2.324017435312271 -30.9384822845459, 4.357532858848572 l-1.452510952949524, 0.8715065568685532 -0.5810043588280678, 1.3072597980499268 l3.776528537273407, 1.7430131137371063 4.793286025524139, 0.726255476474762 l12.055840492248535, -0.14525108970701694 11.620087623596191, -2.905021905899048 l5.229039192199707, -3.050273060798645 4.212281703948975, -3.3407750725746155 l-1.5977619588375092, -0.14525108970701694 -21.206660270690918, 2.6145195960998535 l-13.94410490989685, 0.726255476474762 3.9217793941497803, 0.0 l14.960862398147583, -2.4692685902118683 8.86031687259674, -2.4692685902118683 l10.16757607460022, -1.8882642686367035 15.251364707946777, -4.212281703948975 l-48.80436897277832, 6.826801300048828 -1.8882642686367035, 0.726255476474762 l1.8882642686367035, -1.5977619588375092 2.7597707509994507, -1.452510952949524 l-33.40775012969971, 0.14525108970701694 -3.3407750725746155, 0.2905021794140339 l1.5977619588375092, 0.5810043588280678 12.491593360900879, -1.3072597980499268 l26.726200580596924, -7.407805919647217 -10.16757607460022, 4.212281703948975 l-16.8491268157959, 7.988809943199158 -7.988809943199158, 5.6647926568984985 l-1.7430131137371063, 2.7597707509994507 6.10054612159729, 1.0167576372623444 l15.251364707946777, 0.0 " fill="none" stroke="black" stroke-width="1" /></svg>