<?xml version="1.0" encoding="utf-8" ?>
<svg baseProfile="full" height="43.84350455366075" version="1.1" width="44.715011389926076" xmlns="http://www.w3.org/2000/svg" xmlns:ev="http://www.w3.org/2001/xml-events" xmlns:xlink="http://www.w3.org/1999/xlink"><defs /><rect fill="white" height="43.84350455366075" width="44.715011389926076" x="0" y="0" /><path d="M15.603329949080944, 6.452510263770819 m-2.324017435312271, 1.452510952949524 l-2.0335152745246887, 3.050273060798645 0.0, 6.681550145149231 l-1.3072597980499268, 2.324017435312271 -0.14525108970701694, 4.212281703948975 l1.3072597980499268, 2.7597707509994507 4.212281703948975, 3.63127738237381 l3.3407750725746155, 1.1620087176561356 2.7597707509994507, 0.14525108970701694 m-1.7430131137371063, -14.960862398147583 l-0.726255476474762, 0.0 -0.4357532784342766, 0.726255476474762 l0.0, 0.8715065568685532 1.452510952949524, 0.4357532784342766 l-0.2905021794140339, -2.178766429424286 m-0.2905021794140339, 2.178766429424286 l-1.1620087176561356, 2.178766429424286 -0.8715065568685532, 0.5810043588280678 l-2.324017435312271, 0.2905021794140339 m4.067030549049377, -2.178766429424286 l0.4357532784342766, 2.905021905899048 1.0167576372623444, 1.1620087176561356 m-3.63127738237381, -8.134061098098755 l-0.8715065568685532, 3.050273060798645 m8.279312252998352, -1.8882642686367035 l-0.5810043588280678, 3.3407750725746155 m-4.502783715724945, -14.379857778549194 l2.324017435312271, -0.726255476474762 2.6145195960998535, -0.14525108970701694 l1.8882642686367035, 1.3072597980499268 4.502783715724945, 5.6647926568984985 l0.2905021794140339, 5.08378803730011 m-0.14525108970701694, 2.905021905899048 l0.726255476474762, 3.776528537273407 -0.2905021794140339, 3.050273060798645 l-2.178766429424286, 2.324017435312271 -2.7597707509994507, 1.1620087176561356 m-19.754148721694946, -3.1955239176750183 l-1.1620087176561356, 2.324017435312271 -0.2905021794140339, 2.4692685902118683 l0.8715065568685532, 0.4357532784342766 4.357532858848572, 0.14525108970701694 l2.0335152745246887, 2.324017435312271 0.726255476474762, -0.14525108970701694 l1.1620087176561356, -1.452510952949524 1.452510952949524, 0.14525108970701694 l2.178766429424286, 3.776528537273407 1.5977619588375092, 1.1620087176561356 l1.452510952949524, 0.14525108970701694 3.4860262274742126, -2.905021905899048 l2.7597707509994507, 3.1955239176750183 1.452510952949524, 0.14525108970701694 l1.8882642686367035, -4.357532858848572 1.0167576372623444, -0.4357532784342766 l1.452510952949524, 0.4357532784342766 3.050273060798645, 0.0 l-0.14525108970701694, -0.726255476474762 -1.452510952949524, -1.1620087176561356 l0.726255476474762, -0.8715065568685532 2.6145195960998535, -1.0167576372623444 l-2.4692685902118683, -2.178766429424286 -0.14525108970701694, -0.726255476474762 l3.050273060798645, -1.8882642686367035 1.1620087176561356, -1.3072597980499268 l-1.452510952949524, -1.0167576372623444 -0.14525108970701694, -0.726255476474762 l2.0335152745246887, -3.3407750725746155 -2.0335152745246887, -1.0167576372623444 " fill="none" stroke="black" stroke-width="1" /></svg>