<?xml version="1.0" encoding="utf-8" ?>
<svg baseProfile="full" height="62.72614575922489" version="1.1" width="80.88253271766007" xmlns="http://www.w3.org/2000/svg" xmlns:ev="http://www.w3.org/2001/xml-events" xmlns:xlink="http://www.w3.org/1999/xlink"><defs /><rect fill="white" height="62.72614575922489" width="80.88253271766007" x="0" y="0" /><path d="M17.055840091779828, 25.480404943227768 m-0.726255476474762, 0.4357532784342766 l-0.4357532784342766, 2.324017435312271 1.452510952949524, 1.0167576372623444 l3.050273060798645, 0.2905021794140339 0.4357532784342766, 0.726255476474762 l-0.4357532784342766, 3.63127738237381 0.14525108970701694, 4.502783715724945 l1.8882642686367035, 14.08935546875 0.5810043588280678, 2.178766429424286 l0.726255476474762, 0.5810043588280678 3.63127738237381, 1.1620087176561356 l5.374290347099304, 0.14525108970701694 -1.8882642686367035, -4.357532858848572 l-0.14525108970701694, -1.452510952949524 -1.3072597980499268, 1.1620087176561356 l-3.9217793941497803, 1.1620087176561356 -0.4357532784342766, 1.452510952949524 l1.452510952949524, 0.2905021794140339 3.776528537273407, -0.726255476474762 l0.5810043588280678, 3.1955239176750183 2.178766429424286, 0.0 l2.6145195960998535, -2.4692685902118683 2.6145195960998535, -5.08378803730011 l2.0335152745246887, -13.217849731445312 1.1620087176561356, -2.905021905899048 l3.4860262274742126, -4.502783715724945 1.0167576372623444, -2.178766429424286 l0.2905021794140339, -2.178766429424286 -0.14525108970701694, -0.726255476474762 l-2.905021905899048, -0.2905021794140339 -5.810043811798096, 2.324017435312271 l-1.452510952949524, 0.14525108970701694 -7.988809943199158, -1.7430131137371063 l-7.1173036098480225, -0.14525108970701694 -2.178766429424286, 0.5810043588280678 l-0.4357532784342766, 0.726255476474762 0.8715065568685532, 1.7430131137371063 l3.1955239176750183, 2.178766429424286 m-0.726255476474762, 2.178766429424286 l3.63127738237381, 1.0167576372623444 m3.63127738237381, 0.14525108970701694 l4.793286025524139, 1.1620087176561356 m-11.474835872650146, 22.949671745300293 l-7.698307633399963, -11.474835872650146 -7.553057074546814, -7.698307633399963 l-1.5977619588375092, -3.4860262274742126 -0.2905021794140339, -2.4692685902118683 l2.178766429424286, -0.5810043588280678 0.726255476474762, -2.324017435312271 l1.0167576372623444, -15.251364707946777 0.5810043588280678, -2.4692685902118683 l1.5977619588375092, 2.4692685902118683 1.452510952949524, 0.0 l6.391047835350037, -6.2457966804504395 3.050273060798645, -1.8882642686367035 l2.178766429424286, -0.5810043588280678 1.5977619588375092, 0.4357532784342766 l2.4692685902118683, 4.357532858848572 0.726255476474762, 0.2905021794140339 l2.905021905899048, -0.5810043588280678 5.519541501998901, -2.6145195960998535 l6.10054612159729, -0.8715065568685532 1.7430131137371063, 1.0167576372623444 l3.3407750725746155, 6.2457966804504395 1.5977619588375092, 1.8882642686367035 l2.6145195960998535, -0.14525108970701694 9.441320896148682, -2.7597707509994507 l3.63127738237381, -0.4357532784342766 0.2905021794140339, 1.7430131137371063 l-2.905021905899048, 6.536298990249634 -0.14525108970701694, 3.1955239176750183 l10.458078384399414, 0.14525108970701694 2.324017435312271, 1.0167576372623444 l-0.14525108970701694, 1.5977619588375092 -4.357532858848572, 6.681550145149231 l-3.1955239176750183, 2.905021905899048 -5.519541501998901, 3.3407750725746155 l-16.26812219619751, 7.698307633399963 1.3072597980499268, 0.2905021794140339 l0.726255476474762, 0.726255476474762 0.0, 2.6145195960998535 l-0.8715065568685532, 1.5977619588375092 -3.050273060798645, 2.905021905899048 l-6.2457966804504395, 2.905021905899048 -9.00556743144989, -0.14525108970701694 " fill="none" stroke="black" stroke-width="1" /></svg>