<?xml version="1.0" encoding="utf-8" ?>
<svg baseProfile="full" height="51.97756575420499" version="1.1" width="70.56970418430865" xmlns="http://www.w3.org/2000/svg" xmlns:ev="http://www.w3.org/2001/xml-events" xmlns:xlink="http://www.w3.org/1999/xlink"><defs /><rect fill="white" height="51.97756575420499" width="70.56970418430865" x="0" y="0" /><path d="M51.6255990229547, 15.02232595346868 m-3.1955239176750183, -0.4357532784342766 l-1.452510952949524, 0.5810043588280678 -1.452510952949524, 1.3072597980499268 l-1.1620087176561356, 3.63127738237381 -0.2905021794140339, 5.374290347099304 l2.178766429424286, 3.1955239176750183 1.452510952949524, 1.3072597980499268 l2.324017435312271, 0.726255476474762 1.452510952949524, 0.0 l2.324017435312271, -1.7430131137371063 1.452510952949524, -3.3407750725746155 l0.4357532784342766, -4.793286025524139 -0.726255476474762, -2.178766429424286 l-2.0335152745246887, -2.0335152745246887 m-9.296069741249084, 3.1955239176750183 l2.6145195960998535, -10.748580694198608 0.2905021794140339, 5.229039192199707 l0.726255476474762, 0.14525108970701694 4.793286025524139, -3.9217793941497803 l3.3407750725746155, -1.8882642686367035 0.726255476474762, 0.726255476474762 l0.14525108970701694, 6.972052454948425 -0.8715065568685532, 2.0335152745246887 m-12.34634280204773, 10.458078384399414 l-1.3072597980499268, -1.452510952949524 -2.6145195960998535, -7.553057074546814 l-0.726255476474762, -4.067030549049377 2.324017435312271, 3.9217793941497803 l3.3407750725746155, 4.357532858848572 0.2905021794140339, -6.681550145149231 l2.0335152745246887, -12.34634280204773 1.5977619588375092, 1.3072597980499268 l2.6145195960998535, 3.63127738237381 4.938537180423737, -2.178766429424286 l0.5810043588280678, 9.441320896148682 5.810043811798096, -2.6145195960998535 l2.178766429424286, -0.2905021794140339 0.726255476474762, 0.4357532784342766 l0.726255476474762, 4.067030549049377 -1.8882642686367035, 3.63127738237381 l1.8882642686367035, 3.63127738237381 0.0, 5.374290347099304 l-1.1620087176561356, 3.050273060798645 -1.5977619588375092, 1.452510952949524 l-2.324017435312271, 0.0 -2.178766429424286, -1.0167576372623444 l-1.452510952949524, -2.0335152745246887 0.5810043588280678, 1.8882642686367035 l0.0, 2.178766429424286 -0.5810043588280678, 1.7430131137371063 l-1.3072597980499268, 0.5810043588280678 -2.4692685902118683, -0.5810043588280678 l-3.1955239176750183, -1.5977619588375092 -3.9217793941497803, -3.776528537273407 l-2.0335152745246887, -3.050273060798645 -1.0167576372623444, 1.452510952949524 l-0.14525108970701694, -3.1955239176750183 0.5810043588280678, -4.793286025524139 l1.7430131137371063, -3.9217793941497803 0.2905021794140339, -4.938537180423737 l2.324017435312271, -4.648034870624542 m-3.776528537273407, 9.586572051048279 l-0.726255476474762, -1.452510952949524 -2.178766429424286, -1.1620087176561356 l-8.279312252998352, -0.2905021794140339 -2.0335152745246887, 0.2905021794140339 l-6.2457966804504395, 4.357532858848572 -3.1955239176750183, 5.229039192199707 l-1.7430131137371063, 1.5977619588375092 -1.7430131137371063, 2.6145195960998535 l-2.7597707509994507, 4.938537180423737 -1.452510952949524, 4.793286025524139 l0.2905021794140339, 5.229039192199707 0.726255476474762, 1.0167576372623444 l0.8715065568685532, -0.2905021794140339 5.374290347099304, -7.698307633399963 l0.726255476474762, 0.2905021794140339 0.8715065568685532, 1.452510952949524 l0.8715065568685532, 3.3407750725746155 2.4692685902118683, 2.0335152745246887 l0.726255476474762, -0.2905021794140339 3.63127738237381, -7.26255476474762 l0.726255476474762, -0.5810043588280678 6.826801300048828, 0.0 l3.776528537273407, 2.0335152745246887 3.050273060798645, 6.681550145149231 l2.324017435312271, -4.938537180423737 0.726255476474762, -4.793286025524139 l2.324017435312271, 2.0335152745246887 2.4692685902118683, -1.0167576372623444 l1.7430131137371063, -1.8882642686367035 -1.8882642686367035, 1.7430131137371063 l-1.5977619588375092, 0.5810043588280678 m-27.161953449249268, -11.474835872650146 l-4.793286025524139, -1.452510952949524 -4.212281703948975, 0.0 l-5.810043811798096, 1.3072597980499268 -1.8882642686367035, 1.452510952949524 l-1.7430131137371063, 2.7597707509994507 0.14525108970701694, 4.357532858848572 l1.452510952949524, 0.4357532784342766 " fill="none" stroke="black" stroke-width="1" /></svg>