<?xml version="1.0" encoding="utf-8" ?>
<svg baseProfile="full" height="69.55294747836888" version="1.1" width="58.36861355230212" xmlns="http://www.w3.org/2000/svg" xmlns:ev="http://www.w3.org/2001/xml-events" xmlns:xlink="http://www.w3.org/1999/xlink"><defs /><rect fill="white" height="69.55294747836888" width="58.36861355230212" x="0" y="0" /><path d="M30.999946296215057, 11.245797351002693 m-5.6647926568984985, 0.4357532784342766 l-3.63127738237381, 2.324017435312271 -4.648034870624542, 7.8435587882995605 l-2.905021905899048, 7.8435587882995605 -0.4357532784342766, 3.050273060798645 l0.14525108970701694, 6.826801300048828 0.8715065568685532, 3.4860262274742126 l1.3072597980499268, 3.3407750725746155 1.7430131137371063, 2.6145195960998535 l1.452510952949524, 1.452510952949524 3.3407750725746155, 1.5977619588375092 l2.7597707509994507, 0.0 5.955294966697693, -1.7430131137371063 l11.474835872650146, -5.519541501998901 4.212281703948975, -2.7597707509994507 l1.1620087176561356, -2.0335152745246887 0.14525108970701694, -1.3072597980499268 l0.0, -3.1955239176750183 -1.1620087176561356, -4.212281703948975 l-3.63127738237381, -8.134061098098755 -2.178766429424286, -3.050273060798645 l-1.452510952949524, -1.5977619588375092 -4.212281703948975, -2.905021905899048 l-9.731823205947876, -4.648034870624542 m0.5810043588280678, -0.5810043588280678 l-2.4692685902118683, -2.0335152745246887 -3.4860262274742126, -1.452510952949524 l-7.407805919647217, -1.8882642686367035 0.0, 0.726255476474762 l2.178766429424286, 4.067030549049377 0.2905021794140339, 1.7430131137371063 l-1.0167576372623444, 0.0 -0.726255476474762, -0.726255476474762 l-3.9217793941497803, -1.1620087176561356 -1.8882642686367035, 0.14525108970701694 l-1.1620087176561356, 0.8715065568685532 -0.8715065568685532, 2.4692685902118683 l0.0, 3.050273060798645 0.8715065568685532, 3.050273060798645 l-1.452510952949524, 2.7597707509994507 -0.4357532784342766, 2.178766429424286 l0.0, 3.9217793941497803 0.4357532784342766, 1.0167576372623444 l0.726255476474762, 0.14525108970701694 0.726255476474762, -3.776528537273407 l-0.5810043588280678, 4.212281703948975 0.0, 3.050273060798645 l0.5810043588280678, 2.4692685902118683 2.6145195960998535, 2.324017435312271 l0.5810043588280678, 3.1955239176750183 5.955294966697693, 11.184333562850952 l4.502783715724945, 5.6647926568984985 3.050273060798645, 2.178766429424286 l1.3072597980499268, 1.5977619588375092 1.7430131137371063, 1.1620087176561356 l3.3407750725746155, 0.8715065568685532 2.324017435312271, -0.14525108970701694 l1.3072597980499268, -1.1620087176561356 2.7597707509994507, 1.8882642686367035 l3.4860262274742126, 0.5810043588280678 5.229039192199707, 0.0 l2.324017435312271, -1.0167576372623444 0.0, -0.726255476474762 l4.067030549049377, -1.452510952949524 0.8715065568685532, -1.1620087176561356 l0.0, -1.8882642686367035 -1.3072597980499268, -2.4692685902118683 l1.0167576372623444, -2.7597707509994507 -0.14525108970701694, -2.0335152745246887 l-3.1955239176750183, -6.391047835350037 0.14525108970701694, -1.0167576372623444 l3.1955239176750183, -2.905021905899048 0.726255476474762, -2.178766429424286 l-0.2905021794140339, -4.067030549049377 0.8715065568685532, -3.1955239176750183 l-0.726255476474762, -1.0167576372623444 -0.2905021794140339, -4.212281703948975 l-2.6145195960998535, -1.0167576372623444 -2.0335152745246887, 0.4357532784342766 l-2.324017435312271, -7.26255476474762 -0.8715065568685532, -0.8715065568685532 l-2.4692685902118683, -0.5810043588280678 -0.726255476474762, -2.178766429424286 l-3.4860262274742126, -1.7430131137371063 -3.4860262274742126, -3.3407750725746155 l-5.6647926568984985, -2.324017435312271 -4.067030549049377, -0.2905021794140339 l0.0, 2.0335152745246887 m-1.452510952949524, 13.798853158950806 l-1.1620087176561356, 1.8882642686367035 -0.2905021794140339, 1.452510952949524 l-0.14525108970701694, 1.0167576372623444 0.726255476474762, 0.2905021794140339 l0.5810043588280678, -3.63127738237381 -0.8715065568685532, 0.4357532784342766 l-0.726255476474762, 0.8715065568685532 1.5977619588375092, -1.3072597980499268 l0.14525108970701694, 0.726255476474762 3.9217793941497803, -0.4357532784342766 l1.452510952949524, -1.5977619588375092 2.178766429424286, -0.726255476474762 m1.5977619588375092, -0.5810043588280678 l0.2905021794140339, 4.212281703948975 0.726255476474762, 0.0 l1.7430131137371063, -2.4692685902118683 -0.726255476474762, 0.0 l-0.8715065568685532, 0.726255476474762 -0.8715065568685532, 1.452510952949524 l0.726255476474762, -1.1620087176561356 0.0, -2.0335152745246887 l-0.726255476474762, -0.4357532784342766 -0.8715065568685532, 0.4357532784342766 l-0.14525108970701694, 0.8715065568685532 0.14525108970701694, 0.8715065568685532 l0.8715065568685532, 0.14525108970701694 0.8715065568685532, -1.5977619588375092 l-0.726255476474762, -0.14525108970701694 0.0, 0.726255476474762 m-5.374290347099304, 7.407805919647217 l2.178766429424286, -0.5810043588280678 -0.2905021794140339, 2.4692685902118683 l-1.3072597980499268, 3.1955239176750183 -0.726255476474762, -4.502783715724945 l-0.4357532784342766, -0.2905021794140339 m0.8715065568685532, 4.648034870624542 l0.0, 1.5977619588375092 -1.1620087176561356, 3.3407750725746155 l-1.452510952949524, 1.0167576372623444 " fill="none" stroke="black" stroke-width="1" /></svg>