<?xml version="1.0" encoding="utf-8" ?>
<svg baseProfile="full" height="77.54175864160061" version="1.1" width="111.53051352128386" xmlns="http://www.w3.org/2000/svg" xmlns:ev="http://www.w3.org/2001/xml-events" xmlns:xlink="http://www.w3.org/1999/xlink"><defs /><rect fill="white" height="77.54175864160061" width="111.53051352128386" x="0" y="0" /><path d="M65.56970502249897, 31.29044714383781 m-9.296069741249084, -0.14525108970701694 l-2.7597707509994507, 0.5810043588280678 -4.357532858848572, 2.6145195960998535 l-2.7597707509994507, 3.050273060798645 -3.9217793941497803, 6.536298990249634 l-0.5810043588280678, 2.178766429424286 -0.2905021794140339, 4.502783715724945 l0.5810043588280678, 2.178766429424286 2.7597707509994507, 2.178766429424286 l3.9217793941497803, 1.8882642686367035 6.2457966804504395, 2.178766429424286 l14.670360088348389, 2.178766429424286 5.229039192199707, 0.0 l3.3407750725746155, -1.3072597980499268 2.178766429424286, -2.178766429424286 l1.5977619588375092, -2.6145195960998535 0.8715065568685532, -3.3407750725746155 l0.5810043588280678, -11.76533818244934 -1.0167576372623444, -3.63127738237381 l-1.7430131137371063, -3.4860262274742126 -4.357532858848572, -4.648034870624542 l-4.648034870624542, -1.7430131137371063 -6.391047835350037, -0.5810043588280678 m-24.11168098449707, -2.7597707509994507 l0.14525108970701694, -9.586572051048279 3.050273060798645, -4.648034870624542 l2.0335152745246887, -1.1620087176561356 5.374290347099304, -0.14525108970701694 l2.905021905899048, 1.7430131137371063 1.8882642686367035, 2.0335152745246887 l3.050273060798645, 5.519541501998901 1.8882642686367035, -0.14525108970701694 l2.4692685902118683, -1.7430131137371063 8.42456340789795, -8.134061098098755 l3.3407750725746155, -1.8882642686367035 0.8715065568685532, 0.0 l0.8715065568685532, 0.8715065568685532 0.5810043588280678, 1.5977619588375092 l0.4357532784342766, 1.7430131137371063 0.0, 4.648034870624542 l0.4357532784342766, 0.726255476474762 13.217849731445312, 2.178766429424286 l3.3407750725746155, 1.0167576372623444 3.050273060798645, 1.5977619588375092 l0.5810043588280678, 0.726255476474762 0.0, 1.1620087176561356 l-6.972052454948425, 6.826801300048828 12.055840492248535, 10.02232551574707 l1.3072597980499268, 1.5977619588375092 0.8715065568685532, 2.4692685902118683 l-1.0167576372623444, 1.3072597980499268 -2.7597707509994507, 2.0335152745246887 l-7.698307633399963, 3.3407750725746155 -2.178766429424286, 0.4357532784342766 l2.6145195960998535, 3.63127738237381 1.5977619588375092, 5.810043811798096 l-0.14525108970701694, 1.452510952949524 -3.1955239176750183, 3.1955239176750183 l-1.5977619588375092, 0.5810043588280678 -3.63127738237381, -1.5977619588375092 l-7.26255476474762, -2.0335152745246887 m-41.6870641708374, -12.782095670700073 l-3.63127738237381, 0.0 -9.296069741249084, -1.7430131137371063 l-0.5810043588280678, -3.3407750725746155 0.2905021794140339, -5.374290347099304 l3.3407750725746155, -4.212281703948975 2.4692685902118683, -1.452510952949524 l2.324017435312271, -0.726255476474762 5.955294966697693, -0.4357532784342766 l-5.955294966697693, -2.178766429424286 -0.8715065568685532, -0.8715065568685532 l-0.14525108970701694, -2.178766429424286 0.8715065568685532, -1.452510952949524 l3.4860262274742126, -2.178766429424286 1.8882642686367035, -0.5810043588280678 l3.9217793941497803, -0.14525108970701694 m13.363100290298462, 20.62565565109253 l0.0, 0.0 m14.379857778549194, 3.1955239176750183 l0.0, 0.0 m-9.441320896148682, 1.8882642686367035 l0.0, 0.0 m-3.1955239176750183, -0.726255476474762 l-2.905021905899048, -0.5810043588280678 -5.955294966697693, -2.7597707509994507 m6.10054612159729, 5.229039192199707 l-7.8435587882995605, 2.905021905899048 m18.737391233444214, -1.8882642686367035 l9.00556743144989, -0.14525108970701694 m-7.988809943199158, 1.3072597980499268 l4.502783715724945, 4.793286025524139 m-2.6145195960998535, -5.229039192199707 l6.2457966804504395, 0.2905021794140339 m-23.675928115844727, 9.00556743144989 l-1.0167576372623444, 2.4692685902118683 -1.3072597980499268, 1.7430131137371063 l-1.8882642686367035, 1.452510952949524 -2.0335152745246887, 0.5810043588280678 l-15.541867017745972, -2.178766429424286 -12.782095670700073, -2.905021905899048 l-2.324017435312271, 0.0 -1.1620087176561356, 1.0167576372623444 l1.7430131137371063, 2.6145195960998535 5.6647926568984985, 3.050273060798645 l23.240175247192383, 6.10054612159729 3.3407750725746155, -0.14525108970701694 l6.681550145149231, -1.5977619588375092 5.810043811798096, -2.4692685902118683 l0.5810043588280678, -1.1620087176561356 0.2905021794140339, -4.502783715724945 l-1.5977619588375092, -3.3407750725746155 m-45.75409412384033, -0.14525108970701694 l-3.3407750725746155, -2.178766429424286 -4.648034870624542, -5.810043811798096 l-1.3072597980499268, -10.603330135345459 " fill="none" stroke="black" stroke-width="1" /></svg>