<?xml version="1.0" encoding="utf-8" ?>
<svg baseProfile="full" height="107.60873392224312" version="1.1" width="114.14503360167146" xmlns="http://www.w3.org/2000/svg" xmlns:ev="http://www.w3.org/2001/xml-events" xmlns:xlink="http://www.w3.org/1999/xlink"><defs /><rect fill="white" height="107.60873392224312" width="114.14503360167146" x="0" y="0" /><path d="M58.30715322867036, 18.653602274134755 m-1.0167576372623444, 0.14525108970701694 l-4.793286025524139, 2.905021905899048 -10.603330135345459, 2.6145195960998535 l-2.905021905899048, 1.3072597980499268 -3.776528537273407, 3.4860262274742126 l-1.3072597980499268, 2.178766429424286 -1.452510952949524, 5.229039192199707 l-1.5977619588375092, 10.893832445144653 0.4357532784342766, 18.44688892364502 l2.6145195960998535, 6.826801300048828 2.4692685902118683, 2.905021905899048 l1.3072597980499268, 1.3072597980499268 9.296069741249084, 4.793286025524139 l6.972052454948425, 2.324017435312271 4.357532858848572, 0.4357532784342766 l9.150818586349487, 0.0 4.938537180423737, -1.452510952949524 l3.1955239176750183, -1.8882642686367035 2.6145195960998535, -2.7597707509994507 l4.357532858848572, -7.26255476474762 4.938537180423737, -11.474835872650146 l2.7597707509994507, -12.055840492248535 0.8715065568685532, -7.1173036098480225 l-0.2905021794140339, -8.569814562797546 -2.7597707509994507, -4.938537180423737 l-4.648034870624542, -4.938537180423737 -7.1173036098480225, -5.955294966697693 l-5.374290347099304, -3.050273060798645 -4.212281703948975, 0.0 l-8.569814562797546, 4.938537180423737 -1.5977619588375092, 1.5977619588375092 l-1.3072597980499268, 2.324017435312271 18.01113486289978, -0.14525108970701694 l4.212281703948975, -0.5810043588280678 6.972052454948425, -1.8882642686367035 l11.184333562850952, -3.63127738237381 0.8715065568685532, 4.212281703948975 l0.0, 8.134061098098755 -0.5810043588280678, 4.648034870624542 l-6.681550145149231, 14.960862398147583 0.8715065568685532, -0.2905021794140339 l9.731823205947876, -7.988809943199158 4.067030549049377, -1.3072597980499268 l2.6145195960998535, -0.2905021794140339 2.324017435312271, 0.14525108970701694 l0.2905021794140339, 0.726255476474762 -0.14525108970701694, 6.681550145149231 l-0.726255476474762, 2.324017435312271 -4.938537180423737, 8.42456340789795 l-3.63127738237381, 4.938537180423737 -3.1955239176750183, 3.4860262274742126 l-6.2457966804504395, 4.357532858848572 -3.4860262274742126, 0.5810043588280678 l-0.8715065568685532, -0.4357532784342766 -0.2905021794140339, -0.726255476474762 l0.14525108970701694, -1.5977619588375092 0.726255476474762, -0.5810043588280678 l0.0, 15.106114149093628 -2.178766429424286, 16.703875064849854 l-1.3072597980499268, 3.776528537273407 -0.726255476474762, 0.726255476474762 l-3.776528537273407, 0.2905021794140339 -3.9217793941497803, -4.067030549049377 l-5.955294966697693, -9.00556743144989 -0.8715065568685532, -3.63127738237381 l-6.391047835350037, 7.8435587882995605 -2.6145195960998535, 1.7430131137371063 l-7.1173036098480225, 2.905021905899048 -11.910589933395386, 0.0 l-5.229039192199707, -1.452510952949524 -2.0335152745246887, -2.0335152745246887 l-0.2905021794140339, -3.776528537273407 0.5810043588280678, -2.4692685902118683 l2.7597707509994507, -4.648034870624542 4.212281703948975, -4.648034870624542 l6.2457966804504395, -4.648034870624542 -0.2905021794140339, 1.452510952949524 l-0.8715065568685532, 1.3072597980499268 -3.3407750725746155, 2.6145195960998535 l-3.63127738237381, 1.7430131137371063 -3.776528537273407, 0.726255476474762 l-5.374290347099304, 0.0 -6.10054612159729, -1.8882642686367035 l-6.391047835350037, -3.9217793941497803 -7.26255476474762, -5.810043811798096 l-2.6145195960998535, -3.1955239176750183 -1.3072597980499268, -4.212281703948975 l0.14525108970701694, -4.212281703948975 1.8882642686367035, -3.776528537273407 l3.776528537273407, -4.067030549049377 2.905021905899048, -2.0335152745246887 l7.553057074546814, -3.050273060798645 3.9217793941497803, -0.14525108970701694 l0.726255476474762, 0.2905021794140339 0.5810043588280678, 1.5977619588375092 l-1.1620087176561356, -0.5810043588280678 -1.3072597980499268, -2.0335152745246887 l-4.648034870624542, -8.569814562797546 -2.905021905899048, -9.00556743144989 l-0.2905021794140339, -4.357532858848572 1.0167576372623444, -1.0167576372623444 l1.452510952949524, -0.5810043588280678 4.357532858848572, -0.5810043588280678 l1.1620087176561356, 0.726255476474762 2.7597707509994507, 2.905021905899048 l0.4357532784342766, 1.0167576372623444 1.3072597980499268, 8.569814562797546 l0.14525108970701694, -10.02232551574707 -1.1620087176561356, -9.877074360847473 l0.14525108970701694, -6.681550145149231 0.4357532784342766, -0.8715065568685532 l2.4692685902118683, -0.14525108970701694 2.0335152745246887, 1.1620087176561356 l3.050273060798645, 9.441320896148682 1.452510952949524, 7.1173036098480225 l3.9217793941497803, -19.173144102096558 0.726255476474762, -0.5810043588280678 l1.0167576372623444, 0.14525108970701694 2.4692685902118683, 3.1955239176750183 l1.5977619588375092, 3.3407750725746155 1.1620087176561356, 3.9217793941497803 l1.452510952949524, 2.6145195960998535 1.3072597980499268, 5.229039192199707 l1.7430131137371063, 3.1955239176750183 0.726255476474762, 0.0 l1.3072597980499268, -3.776528537273407 2.7597707509994507, -17.72063374519348 l2.6145195960998535, 18.156386613845825 1.0167576372623444, 0.5810043588280678 m-15.251364707946777, 10.893832445144653 l0.0, 2.7597707509994507 1.5977619588375092, 9.877074360847473 l0.726255476474762, 1.452510952949524 1.0167576372623444, 0.4357532784342766 l2.324017435312271, 0.0 2.6145195960998535, -1.452510952949524 l1.3072597980499268, -1.3072597980499268 0.5810043588280678, -2.324017435312271 l0.14525108970701694, -8.134061098098755 -0.8715065568685532, -2.178766429424286 l-0.726255476474762, -0.726255476474762 -1.8882642686367035, 0.0 l-6.536298990249634, 2.178766429424286 m44.592084884643555, -7.553057074546814 l-8.42456340789795, 5.6647926568984985 -2.6145195960998535, 2.6145195960998535 l-2.7597707509994507, 4.502783715724945 -1.452510952949524, 4.648034870624542 l-0.14525108970701694, 5.955294966697693 1.0167576372623444, 1.1620087176561356 l3.776528537273407, -0.4357532784342766 2.7597707509994507, -1.1620087176561356 l2.324017435312271, -1.5977619588375092 1.0167576372623444, -1.5977619588375092 l0.2905021794140339, -5.08378803730011 -0.4357532784342766, -3.3407750725746155 l-2.0335152745246887, -3.776528537273407 -2.6145195960998535, -2.178766429424286 l-2.4692685902118683, -0.726255476474762 -6.10054612159729, 0.0 l-0.8715065568685532, 0.5810043588280678 " fill="none" stroke="black" stroke-width="1" /></svg>