<?xml version="1.0" encoding="utf-8" ?>
<svg baseProfile="full" height="69.84344990924001" version="1.1" width="90.904859341681" xmlns="http://www.w3.org/2000/svg" xmlns:ev="http://www.w3.org/2001/xml-events" xmlns:xlink="http://www.w3.org/1999/xlink"><defs /><rect fill="white" height="69.84344990924001" width="90.904859341681" x="0" y="0" /><path d="M49.44683508016169, 19.379856949672103 m-2.905021905899048, -2.324017435312271 l-1.8882642686367035, -0.726255476474762 -2.178766429424286, -0.14525108970701694 l-3.776528537273407, 0.8715065568685532 -4.212281703948975, 2.324017435312271 l-2.905021905899048, 2.324017435312271 -2.7597707509994507, 3.4860262274742126 l-2.324017435312271, 4.357532858848572 -0.8715065568685532, 7.988809943199158 l0.2905021794140339, 2.905021905899048 2.6145195960998535, 7.698307633399963 l2.6145195960998535, 4.067030549049377 1.7430131137371063, 1.5977619588375092 l2.324017435312271, 1.452510952949524 2.4692685902118683, 0.8715065568685532 l2.4692685902118683, 0.4357532784342766 5.374290347099304, -0.2905021794140339 l7.553057074546814, -2.7597707509994507 4.357532858848572, -2.7597707509994507 l3.1955239176750183, -3.050273060798645 2.7597707509994507, -3.9217793941497803 l1.7430131137371063, -3.9217793941497803 0.726255476474762, -4.212281703948975 l0.14525108970701694, -1.8882642686367035 -1.452510952949524, -5.374290347099304 l-1.8882642686367035, -3.050273060798645 -4.357532858848572, -4.212281703948975 l-3.9217793941497803, -2.178766429424286 -5.955294966697693, -1.7430131137371063 l-3.776528537273407, -0.14525108970701694 -3.63127738237381, 0.726255476474762 m4.212281703948975, -5.229039192199707 l-2.4692685902118683, -0.8715065568685532 -1.452510952949524, 0.0 m-13.653602600097656, 6.10054612159729 l-8.86031687259674, -0.5810043588280678 -0.726255476474762, -0.8715065568685532 l0.4357532784342766, -2.4692685902118683 3.9217793941497803, -6.2457966804504395 l-2.7597707509994507, 0.726255476474762 -6.681550145149231, 3.63127738237381 l-5.229039192199707, 3.4860262274742126 -2.7597707509994507, 3.050273060798645 l3.050273060798645, -0.14525108970701694 5.6647926568984985, -1.5977619588375092 l5.374290347099304, -0.8715065568685532 2.0335152745246887, 0.2905021794140339 l0.8715065568685532, 1.452510952949524 -1.0167576372623444, 3.776528537273407 l-7.553057074546814, 10.603330135345459 -0.5810043588280678, 1.5977619588375092 l2.0335152745246887, 0.2905021794140339 5.374290347099304, -0.726255476474762 l1.0167576372623444, 0.14525108970701694 0.2905021794140339, 1.0167576372623444 l-4.502783715724945, 5.519541501998901 -10.893832445144653, 10.603330135345459 l1.0167576372623444, 0.5810043588280678 12.636845111846924, -2.178766429424286 l5.810043811798096, 0.14525108970701694 1.1620087176561356, 1.0167576372623444 l0.2905021794140339, 2.905021905899048 -2.6145195960998535, 6.681550145149231 l-0.2905021794140339, 3.1955239176750183 1.3072597980499268, 0.5810043588280678 l1.5977619588375092, 0.0 10.458078384399414, -2.324017435312271 l5.810043811798096, -0.726255476474762 1.1620087176561356, 0.2905021794140339 l0.5810043588280678, 1.0167576372623444 -0.2905021794140339, 2.324017435312271 l1.3072597980499268, 0.8715065568685532 1.8882642686367035, -0.14525108970701694 l21.787664890289307, -9.586572051048279 1.8882642686367035, -0.2905021794140339 l-0.5810043588280678, 1.452510952949524 -0.726255476474762, 0.4357532784342766 l12.20109224319458, -11.620087623596191 2.0335152745246887, -3.1955239176750183 l-0.8715065568685532, -0.8715065568685532 -8.134061098098755, 0.0 l-1.452510952949524, -0.5810043588280678 0.0, -0.8715065568685532 l0.8715065568685532, -1.452510952949524 6.826801300048828, -6.681550145149231 l3.3407750725746155, -4.067030549049377 0.726255476474762, -1.7430131137371063 l-0.2905021794140339, -1.452510952949524 -3.050273060798645, -2.0335152745246887 l-13.363100290298462, -2.0335152745246887 -0.2905021794140339, -0.726255476474762 l1.0167576372623444, -2.0335152745246887 5.810043811798096, -5.810043811798096 l-1.3072597980499268, -0.5810043588280678 -4.938537180423737, 0.14525108970701694 l-12.055840492248535, 1.452510952949524 2.4692685902118683, -2.4692685902118683 l6.391047835350037, -4.502783715724945 -0.8715065568685532, -0.5810043588280678 l-4.938537180423737, 0.4357532784342766 -14.52510952949524, 2.4692685902118683 l-0.726255476474762, -0.14525108970701694 0.726255476474762, -1.452510952949524 l-1.3072597980499268, 0.14525108970701694 -14.08935546875, 8.134061098098755 l-6.536298990249634, 4.648034870624542 -2.178766429424286, 2.324017435312271 l-0.5810043588280678, 2.0335152745246887 0.4357532784342766, 0.8715065568685532 m20.770905017852783, 4.648034870624542 l-1.8882642686367035, -0.726255476474762 -1.3072597980499268, 1.1620087176561356 l0.726255476474762, 0.8715065568685532 0.726255476474762, 0.14525108970701694 l4.067030549049377, -0.4357532784342766 0.5810043588280678, -1.0167576372623444 l-0.726255476474762, -0.8715065568685532 -2.178766429424286, -0.8715065568685532 " fill="none" stroke="black" stroke-width="1" /></svg>