<?xml version="1.0" encoding="utf-8" ?>
<svg baseProfile="full" height="114.72603508271277" version="1.1" width="149.00529520586133" xmlns="http://www.w3.org/2000/svg" xmlns:ev="http://www.w3.org/2001/xml-events" xmlns:xlink="http://www.w3.org/1999/xlink"><defs /><rect fill="white" height="114.72603508271277" width="149.00529520586133" x="0" y="0" /><path d="M14.877073746174574, 23.88264167122543 m-1.8882642686367035, 0.8715065568685532 l-1.1620087176561356, 1.7430131137371063 -1.3072597980499268, 3.9217793941497803 l0.0, 5.229039192199707 0.5810043588280678, 2.905021905899048 l1.3072597980499268, 3.050273060798645 2.905021905899048, 5.229039192199707 l2.7597707509994507, 2.6145195960998535 5.955294966697693, 2.7597707509994507 l4.648034870624542, 0.8715065568685532 6.972052454948425, 0.0 l6.972052454948425, -2.324017435312271 2.7597707509994507, -2.324017435312271 l2.6145195960998535, -3.9217793941497803 0.8715065568685532, -5.374290347099304 l-0.14525108970701694, -7.1173036098480225 -1.8882642686367035, -4.357532858848572 l-1.7430131137371063, -1.8882642686367035 -3.4860262274742126, -1.1620087176561356 l-11.184333562850952, -0.4357532784342766 -1.7430131137371063, 0.2905021794140339 l-9.296069741249084, 3.63127738237381 m-14.234607219696045, 1.7430131137371063 l-0.14525108970701694, -2.7597707509994507 2.4692685902118683, -12.782095670700073 l2.324017435312271, -3.9217793941497803 2.905021905899048, -1.8882642686367035 l6.2457966804504395, -2.178766429424286 2.4692685902118683, 0.14525108970701694 l2.6145195960998535, 3.9217793941497803 2.6145195960998535, 7.553057074546814 l1.5977619588375092, 2.7597707509994507 0.8715065568685532, -0.2905021794140339 l3.776528537273407, -5.955294966697693 6.826801300048828, -5.519541501998901 l3.4860262274742126, -1.5977619588375092 0.5810043588280678, 1.1620087176561356 l0.726255476474762, 4.938537180423737 6.536298990249634, -5.519541501998901 l4.357532858848572, -2.905021905899048 0.8715065568685532, 0.0 l1.1620087176561356, 1.3072597980499268 1.0167576372623444, 3.3407750725746155 l0.8715065568685532, 8.569814562797546 2.324017435312271, 0.0 l0.726255476474762, 0.4357532784342766 0.8715065568685532, 2.4692685902118683 l0.2905021794140339, 5.374290347099304 -1.452510952949524, 4.502783715724945 l-2.4692685902118683, 3.776528537273407 -6.536298990249634, 5.08378803730011 l-3.776528537273407, 1.1620087176561356 4.067030549049377, -0.726255476474762 l7.26255476474762, 0.0 9.441320896148682, 1.1620087176561356 l9.586572051048279, 0.0 11.76533818244934, 1.0167576372623444 l7.988809943199158, 3.3407750725746155 5.08378803730011, 2.905021905899048 l7.407805919647217, 5.229039192199707 2.905021905899048, 3.4860262274742126 l0.8715065568685532, 1.7430131137371063 0.0, 2.905021905899048 l-1.0167576372623444, 2.6145195960998535 -4.938537180423737, 4.938537180423737 l-2.905021905899048, 2.0335152745246887 -3.63127738237381, 1.7430131137371063 l-19.173144102096558, 6.681550145149231 -6.2457966804504395, 0.726255476474762 l-9.150818586349487, 0.14525108970701694 -4.938537180423737, -1.7430131137371063 l-2.6145195960998535, -1.8882642686367035 -4.793286025524139, -9.441320896148682 l-1.3072597980499268, -1.7430131137371063 -4.648034870624542, -10.893832445144653 l-2.7597707509994507, -4.357532858848572 -4.648034870624542, -9.150818586349487 l-0.8715065568685532, -0.4357532784342766 -1.7430131137371063, 3.050273060798645 l-1.452510952949524, 4.938537180423737 -8.715065717697144, 33.40775012969971 l-2.905021905899048, 9.150818586349487 -2.905021905899048, 11.620087623596191 l-0.8715065568685532, 5.6647926568984985 2.178766429424286, -4.067030549049377 l4.357532858848572, -5.519541501998901 8.42456340789795, -8.569814562797546 l13.508352041244507, -15.977619886398315 0.726255476474762, 0.0 l0.5810043588280678, 1.7430131137371063 2.324017435312271, 20.33515214920044 l1.452510952949524, 9.150818586349487 1.3072597980499268, 3.4860262274742126 l3.4860262274742126, -7.407805919647217 6.391047835350037, -11.184333562850952 l6.826801300048828, -10.748580694198608 2.4692685902118683, -4.793286025524139 l1.5977619588375092, -1.0167576372623444 1.8882642686367035, 5.955294966697693 l2.6145195960998535, 26.87145233154297 1.452510952949524, -1.8882642686367035 l2.0335152745246887, -4.793286025524139 2.7597707509994507, -3.9217793941497803 l3.63127738237381, -4.357532858848572 1.5977619588375092, -0.5810043588280678 l3.050273060798645, 5.6647926568984985 2.0335152745246887, 6.681550145149231 l1.452510952949524, 3.050273060798645 6.2457966804504395, -20.189902782440186 l5.6647926568984985, -14.08935546875 0.4357532784342766, -3.4860262274742126 l-0.5810043588280678, -0.14525108970701694 m-2.178766429424286, -9.150818586349487 l8.134061098098755, -3.3407750725746155 9.150818586349487, 0.0 l13.508352041244507, 10.16757607460022 2.0335152745246887, 2.4692685902118683 l-4.648034870624542, 1.452510952949524 -9.877074360847473, 0.726255476474762 l-6.536298990249634, -0.14525108970701694 -6.391047835350037, -1.5977619588375092 l-8.569814562797546, -3.4860262274742126 -7.26255476474762, -2.324017435312271 l-5.08378803730011, -2.324017435312271 -3.1955239176750183, -2.324017435312271 l-2.178766429424286, -2.324017435312271 -1.3072597980499268, -3.4860262274742126 l0.4357532784342766, -2.4692685902118683 2.4692685902118683, -2.6145195960998535 l5.08378803730011, -1.8882642686367035 5.955294966697693, 0.5810043588280678 l3.776528537273407, 1.5977619588375092 6.536298990249634, 4.067030549049377 l3.050273060798645, 4.212281703948975 2.4692685902118683, 4.648034870624542 l1.5977619588375092, 5.519541501998901 0.14525108970701694, 1.8882642686367035 l-2.324017435312271, 0.14525108970701694 0.0, -0.8715065568685532 l7.8435587882995605, -0.726255476474762 3.3407750725746155, 0.726255476474762 l2.0335152745246887, 2.324017435312271 -1.8882642686367035, 1.0167576372623444 l-3.1955239176750183, 0.2905021794140339 -3.776528537273407, -0.14525108970701694 l-3.1955239176750183, -1.1620087176561356 -2.324017435312271, -1.7430131137371063 l-2.4692685902118683, -5.229039192199707 -2.0335152745246887, -3.050273060798645 m-88.8936710357666, -22.51391887664795 l3.63127738237381, -1.7430131137371063 m1.5977619588375092, -1.0167576372623444 l0.726255476474762, 0.14525108970701694 -0.4357532784342766, 1.7430131137371063 m-3.3407750725746155, 2.905021905899048 l0.5810043588280678, 0.726255476474762 3.4860262274742126, 1.8882642686367035 l10.312827825546265, 3.63127738237381 4.938537180423737, 0.8715065568685532 l2.6145195960998535, 0.0 0.726255476474762, -0.726255476474762 " fill="none" stroke="black" stroke-width="1" /></svg>