<?xml version="1.0" encoding="utf-8" ?>
<svg baseProfile="full" height="72.60322015732527" version="1.1" width="96.86015230603516" xmlns="http://www.w3.org/2000/svg" xmlns:ev="http://www.w3.org/2001/xml-events" xmlns:xlink="http://www.w3.org/1999/xlink"><defs /><rect fill="white" height="72.60322015732527" width="96.86015230603516" x="0" y="0" /><path d="M65.13395494781435, 28.24017464183271 m-1.452510952949524, -2.324017435312271 l-2.7597707509994507, -2.324017435312271 -5.6647926568984985, -2.178766429424286 l-5.519541501998901, -1.1620087176561356 -4.502783715724945, -0.14525108970701694 l-3.4860262274742126, 0.4357532784342766 -4.212281703948975, 1.452510952949524 l-4.793286025524139, 2.6145195960998535 -4.357532858848572, 3.63127738237381 l-3.1955239176750183, 4.502783715724945 -1.8882642686367035, 4.357532858848572 l-0.726255476474762, 3.3407750725746155 -0.14525108970701694, 6.2457966804504395 l1.1620087176561356, 3.9217793941497803 1.5977619588375092, 2.905021905899048 l5.374290347099304, 5.08378803730011 9.00556743144989, 6.826801300048828 l3.3407750725746155, 1.8882642686367035 1.3072597980499268, 0.2905021794140339 l6.681550145149231, -0.2905021794140339 7.26255476474762, -1.8882642686367035 l4.648034870624542, -2.4692685902118683 3.9217793941497803, -3.4860262274742126 l2.6145195960998535, -5.810043811798096 1.3072597980499268, -6.391047835350037 l-0.2905021794140339, -10.603330135345459 -2.4692685902118683, -5.955294966697693 l-1.0167576372623444, -1.5977619588375092 -2.6145195960998535, -2.178766429424286 m-36.89377784729004, 2.7597707509994507 l-5.374290347099304, -10.16757607460022 9.00556743144989, 1.1620087176561356 l1.0167576372623444, 1.3072597980499268 m32.53624439239502, 2.905021905899048 l0.8715065568685532, -0.5810043588280678 10.458078384399414, -1.5977619588375092 l-6.10054612159729, 8.134061098098755 m-37.47478246688843, 28.614466190338135 l-5.519541501998901, 2.905021905899048 -3.4860262274742126, 1.1620087176561356 l-1.5977619588375092, -5.519541501998901 -1.7430131137371063, -3.4860262274742126 l-0.726255476474762, 0.0 -4.938537180423737, 2.7597707509994507 l0.0, -2.6145195960998535 -3.3407750725746155, -2.178766429424286 l7.698307633399963, 0.5810043588280678 -1.452510952949524, -1.1620087176561356 l-11.76533818244934, -5.08378803730011 -0.4357532784342766, -1.5977619588375092 l0.726255476474762, -3.3407750725746155 -0.726255476474762, -0.5810043588280678 l0.0, -6.391047835350037 0.14525108970701694, -1.0167576372623444 l0.8715065568685532, -0.2905021794140339 0.726255476474762, 0.2905021794140339 l2.324017435312271, -4.793286025524139 1.5977619588375092, -0.5810043588280678 l1.1620087176561356, -3.63127738237381 0.8715065568685532, 0.4357532784342766 l0.5810043588280678, 1.5977619588375092 2.7597707509994507, -10.603330135345459 l0.4357532784342766, -0.8715065568685532 0.726255476474762, -0.2905021794140339 l2.905021905899048, -6.10054612159729 3.1955239176750183, -3.63127738237381 l0.8715065568685532, -0.4357532784342766 0.4357532784342766, 1.1620087176561356 l1.1620087176561356, 6.391047835350037 11.474835872650146, -4.793286025524139 m8.279312252998352, -0.726255476474762 l0.0, 0.726255476474762 3.776528537273407, -1.8882642686367035 l3.1955239176750183, -0.5810043588280678 0.2905021794140339, 0.726255476474762 l-0.726255476474762, 2.4692685902118683 1.7430131137371063, 0.0 l5.955294966697693, -1.8882642686367035 4.067030549049377, -0.4357532784342766 l-0.14525108970701694, 0.8715065568685532 -3.9217793941497803, 3.4860262274742126 l1.3072597980499268, -1.1620087176561356 2.4692685902118683, -1.0167576372623444 l6.826801300048828, -1.5977619588375092 0.0, 1.452510952949524 l-3.1955239176750183, 5.955294966697693 4.938537180423737, -2.7597707509994507 l2.4692685902118683, -0.2905021794140339 2.905021905899048, 3.1955239176750183 l0.14525108970701694, 1.8882642686367035 12.491593360900879, -0.2905021794140339 l-0.8715065568685532, 1.3072597980499268 -7.553057074546814, 4.357532858848572 l-1.5977619588375092, 1.7430131137371063 0.726255476474762, 0.2905021794140339 l-0.4357532784342766, 3.050273060798645 0.2905021794140339, 2.4692685902118683 l1.452510952949524, 1.7430131137371063 3.050273060798645, 1.3072597980499268 l6.681550145149231, 0.4357532784342766 -11.76533818244934, 5.374290347099304 l-2.4692685902118683, 2.6145195960998535 0.0, 0.726255476474762 l0.8715065568685532, 0.5810043588280678 5.955294966697693, -0.14525108970701694 l0.0, 1.3072597980499268 -2.178766429424286, 4.502783715724945 l-0.5810043588280678, 3.776528537273407 " fill="none" stroke="black" stroke-width="1" /></svg>