<?xml version="1.0" encoding="utf-8" ?>
<svg baseProfile="full" height="94.53613507561386" version="1.1" width="89.74284937605262" xmlns="http://www.w3.org/2000/svg" xmlns:ev="http://www.w3.org/2001/xml-events" xmlns:xlink="http://www.w3.org/1999/xlink"><defs /><rect fill="white" height="94.53613507561386" width="89.74284937605262" x="0" y="0" /><path d="M56.12838470377028, 39.860260002315044 m-2.324017435312271, -2.7597707509994507 l-3.4860262274742126, -1.7430131137371063 -5.519541501998901, -0.2905021794140339 l-2.905021905899048, 0.726255476474762 -2.4692685902118683, 1.7430131137371063 l-2.4692685902118683, 2.905021905899048 -2.905021905899048, 5.6647926568984985 l-0.5810043588280678, 3.050273060798645 0.14525108970701694, 6.536298990249634 l1.5977619588375092, 3.63127738237381 2.324017435312271, 2.905021905899048 l2.905021905899048, 2.324017435312271 3.3407750725746155, 1.7430131137371063 l3.3407750725746155, 0.8715065568685532 3.3407750725746155, 0.0 l3.050273060798645, -0.2905021794140339 2.7597707509994507, -1.7430131137371063 l2.178766429424286, -2.324017435312271 1.7430131137371063, -3.4860262274742126 l0.8715065568685532, -3.050273060798645 0.2905021794140339, -7.698307633399963 l-2.324017435312271, -6.972052454948425 -1.452510952949524, -2.6145195960998535 l-2.178766429424286, -2.178766429424286 m-12.055840492248535, -14.670360088348389 l-8.715065717697144, -9.296069741249084 -1.452510952949524, -0.4357532784342766 l-0.5810043588280678, 1.8882642686367035 0.0, 6.826801300048828 l1.8882642686367035, 8.86031687259674 -2.6145195960998535, -0.14525108970701694 l-9.150818586349487, -5.229039192199707 -2.905021905899048, -0.8715065568685532 l-3.1955239176750183, -0.2905021794140339 -2.4692685902118683, 0.0 l-2.6145195960998535, 0.726255476474762 -3.9217793941497803, 4.067030549049377 l-2.0335152745246887, 5.374290347099304 0.14525108970701694, 3.9217793941497803 l1.8882642686367035, 1.7430131137371063 2.905021905899048, 1.0167576372623444 l12.491593360900879, 2.178766429424286 0.4357532784342766, 1.3072597980499268 l-15.541867017745972, 8.134061098098755 -2.7597707509994507, 2.905021905899048 l-0.14525108970701694, 1.0167576372623444 0.726255476474762, 1.1620087176561356 l2.7597707509994507, 1.0167576372623444 3.63127738237381, 0.5810043588280678 l10.458078384399414, 0.2905021794140339 2.7597707509994507, 0.8715065568685532 l0.14525108970701694, 1.1620087176561356 -0.726255476474762, 2.4692685902118683 l-7.8435587882995605, 10.312827825546265 -2.324017435312271, 4.793286025524139 l0.0, 1.8882642686367035 1.0167576372623444, 1.3072597980499268 l3.050273060798645, 0.726255476474762 4.648034870624542, 0.0 l15.396615266799927, -4.648034870624542 2.905021905899048, -0.2905021794140339 l0.8715065568685532, 0.726255476474762 0.14525108970701694, 9.296069741249084 l1.3072597980499268, 1.8882642686367035 0.726255476474762, 0.14525108970701694 l1.452510952949524, -0.4357532784342766 1.5977619588375092, -2.7597707509994507 l2.905021905899048, -7.8435587882995605 0.4357532784342766, -0.726255476474762 l0.726255476474762, -0.14525108970701694 2.905021905899048, 4.357532858848572 l5.08378803730011, 4.938537180423737 3.776528537273407, 2.324017435312271 l1.8882642686367035, 0.2905021794140339 3.1955239176750183, -20.916156768798828 l0.726255476474762, -2.178766429424286 1.452510952949524, -0.5810043588280678 l4.067030549049377, 2.178766429424286 3.776528537273407, 0.0 l2.0335152745246887, -1.7430131137371063 1.3072597980499268, -2.7597707509994507 l2.7597707509994507, -9.731823205947876 -0.14525108970701694, -4.357532858848572 l-1.3072597980499268, -1.5977619588375092 -1.7430131137371063, -1.3072597980499268 l-2.905021905899048, -1.0167576372623444 -9.00556743144989, -0.2905021794140339 l-2.6145195960998535, 0.5810043588280678 3.4860262274742126, -2.7597707509994507 l5.08378803730011, -5.6647926568984985 2.6145195960998535, -4.502783715724945 l0.4357532784342766, -3.1955239176750183 -0.5810043588280678, -0.8715065568685532 l-6.10054612159729, 0.0 -7.1173036098480225, 2.7597707509994507 l6.10054612159729, -5.374290347099304 3.3407750725746155, -4.648034870624542 l0.4357532784342766, -2.905021905899048 -1.1620087176561356, -0.8715065568685532 l-6.2457966804504395, -0.2905021794140339 -11.039083003997803, 2.6145195960998535 l-2.4692685902118683, 0.14525108970701694 -0.4357532784342766, -1.452510952949524 l3.050273060798645, -6.10054612159729 2.178766429424286, -6.536298990249634 l0.0, -1.1620087176561356 -2.905021905899048, 0.14525108970701694 l-9.441320896148682, 8.86031687259674 -3.050273060798645, 4.502783715724945 l-0.726255476474762, 1.8882642686367035 m3.9217793941497803, 22.51391887664795 l-3.9217793941497803, 0.0 -1.3072597980499268, 1.8882642686367035 l-0.8715065568685532, 5.6647926568984985 1.0167576372623444, 1.0167576372623444 l1.452510952949524, 0.0 1.7430131137371063, -0.5810043588280678 l1.452510952949524, -2.324017435312271 " fill="none" stroke="black" stroke-width="1" /></svg>