<?xml version="1.0" encoding="utf-8" ?>
<svg baseProfile="full" height="54.01108074001968" version="1.1" width="58.659117156639695" xmlns="http://www.w3.org/2000/svg" xmlns:ev="http://www.w3.org/2001/xml-events" xmlns:xlink="http://www.w3.org/1999/xlink"><defs /><rect fill="white" height="54.01108074001968" width="58.659117156639695" x="0" y="0" /><path d="M19.089355496689677, 32.88820951245725 m-0.4357532784342766, -1.3072597980499268 l0.14525108970701694, -2.6145195960998535 1.452510952949524, -2.905021905899048 l2.4692685902118683, -2.7597707509994507 4.938537180423737, -2.7597707509994507 l4.357532858848572, -1.0167576372623444 3.3407750725746155, 0.0 l3.050273060798645, 2.4692685902118683 2.6145195960998535, 5.08378803730011 l0.8715065568685532, 6.391047835350037 0.0, 6.10054612159729 l-0.4357532784342766, 1.8882642686367035 -2.178766429424286, 3.3407750725746155 l-5.08378803730011, 3.63127738237381 -1.8882642686367035, 0.5810043588280678 l-5.519541501998901, -0.4357532784342766 -4.212281703948975, -2.7597707509994507 l-1.5977619588375092, -2.324017435312271 -1.1620087176561356, -2.7597707509994507 l-0.5810043588280678, -2.905021905899048 0.0, -5.955294966697693 l0.726255476474762, -1.0167576372623444 m5.519541501998901, -2.0335152745246887 l0.0, 0.0 m-1.7430131137371063, 1.0167576372623444 l1.1620087176561356, -0.2905021794140339 m9.150818586349487, -2.324017435312271 l1.5977619588375092, -0.4357532784342766 m-7.1173036098480225, -11.76533818244934 l2.7597707509994507, -2.905021905899048 8.134061098098755, -5.229039192199707 l4.502783715724945, -1.7430131137371063 2.324017435312271, -0.14525108970701694 l0.2905021794140339, 0.8715065568685532 -0.4357532784342766, 2.0335152745246887 l-6.2457966804504395, 8.715065717697144 7.553057074546814, -5.955294966697693 l2.0335152745246887, -0.8715065568685532 0.2905021794140339, 0.726255476474762 l-3.776528537273407, 5.08378803730011 2.0335152745246887, 0.5810043588280678 l3.9217793941497803, -0.2905021794140339 0.5810043588280678, 1.452510952949524 l0.0, 2.178766429424286 -3.4860262274742126, 7.26255476474762 l0.4357532784342766, 1.0167576372623444 2.0335152745246887, 0.4357532784342766 m-26.726200580596924, -14.670360088348389 l-16.558624505996704, -4.502783715724945 0.2905021794140339, 1.0167576372623444 l4.502783715724945, 4.793286025524139 1.452510952949524, 2.178766429424286 l-1.3072597980499268, 0.5810043588280678 -7.8435587882995605, -1.8882642686367035 l-0.2905021794140339, 1.3072597980499268 5.6647926568984985, 6.10054612159729 l3.3407750725746155, 5.08378803730011 -6.2457966804504395, -0.726255476474762 l0.4357532784342766, 0.8715065568685532 2.178766429424286, 1.3072597980499268 l1.8882642686367035, 1.8882642686367035 2.324017435312271, 3.63127738237381 l-1.5977619588375092, 0.4357532784342766 -6.2457966804504395, -3.050273060798645 l-0.726255476474762, 0.0 1.5977619588375092, 1.3072597980499268 l8.134061098098755, 4.067030549049377 m15.106114149093628, -6.826801300048828 l0.0, 0.0 m0.8715065568685532, -1.0167576372623444 l-0.2905021794140339, 3.63127738237381 m2.905021905899048, 2.7597707509994507 l-7.553057074546814, 0.4357532784342766 -1.8882642686367035, 0.5810043588280678 l-0.14525108970701694, 0.8715065568685532 2.178766429424286, 0.8715065568685532 l1.7430131137371063, 0.14525108970701694 5.6647926568984985, -0.4357532784342766 l1.8882642686367035, -0.4357532784342766 2.178766429424286, -1.3072597980499268 l-1.5977619588375092, -0.8715065568685532 -6.10054612159729, 0.0 m20.04465103149414, -7.407805919647217 l-2.7597707509994507, 0.2905021794140339 5.6647926568984985, -2.4692685902118683 l-7.26255476474762, 6.536298990249634 m-28.1787109375, 4.067030549049377 l-1.3072597980499268, 0.4357532784342766 -4.648034870624542, 0.0 l-2.905021905899048, 1.1620087176561356 -0.2905021794140339, 0.726255476474762 l9.150818586349487, 1.7430131137371063 1.8882642686367035, 0.0 l0.14525108970701694, -0.8715065568685532 -1.452510952949524, -0.726255476474762 l-1.1620087176561356, 0.0 " fill="none" stroke="black" stroke-width="1" /></svg>