<?xml version="1.0" encoding="utf-8" ?>
<svg baseProfile="full" height="85.38531719706953" version="1.1" width="94.24563501030207" xmlns="http://www.w3.org/2000/svg" xmlns:ev="http://www.w3.org/2001/xml-events" xmlns:xlink="http://www.w3.org/1999/xlink"><defs /><rect fill="white" height="85.38531719706953" width="94.24563501030207" x="0" y="0" /><path d="M26.206660587340593, 33.46921207383275 m1.3072597980499268, -4.793286025524139 l1.8882642686367035, -3.776528537273407 1.3072597980499268, -1.1620087176561356 l1.8882642686367035, 0.2905021794140339 4.357532858848572, 1.7430131137371063 l3.4860262274742126, 3.776528537273407 0.8715065568685532, 0.0 l4.938537180423737, -5.08378803730011 1.5977619588375092, -1.0167576372623444 l2.324017435312271, -0.8715065568685532 3.4860262274742126, 0.726255476474762 l3.1955239176750183, 2.7597707509994507 2.4692685902118683, 4.648034870624542 l0.8715065568685532, 2.7597707509994507 0.2905021794140339, 14.52510952949524 l-1.452510952949524, 5.374290347099304 -2.324017435312271, 5.519541501998901 l-2.324017435312271, 1.7430131137371063 -12.491593360900879, 0.2905021794140339 l-5.519541501998901, -1.5977619588375092 -2.0335152745246887, -1.3072597980499268 l-0.8715065568685532, -0.8715065568685532 -2.178766429424286, -4.212281703948975 l-1.1620087176561356, -4.212281703948975 -1.8882642686367035, -12.636845111846924 l-0.5810043588280678, -7.407805919647217 m18.882641792297363, -16.558624505996704 l0.726255476474762, -1.7430131137371063 0.8715065568685532, -0.4357532784342766 l2.0335152745246887, -0.5810043588280678 2.905021905899048, 0.14525108970701694 l2.0335152745246887, 2.4692685902118683 1.1620087176561356, 4.648034870624542 l8.279312252998352, -5.08378803730011 5.6647926568984985, -2.178766429424286 l2.4692685902118683, 0.14525108970701694 3.4860262274742126, 3.776528537273407 l0.726255476474762, 1.7430131137371063 0.8715065568685532, 3.3407750725746155 l0.5810043588280678, 6.681550145149231 1.7430131137371063, -0.8715065568685532 l3.9217793941497803, 0.0 2.0335152745246887, 1.7430131137371063 l2.324017435312271, 3.050273060798645 0.8715065568685532, 3.4860262274742126 l-0.8715065568685532, 3.1955239176750183 -2.0335152745246887, 4.938537180423737 l-3.3407750725746155, 4.793286025524139 -0.5810043588280678, 1.5977619588375092 l0.4357532784342766, 2.0335152745246887 4.938537180423737, 7.553057074546814 l-0.14525108970701694, 5.08378803730011 -2.324017435312271, 4.648034870624542 l-1.7430131137371063, 2.0335152745246887 -2.7597707509994507, 0.726255476474762 l-2.6145195960998535, 0.0 -1.1620087176561356, -1.1620087176561356 l-0.5810043588280678, -1.5977619588375092 m-31.22898578643799, -52.726144790649414 l-1.7430131137371063, -3.9217793941497803 -1.8882642686367035, -2.905021905899048 l-3.3407750725746155, -1.7430131137371063 -1.452510952949524, 1.3072597980499268 l-7.407805919647217, 10.312827825546265 -1.1620087176561356, -0.14525108970701694 l-6.10054612159729, -4.502783715724945 -7.407805919647217, -3.4860262274742126 l-3.4860262274742126, -0.5810043588280678 -1.1620087176561356, 1.452510952949524 l-3.63127738237381, 7.988809943199158 -0.726255476474762, 2.7597707509994507 l-0.2905021794140339, 5.519541501998901 0.4357532784342766, 2.324017435312271 l-0.726255476474762, 2.7597707509994507 -0.14525108970701694, 3.9217793941497803 l2.0335152745246887, 4.357532858848572 4.793286025524139, 5.810043811798096 l1.1620087176561356, 2.324017435312271 0.0, 2.178766429424286 l-1.0167576372623444, 3.050273060798645 -0.4357532784342766, 3.1955239176750183 l0.0, 3.9217793941497803 3.050273060798645, 4.067030549049377 l0.14525108970701694, 6.536298990249634 1.0167576372623444, 2.7597707509994507 l5.810043811798096, 6.10054612159729 1.7430131137371063, 1.0167576372623444 l2.324017435312271, 0.4357532784342766 2.0335152745246887, 0.0 l2.0335152745246887, -3.4860262274742126 6.391047835350037, -3.776528537273407 l0.8715065568685532, 0.2905021794140339 1.1620087176561356, 2.0335152745246887 l1.452510952949524, 1.3072597980499268 1.0167576372623444, -0.2905021794140339 l3.9217793941497803, -3.776528537273407 1.8882642686367035, -4.938537180423737 l1.3072597980499268, -1.1620087176561356 0.726255476474762, 0.0 l5.810043811798096, 4.212281703948975 3.776528537273407, 0.8715065568685532 l1.5977619588375092, 0.0 1.1620087176561356, -0.726255476474762 l3.050273060798645, -3.63127738237381 4.648034870624542, 5.519541501998901 l2.905021905899048, 1.7430131137371063 2.4692685902118683, 0.726255476474762 l1.5977619588375092, 0.0 3.1955239176750183, -2.178766429424286 " fill="none" stroke="black" stroke-width="1" /></svg>