<?xml version="1.0" encoding="utf-8" ?>
<svg baseProfile="full" height="60.11162760667503" version="1.1" width="68.82669119164348" xmlns="http://www.w3.org/2000/svg" xmlns:ev="http://www.w3.org/2001/xml-events" xmlns:xlink="http://www.w3.org/1999/xlink"><defs /><rect fill="white" height="60.11162760667503" width="68.82669119164348" x="0" y="0" /><path d="M19.670357601717114, 27.078167451545596 m0.14525108970701694, 10.16757607460022 l3.3407750725746155, 9.441320896148682 5.955294966697693, 6.536298990249634 l2.178766429424286, 1.0167576372623444 5.08378803730011, 0.8715065568685532 l5.374290347099304, 0.0 1.3072597980499268, -0.4357532784342766 l5.08378803730011, -2.7597707509994507 1.7430131137371063, -2.0335152745246887 l1.3072597980499268, -3.1955239176750183 0.5810043588280678, -4.212281703948975 l0.0, -7.26255476474762 -1.3072597980499268, -4.793286025524139 l-5.08378803730011, -9.150818586349487 -2.324017435312271, -2.6145195960998535 l-5.229039192199707, -3.3407750725746155 -4.502783715724945, -1.1620087176561356 l-4.357532858848572, 0.0 -2.905021905899048, 1.5977619588375092 l-1.3072597980499268, 1.5977619588375092 -1.0167576372623444, 1.8882642686367035 l-0.726255476474762, 7.988809943199158 m3.9217793941497803, 2.6145195960998535 l-0.5810043588280678, 1.0167576372623444 0.14525108970701694, 1.5977619588375092 l2.6145195960998535, 0.5810043588280678 1.1620087176561356, -0.5810043588280678 l1.452510952949524, -2.324017435312271 -0.14525108970701694, -3.9217793941497803 l-0.8715065568685532, -0.4357532784342766 -2.7597707509994507, 0.0 l-1.452510952949524, 1.3072597980499268 -1.0167576372623444, 3.1955239176750183 m12.20109224319458, -6.10054612159729 l0.0, 6.10054612159729 0.5810043588280678, 1.1620087176561356 l1.3072597980499268, 0.5810043588280678 0.8715065568685532, -0.5810043588280678 l0.4357532784342766, -4.212281703948975 -1.3072597980499268, 0.0 m-3.63127738237381, 12.34634280204773 l1.1620087176561356, 0.5810043588280678 0.8715065568685532, 4.212281703948975 l0.0, 2.324017435312271 -0.5810043588280678, 1.3072597980499268 l-3.776528537273407, 3.63127738237381 -2.324017435312271, 0.14525108970701694 l-1.452510952949524, -1.3072597980499268 m8.279312252998352, -8.42456340789795 l-0.5810043588280678, 1.0167576372623444 0.14525108970701694, 1.0167576372623444 l1.0167576372623444, 2.324017435312271 1.452510952949524, 1.452510952949524 l1.0167576372623444, 0.726255476474762 5.955294966697693, 1.8882642686367035 m-27.161953449249268, -23.240175247192383 l-1.5977619588375092, -2.6145195960998535 -6.2457966804504395, -6.10054612159729 m7.1173036098480225, 1.0167576372623444 l0.4357532784342766, -0.8715065568685532 0.14525108970701694, -6.10054612159729 m9.586572051048279, -1.3072597980499268 l0.2905021794140339, -4.648034870624542 0.8715065568685532, -1.5977619588375092 m10.312827825546265, 9.441320896148682 l0.8715065568685532, -2.178766429424286 2.324017435312271, -2.7597707509994507 l3.1955239176750183, -1.8882642686367035 1.7430131137371063, -0.14525108970701694 m-0.5810043588280678, 14.815611839294434 l0.0, -1.1620087176561356 0.5810043588280678, -0.726255476474762 l1.8882642686367035, -1.1620087176561356 4.648034870624542, -1.3072597980499268 l4.648034870624542, -0.14525108970701694 1.452510952949524, 1.452510952949524 l0.726255476474762, 2.178766429424286 0.0, 3.1955239176750183 l-0.8715065568685532, 2.905021905899048 m-9.296069741249084, 2.4692685902118683 l2.6145195960998535, -1.5977619588375092 1.5977619588375092, -0.2905021794140339 l3.9217793941497803, 0.0 1.5977619588375092, 0.726255476474762 l1.1620087176561356, 1.452510952949524 0.726255476474762, 1.8882642686367035 l0.0, 2.0335152745246887 -0.726255476474762, 2.4692685902118683 l-2.4692685902118683, 2.6145195960998535 m-6.972052454948425, -0.5810043588280678 l7.26255476474762, 2.905021905899048 1.3072597980499268, 1.452510952949524 l0.2905021794140339, 1.5977619588375092 -0.726255476474762, 2.905021905899048 l-3.1955239176750183, 2.905021905899048 m-39.2177939414978, -23.385426998138428 l-1.452510952949524, -0.726255476474762 -4.648034870624542, 0.5810043588280678 l-3.4860262274742126, 1.7430131137371063 -3.050273060798645, 2.324017435312271 m11.039083003997803, 4.793286025524139 l-2.324017435312271, 0.0 -2.905021905899048, 1.0167576372623444 l-4.502783715724945, 2.905021905899048 -2.0335152745246887, 2.4692685902118683 l-1.0167576372623444, 2.7597707509994507 0.4357532784342766, 4.938537180423737 m11.184333562850952, -4.067030549049377 l-1.1620087176561356, -0.14525108970701694 -1.452510952949524, 1.452510952949524 l-1.452510952949524, 4.648034870624542 0.0, 2.178766429424286 m23.094923496246338, -42.26806640625 l0.4357532784342766, -1.7430131137371063 3.9217793941497803, -2.905021905899048 l3.1955239176750183, -1.1620087176561356 3.4860262274742126, -0.5810043588280678 m-18.01113486289978, 8.134061098098755 l-1.452510952949524, -2.6145195960998535 -2.0335152745246887, -1.8882642686367035 l-1.452510952949524, -0.4357532784342766 -4.212281703948975, 0.0 l-2.178766429424286, 1.8882642686367035 -1.1620087176561356, 2.324017435312271 l-0.4357532784342766, 5.955294966697693 m9.00556743144989, -7.698307633399963 l-2.324017435312271, -0.14525108970701694 -6.681550145149231, 5.6647926568984985 l-3.050273060798645, 4.502783715724945 -0.4357532784342766, 4.067030549049377 m0.4357532784342766, -0.726255476474762 l-1.3072597980499268, -0.14525108970701694 -0.726255476474762, 0.726255476474762 l-1.452510952949524, 4.212281703948975 -0.4357532784342766, 6.391047835350037 l0.4357532784342766, 5.229039192199707 m1.1620087176561356, 1.5977619588375092 l3.4860262274742126, -0.5810043588280678 0.5810043588280678, 3.63127738237381 m1.0167576372623444, 4.793286025524139 l2.6145195960998535, 0.2905021794140339 m26.145195960998535, -41.6870641708374 l11.184333562850952, 2.7597707509994507 2.4692685902118683, 1.452510952949524 l1.8882642686367035, 1.8882642686367035 0.8715065568685532, 2.178766429424286 l-0.4357532784342766, 5.955294966697693 -3.9217793941497803, 7.8435587882995605 l-0.2905021794140339, 1.8882642686367035 m6.536298990249634, 5.6647926568984985 l-1.452510952949524, 2.7597707509994507 -2.4692685902118683, 3.050273060798645 m3.4860262274742126, -2.6145195960998535 l-0.726255476474762, 0.14525108970701694 m-31.809988021850586, -12.20109224319458 l-0.2905021794140339, -0.2905021794140339 m12.491593360900879, -0.8715065568685532 l-0.8715065568685532, 0.5810043588280678 -0.5810043588280678, -0.2905021794140339 " fill="none" stroke="black" stroke-width="1" /></svg>