<?xml version="1.0" encoding="utf-8" ?>
<svg baseProfile="full" height="51.25130891799927" version="1.1" width="50.815556747838855" xmlns="http://www.w3.org/2000/svg" xmlns:ev="http://www.w3.org/2001/xml-events" xmlns:xlink="http://www.w3.org/1999/xlink"><defs /><rect fill="white" height="51.25130891799927" width="50.815556747838855" x="0" y="0" /><path d="M12.262556813657284, 11.100545972585678 m7.26255476474762, 6.10054612159729 m-10.16757607460022, 3.9217793941497803 l3.1955239176750183, 0.726255476474762 4.357532858848572, 2.7597707509994507 m-5.229039192199707, 5.519541501998901 l4.648034870624542, -1.3072597980499268 m-5.955294966697693, 10.02232551574707 l3.050273060798645, -2.6145195960998535 2.4692685902118683, -1.0167576372623444 m-4.212281703948975, 9.441320896148682 l2.6145195960998535, -3.776528537273407 3.1955239176750183, -2.6145195960998535 m-1.0167576372623444, 6.10054612159729 l7.698307633399963, -4.357532858848572 m2.324017435312271, -2.6145195960998535 l2.324017435312271, 5.08378803730011 2.7597707509994507, 1.8882642686367035 m0.5810043588280678, -7.8435587882995605 l3.9217793941497803, 3.3407750725746155 2.6145195960998535, 1.0167576372623444 m-1.1620087176561356, -7.26255476474762 l4.067030549049377, 1.3072597980499268 2.4692685902118683, 0.0 l0.726255476474762, -0.4357532784342766 m-4.212281703948975, -6.681550145149231 l3.3407750725746155, -3.1955239176750183 m-5.519541501998901, -5.955294966697693 l0.8715065568685532, -2.0335152745246887 3.9217793941497803, -4.938537180423737 m-9.296069741249084, 0.4357532784342766 l0.14525108970701694, -1.452510952949524 1.7430131137371063, -3.776528537273407 m-13.508352041244507, 6.391047835350037 l2.905021905899048, -8.279312252998352 m1.1620087176561356, 7.698307633399963 l-2.7597707509994507, 0.4357532784342766 -1.7430131137371063, 1.0167576372623444 l-2.0335152745246887, 1.8882642686367035 -3.776528537273407, 5.229039192199707 l-1.452510952949524, 3.4860262274742126 -0.726255476474762, 3.1955239176750183 l0.4357532784342766, 5.08378803730011 1.7430131137371063, 2.7597707509994507 l1.8882642686367035, 1.1620087176561356 2.324017435312271, 0.5810043588280678 l5.08378803730011, 0.2905021794140339 2.4692685902118683, -0.14525108970701694 l4.648034870624542, -1.7430131137371063 1.8882642686367035, -1.5977619588375092 l2.4692685902118683, -4.502783715724945 0.5810043588280678, -3.9217793941497803 l-0.5810043588280678, -5.08378803730011 -2.324017435312271, -3.63127738237381 l-3.050273060798645, -2.0335152745246887 -3.63127738237381, -1.1620087176561356 l-4.212281703948975, 0.2905021794140339 m-3.1955239176750183, 6.536298990249634 l-0.8715065568685532, 1.1620087176561356 0.0, 1.452510952949524 l0.2905021794140339, 0.5810043588280678 0.5810043588280678, 0.14525108970701694 l1.8882642686367035, -0.5810043588280678 1.1620087176561356, -1.3072597980499268 l0.0, -0.8715065568685532 -1.3072597980499268, -1.1620087176561356 m9.00556743144989, -1.1620087176561356 l-0.8715065568685532, 1.3072597980499268 -0.4357532784342766, 2.7597707509994507 l1.0167576372623444, 0.5810043588280678 0.8715065568685532, 0.0 l1.452510952949524, -0.726255476474762 0.5810043588280678, -1.1620087176561356 l-1.0167576372623444, -1.5977619588375092 -1.0167576372623444, 0.0 l-0.5810043588280678, 0.2905021794140339 m-10.893832445144653, 14.234607219696045 l0.0, -1.8882642686367035 1.3072597980499268, -3.1955239176750183 l1.1620087176561356, -1.3072597980499268 2.178766429424286, -0.726255476474762 l3.3407750725746155, 0.5810043588280678 2.7597707509994507, 1.5977619588375092 l0.8715065568685532, 1.5977619588375092 1.0167576372623444, 3.9217793941497803 m-9.586572051048279, -5.229039192199707 l0.0, 2.0335152745246887 0.726255476474762, 0.726255476474762 l1.452510952949524, -4.212281703948975 m0.5810043588280678, 1.452510952949524 l1.0167576372623444, 2.0335152745246887 1.3072597980499268, 1.1620087176561356 l0.5810043588280678, -0.2905021794140339 1.7430131137371063, -4.212281703948975 m-12.927347421646118, -20.62565565109253 l2.0335152745246887, 3.9217793941497803 2.6145195960998535, 2.0335152745246887 m-8.279312252998352, -2.178766429424286 l3.9217793941497803, 3.9217793941497803 0.726255476474762, 1.7430131137371063 m-7.553057074546814, -2.324017435312271 l4.212281703948975, 4.938537180423737 m-7.407805919647217, -0.14525108970701694 l5.810043811798096, 4.648034870624542 m-7.8435587882995605, 3.050273060798645 l0.5810043588280678, 0.2905021794140339 0.14525108970701694, -0.8715065568685532 l-1.1620087176561356, -4.357532858848572 -0.5810043588280678, -4.212281703948975 l1.8882642686367035, 1.7430131137371063 1.1620087176561356, 0.4357532784342766 l0.5810043588280678, -7.407805919647217 3.4860262274742126, 0.14525108970701694 l1.0167576372623444, -3.3407750725746155 0.5810043588280678, -0.4357532784342766 l3.4860262274742126, 0.8715065568685532 1.5977619588375092, -0.14525108970701694 l1.0167576372623444, -0.8715065568685532 2.324017435312271, -3.63127738237381 l0.726255476474762, -0.14525108970701694 0.5810043588280678, 0.14525108970701694 l-0.726255476474762, 2.905021905899048 0.726255476474762, 0.4357532784342766 l6.972052454948425, -3.9217793941497803 1.3072597980499268, -0.2905021794140339 l1.3072597980499268, 0.4357532784342766 0.14525108970701694, 0.8715065568685532 l-1.452510952949524, 3.776528537273407 3.776528537273407, -0.726255476474762 l3.3407750725746155, 0.14525108970701694 0.0, 1.452510952949524 l-0.726255476474762, 1.7430131137371063 4.502783715724945, 0.2905021794140339 l1.1620087176561356, 0.726255476474762 -0.2905021794140339, 0.8715065568685532 l-2.7597707509994507, 3.4860262274742126 0.0, 0.726255476474762 l4.212281703948975, 2.6145195960998535 0.8715065568685532, 1.5977619588375092 l-0.5810043588280678, 2.324017435312271 -2.7597707509994507, 3.9217793941497803 l0.0, 1.1620087176561356 1.7430131137371063, 3.1955239176750183 l-0.4357532784342766, 1.8882642686367035 -1.5977619588375092, 1.5977619588375092 l-3.1955239176750183, 0.5810043588280678 -0.14525108970701694, 2.905021905899048 l-0.8715065568685532, 1.3072597980499268 -1.0167576372623444, 0.5810043588280678 l-3.050273060798645, 0.14525108970701694 -5.08378803730011, -0.2905021794140339 l-1.1620087176561356, 2.7597707509994507 -0.726255476474762, 0.14525108970701694 l-6.391047835350037, -2.178766429424286 -3.776528537273407, 2.7597707509994507 l-1.1620087176561356, 0.2905021794140339 -1.3072597980499268, -2.7597707509994507 l-0.8715065568685532, -5.229039192199707 -4.067030549049377, 2.0335152745246887 l0.0, -1.452510952949524 1.1620087176561356, -3.050273060798645 l0.5810043588280678, -3.050273060798645 -0.2905021794140339, -1.452510952949524 l-4.067030549049377, -0.4357532784342766 -0.8715065568685532, -0.5810043588280678 l-0.14525108970701694, -0.5810043588280678 1.3072597980499268, -4.357532858848572 l1.0167576372623444, -1.452510952949524 3.3407750725746155, -1.7430131137371063 " fill="none" stroke="black" stroke-width="1" /></svg>