<?xml version="1.0" encoding="utf-8" ?>
<svg baseProfile="full" height="71.87696469016373" version="1.1" width="87.85458568483591" xmlns="http://www.w3.org/2000/svg" xmlns:ev="http://www.w3.org/2001/xml-events" xmlns:xlink="http://www.w3.org/1999/xlink"><defs /><rect fill="white" height="71.87696469016373" width="87.85458568483591" x="0" y="0" /><path d="M57.145142033696175, 11.245796605944633 m-7.698307633399963, -1.452510952949524 l-4.648034870624542, 0.0 -8.134061098098755, 3.63127738237381 l-8.715065717697144, 5.6647926568984985 -2.4692685902118683, 2.178766429424286 l-4.502783715724945, 7.26255476474762 -5.810043811798096, 13.508352041244507 l-0.8715065568685532, 3.63127738237381 0.0, 4.212281703948975 l0.726255476474762, 1.452510952949524 4.067030549049377, 3.9217793941497803 l6.10054612159729, 3.63127738237381 6.536298990249634, 2.0335152745246887 l8.134061098098755, 0.14525108970701694 2.4692685902118683, -0.2905021794140339 l6.391047835350037, -1.8882642686367035 5.810043811798096, -2.4692685902118683 l6.391047835350037, -4.212281703948975 4.938537180423737, -4.648034870624542 l3.9217793941497803, -5.374290347099304 1.5977619588375092, -3.63127738237381 l1.3072597980499268, -7.26255476474762 -0.14525108970701694, -3.63127738237381 l-2.324017435312271, -4.502783715724945 -4.502783715724945, -5.6647926568984985 l-6.536298990249634, -5.6647926568984985 -2.0335152745246887, -2.4692685902118683 l-1.8882642686367035, -0.5810043588280678 m-16.8491268157959, 19.173144102096558 l-1.452510952949524, -0.5810043588280678 -0.8715065568685532, 0.4357532784342766 l0.14525108970701694, 1.5977619588375092 0.726255476474762, 0.5810043588280678 l1.5977619588375092, -0.14525108970701694 0.726255476474762, -0.5810043588280678 l0.0, -0.726255476474762 -1.0167576372623444, -0.8715065568685532 l-1.5977619588375092, -0.14525108970701694 0.0, 1.5977619588375092 l0.726255476474762, 0.4357532784342766 0.726255476474762, -0.5810043588280678 l0.0, -0.726255476474762 3.050273060798645, 0.5810043588280678 m13.94410490989685, 0.2905021794140339 l-1.452510952949524, 0.0 -0.2905021794140339, 0.726255476474762 l0.2905021794140339, 1.0167576372623444 1.5977619588375092, 0.4357532784342766 l0.5810043588280678, -0.726255476474762 -0.14525108970701694, -0.726255476474762 l-1.0167576372623444, -0.5810043588280678 -1.7430131137371063, 0.0 l1.452510952949524, 0.5810043588280678 -3.050273060798645, 0.0 l-7.8435587882995605, 1.452510952949524 m-3.1955239176750183, 6.681550145149231 l5.519541501998901, 0.14525108970701694 1.452510952949524, 0.4357532784342766 m-6.826801300048828, 5.955294966697693 l-0.4357532784342766, -0.726255476474762 -0.726255476474762, -0.14525108970701694 l1.3072597980499268, 1.452510952949524 2.178766429424286, 0.4357532784342766 l0.0, -1.5977619588375092 -1.452510952949524, -0.726255476474762 l0.4357532784342766, 0.726255476474762 2.178766429424286, 0.8715065568685532 l1.452510952949524, 0.0 -1.5977619588375092, -0.4357532784342766 l4.648034870624542, 0.14525108970701694 m-2.0335152745246887, -37.91053533554077 l-5.810043811798096, -1.5977619588375092 -5.519541501998901, 0.4357532784342766 l-3.4860262274742126, 2.324017435312271 -1.7430131137371063, 3.3407750725746155 l0.0, 2.178766429424286 0.726255476474762, 1.452510952949524 l1.1620087176561356, 0.8715065568685532 2.0335152745246887, 0.2905021794140339 l0.0, -0.726255476474762 -1.1620087176561356, -0.2905021794140339 l-10.603330135345459, 0.0 -2.178766429424286, 0.5810043588280678 l-1.7430131137371063, 1.1620087176561356 -0.2905021794140339, 5.6647926568984985 l0.5810043588280678, 1.3072597980499268 1.7430131137371063, 1.7430131137371063 l-1.1620087176561356, -0.726255476474762 -4.212281703948975, -0.8715065568685532 l-5.08378803730011, 0.0 -1.7430131137371063, 1.1620087176561356 l0.14525108970701694, 1.5977619588375092 1.452510952949524, 1.452510952949524 l4.502783715724945, 2.6145195960998535 -4.648034870624542, 1.5977619588375092 l-0.726255476474762, 0.726255476474762 -0.2905021794140339, 7.698307633399963 l0.4357532784342766, 1.1620087176561356 2.905021905899048, 3.050273060798645 l1.7430131137371063, 0.4357532784342766 2.0335152745246887, -0.14525108970701694 l0.14525108970701694, -0.8715065568685532 -0.8715065568685532, -0.726255476474762 l-2.6145195960998535, 0.0 -2.4692685902118683, 0.726255476474762 l-3.3407750725746155, 2.0335152745246887 -1.1620087176561356, 2.178766429424286 l-0.14525108970701694, 4.502783715724945 2.7597707509994507, 3.9217793941497803 l3.050273060798645, 1.7430131137371063 3.9217793941497803, 0.4357532784342766 l0.726255476474762, -0.2905021794140339 0.2905021794140339, -0.726255476474762 l-0.2905021794140339, -1.452510952949524 0.0, 1.3072597980499268 l1.3072597980499268, 2.6145195960998535 3.1955239176750183, 3.4860262274742126 l7.26255476474762, 2.905021905899048 6.2457966804504395, 0.0 l2.905021905899048, -2.4692685902118683 0.5810043588280678, -3.1955239176750183 l-1.1620087176561356, -1.5977619588375092 -1.8882642686367035, -1.3072597980499268 l-0.726255476474762, 0.14525108970701694 0.0, 2.6145195960998535 l0.4357532784342766, 1.0167576372623444 3.3407750725746155, 3.1955239176750183 l4.938537180423737, 1.5977619588375092 6.536298990249634, 0.0 l1.452510952949524, -1.0167576372623444 1.1620087176561356, -2.324017435312271 l0.726255476474762, -7.988809943199158 -0.726255476474762, -1.8882642686367035 l-1.3072597980499268, -1.3072597980499268 -1.5977619588375092, -0.4357532784342766 l0.2905021794140339, 0.8715065568685532 3.4860262274742126, 1.1620087176561356 l11.910589933395386, 0.4357532784342766 2.178766429424286, -0.8715065568685532 l2.4692685902118683, -5.229039192199707 0.4357532784342766, -6.681550145149231 l-1.452510952949524, -0.2905021794140339 0.2905021794140339, 1.5977619588375092 l1.8882642686367035, 1.8882642686367035 4.357532858848572, 2.0335152745246887 l1.8882642686367035, 0.14525108970701694 1.1620087176561356, -0.4357532784342766 l2.0335152745246887, -2.0335152745246887 3.3407750725746155, -6.536298990249634 l0.4357532784342766, -6.972052454948425 -0.726255476474762, -2.905021905899048 l-1.0167576372623444, -0.5810043588280678 -2.6145195960998535, 0.0 l-1.7430131137371063, 0.8715065568685532 -1.452510952949524, 1.452510952949524 l-0.2905021794140339, 1.7430131137371063 0.4357532784342766, 0.726255476474762 l3.3407750725746155, -0.2905021794140339 1.5977619588375092, -1.8882642686367035 l0.4357532784342766, -2.178766429424286 0.14525108970701694, -6.2457966804504395 l-0.4357532784342766, -2.178766429424286 -1.452510952949524, -3.1955239176750183 l-1.1620087176561356, -1.452510952949524 -1.1620087176561356, -1.1620087176561356 l-2.324017435312271, -1.1620087176561356 -3.63127738237381, 0.2905021794140339 l-3.63127738237381, 3.050273060798645 -0.4357532784342766, 1.8882642686367035 l2.6145195960998535, 0.2905021794140339 1.8882642686367035, -1.0167576372623444 l0.726255476474762, -0.726255476474762 0.4357532784342766, -1.452510952949524 l0.0, -2.6145195960998535 -2.6145195960998535, -3.050273060798645 l-1.5977619588375092, -0.8715065568685532 -5.6647926568984985, -1.3072597980499268 l-5.6647926568984985, 0.0 -4.793286025524139, 1.0167576372623444 l-3.9217793941497803, 2.4692685902118683 -0.14525108970701694, 1.8882642686367035 l0.8715065568685532, 0.8715065568685532 3.050273060798645, 0.5810043588280678 l4.648034870624542, -0.14525108970701694 3.050273060798645, -1.0167576372623444 l2.0335152745246887, -1.452510952949524 0.14525108970701694, -2.324017435312271 l-1.1620087176561356, -1.1620087176561356 -1.1620087176561356, -1.0167576372623444 l-4.067030549049377, -1.1620087176561356 -5.519541501998901, -0.14525108970701694 l-1.7430131137371063, 0.4357532784342766 -2.7597707509994507, 1.5977619588375092 l-0.5810043588280678, 1.5977619588375092 " fill="none" stroke="black" stroke-width="1" /></svg>