<?xml version="1.0" encoding="utf-8" ?>
<svg baseProfile="full" height="40.06697587668896" version="1.1" width="33.09492344968021" xmlns="http://www.w3.org/2000/svg" xmlns:ev="http://www.w3.org/2001/xml-events" xmlns:xlink="http://www.w3.org/1999/xlink"><defs /><rect fill="white" height="40.06697587668896" width="33.09492344968021" x="0" y="0" /><path d="M16.329584950581193, 27.51391920261085 m-0.14525108970701694, -0.5810043588280678 l-0.726255476474762, 0.14525108970701694 -7.698307633399963, 7.988809943199158 l-0.5810043588280678, -0.2905021794140339 0.0, -1.1620087176561356 l1.7430131137371063, -9.150818586349487 -2.7597707509994507, 1.1620087176561356 l-0.726255476474762, -0.5810043588280678 -0.4357532784342766, -1.8882642686367035 l0.0, -2.324017435312271 1.3072597980499268, -2.324017435312271 l2.905021905899048, -2.905021905899048 1.5977619588375092, -0.5810043588280678 l-0.8715065568685532, 0.2905021794140339 -2.324017435312271, -0.726255476474762 l-0.8715065568685532, -0.726255476474762 -0.726255476474762, -1.5977619588375092 l2.6145195960998535, -0.726255476474762 7.988809943199158, -0.4357532784342766 l0.2905021794140339, -0.5810043588280678 -2.0335152745246887, -5.519541501998901 l1.3072597980499268, 0.5810043588280678 1.452510952949524, 1.8882642686367035 l4.793286025524139, 8.569814562797546 0.14525108970701694, -2.905021905899048 l1.0167576372623444, -1.0167576372623444 2.4692685902118683, 1.7430131137371063 l1.0167576372623444, 1.8882642686367035 1.0167576372623444, 4.502783715724945 l-0.2905021794140339, 2.4692685902118683 -0.5810043588280678, 0.2905021794140339 l-1.3072597980499268, -0.2905021794140339 1.0167576372623444, 3.1955239176750183 l-0.4357532784342766, 0.8715065568685532 -1.5977619588375092, 0.5810043588280678 l0.0, 0.8715065568685532 1.3072597980499268, 1.8882642686367035 l-0.14525108970701694, 0.8715065568685532 -2.4692685902118683, 0.2905021794140339 l-2.7597707509994507, -0.5810043588280678 0.5810043588280678, 0.0 l1.3072597980499268, 1.3072597980499268 -2.0335152745246887, -0.4357532784342766 l-5.810043811798096, -3.1955239176750183 2.905021905899048, 0.2905021794140339 l-2.0335152745246887, -1.0167576372623444 m0.8715065568685532, -11.184333562850952 l-1.452510952949524, -0.2905021794140339 -0.5810043588280678, 0.2905021794140339 l-2.0335152745246887, 2.178766429424286 -0.8715065568685532, 2.324017435312271 l0.2905021794140339, 4.793286025524139 1.0167576372623444, 2.0335152745246887 l0.726255476474762, 0.4357532784342766 0.8715065568685532, 0.0 l0.8715065568685532, -0.726255476474762 1.3072597980499268, -2.178766429424286 l1.5977619588375092, -6.10054612159729 -0.14525108970701694, -2.6145195960998535 m-3.776528537273407, 2.7597707509994507 l0.0, 1.0167576372623444 m2.905021905899048, -1.0167576372623444 l-0.4357532784342766, 0.2905021794140339 " fill="none" stroke="black" stroke-width="1" /></svg>