<?xml version="1.0" encoding="utf-8" ?>
<svg baseProfile="full" height="90.75960819609463" version="1.1" width="119.66457485221326" xmlns="http://www.w3.org/2000/svg" xmlns:ev="http://www.w3.org/2001/xml-events" xmlns:xlink="http://www.w3.org/1999/xlink"><defs /><rect fill="white" height="90.75960819609463" width="119.66457485221326" x="0" y="0" /><path d="M69.34623608365655, 67.7484723366797 m-2.7597707509994507, 2.0335152745246887 l-4.648034870624542, 2.178766429424286 -7.26255476474762, 0.14525108970701694 l-3.4860262274742126, -1.1620087176561356 -6.10054612159729, -3.9217793941497803 l-5.955294966697693, -5.519541501998901 -4.938537180423737, -6.10054612159729 l-1.452510952949524, -3.1955239176750183 -0.5810043588280678, -3.776528537273407 l0.0, -4.357532858848572 1.3072597980499268, -4.212281703948975 l2.4692685902118683, -3.776528537273407 3.4860262274742126, -3.63127738237381 l4.357532858848572, -2.905021905899048 5.374290347099304, -2.324017435312271 l5.374290347099304, -1.3072597980499268 5.374290347099304, -0.4357532784342766 l4.793286025524139, 0.2905021794140339 3.3407750725746155, 1.8882642686367035 l2.905021905899048, 3.050273060798645 2.4692685902118683, 3.9217793941497803 l1.8882642686367035, 4.793286025524139 1.5977619588375092, 5.810043811798096 l0.8715065568685532, 7.26255476474762 -0.14525108970701694, 9.877074360847473 l-0.4357532784342766, 2.0335152745246887 -1.5977619588375092, 2.178766429424286 l-1.8882642686367035, 0.726255476474762 m-24.40218448638916, -45.75409412384033 l-7.407805919647217, 0.14525108970701694 -6.972052454948425, -5.08378803730011 l-6.10054612159729, -3.3407750725746155 -5.6647926568984985, 0.14525108970701694 l-2.178766429424286, 1.3072597980499268 -1.3072597980499268, 1.8882642686367035 l-0.14525108970701694, 2.0335152745246887 0.8715065568685532, 3.050273060798645 l3.1955239176750183, 4.938537180423737 1.0167576372623444, 2.6145195960998535 l-0.8715065568685532, 0.4357532784342766 -4.793286025524139, -1.5977619588375092 l-3.4860262274742126, 0.0 -3.9217793941497803, 1.1620087176561356 l-3.3407750725746155, 2.4692685902118683 -2.178766429424286, 2.905021905899048 l-1.0167576372623444, 2.6145195960998535 0.0, 2.6145195960998535 l1.8882642686367035, 2.4692685902118683 2.905021905899048, 1.1620087176561356 l9.731823205947876, 0.2905021794140339 2.324017435312271, 0.4357532784342766 l1.452510952949524, 0.726255476474762 0.726255476474762, 1.3072597980499268 l-0.726255476474762, 2.905021905899048 -5.229039192199707, 9.00556743144989 l-2.324017435312271, 5.229039192199707 -1.5977619588375092, 4.357532858848572 l0.14525108970701694, 3.63127738237381 2.6145195960998535, 0.0 l4.357532858848572, -1.3072597980499268 8.42456340789795, -3.4860262274742126 l3.9217793941497803, -0.4357532784342766 1.1620087176561356, 1.1620087176561356 l0.4357532784342766, 3.050273060798645 0.2905021794140339, 11.329585313796997 l1.7430131137371063, 2.0335152745246887 3.1955239176750183, 0.4357532784342766 l5.374290347099304, -0.8715065568685532 19.173144102096558, -7.1173036098480225 l5.810043811798096, -1.3072597980499268 3.9217793941497803, 0.0 l2.0335152745246887, 1.8882642686367035 1.0167576372623444, 5.6647926568984985 l1.0167576372623444, 2.4692685902118683 2.7597707509994507, 0.8715065568685532 l4.793286025524139, -0.8715065568685532 5.810043811798096, -3.050273060798645 l9.441320896148682, -7.407805919647217 7.553057074546814, -6.972052454948425 l4.502783715724945, -5.519541501998901 1.0167576372623444, -2.178766429424286 l0.0, -2.178766429424286 -1.1620087176561356, -1.7430131137371063 l-2.324017435312271, -1.0167576372623444 -3.776528537273407, -0.5810043588280678 l-9.586572051048279, -0.14525108970701694 -1.0167576372623444, -1.5977619588375092 l0.0, -3.4860262274742126 1.452510952949524, -4.357532858848572 l5.229039192199707, -10.603330135345459 1.8882642686367035, -4.793286025524139 l0.8715065568685532, -3.4860262274742126 -0.2905021794140339, -2.324017435312271 l-2.905021905899048, -1.1620087176561356 -4.502783715724945, 0.0 l-8.86031687259674, 1.7430131137371063 -2.6145195960998535, 0.0 l-1.7430131137371063, -1.1620087176561356 -0.5810043588280678, -3.050273060798645 l0.4357532784342766, -4.357532858848572 1.452510952949524, -6.681550145149231 l0.0, -2.4692685902118683 -2.324017435312271, -1.3072597980499268 l-10.02232551574707, 0.5810043588280678 -14.234607219696045, 5.08378803730011 l-2.4692685902118683, 0.4357532784342766 -7.1173036098480225, -0.4357532784342766 l-2.6145195960998535, 0.8715065568685532 -1.1620087176561356, 1.1620087176561356 m-3.776528537273407, 21.351909637451172 l5.08378803730011, 4.357532858848572 5.08378803730011, 7.26255476474762 m14.234607219696045, -11.76533818244934 l-2.324017435312271, 2.7597707509994507 -3.050273060798645, 6.10054612159729 m-18.882641792297363, 6.391047835350037 l0.8715065568685532, 2.324017435312271 m26.58094882965088, -1.7430131137371063 l-2.324017435312271, 2.905021905899048 " fill="none" stroke="black" stroke-width="1" /></svg>