<?xml version="1.0" encoding="utf-8" ?>
<svg baseProfile="full" height="42.2457423619926" version="1.1" width="51.25131052918732" xmlns="http://www.w3.org/2000/svg" xmlns:ev="http://www.w3.org/2001/xml-events" xmlns:xlink="http://www.w3.org/1999/xlink"><defs /><rect fill="white" height="42.2457423619926" width="51.25131052918732" x="0" y="0" /><path d="M33.46921465359628, 17.055840054526925 m-4.357532858848572, -2.6145195960998535 l-5.810043811798096, -2.324017435312271 -5.6647926568984985, -0.2905021794140339 l-1.1620087176561356, 0.4357532784342766 -3.050273060798645, 2.905021905899048 l-1.7430131137371063, 4.938537180423737 0.14525108970701694, 4.793286025524139 l1.8882642686367035, 2.7597707509994507 2.324017435312271, 1.8882642686367035 l5.519541501998901, 1.452510952949524 6.2457966804504395, 0.0 l5.6647926568984985, -2.0335152745246887 2.178766429424286, -1.5977619588375092 l1.1620087176561356, -1.452510952949524 0.726255476474762, -2.324017435312271 l0.14525108970701694, -1.452510952949524 -0.5810043588280678, -1.452510952949524 l-2.324017435312271, -3.3407750725746155 -4.067030549049377, -2.0335152745246887 m1.1620087176561356, -1.5977619588375092 l5.6647926568984985, -0.5810043588280678 0.5810043588280678, 0.8715065568685532 l-0.5810043588280678, 1.5977619588375092 1.3072597980499268, 0.726255476474762 l7.407805919647217, 1.5977619588375092 -6.10054612159729, 5.6647926568984985 l0.0, 0.726255476474762 2.178766429424286, 2.178766429424286 l-0.14525108970701694, 0.726255476474762 -2.7597707509994507, 1.7430131137371063 l-3.63127738237381, -0.2905021794140339 -1.0167576372623444, 4.067030549049377 l-1.3072597980499268, 1.8882642686367035 -1.5977619588375092, 0.8715065568685532 l-2.7597707509994507, -1.8882642686367035 -6.681550145149231, 3.4860262274742126 l-3.63127738237381, 0.14525108970701694 -1.452510952949524, -1.3072597980499268 l-1.0167576372623444, -2.6145195960998535 -5.810043811798096, 1.0167576372623444 l-2.7597707509994507, -0.5810043588280678 -0.8715065568685532, -1.452510952949524 l2.6145195960998535, -2.6145195960998535 0.0, -1.7430131137371063 l-4.067030549049377, -2.6145195960998535 -0.4357532784342766, -1.5977619588375092 l2.0335152745246887, -1.452510952949524 1.3072597980499268, -1.8882642686367035 l-0.14525108970701694, -0.726255476474762 -1.5977619588375092, -1.452510952949524 l0.14525108970701694, -0.726255476474762 4.357532858848572, -3.1955239176750183 l2.6145195960998535, -2.905021905899048 0.2905021794140339, -3.63127738237381 l3.1955239176750183, -1.452510952949524 0.726255476474762, 0.4357532784342766 l0.4357532784342766, 1.3072597980499268 1.3072597980499268, 0.4357532784342766 l10.458078384399414, -3.1955239176750183 2.324017435312271, -0.2905021794140339 l0.5810043588280678, 1.3072597980499268 0.0, 2.324017435312271 l-1.7430131137371063, 4.502783715724945 m-12.20109224319458, 2.4692685902118683 l-0.8715065568685532, -0.2905021794140339 -1.5977619588375092, 1.5977619588375092 l-0.14525108970701694, 2.324017435312271 0.5810043588280678, 0.726255476474762 l1.5977619588375092, 0.14525108970701694 1.452510952949524, -0.8715065568685532 l0.8715065568685532, -1.1620087176561356 -0.2905021794140339, -1.5977619588375092 l-2.4692685902118683, -1.5977619588375092 m9.877074360847473, 3.3407750725746155 l-3.4860262274742126, -0.5810043588280678 -0.5810043588280678, 2.0335152745246887 l0.4357532784342766, 0.726255476474762 1.3072597980499268, 0.4357532784342766 l2.4692685902118683, 0.0 0.726255476474762, -0.4357532784342766 l0.2905021794140339, -0.8715065568685532 -1.1620087176561356, -0.8715065568685532 l-2.4692685902118683, -0.4357532784342766 m-6.10054612159729, 7.1173036098480225 l1.3072597980499268, 0.8715065568685532 2.178766429424286, 0.5810043588280678 l1.452510952949524, 0.0 0.5810043588280678, -0.726255476474762 m-2.178766429424286, -3.1955239176750183 l-1.452510952949524, 0.14525108970701694 m4.648034870624542, -3.776528537273407 l0.0, 0.0 m-6.972052454948425, -1.3072597980499268 l-0.2905021794140339, 0.726255476474762 " fill="none" stroke="black" stroke-width="1" /></svg>