<?xml version="1.0" encoding="utf-8" ?>
<svg baseProfile="full" height="63.88815329410136" version="1.1" width="55.17309045419097" xmlns="http://www.w3.org/2000/svg" xmlns:ev="http://www.w3.org/2001/xml-events" xmlns:xlink="http://www.w3.org/1999/xlink"><defs /><rect fill="white" height="63.88815329410136" width="55.17309045419097" x="0" y="0" /><path d="M30.709444489330053, 21.122870948165655 m1.7430131137371063, 0.14525108970701694 l4.502783715724945, 2.0335152745246887 5.08378803730011, 6.391047835350037 l1.452510952949524, 0.726255476474762 5.229039192199707, 0.4357532784342766 l0.726255476474762, 0.4357532784342766 0.726255476474762, 2.178766429424286 l-1.1620087176561356, 2.178766429424286 -3.63127738237381, 1.7430131137371063 l-12.927347421646118, 2.178766429424286 -3.776528537273407, 0.14525108970701694 m1.452510952949524, -19.173144102096558 l1.452510952949524, -6.2457966804504395 0.2905021794140339, -4.793286025524139 l-1.3072597980499268, -2.905021905899048 -1.3072597980499268, -1.5977619588375092 l-0.726255476474762, 0.5810043588280678 -1.5977619588375092, 6.2457966804504395 l-0.4357532784342766, -2.905021905899048 -0.8715065568685532, -1.3072597980499268 l-0.726255476474762, -0.2905021794140339 -1.8882642686367035, 1.1620087176561356 l-1.5977619588375092, 2.324017435312271 -0.4357532784342766, 1.5977619588375092 l-0.8715065568685532, -2.0335152745246887 -1.452510952949524, -0.5810043588280678 l-5.374290347099304, 1.3072597980499268 -0.8715065568685532, 0.8715065568685532 l-1.7430131137371063, 3.9217793941497803 -0.14525108970701694, 2.324017435312271 l0.726255476474762, 0.8715065568685532 0.8715065568685532, 0.0 l0.8715065568685532, -1.8882642686367035 0.14525108970701694, -2.4692685902118683 l-0.8715065568685532, -2.905021905899048 -0.8715065568685532, -0.4357532784342766 l-0.4357532784342766, 6.681550145149231 2.178766429424286, 8.715065717697144 l-0.14525108970701694, -3.3407750725746155 -5.955294966697693, 7.8435587882995605 l-1.0167576372623444, 4.648034870624542 0.0, 3.050273060798645 l0.4357532784342766, 0.8715065568685532 0.8715065568685532, 0.726255476474762 l0.726255476474762, -0.14525108970701694 0.2905021794140339, -1.3072597980499268 l-0.4357532784342766, 5.08378803730011 0.0, 11.474835872650146 l2.905021905899048, -7.553057074546814 -0.4357532784342766, 8.86031687259674 l1.3072597980499268, -1.1620087176561356 3.4860262274742126, -6.10054612159729 l1.452510952949524, -1.452510952949524 0.8715065568685532, 6.2457966804504395 l0.8715065568685532, 3.3407750725746155 1.0167576372623444, 1.0167576372623444 l0.8715065568685532, 0.0 1.5977619588375092, -5.374290347099304 l0.5810043588280678, -3.9217793941497803 1.0167576372623444, 4.502783715724945 l0.726255476474762, -0.5810043588280678 0.5810043588280678, -4.502783715724945 l0.14525108970701694, -7.553057074546814 0.0, 1.5977619588375092 l0.5810043588280678, -0.726255476474762 1.452510952949524, -4.648034870624542 l0.5810043588280678, -7.553057074546814 0.0, -5.08378803730011 l-0.2905021794140339, 1.8882642686367035 0.8715065568685532, -2.4692685902118683 l-0.14525108970701694, -4.212281703948975 -1.7430131137371063, -2.905021905899048 l-1.8882642686367035, 2.6145195960998535 -3.776528537273407, 7.1173036098480225 l-2.905021905899048, 10.458078384399414 -0.14525108970701694, 2.0335152745246887 l1.0167576372623444, -2.6145195960998535 1.1620087176561356, -5.374290347099304 l0.4357532784342766, -6.391047835350037 -1.452510952949524, 3.3407750725746155 l-2.178766429424286, 9.150818586349487 -1.1620087176561356, 12.055840492248535 l0.8715065568685532, -8.715065717697144 -0.8715065568685532, -6.2457966804504395 l-0.2905021794140339, -0.726255476474762 -0.8715065568685532, -0.4357532784342766 l-2.6145195960998535, 2.7597707509994507 -3.776528537273407, 5.955294966697693 l-2.7597707509994507, 5.6647926568984985 2.324017435312271, -3.4860262274742126 l7.553057074546814, -18.01113486289978 1.8882642686367035, -2.0335152745246887 l-0.14525108970701694, 6.826801300048828 1.452510952949524, -2.178766429424286 l1.3072597980499268, -2.905021905899048 3.050273060798645, -11.910589933395386 l1.8882642686367035, 7.407805919647217 0.5810043588280678, 1.452510952949524 l1.7430131137371063, 1.8882642686367035 1.0167576372623444, -0.14525108970701694 l0.8715065568685532, -1.452510952949524 1.5977619588375092, -4.502783715724945 l0.14525108970701694, -3.050273060798645 -0.8715065568685532, 2.178766429424286 l-1.3072597980499268, 7.407805919647217 -1.452510952949524, 15.106114149093628 l-0.8715065568685532, -12.055840492248535 -1.7430131137371063, 1.5977619588375092 l-4.212281703948975, 6.681550145149231 " fill="none" stroke="black" stroke-width="1" /></svg>