<?xml version="1.0" encoding="utf-8" ?>
<svg baseProfile="full" height="63.88815558515489" version="1.1" width="57.35185624100268" xmlns="http://www.w3.org/2000/svg" xmlns:ev="http://www.w3.org/2001/xml-events" xmlns:xlink="http://www.w3.org/1999/xlink"><defs /><rect fill="white" height="63.88815558515489" width="57.35185624100268" x="0" y="0" /><path d="M29.54743679612875, 12.84356078132987 m-1.0167576372623444, 3.050273060798645 l-1.1620087176561356, 6.536298990249634 0.8715065568685532, 8.134061098098755 l1.452510952949524, 1.7430131137371063 1.8882642686367035, 1.0167576372623444 l1.8882642686367035, 0.5810043588280678 2.6145195960998535, -0.14525108970701694 l1.8882642686367035, -0.5810043588280678 3.050273060798645, -2.6145195960998535 l1.7430131137371063, -4.067030549049377 0.5810043588280678, -4.648034870624542 l-0.2905021794140339, -3.050273060798645 -1.0167576372623444, -2.0335152745246887 l-2.905021905899048, -3.4860262274742126 -5.229039192199707, -3.3407750725746155 l-2.178766429424286, -0.14525108970701694 -2.4692685902118683, 0.8715065568685532 l-3.776528537273407, 3.4860262274742126 m-1.0167576372623444, 18.59213948249817 l-5.374290347099304, -7.8435587882995605 0.0, -0.8715065568685532 l1.1620087176561356, -1.3072597980499268 0.2905021794140339, -2.178766429424286 l-1.5977619588375092, -5.955294966697693 1.7430131137371063, -0.14525108970701694 l1.0167576372623444, -1.1620087176561356 0.8715065568685532, -2.905021905899048 l1.5977619588375092, -0.5810043588280678 2.6145195960998535, -2.0335152745246887 l1.5977619588375092, 0.0 3.4860262274742126, -2.7597707509994507 l1.1620087176561356, 0.14525108970701694 1.5977619588375092, 1.0167576372623444 l3.050273060798645, -0.4357532784342766 1.452510952949524, 0.2905021794140339 l2.324017435312271, 2.324017435312271 5.229039192199707, 0.14525108970701694 l0.726255476474762, 1.452510952949524 0.2905021794140339, 3.050273060798645 l2.6145195960998535, 0.5810043588280678 0.2905021794140339, 1.452510952949524 l-1.8882642686367035, 7.1173036098480225 0.8715065568685532, 1.3072597980499268 l-1.7430131137371063, 4.938537180423737 -1.1620087176561356, 1.7430131137371063 l0.5810043588280678, 0.2905021794140339 0.2905021794140339, 1.3072597980499268 l-2.7597707509994507, 2.324017435312271 -3.4860262274742126, 1.3072597980499268 m-12.636845111846924, -5.374290347099304 l-1.7430131137371063, -1.3072597980499268 -4.938537180423737, -1.1620087176561356 l-7.26255476474762, 0.0 -6.536298990249634, 1.452510952949524 l-0.726255476474762, 0.726255476474762 -1.1620087176561356, 2.7597707509994507 l0.0, 11.474835872650146 0.5810043588280678, 0.5810043588280678 l4.938537180423737, 2.178766429424286 4.502783715724945, 0.5810043588280678 l5.955294966697693, -0.2905021794140339 6.391047835350037, -1.7430131137371063 l5.955294966697693, -3.776528537273407 1.1620087176561356, -1.5977619588375092 l2.324017435312271, -5.229039192199707 m-6.391047835350037, -19.6088969707489 l-0.726255476474762, 0.8715065568685532 0.0, 2.6145195960998535 l0.5810043588280678, 0.2905021794140339 0.4357532784342766, -1.1620087176561356 l0.0, 0.8715065568685532 m5.519541501998901, -2.6145195960998535 l0.0, 0.5810043588280678 -0.726255476474762, -0.4357532784342766 m-7.1173036098480225, 6.10054612159729 l0.5810043588280678, 0.8715065568685532 1.7430131137371063, 6.10054612159729 l1.5977619588375092, 0.0 1.452510952949524, -2.0335152745246887 l1.1620087176561356, -2.905021905899048 m0.8715065568685532, -0.14525108970701694 l-5.229039192199707, 0.0 m4.648034870624542, -9.00556743144989 l0.14525108970701694, 2.178766429424286 0.2905021794140339, -1.3072597980499268 m-13.072597980499268, 15.687117576599121 l2.6145195960998535, -0.726255476474762 m15.541867017745972, 1.0167576372623444 l-2.0335152745246887, 1.1620087176561356 -1.452510952949524, 0.0 l-0.8715065568685532, -0.8715065568685532 m-27.016704082489014, 14.08935546875 l-1.452510952949524, 4.793286025524139 -0.4357532784342766, 3.3407750725746155 l0.4357532784342766, 1.452510952949524 3.3407750725746155, 0.0 l2.324017435312271, -0.8715065568685532 0.726255476474762, -1.5977619588375092 l-3.1955239176750183, -0.8715065568685532 0.2905021794140339, -1.5977619588375092 m13.798853158950806, -4.357532858848572 l-1.5977619588375092, 4.502783715724945 -0.14525108970701694, 2.4692685902118683 l1.0167576372623444, 2.324017435312271 1.5977619588375092, 0.0 l1.7430131137371063, -0.5810043588280678 1.3072597980499268, -1.7430131137371063 l-0.2905021794140339, -0.8715065568685532 -1.7430131137371063, -0.14525108970701694 l-0.5810043588280678, -4.648034870624542 m-22.80442237854004, -14.815611839294434 l0.0, 23.966429233551025 0.8715065568685532, 1.8882642686367035 m18.737391233444214, -31.664738655090332 l-2.7597707509994507, -3.9217793941497803 -0.726255476474762, -6.536298990249634 l1.452510952949524, -4.793286025524139 1.8882642686367035, 0.14525108970701694 l7.8435587882995605, -7.1173036098480225 3.3407750725746155, 2.7597707509994507 l1.452510952949524, 1.8882642686367035 4.212281703948975, 0.0 l1.0167576372623444, 4.357532858848572 0.0, 4.067030549049377 l1.7430131137371063, 1.7430131137371063 m-2.4692685902118683, -11.910589933395386 l1.5977619588375092, -0.4357532784342766 4.648034870624542, 0.0 l1.3072597980499268, 0.2905021794140339 0.14525108970701694, 2.324017435312271 l3.050273060798645, 4.067030549049377 -3.776528537273407, 7.26255476474762 l-1.0167576372623444, 3.3407750725746155 " fill="none" stroke="black" stroke-width="1" /></svg>