<?xml version="1.0" encoding="utf-8" ?>
<svg baseProfile="full" height="48.491539284586906" version="1.1" width="56.04459670372307" xmlns="http://www.w3.org/2000/svg" xmlns:ev="http://www.w3.org/2001/xml-events" xmlns:xlink="http://www.w3.org/1999/xlink"><defs /><rect fill="white" height="48.491539284586906" width="56.04459670372307" x="0" y="0" /><path d="M16.474836403504014, 13.569814087823033 m-1.5977619588375092, 0.726255476474762 l-0.726255476474762, 0.8715065568685532 -1.0167576372623444, 1.5977619588375092 l-0.4357532784342766, 1.7430131137371063 0.0, 7.988809943199158 l2.178766429424286, 4.648034870624542 1.1620087176561356, 1.1620087176561356 l3.9217793941497803, 2.178766429424286 4.793286025524139, 1.3072597980499268 l5.519541501998901, 0.0 1.7430131137371063, -0.5810043588280678 l2.178766429424286, -1.5977619588375092 4.648034870624542, -5.08378803730011 l2.324017435312271, -3.4860262274742126 1.1620087176561356, -3.4860262274742126 l-0.14525108970701694, -2.7597707509994507 -1.1620087176561356, -2.4692685902118683 l-1.0167576372623444, -1.0167576372623444 -1.452510952949524, -1.1620087176561356 l-7.988809943199158, -2.905021905899048 -9.441320896148682, -1.5977619588375092 l-2.905021905899048, 1.0167576372623444 -2.905021905899048, 2.178766429424286 l-1.1620087176561356, 1.5977619588375092 -0.726255476474762, 2.0335152745246887 m-0.2905021794140339, -5.955294966697693 l-1.452510952949524, 0.2905021794140339 -2.905021905899048, 2.0335152745246887 l-2.4692685902118683, 3.050273060798645 1.5977619588375092, 0.14525108970701694 l0.5810043588280678, 1.1620087176561356 -3.1955239176750183, 5.519541501998901 l1.7430131137371063, -0.4357532784342766 0.4357532784342766, 0.8715065568685532 l-0.2905021794140339, 3.050273060798645 -2.178766429424286, 5.6647926568984985 l1.0167576372623444, 4.067030549049377 1.0167576372623444, 0.0 l3.776528537273407, -2.7597707509994507 1.1620087176561356, 5.810043811798096 l5.374290347099304, -3.9217793941497803 0.726255476474762, 3.050273060798645 l1.7430131137371063, 3.3407750725746155 2.4692685902118683, -1.1620087176561356 l2.4692685902118683, 3.1955239176750183 1.0167576372623444, -0.2905021794140339 l2.4692685902118683, -1.8882642686367035 2.324017435312271, -2.7597707509994507 l1.8882642686367035, 3.776528537273407 1.452510952949524, 0.2905021794140339 l2.178766429424286, -2.178766429424286 1.0167576372623444, -1.7430131137371063 l0.8715065568685532, 0.4357532784342766 0.726255476474762, -0.8715065568685532 l0.2905021794140339, -2.4692685902118683 2.4692685902118683, -1.0167576372623444 l1.8882642686367035, -1.7430131137371063 -0.14525108970701694, -2.4692685902118683 l0.4357532784342766, 0.8715065568685532 2.7597707509994507, -0.14525108970701694 l0.5810043588280678, -1.452510952949524 -0.4357532784342766, -1.0167576372623444 l-1.452510952949524, -1.0167576372623444 5.955294966697693, -4.067030549049377 l-0.5810043588280678, -0.726255476474762 -2.324017435312271, -0.2905021794140339 l0.4357532784342766, -6.2457966804504395 2.324017435312271, -3.63127738237381 l-13.217849731445312, -2.905021905899048 -0.5810043588280678, -1.0167576372623444 l0.8715065568685532, -2.4692685902118683 -7.26255476474762, -0.14525108970701694 l-7.988809943199158, -1.3072597980499268 -5.374290347099304, 0.0 l-10.02232551574707, 2.178766429424286 -0.726255476474762, 0.2905021794140339 l0.14525108970701694, 0.726255476474762 0.8715065568685532, 0.2905021794140339 l-0.4357532784342766, 0.8715065568685532 -1.7430131137371063, 1.3072597980499268 l1.7430131137371063, 0.4357532784342766 0.0, 0.726255476474762 l-1.452510952949524, 1.452510952949524 2.178766429424286, 0.0 l-0.4357532784342766, 0.726255476474762 0.14525108970701694, 1.8882642686367035 " fill="none" stroke="black" stroke-width="1" /></svg>