<?xml version="1.0" encoding="utf-8" ?>
<svg baseProfile="full" height="62.290393114089966" version="1.1" width="72.89372279308736" xmlns="http://www.w3.org/2000/svg" xmlns:ev="http://www.w3.org/2001/xml-events" xmlns:xlink="http://www.w3.org/1999/xlink"><defs /><rect fill="white" height="62.290393114089966" width="72.89372279308736" x="0" y="0" /><path d="M25.189902000129223, 38.4077507071197 m-0.8715065568685532, 0.0 l-4.357532858848572, -2.178766429424286 -3.050273060798645, -2.905021905899048 l-0.5810043588280678, -2.4692685902118683 0.0, -3.4860262274742126 l0.726255476474762, -0.8715065568685532 4.793286025524139, -2.6145195960998535 l5.519541501998901, -1.5977619588375092 8.134061098098755, -1.3072597980499268 l13.217849731445312, -1.1620087176561356 2.324017435312271, 2.6145195960998535 l0.8715065568685532, 2.7597707509994507 0.0, 7.1173036098480225 l-1.3072597980499268, 2.905021905899048 -2.6145195960998535, 1.3072597980499268 l-7.8435587882995605, 2.178766429424286 -16.12287163734436, 0.14525108970701694 l-1.1620087176561356, -1.452510952949524 m-6.681550145149231, -9.150818586349487 l-1.452510952949524, 1.452510952949524 -5.810043811798096, 2.6145195960998535 l-1.7430131137371063, 1.3072597980499268 -2.178766429424286, 3.776528537273407 l2.178766429424286, 0.8715065568685532 9.586572051048279, 2.0335152745246887 l6.2457966804504395, 2.324017435312271 0.4357532784342766, 0.726255476474762 l-0.14525108970701694, 2.6145195960998535 -3.3407750725746155, 8.569814562797546 l0.0, 1.3072597980499268 0.8715065568685532, 0.5810043588280678 l3.63127738237381, -1.0167576372623444 5.229039192199707, -2.324017435312271 l3.63127738237381, -3.63127738237381 0.726255476474762, 0.0 l5.08378803730011, 7.1173036098480225 0.726255476474762, 0.5810043588280678 l1.8882642686367035, 0.14525108970701694 5.6647926568984985, -3.1955239176750183 l5.519541501998901, -7.553057074546814 0.726255476474762, 0.2905021794140339 l0.4357532784342766, 0.8715065568685532 2.324017435312271, 6.10054612159729 l1.1620087176561356, 1.7430131137371063 0.726255476474762, 0.2905021794140339 l5.955294966697693, -5.229039192199707 2.0335152745246887, -3.9217793941497803 l1.5977619588375092, -8.715065717697144 -3.3407750725746155, -5.229039192199707 l-1.7430131137371063, -1.3072597980499268 -2.4692685902118683, 0.0 l0.0, -1.0167576372623444 6.536298990249634, -7.553057074546814 l1.0167576372623444, -3.776528537273407 -0.8715065568685532, -2.6145195960998535 l-1.3072597980499268, -1.5977619588375092 -3.4860262274742126, -3.1955239176750183 l-3.9217793941497803, -1.7430131137371063 -0.14525108970701694, -0.726255476474762 l2.4692685902118683, -0.726255476474762 -23.385426998138428, 1.0167576372623444 l-0.726255476474762, 0.5810043588280678 0.0, 3.3407750725746155 l-0.4357532784342766, 1.452510952949524 -5.374290347099304, -8.134061098098755 l-0.726255476474762, -1.7430131137371063 -6.391047835350037, 7.26255476474762 l-3.1955239176750183, 2.0335152745246887 -2.178766429424286, 0.4357532784342766 l-0.726255476474762, -0.726255476474762 -1.3072597980499268, -3.776528537273407 l-0.726255476474762, 0.2905021794140339 -4.648034870624542, 9.877074360847473 l0.0, 0.726255476474762 1.1620087176561356, 1.5977619588375092 l2.178766429424286, 7.8435587882995605 " fill="none" stroke="black" stroke-width="1" /></svg>