<?xml version="1.0" encoding="utf-8" ?>
<svg baseProfile="full" height="56.916103065013885" version="1.1" width="52.558570047840476" xmlns="http://www.w3.org/2000/svg" xmlns:ev="http://www.w3.org/2001/xml-events" xmlns:xlink="http://www.w3.org/1999/xlink"><defs /><rect fill="white" height="56.916103065013885" width="52.558570047840476" x="0" y="0" /><path d="M22.28488047607243, 21.413373444229364 m-2.178766429424286, -4.648034870624542 l-0.726255476474762, -0.4357532784342766 -2.178766429424286, 0.0 l-1.0167576372623444, 1.5977619588375092 0.0, 1.5977619588375092 l1.0167576372623444, 2.324017435312271 m4.793286025524139, -1.3072597980499268 l3.1955239176750183, -0.2905021794140339 1.452510952949524, 0.5810043588280678 l2.178766429424286, -3.63127738237381 1.452510952949524, -0.4357532784342766 l1.452510952949524, 0.14525108970701694 0.5810043588280678, 0.726255476474762 l0.14525108970701694, 1.452510952949524 -0.726255476474762, 2.178766429424286 m0.0, 0.0 l0.5810043588280678, 4.502783715724945 0.4357532784342766, 0.8715065568685532 l1.452510952949524, 0.4357532784342766 0.2905021794140339, 8.569814562797546 l-1.8882642686367035, 4.067030549049377 -3.776528537273407, 3.63127738237381 l-1.452510952949524, 0.726255476474762 -1.7430131137371063, 0.0 l-4.502783715724945, -3.050273060798645 -2.178766429424286, -2.324017435312271 l-2.6145195960998535, -4.212281703948975 0.0, -4.793286025524139 l1.5977619588375092, -4.502783715724945 0.0, -1.7430131137371063 l-0.726255476474762, -2.178766429424286 m5.6647926568984985, 2.4692685902118683 l-1.452510952949524, 0.8715065568685532 -0.726255476474762, 1.452510952949524 l0.14525108970701694, 0.726255476474762 1.0167576372623444, 0.2905021794140339 l1.5977619588375092, -0.2905021794140339 0.14525108970701694, -0.726255476474762 l-0.8715065568685532, -1.5977619588375092 m5.229039192199707, 1.0167576372623444 l-1.1620087176561356, -1.0167576372623444 -0.4357532784342766, 1.5977619588375092 l0.726255476474762, 0.5810043588280678 0.5810043588280678, -1.452510952949524 m-4.648034870624542, -12.055840492248535 l-3.050273060798645, -4.502783715724945 -2.0335152745246887, -0.8715065568685532 l-2.324017435312271, -0.14525108970701694 -0.5810043588280678, 2.324017435312271 l-0.14525108970701694, 3.63127738237381 -4.793286025524139, -0.2905021794140339 l-2.178766429424286, 4.793286025524139 -0.14525108970701694, 3.776528537273407 l0.8715065568685532, 1.5977619588375092 -2.905021905899048, 4.067030549049377 l-0.726255476474762, 5.519541501998901 1.0167576372623444, 1.1620087176561356 l1.5977619588375092, 0.8715065568685532 4.648034870624542, 1.0167576372623444 l-1.8882642686367035, 5.810043811798096 -0.14525108970701694, 4.502783715724945 l1.1620087176561356, 1.1620087176561356 1.8882642686367035, 0.4357532784342766 l2.905021905899048, 0.0 6.681550145149231, -1.5977619588375092 l0.0, 5.229039192199707 0.726255476474762, 0.2905021794140339 l6.10054612159729, -4.067030549049377 0.0, 1.8882642686367035 l0.726255476474762, 1.452510952949524 1.7430131137371063, 0.14525108970701694 l2.4692685902118683, -0.726255476474762 4.212281703948975, -2.905021905899048 l2.6145195960998535, -4.793286025524139 0.2905021794140339, -2.905021905899048 l-0.2905021794140339, 1.5977619588375092 1.7430131137371063, 0.0 l3.3407750725746155, -3.1955239176750183 1.0167576372623444, -1.8882642686367035 l-0.14525108970701694, -8.42456340789795 -0.8715065568685532, -1.452510952949524 l-3.4860262274742126, -3.050273060798645 -0.14525108970701694, -4.212281703948975 l-0.726255476474762, -2.0335152745246887 -1.7430131137371063, -2.6145195960998535 l-2.0335152745246887, -1.7430131137371063 0.14525108970701694, -3.050273060798645 l-1.5977619588375092, -3.4860262274742126 -1.452510952949524, -1.3072597980499268 l-3.63127738237381, -0.14525108970701694 -3.63127738237381, 3.050273060798645 l-1.7430131137371063, 3.050273060798645 -0.14525108970701694, 0.8715065568685532 l0.726255476474762, 2.4692685902118683 -0.5810043588280678, 0.726255476474762 l-2.178766429424286, 1.0167576372623444 " fill="none" stroke="black" stroke-width="1" /></svg>