<?xml version="1.0" encoding="utf-8" ?>
<svg baseProfile="full" height="84.5138093829155" version="1.1" width="91.19535862468183" xmlns="http://www.w3.org/2000/svg" xmlns:ev="http://www.w3.org/2001/xml-events" xmlns:xlink="http://www.w3.org/1999/xlink"><defs /><rect fill="white" height="84.5138093829155" width="91.19535862468183" x="0" y="0" /><path d="M36.374235190451145, 25.044651422649622 m-2.7597707509994507, 1.3072597980499268 l-4.502783715724945, 3.1955239176750183 -1.5977619588375092, 2.324017435312271 l-1.0167576372623444, 2.6145195960998535 -0.14525108970701694, 3.63127738237381 l0.726255476474762, 1.8882642686367035 1.5977619588375092, 2.0335152745246887 l2.4692685902118683, 2.0335152745246887 7.1173036098480225, 2.0335152745246887 l5.08378803730011, 0.0 10.16757607460022, -1.1620087176561356 l6.2457966804504395, -1.452510952949524 3.3407750725746155, -1.1620087176561356 l2.905021905899048, -1.8882642686367035 0.5810043588280678, -1.452510952949524 l-1.0167576372623444, -3.776528537273407 -1.7430131137371063, -3.1955239176750183 l-1.8882642686367035, -2.0335152745246887 -5.955294966697693, -1.8882642686367035 l-7.26255476474762, -1.1620087176561356 -14.960862398147583, 1.0167576372623444 m3.4860262274742126, -3.63127738237381 l3.9217793941497803, -0.2905021794140339 6.2457966804504395, 7.988809943199158 l22.078166007995605, -16.12287163734436 9.877074360847473, -6.2457966804504395 l4.648034870624542, -3.63127738237381 2.178766429424286, -1.0167576372623444 l-2.6145195960998535, 10.16757607460022 -2.905021905899048, 7.1173036098480225 l-1.3072597980499268, 5.229039192199707 -2.0335152745246887, 5.519541501998901 l-0.14525108970701694, 4.793286025524139 5.519541501998901, -3.776528537273407 l-1.3072597980499268, 1.5977619588375092 -15.396615266799927, 13.072597980499268 l9.441320896148682, -0.8715065568685532 3.050273060798645, 0.14525108970701694 l-0.726255476474762, 1.5977619588375092 -9.150818586349487, 6.972052454948425 l-5.229039192199707, 4.793286025524139 -10.312827825546265, 7.407805919647217 l-12.491593360900879, 3.4860262274742126 -2.6145195960998535, -0.14525108970701694 l-0.4357532784342766, -0.8715065568685532 0.8715065568685532, -4.212281703948975 l3.4860262274742126, -9.731823205947876 0.14525108970701694, -0.726255476474762 l-0.8715065568685532, 0.0 -2.324017435312271, 2.324017435312271 l-2.7597707509994507, 3.9217793941497803 -5.229039192199707, 9.296069741249084 l-6.2457966804504395, 7.407805919647217 -4.648034870624542, -8.715065717697144 l-5.6647926568984985, -15.977619886398315 0.14525108970701694, -2.7597707509994507 l-0.4357532784342766, 0.726255476474762 1.5977619588375092, 3.4860262274742126 l-1.452510952949524, -2.4692685902118683 -9.150818586349487, -22.949671745300293 l0.5810043588280678, -2.4692685902118683 3.776528537273407, -7.988809943199158 l1.5977619588375092, -2.0335152745246887 6.2457966804504395, -3.63127738237381 l1.8882642686367035, 0.14525108970701694 1.452510952949524, 0.8715065568685532 l-2.0335152745246887, -2.4692685902118683 0.0, -0.726255476474762 l1.8882642686367035, -1.0167576372623444 2.905021905899048, -1.0167576372623444 l10.16757607460022, -2.0335152745246887 11.76533818244934, 0.4357532784342766 l6.536298990249634, 0.8715065568685532 2.7597707509994507, 1.5977619588375092 l1.3072597980499268, 1.452510952949524 -1.5977619588375092, -2.178766429424286 l-0.14525108970701694, 0.726255476474762 2.6145195960998535, 4.648034870624542 l0.726255476474762, 3.3407750725746155 0.8715065568685532, 1.452510952949524 " fill="none" stroke="black" stroke-width="1" /></svg>