<?xml version="1.0" encoding="utf-8" ?>
<svg baseProfile="full" height="64.469159450382" version="1.1" width="74.200982414186" xmlns="http://www.w3.org/2000/svg" xmlns:ev="http://www.w3.org/2001/xml-events" xmlns:xlink="http://www.w3.org/1999/xlink"><defs /><rect fill="white" height="64.469159450382" width="74.200982414186" x="0" y="0" /><path d="M33.033461356535554, 13.134060567244887 m-4.212281703948975, 0.14525108970701694 l-4.212281703948975, 1.3072597980499268 -6.826801300048828, 2.6145195960998535 l-2.324017435312271, 1.7430131137371063 -0.5810043588280678, 1.0167576372623444 l-0.8715065568685532, 3.776528537273407 0.2905021794140339, 10.748580694198608 l1.8882642686367035, 4.938537180423737 3.4860262274742126, 3.3407750725746155 l6.536298990249634, 2.6145195960998535 6.2457966804504395, 0.8715065568685532 l8.715065717697144, -1.5977619588375092 9.150818586349487, -10.458078384399414 l0.4357532784342766, -4.793286025524139 -1.452510952949524, -5.229039192199707 l-5.229039192199707, -6.681550145149231 -2.4692685902118683, -1.5977619588375092 l-10.603330135345459, -3.4860262274742126 0.8715065568685532, -0.8715065568685532 l2.905021905899048, -1.3072597980499268 15.977619886398315, -5.229039192199707 l0.726255476474762, 0.0 -2.7597707509994507, 5.955294966697693 l0.726255476474762, 0.5810043588280678 2.4692685902118683, 0.0 l3.776528537273407, 0.8715065568685532 9.441320896148682, 3.63127738237381 l1.0167576372623444, 1.5977619588375092 -5.810043811798096, 2.6145195960998535 l-1.3072597980499268, 1.7430131137371063 0.14525108970701694, 1.1620087176561356 l5.810043811798096, 5.374290347099304 1.5977619588375092, 3.050273060798645 l2.6145195960998535, 7.553057074546814 -1.1620087176561356, 0.2905021794140339 l-13.217849731445312, -3.9217793941497803 2.6145195960998535, 11.76533818244934 l0.0, 5.374290347099304 -0.726255476474762, 1.1620087176561356 l-7.553057074546814, -7.1173036098480225 -1.1620087176561356, 1.1620087176561356 l-2.6145195960998535, 7.988809943199158 -1.3072597980499268, 1.452510952949524 l-2.324017435312271, -5.374290347099304 -0.726255476474762, -0.726255476474762 l-2.178766429424286, 0.8715065568685532 -10.16757607460022, 6.536298990249634 l0.0, 0.8715065568685532 -0.8715065568685532, -1.452510952949524 l-1.8882642686367035, -7.988809943199158 -0.8715065568685532, -1.7430131137371063 l-5.229039192199707, 1.452510952949524 -13.798853158950806, 0.4357532784342766 l-0.4357532784342766, -1.7430131137371063 0.0, -9.877074360847473 l1.3072597980499268, -5.955294966697693 -1.8882642686367035, -11.184333562850952 l0.0, -5.6647926568984985 0.726255476474762, -2.7597707509994507 l0.726255476474762, -0.4357532784342766 1.1620087176561356, 0.5810043588280678 l6.972052454948425, 4.502783715724945 9.731823205947876, -7.698307633399963 l5.08378803730011, -3.3407750725746155 " fill="none" stroke="black" stroke-width="1" /></svg>