<?xml version="1.0" encoding="utf-8" ?>
<svg baseProfile="full" height="76.81550187058747" version="1.1" width="73.91047939658165" xmlns="http://www.w3.org/2000/svg" xmlns:ev="http://www.w3.org/2001/xml-events" xmlns:xlink="http://www.w3.org/1999/xlink"><defs /><rect fill="white" height="76.81550187058747" width="73.91047939658165" x="0" y="0" /><path d="M35.21222692914307, 28.675928553566337 m0.0, 0.0 m0.0, -0.14525108970701694 l0.8715065568685532, -0.2905021794140339 2.4692685902118683, 0.2905021794140339 l2.905021905899048, 2.0335152745246887 -0.14525108970701694, 0.726255476474762 l-1.452510952949524, 0.4357532784342766 -2.905021905899048, -0.726255476474762 l-1.3072597980499268, -1.1620087176561356 -0.14525108970701694, -0.5810043588280678 l0.726255476474762, -0.2905021794140339 m4.212281703948975, 0.8715065568685532 l1.3072597980499268, 0.4357532784342766 3.4860262274742126, 7.407805919647217 m10.458078384399414, -9.877074360847473 l1.452510952949524, -0.726255476474762 0.726255476474762, 0.0 l0.5810043588280678, 0.2905021794140339 0.0, 0.726255476474762 l-1.3072597980499268, 1.3072597980499268 -0.5810043588280678, 0.0 l-1.3072597980499268, -0.5810043588280678 -0.4357532784342766, -1.3072597980499268 l0.0, 4.938537180423737 0.4357532784342766, 4.793286025524139 l0.0, 0.5810043588280678 -0.2905021794140339, -0.2905021794140339 m-5.229039192199707, 5.519541501998901 l5.08378803730011, -0.726255476474762 m4.067030549049377, 3.3407750725746155 l0.0, 0.726255476474762 -0.5810043588280678, 0.5810043588280678 l-1.5977619588375092, 0.8715065568685532 -7.1173036098480225, 1.0167576372623444 l-7.1173036098480225, -0.726255476474762 -3.9217793941497803, 1.1620087176561356 m17.139629125595093, -32.24574327468872 l0.726255476474762, 0.5810043588280678 -1.0167576372623444, -2.178766429424286 l-4.357532858848572, -5.229039192199707 -6.972052454948425, -5.229039192199707 l-0.5810043588280678, 0.0 -0.14525108970701694, 1.1620087176561356 l1.0167576372623444, 4.502783715724945 -0.14525108970701694, 0.5810043588280678 l-5.810043811798096, -2.905021905899048 -5.08378803730011, -1.1620087176561356 l-3.1955239176750183, 0.8715065568685532 -5.08378803730011, -0.14525108970701694 l-6.10054612159729, 0.5810043588280678 -3.63127738237381, 0.8715065568685532 l-3.776528537273407, 1.8882642686367035 -1.452510952949524, 2.178766429424286 l0.726255476474762, 1.3072597980499268 5.374290347099304, 0.14525108970701694 l1.3072597980499268, 0.2905021794140339 0.14525108970701694, 0.8715065568685532 l-11.184333562850952, 11.474835872650146 0.0, 0.726255476474762 l5.229039192199707, 0.8715065568685532 1.0167576372623444, 0.5810043588280678 l0.4357532784342766, 0.8715065568685532 -0.8715065568685532, 3.4860262274742126 l-4.648034870624542, 7.553057074546814 -2.0335152745246887, 4.212281703948975 l-0.5810043588280678, 2.905021905899048 0.0, 3.776528537273407 l0.4357532784342766, 1.5977619588375092 1.452510952949524, 0.8715065568685532 m18.301637172698975, -28.323962688446045 l-0.14525108970701694, -2.6145195960998535 -1.5977619588375092, -2.4692685902118683 l-1.7430131137371063, -0.5810043588280678 -1.0167576372623444, 0.14525108970701694 l-1.7430131137371063, 1.452510952949524 -0.726255476474762, 3.1955239176750183 l0.726255476474762, 4.212281703948975 1.452510952949524, 1.8882642686367035 l1.5977619588375092, 0.2905021794140339 1.0167576372623444, -0.5810043588280678 m35.58651685714722, -12.34634280204773 l1.1620087176561356, -1.3072597980499268 1.7430131137371063, -0.14525108970701694 l1.8882642686367035, 2.324017435312271 0.14525108970701694, 2.905021905899048 l0.5810043588280678, -0.5810043588280678 m-1.452510952949524, 4.648034870624542 l0.726255476474762, 0.0 1.1620087176561356, 1.8882642686367035 l3.3407750725746155, 9.296069741249084 1.0167576372623444, 9.150818586349487 l-0.4357532784342766, 5.374290347099304 -0.2905021794140339, 1.0167576372623444 l-0.5810043588280678, 0.2905021794140339 -2.7597707509994507, -2.905021905899048 l-1.8882642686367035, 4.938537180423737 -0.5810043588280678, 0.726255476474762 l-1.5977619588375092, -0.14525108970701694 -2.324017435312271, 3.63127738237381 l-1.3072597980499268, 1.3072597980499268 -1.1620087176561356, -0.8715065568685532 l-0.726255476474762, 0.5810043588280678 -2.178766429424286, 5.08378803730011 l-1.1620087176561356, 1.3072597980499268 -0.2905021794140339, -2.905021905899048 l-0.5810043588280678, -0.5810043588280678 -8.569814562797546, 6.391047835350037 l-3.9217793941497803, 1.1620087176561356 -1.0167576372623444, -0.2905021794140339 l-1.0167576372623444, -1.452510952949524 -1.452510952949524, -6.681550145149231 l-0.726255476474762, -0.14525108970701694 -3.3407750725746155, 3.050273060798645 l-2.324017435312271, 1.452510952949524 -1.5977619588375092, 0.5810043588280678 l-2.0335152745246887, -0.14525108970701694 -4.938537180423737, -3.63127738237381 l-4.067030549049377, 0.5810043588280678 -1.3072597980499268, -0.4357532784342766 l-4.793286025524139, -7.988809943199158 m15.977619886398315, -22.80442237854004 l0.5810043588280678, 0.0 0.726255476474762, 0.8715065568685532 l5.519541501998901, 9.877074360847473 5.229039192199707, 6.826801300048828 l2.6145195960998535, 2.324017435312271 14.960862398147583, 0.0 l5.955294966697693, -1.7430131137371063 1.1620087176561356, -2.0335152745246887 " fill="none" stroke="black" stroke-width="1" /></svg>