<?xml version="1.0" encoding="utf-8" ?>
<svg baseProfile="full" height="66.06692109256983" version="1.1" width="71.73171476460993" xmlns="http://www.w3.org/2000/svg" xmlns:ev="http://www.w3.org/2001/xml-events" xmlns:xlink="http://www.w3.org/1999/xlink"><defs /><rect fill="white" height="66.06692109256983" width="71.73171476460993" x="0" y="0" /><path d="M39.13400562480092, 31.58094948157668 m-1.452510952949524, 0.5810043588280678 l-3.1955239176750183, 2.4692685902118683 -0.4357532784342766, 2.324017435312271 l2.7597707509994507, 1.5977619588375092 2.905021905899048, -0.14525108970701694 l1.452510952949524, -0.8715065568685532 0.0, -3.63127738237381 l-1.452510952949524, -0.726255476474762 -0.4357532784342766, -0.726255476474762 l-1.5977619588375092, -0.4357532784342766 m-5.229039192199707, -4.793286025524139 l-0.8715065568685532, 0.5810043588280678 -0.14525108970701694, 0.726255476474762 l1.452510952949524, 0.5810043588280678 -0.5810043588280678, -1.452510952949524 m10.02232551574707, -1.1620087176561356 l-1.5977619588375092, 1.3072597980499268 0.0, 0.726255476474762 l1.452510952949524, 0.0 0.4357532784342766, -2.0335152745246887 m1.1620087176561356, -6.2457966804504395 l-2.6145195960998535, -0.5810043588280678 -4.648034870624542, 0.0 l-2.6145195960998535, 0.726255476474762 -2.7597707509994507, 1.0167576372623444 l-5.08378803730011, 5.229039192199707 -0.8715065568685532, 3.050273060798645 l0.5810043588280678, 5.6647926568984985 4.502783715724945, 10.02232551574707 l1.452510952949524, 1.5977619588375092 1.7430131137371063, 0.8715065568685532 l1.1620087176561356, 0.4357532784342766 2.7597707509994507, -0.14525108970701694 l6.2457966804504395, -2.6145195960998535 3.3407750725746155, -3.9217793941497803 l1.3072597980499268, -3.050273060798645 0.726255476474762, -3.63127738237381 l0.0, -5.519541501998901 -2.6145195960998535, -7.407805919647217 l-0.4357532784342766, -0.726255476474762 -1.8882642686367035, -0.5810043588280678 m-6.391047835350037, -15.687117576599121 l-8.279312252998352, 0.4357532784342766 -6.826801300048828, 2.4692685902118683 l-1.5977619588375092, 1.5977619588375092 0.2905021794140339, 1.7430131137371063 l-0.5810043588280678, 2.324017435312271 2.6145195960998535, 1.3072597980499268 l-2.0335152745246887, 1.5977619588375092 -7.988809943199158, 4.212281703948975 l-3.9217793941497803, 4.067030549049377 -0.2905021794140339, 1.5977619588375092 l0.4357532784342766, 1.8882642686367035 -1.3072597980499268, 3.3407750725746155 l-0.14525108970701694, 1.7430131137371063 2.7597707509994507, 5.6647926568984985 l-2.178766429424286, 3.4860262274742126 -2.6145195960998535, 6.391047835350037 l-1.0167576372623444, 5.374290347099304 1.1620087176561356, 1.5977619588375092 l6.10054612159729, 2.324017435312271 2.178766429424286, 1.7430131137371063 l3.050273060798645, 1.1620087176561356 2.6145195960998535, 0.0 l5.955294966697693, -2.7597707509994507 4.357532858848572, -0.4357532784342766 l2.7597707509994507, 0.8715065568685532 1.5977619588375092, 0.0 l3.63127738237381, 1.8882642686367035 4.357532858848572, -3.3407750725746155 l5.6647926568984985, -0.14525108970701694 3.1955239176750183, -0.8715065568685532 l8.134061098098755, -4.357532858848572 1.7430131137371063, -1.3072597980499268 l2.4692685902118683, -3.4860262274742126 2.6145195960998535, -6.972052454948425 l0.14525108970701694, -5.519541501998901 -0.726255476474762, -2.7597707509994507 l-10.312827825546265, -14.815611839294434 -3.4860262274742126, -2.0335152745246887 l-1.1620087176561356, -1.5977619588375092 -4.793286025524139, -4.357532858848572 l-7.698307633399963, -3.3407750725746155 -1.3072597980499268, 2.6145195960998535 m0.14525108970701694, 30.212228298187256 l0.0, 1.452510952949524 -0.8715065568685532, 1.7430131137371063 " fill="none" stroke="black" stroke-width="1" /></svg>