<?xml version="1.0" encoding="utf-8" ?>
<svg baseProfile="full" height="99.32942351326346" version="1.1" width="97.87691205739975" xmlns="http://www.w3.org/2000/svg" xmlns:ev="http://www.w3.org/2001/xml-events" xmlns:xlink="http://www.w3.org/1999/xlink"><defs /><rect fill="white" height="99.32942351326346" width="97.87691205739975" x="0" y="0" /><path d="M22.720631873235106, 63.826689934358 m0.14525108970701694, -3.63127738237381 l1.7430131137371063, -8.134061098098755 3.1955239176750183, -8.42456340789795 l6.2457966804504395, -12.491593360900879 8.569814562797546, -9.731823205947876 l1.1620087176561356, -2.324017435312271 m-4.648034870624542, 0.14525108970701694 l0.726255476474762, 2.324017435312271 3.050273060798645, 4.357532858848572 l3.3407750725746155, 3.3407750725746155 4.067030549049377, 7.407805919647217 l4.067030549049377, 6.10054612159729 1.7430131137371063, 5.810043811798096 l0.8715065568685532, 10.603330135345459 m-48.659114837646484, -12.491593360900879 l3.63127738237381, -1.1620087176561356 18.44688892364502, -1.452510952949524 l14.08935546875, -2.178766429424286 13.653602600097656, -1.3072597980499268 l6.2457966804504395, -0.4357532784342766 14.52510952949524, 0.0 l1.452510952949524, 0.5810043588280678 m-12.34634280204773, -21.93291425704956 l-3.3407750725746155, 1.3072597980499268 -6.681550145149231, 7.407805919647217 l-7.553057074546814, 6.681550145149231 -11.039083003997803, 11.474835872650146 l-15.832369327545166, 14.670360088348389 -12.782095670700073, 9.731823205947876 m36.458024978637695, -33.988754749298096 m1.0167576372623444, 0.726255476474762 l-34.42451000213623, -8.715065717697144 m-2.0335152745246887, 42.703819274902344 l4.357532858848572, -2.905021905899048 27.452456951141357, -37.62003183364868 l14.815611839294434, -17.284879684448242 7.698307633399963, -7.988809943199158 m-50.256876945495605, 26.58094882965088 l1.452510952949524, 0.4357532784342766 13.94410490989685, 8.279312252998352 l23.094923496246338, 14.815611839294434 14.815611839294434, 11.910589933395386 m-52.145142555236816, 2.6145195960998535 l1.3072597980499268, -1.452510952949524 6.2457966804504395, -4.357532858848572 l16.703875064849854, -15.396615266799927 12.34634280204773, -9.441320896148682 l25.99994659423828, -16.994377374649048 13.217849731445312, -9.586572051048279 m-72.6255464553833, 13.798853158950806 l3.3407750725746155, 1.5977619588375092 10.16757607460022, 7.553057074546814 l11.474835872650146, 11.474835872650146 14.379857778549194, 11.620087623596191 l9.150818586349487, 6.681550145149231 m2.0335152745246887, -28.614466190338135 l-10.02232551574707, -0.8715065568685532 -9.877074360847473, 0.4357532784342766 l-10.16757607460022, 2.905021905899048 -14.960862398147583, 5.810043811798096 l-6.536298990249634, 3.1955239176750183 -7.988809943199158, 2.6145195960998535 l-2.905021905899048, 1.5977619588375092 m-3.3407750725746155, 7.553057074546814 l1.0167576372623444, -1.3072597980499268 15.396615266799927, -9.00556743144989 l12.491593360900879, -4.212281703948975 20.62565565109253, -8.279312252998352 l18.156386613845825, -4.502783715724945 4.067030549049377, -2.324017435312271 m-42.703819274902344, -15.396615266799927 l-0.14525108970701694, 2.7597707509994507 2.6145195960998535, 10.893832445144653 l0.4357532784342766, 3.63127738237381 0.726255476474762, 10.748580694198608 l0.14525108970701694, 11.184333562850952 2.0335152745246887, 6.972052454948425 m-0.726255476474762, -43.72057914733887 l5.519541501998901, 3.3407750725746155 7.26255476474762, 7.988809943199158 l4.648034870624542, 7.8435587882995605 8.715065717697144, 19.318394660949707 m-50.256876945495605, -17.72063374519348 l-0.2905021794140339, -1.452510952949524 1.8882642686367035, -1.1620087176561356 l35.58651685714722, -9.441320896148682 5.955294966697693, -2.0335152745246887 l14.52510952949524, -2.0335152745246887 11.910589933395386, 0.0 m-57.083678245544434, 42.55856990814209 l7.1173036098480225, -16.26812219619751 14.379857778549194, -27.59770631790161 l0.726255476474762, -0.2905021794140339 m-13.072597980499268, 74.07805919647217 l7.8435587882995605, -37.91053533554077 16.413373947143555, -34.569759368896484 m-27.161953449249268, 50.40213108062744 l0.0, 0.0 m23.675928115844727, -54.904913902282715 l-5.08378803730011, -0.8715065568685532 -5.229039192199707, 0.5810043588280678 l-24.256932735443115, 16.413373947143555 -1.5977619588375092, 3.4860262274742126 l2.0335152745246887, 14.815611839294434 2.905021905899048, 4.793286025524139 l4.212281703948975, 4.793286025524139 5.08378803730011, 4.502783715724945 l5.08378803730011, 3.3407750725746155 5.6647926568984985, 2.324017435312271 l5.810043811798096, 0.4357532784342766 5.955294966697693, -0.8715065568685532 l5.519541501998901, -3.050273060798645 5.229039192199707, -3.4860262274742126 l4.357532858848572, -3.63127738237381 3.776528537273407, -4.212281703948975 l2.905021905899048, -4.502783715724945 -29.195468425750732, -36.60327434539795 l-4.212281703948975, 0.14525108970701694 -8.42456340789795, 1.7430131137371063 l-20.916156768798828, 15.541867017745972 -4.357532858848572, 9.296069741249084 l0.726255476474762, 13.072597980499268 3.776528537273407, 6.391047835350037 l17.72063374519348, 15.687117576599121 9.00556743144989, 1.1620087176561356 l2.7597707509994507, -0.14525108970701694 23.240175247192383, -12.927347421646118 l3.63127738237381, -2.905021905899048 7.553057074546814, -7.26255476474762 l9.731823205947876, -16.26812219619751 -2.324017435312271, -8.279312252998352 l-2.0335152745246887, -3.4860262274742126 -19.173144102096558, -12.782095670700073 l-7.988809943199158, -0.726255476474762 -22.949671745300293, 1.3072597980499268 l-9.150818586349487, 3.4860262274742126 -12.055840492248535, 15.541867017745972 l-1.8882642686367035, 3.3407750725746155 -0.4357532784342766, 2.6145195960998535 l10.893832445144653, 19.463646411895752 11.184333562850952, 6.536298990249634 l20.04465103149414, 4.067030549049377 3.63127738237381, 0.0 l18.44688892364502, -7.8435587882995605 5.955294966697693, -5.6647926568984985 l7.407805919647217, -24.11168098449707 -0.4357532784342766, -3.1955239176750183 l-0.8715065568685532, -3.050273060798645 -12.20109224319458, -14.234607219696045 l-2.178766429424286, -1.3072597980499268 -18.737391233444214, -2.7597707509994507 l-12.491593360900879, 4.212281703948975 -12.055840492248535, 11.620087623596191 " fill="none" stroke="black" stroke-width="1" /></svg>