<?xml version="1.0" encoding="utf-8" ?>
<svg baseProfile="full" height="48.05578569881618" version="1.1" width="43.84350446052849" xmlns="http://www.w3.org/2000/svg" xmlns:ev="http://www.w3.org/2001/xml-events" xmlns:xlink="http://www.w3.org/1999/xlink"><defs /><rect fill="white" height="48.05578569881618" width="43.84350446052849" x="0" y="0" /><path d="M18.217849601060152, 6.452510869130492 m-2.4692685902118683, 0.0 l-1.0167576372623444, 0.4357532784342766 1.1620087176561356, 1.7430131137371063 l-5.229039192199707, 2.0335152745246887 1.5977619588375092, 0.0 l-4.357532858848572, 1.8882642686367035 1.1620087176561356, 0.0 l-0.2905021794140339, 0.5810043588280678 -3.776528537273407, 3.63127738237381 l2.178766429424286, -0.726255476474762 -1.1620087176561356, 3.3407750725746155 l0.14525108970701694, 0.5810043588280678 1.452510952949524, -0.4357532784342766 l-1.8882642686367035, 2.7597707509994507 1.3072597980499268, 0.4357532784342766 l1.3072597980499268, -0.2905021794140339 -1.3072597980499268, 3.776528537273407 l0.5810043588280678, 0.5810043588280678 -1.3072597980499268, 3.3407750725746155 l3.1955239176750183, -0.4357532784342766 -0.14525108970701694, 2.0335152745246887 l3.050273060798645, -0.4357532784342766 1.5977619588375092, 4.357532858848572 l0.726255476474762, -1.3072597980499268 2.4692685902118683, 2.178766429424286 l2.4692685902118683, -1.452510952949524 1.5977619588375092, 0.5810043588280678 l2.4692685902118683, -1.5977619588375092 1.452510952949524, -0.2905021794140339 l2.324017435312271, 1.0167576372623444 2.6145195960998535, -1.3072597980499268 l2.178766429424286, 0.4357532784342766 1.5977619588375092, -2.178766429424286 l-0.14525108970701694, -1.7430131137371063 2.905021905899048, 2.324017435312271 l0.726255476474762, -1.452510952949524 0.0, -3.63127738237381 l1.1620087176561356, -0.5810043588280678 0.2905021794140339, -1.8882642686367035 l-1.3072597980499268, -2.905021905899048 0.2905021794140339, -1.0167576372623444 l-1.452510952949524, -0.726255476474762 0.5810043588280678, -1.8882642686367035 l-0.14525108970701694, -1.3072597980499268 -0.726255476474762, 0.4357532784342766 l-1.0167576372623444, 0.0 0.726255476474762, -2.324017435312271 l-1.8882642686367035, -0.14525108970701694 0.726255476474762, -3.3407750725746155 l-0.5810043588280678, -0.2905021794140339 -2.4692685902118683, 0.4357532784342766 l-0.8715065568685532, -2.4692685902118683 -0.726255476474762, 0.5810043588280678 l-2.178766429424286, -2.6145195960998535 -1.1620087176561356, 0.0 l-0.5810043588280678, -0.4357532784342766 -0.14525108970701694, 0.726255476474762 l-1.452510952949524, -1.452510952949524 -1.1620087176561356, 0.4357532784342766 l-0.5810043588280678, -0.726255476474762 -1.452510952949524, -0.726255476474762 l-0.8715065568685532, 0.5810043588280678 -2.178766429424286, 0.0 m0.14525108970701694, 15.977619886398315 l-0.5810043588280678, 1.5977619588375092 -0.2905021794140339, 2.7597707509994507 l1.1620087176561356, 2.0335152745246887 2.6145195960998535, 1.8882642686367035 l1.8882642686367035, 0.14525108970701694 3.776528537273407, -2.905021905899048 l0.5810043588280678, -0.8715065568685532 0.14525108970701694, -2.6145195960998535 l-0.2905021794140339, -0.5810043588280678 m-9.150818586349487, -8.279312252998352 l0.2905021794140339, 0.726255476474762 m7.26255476474762, 1.3072597980499268 l0.5810043588280678, 0.2905021794140339 0.0, -1.3072597980499268 l0.726255476474762, 1.1620087176561356 -1.0167576372623444, -1.7430131137371063 l-0.4357532784342766, 0.0 m-17.72063374519348, 15.541867017745972 l-2.0335152745246887, 3.1955239176750183 -0.2905021794140339, 9.150818586349487 " fill="none" stroke="black" stroke-width="1" /></svg>