<?xml version="1.0" encoding="utf-8" ?>
<svg baseProfile="full" height="75.65349346026778" version="1.1" width="79.43002182990313" xmlns="http://www.w3.org/2000/svg" xmlns:ev="http://www.w3.org/2001/xml-events" xmlns:xlink="http://www.w3.org/1999/xlink"><defs /><rect fill="white" height="75.65349346026778" width="79.43002182990313" x="0" y="0" /><path d="M32.59770777076483, 12.553056310862303 m-3.63127738237381, -1.1620087176561356 l-4.648034870624542, 0.0 -5.955294966697693, 1.5977619588375092 l-4.212281703948975, 2.324017435312271 -3.776528537273407, 4.648034870624542 l-0.5810043588280678, 2.905021905899048 0.5810043588280678, 2.178766429424286 l0.8715065568685532, 0.726255476474762 3.050273060798645, 1.0167576372623444 l-4.067030549049377, 2.324017435312271 -1.8882642686367035, 1.7430131137371063 l-1.7430131137371063, 2.4692685902118683 -1.1620087176561356, 3.3407750725746155 l-0.4357532784342766, 4.212281703948975 1.0167576372623444, 4.793286025524139 l2.0335152745246887, 2.6145195960998535 3.050273060798645, 1.8882642686367035 l5.08378803730011, 0.0 0.5810043588280678, 0.4357532784342766 l0.0, 4.938537180423737 0.5810043588280678, 2.905021905899048 l1.1620087176561356, 2.905021905899048 2.905021905899048, 3.776528537273407 l3.4860262274742126, 2.7597707509994507 2.324017435312271, 0.8715065568685532 l2.905021905899048, 0.4357532784342766 7.407805919647217, -1.452510952949524 l6.536298990249634, 2.905021905899048 4.067030549049377, -0.4357532784342766 l3.776528537273407, -2.324017435312271 2.4692685902118683, -3.1955239176750183 l2.6145195960998535, -4.502783715724945 1.1620087176561356, -4.793286025524139 l0.0, -2.7597707509994507 -1.0167576372623444, -2.324017435312271 l0.0, 0.5810043588280678 0.726255476474762, 0.5810043588280678 l1.5977619588375092, 0.5810043588280678 3.9217793941497803, -0.14525108970701694 l3.9217793941497803, -1.7430131137371063 4.067030549049377, -3.4860262274742126 l2.6145195960998535, -4.212281703948975 0.4357532784342766, -4.938537180423737 l-0.5810043588280678, -2.0335152745246887 -1.1620087176561356, -1.7430131137371063 l-0.8715065568685532, -0.726255476474762 -2.324017435312271, -0.8715065568685532 l-0.14525108970701694, -0.5810043588280678 1.452510952949524, -5.374290347099304 l-0.14525108970701694, -1.452510952949524 -1.7430131137371063, -2.905021905899048 l-1.7430131137371063, -1.1620087176561356 -5.374290347099304, -1.7430131137371063 l-0.726255476474762, -4.648034870624542 -1.1620087176561356, -1.452510952949524 l-5.374290347099304, -2.178766429424286 -1.3072597980499268, -0.8715065568685532 l-3.050273060798645, -3.4860262274742126 -2.0335152745246887, -1.1620087176561356 l-4.067030549049377, -0.14525108970701694 -2.4692685902118683, 0.2905021794140339 l-1.7430131137371063, 0.5810043588280678 -3.1955239176750183, 2.4692685902118683 m7.553057074546814, 12.20109224319458 l-6.681550145149231, 0.0 -3.050273060798645, 0.4357532784342766 l-3.4860262274742126, 1.0167576372623444 -3.050273060798645, 1.7430131137371063 l-3.050273060798645, 3.3407750725746155 -1.452510952949524, 2.905021905899048 l-1.1620087176561356, 4.502783715724945 -0.4357532784342766, 5.6647926568984985 l1.1620087176561356, 5.374290347099304 2.178766429424286, 4.067030549049377 l5.229039192199707, 5.519541501998901 4.067030549049377, 2.324017435312271 l3.63127738237381, 1.0167576372623444 4.212281703948975, 0.0 l3.9217793941497803, -0.8715065568685532 2.6145195960998535, -1.7430131137371063 l4.067030549049377, -4.502783715724945 4.648034870624542, -8.134061098098755 l1.452510952949524, -4.212281703948975 0.4357532784342766, -2.905021905899048 l-0.4357532784342766, -5.810043811798096 -1.1620087176561356, -3.1955239176750183 l-1.8882642686367035, -2.7597707509994507 -2.905021905899048, -2.178766429424286 l-3.4860262274742126, -1.3072597980499268 -4.357532858848572, 0.0 l-5.08378803730011, 1.1620087176561356 -3.1955239176750183, 1.3072597980499268 m-3.1955239176750183, 18.301637172698975 l2.0335152745246887, -1.5977619588375092 3.3407750725746155, -1.3072597980499268 l3.9217793941497803, 0.0 3.050273060798645, 1.7430131137371063 l2.324017435312271, 3.050273060798645 0.4357532784342766, 2.324017435312271 l-0.726255476474762, 0.0 -13.94410490989685, -0.726255476474762 l-0.4357532784342766, -0.5810043588280678 -0.726255476474762, -4.212281703948975 m19.173144102096558, -13.072597980499268 l-1.452510952949524, 0.2905021794140339 -0.726255476474762, 0.5810043588280678 l-2.4692685902118683, 4.067030549049377 -0.4357532784342766, 3.63127738237381 l0.5810043588280678, 0.5810043588280678 1.5977619588375092, -0.2905021794140339 l2.324017435312271, -2.178766429424286 1.1620087176561356, -3.1955239176750183 l-0.8715065568685532, -1.3072597980499268 -1.7430131137371063, -0.726255476474762 m-16.8491268157959, -0.8715065568685532 l-1.452510952949524, 1.0167576372623444 -1.452510952949524, 2.324017435312271 l-1.0167576372623444, 2.6145195960998535 -0.14525108970701694, 2.178766429424286 l0.5810043588280678, 1.3072597980499268 1.3072597980499268, 0.726255476474762 l2.324017435312271, -0.2905021794140339 1.7430131137371063, -1.3072597980499268 l1.452510952949524, -2.4692685902118683 0.0, -1.452510952949524 l-0.726255476474762, -1.3072597980499268 -1.7430131137371063, -1.1620087176561356 " fill="none" stroke="black" stroke-width="1" /></svg>