<?xml version="1.0" encoding="utf-8" ?>
<svg baseProfile="full" height="73.76522881910205" version="1.1" width="77.9775115288794" xmlns="http://www.w3.org/2000/svg" xmlns:ev="http://www.w3.org/2001/xml-events" xmlns:xlink="http://www.w3.org/1999/xlink"><defs /><rect fill="white" height="73.76522881910205" width="77.9775115288794" x="0" y="0" /><path d="M36.22898491099477, 25.625654375180602 m-1.5977619588375092, 0.5810043588280678 l-2.4692685902118683, 2.6145195960998535 -2.4692685902118683, 7.1173036098480225 l-0.5810043588280678, 5.810043811798096 1.1620087176561356, 8.569814562797546 l2.7597707509994507, 6.391047835350037 2.178766429424286, 2.324017435312271 l1.3072597980499268, 0.5810043588280678 1.7430131137371063, 0.4357532784342766 l3.3407750725746155, 0.0 4.357532858848572, -1.3072597980499268 l1.7430131137371063, -1.0167576372623444 4.212281703948975, -4.067030549049377 l3.3407750725746155, -5.08378803730011 1.452510952949524, -6.391047835350037 l-0.5810043588280678, -6.10054612159729 -3.050273060798645, -5.08378803730011 l-4.357532858848572, -3.9217793941497803 -3.4860262274742126, -1.5977619588375092 l-2.7597707509994507, -0.5810043588280678 -5.810043811798096, 0.5810043588280678 m-9.877074360847473, -4.067030549049377 l-5.810043811798096, 0.726255476474762 -8.42456340789795, 4.648034870624542 l2.324017435312271, -1.5977619588375092 2.324017435312271, -0.726255476474762 l-0.726255476474762, 3.050273060798645 -11.184333562850952, 19.318394660949707 l-0.2905021794140339, 1.5977619588375092 2.0335152745246887, 0.0 l2.178766429424286, -0.5810043588280678 9.296069741249084, -4.212281703948975 l3.050273060798645, -0.5810043588280678 0.2905021794140339, 1.452510952949524 l-5.08378803730011, 14.234607219696045 -0.726255476474762, 3.63127738237381 l1.452510952949524, 0.0 8.279312252998352, -4.067030549049377 l1.7430131137371063, -0.14525108970701694 0.726255476474762, 0.2905021794140339 l1.1620087176561356, 2.324017435312271 0.5810043588280678, 7.698307633399963 l1.0167576372623444, 0.2905021794140339 1.1620087176561356, -0.2905021794140339 l8.42456340789795, -4.938537180423737 3.776528537273407, -1.5977619588375092 l3.9217793941497803, 0.0 1.452510952949524, 1.452510952949524 l2.178766429424286, 3.9217793941497803 1.3072597980499268, 0.726255476474762 l2.324017435312271, -0.5810043588280678 2.905021905899048, -3.050273060798645 l4.793286025524139, -9.150818586349487 0.5810043588280678, -3.3407750725746155 l-1.452510952949524, -2.6145195960998535 0.0, -1.5977619588375092 l2.178766429424286, -7.698307633399963 8.42456340789795, -14.234607219696045 l-0.14525108970701694, -1.0167576372623444 -0.8715065568685532, -0.14525108970701694 l-10.458078384399414, 2.324017435312271 0.14525108970701694, -2.324017435312271 l6.536298990249634, -15.396615266799927 0.0, -2.0335152745246887 l-0.726255476474762, -0.5810043588280678 -1.5977619588375092, -0.4357532784342766 l-3.3407750725746155, 0.14525108970701694 -3.63127738237381, 0.8715065568685532 l-7.1173036098480225, 3.050273060798645 -9.441320896148682, 5.229039192199707 l-0.2905021794140339, -1.8882642686367035 4.067030549049377, -8.569814562797546 l-5.6647926568984985, 1.0167576372623444 -6.2457966804504395, 4.648034870624542 l-9.586572051048279, 8.279312252998352 1.1620087176561356, -5.229039192199707 l2.324017435312271, -6.681550145149231 -0.14525108970701694, -0.726255476474762 l-0.726255476474762, 0.0 -4.793286025524139, 3.4860262274742126 l-2.178766429424286, 2.905021905899048 -3.63127738237381, 6.536298990249634 l-1.1620087176561356, 3.1955239176750183 -0.726255476474762, 5.374290347099304 l0.2905021794140339, 2.0335152745246887 2.324017435312271, 2.7597707509994507 m18.301637172698975, 4.067030549049377 l0.0, 0.0 m8.134061098098755, -0.4357532784342766 l0.0, 0.2905021794140339 m-6.972052454948425, 10.603330135345459 l3.3407750725746155, 2.7597707509994507 1.0167576372623444, 0.2905021794140339 " fill="none" stroke="black" stroke-width="1" /></svg>