<?xml version="1.0" encoding="utf-8" ?>
<svg baseProfile="full" height="54.73733589053154" version="1.1" width="48.3462885953486" xmlns="http://www.w3.org/2000/svg" xmlns:ev="http://www.w3.org/2001/xml-events" xmlns:xlink="http://www.w3.org/1999/xlink"><defs /><rect fill="white" height="54.73733589053154" width="48.3462885953486" x="0" y="0" /><path d="M24.899399811401963, 21.558623583987355 m-2.905021905899048, 0.14525108970701694 l-3.776528537273407, 1.452510952949524 -2.6145195960998535, 1.5977619588375092 l-0.8715065568685532, 2.4692685902118683 -0.14525108970701694, 5.810043811798096 l1.1620087176561356, 3.3407750725746155 2.6145195960998535, 2.905021905899048 l2.0335152745246887, 1.0167576372623444 2.178766429424286, 0.5810043588280678 l3.776528537273407, 0.14525108970701694 1.8882642686367035, -0.4357532784342766 l1.452510952949524, -1.1620087176561356 2.4692685902118683, -3.4860262274742126 l1.8882642686367035, -6.391047835350037 0.14525108970701694, -5.08378803730011 l-1.8882642686367035, -2.0335152745246887 -2.6145195960998535, -1.0167576372623444 l-4.648034870624542, -0.14525108970701694 m-5.229039192199707, 5.229039192199707 l0.4357532784342766, 0.8715065568685532 1.3072597980499268, 0.8715065568685532 l2.6145195960998535, 0.0 1.0167576372623444, -1.7430131137371063 l-1.3072597980499268, -0.8715065568685532 m7.988809943199158, 0.2905021794140339 l0.0, 0.8715065568685532 0.8715065568685532, -0.4357532784342766 l0.2905021794140339, -0.8715065568685532 -0.4357532784342766, -0.726255476474762 l-1.8882642686367035, -0.14525108970701694 m-4.938537180423737, 6.826801300048828 l1.0167576372623444, -0.4357532784342766 m-6.826801300048828, 4.357532858848572 l4.212281703948975, 0.14525108970701694 3.1955239176750183, -0.4357532784342766 l5.08378803730011, -1.452510952949524 m-12.055840492248535, -20.480403900146484 l-1.3072597980499268, -0.5810043588280678 -2.178766429424286, 0.0 l-2.0335152745246887, 0.5810043588280678 -2.178766429424286, 1.3072597980499268 l-3.3407750725746155, 2.905021905899048 -2.905021905899048, 4.648034870624542 l-0.726255476474762, 2.6145195960998535 -0.14525108970701694, 4.793286025524139 l0.2905021794140339, 1.3072597980499268 1.452510952949524, 1.7430131137371063 l0.0, 1.0167576372623444 -1.8882642686367035, 4.357532858848572 l-0.4357532784342766, 2.324017435312271 0.2905021794140339, 2.905021905899048 l2.905021905899048, 1.3072597980499268 9.150818586349487, 0.5810043588280678 l6.10054612159729, 4.067030549049377 3.050273060798645, 0.726255476474762 l3.3407750725746155, 0.0 10.02232551574707, -5.229039192199707 l1.3072597980499268, -1.5977619588375092 1.1620087176561356, -2.0335152745246887 l1.0167576372623444, -4.502783715724945 -0.14525108970701694, -6.10054612159729 l-0.8715065568685532, -5.810043811798096 -0.14525108970701694, -7.8435587882995605 l-2.324017435312271, -4.502783715724945 -2.178766429424286, -2.0335152745246887 l-10.748580694198608, -5.08378803730011 " fill="none" stroke="black" stroke-width="1" /></svg>