<?xml version="1.0" encoding="utf-8" ?>
<svg baseProfile="full" height="56.33509756997228" version="1.1" width="51.68706335127354" xmlns="http://www.w3.org/2000/svg" xmlns:ev="http://www.w3.org/2001/xml-events" xmlns:xlink="http://www.w3.org/1999/xlink"><defs /><rect fill="white" height="56.33509756997228" width="51.68706335127354" x="0" y="0" /><path d="M29.25693209283054, 17.201091554015875 m-4.357532858848572, 0.4357532784342766 l-2.324017435312271, 1.3072597980499268 -1.7430131137371063, 1.8882642686367035 l-0.5810043588280678, 2.178766429424286 0.0, 3.63127738237381 l2.324017435312271, 4.212281703948975 3.63127738237381, 3.050273060798645 l4.648034870624542, 0.5810043588280678 2.4692685902118683, -0.8715065568685532 l3.050273060798645, -3.4860262274742126 0.726255476474762, -2.4692685902118683 l0.0, -4.793286025524139 -0.4357532784342766, -2.178766429424286 l-1.452510952949524, -1.7430131137371063 -1.5977619588375092, -0.8715065568685532 l-2.4692685902118683, -0.2905021794140339 -1.1620087176561356, 0.4357532784342766 m-0.726255476474762, -5.810043811798096 l3.63127738237381, -6.681550145149231 1.0167576372623444, -0.726255476474762 l0.0, 6.826801300048828 7.1173036098480225, -1.8882642686367035 l0.0, 1.7430131137371063 -1.3072597980499268, 2.178766429424286 l-0.5810043588280678, 2.0335152745246887 0.14525108970701694, 1.452510952949524 l4.067030549049377, 1.5977619588375092 3.3407750725746155, 2.0335152745246887 l-4.648034870624542, 1.7430131137371063 -0.14525108970701694, 1.0167576372623444 l2.6145195960998535, 5.374290347099304 1.3072597980499268, 5.374290347099304 l0.0, 1.8882642686367035 -1.5977619588375092, 0.4357532784342766 l-3.776528537273407, -2.324017435312271 -1.5977619588375092, -0.4357532784342766 l-1.1620087176561356, 8.86031687259674 -0.726255476474762, 2.178766429424286 l-0.8715065568685532, 0.5810043588280678 -0.726255476474762, -1.452510952949524 l-1.0167576372623444, -5.810043811798096 -6.972052454948425, 6.10054612159729 l-3.776528537273407, 1.8882642686367035 -1.3072597980499268, 0.14525108970701694 l-1.8882642686367035, -0.14525108970701694 -0.5810043588280678, -1.1620087176561356 l0.4357532784342766, -5.229039192199707 -9.00556743144989, 0.8715065568685532 l-0.726255476474762, -1.7430131137371063 0.14525108970701694, -1.5977619588375092 l6.10054612159729, -6.972052454948425 -8.715065717697144, -1.7430131137371063 l-1.5977619588375092, -0.8715065568685532 -1.452510952949524, -1.7430131137371063 l0.5810043588280678, -2.4692685902118683 2.324017435312271, -1.3072597980499268 l12.34634280204773, -4.212281703948975 1.3072597980499268, -1.0167576372623444 l-2.178766429424286, -4.067030549049377 -0.14525108970701694, -4.793286025524139 l0.5810043588280678, -1.0167576372623444 1.1620087176561356, 0.14525108970701694 l5.374290347099304, 5.229039192199707 0.8715065568685532, -0.4357532784342766 l1.0167576372623444, -3.63127738237381 0.4357532784342766, -0.2905021794140339 m-12.927347421646118, 33.40775012969971 l-2.324017435312271, -1.1620087176561356 -4.212281703948975, -0.2905021794140339 l-2.0335152745246887, 0.5810043588280678 -1.3072597980499268, 1.3072597980499268 l-0.4357532784342766, 3.1955239176750183 0.5810043588280678, 2.178766429424286 l1.8882642686367035, 2.0335152745246887 1.452510952949524, 0.8715065568685532 l4.212281703948975, 0.726255476474762 8.279312252998352, 0.14525108970701694 l4.067030549049377, -1.0167576372623444 2.324017435312271, -1.7430131137371063 l0.726255476474762, -1.1620087176561356 " fill="none" stroke="black" stroke-width="1" /></svg>