<?xml version="1.0" encoding="utf-8" ?>
<svg baseProfile="full" height="52.413319582119584" version="1.1" width="56.18984719738364" xmlns="http://www.w3.org/2000/svg" xmlns:ev="http://www.w3.org/2001/xml-events" xmlns:xlink="http://www.w3.org/1999/xlink"><defs /><rect fill="white" height="52.413319582119584" width="56.18984719738364" x="0" y="0" /><path d="M24.027894400060177, 14.877074640244246 m-2.4692685902118683, 0.8715065568685532 l-2.7597707509994507, 2.7597707509994507 -2.7597707509994507, 3.9217793941497803 l-1.5977619588375092, 4.502783715724945 0.0, 6.2457966804504395 l0.5810043588280678, 2.4692685902118683 1.0167576372623444, 2.6145195960998535 l1.3072597980499268, 1.452510952949524 1.5977619588375092, 1.452510952949524 l2.324017435312271, 1.1620087176561356 5.810043811798096, 0.5810043588280678 l1.5977619588375092, -0.14525108970701694 2.178766429424286, -1.1620087176561356 l3.050273060798645, -2.324017435312271 3.3407750725746155, -5.08378803730011 l1.0167576372623444, -3.9217793941497803 -0.4357532784342766, -5.6647926568984985 l-1.5977619588375092, -3.9217793941497803 -1.8882642686367035, -2.6145195960998535 l-5.229039192199707, -2.905021905899048 -4.648034870624542, -0.5810043588280678 m-9.877074360847473, 0.14525108970701694 l0.14525108970701694, -1.7430131137371063 2.4692685902118683, -5.810043811798096 l1.5977619588375092, 5.229039192199707 m17.575381994247437, -1.1620087176561356 l0.726255476474762, -2.4692685902118683 1.7430131137371063, -2.6145195960998535 l0.4357532784342766, 1.7430131137371063 0.0, 6.2457966804504395 m-23.385426998138428, 0.14525108970701694 l-1.3072597980499268, 0.4357532784342766 -0.8715065568685532, 0.8715065568685532 l-1.1620087176561356, 1.5977619588375092 -0.14525108970701694, 1.5977619588375092 l1.452510952949524, 0.8715065568685532 2.7597707509994507, 0.2905021794140339 l0.0, 0.726255476474762 -8.569814562797546, 8.134061098098755 l4.502783715724945, 0.2905021794140339 -1.3072597980499268, 2.324017435312271 l-4.938537180423737, 5.6647926568984985 -1.3072597980499268, 2.178766429424286 l2.324017435312271, -0.2905021794140339 4.357532858848572, -2.324017435312271 l0.0, 1.452510952949524 -2.6145195960998535, 4.502783715724945 l-0.14525108970701694, 1.0167576372623444 1.8882642686367035, 0.0 l6.681550145149231, -2.905021905899048 0.2905021794140339, 0.8715065568685532 l-2.7597707509994507, 3.1955239176750183 m22.949671745300293, -32.390992641448975 l3.050273060798645, 1.0167576372623444 5.6647926568984985, 4.357532858848572 l0.14525108970701694, 1.5977619588375092 -2.324017435312271, 1.1620087176561356 l-3.050273060798645, 0.726255476474762 -0.4357532784342766, 0.726255476474762 l4.067030549049377, 3.050273060798645 2.7597707509994507, 2.7597707509994507 l0.8715065568685532, 2.905021905899048 0.0, 1.3072597980499268 l-0.8715065568685532, 1.0167576372623444 -1.7430131137371063, 0.8715065568685532 l-5.08378803730011, 0.14525108970701694 -0.5810043588280678, 1.1620087176561356 l1.452510952949524, 8.715065717697144 -3.3407750725746155, 0.5810043588280678 l-5.955294966697693, -2.4692685902118683 -1.3072597980499268, -0.14525108970701694 l-0.8715065568685532, 3.4860262274742126 -1.7430131137371063, 2.0335152745246887 l-2.0335152745246887, 0.0 -8.715065717697144, -2.324017435312271 m0.14525108970701694, -21.497161388397217 l0.0, 0.0 m13.508352041244507, 1.1620087176561356 l0.0, 0.0 m-10.748580694198608, -1.3072597980499268 l0.0, 0.0 m-1.1620087176561356, -0.2905021794140339 l-0.726255476474762, 0.726255476474762 -0.14525108970701694, 1.5977619588375092 l0.8715065568685532, 0.5810043588280678 0.4357532784342766, -1.3072597980499268 l-0.5810043588280678, -0.5810043588280678 m9.586572051048279, -0.8715065568685532 l0.726255476474762, 0.4357532784342766 0.0, -0.726255476474762 l-1.0167576372623444, 0.8715065568685532 0.0, 1.1620087176561356 l1.0167576372623444, -0.14525108970701694 m-6.972052454948425, 6.536298990249634 l0.5810043588280678, -0.14525108970701694 m-3.1955239176750183, 4.502783715724945 l0.8715065568685532, 2.178766429424286 1.452510952949524, 1.8882642686367035 l1.5977619588375092, 0.726255476474762 1.7430131137371063, 0.0 l3.63127738237381, -4.067030549049377 -1.5977619588375092, -0.726255476474762 l-5.6647926568984985, -0.14525108970701694 m-2.324017435312271, -24.40218448638916 l4.502783715724945, -5.08378803730011 2.6145195960998535, -1.1620087176561356 l1.0167576372623444, 0.726255476474762 0.726255476474762, 4.212281703948975 l0.8715065568685532, 0.5810043588280678 1.5977619588375092, -0.4357532784342766 l3.050273060798645, -3.1955239176750183 0.4357532784342766, 3.776528537273407 l0.5810043588280678, 1.452510952949524 2.178766429424286, -0.14525108970701694 m4.212281703948975, 0.14525108970701694 l2.905021905899048, -1.0167576372623444 6.536298990249634, -0.14525108970701694 m-18.737391233444214, 34.860262870788574 l4.502783715724945, 1.3072597980499268 10.16757607460022, 0.0 l3.1955239176750183, -0.4357532784342766 " fill="none" stroke="black" stroke-width="1" /></svg>