<?xml version="1.0" encoding="utf-8" ?>
<svg baseProfile="full" height="62.58089524693787" version="1.1" width="69.69819915480912" xmlns="http://www.w3.org/2000/svg" xmlns:ev="http://www.w3.org/2001/xml-events" xmlns:xlink="http://www.w3.org/1999/xlink"><defs /><rect fill="white" height="62.58089524693787" width="69.69819915480912" x="0" y="0" /><path d="M29.11168085411191, 12.262555630877614 m-1.8882642686367035, 0.2905021794140339 l-3.4860262274742126, 1.8882642686367035 -3.1955239176750183, 3.9217793941497803 l-1.8882642686367035, 6.2457966804504395 0.14525108970701694, 7.8435587882995605 l0.5810043588280678, 2.4692685902118683 2.324017435312271, 4.357532858848572 l3.1955239176750183, 2.6145195960998535 3.9217793941497803, 1.0167576372623444 l6.10054612159729, -0.4357532784342766 6.826801300048828, -2.6145195960998535 l2.7597707509994507, -1.8882642686367035 2.324017435312271, -2.4692685902118683 l1.8882642686367035, -3.1955239176750183 1.1620087176561356, -3.4860262274742126 l0.2905021794140339, -3.63127738237381 -0.5810043588280678, -3.4860262274742126 l-1.5977619588375092, -3.3407750725746155 -2.4692685902118683, -3.050273060798645 l-3.050273060798645, -2.7597707509994507 -3.3407750725746155, -1.5977619588375092 l-1.7430131137371063, -0.2905021794140339 -4.502783715724945, 0.5810043588280678 m-7.988809943199158, 11.76533818244934 l0.0, 0.2905021794140339 m14.670360088348389, 0.4357532784342766 l-0.14525108970701694, 0.14525108970701694 m-12.055840492248535, 13.363100290298462 l7.407805919647217, -1.452510952949524 3.776528537273407, 0.726255476474762 m-9.731823205947876, -26.29044771194458 l-2.7597707509994507, -2.7597707509994507 -3.776528537273407, -2.0335152745246887 l-3.1955239176750183, -0.4357532784342766 -3.1955239176750183, 1.3072597980499268 l-2.7597707509994507, 2.7597707509994507 -1.8882642686367035, 2.905021905899048 l-0.5810043588280678, 1.5977619588375092 1.5977619588375092, 0.4357532784342766 l-1.1620087176561356, 0.2905021794140339 -2.324017435312271, 1.7430131137371063 l-2.324017435312271, 3.050273060798645 -1.452510952949524, 4.212281703948975 l0.14525108970701694, 4.067030549049377 2.0335152745246887, 3.050273060798645 l6.391047835350037, 4.067030549049377 0.2905021794140339, 1.0167576372623444 l-2.178766429424286, 8.134061098098755 -0.5810043588280678, 5.08378803730011 l0.2905021794140339, 2.7597707509994507 1.3072597980499268, 1.7430131137371063 l3.3407750725746155, 0.2905021794140339 8.134061098098755, -1.7430131137371063 l1.1620087176561356, 0.5810043588280678 2.324017435312271, 4.067030549049377 l1.1620087176561356, 1.0167576372623444 1.452510952949524, 0.14525108970701694 l1.3072597980499268, -0.8715065568685532 1.1620087176561356, -2.178766429424286 l1.3072597980499268, -5.229039192199707 m10.893832445144653, -40.67030429840088 l3.63127738237381, -0.8715065568685532 3.776528537273407, 0.2905021794140339 l1.8882642686367035, 1.7430131137371063 2.7597707509994507, 5.810043811798096 l3.4860262274742126, 3.4860262274742126 1.452510952949524, 5.810043811798096 l2.324017435312271, 1.1620087176561356 0.4357532784342766, 1.3072597980499268 l-0.2905021794140339, 3.3407750725746155 -2.4692685902118683, 7.553057074546814 l1.5977619588375092, 1.5977619588375092 0.14525108970701694, 2.0335152745246887 l-1.452510952949524, 3.3407750725746155 -2.0335152745246887, 1.8882642686367035 l-1.8882642686367035, 0.726255476474762 -1.0167576372623444, 2.6145195960998535 l-1.7430131137371063, 1.5977619588375092 -2.6145195960998535, 0.5810043588280678 l-14.670360088348389, -0.2905021794140339 " fill="none" stroke="black" stroke-width="1" /></svg>