<?xml version="1.0" encoding="utf-8" ?>
<svg baseProfile="full" height="73.32947636954486" version="1.1" width="116.90480373799801" xmlns="http://www.w3.org/2000/svg" xmlns:ev="http://www.w3.org/2001/xml-events" xmlns:xlink="http://www.w3.org/1999/xlink"><defs /><rect fill="white" height="73.32947636954486" width="116.90480373799801" x="0" y="0" /><path d="M33.90496602281928, 22.430131267756224 m-0.726255476474762, -1.452510952949524 l-2.905021905899048, 1.3072597980499268 -2.178766429424286, 1.3072597980499268 l-4.938537180423737, 4.648034870624542 -5.229039192199707, 5.955294966697693 l-0.726255476474762, 2.324017435312271 1.1620087176561356, 3.3407750725746155 l3.050273060798645, 3.9217793941497803 2.178766429424286, 1.452510952949524 l2.905021905899048, 0.8715065568685532 2.905021905899048, 0.0 l9.877074360847473, -3.776528537273407 3.63127738237381, -2.905021905899048 l2.7597707509994507, -4.212281703948975 1.1620087176561356, -6.391047835350037 l-1.0167576372623444, -5.810043811798096 -2.178766429424286, -3.3407750725746155 l-2.324017435312271, -0.726255476474762 -2.7597707509994507, 0.2905021794140339 l-6.391047835350037, 2.905021905899048 -2.4692685902118683, 1.7430131137371063 l-1.452510952949524, 1.7430131137371063 -0.5810043588280678, 1.7430131137371063 l0.14525108970701694, 1.7430131137371063 m-0.726255476474762, 5.374290347099304 l0.726255476474762, -0.726255476474762 5.519541501998901, -2.178766429424286 l1.5977619588375092, 0.0 0.2905021794140339, 0.8715065568685532 l0.0, 1.452510952949524 -2.178766429424286, 7.26255476474762 l-0.726255476474762, 0.0 -4.502783715724945, -4.648034870624542 l-1.5977619588375092, -0.726255476474762 0.8715065568685532, 0.8715065568685532 m3.1955239176750183, 0.14525108970701694 l1.452510952949524, 0.2905021794140339 m0.4357532784342766, 5.374290347099304 l0.0, -0.726255476474762 -2.0335152745246887, 2.178766429424286 l-2.178766429424286, 0.726255476474762 -2.7597707509994507, -0.2905021794140339 l2.0335152745246887, -0.8715065568685532 m5.810043811798096, -3.63127738237381 l-0.14525108970701694, 1.452510952949524 0.8715065568685532, 0.4357532784342766 l4.357532858848572, -3.3407750725746155 0.726255476474762, -0.726255476474762 l-0.5810043588280678, -0.14525108970701694 m-12.20109224319458, -8.42456340789795 l0.0, -0.4357532784342766 m0.5810043588280678, 0.14525108970701694 l-0.726255476474762, 0.726255476474762 -0.4357532784342766, 1.452510952949524 l-0.14525108970701694, -0.8715065568685532 0.4357532784342766, -0.726255476474762 l2.4692685902118683, -1.0167576372623444 -3.9217793941497803, 2.178766429424286 l5.374290347099304, -3.1955239176750183 -1.452510952949524, 1.7430131137371063 l-3.3407750725746155, 2.0335152745246887 2.324017435312271, -0.5810043588280678 m6.681550145149231, -4.212281703948975 l-1.8882642686367035, 1.5977619588375092 3.3407750725746155, -2.178766429424286 l-0.14525108970701694, 0.726255476474762 -2.4692685902118683, 1.7430131137371063 m-21.351909637451172, -8.569814562797546 l1.452510952949524, -2.4692685902118683 1.7430131137371063, -0.14525108970701694 l2.7597707509994507, -1.0167576372623444 2.7597707509994507, -2.4692685902118683 l5.955294966697693, -0.4357532784342766 1.5977619588375092, -0.5810043588280678 l1.0167576372623444, -2.4692685902118683 2.0335152745246887, -2.324017435312271 l4.357532858848572, -0.5810043588280678 3.4860262274742126, -2.178766429424286 l2.178766429424286, 0.14525108970701694 4.212281703948975, 2.6145195960998535 l1.5977619588375092, 0.0 6.826801300048828, 2.7597707509994507 l2.178766429424286, 3.4860262274742126 1.0167576372623444, 4.793286025524139 l1.3072597980499268, 1.1620087176561356 1.3072597980499268, 2.324017435312271 l2.324017435312271, 6.2457966804504395 0.2905021794140339, 2.6145195960998535 l-0.8715065568685532, 1.452510952949524 -0.4357532784342766, 8.86031687259674 l-0.5810043588280678, 2.324017435312271 -3.4860262274742126, 7.26255476474762 l-3.050273060798645, 1.1620087176561356 -6.536298990249634, 5.229039192199707 l-11.76533818244934, 1.452510952949524 -5.955294966697693, 3.1955239176750183 l-4.357532858848572, -0.5810043588280678 -6.681550145149231, -2.0335152745246887 l-1.452510952949524, -0.8715065568685532 -0.8715065568685532, -1.1620087176561356 l-2.324017435312271, -4.212281703948975 -4.502783715724945, -11.910589933395386 l-2.0335152745246887, -3.9217793941497803 -1.8882642686367035, -6.2457966804504395 l0.0, -4.648034870624542 0.726255476474762, -2.0335152745246887 l1.452510952949524, -1.8882642686367035 2.178766429424286, -1.5977619588375092 l4.938537180423737, 0.4357532784342766 m46.189846992492676, 7.8435587882995605 l0.8715065568685532, -0.5810043588280678 8.42456340789795, 0.8715065568685532 l10.02232551574707, 2.178766429424286 3.1955239176750183, 0.2905021794140339 l28.904967308044434, -0.5810043588280678 -1.3072597980499268, 1.3072597980499268 m-53.597655296325684, 22.22341775894165 l2.0335152745246887, 1.1620087176561356 11.910589933395386, 2.7597707509994507 l12.34634280204773, 4.793286025524139 9.731823205947876, 4.648034870624542 l5.08378803730011, -0.2905021794140339 " fill="none" stroke="black" stroke-width="1" /></svg>