<?xml version="1.0" encoding="utf-8" ?>
<svg baseProfile="full" height="51.541812140494585" version="1.1" width="109.06124357134104" xmlns="http://www.w3.org/2000/svg" xmlns:ev="http://www.w3.org/2001/xml-events" xmlns:xlink="http://www.w3.org/1999/xlink"><defs /><rect fill="white" height="51.541812140494585" width="109.06124357134104" x="0" y="0" /><path d="M23.301638029515743, 18.944104835391045 m4.648034870624542, -0.5810043588280678 l9.296069741249084, 1.452510952949524 4.067030549049377, 1.452510952949524 l0.8715065568685532, 7.553057074546814 -0.2905021794140339, 5.519541501998901 l-0.2905021794140339, 1.452510952949524 -3.1955239176750183, 3.1955239176750183 l-2.905021905899048, 1.452510952949524 -2.324017435312271, 0.0 l-4.648034870624542, -1.1620087176561356 -2.324017435312271, -1.1620087176561356 l-4.067030549049377, -3.4860262274742126 -4.357532858848572, -6.972052454948425 l0.0, -7.26255476474762 0.2905021794140339, -1.7430131137371063 l4.938537180423737, -3.4860262274742126 0.8715065568685532, -1.7430131137371063 l0.0, 1.452510952949524 m4.648034870624542, 13.94410490989685 l-3.776528537273407, 0.5810043588280678 0.0, -1.7430131137371063 l-0.8715065568685532, 0.0 0.5810043588280678, 2.6145195960998535 l2.6145195960998535, 0.8715065568685532 0.2905021794140339, -3.4860262274742126 l-1.7430131137371063, 0.2905021794140339 -0.5810043588280678, 0.8715065568685532 l0.0, 1.7430131137371063 0.5810043588280678, -0.8715065568685532 l1.7430131137371063, -0.5810043588280678 -1.452510952949524, 0.0 m3.4860262274742126, 4.067030549049377 l-2.324017435312271, 1.1620087176561356 -1.7430131137371063, 0.0 l0.8715065568685532, -0.5810043588280678 7.26255476474762, 0.0 l1.1620087176561356, -2.6145195960998535 -0.2905021794140339, -2.0335152745246887 m-9.296069741249084, -6.10054612159729 l2.324017435312271, 2.905021905899048 1.1620087176561356, 0.5810043588280678 m0.5810043588280678, -2.0335152745246887 l0.8715065568685532, 0.2905021794140339 0.0, 2.6145195960998535 m-6.10054612159729, -9.877074360847473 l-1.1620087176561356, -0.8715065568685532 -0.2905021794140339, -2.324017435312271 l0.5810043588280678, -9.296069741249084 1.452510952949524, 0.2905021794140339 l3.1955239176750183, 1.7430131137371063 3.1955239176750183, 2.6145195960998535 l1.1620087176561356, 2.0335152745246887 0.0, 3.4860262274742126 l0.8715065568685532, 0.2905021794140339 2.905021905899048, -2.6145195960998535 l4.357532858848572, -2.6145195960998535 0.8715065568685532, 0.2905021794140339 l0.5810043588280678, 6.681550145149231 2.905021905899048, 2.324017435312271 l5.229039192199707, 3.1955239176750183 0.5810043588280678, 0.8715065568685532 l-0.2905021794140339, 2.905021905899048 -5.810043811798096, 1.1620087176561356 l1.7430131137371063, 0.8715065568685532 4.357532858848572, 0.5810043588280678 l4.648034870624542, 1.7430131137371063 0.0, 3.4860262274742126 l-2.324017435312271, 2.0335152745246887 -1.1620087176561356, 4.067030549049377 l-2.324017435312271, 3.4860262274742126 -8.134061098098755, 2.6145195960998535 l-2.905021905899048, 0.0 -1.1620087176561356, -0.5810043588280678 l-2.0335152745246887, -2.0335152745246887 0.0, -1.7430131137371063 l-5.229039192199707, 2.324017435312271 -2.6145195960998535, 0.2905021794140339 l-2.0335152745246887, -1.7430131137371063 -0.8715065568685532, -2.0335152745246887 l-3.776528537273407, -1.452510952949524 -2.905021905899048, 0.5810043588280678 l-1.1620087176561356, -0.5810043588280678 -2.324017435312271, -2.6145195960998535 l-1.7430131137371063, -3.4860262274742126 -6.972052454948425, -2.0335152745246887 l-0.2905021794140339, -6.972052454948425 3.1955239176750183, -2.324017435312271 l0.0, -3.776528537273407 4.648034870624542, -1.452510952949524 l1.1620087176561356, -1.1620087176561356 0.2905021794140339, -4.648034870624542 l6.972052454948425, 2.905021905899048 8.42456340789795, 2.6145195960998535 m15.687117576599121, 1.7430131137371063 l-0.2905021794140339, 1.7430131137371063 3.1955239176750183, 2.324017435312271 l4.357532858848572, 0.8715065568685532 13.072597980499268, 1.1620087176561356 l2.905021905899048, 0.8715065568685532 5.519541501998901, 0.2905021794140339 l6.391047835350037, 2.6145195960998535 8.134061098098755, 2.324017435312271 l6.681550145149231, 3.776528537273407 -0.8715065568685532, -0.8715065568685532 l0.8715065568685532, -1.7430131137371063 5.229039192199707, -3.776528537273407 l0.8715065568685532, -2.905021905899048 0.0, -4.938537180423737 l0.8715065568685532, -0.5810043588280678 1.1620087176561356, 0.2905021794140339 l0.5810043588280678, 2.905021905899048 -3.776528537273407, 7.553057074546814 l-0.2905021794140339, 1.7430131137371063 -1.7430131137371063, 4.067030549049377 " fill="none" stroke="black" stroke-width="1" /></svg>