<?xml version="1.0" encoding="utf-8" ?>
<svg baseProfile="full" height="68.39093833230436" version="1.1" width="142.61425018310547" xmlns="http://www.w3.org/2000/svg" xmlns:ev="http://www.w3.org/2001/xml-events" xmlns:xlink="http://www.w3.org/1999/xlink"><defs /><rect fill="white" height="68.39093833230436" width="142.61425018310547" x="0" y="0" /><path d="M82.27358191274107, 18.072598511353135 m-0.726255476474762, 0.0 l-6.536298990249634, 8.715065717697144 -0.8715065568685532, -0.2905021794140339 l-5.955294966697693, -16.12287163734436 -0.4357532784342766, -1.0167576372623444 l-0.726255476474762, 0.14525108970701694 -2.6145195960998535, 8.134061098098755 l-0.726255476474762, 6.10054612159729 -2.7597707509994507, -4.648034870624542 l-9.296069741249084, -10.312827825546265 -2.6145195960998535, -2.178766429424286 l-3.050273060798645, -1.5977619588375092 0.2905021794140339, 2.4692685902118683 l1.8882642686367035, 5.374290347099304 5.374290347099304, 12.782095670700073 l4.212281703948975, 7.1173036098480225 5.6647926568984985, 11.329585313796997 l-0.14525108970701694, -2.0335152745246887 -0.5810043588280678, -1.452510952949524 l-2.324017435312271, -2.905021905899048 -1.8882642686367035, -1.5977619588375092 l-1.3072597980499268, 2.324017435312271 0.0, 2.6145195960998535 l1.5977619588375092, 1.452510952949524 1.452510952949524, 0.5810043588280678 l23.53067636489868, 0.0 -11.76533818244934, 7.988809943199158 l-4.357532858848572, 2.324017435312271 -2.6145195960998535, 0.726255476474762 l20.770905017852783, -5.374290347099304 20.189902782440186, -3.9217793941497803 l5.519541501998901, -0.5810043588280678 -1.8882642686367035, 1.3072597980499268 l-4.067030549049377, 4.648034870624542 -7.1173036098480225, 5.374290347099304 l-6.2457966804504395, 1.5977619588375092 13.072597980499268, -9.877074360847473 l4.357532858848572, -2.178766429424286 5.6647926568984985, -4.212281703948975 l-0.8715065568685532, -0.14525108970701694 -1.5977619588375092, 0.5810043588280678 l0.4357532784342766, -2.0335152745246887 9.296069741249084, -14.234607219696045 l0.8715065568685532, -2.905021905899048 0.14525108970701694, -2.6145195960998535 l-0.726255476474762, -0.726255476474762 -6.391047835350037, -0.726255476474762 l-11.184333562850952, -3.4860262274742126 -4.938537180423737, -0.726255476474762 l-0.726255476474762, -1.1620087176561356 -2.0335152745246887, -1.0167576372623444 l-5.519541501998901, -2.4692685902118683 -2.324017435312271, -0.5810043588280678 l-4.357532858848572, -0.4357532784342766 -10.893832445144653, 3.050273060798645 l0.5810043588280678, 0.2905021794140339 m11.620087623596191, 11.329585313796997 l0.14525108970701694, -0.8715065568685532 -1.3072597980499268, 0.0 l-7.26255476474762, 2.905021905899048 -5.229039192199707, 3.3407750725746155 l-2.4692685902118683, 2.7597707509994507 -0.5810043588280678, 3.4860262274742126 l0.0, 5.955294966697693 1.5977619588375092, 3.3407750725746155 l1.8882642686367035, 1.452510952949524 4.067030549049377, 0.14525108970701694 l3.3407750725746155, -1.0167576372623444 6.2457966804504395, -0.5810043588280678 l4.793286025524139, -1.7430131137371063 4.938537180423737, -3.4860262274742126 l2.7597707509994507, -2.905021905899048 1.1620087176561356, -2.324017435312271 l0.0, -4.067030549049377 -1.7430131137371063, -5.6647926568984985 l-1.3072597980499268, -1.8882642686367035 -1.7430131137371063, -0.726255476474762 l-7.26255476474762, -1.5977619588375092 -6.972052454948425, -0.8715065568685532 l-9.00556743144989, -0.14525108970701694 0.0, 0.8715065568685532 m5.6647926568984985, 17.575381994247437 l5.6647926568984985, -1.5977619588375092 6.10054612159729, 0.0 l-0.14525108970701694, 2.178766429424286 -2.0335152745246887, 2.324017435312271 l-6.681550145149231, 1.7430131137371063 -1.7430131137371063, -0.2905021794140339 l-0.726255476474762, -0.5810043588280678 -1.1620087176561356, -3.050273060798645 l0.0, -0.726255476474762 0.726255476474762, -0.5810043588280678 l0.8715065568685532, -0.2905021794140339 0.726255476474762, 1.452510952949524 l1.452510952949524, 1.1620087176561356 1.452510952949524, 0.0 l1.1620087176561356, -1.452510952949524 1.8882642686367035, -0.726255476474762 l3.4860262274742126, 0.14525108970701694 m-10.893832445144653, -10.458078384399414 l0.4357532784342766, 3.776528537273407 0.5810043588280678, 0.2905021794140339 m9.296069741249084, -2.7597707509994507 l1.1620087176561356, 3.63127738237381 -2.905021905899048, 0.8715065568685532 l-1.8882642686367035, 0.0 m-30.35747766494751, 1.3072597980499268 l-7.553057074546814, 0.4357532784342766 -3.776528537273407, 1.0167576372623444 l-5.955294966697693, 3.63127738237381 -5.519541501998901, 1.7430131137371063 l-7.26255476474762, 5.08378803730011 -0.4357532784342766, 1.452510952949524 l0.14525108970701694, 2.0335152745246887 2.324017435312271, 1.7430131137371063 l4.648034870624542, 0.726255476474762 24.256932735443115, -0.14525108970701694 l5.6647926568984985, -2.905021905899048 6.972052454948425, -2.178766429424286 l6.391047835350037, -3.050273060798645 0.726255476474762, -0.8715065568685532 m-38.927292823791504, 9.586572051048279 l0.0, 4.793286025524139 -0.726255476474762, 3.4860262274742126 l0.5810043588280678, -0.5810043588280678 m23.82117986679077, -9.00556743144989 l0.14525108970701694, 5.374290347099304 2.905021905899048, 7.8435587882995605 l-0.2905021794140339, -2.324017435312271 m-27.016704082489014, -9.877074360847473 l-0.14525108970701694, 8.715065717697144 -0.4357532784342766, 1.452510952949524 m-27.8882098197937, -26.87145233154297 l1.5977619588375092, -0.14525108970701694 1.0167576372623444, 0.4357532784342766 l3.9217793941497803, 3.050273060798645 m9.877074360847473, 9.586572051048279 l-5.229039192199707, 2.6145195960998535 -3.1955239176750183, 5.519541501998901 l-3.3407750725746155, 0.8715065568685532 -7.1173036098480225, 0.0 m132.61425018310547, -23.240175247192383 l-5.6647926568984985, 0.5810043588280678 -1.0167576372623444, -1.3072597980499268 l-1.452510952949524, -3.9217793941497803 -0.2905021794140339, -11.620087623596191 l0.2905021794140339, -1.452510952949524 0.8715065568685532, -0.5810043588280678 l1.452510952949524, 0.0 m2.905021905899048, 8.134061098098755 l-2.178766429424286, 2.905021905899048 -0.8715065568685532, 3.63127738237381 l0.0, 3.050273060798645 " fill="none" stroke="black" stroke-width="1" /></svg>