<?xml version="1.0" encoding="utf-8" ?>
<svg baseProfile="full" height="77.54175818525255" version="1.1" width="98.748416332528" xmlns="http://www.w3.org/2000/svg" xmlns:ev="http://www.w3.org/2001/xml-events" xmlns:xlink="http://www.w3.org/1999/xlink"><defs /><rect fill="white" height="77.54175818525255" width="98.748416332528" x="0" y="0" /><path d="M24.318395853042603, 32.742958664894104 m-1.452510952949524, -0.726255476474762 l-0.8715065568685532, -1.5977619588375092 -0.2905021794140339, -1.8882642686367035 l1.5977619588375092, -4.067030549049377 1.5977619588375092, -1.5977619588375092 l3.1955239176750183, -1.5977619588375092 2.178766429424286, -2.324017435312271 l0.8715065568685532, -0.2905021794140339 0.726255476474762, 1.0167576372623444 l1.1620087176561356, 7.1173036098480225 -0.2905021794140339, 3.776528537273407 l-2.7597707509994507, 2.4692685902118683 -0.726255476474762, 0.14525108970701694 l-1.452510952949524, -3.050273060798645 m5.08378803730011, -0.14525108970701694 l-1.1620087176561356, 1.7430131137371063 -0.726255476474762, 0.0 l-0.14525108970701694, -1.0167576372623444 0.0, -2.7597707509994507 l1.8882642686367035, -3.4860262274742126 -0.14525108970701694, -0.726255476474762 l2.178766429424286, -2.324017435312271 1.1620087176561356, -0.5810043588280678 l2.324017435312271, -0.2905021794140339 1.7430131137371063, 0.4357532784342766 l3.3407750725746155, 3.4860262274742126 -1.0167576372623444, 1.1620087176561356 l-0.4357532784342766, 5.374290347099304 -2.324017435312271, 4.793286025524139 l-4.502783715724945, 2.324017435312271 -1.5977619588375092, -0.2905021794140339 l-1.0167576372623444, -2.0335152745246887 0.14525108970701694, -0.726255476474762 l3.1955239176750183, -4.067030549049377 0.0, -0.726255476474762 l-1.0167576372623444, 0.0 -5.519541501998901, -2.178766429424286 m0.726255476474762, 5.229039192199707 l-1.0167576372623444, 2.6145195960998535 -3.4860262274742126, 4.502783715724945 l-0.726255476474762, 1.5977619588375092 -0.4357532784342766, 1.1620087176561356 l0.0, 3.050273060798645 0.726255476474762, 0.5810043588280678 l1.5977619588375092, -0.8715065568685532 2.0335152745246887, -5.08378803730011 l-0.14525108970701694, -1.5977619588375092 1.5977619588375092, -1.5977619588375092 l1.7430131137371063, -2.7597707509994507 m-14.960862398147583, 18.737391233444214 l-0.8715065568685532, 0.14525108970701694 -1.8882642686367035, -1.5977619588375092 l-4.357532858848572, -2.178766429424286 -2.178766429424286, -2.905021905899048 l-0.4357532784342766, -2.324017435312271 2.178766429424286, -13.072597980499268 l2.4692685902118683, -3.4860262274742126 0.5810043588280678, -3.050273060798645 l-0.14525108970701694, 5.374290347099304 0.726255476474762, 3.3407750725746155 l-0.2905021794140339, -2.6145195960998535 -3.776528537273407, -10.893832445144653 l0.14525108970701694, -4.793286025524139 0.726255476474762, -0.726255476474762 l0.726255476474762, 0.0 1.8882642686367035, 1.1620087176561356 l0.726255476474762, -0.14525108970701694 1.1620087176561356, -6.10054612159729 l0.0, 0.8715065568685532 0.726255476474762, 1.0167576372623444 l0.726255476474762, 0.2905021794140339 0.4357532784342766, -1.1620087176561356 l-0.4357532784342766, -3.9217793941497803 0.14525108970701694, -0.726255476474762 l0.726255476474762, -0.4357532784342766 1.3072597980499268, 3.4860262274742126 l1.0167576372623444, 0.5810043588280678 0.8715065568685532, -0.4357532784342766 l1.5977619588375092, -2.7597707509994507 1.8882642686367035, -1.0167576372623444 l3.1955239176750183, -0.5810043588280678 3.3407750725746155, 0.14525108970701694 l0.4357532784342766, 2.4692685902118683 1.0167576372623444, 0.0 l2.6145195960998535, -1.452510952949524 6.826801300048828, -0.8715065568685532 l-0.14525108970701694, 1.8882642686367035 -2.0335152745246887, 2.6145195960998535 l1.452510952949524, 0.4357532784342766 20.33515214920044, -0.2905021794140339 l12.055840492248535, 1.0167576372623444 3.1955239176750183, 0.8715065568685532 l0.8715065568685532, 0.726255476474762 -0.14525108970701694, 1.0167576372623444 l-1.5977619588375092, 1.7430131137371063 -4.502783715724945, 2.6145195960998535 l-1.7430131137371063, 1.8882642686367035 2.6145195960998535, 1.7430131137371063 l15.251364707946777, 4.067030549049377 5.229039192199707, 3.050273060798645 l2.178766429424286, 2.4692685902118683 -1.5977619588375092, 1.452510952949524 l-12.34634280204773, 2.905021905899048 -2.324017435312271, 1.5977619588375092 l-0.726255476474762, 2.0335152745246887 0.8715065568685532, 1.3072597980499268 l6.10054612159729, 3.9217793941497803 2.0335152745246887, 1.8882642686367035 l0.2905021794140339, 2.0335152745246887 -3.1955239176750183, 2.0335152745246887 l-1.3072597980499268, 0.0 -2.7597707509994507, -0.8715065568685532 l-1.5977619588375092, -1.0167576372623444 -0.2905021794140339, -0.8715065568685532 l-2.905021905899048, 9.586572051048279 -0.8715065568685532, 0.0 l-4.067030549049377, -3.3407750725746155 0.4357532784342766, 2.7597707509994507 l-1.3072597980499268, 1.7430131137371063 0.0, -1.0167576372623444 l-1.7430131137371063, -2.6145195960998535 -1.1620087176561356, -0.2905021794140339 l-1.0167576372623444, 0.726255476474762 0.2905021794140339, 7.1173036098480225 l-1.1620087176561356, 1.8882642686367035 -6.826801300048828, 6.2457966804504395 l-6.681550145149231, 1.3072597980499268 -2.0335152745246887, 0.0 l-0.5810043588280678, -2.0335152745246887 -2.4692685902118683, -4.502783715724945 l-5.374290347099304, -4.648034870624542 -1.5977619588375092, -0.726255476474762 l-3.9217793941497803, 5.6647926568984985 -1.452510952949524, 1.5977619588375092 l-2.4692685902118683, 1.5977619588375092 -1.1620087176561356, -3.050273060798645 l-0.8715065568685532, -4.793286025524139 -0.8715065568685532, 0.2905021794140339 l-5.08378803730011, 7.1173036098480225 -3.776528537273407, 3.776528537273407 l-1.5977619588375092, 0.5810043588280678 -0.726255476474762, -0.2905021794140339 l-1.7430131137371063, -4.938537180423737 -0.4357532784342766, -4.648034870624542 l-5.519541501998901, 4.793286025524139 -1.3072597980499268, -8.134061098098755 l-1.7430131137371063, -4.648034870624542 -0.14525108970701694, -5.519541501998901 l1.452510952949524, -3.776528537273407 1.452510952949524, -1.452510952949524 l0.0, -2.6145195960998535 0.726255476474762, -0.8715065568685532 l0.4357532784342766, -5.6647926568984985 2.6145195960998535, -3.9217793941497803 " fill="none" stroke="black" stroke-width="1" /></svg>