<?xml version="1.0" encoding="utf-8" ?>
<svg baseProfile="full" height="59.09487083554268" version="1.1" width="58.51386494934559" xmlns="http://www.w3.org/2000/svg" xmlns:ev="http://www.w3.org/2001/xml-events" xmlns:xlink="http://www.w3.org/1999/xlink"><defs /><rect fill="white" height="59.09487083554268" width="58.51386494934559" x="0" y="0" /><path d="M8.195524187758565, 21.413373788818717 m-1.452510952949524, -4.938537180423737 l0.0, -1.7430131137371063 0.8715065568685532, -2.178766429424286 l0.726255476474762, -0.4357532784342766 1.3072597980499268, 0.2905021794140339 l5.519541501998901, 5.374290347099304 1.7430131137371063, 0.726255476474762 l0.8715065568685532, -0.14525108970701694 1.7430131137371063, -2.905021905899048 l1.452510952949524, -8.569814562797546 0.726255476474762, -1.452510952949524 l0.5810043588280678, -0.4357532784342766 0.5810043588280678, 0.0 l1.452510952949524, 2.0335152745246887 4.067030549049377, 10.312827825546265 l1.7430131137371063, 1.8882642686367035 m2.905021905899048, -1.0167576372623444 l0.5810043588280678, -4.938537180423737 1.0167576372623444, -3.3407750725746155 l1.0167576372623444, -1.452510952949524 1.8882642686367035, -0.5810043588280678 l1.0167576372623444, 0.4357532784342766 1.7430131137371063, 2.324017435312271 l1.0167576372623444, 2.178766429424286 1.3072597980499268, 5.810043811798096 m2.178766429424286, 10.312827825546265 l0.2905021794140339, 0.0 m3.3407750725746155, -4.212281703948975 l2.6145195960998535, -5.08378803730011 1.7430131137371063, -1.8882642686367035 l0.5810043588280678, 0.0 0.14525108970701694, 3.1955239176750183 l-4.793286025524139, 21.787664890289307 -0.5810043588280678, 0.0 l-0.5810043588280678, -2.178766429424286 -0.5810043588280678, 0.726255476474762 l-3.4860262274742126, 12.055840492248535 -1.452510952949524, -0.8715065568685532 l-0.726255476474762, -1.5977619588375092 -2.4692685902118683, -7.988809943199158 l-1.8882642686367035, 1.452510952949524 -2.7597707509994507, 7.8435587882995605 l-1.452510952949524, 1.8882642686367035 -2.178766429424286, -3.63127738237381 l-2.0335152745246887, -7.698307633399963 -1.1620087176561356, -1.3072597980499268 l-1.7430131137371063, 1.3072597980499268 -4.212281703948975, 8.134061098098755 l-1.1620087176561356, 0.8715065568685532 -1.1620087176561356, -0.4357532784342766 l-1.7430131137371063, -3.4860262274742126 -0.726255476474762, -4.938537180423737 l0.0, -4.938537180423737 -2.324017435312271, 4.212281703948975 l-2.0335152745246887, 8.569814562797546 -1.1620087176561356, 2.178766429424286 l-1.0167576372623444, 0.0 -1.8882642686367035, -5.374290347099304 l-1.1620087176561356, -7.26255476474762 m-0.8715065568685532, 2.178766429424286 l0.0, 0.0 m-0.4357532784342766, -2.4692685902118683 l-0.726255476474762, -5.6647926568984985 0.0, -3.776528537273407 l1.452510952949524, -6.536298990249634 1.452510952949524, -2.178766429424286 m32.390992641448975, 2.6145195960998535 l-11.620087623596191, -2.324017435312271 -6.10054612159729, 0.2905021794140339 l-3.4860262274742126, 1.1620087176561356 -2.6145195960998535, 1.5977619588375092 l-1.8882642686367035, 1.7430131137371063 -1.452510952949524, 2.4692685902118683 l0.14525108970701694, 2.178766429424286 1.0167576372623444, 2.0335152745246887 l4.357532858848572, 3.9217793941497803 7.698307633399963, 2.6145195960998535 l7.988809943199158, 0.0 8.715065717697144, -2.178766429424286 l3.1955239176750183, -1.7430131137371063 2.324017435312271, -1.8882642686367035 l1.1620087176561356, -2.6145195960998535 -0.2905021794140339, -3.050273060798645 l-1.0167576372623444, -2.324017435312271 -2.7597707509994507, -2.905021905899048 l-2.6145195960998535, -1.452510952949524 -3.3407750725746155, -1.0167576372623444 l-5.810043811798096, -0.14525108970701694 -3.3407750725746155, 0.726255476474762 l-4.357532858848572, 1.7430131137371063 -4.067030549049377, 2.4692685902118683 l-2.178766429424286, 2.0335152745246887 m6.826801300048828, -2.4692685902118683 l0.4357532784342766, 3.1955239176750183 1.7430131137371063, 3.776528537273407 m6.972052454948425, -5.519541501998901 l0.726255476474762, 4.793286025524139 m-7.1173036098480225, 6.10054612159729 l4.212281703948975, 0.8715065568685532 2.4692685902118683, -0.8715065568685532 l0.8715065568685532, -1.452510952949524 0.0, -0.8715065568685532 l-0.2905021794140339, -0.8715065568685532 -1.1620087176561356, -0.726255476474762 l-2.0335152745246887, 0.5810043588280678 -3.63127738237381, 3.050273060798645 m10.603330135345459, -19.754148721694946 l2.905021905899048, -1.1620087176561356 " fill="none" stroke="black" stroke-width="1" /></svg>