<?xml version="1.0" encoding="utf-8" ?>
<svg baseProfile="full" height="42.536244904622436" version="1.1" width="49.363047033548355" xmlns="http://www.w3.org/2000/svg" xmlns:ev="http://www.w3.org/2001/xml-events" xmlns:xlink="http://www.w3.org/1999/xlink"><defs /><rect fill="white" height="42.536244904622436" width="49.363047033548355" x="0" y="0" /><path d="M17.34634249471128, 17.491594357416034 m-1.8882642686367035, 4.067030549049377 l0.5810043588280678, 2.324017435312271 0.726255476474762, 0.726255476474762 l1.8882642686367035, 0.5810043588280678 3.3407750725746155, -0.14525108970701694 l2.178766429424286, -1.452510952949524 0.4357532784342766, -0.8715065568685532 l0.14525108970701694, -4.212281703948975 -2.324017435312271, -1.1620087176561356 l-6.2457966804504395, 0.5810043588280678 m-1.3072597980499268, 6.972052454948425 l-3.776528537273407, -0.2905021794140339 -2.324017435312271, -1.8882642686367035 l-2.6145195960998535, -3.776528537273407 -1.1620087176561356, -5.955294966697693 l0.0, -5.519541501998901 2.178766429424286, -1.5977619588375092 l5.229039192199707, -0.8715065568685532 4.357532858848572, 0.0 l6.826801300048828, 1.5977619588375092 6.536298990249634, 2.7597707509994507 l4.648034870624542, 3.3407750725746155 1.0167576372623444, 2.6145195960998535 l0.2905021794140339, 4.648034870624542 -2.905021905899048, 4.502783715724945 l-2.7597707509994507, 1.3072597980499268 -2.905021905899048, 0.0 l-3.63127738237381, -1.0167576372623444 m-9.296069741249084, -3.050273060798645 l-0.726255476474762, -0.5810043588280678 -0.14525108970701694, -0.8715065568685532 l0.0, -6.10054612159729 0.726255476474762, 0.14525108970701694 l1.8882642686367035, 2.6145195960998535 1.7430131137371063, 0.726255476474762 m7.553057074546814, 1.452510952949524 l2.4692685902118683, -4.067030549049377 0.4357532784342766, 1.0167576372623444 l-0.5810043588280678, 7.553057074546814 -0.5810043588280678, 0.726255476474762 l-1.5977619588375092, -0.2905021794140339 m-6.972052454948425, -3.1955239176750183 l0.0, -0.14525108970701694 m3.1955239176750183, -0.4357532784342766 l0.0, 0.14525108970701694 m-2.905021905899048, 2.178766429424286 l2.6145195960998535, 0.0 m1.3072597980499268, 2.4692685902118683 l1.5977619588375092, 0.5810043588280678 11.329585313796997, 0.0 l1.452510952949524, 0.2905021794140339 0.8715065568685532, 0.726255476474762 l0.726255476474762, 3.4860262274742126 -0.5810043588280678, 1.7430131137371063 l-0.8715065568685532, 0.8715065568685532 -7.988809943199158, 0.4357532784342766 l-4.067030549049377, -1.0167576372623444 -6.391047835350037, -2.905021905899048 l-1.5977619588375092, -1.452510952949524 0.0, -1.8882642686367035 l0.726255476474762, -1.5977619588375092 m20.62565565109253, 3.63127738237381 l1.452510952949524, 0.0 0.5810043588280678, -0.726255476474762 l0.14525108970701694, -2.324017435312271 -0.726255476474762, -2.6145195960998535 l0.2905021794140339, -2.6145195960998535 1.452510952949524, -1.7430131137371063 l1.7430131137371063, -0.726255476474762 -1.5977619588375092, 0.726255476474762 l-1.1620087176561356, 1.452510952949524 3.3407750725746155, 0.2905021794140339 l-4.793286025524139, 0.5810043588280678 3.4860262274742126, 1.0167576372623444 l-3.4860262274742126, 0.0 2.4692685902118683, 1.1620087176561356 l-0.726255476474762, 2.6145195960998535 m-22.51391887664795, 6.10054612159729 l-0.14525108970701694, 2.905021905899048 1.0167576372623444, -1.3072597980499268 m3.1955239176750183, -2.6145195960998535 l0.0, 4.067030549049377 0.2905021794140339, 0.726255476474762 l0.4357532784342766, 0.0 m13.798853158950806, -1.5977619588375092 l-0.4357532784342766, 3.050273060798645 m1.1620087176561356, -3.9217793941497803 l1.0167576372623444, 5.08378803730011 m-12.782095670700073, -16.8491268157959 l0.0, 0.0 m-12.491593360900879, -3.3407750725746155 l-0.14525108970701694, 0.0 m-4.938537180423737, -1.3072597980499268 l-0.5810043588280678, 2.178766429424286 0.726255476474762, 0.14525108970701694 l0.0, -0.726255476474762 -0.726255476474762, -0.4357532784342766 l0.726255476474762, 0.2905021794140339 1.3072597980499268, -0.5810043588280678 l0.0, -3.63127738237381 0.726255476474762, 0.5810043588280678 l4.938537180423737, 0.0 1.452510952949524, -0.14525108970701694 l0.726255476474762, -0.8715065568685532 2.4692685902118683, 0.726255476474762 l6.391047835350037, 0.5810043588280678 2.324017435312271, 0.8715065568685532 l2.7597707509994507, 0.0 0.4357532784342766, 1.452510952949524 l0.0, 3.050273060798645 -1.0167576372623444, 2.4692685902118683 l1.1620087176561356, -5.229039192199707 -0.726255476474762, -2.0335152745246887 l-1.1620087176561356, -0.8715065568685532 -6.826801300048828, -2.7597707509994507 l-7.8435587882995605, -0.4357532784342766 -0.726255476474762, 0.8715065568685532 " fill="none" stroke="black" stroke-width="1" /></svg>