<?xml version="1.0" encoding="utf-8" ?>
<svg baseProfile="full" height="98.02216169424355" version="1.1" width="80.73728156276047" xmlns="http://www.w3.org/2000/svg" xmlns:ev="http://www.w3.org/2001/xml-events" xmlns:xlink="http://www.w3.org/1999/xlink"><defs /><rect fill="white" height="98.02216169424355" width="80.73728156276047" x="0" y="0" /><path d="M27.513918671756983, 29.111681133508682 m0.5810043588280678, -2.0335152745246887 l3.050273060798645, -3.776528537273407 3.050273060798645, -1.7430131137371063 l2.7597707509994507, -0.4357532784342766 2.7597707509994507, 0.14525108970701694 l4.938537180423737, 1.3072597980499268 4.793286025524139, 2.178766429424286 l3.4860262274742126, 2.178766429424286 5.08378803730011, 4.357532858848572 l2.0335152745246887, 3.3407750725746155 1.3072597980499268, 3.3407750725746155 l0.726255476474762, 9.731823205947876 -0.8715065568685532, 2.905021905899048 l-2.0335152745246887, 2.905021905899048 -3.3407750725746155, 2.324017435312271 l-11.329585313796997, 5.229039192199707 -4.648034870624542, 1.0167576372623444 l-3.4860262274742126, 0.14525108970701694 -3.1955239176750183, -0.5810043588280678 l-11.184333562850952, -4.067030549049377 -0.8715065568685532, -0.726255476474762 l-0.2905021794140339, -10.748580694198608 2.905021905899048, -12.491593360900879 l2.7597707509994507, -7.553057074546814 1.8882642686367035, -3.63127738237381 l1.7430131137371063, -2.0335152745246887 1.8882642686367035, -0.8715065568685532 m-18.737391233444214, 11.039083003997803 l1.452510952949524, -9.150818586349487 1.8882642686367035, -3.776528537273407 l2.905021905899048, -1.8882642686367035 3.9217793941497803, -1.452510952949524 l4.502783715724945, -0.4357532784342766 3.050273060798645, 0.2905021794140339 l3.9217793941497803, -4.793286025524139 4.357532858848572, -3.63127738237381 l2.6145195960998535, -0.726255476474762 3.63127738237381, 0.14525108970701694 l2.178766429424286, 0.8715065568685532 1.7430131137371063, 1.452510952949524 l1.0167576372623444, 1.1620087176561356 0.0, 1.1620087176561356 l-0.14525108970701694, 1.1620087176561356 -1.0167576372623444, 1.1620087176561356 l-4.357532858848572, 2.7597707509994507 0.2905021794140339, 0.8715065568685532 l14.670360088348389, 4.938537180423737 7.407805919647217, 3.63127738237381 l4.067030549049377, 2.7597707509994507 1.0167576372623444, 1.8882642686367035 l-0.14525108970701694, 1.3072597980499268 -4.067030549049377, 4.938537180423737 l-0.14525108970701694, 1.5977619588375092 6.2457966804504395, 2.6145195960998535 l1.1620087176561356, 1.5977619588375092 0.2905021794140339, 1.5977619588375092 l-0.2905021794140339, 2.324017435312271 -1.0167576372623444, 1.3072597980499268 l-4.793286025524139, 4.357532858848572 -2.905021905899048, 3.9217793941497803 l-4.502783715724945, 4.067030549049377 0.5810043588280678, 0.726255476474762 l5.519541501998901, 2.0335152745246887 0.5810043588280678, 0.726255476474762 l-6.681550145149231, 2.905021905899048 -4.357532858848572, 2.905021905899048 l2.178766429424286, 1.7430131137371063 1.7430131137371063, 3.3407750725746155 l-0.8715065568685532, 1.5977619588375092 -5.810043811798096, 4.357532858848572 l-2.178766429424286, 2.324017435312271 0.0, 2.0335152745246887 l0.5810043588280678, 1.0167576372623444 1.8882642686367035, 1.3072597980499268 l-0.14525108970701694, 0.726255476474762 -6.536298990249634, 2.324017435312271 l-13.363100290298462, 2.7597707509994507 -2.905021905899048, 1.0167576372623444 l0.726255476474762, 0.5810043588280678 -1.7430131137371063, -0.8715065568685532 l-3.050273060798645, -2.7597707509994507 -0.2905021794140339, -1.7430131137371063 l0.5810043588280678, -0.8715065568685532 2.7597707509994507, -1.8882642686367035 l5.229039192199707, -2.905021905899048 -0.8715065568685532, -0.726255476474762 l-5.08378803730011, -2.0335152745246887 1.1620087176561356, -1.452510952949524 l0.0, -0.8715065568685532 -7.26255476474762, -3.4860262274742126 l-0.14525108970701694, -2.905021905899048 -7.988809943199158, -0.2905021794140339 l-1.7430131137371063, -0.4357532784342766 -1.7430131137371063, -1.3072597980499268 l-0.2905021794140339, -5.374290347099304 -0.5810043588280678, -2.178766429424286 l-4.648034870624542, -7.8435587882995605 -2.324017435312271, -6.10054612159729 l-0.14525108970701694, -5.08378803730011 0.8715065568685532, -3.4860262274742126 l2.4692685902118683, -4.212281703948975 3.050273060798645, -3.1955239176750183 l1.452510952949524, -5.08378803730011 m19.6088969707489, 12.927347421646118 l0.14525108970701694, 1.452510952949524 m17.72063374519348, -3.4860262274742126 l0.0, 3.3407750725746155 m-11.039083003997803, 3.9217793941497803 l0.4357532784342766, 3.4860262274742126 -1.452510952949524, 4.502783715724945 l-1.452510952949524, 1.452510952949524 -1.7430131137371063, 0.8715065568685532 l-0.726255476474762, 0.0 -0.5810043588280678, -0.726255476474762 l-0.2905021794140339, -1.5977619588375092 " fill="none" stroke="black" stroke-width="1" /></svg>