<?xml version="1.0" encoding="utf-8" ?>
<svg baseProfile="full" height="100.05567751824856" version="1.1" width="131.57516363076866" xmlns="http://www.w3.org/2000/svg" xmlns:ev="http://www.w3.org/2001/xml-events" xmlns:xlink="http://www.w3.org/1999/xlink"><defs /><rect fill="white" height="100.05567751824856" width="131.57516363076866" x="0" y="0" /><path d="M55.983131704851985, 34.92172483354807 m0.14525108970701694, -6.826801300048828 l-1.7430131137371063, -4.502783715724945 -1.8882642686367035, -1.7430131137371063 l-4.938537180423737, 0.14525108970701694 -3.1955239176750183, 3.050273060798645 l-4.938537180423737, 6.2457966804504395 -2.4692685902118683, 6.972052454948425 l-0.726255476474762, 4.212281703948975 0.0, 12.34634280204773 l3.050273060798645, 10.312827825546265 1.8882642686367035, 2.4692685902118683 l4.648034870624542, 3.776528537273407 4.502783715724945, 1.7430131137371063 l4.502783715724945, 0.726255476474762 7.1173036098480225, 0.0 l15.832369327545166, -2.324017435312271 4.357532858848572, -0.8715065568685532 l8.279312252998352, -3.050273060798645 2.178766429424286, -1.7430131137371063 l3.4860262274742126, -4.502783715724945 2.4692685902118683, -5.810043811798096 l1.1620087176561356, -4.793286025524139 0.0, -8.42456340789795 l-0.726255476474762, -2.4692685902118683 -1.452510952949524, -2.4692685902118683 l-4.648034870624542, -4.067030549049377 -10.458078384399414, -3.776528537273407 l-2.324017435312271, 0.8715065568685532 -0.4357532784342766, -1.1620087176561356 l0.726255476474762, -3.776528537273407 -0.2905021794140339, -4.648034870624542 l-1.3072597980499268, -1.8882642686367035 -3.9217793941497803, -0.5810043588280678 l-6.681550145149231, -0.14525108970701694 -2.7597707509994507, 1.8882642686367035 l-2.0335152745246887, 5.374290347099304 -1.1620087176561356, 6.10054612159729 l-0.5810043588280678, 0.8715065568685532 -5.08378803730011, 3.776528537273407 m-4.067030549049377, -16.12287163734436 l0.2905021794140339, -2.7597707509994507 -3.9217793941497803, -5.519541501998901 l-4.938537180423737, -4.067030549049377 -4.502783715724945, -1.7430131137371063 l-6.391047835350037, -1.0167576372623444 -3.776528537273407, 0.0 l-7.988809943199158, 2.324017435312271 -3.63127738237381, 3.050273060798645 l-1.1620087176561356, 1.7430131137371063 -1.1620087176561356, 3.63127738237381 l-5.08378803730011, 7.407805919647217 -2.4692685902118683, 4.793286025524139 l-1.3072597980499268, 3.776528537273407 -0.8715065568685532, 5.08378803730011 l-0.5810043588280678, 3.4860262274742126 0.0, 3.776528537273407 l1.0167576372623444, 4.357532858848572 2.178766429424286, 5.374290347099304 l3.9217793941497803, 4.793286025524139 5.374290347099304, 4.212281703948975 l6.2457966804504395, 2.6145195960998535 6.681550145149231, 0.5810043588280678 l0.5810043588280678, -1.3072597980499268 -0.8715065568685532, -1.0167576372623444 l-1.452510952949524, 0.5810043588280678 -1.5977619588375092, 1.452510952949524 l-2.324017435312271, 3.63127738237381 -1.5977619588375092, 4.502783715724945 l0.14525108970701694, 5.6647926568984985 1.7430131137371063, 2.0335152745246887 l3.63127738237381, 2.6145195960998535 5.6647926568984985, 2.7597707509994507 l6.826801300048828, 2.324017435312271 5.6647926568984985, 1.3072597980499268 l5.6647926568984985, 0.4357532784342766 2.6145195960998535, 1.8882642686367035 l9.877074360847473, 1.5977619588375092 6.536298990249634, 0.5810043588280678 l7.26255476474762, 0.0 7.8435587882995605, -2.178766429424286 l4.938537180423737, -3.050273060798645 3.3407750725746155, -3.776528537273407 l2.4692685902118683, -5.229039192199707 1.1620087176561356, -4.502783715724945 l0.4357532784342766, -5.955294966697693 -0.2905021794140339, -1.3072597980499268 l-0.726255476474762, 0.4357532784342766 1.3072597980499268, 0.2905021794140339 l7.1173036098480225, -3.3407750725746155 7.1173036098480225, -4.648034870624542 l6.2457966804504395, -5.6647926568984985 3.9217793941497803, -6.681550145149231 l2.4692685902118683, -8.42456340789795 0.4357532784342766, -10.458078384399414 l-1.452510952949524, -2.324017435312271 -4.648034870624542, -2.178766429424286 l-3.1955239176750183, -0.5810043588280678 -7.553057074546814, 0.0 l-1.8882642686367035, 0.4357532784342766 2.905021905899048, -2.4692685902118683 l1.3072597980499268, -2.0335152745246887 0.726255476474762, -1.5977619588375092 l0.14525108970701694, -3.050273060798645 -1.1620087176561356, -1.5977619588375092 l-7.698307633399963, -4.212281703948975 -6.972052454948425, -2.324017435312271 l-7.988809943199158, -1.8882642686367035 -7.26255476474762, -1.0167576372623444 l-8.715065717697144, -0.14525108970701694 -2.178766429424286, 0.8715065568685532 l-4.067030549049377, 3.63127738237381 -0.726255476474762, 1.7430131137371063 l0.0, 1.5977619588375092 0.4357532784342766, 2.178766429424286 l1.5977619588375092, 0.726255476474762 5.519541501998901, 0.2905021794140339 l2.178766429424286, -1.0167576372623444 1.3072597980499268, -1.5977619588375092 l0.5810043588280678, -1.7430131137371063 0.0, -2.905021905899048 l-1.1620087176561356, -2.0335152745246887 -2.4692685902118683, -1.452510952949524 l-2.324017435312271, -0.5810043588280678 -10.603330135345459, 0.14525108970701694 l-15.106114149093628, 4.067030549049377 -3.1955239176750183, 1.5977619588375092 l-5.08378803730011, 3.63127738237381 -2.4692685902118683, 4.357532858848572 l-0.726255476474762, 3.1955239176750183 0.2905021794140339, 4.357532858848572 l1.1620087176561356, 1.7430131137371063 2.178766429424286, 1.7430131137371063 l5.955294966697693, 2.7597707509994507 m5.08378803730011, 7.553057074546814 l-0.5810043588280678, 3.63127738237381 2.0335152745246887, 0.14525108970701694 m21.497161388397217, -6.972052454948425 l-1.7430131137371063, 1.5977619588375092 0.0, 0.726255476474762 l0.8715065568685532, 0.4357532784342766 2.0335152745246887, -1.8882642686367035 m-10.893832445144653, 10.458078384399414 l-1.3072597980499268, 1.0167576372623444 0.2905021794140339, 0.726255476474762 l1.452510952949524, -0.14525108970701694 0.14525108970701694, -0.4357532784342766 m-0.2905021794140339, -0.8715065568685532 l-0.4357532784342766, 2.0335152745246887 0.0, 7.8435587882995605 l0.5810043588280678, 1.452510952949524 0.8715065568685532, 0.4357532784342766 l2.7597707509994507, -0.14525108970701694 2.4692685902118683, -3.9217793941497803 l0.5810043588280678, -2.324017435312271 m-7.1173036098480225, -4.357532858848572 l0.0, 3.776528537273407 -1.7430131137371063, 5.519541501998901 l-0.726255476474762, 4.212281703948975 -0.5810043588280678, 0.726255476474762 l-0.726255476474762, 0.14525108970701694 -0.4357532784342766, -0.4357532784342766 m-13.508352041244507, -31.664738655090332 l0.4357532784342766, -5.374290347099304 1.3072597980499268, -2.324017435312271 l2.178766429424286, 0.4357532784342766 0.8715065568685532, 2.4692685902118683 m16.8491268157959, 2.905021905899048 l1.0167576372623444, -1.0167576372623444 0.8715065568685532, -3.050273060798645 l1.0167576372623444, -1.5977619588375092 1.0167576372623444, 0.5810043588280678 l1.5977619588375092, 2.4692685902118683 " fill="none" stroke="black" stroke-width="1" /></svg>