<?xml version="1.0" encoding="utf-8" ?>
<svg baseProfile="full" height="92.21211781725287" version="1.1" width="96.71490242704749" xmlns="http://www.w3.org/2000/svg" xmlns:ev="http://www.w3.org/2001/xml-events" xmlns:xlink="http://www.w3.org/1999/xlink"><defs /><rect fill="white" height="92.21211781725287" width="96.71490242704749" x="0" y="0" /><path d="M46.68706476688385, 49.30158354341984 m1.452510952949524, 1.0167576372623444 l1.0167576372623444, 1.5977619588375092 -0.14525108970701694, 4.357532858848572 l-0.5810043588280678, 0.8715065568685532 -2.4692685902118683, 1.1620087176561356 l-3.9217793941497803, 0.14525108970701694 -3.3407750725746155, -2.324017435312271 l-1.7430131137371063, -2.6145195960998535 -0.5810043588280678, -1.7430131137371063 l0.0, -2.178766429424286 1.7430131137371063, -0.5810043588280678 m-2.0335152745246887, 14.379857778549194 l0.8715065568685532, 1.5977619588375092 1.5977619588375092, 0.5810043588280678 l12.491593360900879, 0.0 2.324017435312271, -1.3072597980499268 l3.3407750725746155, -4.067030549049377 1.452510952949524, -3.3407750725746155 l2.0335152745246887, -6.972052454948425 0.4357532784342766, -9.00556743144989 l-1.5977619588375092, -3.050273060798645 -2.4692685902118683, -2.7597707509994507 l-7.407805919647217, -5.374290347099304 -1.7430131137371063, -0.4357532784342766 l-7.407805919647217, 0.14525108970701694 -3.776528537273407, 1.452510952949524 l-6.681550145149231, 3.776528537273407 -2.905021905899048, 2.0335152745246887 l-1.452510952949524, 1.7430131137371063 -0.4357532784342766, 1.0167576372623444 l0.0, 8.42456340789795 1.1620087176561356, 5.374290347099304 l1.7430131137371063, 5.08378803730011 0.14525108970701694, 2.905021905899048 l1.3072597980499268, 2.324017435312271 1.7430131137371063, 1.3072597980499268 l7.553057074546814, 0.2905021794140339 m5.229039192199707, -52.145142555236816 l5.374290347099304, -5.229039192199707 2.178766429424286, -1.452510952949524 l3.050273060798645, -1.3072597980499268 3.050273060798645, 0.0 l1.5977619588375092, 1.5977619588375092 2.4692685902118683, 5.810043811798096 l1.0167576372623444, 5.955294966697693 0.0, 1.8882642686367035 l-0.5810043588280678, 0.726255476474762 3.4860262274742126, -0.726255476474762 l2.7597707509994507, 0.0 3.3407750725746155, 1.8882642686367035 l1.5977619588375092, 1.8882642686367035 1.3072597980499268, 3.1955239176750183 l0.2905021794140339, 9.00556743144989 1.8882642686367035, 2.0335152745246887 l1.5977619588375092, 5.810043811798096 1.3072597980499268, 2.324017435312271 l2.324017435312271, 1.5977619588375092 1.5977619588375092, 0.2905021794140339 l8.42456340789795, 0.2905021794140339 -4.212281703948975, 11.184333562850952 l-1.5977619588375092, 5.810043811798096 -2.324017435312271, 5.08378803730011 l0.8715065568685532, 0.2905021794140339 0.726255476474762, -0.4357532784342766 l-2.6145195960998535, 0.4357532784342766 -10.458078384399414, 5.810043811798096 l-0.726255476474762, 0.5810043588280678 -0.2905021794140339, 1.452510952949524 l1.5977619588375092, 0.5810043588280678 -0.14525108970701694, 0.8715065568685532 l-1.8882642686367035, 1.8882642686367035 -3.050273060798645, 2.0335152745246887 l-7.988809943199158, 2.324017435312271 -5.810043811798096, 0.726255476474762 l-5.810043811798096, 0.0 0.4357532784342766, -0.726255476474762 l-1.5977619588375092, -0.2905021794140339 -28.46921443939209, 0.0 l-0.5810043588280678, -0.726255476474762 0.14525108970701694, -0.726255476474762 l-0.726255476474762, -0.14525108970701694 -1.7430131137371063, 0.8715065568685532 l-5.810043811798096, 1.0167576372623444 -4.067030549049377, 0.0 l-0.5810043588280678, -0.726255476474762 0.726255476474762, -1.452510952949524 l4.793286025524139, -4.357532858848572 0.5810043588280678, -1.1620087176561356 l0.5810043588280678, -2.4692685902118683 0.0, -7.1173036098480225 l-1.8882642686367035, -1.0167576372623444 -0.4357532784342766, -2.6145195960998535 l0.4357532784342766, -2.0335152745246887 3.3407750725746155, -4.357532858848572 l0.14525108970701694, -0.726255476474762 -0.2905021794140339, -0.8715065568685532 l-3.050273060798645, -1.7430131137371063 -1.7430131137371063, -1.5977619588375092 l-1.7430131137371063, -5.08378803730011 0.0, -4.067030549049377 l6.2457966804504395, -7.407805919647217 0.726255476474762, -2.6145195960998535 l-0.726255476474762, -0.8715065568685532 -1.8882642686367035, -0.5810043588280678 l-0.2905021794140339, -1.7430131137371063 0.726255476474762, -1.7430131137371063 l3.4860262274742126, -4.648034870624542 2.0335152745246887, -4.067030549049377 l2.0335152745246887, -1.5977619588375092 -1.1620087176561356, -0.5810043588280678 l-4.938537180423737, 0.0 -4.502783715724945, -0.726255476474762 l-3.050273060798645, -1.1620087176561356 0.0, -0.8715065568685532 l3.4860262274742126, -1.7430131137371063 7.1173036098480225, -1.3072597980499268 l27.016704082489014, -0.2905021794140339 3.4860262274742126, -1.1620087176561356 " fill="none" stroke="black" stroke-width="1" /></svg>