<?xml version="1.0" encoding="utf-8" ?>
<svg baseProfile="full" height="40.64798032864928" version="1.1" width="44.569759434089065" xmlns="http://www.w3.org/2000/svg" xmlns:ev="http://www.w3.org/2001/xml-events" xmlns:xlink="http://www.w3.org/1999/xlink"><defs /><rect fill="white" height="40.64798032864928" width="44.569759434089065" x="0" y="0" /><path d="M11.826801402494311, 14.731824146583676 m-0.726255476474762, -1.452510952949524 l0.5810043588280678, -2.324017435312271 0.726255476474762, -0.8715065568685532 l3.9217793941497803, -1.8882642686367035 1.452510952949524, 0.2905021794140339 l1.7430131137371063, 1.8882642686367035 3.050273060798645, 1.7430131137371063 l0.726255476474762, 0.0 2.905021905899048, -1.7430131137371063 l2.4692685902118683, -0.5810043588280678 1.452510952949524, 0.0 l1.3072597980499268, 1.0167576372623444 0.14525108970701694, 4.793286025524139 l1.7430131137371063, 3.63127738237381 0.0, 1.452510952949524 l-1.3072597980499268, 3.1955239176750183 -2.178766429424286, 3.1955239176750183 l-1.452510952949524, 1.452510952949524 -4.793286025524139, 2.324017435312271 l-2.4692685902118683, 0.4357532784342766 -1.452510952949524, -0.4357532784342766 l-4.067030549049377, -2.7597707509994507 -1.8882642686367035, -2.178766429424286 l-1.7430131137371063, -2.7597707509994507 -0.726255476474762, -3.1955239176750183 l1.3072597980499268, -3.4860262274742126 m5.229039192199707, 0.726255476474762 l-0.726255476474762, 0.0 -0.2905021794140339, 0.726255476474762 l0.726255476474762, 0.4357532784342766 0.5810043588280678, -1.1620087176561356 m7.26255476474762, 0.726255476474762 l-0.726255476474762, 0.2905021794140339 -0.2905021794140339, 0.8715065568685532 l0.8715065568685532, 0.4357532784342766 0.5810043588280678, -0.726255476474762 l-0.14525108970701694, -0.726255476474762 -1.3072597980499268, -1.0167576372623444 m-7.553057074546814, 6.536298990249634 l0.14525108970701694, 0.726255476474762 1.3072597980499268, 1.1620087176561356 l0.726255476474762, -0.14525108970701694 1.5977619588375092, -1.452510952949524 l1.452510952949524, 1.3072597980499268 1.0167576372623444, 0.0 l2.0335152745246887, -1.452510952949524 m-6.536298990249634, 2.7597707509994507 l0.726255476474762, 0.0 0.8715065568685532, 1.3072597980499268 l0.5810043588280678, -0.726255476474762 2.7597707509994507, -1.1620087176561356 m-2.7597707509994507, -6.10054612159729 l0.0, 0.8715065568685532 m-3.9217793941497803, 0.2905021794140339 l-3.1955239176750183, -0.14525108970701694 m4.067030549049377, 0.8715065568685532 l-3.776528537273407, 0.726255476474762 m9.296069741249084, -0.726255476474762 l5.229039192199707, -0.726255476474762 m-5.810043811798096, 0.0 l2.6145195960998535, -0.4357532784342766 m-16.994377374649048, -5.229039192199707 l-1.5977619588375092, 1.452510952949524 -1.5977619588375092, 2.4692685902118683 l0.4357532784342766, 1.452510952949524 1.5977619588375092, 0.726255476474762 l0.14525108970701694, 1.0167576372623444 -0.8715065568685532, 3.050273060798645 l2.324017435312271, 3.3407750725746155 2.178766429424286, 1.7430131137371063 l2.6145195960998535, 1.7430131137371063 -0.2905021794140339, -1.7430131137371063 m4.648034870624542, -23.82117986679077 l3.3407750725746155, -1.5977619588375092 2.905021905899048, -0.14525108970701694 l1.5977619588375092, 0.726255476474762 2.6145195960998535, 0.2905021794140339 l3.9217793941497803, -1.0167576372623444 3.3407750725746155, 2.905021905899048 l2.6145195960998535, 0.8715065568685532 1.0167576372623444, 2.178766429424286 l0.4357532784342766, 10.458078384399414 -1.3072597980499268, 1.452510952949524 l-1.5977619588375092, 3.1955239176750183 -0.5810043588280678, 5.519541501998901 l-2.905021905899048, 2.178766429424286 -2.7597707509994507, 0.4357532784342766 l-3.4860262274742126, 1.452510952949524 " fill="none" stroke="black" stroke-width="1" /></svg>