<?xml version="1.0" encoding="utf-8" ?>
<svg baseProfile="full" height="47.18427957966924" version="1.1" width="49.653548151254654" xmlns="http://www.w3.org/2000/svg" xmlns:ev="http://www.w3.org/2001/xml-events" xmlns:xlink="http://www.w3.org/1999/xlink"><defs /><rect fill="white" height="47.18427957966924" width="49.653548151254654" x="0" y="0" /><path d="M22.72063333541155, 37.390993777662516 m-4.357532858848572, -2.324017435312271 l-0.5810043588280678, -2.4692685902118683 0.8715065568685532, -2.324017435312271 l-2.324017435312271, -5.955294966697693 1.1620087176561356, -2.4692685902118683 l1.1620087176561356, -0.4357532784342766 2.324017435312271, -2.0335152745246887 l3.1955239176750183, -1.452510952949524 3.050273060798645, -0.2905021794140339 l3.4860262274742126, 0.726255476474762 1.0167576372623444, 1.3072597980499268 l0.8715065568685532, 4.067030549049377 0.0, 3.3407750725746155 l-0.726255476474762, 2.178766429424286 0.2905021794140339, 4.357532858848572 l-0.726255476474762, 2.6145195960998535 -1.8882642686367035, 0.726255476474762 l-3.4860262274742126, -0.4357532784342766 -1.5977619588375092, 0.0 l-0.2905021794140339, 0.4357532784342766 m-6.391047835350037, -2.0335152745246887 l-8.42456340789795, -6.10054612159729 -4.357532858848572, -3.9217793941497803 l3.9217793941497803, 0.0 3.1955239176750183, 2.4692685902118683 l0.4357532784342766, -1.0167576372623444 -0.8715065568685532, -3.63127738237381 l-0.2905021794140339, -6.2457966804504395 0.2905021794140339, -0.726255476474762 l1.5977619588375092, 0.0 1.7430131137371063, 1.3072597980499268 l0.726255476474762, 0.0 2.905021905899048, -9.877074360847473 l1.3072597980499268, -1.7430131137371063 0.726255476474762, -0.4357532784342766 l2.0335152745246887, 0.0 2.4692685902118683, 0.4357532784342766 l1.7430131137371063, 0.8715065568685532 3.050273060798645, 0.2905021794140339 l4.067030549049377, 3.050273060798645 1.7430131137371063, 2.6145195960998535 l8.42456340789795, 1.7430131137371063 0.4357532784342766, 0.726255476474762 l-2.178766429424286, 4.502783715724945 -4.212281703948975, 4.648034870624542 l3.776528537273407, 0.726255476474762 0.4357532784342766, 0.726255476474762 l-1.0167576372623444, 0.8715065568685532 -0.726255476474762, 0.0 l1.3072597980499268, 8.715065717697144 0.14525108970701694, 6.681550145149231 l-0.726255476474762, 0.5810043588280678 -0.8715065568685532, -1.1620087176561356 l-1.1620087176561356, -4.502783715724945 0.726255476474762, 4.212281703948975 l-0.726255476474762, 0.4357532784342766 -4.212281703948975, 0.0 l-4.067030549049377, -1.7430131137371063 0.726255476474762, 0.4357532784342766 l0.0, 0.726255476474762 -1.1620087176561356, 0.0 l-3.3407750725746155, -1.0167576372623444 -1.8882642686367035, -1.1620087176561356 l-7.698307633399963, 2.324017435312271 -1.5977619588375092, 0.0 l1.5977619588375092, -2.4692685902118683 -0.8715065568685532, -0.5810043588280678 l-2.324017435312271, -0.14525108970701694 -1.452510952949524, -4.212281703948975 m9.296069741249084, -9.731823205947876 l0.0, 0.0 m-0.726255476474762, 0.0 l-0.4357532784342766, -0.8715065568685532 0.8715065568685532, -0.4357532784342766 l0.0, 0.8715065568685532 m7.553057074546814, 0.726255476474762 l0.0, 0.0 m-7.8435587882995605, 6.972052454948425 l0.14525108970701694, 0.726255476474762 1.5977619588375092, 1.3072597980499268 l2.178766429424286, 0.5810043588280678 2.178766429424286, -1.1620087176561356 l1.0167576372623444, -2.178766429424286 -0.726255476474762, 0.4357532784342766 m-5.6647926568984985, -0.14525108970701694 l0.8715065568685532, -0.5810043588280678 2.178766429424286, 0.0 l4.212281703948975, 2.324017435312271 m-5.955294966697693, -1.8882642686367035 l0.14525108970701694, 5.229039192199707 " fill="none" stroke="black" stroke-width="1" /></svg>