<?xml version="1.0" encoding="utf-8" ?>
<svg baseProfile="full" height="88.5808414593339" version="1.1" width="86.54732592403889" xmlns="http://www.w3.org/2000/svg" xmlns:ev="http://www.w3.org/2001/xml-events" xmlns:xlink="http://www.w3.org/1999/xlink"><defs /><rect fill="white" height="88.5808414593339" width="86.54732592403889" x="0" y="0" /><path d="M25.770907159894705, 33.17871111445129 m1.452510952949524, -2.6145195960998535 l2.6145195960998535, -2.178766429424286 3.4860262274742126, -1.7430131137371063 l4.067030549049377, -0.726255476474762 2.7597707509994507, 0.0 l2.7597707509994507, 1.0167576372623444 4.793286025524139, 3.63127738237381 l3.9217793941497803, 5.6647926568984985 1.1620087176561356, 3.050273060798645 l0.5810043588280678, 3.4860262274742126 0.14525108970701694, 7.407805919647217 l-0.4357532784342766, 3.1955239176750183 -1.452510952949524, 2.6145195960998535 l-1.8882642686367035, 2.0335152745246887 -2.4692685902118683, 1.5977619588375092 l-2.905021905899048, 1.0167576372623444 -6.972052454948425, 0.726255476474762 l-3.9217793941497803, -0.2905021794140339 -3.1955239176750183, -1.0167576372623444 l-4.648034870624542, -2.6145195960998535 -1.5977619588375092, -1.5977619588375092 l-2.6145195960998535, -3.9217793941497803 -0.8715065568685532, -2.7597707509994507 l-0.14525108970701694, -7.407805919647217 1.5977619588375092, -5.374290347099304 l3.1955239176750183, -3.9217793941497803 2.6145195960998535, -1.7430131137371063 m-0.2905021794140339, -18.301637172698975 l2.4692685902118683, -0.14525108970701694 2.905021905899048, -0.8715065568685532 l9.00556743144989, -5.6647926568984985 2.178766429424286, -0.726255476474762 l1.1620087176561356, 1.0167576372623444 4.212281703948975, 7.553057074546814 l1.5977619588375092, 1.0167576372623444 2.0335152745246887, 0.0 l5.519541501998901, -1.8882642686367035 2.6145195960998535, 0.2905021794140339 l3.3407750725746155, 3.4860262274742126 3.4860262274742126, 6.2457966804504395 l2.0335152745246887, 6.2457966804504395 0.5810043588280678, 5.374290347099304 l9.441320896148682, 18.44688892364502 1.452510952949524, 4.357532858848572 l-1.0167576372623444, 0.8715065568685532 -7.1173036098480225, -0.14525108970701694 l-1.0167576372623444, 0.5810043588280678 -0.726255476474762, 1.5977619588375092 l-0.4357532784342766, 7.407805919647217 -0.5810043588280678, 0.726255476474762 l-1.452510952949524, 0.4357532784342766 -2.4692685902118683, 0.14525108970701694 l-11.039083003997803, -3.4860262274742126 -5.229039192199707, -0.2905021794140339 l-1.5977619588375092, 1.1620087176561356 -0.8715065568685532, 2.178766429424286 l-1.0167576372623444, 7.553057074546814 -0.2905021794140339, 1.0167576372623444 l-0.726255476474762, 0.4357532784342766 -1.8882642686367035, 0.0 l-3.050273060798645, -1.1620087176561356 -6.681550145149231, -3.4860262274742126 l-0.726255476474762, 2.0335152745246887 0.5810043588280678, 8.86031687259674 l-3.050273060798645, -1.452510952949524 -6.10054612159729, -5.519541501998901 l-6.826801300048828, -10.748580694198608 -2.0335152745246887, -6.391047835350037 l-1.452510952949524, -2.6145195960998535 -9.441320896148682, -11.620087623596191 l-0.2905021794140339, 0.8715065568685532 3.3407750725746155, 3.050273060798645 l3.1955239176750183, 0.5810043588280678 0.8715065568685532, -1.3072597980499268 l0.5810043588280678, -2.4692685902118683 0.14525108970701694, -7.1173036098480225 l-0.8715065568685532, -4.067030549049377 -3.776528537273407, -9.296069741249084 l-0.2905021794140339, -2.6145195960998535 0.8715065568685532, -0.8715065568685532 l4.648034870624542, -1.3072597980499268 2.0335152745246887, -2.7597707509994507 l1.3072597980499268, -0.8715065568685532 3.1955239176750183, -0.8715065568685532 l3.3407750725746155, 0.0 -0.14525108970701694, -3.776528537273407 l1.0167576372623444, -0.5810043588280678 5.374290347099304, 1.5977619588375092 m-2.324017435312271, 26.58094882965088 l0.0, 0.0 " fill="none" stroke="black" stroke-width="1" /></svg>