<?xml version="1.0" encoding="utf-8" ?>
<svg baseProfile="full" height="68.53619047440588" version="1.1" width="44.71501083113253" xmlns="http://www.w3.org/2000/svg" xmlns:ev="http://www.w3.org/2001/xml-events" xmlns:xlink="http://www.w3.org/1999/xlink"><defs /><rect fill="white" height="68.53619047440588" width="44.71501083113253" x="0" y="0" /><path d="M10.955294743180275, 13.4245624858886 m-4.067030549049377, 8.279312252998352 l-1.1620087176561356, 4.212281703948975 -0.726255476474762, 5.519541501998901 l0.0, 0.8715065568685532 1.3072597980499268, -0.726255476474762 l3.4860262274742126, -4.502783715724945 0.14525108970701694, 1.1620087176561356 l-1.452510952949524, 15.977619886398315 0.2905021794140339, -1.8882642686367035 l1.0167576372623444, 2.324017435312271 2.0335152745246887, 11.910589933395386 l1.7430131137371063, -8.279312252998352 1.1620087176561356, -3.1955239176750183 l1.0167576372623444, 1.8882642686367035 2.7597707509994507, 13.508352041244507 l1.452510952949524, -5.229039192199707 0.2905021794140339, -0.5810043588280678 l0.8715065568685532, 0.0 2.0335152745246887, 2.7597707509994507 l3.1955239176750183, 6.10054612159729 0.5810043588280678, -3.1955239176750183 l0.726255476474762, -10.02232551574707 1.0167576372623444, 0.0 l4.938537180423737, 6.536298990249634 1.7430131137371063, 0.5810043588280678 l0.726255476474762, -1.3072597980499268 0.5810043588280678, -3.3407750725746155 l0.8715065568685532, -10.748580694198608 0.5810043588280678, 0.0 l1.5977619588375092, 2.178766429424286 0.0, -4.212281703948975 l-0.4357532784342766, -3.1955239176750183 -3.3407750725746155, -12.636845111846924 l-0.2905021794140339, -0.726255476474762 -0.5810043588280678, 0.5810043588280678 l-0.726255476474762, 2.905021905899048 -2.905021905899048, -9.441320896148682 l-2.6145195960998535, -5.955294966697693 -0.8715065568685532, -0.14525108970701694 l-1.3072597980499268, 3.1955239176750183 -0.726255476474762, 0.0 l-4.502783715724945, -6.681550145149231 -2.905021905899048, 6.2457966804504395 l-0.726255476474762, 0.0 -1.8882642686367035, -8.279312252998352 l-0.4357532784342766, -0.8715065568685532 -1.0167576372623444, 0.2905021794140339 l-4.067030549049377, 5.519541501998901 -0.5810043588280678, -0.5810043588280678 l-0.726255476474762, 1.8882642686367035 -0.726255476474762, 5.810043811798096 l0.2905021794140339, 2.6145195960998535 m5.955294966697693, 0.14525108970701694 l-1.3072597980499268, 5.374290347099304 -0.14525108970701694, 5.229039192199707 l1.5977619588375092, 6.10054612159729 1.452510952949524, 2.6145195960998535 l1.452510952949524, 1.452510952949524 3.3407750725746155, 1.8882642686367035 l1.5977619588375092, 0.2905021794140339 1.5977619588375092, -0.4357532784342766 l1.8882642686367035, -1.3072597980499268 1.7430131137371063, -2.0335152745246887 l1.452510952949524, -2.178766429424286 0.5810043588280678, -2.6145195960998535 l-0.5810043588280678, -3.9217793941497803 -1.452510952949524, -4.938537180423737 l-1.5977619588375092, -3.63127738237381 -2.324017435312271, -2.905021905899048 l-1.8882642686367035, -0.4357532784342766 -3.3407750725746155, 0.2905021794140339 l-3.050273060798645, 3.050273060798645 -1.1620087176561356, 2.178766429424286 m2.905021905899048, 1.5977619588375092 l-0.2905021794140339, 1.5977619588375092 0.14525108970701694, 0.726255476474762 l1.3072597980499268, 0.2905021794140339 0.5810043588280678, -0.8715065568685532 l-0.2905021794140339, -2.0335152745246887 m4.067030549049377, -0.14525108970701694 l1.0167576372623444, 1.7430131137371063 0.726255476474762, 0.14525108970701694 l0.726255476474762, -0.2905021794140339 0.4357532784342766, -0.8715065568685532 l-0.8715065568685532, -1.3072597980499268 -1.8882642686367035, -0.5810043588280678 m-5.229039192199707, 1.1620087176561356 l0.0, 0.0 " fill="none" stroke="black" stroke-width="1" /></svg>