<?xml version="1.0" encoding="utf-8" ?>
<svg baseProfile="full" height="55.02783928997815" version="1.1" width="54.73733678460121" xmlns="http://www.w3.org/2000/svg" xmlns:ev="http://www.w3.org/2001/xml-events" xmlns:xlink="http://www.w3.org/1999/xlink"><defs /><rect fill="white" height="55.02783928997815" width="54.73733678460121" x="0" y="0" /><path d="M33.033460676670074, 20.687118200585246 m-2.178766429424286, 0.5810043588280678 l-1.452510952949524, 2.324017435312271 1.7430131137371063, 9.441320896148682 l1.452510952949524, 2.4692685902118683 2.6145195960998535, 0.5810043588280678 l1.8882642686367035, -5.519541501998901 0.0, -3.9217793941497803 l-1.452510952949524, -2.178766429424286 -1.1620087176561356, -3.050273060798645 l-1.3072597980499268, -0.2905021794140339 m-9.150818586349487, 9.441320896148682 l-1.3072597980499268, -6.2457966804504395 -4.502783715724945, -11.620087623596191 l-0.4357532784342766, -1.7430131137371063 0.8715065568685532, -1.452510952949524 l4.793286025524139, -2.6145195960998535 8.569814562797546, -0.14525108970701694 l4.793286025524139, -0.726255476474762 3.3407750725746155, -1.0167576372623444 l2.324017435312271, 0.0 0.8715065568685532, 0.4357532784342766 l0.5810043588280678, 1.0167576372623444 2.0335152745246887, 5.955294966697693 l3.776528537273407, 16.413373947143555 -0.14525108970701694, 1.8882642686367035 l-1.1620087176561356, 2.905021905899048 -2.905021905899048, 4.212281703948975 l-1.7430131137371063, 1.7430131137371063 -5.6647926568984985, 1.3072597980499268 l-5.08378803730011, -0.8715065568685532 -3.1955239176750183, -1.1620087176561356 l-2.7597707509994507, -1.3072597980499268 -1.452510952949524, -1.452510952949524 l-2.4692685902118683, -4.938537180423737 0.0, -2.178766429424286 m0.0, 0.0 l-2.178766429424286, -0.14525108970701694 -6.536298990249634, 2.6145195960998535 l-2.6145195960998535, 1.8882642686367035 -2.178766429424286, 3.9217793941497803 l1.3072597980499268, 1.3072597980499268 1.7430131137371063, 0.726255476474762 l3.9217793941497803, 0.726255476474762 4.067030549049377, -1.0167576372623444 l4.212281703948975, -2.0335152745246887 2.0335152745246887, -1.5977619588375092 m-11.329585313796997, -0.726255476474762 l0.0, 0.0 m-6.10054612159729, 2.6145195960998535 l-1.452510952949524, 0.2905021794140339 -1.452510952949524, 2.324017435312271 l0.0, 0.726255476474762 1.1620087176561356, 1.5977619588375092 l0.14525108970701694, 2.178766429424286 -0.726255476474762, 2.6145195960998535 l-2.178766429424286, 3.050273060798645 m19.6088969707489, -12.927347421646118 l0.726255476474762, 3.3407750725746155 0.8715065568685532, 1.452510952949524 l2.178766429424286, 1.1620087176561356 1.0167576372623444, -0.8715065568685532 l0.2905021794140339, -1.1620087176561356 0.14525108970701694, -1.8882642686367035 l-3.1955239176750183, -0.726255476474762 m-10.02232551574707, 1.3072597980499268 l-0.726255476474762, 2.178766429424286 0.4357532784342766, 0.726255476474762 l1.7430131137371063, 0.5810043588280678 1.5977619588375092, -0.4357532784342766 l0.5810043588280678, -2.4692685902118683 -1.1620087176561356, -2.0335152745246887 " fill="none" stroke="black" stroke-width="1" /></svg>