<?xml version="1.0" encoding="utf-8" ?>
<svg baseProfile="full" height="63.88815582729876" version="1.1" width="102.81544816680253" xmlns="http://www.w3.org/2000/svg" xmlns:ev="http://www.w3.org/2001/xml-events" xmlns:xlink="http://www.w3.org/1999/xlink"><defs /><rect fill="white" height="63.88815582729876" width="102.81544816680253" x="0" y="0" /><path d="M27.0781662594527, 28.530677976086736 m31.374235153198242, 0.4357532784342766 l10.603330135345459, -1.1620087176561356 6.10054612159729, 0.0 l0.4357532784342766, 0.726255476474762 -0.14525108970701694, 10.458078384399414 l-2.0335152745246887, 0.726255476474762 -22.659170627593994, 3.4860262274742126 l-22.51391887664795, 0.726255476474762 -0.726255476474762, -0.726255476474762 l-0.726255476474762, -4.793286025524139 -1.3072597980499268, -4.648034870624542 l0.0, -3.9217793941497803 m2.324017435312271, 11.76533818244934 l-1.1620087176561356, 13.072597980499268 0.14525108970701694, 0.726255476474762 l2.6145195960998535, 1.7430131137371063 2.7597707509994507, 0.8715065568685532 l0.5810043588280678, -1.0167576372623444 1.1620087176561356, -9.441320896148682 l0.5810043588280678, -2.324017435312271 0.8715065568685532, -0.5810043588280678 m7.1173036098480225, -1.7430131137371063 l0.5810043588280678, 1.0167576372623444 -0.5810043588280678, 11.184333562850952 l1.7430131137371063, 1.452510952949524 2.6145195960998535, 0.4357532784342766 l0.726255476474762, -0.726255476474762 3.3407750725746155, -7.988809943199158 l0.8715065568685532, -3.9217793941497803 -0.2905021794140339, -1.7430131137371063 l-2.178766429424286, -2.324017435312271 m6.972052454948425, 2.0335152745246887 l0.14525108970701694, 4.648034870624542 -1.0167576372623444, 11.910589933395386 l7.553057074546814, -0.726255476474762 -1.1620087176561356, -8.134061098098755 l0.0, -13.217849731445312 m3.63127738237381, 1.8882642686367035 l0.726255476474762, 3.776528537273407 -0.2905021794140339, 11.184333562850952 l2.6145195960998535, 2.178766429424286 6.10054612159729, 2.905021905899048 l1.7430131137371063, -13.94410490989685 -0.14525108970701694, -6.2457966804504395 l-0.8715065568685532, -2.0335152745246887 m7.26255476474762, -14.379857778549194 l-1.8882642686367035, 0.726255476474762 -2.4692685902118683, 2.324017435312271 l-3.63127738237381, 4.502783715724945 -0.8715065568685532, 5.08378803730011 l0.4357532784342766, 2.4692685902118683 3.776528537273407, 5.08378803730011 l2.4692685902118683, 0.5810043588280678 2.905021905899048, -1.3072597980499268 l1.5977619588375092, -1.5977619588375092 1.452510952949524, -1.8882642686367035 l1.0167576372623444, -2.324017435312271 0.5810043588280678, -2.6145195960998535 l0.0, -3.3407750725746155 -1.1620087176561356, -7.698307633399963 l-1.452510952949524, -3.9217793941497803 -1.3072597980499268, -1.7430131137371063 l-2.324017435312271, -1.5977619588375092 -1.3072597980499268, -0.14525108970701694 m-7.553057074546814, 9.00556743144989 l1.0167576372623444, -11.910589933395386 2.178766429424286, -5.229039192199707 l1.452510952949524, 2.905021905899048 2.6145195960998535, 3.1955239176750183 l2.0335152745246887, -0.4357532784342766 6.2457966804504395, -7.26255476474762 l1.3072597980499268, 8.42456340789795 0.5810043588280678, 0.8715065568685532 l1.5977619588375092, 0.5810043588280678 2.0335152745246887, -0.5810043588280678 l-0.4357532784342766, 7.698307633399963 0.2905021794140339, 1.5977619588375092 l2.905021905899048, 2.4692685902118683 0.4357532784342766, 2.0335152745246887 l-3.776528537273407, 5.6647926568984985 0.4357532784342766, 1.1620087176561356 l2.7597707509994507, 2.6145195960998535 1.3072597980499268, 3.3407750725746155 l-0.14525108970701694, 0.8715065568685532 -4.793286025524139, 6.2457966804504395 l-1.1620087176561356, 2.324017435312271 -3.4860262274742126, 3.1955239176750183 l-0.8715065568685532, 0.2905021794140339 -1.3072597980499268, -0.2905021794140339 l-5.519541501998901, -4.502783715724945 -1.1620087176561356, 1.7430131137371063 l-0.8715065568685532, 0.4357532784342766 -0.8715065568685532, 0.0 l-0.726255476474762, -0.726255476474762 -6.391047835350037, -16.994377374649048 l-3.050273060798645, 0.726255476474762 -4.357532858848572, -4.938537180423737 l-0.726255476474762, -1.452510952949524 3.9217793941497803, -7.8435587882995605 l-1.452510952949524, -2.4692685902118683 -0.4357532784342766, -2.324017435312271 l0.2905021794140339, -4.938537180423737 0.726255476474762, -1.452510952949524 l0.726255476474762, -0.5810043588280678 1.7430131137371063, -0.14525108970701694 l6.681550145149231, 0.4357532784342766 m7.1173036098480225, 23.094923496246338 l1.1620087176561356, 2.6145195960998535 0.4357532784342766, -0.726255476474762 l0.0, -2.0335152745246887 m-57.37418174743652, -0.14525108970701694 l-4.357532858848572, -1.7430131137371063 -3.3407750725746155, -2.324017435312271 l-2.0335152745246887, -1.5977619588375092 -5.229039192199707, -5.810043811798096 l-2.324017435312271, -3.1955239176750183 -1.0167576372623444, -2.6145195960998535 l-0.2905021794140339, -1.1620087176561356 0.726255476474762, 0.2905021794140339 l0.0, -0.8715065568685532 -1.0167576372623444, -5.08378803730011 l-0.726255476474762, 2.324017435312271 -0.726255476474762, -0.5810043588280678 l-0.5810043588280678, 1.7430131137371063 0.2905021794140339, 1.7430131137371063 l0.2905021794140339, -1.0167576372623444 1.8882642686367035, 2.178766429424286 l-2.0335152745246887, -3.4860262274742126 -0.14525108970701694, 1.0167576372623444 l0.0, -2.905021905899048 0.2905021794140339, 0.8715065568685532 l0.4357532784342766, -3.4860262274742126 0.4357532784342766, 3.63127738237381 l-0.726255476474762, -0.4357532784342766 -0.4357532784342766, 3.050273060798645 l0.726255476474762, -0.726255476474762 0.0, -0.8715065568685532 l0.8715065568685532, 0.726255476474762 0.0, -0.726255476474762 l1.5977619588375092, 2.4692685902118683 0.4357532784342766, -5.519541501998901 m69.57527160644531, 20.916156768798828 l-0.14525108970701694, -0.726255476474762 -0.726255476474762, -0.14525108970701694 l0.2905021794140339, 0.8715065568685532 0.726255476474762, 0.2905021794140339 " fill="none" stroke="black" stroke-width="1" /></svg>