<?xml version="1.0" encoding="utf-8" ?>
<svg baseProfile="full" height="65.34066776745021" version="1.1" width="120.2455781120807" xmlns="http://www.w3.org/2000/svg" xmlns:ev="http://www.w3.org/2001/xml-events" xmlns:xlink="http://www.w3.org/1999/xlink"><defs /><rect fill="white" height="65.34066776745021" width="120.2455781120807" x="0" y="0" /><path d="M78.78755417652428, 13.569816434755921 m6.391047835350037, -0.726255476474762 l12.636845111846924, -0.14525108970701694 1.0167576372623444, 1.452510952949524 l0.0, 3.9217793941497803 -1.5977619588375092, 4.357532858848572 l-1.3072597980499268, 6.391047835350037 -1.0167576372623444, 1.452510952949524 l-6.536298990249634, 3.9217793941497803 -2.6145195960998535, 2.324017435312271 m-8.279312252998352, -23.240175247192383 l0.726255476474762, 4.938537180423737 3.3407750725746155, 11.329585313796997 l2.4692685902118683, 3.1955239176750183 3.050273060798645, 2.0335152745246887 m-6.10054612159729, -23.385426998138428 l5.229039192199707, -2.905021905899048 9.586572051048279, -3.4860262274742126 m-9.150818586349487, 4.357532858848572 l3.3407750725746155, 0.0 7.698307633399963, -1.0167576372623444 m-4.793286025524139, 3.9217793941497803 l14.379857778549194, -0.8715065568685532 -2.324017435312271, 1.452510952949524 l-7.1173036098480225, 2.178766429424286 -1.3072597980499268, 1.452510952949524 l18.737391233444214, 0.4357532784342766 -1.1620087176561356, 1.3072597980499268 l-6.826801300048828, 3.050273060798645 -2.324017435312271, 0.4357532784342766 l-6.536298990249634, 3.050273060798645 1.3072597980499268, 0.8715065568685532 l7.407805919647217, 1.0167576372623444 0.0, 0.726255476474762 l-1.3072597980499268, 0.726255476474762 -6.826801300048828, 2.4692685902118683 l1.0167576372623444, 0.4357532784342766 6.391047835350037, 0.0 l-1.8882642686367035, 0.726255476474762 m-13.217849731445312, -20.770905017852783 l-18.301637172698975, 0.0 6.10054612159729, -1.0167576372623444 l-8.569814562797546, 2.178766429424286 3.63127738237381, 0.8715065568685532 l-0.5810043588280678, 0.8715065568685532 -6.972052454948425, 1.8882642686367035 l0.726255476474762, 1.452510952949524 -0.5810043588280678, 0.726255476474762 l-5.08378803730011, 3.050273060798645 -0.726255476474762, 0.5810043588280678 l-0.14525108970701694, 0.8715065568685532 0.4357532784342766, 0.8715065568685532 l3.1955239176750183, 0.8715065568685532 4.648034870624542, 0.2905021794140339 l-4.793286025524139, 1.452510952949524 -0.726255476474762, 0.5810043588280678 l2.0335152745246887, 1.1620087176561356 16.703875064849854, 1.7430131137371063 l3.1955239176750183, 0.726255476474762 -0.4357532784342766, 0.726255476474762 l-1.0167576372623444, 0.2905021794140339 -11.329585313796997, 1.8882642686367035 l2.905021905899048, 1.0167576372623444 2.7597707509994507, 0.2905021794140339 l-2.178766429424286, 1.0167576372623444 1.5977619588375092, 0.8715065568685532 l6.10054612159729, 0.8715065568685532 -0.5810043588280678, 0.726255476474762 l3.050273060798645, 1.0167576372623444 1.8882642686367035, 0.14525108970701694 l-0.8715065568685532, 0.14525108970701694 m-12.491593360900879, -22.659170627593994 l-2.324017435312271, 0.8715065568685532 -3.3407750725746155, 0.2905021794140339 l-26.87145233154297, 0.14525108970701694 -11.620087623596191, 0.8715065568685532 l-16.703875064849854, 2.324017435312271 -5.519541501998901, 1.5977619588375092 l-2.324017435312271, 1.1620087176561356 -1.1620087176561356, 2.0335152745246887 l0.0, 1.7430131137371063 0.4357532784342766, 0.726255476474762 l2.905021905899048, 2.905021905899048 6.2457966804504395, 2.905021905899048 l5.229039192199707, 1.3072597980499268 10.893832445144653, 2.0335152745246887 l19.318394660949707, 2.7597707509994507 20.480403900146484, 0.4357532784342766 l4.212281703948975, -0.5810043588280678 1.5977619588375092, -0.8715065568685532 l1.7430131137371063, -1.5977619588375092 0.8715065568685532, -3.4860262274742126 l-0.14525108970701694, -3.9217793941497803 -0.8715065568685532, -2.178766429424286 l-2.7597707509994507, -3.63127738237381 -1.452510952949524, -0.726255476474762 m-49.38537120819092, 16.703875064849854 l1.7430131137371063, 12.34634280204773 0.726255476474762, 1.5977619588375092 m10.603330135345459, -18.59213948249817 l1.8882642686367035, 5.6647926568984985 4.793286025524139, 10.893832445144653 l2.178766429424286, 3.63127738237381 1.3072597980499268, -0.4357532784342766 m16.413373947143555, -14.379857778549194 l6.10054612159729, 10.458078384399414 2.7597707509994507, 6.10054612159729 l0.8715065568685532, 0.0 0.2905021794140339, -4.212281703948975 m1.3072597980499268, -15.832369327545166 l4.067030549049377, 9.150818586349487 7.1173036098480225, 12.055840492248535 l0.2905021794140339, 1.5977619588375092 " fill="none" stroke="black" stroke-width="1" /></svg>