<?xml version="1.0" encoding="utf-8" ?>
<svg baseProfile="full" height="56.18984781205654" version="1.1" width="49.50829654932022" xmlns="http://www.w3.org/2000/svg" xmlns:ev="http://www.w3.org/2001/xml-events" xmlns:xlink="http://www.w3.org/1999/xlink"><defs /><rect fill="white" height="56.18984781205654" width="49.50829654932022" x="0" y="0" /><path d="M24.754147715866566, 18.072598706930876 m-3.1955239176750183, -0.8715065568685532 l-3.4860262274742126, 0.5810043588280678 -1.7430131137371063, 1.0167576372623444 l-2.7597707509994507, 2.6145195960998535 -0.8715065568685532, 3.050273060798645 l0.5810043588280678, 3.4860262274742126 0.726255476474762, 1.5977619588375092 l1.7430131137371063, 2.0335152745246887 1.8882642686367035, 0.8715065568685532 l4.502783715724945, 0.14525108970701694 2.7597707509994507, -1.452510952949524 l1.1620087176561356, -1.0167576372623444 1.3072597980499268, -2.178766429424286 l1.1620087176561356, -2.905021905899048 0.8715065568685532, -5.6647926568984985 l-0.4357532784342766, -1.1620087176561356 -1.0167576372623444, -0.8715065568685532 l-3.1955239176750183, -0.5810043588280678 m-12.927347421646118, -6.2457966804504395 l-0.4357532784342766, -1.7430131137371063 0.5810043588280678, -2.324017435312271 l0.726255476474762, -0.14525108970701694 2.0335152745246887, 3.9217793941497803 l1.8882642686367035, 2.324017435312271 2.7597707509994507, -7.407805919647217 l0.726255476474762, 0.2905021794140339 1.0167576372623444, 1.5977619588375092 l2.0335152745246887, 1.7430131137371063 2.0335152745246887, -3.776528537273407 l0.726255476474762, 0.0 1.452510952949524, 7.26255476474762 l5.519541501998901, -6.10054612159729 0.2905021794140339, 4.938537180423737 l0.8715065568685532, 1.8882642686367035 2.0335152745246887, -0.2905021794140339 l1.8882642686367035, -1.5977619588375092 0.2905021794140339, 1.452510952949524 l-0.8715065568685532, 3.050273060798645 3.776528537273407, 0.2905021794140339 l1.8882642686367035, -0.726255476474762 -5.08378803730011, 5.810043811798096 l-0.8715065568685532, 2.0335152745246887 0.726255476474762, 0.4357532784342766 l6.681550145149231, -2.4692685902118683 -1.5977619588375092, 3.63127738237381 l-3.3407750725746155, 5.519541501998901 -0.4357532784342766, 2.905021905899048 l0.726255476474762, 0.4357532784342766 0.2905021794140339, -0.726255476474762 l-1.0167576372623444, 0.0 -1.7430131137371063, 1.5977619588375092 l-3.776528537273407, 5.374290347099304 -3.3407750725746155, 6.536298990249634 l2.324017435312271, -3.1955239176750183 0.5810043588280678, -2.7597707509994507 l-2.178766429424286, 1.452510952949524 -2.324017435312271, 3.4860262274742126 l-2.6145195960998535, 5.955294966697693 -0.5810043588280678, -6.681550145149231 l-5.229039192199707, 0.14525108970701694 -5.229039192199707, 4.212281703948975 l0.4357532784342766, -8.569814562797546 -2.0335152745246887, -0.726255476474762 l-5.08378803730011, 1.3072597980499268 -1.0167576372623444, -5.519541501998901 l-0.2905021794140339, -9.150818586349487 -2.0335152745246887, 0.4357532784342766 l5.08378803730011, -15.396615266799927 3.3407750725746155, -4.502783715724945 m4.212281703948975, 14.379857778549194 l0.726255476474762, -0.4357532784342766 -0.5810043588280678, 0.726255476474762 " fill="none" stroke="black" stroke-width="1" /></svg>