<?xml version="1.0" encoding="utf-8" ?>
<svg baseProfile="full" height="68.82669238373637" version="1.1" width="68.82669283077121" xmlns="http://www.w3.org/2000/svg" xmlns:ev="http://www.w3.org/2001/xml-events" xmlns:xlink="http://www.w3.org/1999/xlink"><defs /><rect fill="white" height="68.82669238373637" width="68.82669283077121" x="0" y="0" /><path d="M37.24574312567711, 21.84912650845945 m-3.050273060798645, -1.452510952949524 l-2.905021905899048, -0.726255476474762 -3.1955239176750183, 0.14525108970701694 l-7.988809943199158, 3.3407750725746155 -2.0335152745246887, 1.5977619588375092 l-2.6145195960998535, 4.648034870624542 -0.726255476474762, 5.519541501998901 l0.14525108970701694, 2.7597707509994507 9.00556743144989, 14.670360088348389 l0.726255476474762, 0.8715065568685532 1.5977619588375092, 0.4357532784342766 l9.150818586349487, -0.5810043588280678 2.324017435312271, -1.0167576372623444 l3.050273060798645, -2.7597707509994507 2.905021905899048, -4.648034870624542 l1.0167576372623444, -4.793286025524139 -1.0167576372623444, -9.296069741249084 l-2.0335152745246887, -5.374290347099304 -1.0167576372623444, -1.1620087176561356 l-4.502783715724945, -2.324017435312271 m-23.094923496246338, -0.726255476474762 l-0.5810043588280678, -3.9217793941497803 0.5810043588280678, -3.9217793941497803 l3.4860262274742126, -8.134061098098755 1.452510952949524, 4.067030549049377 l1.1620087176561356, 1.3072597980499268 1.8882642686367035, -0.14525108970701694 l7.698307633399963, -2.324017435312271 0.726255476474762, 0.14525108970701694 l0.5810043588280678, 1.5977619588375092 -0.2905021794140339, 2.905021905899048 l3.63127738237381, -1.0167576372623444 3.050273060798645, -0.2905021794140339 l3.9217793941497803, 0.0 2.178766429424286, 0.726255476474762 l-0.14525108970701694, 1.452510952949524 -1.3072597980499268, 3.050273060798645 l0.8715065568685532, 0.4357532784342766 10.458078384399414, -0.4357532784342766 l-0.4357532784342766, 3.1955239176750183 2.6145195960998535, 1.0167576372623444 l5.810043811798096, 0.5810043588280678 1.1620087176561356, 1.1620087176561356 l-2.905021905899048, 8.134061098098755 0.0, 0.8715065568685532 l2.7597707509994507, 1.1620087176561356 0.14525108970701694, 0.726255476474762 l-4.212281703948975, 4.357532858848572 -1.3072597980499268, 1.7430131137371063 l-0.14525108970701694, 0.8715065568685532 1.3072597980499268, 0.4357532784342766 l4.212281703948975, 0.0 2.4692685902118683, 0.726255476474762 l-0.5810043588280678, 0.8715065568685532 -5.955294966697693, 4.357532858848572 l-4.793286025524139, 4.648034870624542 -1.1620087176561356, -0.14525108970701694 l-5.08378803730011, 1.7430131137371063 -5.810043811798096, 2.7597707509994507 l-1.8882642686367035, 1.452510952949524 -0.2905021794140339, 2.324017435312271 l1.3072597980499268, 1.5977619588375092 -2.178766429424286, 0.8715065568685532 l-7.553057074546814, 1.7430131137371063 -2.4692685902118683, 0.14525108970701694 l-1.0167576372623444, -1.8882642686367035 -4.212281703948975, -4.357532858848572 l-2.0335152745246887, -1.7430131137371063 -1.7430131137371063, -0.4357532784342766 l-3.9217793941497803, 1.5977619588375092 -1.3072597980499268, 1.1620087176561356 l-0.726255476474762, -7.698307633399963 -0.726255476474762, -3.1955239176750183 l-0.5810043588280678, -0.726255476474762 -2.4692685902118683, 2.905021905899048 l-0.726255476474762, 0.4357532784342766 -0.5810043588280678, -0.726255476474762 l-1.452510952949524, -7.553057074546814 -0.8715065568685532, -9.150818586349487 l0.8715065568685532, -8.86031687259674 0.726255476474762, -1.8882642686367035 l-0.2905021794140339, -0.726255476474762 6.10054612159729, -7.26255476474762 l0.2905021794140339, 1.452510952949524 " fill="none" stroke="black" stroke-width="1" /></svg>