<?xml version="1.0" encoding="utf-8" ?>
<svg baseProfile="full" height="79.86577545292675" version="1.1" width="116.17854905314744" xmlns="http://www.w3.org/2000/svg" xmlns:ev="http://www.w3.org/2001/xml-events" xmlns:xlink="http://www.w3.org/1999/xlink"><defs /><rect fill="white" height="79.86577545292675" width="116.17854905314744" x="0" y="0" /><path d="M47.558569898828864, 19.960862873122096 m-8.279312252998352, -1.8882642686367035 l-5.229039192199707, 0.0 -2.0335152745246887, 0.5810043588280678 l-2.4692685902118683, 1.452510952949524 -3.63127738237381, 3.3407750725746155 l-1.1620087176561356, 2.4692685902118683 -0.5810043588280678, 2.905021905899048 l0.0, 4.938537180423737 0.726255476474762, 3.050273060798645 l2.6145195960998535, 4.357532858848572 2.0335152745246887, 2.178766429424286 l2.905021905899048, 2.0335152745246887 10.312827825546265, 6.2457966804504395 l12.782095670700073, 4.502783715724945 9.586572051048279, 0.14525108970701694 l3.3407750725746155, -2.178766429424286 1.0167576372623444, -3.3407750725746155 l0.4357532784342766, -8.279312252998352 -0.5810043588280678, -1.8882642686367035 l-3.050273060798645, -5.229039192199707 -5.6647926568984985, -5.955294966697693 l-2.905021905899048, -3.776528537273407 -3.4860262274742126, -3.050273060798645 l-7.1173036098480225, -2.905021905899048 m-20.33515214920044, -14.670360088348389 l-8.134061098098755, 3.776528537273407 -2.905021905899048, 2.6145195960998535 l-0.5810043588280678, 3.4860262274742126 2.324017435312271, 0.5810043588280678 l3.63127738237381, 0.0 2.0335152745246887, -0.5810043588280678 l-4.793286025524139, 2.4692685902118683 -6.972052454948425, 4.793286025524139 l-3.3407750725746155, 3.9217793941497803 -1.452510952949524, 3.3407750725746155 l1.3072597980499268, 0.14525108970701694 5.6647926568984985, -1.8882642686367035 l0.14525108970701694, 2.905021905899048 -2.178766429424286, 5.374290347099304 l-4.357532858848572, 7.1173036098480225 -2.178766429424286, 5.519541501998901 l1.452510952949524, 0.4357532784342766 5.519541501998901, -2.905021905899048 l0.14525108970701694, 1.3072597980499268 -3.63127738237381, 5.6647926568984985 l3.63127738237381, -0.2905021794140339 0.726255476474762, 0.14525108970701694 l0.726255476474762, 0.8715065568685532 0.4357532784342766, 1.8882642686367035 l-0.4357532784342766, 4.357532858848572 4.067030549049377, -1.5977619588375092 l1.7430131137371063, 0.4357532784342766 1.1620087176561356, 6.972052454948425 l0.726255476474762, 1.8882642686367035 1.7430131137371063, 0.14525108970701694 l2.6145195960998535, -2.178766429424286 1.1620087176561356, 0.726255476474762 l2.324017435312271, 2.905021905899048 1.3072597980499268, 0.4357532784342766 l3.63127738237381, 0.0 4.067030549049377, -1.3072597980499268 l2.178766429424286, -1.452510952949524 3.3407750725746155, 4.793286025524139 l2.7597707509994507, 0.726255476474762 6.826801300048828, -0.4357532784342766 l5.229039192199707, -1.8882642686367035 1.8882642686367035, -1.1620087176561356 l1.452510952949524, 3.1955239176750183 1.7430131137371063, 2.0335152745246887 l1.452510952949524, 0.5810043588280678 4.212281703948975, 0.0 l7.407805919647217, -2.0335152745246887 5.374290347099304, -2.7597707509994507 l1.0167576372623444, -1.0167576372623444 1.3072597980499268, 1.1620087176561356 l2.6145195960998535, 0.2905021794140339 4.212281703948975, 0.0 l5.955294966697693, -1.1620087176561356 10.893832445144653, -4.938537180423737 l2.6145195960998535, -2.7597707509994507 0.5810043588280678, -3.1955239176750183 l-1.8882642686367035, -3.9217793941497803 -5.6647926568984985, -4.938537180423737 l-2.905021905899048, -1.8882642686367035 1.3072597980499268, -4.067030549049377 l0.0, -3.1955239176750183 -0.8715065568685532, -2.178766429424286 l-4.793286025524139, -4.067030549049377 -4.357532858848572, -2.7597707509994507 l-5.374290347099304, -2.178766429424286 -4.212281703948975, -1.0167576372623444 l1.1620087176561356, -3.1955239176750183 -0.14525108970701694, -0.726255476474762 l-1.0167576372623444, -0.8715065568685532 -3.4860262274742126, -1.5977619588375092 l-5.08378803730011, -0.5810043588280678 1.7430131137371063, -3.050273060798645 l0.2905021794140339, -1.7430131137371063 -0.726255476474762, -0.8715065568685532 l-3.050273060798645, -0.8715065568685532 -7.8435587882995605, -0.2905021794140339 l0.2905021794140339, -1.8882642686367035 -2.178766429424286, -0.726255476474762 l-4.357532858848572, -1.1620087176561356 -14.379857778549194, -2.0335152745246887 l-1.0167576372623444, -0.2905021794140339 0.14525108970701694, -0.8715065568685532 l-0.8715065568685532, -0.4357532784342766 -6.10054612159729, -1.452510952949524 l-4.938537180423737, -0.5810043588280678 -2.4692685902118683, 0.4357532784342766 l-2.178766429424286, 1.1620087176561356 m9.586572051048279, 17.284879684448242 l-0.5810043588280678, 1.452510952949524 0.14525108970701694, 1.7430131137371063 l0.8715065568685532, 0.2905021794140339 0.8715065568685532, -0.5810043588280678 l0.2905021794140339, -2.7597707509994507 -1.1620087176561356, -0.8715065568685532 m12.34634280204773, 5.519541501998901 l-1.1620087176561356, -0.14525108970701694 0.0, 2.7597707509994507 l1.1620087176561356, 0.4357532784342766 1.7430131137371063, -2.178766429424286 m-8.134061098098755, 3.1955239176750183 l-0.8715065568685532, 2.905021905899048 " fill="none" stroke="black" stroke-width="1" /></svg>