<?xml version="1.0" encoding="utf-8" ?>
<svg baseProfile="full" height="70.27920359745622" version="1.1" width="81.02778445929289" xmlns="http://www.w3.org/2000/svg" xmlns:ev="http://www.w3.org/2001/xml-events" xmlns:xlink="http://www.w3.org/1999/xlink"><defs /><rect fill="white" height="70.27920359745622" width="81.02778445929289" x="0" y="0" /><path d="M47.99432346597314, 8.19552406668663 m-2.6145195960998535, -1.452510952949524 l-9.00556743144989, -1.7430131137371063 -5.229039192199707, 0.14525108970701694 l-2.324017435312271, 0.5810043588280678 -5.519541501998901, 2.4692685902118683 l-4.793286025524139, 3.3407750725746155 -3.050273060798645, 3.4860262274742126 l-2.4692685902118683, 4.212281703948975 -1.3072597980499268, 3.9217793941497803 l-0.5810043588280678, 6.2457966804504395 0.4357532784342766, 3.4860262274742126 l2.0335152745246887, 5.229039192199707 2.178766429424286, 3.4860262274742126 l2.6145195960998535, 2.4692685902118683 4.793286025524139, 3.050273060798645 l4.648034870624542, 1.452510952949524 5.6647926568984985, 0.4357532784342766 l5.810043811798096, -0.726255476474762 7.8435587882995605, -1.7430131137371063 l7.988809943199158, -3.4860262274742126 4.502783715724945, -3.4860262274742126 l2.178766429424286, -2.324017435312271 1.0167576372623444, -1.5977619588375092 l1.1620087176561356, -3.4860262274742126 0.2905021794140339, -5.08378803730011 l-1.452510952949524, -7.553057074546814 -2.324017435312271, -5.229039192199707 l-3.4860262274742126, -5.229039192199707 -3.050273060798645, -2.0335152745246887 l-4.938537180423737, -1.3072597980499268 -3.1955239176750183, 0.0 l-4.067030549049377, 0.8715065568685532 m-36.31277322769165, 20.04465103149414 l0.4357532784342766, 3.3407750725746155 -0.8715065568685532, 8.134061098098755 l0.726255476474762, 0.5810043588280678 5.374290347099304, -0.14525108970701694 l0.8715065568685532, 0.726255476474762 0.8715065568685532, 2.178766429424286 l-0.5810043588280678, 6.10054612159729 -1.5977619588375092, 6.972052454948425 l0.726255476474762, 2.7597707509994507 0.8715065568685532, 0.2905021794140339 l1.8882642686367035, -0.5810043588280678 6.681550145149231, -5.519541501998901 l0.726255476474762, 0.5810043588280678 0.2905021794140339, 1.1620087176561356 l0.0, 10.748580694198608 0.14525108970701694, 0.8715065568685532 l0.8715065568685532, 0.4357532784342766 4.938537180423737, -7.553057074546814 l0.726255476474762, -0.8715065568685532 0.726255476474762, -0.14525108970701694 l0.726255476474762, 0.0 1.8882642686367035, 1.452510952949524 l4.357532858848572, 5.810043811798096 2.0335152745246887, 1.3072597980499268 l0.8715065568685532, -0.14525108970701694 1.1620087176561356, -1.7430131137371063 l1.0167576372623444, -5.810043811798096 1.452510952949524, -0.5810043588280678 l3.4860262274742126, 1.7430131137371063 5.810043811798096, 4.067030549049377 l4.793286025524139, 1.452510952949524 1.452510952949524, -0.8715065568685532 l0.8715065568685532, -1.7430131137371063 0.14525108970701694, -7.698307633399963 l1.7430131137371063, 0.2905021794140339 6.972052454948425, 4.938537180423737 l0.8715065568685532, 0.0 0.4357532784342766, -0.726255476474762 l0.0, -4.357532858848572 -2.905021905899048, -8.279312252998352 l1.452510952949524, -0.5810043588280678 6.681550145149231, 1.0167576372623444 l1.452510952949524, -1.0167576372623444 -1.0167576372623444, -2.4692685902118683 l-7.407805919647217, -9.00556743144989 2.178766429424286, -0.8715065568685532 l0.0, -1.5977619588375092 -0.8715065568685532, -2.324017435312271 l-4.357532858848572, -6.681550145149231 0.726255476474762, 0.8715065568685532 l-0.14525108970701694, -1.1620087176561356 -1.8882642686367035, -2.6145195960998535 l-4.067030549049377, -2.7597707509994507 m-53.597655296325684, 11.039083003997803 l6.681550145149231, -7.698307633399963 1.5977619588375092, -0.2905021794140339 l1.5977619588375092, 1.3072597980499268 0.8715065568685532, -0.14525108970701694 m13.798853158950806, -5.08378803730011 l-1.5977619588375092, 0.2905021794140339 -1.452510952949524, 1.3072597980499268 l-2.4692685902118683, 4.212281703948975 -0.4357532784342766, 2.324017435312271 l1.1620087176561356, 3.4860262274742126 1.5977619588375092, 1.3072597980499268 l2.178766429424286, 0.726255476474762 3.050273060798645, -0.4357532784342766 l2.6145195960998535, -1.5977619588375092 1.3072597980499268, -2.6145195960998535 l0.0, -2.0335152745246887 -1.3072597980499268, -2.6145195960998535 l-2.178766429424286, -1.3072597980499268 m18.156386613845825, -2.7597707509994507 l-2.4692685902118683, -0.14525108970701694 -5.519541501998901, 2.905021905899048 l-1.8882642686367035, 2.4692685902118683 -0.4357532784342766, 2.7597707509994507 l0.2905021794140339, 1.0167576372623444 2.178766429424286, 1.0167576372623444 l4.067030549049377, -0.4357532784342766 3.1955239176750183, -1.5977619588375092 l2.905021905899048, -3.3407750725746155 -0.4357532784342766, -1.7430131137371063 l-1.7430131137371063, -1.0167576372623444 m-27.59770631790161, 15.687117576599121 l16.26812219619751, 1.0167576372623444 18.01113486289978, 0.14525108970701694 m-34.279258251190186, -0.2905021794140339 l1.1620087176561356, 2.905021905899048 0.4357532784342766, 5.6647926568984985 l1.3072597980499268, -6.536298990249634 0.8715065568685532, 0.0 l3.1955239176750183, 4.793286025524139 1.5977619588375092, -1.452510952949524 " fill="none" stroke="black" stroke-width="1" /></svg>