<?xml version="1.0" encoding="utf-8" ?>
<svg baseProfile="full" height="45.44126651249826" version="1.1" width="38.03346077911556" xmlns="http://www.w3.org/2000/svg" xmlns:ev="http://www.w3.org/2001/xml-events" xmlns:xlink="http://www.w3.org/1999/xlink"><defs /><rect fill="white" height="45.44126651249826" width="38.03346077911556" x="0" y="0" /><path d="M22.43013103492558, 9.938536658883095 m-1.452510952949524, -0.4357532784342766 l-2.178766429424286, 0.14525108970701694 -3.776528537273407, 2.6145195960998535 l-3.050273060798645, 5.229039192199707 -0.726255476474762, 3.3407750725746155 l0.2905021794140339, 6.536298990249634 1.3072597980499268, 2.7597707509994507 l1.452510952949524, 2.178766429424286 1.8882642686367035, 1.3072597980499268 l2.0335152745246887, 0.726255476474762 2.0335152745246887, 0.0 l1.8882642686367035, -1.452510952949524 4.357532858848572, -9.00556743144989 l1.0167576372623444, -4.648034870624542 0.0, -1.452510952949524 l-0.5810043588280678, -1.0167576372623444 -3.3407750725746155, -4.502783715724945 l-2.905021905899048, -2.905021905899048 m-5.08378803730011, 0.4357532784342766 l-3.63127738237381, -0.4357532784342766 -2.324017435312271, 0.8715065568685532 l-2.0335152745246887, 3.1955239176750183 0.14525108970701694, 1.5977619588375092 l2.4692685902118683, 0.2905021794140339 0.4357532784342766, -0.726255476474762 l-0.8715065568685532, 0.0 -3.4860262274742126, 3.63127738237381 l-1.3072597980499268, 3.776528537273407 0.2905021794140339, 1.452510952949524 l2.178766429424286, 0.0 1.8882642686367035, -1.5977619588375092 l-1.3072597980499268, 4.357532858848572 -0.4357532784342766, 6.10054612159729 l1.0167576372623444, 2.324017435312271 1.8882642686367035, 0.8715065568685532 l0.8715065568685532, 0.0 0.8715065568685532, -1.0167576372623444 l0.5810043588280678, -2.0335152745246887 -0.8715065568685532, 0.726255476474762 l-0.2905021794140339, 2.6145195960998535 0.2905021794140339, 1.452510952949524 l1.0167576372623444, 1.3072597980499268 3.4860262274742126, 1.8882642686367035 l4.648034870624542, 0.0 1.0167576372623444, -1.8882642686367035 l1.5977619588375092, -5.229039192199707 0.2905021794140339, 1.1620087176561356 l1.1620087176561356, 0.8715065568685532 1.7430131137371063, -0.14525108970701694 l2.0335152745246887, -3.1955239176750183 1.0167576372623444, -3.3407750725746155 l0.14525108970701694, -2.324017435312271 -0.2905021794140339, -0.726255476474762 l-0.726255476474762, 0.8715065568685532 0.0, 0.8715065568685532 l1.0167576372623444, 0.726255476474762 1.0167576372623444, -0.2905021794140339 l1.0167576372623444, -1.1620087176561356 0.8715065568685532, -3.776528537273407 l0.0, -3.63127738237381 -0.5810043588280678, -2.178766429424286 l-2.905021905899048, -1.452510952949524 1.1620087176561356, 0.14525108970701694 l0.8715065568685532, -0.4357532784342766 0.5810043588280678, -1.0167576372623444 l0.2905021794140339, -2.6145195960998535 -0.2905021794140339, -2.6145195960998535 l-2.0335152745246887, -1.8882642686367035 -2.4692685902118683, -0.8715065568685532 l-3.4860262274742126, 0.14525108970701694 -2.4692685902118683, 0.726255476474762 l-0.14525108970701694, -1.8882642686367035 -2.905021905899048, -0.2905021794140339 l-3.9217793941497803, 1.0167576372623444 -2.0335152745246887, 0.8715065568685532 l0.0, 0.4357532784342766 m5.229039192199707, 12.491593360900879 l0.14525108970701694, -1.452510952949524 -1.0167576372623444, 0.5810043588280678 l-0.2905021794140339, 0.726255476474762 1.1620087176561356, 0.5810043588280678 l1.1620087176561356, -1.0167576372623444 m3.63127738237381, 1.0167576372623444 l0.726255476474762, -1.1620087176561356 0.0, -0.8715065568685532 l0.5810043588280678, 0.0 m-7.553057074546814, 7.407805919647217 l-0.726255476474762, 0.2905021794140339 0.14525108970701694, 1.5977619588375092 l0.726255476474762, 1.8882642686367035 1.0167576372623444, 0.4357532784342766 " fill="none" stroke="black" stroke-width="1" /></svg>