<?xml version="1.0" encoding="utf-8" ?>
<svg baseProfile="full" height="87.27358104661107" version="1.1" width="119.664575047791" xmlns="http://www.w3.org/2000/svg" xmlns:ev="http://www.w3.org/2001/xml-events" xmlns:xlink="http://www.w3.org/1999/xlink"><defs /><rect fill="white" height="87.27358104661107" width="119.664575047791" x="0" y="0" /><path d="M52.7876109816134, 31.43569963052869 m-2.4692685902118683, -1.0167576372623444 l-4.793286025524139, -1.0167576372623444 -5.6647926568984985, -0.14525108970701694 l-4.067030549049377, 1.0167576372623444 -2.0335152745246887, 1.3072597980499268 l-2.0335152745246887, 2.324017435312271 -3.3407750725746155, 6.681550145149231 l0.2905021794140339, 2.4692685902118683 1.8882642686367035, 4.793286025524139 l1.8882642686367035, 3.3407750725746155 2.0335152745246887, 2.4692685902118683 l5.374290347099304, 3.776528537273407 5.229039192199707, 1.452510952949524 l6.972052454948425, 1.0167576372623444 12.782095670700073, 0.0 l2.6145195960998535, -0.4357532784342766 2.324017435312271, -1.3072597980499268 l2.7597707509994507, -3.050273060798645 9.150818586349487, -7.988809943199158 l4.357532858848572, -5.955294966697693 1.0167576372623444, -2.178766429424286 l-0.4357532784342766, -5.519541501998901 -2.4692685902118683, -2.4692685902118683 l-3.050273060798645, -1.3072597980499268 -5.519541501998901, -0.5810043588280678 l-15.251364707946777, 0.0 -2.178766429424286, -1.452510952949524 l-0.4357532784342766, 0.14525108970701694 m-5.374290347099304, 3.9217793941497803 l0.5810043588280678, -1.8882642686367035 3.9217793941497803, -6.826801300048828 l5.6647926568984985, -3.63127738237381 3.9217793941497803, -3.3407750725746155 l1.5977619588375092, -0.5810043588280678 2.6145195960998535, 0.0 l1.1620087176561356, 1.452510952949524 0.2905021794140339, 2.4692685902118683 l-3.63127738237381, 4.793286025524139 -4.067030549049377, 3.63127738237381 l0.0, -1.3072597980499268 2.178766429424286, -2.324017435312271 l12.20109224319458, -7.8435587882995605 8.42456340789795, -6.391047835350037 l1.5977619588375092, -0.8715065568685532 4.357532858848572, -1.1620087176561356 l3.776528537273407, -0.2905021794140339 0.2905021794140339, 2.178766429424286 l-0.726255476474762, 3.3407750725746155 -2.0335152745246887, 2.7597707509994507 l-7.698307633399963, 7.8435587882995605 20.770905017852783, -6.10054612159729 l7.1173036098480225, -1.1620087176561356 -1.8882642686367035, 1.5977619588375092 l-4.212281703948975, 5.08378803730011 -5.6647926568984985, 9.731823205947876 l-0.4357532784342766, 2.7597707509994507 0.8715065568685532, 2.6145195960998535 l-0.2905021794140339, 1.1620087176561356 -5.955294966697693, 2.178766429424286 l-8.42456340789795, 0.726255476474762 3.1955239176750183, 0.8715065568685532 l0.8715065568685532, 0.726255476474762 1.452510952949524, 2.6145195960998535 l0.4357532784342766, 2.6145195960998535 -9.00556743144989, 1.8882642686367035 l-13.508352041244507, 1.7430131137371063 -3.1955239176750183, 0.0 l0.5810043588280678, 0.8715065568685532 -1.8882642686367035, 0.2905021794140339 l6.681550145149231, 3.3407750725746155 1.7430131137371063, 1.5977619588375092 l3.050273060798645, 7.1173036098480225 0.5810043588280678, 5.955294966697693 l0.0, 2.905021905899048 -0.4357532784342766, 0.726255476474762 l-4.648034870624542, 0.8715065568685532 -9.586572051048279, 0.0 l-3.050273060798645, -1.0167576372623444 -4.502783715724945, -4.357532858848572 l-2.7597707509994507, -4.067030549049377 -1.8882642686367035, -6.681550145149231 l0.0, -1.0167576372623444 0.8715065568685532, -0.4357532784342766 l2.0335152745246887, 5.08378803730011 -0.14525108970701694, 3.3407750725746155 l-2.6145195960998535, 6.2457966804504395 -2.6145195960998535, 2.0335152745246887 l-6.681550145149231, 3.1955239176750183 -3.63127738237381, 1.1620087176561356 l-8.569814562797546, 1.3072597980499268 -9.731823205947876, 1.0167576372623444 l-7.1173036098480225, 0.0 -1.452510952949524, -1.3072597980499268 l1.3072597980499268, -4.212281703948975 2.7597707509994507, -5.810043811798096 l2.905021905899048, -4.648034870624542 2.0335152745246887, -5.229039192199707 l3.050273060798645, -5.955294966697693 -1.7430131137371063, 2.7597707509994507 l-6.826801300048828, 3.63127738237381 -4.938537180423737, 1.0167576372623444 l-3.4860262274742126, -0.14525108970701694 -0.5810043588280678, -1.5977619588375092 l0.2905021794140339, -4.502783715724945 2.6145195960998535, -6.536298990249634 l3.4860262274742126, -4.357532858848572 3.776528537273407, -3.1955239176750183 l2.6145195960998535, -4.212281703948975 0.14525108970701694, -1.452510952949524 l-1.3072597980499268, -1.8882642686367035 -0.726255476474762, -0.2905021794140339 l-5.229039192199707, 1.0167576372623444 -4.357532858848572, 0.0 l-1.3072597980499268, -0.2905021794140339 -1.0167576372623444, -1.0167576372623444 l-1.1620087176561356, -2.905021905899048 -0.4357532784342766, -3.776528537273407 l0.5810043588280678, -2.0335152745246887 2.0335152745246887, -2.6145195960998535 l4.212281703948975, -3.3407750725746155 2.905021905899048, -1.452510952949524 l3.9217793941497803, -0.726255476474762 4.502783715724945, 0.14525108970701694 l3.1955239176750183, 1.3072597980499268 1.0167576372623444, 1.1620087176561356 l1.0167576372623444, 2.905021905899048 -0.14525108970701694, 2.7597707509994507 l-3.9217793941497803, 0.726255476474762 -0.8715065568685532, -0.5810043588280678 l-0.2905021794140339, -1.3072597980499268 0.0, -2.4692685902118683 l1.1620087176561356, -4.357532858848572 2.178766429424286, -4.793286025524139 l3.776528537273407, -3.4860262274742126 2.7597707509994507, -1.8882642686367035 l4.502783715724945, -2.0335152745246887 3.4860262274742126, -0.2905021794140339 l3.776528537273407, 2.6145195960998535 1.0167576372623444, 2.4692685902118683 l0.14525108970701694, 3.9217793941497803 1.1620087176561356, 3.776528537273407 l1.452510952949524, 1.7430131137371063 0.5810043588280678, -0.726255476474762 l0.14525108970701694, -2.6145195960998535 0.5810043588280678, -1.3072597980499268 l1.5977619588375092, -1.7430131137371063 0.8715065568685532, 0.0 l3.050273060798645, 3.1955239176750183 2.6145195960998535, 6.536298990249634 l0.14525108970701694, 2.905021905899048 -0.726255476474762, 1.7430131137371063 m-5.229039192199707, 12.927347421646118 l-1.452510952949524, -0.5810043588280678 -0.2905021794140339, 0.726255476474762 l1.7430131137371063, 0.726255476474762 1.7430131137371063, -1.8882642686367035 l-1.8882642686367035, 0.14525108970701694 -0.14525108970701694, 2.4692685902118683 l2.178766429424286, -1.8882642686367035 -1.7430131137371063, -0.5810043588280678 l-0.5810043588280678, 0.726255476474762 0.2905021794140339, 0.726255476474762 l0.4357532784342766, 0.0 " fill="none" stroke="black" stroke-width="1" /></svg>