<?xml version="1.0" encoding="utf-8" ?>
<svg baseProfile="full" height="41.37423688545823" version="1.1" width="96.7149018496275" xmlns="http://www.w3.org/2000/svg" xmlns:ev="http://www.w3.org/2001/xml-events" xmlns:xlink="http://www.w3.org/1999/xlink"><defs /><rect fill="white" height="41.37423688545823" width="96.7149018496275" x="0" y="0" /><path d="M9.502783874049783, 22.28488089516759 m-1.5977619588375092, 0.2905021794140339 l-2.4692685902118683, 1.452510952949524 0.8715065568685532, 0.726255476474762 l3.1955239176750183, 0.8715065568685532 0.14525108970701694, 0.8715065568685532 l-3.9217793941497803, 2.178766429424286 3.050273060798645, 0.2905021794140339 l-3.776528537273407, 2.7597707509994507 2.6145195960998535, 0.726255476474762 l-2.324017435312271, 2.6145195960998535 -0.2905021794140339, 0.8715065568685532 l0.8715065568685532, 0.4357532784342766 85.11713981628418, 0.0 l0.726255476474762, -0.14525108970701694 -0.14525108970701694, -0.726255476474762 l-19.173144102096558, -0.4357532784342766 12.20109224319458, -2.905021905899048 l-0.5810043588280678, -0.8715065568685532 0.4357532784342766, -0.8715065568685532 l2.7597707509994507, -2.6145195960998535 -3.3407750725746155, -0.726255476474762 l0.0, -0.726255476474762 1.0167576372623444, -0.2905021794140339 l-1.3072597980499268, -0.726255476474762 -4.938537180423737, -0.726255476474762 l3.63127738237381, -1.7430131137371063 -4.357532858848572, -2.324017435312271 l-49.53062057495117, 0.0 -14.379857778549194, 2.4692685902118683 l-4.212281703948975, 0.0 m8.279312252998352, 1.452510952949524 l0.4357532784342766, 4.938537180423737 0.726255476474762, 0.4357532784342766 l4.502783715724945, 0.14525108970701694 4.502783715724945, -0.8715065568685532 m1.1620087176561356, -2.905021905899048 l0.5810043588280678, 1.0167576372623444 0.5810043588280678, 3.9217793941497803 m-0.4357532784342766, -7.26255476474762 l0.2905021794140339, 0.0 m8.42456340789795, 3.1955239176750183 l-1.452510952949524, 1.452510952949524 0.2905021794140339, 1.452510952949524 l2.4692685902118683, 0.4357532784342766 1.0167576372623444, -1.8882642686367035 l-0.14525108970701694, -1.7430131137371063 -3.050273060798645, -0.2905021794140339 m6.10054612159729, 3.4860262274742126 l0.5810043588280678, -1.7430131137371063 1.3072597980499268, 2.905021905899048 l1.5977619588375092, 0.14525108970701694 1.3072597980499268, -2.0335152745246887 l1.452510952949524, -3.776528537273407 0.726255476474762, 0.14525108970701694 l0.2905021794140339, 0.8715065568685532 0.14525108970701694, 2.905021905899048 l-0.4357532784342766, 0.4357532784342766 m14.08935546875, -24.837937355041504 l-3.3407750725746155, 3.4860262274742126 -6.536298990249634, 4.938537180423737 l-2.4692685902118683, 2.7597707509994507 -0.4357532784342766, 1.7430131137371063 l-1.3072597980499268, 1.1620087176561356 -2.0335152745246887, -0.8715065568685532 l-2.178766429424286, -1.8882642686367035 -0.726255476474762, -0.8715065568685532 l-1.0167576372623444, -3.050273060798645 m6.391047835350037, 5.374290347099304 l2.324017435312271, 0.5810043588280678 12.055840492248535, -2.324017435312271 m-20.189902782440186, -4.648034870624542 l5.374290347099304, 0.8715065568685532 17.430131435394287, 4.357532858848572 l6.972052454948425, 1.3072597980499268 " fill="none" stroke="black" stroke-width="1" /></svg>