<?xml version="1.0" encoding="utf-8" ?>
<svg baseProfile="full" height="40.938482536002994" version="1.1" width="45.441266521811485" xmlns="http://www.w3.org/2000/svg" xmlns:ev="http://www.w3.org/2001/xml-events" xmlns:xlink="http://www.w3.org/1999/xlink"><defs /><rect fill="white" height="40.938482536002994" width="45.441266521811485" x="0" y="0" /><path d="M6.016757637262344, 24.754148665815592 m-1.0167576372623444, -3.3407750725746155 l0.0, -7.26255476474762 1.1620087176561356, -3.63127738237381 l0.726255476474762, -1.5977619588375092 0.726255476474762, -0.2905021794140339 l1.7430131137371063, 1.1620087176561356 3.1955239176750183, -4.067030549049377 l1.452510952949524, -0.726255476474762 2.4692685902118683, 0.4357532784342766 l6.2457966804504395, 0.0 0.4357532784342766, 1.452510952949524 l0.8715065568685532, 0.4357532784342766 4.212281703948975, -1.3072597980499268 l2.4692685902118683, 0.0 2.178766429424286, 2.7597707509994507 l6.10054612159729, 0.14525108970701694 0.8715065568685532, 0.8715065568685532 l0.5810043588280678, 1.7430131137371063 -1.5977619588375092, 0.5810043588280678 l-0.14525108970701694, 0.726255476474762 1.3072597980499268, 3.63127738237381 l0.0, 1.8882642686367035 -1.5977619588375092, 1.452510952949524 l-2.324017435312271, 0.8715065568685532 -1.5977619588375092, 2.178766429424286 l-0.4357532784342766, 1.5977619588375092 0.4357532784342766, 6.2457966804504395 l-1.7430131137371063, 2.0335152745246887 -0.2905021794140339, 2.324017435312271 l-0.726255476474762, 0.5810043588280678 -1.5977619588375092, 0.2905021794140339 l-9.586572051048279, -0.726255476474762 -4.793286025524139, 0.5810043588280678 l-2.324017435312271, -1.7430131137371063 -2.7597707509994507, -0.4357532784342766 l-0.726255476474762, -0.5810043588280678 -3.776528537273407, -4.938537180423737 l-0.4357532784342766, -3.3407750725746155 m9.877074360847473, 2.0335152745246887 l-1.5977619588375092, -2.905021905899048 -0.14525108970701694, -6.972052454948425 l0.5810043588280678, -1.7430131137371063 1.8882642686367035, -2.178766429424286 l3.050273060798645, -1.8882642686367035 1.8882642686367035, -0.4357532784342766 l2.905021905899048, 0.0 2.324017435312271, 0.8715065568685532 l1.8882642686367035, 1.3072597980499268 1.5977619588375092, 2.324017435312271 l0.14525108970701694, 4.648034870624542 -3.776528537273407, 5.519541501998901 l-5.519541501998901, 1.8882642686367035 -2.178766429424286, 0.2905021794140339 l-2.178766429424286, 0.0 -1.5977619588375092, -1.3072597980499268 m1.1620087176561356, -5.519541501998901 l0.14525108970701694, 0.726255476474762 0.726255476474762, 0.4357532784342766 l2.324017435312271, 0.2905021794140339 0.726255476474762, -0.4357532784342766 l0.5810043588280678, -1.452510952949524 2.324017435312271, 1.8882642686367035 l2.178766429424286, 0.14525108970701694 0.726255476474762, -0.726255476474762 l0.2905021794140339, -1.8882642686367035 m-4.793286025524139, -4.357532858848572 l0.726255476474762, -0.4357532784342766 2.324017435312271, 0.2905021794140339 l0.0, 0.726255476474762 -0.726255476474762, 0.2905021794140339 l-1.452510952949524, 0.0 -0.726255476474762, -0.726255476474762 m-4.938537180423737, 0.4357532784342766 l1.5977619588375092, 0.0 0.14525108970701694, 0.726255476474762 l-0.4357532784342766, 0.726255476474762 -0.726255476474762, 0.14525108970701694 l-0.726255476474762, -0.2905021794140339 0.0, -0.8715065568685532 m1.1620087176561356, 6.536298990249634 l0.5810043588280678, 0.8715065568685532 " fill="none" stroke="black" stroke-width="1" /></svg>