<?xml version="1.0" encoding="utf-8" ?>
<svg baseProfile="full" height="78.26801395043731" version="1.1" width="90.46910457313061" xmlns="http://www.w3.org/2000/svg" xmlns:ev="http://www.w3.org/2001/xml-events" xmlns:xlink="http://www.w3.org/1999/xlink"><defs /><rect fill="white" height="78.26801395043731" width="90.46910457313061" x="0" y="0" /><path d="M27.80442093499005, 22.720633205026388 m-1.1620087176561356, -2.0335152745246887 l-0.2905021794140339, -2.6145195960998535 0.0, -2.178766429424286 l0.5810043588280678, -1.7430131137371063 1.1620087176561356, 1.7430131137371063 l4.648034870624542, -6.972052454948425 0.5810043588280678, -0.4357532784342766 l1.3072597980499268, 2.0335152745246887 0.726255476474762, -0.2905021794140339 l4.357532858848572, -4.067030549049377 2.905021905899048, -1.1620087176561356 l2.178766429424286, 6.2457966804504395 1.452510952949524, -1.7430131137371063 l2.324017435312271, -1.7430131137371063 3.1955239176750183, 10.603330135345459 l1.1620087176561356, 2.6145195960998535 0.8715065568685532, 0.8715065568685532 l1.452510952949524, 0.2905021794140339 1.3072597980499268, -1.0167576372623444 l4.938537180423737, -6.2457966804504395 2.0335152745246887, -1.8882642686367035 l1.0167576372623444, 1.7430131137371063 2.0335152745246887, 6.2457966804504395 l0.8715065568685532, 0.4357532784342766 1.7430131137371063, -1.1620087176561356 l1.452510952949524, -0.4357532784342766 1.7430131137371063, 0.0 l4.067030549049377, 10.893832445144653 1.7430131137371063, 1.452510952949524 l3.776528537273407, 0.0 0.2905021794140339, 6.10054612159729 l0.8715065568685532, 1.452510952949524 1.0167576372623444, 0.5810043588280678 l0.5810043588280678, 1.3072597980499268 -1.7430131137371063, 6.681550145149231 l-0.14525108970701694, 4.938537180423737 2.6145195960998535, 5.229039192199707 l-3.1955239176750183, 3.4860262274742126 -4.648034870624542, 4.067030549049377 l-0.726255476474762, 0.2905021794140339 -2.0335152745246887, -2.6145195960998535 l-1.5977619588375092, -0.8715065568685532 -1.3072597980499268, 0.2905021794140339 l-1.7430131137371063, 2.7597707509994507 -2.0335152745246887, 2.0335152745246887 l-6.2457966804504395, 2.6145195960998535 -3.3407750725746155, 0.8715065568685532 l-5.519541501998901, 0.0 -4.067030549049377, -3.63127738237381 l-1.7430131137371063, -0.8715065568685532 -1.7430131137371063, 0.2905021794140339 l-2.905021905899048, 1.7430131137371063 -5.6647926568984985, 1.7430131137371063 l-1.5977619588375092, 0.0 -2.0335152745246887, -2.6145195960998535 l-1.452510952949524, -0.726255476474762 -6.972052454948425, 5.6647926568984985 l-1.3072597980499268, 0.2905021794140339 -1.3072597980499268, -0.5810043588280678 l-2.178766429424286, 0.2905021794140339 -2.178766429424286, -2.905021905899048 l-0.5810043588280678, -1.7430131137371063 -4.793286025524139, -5.955294966697693 l-2.905021905899048, -4.357532858848572 -0.5810043588280678, -1.7430131137371063 l1.5977619588375092, -2.324017435312271 0.0, -1.7430131137371063 l-1.5977619588375092, -3.1955239176750183 -4.067030549049377, -4.648034870624542 l1.3072597980499268, -2.7597707509994507 0.8715065568685532, -3.4860262274742126 l0.2905021794140339, -6.391047835350037 5.229039192199707, 0.0 l4.648034870624542, -1.5977619588375092 0.4357532784342766, -1.1620087176561356 l0.14525108970701694, -3.050273060798645 3.63127738237381, -5.08378803730011 l2.178766429424286, -2.0335152745246887 3.4860262274742126, 0.0 m21.351909637451172, 6.10054612159729 l-1.452510952949524, -0.5810043588280678 -3.776528537273407, 0.0 l-8.279312252998352, 2.0335152745246887 -7.26255476474762, 4.357532858848572 l-2.4692685902118683, 2.324017435312271 -1.452510952949524, 2.324017435312271 l-0.726255476474762, 1.8882642686367035 -0.2905021794140339, 8.279312252998352 l2.6145195960998535, 10.458078384399414 0.8715065568685532, 1.452510952949524 l3.1955239176750183, 2.6145195960998535 3.050273060798645, 1.3072597980499268 l8.134061098098755, 1.5977619588375092 5.810043811798096, 0.14525108970701694 l2.324017435312271, -0.8715065568685532 2.905021905899048, -2.6145195960998535 l1.1620087176561356, -2.4692685902118683 3.1955239176750183, -11.620087623596191 l0.0, -7.26255476474762 -0.8715065568685532, -5.08378803730011 l-4.212281703948975, -6.391047835350037 -0.5810043588280678, -0.5810043588280678 l-3.050273060798645, -0.5810043588280678 -2.905021905899048, -1.8882642686367035 " fill="none" stroke="black" stroke-width="1" /></svg>