<?xml version="1.0" encoding="utf-8" ?>
<svg baseProfile="full" height="75.50824231468141" version="1.1" width="93.80988146178424" xmlns="http://www.w3.org/2000/svg" xmlns:ev="http://www.w3.org/2001/xml-events" xmlns:xlink="http://www.w3.org/1999/xlink"><defs /><rect fill="white" height="75.50824231468141" width="93.80988146178424" x="0" y="0" /><path d="M39.7150104213506, 36.08373309485614 m15.832369327545166, -0.2905021794140339 l-2.324017435312271, 2.178766429424286 -1.7430131137371063, 0.726255476474762 l-4.067030549049377, 0.5810043588280678 -5.955294966697693, -2.6145195960998535 m5.6647926568984985, 2.4692685902118683 l0.14525108970701694, 7.988809943199158 -0.2905021794140339, 1.8882642686367035 l-1.452510952949524, 2.905021905899048 -2.178766429424286, 0.8715065568685532 l-5.810043811798096, 0.14525108970701694 -2.0335152745246887, -0.4357532784342766 l-0.726255476474762, -0.8715065568685532 m11.76533818244934, -0.8715065568685532 l0.4357532784342766, 1.452510952949524 1.0167576372623444, 0.5810043588280678 l4.648034870624542, 1.5977619588375092 2.324017435312271, 0.0 l2.178766429424286, -1.8882642686367035 1.1620087176561356, -3.1955239176750183 m-17.575381994247437, -33.6982536315918 l-1.8882642686367035, -2.6145195960998535 -2.4692685902118683, -1.3072597980499268 l-1.5977619588375092, -0.4357532784342766 -6.2457966804504395, 0.0 l-1.3072597980499268, 0.4357532784342766 -2.7597707509994507, 2.0335152745246887 l-0.5810043588280678, 2.0335152745246887 0.8715065568685532, 0.2905021794140339 l-0.8715065568685532, -1.0167576372623444 -1.5977619588375092, -0.5810043588280678 l-9.00556743144989, 0.14525108970701694 -6.826801300048828, 1.8882642686367035 l-0.726255476474762, 0.5810043588280678 0.0, 1.7430131137371063 l5.229039192199707, 7.988809943199158 1.7430131137371063, 1.8882642686367035 l-0.8715065568685532, 0.4357532784342766 -0.5810043588280678, -0.726255476474762 l-6.2457966804504395, 6.972052454948425 0.0, 7.407805919647217 l1.1620087176561356, 2.0335152745246887 1.5977619588375092, 1.0167576372623444 l3.1955239176750183, 0.726255476474762 3.050273060798645, 0.0 l-1.5977619588375092, 7.407805919647217 -0.14525108970701694, 5.374290347099304 l2.0335152745246887, 3.4860262274742126 2.324017435312271, 1.0167576372623444 l15.541867017745972, 2.0335152745246887 10.312827825546265, 0.2905021794140339 l0.0, -0.726255476474762 0.14525108970701694, 1.0167576372623444 l2.178766429424286, 2.4692685902118683 0.8715065568685532, 0.726255476474762 l2.6145195960998535, 0.8715065568685532 2.905021905899048, 0.0 l1.1620087176561356, -0.726255476474762 1.7430131137371063, -1.7430131137371063 l1.452510952949524, -2.4692685902118683 17.72063374519348, -0.2905021794140339 l1.8882642686367035, -0.726255476474762 1.0167576372623444, -1.0167576372623444 l0.8715065568685532, -2.905021905899048 -0.14525108970701694, -2.4692685902118683 l3.050273060798645, -1.8882642686367035 1.7430131137371063, -2.4692685902118683 l0.2905021794140339, -4.067030549049377 -1.7430131137371063, -1.5977619588375092 l0.14525108970701694, -0.8715065568685532 5.810043811798096, -6.391047835350037 l2.4692685902118683, -4.648034870624542 0.14525108970701694, -2.6145195960998535 l-2.7597707509994507, -1.5977619588375092 -3.776528537273407, -1.3072597980499268 l0.5810043588280678, -2.7597707509994507 -0.2905021794140339, -3.3407750725746155 l-1.452510952949524, -2.178766429424286 -1.452510952949524, -1.1620087176561356 l0.8715065568685532, -4.938537180423737 -0.4357532784342766, -2.324017435312271 l-2.4692685902118683, -1.7430131137371063 -3.776528537273407, -0.4357532784342766 l-1.7430131137371063, -2.7597707509994507 -3.050273060798645, -2.905021905899048 l-2.4692685902118683, -1.0167576372623444 -4.502783715724945, -0.14525108970701694 l-6.972052454948425, 1.452510952949524 -5.229039192199707, 2.324017435312271 l-0.14525108970701694, 0.726255476474762 -2.6145195960998535, -0.726255476474762 l-5.08378803730011, -0.14525108970701694 -0.726255476474762, 0.2905021794140339 l0.0, 0.8715065568685532 -7.407805919647217, 0.4357532784342766 l-2.4692685902118683, 0.8715065568685532 0.0, 0.5810043588280678 " fill="none" stroke="black" stroke-width="1" /></svg>