<?xml version="1.0" encoding="utf-8" ?>
<svg baseProfile="full" height="70.8602075278759" version="1.1" width="87.12833096273243" xmlns="http://www.w3.org/2000/svg" xmlns:ev="http://www.w3.org/2001/xml-events" xmlns:xlink="http://www.w3.org/1999/xlink"><defs /><rect fill="white" height="70.8602075278759" width="87.12833096273243" x="0" y="0" /><path d="M37.82674507237971, 18.94410421140492 m-2.6145195960998535, 1.3072597980499268 l-3.4860262274742126, 2.905021905899048 -2.6145195960998535, 3.3407750725746155 l-1.8882642686367035, 5.519541501998901 -1.3072597980499268, 6.10054612159729 l0.2905021794140339, 6.681550145149231 1.7430131137371063, 6.826801300048828 l3.9217793941497803, 5.374290347099304 4.357532858848572, 4.067030549049377 l4.938537180423737, 1.7430131137371063 4.938537180423737, 1.0167576372623444 l11.474835872650146, -3.63127738237381 3.1955239176750183, -3.4860262274742126 l2.178766429424286, -4.212281703948975 0.8715065568685532, -4.212281703948975 l-0.2905021794140339, -4.502783715724945 -3.63127738237381, -8.42456340789795 l-7.698307633399963, -7.1173036098480225 -3.63127738237381, -2.324017435312271 l-4.938537180423737, -1.1620087176561356 m-13.653602600097656, 4.067030549049377 l-2.4692685902118683, -3.1955239176750183 -0.726255476474762, -3.1955239176750183 l-2.324017435312271, -5.229039192199707 2.178766429424286, 0.0 l2.7597707509994507, 0.8715065568685532 7.553057074546814, 3.4860262274742126 m10.603330135345459, 4.067030549049377 l5.810043811798096, -7.26255476474762 3.63127738237381, -6.10054612159729 l0.2905021794140339, 14.379857778549194 m-19.318394660949707, -15.832369327545166 l-2.0335152745246887, -2.178766429424286 -1.1620087176561356, -0.4357532784342766 l-7.26255476474762, 1.1620087176561356 -11.184333562850952, -0.14525108970701694 l-6.391047835350037, 0.726255476474762 2.324017435312271, 3.1955239176750183 l2.324017435312271, 2.0335152745246887 0.4357532784342766, 1.0167576372623444 l-0.14525108970701694, 1.3072597980499268 -6.972052454948425, 7.8435587882995605 l-0.2905021794140339, 1.452510952949524 0.5810043588280678, 1.452510952949524 l4.212281703948975, 4.067030549049377 0.4357532784342766, 1.1620087176561356 l-0.5810043588280678, 2.4692685902118683 -7.26255476474762, 10.312827825546265 l0.0, 3.4860262274742126 1.1620087176561356, 1.452510952949524 l4.502783715724945, 2.0335152745246887 2.0335152745246887, 1.5977619588375092 l-0.5810043588280678, 5.6647926568984985 1.0167576372623444, 1.7430131137371063 m36.31277322769165, -54.323906898498535 l21.787664890289307, -2.905021905899048 1.0167576372623444, 1.0167576372623444 l-4.067030549049377, 6.681550145149231 0.14525108970701694, 1.3072597980499268 l4.067030549049377, 2.905021905899048 2.905021905899048, 1.452510952949524 l1.5977619588375092, 1.3072597980499268 0.726255476474762, 1.3072597980499268 l-2.178766429424286, 7.1173036098480225 -0.5810043588280678, 3.4860262274742126 l1.3072597980499268, 1.8882642686367035 5.519541501998901, 4.067030549049377 l0.4357532784342766, 2.324017435312271 -6.2457966804504395, 8.42456340789795 l0.2905021794140339, 1.3072597980499268 3.050273060798645, 2.7597707509994507 l2.7597707509994507, 1.5977619588375092 -0.14525108970701694, 1.452510952949524 l-8.279312252998352, 6.536298990249634 -0.2905021794140339, 1.7430131137371063 l-4.212281703948975, 2.178766429424286 " fill="none" stroke="black" stroke-width="1" /></svg>