<?xml version="1.0" encoding="utf-8" ?>
<svg baseProfile="full" height="43.6982530541718" version="1.1" width="57.20660529099405" xmlns="http://www.w3.org/2000/svg" xmlns:ev="http://www.w3.org/2001/xml-events" xmlns:xlink="http://www.w3.org/1999/xlink"><defs /><rect fill="white" height="43.6982530541718" width="57.20660529099405" x="0" y="0" /><path d="M16.329585295170546, 16.039083125069737 m-2.7597707509994507, 3.050273060798645 l-0.8715065568685532, 1.8882642686367035 0.0, 3.4860262274742126 l1.3072597980499268, 2.7597707509994507 2.178766429424286, 2.178766429424286 l2.7597707509994507, 1.0167576372623444 1.5977619588375092, 0.14525108970701694 l3.9217793941497803, -0.5810043588280678 4.793286025524139, -2.324017435312271 l1.3072597980499268, -2.4692685902118683 -0.8715065568685532, -3.63127738237381 l-1.5977619588375092, -2.6145195960998535 -3.776528537273407, -3.050273060798645 l-4.938537180423737, -1.452510952949524 -2.178766429424286, 0.0 l-3.3407750725746155, 2.178766429424286 m5.6647926568984985, -8.86031687259674 l5.6647926568984985, -2.4692685902118683 2.905021905899048, -0.2905021794140339 l0.2905021794140339, 1.0167576372623444 -0.8715065568685532, 3.4860262274742126 l0.8715065568685532, 0.2905021794140339 5.6647926568984985, -1.3072597980499268 l0.5810043588280678, 0.5810043588280678 -1.8882642686367035, 4.502783715724945 l8.569814562797546, 1.1620087176561356 0.2905021794140339, 0.5810043588280678 l-3.1955239176750183, 2.178766429424286 -0.4357532784342766, 1.0167576372623444 l2.178766429424286, 6.2457966804504395 0.0, 1.7430131137371063 l-0.726255476474762, 3.050273060798645 -1.7430131137371063, 2.324017435312271 l-1.452510952949524, 0.726255476474762 -1.452510952949524, -0.4357532784342766 l-1.452510952949524, 2.4692685902118683 -2.4692685902118683, 2.6145195960998535 l-1.452510952949524, 0.8715065568685532 -2.7597707509994507, 0.5810043588280678 l-5.519541501998901, -1.5977619588375092 -3.9217793941497803, 0.2905021794140339 l-2.0335152745246887, -0.2905021794140339 -2.0335152745246887, -1.452510952949524 l-3.050273060798645, -4.648034870624542 -3.4860262274742126, -1.5977619588375092 l-1.0167576372623444, -2.6145195960998535 0.2905021794140339, -3.4860262274742126 l1.452510952949524, -3.050273060798645 1.1620087176561356, -0.8715065568685532 l2.4692685902118683, -1.0167576372623444 -2.324017435312271, -0.2905021794140339 l-3.050273060798645, -2.4692685902118683 -0.5810043588280678, -1.7430131137371063 l0.2905021794140339, -1.1620087176561356 2.0335152745246887, -1.3072597980499268 l3.4860262274742126, -0.14525108970701694 2.7597707509994507, -4.357532858848572 l1.7430131137371063, 0.0 3.1955239176750183, 0.726255476474762 l0.726255476474762, -0.4357532784342766 2.0335152745246887, -0.14525108970701694 m-1.5977619588375092, 15.541867017745972 l-0.4357532784342766, 1.1620087176561356 1.1620087176561356, -1.7430131137371063 l0.0, -0.5810043588280678 -0.726255476474762, 0.0 l0.0, 0.726255476474762 0.726255476474762, 0.0 m-3.4860262274742126, 6.972052454948425 l0.726255476474762, 0.2905021794140339 1.8882642686367035, 0.0 l1.7430131137371063, -1.0167576372623444 0.726255476474762, -1.1620087176561356 m20.04465103149414, 0.5810043588280678 l4.357532858848572, 1.3072597980499268 2.6145195960998535, -0.8715065568685532 l2.0335152745246887, -2.0335152745246887 1.0167576372623444, -2.178766429424286 l0.14525108970701694, -2.324017435312271 " fill="none" stroke="black" stroke-width="1" /></svg>