<?xml version="1.0" encoding="utf-8" ?>
<svg baseProfile="full" height="50.379803497344255" version="1.1" width="65.92166971415281" xmlns="http://www.w3.org/2000/svg" xmlns:ev="http://www.w3.org/2001/xml-events" xmlns:xlink="http://www.w3.org/1999/xlink"><defs /><rect fill="white" height="50.379803497344255" width="65.92166971415281" x="0" y="0" /><path d="M44.944048868492246, 33.4692149143666 m-3.63127738237381, -6.681550145149231 l-4.648034870624542, -5.6647926568984985 -2.7597707509994507, -2.178766429424286 l-4.357532858848572, -1.1620087176561356 -7.8435587882995605, 0.14525108970701694 l-3.63127738237381, 1.1620087176561356 -2.4692685902118683, 1.5977619588375092 l-1.7430131137371063, 4.067030549049377 0.0, 4.212281703948975 l1.452510952949524, 2.7597707509994507 6.10054612159729, 4.648034870624542 l4.067030549049377, 2.4692685902118683 3.9217793941497803, 1.1620087176561356 l4.502783715724945, 0.0 0.726255476474762, -0.4357532784342766 l3.3407750725746155, -5.955294966697693 0.2905021794140339, -6.972052454948425 m-13.798853158950806, -13.508352041244507 l1.452510952949524, -4.067030549049377 1.8882642686367035, -2.905021905899048 l2.905021905899048, -1.1620087176561356 1.7430131137371063, 0.14525108970701694 l4.067030549049377, 2.905021905899048 1.3072597980499268, 1.452510952949524 l1.3072597980499268, 2.6145195960998535 1.5977619588375092, 5.229039192199707 l1.452510952949524, 1.5977619588375092 1.452510952949524, 0.8715065568685532 l2.905021905899048, 0.726255476474762 8.715065717697144, 1.5977619588375092 l-0.4357532784342766, 0.8715065568685532 -0.8715065568685532, 0.4357532784342766 l1.7430131137371063, 1.1620087176561356 5.08378803730011, 0.726255476474762 l0.14525108970701694, 0.726255476474762 -14.08935546875, 7.1173036098480225 l0.5810043588280678, 0.726255476474762 7.26255476474762, 0.2905021794140339 l-10.748580694198608, 4.067030549049377 0.4357532784342766, 0.8715065568685532 l4.502783715724945, 0.14525108970701694 0.4357532784342766, 1.0167576372623444 l-0.726255476474762, 1.5977619588375092 -4.212281703948975, 2.178766429424286 l-4.648034870624542, 1.0167576372623444 -13.653602600097656, 0.2905021794140339 l-2.178766429424286, -0.8715065568685532 1.5977619588375092, -1.1620087176561356 l-1.7430131137371063, 0.14525108970701694 -2.6145195960998535, -1.3072597980499268 l-2.7597707509994507, -1.7430131137371063 -3.1955239176750183, -3.050273060798645 l-4.793286025524139, -0.4357532784342766 -1.452510952949524, -0.726255476474762 l-0.726255476474762, -2.0335152745246887 -1.1620087176561356, -1.3072597980499268 l-2.0335152745246887, -0.2905021794140339 0.0, -0.8715065568685532 l1.452510952949524, -2.324017435312271 1.452510952949524, -4.357532858848572 l0.0, -4.648034870624542 -0.726255476474762, -2.7597707509994507 l0.0, -2.905021905899048 0.5810043588280678, -0.726255476474762 l4.212281703948975, -1.452510952949524 6.10054612159729, -2.905021905899048 l9.296069741249084, -2.7597707509994507 0.726255476474762, -0.2905021794140339 l0.0, -0.4357532784342766 m-9.00556743144989, 17.72063374519348 l2.905021905899048, -0.14525108970701694 0.14525108970701694, -1.452510952949524 l-1.7430131137371063, -0.14525108970701694 0.5810043588280678, 0.8715065568685532 l1.452510952949524, 0.726255476474762 m8.134061098098755, 0.4357532784342766 l0.5810043588280678, 0.726255476474762 0.726255476474762, 0.0 l0.2905021794140339, -0.726255476474762 -0.726255476474762, -0.5810043588280678 l-0.4357532784342766, 0.726255476474762 0.0, -0.5810043588280678 m-6.826801300048828, 6.972052454948425 l0.8715065568685532, 0.8715065568685532 2.6145195960998535, 1.1620087176561356 l1.7430131137371063, 0.0 0.726255476474762, -0.2905021794140339 l0.14525108970701694, -0.726255476474762 m-4.502783715724945, -4.793286025524139 l1.3072597980499268, 1.1620087176561356 0.2905021794140339, -1.0167576372623444 " fill="none" stroke="black" stroke-width="1" /></svg>