<?xml version="1.0" encoding="utf-8" ?>
<svg baseProfile="full" height="87.99983589909971" version="1.1" width="110.07800281047821" xmlns="http://www.w3.org/2000/svg" xmlns:ev="http://www.w3.org/2001/xml-events" xmlns:xlink="http://www.w3.org/1999/xlink"><defs /><rect fill="white" height="87.99983589909971" width="110.07800281047821" x="0" y="0" /><path d="M25.77090598642826, 30.418940102681518 m-2.0335152745246887, 0.4357532784342766 l-2.905021905899048, 1.5977619588375092 -5.08378803730011, 3.4860262274742126 l-8.134061098098755, 8.279312252998352 -1.452510952949524, 1.8882642686367035 l-1.1620087176561356, 2.7597707509994507 1.1620087176561356, 0.2905021794140339 l8.86031687259674, -2.4692685902118683 1.7430131137371063, 0.8715065568685532 l0.8715065568685532, 4.648034870624542 -1.0167576372623444, 15.832369327545166 l0.726255476474762, 4.648034870624542 1.452510952949524, 0.14525108970701694 l1.452510952949524, -1.0167576372623444 3.3407750725746155, -3.776528537273407 l1.452510952949524, -0.726255476474762 1.1620087176561356, 0.14525108970701694 l2.7597707509994507, 3.63127738237381 4.938537180423737, 10.603330135345459 l1.7430131137371063, 1.3072597980499268 1.5977619588375092, -0.2905021794140339 l0.726255476474762, -0.726255476474762 5.6647926568984985, -7.8435587882995605 l1.0167576372623444, -0.14525108970701694 2.324017435312271, 1.7430131137371063 l5.08378803730011, 4.938537180423737 3.4860262274742126, 1.452510952949524 l1.8882642686367035, -0.14525108970701694 1.5977619588375092, -1.0167576372623444 l5.6647926568984985, -7.407805919647217 0.8715065568685532, -0.8715065568685532 l1.3072597980499268, -0.4357532784342766 1.8882642686367035, 0.2905021794140339 l6.536298990249634, 2.7597707509994507 2.178766429424286, 0.0 l1.8882642686367035, -0.8715065568685532 3.050273060798645, -3.776528537273407 l4.793286025524139, -9.00556743144989 1.0167576372623444, -0.726255476474762 l2.905021905899048, -0.4357532784342766 3.9217793941497803, -1.7430131137371063 l3.9217793941497803, -3.1955239176750183 2.905021905899048, -3.3407750725746155 l2.4692685902118683, -3.9217793941497803 0.726255476474762, -4.648034870624542 l-0.726255476474762, -2.4692685902118683 -1.1620087176561356, -1.7430131137371063 l-3.050273060798645, -1.7430131137371063 -3.9217793941497803, -0.5810043588280678 l-4.648034870624542, 0.0 -3.776528537273407, -1.0167576372623444 l-1.5977619588375092, -1.1620087176561356 -2.324017435312271, -3.9217793941497803 l-3.050273060798645, -9.731823205947876 -1.3072597980499268, -2.0335152745246887 l-1.8882642686367035, -1.452510952949524 -1.452510952949524, -0.726255476474762 l-7.8435587882995605, -1.3072597980499268 -5.6647926568984985, -1.7430131137371063 l-3.63127738237381, -1.8882642686367035 -7.698307633399963, -5.374290347099304 l-4.357532858848572, -1.5977619588375092 -2.905021905899048, -0.14525108970701694 l-3.3407750725746155, 0.5810043588280678 -8.569814562797546, 2.905021905899048 l-12.34634280204773, 3.050273060798645 -2.6145195960998535, 1.3072597980499268 l-1.452510952949524, 1.7430131137371063 -1.0167576372623444, 2.905021905899048 l-0.14525108970701694, 3.63127738237381 0.14525108970701694, 2.178766429424286 l1.5977619588375092, 4.648034870624542 4.212281703948975, 6.391047835350037 m38.49153995513916, -7.988809943199158 l-8.86031687259674, -0.726255476474762 -4.212281703948975, 0.4357532784342766 l-3.9217793941497803, 1.1620087176561356 -3.63127738237381, 1.8882642686367035 l-3.050273060798645, 2.324017435312271 -3.1955239176750183, 4.648034870624542 l-0.8715065568685532, 2.324017435312271 -1.0167576372623444, 5.810043811798096 l0.2905021794140339, 5.08378803730011 1.0167576372623444, 4.648034870624542 l2.4692685902118683, 5.374290347099304 3.1955239176750183, 3.3407750725746155 l3.776528537273407, 2.0335152745246887 4.067030549049377, 0.726255476474762 l4.357532858848572, -0.2905021794140339 2.324017435312271, -0.726255476474762 l3.63127738237381, -2.0335152745246887 5.810043811798096, -4.502783715724945 l1.8882642686367035, -2.0335152745246887 3.050273060798645, -4.212281703948975 l2.178766429424286, -4.212281703948975 1.1620087176561356, -4.502783715724945 l0.14525108970701694, -2.4692685902118683 -0.726255476474762, -3.63127738237381 l-2.0335152745246887, -3.1955239176750183 -3.63127738237381, -3.9217793941497803 l-2.0335152745246887, -1.5977619588375092 -2.178766429424286, -0.8715065568685532 l-2.0335152745246887, -0.14525108970701694 -3.63127738237381, 0.5810043588280678 m-14.960862398147583, 19.463646411895752 l4.212281703948975, 5.519541501998901 2.4692685902118683, 1.3072597980499268 l2.905021905899048, 0.14525108970701694 2.905021905899048, -0.726255476474762 l2.905021905899048, -1.5977619588375092 1.5977619588375092, -2.6145195960998535 l-0.14525108970701694, -2.6145195960998535 m-11.329585313796997, -7.988809943199158 l0.0, 0.14525108970701694 m12.055840492248535, -0.726255476474762 l-0.4357532784342766, 0.0 " fill="none" stroke="black" stroke-width="1" /></svg>