<?xml version="1.0" encoding="utf-8" ?>
<svg baseProfile="full" height="56.18984751403332" version="1.1" width="43.55300227180123" xmlns="http://www.w3.org/2000/svg" xmlns:ev="http://www.w3.org/2001/xml-events" xmlns:xlink="http://www.w3.org/1999/xlink"><defs /><rect fill="white" height="56.18984751403332" width="43.55300227180123" x="0" y="0" /><path d="M24.173143981024623, 23.4468880482018 m-0.726255476474762, 0.0 l-0.8715065568685532, 0.726255476474762 0.726255476474762, 0.14525108970701694 l0.4357532784342766, -0.726255476474762 -0.8715065568685532, -0.8715065568685532 l-0.5810043588280678, 0.2905021794140339 0.0, 0.5810043588280678 m-3.4860262274742126, -5.08378803730011 l-0.14525108970701694, 0.0 m7.26255476474762, 0.14525108970701694 l-0.14525108970701694, 0.0 m-4.502783715724945, -2.4692685902118683 l-1.1620087176561356, -3.050273060798645 -1.452510952949524, -1.0167576372623444 l-1.8882642686367035, 0.0 -1.8882642686367035, 2.0335152745246887 l-0.14525108970701694, 2.6145195960998535 1.3072597980499268, 2.4692685902118683 l0.4357532784342766, 5.229039192199707 1.0167576372623444, 1.1620087176561356 l2.178766429424286, 1.0167576372623444 2.7597707509994507, 0.4357532784342766 l3.9217793941497803, -0.5810043588280678 3.1955239176750183, -2.6145195960998535 l1.5977619588375092, -3.63127738237381 -0.5810043588280678, -2.4692685902118683 l-2.178766429424286, -1.8882642686367035 -2.324017435312271, -0.726255476474762 l-1.452510952949524, 0.2905021794140339 -1.8882642686367035, 1.3072597980499268 l-1.0167576372623444, -1.1620087176561356 m3.050273060798645, -9.586572051048279 l-7.698307633399963, 1.452510952949524 -4.648034870624542, 2.4692685902118683 l-2.905021905899048, 3.050273060798645 -2.178766429424286, 3.3407750725746155 l-2.324017435312271, 4.793286025524139 0.0, 2.0335152745246887 l1.8882642686367035, 5.6647926568984985 1.8882642686367035, 3.4860262274742126 l2.6145195960998535, 3.63127738237381 3.4860262274742126, 3.050273060798645 l3.9217793941497803, 2.324017435312271 4.067030549049377, 0.8715065568685532 l3.4860262274742126, -0.5810043588280678 2.905021905899048, -2.0335152745246887 l2.905021905899048, -3.3407750725746155 1.8882642686367035, -3.9217793941497803 l3.3407750725746155, -10.458078384399414 -0.5810043588280678, -6.536298990249634 l-2.6145195960998535, -6.826801300048828 -2.178766429424286, -2.4692685902118683 l-2.324017435312271, -1.0167576372623444 -2.905021905899048, 0.0 l-3.3407750725746155, 0.5810043588280678 -3.3407750725746155, 1.1620087176561356 l-3.050273060798645, 1.8882642686367035 m-0.4357532784342766, 33.6982536315918 l-0.4357532784342766, 6.826801300048828 0.8715065568685532, 1.5977619588375092 l0.8715065568685532, 0.4357532784342766 1.3072597980499268, -1.0167576372623444 l1.0167576372623444, -3.050273060798645 0.5810043588280678, 0.2905021794140339 l0.8715065568685532, 2.324017435312271 0.5810043588280678, 0.726255476474762 l0.8715065568685532, 0.0 1.452510952949524, -4.212281703948975 l1.5977619588375092, 1.8882642686367035 2.7597707509994507, -0.726255476474762 l4.793286025524139, -0.2905021794140339 -0.4357532784342766, 3.1955239176750183 l0.5810043588280678, -0.14525108970701694 1.1620087176561356, -1.3072597980499268 l0.8715065568685532, -2.0335152745246887 1.7430131137371063, 1.8882642686367035 l0.5810043588280678, -0.8715065568685532 0.2905021794140339, -3.9217793941497803 l-0.14525108970701694, -2.0335152745246887 -0.8715065568685532, -1.1620087176561356 l-2.178766429424286, -1.1620087176561356 -2.7597707509994507, -1.0167576372623444 l-2.178766429424286, 0.0 " fill="none" stroke="black" stroke-width="1" /></svg>