<?xml version="1.0" encoding="utf-8" ?>
<svg baseProfile="full" height="52.84907263703644" version="1.1" width="53.72057896107435" xmlns="http://www.w3.org/2000/svg" xmlns:ev="http://www.w3.org/2001/xml-events" xmlns:xlink="http://www.w3.org/1999/xlink"><defs /><rect fill="white" height="52.84907263703644" width="53.72057896107435" x="0" y="0" /><path d="M5, 6.162009267136455 m3.63127738237381, -1.0167576372623444 l1.5977619588375092, 0.0 1.0167576372623444, 3.3407750725746155 l0.726255476474762, 0.14525108970701694 3.4860262274742126, -2.0335152745246887 l2.178766429424286, -0.2905021794140339 0.8715065568685532, 3.63127738237381 l0.726255476474762, 0.5810043588280678 0.8715065568685532, 0.0 l7.407805919647217, -4.502783715724945 0.8715065568685532, 0.14525108970701694 l0.4357532784342766, 2.6145195960998535 0.8715065568685532, 0.4357532784342766 l10.748580694198608, 0.0 0.726255476474762, 0.2905021794140339 l0.14525108970701694, 1.0167576372623444 -0.14525108970701694, 2.7597707509994507 l-0.726255476474762, 1.452510952949524 1.7430131137371063, 1.3072597980499268 l4.938537180423737, 2.324017435312271 1.5977619588375092, 1.452510952949524 l-0.5810043588280678, 0.726255476474762 -6.10054612159729, 2.0335152745246887 l-0.14525108970701694, 0.726255476474762 3.1955239176750183, 2.0335152745246887 l0.726255476474762, 0.726255476474762 0.0, 0.8715065568685532 l-9.00556743144989, 6.681550145149231 -0.4357532784342766, 0.726255476474762 l2.905021905899048, 3.4860262274742126 0.14525108970701694, 2.324017435312271 l-0.4357532784342766, 0.8715065568685532 -2.324017435312271, 1.1620087176561356 l-6.10054612159729, 1.1620087176561356 0.4357532784342766, 0.726255476474762 l-0.14525108970701694, 1.5977619588375092 -1.5977619588375092, 1.1620087176561356 l-4.502783715724945, 1.0167576372623444 -0.2905021794140339, -0.726255476474762 l0.5810043588280678, -3.776528537273407 -0.726255476474762, 0.5810043588280678 l-1.1620087176561356, 2.324017435312271 -0.726255476474762, 0.4357532784342766 l-1.5977619588375092, 0.14525108970701694 -0.5810043588280678, -0.8715065568685532 l0.0, -1.452510952949524 -2.178766429424286, 1.8882642686367035 l-2.6145195960998535, 0.4357532784342766 -1.5977619588375092, -2.178766429424286 l0.0, -0.726255476474762 -0.8715065568685532, -0.2905021794140339 l-1.7430131137371063, 1.1620087176561356 -0.726255476474762, 0.0 l-0.726255476474762, -0.726255476474762 -0.4357532784342766, -1.8882642686367035 l0.0, -2.6145195960998535 -2.905021905899048, -0.4357532784342766 l0.2905021794140339, -0.8715065568685532 2.6145195960998535, -2.905021905899048 l-1.5977619588375092, -0.4357532784342766 -0.5810043588280678, -0.726255476474762 l3.050273060798645, -4.938537180423737 -1.452510952949524, -1.452510952949524 l-1.3072597980499268, -4.648034870624542 0.0, -4.648034870624542 l1.8882642686367035, -4.938537180423737 -0.14525108970701694, -0.726255476474762 l-2.905021905899048, -2.0335152745246887 0.0, -2.905021905899048 l1.5977619588375092, -2.905021905899048 m24.256932735443115, 14.234607219696045 l-1.5977619588375092, -3.050273060798645 -1.5977619588375092, -0.726255476474762 l-6.10054612159729, 0.14525108970701694 -5.519541501998901, 1.7430131137371063 l-2.7597707509994507, 1.452510952949524 -2.7597707509994507, 3.050273060798645 l-0.8715065568685532, 2.4692685902118683 -0.5810043588280678, 3.63127738237381 l0.14525108970701694, 5.519541501998901 2.6145195960998535, 4.212281703948975 l2.178766429424286, 1.8882642686367035 3.9217793941497803, 0.2905021794140339 l0.8715065568685532, -0.2905021794140339 1.7430131137371063, -1.7430131137371063 l2.7597707509994507, -3.9217793941497803 1.5977619588375092, -1.452510952949524 l2.178766429424286, -3.1955239176750183 1.1620087176561356, -2.6145195960998535 l0.4357532784342766, -2.7597707509994507 0.0, -10.16757607460022 l0.5810043588280678, -1.3072597980499268 " fill="none" stroke="black" stroke-width="1" /></svg>