<?xml version="1.0" encoding="utf-8" ?>
<svg baseProfile="full" height="72.60322093963623" version="1.1" width="81.89928917214274" xmlns="http://www.w3.org/2000/svg" xmlns:ev="http://www.w3.org/2001/xml-events" xmlns:xlink="http://www.w3.org/1999/xlink"><defs /><rect fill="white" height="72.60322093963623" width="81.89928917214274" x="0" y="0" /><path d="M26.2066594325006, 30.999946417286992 m0.2905021794140339, -7.988809943199158 l1.0167576372623444, -2.7597707509994507 0.726255476474762, 1.3072597980499268 l1.0167576372623444, 4.502783715724945 3.3407750725746155, -3.776528537273407 l3.4860262274742126, -2.0335152745246887 5.810043811798096, -0.726255476474762 l1.0167576372623444, 1.452510952949524 -0.14525108970701694, 6.972052454948425 l7.1173036098480225, -4.212281703948975 2.7597707509994507, -0.8715065568685532 l0.2905021794140339, 3.4860262274742126 -0.8715065568685532, 4.648034870624542 l0.726255476474762, 0.5810043588280678 7.407805919647217, -3.4860262274742126 l2.905021905899048, 0.0 0.0, 1.5977619588375092 l-0.8715065568685532, 2.6145195960998535 -4.067030549049377, 5.955294966697693 l11.184333562850952, -4.212281703948975 -2.178766429424286, 5.08378803730011 l-5.6647926568984985, 8.134061098098755 3.1955239176750183, -0.14525108970701694 l4.793286025524139, -1.0167576372623444 0.2905021794140339, 1.1620087176561356 l-4.067030549049377, 5.08378803730011 -4.938537180423737, 4.212281703948975 l-2.905021905899048, 1.5977619588375092 7.8435587882995605, -1.0167576372623444 l-1.0167576372623444, 2.0335152745246887 -10.02232551574707, 4.357532858848572 l-6.972052454948425, 2.178766429424286 6.972052454948425, -3.050273060798645 l-1.1620087176561356, 1.1620087176561356 -8.86031687259674, 2.7597707509994507 l-10.02232551574707, 1.0167576372623444 -0.8715065568685532, -0.5810043588280678 l0.4357532784342766, -4.357532858848572 -1.1620087176561356, -0.2905021794140339 l-14.379857778549194, 2.6145195960998535 -4.648034870624542, 0.4357532784342766 l-2.6145195960998535, -0.2905021794140339 0.14525108970701694, -1.1620087176561356 l4.212281703948975, -3.9217793941497803 -5.374290347099304, 0.2905021794140339 l-0.14525108970701694, -1.8882642686367035 8.569814562797546, -7.8435587882995605 l0.8715065568685532, -1.452510952949524 -3.9217793941497803, -0.4357532784342766 l-10.458078384399414, 1.1620087176561356 1.5977619588375092, -2.0335152745246887 l7.553057074546814, -5.519541501998901 1.7430131137371063, -1.8882642686367035 l0.14525108970701694, -1.0167576372623444 -1.1620087176561356, -0.4357532784342766 l-3.050273060798645, 0.14525108970701694 -7.1173036098480225, 2.178766429424286 l1.3072597980499268, -1.1620087176561356 11.329585313796997, -6.681550145149231 l-2.905021905899048, 0.2905021794140339 -3.1955239176750183, 1.5977619588375092 l8.279312252998352, -3.4860262274742126 m9.441320896148682, 6.972052454948425 l-0.8715065568685532, 1.7430131137371063 0.0, 1.452510952949524 l0.8715065568685532, 0.726255476474762 2.178766429424286, -0.14525108970701694 l2.178766429424286, -1.5977619588375092 0.8715065568685532, -1.8882642686367035 l0.0, -1.7430131137371063 -1.3072597980499268, -0.726255476474762 l-1.8882642686367035, 0.0 -1.8882642686367035, 0.8715065568685532 l-0.726255476474762, 2.7597707509994507 1.1620087176561356, 0.2905021794140339 m17.284879684448242, -0.726255476474762 l-2.324017435312271, 0.5810043588280678 -1.0167576372623444, 1.8882642686367035 l-0.4357532784342766, 2.905021905899048 1.1620087176561356, 0.2905021794140339 l2.324017435312271, -1.0167576372623444 2.324017435312271, -2.178766429424286 l0.8715065568685532, -2.4692685902118683 0.14525108970701694, -2.0335152745246887 l-1.452510952949524, -1.0167576372623444 -3.776528537273407, 0.2905021794140339 m-20.916156768798828, 14.379857778549194 l0.14525108970701694, 3.3407750725746155 0.8715065568685532, 2.4692685902118683 l2.0335152745246887, 2.0335152745246887 4.067030549049377, 0.726255476474762 l5.08378803730011, 0.0 2.324017435312271, -0.726255476474762 l3.9217793941497803, -2.178766429424286 2.178766429424286, -2.178766429424286 l0.726255476474762, -2.0335152745246887 m-28.904967308044434, -18.882641792297363 l0.2905021794140339, -6.536298990249634 4.357532858848572, -18.737391233444214 l3.1955239176750183, -0.8715065568685532 7.698307633399963, -0.8715065568685532 l15.687117576599121, 0.0 9.441320896148682, 2.324017435312271 l5.08378803730011, 2.324017435312271 2.4692685902118683, 3.1955239176750183 l1.0167576372623444, 3.9217793941497803 0.0, 8.134061098098755 l-1.8882642686367035, 3.1955239176750183 -0.2905021794140339, 1.3072597980499268 m-3.050273060798645, -21.93291425704956 l0.0, -0.726255476474762 2.905021905899048, -2.178766429424286 l3.4860262274742126, -0.2905021794140339 2.7597707509994507, 0.8715065568685532 l2.6145195960998535, 0.0 4.648034870624542, -2.178766429424286 m-8.86031687259674, 14.379857778549194 l1.5977619588375092, -0.14525108970701694 m-3.63127738237381, 6.10054612159729 l0.726255476474762, 0.14525108970701694 m-47.06135272979736, -7.8435587882995605 l-4.067030549049377, 0.14525108970701694 m0.726255476474762, 4.938537180423737 l-4.067030549049377, 2.324017435312271 m12.782095670700073, 4.502783715724945 l-0.5810043588280678, -1.7430131137371063 -2.6145195960998535, -1.8882642686367035 l-1.452510952949524, -0.5810043588280678 -3.3407750725746155, -0.14525108970701694 l-1.3072597980499268, 0.8715065568685532 -0.8715065568685532, 1.3072597980499268 l-0.5810043588280678, 1.5977619588375092 0.0, 3.4860262274742126 " fill="none" stroke="black" stroke-width="1" /></svg>