<?xml version="1.0" encoding="utf-8" ?>
<svg baseProfile="full" height="58.513865750283" version="1.1" width="67.51943236216903" xmlns="http://www.w3.org/2000/svg" xmlns:ev="http://www.w3.org/2001/xml-events" xmlns:xlink="http://www.w3.org/1999/xlink"><defs /><rect fill="white" height="58.513865750283" width="67.51943236216903" x="0" y="0" /><path d="M34.63122194632888, 14.296069908887148 m4.938537180423737, -4.357532858848572 l3.776528537273407, -2.6145195960998535 3.776528537273407, -2.0335152745246887 l1.7430131137371063, -0.2905021794140339 0.8715065568685532, 0.5810043588280678 l-1.1620087176561356, 2.905021905899048 -1.7430131137371063, 2.6145195960998535 l-0.5810043588280678, 2.6145195960998535 0.8715065568685532, 0.2905021794140339 l8.715065717697144, -4.648034870624542 2.905021905899048, -0.8715065568685532 l0.8715065568685532, 0.0 0.5810043588280678, 0.8715065568685532 l-3.4860262274742126, 3.776528537273407 -8.715065717697144, 5.810043811798096 l7.553057074546814, -3.1955239176750183 m5.519541501998901, 0.2905021794140339 l-6.10054612159729, 7.26255476474762 m7.553057074546814, 1.7430131137371063 l-9.877074360847473, 6.10054612159729 0.0, 0.8715065568685532 l1.1620087176561356, 0.2905021794140339 2.905021905899048, -0.2905021794140339 l4.067030549049377, -1.1620087176561356 0.8715065568685532, 0.2905021794140339 l-0.2905021794140339, 0.8715065568685532 -2.324017435312271, 1.7430131137371063 m-4.938537180423737, 3.4860262274742126 l1.1620087176561356, 1.7430131137371063 2.6145195960998535, -0.8715065568685532 l-7.8435587882995605, 4.357532858848572 -3.776528537273407, 1.452510952949524 l-3.4860262274742126, 0.2905021794140339 0.8715065568685532, -0.5810043588280678 l-1.1620087176561356, 1.7430131137371063 -2.0335152745246887, 0.8715065568685532 l-3.1955239176750183, -0.2905021794140339 -4.357532858848572, -3.4860262274742126 l-1.1620087176561356, 3.4860262274742126 -2.324017435312271, 4.357532858848572 l-3.1955239176750183, 3.1955239176750183 -0.8715065568685532, -0.2905021794140339 l-0.5810043588280678, -1.7430131137371063 0.0, -6.10054612159729 l-0.8715065568685532, -0.2905021794140339 -2.0335152745246887, 0.5810043588280678 l-4.357532858848572, 3.1955239176750183 -2.324017435312271, 1.1620087176561356 l-1.7430131137371063, 0.2905021794140339 -0.8715065568685532, -2.0335152745246887 l0.8715065568685532, -6.972052454948425 -0.8715065568685532, -0.5810043588280678 l-1.1620087176561356, 0.0 -4.648034870624542, 2.324017435312271 l-1.7430131137371063, -0.2905021794140339 0.0, -2.324017435312271 l0.8715065568685532, -4.067030549049377 1.1620087176561356, -3.1955239176750183 l0.2905021794140339, 2.0335152745246887 -0.2905021794140339, 0.8715065568685532 l-0.5810043588280678, -0.8715065568685532 0.2905021794140339, -2.324017435312271 l1.452510952949524, -4.067030549049377 2.6145195960998535, -5.229039192199707 l-1.452510952949524, 1.452510952949524 -0.8715065568685532, -0.5810043588280678 l-0.5810043588280678, -2.0335152745246887 0.0, -2.6145195960998535 l0.8715065568685532, -2.324017435312271 1.7430131137371063, -0.5810043588280678 l2.905021905899048, 3.4860262274742126 0.8715065568685532, 0.5810043588280678 l2.0335152745246887, 0.2905021794140339 1.452510952949524, -1.7430131137371063 l2.6145195960998535, -5.519541501998901 2.0335152745246887, -1.452510952949524 l4.357532858848572, -0.2905021794140339 3.776528537273407, -2.905021905899048 l1.7430131137371063, 0.0 1.1620087176561356, 0.8715065568685532 l3.776528537273407, 1.452510952949524 2.905021905899048, 0.0 l2.0335152745246887, -0.5810043588280678 m-6.972052454948425, 7.8435587882995605 l-5.519541501998901, -2.6145195960998535 -4.357532858848572, 1.1620087176561356 l-4.357532858848572, 3.1955239176750183 -0.5810043588280678, 0.8715065568685532 l-1.452510952949524, 2.324017435312271 -0.5810043588280678, 2.0335152745246887 l0.0, 5.229039192199707 1.7430131137371063, 3.776528537273407 l3.1955239176750183, 2.0335152745246887 4.067030549049377, 0.5810043588280678 l3.1955239176750183, -0.2905021794140339 7.553057074546814, -2.324017435312271 l2.905021905899048, -1.7430131137371063 2.324017435312271, -2.324017435312271 l2.324017435312271, -4.357532858848572 0.2905021794140339, -4.067030549049377 l-0.8715065568685532, -3.1955239176750183 -1.452510952949524, -2.6145195960998535 l-1.1620087176561356, -1.1620087176561356 -4.357532858848572, -1.452510952949524 l-2.6145195960998535, 0.2905021794140339 -5.519541501998901, 2.0335152745246887 m-8.715065717697144, 3.1955239176750183 l0.8715065568685532, -3.1955239176750183 0.8715065568685532, -1.1620087176561356 l2.324017435312271, -1.452510952949524 2.0335152745246887, 0.5810043588280678 l3.4860262274742126, 2.905021905899048 m6.681550145149231, -2.0335152745246887 l0.2905021794140339, -2.324017435312271 0.8715065568685532, -0.2905021794140339 l3.1955239176750183, 0.5810043588280678 0.8715065568685532, 0.5810043588280678 l0.5810043588280678, 1.452510952949524 m-14.52510952949524, 12.20109224319458 l2.905021905899048, 0.0 m-3.4860262274742126, 0.5810043588280678 l0.5810043588280678, 0.8715065568685532 1.7430131137371063, 0.8715065568685532 l0.8715065568685532, -0.5810043588280678 0.8715065568685532, -1.7430131137371063 l-1.7430131137371063, 1.452510952949524 1.1620087176561356, -1.7430131137371063 l0.5810043588280678, 0.0 m-2.0335152745246887, 4.648034870624542 l0.0, 2.324017435312271 -4.357532858848572, 1.1620087176561356 l0.0, -0.8715065568685532 0.8715065568685532, -0.5810043588280678 m4.357532858848572, -3.4860262274742126 l1.1620087176561356, 2.6145195960998535 1.1620087176561356, 0.2905021794140339 l1.1620087176561356, -0.2905021794140339 1.452510952949524, -1.7430131137371063 " fill="none" stroke="black" stroke-width="1" /></svg>