<?xml version="1.0" encoding="utf-8" ?>
<svg baseProfile="full" height="48.78204181790352" version="1.1" width="55.899344896897674" xmlns="http://www.w3.org/2000/svg" xmlns:ev="http://www.w3.org/2001/xml-events" xmlns:xlink="http://www.w3.org/1999/xlink"><defs /><rect fill="white" height="48.78204181790352" width="55.899344896897674" x="0" y="0" /><path d="M34.48597234673798, 12.1173036377877 m-12.927347421646118, 0.0 l-3.050273060798645, 1.452510952949524 -2.178766429424286, 2.0335152745246887 l-2.905021905899048, 4.938537180423737 0.0, 4.502783715724945 l1.452510952949524, 2.6145195960998535 3.3407750725746155, 3.4860262274742126 l4.793286025524139, 1.8882642686367035 4.357532858848572, 0.2905021794140339 l8.86031687259674, -2.4692685902118683 1.7430131137371063, -1.8882642686367035 l1.0167576372623444, -2.178766429424286 0.5810043588280678, -2.0335152745246887 l0.2905021794140339, -4.648034870624542 -0.8715065568685532, -2.905021905899048 l-2.6145195960998535, -3.9217793941497803 -2.324017435312271, -1.8882642686367035 m-20.04465103149414, -0.2905021794140339 l0.0, -5.6647926568984985 1.7430131137371063, 0.5810043588280678 l4.938537180423737, 3.3407750725746155 4.793286025524139, 0.14525108970701694 l11.76533818244934, -4.502783715724945 -3.3407750725746155, 3.9217793941497803 l-1.1620087176561356, 2.4692685902118683 3.4860262274742126, 0.0 l7.698307633399963, -1.3072597980499268 4.648034870624542, -0.14525108970701694 l1.7430131137371063, 2.324017435312271 0.5810043588280678, 3.4860262274742126 l-0.2905021794140339, 1.7430131137371063 -2.6145195960998535, 2.4692685902118683 l-2.4692685902118683, 0.14525108970701694 -1.8882642686367035, -0.726255476474762 l0.0, 3.3407750725746155 1.452510952949524, 7.553057074546814 l0.4357532784342766, 5.374290347099304 -0.4357532784342766, 0.726255476474762 l-0.8715065568685532, 0.0 -2.905021905899048, -2.4692685902118683 l-2.324017435312271, -1.1620087176561356 -1.0167576372623444, 0.726255476474762 l-0.5810043588280678, 2.178766429424286 -0.5810043588280678, 6.972052454948425 l-1.1620087176561356, 1.1620087176561356 -1.5977619588375092, 0.0 l-1.1620087176561356, -0.14525108970701694 -2.178766429424286, -1.3072597980499268 l-5.810043811798096, -4.938537180423737 -0.8715065568685532, 0.4357532784342766 l-0.8715065568685532, 1.7430131137371063 -1.5977619588375092, 0.2905021794140339 l-1.1620087176561356, -0.14525108970701694 -7.1173036098480225, -3.9217793941497803 l-8.134061098098755, -0.2905021794140339 0.726255476474762, -1.452510952949524 l3.776528537273407, -3.1955239176750183 -0.14525108970701694, -1.0167576372623444 l-3.9217793941497803, -2.324017435312271 -0.5810043588280678, -1.0167576372623444 l0.0, -1.5977619588375092 1.3072597980499268, -1.452510952949524 l4.502783715724945, -2.7597707509994507 4.212281703948975, -1.7430131137371063 l-3.1955239176750183, -6.10054612159729 4.357532858848572, -0.726255476474762 m9.150818586349487, 11.76533818244934 l0.0, 0.0 m0.0, 0.0 l0.14525108970701694, 4.938537180423737 2.4692685902118683, 1.452510952949524 l1.7430131137371063, 0.0 0.14525108970701694, -0.4357532784342766 m-4.502783715724945, -3.4860262274742126 l-0.2905021794140339, 2.0335152745246887 -1.1620087176561356, 1.3072597980499268 l-1.7430131137371063, 0.2905021794140339 -1.0167576372623444, -2.0335152745246887 m3.3407750725746155, -4.793286025524139 l0.726255476474762, 0.0 0.4357532784342766, -0.726255476474762 l-0.726255476474762, -0.14525108970701694 -0.8715065568685532, 0.0 l-0.14525108970701694, 0.726255476474762 0.726255476474762, 0.5810043588280678 l1.0167576372623444, 0.0 0.14525108970701694, -0.4357532784342766 " fill="none" stroke="black" stroke-width="1" /></svg>