<?xml version="1.0" encoding="utf-8" ?>
<svg baseProfile="full" height="64.1786571778357" version="1.1" width="103.25120039284229" xmlns="http://www.w3.org/2000/svg" xmlns:ev="http://www.w3.org/2001/xml-events" xmlns:xlink="http://www.w3.org/1999/xlink"><defs /><rect fill="white" height="64.1786571778357" width="103.25120039284229" x="0" y="0" /><path d="M46.1060587503016, 15.893833134323359 m-4.648034870624542, -2.4692685902118683 l-15.832369327545166, -4.938537180423737 -2.4692685902118683, 3.3407750725746155 l-3.3407750725746155, 6.826801300048828 -1.0167576372623444, 5.08378803730011 l0.14525108970701694, 5.955294966697693 1.8882642686367035, 8.134061098098755 l1.0167576372623444, 2.324017435312271 2.178766429424286, 2.905021905899048 l5.229039192199707, 2.6145195960998535 5.374290347099304, 1.8882642686367035 l1.7430131137371063, 0.0 4.067030549049377, -1.8882642686367035 l3.050273060798645, -3.050273060798645 2.178766429424286, -3.3407750725746155 l1.0167576372623444, -3.776528537273407 0.14525108970701694, -13.508352041244507 l-1.5977619588375092, -11.620087623596191 m-22.078166007995605, -0.5810043588280678 l1.5977619588375092, -2.905021905899048 1.452510952949524, -1.0167576372623444 l1.8882642686367035, -0.5810043588280678 2.178766429424286, -0.2905021794140339 l0.2905021794140339, 0.8715065568685532 7.407805919647217, 0.5810043588280678 l1.452510952949524, 1.3072597980499268 3.1955239176750183, 0.5810043588280678 l0.14525108970701694, 2.324017435312271 4.212281703948975, 0.8715065568685532 l-0.14525108970701694, 4.067030549049377 3.4860262274742126, 1.7430131137371063 l-0.8715065568685532, 3.776528537273407 1.8882642686367035, 2.7597707509994507 l0.0, 3.1955239176750183 -1.3072597980499268, 3.9217793941497803 l2.0335152745246887, 5.955294966697693 0.14525108970701694, 9.150818586349487 l-2.905021905899048, -4.793286025524139 -1.0167576372623444, 3.1955239176750183 l-0.726255476474762, 6.826801300048828 -1.5977619588375092, -2.4692685902118683 l-1.452510952949524, 2.178766429424286 -1.5977619588375092, 3.776528537273407 l-1.5977619588375092, 1.8882642686367035 -0.8715065568685532, 0.2905021794140339 l-4.793286025524139, -4.212281703948975 -3.63127738237381, 4.502783715724945 l-2.7597707509994507, 1.8882642686367035 -0.726255476474762, -3.3407750725746155 l-0.2905021794140339, -5.08378803730011 -0.8715065568685532, -0.4357532784342766 l-2.4692685902118683, 0.4357532784342766 -8.134061098098755, -0.14525108970701694 l-4.067030549049377, -1.0167576372623444 -0.5810043588280678, -0.726255476474762 l1.7430131137371063, -2.7597707509994507 -2.324017435312271, -1.0167576372623444 l-0.14525108970701694, -0.8715065568685532 0.726255476474762, -2.0335152745246887 l2.7597707509994507, -2.905021905899048 -9.877074360847473, -2.324017435312271 l0.14525108970701694, -0.8715065568685532 3.776528537273407, -3.1955239176750183 l1.1620087176561356, -1.5977619588375092 0.2905021794140339, -1.452510952949524 l-1.7430131137371063, -1.1620087176561356 0.0, -1.1620087176561356 l0.726255476474762, -1.452510952949524 3.050273060798645, -2.4692685902118683 l1.5977619588375092, -0.5810043588280678 -0.8715065568685532, -0.726255476474762 l-7.407805919647217, -1.1620087176561356 0.0, -0.726255476474762 l0.726255476474762, -0.5810043588280678 5.955294966697693, -2.6145195960998535 l-0.4357532784342766, -0.726255476474762 -4.502783715724945, -1.0167576372623444 l1.1620087176561356, -1.0167576372623444 2.905021905899048, -1.3072597980499268 l8.134061098098755, -2.178766429424286 -7.26255476474762, -0.14525108970701694 l-0.14525108970701694, -0.726255476474762 0.726255476474762, -0.2905021794140339 l8.86031687259674, -1.452510952949524 4.502783715724945, -0.2905021794140339 m6.2457966804504395, 11.474835872650146 l-2.178766429424286, 3.9217793941497803 -0.2905021794140339, 2.324017435312271 l0.726255476474762, 0.4357532784342766 2.6145195960998535, -2.0335152745246887 l0.4357532784342766, -1.5977619588375092 -0.2905021794140339, -2.4692685902118683 l-0.726255476474762, -0.8715065568685532 -1.452510952949524, -0.2905021794140339 m6.681550145149231, 1.8882642686367035 l-2.178766429424286, 2.0335152745246887 -0.5810043588280678, 1.1620087176561356 l-0.14525108970701694, 3.3407750725746155 1.1620087176561356, 1.452510952949524 l3.3407750725746155, -0.8715065568685532 1.0167576372623444, -1.5977619588375092 l0.14525108970701694, -4.357532858848572 -0.5810043588280678, -1.7430131137371063 l-0.726255476474762, 0.0 m-8.715065717697144, 11.76533818244934 l1.8882642686367035, 5.6647926568984985 1.8882642686367035, 2.4692685902118683 l0.726255476474762, 0.2905021794140339 1.452510952949524, -1.0167576372623444 l0.2905021794140339, -2.178766429424286 m7.698307633399963, -3.776528537273407 l1.452510952949524, -1.0167576372623444 8.715065717697144, -3.3407750725746155 l9.877074360847473, -1.3072597980499268 6.391047835350037, -0.2905021794140339 l15.687117576599121, -0.14525108970701694 5.519541501998901, 1.1620087176561356 l5.810043811798096, 2.7597707509994507 " fill="none" stroke="black" stroke-width="1" /></svg>