<?xml version="1.0" encoding="utf-8" ?>
<svg baseProfile="full" height="66.93842831999063" version="1.1" width="66.21217224746943" xmlns="http://www.w3.org/2000/svg" xmlns:ev="http://www.w3.org/2001/xml-events" xmlns:xlink="http://www.w3.org/1999/xlink"><defs /><rect fill="white" height="66.93842831999063" width="66.21217224746943" x="0" y="0" /><path d="M24.46364593692124, 18.363100681453943 m-1.7430131137371063, -0.2905021794140339 l-3.776528537273407, 2.905021905899048 -3.3407750725746155, 4.648034870624542 l-1.1620087176561356, 3.4860262274742126 -0.2905021794140339, 5.374290347099304 l0.4357532784342766, 2.324017435312271 1.7430131137371063, 4.793286025524139 l1.8882642686367035, 2.7597707509994507 4.067030549049377, 3.63127738237381 l1.5977619588375092, 0.8715065568685532 2.6145195960998535, 0.8715065568685532 l5.229039192199707, 0.5810043588280678 7.26255476474762, -1.452510952949524 l3.3407750725746155, -2.324017435312271 2.178766429424286, -2.324017435312271 l3.050273060798645, -4.793286025524139 1.452510952949524, -4.212281703948975 l-0.2905021794140339, -4.067030549049377 -1.452510952949524, -3.63127738237381 l-1.8882642686367035, -3.1955239176750183 -3.050273060798645, -2.905021905899048 l-4.648034870624542, -2.4692685902118683 -4.938537180423737, -1.452510952949524 l-6.536298990249634, -1.1620087176561356 m-1.3072597980499268, -9.877074360847473 l4.502783715724945, 1.3072597980499268 4.067030549049377, 0.0 l3.4860262274742126, -0.5810043588280678 5.810043811798096, -2.178766429424286 l0.0, 4.212281703948975 2.178766429424286, 4.067030549049377 l4.067030549049377, 2.905021905899048 3.3407750725746155, 0.4357532784342766 l0.2905021794140339, 0.8715065568685532 -0.5810043588280678, 2.7597707509994507 l0.14525108970701694, 4.212281703948975 1.452510952949524, 3.4860262274742126 l4.502783715724945, 3.1955239176750183 3.050273060798645, 0.5810043588280678 l-2.178766429424286, 2.178766429424286 -1.452510952949524, 3.63127738237381 l-0.726255476474762, 4.357532858848572 0.4357532784342766, 2.7597707509994507 l1.1620087176561356, 1.452510952949524 2.4692685902118683, 1.452510952949524 l-1.7430131137371063, 0.0 -4.357532858848572, 1.1620087176561356 l-4.357532858848572, 1.8882642686367035 -3.1955239176750183, 3.3407750725746155 l-0.726255476474762, 2.4692685902118683 0.14525108970701694, 2.324017435312271 l-11.184333562850952, -1.452510952949524 -4.067030549049377, 0.8715065568685532 l-1.8882642686367035, 0.8715065568685532 -0.726255476474762, 0.5810043588280678 l-1.1620087176561356, 2.324017435312271 1.0167576372623444, -0.8715065568685532 l-0.14525108970701694, -2.0335152745246887 -1.7430131137371063, -3.63127738237381 l-2.6145195960998535, -2.6145195960998535 -2.0335152745246887, -1.3072597980499268 l-3.050273060798645, -1.1620087176561356 -4.212281703948975, -0.14525108970701694 l-1.3072597980499268, -6.391047835350037 -2.178766429424286, -4.357532858848572 l-3.1955239176750183, -2.6145195960998535 -3.1955239176750183, -0.8715065568685532 l3.9217793941497803, -4.648034870624542 1.0167576372623444, -2.178766429424286 l0.8715065568685532, -4.502783715724945 0.0, -3.776528537273407 l-0.5810043588280678, -3.3407750725746155 3.3407750725746155, -0.4357532784342766 l1.8882642686367035, -0.726255476474762 3.050273060798645, -2.324017435312271 l1.0167576372623444, -1.452510952949524 1.452510952949524, -4.793286025524139 l1.0167576372623444, -1.0167576372623444 m-0.4357532784342766, 21.787664890289307 l-0.726255476474762, 2.0335152745246887 1.0167576372623444, 0.726255476474762 l1.7430131137371063, 0.0 1.8882642686367035, -1.0167576372623444 l0.2905021794140339, -0.726255476474762 -1.5977619588375092, -0.726255476474762 l-2.178766429424286, 0.726255476474762 1.3072597980499268, -0.14525108970701694 l0.14525108970701694, 0.726255476474762 -1.452510952949524, 0.0 l-0.5810043588280678, -0.726255476474762 0.726255476474762, -0.5810043588280678 l1.5977619588375092, 0.2905021794140339 m11.184333562850952, -0.2905021794140339 l3.63127738237381, -0.5810043588280678 -1.0167576372623444, 1.1620087176561356 l-0.726255476474762, 0.14525108970701694 -0.726255476474762, -0.5810043588280678 l0.2905021794140339, -0.726255476474762 0.8715065568685532, -0.5810043588280678 l0.8715065568685532, 0.5810043588280678 m-9.441320896148682, 8.86031687259674 l-0.14525108970701694, 0.8715065568685532 1.0167576372623444, 1.0167576372623444 l1.0167576372623444, -0.14525108970701694 1.0167576372623444, -0.5810043588280678 l0.8715065568685532, -1.452510952949524 -0.5810043588280678, -0.726255476474762 l-0.726255476474762, 0.14525108970701694 " fill="none" stroke="black" stroke-width="1" /></svg>