<?xml version="1.0" encoding="utf-8" ?>
<svg baseProfile="full" height="65.63116824254394" version="1.1" width="85.82106870599091" xmlns="http://www.w3.org/2000/svg" xmlns:ev="http://www.w3.org/2001/xml-events" xmlns:xlink="http://www.w3.org/1999/xlink"><defs /><rect fill="white" height="65.63116824254394" width="85.82106870599091" x="0" y="0" /><path d="M11.972050499171019, 24.17314407415688 m-1.7430131137371063, -0.2905021794140339 l-0.8715065568685532, -1.8882642686367035 0.14525108970701694, -3.1955239176750183 l1.0167576372623444, -3.1955239176750183 1.7430131137371063, -2.6145195960998535 l3.050273060798645, -2.7597707509994507 3.63127738237381, -1.8882642686367035 l2.324017435312271, -0.4357532784342766 2.178766429424286, 0.14525108970701694 l0.2905021794140339, 1.452510952949524 1.1620087176561356, 0.0 l8.569814562797546, -3.63127738237381 3.9217793941497803, -0.8715065568685532 l3.4860262274742126, 0.14525108970701694 -0.2905021794140339, 2.905021905899048 l0.14525108970701694, 0.726255476474762 1.0167576372623444, 0.8715065568685532 l9.296069741249084, 0.8715065568685532 4.357532858848572, 1.1620087176561356 l1.452510952949524, 0.8715065568685532 1.0167576372623444, 1.5977619588375092 l-0.726255476474762, 1.5977619588375092 -1.0167576372623444, 0.2905021794140339 m-2.6145195960998535, 3.9217793941497803 l0.8715065568685532, 1.452510952949524 1.0167576372623444, 0.726255476474762 l7.26255476474762, 2.324017435312271 4.357532858848572, 2.178766429424286 l0.8715065568685532, 1.0167576372623444 0.726255476474762, 2.178766429424286 l-1.5977619588375092, 6.10054612159729 0.726255476474762, 2.324017435312271 l1.0167576372623444, 1.1620087176561356 1.8882642686367035, 1.0167576372623444 l7.988809943199158, 3.63127738237381 1.452510952949524, 1.1620087176561356 l0.5810043588280678, 1.3072597980499268 0.14525108970701694, 1.5977619588375092 l-0.8715065568685532, 1.8882642686367035 -3.3407750725746155, 5.229039192199707 l-3.1955239176750183, 2.6145195960998535 -2.178766429424286, 1.1620087176561356 l-2.4692685902118683, 0.8715065568685532 -3.3407750725746155, 0.4357532784342766 l-1.5977619588375092, -0.14525108970701694 -0.4357532784342766, -0.8715065568685532 l-1.1620087176561356, 0.0 -14.08935546875, 1.3072597980499268 l-4.648034870624542, -0.5810043588280678 -2.4692685902118683, -0.8715065568685532 l-1.1620087176561356, -0.5810043588280678 -1.452510952949524, -1.5977619588375092 l-0.8715065568685532, -1.8882642686367035 -1.5977619588375092, -7.8435587882995605 l-1.3072597980499268, -0.14525108970701694 -9.00556743144989, 5.374290347099304 l-4.067030549049377, 1.8882642686367035 -1.7430131137371063, 0.2905021794140339 l-2.0335152745246887, -0.5810043588280678 -1.0167576372623444, -2.324017435312271 l-0.14525108970701694, -1.7430131137371063 0.0, -2.324017435312271 l1.1620087176561356, -4.212281703948975 -1.1620087176561356, -0.5810043588280678 l-6.391047835350037, 0.2905021794140339 -2.7597707509994507, -1.0167576372623444 l-1.3072597980499268, -1.1620087176561356 -1.1620087176561356, -2.6145195960998535 l0.5810043588280678, -3.1955239176750183 1.3072597980499268, -2.178766429424286 l2.0335152745246887, -2.178766429424286 1.7430131137371063, -0.726255476474762 l-0.726255476474762, -0.14525108970701694 -0.14525108970701694, -0.726255476474762 l1.0167576372623444, -4.502783715724945 1.0167576372623444, -2.4692685902118683 l0.8715065568685532, -1.3072597980499268 0.4357532784342766, 0.2905021794140339 m42.994322776794434, -6.2457966804504395 l1.0167576372623444, 0.726255476474762 m-4.938537180423737, 5.229039192199707 l2.178766429424286, 0.726255476474762 5.08378803730011, 0.4357532784342766 m-15.687117576599121, -2.0335152745246887 l-3.776528537273407, -1.452510952949524 -3.63127738237381, 0.14525108970701694 l-4.212281703948975, 1.0167576372623444 -3.1955239176750183, 2.0335152745246887 l-1.452510952949524, 2.0335152745246887 -0.5810043588280678, 2.324017435312271 l0.0, 2.4692685902118683 0.4357532784342766, 1.7430131137371063 l2.7597707509994507, 5.229039192199707 1.1620087176561356, 1.5977619588375092 l3.9217793941497803, 3.1955239176750183 6.10054612159729, 2.324017435312271 l7.698307633399963, 0.0 1.7430131137371063, -0.726255476474762 l2.178766429424286, -2.6145195960998535 0.2905021794140339, -5.229039192199707 l-2.905021905899048, -8.134061098098755 -2.178766429424286, -3.3407750725746155 l-3.63127738237381, -2.905021905899048 -2.6145195960998535, -0.5810043588280678 l-3.776528537273407, 0.14525108970701694 -4.357532858848572, 2.4692685902118683 l0.726255476474762, 0.0 m0.0, 5.519541501998901 l0.0, 0.0 m9.296069741249084, -0.14525108970701694 l0.0, 0.0 m-9.00556743144989, -2.178766429424286 l0.0, 2.178766429424286 0.4357532784342766, 0.726255476474762 l0.726255476474762, -0.2905021794140339 0.14525108970701694, -1.452510952949524 l-0.726255476474762, -0.726255476474762 -0.726255476474762, 0.0 l-0.8715065568685532, 1.0167576372623444 m9.731823205947876, 1.1620087176561356 l0.14525108970701694, 0.726255476474762 1.5977619588375092, 0.5810043588280678 l2.324017435312271, -0.726255476474762 -0.726255476474762, -0.2905021794140339 l-1.0167576372623444, 1.1620087176561356 0.726255476474762, 0.2905021794140339 l0.726255476474762, -0.4357532784342766 0.726255476474762, -0.5810043588280678 l-0.14525108970701694, -0.726255476474762 -0.8715065568685532, -0.4357532784342766 l-3.050273060798645, 0.14525108970701694 " fill="none" stroke="black" stroke-width="1" /></svg>