<?xml version="1.0" encoding="utf-8" ?>
<svg baseProfile="full" height="63.16189929842949" version="1.1" width="72.8937241435051" xmlns="http://www.w3.org/2000/svg" xmlns:ev="http://www.w3.org/2001/xml-events" xmlns:xlink="http://www.w3.org/1999/xlink"><defs /><rect fill="white" height="63.16189929842949" width="72.8937241435051" x="0" y="0" /><path d="M32.88820988498628, 54.38537050038576 m-9.877074360847473, -8.569814562797546 l-2.905021905899048, -3.4860262274742126 -1.0167576372623444, -1.7430131137371063 l-0.4357532784342766, -2.4692685902118683 -0.14525108970701694, -4.648034870624542 l0.4357532784342766, -2.178766429424286 1.1620087176561356, -2.4692685902118683 l3.63127738237381, -4.212281703948975 4.793286025524139, -3.1955239176750183 l4.793286025524139, -1.0167576372623444 4.793286025524139, 0.0 l2.4692685902118683, 1.1620087176561356 2.178766429424286, 1.7430131137371063 l1.8882642686367035, 2.0335152745246887 2.905021905899048, 5.08378803730011 l1.5977619588375092, 5.6647926568984985 0.5810043588280678, 8.279312252998352 l-0.726255476474762, 2.905021905899048 -0.8715065568685532, 1.5977619588375092 l-2.178766429424286, 1.7430131137371063 -8.279312252998352, 2.0335152745246887 l-6.2457966804504395, 0.5810043588280678 m14.52510952949524, -31.519486904144287 l0.14525108970701694, -1.0167576372623444 2.0335152745246887, -0.726255476474762 l3.1955239176750183, 0.14525108970701694 0.726255476474762, 0.5810043588280678 l1.0167576372623444, 3.4860262274742126 0.0, 2.905021905899048 l-0.2905021794140339, 1.0167576372623444 -0.4357532784342766, 0.0 m-30.502729415893555, -2.324017435312271 l-4.793286025524139, -0.5810043588280678 -2.905021905899048, 0.0 l-0.726255476474762, 0.4357532784342766 -1.1620087176561356, 2.178766429424286 l-0.14525108970701694, 3.776528537273407 1.1620087176561356, 1.452510952949524 l2.4692685902118683, 0.5810043588280678 m7.8435587882995605, -11.184333562850952 l-1.8882642686367035, -0.14525108970701694 -0.8715065568685532, -2.324017435312271 l0.0, -3.1955239176750183 0.4357532784342766, -3.63127738237381 l1.1620087176561356, -3.050273060798645 3.1955239176750183, -5.08378803730011 m2.7597707509994507, 16.8491268157959 l-0.5810043588280678, -1.1620087176561356 0.5810043588280678, -2.6145195960998535 l2.0335152745246887, -3.4860262274742126 3.050273060798645, -2.905021905899048 l3.776528537273407, -2.6145195960998535 m2.7597707509994507, 6.972052454948425 l2.178766429424286, -2.178766429424286 3.776528537273407, -2.6145195960998535 l9.150818586349487, -4.793286025524139 m-11.039083003997803, 14.08935546875 l1.3072597980499268, -1.452510952949524 3.776528537273407, -2.4692685902118683 l8.86031687259674, -4.502783715724945 m-6.391047835350037, 20.480403900146484 l12.491593360900879, -5.6647926568984985 m-11.039083003997803, 11.184333562850952 l7.1173036098480225, -2.7597707509994507 7.26255476474762, -1.452510952949524 m-14.08935546875, 13.217849731445312 l1.3072597980499268, 0.8715065568685532 4.648034870624542, 1.5977619588375092 m-7.988809943199158, 5.810043811798096 l3.776528537273407, 2.7597707509994507 m-34.42451000213623, -38.927292823791504 l-9.877074360847473, -4.357532858848572 m0.726255476474762, 15.541867017745972 l-4.648034870624542, -0.2905021794140339 -1.8882642686367035, 1.5977619588375092 m13.94410490989685, 10.458078384399414 l-3.9217793941497803, -0.14525108970701694 -3.1955239176750183, 0.8715065568685532 m9.296069741249084, 2.0335152745246887 l-1.8882642686367035, -0.14525108970701694 -0.726255476474762, 0.4357532784342766 l-1.0167576372623444, 1.1620087176561356 -2.324017435312271, 4.648034870624542 m10.458078384399414, -3.050273060798645 l-1.452510952949524, 0.726255476474762 -1.1620087176561356, 1.8882642686367035 l-2.4692685902118683, 5.955294966697693 m9.731823205947876, -16.12287163734436 l0.726255476474762, -0.4357532784342766 5.08378803730011, -0.14525108970701694 l4.212281703948975, 0.0 2.324017435312271, 0.5810043588280678 l0.4357532784342766, 3.63127738237381 -0.4357532784342766, 3.4860262274742126 l-1.5977619588375092, 0.8715065568685532 -3.1955239176750183, 0.726255476474762 l-3.3407750725746155, 0.0 -1.3072597980499268, -0.4357532784342766 l-2.905021905899048, -4.357532858848572 -1.1620087176561356, -2.905021905899048 m2.7597707509994507, 0.2905021794140339 l-1.452510952949524, 0.2905021794140339 -1.0167576372623444, 0.8715065568685532 l-1.5977619588375092, 4.357532858848572 4.502783715724945, -4.067030549049377 l0.5810043588280678, 2.0335152745246887 -1.0167576372623444, 3.4860262274742126 l3.3407750725746155, -3.1955239176750183 1.0167576372623444, -0.2905021794140339 l0.2905021794140339, 3.1955239176750183 4.357532858848572, -2.6145195960998535 l0.8715065568685532, -0.14525108970701694 0.2905021794140339, 1.0167576372623444 l0.8715065568685532, 0.5810043588280678 0.726255476474762, -0.5810043588280678 l0.0, -3.4860262274742126 -2.0335152745246887, -2.0335152745246887 l-2.6145195960998535, -0.5810043588280678 1.0167576372623444, 0.0 m-10.458078384399414, -11.039083003997803 l-1.3072597980499268, 0.5810043588280678 -1.0167576372623444, 1.7430131137371063 l-0.2905021794140339, 3.63127738237381 0.4357532784342766, 0.8715065568685532 l2.905021905899048, 0.0 1.1620087176561356, -1.8882642686367035 l-0.14525108970701694, -2.324017435312271 -3.1955239176750183, -2.324017435312271 l0.0, -1.1620087176561356 m10.893832445144653, 0.726255476474762 l-0.14525108970701694, 1.0167576372623444 0.8715065568685532, 1.0167576372623444 l2.6145195960998535, -0.4357532784342766 0.0, -1.7430131137371063 l-2.324017435312271, -1.3072597980499268 m9.731823205947876, 19.754148721694946 l2.0335152745246887, 0.8715065568685532 5.519541501998901, 0.8715065568685532 l10.603330135345459, 0.14525108970701694 m-16.994377374649048, -7.988809943199158 l14.379857778549194, 0.14525108970701694 2.6145195960998535, -0.8715065568685532 m-14.379857778549194, -2.6145195960998535 l2.178766429424286, -0.2905021794140339 9.441320896148682, -4.212281703948975 m-10.893832445144653, -4.502783715724945 l0.2905021794140339, -2.0335152745246887 5.229039192199707, -6.536298990249634 m-16.558624505996704, -5.6647926568984985 l-5.229039192199707, -4.938537180423737 m-9.586572051048279, 9.296069741249084 l-12.636845111846924, -3.4860262274742126 m4.648034870624542, 6.2457966804504395 l-1.3072597980499268, -0.4357532784342766 -2.905021905899048, 0.0 l-2.0335152745246887, 0.726255476474762 m5.08378803730011, 19.6088969707489 l-1.452510952949524, 1.1620087176561356 -1.452510952949524, 0.2905021794140339 l-4.357532858848572, 2.324017435312271 m9.586572051048279, 4.067030549049377 l-1.452510952949524, 0.5810043588280678 -3.1955239176750183, 2.4692685902118683 m3.4860262274742126, 0.0 l-3.63127738237381, 0.0 -0.726255476474762, 0.4357532784342766 l-1.5977619588375092, 3.3407750725746155 m21.061408519744873, -23.385426998138428 l0.0, 0.0 m0.2905021794140339, 0.2905021794140339 l-1.0167576372623444, 0.5810043588280678 1.1620087176561356, 0.4357532784342766 " fill="none" stroke="black" stroke-width="1" /></svg>