<?xml version="1.0" encoding="utf-8" ?>
<svg baseProfile="full" height="42.971998155117035" version="1.1" width="42.97199756838381" xmlns="http://www.w3.org/2000/svg" xmlns:ev="http://www.w3.org/2001/xml-events" xmlns:xlink="http://www.w3.org/1999/xlink"><defs /><rect fill="white" height="42.971998155117035" width="42.97199756838381" x="0" y="0" /><path d="M14.00556730106473, 17.92734708636999 m0.5810043588280678, -2.905021905899048 l2.324017435312271, -3.050273060798645 1.452510952949524, -0.5810043588280678 l4.648034870624542, 0.0 3.776528537273407, 1.0167576372623444 l3.3407750725746155, 2.178766429424286 3.3407750725746155, 4.648034870624542 l1.3072597980499268, 3.63127738237381 -0.14525108970701694, 2.0335152745246887 l-1.5977619588375092, 4.502783715724945 -1.452510952949524, 1.8882642686367035 l-1.5977619588375092, 0.8715065568685532 -6.681550145149231, 1.3072597980499268 l-4.648034870624542, 0.0 -3.1955239176750183, -1.1620087176561356 l-2.178766429424286, -1.452510952949524 -3.3407750725746155, -4.938537180423737 l0.0, -11.474835872650146 1.452510952949524, -1.8882642686367035 l2.6145195960998535, -0.4357532784342766 m-1.0167576372623444, 17.284879684448242 l-3.9217793941497803, 6.972052454948425 -0.14525108970701694, -2.4692685902118683 l-2.0335152745246887, -2.7597707509994507 -0.5810043588280678, -1.7430131137371063 l-1.3072597980499268, -9.441320896148682 0.0, -7.698307633399963 l1.1620087176561356, -2.7597707509994507 1.5977619588375092, -2.0335152745246887 l3.9217793941497803, -2.0335152745246887 2.0335152745246887, -0.4357532784342766 l8.42456340789795, 0.0 6.391047835350037, 1.3072597980499268 l8.279312252998352, 5.519541501998901 1.0167576372623444, 5.6647926568984985 l0.14525108970701694, 8.715065717697144 -0.8715065568685532, 2.4692685902118683 l-2.4692685902118683, 2.0335152745246887 -4.212281703948975, 4.793286025524139 l-3.776528537273407, 1.452510952949524 -6.972052454948425, 1.0167576372623444 l-7.8435587882995605, -0.14525108970701694 -1.5977619588375092, -0.726255476474762 l-2.905021905899048, -3.4860262274742126 m10.603330135345459, -17.430131435394287 l-1.5977619588375092, 0.14525108970701694 3.3407750725746155, 0.14525108970701694 l0.0, 1.5977619588375092 -2.4692685902118683, -0.14525108970701694 l-0.14525108970701694, -0.726255476474762 1.3072597980499268, 0.14525108970701694 l1.452510952949524, 1.8882642686367035 m7.698307633399963, 0.8715065568685532 l0.14525108970701694, -0.726255476474762 1.5977619588375092, 0.14525108970701694 l0.0, 1.5977619588375092 -0.726255476474762, 0.0 l-1.3072597980499268, -1.0167576372623444 -0.4357532784342766, -2.0335152745246887 l0.726255476474762, -0.2905021794140339 0.726255476474762, 0.8715065568685532 l-0.14525108970701694, -0.726255476474762 0.4357532784342766, 0.726255476474762 l0.0, 0.8715065568685532 -0.4357532784342766, 0.0 m-7.407805919647217, 5.08378803730011 l0.2905021794140339, -1.5977619588375092 0.8715065568685532, -0.726255476474762 l2.178766429424286, -0.4357532784342766 0.8715065568685532, 0.14525108970701694 l1.5977619588375092, 1.8882642686367035 1.5977619588375092, 0.5810043588280678 l-0.8715065568685532, 0.726255476474762 -4.793286025524139, 1.0167576372623444 l-0.726255476474762, -1.1620087176561356 0.0, -1.1620087176561356 m-1.1620087176561356, 2.6145195960998535 l0.726255476474762, 0.0 -2.6145195960998535, -1.452510952949524 l-2.4692685902118683, 0.2905021794140339 -1.1620087176561356, 1.452510952949524 l0.14525108970701694, 0.726255476474762 2.4692685902118683, 1.452510952949524 l11.910589933395386, 0.0 1.452510952949524, -0.4357532784342766 l0.726255476474762, -0.726255476474762 0.0, -2.324017435312271 l-0.726255476474762, -0.5810043588280678 -1.5977619588375092, 0.0 " fill="none" stroke="black" stroke-width="1" /></svg>