<?xml version="1.0" encoding="utf-8" ?>
<svg baseProfile="full" height="94.39088243991137" version="1.1" width="93.22887672111392" xmlns="http://www.w3.org/2000/svg" xmlns:ev="http://www.w3.org/2001/xml-events" xmlns:xlink="http://www.w3.org/1999/xlink"><defs /><rect fill="white" height="94.39088243991137" width="93.22887672111392" x="0" y="0" /><path d="M52.49710898846388, 12.698306106030941 m-4.212281703948975, 0.0 l-5.519541501998901, 1.3072597980499268 -5.810043811798096, 2.905021905899048 l-2.0335152745246887, 1.7430131137371063 -1.1620087176561356, 1.7430131137371063 l-0.726255476474762, 2.178766429424286 -1.0167576372623444, 5.374290347099304 l-0.5810043588280678, 11.039083003997803 0.726255476474762, 3.776528537273407 l1.7430131137371063, 4.357532858848572 6.2457966804504395, 8.42456340789795 l10.312827825546265, 7.988809943199158 10.312827825546265, 5.6647926568984985 l3.63127738237381, 0.8715065568685532 6.391047835350037, 0.4357532784342766 l2.324017435312271, -0.5810043588280678 3.4860262274742126, -2.4692685902118683 l3.3407750725746155, -9.877074360847473 2.4692685902118683, -10.458078384399414 l0.726255476474762, -8.279312252998352 -1.0167576372623444, -5.955294966697693 l-1.1620087176561356, -3.4860262274742126 -1.8882642686367035, -2.178766429424286 l-7.407805919647217, -4.793286025524139 -11.329585313796997, -8.42456340789795 l-4.502783715724945, -1.452510952949524 -5.374290347099304, -0.5810043588280678 l1.3072597980499268, -0.726255476474762 12.782095670700073, -2.6145195960998535 l6.2457966804504395, -0.726255476474762 1.0167576372623444, 1.3072597980499268 l8.42456340789795, 4.067030549049377 4.648034870624542, 2.7597707509994507 l-4.357532858848572, 2.7597707509994507 -1.1620087176561356, 1.0167576372623444 l-0.4357532784342766, 1.3072597980499268 0.5810043588280678, 1.8882642686367035 l2.4692685902118683, 2.4692685902118683 2.7597707509994507, 1.8882642686367035 l1.8882642686367035, 1.8882642686367035 0.2905021794140339, 1.0167576372623444 l-1.5977619588375092, 3.776528537273407 0.2905021794140339, 1.3072597980499268 l2.324017435312271, 3.9217793941497803 0.2905021794140339, 1.8882642686367035 l-1.0167576372623444, 2.324017435312271 -2.178766429424286, 2.4692685902118683 l-2.905021905899048, 2.324017435312271 -2.324017435312271, 3.9217793941497803 l0.14525108970701694, 2.178766429424286 4.648034870624542, 9.296069741249084 l0.2905021794140339, 2.6145195960998535 -0.5810043588280678, 2.178766429424286 l-2.4692685902118683, 3.1955239176750183 -9.877074360847473, 7.8435587882995605 l-2.7597707509994507, 2.7597707509994507 -1.0167576372623444, 2.0335152745246887 l0.0, 2.324017435312271 1.0167576372623444, 1.3072597980499268 l1.452510952949524, 0.8715065568685532 -1.0167576372623444, 0.5810043588280678 l-12.636845111846924, -0.4357532784342766 -4.067030549049377, -0.5810043588280678 l-2.6145195960998535, -0.8715065568685532 -0.8715065568685532, -1.452510952949524 l-0.14525108970701694, -1.3072597980499268 2.0335152745246887, -6.536298990249634 l-0.5810043588280678, -4.212281703948975 -4.067030549049377, -6.536298990249634 l-7.988809943199158, -7.698307633399963 -32.24574327468872, -27.59770631790161 l-1.452510952949524, -3.050273060798645 0.5810043588280678, -1.5977619588375092 l2.7597707509994507, -1.8882642686367035 -0.5810043588280678, -0.8715065568685532 l0.5810043588280678, -0.8715065568685532 5.6647926568984985, -0.4357532784342766 l-0.5810043588280678, -2.324017435312271 1.7430131137371063, -1.5977619588375092 l5.08378803730011, -2.324017435312271 17.284879684448242, -6.2457966804504395 l5.374290347099304, -2.6145195960998535 1.5977619588375092, -1.5977619588375092 l0.2905021794140339, -0.8715065568685532 -0.726255476474762, -0.8715065568685532 l-3.9217793941497803, 0.0 -1.0167576372623444, 0.4357532784342766 l9.586572051048279, 0.5810043588280678 2.4692685902118683, 1.0167576372623444 l6.2457966804504395, -0.2905021794140339 m-2.4692685902118683, 15.106114149093628 l-4.357532858848572, -0.14525108970701694 -1.1620087176561356, 0.5810043588280678 l-2.0335152745246887, 2.7597707509994507 -0.2905021794140339, 3.776528537273407 l0.5810043588280678, 2.0335152745246887 1.452510952949524, 1.7430131137371063 l1.452510952949524, 0.8715065568685532 3.3407750725746155, 0.2905021794140339 l2.6145195960998535, -1.8882642686367035 1.452510952949524, -2.0335152745246887 l0.2905021794140339, -2.0335152745246887 0.0, -2.4692685902118683 l-1.5977619588375092, -2.178766429424286 m12.34634280204773, 3.3407750725746155 l-1.0167576372623444, 0.0 -3.63127738237381, 2.178766429424286 l-2.324017435312271, 2.6145195960998535 -0.4357532784342766, 1.3072597980499268 l0.5810043588280678, 2.0335152745246887 1.1620087176561356, 0.8715065568685532 l3.9217793941497803, 1.0167576372623444 3.9217793941497803, 0.14525108970701694 l0.8715065568685532, -0.14525108970701694 0.4357532784342766, -1.1620087176561356 l-0.2905021794140339, -1.3072597980499268 -1.5977619588375092, -2.324017435312271 l-1.8882642686367035, -0.14525108970701694 m-16.558624505996704, 10.16757607460022 l0.0, 1.0167576372623444 0.726255476474762, -0.2905021794140339 l4.502783715724945, -4.793286025524139 3.3407750725746155, -2.6145195960998535 l2.0335152745246887, 5.6647926568984985 0.8715065568685532, 1.7430131137371063 l1.7430131137371063, 1.8882642686367035 -8.134061098098755, 0.14525108970701694 l-6.536298990249634, -0.8715065568685532 m-0.8715065568685532, -0.2905021794140339 l-3.4860262274742126, 3.4860262274742126 -0.726255476474762, 0.8715065568685532 l0.2905021794140339, 0.2905021794140339 " fill="none" stroke="black" stroke-width="1" /></svg>