<?xml version="1.0" encoding="utf-8" ?>
<svg baseProfile="full" height="78.55851572938263" version="1.1" width="94.53613551333547" xmlns="http://www.w3.org/2000/svg" xmlns:ev="http://www.w3.org/2001/xml-events" xmlns:xlink="http://www.w3.org/1999/xlink"><defs /><rect fill="white" height="78.55851572938263" width="94.53613551333547" x="0" y="0" /><path d="M21.268122447654605, 21.413373351097107 m3.1955239176750183, -8.279312252998352 l2.178766429424286, -4.067030549049377 1.8882642686367035, -2.7597707509994507 l1.7430131137371063, -1.3072597980499268 3.3407750725746155, 12.055840492248535 l5.810043811798096, -5.810043811798096 2.178766429424286, -1.5977619588375092 l4.648034870624542, -2.6145195960998535 5.229039192199707, -1.5977619588375092 l3.050273060798645, 0.0 0.726255476474762, 1.3072597980499268 l-0.2905021794140339, 9.877074360847473 10.16757607460022, -4.938537180423737 l8.279312252998352, -1.452510952949524 8.42456340789795, 0.14525108970701694 l0.726255476474762, 0.8715065568685532 0.2905021794140339, 1.8882642686367035 l-0.14525108970701694, 8.86031687259674 3.1955239176750183, 1.3072597980499268 l1.8882642686367035, 2.0335152745246887 1.0167576372623444, 1.7430131137371063 l0.726255476474762, 3.3407750725746155 0.0, 3.1955239176750183 l-0.8715065568685532, 3.050273060798645 -1.0167576372623444, 1.1620087176561356 l-2.178766429424286, 2.178766429424286 -3.63127738237381, 1.5977619588375092 l-2.4692685902118683, 5.810043811798096 -2.6145195960998535, 9.00556743144989 l-3.776528537273407, 8.134061098098755 -0.8715065568685532, 0.4357532784342766 l-0.726255476474762, -0.2905021794140339 -3.63127738237381, -3.1955239176750183 l-1.3072597980499268, -0.5810043588280678 -3.3407750725746155, -0.5810043588280678 l-2.0335152745246887, 2.0335152745246887 -5.374290347099304, 8.86031687259674 l-2.324017435312271, 2.0335152745246887 -1.0167576372623444, 0.2905021794140339 l-4.357532858848572, 0.0 -1.3072597980499268, -0.4357532784342766 l-11.184333562850952, -6.391047835350037 -2.7597707509994507, -0.8715065568685532 l-1.452510952949524, 0.0 -8.279312252998352, 7.26255476474762 l-1.7430131137371063, -1.1620087176561356 -8.279312252998352, -14.52510952949524 l-0.8715065568685532, -0.5810043588280678 -5.810043811798096, 1.3072597980499268 l-0.8715065568685532, -1.1620087176561356 0.0, -3.050273060798645 l1.0167576372623444, -3.1955239176750183 1.5977619588375092, -2.178766429424286 l-2.7597707509994507, 0.0 -0.2905021794140339, -6.10054612159729 l0.4357532784342766, -2.6145195960998535 1.3072597980499268, -3.050273060798645 l8.569814562797546, -14.960862398147583 2.7597707509994507, -2.0335152745246887 l1.8882642686367035, -0.726255476474762 3.776528537273407, 0.4357532784342766 m9.731823205947876, 38.636789321899414 l-3.1955239176750183, 1.0167576372623444 -4.212281703948975, -0.14525108970701694 l-2.178766429424286, -1.1620087176561356 -1.1620087176561356, -2.4692685902118683 l-0.14525108970701694, -10.458078384399414 1.452510952949524, -10.312827825546265 l0.8715065568685532, -3.1955239176750183 1.8882642686367035, -4.212281703948975 l2.0335152745246887, -3.1955239176750183 4.212281703948975, -5.08378803730011 l3.9217793941497803, -2.7597707509994507 2.0335152745246887, -0.726255476474762 l3.63127738237381, -0.14525108970701694 2.6145195960998535, 0.8715065568685532 l4.793286025524139, 2.7597707509994507 3.4860262274742126, 3.4860262274742126 l3.776528537273407, 6.972052454948425 2.178766429424286, 5.08378803730011 l0.4357532784342766, 1.1620087176561356 0.14525108970701694, 4.067030549049377 l-1.1620087176561356, 3.050273060798645 -4.793286025524139, 6.10054612159729 l-7.8435587882995605, 5.229039192199707 -15.832369327545166, 5.6647926568984985 l-1.1620087176561356, -0.726255476474762 -0.4357532784342766, -1.7430131137371063 m1.3072597980499268, -31.083734035491943 l2.7597707509994507, 3.776528537273407 3.1955239176750183, 3.050273060798645 " fill="none" stroke="black" stroke-width="1" /></svg>