<?xml version="1.0" encoding="utf-8" ?>
<svg baseProfile="full" height="41.809988440945745" version="1.1" width="39.05021829530597" xmlns="http://www.w3.org/2000/svg" xmlns:ev="http://www.w3.org/2001/xml-events" xmlns:xlink="http://www.w3.org/1999/xlink"><defs /><rect fill="white" height="41.809988440945745" width="39.05021829530597" x="0" y="0" /><path d="M18.072598250582814, 14.00556675158441 m-1.452510952949524, 0.2905021794140339 l-2.178766429424286, 1.5977619588375092 -1.5977619588375092, 2.6145195960998535 l-0.14525108970701694, 3.63127738237381 0.2905021794140339, 1.5977619588375092 l1.452510952949524, 2.0335152745246887 1.1620087176561356, 0.5810043588280678 l1.5977619588375092, 0.4357532784342766 1.7430131137371063, -0.2905021794140339 l2.7597707509994507, -1.8882642686367035 1.452510952949524, -1.8882642686367035 l0.4357532784342766, -2.7597707509994507 -0.4357532784342766, -2.6145195960998535 l-2.4692685902118683, -2.4692685902118683 m0.726255476474762, -2.6145195960998535 l6.391047835350037, -4.212281703948975 -2.324017435312271, 5.955294966697693 l5.519541501998901, -0.726255476474762 3.050273060798645, 0.2905021794140339 l-2.324017435312271, 2.4692685902118683 -3.1955239176750183, 2.178766429424286 l3.3407750725746155, 1.452510952949524 1.452510952949524, 1.8882642686367035 l-0.14525108970701694, 0.8715065568685532 -1.8882642686367035, 0.8715065568685532 l-3.776528537273407, 0.14525108970701694 0.0, 1.8882642686367035 l1.3072597980499268, 5.519541501998901 -0.2905021794140339, 1.452510952949524 l-1.0167576372623444, 0.14525108970701694 -1.0167576372623444, -0.5810043588280678 l-3.63127738237381, -2.905021905899048 -0.5810043588280678, 0.2905021794140339 l-1.8882642686367035, 6.972052454948425 -1.5977619588375092, 0.5810043588280678 l-1.1620087176561356, -1.5977619588375092 -0.2905021794140339, -4.067030549049377 l-0.726255476474762, -0.14525108970701694 -2.6145195960998535, 1.1620087176561356 l-2.0335152745246887, 0.2905021794140339 0.0, -0.726255476474762 l2.7597707509994507, -1.7430131137371063 -0.5810043588280678, -0.4357532784342766 l-6.681550145149231, 0.0 0.0, -0.5810043588280678 l3.3407750725746155, -3.3407750725746155 -0.14525108970701694, -0.5810043588280678 l-3.776528537273407, -0.8715065568685532 -1.0167576372623444, -0.726255476474762 l0.0, -0.726255476474762 0.8715065568685532, -1.0167576372623444 l3.776528537273407, -2.178766429424286 0.0, -0.726255476474762 l-4.502783715724945, -2.324017435312271 -1.0167576372623444, -1.3072597980499268 l3.3407750725746155, 0.4357532784342766 3.4860262274742126, 1.8882642686367035 l-2.4692685902118683, -4.648034870624542 -0.5810043588280678, -2.324017435312271 l0.14525108970701694, -2.178766429424286 1.452510952949524, -0.2905021794140339 l3.050273060798645, 5.519541501998901 0.2905021794140339, -6.391047835350037 l0.5810043588280678, -1.3072597980499268 1.5977619588375092, 0.2905021794140339 l1.0167576372623444, 3.63127738237381 1.0167576372623444, 0.2905021794140339 l2.6145195960998535, -5.08378803730011 0.5810043588280678, 1.0167576372623444 l0.0, 4.067030549049377 2.7597707509994507, -2.7597707509994507 l0.4357532784342766, 0.726255476474762 0.0, 1.7430131137371063 m-8.134061098098755, 9.150818586349487 l0.4357532784342766, -0.2905021794140339 m3.776528537273407, 0.14525108970701694 l0.14525108970701694, 0.5810043588280678 m-2.324017435312271, 2.178766429424286 l-0.726255476474762, 1.8882642686367035 0.726255476474762, 0.4357532784342766 l-0.726255476474762, -0.5810043588280678 " fill="none" stroke="black" stroke-width="1" /></svg>