<?xml version="1.0" encoding="utf-8" ?>
<svg baseProfile="full" height="47.62003334239125" version="1.1" width="55.3183416929096" xmlns="http://www.w3.org/2000/svg" xmlns:ev="http://www.w3.org/2001/xml-events" xmlns:xlink="http://www.w3.org/1999/xlink"><defs /><rect fill="white" height="47.62003334239125" width="55.3183416929096" x="0" y="0" /><path d="M20.396616961807013, 16.910589644685388 m-0.8715065568685532, -3.776528537273407 l-2.4692685902118683, -5.519541501998901 -0.14525108970701694, -0.726255476474762 l0.726255476474762, -0.4357532784342766 4.212281703948975, 0.14525108970701694 l4.502783715724945, 2.178766429424286 2.905021905899048, 2.324017435312271 l1.1620087176561356, 0.2905021794140339 4.502783715724945, -2.324017435312271 l5.08378803730011, -1.452510952949524 6.10054612159729, -2.6145195960998535 l0.2905021794140339, 1.0167576372623444 -2.905021905899048, 7.553057074546814 l-2.6145195960998535, 2.178766429424286 -1.1620087176561356, 2.905021905899048 l6.826801300048828, 4.357532858848572 2.6145195960998535, 3.9217793941497803 l1.1620087176561356, 3.050273060798645 -0.4357532784342766, 0.726255476474762 l-2.6145195960998535, 0.4357532784342766 -6.10054612159729, -0.4357532784342766 l-5.810043811798096, -1.0167576372623444 -0.8715065568685532, 0.2905021794140339 l-0.2905021794140339, 0.8715065568685532 m-15.106114149093628, -12.927347421646118 l-13.94410490989685, -0.5810043588280678 -0.14525108970701694, 0.726255476474762 l1.7430131137371063, 2.905021905899048 3.776528537273407, 3.63127738237381 l3.050273060798645, 1.0167576372623444 1.7430131137371063, 1.3072597980499268 l1.3072597980499268, 8.715065717697144 0.0, 6.536298990249634 l3.050273060798645, 0.4357532784342766 3.3407750725746155, -0.726255476474762 l8.715065717697144, -3.9217793941497803 1.1620087176561356, -0.8715065568685532 l2.0335152745246887, -3.050273060798645 0.8715065568685532, -3.3407750725746155 m-11.620087623596191, -10.16757607460022 l1.452510952949524, 0.4357532784342766 m5.810043811798096, 0.0 l0.8715065568685532, 0.14525108970701694 0.0, 1.3072597980499268 m-3.3407750725746155, -0.5810043588280678 l-1.7430131137371063, 2.0335152745246887 -3.3407750725746155, 2.6145195960998535 l-1.7430131137371063, 2.324017435312271 1.0167576372623444, 0.4357532784342766 l2.7597707509994507, -0.14525108970701694 1.452510952949524, -0.726255476474762 l1.3072597980499268, -1.452510952949524 m-5.810043811798096, 4.793286025524139 l5.08378803730011, 0.0 1.8882642686367035, -0.4357532784342766 l-3.63127738237381, 0.726255476474762 -5.08378803730011, 0.0 l8.569814562797546, 1.7430131137371063 m-7.1173036098480225, -17.86588430404663 l-0.726255476474762, 0.8715065568685532 -1.7430131137371063, 4.938537180423737 l0.0, 4.502783715724945 1.3072597980499268, -9.731823205947876 l0.4357532784342766, -0.726255476474762 1.7430131137371063, -0.4357532784342766 l2.6145195960998535, 0.0 6.391047835350037, -1.0167576372623444 l1.1620087176561356, 3.3407750725746155 0.726255476474762, 5.955294966697693 " fill="none" stroke="black" stroke-width="1" /></svg>