<?xml version="1.0" encoding="utf-8" ?>
<svg baseProfile="full" height="47.184279365465045" version="1.1" width="63.888154746964574" xmlns="http://www.w3.org/2000/svg" xmlns:ev="http://www.w3.org/2001/xml-events" xmlns:xlink="http://www.w3.org/1999/xlink"><defs /><rect fill="white" height="47.184279365465045" width="63.888154746964574" x="0" y="0" /><path d="M16.47483605891466, 17.055839924141765 m-1.452510952949524, 0.8715065568685532 l-1.5977619588375092, 2.178766429424286 -6.536298990249634, 3.050273060798645 l-1.3072597980499268, 1.3072597980499268 -0.5810043588280678, 1.452510952949524 l0.0, 0.726255476474762 2.178766429424286, 1.1620087176561356 l7.988809943199158, 1.8882642686367035 2.178766429424286, 0.0 l6.536298990249634, -1.452510952949524 0.726255476474762, -0.4357532784342766 l1.452510952949524, -3.050273060798645 -0.4357532784342766, -4.357532858848572 l-1.8882642686367035, -2.0335152745246887 -2.905021905899048, -1.452510952949524 l-2.905021905899048, -0.5810043588280678 -2.4692685902118683, 0.726255476474762 m0.5810043588280678, 2.4692685902118683 l-0.726255476474762, 0.0 -0.4357532784342766, 0.726255476474762 l0.5810043588280678, 0.726255476474762 1.5977619588375092, -0.14525108970701694 l0.4357532784342766, -2.178766429424286 -0.726255476474762, -0.14525108970701694 l0.0, 0.726255476474762 m-9.296069741249084, 7.407805919647217 l4.357532858848572, -0.14525108970701694 2.4692685902118683, -0.8715065568685532 m-2.4692685902118683, 0.726255476474762 l1.452510952949524, 0.8715065568685532 0.2905021794140339, -1.1620087176561356 m0.4357532784342766, -7.698307633399963 l-4.793286025524139, -8.279312252998352 -1.5977619588375092, -5.08378803730011 l12.491593360900879, 5.229039192199707 2.324017435312271, -3.776528537273407 l2.178766429424286, -1.1620087176561356 -0.2905021794140339, 7.698307633399963 l0.726255476474762, 0.14525108970701694 2.324017435312271, -1.5977619588375092 l4.502783715724945, -1.5977619588375092 5.08378803730011, -0.8715065568685532 l0.4357532784342766, 0.726255476474762 -0.5810043588280678, 0.726255476474762 l-4.793286025524139, 3.63127738237381 -2.324017435312271, 2.4692685902118683 l-0.5810043588280678, 1.452510952949524 5.229039192199707, -1.0167576372623444 l5.08378803730011, 0.0 -0.14525108970701694, 0.726255476474762 l-1.452510952949524, 1.5977619588375092 -6.536298990249634, 4.938537180423737 l0.726255476474762, 0.5810043588280678 7.407805919647217, -0.14525108970701694 l0.726255476474762, 0.14525108970701694 0.2905021794140339, 0.726255476474762 l-5.955294966697693, 2.6145195960998535 -2.0335152745246887, 1.7430131137371063 l0.0, 0.726255476474762 1.8882642686367035, 2.7597707509994507 l0.0, 3.776528537273407 -0.4357532784342766, 1.452510952949524 l-1.452510952949524, 0.2905021794140339 -0.8715065568685532, -0.5810043588280678 l-3.1955239176750183, -3.776528537273407 -1.5977619588375092, -1.3072597980499268 l-0.726255476474762, 0.0 -0.726255476474762, 5.374290347099304 l-1.452510952949524, 2.4692685902118683 -2.178766429424286, 1.0167576372623444 l-0.726255476474762, -0.4357532784342766 -5.229039192199707, -7.988809943199158 l-0.726255476474762, 1.452510952949524 -0.4357532784342766, 5.08378803730011 l-0.8715065568685532, -4.648034870624542 0.0, -6.536298990249634 m24.256932735443115, -12.055840492248535 l15.832369327545166, 0.0 5.08378803730011, 0.726255476474762 " fill="none" stroke="black" stroke-width="1" /></svg>