<?xml version="1.0" encoding="utf-8" ?>
<svg baseProfile="full" height="72.74847177788615" version="1.1" width="86.54732557013631" xmlns="http://www.w3.org/2000/svg" xmlns:ev="http://www.w3.org/2001/xml-events" xmlns:xlink="http://www.w3.org/1999/xlink"><defs /><rect fill="white" height="72.74847177788615" width="86.54732557013631" x="0" y="0" /><path d="M45.67030558362603, 16.039081225171685 m0.0, -0.726255476474762 l-1.8882642686367035, -1.0167576372623444 -3.9217793941497803, -0.4357532784342766 l-3.050273060798645, 1.8882642686367035 -2.7597707509994507, 3.1955239176750183 l-0.8715065568685532, 4.357532858848572 0.0, 5.374290347099304 l1.3072597980499268, 15.251364707946777 0.8715065568685532, 4.502783715724945 l0.8715065568685532, 1.8882642686367035 2.0335152745246887, 3.050273060798645 l1.5977619588375092, 1.1620087176561356 4.357532858848572, 0.726255476474762 l3.3407750725746155, -0.5810043588280678 3.4860262274742126, -2.324017435312271 l1.5977619588375092, -2.0335152745246887 2.7597707509994507, -5.08378803730011 l1.3072597980499268, -3.63127738237381 0.5810043588280678, -3.9217793941497803 l-0.14525108970701694, -4.067030549049377 -2.905021905899048, -7.698307633399963 l-1.5977619588375092, -5.6647926568984985 -1.452510952949524, -1.8882642686367035 l-2.178766429424286, -1.5977619588375092 -3.63127738237381, -1.3072597980499268 m-2.905021905899048, 30.35747766494751 l0.0, 3.63127738237381 2.324017435312271, -1.452510952949524 l0.4357532784342766, -0.726255476474762 1.452510952949524, 2.324017435312271 l0.726255476474762, 0.2905021794140339 2.178766429424286, -3.776528537273407 l2.178766429424286, 0.2905021794140339 0.2905021794140339, -0.726255476474762 l-1.0167576372623444, -2.6145195960998535 -0.8715065568685532, -1.452510952949524 l-0.726255476474762, -0.14525108970701694 -6.2457966804504395, 4.212281703948975 l-1.5977619588375092, -1.7430131137371063 m-4.648034870624542, -20.770905017852783 l-0.14525108970701694, 3.9217793941497803 1.0167576372623444, 4.212281703948975 m5.6647926568984985, -6.391047835350037 l3.050273060798645, 5.519541501998901 m-11.76533818244934, -19.173144102096558 l-1.5977619588375092, -2.0335152745246887 -3.776528537273407, -0.5810043588280678 l-6.972052454948425, 1.452510952949524 -5.08378803730011, 3.776528537273407 l-0.726255476474762, 1.0167576372623444 -0.4357532784342766, 1.8882642686367035 l0.14525108970701694, 1.1620087176561356 0.726255476474762, 1.0167576372623444 l1.7430131137371063, 1.8882642686367035 9.586572051048279, 7.407805919647217 l0.14525108970701694, 0.726255476474762 -1.8882642686367035, 1.5977619588375092 l-6.10054612159729, 1.7430131137371063 -9.441320896148682, 3.4860262274742126 l-4.357532858848572, 3.63127738237381 -1.7430131137371063, 2.6145195960998535 l0.4357532784342766, 1.7430131137371063 0.8715065568685532, 1.0167576372623444 l2.7597707509994507, 2.324017435312271 5.810043811798096, 2.0335152745246887 l7.407805919647217, 0.8715065568685532 7.26255476474762, -0.4357532784342766 l-1.1620087176561356, 5.374290347099304 -0.14525108970701694, 4.648034870624542 l1.5977619588375092, 3.050273060798645 4.212281703948975, 2.6145195960998535 l4.502783715724945, 0.5810043588280678 4.502783715724945, -0.4357532784342766 l8.279312252998352, -2.6145195960998535 3.050273060798645, -2.0335152745246887 l5.08378803730011, 2.6145195960998535 5.6647926568984985, 2.178766429424286 l7.698307633399963, 1.8882642686367035 3.63127738237381, 0.2905021794140339 l0.726255476474762, -0.726255476474762 0.4357532784342766, -2.178766429424286 l-0.14525108970701694, -2.324017435312271 -1.3072597980499268, -4.938537180423737 l-2.6145195960998535, -5.6647926568984985 -3.776528537273407, -4.648034870624542 l0.726255476474762, -0.726255476474762 5.229039192199707, -2.324017435312271 l3.050273060798645, -2.7597707509994507 1.3072597980499268, -2.0335152745246887 l0.8715065568685532, -2.7597707509994507 0.5810043588280678, -6.681550145149231 l-0.5810043588280678, -4.793286025524139 -1.1620087176561356, -2.6145195960998535 l-0.726255476474762, -0.8715065568685532 -2.178766429424286, -1.1620087176561356 l-13.363100290298462, -4.357532858848572 -0.726255476474762, -0.5810043588280678 l-0.14525108970701694, -2.178766429424286 -1.3072597980499268, -1.5977619588375092 l-3.3407750725746155, -1.1620087176561356 -2.4692685902118683, -1.452510952949524 l-5.374290347099304, -1.0167576372623444 -3.3407750725746155, 1.3072597980499268 l-5.229039192199707, -2.324017435312271 -2.178766429424286, -1.8882642686367035 l-1.7430131137371063, -0.2905021794140339 -4.502783715724945, 1.1620087176561356 l-1.7430131137371063, 1.452510952949524 " fill="none" stroke="black" stroke-width="1" /></svg>