<?xml version="1.0" encoding="utf-8" ?>
<svg baseProfile="full" height="60.402130614966154" version="1.1" width="92.7931221947074" xmlns="http://www.w3.org/2000/svg" xmlns:ev="http://www.w3.org/2001/xml-events" xmlns:xlink="http://www.w3.org/1999/xlink"><defs /><rect fill="white" height="60.402130614966154" width="92.7931221947074" x="0" y="0" /><path d="M23.592137154191732, 11.82680201716721 m-5.229039192199707, 1.0167576372623444 l-3.776528537273407, 2.324017435312271 -2.7597707509994507, 2.7597707509994507 l-0.8715065568685532, 2.905021905899048 0.4357532784342766, 6.2457966804504395 l0.726255476474762, 1.452510952949524 1.452510952949524, 1.1620087176561356 l1.452510952949524, 0.4357532784342766 3.9217793941497803, 0.0 l6.2457966804504395, -2.178766429424286 2.4692685902118683, -1.452510952949524 l1.3072597980499268, -1.452510952949524 0.5810043588280678, -1.452510952949524 l0.0, -3.1955239176750183 -0.5810043588280678, -3.050273060798645 l-1.8882642686367035, -2.905021905899048 -1.452510952949524, -0.726255476474762 l-2.0335152745246887, 0.14525108970701694 m-2.6145195960998535, 16.413373947143555 l5.810043811798096, -1.452510952949524 2.7597707509994507, 0.0 l1.7430131137371063, 1.0167576372623444 0.726255476474762, 1.452510952949524 l1.0167576372623444, 2.905021905899048 0.0, 1.452510952949524 l-2.324017435312271, 15.832369327545166 m2.6145195960998535, -16.558624505996704 l1.452510952949524, 0.5810043588280678 2.178766429424286, 2.0335152745246887 l3.050273060798645, 6.972052454948425 1.452510952949524, 6.826801300048828 l0.0, 2.7597707509994507 -0.5810043588280678, 1.0167576372623444 m-9.441320896148682, -22.659170627593994 l26.87145233154297, -2.7597707509994507 10.312827825546265, -0.2905021794140339 l0.8715065568685532, 13.072597980499268 0.0, 3.3407750725746155 l-0.5810043588280678, 2.7597707509994507 m0.4357532784342766, -17.86588430404663 l2.178766429424286, 0.5810043588280678 1.7430131137371063, 2.324017435312271 l1.7430131137371063, 3.9217793941497803 2.6145195960998535, 7.407805919647217 l0.4357532784342766, 5.810043811798096 m-9.296069741249084, -22.22341775894165 l9.441320896148682, -7.988809943199158 5.229039192199707, -5.6647926568984985 l3.1955239176750183, -5.955294966697693 0.2905021794140339, -3.9217793941497803 m-76.83782577514648, 18.44688892364502 l-4.502783715724945, -3.1955239176750183 -0.5810043588280678, -2.178766429424286 l2.905021905899048, -0.14525108970701694 1.7430131137371063, 1.8882642686367035 l0.14525108970701694, -4.357532858848572 0.8715065568685532, -2.4692685902118683 l1.8882642686367035, 0.2905021794140339 1.8882642686367035, 2.324017435312271 l1.1620087176561356, -3.9217793941497803 1.8882642686367035, -2.905021905899048 l0.726255476474762, -0.2905021794140339 2.324017435312271, 3.776528537273407 l2.6145195960998535, -3.9217793941497803 0.8715065568685532, -0.726255476474762 l2.324017435312271, -0.726255476474762 0.5810043588280678, 1.452510952949524 l-0.14525108970701694, 4.357532858848572 3.050273060798645, -2.324017435312271 l3.1955239176750183, -0.8715065568685532 0.5810043588280678, 1.0167576372623444 l-0.2905021794140339, 2.4692685902118683 -1.452510952949524, 2.6145195960998535 l-2.0335152745246887, 1.7430131137371063 0.8715065568685532, -0.4357532784342766 l2.6145195960998535, 0.0 1.1620087176561356, 1.0167576372623444 l-0.2905021794140339, 2.905021905899048 -1.3072597980499268, 1.3072597980499268 l-2.4692685902118683, 1.1620087176561356 1.452510952949524, 0.14525108970701694 l-0.14525108970701694, 1.452510952949524 -0.5810043588280678, 0.726255476474762 l-3.1955239176750183, 2.0335152745246887 -1.5977619588375092, 0.0 m-12.782095670700073, -7.698307633399963 l0.0, 0.726255476474762 1.452510952949524, 0.726255476474762 l1.452510952949524, -0.14525108970701694 0.4357532784342766, -0.726255476474762 l-0.2905021794140339, -0.726255476474762 -2.178766429424286, 0.0 l1.7430131137371063, 0.5810043588280678 m6.681550145149231, -1.1620087176561356 l-0.726255476474762, 0.4357532784342766 -0.14525108970701694, 0.726255476474762 l0.726255476474762, 0.5810043588280678 1.452510952949524, -0.2905021794140339 l0.0, -0.726255476474762 -1.5977619588375092, -0.14525108970701694 l-0.8715065568685532, 0.2905021794140339 -0.4357532784342766, 0.726255476474762 l0.2905021794140339, 0.726255476474762 2.4692685902118683, -0.14525108970701694 l0.5810043588280678, -0.726255476474762 -0.4357532784342766, -0.726255476474762 l-1.452510952949524, -0.14525108970701694 -0.14525108970701694, 0.4357532784342766 m-4.212281703948975, 3.63127738237381 l-2.178766429424286, 1.0167576372623444 0.2905021794140339, 0.726255476474762 l2.4692685902118683, -0.14525108970701694 0.2905021794140339, -0.726255476474762 l-0.4357532784342766, -0.726255476474762 -0.8715065568685532, -0.2905021794140339 m-0.4357532784342766, 1.3072597980499268 l0.0, -0.14525108970701694 m-1.5977619588375092, 2.324017435312271 l4.648034870624542, -0.4357532784342766 -3.3407750725746155, 0.8715065568685532 l2.905021905899048, -0.14525108970701694 -1.0167576372623444, -0.14525108970701694 m22.078166007995605, 28.033461570739746 l-3.63127738237381, -1.3072597980499268 -0.4357532784342766, -0.726255476474762 l2.6145195960998535, -2.6145195960998535 0.14525108970701694, -2.178766429424286 l-1.3072597980499268, -3.9217793941497803 -2.905021905899048, -4.938537180423737 m-4.502783715724945, 10.603330135345459 l-1.452510952949524, 0.14525108970701694 -2.178766429424286, -1.452510952949524 l-0.14525108970701694, -2.324017435312271 3.4860262274742126, -7.553057074546814 l3.050273060798645, -4.502783715724945 m1.1620087176561356, 2.6145195960998535 l0.2905021794140339, 0.726255476474762 9.00556743144989, 2.905021905899048 l3.1955239176750183, 4.793286025524139 1.7430131137371063, 0.0 l4.067030549049377, -1.452510952949524 8.134061098098755, -4.793286025524139 l2.178766429424286, -0.5810043588280678 2.178766429424286, 0.4357532784342766 l2.7597707509994507, -3.776528537273407 1.5977619588375092, -0.14525108970701694 m-1.7430131137371063, 13.653602600097656 l4.938537180423737, 1.452510952949524 -0.4357532784342766, -3.4860262274742126 l0.14525108970701694, -7.988809943199158 -1.1620087176561356, -1.8882642686367035 m4.648034870624542, 11.329585313796997 l3.050273060798645, 0.8715065568685532 0.726255476474762, -0.5810043588280678 l0.5810043588280678, -3.1955239176750183 -3.776528537273407, -4.938537180423737 l-1.452510952949524, -2.6145195960998535 -0.4357532784342766, -1.8882642686367035 m12.491593360900879, -30.6479811668396 l-9.150818586349487, 3.050273060798645 -3.9217793941497803, 2.324017435312271 l-0.726255476474762, 1.452510952949524 0.8715065568685532, 0.4357532784342766 l1.8882642686367035, -0.14525108970701694 6.681550145149231, -2.0335152745246887 l0.8715065568685532, 0.0 0.0, 0.726255476474762 l-5.6647926568984985, 5.08378803730011 -1.5977619588375092, 2.178766429424286 l0.8715065568685532, 0.14525108970701694 3.776528537273407, -2.6145195960998535 l-6.536298990249634, 4.067030549049377 -2.324017435312271, 1.8882642686367035 l1.1620087176561356, -0.14525108970701694 4.938537180423737, -3.776528537273407 l2.6145195960998535, -2.7597707509994507 -1.3072597980499268, -0.14525108970701694 l-2.178766429424286, 0.8715065568685532 -4.793286025524139, 2.4692685902118683 l-1.8882642686367035, 1.452510952949524 -0.4357532784342766, 0.726255476474762 l1.452510952949524, 0.2905021794140339 4.502783715724945, -1.0167576372623444 l4.793286025524139, -2.0335152745246887 0.8715065568685532, -1.3072597980499268 l-2.905021905899048, 0.726255476474762 -7.698307633399963, 4.212281703948975 l0.8715065568685532, 0.5810043588280678 1.7430131137371063, 0.0 l2.905021905899048, -0.726255476474762 -5.08378803730011, 2.4692685902118683 l-0.8715065568685532, 3.3407750725746155 0.726255476474762, -0.14525108970701694 l-0.14525108970701694, 1.0167576372623444 " fill="none" stroke="black" stroke-width="1" /></svg>