<?xml version="1.0" encoding="utf-8" ?>
<svg baseProfile="full" height="128.3796400204301" version="1.1" width="134.62544177658856" xmlns="http://www.w3.org/2000/svg" xmlns:ev="http://www.w3.org/2001/xml-events" xmlns:xlink="http://www.w3.org/1999/xlink"><defs /><rect fill="white" height="128.3796400204301" width="134.62544177658856" x="0" y="0" /><path d="M81.98308290913701, 42.76528377085924 m-2.178766429424286, -2.178766429424286 l-3.4860262274742126, -2.0335152745246887 -6.972052454948425, -2.0335152745246887 l-6.2457966804504395, -0.8715065568685532 -7.8435587882995605, 0.2905021794140339 l-5.519541501998901, 1.0167576372623444 -3.3407750725746155, 1.3072597980499268 l-3.776528537273407, 3.050273060798645 -0.8715065568685532, 1.1620087176561356 l-2.0335152745246887, 5.374290347099304 -0.8715065568685532, 6.681550145149231 l0.0, 7.8435587882995605 1.8882642686367035, 7.553057074546814 l2.324017435312271, 4.357532858848572 4.793286025524139, 5.08378803730011 l6.10054612159729, 3.776528537273407 6.826801300048828, 2.178766429424286 l7.407805919647217, 1.1620087176561356 7.1173036098480225, 0.2905021794140339 l7.1173036098480225, -0.5810043588280678 6.2457966804504395, -1.7430131137371063 l3.63127738237381, -1.5977619588375092 3.1955239176750183, -2.0335152745246887 l2.178766429424286, -2.905021905899048 2.0335152745246887, -5.374290347099304 l0.5810043588280678, -8.279312252998352 -1.452510952949524, -7.1173036098480225 l-3.050273060798645, -6.972052454948425 -5.955294966697693, -8.134061098098755 l-6.391047835350037, -5.229039192199707 -4.357532858848572, -2.0335152745246887 l-4.357532858848572, -0.2905021794140339 -1.3072597980499268, 0.726255476474762 m-22.949671745300293, -22.659170627593994 l-8.42456340789795, -3.050273060798645 -3.776528537273407, -0.726255476474762 l-2.905021905899048, 0.0 -5.810043811798096, 1.7430131137371063 l-2.4692685902118683, 2.905021905899048 -1.0167576372623444, 2.178766429424286 l-1.0167576372623444, 4.938537180423737 0.4357532784342766, 6.681550145149231 l1.8882642686367035, 6.536298990249634 5.6647926568984985, 11.910589933395386 l-1.3072597980499268, 0.5810043588280678 -8.569814562797546, 0.0 l-2.4692685902118683, 0.5810043588280678 -4.938537180423737, 2.6145195960998535 l-2.0335152745246887, 1.8882642686367035 -1.452510952949524, 2.178766429424286 l-1.5977619588375092, 4.067030549049377 -0.14525108970701694, 4.067030549049377 l0.726255476474762, 2.4692685902118683 0.8715065568685532, 2.324017435312271 l3.4860262274742126, 5.810043811798096 12.636845111846924, 15.251364707946777 l0.5810043588280678, 1.1620087176561356 -1.1620087176561356, 2.905021905899048 l0.0, 1.1620087176561356 1.0167576372623444, 3.63127738237381 l1.3072597980499268, 2.324017435312271 3.9217793941497803, 4.938537180423737 l5.229039192199707, 4.357532858848572 6.536298990249634, 3.3407750725746155 l32.100491523742676, 10.458078384399414 5.955294966697693, 1.3072597980499268 l3.050273060798645, 0.2905021794140339 2.6145195960998535, -0.4357532784342766 l8.569814562797546, -3.4860262274742126 13.072597980499268, -6.826801300048828 l3.3407750725746155, -2.6145195960998535 1.452510952949524, -1.7430131137371063 l2.905021905899048, 0.14525108970701694 2.324017435312271, -1.3072597980499268 l2.7597707509994507, -3.050273060798645 1.3072597980499268, -2.4692685902118683 l2.6145195960998535, -6.391047835350037 0.8715065568685532, -3.63127738237381 l1.0167576372623444, -8.42456340789795 0.0, -9.150818586349487 l-2.0335152745246887, -11.76533818244934 -0.8715065568685532, -3.3407750725746155 l-4.357532858848572, -9.731823205947876 -2.6145195960998535, -3.776528537273407 l-1.452510952949524, -1.1620087176561356 -4.938537180423737, -6.10054612159729 l1.5977619588375092, -2.4692685902118683 0.14525108970701694, -4.212281703948975 l-1.8882642686367035, -9.296069741249084 -3.3407750725746155, -8.42456340789795 l-3.1955239176750183, -5.955294966697693 -2.6145195960998535, -2.6145195960998535 l-3.3407750725746155, -0.14525108970701694 -9.00556743144989, 1.452510952949524 l-26.87145233154297, 1.0167576372623444 -6.536298990249634, 0.8715065568685532 l-6.10054612159729, 1.3072597980499268 -11.910589933395386, 3.9217793941497803 l1.0167576372623444, 1.5977619588375092 m71.46353721618652, 12.491593360900879 l0.0, -0.726255476474762 2.0335152745246887, -1.7430131137371063 l13.508352041244507, -6.536298990249634 -0.2905021794140339, 2.6145195960998535 l-3.050273060798645, 7.1173036098480225 -5.810043811798096, 6.826801300048828 l-1.1620087176561356, 1.7430131137371063 -0.4357532784342766, 1.7430131137371063 m-93.54170799255371, -11.039083003997803 l-4.067030549049377, -2.324017435312271 -2.6145195960998535, -0.8715065568685532 l-7.8435587882995605, -0.5810043588280678 -3.4860262274742126, 1.0167576372623444 l-1.0167576372623444, 2.0335152745246887 0.2905021794140339, 1.3072597980499268 l3.776528537273407, 3.63127738237381 10.312827825546265, 5.229039192199707 l7.407805919647217, 2.905021905899048 " fill="none" stroke="black" stroke-width="1" /></svg>