<?xml version="1.0" encoding="utf-8" ?>
<svg baseProfile="full" height="45.731769036501646" version="1.1" width="50.52505433559418" xmlns="http://www.w3.org/2000/svg" xmlns:ev="http://www.w3.org/2001/xml-events" xmlns:xlink="http://www.w3.org/1999/xlink"><defs /><rect fill="white" height="45.731769036501646" width="50.52505433559418" x="0" y="0" /><path d="M15.312826428562403, 16.765339048579335 m0.5810043588280678, 8.42456340789795 l6.10054612159729, 6.391047835350037 4.357532858848572, -2.324017435312271 l5.08378803730011, -4.212281703948975 0.4357532784342766, -8.715065717697144 l0.0, -0.5810043588280678 -0.5810043588280678, -0.2905021794140339 l-12.491593360900879, 0.0 -3.4860262274742126, -0.5810043588280678 m0.0, -0.14525108970701694 l-0.726255476474762, -0.2905021794140339 -2.0335152745246887, -2.4692685902118683 l-1.452510952949524, -2.4692685902118683 0.0, -1.5977619588375092 l2.324017435312271, -1.0167576372623444 3.050273060798645, 0.5810043588280678 l4.357532858848572, 2.7597707509994507 1.3072597980499268, 1.8882642686367035 l0.0, 0.5810043588280678 0.8715065568685532, -2.6145195960998535 l1.8882642686367035, -2.0335152745246887 m7.988809943199158, 7.988809943199158 l-1.1620087176561356, -3.050273060798645 -0.2905021794140339, -3.050273060798645 l0.5810043588280678, -3.63127738237381 1.452510952949524, -1.3072597980499268 l2.0335152745246887, 0.14525108970701694 1.452510952949524, 0.8715065568685532 l0.2905021794140339, 2.178766429424286 -1.7430131137371063, 4.212281703948975 l-3.3407750725746155, 3.63127738237381 m-17.284879684448242, -1.452510952949524 l-2.324017435312271, 0.4357532784342766 -1.8882642686367035, 1.7430131137371063 l-0.4357532784342766, 3.63127738237381 0.2905021794140339, 2.4692685902118683 l-2.324017435312271, 0.14525108970701694 -2.4692685902118683, 1.0167576372623444 l-0.726255476474762, 1.3072597980499268 2.6145195960998535, 3.776528537273407 l4.067030549049377, 1.3072597980499268 4.502783715724945, 0.0 l-1.8882642686367035, 2.905021905899048 -0.14525108970701694, 2.4692685902118683 l0.726255476474762, 0.8715065568685532 1.1620087176561356, 0.2905021794140339 l1.5977619588375092, -0.2905021794140339 0.0, 2.7597707509994507 l1.452510952949524, 1.3072597980499268 2.905021905899048, -0.4357532784342766 l1.7430131137371063, -1.3072597980499268 1.1620087176561356, 0.726255476474762 l2.4692685902118683, -0.14525108970701694 1.5977619588375092, -1.0167576372623444 l2.324017435312271, 0.8715065568685532 0.5810043588280678, -0.14525108970701694 l0.14525108970701694, -1.3072597980499268 4.648034870624542, 0.5810043588280678 l1.452510952949524, -0.8715065568685532 0.5810043588280678, -1.1620087176561356 l0.0, -1.8882642686367035 -0.726255476474762, -2.324017435312271 l4.357532858848572, -0.4357532784342766 2.324017435312271, -1.1620087176561356 l0.8715065568685532, -3.050273060798645 -2.178766429424286, -3.63127738237381 l-1.8882642686367035, -1.1620087176561356 0.14525108970701694, -2.905021905899048 l-4.793286025524139, -5.519541501998901 -3.1955239176750183, 0.4357532784342766 l-2.178766429424286, 1.1620087176561356 -1.1620087176561356, 1.1620087176561356 " fill="none" stroke="black" stroke-width="1" /></svg>