<?xml version="1.0" encoding="utf-8" ?>
<svg baseProfile="full" height="43.69825298897922" version="1.1" width="46.16752149537206" xmlns="http://www.w3.org/2000/svg" xmlns:ev="http://www.w3.org/2001/xml-events" xmlns:xlink="http://www.w3.org/1999/xlink"><defs /><rect fill="white" height="43.69825298897922" width="46.16752149537206" x="0" y="0" /><path d="M15.312827033922076, 23.88264144770801 m-0.4357532784342766, -3.1955239176750183 l0.726255476474762, -2.6145195960998535 3.050273060798645, -3.9217793941497803 l1.1620087176561356, -1.0167576372623444 1.452510952949524, -0.4357532784342766 l3.050273060798645, 0.0 3.4860262274742126, 2.0335152745246887 l1.3072597980499268, 1.3072597980499268 1.7430131137371063, 3.4860262274742126 l0.0, 3.050273060798645 -1.7430131137371063, 3.1955239176750183 l-1.452510952949524, 1.1620087176561356 -3.050273060798645, 1.3072597980499268 l-2.7597707509994507, 0.0 -3.050273060798645, -1.5977619588375092 l-3.63127738237381, -3.1955239176750183 -0.726255476474762, -2.324017435312271 l0.0, -1.7430131137371063 m6.10054612159729, 2.178766429424286 l3.63127738237381, -0.8715065568685532 0.2905021794140339, 0.726255476474762 l-2.7597707509994507, 0.8715065568685532 0.14525108970701694, 0.726255476474762 l0.2905021794140339, -1.1620087176561356 m4.648034870624542, -4.357532858848572 l0.726255476474762, -0.8715065568685532 -2.4692685902118683, 0.2905021794140339 m-4.067030549049377, 0.4357532784342766 l-1.7430131137371063, -0.5810043588280678 m3.050273060798645, -6.536298990249634 l0.2905021794140339, -2.0335152745246887 -2.6145195960998535, -1.8882642686367035 l-3.1955239176750183, -1.1620087176561356 -3.1955239176750183, -0.14525108970701694 l-1.3072597980499268, 0.5810043588280678 -0.8715065568685532, 1.8882642686367035 l0.0, 1.7430131137371063 0.5810043588280678, 0.726255476474762 l-2.4692685902118683, 0.14525108970701694 -1.3072597980499268, 0.726255476474762 l-1.5977619588375092, 2.6145195960998535 -0.14525108970701694, 2.324017435312271 l1.7430131137371063, 1.452510952949524 1.5977619588375092, 0.2905021794140339 l-1.7430131137371063, 0.4357532784342766 -2.178766429424286, 1.8882642686367035 l-0.726255476474762, 1.5977619588375092 -0.14525108970701694, 6.2457966804504395 l1.0167576372623444, 1.7430131137371063 1.452510952949524, 1.3072597980499268 l1.5977619588375092, 0.5810043588280678 2.324017435312271, 0.0 l0.2905021794140339, 4.648034870624542 3.776528537273407, 2.324017435312271 l4.648034870624542, 0.4357532784342766 2.0335152745246887, -0.5810043588280678 l2.6145195960998535, -2.905021905899048 2.4692685902118683, 0.5810043588280678 l4.502783715724945, 0.0 2.6145195960998535, -1.1620087176561356 l5.229039192199707, -3.9217793941497803 1.5977619588375092, -2.324017435312271 l0.0, -0.8715065568685532 -3.3407750725746155, -0.4357532784342766 l0.0, -1.0167576372623444 2.905021905899048, -5.374290347099304 l-0.2905021794140339, -4.648034870624542 -2.7597707509994507, -2.0335152745246887 l-4.067030549049377, -1.1620087176561356 1.452510952949524, -3.4860262274742126 l0.0, -1.452510952949524 -1.452510952949524, -1.452510952949524 l-6.10054612159729, -0.726255476474762 -1.452510952949524, 2.178766429424286 " fill="none" stroke="black" stroke-width="1" /></svg>