<?xml version="1.0" encoding="utf-8" ?>
<svg baseProfile="full" height="106.88247829675674" version="1.1" width="138.25671412050724" xmlns="http://www.w3.org/2000/svg" xmlns:ev="http://www.w3.org/2001/xml-events" xmlns:xlink="http://www.w3.org/1999/xlink"><defs /><rect fill="white" height="106.88247829675674" width="138.25671412050724" x="0" y="0" /><path d="M81.25682413578033, 59.17865691706538 m-0.726255476474762, -3.1955239176750183 l-1.452510952949524, -1.3072597980499268 -4.067030549049377, -1.5977619588375092 l-4.502783715724945, -0.2905021794140339 -13.508352041244507, 0.2905021794140339 l-11.329585313796997, 1.5977619588375092 -8.569814562797546, 2.0335152745246887 l-1.452510952949524, 0.5810043588280678 -1.452510952949524, 1.5977619588375092 l-1.1620087176561356, 4.502783715724945 0.0, 5.519541501998901 l2.178766429424286, 5.955294966697693 1.8882642686367035, 2.6145195960998535 l4.067030549049377, 2.324017435312271 5.229039192199707, 1.7430131137371063 l7.988809943199158, 0.14525108970701694 1.452510952949524, -0.14525108970701694 l5.374290347099304, -2.7597707509994507 4.502783715724945, -4.938537180423737 l2.905021905899048, -4.067030549049377 2.324017435312271, -2.0335152745246887 l1.8882642686367035, -3.4860262274742126 6.391047835350037, -2.0335152745246887 l2.905021905899048, -4.357532858848572 m0.0, 0.0 l0.0, 0.0 m9.296069741249084, -4.067030549049377 l13.508352041244507, 0.5810043588280678 8.279312252998352, 1.8882642686367035 l5.519541501998901, 2.178766429424286 7.988809943199158, 5.810043811798096 l3.1955239176750183, 3.9217793941497803 3.3407750725746155, 7.1173036098480225 l0.0, 1.5977619588375092 -1.1620087176561356, 1.452510952949524 l-5.955294966697693, 2.7597707509994507 -7.553057074546814, 2.324017435312271 l-6.2457966804504395, 0.726255476474762 -10.16757607460022, -0.2905021794140339 l-11.620087623596191, -3.1955239176750183 2.324017435312271, 1.3072597980499268 l1.7430131137371063, 2.324017435312271 1.7430131137371063, 4.502783715724945 l0.2905021794140339, 4.357532858848572 -1.0167576372623444, 2.0335152745246887 l-2.7597707509994507, 2.178766429424286 -2.6145195960998535, 1.452510952949524 l-5.810043811798096, 1.8882642686367035 -4.502783715724945, 0.726255476474762 l-13.94410490989685, 0.4357532784342766 -3.050273060798645, -0.8715065568685532 l-2.7597707509994507, -2.324017435312271 -2.178766429424286, -3.050273060798645 l-0.8715065568685532, -0.14525108970701694 -5.374290347099304, 3.050273060798645 l-9.00556743144989, 2.324017435312271 -8.569814562797546, 0.8715065568685532 l-14.960862398147583, -0.14525108970701694 -5.374290347099304, -1.7430131137371063 l-2.7597707509994507, -2.0335152745246887 -1.0167576372623444, -1.452510952949524 l-0.726255476474762, -1.5977619588375092 0.14525108970701694, -2.905021905899048 l1.3072597980499268, -1.5977619588375092 3.3407750725746155, -2.324017435312271 l0.14525108970701694, -0.726255476474762 -0.8715065568685532, -1.452510952949524 l-6.391047835350037, -5.6647926568984985 -1.452510952949524, -2.324017435312271 l-0.5810043588280678, -2.905021905899048 0.4357532784342766, -3.1955239176750183 l1.7430131137371063, -2.4692685902118683 4.938537180423737, -3.050273060798645 l2.324017435312271, -0.8715065568685532 3.1955239176750183, -0.2905021794140339 l0.726255476474762, -0.5810043588280678 0.8715065568685532, -2.178766429424286 l0.14525108970701694, -9.00556743144989 -2.0335152745246887, -42.55856990814209 l-1.3072597980499268, -5.6647926568984985 -3.050273060798645, 0.0 l0.4357532784342766, 0.726255476474762 10.893832445144653, 1.1620087176561356 l15.977619886398315, 5.229039192199707 1.8882642686367035, 1.0167576372623444 l4.938537180423737, 8.42456340789795 5.6647926568984985, 11.474835872650146 l2.0335152745246887, 3.050273060798645 1.452510952949524, 1.3072597980499268 l3.3407750725746155, -5.6647926568984985 6.681550145149231, -6.536298990249634 l4.212281703948975, -1.7430131137371063 5.6647926568984985, -0.8715065568685532 l7.553057074546814, -0.14525108970701694 3.050273060798645, 0.726255476474762 l0.4357532784342766, 0.726255476474762 0.0, 2.4692685902118683 l-1.3072597980499268, 4.067030549049377 0.726255476474762, 3.9217793941497803 l1.5977619588375092, -1.452510952949524 4.212281703948975, -0.4357532784342766 l1.1620087176561356, 0.726255476474762 1.1620087176561356, 1.5977619588375092 l-1.1620087176561356, 5.08378803730011 0.0, 3.3407750725746155 l0.8715065568685532, 5.519541501998901 -0.5810043588280678, 5.519541501998901 " fill="none" stroke="black" stroke-width="1" /></svg>