<?xml version="1.0" encoding="utf-8" ?>
<svg baseProfile="full" height="50.52505522966385" version="1.1" width="43.84350476786494" xmlns="http://www.w3.org/2000/svg" xmlns:ev="http://www.w3.org/2001/xml-events" xmlns:xlink="http://www.w3.org/1999/xlink"><defs /><rect fill="white" height="50.52505522966385" width="43.84350476786494" x="0" y="0" /><path d="M16.474836627021432, 18.363100783899426 m-2.905021905899048, 3.050273060798645 l-1.452510952949524, 3.3407750725746155 -0.5810043588280678, 3.1955239176750183 l0.14525108970701694, 8.134061098098755 1.452510952949524, 3.9217793941497803 l0.726255476474762, 1.1620087176561356 2.0335152745246887, 1.5977619588375092 l2.0335152745246887, 0.8715065568685532 2.4692685902118683, 0.2905021794140339 l2.4692685902118683, 0.0 2.324017435312271, -0.726255476474762 l2.905021905899048, -2.178766429424286 2.7597707509994507, -5.6647926568984985 l1.3072597980499268, -7.26255476474762 0.0, -3.776528537273407 l-0.4357532784342766, -1.5977619588375092 -2.905021905899048, -5.08378803730011 l-3.63127738237381, -3.63127738237381 -4.212281703948975, -0.4357532784342766 l-3.050273060798645, 1.7430131137371063 -2.6145195960998535, 2.4692685902118683 l-0.726255476474762, 1.1620087176561356 -0.4357532784342766, 2.4692685902118683 m4.793286025524139, 8.279312252998352 l-0.14525108970701694, 2.178766429424286 0.8715065568685532, 1.0167576372623444 l2.178766429424286, 0.726255476474762 1.0167576372623444, 0.0 l0.726255476474762, -0.5810043588280678 0.4357532784342766, -1.0167576372623444 l-0.14525108970701694, -2.4692685902118683 -2.324017435312271, -0.4357532784342766 l-2.905021905899048, 0.5810043588280678 m-4.212281703948975, -4.357532858848572 l1.3072597980499268, -0.4357532784342766 3.1955239176750183, 0.0 l-3.9217793941497803, 0.4357532784342766 1.1620087176561356, -0.5810043588280678 l0.5810043588280678, 0.726255476474762 -1.3072597980499268, 0.5810043588280678 m7.698307633399963, -0.2905021794140339 l2.7597707509994507, -0.14525108970701694 -1.5977619588375092, 0.0 l2.324017435312271, -0.4357532784342766 -3.776528537273407, 0.4357532784342766 m-5.374290347099304, 13.363100290298462 l1.1620087176561356, -1.3072597980499268 2.0335152745246887, -0.5810043588280678 l3.4860262274742126, 0.0 2.324017435312271, 1.452510952949524 m-15.977619886398315, -12.782095670700073 l-0.8715065568685532, 1.0167576372623444 -2.6145195960998535, -2.324017435312271 l-1.5977619588375092, -2.6145195960998535 -0.4357532784342766, -1.3072597980499268 l0.0, -4.357532858848572 1.1620087176561356, -3.3407750725746155 l3.9217793941497803, 0.0 1.3072597980499268, -3.050273060798645 l0.726255476474762, -1.0167576372623444 1.452510952949524, -0.8715065568685532 l3.63127738237381, -0.14525108970701694 0.726255476474762, 0.8715065568685532 l-0.5810043588280678, 1.0167576372623444 -2.0335152745246887, 0.14525108970701694 l0.8715065568685532, -0.8715065568685532 8.715065717697144, -2.178766429424286 l3.776528537273407, -1.7430131137371063 3.050273060798645, 1.452510952949524 l5.229039192199707, 0.2905021794140339 -0.2905021794140339, 5.6647926568984985 l-0.4357532784342766, 1.0167576372623444 -1.7430131137371063, 0.726255476474762 l1.7430131137371063, 0.2905021794140339 1.0167576372623444, 0.8715065568685532 l1.5977619588375092, 2.905021905899048 0.0, 1.0167576372623444 l-0.726255476474762, -0.14525108970701694 -0.14525108970701694, 1.0167576372623444 l0.5810043588280678, 4.793286025524139 -1.0167576372623444, 1.5977619588375092 l-0.726255476474762, 0.14525108970701694 1.0167576372623444, 3.63127738237381 l0.0, 2.905021905899048 -0.5810043588280678, 0.8715065568685532 l0.5810043588280678, 2.4692685902118683 -3.776528537273407, 6.10054612159729 l0.726255476474762, 0.4357532784342766 -0.5810043588280678, 2.4692685902118683 " fill="none" stroke="black" stroke-width="1" /></svg>