<?xml version="1.0" encoding="utf-8" ?>
<svg baseProfile="full" height="68.39093919843435" version="1.1" width="75.65349374897778" xmlns="http://www.w3.org/2000/svg" xmlns:ev="http://www.w3.org/2001/xml-events" xmlns:xlink="http://www.w3.org/1999/xlink"><defs /><rect fill="white" height="68.39093919843435" width="75.65349374897778" x="0" y="0" /><path d="M48.13957517966628, 44.79879922233522 m2.7597707509994507, -0.14525108970701694 l2.0335152745246887, -1.0167576372623444 4.212281703948975, -3.4860262274742126 l1.0167576372623444, -1.452510952949524 0.5810043588280678, -1.8882642686367035 l0.14525108970701694, -4.648034870624542 -1.0167576372623444, -3.050273060798645 l-2.0335152745246887, -2.905021905899048 -2.905021905899048, -2.7597707509994507 l-6.972052454948425, -4.067030549049377 -4.357532858848572, -1.452510952949524 l-4.357532858848572, -0.5810043588280678 -4.502783715724945, 0.0 l-4.357532858848572, 1.452510952949524 -3.9217793941497803, 2.324017435312271 l-3.1955239176750183, 2.905021905899048 -2.324017435312271, 3.3407750725746155 l-1.3072597980499268, 3.776528537273407 -0.4357532784342766, 3.776528537273407 l0.0, 3.3407750725746155 1.3072597980499268, 2.7597707509994507 l1.7430131137371063, 1.452510952949524 2.324017435312271, 0.8715065568685532 l9.731823205947876, 1.1620087176561356 7.988809943199158, 0.0 l3.3407750725746155, -0.8715065568685532 4.793286025524139, -2.324017435312271 m-15.396615266799927, -2.6145195960998535 l2.6145195960998535, 0.4357532784342766 1.5977619588375092, -0.5810043588280678 l0.5810043588280678, -0.8715065568685532 0.0, -2.6145195960998535 l-3.776528537273407, -3.3407750725746155 -2.178766429424286, -1.0167576372623444 l-4.212281703948975, -0.4357532784342766 -1.3072597980499268, 1.0167576372623444 l-0.726255476474762, 1.5977619588375092 0.0, 1.5977619588375092 l0.726255476474762, 1.3072597980499268 1.7430131137371063, 1.1620087176561356 l2.0335152745246887, 0.4357532784342766 5.810043811798096, 0.14525108970701694 m7.698307633399963, -10.312827825546265 l0.0, 0.0 m-17.86588430404663, -4.648034870624542 l0.0, 0.0 m15.832369327545166, 3.776528537273407 l0.14525108970701694, -0.8715065568685532 -0.726255476474762, -0.4357532784342766 l-0.8715065568685532, 0.0 0.5810043588280678, 1.0167576372623444 m-11.329585313796997, -2.905021905899048 l-0.726255476474762, 0.14525108970701694 -0.14525108970701694, 1.7430131137371063 l1.0167576372623444, 1.1620087176561356 m-7.8435587882995605, -5.229039192199707 l0.8715065568685532, -0.4357532784342766 -2.178766429424286, -5.955294966697693 l-0.4357532784342766, -6.536298990249634 0.4357532784342766, -1.452510952949524 l1.1620087176561356, -1.0167576372623444 4.067030549049377, -0.5810043588280678 l5.374290347099304, 0.14525108970701694 4.648034870624542, 1.1620087176561356 l-2.905021905899048, 0.0 -2.4692685902118683, 2.0335152745246887 l-0.8715065568685532, 1.8882642686367035 -0.2905021794140339, 5.955294966697693 l1.1620087176561356, -0.5810043588280678 3.1955239176750183, -4.793286025524139 l1.5977619588375092, -1.452510952949524 4.067030549049377, -2.324017435312271 l4.938537180423737, -1.452510952949524 7.407805919647217, -0.2905021794140339 l4.502783715724945, 1.1620087176561356 -6.681550145149231, 0.5810043588280678 l-3.776528537273407, 1.3072597980499268 -2.7597707509994507, 2.4692685902118683 l-2.324017435312271, 4.648034870624542 2.178766429424286, -2.324017435312271 l2.7597707509994507, -1.8882642686367035 1.8882642686367035, -0.726255476474762 l3.9217793941497803, -1.0167576372623444 5.08378803730011, 0.0 l2.6145195960998535, 0.726255476474762 5.519541501998901, 3.050273060798645 l6.2457966804504395, 6.391047835350037 -0.726255476474762, 0.0 l-9.00556743144989, -5.08378803730011 -2.178766429424286, -0.5810043588280678 l-3.1955239176750183, -0.14525108970701694 -1.0167576372623444, 0.4357532784342766 l-0.726255476474762, 1.0167576372623444 0.4357532784342766, 1.1620087176561356 l5.810043811798096, 4.502783715724945 3.9217793941497803, 3.776528537273407 l1.7430131137371063, 2.324017435312271 2.905021905899048, 5.6647926568984985 l1.1620087176561356, 4.938537180423737 0.14525108970701694, 5.08378803730011 l-0.5810043588280678, 2.7597707509994507 -0.726255476474762, -4.938537180423737 l-1.5977619588375092, -3.1955239176750183 -2.6145195960998535, -1.8882642686367035 l-1.5977619588375092, -0.14525108970701694 0.14525108970701694, 11.910589933395386 l-2.178766429424286, 6.826801300048828 -2.7597707509994507, 4.938537180423737 l-2.905021905899048, 2.0335152745246887 -3.776528537273407, 0.4357532784342766 l4.067030549049377, -5.6647926568984985 0.4357532784342766, -1.5977619588375092 l-0.14525108970701694, -2.4692685902118683 -0.726255476474762, -0.726255476474762 l-1.452510952949524, -0.14525108970701694 -0.726255476474762, 0.2905021794140339 l-1.0167576372623444, 3.3407750725746155 -2.4692685902118683, 3.1955239176750183 l-5.519541501998901, 4.067030549049377 -4.067030549049377, 1.3072597980499268 l-7.553057074546814, 0.2905021794140339 0.4357532784342766, -0.8715065568685532 l4.502783715724945, -2.7597707509994507 2.905021905899048, -2.7597707509994507 l1.5977619588375092, -2.6145195960998535 0.0, -1.8882642686367035 l-2.7597707509994507, 0.0 -6.826801300048828, 3.050273060798645 l-4.357532858848572, 1.3072597980499268 -4.067030549049377, 0.14525108970701694 l-2.0335152745246887, -0.5810043588280678 -3.9217793941497803, -2.4692685902118683 l-4.793286025524139, -4.648034870624542 1.1620087176561356, -0.5810043588280678 l13.363100290298462, 0.5810043588280678 0.726255476474762, -0.14525108970701694 l0.2905021794140339, -0.726255476474762 -2.178766429424286, -0.726255476474762 l-11.76533818244934, 0.0 -1.452510952949524, -0.4357532784342766 l-2.905021905899048, -2.178766429424286 -1.0167576372623444, -1.452510952949524 l-4.067030549049377, -8.279312252998352 2.324017435312271, 0.726255476474762 l8.134061098098755, 4.502783715724945 -4.648034870624542, -3.1955239176750183 l-3.776528537273407, -5.6647926568984985 -0.726255476474762, -2.178766429424286 l0.0, -13.653602600097656 0.726255476474762, -2.178766429424286 l0.726255476474762, -0.5810043588280678 3.3407750725746155, 6.681550145149231 l3.63127738237381, 4.502783715724945 1.7430131137371063, 1.452510952949524 l-4.067030549049377, -7.698307633399963 -0.2905021794140339, -6.391047835350037 l2.324017435312271, -2.178766429424286 2.4692685902118683, 0.5810043588280678 " fill="none" stroke="black" stroke-width="1" /></svg>