<?xml version="1.0" encoding="utf-8" ?>
<svg baseProfile="full" height="39.63122337125242" version="1.1" width="39.77647355757654" xmlns="http://www.w3.org/2000/svg" xmlns:ev="http://www.w3.org/2001/xml-events" xmlns:xlink="http://www.w3.org/1999/xlink"><defs /><rect fill="white" height="39.63122337125242" width="39.77647355757654" x="0" y="0" /><path d="M11.826801020652056, 20.25136459618807 m0.0, -2.905021905899048 l1.1620087176561356, -3.1955239176750183 1.0167576372623444, -0.726255476474762 l4.502783715724945, -1.1620087176561356 6.10054612159729, 1.0167576372623444 l1.452510952949524, 1.452510952949524 0.4357532784342766, 2.178766429424286 l-0.8715065568685532, 5.6647926568984985 -1.452510952949524, 2.0335152745246887 l-3.1955239176750183, 2.0335152745246887 -2.0335152745246887, 2.0335152745246887 l-3.4860262274742126, 0.0 -1.3072597980499268, -0.5810043588280678 l-1.452510952949524, -1.5977619588375092 -1.1620087176561356, -3.3407750725746155 l0.2905021794140339, -4.938537180423737 2.0335152745246887, -0.4357532784342766 m3.1955239176750183, -0.14525108970701694 l0.726255476474762, 0.0 0.14525108970701694, 0.8715065568685532 m3.3407750725746155, -0.2905021794140339 l-0.726255476474762, 0.0 m-5.519541501998901, 5.08378803730011 l1.7430131137371063, 0.0 1.8882642686367035, 0.726255476474762 l1.5977619588375092, -0.14525108970701694 -0.2905021794140339, -1.0167576372623444 l0.8715065568685532, -1.0167576372623444 2.0335152745246887, -0.726255476474762 l0.0, -1.0167576372623444 m-7.1173036098480225, -7.26255476474762 l0.8715065568685532, -1.452510952949524 6.10054612159729, -5.08378803730011 l3.9217793941497803, -1.3072597980499268 -0.4357532784342766, 5.229039192199707 l1.3072597980499268, 0.4357532784342766 3.4860262274742126, -2.324017435312271 l1.3072597980499268, -0.5810043588280678 0.726255476474762, 0.2905021794140339 l0.4357532784342766, 0.8715065568685532 -0.14525108970701694, 2.905021905899048 l-1.8882642686367035, 5.6647926568984985 1.0167576372623444, -0.8715065568685532 l1.1620087176561356, 0.0 1.0167576372623444, -0.5810043588280678 l0.14525108970701694, 1.1620087176561356 -1.0167576372623444, 2.4692685902118683 l-2.905021905899048, 3.776528537273407 -0.4357532784342766, 1.452510952949524 l-1.5977619588375092, 1.7430131137371063 -0.2905021794140339, -0.8715065568685532 l0.4357532784342766, -1.1620087176561356 0.5810043588280678, 0.8715065568685532 l-1.1620087176561356, 3.050273060798645 -2.6145195960998535, 2.905021905899048 l-5.374290347099304, 0.14525108970701694 -0.14525108970701694, 3.050273060798645 l-6.391047835350037, -1.1620087176561356 -1.8882642686367035, -0.726255476474762 l-0.5810043588280678, -0.726255476474762 -1.5977619588375092, 2.4692685902118683 l-0.4357532784342766, -1.0167576372623444 -0.726255476474762, -7.8435587882995605 l-0.4357532784342766, 1.3072597980499268 -0.726255476474762, -0.14525108970701694 l-0.4357532784342766, -0.726255476474762 -1.7430131137371063, -6.2457966804504395 l0.0, -3.63127738237381 1.0167576372623444, 0.5810043588280678 l-1.3072597980499268, -3.4860262274742126 0.726255476474762, -0.5810043588280678 l4.793286025524139, 0.8715065568685532 1.7430131137371063, -7.1173036098480225 l2.6145195960998535, 2.4692685902118683 1.7430131137371063, -0.2905021794140339 " fill="none" stroke="black" stroke-width="1" /></svg>