<?xml version="1.0" encoding="utf-8" ?>
<svg baseProfile="full" height="80.73728268966079" version="1.1" width="85.0948129221797" xmlns="http://www.w3.org/2000/svg" xmlns:ev="http://www.w3.org/2001/xml-events" xmlns:xlink="http://www.w3.org/1999/xlink"><defs /><rect fill="white" height="80.73728268966079" width="85.0948129221797" x="0" y="0" /><path d="M28.094924250617623, 39.27925765514374 m-0.14525108970701694, -6.2457966804504395 l1.8882642686367035, -4.502783715724945 2.324017435312271, -2.905021905899048 l5.229039192199707, -2.4692685902118683 10.02232551574707, -0.8715065568685532 l4.067030549049377, 0.5810043588280678 3.1955239176750183, 1.1620087176561356 l4.212281703948975, 2.4692685902118683 2.178766429424286, 2.4692685902118683 l1.3072597980499268, 2.178766429424286 1.0167576372623444, 4.357532858848572 l0.0, 6.972052454948425 -1.5977619588375092, 4.212281703948975 l-1.7430131137371063, 2.4692685902118683 -2.178766429424286, 1.8882642686367035 l-4.938537180423737, 2.4692685902118683 -3.776528537273407, 0.726255476474762 l-2.6145195960998535, 0.0 -10.603330135345459, -3.9217793941497803 l-4.502783715724945, -2.905021905899048 -2.0335152745246887, -4.357532858848572 l-0.726255476474762, -3.63127738237381 0.0, -2.6145195960998535 m-13.94410490989685, -1.1620087176561356 l-2.7597707509994507, 4.793286025524139 -5.810043811798096, 8.42456340789795 l-1.1620087176561356, 2.7597707509994507 1.3072597980499268, 0.8715065568685532 l18.59213948249817, 0.0 5.08378803730011, 0.5810043588280678 l0.726255476474762, 1.5977619588375092 0.0, 3.4860262274742126 l-2.324017435312271, 7.988809943199158 -0.726255476474762, 4.938537180423737 l1.5977619588375092, -0.2905021794140339 6.2457966804504395, -2.905021905899048 l15.396615266799927, -8.134061098098755 4.648034870624542, 10.603330135345459 l3.050273060798645, 5.374290347099304 0.726255476474762, -0.2905021794140339 l3.9217793941497803, -6.826801300048828 6.826801300048828, -14.815611839294434 l2.6145195960998535, -4.067030549049377 0.726255476474762, 0.14525108970701694 l6.2457966804504395, 6.10054612159729 0.4357532784342766, -1.7430131137371063 l-1.8882642686367035, -18.882641792297363 0.0, -7.26255476474762 l1.5977619588375092, -9.586572051048279 -3.3407750725746155, 1.8882642686367035 l-12.636845111846924, 5.519541501998901 -0.4357532784342766, -0.726255476474762 l2.4692685902118683, -11.620087623596191 0.4357532784342766, -6.10054612159729 l-7.988809943199158, 3.63127738237381 -7.553057074546814, 4.502783715724945 l-3.63127738237381, 0.8715065568685532 -0.8715065568685532, -0.14525108970701694 l-3.63127738237381, -4.938537180423737 -5.519541501998901, -5.955294966697693 l-1.452510952949524, -0.4357532784342766 -1.452510952949524, 1.1620087176561356 l-2.178766429424286, 2.905021905899048 -7.1173036098480225, 14.379857778549194 l-1.3072597980499268, 1.0167576372623444 -12.491593360900879, -5.6647926568984985 l-2.6145195960998535, -0.726255476474762 -1.452510952949524, 0.2905021794140339 l-1.5977619588375092, 2.4692685902118683 0.0, 2.6145195960998535 l5.955294966697693, 11.76533818244934 1.1620087176561356, 1.452510952949524 l1.3072597980499268, 0.14525108970701694 " fill="none" stroke="black" stroke-width="1" /></svg>