<?xml version="1.0" encoding="utf-8" ?>
<svg baseProfile="full" height="75.36299113184214" version="1.1" width="74.49148569256067" xmlns="http://www.w3.org/2000/svg" xmlns:ev="http://www.w3.org/2001/xml-events" xmlns:xlink="http://www.w3.org/1999/xlink"><defs /><rect fill="white" height="75.36299113184214" width="74.49148569256067" x="0" y="0" /><path d="M23.301638001576066, 42.03902933746576 m0.14525108970701694, -3.776528537273407 l2.324017435312271, -7.407805919647217 1.1620087176561356, -1.8882642686367035 l5.229039192199707, -5.229039192199707 3.4860262274742126, -1.8882642686367035 l1.452510952949524, -0.2905021794140339 1.5977619588375092, 0.0 l3.1955239176750183, 0.8715065568685532 1.452510952949524, 0.726255476474762 l2.0335152745246887, 2.0335152745246887 1.452510952949524, 2.6145195960998535 l1.3072597980499268, 4.067030549049377 0.2905021794140339, 2.324017435312271 l-0.2905021794140339, 2.178766429424286 -3.3407750725746155, 8.42456340789795 l-2.0335152745246887, 2.178766429424286 -4.067030549049377, 3.3407750725746155 l-3.776528537273407, 1.8882642686367035 -5.08378803730011, 0.4357532784342766 l-3.1955239176750183, -1.452510952949524 -2.6145195960998535, -3.050273060798645 l-2.7597707509994507, -4.793286025524139 -0.14525108970701694, -1.5977619588375092 l0.5810043588280678, -3.9217793941497803 2.178766429424286, -3.1955239176750183 l1.3072597980499268, -0.726255476474762 m5.810043811798096, -2.324017435312271 l0.4357532784342766, 2.6145195960998535 m4.067030549049377, -4.502783715724945 l0.726255476474762, 2.6145195960998535 -0.5810043588280678, 0.4357532784342766 m-1.8882642686367035, 4.502783715724945 l0.726255476474762, 1.5977619588375092 m-4.212281703948975, 8.279312252998352 l2.905021905899048, 0.4357532784342766 2.324017435312271, -0.4357532784342766 l3.9217793941497803, -2.4692685902118683 m-27.161953449249268, -10.603330135345459 l-0.2905021794140339, -3.776528537273407 2.178766429424286, -10.748580694198608 l3.4860262274742126, -5.374290347099304 2.905021905899048, -1.7430131137371063 l3.1955239176750183, -0.2905021794140339 3.9217793941497803, 1.0167576372623444 l2.0335152745246887, 1.3072597980499268 1.452510952949524, -3.3407750725746155 l3.776528537273407, -3.776528537273407 2.7597707509994507, -1.5977619588375092 l3.9217793941497803, -0.726255476474762 7.698307633399963, 2.324017435312271 l3.3407750725746155, 1.452510952949524 1.8882642686367035, 1.452510952949524 l1.5977619588375092, 2.7597707509994507 1.1620087176561356, 6.681550145149231 l1.1620087176561356, -0.2905021794140339 1.5977619588375092, 0.14525108970701694 l3.776528537273407, 1.452510952949524 3.1955239176750183, 1.5977619588375092 l2.324017435312271, 2.4692685902118683 0.14525108970701694, 3.4860262274742126 l-0.4357532784342766, 2.4692685902118683 -2.0335152745246887, 4.793286025524139 l-6.536298990249634, 7.698307633399963 -2.7597707509994507, 2.178766429424286 l-4.067030549049377, 1.8882642686367035 -1.0167576372623444, 0.0 l-0.726255476474762, -0.726255476474762 1.0167576372623444, 0.5810043588280678 l2.324017435312271, 2.7597707509994507 1.5977619588375092, 4.502783715724945 l0.0, 1.7430131137371063 -0.726255476474762, 2.905021905899048 l-3.3407750725746155, 6.826801300048828 -3.776528537273407, 4.067030549049377 l-2.7597707509994507, 0.14525108970701694 -10.312827825546265, -4.067030549049377 l-5.374290347099304, -3.4860262274742126 0.0, 1.1620087176561356 l-3.050273060798645, 0.2905021794140339 -8.86031687259674, -0.2905021794140339 l-4.357532858848572, -1.5977619588375092 -4.357532858848572, -2.4692685902118683 l-1.452510952949524, -1.452510952949524 -2.6145195960998535, -3.63127738237381 l-0.8715065568685532, -4.357532858848572 0.2905021794140339, -5.08378803730011 l1.5977619588375092, -4.067030549049377 2.0335152745246887, -1.8882642686367035 l2.905021905899048, 0.2905021794140339 0.726255476474762, -1.1620087176561356 l4.938537180423737, -2.324017435312271 7.1173036098480225, 0.0 m-13.217849731445312, -3.4860262274742126 " fill="none" stroke="black" stroke-width="1" /></svg>