<?xml version="1.0" encoding="utf-8" ?>
<svg baseProfile="full" height="60.692630875855684" version="1.1" width="64.32390870526433" xmlns="http://www.w3.org/2000/svg" xmlns:ev="http://www.w3.org/2001/xml-events" xmlns:xlink="http://www.w3.org/1999/xlink"><defs /><rect fill="white" height="60.692630875855684" width="64.32390870526433" x="0" y="0" /><path d="M23.01113549619913, 21.849126052111387 m-1.5977619588375092, 0.8715065568685532 l-2.178766429424286, 3.63127738237381 -1.5977619588375092, 3.9217793941497803 l-1.0167576372623444, 4.212281703948975 0.2905021794140339, 7.988809943199158 l1.7430131137371063, 3.1955239176750183 2.178766429424286, 2.4692685902118683 l2.6145195960998535, 2.0335152745246887 3.050273060798645, 1.452510952949524 l3.9217793941497803, 0.5810043588280678 4.067030549049377, -0.2905021794140339 l3.9217793941497803, -1.8882642686367035 2.7597707509994507, -2.178766429424286 l1.8882642686367035, -2.4692685902118683 1.0167576372623444, -2.324017435312271 l0.14525108970701694, -5.6647926568984985 -0.726255476474762, -3.050273060798645 l-1.1620087176561356, -3.1955239176750183 -3.1955239176750183, -5.08378803730011 l-5.519541501998901, -5.519541501998901 -3.050273060798645, -1.8882642686367035 l-1.452510952949524, -0.5810043588280678 -2.905021905899048, -0.14525108970701694 l-2.4692685902118683, 1.452510952949524 m8.569814562797546, 17.139629125595093 l-0.726255476474762, -0.4357532784342766 -1.1620087176561356, 0.5810043588280678 l-0.726255476474762, 1.7430131137371063 0.0, 0.726255476474762 l1.8882642686367035, 0.4357532784342766 0.8715065568685532, 0.726255476474762 l0.14525108970701694, 1.3072597980499268 -0.8715065568685532, 1.3072597980499268 l-3.4860262274742126, 2.178766429424286 -4.648034870624542, 1.452510952949524 l-1.7430131137371063, 0.0 -0.8715065568685532, -0.8715065568685532 l0.0, -1.3072597980499268 m12.20109224319458, -6.826801300048828 l-0.2905021794140339, 3.050273060798645 0.4357532784342766, 1.1620087176561356 l1.1620087176561356, 0.8715065568685532 1.452510952949524, 0.5810043588280678 l1.8882642686367035, 0.0 2.6145195960998535, -1.3072597980499268 m-13.94410490989685, -13.94410490989685 l0.0, 0.0 m6.826801300048828, 0.5810043588280678 l0.0, 0.0 m-7.988809943199158, -1.5977619588375092 l-0.8715065568685532, 1.0167576372623444 0.0, 1.1620087176561356 l0.4357532784342766, 0.8715065568685532 0.8715065568685532, 0.14525108970701694 l0.2905021794140339, -0.726255476474762 -1.5977619588375092, -0.4357532784342766 l0.0, 0.8715065568685532 m8.279312252998352, -1.5977619588375092 l0.14525108970701694, 0.726255476474762 0.726255476474762, 0.4357532784342766 l-0.726255476474762, -0.14525108970701694 m-15.106114149093628, 18.737391233444214 l-2.4692685902118683, 0.8715065568685532 -6.10054612159729, 1.0167576372623444 l-1.1620087176561356, 0.0 -1.0167576372623444, -0.726255476474762 l-0.5810043588280678, -3.1955239176750183 -0.14525108970701694, -8.42456340789795 l-0.5810043588280678, -3.050273060798645 -0.726255476474762, -0.726255476474762 l2.905021905899048, 0.2905021794140339 1.0167576372623444, -1.3072597980499268 l0.4357532784342766, -1.5977619588375092 -0.4357532784342766, -3.4860262274742126 l-1.7430131137371063, -3.1955239176750183 -0.8715065568685532, -3.3407750725746155 l0.0, -2.905021905899048 1.1620087176561356, -3.776528537273407 l2.905021905899048, 0.14525108970701694 1.3072597980499268, -0.4357532784342766 l5.955294966697693, -6.536298990249634 1.8882642686367035, -1.0167576372623444 l2.7597707509994507, 1.8882642686367035 1.7430131137371063, 0.5810043588280678 l2.178766429424286, 0.0 6.391047835350037, -3.776528537273407 l1.0167576372623444, -0.2905021794140339 1.0167576372623444, 0.4357532784342766 l2.0335152745246887, 1.7430131137371063 6.10054612159729, 3.3407750725746155 l1.5977619588375092, 2.6145195960998535 1.8882642686367035, 5.6647926568984985 l2.4692685902118683, 3.050273060798645 2.324017435312271, 1.0167576372623444 l5.229039192199707, 0.726255476474762 2.7597707509994507, 1.0167576372623444 l0.2905021794140339, 1.452510952949524 -0.726255476474762, 2.0335152745246887 l-6.681550145149231, 9.441320896148682 -3.1955239176750183, 6.536298990249634 l0.0, 1.1620087176561356 0.8715065568685532, 0.4357532784342766 l5.229039192199707, -0.726255476474762 -1.1620087176561356, 1.0167576372623444 l-7.8435587882995605, 4.067030549049377 -3.1955239176750183, 2.6145195960998535 l-2.324017435312271, 2.7597707509994507 -1.7430131137371063, 0.2905021794140339 l-0.4357532784342766, -2.0335152745246887 -0.2905021794140339, -8.86031687259674 " fill="none" stroke="black" stroke-width="1" /></svg>