<?xml version="1.0" encoding="utf-8" ?>
<svg baseProfile="full" height="76.23449873179197" version="1.1" width="107.02772810123861" xmlns="http://www.w3.org/2000/svg" xmlns:ev="http://www.w3.org/2001/xml-events" xmlns:xlink="http://www.w3.org/1999/xlink"><defs /><rect fill="white" height="76.23449873179197" width="107.02772810123861" x="0" y="0" /><path d="M13.715065568685532, 48.720578802749515 m-4.938537180423737, 0.0 l-2.0335152745246887, 1.0167576372623444 -1.7430131137371063, 1.7430131137371063 l1.3072597980499268, -3.1955239176750183 3.9217793941497803, -6.10054612159729 l1.7430131137371063, -2.0335152745246887 3.1955239176750183, -1.452510952949524 l-4.357532858848572, 0.14525108970701694 6.391047835350037, -4.648034870624542 l6.681550145149231, -3.4860262274742126 2.905021905899048, -1.1620087176561356 l3.4860262274742126, -0.4357532784342766 -0.726255476474762, 0.0 l-0.4357532784342766, -1.452510952949524 2.178766429424286, -3.9217793941497803 l2.4692685902118683, -2.905021905899048 2.6145195960998535, -2.324017435312271 l2.324017435312271, -1.3072597980499268 4.648034870624542, -1.5977619588375092 l0.2905021794140339, -5.6647926568984985 3.3407750725746155, -4.938537180423737 l0.14525108970701694, 1.8882642686367035 -0.5810043588280678, 1.7430131137371063 l0.8715065568685532, 0.5810043588280678 6.391047835350037, -1.1620087176561356 l4.067030549049377, 0.0 1.1620087176561356, 3.050273060798645 l0.2905021794140339, 5.519541501998901 6.10054612159729, -0.4357532784342766 l2.324017435312271, 0.5810043588280678 2.324017435312271, 2.324017435312271 l0.0, 1.5977619588375092 -0.8715065568685532, 3.050273060798645 l6.681550145149231, -0.726255476474762 11.76533818244934, 0.14525108970701694 l6.2457966804504395, 1.5977619588375092 2.905021905899048, 1.3072597980499268 l0.5810043588280678, 1.5977619588375092 0.0, 4.357532858848572 l-1.1620087176561356, 4.357532858848572 -1.7430131137371063, 4.067030549049377 l-0.5810043588280678, 4.212281703948975 2.4692685902118683, 1.7430131137371063 l3.3407750725746155, 3.3407750725746155 2.0335152745246887, 3.776528537273407 l0.2905021794140339, 2.324017435312271 -0.4357532784342766, 0.8715065568685532 l-0.726255476474762, 0.0 -4.648034870624542, -3.1955239176750183 l-1.7430131137371063, -0.726255476474762 -2.0335152745246887, -0.14525108970701694 l4.067030549049377, 3.1955239176750183 1.452510952949524, 2.0335152745246887 l-0.5810043588280678, 5.955294966697693 -2.7597707509994507, 5.955294966697693 l-0.14525108970701694, 1.452510952949524 -1.0167576372623444, -1.0167576372623444 l-0.726255476474762, -1.8882642686367035 -6.391047835350037, -5.08378803730011 l-5.08378803730011, -2.4692685902118683 -4.648034870624542, -1.0167576372623444 l-3.63127738237381, 0.0 -1.1620087176561356, 0.14525108970701694 l-1.1620087176561356, 1.0167576372623444 m2.905021905899048, -7.988809943199158 l-6.391047835350037, 2.7597707509994507 -5.519541501998901, -0.14525108970701694 l-2.6145195960998535, -2.178766429424286 -2.324017435312271, -2.7597707509994507 l0.0, -3.4860262274742126 m-1.5977619588375092, 2.7597707509994507 l-1.8882642686367035, 1.0167576372623444 -1.452510952949524, 0.14525108970701694 l-1.452510952949524, 1.0167576372623444 -6.972052454948425, 0.0 l-6.391047835350037, -2.905021905899048 0.0, -3.9217793941497803 m19.318394660949707, 1.0167576372623444 l-1.8882642686367035, -0.4357532784342766 -0.5810043588280678, -0.726255476474762 l0.0, -0.8715065568685532 1.7430131137371063, -0.5810043588280678 l4.067030549049377, -0.14525108970701694 -0.5810043588280678, 1.7430131137371063 l-0.8715065568685532, 0.5810043588280678 -1.452510952949524, 0.0 m-8.42456340789795, -6.536298990249634 l-6.681550145149231, 0.0 0.2905021794140339, -1.0167576372623444 l2.7597707509994507, -2.4692685902118683 2.905021905899048, -1.5977619588375092 l1.7430131137371063, 0.0 1.0167576372623444, 1.1620087176561356 l0.0, 2.905021905899048 -1.0167576372623444, 1.0167576372623444 m20.916156768798828, 4.648034870624542 l-3.9217793941497803, -1.5977619588375092 0.0, -1.8882642686367035 l0.8715065568685532, -1.0167576372623444 1.7430131137371063, -0.14525108970701694 l1.1620087176561356, 0.8715065568685532 0.5810043588280678, 2.905021905899048 m-28.75971555709839, 9.00556743144989 l3.776528537273407, 5.374290347099304 2.4692685902118683, 2.324017435312271 l2.7597707509994507, 1.5977619588375092 3.4860262274742126, 0.726255476474762 l2.4692685902118683, 0.0 2.7597707509994507, -0.726255476474762 l2.324017435312271, -2.324017435312271 m-12.055840492248535, -4.502783715724945 l1.1620087176561356, 0.0 0.5810043588280678, 1.0167576372623444 l0.0, 1.452510952949524 " fill="none" stroke="black" stroke-width="1" /></svg>