<?xml version="1.0" encoding="utf-8" ?>
<svg baseProfile="full" height="121.55283860862255" version="1.1" width="141.452242648229" xmlns="http://www.w3.org/2000/svg" xmlns:ev="http://www.w3.org/2001/xml-events" xmlns:xlink="http://www.w3.org/1999/xlink"><defs /><rect fill="white" height="121.55283860862255" width="141.452242648229" x="0" y="0" /><path d="M5, 62.08367958664894 m4.067030549049377, -1.3072597980499268 l17.575381994247437, -2.4692685902118683 34.860262870788574, -0.14525108970701694 l4.648034870624542, 1.1620087176561356 6.826801300048828, 4.067030549049377 l1.3072597980499268, 2.0335152745246887 0.5810043588280678, 3.3407750725746155 l-3.9217793941497803, 1.452510952949524 -12.927347421646118, 3.1955239176750183 l-0.5810043588280678, -0.5810043588280678 m21.206660270690918, -5.08378803730011 l57.80993461608887, -14.52510952949524 -0.726255476474762, -3.63127738237381 l-0.8715065568685532, -1.7430131137371063 -1.7430131137371063, -1.5977619588375092 l-3.776528537273407, -1.5977619588375092 -6.826801300048828, -1.0167576372623444 l-77.41883277893066, -0.14525108970701694 -1.0167576372623444, 0.2905021794140339 l-3.1955239176750183, 4.502783715724945 -2.6145195960998535, 4.212281703948975 l-0.4357532784342766, 1.7430131137371063 0.5810043588280678, 3.1955239176750183 l2.6145195960998535, 6.681550145149231 1.8882642686367035, 3.050273060798645 l2.178766429424286, 1.1620087176561356 2.324017435312271, 0.4357532784342766 l36.458024978637695, 2.178766429424286 24.547433853149414, 0.0 l4.502783715724945, -1.0167576372623444 1.5977619588375092, -0.8715065568685532 l0.4357532784342766, -3.776528537273407 3.050273060798645, -4.793286025524139 l0.2905021794140339, -3.4860262274742126 m-63.47472667694092, -16.12287163734436 l10.603330135345459, -4.212281703948975 14.52510952949524, -4.938537180423737 l15.396615266799927, -4.502783715724945 6.972052454948425, -2.7597707509994507 m-27.452456951141357, 25.418941974639893 l6.2457966804504395, -2.7597707509994507 10.893832445144653, -3.050273060798645 l40.815558433532715, -9.731823205947876 3.63127738237381, -6.681550145149231 l0.0, -22.659170627593994 m-36.60327434539795, 36.89377784729004 l-0.2905021794140339, -2.178766429424286 0.726255476474762, -2.324017435312271 l2.905021905899048, -4.938537180423737 6.536298990249634, -6.2457966804504395 l10.893832445144653, -6.536298990249634 10.312827825546265, -7.698307633399963 m-74.80431079864502, 38.346288204193115 l7.988809943199158, -17.430131435394287 1.452510952949524, -3.63127738237381 l0.14525108970701694, -1.452510952949524 m-11.620087623596191, -2.178766429424286 l-1.0167576372623444, 6.681550145149231 0.4357532784342766, -1.0167576372623444 m0.726255476474762, -0.726255476474762 l0.4357532784342766, 0.14525108970701694 m-49.240121841430664, 32.24574327468872 l0.0, 9.296069741249084 0.4357532784342766, 1.5977619588375092 l11.910589933395386, 3.3407750725746155 2.4692685902118683, 1.1620087176561356 l1.5977619588375092, 2.324017435312271 -0.14525108970701694, 7.407805919647217 l-1.1620087176561356, 3.63127738237381 -2.178766429424286, 4.502783715724945 l-0.2905021794140339, 1.7430131137371063 1.3072597980499268, 1.5977619588375092 l0.726255476474762, 0.14525108970701694 4.212281703948975, -5.955294966697693 l3.63127738237381, -8.569814562797546 3.9217793941497803, -7.407805919647217 l1.3072597980499268, -4.357532858848572 8.42456340789795, 2.7597707509994507 l5.08378803730011, 1.1620087176561356 5.6647926568984985, 2.4692685902118683 l0.726255476474762, 2.4692685902118683 -0.4357532784342766, 9.586572051048279 l-1.7430131137371063, 9.150818586349487 -2.324017435312271, 7.8435587882995605 l-0.14525108970701694, 2.7597707509994507 16.558624505996704, -5.229039192199707 l23.675928115844727, -4.212281703948975 0.2905021794140339, -16.26812219619751 l4.793286025524139, -0.4357532784342766 26.145195960998535, 3.63127738237381 l2.4692685902118683, 1.1620087176561356 0.5810043588280678, 1.8882642686367035 l0.0, 4.502783715724945 -3.4860262274742126, 13.653602600097656 l-0.726255476474762, 5.08378803730011 6.10054612159729, 0.8715065568685532 l11.620087623596191, 0.2905021794140339 0.0, -3.1955239176750183 l-2.6145195960998535, -9.00556743144989 -3.4860262274742126, -7.1173036098480225 l0.0, -2.4692685902118683 1.1620087176561356, -2.0335152745246887 l0.5810043588280678, -3.1955239176750183 -0.14525108970701694, -4.212281703948975 l-1.452510952949524, -1.8882642686367035 -0.726255476474762, -0.4357532784342766 l-43.13957214355469, -6.10054612159729 -7.407805919647217, -1.7430131137371063 l-0.726255476474762, -1.0167576372623444 0.14525108970701694, -1.7430131137371063 l4.938537180423737, -4.357532858848572 " fill="none" stroke="black" stroke-width="1" /></svg>