<?xml version="1.0" encoding="utf-8" ?>
<svg baseProfile="full" height="58.65911580622196" version="1.1" width="78.41326394118369" xmlns="http://www.w3.org/2000/svg" xmlns:ev="http://www.w3.org/2001/xml-events" xmlns:xlink="http://www.w3.org/1999/xlink"><defs /><rect fill="white" height="58.65911580622196" width="78.41326394118369" x="0" y="0" /><path d="M21.26812193542719, 13.569814348593354 m-7.698307633399963, 8.569814562797546 l-2.4692685902118683, 3.9217793941497803 -2.324017435312271, 5.374290347099304 l-0.4357532784342766, 4.793286025524139 2.905021905899048, 1.0167576372623444 l2.905021905899048, -0.14525108970701694 0.8715065568685532, -0.4357532784342766 l-1.0167576372623444, -0.5810043588280678 -2.7597707509994507, 0.726255476474762 l-1.5977619588375092, 1.1620087176561356 -2.7597707509994507, 2.905021905899048 l-1.8882642686367035, 4.067030549049377 0.14525108970701694, 3.63127738237381 l1.1620087176561356, 2.0335152745246887 1.8882642686367035, 2.0335152745246887 l3.1955239176750183, 1.0167576372623444 6.972052454948425, -0.5810043588280678 l3.9217793941497803, -1.1620087176561356 10.02232551574707, -3.63127738237381 l6.391047835350037, -3.050273060798645 2.7597707509994507, -2.4692685902118683 l1.3072597980499268, -2.7597707509994507 0.14525108970701694, -2.905021905899048 l-0.8715065568685532, -0.5810043588280678 -0.4357532784342766, 0.726255476474762 l0.14525108970701694, 2.178766429424286 2.905021905899048, 6.10054612159729 l2.7597707509994507, 2.178766429424286 4.502783715724945, 2.0335152745246887 l1.8882642686367035, 0.0 3.050273060798645, -1.1620087176561356 l9.586572051048279, -7.26255476474762 2.4692685902118683, -3.9217793941497803 l1.1620087176561356, -3.1955239176750183 0.2905021794140339, -5.6647926568984985 l-1.8882642686367035, -4.357532858848572 -1.3072597980499268, -1.1620087176561356 l-3.050273060798645, -1.3072597980499268 -3.3407750725746155, -0.2905021794140339 l3.4860262274742126, 1.1620087176561356 9.150818586349487, -1.0167576372623444 l-0.8715065568685532, -2.905021905899048 -1.452510952949524, -2.6145195960998535 l-3.63127738237381, -4.648034870624542 -4.357532858848572, -3.050273060798645 l-2.905021905899048, -0.726255476474762 -7.553057074546814, 0.2905021794140339 l-3.63127738237381, 0.8715065568685532 -4.938537180423737, 1.8882642686367035 l-3.3407750725746155, 2.178766429424286 0.0, -0.8715065568685532 l-1.1620087176561356, -2.178766429424286 -3.4860262274742126, -3.3407750725746155 l-4.357532858848572, -1.452510952949524 -6.536298990249634, 0.0 l-6.972052454948425, 2.178766429424286 -3.9217793941497803, 3.3407750725746155 l-0.726255476474762, 1.452510952949524 0.4357532784342766, 0.2905021794140339 m26.145195960998535, 3.4860262274742126 l-4.357532858848572, 0.5810043588280678 -6.2457966804504395, 4.067030549049377 l-1.3072597980499268, 2.6145195960998535 -0.4357532784342766, 4.938537180423737 l1.3072597980499268, 3.3407750725746155 1.7430131137371063, 2.6145195960998535 l4.212281703948975, 4.067030549049377 3.776528537273407, 1.1620087176561356 l2.905021905899048, 0.0 3.63127738237381, -1.0167576372623444 l1.1620087176561356, -1.452510952949524 1.0167576372623444, -2.4692685902118683 l0.2905021794140339, -9.441320896148682 -0.4357532784342766, -1.5977619588375092 l-0.8715065568685532, -0.726255476474762 -11.039083003997803, -1.7430131137371063 l-2.7597707509994507, -1.1620087176561356 m0.2905021794140339, 2.6145195960998535 l0.4357532784342766, 0.0 m5.374290347099304, 1.1620087176561356 l0.0, 0.14525108970701694 m-2.905021905899048, 1.7430131137371063 l-0.2905021794140339, 5.6647926568984985 -0.4357532784342766, 0.8715065568685532 l-0.726255476474762, 0.2905021794140339 -2.178766429424286, 0.2905021794140339 l-1.5977619588375092, -0.5810043588280678 -0.726255476474762, -2.905021905899048 l0.14525108970701694, -2.178766429424286 m5.374290347099304, 3.1955239176750183 l0.14525108970701694, 0.726255476474762 1.452510952949524, 0.5810043588280678 l2.4692685902118683, 0.2905021794140339 2.178766429424286, -0.14525108970701694 l0.5810043588280678, -1.452510952949524 " fill="none" stroke="black" stroke-width="1" /></svg>