<?xml version="1.0" encoding="utf-8" ?>
<svg baseProfile="full" height="57.06135408952832" version="1.1" width="113.99978273548186" xmlns="http://www.w3.org/2000/svg" xmlns:ev="http://www.w3.org/2001/xml-events" xmlns:xlink="http://www.w3.org/1999/xlink"><defs /><rect fill="white" height="57.06135408952832" width="113.99978273548186" x="0" y="0" /><path d="M29.83793580904603, 18.363100979477167 m-0.726255476474762, -0.726255476474762 l-0.726255476474762, 0.0 -1.452510952949524, 1.1620087176561356 l-1.5977619588375092, 4.067030549049377 -0.726255476474762, 3.776528537273407 l0.0, 9.441320896148682 1.3072597980499268, 2.0335152745246887 l1.452510952949524, 1.1620087176561356 2.324017435312271, 0.4357532784342766 l4.212281703948975, -0.2905021794140339 4.938537180423737, -2.4692685902118683 l4.357532858848572, -3.050273060798645 3.3407750725746155, -3.63127738237381 l2.6145195960998535, -4.067030549049377 1.1620087176561356, -3.1955239176750183 l0.0, -1.7430131137371063 -1.452510952949524, -1.452510952949524 l-3.63127738237381, -1.452510952949524 -4.212281703948975, -0.726255476474762 l-9.296069741249084, 0.0 -7.698307633399963, 1.8882642686367035 l-2.7597707509994507, 1.5977619588375092 -0.14525108970701694, 0.726255476474762 m23.82117986679077, -8.279312252998352 l-0.726255476474762, -0.2905021794140339 4.793286025524139, -0.4357532784342766 l21.061408519744873, -4.067030549049377 -7.26255476474762, 6.10054612159729 l-3.776528537273407, 4.067030549049377 -0.726255476474762, 1.452510952949524 l4.502783715724945, 0.14525108970701694 4.938537180423737, 1.0167576372623444 l0.5810043588280678, 1.7430131137371063 -1.0167576372623444, 1.1620087176561356 l-4.212281703948975, 2.6145195960998535 -4.648034870624542, 1.7430131137371063 l-4.212281703948975, 0.14525108970701694 -0.4357532784342766, -0.726255476474762 l1.8882642686367035, 4.212281703948975 0.726255476474762, 3.4860262274742126 l-0.14525108970701694, 2.905021905899048 -1.3072597980499268, 1.1620087176561356 l-1.0167576372623444, 0.2905021794140339 -1.1620087176561356, -0.4357532784342766 l-3.9217793941497803, -6.10054612159729 -2.324017435312271, 8.134061098098755 l-2.6145195960998535, 3.776528537273407 -4.067030549049377, 3.63127738237381 l-2.7597707509994507, 1.1620087176561356 -1.3072597980499268, 0.0 l-3.1955239176750183, -2.7597707509994507 -2.0335152745246887, -3.050273060798645 l-1.0167576372623444, -0.4357532784342766 -3.776528537273407, 4.502783715724945 l-2.178766429424286, 1.1620087176561356 -8.42456340789795, 2.178766429424286 l-1.0167576372623444, -0.726255476474762 -1.8882642686367035, -9.586572051048279 l-4.212281703948975, -9.00556743144989 -1.7430131137371063, 3.9217793941497803 l-1.3072597980499268, 0.5810043588280678 0.14525108970701694, -1.7430131137371063 l4.212281703948975, -4.648034870624542 10.893832445144653, -10.312827825546265 l0.14525108970701694, -2.324017435312271 -11.910589933395386, -1.452510952949524 l-1.8882642686367035, -0.5810043588280678 2.0335152745246887, -2.905021905899048 l2.324017435312271, -1.3072597980499268 5.374290347099304, -2.0335152745246887 l2.905021905899048, -0.5810043588280678 4.648034870624542, -0.14525108970701694 l1.8882642686367035, 0.4357532784342766 3.050273060798645, 1.3072597980499268 l1.0167576372623444, 1.3072597980499268 -0.8715065568685532, -0.14525108970701694 l-0.14525108970701694, -2.4692685902118683 2.4692685902118683, -3.776528537273407 l2.4692685902118683, -0.8715065568685532 2.6145195960998535, 0.0 l1.5977619588375092, 2.7597707509994507 1.452510952949524, 4.357532858848572 l0.8715065568685532, 0.8715065568685532 m-9.296069741249084, 11.76533818244934 l-0.4357532784342766, 0.8715065568685532 0.726255476474762, 0.4357532784342766 l-0.14525108970701694, -1.3072597980499268 -0.8715065568685532, -0.2905021794140339 l-0.726255476474762, 0.5810043588280678 0.2905021794140339, 0.2905021794140339 m10.893832445144653, -1.5977619588375092 l0.726255476474762, 0.4357532784342766 -0.14525108970701694, -0.726255476474762 l-1.452510952949524, -0.726255476474762 m-9.877074360847473, 7.407805919647217 l1.7430131137371063, 1.452510952949524 2.0335152745246887, 0.726255476474762 l3.050273060798645, -0.14525108970701694 0.5810043588280678, -0.726255476474762 m29.485971927642822, -5.229039192199707 l4.357532858848572, -2.178766429424286 11.039083003997803, -0.726255476474762 l3.9217793941497803, 0.14525108970701694 16.703875064849854, 2.7597707509994507 l6.10054612159729, 0.4357532784342766 " fill="none" stroke="black" stroke-width="1" /></svg>