<?xml version="1.0" encoding="utf-8" ?>
<svg baseProfile="full" height="71.29596025682986" version="1.1" width="107.75398516096175" xmlns="http://www.w3.org/2000/svg" xmlns:ev="http://www.w3.org/2001/xml-events" xmlns:xlink="http://www.w3.org/1999/xlink"><defs /><rect fill="white" height="71.29596025682986" width="107.75398516096175" x="0" y="0" /><path d="M45.52505439147353, 22.575381603091955 m-2.324017435312271, -1.0167576372623444 l-5.229039192199707, -0.4357532784342766 -4.793286025524139, 3.050273060798645 l-6.536298990249634, 6.972052454948425 -0.5810043588280678, 3.050273060798645 l0.0, 3.776528537273407 1.5977619588375092, 3.1955239176750183 l3.050273060798645, 2.178766429424286 3.1955239176750183, 1.1620087176561356 l7.8435587882995605, 0.2905021794140339 3.776528537273407, -1.7430131137371063 l1.7430131137371063, -4.067030549049377 0.8715065568685532, -9.150818586349487 l0.0, -5.229039192199707 -0.2905021794140339, -1.452510952949524 l-2.4692685902118683, -2.178766429424286 m-1.3072597980499268, -9.296069741249084 l-5.08378803730011, -6.10054612159729 -0.726255476474762, -0.5810043588280678 l-1.5977619588375092, 0.0 -2.7597707509994507, 1.3072597980499268 l-0.4357532784342766, 0.8715065568685532 -2.0335152745246887, 1.5977619588375092 l-4.067030549049377, 2.0335152745246887 -1.5977619588375092, -0.14525108970701694 l-1.8882642686367035, -2.4692685902118683 -4.212281703948975, 0.14525108970701694 l-2.905021905899048, 1.0167576372623444 -8.569814562797546, 4.502783715724945 l-2.0335152745246887, 2.324017435312271 -0.726255476474762, 3.4860262274742126 l-0.4357532784342766, 12.34634280204773 1.5977619588375092, 7.8435587882995605 l0.8715065568685532, 2.324017435312271 1.8882642686367035, 3.63127738237381 l1.5977619588375092, 1.7430131137371063 2.4692685902118683, 0.8715065568685532 l4.357532858848572, 0.14525108970701694 0.726255476474762, 0.4357532784342766 l0.726255476474762, 3.4860262274742126 3.050273060798645, 7.8435587882995605 l3.4860262274742126, 4.067030549049377 2.6145195960998535, 1.452510952949524 l3.1955239176750183, 0.4357532784342766 6.536298990249634, 0.0 l16.26812219619751, -4.648034870624542 2.905021905899048, -5.229039192199707 l4.212281703948975, -10.893832445144653 0.5810043588280678, -5.519541501998901 l-0.14525108970701694, -3.63127738237381 -2.905021905899048, -3.776528537273407 l1.452510952949524, -5.374290347099304 -0.2905021794140339, -14.08935546875 l-1.3072597980499268, -1.452510952949524 -11.329585313796997, -2.178766429424286 l-3.4860262274742126, -1.452510952949524 -2.4692685902118683, 0.14525108970701694 l-1.7430131137371063, 1.1620087176561356 -0.8715065568685532, 1.3072597980499268 m22.078166007995605, 18.59213948249817 l1.452510952949524, 0.4357532784342766 4.212281703948975, 3.9217793941497803 l14.815611839294434, 0.2905021794140339 10.748580694198608, -2.4692685902118683 l6.826801300048828, -3.050273060798645 3.63127738237381, -0.8715065568685532 " fill="none" stroke="black" stroke-width="1" /></svg>