<?xml version="1.0" encoding="utf-8" ?>
<svg baseProfile="full" height="60.983132822439075" version="1.1" width="57.06135426647961" xmlns="http://www.w3.org/2000/svg" xmlns:ev="http://www.w3.org/2001/xml-events" xmlns:xlink="http://www.w3.org/1999/xlink"><defs /><rect fill="white" height="60.983132822439075" width="57.06135426647961" x="0" y="0" /><path d="M27.804421270266175, 12.262554690241814 m-1.0167576372623444, -2.7597707509994507 l-3.1955239176750183, -3.63127738237381 -3.63127738237381, -0.8715065568685532 l-2.324017435312271, 0.0 -0.726255476474762, 2.178766429424286 l0.0, 4.648034870624542 -2.0335152745246887, -0.14525108970701694 l-1.3072597980499268, 0.4357532784342766 -2.324017435312271, 4.648034870624542 l-0.14525108970701694, 2.324017435312271 -2.0335152745246887, 0.4357532784342766 l-3.3407750725746155, 4.067030549049377 -0.726255476474762, 4.793286025524139 l0.0, 3.63127738237381 0.8715065568685532, 2.0335152745246887 l-0.5810043588280678, 6.391047835350037 3.050273060798645, 1.1620087176561356 l3.050273060798645, -1.8882642686367035 0.4357532784342766, 0.5810043588280678 l0.14525108970701694, 4.212281703948975 1.7430131137371063, 3.3407750725746155 l8.715065717697144, 5.229039192199707 6.681550145149231, 2.905021905899048 l0.726255476474762, 0.0 2.0335152745246887, -6.681550145149231 l1.0167576372623444, 3.4860262274742126 3.63127738237381, 0.4357532784342766 l1.7430131137371063, -0.5810043588280678 1.0167576372623444, -3.4860262274742126 l0.5810043588280678, -4.648034870624542 0.8715065568685532, 1.1620087176561356 l1.0167576372623444, 3.63127738237381 1.1620087176561356, 0.8715065568685532 l4.067030549049377, -3.63127738237381 0.5810043588280678, -1.1620087176561356 l1.3072597980499268, -2.7597707509994507 0.4357532784342766, -4.938537180423737 l-1.3072597980499268, -0.2905021794140339 1.3072597980499268, 0.14525108970701694 l0.726255476474762, -0.2905021794140339 1.1620087176561356, -2.324017435312271 l0.5810043588280678, -3.1955239176750183 0.0, -1.5977619588375092 l-0.5810043588280678, -1.7430131137371063 -2.7597707509994507, -0.8715065568685532 l2.905021905899048, -3.050273060798645 0.726255476474762, -3.4860262274742126 l-0.5810043588280678, -0.8715065568685532 -1.452510952949524, -0.5810043588280678 l-2.905021905899048, -0.4357532784342766 0.2905021794140339, -0.4357532784342766 m-10.458078384399414, -11.184333562850952 l-4.648034870624542, -0.2905021794140339 -1.1620087176561356, 0.0 l0.4357532784342766, 0.2905021794140339 m2.324017435312271, -0.5810043588280678 l0.8715065568685532, -0.14525108970701694 2.178766429424286, 0.8715065568685532 l0.726255476474762, 1.3072597980499268 0.2905021794140339, 2.905021905899048 l5.08378803730011, 0.0 0.8715065568685532, 0.2905021794140339 l5.08378803730011, 4.648034870624542 0.0, 0.5810043588280678 l-2.0335152745246887, 1.0167576372623444 m-18.01113486289978, 1.7430131137371063 l-1.3072597980499268, -0.5810043588280678 -3.1955239176750183, 0.0 l-3.776528537273407, 1.1620087176561356 -1.7430131137371063, 1.1620087176561356 l-0.14525108970701694, 4.648034870624542 1.1620087176561356, 5.229039192199707 l2.178766429424286, 2.6145195960998535 3.050273060798645, 0.5810043588280678 l0.726255476474762, 0.0 1.1620087176561356, -1.452510952949524 l2.905021905899048, -1.3072597980499268 2.178766429424286, -3.776528537273407 l0.0, -1.3072597980499268 -1.452510952949524, -3.63127738237381 " fill="none" stroke="black" stroke-width="1" /></svg>