<?xml version="1.0" encoding="utf-8" ?>
<svg baseProfile="full" height="60.11162734590471" version="1.1" width="60.25687835179269" xmlns="http://www.w3.org/2000/svg" xmlns:ev="http://www.w3.org/2001/xml-events" xmlns:xlink="http://www.w3.org/1999/xlink"><defs /><rect fill="white" height="60.11162734590471" width="60.25687835179269" x="0" y="0" /><path d="M35.793232936412096, 18.79885290749371 m-1.0167576372623444, -0.4357532784342766 l-2.7597707509994507, 0.0 -1.5977619588375092, 0.2905021794140339 l-3.1955239176750183, 1.5977619588375092 -2.905021905899048, 2.6145195960998535 l-1.3072597980499268, 2.7597707509994507 -0.4357532784342766, 4.357532858848572 l1.3072597980499268, 3.1955239176750183 0.5810043588280678, 5.955294966697693 l1.5977619588375092, 2.178766429424286 1.7430131137371063, 1.452510952949524 l1.7430131137371063, 0.4357532784342766 2.6145195960998535, 0.0 l1.1620087176561356, -0.4357532784342766 2.4692685902118683, -2.6145195960998535 l0.2905021794140339, -3.1955239176750183 -0.5810043588280678, -4.502783715724945 l4.502783715724945, -4.938537180423737 0.726255476474762, -2.0335152745246887 l-0.14525108970701694, -3.63127738237381 -0.726255476474762, -1.1620087176561356 l-3.050273060798645, -2.0335152745246887 -4.648034870624542, -0.2905021794140339 m4.502783715724945, -0.2905021794140339 l-0.726255476474762, -0.8715065568685532 0.0, -0.726255476474762 l1.7430131137371063, -1.5977619588375092 2.7597707509994507, -0.2905021794140339 l1.8882642686367035, 1.1620087176561356 0.4357532784342766, 1.452510952949524 l-0.14525108970701694, 2.324017435312271 -2.905021905899048, 2.0335152745246887 m-11.76533818244934, -1.8882642686367035 l-0.4357532784342766, -1.1620087176561356 -2.4692685902118683, -0.8715065568685532 l-3.3407750725746155, 0.0 -2.7597707509994507, 2.0335152745246887 l-1.3072597980499268, 3.050273060798645 0.0, 1.8882642686367035 l0.14525108970701694, 1.5977619588375092 1.3072597980499268, 2.0335152745246887 m4.212281703948975, 1.5977619588375092 l-4.357532858848572, 0.8715065568685532 -3.63127738237381, 2.0335152745246887 l-3.3407750725746155, 2.7597707509994507 -2.4692685902118683, 3.1955239176750183 l-1.7430131137371063, 3.1955239176750183 m16.8491268157959, -7.1173036098480225 l-4.067030549049377, 2.0335152745246887 -3.3407750725746155, 2.4692685902118683 l-3.776528537273407, 5.08378803730011 -0.726255476474762, 2.324017435312271 m14.08935546875, -8.42456340789795 l-2.4692685902118683, 2.324017435312271 -1.452510952949524, 2.324017435312271 l-1.5977619588375092, 4.793286025524139 -0.14525108970701694, 3.050273060798645 m8.279312252998352, -8.86031687259674 l0.14525108970701694, 4.793286025524139 0.8715065568685532, 6.2457966804504395 m5.955294966697693, -12.491593360900879 l7.553057074546814, 5.810043811798096 m-5.6647926568984985, -13.072597980499268 l8.86031687259674, 4.938537180423737 m-5.229039192199707, -13.653602600097656 l7.26255476474762, -0.14525108970701694 1.8882642686367035, -0.4357532784342766 m-8.134061098098755, -2.0335152745246887 l5.955294966697693, -6.826801300048828 2.324017435312271, -1.5977619588375092 m-19.463646411895752, 4.357532858848572 l1.0167576372623444, -4.938537180423737 0.14525108970701694, -3.9217793941497803 m5.08378803730011, 7.1173036098480225 l2.6145195960998535, -2.324017435312271 2.4692685902118683, -3.63127738237381 l1.3072597980499268, -5.08378803730011 m-13.508352041244507, 14.234607219696045 l-2.0335152745246887, -7.407805919647217 -1.8882642686367035, -2.324017435312271 m6.2457966804504395, 7.407805919647217 l-7.1173036098480225, -2.4692685902118683 -3.050273060798645, -0.4357532784342766 l-3.4860262274742126, 0.0 -4.357532858848572, 1.1620087176561356 m9.731823205947876, 0.726255476474762 l-4.502783715724945, 0.0 -3.050273060798645, 0.5810043588280678 l-3.63127738237381, 1.5977619588375092 -5.6647926568984985, 4.067030549049377 l-1.5977619588375092, 2.178766429424286 m14.08935546875, 0.8715065568685532 l-2.178766429424286, 0.4357532784342766 -2.4692685902118683, 1.3072597980499268 l-8.134061098098755, 5.6647926568984985 -1.8882642686367035, 2.6145195960998535 l-0.8715065568685532, 2.6145195960998535 m10.893832445144653, -4.067030549049377 l-3.3407750725746155, 3.9217793941497803 -1.5977619588375092, 2.7597707509994507 l-0.726255476474762, 2.4692685902118683 0.0, 2.4692685902118683 m11.329585313796997, -9.731823205947876 l-2.7597707509994507, 2.178766429424286 -1.452510952949524, 3.050273060798645 l-1.5977619588375092, 4.067030549049377 -0.5810043588280678, 6.10054612159729 m7.698307633399963, -13.363100290298462 l-1.1620087176561356, 5.08378803730011 -0.14525108970701694, 5.810043811798096 l0.5810043588280678, 3.9217793941497803 m8.569814562797546, -8.715065717697144 l0.8715065568685532, 4.648034870624542 1.3072597980499268, 3.9217793941497803 m4.938537180423737, -10.02232551574707 l5.229039192199707, 3.776528537273407 m-4.067030549049377, -10.02232551574707 l7.1173036098480225, 4.793286025524139 m-3.4860262274742126, -12.055840492248535 l1.8882642686367035, 0.5810043588280678 5.229039192199707, 3.776528537273407 m-4.648034870624542, -10.458078384399414 l1.0167576372623444, -0.5810043588280678 9.150818586349487, -0.4357532784342766 m-14.670360088348389, -8.134061098098755 l-0.14525108970701694, -3.3407750725746155 -0.5810043588280678, -2.0335152745246887 m-7.988809943199158, 9.731823205947876 l0.0, -4.648034870624542 -1.1620087176561356, -3.1955239176750183 m-3.9217793941497803, 16.26812219619751 l0.726255476474762, 2.324017435312271 0.0, -1.0167576372623444 l-0.14525108970701694, -1.0167576372623444 -0.4357532784342766, 1.1620087176561356 l0.4357532784342766, -0.2905021794140339 m6.10054612159729, -2.6145195960998535 l-0.726255476474762, 1.1620087176561356 0.0, 0.8715065568685532 l0.4357532784342766, 0.726255476474762 1.0167576372623444, 0.14525108970701694 l0.4357532784342766, -0.726255476474762 -0.2905021794140339, -1.8882642686367035 l-0.14525108970701694, 1.3072597980499268 m-11.910589933395386, 3.1955239176750183 l-4.648034870624542, 4.648034870624542 -5.955294966697693, 7.407805919647217 l-2.178766429424286, 4.938537180423737 m12.491593360900879, -6.681550145149231 l-3.4860262274742126, 5.08378803730011 -0.726255476474762, 3.1955239176750183 l-0.2905021794140339, 5.374290347099304 m7.988809943199158, -9.296069741249084 l-0.4357532784342766, 1.7430131137371063 0.14525108970701694, 4.502783715724945 l1.452510952949524, 3.776528537273407 m5.6647926568984985, -9.296069741249084 l0.8715065568685532, 4.793286025524139 2.178766429424286, 5.229039192199707 m2.324017435312271, -15.396615266799927 l4.067030549049377, 7.698307633399963 m-1.0167576372623444, -13.653602600097656 l2.324017435312271, 1.3072597980499268 5.955294966697693, 5.374290347099304 m-6.2457966804504395, -12.927347421646118 l3.63127738237381, 0.8715065568685532 4.648034870624542, 1.8882642686367035 l3.776528537273407, 0.726255476474762 m-12.055840492248535, -5.519541501998901 l11.184333562850952, 0.726255476474762 m-8.569814562797546, -8.134061098098755 l6.391047835350037, -8.134061098098755 m-11.76533818244934, 4.067030549049377 l0.2905021794140339, -3.4860262274742126 1.0167576372623444, -3.050273060798645 l0.4357532784342766, -0.8715065568685532 1.5977619588375092, -0.5810043588280678 m-13.508352041244507, 8.279312252998352 l0.0, -4.502783715724945 -0.5810043588280678, -1.0167576372623444 m0.14525108970701694, 8.715065717697144 l-4.648034870624542, -0.8715065568685532 -5.519541501998901, 0.14525108970701694 l-4.357532858848572, 3.050273060798645 m7.1173036098480225, 1.7430131137371063 l-6.826801300048828, 3.4860262274742126 -3.1955239176750183, 2.7597707509994507 l-4.793286025524139, 5.955294966697693 -0.5810043588280678, 2.4692685902118683 m11.620087623596191, -4.357532858848572 l-5.6647926568984985, 4.067030549049377 -2.178766429424286, 2.6145195960998535 l-2.324017435312271, 6.391047835350037 0.0, 2.4692685902118683 " fill="none" stroke="black" stroke-width="1" /></svg>