<?xml version="1.0" encoding="utf-8" ?>
<svg baseProfile="full" height="84.22330887056887" version="1.1" width="119.66457353904843" xmlns="http://www.w3.org/2000/svg" xmlns:ev="http://www.w3.org/2001/xml-events" xmlns:xlink="http://www.w3.org/1999/xlink"><defs /><rect fill="white" height="84.22330887056887" width="119.66457353904843" x="0" y="0" /><path d="M32.59770874865353, 19.234606558457017 m-2.7597707509994507, -0.5810043588280678 l-7.1173036098480225, -0.2905021794140339 -1.0167576372623444, 0.2905021794140339 l-2.4692685902118683, 2.0335152745246887 -3.050273060798645, 6.2457966804504395 l-1.0167576372623444, 5.229039192199707 0.2905021794140339, 6.972052454948425 l1.7430131137371063, 4.067030549049377 4.067030549049377, 5.374290347099304 l2.905021905899048, 2.4692685902118683 7.698307633399963, 4.648034870624542 l7.553057074546814, 2.178766429424286 6.681550145149231, 0.2905021794140339 l5.810043811798096, -0.5810043588280678 1.3072597980499268, -0.726255476474762 l1.1620087176561356, -1.452510952949524 1.7430131137371063, -4.502783715724945 l0.726255476474762, -3.9217793941497803 0.14525108970701694, -5.229039192199707 l-0.4357532784342766, -3.050273060798645 -1.8882642686367035, -6.10054612159729 l-2.4692685902118683, -4.212281703948975 -7.26255476474762, -5.810043811798096 l-3.63127738237381, -1.7430131137371063 -6.681550145149231, -1.8882642686367035 m16.558624505996704, 6.681550145149231 l-0.8715065568685532, 0.4357532784342766 0.0, -0.726255476474762 l1.1620087176561356, -2.0335152745246887 2.178766429424286, -2.178766429424286 l2.4692685902118683, 0.2905021794140339 1.1620087176561356, 1.3072597980499268 l-0.2905021794140339, 2.7597707509994507 -3.9217793941497803, 3.9217793941497803 l-1.8882642686367035, -0.2905021794140339 m-29.485971927642822, -9.296069741249084 l-0.726255476474762, -2.4692685902118683 -2.178766429424286, -2.324017435312271 l-3.1955239176750183, -1.452510952949524 -2.4692685902118683, -0.4357532784342766 l-0.5810043588280678, 1.1620087176561356 0.8715065568685532, 2.6145195960998535 l1.5977619588375092, 1.8882642686367035 3.050273060798645, 1.3072597980499268 m12.055840492248535, 11.329585313796997 l0.0, 0.0 m16.994377374649048, 5.955294966697693 l0.0, 0.0 m-18.44688892364502, -2.324017435312271 l-0.2905021794140339, -2.324017435312271 1.0167576372623444, -1.452510952949524 m10.893832445144653, 3.9217793941497803 l0.4357532784342766, -1.8882642686367035 m-15.396615266799927, 9.877074360847473 l3.776528537273407, 3.776528537273407 3.4860262274742126, 2.324017435312271 l2.7597707509994507, 0.8715065568685532 8.279312252998352, -0.2905021794140339 l5.08378803730011, -1.452510952949524 1.7430131137371063, -0.726255476474762 l0.726255476474762, -0.8715065568685532 0.2905021794140339, -2.0335152745246887 m-11.620087623596191, -26.58094882965088 l4.648034870624542, -1.7430131137371063 12.20109224319458, -2.6145195960998535 l20.770905017852783, -3.3407750725746155 21.93291425704956, -0.8715065568685532 l12.782095670700073, 0.2905021794140339 2.4692685902118683, 0.8715065568685532 l-0.5810043588280678, 1.0167576372623444 -5.810043811798096, 1.8882642686367035 l-21.93291425704956, 3.776528537273407 -6.10054612159729, 1.8882642686367035 l-1.0167576372623444, 1.7430131137371063 0.0, 1.0167576372623444 l2.4692685902118683, 1.8882642686367035 14.08935546875, 6.536298990249634 l2.7597707509994507, 1.7430131137371063 -2.7597707509994507, 1.0167576372623444 l-12.782095670700073, 2.324017435312271 -2.0335152745246887, 1.1620087176561356 l-0.14525108970701694, 1.0167576372623444 1.3072597980499268, 3.050273060798645 l5.519541501998901, 6.391047835350037 0.0, 1.1620087176561356 l-2.324017435312271, 1.7430131137371063 -5.374290347099304, 1.1620087176561356 l-0.2905021794140339, 1.0167576372623444 0.4357532784342766, 3.050273060798645 l2.6145195960998535, 7.26255476474762 0.14525108970701694, 2.0335152745246887 l-1.3072597980499268, -0.2905021794140339 -8.134061098098755, -6.391047835350037 l-2.6145195960998535, 7.1173036098480225 -4.648034870624542, 10.02232551574707 l-3.776528537273407, 4.067030549049377 -2.0335152745246887, -1.0167576372623444 l-11.184333562850952, -10.603330135345459 -4.067030549049377, -2.6145195960998535 l-0.8715065568685532, -0.14525108970701694 -2.4692685902118683, 0.8715065568685532 l-4.357532858848572, 4.212281703948975 -3.1955239176750183, 2.324017435312271 l-1.8882642686367035, 0.726255476474762 -1.0167576372623444, -0.4357532784342766 l-2.6145195960998535, -4.793286025524139 -3.3407750725746155, -4.502783715724945 l-2.324017435312271, -1.5977619588375092 -5.519541501998901, 0.4357532784342766 l-1.452510952949524, 1.5977619588375092 -1.3072597980499268, -3.63127738237381 l-1.0167576372623444, -5.810043811798096 -0.8715065568685532, -1.8882642686367035 l-4.938537180423737, -0.2905021794140339 -1.1620087176561356, -1.7430131137371063 l-1.0167576372623444, -4.938537180423737 -0.726255476474762, -19.173144102096558 l0.0, 1.3072597980499268 0.726255476474762, 0.2905021794140339 l3.050273060798645, -2.0335152745246887 7.698307633399963, -9.877074360847473 l4.067030549049377, -7.407805919647217 1.1620087176561356, -3.4860262274742126 l-2.178766429424286, 0.4357532784342766 15.687117576599121, 3.1955239176750183 l0.726255476474762, 1.452510952949524 0.0, 2.6145195960998535 l0.726255476474762, -0.8715065568685532 1.5977619588375092, -4.793286025524139 l1.5977619588375092, 4.212281703948975 1.8882642686367035, 2.4692685902118683 l2.0335152745246887, 0.726255476474762 2.4692685902118683, -0.5810043588280678 l7.1173036098480225, -4.067030549049377 2.7597707509994507, 4.938537180423737 l2.0335152745246887, 4.793286025524139 " fill="none" stroke="black" stroke-width="1" /></svg>