<?xml version="1.0" encoding="utf-8" ?>
<svg baseProfile="full" height="69.6981991827488" version="1.1" width="78.84901713579893" xmlns="http://www.w3.org/2000/svg" xmlns:ev="http://www.w3.org/2001/xml-events" xmlns:xlink="http://www.w3.org/1999/xlink"><defs /><rect fill="white" height="69.6981991827488" width="78.84901713579893" x="0" y="0" /><path d="M31.290447488427162, 28.09492322616279 m-0.2905021794140339, -0.726255476474762 l-0.726255476474762, -0.2905021794140339 -2.905021905899048, -0.14525108970701694 l-1.8882642686367035, 1.3072597980499268 -1.0167576372623444, 1.8882642686367035 l-0.5810043588280678, 2.6145195960998535 0.0, 9.296069741249084 l1.1620087176561356, 2.0335152745246887 4.648034870624542, 2.178766429424286 l3.776528537273407, 0.726255476474762 2.7597707509994507, -0.726255476474762 l1.1620087176561356, -2.178766429424286 1.5977619588375092, -8.279312252998352 l-0.14525108970701694, -3.050273060798645 -0.4357532784342766, -0.8715065568685532 l-4.357532858848572, -3.3407750725746155 -3.9217793941497803, -1.7430131137371063 m-6.536298990249634, -9.00556743144989 l12.20109224319458, -12.782095670700073 0.14525108970701694, 19.899399280548096 l0.4357532784342766, 3.050273060798645 10.748580694198608, -3.63127738237381 l-0.14525108970701694, 7.1173036098480225 1.1620087176561356, 11.039083003997803 l3.1955239176750183, 3.776528537273407 6.826801300048828, 5.374290347099304 l-7.1173036098480225, -1.3072597980499268 -3.9217793941497803, -1.3072597980499268 l-4.793286025524139, -3.9217793941497803 1.1620087176561356, 1.7430131137371063 l0.0, 5.519541501998901 -0.5810043588280678, 2.6145195960998535 l-4.067030549049377, 7.553057074546814 -3.4860262274742126, 2.178766429424286 l-2.178766429424286, -1.7430131137371063 -1.452510952949524, -3.3407750725746155 l-1.3072597980499268, -5.955294966697693 -0.14525108970701694, -3.9217793941497803 l-1.8882642686367035, 0.2905021794140339 -4.067030549049377, 2.4692685902118683 l-4.212281703948975, 3.776528537273407 -1.0167576372623444, 0.2905021794140339 l-0.726255476474762, -0.2905021794140339 -0.8715065568685532, -1.1620087176561356 l-0.2905021794140339, -1.7430131137371063 10.748580694198608, -4.938537180423737 l-1.0167576372623444, -0.5810043588280678 -3.1955239176750183, 0.726255476474762 l-6.2457966804504395, 2.324017435312271 -1.3072597980499268, 0.8715065568685532 l-5.955294966697693, 1.8882642686367035 -3.63127738237381, -1.8882642686367035 l-1.3072597980499268, -2.905021905899048 -0.2905021794140339, -2.6145195960998535 l3.776528537273407, 0.2905021794140339 1.3072597980499268, -0.726255476474762 l2.178766429424286, -2.324017435312271 2.178766429424286, -4.648034870624542 l0.4357532784342766, -3.4860262274742126 -0.2905021794140339, -1.1620087176561356 l-3.776528537273407, -4.212281703948975 -0.8715065568685532, -1.8882642686367035 l0.14525108970701694, -1.1620087176561356 2.0335152745246887, 0.0 l3.1955239176750183, 1.1620087176561356 2.6145195960998535, 1.5977619588375092 l1.7430131137371063, 0.14525108970701694 0.726255476474762, -0.5810043588280678 l0.5810043588280678, -0.8715065568685532 0.0, -3.1955239176750183 l-1.452510952949524, -3.050273060798645 -0.14525108970701694, -1.5977619588375092 l2.4692685902118683, -2.4692685902118683 2.6145195960998535, -5.519541501998901 l0.8715065568685532, -0.4357532784342766 m3.4860262274742126, 22.078166007995605 l-0.14525108970701694, -0.14525108970701694 m4.502783715724945, 2.324017435312271 l-0.14525108970701694, -0.4357532784342766 m-3.9217793941497803, 3.776528537273407 l2.905021905899048, 0.14525108970701694 0.5810043588280678, -0.5810043588280678 m0.0, -0.4357532784342766 l-0.5810043588280678, 0.726255476474762 -2.178766429424286, 0.0 l-0.4357532784342766, -0.726255476474762 m17.575381994247437, -8.279312252998352 l0.0, -0.726255476474762 5.6647926568984985, -7.8435587882995605 l3.63127738237381, -3.9217793941497803 2.178766429424286, -1.1620087176561356 l4.502783715724945, 0.0 6.391047835350037, 2.6145195960998535 l2.7597707509994507, 1.8882642686367035 1.3072597980499268, 1.5977619588375092 l0.4357532784342766, 1.3072597980499268 -2.6145195960998535, 1.3072597980499268 l-1.5977619588375092, 1.7430131137371063 -6.972052454948425, 5.08378803730011 l-9.00556743144989, 4.357532858848572 -4.793286025524139, 1.5977619588375092 l-1.452510952949524, 0.0 " fill="none" stroke="black" stroke-width="1" /></svg>