<?xml version="1.0" encoding="utf-8" ?>
<svg baseProfile="full" height="111.67576491832733" version="1.1" width="137.23995616659522" xmlns="http://www.w3.org/2000/svg" xmlns:ev="http://www.w3.org/2001/xml-events" xmlns:xlink="http://www.w3.org/1999/xlink"><defs /><rect fill="white" height="111.67576491832733" width="137.23995616659522" x="0" y="0" /><path d="M72.10600389167666, 28.5306765884161 m-3.776528537273407, 0.2905021794140339 l-9.00556743144989, 3.4860262274742126 -11.910589933395386, 7.553057074546814 l-7.26255476474762, 6.10054612159729 -4.648034870624542, 5.519541501998901 l-2.0335152745246887, 3.1955239176750183 -1.452510952949524, 3.4860262274742126 l-1.1620087176561356, 4.648034870624542 0.2905021794140339, 7.553057074546814 l3.4860262274742126, 7.553057074546814 4.067030549049377, 4.357532858848572 l7.26255476474762, 4.357532858848572 6.10054612159729, 1.7430131137371063 l11.039083003997803, 1.1620087176561356 9.586572051048279, -0.8715065568685532 l7.553057074546814, -2.324017435312271 5.229039192199707, -3.776528537273407 l2.6145195960998535, -3.1955239176750183 2.0335152745246887, -3.4860262274742126 l1.7430131137371063, -5.519541501998901 0.8715065568685532, -8.715065717697144 l0.0, -11.039083003997803 -0.5810043588280678, -3.776528537273407 l-1.1620087176561356, -4.648034870624542 -1.7430131137371063, -4.067030549049377 l-1.452510952949524, -2.6145195960998535 -3.1955239176750183, -4.067030549049377 l-10.16757607460022, -6.972052454948425 -1.7430131137371063, -0.8715065568685532 l-0.8715065568685532, 0.0 -0.2905021794140339, 0.5810043588280678 m-7.8435587882995605, 6.10054612159729 l-6.391047835350037, -3.776528537273407 -6.972052454948425, -2.6145195960998535 l-15.396615266799927, -3.776528537273407 -4.067030549049377, -0.5810043588280678 l-4.357532858848572, 0.0 -1.7430131137371063, 0.8715065568685532 l0.5810043588280678, 1.1620087176561356 2.0335152745246887, 1.452510952949524 l11.329585313796997, 4.648034870624542 5.229039192199707, 2.905021905899048 l0.2905021794140339, 0.8715065568685532 -2.905021905899048, 1.452510952949524 l-7.26255476474762, 1.1620087176561356 -20.62565565109253, 0.8715065568685532 l-4.648034870624542, 1.1620087176561356 -2.0335152745246887, 1.1620087176561356 l-1.7430131137371063, 1.452510952949524 0.0, 1.7430131137371063 l3.4860262274742126, 2.324017435312271 7.26255476474762, 3.4860262274742126 l3.776528537273407, 2.6145195960998535 1.452510952949524, 2.0335152745246887 l-1.452510952949524, 2.0335152745246887 -9.00556743144989, 4.648034870624542 l-1.452510952949524, 1.7430131137371063 -0.2905021794140339, 0.8715065568685532 l0.5810043588280678, 0.8715065568685532 4.648034870624542, 2.6145195960998535 l11.620087623596191, 3.4860262274742126 2.0335152745246887, 1.1620087176561356 l0.2905021794140339, 0.8715065568685532 -12.782095670700073, 4.067030549049377 l-1.452510952949524, 1.7430131137371063 0.2905021794140339, 0.8715065568685532 l2.905021905899048, 2.905021905899048 2.905021905899048, 1.7430131137371063 l10.748580694198608, 4.648034870624542 3.4860262274742126, 1.7430131137371063 l2.324017435312271, 1.7430131137371063 0.0, 1.1620087176561356 l-3.1955239176750183, 2.6145195960998535 -9.586572051048279, 3.776528537273407 l-1.7430131137371063, 1.7430131137371063 0.5810043588280678, 1.1620087176561356 l2.6145195960998535, 1.7430131137371063 2.905021905899048, 1.1620087176561356 l10.458078384399414, 2.324017435312271 9.296069741249084, 0.5810043588280678 l10.16757607460022, 0.0 -2.6145195960998535, 0.0 l6.391047835350037, 1.452510952949524 13.653602600097656, 0.2905021794140339 l22.368667125701904, -2.0335152745246887 -0.2905021794140339, -0.8715065568685532 l-2.6145195960998535, -1.1620087176561356 -7.8435587882995605, -2.6145195960998535 l4.357532858848572, -1.7430131137371063 11.039083003997803, -2.6145195960998535 l4.067030549049377, -1.452510952949524 1.1620087176561356, -0.8715065568685532 l0.5810043588280678, -0.8715065568685532 -1.7430131137371063, -2.0335152745246887 l-5.810043811798096, -3.776528537273407 -5.810043811798096, -2.905021905899048 l-0.8715065568685532, -0.8715065568685532 1.452510952949524, -1.1620087176561356 l4.938537180423737, -2.0335152745246887 8.134061098098755, -2.324017435312271 l5.229039192199707, -2.0335152745246887 2.0335152745246887, -1.452510952949524 l0.0, -0.8715065568685532 -0.8715065568685532, -1.1620087176561356 l-11.620087623596191, -7.26255476474762 -0.2905021794140339, -0.8715065568685532 l5.229039192199707, -2.905021905899048 21.206660270690918, -5.519541501998901 l2.324017435312271, -1.1620087176561356 0.5810043588280678, -0.8715065568685532 l-1.452510952949524, -2.0335152745246887 -6.391047835350037, -4.938537180423737 l-2.6145195960998535, -3.4860262274742126 0.8715065568685532, -2.6145195960998535 l5.810043811798096, -8.134061098098755 -0.2905021794140339, -2.0335152745246887 l-4.067030549049377, -2.6145195960998535 -5.519541501998901, -2.0335152745246887 l-11.329585313796997, -2.905021905899048 -10.748580694198608, -3.776528537273407 l-1.1620087176561356, -0.8715065568685532 -0.2905021794140339, -0.8715065568685532 l1.7430131137371063, -2.324017435312271 3.4860262274742126, -2.0335152745246887 l-0.2905021794140339, -0.8715065568685532 -15.687117576599121, -3.776528537273407 l-8.715065717697144, -2.905021905899048 -0.5810043588280678, 2.324017435312271 l-1.7430131137371063, 2.905021905899048 -10.16757607460022, 8.715065717697144 l-0.8715065568685532, 1.7430131137371063 0.2905021794140339, 0.8715065568685532 l-0.5810043588280678, 2.905021905899048 m-5.810043811798096, 21.206660270690918 l2.324017435312271, 0.5810043588280678 -1.1620087176561356, 0.5810043588280678 l-2.324017435312271, -1.1620087176561356 0.2905021794140339, -0.8715065568685532 l-0.8715065568685532, 0.5810043588280678 -2.6145195960998535, 0.0 l-0.2905021794140339, -0.8715065568685532 0.8715065568685532, -0.8715065568685532 l2.6145195960998535, 0.8715065568685532 0.2905021794140339, 0.8715065568685532 l-0.8715065568685532, 0.2905021794140339 2.324017435312271, 0.0 l2.324017435312271, 1.1620087176561356 0.5810043588280678, 0.8715065568685532 l-0.8715065568685532, 0.5810043588280678 -1.452510952949524, -0.2905021794140339 l-0.8715065568685532, -0.2905021794140339 -0.2905021794140339, -1.1620087176561356 l2.6145195960998535, -0.8715065568685532 0.5810043588280678, 0.8715065568685532 l-1.1620087176561356, 0.2905021794140339 -2.905021905899048, -0.5810043588280678 m24.11168098449707, 1.7430131137371063 l-3.4860262274742126, -0.8715065568685532 -2.905021905899048, -1.7430131137371063 l-0.8715065568685532, -0.8715065568685532 1.1620087176561356, -0.5810043588280678 l2.0335152745246887, 0.5810043588280678 2.6145195960998535, 1.1620087176561356 l2.324017435312271, 1.7430131137371063 -2.0335152745246887, 0.5810043588280678 l-4.648034870624542, -1.7430131137371063 " fill="none" stroke="black" stroke-width="1" /></svg>