<?xml version="1.0" encoding="utf-8" ?>
<svg baseProfile="full" height="45.15076467767358" version="1.1" width="51.54181255027652" xmlns="http://www.w3.org/2000/svg" xmlns:ev="http://www.w3.org/2001/xml-events" xmlns:xlink="http://www.w3.org/1999/xlink"><defs /><rect fill="white" height="45.15076467767358" width="51.54181255027652" x="0" y="0" /><path d="M17.491594441235065, 23.592139817774296 m-0.2905021794140339, -0.8715065568685532 l0.726255476474762, -0.4357532784342766 0.8715065568685532, 1.5977619588375092 l-0.14525108970701694, 1.5977619588375092 -1.452510952949524, 0.4357532784342766 l-1.1620087176561356, -0.8715065568685532 m10.312827825546265, -1.452510952949524 l0.0, -0.726255476474762 1.452510952949524, -0.14525108970701694 l0.726255476474762, 0.2905021794140339 0.14525108970701694, 0.726255476474762 l0.0, 0.8715065568685532 -0.5810043588280678, 0.726255476474762 l-1.452510952949524, 0.4357532784342766 -0.4357532784342766, -2.178766429424286 m-13.217849731445312, -9.441320896148682 l0.5810043588280678, -1.452510952949524 3.776528537273407, -4.067030549049377 l2.905021905899048, -2.324017435312271 2.324017435312271, -1.1620087176561356 l1.7430131137371063, -0.14525108970701694 1.0167576372623444, 0.8715065568685532 l1.8882642686367035, 2.4692685902118683 -0.14525108970701694, 0.726255476474762 l-0.726255476474762, 0.4357532784342766 4.067030549049377, -0.14525108970701694 l7.8435587882995605, -2.7597707509994507 1.5977619588375092, -0.14525108970701694 l0.5810043588280678, 2.0335152745246887 -1.5977619588375092, 2.905021905899048 l4.502783715724945, -1.8882642686367035 0.8715065568685532, 0.0 l0.14525108970701694, 1.7430131137371063 -1.8882642686367035, 7.1173036098480225 l-0.4357532784342766, 3.776528537273407 0.2905021794140339, 3.9217793941497803 l0.2905021794140339, -0.726255476474762 -0.4357532784342766, -0.8715065568685532 l-2.4692685902118683, -1.8882642686367035 5.374290347099304, 7.553057074546814 l1.452510952949524, 2.905021905899048 -1.5977619588375092, 0.726255476474762 l-0.726255476474762, -0.2905021794140339 0.726255476474762, 5.374290347099304 l0.0, 0.8715065568685532 -0.726255476474762, 0.2905021794140339 l-3.776528537273407, -4.067030549049377 -1.5977619588375092, -1.0167576372623444 l-1.0167576372623444, 1.7430131137371063 -1.5977619588375092, 1.3072597980499268 l-3.9217793941497803, 0.8715065568685532 -2.178766429424286, 1.3072597980499268 l-2.178766429424286, -1.1620087176561356 -2.4692685902118683, 0.5810043588280678 l-1.452510952949524, -1.5977619588375092 -1.8882642686367035, 0.0 l-3.050273060798645, 1.3072597980499268 -3.776528537273407, -1.5977619588375092 l-3.9217793941497803, 0.2905021794140339 -3.1955239176750183, -1.1620087176561356 l-1.3072597980499268, -2.6145195960998535 1.3072597980499268, -2.4692685902118683 l-0.4357532784342766, -1.5977619588375092 1.7430131137371063, -3.776528537273407 l0.14525108970701694, -1.5977619588375092 -2.178766429424286, -4.212281703948975 l-0.2905021794140339, -2.178766429424286 -2.0335152745246887, -1.8882642686367035 l-0.14525108970701694, -1.3072597980499268 1.3072597980499268, -1.452510952949524 l5.229039192199707, -3.9217793941497803 1.452510952949524, -0.5810043588280678 l0.8715065568685532, 0.4357532784342766 m9.296069741249084, 18.01113486289978 l-0.4357532784342766, 4.793286025524139 -2.4692685902118683, 1.0167576372623444 l-2.324017435312271, -0.2905021794140339 -0.8715065568685532, -0.726255476474762 m5.374290347099304, -3.1955239176750183 l0.2905021794140339, 1.452510952949524 1.5977619588375092, 1.0167576372623444 l3.63127738237381, 0.0 2.0335152745246887, -0.726255476474762 m-7.8435587882995605, -3.9217793941497803 l0.726255476474762, 0.0 -0.726255476474762, 0.5810043588280678 l-0.5810043588280678, -0.726255476474762 0.726255476474762, -0.2905021794140339 l1.5977619588375092, 0.4357532784342766 -0.5810043588280678, 0.726255476474762 l-1.452510952949524, 0.4357532784342766 m-4.938537180423737, 0.0 l0.0, 0.0 m0.0, 0.0 l0.0, 0.0 m-0.4357532784342766, 1.5977619588375092 l0.0, 0.0 " fill="none" stroke="black" stroke-width="1" /></svg>