<?xml version="1.0" encoding="utf-8" ?>
<svg baseProfile="full" height="51.83231424540281" version="1.1" width="45.586517471820116" xmlns="http://www.w3.org/2000/svg" xmlns:ev="http://www.w3.org/2001/xml-events" xmlns:xlink="http://www.w3.org/1999/xlink"><defs /><rect fill="white" height="51.83231424540281" width="45.586517471820116" x="0" y="0" /><path d="M23.737390656024218, 16.47483645938337 m-0.726255476474762, -0.5810043588280678 l-3.9217793941497803, 0.0 -2.905021905899048, 2.6145195960998535 l-1.1620087176561356, 2.0335152745246887 -1.1620087176561356, 3.050273060798645 l-1.1620087176561356, 6.536298990249634 0.4357532784342766, 5.229039192199707 l1.452510952949524, 1.3072597980499268 2.6145195960998535, 0.5810043588280678 l3.050273060798645, 0.0 3.776528537273407, -1.452510952949524 l2.905021905899048, -1.8882642686367035 3.4860262274742126, -4.212281703948975 l0.726255476474762, -2.0335152745246887 0.2905021794140339, -4.502783715724945 l-1.1620087176561356, -1.8882642686367035 -3.63127738237381, -3.4860262274742126 l-3.3407750725746155, -1.7430131137371063 -2.905021905899048, -0.8715065568685532 m-5.6647926568984985, -3.63127738237381 l-3.3407750725746155, -1.5977619588375092 -1.8882642686367035, 0.0 l-1.0167576372623444, 0.5810043588280678 -0.726255476474762, 1.8882642686367035 l0.0, 2.0335152745246887 1.8882642686367035, 0.2905021794140339 l-2.178766429424286, 1.5977619588375092 -2.4692685902118683, 6.972052454948425 l0.0, 1.7430131137371063 2.4692685902118683, 0.0 l0.14525108970701694, 0.8715065568685532 -1.5977619588375092, 5.08378803730011 l-0.4357532784342766, 4.648034870624542 0.4357532784342766, 0.8715065568685532 l2.4692685902118683, 0.2905021794140339 1.0167576372623444, 0.5810043588280678 l3.3407750725746155, 7.26255476474762 1.0167576372623444, 1.1620087176561356 l1.3072597980499268, 0.8715065568685532 2.4692685902118683, 0.14525108970701694 l2.6145195960998535, -1.0167576372623444 8.569814562797546, -0.5810043588280678 l2.324017435312271, -1.1620087176561356 5.08378803730011, -4.067030549049377 l2.7597707509994507, -4.067030549049377 1.452510952949524, -3.4860262274742126 l0.14525108970701694, -5.08378803730011 -0.5810043588280678, -2.324017435312271 l-3.9217793941497803, -5.955294966697693 -3.3407750725746155, -7.988809943199158 l-1.452510952949524, -2.0335152745246887 -1.5977619588375092, -1.3072597980499268 l-6.972052454948425, -2.7597707509994507 -2.324017435312271, 0.0 l-4.067030549049377, 1.8882642686367035 -4.357532858848572, 0.2905021794140339 l-1.3072597980499268, 0.726255476474762 m8.42456340789795, 15.251364707946777 l0.0, 0.0 m-1.5977619588375092, 1.0167576372623444 l0.726255476474762, -0.8715065568685532 1.1620087176561356, -0.2905021794140339 l-0.4357532784342766, -0.4357532784342766 m5.810043811798096, 0.14525108970701694 l0.0, -0.2905021794140339 m-6.681550145149231, 7.26255476474762 l3.3407750725746155, 0.4357532784342766 2.905021905899048, -3.3407750725746155 " fill="none" stroke="black" stroke-width="1" /></svg>