<?xml version="1.0" encoding="utf-8" ?>
<svg baseProfile="full" height="48.201037729159" version="1.1" width="68.68144095875323" xmlns="http://www.w3.org/2000/svg" xmlns:ev="http://www.w3.org/2001/xml-events" xmlns:xlink="http://www.w3.org/1999/xlink"><defs /><rect fill="white" height="48.201037729159" width="68.68144095875323" x="0" y="0" /><path d="M24.173144241794944, 7.905021496117115 m-2.905021905899048, 0.4357532784342766 l-4.357532858848572, 2.6145195960998535 -2.6145195960998535, 3.1955239176750183 l-0.8715065568685532, 1.8882642686367035 0.2905021794140339, 4.648034870624542 l2.324017435312271, 3.3407750725746155 1.8882642686367035, 2.0335152745246887 l2.178766429424286, 1.0167576372623444 4.067030549049377, 2.905021905899048 l5.955294966697693, 2.7597707509994507 2.324017435312271, 0.5810043588280678 l7.988809943199158, 0.0 3.1955239176750183, -1.0167576372623444 l3.1955239176750183, -1.7430131137371063 2.0335152745246887, -2.4692685902118683 l1.452510952949524, -5.229039192199707 0.0, -3.9217793941497803 l-3.776528537273407, -6.2457966804504395 -1.7430131137371063, -2.0335152745246887 l-2.4692685902118683, -1.7430131137371063 -6.826801300048828, -2.7597707509994507 l-2.6145195960998535, -0.5810043588280678 -4.648034870624542, 0.0 l-4.357532858848572, 2.178766429424286 m-3.1955239176750183, -0.5810043588280678 l-4.502783715724945, -1.7430131137371063 -2.7597707509994507, -0.4357532784342766 l-4.938537180423737, 0.0 -2.905021905899048, 0.726255476474762 l0.14525108970701694, 2.6145195960998535 4.648034870624542, 3.4860262274742126 l-5.08378803730011, 2.6145195960998535 -0.2905021794140339, 3.776528537273407 l1.7430131137371063, 4.357532858848572 1.1620087176561356, 1.7430131137371063 l2.6145195960998535, 0.2905021794140339 8.569814562797546, -3.4860262274742126 l-1.8882642686367035, 0.2905021794140339 -3.9217793941497803, 1.5977619588375092 l-0.726255476474762, 1.5977619588375092 0.0, 5.955294966697693 l1.8882642686367035, 1.0167576372623444 5.6647926568984985, 0.14525108970701694 l4.067030549049377, -1.3072597980499268 -2.324017435312271, 4.648034870624542 l0.0, 1.452510952949524 1.8882642686367035, 0.5810043588280678 l1.5977619588375092, 0.0 2.324017435312271, -1.3072597980499268 l4.793286025524139, -4.793286025524139 0.5810043588280678, 5.955294966697693 l0.5810043588280678, 1.7430131137371063 1.5977619588375092, 3.63127738237381 l1.7430131137371063, 0.8715065568685532 2.905021905899048, -1.0167576372623444 l2.324017435312271, -1.7430131137371063 6.391047835350037, -3.3407750725746155 l0.2905021794140339, -3.4860262274742126 -1.7430131137371063, -2.0335152745246887 l-2.905021905899048, -1.452510952949524 1.1620087176561356, -0.14525108970701694 l2.7597707509994507, 1.0167576372623444 2.178766429424286, 0.14525108970701694 l9.441320896148682, 0.0 -0.14525108970701694, -0.726255476474762 l-4.357532858848572, -2.178766429424286 -10.458078384399414, -4.067030549049377 l15.977619886398315, -0.14525108970701694 2.905021905899048, -0.5810043588280678 l0.0, -1.5977619588375092 -2.324017435312271, -1.3072597980499268 l-10.312827825546265, -3.776528537273407 " fill="none" stroke="black" stroke-width="1" /></svg>