<?xml version="1.0" encoding="utf-8" ?>
<svg baseProfile="full" height="44.56975965760648" version="1.1" width="47.910535521805286" xmlns="http://www.w3.org/2000/svg" xmlns:ev="http://www.w3.org/2001/xml-events" xmlns:xlink="http://www.w3.org/1999/xlink"><defs /><rect fill="white" height="44.56975965760648" width="47.910535521805286" x="0" y="0" /><path d="M12.262554615736008, 32.16195425949991 m-3.63127738237381, 0.14525108970701694 l-1.452510952949524, -0.8715065568685532 -1.5977619588375092, -2.178766429424286 l0.0, -1.452510952949524 0.726255476474762, -0.5810043588280678 l1.5977619588375092, 0.14525108970701694 1.452510952949524, 0.726255476474762 l-2.7597707509994507, -4.502783715724945 -1.5977619588375092, -5.810043811798096 l0.14525108970701694, -2.178766429424286 1.0167576372623444, -1.452510952949524 l2.4692685902118683, -6.826801300048828 0.726255476474762, -0.5810043588280678 l2.178766429424286, 1.0167576372623444 1.8882642686367035, -0.14525108970701694 l7.1173036098480225, -2.6145195960998535 4.212281703948975, 1.5977619588375092 l7.26255476474762, -1.1620087176561356 2.6145195960998535, 0.14525108970701694 l1.7430131137371063, 2.178766429424286 3.63127738237381, 1.1620087176561356 l0.2905021794140339, 4.648034870624542 2.4692685902118683, 2.905021905899048 l0.14525108970701694, 0.8715065568685532 -0.5810043588280678, 0.726255476474762 l-0.726255476474762, 2.905021905899048 0.726255476474762, 8.42456340789795 l-1.7430131137371063, 1.7430131137371063 -5.955294966697693, 1.3072597980499268 l-0.5810043588280678, 0.726255476474762 0.2905021794140339, 0.726255476474762 l-0.8715065568685532, 0.5810043588280678 -9.731823205947876, -0.14525108970701694 m-10.02232551574707, -1.0167576372623444 l-2.178766429424286, -8.86031687259674 0.2905021794140339, -4.357532858848572 l1.5977619588375092, -3.050273060798645 4.212281703948975, -2.178766429424286 l5.955294966697693, -0.14525108970701694 2.324017435312271, 1.0167576372623444 l1.3072597980499268, 2.0335152745246887 0.726255476474762, 2.905021905899048 l-0.14525108970701694, 3.1955239176750183 -4.067030549049377, 11.620087623596191 l-1.452510952949524, 2.0335152745246887 -2.4692685902118683, 1.5977619588375092 l-1.7430131137371063, 0.4357532784342766 -4.502783715724945, -0.726255476474762 l-2.0335152745246887, -4.067030549049377 -0.14525108970701694, -2.905021905899048 l0.8715065568685532, -1.7430131137371063 m3.3407750725746155, -10.02232551574707 l-0.726255476474762, 0.2905021794140339 -0.726255476474762, 1.452510952949524 l0.2905021794140339, 0.8715065568685532 0.726255476474762, 0.14525108970701694 l0.726255476474762, 0.0 0.5810043588280678, -0.726255476474762 l0.2905021794140339, -1.8882642686367035 m4.212281703948975, 0.5810043588280678 l-0.726255476474762, -0.14525108970701694 -0.4357532784342766, 0.726255476474762 l0.14525108970701694, 2.7597707509994507 0.726255476474762, 0.4357532784342766 l0.726255476474762, -0.4357532784342766 0.4357532784342766, -2.7597707509994507 " fill="none" stroke="black" stroke-width="1" /></svg>