<?xml version="1.0" encoding="utf-8" ?>
<svg baseProfile="full" height="121.40759023837745" version="1.1" width="208.2677463721484" xmlns="http://www.w3.org/2000/svg" xmlns:ev="http://www.w3.org/2001/xml-events" xmlns:xlink="http://www.w3.org/1999/xlink"><defs /><rect fill="white" height="121.40759023837745" width="208.2677463721484" x="0" y="0" /><path d="M99.26795924082398, 50.75409673154354 m-10.603330135345459, 1.7430131137371063 l-2.7597707509994507, 1.3072597980499268 0.14525108970701694, 9.441320896148682 l-2.178766429424286, 12.055840492248535 -0.2905021794140339, 3.776528537273407 l0.5810043588280678, 5.6647926568984985 2.0335152745246887, 0.0 m-11.910589933395386, -24.837937355041504 l23.385426998138428, 16.994377374649048 11.329585313796997, 2.7597707509994507 l9.296069741249084, 2.905021905899048 10.312827825546265, 3.4860262274742126 l20.33515214920044, 7.8435587882995605 18.59213948249817, 5.955294966697693 l16.413373947143555, 6.10054612159729 13.217849731445312, 4.212281703948975 l6.10054612159729, 0.5810043588280678 -0.14525108970701694, -2.324017435312271 l-2.4692685902118683, -6.536298990249634 -8.86031687259674, -17.139629125595093 l-19.754148721694946, -31.95523977279663 -36.02226972579956, -32.390992641448975 l-131.01648330688477, -15.396615266799927 0.0, 9.00556743144989 l4.357532858848572, 4.648034870624542 1.5977619588375092, 3.1955239176750183 l1.452510952949524, 5.810043811798096 1.8882642686367035, 15.396615266799927 l1.0167576372623444, 19.6088969707489 2.178766429424286, 13.653602600097656 l2.905021905899048, 14.234607219696045 9.150818586349487, 23.966429233551025 l0.8715065568685532, 1.8882642686367035 0.726255476474762, 0.0 l-5.08378803730011, -0.4357532784342766 -2.178766429424286, -2.178766429424286 l-4.938537180423737, -8.715065717697144 -5.374290347099304, -8.279312252998352 l-8.569814562797546, -40.37980556488037 0.0, -51.41888618469238 l1.1620087176561356, 0.0 10.603330135345459, 1.452510952949524 l8.134061098098755, 0.5810043588280678 9.731823205947876, 2.0335152745246887 l10.893832445144653, 1.5977619588375092 15.977619886398315, 4.648034870624542 l16.8491268157959, 6.536298990249634 6.391047835350037, 3.9217793941497803 l9.586572051048279, 7.26255476474762 18.301637172698975, 19.6088969707489 l11.474835872650146, 11.184333562850952 7.553057074546814, 8.86031687259674 l14.815611839294434, 14.52510952949524 6.972052454948425, 6.10054612159729 l20.770905017852783, 16.12287163734436 5.6647926568984985, 3.63127738237381 l8.42456340789795, 3.3407750725746155 14.960862398147583, 0.0 l-0.4357532784342766, -3.050273060798645 -2.178766429424286, -3.776528537273407 l-11.620087623596191, -10.748580694198608 -16.12287163734436, -9.731823205947876 l-20.189902782440186, -10.16757607460022 -17.430131435394287, -5.6647926568984985 l-9.296069741249084, -5.955294966697693 -34.279258251190186, -11.039083003997803 l-22.949671745300293, -3.9217793941497803 -8.134061098098755, -1.8882642686367035 l-52.87139892578125, -5.519541501998901 -2.7597707509994507, 0.726255476474762 l0.14525108970701694, 13.94410490989685 0.0, -16.8491268157959 l0.8715065568685532, -3.050273060798645 2.0335152745246887, -5.08378803730011 l14.815611839294434, -27.161953449249268 10.16757607460022, -2.4692685902118683 l10.16757607460022, 0.0 m47.2066068649292, 28.614466190338135 l0.2905021794140339, 4.212281703948975 -71.60878658294678, 57.22893238067627 l-3.1955239176750183, -21.351909637451172 -0.8715065568685532, -9.731823205947876 l-2.7597707509994507, -11.329585313796997 -4.502783715724945, -6.681550145149231 l-0.726255476474762, 0.0 -0.8715065568685532, 0.726255476474762 l-1.1620087176561356, -0.14525108970701694 0.0, -0.726255476474762 l1.0167576372623444, 0.2905021794140339 28.323962688446045, -3.1955239176750183 l18.301637172698975, 0.0 6.536298990249634, 0.726255476474762 l6.972052454948425, -0.14525108970701694 m0.0, 0.0 l11.76533818244934, 3.776528537273407 8.569814562797546, 4.212281703948975 l7.698307633399963, 5.374290347099304 6.2457966804504395, 3.1955239176750183 l16.26812219619751, 7.553057074546814 13.363100290298462, 5.374290347099304 l13.508352041244507, 4.357532858848572 31.22898578643799, 1.7430131137371063 m0.0, 0.0 l-6.10054612159729, 1.452510952949524 -2.905021905899048, -0.2905021794140339 l-5.810043811798096, -2.324017435312271 -33.26250076293945, -5.6647926568984985 l-46.62559986114502, -6.10054612159729 -29.195468425750732, -2.6145195960998535 l-45.899343490600586, -7.698307633399963 0.0, -50.837883949279785 l1.8882642686367035, 0.14525108970701694 3.63127738237381, 1.1620087176561356 l19.6088969707489, 2.6145195960998535 6.972052454948425, 1.452510952949524 l9.731823205947876, 2.6145195960998535 13.653602600097656, 4.502783715724945 l15.396615266799927, 7.1173036098480225 13.363100290298462, 5.229039192199707 l22.368667125701904, 13.653602600097656 79.74285125732422, 36.02226972579956 l11.910589933395386, 14.815611839294434 0.0, 22.078166007995605 l-3.9217793941497803, -0.14525108970701694 -4.938537180423737, -1.8882642686367035 l-7.698307633399963, -4.938537180423737 -26.726200580596924, -11.76533818244934 l-16.12287163734436, -6.681550145149231 -30.6479811668396, -10.893832445144653 l-22.80442237854004, -11.039083003997803 -41.832313537597656, -13.072597980499268 l-43.57532978057861, -12.20109224319458 0.0, -10.16757607460022 l25.854694843292236, 11.329585313796997 13.508352041244507, 8.715065717697144 l21.206660270690918, 12.782095670700073 39.2177939414978, 18.44688892364502 l11.910589933395386, 3.63127738237381 10.16757607460022, 5.519541501998901 l6.2457966804504395, 5.229039192199707 0.0, 0.4357532784342766 " fill="none" stroke="black" stroke-width="1" /></svg>