<?xml version="1.0" encoding="utf-8" ?>
<svg baseProfile="full" height="90.4691047500819" version="1.1" width="116.75955321639776" xmlns="http://www.w3.org/2000/svg" xmlns:ev="http://www.w3.org/2001/xml-events" xmlns:xlink="http://www.w3.org/1999/xlink"><defs /><rect fill="white" height="90.4691047500819" width="116.75955321639776" x="0" y="0" /><path d="M66.00546058267355, 35.5027290340513 m-0.5810043588280678, -2.4692685902118683 l-4.938537180423737, -2.0335152745246887 -6.2457966804504395, -1.0167576372623444 l-6.681550145149231, -0.14525108970701694 -3.050273060798645, 2.0335152745246887 l-2.6145195960998535, 5.08378803730011 -2.905021905899048, 12.636845111846924 l0.2905021794140339, 6.2457966804504395 4.067030549049377, 5.08378803730011 l4.648034870624542, 3.63127738237381 5.810043811798096, 3.050273060798645 l2.905021905899048, 0.8715065568685532 7.26255476474762, 1.5977619588375092 l4.648034870624542, 0.0 4.793286025524139, -2.0335152745246887 l4.502783715724945, -2.6145195960998535 2.7597707509994507, -3.4860262274742126 l2.6145195960998535, -6.826801300048828 1.3072597980499268, -4.793286025524139 l0.2905021794140339, -5.229039192199707 -1.452510952949524, -3.4860262274742126 l-3.776528537273407, -4.212281703948975 -4.938537180423737, -3.3407750725746155 l-2.6145195960998535, -1.1620087176561356 -10.02232551574707, -3.050273060798645 l-4.357532858848572, -0.5810043588280678 -5.6647926568984985, 0.2905021794140339 l-3.9217793941497803, 1.0167576372623444 m-3.1955239176750183, 34.279258251190186 l-0.5810043588280678, -1.0167576372623444 0.14525108970701694, -3.776528537273407 l2.0335152745246887, -5.374290347099304 1.5977619588375092, -2.324017435312271 l3.9217793941497803, -4.502783715724945 4.793286025524139, -3.63127738237381 l4.793286025524139, -1.452510952949524 1.0167576372623444, 0.0 l0.8715065568685532, 1.452510952949524 0.726255476474762, 3.1955239176750183 l1.452510952949524, 14.670360088348389 6.2457966804504395, -6.10054612159729 l3.1955239176750183, -2.4692685902118683 4.067030549049377, -2.4692685902118683 l2.178766429424286, -0.4357532784342766 1.0167576372623444, 0.726255476474762 l0.2905021794140339, 1.8882642686367035 0.14525108970701694, 7.26255476474762 l-1.7430131137371063, 4.067030549049377 m-26.435699462890625, -12.055840492248535 l0.4357532784342766, 3.1955239176750183 1.3072597980499268, 0.2905021794140339 m18.737391233444214, 2.6145195960998535 l0.4357532784342766, 0.8715065568685532 -0.4357532784342766, 0.8715065568685532 m-14.960862398147583, 1.7430131137371063 l0.0, 2.7597707509994507 1.3072597980499268, 0.8715065568685532 l2.4692685902118683, 0.14525108970701694 0.726255476474762, -0.14525108970701694 l0.2905021794140339, -0.5810043588280678 m1.0167576372623444, -13.363100290298462 l0.8715065568685532, -0.4357532784342766 2.324017435312271, 0.14525108970701694 l-0.8715065568685532, 0.4357532784342766 -1.8882642686367035, -0.4357532784342766 l1.452510952949524, 0.8715065568685532 0.8715065568685532, 1.5977619588375092 l-0.8715065568685532, 0.0 -0.2905021794140339, -3.1955239176750183 l1.3072597980499268, 3.776528537273407 -1.452510952949524, -0.2905021794140339 l-1.1620087176561356, -2.7597707509994507 1.1620087176561356, 1.1620087176561356 l0.8715065568685532, 2.4692685902118683 m-13.363100290298462, -17.72063374519348 l0.4357532784342766, -1.5977619588375092 1.1620087176561356, -1.7430131137371063 l1.3072597980499268, 1.7430131137371063 -0.14525108970701694, 3.050273060798645 l-0.5810043588280678, 0.8715065568685532 -0.2905021794140339, -0.4357532784342766 m11.184333562850952, 3.4860262274742126 l0.726255476474762, -1.8882642686367035 1.7430131137371063, -2.0335152745246887 l2.6145195960998535, -0.8715065568685532 0.726255476474762, 0.0 l0.5810043588280678, 3.050273060798645 -0.14525108970701694, 1.5977619588375092 m-6.681550145149231, -18.44688892364502 l2.7597707509994507, -3.4860262274742126 1.0167576372623444, -0.5810043588280678 l2.4692685902118683, -0.2905021794140339 1.1620087176561356, 11.76533818244934 l0.4357532784342766, 0.8715065568685532 1.3072597980499268, 0.4357532784342766 l18.156386613845825, -1.452510952949524 2.4692685902118683, 2.7597707509994507 l0.0, 1.5977619588375092 -2.6145195960998535, 4.357532858848572 l2.0335152745246887, 2.4692685902118683 8.134061098098755, 4.067030549049377 l6.826801300048828, 7.698307633399963 -6.391047835350037, 0.0 l-3.63127738237381, -0.8715065568685532 6.536298990249634, 14.960862398147583 l0.14525108970701694, 2.905021905899048 -5.6647926568984985, 2.324017435312271 l-3.776528537273407, -1.5977619588375092 -5.519541501998901, -5.229039192199707 l-0.4357532784342766, -0.8715065568685532 1.0167576372623444, 0.8715065568685532 l0.726255476474762, 2.178766429424286 -8.86031687259674, 10.893832445144653 l-5.955294966697693, 2.4692685902118683 -11.039083003997803, 3.050273060798645 l2.324017435312271, -3.050273060798645 3.776528537273407, -3.776528537273407 l-8.42456340789795, -0.726255476474762 -7.407805919647217, 1.8882642686367035 l-19.318394660949707, 2.324017435312271 -3.63127738237381, -0.14525108970701694 l-0.14525108970701694, -7.988809943199158 5.810043811798096, -6.826801300048828 l-1.3072597980499268, -0.4357532784342766 -5.374290347099304, 0.0 l-28.46921443939209, -4.357532858848572 -1.7430131137371063, -1.452510952949524 l4.067030549049377, -2.7597707509994507 6.681550145149231, 0.5810043588280678 l-2.6145195960998535, 3.9217793941497803 -2.6145195960998535, -1.3072597980499268 l-2.324017435312271, -2.324017435312271 5.519541501998901, -16.703875064849854 l2.6145195960998535, -1.3072597980499268 2.4692685902118683, -0.14525108970701694 l5.810043811798096, 7.1173036098480225 0.4357532784342766, 1.1620087176561356 l4.648034870624542, -17.139629125595093 1.5977619588375092, -0.14525108970701694 l1.8882642686367035, 4.502783715724945 6.536298990249634, 4.067030549049377 l1.0167576372623444, -2.4692685902118683 3.63127738237381, -17.575381994247437 l2.905021905899048, -5.08378803730011 4.648034870624542, -3.63127738237381 l10.603330135345459, -6.681550145149231 1.452510952949524, 8.42456340789795 l1.7430131137371063, 2.0335152745246887 m-40.234551429748535, 67.3965072631836 l1.8882642686367035, -4.793286025524139 2.178766429424286, -3.1955239176750183 " fill="none" stroke="black" stroke-width="1" /></svg>