<?xml version="1.0" encoding="utf-8" ?>
<svg baseProfile="full" height="70.7149557210505" version="1.1" width="81.17303532548249" xmlns="http://www.w3.org/2000/svg" xmlns:ev="http://www.w3.org/2001/xml-events" xmlns:xlink="http://www.w3.org/1999/xlink"><defs /><rect fill="white" height="70.7149557210505" width="81.17303532548249" x="0" y="0" /><path d="M14.731823448091745, 19.670360861346126 m0.2905021794140339, -0.726255476474762 l1.5977619588375092, -1.0167576372623444 4.357532858848572, -1.0167576372623444 l6.826801300048828, -0.14525108970701694 5.810043811798096, 0.726255476474762 l4.793286025524139, 2.6145195960998535 3.050273060798645, 3.9217793941497803 l0.726255476474762, 2.0335152745246887 0.0, 2.6145195960998535 l-0.8715065568685532, 3.3407750725746155 -2.0335152745246887, 3.776528537273407 l-2.4692685902118683, 2.324017435312271 -3.4860262274742126, 2.0335152745246887 l-2.4692685902118683, 0.8715065568685532 -4.502783715724945, 0.2905021794140339 l-8.134061098098755, -3.3407750725746155 -1.0167576372623444, -0.8715065568685532 l-1.8882642686367035, -3.4860262274742126 -0.5810043588280678, -2.7597707509994507 l0.0, -5.229039192199707 1.452510952949524, -2.905021905899048 l2.324017435312271, -2.4692685902118683 m8.134061098098755, 8.279312252998352 l0.5810043588280678, 0.726255476474762 0.14525108970701694, 1.7430131137371063 l1.1620087176561356, 1.5977619588375092 1.5977619588375092, 0.14525108970701694 l0.726255476474762, -0.726255476474762 -0.726255476474762, -0.2905021794140339 m-3.3407750725746155, -3.050273060798645 l0.0, 4.938537180423737 -2.6145195960998535, 1.0167576372623444 l-1.452510952949524, -0.4357532784342766 0.4357532784342766, -0.4357532784342766 m6.391047835350037, -10.02232551574707 l1.3072597980499268, -1.1620087176561356 0.0, 0.8715065568685532 l-0.4357532784342766, 0.726255476474762 -0.726255476474762, 0.14525108970701694 l0.0, -0.8715065568685532 m-6.972052454948425, 0.0 l-0.14525108970701694, 2.324017435312271 -1.5977619588375092, 0.8715065568685532 l-0.5810043588280678, -0.726255476474762 0.0, -0.726255476474762 l2.4692685902118683, -1.3072597980499268 m6.391047835350037, -18.156386613845825 l0.2905021794140339, 1.452510952949524 2.0335152745246887, 1.1620087176561356 l4.502783715724945, 0.4357532784342766 6.972052454948425, -0.8715065568685532 l5.955294966697693, -2.905021905899048 -0.4357532784342766, 4.938537180423737 l0.726255476474762, 2.324017435312271 2.0335152745246887, 1.452510952949524 l4.212281703948975, 0.5810043588280678 -4.357532858848572, 6.536298990249634 l-0.726255476474762, 3.050273060798645 0.14525108970701694, 2.6145195960998535 l0.5810043588280678, 1.5977619588375092 1.0167576372623444, 0.726255476474762 l3.3407750725746155, -0.14525108970701694 -3.3407750725746155, 1.3072597980499268 l-4.357532858848572, 2.7597707509994507 -3.1955239176750183, 3.050273060798645 l-1.3072597980499268, 2.0335152745246887 0.2905021794140339, 1.7430131137371063 l1.7430131137371063, 1.5977619588375092 3.3407750725746155, 0.726255476474762 l-1.0167576372623444, -0.2905021794140339 -5.519541501998901, 2.905021905899048 l-1.3072597980499268, 1.452510952949524 0.4357532784342766, 1.7430131137371063 l-1.1620087176561356, 0.8715065568685532 -4.212281703948975, 1.0167576372623444 l-9.877074360847473, 3.4860262274742126 -0.726255476474762, 0.2905021794140339 l0.726255476474762, 0.4357532784342766 -0.2905021794140339, -1.452510952949524 l-1.3072597980499268, -0.2905021794140339 -7.1173036098480225, 1.452510952949524 l-5.810043811798096, 2.324017435312271 -3.1955239176750183, 1.8882642686367035 l0.726255476474762, -3.9217793941497803 0.0, -4.648034870624542 l-0.8715065568685532, -2.7597707509994507 -2.178766429424286, -2.6145195960998535 l3.63127738237381, -3.3407750725746155 0.726255476474762, -1.7430131137371063 l0.14525108970701694, -2.4692685902118683 -2.0335152745246887, -3.1955239176750183 l-3.4860262274742126, -2.7597707509994507 1.7430131137371063, -5.6647926568984985 l0.5810043588280678, -4.938537180423737 -0.5810043588280678, -3.3407750725746155 l-1.3072597980499268, -1.0167576372623444 1.5977619588375092, 0.2905021794140339 l3.776528537273407, -0.8715065568685532 1.452510952949524, -1.3072597980499268 l0.0, -0.726255476474762 13.653602600097656, 0.0 l1.0167576372623444, -0.4357532784342766 0.4357532784342766, -0.726255476474762 l0.0, -4.067030549049377 1.1620087176561356, 0.4357532784342766 m18.44688892364502, 31.809988021850586 l4.067030549049377, -0.5810043588280678 8.569814562797546, -0.14525108970701694 l4.648034870624542, 0.5810043588280678 6.536298990249634, 2.4692685902118683 l3.3407750725746155, 3.3407750725746155 1.8882642686367035, 4.067030549049377 l0.14525108970701694, 2.905021905899048 -0.726255476474762, 2.6145195960998535 l-2.905021905899048, 3.4860262274742126 -6.2457966804504395, 3.4860262274742126 l-4.357532858848572, 1.5977619588375092 -8.569814562797546, 1.7430131137371063 l-16.12287163734436, 0.4357532784342766 -9.586572051048279, -1.5977619588375092 l-2.178766429424286, -0.726255476474762 -0.726255476474762, -1.0167576372623444 " fill="none" stroke="black" stroke-width="1" /></svg>