<?xml version="1.0" encoding="utf-8" ?>
<svg baseProfile="full" height="65.48591697588563" version="1.1" width="73.61997748725116" xmlns="http://www.w3.org/2000/svg" xmlns:ev="http://www.w3.org/2001/xml-events" xmlns:xlink="http://www.w3.org/1999/xlink"><defs /><rect fill="white" height="65.48591697588563" width="73.61997748725116" x="0" y="0" /><path d="M31.87145186588168, 8.486025594174862 m-19.754148721694946, -0.2905021794140339 l2.905021905899048, 1.8882642686367035 2.0335152745246887, 2.324017435312271 l2.324017435312271, 3.4860262274742126 0.4357532784342766, 2.7597707509994507 l-1.1620087176561356, 1.1620087176561356 -11.76533818244934, 4.067030549049377 l-1.5977619588375092, 1.3072597980499268 -0.2905021794140339, 1.5977619588375092 l1.0167576372623444, 1.452510952949524 4.067030549049377, 2.4692685902118683 l10.458078384399414, 4.212281703948975 2.324017435312271, 1.3072597980499268 l0.5810043588280678, 1.1620087176561356 0.0, 7.988809943199158 l-3.050273060798645, 15.106114149093628 0.726255476474762, 0.0 l5.229039192199707, -4.067030549049377 3.4860262274742126, -3.4860262274742126 l9.296069741249084, -7.407805919647217 2.905021905899048, 0.0 l1.7430131137371063, 1.0167576372623444 6.2457966804504395, 6.826801300048828 l2.905021905899048, 1.8882642686367035 0.5810043588280678, -3.3407750725746155 l-0.14525108970701694, -18.301637172698975 0.726255476474762, -0.8715065568685532 l2.4692685902118683, -0.14525108970701694 5.229039192199707, 1.5977619588375092 l2.178766429424286, 0.0 2.324017435312271, -1.3072597980499268 l1.8882642686367035, -2.324017435312271 0.4357532784342766, -1.3072597980499268 l0.0, -4.793286025524139 -4.212281703948975, -10.312827825546265 l-0.4357532784342766, -3.9217793941497803 -9.150818586349487, 2.905021905899048 l-3.3407750725746155, 0.4357532784342766 -4.212281703948975, -0.14525108970701694 l-1.1620087176561356, -1.1620087176561356 -0.726255476474762, -2.4692685902118683 l-0.2905021794140339, -4.212281703948975 -0.726255476474762, -0.5810043588280678 l-4.357532858848572, 1.8882642686367035 -11.329585313796997, 2.905021905899048 m11.620087623596191, 5.08378803730011 l-6.536298990249634, 0.0 -0.726255476474762, 0.726255476474762 l-2.4692685902118683, 3.9217793941497803 -3.4860262274742126, 10.02232551574707 l0.0, 2.4692685902118683 1.7430131137371063, 2.4692685902118683 l2.178766429424286, 1.7430131137371063 2.7597707509994507, 1.1620087176561356 l5.08378803730011, 0.14525108970701694 1.7430131137371063, -0.4357532784342766 l3.63127738237381, -1.5977619588375092 2.0335152745246887, -1.5977619588375092 l1.0167576372623444, -1.3072597980499268 1.1620087176561356, -5.08378803730011 l0.14525108970701694, -7.553057074546814 -2.178766429424286, -3.050273060798645 l-6.10054612159729, -2.6145195960998535 m5.810043811798096, 1.7430131137371063 l3.1955239176750183, -0.726255476474762 0.8715065568685532, 0.14525108970701694 l0.4357532784342766, 1.0167576372623444 -2.7597707509994507, 3.776528537273407 m-12.491593360900879, -6.10054612159729 " fill="none" stroke="black" stroke-width="1" /></svg>