<?xml version="1.0" encoding="utf-8" ?>
<svg baseProfile="full" height="54.737336253747344" version="1.1" width="50.815557315945625" xmlns="http://www.w3.org/2000/svg" xmlns:ev="http://www.w3.org/2001/xml-events" xmlns:xlink="http://www.w3.org/1999/xlink"><defs /><rect fill="white" height="54.737336253747344" width="50.815557315945625" x="0" y="0" /><path d="M19.52510980889201, 22.139628995209932 m-2.178766429424286, 2.6145195960998535 l-0.14525108970701694, 1.5977619588375092 0.0, 4.067030549049377 l1.3072597980499268, 3.050273060798645 2.324017435312271, 2.0335152745246887 l1.5977619588375092, 0.5810043588280678 4.648034870624542, 0.2905021794140339 l1.3072597980499268, -0.4357532784342766 2.0335152745246887, -1.8882642686367035 l1.1620087176561356, -2.324017435312271 0.5810043588280678, -3.9217793941497803 l-0.4357532784342766, -3.1955239176750183 -2.324017435312271, -2.4692685902118683 l-3.4860262274742126, -1.452510952949524 -3.1955239176750183, 0.0 l-4.938537180423737, 2.0335152745246887 m0.0, -0.4357532784342766 l-7.553057074546814, -11.620087623596191 1.8882642686367035, 0.0 l4.938537180423737, 3.4860262274742126 2.4692685902118683, 1.0167576372623444 l1.7430131137371063, -1.0167576372623444 6.2457966804504395, -8.134061098098755 l1.5977619588375092, -1.0167576372623444 0.14525108970701694, 8.134061098098755 l4.793286025524139, 0.0 7.553057074546814, -2.6145195960998535 l-2.6145195960998535, 4.502783715724945 -0.8715065568685532, 1.8882642686367035 l0.0, 1.3072597980499268 7.407805919647217, 3.9217793941497803 l0.2905021794140339, 0.5810043588280678 -5.08378803730011, 0.726255476474762 l5.08378803730011, 10.312827825546265 -0.4357532784342766, 1.0167576372623444 l-5.955294966697693, -0.2905021794140339 0.4357532784342766, 9.296069741249084 l0.5810043588280678, 3.1955239176750183 -0.4357532784342766, 0.8715065568685532 l-1.7430131137371063, 0.0 -4.938537180423737, -3.1955239176750183 l-2.7597707509994507, -0.4357532784342766 -5.374290347099304, 5.374290347099304 l-1.8882642686367035, 0.14525108970701694 -1.0167576372623444, -1.3072597980499268 l-1.0167576372623444, -4.067030549049377 -1.5977619588375092, -1.3072597980499268 l-2.905021905899048, 0.4357532784342766 -4.648034870624542, 2.178766429424286 l-1.5977619588375092, 0.2905021794140339 -1.8882642686367035, -1.452510952949524 l-1.1620087176561356, -8.134061098098755 -1.8882642686367035, -1.5977619588375092 l5.6647926568984985, -0.2905021794140339 1.1620087176561356, -1.0167576372623444 l-6.10054612159729, -3.1955239176750183 -1.3072597980499268, -2.0335152745246887 l0.14525108970701694, -1.452510952949524 1.1620087176561356, -0.8715065568685532 l2.6145195960998535, -0.8715065568685532 0.0, -0.8715065568685532 l-3.63127738237381, -3.050273060798645 -0.14525108970701694, -1.7430131137371063 l0.2905021794140339, -0.8715065568685532 0.4357532784342766, -0.5810043588280678 l2.6145195960998535, -0.5810043588280678 2.6145195960998535, 0.4357532784342766 m11.184333562850952, 9.150818586349487 l0.0, -0.14525108970701694 m5.519541501998901, 0.14525108970701694 l-0.14525108970701694, 0.0 m-3.63127738237381, 3.3407750725746155 l-0.14525108970701694, 0.0 " fill="none" stroke="black" stroke-width="1" /></svg>