<?xml version="1.0" encoding="utf-8" ?>
<svg baseProfile="full" height="47.18427963554859" version="1.1" width="52.99432408064604" xmlns="http://www.w3.org/2000/svg" xmlns:ev="http://www.w3.org/2001/xml-events" xmlns:xlink="http://www.w3.org/1999/xlink"><defs /><rect fill="white" height="47.18427963554859" width="52.99432408064604" x="0" y="0" /><path d="M14.877074379473925, 20.251364093273878 m0.8715065568685532, -2.178766429424286 l3.63127738237381, -2.7597707509994507 3.9217793941497803, -1.5977619588375092 l3.9217793941497803, -0.4357532784342766 2.324017435312271, 0.14525108970701694 l3.63127738237381, 2.178766429424286 2.905021905899048, 3.9217793941497803 l0.8715065568685532, 2.0335152745246887 1.0167576372623444, 4.357532858848572 l0.0, 3.4860262274742126 -0.4357532784342766, 1.452510952949524 l-3.63127738237381, 3.1955239176750183 -2.6145195960998535, 1.3072597980499268 l-5.955294966697693, 1.452510952949524 -5.08378803730011, 0.14525108970701694 l-3.1955239176750183, -2.0335152745246887 -1.3072597980499268, -2.905021905899048 l0.2905021794140339, -8.279312252998352 m6.536298990249634, -13.798853158950806 l0.726255476474762, -1.1620087176561356 3.1955239176750183, -1.5977619588375092 l5.229039192199707, -1.7430131137371063 4.067030549049377, -0.4357532784342766 l0.2905021794140339, 1.7430131137371063 -1.5977619588375092, 3.63127738237381 l0.0, 1.5977619588375092 5.810043811798096, 1.452510952949524 l2.178766429424286, 1.1620087176561356 0.4357532784342766, 2.324017435312271 l-1.8882642686367035, 4.357532858848572 -0.14525108970701694, 2.4692685902118683 l0.5810043588280678, 0.8715065568685532 4.357532858848572, 2.178766429424286 l0.8715065568685532, 1.5977619588375092 0.0, 1.3072597980499268 l-5.519541501998901, 8.134061098098755 -1.8882642686367035, 0.726255476474762 l-6.826801300048828, 1.7430131137371063 -5.955294966697693, 0.8715065568685532 l-11.039083003997803, 1.0167576372623444 -2.6145195960998535, 0.0 l-0.726255476474762, -0.726255476474762 0.0, -7.698307633399963 l-4.648034870624542, -0.2905021794140339 -1.3072597980499268, -0.2905021794140339 l-1.0167576372623444, -0.8715065568685532 -0.14525108970701694, -3.3407750725746155 l0.726255476474762, -2.178766429424286 5.229039192199707, -6.826801300048828 l-1.8882642686367035, -2.6145195960998535 -0.2905021794140339, -4.357532858848572 l0.5810043588280678, -1.1620087176561356 2.6145195960998535, -1.7430131137371063 l6.10054612159729, -2.324017435312271 2.4692685902118683, -0.14525108970701694 m1.452510952949524, 15.106114149093628 l0.726255476474762, -0.4357532784342766 0.5810043588280678, 1.452510952949524 l-0.726255476474762, 0.2905021794140339 -0.2905021794140339, -0.726255476474762 l0.4357532784342766, -1.0167576372623444 0.726255476474762, -0.14525108970701694 m5.374290347099304, 1.7430131137371063 l0.4357532784342766, -0.726255476474762 1.452510952949524, -0.4357532784342766 l-1.0167576372623444, 0.726255476474762 -0.5810043588280678, -0.726255476474762 l0.5810043588280678, 0.0 m-8.715065717697144, 5.374290347099304 l-1.0167576372623444, -0.4357532784342766 -4.502783715724945, 0.4357532784342766 l-4.502783715724945, 1.7430131137371063 -0.726255476474762, 0.5810043588280678 l2.178766429424286, 0.0 m6.826801300048828, -0.4357532784342766 l-2.4692685902118683, 0.14525108970701694 -5.374290347099304, 3.3407750725746155 m21.351909637451172, -5.810043811798096 l0.8715065568685532, -0.726255476474762 12.20109224319458, -1.3072597980499268 m-14.08935546875, 4.067030549049377 l1.1620087176561356, -0.5810043588280678 15.106114149093628, -0.2905021794140339 " fill="none" stroke="black" stroke-width="1" /></svg>