<?xml version="1.0" encoding="utf-8" ?>
<svg baseProfile="full" height="64.7596619091928" version="1.1" width="63.59765203669667" xmlns="http://www.w3.org/2000/svg" xmlns:ev="http://www.w3.org/2001/xml-events" xmlns:xlink="http://www.w3.org/1999/xlink"><defs /><rect fill="white" height="64.7596619091928" width="63.59765203669667" x="0" y="0" /><path d="M31.871450636535883, 18.363099666312337 m-3.9217793941497803, 0.0 l-3.3407750725746155, 2.178766429424286 -3.63127738237381, 3.4860262274742126 l-1.8882642686367035, 2.905021905899048 -1.0167576372623444, 2.7597707509994507 l0.0, 4.212281703948975 1.3072597980499268, 1.8882642686367035 l3.63127738237381, 3.63127738237381 5.6647926568984985, 1.8882642686367035 l4.793286025524139, 0.14525108970701694 3.050273060798645, -0.8715065568685532 l2.0335152745246887, -3.050273060798645 0.5810043588280678, -3.050273060798645 l0.0, -13.072597980499268 -1.8882642686367035, -1.452510952949524 l-2.7597707509994507, -1.0167576372623444 m5.810043811798096, -3.1955239176750183 l3.4860262274742126, -2.7597707509994507 5.6647926568984985, -2.0335152745246887 l0.0, 2.905021905899048 -2.7597707509994507, 5.229039192199707 l0.5810043588280678, 0.2905021794140339 11.329585313796997, 0.14525108970701694 l-0.14525108970701694, 0.726255476474762 -4.938537180423737, 3.63127738237381 l-6.391047835350037, 3.050273060798645 -0.14525108970701694, 0.5810043588280678 l6.826801300048828, 4.212281703948975 1.1620087176561356, 1.3072597980499268 l-0.4357532784342766, 0.726255476474762 -1.0167576372623444, 0.14525108970701694 l-5.374290347099304, 0.14525108970701694 2.178766429424286, 8.86031687259674 l0.5810043588280678, 4.793286025524139 -0.5810043588280678, 0.0 l-5.08378803730011, -4.212281703948975 -2.178766429424286, 5.810043811798096 l-2.905021905899048, 4.357532858848572 -0.726255476474762, 0.0 l-3.3407750725746155, -4.212281703948975 -0.5810043588280678, -0.14525108970701694 l-6.391047835350037, 8.134061098098755 -2.6145195960998535, 2.324017435312271 l-1.8882642686367035, -2.905021905899048 -0.726255476474762, -3.9217793941497803 l-15.687117576599121, -0.2905021794140339 0.0, -0.5810043588280678 l1.5977619588375092, -1.7430131137371063 4.212281703948975, -6.972052454948425 l-0.8715065568685532, -1.0167576372623444 -8.134061098098755, -4.357532858848572 l2.905021905899048, -2.4692685902118683 4.067030549049377, -2.178766429424286 l0.4357532784342766, -0.726255476474762 -4.793286025524139, -23.675928115844727 l0.0, -3.9217793941497803 1.0167576372623444, 0.8715065568685532 l5.374290347099304, 7.553057074546814 0.726255476474762, 0.4357532784342766 l5.08378803730011, -7.988809943199158 1.3072597980499268, 0.4357532784342766 l5.374290347099304, 6.2457966804504395 0.8715065568685532, 0.0 l2.7597707509994507, -2.905021905899048 5.08378803730011, -3.776528537273407 l1.0167576372623444, 0.14525108970701694 2.0335152745246887, 4.938537180423737 l0.0, 2.0335152745246887 m-13.508352041244507, 12.636845111846924 " fill="none" stroke="black" stroke-width="1" /></svg>