<?xml version="1.0" encoding="utf-8" ?>
<svg baseProfile="full" height="60.40212876163423" version="1.1" width="119.66457575559616" xmlns="http://www.w3.org/2000/svg" xmlns:ev="http://www.w3.org/2001/xml-events" xmlns:xlink="http://www.w3.org/1999/xlink"><defs /><rect fill="white" height="60.40212876163423" width="119.66457575559616" x="0" y="0" /><path d="M6.743013858795166, 23.301638644188643 m0.14525108970701694, -3.3407750725746155 l1.8882642686367035, -3.050273060798645 2.324017435312271, -1.452510952949524 l2.4692685902118683, -0.14525108970701694 0.5810043588280678, -1.0167576372623444 l0.0, -1.452510952949524 0.726255476474762, -0.4357532784342766 l8.86031687259674, -1.1620087176561356 -0.5810043588280678, 2.4692685902118683 l0.4357532784342766, -3.050273060798645 2.4692685902118683, -4.502783715724945 l0.726255476474762, -0.8715065568685532 2.7597707509994507, -0.2905021794140339 l4.357532858848572, 1.452510952949524 1.5977619588375092, 1.0167576372623444 l1.1620087176561356, 1.7430131137371063 0.0, 1.7430131137371063 l0.0, -1.3072597980499268 1.1620087176561356, 4.357532858848572 l-0.4357532784342766, 3.9217793941497803 -0.5810043588280678, 0.726255476474762 l-3.1955239176750183, 0.14525108970701694 -1.452510952949524, 1.3072597980499268 l0.2905021794140339, 1.0167576372623444 2.6145195960998535, 2.324017435312271 l0.14525108970701694, 2.7597707509994507 m-30.212228298187256, -2.6145195960998535 l3.1955239176750183, 3.4860262274742126 4.938537180423737, 3.4860262274742126 l4.938537180423737, 1.7430131137371063 0.8715065568685532, -1.5977619588375092 l1.1620087176561356, 2.4692685902118683 3.1955239176750183, 0.0 l0.14525108970701694, -0.726255476474762 1.8882642686367035, -1.8882642686367035 l2.6145195960998535, -0.14525108970701694 0.4357532784342766, 4.502783715724945 m6.826801300048828, -7.553057074546814 l3.63127738237381, -1.452510952949524 12.34634280204773, -9.731823205947876 l5.6647926568984985, -3.4860262274742126 10.893832445144653, -4.212281703948975 l1.7430131137371063, -0.14525108970701694 1.452510952949524, 0.5810043588280678 l-0.14525108970701694, 2.0335152745246887 3.776528537273407, 0.2905021794140339 l5.374290347099304, 2.0335152745246887 4.938537180423737, 4.648034870624542 l7.407805919647217, 5.229039192199707 0.4357532784342766, 2.0335152745246887 l1.8882642686367035, 2.0335152745246887 0.8715065568685532, 1.7430131137371063 l0.2905021794140339, 1.8882642686367035 0.0, -2.178766429424286 m0.4357532784342766, -0.5810043588280678 l5.6647926568984985, -6.536298990249634 0.726255476474762, -1.452510952949524 l0.0, -2.0335152745246887 m-0.14525108970701694, -1.452510952949524 l0.0, -3.63127738237381 1.0167576372623444, 7.26255476474762 l0.0, -8.86031687259674 0.4357532784342766, -2.324017435312271 l1.8882642686367035, 6.826801300048828 2.178766429424286, -8.86031687259674 l1.3072597980499268, -2.0335152745246887 0.726255476474762, 0.14525108970701694 l0.726255476474762, 1.5977619588375092 -0.2905021794140339, 4.357532858848572 l-0.14525108970701694, -3.63127738237381 2.178766429424286, 3.63127738237381 l-0.8715065568685532, 0.5810043588280678 -2.0335152745246887, -0.14525108970701694 l4.793286025524139, 2.0335152745246887 0.2905021794140339, 0.8715065568685532 l-5.955294966697693, 0.8715065568685532 1.8882642686367035, 1.5977619588375092 l-2.0335152745246887, 0.5810043588280678 -2.7597707509994507, 1.7430131137371063 l0.726255476474762, 0.14525108970701694 -2.6145195960998535, 1.8882642686367035 l-0.2905021794140339, 1.1620087176561356 m-7.698307633399963, 7.1173036098480225 l0.14525108970701694, 0.8715065568685532 -2.178766429424286, 1.452510952949524 l-1.8882642686367035, 5.08378803730011 -4.067030549049377, 5.519541501998901 l-2.0335152745246887, 4.648034870624542 -2.0335152745246887, 0.8715065568685532 l-6.681550145149231, 0.4357532784342766 -1.452510952949524, -0.726255476474762 l-2.905021905899048, -8.86031687259674 0.5810043588280678, 3.050273060798645 l-0.14525108970701694, 6.681550145149231 -0.4357532784342766, 1.7430131137371063 l-0.8715065568685532, 0.4357532784342766 -0.8715065568685532, -0.4357532784342766 l-1.1620087176561356, -1.452510952949524 -0.5810043588280678, -1.8882642686367035 l-0.5810043588280678, -7.8435587882995605 -0.2905021794140339, 1.452510952949524 l0.726255476474762, 4.648034870624542 0.0, 4.793286025524139 l-1.0167576372623444, 2.905021905899048 -1.7430131137371063, 2.178766429424286 l-3.63127738237381, 0.2905021794140339 -1.8882642686367035, -2.324017435312271 l-1.7430131137371063, -4.502783715724945 0.14525108970701694, -3.1955239176750183 l1.452510952949524, -2.324017435312271 1.1620087176561356, -3.4860262274742126 l0.0, -1.452510952949524 -1.0167576372623444, -1.1620087176561356 l-4.212281703948975, 9.877074360847473 -2.4692685902118683, 1.3072597980499268 l-1.7430131137371063, -0.4357532784342766 -0.726255476474762, -0.8715065568685532 " fill="none" stroke="black" stroke-width="1" /></svg>