<?xml version="1.0" encoding="utf-8" ?>
<svg baseProfile="full" height="69.84345057979226" version="1.1" width="105.86572053842247" xmlns="http://www.w3.org/2000/svg" xmlns:ev="http://www.w3.org/2001/xml-events" xmlns:xlink="http://www.w3.org/1999/xlink"><defs /><rect fill="white" height="69.84345057979226" width="105.86572053842247" x="0" y="0" /><path d="M64.69819919206202, 7.469268552958965 m-3.776528537273407, -2.0335152745246887 l-1.7430131137371063, -0.4357532784342766 -5.229039192199707, 0.726255476474762 l-1.452510952949524, 0.5810043588280678 -4.938537180423737, 5.229039192199707 l-2.6145195960998535, 5.519541501998901 -0.726255476474762, 3.050273060798645 l0.14525108970701694, 7.553057074546814 2.0335152745246887, 4.648034870624542 l3.3407750725746155, 3.63127738237381 3.4860262274742126, 2.905021905899048 l7.1173036098480225, 4.502783715724945 6.536298990249634, 2.324017435312271 l5.519541501998901, 0.8715065568685532 7.8435587882995605, 0.14525108970701694 l4.502783715724945, -1.452510952949524 3.050273060798645, -2.324017435312271 l7.988809943199158, -8.134061098098755 3.3407750725746155, -5.519541501998901 l1.5977619588375092, -4.793286025524139 0.14525108970701694, -6.2457966804504395 l-0.5810043588280678, -2.6145195960998535 -3.3407750725746155, -5.519541501998901 l-3.1955239176750183, -1.8882642686367035 -5.810043811798096, -2.324017435312271 l-3.63127738237381, -0.726255476474762 -5.6647926568984985, 0.4357532784342766 l-5.374290347099304, 3.1955239176750183 -1.452510952949524, 0.4357532784342766 l-2.905021905899048, -0.2905021794140339 -5.374290347099304, -2.0335152745246887 m12.782095670700073, 18.156386613845825 l-0.5810043588280678, -0.8715065568685532 -2.178766429424286, -1.0167576372623444 l-3.3407750725746155, -0.5810043588280678 -3.1955239176750183, 0.2905021794140339 l-1.452510952949524, 2.905021905899048 -0.4357532784342766, 6.681550145149231 l0.2905021794140339, 2.4692685902118683 1.7430131137371063, 2.324017435312271 l2.6145195960998535, 1.1620087176561356 5.6647926568984985, -0.14525108970701694 l3.050273060798645, -1.3072597980499268 1.1620087176561356, -2.178766429424286 l1.1620087176561356, -4.067030549049377 -0.4357532784342766, -2.905021905899048 l-6.826801300048828, -4.648034870624542 m-2.178766429424286, 7.1173036098480225 l1.0167576372623444, -0.14525108970701694 m3.3407750725746155, -0.14525108970701694 l-0.726255476474762, 0.0 1.3072597980499268, 0.2905021794140339 m-8.134061098098755, -8.279312252998352 l-1.452510952949524, -2.178766429424286 -1.452510952949524, -0.8715065568685532 l-2.178766429424286, 0.2905021794140339 -0.14525108970701694, 0.726255476474762 l0.2905021794140339, 1.452510952949524 1.5977619588375092, 2.905021905899048 l1.5977619588375092, 1.0167576372623444 1.1620087176561356, 0.14525108970701694 m9.150818586349487, -2.6145195960998535 l2.0335152745246887, -2.178766429424286 2.324017435312271, -0.8715065568685532 l1.5977619588375092, 0.4357532784342766 1.3072597980499268, 1.452510952949524 l0.4357532784342766, 1.452510952949524 -0.2905021794140339, 0.726255476474762 l-5.810043811798096, 2.178766429424286 m-7.1173036098480225, 6.391047835350037 l0.0, 1.452510952949524 0.5810043588280678, 0.726255476474762 l2.178766429424286, 0.726255476474762 1.452510952949524, -0.4357532784342766 l0.726255476474762, -1.452510952949524 -0.4357532784342766, -0.726255476474762 l-1.452510952949524, 0.0 m-1.1620087176561356, 1.7430131137371063 l-0.4357532784342766, 1.5977619588375092 -0.726255476474762, 0.2905021794140339 l-2.4692685902118683, 0.0 -1.0167576372623444, -0.4357532784342766 m4.648034870624542, -0.8715065568685532 l0.2905021794140339, 0.726255476474762 2.178766429424286, 1.0167576372623444 l1.1620087176561356, -0.4357532784342766 m-18.156386613845825, 4.502783715724945 l-6.536298990249634, -0.5810043588280678 -8.134061098098755, -2.324017435312271 l-8.569814562797546, -1.452510952949524 -6.826801300048828, -1.8882642686367035 l-8.715065717697144, -1.3072597980499268 -3.050273060798645, 0.4357532784342766 l-1.452510952949524, 1.452510952949524 -2.0335152745246887, 3.63127738237381 l-0.14525108970701694, 1.5977619588375092 0.4357532784342766, 0.726255476474762 l3.050273060798645, 1.452510952949524 15.251364707946777, 3.776528537273407 l11.329585313796997, 1.5977619588375092 7.988809943199158, 2.324017435312271 l0.8715065568685532, 1.452510952949524 0.726255476474762, 2.7597707509994507 l-0.14525108970701694, 8.279312252998352 0.726255476474762, 1.452510952949524 l1.0167576372623444, 0.4357532784342766 2.324017435312271, 0.14525108970701694 l1.5977619588375092, -2.4692685902118683 0.726255476474762, -3.4860262274742126 l-0.5810043588280678, -3.776528537273407 0.14525108970701694, -2.324017435312271 l3.050273060798645, -1.452510952949524 9.00556743144989, -2.0335152745246887 l4.793286025524139, -1.7430131137371063 0.726255476474762, -1.5977619588375092 m-59.988698959350586, -4.793286025524139 l-0.4357532784342766, 8.715065717697144 -1.452510952949524, 10.16757607460022 l1.7430131137371063, -1.7430131137371063 3.63127738237381, -5.374290347099304 l-0.2905021794140339, -8.279312252998352 0.4357532784342766, -3.776528537273407 m-6.826801300048828, -5.229039192199707 l-1.8882642686367035, -5.6647926568984985 -0.14525108970701694, -4.502783715724945 l0.2905021794140339, -1.7430131137371063 2.4692685902118683, -4.067030549049377 l2.4692685902118683, -7.26255476474762 -1.8882642686367035, 0.2905021794140339 l-6.10054612159729, 4.212281703948975 -2.7597707509994507, 4.648034870624542 l-0.4357532784342766, 2.6145195960998535 1.3072597980499268, 6.391047835350037 l1.8882642686367035, 3.776528537273407 1.452510952949524, 1.7430131137371063 l2.324017435312271, 1.1620087176561356 2.0335152745246887, 0.4357532784342766 " fill="none" stroke="black" stroke-width="1" /></svg>