<?xml version="1.0" encoding="utf-8" ?>
<svg baseProfile="full" height="149.0052946936339" version="1.1" width="218.58056794852018" xmlns="http://www.w3.org/2000/svg" xmlns:ev="http://www.w3.org/2001/xml-events" xmlns:xlink="http://www.w3.org/1999/xlink"><defs /><rect fill="white" height="149.0052946936339" width="218.58056794852018" x="0" y="0" /><path d="M96.36293685995042, 56.41888995654881 m-6.10054612159729, 4.357532858848572 l-6.10054612159729, 6.391047835350037 -4.648034870624542, 7.988809943199158 l-4.212281703948975, 10.748580694198608 -0.8715065568685532, 5.519541501998901 l0.14525108970701694, 6.2457966804504395 2.178766429424286, 6.972052454948425 l2.7597707509994507, 3.776528537273407 5.08378803730011, 3.9217793941497803 l5.955294966697693, 3.1955239176750183 12.20109224319458, 3.1955239176750183 l3.776528537273407, 0.14525108970701694 1.5977619588375092, -0.4357532784342766 l15.396615266799927, -10.603330135345459 4.067030549049377, -3.1955239176750183 l1.7430131137371063, -2.0335152745246887 3.63127738237381, -5.229039192199707 l7.407805919647217, -15.396615266799927 1.3072597980499268, -4.502783715724945 l0.0, -3.050273060798645 -2.324017435312271, -4.793286025524139 l-3.63127738237381, -3.050273060798645 -13.363100290298462, -8.42456340789795 l-6.2457966804504395, -2.6145195960998535 -16.413373947143555, -4.938537180423737 l-4.793286025524139, -1.0167576372623444 -3.3407750725746155, 0.0 l-0.5810043588280678, 0.4357532784342766 m-12.20109224319458, 58.681440353393555 l-3.1955239176750183, 2.7597707509994507 -3.63127738237381, 2.178766429424286 l-8.134061098098755, 2.4692685902118683 -10.16757607460022, 0.2905021794140339 l-9.150818586349487, -0.726255476474762 -4.357532858848572, -1.0167576372623444 l-2.324017435312271, -1.5977619588375092 -2.6145195960998535, -5.374290347099304 l-3.776528537273407, -13.508352041244507 -1.3072597980499268, -3.1955239176750183 l-0.2905021794140339, 1.452510952949524 1.3072597980499268, 2.905021905899048 l0.726255476474762, 0.2905021794140339 0.0, -3.776528537273407 l-2.324017435312271, -6.391047835350037 -4.357532858848572, -7.1173036098480225 l-7.698307633399963, -10.02232551574707 -11.474835872650146, -11.910589933395386 l6.826801300048828, 3.9217793941497803 6.391047835350037, 2.324017435312271 l9.586572051048279, 2.178766429424286 8.569814562797546, 0.2905021794140339 l1.5977619588375092, -0.4357532784342766 0.726255476474762, -0.726255476474762 l-0.2905021794140339, -4.067030549049377 -3.1955239176750183, -4.357532858848572 l-6.826801300048828, -5.810043811798096 -7.26255476474762, -4.357532858848572 l-17.139629125595093, -8.715065717697144 39.50829744338989, 0.2905021794140339 l12.782095670700073, -0.2905021794140339 6.2457966804504395, -0.5810043588280678 l2.178766429424286, -0.5810043588280678 0.2905021794140339, -0.726255476474762 l-1.452510952949524, -0.5810043588280678 -3.050273060798645, -0.4357532784342766 l-10.16757607460022, -0.14525108970701694 -0.4357532784342766, -0.8715065568685532 l0.8715065568685532, -0.8715065568685532 5.955294966697693, -4.357532858848572 l10.458078384399414, -4.357532858848572 4.938537180423737, -1.452510952949524 l8.42456340789795, -1.7430131137371063 8.279312252998352, -0.2905021794140339 l2.0335152745246887, 1.452510952949524 5.6647926568984985, 21.93291425704956 l0.8715065568685532, 1.8882642686367035 1.0167576372623444, 1.8882642686367035 l1.452510952949524, 1.452510952949524 1.0167576372623444, 0.4357532784342766 l2.6145195960998535, -0.14525108970701694 4.067030549049377, -2.6145195960998535 l9.731823205947876, -8.715065717697144 8.279312252998352, -6.681550145149231 l11.76533818244934, -8.569814562797546 12.34634280204773, -8.134061098098755 l13.217849731445312, -6.681550145149231 3.3407750725746155, -1.3072597980499268 l3.9217793941497803, -0.8715065568685532 7.698307633399963, 0.0 l0.8715065568685532, 5.519541501998901 0.2905021794140339, 6.972052454948425 l0.8715065568685532, 0.14525108970701694 5.374290347099304, -5.08378803730011 l2.324017435312271, -1.5977619588375092 4.357532858848572, -1.5977619588375092 l2.4692685902118683, 0.14525108970701694 0.726255476474762, 1.0167576372623444 l0.8715065568685532, 4.067030549049377 0.0, 5.519541501998901 l-1.3072597980499268, 6.536298990249634 -1.5977619588375092, 5.08378803730011 l-2.905021905899048, 6.2457966804504395 -6.536298990249634, 9.296069741249084 l1.0167576372623444, -1.5977619588375092 4.793286025524139, -4.212281703948975 l7.407805919647217, -3.9217793941497803 7.8435587882995605, -2.178766429424286 l6.391047835350037, -0.2905021794140339 1.0167576372623444, 0.2905021794140339 l0.4357532784342766, 0.726255476474762 -0.2905021794140339, 2.4692685902118683 l-3.776528537273407, 6.391047835350037 -3.9217793941497803, 4.357532858848572 l-7.26255476474762, 6.2457966804504395 -1.1620087176561356, 1.5977619588375092 l0.0, 0.726255476474762 2.6145195960998535, 0.5810043588280678 l3.1955239176750183, 2.6145195960998535 1.8882642686367035, 3.9217793941497803 l0.8715065568685532, 3.050273060798645 1.0167576372623444, 7.1173036098480225 l0.14525108970701694, 9.296069741249084 -0.5810043588280678, 2.4692685902118683 l-1.5977619588375092, 4.212281703948975 -2.905021905899048, 3.1955239176750183 l-3.776528537273407, 2.7597707509994507 -5.519541501998901, 2.4692685902118683 l-3.050273060798645, 0.8715065568685532 -6.536298990249634, 1.0167576372623444 l-10.02232551574707, 0.14525108970701694 -6.972052454948425, -1.3072597980499268 l-9.441320896148682, -2.905021905899048 -0.4357532784342766, 2.178766429424286 l1.5977619588375092, 7.553057074546814 6.536298990249634, 17.430131435394287 l0.8715065568685532, 4.067030549049377 -0.8715065568685532, -0.14525108970701694 l-4.938537180423737, -4.212281703948975 -3.9217793941497803, -1.7430131137371063 l-1.452510952949524, 2.4692685902118683 -2.6145195960998535, 6.826801300048828 l-2.7597707509994507, 4.793286025524139 -4.357532858848572, 3.63127738237381 l-3.776528537273407, 1.5977619588375092 -2.324017435312271, 0.4357532784342766 l-1.452510952949524, -0.14525108970701694 -1.452510952949524, -1.1620087176561356 l-3.4860262274742126, -5.810043811798096 -2.6145195960998535, -3.050273060798645 l-0.726255476474762, 0.2905021794140339 -3.776528537273407, 5.810043811798096 l-3.1955239176750183, 2.7597707509994507 -2.7597707509994507, 1.5977619588375092 l-5.374290347099304, 1.452510952949524 -6.972052454948425, 0.0 l-6.391047835350037, -2.0335152745246887 -3.776528537273407, -2.178766429424286 l-11.910589933395386, -8.569814562797546 -4.212281703948975, 3.4860262274742126 l-3.1955239176750183, 1.8882642686367035 -2.178766429424286, 0.8715065568685532 l-3.050273060798645, 0.2905021794140339 -1.452510952949524, -1.8882642686367035 l-1.5977619588375092, -5.08378803730011 -5.6647926568984985, -23.240175247192383 l-0.726255476474762, 0.4357532784342766 -0.2905021794140339, 2.4692685902118683 l0.0, 3.63127738237381 0.2905021794140339, 1.452510952949524 l0.726255476474762, 0.14525108970701694 6.972052454948425, -7.988809943199158 l4.067030549049377, -2.4692685902118683 m12.927347421646118, -37.76528358459473 l3.050273060798645, 2.324017435312271 9.00556743144989, 4.648034870624542 l1.7430131137371063, 0.726255476474762 0.2905021794140339, -0.726255476474762 " fill="none" stroke="black" stroke-width="1" /></svg>