<?xml version="1.0" encoding="utf-8" ?>
<svg baseProfile="full" height="67.66468361020088" version="1.1" width="58.65911525674164" xmlns="http://www.w3.org/2000/svg" xmlns:ev="http://www.w3.org/2001/xml-events" xmlns:xlink="http://www.w3.org/1999/xlink"><defs /><rect fill="white" height="67.66468361020088" width="58.65911525674164" x="0" y="0" /><path d="M32.01670232228935, 19.960862388834357 m-3.9217793941497803, -0.2905021794140339 l-3.1955239176750183, 0.726255476474762 -4.793286025524139, 2.324017435312271 l-3.4860262274742126, 2.4692685902118683 -1.3072597980499268, 1.5977619588375092 l-2.6145195960998535, 5.229039192199707 -1.7430131137371063, 7.8435587882995605 l0.2905021794140339, 4.793286025524139 2.0335152745246887, 2.905021905899048 l3.050273060798645, 2.7597707509994507 3.63127738237381, 1.7430131137371063 l1.7430131137371063, 0.4357532784342766 3.776528537273407, 0.0 l6.826801300048828, -2.905021905899048 1.8882642686367035, -1.3072597980499268 l1.8882642686367035, -1.8882642686367035 1.452510952949524, -2.324017435312271 l2.178766429424286, -5.519541501998901 0.8715065568685532, -4.067030549049377 l-0.14525108970701694, -4.212281703948975 -3.050273060798645, -5.519541501998901 l-3.776528537273407, -3.776528537273407 -1.5977619588375092, -0.4357532784342766 m-4.357532858848572, -0.4357532784342766 l-2.7597707509994507, -1.1620087176561356 -6.2457966804504395, -6.536298990249634 l-1.3072597980499268, -0.726255476474762 -2.4692685902118683, -0.8715065568685532 l-2.324017435312271, 0.0 -0.8715065568685532, 0.726255476474762 l-0.4357532784342766, 1.8882642686367035 0.14525108970701694, 2.324017435312271 l2.0335152745246887, 5.229039192199707 1.3072597980499268, 1.3072597980499268 l0.14525108970701694, -0.8715065568685532 -1.5977619588375092, -0.5810043588280678 l-1.7430131137371063, -0.14525108970701694 -0.726255476474762, 0.8715065568685532 l-0.726255476474762, 2.324017435312271 0.0, 2.7597707509994507 l0.5810043588280678, 1.8882642686367035 -0.5810043588280678, -0.8715065568685532 l-1.5977619588375092, -0.2905021794140339 -0.726255476474762, 0.8715065568685532 l-0.14525108970701694, 1.1620087176561356 0.0, 7.553057074546814 l0.5810043588280678, 1.3072597980499268 1.0167576372623444, 0.5810043588280678 l0.4357532784342766, -1.0167576372623444 -1.3072597980499268, -0.2905021794140339 l-1.8882642686367035, 0.2905021794140339 -1.3072597980499268, 2.0335152745246887 l-0.14525108970701694, 1.452510952949524 0.14525108970701694, 4.212281703948975 l1.8882642686367035, 4.357532858848572 0.8715065568685532, 1.0167576372623444 l0.8715065568685532, 0.2905021794140339 0.726255476474762, 0.0 l0.4357532784342766, -0.726255476474762 -1.8882642686367035, 0.0 l-0.8715065568685532, 1.7430131137371063 0.0, 2.324017435312271 l1.7430131137371063, 3.776528537273407 1.7430131137371063, 2.178766429424286 l1.8882642686367035, 1.452510952949524 2.324017435312271, 0.726255476474762 l2.6145195960998535, 0.0 2.324017435312271, -1.3072597980499268 l1.7430131137371063, -2.178766429424286 1.1620087176561356, -2.6145195960998535 l-0.4357532784342766, 1.0167576372623444 0.2905021794140339, 1.0167576372623444 l5.374290347099304, 1.8882642686367035 9.00556743144989, -0.4357532784342766 l5.08378803730011, -1.452510952949524 2.324017435312271, 1.3072597980499268 l3.4860262274742126, 0.2905021794140339 2.0335152745246887, -1.0167576372623444 l1.452510952949524, -2.324017435312271 2.0335152745246887, -5.955294966697693 l0.2905021794140339, -5.229039192199707 -0.8715065568685532, -1.1620087176561356 l-1.5977619588375092, -0.2905021794140339 -1.7430131137371063, 0.4357532784342766 l-1.452510952949524, 1.7430131137371063 -0.5810043588280678, 2.905021905899048 l1.5977619588375092, -1.452510952949524 2.178766429424286, -4.357532858848572 l0.5810043588280678, -2.178766429424286 0.14525108970701694, -3.050273060798645 l-1.7430131137371063, -4.502783715724945 -1.1620087176561356, -0.726255476474762 l-1.452510952949524, 0.0 -1.452510952949524, 0.5810043588280678 l-1.7430131137371063, 1.5977619588375092 1.1620087176561356, 0.0 l1.5977619588375092, -2.178766429424286 1.3072597980499268, -3.1955239176750183 l0.5810043588280678, -9.296069741249084 -0.5810043588280678, -2.0335152745246887 l-2.324017435312271, -2.178766429424286 -2.6145195960998535, 0.0 l-0.8715065568685532, 0.5810043588280678 1.8882642686367035, -4.357532858848572 l0.2905021794140339, -2.4692685902118683 0.0, -2.0335152745246887 l-1.0167576372623444, -1.5977619588375092 -4.502783715724945, -1.452510952949524 l-2.4692685902118683, 0.0 -2.324017435312271, 1.452510952949524 l-4.067030549049377, 5.955294966697693 -0.8715065568685532, 2.7597707509994507 l0.726255476474762, 0.2905021794140339 1.1620087176561356, -2.7597707509994507 l-0.2905021794140339, -3.3407750725746155 -1.1620087176561356, -0.8715065568685532 l-4.212281703948975, 0.14525108970701694 -3.3407750725746155, 2.7597707509994507 l-0.8715065568685532, 1.452510952949524 -0.14525108970701694, 1.7430131137371063 m0.2905021794140339, 15.687117576599121 l0.8715065568685532, 0.5810043588280678 -0.726255476474762, 0.2905021794140339 l-0.2905021794140339, 0.726255476474762 m12.782095670700073, -4.067030549049377 l-1.3072597980499268, 0.2905021794140339 m-16.26812219619751, 13.798853158950806 l0.8715065568685532, -1.5977619588375092 1.8882642686367035, -0.8715065568685532 l4.357532858848572, 0.0 5.374290347099304, 2.0335152745246887 " fill="none" stroke="black" stroke-width="1" /></svg>