<?xml version="1.0" encoding="utf-8" ?>
<svg baseProfile="full" height="54.15633209049702" version="1.1" width="93.51937767118216" xmlns="http://www.w3.org/2000/svg" xmlns:ev="http://www.w3.org/2001/xml-events" xmlns:xlink="http://www.w3.org/1999/xlink"><defs /><rect fill="white" height="54.15633209049702" width="93.51937767118216" x="0" y="0" /><path d="M27.804421186447144, 11.826802166178823 m-2.905021905899048, -0.5810043588280678 l-4.648034870624542, 0.0 -4.502783715724945, 1.5977619588375092 l-3.1955239176750183, 2.324017435312271 -4.212281703948975, 3.9217793941497803 l-2.6145195960998535, 4.212281703948975 -0.726255476474762, 3.3407750725746155 l1.0167576372623444, 2.6145195960998535 2.4692685902118683, 3.050273060798645 l3.4860262274742126, 2.4692685902118683 3.3407750725746155, 1.5977619588375092 l7.553057074546814, 1.452510952949524 3.776528537273407, 0.0 l5.519541501998901, -1.8882642686367035 3.63127738237381, -3.63127738237381 l1.8882642686367035, -3.050273060798645 0.726255476474762, -3.776528537273407 l0.0, -2.6145195960998535 -1.0167576372623444, -2.7597707509994507 l-2.7597707509994507, -3.4860262274742126 -5.810043811798096, -2.6145195960998535 m9.877074360847473, 8.42456340789795 l-0.4357532784342766, -0.726255476474762 0.5810043588280678, -0.726255476474762 l2.324017435312271, -1.452510952949524 8.134061098098755, -2.324017435312271 l6.826801300048828, -0.4357532784342766 4.938537180423737, 1.452510952949524 l3.9217793941497803, 1.8882642686367035 3.4860262274742126, 3.776528537273407 l1.452510952949524, 4.067030549049377 0.14525108970701694, 3.050273060798645 l-0.4357532784342766, 1.0167576372623444 -1.8882642686367035, 1.5977619588375092 l-4.067030549049377, 1.1620087176561356 -8.715065717697144, 0.14525108970701694 l-19.754148721694946, -1.8882642686367035 -2.7597707509994507, -1.0167576372623444 l-0.726255476474762, -1.1620087176561356 m12.782095670700073, 2.0335152745246887 l-0.726255476474762, 0.0 -1.1620087176561356, 2.0335152745246887 l-0.5810043588280678, 5.08378803730011 0.0, 6.2457966804504395 l0.8715065568685532, 2.6145195960998535 1.0167576372623444, 0.2905021794140339 l1.3072597980499268, 0.0 2.0335152745246887, -1.5977619588375092 l2.7597707509994507, -3.63127738237381 1.5977619588375092, -3.1955239176750183 l1.7430131137371063, -5.955294966697693 m7.1173036098480225, 0.4357532784342766 l-1.0167576372623444, 1.8882642686367035 -0.5810043588280678, 3.050273060798645 l0.0, 4.793286025524139 1.5977619588375092, 2.178766429424286 l1.7430131137371063, -0.14525108970701694 0.726255476474762, -0.5810043588280678 l2.178766429424286, -3.1955239176750183 1.0167576372623444, -4.212281703948975 l-0.2905021794140339, -1.452510952949524 -0.5810043588280678, 0.0 m-20.770905017852783, 5.955294966697693 l-0.4357532784342766, 4.502783715724945 m3.1955239176750183, -3.63127738237381 l-0.2905021794140339, 3.3407750725746155 m13.798853158950806, -2.178766429424286 l-0.2905021794140339, 1.5977619588375092 m2.178766429424286, -4.502783715724945 l0.8715065568685532, 4.648034870624542 m6.2457966804504395, -21.061408519744873 l0.0, -0.726255476474762 1.452510952949524, -0.726255476474762 l1.8882642686367035, 0.2905021794140339 0.8715065568685532, 0.8715065568685532 l0.5810043588280678, 1.8882642686367035 0.14525108970701694, 4.067030549049377 l1.5977619588375092, 1.3072597980499268 2.324017435312271, 0.0 l4.502783715724945, -2.4692685902118683 4.212281703948975, -0.8715065568685532 l1.1620087176561356, 1.3072597980499268 -1.0167576372623444, 5.08378803730011 l-1.5977619588375092, 3.3407750725746155 -1.8882642686367035, 1.8882642686367035 l-2.178766429424286, 1.3072597980499268 -0.8715065568685532, 0.0 l-2.905021905899048, -1.5977619588375092 -6.972052454948425, -7.26255476474762 l-2.178766429424286, -3.1955239176750183 -0.5810043588280678, -0.14525108970701694 m-57.51943111419678, -15.687117576599121 l0.2905021794140339, -0.726255476474762 -0.726255476474762, -2.178766429424286 l-0.5810043588280678, -6.972052454948425 2.7597707509994507, 3.4860262274742126 l3.9217793941497803, 3.776528537273407 m15.687117576599121, 2.0335152745246887 l3.776528537273407, -5.229039192199707 1.452510952949524, -0.726255476474762 l0.4357532784342766, 1.8882642686367035 -0.14525108970701694, 7.988809943199158 m-21.061408519744873, 1.452510952949524 l1.0167576372623444, 0.0 m11.329585313796997, 0.14525108970701694 l0.0, 0.4357532784342766 m-9.877074360847473, 6.10054612159729 l-0.726255476474762, 1.5977619588375092 -0.14525108970701694, 1.7430131137371063 l1.1620087176561356, 1.7430131137371063 1.7430131137371063, 1.1620087176561356 l1.8882642686367035, 0.2905021794140339 4.502783715724945, -1.8882642686367035 l2.0335152745246887, -1.452510952949524 1.0167576372623444, -1.5977619588375092 l0.0, -0.8715065568685532 -0.726255476474762, -0.726255476474762 l-5.955294966697693, -1.5977619588375092 -2.324017435312271, 0.0 l-1.7430131137371063, 0.726255476474762 -0.726255476474762, 1.1620087176561356 m1.5977619588375092, -1.5977619588375092 l2.0335152745246887, 3.3407750725746155 1.3072597980499268, 1.0167576372623444 l1.5977619588375092, -1.1620087176561356 1.8882642686367035, -3.050273060798645 l0.4357532784342766, 4.212281703948975 0.726255476474762, 0.2905021794140339 l0.726255476474762, -0.4357532784342766 1.0167576372623444, -2.178766429424286 m-10.02232551574707, 3.050273060798645 l1.1620087176561356, -1.5977619588375092 0.726255476474762, 0.14525108970701694 l0.14525108970701694, 3.63127738237381 1.7430131137371063, -1.8882642686367035 l2.178766429424286, -1.3072597980499268 0.4357532784342766, 3.63127738237381 l-0.5810043588280678, -0.8715065568685532 " fill="none" stroke="black" stroke-width="1" /></svg>