<?xml version="1.0" encoding="utf-8" ?>
<svg baseProfile="full" height="49.653548542410135" version="1.1" width="60.11162676848471" xmlns="http://www.w3.org/2000/svg" xmlns:ev="http://www.w3.org/2001/xml-events" xmlns:xlink="http://www.w3.org/1999/xlink"><defs /><rect fill="white" height="49.653548542410135" width="60.11162676848471" x="0" y="0" /><path d="M5.435753203928471, 32.16195458546281 m-0.14525108970701694, 9.731823205947876 l0.5810043588280678, 1.7430131137371063 1.452510952949524, 1.0167576372623444 l8.42456340789795, -1.5977619588375092 0.4357532784342766, -0.8715065568685532 l-0.4357532784342766, -0.726255476474762 -1.7430131137371063, -0.5810043588280678 l-1.8882642686367035, 0.0 0.4357532784342766, -0.2905021794140339 m0.14525108970701694, 0.0 l-3.9217793941497803, -0.14525108970701694 -1.452510952949524, 0.8715065568685532 l-1.7430131137371063, -0.14525108970701694 m-0.5810043588280678, -8.86031687259674 l3.63127738237381, -0.2905021794140339 0.8715065568685532, -0.5810043588280678 l3.9217793941497803, -0.8715065568685532 8.42456340789795, 0.2905021794140339 l10.458078384399414, 1.452510952949524 3.050273060798645, -0.726255476474762 l3.776528537273407, -1.7430131137371063 4.648034870624542, -0.5810043588280678 l-1.3072597980499268, 1.5977619588375092 -2.4692685902118683, 11.039083003997803 l1.3072597980499268, 1.7430131137371063 2.6145195960998535, -0.5810043588280678 l0.4357532784342766, -0.726255476474762 -0.5810043588280678, -2.905021905899048 l-0.726255476474762, -0.5810043588280678 -1.7430131137371063, -0.14525108970701694 m-4.938537180423737, -8.42456340789795 l0.2905021794140339, -4.502783715724945 -0.8715065568685532, -5.810043811798096 l0.2905021794140339, -0.726255476474762 1.7430131137371063, 0.0 l0.726255476474762, -0.5810043588280678 2.324017435312271, 0.0 l-0.14525108970701694, 9.150818586349487 0.5810043588280678, 1.8882642686367035 m-4.648034870624542, -11.039083003997803 l-0.726255476474762, -2.324017435312271 0.2905021794140339, -2.324017435312271 l2.324017435312271, -1.8882642686367035 3.050273060798645, -5.6647926568984985 l1.452510952949524, -1.1620087176561356 3.4860262274742126, 0.0 l1.5977619588375092, 0.4357532784342766 5.6647926568984985, 2.7597707509994507 l1.3072597980499268, 2.324017435312271 -2.178766429424286, 4.793286025524139 l-13.798853158950806, -0.14525108970701694 -0.726255476474762, 1.452510952949524 l-0.726255476474762, 0.4357532784342766 -3.4860262274742126, 0.5810043588280678 m5.810043811798096, -5.08378803730011 l-1.5977619588375092, -1.3072597980499268 -0.8715065568685532, -4.212281703948975 l-0.5810043588280678, -0.8715065568685532 -2.324017435312271, -1.452510952949524 l-0.726255476474762, 0.14525108970701694 -0.14525108970701694, 1.3072597980499268 l0.2905021794140339, 3.776528537273407 2.324017435312271, 3.776528537273407 l0.5810043588280678, -0.726255476474762 -0.14525108970701694, -1.5977619588375092 l-3.3407750725746155, -4.648034870624542 -1.7430131137371063, -0.14525108970701694 l-1.8882642686367035, 0.8715065568685532 -0.4357532784342766, 2.324017435312271 l0.4357532784342766, 2.324017435312271 1.0167576372623444, 1.452510952949524 l1.5977619588375092, 0.726255476474762 1.8882642686367035, -1.8882642686367035 l0.726255476474762, -3.776528537273407 -1.1620087176561356, -0.726255476474762 l-2.4692685902118683, 2.324017435312271 -0.5810043588280678, 2.324017435312271 l0.0, 1.7430131137371063 2.7597707509994507, -1.1620087176561356 l-0.5810043588280678, 4.938537180423737 1.7430131137371063, -1.1620087176561356 l3.050273060798645, -6.10054612159729 -2.324017435312271, 1.1620087176561356 l-3.9217793941497803, 5.08378803730011 2.178766429424286, -4.212281703948975 m8.715065717697144, -4.357532858848572 l0.0, 0.5810043588280678 m6.391047835350037, 0.726255476474762 l0.14525108970701694, 0.0 m-7.407805919647217, 2.7597707509994507 l0.5810043588280678, -0.726255476474762 0.726255476474762, 0.14525108970701694 l1.3072597980499268, 1.3072597980499268 " fill="none" stroke="black" stroke-width="1" /></svg>