<?xml version="1.0" encoding="utf-8" ?>
<svg baseProfile="full" height="113.27352646738291" version="1.1" width="111.38526177965105" xmlns="http://www.w3.org/2000/svg" xmlns:ev="http://www.w3.org/2001/xml-events" xmlns:xlink="http://www.w3.org/1999/xlink"><defs /><rect fill="white" height="113.27352646738291" width="111.38526177965105" x="0" y="0" /><path d="M55.111625883728266, 30.8546937443316 m-3.9217793941497803, 0.14525108970701694 l-3.050273060798645, 0.8715065568685532 -7.26255476474762, 3.4860262274742126 l-3.4860262274742126, 2.4692685902118683 -2.324017435312271, 3.3407750725746155 l-3.3407750725746155, 7.553057074546814 -2.4692685902118683, 9.586572051048279 l-0.14525108970701694, 5.955294966697693 0.726255476474762, 1.1620087176561356 l4.212281703948975, 2.178766429424286 19.463646411895752, 6.826801300048828 l9.296069741249084, 2.178766429424286 7.8435587882995605, 0.14525108970701694 l2.6145195960998535, -1.5977619588375092 3.3407750725746155, -3.63127738237381 l2.6145195960998535, -4.502783715724945 2.0335152745246887, -8.42456340789795 l0.4357532784342766, -5.519541501998901 0.0, -4.212281703948975 l-0.5810043588280678, -3.3407750725746155 -1.1620087176561356, -3.1955239176750183 l-1.5977619588375092, -3.3407750725746155 -3.050273060798645, -4.212281703948975 l-4.212281703948975, -3.1955239176750183 -5.229039192199707, -0.5810043588280678 l-14.960862398147583, 1.0167576372623444 m-5.519541501998901, -5.374290347099304 l-0.4357532784342766, -15.832369327545166 4.648034870624542, 6.391047835350037 l13.508352041244507, -7.698307633399963 7.988809943199158, -3.3407750725746155 l4.648034870624542, -1.1620087176561356 1.0167576372623444, 9.150818586349487 l1.3072597980499268, 6.972052454948425 0.8715065568685532, 0.4357532784342766 l3.050273060798645, -1.452510952949524 9.877074360847473, -2.178766429424286 l7.1173036098480225, -0.4357532784342766 5.519541501998901, 0.4357532784342766 l0.2905021794140339, 1.452510952949524 -6.536298990249634, 8.715065717697144 l-3.3407750725746155, 5.374290347099304 -1.8882642686367035, 5.810043811798096 l0.8715065568685532, 0.4357532784342766 8.715065717697144, 0.726255476474762 l2.7597707509994507, 0.8715065568685532 1.0167576372623444, 1.452510952949524 l0.0, 3.3407750725746155 -2.178766429424286, 2.7597707509994507 l-16.558624505996704, 10.02232551574707 -1.7430131137371063, 1.7430131137371063 l-0.726255476474762, 1.5977619588375092 5.374290347099304, 14.670360088348389 l1.0167576372623444, 4.357532858848572 1.7430131137371063, 8.279312252998352 l0.4357532784342766, 6.536298990249634 -0.2905021794140339, 2.324017435312271 l-3.9217793941497803, -1.1620087176561356 -13.072597980499268, -5.810043811798096 l-0.8715065568685532, 0.726255476474762 -3.3407750725746155, 6.10054612159729 l-2.4692685902118683, 3.3407750725746155 -3.63127738237381, 3.3407750725746155 l-1.8882642686367035, 0.8715065568685532 -4.648034870624542, 0.5810043588280678 l-1.1620087176561356, -0.4357532784342766 -0.726255476474762, -0.8715065568685532 l0.14525108970701694, -7.8435587882995605 -1.7430131137371063, 0.2905021794140339 l-17.430131435394287, 6.826801300048828 -8.279312252998352, 2.6145195960998535 l-3.9217793941497803, 1.0167576372623444 -3.776528537273407, 0.2905021794140339 l-3.4860262274742126, 0.0 -1.0167576372623444, -0.726255476474762 l-0.2905021794140339, -4.502783715724945 0.8715065568685532, -3.9217793941497803 l1.7430131137371063, -4.502783715724945 1.452510952949524, -3.050273060798645 l5.519541501998901, -7.553057074546814 2.6145195960998535, -4.357532858848572 l-11.474835872650146, -0.2905021794140339 -10.458078384399414, -2.6145195960998535 l-3.1955239176750183, -1.3072597980499268 1.1620087176561356, -1.0167576372623444 l5.955294966697693, -1.452510952949524 4.357532858848572, 0.0 l-4.648034870624542, -6.391047835350037 -2.7597707509994507, -4.938537180423737 l-2.0335152745246887, -7.553057074546814 -0.14525108970701694, -3.1955239176750183 l5.810043811798096, -0.14525108970701694 6.972052454948425, 1.1620087176561356 l0.8715065568685532, -1.3072597980499268 0.8715065568685532, -3.4860262274742126 l2.0335152745246887, -11.474835872650146 2.0335152745246887, -7.1173036098480225 l1.452510952949524, 0.5810043588280678 5.519541501998901, 5.08378803730011 l1.1620087176561356, 0.5810043588280678 1.0167576372623444, -1.1620087176561356 l3.4860262274742126, -7.553057074546814 3.4860262274742126, -4.793286025524139 l2.0335152745246887, -1.1620087176561356 3.776528537273407, -0.4357532784342766 l1.5977619588375092, 3.63127738237381 m-5.229039192199707, 22.80442237854004 l0.0, 0.726255476474762 0.8715065568685532, 0.2905021794140339 l2.4692685902118683, -0.2905021794140339 0.8715065568685532, -1.5977619588375092 l-2.7597707509994507, 0.0 1.5977619588375092, 0.2905021794140339 l0.726255476474762, -0.2905021794140339 0.0, -0.726255476474762 l-2.905021905899048, -0.5810043588280678 0.4357532784342766, 0.726255476474762 m27.161953449249268, 1.3072597980499268 l0.8715065568685532, 1.7430131137371063 2.0335152745246887, 1.452510952949524 " fill="none" stroke="black" stroke-width="1" /></svg>