<?xml version="1.0" encoding="utf-8" ?>
<svg baseProfile="full" height="97.7316586393863" version="1.1" width="111.09476204030216" xmlns="http://www.w3.org/2000/svg" xmlns:ev="http://www.w3.org/2001/xml-events" xmlns:xlink="http://www.w3.org/1999/xlink"><defs /><rect fill="white" height="97.7316586393863" width="111.09476204030216" x="0" y="0" /><path d="M28.385426476597786, 51.7708505038172 m-5.229039192199707, 13.94410490989685 l-1.3072597980499268, 7.553057074546814 0.0, 4.357532858848572 l0.5810043588280678, 2.0335152745246887 2.0335152745246887, 2.905021905899048 l2.7597707509994507, 1.7430131137371063 2.7597707509994507, 0.0 l3.4860262274742126, -2.0335152745246887 3.4860262274742126, -7.8435587882995605 l2.4692685902118683, -8.42456340789795 3.4860262274742126, -7.553057074546814 l-0.4357532784342766, 4.067030549049377 -3.776528537273407, 12.20109224319458 l-0.5810043588280678, 3.776528537273407 0.0, 3.776528537273407 l1.1620087176561356, 1.0167576372623444 0.8715065568685532, 1.8882642686367035 l1.7430131137371063, 1.5977619588375092 3.776528537273407, -0.14525108970701694 l5.810043811798096, -2.324017435312271 4.648034870624542, -2.6145195960998535 l4.067030549049377, -3.050273060798645 1.7430131137371063, -1.8882642686367035 l1.1620087176561356, -7.988809943199158 1.7430131137371063, -3.4860262274742126 l-2.324017435312271, 6.826801300048828 -0.8715065568685532, 4.067030549049377 l-0.14525108970701694, 11.184333562850952 1.0167576372623444, 0.726255476474762 l2.905021905899048, 0.0 2.905021905899048, -3.1955239176750183 l4.067030549049377, -7.26255476474762 1.1620087176561356, -3.776528537273407 l0.8715065568685532, -5.6647926568984985 -2.0335152745246887, 7.698307633399963 l0.0, 4.067030549049377 1.1620087176561356, 3.776528537273407 l0.0, 4.067030549049377 1.8882642686367035, 4.212281703948975 l1.0167576372623444, 0.5810043588280678 1.7430131137371063, 0.14525108970701694 l1.7430131137371063, -0.8715065568685532 1.7430131137371063, -2.324017435312271 l1.7430131137371063, -4.938537180423737 0.5810043588280678, -8.134061098098755 l1.1620087176561356, -2.6145195960998535 0.5810043588280678, -3.3407750725746155 l0.0, -4.648034870624542 1.1620087176561356, 4.793286025524139 l4.357532858848572, 8.42456340789795 5.229039192199707, 4.938537180423737 l5.519541501998901, 4.067030549049377 1.8882642686367035, 2.178766429424286 l-5.08378803730011, -5.08378803730011 -2.6145195960998535, -3.776528537273407 l-5.08378803730011, -5.810043811798096 -1.3072597980499268, -3.4860262274742126 l-1.1620087176561356, -1.5977619588375092 -0.4357532784342766, -2.4692685902118683 m13.217849731445312, 18.882641792297363 l-0.5810043588280678, 1.7430131137371063 0.0, 3.4860262274742126 m1.7430131137371063, -5.519541501998901 l3.4860262274742126, 0.2905021794140339 m-18.882641792297363, -21.061408519744873 l-0.726255476474762, -6.536298990249634 -0.726255476474762, -1.0167576372623444 l-6.10054612159729, -3.3407750725746155 -7.26255476474762, -5.955294966697693 l-18.59213948249817, -3.9217793941497803 -8.569814562797546, -0.5810043588280678 l1.5977619588375092, -1.7430131137371063 4.067030549049377, -2.0335152745246887 l1.1620087176561356, -1.452510952949524 -2.324017435312271, -4.067030549049377 l-1.7430131137371063, -5.229039192199707 -1.1620087176561356, -1.7430131137371063 l-2.324017435312271, -2.0335152745246887 -0.8715065568685532, 0.0 l-1.452510952949524, 0.8715065568685532 2.6145195960998535, -2.905021905899048 l4.938537180423737, -1.7430131137371063 0.8715065568685532, 0.8715065568685532 l0.4357532784342766, 2.6145195960998535 -4.067030549049377, 3.4860262274742126 l-1.3072597980499268, -2.324017435312271 -2.6145195960998535, -1.1620087176561356 l-11.76533818244934, -0.2905021794140339 -5.08378803730011, 2.324017435312271 l-3.4860262274742126, 2.324017435312271 -1.8882642686367035, 3.4860262274742126 l0.0, 6.536298990249634 2.324017435312271, 3.9217793941497803 l2.4692685902118683, 1.7430131137371063 3.4860262274742126, 0.726255476474762 l0.8715065568685532, 2.324017435312271 -4.648034870624542, 3.3407750725746155 m-4.357532858848572, -22.949671745300293 l-0.2905021794140339, -0.8715065568685532 -1.5977619588375092, -1.1620087176561356 l-2.4692685902118683, 0.2905021794140339 -2.0335152745246887, 1.5977619588375092 l-0.2905021794140339, 2.4692685902118683 1.1620087176561356, 0.8715065568685532 l4.648034870624542, 0.0 m15.687117576599121, 7.26255476474762 l-0.5810043588280678, 1.7430131137371063 -4.067030549049377, 4.648034870624542 l1.1620087176561356, 0.5810043588280678 5.519541501998901, -0.14525108970701694 l10.312827825546265, -1.5977619588375092 9.296069741249084, -0.8715065568685532 l-9.441320896148682, 4.212281703948975 -7.407805919647217, 2.324017435312271 l-12.927347421646118, 5.374290347099304 1.7430131137371063, 0.0 l10.458078384399414, -2.324017435312271 8.279312252998352, -1.3072597980499268 l5.810043811798096, -0.4357532784342766 -0.14525108970701694, 1.0167576372623444 l-1.1620087176561356, 1.0167576372623444 -12.782095670700073, 5.519541501998901 l-3.4860262274742126, 2.0335152745246887 -3.4860262274742126, 1.1620087176561356 l-4.067030549049377, 2.324017435312271 2.0335152745246887, 0.2905021794140339 l15.396615266799927, -4.648034870624542 6.536298990249634, -1.3072597980499268 l-0.4357532784342766, 1.0167576372623444 -8.715065717697144, 4.357532858848572 l-8.715065717697144, 5.519541501998901 -2.0335152745246887, 1.8882642686367035 l1.7430131137371063, 0.4357532784342766 6.391047835350037, -2.324017435312271 l8.715065717697144, -4.067030549049377 12.20109224319458, -8.715065717697144 l-0.2905021794140339, 2.905021905899048 -1.452510952949524, 4.212281703948975 l-2.905021905899048, 4.502783715724945 -3.9217793941497803, 4.648034870624542 l1.0167576372623444, -0.2905021794140339 4.357532858848572, -3.776528537273407 l8.134061098098755, -5.810043811798096 6.681550145149231, -3.776528537273407 l0.726255476474762, 0.0 -0.4357532784342766, 2.0335152745246887 l-1.1620087176561356, 1.7430131137371063 -8.42456340789795, 11.76533818244934 l-3.3407750725746155, 3.9217793941497803 9.150818586349487, -5.08378803730011 l5.810043811798096, -2.178766429424286 5.519541501998901, -0.5810043588280678 l2.7597707509994507, 0.2905021794140339 0.4357532784342766, 0.8715065568685532 l-3.4860262274742126, 4.648034870624542 -1.1620087176561356, -2.4692685902118683 l-1.1620087176561356, -5.374290347099304 m-29.631223678588867, -36.02226972579956 l0.8715065568685532, 1.1620087176561356 1.1620087176561356, 3.4860262274742126 l0.8715065568685532, 0.726255476474762 1.8882642686367035, 0.726255476474762 l2.7597707509994507, 0.0 3.4860262274742126, -1.3072597980499268 l3.050273060798645, -1.8882642686367035 1.5977619588375092, -1.7430131137371063 l1.1620087176561356, -2.178766429424286 1.7430131137371063, -6.2457966804504395 l0.2905021794140339, -2.6145195960998535 -0.2905021794140339, -7.407805919647217 l-0.5810043588280678, -1.8882642686367035 -3.4860262274742126, -5.519541501998901 l-4.648034870624542, -3.63127738237381 -1.1620087176561356, -0.4357532784342766 l-13.072597980499268, 0.0 -4.357532858848572, 0.5810043588280678 l-14.52510952949524, 3.4860262274742126 -12.20109224319458, 5.519541501998901 l-4.357532858848572, 3.1955239176750183 -2.0335152745246887, 4.067030549049377 l-1.7430131137371063, 6.391047835350037 -0.5810043588280678, 3.1955239176750183 l0.0, 9.586572051048279 1.8882642686367035, 6.681550145149231 l1.7430131137371063, 3.4860262274742126 2.178766429424286, 2.905021905899048 l3.050273060798645, 2.0335152745246887 1.3072597980499268, 0.2905021794140339 l17.72063374519348, 0.0 2.905021905899048, -0.8715065568685532 l1.1620087176561356, -1.7430131137371063 2.4692685902118683, -6.391047835350037 m15.541867017745972, 19.173144102096558 l-4.067030549049377, 7.8435587882995605 -2.324017435312271, 2.6145195960998535 l-4.067030549049377, 2.324017435312271 -0.8715065568685532, 0.0 l-0.2905021794140339, -0.726255476474762 " fill="none" stroke="black" stroke-width="1" /></svg>