<?xml version="1.0" encoding="utf-8" ?>
<svg baseProfile="full" height="70.56970525532961" version="1.1" width="72.45796907693148" xmlns="http://www.w3.org/2000/svg" xmlns:ev="http://www.w3.org/2001/xml-events" xmlns:xlink="http://www.w3.org/1999/xlink"><defs /><rect fill="white" height="70.56970525532961" width="72.45796907693148" x="0" y="0" /><path d="M46.687062960118055, 24.173144856467843 m-0.8715065568685532, -2.4692685902118683 l-2.905021905899048, -4.357532858848572 -1.8882642686367035, -1.5977619588375092 l-2.905021905899048, -1.0167576372623444 -2.4692685902118683, 0.0 l-4.793286025524139, 1.0167576372623444 -3.4860262274742126, 1.7430131137371063 l-2.905021905899048, 2.178766429424286 -3.776528537273407, 4.648034870624542 l-2.6145195960998535, 4.648034870624542 -1.7430131137371063, 5.6647926568984985 l0.0, 7.698307633399963 1.452510952949524, 4.357532858848572 l3.050273060798645, 4.648034870624542 3.4860262274742126, 2.6145195960998535 l3.4860262274742126, 1.5977619588375092 3.9217793941497803, 0.726255476474762 l5.810043811798096, -0.2905021794140339 3.3407750725746155, -1.0167576372623444 l5.08378803730011, -2.7597707509994507 3.9217793941497803, -4.502783715724945 l0.8715065568685532, -1.7430131137371063 1.1620087176561356, -6.681550145149231 l0.0, -2.7597707509994507 -1.3072597980499268, -6.681550145149231 l-1.0167576372623444, -2.178766429424286 -3.050273060798645, -4.212281703948975 l-7.1173036098480225, -7.553057074546814 m0.0, 2.178766429424286 l12.20109224319458, -4.067030549049377 3.776528537273407, -1.7430131137371063 l1.452510952949524, -0.14525108970701694 0.726255476474762, 0.5810043588280678 l0.2905021794140339, 1.7430131137371063 -2.0335152745246887, 4.938537180423737 l-3.3407750725746155, 6.2457966804504395 -0.8715065568685532, 3.050273060798645 l0.2905021794140339, 0.726255476474762 2.324017435312271, 0.5810043588280678 l10.748580694198608, -2.905021905899048 2.178766429424286, 0.2905021794140339 l0.2905021794140339, 1.1620087176561356 -1.5977619588375092, 3.4860262274742126 l-5.229039192199707, 6.681550145149231 -2.324017435312271, 4.502783715724945 l0.0, 0.8715065568685532 2.0335152745246887, 0.14525108970701694 l5.08378803730011, -2.4692685902118683 -9.00556743144989, 10.603330135345459 l-3.3407750725746155, 4.793286025524139 2.4692685902118683, -3.4860262274742126 l-1.3072597980499268, 0.2905021794140339 -13.363100290298462, 11.474835872650146 l-1.0167576372623444, 0.14525108970701694 -0.726255476474762, -0.4357532784342766 l-0.5810043588280678, -1.1620087176561356 0.14525108970701694, -6.10054612159729 l-3.1955239176750183, 5.6647926568984985 -1.3072597980499268, 1.1620087176561356 l-0.4357532784342766, -1.3072597980499268 0.2905021794140339, -4.938537180423737 l-1.1620087176561356, 0.14525108970701694 -7.553057074546814, 6.10054612159729 l-1.8882642686367035, 0.5810043588280678 -1.3072597980499268, -0.5810043588280678 l-0.4357532784342766, -1.0167576372623444 -0.14525108970701694, -3.1955239176750183 l0.726255476474762, -4.938537180423737 -0.726255476474762, -0.4357532784342766 l-7.698307633399963, 5.08378803730011 -0.8715065568685532, -0.2905021794140339 l0.14525108970701694, -3.1955239176750183 3.4860262274742126, -10.02232551574707 l0.14525108970701694, -1.8882642686367035 -1.3072597980499268, -0.14525108970701694 l-5.955294966697693, 3.63127738237381 -0.4357532784342766, -1.452510952949524 l4.793286025524139, -11.76533818244934 -8.134061098098755, 7.698307633399963 l-0.726255476474762, 0.4357532784342766 0.0, -0.726255476474762 l1.0167576372623444, -2.4692685902118683 2.6145195960998535, -3.9217793941497803 l11.474835872650146, -14.670360088348389 -9.586572051048279, 5.955294966697693 l-0.8715065568685532, 0.4357532784342766 0.14525108970701694, -1.1620087176561356 l7.1173036098480225, -7.553057074546814 7.988809943199158, -6.681550145149231 l-0.4357532784342766, 1.0167576372623444 -3.9217793941497803, 2.905021905899048 l-2.905021905899048, 1.3072597980499268 0.8715065568685532, -2.4692685902118683 l6.2457966804504395, -6.826801300048828 -2.178766429424286, 5.810043811798096 l-0.4357532784342766, 5.08378803730011 0.8715065568685532, -0.2905021794140339 l0.5810043588280678, -0.8715065568685532 2.6145195960998535, -6.972052454948425 l2.4692685902118683, -3.63127738237381 1.0167576372623444, 0.5810043588280678 l1.7430131137371063, 7.698307633399963 0.726255476474762, -0.5810043588280678 l4.648034870624542, -10.16757607460022 1.0167576372623444, 2.324017435312271 l0.14525108970701694, 6.681550145149231 0.726255476474762, 0.5810043588280678 l4.648034870624542, -5.810043811798096 m-5.519541501998901, 16.703875064849854 l0.726255476474762, 0.5810043588280678 -0.8715065568685532, 0.726255476474762 l-1.452510952949524, 0.14525108970701694 -0.2905021794140339, -0.726255476474762 l0.5810043588280678, -0.726255476474762 1.8882642686367035, -0.8715065568685532 m-10.458078384399414, 1.3072597980499268 l0.726255476474762, -0.726255476474762 0.14525108970701694, 0.726255476474762 l-0.726255476474762, 0.2905021794140339 -0.726255476474762, -0.2905021794140339 m4.502783715724945, 6.391047835350037 l-1.1620087176561356, 3.63127738237381 -0.4357532784342766, 3.1955239176750183 l-0.2905021794140339, -1.7430131137371063 0.5810043588280678, -4.067030549049377 l0.726255476474762, 0.0 2.0335152745246887, 1.5977619588375092 l4.067030549049377, 1.5977619588375092 -0.8715065568685532, 0.8715065568685532 l-7.1173036098480225, 2.324017435312271 m2.6145195960998535, -1.3072597980499268 l0.0, 8.279312252998352 0.8715065568685532, 1.8882642686367035 l1.452510952949524, 1.452510952949524 1.8882642686367035, 0.8715065568685532 l1.452510952949524, 0.0 3.050273060798645, -1.452510952949524 l1.8882642686367035, -2.178766429424286 0.5810043588280678, -1.7430131137371063 l0.0, -0.726255476474762 -0.8715065568685532, -0.2905021794140339 l-1.0167576372623444, 0.4357532784342766 m-9.586572051048279, -5.519541501998901 l0.0, 3.9217793941497803 0.726255476474762, 5.08378803730011 l-0.14525108970701694, 0.726255476474762 -1.0167576372623444, 0.5810043588280678 l-1.452510952949524, 0.0 -5.6647926568984985, -2.324017435312271 l-2.0335152745246887, -1.452510952949524 -0.2905021794140339, -1.0167576372623444 m4.212281703948975, -1.1620087176561356 l0.0, 0.0 m9.150818586349487, -0.726255476474762 l0.0, 0.0 m4.938537180423737, 1.452510952949524 l-2.6145195960998535, 0.726255476474762 m-8.86031687259674, -1.1620087176561356 l0.0, 0.0 " fill="none" stroke="black" stroke-width="1" /></svg>