<?xml version="1.0" encoding="utf-8" ?>
<svg baseProfile="full" height="57.932859966531396" version="1.1" width="64.4691595248878" xmlns="http://www.w3.org/2000/svg" xmlns:ev="http://www.w3.org/2001/xml-events" xmlns:xlink="http://www.w3.org/1999/xlink"><defs /><rect fill="white" height="57.932859966531396" width="64.4691595248878" x="0" y="0" /><path d="M19.960863580927253, 41.167521476745605 m-3.776528537273407, -4.793286025524139 l-1.1620087176561356, -3.3407750725746155 -0.8715065568685532, -5.519541501998901 l0.14525108970701694, -6.536298990249634 0.726255476474762, -2.324017435312271 l2.905021905899048, -3.9217793941497803 4.212281703948975, -2.7597707509994507 l3.9217793941497803, -0.8715065568685532 5.374290347099304, 0.4357532784342766 l6.2457966804504395, 3.3407750725746155 2.324017435312271, 2.0335152745246887 l0.8715065568685532, 1.452510952949524 1.1620087176561356, 5.229039192199707 l0.2905021794140339, 3.776528537273407 0.0, 4.212281703948975 l-0.4357532784342766, 1.7430131137371063 -3.776528537273407, 6.10054612159729 l-1.5977619588375092, 1.0167576372623444 -2.178766429424286, 0.4357532784342766 l-15.106114149093628, 0.0 m-0.5810043588280678, 4.938537180423737 l-2.324017435312271, 1.452510952949524 -2.324017435312271, 0.0 l-4.212281703948975, -1.5977619588375092 1.3072597980499268, -2.0335152745246887 l-2.6145195960998535, -0.8715065568685532 -0.4357532784342766, -1.452510952949524 l1.1620087176561356, -1.452510952949524 -2.7597707509994507, -0.726255476474762 l-0.14525108970701694, -1.1620087176561356 1.452510952949524, -1.8882642686367035 l-1.1620087176561356, -0.5810043588280678 -0.5810043588280678, -0.8715065568685532 l-0.14525108970701694, -2.0335152745246887 0.8715065568685532, -1.5977619588375092 l-1.7430131137371063, -0.726255476474762 2.0335152745246887, -3.776528537273407 l-1.7430131137371063, -0.726255476474762 -0.14525108970701694, -1.0167576372623444 l0.14525108970701694, -1.1620087176561356 1.452510952949524, -1.8882642686367035 l1.452510952949524, -4.067030549049377 0.4357532784342766, -2.6145195960998535 l1.1620087176561356, 0.2905021794140339 1.452510952949524, -0.8715065568685532 l1.5977619588375092, -1.5977619588375092 1.5977619588375092, -2.7597707509994507 l0.726255476474762, 1.7430131137371063 0.726255476474762, 0.2905021794140339 l0.726255476474762, -0.5810043588280678 1.0167576372623444, -2.905021905899048 l1.452510952949524, -0.5810043588280678 2.4692685902118683, -3.050273060798645 l1.0167576372623444, 0.14525108970701694 1.0167576372623444, 1.7430131137371063 l1.3072597980499268, 0.0 2.7597707509994507, -1.452510952949524 l11.620087623596191, 0.0 0.5810043588280678, 0.726255476474762 l-0.14525108970701694, 0.726255476474762 1.3072597980499268, 0.726255476474762 l3.3407750725746155, 0.14525108970701694 0.14525108970701694, 1.5977619588375092 l2.905021905899048, 1.452510952949524 -0.726255476474762, 2.324017435312271 l0.726255476474762, 1.8882642686367035 -0.2905021794140339, 1.5977619588375092 l1.0167576372623444, 0.726255476474762 0.2905021794140339, 1.7430131137371063 l1.7430131137371063, 1.452510952949524 -0.14525108970701694, 1.0167576372623444 l0.4357532784342766, 0.8715065568685532 0.8715065568685532, 0.2905021794140339 l0.2905021794140339, 1.0167576372623444 -0.14525108970701694, 0.8715065568685532 l-1.3072597980499268, 1.452510952949524 0.4357532784342766, 4.648034870624542 l-1.0167576372623444, 0.5810043588280678 -0.2905021794140339, 0.726255476474762 l0.4357532784342766, 9.296069741249084 -0.5810043588280678, -0.726255476474762 l-1.7430131137371063, 2.905021905899048 0.0, -1.7430131137371063 l-1.3072597980499268, 1.3072597980499268 -1.8882642686367035, 0.14525108970701694 l-6.536298990249634, -3.9217793941497803 3.776528537273407, 3.4860262274742126 l18.01113486289978, 10.16757607460022 -4.938537180423737, -2.178766429424286 l-7.1173036098480225, -1.8882642686367035 -2.324017435312271, 0.726255476474762 l-0.14525108970701694, 1.0167576372623444 -0.726255476474762, 0.0 l-1.7430131137371063, -1.1620087176561356 -1.1620087176561356, -1.5977619588375092 l-0.726255476474762, 0.0 -0.726255476474762, 0.726255476474762 l0.14525108970701694, -2.0335152745246887 -0.726255476474762, 0.0 l-1.3072597980499268, 1.7430131137371063 -3.3407750725746155, -2.324017435312271 l-1.7430131137371063, -0.4357532784342766 -1.452510952949524, 4.938537180423737 l-0.726255476474762, -2.6145195960998535 -3.1955239176750183, 0.726255476474762 l0.0, -2.0335152745246887 -1.1620087176561356, 0.726255476474762 l-5.374290347099304, 0.2905021794140339 -0.8715065568685532, -0.4357532784342766 l-0.2905021794140339, -1.452510952949524 m1.0167576372623444, -22.80442237854004 l0.14525108970701694, -0.726255476474762 0.8715065568685532, -0.726255476474762 l2.4692685902118683, -1.3072597980499268 0.726255476474762, 0.0 l0.5810043588280678, 1.452510952949524 -0.14525108970701694, 1.7430131137371063 l-2.4692685902118683, 1.5977619588375092 -1.7430131137371063, -0.14525108970701694 l-0.2905021794140339, -1.0167576372623444 m1.8882642686367035, -1.0167576372623444 l0.14525108970701694, 0.0 m8.279312252998352, -2.178766429424286 l0.726255476474762, -0.5810043588280678 1.8882642686367035, 0.14525108970701694 l1.8882642686367035, 1.7430131137371063 0.4357532784342766, 0.726255476474762 l0.0, 1.5977619588375092 -1.0167576372623444, 1.7430131137371063 l-0.8715065568685532, 0.726255476474762 -1.5977619588375092, 0.0 l-1.0167576372623444, -0.2905021794140339 -0.726255476474762, -0.8715065568685532 l-0.4357532784342766, -2.905021905899048 0.8715065568685532, -2.178766429424286 m2.178766429424286, 2.4692685902118683 l0.0, 0.4357532784342766 m-10.312827825546265, 10.603330135345459 l4.648034870624542, -3.050273060798645 0.8715065568685532, 4.357532858848572 l2.6145195960998535, -2.6145195960998535 0.8715065568685532, 0.726255476474762 l1.5977619588375092, -1.1620087176561356 0.4357532784342766, 1.5977619588375092 l0.14525108970701694, 1.5977619588375092 -2.178766429424286, 3.1955239176750183 l-0.726255476474762, -0.4357532784342766 -1.7430131137371063, 0.4357532784342766 l-0.2905021794140339, -3.1955239176750183 -1.1620087176561356, 0.2905021794140339 l-0.726255476474762, 1.7430131137371063 -0.726255476474762, -0.5810043588280678 l-1.1620087176561356, 0.14525108970701694 -1.3072597980499268, 2.324017435312271 l0.4357532784342766, -2.0335152745246887 -1.0167576372623444, 0.5810043588280678 l-0.2905021794140339, -1.0167576372623444 -0.8715065568685532, 0.5810043588280678 l0.0, -2.0335152745246887 -0.8715065568685532, 0.2905021794140339 l0.5810043588280678, -2.324017435312271 0.8715065568685532, 2.178766429424286 l0.726255476474762, 0.2905021794140339 2.0335152745246887, -2.7597707509994507 l0.4357532784342766, 0.726255476474762 0.726255476474762, -0.2905021794140339 l1.3072597980499268, -2.324017435312271 0.0, 4.793286025524139 l2.0335152745246887, -1.0167576372623444 0.14525108970701694, 2.7597707509994507 l0.4357532784342766, -3.3407750725746155 " fill="none" stroke="black" stroke-width="1" /></svg>