<?xml version="1.0" encoding="utf-8" ?>
<svg baseProfile="full" height="68.53619049303234" version="1.1" width="101.65344073437154" xmlns="http://www.w3.org/2000/svg" xmlns:ev="http://www.w3.org/2001/xml-events" xmlns:xlink="http://www.w3.org/1999/xlink"><defs /><rect fill="white" height="68.53619049303234" width="101.65344073437154" x="0" y="0" /><path d="M55.9831343498081, 32.016703421249986 m3.9217793941497803, -2.178766429424286 l4.212281703948975, -1.452510952949524 9.586572051048279, -0.14525108970701694 l2.4692685902118683, 0.726255476474762 3.050273060798645, 3.3407750725746155 l1.3072597980499268, 2.7597707509994507 0.0, 2.324017435312271 l-0.8715065568685532, 2.905021905899048 m-15.832369327545166, -12.055840492248535 l0.2905021794140339, -1.452510952949524 2.4692685902118683, -4.212281703948975 l1.7430131137371063, -1.1620087176561356 m-0.5810043588280678, 1.0167576372623444 l0.8715065568685532, 0.0 2.0335152745246887, 2.6145195960998535 l0.726255476474762, 0.2905021794140339 2.324017435312271, -1.452510952949524 l3.776528537273407, -1.0167576372623444 3.050273060798645, 5.955294966697693 l4.067030549049377, -1.3072597980499268 6.681550145149231, 0.0 l0.2905021794140339, 1.1620087176561356 -1.7430131137371063, 2.178766429424286 l-6.391047835350037, 4.938537180423737 2.0335152745246887, 0.14525108970701694 l5.955294966697693, 3.1955239176750183 -2.0335152745246887, 0.8715065568685532 l-5.08378803730011, 0.8715065568685532 m-4.357532858848572, -1.7430131137371063 l0.5810043588280678, 3.1955239176750183 1.3072597980499268, 1.1620087176561356 l8.86031687259674, 0.2905021794140339 5.519541501998901, -1.3072597980499268 l0.4357532784342766, 1.452510952949524 -1.5977619588375092, 2.905021905899048 l-2.905021905899048, 1.8882642686367035 -1.452510952949524, 0.4357532784342766 l2.324017435312271, 2.0335152745246887 1.5977619588375092, 2.324017435312271 l0.4357532784342766, 2.178766429424286 -0.8715065568685532, 1.3072597980499268 l-9.731823205947876, 0.14525108970701694 -2.6145195960998535, -1.1620087176561356 l-1.5977619588375092, -2.178766429424286 -1.1620087176561356, 2.6145195960998535 l-0.14525108970701694, 1.7430131137371063 -1.3072597980499268, 2.324017435312271 l-4.357532858848572, 2.905021905899048 -14.52510952949524, 0.14525108970701694 l-1.0167576372623444, -0.4357532784342766 -3.4860262274742126, -3.63127738237381 l-1.8882642686367035, -3.4860262274742126 -1.5977619588375092, -8.42456340789795 l0.0, -3.4860262274742126 1.0167576372623444, -1.452510952949524 l2.178766429424286, -1.7430131137371063 2.7597707509994507, -1.1620087176561356 l2.0335152745246887, 0.2905021794140339 8.42456340789795, 3.63127738237381 m-4.502783715724945, 9.441320896148682 l1.0167576372623444, 0.0 m10.458078384399414, -12.34634280204773 l0.0, 0.0 m-64.92723941802979, -20.480403900146484 l0.0, 2.324017435312271 -3.9217793941497803, 20.62565565109253 l-0.2905021794140339, 5.229039192199707 0.8715065568685532, -0.14525108970701694 l1.8882642686367035, -1.8882642686367035 3.9217793941497803, -6.2457966804504395 l6.826801300048828, -15.106114149093628 1.5977619588375092, -7.407805919647217 l-0.4357532784342766, -12.636845111846924 1.7430131137371063, 0.0 l1.8882642686367035, 1.3072597980499268 8.569814562797546, 9.441320896148682 l12.055840492248535, 11.329585313796997 0.14525108970701694, 2.4692685902118683 l-0.726255476474762, 2.7597707509994507 -1.452510952949524, 1.7430131137371063 l-2.324017435312271, 1.5977619588375092 -4.502783715724945, 1.5977619588375092 l-13.072597980499268, 0.726255476474762 -2.4692685902118683, 1.452510952949524 l-1.3072597980499268, 1.452510952949524 0.0, 0.8715065568685532 l0.726255476474762, 0.8715065568685532 10.458078384399414, 6.2457966804504395 l1.0167576372623444, 1.8882642686367035 -0.14525108970701694, 3.050273060798645 l0.4357532784342766, 0.8715065568685532 m10.893832445144653, -7.988809943199158 l-1.5977619588375092, 0.8715065568685532 -1.452510952949524, 1.5977619588375092 l0.2905021794140339, 1.7430131137371063 1.1620087176561356, 1.452510952949524 l4.648034870624542, 2.7597707509994507 3.776528537273407, 0.2905021794140339 l0.726255476474762, -0.726255476474762 1.452510952949524, -3.63127738237381 l-0.14525108970701694, -2.7597707509994507 -0.8715065568685532, -0.8715065568685532 l-4.502783715724945, 0.5810043588280678 2.905021905899048, -1.0167576372623444 l1.5977619588375092, 0.5810043588280678 1.5977619588375092, 2.905021905899048 l0.2905021794140339, 1.452510952949524 -0.14525108970701694, 3.050273060798645 l-0.726255476474762, 2.178766429424286 m3.63127738237381, -8.569814562797546 l2.905021905899048, 6.2457966804504395 2.4692685902118683, 3.050273060798645 l1.8882642686367035, -0.4357532784342766 2.0335152745246887, -1.7430131137371063 l2.4692685902118683, -3.776528537273407 0.14525108970701694, -0.8715065568685532 l0.14525108970701694, 4.938537180423737 1.3072597980499268, 1.452510952949524 l4.357532858848572, -3.9217793941497803 3.3407750725746155, -4.067030549049377 m-0.726255476474762, 2.6145195960998535 l0.14525108970701694, 1.0167576372623444 0.726255476474762, 0.8715065568685532 l0.726255476474762, 0.14525108970701694 1.5977619588375092, -5.08378803730011 " fill="none" stroke="black" stroke-width="1" /></svg>