<?xml version="1.0" encoding="utf-8" ?>
<svg baseProfile="full" height="94.5361353456974" version="1.1" width="109.64224945753813" xmlns="http://www.w3.org/2000/svg" xmlns:ev="http://www.w3.org/2001/xml-events" xmlns:xlink="http://www.w3.org/1999/xlink"><defs /><rect fill="white" height="94.5361353456974" width="109.64224945753813" x="0" y="0" /><path d="M24.46364602074027, 46.54181360267103 m-1.5977619588375092, -2.7597707509994507 l-0.8715065568685532, -2.7597707509994507 -0.2905021794140339, -6.536298990249634 l1.0167576372623444, -4.793286025524139 2.6145195960998535, -4.357532858848572 l4.793286025524139, -3.776528537273407 6.391047835350037, -3.1955239176750183 l7.1173036098480225, -1.5977619588375092 9.441320896148682, -0.14525108970701694 l4.648034870624542, 1.8882642686367035 3.776528537273407, 2.7597707509994507 l1.5977619588375092, 1.452510952949524 4.648034870624542, 6.536298990249634 l2.905021905899048, 9.150818586349487 0.5810043588280678, 5.6647926568984985 l-0.14525108970701694, 6.391047835350037 -1.3072597980499268, 4.357532858848572 l-2.905021905899048, 5.08378803730011 -2.905021905899048, 3.776528537273407 l-1.452510952949524, 1.5977619588375092 -5.08378803730011, 3.776528537273407 l-5.374290347099304, 1.5977619588375092 -5.08378803730011, 0.2905021794140339 l-3.63127738237381, -0.4357532784342766 -4.938537180423737, -1.8882642686367035 l-3.4860262274742126, -2.0335152745246887 -3.4860262274742126, -2.4692685902118683 l-4.502783715724945, -4.212281703948975 -2.7597707509994507, -5.6647926568984985 l-0.5810043588280678, -5.374290347099304 0.2905021794140339, -2.324017435312271 l2.0335152745246887, -4.067030549049377 m-18.01113486289978, 0.8715065568685532 l-0.2905021794140339, -6.10054612159729 -2.178766429424286, -17.72063374519348 l0.0, -1.8882642686367035 1.7430131137371063, -1.5977619588375092 l4.067030549049377, -1.452510952949524 3.4860262274742126, -0.5810043588280678 l15.977619886398315, 0.0 2.0335152745246887, -1.3072597980499268 l4.067030549049377, -5.955294966697693 1.0167576372623444, -0.8715065568685532 l2.4692685902118683, -0.8715065568685532 4.648034870624542, 0.5810043588280678 l5.08378803730011, 2.7597707509994507 3.1955239176750183, 3.4860262274742126 l2.905021905899048, 5.810043811798096 1.452510952949524, 1.3072597980499268 l1.5977619588375092, 0.0 3.776528537273407, -1.1620087176561356 l19.754148721694946, -7.26255476474762 8.715065717697144, -1.7430131137371063 l3.63127738237381, -0.14525108970701694 1.0167576372623444, 0.4357532784342766 l1.1620087176561356, 5.08378803730011 -0.2905021794140339, 5.374290347099304 l-5.229039192199707, 13.653602600097656 -0.14525108970701694, 4.357532858848572 l1.452510952949524, 1.452510952949524 6.2457966804504395, 3.3407750725746155 l3.050273060798645, 2.324017435312271 1.8882642686367035, 3.3407750725746155 l0.4357532784342766, 3.1955239176750183 -1.452510952949524, 2.905021905899048 l-3.9217793941497803, 2.324017435312271 -5.810043811798096, 1.1620087176561356 l-7.1173036098480225, 0.726255476474762 4.067030549049377, 2.7597707509994507 l1.3072597980499268, 1.452510952949524 0.5810043588280678, 1.7430131137371063 l0.0, 2.178766429424286 -1.1620087176561356, 2.905021905899048 l-3.4860262274742126, 5.6647926568984985 -2.178766429424286, 3.050273060798645 l-4.793286025524139, 4.938537180423737 -4.212281703948975, 3.1955239176750183 l-6.536298990249634, 3.1955239176750183 -1.3072597980499268, 0.14525108970701694 l-1.8882642686367035, -1.3072597980499268 -1.452510952949524, -6.536298990249634 l-1.1620087176561356, -2.6145195960998535 -3.63127738237381, -0.2905021794140339 l-11.039083003997803, 3.1955239176750183 -5.810043811798096, 0.14525108970701694 l-4.938537180423737, -2.324017435312271 -11.184333562850952, -2.0335152745246887 l-5.810043811798096, -1.8882642686367035 -1.5977619588375092, -1.1620087176561356 l-1.1620087176561356, -3.3407750725746155 -0.8715065568685532, -1.1620087176561356 l-11.620087623596191, -0.2905021794140339 -0.726255476474762, -4.067030549049377 l-0.726255476474762, -14.379857778549194 1.0167576372623444, -4.648034870624542 l2.178766429424286, -4.212281703948975 0.4357532784342766, 0.14525108970701694 m24.69268560409546, -11.910589933395386 l5.08378803730011, -5.955294966697693 4.502783715724945, -2.178766429424286 l3.1955239176750183, -0.14525108970701694 3.050273060798645, 1.1620087176561356 l2.178766429424286, 2.0335152745246887 0.726255476474762, 2.4692685902118683 l-0.14525108970701694, 2.4692685902118683 -1.3072597980499268, 2.0335152745246887 l-0.8715065568685532, 0.8715065568685532 -3.3407750725746155, 1.5977619588375092 l-2.324017435312271, 0.2905021794140339 -3.9217793941497803, -0.726255476474762 l-1.8882642686367035, -1.1620087176561356 -1.3072597980499268, -1.452510952949524 l-0.4357532784342766, -3.9217793941497803 0.726255476474762, -1.7430131137371063 l2.0335152745246887, -1.5977619588375092 m13.072597980499268, 18.882641792297363 l0.0, -2.905021905899048 1.8882642686367035, -2.905021905899048 l3.9217793941497803, -2.6145195960998535 3.63127738237381, -0.2905021794140339 l1.452510952949524, 0.5810043588280678 2.324017435312271, 2.4692685902118683 l0.14525108970701694, 1.452510952949524 -0.4357532784342766, 1.5977619588375092 l-4.212281703948975, 2.905021905899048 -5.6647926568984985, 1.1620087176561356 l-3.3407750725746155, -0.2905021794140339 -1.452510952949524, -2.4692685902118683 l-0.14525108970701694, -2.324017435312271 0.8715065568685532, -2.905021905899048 l2.6145195960998535, -4.067030549049377 m-11.329585313796997, 13.072597980499268 l0.4357532784342766, 2.905021905899048 1.452510952949524, 1.0167576372623444 l2.324017435312271, 0.726255476474762 10.893832445144653, 0.0 l5.229039192199707, -1.1620087176561356 -1.0167576372623444, -0.5810043588280678 m-28.75971555709839, 2.4692685902118683 l0.4357532784342766, 3.4860262274742126 1.5977619588375092, 2.178766429424286 l2.178766429424286, 0.8715065568685532 5.374290347099304, 0.8715065568685532 l11.76533818244934, 0.4357532784342766 13.072597980499268, -0.4357532784342766 l9.296069741249084, -0.8715065568685532 11.76533818244934, -2.178766429424286 m-52.87139892578125, -2.905021905899048 l36.167521476745605, -0.8715065568685532 10.893832445144653, 0.2905021794140339 " fill="none" stroke="black" stroke-width="1" /></svg>