<?xml version="1.0" encoding="utf-8" ?>
<svg baseProfile="full" height="65.48591675236821" version="1.1" width="119.66457442380488" xmlns="http://www.w3.org/2000/svg" xmlns:ev="http://www.w3.org/2001/xml-events" xmlns:xlink="http://www.w3.org/1999/xlink"><defs /><rect fill="white" height="65.48591675236821" width="119.66457442380488" x="0" y="0" /><path d="M47.55856968462467, 9.357532747089863 m-1.452510952949524, -2.324017435312271 l-1.5977619588375092, -1.452510952949524 -1.452510952949524, -0.5810043588280678 l-2.6145195960998535, 0.0 -8.279312252998352, 4.502783715724945 l-3.776528537273407, 3.3407750725746155 -2.4692685902118683, 3.1955239176750183 l-4.938537180423737, 0.726255476474762 -2.7597707509994507, -1.0167576372623444 l-2.324017435312271, -0.2905021794140339 -2.6145195960998535, 0.2905021794140339 l-2.905021905899048, 2.905021905899048 -3.4860262274742126, 6.536298990249634 l-0.2905021794140339, 5.6647926568984985 1.7430131137371063, 3.3407750725746155 l2.324017435312271, 1.452510952949524 9.441320896148682, 1.8882642686367035 l3.776528537273407, -0.14525108970701694 3.776528537273407, -1.5977619588375092 l4.502783715724945, 0.0 1.7430131137371063, 0.2905021794140339 l1.8882642686367035, 1.3072597980499268 2.4692685902118683, 4.502783715724945 l0.14525108970701694, 3.4860262274742126 -0.4357532784342766, 1.8882642686367035 l-3.3407750725746155, 5.6647926568984985 -1.3072597980499268, 3.1955239176750183 l-0.14525108970701694, 2.6145195960998535 1.1620087176561356, 1.5977619588375092 l1.7430131137371063, 0.14525108970701694 6.10054612159729, -1.8882642686367035 l2.0335152745246887, -1.452510952949524 2.6145195960998535, -5.08378803730011 l1.7430131137371063, -10.458078384399414 -0.726255476474762, 3.776528537273407 l0.0, 6.10054612159729 1.0167576372623444, 4.067030549049377 l1.0167576372623444, 1.452510952949524 2.324017435312271, 1.3072597980499268 l5.08378803730011, 0.5810043588280678 3.3407750725746155, -4.067030549049377 l2.6145195960998535, -4.502783715724945 0.5810043588280678, -3.1955239176750183 l-1.1620087176561356, -9.296069741249084 4.793286025524139, 2.0335152745246887 l5.374290347099304, 1.3072597980499268 2.7597707509994507, 0.4357532784342766 l9.877074360847473, -0.14525108970701694 -6.391047835350037, 8.134061098098755 l-0.8715065568685532, 2.4692685902118683 0.0, 2.324017435312271 l1.1620087176561356, 1.452510952949524 3.050273060798645, 0.4357532784342766 l0.726255476474762, -0.5810043588280678 1.7430131137371063, -2.905021905899048 l1.5977619588375092, -5.08378803730011 2.324017435312271, -3.1955239176750183 l1.1620087176561356, 4.938537180423737 2.6145195960998535, 5.229039192199707 l0.726255476474762, 0.5810043588280678 2.905021905899048, 0.14525108970701694 l3.4860262274742126, -1.0167576372623444 1.452510952949524, -1.1620087176561356 l0.4357532784342766, -1.452510952949524 1.452510952949524, -5.955294966697693 l0.2905021794140339, -4.212281703948975 -3.776528537273407, -7.8435587882995605 l-2.0335152745246887, -2.905021905899048 -0.5810043588280678, -2.0335152745246887 l0.14525108970701694, -3.63127738237381 1.1620087176561356, -1.5977619588375092 l7.407805919647217, 0.726255476474762 4.648034870624542, -0.4357532784342766 l1.7430131137371063, -0.8715065568685532 2.6145195960998535, -2.7597707509994507 l0.0, -1.452510952949524 -0.8715065568685532, -0.5810043588280678 l-3.050273060798645, -0.5810043588280678 -0.5810043588280678, -0.726255476474762 l-1.0167576372623444, -4.067030549049377 -0.5810043588280678, -0.8715065568685532 l-1.5977619588375092, -0.5810043588280678 -3.050273060798645, 0.2905021794140339 l0.14525108970701694, 1.452510952949524 2.324017435312271, 1.7430131137371063 l1.5977619588375092, 2.0335152745246887 1.452510952949524, 0.4357532784342766 l1.452510952949524, 2.324017435312271 -0.8715065568685532, 1.5977619588375092 l-2.324017435312271, 1.0167576372623444 -20.189902782440186, 0.0 l-7.988809943199158, -2.4692685902118683 -14.379857778549194, -0.2905021794140339 l-7.698307633399963, -0.8715065568685532 -5.6647926568984985, -1.3072597980499268 l-2.178766429424286, -0.8715065568685532 -2.6145195960998535, -1.8882642686367035 l-1.7430131137371063, -2.905021905899048 -0.726255476474762, -3.776528537273407 m-8.86031687259674, -2.4692685902118683 l-6.391047835350037, 0.5810043588280678 -2.0335152745246887, 0.5810043588280678 l-3.9217793941497803, 3.776528537273407 -1.3072597980499268, 2.324017435312271 l-0.2905021794140339, 2.6145195960998535 0.726255476474762, 0.14525108970701694 l7.553057074546814, -2.6145195960998535 -4.212281703948975, 2.324017435312271 l-17.575381994247437, 7.988809943199158 -3.1955239176750183, 2.4692685902118683 l1.0167576372623444, 0.4357532784342766 3.9217793941497803, 0.0 l1.8882642686367035, 0.4357532784342766 0.0, 1.5977619588375092 l-4.357532858848572, 5.810043811798096 10.603330135345459, -3.9217793941497803 l0.8715065568685532, -0.14525108970701694 -0.5810043588280678, 1.452510952949524 l-2.905021905899048, 2.7597707509994507 10.748580694198608, -3.4860262274742126 l-0.726255476474762, 3.63127738237381 0.4357532784342766, 1.5977619588375092 l1.0167576372623444, 0.4357532784342766 0.8715065568685532, -0.8715065568685532 l-0.14525108970701694, 6.391047835350037 3.776528537273407, -2.6145195960998535 l3.3407750725746155, -5.810043811798096 0.5810043588280678, 0.8715065568685532 l1.1620087176561356, 0.4357532784342766 3.4860262274742126, 0.14525108970701694 l6.681550145149231, -3.63127738237381 2.4692685902118683, -3.050273060798645 l0.5810043588280678, -4.357532858848572 -0.4357532784342766, -1.7430131137371063 l-1.3072597980499268, -0.5810043588280678 -5.955294966697693, 0.0 l4.067030549049377, -8.42456340789795 0.5810043588280678, -1.7430131137371063 l-0.2905021794140339, -1.5977619588375092 -2.4692685902118683, -0.8715065568685532 l-3.3407750725746155, -2.324017435312271 -1.1620087176561356, -0.14525108970701694 m-5.6647926568984985, 5.955294966697693 l-3.050273060798645, 0.14525108970701694 -1.8882642686367035, 1.3072597980499268 l0.0, 0.8715065568685532 0.8715065568685532, 0.5810043588280678 l1.5977619588375092, 0.0 3.9217793941497803, -1.5977619588375092 l-0.726255476474762, -0.4357532784342766 -4.793286025524139, 0.14525108970701694 l-1.1620087176561356, 0.726255476474762 1.452510952949524, 0.5810043588280678 l3.776528537273407, -1.3072597980499268 -1.7430131137371063, -0.14525108970701694 l-3.3407750725746155, 1.1620087176561356 2.905021905899048, 0.14525108970701694 m11.76533818244934, -1.1620087176561356 l-3.4860262274742126, 1.452510952949524 -1.8882642686367035, 1.3072597980499268 l-0.2905021794140339, 0.726255476474762 2.905021905899048, -1.3072597980499268 l0.14525108970701694, -1.0167576372623444 -0.5810043588280678, -0.726255476474762 l-2.7597707509994507, 0.0 -1.1620087176561356, 1.452510952949524 l3.3407750725746155, 0.14525108970701694 2.0335152745246887, -0.5810043588280678 l-0.8715065568685532, -0.2905021794140339 -4.793286025524139, 2.178766429424286 l0.8715065568685532, 0.14525108970701694 5.519541501998901, -2.324017435312271 l-3.1955239176750183, 0.8715065568685532 0.14525108970701694, -1.8882642686367035 l0.2905021794140339, 1.7430131137371063 -1.452510952949524, 1.8882642686367035 m-10.603330135345459, 5.955294966697693 l-3.776528537273407, 2.6145195960998535 0.2905021794140339, 3.4860262274742126 l2.905021905899048, 1.8882642686367035 5.229039192199707, 1.8882642686367035 l2.7597707509994507, 0.14525108970701694 2.7597707509994507, -1.8882642686367035 l0.14525108970701694, -2.7597707509994507 -0.8715065568685532, -2.324017435312271 l-2.0335152745246887, -2.905021905899048 -1.5977619588375092, -1.0167576372623444 l-5.374290347099304, -0.2905021794140339 -2.324017435312271, 0.5810043588280678 " fill="none" stroke="black" stroke-width="1" /></svg>