<?xml version="1.0" encoding="utf-8" ?>
<svg baseProfile="full" height="43.98875526152551" version="1.1" width="54.882587268948555" xmlns="http://www.w3.org/2000/svg" xmlns:ev="http://www.w3.org/2001/xml-events" xmlns:xlink="http://www.w3.org/1999/xlink"><defs /><rect fill="white" height="43.98875526152551" width="54.882587268948555" x="0" y="0" /><path d="M15.458078803494573, 20.106113497167826 m0.0, -5.810043811798096 l1.1620087176561356, -2.324017435312271 0.726255476474762, -0.2905021794140339 l1.0167576372623444, 1.5977619588375092 1.3072597980499268, 3.63127738237381 m9.441320896148682, 0.5810043588280678 l6.681550145149231, -3.1955239176750183 2.905021905899048, -2.324017435312271 l0.2905021794140339, 3.050273060798645 -0.8715065568685532, 3.9217793941497803 m-22.659170627593994, 1.452510952949524 l-1.1620087176561356, 2.324017435312271 0.14525108970701694, 4.938537180423737 l0.726255476474762, 1.452510952949524 2.324017435312271, 2.0335152745246887 l7.407805919647217, 1.452510952949524 5.08378803730011, 0.0 l2.324017435312271, -1.1620087176561356 2.324017435312271, -3.050273060798645 l1.7430131137371063, -3.9217793941497803 0.0, -3.050273060798645 l-0.8715065568685532, -1.5977619588375092 -1.3072597980499268, -1.452510952949524 l-2.324017435312271, -1.452510952949524 -6.972052454948425, 0.0 l-2.4692685902118683, -0.5810043588280678 -3.1955239176750183, 0.0 m-8.86031687259674, -5.374290347099304 l0.5810043588280678, -3.4860262274742126 1.1620087176561356, -1.3072597980499268 l2.4692685902118683, 1.3072597980499268 4.648034870624542, -2.4692685902118683 l1.5977619588375092, 0.2905021794140339 2.178766429424286, 3.3407750725746155 l0.726255476474762, 0.14525108970701694 1.7430131137371063, -2.0335152745246887 l2.324017435312271, -1.452510952949524 2.178766429424286, 2.324017435312271 l0.8715065568685532, 0.2905021794140339 1.5977619588375092, 0.0 l3.050273060798645, -1.1620087176561356 2.178766429424286, 1.1620087176561356 l7.407805919647217, -0.8715065568685532 0.5810043588280678, 1.0167576372623444 l-1.1620087176561356, 3.4860262274742126 4.067030549049377, 3.050273060798645 l1.3072597980499268, 2.6145195960998535 -3.3407750725746155, 6.536298990249634 l-0.726255476474762, 0.4357532784342766 -3.4860262274742126, -0.4357532784342766 l0.726255476474762, 3.9217793941497803 -4.938537180423737, 5.810043811798096 l-3.4860262274742126, 5.229039192199707 -0.8715065568685532, 0.2905021794140339 l-1.452510952949524, -1.7430131137371063 -0.8715065568685532, -0.2905021794140339 l-2.6145195960998535, 1.1620087176561356 -3.4860262274742126, 0.726255476474762 l-1.5977619588375092, 0.0 -1.5977619588375092, -1.0167576372623444 l-4.793286025524139, 1.1620087176561356 -2.7597707509994507, -0.2905021794140339 l-2.324017435312271, -1.452510952949524 -2.0335152745246887, -4.648034870624542 l-1.7430131137371063, -1.7430131137371063 -0.8715065568685532, -0.2905021794140339 l-2.6145195960998535, -6.826801300048828 0.0, -0.726255476474762 l0.726255476474762, -0.8715065568685532 1.0167576372623444, -0.2905021794140339 l1.1620087176561356, -1.5977619588375092 0.0, -3.050273060798645 l1.7430131137371063, -2.6145195960998535 1.1620087176561356, -4.212281703948975 m8.86031687259674, 10.893832445144653 l0.0, -0.2905021794140339 m10.312827825546265, 2.0335152745246887 l-0.2905021794140339, 0.0 m-9.296069741249084, 3.1955239176750183 l4.938537180423737, 0.5810043588280678 " fill="none" stroke="black" stroke-width="1" /></svg>