<?xml version="1.0" encoding="utf-8" ?>
<svg baseProfile="full" height="73.32947661168873" version="1.1" width="119.66457293368876" xmlns="http://www.w3.org/2000/svg" xmlns:ev="http://www.w3.org/2001/xml-events" xmlns:xlink="http://www.w3.org/1999/xlink"><defs /><rect fill="white" height="73.32947661168873" width="119.66457293368876" x="0" y="0" /><path d="M76.75403800792992, 18.508351389318705 m-1.5977619588375092, 0.0 l-2.7597707509994507, 1.1620087176561356 -1.8882642686367035, 2.0335152745246887 l-2.178766429424286, 4.938537180423737 -0.2905021794140339, 6.2457966804504395 l2.905021905899048, 7.407805919647217 0.8715065568685532, 4.502783715724945 l1.7430131137371063, 2.7597707509994507 2.178766429424286, 1.5977619588375092 l11.039083003997803, 2.178766429424286 4.648034870624542, 0.0 l1.7430131137371063, -0.8715065568685532 2.0335152745246887, -2.324017435312271 l1.3072597980499268, -2.324017435312271 2.0335152745246887, -7.698307633399963 l0.2905021794140339, -5.08378803730011 -0.8715065568685532, -4.502783715724945 l-4.938537180423737, -8.715065717697144 -2.178766429424286, -2.178766429424286 l-1.7430131137371063, -0.726255476474762 -13.653602600097656, -0.14525108970701694 l-1.452510952949524, 0.4357532784342766 -1.0167576372623444, 1.0167576372623444 m8.86031687259674, 15.687117576599121 l-0.726255476474762, 0.0 -0.726255476474762, 0.8715065568685532 l-0.14525108970701694, 0.726255476474762 0.8715065568685532, 0.4357532784342766 l4.357532858848572, 0.0 0.726255476474762, -0.2905021794140339 l0.2905021794140339, -0.726255476474762 -1.5977619588375092, -0.726255476474762 l-4.793286025524139, -0.4357532784342766 m1.5977619588375092, 5.519541501998901 l0.2905021794140339, 0.726255476474762 2.7597707509994507, -0.2905021794140339 l1.7430131137371063, -1.3072597980499268 m-6.826801300048828, -12.491593360900879 l-1.1620087176561356, -0.726255476474762 m6.2457966804504395, 0.5810043588280678 l2.905021905899048, -0.4357532784342766 m-3.63127738237381, -16.558624505996704 l0.14525108970701694, -0.8715065568685532 5.810043811798096, -2.324017435312271 l3.4860262274742126, -0.4357532784342766 2.7597707509994507, 4.648034870624542 l9.00556743144989, -1.7430131137371063 2.324017435312271, 4.357532858848572 l0.0, 4.067030549049377 2.905021905899048, 12.927347421646118 l3.4860262274742126, 6.2457966804504395 0.0, 9.441320896148682 l0.726255476474762, 10.893832445144653 -5.229039192199707, 4.793286025524139 l-5.229039192199707, 6.536298990249634 -2.178766429424286, 1.0167576372623444 l-15.977619886398315, 0.0 -11.184333562850952, -1.1620087176561356 l-1.3072597980499268, -0.4357532784342766 -3.63127738237381, -2.6145195960998535 l-5.6647926568984985, 0.8715065568685532 -6.391047835350037, 1.7430131137371063 l-1.0167576372623444, -1.5977619588375092 -1.5977619588375092, -7.1173036098480225 l0.726255476474762, -8.279312252998352 -2.4692685902118683, -3.63127738237381 l-4.648034870624542, -2.7597707509994507 -1.1620087176561356, -3.050273060798645 l0.2905021794140339, -7.8435587882995605 4.938537180423737, -7.407805919647217 l4.212281703948975, -4.357532858848572 2.905021905899048, -3.9217793941497803 l0.14525108970701694, -5.955294966697693 3.9217793941497803, -2.0335152745246887 l12.34634280204773, -3.63127738237381 3.9217793941497803, -0.14525108970701694 l8.279312252998352, 0.8715065568685532 4.212281703948975, 0.0 m-31.374235153198242, 58.5361909866333 l-7.698307633399963, 1.1620087176561356 -10.02232551574707, -0.4357532784342766 l-2.6145195960998535, -0.726255476474762 -8.42456340789795, -3.776528537273407 l-9.731823205947876, -2.0335152745246887 -17.430131435394287, 0.0 l-0.5810043588280678, -0.5810043588280678 " fill="none" stroke="black" stroke-width="1" /></svg>