<?xml version="1.0" encoding="utf-8" ?>
<svg baseProfile="full" height="78.70376604609191" version="1.1" width="94.24563318490982" xmlns="http://www.w3.org/2000/svg" xmlns:ev="http://www.w3.org/2001/xml-events" xmlns:xlink="http://www.w3.org/1999/xlink"><defs /><rect fill="white" height="78.70376604609191" width="94.24563318490982" x="0" y="0" /><path d="M43.055785996839404, 17.201092084869742 m-1.8882642686367035, -0.4357532784342766 l-6.10054612159729, 0.0 -2.178766429424286, 0.5810043588280678 l-1.8882642686367035, 1.1620087176561356 -5.374290347099304, 8.134061098098755 l-1.3072597980499268, 3.63127738237381 -1.452510952949524, 8.134061098098755 l0.14525108970701694, 4.357532858848572 1.452510952949524, 3.050273060798645 l2.0335152745246887, 2.4692685902118683 3.1955239176750183, 2.4692685902118683 l3.63127738237381, 1.7430131137371063 9.731823205947876, 2.0335152745246887 l8.134061098098755, -0.14525108970701694 3.050273060798645, -1.3072597980499268 l4.648034870624542, -7.553057074546814 -0.2905021794140339, -12.20109224319458 l-3.3407750725746155, -7.698307633399963 -3.63127738237381, -5.08378803730011 l-5.519541501998901, -2.905021905899048 -4.067030549049377, 0.14525108970701694 m-7.8435587882995605, 14.234607219696045 l0.726255476474762, -0.2905021794140339 0.14525108970701694, -0.726255476474762 l-0.4357532784342766, 1.3072597980499268 m13.653602600097656, 0.726255476474762 l0.0, 1.5977619588375092 0.2905021794140339, -1.5977619588375092 l-0.4357532784342766, -0.2905021794140339 m-9.731823205947876, 7.407805919647217 l1.452510952949524, 0.0 0.5810043588280678, 0.726255476474762 l-1.0167576372623444, 2.178766429424286 -0.8715065568685532, 0.4357532784342766 l-1.1620087176561356, -3.050273060798645 m1.452510952949524, 2.324017435312271 l-0.2905021794140339, 1.0167576372623444 -1.7430131137371063, 2.178766429424286 l-0.8715065568685532, 0.2905021794140339 -0.726255476474762, -1.0167576372623444 m3.3407750725746155, -1.452510952949524 l1.1620087176561356, 1.1620087176561356 1.5977619588375092, 0.5810043588280678 l1.5977619588375092, 0.14525108970701694 0.726255476474762, -0.4357532784342766 m-17.575381994247437, -36.89377784729004 l1.452510952949524, -1.7430131137371063 2.905021905899048, -1.3072597980499268 l8.569814562797546, -0.2905021794140339 0.726255476474762, 0.2905021794140339 l0.8715065568685532, 1.7430131137371063 2.6145195960998535, -0.8715065568685532 l8.569814562797546, 0.14525108970701694 6.2457966804504395, 1.8882642686367035 l1.5977619588375092, 1.0167576372623444 0.14525108970701694, 0.726255476474762 l0.726255476474762, 0.14525108970701694 11.910589933395386, 0.14525108970701694 l6.681550145149231, 1.1620087176561356 3.050273060798645, 2.0335152745246887 l0.726255476474762, 1.1620087176561356 0.0, 2.6145195960998535 l-2.0335152745246887, 2.178766429424286 -0.14525108970701694, 1.7430131137371063 l1.3072597980499268, 2.4692685902118683 6.2457966804504395, 8.279312252998352 l0.8715065568685532, 2.4692685902118683 0.14525108970701694, 2.4692685902118683 l-3.1955239176750183, 1.8882642686367035 -0.8715065568685532, 3.776528537273407 l-0.2905021794140339, 4.502783715724945 -1.452510952949524, 5.08378803730011 l-0.4357532784342766, 0.8715065568685532 -2.4692685902118683, 1.5977619588375092 l-2.0335152745246887, 4.502783715724945 -4.212281703948975, 5.229039192199707 l-6.681550145149231, 0.4357532784342766 -7.8435587882995605, 4.648034870624542 l-8.86031687259674, 3.1955239176750183 -1.452510952949524, -1.452510952949524 l-1.5977619588375092, -0.2905021794140339 -7.8435587882995605, 2.4692685902118683 l-4.938537180423737, 0.4357532784342766 -0.5810043588280678, -1.7430131137371063 l-1.452510952949524, -0.4357532784342766 -5.374290347099304, 0.4357532784342766 l-7.1173036098480225, -0.14525108970701694 -4.502783715724945, -1.3072597980499268 l-0.726255476474762, -0.4357532784342766 -1.0167576372623444, -1.7430131137371063 l-0.14525108970701694, -4.067030549049377 -2.6145195960998535, -1.5977619588375092 l-2.178766429424286, -3.3407750725746155 -0.5810043588280678, -1.8882642686367035 l-0.14525108970701694, -8.86031687259674 -3.63127738237381, -16.26812219619751 l0.0, -8.279312252998352 0.8715065568685532, -1.8882642686367035 l2.0335152745246887, -1.1620087176561356 2.178766429424286, -0.2905021794140339 l5.374290347099304, -5.955294966697693 10.312827825546265, -7.698307633399963 " fill="none" stroke="black" stroke-width="1" /></svg>