<?xml version="1.0" encoding="utf-8" ?>
<svg baseProfile="full" height="77.83226015977561" version="1.1" width="100.78193189576268" xmlns="http://www.w3.org/2000/svg" xmlns:ev="http://www.w3.org/2001/xml-events" xmlns:xlink="http://www.w3.org/1999/xlink"><defs /><rect fill="white" height="77.83226015977561" width="100.78193189576268" x="0" y="0" /><path d="M56.128384126350284, 20.10611278936267 m-0.726255476474762, -0.8715065568685532 l-4.357532858848572, 0.0 -2.324017435312271, 0.5810043588280678 l-7.26255476474762, 2.4692685902118683 -4.793286025524139, 3.3407750725746155 l-3.4860262274742126, 4.648034870624542 -2.178766429424286, 5.955294966697693 l-0.4357532784342766, 2.6145195960998535 0.2905021794140339, 5.810043811798096 l0.8715065568685532, 2.4692685902118683 1.5977619588375092, 1.8882642686367035 l0.8715065568685532, 0.726255476474762 4.502783715724945, 1.452510952949524 l6.536298990249634, 0.8715065568685532 8.569814562797546, 0.0 l2.905021905899048, -0.8715065568685532 2.6145195960998535, -1.8882642686367035 l2.178766429424286, -3.1955239176750183 0.0, -1.0167576372623444 l0.726255476474762, -0.726255476474762 0.8715065568685532, -2.324017435312271 l0.4357532784342766, -6.391047835350037 -1.0167576372623444, -6.391047835350037 l-1.0167576372623444, -2.6145195960998535 -3.776528537273407, -4.793286025524139 l-1.452510952949524, -1.0167576372623444 m-37.62003183364868, 8.279312252998352 l2.178766429424286, -4.212281703948975 2.324017435312271, -6.10054612159729 l1.0167576372623444, -4.212281703948975 1.452510952949524, -3.1955239176750183 l2.6145195960998535, -1.5977619588375092 3.050273060798645, -0.5810043588280678 l22.51391887664795, -3.3407750725746155 10.458078384399414, -0.2905021794140339 l4.793286025524139, -0.5810043588280678 1.0167576372623444, 0.2905021794140339 l0.726255476474762, 1.0167576372623444 0.14525108970701694, 3.3407750725746155 l1.5977619588375092, 1.8882642686367035 1.0167576372623444, 0.5810043588280678 l3.9217793941497803, 0.14525108970701694 3.1955239176750183, 1.1620087176561356 l1.452510952949524, 0.0 5.374290347099304, 3.1955239176750183 l1.1620087176561356, 4.212281703948975 0.0, 8.86031687259674 l0.5810043588280678, 2.6145195960998535 0.8715065568685532, 1.1620087176561356 l3.63127738237381, 1.452510952949524 1.0167576372623444, 1.3072597980499268 l0.0, 7.8435587882995605 1.0167576372623444, 5.6647926568984985 l-3.4860262274742126, 4.938537180423737 -0.726255476474762, 2.905021905899048 l0.14525108970701694, 3.050273060798645 1.7430131137371063, 3.776528537273407 l-1.3072597980499268, 1.5977619588375092 -1.8882642686367035, 1.0167576372623444 l-3.4860262274742126, 0.5810043588280678 -5.6647926568984985, 0.0 l-4.212281703948975, 0.726255476474762 -9.296069741249084, 4.502783715724945 l-6.972052454948425, -2.324017435312271 -5.229039192199707, -0.14525108970701694 l-1.8882642686367035, 1.0167576372623444 -8.134061098098755, 0.0 l-2.0335152745246887, -1.452510952949524 -6.536298990249634, 0.2905021794140339 l-6.681550145149231, -3.1955239176750183 -3.4860262274742126, -2.905021905899048 l-0.726255476474762, 0.0 -1.5977619588375092, 1.0167576372623444 l-2.7597707509994507, 0.0 -6.2457966804504395, -1.7430131137371063 l-5.08378803730011, -2.4692685902118683 -1.0167576372623444, -1.0167576372623444 l-0.2905021794140339, -1.5977619588375092 0.4357532784342766, -3.3407750725746155 l-0.14525108970701694, -4.067030549049377 -3.776528537273407, -3.3407750725746155 l-0.4357532784342766, -1.5977619588375092 5.374290347099304, -6.2457966804504395 l2.4692685902118683, -5.6647926568984985 1.452510952949524, -0.5810043588280678 l2.324017435312271, -3.776528537273407 1.8882642686367035, -1.1620087176561356 l0.0, -0.8715065568685532 -1.1620087176561356, -1.0167576372623444 l-2.324017435312271, -1.0167576372623444 m27.161953449249268, 12.20109224319458 l-3.3407750725746155, 7.26255476474762 3.3407750725746155, -1.5977619588375092 l1.8882642686367035, -1.7430131137371063 m6.681550145149231, -4.502783715724945 l0.2905021794140339, 4.648034870624542 0.5810043588280678, 2.0335152745246887 l0.8715065568685532, 2.324017435312271 2.324017435312271, 2.4692685902118683 l0.4357532784342766, -0.726255476474762 -0.14525108970701694, -4.648034870624542 l-1.5977619588375092, -5.229039192199707 m-15.251364707946777, -3.050273060798645 l2.324017435312271, 1.3072597980499268 6.972052454948425, 1.1620087176561356 l9.150818586349487, 0.14525108970701694 0.0, -0.726255476474762 l-3.9217793941497803, -1.3072597980499268 -2.6145195960998535, -0.2905021794140339 l-8.279312252998352, 0.0 -2.0335152745246887, 0.5810043588280678 m5.374290347099304, -11.329585313796997 l-1.452510952949524, 0.0 -1.5977619588375092, 0.726255476474762 l-1.0167576372623444, 0.726255476474762 -0.8715065568685532, 1.5977619588375092 l-0.14525108970701694, 1.5977619588375092 0.726255476474762, 0.4357532784342766 l3.776528537273407, 0.0 1.0167576372623444, -1.0167576372623444 l0.726255476474762, -2.324017435312271 0.0, -0.726255476474762 l-1.3072597980499268, -0.5810043588280678 m9.441320896148682, 1.8882642686367035 l-0.726255476474762, 0.0 -0.726255476474762, 0.726255476474762 l-0.5810043588280678, 1.5977619588375092 0.0, 1.8882642686367035 l1.3072597980499268, 1.1620087176561356 1.452510952949524, 0.14525108970701694 l0.8715065568685532, -0.5810043588280678 2.7597707509994507, -3.3407750725746155 l-0.4357532784342766, -0.8715065568685532 -1.7430131137371063, -1.0167576372623444 l-3.63127738237381, -0.4357532784342766 m-10.16757607460022, 16.26812219619751 l3.776528537273407, -4.938537180423737 0.2905021794140339, -1.3072597980499268 " fill="none" stroke="black" stroke-width="1" /></svg>