<?xml version="1.0" encoding="utf-8" ?>
<svg baseProfile="full" height="68.10043563134968" version="1.1" width="119.66457570903003" xmlns="http://www.w3.org/2000/svg" xmlns:ev="http://www.w3.org/2001/xml-events" xmlns:xlink="http://www.w3.org/1999/xlink"><defs /><rect fill="white" height="68.10043563134968" width="119.66457570903003" x="0" y="0" /><path d="M12.26255377754569, 11.972051868215203 m18.156386613845825, -0.5810043588280678 l-0.2905021794140339, 22.659170627593994 -15.687117576599121, 1.7430131137371063 l-5.229039192199707, -3.63127738237381 -1.7430131137371063, -6.681550145149231 l2.7597707509994507, -11.039083003997803 3.050273060798645, -1.0167576372623444 l3.3407750725746155, -0.14525108970701694 m0.0, -0.4357532784342766 l-0.4357532784342766, -0.2905021794140339 m-0.8715065568685532, -2.7597707509994507 l-1.452510952949524, -2.0335152745246887 -2.0335152745246887, -1.5977619588375092 l-5.08378803730011, 13.072597980499268 -1.7430131137371063, 5.955294966697693 l2.4692685902118683, 10.02232551574707 7.988809943199158, 2.6145195960998535 l5.6647926568984985, 0.8715065568685532 19.173144102096558, 0.2905021794140339 l3.4860262274742126, -5.08378803730011 0.0, -11.474835872650146 l-17.86588430404663, -17.430131435394287 -13.653602600097656, 1.452510952949524 l-2.4692685902118683, 1.3072597980499268 -0.14525108970701694, 4.648034870624542 m24.837937355041504, 6.536298990249634 l1.1620087176561356, -1.5977619588375092 16.413373947143555, -6.972052454948425 l18.301637172698975, 7.988809943199158 8.86031687259674, 11.474835872650146 l3.050273060798645, 10.458078384399414 m-46.189846992492676, -10.893832445144653 l34.71501111984253, 3.050273060798645 13.217849731445312, 9.731823205947876 l2.6145195960998535, 6.391047835350037 0.4357532784342766, 0.0 m-4.938537180423737, -11.184333562850952 l13.072597980499268, -4.793286025524139 9.731823205947876, -10.16757607460022 l5.229039192199707, -2.905021905899048 4.502783715724945, 6.391047835350037 l-9.00556743144989, 14.815611839294434 -15.687117576599121, 4.212281703948975 l-7.1173036098480225, -0.2905021794140339 m-33.6982536315918, -13.653602600097656 l0.0, 23.675928115844727 m5.374290347099304, -26.435699462890625 l0.0, 8.86031687259674 1.452510952949524, 15.977619886398315 m-6.681550145149231, 2.7597707509994507 l-3.1955239176750183, 3.776528537273407 14.670360088348389, 0.4357532784342766 l1.8882642686367035, -2.324017435312271 -4.648034870624542, -8.42456340789795 l-4.938537180423737, 2.6145195960998535 0.2905021794140339, 0.2905021794140339 m10.312827825546265, -20.480403900146484 l-0.14525108970701694, 21.64241313934326 -0.8715065568685532, 1.0167576372623444 m6.536298990249634, -22.80442237854004 l-0.5810043588280678, 27.8882098197937 m-4.793286025524139, -2.0335152745246887 l-1.3072597980499268, 0.14525108970701694 10.748580694198608, 5.519541501998901 l1.0167576372623444, -0.726255476474762 -7.698307633399963, -4.067030549049377 m-52.726144790649414, -36.458024978637695 l1.1620087176561356, 1.3072597980499268 m10.748580694198608, -4.793286025524139 l-0.2905021794140339, 6.391047835350037 m-12.636845111846924, 4.067030549049377 l2.905021905899048, 0.8715065568685532 9.00556743144989, 1.1620087176561356 " fill="none" stroke="black" stroke-width="1" /></svg>