<?xml version="1.0" encoding="utf-8" ?>
<svg baseProfile="full" height="93.08362374082208" version="1.1" width="109.78750061243773" xmlns="http://www.w3.org/2000/svg" xmlns:ev="http://www.w3.org/2001/xml-events" xmlns:xlink="http://www.w3.org/1999/xlink"><defs /><rect fill="white" height="93.08362374082208" width="109.78750061243773" x="0" y="0" /><path d="M29.547434858977795, 38.11725146137178 m-2.6145195960998535, -6.10054612159729 l-0.2905021794140339, -2.6145195960998535 1.5977619588375092, -2.4692685902118683 l1.7430131137371063, -1.3072597980499268 2.0335152745246887, -0.5810043588280678 l2.905021905899048, 0.2905021794140339 4.067030549049377, 2.0335152745246887 l1.1620087176561356, 1.1620087176561356 1.8882642686367035, 4.067030549049377 l1.452510952949524, -0.726255476474762 7.988809943199158, -0.2905021794140339 l11.76533818244934, 2.0335152745246887 5.229039192199707, 2.324017435312271 l0.14525108970701694, -0.726255476474762 2.7597707509994507, -2.7597707509994507 l2.6145195960998535, -3.776528537273407 1.8882642686367035, -1.1620087176561356 l2.4692685902118683, 0.14525108970701694 4.648034870624542, 3.4860262274742126 l1.3072597980499268, 2.0335152745246887 1.1620087176561356, 4.793286025524139 l0.2905021794140339, 7.988809943199158 -0.5810043588280678, 3.776528537273407 l-7.1173036098480225, 15.832369327545166 -3.9217793941497803, 7.1173036098480225 l-5.955294966697693, 4.357532858848572 -3.4860262274742126, 0.8715065568685532 l-5.955294966697693, 0.0 -5.810043811798096, -3.050273060798645 l-5.08378803730011, -3.776528537273407 -7.8435587882995605, -8.86031687259674 l-9.00556743144989, -13.798853158950806 -1.1620087176561356, -5.229039192199707 l1.7430131137371063, -5.6647926568984985 m11.184333562850952, 5.229039192199707 l1.0167576372623444, -3.050273060798645 1.452510952949524, 0.14525108970701694 l0.5810043588280678, 3.1955239176750183 -1.0167576372623444, 0.5810043588280678 l-1.0167576372623444, -0.726255476474762 m14.815611839294434, -3.050273060798645 l1.0167576372623444, 3.3407750725746155 -1.7430131137371063, 1.8882642686367035 l-3.050273060798645, 0.0 -0.8715065568685532, -1.8882642686367035 l0.14525108970701694, -2.0335152745246887 1.452510952949524, -0.5810043588280678 l2.4692685902118683, 0.0 1.5977619588375092, 1.0167576372623444 m-9.731823205947876, 11.474835872650146 l0.0, 3.63127738237381 -0.4357532784342766, 0.8715065568685532 l-3.4860262274742126, 0.14525108970701694 -3.050273060798645, -1.452510952949524 m6.391047835350037, -3.050273060798645 l1.5977619588375092, 2.905021905899048 1.8882642686367035, 1.0167576372623444 l2.324017435312271, -0.14525108970701694 1.5977619588375092, -0.726255476474762 m-29.77647304534912, -37.039029598236084 l5.810043811798096, -0.2905021794140339 6.391047835350037, 4.648034870624542 l0.0, 1.3072597980499268 -5.810043811798096, -1.5977619588375092 l-6.536298990249634, -4.357532858848572 0.0, -1.0167576372623444 l9.150818586349487, -0.726255476474762 15.832369327545166, 6.826801300048828 l1.1620087176561356, 0.14525108970701694 -3.050273060798645, -4.067030549049377 l-3.776528537273407, -2.4692685902118683 -7.698307633399963, -3.9217793941497803 l12.782095670700073, 5.6647926568984985 9.150818586349487, 6.536298990249634 l-9.150818586349487, -6.826801300048828 -12.055840492248535, -8.134061098098755 l4.067030549049377, 0.5810043588280678 5.08378803730011, 2.7597707509994507 l27.016704082489014, 20.916156768798828 -9.877074360847473, -16.703875064849854 l-3.776528537273407, -13.508352041244507 3.1955239176750183, 0.2905021794140339 l8.569814562797546, 6.681550145149231 4.067030549049377, 4.938537180423737 l1.8882642686367035, -2.4692685902118683 0.2905021794140339, -2.178766429424286 l0.726255476474762, -1.3072597980499268 10.603330135345459, 13.072597980499268 l2.905021905899048, 13.363100290298462 3.3407750725746155, -16.12287163734436 l2.0335152745246887, 2.905021905899048 4.067030549049377, 11.474835872650146 l-1.7430131137371063, 27.452456951141357 -2.6145195960998535, -1.0167576372623444 l-7.26255476474762, -7.26255476474762 13.072597980499268, 22.078166007995605 l-0.726255476474762, 1.0167576372623444 -23.966429233551025, -0.8715065568685532 l0.2905021794140339, 4.357532858848572 m5.810043811798096, 6.681550145149231 l-43.43007564544678, -7.988809943199158 10.02232551574707, 6.2457966804504395 l2.905021905899048, 1.3072597980499268 m-7.1173036098480225, -0.14525108970701694 l-3.9217793941497803, -7.407805919647217 m41.10605716705322, -8.279312252998352 l-0.14525108970701694, 8.86031687259674 m3.9217793941497803, -5.08378803730011 l6.391047835350037, -8.279312252998352 1.452510952949524, -0.14525108970701694 m-0.8715065568685532, 0.726255476474762 l-11.76533818244934, 1.8882642686367035 -7.26255476474762, -0.4357532784342766 l6.2457966804504395, -1.5977619588375092 3.1955239176750183, 0.726255476474762 l6.391047835350037, 2.7597707509994507 -1.452510952949524, -7.698307633399963 l-0.14525108970701694, -6.681550145149231 9.731823205947876, -4.357532858848572 l1.7430131137371063, 2.4692685902118683 0.5810043588280678, 1.8882642686367035 l-12.055840492248535, -10.748580694198608 -0.2905021794140339, -1.3072597980499268 m-19.6088969707489, 38.49153995513916 l0.8715065568685532, -0.8715065568685532 0.4357532784342766, 5.229039192199707 m-29.921724796295166, -5.955294966697693 l-0.2905021794140339, -2.0335152745246887 3.776528537273407, 0.2905021794140339 l-1.0167576372623444, 1.452510952949524 -3.3407750725746155, 1.8882642686367035 l-5.229039192199707, 1.3072597980499268 3.1955239176750183, -7.407805919647217 l4.793286025524139, -13.94410490989685 -6.681550145149231, 12.927347421646118 l-1.0167576372623444, 0.8715065568685532 -8.42456340789795, -6.972052454948425 l-1.1620087176561356, -2.178766429424286 5.519541501998901, -3.3407750725746155 l3.3407750725746155, 3.4860262274742126 0.726255476474762, 9.877074360847473 l-7.26255476474762, -5.374290347099304 -15.396615266799927, -16.413373947143555 l5.08378803730011, 0.5810043588280678 18.01113486289978, 13.363100290298462 l-2.7597707509994507, -0.5810043588280678 -30.06697654724121, -20.62565565109253 l2.178766429424286, 0.0 4.793286025524139, 1.5977619588375092 l9.586572051048279, 5.229039192199707 -1.3072597980499268, -3.9217793941497803 l4.067030549049377, 2.4692685902118683 -8.134061098098755, -6.391047835350037 l-9.441320896148682, -11.184333562850952 11.474835872650146, 5.519541501998901 l8.86031687259674, 5.955294966697693 -4.938537180423737, -3.63127738237381 l-8.715065717697144, -9.150818586349487 2.7597707509994507, 2.4692685902118683 l-8.715065717697144, -10.748580694198608 -0.14525108970701694, -1.0167576372623444 l18.01113486289978, 9.586572051048279 -11.329585313796997, -16.558624505996704 l-0.726255476474762, -12.491593360900879 3.050273060798645, 1.452510952949524 l13.508352041244507, 19.318394660949707 0.726255476474762, 0.0 " fill="none" stroke="black" stroke-width="1" /></svg>