<?xml version="1.0" encoding="utf-8" ?>
<svg baseProfile="full" height="92.35736888833344" version="1.1" width="99.76517466828227" xmlns="http://www.w3.org/2000/svg" xmlns:ev="http://www.w3.org/2001/xml-events" xmlns:xlink="http://www.w3.org/1999/xlink"><defs /><rect fill="white" height="92.35736888833344" width="99.76517466828227" x="0" y="0" /><path d="M62.51943252980709, 27.949674567207694 m-5.229039192199707, 0.14525108970701694 l-6.972052454948425, 1.5977619588375092 -11.76533818244934, 4.793286025524139 l-5.6647926568984985, 2.905021905899048 -6.391047835350037, 4.938537180423737 l-4.357532858848572, 4.502783715724945 -3.3407750725746155, 6.536298990249634 l-0.8715065568685532, 4.793286025524139 0.0, 2.4692685902118683 l0.8715065568685532, 2.324017435312271 2.324017435312271, 2.6145195960998535 l11.184333562850952, 5.519541501998901 14.52510952949524, 3.3407750725746155 l7.988809943199158, 0.8715065568685532 5.08378803730011, 0.0 l1.452510952949524, -0.4357532784342766 2.4692685902118683, -3.050273060798645 l9.150818586349487, -20.189902782440186 1.7430131137371063, -8.134061098098755 l0.0, -4.648034870624542 -1.7430131137371063, -3.3407750725746155 l-2.905021905899048, -2.905021905899048 -2.178766429424286, -1.452510952949524 l-9.586572051048279, 0.14525108970701694 -1.5977619588375092, -1.3072597980499268 l-4.212281703948975, 0.726255476474762 m-35.73176860809326, 25.418941974639893 l-0.726255476474762, -11.910589933395386 0.0, -14.960862398147583 l1.8882642686367035, 4.502783715724945 2.7597707509994507, 4.648034870624542 l2.4692685902118683, 1.8882642686367035 1.0167576372623444, -0.5810043588280678 l2.7597707509994507, -5.6647926568984985 0.5810043588280678, -4.212281703948975 l0.0, -8.42456340789795 1.3072597980499268, -2.324017435312271 l0.8715065568685532, 0.0 4.793286025524139, 14.08935546875 l1.0167576372623444, -0.726255476474762 0.8715065568685532, -2.7597707509994507 l2.0335152745246887, -13.217849731445312 1.1620087176561356, -2.7597707509994507 l4.793286025524139, -5.6647926568984985 4.357532858848572, -2.905021905899048 l0.726255476474762, -0.14525108970701694 0.8715065568685532, 5.519541501998901 l5.229039192199707, 16.994377374649048 2.4692685902118683, -7.1173036098480225 l2.324017435312271, -4.067030549049377 2.7597707509994507, -3.1955239176750183 l3.776528537273407, -2.178766429424286 1.5977619588375092, 5.374290347099304 l0.8715065568685532, 7.698307633399963 -0.2905021794140339, 6.826801300048828 l6.972052454948425, -3.1955239176750183 7.26255476474762, -2.0335152745246887 l9.00556743144989, -0.4357532784342766 2.0335152745246887, 1.3072597980499268 l0.4357532784342766, 2.324017435312271 0.0, 5.374290347099304 l-2.324017435312271, 2.6145195960998535 -9.150818586349487, 2.6145195960998535 l2.324017435312271, 0.726255476474762 2.324017435312271, 2.0335152745246887 l1.0167576372623444, 2.7597707509994507 0.14525108970701694, 6.10054612159729 l-1.7430131137371063, 3.050273060798645 -1.7430131137371063, 1.7430131137371063 l-4.648034870624542, 2.905021905899048 -4.793286025524139, 2.0335152745246887 l7.8435587882995605, 3.776528537273407 6.10054612159729, 3.9217793941497803 l1.3072597980499268, 1.5977619588375092 0.14525108970701694, 1.1620087176561356 l-0.4357532784342766, 1.0167576372623444 -5.229039192199707, 3.776528537273407 l-4.502783715724945, 1.1620087176561356 -1.452510952949524, 1.0167576372623444 l-10.458078384399414, 1.7430131137371063 -11.620087623596191, 3.63127738237381 l-0.4357532784342766, 0.726255476474762 25.128438472747803, -0.14525108970701694 l-2.905021905899048, -0.14525108970701694 -16.994377374649048, 2.6145195960998535 l-16.703875064849854, 0.4357532784342766 -2.0335152745246887, -0.14525108970701694 l-6.10054612159729, -2.0335152745246887 1.1620087176561356, -1.7430131137371063 l2.178766429424286, -1.1620087176561356 -5.6647926568984985, 2.6145195960998535 l-6.681550145149231, 1.7430131137371063 -5.955294966697693, 1.0167576372623444 l-2.7597707509994507, 0.0 4.648034870624542, -6.826801300048828 l6.2457966804504395, -6.10054612159729 -9.586572051048279, 2.0335152745246887 l-9.877074360847473, 0.4357532784342766 1.7430131137371063, -3.4860262274742126 l2.7597707509994507, -3.050273060798645 2.0335152745246887, -1.452510952949524 l-2.4692685902118683, 1.1620087176561356 -7.988809943199158, 2.178766429424286 l-2.324017435312271, 0.0 0.0, -0.8715065568685532 l2.4692685902118683, -4.067030549049377 4.938537180423737, -5.374290347099304 l-2.905021905899048, 2.6145195960998535 -4.793286025524139, 2.0335152745246887 l2.905021905899048, -6.826801300048828 4.212281703948975, -6.536298990249634 l3.1955239176750183, -1.452510952949524 1.8882642686367035, -1.5977619588375092 m26.145195960998535, -13.072597980499268 l-1.8882642686367035, 0.0 -1.452510952949524, 0.8715065568685532 l-0.726255476474762, 2.905021905899048 0.14525108970701694, 0.8715065568685532 l0.8715065568685532, 0.5810043588280678 3.4860262274742126, -0.14525108970701694 l1.1620087176561356, -0.5810043588280678 1.7430131137371063, -4.067030549049377 l-2.0335152745246887, -1.0167576372623444 m14.234607219696045, 3.776528537273407 l-2.4692685902118683, -0.14525108970701694 -1.0167576372623444, 0.4357532784342766 l-0.726255476474762, 2.324017435312271 0.0, 2.324017435312271 l3.63127738237381, 1.0167576372623444 1.452510952949524, 0.0 l2.7597707509994507, -0.8715065568685532 0.14525108970701694, -2.178766429424286 l-0.726255476474762, -0.5810043588280678 -2.178766429424286, -0.4357532784342766 " fill="none" stroke="black" stroke-width="1" /></svg>