<?xml version="1.0" encoding="utf-8" ?>
<svg baseProfile="full" height="101.2176850065589" version="1.1" width="119.66457477770746" xmlns="http://www.w3.org/2000/svg" xmlns:ev="http://www.w3.org/2001/xml-events" xmlns:xlink="http://www.w3.org/1999/xlink"><defs /><rect fill="white" height="101.2176850065589" width="119.66457477770746" x="0" y="0" /><path d="M58.59765256755054, 33.03345922380686 m-4.793286025524139, -1.0167576372623444 l-7.553057074546814, 0.4357532784342766 -3.1955239176750183, 1.0167576372623444 l-3.4860262274742126, 2.6145195960998535 -2.178766429424286, 3.050273060798645 l-3.3407750725746155, 7.698307633399963 -1.8882642686367035, 8.569814562797546 l0.0, 7.26255476474762 1.1620087176561356, 3.9217793941497803 l3.4860262274742126, 5.955294966697693 5.08378803730011, 4.212281703948975 l3.63127738237381, 1.7430131137371063 4.212281703948975, 1.1620087176561356 l5.519541501998901, 0.8715065568685532 8.569814562797546, 0.0 l7.407805919647217, -2.324017435312271 3.776528537273407, -2.178766429424286 l3.1955239176750183, -2.6145195960998535 3.4860262274742126, -5.08378803730011 l1.8882642686367035, -4.357532858848572 0.5810043588280678, -4.357532858848572 l-0.14525108970701694, -7.698307633399963 -2.0335152745246887, -6.2457966804504395 l-2.324017435312271, -5.08378803730011 -2.4692685902118683, -2.6145195960998535 l-4.212281703948975, -2.905021905899048 -7.1173036098480225, -3.3407750725746155 l-6.972052454948425, -1.3072597980499268 -6.10054612159729, 0.14525108970701694 l-3.776528537273407, 0.5810043588280678 -4.212281703948975, 2.324017435312271 m-24.983186721801758, 50.11162757873535 l-6.826801300048828, -4.793286025524139 -3.63127738237381, -3.63127738237381 l-1.452510952949524, -2.4692685902118683 -1.452510952949524, -5.229039192199707 l-0.2905021794140339, -3.9217793941497803 0.5810043588280678, -2.178766429424286 l1.452510952949524, -2.4692685902118683 2.6145195960998535, -1.5977619588375092 l5.519541501998901, -0.4357532784342766 0.0, -0.8715065568685532 l-1.3072597980499268, -2.4692685902118683 -6.972052454948425, -9.441320896148682 l-3.050273060798645, -6.10054612159729 0.0, -3.1955239176750183 l0.4357532784342766, -1.1620087176561356 0.726255476474762, -1.3072597980499268 l2.324017435312271, -2.178766429424286 2.4692685902118683, -1.1620087176561356 l5.08378803730011, -0.8715065568685532 5.08378803730011, -0.14525108970701694 l5.374290347099304, 1.1620087176561356 0.726255476474762, -0.726255476474762 l2.0335152745246887, -4.938537180423737 4.357532858848572, -5.955294966697693 l2.178766429424286, -2.0335152745246887 6.826801300048828, -4.648034870624542 l4.212281703948975, -2.178766429424286 6.10054612159729, -2.178766429424286 l9.877074360847473, -1.452510952949524 9.00556743144989, 0.0 l2.905021905899048, 0.726255476474762 2.4692685902118683, 2.0335152745246887 l0.5810043588280678, 2.178766429424286 -0.5810043588280678, 2.324017435312271 l17.139629125595093, -0.5810043588280678 5.955294966697693, 2.0335152745246887 l5.6647926568984985, 3.3407750725746155 1.7430131137371063, 1.5977619588375092 l2.324017435312271, 3.3407750725746155 1.1620087176561356, 2.905021905899048 l0.0, 2.905021905899048 -1.452510952949524, 5.229039192199707 l-3.63127738237381, 4.648034870624542 -5.08378803730011, 4.067030549049377 l-1.3072597980499268, 1.5977619588375092 0.14525108970701694, 0.8715065568685532 l1.3072597980499268, 1.0167576372623444 12.055840492248535, 6.2457966804504395 l1.1620087176561356, 2.178766429424286 0.2905021794140339, 2.4692685902118683 l-5.519541501998901, 8.569814562797546 -4.938537180423737, 5.08378803730011 l-5.229039192199707, 4.502783715724945 -6.2457966804504395, 4.793286025524139 l-3.9217793941497803, 2.178766429424286 -5.229039192199707, 1.5977619588375092 l-1.8882642686367035, 0.14525108970701694 0.8715065568685532, -0.5810043588280678 l1.452510952949524, -0.14525108970701694 0.5810043588280678, 1.7430131137371063 l-2.6145195960998535, 4.502783715724945 -2.905021905899048, 3.050273060798645 l-7.407805919647217, 3.1955239176750183 -5.6647926568984985, 1.0167576372623444 l-7.988809943199158, 0.4357532784342766 -8.569814562797546, -0.5810043588280678 l-9.586572051048279, -1.452510952949524 -4.212281703948975, -2.178766429424286 l-1.452510952949524, -0.2905021794140339 -4.648034870624542, 0.2905021794140339 l-4.502783715724945, -1.0167576372623444 -1.452510952949524, -0.726255476474762 l-3.050273060798645, -2.7597707509994507 -1.452510952949524, -3.4860262274742126 m34.13400650024414, -25.564191341400146 l0.0, 0.0 m0.0, 0.0 l7.988809943199158, -0.14525108970701694 0.14525108970701694, 1.0167576372623444 l-0.8715065568685532, 1.452510952949524 -1.5977619588375092, 0.5810043588280678 l-6.2457966804504395, 0.14525108970701694 -0.2905021794140339, -1.0167576372623444 l0.726255476474762, -0.726255476474762 m3.4860262274742126, 2.6145195960998535 l0.0, 2.324017435312271 -2.0335152745246887, 3.9217793941497803 l-2.0335152745246887, 1.3072597980499268 -2.0335152745246887, 0.2905021794140339 l-0.726255476474762, 0.0 -0.2905021794140339, -1.1620087176561356 " fill="none" stroke="black" stroke-width="1" /></svg>