<?xml version="1.0" encoding="utf-8" ?>
<svg baseProfile="full" height="44.71501087769866" version="1.1" width="49.363045655190945" xmlns="http://www.w3.org/2000/svg" xmlns:ev="http://www.w3.org/2001/xml-events" xmlns:xlink="http://www.w3.org/1999/xlink"><defs /><rect fill="white" height="44.71501087769866" width="49.363045655190945" x="0" y="0" /><path d="M13.279312020167708, 11.536299288272858 m3.9217793941497803, -4.357532858848572 l3.3407750725746155, -2.178766429424286 1.452510952949524, 2.6145195960998535 l1.5977619588375092, 0.726255476474762 4.067030549049377, -1.0167576372623444 l2.178766429424286, 1.0167576372623444 2.4692685902118683, -0.4357532784342766 l1.7430131137371063, 0.726255476474762 2.905021905899048, 0.0 l4.067030549049377, -2.7597707509994507 1.0167576372623444, 3.4860262274742126 l1.8882642686367035, 3.776528537273407 0.0, 3.4860262274742126 l-0.5810043588280678, 1.7430131137371063 0.14525108970701694, 1.5977619588375092 l-1.7430131137371063, 0.2905021794140339 -0.726255476474762, 0.5810043588280678 l-0.14525108970701694, 1.5977619588375092 3.3407750725746155, 2.6145195960998535 l0.14525108970701694, 1.0167576372623444 -0.2905021794140339, 3.1955239176750183 l-1.0167576372623444, 1.7430131137371063 0.0, 0.8715065568685532 l-1.3072597980499268, 1.452510952949524 0.2905021794140339, 3.4860262274742126 l-0.5810043588280678, 1.5977619588375092 -0.726255476474762, 0.726255476474762 l-3.3407750725746155, 0.5810043588280678 -9.00556743144989, -0.8715065568685532 l-2.178766429424286, -0.5810043588280678 -3.050273060798645, 0.0 l-1.452510952949524, 1.1620087176561356 -5.374290347099304, -1.7430131137371063 l-3.3407750725746155, 0.14525108970701694 -1.7430131137371063, 0.8715065568685532 l-0.726255476474762, -0.14525108970701694 -2.324017435312271, -3.3407750725746155 l-2.324017435312271, -0.5810043588280678 -0.8715065568685532, -3.776528537273407 l0.5810043588280678, -2.4692685902118683 2.6145195960998535, -3.3407750725746155 l5.519541501998901, -4.212281703948975 -3.1955239176750183, -1.1620087176561356 l-1.5977619588375092, -1.1620087176561356 -3.050273060798645, -2.4692685902118683 l-0.4357532784342766, -1.452510952949524 1.452510952949524, -3.050273060798645 l1.452510952949524, -1.452510952949524 1.452510952949524, -0.5810043588280678 l1.0167576372623444, 0.14525108970701694 1.452510952949524, 1.8882642686367035 l0.726255476474762, 0.5810043588280678 0.14525108970701694, -0.2905021794140339 m8.86031687259674, 4.938537180423737 l0.14525108970701694, 1.452510952949524 1.452510952949524, -0.2905021794140339 l0.0, -0.8715065568685532 -1.0167576372623444, 0.0 m7.8435587882995605, 1.0167576372623444 l0.0, -0.726255476474762 -0.4357532784342766, 0.726255476474762 l0.14525108970701694, 1.452510952949524 1.452510952949524, -0.2905021794140339 l0.0, -1.452510952949524 -0.4357532784342766, -0.2905021794140339 m-9.00556743144989, 13.072597980499268 l6.536298990249634, 0.8715065568685532 m-10.748580694198608, -15.687117576599121 l-2.7597707509994507, 5.955294966697693 -0.4357532784342766, 2.178766429424286 l0.0, 4.502783715724945 1.5977619588375092, 5.955294966697693 l2.178766429424286, 0.5810043588280678 2.7597707509994507, -0.8715065568685532 l1.7430131137371063, 0.0 0.726255476474762, 1.452510952949524 l6.826801300048828, 1.5977619588375092 4.793286025524139, -5.6647926568984985 l0.5810043588280678, -3.9217793941497803 1.3072597980499268, -4.502783715724945 l0.0, -4.793286025524139 -3.776528537273407, -2.4692685902118683 l-6.681550145149231, -1.3072597980499268 -2.0335152745246887, 1.5977619588375092 l-4.502783715724945, 2.0335152745246887 -4.502783715724945, 1.3072597980499268 l-1.7430131137371063, -0.2905021794140339 " fill="none" stroke="black" stroke-width="1" /></svg>