<?xml version="1.0" encoding="utf-8" ?>
<svg baseProfile="full" height="51.1060590390116" version="1.1" width="58.223362900316715" xmlns="http://www.w3.org/2000/svg" xmlns:ev="http://www.w3.org/2001/xml-events" xmlns:xlink="http://www.w3.org/1999/xlink"><defs /><rect fill="white" height="51.1060590390116" width="58.223362900316715" x="0" y="0" /><path d="M26.49716306477785, 23.301637498661876 m-2.324017435312271, -2.0335152745246887 l-3.9217793941497803, -2.324017435312271 -1.7430131137371063, 0.2905021794140339 l-0.726255476474762, 0.8715065568685532 -1.7430131137371063, 4.648034870624542 l0.0, 2.324017435312271 1.7430131137371063, 1.7430131137371063 l3.050273060798645, 1.452510952949524 3.3407750725746155, 0.8715065568685532 l4.648034870624542, -0.14525108970701694 2.0335152745246887, -0.726255476474762 l0.5810043588280678, -0.8715065568685532 0.8715065568685532, -3.776528537273407 l-1.7430131137371063, -2.6145195960998535 -3.4860262274742126, -2.324017435312271 l-2.6145195960998535, -0.5810043588280678 -3.050273060798645, 0.0 m-3.9217793941497803, -1.3072597980499268 l-1.452510952949524, -1.7430131137371063 0.14525108970701694, -4.502783715724945 l0.5810043588280678, -2.4692685902118683 1.3072597980499268, -2.4692685902118683 l3.9217793941497803, -2.6145195960998535 m0.0, 0.0 l1.1620087176561356, 1.452510952949524 1.1620087176561356, 4.648034870624542 l1.0167576372623444, 1.452510952949524 0.8715065568685532, 0.0 l3.1955239176750183, -1.7430131137371063 4.648034870624542, -3.1955239176750183 l1.3072597980499268, -1.452510952949524 1.5977619588375092, -0.5810043588280678 l-2.178766429424286, 13.363100290298462 -0.14525108970701694, 1.7430131137371063 l0.8715065568685532, 0.5810043588280678 13.798853158950806, -0.2905021794140339 l3.9217793941497803, 0.5810043588280678 -9.586572051048279, 8.279312252998352 l2.6145195960998535, 2.178766429424286 1.1620087176561356, 2.0335152745246887 l0.5810043588280678, 5.08378803730011 -2.6145195960998535, 0.0 l-6.972052454948425, -2.178766429424286 -3.050273060798645, -0.2905021794140339 l-0.726255476474762, 7.553057074546814 -0.5810043588280678, 1.7430131137371063 l-1.7430131137371063, 0.14525108970701694 -1.5977619588375092, -1.3072597980499268 l-0.726255476474762, -2.178766429424286 0.0, -3.3407750725746155 l-0.5810043588280678, -1.7430131137371063 -1.7430131137371063, 1.1620087176561356 l-2.905021905899048, 3.1955239176750183 -3.4860262274742126, 1.3072597980499268 l-0.4357532784342766, -0.726255476474762 1.0167576372623444, -2.905021905899048 l0.0, -2.6145195960998535 0.5810043588280678, -2.0335152745246887 l-2.6145195960998535, 0.0 -1.452510952949524, 1.1620087176561356 l-4.067030549049377, 0.5810043588280678 -3.1955239176750183, 0.0 l-6.10054612159729, -1.1620087176561356 0.5810043588280678, -1.7430131137371063 l2.324017435312271, -2.6145195960998535 2.324017435312271, -1.7430131137371063 l-0.5810043588280678, -1.7430131137371063 -1.5977619588375092, -1.452510952949524 l-1.7430131137371063, -4.357532858848572 2.7597707509994507, 0.0 l-0.8715065568685532, -1.7430131137371063 -0.14525108970701694, -2.4692685902118683 l1.5977619588375092, -1.5977619588375092 1.7430131137371063, -0.14525108970701694 l9.296069741249084, 3.9217793941497803 " fill="none" stroke="black" stroke-width="1" /></svg>