<?xml version="1.0" encoding="utf-8" ?>
<svg baseProfile="full" height="73.61997821368277" version="1.1" width="83.20655184797943" xmlns="http://www.w3.org/2000/svg" xmlns:ev="http://www.w3.org/2001/xml-events" xmlns:xlink="http://www.w3.org/1999/xlink"><defs /><rect fill="white" height="73.61997821368277" width="83.20655184797943" x="0" y="0" /><path d="M45.815557185560465, 20.251364884898067 m-4.212281703948975, 0.726255476474762 l-3.776528537273407, 1.5977619588375092 -6.536298990249634, 3.9217793941497803 l-4.212281703948975, 3.63127738237381 -2.905021905899048, 4.067030549049377 l-1.5977619588375092, 7.1173036098480225 0.0, 3.9217793941497803 l1.5977619588375092, 5.08378803730011 2.905021905899048, 4.067030549049377 l4.212281703948975, 2.4692685902118683 4.502783715724945, 1.1620087176561356 l4.067030549049377, 0.5810043588280678 8.86031687259674, 0.14525108970701694 l5.6647926568984985, -1.452510952949524 2.324017435312271, -1.1620087176561356 l4.212281703948975, -2.324017435312271 2.178766429424286, -1.7430131137371063 l1.3072597980499268, -1.7430131137371063 1.0167576372623444, -3.9217793941497803 l0.0, -7.1173036098480225 -2.905021905899048, -6.826801300048828 l-1.1620087176561356, -1.3072597980499268 -2.324017435312271, -4.357532858848572 l-2.905021905899048, -2.6145195960998535 -4.067030549049377, -2.6145195960998535 l-6.2457966804504395, -2.4692685902118683 -3.050273060798645, -0.726255476474762 m-1.452510952949524, 1.452510952949524 l-6.10054612159729, -1.3072597980499268 -12.20109224319458, -3.63127738237381 m10.16757607460022, 9.586572051048279 l-5.955294966697693, 0.8715065568685532 -15.251364707946777, 0.14525108970701694 l-1.5977619588375092, 0.5810043588280678 m13.217849731445312, 6.536298990249634 l-9.150818586349487, 4.067030549049377 -9.150818586349487, 5.6647926568984985 l-0.2905021794140339, 0.726255476474762 1.1620087176561356, 0.0 m8.715065717697144, 3.1955239176750183 l-4.357532858848572, 5.955294966697693 -2.324017435312271, 5.08378803730011 l0.8715065568685532, 0.5810043588280678 2.905021905899048, 0.0 m12.927347421646118, 0.0 l1.5977619588375092, 10.02232551574707 0.5810043588280678, 0.726255476474762 l1.7430131137371063, -0.14525108970701694 m12.20109224319458, -6.2457966804504395 l3.776528537273407, 5.08378803730011 1.452510952949524, 1.0167576372623444 l0.5810043588280678, -1.452510952949524 m4.067030549049377, -6.536298990249634 l5.955294966697693, 3.3407750725746155 3.3407750725746155, 1.1620087176561356 l0.726255476474762, 0.0 -0.14525108970701694, -1.7430131137371063 m-1.452510952949524, -6.391047835350037 l7.26255476474762, 1.8882642686367035 4.067030549049377, 0.4357532784342766 l4.067030549049377, 0.0 -0.4357532784342766, -1.0167576372623444 m-5.6647926568984985, -5.374290347099304 l7.407805919647217, -3.1955239176750183 2.178766429424286, -1.7430131137371063 m-8.715065717697144, -8.42456340789795 l3.4860262274742126, -4.502783715724945 m-3.1955239176750183, -1.1620087176561356 l-0.14525108970701694, -3.63127738237381 0.4357532784342766, -1.7430131137371063 l2.905021905899048, -5.229039192199707 m-11.620087623596191, 4.357532858848572 l1.7430131137371063, -2.905021905899048 1.452510952949524, -3.776528537273407 l0.5810043588280678, -4.938537180423737 m-11.329585313796997, 5.08378803730011 l0.5810043588280678, -0.726255476474762 0.14525108970701694, -2.178766429424286 l0.0, -4.067030549049377 -0.726255476474762, -2.178766429424286 m-6.681550145149231, 0.5810043588280678 l-0.2905021794140339, -7.26255476474762 m-12.782095670700073, 27.307205200195312 l0.0, 1.452510952949524 1.7430131137371063, 0.2905021794140339 l1.7430131137371063, -1.5977619588375092 0.2905021794140339, -1.5977619588375092 l-0.8715065568685532, -0.2905021794140339 -0.5810043588280678, 0.5810043588280678 m9.877074360847473, 0.14525108970701694 l-0.8715065568685532, 2.178766429424286 0.2905021794140339, 0.726255476474762 l3.4860262274742126, 0.0 1.1620087176561356, -1.7430131137371063 l0.0, -2.178766429424286 -0.4357532784342766, -0.726255476474762 l-2.4692685902118683, 0.0 -2.6145195960998535, 1.8882642686367035 m-2.0335152745246887, 8.569814562797546 l-1.7430131137371063, 5.08378803730011 6.391047835350037, 0.14525108970701694 l0.2905021794140339, -0.726255476474762 -0.14525108970701694, -1.1620087176561356 l-1.1620087176561356, -1.5977619588375092 -3.63127738237381, -2.905021905899048 m-3.4860262274742126, 5.229039192199707 l-0.5810043588280678, 0.0 m-1.5977619588375092, 0.4357532784342766 l-5.955294966697693, 1.452510952949524 -7.407805919647217, 1.0167576372623444 l-0.5810043588280678, 0.4357532784342766 m14.379857778549194, 1.1620087176561356 l-4.648034870624542, 3.050273060798645 m6.391047835350037, -2.4692685902118683 l-2.905021905899048, 5.374290347099304 m19.173144102096558, -16.994377374649048 l7.553057074546814, -2.7597707509994507 m-9.586572051048279, 7.1173036098480225 l11.910589933395386, -0.2905021794140339 " fill="none" stroke="black" stroke-width="1" /></svg>