<?xml version="1.0" encoding="utf-8" ?>
<svg baseProfile="full" height="50.37980508059263" version="1.1" width="39.92172526195645" xmlns="http://www.w3.org/2000/svg" xmlns:ev="http://www.w3.org/2001/xml-events" xmlns:xlink="http://www.w3.org/1999/xlink"><defs /><rect fill="white" height="50.37980508059263" width="39.92172526195645" x="0" y="0" /><path d="M21.558624729514122, 37.53624417819083 m-11.620087623596191, -6.391047835350037 l-1.5977619588375092, -1.7430131137371063 -2.4692685902118683, -4.212281703948975 l-0.8715065568685532, -3.1955239176750183 0.0, -5.519541501998901 l0.14525108970701694, -1.3072597980499268 2.0335152745246887, -3.9217793941497803 l2.905021905899048, -2.905021905899048 3.050273060798645, -1.5977619588375092 l7.26255476474762, -1.5977619588375092 5.374290347099304, -0.14525108970701694 l4.502783715724945, 2.324017435312271 3.776528537273407, 4.648034870624542 l0.726255476474762, 2.178766429424286 0.14525108970701694, 4.212281703948975 l-2.7597707509994507, 11.910589933395386 -1.452510952949524, 1.8882642686367035 l-3.4860262274742126, 3.050273060798645 -5.229039192199707, 1.7430131137371063 m1.1620087176561356, -20.770905017852783 l-0.8715065568685532, -0.5810043588280678 -2.324017435312271, 0.14525108970701694 l-1.3072597980499268, 1.0167576372623444 -1.0167576372623444, 1.5977619588375092 l-0.4357532784342766, 2.4692685902118683 0.2905021794140339, 2.7597707509994507 l1.3072597980499268, 0.726255476474762 1.8882642686367035, 0.0 l4.793286025524139, -4.357532858848572 0.5810043588280678, -3.050273060798645 l-0.8715065568685532, -1.452510952949524 m-6.972052454948425, 1.452510952949524 l-1.7430131137371063, -0.5810043588280678 -0.5810043588280678, -0.726255476474762 l-0.14525108970701694, -1.5977619588375092 2.6145195960998535, -0.14525108970701694 l2.178766429424286, 3.1955239176750183 m3.050273060798645, -2.324017435312271 l1.7430131137371063, -1.5977619588375092 1.1620087176561356, -0.2905021794140339 l1.7430131137371063, 0.0 0.726255476474762, 0.726255476474762 l-0.2905021794140339, 1.7430131137371063 -2.6145195960998535, 2.4692685902118683 m0.5810043588280678, -0.5810043588280678 l-1.0167576372623444, -0.5810043588280678 -2.4692685902118683, -0.2905021794140339 m-3.050273060798645, 3.776528537273407 l1.452510952949524, 0.726255476474762 0.4357532784342766, -1.5977619588375092 l-0.8715065568685532, -0.4357532784342766 -0.14525108970701694, 1.0167576372623444 m3.1955239176750183, -0.726255476474762 l-0.5810043588280678, 0.726255476474762 1.452510952949524, 0.5810043588280678 m-1.3072597980499268, -0.8715065568685532 l0.0, 0.0 m-4.212281703948975, 2.7597707509994507 l0.2905021794140339, 0.726255476474762 1.5977619588375092, 0.2905021794140339 l1.452510952949524, -0.2905021794140339 m-7.407805919647217, 12.055840492248535 l0.0, 2.4692685902118683 -0.726255476474762, 0.2905021794140339 l-3.63127738237381, -0.5810043588280678 -2.4692685902118683, 0.2905021794140339 l-0.726255476474762, 3.3407750725746155 0.14525108970701694, 4.502783715724945 m15.251364707946777, -8.715065717697144 l0.726255476474762, 0.8715065568685532 0.0, 1.7430131137371063 l4.357532858848572, -0.4357532784342766 1.0167576372623444, 0.5810043588280678 l1.7430131137371063, 5.810043811798096 " fill="none" stroke="black" stroke-width="1" /></svg>