<?xml version="1.0" encoding="utf-8" ?>
<svg baseProfile="full" height="50.37980396300554" version="1.1" width="51.10605960711837" xmlns="http://www.w3.org/2000/svg" xmlns:ev="http://www.w3.org/2001/xml-events" xmlns:xlink="http://www.w3.org/1999/xlink"><defs /><rect fill="white" height="50.37980396300554" width="51.10605960711837" x="0" y="0" /><path d="M27.659171149134636, 14.4413205049932 m-2.4692685902118683, -1.452510952949524 l-1.0167576372623444, 0.0 -1.452510952949524, 1.0167576372623444 l-2.0335152745246887, 2.178766429424286 -1.7430131137371063, 2.905021905899048 l-2.4692685902118683, 6.972052454948425 -0.4357532784342766, 6.10054612159729 l1.1620087176561356, 3.050273060798645 2.324017435312271, 1.8882642686367035 l3.050273060798645, 0.0 3.050273060798645, -1.5977619588375092 l2.905021905899048, -3.050273060798645 1.1620087176561356, -1.8882642686367035 l1.1620087176561356, -3.63127738237381 0.0, -2.0335152745246887 l-0.5810043588280678, -2.178766429424286 -2.0335152745246887, -4.212281703948975 l-2.7597707509994507, -3.050273060798645 m-10.312827825546265, 17.86588430404663 l-2.905021905899048, -4.212281703948975 -4.938537180423737, -11.474835872650146 l4.648034870624542, 2.324017435312271 0.726255476474762, 0.0 l0.726255476474762, -0.726255476474762 1.8882642686367035, -5.08378803730011 l1.0167576372623444, -7.1173036098480225 2.178766429424286, 4.793286025524139 l1.1620087176561356, 0.8715065568685532 1.452510952949524, 0.2905021794140339 l1.3072597980499268, -0.5810043588280678 5.229039192199707, -6.972052454948425 l1.0167576372623444, -0.4357532784342766 3.4860262274742126, 5.6647926568984985 l2.6145195960998535, 2.178766429424286 3.776528537273407, 0.5810043588280678 l4.212281703948975, -1.1620087176561356 0.0, 1.0167576372623444 l-3.050273060798645, 4.357532858848572 -0.2905021794140339, 2.7597707509994507 l1.7430131137371063, 2.0335152745246887 4.212281703948975, 2.324017435312271 l0.726255476474762, 2.0335152745246887 -2.0335152745246887, 2.905021905899048 l-4.648034870624542, 3.4860262274742126 -3.776528537273407, 1.8882642686367035 l-0.14525108970701694, 1.1620087176561356 1.3072597980499268, 2.4692685902118683 l-0.2905021794140339, 1.8882642686367035 -0.8715065568685532, 1.3072597980499268 l-3.9217793941497803, 2.7597707509994507 -1.8882642686367035, 0.726255476474762 l-2.324017435312271, -0.14525108970701694 -0.726255476474762, -1.7430131137371063 l0.14525108970701694, -4.067030549049377 -8.715065717697144, 2.7597707509994507 l-4.938537180423737, 0.8715065568685532 -1.0167576372623444, -2.4692685902118683 l-6.10054612159729, -1.1620087176561356 -0.726255476474762, -0.5810043588280678 l-0.4357532784342766, -1.452510952949524 0.2905021794140339, -2.178766429424286 l2.178766429424286, -3.9217793941497803 3.1955239176750183, -2.905021905899048 " fill="none" stroke="black" stroke-width="1" /></svg>