<?xml version="1.0" encoding="utf-8" ?>
<svg baseProfile="full" height="53.86582974344492" version="1.1" width="47.910535112023354" xmlns="http://www.w3.org/2000/svg" xmlns:ev="http://www.w3.org/2001/xml-events" xmlns:xlink="http://www.w3.org/1999/xlink"><defs /><rect fill="white" height="53.86582974344492" width="47.910535112023354" x="0" y="0" /><path d="M30.273690558969975, 15.603329753503203 m-4.502783715724945, 2.6145195960998535 l-2.178766429424286, 3.1955239176750183 -4.212281703948975, 8.134061098098755 l-1.7430131137371063, 6.972052454948425 0.14525108970701694, 2.4692685902118683 l2.6145195960998535, 0.5810043588280678 1.8882642686367035, -0.14525108970701694 l2.178766429424286, -0.4357532784342766 1.7430131137371063, -1.0167576372623444 l1.452510952949524, -2.0335152745246887 1.5977619588375092, -3.63127738237381 l2.4692685902118683, -10.02232551574707 0.2905021794140339, -3.9217793941497803 l-0.5810043588280678, -1.8882642686367035 -3.776528537273407, -2.178766429424286 m-9.586572051048279, 18.156386613845825 l5.229039192199707, -1.1620087176561356 4.212281703948975, -2.905021905899048 m-7.553057074546814, 4.502783715724945 l1.7430131137371063, 1.5977619588375092 1.5977619588375092, -0.14525108970701694 l0.5810043588280678, 0.5810043588280678 1.452510952949524, -2.4692685902118683 l0.4357532784342766, -3.050273060798645 m-8.279312252998352, 8.279312252998352 l12.927347421646118, -0.4357532784342766 m-9.731823205947876, 0.0 l0.5810043588280678, -1.0167576372623444 0.8715065568685532, 0.0 l2.4692685902118683, 2.178766429424286 m-0.5810043588280678, -17.284879684448242 l-0.726255476474762, 4.067030549049377 0.4357532784342766, 1.3072597980499268 l1.1620087176561356, 0.0 0.5810043588280678, -0.2905021794140339 l1.3072597980499268, -2.905021905899048 0.0, -1.8882642686367035 l-0.5810043588280678, -0.5810043588280678 -2.0335152745246887, -0.2905021794140339 m5.374290347099304, -0.5810043588280678 l0.14525108970701694, 2.6145195960998535 2.178766429424286, 0.2905021794140339 l-1.0167576372623444, -2.178766429424286 m-5.519541501998901, -0.2905021794140339 l2.4692685902118683, 3.1955239176750183 m0.8715065568685532, -0.5810043588280678 l2.0335152745246887, -4.357532858848572 m-15.251364707946777, 15.541867017745972 l-3.050273060798645, -4.212281703948975 -3.050273060798645, -7.8435587882995605 l-2.0335152745246887, -2.6145195960998535 -0.726255476474762, -0.2905021794140339 l1.8882642686367035, -1.5977619588375092 4.938537180423737, -6.826801300048828 l0.8715065568685532, -0.5810043588280678 0.8715065568685532, 3.776528537273407 l0.8715065568685532, 0.14525108970701694 2.6145195960998535, -3.9217793941497803 l3.3407750725746155, -3.3407750725746155 1.0167576372623444, 1.3072597980499268 l1.1620087176561356, 0.0 8.42456340789795, -3.1955239176750183 l0.4357532784342766, 0.5810043588280678 0.0, 6.10054612159729 l3.3407750725746155, 1.0167576372623444 0.5810043588280678, 3.63127738237381 l0.726255476474762, 1.3072597980499268 1.5977619588375092, 0.4357532784342766 l3.63127738237381, -1.8882642686367035 -0.14525108970701694, 1.452510952949524 l-5.6647926568984985, 11.474835872650146 0.0, 4.793286025524139 l-2.6145195960998535, 8.134061098098755 0.14525108970701694, -0.8715065568685532 l-6.972052454948425, 7.26255476474762 -1.7430131137371063, 0.4357532784342766 l-2.7597707509994507, -0.4357532784342766 -2.0335152745246887, -2.324017435312271 l-1.0167576372623444, -0.14525108970701694 -4.357532858848572, 0.726255476474762 l-4.212281703948975, -0.4357532784342766 -2.6145195960998535, -2.6145195960998535 l-1.7430131137371063, -5.08378803730011 -1.1620087176561356, -9.586572051048279 l-1.0167576372623444, -4.793286025524139 0.2905021794140339, -1.5977619588375092 l0.8715065568685532, -0.726255476474762 3.3407750725746155, -1.0167576372623444 " fill="none" stroke="black" stroke-width="1" /></svg>