<?xml version="1.0" encoding="utf-8" ?>
<svg baseProfile="full" height="45.29601523652673" version="1.1" width="48.34629034623504" xmlns="http://www.w3.org/2000/svg" xmlns:ev="http://www.w3.org/2001/xml-events" xmlns:xlink="http://www.w3.org/1999/xlink"><defs /><rect fill="white" height="45.29601523652673" width="48.34629034623504" x="0" y="0" /><path d="M19.67036214657128, 18.798853773623705 m-0.5810043588280678, -0.14525108970701694 l-0.2905021794140339, 1.452510952949524 0.2905021794140339, 0.726255476474762 l1.3072597980499268, 0.14525108970701694 0.0, -1.452510952949524 l-0.5810043588280678, -0.2905021794140339 0.0, 0.5810043588280678 l0.2905021794140339, -0.726255476474762 -0.5810043588280678, -0.14525108970701694 m8.569814562797546, 0.0 l-2.0335152745246887, -0.2905021794140339 -0.2905021794140339, 1.8882642686367035 l0.2905021794140339, 0.726255476474762 0.726255476474762, 0.0 l1.0167576372623444, -2.6145195960998535 0.0, -0.5810043588280678 l-0.5810043588280678, -0.2905021794140339 -0.2905021794140339, 2.7597707509994507 l0.0, -1.452510952949524 m-1.452510952949524, 5.6647926568984985 l-1.8882642686367035, 0.2905021794140339 -0.2905021794140339, 0.5810043588280678 l0.5810043588280678, 0.0 0.2905021794140339, -0.5810043588280678 l-0.5810043588280678, 0.0 -0.14525108970701694, 3.4860262274742126 l-0.726255476474762, 1.1620087176561356 -0.726255476474762, 0.2905021794140339 l-2.7597707509994507, 0.0 -1.0167576372623444, -0.726255476474762 m7.26255476474762, -2.324017435312271 l-0.5810043588280678, 0.2905021794140339 -0.2905021794140339, 1.5977619588375092 l0.0, 0.8715065568685532 0.8715065568685532, 0.5810043588280678 l2.7597707509994507, -0.14525108970701694 2.178766429424286, -1.3072597980499268 m2.178766429424286, -5.374290347099304 l10.748580694198608, -2.6145195960998535 m-11.039083003997803, 5.374290347099304 l6.536298990249634, -2.178766429424286 3.1955239176750183, 0.0 m-9.150818586349487, 4.648034870624542 l2.178766429424286, -0.2905021794140339 4.648034870624542, 0.2905021794140339 m-22.80442237854004, -1.452510952949524 l-2.0335152745246887, -1.452510952949524 -5.955294966697693, -1.8882642686367035 m6.391047835350037, 5.229039192199707 l-5.229039192199707, -1.0167576372623444 -3.1955239176750183, -1.3072597980499268 m8.134061098098755, 3.4860262274742126 l-6.972052454948425, 0.14525108970701694 m14.379857778549194, -17.284879684448242 l-7.1173036098480225, -2.178766429424286 -3.050273060798645, 0.0 l0.4357532784342766, 1.5977619588375092 2.7597707509994507, 2.6145195960998535 l0.5810043588280678, 1.5977619588375092 -3.4860262274742126, 0.4357532784342766 l-3.9217793941497803, -0.726255476474762 0.14525108970701694, 1.0167576372623444 l0.726255476474762, 0.726255476474762 2.6145195960998535, 1.3072597980499268 l-0.5810043588280678, 0.5810043588280678 -6.10054612159729, 0.14525108970701694 l0.14525108970701694, 3.63127738237381 2.7597707509994507, 4.502783715724945 l0.0, 0.726255476474762 -2.7597707509994507, 1.5977619588375092 l-0.5810043588280678, 1.5977619588375092 0.4357532784342766, 0.726255476474762 l3.3407750725746155, 1.7430131137371063 4.938537180423737, 1.1620087176561356 l-2.905021905899048, -0.4357532784342766 0.0, 0.8715065568685532 l3.050273060798645, 1.7430131137371063 8.86031687259674, 2.178766429424286 l1.0167576372623444, -0.5810043588280678 0.5810043588280678, -2.6145195960998535 l-0.4357532784342766, -4.212281703948975 3.63127738237381, 5.519541501998901 l1.7430131137371063, 1.0167576372623444 0.726255476474762, 0.0 l1.5977619588375092, -2.0335152745246887 1.1620087176561356, -4.357532858848572 l0.2905021794140339, -3.3407750725746155 2.0335152745246887, 4.648034870624542 l1.5977619588375092, 0.4357532784342766 1.3072597980499268, -3.4860262274742126 l0.5810043588280678, -4.357532858848572 -0.14525108970701694, -1.0167576372623444 l0.5810043588280678, 3.050273060798645 1.0167576372623444, -3.050273060798645 l-0.2905021794140339, -9.586572051048279 -6.2457966804504395, 3.3407750725746155 l-0.726255476474762, -0.2905021794140339 3.1955239176750183, -5.08378803730011 l0.2905021794140339, -1.5977619588375092 -0.14525108970701694, -0.726255476474762 l-2.0335152745246887, -1.3072597980499268 -1.8882642686367035, -0.2905021794140339 l-0.5810043588280678, 0.2905021794140339 -0.726255476474762, -1.0167576372623444 l-0.8715065568685532, -4.648034870624542 -4.357532858848572, 2.324017435312271 l-2.6145195960998535, 4.212281703948975 -0.726255476474762, 2.0335152745246887 l-1.5977619588375092, -3.1955239176750183 -0.8715065568685532, 0.0 " fill="none" stroke="black" stroke-width="1" /></svg>