<?xml version="1.0" encoding="utf-8" ?>
<svg baseProfile="full" height="71.00545889697969" version="1.1" width="90.61435556039214" xmlns="http://www.w3.org/2000/svg" xmlns:ev="http://www.w3.org/2001/xml-events" xmlns:xlink="http://www.w3.org/1999/xlink"><defs /><rect fill="white" height="71.00545889697969" width="90.61435556039214" x="0" y="0" /><path d="M31.435698810964823, 20.977620584890246 m-2.178766429424286, -4.502783715724945 l-4.067030549049377, -5.374290347099304 -0.5810043588280678, 1.452510952949524 l0.2905021794140339, 9.150818586349487 -1.0167576372623444, 0.14525108970701694 l-9.441320896148682, -5.6647926568984985 -2.905021905899048, -0.726255476474762 l-1.8882642686367035, 6.972052454948425 -1.1620087176561356, 7.988809943199158 l-2.7597707509994507, -1.8882642686367035 -0.726255476474762, 0.0 l0.0, 0.8715065568685532 1.5977619588375092, 5.810043811798096 l1.7430131137371063, 2.6145195960998535 1.0167576372623444, 1.3072597980499268 l4.793286025524139, 2.905021905899048 -1.452510952949524, -1.0167576372623444 l-1.7430131137371063, -0.14525108970701694 -0.2905021794140339, 1.5977619588375092 l6.826801300048828, 3.050273060798645 6.391047835350037, 4.067030549049377 l1.1620087176561356, 1.3072597980499268 1.5977619588375092, 5.955294966697693 l1.5977619588375092, -4.212281703948975 1.8882642686367035, -1.8882642686367035 l1.8882642686367035, -0.8715065568685532 0.2905021794140339, 2.6145195960998535 l1.5977619588375092, 5.08378803730011 1.3072597980499268, 2.6145195960998535 l1.452510952949524, 1.7430131137371063 3.050273060798645, 0.4357532784342766 l3.050273060798645, -5.08378803730011 0.4357532784342766, 3.1955239176750183 l1.1620087176561356, 3.4860262274742126 1.452510952949524, 1.1620087176561356 l2.178766429424286, 0.8715065568685532 3.776528537273407, 0.0 l14.234607219696045, -7.8435587882995605 -1.8882642686367035, 0.0 l-0.726255476474762, -0.2905021794140339 -0.2905021794140339, -0.8715065568685532 l0.4357532784342766, -1.1620087176561356 2.4692685902118683, -1.7430131137371063 l13.798853158950806, -4.938537180423737 3.1955239176750183, -1.3072597980499268 l2.6145195960998535, -1.7430131137371063 -0.2905021794140339, -0.8715065568685532 l-2.324017435312271, -0.8715065568685532 -16.12287163734436, -2.905021905899048 l-3.4860262274742126, -1.0167576372623444 -0.2905021794140339, -0.8715065568685532 l1.8882642686367035, -2.6145195960998535 1.3072597980499268, -4.502783715724945 l-0.726255476474762, -0.14525108970701694 -2.0335152745246887, 0.726255476474762 l0.4357532784342766, -1.0167576372623444 0.4357532784342766, -10.893832445144653 l-0.726255476474762, 2.0335152745246887 -0.726255476474762, 0.4357532784342766 l-8.42456340789795, -8.42456340789795 -12.20109224319458, -8.134061098098755 l-4.357532858848572, -2.0335152745246887 -2.4692685902118683, 0.14525108970701694 l-0.726255476474762, 1.0167576372623444 -0.2905021794140339, 3.63127738237381 l3.050273060798645, -1.5977619588375092 0.14525108970701694, 2.0335152745246887 l-2.7597707509994507, 4.793286025524139 -1.3072597980499268, -1.0167576372623444 m7.407805919647217, 11.474835872650146 l-1.1620087176561356, 0.2905021794140339 -1.7430131137371063, 1.5977619588375092 l-2.7597707509994507, 5.08378803730011 -1.1620087176561356, 5.229039192199707 l0.0, 2.905021905899048 0.4357532784342766, 0.726255476474762 l2.6145195960998535, 1.3072597980499268 5.6647926568984985, 0.0 l2.324017435312271, -1.0167576372623444 2.7597707509994507, -2.4692685902118683 l4.357532858848572, -2.7597707509994507 0.5810043588280678, -1.0167576372623444 l-0.14525108970701694, -0.726255476474762 -2.7597707509994507, -3.9217793941497803 l-3.776528537273407, -2.4692685902118683 -4.212281703948975, -1.452510952949524 l-4.212281703948975, -0.14525108970701694 m3.4860262274742126, 4.067030549049377 l0.2905021794140339, 0.2905021794140339 m4.212281703948975, 1.8882642686367035 l-0.5810043588280678, 0.0 m-4.067030549049377, 5.229039192199707 l0.0, 0.726255476474762 2.6145195960998535, 0.5810043588280678 l1.5977619588375092, -1.1620087176561356 0.5810043588280678, -1.5977619588375092 l-0.8715065568685532, -0.5810043588280678 -3.63127738237381, 0.2905021794140339 " fill="none" stroke="black" stroke-width="1" /></svg>