<?xml version="1.0" encoding="utf-8" ?>
<svg baseProfile="full" height="33.675928162410855" version="1.1" width="41.80998877622187" xmlns="http://www.w3.org/2000/svg" xmlns:ev="http://www.w3.org/2001/xml-events" xmlns:xlink="http://www.w3.org/1999/xlink"><defs /><rect fill="white" height="33.675928162410855" width="41.80998877622187" x="0" y="0" /><path d="M7.905021598562598, 13.569814646616578 m-2.4692685902118683, -3.4860262274742126 l5.229039192199707, 0.5810043588280678 0.2905021794140339, -2.905021905899048 l1.8882642686367035, 2.178766429424286 1.452510952949524, 0.4357532784342766 l2.0335152745246887, -0.14525108970701694 2.4692685902118683, -1.452510952949524 l4.502783715724945, -3.776528537273407 0.5810043588280678, 0.726255476474762 l-1.0167576372623444, 2.4692685902118683 1.1620087176561356, 0.4357532784342766 l4.357532858848572, 0.14525108970701694 3.776528537273407, 1.8882642686367035 l0.8715065568685532, 0.8715065568685532 0.0, 0.726255476474762 l-2.4692685902118683, 2.6145195960998535 -0.5810043588280678, 1.7430131137371063 l5.08378803730011, 1.3072597980499268 1.7430131137371063, 0.8715065568685532 l-0.4357532784342766, 0.726255476474762 -3.1955239176750183, 1.8882642686367035 l-0.5810043588280678, 1.0167576372623444 0.4357532784342766, 1.452510952949524 l-0.726255476474762, 0.8715065568685532 -3.3407750725746155, 1.452510952949524 l-0.2905021794140339, 1.1620087176561356 -2.324017435312271, -1.452510952949524 l-1.8882642686367035, -2.0335152745246887 -5.08378803730011, 4.793286025524139 l-3.9217793941497803, -1.0167576372623444 -1.0167576372623444, -1.452510952949524 l-0.726255476474762, -0.14525108970701694 -3.63127738237381, 1.0167576372623444 l-0.8715065568685532, -0.726255476474762 -0.14525108970701694, -1.5977619588375092 l2.6145195960998535, -1.7430131137371063 -5.229039192199707, -0.4357532784342766 l-0.2905021794140339, -3.1955239176750183 -1.1620087176561356, -2.4692685902118683 l1.1620087176561356, -1.5977619588375092 0.0, -0.726255476474762 l0.726255476474762, -0.5810043588280678 -0.14525108970701694, -0.8715065568685532 l1.3072597980499268, -0.14525108970701694 m2.324017435312271, 0.726255476474762 l4.938537180423737, -0.5810043588280678 6.2457966804504395, 0.14525108970701694 l3.63127738237381, 2.905021905899048 0.726255476474762, 3.63127738237381 l-2.6145195960998535, 3.3407750725746155 -6.826801300048828, 1.0167576372623444 l-1.7430131137371063, 0.0 -3.1955239176750183, -1.7430131137371063 l-0.8715065568685532, -1.0167576372623444 -0.8715065568685532, -2.7597707509994507 l0.0, -4.938537180423737 m2.324017435312271, 2.178766429424286 l0.0, 0.14525108970701694 m3.1955239176750183, 0.4357532784342766 l0.0, -0.14525108970701694 " fill="none" stroke="black" stroke-width="1" /></svg>