<?xml version="1.0" encoding="utf-8" ?>
<svg baseProfile="full" height="87.12832965888083" version="1.1" width="85.38531677797437" xmlns="http://www.w3.org/2000/svg" xmlns:ev="http://www.w3.org/2001/xml-events" xmlns:xlink="http://www.w3.org/1999/xlink"><defs /><rect fill="white" height="87.12832965888083" width="85.38531677797437" x="0" y="0" /><path d="M29.547434141859412, 48.43007793650031 m-0.14525108970701694, 5.229039192199707 l-1.5977619588375092, 1.3072597980499268 -1.7430131137371063, 0.2905021794140339 l-1.3072597980499268, -4.357532858848572 m4.648034870624542, -2.4692685902118683 l-0.14525108970701694, 2.905021905899048 1.7430131137371063, 4.212281703948975 l2.6145195960998535, 2.4692685902118683 2.324017435312271, 0.8715065568685532 l0.726255476474762, -0.2905021794140339 1.0167576372623444, -3.776528537273407 l-0.14525108970701694, -5.955294966697693 m-7.698307633399963, -0.8715065568685532 l-0.8715065568685532, 0.5810043588280678 -0.726255476474762, -0.14525108970701694 l-0.8715065568685532, -1.0167576372623444 -3.050273060798645, -4.502783715724945 l0.726255476474762, -0.5810043588280678 0.8715065568685532, 0.0 l0.5810043588280678, 0.726255476474762 0.8715065568685532, 3.1955239176750183 l1.8882642686367035, -3.776528537273407 0.8715065568685532, -0.726255476474762 l3.1955239176750183, -1.0167576372623444 0.4357532784342766, 0.726255476474762 l0.0, 2.6145195960998535 -1.7430131137371063, 2.4692685902118683 l-3.776528537273407, 3.1955239176750183 -2.0335152745246887, 0.5810043588280678 m-2.178766429424286, -14.960862398147583 l0.5810043588280678, 0.726255476474762 -0.726255476474762, 0.5810043588280678 l-0.726255476474762, -0.726255476474762 m7.988809943199158, 0.14525108970701694 l0.726255476474762, 0.0 -0.8715065568685532, 0.4357532784342766 m-10.893832445144653, -5.229039192199707 l0.726255476474762, -0.726255476474762 2.7597707509994507, -1.1620087176561356 l1.5977619588375092, -0.14525108970701694 0.726255476474762, 0.14525108970701694 l2.0335152745246887, 2.178766429424286 8.569814562797546, 0.2905021794140339 l3.3407750725746155, 4.212281703948975 4.067030549049377, 1.8882642686367035 l0.726255476474762, 9.731823205947876 0.8715065568685532, 2.7597707509994507 l1.452510952949524, 1.5977619588375092 0.14525108970701694, 1.0167576372623444 l-2.6145195960998535, 4.793286025524139 -1.3072597980499268, 1.452510952949524 l-0.5810043588280678, 2.324017435312271 -0.5810043588280678, 0.726255476474762 l-3.1955239176750183, 1.452510952949524 -3.4860262274742126, 0.726255476474762 l-3.1955239176750183, -3.050273060798645 -1.5977619588375092, -0.8715065568685532 l-4.357532858848572, 1.1620087176561356 -3.63127738237381, 0.0 l-1.5977619588375092, -0.726255476474762 -1.5977619588375092, -5.6647926568984985 l0.14525108970701694, -17.430131435394287 -0.5810043588280678, -2.905021905899048 l1.1620087176561356, -3.3407750725746155 m-4.648034870624542, -13.217849731445312 l0.4357532784342766, -2.324017435312271 2.324017435312271, -4.793286025524139 l3.1955239176750183, -2.0335152745246887 7.988809943199158, -3.776528537273407 l4.212281703948975, -0.5810043588280678 0.8715065568685532, 0.8715065568685532 l1.8882642686367035, 5.229039192199707 1.452510952949524, 1.5977619588375092 l3.050273060798645, -1.0167576372623444 8.715065717697144, -4.648034870624542 l4.938537180423737, -0.4357532784342766 2.324017435312271, 1.5977619588375092 l4.212281703948975, 7.407805919647217 1.5977619588375092, 1.7430131137371063 l7.407805919647217, 0.726255476474762 0.0, 1.5977619588375092 l-3.9217793941497803, 3.776528537273407 -0.14525108970701694, 2.905021905899048 l1.452510952949524, 2.0335152745246887 2.4692685902118683, 1.8882642686367035 l10.312827825546265, 6.391047835350037 0.14525108970701694, 2.178766429424286 l-1.3072597980499268, 2.178766429424286 -8.279312252998352, 9.441320896148682 l0.2905021794140339, 1.7430131137371063 2.905021905899048, 5.6647926568984985 l0.5810043588280678, 2.905021905899048 0.0, 4.067030549049377 l-1.0167576372623444, 2.324017435312271 -1.8882642686367035, 2.0335152745246887 l-3.1955239176750183, 1.5977619588375092 -13.94410490989685, 3.1955239176750183 l-0.5810043588280678, 3.1955239176750183 -1.452510952949524, 2.6145195960998535 l-1.5977619588375092, 1.5977619588375092 -1.7430131137371063, 0.5810043588280678 l-3.776528537273407, 0.14525108970701694 -9.150818586349487, -2.0335152745246887 l-6.681550145149231, -0.8715065568685532 -3.1955239176750183, -1.0167576372623444 l-8.86031687259674, -1.0167576372623444 -2.6145195960998535, -1.452510952949524 l-3.776528537273407, -4.502783715724945 -5.519541501998901, 0.5810043588280678 l-0.5810043588280678, -1.3072597980499268 0.726255476474762, -11.184333562850952 l-0.14525108970701694, -20.480403900146484 4.938537180423737, -7.1173036098480225 l2.6145195960998535, -5.6647926568984985 2.0335152745246887, -1.7430131137371063 l0.14525108970701694, -3.3407750725746155 -2.0335152745246887, -3.63127738237381 l0.14525108970701694, -0.726255476474762 1.452510952949524, -1.3072597980499268 " fill="none" stroke="black" stroke-width="1" /></svg>