<?xml version="1.0" encoding="utf-8" ?>
<svg baseProfile="full" height="61.70938869006932" version="1.1" width="138.1114638224244" xmlns="http://www.w3.org/2000/svg" xmlns:ev="http://www.w3.org/2001/xml-events" xmlns:xlink="http://www.w3.org/1999/xlink"><defs /><rect fill="white" height="61.70938869006932" width="138.1114638224244" x="0" y="0" /><path d="M27.804422518238425, 23.15638668835163 m-5.08378803730011, 2.6145195960998535 l-5.08378803730011, 0.0 -2.178766429424286, -0.4357532784342766 l-1.7430131137371063, -0.726255476474762 -0.2905021794140339, -0.726255476474762 l2.905021905899048, -2.905021905899048 2.324017435312271, -1.1620087176561356 l3.63127738237381, -3.050273060798645 2.7597707509994507, -1.5977619588375092 m-1.0167576372623444, -0.5810043588280678 l-1.0167576372623444, -1.3072597980499268 -0.726255476474762, -8.279312252998352 l2.178766429424286, 5.08378803730011 0.726255476474762, 3.050273060798645 m-7.26255476474762, 7.698307633399963 l-0.14525108970701694, 3.776528537273407 m2.905021905899048, -5.955294966697693 l0.14525108970701694, 5.08378803730011 m2.7597707509994507, 0.0 l5.08378803730011, -1.1620087176561356 0.2905021794140339, 2.905021905899048 l-0.14525108970701694, 2.4692685902118683 -1.0167576372623444, 3.776528537273407 l-2.905021905899048, 7.26255476474762 -2.905021905899048, 11.329585313796997 l0.0, 2.4692685902118683 3.3407750725746155, 0.2905021794140339 l1.5977619588375092, -1.3072597980499268 7.407805919647217, -11.620087623596191 l0.14525108970701694, 1.8882642686367035 -2.324017435312271, 4.502783715724945 l-1.0167576372623444, 6.391047835350037 4.067030549049377, 0.0 l2.6145195960998535, -4.212281703948975 m4.648034870624542, -8.279312252998352 l0.14525108970701694, -0.14525108970701694 m-4.793286025524139, 7.407805919647217 l2.0335152745246887, -2.178766429424286 2.324017435312271, -3.63127738237381 l1.5977619588375092, -0.5810043588280678 11.184333562850952, 0.0 l10.02232551574707, 1.8882642686367035 9.731823205947876, 0.726255476474762 l4.938537180423737, 1.0167576372623444 0.0, 1.452510952949524 l-2.324017435312271, 5.519541501998901 -0.5810043588280678, 2.4692685902118683 l0.0, 0.726255476474762 1.8882642686367035, 0.0 l2.0335152745246887, -1.0167576372623444 3.050273060798645, -2.905021905899048 l2.178766429424286, -6.681550145149231 0.5810043588280678, 1.3072597980499268 l0.0, 1.452510952949524 -2.6145195960998535, 5.519541501998901 l-0.4357532784342766, 3.050273060798645 1.5977619588375092, 0.8715065568685532 l2.6145195960998535, -0.14525108970701694 1.452510952949524, -0.8715065568685532 l1.1620087176561356, -1.7430131137371063 1.3072597980499268, -12.636845111846924 l3.776528537273407, -5.955294966697693 5.374290347099304, -5.955294966697693 l2.7597707509994507, -2.324017435312271 2.4692685902118683, -1.0167576372623444 l2.7597707509994507, 0.0 6.391047835350037, 2.0335152745246887 l12.782095670700073, 1.5977619588375092 3.776528537273407, -0.726255476474762 l1.452510952949524, -2.324017435312271 0.0, -0.8715065568685532 l-3.3407750725746155, -1.452510952949524 -19.754148721694946, -2.7597707509994507 l-8.42456340789795, -1.8882642686367035 -6.681550145149231, -3.63127738237381 l-4.938537180423737, -1.8882642686367035 -2.178766429424286, -1.452510952949524 l-8.569814562797546, -2.178766429424286 -4.067030549049377, 0.0 l-9.877074360847473, -1.0167576372623444 -20.480403900146484, 0.0 l-8.86031687259674, 3.1955239176750183 -11.620087623596191, 2.324017435312271 m-5.374290347099304, 5.08378803730011 l-0.14525108970701694, 2.7597707509994507 m0.2905021794140339, -0.5810043588280678 l-0.2905021794140339, 2.324017435312271 m1.8882642686367035, -3.4860262274742126 l-0.4357532784342766, 2.4692685902118683 m-0.2905021794140339, -2.6145195960998535 l-0.4357532784342766, 1.0167576372623444 m-0.8715065568685532, -1.5977619588375092 l-1.5977619588375092, 2.324017435312271 m-0.14525108970701694, -0.726255476474762 l-0.4357532784342766, 1.0167576372623444 m-2.6145195960998535, 0.8715065568685532 l-1.7430131137371063, 1.7430131137371063 -4.067030549049377, 2.4692685902118683 l-2.4692685902118683, 0.14525108970701694 -0.5810043588280678, -1.0167576372623444 l0.14525108970701694, -2.324017435312271 2.178766429424286, -2.0335152745246887 l0.8715065568685532, 0.0 " fill="none" stroke="black" stroke-width="1" /></svg>