<?xml version="1.0" encoding="utf-8" ?>
<svg baseProfile="full" height="43.98875519633293" version="1.1" width="45.586517825722694" xmlns="http://www.w3.org/2000/svg" xmlns:ev="http://www.w3.org/2001/xml-events" xmlns:xlink="http://www.w3.org/1999/xlink"><defs /><rect fill="white" height="43.98875519633293" width="45.586517825722694" x="0" y="0" /><path d="M21.70387525111437, 16.910589206963778 m-2.0335152745246887, 0.8715065568685532 l-1.5977619588375092, 1.3072597980499268 -1.0167576372623444, 2.6145195960998535 l0.0, 3.3407750725746155 1.5977619588375092, 4.067030549049377 l2.178766429424286, 1.8882642686367035 2.905021905899048, 0.5810043588280678 l3.050273060798645, -1.0167576372623444 1.8882642686367035, -2.0335152745246887 l1.1620087176561356, -5.229039192199707 -1.0167576372623444, -2.4692685902118683 l-3.3407750725746155, -2.324017435312271 -3.1955239176750183, -0.726255476474762 l-1.3072597980499268, 0.2905021794140339 m-4.793286025524139, -6.2457966804504395 l2.0335152745246887, -4.067030549049377 1.7430131137371063, -1.7430131137371063 l2.905021905899048, -1.0167576372623444 1.452510952949524, 0.726255476474762 l0.2905021794140339, 0.726255476474762 -0.4357532784342766, 5.08378803730011 l1.452510952949524, 0.0 3.050273060798645, -1.3072597980499268 l3.63127738237381, -0.726255476474762 2.6145195960998535, 0.4357532784342766 l0.5810043588280678, 0.726255476474762 -0.14525108970701694, 2.4692685902118683 l-2.4692685902118683, 5.374290347099304 0.14525108970701694, 0.5810043588280678 l3.1955239176750183, -0.8715065568685532 2.4692685902118683, 0.0 l1.5977619588375092, 1.1620087176561356 0.2905021794140339, 2.6145195960998535 l-1.452510952949524, 5.229039192199707 -2.178766429424286, 2.905021905899048 l0.5810043588280678, 0.0 0.2905021794140339, 0.8715065568685532 l-2.7597707509994507, 2.6145195960998535 -2.905021905899048, 2.0335152745246887 l-2.324017435312271, 0.8715065568685532 -1.3072597980499268, -0.2905021794140339 l-8.279312252998352, 2.4692685902118683 -2.905021905899048, 0.2905021794140339 l-1.3072597980499268, -0.8715065568685532 -0.4357532784342766, -2.4692685902118683 l-1.3072597980499268, -0.14525108970701694 -3.4860262274742126, 0.2905021794140339 l-0.726255476474762, -0.2905021794140339 -0.2905021794140339, -1.7430131137371063 l1.5977619588375092, -4.648034870624542 -1.452510952949524, -0.5810043588280678 l-2.905021905899048, 0.2905021794140339 -2.0335152745246887, -0.14525108970701694 l0.0, -1.7430131137371063 3.4860262274742126, -7.988809943199158 l-2.178766429424286, 0.0 0.14525108970701694, -0.5810043588280678 l4.502783715724945, -4.357532858848572 3.776528537273407, -2.324017435312271 l2.905021905899048, -0.8715065568685532 m2.4692685902118683, 13.798853158950806 l0.0, 0.0 m5.08378803730011, -0.726255476474762 l0.0, 0.0 m-2.905021905899048, 6.826801300048828 l0.14525108970701694, 0.0 m2.6145195960998535, -1.0167576372623444 l0.2905021794140339, -0.2905021794140339 " fill="none" stroke="black" stroke-width="1" /></svg>