<?xml version="1.0" encoding="utf-8" ?>
<svg baseProfile="full" height="53.86582925915718" version="1.1" width="120.53608102723956" xmlns="http://www.w3.org/2000/svg" xmlns:ev="http://www.w3.org/2001/xml-events" xmlns:xlink="http://www.w3.org/1999/xlink"><defs /><rect fill="white" height="53.86582925915718" width="120.53608102723956" x="0" y="0" /><path d="M47.994323167949915, 17.927347291260958 m-4.357532858848572, -0.4357532784342766 l-1.5977619588375092, -0.726255476474762 -0.8715065568685532, -1.3072597980499268 l0.2905021794140339, -3.4860262274742126 1.0167576372623444, -3.63127738237381 l0.0, -1.0167576372623444 -0.8715065568685532, -0.4357532784342766 l-3.4860262274742126, -0.8715065568685532 -6.972052454948425, -0.726255476474762 l-12.34634280204773, -0.2905021794140339 -2.905021905899048, 0.726255476474762 l-5.374290347099304, 3.050273060798645 -1.5977619588375092, 2.324017435312271 l-1.1620087176561356, 3.3407750725746155 0.4357532784342766, 5.374290347099304 l2.905021905899048, 6.2457966804504395 2.7597707509994507, 3.776528537273407 l4.212281703948975, 3.3407750725746155 15.977619886398315, 9.296069741249084 l3.4860262274742126, 0.0 3.4860262274742126, -5.955294966697693 l3.4860262274742126, -8.134061098098755 13.363100290298462, 2.6145195960998535 l0.14525108970701694, 17.86588430404663 0.726255476474762, -11.620087623596191 l-1.1620087176561356, -6.826801300048828 0.8715065568685532, -0.2905021794140339 l12.34634280204773, 1.5977619588375092 11.620087623596191, 0.2905021794140339 l5.955294966697693, 0.726255476474762 0.4357532784342766, 3.1955239176750183 l0.14525108970701694, 11.474835872650146 0.0, -15.106114149093628 l0.726255476474762, -0.5810043588280678 11.039083003997803, -0.726255476474762 l3.3407750725746155, -1.0167576372623444 4.502783715724945, -2.178766429424286 l3.4860262274742126, -2.178766429424286 2.178766429424286, -2.0335152745246887 l1.3072597980499268, -6.391047835350037 -0.2905021794140339, -0.726255476474762 l-1.452510952949524, 0.14525108970701694 -5.6647926568984985, 2.905021905899048 l-3.9217793941497803, 2.6145195960998535 -2.905021905899048, 1.0167576372623444 l-7.988809943199158, 0.726255476474762 -26.29044771194458, -0.4357532784342766 l-7.988809943199158, -1.7430131137371063 -5.955294966697693, -2.178766429424286 l-6.826801300048828, -1.5977619588375092 m-5.374290347099304, -1.3072597980499268 l0.8715065568685532, 0.0 0.0, 5.519541501998901 l0.4357532784342766, 2.178766429424286 2.7597707509994507, 5.810043811798096 m-28.46921443939209, -18.301637172698975 l-11.474835872650146, 0.2905021794140339 10.02232551574707, -0.14525108970701694 l-5.229039192199707, 0.8715065568685532 5.374290347099304, 0.0 m-1.0167576372623444, 7.26255476474762 l0.5810043588280678, 3.1955239176750183 2.6145195960998535, 5.08378803730011 l3.1955239176750183, 1.7430131137371063 1.3072597980499268, 0.0 l7.698307633399963, -3.1955239176750183 4.067030549049377, -4.648034870624542 l0.2905021794140339, -1.7430131137371063 -1.3072597980499268, -1.0167576372623444 m-11.184333562850952, 7.698307633399963 l0.5810043588280678, 4.648034870624542 0.726255476474762, 0.5810043588280678 l3.63127738237381, 0.5810043588280678 1.452510952949524, -1.8882642686367035 l0.8715065568685532, -4.648034870624542 -0.2905021794140339, -2.905021905899048 l-0.5810043588280678, 0.5810043588280678 m-2.0335152745246887, 3.776528537273407 l-0.726255476474762, 2.0335152745246887 " fill="none" stroke="black" stroke-width="1" /></svg>