<?xml version="1.0" encoding="utf-8" ?>
<svg baseProfile="full" height="69.84344778582454" version="1.1" width="120.10032946243882" xmlns="http://www.w3.org/2000/svg" xmlns:ev="http://www.w3.org/2001/xml-events" xmlns:xlink="http://www.w3.org/1999/xlink"><defs /><rect fill="white" height="69.84344778582454" width="120.10032946243882" x="0" y="0" /><path d="M10.81004362553358, 20.541867008432746 m-0.5810043588280678, 1.7430131137371063 l-2.7597707509994507, 4.357532858848572 -1.1620087176561356, 3.3407750725746155 l-1.3072597980499268, 5.374290347099304 0.0, 5.08378803730011 l0.5810043588280678, 1.452510952949524 2.0335152745246887, 1.5977619588375092 l4.357532858848572, 1.0167576372623444 5.08378803730011, 0.14525108970701694 l3.3407750725746155, -0.8715065568685532 3.9217793941497803, -2.4692685902118683 l2.178766429424286, -2.178766429424286 1.0167576372623444, -2.7597707509994507 l-0.2905021794140339, -3.9217793941497803 -2.7597707509994507, -4.067030549049377 l-3.63127738237381, -2.7597707509994507 -4.067030549049377, -5.374290347099304 l-1.8882642686367035, -1.7430131137371063 m-6.681550145149231, 1.5977619588375092 l-1.452510952949524, -6.826801300048828 m8.279312252998352, 5.6647926568984985 l1.0167576372623444, -7.988809943199158 2.905021905899048, -5.955294966697693 m4.648034870624542, 12.927347421646118 l1.7430131137371063, -2.905021905899048 4.212281703948975, -3.050273060798645 m-8.42456340789795, 16.994377374649048 l-0.4357532784342766, -1.452510952949524 0.2905021794140339, -2.7597707509994507 l1.3072597980499268, -2.7597707509994507 1.7430131137371063, -2.6145195960998535 l3.776528537273407, -3.3407750725746155 m-19.754148721694946, 28.1787109375 l3.63127738237381, 8.715065717697144 0.726255476474762, 0.2905021794140339 l0.4357532784342766, -2.7597707509994507 m0.5810043588280678, -5.08378803730011 l1.0167576372623444, 3.776528537273407 1.452510952949524, 2.7597707509994507 l0.726255476474762, 0.5810043588280678 m0.4357532784342766, -7.1173036098480225 l0.0, 0.8715065568685532 0.5810043588280678, 0.726255476474762 l4.067030549049377, 1.452510952949524 m0.726255476474762, -6.10054612159729 l1.5977619588375092, 4.212281703948975 2.324017435312271, 2.7597707509994507 m0.4357532784342766, -14.234607219696045 l2.905021905899048, 7.698307633399963 m-22.949671745300293, -14.670360088348389 l1.0167576372623444, 0.14525108970701694 m7.26255476474762, 1.0167576372623444 l1.3072597980499268, 0.0 m-4.648034870624542, 2.324017435312271 l0.0, 1.3072597980499268 m-0.4357532784342766, 2.905021905899048 l5.229039192199707, -0.14525108970701694 m7.26255476474762, -11.620087623596191 l5.810043811798096, -2.324017435312271 8.569814562797546, -0.8715065568685532 l8.279312252998352, 0.14525108970701694 6.972052454948425, 1.1620087176561356 l11.039083003997803, 4.648034870624542 6.536298990249634, 3.9217793941497803 l9.296069741249084, 3.776528537273407 3.3407750725746155, 2.0335152745246887 l1.3072597980499268, 1.452510952949524 0.0, 1.452510952949524 l-1.1620087176561356, 0.0 m-58.971943855285645, -1.1620087176561356 l2.324017435312271, 1.7430131137371063 9.877074360847473, 4.648034870624542 l10.748580694198608, 3.9217793941497803 8.134061098098755, 1.7430131137371063 l6.826801300048828, 0.0 9.441320896148682, -3.050273060798645 l20.916156768798828, -9.586572051048279 1.5977619588375092, -0.8715065568685532 l-0.726255476474762, -0.14525108970701694 m-66.81550025939941, 5.374290347099304 l0.5810043588280678, 20.916156768798828 0.4357532784342766, 1.8882642686367035 m6.826801300048828, -19.754148721694946 l0.8715065568685532, 9.731823205947876 1.8882642686367035, 8.569814562797546 m26.29044771194458, -14.52510952949524 l0.726255476474762, 1.1620087176561356 1.7430131137371063, 9.441320896148682 m10.458078384399414, -11.474835872650146 l2.4692685902118683, 11.620087623596191 0.2905021794140339, 4.502783715724945 m2.6145195960998535, -28.614466190338135 l3.1955239176750183, -2.0335152745246887 5.955294966697693, -2.0335152745246887 l4.357532858848572, -0.726255476474762 6.10054612159729, 0.14525108970701694 l1.7430131137371063, 0.8715065568685532 2.324017435312271, 5.374290347099304 l2.7597707509994507, 2.905021905899048 3.9217793941497803, 1.0167576372623444 l2.4692685902118683, 0.0 -4.212281703948975, 0.5810043588280678 l-4.648034870624542, 0.0 -2.324017435312271, -1.5977619588375092 l-1.3072597980499268, -3.050273060798645 -2.0335152745246887, -1.3072597980499268 l-3.63127738237381, -0.726255476474762 -1.452510952949524, 0.0 l-3.63127738237381, 1.452510952949524 -10.16757607460022, 2.324017435312271 " fill="none" stroke="black" stroke-width="1" /></svg>