<?xml version="1.0" encoding="utf-8" ?>
<svg baseProfile="full" height="58.07811291888356" version="1.1" width="76.23449830338359" xmlns="http://www.w3.org/2000/svg" xmlns:ev="http://www.w3.org/2001/xml-events" xmlns:xlink="http://www.w3.org/1999/xlink"><defs /><rect fill="white" height="58.07811291888356" width="76.23449830338359" x="0" y="0" /><path d="M9.793285029008985, 18.65360696800053 m-0.5810043588280678, 4.502783715724945 l0.14525108970701694, 10.748580694198608 2.324017435312271, 13.072597980499268 m8.569814562797546, -28.1787109375 l-0.726255476474762, 24.11168098449707 m12.491593360900879, -25.418941974639893 l-1.7430131137371063, 15.541867017745972 -1.1620087176561356, 5.6647926568984985 m16.413373947143555, -22.659170627593994 l-1.0167576372623444, 8.715065717697144 -0.2905021794140339, 11.76533818244934 m-39.2177939414978, -15.832369327545166 l5.6647926568984985, -2.905021905899048 6.826801300048828, -4.938537180423737 l7.1173036098480225, -2.905021905899048 2.7597707509994507, -0.4357532784342766 l19.318394660949707, -0.14525108970701694 3.776528537273407, 0.8715065568685532 l1.5977619588375092, 0.726255476474762 1.5977619588375092, 1.452510952949524 l0.4357532784342766, 2.324017435312271 -1.5977619588375092, 1.3072597980499268 l-2.0335152745246887, 1.0167576372623444 -5.6647926568984985, 1.3072597980499268 l-6.10054612159729, 0.14525108970701694 -12.20109224319458, -1.0167576372623444 l-3.3407750725746155, 0.14525108970701694 -3.050273060798645, 0.726255476474762 l-5.519541501998901, 2.324017435312271 -6.826801300048828, 5.229039192199707 m57.66468524932861, -13.508352041244507 l0.4357532784342766, -1.7430131137371063 -0.5810043588280678, -1.7430131137371063 l-0.726255476474762, -0.8715065568685532 -2.4692685902118683, -1.1620087176561356 l-3.1955239176750183, -0.14525108970701694 -1.3072597980499268, 0.4357532784342766 l-2.0335152745246887, 1.7430131137371063 -0.8715065568685532, 1.452510952949524 l-0.4357532784342766, 1.452510952949524 0.0, 4.793286025524139 l1.1620087176561356, 2.4692685902118683 3.63127738237381, 3.776528537273407 l2.6145195960998535, 0.14525108970701694 3.9217793941497803, -5.374290347099304 l2.178766429424286, -4.793286025524139 0.5810043588280678, -7.8435587882995605 m-15.106114149093628, 2.4692685902118683 l-0.14525108970701694, 4.502783715724945 0.5810043588280678, 4.938537180423737 l0.726255476474762, 2.4692685902118683 0.2905021794140339, -2.6145195960998535 l0.0, -7.8435587882995605 -1.452510952949524, 4.793286025524139 l-0.2905021794140339, 6.391047835350037 1.8882642686367035, -11.76533818244934 l0.0, -1.1620087176561356 -1.1620087176561356, 2.0335152745246887 l-1.452510952949524, 5.810043811798096 0.2905021794140339, 6.536298990249634 l0.726255476474762, 1.1620087176561356 1.0167576372623444, 0.4357532784342766 l0.726255476474762, -1.0167576372623444 0.726255476474762, -3.050273060798645 l0.14525108970701694, -6.681550145149231 m-3.63127738237381, 40.67030429840088 m0.0, 0.0 l0.14525108970701694, -41.25131130218506 m2.6145195960998535, 5.810043811798096 l1.1620087176561356, 2.7597707509994507 4.502783715724945, 4.793286025524139 l1.1620087176561356, 0.5810043588280678 0.8715065568685532, -0.4357532784342766 l0.0, -0.8715065568685532 m-5.08378803730011, -6.826801300048828 l-1.452510952949524, 0.726255476474762 0.14525108970701694, 5.810043811798096 l1.1620087176561356, 1.8882642686367035 1.3072597980499268, 0.2905021794140339 l1.1620087176561356, -0.4357532784342766 0.14525108970701694, -1.0167576372623444 l0.0, -2.0335152745246887 -1.0167576372623444, -1.5977619588375092 l-1.1620087176561356, -0.8715065568685532 -1.5977619588375092, -0.14525108970701694 l-0.4357532784342766, 1.1620087176561356 0.2905021794140339, 2.6145195960998535 l2.324017435312271, 2.178766429424286 1.0167576372623444, 0.0 l0.2905021794140339, -1.8882642686367035 -0.2905021794140339, -2.324017435312271 l-1.1620087176561356, -1.452510952949524 -2.0335152745246887, -1.0167576372623444 l-0.8715065568685532, 0.2905021794140339 0.0, 2.4692685902118683 l0.2905021794140339, 1.452510952949524 1.3072597980499268, 2.178766429424286 l0.8715065568685532, 0.5810043588280678 1.452510952949524, 0.14525108970701694 l-0.2905021794140339, -1.1620087176561356 -3.776528537273407, -5.6647926568984985 l-1.0167576372623444, -0.2905021794140339 -0.14525108970701694, 0.726255476474762 l3.050273060798645, 1.7430131137371063 5.810043811798096, 2.178766429424286 l2.0335152745246887, 0.2905021794140339 -3.1955239176750183, -0.726255476474762 l1.452510952949524, 1.5977619588375092 1.0167576372623444, 0.4357532784342766 l3.050273060798645, 0.0 1.452510952949524, -1.5977619588375092 l0.14525108970701694, -1.8882642686367035 -1.452510952949524, -1.7430131137371063 l-1.7430131137371063, -0.2905021794140339 0.4357532784342766, 2.7597707509994507 l0.8715065568685532, 0.0 1.0167576372623444, -1.452510952949524 l0.8715065568685532, -3.3407750725746155 0.0, -3.050273060798645 l-2.324017435312271, 6.826801300048828 0.0, -0.726255476474762 l-3.9217793941497803, -0.4357532784342766 -1.452510952949524, 1.7430131137371063 l1.3072597980499268, 0.2905021794140339 1.3072597980499268, -0.4357532784342766 l2.905021905899048, -1.8882642686367035 1.3072597980499268, -1.5977619588375092 l1.8882642686367035, -4.938537180423737 0.2905021794140339, -2.4692685902118683 l-1.7430131137371063, 6.2457966804504395 0.14525108970701694, 2.0335152745246887 l1.0167576372623444, -0.2905021794140339 1.1620087176561356, -3.1955239176750183 l0.4357532784342766, -9.877074360847473 -2.6145195960998535, 3.1955239176750183 l-2.178766429424286, 1.5977619588375092 -1.0167576372623444, 0.14525108970701694 l-0.8715065568685532, -0.8715065568685532 -2.324017435312271, -5.374290347099304 l-1.7430131137371063, -0.14525108970701694 -0.726255476474762, 0.726255476474762 l-1.8882642686367035, 2.6145195960998535 -0.4357532784342766, 1.1620087176561356 l0.726255476474762, 0.2905021794140339 0.14525108970701694, -1.0167576372623444 l-0.726255476474762, -1.452510952949524 -2.0335152745246887, -1.3072597980499268 l-1.1620087176561356, 0.0 -2.7597707509994507, 2.178766429424286 l-0.8715065568685532, 2.0335152745246887 0.0, 1.7430131137371063 l1.0167576372623444, 0.8715065568685532 0.8715065568685532, 0.0 m8.134061098098755, -0.4357532784342766 l0.0, 0.0 m1.7430131137371063, 0.4357532784342766 l0.0, 0.0 m-3.9217793941497803, -0.8715065568685532 l-0.5810043588280678, 0.8715065568685532 0.5810043588280678, 0.4357532784342766 m3.9217793941497803, -1.8882642686367035 l0.2905021794140339, 2.324017435312271 0.726255476474762, 0.14525108970701694 l0.14525108970701694, -0.726255476474762 " fill="none" stroke="black" stroke-width="1" /></svg>