<?xml version="1.0" encoding="utf-8" ?>
<svg baseProfile="full" height="66.50267542339861" version="1.1" width="66.06692074798048" xmlns="http://www.w3.org/2000/svg" xmlns:ev="http://www.w3.org/2001/xml-events" xmlns:xlink="http://www.w3.org/1999/xlink"><defs /><rect fill="white" height="66.50267542339861" width="66.06692074798048" x="0" y="0" /><path d="M26.351910708472133, 20.541865741834044 m-5.6647926568984985, 3.63127738237381 l-3.050273060798645, 2.7597707509994507 -2.324017435312271, 3.776528537273407 l-0.5810043588280678, 4.212281703948975 0.14525108970701694, 5.519541501998901 l1.7430131137371063, 5.374290347099304 2.6145195960998535, 2.7597707509994507 l3.63127738237381, 1.0167576372623444 4.648034870624542, -0.5810043588280678 l1.1620087176561356, -0.2905021794140339 -0.4357532784342766, -0.4357532784342766 m-3.3407750725746155, -28.46921443939209 l6.536298990249634, -2.178766429424286 5.08378803730011, -1.0167576372623444 l3.4860262274742126, 0.14525108970701694 2.7597707509994507, 1.0167576372623444 l1.8882642686367035, 2.4692685902118683 1.452510952949524, 11.76533818244934 l0.0, 4.212281703948975 -0.726255476474762, 4.938537180423737 l-0.4357532784342766, -2.0335152745246887 m-11.184333562850952, 12.782095670700073 l-1.452510952949524, 0.0 -6.391047835350037, -1.7430131137371063 m19.027893543243408, -11.474835872650146 l0.0, 0.726255476474762 -2.324017435312271, 2.6145195960998535 l-3.4860262274742126, 3.3407750725746155 -2.178766429424286, 1.452510952949524 l-7.1173036098480225, 3.050273060798645 -4.793286025524139, 1.1620087176561356 m-0.8715065568685532, -21.351909637451172 l0.0, 2.178766429424286 -1.3072597980499268, 1.7430131137371063 m11.76533818244934, -5.374290347099304 l0.2905021794140339, 4.212281703948975 m-8.86031687259674, 4.212281703948975 l6.681550145149231, -0.2905021794140339 0.726255476474762, 0.4357532784342766 l0.0, 0.8715065568685532 -1.8882642686367035, 3.63127738237381 l-2.178766429424286, 1.7430131137371063 m-4.212281703948975, -6.826801300048828 l3.3407750725746155, 4.938537180423737 1.5977619588375092, 1.1620087176561356 m-1.7430131137371063, 0.8715065568685532 l0.0, 0.726255476474762 -3.63127738237381, 1.8882642686367035 m5.519541501998901, -3.776528537273407 l0.0, 2.324017435312271 1.3072597980499268, 1.0167576372623444 l2.4692685902118683, -0.4357532784342766 3.050273060798645, -1.3072597980499268 m-27.016704082489014, -24.69268560409546 l7.8435587882995605, -10.458078384399414 3.9217793941497803, -3.3407750725746155 l0.5810043588280678, 0.8715065568685532 -1.0167576372623444, 3.63127738237381 l-0.14525108970701694, 3.9217793941497803 0.726255476474762, 0.4357532784342766 l0.8715065568685532, -1.452510952949524 3.776528537273407, -3.1955239176750183 l2.905021905899048, -1.8882642686367035 5.810043811798096, -2.4692685902118683 l0.8715065568685532, 1.452510952949524 -1.452510952949524, 4.648034870624542 l0.2905021794140339, 0.726255476474762 0.8715065568685532, 0.14525108970701694 l11.039083003997803, -5.08378803730011 2.4692685902118683, -0.4357532784342766 l1.452510952949524, 0.5810043588280678 0.726255476474762, 1.8882642686367035 l-3.1955239176750183, 4.938537180423737 -0.8715065568685532, 2.324017435312271 l0.4357532784342766, 0.8715065568685532 6.681550145149231, 1.452510952949524 l4.212281703948975, 1.5977619588375092 1.5977619588375092, 1.3072597980499268 l0.5810043588280678, 2.324017435312271 -0.2905021794140339, 2.905021905899048 l-1.3072597980499268, 3.050273060798645 -2.6145195960998535, 4.212281703948975 l-5.955294966697693, 7.8435587882995605 0.0, 1.7430131137371063 l6.681550145149231, 3.050273060798645 0.5810043588280678, 1.7430131137371063 l-1.1620087176561356, 1.452510952949524 -5.229039192199707, 3.776528537273407 l-10.458078384399414, 2.7597707509994507 -0.14525108970701694, 1.452510952949524 l-0.726255476474762, 0.8715065568685532 -4.648034870624542, 2.178766429424286 l-2.0335152745246887, 0.726255476474762 -6.2457966804504395, 0.0 l-6.2457966804504395, -2.6145195960998535 -4.357532858848572, 0.0 l-5.229039192199707, -2.4692685902118683 -1.5977619588375092, -1.452510952949524 l-3.776528537273407, -5.955294966697693 -1.3072597980499268, -6.972052454948425 l0.14525108970701694, -5.955294966697693 3.4860262274742126, -11.620087623596191 l-1.452510952949524, -3.050273060798645 0.2905021794140339, -1.5977619588375092 l2.7597707509994507, -5.08378803730011 0.2905021794140339, -0.726255476474762 l-0.4357532784342766, 0.2905021794140339 " fill="none" stroke="black" stroke-width="1" /></svg>