<?xml version="1.0" encoding="utf-8" ?>
<svg baseProfile="full" height="36.58094948157668" version="1.1" width="56.77085182629526" xmlns="http://www.w3.org/2000/svg" xmlns:ev="http://www.w3.org/2001/xml-events" xmlns:xlink="http://www.w3.org/1999/xlink"><defs /><rect fill="white" height="36.58094948157668" width="56.77085182629526" x="0" y="0" /><path d="M18.0725983902812, 31.435698391869664 m-7.698307633399963, 0.14525108970701694 l-3.050273060798645, -0.4357532784342766 -0.2905021794140339, -1.5977619588375092 l2.6145195960998535, -0.8715065568685532 0.5810043588280678, -0.726255476474762 l-4.938537180423737, -1.5977619588375092 1.5977619588375092, -2.0335152745246887 l0.2905021794140339, -1.5977619588375092 -2.178766429424286, -1.1620087176561356 l1.5977619588375092, 0.0 2.4692685902118683, 1.3072597980499268 l0.2905021794140339, -1.452510952949524 -0.4357532784342766, -8.86031687259674 l2.905021905899048, 3.776528537273407 0.8715065568685532, -1.1620087176561356 l1.452510952949524, -4.938537180423737 0.8715065568685532, -0.14525108970701694 l0.8715065568685532, 3.050273060798645 3.050273060798645, -6.2457966804504395 l1.1620087176561356, -1.452510952949524 1.0167576372623444, 0.0 l1.452510952949524, 3.63127738237381 1.0167576372623444, -0.14525108970701694 l0.8715065568685532, -1.7430131137371063 2.0335152745246887, -2.178766429424286 l1.1620087176561356, 0.0 1.7430131137371063, 4.648034870624542 l1.3072597980499268, 0.2905021794140339 2.324017435312271, -3.1955239176750183 l1.0167576372623444, -0.5810043588280678 1.3072597980499268, 0.14525108970701694 l1.5977619588375092, 5.519541501998901 0.8715065568685532, 0.0 l2.178766429424286, -2.0335152745246887 2.7597707509994507, -1.452510952949524 l2.6145195960998535, -0.2905021794140339 0.0, 5.229039192199707 l1.8882642686367035, 0.4357532784342766 4.357532858848572, -0.8715065568685532 l0.14525108970701694, 1.0167576372623444 -4.793286025524139, 3.050273060798645 l-1.7430131137371063, 1.7430131137371063 1.3072597980499268, 0.726255476474762 l3.776528537273407, 0.2905021794140339 -9.296069741249084, 3.9217793941497803 l-0.2905021794140339, 0.726255476474762 0.726255476474762, 1.1620087176561356 l1.452510952949524, 0.4357532784342766 3.1955239176750183, 0.0 l-0.726255476474762, 0.8715065568685532 -3.776528537273407, 2.0335152745246887 l0.0, 0.726255476474762 2.324017435312271, 1.1620087176561356 l-7.407805919647217, 0.0 -1.3072597980499268, 0.5810043588280678 m-16.26812219619751, -0.5810043588280678 l-1.3072597980499268, -2.7597707509994507 -0.5810043588280678, -2.4692685902118683 l0.0, -4.357532858848572 0.726255476474762, -2.0335152745246887 l2.6145195960998535, -2.6145195960998535 7.8435587882995605, -1.7430131137371063 l4.938537180423737, 0.0 1.5977619588375092, 1.0167576372623444 l2.905021905899048, 4.502783715724945 2.178766429424286, 6.536298990249634 l0.0, 0.8715065568685532 -0.726255476474762, 0.726255476474762 l-3.4860262274742126, 2.4692685902118683 m-13.508352041244507, -1.452510952949524 l0.726255476474762, -0.14525108970701694 1.7430131137371063, 1.0167576372623444 l2.4692685902118683, 0.4357532784342766 4.212281703948975, 0.0 l1.3072597980499268, -0.2905021794140339 1.3072597980499268, -2.0335152745246887 m-6.972052454948425, -4.212281703948975 l1.5977619588375092, 2.324017435312271 0.8715065568685532, 0.0 l0.726255476474762, -0.726255476474762 0.0, -0.726255476474762 l-1.7430131137371063, -1.1620087176561356 -0.8715065568685532, 0.14525108970701694 m-0.4357532784342766, 0.8715065568685532 l-4.357532858848572, 0.2905021794140339 -3.4860262274742126, -1.5977619588375092 l-2.4692685902118683, -1.8882642686367035 m12.636845111846924, 2.905021905899048 l2.6145195960998535, -0.14525108970701694 3.63127738237381, -1.1620087176561356 l1.5977619588375092, -1.452510952949524 m-14.670360088348389, -2.905021905899048 l0.14525108970701694, 0.726255476474762 0.8715065568685532, 0.726255476474762 l1.452510952949524, 0.5810043588280678 4.357532858848572, -0.14525108970701694 l0.14525108970701694, -1.1620087176561356 -0.726255476474762, -0.4357532784342766 l-1.5977619588375092, -0.5810043588280678 -1.5977619588375092, 0.2905021794140339 m4.357532858848572, 0.8715065568685532 l0.8715065568685532, 0.2905021794140339 " fill="none" stroke="black" stroke-width="1" /></svg>