<?xml version="1.0" encoding="utf-8" ?>
<svg baseProfile="full" height="61.85463991947472" version="1.1" width="103.10595301911235" xmlns="http://www.w3.org/2000/svg" xmlns:ev="http://www.w3.org/2001/xml-events" xmlns:xlink="http://www.w3.org/1999/xlink"><defs /><rect fill="white" height="61.85463991947472" width="103.10595301911235" x="0" y="0" /><path d="M56.4188885781914, 23.592140302062035 m-6.681550145149231, -7.988809943199158 l-3.9217793941497803, -2.324017435312271 -3.3407750725746155, -0.4357532784342766 l-2.178766429424286, 1.3072597980499268 -3.63127738237381, 6.826801300048828 l-0.8715065568685532, 3.63127738237381 -0.14525108970701694, 2.7597707509994507 l1.1620087176561356, 2.7597707509994507 2.905021905899048, 2.7597707509994507 l1.452510952949524, 0.726255476474762 4.357532858848572, 0.726255476474762 l5.6647926568984985, -0.5810043588280678 4.212281703948975, -3.050273060798645 m-27.016704082489014, -7.553057074546814 l-0.8715065568685532, -1.1620087176561356 -2.905021905899048, -1.8882642686367035 l-5.955294966697693, -1.8882642686367035 -7.407805919647217, -3.050273060798645 l-2.6145195960998535, -1.5977619588375092 m19.318394660949707, 13.653602600097656 l-2.0335152745246887, -1.452510952949524 -1.8882642686367035, -4.793286025524139 l-5.08378803730011, -7.407805919647217 -5.955294966697693, -6.391047835350037 l-1.8882642686367035, -1.452510952949524 -2.324017435312271, -0.726255476474762 m23.675928115844727, 16.413373947143555 l-1.5977619588375092, -2.178766429424286 -5.08378803730011, -3.3407750725746155 l-17.72063374519348, -4.648034870624542 -3.050273060798645, -1.1620087176561356 m20.189902782440186, 15.687117576599121 l-1.3072597980499268, -6.536298990249634 -2.178766429424286, -4.648034870624542 l-5.810043811798096, -4.793286025524139 -5.08378803730011, -1.452510952949524 l-5.229039192199707, 0.0 m50.837883949279785, 15.541867017745972 l-0.5810043588280678, 4.648034870624542 0.14525108970701694, 3.3407750725746155 m-0.4357532784342766, -1.0167576372623444 l3.4860262274742126, -2.905021905899048 2.0335152745246887, -0.8715065568685532 l5.229039192199707, 0.4357532784342766 12.927347421646118, -0.8715065568685532 l4.938537180423737, 0.5810043588280678 5.6647926568984985, -0.8715065568685532 l2.4692685902118683, 0.14525108970701694 1.5977619588375092, 0.5810043588280678 l2.324017435312271, 2.4692685902118683 1.1620087176561356, 4.502783715724945 l0.5810043588280678, 7.1173036098480225 0.14525108970701694, 11.76533818244934 l-0.2905021794140339, 3.1955239176750183 -0.4357532784342766, 0.726255476474762 l-8.279312252998352, -2.324017435312271 -1.7430131137371063, -3.050273060798645 l-1.452510952949524, -4.357532858848572 -0.2905021794140339, -8.134061098098755 l-0.5810043588280678, 4.648034870624542 -4.357532858848572, 11.910589933395386 l-1.0167576372623444, 0.2905021794140339 -0.8715065568685532, -0.2905021794140339 l-2.905021905899048, -2.7597707509994507 -2.7597707509994507, -6.681550145149231 l-1.1620087176561356, -7.26255476474762 0.2905021794140339, 0.8715065568685532 l-1.0167576372623444, 5.6647926568984985 -1.8882642686367035, 7.1173036098480225 l-2.178766429424286, -0.8715065568685532 -2.6145195960998535, -1.452510952949524 l-1.8882642686367035, -2.4692685902118683 -1.1620087176561356, -3.9217793941497803 l-0.5810043588280678, -6.2457966804504395 0.4357532784342766, 2.324017435312271 l-0.14525108970701694, 3.63127738237381 -2.0335152745246887, 11.039083003997803 l-3.776528537273407, 0.2905021794140339 -1.1620087176561356, -1.3072597980499268 l-0.2905021794140339, -3.776528537273407 2.6145195960998535, -9.586572051048279 l-1.8882642686367035, -5.229039192199707 0.14525108970701694, -4.212281703948975 " fill="none" stroke="black" stroke-width="1" /></svg>