<?xml version="1.0" encoding="utf-8" ?>
<svg baseProfile="full" height="43.26249956153333" version="1.1" width="44.279257683083415" xmlns="http://www.w3.org/2000/svg" xmlns:ev="http://www.w3.org/2001/xml-events" xmlns:xlink="http://www.w3.org/1999/xlink"><defs /><rect fill="white" height="43.26249956153333" width="44.279257683083415" x="0" y="0" /><path d="M8.050272837281227, 7.614520117640495 m2.4692685902118683, 5.229039192199707 l0.4357532784342766, 2.0335152745246887 0.14525108970701694, -6.10054612159729 l1.0167576372623444, 0.5810043588280678 1.7430131137371063, 3.9217793941497803 l0.0, -6.972052454948425 1.452510952949524, 1.0167576372623444 l1.0167576372623444, 1.452510952949524 1.1620087176561356, 3.3407750725746155 l1.8882642686367035, -6.972052454948425 1.452510952949524, 2.178766429424286 l1.0167576372623444, 3.63127738237381 0.14525108970701694, -2.178766429424286 l1.452510952949524, -3.3407750725746155 0.726255476474762, -0.4357532784342766 l1.1620087176561356, 0.14525108970701694 1.0167576372623444, 1.3072597980499268 l0.2905021794140339, 2.178766429424286 0.0, 1.452510952949524 l-0.5810043588280678, 1.1620087176561356 1.8882642686367035, -2.7597707509994507 l2.178766429424286, -1.7430131137371063 0.8715065568685532, 1.8882642686367035 l0.0, 2.4692685902118683 -0.726255476474762, 1.7430131137371063 l2.905021905899048, -2.178766429424286 1.5977619588375092, -0.5810043588280678 l-0.14525108970701694, 1.5977619588375092 -1.3072597980499268, 2.324017435312271 l-4.212281703948975, 5.374290347099304 1.0167576372623444, 0.5810043588280678 l9.150818586349487, -2.6145195960998535 -4.648034870624542, 5.229039192199707 l-3.3407750725746155, 2.905021905899048 3.776528537273407, -1.5977619588375092 l-1.0167576372623444, 1.8882642686367035 -5.810043811798096, 1.8882642686367035 l2.6145195960998535, -0.5810043588280678 0.726255476474762, 0.2905021794140339 l-0.14525108970701694, 2.7597707509994507 -3.9217793941497803, 2.0335152745246887 l-2.7597707509994507, 0.14525108970701694 0.0, -0.726255476474762 l0.726255476474762, -0.14525108970701694 1.8882642686367035, 4.648034870624542 l-4.938537180423737, -7.553057074546814 -0.8715065568685532, 4.648034870624542 l-0.14525108970701694, 5.08378803730011 -0.8715065568685532, -0.8715065568685532 l-1.7430131137371063, -6.681550145149231 -1.7430131137371063, 2.178766429424286 l-1.452510952949524, 3.776528537273407 -1.0167576372623444, 0.4357532784342766 l0.4357532784342766, -3.9217793941497803 2.0335152745246887, -5.519541501998901 l-0.726255476474762, 0.0 -2.178766429424286, 1.5977619588375092 l-3.776528537273407, 3.63127738237381 0.0, -1.7430131137371063 l3.1955239176750183, -6.10054612159729 -0.726255476474762, -0.5810043588280678 l-3.1955239176750183, 0.0 -2.6145195960998535, 0.8715065568685532 l1.452510952949524, -4.357532858848572 -0.5810043588280678, -0.726255476474762 l-2.7597707509994507, -0.4357532784342766 -0.14525108970701694, -0.726255476474762 l2.905021905899048, -1.0167576372623444 3.9217793941497803, -0.4357532784342766 l-0.4357532784342766, -1.452510952949524 -2.7597707509994507, -4.212281703948975 l7.26255476474762, 1.452510952949524 0.0, -1.0167576372623444 l-1.452510952949524, -2.0335152745246887 0.14525108970701694, -0.4357532784342766 m8.42456340789795, 18.737391233444214 l-5.6647926568984985, -1.1620087176561356 -3.3407750725746155, -1.5977619588375092 l-0.8715065568685532, -0.8715065568685532 -0.726255476474762, -2.0335152745246887 l-0.14525108970701694, -2.178766429424286 0.4357532784342766, -1.8882642686367035 l2.324017435312271, -3.3407750725746155 2.178766429424286, -1.3072597980499268 l2.0335152745246887, -0.4357532784342766 9.586572051048279, 0.14525108970701694 l1.3072597980499268, 1.0167576372623444 0.2905021794140339, 3.9217793941497803 l-1.5977619588375092, 4.212281703948975 -1.452510952949524, 1.7430131137371063 l-2.4692685902118683, 1.8882642686367035 -1.5977619588375092, 0.4357532784342766 l-5.374290347099304, -0.2905021794140339 -0.8715065568685532, -1.0167576372623444 m2.178766429424286, -7.553057074546814 l-0.726255476474762, -0.4357532784342766 -0.5810043588280678, -1.5977619588375092 l0.726255476474762, 1.3072597980499268 m7.407805919647217, 0.14525108970701694 l-0.5810043588280678, -0.8715065568685532 0.5810043588280678, 0.14525108970701694 m-3.9217793941497803, 4.648034870624542 l-0.4357532784342766, -0.8715065568685532 0.726255476474762, -0.4357532784342766 m-5.810043811798096, 1.452510952949524 l1.3072597980499268, 1.1620087176561356 4.212281703948975, 0.2905021794140339 l5.229039192199707, -1.5977619588375092 " fill="none" stroke="black" stroke-width="1" /></svg>