<?xml version="1.0" encoding="utf-8" ?>
<svg baseProfile="full" height="40.5027290340513" version="1.1" width="50.23455301299691" xmlns="http://www.w3.org/2000/svg" xmlns:ev="http://www.w3.org/2001/xml-events" xmlns:xlink="http://www.w3.org/1999/xlink"><defs /><rect fill="white" height="40.5027290340513" width="50.23455301299691" x="0" y="0" /><path d="M28.09492445550859, 16.32958604954183 m-2.6145195960998535, -0.8715065568685532 l-1.8882642686367035, 0.0 -2.178766429424286, 1.3072597980499268 l-2.178766429424286, 2.4692685902118683 -0.726255476474762, 3.9217793941497803 l0.0, 2.7597707509994507 0.14525108970701694, 1.1620087176561356 l1.7430131137371063, 2.178766429424286 1.3072597980499268, 0.726255476474762 l3.3407750725746155, 0.4357532784342766 7.8435587882995605, -1.8882642686367035 l1.7430131137371063, -1.3072597980499268 0.726255476474762, -1.7430131137371063 l0.5810043588280678, -2.178766429424286 -0.2905021794140339, -2.178766429424286 m-8.134061098098755, -5.519541501998901 l3.1955239176750183, 1.1620087176561356 3.050273060798645, 2.0335152745246887 l1.1620087176561356, 1.7430131137371063 m0.0, -0.14525108970701694 l0.0, -1.8882642686367035 0.726255476474762, -1.452510952949524 l1.0167576372623444, -0.5810043588280678 3.4860262274742126, -0.4357532784342766 l3.3407750725746155, 2.0335152745246887 1.7430131137371063, 3.3407750725746155 l-0.4357532784342766, 1.7430131137371063 -1.5977619588375092, 1.5977619588375092 l-0.726255476474762, 0.14525108970701694 -5.6647926568984985, -1.8882642686367035 l-0.8715065568685532, -1.452510952949524 -1.1620087176561356, -0.4357532784342766 l0.0, -0.726255476474762 2.324017435312271, 2.324017435312271 l2.7597707509994507, 6.536298990249634 0.14525108970701694, 5.08378803730011 l-0.8715065568685532, 0.5810043588280678 -14.52510952949524, -2.905021905899048 l-4.502783715724945, -2.324017435312271 -0.2905021794140339, -0.8715065568685532 l-1.452510952949524, -0.8715065568685532 1.3072597980499268, 5.08378803730011 l0.0, 1.0167576372623444 -0.5810043588280678, 0.8715065568685532 l-2.324017435312271, 0.5810043588280678 -3.63127738237381, 0.0 l-7.26255476474762, -10.458078384399414 -0.726255476474762, -1.5977619588375092 l-0.14525108970701694, -2.178766429424286 0.726255476474762, -0.4357532784342766 l2.7597707509994507, 0.0 -0.14525108970701694, -2.4692685902118683 l-1.0167576372623444, -3.050273060798645 0.14525108970701694, -1.5977619588375092 l2.324017435312271, -1.0167576372623444 2.905021905899048, -0.2905021794140339 l2.178766429424286, 0.2905021794140339 2.4692685902118683, 1.0167576372623444 l4.067030549049377, -5.08378803730011 3.3407750725746155, 0.14525108970701694 l2.0335152745246887, 0.5810043588280678 1.3072597980499268, 0.8715065568685532 l1.0167576372623444, 1.5977619588375092 5.955294966697693, -6.826801300048828 l1.5977619588375092, 5.374290347099304 -0.726255476474762, 4.648034870624542 m-13.798853158950806, 5.810043811798096 l0.726255476474762, -0.14525108970701694 " fill="none" stroke="black" stroke-width="1" /></svg>