<?xml version="1.0" encoding="utf-8" ?>
<svg baseProfile="full" height="59.09486873075366" version="1.1" width="67.809934662655" xmlns="http://www.w3.org/2000/svg" xmlns:ev="http://www.w3.org/2001/xml-events" xmlns:xlink="http://www.w3.org/1999/xlink"><defs /><rect fill="white" height="59.09486873075366" width="67.809934662655" x="0" y="0" /><path d="M23.011135319247842, 9.648034265264869 m-1.0167576372623444, -1.0167576372623444 l-2.905021905899048, 0.0 -2.4692685902118683, 0.726255476474762 l-3.1955239176750183, 2.0335152745246887 -0.726255476474762, 1.3072597980499268 l0.0, 1.5977619588375092 0.5810043588280678, 1.0167576372623444 l3.050273060798645, -0.14525108970701694 1.8882642686367035, -1.7430131137371063 l-1.452510952949524, 0.2905021794140339 -1.5977619588375092, 1.1620087176561356 l-3.050273060798645, 3.63127738237381 -1.3072597980499268, 3.4860262274742126 l0.0, 1.1620087176561356 0.5810043588280678, 0.726255476474762 l-2.7597707509994507, 2.4692685902118683 -1.7430131137371063, 2.324017435312271 l-1.7430131137371063, 4.502783715724945 -0.14525108970701694, 2.0335152745246887 l0.5810043588280678, 1.452510952949524 1.0167576372623444, 0.8715065568685532 l2.0335152745246887, 0.2905021794140339 0.4357532784342766, 0.726255476474762 l-0.14525108970701694, 8.86031687259674 0.5810043588280678, 2.4692685902118683 l1.452510952949524, 1.5977619588375092 2.0335152745246887, 0.5810043588280678 l2.4692685902118683, -0.4357532784342766 4.938537180423737, -3.1955239176750183 l1.1620087176561356, 0.4357532784342766 2.178766429424286, 2.905021905899048 l1.8882642686367035, 1.452510952949524 2.4692685902118683, 0.8715065568685532 l2.7597707509994507, 0.0 2.7597707509994507, -1.1620087176561356 l2.4692685902118683, -2.0335152745246887 4.067030549049377, -2.178766429424286 l5.229039192199707, 3.4860262274742126 2.7597707509994507, 0.14525108970701694 l3.1955239176750183, -0.8715065568685532 4.938537180423737, -4.938537180423737 l1.3072597980499268, -1.8882642686367035 2.905021905899048, -2.324017435312271 l2.0335152745246887, -5.6647926568984985 0.2905021794140339, -2.6145195960998535 l-0.4357532784342766, -12.782095670700073 -0.4357532784342766, -2.4692685902118683 l-1.3072597980499268, -2.0335152745246887 -1.8882642686367035, -1.5977619588375092 l-4.938537180423737, -0.5810043588280678 -4.938537180423737, 1.452510952949524 l-1.0167576372623444, -4.357532858848572 -1.3072597980499268, -2.324017435312271 l-2.324017435312271, -1.452510952949524 -3.1955239176750183, -0.8715065568685532 l-5.08378803730011, -0.2905021794140339 -1.7430131137371063, 0.5810043588280678 l-1.5977619588375092, 1.7430131137371063 -1.8882642686367035, -2.324017435312271 l-1.7430131137371063, -1.0167576372623444 -1.5977619588375092, -0.5810043588280678 l-3.1955239176750183, -0.14525108970701694 -6.391047835350037, 3.1955239176750183 m11.039083003997803, 11.039083003997803 l-2.0335152745246887, 0.5810043588280678 -2.0335152745246887, 1.7430131137371063 l-3.050273060798645, 5.229039192199707 -1.1620087176561356, 4.938537180423737 l0.2905021794140339, 6.826801300048828 1.1620087176561356, 2.178766429424286 l3.3407750725746155, 3.4860262274742126 4.067030549049377, 2.0335152745246887 l6.391047835350037, 0.5810043588280678 4.067030549049377, -1.1620087176561356 l5.229039192199707, -3.4860262274742126 2.324017435312271, -3.4860262274742126 l0.4357532784342766, -1.5977619588375092 0.0, -5.08378803730011 l-2.6145195960998535, -6.10054612159729 -3.4860262274742126, -3.4860262274742126 l-3.1955239176750183, -1.8882642686367035 -3.4860262274742126, -1.3072597980499268 l-1.7430131137371063, -0.4357532784342766 -3.9217793941497803, 0.0 l-2.905021905899048, 1.0167576372623444 -0.726255476474762, 1.0167576372623444 m1.8882642686367035, 15.977619886398315 l-2.905021905899048, 0.0 -7.1173036098480225, 2.7597707509994507 m8.86031687259674, -1.0167576372623444 l-3.1955239176750183, 2.4692685902118683 -2.7597707509994507, 4.212281703948975 m8.134061098098755, -3.63127738237381 l-2.6145195960998535, 3.776528537273407 -1.7430131137371063, 3.9217793941497803 m18.737391233444214, -10.312827825546265 l1.3072597980499268, 2.4692685902118683 3.776528537273407, 3.4860262274742126 l2.0335152745246887, 0.8715065568685532 m-2.4692685902118683, -9.731823205947876 l3.050273060798645, 3.4860262274742126 2.6145195960998535, 1.3072597980499268 " fill="none" stroke="black" stroke-width="1" /></svg>