<?xml version="1.0" encoding="utf-8" ?>
<svg baseProfile="full" height="75.07248860783875" version="1.1" width="82.48029517941177" xmlns="http://www.w3.org/2000/svg" xmlns:ev="http://www.w3.org/2001/xml-events" xmlns:xlink="http://www.w3.org/1999/xlink"><defs /><rect fill="white" height="75.07248860783875" width="82.48029517941177" x="0" y="0" /><path d="M35.647980719804764, 23.446890860795975 m-1.0167576372623444, -0.5810043588280678 l-3.1955239176750183, 0.0 -2.4692685902118683, 1.7430131137371063 l-2.4692685902118683, 3.3407750725746155 -2.178766429424286, 4.212281703948975 l-1.7430131137371063, 4.793286025524139 -0.5810043588280678, 7.698307633399963 l1.7430131137371063, 2.324017435312271 2.324017435312271, 1.1620087176561356 l3.776528537273407, 0.0 3.776528537273407, -1.3072597980499268 l3.776528537273407, -2.6145195960998535 3.4860262274742126, -3.4860262274742126 l2.6145195960998535, -3.776528537273407 1.3072597980499268, -3.3407750725746155 l0.2905021794140339, -2.7597707509994507 0.0, -2.4692685902118683 l-1.0167576372623444, -2.0335152745246887 -1.5977619588375092, -1.5977619588375092 l-3.63127738237381, -1.452510952949524 -3.776528537273407, 0.14525108970701694 l-0.4357532784342766, 1.5977619588375092 m-5.229039192199707, 5.08378803730011 l-0.2905021794140339, 2.905021905899048 0.4357532784342766, 1.0167576372623444 l0.5810043588280678, 0.726255476474762 2.0335152745246887, 0.2905021794140339 l1.1620087176561356, -0.4357532784342766 0.5810043588280678, -1.0167576372623444 l0.4357532784342766, -2.905021905899048 -1.5977619588375092, -1.0167576372623444 l-1.7430131137371063, 0.0 m9.586572051048279, -1.3072597980499268 l-1.452510952949524, 1.7430131137371063 -0.2905021794140339, 3.63127738237381 l2.324017435312271, 0.14525108970701694 0.8715065568685532, -0.8715065568685532 l0.0, -1.3072597980499268 -2.178766429424286, -1.452510952949524 l-1.5977619588375092, 0.14525108970701694 -0.14525108970701694, 0.4357532784342766 m-4.648034870624542, 6.2457966804504395 l-0.2905021794140339, 4.502783715724945 -0.726255476474762, 0.8715065568685532 l-2.0335152745246887, 1.0167576372623444 -1.8882642686367035, 0.2905021794140339 l-1.5977619588375092, 0.0 -0.8715065568685532, -0.4357532784342766 l0.14525108970701694, -0.5810043588280678 m8.715065717697144, -5.08378803730011 l-0.726255476474762, 0.2905021794140339 -0.4357532784342766, 3.1955239176750183 l1.452510952949524, 0.5810043588280678 1.8882642686367035, 0.0 l2.324017435312271, -1.7430131137371063 m-7.8435587882995605, 2.0335152745246887 l0.5810043588280678, 1.8882642686367035 1.1620087176561356, 0.5810043588280678 l1.5977619588375092, -0.14525108970701694 1.3072597980499268, -3.050273060798645 l-0.14525108970701694, -0.8715065568685532 -1.0167576372623444, -0.14525108970701694 m-16.558624505996704, -22.80442237854004 l6.2457966804504395, -0.14525108970701694 4.502783715724945, -3.4860262274742126 l4.502783715724945, -5.229039192199707 1.8882642686367035, -0.8715065568685532 l4.357532858848572, 0.5810043588280678 5.810043811798096, 3.050273060798645 l2.905021905899048, 0.2905021794140339 1.3072597980499268, -0.5810043588280678 l1.8882642686367035, -4.502783715724945 0.8715065568685532, -1.0167576372623444 l2.6145195960998535, 0.0 14.08935546875, 11.184333562850952 l0.726255476474762, 0.2905021794140339 -0.5810043588280678, -3.050273060798645 l-0.726255476474762, -1.3072597980499268 0.4357532784342766, 4.502783715724945 l1.5977619588375092, 4.502783715724945 5.6647926568984985, 12.055840492248535 l0.8715065568685532, 4.212281703948975 -1.1620087176561356, 0.8715065568685532 l-8.86031687259674, -0.8715065568685532 -2.0335152745246887, 1.0167576372623444 l-1.3072597980499268, 3.050273060798645 -0.2905021794140339, 3.9217793941497803 l0.14525108970701694, 4.793286025524139 1.8882642686367035, 6.972052454948425 l0.0, 2.324017435312271 -0.8715065568685532, 1.5977619588375092 l-2.6145195960998535, 0.726255476474762 -4.648034870624542, 0.0 l-9.441320896148682, -3.776528537273407 -2.7597707509994507, -0.14525108970701694 l-2.0335152745246887, 0.4357532784342766 -1.5977619588375092, 1.8882642686367035 l-2.178766429424286, 7.698307633399963 -1.0167576372623444, 1.1620087176561356 l-1.7430131137371063, 0.4357532784342766 -3.3407750725746155, -0.2905021794140339 l-4.212281703948975, -1.8882642686367035 -8.86031687259674, -6.391047835350037 l-2.178766429424286, -0.8715065568685532 -1.7430131137371063, -0.14525108970701694 l-0.726255476474762, 0.4357532784342766 0.0, 2.0335152745246887 l0.8715065568685532, 2.4692685902118683 0.0, -1.3072597980499268 l-5.6647926568984985, -7.407805919647217 -4.067030549049377, -6.536298990249634 l-1.7430131137371063, -4.357532858848572 -0.2905021794140339, -4.502783715724945 l5.229039192199707, -1.452510952949524 1.7430131137371063, -1.1620087176561356 l0.726255476474762, -1.452510952949524 0.0, -3.3407750725746155 l-6.681550145149231, -13.798853158950806 -0.5810043588280678, -2.4692685902118683 l5.229039192199707, 0.726255476474762 7.8435587882995605, 0.2905021794140339 l3.050273060798645, -1.1620087176561356 2.4692685902118683, -1.8882642686367035 l1.7430131137371063, -2.4692685902118683 3.63127738237381, -6.972052454948425 l3.4860262274742126, -1.1620087176561356 3.63127738237381, 0.4357532784342766 l13.798853158950806, 5.374290347099304 11.184333562850952, 3.63127738237381 l1.7430131137371063, 0.14525108970701694 0.726255476474762, -0.5810043588280678 l-0.4357532784342766, -6.972052454948425 1.452510952949524, 2.4692685902118683 l2.0335152745246887, 5.519541501998901 7.8435587882995605, 16.8491268157959 l1.3072597980499268, 4.067030549049377 -1.8882642686367035, 5.810043811798096 l-1.8882642686367035, 0.14525108970701694 -6.2457966804504395, -2.324017435312271 l-2.0335152745246887, 0.0 -1.8882642686367035, 0.726255476474762 l-1.7430131137371063, 3.3407750725746155 -0.8715065568685532, 4.793286025524139 l0.4357532784342766, 13.217849731445312 -2.178766429424286, 3.1955239176750183 l-2.7597707509994507, 0.0 -4.938537180423737, -1.5977619588375092 l-11.76533818244934, -6.2457966804504395 -3.050273060798645, -0.726255476474762 l-2.6145195960998535, 0.0 -1.8882642686367035, 1.3072597980499268 l-0.8715065568685532, 2.4692685902118683 0.0, 3.050273060798645 l1.0167576372623444, 3.63127738237381 -1.1620087176561356, -2.0335152745246887 l-14.815611839294434, -13.653602600097656 -6.681550145149231, -7.553057074546814 l2.4692685902118683, -0.726255476474762 1.8882642686367035, -1.1620087176561356 " fill="none" stroke="black" stroke-width="1" /></svg>