<?xml version="1.0" encoding="utf-8" ?>
<svg baseProfile="full" height="49.07254368066788" version="1.1" width="35.99994541145861" xmlns="http://www.w3.org/2000/svg" xmlns:ev="http://www.w3.org/2001/xml-events" xmlns:xlink="http://www.w3.org/1999/xlink"><defs /><rect fill="white" height="49.07254368066788" width="35.99994541145861" x="0" y="0" /><path d="M18.798854015767574, 15.312827676534653 m-2.0335152745246887, 0.726255476474762 l-1.8882642686367035, 1.7430131137371063 -2.4692685902118683, 5.229039192199707 l-0.4357532784342766, 4.067030549049377 1.0167576372623444, 2.6145195960998535 l1.7430131137371063, 2.0335152745246887 1.5977619588375092, 0.8715065568685532 l3.776528537273407, 0.726255476474762 4.502783715724945, -0.8715065568685532 l2.4692685902118683, -2.178766429424286 0.726255476474762, -1.8882642686367035 l0.0, -2.4692685902118683 -2.178766429424286, -5.229039192199707 l-3.050273060798645, -3.63127738237381 -1.5977619588375092, -1.0167576372623444 l-1.5977619588375092, 0.0 m-6.10054612159729, 7.1173036098480225 l-3.3407750725746155, 0.726255476474762 -3.3407750725746155, -1.5977619588375092 l-1.5977619588375092, -2.324017435312271 0.14525108970701694, -2.905021905899048 l2.4692685902118683, -2.4692685902118683 2.6145195960998535, -0.726255476474762 l2.905021905899048, 0.0 2.0335152745246887, 0.726255476474762 l1.5977619588375092, -5.6647926568984985 1.7430131137371063, -2.6145195960998535 l3.1955239176750183, -1.3072597980499268 2.4692685902118683, 0.8715065568685532 l0.726255476474762, 1.0167576372623444 0.5810043588280678, 3.4860262274742126 l-0.2905021794140339, 2.324017435312271 -1.5977619588375092, 2.178766429424286 l4.357532858848572, 0.726255476474762 1.0167576372623444, 0.5810043588280678 l1.5977619588375092, 2.324017435312271 0.2905021794140339, 2.178766429424286 l0.0, 2.178766429424286 -0.4357532784342766, 1.452510952949524 l-1.452510952949524, 2.0335152745246887 -1.452510952949524, 0.726255476474762 l0.4357532784342766, -0.5810043588280678 1.7430131137371063, -0.2905021794140339 l0.5810043588280678, 0.14525108970701694 0.726255476474762, 1.7430131137371063 l-0.4357532784342766, 3.3407750725746155 -2.324017435312271, 2.905021905899048 l-1.8882642686367035, 1.3072597980499268 -3.050273060798645, 0.8715065568685532 l-2.6145195960998535, 0.0 -2.324017435312271, -0.726255476474762 l-1.1620087176561356, 6.391047835350037 -1.5977619588375092, 1.7430131137371063 l-1.452510952949524, 0.14525108970701694 -1.8882642686367035, -0.726255476474762 l-1.452510952949524, -0.8715065568685532 -2.324017435312271, -3.050273060798645 l-1.3072597980499268, -3.3407750725746155 -0.14525108970701694, -1.7430131137371063 l0.4357532784342766, -3.63127738237381 1.8882642686367035, -4.648034870624542 m5.6647926568984985, -1.452510952949524 l0.0, 0.0 m5.374290347099304, -2.6145195960998535 l0.0, 0.0 m-0.726255476474762, 2.6145195960998535 l-1.3072597980499268, 4.357532858848572 m0.0, 0.0 l-3.9217793941497803, -0.14525108970701694 m4.648034870624542, 0.5810043588280678 l2.0335152745246887, -3.63127738237381 m-3.1955239176750183, 7.1173036098480225 l-0.5810043588280678, 0.0 " fill="none" stroke="black" stroke-width="1" /></svg>