<?xml version="1.0" encoding="utf-8" ?>
<svg baseProfile="full" height="68.10043535195291" version="1.1" width="58.513864586129785" xmlns="http://www.w3.org/2000/svg" xmlns:ev="http://www.w3.org/2001/xml-events" xmlns:xlink="http://www.w3.org/1999/xlink"><defs /><rect fill="white" height="68.10043535195291" width="58.513864586129785" x="0" y="0" /><path d="M10.955294650048018, 22.139629796147346 m3.050273060798645, -1.5977619588375092 l2.324017435312271, -0.14525108970701694 3.9217793941497803, 1.452510952949524 l3.050273060798645, 2.6145195960998535 5.6647926568984985, 10.312827825546265 l0.14525108970701694, 3.63127738237381 -0.14525108970701694, 0.8715065568685532 l-1.8882642686367035, 2.4692685902118683 -4.067030549049377, 1.3072597980499268 l-6.826801300048828, -2.905021905899048 -4.212281703948975, -3.050273060798645 l-2.324017435312271, -2.324017435312271 -1.1620087176561356, -6.826801300048828 l-0.4357532784342766, -6.826801300048828 0.14525108970701694, -2.324017435312271 l1.452510952949524, -4.648034870624542 1.452510952949524, -0.14525108970701694 l0.726255476474762, 0.726255476474762 -0.726255476474762, 0.726255476474762 l0.14525108970701694, 1.0167576372623444 1.3072597980499268, 1.5977619588375092 l2.4692685902118683, 5.229039192199707 1.3072597980499268, 5.229039192199707 m8.715065717697144, -20.04465103149414 l0.5810043588280678, 1.452510952949524 3.776528537273407, 4.357532858848572 l2.178766429424286, 1.1620087176561356 2.178766429424286, 2.324017435312271 l2.178766429424286, 1.3072597980499268 -0.5810043588280678, 12.782095670700073 l-0.726255476474762, 1.5977619588375092 -2.324017435312271, 0.726255476474762 l-1.5977619588375092, -0.2905021794140339 -3.776528537273407, -3.63127738237381 l-2.905021905899048, -4.938537180423737 -0.14525108970701694, -3.050273060798645 l-0.726255476474762, -1.5977619588375092 -0.2905021794140339, -2.7597707509994507 l1.3072597980499268, -1.8882642686367035 3.9217793941497803, -3.4860262274742126 m0.0, -1.0167576372623444 l4.502783715724945, -2.905021905899048 2.4692685902118683, -0.5810043588280678 l1.1620087176561356, -1.5977619588375092 2.324017435312271, -1.452510952949524 m-5.229039192199707, 10.02232551574707 l2.7597707509994507, -1.7430131137371063 3.776528537273407, -1.0167576372623444 m-3.050273060798645, 6.826801300048828 l0.0, 0.0 m10.458078384399414, 0.0 l5.08378803730011, 1.452510952949524 1.1620087176561356, 1.8882642686367035 l-0.726255476474762, 0.5810043588280678 m-17.86588430404663, -1.452510952949524 l2.905021905899048, -0.14525108970701694 0.726255476474762, 0.726255476474762 l4.357532858848572, 0.0 3.050273060798645, 0.726255476474762 m-10.02232551574707, 4.502783715724945 l2.4692685902118683, 1.1620087176561356 1.3072597980499268, 1.8882642686367035 m-6.681550145149231, 3.050273060798645 l0.4357532784342766, 0.726255476474762 -2.0335152745246887, 1.5977619588375092 l-2.6145195960998535, 0.8715065568685532 -0.4357532784342766, -0.2905021794140339 m-0.5810043588280678, -8.42456340789795 l-2.905021905899048, 0.4357532784342766 -3.050273060798645, -2.324017435312271 m0.14525108970701694, -5.519541501998901 l-1.452510952949524, -1.3072597980499268 -1.5977619588375092, -2.905021905899048 m2.0335152745246887, 23.966429233551025 l0.0, 1.1620087176561356 -0.726255476474762, 1.3072597980499268 l-0.14525108970701694, 5.229039192199707 0.5810043588280678, 2.4692685902118683 l1.0167576372623444, 1.7430131137371063 m-9.441320896148682, -15.541867017745972 l-2.4692685902118683, 4.067030549049377 -2.178766429424286, 1.8882642686367035 l-1.5977619588375092, 2.178766429424286 -0.8715065568685532, 0.2905021794140339 l-0.14525108970701694, 1.1620087176561356 m11.039083003997803, -6.10054612159729 l-0.14525108970701694, 1.8882642686367035 -1.7430131137371063, 4.793286025524139 l0.4357532784342766, 5.08378803730011 0.8715065568685532, 1.7430131137371063 l3.3407750725746155, 2.7597707509994507 5.6647926568984985, 6.681550145149231 l1.452510952949524, -2.324017435312271 m-3.63127738237381, -18.737391233444214 l0.8715065568685532, 0.0 2.7597707509994507, 1.5977619588375092 l5.519541501998901, 5.810043811798096 3.3407750725746155, 1.8882642686367035 l0.2905021794140339, -0.8715065568685532 -0.4357532784342766, -0.8715065568685532 m-4.357532858848572, -27.016704082489014 l-0.14525108970701694, 0.0 m-6.391047835350037, -0.4357532784342766 l0.0, 0.0 m2.324017435312271, 0.8715065568685532 l0.0, -0.14525108970701694 m5.6647926568984985, 4.793286025524139 l0.0, 0.0 " fill="none" stroke="black" stroke-width="1" /></svg>