<?xml version="1.0" encoding="utf-8" ?>
<svg baseProfile="full" height="64.75966200232506" version="1.1" width="61.99989054352045" xmlns="http://www.w3.org/2000/svg" xmlns:ev="http://www.w3.org/2001/xml-events" xmlns:xlink="http://www.w3.org/1999/xlink"><defs /><rect fill="white" height="64.75966200232506" width="61.99989054352045" x="0" y="0" /><path d="M37.245742762461305, 59.75966200232506 m-0.8715065568685532, -0.14525108970701694 l-3.9217793941497803, -2.6145195960998535 -6.536298990249634, -2.4692685902118683 l-2.7597707509994507, -2.0335152745246887 -2.6145195960998535, -3.050273060798645 l-1.1620087176561356, -2.178766429424286 -2.178766429424286, -6.391047835350037 l-0.5810043588280678, -4.067030549049377 0.14525108970701694, -6.972052454948425 l2.0335152745246887, -3.776528537273407 3.1955239176750183, -2.4692685902118683 l9.296069741249084, -2.905021905899048 5.08378803730011, -0.5810043588280678 l2.905021905899048, 0.4357532784342766 4.793286025524139, 5.955294966697693 l2.6145195960998535, 7.1173036098480225 0.5810043588280678, 10.458078384399414 l-0.14525108970701694, 2.7597707509994507 -0.726255476474762, 2.6145195960998535 l-1.7430131137371063, 4.212281703948975 -2.4692685902118683, 3.776528537273407 l-2.324017435312271, 2.0335152745246887 -1.8882642686367035, 0.14525108970701694 m-22.078166007995605, -18.301637172698975 l-1.0167576372623444, -0.5810043588280678 -9.586572051048279, -12.055840492248535 l2.0335152745246887, 2.178766429424286 -2.178766429424286, -8.279312252998352 l-0.14525108970701694, -5.955294966697693 0.8715065568685532, 0.0 l6.391047835350037, 7.988809943199158 0.2905021794140339, -12.34634280204773 l1.0167576372623444, -0.5810043588280678 2.905021905899048, 3.9217793941497803 l1.5977619588375092, 0.2905021794140339 3.63127738237381, -6.10054612159729 l3.3407750725746155, -3.9217793941497803 1.0167576372623444, -0.2905021794140339 l0.8715065568685532, 1.7430131137371063 1.5977619588375092, 9.441320896148682 l1.0167576372623444, 0.14525108970701694 6.972052454948425, -8.86031687259674 l2.7597707509994507, -2.905021905899048 1.0167576372623444, -0.14525108970701694 l0.5810043588280678, 7.26255476474762 0.5810043588280678, 1.7430131137371063 l2.6145195960998535, 0.14525108970701694 6.826801300048828, -5.6647926568984985 l0.2905021794140339, 12.055840492248535 0.8715065568685532, 1.8882642686367035 l1.7430131137371063, -1.1620087176561356 0.0, 1.5977619588375092 l-5.519541501998901, 16.994377374649048 3.9217793941497803, -3.050273060798645 l4.793286025524139, -5.6647926568984985 -8.42456340789795, 20.62565565109253 m-28.323962688446045, -19.173144102096558 l1.1620087176561356, -0.4357532784342766 5.810043811798096, 0.0 l1.0167576372623444, 2.7597707509994507 -0.14525108970701694, 0.8715065568685532 l-1.1620087176561356, 1.7430131137371063 -1.7430131137371063, 0.4357532784342766 l-5.08378803730011, -3.3407750725746155 -0.4357532784342766, -2.324017435312271 m15.396615266799927, -2.905021905899048 l3.776528537273407, 0.14525108970701694 1.7430131137371063, 0.8715065568685532 l1.7430131137371063, 2.324017435312271 0.2905021794140339, 1.5977619588375092 l-0.726255476474762, 1.3072597980499268 -5.08378803730011, 1.7430131137371063 l-1.7430131137371063, 0.14525108970701694 -1.0167576372623444, -2.178766429424286 l-0.2905021794140339, -2.0335152745246887 0.0, -3.3407750725746155 l0.8715065568685532, -0.5810043588280678 m-6.972052454948425, 12.636845111846924 l5.08378803730011, 1.452510952949524 4.502783715724945, 0.2905021794140339 m-10.458078384399414, -1.452510952949524 l1.1620087176561356, 2.0335152745246887 1.3072597980499268, 4.357532858848572 l0.5810043588280678, -1.1620087176561356 " fill="none" stroke="black" stroke-width="1" /></svg>