<?xml version="1.0" encoding="utf-8" ?>
<svg baseProfile="full" height="62.435643868520856" version="1.1" width="67.37418159842491" xmlns="http://www.w3.org/2000/svg" xmlns:ev="http://www.w3.org/2001/xml-events" xmlns:xlink="http://www.w3.org/1999/xlink"><defs /><rect fill="white" height="62.435643868520856" width="67.37418159842491" x="0" y="0" /><path d="M22.575382236391306, 21.84912571683526 m-0.726255476474762, 0.4357532784342766 l0.5810043588280678, 5.955294966697693 2.4692685902118683, 3.3407750725746155 l3.1955239176750183, 1.7430131137371063 1.8882642686367035, 5.810043811798096 l1.8882642686367035, 1.5977619588375092 3.4860262274742126, 0.4357532784342766 l1.3072597980499268, -1.3072597980499268 0.4357532784342766, -8.42456340789795 l6.681550145149231, -0.726255476474762 1.8882642686367035, -1.0167576372623444 l0.4357532784342766, -2.178766429424286 0.0, -6.826801300048828 l-0.8715065568685532, -2.324017435312271 -1.5977619588375092, -1.452510952949524 l-3.776528537273407, -0.5810043588280678 -5.6647926568984985, 0.0 l-6.391047835350037, 1.3072597980499268 -5.374290347099304, 2.4692685902118683 l-0.8715065568685532, 1.8882642686367035 0.4357532784342766, 1.3072597980499268 m-11.620087623596191, 5.955294966697693 l-2.905021905899048, -18.01113486289978 5.229039192199707, 2.905021905899048 l5.374290347099304, 2.178766429424286 5.810043811798096, 0.4357532784342766 l2.0335152745246887, -1.0167576372623444 1.3072597980499268, -1.452510952949524 l2.4692685902118683, -6.10054612159729 1.452510952949524, -1.5977619588375092 l1.452510952949524, -0.726255476474762 4.793286025524139, -0.14525108970701694 l2.324017435312271, 3.63127738237381 3.776528537273407, 0.4357532784342766 l2.324017435312271, -0.5810043588280678 8.86031687259674, -4.067030549049377 l2.0335152745246887, -0.14525108970701694 0.4357532784342766, 1.0167576372623444 l-6.972052454948425, 8.279312252998352 9.731823205947876, 0.2905021794140339 l2.178766429424286, 0.5810043588280678 0.2905021794140339, 1.1620087176561356 l-7.698307633399963, 6.826801300048828 -1.0167576372623444, 1.7430131137371063 l2.0335152745246887, 2.0335152745246887 5.955294966697693, 3.050273060798645 l0.5810043588280678, 0.8715065568685532 -0.2905021794140339, 1.7430131137371063 l-2.324017435312271, 2.7597707509994507 -5.810043811798096, 4.502783715724945 l-4.648034870624542, 2.324017435312271 0.8715065568685532, -0.2905021794140339 l0.2905021794140339, 2.178766429424286 -0.726255476474762, 3.1955239176750183 l-4.648034870624542, 4.648034870624542 -3.776528537273407, 0.8715065568685532 l-2.7597707509994507, 0.0 -1.452510952949524, -0.726255476474762 l-1.1620087176561356, -1.7430131137371063 -0.5810043588280678, -2.4692685902118683 l-5.810043811798096, 8.134061098098755 -1.5977619588375092, 1.3072597980499268 l-1.452510952949524, 0.14525108970701694 -1.3072597980499268, -1.0167576372623444 l-1.0167576372623444, -5.519541501998901 -2.178766429424286, -0.4357532784342766 l-7.553057074546814, 5.229039192199707 -2.7597707509994507, 0.5810043588280678 l-0.5810043588280678, -2.0335152745246887 0.0, -2.905021905899048 l0.8715065568685532, -8.42456340789795 -2.4692685902118683, -0.2905021794140339 l-3.776528537273407, 0.5810043588280678 -0.5810043588280678, -1.5977619588375092 l0.0, -4.938537180423737 1.0167576372623444, -6.10054612159729 l-1.0167576372623444, -0.8715065568685532 " fill="none" stroke="black" stroke-width="1" /></svg>