<?xml version="1.0" encoding="utf-8" ?>
<svg baseProfile="full" height="45.44126679189503" version="1.1" width="48.92729237675667" xmlns="http://www.w3.org/2000/svg" xmlns:ev="http://www.w3.org/2001/xml-events" xmlns:xlink="http://www.w3.org/1999/xlink"><defs /><rect fill="white" height="45.44126679189503" width="48.92729237675667" x="0" y="0" /><path d="M28.24017477221787, 14.441321324557066 m0.0, 0.0 m0.0, 0.0 l-2.178766429424286, -1.452510952949524 -4.212281703948975, -0.4357532784342766 l-4.357532858848572, 2.4692685902118683 -2.7597707509994507, 3.9217793941497803 l-0.8715065568685532, 2.4692685902118683 -0.4357532784342766, 2.4692685902118683 l0.0, 3.9217793941497803 0.4357532784342766, 1.7430131137371063 l1.5977619588375092, 1.7430131137371063 2.0335152745246887, 1.3072597980499268 l5.229039192199707, 1.8882642686367035 5.374290347099304, 0.0 l2.324017435312271, -0.5810043588280678 2.7597707509994507, -1.7430131137371063 l1.7430131137371063, -2.6145195960998535 1.0167576372623444, -3.63127738237381 l-0.2905021794140339, -7.26255476474762 -1.0167576372623444, -2.178766429424286 l-1.452510952949524, -1.5977619588375092 -4.357532858848572, -1.5977619588375092 m-15.832369327545166, 7.988809943199158 l0.14525108970701694, -12.636845111846924 0.8715065568685532, 0.2905021794140339 l1.8882642686367035, 4.357532858848572 1.452510952949524, 1.452510952949524 l2.0335152745246887, -6.10054612159729 1.452510952949524, -2.4692685902118683 l0.726255476474762, 0.726255476474762 0.14525108970701694, 4.938537180423737 l4.357532858848572, -5.229039192199707 4.502783715724945, -1.5977619588375092 l0.8715065568685532, 0.0 0.726255476474762, 1.0167576372623444 l-0.14525108970701694, 2.6145195960998535 -1.452510952949524, 1.8882642686367035 l-2.324017435312271, 1.3072597980499268 5.810043811798096, -1.0167576372623444 l5.955294966697693, 0.0 0.726255476474762, 0.8715065568685532 l0.0, 0.8715065568685532 -0.5810043588280678, 0.726255476474762 l-4.212281703948975, 2.324017435312271 5.810043811798096, 2.0335152745246887 l1.1620087176561356, 0.726255476474762 1.0167576372623444, 1.452510952949524 l0.0, 1.7430131137371063 -0.8715065568685532, 0.8715065568685532 l-5.374290347099304, 2.324017435312271 -0.726255476474762, 0.726255476474762 l0.726255476474762, 1.0167576372623444 3.1955239176750183, 1.8882642686367035 l-0.14525108970701694, 1.7430131137371063 -2.6145195960998535, 2.178766429424286 l-2.7597707509994507, 0.726255476474762 -0.4357532784342766, 0.726255476474762 l-0.14525108970701694, 2.905021905899048 -2.905021905899048, -0.4357532784342766 l-1.0167576372623444, 0.726255476474762 -2.0335152745246887, 2.905021905899048 l-1.7430131137371063, 0.0 -3.050273060798645, -2.0335152745246887 l-0.8715065568685532, 0.0 -2.324017435312271, 2.4692685902118683 l-1.5977619588375092, 0.14525108970701694 -2.0335152745246887, -3.3407750725746155 l-2.178766429424286, -0.14525108970701694 -3.1955239176750183, 0.5810043588280678 l4.067030549049377, -2.6145195960998535 -9.00556743144989, -0.14525108970701694 l0.14525108970701694, -0.8715065568685532 0.726255476474762, -0.5810043588280678 l-0.14525108970701694, -0.726255476474762 -2.324017435312271, -0.4357532784342766 l-0.2905021794140339, -1.1620087176561356 3.4860262274742126, -2.905021905899048 l1.0167576372623444, -1.5977619588375092 -2.0335152745246887, -0.4357532784342766 l-0.4357532784342766, -0.726255476474762 2.905021905899048, -2.4692685902118683 l-2.178766429424286, -0.4357532784342766 0.5810043588280678, -1.452510952949524 l2.178766429424286, -2.6145195960998535 0.5810043588280678, -1.452510952949524 l0.0, 1.5977619588375092 1.452510952949524, 0.5810043588280678 m7.1173036098480225, -0.4357532784342766 l0.0, 0.0 m4.357532858848572, -0.14525108970701694 l-1.0167576372623444, 0.726255476474762 0.726255476474762, 0.0 l0.2905021794140339, -0.726255476474762 -0.4357532784342766, -0.2905021794140339 m5.08378803730011, 0.14525108970701694 l0.14525108970701694, 0.8715065568685532 0.4357532784342766, -0.2905021794140339 m-8.86031687259674, 7.1173036098480225 l2.905021905899048, 2.4692685902118683 3.1955239176750183, 0.8715065568685532 l2.6145195960998535, -0.14525108970701694 1.7430131137371063, -0.8715065568685532 l1.452510952949524, -1.1620087176561356 -1.1620087176561356, -0.2905021794140339 " fill="none" stroke="black" stroke-width="1" /></svg>