<?xml version="1.0" encoding="utf-8" ?>
<svg baseProfile="full" height="63.8881550822407" version="1.1" width="68.39093753136694" xmlns="http://www.w3.org/2000/svg" xmlns:ev="http://www.w3.org/2001/xml-events" xmlns:xlink="http://www.w3.org/1999/xlink"><defs /><rect fill="white" height="63.8881550822407" width="68.39093753136694" x="0" y="0" /><path d="M30.41893749497831, 8.921779561787844 m2.7597707509994507, -1.7430131137371063 l5.519541501998901, -1.8882642686367035 3.050273060798645, -0.2905021794140339 l2.905021905899048, 0.2905021794140339 2.324017435312271, 1.5977619588375092 l2.905021905899048, 3.4860262274742126 0.5810043588280678, 2.905021905899048 l-2.178766429424286, 3.050273060798645 -3.1955239176750183, 3.3407750725746155 l-0.14525108970701694, 0.8715065568685532 8.86031687259674, 4.067030549049377 l1.452510952949524, 2.4692685902118683 0.5810043588280678, 4.502783715724945 l-0.4357532784342766, 5.519541501998901 -2.324017435312271, 4.212281703948975 l-1.3072597980499268, 1.1620087176561356 -2.178766429424286, 0.8715065568685532 l5.810043811798096, -0.14525108970701694 0.5810043588280678, 0.726255476474762 l0.2905021794140339, 2.6145195960998535 -1.452510952949524, 2.0335152745246887 l-4.938537180423737, 4.502783715724945 -5.374290347099304, 3.776528537273407 l-2.905021905899048, 1.3072597980499268 -2.7597707509994507, 0.726255476474762 l-5.810043811798096, 0.0 -2.7597707509994507, -0.726255476474762 l-2.6145195960998535, -1.452510952949524 -6.10054612159729, -5.374290347099304 l3.050273060798645, 3.050273060798645 1.0167576372623444, 2.7597707509994507 l-1.7430131137371063, 0.5810043588280678 -2.905021905899048, -0.726255476474762 l-6.391047835350037, -3.776528537273407 -3.9217793941497803, -3.3407750725746155 l-2.324017435312271, -3.4860262274742126 -1.3072597980499268, -3.776528537273407 l0.0, -3.3407750725746155 0.4357532784342766, -1.452510952949524 l1.1620087176561356, -1.0167576372623444 2.905021905899048, -0.726255476474762 l3.050273060798645, 0.14525108970701694 -4.648034870624542, -5.6647926568984985 l-1.0167576372623444, -2.4692685902118683 -0.2905021794140339, -4.793286025524139 l0.2905021794140339, -2.324017435312271 1.0167576372623444, -1.8882642686367035 l2.324017435312271, -2.324017435312271 1.3072597980499268, -0.4357532784342766 l2.324017435312271, 0.0 1.452510952949524, 1.452510952949524 l-0.726255476474762, -0.5810043588280678 -0.4357532784342766, -1.3072597980499268 l-0.2905021794140339, -3.776528537273407 0.726255476474762, -1.5977619588375092 l2.4692685902118683, -2.178766429424286 4.357532858848572, -0.726255476474762 l3.050273060798645, 0.0 1.8882642686367035, 1.0167576372623444 l2.7597707509994507, 0.0 m2.6145195960998535, 7.407805919647217 l-2.905021905899048, 1.0167576372623444 -5.810043811798096, 3.3407750725746155 l-1.1620087176561356, 1.1620087176561356 -1.5977619588375092, 3.050273060798645 l-2.178766429424286, 11.184333562850952 0.4357532784342766, 5.810043811798096 l-2.4692685902118683, 2.905021905899048 -0.2905021794140339, 1.0167576372623444 l0.0, 0.8715065568685532 1.7430131137371063, 1.0167576372623444 l5.519541501998901, 0.5810043588280678 4.357532858848572, 1.5977619588375092 l3.63127738237381, 0.14525108970701694 4.067030549049377, -2.4692685902118683 l6.681550145149231, -2.324017435312271 1.1620087176561356, -0.8715065568685532 l1.452510952949524, -2.178766429424286 0.0, -3.4860262274742126 l-0.726255476474762, -0.726255476474762 -2.905021905899048, -0.8715065568685532 l-0.14525108970701694, -7.553057074546814 -0.8715065568685532, -3.776528537273407 l-1.3072597980499268, -2.905021905899048 -6.10054612159729, -6.826801300048828 l-2.178766429424286, -1.1620087176561356 -1.1620087176561356, -0.14525108970701694 l-0.2905021794140339, 0.5810043588280678 m7.1173036098480225, 18.44688892364502 l10.893832445144653, -6.10054612159729 5.6647926568984985, -1.3072597980499268 l6.2457966804504395, 0.14525108970701694 1.8882642686367035, 1.5977619588375092 l0.4357532784342766, 1.8882642686367035 m-22.949671745300293, 8.279312252998352 l3.050273060798645, -0.726255476474762 5.374290347099304, -0.2905021794140339 l5.519541501998901, 0.0 2.4692685902118683, 0.4357532784342766 l2.0335152745246887, 0.5810043588280678 3.4860262274742126, 2.0335152745246887 l1.452510952949524, 2.7597707509994507 -0.14525108970701694, 1.5977619588375092 m-23.966429233551025, -6.10054612159729 l4.648034870624542, 0.8715065568685532 4.502783715724945, 2.6145195960998535 l5.6647926568984985, 6.10054612159729 1.8882642686367035, 4.212281703948975 l-1.3072597980499268, 0.2905021794140339 m-29.195468425750732, -12.636845111846924 l-2.905021905899048, -0.8715065568685532 -5.955294966697693, -2.905021905899048 l-5.955294966697693, -0.4357532784342766 -1.8882642686367035, 0.5810043588280678 l-2.4692685902118683, 2.324017435312271 -1.3072597980499268, 2.0335152745246887 l0.0, 1.0167576372623444 " fill="none" stroke="black" stroke-width="1" /></svg>