<?xml version="1.0" encoding="utf-8" ?>
<svg baseProfile="full" height="75.65349385142326" version="1.1" width="75.50824211910367" xmlns="http://www.w3.org/2000/svg" xmlns:ev="http://www.w3.org/2001/xml-events" xmlns:xlink="http://www.w3.org/1999/xlink"><defs /><rect fill="white" height="75.65349385142326" width="75.50824211910367" x="0" y="0" /><path d="M34.34072131291032, 25.625655595213175 m0.0, -3.1955239176750183 l-0.726255476474762, -0.4357532784342766 -5.955294966697693, 4.793286025524139 l-2.905021905899048, 3.9217793941497803 -3.050273060798645, 9.296069741249084 l-1.1620087176561356, 10.16757607460022 0.14525108970701694, 4.502783715724945 l1.5977619588375092, 5.519541501998901 2.178766429424286, 3.050273060798645 l2.6145195960998535, 2.0335152745246887 2.905021905899048, 1.1620087176561356 l3.050273060798645, 0.4357532784342766 10.893832445144653, -1.1620087176561356 l3.63127738237381, -2.7597707509994507 1.5977619588375092, -3.4860262274742126 l1.3072597980499268, -6.10054612159729 1.3072597980499268, -12.055840492248535 l0.0, -5.6647926568984985 -2.7597707509994507, -8.86031687259674 l-1.3072597980499268, -2.0335152745246887 -1.7430131137371063, -1.1620087176561356 l-2.4692685902118683, -0.5810043588280678 -8.569814562797546, -0.726255476474762 l-2.905021905899048, 0.2905021794140339 -1.5977619588375092, 0.726255476474762 l-0.5810043588280678, 1.3072597980499268 m-14.815611839294434, 24.256932735443115 l0.14525108970701694, 2.905021905899048 m6.391047835350037, 5.374290347099304 l-0.8715065568685532, 1.5977619588375092 -1.0167576372623444, 11.910589933395386 l-1.452510952949524, -1.7430131137371063 -1.0167576372623444, -2.324017435312271 l-2.905021905899048, -9.586572051048279 -0.5810043588280678, 0.726255476474762 l0.726255476474762, 4.793286025524139 -2.7597707509994507, -11.910589933395386 l0.4357532784342766, 5.08378803730011 -1.0167576372623444, 4.502783715724945 l-4.357532858848572, -12.782095670700073 -1.7430131137371063, -7.26255476474762 l2.4692685902118683, 9.296069741249084 -0.726255476474762, -10.16757607460022 l0.2905021794140339, -11.620087623596191 6.536298990249634, 6.826801300048828 l0.8715065568685532, -12.491593360900879 3.776528537273407, -7.407805919647217 l1.3072597980499268, 0.0 4.357532858848572, 4.357532858848572 l1.5977619588375092, -1.8882642686367035 8.279312252998352, -5.08378803730011 l1.5977619588375092, 4.067030549049377 0.726255476474762, -6.10054612159729 l1.8882642686367035, -4.938537180423737 6.826801300048828, 1.7430131137371063 l0.5810043588280678, -0.8715065568685532 11.184333562850952, 8.715065717697144 l9.586572051048279, -4.067030549049377 3.776528537273407, 9.441320896148682 l0.5810043588280678, 5.229039192199707 -2.6145195960998535, -1.7430131137371063 l-1.0167576372623444, 1.1620087176561356 0.2905021794140339, 5.374290347099304 l-1.7430131137371063, 11.474835872650146 -0.726255476474762, 1.3072597980499268 l4.067030549049377, 11.329585313796997 -4.067030549049377, 3.776528537273407 l-3.4860262274742126, -2.0335152745246887 -1.1620087176561356, 2.324017435312271 l0.5810043588280678, 2.905021905899048 -4.067030549049377, -1.3072597980499268 l0.5810043588280678, 5.810043811798096 -6.681550145149231, -0.726255476474762 l0.4357532784342766, 2.7597707509994507 -3.4860262274742126, -6.972052454948425 m-17.430131435394287, -9.296069741249084 l-0.14525108970701694, -3.3407750725746155 1.1620087176561356, -1.452510952949524 l2.324017435312271, -0.726255476474762 5.955294966697693, -0.4357532784342766 l1.0167576372623444, 0.14525108970701694 3.050273060798645, 2.0335152745246887 l1.7430131137371063, 2.4692685902118683 0.0, 1.452510952949524 l-1.452510952949524, 1.452510952949524 -4.648034870624542, 1.3072597980499268 l-6.10054612159729, -0.14525108970701694 -1.3072597980499268, -0.4357532784342766 l-0.5810043588280678, -1.452510952949524 0.0, -1.3072597980499268 " fill="none" stroke="black" stroke-width="1" /></svg>