<?xml version="1.0" encoding="utf-8" ?>
<svg baseProfile="full" height="54.8825872503221" version="1.1" width="111.38526344671845" xmlns="http://www.w3.org/2000/svg" xmlns:ev="http://www.w3.org/2001/xml-events" xmlns:xlink="http://www.w3.org/1999/xlink"><defs /><rect fill="white" height="54.8825872503221" width="111.38526344671845" x="0" y="0" /><path d="M19.525109035894275, 20.54186542518437 m-1.5977619588375092, 0.8715065568685532 l-0.5810043588280678, 1.3072597980499268 0.0, 1.452510952949524 l1.1620087176561356, 2.4692685902118683 1.1620087176561356, 1.1620087176561356 l0.726255476474762, 0.0 2.4692685902118683, -2.6145195960998535 l2.0335152745246887, -4.938537180423737 0.0, -1.8882642686367035 l-0.5810043588280678, -0.726255476474762 -0.4357532784342766, 0.0 m5.08378803730011, 3.4860262274742126 l-1.8882642686367035, 0.14525108970701694 -0.5810043588280678, 1.1620087176561356 l-1.0167576372623444, 5.810043811798096 0.2905021794140339, 4.938537180423737 l1.3072597980499268, 2.905021905899048 0.726255476474762, 0.14525108970701694 l2.324017435312271, -5.810043811798096 0.0, -3.3407750725746155 l-0.14525108970701694, -1.1620087176561356 -1.1620087176561356, -1.7430131137371063 l-2.0335152745246887, -2.0335152745246887 m-4.212281703948975, 11.910589933395386 l0.0, 5.6647926568984985 0.2905021794140339, 2.0335152745246887 l1.0167576372623444, 0.8715065568685532 m-0.14525108970701694, -1.452510952949524 l-1.0167576372623444, 0.14525108970701694 -1.5977619588375092, 1.3072597980499268 l-1.0167576372623444, 2.4692685902118683 m3.3407750725746155, -2.0335152745246887 l3.63127738237381, 0.2905021794140339 m1.8882642686367035, -0.4357532784342766 l-0.2905021794140339, 1.0167576372623444 -0.5810043588280678, -0.2905021794140339 m-6.2457966804504395, -29.921724796295166 l-1.8882642686367035, -1.1620087176561356 -4.793286025524139, -1.1620087176561356 l-0.4357532784342766, 1.3072597980499268 0.14525108970701694, 5.519541501998901 l0.4357532784342766, 2.7597707509994507 1.7430131137371063, 3.63127738237381 l-4.648034870624542, 0.14525108970701694 -3.4860262274742126, 1.1620087176561356 l-2.905021905899048, 2.4692685902118683 -1.0167576372623444, 2.6145195960998535 l0.0, 1.8882642686367035 0.2905021794140339, 0.5810043588280678 l1.3072597980499268, 0.4357532784342766 4.067030549049377, 0.2905021794140339 l-1.0167576372623444, 0.4357532784342766 -2.4692685902118683, 2.905021905899048 l-0.726255476474762, 2.905021905899048 0.4357532784342766, 1.3072597980499268 l2.905021905899048, 0.5810043588280678 2.905021905899048, -0.14525108970701694 l1.7430131137371063, -1.1620087176561356 0.4357532784342766, -0.8715065568685532 l0.5810043588280678, 0.0 0.726255476474762, 3.050273060798645 l1.7430131137371063, 3.776528537273407 4.938537180423737, 2.905021905899048 l4.357532858848572, 0.0 1.1620087176561356, -0.726255476474762 l8.134061098098755, -2.0335152745246887 0.726255476474762, 0.0 l0.5810043588280678, 1.8882642686367035 6.391047835350037, -6.681550145149231 l1.3072597980499268, -0.5810043588280678 0.8715065568685532, -1.0167576372623444 l0.726255476474762, -1.3072597980499268 -0.5810043588280678, 0.2905021794140339 l-0.8715065568685532, -1.8882642686367035 -6.391047835350037, -14.960862398147583 l0.0, -0.5810043588280678 2.178766429424286, -0.5810043588280678 l2.905021905899048, -1.5977619588375092 1.8882642686367035, -2.0335152745246887 l-1.3072597980499268, -1.1620087176561356 -6.391047835350037, -2.905021905899048 l-5.810043811798096, -3.63127738237381 -5.08378803730011, -2.0335152745246887 l-3.1955239176750183, -2.7597707509994507 -1.8882642686367035, -0.5810043588280678 l-2.7597707509994507, 0.0 m20.33515214920044, 20.04465103149414 l0.5810043588280678, -2.178766429424286 3.3407750725746155, -2.324017435312271 l4.212281703948975, -0.726255476474762 58.10043811798096, 0.0 l0.0, 2.324017435312271 -2.905021905899048, 2.178766429424286 l-1.5977619588375092, 0.726255476474762 -5.810043811798096, 0.4357532784342766 l-6.972052454948425, 2.905021905899048 -2.905021905899048, 1.5977619588375092 l-6.826801300048828, 5.955294966697693 -4.357532858848572, 2.6145195960998535 l-4.793286025524139, 1.452510952949524 -5.6647926568984985, 0.14525108970701694 l-2.178766429424286, 0.8715065568685532 -2.0335152745246887, 0.0 l-1.1620087176561356, -0.5810043588280678 " fill="none" stroke="black" stroke-width="1" /></svg>