<?xml version="1.0" encoding="utf-8" ?>
<svg baseProfile="full" height="61.854640105739236" version="1.1" width="80.01102677546442" xmlns="http://www.w3.org/2000/svg" xmlns:ev="http://www.w3.org/2001/xml-events" xmlns:xlink="http://www.w3.org/1999/xlink"><defs /><rect fill="white" height="61.854640105739236" width="80.01102677546442" x="0" y="0" /><path d="M5.145251089707017, 48.13957380130887 m-0.14525108970701694, -7.698307633399963 l0.726255476474762, -2.7597707509994507 2.7597707509994507, -4.938537180423737 l1.7430131137371063, -2.0335152745246887 1.8882642686367035, -1.3072597980499268 l4.648034870624542, -1.8882642686367035 3.63127738237381, -0.726255476474762 l31.664738655090332, -2.178766429424286 m-0.4357532784342766, -10.16757607460022 l-0.14525108970701694, -0.8715065568685532 -0.726255476474762, -0.5810043588280678 l-3.9217793941497803, 0.2905021794140339 -0.2905021794140339, -0.726255476474762 l0.4357532784342766, -1.3072597980499268 2.324017435312271, -2.0335152745246887 l6.391047835350037, -3.3407750725746155 -2.6145195960998535, 2.178766429424286 l7.1173036098480225, -2.178766429424286 6.681550145149231, -0.8715065568685532 l-0.14525108970701694, 0.726255476474762 -2.324017435312271, 1.3072597980499268 l7.988809943199158, -0.2905021794140339 2.0335152745246887, 1.0167576372623444 l0.14525108970701694, 1.1620087176561356 -0.2905021794140339, 1.3072597980499268 l-2.7597707509994507, 3.050273060798645 -1.0167576372623444, 1.8882642686367035 l3.9217793941497803, 1.0167576372623444 0.5810043588280678, 2.0335152745246887 l-3.050273060798645, 6.536298990249634 -0.14525108970701694, 1.5977619588375092 l0.726255476474762, 2.324017435312271 -0.5810043588280678, 2.0335152745246887 l-2.6145195960998535, 3.050273060798645 -5.6647926568984985, 3.3407750725746155 l-6.826801300048828, 2.0335152745246887 -3.776528537273407, 0.14525108970701694 l-0.726255476474762, -0.2905021794140339 -0.14525108970701694, -4.067030549049377 l-0.726255476474762, -1.7430131137371063 -1.0167576372623444, -0.726255476474762 l-2.6145195960998535, -0.5810043588280678 -0.4357532784342766, -1.0167576372623444 l0.14525108970701694, -2.7597707509994507 3.1955239176750183, -6.391047835350037 l-1.5977619588375092, -0.4357532784342766 1.3072597980499268, -6.2457966804504395 l0.14525108970701694, -1.7430131137371063 -0.726255476474762, 0.5810043588280678 m15.251364707946777, -0.14525108970701694 l-3.63127738237381, -1.0167576372623444 -6.536298990249634, 0.8715065568685532 l-6.10054612159729, 2.324017435312271 -3.050273060798645, 2.324017435312271 l1.5977619588375092, 6.681550145149231 1.1620087176561356, 2.0335152745246887 l3.4860262274742126, 2.324017435312271 5.519541501998901, 1.3072597980499268 l3.3407750725746155, 0.14525108970701694 0.726255476474762, -0.4357532784342766 l3.9217793941497803, -4.648034870624542 2.324017435312271, -4.793286025524139 l0.2905021794140339, -2.4692685902118683 -0.8715065568685532, -1.7430131137371063 l-5.519541501998901, -3.1955239176750183 m-6.972052454948425, 4.212281703948975 l0.4357532784342766, 0.0 m5.519541501998901, 0.14525108970701694 l-0.4357532784342766, 0.4357532784342766 m-5.519541501998901, 5.374290347099304 l3.050273060798645, 0.5810043588280678 2.6145195960998535, -1.452510952949524 m-1.1620087176561356, -2.0335152745246887 l1.5977619588375092, 0.0 0.5810043588280678, -0.5810043588280678 m-2.4692685902118683, 1.5977619588375092 l2.178766429424286, -0.726255476474762 m-4.357532858848572, -0.726255476474762 l-0.5810043588280678, -1.5977619588375092 -0.5810043588280678, -0.2905021794140339 m-2.4692685902118683, 2.324017435312271 l-2.324017435312271, 0.14525108970701694 m2.178766429424286, 0.8715065568685532 l-1.452510952949524, 1.7430131137371063 m3.1955239176750183, -0.8715065568685532 l0.14525108970701694, 0.8715065568685532 -1.0167576372623444, 2.0335152745246887 m-41.39656066894531, 15.541867017745972 l14.960862398147583, 0.5810043588280678 10.603330135345459, -2.4692685902118683 l15.541867017745972, -0.5810043588280678 m-7.698307633399963, 0.726255476474762 l0.14525108970701694, 11.329585313796997 0.8715065568685532, 6.2457966804504395 m0.4357532784342766, -17.86588430404663 l0.726255476474762, 4.212281703948975 0.0, 7.553057074546814 l-0.4357532784342766, 2.4692685902118683 -2.324017435312271, 0.726255476474762 m-26.29044771194458, -10.312827825546265 l0.0, 9.586572051048279 0.726255476474762, 1.8882642686367035 l0.8715065568685532, 0.2905021794140339 0.8715065568685532, -1.0167576372623444 l1.8882642686367035, -4.067030549049377 0.0, -3.050273060798645 l-1.8882642686367035, -7.988809943199158 -0.726255476474762, 0.14525108970701694 l-0.5810043588280678, 2.6145195960998535 " fill="none" stroke="black" stroke-width="1" /></svg>