<?xml version="1.0" encoding="utf-8" ?>
<svg baseProfile="full" height="34.25693252123892" version="1.1" width="39.050218714401126" xmlns="http://www.w3.org/2000/svg" xmlns:ev="http://www.w3.org/2001/xml-events" xmlns:xlink="http://www.w3.org/1999/xlink"><defs /><rect fill="white" height="34.25693252123892" width="39.050218714401126" x="0" y="0" /><path d="M11.826802073046565, 19.23460696823895 m-0.726255476474762, 0.2905021794140339 l-1.7430131137371063, 2.178766429424286 0.4357532784342766, 3.63127738237381 l1.5977619588375092, 1.7430131137371063 3.1955239176750183, 1.8882642686367035 l4.648034870624542, 0.2905021794140339 6.2457966804504395, -2.0335152745246887 l0.8715065568685532, -3.050273060798645 0.0, -2.7597707509994507 l-1.7430131137371063, -2.905021905899048 -2.4692685902118683, -1.452510952949524 l-2.324017435312271, -0.14525108970701694 -8.42456340789795, 2.0335152745246887 m-3.4860262274742126, 4.938537180423737 l0.14525108970701694, -3.3407750725746155 -3.050273060798645, -3.63127738237381 l0.0, -1.452510952949524 0.8715065568685532, -1.3072597980499268 l0.8715065568685532, 2.4692685902118683 1.8882642686367035, 2.7597707509994507 l0.4357532784342766, -0.726255476474762 -1.452510952949524, -4.067030549049377 l0.0, -2.4692685902118683 0.14525108970701694, -0.726255476474762 l1.452510952949524, -1.452510952949524 2.324017435312271, -0.8715065568685532 l-0.2905021794140339, 1.7430131137371063 4.502783715724945, -4.648034870624542 l1.5977619588375092, -1.1620087176561356 0.726255476474762, 0.0 l1.0167576372623444, 1.452510952949524 0.4357532784342766, 2.905021905899048 l-4.648034870624542, 4.648034870624542 1.7430131137371063, 1.1620087176561356 l1.0167576372623444, 0.14525108970701694 0.8715065568685532, -0.14525108970701694 l3.050273060798645, -2.0335152745246887 2.0335152745246887, -2.4692685902118683 l2.0335152745246887, -1.5977619588375092 3.776528537273407, -1.3072597980499268 l0.4357532784342766, 1.452510952949524 -2.7597707509994507, 3.050273060798645 l4.357532858848572, 0.2905021794140339 1.452510952949524, 0.726255476474762 l1.1620087176561356, 1.5977619588375092 -0.14525108970701694, 0.726255476474762 l-0.8715065568685532, 0.5810043588280678 -2.324017435312271, 0.4357532784342766 l2.6145195960998535, 4.502783715724945 0.0, 0.726255476474762 l-0.726255476474762, 0.0 -0.2905021794140339, 0.726255476474762 l0.0, 2.6145195960998535 0.726255476474762, 2.178766429424286 l-0.726255476474762, -0.14525108970701694 -0.14525108970701694, -0.726255476474762 l-2.178766429424286, 1.5977619588375092 -4.648034870624542, -2.178766429424286 l-1.452510952949524, 2.4692685902118683 m2.7597707509994507, -8.42456340789795 l0.0, -0.726255476474762 " fill="none" stroke="black" stroke-width="1" /></svg>