<?xml version="1.0" encoding="utf-8" ?>
<svg baseProfile="full" height="71.87696731649339" version="1.1" width="113.99978680536151" xmlns="http://www.w3.org/2000/svg" xmlns:ev="http://www.w3.org/2001/xml-events" xmlns:xlink="http://www.w3.org/1999/xlink"><defs /><rect fill="white" height="71.87696731649339" width="113.99978680536151" x="0" y="0" /><path d="M33.178711365908384, 29.692686013877392 m-1.452510952949524, -1.5977619588375092 l-1.5977619588375092, -0.8715065568685532 -5.374290347099304, -0.2905021794140339 l-4.938537180423737, 2.6145195960998535 -1.452510952949524, 1.3072597980499268 l-3.1955239176750183, 4.793286025524139 -1.0167576372623444, 4.212281703948975 l0.0, 3.9217793941497803 0.5810043588280678, 2.0335152745246887 l1.0167576372623444, 1.7430131137371063 2.7597707509994507, 2.905021905899048 l3.63127738237381, 2.0335152745246887 4.357532858848572, 0.8715065568685532 l4.793286025524139, 0.0 4.212281703948975, -1.3072597980499268 l1.7430131137371063, -1.1620087176561356 2.7597707509994507, -2.905021905899048 l2.0335152745246887, -3.63127738237381 0.4357532784342766, -4.938537180423737 l-1.1620087176561356, -1.5977619588375092 -6.10054612159729, -5.955294966697693 l-4.793286025524139, -3.050273060798645 m-20.916156768798828, 17.72063374519348 l-2.178766429424286, -0.726255476474762 -1.452510952949524, -3.050273060798645 l-0.5810043588280678, -2.7597707509994507 -0.2905021794140339, -8.42456340789795 l0.726255476474762, -4.212281703948975 1.3072597980499268, -3.63127738237381 l3.776528537273407, -6.681550145149231 3.3407750725746155, -3.050273060798645 l1.8882642686367035, 0.0 2.4692685902118683, 1.7430131137371063 l2.178766429424286, 0.0 3.63127738237381, -1.452510952949524 l8.279312252998352, -5.519541501998901 7.553057074546814, -3.4860262274742126 l3.63127738237381, -0.2905021794140339 0.4357532784342766, 1.7430131137371063 l-0.14525108970701694, 4.067030549049377 -1.8882642686367035, 8.279312252998352 l-0.14525108970701694, 4.938537180423737 1.3072597980499268, 0.726255476474762 l2.4692685902118683, -0.4357532784342766 9.296069741249084, -5.374290347099304 l2.6145195960998535, -0.5810043588280678 0.0, 1.8882642686367035 l-7.8435587882995605, 15.106114149093628 -1.3072597980499268, 3.4860262274742126 l0.14525108970701694, 2.4692685902118683 3.050273060798645, -0.726255476474762 l9.731823205947876, -5.08378803730011 1.452510952949524, -0.14525108970701694 l-0.726255476474762, 3.1955239176750183 -13.798853158950806, 21.787664890289307 l-0.2905021794140339, 0.726255476474762 1.8882642686367035, -1.7430131137371063 l1.0167576372623444, -2.0335152745246887 -3.9217793941497803, 0.4357532784342766 l-13.798853158950806, 8.569814562797546 -2.905021905899048, 0.5810043588280678 l-1.5977619588375092, -0.14525108970701694 -0.8715065568685532, -2.324017435312271 l-0.2905021794140339, -6.2457966804504395 -1.0167576372623444, -2.178766429424286 l-1.8882642686367035, -0.8715065568685532 -3.4860262274742126, 0.2905021794140339 l-8.134061098098755, 2.905021905899048 -4.793286025524139, 0.2905021794140339 l-1.3072597980499268, -1.8882642686367035 -0.2905021794140339, -3.050273060798645 l0.0, -4.502783715724945 1.5977619588375092, -7.407805919647217 m45.173091888427734, -4.938537180423737 l8.42456340789795, -5.6647926568984985 7.553057074546814, -3.9217793941497803 l7.988809943199158, -2.6145195960998535 5.810043811798096, -0.8715065568685532 l8.279312252998352, 0.0 6.972052454948425, 2.0335152745246887 l1.5977619588375092, 1.0167576372623444 2.7597707509994507, 2.324017435312271 l2.178766429424286, 2.6145195960998535 3.776528537273407, 6.391047835350037 l0.14525108970701694, 6.391047835350037 -3.1955239176750183, 5.810043811798096 l-2.7597707509994507, 2.4692685902118683 -6.2457966804504395, 2.6145195960998535 l-4.938537180423737, 0.5810043588280678 -8.86031687259674, 0.0 l-3.9217793941497803, -1.1620087176561356 " fill="none" stroke="black" stroke-width="1" /></svg>