<?xml version="1.0" encoding="utf-8" ?>
<svg baseProfile="full" height="59.09486871212721" version="1.1" width="89.4523465167731" xmlns="http://www.w3.org/2000/svg" xmlns:ev="http://www.w3.org/2001/xml-events" xmlns:xlink="http://www.w3.org/1999/xlink"><defs /><rect fill="white" height="59.09486871212721" width="89.4523465167731" x="0" y="0" /><path d="M22.139628352597356, 29.402182837948203 m-0.4357532784342766, 0.8715065568685532 l0.0, 2.905021905899048 1.3072597980499268, 3.1955239176750183 l2.905021905899048, 2.6145195960998535 3.050273060798645, 1.3072597980499268 l5.374290347099304, -0.2905021794140339 3.050273060798645, -2.0335152745246887 l2.4692685902118683, -2.324017435312271 0.5810043588280678, -2.905021905899048 l-0.5810043588280678, -3.4860262274742126 -2.0335152745246887, -1.8882642686367035 l-10.16757607460022, -1.0167576372623444 -1.3072597980499268, 0.4357532784342766 l-3.63127738237381, 2.6145195960998535 m2.324017435312271, 2.178766429424286 l-0.14525108970701694, -0.726255476474762 2.4692685902118683, 0.726255476474762 l-0.726255476474762, 0.2905021794140339 0.0, -0.4357532784342766 m7.553057074546814, 0.8715065568685532 l-1.0167576372623444, 0.0 -0.726255476474762, -0.5810043588280678 l1.0167576372623444, -0.726255476474762 1.7430131137371063, 0.0 l0.8715065568685532, 0.5810043588280678 0.0, 0.726255476474762 l-1.3072597980499268, 0.0 m-8.86031687259674, 2.7597707509994507 l3.050273060798645, 1.8882642686367035 3.776528537273407, 0.0 l1.3072597980499268, -1.0167576372623444 m-7.407805919647217, -13.508352041244507 l-2.178766429424286, -1.8882642686367035 -19.463646411895752, 4.938537180423737 l1.452510952949524, 1.1620087176561356 5.810043811798096, 2.4692685902118683 l2.4692685902118683, 1.7430131137371063 -0.14525108970701694, 0.726255476474762 l-4.212281703948975, 1.5977619588375092 -1.8882642686367035, 1.3072597980499268 l-0.726255476474762, 1.0167576372623444 -0.2905021794140339, 1.5977619588375092 l1.452510952949524, 0.14525108970701694 8.569814562797546, -1.3072597980499268 l0.2905021794140339, 1.452510952949524 -5.229039192199707, 10.893832445144653 l2.178766429424286, -0.5810043588280678 6.681550145149231, -3.9217793941497803 l-0.4357532784342766, 10.312827825546265 1.1620087176561356, -0.726255476474762 l6.972052454948425, -8.715065717697144 3.9217793941497803, 8.134061098098755 l1.5977619588375092, -5.519541501998901 4.502783715724945, -7.988809943199158 l0.726255476474762, -0.4357532784342766 5.229039192199707, 6.536298990249634 l4.648034870624542, 3.63127738237381 -0.726255476474762, -1.1620087176561356 l-2.0335152745246887, -11.474835872650146 9.586572051048279, -2.178766429424286 l3.1955239176750183, -1.8882642686367035 -0.2905021794140339, -1.5977619588375092 l-2.324017435312271, -0.4357532784342766 -7.553057074546814, 0.0 l-0.4357532784342766, -0.726255476474762 0.14525108970701694, -1.8882642686367035 l4.793286025524139, -8.279312252998352 1.3072597980499268, -3.050273060798645 l0.2905021794140339, -3.3407750725746155 -0.726255476474762, -0.4357532784342766 l-4.793286025524139, 3.63127738237381 -7.988809943199158, 4.212281703948975 l-2.4692685902118683, 0.8715065568685532 -0.5810043588280678, -1.1620087176561356 l0.4357532784342766, -10.16757607460022 -0.8715065568685532, -2.7597707509994507 l-2.0335152745246887, -2.178766429424286 -1.5977619588375092, 2.6145195960998535 l-6.10054612159729, 13.653602600097656 -0.726255476474762, -0.2905021794140339 l-3.63127738237381, -4.793286025524139 -0.2905021794140339, 2.7597707509994507 m30.502729415893555, 9.877074360847473 l0.14525108970701694, -2.324017435312271 5.08378803730011, -3.63127738237381 l4.793286025524139, -1.452510952949524 5.519541501998901, 0.4357532784342766 l5.955294966697693, 3.050273060798645 5.229039192199707, 4.648034870624542 l2.324017435312271, 4.067030549049377 0.5810043588280678, 4.938537180423737 l0.0, 4.212281703948975 -0.726255476474762, 2.4692685902118683 l-1.1620087176561356, 1.452510952949524 -3.1955239176750183, 1.1620087176561356 l-15.541867017745972, 0.14525108970701694 -3.050273060798645, -0.726255476474762 l-5.519541501998901, -2.4692685902118683 " fill="none" stroke="black" stroke-width="1" /></svg>