<?xml version="1.0" encoding="utf-8" ?>
<svg baseProfile="full" height="76.23449788428843" version="1.1" width="95.26239194907248" xmlns="http://www.w3.org/2000/svg" xmlns:ev="http://www.w3.org/2001/xml-events" xmlns:xlink="http://www.w3.org/1999/xlink"><defs /><rect fill="white" height="76.23449788428843" width="95.26239194907248" x="0" y="0" /><path d="M40.29601546935737, 10.8100441750139 m1.0167576372623444, -1.3072597980499268 l2.7597707509994507, -1.7430131137371063 5.374290347099304, -1.3072597980499268 l6.681550145149231, -0.14525108970701694 7.553057074546814, 1.8882642686367035 l0.2905021794140339, 1.452510952949524 -1.0167576372623444, 2.0335152745246887 l0.4357532784342766, 0.8715065568685532 4.502783715724945, 1.452510952949524 l11.910589933395386, 2.324017435312271 0.2905021794140339, 0.726255476474762 l-1.7430131137371063, 1.3072597980499268 -0.14525108970701694, 2.6145195960998535 l2.178766429424286, 2.324017435312271 6.681550145149231, 4.067030549049377 l0.8715065568685532, 1.0167576372623444 -0.2905021794140339, 1.8882642686367035 l-3.3407750725746155, 4.502783715724945 -1.7430131137371063, 4.212281703948975 l0.14525108970701694, 2.324017435312271 1.3072597980499268, 1.5977619588375092 l-7.8435587882995605, 1.8882642686367035 2.4692685902118683, 1.0167576372623444 l11.620087623596191, 0.0 -11.620087623596191, 3.4860262274742126 l-16.8491268157959, 3.4860262274742126 -4.793286025524139, 1.5977619588375092 l-11.184333562850952, 1.452510952949524 -10.312827825546265, 0.5810043588280678 l-6.10054612159729, -0.2905021794140339 -2.178766429424286, -0.726255476474762 l-0.14525108970701694, -4.793286025524139 0.5810043588280678, -7.407805919647217 l-0.8715065568685532, -4.502783715724945 -1.7430131137371063, -5.6647926568984985 l-1.452510952949524, -3.1955239176750183 -1.8882642686367035, -2.4692685902118683 l10.893832445144653, -16.12287163734436 4.938537180423737, -5.374290347099304 l1.452510952949524, -0.8715065568685532 1.8882642686367035, 1.0167576372623444 l5.519541501998901, 1.0167576372623444 2.324017435312271, 2.0335152745246887 m-2.6145195960998535, 15.251364707946777 l-1.0167576372623444, 1.5977619588375092 0.14525108970701694, 2.4692685902118683 l2.4692685902118683, 3.4860262274742126 3.1955239176750183, 2.324017435312271 l2.7597707509994507, 1.3072597980499268 1.452510952949524, 0.0 l1.8882642686367035, -1.0167576372623444 1.5977619588375092, -2.7597707509994507 l-0.5810043588280678, -4.212281703948975 -1.7430131137371063, -5.229039192199707 l-3.4860262274742126, -2.905021905899048 -3.050273060798645, -0.14525108970701694 l-2.324017435312271, 1.7430131137371063 -1.8882642686367035, 3.1955239176750183 l-0.14525108970701694, 2.324017435312271 0.4357532784342766, 0.8715065568685532 m3.3407750725746155, -2.6145195960998535 l-1.0167576372623444, 0.2905021794140339 m0.0, 0.0 l0.0, 0.0 m4.212281703948975, 0.0 l1.0167576372623444, -0.14525108970701694 m0.0, 0.0 l-1.1620087176561356, -0.4357532784342766 m-5.6647926568984985, -2.324017435312271 l-3.3407750725746155, -4.212281703948975 -2.4692685902118683, -1.7430131137371063 l-0.5810043588280678, 0.726255476474762 -0.726255476474762, 7.407805919647217 l1.0167576372623444, 0.2905021794140339 5.6647926568984985, -1.1620087176561356 m9.586572051048279, -3.3407750725746155 l3.776528537273407, -3.4860262274742126 0.8715065568685532, 0.2905021794140339 l3.3407750725746155, 4.502783715724945 -0.2905021794140339, 0.8715065568685532 l-2.178766429424286, 1.3072597980499268 -1.7430131137371063, 0.0 l-1.8882642686367035, -0.8715065568685532 -1.452510952949524, 0.14525108970701694 m-29.631223678588867, 13.653602600097656 l-8.279312252998352, -3.1955239176750183 -3.3407750725746155, 0.0 l-4.502783715724945, 2.0335152745246887 -0.5810043588280678, 0.726255476474762 l-1.7430131137371063, 7.1173036098480225 -1.8882642686367035, 5.374290347099304 l-0.2905021794140339, 8.279312252998352 -0.8715065568685532, 5.229039192199707 l0.0, 1.5977619588375092 2.0335152745246887, 3.050273060798645 l5.229039192199707, 4.502783715724945 2.0335152745246887, -0.4357532784342766 l1.8882642686367035, -1.1620087176561356 5.955294966697693, -0.726255476474762 l1.8882642686367035, -0.726255476474762 0.8715065568685532, -0.5810043588280678 l-0.4357532784342766, -6.2457966804504395 0.4357532784342766, -6.10054612159729 l0.5810043588280678, -2.0335152745246887 " fill="none" stroke="black" stroke-width="1" /></svg>