<?xml version="1.0" encoding="utf-8" ?>
<svg baseProfile="full" height="64.759661834687" version="1.1" width="68.97194366902113" xmlns="http://www.w3.org/2000/svg" xmlns:ev="http://www.w3.org/2001/xml-events" xmlns:xlink="http://www.w3.org/1999/xlink"><defs /><rect fill="white" height="64.759661834687" width="68.97194366902113" x="0" y="0" /><path d="M28.675928004086018, 7.033515619114041 m-5.229039192199707, 0.0 l-3.776528537273407, 1.452510952949524 -2.4692685902118683, 2.324017435312271 l-3.1955239176750183, 5.955294966697693 -2.4692685902118683, 2.324017435312271 l-1.5977619588375092, 0.8715065568685532 -1.8882642686367035, 2.324017435312271 l-2.4692685902118683, 8.279312252998352 -0.5810043588280678, 6.972052454948425 l2.4692685902118683, 4.067030549049377 2.178766429424286, 2.324017435312271 l2.178766429424286, 5.08378803730011 7.1173036098480225, 7.988809943199158 l2.7597707509994507, 1.452510952949524 4.938537180423737, 0.14525108970701694 l3.050273060798645, 1.1620087176561356 3.4860262274742126, 0.0 l1.5977619588375092, -0.726255476474762 5.6647926568984985, -4.212281703948975 l0.5810043588280678, -0.8715065568685532 1.7430131137371063, -0.8715065568685532 l4.938537180423737, 0.0 3.1955239176750183, -0.2905021794140339 l1.452510952949524, -0.5810043588280678 6.826801300048828, -3.63127738237381 l2.6145195960998535, -2.4692685902118683 1.3072597980499268, -3.3407750725746155 l0.8715065568685532, -4.357532858848572 0.0, -9.586572051048279 l-1.452510952949524, -3.3407750725746155 -3.63127738237381, -5.374290347099304 l-0.726255476474762, -0.8715065568685532 -3.050273060798645, -1.7430131137371063 l-10.458078384399414, -4.648034870624542 -2.4692685902118683, -4.212281703948975 l-2.324017435312271, -1.452510952949524 -11.76533818244934, -2.178766429424286 m17.575381994247437, 19.318394660949707 l1.8882642686367035, -6.536298990249634 0.14525108970701694, -2.4692685902118683 l-3.3407750725746155, -0.4357532784342766 -1.5977619588375092, 2.4692685902118683 l-1.7430131137371063, 4.357532858848572 -1.5977619588375092, 1.1620087176561356 l-4.502783715724945, 0.726255476474762 -2.4692685902118683, -0.5810043588280678 l0.0, -5.08378803730011 -0.5810043588280678, -1.452510952949524 l-0.8715065568685532, -0.5810043588280678 -0.726255476474762, 0.4357532784342766 l-2.7597707509994507, 2.324017435312271 -2.324017435312271, 3.63127738237381 l-1.8882642686367035, 5.08378803730011 -0.5810043588280678, 2.905021905899048 l-0.2905021794140339, 5.955294966697693 -0.8715065568685532, 0.5810043588280678 l-2.178766429424286, -0.4357532784342766 -1.452510952949524, 1.1620087176561356 l-4.502783715724945, 8.569814562797546 -0.14525108970701694, 4.502783715724945 l2.0335152745246887, 2.6145195960998535 3.4860262274742126, 2.905021905899048 l4.067030549049377, 0.726255476474762 11.184333562850952, 0.0 l4.648034870624542, -1.7430131137371063 3.4860262274742126, -2.324017435312271 l4.357532858848572, -4.793286025524139 0.5810043588280678, -2.324017435312271 l0.0, -10.603330135345459 0.726255476474762, -3.776528537273407 l0.0, -5.519541501998901 -1.5977619588375092, -3.4860262274742126 m-18.301637172698975, 20.770905017852783 l2.6145195960998535, 0.5810043588280678 3.9217793941497803, -0.14525108970701694 l1.1620087176561356, -0.4357532784342766 3.63127738237381, -3.4860262274742126 l0.4357532784342766, 0.8715065568685532 0.0, 3.3407750725746155 l-1.3072597980499268, -1.5977619588375092 m1.1620087176561356, -13.363100290298462 l-0.14525108970701694, 2.178766429424286 m-5.6647926568984985, -1.452510952949524 l-0.2905021794140339, 1.7430131137371063 -0.726255476474762, 0.5810043588280678 m28.614466190338135, -4.067030549049377 l0.0, 0.0 " fill="none" stroke="black" stroke-width="1" /></svg>