<?xml version="1.0" encoding="utf-8" ?>
<svg baseProfile="full" height="53.284826604649425" version="1.1" width="73.7652295269072" xmlns="http://www.w3.org/2000/svg" xmlns:ev="http://www.w3.org/2001/xml-events" xmlns:xlink="http://www.w3.org/1999/xlink"><defs /><rect fill="white" height="53.284826604649425" width="73.7652295269072" x="0" y="0" /><path d="M6.597762797027826, 22.139629907906055 m2.0335152745246887, 0.14525108970701694 l3.3407750725746155, 1.3072597980499268 4.793286025524139, 1.0167576372623444 l12.782095670700073, 1.1620087176561356 7.988809943199158, -3.050273060798645 l4.793286025524139, -2.6145195960998535 5.229039192199707, 0.4357532784342766 l1.452510952949524, -1.0167576372623444 1.8882642686367035, -5.955294966697693 l2.324017435312271, -1.5977619588375092 5.810043811798096, -1.0167576372623444 l3.9217793941497803, 0.0 2.324017435312271, 0.8715065568685532 l1.452510952949524, 1.1620087176561356 1.3072597980499268, 2.4692685902118683 l0.726255476474762, 3.3407750725746155 0.0, 3.1955239176750183 l-0.5810043588280678, 1.5977619588375092 -4.212281703948975, 5.810043811798096 l-0.14525108970701694, 1.3072597980499268 m3.1955239176750183, -6.972052454948425 l-4.212281703948975, 0.0 -1.1620087176561356, -0.8715065568685532 m5.374290347099304, -4.938537180423737 l-1.0167576372623444, -1.0167576372623444 m-3.1955239176750183, 12.927347421646118 l-5.229039192199707, 3.3407750725746155 -2.178766429424286, 0.5810043588280678 l-3.63127738237381, 0.14525108970701694 -5.955294966697693, -0.8715065568685532 l-0.5810043588280678, 2.6145195960998535 0.4357532784342766, 9.00556743144989 l-1.0167576372623444, 3.3407750725746155 -1.0167576372623444, -1.1620087176561356 l-0.726255476474762, -6.391047835350037 0.0, -6.391047835350037 l-0.726255476474762, 0.14525108970701694 -1.8882642686367035, 1.8882642686367035 l-0.726255476474762, 5.519541501998901 0.0, 6.10054612159729 l-0.726255476474762, 0.5810043588280678 -0.726255476474762, -0.14525108970701694 l-0.8715065568685532, -1.0167576372623444 -1.1620087176561356, -4.357532858848572 l0.14525108970701694, -5.229039192199707 0.5810043588280678, -3.1955239176750183 l-3.050273060798645, 0.4357532784342766 -5.810043811798096, 2.324017435312271 l-12.782095670700073, 1.5977619588375092 -1.0167576372623444, -0.5810043588280678 l-4.067030549049377, -5.810043811798096 -0.4357532784342766, 1.0167576372623444 l0.0, 3.63127738237381 0.8715065568685532, 4.648034870624542 l0.0, 4.212281703948975 -1.0167576372623444, -3.1955239176750183 l-0.2905021794140339, -7.988809943199158 -0.8715065568685532, -3.050273060798645 l-1.1620087176561356, 1.3072597980499268 -1.5977619588375092, 7.698307633399963 l-0.5810043588280678, -0.726255476474762 0.0, -13.94410490989685 m45.0278377532959, -12.20109224319458 l-1.0167576372623444, 0.14525108970701694 -3.1955239176750183, 3.050273060798645 l1.1620087176561356, -5.810043811798096 m0.4357532784342766, -3.050273060798645 l-2.6145195960998535, 6.2457966804504395 -1.3072597980499268, 1.7430131137371063 l0.14525108970701694, 0.8715065568685532 2.178766429424286, 1.3072597980499268 l2.178766429424286, 0.2905021794140339 4.067030549049377, -0.726255476474762 l0.8715065568685532, -0.8715065568685532 -1.0167576372623444, -0.726255476474762 l-19.6088969707489, 0.4357532784342766 2.0335152745246887, -1.5977619588375092 l8.86031687259674, -4.067030549049377 0.8715065568685532, -0.5810043588280678 l0.726255476474762, -1.5977619588375092 -0.5810043588280678, 5.519541501998901 l0.0, 2.0335152745246887 0.4357532784342766, 0.726255476474762 l1.5977619588375092, 0.0 3.3407750725746155, -3.776528537273407 l0.5810043588280678, -2.324017435312271 -0.726255476474762, -0.2905021794140339 l-5.229039192199707, 0.14525108970701694 -5.374290347099304, 1.1620087176561356 l-2.0335152745246887, 1.5977619588375092 4.357532858848572, 0.5810043588280678 l0.2905021794140339, 0.726255476474762 -1.1620087176561356, 2.324017435312271 l-2.4692685902118683, 2.178766429424286 1.1620087176561356, 0.2905021794140339 l5.519541501998901, -2.324017435312271 -0.4357532784342766, 4.938537180423737 l3.3407750725746155, 0.4357532784342766 1.1620087176561356, -0.4357532784342766 l2.0335152745246887, -2.4692685902118683 1.7430131137371063, -4.648034870624542 m1.7430131137371063, -5.810043811798096 l-1.0167576372623444, -1.1620087176561356 -2.6145195960998535, -1.5977619588375092 l-3.1955239176750183, -1.3072597980499268 -2.178766429424286, -0.2905021794140339 l-0.8715065568685532, 0.726255476474762 0.2905021794140339, 2.0335152745246887 l2.7597707509994507, 1.7430131137371063 5.6647926568984985, 1.452510952949524 l5.519541501998901, -0.2905021794140339 0.5810043588280678, -0.726255476474762 l-0.8715065568685532, -0.2905021794140339 -1.1620087176561356, 1.5977619588375092 l0.726255476474762, -0.14525108970701694 0.5810043588280678, -1.0167576372623444 l1.1620087176561356, -3.1955239176750183 -1.7430131137371063, 0.0 l-1.5977619588375092, 0.8715065568685532 0.4357532784342766, -2.178766429424286 l-1.0167576372623444, -0.5810043588280678 -1.1620087176561356, 0.14525108970701694 l-3.4860262274742126, 1.7430131137371063 -2.178766429424286, 3.1955239176750183 l0.8715065568685532, 0.5810043588280678 1.1620087176561356, 0.0 l1.3072597980499268, -1.7430131137371063 0.2905021794140339, -1.5977619588375092 l-2.4692685902118683, -0.5810043588280678 -2.7597707509994507, 0.0 l1.452510952949524, 0.726255476474762 6.681550145149231, 1.0167576372623444 l0.726255476474762, 0.2905021794140339 0.4357532784342766, 0.8715065568685532 m9.00556743144989, 12.636845111846924 l-0.8715065568685532, 0.0 -1.8882642686367035, -1.5977619588375092 m3.63127738237381, 0.4357532784342766 l-1.3072597980499268, -2.7597707509994507 m1.5977619588375092, 3.050273060798645 l1.5977619588375092, -2.905021905899048 m-5.955294966697693, -7.698307633399963 l-0.4357532784342766, -4.502783715724945 -2.4692685902118683, 2.7597707509994507 l0.14525108970701694, -3.63127738237381 -8.279312252998352, 2.0335152745246887 l-6.681550145149231, 0.2905021794140339 -7.988809943199158, 1.452510952949524 l-2.905021905899048, 2.6145195960998535 1.3072597980499268, 0.8715065568685532 l5.229039192199707, 1.1620087176561356 0.0, 2.0335152745246887 l-0.726255476474762, 2.0335152745246887 1.1620087176561356, 0.5810043588280678 l-1.3072597980499268, 1.7430131137371063 -2.324017435312271, 1.5977619588375092 l-3.4860262274742126, 0.8715065568685532 2.7597707509994507, -3.776528537273407 l-1.8882642686367035, -0.5810043588280678 -0.2905021794140339, -0.726255476474762 l-2.4692685902118683, 1.3072597980499268 -3.050273060798645, 2.7597707509994507 l0.8715065568685532, 0.5810043588280678 4.357532858848572, 0.2905021794140339 l0.0, 0.8715065568685532 " fill="none" stroke="black" stroke-width="1" /></svg>