<?xml version="1.0" encoding="utf-8" ?>
<svg baseProfile="full" height="40.066975113004446" version="1.1" width="42.39099442958832" xmlns="http://www.w3.org/2000/svg" xmlns:ev="http://www.w3.org/2001/xml-events" xmlns:xlink="http://www.w3.org/1999/xlink"><defs /><rect fill="white" height="40.066975113004446" width="42.39099442958832" x="0" y="0" /><path d="M23.30163742415607, 15.603328999131918 m3.1955239176750183, 1.3072597980499268 l2.6145195960998535, 2.324017435312271 -0.2905021794140339, 4.067030549049377 l3.1955239176750183, 2.324017435312271 -0.14525108970701694, 2.178766429424286 l-2.0335152745246887, 3.9217793941497803 -2.6145195960998535, 2.324017435312271 l-1.8882642686367035, 1.0167576372623444 -4.938537180423737, -2.4692685902118683 l-1.452510952949524, -1.5977619588375092 m8.715065717697144, -6.391047835350037 l1.1620087176561356, 1.452510952949524 -0.14525108970701694, 1.5977619588375092 l-1.1620087176561356, 0.726255476474762 -1.1620087176561356, -0.5810043588280678 l-0.4357532784342766, -1.1620087176561356 0.8715065568685532, -1.1620087176561356 m3.050273060798645, -1.5977619588375092 l-7.1173036098480225, 1.1620087176561356 -1.452510952949524, 1.452510952949524 l-1.1620087176561356, 3.1955239176750183 0.0, 3.4860262274742126 l1.452510952949524, 0.8715065568685532 1.8882642686367035, 0.2905021794140339 m3.776528537273407, -7.553057074546814 l-1.1620087176561356, 5.229039192199707 -1.452510952949524, 1.5977619588375092 m-5.6647926568984985, -19.318394660949707 l-1.8882642686367035, -2.7597707509994507 -3.63127738237381, -3.3407750725746155 l0.0, 0.5810043588280678 -1.5977619588375092, 2.6145195960998535 l-0.2905021794140339, 2.324017435312271 -3.4860262274742126, 2.178766429424286 l2.178766429424286, 2.6145195960998535 -5.08378803730011, 2.6145195960998535 l-0.14525108970701694, 1.0167576372623444 3.4860262274742126, 2.6145195960998535 l0.0, 0.726255476474762 -1.3072597980499268, 1.3072597980499268 l-0.4357532784342766, 1.3072597980499268 2.905021905899048, 1.1620087176561356 l2.7597707509994507, 2.178766429424286 m6.10054612159729, -19.318394660949707 l4.357532858848572, -5.08378803730011 3.050273060798645, -2.0335152745246887 l0.2905021794140339, 3.1955239176750183 1.1620087176561356, 1.8882642686367035 l2.178766429424286, 1.0167576372623444 3.050273060798645, 0.0 l0.726255476474762, 2.7597707509994507 3.776528537273407, 4.648034870624542 l0.2905021794140339, 1.7430131137371063 -1.1620087176561356, 1.7430131137371063 l-0.14525108970701694, 3.776528537273407 -3.3407750725746155, 1.5977619588375092 l-0.4357532784342766, 0.5810043588280678 -0.2905021794140339, 2.6145195960998535 l-0.5810043588280678, 1.1620087176561356 m-13.217849731445312, -14.960862398147583 l-1.1620087176561356, -0.726255476474762 -3.050273060798645, -0.4357532784342766 l-0.2905021794140339, 0.8715065568685532 0.2905021794140339, 0.5810043588280678 l2.178766429424286, 1.5977619588375092 m6.2457966804504395, -4.357532858848572 l-2.4692685902118683, 0.5810043588280678 -1.1620087176561356, 0.8715065568685532 m-2.324017435312271, 6.2457966804504395 " fill="none" stroke="black" stroke-width="1" /></svg>