<?xml version="1.0" encoding="utf-8" ?>
<svg baseProfile="full" height="92.50262150540948" version="1.1" width="104.41321028396487" xmlns="http://www.w3.org/2000/svg" xmlns:ev="http://www.w3.org/2001/xml-events" xmlns:xlink="http://www.w3.org/1999/xlink"><defs /><rect fill="white" height="92.50262150540948" width="104.41321028396487" x="0" y="0" /><path d="M25.48040480352938, 28.821183033287525 m10.312827825546265, -0.14525108970701694 m12.491593360900879, 0.4357532784342766 l12.782095670700073, 0.0 m-23.675928115844727, 7.698307633399963 l0.2905021794140339, 1.1620087176561356 1.7430131137371063, 2.6145195960998535 l3.9217793941497803, 3.9217793941497803 2.4692685902118683, 1.5977619588375092 l0.8715065568685532, 0.14525108970701694 1.1620087176561356, -0.5810043588280678 l2.178766429424286, -4.938537180423737 m-10.02232551574707, -23.240175247192383 l-2.324017435312271, -0.2905021794140339 -9.441320896148682, -6.536298990249634 l-2.178766429424286, -0.8715065568685532 -3.4860262274742126, -0.4357532784342766 l-3.3407750725746155, 0.0 -0.5810043588280678, 0.8715065568685532 l0.14525108970701694, 10.458078384399414 -0.8715065568685532, 0.2905021794140339 l-1.3072597980499268, -0.4357532784342766 -3.050273060798645, -1.8882642686367035 l-4.502783715724945, -1.8882642686367035 -3.3407750725746155, -0.2905021794140339 l-0.726255476474762, 0.4357532784342766 0.0, 2.0335152745246887 l4.067030549049377, 6.826801300048828 5.810043811798096, 6.391047835350037 l3.1955239176750183, 2.0335152745246887 -1.8882642686367035, -0.726255476474762 l-4.212281703948975, -0.2905021794140339 -1.5977619588375092, 0.2905021794140339 l-1.452510952949524, 1.5977619588375092 -1.452510952949524, 3.3407750725746155 l-0.4357532784342766, 13.217849731445312 1.3072597980499268, 2.4692685902118683 l2.178766429424286, 1.5977619588375092 4.793286025524139, 0.5810043588280678 l8.279312252998352, -3.4860262274742126 6.391047835350037, -9.877074360847473 l2.0335152745246887, -4.938537180423737 -0.5810043588280678, 8.134061098098755 l-2.7597707509994507, 9.441320896148682 0.14525108970701694, 3.050273060798645 l5.810043811798096, 13.798853158950806 6.536298990249634, 11.184333562850952 l1.8882642686367035, 2.324017435312271 2.0335152745246887, 1.5977619588375092 l0.5810043588280678, -4.357532858848572 -1.5977619588375092, -16.12287163734436 l6.10054612159729, 5.6647926568984985 4.793286025524139, 3.1955239176750183 l2.324017435312271, 0.8715065568685532 3.63127738237381, -0.14525108970701694 l1.3072597980499268, -2.178766429424286 1.0167576372623444, -3.3407750725746155 l0.8715065568685532, -10.02232551574707 0.0, -7.1173036098480225 l0.4357532784342766, -0.8715065568685532 1.3072597980499268, 0.2905021794140339 l8.279312252998352, 4.357532858848572 5.229039192199707, 1.8882642686367035 l1.7430131137371063, 0.14525108970701694 1.1620087176561356, -0.5810043588280678 l0.4357532784342766, -9.586572051048279 -1.0167576372623444, -7.1173036098480225 l-3.9217793941497803, -12.491593360900879 2.324017435312271, -0.4357532784342766 l8.279312252998352, 1.452510952949524 10.893832445144653, 1.0167576372623444 l0.14525108970701694, -2.6145195960998535 -0.8715065568685532, -2.4692685902118683 l-2.4692685902118683, -3.776528537273407 -5.810043811798096, -5.374290347099304 l-2.0335152745246887, -1.0167576372623444 -0.2905021794140339, 3.63127738237381 l-0.726255476474762, 1.0167576372623444 -0.726255476474762, 0.726255476474762 l-3.1955239176750183, 0.4357532784342766 -2.178766429424286, -1.5977619588375092 l-3.050273060798645, -3.4860262274742126 -2.4692685902118683, -4.357532858848572 l-1.7430131137371063, -1.452510952949524 -0.8715065568685532, 0.14525108970701694 l-4.502783715724945, 8.715065717697144 -0.726255476474762, 0.726255476474762 l-0.8715065568685532, 0.0 -3.63127738237381, -8.86031687259674 l-1.7430131137371063, -3.4860262274742126 -2.0335152745246887, -2.6145195960998535 l-1.3072597980499268, 0.2905021794140339 -4.938537180423737, 10.748580694198608 l-2.0335152745246887, 3.050273060798645 -1.1620087176561356, -0.4357532784342766 l-1.0167576372623444, -2.178766429424286 -1.5977619588375092, -7.553057074546814 l-4.357532858848572, 12.055840492248535 -1.0167576372623444, 1.7430131137371063 l-0.8715065568685532, 0.14525108970701694 -1.1620087176561356, -1.8882642686367035 l-0.4357532784342766, -2.4692685902118683 0.14525108970701694, -14.815611839294434 " fill="none" stroke="black" stroke-width="1" /></svg>