<?xml version="1.0" encoding="utf-8" ?>
<svg baseProfile="full" height="59.821124179288745" version="1.1" width="70.13395291753113" xmlns="http://www.w3.org/2000/svg" xmlns:ev="http://www.w3.org/2001/xml-events" xmlns:xlink="http://www.w3.org/1999/xlink"><defs /><rect fill="white" height="59.821124179288745" width="70.13395291753113" x="0" y="0" /><path d="M19.525109957903624, 16.47483577951789 m12.20109224319458, -2.324017435312271 l4.502783715724945, 0.0 3.63127738237381, 0.8715065568685532 l4.357532858848572, 2.905021905899048 2.178766429424286, 2.0335152745246887 l7.698307633399963, 11.329585313796997 1.1620087176561356, 3.1955239176750183 l0.0, 2.7597707509994507 -1.1620087176561356, 2.7597707509994507 l-4.212281703948975, 3.63127738237381 -4.357532858848572, 2.4692685902118683 l-4.357532858848572, 1.452510952949524 -10.312827825546265, 0.2905021794140339 l-4.067030549049377, -1.8882642686367035 -4.212281703948975, -3.776528537273407 l-2.7597707509994507, -4.502783715724945 -3.3407750725746155, -4.067030549049377 l-1.7430131137371063, -4.067030549049377 0.0, -6.681550145149231 l0.5810043588280678, -2.7597707509994507 1.7430131137371063, -3.3407750725746155 m0.8715065568685532, 0.8715065568685532 l1.3072597980499268, -5.6647926568984985 1.1620087176561356, -1.7430131137371063 l0.726255476474762, 0.0 1.452510952949524, 3.63127738237381 l1.3072597980499268, -0.726255476474762 1.8882642686367035, -4.357532858848572 l-0.14525108970701694, 1.452510952949524 3.3407750725746155, -2.178766429424286 l0.5810043588280678, 0.8715065568685532 -0.14525108970701694, 4.212281703948975 l10.02232551574707, -6.536298990249634 4.648034870624542, -1.5977619588375092 l3.4860262274742126, 0.0 0.14525108970701694, 0.726255476474762 l-0.5810043588280678, 1.452510952949524 -2.7597707509994507, 2.905021905899048 l3.9217793941497803, -4.212281703948975 1.5977619588375092, -0.726255476474762 l0.5810043588280678, 1.3072597980499268 -6.681550145149231, 12.782095670700073 l4.067030549049377, -0.14525108970701694 6.826801300048828, -2.178766429424286 l8.279312252998352, -0.726255476474762 -1.0167576372623444, 2.178766429424286 l-10.458078384399414, 6.10054612159729 9.441320896148682, 0.14525108970701694 l4.212281703948975, -0.5810043588280678 -2.324017435312271, 2.4692685902118683 l-15.106114149093628, 9.731823205947876 -0.4357532784342766, 1.1620087176561356 l0.726255476474762, 1.1620087176561356 9.150818586349487, 1.3072597980499268 l4.648034870624542, 0.0 -4.067030549049377, 3.776528537273407 l-0.14525108970701694, 0.8715065568685532 4.357532858848572, 0.14525108970701694 l-2.905021905899048, 3.3407750725746155 -0.726255476474762, 1.452510952949524 l-1.3072597980499268, -0.726255476474762 -1.7430131137371063, -2.178766429424286 l-1.8882642686367035, -0.2905021794140339 -1.452510952949524, 0.726255476474762 l-4.212281703948975, 3.9217793941497803 -0.5810043588280678, -0.726255476474762 l-1.452510952949524, 0.0 -4.648034870624542, 4.502783715724945 l0.5810043588280678, -2.178766429424286 -7.698307633399963, 2.324017435312271 l-0.4357532784342766, -0.726255476474762 0.5810043588280678, -2.324017435312271 l-3.63127738237381, 1.8882642686367035 0.5810043588280678, -2.905021905899048 l-1.1620087176561356, -0.2905021794140339 -9.586572051048279, 2.7597707509994507 l2.324017435312271, -3.9217793941497803 -2.6145195960998535, -0.2905021794140339 l-6.10054612159729, 1.5977619588375092 4.502783715724945, -3.1955239176750183 l-2.7597707509994507, 0.14525108970701694 -4.502783715724945, 1.452510952949524 l-2.905021905899048, 0.2905021794140339 3.9217793941497803, -2.4692685902118683 l3.4860262274742126, -3.050273060798645 -1.3072597980499268, -0.726255476474762 l-5.519541501998901, 0.2905021794140339 0.5810043588280678, -2.0335152745246887 l1.7430131137371063, -1.8882642686367035 1.3072597980499268, -2.324017435312271 l-2.0335152745246887, -0.5810043588280678 -2.6145195960998535, 0.14525108970701694 l3.3407750725746155, -3.9217793941497803 -0.726255476474762, -0.2905021794140339 l0.4357532784342766, -1.452510952949524 5.955294966697693, -3.776528537273407 l-6.536298990249634, -0.14525108970701694 -0.4357532784342766, -1.0167576372623444 l1.0167576372623444, -3.4860262274742126 -2.7597707509994507, -0.5810043588280678 l-3.050273060798645, 0.0 m7.553057074546814, -2.905021905899048 l0.5810043588280678, -0.726255476474762 -3.1955239176750183, -0.4357532784342766 l0.5810043588280678, -1.1620087176561356 1.8882642686367035, -0.8715065568685532 m12.782095670700073, 7.553057074546814 l0.0, -0.726255476474762 -0.2905021794140339, 0.8715065568685532 l0.4357532784342766, 0.726255476474762 1.8882642686367035, -0.14525108970701694 l-2.4692685902118683, -0.14525108970701694 0.0, -0.726255476474762 m13.508352041244507, 0.14525108970701694 l-3.1955239176750183, 0.14525108970701694 -1.5977619588375092, 1.1620087176561356 l1.7430131137371063, 0.2905021794140339 1.452510952949524, -1.3072597980499268 " fill="none" stroke="black" stroke-width="1" /></svg>