<?xml version="1.0" encoding="utf-8" ?>
<svg baseProfile="full" height="72.16746766120195" version="1.1" width="92.79312299564481" xmlns="http://www.w3.org/2000/svg" xmlns:ev="http://www.w3.org/2001/xml-events" xmlns:xlink="http://www.w3.org/1999/xlink"><defs /><rect fill="white" height="72.16746766120195" width="92.79312299564481" x="0" y="0" /><path d="M22.865884453058243, 9.35753172263503 m2.4692685902118683, -2.6145195960998535 l1.0167576372623444, -0.726255476474762 1.5977619588375092, -0.2905021794140339 l2.7597707509994507, 1.7430131137371063 0.726255476474762, 3.4860262274742126 l0.726255476474762, 0.2905021794140339 6.536298990249634, -0.5810043588280678 l0.14525108970701694, 3.050273060798645 -0.726255476474762, 2.178766429424286 l-3.3407750725746155, 3.4860262274742126 0.8715065568685532, 0.5810043588280678 l1.8882642686367035, 0.2905021794140339 1.452510952949524, 1.0167576372623444 l2.178766429424286, 7.553057074546814 -0.14525108970701694, 4.357532858848572 l-1.7430131137371063, 3.776528537273407 -1.452510952949524, 1.5977619588375092 l-3.3407750725746155, 1.7430131137371063 -3.776528537273407, 0.2905021794140339 l-3.3407750725746155, 1.8882642686367035 -4.357532858848572, 0.2905021794140339 l-5.519541501998901, -1.0167576372623444 -3.63127738237381, -1.5977619588375092 l-1.0167576372623444, -2.324017435312271 0.0, -2.0335152745246887 l0.14525108970701694, -1.3072597980499268 1.1620087176561356, -1.8882642686367035 l-5.229039192199707, 0.0 -2.324017435312271, -0.8715065568685532 l-1.452510952949524, -1.5977619588375092 -0.14525108970701694, -1.8882642686367035 l1.5977619588375092, -3.1955239176750183 0.8715065568685532, -4.067030549049377 l0.726255476474762, -0.4357532784342766 0.14525108970701694, -0.8715065568685532 l-2.324017435312271, -5.229039192199707 -1.0167576372623444, -4.357532858848572 l0.4357532784342766, -1.5977619588375092 1.7430131137371063, -1.452510952949524 l5.229039192199707, -2.0335152745246887 2.0335152745246887, 0.2905021794140339 l0.726255476474762, 0.5810043588280678 2.6145195960998535, 3.4860262274742126 l0.726255476474762, 0.14525108970701694 2.178766429424286, -1.452510952949524 l2.905021905899048, -0.14525108970701694 5.955294966697693, 1.1620087176561356 l0.726255476474762, 0.2905021794140339 -0.4357532784342766, 0.4357532784342766 m-6.681550145149231, 10.603330135345459 l-0.14525108970701694, -0.726255476474762 -0.726255476474762, 0.2905021794140339 l-2.178766429424286, 2.324017435312271 -2.4692685902118683, 5.6647926568984985 l0.4357532784342766, 2.4692685902118683 1.8882642686367035, 1.3072597980499268 l4.648034870624542, -0.2905021794140339 1.8882642686367035, -1.452510952949524 l2.0335152745246887, -3.3407750725746155 0.2905021794140339, -1.452510952949524 l-0.5810043588280678, -1.5977619588375092 -3.63127738237381, -2.4692685902118683 m14.234607219696045, 4.357532858848572 l2.178766429424286, 0.0 2.905021905899048, 0.726255476474762 l6.391047835350037, 2.4692685902118683 3.4860262274742126, 0.8715065568685532 l19.463646411895752, 2.7597707509994507 6.826801300048828, 1.3072597980499268 l2.905021905899048, 1.0167576372623444 1.452510952949524, 1.3072597980499268 l1.452510952949524, 2.324017435312271 1.8882642686367035, 9.441320896148682 l-0.2905021794140339, 2.178766429424286 -1.3072597980499268, 3.1955239176750183 l-1.3072597980499268, 7.988809943199158 -2.6145195960998535, 1.8882642686367035 l-8.279312252998352, 4.212281703948975 -1.5977619588375092, -2.0335152745246887 l-2.324017435312271, -5.810043811798096 0.0, -1.0167576372623444 l2.324017435312271, -4.793286025524139 -0.726255476474762, -0.4357532784342766 l-2.6145195960998535, 1.5977619588375092 -5.810043811798096, 5.374290347099304 l-2.178766429424286, 1.1620087176561356 -1.8882642686367035, 0.14525108970701694 l-4.357532858848572, -3.3407750725746155 -0.726255476474762, -1.1620087176561356 l-0.726255476474762, -7.8435587882995605 -2.905021905899048, 5.6647926568984985 l-1.3072597980499268, 1.7430131137371063 -1.452510952949524, 1.0167576372623444 l-1.452510952949524, -0.4357532784342766 -2.6145195960998535, -2.905021905899048 l-1.3072597980499268, -2.6145195960998535 0.0, -1.7430131137371063 l-2.6145195960998535, 5.810043811798096 -2.178766429424286, 1.8882642686367035 l-2.0335152745246887, 1.1620087176561356 -0.8715065568685532, 0.0 l-3.1955239176750183, -4.793286025524139 -0.5810043588280678, -2.6145195960998535 l0.0, -10.748580694198608 0.2905021794140339, -1.0167576372623444 l2.0335152745246887, -2.178766429424286 m-12.636845111846924, -13.217849731445312 l0.0, 0.726255476474762 m3.63127738237381, -0.5810043588280678 l0.726255476474762, 0.14525108970701694 0.0, 0.726255476474762 " fill="none" stroke="black" stroke-width="1" /></svg>