<?xml version="1.0" encoding="utf-8" ?>
<svg baseProfile="full" height="73.03897399455309" version="1.1" width="56.916102562099695" xmlns="http://www.w3.org/2000/svg" xmlns:ev="http://www.w3.org/2001/xml-events" xmlns:xlink="http://www.w3.org/1999/xlink"><defs /><rect fill="white" height="73.03897399455309" width="56.916102562099695" x="0" y="0" /><path d="M24.46364645846188, 16.03908316232264 m-2.905021905899048, -1.8882642686367035 l-2.324017435312271, -0.726255476474762 -4.067030549049377, 0.0 l-1.1620087176561356, 1.0167576372623444 -1.0167576372623444, 0.0 l-1.0167576372623444, 2.0335152745246887 -0.726255476474762, 6.391047835350037 l0.2905021794140339, 3.3407750725746155 3.050273060798645, 10.458078384399414 l3.9217793941497803, 3.4860262274742126 2.6145195960998535, 0.4357532784342766 l1.0167576372623444, 0.8715065568685532 3.4860262274742126, -0.2905021794140339 l1.5977619588375092, -1.3072597980499268 1.8882642686367035, -0.726255476474762 l1.0167576372623444, -2.4692685902118683 1.1620087176561356, -1.1620087176561356 l1.0167576372623444, -7.26255476474762 -0.4357532784342766, -2.6145195960998535 l-1.0167576372623444, -2.6145195960998535 -1.5977619588375092, -1.5977619588375092 l-3.1955239176750183, -6.2457966804504395 -1.0167576372623444, -0.726255476474762 l-0.726255476474762, -1.452510952949524 0.2905021794140339, -0.8715065568685532 l6.10054612159729, -0.8715065568685532 0.8715065568685532, 1.0167576372623444 l0.0, 1.1620087176561356 7.8435587882995605, 3.9217793941497803 l5.374290347099304, 6.10054612159729 -0.726255476474762, 2.178766429424286 l-1.452510952949524, 2.324017435312271 -6.391047835350037, 4.502783715724945 l1.1620087176561356, -0.4357532784342766 5.08378803730011, 2.324017435312271 l0.5810043588280678, 3.3407750725746155 -1.5977619588375092, 1.8882642686367035 l-1.452510952949524, 0.5810043588280678 -6.826801300048828, 7.8435587882995605 l-2.324017435312271, 0.4357532784342766 -0.14525108970701694, -2.7597707509994507 l1.0167576372623444, -0.4357532784342766 -1.0167576372623444, 3.4860262274742126 l-4.648034870624542, 4.793286025524139 -2.178766429424286, 1.0167576372623444 l-2.178766429424286, -0.4357532784342766 -4.357532858848572, -4.938537180423737 l-2.178766429424286, -1.7430131137371063 -1.452510952949524, -2.4692685902118683 l-1.7430131137371063, -5.08378803730011 -1.3072597980499268, -14.08935546875 l-3.050273060798645, 0.14525108970701694 -1.452510952949524, -4.357532858848572 l-1.1620087176561356, -5.08378803730011 0.14525108970701694, -6.10054612159729 l0.726255476474762, -1.8882642686367035 3.9217793941497803, -1.1620087176561356 l1.3072597980499268, 0.0 0.0, 1.0167576372623444 l1.7430131137371063, -2.324017435312271 3.9217793941497803, -1.0167576372623444 l2.7597707509994507, 1.7430131137371063 3.050273060798645, 3.63127738237381 l0.2905021794140339, 1.452510952949524 m1.0167576372623444, 44.15633201599121 l0.2905021794140339, 7.407805919647217 1.1620087176561356, 1.8882642686367035 l0.8715065568685532, 0.5810043588280678 5.374290347099304, -1.3072597980499268 l2.0335152745246887, -1.452510952949524 0.4357532784342766, -5.955294966697693 l1.1620087176561356, 1.7430131137371063 0.0, 1.8882642686367035 l2.7597707509994507, 6.2457966804504395 4.502783715724945, 1.0167576372623444 l3.63127738237381, -1.3072597980499268 3.63127738237381, -3.050273060798645 l1.0167576372623444, -2.4692685902118683 0.14525108970701694, -4.938537180423737 l1.0167576372623444, -0.14525108970701694 " fill="none" stroke="black" stroke-width="1" /></svg>