<?xml version="1.0" encoding="utf-8" ?>
<svg baseProfile="full" height="62.43564335629344" version="1.1" width="65.92167032882571" xmlns="http://www.w3.org/2000/svg" xmlns:ev="http://www.w3.org/2001/xml-events" xmlns:xlink="http://www.w3.org/1999/xlink"><defs /><rect fill="white" height="62.43564335629344" width="65.92167032882571" x="0" y="0" /><path d="M28.821177361533046, 18.944102451205254 m-2.4692685902118683, 0.0 l-2.324017435312271, 1.452510952949524 -2.7597707509994507, 3.3407750725746155 l-2.324017435312271, 4.357532858848572 -1.452510952949524, 4.357532858848572 l-0.4357532784342766, 4.212281703948975 0.4357532784342766, 4.357532858848572 l1.0167576372623444, 2.0335152745246887 3.050273060798645, 3.63127738237381 l1.8882642686367035, 1.1620087176561356 2.324017435312271, 0.8715065568685532 l4.793286025524139, 0.5810043588280678 2.7597707509994507, 0.0 l4.793286025524139, -1.3072597980499268 2.0335152745246887, -1.0167576372623444 l3.4860262274742126, -2.7597707509994507 3.3407750725746155, -4.793286025524139 l1.3072597980499268, -5.08378803730011 0.0, -5.6647926568984985 l-1.8882642686367035, -3.63127738237381 -1.1620087176561356, -1.452510952949524 l-3.4860262274742126, -2.4692685902118683 -5.955294966697693, -2.4692685902118683 l-5.6647926568984985, -0.2905021794140339 -3.1955239176750183, 2.324017435312271 m-2.7597707509994507, 7.26255476474762 l4.212281703948975, -2.178766429424286 2.0335152745246887, 0.0 l0.5810043588280678, 1.0167576372623444 m3.776528537273407, 0.0 l2.0335152745246887, -1.0167576372623444 1.8882642686367035, -0.14525108970701694 l1.7430131137371063, 2.324017435312271 m-13.798853158950806, 6.972052454948425 l10.893832445144653, 0.0 0.4357532784342766, 0.726255476474762 l0.0, 3.776528537273407 -0.726255476474762, 2.178766429424286 l-2.0335152745246887, 2.6145195960998535 -1.452510952949524, 0.8715065568685532 l-2.178766429424286, 0.14525108970701694 -3.4860262274742126, -4.648034870624542 l-0.726255476474762, -1.5977619588375092 m2.0335152745246887, -4.502783715724945 l0.14525108970701694, 3.63127738237381 0.2905021794140339, 1.3072597980499268 l0.726255476474762, 0.4357532784342766 1.452510952949524, -3.9217793941497803 l1.452510952949524, 4.067030549049377 0.8715065568685532, -4.502783715724945 l0.5810043588280678, -0.726255476474762 m-1.5977619588375092, -17.139629125595093 l5.955294966697693, -3.63127738237381 3.1955239176750183, -0.8715065568685532 l3.63127738237381, 0.14525108970701694 1.0167576372623444, 1.7430131137371063 l0.4357532784342766, 4.357532858848572 0.726255476474762, 0.8715065568685532 l2.4692685902118683, 1.452510952949524 7.553057074546814, 2.6145195960998535 l1.3072597980499268, 0.8715065568685532 1.3072597980499268, 2.0335152745246887 l-0.2905021794140339, 2.905021905899048 -1.3072597980499268, 1.8882642686367035 l-7.1173036098480225, 7.553057074546814 0.5810043588280678, 0.8715065568685532 l0.2905021794140339, 1.8882642686367035 -0.2905021794140339, 3.050273060798645 l-2.7597707509994507, 3.1955239176750183 -3.9217793941497803, 2.178766429424286 l-3.4860262274742126, 1.0167576372623444 -2.7597707509994507, -0.14525108970701694 l-2.7597707509994507, -2.6145195960998535 -1.0167576372623444, 0.0 l-2.324017435312271, 2.6145195960998535 -5.229039192199707, 4.357532858848572 l-3.3407750725746155, 1.452510952949524 -3.1955239176750183, 0.0 l-5.955294966697693, -4.067030549049377 -5.519541501998901, -1.3072597980499268 l-0.726255476474762, -0.5810043588280678 -0.726255476474762, -1.3072597980499268 l-1.452510952949524, -6.2457966804504395 -1.0167576372623444, -6.681550145149231 l-1.5977619588375092, -2.4692685902118683 0.4357532784342766, -6.826801300048828 l1.7430131137371063, -5.08378803730011 1.5977619588375092, -2.0335152745246887 l0.8715065568685532, -0.4357532784342766 3.9217793941497803, -0.2905021794140339 l2.178766429424286, -1.7430131137371063 3.050273060798645, -9.00556743144989 l0.8715065568685532, -1.8882642686367035 1.8882642686367035, -2.0335152745246887 l1.8882642686367035, -0.4357532784342766 3.9217793941497803, 3.1955239176750183 l3.776528537273407, 1.8882642686367035 1.5977619588375092, 0.4357532784342766 l4.938537180423737, 0.0 0.8715065568685532, 0.4357532784342766 l1.8882642686367035, 3.9217793941497803 " fill="none" stroke="black" stroke-width="1" /></svg>