<?xml version="1.0" encoding="utf-8" ?>
<svg baseProfile="full" height="70.27920407243073" version="1.1" width="81.31828591227531" xmlns="http://www.w3.org/2000/svg" xmlns:ev="http://www.w3.org/2001/xml-events" xmlns:xlink="http://www.w3.org/1999/xlink"><defs /><rect fill="white" height="70.27920407243073" width="81.31828591227531" x="0" y="0" /><path d="M40.00551122240722, 25.62565453350544 m-3.1955239176750183, -1.1620087176561356 l-5.374290347099304, 0.14525108970701694 -3.4860262274742126, 1.8882642686367035 l-2.7597707509994507, 2.905021905899048 -1.452510952949524, 3.63127738237381 l-0.2905021794140339, 3.9217793941497803 0.4357532784342766, 3.776528537273407 l2.178766429424286, 3.3407750725746155 3.050273060798645, 2.178766429424286 l3.3407750725746155, 0.726255476474762 3.4860262274742126, -0.4357532784342766 l3.4860262274742126, -2.324017435312271 2.7597707509994507, -3.4860262274742126 l2.0335152745246887, -3.9217793941497803 0.726255476474762, -3.9217793941497803 l0.0, -2.905021905899048 -0.5810043588280678, -2.4692685902118683 l-2.6145195960998535, -2.178766429424286 -3.4860262274742126, -0.726255476474762 m-23.53067636489868, 0.8715065568685532 l1.3072597980499268, 1.1620087176561356 1.0167576372623444, 0.2905021794140339 l0.726255476474762, 0.0 0.2905021794140339, -0.8715065568685532 l-1.0167576372623444, -8.715065717697144 0.0, -4.502783715724945 l0.14525108970701694, -2.4692685902118683 1.452510952949524, -1.5977619588375092 l1.452510952949524, -0.5810043588280678 2.178766429424286, 0.14525108970701694 l2.178766429424286, 1.8882642686367035 2.4692685902118683, 4.067030549049377 l0.726255476474762, 0.726255476474762 0.726255476474762, 0.0 l1.452510952949524, -1.3072597980499268 4.067030549049377, -6.681550145149231 l1.8882642686367035, -1.5977619588375092 3.4860262274742126, -0.4357532784342766 l1.452510952949524, 2.178766429424286 1.1620087176561356, 7.407805919647217 l0.5810043588280678, 2.178766429424286 1.0167576372623444, 1.0167576372623444 l1.8882642686367035, 0.0 9.877074360847473, -6.536298990249634 l3.63127738237381, -1.8882642686367035 4.067030549049377, -0.726255476474762 l0.5810043588280678, 1.452510952949524 -0.726255476474762, 4.502783715724945 l-5.374290347099304, 13.653602600097656 -0.5810043588280678, 3.776528537273407 l1.7430131137371063, 0.8715065568685532 15.541867017745972, 0.726255476474762 l2.178766429424286, 0.4357532784342766 -1.0167576372623444, 2.4692685902118683 l-7.407805919647217, 6.972052454948425 -6.536298990249634, 7.1173036098480225 l-1.8882642686367035, 2.4692685902118683 -2.6145195960998535, 5.374290347099304 l-1.452510952949524, -0.2905021794140339 -5.08378803730011, -3.1955239176750183 l-3.9217793941497803, 0.4357532784342766 -6.536298990249634, 6.826801300048828 l-0.726255476474762, 0.0 -2.905021905899048, -8.134061098098755 l-1.1620087176561356, -1.0167576372623444 -1.7430131137371063, -0.14525108970701694 l-3.1955239176750183, 1.5977619588375092 -2.7597707509994507, 2.4692685902118683 l-6.826801300048828, 7.407805919647217 -1.3072597980499268, 0.8715065568685532 l-1.1620087176561356, 0.0 -1.1620087176561356, -3.050273060798645 l-0.8715065568685532, -4.793286025524139 -2.178766429424286, -15.396615266799927 l-1.0167576372623444, -2.0335152745246887 -1.452510952949524, -0.8715065568685532 l-2.178766429424286, 0.0 -4.212281703948975, 2.6145195960998535 l2.4692685902118683, -10.312827825546265 3.9217793941497803, -9.877074360847473 l1.7430131137371063, -3.1955239176750183 1.0167576372623444, -1.0167576372623444 " fill="none" stroke="black" stroke-width="1" /></svg>