<?xml version="1.0" encoding="utf-8" ?>
<svg baseProfile="full" height="68.53619041852653" version="1.1" width="81.89929079264402" xmlns="http://www.w3.org/2000/svg" xmlns:ev="http://www.w3.org/2001/xml-events" xmlns:xlink="http://www.w3.org/1999/xlink"><defs /><rect fill="white" height="68.53619041852653" width="81.89929079264402" x="0" y="0" /><path d="M23.156385524198413, 21.268121851608157 m2.4692685902118683, -0.4357532784342766 l4.793286025524139, -2.6145195960998535 4.067030549049377, -0.726255476474762 l5.374290347099304, 0.14525108970701694 4.502783715724945, 1.1620087176561356 l6.10054612159729, 2.324017435312271 m-26.58094882965088, -11.184333562850952 l-1.3072597980499268, -0.5810043588280678 -3.63127738237381, -0.2905021794140339 l-0.14525108970701694, 4.357532858848572 1.3072597980499268, 2.4692685902118683 l-9.441320896148682, 0.2905021794140339 -0.5810043588280678, 0.726255476474762 l0.5810043588280678, 2.7597707509994507 -3.63127738237381, 1.1620087176561356 l-1.7430131137371063, 2.324017435312271 -0.2905021794140339, 2.4692685902118683 l5.374290347099304, 3.1955239176750183 0.14525108970701694, 0.8715065568685532 l-2.6145195960998535, 2.324017435312271 5.08378803730011, 0.8715065568685532 l1.0167576372623444, 0.5810043588280678 0.0, 0.726255476474762 l-1.452510952949524, 1.5977619588375092 -0.2905021794140339, 1.0167576372623444 l1.452510952949524, 0.5810043588280678 2.178766429424286, -0.2905021794140339 l-1.3072597980499268, 0.8715065568685532 -4.793286025524139, 6.681550145149231 l-0.5810043588280678, 3.050273060798645 4.212281703948975, 0.5810043588280678 l6.972052454948425, -0.4357532784342766 0.5810043588280678, 0.726255476474762 l-0.14525108970701694, 1.8882642686367035 -2.6145195960998535, 4.357532858848572 l0.4357532784342766, 0.726255476474762 7.26255476474762, -0.4357532784342766 l-0.4357532784342766, 2.905021905899048 2.0335152745246887, -0.4357532784342766 l2.6145195960998535, -1.452510952949524 3.4860262274742126, 0.0 l2.178766429424286, 1.1620087176561356 4.067030549049377, 4.357532858848572 l2.6145195960998535, 1.7430131137371063 1.0167576372623444, 0.14525108970701694 l0.4357532784342766, -3.63127738237381 1.0167576372623444, 0.0 l1.8882642686367035, 1.3072597980499268 1.452510952949524, -0.2905021794140339 l1.0167576372623444, -2.4692685902118683 0.8715065568685532, 0.0 l0.726255476474762, 2.4692685902118683 1.1620087176561356, 1.0167576372623444 l1.5977619588375092, -5.374290347099304 0.726255476474762, -0.8715065568685532 l1.7430131137371063, 1.0167576372623444 0.726255476474762, -0.4357532784342766 l0.8715065568685532, -3.050273060798645 0.8715065568685532, 0.2905021794140339 l0.2905021794140339, -4.502783715724945 6.972052454948425, -1.3072597980499268 l7.26255476474762, -2.0335152745246887 -3.63127738237381, -0.726255476474762 l-0.726255476474762, -0.8715065568685532 4.502783715724945, -8.42456340789795 l3.63127738237381, -4.648034870624542 -8.86031687259674, -0.2905021794140339 l5.955294966697693, -3.63127738237381 2.7597707509994507, -2.4692685902118683 l-1.3072597980499268, -0.8715065568685532 -6.10054612159729, 0.0 l-4.938537180423737, 0.5810043588280678 6.2457966804504395, -4.212281703948975 l2.0335152745246887, -2.4692685902118683 -0.2905021794140339, -0.726255476474762 l-9.441320896148682, -0.4357532784342766 -6.391047835350037, 0.5810043588280678 l4.938537180423737, -7.1173036098480225 0.5810043588280678, -2.178766429424286 l-0.726255476474762, -0.5810043588280678 -4.648034870624542, -0.14525108970701694 l-4.502783715724945, 1.452510952949524 -0.2905021794140339, -0.8715065568685532 l1.452510952949524, -2.0335152745246887 -0.8715065568685532, -0.5810043588280678 l-1.452510952949524, 0.0 -2.6145195960998535, 0.8715065568685532 l-2.4692685902118683, 1.5977619588375092 -4.357532858848572, 3.9217793941497803 l-0.726255476474762, -0.8715065568685532 -0.726255476474762, -3.9217793941497803 l-1.1620087176561356, -0.5810043588280678 -1.3072597980499268, 0.0 l-1.7430131137371063, 0.2905021794140339 -2.4692685902118683, 1.1620087176561356 l-2.178766429424286, 1.5977619588375092 -3.776528537273407, 4.648034870624542 l-1.7430131137371063, -2.4692685902118683 -0.8715065568685532, -2.4692685902118683 l-0.5810043588280678, 2.6145195960998535 m-1.1620087176561356, 8.569814562797546 l-0.4357532784342766, -0.8715065568685532 -1.0167576372623444, -0.2905021794140339 l-1.8882642686367035, 0.2905021794140339 -1.1620087176561356, 1.7430131137371063 l-0.2905021794140339, 3.9217793941497803 0.726255476474762, 3.3407750725746155 l3.050273060798645, 2.324017435312271 0.4357532784342766, 1.452510952949524 l0.0, 5.519541501998901 1.7430131137371063, 3.1955239176750183 l1.8882642686367035, 1.7430131137371063 3.63127738237381, 1.3072597980499268 l4.793286025524139, 1.0167576372623444 5.229039192199707, 0.0 l4.357532858848572, -1.3072597980499268 4.502783715724945, -3.3407750725746155 l1.3072597980499268, -2.905021905899048 0.2905021794140339, -4.357532858848572 l3.4860262274742126, -3.1955239176750183 3.050273060798645, -4.067030549049377 l0.726255476474762, -2.324017435312271 -0.14525108970701694, -3.1955239176750183 l-0.4357532784342766, -0.8715065568685532 -1.5977619588375092, -0.5810043588280678 l-2.905021905899048, 0.0 -2.324017435312271, 1.1620087176561356 " fill="none" stroke="black" stroke-width="1" /></svg>