<?xml version="1.0" encoding="utf-8" ?>
<svg baseProfile="full" height="58.36861403658986" version="1.1" width="96.71490397304296" xmlns="http://www.w3.org/2000/svg" xmlns:ev="http://www.w3.org/2001/xml-events" xmlns:xlink="http://www.w3.org/1999/xlink"><defs /><rect fill="white" height="58.36861403658986" width="96.71490397304296" x="0" y="0" /><path d="M29.40218617208302, 33.904967810958624 m0.2905021794140339, -2.7597707509994507 l1.7430131137371063, -4.357532858848572 1.7430131137371063, -2.905021905899048 l4.938537180423737, -4.938537180423737 3.050273060798645, -1.7430131137371063 l3.9217793941497803, -1.3072597980499268 6.391047835350037, -0.4357532784342766 l2.7597707509994507, 0.8715065568685532 5.08378803730011, 3.3407750725746155 l3.63127738237381, 4.212281703948975 2.4692685902118683, 4.938537180423737 l2.324017435312271, 6.681550145149231 0.2905021794140339, 2.324017435312271 l0.0, 2.6145195960998535 -1.7430131137371063, 3.63127738237381 l-3.9217793941497803, 4.938537180423737 -4.938537180423737, 3.050273060798645 l-6.536298990249634, 1.3072597980499268 -8.279312252998352, -0.4357532784342766 l-8.715065717697144, -2.4692685902118683 -10.458078384399414, -5.08378803730011 l-3.63127738237381, -2.905021905899048 -1.0167576372623444, -2.6145195960998535 l0.14525108970701694, -3.9217793941497803 1.0167576372623444, -3.63127738237381 l1.3072597980499268, -2.4692685902118683 m16.8491268157959, -23.385426998138428 l2.0335152745246887, 1.7430131137371063 1.5977619588375092, 0.726255476474762 l2.6145195960998535, 0.0 14.08935546875, -3.050273060798645 l5.810043811798096, -0.726255476474762 -1.0167576372623444, 2.324017435312271 l0.8715065568685532, 0.4357532784342766 15.687117576599121, 0.4357532784342766 l2.905021905899048, 0.8715065568685532 0.4357532784342766, 0.8715065568685532 l-0.5810043588280678, 1.0167576372623444 -3.63127738237381, 3.776528537273407 l0.8715065568685532, 0.5810043588280678 4.357532858848572, 0.2905021794140339 l1.3072597980499268, 1.0167576372623444 0.0, 1.0167576372623444 l-2.4692685902118683, 5.6647926568984985 -0.4357532784342766, 2.6145195960998535 l0.2905021794140339, 2.0335152745246887 2.6145195960998535, 1.8882642686367035 l5.810043811798096, 0.5810043588280678 0.4357532784342766, 1.1620087176561356 l-2.905021905899048, 4.648034870624542 -0.5810043588280678, -3.63127738237381 l-1.1620087176561356, -3.1955239176750183 m-46.480350494384766, -24.547433853149414 l-2.905021905899048, 0.0 -11.910589933395386, 3.4860262274742126 l-3.776528537273407, 0.5810043588280678 -6.681550145149231, 2.324017435312271 l-0.726255476474762, 0.4357532784342766 0.726255476474762, 0.14525108970701694 l4.648034870624542, -0.14525108970701694 -0.14525108970701694, 0.726255476474762 l-12.055840492248535, 8.279312252998352 -2.7597707509994507, 3.050273060798645 l0.4357532784342766, 0.726255476474762 1.0167576372623444, 0.14525108970701694 l10.16757607460022, -0.2905021794140339 -1.0167576372623444, 1.452510952949524 l-8.42456340789795, 6.2457966804504395 -1.452510952949524, 2.4692685902118683 l0.5810043588280678, 0.726255476474762 0.726255476474762, 0.0 l0.2905021794140339, 0.726255476474762 0.0, 1.8882642686367035 l-2.178766429424286, 4.502783715724945 -0.14525108970701694, 0.726255476474762 l0.726255476474762, 0.8715065568685532 0.8715065568685532, 0.4357532784342766 l5.810043811798096, 0.0 8.134061098098755, -1.0167576372623444 l-7.26255476474762, 4.212281703948975 -1.5977619588375092, 1.8882642686367035 l-0.14525108970701694, 0.8715065568685532 0.5810043588280678, 0.2905021794140339 m74.36855792999268, -17.72063374519348 l5.229039192199707, 0.2905021794140339 -10.16757607460022, 8.86031687259674 l-0.726255476474762, 1.7430131137371063 0.726255476474762, 0.5810043588280678 l3.4860262274742126, 0.726255476474762 -2.6145195960998535, 1.1620087176561356 " fill="none" stroke="black" stroke-width="1" /></svg>