<?xml version="1.0" encoding="utf-8" ?>
<svg baseProfile="full" height="68.10043709352612" version="1.1" width="63.01664896309376" xmlns="http://www.w3.org/2000/svg" xmlns:ev="http://www.w3.org/2001/xml-events" xmlns:xlink="http://www.w3.org/1999/xlink"><defs /><rect fill="white" height="68.10043709352612" width="63.01664896309376" x="0" y="0" /><path d="M24.173144418746233, 10.955295246094465 m-0.2905021794140339, -0.8715065568685532 l-1.452510952949524, -1.452510952949524 -1.7430131137371063, -1.0167576372623444 l-4.067030549049377, -1.1620087176561356 -5.955294966697693, 0.2905021794140339 l-3.63127738237381, 1.452510952949524 -1.3072597980499268, 1.5977619588375092 l-0.726255476474762, 5.519541501998901 0.0, 9.150818586349487 l0.5810043588280678, 5.519541501998901 1.3072597980499268, 5.08378803730011 l0.5810043588280678, 4.938537180423737 10.603330135345459, 8.715065717697144 l2.6145195960998535, 6.826801300048828 1.452510952949524, 1.5977619588375092 l5.810043811798096, 4.357532858848572 3.4860262274742126, 1.3072597980499268 l5.519541501998901, 0.2905021794140339 2.324017435312271, -0.2905021794140339 l4.212281703948975, -3.776528537273407 2.4692685902118683, -4.067030549049377 l1.452510952949524, -1.452510952949524 3.1955239176750183, -1.5977619588375092 l3.1955239176750183, -2.6145195960998535 2.324017435312271, -3.9217793941497803 l1.8882642686367035, -6.10054612159729 0.0, -19.463646411895752 l-0.8715065568685532, -6.536298990249634 -0.8715065568685532, -1.7430131137371063 l-1.5977619588375092, -1.452510952949524 -6.391047835350037, -3.63127738237381 l-6.10054612159729, -1.452510952949524 -4.502783715724945, 0.2905021794140339 l-3.63127738237381, 3.050273060798645 -3.63127738237381, 7.407805919647217 l-1.8882642686367035, 2.0335152745246887 -1.8882642686367035, -5.519541501998901 l-1.452510952949524, -2.324017435312271 -2.178766429424286, -1.5977619588375092 l-2.0335152745246887, -0.4357532784342766 m0.14525108970701694, 10.312827825546265 l-1.452510952949524, -0.4357532784342766 -3.1955239176750183, 0.0 l-2.178766429424286, 3.4860262274742126 -0.2905021794140339, 9.877074360847473 l0.5810043588280678, 1.7430131137371063 1.1620087176561356, 1.452510952949524 l3.050273060798645, 0.726255476474762 2.6145195960998535, 0.0 l2.4692685902118683, -3.4860262274742126 2.178766429424286, -7.553057074546814 l0.0, -2.4692685902118683 -0.726255476474762, -2.324017435312271 l-3.776528537273407, -1.452510952949524 m21.206660270690918, -0.2905021794140339 l-3.1955239176750183, 0.726255476474762 -1.7430131137371063, 0.8715065568685532 l-2.0335152745246887, 2.4692685902118683 -0.2905021794140339, 12.20109224319458 l0.14525108970701694, 1.3072597980499268 0.8715065568685532, 1.5977619588375092 l0.726255476474762, 0.4357532784342766 5.955294966697693, 0.726255476474762 l1.8882642686367035, -1.1620087176561356 1.7430131137371063, -4.357532858848572 l-0.14525108970701694, -9.150818586349487 -2.324017435312271, -3.4860262274742126 l-3.776528537273407, -1.7430131137371063 m-11.910589933395386, 20.04465103149414 l4.067030549049377, -0.2905021794140339 0.726255476474762, 0.5810043588280678 l0.14525108970701694, 3.3407750725746155 -0.5810043588280678, 1.452510952949524 l-0.726255476474762, 0.2905021794140339 -3.1955239176750183, -1.0167576372623444 l-1.0167576372623444, -2.324017435312271 0.14525108970701694, -2.4692685902118683 m2.4692685902118683, 5.229039192199707 l-2.4692685902118683, 3.9217793941497803 -1.452510952949524, 0.726255476474762 l-2.7597707509994507, 0.0 -1.7430131137371063, -0.5810043588280678 l-0.14525108970701694, -0.726255476474762 m9.150818586349487, -2.324017435312271 l0.14525108970701694, 1.452510952949524 0.5810043588280678, 0.726255476474762 l2.178766429424286, 1.0167576372623444 4.067030549049377, 0.726255476474762 l7.988809943199158, -0.2905021794140339 " fill="none" stroke="black" stroke-width="1" /></svg>