<?xml version="1.0" encoding="utf-8" ?>
<svg baseProfile="full" height="40.21222705952823" version="1.1" width="56.335098296403885" xmlns="http://www.w3.org/2000/svg" xmlns:ev="http://www.w3.org/2001/xml-events" xmlns:xlink="http://www.w3.org/1999/xlink"><defs /><rect fill="white" height="40.21222705952823" width="56.335098296403885" x="0" y="0" /><path d="M30.418941266834736, 9.502783063799143 m-5.810043811798096, 3.050273060798645 l-4.502783715724945, 3.1955239176750183 -0.8715065568685532, 1.0167576372623444 l0.0, 3.63127738237381 2.7597707509994507, 3.63127738237381 l2.178766429424286, 1.5977619588375092 3.1955239176750183, 0.726255476474762 l6.2457966804504395, 0.0 1.8882642686367035, -0.726255476474762 l1.5977619588375092, -2.324017435312271 1.452510952949524, -3.776528537273407 l0.5810043588280678, -3.9217793941497803 -1.5977619588375092, -2.4692685902118683 l-3.9217793941497803, -2.324017435312271 -1.7430131137371063, -0.4357532784342766 l-4.793286025524139, 0.2905021794140339 m-15.977619886398315, 11.910589933395386 l-6.10054612159729, -5.810043811798096 5.955294966697693, -1.0167576372623444 l2.4692685902118683, 0.0 0.4357532784342766, -1.3072597980499268 l0.14525108970701694, -6.2457966804504395 2.4692685902118683, 1.3072597980499268 l6.2457966804504395, -4.502783715724945 1.5977619588375092, 0.4357532784342766 l-0.14525108970701694, 1.7430131137371063 6.972052454948425, -1.8882642686367035 l1.0167576372623444, 0.0 1.1620087176561356, 0.726255476474762 l0.2905021794140339, 0.8715065568685532 1.0167576372623444, 0.5810043588280678 l5.229039192199707, -1.452510952949524 3.3407750725746155, -0.4357532784342766 l0.2905021794140339, 1.8882642686367035 0.8715065568685532, 1.7430131137371063 l3.050273060798645, 0.2905021794140339 0.0, 2.6145195960998535 l-0.726255476474762, 2.178766429424286 2.178766429424286, 1.452510952949524 l2.4692685902118683, 0.14525108970701694 0.0, 0.726255476474762 l-6.2457966804504395, 4.067030549049377 2.4692685902118683, 2.324017435312271 l0.5810043588280678, 2.324017435312271 -1.0167576372623444, 1.7430131137371063 l-1.5977619588375092, 0.8715065568685532 -1.0167576372623444, -0.726255476474762 l-1.3072597980499268, 1.7430131137371063 0.0, 2.324017435312271 l-1.1620087176561356, 2.4692685902118683 -2.0335152745246887, -0.4357532784342766 l-2.0335152745246887, -1.7430131137371063 -2.0335152745246887, -0.8715065568685532 l-1.1620087176561356, 1.7430131137371063 -0.2905021794140339, 2.7597707509994507 l-2.905021905899048, -2.7597707509994507 -2.4692685902118683, -1.0167576372623444 l-1.3072597980499268, 0.0 -2.178766429424286, 1.452510952949524 l-0.4357532784342766, 0.8715065568685532 -0.726255476474762, -2.905021905899048 l-4.502783715724945, 2.6145195960998535 -1.0167576372623444, -0.5810043588280678 l-0.14525108970701694, -4.648034870624542 -1.1620087176561356, -1.5977619588375092 l-5.229039192199707, 2.0335152745246887 0.726255476474762, -3.4860262274742126 l-2.6145195960998535, 0.14525108970701694 -0.2905021794140339, -1.8882642686367035 l0.5810043588280678, -1.452510952949524 2.178766429424286, -2.4692685902118683 " fill="none" stroke="black" stroke-width="1" /></svg>