<?xml version="1.0" encoding="utf-8" ?>
<svg baseProfile="full" height="72.1674670651555" version="1.1" width="81.31828729994595" xmlns="http://www.w3.org/2000/svg" xmlns:ev="http://www.w3.org/2001/xml-events" xmlns:xlink="http://www.w3.org/1999/xlink"><defs /><rect fill="white" height="72.1674670651555" width="81.31828729994595" x="0" y="0" /><path d="M19.815611243247986, 15.458078738301992 m-3.3407750725746155, 0.4357532784342766 l-3.4860262274742126, 1.8882642686367035 -2.6145195960998535, 1.8882642686367035 l-2.7597707509994507, 3.3407750725746155 -0.8715065568685532, 1.5977619588375092 l0.8715065568685532, 0.5810043588280678 4.212281703948975, -0.4357532784342766 l7.407805919647217, 0.2905021794140339 -4.938537180423737, 3.1955239176750183 l-4.212281703948975, 4.067030549049377 -1.3072597980499268, 0.726255476474762 l-3.776528537273407, 4.938537180423737 1.5977619588375092, 0.4357532784342766 l12.34634280204773, 0.0 0.2905021794140339, 1.0167576372623444 l-0.4357532784342766, 1.1620087176561356 -4.357532858848572, 7.698307633399963 l8.279312252998352, 1.0167576372623444 1.0167576372623444, 0.4357532784342766 l0.2905021794140339, 0.8715065568685532 -0.2905021794140339, 1.3072597980499268 l-2.324017435312271, 3.63127738237381 -4.212281703948975, 4.067030549049377 l7.407805919647217, 1.3072597980499268 11.910589933395386, 3.1955239176750183 l0.726255476474762, 0.4357532784342766 -0.2905021794140339, 0.726255476474762 l-1.5977619588375092, 1.0167576372623444 3.4860262274742126, -0.726255476474762 l14.234607219696045, 0.0 4.938537180423737, 0.4357532784342766 l3.9217793941497803, 1.1620087176561356 2.324017435312271, -1.3072597980499268 l3.776528537273407, -0.8715065568685532 2.4692685902118683, -1.1620087176561356 l0.2905021794140339, -0.726255476474762 -5.08378803730011, -3.3407750725746155 l-1.1620087176561356, -1.7430131137371063 1.7430131137371063, -2.0335152745246887 l3.9217793941497803, -1.452510952949524 0.2905021794140339, -0.726255476474762 l-13.363100290298462, -6.2457966804504395 -0.5810043588280678, -0.726255476474762 l0.14525108970701694, -1.0167576372623444 3.776528537273407, -1.3072597980499268 l0.726255476474762, -1.8882642686367035 1.7430131137371063, -0.726255476474762 l8.134061098098755, -1.5977619588375092 -4.502783715724945, -3.1955239176750183 l0.0, -1.0167576372623444 2.0335152745246887, -2.0335152745246887 l7.698307633399963, -3.9217793941497803 -0.4357532784342766, -1.8882642686367035 l-3.4860262274742126, -3.3407750725746155 -1.3072597980499268, -3.3407750725746155 l0.0, -7.26255476474762 1.7430131137371063, -6.972052454948425 l-10.02232551574707, -1.7430131137371063 -6.972052454948425, -0.5810043588280678 l-1.1620087176561356, 0.5810043588280678 -3.63127738237381, 0.5810043588280678 l-19.027893543243408, 2.4692685902118683 -15.396615266799927, 0.4357532784342766 l-0.4357532784342766, 1.8882642686367035 1.3072597980499268, 1.452510952949524 l0.726255476474762, 2.324017435312271 1.5977619588375092, 1.5977619588375092 l1.7430131137371063, 0.8715065568685532 m29.485971927642822, 9.00556743144989 l-1.3072597980499268, -1.1620087176561356 -5.08378803730011, -2.178766429424286 l-4.793286025524139, -0.726255476474762 -4.357532858848572, 2.6145195960998535 l-1.5977619588375092, 1.5977619588375092 -1.3072597980499268, 1.7430131137371063 l-0.726255476474762, 2.6145195960998535 -0.5810043588280678, 8.715065717697144 l0.5810043588280678, 1.452510952949524 1.5977619588375092, 1.5977619588375092 l2.7597707509994507, 1.7430131137371063 9.586572051048279, 1.8882642686367035 l8.569814562797546, 0.0 1.5977619588375092, -1.1620087176561356 l1.0167576372623444, -1.7430131137371063 2.178766429424286, -6.2457966804504395 l0.0, -3.9217793941497803 -0.4357532784342766, -1.5977619588375092 l-2.178766429424286, -3.1955239176750183 -1.8882642686367035, -1.8882642686367035 l-6.10054612159729, -2.7597707509994507 -10.603330135345459, -0.5810043588280678 m3.1955239176750183, 13.363100290298462 l-14.234607219696045, -0.2905021794140339 m14.815611839294434, 3.050273060798645 l-9.586572051048279, 4.212281703948975 10.312827825546265, 0.2905021794140339 l4.648034870624542, -1.8882642686367035 m4.648034870624542, -4.938537180423737 l11.184333562850952, 0.0 12.636845111846924, 1.7430131137371063 m-25.564191341400146, 2.324017435312271 l2.905021905899048, 0.5810043588280678 10.02232551574707, 4.502783715724945 l10.16757607460022, 3.63127738237381 1.8882642686367035, 0.2905021794140339 " fill="none" stroke="black" stroke-width="1" /></svg>