<?xml version="1.0" encoding="utf-8" ?>
<svg baseProfile="full" height="87.56408048793674" version="1.1" width="119.66457400470972" xmlns="http://www.w3.org/2000/svg" xmlns:ev="http://www.w3.org/2001/xml-events" xmlns:xlink="http://www.w3.org/1999/xlink"><defs /><rect fill="white" height="87.56408048793674" width="119.66457400470972" x="0" y="0" /><path d="M12.117303786799312, 19.234608113765717 m-1.1620087176561356, 3.1955239176750183 l-2.0335152745246887, 2.6145195960998535 -3.3407750725746155, 5.810043811798096 l-0.5810043588280678, 2.6145195960998535 0.4357532784342766, 3.4860262274742126 l2.324017435312271, 4.648034870624542 2.6145195960998535, 3.1955239176750183 l2.905021905899048, 2.6145195960998535 3.3407750725746155, 1.7430131137371063 l5.374290347099304, 0.0 5.519541501998901, -1.5977619588375092 l2.4692685902118683, -1.5977619588375092 1.5977619588375092, -1.7430131137371063 l1.7430131137371063, -4.648034870624542 0.0, -7.26255476474762 l-1.1620087176561356, -4.648034870624542 -2.324017435312271, -3.4860262274742126 l-4.648034870624542, -3.1955239176750183 -3.1955239176750183, -1.3072597980499268 l-4.357532858848572, -1.0167576372623444 m-6.972052454948425, 9.150818586349487 l-1.452510952949524, 1.3072597980499268 -0.5810043588280678, 1.7430131137371063 l0.5810043588280678, 3.1955239176750183 2.0335152745246887, 1.452510952949524 l1.7430131137371063, 0.5810043588280678 4.648034870624542, 0.2905021794140339 l1.8882642686367035, -2.0335152745246887 0.4357532784342766, -3.1955239176750183 l-1.0167576372623444, -2.6145195960998535 -3.050273060798645, -3.4860262274742126 m13.363100290298462, 3.4860262274742126 l-2.324017435312271, 4.067030549049377 0.0, 3.4860262274742126 l0.5810043588280678, 1.7430131137371063 1.452510952949524, 1.452510952949524 l3.1955239176750183, 0.2905021794140339 1.1620087176561356, -0.8715065568685532 l1.1620087176561356, -2.178766429424286 m-27.307205200195312, -16.413373947143555 l0.14525108970701694, -2.6145195960998535 1.5977619588375092, -7.26255476474762 l2.0335152745246887, -3.776528537273407 2.324017435312271, -1.452510952949524 l6.2457966804504395, 0.0 6.391047835350037, 0.2905021794140339 l6.826801300048828, 1.1620087176561356 6.972052454948425, 4.648034870624542 l4.357532858848572, 4.357532858848572 3.776528537273407, 4.938537180423737 l2.905021905899048, 6.972052454948425 0.0, 4.938537180423737 l-0.5810043588280678, 2.4692685902118683 -1.7430131137371063, 4.793286025524139 l-3.4860262274742126, 6.2457966804504395 -4.502783715724945, 6.826801300048828 l-1.7430131137371063, 1.7430131137371063 -6.536298990249634, 10.458078384399414 l-16.8491268157959, -9.877074360847473 -6.391047835350037, -6.10054612159729 l-2.178766429424286, -3.776528537273407 -1.7430131137371063, -6.681550145149231 l0.0, -4.793286025524139 1.5977619588375092, -6.391047835350037 l4.938537180423737, -12.34634280204773 m36.02226972579956, 14.08935546875 l2.0335152745246887, -1.8882642686367035 8.134061098098755, -3.776528537273407 l8.715065717697144, -2.905021905899048 6.10054612159729, -1.452510952949524 l6.681550145149231, -0.2905021794140339 14.52510952949524, 3.4860262274742126 l7.26255476474762, 2.7597707509994507 4.502783715724945, 2.4692685902118683 l3.9217793941497803, 2.6145195960998535 1.7430131137371063, 2.0335152745246887 l2.905021905899048, 5.810043811798096 0.5810043588280678, 2.6145195960998535 l0.0, 6.391047835350037 -0.5810043588280678, 4.067030549049377 l-2.178766429424286, 4.793286025524139 -3.9217793941497803, 5.6647926568984985 l-3.776528537273407, 3.1955239176750183 -4.067030549049377, 2.178766429424286 l-3.4860262274742126, 0.726255476474762 -4.357532858848572, -0.2905021794140339 l-16.413373947143555, -4.938537180423737 -16.703875064849854, -4.067030549049377 l-10.458078384399414, -4.067030549049377 -1.8882642686367035, -1.1620087176561356 l-1.3072597980499268, -1.452510952949524 -5.08378803730011, 0.0 m8.569814562797546, 1.7430131137371063 l-2.324017435312271, 15.687117576599121 m14.815611839294434, -12.20109224319458 l-0.8715065568685532, 7.8435587882995605 0.0, 6.972052454948425 l-0.4357532784342766, 1.0167576372623444 m16.12287163734436, -9.731823205947876 l-0.5810043588280678, 2.6145195960998535 0.0, 7.1173036098480225 l-0.4357532784342766, 3.4860262274742126 m21.93291425704956, -10.312827825546265 l4.938537180423737, 16.8491268157959 m-88.02216529846191, -42.703819274902344 l4.067030549049377, 1.1620087176561356 4.793286025524139, 0.0 m-3.4860262274742126, -20.04465103149414 l0.5810043588280678, -1.1620087176561356 5.08378803730011, -4.938537180423737 l-5.229039192199707, 3.776528537273407 -6.391047835350037, 6.2457966804504395 l0.5810043588280678, -0.726255476474762 4.793286025524139, -2.0335152745246887 l7.988809943199158, -1.452510952949524 0.726255476474762, -0.5810043588280678 l-7.553057074546814, 0.2905021794140339 -5.08378803730011, 0.8715065568685532 l2.324017435312271, -0.5810043588280678 8.134061098098755, -0.2905021794140339 l-10.748580694198608, -1.452510952949524 0.5810043588280678, -0.8715065568685532 l20.33515214920044, 0.2905021794140339 -24.11168098449707, -1.7430131137371063 l3.776528537273407, -0.2905021794140339 7.26255476474762, 1.1620087176561356 l8.42456340789795, 1.5977619588375092 5.374290347099304, 1.5977619588375092 l0.726255476474762, 0.8715065568685532 -0.8715065568685532, 2.324017435312271 l-4.648034870624542, 4.357532858848572 -1.1620087176561356, 1.7430131137371063 l5.229039192199707, -0.2905021794140339 6.536298990249634, 1.1620087176561356 l-0.14525108970701694, 1.1620087176561356 -2.905021905899048, 2.905021905899048 l-6.391047835350037, 4.357532858848572 -1.5977619588375092, 1.7430131137371063 l0.14525108970701694, 1.452510952949524 -2.0335152745246887, 5.519541501998901 l-1.452510952949524, 2.6145195960998535 -0.5810043588280678, 2.324017435312271 l0.4357532784342766, 0.8715065568685532 7.553057074546814, 2.0335152745246887 l0.14525108970701694, 1.1620087176561356 -1.452510952949524, 1.1620087176561356 l-2.324017435312271, 0.8715065568685532 -2.905021905899048, 0.5810043588280678 l0.2905021794140339, -1.1620087176561356 1.452510952949524, -1.1620087176561356 l9.877074360847473, -3.4860262274742126 -2.178766429424286, -0.2905021794140339 l-0.4357532784342766, -0.726255476474762 1.0167576372623444, -2.4692685902118683 l1.8882642686367035, -2.905021905899048 3.1955239176750183, -3.4860262274742126 l4.212281703948975, -3.4860262274742126 4.212281703948975, -4.357532858848572 l2.0335152745246887, -3.776528537273407 0.5810043588280678, -6.10054612159729 l-1.1620087176561356, -1.7430131137371063 -2.905021905899048, -1.7430131137371063 l-9.877074360847473, -2.4692685902118683 -4.938537180423737, -0.4357532784342766 l0.2905021794140339, -0.8715065568685532 3.1955239176750183, -1.7430131137371063 l0.2905021794140339, -1.1620087176561356 -2.0335152745246887, -1.7430131137371063 l-2.0335152745246887, -1.0167576372623444 -6.2457966804504395, -2.178766429424286 l-7.988809943199158, -0.8715065568685532 18.882641792297363, 2.0335152745246887 l-16.26812219619751, -1.8882642686367035 -7.988809943199158, -0.4357532784342766 l8.569814562797546, 1.1620087176561356 22.078166007995605, 4.357532858848572 " fill="none" stroke="black" stroke-width="1" /></svg>