<?xml version="1.0" encoding="utf-8" ?>
<svg baseProfile="full" height="74.7819865681231" version="1.1" width="84.5138103980571" xmlns="http://www.w3.org/2000/svg" xmlns:ev="http://www.w3.org/2001/xml-events" xmlns:xlink="http://www.w3.org/1999/xlink"><defs /><rect fill="white" height="74.7819865681231" width="84.5138103980571" x="0" y="0" /><path d="M36.95523841306567, 22.430131128057837 m-9.296069741249084, 4.938537180423737 l-3.050273060798645, 2.6145195960998535 -1.3072597980499268, 1.7430131137371063 l-1.7430131137371063, 4.648034870624542 -0.14525108970701694, 7.698307633399963 l2.905021905899048, 7.26255476474762 1.5977619588375092, 1.5977619588375092 l2.4692685902118683, 1.452510952949524 5.374290347099304, 2.324017435312271 l4.793286025524139, 1.1620087176561356 7.26255476474762, 0.14525108970701694 l4.067030549049377, -1.7430131137371063 6.826801300048828, -5.6647926568984985 l4.793286025524139, -6.681550145149231 0.8715065568685532, -3.63127738237381 l-0.14525108970701694, -3.3407750725746155 -1.5977619588375092, -3.050273060798645 l-1.5977619588375092, -1.8882642686367035 -5.08378803730011, -3.63127738237381 l-4.212281703948975, -3.9217793941497803 -6.2457966804504395, -3.63127738237381 l-4.938537180423737, -1.7430131137371063 -4.502783715724945, -0.4357532784342766 m-3.4860262274742126, 10.603330135345459 l0.0, 2.324017435312271 1.0167576372623444, 1.5977619588375092 l2.4692685902118683, 1.7430131137371063 2.178766429424286, -0.14525108970701694 l1.1620087176561356, -2.178766429424286 0.5810043588280678, -2.905021905899048 l0.0, -1.5977619588375092 -1.0167576372623444, -1.452510952949524 l-1.452510952949524, 0.14525108970701694 -3.9217793941497803, 2.7597707509994507 l1.0167576372623444, 1.1620087176561356 1.7430131137371063, 0.4357532784342766 m18.44688892364502, -0.8715065568685532 l-7.1173036098480225, 4.212281703948975 -1.0167576372623444, 1.452510952949524 l0.4357532784342766, 0.726255476474762 0.8715065568685532, 0.2905021794140339 l5.6647926568984985, 0.0 1.5977619588375092, -2.324017435312271 l0.5810043588280678, -2.178766429424286 -0.5810043588280678, -2.178766429424286 l-6.826801300048828, -0.2905021794140339 m-16.12287163734436, 10.748580694198608 l2.4692685902118683, 3.1955239176750183 3.4860262274742126, 2.4692685902118683 l1.7430131137371063, 0.8715065568685532 5.6647926568984985, 1.3072597980499268 l2.324017435312271, -0.2905021794140339 3.4860262274742126, -2.178766429424286 l1.0167576372623444, -1.5977619588375092 -1.5977619588375092, -1.452510952949524 m-23.966429233551025, -15.832369327545166 l-0.5810043588280678, -1.7430131137371063 -1.5977619588375092, -0.726255476474762 l-1.8882642686367035, -0.14525108970701694 -7.8435587882995605, 3.050273060798645 l-1.5977619588375092, 2.905021905899048 0.14525108970701694, 3.1955239176750183 l3.3407750725746155, 4.502783715724945 -1.452510952949524, 1.0167576372623444 l-4.793286025524139, 0.14525108970701694 -1.5977619588375092, 1.1620087176561356 l-1.8882642686367035, 3.9217793941497803 -0.14525108970701694, 4.648034870624542 l0.5810043588280678, 1.8882642686367035 4.938537180423737, 8.715065717697144 l2.7597707509994507, 2.905021905899048 2.4692685902118683, 1.7430131137371063 l1.5977619588375092, 0.5810043588280678 2.0335152745246887, 0.0 l3.776528537273407, -1.5977619588375092 2.0335152745246887, -2.178766429424286 l0.14525108970701694, 3.050273060798645 0.4357532784342766, 0.8715065568685532 l7.698307633399963, 3.050273060798645 5.519541501998901, 1.5977619588375092 l2.324017435312271, -0.14525108970701694 2.0335152745246887, -1.5977619588375092 l2.178766429424286, -2.7597707509994507 3.63127738237381, -6.536298990249634 l6.10054612159729, 0.8715065568685532 4.357532858848572, 0.0 l4.212281703948975, -1.1620087176561356 2.7597707509994507, -1.7430131137371063 l2.7597707509994507, -4.067030549049377 1.1620087176561356, -3.1955239176750183 l0.0, -0.8715065568685532 -0.726255476474762, -0.4357532784342766 l-1.5977619588375092, 0.0 9.00556743144989, -2.6145195960998535 l1.8882642686367035, -4.212281703948975 0.4357532784342766, -4.212281703948975 l0.0, -0.8715065568685532 -0.8715065568685532, -0.726255476474762 l-2.4692685902118683, -1.1620087176561356 -5.955294966697693, -1.0167576372623444 l-4.502783715724945, 0.2905021794140339 5.519541501998901, -2.7597707509994507 l2.6145195960998535, -4.648034870624542 1.8882642686367035, -6.826801300048828 l0.0, -2.6145195960998535 -1.452510952949524, -2.0335152745246887 l-11.474835872650146, -2.905021905899048 -3.776528537273407, -0.14525108970701694 l-8.42456340789795, 3.050273060798645 -1.7430131137371063, 1.1620087176561356 l0.726255476474762, 0.2905021794140339 3.1955239176750183, -1.452510952949524 l2.0335152745246887, -2.324017435312271 0.14525108970701694, -3.050273060798645 l-1.5977619588375092, -2.324017435312271 -2.905021905899048, -1.3072597980499268 l-11.329585313796997, -0.726255476474762 -5.08378803730011, 0.0 l-3.4860262274742126, 0.8715065568685532 -2.4692685902118683, 1.5977619588375092 l-3.1955239176750183, 3.050273060798645 -0.8715065568685532, 1.5977619588375092 l-0.14525108970701694, 3.1955239176750183 0.2905021794140339, 0.8715065568685532 l0.726255476474762, 0.0 0.2905021794140339, -2.4692685902118683 " fill="none" stroke="black" stroke-width="1" /></svg>