<?xml version="1.0" encoding="utf-8" ?>
<svg baseProfile="full" height="66.35742340236902" version="1.1" width="72.45796954259276" xmlns="http://www.w3.org/2000/svg" xmlns:ev="http://www.w3.org/2001/xml-events" xmlns:xlink="http://www.w3.org/1999/xlink"><defs /><rect fill="white" height="66.35742340236902" width="72.45796954259276" x="0" y="0" /><path d="M27.36866783350706, 23.882641522213817 m-1.8882642686367035, 4.793286025524139 l-2.7597707509994507, 4.648034870624542 -0.2905021794140339, 1.5977619588375092 l0.5810043588280678, 2.6145195960998535 4.067030549049377, 4.793286025524139 l5.810043811798096, 3.776528537273407 5.6647926568984985, 0.2905021794140339 l1.5977619588375092, -0.4357532784342766 2.324017435312271, -2.324017435312271 l3.4860262274742126, -5.08378803730011 1.5977619588375092, -4.212281703948975 l8.42456340789795, -15.396615266799927 0.2905021794140339, -2.178766429424286 l-0.726255476474762, -0.8715065568685532 -2.178766429424286, -0.5810043588280678 l-11.184333562850952, 2.4692685902118683 -7.1173036098480225, 0.5810043588280678 l-3.3407750725746155, 2.4692685902118683 -3.9217793941497803, 1.8882642686367035 l-1.5977619588375092, 2.0335152745246887 m0.0, 0.0 l-10.02232551574707, 4.357532858848572 -6.972052454948425, 1.5977619588375092 l-4.212281703948975, 3.050273060798645 0.4357532784342766, 0.8715065568685532 l1.0167576372623444, 0.4357532784342766 4.793286025524139, -2.324017435312271 l4.938537180423737, 0.5810043588280678 3.776528537273407, -1.0167576372623444 l0.5810043588280678, 0.726255476474762 0.0, 4.793286025524139 l0.4357532784342766, 0.726255476474762 1.7430131137371063, -1.452510952949524 l0.726255476474762, 4.793286025524139 1.1620087176561356, 1.3072597980499268 l1.452510952949524, -0.14525108970701694 -1.452510952949524, 2.324017435312271 l0.14525108970701694, 2.178766429424286 1.5977619588375092, -0.2905021794140339 l3.4860262274742126, -2.7597707509994507 2.0335152745246887, 5.374290347099304 l2.0335152745246887, 3.3407750725746155 2.178766429424286, 2.324017435312271 l1.452510952949524, 0.4357532784342766 1.5977619588375092, -1.7430131137371063 l2.7597707509994507, -5.374290347099304 0.726255476474762, 0.2905021794140339 l2.324017435312271, 3.1955239176750183 0.726255476474762, 0.2905021794140339 l1.8882642686367035, -1.0167576372623444 1.0167576372623444, -2.0335152745246887 l0.14525108970701694, -4.212281703948975 -0.14525108970701694, -0.8715065568685532 l-1.5977619588375092, -0.8715065568685532 -0.4357532784342766, -0.726255476474762 l3.050273060798645, -1.5977619588375092 4.648034870624542, -1.5977619588375092 l3.9217793941497803, -2.4692685902118683 2.4692685902118683, -2.6145195960998535 l0.8715065568685532, -2.7597707509994507 -1.0167576372623444, -1.1620087176561356 l-2.7597707509994507, -0.14525108970701694 0.14525108970701694, -0.726255476474762 l9.00556743144989, -3.4860262274742126 0.5810043588280678, -0.726255476474762 l-4.502783715724945, -2.4692685902118683 -0.2905021794140339, -0.726255476474762 l4.067030549049377, -4.938537180423737 0.4357532784342766, -1.5977619588375092 l-0.4357532784342766, -0.726255476474762 -2.324017435312271, -1.1620087176561356 l-2.6145195960998535, -0.4357532784342766 -4.793286025524139, 0.14525108970701694 l-1.7430131137371063, -0.8715065568685532 -2.178766429424286, -2.324017435312271 l-2.4692685902118683, -1.1620087176561356 -1.5977619588375092, 0.2905021794140339 l-3.050273060798645, 2.0335152745246887 -6.681550145149231, 0.5810043588280678 l-3.63127738237381, -6.10054612159729 -1.452510952949524, -1.1620087176561356 l-1.452510952949524, 1.1620087176561356 -3.1955239176750183, 5.08378803730011 l-3.9217793941497803, 9.731823205947876 -1.5977619588375092, -2.6145195960998535 l-1.452510952949524, -1.0167576372623444 -1.3072597980499268, 1.0167576372623444 l0.0, 1.452510952949524 m14.670360088348389, 3.3407750725746155 l-3.050273060798645, 1.0167576372623444 -1.0167576372623444, 1.5977619588375092 l0.8715065568685532, 2.178766429424286 2.6145195960998535, 2.178766429424286 l1.3072597980499268, 0.5810043588280678 1.1620087176561356, -0.2905021794140339 l1.3072597980499268, -1.452510952949524 0.4357532784342766, -1.5977619588375092 l-0.5810043588280678, -0.726255476474762 -2.178766429424286, -1.0167576372623444 l-3.050273060798645, -3.63127738237381 m9.296069741249084, -1.8882642686367035 l-0.8715065568685532, 6.391047835350037 1.5977619588375092, 3.3407750725746155 l1.5977619588375092, 1.3072597980499268 1.0167576372623444, -0.726255476474762 l2.7597707509994507, -4.502783715724945 0.5810043588280678, -1.8882642686367035 l-0.14525108970701694, -2.6145195960998535 -1.3072597980499268, -2.178766429424286 l-1.5977619588375092, -0.5810043588280678 -0.726255476474762, 0.2905021794140339 l-2.6145195960998535, 3.050273060798645 m-6.2457966804504395, 12.055840492248535 l-11.76533818244934, 4.793286025524139 -1.1620087176561356, 1.5977619588375092 l-0.726255476474762, 2.4692685902118683 1.0167576372623444, 0.5810043588280678 l3.776528537273407, 1.1620087176561356 6.536298990249634, 1.1620087176561356 l2.178766429424286, -0.2905021794140339 2.905021905899048, -2.324017435312271 l2.0335152745246887, -2.6145195960998535 -3.4860262274742126, -4.648034870624542 l-2.0335152745246887, -0.726255476474762 m-8.42456340789795, 15.977619886398315 l0.726255476474762, 2.7597707509994507 1.3072597980499268, -3.9217793941497803 l0.726255476474762, -0.5810043588280678 2.0335152745246887, 0.0 l14.670360088348389, 5.6647926568984985 m-0.2905021794140339, 0.2905021794140339 l4.648034870624542, -5.08378803730011 -0.14525108970701694, -0.8715065568685532 l-10.603330135345459, -0.4357532784342766 -21.351909637451172, 5.08378803730011 l-8.86031687259674, 3.63127738237381 -3.63127738237381, 2.905021905899048 l-0.2905021794140339, 0.726255476474762 " fill="none" stroke="black" stroke-width="1" /></svg>