<?xml version="1.0" encoding="utf-8" ?>
<svg baseProfile="full" height="57.78760962188244" version="1.1" width="74.34623355045915" xmlns="http://www.w3.org/2000/svg" xmlns:ev="http://www.w3.org/2001/xml-events" xmlns:xlink="http://www.w3.org/1999/xlink"><defs /><rect fill="white" height="57.78760962188244" width="74.34623355045915" x="0" y="0" /><path d="M48.86582961305976, 21.994377840310335 m-0.14525108970701694, -0.8715065568685532 l-2.178766429424286, -1.7430131137371063 -4.502783715724945, -1.7430131137371063 l-4.212281703948975, -0.4357532784342766 -3.4860262274742126, 0.4357532784342766 l-2.324017435312271, 0.8715065568685532 -2.0335152745246887, 1.452510952949524 l-1.7430131137371063, 2.4692685902118683 -0.8715065568685532, 3.1955239176750183 l0.726255476474762, 4.648034870624542 1.8882642686367035, 2.905021905899048 l0.8715065568685532, 0.5810043588280678 4.502783715724945, 1.5977619588375092 l4.067030549049377, 0.5810043588280678 3.050273060798645, 0.0 l1.5977619588375092, -0.726255476474762 2.324017435312271, -1.8882642686367035 l1.0167576372623444, -1.5977619588375092 1.0167576372623444, -6.391047835350037 l-0.4357532784342766, -3.776528537273407 m-5.955294966697693, -11.76533818244934 l2.0335152745246887, -2.324017435312271 3.776528537273407, -1.3072597980499268 l10.458078384399414, 0.0 3.776528537273407, 0.726255476474762 l3.63127738237381, 0.0 -2.7597707509994507, 1.3072597980499268 l-3.9217793941497803, 2.905021905899048 -3.050273060798645, 5.08378803730011 l5.810043811798096, 0.2905021794140339 3.1955239176750183, 1.1620087176561356 l3.4860262274742126, 3.050273060798645 0.726255476474762, 1.1620087176561356 l0.14525108970701694, 1.7430131137371063 -3.050273060798645, 5.374290347099304 l-3.4860262274742126, 2.905021905899048 -3.1955239176750183, 1.452510952949524 l-4.938537180423737, 3.3407750725746155 0.2905021794140339, 1.1620087176561356 l4.067030549049377, 2.0335152745246887 1.7430131137371063, 1.452510952949524 l1.8882642686367035, 2.4692685902118683 0.5810043588280678, 2.4692685902118683 l-3.050273060798645, 2.324017435312271 -5.229039192199707, 2.178766429424286 l-8.134061098098755, 1.452510952949524 -6.2457966804504395, 0.5810043588280678 l-2.0335152745246887, -1.7430131137371063 -4.212281703948975, -0.726255476474762 l-5.08378803730011, -2.324017435312271 -1.452510952949524, -1.8882642686367035 l0.0, -1.5977619588375092 -4.938537180423737, 1.452510952949524 l-3.3407750725746155, 0.0 -1.5977619588375092, -0.8715065568685532 l-2.4692685902118683, -3.050273060798645 -1.7430131137371063, -3.63127738237381 l-0.8715065568685532, -3.050273060798645 -0.726255476474762, -5.6647926568984985 l-5.955294966697693, -3.1955239176750183 -1.1620087176561356, -1.5977619588375092 l0.0, -1.7430131137371063 3.4860262274742126, -2.6145195960998535 l2.6145195960998535, -0.726255476474762 4.502783715724945, -0.5810043588280678 l7.553057074546814, 0.0 2.178766429424286, -0.726255476474762 l0.726255476474762, -0.8715065568685532 -0.14525108970701694, -1.8882642686367035 l-3.63127738237381, -3.4860262274742126 -1.7430131137371063, -3.4860262274742126 l0.14525108970701694, -0.726255476474762 1.0167576372623444, -0.5810043588280678 l13.94410490989685, -2.4692685902118683 5.6647926568984985, 4.067030549049377 m-9.150818586349487, 8.715065717697144 l-1.1620087176561356, -1.7430131137371063 -4.357532858848572, -1.8882642686367035 l-2.178766429424286, -0.14525108970701694 -1.8882642686367035, 2.0335152745246887 l-0.14525108970701694, 2.6145195960998535 0.5810043588280678, 1.8882642686367035 l1.452510952949524, 1.1620087176561356 0.726255476474762, 0.0 m18.59213948249817, -4.212281703948975 l4.357532858848572, -2.7597707509994507 1.8882642686367035, -0.2905021794140339 l2.7597707509994507, 0.5810043588280678 0.726255476474762, 1.7430131137371063 " fill="none" stroke="black" stroke-width="1" /></svg>