<?xml version="1.0" encoding="utf-8" ?>
<svg baseProfile="full" height="56.480349358171225" version="1.1" width="53.575327368453145" xmlns="http://www.w3.org/2000/svg" xmlns:ev="http://www.w3.org/2001/xml-events" xmlns:xlink="http://www.w3.org/1999/xlink"><defs /><rect fill="white" height="56.480349358171225" width="53.575327368453145" x="0" y="0" /><path d="M25.62565508298576, 10.519541436806321 m-0.726255476474762, -0.14525108970701694 l-3.1955239176750183, -3.3407750725746155 -2.905021905899048, -1.3072597980499268 l-4.212281703948975, -0.726255476474762 -1.452510952949524, 1.3072597980499268 l-0.2905021794140339, 1.7430131137371063 1.452510952949524, 2.324017435312271 l-2.905021905899048, -0.2905021794140339 -1.5977619588375092, 0.5810043588280678 l-2.178766429424286, 1.452510952949524 -1.0167576372623444, 1.3072597980499268 l-0.8715065568685532, 1.8882642686367035 0.14525108970701694, 3.1955239176750183 l1.452510952949524, 1.3072597980499268 1.452510952949524, 0.2905021794140339 l-0.8715065568685532, -0.2905021794140339 -1.7430131137371063, 2.178766429424286 l-0.8715065568685532, 2.178766429424286 -0.2905021794140339, 4.502783715724945 l1.452510952949524, 1.7430131137371063 2.6145195960998535, 0.726255476474762 l-1.1620087176561356, 1.7430131137371063 -0.4357532784342766, 1.5977619588375092 l-0.14525108970701694, 2.7597707509994507 1.1620087176561356, 2.0335152745246887 l2.905021905899048, 2.324017435312271 3.050273060798645, 1.3072597980499268 l4.648034870624542, 0.8715065568685532 4.502783715724945, 0.0 l-0.14525108970701694, 3.63127738237381 0.726255476474762, 1.452510952949524 l2.324017435312271, 2.178766429424286 4.502783715724945, 0.4357532784342766 l2.324017435312271, -1.0167576372623444 0.8715065568685532, -1.0167576372623444 l1.3072597980499268, -3.63127738237381 2.324017435312271, 1.5977619588375092 l2.7597707509994507, 0.4357532784342766 0.726255476474762, -0.2905021794140339 l1.8882642686367035, -5.229039192199707 -0.14525108970701694, -5.810043811798096 l3.1955239176750183, -1.0167576372623444 1.8882642686367035, -2.0335152745246887 l0.4357532784342766, -2.7597707509994507 -1.3072597980499268, -3.4860262274742126 l-3.4860262274742126, -3.63127738237381 0.726255476474762, -4.212281703948975 l-0.5810043588280678, -3.050273060798645 -2.324017435312271, -0.8715065568685532 l-1.5977619588375092, -3.63127738237381 -3.050273060798645, -2.178766429424286 l-3.4860262274742126, -1.0167576372623444 -1.8882642686367035, 0.0 l-1.5977619588375092, 1.0167576372623444 -0.2905021794140339, -1.452510952949524 l-1.0167576372623444, -0.2905021794140339 -1.7430131137371063, 0.14525108970701694 l-0.4357532784342766, 0.4357532784342766 m1.8882642686367035, 8.715065717697144 l-11.910589933395386, 0.0 -0.726255476474762, 0.726255476474762 l-0.8715065568685532, 4.067030549049377 0.0, 3.4860262274742126 l2.4692685902118683, 4.793286025524139 3.3407750725746155, 3.3407750725746155 l2.6145195960998535, 1.3072597980499268 5.810043811798096, 0.2905021794140339 l2.4692685902118683, -0.8715065568685532 1.5977619588375092, -1.3072597980499268 l1.3072597980499268, -3.050273060798645 -0.2905021794140339, -4.793286025524139 l-1.7430131137371063, -4.067030549049377 -3.3407750725746155, -3.050273060798645 m-9.296069741249084, 5.519541501998901 l0.8715065568685532, -0.4357532784342766 " fill="none" stroke="black" stroke-width="1" /></svg>