<?xml version="1.0" encoding="utf-8" ?>
<svg baseProfile="full" height="102.08919271826744" version="1.1" width="119.66457390226424" xmlns="http://www.w3.org/2000/svg" xmlns:ev="http://www.w3.org/2001/xml-events" xmlns:xlink="http://www.w3.org/1999/xlink"><defs /><rect fill="white" height="102.08919271826744" width="119.66457390226424" x="0" y="0" /><path d="M59.17865631170571, 23.59213943593204 m-1.5977619588375092, -0.5810043588280678 l-12.491593360900879, 4.938537180423737 -4.938537180423737, 6.10054612159729 l-2.324017435312271, 4.648034870624542 -1.452510952949524, 5.810043811798096 l0.0, 5.374290347099304 1.1620087176561356, 2.7597707509994507 l3.1955239176750183, 5.08378803730011 4.938537180423737, 5.08378803730011 l3.4860262274742126, 2.905021905899048 7.8435587882995605, 4.212281703948975 l7.8435587882995605, 1.452510952949524 5.955294966697693, -0.2905021794140339 l4.938537180423737, -2.0335152745246887 2.178766429424286, -1.7430131137371063 l3.9217793941497803, -4.793286025524139 2.324017435312271, -5.229039192199707 l1.3072597980499268, -6.10054612159729 0.14525108970701694, -6.536298990249634 l-1.0167576372623444, -6.536298990249634 -2.178766429424286, -4.357532858848572 l-3.3407750725746155, -3.776528537273407 -2.0335152745246887, -1.0167576372623444 l-5.810043811798096, -1.0167576372623444 -3.4860262274742126, -2.178766429424286 l-3.63127738237381, -1.3072597980499268 -4.212281703948975, -0.14525108970701694 m-11.76533818244934, -3.776528537273407 l-5.374290347099304, -3.3407750725746155 -8.279312252998352, -3.9217793941497803 l-0.5810043588280678, 1.0167576372623444 0.726255476474762, 3.9217793941497803 l2.178766429424286, 4.793286025524139 -7.8435587882995605, -3.63127738237381 l-6.681550145149231, -1.0167576372623444 -10.748580694198608, 0.4357532784342766 l-4.648034870624542, 1.7430131137371063 15.396615266799927, 7.1173036098480225 l5.6647926568984985, 3.776528537273407 1.7430131137371063, 2.324017435312271 l-0.8715065568685532, 0.726255476474762 -12.34634280204773, 3.9217793941497803 l-6.2457966804504395, 2.7597707509994507 -2.905021905899048, 1.8882642686367035 l-0.2905021794140339, 0.8715065568685532 0.726255476474762, 0.4357532784342766 l5.955294966697693, 1.452510952949524 2.0335152745246887, 2.4692685902118683 l0.2905021794140339, 1.1620087176561356 -0.14525108970701694, 0.8715065568685532 l-1.3072597980499268, 1.5977619588375092 -6.681550145149231, 6.826801300048828 l-2.7597707509994507, 4.357532858848572 -0.14525108970701694, 1.8882642686367035 l12.782095670700073, -5.6647926568984985 7.1173036098480225, -2.178766429424286 l0.5810043588280678, 1.1620087176561356 -1.3072597980499268, 8.134061098098755 l-0.14525108970701694, 6.10054612159729 1.0167576372623444, 6.10054612159729 l0.8715065568685532, -0.14525108970701694 4.067030549049377, -3.3407750725746155 l7.1173036098480225, -4.067030549049377 3.4860262274742126, -1.452510952949524 l0.8715065568685532, 12.20109224319458 1.5977619588375092, 4.357532858848572 l1.8882642686367035, 0.14525108970701694 8.715065717697144, -3.050273060798645 l6.391047835350037, -0.8715065568685532 1.0167576372623444, 0.4357532784342766 l3.4860262274742126, 7.698307633399963 4.938537180423737, -3.9217793941497803 l2.6145195960998535, -1.3072597980499268 1.3072597980499268, 1.1620087176561356 l3.050273060798645, 6.681550145149231 3.1955239176750183, 3.9217793941497803 l0.2905021794140339, -1.452510952949524 -5.955294966697693, -8.569814562797546 l31.083734035491943, -2.6145195960998535 4.357532858848572, -1.3072597980499268 l0.5810043588280678, -1.3072597980499268 -2.6145195960998535, -3.63127738237381 l-3.050273060798645, -2.4692685902118683 -6.10054612159729, -3.3407750725746155 l10.458078384399414, -2.324017435312271 4.793286025524139, -2.4692685902118683 l1.1620087176561356, -1.8882642686367035 -3.4860262274742126, -2.905021905899048 l-9.296069741249084, -3.63127738237381 -3.776528537273407, -2.7597707509994507 l-3.1955239176750183, -2.905021905899048 -1.3072597980499268, -2.324017435312271 l-0.2905021794140339, -2.4692685902118683 1.1620087176561356, -2.4692685902118683 l8.86031687259674, -7.988809943199158 4.502783715724945, -5.08378803730011 l1.5977619588375092, -3.776528537273407 -0.5810043588280678, -1.5977619588375092 l-12.20109224319458, -0.8715065568685532 -1.452510952949524, -0.726255476474762 l-0.8715065568685532, -1.1620087176561356 -1.0167576372623444, -5.374290347099304 l-0.8715065568685532, -2.178766429424286 -1.1620087176561356, -1.3072597980499268 l-1.7430131137371063, -1.3072597980499268 -18.01113486289978, -3.63127738237381 l-2.905021905899048, -1.452510952949524 -0.5810043588280678, -1.0167576372623444 l0.0, -3.776528537273407 " fill="none" stroke="black" stroke-width="1" /></svg>