<?xml version="1.0" encoding="utf-8" ?>
<svg baseProfile="full" height="68.6814388167113" version="1.1" width="118.50256400182843" xmlns="http://www.w3.org/2000/svg" xmlns:ev="http://www.w3.org/2001/xml-events" xmlns:xlink="http://www.w3.org/1999/xlink"><defs /><rect fill="white" height="68.6814388167113" width="118.50256400182843" x="0" y="0" /><path d="M30.418942058458924, 11.245796866714954 m-3.4860262274742126, 0.4357532784342766 l-4.067030549049377, 2.905021905899048 -1.7430131137371063, 3.4860262274742126 l-1.0167576372623444, 6.681550145149231 -1.8882642686367035, 3.776528537273407 l-1.8882642686367035, 1.1620087176561356 -7.698307633399963, 2.324017435312271 l-2.178766429424286, 1.5977619588375092 -1.3072597980499268, 2.324017435312271 l0.0, 6.2457966804504395 0.5810043588280678, 1.5977619588375092 l1.5977619588375092, 2.178766429424286 5.374290347099304, 1.5977619588375092 l3.4860262274742126, 0.4357532784342766 4.938537180423737, 0.0 l2.4692685902118683, -0.726255476474762 1.8882642686367035, -0.8715065568685532 l4.648034870624542, -3.4860262274742126 2.4692685902118683, -0.5810043588280678 m-12.782095670700073, -17.284879684448242 l0.14525108970701694, -2.6145195960998535 -1.0167576372623444, -5.229039192199707 l0.14525108970701694, -6.972052454948425 1.5977619588375092, -2.4692685902118683 l0.8715065568685532, -0.5810043588280678 5.08378803730011, -1.5977619588375092 l5.229039192199707, -0.5810043588280678 12.636845111846924, 0.0 l3.63127738237381, 1.0167576372623444 2.0335152745246887, 1.1620087176561356 l5.374290347099304, 4.793286025524139 2.4692685902118683, 3.050273060798645 l2.4692685902118683, 4.212281703948975 1.7430131137371063, 7.26255476474762 l-0.14525108970701694, 8.279312252998352 -1.5977619588375092, 5.374290347099304 l-1.3072597980499268, 2.6145195960998535 -3.4860262274742126, 5.229039192199707 l-2.6145195960998535, 3.050273060798645 -2.0335152745246887, 1.5977619588375092 l-3.1955239176750183, 1.5977619588375092 -2.6145195960998535, 0.726255476474762 l-5.519541501998901, 0.0 -2.178766429424286, -0.4357532784342766 l-3.4860262274742126, -1.452510952949524 -3.050273060798645, -2.6145195960998535 l-1.3072597980499268, -2.324017435312271 -0.5810043588280678, -3.1955239176750183 m1.7430131137371063, -36.89377784729004 l4.212281703948975, 0.0 8.42456340789795, 0.8715065568685532 l3.050273060798645, 0.726255476474762 m-4.357532858848572, 9.00556743144989 l7.1173036098480225, 1.1620087176561356 8.279312252998352, 2.0335152745246887 l6.536298990249634, 2.178766429424286 1.3072597980499268, 0.5810043588280678 l0.5810043588280678, 0.8715065568685532 -2.0335152745246887, 2.6145195960998535 m-15.106114149093628, 9.150818586349487 l4.793286025524139, 0.4357532784342766 6.972052454948425, 2.6145195960998535 l0.2905021794140339, 1.0167576372623444 -0.5810043588280678, 1.1620087176561356 l-1.5977619588375092, 1.3072597980499268 m-18.737391233444214, 7.1173036098480225 l4.357532858848572, 1.3072597980499268 9.441320896148682, 1.3072597980499268 m-13.798853158950806, -26.726200580596924 l13.94410490989685, -2.0335152745246887 m-20.189902782440186, -3.9217793941497803 l5.374290347099304, -2.7597707509994507 3.3407750725746155, -0.5810043588280678 m-3.4860262274742126, 22.949671745300293 l9.150818586349487, -0.2905021794140339 3.4860262274742126, 0.2905021794140339 l2.178766429424286, 0.8715065568685532 m-26.87145233154297, -21.64241313934326 l1.1620087176561356, -0.2905021794140339 1.1620087176561356, 1.8882642686367035 l0.0, 1.8882642686367035 -0.726255476474762, 0.5810043588280678 l-2.7597707509994507, -2.0335152745246887 0.2905021794140339, -2.4692685902118683 l1.7430131137371063, -0.726255476474762 1.7430131137371063, 0.2905021794140339 l0.2905021794140339, 1.8882642686367035 -1.3072597980499268, 1.8882642686367035 l-2.0335152745246887, 1.3072597980499268 m-21.497161388397217, 10.312827825546265 l1.452510952949524, 1.3072597980499268 4.212281703948975, 1.3072597980499268 l2.6145195960998535, -1.0167576372623444 2.324017435312271, -2.0335152745246887 l1.7430131137371063, -2.7597707509994507 -1.1620087176561356, 0.14525108970701694 m47.06135272979736, 3.9217793941497803 l4.067030549049377, -0.8715065568685532 10.16757607460022, 0.14525108970701694 l3.3407750725746155, 0.726255476474762 5.6647926568984985, 2.6145195960998535 l4.357532858848572, 1.452510952949524 8.715065717697144, 1.7430131137371063 m-46.480350494384766, 12.782095670700073 l21.64241313934326, 0.0 7.988809943199158, -1.1620087176561356 l6.536298990249634, -2.4692685902118683 3.3407750725746155, -2.4692685902118683 l1.5977619588375092, -1.8882642686367035 2.324017435312271, -5.229039192199707 m0.0, 0.14525108970701694 l2.7597707509994507, 0.0 1.8882642686367035, -1.0167576372623444 l2.0335152745246887, -3.1955239176750183 0.8715065568685532, -3.1955239176750183 l0.2905021794140339, -7.553057074546814 -3.1955239176750183, -8.86031687259674 l-0.14525108970701694, -2.178766429424286 2.905021905899048, 0.0 l5.955294966697693, 2.324017435312271 0.726255476474762, 0.4357532784342766 l1.452510952949524, 2.324017435312271 1.3072597980499268, 5.08378803730011 l0.14525108970701694, 2.7597707509994507 0.0, 2.905021905899048 l-0.726255476474762, 3.4860262274742126 -2.324017435312271, 3.63127738237381 l-3.9217793941497803, 3.050273060798645 -6.536298990249634, 6.391047835350037 l-3.63127738237381, 1.1620087176561356 -5.519541501998901, 0.8715065568685532 m-32.100491523742676, 6.826801300048828 l-0.2905021794140339, 7.8435587882995605 3.3407750725746155, -4.648034870624542 l7.26255476474762, -7.8435587882995605 m3.9217793941497803, 6.536298990249634 l-0.14525108970701694, 1.8882642686367035 2.324017435312271, -0.726255476474762 l4.793286025524139, -3.9217793941497803 1.452510952949524, -1.7430131137371063 l0.5810043588280678, -2.0335152745246887 m3.9217793941497803, -4.938537180423737 l0.726255476474762, 4.793286025524139 3.050273060798645, 7.8435587882995605 l1.452510952949524, -5.08378803730011 0.0, -3.9217793941497803 " fill="none" stroke="black" stroke-width="1" /></svg>