<?xml version="1.0" encoding="utf-8" ?>
<svg baseProfile="full" height="96.27914987504482" version="1.1" width="131.1394118051976" xmlns="http://www.w3.org/2000/svg" xmlns:ev="http://www.w3.org/2001/xml-events" xmlns:xlink="http://www.w3.org/1999/xlink"><defs /><rect fill="white" height="96.27914987504482" width="131.1394118051976" x="0" y="0" /><path d="M66.87696622684598, 30.128441574051976 m-3.63127738237381, -1.0167576372623444 l-4.357532858848572, -0.2905021794140339 -3.1955239176750183, 0.5810043588280678 l-3.776528537273407, 1.452510952949524 -3.63127738237381, 2.324017435312271 l-3.4860262274742126, 3.1955239176750183 -3.050273060798645, 4.212281703948975 l-1.8882642686367035, 4.212281703948975 -0.4357532784342766, 2.178766429424286 l0.0, 5.08378803730011 2.4692685902118683, 7.26255476474762 l3.050273060798645, 3.776528537273407 2.324017435312271, 1.8882642686367035 l5.374290347099304, 2.7597707509994507 5.229039192199707, 1.1620087176561356 l9.731823205947876, -0.4357532784342766 6.2457966804504395, -1.7430131137371063 l5.810043811798096, -3.050273060798645 5.810043811798096, -4.502783715724945 l2.178766429424286, -2.4692685902118683 2.7597707509994507, -4.357532858848572 l1.452510952949524, -4.793286025524139 0.14525108970701694, -4.067030549049377 l-0.8715065568685532, -3.1955239176750183 -2.7597707509994507, -3.1955239176750183 l-1.8882642686367035, -1.452510952949524 -3.9217793941497803, -2.0335152745246887 l-4.357532858848572, -1.0167576372623444 -5.955294966697693, 0.8715065568685532 m-9.150818586349487, -15.832369327545166 l-1.3072597980499268, -3.4860262274742126 -1.8882642686367035, -1.3072597980499268 l-1.3072597980499268, -0.2905021794140339 -3.4860262274742126, -0.14525108970701694 l-3.1955239176750183, 0.726255476474762 -3.776528537273407, 2.7597707509994507 l2.0335152745246887, -0.8715065568685532 1.5977619588375092, -2.324017435312271 l-0.4357532784342766, -0.8715065568685532 -2.4692685902118683, -0.2905021794140339 l-3.776528537273407, 0.4357532784342766 -4.067030549049377, 1.3072597980499268 l-3.63127738237381, 2.0335152745246887 -2.324017435312271, 2.324017435312271 l1.0167576372623444, 0.0 1.7430131137371063, -1.8882642686367035 l1.5977619588375092, -4.067030549049377 -0.14525108970701694, -1.1620087176561356 l-1.3072597980499268, -1.1620087176561356 -3.4860262274742126, 0.0 l-2.6145195960998535, 0.5810043588280678 -5.519541501998901, 2.4692685902118683 l-4.357532858848572, 3.1955239176750183 -3.9217793941497803, 3.9217793941497803 l0.5810043588280678, -0.14525108970701694 1.5977619588375092, -2.4692685902118683 l0.726255476474762, -1.3072597980499268 0.2905021794140339, -2.0335152745246887 l-1.0167576372623444, -0.8715065568685532 -1.1620087176561356, 0.14525108970701694 l-3.776528537273407, 2.178766429424286 -4.648034870624542, 3.9217793941497803 l-2.178766429424286, 2.6145195960998535 -1.7430131137371063, 2.6145195960998535 l-1.7430131137371063, 4.502783715724945 0.0, 2.7597707509994507 l1.1620087176561356, 0.726255476474762 1.0167576372623444, -0.2905021794140339 l3.9217793941497803, -4.067030549049377 2.324017435312271, -3.3407750725746155 l0.4357532784342766, -1.7430131137371063 -3.9217793941497803, 5.519541501998901 l-1.5977619588375092, 4.067030549049377 -0.726255476474762, 3.9217793941497803 l0.4357532784342766, 2.324017435312271 1.1620087176561356, 0.5810043588280678 l2.0335152745246887, -0.5810043588280678 2.7597707509994507, -1.5977619588375092 l0.14525108970701694, 0.726255476474762 -3.9217793941497803, 11.474835872650146 l-1.452510952949524, 7.8435587882995605 0.4357532784342766, 2.178766429424286 l0.726255476474762, 0.4357532784342766 4.793286025524139, 0.14525108970701694 l-1.5977619588375092, 8.279312252998352 0.0, 5.6647926568984985 l1.0167576372623444, 1.452510952949524 2.0335152745246887, -0.5810043588280678 l2.4692685902118683, -2.6145195960998535 1.7430131137371063, -2.7597707509994507 l-3.63127738237381, 10.16757607460022 -0.5810043588280678, 3.9217793941497803 l1.452510952949524, -0.14525108970701694 6.972052454948425, -4.793286025524139 l0.5810043588280678, 0.2905021794140339 0.2905021794140339, 0.8715065568685532 l0.2905021794140339, 6.391047835350037 1.0167576372623444, 3.050273060798645 l0.726255476474762, 0.8715065568685532 0.726255476474762, 0.4357532784342766 l2.4692685902118683, -0.2905021794140339 1.7430131137371063, -0.726255476474762 l5.810043811798096, -4.067030549049377 1.5977619588375092, -0.2905021794140339 l0.726255476474762, 0.8715065568685532 0.5810043588280678, 4.502783715724945 l0.4357532784342766, 0.726255476474762 1.3072597980499268, 0.2905021794140339 l2.0335152745246887, -1.1620087176561356 2.6145195960998535, -2.6145195960998535 l3.050273060798645, -5.955294966697693 m20.62565565109253, -70.15627861022949 l-0.5810043588280678, -1.452510952949524 2.0335152745246887, -1.3072597980499268 l5.810043811798096, -2.6145195960998535 4.938537180423737, -1.0167576372623444 l0.4357532784342766, 1.3072597980499268 -1.7430131137371063, 6.391047835350037 l0.0, 1.452510952949524 0.5810043588280678, 1.1620087176561356 l1.1620087176561356, 0.5810043588280678 3.9217793941497803, 0.0 l11.039083003997803, -3.63127738237381 3.63127738237381, -0.4357532784342766 l1.452510952949524, 0.8715065568685532 -1.0167576372623444, 6.972052454948425 l0.0, 1.3072597980499268 0.5810043588280678, 0.8715065568685532 l2.6145195960998535, 0.726255476474762 7.988809943199158, -0.8715065568685532 l2.7597707509994507, 0.0 0.2905021794140339, 1.452510952949524 l-4.938537180423737, 8.715065717697144 -0.4357532784342766, 2.6145195960998535 l0.2905021794140339, 1.1620087176561356 2.178766429424286, 1.3072597980499268 l7.1173036098480225, 0.726255476474762 1.7430131137371063, 1.0167576372623444 l-0.2905021794140339, 1.8882642686367035 -2.324017435312271, 5.08378803730011 l-0.4357532784342766, 2.905021905899048 1.3072597980499268, 1.452510952949524 l3.776528537273407, 0.4357532784342766 1.0167576372623444, 1.0167576372623444 l-11.910589933395386, 15.832369327545166 -0.2905021794140339, 0.726255476474762 l1.0167576372623444, -0.2905021794140339 3.63127738237381, -2.4692685902118683 l-7.26255476474762, 6.536298990249634 -9.731823205947876, 9.877074360847473 l0.2905021794140339, -2.0335152745246887 -0.8715065568685532, -0.2905021794140339 l-8.134061098098755, 2.905021905899048 -0.4357532784342766, -0.8715065568685532 l0.14525108970701694, -1.0167576372623444 2.324017435312271, -6.681550145149231 l-8.86031687259674, 6.10054612159729 -0.2905021794140339, -1.0167576372623444 l2.0335152745246887, -4.357532858848572 0.14525108970701694, -1.5977619588375092 l-2.178766429424286, 1.0167576372623444 -1.452510952949524, 1.452510952949524 " fill="none" stroke="black" stroke-width="1" /></svg>