<?xml version="1.0" encoding="utf-8" ?>
<svg baseProfile="full" height="101.94394111633301" version="1.1" width="191.5638692677021" xmlns="http://www.w3.org/2000/svg" xmlns:ev="http://www.w3.org/2001/xml-events" xmlns:xlink="http://www.w3.org/1999/xlink"><defs /><rect fill="white" height="101.94394111633301" width="191.5638692677021" x="0" y="0" /><path d="M40.731777204200625, 59.759658770635724 m-1.0167576372623444, -11.184333562850952 l0.0, -11.620087623596191 1.1620087176561356, -3.4860262274742126 l2.324017435312271, -1.8882642686367035 5.810043811798096, -1.452510952949524 l1.1620087176561356, 0.4357532784342766 4.502783715724945, 4.502783715724945 l4.502783715724945, -1.8882642686367035 6.391047835350037, -1.452510952949524 l7.698307633399963, -0.14525108970701694 0.8715065568685532, 0.2905021794140339 l1.8882642686367035, 2.6145195960998535 0.726255476474762, 2.324017435312271 l-0.2905021794140339, 1.7430131137371063 1.7430131137371063, 0.5810043588280678 l5.229039192199707, 0.4357532784342766 0.5810043588280678, 0.8715065568685532 l0.5810043588280678, 3.4860262274742126 -0.2905021794140339, 9.441320896148682 l-0.2905021794140339, 0.726255476474762 -1.5977619588375092, 0.5810043588280678 l-4.067030549049377, 0.5810043588280678 -1.7430131137371063, 1.5977619588375092 l-0.2905021794140339, 9.731823205947876 0.726255476474762, 5.08378803730011 l-3.1955239176750183, 2.6145195960998535 -0.2905021794140339, 1.1620087176561356 l0.2905021794140339, 13.508352041244507 -0.2905021794140339, 0.726255476474762 l-0.726255476474762, 0.14525108970701694 -3.3407750725746155, -1.8882642686367035 l-2.0335152745246887, 0.0 -1.5977619588375092, 0.4357532784342766 l-4.648034870624542, 3.3407750725746155 -2.7597707509994507, 0.14525108970701694 l-11.76533818244934, -11.184333562850952 -2.905021905899048, 0.4357532784342766 l-2.4692685902118683, -1.0167576372623444 -8.86031687259674, -7.8435587882995605 l-7.8435587882995605, -8.279312252998352 6.2457966804504395, -3.3407750725746155 l1.0167576372623444, -2.6145195960998535 0.726255476474762, -0.5810043588280678 l7.698307633399963, -2.324017435312271 2.178766429424286, -1.1620087176561356 m20.04465103149414, -4.502783715724945 l-3.9217793941497803, 0.5810043588280678 -1.452510952949524, 1.452510952949524 l-1.5977619588375092, 3.050273060798645 -0.726255476474762, 2.324017435312271 l-0.14525108970701694, 3.9217793941497803 1.3072597980499268, 5.810043811798096 l2.178766429424286, 4.212281703948975 6.2457966804504395, 6.826801300048828 l2.0335152745246887, 0.8715065568685532 1.7430131137371063, 0.0 l3.9217793941497803, -1.1620087176561356 1.7430131137371063, -6.536298990249634 l-0.2905021794140339, -6.2457966804504395 -1.3072597980499268, -5.374290347099304 l-5.08378803730011, -5.519541501998901 -3.63127738237381, -1.452510952949524 l-2.0335152745246887, -1.452510952949524 m0.14525108970701694, 11.76533818244934 l-0.2905021794140339, 0.0 m4.938537180423737, 0.5810043588280678 l0.0, 0.0 m0.4357532784342766, -1.8882642686367035 l0.4357532784342766, 0.726255476474762 0.726255476474762, 0.14525108970701694 l-1.3072597980499268, -1.1620087176561356 m-4.067030549049377, 8.42456340789795 l2.905021905899048, 3.1955239176750183 4.793286025524139, 3.63127738237381 l2.6145195960998535, 1.3072597980499268 2.6145195960998535, -0.2905021794140339 l1.7430131137371063, -3.9217793941497803 -0.14525108970701694, -3.9217793941497803 l-1.0167576372623444, -1.1620087176561356 -4.793286025524139, -1.8882642686367035 m1.8882642686367035, -10.312827825546265 l17.139629125595093, -3.9217793941497803 15.106114149093628, -4.502783715724945 l13.363100290298462, -5.08378803730011 11.474835872650146, -2.324017435312271 l10.312827825546265, -1.1620087176561356 4.502783715724945, 0.2905021794140339 l3.3407750725746155, 1.0167576372623444 8.279312252998352, 6.826801300048828 l1.7430131137371063, 1.7430131137371063 1.1620087176561356, 2.178766429424286 l3.050273060798645, 9.586572051048279 0.4357532784342766, 4.648034870624542 l-1.0167576372623444, 1.0167576372623444 -10.748580694198608, 4.502783715724945 l-5.08378803730011, 1.8882642686367035 -11.039083003997803, 2.905021905899048 l-6.681550145149231, 0.4357532784342766 -7.1173036098480225, 1.7430131137371063 l-7.988809943199158, 1.3072597980499268 -12.927347421646118, -0.14525108970701694 l-10.312827825546265, -1.0167576372623444 -2.905021905899048, -0.726255476474762 l-2.324017435312271, -2.0335152745246887 -5.229039192199707, -3.1955239176750183 l-3.3407750725746155, -3.1955239176750183 m83.08362007141113, -20.916156768798828 l10.748580694198608, -6.536298990249634 6.681550145149231, -2.324017435312271 l3.776528537273407, -0.4357532784342766 3.63127738237381, -1.0167576372623444 l2.324017435312271, 1.8882642686367035 m-94.4132137298584, 39.944050312042236 l-1.0167576372623444, 9.00556743144989 m25.418941974639893, -10.16757607460022 l3.3407750725746155, 4.357532858848572 3.9217793941497803, 4.067030549049377 l12.491593360900879, 10.312827825546265 m8.86031687259674, -25.418941974639893 l7.1173036098480225, 8.279312252998352 6.10054612159729, 6.2457966804504395 l4.648034870624542, 3.776528537273407 m-27.8882098197937, -15.832369327545166 l0.0, 3.776528537273407 1.452510952949524, 10.02232551574707 m-131.59749031066895, -80.03334999084473 l5.519541501998901, 12.782095670700073 2.4692685902118683, 3.3407750725746155 m-4.648034870624542, -18.156386613845825 l0.5810043588280678, -0.726255476474762 1.3072597980499268, 0.0 l1.1620087176561356, 0.8715065568685532 6.972052454948425, 6.391047835350037 l2.7597707509994507, 2.905021905899048 0.726255476474762, 1.452510952949524 l-0.726255476474762, 2.7597707509994507 -3.050273060798645, 3.1955239176750183 l-1.8882642686367035, 1.1620087176561356 -4.212281703948975, 1.0167576372623444 l-0.726255476474762, -0.2905021794140339 -1.452510952949524, -1.8882642686367035 l6.391047835350037, 7.1173036098480225 7.1173036098480225, 6.972052454948425 l3.776528537273407, 3.050273060798645 0.5810043588280678, -1.452510952949524 " fill="none" stroke="black" stroke-width="1" /></svg>