<?xml version="1.0" encoding="utf-8" ?>
<svg baseProfile="full" height="67.3741817008704" version="1.1" width="94.24563372507691" xmlns="http://www.w3.org/2000/svg" xmlns:ev="http://www.w3.org/2001/xml-events" xmlns:xlink="http://www.w3.org/1999/xlink"><defs /><rect fill="white" height="67.3741817008704" width="94.24563372507691" x="0" y="0" /><path d="M48.28482773154974, 17.49159405939281 m-2.324017435312271, 0.0 l-1.7430131137371063, 0.5810043588280678 -2.178766429424286, 2.4692685902118683 l-0.5810043588280678, 2.0335152745246887 -0.14525108970701694, 3.050273060798645 l1.0167576372623444, 3.050273060798645 1.3072597980499268, 2.7597707509994507 l2.4692685902118683, 2.7597707509994507 6.2457966804504395, 3.1955239176750183 l4.067030549049377, 1.452510952949524 9.731823205947876, 0.726255476474762 l5.08378803730011, -0.4357532784342766 3.776528537273407, -0.8715065568685532 l1.452510952949524, -1.0167576372623444 1.452510952949524, -3.050273060798645 l-0.2905021794140339, -4.648034870624542 -1.452510952949524, -8.279312252998352 l-2.0335152745246887, -3.4860262274742126 -4.502783715724945, -3.63127738237381 l-5.6647926568984985, -2.4692685902118683 -5.810043811798096, -0.2905021794140339 l-13.508352041244507, 5.374290347099304 -1.7430131137371063, 1.1620087176561356 l-0.2905021794140339, 0.726255476474762 0.8715065568685532, 0.8715065568685532 m10.748580694198608, 2.905021905899048 l0.14525108970701694, -0.14525108970701694 m12.782095670700073, -2.178766429424286 l0.14525108970701694, 0.0 m-10.458078384399414, 8.569814562797546 l1.452510952949524, 1.5977619588375092 2.0335152745246887, 1.1620087176561356 l4.357532858848572, 0.726255476474762 3.776528537273407, -0.14525108970701694 l3.3407750725746155, -0.8715065568685532 1.7430131137371063, -1.0167576372623444 l0.726255476474762, -1.3072597980499268 m-34.860262870788574, -7.988809943199158 l-3.050273060798645, 1.7430131137371063 -1.8882642686367035, 1.8882642686367035 l-2.324017435312271, 3.3407750725746155 -0.4357532784342766, 1.7430131137371063 l10.458078384399414, -0.726255476474762 0.5810043588280678, 0.8715065568685532 l0.2905021794140339, 3.3407750725746155 -1.0167576372623444, 6.972052454948425 l0.726255476474762, 0.2905021794140339 3.63127738237381, -1.452510952949524 l1.0167576372623444, 0.0 0.8715065568685532, 0.5810043588280678 l1.0167576372623444, 3.9217793941497803 1.452510952949524, 1.8882642686367035 l1.8882642686367035, -0.2905021794140339 7.407805919647217, -2.905021905899048 l2.7597707509994507, -0.2905021794140339 2.324017435312271, 2.7597707509994507 l2.4692685902118683, 1.5977619588375092 2.0335152745246887, -1.452510952949524 l2.0335152745246887, -0.726255476474762 2.324017435312271, -0.14525108970701694 l4.502783715724945, 2.7597707509994507 1.7430131137371063, 0.0 l1.1620087176561356, -1.3072597980499268 1.0167576372623444, -2.178766429424286 l-0.14525108970701694, -2.6145195960998535 -1.7430131137371063, -3.63127738237381 l0.5810043588280678, -0.8715065568685532 6.681550145149231, -3.1955239176750183 l1.452510952949524, -1.3072597980499268 -5.6647926568984985, -2.4692685902118683 l-1.452510952949524, -1.0167576372623444 -0.8715065568685532, -1.452510952949524 l0.14525108970701694, -4.357532858848572 3.776528537273407, -9.731823205947876 l-3.4860262274742126, -0.726255476474762 -0.726255476474762, -1.0167576372623444 l-1.1620087176561356, -4.357532858848572 -1.452510952949524, -1.3072597980499268 l-9.877074360847473, 4.357532858848572 -3.4860262274742126, 0.8715065568685532 l-0.726255476474762, 0.0 -1.1620087176561356, -1.7430131137371063 l-7.1173036098480225, -3.3407750725746155 -2.4692685902118683, 0.8715065568685532 l-3.9217793941497803, 2.7597707509994507 -1.7430131137371063, 0.0 l-4.793286025524139, -1.7430131137371063 -8.134061098098755, -1.0167576372623444 l-0.2905021794140339, 0.8715065568685532 1.0167576372623444, 3.776528537273407 l3.3407750725746155, 3.9217793941497803 -0.14525108970701694, 0.726255476474762 l-1.5977619588375092, 1.7430131137371063 m-4.938537180423737, 3.776528537273407 l-5.229039192199707, 0.2905021794140339 -3.050273060798645, 0.726255476474762 l-4.067030549049377, 1.8882642686367035 -2.324017435312271, 1.8882642686367035 l-3.4860262274742126, 5.519541501998901 -4.357532858848572, 9.00556743144989 l-2.905021905899048, 4.357532858848572 -1.8882642686367035, 5.955294966697693 l0.14525108970701694, 2.4692685902118683 3.9217793941497803, 2.6145195960998535 l1.5977619588375092, 0.0 8.715065717697144, -5.955294966697693 l3.1955239176750183, -1.3072597980499268 2.905021905899048, -0.14525108970701694 l5.08378803730011, 8.279312252998352 3.63127738237381, 3.4860262274742126 l1.7430131137371063, 0.8715065568685532 6.10054612159729, 1.3072597980499268 l8.715065717697144, 0.2905021794140339 14.234607219696045, -1.8882642686367035 l1.1620087176561356, -0.8715065568685532 0.5810043588280678, -1.1620087176561356 l1.8882642686367035, -8.134061098098755 " fill="none" stroke="black" stroke-width="1" /></svg>