<?xml version="1.0" encoding="utf-8" ?>
<svg baseProfile="full" height="75.36299179308116" version="1.1" width="55.46359175816178" xmlns="http://www.w3.org/2000/svg" xmlns:ev="http://www.w3.org/2001/xml-events" xmlns:xlink="http://www.w3.org/1999/xlink"><defs /><rect fill="white" height="75.36299179308116" width="55.46359175816178" x="0" y="0" /><path d="M41.16752144880593, 16.18433479219675 m-0.8715065568685532, -0.4357532784342766 l-4.067030549049377, 0.0 -1.1620087176561356, 0.2905021794140339 l-2.4692685902118683, 2.0335152745246887 -0.726255476474762, 1.7430131137371063 l-0.14525108970701694, 4.067030549049377 0.14525108970701694, 1.0167576372623444 l1.1620087176561356, 1.5977619588375092 1.7430131137371063, 0.5810043588280678 l3.3407750725746155, 0.0 2.6145195960998535, -1.5977619588375092 l2.324017435312271, -2.324017435312271 0.5810043588280678, -1.5977619588375092 l-0.14525108970701694, -1.7430131137371063 -1.5977619588375092, -3.1955239176750183 l-1.7430131137371063, -1.452510952949524 m-7.1173036098480225, 5.374290347099304 l-1.7430131137371063, -0.8715065568685532 -1.8882642686367035, -1.8882642686367035 l-1.5977619588375092, -2.0335152745246887 -0.8715065568685532, -2.324017435312271 l5.374290347099304, 1.0167576372623444 2.6145195960998535, 1.3072597980499268 l0.4357532784342766, -2.178766429424286 -0.8715065568685532, -3.3407750725746155 l0.8715065568685532, -0.14525108970701694 1.1620087176561356, 1.0167576372623444 l3.3407750725746155, 4.067030549049377 1.8882642686367035, 1.452510952949524 l0.4357532784342766, -1.3072597980499268 -0.14525108970701694, -3.63127738237381 l2.6145195960998535, 5.229039192199707 1.1620087176561356, 1.3072597980499268 m-13.798853158950806, 5.08378803730011 l-4.212281703948975, -3.1955239176750183 -1.0167576372623444, -0.4357532784342766 l-0.5810043588280678, 1.0167576372623444 0.0, 4.938537180423737 l0.726255476474762, 2.324017435312271 1.452510952949524, 0.14525108970701694 l5.374290347099304, -1.5977619588375092 -5.519541501998901, 7.8435587882995605 l2.4692685902118683, -1.0167576372623444 7.988809943199158, -4.938537180423737 m1.452510952949524, -2.0335152745246887 l0.5810043588280678, 6.681550145149231 0.0, 7.553057074546814 l-0.4357532784342766, 1.5977619588375092 -1.1620087176561356, 1.3072597980499268 l-12.636845111846924, -1.7430131137371063 -13.798853158950806, -0.8715065568685532 l-2.905021905899048, 0.2905021794140339 -0.5810043588280678, 1.0167576372623444 l0.0, 3.63127738237381 0.726255476474762, 5.08378803730011 l0.0, 11.039083003997803 8.42456340789795, -0.14525108970701694 l0.2905021794140339, 0.726255476474762 -0.4357532784342766, 2.178766429424286 l0.0, 4.938537180423737 0.4357532784342766, 0.726255476474762 l1.7430131137371063, -0.4357532784342766 4.938537180423737, -5.229039192199707 l0.5810043588280678, -1.7430131137371063 1.7430131137371063, -0.726255476474762 l2.178766429424286, 0.0 1.8882642686367035, 1.1620087176561356 l1.452510952949524, 4.938537180423737 0.4357532784342766, 0.8715065568685532 l1.452510952949524, 0.8715065568685532 0.726255476474762, -0.5810043588280678 l0.726255476474762, -10.02232551574707 7.8435587882995605, 0.2905021794140339 l1.0167576372623444, -1.0167576372623444 1.5977619588375092, -4.793286025524139 l0.14525108970701694, -6.826801300048828 -1.8882642686367035, -15.977619886398315 m-4.067030549049377, -9.877074360847473 l2.905021905899048, 2.324017435312271 6.391047835350037, 3.1955239176750183 l-3.3407750725746155, -5.6647926568984985 -1.8882642686367035, -1.8882642686367035 m-6.536298990249634, 6.2457966804504395 l4.793286025524139, 2.905021905899048 2.6145195960998535, 0.8715065568685532 l-3.63127738237381, -5.810043811798096 m-7.988809943199158, -3.3407750725746155 l-0.2905021794140339, 1.1620087176561356 0.4357532784342766, 0.726255476474762 l0.8715065568685532, 0.14525108970701694 0.726255476474762, 0.0 l0.4357532784342766, -1.7430131137371063 -0.2905021794140339, -0.14525108970701694 m2.7597707509994507, -2.324017435312271 l0.14525108970701694, 1.5977619588375092 0.726255476474762, 0.14525108970701694 l0.726255476474762, 0.0 -0.5810043588280678, -1.7430131137371063 m-0.5810043588280678, 3.9217793941497803 l0.2905021794140339, 2.178766429424286 m-34.71501111984253, -3.3407750725746155 l-0.14525108970701694, -2.905021905899048 4.793286025524139, -8.279312252998352 l1.5977619588375092, -0.8715065568685532 0.8715065568685532, 5.374290347099304 l0.8715065568685532, 0.4357532784342766 1.1620087176561356, -0.2905021794140339 l6.2457966804504395, -9.150818586349487 0.5810043588280678, 0.8715065568685532 l0.14525108970701694, 7.553057074546814 0.5810043588280678, 2.324017435312271 l0.8715065568685532, 1.3072597980499268 1.1620087176561356, 0.5810043588280678 l1.452510952949524, 0.0 -1.5977619588375092, -0.8715065568685532 l-5.229039192199707, 0.14525108970701694 -7.407805919647217, 2.324017435312271 l-3.63127738237381, 3.050273060798645 -1.0167576372623444, 3.776528537273407 " fill="none" stroke="black" stroke-width="1" /></svg>