<?xml version="1.0" encoding="utf-8" ?>
<svg baseProfile="full" height="42.536244643852115" version="1.1" width="41.37423636391759" xmlns="http://www.w3.org/2000/svg" xmlns:ev="http://www.w3.org/2001/xml-events" xmlns:xlink="http://www.w3.org/1999/xlink"><defs /><rect fill="white" height="42.536244643852115" width="41.37423636391759" x="0" y="0" /><path d="M12.117303889244795, 16.329585015773773 m-2.6145195960998535, -5.08378803730011 l2.4692685902118683, 0.726255476474762 2.4692685902118683, -0.4357532784342766 l2.178766429424286, -4.938537180423737 0.726255476474762, -0.5810043588280678 l0.726255476474762, 0.5810043588280678 1.7430131137371063, 3.3407750725746155 l1.0167576372623444, 0.4357532784342766 1.3072597980499268, -0.726255476474762 l3.1955239176750183, -3.9217793941497803 1.452510952949524, -0.726255476474762 l0.14525108970701694, 4.067030549049377 0.5810043588280678, 1.8882642686367035 l1.3072597980499268, 0.726255476474762 2.178766429424286, -0.14525108970701694 l3.9217793941497803, -2.905021905899048 -2.324017435312271, 5.229039192199707 l-0.14525108970701694, 1.452510952949524 2.4692685902118683, -0.14525108970701694 l1.452510952949524, -0.5810043588280678 -3.776528537273407, 4.938537180423737 l-0.14525108970701694, 2.178766429424286 0.4357532784342766, 1.0167576372623444 l2.178766429424286, 0.0 -2.4692685902118683, -0.2905021794140339 l-1.452510952949524, 0.726255476474762 -0.4357532784342766, 1.1620087176561356 l0.0, 1.0167576372623444 1.452510952949524, 1.3072597980499268 l-5.810043811798096, -0.14525108970701694 -0.8715065568685532, 1.0167576372623444 l0.4357532784342766, 4.212281703948975 -3.776528537273407, -1.3072597980499268 l0.2905021794140339, 5.519541501998901 -3.1955239176750183, -2.0335152745246887 l-3.050273060798645, -0.4357532784342766 -3.4860262274742126, 4.067030549049377 l0.14525108970701694, -5.08378803730011 -1.8882642686367035, -1.8882642686367035 l-2.178766429424286, 0.0 -1.5977619588375092, 1.452510952949524 l0.726255476474762, -1.5977619588375092 0.0, -3.1955239176750183 l-1.1620087176561356, -1.1620087176561356 -1.7430131137371063, -0.5810043588280678 l1.452510952949524, -1.0167576372623444 1.8882642686367035, -3.3407750725746155 l1.1620087176561356, -0.14525108970701694 1.452510952949524, -1.1620087176561356 l1.1620087176561356, -3.050273060798645 m-0.14525108970701694, -0.14525108970701694 l-0.2905021794140339, 1.0167576372623444 -1.1620087176561356, -0.4357532784342766 l-2.4692685902118683, -2.905021905899048 0.726255476474762, -0.4357532784342766 l1.8882642686367035, 0.0 m16.26812219619751, -3.050273060798645 l3.9217793941497803, -2.6145195960998535 0.8715065568685532, 0.0 l0.0, 2.4692685902118683 m-1.1620087176561356, -2.0335152745246887 l0.0, 0.0 m-13.653602600097656, 10.16757607460022 l0.4357532784342766, -0.4357532784342766 m5.229039192199707, -0.14525108970701694 l-0.726255476474762, 0.5810043588280678 -0.2905021794140339, -0.726255476474762 m-3.776528537273407, 4.357532858848572 l-1.8882642686367035, 1.8882642686367035 -0.5810043588280678, 1.452510952949524 l-0.14525108970701694, 1.8882642686367035 0.4357532784342766, 1.0167576372623444 l2.0335152745246887, 0.8715065568685532 1.5977619588375092, 0.14525108970701694 l1.7430131137371063, -0.14525108970701694 1.452510952949524, -0.8715065568685532 l1.7430131137371063, -2.7597707509994507 0.0, -3.3407750725746155 l-1.5977619588375092, -1.5977619588375092 -2.0335152745246887, -0.2905021794140339 l-1.3072597980499268, 0.4357532784342766 m-2.4692685902118683, 1.452510952949524 l0.4357532784342766, 0.726255476474762 1.0167576372623444, -1.5977619588375092 m5.229039192199707, -0.14525108970701694 l-0.14525108970701694, 2.178766429424286 1.1620087176561356, -0.4357532784342766 m-9.877074360847473, -5.810043811798096 l1.0167576372623444, -1.0167576372623444 " fill="none" stroke="black" stroke-width="1" /></svg>