<?xml version="1.0" encoding="utf-8" ?>
<svg baseProfile="full" height="90.03335109911859" version="1.1" width="119.66457379981875" xmlns="http://www.w3.org/2000/svg" xmlns:ev="http://www.w3.org/2001/xml-events" xmlns:xlink="http://www.w3.org/1999/xlink"><defs /><rect fill="white" height="90.03335109911859" width="119.66457379981875" x="0" y="0" /><path d="M5, 28.240174911916256 m24.40218448638916, -1.0167576372623444 l22.368667125701904, -2.324017435312271 12.782095670700073, -1.8882642686367035 m0.726255476474762, -0.8715065568685532 l0.5810043588280678, -3.9217793941497803 0.8715065568685532, -2.324017435312271 l1.5977619588375092, -2.324017435312271 3.3407750725746155, -2.7597707509994507 l4.212281703948975, -1.5977619588375092 4.938537180423737, -0.726255476474762 l3.1955239176750183, 0.0 1.452510952949524, 0.726255476474762 l2.905021905899048, 3.63127738237381 1.1620087176561356, 5.08378803730011 l-0.2905021794140339, -5.810043811798096 1.1620087176561356, -3.63127738237381 l2.4692685902118683, -2.905021905899048 2.178766429424286, -0.5810043588280678 l1.1620087176561356, 0.4357532784342766 4.502783715724945, 4.938537180423737 l1.1620087176561356, 2.178766429424286 0.2905021794140339, 2.4692685902118683 l-0.4357532784342766, 0.726255476474762 0.2905021794140339, -2.178766429424286 l1.452510952949524, -1.452510952949524 1.1620087176561356, -0.726255476474762 l2.6145195960998535, -0.4357532784342766 2.324017435312271, 2.905021905899048 l0.2905021794140339, 1.452510952949524 0.2905021794140339, 5.810043811798096 l-0.8715065568685532, 1.452510952949524 1.3072597980499268, -2.324017435312271 l2.4692685902118683, -0.726255476474762 0.8715065568685532, 0.4357532784342766 l0.726255476474762, 3.3407750725746155 0.0, 5.6647926568984985 l-1.3072597980499268, 5.229039192199707 -2.6145195960998535, 5.955294966697693 l-1.7430131137371063, 2.324017435312271 -0.726255476474762, 0.4357532784342766 l-0.14525108970701694, -0.726255476474762 0.726255476474762, 0.2905021794140339 l1.7430131137371063, 4.648034870624542 1.5977619588375092, 7.698307633399963 l0.0, 6.2457966804504395 -1.1620087176561356, 3.050273060798645 l-2.0335152745246887, 1.3072597980499268 -3.776528537273407, 0.14525108970701694 l-2.7597707509994507, -1.7430131137371063 -1.7430131137371063, -2.4692685902118683 l0.0, -0.726255476474762 0.8715065568685532, 1.0167576372623444 l0.4357532784342766, 2.324017435312271 0.0, 4.502783715724945 l-2.0335152745246887, 4.502783715724945 -1.5977619588375092, 2.4692685902118683 l-2.0335152745246887, 2.0335152745246887 -6.391047835350037, 3.1955239176750183 l-2.6145195960998535, 0.726255476474762 -6.10054612159729, 0.2905021794140339 l-3.050273060798645, -1.0167576372623444 -1.1620087176561356, -1.3072597980499268 l0.2905021794140339, -1.8882642686367035 1.452510952949524, -1.3072597980499268 l0.14525108970701694, 1.0167576372623444 -1.0167576372623444, 1.7430131137371063 l-3.9217793941497803, 3.9217793941497803 -3.63127738237381, 1.8882642686367035 l-2.0335152745246887, 0.2905021794140339 -0.5810043588280678, -1.7430131137371063 l0.8715065568685532, -3.9217793941497803 -5.374290347099304, 0.5810043588280678 l-6.10054612159729, 0.0 -1.452510952949524, -1.452510952949524 l-0.14525108970701694, -1.3072597980499268 0.2905021794140339, -5.374290347099304 l1.3072597980499268, -3.776528537273407 1.3072597980499268, -3.1955239176750183 l3.9217793941497803, -5.810043811798096 1.452510952949524, -3.050273060798645 l-2.324017435312271, 1.3072597980499268 -2.178766429424286, 0.4357532784342766 l-2.178766429424286, -3.63127738237381 -0.4357532784342766, -3.050273060798645 l0.0, -9.731823205947876 0.2905021794140339, -5.6647926568984985 l0.8715065568685532, -3.1955239176750183 -0.5810043588280678, -1.452510952949524 l0.0, -3.9217793941497803 1.452510952949524, -2.7597707509994507 l1.5977619588375092, -1.5977619588375092 1.7430131137371063, -1.0167576372623444 l3.1955239176750183, -0.726255476474762 m-2.4692685902118683, 36.748526096343994 l5.955294966697693, -0.14525108970701694 8.279312252998352, -1.452510952949524 l14.815611839294434, -0.4357532784342766 6.10054612159729, -1.7430131137371063 l2.324017435312271, -1.1620087176561356 2.178766429424286, -3.050273060798645 l1.1620087176561356, -4.502783715724945 0.2905021794140339, -5.955294966697693 l-1.8882642686367035, -4.502783715724945 -2.7597707509994507, -4.648034870624542 l-2.178766429424286, -2.0335152745246887 -2.324017435312271, -1.1620087176561356 l-8.134061098098755, -2.324017435312271 -22.22341775894165, -0.2905021794140339 l-4.357532858848572, -0.726255476474762 m21.206660270690918, 2.4692685902118683 l0.4357532784342766, 5.374290347099304 2.324017435312271, 12.491593360900879 l0.14525108970701694, 7.407805919647217 0.5810043588280678, 2.7597707509994507 " fill="none" stroke="black" stroke-width="1" /></svg>