<?xml version="1.0" encoding="utf-8" ?>
<svg baseProfile="full" height="49.363046092912555" version="1.1" width="50.9608094394207" xmlns="http://www.w3.org/2000/svg" xmlns:ev="http://www.w3.org/2001/xml-events" xmlns:xlink="http://www.w3.org/1999/xlink"><defs /><rect fill="white" height="49.363046092912555" width="50.9608094394207" x="0" y="0" /><path d="M26.642414201050997, 13.134061703458428 m-0.8715065568685532, -0.4357532784342766 l-2.4692685902118683, 0.14525108970701694 -4.212281703948975, 3.3407750725746155 l-2.0335152745246887, 2.905021905899048 -1.452510952949524, 6.391047835350037 l0.2905021794140339, 3.9217793941497803 1.7430131137371063, 2.7597707509994507 l3.1955239176750183, 1.452510952949524 5.810043811798096, 0.4357532784342766 l4.648034870624542, -2.0335152745246887 2.178766429424286, -1.7430131137371063 l1.7430131137371063, -3.050273060798645 0.0, -1.7430131137371063 l-0.726255476474762, -1.8882642686367035 -4.212281703948975, -6.10054612159729 l-3.3407750725746155, -2.4692685902118683 -4.067030549049377, -1.5977619588375092 m0.4357532784342766, 8.279312252998352 l-1.0167576372623444, -0.2905021794140339 -0.14525108970701694, -0.726255476474762 l0.726255476474762, -0.4357532784342766 0.14525108970701694, 0.726255476474762 l-0.8715065568685532, 0.5810043588280678 -0.8715065568685532, -0.14525108970701694 l0.0, -1.1620087176561356 m10.02232551574707, -0.14525108970701694 l-1.0167576372623444, 0.726255476474762 -0.8715065568685532, 0.0 l-0.5810043588280678, -1.0167576372623444 0.14525108970701694, -1.1620087176561356 l1.7430131137371063, -0.5810043588280678 0.4357532784342766, 1.452510952949524 l-1.452510952949524, 0.0 0.14525108970701694, -0.8715065568685532 m-9.150818586349487, 9.877074360847473 l0.5810043588280678, 0.726255476474762 2.324017435312271, 1.1620087176561356 l5.229039192199707, 0.14525108970701694 1.7430131137371063, -0.4357532784342766 l2.324017435312271, -1.3072597980499268 0.14525108970701694, -1.1620087176561356 l-1.452510952949524, -1.8882642686367035 m-19.6088969707489, -7.407805919647217 l-1.7430131137371063, -3.776528537273407 2.324017435312271, 2.4692685902118683 l4.648034870624542, 3.63127738237381 -3.776528537273407, -5.955294966697693 l0.8715065568685532, 0.4357532784342766 3.3407750725746155, 3.776528537273407 l-1.7430131137371063, -5.374290347099304 -0.14525108970701694, -3.3407750725746155 l1.7430131137371063, 1.3072597980499268 4.502783715724945, 5.229039192199707 l1.0167576372623444, 0.2905021794140339 0.0, -9.586572051048279 l1.0167576372623444, -0.14525108970701694 1.8882642686367035, 2.4692685902118683 l1.3072597980499268, 3.776528537273407 1.3072597980499268, -1.7430131137371063 l1.7430131137371063, -5.229039192199707 0.8715065568685532, -1.1620087176561356 l1.1620087176561356, -0.4357532784342766 1.1620087176561356, 0.8715065568685532 l0.2905021794140339, 3.1955239176750183 -2.0335152745246887, 4.502783715724945 l1.3072597980499268, -0.2905021794140339 5.519541501998901, -3.63127738237381 l2.7597707509994507, -1.3072597980499268 3.3407750725746155, -0.4357532784342766 l-3.4860262274742126, 2.178766429424286 -3.3407750725746155, 3.1955239176750183 l8.134061098098755, -0.4357532784342766 -0.4357532784342766, 1.5977619588375092 l-8.569814562797546, 5.810043811798096 9.00556743144989, -2.178766429424286 m-0.14525108970701694, 1.452510952949524 l-0.14525108970701694, 1.0167576372623444 -2.324017435312271, 2.178766429424286 l-5.374290347099304, 3.776528537273407 -1.0167576372623444, 1.5977619588375092 l2.324017435312271, -0.14525108970701694 6.2457966804504395, -1.5977619588375092 l-0.5810043588280678, 1.5977619588375092 -11.910589933395386, 4.793286025524139 l6.2457966804504395, -1.5977619588375092 5.08378803730011, -0.2905021794140339 l-8.42456340789795, 2.178766429424286 -3.776528537273407, 1.452510952949524 l-9.150818586349487, 4.793286025524139 1.0167576372623444, -2.324017435312271 l1.8882642686367035, -1.7430131137371063 -1.5977619588375092, 2.0335152745246887 l-7.26255476474762, 5.955294966697693 -2.178766429424286, 1.1620087176561356 l-0.14525108970701694, -1.1620087176561356 0.8715065568685532, -1.8882642686367035 l5.6647926568984985, -6.826801300048828 -1.1620087176561356, -0.2905021794140339 l-2.6145195960998535, 0.8715065568685532 -2.905021905899048, 1.7430131137371063 l-6.2457966804504395, 2.4692685902118683 -0.14525108970701694, -2.6145195960998535 l6.2457966804504395, -7.1173036098480225 -1.0167576372623444, -0.726255476474762 l-6.972052454948425, 1.8882642686367035 0.5810043588280678, -2.905021905899048 l4.648034870624542, -6.536298990249634 -2.178766429424286, -0.5810043588280678 l-4.502783715724945, -0.2905021794140339 2.7597707509994507, -2.905021905899048 l9.296069741249084, -5.229039192199707 -0.5810043588280678, -0.14525108970701694 m9.586572051048279, 23.240175247192383 l-0.2905021794140339, 3.776528537273407 -0.8715065568685532, 2.324017435312271 l-2.4692685902118683, 0.5810043588280678 " fill="none" stroke="black" stroke-width="1" /></svg>