<?xml version="1.0" encoding="utf-8" ?>
<svg baseProfile="full" height="86.69257645495236" version="1.1" width="92.21211661584675" xmlns="http://www.w3.org/2000/svg" xmlns:ev="http://www.w3.org/2001/xml-events" xmlns:xlink="http://www.w3.org/1999/xlink"><defs /><rect fill="white" height="86.69257645495236" width="92.21211661584675" x="0" y="0" /><path d="M7.178766429424286, 44.217795403674245 m-2.178766429424286, 13.072597980499268 l0.0, 1.1620087176561356 1.8882642686367035, 2.178766429424286 l8.279312252998352, 3.1955239176750183 5.229039192199707, 1.1620087176561356 l3.63127738237381, 0.0 -0.726255476474762, 0.0 l0.14525108970701694, 0.8715065568685532 1.452510952949524, 1.5977619588375092 l6.2457966804504395, 3.1955239176750183 6.681550145149231, 2.324017435312271 l15.687117576599121, 3.4860262274742126 6.536298990249634, 0.8715065568685532 l7.1173036098480225, -0.14525108970701694 0.5810043588280678, -0.726255476474762 l0.8715065568685532, -3.9217793941497803 0.726255476474762, -5.08378803730011 l0.14525108970701694, -6.10054612159729 -0.5810043588280678, -5.6647926568984985 l-1.1620087176561356, -3.63127738237381 -1.1620087176561356, -1.5977619588375092 l-1.452510952949524, -0.5810043588280678 0.2905021794140339, 0.726255476474762 l3.4860262274742126, 0.4357532784342766 7.988809943199158, -16.994377374649048 l3.9217793941497803, -10.312827825546265 2.0335152745246887, -8.279312252998352 l-0.14525108970701694, -4.938537180423737 -1.1620087176561356, -2.4692685902118683 l-2.0335152745246887, -1.5977619588375092 -4.067030549049377, -1.0167576372623444 l-6.10054612159729, -0.4357532784342766 -16.26812219619751, 0.5810043588280678 l-31.083734035491943, 2.178766429424286 6.681550145149231, 26.29044771194458 l2.178766429424286, 5.08378803730011 0.726255476474762, 0.5810043588280678 l0.4357532784342766, -0.726255476474762 -0.5810043588280678, -3.776528537273407 l-1.452510952949524, -4.357532858848572 -2.6145195960998535, -5.229039192199707 l-3.4860262274742126, -4.502783715724945 -3.3407750725746155, -2.7597707509994507 l-2.7597707509994507, -1.452510952949524 -2.324017435312271, -0.4357532784342766 l-2.6145195960998535, 0.5810043588280678 -1.1620087176561356, 1.5977619588375092 l-0.2905021794140339, 3.1955239176750183 0.0, 14.08935546875 l-1.0167576372623444, -1.7430131137371063 -1.7430131137371063, -1.1620087176561356 l3.050273060798645, 4.502783715724945 5.229039192199707, 6.391047835350037 l0.726255476474762, 1.5977619588375092 -4.938537180423737, 3.050273060798645 m13.798853158950806, 4.067030549049377 l8.279312252998352, 2.7597707509994507 8.569814562797546, 1.1620087176561356 l2.324017435312271, 0.0 1.452510952949524, -0.726255476474762 l-0.4357532784342766, -4.502783715724945 -1.1620087176561356, -2.4692685902118683 l-1.7430131137371063, -1.3072597980499268 -3.3407750725746155, -0.726255476474762 l1.1620087176561356, -1.7430131137371063 -0.5810043588280678, -8.279312252998352 l-0.5810043588280678, -1.452510952949524 -0.726255476474762, -0.5810043588280678 l-1.452510952949524, -0.14525108970701694 -3.776528537273407, 1.452510952949524 l-6.681550145149231, 5.519541501998901 -1.452510952949524, 1.452510952949524 l-0.2905021794140339, 3.9217793941497803 -1.0167576372623444, -1.1620087176561356 l-2.0335152745246887, 2.0335152745246887 -0.14525108970701694, 0.726255476474762 l1.0167576372623444, 1.452510952949524 3.1955239176750183, 2.6145195960998535 m5.810043811798096, -4.648034870624542 l0.0, 0.0 m-0.14525108970701694, -1.0167576372623444 l0.4357532784342766, -0.726255476474762 -0.8715065568685532, -0.726255476474762 l-3.3407750725746155, -1.5977619588375092 -2.4692685902118683, -0.5810043588280678 l2.324017435312271, 1.7430131137371063 5.374290347099304, 2.0335152745246887 l0.0, -0.5810043588280678 m-1.5977619588375092, -5.519541501998901 l-0.5810043588280678, 2.4692685902118683 m4.067030549049377, -1.7430131137371063 l-1.3072597980499268, 3.4860262274742126 m-7.1173036098480225, 2.905021905899048 l2.0335152745246887, 3.1955239176750183 4.502783715724945, 2.324017435312271 l1.452510952949524, 0.2905021794140339 3.9217793941497803, -1.7430131137371063 m-3.9217793941497803, 20.189902782440186 l1.8882642686367035, 5.08378803730011 0.5810043588280678, 4.212281703948975 m29.921724796295166, -27.59770631790161 l13.508352041244507, 9.586572051048279 5.6647926568984985, 10.458078384399414 " fill="none" stroke="black" stroke-width="1" /></svg>