<?xml version="1.0" encoding="utf-8" ?>
<svg baseProfile="full" height="79.28477105684578" version="1.1" width="108.04448770359159" xmlns="http://www.w3.org/2000/svg" xmlns:ev="http://www.w3.org/2001/xml-events" xmlns:xlink="http://www.w3.org/1999/xlink"><defs /><rect fill="white" height="79.28477105684578" width="108.04448770359159" x="0" y="0" /><path d="M8.921779906377196, 32.01670326292515 m-0.726255476474762, 0.0 l-2.0335152745246887, -5.955294966697693 -0.14525108970701694, -4.793286025524139 l1.452510952949524, -3.3407750725746155 2.0335152745246887, -1.8882642686367035 l4.502783715724945, -2.324017435312271 3.4860262274742126, -1.0167576372623444 l14.52510952949524, -2.4692685902118683 6.10054612159729, -1.7430131137371063 l3.4860262274742126, -1.1620087176561356 3.9217793941497803, -2.324017435312271 l0.726255476474762, 0.0 7.407805919647217, 3.3407750725746155 l5.374290347099304, 3.63127738237381 2.7597707509994507, 3.3407750725746155 l2.324017435312271, 4.648034870624542 1.5977619588375092, 1.0167576372623444 l9.731823205947876, 0.2905021794140339 16.994377374649048, -1.1620087176561356 l0.4357532784342766, 2.178766429424286 1.8882642686367035, 3.3407750725746155 l5.374290347099304, 5.6647926568984985 1.7430131137371063, 2.324017435312271 l1.1620087176561356, 3.050273060798645 0.0, 2.905021905899048 l-0.5810043588280678, 1.7430131137371063 -3.1955239176750183, 3.3407750725746155 l-4.067030549049377, 3.050273060798645 -3.050273060798645, 6.10054612159729 l-3.4860262274742126, 5.229039192199707 -0.5810043588280678, 2.178766429424286 l0.14525108970701694, 2.324017435312271 1.7430131137371063, 2.905021905899048 l-5.955294966697693, -1.8882642686367035 -5.955294966697693, -0.4357532784342766 l-0.726255476474762, -0.726255476474762 -1.1620087176561356, -2.905021905899048 l-2.4692685902118683, -0.14525108970701694 -9.441320896148682, 3.4860262274742126 l-8.134061098098755, 4.793286025524139 -8.86031687259674, 4.502783715724945 l-4.357532858848572, 1.1620087176561356 -4.357532858848572, 0.0 l-6.391047835350037, -2.178766429424286 -6.536298990249634, -5.519541501998901 l-15.541867017745972, -6.10054612159729 -0.726255476474762, -0.726255476474762 l-0.726255476474762, -2.178766429424286 -2.178766429424286, 0.4357532784342766 l-1.0167576372623444, -2.324017435312271 -0.2905021794140339, -2.178766429424286 l-0.14525108970701694, -10.312827825546265 1.1620087176561356, -4.502783715724945 l1.8882642686367035, -12.34634280204773 0.4357532784342766, -0.5810043588280678 m40.37980556488037, -0.2905021794140339 l-4.067030549049377, 0.5810043588280678 -2.7597707509994507, 1.1620087176561356 l-5.229039192199707, 2.4692685902118683 -4.793286025524139, 3.3407750725746155 l-0.8715065568685532, 2.178766429424286 0.14525108970701694, 8.86031687259674 l0.726255476474762, 2.178766429424286 2.0335152745246887, 3.3407750725746155 l4.648034870624542, 3.63127738237381 2.324017435312271, 1.1620087176561356 l7.988809943199158, 1.8882642686367035 4.502783715724945, 0.14525108970701694 l7.988809943199158, -0.5810043588280678 0.726255476474762, -3.1955239176750183 l3.9217793941497803, -6.2457966804504395 1.0167576372623444, -3.3407750725746155 l-0.14525108970701694, -7.26255476474762 -0.8715065568685532, -3.63127738237381 l-1.1620087176561356, -2.324017435312271 -0.5810043588280678, -0.726255476474762 l-1.452510952949524, -0.5810043588280678 -19.318394660949707, -5.810043811798096 l-0.726255476474762, 0.0 -1.452510952949524, 5.6647926568984985 m15.251364707946777, 10.16757607460022 l5.810043811798096, 0.4357532784342766 2.178766429424286, 0.8715065568685532 l4.648034870624542, 3.63127738237381 2.324017435312271, 4.648034870624542 l0.14525108970701694, 0.726255476474762 -3.9217793941497803, 1.3072597980499268 l-1.452510952949524, 0.0 -1.452510952949524, -1.0167576372623444 l-0.726255476474762, 0.5810043588280678 -4.502783715724945, -0.14525108970701694 m-3.050273060798645, 2.324017435312271 l1.8882642686367035, 3.776528537273407 8.279312252998352, -0.14525108970701694 l2.324017435312271, -1.0167576372623444 0.2905021794140339, -4.357532858848572 l0.5810043588280678, -1.8882642686367035 " fill="none" stroke="black" stroke-width="1" /></svg>