<?xml version="1.0" encoding="utf-8" ?>
<svg baseProfile="full" height="81.89928918145597" version="1.1" width="124.60311188362539" xmlns="http://www.w3.org/2000/svg" xmlns:ev="http://www.w3.org/2001/xml-events" xmlns:xlink="http://www.w3.org/1999/xlink"><defs /><rect fill="white" height="81.89928918145597" width="124.60311188362539" x="0" y="0" /><path d="M69.92723717354238, 59.03340491466224 m-0.2905021794140339, 2.0335152745246887 l2.324017435312271, 9.877074360847473 -0.14525108970701694, 3.1955239176750183 l-0.8715065568685532, 1.5977619588375092 -1.5977619588375092, 1.1620087176561356 l-2.324017435312271, 0.0 -5.519541501998901, -2.4692685902118683 l-1.5977619588375092, -2.178766429424286 1.1620087176561356, -1.5977619588375092 l5.519541501998901, -2.7597707509994507 -2.178766429424286, -6.391047835350037 l-1.0167576372623444, -4.938537180423737 0.2905021794140339, -6.10054612159729 l0.8715065568685532, -2.178766429424286 4.357532858848572, -0.2905021794140339 l2.4692685902118683, 0.4357532784342766 1.7430131137371063, 1.452510952949524 l0.726255476474762, 2.0335152745246887 0.0, 3.4860262274742126 l-1.3072597980499268, 7.553057074546814 -0.14525108970701694, 2.6145195960998535 l0.5810043588280678, 1.452510952949524 m30.35747766494751, -2.0335152745246887 l-9.150818586349487, 3.1955239176750183 -2.324017435312271, 1.5977619588375092 l-3.050273060798645, 4.067030549049377 0.14525108970701694, 0.8715065568685532 l2.905021905899048, 1.8882642686367035 5.229039192199707, 0.2905021794140339 l4.357532858848572, -1.8882642686367035 5.374290347099304, -4.793286025524139 l2.178766429424286, -3.63127738237381 1.5977619588375092, -5.6647926568984985 l-0.2905021794140339, -10.458078384399414 0.4357532784342766, -9.441320896148682 m-7.8435587882995605, 25.418941974639893 l-0.14525108970701694, -2.7597707509994507 3.050273060798645, -15.396615266799927 l1.0167576372623444, -1.7430131137371063 1.0167576372623444, -0.5810043588280678 l2.4692685902118683, -0.2905021794140339 3.3407750725746155, 0.4357532784342766 m-44.15633201599121, 1.8882642686367035 l-9.296069741249084, 1.3072597980499268 -3.9217793941497803, -0.14525108970701694 m3.776528537273407, 1.7430131137371063 l-1.452510952949524, -0.2905021794140339 -4.502783715724945, -2.324017435312271 l-4.357532858848572, -3.050273060798645 -1.1620087176561356, -1.452510952949524 l-0.8715065568685532, -4.502783715724945 0.4357532784342766, -5.374290347099304 m17.72063374519348, 14.670360088348389 l20.62565565109253, 0.14525108970701694 10.748580694198608, -0.726255476474762 l16.558624505996704, -2.7597707509994507 5.08378803730011, -7.26255476474762 l0.726255476474762, -9.877074360847473 -0.2905021794140339, -0.726255476474762 l-3.63127738237381, -2.0335152745246887 -6.826801300048828, -1.8882642686367035 l-3.63127738237381, -0.4357532784342766 -4.502783715724945, 0.4357532784342766 l-10.893832445144653, 2.324017435312271 -8.86031687259674, -1.1620087176561356 l-7.988809943199158, 1.1620087176561356 -7.1173036098480225, -0.8715065568685532 l-4.793286025524139, 1.1620087176561356 m-14.379857778549194, 10.16757607460022 l-1.3072597980499268, -1.3072597980499268 -1.8882642686367035, -3.1955239176750183 l-1.452510952949524, -3.4860262274742126 -1.1620087176561356, -6.391047835350037 l0.4357532784342766, -5.229039192199707 6.972052454948425, -3.776528537273407 l1.5977619588375092, 0.0 3.3407750725746155, 1.0167576372623444 l3.1955239176750183, 1.5977619588375092 2.7597707509994507, 2.6145195960998535 l-0.726255476474762, 8.715065717697144 -1.5977619588375092, 2.4692685902118683 l-2.7597707509994507, 2.324017435312271 -4.067030549049377, 1.8882642686367035 l-0.8715065568685532, 0.2905021794140339 -1.3072597980499268, -0.5810043588280678 m9.150818586349487, -23.53067636489868 l3.3407750725746155, -1.0167576372623444 4.502783715724945, -0.4357532784342766 l1.452510952949524, 0.2905021794140339 -0.4357532784342766, 3.1955239176750183 l-2.7597707509994507, 7.26255476474762 0.2905021794140339, 1.0167576372623444 l7.988809943199158, -2.178766429424286 2.7597707509994507, 0.726255476474762 l-9.731823205947876, 18.737391233444214 -4.502783715724945, 1.1620087176561356 l-2.905021905899048, 0.0 -10.16757607460022, -3.1955239176750183 l-11.039083003997803, 1.7430131137371063 -1.5977619588375092, -1.3072597980499268 l-0.726255476474762, -1.3072597980499268 -1.0167576372623444, -3.4860262274742126 l-0.4357532784342766, -4.212281703948975 3.4860262274742126, -12.20109224319458 l0.726255476474762, 0.14525108970701694 0.726255476474762, 1.5977619588375092 l0.0, 5.6647926568984985 -0.8715065568685532, 1.1620087176561356 l-0.5810043588280678, -1.3072597980499268 -0.4357532784342766, -4.648034870624542 l0.14525108970701694, -2.324017435312271 1.8882642686367035, -6.10054612159729 l5.955294966697693, -3.63127738237381 7.8435587882995605, 5.810043811798096 l6.972052454948425, -4.067030549049377 4.067030549049377, -1.5977619588375092 l1.3072597980499268, 0.5810043588280678 2.4692685902118683, 2.905021905899048 m-19.173144102096558, 19.027893543243408 l4.502783715724945, -0.14525108970701694 3.050273060798645, -0.8715065568685532 m-12.491593360900879, -5.519541501998901 l0.0, 0.0 m9.586572051048279, -1.1620087176561356 l0.0, 0.0 m-3.9217793941497803, 0.2905021794140339 l3.776528537273407, -0.8715065568685532 -0.5810043588280678, -1.8882642686367035 m-9.296069741249084, 1.8882642686367035 l2.0335152745246887, -0.2905021794140339 m3.3407750725746155, 17.86588430404663 l-5.229039192199707, 3.3407750725746155 -3.4860262274742126, 1.452510952949524 l-2.0335152745246887, 1.5977619588375092 -13.508352041244507, 2.905021905899048 l-3.9217793941497803, -0.726255476474762 -5.810043811798096, -4.067030549049377 l-7.553057074546814, -12.055840492248535 0.5810043588280678, -3.3407750725746155 l3.1955239176750183, -3.4860262274742126 9.296069741249084, -3.776528537273407 l9.877074360847473, -1.3072597980499268 m-14.234607219696045, 12.34634280204773 l3.63127738237381, 6.2457966804504395 1.3072597980499268, 1.452510952949524 l2.6145195960998535, -5.08378803730011 1.8882642686367035, -6.10054612159729 l0.726255476474762, -1.0167576372623444 m-5.08378803730011, 6.681550145149231 l4.067030549049377, 4.938537180423737 1.452510952949524, 3.3407750725746155 m0.5810043588280678, -4.067030549049377 l1.7430131137371063, -4.357532858848572 1.1620087176561356, -1.452510952949524 l1.3072597980499268, 0.14525108970701694 3.1955239176750183, 6.536298990249634 " fill="none" stroke="black" stroke-width="1" /></svg>