<?xml version="1.0" encoding="utf-8" ?>
<svg baseProfile="full" height="74.05573152005672" version="1.1" width="90.61435628682375" xmlns="http://www.w3.org/2000/svg" xmlns:ev="http://www.w3.org/2001/xml-events" xmlns:xlink="http://www.w3.org/1999/xlink"><defs /><rect fill="white" height="74.05573152005672" width="90.61435628682375" x="0" y="0" /><path d="M46.83231517672539, 30.70944182574749 m-3.776528537273407, -1.3072597980499268 l-5.6647926568984985, -0.2905021794140339 -2.7597707509994507, 1.8882642686367035 l-4.212281703948975, 7.26255476474762 -1.5977619588375092, 5.519541501998901 l-0.14525108970701694, 4.067030549049377 1.3072597980499268, 4.502783715724945 l2.6145195960998535, 3.776528537273407 2.6145195960998535, 2.178766429424286 l2.0335152745246887, 1.1620087176561356 3.776528537273407, -0.14525108970701694 l2.4692685902118683, -0.8715065568685532 2.905021905899048, -1.8882642686367035 l7.553057074546814, -9.441320896148682 3.63127738237381, -6.2457966804504395 l0.4357532784342766, -4.502783715724945 -0.2905021794140339, -2.178766429424286 l-1.1620087176561356, -1.5977619588375092 -4.648034870624542, -2.6145195960998535 l-5.374290347099304, 0.0 m6.972052454948425, 0.2905021794140339 l9.00556743144989, -3.4860262274742126 0.5810043588280678, 0.8715065568685532 l-0.5810043588280678, 4.067030549049377 -1.8882642686367035, 2.4692685902118683 l-1.7430131137371063, 0.2905021794140339 m-22.80442237854004, -5.229039192199707 l-6.10054612159729, -3.9217793941497803 -2.178766429424286, -0.5810043588280678 l-1.1620087176561356, 3.050273060798645 -0.4357532784342766, 4.648034870624542 l0.5810043588280678, 1.452510952949524 2.6145195960998535, 2.324017435312271 m8.42456340789795, 7.988809943199158 l1.0167576372623444, -3.1955239176750183 -0.14525108970701694, -1.5977619588375092 l-0.726255476474762, -1.452510952949524 -1.452510952949524, 0.0 l-1.7430131137371063, 1.452510952949524 -1.1620087176561356, 1.452510952949524 l-0.14525108970701694, 1.5977619588375092 1.452510952949524, 2.178766429424286 l2.178766429424286, 0.726255476474762 0.726255476474762, -0.4357532784342766 l0.0, -1.0167576372623444 -1.1620087176561356, -2.6145195960998535 m-0.14525108970701694, -2.905021905899048 l-1.3072597980499268, 1.0167576372623444 -0.4357532784342766, 1.3072597980499268 m1.5977619588375092, -0.5810043588280678 l-0.4357532784342766, 1.452510952949524 -0.8715065568685532, -0.14525108970701694 m-0.4357532784342766, -1.5977619588375092 l0.8715065568685532, 3.1955239176750183 0.5810043588280678, 0.726255476474762 l0.0, -1.452510952949524 -0.5810043588280678, 1.7430131137371063 l0.8715065568685532, -0.4357532784342766 m7.407805919647217, -29.921724796295166 l-5.08378803730011, -7.698307633399963 -1.452510952949524, -1.0167576372623444 l-2.0335152745246887, 2.178766429424286 -1.1620087176561356, 2.6145195960998535 l0.0, 9.00556743144989 -5.08378803730011, -2.178766429424286 l-4.938537180423737, -0.2905021794140339 -4.357532858848572, 2.7597707509994507 l-2.178766429424286, 2.324017435312271 -0.726255476474762, 2.905021905899048 l3.3407750725746155, 2.0335152745246887 4.212281703948975, 1.3072597980499268 l0.14525108970701694, 0.8715065568685532 -15.832369327545166, 10.893832445144653 l-1.3072597980499268, 1.3072597980499268 -1.1620087176561356, 2.178766429424286 l13.94410490989685, 0.2905021794140339 -0.14525108970701694, 1.3072597980499268 l-3.3407750725746155, 3.1955239176750183 -7.698307633399963, 5.08378803730011 l-3.63127738237381, 3.050273060798645 -0.2905021794140339, 0.726255476474762 l10.312827825546265, 0.0 7.8435587882995605, -0.5810043588280678 l-6.536298990249634, 9.441320896148682 -0.5810043588280678, 1.5977619588375092 l9.731823205947876, -0.8715065568685532 1.8882642686367035, 2.4692685902118683 l0.8715065568685532, 0.4357532784342766 3.1955239176750183, -1.7430131137371063 m19.754148721694946, -8.715065717697144 l2.178766429424286, 2.905021905899048 3.9217793941497803, 7.1173036098480225 l1.0167576372623444, 0.14525108970701694 2.6145195960998535, -5.374290347099304 l0.8715065568685532, -6.826801300048828 4.357532858848572, 11.184333562850952 l1.5977619588375092, -3.63127738237381 0.0, -7.26255476474762 l-3.050273060798645, -16.26812219619751 1.5977619588375092, 3.050273060798645 l2.4692685902118683, 3.1955239176750183 2.178766429424286, 1.1620087176561356 l1.7430131137371063, -0.5810043588280678 1.3072597980499268, -3.050273060798645 l0.0, -5.374290347099304 -1.7430131137371063, -2.7597707509994507 l0.4357532784342766, -1.0167576372623444 1.5977619588375092, -2.0335152745246887 l8.134061098098755, -7.553057074546814 2.4692685902118683, -3.776528537273407 l0.4357532784342766, -3.1955239176750183 -4.067030549049377, -1.452510952949524 l-12.636845111846924, 0.2905021794140339 -4.357532858848572, 1.5977619588375092 l-0.8715065568685532, 0.726255476474762 2.0335152745246887, 0.14525108970701694 l7.1173036098480225, -1.0167576372623444 -5.6647926568984985, 1.1620087176561356 l-13.508352041244507, 1.7430131137371063 -13.217849731445312, 1.0167576372623444 l10.312827825546265, -7.553057074546814 1.1620087176561356, -1.452510952949524 l-8.569814562797546, 0.14525108970701694 -1.1620087176561356, -0.2905021794140339 l-0.2905021794140339, -0.726255476474762 -0.4357532784342766, 0.14525108970701694 " fill="none" stroke="black" stroke-width="1" /></svg>