<?xml version="1.0" encoding="utf-8" ?>
<svg baseProfile="full" height="46.6032752674073" version="1.1" width="52.99432346597314" xmlns="http://www.w3.org/2000/svg" xmlns:ev="http://www.w3.org/2001/xml-events" xmlns:xlink="http://www.w3.org/1999/xlink"><defs /><rect fill="white" height="46.6032752674073" width="52.99432346597314" x="0" y="0" /><path d="M26.497161891311407, 12.988810613751411 m-2.324017435312271, 0.5810043588280678 l-4.067030549049377, 5.374290347099304 1.7430131137371063, 5.229039192199707 l5.810043811798096, 4.502783715724945 2.324017435312271, 0.0 l3.776528537273407, -2.905021905899048 2.324017435312271, -4.067030549049377 l-0.2905021794140339, -2.0335152745246887 -1.452510952949524, -2.324017435312271 l-5.810043811798096, -5.229039192199707 -3.776528537273407, -1.8882642686367035 m4.648034870624542, -1.8882642686367035 l4.357532858848572, -2.0335152745246887 4.067030549049377, -0.2905021794140339 l1.1620087176561356, 0.726255476474762 0.8715065568685532, 1.5977619588375092 l-0.8715065568685532, 3.9217793941497803 -0.5810043588280678, 0.726255476474762 l4.067030549049377, -1.3072597980499268 2.324017435312271, 0.0 l1.452510952949524, 0.8715065568685532 0.2905021794140339, 2.324017435312271 l-1.1620087176561356, 3.3407750725746155 -0.8715065568685532, 0.4357532784342766 l3.4860262274742126, 2.4692685902118683 -0.8715065568685532, 3.4860262274742126 l-0.8715065568685532, 1.1620087176561356 -2.6145195960998535, 1.452510952949524 l1.7430131137371063, 1.1620087176561356 -2.6145195960998535, 4.212281703948975 l-3.776528537273407, 0.8715065568685532 -3.776528537273407, 0.14525108970701694 l4.357532858848572, 2.7597707509994507 0.2905021794140339, 1.0167576372623444 l-2.324017435312271, 2.324017435312271 -2.905021905899048, 1.3072597980499268 l-3.776528537273407, 0.4357532784342766 -3.1955239176750183, -0.4357532784342766 l-8.715065717697144, 0.5810043588280678 -1.452510952949524, -0.5810043588280678 l1.7430131137371063, -2.905021905899048 -2.0335152745246887, 1.0167576372623444 l-2.324017435312271, 0.14525108970701694 -1.7430131137371063, -0.4357532784342766 l-0.5810043588280678, -1.5977619588375092 1.452510952949524, -2.6145195960998535 l-2.0335152745246887, -0.2905021794140339 -3.1955239176750183, -1.452510952949524 l-0.8715065568685532, -0.8715065568685532 -1.452510952949524, -4.212281703948975 l-1.452510952949524, -5.810043811798096 0.2905021794140339, -1.1620087176561356 l2.6145195960998535, -4.067030549049377 1.1620087176561356, -0.726255476474762 l0.8715065568685532, 0.0 -0.8715065568685532, 0.4357532784342766 l-0.8715065568685532, -0.4357532784342766 -0.2905021794140339, -2.324017435312271 l1.452510952949524, -2.905021905899048 2.0335152745246887, -2.324017435312271 l2.0335152745246887, -0.5810043588280678 1.7430131137371063, 0.2905021794140339 l0.5810043588280678, -1.1620087176561356 0.8715065568685532, -0.5810043588280678 l2.324017435312271, -0.8715065568685532 4.648034870624542, -0.5810043588280678 l3.4860262274742126, 0.5810043588280678 0.5810043588280678, 1.1620087176561356 l3.776528537273407, -0.8715065568685532 1.7430131137371063, 0.8715065568685532 l2.6145195960998535, 3.4860262274742126 " fill="none" stroke="black" stroke-width="1" /></svg>