<?xml version="1.0" encoding="utf-8" ?>
<svg baseProfile="full" height="73.76522934995592" version="1.1" width="76.3797499332577" xmlns="http://www.w3.org/2000/svg" xmlns:ev="http://www.w3.org/2001/xml-events" xmlns:xlink="http://www.w3.org/1999/xlink"><defs /><rect fill="white" height="73.76522934995592" width="76.3797499332577" x="0" y="0" /><path d="M24.75414827466011, 9.938536919653416 m-1.5977619588375092, -1.7430131137371063 l5.6647926568984985, 12.20109224319458 -1.452510952949524, -3.9217793941497803 l-0.4357532784342766, -3.1955239176750183 0.0, -4.938537180423737 l1.452510952949524, 0.4357532784342766 2.4692685902118683, 6.391047835350037 l1.5977619588375092, 6.391047835350037 0.2905021794140339, -6.972052454948425 l2.178766429424286, -6.972052454948425 1.452510952949524, -2.6145195960998535 l1.1620087176561356, 0.8715065568685532 0.2905021794140339, 3.1955239176750183 l0.14525108970701694, 8.279312252998352 -0.726255476474762, 4.648034870624542 l-0.14525108970701694, -0.8715065568685532 2.905021905899048, -6.10054612159729 l3.050273060798645, -4.938537180423737 1.8882642686367035, -2.0335152745246887 l0.5810043588280678, 0.726255476474762 -1.3072597980499268, 5.6647926568984985 l-2.324017435312271, 5.08378803730011 3.050273060798645, -3.63127738237381 l7.407805919647217, -6.2457966804504395 3.3407750725746155, -1.0167576372623444 l0.5810043588280678, 1.0167576372623444 -2.0335152745246887, 3.050273060798645 l-7.988809943199158, 8.715065717697144 1.7430131137371063, -0.5810043588280678 l9.731823205947876, -5.6647926568984985 5.810043811798096, -1.452510952949524 l0.14525108970701694, 1.452510952949524 -2.178766429424286, 2.6145195960998535 l-6.536298990249634, 5.810043811798096 -2.0335152745246887, 0.8715065568685532 l3.9217793941497803, -1.452510952949524 5.229039192199707, -0.4357532784342766 l2.324017435312271, 0.14525108970701694 1.3072597980499268, 0.726255476474762 l0.5810043588280678, 1.452510952949524 -1.1620087176561356, 1.7430131137371063 l-9.441320896148682, 4.938537180423737 8.569814562797546, 0.4357532784342766 l6.972052454948425, 1.7430131137371063 -0.4357532784342766, 1.8882642686367035 l-4.212281703948975, 0.5810043588280678 -4.938537180423737, -0.2905021794140339 l6.826801300048828, 8.715065717697144 1.452510952949524, 2.4692685902118683 l1.452510952949524, 3.63127738237381 0.0, 1.1620087176561356 l-1.0167576372623444, 1.3072597980499268 -3.9217793941497803, 0.0 l-2.905021905899048, -1.7430131137371063 -3.050273060798645, -2.6145195960998535 l5.374290347099304, 11.474835872650146 -8.279312252998352, -6.536298990249634 l-4.067030549049377, -2.178766429424286 -0.5810043588280678, 2.324017435312271 l0.14525108970701694, 2.7597707509994507 3.1955239176750183, 9.296069741249084 l-12.20109224319458, -14.08935546875 -0.726255476474762, 4.938537180423737 l0.726255476474762, 11.184333562850952 -0.2905021794140339, 0.726255476474762 l-1.452510952949524, -1.8882642686367035 -2.7597707509994507, -14.52510952949524 l-2.0335152745246887, 3.3407750725746155 -2.905021905899048, 11.620087623596191 l-1.0167576372623444, 0.726255476474762 -1.7430131137371063, -7.553057074546814 l0.0, -6.536298990249634 -0.5810043588280678, -0.726255476474762 l-8.86031687259674, 14.815611839294434 -0.726255476474762, 0.2905021794140339 l2.0335152745246887, -14.379857778549194 0.726255476474762, -2.0335152745246887 l-0.2905021794140339, -1.7430131137371063 -8.715065717697144, 9.441320896148682 l-1.3072597980499268, 0.726255476474762 0.2905021794140339, -2.905021905899048 l1.8882642686367035, -3.3407750725746155 7.553057074546814, -8.42456340789795 l-11.910589933395386, 4.357532858848572 -4.212281703948975, -0.14525108970701694 l0.0, -1.7430131137371063 6.10054612159729, -9.731823205947876 l1.452510952949524, -1.452510952949524 -1.7430131137371063, -1.3072597980499268 l-6.391047835350037, 2.6145195960998535 -2.178766429424286, 0.4357532784342766 l8.715065717697144, -12.34634280204773 3.050273060798645, -2.4692685902118683 l2.4692685902118683, -1.3072597980499268 -2.4692685902118683, 2.0335152745246887 l-2.4692685902118683, 0.5810043588280678 -2.324017435312271, -1.7430131137371063 l0.726255476474762, -2.324017435312271 10.02232551574707, -5.955294966697693 l5.374290347099304, -1.0167576372623444 m3.776528537273407, 14.960862398147583 l1.1620087176561356, 0.2905021794140339 -1.3072597980499268, -2.7597707509994507 l-0.726255476474762, -0.14525108970701694 -0.8715065568685532, 3.050273060798645 l0.4357532784342766, 0.8715065568685532 1.0167576372623444, 0.5810043588280678 l1.452510952949524, -3.9217793941497803 -0.726255476474762, -0.726255476474762 l-1.8882642686367035, 1.452510952949524 0.0, 1.5977619588375092 l2.6145195960998535, 2.4692685902118683 m7.8435587882995605, -5.374290347099304 l-1.0167576372623444, -0.5810043588280678 0.2905021794140339, 1.8882642686367035 l1.8882642686367035, 1.452510952949524 -0.14525108970701694, -3.4860262274742126 l-0.4357532784342766, 2.905021905899048 0.726255476474762, -2.905021905899048 l-1.1620087176561356, 0.0 -0.2905021794140339, 1.1620087176561356 m-2.0335152745246887, 8.42456340789795 l3.1955239176750183, -1.5977619588375092 6.826801300048828, -0.8715065568685532 l1.452510952949524, 0.5810043588280678 3.1955239176750183, 3.1955239176750183 l0.14525108970701694, 0.8715065568685532 -1.452510952949524, 4.502783715724945 l-1.0167576372623444, 1.3072597980499268 -4.793286025524139, 3.3407750725746155 l-8.715065717697144, 2.7597707509994507 -2.0335152745246887, 0.0 m16.8491268157959, -10.893832445144653 l-3.1955239176750183, 0.5810043588280678 -8.715065717697144, 3.050273060798645 l-1.1620087176561356, 0.0 " fill="none" stroke="black" stroke-width="1" /></svg>