<?xml version="1.0" encoding="utf-8" ?>
<svg baseProfile="full" height="65.19541507586837" version="1.1" width="83.7875553779304" xmlns="http://www.w3.org/2000/svg" xmlns:ev="http://www.w3.org/2001/xml-events" xmlns:xlink="http://www.w3.org/1999/xlink"><defs /><rect fill="white" height="65.19541507586837" width="83.7875553779304" x="0" y="0" /><path d="M47.41331989876926, 21.703875437378883 m-3.1955239176750183, -2.905021905899048 l-4.067030549049377, -0.4357532784342766 -4.357532858848572, 2.324017435312271 l-3.3407750725746155, 3.9217793941497803 -2.4692685902118683, 5.374290347099304 l-0.8715065568685532, 6.2457966804504395 0.5810043588280678, 2.178766429424286 l1.7430131137371063, 1.8882642686367035 2.6145195960998535, 1.7430131137371063 l3.4860262274742126, 1.1620087176561356 4.067030549049377, 0.0 l1.452510952949524, -0.4357532784342766 3.4860262274742126, -2.0335152745246887 l2.6145195960998535, -3.776528537273407 1.1620087176561356, -5.374290347099304 l0.0, -3.3407750725746155 -0.5810043588280678, -2.6145195960998535 l-0.5810043588280678, -1.452510952949524 -2.324017435312271, -2.905021905899048 l-4.067030549049377, -2.0335152745246887 m-1.7430131137371063, -8.42456340789795 l4.648034870624542, -2.0335152745246887 1.7430131137371063, -1.5977619588375092 l3.1955239176750183, -1.5977619588375092 0.8715065568685532, 0.4357532784342766 l1.1620087176561356, 5.955294966697693 0.8715065568685532, 1.5977619588375092 l6.10054612159729, -1.5977619588375092 2.324017435312271, -0.14525108970701694 l2.6145195960998535, 0.4357532784342766 2.178766429424286, 1.7430131137371063 l0.4357532784342766, 0.8715065568685532 -0.5810043588280678, 1.452510952949524 l-2.7597707509994507, 4.357532858848572 -0.14525108970701694, 0.8715065568685532 l1.7430131137371063, 0.5810043588280678 10.16757607460022, 1.1620087176561356 l3.1955239176750183, 1.452510952949524 -0.5810043588280678, 0.8715065568685532 l-5.810043811798096, 2.324017435312271 -8.715065717697144, 1.3072597980499268 l0.14525108970701694, 1.0167576372623444 8.279312252998352, 6.10054612159729 l-8.279312252998352, 1.452510952949524 -3.3407750725746155, 2.0335152745246887 l0.4357532784342766, 2.0335152745246887 2.178766429424286, 4.357532858848572 l0.14525108970701694, 2.7597707509994507 -0.726255476474762, 0.726255476474762 l-2.0335152745246887, 0.0 -6.10054612159729, -1.452510952949524 l-4.502783715724945, 0.2905021794140339 -2.4692685902118683, 2.324017435312271 l-2.905021905899048, 4.938537180423737 -2.324017435312271, 2.905021905899048 l-2.7597707509994507, 1.3072597980499268 -2.324017435312271, 0.14525108970701694 l-2.178766429424286, -0.726255476474762 -2.6145195960998535, -2.324017435312271 l-3.4860262274742126, -5.374290347099304 -2.324017435312271, -2.6145195960998535 l-1.1620087176561356, -0.5810043588280678 -6.391047835350037, 1.5977619588375092 l-4.357532858848572, -0.14525108970701694 -5.955294966697693, -1.7430131137371063 l-2.4692685902118683, -1.452510952949524 -0.4357532784342766, -0.726255476474762 l0.0, -1.0167576372623444 5.08378803730011, -8.715065717697144 l0.5810043588280678, -2.6145195960998535 -1.0167576372623444, -0.8715065568685532 l-2.7597707509994507, 0.0 -0.8715065568685532, -0.726255476474762 l-1.7430131137371063, -3.4860262274742126 0.2905021794140339, -3.3407750725746155 l1.452510952949524, -1.7430131137371063 1.7430131137371063, -0.5810043588280678 l2.0335152745246887, 0.0 5.08378803730011, 1.5977619588375092 l0.726255476474762, -0.4357532784342766 0.0, -9.296069741249084 l0.2905021794140339, -1.8882642686367035 1.1620087176561356, -1.5977619588375092 l3.776528537273407, -1.452510952949524 4.357532858848572, 1.8882642686367035 l1.1620087176561356, -0.14525108970701694 1.7430131137371063, -1.1620087176561356 l2.0335152745246887, -2.905021905899048 2.6145195960998535, -2.0335152745246887 l2.0335152745246887, 0.2905021794140339 3.9217793941497803, 3.4860262274742126 l1.7430131137371063, -2.178766429424286 2.7597707509994507, -1.8882642686367035 l0.726255476474762, -0.2905021794140339 0.4357532784342766, 0.4357532784342766 m-9.150818586349487, 24.837937355041504 l-0.14525108970701694, 1.8882642686367035 0.5810043588280678, -2.4692685902118683 l0.5810043588280678, 0.14525108970701694 " fill="none" stroke="black" stroke-width="1" /></svg>