<?xml version="1.0" encoding="utf-8" ?>
<svg baseProfile="full" height="73.18422436714172" version="1.1" width="102.23444321192801" xmlns="http://www.w3.org/2000/svg" xmlns:ev="http://www.w3.org/2001/xml-events" xmlns:xlink="http://www.w3.org/1999/xlink"><defs /><rect fill="white" height="73.18422436714172" width="102.23444321192801" x="0" y="0" /><path d="M38.407751601189375, 50.46359241940081 m-8.715065717697144, -0.2905021794140339 l-7.988809943199158, -2.7597707509994507 -4.502783715724945, -3.050273060798645 l-2.178766429424286, -2.178766429424286 -0.2905021794140339, -0.8715065568685532 l2.178766429424286, -1.3072597980499268 1.5977619588375092, -1.8882642686367035 l4.648034870624542, -7.407805919647217 3.050273060798645, -3.050273060798645 l1.7430131137371063, -0.726255476474762 4.212281703948975, -0.2905021794140339 l9.441320896148682, 1.1620087176561356 6.391047835350037, 0.14525108970701694 l2.4692685902118683, 1.452510952949524 2.178766429424286, 0.5810043588280678 l2.178766429424286, 2.4692685902118683 0.4357532784342766, 0.8715065568685532 l0.0, 2.324017435312271 -1.0167576372623444, 2.178766429424286 l-4.502783715724945, 5.374290347099304 -4.502783715724945, 3.63127738237381 l-4.502783715724945, 1.5977619588375092 -5.955294966697693, 0.14525108970701694 l-0.726255476474762, 0.726255476474762 m-10.748580694198608, -16.994377374649048 l-3.1955239176750183, -5.810043811798096 -4.502783715724945, -5.955294966697693 l-4.502783715724945, -4.357532858848572 -1.3072597980499268, -2.324017435312271 m13.798853158950806, 21.497161388397217 l-5.955294966697693, -4.357532858848572 -2.905021905899048, -2.7597707509994507 l-8.86031687259674, -11.184333562850952 -0.8715065568685532, -2.324017435312271 l2.324017435312271, -0.14525108970701694 4.212281703948975, -2.4692685902118683 m17.430131435394287, 14.379857778549194 l-1.452510952949524, -1.3072597980499268 -0.726255476474762, -3.3407750725746155 l-0.14525108970701694, -16.558624505996704 4.067030549049377, -0.2905021794140339 l4.357532858848572, 0.5810043588280678 3.9217793941497803, 1.7430131137371063 l-1.452510952949524, 1.8882642686367035 -0.2905021794140339, 2.6145195960998535 l-0.4357532784342766, 17.575381994247437 0.5810043588280678, 2.6145195960998535 m6.972052454948425, -5.519541501998901 l0.8715065568685532, -9.00556743144989 1.5977619588375092, -4.502783715724945 l4.648034870624542, -1.3072597980499268 5.08378803730011, 0.4357532784342766 l1.3072597980499268, 1.0167576372623444 -1.0167576372623444, 2.6145195960998535 l-2.7597707509994507, 13.798853158950806 m1.452510952949524, 4.502783715724945 l0.726255476474762, -1.1620087176561356 5.810043811798096, -4.938537180423737 l1.3072597980499268, -2.178766429424286 3.1955239176750183, -2.905021905899048 l1.3072597980499268, 1.452510952949524 1.452510952949524, 7.698307633399963 l1.1620087176561356, 2.178766429424286 -6.391047835350037, 2.905021905899048 l-4.212281703948975, 0.14525108970701694 -3.9217793941497803, -0.8715065568685532 l-2.324017435312271, 0.0 m-1.5977619588375092, 2.6145195960998535 l2.4692685902118683, 4.212281703948975 2.178766429424286, 2.178766429424286 l3.050273060798645, 1.7430131137371063 3.4860262274742126, 1.0167576372623444 l10.748580694198608, 0.5810043588280678 9.00556743144989, -1.7430131137371063 l1.7430131137371063, -1.0167576372623444 0.2905021794140339, -1.7430131137371063 l-3.3407750725746155, -2.905021905899048 -3.1955239176750183, -1.452510952949524 l-12.636845111846924, -1.3072597980499268 -12.636845111846924, -0.14525108970701694 m10.16757607460022, 9.731823205947876 l-2.178766429424286, -0.8715065568685532 0.0, 5.519541501998901 l1.0167576372623444, 3.63127738237381 1.8882642686367035, 3.050273060798645 l4.938537180423737, 5.374290347099304 2.4692685902118683, 1.3072597980499268 l4.793286025524139, 1.452510952949524 3.63127738237381, 0.5810043588280678 l4.648034870624542, 0.0 3.3407750725746155, -1.1620087176561356 l3.1955239176750183, -2.178766429424286 4.938537180423737, -5.08378803730011 l0.8715065568685532, -4.648034870624542 0.2905021794140339, -8.42456340789795 l-1.452510952949524, -2.0335152745246887 -2.178766429424286, -1.7430131137371063 l-12.782095670700073, -3.63127738237381 -8.279312252998352, -3.3407750725746155 l-10.312827825546265, 0.5810043588280678 -15.832369327545166, -0.14525108970701694 l-0.5810043588280678, 2.6145195960998535 1.3072597980499268, 5.810043811798096 l4.502783715724945, 7.988809943199158 0.8715065568685532, 2.6145195960998535 l1.7430131137371063, 3.050273060798645 1.8882642686367035, 1.1620087176561356 l4.793286025524139, 1.452510952949524 3.4860262274742126, 0.4357532784342766 l1.7430131137371063, -0.5810043588280678 " fill="none" stroke="black" stroke-width="1" /></svg>