<?xml version="1.0" encoding="utf-8" ?>
<svg baseProfile="full" height="55.89934481307864" version="1.1" width="119.66457225382328" xmlns="http://www.w3.org/2000/svg" xmlns:ev="http://www.w3.org/2001/xml-events" xmlns:xlink="http://www.w3.org/1999/xlink"><defs /><rect fill="white" height="55.89934481307864" width="119.66457225382328" x="0" y="0" /><path d="M37.39098937250674, 16.039082910865545 m6.536298990249634, -0.14525108970701694 l17.72063374519348, -2.0335152745246887 25.418941974639893, 0.4357532784342766 l2.178766429424286, 0.2905021794140339 5.6647926568984985, 2.7597707509994507 l3.050273060798645, 2.6145195960998535 0.726255476474762, 1.452510952949524 l0.14525108970701694, 1.5977619588375092 -0.5810043588280678, 1.452510952949524 l-0.726255476474762, 0.5810043588280678 -10.312827825546265, 3.1955239176750183 l-14.08935546875, 0.8715065568685532 -12.20109224319458, 1.5977619588375092 l-4.648034870624542, -0.4357532784342766 -10.16757607460022, -3.3407750725746155 l-7.553057074546814, -5.519541501998901 -1.452510952949524, -2.178766429424286 m77.41883277893066, -7.8435587882995605 l-14.52510952949524, 1.7430131137371063 -3.4860262274742126, 3.4860262274742126 l-1.5977619588375092, 5.374290347099304 0.2905021794140339, 0.8715065568685532 l1.5977619588375092, 1.1620087176561356 1.8882642686367035, 0.4357532784342766 l4.357532858848572, 0.14525108970701694 1.5977619588375092, -0.726255476474762 l6.10054612159729, -6.536298990249634 3.1955239176750183, -6.972052454948425 l0.726255476474762, -5.374290347099304 m-61.58646106719971, 25.564191341400146 l0.5810043588280678, 3.4860262274742126 0.4357532784342766, 11.474835872650146 l2.6145195960998535, 1.3072597980499268 6.681550145149231, 1.8882642686367035 l2.905021905899048, 0.2905021794140339 3.4860262274742126, -0.726255476474762 m-10.458078384399414, -18.01113486289978 l1.1620087176561356, 7.26255476474762 0.726255476474762, 0.4357532784342766 l3.63127738237381, 0.0 m21.351909637451172, -8.86031687259674 l1.0167576372623444, 14.815611839294434 2.7597707509994507, 6.972052454948425 l4.938537180423737, -0.726255476474762 9.296069741249084, -3.776528537273407 l3.1955239176750183, -0.726255476474762 m-17.72063374519348, -17.430131435394287 l1.8882642686367035, 1.7430131137371063 2.905021905899048, 0.5810043588280678 l5.08378803730011, -0.14525108970701694 8.569814562797546, -1.7430131137371063 m-71.17303371429443, -11.76533818244934 l-19.173144102096558, 6.2457966804504395 -5.374290347099304, 1.0167576372623444 l-2.178766429424286, 1.0167576372623444 -4.502783715724945, 1.1620087176561356 l-0.726255476474762, 0.4357532784342766 0.5810043588280678, 1.452510952949524 l1.0167576372623444, 0.5810043588280678 2.178766429424286, 0.8715065568685532 l4.212281703948975, 0.14525108970701694 5.08378803730011, -0.8715065568685532 l2.905021905899048, -1.1620087176561356 11.76533818244934, -7.698307633399963 l7.1173036098480225, -3.4860262274742126 " fill="none" stroke="black" stroke-width="1" /></svg>