<?xml version="1.0" encoding="utf-8" ?>
<svg baseProfile="full" height="78.26801305636764" version="1.1" width="99.91042512468994" xmlns="http://www.w3.org/2000/svg" xmlns:ev="http://www.w3.org/2001/xml-events" xmlns:xlink="http://www.w3.org/1999/xlink"><defs /><rect fill="white" height="78.26801305636764" width="99.91042512468994" x="0" y="0" /><path d="M45.67030466161668, 18.653602581471205 m-3.1955239176750183, -0.14525108970701694 l-7.26255476474762, 2.4692685902118683 -6.536298990249634, 4.067030549049377 l-3.1955239176750183, 3.1955239176750183 -3.050273060798645, 5.519541501998901 l-0.4357532784342766, 4.067030549049377 0.5810043588280678, 5.08378803730011 l1.7430131137371063, 4.648034870624542 1.1620087176561356, 2.6145195960998535 l3.9217793941497803, 4.212281703948975 7.553057074546814, 4.067030549049377 l9.150818586349487, 2.4692685902118683 3.776528537273407, 0.5810043588280678 l6.2457966804504395, 0.726255476474762 6.972052454948425, -0.14525108970701694 l8.715065717697144, -1.5977619588375092 7.407805919647217, -2.4692685902118683 l2.7597707509994507, -2.178766429424286 3.4860262274742126, -3.776528537273407 l2.6145195960998535, -5.229039192199707 0.5810043588280678, -5.08378803730011 l-1.0167576372623444, -4.212281703948975 -2.4692685902118683, -5.229039192199707 l-2.905021905899048, -3.63127738237381 -5.08378803730011, -4.502783715724945 l-5.955294966697693, -3.3407750725746155 -4.938537180423737, -2.0335152745246887 l-4.502783715724945, -1.1620087176561356 -6.972052454948425, -0.8715065568685532 l-7.553057074546814, 0.2905021794140339 -6.972052454948425, 1.0167576372623444 l-6.2457966804504395, 1.7430131137371063 m10.603330135345459, 37.91053533554077 l0.0, 2.6145195960998535 1.0167576372623444, 6.2457966804504395 l2.6145195960998535, -7.1173036098480225 0.726255476474762, -0.726255476474762 l1.0167576372623444, 0.4357532784342766 1.3072597980499268, 1.452510952949524 l4.793286025524139, 9.877074360847473 1.1620087176561356, 1.5977619588375092 l1.7430131137371063, 1.1620087176561356 1.1620087176561356, 0.0 l3.1955239176750183, -2.6145195960998535 4.938537180423737, -6.972052454948425 l2.178766429424286, -2.324017435312271 1.3072597980499268, 1.3072597980499268 l2.4692685902118683, 7.1173036098480225 1.0167576372623444, 0.2905021794140339 l1.8882642686367035, -1.1620087176561356 3.9217793941497803, -5.519541501998901 l1.1620087176561356, 1.452510952949524 1.3072597980499268, 3.9217793941497803 l0.8715065568685532, 0.726255476474762 1.3072597980499268, -0.8715065568685532 l1.5977619588375092, -3.63127738237381 2.0335152745246887, -11.620087623596191 l1.0167576372623444, 0.5810043588280678 1.5977619588375092, 3.9217793941497803 l0.726255476474762, 0.4357532784342766 1.3072597980499268, -2.0335152745246887 l0.8715065568685532, -5.229039192199707 -1.0167576372623444, -10.02232551574707 l-1.5977619588375092, -6.10054612159729 -1.0167576372623444, -1.7430131137371063 l-0.726255476474762, -0.14525108970701694 -0.726255476474762, 0.14525108970701694 l-0.726255476474762, 1.8882642686367035 1.7430131137371063, 2.178766429424286 l1.8882642686367035, 0.726255476474762 1.0167576372623444, -0.4357532784342766 l0.4357532784342766, -1.1620087176561356 -0.14525108970701694, -1.5977619588375092 l-2.324017435312271, -5.08378803730011 -2.6145195960998535, -3.776528537273407 l-3.4860262274742126, -3.9217793941497803 -5.229039192199707, -3.3407750725746155 l-3.63127738237381, -1.1620087176561356 -2.6145195960998535, 0.0 l1.5977619588375092, -2.324017435312271 -1.7430131137371063, -0.4357532784342766 l-6.2457966804504395, 2.4692685902118683 -4.793286025524139, 2.7597707509994507 l-1.7430131137371063, 0.2905021794140339 -0.5810043588280678, -3.4860262274742126 l0.8715065568685532, -10.16757607460022 -0.726255476474762, -1.3072597980499268 l-0.726255476474762, -0.2905021794140339 -2.178766429424286, 0.0 l-3.4860262274742126, 1.3072597980499268 -7.407805919647217, 6.2457966804504395 l-1.1620087176561356, -1.3072597980499268 -0.8715065568685532, -3.63127738237381 l-1.3072597980499268, -1.3072597980499268 -1.8882642686367035, -0.2905021794140339 l-1.1620087176561356, 0.2905021794140339 -4.793286025524139, 2.324017435312271 l-4.648034870624542, 4.793286025524139 -2.6145195960998535, -6.391047835350037 l-1.452510952949524, -1.452510952949524 -1.1620087176561356, 0.0 l-1.3072597980499268, 0.5810043588280678 -2.905021905899048, 3.3407750725746155 l-1.7430131137371063, 6.2457966804504395 -0.726255476474762, 7.26255476474762 l-1.0167576372623444, 0.2905021794140339 -4.357532858848572, -2.0335152745246887 l-2.178766429424286, -0.2905021794140339 -3.9217793941497803, 0.726255476474762 l-1.5977619588375092, 2.0335152745246887 -0.14525108970701694, 1.7430131137371063 l1.1620087176561356, 2.324017435312271 3.776528537273407, 3.050273060798645 l2.905021905899048, 1.0167576372623444 4.938537180423737, 0.726255476474762 l4.502783715724945, -0.14525108970701694 3.776528537273407, -1.0167576372623444 l-5.519541501998901, 2.7597707509994507 -6.536298990249634, 4.793286025524139 l-3.1955239176750183, 3.050273060798645 -4.067030549049377, 4.502783715724945 l-2.6145195960998535, 4.067030549049377 -0.14525108970701694, 1.7430131137371063 l0.5810043588280678, 1.1620087176561356 4.648034870624542, 2.6145195960998535 l5.955294966697693, 2.0335152745246887 0.0, 0.726255476474762 l-1.7430131137371063, 0.4357532784342766 7.1173036098480225, 4.357532858848572 l3.050273060798645, 3.050273060798645 2.324017435312271, 3.3407750725746155 l1.452510952949524, 1.1620087176561356 1.0167576372623444, -3.63127738237381 l-0.2905021794140339, -5.229039192199707 0.8715065568685532, -4.357532858848572 l2.178766429424286, -3.4860262274742126 1.3072597980499268, -1.3072597980499268 l1.8882642686367035, -0.726255476474762 0.8715065568685532, 1.1620087176561356 l1.3072597980499268, 4.648034870624542 1.0167576372623444, 8.279312252998352 l1.0167576372623444, 3.3407750725746155 m2.324017435312271, -40.67030429840088 l-1.452510952949524, 0.726255476474762 -2.905021905899048, 2.7597707509994507 l-2.324017435312271, 4.502783715724945 -0.5810043588280678, 2.324017435312271 l0.14525108970701694, 3.3407750725746155 1.0167576372623444, 1.5977619588375092 l1.8882642686367035, 0.4357532784342766 5.08378803730011, -2.0335152745246887 l3.1955239176750183, -3.3407750725746155 1.3072597980499268, -3.050273060798645 l0.726255476474762, -4.212281703948975 -0.5810043588280678, -2.0335152745246887 l-1.7430131137371063, -1.7430131137371063 -1.0167576372623444, -0.2905021794140339 l-3.3407750725746155, -0.4357532784342766 -2.905021905899048, 0.5810043588280678 l-1.0167576372623444, 0.8715065568685532 0.4357532784342766, 1.0167576372623444 m25.99994659423828, 2.178766429424286 l-1.3072597980499268, 2.7597707509994507 -0.14525108970701694, 2.324017435312271 l1.0167576372623444, 2.4692685902118683 2.324017435312271, 2.178766429424286 l1.5977619588375092, 0.726255476474762 1.5977619588375092, 0.0 l1.8882642686367035, -1.1620087176561356 2.0335152745246887, -1.5977619588375092 l1.0167576372623444, -1.7430131137371063 0.2905021794140339, -3.1955239176750183 l-1.8882642686367035, -4.067030549049377 -3.4860262274742126, -2.324017435312271 l-3.776528537273407, -0.5810043588280678 -5.6647926568984985, 0.8715065568685532 l-2.6145195960998535, 1.1620087176561356 -1.1620087176561356, 0.8715065568685532 l-0.5810043588280678, 1.1620087176561356 m-9.586572051048279, 14.08935546875 l2.4692685902118683, 4.212281703948975 2.7597707509994507, 3.050273060798645 l2.0335152745246887, 1.1620087176561356 2.0335152745246887, 0.14525108970701694 l1.452510952949524, -1.0167576372623444 1.8882642686367035, -2.324017435312271 l1.0167576372623444, -2.6145195960998535 0.8715065568685532, -3.4860262274742126 l-0.14525108970701694, -4.793286025524139 m-10.16757607460022, -1.5977619588375092 l0.5810043588280678, 7.407805919647217 1.452510952949524, 4.648034870624542 m-2.178766429424286, -12.927347421646118 l-0.726255476474762, -0.8715065568685532 " fill="none" stroke="black" stroke-width="1" /></svg>