<?xml version="1.0" encoding="utf-8" ?>
<svg baseProfile="full" height="49.79879857040942" version="1.1" width="52.558570047840476" xmlns="http://www.w3.org/2000/svg" xmlns:ev="http://www.w3.org/2001/xml-events" xmlns:xlink="http://www.w3.org/1999/xlink"><defs /><rect fill="white" height="49.79879857040942" width="52.558570047840476" x="0" y="0" /><path d="M28.821179205551744, 8.631277233362198 m-1.7430131137371063, -1.0167576372623444 l-8.42456340789795, -2.6145195960998535 -4.793286025524139, 0.0 l-4.067030549049377, 3.3407750725746155 -3.050273060798645, 4.502783715724945 l-1.5977619588375092, 5.519541501998901 -0.14525108970701694, 3.63127738237381 l4.067030549049377, 3.9217793941497803 8.279312252998352, 2.6145195960998535 l11.910589933395386, -0.2905021794140339 0.2905021794140339, -3.776528537273407 m-0.8715065568685532, -16.558624505996704 l5.374290347099304, 0.14525108970701694 2.7597707509994507, -0.8715065568685532 l-4.502783715724945, 3.4860262274742126 -2.6145195960998535, 2.7597707509994507 l1.0167576372623444, 0.0 6.826801300048828, -2.4692685902118683 l-9.00556743144989, 5.229039192199707 1.7430131137371063, 1.0167576372623444 l5.519541501998901, 0.2905021794140339 8.134061098098755, 1.452510952949524 l0.0, 0.726255476474762 -1.0167576372623444, 1.1620087176561356 l-7.26255476474762, 1.5977619588375092 -2.7597707509994507, 1.1620087176561356 l0.5810043588280678, 0.8715065568685532 12.782095670700073, 3.63127738237381 l1.1620087176561356, 0.4357532784342766 0.14525108970701694, 1.0167576372623444 l-5.374290347099304, 1.1620087176561356 -6.536298990249634, 0.0 l-3.050273060798645, 0.4357532784342766 0.8715065568685532, 0.726255476474762 l4.502783715724945, 1.5977619588375092 0.14525108970701694, 1.0167576372623444 l0.0, 2.6145195960998535 -1.3072597980499268, 2.7597707509994507 l-3.050273060798645, 4.067030549049377 -1.1620087176561356, 0.8715065568685532 l-2.4692685902118683, -7.8435587882995605 -1.0167576372623444, -8.134061098098755 l-0.4357532784342766, -0.8715065568685532 -0.726255476474762, 1.3072597980499268 l0.0, 6.536298990249634 0.4357532784342766, 1.5977619588375092 l0.726255476474762, -9.00556743144989 0.2905021794140339, -0.8715065568685532 l0.726255476474762, 0.14525108970701694 0.5810043588280678, 9.877074360847473 l0.5810043588280678, 2.6145195960998535 1.8882642686367035, -10.748580694198608 l1.0167576372623444, -9.441320896148682 -0.4357532784342766, 4.357532858848572 l-2.4692685902118683, 8.715065717697144 1.0167576372623444, -4.793286025524139 l1.7430131137371063, -4.212281703948975 3.776528537273407, -5.6647926568984985 l0.726255476474762, -0.2905021794140339 0.2905021794140339, 1.0167576372623444 l-0.14525108970701694, 5.229039192199707 -3.63127738237381, 4.357532858848572 l-1.7430131137371063, 0.8715065568685532 -0.5810043588280678, -1.3072597980499268 l0.0, -2.324017435312271 0.2905021794140339, -1.5977619588375092 l1.7430131137371063, -3.3407750725746155 5.6647926568984985, -6.826801300048828 l-0.2905021794140339, 1.7430131137371063 -0.726255476474762, 1.1620087176561356 l-3.9217793941497803, 3.4860262274742126 -3.3407750725746155, 1.7430131137371063 l-3.63127738237381, 1.0167576372623444 0.5810043588280678, -3.63127738237381 l5.955294966697693, -7.988809943199158 " fill="none" stroke="black" stroke-width="1" /></svg>