<?xml version="1.0" encoding="utf-8" ?>
<svg baseProfile="full" height="59.8211242351681" version="1.1" width="82.33504422008991" xmlns="http://www.w3.org/2000/svg" xmlns:ev="http://www.w3.org/2001/xml-events" xmlns:xlink="http://www.w3.org/1999/xlink"><defs /><rect fill="white" height="59.8211242351681" width="82.33504422008991" x="0" y="0" /><path d="M28.240175154060125, 21.268121348693967 m-2.324017435312271, 0.14525108970701694 l-1.1620087176561356, 0.726255476474762 -1.452510952949524, 1.7430131137371063 l-0.4357532784342766, 1.5977619588375092 0.14525108970701694, 9.731823205947876 l1.1620087176561356, 2.905021905899048 2.0335152745246887, 2.6145195960998535 l1.452510952949524, 0.5810043588280678 9.150818586349487, 0.0 l1.5977619588375092, -0.4357532784342766 1.5977619588375092, -1.1620087176561356 l2.324017435312271, -3.3407750725746155 0.8715065568685532, -2.4692685902118683 l-0.8715065568685532, -6.10054612159729 -3.4860262274742126, -3.63127738237381 l-1.452510952949524, -1.0167576372623444 -2.324017435312271, -0.726255476474762 l-5.6647926568984985, -0.2905021794140339 m-0.2905021794140339, 6.826801300048828 l0.0, 0.0 m1.3072597980499268, -0.2905021794140339 l-0.2905021794140339, -0.2905021794140339 m5.6647926568984985, 1.452510952949524 l0.14525108970701694, -0.726255476474762 -0.2905021794140339, 0.14525108970701694 m-3.63127738237381, 5.6647926568984985 l0.2905021794140339, 3.776528537273407 -0.726255476474762, 0.2905021794140339 l-2.324017435312271, -2.178766429424286 m2.7597707509994507, 0.8715065568685532 l1.3072597980499268, 1.1620087176561356 1.452510952949524, 0.2905021794140339 l1.3072597980499268, -1.452510952949524 0.8715065568685532, -2.6145195960998535 m-16.26812219619751, -21.351909637451172 l0.4357532784342766, -0.726255476474762 2.4692685902118683, -1.1620087176561356 l9.296069741249084, -2.324017435312271 16.413373947143555, -2.324017435312271 l5.374290347099304, 0.0 0.726255476474762, 1.3072597980499268 l-0.4357532784342766, 9.731823205947876 1.1620087176561356, 1.452510952949524 l4.938537180423737, 1.7430131137371063 16.26812219619751, 0.5810043588280678 l-5.08378803730011, 5.374290347099304 -2.905021905899048, 7.553057074546814 l-10.603330135345459, 11.474835872650146 -8.42456340789795, 1.5977619588375092 l-22.078166007995605, 6.826801300048828 -1.1620087176561356, -0.4357532784342766 l-5.955294966697693, -0.4357532784342766 -7.8435587882995605, -0.14525108970701694 l-2.178766429424286, -7.698307633399963 -1.1620087176561356, -7.988809943199158 l-0.8715065568685532, -2.7597707509994507 -4.067030549049377, -8.279312252998352 l0.14525108970701694, -2.6145195960998535 1.5977619588375092, -1.452510952949524 l7.553057074546814, -4.793286025524139 1.3072597980499268, -1.452510952949524 l0.2905021794140339, -2.4692685902118683 9.586572051048279, -6.681550145149231 l0.726255476474762, -1.8882642686367035 -0.726255476474762, -0.726255476474762 l-0.726255476474762, 0.0 0.0, 1.1620087176561356 m13.94410490989685, 16.703875064849854 l0.2905021794140339, -1.5977619588375092 1.1620087176561356, -1.5977619588375092 l0.726255476474762, 0.0 0.5810043588280678, 1.1620087176561356 l0.14525108970701694, 3.1955239176750183 -0.4357532784342766, 0.5810043588280678 m-14.960862398147583, -2.7597707509994507 l0.0, -0.726255476474762 -1.452510952949524, -1.8882642686367035 l-0.726255476474762, -0.5810043588280678 -1.452510952949524, 0.0 l-0.726255476474762, 0.4357532784342766 -1.0167576372623444, 2.7597707509994507 l0.0, 1.8882642686367035 1.7430131137371063, 0.14525108970701694 l0.726255476474762, -0.2905021794140339 0.14525108970701694, -0.5810043588280678 m8.279312252998352, 8.279312252998352 l-0.2905021794140339, 2.324017435312271 0.726255476474762, 0.0 l1.0167576372623444, -2.324017435312271 0.0, -0.8715065568685532 l-0.726255476474762, -0.2905021794140339 -0.8715065568685532, 1.8882642686367035 l0.14525108970701694, 1.1620087176561356 m-5.6647926568984985, -20.480403900146484 l2.905021905899048, -0.8715065568685532 3.4860262274742126, -2.324017435312271 l4.793286025524139, -2.324017435312271 5.08378803730011, -1.452510952949524 l1.0167576372623444, 0.726255476474762 0.14525108970701694, 3.776528537273407 l-0.726255476474762, 2.0335152745246887 -9.00556743144989, 11.620087623596191 l-0.5810043588280678, 1.3072597980499268 1.0167576372623444, 0.5810043588280678 l1.7430131137371063, 0.0 2.324017435312271, -0.8715065568685532 l0.14525108970701694, 3.63127738237381 0.726255476474762, 1.1620087176561356 l1.5977619588375092, 0.5810043588280678 8.279312252998352, 0.726255476474762 l10.16757607460022, 0.0 10.458078384399414, -1.1620087176561356 l-6.972052454948425, 3.9217793941497803 -0.726255476474762, 0.8715065568685532 l-0.4357532784342766, 2.0335152745246887 -3.050273060798645, 2.0335152745246887 l-10.16757607460022, 5.08378803730011 -7.988809943199158, 3.3407750725746155 l-2.905021905899048, 0.726255476474762 -0.8715065568685532, -0.5810043588280678 l-6.2457966804504395, 0.14525108970701694 -15.687117576599121, 1.8882642686367035 l-9.441320896148682, 0.5810043588280678 4.502783715724945, -4.938537180423737 l0.726255476474762, -1.452510952949524 -0.4357532784342766, -0.8715065568685532 l-4.502783715724945, -0.4357532784342766 0.14525108970701694, -0.726255476474762 l5.810043811798096, -5.374290347099304 4.502783715724945, -5.229039192199707 l1.8882642686367035, -4.357532858848572 -0.14525108970701694, -3.9217793941497803 l5.519541501998901, -6.10054612159729 0.14525108970701694, -0.8715065568685532 l-1.0167576372623444, -0.726255476474762 -10.312827825546265, 0.14525108970701694 l2.6145195960998535, -1.1620087176561356 4.938537180423737, -3.4860262274742126 l3.1955239176750183, 0.5810043588280678 19.463646411895752, 0.0 l7.8435587882995605, -0.8715065568685532 1.3072597980499268, 0.4357532784342766 l13.217849731445312, 0.14525108970701694 -0.8715065568685532, 2.0335152745246887 l-4.938537180423737, 4.357532858848572 -3.050273060798645, 5.810043811798096 l-0.4357532784342766, 2.324017435312271 0.4357532784342766, 3.776528537273407 l-0.5810043588280678, 2.0335152745246887 -3.4860262274742126, 5.08378803730011 l-0.2905021794140339, 1.1620087176561356 0.2905021794140339, 1.1620087176561356 l2.0335152745246887, 0.726255476474762 0.14525108970701694, 0.8715065568685532 l-0.8715065568685532, 1.0167576372623444 -2.905021905899048, 1.5977619588375092 l-10.16757607460022, 4.938537180423737 0.5810043588280678, -2.178766429424286 l-1.8882642686367035, 0.0 -3.050273060798645, 0.4357532784342766 l-3.1955239176750183, 1.3072597980499268 -5.810043811798096, 1.3072597980499268 l-10.603330135345459, 1.3072597980499268 -0.2905021794140339, -1.5977619588375092 l0.5810043588280678, -1.1620087176561356 0.0, -1.452510952949524 l-1.452510952949524, -2.7597707509994507 -0.5810043588280678, -9.00556743144989 l-0.2905021794140339, -1.0167576372623444 -1.8882642686367035, -1.452510952949524 l0.0, -1.1620087176561356 2.7597707509994507, -6.972052454948425 l0.0, -2.178766429424286 " fill="none" stroke="black" stroke-width="1" /></svg>