<?xml version="1.0" encoding="utf-8" ?>
<svg baseProfile="full" height="78.55851460248232" version="1.1" width="79.57527312450111" xmlns="http://www.w3.org/2000/svg" xmlns:ev="http://www.w3.org/2001/xml-events" xmlns:xlink="http://www.w3.org/1999/xlink"><defs /><rect fill="white" height="78.55851460248232" width="79.57527312450111" x="0" y="0" /><path d="M31.871452257037163, 41.02227080613375 m5.229039192199707, 0.0 l-0.14525108970701694, -1.452510952949524 -3.776528537273407, -0.2905021794140339 l-0.14525108970701694, 0.726255476474762 0.726255476474762, 0.4357532784342766 l1.452510952949524, 0.0 -1.7430131137371063, -0.4357532784342766 l3.050273060798645, 0.2905021794140339 -1.5977619588375092, -0.2905021794140339 m-0.14525108970701694, 1.452510952949524 l-0.14525108970701694, 5.229039192199707 -1.8882642686367035, 0.8715065568685532 l-2.324017435312271, 0.0 -1.3072597980499268, -1.0167576372623444 m6.2457966804504395, -3.1955239176750183 l0.14525108970701694, 2.324017435312271 1.0167576372623444, 1.3072597980499268 l1.5977619588375092, 0.4357532784342766 5.229039192199707, 0.0 l0.726255476474762, -0.5810043588280678 m-13.072597980499268, -16.12287163734436 l0.4357532784342766, 1.452510952949524 2.178766429424286, 0.4357532784342766 l0.0, -2.178766429424286 -1.452510952949524, -0.726255476474762 l0.0, 1.8882642686367035 m6.972052454948425, -0.2905021794140339 l0.8715065568685532, 1.7430131137371063 1.452510952949524, 0.14525108970701694 l0.726255476474762, -0.4357532784342766 0.0, -2.178766429424286 l-0.4357532784342766, -1.0167576372623444 -1.452510952949524, -0.5810043588280678 m0.5810043588280678, 3.4860262274742126 l0.726255476474762, -0.726255476474762 0.0, -0.726255476474762 m-8.715065717697144, 0.4357532784342766 l0.0, 0.726255476474762 0.2905021794140339, -0.4357532784342766 m-1.7430131137371063, 15.832369327545166 l0.5810043588280678, 0.726255476474762 0.2905021794140339, 1.7430131137371063 l0.726255476474762, -2.324017435312271 m6.10054612159729, 0.5810043588280678 l0.8715065568685532, 1.452510952949524 0.2905021794140339, -1.8882642686367035 m-14.379857778549194, -10.748580694198608 l0.4357532784342766, -5.374290347099304 1.452510952949524, -4.357532858848572 l2.178766429424286, -2.324017435312271 4.067030549049377, -1.3072597980499268 l8.715065717697144, -0.14525108970701694 3.1955239176750183, 1.0167576372623444 l2.324017435312271, 2.324017435312271 0.4357532784342766, 2.324017435312271 l0.0, 19.754148721694946 -3.3407750725746155, 3.776528537273407 l-5.955294966697693, 2.6145195960998535 -1.8882642686367035, 0.5810043588280678 l-7.1173036098480225, 0.0 -4.357532858848572, -2.6145195960998535 l-1.452510952949524, -1.8882642686367035 -1.0167576372623444, -3.4860262274742126 l0.0, -6.681550145149231 m8.86031687259674, -31.95523977279663 l-2.905021905899048, -1.7430131137371063 -2.4692685902118683, -0.5810043588280678 l-4.793286025524139, 0.0 -3.3407750725746155, 2.0335152745246887 l-0.5810043588280678, 1.1620087176561356 0.14525108970701694, 0.726255476474762 l6.2457966804504395, 2.4692685902118683 2.324017435312271, 0.4357532784342766 l-0.2905021794140339, 0.726255476474762 -15.977619886398315, 5.519541501998901 l-0.8715065568685532, 1.0167576372623444 0.0, 2.178766429424286 l0.726255476474762, 0.726255476474762 3.9217793941497803, 1.3072597980499268 l0.2905021794140339, 0.8715065568685532 -2.324017435312271, 2.178766429424286 l-7.553057074546814, 11.184333562850952 18.301637172698975, 20.770905017852783 l-3.63127738237381, 3.4860262274742126 0.5810043588280678, 1.0167576372623444 l0.0, 2.4692685902118683 1.0167576372623444, 3.3407750725746155 l3.4860262274742126, 1.7430131137371063 6.536298990249634, 1.1620087176561356 l5.229039192199707, -1.3072597980499268 2.324017435312271, -1.5977619588375092 l-0.726255476474762, 0.0 2.178766429424286, -0.5810043588280678 l4.502783715724945, -3.4860262274742126 -0.14525108970701694, 1.7430131137371063 l2.324017435312271, 1.1620087176561356 7.407805919647217, -0.5810043588280678 l15.106114149093628, -5.229039192199707 2.4692685902118683, -1.5977619588375092 l0.8715065568685532, -1.5977619588375092 -3.4860262274742126, -0.5810043588280678 l3.776528537273407, -6.391047835350037 1.452510952949524, -4.067030549049377 l0.0, -2.178766429424286 -2.324017435312271, -5.08378803730011 l-1.8882642686367035, -1.8882642686367035 -9.586572051048279, -3.9217793941497803 l-2.0335152745246887, -1.3072597980499268 -0.14525108970701694, -3.9217793941497803 l1.3072597980499268, -5.229039192199707 -0.2905021794140339, -2.178766429424286 l-1.3072597980499268, -1.7430131137371063 -5.810043811798096, -4.212281703948975 l0.0, -2.7597707509994507 -1.5977619588375092, -2.905021905899048 l-0.8715065568685532, -0.726255476474762 0.14525108970701694, -1.3072597980499268 l1.0167576372623444, -1.5977619588375092 -0.14525108970701694, -1.0167576372623444 l-6.391047835350037, -2.4692685902118683 -8.134061098098755, 2.324017435312271 " fill="none" stroke="black" stroke-width="1" /></svg>