<?xml version="1.0" encoding="utf-8" ?>
<svg baseProfile="full" height="81.75403985194862" version="1.1" width="88.14508660696447" xmlns="http://www.w3.org/2000/svg" xmlns:ev="http://www.w3.org/2001/xml-events" xmlns:xlink="http://www.w3.org/1999/xlink"><defs /><rect fill="white" height="81.75403985194862" width="88.14508660696447" x="0" y="0" /><path d="M36.80998952127993, 33.323963563889265 m-0.2905021794140339, 0.726255476474762 l0.8715065568685532, 0.4357532784342766 0.4357532784342766, -1.5977619588375092 l-0.726255476474762, -0.4357532784342766 -0.726255476474762, 1.0167576372623444 m14.379857778549194, -0.726255476474762 l-0.726255476474762, 0.0 -0.14525108970701694, 1.1620087176561356 l0.0, 1.0167576372623444 0.726255476474762, 0.2905021794140339 l0.726255476474762, -0.5810043588280678 0.2905021794140339, -1.7430131137371063 l-1.5977619588375092, -0.4357532784342766 -0.4357532784342766, 0.5810043588280678 m-6.826801300048828, 7.1173036098480225 l-0.8715065568685532, 0.0 1.0167576372623444, 1.3072597980499268 l0.2905021794140339, -0.726255476474762 -1.3072597980499268, 3.3407750725746155 l-2.0335152745246887, 2.324017435312271 -3.3407750725746155, 1.3072597980499268 l1.452510952949524, -1.7430131137371063 4.212281703948975, -2.6145195960998535 l1.0167576372623444, -2.7597707509994507 0.8715065568685532, 3.63127738237381 l1.5977619588375092, 1.7430131137371063 2.6145195960998535, 1.5977619588375092 l-0.726255476474762, -1.1620087176561356 -4.212281703948975, -3.776528537273407 l-1.3072597980499268, -2.0335152745246887 m11.039083003997803, -12.636845111846924 l-0.4357532784342766, -0.726255476474762 -2.0335152745246887, -1.1620087176561356 l-4.067030549049377, -1.7430131137371063 -5.519541501998901, -0.2905021794140339 l-5.229039192199707, 0.4357532784342766 -1.8882642686367035, 0.5810043588280678 l-3.3407750725746155, 2.178766429424286 -1.8882642686367035, 1.7430131137371063 l-1.1620087176561356, 2.0335152745246887 -2.0335152745246887, 4.067030549049377 l-1.452510952949524, 4.357532858848572 -0.4357532784342766, 7.698307633399963 l1.1620087176561356, 5.810043811798096 3.1955239176750183, 5.374290347099304 l2.6145195960998535, 2.4692685902118683 5.519541501998901, 3.3407750725746155 l4.793286025524139, 0.8715065568685532 6.2457966804504395, 0.14525108970701694 l5.6647926568984985, -2.178766429424286 2.324017435312271, -1.8882642686367035 l3.4860262274742126, -4.067030549049377 3.4860262274742126, -5.374290347099304 l1.5977619588375092, -5.08378803730011 0.2905021794140339, -4.357532858848572 l-0.5810043588280678, -5.229039192199707 -4.212281703948975, -6.972052454948425 l-4.357532858848572, -4.067030549049377 -2.905021905899048, -1.1620087176561356 m-33.55300188064575, -6.972052454948425 l-4.648034870624542, 0.0 -3.1955239176750183, 0.5810043588280678 l-4.357532858848572, 2.178766429424286 -1.1620087176561356, 1.5977619588375092 l0.4357532784342766, 0.8715065568685532 5.229039192199707, 3.4860262274742126 l6.536298990249634, 2.324017435312271 -4.212281703948975, 2.6145195960998535 l-2.178766429424286, 2.0335152745246887 -1.452510952949524, 2.178766429424286 l-1.0167576372623444, 2.4692685902118683 -0.2905021794140339, 6.972052454948425 l1.0167576372623444, 2.0335152745246887 4.793286025524139, 5.6647926568984985 l0.2905021794140339, 0.8715065568685532 0.0, 3.3407750725746155 l-1.0167576372623444, 5.519541501998901 -0.2905021794140339, 5.229039192199707 l2.4692685902118683, 0.4357532784342766 5.810043811798096, -0.726255476474762 l0.2905021794140339, 2.324017435312271 -0.5810043588280678, 5.810043811798096 l1.0167576372623444, 0.4357532784342766 5.374290347099304, 0.0 l6.2457966804504395, -0.5810043588280678 4.648034870624542, -1.3072597980499268 l9.731823205947876, -4.212281703948975 3.3407750725746155, 4.648034870624542 l1.5977619588375092, 1.0167576372623444 4.938537180423737, 1.1620087176561356 l10.16757607460022, 0.0 0.0, -4.357532858848572 l2.4692685902118683, -0.726255476474762 2.4692685902118683, 0.0 l4.793286025524139, 1.1620087176561356 3.4860262274742126, 0.14525108970701694 l0.8715065568685532, -0.4357532784342766 0.5810043588280678, -1.0167576372623444 l0.0, -3.4860262274742126 -2.324017435312271, -4.357532858848572 l-2.905021905899048, -0.726255476474762 -1.0167576372623444, -0.8715065568685532 l0.0, -1.3072597980499268 0.14525108970701694, -2.0335152745246887 l0.8715065568685532, -2.4692685902118683 4.357532858848572, -10.458078384399414 l1.1620087176561356, -9.441320896148682 0.2905021794140339, -7.553057074546814 l-1.5977619588375092, -1.0167576372623444 -4.938537180423737, -0.14525108970701694 l-0.2905021794140339, -1.0167576372623444 1.0167576372623444, -7.407805919647217 l0.0, -3.3407750725746155 -1.0167576372623444, -1.7430131137371063 l-1.3072597980499268, -0.8715065568685532 -2.0335152745246887, -0.2905021794140339 l-9.731823205947876, -0.14525108970701694 -0.5810043588280678, -1.7430131137371063 l0.5810043588280678, -5.519541501998901 -0.726255476474762, -0.5810043588280678 l-2.0335152745246887, 0.0 -4.938537180423737, 1.8882642686367035 l-8.134061098098755, 5.519541501998901 -1.8882642686367035, -1.7430131137371063 l-1.7430131137371063, -0.2905021794140339 -7.1173036098480225, 0.4357532784342766 l-14.234607219696045, 5.810043811798096 -0.726255476474762, 0.0 l0.4357532784342766, -3.776528537273407 -0.8715065568685532, 0.14525108970701694 l-3.63127738237381, 3.1955239176750183 -1.0167576372623444, 2.4692685902118683 " fill="none" stroke="black" stroke-width="1" /></svg>