<?xml version="1.0" encoding="utf-8" ?>
<svg baseProfile="full" height="50.96080793067813" version="1.1" width="62.14514136314392" xmlns="http://www.w3.org/2000/svg" xmlns:ev="http://www.w3.org/2001/xml-events" xmlns:xlink="http://www.w3.org/1999/xlink"><defs /><rect fill="white" height="50.96080793067813" width="62.14514136314392" x="0" y="0" /><path d="M13.569814292714, 7.905021877959371 m-4.067030549049377, 2.324017435312271 l-1.1620087176561356, 2.0335152745246887 0.0, 0.8715065568685532 l0.8715065568685532, 0.2905021794140339 0.14525108970701694, 0.726255476474762 l-3.9217793941497803, 3.3407750725746155 -0.4357532784342766, 1.5977619588375092 l0.5810043588280678, 1.5977619588375092 5.229039192199707, 3.4860262274742126 l-3.1955239176750183, 1.8882642686367035 -0.4357532784342766, 1.1620087176561356 l0.4357532784342766, 1.8882642686367035 1.3072597980499268, 1.7430131137371063 l3.1955239176750183, 2.4692685902118683 -0.8715065568685532, 0.14525108970701694 l-0.4357532784342766, 0.8715065568685532 0.0, 2.4692685902118683 l2.0335152745246887, 1.5977619588375092 5.6647926568984985, 2.7597707509994507 l-0.4357532784342766, 1.0167576372623444 1.0167576372623444, 1.0167576372623444 l5.6647926568984985, 1.1620087176561356 4.212281703948975, 0.14525108970701694 l0.726255476474762, 0.4357532784342766 4.357532858848572, 0.14525108970701694 l5.08378803730011, 0.8715065568685532 1.5977619588375092, -1.1620087176561356 l4.938537180423737, -5.374290347099304 0.2905021794140339, -0.8715065568685532 l4.067030549049377, -2.178766429424286 -1.0167576372623444, -2.324017435312271 l0.8715065568685532, -1.1620087176561356 4.502783715724945, -2.324017435312271 l1.5977619588375092, -1.8882642686367035 0.14525108970701694, -1.7430131137371063 l-1.7430131137371063, -2.324017435312271 -7.26255476474762, -6.10054612159729 l7.698307633399963, -0.4357532784342766 2.178766429424286, -0.726255476474762 l0.14525108970701694, -2.324017435312271 -1.0167576372623444, -1.1620087176561356 l-2.7597707509994507, -2.178766429424286 -3.3407750725746155, -1.5977619588375092 l-0.8715065568685532, -0.2905021794140339 -0.726255476474762, 0.4357532784342766 l-0.14525108970701694, 1.0167576372623444 -0.8715065568685532, -1.5977619588375092 l-8.134061098098755, -0.4357532784342766 -3.776528537273407, 1.5977619588375092 l-0.14525108970701694, 0.726255476474762 -11.184333562850952, -6.536298990249634 l-8.279312252998352, 3.4860262274742126 -2.7597707509994507, 1.7430131137371063 l-2.324017435312271, 2.6145195960998535 0.8715065568685532, 0.0 l-1.1620087176561356, 0.14525108970701694 m10.603330135345459, 2.324017435312271 l-0.14525108970701694, 8.134061098098755 0.726255476474762, 0.14525108970701694 l2.0335152745246887, -2.324017435312271 0.14525108970701694, -4.067030549049377 l-0.4357532784342766, -1.5977619588375092 -0.5810043588280678, -0.4357532784342766 m7.553057074546814, 3.3407750725746155 l0.14525108970701694, 6.536298990249634 0.4357532784342766, 1.7430131137371063 l0.726255476474762, 0.14525108970701694 1.7430131137371063, -2.178766429424286 l0.14525108970701694, -4.938537180423737 -0.14525108970701694, -0.8715065568685532 l-2.4692685902118683, -0.5810043588280678 m-1.5977619588375092, 11.184333562850952 l-8.42456340789795, 0.8715065568685532 -2.7597707509994507, 0.726255476474762 l0.14525108970701694, 0.8715065568685532 3.9217793941497803, 0.5810043588280678 l4.938537180423737, 1.5977619588375092 2.905021905899048, -0.2905021794140339 " fill="none" stroke="black" stroke-width="1" /></svg>