<?xml version="1.0" encoding="utf-8" ?>
<svg baseProfile="full" height="48.927292404696345" version="1.1" width="64.75966203957796" xmlns="http://www.w3.org/2000/svg" xmlns:ev="http://www.w3.org/2001/xml-events" xmlns:xlink="http://www.w3.org/1999/xlink"><defs /><rect fill="white" height="48.927292404696345" width="64.75966203957796" x="0" y="0" /><path d="M18.9441046025604, 6.452509956434369 m-0.2905021794140339, 3.4860262274742126 l-6.2457966804504395, -1.1620087176561356 -0.4357532784342766, 0.726255476474762 l0.4357532784342766, 1.3072597980499268 2.178766429424286, 3.050273060798645 l-1.0167576372623444, 0.4357532784342766 -5.6647926568984985, -1.3072597980499268 l0.0, 1.5977619588375092 0.8715065568685532, 1.7430131137371063 l4.793286025524139, 7.407805919647217 -0.4357532784342766, 0.726255476474762 l-4.067030549049377, 1.452510952949524 -2.905021905899048, 1.7430131137371063 l-1.0167576372623444, 0.726255476474762 -0.14525108970701694, 0.8715065568685532 l6.2457966804504395, 1.0167576372623444 3.050273060798645, 1.0167576372623444 l0.5810043588280678, 0.726255476474762 -0.4357532784342766, 2.905021905899048 l0.5810043588280678, 1.0167576372623444 2.178766429424286, 1.0167576372623444 l3.776528537273407, 0.2905021794140339 0.8715065568685532, -0.726255476474762 l2.7597707509994507, 7.407805919647217 2.7597707509994507, -1.0167576372623444 l9.586572051048279, -7.8435587882995605 1.0167576372623444, 2.905021905899048 l1.5977619588375092, 0.14525108970701694 9.296069741249084, -3.3407750725746155 l10.893832445144653, -2.324017435312271 -4.648034870624542, -2.905021905899048 l-7.407805919647217, -3.1955239176750183 -0.4357532784342766, -0.726255476474762 l0.4357532784342766, -1.452510952949524 1.3072597980499268, -1.7430131137371063 l1.0167576372623444, -0.4357532784342766 0.14525108970701694, -0.726255476474762 l-5.08378803730011, -2.0335152745246887 0.0, -4.067030549049377 l-1.1620087176561356, -1.5977619588375092 -3.050273060798645, -1.8882642686367035 l-11.910589933395386, -3.4860262274742126 0.0, -1.5977619588375092 l-1.452510952949524, 1.3072597980499268 -0.5810043588280678, -1.452510952949524 l-1.452510952949524, -1.452510952949524 -2.6145195960998535, 0.0 l-2.324017435312271, 1.5977619588375092 0.4357532784342766, 0.4357532784342766 m12.34634280204773, 9.731823205947876 l-3.3407750725746155, -0.726255476474762 -3.3407750725746155, 0.2905021794140339 l-1.1620087176561356, 1.8882642686367035 -0.4357532784342766, 1.8882642686367035 l-0.4357532784342766, 5.229039192199707 0.4357532784342766, 0.8715065568685532 l3.776528537273407, 0.14525108970701694 6.826801300048828, -2.178766429424286 l0.8715065568685532, -1.452510952949524 0.5810043588280678, -5.374290347099304 l-1.3072597980499268, -1.3072597980499268 -2.7597707509994507, -0.2905021794140339 m7.553057074546814, -4.793286025524139 l-1.452510952949524, 1.1620087176561356 0.726255476474762, -0.2905021794140339 " fill="none" stroke="black" stroke-width="1" /></svg>