<?xml version="1.0" encoding="utf-8" ?>
<svg baseProfile="full" height="48.78204149194062" version="1.1" width="55.75409300625324" xmlns="http://www.w3.org/2000/svg" xmlns:ev="http://www.w3.org/2001/xml-events" xmlns:xlink="http://www.w3.org/1999/xlink"><defs /><rect fill="white" height="48.78204149194062" width="55.75409300625324" x="0" y="0" /><path d="M18.072597132995725, 14.877074155956507 m2.6145195960998535, -1.5977619588375092 l4.502783715724945, -1.7430131137371063 11.76533818244934, -0.14525108970701694 l1.8882642686367035, 0.726255476474762 2.4692685902118683, 2.0335152745246887 l1.452510952949524, 5.229039192199707 -0.4357532784342766, 3.776528537273407 l-0.8715065568685532, 2.178766429424286 -2.178766429424286, 3.050273060798645 l-6.681550145149231, 3.3407750725746155 -6.391047835350037, 0.14525108970701694 l-4.357532858848572, -1.1620087176561356 -4.357532858848572, -3.3407750725746155 l-2.7597707509994507, -3.63127738237381 -0.8715065568685532, -2.6145195960998535 l-0.2905021794140339, -4.357532858848572 1.0167576372623444, -1.7430131137371063 l2.178766429424286, -1.452510952949524 3.776528537273407, -1.5977619588375092 l1.8882642686367035, 0.0 m3.63127738237381, 6.10054612159729 l-0.5810043588280678, 0.8715065568685532 m6.536298990249634, -0.726255476474762 l0.0, 0.0 m0.14525108970701694, 1.3072597980499268 l0.14525108970701694, -0.4357532784342766 m-5.810043811798096, 4.648034870624542 l2.4692685902118683, 0.5810043588280678 0.14525108970701694, 0.726255476474762 l-1.1620087176561356, 0.5810043588280678 -1.7430131137371063, -0.4357532784342766 l-0.14525108970701694, -0.8715065568685532 1.452510952949524, -0.8715065568685532 l1.452510952949524, 0.14525108970701694 m-1.3072597980499268, 2.4692685902118683 l-0.14525108970701694, 0.726255476474762 0.5810043588280678, 1.3072597980499268 l2.6145195960998535, 0.2905021794140339 0.726255476474762, -0.8715065568685532 l0.2905021794140339, -2.0335152745246887 m-4.648034870624542, 1.5977619588375092 l-0.4357532784342766, 0.726255476474762 -0.726255476474762, 0.14525108970701694 l-3.3407750725746155, -2.0335152745246887 -0.4357532784342766, -0.8715065568685532 l-0.4357532784342766, 0.2905021794140339 m-3.1955239176750183, -12.927347421646118 l0.2905021794140339, -2.6145195960998535 4.938537180423737, -4.793286025524139 l1.0167576372623444, 0.2905021794140339 0.726255476474762, 5.955294966697693 l1.1620087176561356, 0.14525108970701694 5.6647926568984985, -5.08378803730011 l1.0167576372623444, 6.2457966804504395 0.8715065568685532, 0.4357532784342766 l9.877074360847473, -5.519541501998901 -2.7597707509994507, 6.2457966804504395 l6.826801300048828, -1.8882642686367035 2.6145195960998535, 1.5977619588375092 l-5.08378803730011, 3.1955239176750183 -3.3407750725746155, 3.776528537273407 l3.776528537273407, 0.0 0.5810043588280678, 0.8715065568685532 l-0.14525108970701694, 0.726255476474762 -9.586572051048279, 8.86031687259674 l1.8882642686367035, -0.2905021794140339 1.3072597980499268, 2.905021905899048 l0.0, 1.5977619588375092 -1.1620087176561356, 0.726255476474762 l-1.1620087176561356, -2.178766429424286 -0.2905021794140339, -3.9217793941497803 l-1.7430131137371063, 4.648034870624542 -7.698307633399963, 9.441320896148682 l-1.452510952949524, -1.3072597980499268 -0.4357532784342766, -6.826801300048828 l-1.1620087176561356, -2.905021905899048 -1.3072597980499268, 0.5810043588280678 l-3.1955239176750183, 3.63127738237381 -3.050273060798645, -0.8715065568685532 l-2.324017435312271, -7.553057074546814 -0.4357532784342766, -3.1955239176750183 l-1.1620087176561356, -0.2905021794140339 -1.7430131137371063, 0.726255476474762 l-0.726255476474762, -0.4357532784342766 0.14525108970701694, -3.9217793941497803 l1.8882642686367035, -2.178766429424286 0.0, 0.8715065568685532 l-7.8435587882995605, 1.0167576372623444 -0.2905021794140339, -0.726255476474762 l6.2457966804504395, -6.10054612159729 3.9217793941497803, -0.726255476474762 l-2.905021905899048, -0.2905021794140339 6.2457966804504395, -0.2905021794140339 m19.6088969707489, -0.726255476474762 l-0.14525108970701694, -2.4692685902118683 3.3407750725746155, -0.5810043588280678 l1.0167576372623444, 0.726255476474762 0.2905021794140339, 1.452510952949524 l-1.3072597980499268, 3.1955239176750183 -1.452510952949524, 0.0 " fill="none" stroke="black" stroke-width="1" /></svg>