<?xml version="1.0" encoding="utf-8" ?>
<svg baseProfile="full" height="59.82112407684326" version="1.1" width="48.63679121248424" xmlns="http://www.w3.org/2000/svg" xmlns:ev="http://www.w3.org/2001/xml-events" xmlns:xlink="http://www.w3.org/1999/xlink"><defs /><rect fill="white" height="59.82112407684326" width="48.63679121248424" x="0" y="0" /><path d="M27.368668233975768, 28.530675806105137 m-0.726255476474762, -0.8715065568685532 l-4.212281703948975, -1.3072597980499268 -2.7597707509994507, -3.3407750725746155 l-1.452510952949524, -0.5810043588280678 -0.8715065568685532, 1.5977619588375092 l0.0, 2.905021905899048 0.5810043588280678, 2.4692685902118683 l-2.178766429424286, 1.452510952949524 -1.1620087176561356, 1.5977619588375092 l-0.14525108970701694, 5.229039192199707 2.4692685902118683, 3.3407750725746155 l1.0167576372623444, 0.726255476474762 8.569814562797546, 3.776528537273407 l2.905021905899048, 0.2905021794140339 1.3072597980499268, 0.0 l1.7430131137371063, -0.8715065568685532 1.3072597980499268, -1.452510952949524 l1.8882642686367035, -4.212281703948975 0.14525108970701694, -3.1955239176750183 l-1.7430131137371063, -2.905021905899048 -3.050273060798645, -2.905021905899048 l-0.14525108970701694, -4.502783715724945 -2.0335152745246887, -1.1620087176561356 l-1.0167576372623444, 0.0 -1.0167576372623444, 3.9217793941497803 m-5.229039192199707, -10.16757607460022 l-0.14525108970701694, -0.8715065568685532 -2.905021905899048, -2.6145195960998535 l-4.212281703948975, -3.3407750725746155 -0.8715065568685532, -0.14525108970701694 l-0.4357532784342766, 2.4692685902118683 0.2905021794140339, 3.050273060798645 l0.8715065568685532, 2.324017435312271 -2.4692685902118683, -0.8715065568685532 l-4.938537180423737, -0.14525108970701694 -1.1620087176561356, 1.5977619588375092 l0.14525108970701694, 3.9217793941497803 1.7430131137371063, 3.1955239176750183 l-1.7430131137371063, 2.905021905899048 -0.726255476474762, 3.776528537273407 l1.0167576372623444, 1.3072597980499268 3.050273060798645, -1.3072597980499268 l0.2905021794140339, 1.7430131137371063 -2.324017435312271, 9.731823205947876 l-0.14525108970701694, 2.905021905899048 3.3407750725746155, -0.8715065568685532 l3.3407750725746155, -2.324017435312271 1.5977619588375092, 3.1955239176750183 l0.0, 6.826801300048828 1.5977619588375092, -0.5810043588280678 l5.955294966697693, -4.793286025524139 -0.5810043588280678, 3.9217793941497803 l5.6647926568984985, -1.3072597980499268 13.508352041244507, -7.1173036098480225 l-0.2905021794140339, -3.050273060798645 -0.8715065568685532, -0.5810043588280678 l3.4860262274742126, -2.178766429424286 -0.14525108970701694, -3.3407750725746155 l-2.324017435312271, -2.0335152745246887 2.0335152745246887, -4.938537180423737 l-0.14525108970701694, -5.08378803730011 -3.1955239176750183, 0.8715065568685532 l1.5977619588375092, -3.9217793941497803 0.4357532784342766, -3.63127738237381 l-7.407805919647217, 1.7430131137371063 1.5977619588375092, -9.150818586349487 l-1.5977619588375092, 0.0 -6.10054612159729, 5.6647926568984985 l-1.0167576372623444, 1.8882642686367035 -1.0167576372623444, -10.458078384399414 l-1.452510952949524, -1.7430131137371063 -1.3072597980499268, 2.324017435312271 l-2.4692685902118683, 7.407805919647217 " fill="none" stroke="black" stroke-width="1" /></svg>