<?xml version="1.0" encoding="utf-8" ?>
<svg baseProfile="full" height="50.52505481056869" version="1.1" width="52.70382136106491" xmlns="http://www.w3.org/2000/svg" xmlns:ev="http://www.w3.org/2001/xml-events" xmlns:xlink="http://www.w3.org/1999/xlink"><defs /><rect fill="white" height="50.52505481056869" width="52.70382136106491" x="0" y="0" /><path d="M12.84355977550149, 20.68711751140654 m-1.452510952949524, 1.0167576372623444 l-1.3072597980499268, 2.178766429424286 -0.4357532784342766, 1.3072597980499268 l0.14525108970701694, 3.050273060798645 2.6145195960998535, 4.212281703948975 l4.067030549049377, 2.4692685902118683 4.357532858848572, 0.726255476474762 l3.63127738237381, 0.0 1.3072597980499268, -0.4357532784342766 l1.452510952949524, -0.726255476474762 2.0335152745246887, -2.324017435312271 l1.452510952949524, -4.067030549049377 0.0, -4.212281703948975 l-2.178766429424286, -4.502783715724945 -2.6145195960998535, -2.324017435312271 l-2.6145195960998535, -1.0167576372623444 -6.10054612159729, -0.14525108970701694 l-1.5977619588375092, 0.726255476474762 -3.050273060798645, 4.067030549049377 l-0.2905021794140339, 4.502783715724945 m-0.726255476474762, -3.4860262274742126 l-0.726255476474762, -1.452510952949524 -1.452510952949524, -5.519541501998901 l-0.14525108970701694, -4.502783715724945 0.726255476474762, -2.6145195960998535 l1.0167576372623444, -1.3072597980499268 0.726255476474762, -0.5810043588280678 l3.050273060798645, -0.726255476474762 1.3072597980499268, 0.0 l2.178766429424286, 1.0167576372623444 3.3407750725746155, 3.1955239176750183 l7.988809943199158, -3.3407750725746155 4.502783715724945, -0.14525108970701694 l1.3072597980499268, 2.178766429424286 2.0335152745246887, 6.10054612159729 l0.5810043588280678, 0.2905021794140339 2.0335152745246887, -0.4357532784342766 l4.648034870624542, 0.14525108970701694 2.0335152745246887, 1.0167576372623444 l1.0167576372623444, 1.3072597980499268 0.0, 4.067030549049377 l-1.7430131137371063, 4.357532858848572 -2.178766429424286, 2.905021905899048 l-1.3072597980499268, 2.905021905899048 -2.324017435312271, 9.296069741249084 l-1.3072597980499268, 2.4692685902118683 -1.452510952949524, 0.5810043588280678 l-2.178766429424286, -2.0335152745246887 -1.5977619588375092, -3.3407750725746155 l-0.5810043588280678, -4.212281703948975 -1.7430131137371063, 6.2457966804504395 l-3.050273060798645, 5.810043811798096 -0.5810043588280678, 0.14525108970701694 l-0.726255476474762, -1.1620087176561356 -2.178766429424286, -6.10054612159729 l-4.357532858848572, 5.810043811798096 -2.0335152745246887, 1.3072597980499268 l-1.452510952949524, -3.9217793941497803 -1.1620087176561356, -5.08378803730011 l-0.5810043588280678, 0.0 -2.905021905899048, 2.178766429424286 l-1.3072597980499268, -0.2905021794140339 -5.519541501998901, -9.441320896148682 l-0.4357532784342766, -1.5977619588375092 0.2905021794140339, -5.519541501998901 l1.1620087176561356, 1.0167576372623444 3.63127738237381, -1.452510952949524 l0.2905021794140339, 1.0167576372623444 " fill="none" stroke="black" stroke-width="1" /></svg>