<?xml version="1.0" encoding="utf-8" ?>
<svg baseProfile="full" height="56.480349618941545" version="1.1" width="56.91610347479582" xmlns="http://www.w3.org/2000/svg" xmlns:ev="http://www.w3.org/2001/xml-events" xmlns:xlink="http://www.w3.org/1999/xlink"><defs /><rect fill="white" height="56.480349618941545" width="56.91610347479582" x="0" y="0" /><path d="M29.111682642251253, 17.0558406598866 m-1.3072597980499268, -1.1620087176561356 l-2.0335152745246887, 0.0 -2.178766429424286, 0.2905021794140339 l-2.178766429424286, 1.0167576372623444 -4.938537180423737, 3.9217793941497803 l-2.0335152745246887, 2.4692685902118683 -1.1620087176561356, 2.4692685902118683 l-0.5810043588280678, 3.050273060798645 0.4357532784342766, 6.826801300048828 l1.5977619588375092, 2.6145195960998535 2.178766429424286, 1.8882642686367035 l2.905021905899048, 1.452510952949524 3.1955239176750183, 0.8715065568685532 l3.1955239176750183, 0.14525108970701694 3.776528537273407, -0.2905021794140339 l3.3407750725746155, -1.7430131137371063 5.374290347099304, -4.938537180423737 l2.0335152745246887, -2.6145195960998535 1.452510952949524, -3.1955239176750183 l0.4357532784342766, -5.6647926568984985 -0.726255476474762, -2.324017435312271 l-3.4860262274742126, -4.067030549049377 -6.10054612159729, -3.776528537273407 l-4.357532858848572, -0.14525108970701694 -2.6145195960998535, 1.5977619588375092 m-12.927347421646118, 1.7430131137371063 l0.0, -4.938537180423737 2.178766429424286, -2.6145195960998535 l1.8882642686367035, -1.0167576372623444 6.536298990249634, -1.7430131137371063 l3.050273060798645, -0.2905021794140339 8.279312252998352, -1.8882642686367035 l3.4860262274742126, 0.0 -0.2905021794140339, 4.067030549049377 l1.452510952949524, 0.2905021794140339 6.681550145149231, -0.726255476474762 l1.452510952949524, 1.3072597980499268 1.1620087176561356, 3.63127738237381 l0.0, 3.9217793941497803 -0.8715065568685532, 5.955294966697693 l0.4357532784342766, 0.726255476474762 3.4860262274742126, 2.178766429424286 l0.5810043588280678, 1.0167576372623444 -0.4357532784342766, 3.9217793941497803 l-3.776528537273407, 7.26255476474762 -2.4692685902118683, 3.4860262274742126 l-1.8882642686367035, 1.0167576372623444 -3.050273060798645, 0.5810043588280678 l-5.810043811798096, 5.229039192199707 -3.63127738237381, 2.178766429424286 l-1.452510952949524, 0.4357532784342766 -10.748580694198608, -0.14525108970701694 l-5.374290347099304, -5.08378803730011 -6.10054612159729, 0.2905021794140339 l-1.452510952949524, -2.178766429424286 -0.726255476474762, -5.519541501998901 l0.0, -4.357532858848572 1.0167576372623444, -4.067030549049377 l-0.2905021794140339, -11.474835872650146 1.452510952949524, -2.905021905899048 l1.5977619588375092, -0.726255476474762 3.4860262274742126, -0.4357532784342766 m11.474835872650146, 10.312827825546265 l0.0, 0.0 m9.586572051048279, 0.4357532784342766 l0.0, 0.0 " fill="none" stroke="black" stroke-width="1" /></svg>