<?xml version="1.0" encoding="utf-8" ?>
<svg baseProfile="full" height="84.51380981132388" version="1.1" width="123.87685870751739" xmlns="http://www.w3.org/2000/svg" xmlns:ev="http://www.w3.org/2001/xml-events" xmlns:xlink="http://www.w3.org/1999/xlink"><defs /><rect fill="white" height="84.51380981132388" width="123.87685870751739" x="0" y="0" /><path d="M59.7596634645015, 27.078165244311094 m-4.502783715724945, -0.5810043588280678 l-8.279312252998352, 0.0 -2.905021905899048, 0.4357532784342766 l-3.4860262274742126, 1.5977619588375092 -3.4860262274742126, 2.0335152745246887 l-2.7597707509994507, 2.6145195960998535 -1.0167576372623444, 3.63127738237381 l0.4357532784342766, 3.9217793941497803 3.1955239176750183, 4.648034870624542 l3.3407750725746155, 1.8882642686367035 5.08378803730011, 1.452510952949524 l5.229039192199707, -0.14525108970701694 6.681550145149231, -3.776528537273407 l5.810043811798096, -1.452510952949524 2.7597707509994507, -1.452510952949524 l1.5977619588375092, -1.1620087176561356 1.452510952949524, -2.4692685902118683 l0.2905021794140339, -5.08378803730011 -0.4357532784342766, -2.178766429424286 l-1.0167576372623444, -1.8882642686367035 -2.6145195960998535, -2.905021905899048 l-3.3407750725746155, -0.4357532784342766 m-27.016704082489014, 15.251364707946777 l-1.452510952949524, 2.178766429424286 m-0.14525108970701694, 1.0167576372623444 l-0.2905021794140339, 1.5977619588375092 0.726255476474762, 4.793286025524139 l3.3407750725746155, 10.893832445144653 1.7430131137371063, 3.4860262274742126 l9.150818586349487, 0.14525108970701694 1.0167576372623444, -0.4357532784342766 l1.1620087176561356, -1.1620087176561356 2.6145195960998535, -4.938537180423737 l-0.4357532784342766, 3.050273060798645 0.14525108970701694, 7.26255476474762 l3.776528537273407, 5.519541501998901 5.229039192199707, 5.08378803730011 l0.8715065568685532, -0.8715065568685532 0.4357532784342766, -3.3407750725746155 l0.14525108970701694, -10.748580694198608 -0.14525108970701694, 1.5977619588375092 l1.8882642686367035, 5.08378803730011 1.452510952949524, 2.0335152745246887 l3.63127738237381, 1.8882642686367035 3.3407750725746155, 0.2905021794140339 l4.938537180423737, -2.7597707509994507 1.7430131137371063, -1.452510952949524 l1.1620087176561356, -1.7430131137371063 1.1620087176561356, -2.7597707509994507 l1.452510952949524, -6.2457966804504395 0.14525108970701694, -8.569814562797546 l-1.7430131137371063, -5.519541501998901 -1.7430131137371063, -2.4692685902118683 l-2.324017435312271, -1.452510952949524 4.648034870624542, -1.5977619588375092 l3.776528537273407, -2.6145195960998535 1.7430131137371063, -2.178766429424286 l0.5810043588280678, -1.7430131137371063 -0.2905021794140339, -3.4860262274742126 l-1.0167576372623444, -1.8882642686367035 -1.8882642686367035, -2.0335152745246887 l-8.715065717697144, -6.391047835350037 -3.63127738237381, -0.726255476474762 l-6.972052454948425, 0.0 -2.324017435312271, -5.229039192199707 l-2.905021905899048, -3.4860262274742126 -7.988809943199158, -5.229039192199707 l-4.212281703948975, -0.8715065568685532 -6.10054612159729, 0.0 l-6.826801300048828, 2.905021905899048 -2.7597707509994507, 2.0335152745246887 l-0.8715065568685532, 1.5977619588375092 -1.0167576372623444, -2.0335152745246887 l-1.5977619588375092, -1.452510952949524 -1.3072597980499268, -0.5810043588280678 l-3.776528537273407, 0.4357532784342766 -9.00556743144989, 7.8435587882995605 l-6.10054612159729, 7.698307633399963 -0.726255476474762, 1.5977619588375092 l1.5977619588375092, 1.3072597980499268 1.452510952949524, 0.4357532784342766 l-5.229039192199707, 6.972052454948425 -1.3072597980499268, 2.7597707509994507 l0.14525108970701694, 2.7597707509994507 2.324017435312271, 3.3407750725746155 l0.8715065568685532, 0.5810043588280678 5.955294966697693, 0.14525108970701694 l2.324017435312271, 0.5810043588280678 13.072597980499268, 5.08378803730011 l4.793286025524139, 0.14525108970701694 0.726255476474762, -0.2905021794140339 l0.14525108970701694, -0.726255476474762 -0.5810043588280678, -0.4357532784342766 m51.99989318847656, -11.474835872650146 l6.10054612159729, -1.8882642686367035 6.10054612159729, -0.8715065568685532 l2.7597707509994507, 0.0 5.374290347099304, -0.8715065568685532 l8.279312252998352, 0.0 3.4860262274742126, -0.4357532784342766 " fill="none" stroke="black" stroke-width="1" /></svg>