<?xml version="1.0" encoding="utf-8" ?>
<svg baseProfile="full" height="55.754093769937754" version="1.1" width="62.871397379785776" xmlns="http://www.w3.org/2000/svg" xmlns:ev="http://www.w3.org/2001/xml-events" xmlns:xlink="http://www.w3.org/1999/xlink"><defs /><rect fill="white" height="55.754093769937754" width="62.871397379785776" x="0" y="0" /><path d="M33.61446521244943, 15.603329529985785 m-7.407805919647217, 0.0 l-4.212281703948975, 1.0167576372623444 -4.212281703948975, 2.7597707509994507 l-2.0335152745246887, 2.905021905899048 -0.2905021794140339, 1.7430131137371063 l0.2905021794140339, 4.648034870624542 1.0167576372623444, 2.6145195960998535 l3.63127738237381, 4.938537180423737 4.793286025524139, 3.776528537273407 l3.1955239176750183, 0.8715065568685532 3.776528537273407, 0.0 l3.4860262274742126, -0.5810043588280678 6.391047835350037, -4.212281703948975 l3.63127738237381, -5.229039192199707 0.5810043588280678, -2.905021905899048 l0.0, -2.7597707509994507 -0.8715065568685532, -2.7597707509994507 l-2.0335152745246887, -2.178766429424286 -2.6145195960998535, -1.7430131137371063 l-3.050273060798645, -1.3072597980499268 -5.519541501998901, -1.5977619588375092 m-6.10054612159729, -0.2905021794140339 l-0.14525108970701694, -0.8715065568685532 0.726255476474762, -2.178766429424286 l2.6145195960998535, -4.648034870624542 2.6145195960998535, -2.4692685902118683 l1.452510952949524, -0.14525108970701694 0.4357532784342766, 3.9217793941497803 l-1.0167576372623444, 6.10054612159729 1.452510952949524, 0.2905021794140339 l8.279312252998352, -5.08378803730011 5.6647926568984985, -0.5810043588280678 l0.4357532784342766, 0.726255476474762 -6.391047835350037, 4.502783715724945 l-1.3072597980499268, 1.7430131137371063 0.8715065568685532, 0.5810043588280678 l1.8882642686367035, 0.14525108970701694 7.26255476474762, -2.324017435312271 l5.229039192199707, -0.726255476474762 1.0167576372623444, 0.14525108970701694 l0.726255476474762, 1.5977619588375092 0.0, 1.1620087176561356 l-1.1620087176561356, 2.178766429424286 -3.050273060798645, 2.178766429424286 l-3.050273060798645, 1.1620087176561356 -2.178766429424286, 0.0 l-3.1955239176750183, -0.726255476474762 3.776528537273407, 3.63127738237381 l0.726255476474762, 1.0167576372623444 0.726255476474762, 2.6145195960998535 l-0.2905021794140339, 5.6647926568984985 -1.3072597980499268, 5.08378803730011 l-1.8882642686367035, -0.2905021794140339 -3.4860262274742126, -4.212281703948975 l-1.452510952949524, -0.8715065568685532 -0.14525108970701694, 2.4692685902118683 l0.8715065568685532, 9.00556743144989 -1.5977619588375092, 2.0335152745246887 l-4.938537180423737, 2.6145195960998535 -3.1955239176750183, -0.14525108970701694 l-1.0167576372623444, -1.452510952949524 -0.14525108970701694, -6.10054612159729 l0.8715065568685532, -3.4860262274742126 -3.9217793941497803, 7.8435587882995605 l-2.4692685902118683, 1.0167576372623444 -6.2457966804504395, 0.0 l-0.8715065568685532, -0.4357532784342766 -1.452510952949524, -1.8882642686367035 l0.0, -4.357532858848572 2.7597707509994507, -2.7597707509994507 l2.324017435312271, -1.452510952949524 -2.178766429424286, 0.4357532784342766 l-9.441320896148682, 4.648034870624542 -3.4860262274742126, -0.14525108970701694 l-0.14525108970701694, -2.178766429424286 1.8882642686367035, -2.6145195960998535 l6.2457966804504395, -5.955294966697693 -1.5977619588375092, -0.2905021794140339 l-4.067030549049377, 1.1620087176561356 -4.357532858848572, 0.2905021794140339 l-0.5810043588280678, -1.3072597980499268 -0.14525108970701694, -3.9217793941497803 l1.1620087176561356, -4.502783715724945 1.3072597980499268, -0.8715065568685532 l1.452510952949524, 0.0 2.324017435312271, 2.324017435312271 l3.3407750725746155, 1.0167576372623444 -1.452510952949524, -0.8715065568685532 l-3.4860262274742126, -4.357532858848572 -3.1955239176750183, -7.407805919647217 l2.324017435312271, 1.3072597980499268 5.229039192199707, 5.810043811798096 l1.452510952949524, 0.726255476474762 -2.324017435312271, -6.391047835350037 l-0.4357532784342766, -3.4860262274742126 0.14525108970701694, -3.1955239176750183 l0.4357532784342766, -1.0167576372623444 0.8715065568685532, -0.8715065568685532 l1.1620087176561356, -0.14525108970701694 1.5977619588375092, 1.0167576372623444 l5.6647926568984985, 9.731823205947876 m0.8715065568685532, 5.810043811798096 l-0.726255476474762, -0.2905021794140339 -1.1620087176561356, 0.4357532784342766 l-0.726255476474762, 2.0335152745246887 0.0, 1.8882642686367035 l1.452510952949524, 1.5977619588375092 2.7597707509994507, 0.0 l4.212281703948975, -3.1955239176750183 0.8715065568685532, -2.324017435312271 l-0.2905021794140339, -0.726255476474762 -1.0167576372623444, -0.4357532784342766 l-3.050273060798645, -0.2905021794140339 m13.072597980499268, 2.0335152745246887 l-0.8715065568685532, -0.5810043588280678 -1.452510952949524, 0.0 l-0.8715065568685532, 0.2905021794140339 -1.0167576372623444, 1.5977619588375092 l-0.2905021794140339, 2.178766429424286 0.5810043588280678, 1.3072597980499268 l1.1620087176561356, 0.8715065568685532 1.3072597980499268, 0.4357532784342766 l2.324017435312271, 0.0 0.726255476474762, -0.4357532784342766 l0.8715065568685532, -2.6145195960998535 -0.14525108970701694, -2.7597707509994507 l-2.324017435312271, -1.5977619588375092 -3.4860262274742126, -0.14525108970701694 m-10.603330135345459, 1.5977619588375092 l0.0, 0.0 " fill="none" stroke="black" stroke-width="1" /></svg>