<?xml version="1.0" encoding="utf-8" ?>
<svg baseProfile="full" height="72.6032190863043" version="1.1" width="83.0613016616553" xmlns="http://www.w3.org/2000/svg" xmlns:ev="http://www.w3.org/2001/xml-events" xmlns:xlink="http://www.w3.org/1999/xlink"><defs /><rect fill="white" height="72.6032190863043" width="83.0613016616553" x="0" y="0" /><path d="M21.994379153475165, 19.379858812317252 m-1.5977619588375092, -0.8715065568685532 l-1.7430131137371063, 0.2905021794140339 -2.7597707509994507, 3.776528537273407 l-1.1620087176561356, 3.3407750725746155 0.4357532784342766, 3.1955239176750183 l3.3407750725746155, 3.3407750725746155 6.972052454948425, 3.1955239176750183 l11.039083003997803, 2.905021905899048 8.569814562797546, 0.4357532784342766 l2.4692685902118683, -0.8715065568685532 1.5977619588375092, -1.7430131137371063 l0.5810043588280678, -1.7430131137371063 0.14525108970701694, -3.3407750725746155 l-0.8715065568685532, -5.229039192199707 -1.452510952949524, -2.4692685902118683 l-4.212281703948975, -3.63127738237381 -2.178766429424286, -1.452510952949524 l-2.178766429424286, -0.5810043588280678 -3.3407750725746155, 0.4357532784342766 l-7.1173036098480225, 0.0 -3.63127738237381, -0.8715065568685532 l-2.0335152745246887, 0.0 m21.787664890289307, 15.687117576599121 l-0.726255476474762, -0.14525108970701694 0.4357532784342766, -0.5810043588280678 m-24.256932735443115, -19.754148721694946 l1.8882642686367035, -4.067030549049377 0.8715065568685532, -3.63127738237381 l1.7430131137371063, 4.648034870624542 1.5977619588375092, 0.5810043588280678 l7.1173036098480225, -4.938537180423737 3.63127738237381, 10.16757607460022 l0.8715065568685532, 0.4357532784342766 7.1173036098480225, -4.648034870624542 l4.212281703948975, -1.8882642686367035 2.6145195960998535, -0.2905021794140339 l0.8715065568685532, 2.178766429424286 1.452510952949524, 7.1173036098480225 l4.357532858848572, -3.3407750725746155 4.502783715724945, -2.0335152745246887 l4.067030549049377, -1.1620087176561356 2.905021905899048, 0.0 l0.4357532784342766, 1.7430131137371063 -0.14525108970701694, 2.324017435312271 l-2.178766429424286, 2.6145195960998535 0.4357532784342766, 0.726255476474762 l5.810043811798096, 3.050273060798645 2.0335152745246887, 2.0335152745246887 l-1.0167576372623444, 0.4357532784342766 -2.6145195960998535, -1.0167576372623444 l-0.726255476474762, 0.14525108970701694 -0.726255476474762, 3.3407750725746155 l1.3072597980499268, 2.4692685902118683 5.519541501998901, 4.793286025524139 l-0.2905021794140339, 1.7430131137371063 -0.726255476474762, 0.8715065568685532 l-1.1620087176561356, 0.8715065568685532 -3.050273060798645, 0.8715065568685532 m-65.65349578857422, -28.614466190338135 l-0.726255476474762, -0.14525108970701694 -0.726255476474762, 0.726255476474762 l-0.14525108970701694, 1.452510952949524 0.8715065568685532, 3.776528537273407 l-1.452510952949524, 4.648034870624542 0.8715065568685532, 0.4357532784342766 l2.6145195960998535, 0.0 0.5810043588280678, 1.452510952949524 l0.0, 5.955294966697693 -1.3072597980499268, 3.3407750725746155 l3.050273060798645, -0.14525108970701694 0.4357532784342766, 0.726255476474762 l0.0, 2.6145195960998535 1.5977619588375092, 0.4357532784342766 l3.9217793941497803, -0.726255476474762 0.0, 3.1955239176750183 l-1.7430131137371063, 8.279312252998352 -6.536298990249634, 19.6088969707489 l-0.14525108970701694, 1.7430131137371063 2.6145195960998535, -3.776528537273407 l2.324017435312271, -2.178766429424286 4.938537180423737, -3.1955239176750183 l1.8882642686367035, -0.5810043588280678 3.9217793941497803, -0.14525108970701694 l0.5810043588280678, 2.7597707509994507 1.452510952949524, -6.681550145149231 l2.4692685902118683, -6.2457966804504395 2.0335152745246887, 18.301637172698975 l2.6145195960998535, -3.050273060798645 4.212281703948975, -3.776528537273407 l1.8882642686367035, -1.0167576372623444 0.8715065568685532, 0.4357532784342766 l4.357532858848572, -0.5810043588280678 4.793286025524139, -1.8882642686367035 l2.4692685902118683, 4.648034870624542 2.6145195960998535, 2.6145195960998535 l1.8882642686367035, 0.726255476474762 0.4357532784342766, -1.0167576372623444 l-0.2905021794140339, -1.5977619588375092 2.4692685902118683, 1.0167576372623444 l1.452510952949524, 0.0 0.726255476474762, -0.14525108970701694 l0.5810043588280678, -0.8715065568685532 6.391047835350037, -0.4357532784342766 l0.14525108970701694, -0.726255476474762 -2.324017435312271, -2.324017435312271 l0.0, -0.8715065568685532 3.3407750725746155, -1.0167576372623444 l4.938537180423737, -0.726255476474762 0.726255476474762, -1.1620087176561356 l-8.42456340789795, -10.02232551574707 -6.536298990249634, -5.6647926568984985 l-0.14525108970701694, -2.0335152745246887 " fill="none" stroke="black" stroke-width="1" /></svg>