<?xml version="1.0" encoding="utf-8" ?>
<svg baseProfile="full" height="56.77085186354816" version="1.1" width="54.30158277973533" xmlns="http://www.w3.org/2000/svg" xmlns:ev="http://www.w3.org/2001/xml-events" xmlns:xlink="http://www.w3.org/1999/xlink"><defs /><rect fill="white" height="56.77085186354816" width="54.30158277973533" x="0" y="0" /><path d="M28.5306765884161, 42.6200323458761 m-3.3407750725746155, 0.14525108970701694 l-4.502783715724945, -0.726255476474762 -3.1955239176750183, -1.7430131137371063 l-2.6145195960998535, -3.4860262274742126 -0.726255476474762, -2.178766429424286 l-0.2905021794140339, -5.08378803730011 1.3072597980499268, -4.648034870624542 l2.6145195960998535, -3.776528537273407 4.938537180423737, -3.4860262274742126 l5.955294966697693, -2.324017435312271 6.10054612159729, -0.2905021794140339 l4.648034870624542, 3.63127738237381 1.8882642686367035, 3.63127738237381 l0.4357532784342766, 2.905021905899048 -0.14525108970701694, 4.357532858848572 l-2.4692685902118683, 5.6647926568984985 -1.7430131137371063, 2.4692685902118683 l-2.0335152745246887, 1.8882642686367035 -9.731823205947876, 4.357532858848572 l-1.1620087176561356, 0.0 m-12.20109224319458, -13.217849731445312 l-1.3072597980499268, 1.8882642686367035 -1.5977619588375092, 0.4357532784342766 l-0.5810043588280678, -1.8882642686367035 0.0, -3.4860262274742126 l-1.0167576372623444, 1.3072597980499268 -0.726255476474762, 2.324017435312271 l-0.4357532784342766, 4.067030549049377 0.2905021794140339, 3.3407750725746155 l0.5810043588280678, 0.8715065568685532 2.178766429424286, 1.1620087176561356 l0.14525108970701694, 1.0167576372623444 -0.14525108970701694, 8.715065717697144 l1.5977619588375092, -0.2905021794140339 2.178766429424286, -4.502783715724945 l0.5810043588280678, 2.905021905899048 0.8715065568685532, 1.7430131137371063 l1.0167576372623444, 0.726255476474762 2.7597707509994507, -0.14525108970701694 l2.7597707509994507, -3.1955239176750183 2.324017435312271, 3.63127738237381 l1.7430131137371063, 0.4357532784342766 2.0335152745246887, 0.0 l5.229039192199707, -4.212281703948975 0.8715065568685532, 0.0 l2.6145195960998535, 2.7597707509994507 2.7597707509994507, 0.2905021794140339 l3.4860262274742126, -5.6647926568984985 1.0167576372623444, -0.2905021794140339 l1.1620087176561356, 0.2905021794140339 0.726255476474762, -2.178766429424286 l0.4357532784342766, -6.10054612159729 1.3072597980499268, -5.6647926568984985 l-0.14525108970701694, -12.34634280204773 2.324017435312271, -7.698307633399963 l-0.4357532784342766, -1.8882642686367035 -2.6145195960998535, -0.5810043588280678 l-3.4860262274742126, -1.7430131137371063 -2.324017435312271, -0.14525108970701694 l-5.519541501998901, 1.0167576372623444 -6.681550145149231, -2.6145195960998535 l-7.8435587882995605, 0.2905021794140339 -1.0167576372623444, 0.4357532784342766 l-0.2905021794140339, 0.8715065568685532 0.4357532784342766, 3.1955239176750183 l-4.212281703948975, 1.7430131137371063 -4.793286025524139, 2.7597707509994507 l-4.938537180423737, 3.776528537273407 -0.5810043588280678, 1.7430131137371063 l0.14525108970701694, 2.6145195960998535 m18.737391233444214, 1.0167576372623444 l0.0, 0.0 m-0.2905021794140339, 1.7430131137371063 l-0.8715065568685532, 1.0167576372623444 1.1620087176561356, 0.5810043588280678 l2.0335152745246887, 0.0 m7.26255476474762, -4.067030549049377 l2.178766429424286, 1.7430131137371063 m-7.988809943199158, 5.6647926568984985 l4.502783715724945, -0.4357532784342766 m-7.698307633399963, 5.08378803730011 l-0.726255476474762, 2.324017435312271 1.0167576372623444, 1.0167576372623444 l4.212281703948975, -0.2905021794140339 7.698307633399963, -6.681550145149231 " fill="none" stroke="black" stroke-width="1" /></svg>