<?xml version="1.0" encoding="utf-8" ?>
<svg baseProfile="full" height="67.08367879502475" version="1.1" width="75.21774026565254" xmlns="http://www.w3.org/2000/svg" xmlns:ev="http://www.w3.org/2001/xml-events" xmlns:xlink="http://www.w3.org/1999/xlink"><defs /><rect fill="white" height="67.08367879502475" width="75.21774026565254" x="0" y="0" /><path d="M47.9943232703954, 44.798799846321344 m-6.391047835350037, 2.324017435312271 l-7.407805919647217, 1.1620087176561356 -5.374290347099304, 0.0 l-3.63127738237381, -2.905021905899048 -3.9217793941497803, -6.2457966804504395 l-1.452510952949524, -3.63127738237381 -0.8715065568685532, -3.63127738237381 l0.0, -4.067030549049377 0.8715065568685532, -1.5977619588375092 l4.502783715724945, -4.357532858848572 3.9217793941497803, -2.178766429424286 l4.067030549049377, -1.8882642686367035 3.1955239176750183, -0.8715065568685532 l3.1955239176750183, 0.0 1.5977619588375092, 0.726255476474762 l11.039083003997803, 8.279312252998352 0.5810043588280678, 1.8882642686367035 l0.0, 12.34634280204773 -0.4357532784342766, 1.7430131137371063 l-2.0335152745246887, 2.178766429424286 -4.502783715724945, 2.324017435312271 m-27.307205200195312, 9.150818586349487 l-3.9217793941497803, 0.0 -2.905021905899048, -1.7430131137371063 l-1.3072597980499268, -1.452510952949524 -0.14525108970701694, -2.324017435312271 l1.0167576372623444, -2.905021905899048 3.4860262274742126, -5.229039192199707 l-3.9217793941497803, -2.0335152745246887 -2.7597707509994507, -2.178766429424286 l-1.5977619588375092, -1.7430131137371063 -0.5810043588280678, -2.0335152745246887 l0.0, -3.776528537273407 0.5810043588280678, -1.1620087176561356 l1.8882642686367035, -2.7597707509994507 3.63127738237381, -3.3407750725746155 l0.2905021794140339, -8.715065717697144 3.4860262274742126, -3.63127738237381 l1.7430131137371063, -1.1620087176561356 2.0335152745246887, -0.5810043588280678 l6.2457966804504395, -1.1620087176561356 7.1173036098480225, 0.2905021794140339 l1.5977619588375092, -1.452510952949524 3.9217793941497803, -1.452510952949524 l3.63127738237381, 0.0 2.7597707509994507, 0.726255476474762 l7.1173036098480225, 5.08378803730011 2.324017435312271, 3.1955239176750183 l0.8715065568685532, 2.0335152745246887 0.14525108970701694, 4.502783715724945 l0.8715065568685532, 2.4692685902118683 4.502783715724945, 3.050273060798645 l5.519541501998901, 1.452510952949524 0.0, 3.63127738237381 l-2.178766429424286, 3.3407750725746155 0.0, 3.9217793941497803 l3.776528537273407, 3.4860262274742126 2.7597707509994507, 1.452510952949524 l0.5810043588280678, 1.0167576372623444 0.0, 1.7430131137371063 l-0.5810043588280678, 1.5977619588375092 -8.42456340789795, 5.6647926568984985 l-5.955294966697693, 2.7597707509994507 -8.569814562797546, 2.0335152745246887 l-6.10054612159729, 0.5810043588280678 -9.00556743144989, -0.14525108970701694 l-2.178766429424286, -0.8715065568685532 -0.4357532784342766, -0.726255476474762 l-2.324017435312271, 3.9217793941497803 -1.7430131137371063, 1.1620087176561356 l-4.793286025524139, -0.2905021794140339 -5.08378803730011, -6.2457966804504395 l-0.5810043588280678, -1.5977619588375092 m14.08935546875, -11.184333562850952 l2.0335152745246887, 3.3407750725746155 0.8715065568685532, 0.4357532784342766 l2.7597707509994507, -0.4357532784342766 -0.14525108970701694, -4.357532858848572 l1.452510952949524, 1.0167576372623444 2.4692685902118683, 3.3407750725746155 l1.5977619588375092, 0.14525108970701694 1.452510952949524, -0.5810043588280678 l0.4357532784342766, -0.726255476474762 0.0, -1.5977619588375092 l-2.324017435312271, -2.6145195960998535 " fill="none" stroke="black" stroke-width="1" /></svg>