<?xml version="1.0" encoding="utf-8" ?>
<svg baseProfile="full" height="88.43558835797012" version="1.1" width="106.44672516733408" xmlns="http://www.w3.org/2000/svg" xmlns:ev="http://www.w3.org/2001/xml-events" xmlns:xlink="http://www.w3.org/1999/xlink"><defs /><rect fill="white" height="88.43558835797012" width="106.44672516733408" x="0" y="0" /><path d="M82.7093347441405, 31.29044602625072 m-4.212281703948975, -1.5977619588375092 l-9.296069741249084, 0.0 -7.1173036098480225, 2.178766429424286 l-5.229039192199707, 3.1955239176750183 -8.569814562797546, 6.826801300048828 l-7.407805919647217, 9.150818586349487 -2.324017435312271, 3.63127738237381 l-1.5977619588375092, 3.63127738237381 -1.0167576372623444, 4.357532858848572 l0.0, 3.776528537273407 0.5810043588280678, 3.63127738237381 l2.178766429424286, 5.519541501998901 1.8882642686367035, 2.6145195960998535 l4.648034870624542, 3.050273060798645 3.3407750725746155, 1.1620087176561356 l10.312827825546265, 1.0167576372623444 4.938537180423737, -0.14525108970701694 l7.988809943199158, -1.5977619588375092 2.324017435312271, -1.0167576372623444 l3.776528537273407, -3.1955239176750183 6.10054612159729, -6.681550145149231 l3.63127738237381, -6.10054612159729 0.8715065568685532, -3.3407750725746155 l0.14525108970701694, -10.458078384399414 -1.0167576372623444, -5.519541501998901 l-4.212281703948975, -10.748580694198608 -1.3072597980499268, -2.178766429424286 l-1.452510952949524, -0.2905021794140339 m-28.614466190338135, 17.430131435394287 l0.14525108970701694, 3.4860262274742126 0.8715065568685532, 2.178766429424286 l1.5977619588375092, 0.726255476474762 1.1620087176561356, -0.726255476474762 l1.3072597980499268, -2.324017435312271 0.14525108970701694, -1.3072597980499268 l-0.5810043588280678, -1.452510952949524 -1.0167576372623444, -1.1620087176561356 l-1.8882642686367035, -0.4357532784342766 -1.3072597980499268, 0.8715065568685532 l-1.452510952949524, 1.8882642686367035 0.2905021794140339, 0.726255476474762 l1.5977619588375092, 0.0 0.14525108970701694, -0.726255476474762 l-0.726255476474762, -0.5810043588280678 -1.7430131137371063, 0.14525108970701694 l-0.2905021794140339, 0.726255476474762 3.63127738237381, -0.2905021794140339 m18.01113486289978, -1.3072597980499268 l-1.0167576372623444, 1.3072597980499268 -0.14525108970701694, 0.726255476474762 l0.5810043588280678, 0.726255476474762 1.1620087176561356, 0.14525108970701694 l1.5977619588375092, -1.8882642686367035 0.2905021794140339, -1.8882642686367035 l-1.1620087176561356, -0.14525108970701694 -4.648034870624542, 3.63127738237381 l-0.8715065568685532, 2.324017435312271 0.0, 3.776528537273407 l0.726255476474762, 0.8715065568685532 0.8715065568685532, -0.2905021794140339 l3.1955239176750183, -5.08378803730011 -0.8715065568685532, 0.0 l-2.324017435312271, 1.7430131137371063 m-20.480403900146484, 8.42456340789795 l17.139629125595093, 0.726255476474762 m-16.994377374649048, -0.2905021794140339 l2.4692685902118683, 4.357532858848572 3.63127738237381, 2.178766429424286 l2.324017435312271, 0.14525108970701694 0.8715065568685532, -0.2905021794140339 l3.1955239176750183, -3.776528537273407 0.726255476474762, -3.4860262274742126 m-26.29044771194458, 3.1955239176750183 l-3.1955239176750183, 0.8715065568685532 -12.636845111846924, 0.4357532784342766 l-5.08378803730011, -0.4357532784342766 -7.1173036098480225, -2.4692685902118683 l-1.3072597980499268, -2.178766429424286 -1.1620087176561356, -6.10054612159729 l-0.4357532784342766, -12.491593360900879 0.5810043588280678, -3.050273060798645 l2.4692685902118683, -5.6647926568984985 4.502783715724945, -5.519541501998901 l5.955294966697693, -5.08378803730011 12.34634280204773, -7.26255476474762 l3.3407750725746155, -1.452510952949524 12.20109224319458, -4.648034870624542 l16.26812219619751, -5.374290347099304 10.16757607460022, -1.452510952949524 l7.1173036098480225, -0.2905021794140339 2.6145195960998535, 0.8715065568685532 l3.1955239176750183, 2.6145195960998535 2.6145195960998535, 5.08378803730011 l1.0167576372623444, 3.3407750725746155 1.452510952949524, 10.16757607460022 l2.7597707509994507, 13.363100290298462 1.8882642686367035, 3.4860262274742126 l0.8715065568685532, 0.0 1.0167576372623444, 0.726255476474762 l2.905021905899048, 2.7597707509994507 0.5810043588280678, 1.1620087176561356 l0.5810043588280678, 6.10054612159729 -0.14525108970701694, 6.10054612159729 l-9.731823205947876, 8.134061098098755 -7.698307633399963, 1.7430131137371063 " fill="none" stroke="black" stroke-width="1" /></svg>