<?xml version="1.0" encoding="utf-8" ?>
<svg baseProfile="full" height="57.497107004746795" version="1.1" width="62.145142424851656" xmlns="http://www.w3.org/2000/svg" xmlns:ev="http://www.w3.org/2001/xml-events" xmlns:xlink="http://www.w3.org/1999/xlink"><defs /><rect fill="white" height="57.497107004746795" width="62.145142424851656" x="0" y="0" /><path d="M22.72063291631639, 22.720633437857032 m-2.6145195960998535, 2.324017435312271 l-0.8715065568685532, 4.502783715724945 0.5810043588280678, 3.3407750725746155 l1.8882642686367035, 3.63127738237381 2.0335152745246887, 2.178766429424286 l2.905021905899048, 1.3072597980499268 4.648034870624542, 0.2905021794140339 l2.7597707509994507, -0.5810043588280678 5.6647926568984985, -2.905021905899048 l2.6145195960998535, -3.63127738237381 1.0167576372623444, -2.905021905899048 l0.5810043588280678, -3.1955239176750183 -0.4357532784342766, -2.905021905899048 l-0.5810043588280678, -1.452510952949524 -0.726255476474762, -0.5810043588280678 l-0.726255476474762, -0.4357532784342766 -1.452510952949524, 0.2905021794140339 l-0.2905021794140339, -0.726255476474762 0.8715065568685532, -2.905021905899048 l-0.4357532784342766, -1.452510952949524 -2.178766429424286, -0.14525108970701694 l-1.452510952949524, 1.1620087176561356 -0.726255476474762, 2.178766429424286 l-0.726255476474762, 0.4357532784342766 -1.452510952949524, -0.726255476474762 l-2.178766429424286, -0.14525108970701694 -2.905021905899048, 1.452510952949524 l-2.0335152745246887, -2.905021905899048 -1.452510952949524, -0.5810043588280678 l-1.452510952949524, 0.5810043588280678 -2.0335152745246887, 1.8882642686367035 l-0.14525108970701694, 1.452510952949524 0.8715065568685532, 1.3072597980499268 m-7.8435587882995605, 4.212281703948975 l-2.0335152745246887, -1.7430131137371063 -0.726255476474762, -1.8882642686367035 l-0.2905021794140339, -2.905021905899048 0.8715065568685532, -3.9217793941497803 l1.8882642686367035, -2.6145195960998535 2.178766429424286, -1.0167576372623444 l0.8715065568685532, 0.14525108970701694 1.452510952949524, 1.3072597980499268 l0.4357532784342766, -1.7430131137371063 1.7430131137371063, -2.905021905899048 l3.050273060798645, -2.6145195960998535 2.178766429424286, -0.2905021794140339 l2.4692685902118683, 0.8715065568685532 2.905021905899048, 1.8882642686367035 l0.4357532784342766, 0.726255476474762 -0.2905021794140339, 0.726255476474762 l0.0, -2.324017435312271 0.4357532784342766, -0.726255476474762 l1.8882642686367035, -2.324017435312271 2.4692685902118683, -0.726255476474762 l1.8882642686367035, 0.14525108970701694 3.4860262274742126, 1.452510952949524 l1.3072597980499268, 2.324017435312271 0.0, 1.5977619588375092 l-0.4357532784342766, 0.726255476474762 1.5977619588375092, -0.8715065568685532 l3.63127738237381, -0.2905021794140339 1.5977619588375092, 0.14525108970701694 l2.178766429424286, 1.3072597980499268 1.452510952949524, 2.905021905899048 l0.2905021794140339, 2.7597707509994507 -1.8882642686367035, 2.905021905899048 l3.776528537273407, 2.0335152745246887 1.452510952949524, 1.5977619588375092 l0.4357532784342766, 1.8882642686367035 -0.2905021794140339, 2.905021905899048 l-3.3407750725746155, 3.9217793941497803 0.0, 0.726255476474762 l1.1620087176561356, 1.452510952949524 0.5810043588280678, 2.6145195960998535 l-1.0167576372623444, 2.7597707509994507 -3.776528537273407, 3.9217793941497803 l-4.938537180423737, 0.2905021794140339 1.3072597980499268, 1.0167576372623444 l0.726255476474762, 4.067030549049377 -2.178766429424286, 2.4692685902118683 l-1.8882642686367035, 0.5810043588280678 -4.357532858848572, 0.14525108970701694 l-4.648034870624542, -0.726255476474762 -2.6145195960998535, -1.0167576372623444 l-1.1620087176561356, -1.5977619588375092 0.0, -2.4692685902118683 l0.0, 0.726255476474762 -1.3072597980499268, 1.3072597980499268 l-3.1955239176750183, 1.0167576372623444 -2.178766429424286, 0.14525108970701694 l-8.86031687259674, -8.569814562797546 0.5810043588280678, -0.8715065568685532 l0.0, 1.0167576372623444 -0.5810043588280678, 0.726255476474762 l-1.3072597980499268, 0.8715065568685532 -1.7430131137371063, 0.0 l-2.324017435312271, -0.8715065568685532 -2.7597707509994507, -2.178766429424286 l-1.452510952949524, -2.7597707509994507 -0.5810043588280678, -2.6145195960998535 l0.2905021794140339, -1.5977619588375092 1.8882642686367035, -1.8882642686367035 l0.726255476474762, 0.4357532784342766 0.14525108970701694, 1.1620087176561356 l-1.7430131137371063, -1.1620087176561356 0.14525108970701694, -4.067030549049377 l3.4860262274742126, -2.0335152745246887 4.357532858848572, -0.2905021794140339 " fill="none" stroke="black" stroke-width="1" /></svg>