<?xml version="1.0" encoding="utf-8" ?>
<svg baseProfile="full" height="69.4076967984438" version="1.1" width="91.63111496716738" xmlns="http://www.w3.org/2000/svg" xmlns:ev="http://www.w3.org/2001/xml-events" xmlns:xlink="http://www.w3.org/1999/xlink"><defs /><rect fill="white" height="69.4076967984438" width="91.63111496716738" x="0" y="0" /><path d="M23.737391233444214, 14.005567459389567 m-4.793286025524139, 0.726255476474762 l-5.810043811798096, 2.178766429424286 2.178766429424286, 2.6145195960998535 l1.5977619588375092, 3.776528537273407 -8.715065717697144, 0.14525108970701694 l-1.7430131137371063, 0.2905021794140339 -1.452510952949524, 1.1620087176561356 l0.5810043588280678, 1.452510952949524 2.905021905899048, 2.324017435312271 l4.938537180423737, 2.324017435312271 10.893832445144653, 3.63127738237381 l-1.7430131137371063, 2.178766429424286 -1.0167576372623444, 2.178766429424286 l-1.0167576372623444, 8.42456340789795 0.0, 4.938537180423737 l0.726255476474762, 0.2905021794140339 15.251364707946777, -1.452510952949524 l6.10054612159729, 4.793286025524139 4.648034870624542, 2.6145195960998535 l13.94410490989685, 5.810043811798096 0.726255476474762, -0.14525108970701694 l4.502783715724945, -4.793286025524139 3.1955239176750183, -2.6145195960998535 l3.63127738237381, -1.7430131137371063 4.357532858848572, -0.14525108970701694 l3.050273060798645, 0.5810043588280678 5.955294966697693, 3.3407750725746155 l-0.8715065568685532, -2.905021905899048 -6.681550145149231, -12.34634280204773 l0.14525108970701694, -1.452510952949524 2.6145195960998535, -2.0335152745246887 l-0.14525108970701694, -1.1620087176561356 -6.10054612159729, -7.988809943199158 l-5.955294966697693, -3.4860262274742126 -0.14525108970701694, -0.726255476474762 l5.955294966697693, -6.826801300048828 0.14525108970701694, -2.0335152745246887 l-0.8715065568685532, -1.8882642686367035 -2.4692685902118683, -2.178766429424286 m-0.14525108970701694, 0.726255476474762 l0.0, 0.0 m0.0, 0.0 l-5.374290347099304, -1.7430131137371063 -6.10054612159729, -0.5810043588280678 l-6.536298990249634, 0.2905021794140339 -8.715065717697144, 1.3072597980499268 l-1.3072597980499268, -3.63127738237381 -1.8882642686367035, -2.7597707509994507 l-1.8882642686367035, -1.7430131137371063 -2.6145195960998535, -0.726255476474762 l-3.776528537273407, 1.0167576372623444 -1.5977619588375092, 1.7430131137371063 l-2.324017435312271, 4.648034870624542 -0.726255476474762, 0.4357532784342766 l-3.3407750725746155, -2.178766429424286 -1.1620087176561356, 0.2905021794140339 m30.06697654724121, 12.636845111846924 l-3.63127738237381, -0.14525108970701694 -2.7597707509994507, 1.0167576372623444 l-1.8882642686367035, 1.7430131137371063 -2.0335152745246887, 3.050273060798645 l-1.3072597980499268, 3.776528537273407 -1.0167576372623444, 5.519541501998901 l0.14525108970701694, 3.050273060798645 1.8882642686367035, 5.08378803730011 l3.1955239176750183, 3.1955239176750183 4.502783715724945, 1.8882642686367035 l5.810043811798096, 1.3072597980499268 6.536298990249634, 0.726255476474762 l2.7597707509994507, -1.0167576372623444 2.178766429424286, -2.0335152745246887 l1.5977619588375092, -5.519541501998901 2.324017435312271, -14.815611839294434 l-0.5810043588280678, -2.7597707509994507 -1.1620087176561356, -2.4692685902118683 l-3.776528537273407, -4.212281703948975 -1.8882642686367035, -0.8715065568685532 l-6.536298990249634, 0.0 -2.178766429424286, 0.726255476474762 l-1.8882642686367035, 1.3072597980499268 " fill="none" stroke="black" stroke-width="1" /></svg>