<?xml version="1.0" encoding="utf-8" ?>
<svg baseProfile="full" height="55.46359119936824" version="1.1" width="57.06135326065123" xmlns="http://www.w3.org/2000/svg" xmlns:ev="http://www.w3.org/2001/xml-events" xmlns:xlink="http://www.w3.org/1999/xlink"><defs /><rect fill="white" height="55.46359119936824" width="57.06135326065123" x="0" y="0" /><path d="M42.76528161019087, 16.184334075078368 m-1.452510952949524, -1.5977619588375092 l-1.7430131137371063, -0.726255476474762 -7.8435587882995605, -0.14525108970701694 l-9.731823205947876, 2.178766429424286 -7.988809943199158, 4.793286025524139 l-3.050273060798645, 5.229039192199707 -0.4357532784342766, 4.067030549049377 l0.4357532784342766, 5.374290347099304 2.6145195960998535, 4.067030549049377 l4.793286025524139, 3.1955239176750183 5.955294966697693, 1.452510952949524 l7.1173036098480225, 0.2905021794140339 1.7430131137371063, -0.4357532784342766 l5.955294966697693, -3.9217793941497803 3.3407750725746155, -4.648034870624542 l2.0335152745246887, -4.357532858848572 -0.8715065568685532, -6.681550145149231 l-4.212281703948975, -7.698307633399963 -1.3072597980499268, -1.5977619588375092 l-1.5977619588375092, -0.5810043588280678 m-21.93291425704956, -3.3407750725746155 l0.2905021794140339, 6.2457966804504395 3.776528537273407, -8.279312252998352 l2.0335152745246887, 7.553057074546814 7.1173036098480225, -10.02232551574707 l0.14525108970701694, 3.776528537273407 0.8715065568685532, 4.648034870624542 l0.5810043588280678, 0.726255476474762 5.810043811798096, -9.877074360847473 l0.0, 2.7597707509994507 3.4860262274742126, -3.63127738237381 l-1.3072597980499268, 11.039083003997803 4.357532858848572, -2.4692685902118683 l4.938537180423737, -2.0335152745246887 -2.4692685902118683, 5.08378803730011 l-0.2905021794140339, 1.8882642686367035 2.0335152745246887, -0.2905021794140339 l-1.3072597980499268, 3.9217793941497803 -1.7430131137371063, 2.6145195960998535 l3.1955239176750183, 0.2905021794140339 5.955294966697693, -1.0167576372623444 l-8.279312252998352, 10.16757607460022 -0.726255476474762, 1.3072597980499268 l1.452510952949524, 0.0 -1.3072597980499268, 1.452510952949524 l-6.391047835350037, 3.63127738237381 1.7430131137371063, -3.776528537273407 l-2.178766429424286, 4.793286025524139 -1.1620087176561356, 1.452510952949524 l-0.8715065568685532, -0.2905021794140339 -4.067030549049377, 4.357532858848572 l-4.212281703948975, 3.3407750725746155 0.14525108970701694, -3.9217793941497803 l-1.5977619588375092, -0.2905021794140339 -11.184333562850952, 3.3407750725746155 l-2.324017435312271, -0.4357532784342766 0.4357532784342766, -4.067030549049377 l-1.7430131137371063, 0.5810043588280678 1.1620087176561356, -3.776528537273407 l-1.452510952949524, -0.5810043588280678 3.776528537273407, -3.4860262274742126 l-6.10054612159729, 2.7597707509994507 0.2905021794140339, -2.0335152745246887 l2.0335152745246887, -4.793286025524139 -0.8715065568685532, -0.726255476474762 l-3.63127738237381, 0.0 4.793286025524139, -7.553057074546814 l-1.1620087176561356, 0.2905021794140339 1.7430131137371063, -3.63127738237381 l-1.1620087176561356, 0.0 2.0335152745246887, -6.681550145149231 l1.3072597980499268, -1.1620087176561356 0.4357532784342766, 0.726255476474762 m11.329585313796997, 5.955294966697693 l-1.452510952949524, 0.726255476474762 -1.3072597980499268, 1.8882642686367035 l0.4357532784342766, 2.178766429424286 1.1620087176561356, 0.14525108970701694 l1.8882642686367035, -1.1620087176561356 0.8715065568685532, -1.5977619588375092 l0.0, -1.7430131137371063 -0.726255476474762, -0.8715065568685532 l-1.8882642686367035, -0.8715065568685532 -0.2905021794140339, 1.452510952949524 m10.02232551574707, 0.5810043588280678 l-0.14525108970701694, -0.726255476474762 -3.3407750725746155, -0.726255476474762 l-2.178766429424286, 1.452510952949524 -0.4357532784342766, 1.5977619588375092 l1.0167576372623444, 1.1620087176561356 1.452510952949524, 0.4357532784342766 l4.357532858848572, 0.4357532784342766 1.1620087176561356, -0.2905021794140339 l0.4357532784342766, -0.726255476474762 0.0, -1.8882642686367035 l-0.726255476474762, -1.452510952949524 -1.452510952949524, -0.8715065568685532 l-2.4692685902118683, -0.14525108970701694 -1.5977619588375092, 1.1620087176561356 m-14.670360088348389, 9.150818586349487 l16.558624505996704, 1.3072597980499268 0.0, 1.1620087176561356 l-1.8882642686367035, 4.938537180423737 -1.452510952949524, -3.4860262274742126 l-1.1620087176561356, 2.0335152745246887 -1.3072597980499268, -3.1955239176750183 l-2.178766429424286, 3.3407750725746155 -1.0167576372623444, -0.5810043588280678 l-2.905021905899048, -4.938537180423737 -2.905021905899048, 3.9217793941497803 " fill="none" stroke="black" stroke-width="1" /></svg>