<?xml version="1.0" encoding="utf-8" ?>
<svg baseProfile="full" height="37.01670330949128" version="1.1" width="38.323962688446045" xmlns="http://www.w3.org/2000/svg" xmlns:ev="http://www.w3.org/2001/xml-events" xmlns:xlink="http://www.w3.org/1999/xlink"><defs /><rect fill="white" height="37.01670330949128" width="38.323962688446045" x="0" y="0" /><path d="M12.553057596087456, 16.620087204501033 m0.0, 6.972052454948425 l0.4357532784342766, 0.726255476474762 5.229039192199707, 3.050273060798645 l1.5977619588375092, -0.2905021794140339 2.178766429424286, -1.452510952949524 l1.452510952949524, -1.5977619588375092 1.452510952949524, -3.1955239176750183 l0.0, -2.905021905899048 -0.4357532784342766, -0.8715065568685532 l-2.905021905899048, -1.8882642686367035 -6.681550145149231, 0.2905021794140339 l-1.7430131137371063, 0.726255476474762 m-0.5810043588280678, 0.14525108970701694 l-1.452510952949524, 0.4357532784342766 -1.452510952949524, -0.4357532784342766 l0.0, -2.178766429424286 0.726255476474762, -0.5810043588280678 l2.4692685902118683, -0.4357532784342766 2.4692685902118683, 1.0167576372623444 l0.14525108970701694, 0.5810043588280678 m7.8435587882995605, 1.3072597980499268 l6.2457966804504395, 0.14525108970701694 0.0, -1.452510952949524 l-0.5810043588280678, -0.726255476474762 -1.452510952949524, -1.1620087176561356 l-3.776528537273407, -0.2905021794140339 -1.3072597980499268, 1.452510952949524 l-0.14525108970701694, 0.8715065568685532 m-7.1173036098480225, -6.391047835350037 l-0.726255476474762, -0.2905021794140339 -4.938537180423737, 1.1620087176561356 l-2.324017435312271, 1.1620087176561356 -1.0167576372623444, 1.8882642686367035 l1.0167576372623444, 4.067030549049377 -2.178766429424286, 3.3407750725746155 l0.0, 2.7597707509994507 1.0167576372623444, 1.5977619588375092 l2.178766429424286, 0.4357532784342766 0.5810043588280678, 0.8715065568685532 l-1.3072597980499268, 3.4860262274742126 0.0, 0.726255476474762 l0.726255476474762, 0.4357532784342766 5.810043811798096, 0.0 l6.2457966804504395, 1.8882642686367035 0.4357532784342766, -2.905021905899048 l0.726255476474762, -0.4357532784342766 6.2457966804504395, -0.14525108970701694 l1.5977619588375092, -0.726255476474762 0.726255476474762, -1.5977619588375092 l-0.726255476474762, -3.050273060798645 3.050273060798645, -3.4860262274742126 l1.0167576372623444, -2.4692685902118683 -1.452510952949524, -0.14525108970701694 l0.2905021794140339, -6.681550145149231 -0.8715065568685532, -0.5810043588280678 l-5.229039192199707, 0.14525108970701694 -1.452510952949524, 0.4357532784342766 l-0.5810043588280678, -2.4692685902118683 -2.905021905899048, -2.905021905899048 l-2.178766429424286, 3.9217793941497803 -0.726255476474762, 0.0 l-1.452510952949524, -1.0167576372623444 -1.452510952949524, 0.0 m1.452510952949524, 11.910589933395386 l-0.14525108970701694, 0.0 m3.9217793941497803, 0.5810043588280678 l0.14525108970701694, 0.0 m-5.08378803730011, 2.905021905899048 l3.050273060798645, 0.0 1.1620087176561356, -0.4357532784342766 " fill="none" stroke="black" stroke-width="1" /></svg>