<?xml version="1.0" encoding="utf-8" ?>
<svg baseProfile="full" height="69.1171941254288" version="1.1" width="63.888156078755856" xmlns="http://www.w3.org/2000/svg" xmlns:ev="http://www.w3.org/2001/xml-events" xmlns:xlink="http://www.w3.org/1999/xlink"><defs /><rect fill="white" height="69.1171941254288" width="63.888156078755856" x="0" y="0" /><path d="M29.111681059002876, 19.81561136431992 m-0.726255476474762, -0.5810043588280678 l-4.212281703948975, -0.14525108970701694 -2.4692685902118683, 1.1620087176561356 l-3.050273060798645, 4.793286025524139 -0.4357532784342766, 5.6647926568984985 l-3.9217793941497803, 4.357532858848572 -0.5810043588280678, 0.8715065568685532 l-0.14525108970701694, 1.452510952949524 0.726255476474762, 0.726255476474762 l1.7430131137371063, 0.5810043588280678 4.212281703948975, 0.0 l5.810043811798096, -2.905021905899048 3.050273060798645, -3.9217793941497803 l0.726255476474762, -2.178766429424286 0.4357532784342766, -8.569814562797546 m-8.279312252998352, -5.6647926568984985 l3.63127738237381, -3.9217793941497803 4.648034870624542, -3.4860262274742126 l5.519541501998901, -2.4692685902118683 2.6145195960998535, -0.5810043588280678 l-2.7597707509994507, 1.8882642686367035 -2.6145195960998535, 3.9217793941497803 l-0.5810043588280678, 1.7430131137371063 0.0, 5.519541501998901 l0.726255476474762, 0.0 3.4860262274742126, -2.178766429424286 l3.4860262274742126, -0.5810043588280678 4.212281703948975, 0.14525108970701694 l2.7597707509994507, 1.8882642686367035 1.5977619588375092, 1.7430131137371063 l1.0167576372623444, 2.324017435312271 1.7430131137371063, 10.312827825546265 l0.14525108970701694, 5.229039192199707 -0.4357532784342766, 2.324017435312271 l0.14525108970701694, -6.681550145149231 -0.4357532784342766, -0.8715065568685532 l-4.212281703948975, -3.9217793941497803 -3.4860262274742126, -1.1620087176561356 l-4.212281703948975, 0.0 -1.5977619588375092, 0.726255476474762 l-0.5810043588280678, 0.726255476474762 3.4860262274742126, 5.955294966697693 l0.726255476474762, 4.067030549049377 0.5810043588280678, 7.553057074546814 l-1.0167576372623444, 3.1955239176750183 -3.050273060798645, 4.648034870624542 l-2.905021905899048, 2.905021905899048 1.1620087176561356, -4.357532858848572 l0.14525108970701694, -5.229039192199707 -1.7430131137371063, -3.3407750725746155 l-2.178766429424286, -2.6145195960998535 -0.726255476474762, 0.726255476474762 l-0.2905021794140339, 4.502783715724945 -6.681550145149231, 7.407805919647217 l-0.5810043588280678, 1.1620087176561356 -0.8715065568685532, 3.9217793941497803 l0.2905021794140339, 2.905021905899048 -2.4692685902118683, -7.8435587882995605 l0.14525108970701694, -4.502783715724945 2.324017435312271, -5.810043811798096 l-8.42456340789795, 3.63127738237381 -0.4357532784342766, -1.1620087176561356 l3.776528537273407, -6.10054612159729 m5.519541501998901, -23.385426998138428 l-2.324017435312271, -3.63127738237381 -1.7430131137371063, -1.1620087176561356 l-3.776528537273407, -1.3072597980499268 -5.6647926568984985, -0.2905021794140339 l3.050273060798645, 0.2905021794140339 2.178766429424286, 2.178766429424286 l0.8715065568685532, 2.324017435312271 0.726255476474762, 5.374290347099304 l-0.2905021794140339, 1.3072597980499268 -2.4692685902118683, 2.0335152745246887 l-1.0167576372623444, 0.0 -3.1955239176750183, 1.3072597980499268 l-3.3407750725746155, 2.905021905899048 -1.452510952949524, 2.324017435312271 l-0.14525108970701694, 3.776528537273407 0.0, -1.1620087176561356 l1.7430131137371063, -2.324017435312271 3.050273060798645, -1.5977619588375092 l4.212281703948975, -0.14525108970701694 1.3072597980499268, 0.4357532784342766 l1.1620087176561356, 1.5977619588375092 0.14525108970701694, 2.324017435312271 m25.854694843292236, -4.502783715724945 l4.357532858848572, 1.1620087176561356 4.357532858848572, 0.0 m1.452510952949524, -1.1620087176561356 l4.938537180423737, 1.0167576372623444 0.8715065568685532, 0.8715065568685532 l0.4357532784342766, 4.212281703948975 m-17.575381994247437, -6.536298990249634 l-3.63127738237381, -0.14525108970701694 -3.63127738237381, 0.8715065568685532 m-3.9217793941497803, 18.882641792297363 l0.4357532784342766, 1.452510952949524 4.502783715724945, 0.2905021794140339 m-2.4692685902118683, -1.452510952949524 l0.4357532784342766, 4.793286025524139 -1.7430131137371063, 10.458078384399414 l4.067030549049377, 1.0167576372623444 2.905021905899048, 0.0 l1.7430131137371063, -0.8715065568685532 2.324017435312271, -4.067030549049377 l0.2905021794140339, -6.972052454948425 1.452510952949524, -4.938537180423737 l8.569814562797546, 0.14525108970701694 0.4357532784342766, 1.452510952949524 l-0.5810043588280678, 2.4692685902118683 0.0, 6.536298990249634 l0.4357532784342766, 1.3072597980499268 1.3072597980499268, 1.0167576372623444 l2.905021905899048, 0.0 1.5977619588375092, -4.793286025524139 l0.14525108970701694, -19.6088969707489 m-34.13400650024414, -8.134061098098755 l-1.8882642686367035, 0.5810043588280678 1.0167576372623444, 0.14525108970701694 l4.502783715724945, -1.8882642686367035 -3.776528537273407, 0.5810043588280678 l-3.050273060798645, 1.1620087176561356 6.2457966804504395, -1.452510952949524 l-2.7597707509994507, 1.1620087176561356 " fill="none" stroke="black" stroke-width="1" /></svg>