<?xml version="1.0" encoding="utf-8" ?>
<svg baseProfile="full" height="53.865829734131694" version="1.1" width="57.93286039493978" xmlns="http://www.w3.org/2000/svg" xmlns:ev="http://www.w3.org/2001/xml-events" xmlns:xlink="http://www.w3.org/1999/xlink"><defs /><rect fill="white" height="53.865829734131694" width="57.93286039493978" x="0" y="0" /><path d="M22.5753821618855, 11.391047853976488 m-1.452510952949524, 2.178766429424286 l-1.5977619588375092, 5.810043811798096 0.2905021794140339, 9.877074360847473 l1.0167576372623444, 3.3407750725746155 3.3407750725746155, 5.519541501998901 l4.648034870624542, 1.452510952949524 3.4860262274742126, -0.2905021794140339 l1.7430131137371063, -1.1620087176561356 1.1620087176561356, -1.7430131137371063 l0.4357532784342766, -1.5977619588375092 -0.14525108970701694, -5.6647926568984985 l-3.050273060798645, -7.26255476474762 -2.7597707509994507, -3.63127738237381 l-5.6647926568984985, -5.6647926568984985 -3.63127738237381, -1.1620087176561356 m5.229039192199707, 13.94410490989685 l-0.2905021794140339, 2.7597707509994507 0.726255476474762, 0.2905021794140339 l0.726255476474762, -0.5810043588280678 0.2905021794140339, -1.452510952949524 l-0.2905021794140339, -0.726255476474762 -0.4357532784342766, 0.0 m0.5810043588280678, 1.8882642686367035 l-0.14525108970701694, 2.324017435312271 0.726255476474762, 4.793286025524139 l-0.726255476474762, 0.4357532784342766 -0.8715065568685532, -1.452510952949524 m0.8715065568685532, -6.972052454948425 l1.0167576372623444, 3.1955239176750183 1.452510952949524, 2.324017435312271 l1.452510952949524, 0.5810043588280678 0.4357532784342766, -1.0167576372623444 m-9.731823205947876, -14.08935546875 l0.726255476474762, 2.0335152745246887 0.5810043588280678, -0.14525108970701694 m4.212281703948975, -1.8882642686367035 l1.1620087176561356, 1.8882642686367035 -0.14525108970701694, -1.1620087176561356 m-12.782095670700073, -7.8435587882995605 l-8.134061098098755, -0.14525108970701694 -0.2905021794140339, 0.726255476474762 l2.6145195960998535, 5.08378803730011 -4.212281703948975, 1.0167576372623444 l-0.14525108970701694, 0.726255476474762 1.5977619588375092, 1.7430131137371063 l4.793286025524139, 2.905021905899048 1.1620087176561356, 1.452510952949524 l-2.6145195960998535, 2.905021905899048 -0.5810043588280678, 1.452510952949524 l2.178766429424286, 0.2905021794140339 0.726255476474762, 0.4357532784342766 l0.14525108970701694, 0.726255476474762 -0.14525108970701694, 1.452510952949524 l-2.324017435312271, 5.374290347099304 3.3407750725746155, -0.4357532784342766 l0.8715065568685532, 0.14525108970701694 0.2905021794140339, 0.726255476474762 l-1.0167576372623444, 6.391047835350037 0.2905021794140339, 2.4692685902118683 l3.4860262274742126, -1.8882642686367035 2.0335152745246887, -0.5810043588280678 l0.8715065568685532, 0.4357532784342766 0.5810043588280678, 1.1620087176561356 l0.2905021794140339, 3.1955239176750183 0.8715065568685532, 0.5810043588280678 l7.698307633399963, -2.324017435312271 -1.0167576372623444, 0.4357532784342766 l0.8715065568685532, 0.5810043588280678 5.374290347099304, 0.14525108970701694 l3.3407750725746155, -0.726255476474762 0.2905021794140339, -2.4692685902118683 l-1.3072597980499268, -1.1620087176561356 7.1173036098480225, -1.1620087176561356 l0.5810043588280678, -0.726255476474762 -1.5977619588375092, -4.067030549049377 l-0.14525108970701694, -2.7597707509994507 1.452510952949524, -1.5977619588375092 l2.178766429424286, -0.8715065568685532 -1.5977619588375092, -1.1620087176561356 l-0.8715065568685532, -1.5977619588375092 0.5810043588280678, -0.8715065568685532 l6.972052454948425, -2.7597707509994507 1.1620087176561356, -1.3072597980499268 l-1.3072597980499268, -1.5977619588375092 -5.955294966697693, -2.7597707509994507 l0.0, -0.8715065568685532 4.357532858848572, -2.6145195960998535 l-0.2905021794140339, -1.5977619588375092 -1.8882642686367035, -1.3072597980499268 l-7.407805919647217, -3.050273060798645 -0.2905021794140339, -0.726255476474762 l0.4357532784342766, -1.452510952949524 -0.726255476474762, -0.4357532784342766 l-7.1173036098480225, -3.050273060798645 -0.726255476474762, 1.7430131137371063 l-0.8715065568685532, 0.5810043588280678 -5.955294966697693, -0.726255476474762 l-3.3407750725746155, 1.1620087176561356 -1.7430131137371063, -0.5810043588280678 l-1.452510952949524, 1.3072597980499268 -2.178766429424286, -0.8715065568685532 l-0.5810043588280678, 0.726255476474762 0.5810043588280678, 3.1955239176750183 l-0.726255476474762, -0.5810043588280678 0.0, -1.0167576372623444 " fill="none" stroke="black" stroke-width="1" /></svg>