<?xml version="1.0" encoding="utf-8" ?>
<svg baseProfile="full" height="58.22336269542575" version="1.1" width="84.51380932703614" xmlns="http://www.w3.org/2000/svg" xmlns:ev="http://www.w3.org/2001/xml-events" xmlns:xlink="http://www.w3.org/1999/xlink"><defs /><rect fill="white" height="58.22336269542575" width="84.51380932703614" x="0" y="0" /><path d="M34.631222831085324, 13.56981499120593 m-3.050273060798645, -0.14525108970701694 l-6.10054612159729, 1.452510952949524 -4.648034870624542, 3.1955239176750183 l-2.178766429424286, 3.1955239176750183 -0.8715065568685532, 4.357532858848572 l0.4357532784342766, 4.502783715724945 2.178766429424286, 3.63127738237381 l1.452510952949524, 1.1620087176561356 3.63127738237381, 1.3072597980499268 l5.6647926568984985, 0.14525108970701694 2.0335152745246887, -0.726255476474762 l1.5977619588375092, -1.1620087176561356 2.6145195960998535, -3.1955239176750183 l2.0335152745246887, -4.938537180423737 0.2905021794140339, -5.374290347099304 l-1.1620087176561356, -2.905021905899048 -2.4692685902118683, -3.63127738237381 l-1.7430131137371063, -1.452510952949524 -1.1620087176561356, -0.14525108970701694 m4.067030549049377, 15.396615266799927 l6.536298990249634, -1.1620087176561356 12.055840492248535, -0.14525108970701694 l7.553057074546814, 1.3072597980499268 4.212281703948975, 2.178766429424286 l1.452510952949524, 2.178766429424286 -3.63127738237381, 1.7430131137371063 l-9.731823205947876, 1.8882642686367035 -12.927347421646118, 0.2905021794140339 l-8.715065717697144, -0.8715065568685532 m6.681550145149231, -2.0335152745246887 l-1.0167576372623444, 15.251364707946777 0.4357532784342766, 2.905021905899048 l1.1620087176561356, 1.452510952949524 0.8715065568685532, -0.14525108970701694 l0.726255476474762, -1.0167576372623444 1.452510952949524, -3.63127738237381 l1.8882642686367035, -10.603330135345459 m9.296069741249084, -1.5977619588375092 l0.14525108970701694, 12.34634280204773 1.452510952949524, 1.8882642686367035 l1.1620087176561356, -0.14525108970701694 1.8882642686367035, -2.7597707509994507 l0.726255476474762, -4.938537180423737 0.0, -6.2457966804504395 m6.826801300048828, -7.698307633399963 l4.502783715724945, -8.569814562797546 1.7430131137371063, -2.4692685902118683 l2.178766429424286, -0.726255476474762 2.324017435312271, 0.4357532784342766 l0.726255476474762, 1.1620087176561356 0.2905021794140339, 2.6145195960998535 l-0.4357532784342766, 1.1620087176561356 -2.905021905899048, 3.4860262274742126 l-8.86031687259674, 6.681550145149231 m-50.256876945495605, -8.86031687259674 l-3.63127738237381, -3.776528537273407 -3.776528537273407, -6.2457966804504395 l6.536298990249634, 3.776528537273407 3.9217793941497803, 0.726255476474762 l0.726255476474762, -0.8715065568685532 0.4357532784342766, -3.1955239176750183 l-2.0335152745246887, -8.134061098098755 8.86031687259674, 7.988809943199158 l2.0335152745246887, -0.726255476474762 1.3072597980499268, -8.134061098098755 l0.8715065568685532, 0.0 2.0335152745246887, 6.681550145149231 l0.726255476474762, 0.5810043588280678 1.7430131137371063, -0.2905021794140339 l3.776528537273407, -3.776528537273407 3.1955239176750183, -1.7430131137371063 l-0.5810043588280678, 1.8882642686367035 -6.10054612159729, 5.519541501998901 l5.229039192199707, 0.14525108970701694 2.7597707509994507, 0.5810043588280678 l1.7430131137371063, 1.1620087176561356 0.4357532784342766, 1.8882642686367035 l-0.8715065568685532, 1.1620087176561356 -12.491593360900879, 6.681550145149231 l5.08378803730011, 2.905021905899048 1.7430131137371063, 1.5977619588375092 l1.0167576372623444, 2.4692685902118683 0.0, 3.1955239176750183 l-2.178766429424286, 3.1955239176750183 -1.5977619588375092, 1.452510952949524 l-3.3407750725746155, 1.5977619588375092 -3.1955239176750183, 0.14525108970701694 l-2.0335152745246887, -1.452510952949524 -0.4357532784342766, -0.8715065568685532 l-0.14525108970701694, -1.5977619588375092 0.8715065568685532, -0.14525108970701694 l0.5810043588280678, 0.8715065568685532 -0.14525108970701694, 0.726255476474762 l-2.324017435312271, 0.726255476474762 -9.296069741249084, 0.14525108970701694 l-2.178766429424286, -0.5810043588280678 -0.2905021794140339, -0.726255476474762 l1.0167576372623444, -1.7430131137371063 5.519541501998901, -3.3407750725746155 l4.212281703948975, -1.8882642686367035 -8.279312252998352, 2.324017435312271 l-5.374290347099304, 0.14525108970701694 -4.648034870624542, -1.1620087176561356 l-3.050273060798645, -2.178766429424286 -0.14525108970701694, -1.5977619588375092 l0.4357532784342766, -1.0167576372623444 1.1620087176561356, -0.8715065568685532 l3.4860262274742126, -1.5977619588375092 3.4860262274742126, -0.726255476474762 l-5.229039192199707, -1.452510952949524 -2.7597707509994507, -1.8882642686367035 l-0.726255476474762, -0.8715065568685532 -0.14525108970701694, -1.0167576372623444 l0.0, -1.1620087176561356 0.726255476474762, -1.1620087176561356 l1.5977619588375092, -1.1620087176561356 3.776528537273407, -1.0167576372623444 l5.374290347099304, 0.0 2.7597707509994507, 1.1620087176561356 l-1.8882642686367035, -8.86031687259674 3.3407750725746155, 4.357532858848572 l0.8715065568685532, 0.4357532784342766 " fill="none" stroke="black" stroke-width="1" /></svg>