<?xml version="1.0" encoding="utf-8" ?>
<svg baseProfile="full" height="55.17308982089162" version="1.1" width="69.11719487980008" xmlns="http://www.w3.org/2000/svg" xmlns:ev="http://www.w3.org/2001/xml-events" xmlns:xlink="http://www.w3.org/1999/xlink"><defs /><rect fill="white" height="55.17308982089162" width="69.11719487980008" x="0" y="0" /><path d="M25.770906303077936, 8.631277391687036 m-2.7597707509994507, -0.726255476474762 l-0.8715065568685532, 0.2905021794140339 -13.94410490989685, 6.972052454948425 l-2.905021905899048, 3.4860262274742126 -0.2905021794140339, 2.7597707509994507 l1.7430131137371063, 2.905021905899048 1.0167576372623444, 0.8715065568685532 l5.810043811798096, 1.0167576372623444 3.776528537273407, 0.0 l0.726255476474762, 0.4357532784342766 0.0, 1.3072597980499268 l-1.5977619588375092, 4.357532858848572 -0.726255476474762, 3.776528537273407 l0.2905021794140339, 3.1955239176750183 1.452510952949524, 1.8882642686367035 l2.6145195960998535, 1.3072597980499268 3.63127738237381, 0.5810043588280678 l4.502783715724945, -0.14525108970701694 4.357532858848572, -1.452510952949524 l2.905021905899048, 6.536298990249634 1.7430131137371063, 1.452510952949524 l1.8882642686367035, 0.726255476474762 1.8882642686367035, 0.0 l2.0335152745246887, -1.1620087176561356 2.324017435312271, -2.324017435312271 l4.357532858848572, -6.2457966804504395 13.363100290298462, -8.86031687259674 l1.0167576372623444, -3.3407750725746155 -0.5810043588280678, -1.452510952949524 l-3.1955239176750183, -2.6145195960998535 -2.6145195960998535, -0.726255476474762 l-1.7430131137371063, 1.1620087176561356 -0.2905021794140339, 1.5977619588375092 l1.7430131137371063, -2.905021905899048 1.1620087176561356, -3.776528537273407 l1.3072597980499268, -9.586572051048279 -3.4860262274742126, -0.2905021794140339 l-3.1955239176750183, -2.7597707509994507 -4.067030549049377, -1.8882642686367035 l-20.04465103149414, 0.8715065568685532 -4.357532858848572, 0.5810043588280678 l-6.826801300048828, 2.178766429424286 4.793286025524139, -0.14525108970701694 l3.3407750725746155, 1.3072597980499268 m3.9217793941497803, 19.6088969707489 l-3.3407750725746155, -1.452510952949524 -2.324017435312271, -1.8882642686367035 l-2.178766429424286, -3.3407750725746155 -0.5810043588280678, -5.08378803730011 l0.726255476474762, -2.178766429424286 1.1620087176561356, -1.7430131137371063 l1.1620087176561356, -0.726255476474762 3.4860262274742126, -0.726255476474762 l2.7597707509994507, 0.0 2.324017435312271, 1.0167576372623444 l7.8435587882995605, 0.2905021794140339 1.452510952949524, 1.0167576372623444 l1.5977619588375092, 4.502783715724945 1.3072597980499268, 5.810043811798096 l0.0, 4.793286025524139 -2.0335152745246887, 4.793286025524139 l-3.3407750725746155, 2.4692685902118683 -4.212281703948975, 1.1620087176561356 l-6.10054612159729, -4.357532858848572 -2.178766429424286, -5.6647926568984985 l1.1620087176561356, -3.4860262274742126 m6.391047835350037, 0.8715065568685532 l0.0, -2.324017435312271 0.14525108970701694, 4.793286025524139 l1.452510952949524, 0.8715065568685532 2.4692685902118683, -4.502783715724945 l-1.5977619588375092, -0.2905021794140339 " fill="none" stroke="black" stroke-width="1" /></svg>