<?xml version="1.0" encoding="utf-8" ?>
<svg baseProfile="full" height="73.61997838132083" version="1.1" width="115.88804790750146" xmlns="http://www.w3.org/2000/svg" xmlns:ev="http://www.w3.org/2001/xml-events" xmlns:xlink="http://www.w3.org/1999/xlink"><defs /><rect fill="white" height="73.61997838132083" width="115.88804790750146" x="0" y="0" /><path d="M9.648035019636154, 46.832314217463136 m-2.178766429424286, 12.636845111846924 l-2.4692685902118683, 8.86031687259674 12.782095670700073, 0.2905021794140339 l-0.4357532784342766, -4.357532858848572 0.0, -13.217849731445312 l0.2905021794140339, -5.08378803730011 1.1620087176561356, -5.955294966697693 l-0.726255476474762, -0.2905021794140339 -1.452510952949524, 1.0167576372623444 l-3.3407750725746155, 5.08378803730011 -2.905021905899048, 2.178766429424286 l2.0335152745246887, -5.810043811798096 5.374290347099304, -4.648034870624542 l2.905021905899048, -1.7430131137371063 5.229039192199707, -1.452510952949524 l21.93291425704956, -1.1620087176561356 4.648034870624542, -0.726255476474762 l2.905021905899048, -1.1620087176561356 5.229039192199707, -1.1620087176561356 l2.324017435312271, 0.0 7.553057074546814, -1.3072597980499268 l3.63127738237381, 0.14525108970701694 0.5810043588280678, 1.452510952949524 l-1.3072597980499268, 4.502783715724945 -3.63127738237381, 5.6647926568984985 l-2.7597707509994507, 2.0335152745246887 -4.212281703948975, 1.7430131137371063 l-3.3407750725746155, 0.5810043588280678 -9.877074360847473, 0.4357532784342766 l-6.972052454948425, -0.14525108970701694 -2.178766429424286, -0.4357532784342766 l-9.877074360847473, 0.14525108970701694 -19.318394660949707, 1.7430131137371063 l-3.9217793941497803, 1.0167576372623444 2.4692685902118683, 0.2905021794140339 m60.42445659637451, -21.061408519744873 l0.4357532784342766, -3.9217793941497803 3.63127738237381, -9.877074360847473 l0.14525108970701694, 3.776528537273407 -1.3072597980499268, 8.86031687259674 l6.681550145149231, -12.491593360900879 0.2905021794140339, 2.324017435312271 l-0.726255476474762, 3.9217793941497803 -2.905021905899048, 8.86031687259674 l1.3072597980499268, -6.536298990249634 3.9217793941497803, -12.20109224319458 l1.0167576372623444, -4.648034870624542 -2.324017435312271, 18.44688892364502 l-0.726255476474762, 1.7430131137371063 -3.776528537273407, 5.374290347099304 m-6.391047835350037, 11.910589933395386 l-0.8715065568685532, 6.10054612159729 -3.1955239176750183, 8.715065717697144 l1.3072597980499268, -6.826801300048828 0.0, -9.586572051048279 l-0.2905021794140339, -1.452510952949524 -1.452510952949524, 4.212281703948975 l-1.5977619588375092, 9.296069741249084 -0.2905021794140339, 5.810043811798096 l0.8715065568685532, 2.324017435312271 0.726255476474762, 0.4357532784342766 l0.8715065568685532, -0.4357532784342766 2.905021905899048, -4.067030549049377 l4.067030549049377, -7.407805919647217 3.3407750725746155, -8.715065717697144 l0.8715065568685532, -5.08378803730011 0.14525108970701694, -2.905021905899048 l-0.4357532784342766, 0.8715065568685532 -8.42456340789795, 25.564191341400146 l1.8882642686367035, -5.374290347099304 2.324017435312271, -12.491593360900879 l0.0, -2.4692685902118683 -1.452510952949524, -4.502783715724945 l1.8882642686367035, -3.050273060798645 1.1620087176561356, -3.1955239176750183 l2.324017435312271, -2.905021905899048 13.363100290298462, -5.08378803730011 l2.4692685902118683, 2.324017435312271 2.178766429424286, 3.63127738237381 l1.5977619588375092, 3.63127738237381 -0.14525108970701694, 2.178766429424286 l-2.324017435312271, 5.519541501998901 -1.1620087176561356, 4.357532858848572 l-3.3407750725746155, 3.3407750725746155 -0.8715065568685532, 0.726255476474762 l-3.9217793941497803, 0.2905021794140339 -3.1955239176750183, 0.0 l0.14525108970701694, -0.5810043588280678 m15.541867017745972, -19.754148721694946 l3.776528537273407, 3.050273060798645 5.08378803730011, 2.324017435312271 l5.519541501998901, 4.067030549049377 -0.14525108970701694, 2.178766429424286 l-2.905021905899048, 2.4692685902118683 -2.324017435312271, 1.452510952949524 l-1.5977619588375092, 0.4357532784342766 -13.508352041244507, 0.8715065568685532 l-7.553057074546814, 1.0167576372623444 m-30.9384822845459, 3.4860262274742126 l0.14525108970701694, 9.731823205947876 -0.8715065568685532, 1.5977619588375092 l0.2905021794140339, 0.726255476474762 1.5977619588375092, 0.4357532784342766 l3.1955239176750183, -1.1620087176561356 1.0167576372623444, -4.212281703948975 l0.0, -3.63127738237381 -0.726255476474762, -2.4692685902118683 l-0.4357532784342766, -5.6647926568984985 -0.4357532784342766, 0.14525108970701694 m-15.977619886398315, 1.452510952949524 l0.5810043588280678, 8.42456340789795 1.452510952949524, 0.8715065568685532 l1.452510952949524, 0.14525108970701694 2.905021905899048, -1.1620087176561356 l0.8715065568685532, -1.452510952949524 -0.2905021794140339, -7.26255476474762 m-19.899399280548096, 4.938537180423737 " fill="none" stroke="black" stroke-width="1" /></svg>