<?xml version="1.0" encoding="utf-8" ?>
<svg baseProfile="full" height="51.25130973756313" version="1.1" width="48.78204150125384" xmlns="http://www.w3.org/2000/svg" xmlns:ev="http://www.w3.org/2001/xml-events" xmlns:xlink="http://www.w3.org/1999/xlink"><defs /><rect fill="white" height="51.25130973756313" width="48.78204150125384" x="0" y="0" /><path d="M11.100545851513743, 35.9384829364717 m-1.5977619588375092, -0.2905021794140339 l-1.8882642686367035, -1.8882642686367035 -1.452510952949524, -2.6145195960998535 l0.14525108970701694, -2.6145195960998535 0.8715065568685532, -0.8715065568685532 l-1.5977619588375092, -2.7597707509994507 -0.5810043588280678, -5.955294966697693 l0.5810043588280678, -1.452510952949524 2.0335152745246887, -1.7430131137371063 l6.972052454948425, -2.905021905899048 2.7597707509994507, 0.0 l0.5810043588280678, 1.5977619588375092 0.2905021794140339, -2.0335152745246887 l1.0167576372623444, -2.178766429424286 1.3072597980499268, -1.452510952949524 l2.0335152745246887, -1.7430131137371063 3.4860262274742126, -1.5977619588375092 l2.0335152745246887, -0.4357532784342766 2.0335152745246887, 0.14525108970701694 l2.324017435312271, 2.0335152745246887 2.178766429424286, 5.08378803730011 l1.5977619588375092, 1.3072597980499268 1.0167576372623444, -0.2905021794140339 l3.4860262274742126, -2.905021905899048 1.7430131137371063, 0.0 l0.5810043588280678, 1.0167576372623444 0.726255476474762, 3.1955239176750183 l0.0, 2.4692685902118683 -4.502783715724945, 10.748580694198608 l0.0, 0.726255476474762 1.5977619588375092, 0.0 l0.5810043588280678, 0.726255476474762 0.0, 1.3072597980499268 l-6.391047835350037, 9.877074360847473 -2.0335152745246887, 0.8715065568685532 l-6.972052454948425, 0.0 -2.6145195960998535, 0.726255476474762 l-5.374290347099304, 4.067030549049377 -0.8715065568685532, 0.14525108970701694 l-1.3072597980499268, 0.0 -1.1620087176561356, -0.726255476474762 l-1.5977619588375092, -2.6145195960998535 -0.4357532784342766, -2.324017435312271 m16.558624505996704, -20.33515214920044 l1.8882642686367035, -1.3072597980499268 2.324017435312271, 0.14525108970701694 l-0.2905021794140339, 2.905021905899048 m-19.6088969707489, 1.7430131137371063 l0.4357532784342766, -1.5977619588375092 1.7430131137371063, -2.0335152745246887 l2.7597707509994507, -0.5810043588280678 1.3072597980499268, 0.8715065568685532 m-3.63127738237381, 1.1620087176561356 l1.1620087176561356, 0.5810043588280678 0.8715065568685532, 1.7430131137371063 l-1.8882642686367035, 0.2905021794140339 0.4357532784342766, -1.7430131137371063 m12.34634280204773, 0.0 l0.8715065568685532, 0.726255476474762 -0.4357532784342766, 1.1620087176561356 l-1.8882642686367035, 0.5810043588280678 0.14525108970701694, -1.1620087176561356 m-3.9217793941497803, -1.5977619588375092 l-0.726255476474762, 3.776528537273407 -2.178766429424286, 4.648034870624542 l0.0, 1.0167576372623444 1.8882642686367035, 0.0 l0.2905021794140339, -0.5810043588280678 " fill="none" stroke="black" stroke-width="1" /></svg>