<?xml version="1.0" encoding="utf-8" ?>
<svg baseProfile="full" height="129.10589513368905" version="1.1" width="119.66457573696971" xmlns="http://www.w3.org/2000/svg" xmlns:ev="http://www.w3.org/2001/xml-events" xmlns:xlink="http://www.w3.org/1999/xlink"><defs /><rect fill="white" height="129.10589513368905" width="119.66457573696971" x="0" y="0" /><path d="M33.90496606938541, 66.00545961409807 m6.826801300048828, -3.050273060798645 l3.776528537273407, 0.5810043588280678 3.776528537273407, 1.452510952949524 l-0.14525108970701694, 1.7430131137371063 -1.7430131137371063, 3.3407750725746155 l-6.536298990249634, 9.731823205947876 -1.1620087176561356, 2.6145195960998535 l-0.14525108970701694, -8.279312252998352 -1.7430131137371063, -6.391047835350037 m12.055840492248535, -3.3407750725746155 l4.357532858848572, -1.5977619588375092 6.681550145149231, -1.1620087176561356 l0.4357532784342766, 1.3072597980499268 -1.3072597980499268, 5.08378803730011 l-4.067030549049377, 7.698307633399963 -1.5977619588375092, 4.357532858848572 l-0.8715065568685532, -6.536298990249634 -2.324017435312271, -7.1173036098480225 m13.217849731445312, -3.3407750725746155 l1.5977619588375092, -0.726255476474762 2.6145195960998535, 0.0 l3.63127738237381, 1.3072597980499268 2.178766429424286, 1.5977619588375092 l-3.1955239176750183, 15.977619886398315 -0.5810043588280678, -2.178766429424286 l-3.9217793941497803, -8.569814562797546 -1.5977619588375092, -2.178766429424286 l-0.5810043588280678, -2.324017435312271 m-22.51391887664795, 0.0 l-2.4692685902118683, 0.8715065568685532 -7.407805919647217, 5.955294966697693 l-1.7430131137371063, 2.0335152745246887 -1.7430131137371063, 3.1955239176750183 l-2.0335152745246887, 7.26255476474762 -0.14525108970701694, 5.810043811798096 l2.4692685902118683, 6.681550145149231 2.7597707509994507, 2.7597707509994507 l2.905021905899048, 1.5977619588375092 16.12287163734436, 6.536298990249634 l4.648034870624542, 1.1620087176561356 11.329585313796997, 0.2905021794140339 l6.391047835350037, -1.1620087176561356 5.374290347099304, -2.6145195960998535 l3.9217793941497803, -3.3407750725746155 4.067030549049377, -5.374290347099304 l1.8882642686367035, -4.067030549049377 2.905021905899048, -8.279312252998352 l1.8882642686367035, -8.134061098098755 -0.2905021794140339, -6.681550145149231 l-1.3072597980499268, -3.4860262274742126 -2.178766429424286, -3.4860262274742126 l-3.050273060798645, -3.3407750725746155 -2.324017435312271, -1.7430131137371063 l-2.6145195960998535, -1.0167576372623444 -11.184333562850952, 7.1173036098480225 m-25.273690223693848, -25.99994659423828 l-3.1955239176750183, 0.0 -1.452510952949524, -0.8715065568685532 l-0.14525108970701694, -4.212281703948975 2.324017435312271, -4.648034870624542 l2.7597707509994507, -1.1620087176561356 8.279312252998352, -1.0167576372623444 l0.5810043588280678, 4.067030549049377 -2.324017435312271, 3.3407750725746155 l-4.067030549049377, 3.9217793941497803 -1.452510952949524, 0.2905021794140339 l-6.681550145149231, -0.4357532784342766 -0.4357532784342766, -0.726255476474762 l0.4357532784342766, -0.8715065568685532 3.1955239176750183, -1.5977619588375092 m35.44126749038696, 5.810043811798096 l-3.9217793941497803, -0.726255476474762 -6.826801300048828, -2.7597707509994507 l-0.14525108970701694, -2.6145195960998535 0.5810043588280678, -1.452510952949524 l6.391047835350037, -2.6145195960998535 1.8882642686367035, -0.2905021794140339 l4.067030549049377, 1.7430131137371063 -0.2905021794140339, 3.050273060798645 l-1.452510952949524, 0.2905021794140339 -1.452510952949524, -0.5810043588280678 m-55.921669006347656, -15.251364707946777 l1.452510952949524, -2.0335152745246887 2.6145195960998535, -2.0335152745246887 l7.698307633399963, -4.212281703948975 14.960862398147583, -5.374290347099304 l6.391047835350037, -0.5810043588280678 9.00556743144989, 0.0 l2.178766429424286, 0.2905021794140339 0.4357532784342766, 1.5977619588375092 l0.726255476474762, 0.14525108970701694 6.826801300048828, 0.14525108970701694 l18.01113486289978, 1.452510952949524 0.4357532784342766, 1.0167576372623444 l-0.4357532784342766, 1.7430131137371063 5.08378803730011, 1.1620087176561356 l4.648034870624542, 2.324017435312271 -0.5810043588280678, 5.6647926568984985 l0.8715065568685532, 0.8715065568685532 14.08935546875, 6.681550145149231 l0.0, 1.1620087176561356 -3.9217793941497803, 4.357532858848572 l-2.324017435312271, 3.3407750725746155 -1.1620087176561356, 3.1955239176750183 l-0.14525108970701694, 4.067030549049377 0.5810043588280678, 1.7430131137371063 l1.3072597980499268, 2.0335152745246887 2.4692685902118683, 1.0167576372623444 l0.2905021794140339, 2.7597707509994507 -0.8715065568685532, 3.9217793941497803 l-1.452510952949524, 3.1955239176750183 -3.1955239176750183, 5.08378803730011 l-0.726255476474762, 1.5977619588375092 -0.14525108970701694, 1.7430131137371063 l0.8715065568685532, 2.324017435312271 1.3072597980499268, 1.3072597980499268 l5.810043811798096, 3.9217793941497803 -0.5810043588280678, 1.1620087176561356 l-3.3407750725746155, 3.050273060798645 -1.0167576372623444, 3.050273060798645 l1.0167576372623444, 3.776528537273407 4.067030549049377, 7.553057074546814 l1.3072597980499268, 4.212281703948975 -4.502783715724945, 4.067030549049377 l-1.452510952949524, 3.4860262274742126 -0.4357532784342766, 5.08378803730011 l-0.726255476474762, 0.8715065568685532 -15.541867017745972, 6.972052454948425 l-2.324017435312271, 1.5977619588375092 -1.1620087176561356, 2.0335152745246887 l-3.4860262274742126, 1.3072597980499268 -5.6647926568984985, 0.8715065568685532 l-16.413373947143555, 0.14525108970701694 -0.2905021794140339, -0.8715065568685532 l-10.312827825546265, -2.6145195960998535 -9.441320896148682, -1.452510952949524 l-15.541867017745972, -1.452510952949524 -1.7430131137371063, 0.0 l-6.681550145149231, 1.452510952949524 -4.938537180423737, 1.5977619588375092 l0.726255476474762, -0.4357532784342766 -0.5810043588280678, -2.7597707509994507 l-1.7430131137371063, -3.1955239176750183 -5.955294966697693, -8.569814562797546 l-1.452510952949524, -3.776528537273407 0.0, -3.4860262274742126 l2.324017435312271, -6.10054612159729 1.452510952949524, -6.826801300048828 l0.0, -4.502783715724945 -1.0167576372623444, -4.212281703948975 l-2.178766429424286, -5.955294966697693 -0.5810043588280678, -4.938537180423737 l1.0167576372623444, -2.7597707509994507 6.972052454948425, -11.910589933395386 l2.6145195960998535, -7.26255476474762 1.0167576372623444, -4.212281703948975 l0.4357532784342766, -4.648034870624542 -0.2905021794140339, -3.050273060798645 l-0.726255476474762, -2.178766429424286 2.0335152745246887, -8.42456340789795 l-0.14525108970701694, -6.972052454948425 2.905021905899048, -4.067030549049377 m24.69268560409546, 22.368667125701904 l0.0, 0.0 m27.8882098197937, 0.726255476474762 l0.0, 0.0 " fill="none" stroke="black" stroke-width="1" /></svg>