<?xml version="1.0" encoding="utf-8" ?>
<svg baseProfile="full" height="78.84901689365506" version="1.1" width="108.18973714485765" xmlns="http://www.w3.org/2000/svg" xmlns:ev="http://www.w3.org/2001/xml-events" xmlns:xlink="http://www.w3.org/1999/xlink"><defs /><rect fill="white" height="78.84901689365506" width="108.18973714485765" x="0" y="0" /><path d="M47.70382142625749, 11.391048151999712 m-3.1955239176750183, -2.324017435312271 l-3.63127738237381, -1.8882642686367035 -5.955294966697693, -1.8882642686367035 l-2.6145195960998535, -0.2905021794140339 -0.14525108970701694, 0.8715065568685532 l1.7430131137371063, 3.050273060798645 0.2905021794140339, 1.452510952949524 l-0.726255476474762, 0.4357532784342766 -2.324017435312271, -0.14525108970701694 l-3.4860262274742126, 0.726255476474762 -6.10054612159729, 2.0335152745246887 l-16.558624505996704, 8.134061098098755 0.8715065568685532, 0.5810043588280678 l0.8715065568685532, -0.14525108970701694 2.324017435312271, 0.726255476474762 l3.3407750725746155, 1.452510952949524 1.452510952949524, 1.1620087176561356 l-4.648034870624542, 13.363100290298462 2.324017435312271, 13.94410490989685 l2.178766429424286, -1.0167576372623444 1.7430131137371063, 0.4357532784342766 l5.810043811798096, 5.08378803730011 6.10054612159729, 4.067030549049377 l0.726255476474762, 0.0 0.5810043588280678, -1.7430131137371063 l3.050273060798645, -0.726255476474762 18.59213948249817, -1.5977619588375092 l5.955294966697693, -1.452510952949524 -1.5977619588375092, -2.324017435312271 l0.726255476474762, -1.452510952949524 12.34634280204773, -10.02232551574707 l5.519541501998901, -3.9217793941497803 -0.2905021794140339, -0.726255476474762 l-0.8715065568685532, -0.14525108970701694 -5.374290347099304, -0.14525108970701694 l-0.8715065568685532, -8.715065717697144 -2.7597707509994507, -13.217849731445312 l-1.8882642686367035, -5.08378803730011 -3.050273060798645, -3.3407750725746155 l-1.1620087176561356, -0.4357532784342766 m-35.44126749038696, 13.653602600097656 l-0.726255476474762, 4.502783715724945 -2.0335152745246887, 6.391047835350037 l-0.2905021794140339, 3.1955239176750183 0.2905021794140339, 0.726255476474762 l10.02232551574707, 5.519541501998901 3.776528537273407, 0.2905021794140339 l11.329585313796997, -1.1620087176561356 1.0167576372623444, -1.7430131137371063 l1.7430131137371063, -5.374290347099304 -0.4357532784342766, -6.391047835350037 l-1.452510952949524, -2.905021905899048 -2.178766429424286, -1.7430131137371063 l-15.396615266799927, -2.905021905899048 -6.391047835350037, -0.5810043588280678 m14.52510952949524, 4.938537180423737 l-1.8882642686367035, 12.055840492248535 m-8.42456340789795, -11.910589933395386 l-0.5810043588280678, 4.357532858848572 m41.541810035705566, 0.726255476474762 l21.787664890289307, 2.7597707509994507 15.396615266799927, 4.212281703948975 l-0.726255476474762, 3.776528537273407 -0.14525108970701694, 35.29601573944092 l-5.08378803730011, -0.2905021794140339 -1.0167576372623444, -15.832369327545166 l-0.4357532784342766, -3.3407750725746155 -1.3072597980499268, -2.905021905899048 l-22.51391887664795, -0.2905021794140339 -3.1955239176750183, 0.4357532784342766 l-4.067030549049377, 12.491593360900879 0.14525108970701694, 1.8882642686367035 l-0.726255476474762, 0.14525108970701694 -6.391047835350037, -0.5810043588280678 l-0.726255476474762, -0.726255476474762 -1.452510952949524, -7.1173036098480225 " fill="none" stroke="black" stroke-width="1" /></svg>