<?xml version="1.0" encoding="utf-8" ?>
<svg baseProfile="full" height="49.65354801155627" version="1.1" width="62.87139780819416" xmlns="http://www.w3.org/2000/svg" xmlns:ev="http://www.w3.org/2001/xml-events" xmlns:xlink="http://www.w3.org/1999/xlink"><defs /><rect fill="white" height="49.65354801155627" width="62.87139780819416" x="0" y="0" /><path d="M19.670360535383224, 8.486025827005506 m-1.452510952949524, 0.14525108970701694 l-3.63127738237381, 2.0335152745246887 -4.212281703948975, 3.050273060798645 l-2.4692685902118683, 2.905021905899048 -2.905021905899048, 5.810043811798096 l0.726255476474762, 0.5810043588280678 0.726255476474762, -0.14525108970701694 l9.00556743144989, -3.3407750725746155 0.14525108970701694, 0.726255476474762 l-3.4860262274742126, 6.536298990249634 -1.3072597980499268, 3.63127738237381 l2.905021905899048, -2.0335152745246887 2.905021905899048, -0.8715065568685532 l0.726255476474762, 0.5810043588280678 0.4357532784342766, 1.452510952949524 l-0.2905021794140339, 6.681550145149231 0.726255476474762, 0.0 l2.0335152745246887, -1.7430131137371063 0.8715065568685532, 4.793286025524139 l3.63127738237381, -1.452510952949524 1.452510952949524, 0.5810043588280678 l1.0167576372623444, 1.452510952949524 0.5810043588280678, 3.63127738237381 l1.3072597980499268, 1.1620087176561356 1.452510952949524, -0.5810043588280678 l4.212281703948975, -4.067030549049377 0.726255476474762, 0.0 l3.9217793941497803, 4.357532858848572 1.452510952949524, 0.0 l2.905021905899048, -1.1620087176561356 2.178766429424286, 1.0167576372623444 l2.178766429424286, -0.726255476474762 1.7430131137371063, -2.0335152745246887 l1.0167576372623444, -2.905021905899048 2.178766429424286, -2.324017435312271 l1.7430131137371063, -6.826801300048828 0.14525108970701694, -2.905021905899048 l2.905021905899048, 0.8715065568685532 -0.4357532784342766, -4.067030549049377 l-4.502783715724945, -9.731823205947876 -1.5977619588375092, -2.178766429424286 l-2.178766429424286, -0.4357532784342766 -1.7430131137371063, -3.1955239176750183 l-1.3072597980499268, -1.1620087176561356 -2.905021905899048, -0.14525108970701694 l-7.26255476474762, -1.452510952949524 -7.553057074546814, 0.0 l-8.279312252998352, 1.1620087176561356 m-0.8715065568685532, 0.8715065568685532 l-0.4357532784342766, 0.4357532784342766 m14.52510952949524, 6.10054612159729 l-2.178766429424286, 1.1620087176561356 -1.5977619588375092, 3.050273060798645 l0.14525108970701694, 2.905021905899048 0.8715065568685532, 1.452510952949524 l3.63127738237381, 2.7597707509994507 3.1955239176750183, 1.5977619588375092 l5.374290347099304, 1.0167576372623444 2.905021905899048, 0.0 l1.1620087176561356, -1.452510952949524 0.4357532784342766, -5.229039192199707 l-0.14525108970701694, -0.8715065568685532 -1.7430131137371063, -2.324017435312271 l-3.1955239176750183, -2.905021905899048 -4.648034870624542, -2.6145195960998535 l-2.905021905899048, 0.0 -2.178766429424286, 1.0167576372623444 l-0.14525108970701694, 0.5810043588280678 m6.10054612159729, 9.441320896148682 l-3.3407750725746155, 1.452510952949524 m5.6647926568984985, -0.14525108970701694 l-3.3407750725746155, 3.63127738237381 m6.972052454948425, -8.569814562797546 l3.050273060798645, -2.4692685902118683 m-2.0335152745246887, 5.519541501998901 l3.050273060798645, -1.1620087176561356 m-5.08378803730011, 0.4357532784342766 l0.726255476474762, 0.2905021794140339 -0.4357532784342766, -0.726255476474762 l-1.5977619588375092, -0.5810043588280678 0.4357532784342766, 1.452510952949524 l-0.4357532784342766, -0.8715065568685532 m-9.441320896148682, -3.63127738237381 l0.4357532784342766, 1.5977619588375092 0.726255476474762, 0.5810043588280678 l3.1955239176750183, 0.4357532784342766 0.4357532784342766, -0.726255476474762 l-3.050273060798645, -1.0167576372623444 m3.3407750725746155, -4.648034870624542 l-1.5977619588375092, 2.0335152745246887 0.726255476474762, 0.726255476474762 l1.452510952949524, 0.2905021794140339 1.5977619588375092, -0.2905021794140339 l0.5810043588280678, -0.726255476474762 -0.2905021794140339, -0.726255476474762 l-1.5977619588375092, -0.4357532784342766 " fill="none" stroke="black" stroke-width="1" /></svg>