<?xml version="1.0" encoding="utf-8" ?>
<svg baseProfile="full" height="57.497106650844216" version="1.1" width="66.64792560040951" xmlns="http://www.w3.org/2000/svg" xmlns:ev="http://www.w3.org/2001/xml-events" xmlns:xlink="http://www.w3.org/1999/xlink"><defs /><rect fill="white" height="57.497106650844216" width="66.64792560040951" x="0" y="0" /><path d="M16.47483617067337, 47.70382131449878 m-6.681550145149231, -8.279312252998352 l-4.793286025524139, -8.569814562797546 2.324017435312271, -1.7430131137371063 l9.150818586349487, 0.14525108970701694 5.08378803730011, -23.675928115844727 l0.8715065568685532, -0.5810043588280678 3.3407750725746155, 0.0 l5.6647926568984985, 3.1955239176750183 1.0167576372623444, 0.0 l1.5977619588375092, -1.5977619588375092 3.3407750725746155, -0.726255476474762 l3.050273060798645, 0.14525108970701694 1.1620087176561356, 0.726255476474762 l1.3072597980499268, 2.0335152745246887 1.0167576372623444, 4.938537180423737 l0.5810043588280678, 0.8715065568685532 5.955294966697693, 2.0335152745246887 l3.1955239176750183, 4.212281703948975 1.5977619588375092, 2.6145195960998535 l0.4357532784342766, 2.6145195960998535 0.8715065568685532, 1.8882642686367035 l3.63127738237381, 5.229039192199707 1.452510952949524, 5.810043811798096 l-8.279312252998352, -1.452510952949524 -0.14525108970701694, 3.1955239176750183 l1.1620087176561356, 9.296069741249084 -7.988809943199158, -2.4692685902118683 l-0.5810043588280678, 0.726255476474762 -12.34634280204773, 2.324017435312271 l-2.4692685902118683, -1.3072597980499268 -14.670360088348389, 3.1955239176750183 l-1.452510952949524, -0.726255476474762 -0.726255476474762, -3.050273060798645 l1.0167576372623444, -0.5810043588280678 m13.94410490989685, -28.323962688446045 l-2.324017435312271, 2.7597707509994507 -3.9217793941497803, 9.877074360847473 l0.0, 8.279312252998352 0.5810043588280678, 1.8882642686367035 l3.1955239176750183, 5.519541501998901 2.178766429424286, 1.1620087176561356 l3.4860262274742126, 0.8715065568685532 4.357532858848572, 0.4357532784342766 l3.776528537273407, -0.5810043588280678 4.212281703948975, -1.7430131137371063 l3.1955239176750183, -3.63127738237381 0.726255476474762, -1.7430131137371063 l0.4357532784342766, -8.42456340789795 -0.5810043588280678, -1.7430131137371063 l-3.050273060798645, -4.793286025524139 -3.9217793941497803, -3.1955239176750183 l-0.8715065568685532, -0.4357532784342766 -0.726255476474762, 0.5810043588280678 l-0.726255476474762, -0.14525108970701694 -3.4860262274742126, -2.0335152745246887 l-0.726255476474762, -0.14525108970701694 -3.050273060798645, 1.452510952949524 l-0.14525108970701694, -0.2905021794140339 m-2.905021905899048, 8.715065717697144 l0.4357532784342766, 2.7597707509994507 -0.5810043588280678, -0.8715065568685532 l0.2905021794140339, -1.5977619588375092 0.14525108970701694, 0.726255476474762 l0.0, 1.5977619588375092 -0.4357532784342766, -2.178766429424286 l0.0, -1.8882642686367035 0.2905021794140339, 3.050273060798645 m4.793286025524139, 6.10054612159729 l3.63127738237381, -0.726255476474762 0.4357532784342766, -0.8715065568685532 " fill="none" stroke="black" stroke-width="1" /></svg>