<?xml version="1.0" encoding="utf-8" ?>
<svg baseProfile="full" height="66.93842773325741" version="1.1" width="77.10600481368601" xmlns="http://www.w3.org/2000/svg" xmlns:ev="http://www.w3.org/2001/xml-events" xmlns:xlink="http://www.w3.org/1999/xlink"><defs /><rect fill="white" height="66.93842773325741" width="77.10600481368601" x="0" y="0" /><path d="M27.368668718263507, 18.798854472115636 m-2.6145195960998535, 11.76533818244934 l0.14525108970701694, 5.519541501998901 2.178766429424286, 4.502783715724945 l1.0167576372623444, 1.0167576372623444 2.905021905899048, 1.1620087176561356 l6.2457966804504395, 0.14525108970701694 12.20109224319458, -2.4692685902118683 l1.7430131137371063, -1.7430131137371063 1.1620087176561356, -2.7597707509994507 l0.14525108970701694, -6.10054612159729 -0.5810043588280678, -2.324017435312271 l-0.726255476474762, -1.0167576372623444 -1.7430131137371063, -2.0335152745246887 l-2.4692685902118683, -1.3072597980499268 -2.0335152745246887, -0.5810043588280678 l-7.1173036098480225, -3.4860262274742126 -8.42456340789795, -2.4692685902118683 l-4.212281703948975, -1.7430131137371063 -0.8715065568685532, 0.2905021794140339 m2.324017435312271, 3.63127738237381 l1.1620087176561356, -3.9217793941497803 1.5977619588375092, -2.905021905899048 l3.63127738237381, -4.357532858848572 3.3407750725746155, -2.178766429424286 l6.681550145149231, -0.4357532784342766 2.178766429424286, 1.1620087176561356 l2.178766429424286, 2.905021905899048 0.5810043588280678, 2.6145195960998535 l-1.0167576372623444, 0.726255476474762 -1.8882642686367035, 0.14525108970701694 l-0.4357532784342766, -0.8715065568685532 2.6145195960998535, -2.324017435312271 l2.4692685902118683, -1.1620087176561356 1.7430131137371063, -0.2905021794140339 l3.9217793941497803, 0.2905021794140339 4.067030549049377, 2.324017435312271 l1.0167576372623444, 1.7430131137371063 0.0, 3.3407750725746155 l4.793286025524139, 3.9217793941497803 4.648034870624542, 2.4692685902118683 l1.1620087176561356, 1.5977619588375092 1.0167576372623444, 2.905021905899048 l0.0, 2.6145195960998535 -2.0335152745246887, 2.0335152745246887 l-1.5977619588375092, 0.8715065568685532 -3.1955239176750183, 0.5810043588280678 l-4.357532858848572, 0.14525108970701694 8.279312252998352, 7.698307633399963 l1.0167576372623444, 2.905021905899048 0.14525108970701694, 2.178766429424286 l-0.2905021794140339, 0.8715065568685532 -2.6145195960998535, 2.4692685902118683 l-4.938537180423737, 3.1955239176750183 -7.26255476474762, 3.1955239176750183 l-9.731823205947876, 3.050273060798645 -2.4692685902118683, 0.14525108970701694 l3.63127738237381, -0.2905021794140339 1.5977619588375092, 0.4357532784342766 l0.4357532784342766, 0.8715065568685532 -3.050273060798645, 2.0335152745246887 l-8.42456340789795, 0.4357532784342766 -7.698307633399963, -1.452510952949524 l-7.553057074546814, -3.3407750725746155 -2.178766429424286, -2.324017435312271 l0.0, -0.8715065568685532 2.0335152745246887, -1.0167576372623444 l4.067030549049377, -0.5810043588280678 6.826801300048828, 0.726255476474762 l-4.648034870624542, 0.14525108970701694 -2.178766429424286, -0.5810043588280678 l-15.977619886398315, -6.2457966804504395 -0.8715065568685532, -0.726255476474762 l-0.5810043588280678, -2.0335152745246887 3.050273060798645, -1.7430131137371063 l6.681550145149231, -0.726255476474762 -1.5977619588375092, -2.0335152745246887 l-8.569814562797546, -6.536298990249634 -2.178766429424286, -2.324017435312271 l-0.8715065568685532, -1.7430131137371063 15.541867017745972, -2.7597707509994507 l-3.9217793941497803, -2.4692685902118683 -1.452510952949524, -1.452510952949524 l-1.7430131137371063, -4.648034870624542 0.5810043588280678, -1.8882642686367035 l0.8715065568685532, -0.4357532784342766 3.3407750725746155, -0.8715065568685532 l3.4860262274742126, 0.2905021794140339 0.5810043588280678, -0.8715065568685532 l-0.14525108970701694, -0.726255476474762 1.0167576372623444, -0.726255476474762 l1.452510952949524, 0.0 1.0167576372623444, 0.726255476474762 l3.1955239176750183, 4.357532858848572 m3.9217793941497803, 9.296069741249084 l1.1620087176561356, 2.178766429424286 " fill="none" stroke="black" stroke-width="1" /></svg>