<?xml version="1.0" encoding="utf-8" ?>
<svg baseProfile="full" height="54.88258695229888" version="1.1" width="45.87701993063092" xmlns="http://www.w3.org/2000/svg" xmlns:ev="http://www.w3.org/2001/xml-events" xmlns:xlink="http://www.w3.org/1999/xlink"><defs /><rect fill="white" height="54.88258695229888" width="45.87701993063092" x="0" y="0" /><path d="M24.754148721694946, 11.245796699076891 m-5.810043811798096, -2.7597707509994507 l-4.793286025524139, -0.14525108970701694 -2.0335152745246887, 0.726255476474762 l-1.8882642686367035, 1.7430131137371063 -3.050273060798645, 4.357532858848572 l3.050273060798645, -1.7430131137371063 -4.212281703948975, 6.681550145149231 l-1.0167576372623444, 3.63127738237381 0.726255476474762, 0.0 l0.14525108970701694, 0.8715065568685532 -0.5810043588280678, 4.502783715724945 l0.0, 4.648034870624542 1.5977619588375092, -2.905021905899048 l0.2905021794140339, 0.8715065568685532 0.0, 6.681550145149231 l0.8715065568685532, 4.357532858848572 0.726255476474762, 0.5810043588280678 l1.1620087176561356, -3.3407750725746155 1.0167576372623444, 0.726255476474762 l3.776528537273407, 6.536298990249634 1.0167576372623444, 1.0167576372623444 l1.452510952949524, 0.14525108970701694 1.5977619588375092, 1.452510952949524 l0.8715065568685532, -0.726255476474762 1.452510952949524, -3.3407750725746155 l1.0167576372623444, -0.8715065568685532 1.0167576372623444, 0.0 l0.8715065568685532, 1.5977619588375092 0.2905021794140339, 1.7430131137371063 l0.726255476474762, 0.4357532784342766 5.6647926568984985, -4.502783715724945 l2.324017435312271, -0.4357532784342766 4.938537180423737, -4.648034870624542 l0.14525108970701694, -2.4692685902118683 2.7597707509994507, -8.279312252998352 l0.0, -0.8715065568685532 -0.8715065568685532, -0.5810043588280678 l-0.2905021794140339, -1.3072597980499268 0.726255476474762, -4.648034870624542 l0.0, -6.681550145149231 -0.8715065568685532, -0.2905021794140339 l-0.2905021794140339, -1.7430131137371063 -1.1620087176561356, -1.5977619588375092 l0.0, -3.9217793941497803 -1.1620087176561356, -0.8715065568685532 l-3.1955239176750183, -0.8715065568685532 -5.08378803730011, 0.0 l-2.178766429424286, 1.1620087176561356 -2.4692685902118683, 2.178766429424286 l-1.452510952949524, 2.178766429424286 0.0, 0.726255476474762 m-7.8435587882995605, 9.296069741249084 l-1.8882642686367035, -0.5810043588280678 -1.3072597980499268, -1.8882642686367035 l0.4357532784342766, -2.6145195960998535 2.178766429424286, -1.452510952949524 l2.4692685902118683, -0.14525108970701694 2.0335152745246887, 1.7430131137371063 l8.86031687259674, 0.14525108970701694 0.726255476474762, -0.2905021794140339 l2.324017435312271, -2.905021905899048 2.6145195960998535, -1.452510952949524 l3.4860262274742126, -0.14525108970701694 1.0167576372623444, 0.726255476474762 l0.4357532784342766, 1.1620087176561356 0.14525108970701694, 2.0335152745246887 l-0.4357532784342766, 1.1620087176561356 -2.7597707509994507, 1.452510952949524 m-18.882641792297363, 3.4860262274742126 l-1.7430131137371063, 3.1955239176750183 -0.726255476474762, 3.3407750725746155 l0.0, 6.2457966804504395 0.8715065568685532, 1.8882642686367035 l4.357532858848572, 3.3407750725746155 3.1955239176750183, 1.452510952949524 l4.357532858848572, 0.8715065568685532 3.1955239176750183, -0.14525108970701694 l1.8882642686367035, -1.452510952949524 1.0167576372623444, -1.452510952949524 l1.0167576372623444, -3.9217793941497803 0.14525108970701694, -5.519541501998901 l-2.178766429424286, -6.2457966804504395 0.14525108970701694, -1.8882642686367035 l1.8882642686367035, -1.452510952949524 2.6145195960998535, -3.050273060798645 m-16.994377374649048, 14.379857778549194 l4.212281703948975, 2.4692685902118683 1.0167576372623444, -1.1620087176561356 l3.050273060798645, -1.7430131137371063 -3.4860262274742126, -0.4357532784342766 l-2.178766429424286, 0.5810043588280678 m3.1955239176750183, 2.7597707509994507 l-1.8882642686367035, 2.0335152745246887 -2.178766429424286, 0.2905021794140339 m2.4692685902118683, -1.3072597980499268 l2.4692685902118683, 1.0167576372623444 3.9217793941497803, 0.14525108970701694 m-10.893832445144653, -12.20109224319458 l0.0, 0.0 m6.2457966804504395, -0.2905021794140339 l0.0, 0.0 " fill="none" stroke="black" stroke-width="1" /></svg>