<?xml version="1.0" encoding="utf-8" ?>
<svg baseProfile="full" height="57.78760968707502" version="1.1" width="61.709388671442866" xmlns="http://www.w3.org/2000/svg" xmlns:ev="http://www.w3.org/2001/xml-events" xmlns:xlink="http://www.w3.org/1999/xlink"><defs /><rect fill="white" height="57.78760968707502" width="61.709388671442866" x="0" y="0" /><path d="M32.74295889772475, 22.28487942367792 m-7.407805919647217, -3.1955239176750183 l-4.648034870624542, -0.14525108970701694 -1.1620087176561356, 0.2905021794140339 l-0.726255476474762, 0.726255476474762 -1.3072597980499268, 3.1955239176750183 l-1.0167576372623444, 4.357532858848572 -0.14525108970701694, 5.6647926568984985 l0.8715065568685532, 1.8882642686367035 1.8882642686367035, 2.178766429424286 l5.229039192199707, 2.4692685902118683 4.502783715724945, 1.3072597980499268 l8.42456340789795, 0.8715065568685532 6.972052454948425, 0.0 l2.6145195960998535, -1.5977619588375092 0.5810043588280678, -1.3072597980499268 l0.2905021794140339, -4.212281703948975 -0.4357532784342766, -2.178766429424286 l-3.63127738237381, -7.698307633399963 -2.7597707509994507, -4.067030549049377 l-2.0335152745246887, -1.5977619588375092 -4.357532858848572, -1.7430131137371063 l-8.134061098098755, -0.14525108970701694 m1.3072597980499268, -8.569814562797546 l-2.324017435312271, -2.324017435312271 -2.905021905899048, -1.0167576372623444 l-3.1955239176750183, -0.4357532784342766 -1.7430131137371063, 1.5977619588375092 l-1.8882642686367035, 5.810043811798096 -7.698307633399963, 0.14525108970701694 l-0.8715065568685532, 0.4357532784342766 0.0, 3.3407750725746155 l3.1955239176750183, 5.955294966697693 0.2905021794140339, 2.0335152745246887 l-4.938537180423737, 7.1173036098480225 -0.5810043588280678, 2.324017435312271 l0.2905021794140339, 3.63127738237381 1.0167576372623444, 1.8882642686367035 l2.6145195960998535, 2.324017435312271 3.776528537273407, 2.0335152745246887 l4.648034870624542, 4.212281703948975 3.63127738237381, 1.3072597980499268 l1.8882642686367035, -0.14525108970701694 1.0167576372623444, -0.726255476474762 l1.7430131137371063, -0.2905021794140339 2.7597707509994507, 1.8882642686367035 l1.452510952949524, 0.4357532784342766 7.698307633399963, 0.14525108970701694 l1.7430131137371063, 1.3072597980499268 6.2457966804504395, 1.0167576372623444 l7.407805919647217, 0.0 2.7597707509994507, -1.5977619588375092 l0.8715065568685532, -1.5977619588375092 0.14525108970701694, -4.067030549049377 l-2.178766429424286, -18.882641792297363 0.5810043588280678, -7.26255476474762 l-0.726255476474762, -1.0167576372623444 -4.648034870624542, -3.3407750725746155 l-7.553057074546814, -4.212281703948975 -6.681550145149231, -1.8882642686367035 l-3.4860262274742126, -1.7430131137371063 -4.212281703948975, -0.8715065568685532 l-4.357532858848572, -0.2905021794140339 m17.430131435394287, 14.960862398147583 l0.726255476474762, -3.3407750725746155 1.452510952949524, -2.0335152745246887 l1.7430131137371063, -0.4357532784342766 0.4357532784342766, 0.8715065568685532 l0.0, 1.452510952949524 -3.3407750725746155, 6.391047835350037 l-0.2905021794140339, 1.5977619588375092 m-12.782095670700073, -8.86031687259674 l-1.0167576372623444, -1.452510952949524 -3.776528537273407, -2.4692685902118683 l-0.4357532784342766, -0.726255476474762 -0.726255476474762, -0.4357532784342766 l-1.452510952949524, 0.2905021794140339 -0.4357532784342766, 1.8882642686367035 l0.4357532784342766, 1.7430131137371063 3.1955239176750183, 2.905021905899048 m0.5810043588280678, 8.86031687259674 l0.2905021794140339, 0.0 m13.217849731445312, 0.5810043588280678 l0.14525108970701694, 0.14525108970701694 " fill="none" stroke="black" stroke-width="1" /></svg>