<?xml version="1.0" encoding="utf-8" ?>
<svg baseProfile="full" height="91.63111248984933" version="1.1" width="102.67019666731358" xmlns="http://www.w3.org/2000/svg" xmlns:ev="http://www.w3.org/2001/xml-events" xmlns:xlink="http://www.w3.org/1999/xlink"><defs /><rect fill="white" height="91.63111248984933" width="102.67019666731358" x="0" y="0" /><path d="M77.62554491870105, 29.69268536195159 m-2.178766429424286, -1.452510952949524 l-6.681550145149231, -2.0335152745246887 -6.2457966804504395, -1.0167576372623444 l-6.2457966804504395, -0.14525108970701694 -2.905021905899048, 0.14525108970701694 l-2.6145195960998535, 0.726255476474762 -5.08378803730011, 2.6145195960998535 l-2.6145195960998535, 2.0335152745246887 -2.178766429424286, 2.324017435312271 l-3.3407750725746155, 5.955294966697693 -1.5977619588375092, 5.810043811798096 l-0.14525108970701694, 3.3407750725746155 0.0, 5.6647926568984985 l0.8715065568685532, 3.63127738237381 2.178766429424286, 3.4860262274742126 l4.067030549049377, 2.905021905899048 8.279312252998352, 2.324017435312271 l8.86031687259674, -0.14525108970701694 3.3407750725746155, -1.1620087176561356 l5.229039192199707, -2.905021905899048 4.938537180423737, -4.502783715724945 l3.63127738237381, -5.229039192199707 1.0167576372623444, -2.905021905899048 l0.8715065568685532, -7.26255476474762 -0.14525108970701694, -4.212281703948975 l-0.726255476474762, -2.4692685902118683 -1.7430131137371063, -3.776528537273407 l-2.324017435312271, -3.4860262274742126 m4.212281703948975, -20.189902782440186 l-0.8715065568685532, -0.2905021794140339 -1.452510952949524, 6.536298990249634 l-1.0167576372623444, 1.5977619588375092 -1.0167576372623444, 0.14525108970701694 l-1.452510952949524, -0.5810043588280678 -5.810043811798096, -5.6647926568984985 l-1.7430131137371063, -1.1620087176561356 -1.8882642686367035, -1.1620087176561356 l-3.776528537273407, -1.1620087176561356 -1.5977619588375092, 0.0 l-1.3072597980499268, 0.5810043588280678 -1.7430131137371063, 2.6145195960998535 l-1.1620087176561356, 3.4860262274742126 -1.7430131137371063, 1.1620087176561356 l-2.178766429424286, 0.0 -12.927347421646118, -6.2457966804504395 l-3.1955239176750183, -0.5810043588280678 -0.726255476474762, 1.5977619588375092 l-0.14525108970701694, 13.072597980499268 -0.5810043588280678, 1.1620087176561356 l-1.7430131137371063, 0.5810043588280678 -3.9217793941497803, -0.2905021794140339 l-11.474835872650146, -5.955294966697693 4.648034870624542, 15.832369327545166 l0.5810043588280678, 6.972052454948425 -1.0167576372623444, 2.905021905899048 l-1.5977619588375092, 1.3072597980499268 -2.6145195960998535, 0.726255476474762 l-9.877074360847473, -0.4357532784342766 1.452510952949524, 2.7597707509994507 l6.972052454948425, 8.86031687259674 7.26255476474762, 10.603330135345459 l2.905021905899048, 5.374290347099304 -4.938537180423737, -5.374290347099304 l1.0167576372623444, 1.7430131137371063 10.16757607460022, 11.620087623596191 l4.793286025524139, 3.63127738237381 1.3072597980499268, 0.0 l1.1620087176561356, -1.3072597980499268 1.5977619588375092, -3.4860262274742126 l1.1620087176561356, -0.5810043588280678 2.178766429424286, 0.0 l8.569814562797546, 5.374290347099304 1.7430131137371063, 0.8715065568685532 l2.0335152745246887, 0.0 1.5977619588375092, -4.212281703948975 l1.452510952949524, -7.553057074546814 0.5810043588280678, -0.726255476474762 l1.1620087176561356, 0.0 2.324017435312271, 2.0335152745246887 l7.26255476474762, 11.184333562850952 1.5977619588375092, 1.3072597980499268 l1.3072597980499268, 0.0 1.5977619588375092, -2.0335152745246887 l4.648034870624542, -15.687117576599121 1.1620087176561356, -1.8882642686367035 l3.776528537273407, 6.2457966804504395 1.5977619588375092, 4.357532858848572 l1.7430131137371063, 3.1955239176750183 1.1620087176561356, 1.3072597980499268 l1.452510952949524, 0.0 2.905021905899048, -3.3407750725746155 l2.178766429424286, -5.08378803730011 2.324017435312271, -16.994377374649048 l0.8715065568685532, 0.726255476474762 0.5810043588280678, 1.8882642686367035 l-0.2905021794140339, -13.072597980499268 -1.7430131137371063, -6.681550145149231 l-2.324017435312271, -5.6647926568984985 -2.7597707509994507, -3.3407750725746155 l-1.7430131137371063, -0.8715065568685532 -1.3072597980499268, 0.2905021794140339 l-0.4357532784342766, 1.0167576372623444 0.5810043588280678, 2.0335152745246887 l2.905021905899048, -0.5810043588280678 3.050273060798645, -2.0335152745246887 l3.3407750725746155, -4.067030549049377 0.5810043588280678, -3.4860262274742126 l-0.5810043588280678, -2.0335152745246887 -2.0335152745246887, -1.5977619588375092 l-9.00556743144989, -4.648034870624542 -5.6647926568984985, -4.357532858848572 l-1.7430131137371063, -3.1955239176750183 0.2905021794140339, -2.0335152745246887 l-4.357532858848572, 0.8715065568685532 -3.63127738237381, -0.2905021794140339 " fill="none" stroke="black" stroke-width="1" /></svg>