<?xml version="1.0" encoding="utf-8" ?>
<svg baseProfile="full" height="110.22325304336846" version="1.1" width="94.68138705939054" xmlns="http://www.w3.org/2000/svg" xmlns:ev="http://www.w3.org/2001/xml-events" xmlns:xlink="http://www.w3.org/1999/xlink"><defs /><rect fill="white" height="110.22325304336846" width="94.68138705939054" x="0" y="0" /><path d="M50.754093611612916, 30.418940279632807 m-4.067030549049377, -2.6145195960998535 l-2.6145195960998535, 0.0 -3.3407750725746155, 1.1620087176561356 l-3.776528537273407, 2.178766429424286 -4.648034870624542, 4.067030549049377 l-2.178766429424286, 3.1955239176750183 -1.7430131137371063, 3.63127738237381 l-1.1620087176561356, 6.536298990249634 0.0, 7.1173036098480225 l1.0167576372623444, 4.648034870624542 1.5977619588375092, 4.357532858848572 l2.4692685902118683, 3.776528537273407 3.050273060798645, 2.905021905899048 l3.4860262274742126, 2.324017435312271 5.374290347099304, 2.178766429424286 l4.067030549049377, 0.726255476474762 5.519541501998901, -0.2905021794140339 l5.374290347099304, -2.178766429424286 3.3407750725746155, -2.324017435312271 l4.067030549049377, -4.648034870624542 2.905021905899048, -5.229039192199707 l1.1620087176561356, -4.067030549049377 0.5810043588280678, -4.067030549049377 l0.0, -3.9217793941497803 -0.5810043588280678, -3.63127738237381 l-2.4692685902118683, -5.229039192199707 -3.4860262274742126, -4.648034870624542 l-2.905021905899048, -2.324017435312271 -6.391047835350037, -2.905021905899048 l-3.3407750725746155, -0.8715065568685532 -5.08378803730011, -0.4357532784342766 m-16.558624505996704, 3.4860262274742126 l-1.452510952949524, -1.3072597980499268 -0.5810043588280678, -2.0335152745246887 l1.0167576372623444, -4.357532858848572 1.3072597980499268, -2.0335152745246887 l2.178766429424286, -1.452510952949524 1.7430131137371063, -0.5810043588280678 l2.324017435312271, 0.0 2.905021905899048, 1.1620087176561356 l5.08378803730011, 2.905021905899048 3.050273060798645, 3.050273060798645 m12.636845111846924, 2.178766429424286 l1.5977619588375092, -2.324017435312271 3.63127738237381, -2.324017435312271 l3.776528537273407, 1.5977619588375092 3.3407750725746155, 3.4860262274742126 l0.726255476474762, 2.7597707509994507 0.0, 2.0335152745246887 l-1.1620087176561356, 4.067030549049377 -1.7430131137371063, 3.4860262274742126 m-15.106114149093628, -16.8491268157959 l-8.134061098098755, -9.877074360847473 -1.8882642686367035, -1.8882642686367035 l-3.9217793941497803, -2.6145195960998535 -0.726255476474762, 0.0 l-1.452510952949524, 2.0335152745246887 -0.5810043588280678, 2.905021905899048 l0.0, 3.4860262274742126 -3.3407750725746155, -4.502783715724945 l-4.938537180423737, -5.374290347099304 -5.08378803730011, -4.212281703948975 l-3.3407750725746155, -1.7430131137371063 -3.3407750725746155, 1.0167576372623444 l-3.776528537273407, 3.9217793941497803 -3.4860262274742126, 6.536298990249634 l-4.067030549049377, 9.296069741249084 -1.452510952949524, 8.715065717697144 l-0.14525108970701694, 4.067030549049377 0.0, 1.8882642686367035 l1.1620087176561356, 3.4860262274742126 1.3072597980499268, 0.8715065568685532 l2.324017435312271, 0.0 8.86031687259674, -4.067030549049377 l0.0, 1.0167576372623444 -2.0335152745246887, 2.324017435312271 l-7.988809943199158, 12.491593360900879 -3.4860262274742126, 7.553057074546814 l-1.1620087176561356, 4.648034870624542 0.2905021794140339, 0.8715065568685532 l0.8715065568685532, 0.5810043588280678 1.452510952949524, 0.0 l9.586572051048279, -3.4860262274742126 1.5977619588375092, 0.0 l0.726255476474762, 0.5810043588280678 0.0, 4.067030549049377 l-4.938537180423737, 16.994377374649048 0.2905021794140339, 3.4860262274742126 l0.5810043588280678, 0.726255476474762 2.6145195960998535, -0.726255476474762 l2.905021905899048, -1.452510952949524 5.810043811798096, -4.067030549049377 l2.178766429424286, -0.4357532784342766 0.8715065568685532, 0.14525108970701694 l1.7430131137371063, 1.1620087176561356 1.7430131137371063, 2.0335152745246887 l4.648034870624542, 10.893832445144653 1.7430131137371063, 2.7597707509994507 l2.905021905899048, 2.324017435312271 3.776528537273407, 0.0 l3.050273060798645, -1.8882642686367035 3.3407750725746155, -3.4860262274742126 l8.86031687259674, -14.379857778549194 4.067030549049377, -5.6647926568984985 l5.229039192199707, -5.374290347099304 2.324017435312271, -1.1620087176561356 l1.3072597980499268, 0.4357532784342766 1.5977619588375092, 2.324017435312271 l1.1620087176561356, 3.63127738237381 1.7430131137371063, 3.050273060798645 l0.8715065568685532, 0.5810043588280678 1.5977619588375092, -0.5810043588280678 l0.726255476474762, -2.178766429424286 0.4357532784342766, -3.3407750725746155 l0.0, -6.391047835350037 -1.1620087176561356, -17.86588430404663 l-2.7597707509994507, -15.687117576599121 1.8882642686367035, -3.4860262274742126 l6.972052454948425, -5.229039192199707 1.3072597980499268, -1.452510952949524 l0.726255476474762, -1.8882642686367035 -0.14525108970701694, -1.452510952949524 l-1.1620087176561356, -1.7430131137371063 -0.8715065568685532, -0.726255476474762 l-2.6145195960998535, -1.0167576372623444 -4.648034870624542, -0.726255476474762 l-10.748580694198608, -0.2905021794140339 -1.7430131137371063, -0.5810043588280678 l-1.1620087176561356, -1.452510952949524 0.0, -1.8882642686367035 l2.0335152745246887, -7.698307633399963 -0.2905021794140339, -1.0167576372623444 l-0.8715065568685532, -0.4357532784342766 -3.4860262274742126, 1.7430131137371063 l-5.374290347099304, 4.067030549049377 -1.3072597980499268, 2.178766429424286 l0.4357532784342766, 2.0335152745246887 m-15.832369327545166, 24.11168098449707 l-2.7597707509994507, 2.178766429424286 -1.7430131137371063, 2.905021905899048 l-0.5810043588280678, 3.1955239176750183 0.0, 3.63127738237381 l0.2905021794140339, 0.726255476474762 0.5810043588280678, 0.14525108970701694 l1.0167576372623444, -0.5810043588280678 5.519541501998901, -6.972052454948425 l1.7430131137371063, -4.357532858848572 -1.3072597980499268, -0.8715065568685532 l-2.4692685902118683, 1.1620087176561356 m9.296069741249084, -0.8715065568685532 l-1.452510952949524, 6.2457966804504395 0.14525108970701694, 0.8715065568685532 l0.726255476474762, 0.726255476474762 0.8715065568685532, 0.0 l1.1620087176561356, -0.5810043588280678 1.7430131137371063, -1.7430131137371063 l1.1620087176561356, -3.050273060798645 -0.5810043588280678, -2.0335152745246887 l-1.0167576372623444, -0.726255476474762 -1.1620087176561356, 0.0 l-0.8715065568685532, 0.0 -1.5977619588375092, 1.1620087176561356 m-11.910589933395386, 18.59213948249817 l2.324017435312271, 0.14525108970701694 7.988809943199158, -2.905021905899048 l1.7430131137371063, -1.1620087176561356 3.4860262274742126, -0.726255476474762 " fill="none" stroke="black" stroke-width="1" /></svg>