<?xml version="1.0" encoding="utf-8" ?>
<svg baseProfile="full" height="76.67025100439787" version="1.1" width="73.18422445096076" xmlns="http://www.w3.org/2000/svg" xmlns:ev="http://www.w3.org/2001/xml-events" xmlns:xlink="http://www.w3.org/1999/xlink"><defs /><rect fill="white" height="76.67025100439787" width="73.18422445096076" x="0" y="0" /><path d="M22.28488001972437, 21.558623611927032 m0.5810043588280678, 3.9217793941497803 l2.178766429424286, 6.972052454948425 -1.3072597980499268, -0.14525108970701694 l-4.938537180423737, -3.4860262274742126 -2.0335152745246887, -0.8715065568685532 l-1.7430131137371063, -0.5810043588280678 -3.3407750725746155, 0.0 l-0.4357532784342766, 2.4692685902118683 0.726255476474762, 2.0335152745246887 l6.391047835350037, 7.407805919647217 -9.586572051048279, -0.2905021794140339 l-3.3407750725746155, 0.2905021794140339 -0.4357532784342766, 1.0167576372623444 l6.972052454948425, 3.4860262274742126 6.536298990249634, 2.0335152745246887 l-7.1173036098480225, 2.0335152745246887 -3.050273060798645, 1.452510952949524 l-2.6145195960998535, 2.178766429424286 1.1620087176561356, 1.1620087176561356 l9.00556743144989, 2.4692685902118683 3.1955239176750183, 0.14525108970701694 l3.776528537273407, 0.0 5.955294966697693, -2.324017435312271 l-1.7430131137371063, 2.0335152745246887 -2.324017435312271, 4.212281703948975 l-3.63127738237381, 8.715065717697144 -0.8715065568685532, 3.776528537273407 l1.3072597980499268, 0.0 11.620087623596191, -8.569814562797546 l0.4357532784342766, 1.1620087176561356 -0.14525108970701694, 5.6647926568984985 l0.8715065568685532, 0.726255476474762 3.776528537273407, -0.4357532784342766 l2.6145195960998535, -2.178766429424286 4.648034870624542, -6.391047835350037 l2.324017435312271, 4.793286025524139 1.452510952949524, 1.3072597980499268 l2.6145195960998535, 0.5810043588280678 1.1620087176561356, -0.5810043588280678 l1.0167576372623444, -1.452510952949524 0.4357532784342766, -2.0335152745246887 l-0.2905021794140339, -4.212281703948975 -2.178766429424286, -4.793286025524139 l6.972052454948425, 5.08378803730011 3.9217793941497803, 0.726255476474762 l0.4357532784342766, -1.0167576372623444 0.0, -1.452510952949524 l-4.648034870624542, -6.681550145149231 -1.0167576372623444, -2.4692685902118683 l1.0167576372623444, 0.0 1.0167576372623444, 1.0167576372623444 l4.067030549049377, 2.0335152745246887 4.067030549049377, 0.0 l-0.2905021794140339, -3.63127738237381 -0.8715065568685532, -2.6145195960998535 l-3.050273060798645, -5.955294966697693 -1.452510952949524, -1.7430131137371063 l-2.178766429424286, -1.5977619588375092 1.7430131137371063, -0.14525108970701694 l1.5977619588375092, -0.726255476474762 3.4860262274742126, -3.9217793941497803 l1.1620087176561356, -2.324017435312271 0.2905021794140339, -2.4692685902118683 l-0.726255476474762, -0.726255476474762 -3.63127738237381, -0.14525108970701694 l-7.26255476474762, 1.8882642686367035 2.905021905899048, -7.988809943199158 l0.5810043588280678, -4.357532858848572 -0.4357532784342766, -1.452510952949524 l-2.7597707509994507, -0.726255476474762 -2.6145195960998535, 0.2905021794140339 l-2.4692685902118683, 1.8882642686367035 0.0, -10.16757607460022 l-1.3072597980499268, -0.8715065568685532 -1.7430131137371063, 0.0 l-2.4692685902118683, 0.8715065568685532 -3.3407750725746155, 2.7597707509994507 l-3.3407750725746155, 3.776528537273407 -2.7597707509994507, 3.9217793941497803 l-3.050273060798645, 5.519541501998901 -0.8715065568685532, 0.726255476474762 l-0.8715065568685532, -7.1173036098480225 -1.8882642686367035, -4.648034870624542 l-1.1620087176561356, -1.3072597980499268 -2.324017435312271, -0.2905021794140339 l-0.8715065568685532, 0.726255476474762 -1.0167576372623444, 2.6145195960998535 l-3.3407750725746155, 9.296069741249084 -2.0335152745246887, 7.407805919647217 l-1.0167576372623444, -5.519541501998901 -1.3072597980499268, -2.324017435312271 l-1.1620087176561356, -0.14525108970701694 0.0, 2.0335152745246887 l1.1620087176561356, 1.5977619588375092 2.6145195960998535, 2.0335152745246887 m16.12287163734436, 3.1955239176750183 l-1.5977619588375092, 0.5810043588280678 -0.4357532784342766, 4.357532858848572 l0.5810043588280678, 2.324017435312271 0.8715065568685532, 1.3072597980499268 l0.8715065568685532, 0.8715065568685532 1.0167576372623444, 0.14525108970701694 l0.5810043588280678, -2.4692685902118683 0.0, -1.8882642686367035 l-0.5810043588280678, -1.7430131137371063 -0.5810043588280678, -0.726255476474762 l-2.178766429424286, 0.2905021794140339 m7.26255476474762, -1.3072597980499268 l2.0335152745246887, 8.42456340789795 1.0167576372623444, 1.5977619588375092 l0.726255476474762, -0.14525108970701694 0.726255476474762, -2.324017435312271 l0.2905021794140339, -6.681550145149231 -0.4357532784342766, -1.0167576372623444 l-0.726255476474762, -0.4357532784342766 -1.1620087176561356, 0.0 l-1.1620087176561356, 0.726255476474762 m2.7597707509994507, -11.039083003997803 l-9.150818586349487, -0.5810043588280678 -2.324017435312271, 0.726255476474762 l-4.502783715724945, 3.776528537273407 -2.0335152745246887, 2.7597707509994507 l-3.776528537273407, 7.407805919647217 -1.3072597980499268, 4.357532858848572 l-0.4357532784342766, 3.9217793941497803 0.4357532784342766, 5.955294966697693 l1.7430131137371063, 2.7597707509994507 4.648034870624542, 3.63127738237381 l6.2457966804504395, 1.1620087176561356 7.8435587882995605, -0.2905021794140339 l3.4860262274742126, -1.1620087176561356 5.810043811798096, -3.63127738237381 l1.8882642686367035, -2.178766429424286 1.1620087176561356, -2.7597707509994507 l0.5810043588280678, -2.905021905899048 -0.14525108970701694, -7.8435587882995605 l-2.0335152745246887, -7.407805919647217 -1.452510952949524, -3.050273060798645 l-1.8882642686367035, -2.4692685902118683 -2.178766429424286, -1.3072597980499268 l-2.7597707509994507, -0.726255476474762 -6.391047835350037, 0.5810043588280678 l-6.2457966804504395, 3.1955239176750183 m4.067030549049377, 20.916156768798828 l3.1955239176750183, 0.0 " fill="none" stroke="black" stroke-width="1" /></svg>