<?xml version="1.0" encoding="utf-8" ?>
<svg baseProfile="full" height="80.01102614216506" version="1.1" width="111.09476091340184" xmlns="http://www.w3.org/2000/svg" xmlns:ev="http://www.w3.org/2001/xml-events" xmlns:xlink="http://www.w3.org/1999/xlink"><defs /><rect fill="white" height="80.01102614216506" width="111.09476091340184" x="0" y="0" /><path d="M44.79879967868328, 12.407805770635605 m-0.726255476474762, -2.0335152745246887 l-3.050273060798645, -2.905021905899048 -3.050273060798645, -1.452510952949524 l-4.502783715724945, -1.0167576372623444 -5.374290347099304, 0.0 l-7.553057074546814, 3.4860262274742126 -2.6145195960998535, 1.8882642686367035 l-3.4860262274742126, 5.229039192199707 -0.4357532784342766, 4.212281703948975 l1.8882642686367035, 1.3072597980499268 4.067030549049377, 0.8715065568685532 l-2.905021905899048, -0.4357532784342766 -4.357532858848572, 0.2905021794140339 l-1.7430131137371063, 0.8715065568685532 -2.0335152745246887, 2.4692685902118683 l-1.7430131137371063, 5.955294966697693 0.0, 7.988809943199158 l2.178766429424286, 2.324017435312271 -0.726255476474762, 0.14525108970701694 l-1.7430131137371063, 2.0335152745246887 -1.452510952949524, 2.178766429424286 l-0.4357532784342766, 1.7430131137371063 0.14525108970701694, 4.502783715724945 l0.4357532784342766, 1.0167576372623444 3.1955239176750183, 4.067030549049377 l7.1173036098480225, 4.502783715724945 -2.4692685902118683, 0.8715065568685532 l-0.5810043588280678, 0.8715065568685532 1.452510952949524, 0.726255476474762 l0.8715065568685532, 1.3072597980499268 5.6647926568984985, 4.938537180423737 l4.212281703948975, 2.4692685902118683 5.229039192199707, 1.5977619588375092 l4.067030549049377, 0.5810043588280678 3.050273060798645, -0.14525108970701694 l9.150818586349487, -7.698307633399963 5.08378803730011, -2.0335152745246887 l5.374290347099304, -0.5810043588280678 4.938537180423737, -1.1620087176561356 l3.9217793941497803, -2.178766429424286 2.905021905899048, -2.905021905899048 l2.178766429424286, -3.3407750725746155 1.3072597980499268, -3.4860262274742126 l0.8715065568685532, -6.972052454948425 0.0, -4.212281703948975 l-0.5810043588280678, -1.8882642686367035 -3.1955239176750183, -7.26255476474762 l-2.7597707509994507, -4.793286025524139 -3.63127738237381, -3.3407750725746155 l-5.229039192199707, -3.1955239176750183 -6.536298990249634, -2.905021905899048 l-11.039083003997803, -3.3407750725746155 m1.7430131137371063, 15.832369327545166 l-3.4860262274742126, -1.7430131137371063 -3.3407750725746155, -0.4357532784342766 l-2.178766429424286, 0.2905021794140339 -3.63127738237381, 2.324017435312271 l-1.452510952949524, 1.7430131137371063 -2.0335152745246887, 4.357532858848572 l-0.8715065568685532, 6.536298990249634 0.0, 5.08378803730011 l0.5810043588280678, 1.8882642686367035 1.1620087176561356, 1.8882642686367035 l1.7430131137371063, 1.5977619588375092 2.4692685902118683, 0.8715065568685532 l5.6647926568984985, 0.14525108970701694 3.050273060798645, -1.8882642686367035 l2.324017435312271, -3.050273060798645 3.050273060798645, -6.2457966804504395 l0.8715065568685532, -2.905021905899048 0.14525108970701694, -2.4692685902118683 l0.0, -2.178766429424286 -3.4860262274742126, -3.776528537273407 l-2.178766429424286, -1.1620087176561356 -3.776528537273407, -0.5810043588280678 m35.29601573944092, 7.407805919647217 l23.82117986679077, -5.229039192199707 10.458078384399414, -0.8715065568685532 m-39.50829744338989, 25.273690223693848 l16.703875064849854, 1.5977619588375092 21.061408519744873, 0.726255476474762 m-74.07805919647217, -20.33515214920044 l1.8882642686367035, -2.0335152745246887 2.4692685902118683, -0.5810043588280678 l-0.726255476474762, 1.0167576372623444 -1.1620087176561356, 0.5810043588280678 l-2.324017435312271, -0.2905021794140339 m10.458078384399414, -1.5977619588375092 l1.7430131137371063, 0.2905021794140339 -2.6145195960998535, 0.726255476474762 l-0.5810043588280678, -0.726255476474762 0.726255476474762, -0.4357532784342766 l0.5810043588280678, 0.726255476474762 m-7.698307633399963, 8.569814562797546 l0.2905021794140339, 7.407805919647217 0.4357532784342766, 0.8715065568685532 l1.7430131137371063, 0.2905021794140339 4.938537180423737, -10.02232551574707 m-4.648034870624542, 0.0 l0.726255476474762, -0.5810043588280678 2.0335152745246887, 0.0 l0.2905021794140339, 0.726255476474762 -1.452510952949524, 0.0 l-0.726255476474762, -2.4692685902118683 " fill="none" stroke="black" stroke-width="1" /></svg>