<?xml version="1.0" encoding="utf-8" ?>
<svg baseProfile="full" height="58.80436697974801" version="1.1" width="137.6757083274424" xmlns="http://www.w3.org/2000/svg" xmlns:ev="http://www.w3.org/2001/xml-events" xmlns:xlink="http://www.w3.org/1999/xlink"><defs /><rect fill="white" height="58.80436697974801" width="137.6757083274424" x="0" y="0" /><path d="M31.580949956551194, 27.078167283907533 m-7.988809943199158, -3.9217793941497803 l-2.324017435312271, 0.0 -1.7430131137371063, 1.3072597980499268 l-1.1620087176561356, 1.5977619588375092 -0.8715065568685532, 4.067030549049377 l0.2905021794140339, 3.9217793941497803 2.905021905899048, 3.1955239176750183 l2.0335152745246887, 1.452510952949524 3.050273060798645, 1.1620087176561356 l5.6647926568984985, 0.726255476474762 3.9217793941497803, 0.0 l6.391047835350037, -1.0167576372623444 3.3407750725746155, -1.1620087176561356 l2.905021905899048, -2.178766429424286 2.905021905899048, -4.212281703948975 l-0.4357532784342766, -3.050273060798645 -1.1620087176561356, -1.5977619588375092 l-2.4692685902118683, -1.7430131137371063 -3.3407750725746155, -1.3072597980499268 l-5.810043811798096, 0.0 -6.2457966804504395, 3.3407750725746155 m-2.6145195960998535, 2.6145195960998535 l0.14525108970701694, 0.8715065568685532 m6.536298990249634, -1.1620087176561356 l0.0, 0.5810043588280678 m-2.905021905899048, 3.4860262274742126 l0.0, 0.0 m0.2905021794140339, 0.4357532784342766 l0.0, -0.2905021794140339 m0.0, 0.0 l0.0, 1.452510952949524 -0.726255476474762, 1.5977619588375092 l-0.4357532784342766, 0.726255476474762 -0.5810043588280678, -0.726255476474762 m1.7430131137371063, -2.4692685902118683 l0.2905021794140339, 3.3407750725746155 0.8715065568685532, 0.4357532784342766 l1.5977619588375092, -0.2905021794140339 m-10.603330135345459, -24.40218448638916 l-8.279312252998352, -0.14525108970701694 -1.5977619588375092, 0.4357532784342766 l-1.452510952949524, 1.0167576372623444 -0.5810043588280678, 2.178766429424286 l-2.7597707509994507, 2.178766429424286 -1.5977619588375092, 2.178766429424286 l-0.8715065568685532, 2.0335152745246887 0.0, 1.8882642686367035 l0.5810043588280678, 1.452510952949524 0.726255476474762, 0.4357532784342766 l-1.5977619588375092, 0.4357532784342766 -1.1620087176561356, 1.8882642686367035 l-1.0167576372623444, 2.7597707509994507 -0.4357532784342766, 3.4860262274742126 l0.2905021794140339, 3.776528537273407 2.4692685902118683, 2.6145195960998535 l7.988809943199158, 2.905021905899048 6.972052454948425, 1.8882642686367035 l5.810043811798096, 0.2905021794140339 2.6145195960998535, -1.452510952949524 l0.2905021794140339, -1.452510952949524 -0.2905021794140339, 0.726255476474762 l0.726255476474762, 0.4357532784342766 4.938537180423737, 1.8882642686367035 l7.26255476474762, 0.5810043588280678 5.374290347099304, -3.050273060798645 l3.4860262274742126, 0.0 5.519541501998901, -1.8882642686367035 l4.067030549049377, -2.0335152745246887 1.8882642686367035, -1.452510952949524 l1.1620087176561356, -1.7430131137371063 0.0, -1.5977619588375092 l-1.0167576372623444, -1.5977619588375092 1.8882642686367035, -4.357532858848572 l0.4357532784342766, -6.972052454948425 -2.178766429424286, -4.212281703948975 l-2.0335152745246887, -1.8882642686367035 -2.6145195960998535, -1.452510952949524 l-3.3407750725746155, -0.726255476474762 -2.905021905899048, 0.0 l0.4357532784342766, -1.452510952949524 -0.5810043588280678, -1.0167576372623444 l-3.4860262274742126, -2.324017435312271 -5.374290347099304, -1.3072597980499268 l-7.553057074546814, 0.2905021794140339 -1.1620087176561356, -1.3072597980499268 l-0.8715065568685532, -0.2905021794140339 -2.4692685902118683, 0.0 l-1.7430131137371063, 0.726255476474762 -4.357532858848572, 3.3407750725746155 l-3.3407750725746155, 3.776528537273407 m45.0278377532959, 10.16757607460022 l-1.5977619588375092, 0.14525108970701694 4.938537180423737, -2.178766429424286 l15.396615266799927, -5.374290347099304 9.150818586349487, -1.1620087176561356 l13.653602600097656, 0.14525108970701694 2.178766429424286, 1.0167576372623444 l6.391047835350037, 1.7430131137371063 9.731823205947876, 4.357532858848572 l2.324017435312271, 2.324017435312271 1.7430131137371063, 3.050273060798645 l0.4357532784342766, 2.0335152745246887 -0.14525108970701694, 2.324017435312271 l-5.810043811798096, 8.279312252998352 -5.229039192199707, 5.955294966697693 l-3.776528537273407, 2.6145195960998535 -5.519541501998901, 2.324017435312271 l-34.71501111984253, 0.2905021794140339 -9.00556743144989, -1.452510952949524 l-6.2457966804504395, -1.7430131137371063 -2.4692685902118683, -1.452510952949524 l-2.4692685902118683, -2.4692685902118683 m69.43002223968506, -22.659170627593994 l-0.14525108970701694, -5.08378803730011 -0.5810043588280678, -1.3072597980499268 l-3.4860262274742126, -3.9217793941497803 -2.4692685902118683, -1.5977619588375092 l-6.972052454948425, -2.324017435312271 -11.910589933395386, -0.5810043588280678 l-5.6647926568984985, 0.8715065568685532 -0.726255476474762, -0.2905021794140339 l0.14525108970701694, -3.63127738237381 0.2905021794140339, -0.726255476474762 l1.0167576372623444, -0.4357532784342766 11.184333562850952, 0.0 l9.00556743144989, 2.905021905899048 10.312827825546265, 5.374290347099304 l2.324017435312271, 1.8882642686367035 1.0167576372623444, 1.5977619588375092 l0.4357532784342766, 2.905021905899048 0.0, 4.502783715724945 l-1.3072597980499268, 4.067030549049377 -1.0167576372623444, 1.452510952949524 " fill="none" stroke="black" stroke-width="1" /></svg>