<?xml version="1.0" encoding="utf-8" ?>
<svg baseProfile="full" height="78.84901976212859" version="1.1" width="86.83782782405615" xmlns="http://www.w3.org/2000/svg" xmlns:ev="http://www.w3.org/2001/xml-events" xmlns:xlink="http://www.w3.org/1999/xlink"><defs /><rect fill="white" height="78.84901976212859" width="86.83782782405615" x="0" y="0" /><path d="M20.832372894510627, 35.64798160456121 m-0.4357532784342766, -3.3407750725746155 l1.5977619588375092, -6.536298990249634 3.776528537273407, -4.502783715724945 l2.6145195960998535, -1.5977619588375092 5.08378803730011, -1.3072597980499268 l2.324017435312271, 0.0 3.9217793941497803, 1.1620087176561356 l1.452510952949524, 0.8715065568685532 m0.726255476474762, -2.905021905899048 l5.810043811798096, -1.7430131137371063 7.553057074546814, -0.14525108970701694 l7.26255476474762, 2.324017435312271 2.6145195960998535, 2.7597707509994507 m0.5810043588280678, -1.3072597980499268 l3.050273060798645, -4.357532858848572 1.8882642686367035, -1.8882642686367035 l2.324017435312271, -1.3072597980499268 3.776528537273407, -0.8715065568685532 l3.4860262274742126, 1.1620087176561356 0.726255476474762, 1.1620087176561356 l0.5810043588280678, 2.905021905899048 -0.5810043588280678, 5.08378803730011 l-2.905021905899048, 4.648034870624542 -2.324017435312271, 2.4692685902118683 l-2.4692685902118683, 1.452510952949524 m-51.99989318847656, 9.150818586349487 l0.14525108970701694, 6.391047835350037 0.8715065568685532, 4.067030549049377 l3.3407750725746155, 7.988809943199158 2.178766429424286, 3.050273060798645 l2.6145195960998535, 2.178766429424286 4.502783715724945, 2.324017435312271 l4.212281703948975, 1.0167576372623444 4.648034870624542, 0.0 l4.938537180423737, -0.5810043588280678 5.229039192199707, -1.3072597980499268 l4.793286025524139, -2.324017435312271 3.9217793941497803, -2.7597707509994507 l4.212281703948975, -5.6647926568984985 1.5977619588375092, -3.3407750725746155 l1.8882642686367035, -5.374290347099304 0.4357532784342766, -4.212281703948975 m-36.31277322769165, 17.86588430404663 l0.14525108970701694, 2.0335152745246887 0.2905021794140339, 0.726255476474762 l0.726255476474762, 0.14525108970701694 1.3072597980499268, -2.324017435312271 l0.8715065568685532, 0.0 1.5977619588375092, 2.324017435312271 l1.0167576372623444, -0.14525108970701694 1.3072597980499268, -1.5977619588375092 l0.8715065568685532, -0.14525108970701694 3.63127738237381, 1.452510952949524 l0.8715065568685532, -0.4357532784342766 2.4692685902118683, -3.4860262274742126 l1.0167576372623444, 0.0 2.324017435312271, 2.905021905899048 m-21.206660270690918, -22.078166007995605 l0.8715065568685532, 4.648034870624542 2.0335152745246887, 3.4860262274742126 l2.7597707509994507, 2.0335152745246887 2.0335152745246887, 0.726255476474762 l4.357532858848572, -0.2905021794140339 2.324017435312271, -1.0167576372623444 l1.7430131137371063, -1.452510952949524 1.7430131137371063, -2.0335152745246887 l1.1620087176561356, -2.4692685902118683 0.8715065568685532, -5.229039192199707 l-0.14525108970701694, -1.0167576372623444 -1.7430131137371063, -1.452510952949524 m-21.64241313934326, 7.698307633399963 l4.212281703948975, 10.603330135345459 2.0335152745246887, 2.7597707509994507 l2.7597707509994507, 1.5977619588375092 1.5977619588375092, 0.4357532784342766 l2.178766429424286, -0.5810043588280678 0.726255476474762, -0.5810043588280678 m-5.810043811798096, -6.826801300048828 l0.726255476474762, 2.178766429424286 m0.2905021794140339, 0.4357532784342766 l1.3072597980499268, -0.726255476474762 m0.8715065568685532, 0.0 l2.6145195960998535, 2.4692685902118683 1.0167576372623444, -0.4357532784342766 l1.452510952949524, -3.050273060798645 2.6145195960998535, 2.324017435312271 l1.0167576372623444, 0.4357532784342766 0.5810043588280678, -0.14525108970701694 l0.8715065568685532, -1.452510952949524 0.2905021794140339, -2.324017435312271 l0.5810043588280678, -0.14525108970701694 0.726255476474762, -1.0167576372623444 l0.0, -3.050273060798645 -0.726255476474762, -3.3407750725746155 l1.1620087176561356, 1.1620087176561356 m-18.01113486289978, -10.02232551574707 l8.569814562797546, -1.5977619588375092 2.6145195960998535, -1.1620087176561356 m-10.312827825546265, 2.4692685902118683 l5.955294966697693, 7.26255476474762 m4.067030549049377, -10.312827825546265 l-1.5977619588375092, 8.569814562797546 m-0.8715065568685532, 2.0335152745246887 l-0.2905021794140339, 0.5810043588280678 1.0167576372623444, 6.972052454948425 m-8.569814562797546, -19.027893543243408 l0.0, -0.4357532784342766 m16.558624505996704, -2.178766429424286 l0.0, 0.0 m-35.87702035903931, -3.3407750725746155 l2.905021905899048, -6.972052454948425 2.6145195960998535, -3.3407750725746155 l1.3072597980499268, -0.5810043588280678 1.7430131137371063, 0.4357532784342766 l2.905021905899048, 2.905021905899048 1.3072597980499268, 0.5810043588280678 l1.3072597980499268, -0.5810043588280678 7.1173036098480225, -7.26255476474762 l1.7430131137371063, 5.374290347099304 1.1620087176561356, 1.5977619588375092 l2.905021905899048, -0.8715065568685532 4.502783715724945, -3.63127738237381 l2.178766429424286, 0.0 3.776528537273407, 3.776528537273407 l3.4860262274742126, -0.14525108970701694 3.4860262274742126, -2.178766429424286 l5.374290347099304, -5.955294966697693 1.0167576372623444, 0.2905021794140339 l1.5977619588375092, 10.312827825546265 1.452510952949524, 0.2905021794140339 l2.324017435312271, -1.5977619588375092 4.938537180423737, -5.810043811798096 l2.178766429424286, -1.1620087176561356 2.178766429424286, 1.3072597980499268 l1.3072597980499268, 2.905021905899048 0.5810043588280678, 7.1173036098480225 l-0.2905021794140339, 2.7597707509994507 -2.178766429424286, 7.407805919647217 l-3.776528537273407, 20.62565565109253 -1.8882642686367035, -4.648034870624542 l-3.3407750725746155, 12.927347421646118 -0.5810043588280678, 0.726255476474762 l-4.938537180423737, -3.4860262274742126 -1.0167576372623444, 0.14525108970701694 l-1.0167576372623444, 2.324017435312271 0.0, 10.312827825546265 l-0.5810043588280678, 0.14525108970701694 -1.3072597980499268, -1.1620087176561356 l-3.63127738237381, -5.229039192199707 -1.3072597980499268, 3.776528537273407 l-0.2905021794140339, 3.776528537273407 -2.4692685902118683, 4.793286025524139 l-1.5977619588375092, -0.14525108970701694 -9.731823205947876, -6.972052454948425 l-2.4692685902118683, 1.0167576372623444 -3.63127738237381, 4.357532858848572 l-2.4692685902118683, 1.0167576372623444 -5.08378803730011, -3.3407750725746155 l-3.63127738237381, -4.067030549049377 -2.6145195960998535, -1.7430131137371063 l-2.905021905899048, 2.905021905899048 -0.726255476474762, 1.452510952949524 l-3.4860262274742126, -0.8715065568685532 -4.648034870624542, -8.86031687259674 l-5.229039192199707, -13.363100290298462 0.2905021794140339, -0.5810043588280678 l3.9217793941497803, 2.0335152745246887 2.6145195960998535, -1.8882642686367035 l0.5810043588280678, -3.3407750725746155 -3.4860262274742126, -18.44688892364502 l2.324017435312271, 4.357532858848572 0.5810043588280678, 0.5810043588280678 l0.8715065568685532, -0.2905021794140339 0.0, -12.055840492248535 l1.452510952949524, -1.1620087176561356 3.9217793941497803, 2.0335152745246887 " fill="none" stroke="black" stroke-width="1" /></svg>