<?xml version="1.0" encoding="utf-8" ?>
<svg baseProfile="full" height="44.860262060537934" version="1.1" width="49.5082972291857" xmlns="http://www.w3.org/2000/svg" xmlns:ev="http://www.w3.org/2001/xml-events" xmlns:xlink="http://www.w3.org/1999/xlink"><defs /><rect fill="white" height="44.860262060537934" width="49.5082972291857" x="0" y="0" /><path d="M32.01670402660966, 14.29606994614005 m-2.905021905899048, -2.7597707509994507 l-4.212281703948975, -1.7430131137371063 -7.1173036098480225, -0.2905021794140339 l-1.8882642686367035, 0.4357532784342766 -2.7597707509994507, 1.5977619588375092 l-1.3072597980499268, 1.452510952949524 -0.726255476474762, 1.7430131137371063 l-0.2905021794140339, 4.212281703948975 2.905021905899048, 5.229039192199707 l2.905021905899048, 2.4692685902118683 5.229039192199707, 2.6145195960998535 l8.134061098098755, 2.0335152745246887 3.1955239176750183, 0.0 l1.3072597980499268, -0.4357532784342766 2.0335152745246887, -2.178766429424286 l0.5810043588280678, -1.8882642686367035 0.14525108970701694, -3.4860262274742126 l-1.5977619588375092, -5.08378803730011 -1.5977619588375092, -2.324017435312271 l-2.905021905899048, -2.4692685902118683 -2.0335152745246887, -1.452510952949524 l-0.8715065568685532, 0.0 m12.782095670700073, -1.3072597980499268 l-4.067030549049377, 3.9217793941497803 -1.3072597980499268, 2.0335152745246887 l0.4357532784342766, 0.4357532784342766 m8.42456340789795, 1.5977619588375092 l-7.553057074546814, 3.776528537273407 -0.8715065568685532, 1.1620087176561356 l0.2905021794140339, 0.8715065568685532 2.178766429424286, 1.5977619588375092 m4.502783715724945, 2.178766429424286 l-4.067030549049377, 0.8715065568685532 -3.1955239176750183, 1.7430131137371063 l-0.14525108970701694, 3.4860262274742126 0.726255476474762, 1.0167576372623444 l-4.357532858848572, -2.4692685902118683 -1.1620087176561356, -0.14525108970701694 l-0.4357532784342766, 1.7430131137371063 m-2.905021905899048, 3.050273060798645 l-3.3407750725746155, -1.1620087176561356 -0.14525108970701694, 3.1955239176750183 l-2.4692685902118683, 0.2905021794140339 -2.7597707509994507, -1.452510952949524 l-1.452510952949524, -1.3072597980499268 -0.14525108970701694, -2.0335152745246887 l0.4357532784342766, -1.3072597980499268 -0.8715065568685532, -1.0167576372623444 l-4.212281703948975, -0.14525108970701694 2.0335152745246887, -1.3072597980499268 l1.1620087176561356, -2.324017435312271 0.0, -0.8715065568685532 l-3.1955239176750183, -0.8715065568685532 -4.067030549049377, 0.0 l1.5977619588375092, -3.9217793941497803 1.8882642686367035, -2.178766429424286 l-4.648034870624542, -1.1620087176561356 -2.324017435312271, -1.7430131137371063 l3.4860262274742126, -3.4860262274742126 5.229039192199707, -1.1620087176561356 l-5.955294966697693, -0.5810043588280678 -2.6145195960998535, -1.5977619588375092 l2.178766429424286, -1.8882642686367035 1.8882642686367035, -0.4357532784342766 l6.536298990249634, 1.1620087176561356 -2.6145195960998535, -0.4357532784342766 l-1.5977619588375092, -1.8882642686367035 0.0, -0.8715065568685532 l3.63127738237381, -1.1620087176561356 5.6647926568984985, 0.5810043588280678 l4.648034870624542, -1.452510952949524 1.0167576372623444, 1.0167576372623444 l-0.14525108970701694, 1.1620087176561356 0.726255476474762, 0.726255476474762 l7.26255476474762, 2.0335152745246887 2.6145195960998535, 0.2905021794140339 l-5.374290347099304, 5.08378803730011 m-13.508352041244507, 2.178766429424286 l-1.1620087176561356, 0.5810043588280678 1.5977619588375092, -0.2905021794140339 l-0.726255476474762, 0.0 m10.748580694198608, -0.726255476474762 l0.14525108970701694, 0.0 m-7.26255476474762, 4.502783715724945 l-0.4357532784342766, 0.726255476474762 2.905021905899048, -0.726255476474762 l0.14525108970701694, 0.726255476474762 -0.5810043588280678, 0.726255476474762 l-3.9217793941497803, 0.5810043588280678 m12.927347421646118, 2.324017435312271 l-1.7430131137371063, -0.2905021794140339 -4.357532858848572, 1.452510952949524 l-3.9217793941497803, 0.14525108970701694 -2.324017435312271, -0.2905021794140339 l-3.3407750725746155, -1.3072597980499268 " fill="none" stroke="black" stroke-width="1" /></svg>