<?xml version="1.0" encoding="utf-8" ?>
<svg baseProfile="full" height="57.351855942979455" version="1.1" width="55.17308913171291" xmlns="http://www.w3.org/2000/svg" xmlns:ev="http://www.w3.org/2001/xml-events" xmlns:xlink="http://www.w3.org/1999/xlink"><defs /><rect fill="white" height="57.351855942979455" width="55.17308913171291" x="0" y="0" /><path d="M21.268122885376215, 21.268122140318155 m0.0, -1.0167576372623444 l1.3072597980499268, -2.324017435312271 0.0, -1.1620087176561356 l2.324017435312271, -0.726255476474762 2.6145195960998535, 1.0167576372623444 l8.279312252998352, -0.8715065568685532 4.938537180423737, 2.178766429424286 l0.4357532784342766, 0.726255476474762 -0.14525108970701694, 1.452510952949524 l-1.452510952949524, 2.178766429424286 -3.3407750725746155, 1.8882642686367035 m-5.08378803730011, 8.86031687259674 l0.14525108970701694, -2.4692685902118683 3.63127738237381, -0.726255476474762 l0.726255476474762, 0.0 1.1620087176561356, 1.452510952949524 l0.2905021794140339, 2.4692685902118683 -1.452510952949524, 0.5810043588280678 l-1.5977619588375092, 0.0 -2.178766429424286, -1.3072597980499268 m-10.02232551574707, -11.039083003997803 l3.9217793941497803, 10.16757607460022 1.7430131137371063, 1.452510952949524 l1.5977619588375092, 2.178766429424286 3.050273060798645, 1.452510952949524 l1.5977619588375092, 0.14525108970701694 2.6145195960998535, -2.4692685902118683 l0.5810043588280678, -1.7430131137371063 0.726255476474762, -3.63127738237381 l-0.14525108970701694, -6.826801300048828 m-7.988809943199158, -1.5977619588375092 l0.0, 0.0 m5.810043811798096, -0.5810043588280678 l0.14525108970701694, 0.726255476474762 -0.726255476474762, 0.5810043588280678 m-7.1173036098480225, -0.14525108970701694 l0.0, 2.178766429424286 0.2905021794140339, 0.726255476474762 l0.4357532784342766, -0.4357532784342766 m12.782095670700073, -4.357532858848572 l1.1620087176561356, -1.8882642686367035 0.14525108970701694, -3.9217793941497803 l-1.1620087176561356, -5.08378803730011 -1.7430131137371063, -4.212281703948975 l-0.726255476474762, -0.14525108970701694 -4.502783715724945, 8.134061098098755 l-2.6145195960998535, 2.4692685902118683 -1.3072597980499268, -0.14525108970701694 l-5.374290347099304, -6.10054612159729 -2.6145195960998535, -2.324017435312271 l-3.776528537273407, -2.0335152745246887 -0.8715065568685532, 0.726255476474762 l-1.452510952949524, 5.6647926568984985 -1.452510952949524, -2.4692685902118683 l-0.4357532784342766, -1.7430131137371063 -0.726255476474762, -0.4357532784342766 l-4.357532858848572, 14.52510952949524 -2.0335152745246887, 4.648034870624542 l4.067030549049377, -1.452510952949524 6.391047835350037, -0.14525108970701694 l1.452510952949524, 0.4357532784342766 0.14525108970701694, 1.5977619588375092 l-3.3407750725746155, 3.63127738237381 -8.134061098098755, 4.212281703948975 l-2.905021905899048, 2.178766429424286 1.7430131137371063, 0.4357532784342766 l5.374290347099304, -0.2905021794140339 3.63127738237381, 0.8715065568685532 l0.8715065568685532, 0.5810043588280678 -0.2905021794140339, 1.5977619588375092 l-3.776528537273407, 3.3407750725746155 7.698307633399963, 1.3072597980499268 l1.5977619588375092, 0.8715065568685532 0.2905021794140339, 1.5977619588375092 l2.324017435312271, 0.4357532784342766 3.3407750725746155, 2.0335152745246887 l-1.452510952949524, -8.569814562797546 0.2905021794140339, -2.7597707509994507 l1.452510952949524, 0.726255476474762 5.374290347099304, 8.134061098098755 l1.8882642686367035, 2.0335152745246887 2.4692685902118683, 2.0335152745246887 l4.212281703948975, 1.5977619588375092 1.0167576372623444, -0.14525108970701694 l1.1620087176561356, -2.324017435312271 0.2905021794140339, -2.4692685902118683 l0.0, -9.296069741249084 0.726255476474762, 0.2905021794140339 l2.324017435312271, 2.7597707509994507 0.726255476474762, 0.4357532784342766 l0.5810043588280678, -0.726255476474762 1.1620087176561356, -9.731823205947876 l-0.4357532784342766, -3.63127738237381 0.5810043588280678, 2.178766429424286 l-1.5977619588375092, -0.2905021794140339 -5.6647926568984985, -3.3407750725746155 l-1.3072597980499268, -2.324017435312271 0.2905021794140339, -1.3072597980499268 " fill="none" stroke="black" stroke-width="1" /></svg>