<?xml version="1.0" encoding="utf-8" ?>
<svg baseProfile="full" height="53.57532827183604" version="1.1" width="45.005513494834304" xmlns="http://www.w3.org/2000/svg" xmlns:ev="http://www.w3.org/2001/xml-events" xmlns:xlink="http://www.w3.org/1999/xlink"><defs /><rect fill="white" height="53.57532827183604" width="45.005513494834304" x="0" y="0" /><path d="M28.821179838851094, 15.167576782405376 m-1.452510952949524, -1.1620087176561356 l-2.4692685902118683, -0.4357532784342766 -4.938537180423737, 0.14525108970701694 l-2.178766429424286, 0.5810043588280678 -2.4692685902118683, 2.4692685902118683 l-2.4692685902118683, 3.776528537273407 -0.726255476474762, 2.324017435312271 l0.0, 3.3407750725746155 0.4357532784342766, 3.1955239176750183 l0.8715065568685532, 1.5977619588375092 1.452510952949524, 1.3072597980499268 l3.3407750725746155, 1.7430131137371063 2.6145195960998535, 0.14525108970701694 l4.067030549049377, -0.2905021794140339 1.8882642686367035, -0.2905021794140339 l3.1955239176750183, -1.5977619588375092 3.776528537273407, -4.357532858848572 l0.5810043588280678, -2.324017435312271 0.0, -3.4860262274742126 l-1.0167576372623444, -5.374290347099304 -4.793286025524139, -4.357532858848572 m-11.329585313796997, -0.2905021794140339 l3.776528537273407, -5.955294966697693 1.1620087176561356, -0.8715065568685532 l2.0335152745246887, 0.14525108970701694 1.8882642686367035, 1.7430131137371063 l0.8715065568685532, 1.8882642686367035 0.2905021794140339, 3.1955239176750183 l0.726255476474762, 0.0 9.00556743144989, -6.2457966804504395 l0.8715065568685532, 5.955294966697693 0.0, 9.586572051048279 l0.8715065568685532, 0.0 1.3072597980499268, 2.178766429424286 l-0.4357532784342766, 5.229039192199707 -1.3072597980499268, 1.8882642686367035 l-1.452510952949524, 1.0167576372623444 -1.8882642686367035, -0.5810043588280678 l-1.3072597980499268, -1.0167576372623444 -1.7430131137371063, 4.793286025524139 l-1.1620087176561356, 1.8882642686367035 -2.178766429424286, 2.0335152745246887 l-1.5977619588375092, 0.14525108970701694 -2.324017435312271, -0.4357532784342766 l-1.8882642686367035, -0.726255476474762 -0.8715065568685532, -1.1620087176561356 l-6.10054612159729, 3.3407750725746155 -3.3407750725746155, 0.0 l-1.3072597980499268, -0.726255476474762 -1.1620087176561356, -2.7597707509994507 l0.14525108970701694, -2.324017435312271 1.1620087176561356, -2.6145195960998535 l-2.6145195960998535, -3.050273060798645 -3.050273060798645, -2.0335152745246887 l-0.5810043588280678, -1.0167576372623444 0.0, -1.5977619588375092 l0.5810043588280678, -1.1620087176561356 2.178766429424286, -2.0335152745246887 l2.905021905899048, -2.0335152745246887 1.7430131137371063, -0.5810043588280678 l-1.3072597980499268, -1.3072597980499268 -0.5810043588280678, -1.452510952949524 l0.0, -2.324017435312271 0.5810043588280678, -1.5977619588375092 l5.08378803730011, -1.452510952949524 2.905021905899048, 0.0 l0.4357532784342766, 0.726255476474762 m0.14525108970701694, 6.2457966804504395 l0.2905021794140339, 1.7430131137371063 1.452510952949524, 2.0335152745246887 m10.312827825546265, -2.324017435312271 l-2.0335152745246887, 0.14525108970701694 -4.648034870624542, 3.4860262274742126 m-1.452510952949524, 3.050273060798645 l-1.5977619588375092, 0.0 -2.6145195960998535, 2.178766429424286 l-1.3072597980499268, 1.7430131137371063 0.2905021794140339, 0.5810043588280678 l3.3407750725746155, -0.726255476474762 1.8882642686367035, -1.1620087176561356 l1.3072597980499268, -1.5977619588375092 0.14525108970701694, -1.452510952949524 l-0.4357532784342766, -0.14525108970701694 m-3.1955239176750183, 1.0167576372623444 l2.4692685902118683, 0.5810043588280678 1.7430131137371063, -1.0167576372623444 m-5.229039192199707, 8.279312252998352 l-0.14525108970701694, 9.586572051048279 0.726255476474762, 3.63127738237381 l1.7430131137371063, 1.452510952949524 3.4860262274742126, 0.726255476474762 " fill="none" stroke="black" stroke-width="1" /></svg>