<?xml version="1.0" encoding="utf-8" ?>
<svg baseProfile="full" height="82.4802953377366" version="1.1" width="95.11714046820998" xmlns="http://www.w3.org/2000/svg" xmlns:ev="http://www.w3.org/2001/xml-events" xmlns:xlink="http://www.w3.org/1999/xlink"><defs /><rect fill="white" height="82.4802953377366" width="95.11714046820998" x="0" y="0" /><path d="M43.63678885623813, 36.51948841288686 m-3.9217793941497803, 4.793286025524139 l-0.726255476474762, 1.452510952949524 0.0, 1.452510952949524 l0.4357532784342766, 0.8715065568685532 2.4692685902118683, 1.5977619588375092 l2.324017435312271, 0.4357532784342766 7.698307633399963, -1.452510952949524 l2.4692685902118683, 0.2905021794140339 1.8882642686367035, -0.5810043588280678 l1.0167576372623444, -0.8715065568685532 1.0167576372623444, -1.5977619588375092 l-0.14525108970701694, -2.6145195960998535 -1.0167576372623444, -1.7430131137371063 l-2.7597707509994507, -2.178766429424286 m-5.374290347099304, 9.441320896148682 l-1.452510952949524, -0.14525108970701694 -0.14525108970701694, -1.7430131137371063 l0.8715065568685532, -0.5810043588280678 0.726255476474762, 0.14525108970701694 l0.726255476474762, 0.726255476474762 0.0, 1.7430131137371063 l-0.726255476474762, -0.2905021794140339 0.0, -1.7430131137371063 l1.452510952949524, -0.5810043588280678 0.726255476474762, 0.5810043588280678 l-0.4357532784342766, 0.726255476474762 -2.4692685902118683, 0.726255476474762 m1.1620087176561356, 0.2905021794140339 l-1.3072597980499268, 1.7430131137371063 -3.1955239176750183, 2.7597707509994507 l-10.603330135345459, 2.178766429424286 m15.251364707946777, -5.6647926568984985 l0.8715065568685532, 1.7430131137371063 1.8882642686367035, 1.7430131137371063 l3.3407750725746155, 1.452510952949524 3.1955239176750183, 0.4357532784342766 l3.050273060798645, -0.2905021794140339 1.8882642686367035, -0.4357532784342766 l2.4692685902118683, -1.452510952949524 m-33.988754749298096, -11.910589933395386 l-2.4692685902118683, -0.5810043588280678 -1.1620087176561356, -1.0167576372623444 l-1.1620087176561356, -2.0335152745246887 -0.14525108970701694, -2.0335152745246887 l0.8715065568685532, -2.324017435312271 1.7430131137371063, -2.178766429424286 l3.776528537273407, -2.0335152745246887 3.9217793941497803, -0.4357532784342766 l2.0335152745246887, 0.726255476474762 1.7430131137371063, 1.5977619588375092 l0.726255476474762, 2.178766429424286 -0.2905021794140339, 1.452510952949524 l-2.178766429424286, 4.067030549049377 -1.7430131137371063, 2.0335152745246887 l-3.3407750725746155, 3.050273060798645 -2.4692685902118683, 1.5977619588375092 l-0.8715065568685532, 0.4357532784342766 -0.14525108970701694, -0.2905021794140339 m37.47478246688843, -5.374290347099304 l-1.7430131137371063, 1.0167576372623444 -2.7597707509994507, 0.2905021794140339 l-4.212281703948975, -1.7430131137371063 -2.0335152745246887, -2.6145195960998535 l-0.14525108970701694, -2.905021905899048 1.0167576372623444, -2.0335152745246887 l1.5977619588375092, -1.5977619588375092 3.050273060798645, -1.3072597980499268 l2.0335152745246887, 0.0 1.7430131137371063, 0.5810043588280678 l1.452510952949524, 1.1620087176561356 0.8715065568685532, 1.8882642686367035 l0.0, 3.1955239176750183 -0.8715065568685532, 1.8882642686367035 l-2.0335152745246887, 2.4692685902118683 m-17.86588430404663, -23.675928115844727 l-4.357532858848572, -3.776528537273407 -3.63127738237381, -1.7430131137371063 l-4.648034870624542, -1.0167576372623444 -1.5977619588375092, 0.5810043588280678 l-2.905021905899048, 3.1955239176750183 -5.229039192199707, 9.296069741249084 l-2.905021905899048, 3.050273060798645 -1.5977619588375092, 0.4357532784342766 l-4.793286025524139, -0.8715065568685532 -2.4692685902118683, 0.0 l-2.905021905899048, 1.0167576372623444 1.8882642686367035, 0.726255476474762 l6.391047835350037, 0.4357532784342766 1.5977619588375092, 1.0167576372623444 l0.14525108970701694, 1.3072597980499268 -2.324017435312271, 2.7597707509994507 l-11.474835872650146, 9.150818586349487 -2.905021905899048, 3.4860262274742126 l6.536298990249634, 0.14525108970701694 3.4860262274742126, 1.1620087176561356 l1.5977619588375092, 1.3072597980499268 1.7430131137371063, 3.776528537273407 l0.4357532784342766, 2.324017435312271 0.8715065568685532, 10.748580694198608 l1.8882642686367035, 2.324017435312271 3.1955239176750183, 0.726255476474762 l12.20109224319458, -2.4692685902118683 2.905021905899048, 1.1620087176561356 l1.7430131137371063, 3.4860262274742126 1.0167576372623444, 7.698307633399963 l1.3072597980499268, 2.4692685902118683 0.8715065568685532, 0.14525108970701694 l3.1955239176750183, -1.8882642686367035 6.681550145149231, -6.10054612159729 l4.212281703948975, -3.050273060798645 2.0335152745246887, -0.8715065568685532 l2.905021905899048, -0.14525108970701694 1.8882642686367035, 1.3072597980499268 l3.3407750725746155, 3.63127738237381 2.178766429424286, 1.452510952949524 l2.178766429424286, 0.14525108970701694 1.452510952949524, -0.8715065568685532 l3.9217793941497803, -4.212281703948975 8.715065717697144, -13.653602600097656 l-0.8715065568685532, 3.1955239176750183 -1.5977619588375092, 3.63127738237381 l0.2905021794140339, -4.067030549049377 4.067030549049377, -17.86588430404663 l0.726255476474762, -6.10054612159729 -0.5810043588280678, -4.212281703948975 l-0.726255476474762, -1.3072597980499268 -2.0335152745246887, -1.3072597980499268 l-3.1955239176750183, -0.5810043588280678 -2.178766429424286, -1.3072597980499268 l-1.1620087176561356, -1.3072597980499268 -1.5977619588375092, -5.229039192199707 l-1.1620087176561356, -8.42456340789795 -0.726255476474762, -1.7430131137371063 l-1.8882642686367035, -1.5977619588375092 -2.6145195960998535, 0.726255476474762 l-8.86031687259674, 4.357532858848572 -4.067030549049377, 1.0167576372623444 l-4.357532858848572, -0.14525108970701694 -2.905021905899048, -1.8882642686367035 l-1.5977619588375092, 1.3072597980499268 -4.648034870624542, 5.955294966697693 " fill="none" stroke="black" stroke-width="1" /></svg>