<?xml version="1.0" encoding="utf-8" ?>
<svg baseProfile="full" height="95.32904907129705" version="1.1" width="86.86930968426168" xmlns="http://www.w3.org/2000/svg" xmlns:ev="http://www.w3.org/2001/xml-events" xmlns:xlink="http://www.w3.org/1999/xlink"><defs /><rect fill="white" height="95.32904907129705" width="86.86930968426168" x="0" y="0" /><path d="M43.81344988942146, 45.202361634001136 m-14.394183158874512, 5.555649399757385 l-1.6414418816566467, 0.8838532865047455 -1.5151771903038025, 2.272765636444092 l-1.262647658586502, 5.303120017051697 0.12626475654542446, 5.050590634346008 l1.262647658586502, 2.904089391231537 2.272765636444092, 2.399030476808548 l2.7778246998786926, 0.7575885951519012 1.767706573009491, -1.6414418816566467 l3.030354380607605, -6.94456160068512 0.631323829293251, -2.399030476808548 l0.0, -3.535413146018982 -0.7575885951519012, -2.399030476808548 l-1.8939714133739471, -2.7778246998786926 -3.2828837633132935, -2.6515600085258484 m19.31850790977478, -1.262647658586502 l1.8939714133739471, -0.8838532865047455 1.262647658586502, 0.0 l2.6515600085258484, 1.767706573009491 4.92432564496994, 8.712268471717834 l0.8838532865047455, 3.4091484546661377 -0.5050590261816978, 1.8939714133739471 l-2.0202361047267914, 1.136382818222046 -3.9142075181007385, -0.12626475654542446 l-3.66167813539505, -2.6515600085258484 -2.525295317173004, -2.525295317173004 l-1.3889123499393463, -2.7778246998786926 -0.2525295130908489, -3.7879428267478943 l1.0101180523633957, -2.7778246998786926 1.5151771903038025, -1.262647658586502 m-6.313238143920898, -1.6414418816566467 l10.101181268692017, -1.0101180523633957 m-16.288154125213623, -1.767706573009491 l0.7575885951519012, 3.2828837633132935 m0.7575885951519012, -3.66167813539505 l-6.692032217979431, 0.8838532865047455 -0.3787942975759506, -0.631323829293251 l0.2525295130908489, -1.136382818222046 m19.823566675186157, 1.3889123499393463 l-1.767706573009491, -6.94456160068512 -0.8838532865047455, -8.459739089012146 m-3.030354380607605, -0.7575885951519012 l3.535413146018982, -0.7575885951519012 7.070826292037964, -0.631323829293251 " fill="none" stroke="black" stroke-width="1" /></svg>