<?xml version="1.0" encoding="utf-8" ?>
<svg baseProfile="full" height="71.80617997422814" version="1.1" width="94.13250587880611" xmlns="http://www.w3.org/2000/svg" xmlns:ev="http://www.w3.org/2001/xml-events" xmlns:xlink="http://www.w3.org/1999/xlink"><defs /><rect fill="white" height="71.80617997422814" width="94.13250587880611" x="0" y="0" /><path d="M29.616538509726524, 28.770303917117417 m-1.7661136388778687, -0.31256329268217087 l-2.033563405275345, 0.6014537811279297 -0.8168614655733109, 1.0715700685977936 l0.1343880407512188, 1.3817691802978516 0.3929554671049118, 1.8657533824443817 l1.0631385445594788, 1.7971237003803253 1.1868595331907272, 1.8306729197502136 l1.1887094378471375, 1.404556781053543 1.0639157891273499, 1.5500825643539429 l1.043921783566475, 1.1729278415441513 0.7549484819173813, 1.2512670457363129 l1.0922877490520477, 0.6339554488658905 0.8188343793153763, 0.6679362803697586 l0.5790284276008606, 0.5831686407327652 0.6605911999940872, 0.5083667859435081 l0.5968735367059708, 0.577923022210598 0.6195465102791786, 0.30288152396678925 l0.5076367780566216, 0.33777639269828796 0.26391567662358284, 0.3535749390721321 l0.37021275609731674, 0.16341166570782661 0.33576302230358124, 0.2499096840620041 l0.5883331224322319, -0.05108640994876623 0.3371839225292206, 0.09344411082565784 l0.35129085183143616, -0.17068475484848022 0.4069101810455322, -0.3376200422644615 l0.4190143570303917, -0.11552255600690842 0.43126415461301804, -0.2965349704027176 l0.42786747217178345, -0.5229374393820763 0.31696490943431854, -0.34032203257083893 l0.48896633088588715, -0.3486909344792366 0.491458922624588, -0.6001022830605507 l0.39654772728681564, -0.3143678233027458 0.6257008761167526, -0.5388617143034935 l0.33576052635908127, -0.5577456206083298 0.6603728979825974, -0.7030345499515533 l0.6662764400243759, -0.6166845187544823 0.5310187488794327, -0.6845028698444366 l0.6981390714645386, -0.8106864988803864 0.6304033100605011, -0.6555268168449402 l0.6924548000097275, -0.8470592647790909 0.5384771898388863, -0.5682816356420517 l0.8423181623220444, -0.7371959835290909 0.4311714321374893, -0.5735380947589874 l0.5630870908498764, -0.49936413764953613 0.4968167841434479, -0.4999003931879997 l0.6851860880851746, -0.7698673754930496 0.7616434246301651, -0.5792369320988655 l0.6545758247375488, -0.49352124333381653 0.5846114829182625, -0.6519969552755356 l0.6763015687465668, -0.3715260699391365 0.7420133054256439, -0.4841873422265053 l0.8093202859163284, -0.5615713447332382 0.49610044807195663, -0.3170347586274147 l0.7334352284669876, -0.4446616396307945 0.8602764457464218, -0.6215775385499 l0.7469337433576584, -0.5014093592762947 0.8161764591932297, -0.43943192809820175 l0.5888714268803596, -0.45127250254154205 0.893927738070488, -0.31473495066165924 l0.7870239764451981, -0.4858279600739479 0.677340179681778, -0.3923693299293518 l0.6853742897510529, -0.3859098255634308 0.9967819601297379, -0.47479353845119476 l0.8410535752773285, -0.32380059361457825 0.8215769380331039, -0.14471668750047684 l0.8192774653434753, -0.18570009618997574 0.8595163375139236, -0.31511809676885605 l0.8371635526418686, -0.2555600367486477 0.8255070447921753, -0.19752735272049904 l0.891190692782402, -0.3036615811288357 " fill="none" stroke="black" stroke-width="1" /></svg>