<?xml version="1.0" encoding="utf-8" ?>
<svg baseProfile="full" height="83.0089039541781" version="1.1" width="78.26025527901947" xmlns="http://www.w3.org/2000/svg" xmlns:ev="http://www.w3.org/2001/xml-events" xmlns:xlink="http://www.w3.org/1999/xlink"><defs /><rect fill="white" height="83.0089039541781" width="78.26025527901947" x="0" y="0" /><path d="M40.751617504283786, 32.99162920564413 m-6.1384981870651245, 0.11582071892917156 l-4.169545769691467, 1.7373107373714447 -2.7796971797943115, 2.0847728848457336 l-1.2740278244018555, 1.853131502866745 -1.2740278244018555, 3.358800709247589 l-0.11582071892917156, 7.52834677696228 1.505669355392456, 3.4746214747428894 l1.0423864424228668, 1.1582071334123611 3.4746214747428894, 1.9689521193504333 l8.802374601364136, 1.6214899718761444 5.559394359588623, 0.11582071892917156 l1.1582071334123611, -0.23164143785834312 1.7373107373714447, -1.1582071334123611 l1.7373107373714447, -2.200593650341034 1.7373107373714447, -4.748649299144745 l0.23164143785834312, -5.443573594093323 -1.6214899718761444, -4.053725004196167 l-3.242979943752289, -3.9379042387008667 -3.8220837712287903, -2.200593650341034 l-4.632828533649445, -0.6949242949485779 m-10.423864126205444, 2.0847728848457336 l0.5791035667061806, -0.46328287571668625 3.8220837712287903, -9.960581660270691 l1.3898485898971558, 3.242979943752289 2.7796971797943115, 4.748649299144745 l3.9379042387008667, 0.11582071892917156 5.3277528285980225, 0.9265657514333725 l2.0847728848457336, -1.3898485898971558 4.9802908301353455, -2.200593650341034 l0.11582071892917156, 3.5904422402381897 -2.200593650341034, 6.949242949485779 m-10.539685487747192, 4.748649299144745 l7.29670524597168, 1.9689521193504333 m-7.180884480476379, 0.0 l4.517008066177368, 2.6638764142990112 m-6.022677421569824, -1.3898485898971558 l2.4322350323200226, 1.3898485898971558 " fill="none" stroke="black" stroke-width="1" /></svg>