<?xml version="1.0" encoding="utf-8" ?>
<svg baseProfile="full" height="109.87015064340085" version="1.1" width="160.1515361573547" xmlns="http://www.w3.org/2000/svg" xmlns:ev="http://www.w3.org/2001/xml-events" xmlns:xlink="http://www.w3.org/1999/xlink"><defs /><rect fill="white" height="109.87015064340085" width="160.1515361573547" x="0" y="0" /><path d="M72.34698185347952, 64.80196914635599 m-0.03483727341517806, -0.17844347283244133 l1.4156116545200348, 0.18399376422166824 2.4108195304870605, 0.2052990347146988 l3.550717830657959, 0.11863511055707932 4.521345794200897, -0.2804667316377163 l4.933641254901886, -0.6974346935749054 5.264652371406555, -1.3341818749904633 l5.123715400695801, -2.069912850856781 4.585101306438446, -2.242838591337204 l3.8403981924057007, -2.5384867191314697 3.247241973876953, -3.2642072439193726 l2.340054512023926, -3.6036652326583862 1.3014480471611023, -3.8852033019065857 l0.2594359219074249, -4.048889875411987 -0.7269900292158127, -4.006631076335907 l-1.7456471920013428, -3.606315851211548 -2.7132099866867065, -3.073064088821411 l-3.6543461680412292, -2.528994083404541 -4.471917748451233, -1.8203385174274445 l-5.016692876815796, -0.9990531206130981 -5.612015724182129, -0.13176972977817059 l-5.758140683174133, 0.6812398880720139 -5.734610557556152, 1.2898990511894226 l-5.449425578117371, 1.7371253669261932 -5.106157660484314, 2.1763192117214203 l-4.634690880775452, 2.677639126777649 -4.358687996864319, 2.902035117149353 l-3.9106228947639465, 3.1548449397087097 -3.353567123413086, 3.3677074313163757 l-2.8024107217788696, 3.4133300185203552 -2.3560328781604767, 3.5497242212295532 l-1.7078162729740143, 3.8231298327445984 -1.1824917048215866, 4.014415144920349 l-0.48385579138994217, 4.186080694198608 0.2793935313820839, 3.988921344280243 l1.0095545649528503, 3.960314095020294 1.4685887098312378, 3.444320559501648 l2.4332769215106964, 2.5254112482070923 3.254097104072571, 1.9288887083530426 l3.7089917063713074, 1.418462097644806 4.032439589500427, 0.8178150653839111 l4.188500940799713, 0.29331138357520103 4.22478973865509, 0.011258181184530258 l4.027862250804901, -0.6071177497506142 3.796362280845642, -0.7867871224880219 l3.4593677520751953, -1.0418542474508286 3.330952227115631, -1.245429515838623 l3.0030614137649536, -1.3149896264076233 2.772350311279297, -1.353958249092102 l2.214883267879486, -1.3917902112007141 1.8041083216667175, -1.4455056190490723 l1.526254266500473, -1.3176587224006653 1.144363060593605, -1.1995989084243774 l0.7495467364788055, -1.3637560606002808 0.40118757635354996, -1.5668968856334686 l-0.011923889396712184, -1.3877245783805847 -0.3511761501431465, -1.241275817155838 l-0.6335484236478806, -1.1055303364992142 -1.1401785910129547, -0.862201526761055 l-1.5134057402610779, -0.8208639174699783 -1.7982228100299835, -0.6408868730068207 l-2.0128026604652405, -0.5827512964606285 -2.480350136756897, -0.35362474620342255 l-2.635130286216736, -0.07553751114755869 -2.976028621196747, 0.0808063056319952 l-3.261379897594452, 0.3942989557981491 -3.5080650448799133, 0.6307408213615417 l-3.707888126373291, 0.805082842707634 -3.76064270734787, 0.9889142960309982 l-3.6655938625335693, 1.2036563456058502 -3.670125901699066, 1.3478942215442657 l-3.629060983657837, 1.2864220142364502 -3.613561689853668, 1.428399384021759 l-3.4920307993888855, 1.5859703719615936 -3.2436057925224304, 1.6336135566234589 l-3.216926157474518, 1.6396898031234741 -2.9324615001678467, 1.631646752357483 l-2.677778899669647, 1.7810903489589691 -2.5508135557174683, 1.780531108379364 l-2.2715122997760773, 1.6546769440174103 -1.9532513618469238, 1.5624721348285675 l-1.6425533592700958, 1.409643441438675 -1.4517632126808167, 1.3021229207515717 l-1.2120924890041351, 0.9169496595859528 -0.7793029397726059, 0.6867364048957825 l-0.3637522831559181, 0.31652942299842834 0.02921312116086483, 0.14580938033759594 l0.5341561883687973, -0.49953073263168335 0.9799230843782425, -0.7103423029184341 l1.3179045915603638, -0.9739815443754196 1.7537418007850647, -1.2437144666910172 l2.0143629610538483, -1.4587986469268799 2.150545120239258, -1.5982721745967865 l2.3543432354927063, -1.4744135737419128 2.34174907207489, -1.1355292052030563 l2.509210705757141, -0.9999871999025345 2.38754004240036, -0.7619168609380722 l2.7444127202033997, -0.840844139456749 2.92592853307724, -0.9887506812810898 l2.9544615745544434, -1.095193400979042 2.9220855236053467, -1.0605506598949432 l2.8447914123535156, -0.7563401013612747 2.85495787858963, -0.8523168414831161 l2.7989956736564636, -0.7564733177423477 2.9111775755882263, -0.7991907745599747 l2.845623791217804, -0.6723347306251526 2.781148850917816, -0.4377346485853195 l2.9288020730018616, -0.22979475557804108 3.0678221583366394, -0.30198268592357635 l3.2874056696891785, -0.6570576131343842 3.1912636756896973, -0.624229833483696 l3.3412691950798035, -0.6739877164363861 3.3247843384742737, -0.7115305215120316 l3.216957747936249, -0.45708514750003815 3.1127899885177612, -0.4349379986524582 l3.0729198455810547, -0.7206840813159943 3.052869439125061, -0.6942179799079895 l3.1241613626480103, -0.8615685254335403 2.988192141056061, -0.8951206505298615 l2.8264111280441284, -0.5429166927933693 2.7810293436050415, -0.4245655983686447 l2.7730920910835266, -0.5607330426573753 2.7887552976608276, -0.6308858841657639 l2.5516393780708313, -0.47662973403930664 2.5474783778190613, -0.43729327619075775 l2.4264298379421234, -0.3538002073764801 2.302669882774353, -0.42833615094423294 l2.2278206050395966, -0.14093640260398388 2.26069912314415, 0.009775527287274599 " fill="none" stroke="black" stroke-width="1" /></svg>