<?xml version="1.0" encoding="utf-8" ?>
<svg baseProfile="full" height="43.07536616921425" version="1.1" width="67.88189142942429" xmlns="http://www.w3.org/2000/svg" xmlns:ev="http://www.w3.org/2001/xml-events" xmlns:xlink="http://www.w3.org/1999/xlink"><defs /><rect fill="white" height="43.07536616921425" width="67.88189142942429" x="0" y="0" /><path d="M13.37092600762844, 17.862641997635365 m-2.041689306497574, -0.10208446532487869 l-3.1646183133125305, 2.041689306497574 -1.1229290813207626, 1.4291824400424957 l-1.633351445198059, 4.287547469139099 -0.40833786129951477, 2.8583648800849915 l0.10208446532487869, 2.7562806010246277 0.5104223266243935, 1.020844653248787 l1.1229290813207626, 1.020844653248787 1.7354358732700348, 0.7145912200212479 l1.8375203013420105, 0.3062533959746361 8.677179217338562, 0.0 l1.5312670171260834, -0.3062533959746361 1.7354358732700348, -0.9187601506710052 l2.1437737345695496, -1.9396047294139862 0.9187601506710052, -1.1229290813207626 l0.9187601506710052, -2.2458581626415253 0.0, -3.675040602684021 l-1.5312670171260834, -2.2458581626415253 -4.593800902366638, -2.5521114468574524 l-6.6354900598526, -1.8375203013420105 m39.812941551208496, 3.1646183133125305 l-2.041689306497574, -1.1229290813207626 -2.1437737345695496, 0.40833786129951477 l-2.7562806010246277, 1.32709801197052 -4.083378612995148, 2.65419602394104 l-0.8166757225990295, 1.5312670171260834 -0.40833786129951477, 2.041689306497574 l0.20416893064975739, 3.675040602684021 1.8375203013420105, 2.960449457168579 l1.020844653248787, 0.9187601506710052 3.7771251797676086, 2.041689306497574 l7.1459126472473145, 1.1229290813207626 2.7562806010246277, 0.0 l1.7354358732700348, -0.5104223266243935 2.041689306497574, -1.8375203013420105 l1.1229290813207626, -2.041689306497574 0.20416893064975739, -3.0625340342521667 l-0.40833786129951477, -2.65419602394104 -1.020844653248787, -2.1437737345695496 l-1.8375203013420105, -2.1437737345695496 -1.020844653248787, -0.8166757225990295 l-5.104222893714905, -2.4500271677970886 m-39.302518367767334, 5.410476326942444 l1.9396047294139862, -1.4291824400424957 7.4521660804748535, -2.65419602394104 l10.514699220657349, -5.818814635276794 m18.681457042694092, 12.556389570236206 l-2.960449457168579, -3.1646183133125305 -4.593800902366638, -4.083378612995148 l-6.737574338912964, -3.5729563236236572 -3.675040602684021, -1.2250135838985443 l4.083378612995148, -0.9187601506710052 2.5521114468574524, -2.041689306497574 l4.083378612995148, -2.041689306497574 1.5312670171260834, -1.1229290813207626 l1.5312670171260834, -0.5104223266243935 3.675040602684021, -2.347942590713501 m-1.020844653248787, -1.4291824400424957 l5.920898914337158, 4.79796975851059 -2.2458581626415253, -1.2250135838985443 l-2.5521114468574524, -1.9396047294139862 -2.347942590713501, -2.65419602394104 m-13.475148677825928, 9.59593951702118 l-1.020844653248787, -0.5104223266243935 -1.2250135838985443, 0.10208446532487869 l-0.7145912200212479, 1.020844653248787 -0.20416893064975739, 1.020844653248787 l2.347942590713501, 1.5312670171260834 1.8375203013420105, 0.5104223266243935 l0.5104223266243935, 0.0 0.40833786129951477, -0.6125067919492722 l0.20416893064975739, -1.1229290813207626 0.0, -0.5104223266243935 l-0.7145912200212479, -1.020844653248787 -1.8375203013420105, -0.9187601506710052 l-1.020844653248787, -0.10208446532487869 -0.5104223266243935, 0.10208446532487869 l-0.40833786129951477, 1.020844653248787 0.8166757225990295, 0.9187601506710052 l2.347942590713501, 0.8166757225990295 0.40833786129951477, -0.5104223266243935 l-0.20416893064975739, -1.020844653248787 -1.7354358732700348, -0.8166757225990295 l-0.40833786129951477, 1.020844653248787 0.40833786129951477, 0.6125067919492722 l1.5312670171260834, 0.6125067919492722 0.20416893064975739, -1.5312670171260834 l-0.7145912200212479, -1.2250135838985443 -1.32709801197052, -0.8166757225990295 l-1.8375203013420105, -0.3062533959746361 -1.1229290813207626, 1.5312670171260834 l-0.10208446532487869, 1.1229290813207626 0.5104223266243935, 0.6125067919492722 l2.1437737345695496, 0.8166757225990295 1.8375203013420105, 0.20416893064975739 l1.1229290813207626, -0.40833786129951477 0.8166757225990295, -1.633351445198059 l-0.10208446532487869, -0.5104223266243935 -1.7354358732700348, -1.020844653248787 l-2.347942590713501, -0.3062533959746361 -0.5104223266243935, 0.40833786129951477 l-0.20416893064975739, 1.020844653248787 0.20416893064975739, 0.6125067919492722 l1.32709801197052, 1.32709801197052 0.40833786129951477, -0.5104223266243935 l-0.3062533959746361, -1.020844653248787 -2.1437737345695496, -1.633351445198059 l-0.7145912200212479, -0.20416893064975739 -0.40833786129951477, 0.20416893064975739 " fill="none" stroke="black" stroke-width="1" /></svg>