<?xml version="1.0" encoding="utf-8" ?>
<svg baseProfile="full" height="43.38161960244179" version="1.1" width="54.91716332733631" xmlns="http://www.w3.org/2000/svg" xmlns:ev="http://www.w3.org/2001/xml-events" xmlns:xlink="http://www.w3.org/1999/xlink"><defs /><rect fill="white" height="43.38161960244179" width="54.91716332733631" x="0" y="0" /><path d="M5, 22.456443570554256 m1.5312670171260834, -0.8166757225990295 l1.633351445198059, -0.3062533959746361 2.347942590713501, -0.10208446532487869 l2.2458581626415253, 0.3062533959746361 4.083378612995148, 1.5312670171260834 l1.5312670171260834, 1.020844653248787 1.7354358732700348, 1.9396047294139862 l1.7354358732700348, 2.5521114468574524 0.40833786129951477, 1.1229290813207626 l0.3062533959746361, 1.32709801197052 -0.20416893064975739, 2.8583648800849915 l-0.8166757225990295, 1.7354358732700348 -1.5312670171260834, 1.633351445198059 l-1.7354358732700348, 0.9187601506710052 -1.32709801197052, 0.20416893064975739 l-2.65419602394104, -0.20416893064975739 -2.7562806010246277, -1.4291824400424957 l-1.633351445198059, -1.32709801197052 -1.32709801197052, -1.7354358732700348 l-1.4291824400424957, -3.0625340342521667 -0.3062533959746361, -5.002138614654541 l0.8166757225990295, -1.9396047294139862 1.7354358732700348, -1.5312670171260834 l2.960449457168579, -0.40833786129951477 m29.09407138824463, 0.9187601506710052 l1.8375203013420105, 0.0 2.4500271677970886, 1.020844653248787 l2.4500271677970886, 1.8375203013420105 1.32709801197052, 1.8375203013420105 l0.40833786129951477, 1.7354358732700348 -0.3062533959746361, 1.9396047294139862 l-1.633351445198059, 2.2458581626415253 -1.8375203013420105, 1.020844653248787 l-3.675040602684021, 0.3062533959746361 -2.4500271677970886, -0.40833786129951477 l-2.7562806010246277, -1.020844653248787 -2.1437737345695496, -1.5312670171260834 l-0.8166757225990295, -1.1229290813207626 -0.5104223266243935, -1.5312670171260834 l0.20416893064975739, -2.65419602394104 2.347942590713501, -2.65419602394104 l3.1646183133125305, -1.5312670171260834 1.633351445198059, -0.40833786129951477 l2.5521114468574524, 0.0 m-29.60449457168579, 0.40833786129951477 l1.020844653248787, 0.40833786129951477 5.614645481109619, 0.7145912200212479 l18.068950176239014, 0.8166757225990295 m-24.29610252380371, -1.8375203013420105 l6.329236626625061, -6.737574338912964 2.960449457168579, -4.389632046222687 l2.4500271677970886, -2.960449457168579 1.32709801197052, 2.960449457168579 l7.554250359535217, 12.556389570236206 1.1229290813207626, 3.98129403591156 m-6.737574338912964, -19.906470775604248 l-1.5312670171260834, 0.3062533959746361 -9.59593951702118, 0.10208446532487869 m11.637629270553589, -0.7145912200212479 l9.59593951702118, 0.3062533959746361 0.0, -2.7562806010246277 " fill="none" stroke="black" stroke-width="1" /></svg>