<?xml version="1.0" encoding="utf-8" ?>
<svg baseProfile="full" height="31.437737867236137" version="1.1" width="66.35062240064144" xmlns="http://www.w3.org/2000/svg" xmlns:ev="http://www.w3.org/2001/xml-events" xmlns:xlink="http://www.w3.org/1999/xlink"><defs /><rect fill="white" height="31.437737867236137" width="66.35062240064144" x="0" y="0" /><path d="M16.943881399929523, 5.408337861299515 m-1.020844653248787, -0.40833786129951477 l-1.9396047294139862, 0.10208446532487869 -1.9396047294139862, 1.1229290813207626 l-1.9396047294139862, 1.7354358732700348 -2.8583648800849915, 4.1854628920555115 l-1.020844653248787, 2.347942590713501 -0.40833786129951477, 2.4500271677970886 l0.3062533959746361, 4.593800902366638 1.32709801197052, 1.8375203013420105 l1.7354358732700348, 1.2250135838985443 1.8375203013420105, 0.6125067919492722 l2.4500271677970886, 0.0 2.7562806010246277, -0.7145912200212479 l2.4500271677970886, -1.5312670171260834 2.2458581626415253, -2.1437737345695496 l1.633351445198059, -2.2458581626415253 1.4291824400424957, -4.593800902366638 l0.0, -1.8375203013420105 -0.8166757225990295, -1.7354358732700348 l-1.7354358732700348, -1.5312670171260834 -2.1437737345695496, -0.9187601506710052 l-2.2458581626415253, -0.7145912200212479 -2.041689306497574, -0.10208446532487869 l-2.960449457168579, 0.10208446532487869 -0.6125067919492722, 0.6125067919492722 m1.8375203013420105, 8.473010659217834 l-0.10208446532487869, -1.2250135838985443 0.9187601506710052, -2.2458581626415253 l2.65419602394104, -5.104222893714905 0.3062533959746361, -0.10208446532487869 m-3.1646183133125305, 7.247996926307678 l3.266702890396118, -0.20416893064975739 6.941743493080139, 0.6125067919492722 m-11.739712953567505, 1.7354358732700348 l0.20416893064975739, 7.4521660804748535 0.5104223266243935, 1.9396047294139862 m1.020844653248787, -11.127206087112427 l-2.4500271677970886, -0.20416893064975739 -4.1854628920555115, 0.5104223266243935 l-1.9396047294139862, 0.5104223266243935 -0.5104223266243935, 0.3062533959746361 l0.20416893064975739, 0.3062533959746361 m8.881348371505737, -2.4500271677970886 l-2.1437737345695496, -5.104222893714905 -0.8166757225990295, -3.368787169456482 m46.65259838104248, 6.227152347564697 l-2.347942590713501, -0.3062533959746361 -5.818814635276794, 0.20416893064975739 l-1.8375203013420105, 0.9187601506710052 -0.7145912200212479, 0.7145912200212479 l-1.32709801197052, 2.041689306497574 -0.3062533959746361, 1.020844653248787 l-0.40833786129951477, 2.4500271677970886 0.10208446532487869, 2.1437737345695496 l0.7145912200212479, 0.8166757225990295 2.65419602394104, 1.020844653248787 l1.9396047294139862, 0.0 6.533405780792236, -1.32709801197052 l1.5312670171260834, -0.8166757225990295 2.2458581626415253, -2.347942590713501 l0.5104223266243935, -1.2250135838985443 0.10208446532487869, -2.4500271677970886 l-0.5104223266243935, -1.1229290813207626 -1.1229290813207626, -1.020844653248787 l-3.7771251797676086, -1.633351445198059 -3.1646183133125305, 0.0 m2.8583648800849915, 1.8375203013420105 l-0.7145912200212479, 0.0 -1.1229290813207626, 2.65419602394104 m-1.020844653248787, 1.9396047294139862 l0.0, -0.5104223266243935 3.7771251797676086, -4.695885181427002 m-3.98129403591156, 5.104222893714905 l0.9187601506710052, -0.3062533959746361 1.9396047294139862, 0.0 l5.30839204788208, 0.6125067919492722 m-7.350081205368042, 0.10208446532487869 l0.20416893064975739, 1.5312670171260834 -1.32709801197052, 3.5729563236236572 l-0.3062533959746361, -0.3062533959746361 m0.3062533959746361, -5.206307768821716 l-1.020844653248787, -0.10208446532487869 " fill="none" stroke="black" stroke-width="1" /></svg>