<?xml version="1.0" encoding="utf-8" ?>
<svg baseProfile="full" height="31.233567632734776" version="1.1" width="37.66489028930664" xmlns="http://www.w3.org/2000/svg" xmlns:ev="http://www.w3.org/2001/xml-events" xmlns:xlink="http://www.w3.org/1999/xlink"><defs /><rect fill="white" height="31.233567632734776" width="37.66489028930664" x="0" y="0" /><path d="M8.879209570586681, 15.106360949575901 m-0.9187601506710052, 0.5104223266243935 l-1.7354358732700348, 2.2458581626415253 -1.1229290813207626, 3.5729563236236572 l-0.10208446532487869, 2.8583648800849915 0.8166757225990295, 0.7145912200212479 l2.1437737345695496, 0.0 2.4500271677970886, -1.32709801197052 l2.041689306497574, -2.2458581626415253 0.6125067919492722, -2.65419602394104 l0.0, -2.2458581626415253 -1.1229290813207626, -1.1229290813207626 l-1.32709801197052, -0.6125067919492722 -2.4500271677970886, 0.0 l-1.1229290813207626, 0.6125067919492722 m20.825231075286865, 2.1437737345695496 l-2.5521114468574524, 4.389632046222687 -0.40833786129951477, 1.2250135838985443 l0.0, 2.347942590713501 1.2250135838985443, 0.6125067919492722 l3.4708717465400696, 0.10208446532487869 2.347942590713501, -1.9396047294139862 l0.7145912200212479, -2.8583648800849915 0.0, -2.960449457168579 l-0.5104223266243935, -0.9187601506710052 -1.32709801197052, -1.32709801197052 l-0.7145912200212479, -0.3062533959746361 -2.2458581626415253, -0.10208446532487869 m-1.1229290813207626, 4.389632046222687 l0.10208446532487869, -1.1229290813207626 -1.9396047294139862, -1.32709801197052 l-3.368787169456482, -1.4291824400424957 -3.266702890396118, 0.0 l-3.368787169456482, 1.32709801197052 -3.266702890396118, 2.1437737345695496 m-1.7354358732700348, -5.002138614654541 l0.6125067919492722, -8.064672350883484 m-2.347942590713501, -1.4291824400424957 l6.1250680685043335, 0.10208446532487869 1.5312670171260834, -0.40833786129951477 m3.7771251797676086, 10.9230375289917 l1.4291824400424957, -0.8166757225990295 0.40833786129951477, -0.7145912200212479 l-0.10208446532487869, -4.083378612995148 " fill="none" stroke="black" stroke-width="1" /></svg>