<?xml version="1.0" encoding="utf-8" ?>
<svg baseProfile="full" height="52.56922136992216" version="1.1" width="77.17157647013664" xmlns="http://www.w3.org/2000/svg" xmlns:ev="http://www.w3.org/2001/xml-events" xmlns:xlink="http://www.w3.org/1999/xlink"><defs /><rect fill="white" height="52.56922136992216" width="77.17157647013664" x="0" y="0" /><path d="M18.06681115180254, 26.743990294635296 m-0.5104223266243935, -0.6125067919492722 l-1.633351445198059, -0.5104223266243935 -2.8583648800849915, 0.10208446532487869 l-2.1437737345695496, 1.020844653248787 -2.1437737345695496, 1.4291824400424957 l-1.9396047294139862, 2.041689306497574 -1.4291824400424957, 2.4500271677970886 l-0.40833786129951477, 1.4291824400424957 0.0, 2.960449457168579 l0.40833786129951477, 1.5312670171260834 1.32709801197052, 2.65419602394104 l3.1646183133125305, 3.0625340342521667 2.65419602394104, 1.020844653248787 l2.4500271677970886, 0.40833786129951477 2.960449457168579, -0.5104223266243935 l2.4500271677970886, -1.1229290813207626 1.2250135838985443, -1.020844653248787 l2.041689306497574, -2.5521114468574524 0.7145912200212479, -1.4291824400424957 l0.9187601506710052, -4.1854628920555115 -0.3062533959746361, -3.7771251797676086 l-1.1229290813207626, -2.041689306497574 -1.7354358732700348, -1.8375203013420105 l-2.4500271677970886, -1.7354358732700348 -2.960449457168579, -1.1229290813207626 l-1.4291824400424957, -0.20416893064975739 -2.7562806010246277, 0.7145912200212479 l-1.1229290813207626, 0.7145912200212479 -0.9187601506710052, 1.2250135838985443 m57.88188934326172, -0.6125067919492722 l-1.7354358732700348, -1.2250135838985443 -3.675040602684021, -1.4291824400424957 l-2.65419602394104, -0.40833786129951477 -2.65419602394104, 0.20416893064975739 l-4.695885181427002, 2.1437737345695496 -2.5521114468574524, 2.65419602394104 l-1.020844653248787, 1.5312670171260834 -0.8166757225990295, 1.5312670171260834 l-0.8166757225990295, 3.4708717465400696 -0.10208446532487869, 1.7354358732700348 l0.5104223266243935, 3.1646183133125305 1.4291824400424957, 2.960449457168579 l1.020844653248787, 1.32709801197052 2.4500271677970886, 2.041689306497574 l3.0625340342521667, 1.1229290813207626 3.0625340342521667, 0.5104223266243935 l1.5312670171260834, -0.20416893064975739 1.633351445198059, -0.3062533959746361 l3.0625340342521667, -1.4291824400424957 2.65419602394104, -1.9396047294139862 l2.041689306497574, -2.347942590713501 1.5312670171260834, -2.65419602394104 l0.5104223266243935, -2.4500271677970886 -0.3062533959746361, -2.5521114468574524 l-1.020844653248787, -2.4500271677970886 -1.633351445198059, -2.4500271677970886 l-2.4500271677970886, -2.2458581626415253 -2.65419602394104, -1.9396047294139862 l-2.960449457168579, -1.32709801197052 -3.0625340342521667, -0.7145912200212479 l-2.4500271677970886, 0.0 m-42.87547588348389, -17.558528184890747 l3.368787169456482, 0.40833786129951477 5.30839204788208, 1.7354358732700348 l4.1854628920555115, 0.6125067919492722 1.020844653248787, 0.40833786129951477 m-9.59593951702118, -1.8375203013420105 l-1.4291824400424957, 3.8792094588279724 -1.1229290813207626, 9.085517525672913 l-1.32709801197052, 5.614645481109619 m3.4708717465400696, 0.8166757225990295 l9.187601804733276, -0.6125067919492722 19.089794158935547, -2.8583648800849915 l3.368787169456482, 0.0 -0.3062533959746361, -0.6125067919492722 l0.5104223266243935, -1.8375203013420105 4.083378612995148, -7.96258807182312 l-2.041689306497574, -0.20416893064975739 -4.287547469139099, 0.7145912200212479 l-3.98129403591156, 0.10208446532487869 2.347942590713501, 0.20416893064975739 l5.512561202049255, -0.5104223266243935 3.0625340342521667, 0.10208446532487869 l0.7145912200212479, 0.10208446532487869 0.5104223266243935, 0.5104223266243935 l-0.10208446532487869, 0.40833786129951477 m-6.431320905685425, 9.698023796081543 l0.5104223266243935, -0.3062533959746361 5.002138614654541, 0.5104223266243935 l6.431320905685425, 1.32709801197052 " fill="none" stroke="black" stroke-width="1" /></svg>