<?xml version="1.0" encoding="utf-8" ?>
<svg baseProfile="full" height="32.050243727862835" version="1.1" width="37.562805227935314" xmlns="http://www.w3.org/2000/svg" xmlns:ev="http://www.w3.org/2001/xml-events" xmlns:xlink="http://www.w3.org/1999/xlink"><defs /><rect fill="white" height="32.050243727862835" width="37.562805227935314" x="0" y="0" /><path d="M7.041689492762089, 18.985570929944515 m-1.5312670171260834, 1.8375203013420105 l-0.20416893064975739, 0.9187601506710052 -0.10208446532487869, 1.32709801197052 l0.3062533959746361, 1.32709801197052 0.8166757225990295, 1.1229290813207626 l1.1229290813207626, 0.7145912200212479 1.5312670171260834, 0.3062533959746361 l1.9396047294139862, -0.10208446532487869 3.368787169456482, -1.4291824400424957 l1.7354358732700348, -1.8375203013420105 -0.20416893064975739, -1.9396047294139862 l-3.266702890396118, -4.4917163252830505 -0.9187601506710052, -0.40833786129951477 l-1.1229290813207626, 0.10208446532487869 m6.1250680685043335, 2.960449457168579 l2.960449457168579, -2.65419602394104 1.4291824400424957, -0.3062533959746361 l4.1854628920555115, 3.4708717465400696 m2.347942590713501, -1.020844653248787 l-1.9396047294139862, 0.9187601506710052 -0.8166757225990295, 1.5312670171260834 l-0.10208446532487869, 2.041689306497574 0.9187601506710052, 2.041689306497574 l2.4500271677970886, 1.4291824400424957 1.32709801197052, 0.20416893064975739 l1.1229290813207626, -0.20416893064975739 0.8166757225990295, -0.3062533959746361 l0.5104223266243935, -0.7145912200212479 0.7145912200212479, -2.960449457168579 l-0.7145912200212479, -2.8583648800849915 -1.7354358732700348, -2.347942590713501 l-2.7562806010246277, -0.8166757225990295 -1.4291824400424957, 0.10208446532487869 m-5.614645481109619, -0.7145912200212479 l0.0, 3.0625340342521667 -1.1229290813207626, 1.633351445198059 m1.7354358732700348, -4.287547469139099 l1.7354358732700348, -1.8375203013420105 2.5521114468574524, -1.633351445198059 m-5.206307768821716, 3.4708717465400696 l-0.20416893064975739, -3.1646183133125305 -0.6125067919492722, -2.1437737345695496 l0.7145912200212479, -0.40833786129951477 6.022983193397522, -1.1229290813207626 l-0.5104223266243935, -0.20416893064975739 -3.368787169456482, 0.0 l2.347942590713501, 0.5104223266243935 m-5.104222893714905, 1.1229290813207626 l-1.9396047294139862, -0.6125067919492722 -6.022983193397522, -0.9187601506710052 l-2.7562806010246277, -1.7354358732700348 -3.5729563236236572, -2.960449457168579 " fill="none" stroke="black" stroke-width="1" /></svg>