<?xml version="1.0" encoding="utf-8" ?>
<svg baseProfile="full" height="28.171034455299377" version="1.1" width="31.437737233936787" xmlns="http://www.w3.org/2000/svg" xmlns:ev="http://www.w3.org/2001/xml-events" xmlns:xlink="http://www.w3.org/1999/xlink"><defs /><rect fill="white" height="28.171034455299377" width="31.437737233936787" x="0" y="0" /><path d="M10.104223191738129, 17.454304434359074 m-1.5312670171260834, -1.020844653248787 l-1.1229290813207626, -0.10208446532487869 -0.9187601506710052, 0.5104223266243935 l-1.1229290813207626, 1.5312670171260834 -0.40833786129951477, 1.32709801197052 l0.0, 1.4291824400424957 0.9187601506710052, 1.5312670171260834 l1.020844653248787, 0.5104223266243935 2.041689306497574, 0.0 l2.041689306497574, -0.5104223266243935 1.633351445198059, -1.633351445198059 l0.3062533959746361, -0.8166757225990295 -0.10208446532487869, -1.7354358732700348 l-0.5104223266243935, -0.8166757225990295 -0.6125067919492722, -0.40833786129951477 l-2.2458581626415253, -0.10208446532487869 -0.8166757225990295, -0.3062533959746361 m14.495993852615356, 0.20416893064975739 l-1.32709801197052, 0.0 -2.041689306497574, 1.633351445198059 l-0.40833786129951477, 0.5104223266243935 -0.3062533959746361, 1.7354358732700348 l2.347942590713501, 1.2250135838985443 2.5521114468574524, 0.20416893064975739 l1.7354358732700348, -0.40833786129951477 0.40833786129951477, -0.5104223266243935 l0.3062533959746361, -1.8375203013420105 -0.6125067919492722, -1.4291824400424957 l-1.8375203013420105, -0.9187601506710052 -1.7354358732700348, -0.20416893064975739 m0.5104223266243935, 0.3062533959746361 l-1.32709801197052, -2.8583648800849915 -1.020844653248787, -5.818814635276794 m-2.1437737345695496, -3.675040602684021 l-0.40833786129951477, 0.0 0.7145912200212479, 1.020844653248787 l2.1437737345695496, 2.5521114468574524 3.7771251797676086, 2.347942590713501 m-2.8583648800849915, -2.1437737345695496 l-0.40833786129951477, -0.20416893064975739 -1.633351445198059, 0.6125067919492722 l-4.900054335594177, 0.0 -3.266702890396118, 4.695885181427002 l-2.1437737345695496, 2.041689306497574 m1.32709801197052, 0.8166757225990295 l-4.900054335594177, -6.227152347564697 " fill="none" stroke="black" stroke-width="1" /></svg>