<?xml version="1.0" encoding="utf-8" ?>
<svg baseProfile="full" height="43.58578886836767" version="1.1" width="42.054521553218365" xmlns="http://www.w3.org/2000/svg" xmlns:ev="http://www.w3.org/2001/xml-events" xmlns:xlink="http://www.w3.org/1999/xlink"><defs /><rect fill="white" height="43.58578886836767" width="42.054521553218365" x="0" y="0" /><path d="M11.737575754523277, 27.35649697482586 m-0.20416893064975739, -0.40833786129951477 l-1.633351445198059, -0.3062533959746361 -1.8375203013420105, 0.0 l-1.020844653248787, 0.40833786129951477 -0.8166757225990295, 0.9187601506710052 l-0.5104223266243935, 1.4291824400424957 -0.3062533959746361, 2.4500271677970886 l0.20416893064975739, 1.8375203013420105 0.7145912200212479, 0.9187601506710052 l1.5312670171260834, 0.7145912200212479 3.675040602684021, 0.20416893064975739 l1.2250135838985443, -0.5104223266243935 0.3062533959746361, -0.40833786129951477 l0.20416893064975739, -3.675040602684021 -1.020844653248787, -2.5521114468574524 m21.23356819152832, 0.10208446532487869 l-3.8792094588279724, -0.8166757225990295 -2.041689306497574, 0.40833786129951477 l-2.1437737345695496, 1.633351445198059 -1.2250135838985443, 2.1437737345695496 l-0.40833786129951477, 1.633351445198059 0.3062533959746361, 1.7354358732700348 l2.960449457168579, 1.8375203013420105 2.4500271677970886, 0.20416893064975739 l1.633351445198059, -0.3062533959746361 0.9187601506710052, -0.8166757225990295 l0.7145912200212479, -1.4291824400424957 0.10208446532487869, -1.4291824400424957 l-1.1229290813207626, -1.8375203013420105 m-5.716729760169983, -2.4500271677970886 l2.041689306497574, 2.7562806010246277 3.368787169456482, 3.5729563236236572 l1.32709801197052, 0.9187601506710052 m-8.370925784111023, -0.9187601506710052 l2.8583648800849915, -1.4291824400424957 3.266702890396118, -2.960449457168579 m-23.581511974334717, -4.1854628920555115 l2.347942590713501, 5.818814635276794 2.347942590713501, 3.266702890396118 m-6.1250680685043335, -1.020844653248787 l0.0, -0.5104223266243935 1.633351445198059, -2.041689306497574 l2.2458581626415253, -4.083378612995148 m-0.20416893064975739, -1.32709801197052 l-0.3062533959746361, 0.8166757225990295 0.0, 5.512561202049255 l-0.40833786129951477, 2.347942590713501 m-3.4708717465400696, -3.675040602684021 l4.695885181427002, 0.0 m18.27311873435974, -4.083378612995148 l0.9187601506710052, 5.920898914337158 0.10208446532487869, 4.900054335594177 m-5.002138614654541, -4.900054335594177 l9.800108671188354, -0.3062533959746361 m-25.41903018951416, -6.431320905685425 l1.1229290813207626, 0.5104223266243935 7.043827772140503, 1.32709801197052 l11.433459520339966, 0.3062533959746361 m2.1437737345695496, -1.32709801197052 l-0.6125067919492722, -6.1250680685043335 -0.20416893064975739, -16.63976788520813 m-9.800108671188354, 1.8375203013420105 l1.9396047294139862, -0.5104223266243935 5.920898914337158, 0.0 l9.698023796081543, -1.2250135838985443 m-20.008554458618164, 22.764835357666016 l-1.7354358732700348, -12.658473253250122 " fill="none" stroke="black" stroke-width="1" /></svg>