<?xml version="1.0" encoding="utf-8" ?>
<svg baseProfile="full" height="54.91716310381889" version="1.1" width="85.64458597451448" xmlns="http://www.w3.org/2000/svg" xmlns:ev="http://www.w3.org/2001/xml-events" xmlns:xlink="http://www.w3.org/1999/xlink"><defs /><rect fill="white" height="54.91716310381889" width="85.64458597451448" x="0" y="0" /><path d="M67.373605966568, 22.048105001449585 m0.0, 0.0 m-1.2250135838985443, -0.3062533959746361 l-3.1646183133125305, -0.20416893064975739 -2.960449457168579, 1.2250135838985443 l-1.4291824400424957, 1.020844653248787 -1.2250135838985443, 1.4291824400424957 l-1.7354358732700348, 3.266702890396118 -1.32709801197052, 5.206307768821716 l-0.10208446532487869, 2.65419602394104 0.40833786129951477, 2.960449457168579 l1.9396047294139862, 3.368787169456482 1.4291824400424957, 1.1229290813207626 l3.4708717465400696, 1.8375203013420105 3.675040602684021, 0.7145912200212479 l3.7771251797676086, -0.40833786129951477 2.7562806010246277, -1.020844653248787 l2.8583648800849915, -1.633351445198059 2.8583648800849915, -2.7562806010246277 l2.2458581626415253, -2.960449457168579 0.8166757225990295, -2.1437737345695496 l0.20416893064975739, -2.1437737345695496 -0.9187601506710052, -2.5521114468574524 l-1.020844653248787, -1.1229290813207626 -2.960449457168579, -2.5521114468574524 l-5.614645481109619, -3.5729563236236572 -1.633351445198059, -0.6125067919492722 l-1.32709801197052, -0.10208446532487869 -1.2250135838985443, 0.40833786129951477 l-0.8166757225990295, 0.8166757225990295 m-57.26938247680664, 3.8792094588279724 l-1.633351445198059, 1.633351445198059 -0.9187601506710052, 1.9396047294139862 l-0.3062533959746361, 4.287547469139099 1.5312670171260834, 4.695885181427002 l1.8375203013420105, 2.65419602394104 2.5521114468574524, 2.2458581626415253 l2.1437737345695496, 1.32709801197052 3.7771251797676086, 1.633351445198059 l4.695885181427002, 1.4291824400424957 4.1854628920555115, 0.20416893064975739 l2.2458581626415253, -0.8166757225990295 1.32709801197052, -1.1229290813207626 l1.32709801197052, -1.633351445198059 1.1229290813207626, -3.368787169456482 l0.40833786129951477, -2.65419602394104 0.0, -5.104222893714905 l-0.20416893064975739, -2.347942590713501 -1.2250135838985443, -3.675040602684021 l-2.041689306497574, -2.347942590713501 -1.5312670171260834, -0.8166757225990295 l-3.0625340342521667, -0.6125067919492722 -5.818814635276794, 0.3062533959746361 l-5.614645481109619, 1.1229290813207626 -2.65419602394104, 0.9187601506710052 l-0.8166757225990295, 0.8166757225990295 3.1646183133125305, -1.633351445198059 l1.7354358732700348, -0.40833786129951477 2.041689306497574, 0.0 l3.98129403591156, 0.5104223266243935 6.6354900598526, 1.5312670171260834 l10.718868970870972, -0.3062533959746361 10.106362104415894, -1.7354358732700348 l13.2709801197052, -3.98129403591156 3.1646183133125305, -0.6125067919492722 l5.30839204788208, -0.3062533959746361 3.98129403591156, 1.020844653248787 l-5.206307768821716, 1.1229290813207626 -5.104222893714905, 0.20416893064975739 l-9.493855237960815, 1.020844653248787 -2.960449457168579, 1.020844653248787 l-9.28968608379364, 4.287547469139099 -2.2458581626415253, 0.10208446532487869 l-1.2250135838985443, -0.40833786129951477 -0.5104223266243935, -0.5104223266243935 l0.40833786129951477, -3.4708717465400696 -1.020844653248787, -4.593800902366638 l-0.6125067919492722, -4.79796975851059 -0.8166757225990295, -3.5729563236236572 l-1.5312670171260834, -3.8792094588279724 -0.5104223266243935, -0.40833786129951477 l-3.4708717465400696, 1.2250135838985443 -1.32709801197052, 0.10208446532487869 l-1.1229290813207626, -0.20416893064975739 -0.5104223266243935, -0.3062533959746361 l-0.10208446532487869, -0.5104223266243935 1.4291824400424957, -1.9396047294139862 l3.368787169456482, -1.8375203013420105 1.8375203013420105, -0.3062533959746361 l4.389632046222687, 0.3062533959746361 -0.3062533959746361, 0.5104223266243935 l-7.1459126472473145, 3.368787169456482 -1.2250135838985443, 0.3062533959746361 l-1.7354358732700348, -0.20416893064975739 " fill="none" stroke="black" stroke-width="1" /></svg>