<?xml version="1.0" encoding="utf-8" ?>
<svg baseProfile="full" height="32.76483554393053" version="1.1" width="39.70657993108034" xmlns="http://www.w3.org/2000/svg" xmlns:ev="http://www.w3.org/2001/xml-events" xmlns:xlink="http://www.w3.org/1999/xlink"><defs /><rect fill="white" height="32.76483554393053" width="39.70657993108034" x="0" y="0" /><path d="M13.983434662222862, 21.027260906994343 m-1.633351445198059, -1.4291824400424957 l-2.1437737345695496, -0.7145912200212479 -3.98129403591156, -0.20416893064975739 l-0.6125067919492722, 1.32709801197052 -0.6125067919492722, 3.4708717465400696 l0.10208446532487869, 1.633351445198059 1.020844653248787, 1.4291824400424957 l1.2250135838985443, 1.020844653248787 2.347942590713501, 0.20416893064975739 l0.9187601506710052, -0.8166757225990295 1.2250135838985443, -1.8375203013420105 l2.2458581626415253, -5.30839204788208 0.0, -2.041689306497574 l-0.40833786129951477, -0.5104223266243935 -1.8375203013420105, 0.0 m22.86691904067993, 3.675040602684021 l-1.8375203013420105, -2.65419602394104 -1.32709801197052, -0.5104223266243935 l-3.0625340342521667, 0.0 -0.8166757225990295, 0.3062533959746361 l-0.5104223266243935, 0.6125067919492722 -0.20416893064975739, 1.2250135838985443 l1.020844653248787, 1.8375203013420105 1.32709801197052, 3.5729563236236572 l0.8166757225990295, 0.5104223266243935 1.8375203013420105, 0.0 l0.7145912200212479, -0.5104223266243935 0.40833786129951477, -1.2250135838985443 l0.0, -3.5729563236236572 -0.20416893064975739, -1.2250135838985443 l-0.7145912200212479, 0.0 m-23.581511974334717, -1.020844653248787 l0.8166757225990295, 0.10208446532487869 1.2250135838985443, -0.40833786129951477 l3.5729563236236572, -3.7771251797676086 1.1229290813207626, -2.65419602394104 m14.393908977508545, 6.227152347564697 l-1.8375203013420105, -1.2250135838985443 -5.002138614654541, -1.7354358732700348 l-1.633351445198059, -3.0625340342521667 m-16.23142957687378, 0.0 l21.437737941741943, 0.0 5.206307768821716, 0.40833786129951477 l0.40833786129951477, -1.1229290813207626 -0.20416893064975739, -4.593800902366638 l-0.20416893064975739, -0.7145912200212479 -0.7145912200212479, -0.5104223266243935 l-18.171035051345825, -0.20416893064975739 -6.6354900598526, 0.3062533959746361 l-0.40833786129951477, 5.104222893714905 0.10208446532487869, 5.920898914337158 " fill="none" stroke="black" stroke-width="1" /></svg>