<?xml version="1.0" encoding="utf-8" ?>
<svg baseProfile="full" height="55.83592411130667" version="1.1" width="88.50295253098011" xmlns="http://www.w3.org/2000/svg" xmlns:ev="http://www.w3.org/2001/xml-events" xmlns:xlink="http://www.w3.org/1999/xlink"><defs /><rect fill="white" height="55.83592411130667" width="88.50295253098011" x="0" y="0" /><path d="M6.531266905367374, 32.86905862390995 m-1.4291824400424957, 3.7771251797676086 l-0.10208446532487869, 3.675040602684021 0.5104223266243935, 2.960449457168579 l1.32709801197052, 2.960449457168579 2.041689306497574, 2.347942590713501 l2.8583648800849915, 1.4291824400424957 1.7354358732700348, 0.3062533959746361 l6.1250680685043335, -0.5104223266243935 4.1854628920555115, -1.1229290813207626 l5.104222893714905, -2.1437737345695496 2.7562806010246277, -1.7354358732700348 l3.266702890396118, -3.0625340342521667 1.5312670171260834, -2.2458581626415253 l1.2250135838985443, -3.5729563236236572 0.10208446532487869, -2.4500271677970886 l-0.40833786129951477, -2.2458581626415253 -0.9187601506710052, -2.041689306497574 l-1.8375203013420105, -1.9396047294139862 -1.2250135838985443, -0.8166757225990295 l-1.4291824400424957, -0.7145912200212479 -3.7771251797676086, -1.020844653248787 l-4.389632046222687, -0.40833786129951477 -6.022983193397522, 0.8166757225990295 l-5.206307768821716, 1.9396047294139862 -2.65419602394104, 1.633351445198059 l-3.0625340342521667, 3.1646183133125305 -0.7145912200212479, 2.4500271677970886 l0.5104223266243935, 2.2458581626415253 m26.133623123168945, -9.59593951702118 l0.7145912200212479, -0.40833786129951477 3.266702890396118, -0.6125067919492722 l10.9230375289917, -1.2250135838985443 3.8792094588279724, -0.20416893064975739 l2.8583648800849915, 0.3062533959746361 0.10208446532487869, 0.6125067919492722 l-3.266702890396118, 12.250136137008667 -0.10208446532487869, 2.5521114468574524 l0.5104223266243935, 2.5521114468574524 2.041689306497574, 3.5729563236236572 l3.1646183133125305, 2.8583648800849915 2.1437737345695496, 1.020844653248787 l3.1646183133125305, 0.6125067919492722 2.2458581626415253, -0.40833786129951477 l2.7562806010246277, -1.020844653248787 4.79796975851059, -2.7562806010246277 l8.166757225990295, -5.818814635276794 2.2458581626415253, -2.347942590713501 l0.7145912200212479, -1.633351445198059 0.40833786129951477, -1.8375203013420105 l-0.40833786129951477, -2.2458581626415253 -1.9396047294139862, -3.368787169456482 l-3.1646183133125305, -3.266702890396118 -2.7562806010246277, -2.041689306497574 l-3.0625340342521667, -1.633351445198059 -3.266702890396118, -1.2250135838985443 l-4.79796975851059, -0.7145912200212479 -2.7562806010246277, 0.10208446532487869 l-2.2458581626415253, 0.5104223266243935 -3.1646183133125305, 1.7354358732700348 l-1.32709801197052, 1.8375203013420105 0.10208446532487869, 0.3062533959746361 m-3.7771251797676086, 0.0 l0.6125067919492722, -1.1229290813207626 0.0, -10.9230375289917 l-0.8166757225990295, -6.022983193397522 0.20416893064975739, -1.020844653248787 l1.633351445198059, 0.8166757225990295 1.4291824400424957, -0.6125067919492722 l8.473010659217834, -1.1229290813207626 5.818814635276794, 0.10208446532487869 l-4.79796975851059, 0.7145912200212479 -14.087655544281006, 0.7145912200212479 l-2.347942590713501, 0.7145912200212479 1.2250135838985443, 0.5104223266243935 l3.0625340342521667, 0.0 16.23142957687378, -1.7354358732700348 l-2.347942590713501, -0.3062533959746361 -12.964726686477661, 0.7145912200212479 l-4.4917163252830505, 0.8166757225990295 20.723145008087158, 1.020844653248787 l-2.4500271677970886, -0.6125067919492722 -6.1250680685043335, -0.20416893064975739 l-10.20844578742981, 0.9187601506710052 -1.1229290813207626, 0.20416893064975739 l1.1229290813207626, 0.20416893064975739 17.354358434677124, -0.3062533959746361 l-9.187601804733276, -0.3062533959746361 -1.020844653248787, -0.3062533959746361 " fill="none" stroke="black" stroke-width="1" /></svg>