<?xml version="1.0" encoding="utf-8" ?>
<svg baseProfile="full" height="29.702300801873207" version="1.1" width="36.64404634386301" xmlns="http://www.w3.org/2000/svg" xmlns:ev="http://www.w3.org/2001/xml-events" xmlns:xlink="http://www.w3.org/1999/xlink"><defs /><rect fill="white" height="29.702300801873207" width="36.64404634386301" x="0" y="0" /><path d="M7.858365029096603, 12.145911082625389 m-1.633351445198059, 1.4291824400424957 l-1.2250135838985443, 1.9396047294139862 0.0, 2.041689306497574 l0.20416893064975739, 0.8166757225990295 0.8166757225990295, 1.32709801197052 l3.4708717465400696, 3.7771251797676086 1.9396047294139862, 0.9187601506710052 l1.4291824400424957, 0.0 4.900054335594177, -4.083378612995148 l0.40833786129951477, -0.7145912200212479 0.6125067919492722, -1.9396047294139862 l0.0, -2.2458581626415253 -0.3062533959746361, -1.32709801197052 l-1.8375203013420105, -1.32709801197052 -2.347942590713501, -1.020844653248787 l-3.7771251797676086, -0.5104223266243935 -2.2458581626415253, 0.10208446532487869 l-2.2458581626415253, 2.041689306497574 m18.681457042694092, -1.9396047294139862 l-1.9396047294139862, 1.5312670171260834 -1.020844653248787, 1.5312670171260834 l-0.20416893064975739, 5.002138614654541 1.633351445198059, 1.8375203013420105 l2.347942590713501, 1.633351445198059 3.266702890396118, 0.10208446532487869 l1.5312670171260834, -0.8166757225990295 0.9187601506710052, -1.32709801197052 l-0.20416893064975739, -6.737574338912964 -0.40833786129951477, -0.5104223266243935 l-3.1646183133125305, -1.1229290813207626 -4.1854628920555115, 0.10208446532487869 m-11.433459520339966, 4.389632046222687 l-3.1646183133125305, -4.1854628920555115 m4.287547469139099, 4.593800902366638 l1.020844653248787, -3.5729563236236572 0.0, -1.2250135838985443 l0.7145912200212479, -0.10208446532487869 m-1.633351445198059, 5.614645481109619 l6.227152347564697, -0.20416893064975739 m-5.920898914337158, 1.2250135838985443 l0.10208446532487869, 5.512561202049255 m-0.8166757225990295, -6.431320905685425 l-4.695885181427002, 0.0 m18.98771047592163, -0.10208446532487869 l-1.9396047294139862, -4.79796975851059 m0.3062533959746361, 4.593800902366638 l-3.1646183133125305, -0.9187601506710052 -1.32709801197052, 0.0 l0.0, 0.40833786129951477 m5.30839204788208, 1.5312670171260834 l-1.2250135838985443, 1.4291824400424957 -0.20416893064975739, 0.8166757225990295 m1.9396047294139862, -2.5521114468574524 l3.1646183133125305, 3.7771251797676086 m-2.8583648800849915, -3.7771251797676086 l4.695885181427002, -2.8583648800849915 m-4.695885181427002, 1.32709801197052 l0.9187601506710052, -3.266702890396118 m-18.57937216758728, -2.347942590713501 l4.1854628920555115, 0.3062533959746361 10.514699220657349, 0.0 l1.4291824400424957, -0.20416893064975739 0.5104223266243935, -0.6125067919492722 m-11.535544395446777, 1.5312670171260834 l-0.10208446532487869, -6.227152347564697 -0.6125067919492722, -1.32709801197052 " fill="none" stroke="black" stroke-width="1" /></svg>