<?xml version="1.0" encoding="utf-8" ?>
<svg baseProfile="full" height="33.98984860628843" version="1.1" width="34.70444019883871" xmlns="http://www.w3.org/2000/svg" xmlns:ev="http://www.w3.org/2001/xml-events" xmlns:xlink="http://www.w3.org/1999/xlink"><defs /><rect fill="white" height="33.98984860628843" width="34.70444019883871" x="0" y="0" /><path d="M6.939604766666889, 18.781402222812176 m-1.4291824400424957, 2.1437737345695496 l-0.40833786129951477, 1.633351445198059 -0.10208446532487869, 1.7354358732700348 l0.40833786129951477, 1.7354358732700348 0.9187601506710052, 1.4291824400424957 l1.4291824400424957, 0.9187601506710052 1.4291824400424957, 0.5104223266243935 l3.0625340342521667, -0.5104223266243935 0.9187601506710052, -0.7145912200212479 l0.40833786129951477, -0.7145912200212479 0.5104223266243935, -1.9396047294139862 l0.0, -1.32709801197052 -1.1229290813207626, -2.7562806010246277 l-1.633351445198059, -1.633351445198059 -1.1229290813207626, -0.5104223266243935 l-1.2250135838985443, 0.0 -1.2250135838985443, 0.20416893064975739 l-0.7145912200212479, 1.1229290813207626 m17.762696743011475, -0.6125067919492722 l-1.020844653248787, -0.6125067919492722 -1.020844653248787, 0.10208446532487869 l-1.2250135838985443, 1.5312670171260834 -0.40833786129951477, 2.041689306497574 l0.0, 2.347942590713501 0.5104223266243935, 2.1437737345695496 l0.8166757225990295, 1.5312670171260834 1.1229290813207626, 0.40833786129951477 l1.1229290813207626, 0.0 1.5312670171260834, -0.5104223266243935 l2.65419602394104, -2.1437737345695496 0.7145912200212479, -1.32709801197052 l0.10208446532487869, -1.2250135838985443 -0.40833786129951477, -1.4291824400424957 l-2.2458581626415253, -2.2458581626415253 -2.960449457168579, -0.5104223266243935 l-0.8166757225990295, 0.0 -0.10208446532487869, 0.40833786129951477 m-17.762696743011475, -1.020844653248787 l12.250136137008667, -0.8166757225990295 6.941743493080139, 0.20416893064975739 l4.389632046222687, -0.7145912200212479 -0.40833786129951477, -0.10208446532487869 m-13.066811561584473, 0.0 l-1.1229290813207626, -3.8792094588279724 -0.40833786129951477, 0.40833786129951477 l0.10208446532487869, -0.40833786129951477 -0.5104223266243935, -0.5104223266243935 l-0.6125067919492722, 0.0 -0.5104223266243935, 0.3062533959746361 l0.0, 0.5104223266243935 1.1229290813207626, 0.0 l2.041689306497574, -1.020844653248787 -1.7354358732700348, -0.3062533959746361 l-2.960449457168579, 1.020844653248787 m15.108500719070435, 5.410476326942444 l-0.10208446532487869, -3.98129403591156 -0.6125067919492722, -3.1646183133125305 l-0.8166757225990295, -2.041689306497574 -7.656334638595581, -0.7145912200212479 l7.860503792762756, 0.9187601506710052 4.1854628920555115, -5.104222893714905 " fill="none" stroke="black" stroke-width="1" /></svg>