<?xml version="1.0" encoding="utf-8" ?>
<svg baseProfile="full" height="54.91716422140598" version="1.1" width="83.70498348027468" xmlns="http://www.w3.org/2000/svg" xmlns:ev="http://www.w3.org/2001/xml-events" xmlns:xlink="http://www.w3.org/1999/xlink"><defs /><rect fill="white" height="54.91716422140598" width="83.70498348027468" x="0" y="0" /><path d="M21.63976699113846, 29.806524962186813 m-1.7354358732700348, -0.20416893064975739 l-6.431320905685425, 1.32709801197052 -5.104222893714905, 1.8375203013420105 l-2.960449457168579, 4.900054335594177 -0.40833786129951477, 3.0625340342521667 l0.3062533959746361, 6.737574338912964 1.8375203013420105, 1.2250135838985443 l7.247996926307678, 1.2250135838985443 2.7562806010246277, 0.0 l9.085517525672913, -1.9396047294139862 3.0625340342521667, -2.8583648800849915 l1.020844653248787, -2.2458581626415253 1.020844653248787, -5.104222893714905 l0.0, -4.1854628920555115 -0.8166757225990295, -1.633351445198059 l-3.675040602684021, -2.1437737345695496 -6.329236626625061, -0.5104223266243935 m49.81721878051758, -0.10208446532487869 l-4.287547469139099, 1.1229290813207626 -2.4500271677970886, 3.4708717465400696 l-0.8166757225990295, 2.960449457168579 -0.40833786129951477, 6.431320905685425 l0.20416893064975739, 0.9187601506710052 1.4291824400424957, 1.8375203013420105 l1.4291824400424957, 0.7145912200212479 5.104222893714905, -0.9187601506710052 l1.9396047294139862, -1.020844653248787 4.083378612995148, -5.920898914337158 l2.1437737345695496, -7.350081205368042 0.0, -2.65419602394104 l-0.7145912200212479, -1.5312670171260834 -2.2458581626415253, -1.7354358732700348 l-1.32709801197052, -0.3062533959746361 -5.30839204788208, 0.7145912200212479 l-5.410476326942444, 1.8375203013420105 m-26.439876556396484, -17.354358434677124 l-0.6125067919492722, 0.0 -6.227152347564697, 3.1646183133125305 l-1.4291824400424957, 0.3062533959746361 -2.8583648800849915, -0.20416893064975739 l-0.8166757225990295, -1.020844653248787 0.0, -1.2250135838985443 l8.26884150505066, 0.40833786129951477 6.329236626625061, -2.041689306497574 m-11.433459520339966, 5.716729760169983 l-2.65419602394104, 6.1250680685043335 -1.9396047294139862, 6.737574338912964 l-1.32709801197052, 7.247996926307678 -1.4291824400424957, 1.7354358732700348 m41.14003658294678, -32.36077547073364 l1.32709801197052, 1.9396047294139862 5.614645481109619, 6.227152347564697 " fill="none" stroke="black" stroke-width="1" /></svg>