<?xml version="1.0" encoding="utf-8" ?>
<svg baseProfile="full" height="39.60449427366257" version="1.1" width="35.11277794837952" xmlns="http://www.w3.org/2000/svg" xmlns:ev="http://www.w3.org/2001/xml-events" xmlns:xlink="http://www.w3.org/1999/xlink"><defs /><rect fill="white" height="39.60449427366257" width="35.11277794837952" x="0" y="0" /><path d="M9.79796975851059, 25.518976897001266 m-1.633351445198059, 0.40833786129951477 l-1.8375203013420105, 1.7354358732700348 -1.1229290813207626, 2.347942590713501 l-0.20416893064975739, 1.2250135838985443 0.7145912200212479, 1.7354358732700348 l0.8166757225990295, 0.6125067919492722 3.7771251797676086, 0.5104223266243935 l1.020844653248787, -0.3062533959746361 1.9396047294139862, -1.4291824400424957 l0.8166757225990295, -0.9187601506710052 0.3062533959746361, -1.32709801197052 l0.0, -2.5521114468574524 -0.3062533959746361, -0.8166757225990295 l-0.7145912200212479, -1.020844653248787 -0.9187601506710052, -0.20416893064975739 m15.618922710418701, -1.020844653248787 l-2.2458581626415253, 0.10208446532487869 -2.041689306497574, 0.5104223266243935 l-1.633351445198059, 1.7354358732700348 -0.8166757225990295, 1.8375203013420105 l-0.5104223266243935, 1.9396047294139862 -0.20416893064975739, 2.7562806010246277 l1.020844653248787, 1.020844653248787 0.8166757225990295, 0.20416893064975739 l3.266702890396118, -0.40833786129951477 2.041689306497574, -1.32709801197052 l1.020844653248787, -1.020844653248787 1.2250135838985443, -2.8583648800849915 l0.10208446532487869, -2.347942590713501 -2.1437737345695496, -1.020844653248787 m-17.048105001449585, -0.6125067919492722 l0.8166757225990295, -7.247996926307678 m13.57723355293274, 9.493855237960815 l0.5104223266243935, -11.33137583732605 m-16.02726101875305, 3.0625340342521667 l3.8792094588279724, -0.9187601506710052 8.677179217338562, -0.9187601506710052 l6.227152347564697, -1.633351445198059 m-19.396047592163086, 2.1437737345695496 l-0.20416893064975739, -7.350081205368042 m-0.3062533959746361, 0.6125067919492722 l6.329236626625061, -5.920898914337158 m-7.043827772140503, 5.104222893714905 l-0.5104223266243935, -0.10208446532487869 -1.020844653248787, -1.32709801197052 m0.9187601506710052, 9.59593951702118 l2.5521114468574524, 2.65419602394104 " fill="none" stroke="black" stroke-width="1" /></svg>