<?xml version="1.0" encoding="utf-8" ?>
<svg baseProfile="full" height="39.9107475951314" version="1.1" width="45.933731608092785" xmlns="http://www.w3.org/2000/svg" xmlns:ev="http://www.w3.org/2001/xml-events" xmlns:xlink="http://www.w3.org/1999/xlink"><defs /><rect fill="white" height="39.9107475951314" width="45.933731608092785" x="0" y="0" /><path d="M13.779263868927956, 22.15018931776285 m-0.6125067919492722, -0.7145912200212479 l-1.9396047294139862, -1.1229290813207626 -3.0625340342521667, -0.10208446532487869 l-1.8375203013420105, 1.4291824400424957 -1.32709801197052, 2.2458581626415253 l0.0, 4.083378612995148 1.32709801197052, 3.0625340342521667 l1.7354358732700348, 1.633351445198059 1.9396047294139862, 1.020844653248787 l2.65419602394104, 0.10208446532487869 1.633351445198059, -0.6125067919492722 l1.1229290813207626, -1.32709801197052 0.5104223266243935, -1.5312670171260834 l0.20416893064975739, -2.8583648800849915 -0.20416893064975739, -2.65419602394104 l-1.4291824400424957, -1.32709801197052 -1.1229290813207626, 0.20416893064975739 m17.558528184890747, -0.20416893064975739 l-1.4291824400424957, 0.3062533959746361 -1.633351445198059, 1.020844653248787 l-1.32709801197052, 1.32709801197052 -0.9187601506710052, 2.041689306497574 l0.10208446532487869, 2.1437737345695496 1.4291824400424957, 2.1437737345695496 l1.1229290813207626, 1.020844653248787 2.65419602394104, 1.1229290813207626 l4.593800902366638, 0.3062533959746361 2.7562806010246277, -0.5104223266243935 l1.9396047294139862, -1.2250135838985443 0.40833786129951477, -0.6125067919492722 l0.3062533959746361, -0.9187601506710052 0.0, -2.041689306497574 l-0.3062533959746361, -1.1229290813207626 -1.633351445198059, -2.960449457168579 l-2.8583648800849915, -2.4500271677970886 -2.5521114468574524, -0.9187601506710052 l-5.206307768821716, 0.9187601506710052 m-15.51683783531189, -1.9396047294139862 l6.022983193397522, -9.391770362854004 2.041689306497574, -2.041689306497574 l1.020844653248787, -1.7354358732700348 m-5.30839204788208, -2.960449457168579 l0.8166757225990295, 0.0 2.1437737345695496, 1.020844653248787 l4.389632046222687, 2.7562806010246277 2.1437737345695496, 0.9187601506710052 m-10.20844578742981, 6.839659214019775 l13.98557186126709, 0.10208446532487869 m-3.368787169456482, -1.2250135838985443 l6.329236626625061, 12.045966386795044 " fill="none" stroke="black" stroke-width="1" /></svg>