<?xml version="1.0" encoding="utf-8" ?>
<svg baseProfile="full" height="27.86478154361248" version="1.1" width="33.581511825323105" xmlns="http://www.w3.org/2000/svg" xmlns:ev="http://www.w3.org/2001/xml-events" xmlns:xlink="http://www.w3.org/1999/xlink"><defs /><rect fill="white" height="27.86478154361248" width="33.581511825323105" x="0" y="0" /><path d="M5.918760225176811, 16.229291632771492 m-0.9187601506710052, 2.5521114468574524 l0.0, 2.8583648800849915 0.40833786129951477, 0.6125067919492722 l0.7145912200212479, 0.5104223266243935 2.65419602394104, 0.10208446532487869 l1.633351445198059, -1.020844653248787 0.9187601506710052, -1.633351445198059 l0.20416893064975739, -2.4500271677970886 -0.6125067919492722, -1.1229290813207626 l-0.8166757225990295, -0.6125067919492722 -2.960449457168579, -0.20416893064975739 l-0.9187601506710052, 0.3062533959746361 -0.6125067919492722, 0.5104223266243935 l-0.6125067919492722, 1.7354358732700348 m22.05024480819702, -2.7562806010246277 l-3.368787169456482, 0.20416893064975739 -1.020844653248787, 0.8166757225990295 l-0.8166757225990295, 1.4291824400424957 -0.10208446532487869, 2.960449457168579 l0.9187601506710052, 0.8166757225990295 2.2458581626415253, 0.10208446532487869 l1.633351445198059, -0.8166757225990295 1.1229290813207626, -1.020844653248787 l0.8166757225990295, -1.020844653248787 0.10208446532487869, -1.1229290813207626 l-0.3062533959746361, -1.020844653248787 -1.2250135838985443, -0.7145912200212479 l-2.960449457168579, -0.10208446532487869 m-11.943882703781128, 1.32709801197052 l3.98129403591156, -4.389632046222687 1.32709801197052, -0.7145912200212479 l6.431320905685425, 2.65419602394104 0.10208446532487869, 1.4291824400424957 m-9.085517525672913, -4.4917163252830505 l-2.65419602394104, -2.041689306497574 m1.4291824400424957, -0.5104223266243935 l0.9187601506710052, -3.98129403591156 m-2.960449457168579, 5.410476326942444 l-3.368787169456482, -3.368787169456482 -0.10208446532487869, -0.6125067919492722 l3.4708717465400696, -1.7354358732700348 2.2458581626415253, -0.10208446532487869 l0.20416893064975739, 3.266702890396118 -0.3062533959746361, 1.1229290813207626 l-1.2250135838985443, 2.347942590713501 -1.2250135838985443, 0.5104223266243935 m10.820952653884888, 1.32709801197052 l1.633351445198059, -1.9396047294139862 0.7145912200212479, -0.40833786129951477 m-1.1229290813207626, -1.32709801197052 l0.40833786129951477, 0.6125067919492722 " fill="none" stroke="black" stroke-width="1" /></svg>