<?xml version="1.0" encoding="utf-8" ?>
<svg baseProfile="full" height="26.741852089762688" version="1.1" width="37.46071971952915" xmlns="http://www.w3.org/2000/svg" xmlns:ev="http://www.w3.org/2001/xml-events" xmlns:xlink="http://www.w3.org/1999/xlink"><defs /><rect fill="white" height="26.741852089762688" width="37.46071971952915" x="0" y="0" /><path d="M5, 6.327097937464714 m3.7771251797676086, -0.20416893064975739 l1.9396047294139862, 0.6125067919492722 0.40833786129951477, 2.041689306497574 l0.0, 4.593800902366638 -0.10208446532487869, -5.920898914337158 l4.389632046222687, -1.8375203013420105 3.368787169456482, -0.40833786129951477 l-0.40833786129951477, -0.20416893064975739 m-6.6354900598526, 8.881348371505737 l-1.7354358732700348, 0.0 -1.7354358732700348, 0.7145912200212479 l-1.020844653248787, 1.1229290813207626 -0.3062533959746361, 0.6125067919492722 l-0.10208446532487869, 3.4708717465400696 1.020844653248787, 1.5312670171260834 l1.633351445198059, 0.40833786129951477 1.020844653248787, -0.20416893064975739 l1.5312670171260834, -1.2250135838985443 1.1229290813207626, -1.020844653248787 l0.6125067919492722, -1.2250135838985443 0.3062533959746361, -2.041689306497574 l-0.8166757225990295, -0.5104223266243935 -1.020844653248787, -0.10208446532487869 m-0.8166757225990295, -2.65419602394104 l21.029398441314697, 0.0 -0.5104223266243935, -0.40833786129951477 l-1.2250135838985443, 0.0 -1.633351445198059, 0.7145912200212479 l-2.1437737345695496, 1.633351445198059 -1.1229290813207626, 1.4291824400424957 l-0.40833786129951477, 1.32709801197052 0.10208446532487869, 1.32709801197052 l0.8166757225990295, 1.020844653248787 1.1229290813207626, 0.5104223266243935 l0.7145912200212479, 0.0 2.7562806010246277, -1.4291824400424957 l1.020844653248787, -1.633351445198059 0.20416893064975739, -2.8583648800849915 l-0.3062533959746361, -0.6125067919492722 -1.020844653248787, -0.8166757225990295 l-1.32709801197052, 0.20416893064975739 " fill="none" stroke="black" stroke-width="1" /></svg>