<?xml version="1.0" encoding="utf-8" ?>
<svg baseProfile="full" height="41.646183878183365" version="1.1" width="73.19028165191412" xmlns="http://www.w3.org/2000/svg" xmlns:ev="http://www.w3.org/2001/xml-events" xmlns:xlink="http://www.w3.org/1999/xlink"><defs /><rect fill="white" height="41.646183878183365" width="73.19028165191412" x="0" y="0" /><path d="M5.102083384990692, 23.783541284501553 m16.02726101875305, -1.633351445198059 l13.2709801197052, -0.8166757225990295 24.29610252380371, 0.0 m0.0, 0.10208446532487869 l-1.4291824400424957, -6.227152347564697 -2.041689306497574, -3.8792094588279724 l-0.5104223266243935, -1.9396047294139862 0.0, -4.389632046222687 m3.8792094588279724, 16.23142957687378 l5.716729760169983, -5.30839204788208 3.8792094588279724, -2.7562806010246277 m-9.28968608379364, 7.96258807182312 l-2.960449457168579, 3.266702890396118 -0.9187601506710052, 1.5312670171260834 l-0.5104223266243935, 1.4291824400424957 0.10208446532487869, 3.0625340342521667 l3.1646183133125305, 1.5312670171260834 3.0625340342521667, 0.3062533959746361 l3.5729563236236572, -2.1437737345695496 2.041689306497574, -1.7354358732700348 l1.633351445198059, -2.8583648800849915 0.0, -1.8375203013420105 l-3.98129403591156, -0.9187601506710052 -1.8375203013420105, -0.8166757225990295 l-2.7562806010246277, -0.5104223266243935 -1.8375203013420105, 0.10208446532487869 m-50.63389301300049, 2.2458581626415253 l-1.2250135838985443, 1.633351445198059 -0.7145912200212479, 3.675040602684021 l-0.10208446532487869, 6.227152347564697 0.3062533959746361, 0.5104223266243935 l2.041689306497574, 0.8166757225990295 2.5521114468574524, -0.10208446532487869 l4.287547469139099, -2.5521114468574524 3.266702890396118, -2.5521114468574524 l0.9187601506710052, -2.2458581626415253 0.7145912200212479, -3.98129403591156 l0.20416893064975739, -4.287547469139099 -1.4291824400424957, -0.40833786129951477 l-3.368787169456482, 0.0 -5.716729760169983, 2.041689306497574 l-2.1437737345695496, 1.8375203013420105 m29.400324821472168, -4.1854628920555115 l1.8375203013420105, -0.8166757225990295 3.266702890396118, -0.8166757225990295 l1.1229290813207626, 0.0 0.5104223266243935, 0.10208446532487869 l0.20416893064975739, 1.5312670171260834 -1.020844653248787, 0.8166757225990295 l-4.389632046222687, 0.10208446532487869 -0.10208446532487869, -0.5104223266243935 l-0.9187601506710052, -0.7145912200212479 " fill="none" stroke="black" stroke-width="1" /></svg>