<?xml version="1.0" encoding="utf-8" ?>
<svg baseProfile="full" height="28.37520368397236" version="1.1" width="38.48156549036503" xmlns="http://www.w3.org/2000/svg" xmlns:ev="http://www.w3.org/2001/xml-events" xmlns:xlink="http://www.w3.org/1999/xlink"><defs /><rect fill="white" height="28.37520368397236" width="38.48156549036503" x="0" y="0" /><path d="M28.377342224121094, 15.412615537643433 m-0.7145912200212479, -0.40833786129951477 l-1.633351445198059, -0.10208446532487869 -1.8375203013420105, 3.675040602684021 l-0.10208446532487869, 2.7562806010246277 0.9187601506710052, 1.7354358732700348 l0.5104223266243935, 0.3062533959746361 1.8375203013420105, 0.0 l0.7145912200212479, -0.6125067919492722 1.32709801197052, -3.0625340342521667 l-0.10208446532487869, -4.083378612995148 -1.1229290813207626, -1.2250135838985443 l-1.5312670171260834, -0.7145912200212479 m-19.804385900497437, 0.20416893064975739 l-1.1229290813207626, 0.3062533959746361 -0.40833786129951477, 0.7145912200212479 l-0.3062533959746361, 2.041689306497574 0.0, 3.8792094588279724 l0.8166757225990295, 1.32709801197052 1.5312670171260834, 0.8166757225990295 l1.1229290813207626, 0.20416893064975739 4.287547469139099, 0.0 l1.4291824400424957, -0.7145912200212479 1.020844653248787, -2.347942590713501 l0.0, -3.1646183133125305 -0.40833786129951477, -1.5312670171260834 l-2.65419602394104, -3.7771251797676086 -1.1229290813207626, -0.6125067919492722 l-2.5521114468574524, -0.20416893064975739 -1.020844653248787, 0.7145912200212479 l-0.5104223266243935, 1.020844653248787 m22.152328491210938, 2.041689306497574 l1.2250135838985443, -3.1646183133125305 m0.0, 0.0 l-1.4291824400424957, -5.002138614654541 1.1229290813207626, 3.8792094588279724 l0.8166757225990295, 1.633351445198059 0.5104223266243935, 0.3062533959746361 l1.020844653248787, -3.0625340342521667 1.1229290813207626, -1.633351445198059 m-6.227152347564697, 6.737574338912964 l0.0, -0.5104223266243935 -2.1437737345695496, -1.020844653248787 l-4.900054335594177, -0.9187601506710052 -1.020844653248787, 0.6125067919492722 l-3.1646183133125305, 4.083378612995148 m3.0625340342521667, -5.104222893714905 l0.40833786129951477, -1.2250135838985443 0.0, -1.633351445198059 m0.0, 0.0 l-3.0625340342521667, -1.1229290813207626 -0.40833786129951477, -0.6125067919492722 l0.3062533959746361, -0.5104223266243935 1.633351445198059, -0.40833786129951477 l3.4708717465400696, -0.20416893064975739 1.9396047294139862, 0.5104223266243935 l0.3062533959746361, 0.5104223266243935 -0.7145912200212479, 0.8166757225990295 l-3.98129403591156, 0.0 m3.368787169456482, 0.6125067919492722 l-0.10208446532487869, -1.2250135838985443 m-1.020844653248787, -1.9396047294139862 l-0.20416893064975739, 4.900054335594177 " fill="none" stroke="black" stroke-width="1" /></svg>