<?xml version="1.0" encoding="utf-8" ?>
<svg baseProfile="full" height="39.60449296981096" version="1.1" width="52.365051694214344" xmlns="http://www.w3.org/2000/svg" xmlns:ev="http://www.w3.org/2001/xml-events" xmlns:xlink="http://www.w3.org/1999/xlink"><defs /><rect fill="white" height="39.60449296981096" width="52.365051694214344" x="0" y="0" /><path d="M10.206307768821716, 21.231428422033787 m-2.4500271677970886, 0.7145912200212479 l-2.7562806010246277, 4.287547469139099 0.0, 2.65419602394104 l4.1854628920555115, 4.695885181427002 3.8792094588279724, 1.020844653248787 l7.656334638595581, -5.104222893714905 0.40833786129951477, -1.9396047294139862 l-2.2458581626415253, -5.716729760169983 -1.32709801197052, -1.020844653248787 l-5.920898914337158, -0.7145912200212479 -2.2458581626415253, 1.32709801197052 m30.319085121154785, 0.20416893064975739 l0.0, 6.533405780792236 0.5104223266243935, 1.5312670171260834 l5.818814635276794, -0.10208446532487869 1.32709801197052, -1.8375203013420105 l-1.2250135838985443, -6.941743493080139 -1.4291824400424957, -0.3062533959746361 l-4.389632046222687, 0.20416893064975739 m-21.131484508514404, -0.5104223266243935 l-0.40833786129951477, 0.20416893064975739 0.0, -0.6125067919492722 l4.900054335594177, -5.104222893714905 1.020844653248787, -0.8166757225990295 l1.8375203013420105, -0.6125067919492722 m2.8583648800849915, -1.4291824400424957 l-2.65419602394104, 0.5104223266243935 0.8166757225990295, 2.960449457168579 l1.4291824400424957, 0.40833786129951477 8.473010659217834, -2.7562806010246277 l0.6125067919492722, -0.6125067919492722 -2.7562806010246277, -1.4291824400424957 l-2.347942590713501, 0.0 -7.96258807182312, 2.2458581626415253 l3.1646183133125305, 0.9187601506710052 2.347942590713501, 0.0 l5.104222893714905, -1.2250135838985443 -1.1229290813207626, -0.40833786129951477 l-8.26884150505066, 2.041689306497574 8.473010659217834, -1.020844653248787 l0.3062533959746361, 0.20416893064975739 m-1.1229290813207626, 1.32709801197052 l6.227152347564697, 6.1250680685043335 -0.20416893064975739, 0.0 m-19.396047592163086, -1.9396047294139862 l0.20416893064975739, -1.8375203013420105 6.227152347564697, -9.902192950248718 l2.041689306497574, -2.347942590713501 m0.10208446532487869, -0.10208446532487869 l-1.1229290813207626, 0.3062533959746361 2.7562806010246277, 0.7145912200212479 l1.7354358732700348, -0.40833786129951477 -1.8375203013420105, 0.10208446532487869 m-1.4291824400424957, 10.820952653884888 l-0.40833786129951477, 1.7354358732700348 0.0, 5.410476326942444 l0.5104223266243935, 0.6125067919492722 m3.266702890396118, -9.28968608379364 l1.9396047294139862, 6.329236626625061 m-5.104222893714905, 2.8583648800849915 l0.9187601506710052, -0.10208446532487869 m4.389632046222687, -1.5312670171260834 l2.347942590713501, -0.9187601506710052 m-24.90860939025879, 3.0625340342521667 l-2.65419602394104, 2.1437737345695496 0.5104223266243935, 1.1229290813207626 l6.1250680685043335, -1.8375203013420105 0.10208446532487869, -0.7145912200212479 l-2.2458581626415253, -1.020844653248787 -0.5104223266243935, 0.6125067919492722 l-0.20416893064975739, 0.8166757225990295 m29.400324821472168, -2.5521114468574524 l-0.40833786129951477, 0.40833786129951477 -0.6125067919492722, 1.9396047294139862 l0.5104223266243935, 1.020844653248787 0.40833786129951477, 0.0 l0.8166757225990295, -1.1229290813207626 0.0, -0.7145912200212479 l-0.8166757225990295, -0.8166757225990295 -1.5312670171260834, -0.3062533959746361 l-0.10208446532487869, 0.20416893064975739 " fill="none" stroke="black" stroke-width="1" /></svg>