<?xml version="1.0" encoding="utf-8" ?>
<svg baseProfile="full" height="27.55852770060301" version="1.1" width="37.66488939523697" xmlns="http://www.w3.org/2000/svg" xmlns:ev="http://www.w3.org/2001/xml-events" xmlns:xlink="http://www.w3.org/1999/xlink"><defs /><rect fill="white" height="27.55852770060301" width="37.66488939523697" x="0" y="0" /><path d="M11.2271523848176, 14.698024056851864 m-2.1437737345695496, 0.5104223266243935 l-3.0625340342521667, 1.7354358732700348 -0.9187601506710052, 1.1229290813207626 l-0.10208446532487869, 1.9396047294139862 5.002138614654541, 2.4500271677970886 l2.65419602394104, 0.10208446532487869 1.5312670171260834, -1.633351445198059 l0.10208446532487869, -1.8375203013420105 -0.3062533959746361, -1.633351445198059 l-1.7354358732700348, -2.1437737345695496 -2.4500271677970886, 0.3062533959746361 m21.8460750579834, 0.20416893064975739 l-2.1437737345695496, 0.0 -3.5729563236236572, 1.2250135838985443 l-1.4291824400424957, 1.7354358732700348 0.0, 1.1229290813207626 l1.020844653248787, 0.9187601506710052 3.7771251797676086, 1.020844653248787 l1.7354358732700348, 0.0 1.2250135838985443, -0.9187601506710052 l0.40833786129951477, -2.041689306497574 -1.9396047294139862, -3.5729563236236572 m-15.108500719070435, -3.675040602684021 l-2.347942590713501, 2.041689306497574 -0.3062533959746361, 2.041689306497574 m9.902192950248718, -4.1854628920555115 l2.8583648800849915, 0.9187601506710052 2.041689306497574, 1.9396047294139862 l1.020844653248787, 1.4291824400424957 m-13.781402111053467, -9.28968608379364 l-1.020844653248787, 1.4291824400424957 0.0, 1.7354358732700348 l0.40833786129951477, 0.5104223266243935 1.9396047294139862, 0.5104223266243935 l2.960449457168579, 0.0 1.1229290813207626, -0.40833786129951477 l1.1229290813207626, -1.1229290813207626 0.10208446532487869, -1.020844653248787 l-0.9187601506710052, -1.020844653248787 -1.633351445198059, -0.40833786129951477 l-5.614645481109619, 0.0 m8.983432650566101, 0.10208446532487869 l2.041689306497574, 0.0 3.4708717465400696, -1.32709801197052 l0.3062533959746361, -0.5104223266243935 " fill="none" stroke="black" stroke-width="1" /></svg>