<?xml version="1.0" encoding="utf-8" ?>
<svg baseProfile="full" height="48.69001179933548" version="1.1" width="87.68627468496561" xmlns="http://www.w3.org/2000/svg" xmlns:ev="http://www.w3.org/2001/xml-events" xmlns:xlink="http://www.w3.org/1999/xlink"><defs /><rect fill="white" height="48.69001179933548" width="87.68627468496561" x="0" y="0" /><path d="M17.14805096387863, 25.314808376133442 m-3.368787169456482, 0.3062533959746361 l-4.1854628920555115, 1.1229290813207626 -3.266702890396118, 2.347942590713501 l-0.9187601506710052, 1.633351445198059 -0.40833786129951477, 2.960449457168579 l0.20416893064975739, 2.65419602394104 0.7145912200212479, 1.633351445198059 l1.7354358732700348, 2.4500271677970886 2.5521114468574524, 2.2458581626415253 l3.0625340342521667, 1.020844653248787 6.1250680685043335, 0.0 l3.675040602684021, -2.347942590713501 3.7771251797676086, -3.266702890396118 l2.5521114468574524, -3.1646183133125305 0.7145912200212479, -2.041689306497574 l0.3062533959746361, -1.8375203013420105 -0.7145912200212479, -1.4291824400424957 l-1.4291824400424957, -2.1437737345695496 -2.041689306497574, -1.8375203013420105 l-1.633351445198059, -0.9187601506710052 -5.410476326942444, -1.633351445198059 l-2.65419602394104, 0.0 -1.5312670171260834, 1.020844653248787 m44.50882434844971, 4.287547469139099 l-2.2458581626415253, 1.9396047294139862 -0.7145912200212479, 1.7354358732700348 l0.0, 4.593800902366638 0.40833786129951477, 2.1437737345695496 l0.5104223266243935, 1.020844653248787 1.4291824400424957, 0.3062533959746361 l4.900054335594177, 0.0 4.593800902366638, -0.8166757225990295 l0.3062533959746361, -6.022983193397522 -0.9187601506710052, -0.8166757225990295 l-7.96258807182312, -1.8375203013420105 m-33.89204263687134, -5.104222893714905 l3.368787169456482, 0.0 10.61678409576416, 2.347942590713501 l19.29396390914917, 3.368787169456482 m3.98129403591156, -0.3062533959746361 l0.6125067919492722, -0.8166757225990295 0.9187601506710052, -2.7562806010246277 l4.287547469139099, -14.598078727722168 -0.8166757225990295, -2.7562806010246277 l-2.4500271677970886, -5.002138614654541 2.8583648800849915, 4.4917163252830505 l1.633351445198059, 1.7354358732700348 -1.020844653248787, 0.5104223266243935 l1.633351445198059, 0.0 3.98129403591156, -0.8166757225990295 l7.860503792762756, -2.5521114468574524 -0.7145912200212479, 0.0 l-6.737574338912964, 3.368787169456482 -5.206307768821716, 0.40833786129951477 " fill="none" stroke="black" stroke-width="1" /></svg>