<?xml version="1.0" encoding="utf-8" ?>
<svg baseProfile="full" height="32.76483524590731" version="1.1" width="38.37948068976402" xmlns="http://www.w3.org/2000/svg" xmlns:ev="http://www.w3.org/2001/xml-events" xmlns:xlink="http://www.w3.org/1999/xlink"><defs /><rect fill="white" height="32.76483524590731" width="38.37948068976402" x="0" y="0" /><path d="M12.1459124609828, 22.048105224967003 m-0.8166757225990295, -1.020844653248787 l-1.9396047294139862, -0.7145912200212479 -1.32709801197052, 0.10208446532487869 l-1.5312670171260834, 0.8166757225990295 -1.020844653248787, 1.020844653248787 l-0.5104223266243935, 1.32709801197052 0.3062533959746361, 1.5312670171260834 l1.2250135838985443, 1.8375203013420105 1.7354358732700348, 0.8166757225990295 l0.8166757225990295, 0.0 2.1437737345695496, -1.7354358732700348 l0.5104223266243935, -1.32709801197052 -0.20416893064975739, -3.368787169456482 l-0.8166757225990295, -1.32709801197052 -1.4291824400424957, 0.10208446532487869 m16.33351445198059, 0.20416893064975739 l-1.32709801197052, -0.20416893064975739 -0.6125067919492722, 0.3062533959746361 l-1.633351445198059, 1.4291824400424957 -0.6125067919492722, 1.2250135838985443 l0.0, 1.5312670171260834 0.7145912200212479, 1.5312670171260834 l1.2250135838985443, 0.8166757225990295 1.1229290813207626, -0.10208446532487869 l1.2250135838985443, -1.633351445198059 0.10208446532487869, -2.041689306497574 l-1.4291824400424957, -1.7354358732700348 -2.2458581626415253, -0.40833786129951477 m-9.59593951702118, 2.4500271677970886 l0.8166757225990295, 0.3062533959746361 9.28968608379364, -0.3062533959746361 m-5.818814635276794, 0.5104223266243935 l-0.3062533959746361, -5.614645481109619 m-0.6125067919492722, -1.4291824400424957 l-1.1229290813207626, 0.9187601506710052 2.041689306497574, -0.7145912200212479 m1.5312670171260834, 5.410476326942444 l5.410476326942444, -8.983432650566101 4.4917163252830505, -6.022983193397522 m-0.9187601506710052, -1.2250135838985443 l1.32709801197052, 0.8166757225990295 4.695885181427002, 5.614645481109619 l0.0, -0.5104223266243935 -0.7145912200212479, -1.1229290813207626 l-2.7562806010246277, -3.0625340342521667 -2.041689306497574, -3.0625340342521667 " fill="none" stroke="black" stroke-width="1" /></svg>