<?xml version="1.0" encoding="utf-8" ?>
<svg baseProfile="full" height="42.667028307914734" version="1.1" width="57.3671904951334" xmlns="http://www.w3.org/2000/svg" xmlns:ev="http://www.w3.org/2001/xml-events" xmlns:xlink="http://www.w3.org/1999/xlink"><defs /><rect fill="white" height="42.667028307914734" width="57.3671904951334" x="0" y="0" /><path d="M10.308392010629177, 21.843936443328857 m-0.5104223266243935, -0.40833786129951477 l-1.8375203013420105, 0.40833786129951477 -1.8375203013420105, 2.8583648800849915 l-1.1229290813207626, 4.389632046222687 0.0, 2.347942590713501 l0.40833786129951477, 2.1437737345695496 1.5312670171260834, 1.7354358732700348 l2.347942590713501, 1.5312670171260834 3.0625340342521667, 0.8166757225990295 l3.368787169456482, 0.0 3.266702890396118, -0.5104223266243935 l3.1646183133125305, -1.2250135838985443 2.65419602394104, -1.633351445198059 l1.9396047294139862, -2.041689306497574 0.7145912200212479, -2.1437737345695496 l0.10208446532487869, -2.4500271677970886 -0.40833786129951477, -1.7354358732700348 l-1.32709801197052, -1.5312670171260834 -2.347942590713501, -1.7354358732700348 l-2.65419602394104, -1.633351445198059 -2.8583648800849915, -1.2250135838985443 l-4.79796975851059, -0.3062533959746361 -2.1437737345695496, 0.8166757225990295 l-2.4500271677970886, 1.8375203013420105 m31.237845420837402, -3.266702890396118 l-2.1437737345695496, 0.5104223266243935 -1.2250135838985443, 1.1229290813207626 l-1.2250135838985443, 1.9396047294139862 -0.8166757225990295, 2.8583648800849915 l-0.20416893064975739, 5.002138614654541 0.5104223266243935, 2.1437737345695496 l1.2250135838985443, 1.633351445198059 1.633351445198059, 1.32709801197052 l2.2458581626415253, 0.7145912200212479 2.65419602394104, 0.10208446532487869 l3.1646183133125305, -0.5104223266243935 2.65419602394104, -1.633351445198059 l2.347942590713501, -2.041689306497574 1.32709801197052, -2.347942590713501 l0.40833786129951477, -1.7354358732700348 -0.3062533959746361, -1.8375203013420105 l-1.8375203013420105, -1.9396047294139862 -4.900054335594177, -3.675040602684021 l-4.083378612995148, -1.1229290813207626 -4.695885181427002, -0.3062533959746361 m-20.92731475830078, 1.2250135838985443 l0.0, 6.022983193397522 1.9396047294139862, 9.28968608379364 m-9.187601804733276, -7.043827772140503 l10.820952653884888, 0.20416893064975739 3.4708717465400696, -0.20416893064975739 l3.266702890396118, -0.6125067919492722 m-1.020844653248787, -5.30839204788208 l-1.020844653248787, -0.20416893064975739 -0.9187601506710052, 0.5104223266243935 l-6.533405780792236, 8.881348371505737 -2.2458581626415253, 2.2458581626415253 l-4.287547469139099, 3.0625340342521667 m-1.8375203013420105, -11.943882703781128 l1.9396047294139862, 0.20416893064975739 2.1437737345695496, 0.9187601506710052 l10.820952653884888, 5.410476326942444 m23.683595657348633, -6.737574338912964 l-5.920898914337158, 8.677179217338562 -1.7354358732700348, 1.8375203013420105 l-1.1229290813207626, 0.7145912200212479 -0.8166757225990295, 0.0 m-2.960449457168579, -14.495993852615356 l8.779264092445374, 7.4521660804748535 4.389632046222687, 2.5521114468574524 m-6.6354900598526, -13.168895244598389 l1.020844653248787, 14.904332160949707 0.7145912200212479, 2.4500271677970886 m-9.187601804733276, -7.1459126472473145 l10.004277229309082, 0.3062533959746361 2.65419602394104, -0.40833786129951477 l4.900054335594177, -1.9396047294139862 m-40.73170185089111, -6.6354900598526 l3.266702890396118, 0.0 5.920898914337158, -0.7145912200212479 l8.575094938278198, -0.10208446532487869 6.6354900598526, 0.9187601506710052 l3.675040602684021, 0.0 3.5729563236236572, -0.7145912200212479 m-0.10208446532487869, 0.5104223266243935 l-0.5104223266243935, -0.6125067919492722 0.0, -3.675040602684021 l-1.020844653248787, -8.779264092445374 6.839659214019775, -1.020844653248787 l3.266702890396118, -0.9187601506710052 m-27.15446710586548, 15.414754152297974 l-0.3062533959746361, -1.9396047294139862 1.32709801197052, -7.350081205368042 " fill="none" stroke="black" stroke-width="1" /></svg>