<?xml version="1.0" encoding="utf-8" ?>
<svg baseProfile="full" height="48.38375821709633" version="1.1" width="77.47782971709967" xmlns="http://www.w3.org/2000/svg" xmlns:ev="http://www.w3.org/2001/xml-events" xmlns:xlink="http://www.w3.org/1999/xlink"><defs /><rect fill="white" height="48.38375821709633" width="77.47782971709967" x="0" y="0" /><path d="M24.600217305123806, 15.004276931285858 m-5.512561202049255, -0.6125067919492722 l-4.389632046222687, 0.10208446532487869 -2.2458581626415253, 0.9187601506710052 l-4.389632046222687, 2.960449457168579 -1.9396047294139862, 1.8375203013420105 l-0.8166757225990295, 1.5312670171260834 -0.3062533959746361, 1.5312670171260834 l0.10208446532487869, 3.8792094588279724 0.6125067919492722, 2.5521114468574524 l1.32709801197052, 3.368787169456482 1.2250135838985443, 1.7354358732700348 l2.1437737345695496, 2.041689306497574 1.9396047294139862, 1.32709801197052 l3.368787169456482, 1.020844653248787 6.1250680685043335, -0.10208446532487869 l4.287547469139099, -1.4291824400424957 1.7354358732700348, -0.8166757225990295 l2.5521114468574524, -2.041689306497574 1.1229290813207626, -1.8375203013420105 l0.6125067919492722, -2.65419602394104 0.0, -4.083378612995148 l-0.9187601506710052, -1.9396047294139862 -4.1854628920555115, -5.104222893714905 l-1.020844653248787, -1.8375203013420105 -0.9187601506710052, -2.7562806010246277 l-0.10208446532487869, 1.020844653248787 1.020844653248787, 0.8166757225990295 l2.960449457168579, 1.633351445198059 2.65419602394104, 0.8166757225990295 l18.88562560081482, 2.65419602394104 10.820952653884888, 0.0 l-2.347942590713501, 0.0 -4.593800902366638, 1.7354358732700348 l-2.65419602394104, 1.8375203013420105 -2.7562806010246277, 2.4500271677970886 l-1.633351445198059, 2.4500271677970886 -0.7145912200212479, 2.2458581626415253 l0.10208446532487869, 6.1250680685043335 2.2458581626415253, 3.0625340342521667 l1.633351445198059, 0.9187601506710052 2.347942590713501, 0.6125067919492722 l4.389632046222687, 0.40833786129951477 6.329236626625061, 0.0 l4.4917163252830505, -0.9187601506710052 2.4500271677970886, -1.7354358732700348 l1.020844653248787, -2.2458581626415253 0.8166757225990295, -4.1854628920555115 l0.0, -3.1646183133125305 -0.3062533959746361, -1.5312670171260834 l-1.7354358732700348, -2.4500271677970886 -3.266702890396118, -2.041689306497574 l-3.266702890396118, -2.7562806010246277 -1.633351445198059, -0.40833786129951477 m-23.377342224121094, -3.4708717465400696 l0.40833786129951477, -5.30839204788208 0.7145912200212479, -3.1646183133125305 l-0.20416893064975739, -4.593800902366638 -0.7145912200212479, -0.40833786129951477 l-1.9396047294139862, 0.3062533959746361 -6.329236626625061, 0.0 l2.041689306497574, -0.3062533959746361 8.677179217338562, 0.0 l4.695885181427002, 0.9187601506710052 m6.839659214019775, 15.312669277191162 l0.3062533959746361, -3.368787169456482 -0.3062533959746361, -2.4500271677970886 l-0.8166757225990295, -2.65419602394104 -0.3062533959746361, -0.5104223266243935 l-2.8583648800849915, -0.7145912200212479 " fill="none" stroke="black" stroke-width="1" /></svg>