<?xml version="1.0" encoding="utf-8" ?>
<svg baseProfile="full" height="40.931592024862766" version="1.1" width="52.262967117130756" xmlns="http://www.w3.org/2000/svg" xmlns:ev="http://www.w3.org/2001/xml-events" xmlns:xlink="http://www.w3.org/1999/xlink"><defs /><rect fill="white" height="40.931592024862766" width="52.262967117130756" x="0" y="0" /><path d="M15.310530886054039, 22.150189504027367 m-0.40833786129951477, -0.7145912200212479 l-1.32709801197052, -0.6125067919492722 -1.5312670171260834, -0.10208446532487869 l-1.4291824400424957, 0.5104223266243935 -2.7562806010246277, 1.9396047294139862 l-2.2458581626415253, 2.65419602394104 -0.6125067919492722, 2.4500271677970886 l0.3062533959746361, 2.960449457168579 1.633351445198059, 2.5521114468574524 l1.020844653248787, 1.020844653248787 2.1437737345695496, 0.8166757225990295 l2.7562806010246277, -0.40833786129951477 2.347942590713501, -2.2458581626415253 l1.7354358732700348, -3.5729563236236572 0.6125067919492722, -3.368787169456482 l0.0, -1.4291824400424957 -0.40833786129951477, -1.2250135838985443 l-1.8375203013420105, -2.1437737345695496 -0.6125067919492722, -0.40833786129951477 l-1.2250135838985443, -0.10208446532487869 m33.78995656967163, 1.7354358732700348 l-0.40833786129951477, -1.2250135838985443 -0.9187601506710052, -0.6125067919492722 l-3.1646183133125305, -0.20416893064975739 -1.8375203013420105, 0.40833786129951477 l-2.041689306497574, 1.2250135838985443 -1.8375203013420105, 1.32709801197052 l-1.4291824400424957, 1.5312670171260834 -1.2250135838985443, 1.8375203013420105 l-1.4291824400424957, 4.389632046222687 0.0, 2.5521114468574524 l0.3062533959746361, 1.020844653248787 1.8375203013420105, 1.2250135838985443 l2.960449457168579, -0.20416893064975739 1.4291824400424957, -0.7145912200212479 l1.32709801197052, -1.1229290813207626 3.266702890396118, -3.98129403591156 l1.2250135838985443, -3.675040602684021 -0.20416893064975739, -2.8583648800849915 l-0.5104223266243935, -0.8166757225990295 -1.7354358732700348, -0.6125067919492722 m-31.03367567062378, 1.4291824400424957 l0.7145912200212479, -0.3062533959746361 22.458581924438477, 0.10208446532487869 l3.675040602684021, -0.3062533959746361 2.5521114468574524, -0.6125067919492722 m-24.60235595703125, -0.10208446532487869 l-0.10208446532487869, -4.1854628920555115 -1.7354358732700348, -6.6354900598526 l-1.020844653248787, -5.614645481109619 -2.1437737345695496, 0.0 l-5.30839204788208, 1.2250135838985443 0.7145912200212479, 0.10208446532487869 l3.266702890396118, -0.9187601506710052 6.227152347564697, -1.1229290813207626 m11.739712953567505, 17.864781618118286 l0.20416893064975739, -7.350081205368042 0.5104223266243935, -2.5521114468574524 l-0.5104223266243935, -0.20416893064975739 -5.002138614654541, 0.20416893064975739 l-0.7145912200212479, -0.40833786129951477 -0.7145912200212479, -0.8166757225990295 l0.0, -1.633351445198059 0.9187601506710052, -0.6125067919492722 l1.633351445198059, -0.40833786129951477 " fill="none" stroke="black" stroke-width="1" /></svg>