<?xml version="1.0" encoding="utf-8" ?>
<svg baseProfile="full" height="36.1336226016283" version="1.1" width="62.879752330482006" xmlns="http://www.w3.org/2000/svg" xmlns:ev="http://www.w3.org/2001/xml-events" xmlns:xlink="http://www.w3.org/1999/xlink"><defs /><rect fill="white" height="36.1336226016283" width="62.879752330482006" x="0" y="0" /><path d="M15.718869604170322, 11.227152459323406 m-2.8583648800849915, 0.3062533959746361 l-1.8375203013420105, 0.9187601506710052 -2.5521114468574524, 2.347942590713501 l-1.4291824400424957, 2.1437737345695496 -1.020844653248787, 2.347942590713501 l-0.3062533959746361, 3.7771251797676086 0.5104223266243935, 1.32709801197052 l2.5521114468574524, 3.4708717465400696 3.4708717465400696, 2.8583648800849915 l2.041689306497574, 0.40833786129951477 3.8792094588279724, -0.20416893064975739 l2.1437737345695496, -1.4291824400424957 1.020844653248787, -1.633351445198059 l0.8166757225990295, -3.5729563236236572 0.10208446532487869, -6.227152347564697 l-0.20416893064975739, -2.4500271677970886 -1.633351445198059, -4.695885181427002 l-1.32709801197052, -2.4500271677970886 -2.960449457168579, -2.5521114468574524 l-2.347942590713501, -0.9187601506710052 -1.2250135838985443, 0.0 m39.40460205078125, 11.841797828674316 l-4.593800902366638, 0.0 -2.1437737345695496, 0.8166757225990295 l-4.287547469139099, 2.65419602394104 -1.8375203013420105, 1.7354358732700348 l-0.5104223266243935, 1.4291824400424957 0.6125067919492722, 1.633351445198059 l2.041689306497574, 2.5521114468574524 2.960449457168579, 2.65419602394104 l3.4708717465400696, 0.8166757225990295 5.920898914337158, -0.10208446532487869 l1.5312670171260834, -0.9187601506710052 1.9396047294139862, -2.041689306497574 l0.6125067919492722, -1.4291824400424957 0.20416893064975739, -2.4500271677970886 l-1.32709801197052, -3.0625340342521667 -2.041689306497574, -2.7562806010246277 l-1.9396047294139862, -1.9396047294139862 -6.227152347564697, -3.675040602684021 l-6.737574338912964, -2.347942590713501 m-26.133623123168945, 1.8375203013420105 l0.3062533959746361, 5.30839204788208 m-0.5104223266243935, -5.920898914337158 l0.40833786129951477, 3.675040602684021 0.0, 3.8792094588279724 l0.7145912200212479, 2.8583648800849915 0.8166757225990295, -0.3062533959746361 l4.1854628920555115, -3.98129403591156 4.4917163252830505, -2.960449457168579 m-9.28968608379364, 6.839659214019775 l1.2250135838985443, 0.20416893064975739 2.4500271677970886, 1.5312670171260834 l2.8583648800849915, 1.1229290813207626 m-6.533405780792236, -3.1646183133125305 l-0.40833786129951477, 6.1250680685043335 -0.5104223266243935, 1.7354358732700348 m0.7145912200212479, -8.370925784111023 l-2.65419602394104, 0.3062533959746361 -6.737574338912964, 0.0 m44.815077781677246, 2.7562806010246277 l-1.1229290813207626, 0.0 -0.8166757225990295, -1.633351445198059 l-0.40833786129951477, -4.083378612995148 -0.6125067919492722, -1.7354358732700348 m1.8375203013420105, 7.758418917655945 l0.5104223266243935, 0.0 " fill="none" stroke="black" stroke-width="1" /></svg>