<?xml version="1.0" encoding="utf-8" ?>
<svg baseProfile="full" height="39.298241436481476" version="1.1" width="43.994126468896866" xmlns="http://www.w3.org/2000/svg" xmlns:ev="http://www.w3.org/2001/xml-events" xmlns:xlink="http://www.w3.org/1999/xlink"><defs /><rect fill="white" height="39.298241436481476" width="43.994126468896866" x="0" y="0" /><path d="M10.920898914337158, 16.841797828674316 m-1.633351445198059, -0.20416893064975739 l-1.4291824400424957, 0.40833786129951477 -1.2250135838985443, 1.2250135838985443 l-1.2250135838985443, 1.9396047294139862 -0.40833786129951477, 2.65419602394104 l0.0, 2.7562806010246277 1.1229290813207626, 2.960449457168579 l1.9396047294139862, 1.633351445198059 6.1250680685043335, 1.7354358732700348 l2.2458581626415253, -0.10208446532487869 1.8375203013420105, -1.8375203013420105 l1.8375203013420105, -2.960449457168579 0.8166757225990295, -2.041689306497574 l0.0, -1.4291824400424957 -0.40833786129951477, -0.8166757225990295 l-2.7562806010246277, -3.266702890396118 -2.347942590713501, -1.7354358732700348 l-2.2458581626415253, -0.6125067919492722 -2.4500271677970886, 0.0 m0.40833786129951477, -0.3062533959746361 l1.4291824400424957, -1.32709801197052 2.7562806010246277, -1.7354358732700348 l3.1646183133125305, -1.4291824400424957 3.7771251797676086, -2.7562806010246277 l-4.900054335594177, 0.20416893064975739 -0.5104223266243935, -1.5312670171260834 l0.0, -0.6125067919492722 0.5104223266243935, -0.40833786129951477 l1.4291824400424957, 0.10208446532487869 7.1459126472473145, 2.65419602394104 l5.104222893714905, 0.20416893064975739 -0.20416893064975739, 0.5104223266243935 l-3.7771251797676086, 1.633351445198059 -4.287547469139099, -0.10208446532487869 l-2.4500271677970886, -1.4291824400424957 m10.9230375289917, 0.0 l3.266702890396118, -2.1437737345695496 1.2250135838985443, -1.5312670171260834 l0.0, -0.5104223266243935 -2.8583648800849915, -1.4291824400424957 l-2.1437737345695496, -0.20416893064975739 m-1.9396047294139862, 6.839659214019775 l2.041689306497574, 3.5729563236236572 2.5521114468574524, 2.7562806010246277 l0.5104223266243935, 1.020844653248787 -0.10208446532487869, 0.5104223266243935 l-1.9396047294139862, 0.6125067919492722 -1.7354358732700348, 1.020844653248787 l-1.2250135838985443, 1.32709801197052 -0.5104223266243935, 1.5312670171260834 l-0.3062533959746361, 2.65419602394104 -0.10208446532487869, 5.614645481109619 l0.40833786129951477, 1.1229290813207626 0.6125067919492722, 0.6125067919492722 l2.7562806010246277, 0.10208446532487869 3.5729563236236572, -0.9187601506710052 l1.2250135838985443, -0.6125067919492722 1.32709801197052, -1.020844653248787 l0.8166757225990295, -1.5312670171260834 0.3062533959746361, -1.4291824400424957 l-0.7145912200212479, -3.368787169456482 -1.4291824400424957, -2.960449457168579 l-1.32709801197052, -1.9396047294139862 -1.2250135838985443, -0.5104223266243935 l-2.7562806010246277, 0.0 -0.40833786129951477, 0.5104223266243935 m-19.498132467269897, 7.4521660804748535 l4.287547469139099, -5.206307768821716 1.020844653248787, -2.2458581626415253 m-7.860503792762756, -1.7354358732700348 l1.9396047294139862, 1.2250135838985443 5.716729760169983, 5.206307768821716 l1.8375203013420105, 0.8166757225990295 m13.168895244598389, 3.266702890396118 l0.40833786129951477, -1.1229290813207626 3.1646183133125305, -4.79796975851059 l0.9187601506710052, -3.98129403591156 m-5.716729760169983, 3.266702890396118 l0.7145912200212479, 0.20416893064975739 4.695885181427002, 4.4917163252830505 l1.9396047294139862, 1.32709801197052 " fill="none" stroke="black" stroke-width="1" /></svg>