<?xml version="1.0" encoding="utf-8" ?>
<svg baseProfile="full" height="25.92517651617527" version="1.1" width="35.62320079654455" xmlns="http://www.w3.org/2000/svg" xmlns:ev="http://www.w3.org/2001/xml-events" xmlns:xlink="http://www.w3.org/1999/xlink"><defs /><rect fill="white" height="25.92517651617527" width="35.62320079654455" x="0" y="0" /><path d="M10.920898951590061, 14.698024243116379 m-2.7562806010246277, 0.40833786129951477 l-2.2458581626415253, 1.32709801197052 -0.5104223266243935, 0.8166757225990295 l-0.40833786129951477, 1.7354358732700348 0.40833786129951477, 1.32709801197052 l0.8166757225990295, 0.40833786129951477 1.7354358732700348, 0.20416893064975739 l2.041689306497574, -0.20416893064975739 1.8375203013420105, -0.5104223266243935 l2.347942590713501, -1.32709801197052 1.020844653248787, -1.7354358732700348 l-0.10208446532487869, -1.2250135838985443 -0.40833786129951477, -0.40833786129951477 l-1.2250135838985443, -0.6125067919492722 -1.8375203013420105, -0.20416893064975739 l-0.9187601506710052, 0.0 -0.8166757225990295, 0.8166757225990295 m18.57937216758728, -0.6125067919492722 l-1.5312670171260834, 0.0 -2.2458581626415253, 0.40833786129951477 l-2.347942590713501, 0.8166757225990295 -1.32709801197052, 0.9187601506710052 l-0.20416893064975739, 0.6125067919492722 0.20416893064975739, 0.7145912200212479 l0.8166757225990295, 0.7145912200212479 2.347942590713501, 0.8166757225990295 l1.020844653248787, 0.0 1.633351445198059, -0.5104223266243935 l1.020844653248787, -0.7145912200212479 0.9187601506710052, -1.9396047294139862 l0.0, -0.5104223266243935 -0.8166757225990295, -0.7145912200212479 l-2.347942590713501, -0.10208446532487869 m-10.310530662536621, 3.266702890396118 l0.5104223266243935, -0.6125067919492722 1.32709801197052, -0.5104223266243935 l6.1250680685043335, -0.20416893064975739 m4.695885181427002, -2.041689306497574 l-0.8166757225990295, -10.310530662536621 m-11.739712953567505, 11.739712953567505 l0.6125067919492722, -4.79796975851059 -0.10208446532487869, -1.8375203013420105 l0.40833786129951477, -0.3062533959746361 m0.9187601506710052, 0.10208446532487869 l3.7771251797676086, 0.10208446532487869 m2.960449457168579, -4.389632046222687 l2.1437737345695496, -0.6125067919492722 4.4917163252830505, 0.8166757225990295 m-11.739712953567505, 4.695885181427002 l-6.022983193397522, 0.10208446532487869 " fill="none" stroke="black" stroke-width="1" /></svg>