<?xml version="1.0" encoding="utf-8" ?>
<svg baseProfile="full" height="25.618923231959343" version="1.1" width="37.35863510519266" xmlns="http://www.w3.org/2000/svg" xmlns:ev="http://www.w3.org/2001/xml-events" xmlns:xlink="http://www.w3.org/1999/xlink"><defs /><rect fill="white" height="25.618923231959343" width="37.35863510519266" x="0" y="0" /><path d="M6.837522126734257, 5.816675387322903 m8.983432650566101, 0.10208446532487869 l12.86264181137085, -0.5104223266243935 m-0.10208446532487869, -0.3062533959746361 l-3.266702890396118, 5.206307768821716 -1.2250135838985443, 2.7562806010246277 m3.98129403591156, -7.96258807182312 l0.40833786129951477, 1.4291824400424957 2.347942590713501, 4.1854628920555115 m-23.581511974334717, -5.716729760169983 l-1.1229290813207626, 7.1459126472473145 m1.2250135838985443, -6.022983193397522 l3.4708717465400696, 5.614645481109619 m-3.7771251797676086, -0.7145912200212479 l-1.4291824400424957, 2.960449457168579 -0.6125067919492722, 2.65419602394104 l0.0, 2.347942590713501 1.1229290813207626, 1.2250135838985443 l0.7145912200212479, 0.3062533959746361 2.960449457168579, 0.10208446532487869 l1.1229290813207626, -0.5104223266243935 1.4291824400424957, -1.4291824400424957 l1.020844653248787, -2.347942590713501 0.3062533959746361, -4.1854628920555115 l-0.9187601506710052, -1.32709801197052 -1.633351445198059, -0.6125067919492722 l-3.0625340342521667, 0.0 -1.2250135838985443, 0.5104223266243935 l-1.32709801197052, 2.2458581626415253 0.3062533959746361, 2.041689306497574 m23.17317247390747, -5.002138614654541 l-2.5521114468574524, 0.3062533959746361 -3.0625340342521667, 1.8375203013420105 l-0.9187601506710052, 1.020844653248787 -0.7145912200212479, 2.347942590713501 l0.0, 2.2458581626415253 1.633351445198059, 1.5312670171260834 l3.8792094588279724, 0.3062533959746361 2.8583648800849915, -1.8375203013420105 l0.9187601506710052, -1.020844653248787 1.2250135838985443, -2.4500271677970886 l0.10208446532487869, -1.9396047294139862 -0.6125067919492722, -1.2250135838985443 l-1.4291824400424957, -0.5104223266243935 -2.960449457168579, 0.0 l-0.9187601506710052, 0.5104223266243935 " fill="none" stroke="black" stroke-width="1" /></svg>