<?xml version="1.0" encoding="utf-8" ?>
<svg baseProfile="full" height="50.42544722557068" version="1.1" width="53.99840224534273" xmlns="http://www.w3.org/2000/svg" xmlns:ev="http://www.w3.org/2001/xml-events" xmlns:xlink="http://www.w3.org/1999/xlink"><defs /><rect fill="white" height="50.42544722557068" width="53.99840224534273" x="0" y="0" /><path d="M20.210585296154022, 31.950298063457012 m-1.32709801197052, -1.1229290813207626 l-2.7562806010246277, -1.4291824400424957 -2.7562806010246277, -0.5104223266243935 l-1.7354358732700348, 0.0 -1.5312670171260834, 0.5104223266243935 l-1.5312670171260834, 0.8166757225990295 -1.2250135838985443, 1.2250135838985443 l-1.9396047294139862, 3.98129403591156 -0.40833786129951477, 1.8375203013420105 l0.0, 3.368787169456482 0.6125067919492722, 1.5312670171260834 l1.1229290813207626, 1.2250135838985443 1.633351445198059, 1.020844653248787 l1.9396047294139862, 0.7145912200212479 4.083378612995148, 0.3062533959746361 l2.1437737345695496, -0.9187601506710052 1.633351445198059, -1.2250135838985443 l1.32709801197052, -1.633351445198059 0.9187601506710052, -1.8375203013420105 l1.1229290813207626, -3.8792094588279724 0.10208446532487869, -3.675040602684021 l-0.5104223266243935, -1.4291824400424957 -2.041689306497574, -1.8375203013420105 l-3.0625340342521667, -0.9187601506710052 -2.7562806010246277, 0.0 l-1.020844653248787, 0.3062533959746361 -0.6125067919492722, 0.8166757225990295 m36.95457458496094, 3.5729563236236572 l-3.0625340342521667, -2.2458581626415253 -3.266702890396118, -1.020844653248787 l-3.7771251797676086, -0.20416893064975739 -1.8375203013420105, 0.20416893064975739 l-1.7354358732700348, 0.7145912200212479 -1.633351445198059, 1.2250135838985443 l-1.1229290813207626, 1.32709801197052 -0.9187601506710052, 2.041689306497574 l-0.5104223266243935, 1.7354358732700348 0.20416893064975739, 3.8792094588279724 l0.9187601506710052, 1.9396047294139862 1.020844653248787, 1.2250135838985443 l3.266702890396118, 1.5312670171260834 4.1854628920555115, 0.10208446532487869 l2.4500271677970886, -1.1229290813207626 2.041689306497574, -1.5312670171260834 l3.0625340342521667, -4.1854628920555115 0.9187601506710052, -2.1437737345695496 l0.20416893064975739, -1.5312670171260834 0.0, -1.7354358732700348 l-0.7145912200212479, -1.7354358732700348 m-33.07536602020264, -2.4500271677970886 l0.10208446532487869, -1.020844653248787 0.9187601506710052, -1.020844653248787 l2.1437737345695496, -1.633351445198059 2.65419602394104, -1.4291824400424957 l4.389632046222687, -1.1229290813207626 4.593800902366638, -0.20416893064975739 l2.65419602394104, 0.7145912200212479 2.1437737345695496, 1.4291824400424957 l3.266702890396118, 5.410476326942444 1.5312670171260834, 1.5312670171260834 m-7.247996926307678, -9.28968608379364 l3.368787169456482, -2.4500271677970886 2.347942590713501, -2.960449457168579 l0.5104223266243935, -1.5312670171260834 0.40833786129951477, -3.368787169456482 l0.0, -3.1646183133125305 m-1.633351445198059, -3.675040602684021 l0.3062533959746361, 0.9187601506710052 1.020844653248787, 1.2250135838985443 l3.5729563236236572, 3.675040602684021 1.5312670171260834, 1.1229290813207626 m-10.004277229309082, 21.743991374969482 l4.083378612995148, 2.4500271677970886 6.1250680685043335, 3.0625340342521667 m-0.3062533959746361, -8.26884150505066 l-1.020844653248787, 0.40833786129951477 -2.347942590713501, 1.8375203013420105 l-7.554250359535217, 9.59593951702118 m4.593800902366638, -11.739712953567505 l0.10208446532487869, 1.7354358732700348 1.9396047294139862, 7.247996926307678 l0.0, 3.1646183133125305 m-26.644043922424316, -15.92517614364624 l0.3062533959746361, 0.5104223266243935 0.0, 3.4708717465400696 l-2.041689306497574, 13.373064994812012 m-5.614645481109619, -9.391770362854004 l6.431320905685425, 0.8166757225990295 9.800108671188354, 2.5521114468574524 " fill="none" stroke="black" stroke-width="1" /></svg>