<?xml version="1.0" encoding="utf-8" ?>
<svg baseProfile="full" height="23.066811375319958" version="1.1" width="27.660612016916275" xmlns="http://www.w3.org/2000/svg" xmlns:ev="http://www.w3.org/2001/xml-events" xmlns:xlink="http://www.w3.org/1999/xlink"><defs /><rect fill="white" height="23.066811375319958" width="27.660612016916275" x="0" y="0" /><path d="M8.572956286370754, 10.716729685664177 m-1.633351445198059, 0.3062533959746361 l-0.6125067919492722, 0.40833786129951477 -0.8166757225990295, 1.020844653248787 l-0.5104223266243935, 1.633351445198059 0.40833786129951477, 1.020844653248787 l1.5312670171260834, 1.4291824400424957 1.2250135838985443, 0.10208446532487869 l0.7145912200212479, -0.3062533959746361 0.6125067919492722, -1.4291824400424957 l0.20416893064975739, -1.9396047294139862 -0.20416893064975739, -1.8375203013420105 l-0.20416893064975739, -0.5104223266243935 -0.6125067919492722, -0.3062533959746361 m12.964726686477661, 0.8166757225990295 l-2.65419602394104, -0.3062533959746361 -1.5312670171260834, 0.5104223266243935 l-1.2250135838985443, 2.7562806010246277 0.0, 1.4291824400424957 l0.6125067919492722, 1.020844653248787 2.2458581626415253, 1.5312670171260834 l0.8166757225990295, 0.0 0.7145912200212479, -0.40833786129951477 l0.8166757225990295, -1.1229290813207626 1.2250135838985443, -2.8583648800849915 l0.0, -1.5312670171260834 -0.5104223266243935, -0.8166757225990295 l-1.633351445198059, -0.9187601506710052 m-12.045966386795044, 3.5729563236236572 l4.389632046222687, -3.266702890396118 m6.941743493080139, 4.695885181427002 l-1.9396047294139862, -1.1229290813207626 -4.389632046222687, -4.083378612995148 m0.3062533959746361, 0.8166757225990295 l-2.1437737345695496, -1.1229290813207626 -5.104222893714905, -0.5104223266243935 m1.8375203013420105, -3.1646183133125305 l-0.40833786129951477, 0.5104223266243935 -0.6125067919492722, 1.8375203013420105 l0.10208446532487869, 0.40833786129951477 0.9187601506710052, 0.20416893064975739 l0.6125067919492722, -1.4291824400424957 0.0, -1.633351445198059 m5.30839204788208, 4.1854628920555115 l1.020844653248787, -0.9187601506710052 4.1854628920555115, -1.8375203013420105 l0.9187601506710052, -0.7145912200212479 -1.633351445198059, -0.5104223266243935 l-1.4291824400424957, -1.32709801197052 m3.368787169456482, 2.65419602394104 l-0.8166757225990295, 0.8166757225990295 " fill="none" stroke="black" stroke-width="1" /></svg>