<?xml version="1.0" encoding="utf-8" ?>
<svg baseProfile="full" height="45.423309952020645" version="1.1" width="74.82363186776638" xmlns="http://www.w3.org/2000/svg" xmlns:ev="http://www.w3.org/2001/xml-events" xmlns:xlink="http://www.w3.org/1999/xlink"><defs /><rect fill="white" height="45.423309952020645" width="74.82363186776638" x="0" y="0" /><path d="M62.16729894280434, 24.906471483409405 m-0.5104223266243935, -1.2250135838985443 l-2.8583648800849915, -2.7562806010246277 -3.5729563236236572, -1.4291824400424957 l-3.8792094588279724, -0.40833786129951477 -1.633351445198059, 0.5104223266243935 l-1.633351445198059, 1.2250135838985443 -2.347942590713501, 4.083378612995148 l-0.7145912200212479, 2.7562806010246277 -0.10208446532487869, 2.8583648800849915 l0.3062533959746361, 2.7562806010246277 1.4291824400424957, 2.347942590713501 l2.1437737345695496, 2.2458581626415253 3.0625340342521667, 1.7354358732700348 l3.5729563236236572, 0.8166757225990295 3.5729563236236572, 0.0 l3.1646183133125305, -0.9187601506710052 2.65419602394104, -1.7354358732700348 l1.633351445198059, -1.9396047294139862 0.7145912200212479, -1.8375203013420105 l0.0, -2.7562806010246277 -0.8166757225990295, -2.7562806010246277 l-2.041689306497574, -2.8583648800849915 -2.4500271677970886, -2.5521114468574524 l-2.5521114468574524, -2.041689306497574 -2.5521114468574524, -1.4291824400424957 m-40.935869216918945, 0.40833786129951477 l-2.4500271677970886, -0.20416893064975739 -3.266702890396118, 1.2250135838985443 l-2.041689306497574, 1.32709801197052 -1.633351445198059, 1.9396047294139862 l-1.1229290813207626, 2.2458581626415253 -0.3062533959746361, 4.1854628920555115 l0.9187601506710052, 2.4500271677970886 1.7354358732700348, 2.041689306497574 l2.5521114468574524, 1.7354358732700348 2.960449457168579, 1.2250135838985443 l2.5521114468574524, 0.5104223266243935 1.9396047294139862, 0.0 l1.9396047294139862, -1.1229290813207626 1.5312670171260834, -1.9396047294139862 l1.4291824400424957, -3.266702890396118 0.8166757225990295, -4.083378612995148 l0.20416893064975739, -4.287547469139099 -0.40833786129951477, -3.675040602684021 l-1.5312670171260834, -2.347942590713501 -1.8375203013420105, -0.9187601506710052 l-1.9396047294139862, 0.0 -2.7562806010246277, 1.1229290813207626 l-2.65419602394104, 1.9396047294139862 m6.022983193397522, -3.5729563236236572 l0.20416893064975739, 0.6125067919492722 -0.40833786129951477, 0.8166757225990295 l-7.350081205368042, 9.391770362854004 -4.287547469139099, 4.593800902366638 m9.493855237960815, 4.083378612995148 l-7.860503792762756, -11.535544395446777 -2.041689306497574, -3.675040602684021 m11.433459520339966, -2.5521114468574524 l-2.65419602394104, 6.839659214019775 -2.041689306497574, 3.8792094588279724 l-2.8583648800849915, 3.5729563236236572 -5.104222893714905, 4.1854628920555115 m17.456443309783936, -13.066811561584473 l-8.26884150505066, 0.0 -5.512561202049255, -0.8166757225990295 m-2.2458581626415253, -0.8166757225990295 l5.512561202049255, 4.287547469139099 6.329236626625061, 5.920898914337158 m40.83378314971924, -9.698023796081543 l-3.98129403591156, 7.4521660804748535 -3.7771251797676086, 5.716729760169983 l-2.1437737345695496, 2.2458581626415253 m15.006415843963623, -0.5104223266243935 l-6.6354900598526, -7.656334638595581 -8.370925784111023, -8.166757225990295 m2.2458581626415253, -0.20416893064975739 l8.26884150505066, 5.716729760169983 m2.041689306497574, 0.5104223266243935 l-4.389632046222687, 0.3062533959746361 m-10.106362104415894, -3.0625340342521667 l7.1459126472473145, 7.758418917655945 5.716729760169983, 3.8792094588279724 m0.6125067919492722, -9.493855237960815 l-2.5521114468574524, -0.3062533959746361 -1.9396047294139862, 0.5104223266243935 m13.57723355293274, -2.347942590713501 l-3.8792094588279724, -3.4708717465400696 -4.695885181427002, -2.960449457168579 l-5.512561202049255, -2.1437737345695496 -2.65419602394104, -0.5104223266243935 l-6.227152347564697, 0.3062533959746361 -1.7354358732700348, 0.6125067919492722 l-1.4291824400424957, 1.7354358732700348 -1.633351445198059, 4.4917163252830505 l-1.32709801197052, 1.8375203013420105 -2.1437737345695496, 1.32709801197052 l-2.347942590713501, 0.3062533959746361 -2.8583648800849915, -0.10208446532487869 l-3.5729563236236572, -1.4291824400424957 -3.266702890396118, -3.4708717465400696 l-0.6125067919492722, -2.4500271677970886 -0.7145912200212479, -1.4291824400424957 l-2.347942590713501, -1.9396047294139862 -2.5521114468574524, -1.2250135838985443 l-2.7562806010246277, -0.20416893064975739 -3.266702890396118, 0.40833786129951477 l-3.4708717465400696, 1.8375203013420105 -3.4708717465400696, 1.1229290813207626 m12.045966386795044, -11.02512240409851 l-0.7145912200212479, -1.1229290813207626 -1.2250135838985443, -0.40833786129951477 l-1.020844653248787, 3.1646183133125305 -0.5104223266243935, 6.227152347564697 " fill="none" stroke="black" stroke-width="1" /></svg>