<?xml version="1.0" encoding="utf-8" ?>
<svg baseProfile="full" height="30.825230926275253" version="1.1" width="46.75040766596794" xmlns="http://www.w3.org/2000/svg" xmlns:ev="http://www.w3.org/2001/xml-events" xmlns:xlink="http://www.w3.org/1999/xlink"><defs /><rect fill="white" height="30.825230926275253" width="46.75040766596794" x="0" y="0" /><path d="M7.347942665219307, 18.985571824014187 m-0.9187601506710052, 0.0 l-0.8166757225990295, -0.5104223266243935 -0.6125067919492722, -1.5312670171260834 l0.0, -1.2250135838985443 0.3062533959746361, -1.633351445198059 l0.7145912200212479, -1.5312670171260834 2.7562806010246277, -4.593800902366638 l1.7354358732700348, -1.5312670171260834 2.8583648800849915, -1.2250135838985443 l3.5729563236236572, -0.20416893064975739 2.1437737345695496, 0.9187601506710052 l0.6125067919492722, 0.8166757225990295 0.8166757225990295, 1.633351445198059 l0.0, 2.1437737345695496 -0.7145912200212479, 1.7354358732700348 l-2.1437737345695496, 2.4500271677970886 -1.2250135838985443, 1.9396047294139862 l-2.041689306497574, 1.633351445198059 -6.329236626625061, -0.10208446532487869 m3.7771251797676086, -5.30839204788208 l0.5104223266243935, -0.5104223266243935 m0.0, 0.0 l1.4291824400424957, -3.675040602684021 0.6125067919492722, -1.020844653248787 l1.32709801197052, -1.1229290813207626 m-3.98129403591156, 5.206307768821716 l7.758418917655945, 2.041689306497574 m-6.737574338912964, -1.2250135838985443 l-1.7354358732700348, 2.8583648800849915 -0.6125067919492722, 2.041689306497574 m1.8375203013420105, -5.206307768821716 l-3.7771251797676086, 0.20416893064975739 -2.1437737345695496, -0.40833786129951477 m5.206307768821716, 0.5104223266243935 l-0.6125067919492722, -3.368787169456482 -0.8166757225990295, -1.8375203013420105 m21.743991374969482, 17.252274751663208 l-0.7145912200212479, -1.633351445198059 -0.40833786129951477, -3.266702890396118 l0.20416893064975739, -1.633351445198059 1.32709801197052, -2.65419602394104 l1.32709801197052, -0.9187601506710052 2.4500271677970886, -0.9187601506710052 l2.1437737345695496, 0.20416893064975739 1.7354358732700348, 1.32709801197052 l0.9187601506710052, 1.32709801197052 0.9187601506710052, 3.266702890396118 l-0.7145912200212479, 1.9396047294139862 -1.633351445198059, 1.633351445198059 l-3.1646183133125305, 1.2250135838985443 -2.65419602394104, 0.0 l-2.8583648800849915, -1.2250135838985443 m3.7771251797676086, -1.8375203013420105 l0.20416893064975739, -1.020844653248787 0.7145912200212479, -0.3062533959746361 m-0.40833786129951477, 0.6125067919492722 l1.9396047294139862, -3.1646183133125305 2.5521114468574524, -2.1437737345695496 m-3.7771251797676086, 5.410476326942444 l0.10208446532487869, 1.32709801197052 1.9396047294139862, 3.675040602684021 m-3.8792094588279724, -6.839659214019775 l-0.6125067919492722, 0.0 -1.9396047294139862, 1.4291824400424957 l-1.2250135838985443, -0.10208446532487869 m5.104222893714905, -1.633351445198059 l0.0, -2.8583648800849915 " fill="none" stroke="black" stroke-width="1" /></svg>