<?xml version="1.0" encoding="utf-8" ?>
<svg baseProfile="full" height="52.46713764965534" version="1.1" width="48.38375858962536" xmlns="http://www.w3.org/2000/svg" xmlns:ev="http://www.w3.org/2001/xml-events" xmlns:xlink="http://www.w3.org/1999/xlink"><defs /><rect fill="white" height="52.46713764965534" width="48.38375858962536" x="0" y="0" /><path d="M15.310531482100487, 29.500271826982498 m-0.20416893064975739, -0.7145912200212479 l-1.633351445198059, -0.20416893064975739 -1.4291824400424957, 0.10208446532487869 l-1.5312670171260834, 0.6125067919492722 -2.347942590713501, 1.633351445198059 l-1.1229290813207626, 2.041689306497574 -0.3062533959746361, 2.041689306497574 l0.40833786129951477, 0.9187601506710052 4.083378612995148, 4.4917163252830505 l1.4291824400424957, 0.5104223266243935 2.960449457168579, -0.20416893064975739 l1.9396047294139862, -1.8375203013420105 1.4291824400424957, -2.4500271677970886 l0.20416893064975739, -0.9187601506710052 0.0, -2.2458581626415253 l-0.7145912200212479, -1.1229290813207626 -2.5521114468574524, -2.1437737345695496 l-1.7354358732700348, -2.041689306497574 -1.633351445198059, -1.1229290813207626 m26.23570680618286, 2.7562806010246277 l-1.020844653248787, 0.0 -2.8583648800849915, 1.4291824400424957 l-3.4708717465400696, 3.1646183133125305 -2.041689306497574, 3.5729563236236572 l0.0, 4.287547469139099 1.1229290813207626, 2.041689306497574 l1.8375203013420105, 1.5312670171260834 3.8792094588279724, 1.8375203013420105 l3.4708717465400696, -0.10208446532487869 2.4500271677970886, -2.65419602394104 l1.1229290813207626, -4.1854628920555115 0.10208446532487869, -8.473010659217834 l-0.40833786129951477, -1.020844653248787 -2.7562806010246277, -3.5729563236236572 l-1.020844653248787, -0.8166757225990295 -3.98129403591156, 0.7145912200212479 m-30.21700143814087, 6.1250680685043335 l0.3062533959746361, -5.206307768821716 0.7145912200212479, -2.7562806010246277 l0.6125067919492722, -1.020844653248787 3.368787169456482, -0.10208446532487869 l2.041689306497574, 0.6125067919492722 3.5729563236236572, 0.0 l1.8375203013420105, -0.10208446532487869 3.8792094588279724, -0.9187601506710052 l9.698023796081543, 0.0 2.8583648800849915, 1.1229290813207626 l5.002138614654541, 0.3062533959746361 m-1.4291824400424957, -1.020844653248787 l0.5104223266243935, -0.7145912200212479 0.5104223266243935, -2.8583648800849915 l0.3062533959746361, -9.59593951702118 0.9187601506710052, -1.7354358732700348 m-4.4917163252830505, -1.5312670171260834 l1.8375203013420105, 0.5104223266243935 2.2458581626415253, 1.5312670171260834 l1.020844653248787, 0.3062533959746361 1.5312670171260834, 1.5312670171260834 l1.020844653248787, -0.40833786129951477 0.3062533959746361, -2.041689306497574 m-7.350081205368042, -1.9396047294139862 l0.0, -1.5312670171260834 m-13.066811561584473, 24.091932773590088 l0.9187601506710052, -6.227152347564697 0.8166757225990295, -1.7354358732700348 l0.7145912200212479, -0.5104223266243935 0.7145912200212479, 2.4500271677970886 l0.6125067919492722, 8.983432650566101 m-1.7354358732700348, -10.412615537643433 l-0.10208446532487869, -2.347942590713501 0.7145912200212479, -8.370925784111023 l-0.20416893064975739, -4.900054335594177 m0.20416893064975739, -0.20416893064975739 l-1.1229290813207626, 0.40833786129951477 0.0, 0.8166757225990295 l0.6125067919492722, 0.7145912200212479 0.8166757225990295, 0.3062533959746361 l1.633351445198059, 0.10208446532487869 1.1229290813207626, -1.5312670171260834 l0.3062533959746361, -1.7354358732700348 -1.5312670171260834, -0.7145912200212479 l-2.1437737345695496, -0.10208446532487869 m0.3062533959746361, 8.677179217338562 l4.695885181427002, -3.0625340342521667 3.368787169456482, -1.1229290813207626 l0.9187601506710052, -0.8166757225990295 " fill="none" stroke="black" stroke-width="1" /></svg>