<?xml version="1.0" encoding="utf-8" ?>
<svg baseProfile="full" height="35.72528317570686" version="1.1" width="53.18172808736563" xmlns="http://www.w3.org/2000/svg" xmlns:ev="http://www.w3.org/2001/xml-events" xmlns:xlink="http://www.w3.org/1999/xlink"><defs /><rect fill="white" height="35.72528317570686" width="53.18172808736563" x="0" y="0" /><path d="M14.80010837316513, 20.41475221514702 m-1.633351445198059, -0.10208446532487869 l-1.633351445198059, 0.6125067919492722 -3.8792094588279724, 2.347942590713501 l-1.32709801197052, 1.2250135838985443 -0.9187601506710052, 1.5312670171260834 l-0.40833786129951477, 1.5312670171260834 0.10208446532487869, 1.2250135838985443 l1.020844653248787, 1.020844653248787 1.7354358732700348, 0.6125067919492722 l2.2458581626415253, 0.3062533959746361 5.614645481109619, 0.0 l2.7562806010246277, -0.3062533959746361 4.1854628920555115, -1.7354358732700348 l1.2250135838985443, -0.9187601506710052 0.6125067919492722, -0.9187601506710052 l0.10208446532487869, -2.347942590713501 -1.020844653248787, -1.32709801197052 l-1.633351445198059, -1.2250135838985443 -1.8375203013420105, -1.020844653248787 l-2.2458581626415253, -0.7145912200212479 -4.287547469139099, -0.40833786129951477 l-1.8375203013420105, 0.10208446532487869 -1.4291824400424957, 0.6125067919492722 m30.012831687927246, 1.020844653248787 l-0.9187601506710052, -0.6125067919492722 -2.960449457168579, 0.40833786129951477 l-3.8792094588279724, 2.7562806010246277 -1.1229290813207626, 1.32709801197052 l-0.7145912200212479, 1.4291824400424957 0.10208446532487869, 2.1437737345695496 l1.020844653248787, 0.7145912200212479 1.5312670171260834, 0.3062533959746361 l4.389632046222687, -0.10208446532487869 2.4500271677970886, -0.6125067919492722 l6.227152347564697, -2.1437737345695496 1.7354358732700348, -1.4291824400424957 l0.0, -1.7354358732700348 -0.8166757225990295, -1.020844653248787 l-1.4291824400424957, -1.1229290813207626 -1.8375203013420105, -0.8166757225990295 l-2.65419602394104, -0.40833786129951477 -5.512561202049255, 0.10208446532487869 m-17.354358434677124, -0.8166757225990295 l1.4291824400424957, -0.6125067919492722 4.1854628920555115, -2.960449457168579 l3.98129403591156, -2.1437737345695496 m8.779264092445374, 7.350081205368042 l-1.32709801197052, -2.1437737345695496 -0.9187601506710052, -0.8166757225990295 l-2.2458581626415253, -1.633351445198059 -3.675040602684021, -1.5312670171260834 l-1.9396047294139862, -1.5312670171260834 m-12.86264181137085, 11.841797828674316 l-0.40833786129951477, -0.7145912200212479 1.2250135838985443, -0.7145912200212479 l0.9187601506710052, -0.40833786129951477 1.32709801197052, 0.3062533959746361 l-2.65419602394104, 1.32709801197052 m27.256550788879395, -2.347942590713501 l-1.32709801197052, 0.3062533959746361 -1.020844653248787, 1.2250135838985443 l-0.20416893064975739, 0.7145912200212479 0.6125067919492722, 0.5104223266243935 l1.020844653248787, -0.20416893064975739 1.5312670171260834, -0.9187601506710052 l-1.633351445198059, -0.3062533959746361 m-0.6125067919492722, 1.32709801197052 l-1.2250135838985443, 0.40833786129951477 -2.65419602394104, 1.8375203013420105 m5.410476326942444, -2.5521114468574524 l0.7145912200212479, 2.4500271677970886 0.40833786129951477, 0.6125067919492722 l0.8166757225990295, 0.10208446532487869 m-1.9396047294139862, -2.65419602394104 l-0.6125067919492722, 0.10208446532487869 0.5104223266243935, 0.0 m-4.287547469139099, -0.6125067919492722 l-1.7354358732700348, -0.9187601506710052 -3.1646183133125305, -2.5521114468574524 m6.431320905685425, 2.041689306497574 l1.4291824400424957, -0.3062533959746361 3.7771251797676086, -1.8375203013420105 m-1.2250135838985443, 2.960449457168579 l3.7771251797676086, -0.8166757225990295 m-30.72742462158203, 1.633351445198059 l-0.6125067919492722, 4.083378612995148 m-0.20416893064975739, -3.8792094588279724 l-2.8583648800849915, 0.10208446532487869 -3.0625340342521667, 1.020844653248787 m4.083378612995148, -2.65419602394104 l-2.8583648800849915, -1.633351445198059 -2.041689306497574, -2.8583648800849915 m4.900054335594177, 4.287547469139099 l1.7354358732700348, -1.020844653248787 2.041689306497574, -2.5521114468574524 m-1.32709801197052, 3.266702890396118 l3.8792094588279724, 0.40833786129951477 m-2.347942590713501, 0.3062533959746361 l-0.6125067919492722, 0.6125067919492722 0.10208446532487869, 0.8166757225990295 l1.2250135838985443, 2.4500271677970886 1.8375203013420105, 1.32709801197052 l3.0625340342521667, 0.3062533959746361 m5.30839204788208, -16.741851568222046 l0.7145912200212479, 0.3062533959746361 4.1854628920555115, -0.20416893064975739 l5.002138614654541, -2.041689306497574 3.7771251797676086, -2.5521114468574524 m-0.20416893064975739, 0.3062533959746361 l-0.7145912200212479, -0.40833786129951477 -1.32709801197052, -1.8375203013420105 l-1.5312670171260834, -1.4291824400424957 -1.32709801197052, -0.5104223266243935 m2.7562806010246277, 3.7771251797676086 l2.8583648800849915, 1.633351445198059 3.368787169456482, 0.10208446532487869 " fill="none" stroke="black" stroke-width="1" /></svg>