<?xml version="1.0" encoding="utf-8" ?>
<svg baseProfile="full" height="43.4837044775486" version="1.1" width="102.69269280135632" xmlns="http://www.w3.org/2000/svg" xmlns:ev="http://www.w3.org/2001/xml-events" xmlns:xlink="http://www.w3.org/1999/xlink"><defs /><rect fill="white" height="43.4837044775486" width="102.69269280135632" x="0" y="0" /><path d="M23.37520331144333, 6.020844951272011 m-1.8375203013420105, -0.40833786129951477 l-5.30839204788208, 0.10208446532487869 -4.593800902366638, 1.4291824400424957 l-2.5521114468574524, 1.4291824400424957 -2.7562806010246277, 3.0625340342521667 l-1.1229290813207626, 2.8583648800849915 -0.20416893064975739, 2.8583648800849915 l1.1229290813207626, 3.368787169456482 1.4291824400424957, 1.7354358732700348 l2.5521114468574524, 2.041689306497574 3.7771251797676086, 1.5312670171260834 l4.900054335594177, 1.020844653248787 5.104222893714905, 0.40833786129951477 l2.7562806010246277, -0.20416893064975739 1.4291824400424957, -0.6125067919492722 l1.8375203013420105, -3.7771251797676086 0.8166757225990295, -3.266702890396118 l-0.8166757225990295, -8.064672350883484 -1.4291824400424957, -3.266702890396118 l-1.8375203013420105, -0.9187601506710052 -2.5521114468574524, 0.0 m46.0400915145874, 7.860503792762756 l-1.633351445198059, -0.40833786129951477 -3.5729563236236572, 0.0 l-10.718868970870972, 0.8166757225990295 -3.98129403591156, 0.6125067919492722 l-2.1437737345695496, 0.6125067919492722 -1.2250135838985443, 0.7145912200212479 l-0.8166757225990295, 1.020844653248787 -0.6125067919492722, 1.7354358732700348 l0.0, 3.7771251797676086 0.7145912200212479, 2.5521114468574524 l1.32709801197052, 2.4500271677970886 1.633351445198059, 1.633351445198059 l4.083378612995148, 2.4500271677970886 6.533405780792236, 2.7562806010246277 l7.4521660804748535, 2.2458581626415253 2.7562806010246277, 0.3062533959746361 l1.7354358732700348, -0.9187601506710052 2.5521114468574524, -2.041689306497574 l0.7145912200212479, -1.32709801197052 0.10208446532487869, -0.9187601506710052 l0.0, -5.206307768821716 -0.3062533959746361, -1.8375203013420105 l-2.1437737345695496, -5.206307768821716 -1.8375203013420105, -3.0625340342521667 l-0.8166757225990295, -0.6125067919492722 m-56.65687561035156, -12.148051261901855 l5.002138614654541, -0.20416893064975739 8.26884150505066, 0.3062533959746361 l6.941743493080139, 0.7145912200212479 17.456443309783936, 3.675040602684021 l46.75468444824219, 7.656334638595581 m-76.05292320251465, -9.28968608379364 l0.10208446532487869, 12.352219820022583 -0.40833786129951477, 7.043827772140503 m-7.860503792762756, -8.166757225990295 l1.2250135838985443, -0.8166757225990295 1.32709801197052, -0.40833786129951477 l5.206307768821716, -0.8166757225990295 4.083378612995148, 0.10208446532487869 l5.104222893714905, 0.7145912200212479 3.5729563236236572, -0.20416893064975739 m30.72742462158203, -0.8166757225990295 l0.10208446532487869, 1.4291824400424957 -1.2250135838985443, 5.920898914337158 l-0.5104223266243935, 4.4917163252830505 0.20416893064975739, 6.1250680685043335 l0.40833786129951477, 2.2458581626415253 m-0.9187601506710052, -3.4708717465400696 l3.368787169456482, -0.20416893064975739 3.4708717465400696, -1.633351445198059 l2.041689306497574, -0.5104223266243935 6.329236626625061, 0.5104223266243935 l1.9396047294139862, -0.20416893064975739 " fill="none" stroke="black" stroke-width="1" /></svg>