<?xml version="1.0" encoding="utf-8" ?>
<svg baseProfile="full" height="68.80064904689789" version="1.1" width="84.92999576032162" xmlns="http://www.w3.org/2000/svg" xmlns:ev="http://www.w3.org/2001/xml-events" xmlns:xlink="http://www.w3.org/1999/xlink"><defs /><rect fill="white" height="68.80064904689789" width="84.92999576032162" x="0" y="0" /><path d="M25.927316546440125, 57.981834560632706 m-1.9396047294139862, 2.7562806010246277 l-1.2250135838985443, 0.8166757225990295 -1.2250135838985443, 0.10208446532487869 l-3.98129403591156, -0.10208446532487869 -1.7354358732700348, -0.40833786129951477 l-5.920898914337158, -2.65419602394104 -0.6125067919492722, -1.2250135838985443 l-0.20416893064975739, -1.9396047294139862 0.0, -6.941743493080139 l0.9187601506710052, -6.329236626625061 0.7145912200212479, -1.633351445198059 l1.7354358732700348, -2.65419602394104 3.1646183133125305, -2.1437737345695496 l3.8792094588279724, -1.32709801197052 1.633351445198059, 0.0 l3.368787169456482, 2.5521114468574524 5.716729760169983, 7.656334638595581 l2.65419602394104, 5.614645481109619 0.3062533959746361, 1.633351445198059 l-0.20416893064975739, 2.960449457168579 -1.7354358732700348, 2.65419602394104 l-2.4500271677970886, 2.041689306497574 -1.8375203013420105, 1.1229290813207626 l-3.1646183133125305, 1.2250135838985443 m0.0, 0.0 l0.0, 0.0 m21.335651874542236, 0.7145912200212479 l0.9187601506710052, 0.9187601506710052 1.1229290813207626, 0.40833786129951477 l4.695885181427002, 0.0 2.960449457168579, -0.5104223266243935 l4.287547469139099, -2.347942590713501 4.083378612995148, -3.1646183133125305 l0.6125067919492722, -1.32709801197052 5.716729760169983, -7.350081205368042 l1.8375203013420105, -3.5729563236236572 0.6125067919492722, -4.695885181427002 l-0.20416893064975739, -1.32709801197052 -1.4291824400424957, -1.5312670171260834 l-2.4500271677970886, -0.20416893064975739 -13.67931842803955, 0.20416893064975739 l-2.5521114468574524, 2.2458581626415253 -1.9396047294139862, 2.7562806010246277 l-1.633351445198059, 3.675040602684021 -1.8375203013420105, 4.900054335594177 l-0.8166757225990295, 3.1646183133125305 0.10208446532487869, 4.900054335594177 l1.5312670171260834, 2.041689306497574 1.32709801197052, 1.020844653248787 m-43.38589668273926, -26.337790489196777 l0.0, -2.1437737345695496 0.9187601506710052, -4.083378612995148 l2.041689306497574, -2.1437737345695496 5.614645481109619, -3.98129403591156 l3.0625340342521667, -1.020844653248787 4.695885181427002, -0.20416893064975739 l1.8375203013420105, 0.3062533959746361 3.266702890396118, 1.8375203013420105 l1.5312670171260834, 1.4291824400424957 1.4291824400424957, 2.1437737345695496 l2.041689306497574, 2.2458581626415253 1.4291824400424957, 0.9187601506710052 l2.1437737345695496, 0.8166757225990295 8.370925784111023, 1.5312670171260834 l2.5521114468574524, 0.0 1.1229290813207626, -0.40833786129951477 l7.860503792762756, -6.431320905685425 4.695885181427002, -2.1437737345695496 l6.227152347564697, -0.20416893064975739 1.8375203013420105, 0.3062533959746361 l4.79796975851059, 2.041689306497574 1.633351445198059, 1.2250135838985443 l1.633351445198059, 2.347942590713501 1.8375203013420105, 3.7771251797676086 l2.347942590713501, 2.2458581626415253 m-39.09834861755371, -3.675040602684021 l0.10208446532487869, -12.658473253250122 m0.0, 0.0 l-3.368787169456482, -0.40833786129951477 -1.1229290813207626, -0.5104223266243935 l-0.9187601506710052, -1.2250135838985443 -0.6125067919492722, -1.7354358732700348 l0.0, -2.4500271677970886 0.7145912200212479, -0.9187601506710052 l1.1229290813207626, -0.20416893064975739 6.6354900598526, -0.3062533959746361 l3.1646183133125305, 0.0 1.020844653248787, 0.40833786129951477 l1.1229290813207626, 1.5312670171260834 -0.3062533959746361, 4.1854628920555115 l-1.1229290813207626, 1.1229290813207626 -2.041689306497574, 0.5104223266243935 l-5.818814635276794, 0.0 m25.112779140472412, 4.695885181427002 l-0.3062533959746361, -3.7771251797676086 -1.1229290813207626, -2.7562806010246277 l-0.3062533959746361, -2.041689306497574 -0.10208446532487869, -5.30839204788208 l-0.6125067919492722, -0.20416893064975739 -2.1437737345695496, 0.3062533959746361 l-4.79796975851059, 2.041689306497574 4.79796975851059, -1.8375203013420105 l3.4708717465400696, -1.8375203013420105 7.96258807182312, -3.368787169456482 l-1.633351445198059, 0.5104223266243935 -3.4708717465400696, 2.041689306497574 l-7.247996926307678, 5.410476326942444 -3.98129403591156, 2.041689306497574 l-1.7354358732700348, 0.6125067919492722 0.5104223266243935, -0.6125067919492722 l6.022983193397522, -4.287547469139099 16.129344701766968, -7.043827772140503 " fill="none" stroke="black" stroke-width="1" /></svg>