<?xml version="1.0" encoding="utf-8" ?>
<svg baseProfile="full" height="31.029399447143078" version="1.1" width="38.8899028301239" xmlns="http://www.w3.org/2000/svg" xmlns:ev="http://www.w3.org/2001/xml-events" xmlns:xlink="http://www.w3.org/1999/xlink"><defs /><rect fill="white" height="31.029399447143078" width="38.8899028301239" x="0" y="0" /><path d="M14.39177043735981, 9.287547506392002 m-1.2250135838985443, -0.20416893064975739 l-2.5521114468574524, 0.6125067919492722 -1.4291824400424957, 0.6125067919492722 l-2.347942590713501, 1.9396047294139862 -1.2250135838985443, 2.041689306497574 l-0.6125067919492722, 2.8583648800849915 0.0, 2.347942590713501 l0.5104223266243935, 1.633351445198059 2.2458581626415253, 2.7562806010246277 l1.7354358732700348, 1.2250135838985443 2.1437737345695496, 0.9187601506710052 l1.8375203013420105, -0.10208446532487869 2.2458581626415253, -4.4917163252830505 l0.5104223266243935, -3.5729563236236572 -0.3062533959746361, -3.7771251797676086 l-0.9187601506710052, -2.1437737345695496 -1.32709801197052, -1.020844653248787 m2.7562806010246277, 2.7562806010246277 l1.020844653248787, 0.10208446532487869 3.8792094588279724, -1.020844653248787 l5.410476326942444, -2.041689306497574 m0.20416893064975739, -3.8792094588279724 l-0.40833786129951477, 1.2250135838985443 0.0, 3.368787169456482 m-3.5729563236236572, -4.79796975851059 l2.7562806010246277, 0.8166757225990295 2.7562806010246277, 0.20416893064975739 l1.5312670171260834, -0.6125067919492722 1.020844653248787, -0.9187601506710052 l0.20416893064975739, -0.5104223266243935 -1.32709801197052, -0.6125067919492722 l-3.7771251797676086, 0.20416893064975739 -2.7562806010246277, 1.4291824400424957 m3.1646183133125305, 5.104222893714905 l0.10208446532487869, 3.8792094588279724 m-0.8166757225990295, -0.3062533959746361 l-0.6125067919492722, 0.0 -1.4291824400424957, 1.32709801197052 l0.20416893064975739, 2.1437737345695496 1.8375203013420105, 0.40833786129951477 l1.7354358732700348, -1.020844653248787 0.3062533959746361, -0.7145912200212479 l0.10208446532487869, -1.633351445198059 -1.633351445198059, -0.6125067919492722 m-0.10208446532487869, 1.8375203013420105 l5.920898914337158, 3.7771251797676086 m1.020844653248787, -1.633351445198059 l-1.020844653248787, 1.1229290813207626 -0.40833786129951477, 1.020844653248787 l0.5104223266243935, 0.40833786129951477 1.633351445198059, -1.020844653248787 l-0.10208446532487869, -0.7145912200212479 -1.9396047294139862, -0.9187601506710052 " fill="none" stroke="black" stroke-width="1" /></svg>