<?xml version="1.0" encoding="utf-8" ?>
<svg baseProfile="full" height="56.040091291069984" version="1.1" width="72.67986189574003" xmlns="http://www.w3.org/2000/svg" xmlns:ev="http://www.w3.org/2001/xml-events" xmlns:xlink="http://www.w3.org/1999/xlink"><defs /><rect fill="white" height="56.040091291069984" width="72.67986189574003" x="0" y="0" /><path d="M27.45858196169138, 28.785679079592228 m-1.32709801197052, -1.32709801197052 l-3.1646183133125305, -1.32709801197052 -4.1854628920555115, -0.3062533959746361 l-5.512561202049255, 2.041689306497574 -2.65419602394104, 1.8375203013420105 l-2.4500271677970886, 2.347942590713501 -1.7354358732700348, 2.65419602394104 l-1.1229290813207626, 2.65419602394104 -0.3062533959746361, 2.960449457168579 l0.20416893064975739, 3.4708717465400696 1.633351445198059, 2.8583648800849915 l2.7562806010246277, 1.7354358732700348 7.554250359535217, 1.2250135838985443 l7.860503792762756, 0.0 3.266702890396118, -1.2250135838985443 l2.65419602394104, -2.1437737345695496 1.9396047294139862, -2.65419602394104 l1.020844653248787, -3.266702890396118 0.3062533959746361, -3.266702890396118 l-0.10208446532487869, -2.5521114468574524 -1.020844653248787, -1.9396047294139862 l-1.5312670171260834, -1.7354358732700348 -4.083378612995148, -2.5521114468574524 l-1.7354358732700348, -0.5104223266243935 -2.041689306497574, 0.0 m40.119194984436035, 5.716729760169983 l-1.7354358732700348, -2.960449457168579 -2.347942590713501, -2.7562806010246277 l-2.5521114468574524, -1.633351445198059 -1.4291824400424957, -0.5104223266243935 l-3.8792094588279724, 0.20416893064975739 -2.5521114468574524, 1.1229290813207626 l-2.8583648800849915, 1.8375203013420105 -2.4500271677970886, 2.1437737345695496 l-2.041689306497574, 2.347942590713501 -1.5312670171260834, 2.2458581626415253 l-0.9187601506710052, 2.347942590713501 -0.40833786129951477, 2.5521114468574524 l-0.20416893064975739, 6.329236626625061 1.020844653248787, 2.347942590713501 l1.9396047294139862, 1.2250135838985443 2.7562806010246277, 0.7145912200212479 l6.431320905685425, 0.0 3.266702890396118, -1.020844653248787 l3.368787169456482, -1.633351445198059 8.473010659217834, -5.818814635276794 l1.2250135838985443, -1.633351445198059 0.3062533959746361, -3.98129403591156 l-0.40833786129951477, -2.7562806010246277 -1.633351445198059, -2.2458581626415253 l-2.1437737345695496, -1.8375203013420105 -2.2458581626415253, -1.633351445198059 l-4.287547469139099, -2.1437737345695496 m-15.823091268539429, 21.743991374969482 l10.412615537643433, -11.943882703781128 4.287547469139099, -3.7771251797676086 l5.614645481109619, -3.7771251797676086 1.633351445198059, -1.4291824400424957 m-20.314807891845703, 2.65419602394104 l1.7354358732700348, 0.3062533959746361 2.347942590713501, 1.020844653248787 l20.314807891845703, 10.718868970870972 m-27.460720539093018, -3.675040602684021 l3.675040602684021, -0.10208446532487869 23.989849090576172, -2.5521114468574524 m-44.304656982421875, -7.043827772140503 l-1.7354358732700348, 3.266702890396118 -5.104222893714905, 6.227152347564697 l-4.900054335594177, 7.1459126472473145 -2.2458581626415253, 1.7354358732700348 l-0.6125067919492722, 0.0 0.0, -2.65419602394104 m3.8792094588279724, -15.006415843963623 l5.410476326942444, 11.127206087112427 2.4500271677970886, 3.8792094588279724 l2.65419602394104, 2.65419602394104 2.5521114468574524, 1.32709801197052 l3.5729563236236572, 0.9187601506710052 m-21.335651874542236, -10.004277229309082 l3.4708717465400696, 0.0 16.843936443328857, -2.347942590713501 m-11.433459520339966, -10.820952653884888 l0.7145912200212479, -0.3062533959746361 1.7354358732700348, -1.8375203013420105 l1.9396047294139862, -0.9187601506710052 7.656334638595581, -1.32709801197052 l7.656334638595581, 0.10208446532487869 9.391770362854004, 0.9187601506710052 l8.473010659217834, 0.0 m0.9187601506710052, 0.3062533959746361 l-1.4291824400424957, 6.329236626625061 m1.1229290813207626, -8.26884150505066 l0.8166757225990295, -8.370925784111023 m-3.98129403591156, -7.247996926307678 l-0.5104223266243935, 1.633351445198059 0.0, 1.5312670171260834 l0.5104223266243935, 1.020844653248787 1.2250135838985443, 0.9187601506710052 l1.9396047294139862, 0.8166757225990295 2.8583648800849915, 0.5104223266243935 l2.8583648800849915, -0.10208446532487869 1.9396047294139862, -1.4291824400424957 l0.5104223266243935, -1.32709801197052 0.10208446532487869, -1.9396047294139862 l-0.20416893064975739, -0.8166757225990295 -0.6125067919492722, -0.6125067919492722 m-0.40833786129951477, -0.5104223266243935 l0.5104223266243935, 0.40833786129951477 0.5104223266243935, -0.20416893064975739 l-1.32709801197052, 0.8166757225990295 " fill="none" stroke="black" stroke-width="1" /></svg>