<?xml version="1.0" encoding="utf-8" ?>
<svg baseProfile="full" height="36.64404485374689" version="1.1" width="43.8920409232378" xmlns="http://www.w3.org/2000/svg" xmlns:ev="http://www.w3.org/2001/xml-events" xmlns:xlink="http://www.w3.org/1999/xlink"><defs /><rect fill="white" height="36.64404485374689" width="43.8920409232378" x="0" y="0" /><path d="M6.8375203385949135, 21.639767587184906 m-0.7145912200212479, 0.3062533959746361 l-1.020844653248787, 2.5521114468574524 -0.10208446532487869, 3.675040602684021 l0.7145912200212479, 1.633351445198059 1.4291824400424957, 1.2250135838985443 l1.8375203013420105, 0.6125067919492722 2.8583648800849915, 0.0 l0.7145912200212479, -0.40833786129951477 1.4291824400424957, -1.2250135838985443 l1.4291824400424957, -2.2458581626415253 0.40833786129951477, -2.5521114468574524 l0.0, -2.041689306497574 -1.020844653248787, -1.5312670171260834 l-1.7354358732700348, -1.020844653248787 -1.8375203013420105, -0.5104223266243935 l-2.960449457168579, 0.0 -1.4291824400424957, 1.2250135838985443 m25.316946506500244, -0.6125067919492722 l-1.2250135838985443, 0.7145912200212479 -0.9187601506710052, 1.020844653248787 l-0.9187601506710052, 1.4291824400424957 -0.5104223266243935, 1.7354358732700348 l0.10208446532487869, 2.65419602394104 2.347942590713501, 1.8375203013420105 l0.9187601506710052, 0.40833786129951477 3.8792094588279724, 0.20416893064975739 l1.8375203013420105, -0.8166757225990295 1.020844653248787, -1.5312670171260834 l0.20416893064975739, -3.368787169456482 -0.40833786129951477, -1.633351445198059 l-0.6125067919492722, -0.8166757225990295 -2.041689306497574, -1.32709801197052 l-2.8583648800849915, -0.10208446532487869 m-21.437737941741943, 5.002138614654541 l-0.5104223266243935, -0.5104223266243935 -0.5104223266243935, -2.041689306497574 l0.10208446532487869, -5.104222893714905 0.8166757225990295, -2.960449457168579 l0.9187601506710052, -1.9396047294139862 2.7562806010246277, -3.98129403591156 l4.389632046222687, -4.593800902366638 m-8.064672350883484, 8.983432650566101 l0.8166757225990295, 0.40833786129951477 12.454304695129395, 0.6125067919492722 l3.5729563236236572, -0.3062533959746361 4.1854628920555115, -0.9187601506710052 m-17.660611867904663, 0.7145912200212479 l2.8583648800849915, 5.104222893714905 0.7145912200212479, 6.431320905685425 l0.7145912200212479, 1.32709801197052 4.1854628920555115, 0.6125067919492722 l1.32709801197052, 0.6125067919492722 0.6125067919492722, -0.7145912200212479 l1.5312670171260834, -3.675040602684021 1.9396047294139862, -5.818814635276794 l1.9396047294139862, -4.287547469139099 0.40833786129951477, 4.287547469139099 l2.8583648800849915, 7.350081205368042 m0.8166757225990295, -1.9396047294139862 l-2.65419602394104, -1.633351445198059 -2.5521114468574524, -0.8166757225990295 l-6.839659214019775, -0.10208446532487869 -2.4500271677970886, 0.9187601506710052 " fill="none" stroke="black" stroke-width="1" /></svg>