<?xml version="1.0" encoding="utf-8" ?>
<svg baseProfile="full" height="34.39818561077118" version="1.1" width="49.812939800322056" xmlns="http://www.w3.org/2000/svg" xmlns:ev="http://www.w3.org/2001/xml-events" xmlns:xlink="http://www.w3.org/1999/xlink"><defs /><rect fill="white" height="34.39818561077118" width="49.812939800322056" x="0" y="0" /><path d="M15.923037342727184, 14.800106845796108 m-0.20416893064975739, -0.40833786129951477 l-2.2458581626415253, -0.40833786129951477 -0.9187601506710052, 0.20416893064975739 l-7.043827772140503, 5.104222893714905 -0.5104223266243935, 7.1459126472473145 l1.020844653248787, 1.5312670171260834 6.431320905685425, 1.2250135838985443 l6.6354900598526, -3.0625340342521667 0.6125067919492722, -0.8166757225990295 l2.5521114468574524, -5.716729760169983 -2.65419602394104, -2.960449457168579 l-3.7771251797676086, -3.1646183133125305 m24.60235595703125, 6.533405780792236 l-2.8583648800849915, -1.020844653248787 -1.2250135838985443, -0.10208446532487869 l-1.4291824400424957, 0.40833786129951477 -1.2250135838985443, 3.0625340342521667 l1.633351445198059, 6.839659214019775 0.8166757225990295, 0.20416893064975739 l5.002138614654541, -0.40833786129951477 1.4291824400424957, -5.614645481109619 l-1.4291824400424957, -5.410476326942444 -2.65419602394104, -1.7354358732700348 m-0.7145912200212479, 7.860503792762756 l0.0, 0.0 m-24.806525707244873, -2.65419602394104 l0.0, 0.0 m-1.32709801197052, -4.695885181427002 l1.7354358732700348, 3.5729563236236572 0.40833786129951477, 0.40833786129951477 m0.3062533959746361, 0.20416893064975739 l0.5104223266243935, -0.3062533959746361 0.3062533959746361, 1.2250135838985443 l0.10208446532487869, -0.9187601506710052 1.1229290813207626, 0.20416893064975739 l-3.1646183133125305, -0.10208446532487869 1.32709801197052, -0.8166757225990295 m0.8166757225990295, -1.8375203013420105 l0.20416893064975739, -0.5104223266243935 2.7562806010246277, -2.8583648800849915 m-2.7562806010246277, 4.900054335594177 l4.593800902366638, 1.1229290813207626 m-3.4708717465400696, 0.0 l-0.7145912200212479, 5.512561202049255 m-3.4708717465400696, -3.98129403591156 l-4.695885181427002, -0.7145912200212479 m29.60449457168579, 1.2250135838985443 l0.0, -0.9187601506710052 1.2250135838985443, -1.9396047294139862 m-0.20416893064975739, 2.8583648800849915 l6.329236626625061, -0.7145912200212479 m-4.4917163252830505, -0.5104223266243935 l1.2250135838985443, 5.614645481109619 m-1.9396047294139862, -2.1437737345695496 l-3.675040602684021, 0.40833786129951477 m1.4291824400424957, 3.1646183133125305 l-0.5104223266243935, -4.083378612995148 m-2.8583648800849915, -2.1437737345695496 l4.389632046222687, -1.1229290813207626 m-1.1229290813207626, -2.5521114468574524 l1.2250135838985443, 1.5312670171260834 m-21.437737941741943, -5.614645481109619 l1.633351445198059, 0.3062533959746361 10.412615537643433, -0.10208446532487869 l4.4917163252830505, 0.8166757225990295 4.79796975851059, 1.8375203013420105 m0.6125067919492722, -1.5312670171260834 l1.9396047294139862, -9.59593951702118 m-2.8583648800849915, -1.633351445198059 l7.043827772140503, 2.4500271677970886 m-20.11063814163208, 6.941743493080139 l-0.20416893064975739, -0.9187601506710052 0.5104223266243935, -3.5729563236236572 " fill="none" stroke="black" stroke-width="1" /></svg>