<?xml version="1.0" encoding="utf-8" ?>
<svg baseProfile="full" height="48.89418080449104" version="1.1" width="61.960991472005844" xmlns="http://www.w3.org/2000/svg" xmlns:ev="http://www.w3.org/2001/xml-events" xmlns:xlink="http://www.w3.org/1999/xlink"><defs /><rect fill="white" height="48.89418080449104" width="61.960991472005844" x="0" y="0" /><path d="M40.627477914094925, 11.839659214019775 m10.20844578742981, -5.206307768821716 l3.7771251797676086, -1.2250135838985443 2.347942590713501, -0.40833786129951477 m-10.004277229309082, 3.4708717465400696 l0.7145912200212479, 2.7562806010246277 0.0, 9.698023796081543 l1.2250135838985443, 6.1250680685043335 m0.0, 0.0 l-9.085517525672913, -0.10208446532487869 -16.63976788520813, -3.0625340342521667 l-7.247996926307678, -0.8166757225990295 -6.839659214019775, -0.3062533959746361 m17.252274751663208, 1.020844653248787 l0.20416893064975739, -9.698023796081543 m0.0, 0.0 l2.2458581626415253, 1.7354358732700348 2.7562806010246277, 0.5104223266243935 l0.20416893064975739, -1.1229290813207626 -0.6125067919492722, -1.2250135838985443 l-3.1646183133125305, -2.1437737345695496 -1.020844653248787, 0.0 l-0.3062533959746361, 2.2458581626415253 2.65419602394104, 1.32709801197052 l-0.20416893064975739, -2.041689306497574 -0.9187601506710052, -1.2250135838985443 l-0.5104223266243935, -0.10208446532487869 -0.10208446532487869, 1.1229290813207626 l0.9187601506710052, 1.2250135838985443 1.32709801197052, -0.5104223266243935 m-15.51683783531189, 9.493855237960815 l-1.1229290813207626, 3.0625340342521667 m0.0, 0.0 l-4.593800902366638, 0.10208446532487869 -1.32709801197052, 0.7145912200212479 l-1.1229290813207626, 1.1229290813207626 -0.8166757225990295, 1.4291824400424957 l-0.3062533959746361, 3.4708717465400696 1.020844653248787, 1.4291824400424957 l2.8583648800849915, 1.5312670171260834 1.2250135838985443, 0.3062533959746361 l4.083378612995148, 0.10208446532487869 2.7562806010246277, -2.041689306497574 l0.7145912200212479, -1.4291824400424957 0.0, -1.1229290813207626 l-2.7562806010246277, -3.4708717465400696 -2.1437737345695496, -0.8166757225990295 m0.20416893064975739, -1.1229290813207626 l-0.10208446532487869, 1.5312670171260834 -1.9396047294139862, 6.431320905685425 m-5.206307768821716, -3.266702890396118 l9.800108671188354, 0.0 1.32709801197052, 0.3062533959746361 m-0.10208446532487869, -1.2250135838985443 l-0.8166757225990295, 0.10208446532487869 -4.389632046222687, 2.4500271677970886 l-2.347942590713501, 0.9187601506710052 m-0.9187601506710052, -5.716729760169983 l2.4500271677970886, 1.633351445198059 3.0625340342521667, 5.206307768821716 m34.09621000289917, -7.247996926307678 l0.0, 3.8792094588279724 m0.0, 0.0 l-6.227152347564697, -0.10208446532487869 -1.633351445198059, 0.6125067919492722 l-2.5521114468574524, 2.2458581626415253 -0.3062533959746361, 1.32709801197052 l0.10208446532487869, 2.4500271677970886 0.9187601506710052, 1.8375203013420105 l0.9187601506710052, 1.020844653248787 3.4708717465400696, 2.1437737345695496 l1.633351445198059, 0.6125067919492722 2.65419602394104, 0.10208446532487869 l1.9396047294139862, -1.020844653248787 1.633351445198059, -1.2250135838985443 l0.9187601506710052, -1.32709801197052 0.6125067919492722, -2.1437737345695496 l0.10208446532487869, -2.7562806010246277 -1.7354358732700348, -3.368787169456482 l-2.65419602394104, -1.4291824400424957 m1.32709801197052, 1.7354358732700348 l-3.5729563236236572, 5.002138614654541 -3.5729563236236572, 3.7771251797676086 m-2.5521114468574524, -7.350081205368042 l2.4500271677970886, 0.3062533959746361 3.7771251797676086, 1.5312670171260834 l5.716729760169983, 3.5729563236236572 m-11.535544395446777, -0.5104223266243935 l5.818814635276794, -2.1437737345695496 6.6354900598526, -1.1229290813207626 " fill="none" stroke="black" stroke-width="1" /></svg>