<?xml version="1.0" encoding="utf-8" ?>
<svg baseProfile="full" height="35.31694658100605" version="1.1" width="43.68787243962288" xmlns="http://www.w3.org/2000/svg" xmlns:ev="http://www.w3.org/2001/xml-events" xmlns:xlink="http://www.w3.org/1999/xlink"><defs /><rect fill="white" height="35.31694658100605" width="43.68787243962288" x="0" y="0" /><path d="M7.041689679026604, 19.29182443767786 m-1.8375203013420105, 2.960449457168579 l3.675040602684021, 7.554250359535217 1.633351445198059, 0.5104223266243935 l5.104222893714905, -0.40833786129951477 1.4291824400424957, -0.9187601506710052 l1.2250135838985443, -1.2250135838985443 0.8166757225990295, -5.104222893714905 l-0.6125067919492722, -1.4291824400424957 -1.4291824400424957, -1.9396047294139862 l-1.2250135838985443, -0.7145912200212479 -4.900054335594177, 0.0 l-2.347942590713501, 0.7145912200212479 -3.5729563236236572, 2.041689306497574 m6.431320905685425, -4.593800902366638 l-0.10208446532487869, -5.206307768821716 -0.40833786129951477, -1.32709801197052 m-0.3062533959746361, 0.5104223266243935 l-2.347942590713501, -0.10208446532487869 -1.020844653248787, -1.1229290813207626 l-0.6125067919492722, -2.347942590713501 0.6125067919492722, -2.1437737345695496 m3.266702890396118, 5.818814635276794 l1.633351445198059, 0.6125067919492722 0.6125067919492722, -0.3062533959746361 l1.020844653248787, -2.041689306497574 -0.40833786129951477, -0.5104223266243935 l-0.8166757225990295, 0.40833786129951477 m-0.6125067919492722, 2.960449457168579 l11.739712953567505, -0.10208446532487869 7.247996926307678, -1.020844653248787 m0.6125067919492722, 0.20416893064975739 l0.6125067919492722, 1.32709801197052 0.40833786129951477, 3.98129403591156 l0.40833786129951477, -0.7145912200212479 -0.40833786129951477, -1.633351445198059 l-1.5312670171260834, -0.5104223266243935 -1.32709801197052, 0.6125067919492722 l-1.020844653248787, 1.633351445198059 -0.6125067919492722, 2.7562806010246277 l0.0, 2.4500271677970886 0.6125067919492722, 2.5521114468574524 l1.1229290813207626, 2.347942590713501 1.5312670171260834, 2.041689306497574 l2.65419602394104, 1.5312670171260834 1.4291824400424957, 0.0 l1.633351445198059, -0.8166757225990295 1.020844653248787, -1.5312670171260834 l0.6125067919492722, -2.041689306497574 0.0, -2.1437737345695496 l-0.8166757225990295, -3.675040602684021 -1.2250135838985443, -1.9396047294139862 l-1.633351445198059, -1.633351445198059 -2.65419602394104, -1.2250135838985443 l-2.1437737345695496, 0.10208446532487869 -0.9187601506710052, 0.7145912200212479 m-4.900054335594177, -4.1854628920555115 l0.40833786129951477, -3.266702890396118 m0.10208446532487869, -0.20416893064975739 l2.347942590713501, -0.20416893064975739 0.6125067919492722, -1.1229290813207626 l-0.5104223266243935, -0.40833786129951477 -3.7771251797676086, 0.0 l-1.4291824400424957, 0.5104223266243935 -0.5104223266243935, 0.6125067919492722 l0.0, 0.5104223266243935 1.1229290813207626, 0.7145912200212479 l3.0625340342521667, -1.020844653248787 " fill="none" stroke="black" stroke-width="1" /></svg>