<?xml version="1.0" encoding="utf-8" ?>
<svg baseProfile="full" height="45.525394044816494" version="1.1" width="56.44842941313982" xmlns="http://www.w3.org/2000/svg" xmlns:ev="http://www.w3.org/2001/xml-events" xmlns:xlink="http://www.w3.org/1999/xlink"><defs /><rect fill="white" height="45.525394044816494" width="56.44842941313982" x="0" y="0" /><path d="M11.941743418574333, 37.97328229993582 m-0.40833786129951477, 0.20416893064975739 l-1.633351445198059, -0.10208446532487869 -2.347942590713501, -1.1229290813207626 l-1.8375203013420105, -2.1437737345695496 -0.7145912200212479, -1.7354358732700348 l0.0, -1.020844653248787 1.633351445198059, -4.695885181427002 l1.633351445198059, -2.4500271677970886 2.8583648800849915, -2.347942590713501 l2.347942590713501, -0.8166757225990295 1.5312670171260834, -0.3062533959746361 l2.65419602394104, 0.6125067919492722 2.5521114468574524, 2.4500271677970886 l1.2250135838985443, 1.9396047294139862 1.020844653248787, 3.0625340342521667 l0.3062533959746361, 2.2458581626415253 0.0, 2.347942590713501 l-0.8166757225990295, 1.8375203013420105 -1.2250135838985443, 1.5312670171260834 l-3.0625340342521667, 2.2458581626415253 -2.960449457168579, 0.8166757225990295 l-4.083378612995148, 0.0 -1.633351445198059, -0.7145912200212479 l-0.5104223266243935, -1.020844653248787 m33.07536602020264, -0.40833786129951477 l-1.633351445198059, 1.020844653248787 -1.32709801197052, -0.40833786129951477 l-2.2458581626415253, -1.4291824400424957 -2.2458581626415253, -3.266702890396118 l-0.8166757225990295, -2.4500271677970886 -0.10208446532487869, -1.32709801197052 l0.20416893064975739, -2.5521114468574524 0.8166757225990295, -1.9396047294139862 l0.8166757225990295, -1.020844653248787 2.041689306497574, -1.5312670171260834 l1.2250135838985443, -0.40833786129951477 1.5312670171260834, -0.3062533959746361 l1.633351445198059, 0.0 3.266702890396118, 0.8166757225990295 l1.32709801197052, 0.7145912200212479 1.5312670171260834, 1.633351445198059 l0.6125067919492722, 1.2250135838985443 0.40833786129951477, 2.1437737345695496 l0.0, 3.8792094588279724 -0.3062533959746361, 1.2250135838985443 l-1.2250135838985443, 2.4500271677970886 -1.32709801197052, 1.32709801197052 l-0.9187601506710052, 0.40833786129951477 -3.368787169456482, 0.20416893064975739 l-2.347942590713501, -0.40833786129951477 -0.9187601506710052, -0.5104223266243935 m-21.437737941741943, -16.63976788520813 l5.614645481109619, -6.941743493080139 1.633351445198059, -0.40833786129951477 l3.7771251797676086, 0.0 4.4917163252830505, -0.7145912200212479 l1.2250135838985443, 0.3062533959746361 1.4291824400424957, 1.1229290813207626 l2.347942590713501, 3.1646183133125305 2.4500271677970886, 5.002138614654541 m-5.818814635276794, -10.106362104415894 l3.368787169456482, -0.3062533959746361 5.410476326942444, 0.40833786129951477 l1.9396047294139862, -0.3062533959746361 1.7354358732700348, -0.8166757225990295 l0.40833786129951477, -0.3062533959746361 0.40833786129951477, -1.2250135838985443 l0.0, -4.593800902366638 m-0.3062533959746361, 0.40833786129951477 l-7.1459126472473145, 0.10208446532487869 m6.533405780792236, -0.3062533959746361 l0.40833786129951477, 0.10208446532487869 4.79796975851059, -0.8166757225990295 m-37.362914085388184, 26.439876556396484 l0.40833786129951477, -7.656334638595581 0.40833786129951477, -2.65419602394104 m-0.3062533959746361, 11.02512240409851 l-0.40833786129951477, 7.4521660804748535 m0.6125067919492722, -7.554250359535217 l-3.7771251797676086, 0.20416893064975739 -4.083378612995148, -0.20416893064975739 m7.4521660804748535, 0.6125067919492722 l2.7562806010246277, -1.7354358732700348 5.206307768821716, -1.4291824400424957 m-8.26884150505066, 2.7562806010246277 l3.266702890396118, -4.79796975851059 2.347942590713501, -2.8583648800849915 m-5.716729760169983, 8.677179217338562 l-2.2458581626415253, 1.7354358732700348 -1.633351445198059, 2.8583648800849915 m4.4917163252830505, -6.1250680685043335 l-2.1437737345695496, -1.7354358732700348 -3.0625340342521667, -3.98129403591156 " fill="none" stroke="black" stroke-width="1" /></svg>