<?xml version="1.0" encoding="utf-8" ?>
<svg baseProfile="full" height="29.191878773272038" version="1.1" width="34.806524217128754" xmlns="http://www.w3.org/2000/svg" xmlns:ev="http://www.w3.org/2001/xml-events" xmlns:xlink="http://www.w3.org/1999/xlink"><defs /><rect fill="white" height="29.191878773272038" width="34.806524217128754" x="0" y="0" /><path d="M9.2875474691391, 16.025121696293354 m-2.1437737345695496, -0.3062533959746361 l-1.020844653248787, 0.5104223266243935 -0.7145912200212479, 1.020844653248787 l-0.40833786129951477, 1.7354358732700348 0.0, 3.1646183133125305 l1.1229290813207626, 1.2250135838985443 0.8166757225990295, 0.40833786129951477 l4.083378612995148, 0.40833786129951477 1.020844653248787, -0.5104223266243935 l1.4291824400424957, -2.041689306497574 0.20416893064975739, -2.5521114468574524 l-1.020844653248787, -1.4291824400424957 -1.633351445198059, -1.1229290813207626 l-2.4500271677970886, -0.40833786129951477 m17.354358434677124, -1.633351445198059 l-0.9187601506710052, -0.3062533959746361 -2.65419602394104, 0.10208446532487869 l-0.6125067919492722, 0.5104223266243935 -0.8166757225990295, 1.633351445198059 l0.0, 3.7771251797676086 2.65419602394104, 1.7354358732700348 l3.4708717465400696, 0.3062533959746361 1.7354358732700348, -1.2250135838985443 l1.020844653248787, -2.2458581626415253 -0.20416893064975739, -2.65419602394104 l-1.020844653248787, -1.1229290813207626 -2.041689306497574, -1.020844653248787 l-1.9396047294139862, 0.10208446532487869 m-15.414754152297974, 5.104222893714905 l-0.3062533959746361, -0.5104223266243935 1.4291824400424957, -5.410476326942444 l0.7145912200212479, -2.2458581626415253 0.40833786129951477, -0.10208446532487869 m0.10208446532487869, -0.10208446532487869 l-0.7145912200212479, -0.9187601506710052 -0.6125067919492722, 0.0 l-1.9396047294139862, -0.9187601506710052 -1.32709801197052, -1.1229290813207626 m5.104222893714905, 2.1437737345695496 l-0.20416893064975739, -2.5521114468574524 0.3062533959746361, -2.4500271677970886 l0.3062533959746361, 0.0 m-0.20416893064975739, 6.1250680685043335 l0.9187601506710052, 1.1229290813207626 3.98129403591156, 2.5521114468574524 l10.412615537643433, 0.0 " fill="none" stroke="black" stroke-width="1" /></svg>