<?xml version="1.0" encoding="utf-8" ?>
<svg baseProfile="full" height="50.11919308453798" version="1.1" width="85.84875665605068" xmlns="http://www.w3.org/2000/svg" xmlns:ev="http://www.w3.org/2001/xml-events" xmlns:xlink="http://www.w3.org/1999/xlink"><defs /><rect fill="white" height="50.11919308453798" width="85.84875665605068" x="0" y="0" /><path d="M10.512560978531837, 25.927314087748528 m-4.79796975851059, 1.1229290813207626 l-0.7145912200212479, 2.5521114468574524 0.0, 1.4291824400424957 l1.020844653248787, 4.79796975851059 0.8166757225990295, 1.5312670171260834 l3.4708717465400696, 3.0625340342521667 4.79796975851059, 3.675040602684021 l1.5312670171260834, 0.7145912200212479 5.716729760169983, 0.3062533959746361 l2.041689306497574, -1.4291824400424957 2.2458581626415253, -2.2458581626415253 l0.8166757225990295, -1.32709801197052 0.0, -1.32709801197052 l-0.20416893064975739, -2.8583648800849915 -0.8166757225990295, -2.7562806010246277 l-5.716729760169983, -7.860503792762756 -1.4291824400424957, -0.8166757225990295 l-3.98129403591156, -0.9187601506710052 -5.104222893714905, 0.9187601506710052 l-1.32709801197052, 0.40833786129951477 -0.9187601506710052, 0.7145912200212479 m55.227694511413574, 2.4500271677970886 l-1.633351445198059, 1.7354358732700348 -0.20416893064975739, 0.6125067919492722 l0.20416893064975739, 2.960449457168579 2.4500271677970886, 4.389632046222687 l2.65419602394104, 3.5729563236236572 2.041689306497574, 1.633351445198059 l3.266702890396118, 0.8166757225990295 2.65419602394104, -0.10208446532487869 l4.593800902366638, -2.2458581626415253 0.9187601506710052, -0.9187601506710052 l0.7145912200212479, -3.5729563236236572 -0.5104223266243935, -5.410476326942444 l-5.818814635276794, -2.2458581626415253 -8.473010659217834, -1.633351445198059 l-2.4500271677970886, 0.20416893064975739 -1.9396047294139862, 0.6125067919492722 l-4.695885181427002, 2.5521114468574524 -2.1437737345695496, 2.347942590713501 m-36.13790035247803, -8.677179217338562 l1.7354358732700348, -13.781402111053467 m0.0, 0.0 l-6.022983193397522, -3.4708717465400696 4.083378612995148, 1.633351445198059 l2.1437737345695496, 1.5312670171260834 1.2250135838985443, 1.32709801197052 l0.0, -1.1229290813207626 0.7145912200212479, -1.1229290813207626 l3.1646183133125305, -3.1646183133125305 0.8166757225990295, -1.5312670171260834 " fill="none" stroke="black" stroke-width="1" /></svg>