<?xml version="1.0" encoding="utf-8" ?>
<svg baseProfile="full" height="53.7942336127162" version="1.1" width="81.66329365223646" xmlns="http://www.w3.org/2000/svg" xmlns:ev="http://www.w3.org/2001/xml-events" xmlns:xlink="http://www.w3.org/1999/xlink"><defs /><rect fill="white" height="53.7942336127162" width="81.66329365223646" x="0" y="0" /><path d="M15.412615351378918, 18.373063877224922 m-5.206307768821716, 2.2458581626415253 l-1.9396047294139862, 1.9396047294139862 -1.5312670171260834, 2.8583648800849915 l-1.4291824400424957, 4.79796975851059 -0.3062533959746361, 2.347942590713501 l0.10208446532487869, 4.79796975851059 1.4291824400424957, 4.287547469139099 l1.7354358732700348, 2.4500271677970886 1.8375203013420105, 1.7354358732700348 l5.104222893714905, 1.9396047294139862 3.7771251797676086, 0.9187601506710052 l6.329236626625061, 0.10208446532487869 1.7354358732700348, -0.7145912200212479 l1.4291824400424957, -1.4291824400424957 1.1229290813207626, -2.347942590713501 l0.9187601506710052, -5.30839204788208 0.10208446532487869, -9.59593951702118 l-1.2250135838985443, -4.593800902366638 -1.5312670171260834, -3.98129403591156 l-2.7562806010246277, -5.002138614654541 -1.5312670171260834, -1.9396047294139862 l-1.020844653248787, -0.8166757225990295 -0.7145912200212479, 0.0 l-5.920898914337158, 3.266702890396118 -2.2458581626415253, 1.5312670171260834 l-0.8166757225990295, 1.020844653248787 0.0, 1.5312670171260834 l1.1229290813207626, 2.1437737345695496 m54.411020278930664, -4.1854628920555115 l-2.8583648800849915, -1.1229290813207626 -3.0625340342521667, 0.0 l-2.960449457168579, 2.041689306497574 -2.041689306497574, 2.1437737345695496 l-1.7354358732700348, 2.5521114468574524 -1.9396047294139862, 3.7771251797676086 l-1.2250135838985443, 4.79796975851059 0.10208446532487869, 3.98129403591156 l0.40833786129951477, 1.8375203013420105 1.1229290813207626, 2.4500271677970886 l1.32709801197052, 1.7354358732700348 0.3062533959746361, 1.020844653248787 l1.633351445198059, 1.5312670171260834 3.4708717465400696, 1.633351445198059 l5.716729760169983, 1.7354358732700348 4.287547469139099, 0.0 l2.960449457168579, -1.1229290813207626 1.5312670171260834, -1.2250135838985443 l1.1229290813207626, -2.5521114468574524 0.10208446532487869, -8.064672350883484 l-0.8166757225990295, -3.266702890396118 -1.020844653248787, -2.4500271677970886 l-2.8583648800849915, -4.79796975851059 -2.2458581626415253, -2.1437737345695496 l-2.8583648800849915, -1.9396047294139862 -2.8583648800849915, -0.8166757225990295 l-6.1250680685043335, 0.0 m-27.766973972320557, 5.920898914337158 l1.5312670171260834, -0.7145912200212479 5.818814635276794, 0.0 l4.900054335594177, 1.020844653248787 3.98129403591156, 1.4291824400424957 l7.860503792762756, 0.20416893064975739 m-5.920898914337158, -0.10208446532487869 l4.695885181427002, -8.166757225990295 2.1437737345695496, -5.104222893714905 l0.40833786129951477, -1.7354358732700348 m0.0, 0.0 l-0.20416893064975739, -0.6125067919492722 -3.675040602684021, -3.0625340342521667 l-6.6354900598526, -4.1854628920555115 8.881348371505737, 5.206307768821716 l2.65419602394104, 2.2458581626415253 5.002138614654541, 2.4500271677970886 " fill="none" stroke="black" stroke-width="1" /></svg>