<?xml version="1.0" encoding="utf-8" ?>
<svg baseProfile="full" height="43.789957612752914" version="1.1" width="52.05879960209131" xmlns="http://www.w3.org/2000/svg" xmlns:ev="http://www.w3.org/2001/xml-events" xmlns:xlink="http://www.w3.org/1999/xlink"><defs /><rect fill="white" height="43.789957612752914" width="52.05879960209131" x="0" y="0" /><path d="M38.07536717504263, 26.02939985692501 m2.960449457168579, -2.65419602394104 l2.2458581626415253, -0.6125067919492722 1.5312670171260834, 0.7145912200212479 l1.2250135838985443, 1.9396047294139862 0.7145912200212479, 3.0625340342521667 l0.0, 2.041689306497574 -0.40833786129951477, 1.9396047294139862 l-1.1229290813207626, 2.1437737345695496 -1.32709801197052, 1.020844653248787 l-1.633351445198059, 0.6125067919492722 -3.0625340342521667, 0.10208446532487869 l-2.5521114468574524, -1.1229290813207626 -1.020844653248787, -1.5312670171260834 l-0.10208446532487869, -2.1437737345695496 1.32709801197052, -4.083378612995148 l1.7354358732700348, -2.4500271677970886 1.633351445198059, -1.1229290813207626 l0.8166757225990295, -0.20416893064975739 1.4291824400424957, 0.10208446532487869 l1.020844653248787, 0.9187601506710052 m-35.72956323623657, 4.695885181427002 l2.7562806010246277, -1.9396047294139862 1.7354358732700348, -0.40833786129951477 l1.633351445198059, 0.7145912200212479 1.1229290813207626, 1.9396047294139862 l0.3062533959746361, 2.4500271677970886 -0.8166757225990295, 3.266702890396118 l-0.7145912200212479, 1.2250135838985443 -1.4291824400424957, 1.32709801197052 l-1.5312670171260834, 0.6125067919492722 -1.633351445198059, 0.20416893064975739 l-1.5312670171260834, -0.3062533959746361 -1.020844653248787, -0.40833786129951477 l-0.7145912200212479, -0.7145912200212479 -0.8166757225990295, -1.5312670171260834 l-0.10208446532487869, -3.368787169456482 1.020844653248787, -2.7562806010246277 l1.1229290813207626, -1.7354358732700348 1.32709801197052, -1.020844653248787 l1.4291824400424957, -0.3062533959746361 3.5729563236236572, 0.8166757225990295 m26.133623123168945, -3.8792094588279724 l-2.1437737345695496, -0.10208446532487869 -3.98129403591156, 1.32709801197052 l-12.250136137008667, 1.2250135838985443 -3.8792094588279724, 1.020844653248787 l-3.368787169456482, 0.0 -1.020844653248787, -0.40833786129951477 l-0.5104223266243935, 0.20416893064975739 -1.2250135838985443, -0.7145912200212479 m8.983432650566101, -2.5521114468574524 l3.0625340342521667, -1.7354358732700348 3.98129403591156, 0.0 l1.633351445198059, 0.3062533959746361 1.4291824400424957, 0.7145912200212479 l1.9396047294139862, 1.9396047294139862 0.10208446532487869, 1.7354358732700348 l-1.2250135838985443, 1.8375203013420105 -1.9396047294139862, 1.2250135838985443 l-5.002138614654541, 1.633351445198059 -2.8583648800849915, 0.20416893064975739 l-2.347942590713501, -0.6125067919492722 -1.1229290813207626, -0.9187601506710052 l-0.7145912200212479, -2.041689306497574 0.20416893064975739, -1.4291824400424957 l0.6125067919492722, -1.2250135838985443 0.9187601506710052, -0.9187601506710052 l5.206307768821716, -1.5312670171260834 m11.535544395446777, 0.8166757225990295 l1.32709801197052, -9.085517525672913 -0.10208446532487869, -4.593800902366638 l2.1437737345695496, 0.9187601506710052 2.8583648800849915, 1.8375203013420105 l5.206307768821716, 4.083378612995148 -8.473010659217834, -6.839659214019775 l-2.7562806010246277, -1.020844653248787 -5.30839204788208, -3.1646183133125305 l-1.8375203013420105, -0.7145912200212479 " fill="none" stroke="black" stroke-width="1" /></svg>