<?xml version="1.0" encoding="utf-8" ?>
<svg baseProfile="full" height="36.43987584859133" version="1.1" width="39.60449371486902" xmlns="http://www.w3.org/2000/svg" xmlns:ev="http://www.w3.org/2001/xml-events" xmlns:xlink="http://www.w3.org/1999/xlink"><defs /><rect fill="white" height="36.43987584859133" width="39.60449371486902" x="0" y="0" /><path d="M8.266702890396118, 13.575094491243362 m-1.7354358732700348, 2.5521114468574524 l-1.5312670171260834, 4.4917163252830505 0.20416893064975739, 1.4291824400424957 l2.347942590713501, 2.8583648800849915 5.104222893714905, 3.0625340342521667 l1.1229290813207626, -0.7145912200212479 0.5104223266243935, -1.5312670171260834 l-0.5104223266243935, -8.370925784111023 -0.7145912200212479, -1.4291824400424957 l-2.5521114468574524, -1.9396047294139862 -2.1437737345695496, 0.20416893064975739 m-0.10208446532487869, 0.20416893064975739 l-0.20416893064975739, 0.10208446532487869 m19.089794158935547, 5.206307768821716 l-2.1437737345695496, 0.40833786129951477 -2.7562806010246277, 2.65419602394104 l-0.40833786129951477, 1.32709801197052 0.20416893064975739, 2.65419602394104 l0.6125067919492722, 1.2250135838985443 0.9187601506710052, 0.8166757225990295 l5.512561202049255, 2.041689306497574 2.960449457168579, 0.6125067919492722 l1.4291824400424957, -0.3062533959746361 0.7145912200212479, -0.8166757225990295 l0.40833786129951477, -2.1437737345695496 -0.20416893064975739, -1.1229290813207626 l-5.104222893714905, -7.350081205368042 -0.5104223266243935, -0.40833786129951477 l-0.6125067919492722, 0.40833786129951477 m-2.041689306497574, -0.5104223266243935 l-6.1250680685043335, -1.4291824400424957 -5.512561202049255, -2.5521114468574524 l-3.675040602684021, 0.10208446532487869 0.6125067919492722, -0.8166757225990295 m8.26884150505066, 2.8583648800849915 l0.6125067919492722, -2.8583648800849915 0.5104223266243935, -0.6125067919492722 l0.7145912200212479, -0.20416893064975739 0.0, 3.7771251797676086 m-5.716729760169983, -2.960449457168579 l-0.7145912200212479, -5.206307768821716 -1.2250135838985443, -2.2458581626415253 l-5.104222893714905, -0.6125067919492722 3.0625340342521667, -1.2250135838985443 l6.227152347564697, -0.20416893064975739 2.7562806010246277, 0.10208446532487869 l3.5729563236236572, 1.1229290813207626 0.10208446532487869, 0.40833786129951477 m2.5521114468574524, 14.189740419387817 l0.6125067919492722, -0.7145912200212479 0.9187601506710052, 2.960449457168579 l0.6125067919492722, 5.104222893714905 m-6.431320905685425, -3.266702890396118 l7.860503792762756, 1.5312670171260834 m-19.702301025390625, -12.148051261901855 l-0.7145912200212479, 2.5521114468574524 -0.10208446532487869, 6.941743493080139 m-2.5521114468574524, -4.79796975851059 l2.5521114468574524, 0.6125067919492722 7.656334638595581, 0.9187601506710052 " fill="none" stroke="black" stroke-width="1" /></svg>