<?xml version="1.0" encoding="utf-8" ?>
<svg baseProfile="full" height="40.2170005813241" version="1.1" width="61.960992366075516" xmlns="http://www.w3.org/2000/svg" xmlns:ev="http://www.w3.org/2001/xml-events" xmlns:xlink="http://www.w3.org/1999/xlink"><defs /><rect fill="white" height="40.2170005813241" width="61.960992366075516" x="0" y="0" /><path d="M19.2918249219656, 19.700162149965763 m-1.633351445198059, -3.0625340342521667 l-2.4500271677970886, -1.1229290813207626 -6.329236626625061, 0.40833786129951477 l-1.633351445198059, 1.020844653248787 -1.5312670171260834, 2.347942590713501 l-0.7145912200212479, 2.5521114468574524 0.10208446532487869, 6.533405780792236 l0.3062533959746361, 1.5312670171260834 0.7145912200212479, 1.32709801197052 l2.2458581626415253, 2.65419602394104 1.7354358732700348, 1.1229290813207626 l1.32709801197052, 0.0 4.1854628920555115, -1.4291824400424957 l2.1437737345695496, -0.8166757225990295 1.1229290813207626, -1.020844653248787 l0.40833786129951477, -1.2250135838985443 0.0, -7.96258807182312 l-0.40833786129951477, -2.1437737345695496 -1.4291824400424957, -3.98129403591156 m36.03581666946411, 2.5521114468574524 l-0.20416893064975739, -0.5104223266243935 -3.4708717465400696, 0.10208446532487869 l-5.512561202049255, 1.32709801197052 -1.7354358732700348, 1.4291824400424957 l-1.1229290813207626, 1.5312670171260834 -1.4291824400424957, 3.7771251797676086 l0.0, 3.7771251797676086 3.1646183133125305, 2.7562806010246277 l4.695885181427002, 2.041689306497574 2.347942590713501, 0.0 l0.9187601506710052, -0.40833786129951477 2.8583648800849915, -3.368787169456482 l2.960449457168579, -5.002138614654541 0.0, -11.127206087112427 l-0.8166757225990295, -1.32709801197052 -1.633351445198059, -1.020844653248787 l-1.32709801197052, -0.20416893064975739 -3.98129403591156, 1.5312670171260834 l-1.5312670171260834, 1.020844653248787 m-29.502410888671875, 1.2250135838985443 l1.32709801197052, 0.40833786129951477 4.389632046222687, 0.10208446532487869 l4.593800902366638, 0.6125067919492722 10.61678409576416, 0.3062533959746361 l7.1459126472473145, 1.8375203013420105 m-1.020844653248787, -1.633351445198059 l-1.4291824400424957, -1.1229290813207626 -3.8792094588279724, -1.633351445198059 l-7.247996926307678, -2.1437737345695496 -2.2458581626415253, -0.3062533959746361 l-1.32709801197052, -1.020844653248787 -2.65419602394104, -1.2250135838985443 l-4.083378612995148, -1.2250135838985443 -0.3062533959746361, -0.5104223266243935 l-2.347942590713501, -1.5312670171260834 -0.10208446532487869, -0.5104223266243935 l-1.7354358732700348, -1.9396047294139862 -0.3062533959746361, 0.5104223266243935 l0.0, 11.739712953567505 " fill="none" stroke="black" stroke-width="1" /></svg>