<?xml version="1.0" encoding="utf-8" ?>
<svg baseProfile="full" height="50.22127911448479" version="1.1" width="76.15073170512915" xmlns="http://www.w3.org/2000/svg" xmlns:ev="http://www.w3.org/2001/xml-events" xmlns:xlink="http://www.w3.org/1999/xlink"><defs /><rect fill="white" height="50.22127911448479" width="76.15073170512915" x="0" y="0" /><path d="M57.57349882274866, 24.49813313782215 m-3.1646183133125305, 0.3062533959746361 l-4.900054335594177, 2.041689306497574 -6.329236626625061, 5.002138614654541 l-1.7354358732700348, 2.4500271677970886 -0.6125067919492722, 2.041689306497574 l0.10208446532487869, 2.041689306497574 1.4291824400424957, 1.9396047294139862 l3.4708717465400696, 2.65419602394104 2.960449457168579, 1.9396047294139862 l2.65419602394104, 0.3062533959746361 2.1437737345695496, -0.40833786129951477 l0.7145912200212479, -0.6125067919492722 0.10208446532487869, -1.4291824400424957 l-0.5104223266243935, -3.98129403591156 0.20416893064975739, -11.943882703781128 l-0.7145912200212479, -5.512561202049255 m-46.44843101501465, 3.7771251797676086 l-0.8166757225990295, 0.7145912200212479 -1.1229290813207626, 2.4500271677970886 l0.10208446532487869, 3.0625340342521667 2.2458581626415253, 3.98129403591156 l1.32709801197052, 2.8583648800849915 0.0, 0.8166757225990295 l1.8375203013420105, 0.7145912200212479 3.4708717465400696, -0.6125067919492722 l7.1459126472473145, -3.4708717465400696 2.8583648800849915, -2.1437737345695496 l1.8375203013420105, -2.041689306497574 0.9187601506710052, -1.5312670171260834 l0.10208446532487869, -1.32709801197052 -0.6125067919492722, -1.32709801197052 l-1.1229290813207626, -1.32709801197052 -4.4917163252830505, -2.8583648800849915 l-4.083378612995148, -1.7354358732700348 m-9.493855237960815, 4.4917163252830505 l2.8583648800849915, -1.2250135838985443 2.65419602394104, -0.7145912200212479 l9.085517525672913, 0.20416893064975739 7.350081205368042, -1.8375203013420105 l3.7771251797676086, -1.9396047294139862 3.0625340342521667, -2.041689306497574 l5.818814635276794, -5.206307768821716 1.5312670171260834, 3.4708717465400696 l1.4291824400424957, 1.32709801197052 5.002138614654541, 1.7354358732700348 l10.20844578742981, 2.2458581626415253 3.368787169456482, 1.020844653248787 l0.7145912200212479, -1.633351445198059 -1.1229290813207626, -1.8375203013420105 l-0.20416893064975739, -2.041689306497574 -2.5521114468574524, -7.96258807182312 l-0.10208446532487869, -1.32709801197052 0.9187601506710052, -2.347942590713501 l10.310530662536621, -0.7145912200212479 -3.4708717465400696, 0.3062533959746361 l-1.8375203013420105, 0.5104223266243935 " fill="none" stroke="black" stroke-width="1" /></svg>