<?xml version="1.0" encoding="utf-8" ?>
<svg baseProfile="full" height="55.93800846487284" version="1.1" width="68.49440019577742" xmlns="http://www.w3.org/2000/svg" xmlns:ev="http://www.w3.org/2001/xml-events" xmlns:xlink="http://www.w3.org/1999/xlink"><defs /><rect fill="white" height="55.93800846487284" width="68.49440019577742" x="0" y="0" /><path d="M17.454304434359074, 33.07322759181261 m-0.8166757225990295, -0.6125067919492722 l-2.7562806010246277, 0.0 -4.389632046222687, 0.8166757225990295 l-0.6125067919492722, 0.3062533959746361 -0.9187601506710052, 1.2250135838985443 l-1.1229290813207626, 2.5521114468574524 -0.6125067919492722, 2.960449457168579 l0.40833786129951477, 5.206307768821716 1.1229290813207626, 2.5521114468574524 l3.266702890396118, 2.5521114468574524 1.8375203013420105, 0.3062533959746361 l2.7562806010246277, -0.20416893064975739 4.900054335594177, -1.2250135838985443 l2.2458581626415253, -1.1229290813207626 1.2250135838985443, -0.9187601506710052 l1.4291824400424957, -1.7354358732700348 1.4291824400424957, -4.900054335594177 l0.10208446532487869, -3.675040602684021 -0.5104223266243935, -1.5312670171260834 l-1.5312670171260834, -1.4291824400424957 -2.65419602394104, -1.5312670171260834 l-3.0625340342521667, -0.7145912200212479 -3.7771251797676086, -0.20416893064975739 l-2.2458581626415253, 0.5104223266243935 m3.266702890396118, 8.983432650566101 l-1.020844653248787, -0.3062533959746361 -0.20416893064975739, 0.5104223266243935 l0.5104223266243935, -1.020844653248787 0.40833786129951477, 0.0 m0.5104223266243935, 0.0 l0.3062533959746361, -0.5104223266243935 0.20416893064975739, -2.2458581626415253 l1.8375203013420105, -3.0625340342521667 1.8375203013420105, -1.32709801197052 l0.5104223266243935, -0.20416893064975739 0.20416893064975739, 0.5104223266243935 m-6.227152347564697, 7.554250359535217 l9.902192950248718, -0.10208446532487869 m-9.391770362854004, 1.020844653248787 l-0.5104223266243935, 2.4500271677970886 -0.9187601506710052, 2.2458581626415253 l-0.6125067919492722, 0.7145912200212479 m0.40833786129951477, -7.656334638595581 l-2.4500271677970886, 1.2250135838985443 -6.737574338912964, 1.8375203013420105 m5.818814635276794, -8.677179217338562 l4.900054335594177, 6.431320905685425 0.40833786129951477, 0.10208446532487869 m0.6125067919492722, -8.983432650566101 l0.0, -5.716729760169983 -1.020844653248787, -6.1250680685043335 l-0.3062533959746361, -4.287547469139099 0.0, -4.695885181427002 l0.6125067919492722, -4.695885181427002 m-3.7771251797676086, 0.8166757225990295 l-0.20416893064975739, -0.5104223266243935 2.2458581626415253, -0.5104223266243935 l10.412615537643433, -1.020844653248787 m-10.20844578742981, 17.762696743011475 l11.535544395446777, 0.6125067919492722 22.96900510787964, 0.10208446532487869 l4.900054335594177, 0.9187601506710052 0.3062533959746361, 1.1229290813207626 l0.5104223266243935, 10.514699220657349 m0.0, 0.0 l-1.1229290813207626, -0.9187601506710052 -2.041689306497574, -0.3062533959746361 l-3.8792094588279724, 0.0 -2.4500271677970886, 0.9187601506710052 l-2.1437737345695496, 2.041689306497574 -0.7145912200212479, 1.4291824400424957 l-0.10208446532487869, 4.1854628920555115 0.5104223266243935, 0.9187601506710052 l1.4291824400424957, 1.32709801197052 4.083378612995148, 1.8375203013420105 l4.083378612995148, 1.2250135838985443 6.533405780792236, 0.10208446532487869 l1.8375203013420105, -1.2250135838985443 1.1229290813207626, -2.347942590713501 l0.5104223266243935, -3.0625340342521667 -0.20416893064975739, -3.0625340342521667 l-1.32709801197052, -1.2250135838985443 -2.347942590713501, -0.8166757225990295 l-2.2458581626415253, -0.3062533959746361 -6.1250680685043335, 0.0 m1.7354358732700348, -1.9396047294139862 l1.1229290813207626, 6.022983193397522 -0.10208446532487869, 3.4708717465400696 l-0.3062533959746361, 0.6125067919492722 -0.5104223266243935, 0.10208446532487869 l-2.1437737345695496, -0.9187601506710052 m-6.431320905685425, -4.4917163252830505 l5.410476326942444, 0.5104223266243935 14.598078727722168, 0.0 m-5.104222893714905, -0.8166757225990295 l-11.637629270553589, 0.9187601506710052 " fill="none" stroke="black" stroke-width="1" /></svg>