<?xml version="1.0" encoding="utf-8" ?>
<svg baseProfile="full" height="54.40674055367708" version="1.1" width="80.0299422442913" xmlns="http://www.w3.org/2000/svg" xmlns:ev="http://www.w3.org/2001/xml-events" xmlns:xlink="http://www.w3.org/1999/xlink"><defs /><rect fill="white" height="54.40674055367708" width="80.0299422442913" x="0" y="0" /><path d="M20.823091715574265, 28.479425348341465 m-0.6125067919492722, 0.0 l-2.65419602394104, -2.1437737345695496 -1.9396047294139862, -0.8166757225990295 l-5.920898914337158, -0.20416893064975739 -0.7145912200212479, 0.5104223266243935 l-1.2250135838985443, 1.8375203013420105 -1.8375203013420105, 3.675040602684021 l-0.9187601506710052, 4.287547469139099 0.10208446532487869, 3.0625340342521667 l2.041689306497574, 3.0625340342521667 2.2458581626415253, 2.1437737345695496 l3.266702890396118, 2.4500271677970886 5.002138614654541, 2.960449457168579 l1.9396047294139862, 0.10208446532487869 0.6125067919492722, -0.3062533959746361 l3.5729563236236572, -3.8792094588279724 0.3062533959746361, -5.716729760169983 l0.0, -8.881348371505737 -0.3062533959746361, -2.4500271677970886 l-1.8375203013420105, -2.8583648800849915 -0.6125067919492722, -0.40833786129951477 l-1.1229290813207626, 0.0 m-3.4708717465400696, 3.4708717465400696 l-1.4291824400424957, 3.266702890396118 -0.8166757225990295, 5.818814635276794 l-2.4500271677970886, 7.860503792762756 m-1.32709801197052, -11.739712953567505 l6.1250680685043335, 0.0 6.227152347564697, 0.8166757225990295 l0.9187601506710052, 0.8166757225990295 m-8.473010659217834, -7.758418917655945 l0.0, 5.716729760169983 -0.8166757225990295, 1.020844653248787 l-0.5104223266243935, 0.10208446532487869 5.716729760169983, 7.554250359535217 l0.9187601506710052, 0.40833786129951477 m-13.2709801197052, -5.30839204788208 l0.10208446532487869, 0.5104223266243935 1.8375203013420105, 0.10208446532487869 l9.391770362854004, -2.65419602394104 6.941743493080139, -3.266702890396118 l1.1229290813207626, -0.9187601506710052 0.7145912200212479, -1.32709801197052 m-4.083378612995148, 7.043827772140503 l27.3586368560791, 0.3062533959746361 0.5104223266243935, 3.266702890396118 l0.9187601506710052, 1.8375203013420105 1.020844653248787, 1.1229290813207626 l1.633351445198059, 0.3062533959746361 10.9230375289917, -0.10208446532487869 l2.4500271677970886, -1.5312670171260834 0.9187601506710052, -1.5312670171260834 l1.020844653248787, -3.675040602684021 -0.10208446532487869, -3.1646183133125305 l-2.041689306497574, -4.4917163252830505 -0.6125067919492722, -1.020844653248787 l-0.5104223266243935, -0.20416893064975739 -5.206307768821716, 0.20416893064975739 l-6.941743493080139, 1.9396047294139862 -3.1646183133125305, 1.5312670171260834 l-1.5312670171260834, 4.900054335594177 0.0, 3.266702890396118 l0.3062533959746361, 0.5104223266243935 m0.5104223266243935, -2.347942590713501 l11.637629270553589, 0.0 12.352219820022583, -1.32709801197052 m-13.883486986160278, -3.98129403591156 l0.10208446532487869, 13.066811561584473 m-8.166757225990295, -4.389632046222687 l2.960449457168579, -0.8166757225990295 10.9230375289917, -5.30839204788208 l4.900054335594177, -3.1646183133125305 1.2250135838985443, -1.1229290813207626 l0.8166757225990295, -2.041689306497574 m-18.98771047592163, 1.4291824400424957 l0.10208446532487869, 0.8166757225990295 2.5521114468574524, 2.5521114468574524 l1.2250135838985443, 1.7354358732700348 2.8583648800849915, 4.79796975851059 l2.347942590713501, 3.1646183133125305 0.8166757225990295, 1.9396047294139862 m-42.97755718231201, -17.558528184890747 l6.431320905685425, -4.287547469139099 5.104222893714905, -4.4917163252830505 l2.2458581626415253, -2.960449457168579 1.633351445198059, -1.4291824400424957 l4.695885181427002, 0.20416893064975739 0.5104223266243935, 1.1229290813207626 l0.40833786129951477, 2.347942590713501 1.020844653248787, 1.633351445198059 l3.4708717465400696, 2.8583648800849915 1.7354358732700348, 2.1437737345695496 l2.8583648800849915, 0.9187601506710052 2.4500271677970886, 1.32709801197052 l-1.5312670171260834, 0.40833786129951477 m-31.85035228729248, -17.966865301132202 l3.98129403591156, 0.0 1.32709801197052, 0.3062533959746361 l5.920898914337158, 2.347942590713501 8.064672350883484, 2.347942590713501 l8.677179217338562, 3.1646183133125305 3.368787169456482, 0.20416893064975739 l2.1437737345695496, -0.8166757225990295 2.347942590713501, -4.1854628920555115 l2.347942590713501, -2.8583648800849915 3.7771251797676086, -2.7562806010246277 l3.675040602684021, -1.9396047294139862 " fill="none" stroke="black" stroke-width="1" /></svg>