<?xml version="1.0" encoding="utf-8" ?>
<svg baseProfile="full" height="30.927313715219498" version="1.1" width="38.073227517306805" xmlns="http://www.w3.org/2000/svg" xmlns:ev="http://www.w3.org/2001/xml-events" xmlns:xlink="http://www.w3.org/1999/xlink"><defs /><rect fill="white" height="30.927313715219498" width="38.073227517306805" x="0" y="0" /><path d="M6.735435724258423, 20.31266823410988 m1.020844653248787, -2.1437737345695496 l1.32709801197052, -1.633351445198059 1.020844653248787, -0.40833786129951477 l2.4500271677970886, 0.10208446532487869 0.7145912200212479, 0.3062533959746361 l2.65419602394104, 2.4500271677970886 0.7145912200212479, 2.1437737345695496 l0.10208446532487869, 2.2458581626415253 -0.7145912200212479, 1.32709801197052 l-0.8166757225990295, 0.6125067919492722 -1.9396047294139862, 0.6125067919492722 l-3.4708717465400696, 0.0 -2.7562806010246277, -1.1229290813207626 l-1.1229290813207626, -1.32709801197052 -0.20416893064975739, -1.5312670171260834 l0.0, -0.5104223266243935 1.32709801197052, -0.9187601506710052 m1.32709801197052, -3.368787169456482 l0.0, 0.5104223266243935 2.5521114468574524, 4.593800902366638 m-0.10208446532487869, 0.20416893064975739 l0.0, -3.1646183133125305 0.7145912200212479, -1.4291824400424957 m-1.5312670171260834, 4.083378612995148 l3.4708717465400696, -1.9396047294139862 m-1.8375203013420105, 1.5312670171260834 l4.389632046222687, 0.20416893064975739 1.633351445198059, 0.5104223266243935 m-5.920898914337158, -0.6125067919492722 l1.020844653248787, 0.3062533959746361 0.6125067919492722, 0.7145912200212479 l0.8166757225990295, 2.041689306497574 m-3.675040602684021, -2.2458581626415253 l0.10208446532487869, 1.1229290813207626 -0.5104223266243935, 1.5312670171260834 m-0.9187601506710052, -2.5521114468574524 l-4.1854628920555115, 1.5312670171260834 m10.20844578742981, -5.104222893714905 l1.5312670171260834, -1.9396047294139862 3.266702890396118, -7.96258807182312 l2.041689306497574, -3.675040602684021 0.6125067919492722, -0.40833786129951477 l1.020844653248787, 0.40833786129951477 2.2458581626415253, 5.002138614654541 l0.7145912200212479, 3.5729563236236572 2.4500271677970886, 6.6354900598526 l-1.1229290813207626, 0.3062533959746361 -5.002138614654541, 0.0 l-7.043827772140503, -1.2250135838985443 m11.229290962219238, 1.7354358732700348 l1.32709801197052, -0.9187601506710052 1.9396047294139862, -0.40833786129951477 l1.2250135838985443, 0.7145912200212479 0.8166757225990295, 1.1229290813207626 l0.20416893064975739, 1.9396047294139862 -0.7145912200212479, 0.6125067919492722 l-2.5521114468574524, 0.5104223266243935 -1.1229290813207626, -0.3062533959746361 l-0.8166757225990295, -1.020844653248787 -0.40833786129951477, -1.1229290813207626 l0.0, -1.2250135838985443 0.7145912200212479, -0.10208446532487869 l0.8166757225990295, 0.7145912200212479 m1.32709801197052, 1.32709801197052 l-0.6125067919492722, 0.0 -0.8166757225990295, -1.020844653248787 m2.041689306497574, -0.5104223266243935 l-0.10208446532487869, -0.8166757225990295 m1.1229290813207626, 1.8375203013420105 l1.5312670171260834, -0.8166757225990295 m-2.347942590713501, 1.32709801197052 l0.0, 0.6125067919492722 0.8166757225990295, 0.6125067919492722 m-2.65419602394104, -1.1229290813207626 l-1.32709801197052, 0.6125067919492722 " fill="none" stroke="black" stroke-width="1" /></svg>