<?xml version="1.0" encoding="utf-8" ?>
<svg baseProfile="full" height="31.641906276345253" version="1.1" width="54.406741708517075" xmlns="http://www.w3.org/2000/svg" xmlns:ev="http://www.w3.org/2001/xml-events" xmlns:xlink="http://www.w3.org/1999/xlink"><defs /><rect fill="white" height="31.641906276345253" width="54.406741708517075" x="0" y="0" /><path d="M12.758419401943684, 18.168895840644836 m-2.4500271677970886, -1.1229290813207626 l-2.1437737345695496, -2.5521114468574524 -1.633351445198059, -2.7562806010246277 l-0.5104223266243935, 0.10208446532487869 0.0, 0.5104223266243935 l0.8166757225990295, -1.020844653248787 1.4291824400424957, -0.9187601506710052 l2.8583648800849915, -0.7145912200212479 1.8375203013420105, 0.0 l3.5729563236236572, 3.368787169456482 2.347942590713501, 2.960449457168579 l0.40833786129951477, 1.2250135838985443 -0.20416893064975739, 1.020844653248787 l-1.8375203013420105, 2.960449457168579 -3.266702890396118, 3.368787169456482 l-2.347942590713501, 1.633351445198059 -2.65419602394104, 0.40833786129951477 l-2.4500271677970886, -1.4291824400424957 -0.9187601506710052, -1.020844653248787 l-0.6125067919492722, -1.32709801197052 0.10208446532487869, -2.1437737345695496 l0.6125067919492722, -1.4291824400424957 3.675040602684021, -5.614645481109619 m29.298241138458252, 0.7145912200212479 l-1.8375203013420105, 0.40833786129951477 -1.020844653248787, 0.7145912200212479 l-0.10208446532487869, 2.960449457168579 1.020844653248787, 3.7771251797676086 l0.8166757225990295, 1.020844653248787 0.6125067919492722, 0.10208446532487869 l2.347942590713501, 0.0 2.7562806010246277, -0.7145912200212479 l3.675040602684021, -2.960449457168579 2.041689306497574, -2.7562806010246277 l0.40833786129951477, -2.65419602394104 -1.020844653248787, -1.32709801197052 l-2.1437737345695496, -1.633351445198059 -1.2250135838985443, -0.40833786129951477 l-5.818814635276794, -0.10208446532487869 -2.960449457168579, 1.32709801197052 l-0.20416893064975739, 1.1229290813207626 1.020844653248787, 1.8375203013420105 m-19.702301025390625, 0.5104223266243935 l10.9230375289917, -3.1646183133125305 4.79796975851059, -0.8166757225990295 l1.633351445198059, 0.20416893064975739 m0.0, 0.0 l0.9187601506710052, -3.266702890396118 0.0, -2.65419602394104 m0.0, 0.0 l0.0, 0.0 m-0.10208446532487869, 0.3062533959746361 l-2.4500271677970886, -1.2250135838985443 m3.0625340342521667, 0.5104223266243935 l1.633351445198059, 0.20416893064975739 1.4291824400424957, 0.6125067919492722 m-16.435598134994507, 6.1250680685043335 l0.0, -2.65419602394104 4.1854628920555115, 0.8166757225990295 " fill="none" stroke="black" stroke-width="1" /></svg>