<?xml version="1.0" encoding="utf-8" ?>
<svg baseProfile="full" height="26.02726060897112" version="1.1" width="32.15232886373997" xmlns="http://www.w3.org/2000/svg" xmlns:ev="http://www.w3.org/2001/xml-events" xmlns:xlink="http://www.w3.org/1999/xlink"><defs /><rect fill="white" height="26.02726060897112" width="32.15232886373997" x="0" y="0" /><path d="M6.8375203013420105, 15.106361769139767 m-0.9187601506710052, 0.7145912200212479 l-0.9187601506710052, 2.2458581626415253 0.0, 1.020844653248787 l0.7145912200212479, 1.2250135838985443 1.8375203013420105, 0.7145912200212479 l1.020844653248787, -0.10208446532487869 2.1437737345695496, -1.5312670171260834 l0.9187601506710052, -2.65419602394104 -0.3062533959746361, -1.9396047294139862 l-1.2250135838985443, -1.020844653248787 -0.9187601506710052, -0.10208446532487869 l-1.32709801197052, 0.5104223266243935 m16.94602131843567, -0.3062533959746361 l-1.7354358732700348, 2.65419602394104 -0.5104223266243935, 2.041689306497574 l0.0, 0.5104223266243935 0.40833786129951477, 0.6125067919492722 l1.2250135838985443, 0.3062533959746361 1.32709801197052, -0.40833786129951477 l0.9187601506710052, -0.7145912200212479 0.7145912200212479, -1.633351445198059 l-0.20416893064975739, -1.5312670171260834 -0.9187601506710052, -1.4291824400424957 l-1.1229290813207626, -0.5104223266243935 -0.9187601506710052, 0.0 m-0.7145912200212479, 1.633351445198059 l-8.370925784111023, -2.2458581626415253 m-2.347942590713501, 2.041689306497574 l3.98129403591156, -1.7354358732700348 4.593800902366638, -1.4291824400424957 m3.1646183133125305, 1.9396047294139862 l0.0, -5.002138614654541 0.3062533959746361, -2.347942590713501 l-1.32709801197052, -0.20416893064975739 -1.7354358732700348, -1.1229290813207626 l2.65419602394104, 2.2458581626415253 0.6125067919492722, 0.0 l0.8166757225990295, -1.020844653248787 0.6125067919492722, -1.5312670171260834 m-2.65419602394104, 6.533405780792236 l-5.30839204788208, 0.8166757225990295 -1.9396047294139862, -0.40833786129951477 l-2.8583648800849915, -1.32709801197052 m2.7562806010246277, -0.7145912200212479 l-0.6125067919492722, -0.40833786129951477 -0.8166757225990295, 0.0 l-0.6125067919492722, 0.20416893064975739 0.20416893064975739, 0.6125067919492722 l1.2250135838985443, 0.3062533959746361 1.020844653248787, -0.40833786129951477 l0.20416893064975739, -0.40833786129951477 -0.20416893064975739, -0.40833786129951477 l-1.1229290813207626, -0.40833786129951477 -1.32709801197052, 0.40833786129951477 l-0.7145912200212479, 0.9187601506710052 1.2250135838985443, 0.5104223266243935 l1.1229290813207626, -0.10208446532487869 0.5104223266243935, -0.40833786129951477 l0.10208446532487869, -0.6125067919492722 -0.5104223266243935, -0.5104223266243935 l-1.1229290813207626, 0.0 " fill="none" stroke="black" stroke-width="1" /></svg>