<?xml version="1.0" encoding="utf-8" ?>
<svg baseProfile="full" height="60.327641032636166" version="1.1" width="108.20525337010622" xmlns="http://www.w3.org/2000/svg" xmlns:ev="http://www.w3.org/2001/xml-events" xmlns:xlink="http://www.w3.org/1999/xlink"><defs /><rect fill="white" height="60.327641032636166" width="108.20525337010622" x="0" y="0" /><path d="M35.82950755953789, 27.050244845449924 m1.1229290813207626, 0.6125067919492722 l0.20416893064975739, 0.5104223266243935 0.0, 3.7771251797676086 l-5.104222893714905, 8.983432650566101 -2.4500271677970886, 3.5729563236236572 l-2.5521114468574524, 2.041689306497574 -3.675040602684021, 1.7354358732700348 l-3.8792094588279724, 1.1229290813207626 -2.7562806010246277, 0.40833786129951477 l-3.675040602684021, -0.10208446532487869 -2.4500271677970886, -0.6125067919492722 l-2.7562806010246277, -1.32709801197052 -1.5312670171260834, -1.32709801197052 l-0.9187601506710052, -2.041689306497574 -0.40833786129951477, -2.347942590713501 l0.10208446532487869, -3.0625340342521667 0.6125067919492722, -1.32709801197052 l2.4500271677970886, -2.4500271677970886 5.920898914337158, -3.7771251797676086 l8.575094938278198, -3.1646183133125305 6.6354900598526, -1.020844653248787 m3.368787169456482, -0.5104223266243935 l16.94602131843567, -7.656334638595581 10.9230375289917, -4.1854628920555115 l1.633351445198059, -1.020844653248787 2.960449457168579, -1.1229290813207626 m0.6125067919492722, 0.0 l1.1229290813207626, 0.10208446532487869 5.30839204788208, 6.022983193397522 l4.79796975851059, 4.695885181427002 10.820952653884888, 7.96258807182312 l2.65419602394104, 1.633351445198059 m0.40833786129951477, -0.3062533959746361 l-1.5312670171260834, -0.40833786129951477 -6.6354900598526, 1.8375203013420105 l-3.368787169456482, 1.32709801197052 -0.7145912200212479, 1.9396047294139862 l0.0, 2.347942590713501 0.3062533959746361, 1.2250135838985443 l2.5521114468574524, 5.206307768821716 3.5729563236236572, 4.083378612995148 l3.675040602684021, 2.347942590713501 5.104222893714905, 2.041689306497574 l3.0625340342521667, 0.5104223266243935 2.4500271677970886, 0.0 l2.5521114468574524, -1.633351445198059 0.8166757225990295, -1.4291824400424957 l0.5104223266243935, -4.389632046222687 -0.40833786129951477, -3.675040602684021 l-2.1437737345695496, -2.960449457168579 -6.941743493080139, -3.8792094588279724 l-2.041689306497574, -0.8166757225990295 m-25.214862823486328, -23.275258541107178 l-1.1229290813207626, 0.3062533959746361 -2.5521114468574524, -0.20416893064975739 l-2.2458581626415253, -1.020844653248787 -1.1229290813207626, -0.9187601506710052 l0.0, -0.6125067919492722 1.2250135838985443, -1.2250135838985443 l4.1854628920555115, -1.7354358732700348 1.5312670171260834, -0.3062533959746361 l1.7354358732700348, 0.10208446532487869 2.5521114468574524, 1.020844653248787 l0.10208446532487869, 0.8166757225990295 -0.40833786129951477, 0.9187601506710052 l-1.9396047294139862, 1.9396047294139862 -2.7562806010246277, 1.2250135838985443 l-2.4500271677970886, 0.20416893064975739 -0.8166757225990295, -0.5104223266243935 m-15.51683783531189, 5.920898914337158 l-0.6125067919492722, 0.10208446532487869 -1.1229290813207626, -0.6125067919492722 l-2.2458581626415253, -1.5312670171260834 -1.4291824400424957, -1.4291824400424957 l-2.7562806010246277, -6.737574338912964 m-0.10208446532487869, -0.5104223266243935 l5.818814635276794, -1.9396047294139862 2.041689306497574, -0.10208446532487869 l5.30839204788208, -1.2250135838985443 4.593800902366638, -0.20416893064975739 l-3.368787169456482, 0.9187601506710052 -3.98129403591156, 0.10208446532487869 l-9.28968608379364, 1.4291824400424957 -1.633351445198059, 0.5104223266243935 l-0.10208446532487869, 0.5104223266243935 0.40833786129951477, 0.5104223266243935 l5.30839204788208, 1.5312670171260834 7.4521660804748535, 0.0 l3.8792094588279724, -0.6125067919492722 m-41.446290016174316, 20.11063814163208 l0.7145912200212479, 0.0 1.633351445198059, 2.041689306497574 l4.389632046222687, 10.820952653884888 1.8375203013420105, 3.1646183133125305 l-0.5104223266243935, 0.40833786129951477 -1.9396047294139862, 0.0 m-12.454304695129395, -0.40833786129951477 l10.310530662536621, -4.4917163252830505 5.30839204788208, -2.65419602394104 l6.6354900598526, -2.5521114468574524 3.98129403591156, -1.9396047294139862 l3.5729563236236572, -0.9187601506710052 5.512561202049255, -2.65419602394104 " fill="none" stroke="black" stroke-width="1" /></svg>