<?xml version="1.0" encoding="utf-8" ?>
<svg baseProfile="full" height="48.1795896589756" version="1.1" width="80.64244963228703" xmlns="http://www.w3.org/2000/svg" xmlns:ev="http://www.w3.org/2001/xml-events" xmlns:xlink="http://www.w3.org/1999/xlink"><defs /><rect fill="white" height="48.1795896589756" width="80.64244963228703" x="0" y="0" /><path d="M7.34794270247221, 19.39390905201435 m-2.041689306497574, 0.7145912200212479 l-0.3062533959746361, 0.6125067919492722 0.10208446532487869, 12.556389570236206 l1.2250135838985443, 2.2458581626415253 2.2458581626415253, 2.7562806010246277 l3.0625340342521667, 2.960449457168579 3.1646183133125305, 1.7354358732700348 l3.7771251797676086, 0.20416893064975739 8.473010659217834, -6.022983193397522 l5.920898914337158, -4.900054335594177 0.9187601506710052, -1.4291824400424957 l0.40833786129951477, -1.633351445198059 0.10208446532487869, -6.1250680685043335 l-1.8375203013420105, -1.7354358732700348 -3.1646183133125305, -1.1229290813207626 l-5.30839204788208, -0.6125067919492722 -13.57723355293274, -0.10208446532487869 l-0.40833786129951477, -0.5104223266243935 m57.67772197723389, 7.1459126472473145 l-9.902192950248718, -0.10208446532487869 -4.79796975851059, 1.4291824400424957 l-1.8375203013420105, 1.633351445198059 -1.9396047294139862, 2.8583648800849915 l-1.020844653248787, 2.1437737345695496 -0.10208446532487869, 2.7562806010246277 l0.5104223266243935, 1.7354358732700348 1.5312670171260834, 3.0625340342521667 l0.5104223266243935, 0.40833786129951477 1.4291824400424957, 0.5104223266243935 l6.737574338912964, 0.10208446532487869 4.4917163252830505, -0.6125067919492722 l2.5521114468574524, -0.9187601506710052 2.7562806010246277, -2.4500271677970886 l2.7562806010246277, -3.1646183133125305 2.347942590713501, -3.98129403591156 l0.40833786129951477, -1.32709801197052 0.0, -2.5521114468574524 l-0.6125067919492722, -1.9396047294139862 -0.7145912200212479, -0.40833786129951477 l-3.98129403591156, 0.10208446532487869 m-9.902192950248718, 8.473010659217834 l0.5104223266243935, 0.10208446532487869 0.3062533959746361, -0.5104223266243935 l-0.3062533959746361, 0.0 m0.0, 0.0 l1.2250135838985443, -0.8166757225990295 0.40833786129951477, -0.7145912200212479 l3.368787169456482, -3.1646183133125305 2.041689306497574, -1.1229290813207626 m-7.043827772140503, 6.431320905685425 l1.5312670171260834, 3.4708717465400696 1.4291824400424957, 2.2458581626415253 m-2.7562806010246277, -5.920898914337158 l-5.206307768821716, 5.410476326942444 -0.9187601506710052, 0.6125067919492722 m4.287547469139099, -5.920898914337158 l-2.8583648800849915, -3.266702890396118 -2.4500271677970886, -3.4708717465400696 m-30.319085121154785, 1.9396047294139862 l-0.3062533959746361, 1.020844653248787 0.5104223266243935, 0.10208446532487869 l0.0, -0.3062533959746361 m6.941743493080139, -5.614645481109619 l-8.370925784111023, 6.022983193397522 m0.0, -0.10208446532487869 l-2.347942590713501, -1.4291824400424957 -4.1854628920555115, -3.98129403591156 l-1.2250135838985443, -0.7145912200212479 -2.8583648800849915, -0.8166757225990295 m10.514699220657349, 4.593800902366638 l-11.637629270553589, 11.841797828674316 -2.2458581626415253, 2.960449457168579 m13.373064994812012, -12.148051261901855 l1.2250135838985443, 0.6125067919492722 1.633351445198059, 1.633351445198059 l3.0625340342521667, 4.593800902366638 m6.737574338912964, -14.291825294494629 l0.7145912200212479, -0.8166757225990295 0.8166757225990295, -0.20416893064975739 l6.022983193397522, -0.20416893064975739 4.593800902366638, 0.8166757225990295 l3.7771251797676086, 1.8375203013420105 3.5729563236236572, 0.0 l2.960449457168579, 0.7145912200212479 2.8583648800849915, -0.6125067919492722 l1.32709801197052, -0.7145912200212479 2.65419602394104, -3.1646183133125305 l2.2458581626415253, -6.329236626625061 0.20416893064975739, -4.287547469139099 l-0.3062533959746361, -4.287547469139099 0.5104223266243935, -0.5104223266243935 l2.347942590713501, -0.40833786129951477 5.206307768821716, 0.0 l3.0625340342521667, 0.7145912200212479 -5.206307768821716, 0.10208446532487869 l-4.389632046222687, 2.7562806010246277 -6.329236626625061, -0.9187601506710052 l-3.1646183133125305, -1.020844653248787 -0.5104223266243935, -0.8166757225990295 m-10.106362104415894, 15.618922710418701 l-1.020844653248787, 0.0 -0.40833786129951477, 0.9187601506710052 l-0.10208446532487869, 1.32709801197052 0.40833786129951477, 0.5104223266243935 l2.8583648800849915, -0.20416893064975739 -0.3062533959746361, -1.1229290813207626 l-0.5104223266243935, -0.3062533959746361 -0.3062533959746361, 0.7145912200212479 l0.5104223266243935, 0.40833786129951477 0.7145912200212479, -0.7145912200212479 l0.0, -0.8166757225990295 -3.8792094588279724, -1.4291824400424957 l-2.5521114468574524, -0.40833786129951477 -2.7562806010246277, 0.0 " fill="none" stroke="black" stroke-width="1" /></svg>