<?xml version="1.0" encoding="utf-8" ?>
<svg baseProfile="full" height="24.90433134138584" version="1.1" width="52.36505106091499" xmlns="http://www.w3.org/2000/svg" xmlns:ev="http://www.w3.org/2001/xml-events" xmlns:xlink="http://www.w3.org/1999/xlink"><defs /><rect fill="white" height="24.90433134138584" width="52.36505106091499" x="0" y="0" /><path d="M18.781402446329594, 11.43132098019123 m-1.2250135838985443, -1.020844653248787 l-2.347942590713501, -0.9187601506710052 -3.266702890396118, -0.40833786129951477 l-3.1646183133125305, 0.20416893064975739 -2.347942590713501, 1.020844653248787 l-0.9187601506710052, 0.9187601506710052 -0.5104223266243935, 1.633351445198059 l0.10208446532487869, 2.041689306497574 1.8375203013420105, 2.4500271677970886 l3.8792094588279724, 1.9396047294139862 2.8583648800849915, 0.5104223266243935 l2.8583648800849915, -0.10208446532487869 1.7354358732700348, -0.6125067919492722 l1.8375203013420105, -1.2250135838985443 1.2250135838985443, -2.1437737345695496 l0.3062533959746361, -1.8375203013420105 -0.5104223266243935, -1.5312670171260834 l-1.4291824400424957, -0.7145912200212479 -3.0625340342521667, -0.3062533959746361 m24.704439640045166, -2.041689306497574 l-5.920898914337158, -0.10208446532487869 1.9396047294139862, 1.8375203013420105 m-0.8166757225990295, -0.7145912200212479 l-1.1229290813207626, 0.3062533959746361 -0.8166757225990295, 1.020844653248787 l-0.40833786129951477, 3.368787169456482 0.5104223266243935, 1.32709801197052 l1.32709801197052, 1.2250135838985443 4.287547469139099, 2.041689306497574 l3.368787169456482, 0.3062533959746361 1.7354358732700348, -0.6125067919492722 l0.9187601506710052, -0.7145912200212479 1.020844653248787, -2.4500271677970886 l0.0, -2.2458581626415253 -0.6125067919492722, -1.7354358732700348 l-1.9396047294139862, -1.4291824400424957 -1.9396047294139862, -0.20416893064975739 l-2.041689306497574, -1.1229290813207626 -2.1437737345695496, -0.20416893064975739 m1.5312670171260834, 5.206307768821716 l-3.1646183133125305, -4.1854628920555115 -1.1229290813207626, -3.368787169456482 m-21.53982162475586, 5.410476326942444 l0.5104223266243935, -1.9396047294139862 0.10208446532487869, -5.30839204788208 m20.825231075286865, 1.4291824400424957 l-18.57937216758728, 0.10208446532487869 -1.5312670171260834, -1.2250135838985443 m1.2250135838985443, 0.8166757225990295 l6.022983193397522, 3.7771251797676086 3.7771251797676086, 3.5729563236236572 l0.3062533959746361, 0.6125067919492722 m0.0, 0.0 l1.020844653248787, -0.7145912200212479 " fill="none" stroke="black" stroke-width="1" /></svg>