<?xml version="1.0" encoding="utf-8" ?>
<svg baseProfile="full" height="30.11063937097788" version="1.1" width="33.07108864188194" xmlns="http://www.w3.org/2000/svg" xmlns:ev="http://www.w3.org/2001/xml-events" xmlns:xlink="http://www.w3.org/1999/xlink"><defs /><rect fill="white" height="30.11063937097788" width="33.07108864188194" x="0" y="0" /><path d="M25.21272361278534, 13.37092600762844 m-0.40833786129951477, -0.10208446532487869 l-4.389632046222687, 2.5521114468574524 -0.9187601506710052, 1.2250135838985443 l-0.10208446532487869, 0.8166757225990295 0.3062533959746361, 2.1437737345695496 l1.2250135838985443, 1.5312670171260834 3.0625340342521667, 0.9187601506710052 l2.041689306497574, 0.20416893064975739 1.1229290813207626, -0.10208446532487869 l0.9187601506710052, -2.347942590713501 0.0, -1.8375203013420105 l-0.7145912200212479, -2.041689306497574 -1.9396047294139862, -1.4291824400424957 m-14.802247285842896, 0.0 l-3.98129403591156, 2.4500271677970886 -1.4291824400424957, 1.9396047294139862 l-0.20416893064975739, 0.8166757225990295 0.40833786129951477, 1.020844653248787 l3.266702890396118, 1.8375203013420105 3.4708717465400696, 0.5104223266243935 l1.9396047294139862, -0.40833786129951477 2.7562806010246277, -1.1229290813207626 l0.7145912200212479, -0.7145912200212479 0.20416893064975739, -0.40833786129951477 l-0.9187601506710052, -3.7771251797676086 -0.6125067919492722, -0.6125067919492722 l-0.7145912200212479, -0.6125067919492722 -1.9396047294139862, -0.7145912200212479 l-3.5729563236236572, -0.6125067919492722 m-2.5521114468574524, 0.8166757225990295 l4.389632046222687, 8.881348371505737 0.8166757225990295, 0.9187601506710052 l0.7145912200212479, 0.0 m1.4291824400424957, -7.1459126472473145 l-4.695885181427002, 2.041689306497574 -3.675040602684021, 2.2458581626415253 m4.4917163252830505, -6.431320905685425 l-1.1229290813207626, 5.920898914337158 -0.3062533959746361, 0.3062533959746361 m-3.98129403591156, -2.041689306497574 l4.083378612995148, -0.7145912200212479 8.575094938278198, 0.3062533959746361 m3.7771251797676086, -4.79796975851059 l0.8166757225990295, 4.1854628920555115 1.8375203013420105, 4.695885181427002 l0.10208446532487869, 1.1229290813207626 m1.633351445198059, -10.004277229309082 l-3.266702890396118, 1.5312670171260834 -5.818814635276794, 4.900054335594177 m0.0, -4.287547469139099 l8.575094938278198, 2.4500271677970886 0.9187601506710052, -0.20416893064975739 m0.10208446532487869, -13.67931842803955 l0.20416893064975739, -0.40833786129951477 -0.5104223266243935, -0.10208446532487869 l-0.3062533959746361, 0.5104223266243935 -0.20416893064975739, 2.5521114468574524 l0.5104223266243935, 2.347942590713501 0.7145912200212479, 1.5312670171260834 m-1.8375203013420105, -4.083378612995148 l-1.1229290813207626, -0.10208446532487869 -7.4521660804748535, 1.2250135838985443 m-0.8166757225990295, -0.5104223266243935 l0.5104223266243935, 2.65419602394104 0.20416893064975739, 6.227152347564697 m0.10208446532487869, -9.391770362854004 l-2.7562806010246277, 0.20416893064975739 " fill="none" stroke="black" stroke-width="1" /></svg>