<?xml version="1.0" encoding="utf-8" ?>
<svg baseProfile="full" height="58.285952135920525" version="1.1" width="75.33405661582947" xmlns="http://www.w3.org/2000/svg" xmlns:ev="http://www.w3.org/2001/xml-events" xmlns:xlink="http://www.w3.org/1999/xlink"><defs /><rect fill="white" height="58.285952135920525" width="75.33405661582947" x="0" y="0" /><path d="M15.310530662536621, 50.631755366921425 m-1.020844653248787, 0.10208446532487869 l-2.347942590713501, -0.6125067919492722 -4.4917163252830505, -2.65419602394104 l-1.7354358732700348, -3.1646183133125305 -0.7145912200212479, -2.2458581626415253 l0.0, -3.8792094588279724 0.7145912200212479, -2.347942590713501 l0.9187601506710052, -1.4291824400424957 2.8583648800849915, -2.8583648800849915 l2.4500271677970886, -0.9187601506710052 4.287547469139099, 0.10208446532487869 l3.4708717465400696, 1.5312670171260834 0.7145912200212479, 0.8166757225990295 l5.104222893714905, 9.59593951702118 0.20416893064975739, 2.4500271677970886 l-1.32709801197052, 2.347942590713501 -2.4500271677970886, 1.4291824400424957 l-8.881348371505737, 1.2250135838985443 -2.347942590713501, 0.0 m4.79796975851059, -15.312669277191162 l-2.8583648800849915, 7.554250359535217 -5.410476326942444, 10.9230375289917 l-0.40833786129951477, -2.1437737345695496 m0.40833786129951477, -14.598078727722168 l1.9396047294139862, 2.65419602394104 4.695885181427002, 4.389632046222687 l6.329236626625061, 4.1854628920555115 5.512561202049255, 1.9396047294139862 m13.475148677825928, -16.94602131843567 l-1.8375203013420105, 1.020844653248787 -2.347942590713501, 3.1646183133125305 l-1.7354358732700348, 3.266702890396118 -1.020844653248787, 3.4708717465400696 l0.0, 3.0625340342521667 0.3062533959746361, 1.4291824400424957 l0.6125067919492722, 1.2250135838985443 2.5521114468574524, 2.7562806010246277 l1.7354358732700348, 0.6125067919492722 1.7354358732700348, 0.0 l1.8375203013420105, -0.6125067919492722 2.960449457168579, -1.5312670171260834 l7.758418917655945, -5.818814635276794 2.7562806010246277, -2.7562806010246277 l1.020844653248787, -1.7354358732700348 0.0, -0.9187601506710052 l-0.5104223266243935, -1.020844653248787 -3.8792094588279724, -4.287547469139099 l-2.347942590713501, -1.4291824400424957 -4.4917163252830505, -0.5104223266243935 l-1.2250135838985443, 0.20416893064975739 -5.920898914337158, 2.347942590713501 m1.1229290813207626, 0.3062533959746361 l0.3062533959746361, 1.8375203013420105 1.7354358732700348, 3.4708717465400696 l2.4500271677970886, 3.675040602684021 2.8583648800849915, 3.266702890396118 m-1.5312670171260834, -8.881348371505737 l-6.022983193397522, 5.410476326942444 -0.5104223266243935, 0.8166757225990295 l-3.266702890396118, 2.1437737345695496 m-19.906470775604248, -17.048105001449585 l2.65419602394104, -0.8166757225990295 4.900054335594177, -0.5104223266243935 l4.389632046222687, 0.0 15.414754152297974, 3.4708717465400696 l2.65419602394104, 1.1229290813207626 m-28.991987705230713, -5.104222893714905 l5.512561202049255, -0.7145912200212479 16.33351445198059, -0.6125067919492722 l4.1854628920555115, -1.2250135838985443 4.287547469139099, -2.4500271677970886 l3.0625340342521667, -2.8583648800849915 2.65419602394104, -3.98129403591156 l4.083378612995148, -8.473010659217834 m0.0, -0.10208446532487869 l-1.32709801197052, 0.10208446532487869 -1.1229290813207626, -0.3062533959746361 l-2.7562806010246277, -1.32709801197052 -3.1646183133125305, -0.9187601506710052 m8.473010659217834, 1.9396047294139862 l8.881348371505737, 1.32709801197052 5.818814635276794, 0.3062533959746361 " fill="none" stroke="black" stroke-width="1" /></svg>