<?xml version="1.0" encoding="utf-8" ?>
<svg baseProfile="full" height="38.78781799226999" version="1.1" width="73.90487369149923" xmlns="http://www.w3.org/2000/svg" xmlns:ev="http://www.w3.org/2001/xml-events" xmlns:xlink="http://www.w3.org/1999/xlink"><defs /><rect fill="white" height="38.78781799226999" width="73.90487369149923" x="0" y="0" /><path d="M23.681457191705704, 7.960449866950512 m12.352219820022583, 6.227152347564697 l10.61678409576416, 6.431320905685425 0.3062533959746361, -0.9187601506710052 l-0.5104223266243935, -2.1437737345695496 -0.40833786129951477, -8.779264092445374 l-0.6125067919492722, -2.65419602394104 -1.020844653248787, -0.8166757225990295 l-4.083378612995148, -0.3062533959746361 -3.266702890396118, 0.5104223266243935 l-14.700162410736084, 0.7145912200212479 m23.78567934036255, 13.475148677825928 l7.1459126472473145, 2.4500271677970886 4.389632046222687, 0.7145912200212479 l-13.066811561584473, -16.94602131843567 m17.966865301132202, 5.920898914337158 l-1.633351445198059, -0.7145912200212479 -2.7562806010246277, -0.20416893064975739 l-2.5521114468574524, 1.2250135838985443 -1.633351445198059, 1.633351445198059 l-1.32709801197052, 2.1437737345695496 -0.8166757225990295, 4.389632046222687 l1.020844653248787, 2.8583648800849915 3.1646183133125305, 4.79796975851059 l2.4500271677970886, 1.633351445198059 2.041689306497574, 0.8166757225990295 l3.0625340342521667, 0.20416893064975739 3.7771251797676086, -2.2458581626415253 l1.2250135838985443, -2.347942590713501 0.3062533959746361, -2.7562806010246277 l-1.2250135838985443, -4.1854628920555115 -1.633351445198059, -2.4500271677970886 l-2.8583648800849915, -2.5521114468574524 -2.8583648800849915, -1.4291824400424957 l-4.1854628920555115, -0.6125067919492722 m-33.07536602020264, -5.920898914337158 l-2.65419602394104, 8.983432650566101 -1.020844653248787, 2.65419602394104 l-0.7145912200212479, 1.020844653248787 m1.4291824400424957, -1.633351445198059 l-1.4291824400424957, -1.1229290813207626 -2.1437737345695496, -1.020844653248787 l-3.368787169456482, -0.3062533959746361 -2.65419602394104, 0.8166757225990295 l-2.7562806010246277, 1.9396047294139862 -1.020844653248787, 1.1229290813207626 l-1.2250135838985443, 2.1437737345695496 -0.40833786129951477, 1.7354358732700348 l-0.10208446532487869, 1.7354358732700348 0.8166757225990295, 3.266702890396118 l1.633351445198059, 2.960449457168579 1.9396047294139862, 1.7354358732700348 l1.4291824400424957, 0.9187601506710052 2.4500271677970886, 0.6125067919492722 l2.8583648800849915, 0.10208446532487869 2.347942590713501, -0.7145912200212479 l2.347942590713501, -1.5312670171260834 1.633351445198059, -1.5312670171260834 l1.633351445198059, -2.5521114468574524 0.5104223266243935, -1.8375203013420105 l0.20416893064975739, -3.4708717465400696 -1.1229290813207626, -4.083378612995148 l-1.633351445198059, -2.4500271677970886 -1.5312670171260834, -0.9187601506710052 " fill="none" stroke="black" stroke-width="1" /></svg>