<?xml version="1.0" encoding="utf-8" ?>
<svg baseProfile="full" height="32.56066717207432" version="1.1" width="50.629618391394615" xmlns="http://www.w3.org/2000/svg" xmlns:ev="http://www.w3.org/2001/xml-events" xmlns:xlink="http://www.w3.org/1999/xlink"><defs /><rect fill="white" height="32.56066717207432" width="50.629618391394615" x="0" y="0" /><path d="M17.45430439710617, 15.208447054028511 m-9.28968608379364, 0.0 l-1.4291824400424957, 0.8166757225990295 -0.6125067919492722, 0.8166757225990295 l-1.1229290813207626, 3.675040602684021 0.0, 3.675040602684021 l0.20416893064975739, 0.6125067919492722 1.32709801197052, 1.4291824400424957 l2.5521114468574524, 1.020844653248787 5.614645481109619, 0.0 l1.1229290813207626, -1.020844653248787 1.2250135838985443, -3.0625340342521667 l0.40833786129951477, -4.695885181427002 -1.9396047294139862, -3.675040602684021 m23.275258541107178, 1.8375203013420105 l-9.187601804733276, -0.10208446532487869 -0.9187601506710052, 1.020844653248787 l-0.3062533959746361, 2.041689306497574 0.0, 2.4500271677970886 l0.3062533959746361, 1.020844653248787 0.6125067919492722, 1.32709801197052 l1.020844653248787, 1.1229290813207626 3.98129403591156, 1.5312670171260834 l3.266702890396118, 0.5104223266243935 7.1459126472473145, 0.0 l0.5104223266243935, -0.40833786129951477 0.40833786129951477, -1.4291824400424957 l-0.10208446532487869, -3.8792094588279724 -1.7354358732700348, -2.7562806010246277 l-1.633351445198059, -1.2250135838985443 -6.941743493080139, -2.2458581626415253 l-1.2250135838985443, 0.0 -0.8166757225990295, 0.40833786129951477 m-16.843936443328857, -0.8166757225990295 l-8.370925784111023, 5.614645481109619 -1.633351445198059, 1.5312670171260834 l-1.020844653248787, 1.633351445198059 m2.2458581626415253, -8.370925784111023 l5.104222893714905, 7.043827772140503 2.4500271677970886, 4.1854628920555115 m-4.083378612995148, -11.637629270553589 l-0.5104223266243935, 2.1437737345695496 -0.3062533959746361, 5.30839204788208 l0.0, 2.5521114468574524 0.3062533959746361, 0.8166757225990295 m-4.695885181427002, -7.247996926307678 l11.943882703781128, 0.0 m20.212724208831787, -2.347942590713501 l-3.4708717465400696, 3.8792094588279724 -1.9396047294139862, 1.633351445198059 l-2.041689306497574, 3.368787169456482 m-1.633351445198059, -8.370925784111023 l12.148051261901855, 5.410476326942444 4.4917163252830505, 2.65419602394104 m0.10208446532487869, -5.716729760169983 l-4.287547469139099, 0.6125067919492722 -8.575094938278198, 0.0 l-6.329236626625061, 0.6125067919492722 m8.166757225990295, -5.206307768821716 l0.6125067919492722, 5.206307768821716 1.5312670171260834, 5.818814635276794 m-25.7252836227417, -12.250136137008667 l0.5104223266243935, -0.5104223266243935 0.9187601506710052, -2.1437737345695496 l1.020844653248787, -1.2250135838985443 1.020844653248787, -0.6125067919492722 l1.633351445198059, -0.40833786129951477 6.839659214019775, -0.20416893064975739 l1.5312670171260834, 0.3062533959746361 6.431320905685425, 0.0 l1.5312670171260834, 0.7145912200212479 1.020844653248787, 1.8375203013420105 l0.40833786129951477, 2.1437737345695496 0.6125067919492722, 1.1229290813207626 l-0.8166757225990295, -3.675040602684021 -0.10208446532487869, -2.8583648800849915 l1.7354358732700348, -1.32709801197052 7.1459126472473145, -2.2458581626415253 " fill="none" stroke="black" stroke-width="1" /></svg>