<?xml version="1.0" encoding="utf-8" ?>
<svg baseProfile="full" height="55.733838491141796" version="1.1" width="58.89845743775368" xmlns="http://www.w3.org/2000/svg" xmlns:ev="http://www.w3.org/2001/xml-events" xmlns:xlink="http://www.w3.org/1999/xlink"><defs /><rect fill="white" height="55.733838491141796" width="58.89845743775368" x="0" y="0" /><path d="M19.49599362909794, 35.21700009703636 m-1.2250135838985443, -1.8375203013420105 l-4.79796975851059, -2.960449457168579 -2.347942590713501, -0.6125067919492722 l-1.4291824400424957, 0.0 -1.1229290813207626, 0.8166757225990295 l-2.2458581626415253, 3.4708717465400696 -1.1229290813207626, 3.98129403591156 l-0.20416893064975739, 4.287547469139099 0.40833786129951477, 2.347942590713501 l0.7145912200212479, 1.7354358732700348 3.1646183133125305, 2.1437737345695496 l1.633351445198059, 0.40833786129951477 1.9396047294139862, 1.2250135838985443 l2.960449457168579, 0.5104223266243935 1.5312670171260834, -0.5104223266243935 l1.7354358732700348, -1.32709801197052 0.8166757225990295, -1.1229290813207626 l0.3062533959746361, -4.287547469139099 -0.7145912200212479, -3.0625340342521667 l-0.3062533959746361, -5.410476326942444 -1.2250135838985443, -2.7562806010246277 m25.929453372955322, 17.150189876556396 l-5.716729760169983, -3.4708717465400696 -3.5729563236236572, -3.8792094588279724 l-1.020844653248787, -2.2458581626415253 -0.5104223266243935, -4.287547469139099 l0.10208446532487869, -2.041689306497574 0.5104223266243935, -1.8375203013420105 l0.9187601506710052, -1.5312670171260834 3.7771251797676086, -3.4708717465400696 l3.1646183133125305, -0.8166757225990295 4.1854628920555115, 0.0 l2.041689306497574, 0.5104223266243935 4.1854628920555115, 5.206307768821716 l1.8375203013420105, 3.98129403591156 0.10208446532487869, 4.900054335594177 l-1.020844653248787, 3.675040602684021 -1.5312670171260834, 3.266702890396118 l-1.8375203013420105, 1.32709801197052 -1.32709801197052, 0.20416893064975739 l-3.368787169456482, -0.6125067919492722 -3.0625340342521667, -1.2250135838985443 l-2.960449457168579, -3.1646183133125305 -2.8583648800849915, -2.2458581626415253 l-1.7354358732700348, -0.9187601506710052 m-19.60021734237671, -8.983432650566101 l0.0, -0.7145912200212479 1.7354358732700348, -4.389632046222687 l1.5312670171260834, -2.2458581626415253 1.7354358732700348, -3.8792094588279724 l1.020844653248787, -1.4291824400424957 2.960449457168579, -1.633351445198059 l3.368787169456482, -1.1229290813207626 1.020844653248787, 0.0 l5.512561202049255, 2.7562806010246277 3.5729563236236572, 1.1229290813207626 l2.347942590713501, 3.368787169456482 0.9187601506710052, 4.389632046222687 m-3.98129403591156, -8.370925784111023 l0.40833786129951477, -0.6125067919492722 1.020844653248787, -4.1854628920555115 l1.8375203013420105, -4.287547469139099 0.40833786129951477, -2.2458581626415253 l1.020844653248787, -2.2458581626415253 -1.1229290813207626, -0.7145912200212479 l-1.2250135838985443, -0.3062533959746361 3.368787169456482, 1.32709801197052 l4.287547469139099, 2.7562806010246277 2.65419602394104, 1.020844653248787 m-24.60235595703125, 6.431320905685425 l1.9396047294139862, -2.65419602394104 0.10208446532487869, -1.020844653248787 l-2.8583648800849915, -0.20416893064975739 -1.1229290813207626, -1.020844653248787 l-0.5104223266243935, -1.5312670171260834 0.9187601506710052, -0.9187601506710052 l2.041689306497574, -0.3062533959746361 2.347942590713501, 0.0 l2.2458581626415253, 0.5104223266243935 0.20416893064975739, 1.020844653248787 l-0.40833786129951477, 0.5104223266243935 -3.1646183133125305, 1.8375203013420105 " fill="none" stroke="black" stroke-width="1" /></svg>