<?xml version="1.0" encoding="utf-8" ?>
<svg baseProfile="full" height="46.23998414725065" version="1.1" width="55.32550226897001" xmlns="http://www.w3.org/2000/svg" xmlns:ev="http://www.w3.org/2001/xml-events" xmlns:xlink="http://www.w3.org/1999/xlink"><defs /><rect fill="white" height="46.23998414725065" width="55.32550226897001" x="0" y="0" /><path d="M19.189741723239422, 20.925175733864307 m-4.593800902366638, 0.0 l-3.266702890396118, 1.5312670171260834 -2.65419602394104, 2.041689306497574 l-2.041689306497574, 4.593800902366638 0.10208446532487869, 4.695885181427002 l1.633351445198059, 3.5729563236236572 1.020844653248787, 1.020844653248787 l1.4291824400424957, 1.2250135838985443 3.675040602684021, 1.2250135838985443 l3.1646183133125305, 0.40833786129951477 4.1854628920555115, 0.0 l4.4917163252830505, -0.7145912200212479 1.2250135838985443, -1.1229290813207626 l0.8166757225990295, -3.1646183133125305 0.3062533959746361, -3.1646183133125305 l0.0, -3.266702890396118 -0.5104223266243935, -1.633351445198059 l-1.1229290813207626, -2.2458581626415253 -2.041689306497574, -2.65419602394104 l-3.266702890396118, -2.2458581626415253 -2.4500271677970886, -0.40833786129951477 m2.1437737345695496, 0.20416893064975739 l0.0, -3.98129403591156 m-5.002138614654541, -8.370925784111023 l0.0, 1.2250135838985443 2.960449457168579, 6.941743493080139 l0.8166757225990295, 1.1229290813207626 1.8375203013420105, 1.1229290813207626 l5.30839204788208, 1.7354358732700348 6.1250680685043335, 1.020844653248787 l6.737574338912964, 2.347942590713501 6.431320905685425, 1.7354358732700348 m0.5104223266243935, -1.4291824400424957 l-4.083378612995148, -0.5104223266243935 -1.32709801197052, 0.20416893064975739 l-3.0625340342521667, 2.347942590713501 -1.4291824400424957, 1.8375203013420105 l-0.6125067919492722, 2.347942590713501 0.10208446532487869, 4.695885181427002 l1.9396047294139862, 2.7562806010246277 1.8375203013420105, 0.9187601506710052 l6.1250680685043335, -0.10208446532487869 2.347942590713501, -1.8375203013420105 l0.8166757225990295, -1.5312670171260834 0.5104223266243935, -2.65419602394104 l-0.5104223266243935, -5.206307768821716 -0.9187601506710052, -1.9396047294139862 l-0.6125067919492722, -0.5104223266243935 -3.4708717465400696, -1.5312670171260834 m-28.583650588989258, -14.393908977508545 l-2.5521114468574524, 0.40833786129951477 -3.266702890396118, 1.1229290813207626 l-5.410476326942444, 2.960449457168579 m10.004277229309082, -4.1854628920555115 l1.8375203013420105, -2.041689306497574 4.1854628920555115, -2.4500271677970886 m20.11063814163208, 24.29610252380371 l1.1229290813207626, 2.960449457168579 " fill="none" stroke="black" stroke-width="1" /></svg>