<?xml version="1.0" encoding="utf-8" ?>
<svg baseProfile="full" height="41.748268119990826" version="1.1" width="46.03581603616476" xmlns="http://www.w3.org/2000/svg" xmlns:ev="http://www.w3.org/2001/xml-events" xmlns:xlink="http://www.w3.org/1999/xlink"><defs /><rect fill="white" height="41.748268119990826" width="46.03581603616476" x="0" y="0" /><path d="M7.8583649918437, 18.066811375319958 m-0.5104223266243935, 0.5104223266243935 l-1.1229290813207626, 3.5729563236236572 -1.2250135838985443, 6.022983193397522 l2.041689306497574, 6.1250680685043335 0.5104223266243935, 0.6125067919492722 l2.1437737345695496, 0.7145912200212479 3.368787169456482, -0.20416893064975739 l2.960449457168579, -0.8166757225990295 1.8375203013420105, -1.5312670171260834 l1.1229290813207626, -1.9396047294139862 -1.7354358732700348, -5.818814635276794 l-0.7145912200212479, -1.2250135838985443 -2.1437737345695496, -1.633351445198059 l-5.410476326942444, -3.1646183133125305 -0.6125067919492722, -0.3062533959746361 l-1.2250135838985443, 0.10208446532487869 m29.298241138458252, 0.5104223266243935 l-1.2250135838985443, 0.9187601506710052 -3.8792094588279724, 7.96258807182312 l-0.9187601506710052, 2.65419602394104 0.0, 2.7562806010246277 l1.020844653248787, 1.7354358732700348 2.8583648800849915, 1.1229290813207626 l1.633351445198059, -0.40833786129951477 4.083378612995148, -2.1437737345695496 l0.5104223266243935, -0.40833786129951477 0.5104223266243935, -2.041689306497574 l-0.7145912200212479, -7.043827772140503 -0.20416893064975739, -0.5104223266243935 l-1.633351445198059, -0.8166757225990295 -2.2458581626415253, -2.960449457168579 l-0.7145912200212479, -0.20416893064975739 m-19.498132467269897, 2.041689306497574 l5.818814635276794, -0.3062533959746361 5.104222893714905, 0.9187601506710052 l7.1459126472473145, 0.3062533959746361 m-8.26884150505066, -1.2250135838985443 l-0.6125067919492722, -3.8792094588279724 -0.10208446532487869, -5.512561202049255 m-0.10208446532487869, 1.32709801197052 l-5.920898914337158, -1.32709801197052 -5.512561202049255, -2.2458581626415253 l-1.2250135838985443, 1.9396047294139862 1.1229290813207626, -3.5729563236236572 l1.9396047294139862, -3.675040602684021 " fill="none" stroke="black" stroke-width="1" /></svg>