<?xml version="1.0" encoding="utf-8" ?>
<svg baseProfile="full" height="30.41689272969961" version="1.1" width="33.37734196335077" xmlns="http://www.w3.org/2000/svg" xmlns:ev="http://www.w3.org/2001/xml-events" xmlns:xlink="http://www.w3.org/1999/xlink"><defs /><rect fill="white" height="30.41689272969961" width="33.37734196335077" x="0" y="0" /><path d="M10.410476624965668, 14.187601879239082 m-3.266702890396118, 0.9187601506710052 l-1.1229290813207626, 0.9187601506710052 -0.8166757225990295, 1.633351445198059 l-0.20416893064975739, 3.368787169456482 0.5104223266243935, 1.4291824400424957 l1.2250135838985443, 1.5312670171260834 1.020844653248787, 0.6125067919492722 l2.5521114468574524, 0.20416893064975739 1.5312670171260834, -1.1229290813207626 l3.675040602684021, -3.675040602684021 0.5104223266243935, -1.020844653248787 l0.10208446532487869, -1.633351445198059 -0.3062533959746361, -0.7145912200212479 l-5.002138614654541, -1.2250135838985443 -1.7354358732700348, -0.10208446532487869 m15.92517614364624, 1.8375203013420105 l-3.368787169456482, 0.0 -0.9187601506710052, 0.6125067919492722 l-1.5312670171260834, 3.675040602684021 -0.40833786129951477, 3.7771251797676086 l1.32709801197052, 0.20416893064975739 4.1854628920555115, -0.6125067919492722 l1.2250135838985443, -0.40833786129951477 1.633351445198059, -1.2250135838985443 l0.9187601506710052, -1.8375203013420105 0.3062533959746361, -4.287547469139099 l-0.9187601506710052, -0.8166757225990295 -1.633351445198059, 0.0 m-2.1437737345695496, 0.10208446532487869 l-2.8583648800849915, -2.960449457168579 -1.633351445198059, -2.65419602394104 m-6.533405780792236, 5.30839204788208 l0.6125067919492722, -1.1229290813207626 2.960449457168579, -2.041689306497574 l1.32709801197052, -1.5312670171260834 0.20416893064975739, 0.3062533959746361 m1.020844653248787, 0.10208446532487869 l-5.002138614654541, 0.0 m6.431320905685425, -0.10208446532487869 l-0.10208446532487869, -1.32709801197052 1.633351445198059, -1.9396047294139862 l0.6125067919492722, -1.8375203013420105 m-2.5521114468574524, -0.3062533959746361 l4.79796975851059, -1.2250135838985443 2.2458581626415253, 0.0 " fill="none" stroke="black" stroke-width="1" /></svg>