<?xml version="1.0" encoding="utf-8" ?>
<svg baseProfile="full" height="42.156605795025826" version="1.1" width="53.079644292593" xmlns="http://www.w3.org/2000/svg" xmlns:ev="http://www.w3.org/2001/xml-events" xmlns:xlink="http://www.w3.org/1999/xlink"><defs /><rect fill="white" height="42.156605795025826" width="53.079644292593" x="0" y="0" /><path d="M12.452167198061943, 15.718868784606457 m16.741851568222046, 0.5104223266243935 l4.1854628920555115, 0.7145912200212479 7.96258807182312, 0.40833786129951477 l-0.5104223266243935, 6.431320905685425 -4.4917163252830505, 0.20416893064975739 l-1.1229290813207626, 1.32709801197052 -1.4291824400424957, 4.389632046222687 l0.0, 3.675040602684021 0.7145912200212479, 1.8375203013420105 l1.32709801197052, 1.020844653248787 2.347942590713501, 0.9187601506710052 l5.614645481109619, -0.10208446532487869 1.2250135838985443, -0.7145912200212479 l1.8375203013420105, -2.2458581626415253 1.1229290813207626, -2.041689306497574 l0.10208446532487869, -4.900054335594177 -1.2250135838985443, -2.65419602394104 l-4.287547469139099, -2.5521114468574524 -0.9187601506710052, 0.0 l-1.5312670171260834, 1.2250135838985443 m-27.66489028930664, -7.96258807182312 l0.0, 8.575094938278198 -3.98129403591156, 0.0 l-1.32709801197052, 0.6125067919492722 -2.1437737345695496, 3.7771251797676086 l0.0, 2.7562806010246277 2.8583648800849915, 2.041689306497574 l5.410476326942444, 0.3062533959746361 0.9187601506710052, -1.2250135838985443 l0.20416893064975739, -1.32709801197052 -0.20416893064975739, -4.593800902366638 l-1.633351445198059, -1.8375203013420105 -1.32709801197052, -0.9187601506710052 m20.518977642059326, -7.4521660804748535 l1.633351445198059, -1.8375203013420105 3.675040602684021, -3.1646183133125305 l0.8166757225990295, -1.1229290813207626 4.083378612995148, 0.20416893064975739 l-7.96258807182312, 0.0 -0.9187601506710052, 0.10208446532487869 l-0.40833786129951477, 0.6125067919492722 m-19.19187903404236, 3.675040602684021 l-0.40833786129951477, -2.041689306497574 -0.20416893064975739, -4.4917163252830505 l3.1646183133125305, -0.40833786129951477 0.5104223266243935, -0.5104223266243935 l2.8583648800849915, -1.1229290813207626 0.8166757225990295, -0.8166757225990295 " fill="none" stroke="black" stroke-width="1" /></svg>