<?xml version="1.0" encoding="utf-8" ?>
<svg baseProfile="full" height="43.381620198488235" version="1.1" width="58.796373307704926" xmlns="http://www.w3.org/2000/svg" xmlns:ev="http://www.w3.org/2001/xml-events" xmlns:xlink="http://www.w3.org/1999/xlink"><defs /><rect fill="white" height="43.381620198488235" width="58.796373307704926" x="0" y="0" /><path d="M18.270980082452297, 14.595938995480537 m-1.32709801197052, 0.0 l-1.020844653248787, 0.5104223266243935 -7.043827772140503, 5.206307768821716 l-2.2458581626415253, 2.960449457168579 -1.5312670171260834, 4.1854628920555115 l-0.10208446532487869, 4.389632046222687 1.020844653248787, 2.041689306497574 l3.266702890396118, 2.4500271677970886 3.5729563236236572, 1.1229290813207626 l0.9187601506710052, 0.20416893064975739 4.900054335594177, -0.20416893064975739 l1.633351445198059, -1.4291824400424957 0.9187601506710052, -1.633351445198059 l0.7145912200212479, -2.2458581626415253 0.3062533959746361, -4.389632046222687 l-2.1437737345695496, -6.329236626625061 -0.5104223266243935, -2.4500271677970886 l-1.1229290813207626, -2.7562806010246277 0.5104223266243935, -0.3062533959746361 l3.7771251797676086, 1.1229290813207626 5.614645481109619, 0.5104223266243935 l5.614645481109619, 1.8375203013420105 4.1854628920555115, 0.0 l2.1437737345695496, -0.8166757225990295 -1.020844653248787, -0.10208446532487869 l-2.1437737345695496, 1.1229290813207626 -1.8375203013420105, 6.1250680685043335 l0.10208446532487869, 5.818814635276794 1.32709801197052, 1.633351445198059 l2.1437737345695496, 0.8166757225990295 4.695885181427002, 0.0 l3.5729563236236572, -1.5312670171260834 1.8375203013420105, -1.633351445198059 l1.32709801197052, -1.9396047294139862 1.2250135838985443, -4.287547469139099 l-0.10208446532487869, -3.4708717465400696 -1.2250135838985443, -2.960449457168579 l-1.633351445198059, -1.1229290813207626 -2.1437737345695496, 0.0 l-4.900054335594177, 1.5312670171260834 -2.347942590713501, 0.40833786129951477 l-2.4500271677970886, 0.9187601506710052 1.5312670171260834, -0.3062533959746361 m7.758418917655945, -2.5521114468574524 l0.7145912200212479, -4.389632046222687 0.10208446532487869, -4.900054335594177 l0.20416893064975739, -1.32709801197052 0.6125067919492722, -1.1229290813207626 l1.020844653248787, -0.3062533959746361 2.65419602394104, 0.0 l2.4500271677970886, 0.7145912200212479 -0.3062533959746361, 0.20416893064975739 m-34.09621000289917, 9.800108671188354 l-1.32709801197052, 2.4500271677970886 -1.4291824400424957, 4.389632046222687 l-0.7145912200212479, 3.5729563236236572 -2.347942590713501, 7.96258807182312 m-5.30839204788208, -12.86264181137085 l0.5104223266243935, 0.0 4.287547469139099, 2.7562806010246277 l4.1854628920555115, 2.960449457168579 1.633351445198059, 1.5312670171260834 l0.40833786129951477, -0.8166757225990295 0.0, -2.4500271677970886 m-4.287547469139099, -8.473010659217834 l0.0, 4.4917163252830505 0.5104223266243935, 4.287547469139099 l3.266702890396118, 9.902192950248718 -0.20416893064975739, 0.40833786129951477 m-11.535544395446777, 2.5521114468574524 l0.5104223266243935, -2.347942590713501 0.9187601506710052, -1.9396047294139862 l6.6354900598526, -8.881348371505737 5.30839204788208, -3.1646183133125305 " fill="none" stroke="black" stroke-width="1" /></svg>