<?xml version="1.0" encoding="utf-8" ?>
<svg baseProfile="full" height="60.838062949478626" version="1.1" width="74.51738014817238" xmlns="http://www.w3.org/2000/svg" xmlns:ev="http://www.w3.org/2001/xml-events" xmlns:xlink="http://www.w3.org/1999/xlink"><defs /><rect fill="white" height="60.838062949478626" width="74.51738014817238" x="0" y="0" /><path d="M61.452707536518574, 34.09407213330269 m-2.5521114468574524, -2.041689306497574 l-2.8583648800849915, -1.020844653248787 -1.32709801197052, 0.0 l-5.920898914337158, 2.2458581626415253 -3.266702890396118, 3.4708717465400696 l-3.7771251797676086, 7.96258807182312 -0.40833786129951477, 6.1250680685043335 l1.5312670171260834, 2.65419602394104 1.1229290813207626, 1.2250135838985443 l1.5312670171260834, 0.8166757225990295 5.002138614654541, 0.3062533959746361 l8.064672350883484, -3.4708717465400696 2.4500271677970886, -1.4291824400424957 l2.1437737345695496, -1.8375203013420105 4.900054335594177, -6.227152347564697 l0.9187601506710052, -2.2458581626415253 0.5104223266243935, -2.1437737345695496 l0.0, -1.633351445198059 -1.1229290813207626, -2.2458581626415253 l-2.5521114468574524, -2.041689306497574 -1.9396047294139862, -0.7145912200212479 l-4.4917163252830505, -0.5104223266243935 -1.4291824400424957, 0.20416893064975739 l-3.266702890396118, 1.4291824400424957 m-25.010693073272705, 2.7562806010246277 l-1.5312670171260834, -2.4500271677970886 -3.0625340342521667, -3.0625340342521667 l-1.9396047294139862, -0.40833786129951477 -4.083378612995148, 0.20416893064975739 l-5.104222893714905, 1.9396047294139862 -2.1437737345695496, 1.2250135838985443 l-1.8375203013420105, 1.8375203013420105 -3.0625340342521667, 4.695885181427002 l-1.7354358732700348, 5.30839204788208 -0.20416893064975739, 5.410476326942444 l0.7145912200212479, 2.2458581626415253 0.40833786129951477, 1.020844653248787 l1.5312670171260834, 1.020844653248787 1.5312670171260834, 0.10208446532487869 l2.4500271677970886, -0.40833786129951477 4.593800902366638, -2.1437737345695496 l3.98129403591156, -3.675040602684021 1.1229290813207626, -1.9396047294139862 l1.4291824400424957, -5.206307768821716 0.20416893064975739, -5.104222893714905 l-0.20416893064975739, -2.1437737345695496 -1.2250135838985443, -3.266702890396118 l-1.5312670171260834, -0.8166757225990295 -1.2250135838985443, -0.10208446532487869 l-1.4291824400424957, 0.40833786129951477 -2.2458581626415253, 1.32709801197052 l-2.2458581626415253, 2.2458581626415253 m7.656334638595581, 9.187601804733276 l4.695885181427002, -0.20416893064975739 9.902192950248718, -1.32709801197052 l4.79796975851059, 0.40833786129951477 4.79796975851059, 1.1229290813207626 m-2.4500271677970886, 0.40833786129951477 l0.8166757225990295, -3.1646183133125305 1.020844653248787, -15.006415843963623 l1.2250135838985443, -8.26884150505066 m-1.020844653248787, 0.20416893064975739 l-1.32709801197052, -0.7145912200212479 -1.020844653248787, 0.0 l1.2250135838985443, 0.5104223266243935 2.7562806010246277, 0.0 l4.4917163252830505, -0.7145912200212479 0.8166757225990295, -0.5104223266243935 m-25.623199939727783, 24.90860939025879 l-0.40833786129951477, -1.020844653248787 -0.40833786129951477, -15.210585594177246 l0.10208446532487869, -6.6354900598526 0.9187601506710052, -4.900054335594177 m-2.041689306497574, -2.1437737345695496 l-1.8375203013420105, -0.40833786129951477 -2.2458581626415253, 0.0 l-4.083378612995148, 0.8166757225990295 -3.368787169456482, 1.2250135838985443 l-0.5104223266243935, 0.3062533959746361 1.020844653248787, 0.10208446532487869 l12.352219820022583, -1.5312670171260834 0.10208446532487869, -0.40833786129951477 l-1.020844653248787, -0.3062533959746361 -3.368787169456482, -0.6125067919492722 l-1.7354358732700348, 0.10208446532487869 -3.7771251797676086, 1.1229290813207626 l9.698023796081543, -4.1854628920555115 3.8792094588279724, -1.1229290813207626 l6.227152347564697, -1.020844653248787 " fill="none" stroke="black" stroke-width="1" /></svg>