<?xml version="1.0" encoding="utf-8" ?>
<svg baseProfile="full" height="37.460721023380756" version="1.1" width="56.95885330438614" xmlns="http://www.w3.org/2000/svg" xmlns:ev="http://www.w3.org/2001/xml-events" xmlns:xlink="http://www.w3.org/1999/xlink"><defs /><rect fill="white" height="37.460721023380756" width="56.95885330438614" x="0" y="0" /><path d="M14.4938550516963, 17.76055846363306 m0.20416893064975739, -1.4291824400424957 l-0.6125067919492722, -0.40833786129951477 -1.9396047294139862, -0.10208446532487869 l-1.5312670171260834, 0.6125067919492722 -2.960449457168579, 2.4500271677970886 l-1.9396047294139862, 3.1646183133125305 -0.5104223266243935, 1.5312670171260834 l-0.20416893064975739, 4.287547469139099 1.7354358732700348, 2.1437737345695496 l1.32709801197052, 0.8166757225990295 3.5729563236236572, 0.6125067919492722 l2.041689306497574, 0.0 2.2458581626415253, -0.5104223266243935 l4.287547469139099, -2.7562806010246277 2.4500271677970886, -3.4708717465400696 l0.5104223266243935, -1.7354358732700348 0.10208446532487869, -1.8375203013420105 l-0.3062533959746361, -1.5312670171260834 -2.2458581626415253, -2.1437737345695496 l-3.266702890396118, -2.347942590713501 m7.247996926307678, 6.329236626625061 l3.0625340342521667, -0.10208446532487869 9.187601804733276, 0.6125067919492722 m4.695885181427002, -6.839659214019775 l-0.9187601506710052, 0.10208446532487869 -2.2458581626415253, 1.5312670171260834 l-2.041689306497574, 2.2458581626415253 -1.32709801197052, 2.4500271677970886 l-0.40833786129951477, 2.4500271677970886 0.3062533959746361, 2.5521114468574524 l2.347942590713501, 3.4708717465400696 2.4500271677970886, 1.7354358732700348 l1.32709801197052, 0.5104223266243935 2.960449457168579, 0.3062533959746361 l1.7354358732700348, -0.40833786129951477 3.1646183133125305, -2.1437737345695496 l2.347942590713501, -3.675040602684021 0.5104223266243935, -1.9396047294139862 l0.10208446532487869, -3.4708717465400696 -1.9396047294139862, -2.7562806010246277 l-2.960449457168579, -1.633351445198059 -5.818814635276794, -1.7354358732700348 m-2.8583648800849915, 2.65419602394104 l-0.20416893064975739, -6.839659214019775 0.40833786129951477, -2.960449457168579 m0.10208446532487869, 0.7145912200212479 l-1.7354358732700348, 0.7145912200212479 -19.19187903404236, 5.206307768821716 m-0.40833786129951477, 0.9187601506710052 l3.1646183133125305, 3.368787169456482 m-3.4708717465400696, -5.002138614654541 l0.3062533959746361, -0.5104223266243935 0.7145912200212479, -7.1459126472473145 l0.9187601506710052, -0.8166757225990295 m1.7354358732700348, 0.3062533959746361 l-0.9187601506710052, 0.3062533959746361 " fill="none" stroke="black" stroke-width="1" /></svg>