<?xml version="1.0" encoding="utf-8" ?>
<svg baseProfile="full" height="27.25227426737547" version="1.1" width="30.92731449753046" xmlns="http://www.w3.org/2000/svg" xmlns:ev="http://www.w3.org/2001/xml-events" xmlns:xlink="http://www.w3.org/1999/xlink"><defs /><rect fill="white" height="27.25227426737547" width="30.92731449753046" x="0" y="0" /><path d="M9.287547543644905, 13.47301047295332 m-3.266702890396118, 2.347942590713501 l-1.020844653248787, 1.633351445198059 0.0, 2.65419602394104 l1.020844653248787, 1.32709801197052 3.1646183133125305, 0.8166757225990295 l3.0625340342521667, -1.2250135838985443 1.1229290813207626, -1.32709801197052 l0.10208446532487869, -0.8166757225990295 -0.7145912200212479, -2.960449457168579 l-0.8166757225990295, -1.633351445198059 -1.7354358732700348, -0.7145912200212479 l-2.8583648800849915, 0.10208446532487869 m6.6354900598526, 3.4708717465400696 l3.368787169456482, -0.20416893064975739 m3.7771251797676086, -3.1646183133125305 l-0.40833786129951477, -0.20416893064975739 -0.5104223266243935, 0.40833786129951477 l-1.7354358732700348, 2.5521114468574524 -0.5104223266243935, 2.2458581626415253 l0.20416893064975739, 1.1229290813207626 0.5104223266243935, 0.7145912200212479 l1.633351445198059, 0.7145912200212479 2.1437737345695496, 0.0 l0.6125067919492722, -0.3062533959746361 1.5312670171260834, -1.7354358732700348 l0.7145912200212479, -2.1437737345695496 -0.3062533959746361, -3.266702890396118 l-2.041689306497574, -1.020844653248787 -1.5312670171260834, 0.0 l-2.4500271677970886, 0.6125067919492722 m-8.575094938278198, 0.40833786129951477 l-0.6125067919492722, 5.614645481109619 m-4.593800902366638, 0.20416893064975739 l2.347942590713501, -0.9187601506710052 2.5521114468574524, -0.3062533959746361 m-0.20416893064975739, 0.7145912200212479 l0.20416893064975739, 2.4500271677970886 m0.0, -3.1646183133125305 l2.65419602394104, 0.3062533959746361 0.20416893064975739, 0.20416893064975739 m9.28968608379364, -5.716729760169983 l0.3062533959746361, 2.7562806010246277 -0.10208446532487869, 1.1229290813207626 l-3.0625340342521667, 0.9187601506710052 m2.7562806010246277, -0.40833786129951477 l0.20416893064975739, 1.5312670171260834 -0.10208446532487869, 2.65419602394104 m0.5104223266243935, -5.30839204788208 l3.1646183133125305, -0.10208446532487869 m-15.618922710418701, -3.266702890396118 l-0.8166757225990295, -6.941743493080139 m-0.40833786129951477, 0.8166757225990295 l-2.5521114468574524, 0.20416893064975739 -0.6125067919492722, -0.20416893064975739 l0.0, -0.6125067919492722 1.633351445198059, -1.2250135838985443 l1.633351445198059, -0.20416893064975739 " fill="none" stroke="black" stroke-width="1" /></svg>