<?xml version="1.0" encoding="utf-8" ?>
<svg baseProfile="full" height="31.335652396082878" version="1.1" width="35.72528533637524" xmlns="http://www.w3.org/2000/svg" xmlns:ev="http://www.w3.org/2001/xml-events" xmlns:xlink="http://www.w3.org/1999/xlink"><defs /><rect fill="white" height="31.335652396082878" width="35.72528533637524" x="0" y="0" /><path d="M8.981294147670269, 16.02512165904045 m1.4291824400424957, 0.7145912200212479 l1.2250135838985443, 1.32709801197052 1.9396047294139862, 5.30839204788208 l-2.347942590713501, 1.633351445198059 -4.287547469139099, 1.32709801197052 l-0.8166757225990295, 0.0 -0.5104223266243935, -0.5104223266243935 l-0.5104223266243935, -3.4708717465400696 -0.10208446532487869, -4.695885181427002 l2.960449457168579, -1.5312670171260834 1.2250135838985443, 0.20416893064975739 m-0.3062533959746361, -0.8166757225990295 l1.020844653248787, -4.695885181427002 2.1437737345695496, -5.716729760169983 m-1.8375203013420105, 4.900054335594177 l4.389632046222687, 1.4291824400424957 4.4917163252830505, 0.8166757225990295 l6.1250680685043335, 0.7145912200212479 3.266702890396118, -0.20416893064975739 m-7.656334638595581, -0.7145912200212479 l-0.10208446532487869, -4.79796975851059 m-0.20416893064975739, -0.10208446532487869 l-1.1229290813207626, 0.3062533959746361 -0.6125067919492722, -0.40833786129951477 l-0.20416893064975739, -0.6125067919492722 0.0, -0.5104223266243935 l1.8375203013420105, -0.9187601506710052 0.5104223266243935, 0.0 l0.6125067919492722, 1.2250135838985443 -1.5312670171260834, 0.9187601506710052 m7.860503792762756, 5.512561202049255 l0.3062533959746361, 8.473010659217834 m-0.40833786129951477, -0.7145912200212479 l1.4291824400424957, 0.6125067919492722 1.32709801197052, 1.2250135838985443 l0.20416893064975739, 1.8375203013420105 -0.8166757225990295, 1.7354358732700348 l-0.5104223266243935, 0.40833786129951477 -2.65419602394104, -1.4291824400424957 l-0.3062533959746361, -0.5104223266243935 " fill="none" stroke="black" stroke-width="1" /></svg>