<?xml version="1.0" encoding="utf-8" ?>
<svg baseProfile="full" height="33.07108800858259" version="1.1" width="34.70443982630968" xmlns="http://www.w3.org/2000/svg" xmlns:ev="http://www.w3.org/2001/xml-events" xmlns:xlink="http://www.w3.org/1999/xlink"><defs /><rect fill="white" height="33.07108800858259" width="34.70443982630968" x="0" y="0" /><path d="M7.450026869773865, 18.066810593008995 m-1.32709801197052, 1.2250135838985443 l-0.3062533959746361, 0.8166757225990295 -0.10208446532487869, 3.98129403591156 l0.3062533959746361, 1.1229290813207626 1.5312670171260834, 1.2250135838985443 l1.633351445198059, 0.10208446532487869 1.020844653248787, -0.10208446532487869 l1.020844653248787, -0.7145912200212479 0.7145912200212479, -1.020844653248787 l0.40833786129951477, -2.4500271677970886 0.0, -1.633351445198059 l-0.40833786129951477, -1.5312670171260834 -0.6125067919492722, -1.32709801197052 l-1.1229290813207626, -1.32709801197052 -1.4291824400424957, -0.7145912200212479 l-1.1229290813207626, 0.0 -1.9396047294139862, 2.5521114468574524 l-0.6125067919492722, 2.960449457168579 -0.10208446532487869, 2.7562806010246277 l0.5104223266243935, 1.1229290813207626 0.8166757225990295, 0.6125067919492722 l1.9396047294139862, 0.3062533959746361 0.7145912200212479, -0.40833786129951477 l0.5104223266243935, -0.9187601506710052 0.3062533959746361, -2.5521114468574524 l0.0, -3.8792094588279724 -0.5104223266243935, -0.5104223266243935 l-0.9187601506710052, 0.7145912200212479 -0.6125067919492722, 1.8375203013420105 l-0.6125067919492722, 4.287547469139099 0.10208446532487869, 0.6125067919492722 l1.7354358732700348, 0.20416893064975739 0.8166757225990295, -0.9187601506710052 l0.5104223266243935, -1.32709801197052 0.0, -2.4500271677970886 l-1.1229290813207626, -1.5312670171260834 -1.020844653248787, 0.0 l-0.40833786129951477, 0.6125067919492722 -0.10208446532487869, 1.32709801197052 l0.9187601506710052, 0.6125067919492722 0.5104223266243935, 0.0 l-0.3062533959746361, -0.3062533959746361 m20.92731475830078, -3.5729563236236572 l-0.7145912200212479, -0.3062533959746361 -1.7354358732700348, 0.0 l-0.7145912200212479, 0.40833786129951477 -0.9187601506710052, 1.4291824400424957 l-0.6125067919492722, 2.041689306497574 -0.10208446532487869, 4.593800902366638 l0.3062533959746361, 1.2250135838985443 0.6125067919492722, 0.7145912200212479 l1.9396047294139862, 0.10208446532487869 1.32709801197052, -2.65419602394104 l0.3062533959746361, -4.287547469139099 -0.7145912200212479, -2.1437737345695496 l-1.020844653248787, -0.7145912200212479 -1.020844653248787, 0.10208446532487869 l-0.40833786129951477, 1.5312670171260834 -0.10208446532487869, 5.920898914337158 l1.020844653248787, 0.6125067919492722 0.8166757225990295, -0.20416893064975739 l0.6125067919492722, -1.2250135838985443 0.10208446532487869, -2.65419602394104 l-0.6125067919492722, -0.3062533959746361 -1.4291824400424957, 0.10208446532487869 m-15.210585594177246, -2.65419602394104 l15.210585594177246, 1.633351445198059 m-9.493855237960815, -0.9187601506710052 l1.020844653248787, -9.391770362854004 m0.8166757225990295, -0.20416893064975739 l-6.737574338912964, 0.0 -1.8375203013420105, 0.20416893064975739 l-1.1229290813207626, 0.5104223266243935 0.3062533959746361, -5.410476326942444 m-2.041689306497574, -0.6125067919492722 l1.4291824400424957, -0.3062533959746361 -1.2250135838985443, 0.20416893064975739 " fill="none" stroke="black" stroke-width="1" /></svg>