<?xml version="1.0" encoding="utf-8" ?>
<svg baseProfile="full" height="56.550515331327915" version="1.1" width="85.13416402041912" xmlns="http://www.w3.org/2000/svg" xmlns:ev="http://www.w3.org/2001/xml-events" xmlns:xlink="http://www.w3.org/1999/xlink"><defs /><rect fill="white" height="56.550515331327915" width="85.13416402041912" x="0" y="0" /><path d="M25.416892655193806, 29.29610300809145 m-1.8375203013420105, -1.020844653248787 l-2.2458581626415253, -0.7145912200212479 -5.920898914337158, 0.0 l-4.79796975851059, 1.633351445198059 -2.960449457168579, 1.7354358732700348 l-1.32709801197052, 1.32709801197052 -1.2250135838985443, 2.65419602394104 l-0.10208446532487869, 5.002138614654541 0.7145912200212479, 2.5521114468574524 l0.7145912200212479, 1.2250135838985443 1.7354358732700348, 1.5312670171260834 l1.2250135838985443, 0.6125067919492722 3.5729563236236572, 0.8166757225990295 l9.59593951702118, 0.10208446532487869 3.266702890396118, -0.5104223266243935 l1.633351445198059, -0.7145912200212479 0.8166757225990295, -1.9396047294139862 l0.20416893064975739, -10.718868970870972 -1.633351445198059, -6.329236626625061 l-0.8166757225990295, -1.020844653248787 -1.633351445198059, -1.1229290813207626 l-0.6125067919492722, 0.20416893064975739 -0.3062533959746361, 0.9187601506710052 m27.869057655334473, 3.368787169456482 l-3.266702890396118, -0.10208446532487869 -1.7354358732700348, 0.3062533959746361 l-2.041689306497574, 0.7145912200212479 -5.614645481109619, 2.8583648800849915 l-1.1229290813207626, 1.8375203013420105 -0.5104223266243935, 1.633351445198059 l0.0, 3.4708717465400696 0.40833786129951477, 1.5312670171260834 l1.5312670171260834, 2.5521114468574524 3.1646183133125305, 3.368787169456482 l5.002138614654541, 2.4500271677970886 3.98129403591156, 1.1229290813207626 l8.983432650566101, 0.9187601506710052 9.085517525672913, 0.0 l6.737574338912964, -0.40833786129951477 3.266702890396118, -1.020844653248787 l0.7145912200212479, -0.6125067919492722 0.20416893064975739, -1.633351445198059 l-1.4291824400424957, -4.593800902366638 -2.347942590713501, -4.389632046222687 l-1.32709801197052, -1.8375203013420105 -4.79796975851059, -4.083378612995148 l-3.368787169456482, -2.2458581626415253 -3.675040602684021, -1.8375203013420105 l-9.187601804733276, -3.1646183133125305 -6.022983193397522, -1.1229290813207626 l-3.1646183133125305, 0.0 -4.287547469139099, 1.633351445198059 l-1.633351445198059, 1.2250135838985443 -0.40833786129951477, 1.32709801197052 m-11.637629270553589, 4.083378612995148 l3.675040602684021, 0.8166757225990295 10.004277229309082, 0.9187601506710052 l9.28968608379364, 0.40833786129951477 1.4291824400424957, 0.0 l-2.041689306497574, -1.9396047294139862 m-22.6627516746521, -5.410476326942444 l0.3062533959746361, -2.2458581626415253 1.633351445198059, -3.4708717465400696 l2.4500271677970886, -7.4521660804748535 0.20416893064975739, -2.041689306497574 l-3.7771251797676086, -1.633351445198059 -10.718868970870972, -2.960449457168579 l-1.5312670171260834, -0.6125067919492722 -0.20416893064975739, -0.6125067919492722 l0.6125067919492722, -1.1229290813207626 2.8583648800849915, -0.5104223266243935 l6.227152347564697, 0.0 1.7354358732700348, 0.20416893064975739 l3.266702890396118, 1.020844653248787 1.020844653248787, 0.9187601506710052 l0.10208446532487869, 1.5312670171260834 -1.7354358732700348, 2.2458581626415253 l-0.5104223266243935, 0.40833786129951477 -0.7145912200212479, 0.0 " fill="none" stroke="black" stroke-width="1" /></svg>