<?xml version="1.0" encoding="utf-8" ?>
<svg baseProfile="full" height="35.52111592143774" version="1.1" width="42.46285956352949" xmlns="http://www.w3.org/2000/svg" xmlns:ev="http://www.w3.org/2001/xml-events" xmlns:xlink="http://www.w3.org/1999/xlink"><defs /><rect fill="white" height="35.52111592143774" width="42.46285956352949" x="0" y="0" /><path d="M10.61464548110962, 21.84393633157015 m-0.7145912200212479, -0.8166757225990295 l-1.4291824400424957, 0.40833786129951477 -1.633351445198059, 1.020844653248787 l-1.2250135838985443, 1.32709801197052 -0.5104223266243935, 1.1229290813207626 l-0.10208446532487869, 3.0625340342521667 0.9187601506710052, 0.9187601506710052 l2.8583648800849915, 0.7145912200212479 0.6125067919492722, 0.0 l1.4291824400424957, -0.8166757225990295 2.65419602394104, -1.9396047294139862 l0.6125067919492722, -0.7145912200212479 0.40833786129951477, -1.633351445198059 l-0.8166757225990295, -1.2250135838985443 -2.4500271677970886, -1.8375203013420105 m-0.3062533959746361, 0.20416893064975739 l6.1250680685043335, -2.4500271677970886 4.593800902366638, -0.9187601506710052 l4.4917163252830505, 0.6125067919492722 3.4708717465400696, 1.2250135838985443 l2.1437737345695496, 0.3062533959746361 m-12.045966386795044, -1.8375203013420105 l-5.104222893714905, -0.20416893064975739 -0.7145912200212479, 1.32709801197052 l-0.10208446532487869, 3.8792094588279724 0.5104223266243935, 0.3062533959746361 l1.4291824400424957, -0.10208446532487869 m15.006415843963623, -3.8792094588279724 l-1.633351445198059, 0.40833786129951477 -1.32709801197052, 0.8166757225990295 l-1.4291824400424957, 2.1437737345695496 -0.10208446532487869, 5.614645481109619 l0.40833786129951477, 1.32709801197052 0.5104223266243935, 0.3062533959746361 l0.8166757225990295, -0.10208446532487869 2.1437737345695496, -1.2250135838985443 l1.9396047294139862, -2.041689306497574 0.40833786129951477, -1.2250135838985443 l0.10208446532487869, -1.7354358732700348 -2.041689306497574, -3.4708717465400696 l-0.8166757225990295, -2.1437737345695496 m0.40833786129951477, -0.3062533959746361 l0.3062533959746361, -5.512561202049255 1.4291824400424957, -6.022983193397522 m0.20416893064975739, 0.20416893064975739 l1.1229290813207626, 0.0 1.633351445198059, -0.5104223266243935 l2.65419602394104, -1.4291824400424957 m-5.104222893714905, 2.041689306497574 l-3.368787169456482, 0.3062533959746361 " fill="none" stroke="black" stroke-width="1" /></svg>