<?xml version="1.0" encoding="utf-8" ?>
<svg baseProfile="full" height="27.456443160772324" version="1.1" width="36.23570777475834" xmlns="http://www.w3.org/2000/svg" xmlns:ev="http://www.w3.org/2001/xml-events" xmlns:xlink="http://www.w3.org/1999/xlink"><defs /><rect fill="white" height="27.456443160772324" width="36.23570777475834" x="0" y="0" /><path d="M9.49171643704176, 14.902192763984203 m-1.2250135838985443, 0.0 l-1.5312670171260834, 0.7145912200212479 -1.4291824400424957, 1.5312670171260834 l-0.3062533959746361, 0.8166757225990295 0.10208446532487869, 1.2250135838985443 l1.020844653248787, 1.4291824400424957 2.5521114468574524, 1.5312670171260834 l1.633351445198059, 0.3062533959746361 3.0625340342521667, 0.0 l1.633351445198059, -0.5104223266243935 1.020844653248787, -0.9187601506710052 l1.1229290813207626, -3.266702890396118 0.0, -0.8166757225990295 l-0.5104223266243935, -1.1229290813207626 -0.6125067919492722, -0.9187601506710052 l-2.65419602394104, -1.2250135838985443 -3.5729563236236572, -0.10208446532487869 l-3.7771251797676086, 0.6125067919492722 m21.437737941741943, 1.4291824400424957 l-1.020844653248787, 0.10208446532487869 -3.5729563236236572, 2.5521114468574524 l-0.9187601506710052, 1.5312670171260834 2.041689306497574, 2.65419602394104 l2.4500271677970886, 0.0 3.0625340342521667, -2.041689306497574 l1.020844653248787, -1.1229290813207626 0.7145912200212479, -1.9396047294139862 l-0.5104223266243935, -2.5521114468574524 -0.8166757225990295, -1.1229290813207626 l-1.9396047294139862, -1.1229290813207626 -0.9187601506710052, 0.10208446532487869 l-0.6125067919492722, 0.7145912200212479 m-2.1437737345695496, 6.022983193397522 l-5.818814635276794, 0.0 m-9.698023796081543, -3.7771251797676086 l0.3062533959746361, -0.9187601506710052 3.7771251797676086, -3.1646183133125305 l1.020844653248787, -2.2458581626415253 0.3062533959746361, -3.8792094588279724 l-0.10208446532487869, -0.40833786129951477 -0.8166757225990295, 0.0 l3.8792094588279724, 0.0 m-2.5521114468574524, 3.675040602684021 l10.61678409576416, -0.3062533959746361 0.8166757225990295, -0.5104223266243935 l1.32709801197052, -2.2458581626415253 " fill="none" stroke="black" stroke-width="1" /></svg>