<?xml version="1.0" encoding="utf-8" ?>
<svg baseProfile="full" height="30.825229957699776" version="1.1" width="40.93159273266792" xmlns="http://www.w3.org/2000/svg" xmlns:ev="http://www.w3.org/2001/xml-events" xmlns:xlink="http://www.w3.org/1999/xlink"><defs /><rect fill="white" height="30.825229957699776" width="40.93159273266792" x="0" y="0" /><path d="M13.47301047295332, 18.373063951730728 m-2.4500271677970886, -1.7354358732700348 l-3.1646183133125305, -0.20416893064975739 -1.7354358732700348, 0.3062533959746361 l-1.020844653248787, 1.020844653248787 -0.10208446532487869, 2.7562806010246277 l0.7145912200212479, 2.4500271677970886 0.8166757225990295, 1.2250135838985443 l2.4500271677970886, 1.32709801197052 1.633351445198059, 0.3062533959746361 l1.9396047294139862, -0.10208446532487869 2.1437737345695496, -1.7354358732700348 l0.6125067919492722, -1.1229290813207626 0.0, -1.7354358732700348 l-0.6125067919492722, -1.7354358732700348 -0.40833786129951477, -1.020844653248787 l-0.9187601506710052, -0.8166757225990295 m1.9396047294139862, 3.0625340342521667 l0.20416893064975739, -0.5104223266243935 6.839659214019775, -1.2250135838985443 l5.818814635276794, 0.0 3.7771251797676086, 0.8166757225990295 m0.8166757225990295, -2.5521114468574524 l-2.65419602394104, 0.0 -0.5104223266243935, 0.3062533959746361 l-0.7145912200212479, 2.1437737345695496 0.10208446532487869, 1.1229290813207626 l0.9187601506710052, 1.1229290813207626 1.8375203013420105, 0.8166757225990295 l2.2458581626415253, 0.0 1.020844653248787, -0.7145912200212479 l0.9187601506710052, -2.347942590713501 -0.3062533959746361, -1.020844653248787 l-1.4291824400424957, -1.4291824400424957 -1.8375203013420105, -0.7145912200212479 l-1.5312670171260834, 0.0 m-7.860503792762756, 1.5312670171260834 l-0.10208446532487869, -4.79796975851059 -1.1229290813207626, -2.8583648800849915 m1.8375203013420105, 6.941743493080139 l-0.10208446532487869, -1.633351445198059 1.5312670171260834, -3.98129403591156 l0.7145912200212479, -1.020844653248787 1.5312670171260834, -0.7145912200212479 l1.4291824400424957, -0.20416893064975739 m-7.350081205368042, 0.0 l-0.5104223266243935, -1.1229290813207626 -0.5104223266243935, -0.3062533959746361 l-2.1437737345695496, -0.10208446532487869 -0.3062533959746361, -0.5104223266243935 l0.40833786129951477, -2.65419602394104 " fill="none" stroke="black" stroke-width="1" /></svg>