<?xml version="1.0" encoding="utf-8" ?>
<svg baseProfile="full" height="30.723146088421345" version="1.1" width="34.09193355590105" xmlns="http://www.w3.org/2000/svg" xmlns:ev="http://www.w3.org/2001/xml-events" xmlns:xlink="http://www.w3.org/1999/xlink"><defs /><rect fill="white" height="30.723146088421345" width="34.09193355590105" x="0" y="0" /><path d="M10.002138614654541, 13.881348446011543 m-1.4291824400424957, 0.20416893064975739 l-1.7354358732700348, 1.020844653248787 -0.7145912200212479, 0.5104223266243935 l-1.1229290813207626, 1.633351445198059 0.0, 2.5521114468574524 l0.9187601506710052, 3.4708717465400696 1.5312670171260834, 1.8375203013420105 l2.041689306497574, 0.6125067919492722 2.7562806010246277, -0.10208446532487869 l1.1229290813207626, -0.9187601506710052 0.9187601506710052, -1.5312670171260834 l0.7145912200212479, -3.675040602684021 0.0, -0.9187601506710052 l-0.5104223266243935, -1.2250135838985443 -1.8375203013420105, -2.041689306497574 l-1.4291824400424957, -0.6125067919492722 -1.32709801197052, -0.10208446532487869 l8.26884150505066, 0.6125067919492722 5.920898914337158, -0.20416893064975739 m-0.8166757225990295, -0.10208446532487869 l-1.1229290813207626, 5.410476326942444 0.0, 2.347942590713501 l0.3062533959746361, 0.5104223266243935 2.8583648800849915, 0.5104223266243935 l0.9187601506710052, 0.0 0.8166757225990295, -0.40833786129951477 l1.5312670171260834, -1.8375203013420105 0.5104223266243935, -1.9396047294139862 l-0.20416893064975739, -3.1646183133125305 -1.4291824400424957, -2.960449457168579 l-2.1437737345695496, -0.5104223266243935 -1.9396047294139862, 0.10208446532487869 m-5.818814635276794, 0.9187601506710052 l2.041689306497574, -5.30839204788208 m1.2250135838985443, -1.020844653248787 l4.593800902366638, -2.5521114468574524 0.10208446532487869, 0.5104223266243935 l-0.5104223266243935, 1.32709801197052 -1.633351445198059, 1.9396047294139862 l0.6125067919492722, -0.10208446532487869 0.9187601506710052, -0.3062533959746361 l-3.266702890396118, 0.20416893064975739 0.6125067919492722, -0.9187601506710052 l3.266702890396118, -1.8375203013420105 -5.512561202049255, 2.1437737345695496 l-0.7145912200212479, 0.0 0.0, -0.9187601506710052 " fill="none" stroke="black" stroke-width="1" /></svg>