<?xml version="1.0" encoding="utf-8" ?>
<svg baseProfile="full" height="36.23570706695318" version="1.1" width="37.66488891094923" xmlns="http://www.w3.org/2000/svg" xmlns:ev="http://www.w3.org/2001/xml-events" xmlns:xlink="http://www.w3.org/1999/xlink"><defs /><rect fill="white" height="36.23570706695318" width="37.66488891094923" x="0" y="0" /><path d="M31.3377907499671, 16.331375427544117 m-0.20416893064975739, -0.5104223266243935 l-0.8166757225990295, -0.5104223266243935 -2.347942590713501, -0.8166757225990295 l-2.4500271677970886, -0.10208446532487869 -2.041689306497574, 0.5104223266243935 l-1.9396047294139862, 1.4291824400424957 -1.1229290813207626, 1.7354358732700348 l-0.5104223266243935, 2.8583648800849915 0.40833786129951477, 1.7354358732700348 l2.041689306497574, 2.7562806010246277 1.020844653248787, 0.7145912200212479 l2.960449457168579, 1.1229290813207626 3.1646183133125305, -0.20416893064975739 l1.633351445198059, -0.7145912200212479 1.020844653248787, -1.32709801197052 l0.5104223266243935, -2.8583648800849915 -1.2250135838985443, -7.656334638595581 l-0.7145912200212479, -1.2250135838985443 -0.6125067919492722, -0.10208446532487869 m-6.737574338912964, 2.8583648800849915 l-5.104222893714905, 1.4291824400424957 -7.043827772140503, -0.20416893064975739 m-0.5104223266243935, -2.8583648800849915 l-1.020844653248787, 0.9187601506710052 -2.960449457168579, 4.083378612995148 l-1.7354358732700348, 4.287547469139099 0.0, 3.368787169456482 l0.5104223266243935, 2.347942590713501 0.7145912200212479, 1.5312670171260834 l1.4291824400424957, 0.3062533959746361 1.4291824400424957, -1.2250135838985443 l1.32709801197052, -2.65419602394104 1.020844653248787, -4.695885181427002 l0.7145912200212479, -6.022983193397522 0.20416893064975739, -2.041689306497574 l-0.10208446532487869, -0.6125067919492722 -0.5104223266243935, 0.10208446532487869 m16.02726101875305, 1.9396047294139862 l0.5104223266243935, -0.40833786129951477 0.3062533959746361, -1.1229290813207626 l-0.9187601506710052, -4.900054335594177 -0.8166757225990295, -1.020844653248787 m-0.7145912200212479, 0.9187601506710052 l-3.98129403591156, -1.5312670171260834 -1.1229290813207626, -1.2250135838985443 l-0.10208446532487869, -0.9187601506710052 m6.941743493080139, 3.98129403591156 l-0.8166757225990295, -0.9187601506710052 -1.7354358732700348, -1.1229290813207626 l-0.9187601506710052, -1.32709801197052 -0.40833786129951477, -1.4291824400424957 " fill="none" stroke="black" stroke-width="1" /></svg>