<?xml version="1.0" encoding="utf-8" ?>
<svg baseProfile="full" height="33.88776406645775" version="1.1" width="34.90860931575298" xmlns="http://www.w3.org/2000/svg" xmlns:ev="http://www.w3.org/2001/xml-events" xmlns:xlink="http://www.w3.org/1999/xlink"><defs /><rect fill="white" height="33.88776406645775" width="34.90860931575298" x="0" y="0" /><path d="M12.452165558934212, 16.535544134676456 m-2.5521114468574524, 0.40833786129951477 l-3.368787169456482, 2.65419602394104 -1.32709801197052, 2.5521114468574524 l-0.20416893064975739, 1.32709801197052 0.3062533959746361, 2.347942590713501 l0.8166757225990295, 1.1229290813207626 1.2250135838985443, 0.8166757225990295 l1.4291824400424957, 0.5104223266243935 3.675040602684021, 0.0 l2.7562806010246277, -1.32709801197052 1.7354358732700348, -1.5312670171260834 l0.5104223266243935, -0.8166757225990295 0.10208446532487869, -1.020844653248787 l-0.3062533959746361, -2.8583648800849915 -2.041689306497574, -2.8583648800849915 l-1.4291824400424957, -0.9187601506710052 -2.65419602394104, -0.20416893064975739 l-1.32709801197052, 0.3062533959746361 -0.7145912200212479, 0.6125067919492722 m18.375203609466553, 1.1229290813207626 l-3.4708717465400696, 0.20416893064975739 -2.960449457168579, 1.8375203013420105 l-1.32709801197052, 1.4291824400424957 -0.8166757225990295, 1.5312670171260834 l-0.3062533959746361, 1.7354358732700348 0.10208446532487869, 2.1437737345695496 l1.1229290813207626, 0.9187601506710052 1.5312670171260834, 0.3062533959746361 l4.79796975851059, -0.10208446532487869 1.32709801197052, -0.3062533959746361 l0.7145912200212479, -0.5104223266243935 0.7145912200212479, -0.6125067919492722 l0.5104223266243935, -1.1229290813207626 0.5104223266243935, -3.5729563236236572 l0.0, -5.104222893714905 -0.6125067919492722, -1.5312670171260834 l-0.9187601506710052, -0.9187601506710052 -1.1229290813207626, -0.5104223266243935 l-3.7771251797676086, 0.3062533959746361 m-8.881348371505737, 1.7354358732700348 l1.2250135838985443, 0.20416893064975739 5.818814635276794, -0.7145912200212479 l3.7771251797676086, 0.0 1.020844653248787, 0.10208446532487869 l1.4291824400424957, 0.7145912200212479 m-11.127206087112427, -1.020844653248787 l-0.7145912200212479, -0.10208446532487869 -1.8375203013420105, -5.002138614654541 l-0.6125067919492722, -2.65419602394104 -0.10208446532487869, -2.4500271677970886 m-3.266702890396118, 0.9187601506710052 l-3.4708717465400696, 2.7562806010246277 2.960449457168579, -2.347942590713501 l3.7771251797676086, -1.9396047294139862 1.8375203013420105, 0.3062533959746361 l6.839659214019775, -0.40833786129951477 " fill="none" stroke="black" stroke-width="1" /></svg>