<?xml version="1.0" encoding="utf-8" ?>
<svg baseProfile="full" height="61.348485834896564" version="1.1" width="81.459124609828" xmlns="http://www.w3.org/2000/svg" xmlns:ev="http://www.w3.org/2001/xml-events" xmlns:xlink="http://www.w3.org/1999/xlink"><defs /><rect fill="white" height="61.348485834896564" width="81.459124609828" x="0" y="0" /><path d="M27.050243578851223, 52.77552921324968 m-6.6354900598526, 1.4291824400424957 l-5.104222893714905, 0.0 -2.5521114468574524, -0.7145912200212479 l-2.4500271677970886, -1.1229290813207626 -2.347942590713501, -1.7354358732700348 l-1.8375203013420105, -2.2458581626415253 -1.020844653248787, -2.8583648800849915 l-0.10208446532487869, -3.368787169456482 0.6125067919492722, -3.8792094588279724 l1.8375203013420105, -3.368787169456482 2.7562806010246277, -2.960449457168579 l3.368787169456482, -2.2458581626415253 3.8792094588279724, -1.2250135838985443 l3.7771251797676086, -0.3062533959746361 3.4708717465400696, 0.3062533959746361 l2.960449457168579, 1.633351445198059 2.347942590713501, 2.347942590713501 l1.5312670171260834, 2.8583648800849915 0.8166757225990295, 3.0625340342521667 l0.0, 3.1646183133125305 -0.9187601506710052, 2.960449457168579 l-1.9396047294139862, 2.960449457168579 -6.839659214019775, 6.329236626625061 l-2.8583648800849915, 1.633351445198059 -2.1437737345695496, 0.9187601506710052 l-0.9187601506710052, 0.0 m46.14217758178711, -1.9396047294139862 l-5.104222893714905, -2.041689306497574 -2.8583648800849915, -1.633351445198059 l-2.7562806010246277, -1.7354358732700348 -2.2458581626415253, -2.2458581626415253 l-1.633351445198059, -2.8583648800849915 -0.6125067919492722, -3.5729563236236572 l0.0, -3.8792094588279724 1.2250135838985443, -4.083378612995148 l2.2458581626415253, -3.4708717465400696 2.8583648800849915, -2.7562806010246277 l3.5729563236236572, -1.9396047294139862 3.8792094588279724, -0.7145912200212479 l3.98129403591156, 0.40833786129951477 3.5729563236236572, 2.1437737345695496 l2.960449457168579, 3.266702890396118 2.347942590713501, 3.7771251797676086 l1.5312670171260834, 3.98129403591156 0.6125067919492722, 3.8792094588279724 l0.0, 3.266702890396118 -1.020844653248787, 2.347942590713501 l-1.9396047294139862, 1.32709801197052 -2.7562806010246277, 1.020844653248787 l-17.150189876556396, 2.2458581626415253 -3.368787169456482, 0.3062533959746361 l-2.4500271677970886, -0.20416893064975739 m-25.7252836227417, -34.60663318634033 l1.2250135838985443, 0.8166757225990295 1.8375203013420105, 0.5104223266243935 l8.166757225990295, 0.10208446532487869 13.475148677825928, -1.5312670171260834 l9.800108671188354, -0.10208446532487869 m-28.27739715576172, 1.7354358732700348 l-0.7145912200212479, 0.7145912200212479 -3.5729563236236572, 6.737574338912964 l-1.2250135838985443, 1.633351445198059 m27.869057655334473, -9.902192950248718 l0.40833786129951477, 2.5521114468574524 1.020844653248787, 2.8583648800849915 l2.347942590713501, 3.266702890396118 0.5104223266243935, 0.40833786129951477 l1.020844653248787, 0.10208446532487869 m0.6125067919492722, -12.454304695129395 l0.6125067919492722, 0.6125067919492722 4.593800902366638, 0.20416893064975739 l3.7771251797676086, -0.7145912200212479 0.40833786129951477, -0.6125067919492722 l-4.1854628920555115, -4.389632046222687 -2.041689306497574, -1.32709801197052 l-0.5104223266243935, -0.7145912200212479 m6.022983193397522, 5.30839204788208 l1.5312670171260834, -0.8166757225990295 3.5729563236236572, -2.960449457168579 l5.920898914337158, -3.675040602684021 m-54.104766845703125, 11.841797828674316 l1.32709801197052, -1.1229290813207626 m1.633351445198059, -0.3062533959746361 l-5.30839204788208, -0.5104223266243935 -4.695885181427002, -1.2250135838985443 " fill="none" stroke="black" stroke-width="1" /></svg>