<?xml version="1.0" encoding="utf-8" ?>
<svg baseProfile="full" height="48.48584208637476" version="1.1" width="75.23197315633297" xmlns="http://www.w3.org/2000/svg" xmlns:ev="http://www.w3.org/2001/xml-events" xmlns:xlink="http://www.w3.org/1999/xlink"><defs /><rect fill="white" height="48.48584208637476" width="75.23197315633297" x="0" y="0" /><path d="M11.022983193397522, 30.419030860066414 m-1.2250135838985443, -0.20416893064975739 l-2.8583648800849915, 1.1229290813207626 -1.9396047294139862, 3.0625340342521667 l0.0, 1.9396047294139862 1.020844653248787, 2.2458581626415253 l3.4708717465400696, 3.368787169456482 1.8375203013420105, 1.2250135838985443 l9.085517525672913, 0.3062533959746361 4.593800902366638, -0.7145912200212479 l6.1250680685043335, -1.8375203013420105 2.960449457168579, -2.7562806010246277 l0.10208446532487869, -3.675040602684021 -0.7145912200212479, -1.2250135838985443 l-3.266702890396118, -3.368787169456482 -0.6125067919492722, -1.020844653248787 l-2.8583648800849915, -1.633351445198059 -1.2250135838985443, -1.2250135838985443 l-6.941743493080139, 3.266702890396118 -0.6125067919492722, -0.20416893064975739 l-1.4291824400424957, 0.3062533959746361 -1.7354358732700348, -0.40833786129951477 l-1.5312670171260834, -1.020844653248787 -3.368787169456482, 0.3062533959746361 l-0.3062533959746361, 1.1229290813207626 0.9187601506710052, 2.347942590713501 l2.5521114468574524, 1.2250135838985443 m21.53982162475586, 0.8166757225990295 l2.347942590713501, 0.8166757225990295 5.206307768821716, 0.6125067919492722 l3.0625340342521667, -0.3062533959746361 2.041689306497574, -0.7145912200212479 l9.187601804733276, 0.3062533959746361 5.512561202049255, -0.20416893064975739 l1.32709801197052, 0.3062533959746361 1.633351445198059, -1.4291824400424957 l0.5104223266243935, -1.1229290813207626 0.0, -2.041689306497574 l-0.8166757225990295, -1.7354358732700348 -2.7562806010246277, -1.8375203013420105 l-4.4917163252830505, -0.6125067919492722 -1.633351445198059, 0.3062533959746361 l-2.4500271677970886, 2.041689306497574 -2.5521114468574524, 3.0625340342521667 l-0.10208446532487869, 0.7145912200212479 4.287547469139099, 6.839659214019775 l4.1854628920555115, 2.65419602394104 5.512561202049255, 1.32709801197052 l1.5312670171260834, 0.0 1.8375203013420105, -1.32709801197052 l2.2458581626415253, -2.960449457168579 -0.20416893064975739, -4.083378612995148 l-1.2250135838985443, -2.1437737345695496 -1.1229290813207626, -1.5312670171260834 l-3.7771251797676086, -1.9396047294139862 -2.041689306497574, -1.633351445198059 l-7.247996926307678, -1.020844653248787 m-31.33992910385132, -0.10208446532487869 l-1.633351445198059, -7.96258807182312 0.0, -1.2250135838985443 l0.8166757225990295, -2.960449457168579 0.5104223266243935, -5.002138614654541 m0.0, 0.0 l-4.1854628920555115, -0.10208446532487869 -1.1229290813207626, -0.7145912200212479 l-0.5104223266243935, -1.020844653248787 -1.633351445198059, -0.6125067919492722 l-1.2250135838985443, -0.9187601506710052 0.0, -0.3062533959746361 m10.106362104415894, 2.7562806010246277 l1.32709801197052, 0.0 2.5521114468574524, -0.6125067919492722 l7.247996926307678, -2.347942590713501 m16.435598134994507, 17.354358434677124 l-0.40833786129951477, -3.368787169456482 0.10208446532487869, -2.1437737345695496 l-0.6125067919492722, -0.5104223266243935 0.40833786129951477, -4.79796975851059 l-1.633351445198059, -0.3062533959746361 -1.7354358732700348, 0.20416893064975739 l-4.287547469139099, -0.7145912200212479 4.083378612995148, -1.5312670171260834 l4.083378612995148, -1.020844653248787 2.65419602394104, 0.40833786129951477 l1.633351445198059, 1.1229290813207626 -0.5104223266243935, 0.3062533959746361 l-4.287547469139099, -0.7145912200212479 -1.1229290813207626, 0.20416893064975739 l-0.6125067919492722, 1.2250135838985443 m2.65419602394104, 3.4708717465400696 l1.633351445198059, 6.022983193397522 0.7145912200212479, 1.633351445198059 l0.0, 2.4500271677970886 -0.40833786129951477, 1.633351445198059 m-35.627477169036865, 9.493855237960815 l0.0, 0.5104223266243935 0.5104223266243935, 0.6125067919492722 l0.5104223266243935, 0.0 -0.3062533959746361, -1.4291824400424957 m-0.10208446532487869, -0.9187601506710052 l-0.20416893064975739, -1.5312670171260834 -0.5104223266243935, -0.20416893064975739 l-0.3062533959746361, -4.389632046222687 -0.9187601506710052, -3.4708717465400696 l0.5104223266243935, -4.900054335594177 m3.368787169456482, 15.210585594177246 l1.32709801197052, -1.020844653248787 3.4708717465400696, -0.3062533959746361 l0.9187601506710052, 0.3062533959746361 5.002138614654541, 0.3062533959746361 " fill="none" stroke="black" stroke-width="1" /></svg>