<?xml version="1.0" encoding="utf-8" ?>
<svg baseProfile="full" height="32.56066624075174" version="1.1" width="43.585786893963814" xmlns="http://www.w3.org/2000/svg" xmlns:ev="http://www.w3.org/2001/xml-events" xmlns:xlink="http://www.w3.org/1999/xlink"><defs /><rect fill="white" height="32.56066624075174" width="43.585786893963814" x="0" y="0" /><path d="M35.93159273266792, 5.408337339758873 m-11.535544395446777, 1.4291824400424957 l-12.250136137008667, 0.20416893064975739 -0.6125067919492722, 0.10208446532487869 l-2.5521114468574524, 1.7354358732700348 -1.4291824400424957, 1.4291824400424957 l-1.9396047294139862, 2.8583648800849915 -0.6125067919492722, 1.5312670171260834 l0.0, 1.633351445198059 1.020844653248787, 2.8583648800849915 l1.9396047294139862, 3.4708717465400696 1.9396047294139862, 1.8375203013420105 l1.8375203013420105, 0.40833786129951477 1.4291824400424957, -0.3062533959746361 l1.633351445198059, -0.8166757225990295 1.1229290813207626, -0.7145912200212479 l1.4291824400424957, -1.7354358732700348 1.4291824400424957, -3.8792094588279724 l0.40833786129951477, -3.98129403591156 -0.40833786129951477, -1.5312670171260834 l-1.4291824400424957, -2.2458581626415253 -1.5312670171260834, -0.9187601506710052 l-3.0625340342521667, -0.6125067919492722 -1.4291824400424957, -0.6125067919492722 m0.40833786129951477, 7.96258807182312 l0.0, 0.5104223266243935 0.9187601506710052, -2.4500271677970886 l2.1437737345695496, -2.8583648800849915 1.9396047294139862, -1.633351445198059 l0.3062533959746361, 0.6125067919492722 -2.4500271677970886, 3.266702890396118 l-2.65419602394104, 1.9396047294139862 0.10208446532487869, 0.5104223266243935 l3.98129403591156, 1.32709801197052 2.65419602394104, 1.8375203013420105 l-3.8792094588279724, -1.020844653248787 -1.7354358732700348, -0.7145912200212479 l-0.9187601506710052, -0.9187601506710052 0.5104223266243935, 4.389632046222687 l-0.6125067919492722, 2.2458581626415253 -0.10208446532487869, 2.1437737345695496 l0.0, -9.698023796081543 -3.266702890396118, 5.818814635276794 l-1.633351445198059, 1.2250135838985443 0.10208446532487869, -0.7145912200212479 l2.7562806010246277, -3.368787169456482 1.2250135838985443, -2.1437737345695496 l-2.4500271677970886, -0.10208446532487869 -3.4708717465400696, -0.7145912200212479 l6.533405780792236, -0.10208446532487869 -1.9396047294139862, -4.79796975851059 m0.0, -0.40833786129951477 l0.0, -1.1229290813207626 m25.41903018951416, -3.5729563236236572 l-5.512561202049255, 5.920898914337158 -3.4708717465400696, 5.104222893714905 l-0.9187601506710052, 2.5521114468574524 -0.9187601506710052, 4.79796975851059 l0.6125067919492722, 2.1437737345695496 1.020844653248787, 1.2250135838985443 l0.8166757225990295, 0.3062533959746361 4.695885181427002, 0.40833786129951477 l1.7354358732700348, -0.3062533959746361 1.2250135838985443, -0.7145912200212479 l1.7354358732700348, -2.041689306497574 1.020844653248787, -1.9396047294139862 l0.5104223266243935, -1.4291824400424957 0.5104223266243935, -4.083378612995148 l-0.7145912200212479, -5.002138614654541 -1.2250135838985443, -3.8792094588279724 l-1.020844653248787, -1.1229290813207626 -1.633351445198059, -0.5104223266243935 m-0.6125067919492722, 9.28968608379364 l-0.40833786129951477, 1.4291824400424957 m0.0, 0.0 l2.1437737345695496, -2.960449457168579 1.1229290813207626, -1.020844653248787 l1.020844653248787, -0.3062533959746361 0.0, 0.5104223266243935 l-1.5312670171260834, 2.041689306497574 -1.8375203013420105, 1.32709801197052 l-0.3062533959746361, 0.6125067919492722 1.7354358732700348, 2.7562806010246277 l3.5729563236236572, 3.5729563236236572 0.0, 1.4291824400424957 l-1.32709801197052, 1.2250135838985443 -1.5312670171260834, -0.10208446532487869 l-0.9187601506710052, -0.7145912200212479 -1.2250135838985443, -2.2458581626415253 l-0.40833786129951477, -1.5312670171260834 -0.3062533959746361, -5.30839204788208 l-1.633351445198059, 4.389632046222687 -3.266702890396118, 5.104222893714905 l-1.2250135838985443, 1.32709801197052 -0.7145912200212479, 0.3062533959746361 l-0.5104223266243935, 0.0 -0.10208446532487869, -0.6125067919492722 l0.6125067919492722, -1.020844653248787 6.329236626625061, -7.043827772140503 l1.020844653248787, -1.7354358732700348 -0.8166757225990295, -0.20416893064975739 l-5.920898914337158, 1.020844653248787 -3.1646183133125305, 0.10208446532487869 l9.187601804733276, -2.347942590713501 0.7145912200212479, -1.1229290813207626 l0.7145912200212479, -3.0625340342521667 " fill="none" stroke="black" stroke-width="1" /></svg>