<?xml version="1.0" encoding="utf-8" ?>
<svg baseProfile="full" height="38.379480578005314" version="1.1" width="42.56494279950857" xmlns="http://www.w3.org/2000/svg" xmlns:ev="http://www.w3.org/2001/xml-events" xmlns:xlink="http://www.w3.org/1999/xlink"><defs /><rect fill="white" height="38.379480578005314" width="42.56494279950857" x="0" y="0" /><path d="M11.73757467418909, 17.25013669580221 m-0.10208446532487869, -0.6125067919492722 l-0.8166757225990295, -0.40833786129951477 -0.6125067919492722, 0.20416893064975739 l-2.4500271677970886, 2.5521114468574524 -1.9396047294139862, 3.8792094588279724 l-0.5104223266243935, 2.2458581626415253 0.10208446532487869, 1.9396047294139862 l2.2458581626415253, 3.266702890396118 3.4708717465400696, 2.1437737345695496 l1.8375203013420105, 0.5104223266243935 1.633351445198059, 0.0 l1.5312670171260834, -1.020844653248787 1.1229290813207626, -1.9396047294139862 l0.6125067919492722, -2.65419602394104 0.10208446532487869, -5.818814635276794 l-0.7145912200212479, -2.347942590713501 -1.020844653248787, -1.5312670171260834 l-0.9187601506710052, -0.7145912200212479 -1.1229290813207626, -0.20416893064975739 l-2.1437737345695496, 0.20416893064975739 -0.7145912200212479, 0.3062533959746361 l-0.5104223266243935, 0.8166757225990295 m1.2250135838985443, 4.593800902366638 l-0.3062533959746361, 0.5104223266243935 0.40833786129951477, 1.1229290813207626 l0.5104223266243935, 0.8166757225990295 0.40833786129951477, -0.6125067919492722 l0.7145912200212479, -5.818814635276794 0.9187601506710052, -1.32709801197052 l0.6125067919492722, 0.20416893064975739 m-2.4500271677970886, 6.737574338912964 l3.675040602684021, 1.2250135838985443 1.32709801197052, 0.9187601506710052 l-0.7145912200212479, 0.3062533959746361 m-3.0625340342521667, -1.020844653248787 l-0.5104223266243935, -0.20416893064975739 1.32709801197052, 2.4500271677970886 l0.9187601506710052, 3.675040602684021 m-1.7354358732700348, -6.227152347564697 l-2.5521114468574524, 1.32709801197052 -1.8375203013420105, 1.633351445198059 l-1.2250135838985443, 0.6125067919492722 -0.10208446532487869, -0.3062533959746361 m3.675040602684021, -3.8792094588279724 l-5.30839204788208, 0.8166757225990295 -1.7354358732700348, -0.40833786129951477 l0.3062533959746361, -0.5104223266243935 m6.941743493080139, -1.1229290813207626 l-0.6125067919492722, 0.10208446532487869 -0.9187601506710052, -0.40833786129951477 l-1.8375203013420105, -1.4291824400424957 -1.2250135838985443, -2.960449457168579 l-0.20416893064975739, -1.020844653248787 0.40833786129951477, -0.8166757225990295 m25.41903018951416, -0.5104223266243935 l-1.7354358732700348, -0.20416893064975739 -2.2458581626415253, 1.9396047294139862 l-1.2250135838985443, 1.8375203013420105 -0.9187601506710052, 2.1437737345695496 l-0.6125067919492722, 5.410476326942444 0.20416893064975739, 2.5521114468574524 l1.020844653248787, 1.9396047294139862 1.020844653248787, 0.8166757225990295 l2.041689306497574, 0.40833786129951477 1.8375203013420105, -0.3062533959746361 l1.633351445198059, -1.5312670171260834 1.633351445198059, -2.2458581626415253 l1.2250135838985443, -2.7562806010246277 0.40833786129951477, -3.0625340342521667 l-0.3062533959746361, -2.8583648800849915 -1.633351445198059, -2.8583648800849915 l-1.4291824400424957, -0.3062533959746361 -0.8166757225990295, 0.40833786129951477 m-1.1229290813207626, -0.20416893064975739 l-0.5104223266243935, -0.20416893064975739 1.9396047294139862, 6.839659214019775 l0.3062533959746361, 2.4500271677970886 0.0, 4.900054335594177 m2.1437737345695496, -10.412615537643433 l-1.32709801197052, 0.5104223266243935 -5.30839204788208, 4.083378612995148 m-1.32709801197052, -1.1229290813207626 l-1.8375203013420105, -0.6125067919492722 4.1854628920555115, 2.65419602394104 l2.7562806010246277, 2.65419602394104 0.6125067919492722, 0.10208446532487869 m1.1229290813207626, -7.1459126472473145 l-0.20416893064975739, -0.6125067919492722 -0.7145912200212479, -0.10208446532487869 l-0.7145912200212479, 0.6125067919492722 -4.4917163252830505, 6.839659214019775 l-1.7354358732700348, 3.675040602684021 m-13.373064994812012, -15.618922710418701 l-0.5104223266243935, 0.10208446532487869 -0.40833786129951477, -3.4708717465400696 m2.4500271677970886, -8.677179217338562 l3.0625340342521667, -0.10208446532487869 4.900054335594177, 2.041689306497574 l0.5104223266243935, 0.8166757225990295 -0.3062533959746361, 0.7145912200212479 l-1.7354358732700348, 0.40833786129951477 -2.8583648800849915, 0.0 l-2.347942590713501, -2.1437737345695496 -0.40833786129951477, -0.8166757225990295 m3.0625340342521667, 3.0625340342521667 l-0.3062533959746361, 3.0625340342521667 m-6.941743493080139, 1.1229290813207626 l2.960449457168579, 0.20416893064975739 10.004277229309082, -1.020844653248787 l4.4917163252830505, 1.2250135838985443 " fill="none" stroke="black" stroke-width="1" /></svg>