<?xml version="1.0" encoding="utf-8" ?>
<svg baseProfile="full" height="42.156606055796146" version="1.1" width="59.817217849195" xmlns="http://www.w3.org/2000/svg" xmlns:ev="http://www.w3.org/2001/xml-events" xmlns:xlink="http://www.w3.org/1999/xlink"><defs /><rect fill="white" height="42.156606055796146" width="59.817217849195" x="0" y="0" /><path d="M10.30839204788208, 21.027261167764664 m-0.3062533959746361, 0.8166757225990295 l-3.98129403591156, 5.30839204788208 -0.7145912200212479, 2.2458581626415253 l-0.3062533959746361, 5.104222893714905 0.5104223266243935, 1.7354358732700348 l0.5104223266243935, 0.5104223266243935 1.020844653248787, 0.40833786129951477 l1.633351445198059, 0.0 1.8375203013420105, -1.2250135838985443 l2.4500271677970886, -3.0625340342521667 0.8166757225990295, -2.041689306497574 l2.4500271677970886, -4.1854628920555115 0.10208446532487869, -1.9396047294139862 l-0.8166757225990295, -1.9396047294139862 -2.7562806010246277, -1.1229290813207626 l-2.8583648800849915, 0.20416893064975739 m-0.5104223266243935, 8.779264092445374 l2.65419602394104, -3.0625340342521667 3.98129403591156, -2.960449457168579 l5.002138614654541, -2.1437737345695496 5.410476326942444, -1.7354358732700348 l2.960449457168579, -1.8375203013420105 0.8166757225990295, -0.9187601506710052 m0.0, 0.0 l0.10208446532487869, -10.718868970870972 m-0.5104223266243935, -0.20416893064975739 l-1.020844653248787, -1.7354358732700348 -0.5104223266243935, -0.3062533959746361 l-0.9187601506710052, 0.20416893064975739 m3.5729563236236572, 1.2250135838985443 l1.32709801197052, 1.4291824400424957 0.10208446532487869, 1.7354358732700348 m-2.1437737345695496, 8.26884150505066 l3.266702890396118, -0.3062533959746361 9.493855237960815, 0.0 l1.1229290813207626, -0.6125067919492722 1.2250135838985443, -5.818814635276794 m-3.0625340342521667, -0.6125067919492722 l2.960449457168579, -0.7145912200212479 4.1854628920555115, 0.0 l0.40833786129951477, -0.5104223266243935 -0.20416893064975739, -1.2250135838985443 l-1.32709801197052, -1.020844653248787 -1.8375203013420105, -0.20416893064975739 l-3.8792094588279724, 2.65419602394104 -0.8166757225990295, 1.1229290813207626 m2.2458581626415253, 6.737574338912964 l1.020844653248787, 0.5104223266243935 5.104222893714905, 0.20416893064975739 l2.347942590713501, 0.40833786129951477 0.8166757225990295, 1.020844653248787 l1.020844653248787, 5.104222893714905 0.0, 3.266702890396118 l0.5104223266243935, 3.5729563236236572 -1.633351445198059, 0.6125067919492722 l-1.020844653248787, 1.1229290813207626 -0.40833786129951477, 1.1229290813207626 l0.10208446532487869, 1.5312670171260834 " fill="none" stroke="black" stroke-width="1" /></svg>