<?xml version="1.0" encoding="utf-8" ?>
<svg baseProfile="full" height="33.78567975014448" version="1.1" width="38.48156489431858" xmlns="http://www.w3.org/2000/svg" xmlns:ev="http://www.w3.org/2001/xml-events" xmlns:xlink="http://www.w3.org/1999/xlink"><defs /><rect fill="white" height="33.78567975014448" width="38.48156489431858" x="0" y="0" /><path d="M10.512560866773129, 19.393909201025963 m-2.347942590713501, 0.0 l-1.9396047294139862, 1.020844653248787 -0.9187601506710052, 1.4291824400424957 l-0.3062533959746361, 1.8375203013420105 0.10208446532487869, 1.4291824400424957 l0.8166757225990295, 1.5312670171260834 2.041689306497574, 1.32709801197052 l2.4500271677970886, 0.7145912200212479 3.675040602684021, 0.10208446532487869 l3.8792094588279724, -1.32709801197052 2.2458581626415253, -2.347942590713501 l0.5104223266243935, -1.2250135838985443 0.0, -1.2250135838985443 l-0.7145912200212479, -1.8375203013420105 -1.7354358732700348, -1.2250135838985443 l-1.020844653248787, -0.3062533959746361 -3.368787169456482, -0.3062533959746361 l-5.002138614654541, 0.0 m14.087655544281006, 1.8375203013420105 l-0.8166757225990295, 0.9187601506710052 -0.7145912200212479, 2.1437737345695496 l0.3062533959746361, 1.2250135838985443 1.633351445198059, 1.8375203013420105 l1.8375203013420105, 1.020844653248787 1.633351445198059, 0.3062533959746361 l3.675040602684021, -0.10208446532487869 1.7354358732700348, -0.5104223266243935 l0.9187601506710052, -1.9396047294139862 0.3062533959746361, -1.633351445198059 l0.0, -3.4708717465400696 -1.1229290813207626, -2.7562806010246277 l-1.020844653248787, -0.8166757225990295 -1.2250135838985443, -0.40833786129951477 l-2.65419602394104, 0.3062533959746361 -1.9396047294139862, 1.020844653248787 l-3.7771251797676086, 3.98129403591156 -0.9187601506710052, 1.32709801197052 l-0.3062533959746361, 1.5312670171260834 m-6.227152347564697, -2.041689306497574 l-0.40833786129951477, -9.59593951702118 0.7145912200212479, -0.3062533959746361 l12.250136137008667, 0.5104223266243935 1.4291824400424957, -0.10208446532487869 l0.20416893064975739, 1.5312670171260834 -0.8166757225990295, 8.166757225990295 m-12.556389570236206, -9.59593951702118 l0.0, 0.0 m-0.5104223266243935, -0.40833786129951477 l-3.675040602684021, 1.2250135838985443 -1.9396047294139862, 0.10208446532487869 l-1.2250135838985443, -0.3062533959746361 -1.8375203013420105, -1.2250135838985443 l-0.5104223266243935, -1.633351445198059 m8.983432650566101, 0.6125067919492722 l0.5104223266243935, -1.5312670171260834 0.10208446532487869, -2.1437737345695496 l-0.40833786129951477, -1.9396047294139862 -0.6125067919492722, -1.1229290813207626 m14.904332160949707, 8.064672350883484 l0.10208446532487869, -2.347942590713501 " fill="none" stroke="black" stroke-width="1" /></svg>