<?xml version="1.0" encoding="utf-8" ?>
<svg baseProfile="full" height="67.371466755867" version="1.1" width="126.98879450559616" xmlns="http://www.w3.org/2000/svg" xmlns:ev="http://www.w3.org/2001/xml-events" xmlns:xlink="http://www.w3.org/1999/xlink"><defs /><rect fill="white" height="67.371466755867" width="126.98879450559616" x="0" y="0" /><path d="M30.316947028040886, 26.029398255050182 m-3.7771251797676086, -0.6125067919492722 l-2.65419602394104, 0.0 -3.368787169456482, 0.5104223266243935 l-9.085517525672913, 3.98129403591156 -3.4708717465400696, 2.2458581626415253 l-1.32709801197052, 1.4291824400424957 -0.9187601506710052, 1.633351445198059 l-0.7145912200212479, 4.287547469139099 0.5104223266243935, 3.4708717465400696 l1.32709801197052, 3.1646183133125305 2.5521114468574524, 3.7771251797676086 l3.5729563236236572, 3.7771251797676086 2.8583648800849915, 2.1437737345695496 l2.5521114468574524, 1.32709801197052 4.900054335594177, 1.1229290813207626 l6.329236626625061, 0.9187601506710052 18.171035051345825, 0.10208446532487869 l1.1229290813207626, -0.3062533959746361 1.020844653248787, -0.8166757225990295 l0.3062533959746361, -0.9187601506710052 0.20416893064975739, -4.695885181427002 l-0.3062533959746361, -1.4291824400424957 -2.2458581626415253, -4.79796975851059 l-7.1459126472473145, -11.943882703781128 -3.1646183133125305, -3.368787169456482 l-1.7354358732700348, -1.2250135838985443 -8.26884150505066, -1.8375203013420105 m72.47996807098389, 4.287547469139099 l-7.350081205368042, 0.0 -1.4291824400424957, 0.40833786129951477 l-1.32709801197052, 0.6125067919492722 -2.347942590713501, 1.8375203013420105 l-3.98129403591156, 4.1854628920555115 -1.5312670171260834, 2.8583648800849915 l-0.8166757225990295, 3.675040602684021 0.10208446532487869, 4.389632046222687 l0.6125067919492722, 1.32709801197052 1.4291824400424957, 1.633351445198059 l3.7771251797676086, 2.4500271677970886 12.454304695129395, 5.30839204788208 l6.227152347564697, 1.4291824400424957 4.79796975851059, 0.0 l3.675040602684021, -0.8166757225990295 3.675040602684021, -1.8375203013420105 l2.5521114468574524, -3.368787169456482 1.2250135838985443, -2.347942590713501 l0.20416893064975739, -1.1229290813207626 0.0, -5.104222893714905 l-0.8166757225990295, -2.041689306497574 -1.7354358732700348, -3.368787169456482 l-4.4917163252830505, -5.818814635276794 -1.7354358732700348, -1.5312670171260834 l-4.695885181427002, -3.0625340342521667 -3.8792094588279724, -1.8375203013420105 l-3.7771251797676086, -0.7145912200212479 -0.5104223266243935, 1.1229290813207626 m-17.456443309783936, 17.864781618118286 l27.97114372253418, 1.9396047294139862 m-8.064672350883484, -15.006415843963623 l-0.8166757225990295, 2.041689306497574 -1.633351445198059, 9.085517525672913 l-0.9187601506710052, 6.737574338912964 0.0, 3.7771251797676086 m-90.03849983215332, -15.312669277191162 l1.5312670171260834, 0.7145912200212479 23.275258541107178, 6.227152347564697 l5.614645481109619, 0.9187601506710052 m-12.250136137008667, -25.010693073272705 l-0.3062533959746361, 5.512561202049255 0.0, 13.066811561584473 l-1.020844653248787, 3.675040602684021 -1.1229290813207626, 1.4291824400424957 l-1.020844653248787, 4.389632046222687 m0.6125067919492722, -26.133623123168945 l0.5104223266243935, -0.8166757225990295 0.3062533959746361, -5.512561202049255 l1.7354358732700348, -9.902192950248718 0.20416893064975739, -3.368787169456482 l-4.593800902366638, -0.40833786129951477 -5.920898914337158, -1.4291824400424957 l2.8583648800849915, 0.10208446532487869 13.373064994812012, 3.368787169456482 l0.40833786129951477, 0.5104223266243935 -0.6125067919492722, 0.3062533959746361 m-7.043827772140503, 10.310530662536621 l12.86264181137085, 0.6125067919492722 10.106362104415894, 1.633351445198059 l10.004277229309082, 1.1229290813207626 22.254412174224854, 3.5729563236236572 " fill="none" stroke="black" stroke-width="1" /></svg>