<?xml version="1.0" encoding="utf-8" ?>
<svg baseProfile="full" height="40.11491775512695" version="1.1" width="60.32763931900263" xmlns="http://www.w3.org/2000/svg" xmlns:ev="http://www.w3.org/2001/xml-events" xmlns:xlink="http://www.w3.org/1999/xlink"><defs /><rect fill="white" height="40.11491775512695" width="60.32763931900263" x="0" y="0" /><path d="M14.085517339408398, 21.741852685809135 m-4.593800902366638, -0.20416893064975739 l-1.020844653248787, 0.3062533959746361 -1.020844653248787, 0.8166757225990295 l-1.2250135838985443, 1.633351445198059 -1.1229290813207626, 2.7562806010246277 l-0.10208446532487869, 2.7562806010246277 0.3062533959746361, 1.5312670171260834 l1.4291824400424957, 2.1437737345695496 2.65419602394104, 1.5312670171260834 l5.002138614654541, 0.10208446532487869 2.65419602394104, -1.8375203013420105 l1.1229290813207626, -1.5312670171260834 0.40833786129951477, -1.1229290813207626 l0.3062533959746361, -4.900054335594177 -0.8166757225990295, -2.8583648800849915 l-1.32709801197052, -1.633351445198059 -1.5312670171260834, -0.8166757225990295 m37.26082801818848, 1.2250135838985443 l-5.410476326942444, 0.7145912200212479 -2.5521114468574524, 1.1229290813207626 l-0.8166757225990295, 1.020844653248787 -0.3062533959746361, 1.020844653248787 l0.0, 2.2458581626415253 0.6125067919492722, 2.1437737345695496 l0.7145912200212479, 1.020844653248787 2.960449457168579, 0.7145912200212479 l1.8375203013420105, 0.0 1.633351445198059, -0.40833786129951477 l2.5521114468574524, -1.7354358732700348 1.2250135838985443, -2.7562806010246277 l0.40833786129951477, -2.1437737345695496 -0.10208446532487869, -1.633351445198059 l-2.041689306497574, -4.083378612995148 -2.1437737345695496, -1.020844653248787 l-1.5312670171260834, 0.0 -1.1229290813207626, 0.6125067919492722 m-31.952435970306396, 2.8583648800849915 l7.350081205368042, -1.5312670171260834 14.393908977508545, -0.20416893064975739 l8.575094938278198, -1.8375203013420105 1.633351445198059, 0.20416893064975739 l2.5521114468574524, 1.1229290813207626 m-22.6627516746521, 0.0 l1.4291824400424957, -1.32709801197052 m6.431320905685425, 2.8583648800849915 l-0.9187601506710052, -1.020844653248787 -0.40833786129951477, -1.020844653248787 l-0.20416893064975739, -5.818814635276794 1.8375203013420105, -2.65419602394104 l-3.98129403591156, -0.10208446532487869 -0.40833786129951477, -1.5312670171260834 l1.020844653248787, -0.3062533959746361 3.266702890396118, 0.10208446532487869 l1.2250135838985443, 1.32709801197052 m-10.412615537643433, 8.26884150505066 l1.32709801197052, -3.266702890396118 -0.3062533959746361, -0.6125067919492722 l-3.4708717465400696, -1.1229290813207626 -0.40833786129951477, -0.5104223266243935 l-0.6125067919492722, -1.020844653248787 -0.7145912200212479, -4.900054335594177 l-0.3062533959746361, -1.020844653248787 -0.5104223266243935, -0.40833786129951477 " fill="none" stroke="black" stroke-width="1" /></svg>