<?xml version="1.0" encoding="utf-8" ?>
<svg baseProfile="full" height="36.541959792375565" version="1.1" width="48.281673081219196" xmlns="http://www.w3.org/2000/svg" xmlns:ev="http://www.w3.org/2001/xml-events" xmlns:xlink="http://www.w3.org/1999/xlink"><defs /><rect fill="white" height="36.541959792375565" width="48.281673081219196" x="0" y="0" /><path d="M11.431319490075111, 20.414753295481205 m-1.633351445198059, 2.041689306497574 l-1.1229290813207626, 2.041689306497574 -0.20416893064975739, 2.1437737345695496 l0.7145912200212479, 1.7354358732700348 2.7562806010246277, 1.1229290813207626 l2.347942590713501, 0.0 0.9187601506710052, -0.40833786129951477 l2.5521114468574524, -1.9396047294139862 1.32709801197052, -2.041689306497574 l-0.20416893064975739, -2.4500271677970886 -0.5104223266243935, -0.6125067919492722 l-1.8375203013420105, -1.020844653248787 -3.368787169456482, -0.6125067919492722 m30.114917755126953, 4.900054335594177 l-1.2250135838985443, -0.3062533959746361 -4.1854628920555115, 0.0 l-4.287547469139099, 1.4291824400424957 -1.633351445198059, 1.32709801197052 l-0.3062533959746361, 0.9187601506710052 0.10208446532487869, 1.4291824400424957 l1.020844653248787, 0.6125067919492722 2.347942590713501, 0.8166757225990295 l1.4291824400424957, 0.0 3.266702890396118, -2.4500271677970886 l0.9187601506710052, -1.4291824400424957 0.3062533959746361, -1.8375203013420105 l-0.10208446532487869, -0.9187601506710052 -1.5312670171260834, -1.5312670171260834 m-27.15446710586548, -3.5729563236236572 l2.65419602394104, -2.2458581626415253 11.739712953567505, -5.410476326942444 m0.10208446532487869, 0.10208446532487869 l1.2250135838985443, 0.3062533959746361 8.26884150505066, 0.0 l3.1646183133125305, 6.1250680685043335 3.0625340342521667, 4.389632046222687 l0.7145912200212479, 1.7354358732700348 -0.7145912200212479, -0.20416893064975739 m-15.312669277191162, -12.352219820022583 l-2.2458581626415253, -0.20416893064975739 -2.5521114468574524, -2.041689306497574 l-7.656334638595581, -3.7771251797676086 m-0.40833786129951477, -1.2250135838985443 l1.633351445198059, 0.3062533959746361 4.083378612995148, 0.0 l-15.006415843963623, 0.20416893064975739 m31.237845420837402, 6.941743493080139 l1.1229290813207626, -0.3062533959746361 0.40833786129951477, -0.5104223266243935 " fill="none" stroke="black" stroke-width="1" /></svg>