<?xml version="1.0" encoding="utf-8" ?>
<svg baseProfile="full" height="35.725284703075886" version="1.1" width="70.12774880975485" xmlns="http://www.w3.org/2000/svg" xmlns:ev="http://www.w3.org/2001/xml-events" xmlns:xlink="http://www.w3.org/1999/xlink"><defs /><rect fill="white" height="35.725284703075886" width="70.12774880975485" x="0" y="0" /><path d="M13.677179366350174, 14.085517302155495 m-3.368787169456482, 1.1229290813207626 l-2.2458581626415253, 1.4291824400424957 -3.0625340342521667, 4.79796975851059 l2.7562806010246277, 3.0625340342521667 2.1437737345695496, 0.9187601506710052 l2.347942590713501, 0.5104223266243935 3.8792094588279724, -0.10208446532487869 l2.347942590713501, -0.8166757225990295 2.2458581626415253, -1.8375203013420105 l0.40833786129951477, -0.7145912200212479 -0.20416893064975739, -1.020844653248787 l-1.020844653248787, -1.5312670171260834 -1.7354358732700348, -1.5312670171260834 l-1.32709801197052, -0.7145912200212479 -5.410476326942444, -1.1229290813207626 m44.91716384887695, 2.041689306497574 l-4.593800902366638, -0.20416893064975739 -6.533405780792236, 0.9187601506710052 l-5.410476326942444, 1.4291824400424957 -1.1229290813207626, 0.7145912200212479 l-0.20416893064975739, 0.5104223266243935 0.40833786129951477, 3.98129403591156 l1.2250135838985443, 0.9187601506710052 5.104222893714905, 1.8375203013420105 l8.983432650566101, 2.041689306497574 1.8375203013420105, 0.0 l5.818814635276794, -2.7562806010246277 2.960449457168579, -3.8792094588279724 l0.3062533959746361, -1.5312670171260834 -2.4500271677970886, -1.8375203013420105 l-7.656334638595581, -7.96258807182312 -2.347942590713501, -0.5104223266243935 l-1.1229290813207626, 0.20416893064975739 -0.6125067919492722, 0.6125067919492722 m-29.706578254699707, 7.247996926307678 l14.189740419387817, 0.0 11.02512240409851, 0.9187601506710052 m-3.5729563236236572, -1.4291824400424957 l2.960449457168579, -9.902192950248718 1.8375203013420105, -4.389632046222687 l0.6125067919492722, -0.40833786129951477 5.206307768821716, 1.633351445198059 m-4.900054335594177, -1.7354358732700348 " fill="none" stroke="black" stroke-width="1" /></svg>