<?xml version="1.0" encoding="utf-8" ?>
<svg baseProfile="full" height="25.210584849119186" version="1.1" width="37.15446747839451" xmlns="http://www.w3.org/2000/svg" xmlns:ev="http://www.w3.org/2001/xml-events" xmlns:xlink="http://www.w3.org/1999/xlink"><defs /><rect fill="white" height="25.210584849119186" width="37.15446747839451" x="0" y="0" /><path d="M5.408337600529194, 12.860502935945988 m0.0, -1.2250135838985443 l0.5104223266243935, -0.7145912200212479 2.347942590713501, -1.4291824400424957 l1.32709801197052, -0.40833786129951477 1.2250135838985443, 0.0 l2.2458581626415253, 0.8166757225990295 2.041689306497574, 1.8375203013420105 l1.020844653248787, 2.2458581626415253 -0.20416893064975739, 2.960449457168579 l-1.1229290813207626, 1.633351445198059 -1.9396047294139862, 1.1229290813207626 l-2.8583648800849915, 0.40833786129951477 -1.8375203013420105, -0.40833786129951477 l-1.7354358732700348, -1.2250135838985443 -1.4291824400424957, -2.347942590713501 l0.0, -2.1437737345695496 1.633351445198059, -2.347942590713501 l1.32709801197052, -0.3062533959746361 m2.5521114468574524, 2.960449457168579 l0.40833786129951477, 0.0 0.0, 0.7145912200212479 m-2.8583648800849915, -4.695885181427002 l5.920898914337158, 8.166757225990295 m0.40833786129951477, -8.575094938278198 l-5.512561202049255, 8.677179217338562 0.0, -0.20416893064975739 m-3.8792094588279724, -3.98129403591156 l6.533405780792236, 0.0 5.614645481109619, 1.32709801197052 m5.818814635276794, -2.347942590713501 l-0.6125067919492722, -0.7145912200212479 0.3062533959746361, -0.7145912200212479 l0.5104223266243935, -0.7145912200212479 1.4291824400424957, -0.9187601506710052 l2.8583648800849915, -0.5104223266243935 2.041689306497574, 0.7145912200212479 l2.2458581626415253, 2.65419602394104 0.40833786129951477, 1.5312670171260834 l-0.7145912200212479, 2.347942590713501 -1.32709801197052, 1.5312670171260834 l-1.32709801197052, 0.9187601506710052 -1.020844653248787, 0.3062533959746361 l-2.347942590713501, 0.0 -2.4500271677970886, -0.6125067919492722 l-1.633351445198059, -1.7354358732700348 -0.40833786129951477, -2.2458581626415253 l0.40833786129951477, -1.633351445198059 1.4291824400424957, -1.5312670171260834 l1.32709801197052, -0.6125067919492722 1.32709801197052, -0.20416893064975739 m-1.5312670171260834, 0.40833786129951477 l6.227152347564697, 7.4521660804748535 m-7.656334638595581, 1.1229290813207626 l4.4917163252830505, -4.695885181427002 2.65419602394104, -3.368787169456482 l0.20416893064975739, -0.40833786129951477 -0.40833786129951477, -0.10208446532487869 m-8.370925784111023, 4.79796975851059 l1.5312670171260834, -0.8166757225990295 3.675040602684021, -1.020844653248787 l5.206307768821716, 0.0 m-21.23356819152832, 0.0 l12.250136137008667, 0.3062533959746361 2.2458581626415253, -0.8166757225990295 l1.32709801197052, -0.8166757225990295 1.020844653248787, -0.9187601506710052 l0.6125067919492722, -1.2250135838985443 0.6125067919492722, -3.98129403591156 l1.2250135838985443, -2.1437737345695496 -6.6354900598526, 2.041689306497574 l-1.7354358732700348, 0.20416893064975739 -0.9187601506710052, -0.20416893064975739 l-1.8375203013420105, 1.32709801197052 -8.575094938278198, 7.554250359535217 m3.4708717465400696, -2.8583648800849915 l2.041689306497574, -2.041689306497574 1.8375203013420105, -0.6125067919492722 l9.391770362854004, -0.20416893064975739 2.4500271677970886, -0.6125067919492722 " fill="none" stroke="black" stroke-width="1" /></svg>