<?xml version="1.0" encoding="utf-8" ?>
<svg baseProfile="full" height="34.70443993806839" version="1.1" width="32.25441310554743" xmlns="http://www.w3.org/2000/svg" xmlns:ev="http://www.w3.org/2001/xml-events" xmlns:xlink="http://www.w3.org/1999/xlink"><defs /><rect fill="white" height="34.70443993806839" width="32.25441310554743" x="0" y="0" /><path d="M14.28968608379364, 19.802247285842896 m-1.020844653248787, -1.8375203013420105 l-1.9396047294139862, -0.7145912200212479 -2.4500271677970886, 0.0 l-2.2458581626415253, 0.5104223266243935 -1.4291824400424957, 1.9396047294139862 l-0.20416893064975739, 2.2458581626415253 0.40833786129951477, 1.9396047294139862 l1.7354358732700348, 1.4291824400424957 1.9396047294139862, 0.6125067919492722 l3.7771251797676086, -0.20416893064975739 1.633351445198059, -1.5312670171260834 l1.633351445198059, -2.5521114468574524 1.020844653248787, -2.65419602394104 l0.40833786129951477, -3.1646183133125305 m8.166757225990295, 6.431320905685425 l-4.083378612995148, -2.65419602394104 -2.960449457168579, -0.9187601506710052 l-2.7562806010246277, 0.0 -2.7562806010246277, 1.2250135838985443 l-1.633351445198059, 2.5521114468574524 0.0, 2.4500271677970886 l1.2250135838985443, 2.65419602394104 2.041689306497574, 1.633351445198059 l1.8375203013420105, 0.5104223266243935 1.5312670171260834, 0.0 l5.104222893714905, -4.1854628920555115 1.9396047294139862, -2.1437737345695496 l0.3062533959746361, -2.7562806010246277 -0.7145912200212479, -4.083378612995148 l-1.32709801197052, -2.8583648800849915 m-12.352219820022583, 4.4917163252830505 l1.2250135838985443, -2.8583648800849915 4.083378612995148, -5.30839204788208 l2.7562806010246277, -2.65419602394104 3.266702890396118, -2.347942590713501 m-1.2250135838985443, 1.8375203013420105 l0.6125067919492722, 0.8166757225990295 0.3062533959746361, 1.8375203013420105 l0.5104223266243935, 8.064672350883484 1.2250135838985443, 7.247996926307678 m-3.266702890396118, -17.660611867904663 l5.410476326942444, -0.10208446532487869 m-4.695885181427002, 1.4291824400424957 l5.920898914337158, -0.6125067919492722 " fill="none" stroke="black" stroke-width="1" /></svg>