<?xml version="1.0" encoding="utf-8" ?>
<svg baseProfile="full" height="51.2421228736639" version="1.1" width="71.86318568885326" xmlns="http://www.w3.org/2000/svg" xmlns:ev="http://www.w3.org/2001/xml-events" xmlns:xlink="http://www.w3.org/1999/xlink"><defs /><rect fill="white" height="51.2421228736639" width="71.86318568885326" x="0" y="0" /><path d="M15.820952989161015, 25.21272335201502 m-1.8375203013420105, 0.3062533959746361 l-1.8375203013420105, 1.020844653248787 -3.98129403591156, 3.0625340342521667 l-2.2458581626415253, 2.5521114468574524 -0.6125067919492722, 1.2250135838985443 l-0.3062533959746361, 1.633351445198059 0.10208446532487869, 4.900054335594177 l0.8166757225990295, 2.2458581626415253 1.2250135838985443, 1.8375203013420105 l1.32709801197052, 1.32709801197052 1.633351445198059, 0.7145912200212479 l3.98129403591156, 0.20416893064975739 2.5521114468574524, -0.8166757225990295 l2.347942590713501, -1.2250135838985443 2.1437737345695496, -1.7354358732700348 l3.1646183133125305, -3.7771251797676086 1.1229290813207626, -2.1437737345695496 l0.6125067919492722, -2.2458581626415253 0.3062533959746361, -2.1437737345695496 l-0.20416893064975739, -3.675040602684021 -0.8166757225990295, -1.4291824400424957 l-1.32709801197052, -1.2250135838985443 -1.7354358732700348, -1.020844653248787 l-1.8375203013420105, -0.6125067919492722 -4.389632046222687, -0.20416893064975739 l-2.4500271677970886, 0.6125067919492722 -2.347942590713501, 1.020844653248787 l-1.1229290813207626, 0.9187601506710052 m11.637629270553589, -3.675040602684021 l3.0625340342521667, 0.7145912200212479 9.902192950248718, 0.10208446532487869 l7.860503792762756, -1.1229290813207626 7.656334638595581, -0.20416893064975739 m0.40833786129951477, -0.40833786129951477 l-5.716729760169983, 5.716729760169983 -1.9396047294139862, 3.266702890396118 l-0.9187601506710052, 3.7771251797676086 0.10208446532487869, 5.002138614654541 l0.5104223266243935, 1.5312670171260834 0.8166757225990295, 1.32709801197052 l2.1437737345695496, 2.1437737345695496 1.5312670171260834, 0.7145912200212479 l3.7771251797676086, 0.5104223266243935 1.9396047294139862, 0.0 l3.5729563236236572, -1.020844653248787 3.0625340342521667, -1.2250135838985443 l2.2458581626415253, -1.633351445198059 2.2458581626415253, -2.5521114468574524 l1.020844653248787, -1.8375203013420105 1.633351445198059, -5.104222893714905 l0.20416893064975739, -6.839659214019775 -1.4291824400424957, -3.4708717465400696 l-1.1229290813207626, -1.4291824400424957 -3.1646183133125305, -1.32709801197052 l-3.8792094588279724, 0.0 -3.7771251797676086, 1.633351445198059 l-5.30839204788208, 3.0625340342521667 m2.1437737345695496, -2.1437737345695496 l-1.633351445198059, -1.4291824400424957 -3.4708717465400696, -1.7354358732700348 l-5.104222893714905, -3.7771251797676086 -3.266702890396118, -1.8375203013420105 l-7.96258807182312, -2.5521114468574524 -1.1229290813207626, -0.10208446532487869 m9.59593951702118, 3.8792094588279724 l-1.8375203013420105, 0.7145912200212479 -2.8583648800849915, 1.8375203013420105 l-10.106362104415894, 7.4521660804748535 m4.4917163252830505, -14.291825294494629 l-0.6125067919492722, 0.40833786129951477 -3.368787169456482, 0.40833786129951477 l-0.8166757225990295, -0.8166757225990295 -1.4291824400424957, -0.7145912200212479 l-3.1646183133125305, -0.3062533959746361 -6.533405780792236, 2.8583648800849915 m5.410476326942444, -2.347942590713501 l8.064672350883484, -2.8583648800849915 11.535544395446777, -1.8375203013420105 " fill="none" stroke="black" stroke-width="1" /></svg>