<?xml version="1.0" encoding="utf-8" ?>
<svg baseProfile="full" height="25.312669463455677" version="1.1" width="28.78354113548994" xmlns="http://www.w3.org/2000/svg" xmlns:ev="http://www.w3.org/2001/xml-events" xmlns:xlink="http://www.w3.org/1999/xlink"><defs /><rect fill="white" height="25.312669463455677" width="28.78354113548994" x="0" y="0" /><path d="M9.083378612995148, 6.225013583898544 m-4.083378612995148, -1.2250135838985443 m5.002138614654541, 1.1229290813207626 l3.98129403591156, -0.7145912200212479 m-4.79796975851059, 0.9187601506710052 l-0.9187601506710052, 0.40833786129951477 -0.5104223266243935, 0.9187601506710052 l0.8166757225990295, 1.32709801197052 1.8375203013420105, -0.20416893064975739 l0.40833786129951477, -0.5104223266243935 0.0, -0.40833786129951477 l-0.7145912200212479, -0.9187601506710052 m-0.8166757225990295, 2.8583648800849915 l-0.3062533959746361, 5.920898914337158 m1.1229290813207626, -0.9187601506710052 l-1.9396047294139862, 0.7145912200212479 -1.1229290813207626, 1.020844653248787 l-1.2250135838985443, 1.7354358732700348 -0.10208446532487869, 0.40833786129951477 l0.3062533959746361, 0.6125067919492722 0.7145912200212479, 0.6125067919492722 l1.9396047294139862, 0.40833786129951477 2.041689306497574, -0.20416893064975739 l0.9187601506710052, -0.40833786129951477 0.7145912200212479, -0.6125067919492722 l0.5104223266243935, -1.1229290813207626 -0.5104223266243935, -1.1229290813207626 l-1.32709801197052, -1.1229290813207626 m0.0, -1.8375203013420105 l1.9396047294139862, -0.3062533959746361 5.30839204788208, -1.5312670171260834 m0.20416893064975739, -0.40833786129951477 l-0.5104223266243935, -1.9396047294139862 m1.4291824400424957, -1.020844653248787 l-3.1646183133125305, 0.20416893064975739 -0.3062533959746361, -0.40833786129951477 l0.3062533959746361, -0.40833786129951477 1.32709801197052, -0.5104223266243935 l3.5729563236236572, 0.0 0.0, 0.40833786129951477 l-1.1229290813207626, 0.6125067919492722 m-1.32709801197052, 3.5729563236236572 l1.32709801197052, 1.32709801197052 m0.9187601506710052, -0.8166757225990295 l-1.2250135838985443, 0.9187601506710052 -0.7145912200212479, 1.32709801197052 l0.20416893064975739, 1.8375203013420105 1.5312670171260834, 1.2250135838985443 l1.7354358732700348, 0.0 0.6125067919492722, -0.3062533959746361 l0.7145912200212479, -1.2250135838985443 0.0, -1.633351445198059 l-0.3062533959746361, -0.9187601506710052 -0.8166757225990295, -0.6125067919492722 l-1.2250135838985443, -0.20416893064975739 " fill="none" stroke="black" stroke-width="1" /></svg>