<?xml version="1.0" encoding="utf-8" ?>
<svg baseProfile="full" height="42.156606540083885" version="1.1" width="57.060937248170376" xmlns="http://www.w3.org/2000/svg" xmlns:ev="http://www.w3.org/2001/xml-events" xmlns:xlink="http://www.w3.org/1999/xlink"><defs /><rect fill="white" height="42.156606540083885" width="57.060937248170376" x="0" y="0" /><path d="M15.923037491738796, 28.07108949869871 m0.0, -1.2250135838985443 l-0.6125067919492722, -0.9187601506710052 -0.7145912200212479, -0.20416893064975739 l-3.1646183133125305, 0.10208446532487869 -3.98129403591156, 1.7354358732700348 l-2.1437737345695496, 2.65419602394104 -0.3062533959746361, 3.368787169456482 l0.9187601506710052, 1.9396047294139862 1.32709801197052, 1.2250135838985443 l1.020844653248787, 0.3062533959746361 2.4500271677970886, 0.10208446532487869 l4.287547469139099, -2.347942590713501 0.5104223266243935, -0.7145912200212479 l0.40833786129951477, -3.5729563236236572 -0.10208446532487869, -5.512561202049255 l-0.5104223266243935, -0.8166757225990295 m2.1437737345695496, 6.022983193397522 l3.0625340342521667, 0.8166757225990295 5.002138614654541, -0.7145912200212479 l12.964726686477661, 0.0 7.96258807182312, -1.4291824400424957 m3.675040602684021, -1.2250135838985443 l-4.083378612995148, -0.3062533959746361 -0.8166757225990295, 0.40833786129951477 l-0.40833786129951477, 1.4291824400424957 0.0, 3.1646183133125305 l0.10208446532487869, 1.020844653248787 0.8166757225990295, 1.7354358732700348 l4.287547469139099, -2.65419602394104 1.9396047294139862, -1.9396047294139862 l0.10208446532487869, -3.4708717465400696 m-19.498132467269897, 2.65419602394104 l-1.020844653248787, -4.593800902366638 -0.7145912200212479, -8.575094938278198 l0.0, -1.633351445198059 0.3062533959746361, -0.7145912200212479 m-7.043827772140503, 0.10208446532487869 l8.983432650566101, -0.6125067919492722 4.593800902366638, 1.1229290813207626 l6.737574338912964, 0.8166757225990295 1.5312670171260834, -0.8166757225990295 l1.8375203013420105, -1.633351445198059 1.4291824400424957, -2.041689306497574 l0.20416893064975739, -4.593800902366638 -0.5104223266243935, -1.5312670171260834 " fill="none" stroke="black" stroke-width="1" /></svg>