<?xml version="1.0" encoding="utf-8" ?>
<svg baseProfile="full" height="44.70871660858393" version="1.1" width="62.57349781692028" xmlns="http://www.w3.org/2000/svg" xmlns:ev="http://www.w3.org/2001/xml-events" xmlns:xlink="http://www.w3.org/1999/xlink"><defs /><rect fill="white" height="44.70871660858393" width="62.57349781692028" x="0" y="0" /><path d="M19.393909610807896, 22.45644222944975 m-0.5104223266243935, -0.5104223266243935 l-1.4291824400424957, -0.3062533959746361 -2.1437737345695496, 0.0 l-3.0625340342521667, 0.7145912200212479 -4.900054335594177, 3.0625340342521667 l-1.5312670171260834, 2.4500271677970886 -0.8166757225990295, 3.266702890396118 l0.0, 4.287547469139099 1.020844653248787, 2.5521114468574524 l1.1229290813207626, 1.020844653248787 2.041689306497574, 0.7145912200212479 l3.675040602684021, 0.0 4.389632046222687, -3.368787169456482 l1.2250135838985443, -1.9396047294139862 1.8375203013420105, -4.593800902366638 l0.40833786129951477, -2.1437737345695496 -0.10208446532487869, -1.7354358732700348 l-2.041689306497574, -3.1646183133125305 m29.400324821472168, 2.041689306497574 l-0.6125067919492722, -0.10208446532487869 -1.5312670171260834, 1.020844653248787 l-1.9396047294139862, 3.0625340342521667 -0.8166757225990295, 2.4500271677970886 l-0.10208446532487869, 3.5729563236236572 0.9187601506710052, 1.7354358732700348 l2.2458581626415253, 1.4291824400424957 2.347942590713501, 0.0 l3.368787169456482, -0.8166757225990295 2.960449457168579, -1.9396047294139862 l2.041689306497574, -2.960449457168579 0.7145912200212479, -2.4500271677970886 l-0.20416893064975739, -2.960449457168579 -1.32709801197052, -2.2458581626415253 l-1.1229290813207626, -1.1229290813207626 -1.2250135838985443, -0.6125067919492722 l-1.4291824400424957, -0.20416893064975739 -3.8792094588279724, 0.3062533959746361 l-1.8375203013420105, 0.9187601506710052 -0.9187601506710052, 1.633351445198059 m-29.502410888671875, -3.98129403591156 l1.4291824400424957, -4.287547469139099 1.2250135838985443, -7.96258807182312 m-0.6125067919492722, 4.4917163252830505 l18.681457042694092, 0.10208446532487869 12.86264181137085, -0.3062533959746361 l0.20416893064975739, 5.512561202049255 0.6125067919492722, 3.98129403591156 m-32.46285915374756, -15.006415843963623 l2.65419602394104, 0.10208446532487869 0.7145912200212479, -0.40833786129951477 l1.4291824400424957, -1.1229290813207626 0.40833786129951477, -1.633351445198059 " fill="none" stroke="black" stroke-width="1" /></svg>