<?xml version="1.0" encoding="utf-8" ?>
<svg baseProfile="full" height="40.931592620909214" version="1.1" width="57.57135935127735" xmlns="http://www.w3.org/2000/svg" xmlns:ev="http://www.w3.org/2001/xml-events" xmlns:xlink="http://www.w3.org/1999/xlink"><defs /><rect fill="white" height="40.931592620909214" width="57.57135935127735" x="0" y="0" /><path d="M19.59807839244604, 23.171034678816795 m-0.10208446532487869, -2.1437737345695496 l-1.7354358732700348, -1.4291824400424957 -3.0625340342521667, -0.8166757225990295 l-2.4500271677970886, 0.0 -2.5521114468574524, 1.2250135838985443 l-1.32709801197052, 1.1229290813207626 -1.2250135838985443, 1.2250135838985443 l-1.5312670171260834, 2.8583648800849915 -0.6125067919492722, 2.960449457168579 l0.10208446532487869, 2.7562806010246277 1.5312670171260834, 1.9396047294139862 l4.1854628920555115, 2.041689306497574 3.4708717465400696, 0.7145912200212479 l3.5729563236236572, 0.3062533959746361 3.266702890396118, -0.3062533959746361 l1.8375203013420105, -1.1229290813207626 1.633351445198059, -2.1437737345695496 l0.5104223266243935, -2.960449457168579 0.0, -3.7771251797676086 l-2.1437737345695496, -2.960449457168579 -2.4500271677970886, -1.633351445198059 m-1.2250135838985443, -0.9187601506710052 l3.5729563236236572, -0.6125067919492722 15.823091268539429, 0.0 l2.041689306497574, -0.40833786129951477 m2.65419602394104, 1.1229290813207626 l0.0, -0.5104223266243935 -0.9187601506710052, -0.3062533959746361 l-2.5521114468574524, -0.10208446532487869 -1.2250135838985443, 1.1229290813207626 l-2.347942590713501, 3.675040602684021 -1.4291824400424957, 2.960449457168579 l-0.40833786129951477, 1.9396047294139862 0.0, 2.1437737345695496 l1.4291824400424957, 2.7562806010246277 1.8375203013420105, 1.1229290813207626 l2.2458581626415253, 0.7145912200212479 3.8792094588279724, 0.0 l1.7354358732700348, -0.8166757225990295 1.633351445198059, -1.5312670171260834 l0.9187601506710052, -1.32709801197052 0.6125067919492722, -2.041689306497574 l0.0, -2.65419602394104 -0.40833786129951477, -2.041689306497574 l-1.5312670171260834, -2.7562806010246277 -2.7562806010246277, -2.5521114468574524 m-4.287547469139099, -1.020844653248787 l2.2458581626415253, -0.9187601506710052 2.2458581626415253, -2.1437737345695496 l2.041689306497574, -3.98129403591156 0.40833786129951477, -1.1229290813207626 l-0.20416893064975739, -0.5104223266243935 m-4.900054335594177, -5.30839204788208 l-0.7145912200212479, 0.40833786129951477 1.32709801197052, 3.266702890396118 l1.1229290813207626, 1.1229290813207626 2.2458581626415253, 0.40833786129951477 l3.0625340342521667, -0.10208446532487869 2.1437737345695496, -1.633351445198059 l1.7354358732700348, -2.347942590713501 m-25.010693073272705, 12.86264181137085 l0.7145912200212479, -3.1646183133125305 0.5104223266243935, -0.3062533959746361 l4.695885181427002, -0.3062533959746361 0.5104223266243935, 0.10208446532487869 l0.0, 3.98129403591156 m-3.4708717465400696, 0.8166757225990295 l0.0, 3.1646183133125305 1.7354358732700348, 0.3062533959746361 l0.10208446532487869, 0.6125067919492722 -1.1229290813207626, 1.7354358732700348 l0.6125067919492722, 0.40833786129951477 2.65419602394104, -0.10208446532487869 l-0.40833786129951477, -1.2250135838985443 0.0, -1.32709801197052 l-0.6125067919492722, -0.20416893064975739 -1.9396047294139862, 0.40833786129951477 m-15.210585594177246, 2.65419602394104 l-1.2250135838985443, 0.3062533959746361 0.10208446532487869, 1.1229290813207626 l0.5104223266243935, -0.40833786129951477 0.0, -0.7145912200212479 l-1.020844653248787, -0.10208446532487869 m0.7145912200212479, -0.40833786129951477 l-1.2250135838985443, -5.920898914337158 0.0, -3.368787169456482 m1.5312670171260834, 8.575094938278198 l7.96258807182312, 0.5104223266243935 1.1229290813207626, 0.20416893064975739 l1.020844653248787, 0.6125067919492722 m-9.28968608379364, 0.6125067919492722 l-1.1229290813207626, 5.104222893714905 m-0.7145912200212479, -5.614645481109619 l-2.65419602394104, -1.7354358732700348 -1.4291824400424957, -1.32709801197052 l-1.5312670171260834, -2.1437737345695496 " fill="none" stroke="black" stroke-width="1" /></svg>