<?xml version="1.0" encoding="utf-8" ?>
<svg baseProfile="full" height="32.35649775713682" version="1.1" width="35.521115995943546" xmlns="http://www.w3.org/2000/svg" xmlns:ev="http://www.w3.org/2001/xml-events" xmlns:xlink="http://www.w3.org/1999/xlink"><defs /><rect fill="white" height="32.35649775713682" width="35.521115995943546" x="0" y="0" /><path d="M14.698023982346058, 16.84179775416851 m-1.8375203013420105, -0.5104223266243935 l-4.593800902366638, 0.5104223266243935 -1.4291824400424957, 0.7145912200212479 l-1.7354358732700348, 2.347942590713501 -0.10208446532487869, 3.7771251797676086 l1.2250135838985443, 1.5312670171260834 2.5521114468574524, 0.8166757225990295 l4.287547469139099, 0.10208446532487869 1.7354358732700348, -0.7145912200212479 l0.7145912200212479, -0.7145912200212479 1.4291824400424957, -2.65419602394104 l0.20416893064975739, -1.4291824400424957 -0.10208446532487869, -2.8583648800849915 l-0.7145912200212479, -0.5104223266243935 -2.7562806010246277, -0.10208446532487869 m16.94602131843567, -1.1229290813207626 l-2.1437737345695496, -0.10208446532487869 -3.8792094588279724, 1.5312670171260834 l-2.4500271677970886, 1.9396047294139862 -1.633351445198059, 2.65419602394104 l-0.20416893064975739, 2.4500271677970886 0.40833786129951477, 1.2250135838985443 l0.9187601506710052, 0.8166757225990295 2.041689306497574, 0.7145912200212479 l2.8583648800849915, 0.10208446532487869 1.4291824400424957, -1.4291824400424957 l0.7145912200212479, -1.7354358732700348 0.9187601506710052, -3.5729563236236572 l0.10208446532487869, -2.4500271677970886 -1.7354358732700348, -0.8166757225990295 l-2.7562806010246277, 0.0 m-12.658473253250122, -1.1229290813207626 l2.1437737345695496, 0.10208446532487869 2.960449457168579, -1.8375203013420105 l2.960449457168579, -1.2250135838985443 2.041689306497574, 1.32709801197052 l4.287547469139099, 1.9396047294139862 0.5104223266243935, 0.6125067919492722 l0.10208446532487869, 1.32709801197052 m-7.4521660804748535, -4.900054335594177 l0.6125067919492722, -2.041689306497574 0.5104223266243935, -0.7145912200212479 l0.9187601506710052, -0.40833786129951477 m-1.1229290813207626, -1.8375203013420105 l-0.6125067919492722, 0.20416893064975739 0.3062533959746361, 0.6125067919492722 l1.020844653248787, 0.6125067919492722 2.7562806010246277, 0.8166757225990295 l0.6125067919492722, 0.0 -0.10208446532487869, -0.6125067919492722 l-3.4708717465400696, -1.1229290813207626 m-6.941743493080139, 8.064672350883484 l-0.40833786129951477, -3.675040602684021 -0.6125067919492722, -2.041689306497574 l-1.1229290813207626, -1.7354358732700348 m-3.7771251797676086, -4.695885181427002 l-0.20416893064975739, 1.8375203013420105 0.7145912200212479, 2.5521114468574524 l1.633351445198059, 0.6125067919492722 1.7354358732700348, 0.0 " fill="none" stroke="black" stroke-width="1" /></svg>