<?xml version="1.0" encoding="utf-8" ?>
<svg baseProfile="full" height="55.12133188545704" version="1.1" width="63.39017294347286" xmlns="http://www.w3.org/2000/svg" xmlns:ev="http://www.w3.org/2001/xml-events" xmlns:xlink="http://www.w3.org/1999/xlink"><defs /><rect fill="white" height="55.12133188545704" width="63.39017294347286" x="0" y="0" /><path d="M35.216998904943466, 41.34206894785166 m0.5104223266243935, -1.7354358732700348 l1.2250135838985443, -1.4291824400424957 2.7562806010246277, -2.347942590713501 l2.041689306497574, -1.2250135838985443 3.1646183133125305, -1.020844653248787 l3.7771251797676086, -0.10208446532487869 4.389632046222687, 1.2250135838985443 l2.960449457168579, 2.041689306497574 1.5312670171260834, 2.347942590713501 l0.3062533959746361, 1.5312670171260834 -0.20416893064975739, 1.7354358732700348 l-1.9396047294139862, 2.65419602394104 -2.960449457168579, 1.4291824400424957 l-5.104222893714905, 0.8166757225990295 -6.431320905685425, 0.0 l-3.4708717465400696, -1.2250135838985443 -1.5312670171260834, -1.020844653248787 l-0.7145912200212479, -0.9187601506710052 -0.5104223266243935, -1.5312670171260834 l0.0, -1.633351445198059 0.20416893064975739, -0.6125067919492722 l0.6125067919492722, -0.20416893064975739 m12.964726686477661, 7.043827772140503 l-0.8166757225990295, -4.287547469139099 -0.10208446532487869, -6.227152347564697 m-15.51683783531189, 6.839659214019775 l3.5729563236236572, -0.3062533959746361 13.475148677825928, -2.7562806010246277 l8.983432650566101, -0.8166757225990295 m-15.721007585525513, 6.431320905685425 l1.1229290813207626, -1.7354358732700348 1.7354358732700348, -1.7354358732700348 l5.920898914337158, -4.083378612995148 2.8583648800849915, -3.0625340342521667 l0.5104223266243935, 0.0 m-2.7562806010246277, 9.800108671188354 l-8.677179217338562, -6.1250680685043335 m-34.40246343612671, 8.983432650566101 l-0.9187601506710052, -0.8166757225990295 0.6125067919492722, -2.8583648800849915 l2.041689306497574, -3.266702890396118 4.593800902366638, -5.002138614654541 l1.1229290813207626, -0.6125067919492722 3.675040602684021, -0.6125067919492722 l2.5521114468574524, 0.0 3.5729563236236572, 0.8166757225990295 l3.1646183133125305, 1.9396047294139862 0.8166757225990295, 1.4291824400424957 l0.3062533959746361, 1.633351445198059 0.10208446532487869, 1.5312670171260834 l-0.40833786129951477, 1.5312670171260834 -1.2250135838985443, 1.7354358732700348 l-1.9396047294139862, 1.5312670171260834 -5.410476326942444, 2.347942590713501 l-2.347942590713501, 0.5104223266243935 -2.8583648800849915, 0.10208446532487869 l-6.022983193397522, -0.40833786129951477 -2.2458581626415253, -1.7354358732700348 l-0.20416893064975739, -0.8166757225990295 0.6125067919492722, -1.4291824400424957 m0.0, -0.6125067919492722 l0.7145912200212479, -0.40833786129951477 5.716729760169983, -0.5104223266243935 l13.883486986160278, -2.5521114468574524 3.8792094588279724, -0.10208446532487869 l1.020844653248787, 0.3062533959746361 m-15.210585594177246, 8.370925784111023 l-0.5104223266243935, -0.6125067919492722 -0.3062533959746361, -1.5312670171260834 l-0.5104223266243935, -8.983432650566101 m-4.593800902366638, 9.902192950248718 l1.7354358732700348, -1.1229290813207626 7.247996926307678, -8.064672350883484 l4.389632046222687, -3.0625340342521667 m1.5312670171260834, 9.085517525672913 l-0.7145912200212479, -0.3062533959746361 -3.98129403591156, -0.3062533959746361 l-4.79796975851059, -1.8375203013420105 -5.002138614654541, -2.4500271677970886 m34.504549503326416, -7.4521660804748535 l0.20416893064975739, -9.28968608379364 m-1.8375203013420105, 9.800108671188354 l-0.20416893064975739, -3.675040602684021 -1.2250135838985443, -5.410476326942444 m3.7771251797676086, 0.20416893064975739 l-11.637629270553589, -0.10208446532487869 -7.350081205368042, 0.5104223266243935 l-6.941743493080139, 1.633351445198059 -7.043827772140503, 2.4500271677970886 l-4.1854628920555115, 0.7145912200212479 -2.65419602394104, 0.0 l-0.8166757225990295, -0.10208446532487869 -1.5312670171260834, -1.4291824400424957 l-1.1229290813207626, -4.1854628920555115 0.7145912200212479, -3.98129403591156 l1.9396047294139862, -2.8583648800849915 8.677179217338562, -5.206307768821716 l9.085517525672913, -4.083378612995148 6.737574338912964, -2.2458581626415253 l9.391770362854004, -1.020844653248787 6.6354900598526, -0.10208446532487869 " fill="none" stroke="black" stroke-width="1" /></svg>