<?xml version="1.0" encoding="utf-8" ?>
<svg baseProfile="full" height="37.971142418682575" version="1.1" width="60.02138800919056" xmlns="http://www.w3.org/2000/svg" xmlns:ev="http://www.w3.org/2001/xml-events" xmlns:xlink="http://www.w3.org/1999/xlink"><defs /><rect fill="white" height="37.971142418682575" width="60.02138800919056" x="0" y="0" /><path d="M14.80010986328125, 12.350080721080303 m-4.083378612995148, 2.041689306497574 l-2.4500271677970886, 2.4500271677970886 -1.2250135838985443, 1.633351445198059 l-1.2250135838985443, 4.695885181427002 0.20416893064975739, 2.4500271677970886 l1.1229290813207626, 2.041689306497574 2.347942590713501, 2.1437737345695496 l4.900054335594177, 2.4500271677970886 3.266702890396118, 0.7145912200212479 l1.7354358732700348, 0.0 1.5312670171260834, -0.8166757225990295 l2.041689306497574, -2.7562806010246277 1.633351445198059, -5.716729760169983 l0.0, -1.1229290813207626 -0.8166757225990295, -4.083378612995148 l-1.2250135838985443, -3.0625340342521667 -0.7145912200212479, -1.020844653248787 l-1.633351445198059, -1.2250135838985443 -2.960449457168579, -0.9187601506710052 l-3.1646183133125305, -0.7145912200212479 -4.900054335594177, -0.20416893064975739 l2.347942590713501, -0.20416893064975739 m31.54409885406494, 6.941743493080139 l-2.347942590713501, 1.020844653248787 -1.32709801197052, 1.2250135838985443 l-1.633351445198059, 2.65419602394104 -0.5104223266243935, 1.633351445198059 l-0.40833786129951477, 3.8792094588279724 0.5104223266243935, 1.633351445198059 l0.7145912200212479, 1.2250135838985443 2.4500271677970886, 1.2250135838985443 l2.65419602394104, 0.40833786129951477 3.4708717465400696, -0.3062533959746361 l1.4291824400424957, -0.5104223266243935 4.287547469139099, -2.2458581626415253 l1.633351445198059, -1.32709801197052 1.020844653248787, -2.1437737345695496 l0.0, -0.6125067919492722 -1.020844653248787, -1.7354358732700348 l-1.633351445198059, -1.5312670171260834 -4.695885181427002, -2.65419602394104 l-6.329236626625061, -2.347942590713501 m-36.34207010269165, -5.002138614654541 l11.02512240409851, 1.020844653248787 28.27739715576172, 3.98129403591156 l3.5729563236236572, 0.10208446532487869 m-2.7562806010246277, 1.020844653248787 l-0.3062533959746361, -3.4708717465400696 0.20416893064975739, -10.20844578742981 " fill="none" stroke="black" stroke-width="1" /></svg>