<?xml version="1.0" encoding="utf-8" ?>
<svg baseProfile="full" height="50.52753169089556" version="1.1" width="76.76323723047972" xmlns="http://www.w3.org/2000/svg" xmlns:ev="http://www.w3.org/2001/xml-events" xmlns:xlink="http://www.w3.org/1999/xlink"><defs /><rect fill="white" height="50.52753169089556" width="76.76323723047972" x="0" y="0" /><path d="M27.866920083761215, 31.54196012765169 m-2.1437737345695496, -3.1646183133125305 l-2.4500271677970886, -2.347942590713501 -1.1229290813207626, -0.6125067919492722 l-2.960449457168579, -1.020844653248787 -6.533405780792236, -1.1229290813207626 l-1.5312670171260834, 0.0 -1.32709801197052, 0.5104223266243935 l-2.960449457168579, 2.347942590713501 -1.020844653248787, 1.633351445198059 l-0.6125067919492722, 2.65419602394104 -0.20416893064975739, 5.104222893714905 l0.8166757225990295, 2.347942590713501 1.8375203013420105, 3.368787169456482 l0.8166757225990295, 0.40833786129951477 18.47728729248047, 2.2458581626415253 l3.98129403591156, -0.20416893064975739 1.7354358732700348, -0.8166757225990295 l0.40833786129951477, -0.9187601506710052 0.0, -3.8792094588279724 l-0.40833786129951477, -4.79796975851059 -4.287547469139099, -7.758418917655945 l-1.633351445198059, -0.8166757225990295 -2.65419602394104, 0.0 l-2.5521114468574524, 0.40833786129951477 0.0, 0.5104223266243935 m49.40887928009033, 5.920898914337158 l0.0, -2.8583648800849915 -0.3062533959746361, -0.40833786129951477 l-4.900054335594177, -2.1437737345695496 -3.266702890396118, -0.20416893064975739 l-3.266702890396118, 0.3062533959746361 -4.4917163252830505, 2.5521114468574524 l-2.347942590713501, 3.675040602684021 0.0, 8.166757225990295 l0.8166757225990295, 2.8583648800849915 0.7145912200212479, 0.5104223266243935 l4.083378612995148, 1.5312670171260834 6.329236626625061, 0.0 l2.5521114468574524, -1.2250135838985443 2.2458581626415253, -1.7354358732700348 l2.2458581626415253, -4.79796975851059 0.40833786129951477, -3.4708717465400696 l-0.10208446532487869, -2.4500271677970886 -0.3062533959746361, -0.7145912200212479 l-2.960449457168579, -3.266702890396118 -4.083378612995148, -1.8375203013420105 l-1.9396047294139862, 0.0 -3.1646183133125305, 1.7354358732700348 m-41.54837608337402, -3.98129403591156 l4.900054335594177, -0.5104223266243935 32.66702890396118, 0.0 l2.8583648800849915, 0.9187601506710052 3.266702890396118, 0.0 l3.5729563236236572, 0.8166757225990295 m-26.950297355651855, -1.7354358732700348 l0.0, -8.064672350883484 -0.6125067919492722, -7.96258807182312 m0.0, 0.0 l-6.533405780792236, 0.10208446532487869 -0.40833786129951477, -0.40833786129951477 l-0.10208446532487869, -1.633351445198059 0.7145912200212479, -0.3062533959746361 l2.7562806010246277, 0.0 " fill="none" stroke="black" stroke-width="1" /></svg>