<?xml version="1.0" encoding="utf-8" ?>
<svg baseProfile="full" height="28.987709879875183" version="1.1" width="39.70657803118229" xmlns="http://www.w3.org/2000/svg" xmlns:ev="http://www.w3.org/2001/xml-events" xmlns:xlink="http://www.w3.org/1999/xlink"><defs /><rect fill="white" height="28.987709879875183" width="39.70657803118229" x="0" y="0" /><path d="M10.104223117232323, 10.002138651907444 m-3.98129403591156, 2.7562806010246277 l-0.9187601506710052, 1.020844653248787 -0.20416893064975739, 1.32709801197052 l0.9187601506710052, 1.9396047294139862 0.9187601506710052, 1.1229290813207626 l2.4500271677970886, 1.5312670171260834 4.287547469139099, 1.4291824400424957 l1.2250135838985443, 0.0 1.633351445198059, -2.7562806010246277 l0.3062533959746361, -3.0625340342521667 -1.1229290813207626, -2.960449457168579 l-2.8583648800849915, -2.2458581626415253 -3.266702890396118, -0.7145912200212479 m21.029398441314697, 2.5521114468574524 l-1.2250135838985443, 0.40833786129951477 -4.4917163252830505, 3.266702890396118 l-1.020844653248787, 1.7354358732700348 0.10208446532487869, 2.4500271677970886 l1.32709801197052, 1.8375203013420105 1.633351445198059, 1.1229290813207626 l3.4708717465400696, 1.1229290813207626 2.960449457168579, 0.10208446532487869 l0.8166757225990295, -0.5104223266243935 0.6125067919492722, -1.7354358732700348 l0.0, -5.410476326942444 -0.6125067919492722, -1.7354358732700348 l-1.2250135838985443, -1.4291824400424957 -6.329236626625061, -0.40833786129951477 m-15.618922710418701, 1.1229290813207626 l1.9396047294139862, -4.1854628920555115 0.9187601506710052, -4.593800902366638 m-2.7562806010246277, -0.10208446532487869 l1.5312670171260834, 0.0 4.287547469139099, 0.8166757225990295 m-5.30839204788208, 7.860503792762756 l2.7562806010246277, -1.9396047294139862 2.65419602394104, -0.8166757225990295 l2.4500271677970886, -0.20416893064975739 4.1854628920555115, 3.0625340342521667 l3.5729563236236572, 3.1646183133125305 " fill="none" stroke="black" stroke-width="1" /></svg>