<?xml version="1.0" encoding="utf-8" ?>
<svg baseProfile="full" height="27.04810529947281" version="1.1" width="31.948159411549568" xmlns="http://www.w3.org/2000/svg" xmlns:ev="http://www.w3.org/2001/xml-events" xmlns:xlink="http://www.w3.org/1999/xlink"><defs /><rect fill="white" height="27.04810529947281" width="31.948159411549568" x="0" y="0" /><path d="M5, 9.593800902366638 m5.30839204788208, -2.1437737345695496 l3.98129403591156, -2.4500271677970886 m-4.79796975851059, 3.368787169456482 l0.5104223266243935, 0.20416893064975739 0.6125067919492722, 2.2458581626415253 l0.3062533959746361, 3.1646183133125305 0.6125067919492722, 2.347942590713501 l-1.4291824400424957, -2.4500271677970886 -1.020844653248787, -0.6125067919492722 l-1.020844653248787, -0.10208446532487869 -1.5312670171260834, 3.5729563236236572 l-0.10208446532487869, 3.0625340342521667 0.6125067919492722, 1.32709801197052 l0.7145912200212479, 0.6125067919492722 2.2458581626415253, 0.3062533959746361 l1.5312670171260834, -1.2250135838985443 1.32709801197052, -2.1437737345695496 l0.5104223266243935, -1.633351445198059 -0.10208446532487869, -1.7354358732700348 l-0.9187601506710052, -1.020844653248787 -0.9187601506710052, -0.5104223266243935 l-3.675040602684021, -0.10208446532487869 -0.40833786129951477, 0.5104223266243935 l0.10208446532487869, 1.32709801197052 4.1854628920555115, 3.368787169456482 m-0.7145912200212479, -4.593800902366638 l-0.7145912200212479, 3.0625340342521667 -1.633351445198059, 3.368787169456482 m-0.40833786129951477, -7.350081205368042 l2.041689306497574, 7.043827772140503 m0.8166757225990295, -7.043827772140503 l5.716729760169983, -1.4291824400424957 3.8792094588279724, -1.8375203013420105 l-1.020844653248787, -0.10208446532487869 -0.9187601506710052, 1.2250135838985443 l-0.7145912200212479, 3.7771251797676086 0.0, 1.633351445198059 l0.20416893064975739, 0.9187601506710052 1.7354358732700348, 1.4291824400424957 l2.7562806010246277, 0.3062533959746361 1.32709801197052, -0.8166757225990295 l2.1437737345695496, -2.8583648800849915 0.8166757225990295, -2.960449457168579 l-1.2250135838985443, -1.2250135838985443 -3.1646183133125305, -1.7354358732700348 l-1.4291824400424957, -0.10208446532487869 -1.4291824400424957, 0.6125067919492722 l-0.7145912200212479, 1.4291824400424957 m0.10208446532487869, -0.20416893064975739 l5.818814635276794, 6.227152347564697 0.20416893064975739, -0.6125067919492722 m-0.3062533959746361, -7.4521660804748535 l-0.6125067919492722, 0.7145912200212479 -1.1229290813207626, 4.083378612995148 l-2.5521114468574524, 4.083378612995148 m1.2250135838985443, -7.758418917655945 l1.8375203013420105, 7.043827772140503 m-5.716729760169983, -1.4291824400424957 l2.041689306497574, -0.10208446532487869 5.920898914337158, -1.633351445198059 m-7.247996926307678, -2.8583648800849915 l-0.6125067919492722, -1.4291824400424957 " fill="none" stroke="black" stroke-width="1" /></svg>