<?xml version="1.0" encoding="utf-8" ?>
<svg baseProfile="full" height="50.52753176540136" version="1.1" width="95.44469635933638" xmlns="http://www.w3.org/2000/svg" xmlns:ev="http://www.w3.org/2001/xml-events" xmlns:xlink="http://www.w3.org/1999/xlink"><defs /><rect fill="white" height="50.52753176540136" width="95.44469635933638" x="0" y="0" /><path d="M16.43345970660448, 27.76483539491892 m-3.675040602684021, 0.5104223266243935 l-3.0625340342521667, 1.7354358732700348 -2.7562806010246277, 2.65419602394104 l-0.9187601506710052, 2.8583648800849915 0.5104223266243935, 3.98129403591156 l1.9396047294139862, 3.368787169456482 1.32709801197052, 1.32709801197052 l1.633351445198059, 1.020844653248787 3.98129403591156, 0.3062533959746361 l3.266702890396118, -0.40833786129951477 9.59593951702118, -2.5521114468574524 l12.045966386795044, -4.1854628920555115 5.30839204788208, -2.2458581626415253 l7.350081205368042, -3.98129403591156 1.4291824400424957, -1.1229290813207626 l0.8166757225990295, -1.020844653248787 0.3062533959746361, -1.020844653248787 l-0.10208446532487869, -1.5312670171260834 -1.8375203013420105, -2.041689306497574 l-2.5521114468574524, -1.32709801197052 -1.2250135838985443, -0.3062533959746361 l-14.087655544281006, -1.4291824400424957 -10.004277229309082, 0.10208446532487869 l-13.2709801197052, 0.9187601506710052 -4.79796975851059, 1.1229290813207626 l-2.65419602394104, 3.266702890396118 0.40833786129951477, 0.6125067919492722 l1.1229290813207626, 0.5104223266243935 2.8583648800849915, 0.8166757225990295 m69.82577323913574, -8.26884150505066 l-9.391770362854004, 1.7354358732700348 -8.881348371505737, 2.2458581626415253 l-3.4708717465400696, 1.9396047294139862 -1.32709801197052, 1.32709801197052 l-0.6125067919492722, 1.1229290813207626 -0.5104223266243935, 1.633351445198059 l-0.10208446532487869, 1.7354358732700348 0.0, 1.7354358732700348 l0.40833786129951477, 1.633351445198059 0.8166757225990295, 1.8375203013420105 l2.347942590713501, 3.1646183133125305 2.1437737345695496, 1.5312670171260834 l2.4500271677970886, 0.8166757225990295 6.6354900598526, 0.3062533959746361 l5.206307768821716, -1.32709801197052 6.6354900598526, -3.368787169456482 l2.1437737345695496, -1.633351445198059 4.900054335594177, -6.1250680685043335 l1.7354358732700348, -3.368787169456482 0.10208446532487869, -1.7354358732700348 l-0.9187601506710052, -1.633351445198059 -1.5312670171260834, -1.2250135838985443 l-3.98129403591156, -2.041689306497574 -13.066811561584473, -2.2458581626415253 l-1.7354358732700348, 0.0 -2.65419602394104, 1.020844653248787 l-0.5104223266243935, 0.5104223266243935 -0.6125067919492722, 2.8583648800849915 m-40.32336235046387, -1.020844653248787 l3.675040602684021, -2.5521114468574524 3.368787169456482, -1.8375203013420105 l5.614645481109619, -4.083378612995148 8.473010659217834, -5.512561202049255 l1.1229290813207626, -0.6125067919492722 2.1437737345695496, -0.40833786129951477 l3.98129403591156, 0.40833786129951477 1.8375203013420105, 0.7145912200212479 l5.206307768821716, 3.4708717465400696 1.9396047294139862, 2.2458581626415253 l1.2250135838985443, 2.960449457168579 1.4291824400424957, 5.104222893714905 l0.40833786129951477, 0.10208446532487869 m-0.10208446532487869, -0.7145912200212479 l2.65419602394104, -5.002138614654541 0.9187601506710052, -2.5521114468574524 l0.9187601506710052, -1.32709801197052 1.633351445198059, -1.8375203013420105 l6.431320905685425, -5.104222893714905 3.7771251797676086, -1.020844653248787 l2.8583648800849915, -0.3062533959746361 1.633351445198059, 1.020844653248787 l2.4500271677970886, 0.7145912200212479 m-40.83378314971924, 0.6125067919492722 l-5.30839204788208, 0.40833786129951477 -1.8375203013420105, 1.1229290813207626 l-0.20416893064975739, 0.7145912200212479 0.40833786129951477, 1.7354358732700348 l1.1229290813207626, 1.020844653248787 1.5312670171260834, 1.020844653248787 l2.4500271677970886, 0.7145912200212479 3.368787169456482, -0.40833786129951477 l2.5521114468574524, -1.020844653248787 6.022983193397522, -4.4917163252830505 l0.5104223266243935, -0.6125067919492722 0.0, -0.5104223266243935 l-1.5312670171260834, -0.3062533959746361 -8.575094938278198, 0.3062533959746361 l-13.066811561584473, -0.8166757225990295 0.0, 1.020844653248787 l0.5104223266243935, 0.10208446532487869 " fill="none" stroke="black" stroke-width="1" /></svg>