<?xml version="1.0" encoding="utf-8" ?>
<svg baseProfile="full" height="43.99412527680397" version="1.1" width="63.492258712649345" xmlns="http://www.w3.org/2000/svg" xmlns:ev="http://www.w3.org/2001/xml-events" xmlns:xlink="http://www.w3.org/1999/xlink"><defs /><rect fill="white" height="43.99412527680397" width="63.492258712649345" x="0" y="0" /><path d="M17.454304955899715, 19.700161814689636 m4.695885181427002, -0.6125067919492722 l17.150189876556396, 0.6125067919492722 6.839659214019775, -2.041689306497574 l0.7145912200212479, -0.40833786129951477 m-13.2709801197052, 3.1646183133125305 l2.65419602394104, 0.0 8.370925784111023, 2.960449457168579 l5.104222893714905, 1.2250135838985443 m0.5104223266243935, -0.9187601506710052 l-2.65419602394104, -0.10208446532487869 -2.2458581626415253, 1.9396047294139862 l-0.3062533959746361, 0.40833786129951477 -0.8166757225990295, 4.083378612995148 l4.695885181427002, 6.6354900598526 0.7145912200212479, 0.5104223266243935 l5.614645481109619, 1.8375203013420105 3.1646183133125305, -3.368787169456482 l0.10208446532487869, -1.1229290813207626 -3.8792094588279724, -10.310530662536621 l-0.9187601506710052, -1.32709801197052 -4.4917163252830505, -1.2250135838985443 l-3.1646183133125305, 2.1437737345695496 m-29.60449457168579, -6.6354900598526 l0.20416893064975739, -2.347942590713501 0.6125067919492722, 2.7562806010246277 l-0.40833786129951477, 7.860503792762756 2.4500271677970886, 7.1459126472473145 l-0.9187601506710052, 1.4291824400424957 -2.7562806010246277, 0.6125067919492722 l-4.083378612995148, -2.960449457168579 -3.1646183133125305, -6.227152347564697 l2.2458581626415253, -6.941743493080139 5.614645481109619, -5.30839204788208 l3.368787169456482, 2.1437737345695496 0.9187601506710052, 4.287547469139099 l-1.8375203013420105, -4.389632046222687 -3.266702890396118, -5.30839204788208 l-1.020844653248787, -0.40833786129951477 -9.391770362854004, 3.5729563236236572 l0.7145912200212479, -0.5104223266243935 7.4521660804748535, -2.5521114468574524 l3.0625340342521667, -0.3062533959746361 4.593800902366638, -4.695885181427002 l-4.4917163252830505, 3.5729563236236572 -2.960449457168579, 1.633351445198059 m18.47728729248047, 10.820952653884888 l0.20416893064975739, -0.7145912200212479 0.0, 3.5729563236236572 l0.40833786129951477, 3.1646183133125305 -5.206307768821716, 0.40833786129951477 " fill="none" stroke="black" stroke-width="1" /></svg>