<?xml version="1.0" encoding="utf-8" ?>
<svg baseProfile="full" height="30.51897708326578" version="1.1" width="43.17745052278042" xmlns="http://www.w3.org/2000/svg" xmlns:ev="http://www.w3.org/2001/xml-events" xmlns:xlink="http://www.w3.org/1999/xlink"><defs /><rect fill="white" height="30.51897708326578" width="43.17745052278042" x="0" y="0" /><path d="M12.043827921152115, 15.718868747353554 m-1.5312670171260834, -0.40833786129951477 l-3.675040602684021, 0.0 -1.8375203013420105, 0.6125067919492722 l0.0, 3.4708717465400696 1.4291824400424957, 1.8375203013420105 l2.4500271677970886, 1.1229290813207626 1.2250135838985443, 0.0 l2.1437737345695496, -1.1229290813207626 1.32709801197052, -1.633351445198059 l0.20416893064975739, -1.8375203013420105 -1.9396047294139862, -1.633351445198059 m21.53982162475586, 1.2250135838985443 l-1.633351445198059, 0.0 -1.020844653248787, 0.5104223266243935 l-0.3062533959746361, 0.6125067919492722 0.0, 1.8375203013420105 l0.5104223266243935, 1.9396047294139862 1.7354358732700348, 2.1437737345695496 l1.32709801197052, 0.9187601506710052 1.633351445198059, 0.20416893064975739 l1.633351445198059, -1.020844653248787 0.7145912200212479, -1.1229290813207626 l0.20416893064975739, -1.633351445198059 -0.40833786129951477, -1.633351445198059 l-1.5312670171260834, -1.4291824400424957 -1.9396047294139862, -1.020844653248787 m-20.314807891845703, 0.9187601506710052 l6.737574338912964, 0.0 2.65419602394104, 0.3062533959746361 l7.758418917655945, 2.7562806010246277 1.1229290813207626, 0.10208446532487869 l-0.3062533959746361, -0.5104223266243935 -1.5312670171260834, -0.20416893064975739 m-8.064672350883484, -2.347942590713501 l0.0, 1.7354358732700348 m-1.1229290813207626, 0.6125067919492722 l0.3062533959746361, -0.5104223266243935 0.6125067919492722, -0.10208446532487869 l0.5104223266243935, 0.20416893064975739 0.20416893064975739, 0.5104223266243935 l-0.5104223266243935, 0.0 -0.3062533959746361, -0.5104223266243935 l0.5104223266243935, -0.20416893064975739 0.6125067919492722, 0.0 l0.40833786129951477, 0.5104223266243935 -1.633351445198059, 0.20416893064975739 l-0.10208446532487869, -0.5104223266243935 0.5104223266243935, 0.0 m0.10208446532487869, -2.041689306497574 l1.7354358732700348, -0.9187601506710052 m0.5104223266243935, 0.0 l-0.5104223266243935, -0.20416893064975739 -0.10208446532487869, -0.5104223266243935 l0.5104223266243935, 0.0 0.40833786129951477, 0.6125067919492722 l-0.6125067919492722, 0.0 -0.10208446532487869, -0.5104223266243935 l0.3062533959746361, 0.0 m7.1459126472473145, 0.10208446532487869 l-2.8583648800849915, -4.4917163252830505 -0.8166757225990295, -2.2458581626415253 l-1.8375203013420105, -3.266702890396118 -1.7354358732700348, -1.633351445198059 m1.2250135838985443, -0.5104223266243935 l-0.5104223266243935, 0.20416893064975739 -1.32709801197052, 1.7354358732700348 l2.1437737345695496, -1.5312670171260834 " fill="none" stroke="black" stroke-width="1" /></svg>