<?xml version="1.0" encoding="utf-8" ?>
<svg baseProfile="full" height="57.367190308868885" version="1.1" width="67.881890386343" xmlns="http://www.w3.org/2000/svg" xmlns:ev="http://www.w3.org/2001/xml-events" xmlns:xlink="http://www.w3.org/1999/xlink"><defs /><rect fill="white" height="57.367190308868885" width="67.881890386343" x="0" y="0" /><path d="M17.148051001131535, 32.052381969988346 m-1.32709801197052, -1.1229290813207626 l-1.7354358732700348, -0.20416893064975739 -1.2250135838985443, 0.7145912200212479 l-3.1646183133125305, 3.0625340342521667 -3.675040602684021, 6.1250680685043335 l-0.7145912200212479, 2.2458581626415253 -0.3062533959746361, 3.4708717465400696 l0.6125067919492722, 1.2250135838985443 1.1229290813207626, 1.1229290813207626 l1.7354358732700348, 0.7145912200212479 2.1437737345695496, 0.3062533959746361 l5.206307768821716, 0.0 2.65419602394104, -0.8166757225990295 l2.347942590713501, -1.2250135838985443 3.8792094588279724, -3.266702890396118 l2.2458581626415253, -4.79796975851059 0.40833786129951477, -2.65419602394104 l0.0, -2.65419602394104 -0.40833786129951477, -2.4500271677970886 l-1.020844653248787, -1.8375203013420105 -1.1229290813207626, -1.2250135838985443 l-1.4291824400424957, -0.8166757225990295 -1.2250135838985443, -0.20416893064975739 l-2.960449457168579, 0.20416893064975739 -1.2250135838985443, 0.9187601506710052 l-1.020844653248787, 1.32709801197052 m35.321223735809326, 3.675040602684021 l-1.020844653248787, -0.5104223266243935 -2.5521114468574524, -0.10208446532487869 l-1.7354358732700348, 0.7145912200212479 -4.083378612995148, 2.7562806010246277 l-3.1646183133125305, 3.675040602684021 -1.8375203013420105, 4.1854628920555115 l-0.3062533959746361, 3.5729563236236572 0.7145912200212479, 1.4291824400424957 l1.5312670171260834, 1.020844653248787 4.4917163252830505, 1.633351445198059 l5.206307768821716, 0.10208446532487869 2.7562806010246277, -0.6125067919492722 l4.900054335594177, -2.7562806010246277 2.2458581626415253, -1.8375203013420105 l1.7354358732700348, -2.041689306497574 1.2250135838985443, -1.9396047294139862 l0.5104223266243935, -1.7354358732700348 0.0, -3.4708717465400696 l-0.9187601506710052, -1.633351445198059 -1.2250135838985443, -1.4291824400424957 l-3.0625340342521667, -1.7354358732700348 -3.1646183133125305, -0.3062533959746361 l-3.4708717465400696, 0.3062533959746361 m-23.581511974334717, -0.20416893064975739 l8.370925784111023, 2.1437737345695496 3.5729563236236572, 1.633351445198059 l0.9187601506710052, 1.1229290813207626 0.6125067919492722, -3.675040602684021 l0.5104223266243935, -1.020844653248787 m-6.1250680685043335, 1.5312670171260834 l-0.3062533959746361, -0.9187601506710052 1.7354358732700348, -4.900054335594177 l2.1437737345695496, -10.820952653884888 0.3062533959746361, -3.266702890396118 m1.020844653248787, 0.10208446532487869 l-2.8583648800849915, -0.6125067919492722 -4.4917163252830505, -0.10208446532487869 l-8.166757225990295, 0.9187601506710052 -19.60021734237671, 1.020844653248787 m1.5312670171260834, 0.0 l-0.6125067919492722, -0.5104223266243935 -0.5104223266243935, -1.32709801197052 l-0.3062533959746361, -1.5312670171260834 0.10208446532487869, -2.5521114468574524 l1.1229290813207626, -2.65419602394104 2.7562806010246277, -2.5521114468574524 " fill="none" stroke="black" stroke-width="1" /></svg>