<?xml version="1.0" encoding="utf-8" ?>
<svg baseProfile="full" height="36.13362330943346" version="1.1" width="32.96900440007448" xmlns="http://www.w3.org/2000/svg" xmlns:ev="http://www.w3.org/2001/xml-events" xmlns:xlink="http://www.w3.org/1999/xlink"><defs /><rect fill="white" height="36.13362330943346" width="32.96900440007448" x="0" y="0" /><path d="M14.698024168610573, 21.435599252581596 m-0.7145912200212479, -0.6125067919492722 l-2.041689306497574, -0.6125067919492722 -3.0625340342521667, -0.10208446532487869 l-1.7354358732700348, 0.5104223266243935 -1.7354358732700348, 1.8375203013420105 l-0.3062533959746361, 1.1229290813207626 -0.10208446532487869, 4.083378612995148 l1.4291824400424957, 2.041689306497574 2.1437737345695496, 1.1229290813207626 l3.675040602684021, 0.3062533959746361 1.1229290813207626, -0.40833786129951477 l1.32709801197052, -1.1229290813207626 2.2458581626415253, -3.0625340342521667 l0.40833786129951477, -1.4291824400424957 0.10208446532487869, -2.960449457168579 l-0.20416893064975739, -0.9187601506710052 -1.5312670171260834, -1.5312670171260834 l-1.7354358732700348, -0.20416893064975739 m11.33137583732605, 1.1229290813207626 l-4.1854628920555115, 0.10208446532487869 -1.32709801197052, 0.6125067919492722 l-0.6125067919492722, 1.020844653248787 0.10208446532487869, 2.4500271677970886 l1.32709801197052, 1.7354358732700348 2.5521114468574524, 1.2250135838985443 l2.65419602394104, 0.3062533959746361 1.633351445198059, -2.4500271677970886 l0.5104223266243935, -1.633351445198059 0.0, -2.4500271677970886 l-0.8166757225990295, -1.7354358732700348 -1.5312670171260834, -1.2250135838985443 m-16.63976788520813, 3.266702890396118 l7.4521660804748535, 0.10208446532487869 2.8583648800849915, 0.5104223266243935 l2.4500271677970886, 0.0 2.347942590713501, -1.020844653248787 m-7.4521660804748535, 0.0 l-0.20416893064975739, -8.26884150505066 m5.716729760169983, -3.5729563236236572 l-1.1229290813207626, 0.3062533959746361 -6.227152347564697, -0.20416893064975739 l-0.9187601506710052, 1.8375203013420105 0.10208446532487869, 2.2458581626415253 l0.7145912200212479, 0.5104223266243935 0.6125067919492722, 0.3062533959746361 l2.5521114468574524, 0.0 1.7354358732700348, -0.5104223266243935 l1.32709801197052, -1.2250135838985443 0.40833786129951477, -1.1229290813207626 l0.3062533959746361, -1.633351445198059 0.0, -1.1229290813207626 l-0.3062533959746361, 0.10208446532487869 m3.266702890396118, 11.433459520339966 l0.0, -8.881348371505737 -0.6125067919492722, -6.6354900598526 " fill="none" stroke="black" stroke-width="1" /></svg>