<?xml version="1.0" encoding="utf-8" ?>
<svg baseProfile="full" height="47.46499706059694" version="1.1" width="67.47355349361897" xmlns="http://www.w3.org/2000/svg" xmlns:ev="http://www.w3.org/2001/xml-events" xmlns:xlink="http://www.w3.org/1999/xlink"><defs /><rect fill="white" height="47.46499706059694" width="67.47355349361897" x="0" y="0" /><path d="M22.1501899138093, 27.152327671647072 m-0.40833786129951477, -2.8583648800849915 l-0.40833786129951477, -0.6125067919492722 -0.7145912200212479, -0.5104223266243935 l-2.960449457168579, -0.7145912200212479 -2.041689306497574, 0.0 l-4.083378612995148, 1.1229290813207626 -1.9396047294139862, 1.020844653248787 l-1.633351445198059, 1.32709801197052 -2.2458581626415253, 3.368787169456482 l-0.6125067919492722, 1.9396047294139862 -0.10208446532487869, 4.287547469139099 l0.5104223266243935, 2.1437737345695496 1.020844653248787, 1.8375203013420105 l1.020844653248787, 1.2250135838985443 1.2250135838985443, 0.8166757225990295 l3.1646183133125305, 0.9187601506710052 4.1854628920555115, 0.0 l3.98129403591156, -1.8375203013420105 1.5312670171260834, -1.7354358732700348 l1.32709801197052, -1.7354358732700348 0.8166757225990295, -1.8375203013420105 l0.6125067919492722, -3.0625340342521667 -0.20416893064975739, -1.32709801197052 l-3.0625340342521667, -4.287547469139099 m28.27739715576172, 15.210585594177246 l-1.5312670171260834, -1.4291824400424957 -0.9187601506710052, -2.4500271677970886 l-0.3062533959746361, -2.2458581626415253 0.10208446532487869, -4.79796975851059 l0.7145912200212479, -2.1437737345695496 1.1229290813207626, -1.7354358732700348 l2.7562806010246277, -2.2458581626415253 3.4708717465400696, -0.40833786129951477 l1.8375203013420105, 0.40833786129951477 3.4708717465400696, 2.1437737345695496 l1.2250135838985443, 1.32709801197052 0.8166757225990295, 1.5312670171260834 l0.3062533959746361, 4.389632046222687 -0.20416893064975739, 1.9396047294139862 l-0.8166757225990295, 1.633351445198059 -1.2250135838985443, 1.7354358732700348 l-3.4708717465400696, 1.7354358732700348 -3.8792094588279724, 0.7145912200212479 l-4.4917163252830505, 0.0 -1.2250135838985443, -0.8166757225990295 m-33.687872886657715, -8.26884150505066 l0.0, -1.5312670171260834 4.389632046222687, -12.148051261901855 l4.4917163252830505, -10.412615537643433 m23.78567934036255, 2.041689306497574 l2.8583648800849915, 6.022983193397522 4.695885181427002, 12.250136137008667 l3.0625340342521667, 6.329236626625061 m-24.091932773590088, -24.398186206817627 l-0.3062533959746361, -0.8166757225990295 1.4291824400424957, -0.3062533959746361 l6.737574338912964, -0.3062533959746361 2.347942590713501, 0.40833786129951477 l3.266702890396118, 1.1229290813207626 0.8166757225990295, 0.3062533959746361 l-0.10208446532487869, 0.5104223266243935 -6.1250680685043335, 0.9187601506710052 l-4.695885181427002, 0.10208446532487869 -2.041689306497574, -0.3062533959746361 l-0.20416893064975739, -0.5104223266243935 0.8166757225990295, -1.020844653248787 l5.206307768821716, -1.9396047294139862 3.1646183133125305, -0.7145912200212479 l3.266702890396118, -0.3062533959746361 4.695885181427002, 0.10208446532487869 l0.8166757225990295, 0.40833786129951477 -1.32709801197052, 0.9187601506710052 l-5.818814635276794, 1.1229290813207626 -8.064672350883484, 0.10208446532487869 l0.3062533959746361, -0.9187601506710052 4.4917163252830505, -1.4291824400424957 l2.347942590713501, -0.3062533959746361 m-7.758418917655945, 5.30839204788208 l-4.4917163252830505, 2.7562806010246277 -6.227152347564697, 5.410476326942444 l-3.266702890396118, 3.98129403591156 m-9.085517525672913, -16.53768301010132 l3.98129403591156, -0.6125067919492722 12.045966386795044, -3.4708717465400696 " fill="none" stroke="black" stroke-width="1" /></svg>