<?xml version="1.0" encoding="utf-8" ?>
<svg baseProfile="full" height="36.43987588584423" version="1.1" width="34.09193314611912" xmlns="http://www.w3.org/2000/svg" xmlns:ev="http://www.w3.org/2001/xml-events" xmlns:xlink="http://www.w3.org/1999/xlink"><defs /><rect fill="white" height="36.43987588584423" width="34.09193314611912" x="0" y="0" /><path d="M20.414753779768944, 22.55852736532688 m1.2250135838985443, -1.32709801197052 l1.1229290813207626, -0.6125067919492722 1.4291824400424957, -0.20416893064975739 l1.633351445198059, 0.20416893064975739 2.1437737345695496, 1.5312670171260834 l1.1229290813207626, 2.7562806010246277 0.0, 2.7562806010246277 l-0.5104223266243935, 1.32709801197052 -1.020844653248787, 1.32709801197052 l-2.1437737345695496, 1.1229290813207626 -2.347942590713501, 0.0 l-1.8375203013420105, -1.1229290813207626 -1.32709801197052, -2.347942590713501 l-0.10208446532487869, -1.8375203013420105 0.9187601506710052, -2.960449457168579 m-13.57723355293274, -2.041689306497574 l3.0625340342521667, -0.8166757225990295 1.633351445198059, 0.40833786129951477 l0.9187601506710052, 1.1229290813207626 1.020844653248787, 2.5521114468574524 l0.40833786129951477, 2.7562806010246277 0.0, 1.633351445198059 l-0.8166757225990295, 1.4291824400424957 -1.633351445198059, 0.40833786129951477 l-2.1437737345695496, -0.40833786129951477 -2.960449457168579, -2.041689306497574 l-1.020844653248787, -1.32709801197052 -0.6125067919492722, -1.633351445198059 l0.10208446532487869, -2.8583648800849915 1.4291824400424957, -1.8375203013420105 l1.7354358732700348, -0.8166757225990295 m14.495993852615356, 0.40833786129951477 l-1.32709801197052, -0.6125067919492722 -1.8375203013420105, 0.0 l-6.1250680685043335, 0.3062533959746361 -3.5729563236236572, 0.5104223266243935 m3.5729563236236572, -0.40833786129951477 l-0.6125067919492722, -2.347942590713501 -0.20416893064975739, -7.554250359535217 m-0.3062533959746361, 0.40833786129951477 l0.9187601506710052, -1.1229290813207626 3.0625340342521667, -2.2458581626415253 l0.40833786129951477, -1.020844653248787 m-5.614645481109619, 2.4500271677970886 l-0.7145912200212479, -1.32709801197052 -3.5729563236236572, -2.1437737345695496 m14.189740419387817, 13.883486986160278 l-0.40833786129951477, -4.4917163252830505 m3.675040602684021, -0.10208446532487869 l-1.9396047294139862, -0.5104223266243935 " fill="none" stroke="black" stroke-width="1" /></svg>