<?xml version="1.0" encoding="utf-8" ?>
<svg baseProfile="full" height="39.80866268277168" version="1.1" width="66.45270898938179" xmlns="http://www.w3.org/2000/svg" xmlns:ev="http://www.w3.org/2001/xml-events" xmlns:xlink="http://www.w3.org/1999/xlink"><defs /><rect fill="white" height="39.80866268277168" width="66.45270898938179" x="0" y="0" /><path d="M61.04437120258808, 28.071088083088398 m0.10208446532487869, -1.020844653248787 l-0.6125067919492722, -2.041689306497574 -2.347942590713501, -3.5729563236236572 l-1.633351445198059, -1.4291824400424957 -3.1646183133125305, -1.4291824400424957 l-3.0625340342521667, -0.10208446532487869 -3.7771251797676086, 2.347942590713501 l-1.020844653248787, 1.1229290813207626 -1.020844653248787, 2.347942590713501 l-0.10208446532487869, 2.1437737345695496 0.9187601506710052, 2.4500271677970886 l2.7562806010246277, 3.0625340342521667 3.5729563236236572, 2.041689306497574 l3.8792094588279724, 0.8166757225990295 2.7562806010246277, -0.10208446532487869 l1.7354358732700348, -0.7145912200212479 1.4291824400424957, -3.368787169456482 l-0.5104223266243935, -3.675040602684021 m-40.73170185089111, -7.656334638595581 l-10.310530662536621, 2.7562806010246277 -1.9396047294139862, 1.020844653248787 l-1.4291824400424957, 1.5312670171260834 -1.2250135838985443, 2.4500271677970886 l-0.3062533959746361, 1.5312670171260834 0.20416893064975739, 2.041689306497574 l0.6125067919492722, 0.9187601506710052 1.5312670171260834, 1.1229290813207626 l2.7562806010246277, 0.7145912200212479 3.0625340342521667, -0.10208446532487869 l2.960449457168579, -1.020844653248787 1.2250135838985443, -0.8166757225990295 l3.7771251797676086, -3.98129403591156 0.9187601506710052, -2.347942590713501 l-0.10208446532487869, -2.041689306497574 -1.5312670171260834, -3.4708717465400696 m28.073227405548096, -1.8375203013420105 l0.5104223266243935, -1.7354358732700348 0.8166757225990295, -9.187601804733276 m-6.227152347564697, -1.8375203013420105 l2.960449457168579, 0.7145912200212479 8.779264092445374, -0.10208446532487869 l1.2250135838985443, 0.6125067919492722 0.5104223266243935, 0.5104223266243935 l0.0, 0.5104223266243935 m-8.881348371505737, 7.860503792762756 l-2.041689306497574, -1.2250135838985443 -5.716729760169983, -0.9187601506710052 l-2.347942590713501, -0.10208446532487869 -6.839659214019775, 0.5104223266243935 l-5.716729760169983, 1.020844653248787 -2.7562806010246277, 0.9187601506710052 l-1.2250135838985443, 0.6125067919492722 -1.9396047294139862, 2.347942590713501 m6.941743493080139, -4.083378612995148 l0.20416893064975739, -2.347942590713501 -0.5104223266243935, -1.1229290813207626 l-0.7145912200212479, 0.0 -3.7771251797676086, 1.7354358732700348 l-2.1437737345695496, 1.9396047294139862 -0.20416893064975739, 0.5104223266243935 l0.7145912200212479, 0.8166757225990295 1.4291824400424957, 0.10208446532487869 l0.7145912200212479, -0.3062533959746361 1.2250135838985443, -0.6125067919492722 l1.4291824400424957, -1.32709801197052 " fill="none" stroke="black" stroke-width="1" /></svg>