<?xml version="1.0" encoding="utf-8" ?>
<svg baseProfile="full" height="45.014970898628235" version="1.1" width="54.20257195830345" xmlns="http://www.w3.org/2000/svg" xmlns:ev="http://www.w3.org/2001/xml-events" xmlns:xlink="http://www.w3.org/1999/xlink"><defs /><rect fill="white" height="45.014970898628235" width="54.20257195830345" x="0" y="0" /><path d="M14.800108522176743, 19.291825145483017 m-2.4500271677970886, 1.32709801197052 l-3.1646183133125305, 2.8583648800849915 -2.960449457168579, 3.98129403591156 l-1.2250135838985443, 3.675040602684021 0.0, 3.1646183133125305 l0.5104223266243935, 1.8375203013420105 2.1437737345695496, 2.65419602394104 l1.8375203013420105, 0.8166757225990295 1.8375203013420105, 0.40833786129951477 l4.593800902366638, 0.0 5.512561202049255, -2.347942590713501 l2.960449457168579, -2.7562806010246277 1.633351445198059, -3.5729563236236572 l0.20416893064975739, -1.8375203013420105 -0.10208446532487869, -2.1437737345695496 l-1.5312670171260834, -3.7771251797676086 -2.041689306497574, -2.2458581626415253 l-2.7562806010246277, -1.5312670171260834 -1.633351445198059, -0.40833786129951477 l-2.2458581626415253, 0.0 -3.8792094588279724, 1.633351445198059 m26.950297355651855, 8.983432650566101 l-1.633351445198059, 0.8166757225990295 -0.7145912200212479, 1.8375203013420105 l-0.40833786129951477, 2.1437737345695496 0.10208446532487869, 2.2458581626415253 l0.7145912200212479, 1.4291824400424957 1.1229290813207626, 0.7145912200212479 l2.7562806010246277, 0.40833786129951477 1.7354358732700348, -0.40833786129951477 l2.8583648800849915, -1.32709801197052 1.8375203013420105, -1.9396047294139862 l0.3062533959746361, -0.8166757225990295 0.0, -1.4291824400424957 l-1.020844653248787, -1.7354358732700348 -1.5312670171260834, -1.020844653248787 l-3.98129403591156, -1.633351445198059 -2.347942590713501, -0.10208446532487869 m-21.8460750579834, -10.106362104415894 l8.779264092445374, 4.593800902366638 1.2250135838985443, 1.020844653248787 l4.695885181427002, 2.5521114468574524 8.26884150505066, 3.7771251797676086 l6.227152347564697, 3.98129403591156 1.9396047294139862, 0.7145912200212479 l1.1229290813207626, 0.0 m-28.17531108856201, -15.618922710418701 l0.0, -5.104222893714905 -0.5104223266243935, -4.1854628920555115 m-1.1229290813207626, -4.4917163252830505 l-0.5104223266243935, 0.3062533959746361 -0.9187601506710052, 1.633351445198059 l-0.10208446532487869, 1.8375203013420105 0.8166757225990295, 0.8166757225990295 l0.7145912200212479, 0.20416893064975739 1.633351445198059, -0.20416893064975739 l1.020844653248787, -0.40833786129951477 2.4500271677970886, -2.041689306497574 l0.3062533959746361, -1.8375203013420105 -0.7145912200212479, -0.9187601506710052 l-1.633351445198059, -0.7145912200212479 -1.633351445198059, 0.20416893064975739 l-1.2250135838985443, 0.6125067919492722 -0.40833786129951477, 0.6125067919492722 m0.0, 0.6125067919492722 l1.633351445198059, 0.8166757225990295 -0.10208446532487869, 0.40833786129951477 l-1.5312670171260834, 0.8166757225990295 " fill="none" stroke="black" stroke-width="1" /></svg>