<?xml version="1.0" encoding="utf-8" ?>
<svg baseProfile="full" height="42.97328233718872" version="1.1" width="66.35062299668789" xmlns="http://www.w3.org/2000/svg" xmlns:ev="http://www.w3.org/2001/xml-events" xmlns:xlink="http://www.w3.org/1999/xlink"><defs /><rect fill="white" height="42.97328233718872" width="66.35062299668789" x="0" y="0" /><path d="M18.475148901343346, 12.350082136690617 m-2.5521114468574524, 0.20416893064975739 l-2.5521114468574524, 0.9187601506710052 -2.1437737345695496, 1.7354358732700348 l-2.65419602394104, 3.675040602684021 -1.32709801197052, 2.960449457168579 l-1.633351445198059, 5.206307768821716 -0.6125067919492722, 4.695885181427002 l0.10208446532487869, 3.4708717465400696 0.9187601506710052, 1.32709801197052 l3.266702890396118, 1.1229290813207626 4.083378612995148, 0.3062533959746361 l7.043827772140503, -0.20416893064975739 2.7562806010246277, -0.40833786129951477 l2.960449457168579, -1.020844653248787 1.32709801197052, -2.041689306497574 l0.6125067919492722, -2.2458581626415253 0.0, -3.8792094588279724 l-0.7145912200212479, -4.083378612995148 -1.5312670171260834, -5.104222893714905 l-2.1437737345695496, -4.1854628920555115 -1.2250135838985443, -1.32709801197052 l-1.7354358732700348, -0.3062533959746361 -2.2458581626415253, 1.32709801197052 l-0.6125067919492722, 1.2250135838985443 m37.567081451416016, 2.347942590713501 l-1.9396047294139862, 0.40833786129951477 -1.4291824400424957, 1.9396047294139862 l-3.266702890396118, 6.839659214019775 -0.5104223266243935, 2.65419602394104 l0.0, 2.347942590713501 0.7145912200212479, 2.5521114468574524 l0.8166757225990295, 1.4291824400424957 1.020844653248787, 0.9187601506710052 l2.2458581626415253, 0.20416893064975739 3.0625340342521667, -0.9187601506710052 l3.5729563236236572, -2.65419602394104 1.633351445198059, -2.347942590713501 l-0.10208446532487869, -5.30839204788208 -0.8166757225990295, -2.041689306497574 l-3.0625340342521667, -4.4917163252830505 -0.8166757225990295, -0.5104223266243935 l-3.266702890396118, 0.0 m-34.60663318634033, 6.022983193397522 l10.61678409576416, -0.5104223266243935 22.05024480819702, -0.20416893064975739 l2.2458581626415253, -0.20416893064975739 0.10208446532487869, -0.20416893064975739 m-14.291825294494629, -10.9230375289917 l-0.10208446532487869, 10.514699220657349 m-1.32709801197052, -16.23142957687378 l-1.7354358732700348, 2.65419602394104 0.0, 1.32709801197052 l4.593800902366638, 2.4500271677970886 3.0625340342521667, 0.0 l0.9187601506710052, -0.6125067919492722 0.6125067919492722, -0.9187601506710052 l0.0, -1.32709801197052 -0.8166757225990295, -1.7354358732700348 l-1.32709801197052, -0.40833786129951477 -0.8166757225990295, 0.0 l-3.368787169456482, 1.020844653248787 -0.8166757225990295, 0.40833786129951477 l-0.6125067919492722, 0.7145912200212479 m-20.314807891845703, -2.2458581626415253 l4.1854628920555115, 13.883486986160278 0.10208446532487869, 1.9396047294139862 l0.0, -1.8375203013420105 m-4.1854628920555115, -14.291825294494629 l2.65419602394104, 0.10208446532487869 2.65419602394104, 0.6125067919492722 l2.347942590713501, 1.633351445198059 2.1437737345695496, 0.8166757225990295 m-12.964726686477661, -3.266702890396118 l-1.633351445198059, -2.4500271677970886 -1.2250135838985443, -0.8166757225990295 " fill="none" stroke="black" stroke-width="1" /></svg>