<?xml version="1.0" encoding="utf-8" ?>
<svg baseProfile="full" height="36.95029854774475" version="1.1" width="44.81080163270235" xmlns="http://www.w3.org/2000/svg" xmlns:ev="http://www.w3.org/2001/xml-events" xmlns:xlink="http://www.w3.org/1999/xlink"><defs /><rect fill="white" height="36.95029854774475" width="44.81080163270235" x="0" y="0" /><path d="M14.595938995480537, 17.76055820286274 m-1.1229290813207626, 0.8166757225990295 l-1.1229290813207626, 1.633351445198059 -3.266702890396118, 5.716729760169983 l-0.3062533959746361, 2.7562806010246277 0.40833786129951477, 1.32709801197052 l1.2250135838985443, 0.9187601506710052 1.8375203013420105, 0.40833786129951477 l4.1854628920555115, -0.3062533959746361 1.9396047294139862, -0.9187601506710052 l1.5312670171260834, -1.32709801197052 1.020844653248787, -1.633351445198059 l0.5104223266243935, -1.633351445198059 0.0, -1.32709801197052 l-0.7145912200212479, -1.633351445198059 -1.8375203013420105, -1.8375203013420105 l-2.1437737345695496, -1.633351445198059 -1.7354358732700348, -0.8166757225990295 l-1.32709801197052, -0.20416893064975739 -0.8166757225990295, 0.0 l-0.40833786129951477, 1.2250135838985443 0.6125067919492722, 1.32709801197052 m16.33351445198059, -2.7562806010246277 l-0.5104223266243935, 0.10208446532487869 -0.40833786129951477, 0.7145912200212479 l-0.9187601506710052, 4.389632046222687 -0.20416893064975739, 3.7771251797676086 l0.3062533959746361, 1.8375203013420105 0.8166757225990295, 1.5312670171260834 l0.9187601506710052, 0.9187601506710052 1.2250135838985443, 0.6125067919492722 l2.65419602394104, 0.20416893064975739 1.7354358732700348, -0.5104223266243935 l3.1646183133125305, -2.4500271677970886 1.1229290813207626, -1.5312670171260834 l0.5104223266243935, -1.5312670171260834 -0.40833786129951477, -2.2458581626415253 l-1.1229290813207626, -0.9187601506710052 -8.26884150505066, -4.287547469139099 l-1.8375203013420105, -0.5104223266243935 -2.8583648800849915, -0.10208446532487869 l-0.8166757225990295, 0.9187601506710052 m-6.533405780792236, 1.4291824400424957 l8.983432650566101, -0.10208446532487869 m-10.820952653884888, -0.40833786129951477 l-3.368787169456482, -2.7562806010246277 -2.65419602394104, -3.0625340342521667 m15.108500719070435, 6.1250680685043335 l2.2458581626415253, -3.7771251797676086 1.8375203013420105, -2.1437737345695496 l-1.5312670171260834, -0.20416893064975739 -6.839659214019775, 0.6125067919492722 m-10.106362104415894, -0.9187601506710052 l-0.5104223266243935, -0.9187601506710052 -3.675040602684021, -3.266702890396118 l-0.5104223266243935, -1.020844653248787 m-0.6125067919492722, -0.9187601506710052 l2.041689306497574, -1.32709801197052 3.7771251797676086, -1.1229290813207626 m-4.695885181427002, 3.4708717465400696 l-0.9187601506710052, 0.0 -0.5104223266243935, 0.8166757225990295 l-0.20416893064975739, 1.2250135838985443 " fill="none" stroke="black" stroke-width="1" /></svg>