<?xml version="1.0" encoding="utf-8" ?>
<svg baseProfile="full" height="27.86478139460087" version="1.1" width="38.481564559042454" xmlns="http://www.w3.org/2000/svg" xmlns:ev="http://www.w3.org/2001/xml-events" xmlns:xlink="http://www.w3.org/1999/xlink"><defs /><rect fill="white" height="27.86478139460087" width="38.481564559042454" x="0" y="0" /><path d="M20.21058540791273, 22.558527998626232 m0.0, 0.0 m-9.085517525672913, 0.10208446532487869 l-4.900054335594177, 0.20416893064975739 -0.7145912200212479, -0.5104223266243935 l-0.5104223266243935, -1.020844653248787 0.6125067919492722, -2.8583648800849915 l1.2250135838985443, -1.5312670171260834 3.266702890396118, -2.1437737345695496 l1.5312670171260834, -0.3062533959746361 1.5312670171260834, 0.6125067919492722 l0.9187601506710052, 1.020844653248787 0.6125067919492722, 0.8166757225990295 l0.40833786129951477, 1.4291824400424957 -1.32709801197052, 2.7562806010246277 l-3.4708717465400696, 1.4291824400424957 -0.7145912200212479, -0.10208446532487869 m20.621061325073242, -0.9187601506710052 l-2.5521114468574524, 0.3062533959746361 -2.65419602394104, -0.3062533959746361 l-2.1437737345695496, -2.041689306497574 -0.6125067919492722, -2.2458581626415253 l-0.10208446532487869, -2.4500271677970886 0.9187601506710052, -2.041689306497574 l2.4500271677970886, -2.041689306497574 2.5521114468574524, -0.40833786129951477 l2.960449457168579, 1.9396047294139862 1.2250135838985443, 2.347942590713501 l0.10208446532487869, 1.8375203013420105 -0.9187601506710052, 2.347942590713501 l-0.8166757225990295, 0.9187601506710052 -3.1646183133125305, 1.1229290813207626 m-14.904332160949707, -1.1229290813207626 l9.902192950248718, -1.5312670171260834 m-12.148051261901855, -7.043827772140503 l-0.20416893064975739, 4.1854628920555115 m4.1854628920555115, -6.6354900598526 l-0.20416893064975739, -0.5104223266243935 2.7562806010246277, -2.041689306497574 l3.4708717465400696, -1.1229290813207626 1.2250135838985443, 0.10208446532487869 l1.020844653248787, 0.3062533959746361 0.0, 1.4291824400424957 l-1.5312670171260834, 1.8375203013420105 -1.633351445198059, 1.020844653248787 l-4.1854628920555115, 1.1229290813207626 -2.7562806010246277, -0.40833786129951477 l-0.6125067919492722, -0.8166757225990295 m9.085517525672913, -1.020844653248787 l3.368787169456482, 0.8166757225990295 4.4917163252830505, 2.65419602394104 m-3.0625340342521667, -2.347942590713501 l0.5104223266243935, 3.98129403591156 1.7354358732700348, 6.227152347564697 l-0.20416893064975739, 0.10208446532487869 m-5.002138614654541, -2.041689306497574 l4.4917163252830505, -1.4291824400424957 3.8792094588279724, -0.40833786129951477 m-1.633351445198059, -4.287547469139099 l-3.368787169456482, 5.512561202049255 -2.2458581626415253, 2.041689306497574 m-1.020844653248787, -5.002138614654541 l5.410476326942444, 3.266702890396118 5.206307768821716, 2.5521114468574524 " fill="none" stroke="black" stroke-width="1" /></svg>