<?xml version="1.0" encoding="utf-8" ?>
<svg baseProfile="full" height="32.969004325568676" version="1.1" width="35.21486237645149" xmlns="http://www.w3.org/2000/svg" xmlns:ev="http://www.w3.org/2001/xml-events" xmlns:xlink="http://www.w3.org/1999/xlink"><defs /><rect fill="white" height="32.969004325568676" width="35.21486237645149" x="0" y="0" /><path d="M7.450027242302895, 24.498132541775703 m0.0, -3.675040602684021 l0.5104223266243935, -2.7562806010246277 0.8166757225990295, -1.7354358732700348 l1.5312670171260834, -0.5104223266243935 1.2250135838985443, 0.3062533959746361 l1.633351445198059, 1.7354358732700348 0.3062533959746361, 2.960449457168579 l-0.8166757225990295, 2.960449457168579 -1.7354358732700348, 2.5521114468574524 l-0.9187601506710052, 0.5104223266243935 -1.5312670171260834, 0.10208446532487869 l-0.9187601506710052, -1.1229290813207626 -0.9187601506710052, -2.1437737345695496 l0.3062533959746361, -1.32709801197052 m3.675040602684021, -8.779264092445374 l-0.10208446532487869, -2.8583648800849915 1.633351445198059, -5.716729760169983 m-7.1459126472473145, 0.20416893064975739 l5.614645481109619, 1.2250135838985443 5.818814635276794, -0.10208446532487869 m-6.737574338912964, 9.187601804733276 l9.800108671188354, 0.9187601506710052 5.104222893714905, 1.8375203013420105 l0.10208446532487869, 0.5104223266243935 -1.4291824400424957, 1.2250135838985443 l-5.206307768821716, 1.4291824400424957 -5.716729760169983, -1.4291824400424957 m8.473010659217834, 4.79796975851059 l1.633351445198059, -2.960449457168579 1.633351445198059, -0.5104223266243935 l1.4291824400424957, 1.1229290813207626 0.3062533959746361, 1.5312670171260834 l-0.20416893064975739, 2.347942590713501 -1.1229290813207626, 1.633351445198059 l-1.32709801197052, 0.0 -1.020844653248787, -0.6125067919492722 l-1.633351445198059, -2.65419602394104 -0.10208446532487869, -1.4291824400424957 l0.3062533959746361, -0.9187601506710052 0.6125067919492722, -0.3062533959746361 m-11.02512240409851, -9.085517525672913 l0.5104223266243935, 3.4708717465400696 m6.737574338912964, -0.8166757225990295 l0.7145912200212479, -2.347942590713501 1.5312670171260834, -0.40833786129951477 l2.347942590713501, 0.3062533959746361 -1.32709801197052, 4.083378612995148 m3.5729563236236572, 2.4500271677970886 l0.3062533959746361, -1.8375203013420105 1.9396047294139862, -6.022983193397522 l1.020844653248787, -5.410476326942444 0.20416893064975739, -0.7145912200212479 l0.40833786129951477, -0.20416893064975739 m-5.920898914337158, 0.40833786129951477 l5.716729760169983, -0.10208446532487869 2.1437737345695496, 0.6125067919492722 " fill="none" stroke="black" stroke-width="1" /></svg>