<?xml version="1.0" encoding="utf-8" ?>
<svg baseProfile="full" height="31.13148432224989" version="1.1" width="37.358635142445564" xmlns="http://www.w3.org/2000/svg" xmlns:ev="http://www.w3.org/2001/xml-events" xmlns:xlink="http://www.w3.org/1999/xlink"><defs /><rect fill="white" height="31.13148432224989" width="37.358635142445564" x="0" y="0" /><path d="M14.800106883049011, 20.92517700046301 m0.0, -0.5104223266243935 l-1.5312670171260834, -1.32709801197052 -1.2250135838985443, -0.40833786129951477 l-1.9396047294139862, 0.0 -1.2250135838985443, 0.6125067919492722 l-1.5312670171260834, 1.9396047294139862 -0.10208446532487869, 0.5104223266243935 l1.9396047294139862, 3.368787169456482 1.1229290813207626, 0.3062533959746361 l4.389632046222687, -2.347942590713501 0.3062533959746361, -3.0625340342521667 m15.210585594177246, 0.5104223266243935 l-0.10208446532487869, -0.5104223266243935 -0.5104223266243935, -0.3062533959746361 l-4.4917163252830505, 0.20416893064975739 -1.32709801197052, 1.8375203013420105 l-0.7145912200212479, 1.9396047294139862 0.0, 0.5104223266243935 l1.633351445198059, 0.20416893064975739 3.98129403591156, 1.633351445198059 l1.8375203013420105, 0.10208446532487869 1.020844653248787, -1.5312670171260834 l0.8166757225990295, -2.5521114468574524 0.0, -1.1229290813207626 l-0.3062533959746361, -0.10208446532487869 m-26.950297355651855, -4.900054335594177 l7.247996926307678, -2.041689306497574 2.65419602394104, -0.3062533959746361 l0.10208446532487869, -3.675040602684021 -0.5104223266243935, 3.4708717465400696 m-1.7354358732700348, -4.083378612995148 l3.98129403591156, 0.3062533959746361 m-6.329236626625061, 5.410476326942444 l-1.8375203013420105, 0.20416893064975739 -2.041689306497574, 0.7145912200212479 l-1.32709801197052, 2.347942590713501 -0.3062533959746361, 3.4708717465400696 m4.389632046222687, -7.350081205368042 l2.1437737345695496, 0.0 2.041689306497574, 2.65419602394104 l1.4291824400424957, 1.1229290813207626 m0.20416893064975739, -5.30839204788208 l1.32709801197052, 0.0 1.633351445198059, -1.1229290813207626 l4.900054335594177, -5.818814635276794 0.10208446532487869, -0.9187601506710052 m-1.32709801197052, 0.5104223266243935 l5.512561202049255, -0.3062533959746361 " fill="none" stroke="black" stroke-width="1" /></svg>