<?xml version="1.0" encoding="utf-8" ?>
<svg baseProfile="full" height="25.516838654875755" version="1.1" width="77.47783154249191" xmlns="http://www.w3.org/2000/svg" xmlns:ev="http://www.w3.org/2001/xml-events" xmlns:xlink="http://www.w3.org/1999/xlink"><defs /><rect fill="white" height="25.516838654875755" width="77.47783154249191" x="0" y="0" /><path d="M7.1437737718224525, 9.900054447352886 m-2.041689306497574, -1.4291824400424957 l-0.10208446532487869, -1.020844653248787 2.041689306497574, -1.1229290813207626 l1.633351445198059, 0.0 m-2.1437737345695496, 3.4708717465400696 l3.4708717465400696, 1.7354358732700348 3.4708717465400696, 1.1229290813207626 l5.716729760169983, 0.20416893064975739 11.33137583732605, -0.5104223266243935 l7.656334638595581, 0.20416893064975739 m-24.398186206817627, 0.10208446532487869 l-1.020844653248787, 0.8166757225990295 -0.9187601506710052, 1.7354358732700348 l-0.10208446532487869, 2.2458581626415253 0.7145912200212479, 1.633351445198059 l2.1437737345695496, 1.32709801197052 1.1229290813207626, 0.10208446532487869 l2.8583648800849915, -1.32709801197052 1.020844653248787, -0.7145912200212479 l0.8166757225990295, -1.2250135838985443 -0.10208446532487869, -2.041689306497574 l-0.8166757225990295, -1.020844653248787 -0.9187601506710052, -0.5104223266243935 m10.310530662536621, -1.9396047294139862 l-1.633351445198059, 1.32709801197052 -1.32709801197052, 2.347942590713501 l0.40833786129951477, 1.5312670171260834 2.2458581626415253, 1.1229290813207626 l1.5312670171260834, 0.10208446532487869 1.5312670171260834, -0.6125067919492722 l1.020844653248787, -1.020844653248787 0.40833786129951477, -1.1229290813207626 l0.0, -2.4500271677970886 -0.6125067919492722, -0.7145912200212479 l-1.5312670171260834, -0.5104223266243935 -0.8166757225990295, 0.3062533959746361 m-7.247996926307678, -0.20416893064975739 l1.020844653248787, -3.266702890396118 0.0, -1.020844653248787 l-1.020844653248787, -0.20416893064975739 -1.020844653248787, 0.8166757225990295 l0.5104223266243935, 0.40833786129951477 0.5104223266243935, -0.10208446532487869 l1.2250135838985443, -0.8166757225990295 -0.10208446532487869, -0.5104223266243935 l-0.5104223266243935, -0.10208446532487869 -2.1437737345695496, 1.020844653248787 l0.6125067919492722, 0.20416893064975739 1.1229290813207626, -0.3062533959746361 l1.5312670171260834, -1.020844653248787 -0.5104223266243935, -0.3062533959746361 l-1.7354358732700348, 0.5104223266243935 -0.5104223266243935, 0.40833786129951477 l-0.20416893064975739, 0.7145912200212479 m32.66702890396118, -2.4500271677970886 l3.266702890396118, -0.8166757225990295 -2.041689306497574, 0.8166757225990295 l-0.3062533959746361, 0.5104223266243935 0.3062533959746361, 1.020844653248787 l1.32709801197052, 1.4291824400424957 3.98129403591156, 2.5521114468574524 l3.5729563236236572, 1.32709801197052 2.65419602394104, 0.6125067919492722 l2.347942590713501, 0.10208446532487869 3.0625340342521667, 0.6125067919492722 m-12.352219820022583, -2.7562806010246277 l-1.2250135838985443, 0.8166757225990295 -0.40833786129951477, 0.7145912200212479 l-0.3062533959746361, 1.1229290813207626 0.3062533959746361, 1.020844653248787 l1.32709801197052, 0.5104223266243935 1.8375203013420105, 0.10208446532487869 l0.7145912200212479, -1.32709801197052 -0.10208446532487869, -1.9396047294139862 m3.0625340342521667, 0.10208446532487869 l-0.7145912200212479, 1.633351445198059 0.3062533959746361, 1.2250135838985443 l1.4291824400424957, 1.8375203013420105 1.020844653248787, 0.5104223266243935 l0.40833786129951477, -0.6125067919492722 0.6125067919492722, -3.0625340342521667 l-0.10208446532487869, -1.1229290813207626 -0.8166757225990295, -0.20416893064975739 " fill="none" stroke="black" stroke-width="1" /></svg>