<?xml version="1.0" encoding="utf-8" ?>
<svg baseProfile="full" height="30.825231336057186" version="1.1" width="39.50240921229124" xmlns="http://www.w3.org/2000/svg" xmlns:ev="http://www.w3.org/2001/xml-events" xmlns:xlink="http://www.w3.org/1999/xlink"><defs /><rect fill="white" height="30.825231336057186" width="39.50240921229124" x="0" y="0" /><path d="M11.227150820195675, 13.77926480025053 m-2.2458581626415253, 1.1229290813207626 l-1.32709801197052, 1.9396047294139862 -0.3062533959746361, 1.633351445198059 l0.40833786129951477, 3.368787169456482 0.8166757225990295, 1.633351445198059 l1.2250135838985443, 1.2250135838985443 1.32709801197052, 0.9187601506710052 l2.8583648800849915, 0.20416893064975739 1.32709801197052, -1.1229290813207626 l3.4708717465400696, -4.4917163252830505 -0.3062533959746361, -1.633351445198059 l-5.614645481109619, -4.593800902366638 -1.5312670171260834, -0.5104223266243935 m18.98771047592163, 1.633351445198059 l-1.7354358732700348, -1.4291824400424957 -0.9187601506710052, -0.20416893064975739 l-1.32709801197052, 0.0 -2.041689306497574, 1.4291824400424957 l-2.2458581626415253, 2.5521114468574524 -1.2250135838985443, 2.960449457168579 l-0.20416893064975739, 3.266702890396118 0.6125067919492722, 0.8166757225990295 l1.1229290813207626, 0.6125067919492722 1.633351445198059, 0.10208446532487869 l2.041689306497574, -0.10208446532487869 3.7771251797676086, -1.7354358732700348 l1.1229290813207626, -1.1229290813207626 0.40833786129951477, -1.7354358732700348 l0.0, -3.266702890396118 -0.40833786129951477, -0.8166757225990295 m-22.86691904067993, -4.593800902366638 l0.7145912200212479, 0.8166757225990295 3.368787169456482, 0.40833786129951477 l3.4708717465400696, -0.3062533959746361 4.389632046222687, -1.2250135838985443 l4.79796975851059, -0.6125067919492722 3.368787169456482, 0.3062533959746361 l6.329236626625061, 2.2458581626415253 m-10.310530662536621, 2.347942590713501 l5.104222893714905, 7.4521660804748535 0.5104223266243935, 0.3062533959746361 m0.0, -7.4521660804748535 l-2.960449457168579, 1.2250135838985443 -1.8375203013420105, 1.5312670171260834 l-3.4708717465400696, 3.8792094588279724 -1.4291824400424957, 2.347942590713501 m8.575094938278198, -11.33137583732605 l-0.7145912200212479, -0.20416893064975739 -0.20416893064975739, 0.6125067919492722 l-0.10208446532487869, 3.368787169456482 -1.633351445198059, 4.900054335594177 l-0.20416893064975739, 1.633351445198059 m-13.475148677825928, -10.310530662536621 l-0.3062533959746361, 1.633351445198059 0.0, 7.4521660804748535 l0.3062533959746361, 2.347942590713501 0.20416893064975739, 0.5104223266243935 l0.5104223266243935, -0.10208446532487869 m-5.410476326942444, -6.533405780792236 l4.083378612995148, 0.10208446532487869 5.104222893714905, -1.020844653248787 l1.8375203013420105, 0.20416893064975739 m5.104222893714905, -13.373064994812012 l-10.514699220657349, 6.941743493080139 -4.4917163252830505, 4.4917163252830505 l-3.7771251797676086, 5.206307768821716 " fill="none" stroke="black" stroke-width="1" /></svg>