<?xml version="1.0" encoding="utf-8" ?>
<svg baseProfile="full" height="59.00054283440113" version="1.1" width="89.11546118557453" xmlns="http://www.w3.org/2000/svg" xmlns:ev="http://www.w3.org/2001/xml-events" xmlns:xlink="http://www.w3.org/1999/xlink"><defs /><rect fill="white" height="59.00054283440113" width="89.11546118557453" x="0" y="0" /><path d="M80.44042084366083, 38.38162008672953 m-2.2458581626415253, -1.8375203013420105 l-4.083378612995148, -1.633351445198059 -1.633351445198059, -0.3062533959746361 l-3.675040602684021, 0.0 -3.7771251797676086, 1.4291824400424957 l-3.0625340342521667, 3.0625340342521667 -0.9187601506710052, 1.9396047294139862 l-0.40833786129951477, 1.7354358732700348 0.20416893064975739, 3.8792094588279724 l1.1229290813207626, 2.041689306497574 3.266702890396118, 2.960449457168579 l2.041689306497574, 1.020844653248787 2.347942590713501, 0.7145912200212479 l2.2458581626415253, 0.20416893064975739 2.65419602394104, -0.10208446532487869 l2.347942590713501, -0.8166757225990295 2.041689306497574, -1.2250135838985443 l1.7354358732700348, -1.5312670171260834 2.5521114468574524, -3.5729563236236572 l0.6125067919492722, -1.7354358732700348 0.3062533959746361, -3.368787169456482 l-0.7145912200212479, -1.32709801197052 -1.2250135838985443, -1.020844653248787 l-1.8375203013420105, -0.8166757225990295 -6.6354900598526, -0.3062533959746361 l-1.633351445198059, 0.10208446532487869 -1.4291824400424957, 0.5104223266243935 m-49.30679798126221, -3.368787169456482 l-1.4291824400424957, -0.7145912200212479 -2.1437737345695496, -0.3062533959746361 l-3.0625340342521667, 0.0 -1.633351445198059, 0.5104223266243935 l-1.9396047294139862, 1.2250135838985443 -3.266702890396118, 3.0625340342521667 l-1.9396047294139862, 3.1646183133125305 -0.9187601506710052, 2.8583648800849915 l0.0, 4.1854628920555115 1.4291824400424957, 2.041689306497574 l2.960449457168579, 1.8375203013420105 2.347942590713501, 0.7145912200212479 l6.431320905685425, 0.40833786129951477 4.287547469139099, -1.5312670171260834 l1.32709801197052, -1.1229290813207626 0.5104223266243935, -0.9187601506710052 l1.32709801197052, -3.7771251797676086 0.0, -6.533405780792236 l-2.5521114468574524, -2.960449457168579 -1.1229290813207626, -0.8166757225990295 l-1.5312670171260834, -0.5104223266243935 -3.675040602684021, -0.10208446532487869 l-2.960449457168579, 0.5104223266243935 m9.800108671188354, 2.7562806010246277 l1.5312670171260834, -0.40833786129951477 1.5312670171260834, -1.2250135838985443 l8.064672350883484, -1.1229290813207626 15.51683783531189, -0.20416893064975739 l13.883486986160278, 0.8166757225990295 m10.412615537643433, -0.40833786129951477 l-0.10208446532487869, -8.983432650566101 -0.9187601506710052, -11.02512240409851 m-2.1437737345695496, 0.5104223266243935 l0.5104223266243935, -0.20416893064975739 -21.23356819152832, -1.633351445198059 m23.071088790893555, 0.6125067919492722 l-1.1229290813207626, -2.7562806010246277 -1.7354358732700348, -6.329236626625061 l-1.1229290813207626, -1.633351445198059 " fill="none" stroke="black" stroke-width="1" /></svg>