<?xml version="1.0" encoding="utf-8" ?>
<svg baseProfile="full" height="47.97541979700327" version="1.1" width="72.78194539248943" xmlns="http://www.w3.org/2000/svg" xmlns:ev="http://www.w3.org/2001/xml-events" xmlns:xlink="http://www.w3.org/1999/xlink"><defs /><rect fill="white" height="47.97541979700327" width="72.78194539248943" x="0" y="0" /><path d="M17.862641885876656, 6.633351407945156 m-2.347942590713501, 0.8166757225990295 l-7.656334638595581, 4.389632046222687 m9.800108671188354, -4.593800902366638 l0.5104223266243935, -0.5104223266243935 4.900054335594177, -0.20416893064975739 l4.4917163252830505, -1.5312670171260834 m-9.902192950248718, 2.4500271677970886 l0.6125067919492722, 3.1646183133125305 0.0, 3.8792094588279724 l1.32709801197052, 7.860503792762756 -3.266702890396118, -0.10208446532487869 l-1.633351445198059, 0.3062533959746361 -2.65419602394104, 0.8166757225990295 l-2.5521114468574524, 1.2250135838985443 -1.4291824400424957, 1.2250135838985443 l-1.1229290813207626, 1.7354358732700348 -0.7145912200212479, 1.7354358732700348 l-0.10208446532487869, 1.8375203013420105 3.7771251797676086, 4.79796975851059 l1.2250135838985443, 1.020844653248787 2.960449457168579, 1.1229290813207626 l3.4708717465400696, 0.40833786129951477 4.1854628920555115, 0.0 l4.593800902366638, -1.020844653248787 2.960449457168579, -1.5312670171260834 l1.4291824400424957, -1.5312670171260834 0.5104223266243935, -2.041689306497574 l0.0, -1.32709801197052 -1.1229290813207626, -3.4708717465400696 l-1.5312670171260834, -1.9396047294139862 -4.593800902366638, -3.675040602684021 l-1.7354358732700348, -1.2250135838985443 -1.7354358732700348, -0.3062533959746361 m-1.8375203013420105, 8.166757225990295 l0.10208446532487869, -9.085517525672913 m1.020844653248787, 9.391770362854004 l0.20416893064975739, 7.043827772140503 m-1.633351445198059, -6.1250680685043335 l-1.32709801197052, -0.40833786129951477 -4.083378612995148, -0.10208446532487869 l-7.96258807182312, 1.2250135838985443 m15.721007585525513, -1.633351445198059 l11.637629270553589, 1.633351445198059 m-11.943882703781128, -19.396047592163086 l0.6125067919492722, 0.0 2.65419602394104, 1.32709801197052 l3.1646183133125305, 0.7145912200212479 2.347942590713501, 0.0 l2.4500271677970886, -0.7145912200212479 3.5729563236236572, -0.40833786129951477 l7.96258807182312, 0.0 1.5312670171260834, 0.9187601506710052 l1.1229290813207626, 0.10208446532487869 2.347942590713501, 0.9187601506710052 l3.4708717465400696, 0.6125067919492722 4.083378612995148, 0.20416893064975739 l1.9396047294139862, 0.9187601506710052 0.5104223266243935, 5.920898914337158 l2.041689306497574, 5.002138614654541 0.3062533959746361, 2.1437737345695496 l-4.1854628920555115, 2.7562806010246277 -3.368787169456482, 1.633351445198059 l-2.4500271677970886, 2.8583648800849915 -0.5104223266243935, 1.633351445198059 l0.0, 1.32709801197052 0.5104223266243935, 1.633351445198059 l1.8375203013420105, 1.9396047294139862 1.1229290813207626, 0.40833786129951477 l2.960449457168579, -0.10208446532487869 3.0625340342521667, -1.1229290813207626 l3.1646183133125305, -1.633351445198059 3.8792094588279724, -4.287547469139099 l0.6125067919492722, -1.32709801197052 -0.10208446532487869, -2.347942590713501 l-1.32709801197052, -2.7562806010246277 -1.8375203013420105, -1.8375203013420105 m-4.593800902366638, 8.26884150505066 l-0.20416893064975739, 0.6125067919492722 -0.5104223266243935, 0.3062533959746361 m-6.329236626625061, 0.3062533959746361 l8.881348371505737, -2.65419602394104 3.7771251797676086, -0.40833786129951477 m-4.4917163252830505, -5.614645481109619 l-0.9187601506710052, 3.368787169456482 -1.7354358732700348, 4.083378612995148 l-1.1229290813207626, 6.431320905685425 m-3.0625340342521667, -5.818814635276794 l6.941743493080139, -2.2458581626415253 7.247996926307678, -1.4291824400424957 m-9.085517525672913, 2.2458581626415253 l-2.041689306497574, -0.5104223266243935 -2.347942590713501, -1.1229290813207626 l-3.7771251797676086, -0.8166757225990295 -6.533405780792236, -2.1437737345695496 l-10.106362104415894, -0.6125067919492722 -12.964726686477661, 0.0 " fill="none" stroke="black" stroke-width="1" /></svg>