<?xml version="1.0" encoding="utf-8" ?>
<svg baseProfile="full" height="46.342069543898106" version="1.1" width="60.633893832564354" xmlns="http://www.w3.org/2000/svg" xmlns:ev="http://www.w3.org/2001/xml-events" xmlns:xlink="http://www.w3.org/1999/xlink"><defs /><rect fill="white" height="46.342069543898106" width="60.633893832564354" x="0" y="0" /><path d="M18.47514897584915, 19.39391028136015 m-1.633351445198059, -0.3062533959746361 l-1.9396047294139862, 0.10208446532487869 -5.410476326942444, 2.041689306497574 l-2.041689306497574, 1.5312670171260834 -1.2250135838985443, 1.9396047294139862 l-0.8166757225990295, 2.347942590713501 -0.40833786129951477, 2.5521114468574524 l0.0, 2.960449457168579 0.6125067919492722, 1.7354358732700348 l1.2250135838985443, 1.633351445198059 2.5521114468574524, 1.7354358732700348 l4.389632046222687, 0.3062533959746361 2.960449457168579, -1.1229290813207626 l2.347942590713501, -2.7562806010246277 1.5312670171260834, -3.98129403591156 l0.40833786129951477, -5.512561202049255 -0.20416893064975739, -1.1229290813207626 l-0.5104223266243935, -0.7145912200212479 -3.5729563236236572, -2.347942590713501 l-2.8583648800849915, -0.9187601506710052 -1.8375203013420105, -0.10208446532487869 l-1.1229290813207626, 1.1229290813207626 m37.77125120162964, -1.633351445198059 l-1.9396047294139862, 0.6125067919492722 -3.675040602684021, 2.8583648800849915 l-2.2458581626415253, 2.1437737345695496 -2.041689306497574, 2.65419602394104 l-1.020844653248787, 1.5312670171260834 -1.020844653248787, 2.960449457168579 l0.10208446532487869, 5.002138614654541 1.4291824400424957, 2.960449457168579 l1.7354358732700348, 1.1229290813207626 1.8375203013420105, 0.5104223266243935 l6.1250680685043335, 0.10208446532487869 4.695885181427002, -2.4500271677970886 l1.633351445198059, -1.633351445198059 0.9187601506710052, -1.7354358732700348 l0.40833786129951477, -3.266702890396118 0.0, -5.614645481109619 l-0.6125067919492722, -2.2458581626415253 -1.8375203013420105, -3.5729563236236572 l-1.2250135838985443, -1.633351445198059 -0.7145912200212479, -0.40833786129951477 l-2.7562806010246277, -0.20416893064975739 -2.8583648800849915, 1.32709801197052 l-2.8583648800849915, 2.2458581626415253 -2.5521114468574524, 3.368787169456482 l-0.9187601506710052, 1.8375203013420105 m-25.214862823486328, -7.247996926307678 l-0.3062533959746361, -0.6125067919492722 -0.10208446532487869, -3.0625340342521667 l0.7145912200212479, -0.5104223266243935 1.2250135838985443, -0.10208446532487869 l11.229290962219238, 1.020844653248787 11.229290962219238, 0.0 l5.818814635276794, 0.9187601506710052 5.206307768821716, 0.20416893064975739 m-34.30037975311279, -0.9187601506710052 l-0.40833786129951477, -0.7145912200212479 -0.3062533959746361, -7.554250359535217 l-4.593800902366638, -0.10208446532487869 -0.3062533959746361, -3.675040602684021 " fill="none" stroke="black" stroke-width="1" /></svg>