<?xml version="1.0" encoding="utf-8" ?>
<svg baseProfile="full" height="23.3730648458004" version="1.1" width="21.229291073977947" xmlns="http://www.w3.org/2000/svg" xmlns:ev="http://www.w3.org/2001/xml-events" xmlns:xlink="http://www.w3.org/1999/xlink"><defs /><rect fill="white" height="23.3730648458004" width="21.229291073977947" x="0" y="0" /><path d="M5, 10.716730058193207 m1.2250135838985443, 4.79796975851059 l1.32709801197052, 2.041689306497574 0.7145912200212479, 0.0 l1.020844653248787, -1.5312670171260834 0.20416893064975739, -1.32709801197052 l-0.10208446532487869, -1.5312670171260834 -0.8166757225990295, -2.8583648800849915 l-0.6125067919492722, -0.6125067919492722 -0.9187601506710052, -0.10208446532487869 l-0.7145912200212479, 0.3062533959746361 -0.40833786129951477, 0.8166757225990295 l-0.10208446532487869, 1.7354358732700348 m7.860503792762756, -1.8375203013420105 l-0.5104223266243935, -0.20416893064975739 -0.8166757225990295, 1.4291824400424957 l-0.10208446532487869, 1.32709801197052 0.10208446532487869, 3.266702890396118 l0.9187601506710052, 1.7354358732700348 0.5104223266243935, 0.20416893064975739 l1.32709801197052, -0.6125067919492722 0.6125067919492722, -1.020844653248787 l0.5104223266243935, -3.1646183133125305 0.0, -1.5312670171260834 l-0.9187601506710052, -1.7354358732700348 -0.40833786129951477, -0.20416893064975739 l-0.8166757225990295, 0.6125067919492722 -0.40833786129951477, 1.2250135838985443 m-4.083378612995148, 2.960449457168579 l-0.8166757225990295, -0.3062533959746361 0.6125067919492722, -0.3062533959746361 l2.041689306497574, 0.0 1.5312670171260834, -0.40833786129951477 m0.10208446532487869, -0.40833786129951477 l0.0, 0.0 m-2.8583648800849915, 0.8166757225990295 l-0.20416893064975739, -4.593800902366638 -1.020844653248787, -0.8166757225990295 l-0.10208446532487869, -0.6125067919492722 m-1.32709801197052, 0.5104223266243935 l1.020844653248787, -0.5104223266243935 2.8583648800849915, -2.7562806010246277 m-4.083378612995148, 3.4708717465400696 l0.10208446532487869, -1.7354358732700348 0.6125067919492722, -2.2458581626415253 m4.1854628920555115, 5.410476326942444 l0.3062533959746361, -2.1437737345695496 m-0.20416893064975739, -0.5104223266243935 l-0.40833786129951477, 0.20416893064975739 0.7145912200212479, 0.0 l1.5312670171260834, -0.3062533959746361 0.0, -0.40833786129951477 l-1.7354358732700348, 0.40833786129951477 0.20416893064975739, -0.40833786129951477 l0.3062533959746361, 0.40833786129951477 " fill="none" stroke="black" stroke-width="1" /></svg>