<?xml version="1.0" encoding="utf-8" ?>
<svg baseProfile="full" height="31.43773715943098" version="1.1" width="36.031537763774395" xmlns="http://www.w3.org/2000/svg" xmlns:ev="http://www.w3.org/2001/xml-events" xmlns:xlink="http://www.w3.org/1999/xlink"><defs /><rect fill="white" height="31.43773715943098" width="36.031537763774395" x="0" y="0" /><path d="M11.533405631780624, 13.779263645410538 m-3.4708717465400696, 0.7145912200212479 l-2.1437737345695496, 1.020844653248787 -0.7145912200212479, 1.020844653248787 l-0.20416893064975739, 1.1229290813207626 0.0, 4.083378612995148 l0.3062533959746361, 1.633351445198059 1.1229290813207626, 1.4291824400424957 l1.633351445198059, 1.32709801197052 1.4291824400424957, 0.3062533959746361 l1.5312670171260834, -0.20416893064975739 2.347942590713501, -2.4500271677970886 l0.5104223266243935, -0.9187601506710052 0.7145912200212479, -3.266702890396118 l0.0, -1.8375203013420105 -0.8166757225990295, -2.65419602394104 l-0.9187601506710052, -1.5312670171260834 -1.32709801197052, -0.8166757225990295 m15.51683783531189, 2.7562806010246277 l-0.7145912200212479, -0.6125067919492722 -1.4291824400424957, 0.10208446532487869 l-2.2458581626415253, 1.020844653248787 -0.8166757225990295, 0.9187601506710052 l-0.40833786129951477, 1.1229290813207626 0.0, 2.4500271677970886 l0.8166757225990295, 1.1229290813207626 1.8375203013420105, 1.1229290813207626 l3.0625340342521667, 0.20416893064975739 1.32709801197052, -1.1229290813207626 l1.2250135838985443, -1.5312670171260834 1.2250135838985443, -2.5521114468574524 l0.10208446532487869, -1.7354358732700348 -0.10208446532487869, -0.7145912200212479 l-0.7145912200212479, -0.5104223266243935 -2.041689306497574, -0.6125067919492722 m-17.354358434677124, -1.8375203013420105 l7.350081205368042, 1.4291824400424957 2.041689306497574, 0.8166757225990295 l3.0625340342521667, 2.041689306497574 m-6.1250680685043335, -3.7771251797676086 l0.9187601506710052, -1.5312670171260834 3.1646183133125305, -3.368787169456482 l3.368787169456482, -2.65419602394104 0.9187601506710052, -0.3062533959746361 m-7.4521660804748535, 8.881348371505737 l11.433459520339966, -3.8792094588279724 " fill="none" stroke="black" stroke-width="1" /></svg>