<?xml version="1.0" encoding="utf-8" ?>
<svg baseProfile="full" height="51.85462921857834" version="1.1" width="64.51310325413942" xmlns="http://www.w3.org/2000/svg" xmlns:ev="http://www.w3.org/2001/xml-events" xmlns:xlink="http://www.w3.org/1999/xlink"><defs /><rect fill="white" height="51.85462921857834" width="64.51310325413942" x="0" y="0" /><path d="M5.306252986192703, 30.82736909389496 m2.4500271677970886, -0.10208446532487869 l22.764835357666016, -5.614645481109619 4.695885181427002, -0.7145912200212479 l7.247996926307678, -0.6125067919492722 9.391770362854004, -0.10208446532487869 m-29.91074800491333, -6.227152347564697 l1.2250135838985443, 1.32709801197052 7.350081205368042, 5.920898914337158 l3.0625340342521667, -8.575094938278198 m-21.641905307769775, 13.781402111053467 l-2.1437737345695496, 0.3062533959746361 -2.960449457168579, 1.4291824400424957 l-1.8375203013420105, 3.8792094588279724 0.10208446532487869, 2.65419602394104 l3.7771251797676086, 4.900054335594177 1.7354358732700348, 1.32709801197052 l4.4917163252830505, 2.1437737345695496 1.4291824400424957, 0.3062533959746361 l3.4708717465400696, -0.10208446532487869 2.1437737345695496, -0.7145912200212479 l2.347942590713501, -1.4291824400424957 1.633351445198059, -2.65419602394104 l0.5104223266243935, -2.4500271677970886 -0.20416893064975739, -5.104222893714905 l-1.8375203013420105, -5.410476326942444 -0.40833786129951477, -1.020844653248787 l-0.7145912200212479, -0.40833786129951477 -1.5312670171260834, -0.10208446532487869 m28.379480838775635, -4.083378612995148 l-0.40833786129951477, 0.0 -3.0625340342521667, 2.4500271677970886 l-1.633351445198059, 2.041689306497574 -1.020844653248787, 3.1646183133125305 l-0.10208446532487869, 1.4291824400424957 0.7145912200212479, 2.041689306497574 l1.32709801197052, 1.2250135838985443 2.041689306497574, 1.020844653248787 l2.041689306497574, 0.40833786129951477 2.4500271677970886, -0.10208446532487869 l2.1437737345695496, -0.8166757225990295 2.041689306497574, -1.32709801197052 l1.8375203013420105, -2.4500271677970886 0.8166757225990295, -2.2458581626415253 l0.0, -2.8583648800849915 -0.7145912200212479, -1.8375203013420105 l-0.8166757225990295, -1.2250135838985443 -1.020844653248787, -0.8166757225990295 l-0.8166757225990295, -0.3062533959746361 -2.7562806010246277, -0.10208446532487869 m-34.30037975311279, -7.656334638595581 l4.389632046222687, -1.5312670171260834 5.920898914337158, -1.32709801197052 l4.900054335594177, 0.0 6.1250680685043335, 0.8166757225990295 l0.40833786129951477, 0.8166757225990295 -0.10208446532487869, 1.2250135838985443 l-0.7145912200212479, 1.5312670171260834 -1.1229290813207626, 1.2250135838985443 l-2.2458581626415253, 1.633351445198059 -4.083378612995148, 1.8375203013420105 l-5.410476326942444, -0.10208446532487869 -3.5729563236236572, -1.32709801197052 l-2.5521114468574524, -0.5104223266243935 -1.020844653248787, -0.5104223266243935 l-0.10208446532487869, -0.40833786129951477 0.5104223266243935, -3.0625340342521667 m20.518977642059326, -1.4291824400424957 l4.1854628920555115, -7.656334638595581 -1.32709801197052, -0.40833786129951477 l-5.614645481109619, -0.6125067919492722 -1.633351445198059, -0.6125067919492722 m4.287547469139099, 8.779264092445374 l4.1854628920555115, -0.7145912200212479 4.083378612995148, -2.65419602394104 l2.347942590713501, -2.041689306497574 2.347942590713501, 3.8792094588279724 m-35.52539348602295, 18.068950176239014 l-0.8166757225990295, 0.40833786129951477 -2.1437737345695496, 3.7771251797676086 l-1.020844653248787, 1.020844653248787 -0.40833786129951477, 0.8166757225990295 l0.0, 1.1229290813207626 1.1229290813207626, 1.7354358732700348 l1.1229290813207626, 0.6125067919492722 2.8583648800849915, 0.20416893064975739 l1.32709801197052, -0.6125067919492722 0.40833786129951477, -1.633351445198059 l0.0, -1.633351445198059 -0.40833786129951477, -0.40833786129951477 l-2.1437737345695496, -0.6125067919492722 -2.65419602394104, 0.20416893064975739 l-0.7145912200212479, 0.40833786129951477 m36.85249090194702, -5.716729760169983 l-0.5104223266243935, 0.6125067919492722 0.10208446532487869, 2.65419602394104 l0.3062533959746361, 0.5104223266243935 0.7145912200212479, 0.10208446532487869 l1.633351445198059, -0.20416893064975739 1.020844653248787, -0.7145912200212479 l2.2458581626415253, -2.347942590713501 0.40833786129951477, -1.4291824400424957 l-0.7145912200212479, -1.020844653248787 -1.020844653248787, -0.5104223266243935 l-1.633351445198059, 0.0 -1.32709801197052, 0.7145912200212479 l-0.7145912200212479, 1.5312670171260834 " fill="none" stroke="black" stroke-width="1" /></svg>