<?xml version="1.0" encoding="utf-8" ?>
<svg baseProfile="full" height="50.62961619347334" version="1.1" width="71.04651037603617" xmlns="http://www.w3.org/2000/svg" xmlns:ev="http://www.w3.org/2001/xml-events" xmlns:xlink="http://www.w3.org/1999/xlink"><defs /><rect fill="white" height="50.62961619347334" width="71.04651037603617" x="0" y="0" /><path d="M22.45644301176071, 25.825230255723 m0.0, -0.5104223266243935 l-2.5521114468574524, -1.5312670171260834 -1.1229290813207626, -0.40833786129951477 l-2.4500271677970886, 0.0 -2.960449457168579, 1.1229290813207626 l-2.4500271677970886, 1.4291824400424957 -2.347942590713501, 1.9396047294139862 l-2.5521114468574524, 3.1646183133125305 -1.020844653248787, 2.7562806010246277 l0.0, 2.4500271677970886 2.960449457168579, 5.206307768821716 l1.7354358732700348, 1.5312670171260834 4.1854628920555115, 1.7354358732700348 l4.900054335594177, 0.9187601506710052 4.287547469139099, 0.0 l2.041689306497574, -0.9187601506710052 1.9396047294139862, -1.5312670171260834 l1.5312670171260834, -3.368787169456482 -0.20416893064975739, -6.737574338912964 l-1.32709801197052, -3.5729563236236572 -1.020844653248787, -1.4291824400424957 l-1.5312670171260834, -1.5312670171260834 -1.7354358732700348, -1.1229290813207626 l-2.1437737345695496, -0.7145912200212479 m44.40674304962158, 2.8583648800849915 l-1.1229290813207626, -0.6125067919492722 -7.1459126472473145, 0.20416893064975739 l-1.9396047294139862, 0.5104223266243935 -1.9396047294139862, 1.1229290813207626 l-1.32709801197052, 1.32709801197052 -2.4500271677970886, 3.368787169456482 l-1.9396047294139862, 5.104222893714905 0.0, 3.675040602684021 l1.633351445198059, 1.7354358732700348 2.8583648800849915, 0.9187601506710052 l4.1854628920555115, 0.20416893064975739 3.7771251797676086, -1.020844653248787 l4.79796975851059, -2.8583648800849915 1.1229290813207626, -1.633351445198059 l0.20416893064975739, -1.020844653248787 0.3062533959746361, -6.737574338912964 l-0.8166757225990295, -2.347942590713501 -1.2250135838985443, -1.7354358732700348 l-1.7354358732700348, -1.633351445198059 m-4.695885181427002, 1.020844653248787 l-3.8792094588279724, -2.041689306497574 -10.514699220657349, -3.675040602684021 l-2.2458581626415253, -1.4291824400424957 -4.1854628920555115, -4.287547469139099 l-1.2250135838985443, -0.6125067919492722 -1.4291824400424957, 0.20416893064975739 l-2.960449457168579, 2.4500271677970886 -6.431320905685425, 4.4917163252830505 l-1.1229290813207626, 0.6125067919492722 -2.8583648800849915, 0.6125067919492722 l0.3062533959746361, -0.5104223266243935 3.0625340342521667, -1.1229290813207626 l10.20844578742981, -5.410476326942444 3.5729563236236572, -2.65419602394104 l0.3062533959746361, -1.020844653248787 -1.32709801197052, -0.40833786129951477 l-9.085517525672913, 0.10208446532487869 14.495993852615356, 0.10208446532487869 l1.020844653248787, 0.20416893064975739 -0.6125067919492722, 0.40833786129951477 l-13.98557186126709, -0.40833786129951477 6.839659214019775, 0.3062533959746361 m22.96900510787964, 14.393908977508545 l-0.3062533959746361, -5.410476326942444 0.20416893064975739, -16.23142957687378 l-6.839659214019775, 0.0 -2.65419602394104, -0.8166757225990295 l6.6354900598526, 1.2250135838985443 9.59593951702118, 0.3062533959746361 l-1.5312670171260834, 0.3062533959746361 -3.675040602684021, -0.7145912200212479 l-11.127206087112427, -0.10208446532487869 " fill="none" stroke="black" stroke-width="1" /></svg>