<?xml version="1.0" encoding="utf-8" ?>
<svg baseProfile="full" height="53.181728310883045" version="1.1" width="72.67986200749874" xmlns="http://www.w3.org/2000/svg" xmlns:ev="http://www.w3.org/2001/xml-events" xmlns:xlink="http://www.w3.org/1999/xlink"><defs /><rect fill="white" height="53.181728310883045" width="72.67986200749874" x="0" y="0" /><path d="M56.45057186484337, 28.173173628747463 m-3.1646183133125305, -1.32709801197052 l-4.389632046222687, -0.40833786129951477 -2.041689306497574, 0.6125067919492722 l-2.2458581626415253, 1.32709801197052 -3.5729563236236572, 4.1854628920555115 l-1.5312670171260834, 3.675040602684021 0.0, 2.2458581626415253 l1.4291824400424957, 1.5312670171260834 1.32709801197052, 0.7145912200212479 l2.5521114468574524, 1.020844653248787 1.4291824400424957, 0.20416893064975739 l3.266702890396118, 0.0 1.7354358732700348, -0.7145912200212479 l2.041689306497574, -1.1229290813207626 3.0625340342521667, -2.65419602394104 l1.2250135838985443, -2.960449457168579 0.20416893064975739, -1.633351445198059 l0.0, -3.1646183133125305 -0.6125067919492722, -1.4291824400424957 l-2.347942590713501, -2.4500271677970886 -1.5312670171260834, -0.9187601506710052 l-2.041689306497574, -0.5104223266243935 -5.920898914337158, -0.10208446532487869 l-8.370925784111023, 2.4500271677970886 m-17.558528184890747, 3.368787169456482 l-1.1229290813207626, -0.5104223266243935 -1.1229290813207626, 0.0 l-1.32709801197052, 0.3062533959746361 -1.7354358732700348, 0.9187601506710052 l-2.2458581626415253, 2.041689306497574 -2.1437737345695496, 2.7562806010246277 l-1.1229290813207626, 2.1437737345695496 -1.020844653248787, 3.98129403591156 l0.20416893064975739, 3.4708717465400696 0.8166757225990295, 1.4291824400424957 l1.5312670171260834, 1.1229290813207626 1.8375203013420105, 0.40833786129951477 l4.593800902366638, 0.0 2.4500271677970886, -1.1229290813207626 l4.389632046222687, -3.4708717465400696 1.32709801197052, -1.32709801197052 l1.020844653248787, -1.7354358732700348 1.020844653248787, -4.900054335594177 l-0.3062533959746361, -3.368787169456482 -1.5312670171260834, -1.8375203013420105 l-2.1437737345695496, -1.633351445198059 -1.5312670171260834, -0.7145912200212479 l-3.7771251797676086, -0.10208446532487869 m-5.002138614654541, 2.2458581626415253 l0.3062533959746361, 3.0625340342521667 2.347942590713501, 7.554250359535217 l1.32709801197052, 3.266702890396118 0.8166757225990295, 0.8166757225990295 l0.6125067919492722, 0.10208446532487869 0.3062533959746361, -4.389632046222687 m3.368787169456482, -12.148051261901855 l-0.10208446532487869, 0.8166757225990295 -3.266702890396118, 3.0625340342521667 l-4.593800902366638, 5.410476326942444 -4.287547469139099, 6.022983193397522 l-2.041689306497574, 3.7771251797676086 m13.2709801197052, -17.252274751663208 l-0.6125067919492722, 1.2250135838985443 -0.40833786129951477, 2.4500271677970886 l0.0, 9.085517525672913 m26.84821367263794, -15.312669277191162 l0.5104223266243935, 0.8166757225990295 3.5729563236236572, 3.0625340342521667 l1.4291824400424957, 1.633351445198059 1.2250135838985443, 1.8375203013420105 l1.5312670171260834, 4.593800902366638 m1.1229290813207626, -11.943882703781128 l-1.9396047294139862, 0.6125067919492722 -2.4500271677970886, 1.8375203013420105 l-8.575094938278198, 8.370925784111023 -2.65419602394104, 2.1437737345695496 m3.368787169456482, -11.841797828674316 l2.347942590713501, 3.4708717465400696 2.041689306497574, 3.8792094588279724 l0.8166757225990295, 2.4500271677970886 0.10208446532487869, 1.32709801197052 m-43.794236183166504, -9.28968608379364 l0.9187601506710052, -0.40833786129951477 2.4500271677970886, -0.3062533959746361 l6.227152347564697, -0.20416893064975739 10.106362104415894, -1.32709801197052 l7.4521660804748535, -0.6125067919492722 22.35649824142456, -0.3062533959746361 l1.4291824400424957, -0.3062533959746361 1.32709801197052, -2.960449457168579 l1.5312670171260834, -5.410476326942444 1.020844653248787, -5.410476326942444 l-0.5104223266243935, -1.4291824400424957 -3.1646183133125305, -3.4708717465400696 l-0.9187601506710052, -3.0625340342521667 0.10208446532487869, 1.4291824400424957 l2.041689306497574, 4.4917163252830505 2.2458581626415253, 2.041689306497574 l1.633351445198059, 0.10208446532487869 1.020844653248787, -0.10208446532487869 l1.020844653248787, -0.6125067919492722 2.347942590713501, -2.347942590713501 l1.020844653248787, -1.7354358732700348 1.020844653248787, -3.7771251797676086 " fill="none" stroke="black" stroke-width="1" /></svg>