<?xml version="1.0" encoding="utf-8" ?>
<svg baseProfile="full" height="24.90433171391487" version="1.1" width="30.927315168082714" xmlns="http://www.w3.org/2000/svg" xmlns:ev="http://www.w3.org/2001/xml-events" xmlns:xlink="http://www.w3.org/1999/xlink"><defs /><rect fill="white" height="24.90433171391487" width="30.927315168082714" x="0" y="0" /><path d="M10.104223564267159, 12.247996889054775 m-0.8166757225990295, -0.40833786129951477 l-1.1229290813207626, 0.10208446532487869 -1.4291824400424957, 1.633351445198059 l-0.7145912200212479, 2.041689306497574 0.3062533959746361, 2.4500271677970886 l2.7562806010246277, 1.8375203013420105 1.9396047294139862, 0.0 l1.020844653248787, -0.40833786129951477 0.6125067919492722, -0.8166757225990295 l0.6125067919492722, -2.2458581626415253 0.10208446532487869, -2.7562806010246277 l-2.1437737345695496, -1.7354358732700348 -2.041689306497574, -0.40833786129951477 l-0.20416893064975739, 0.3062533959746361 m1.32709801197052, -0.10208446532487869 l4.695885181427002, 0.10208446532487869 5.716729760169983, 0.8166757225990295 m1.2250135838985443, -0.8166757225990295 l-0.7145912200212479, 0.20416893064975739 -1.1229290813207626, 1.020844653248787 l-0.8166757225990295, 1.5312670171260834 -0.10208446532487869, 1.32709801197052 l0.40833786129951477, 0.9187601506710052 1.2250135838985443, 1.2250135838985443 l1.633351445198059, 0.5104223266243935 2.347942590713501, 0.0 l1.1229290813207626, -1.5312670171260834 -0.20416893064975739, -1.8375203013420105 l-4.79796975851059, -2.65419602394104 m-11.02512240409851, -1.1229290813207626 l-0.7145912200212479, -0.3062533959746361 -2.347942590713501, -4.287547469139099 m0.10208446532487869, -0.20416893064975739 l-1.9396047294139862, 1.4291824400424957 m1.4291824400424957, -1.1229290813207626 l2.347942590713501, -1.633351445198059 m-2.347942590713501, 0.0 l0.10208446532487869, 0.5104223266243935 1.2250135838985443, 0.10208446532487869 l0.40833786129951477, -0.5104223266243935 -0.8166757225990295, -0.40833786129951477 " fill="none" stroke="black" stroke-width="1" /></svg>