<?xml version="1.0" encoding="utf-8" ?>
<svg baseProfile="full" height="46.64832264184952" version="1.1" width="54.61090978235006" xmlns="http://www.w3.org/2000/svg" xmlns:ev="http://www.w3.org/2001/xml-events" xmlns:xlink="http://www.w3.org/1999/xlink"><defs /><rect fill="white" height="46.64832264184952" width="54.61090978235006" x="0" y="0" /><path d="M11.022983379662037, 40.62747798860073 m0.0, 0.5104223266243935 l-1.1229290813207626, 0.5104223266243935 -1.32709801197052, 0.0 l-2.4500271677970886, -1.5312670171260834 -1.020844653248787, -2.5521114468574524 l-0.10208446532487869, -4.1854628920555115 0.6125067919492722, -1.7354358732700348 l1.020844653248787, -1.5312670171260834 1.2250135838985443, -1.020844653248787 l2.8583648800849915, -1.2250135838985443 2.8583648800849915, -0.10208446532487869 l2.2458581626415253, 1.4291824400424957 0.7145912200212479, 1.633351445198059 l0.20416893064975739, 5.614645481109619 -1.2250135838985443, 2.2458581626415253 l-1.7354358732700348, 1.2250135838985443 -1.32709801197052, 0.3062533959746361 l-3.4708717465400696, 0.0 m33.48370313644409, -0.10208446532487869 l-2.347942590713501, 0.20416893064975739 -2.8583648800849915, -1.020844653248787 l-5.206307768821716, -3.0625340342521667 -1.633351445198059, -2.4500271677970886 l0.0, -2.65419602394104 0.6125067919492722, -1.7354358732700348 l2.041689306497574, -2.4500271677970886 3.0625340342521667, -1.1229290813207626 l3.7771251797676086, 0.10208446532487869 1.020844653248787, 0.5104223266243935 l2.041689306497574, 2.2458581626415253 1.5312670171260834, 2.5521114468574524 l0.8166757225990295, 2.4500271677970886 0.0, 3.1646183133125305 l-0.40833786129951477, 0.7145912200212479 -1.7354358732700348, 1.2250135838985443 l-3.1646183133125305, 0.20416893064975739 m-29.91074800491333, -11.841797828674316 l2.4500271677970886, -2.1437737345695496 1.633351445198059, -0.8166757225990295 l7.554250359535217, -2.1437737345695496 3.7771251797676086, -0.5104223266243935 l5.104222893714905, 0.3062533959746361 6.533405780792236, 2.2458581626415253 l3.0625340342521667, 1.7354358732700348 m-4.79796975851059, -3.675040602684021 l2.4500271677970886, -3.1646183133125305 1.1229290813207626, -2.7562806010246277 l0.6125067919492722, -5.002138614654541 -0.10208446532487869, -3.1646183133125305 m-0.40833786129951477, 0.9187601506710052 l2.347942590713501, -0.9187601506710052 3.5729563236236572, -0.20416893064975739 l2.347942590713501, 0.7145912200212479 2.2458581626415253, 1.633351445198059 m-11.433459520339966, -1.4291824400424957 l-1.32709801197052, -0.8166757225990295 -2.347942590713501, -2.4500271677970886 l-1.5312670171260834, -0.5104223266243935 -2.2458581626415253, 0.10208446532487869 l-4.1854628920555115, 2.041689306497574 m-7.247996926307678, 14.291825294494629 l-2.041689306497574, -3.675040602684021 -1.4291824400424957, -3.98129403591156 l-1.020844653248787, -0.3062533959746361 -2.041689306497574, 1.2250135838985443 l0.0, -0.7145912200212479 4.083378612995148, -1.32709801197052 l1.633351445198059, 0.20416893064975739 0.10208446532487869, 0.7145912200212479 l-0.5104223266243935, 0.9187601506710052 -1.2250135838985443, 0.7145912200212479 l-3.368787169456482, 0.20416893064975739 -0.5104223266243935, -0.40833786129951477 l0.0, -0.5104223266243935 0.5104223266243935, -0.6125067919492722 l3.1646183133125305, -1.633351445198059 1.1229290813207626, 0.0 l0.0, 0.7145912200212479 -0.5104223266243935, 0.3062533959746361 l-2.65419602394104, 0.8166757225990295 2.347942590713501, -1.7354358732700348 l2.2458581626415253, -1.020844653248787 1.32709801197052, -0.10208446532487869 l-1.7354358732700348, 1.633351445198059 -3.98129403591156, 2.041689306497574 l-1.1229290813207626, 0.20416893064975739 0.0, -0.6125067919492722 l1.633351445198059, -1.4291824400424957 2.2458581626415253, -1.1229290813207626 l2.041689306497574, -0.5104223266243935 -0.3062533959746361, 0.8166757225990295 l-4.1854628920555115, 1.8375203013420105 -0.6125067919492722, 0.10208446532487869 l0.3062533959746361, -0.7145912200212479 2.041689306497574, -1.020844653248787 l3.5729563236236572, -0.8166757225990295 -0.40833786129951477, 0.9187601506710052 l-0.9187601506710052, 0.5104223266243935 -4.1854628920555115, 1.5312670171260834 " fill="none" stroke="black" stroke-width="1" /></svg>