<?xml version="1.0" encoding="utf-8" ?>
<svg baseProfile="full" height="57.367190197110176" version="1.1" width="78.09033662080765" xmlns="http://www.w3.org/2000/svg" xmlns:ev="http://www.w3.org/2001/xml-events" xmlns:xlink="http://www.w3.org/1999/xlink"><defs /><rect fill="white" height="57.367190197110176" width="78.09033662080765" x="0" y="0" /><path d="M16.025121808052063, 35.01283183693886 m-5.104222893714905, -0.10208446532487869 l-2.041689306497574, 0.8166757225990295 -1.8375203013420105, 1.32709801197052 l-1.2250135838985443, 1.633351445198059 -0.6125067919492722, 1.5312670171260834 l-0.20416893064975739, 3.5729563236236572 1.32709801197052, 3.368787169456482 l1.2250135838985443, 1.633351445198059 2.041689306497574, 1.5312670171260834 l2.1437737345695496, 1.020844653248787 5.512561202049255, 0.40833786129951477 l3.368787169456482, -0.8166757225990295 2.347942590713501, -1.1229290813207626 l1.4291824400424957, -1.633351445198059 0.3062533959746361, -1.32709801197052 l0.0, -1.4291824400424957 -2.4500271677970886, -6.1250680685043335 l-1.4291824400424957, -2.041689306497574 -1.8375203013420105, -1.4291824400424957 l-1.8375203013420105, -0.40833786129951477 -3.5729563236236572, 0.0 l-1.9396047294139862, 0.3062533959746361 0.20416893064975739, 0.5104223266243935 m-0.7145912200212479, -1.7354358732700348 l0.7145912200212479, -1.32709801197052 11.02512240409851, -14.598078727722168 l0.7145912200212479, -2.041689306497574 m0.3062533959746361, 0.7145912200212479 l-0.10208446532487869, 12.964726686477661 -0.3062533959746361, 2.1437737345695496 l-3.98129403591156, 10.106362104415894 -0.10208446532487869, -3.7771251797676086 m4.389632046222687, -20.825231075286865 l3.368787169456482, 0.8166757225990295 10.004277229309082, 0.40833786129951477 l2.5521114468574524, 0.40833786129951477 6.227152347564697, 1.633351445198059 l7.350081205368042, 2.65419602394104 3.7771251797676086, 0.40833786129951477 l0.10208446532487869, -0.7145912200212479 m0.40833786129951477, -0.20416893064975739 l-1.32709801197052, 1.32709801197052 -9.800108671188354, 13.066811561584473 l-1.020844653248787, 2.65419602394104 m12.658473253250122, -16.53768301010132 l0.9187601506710052, 0.40833786129951477 4.695885181427002, 6.6354900598526 l4.900054335594177, 5.920898914337158 m0.6125067919492722, 0.20416893064975739 l-1.8375203013420105, -1.1229290813207626 -18.375203609466553, -2.7562806010246277 l-6.022983193397522, 0.0 -0.5104223266243935, 0.3062533959746361 l-0.9187601506710052, 1.32709801197052 -0.6125067919492722, 1.7354358732700348 l-0.7145912200212479, 5.206307768821716 1.020844653248787, 2.7562806010246277 l2.4500271677970886, 3.266702890396118 3.675040602684021, 2.4500271677970886 l6.227152347564697, 2.041689306497574 8.370925784111023, 0.20416893064975739 l3.8792094588279724, -0.40833786129951477 3.0625340342521667, -0.9187601506710052 l2.4500271677970886, -1.32709801197052 1.020844653248787, -1.2250135838985443 l0.5104223266243935, -1.32709801197052 0.20416893064975739, -3.4708717465400696 l-0.3062533959746361, -2.347942590713501 -0.8166757225990295, -2.5521114468574524 l-1.32709801197052, -2.4500271677970886 -2.5521114468574524, -3.4708717465400696 l-3.675040602684021, -1.8375203013420105 -11.33137583732605, -2.1437737345695496 m-31.03367567062378, -12.86264181137085 l-1.5312670171260834, -2.041689306497574 -3.266702890396118, -8.26884150505066 l-0.7145912200212479, -0.7145912200212479 " fill="none" stroke="black" stroke-width="1" /></svg>