<?xml version="1.0" encoding="utf-8" ?>
<svg baseProfile="full" height="45.01497145742178" version="1.1" width="43.789957985281944" xmlns="http://www.w3.org/2000/svg" xmlns:ev="http://www.w3.org/2001/xml-events" xmlns:xlink="http://www.w3.org/1999/xlink"><defs /><rect fill="white" height="45.01497145742178" width="43.789957985281944" x="0" y="0" /><path d="M17.658473514020443, 25.9273162484169 m-3.5729563236236572, -1.7354358732700348 l-3.266702890396118, -0.7145912200212479 -3.368787169456482, 0.10208446532487869 l-1.020844653248787, 0.6125067919492722 -0.9187601506710052, 1.020844653248787 l-0.5104223266243935, 1.32709801197052 0.0, 5.104222893714905 l0.7145912200212479, 1.5312670171260834 2.347942590713501, 2.5521114468574524 l3.4708717465400696, 1.7354358732700348 3.5729563236236572, 0.3062533959746361 l1.5312670171260834, -0.8166757225990295 1.32709801197052, -1.5312670171260834 l0.9187601506710052, -1.7354358732700348 0.3062533959746361, -2.041689306497574 l-0.3062533959746361, -3.8792094588279724 -2.041689306497574, -3.368787169456482 m21.131484508514404, 1.9396047294139862 l-4.1854628920555115, -3.266702890396118 -2.8583648800849915, -0.7145912200212479 l-2.65419602394104, 0.20416893064975739 -1.1229290813207626, 0.9187601506710052 l-0.7145912200212479, 1.1229290813207626 -0.40833786129951477, 1.4291824400424957 l0.0, 3.4708717465400696 0.7145912200212479, 2.8583648800849915 l0.8166757225990295, 1.2250135838985443 1.32709801197052, 1.020844653248787 l4.695885181427002, 1.4291824400424957 2.8583648800849915, 0.40833786129951477 l2.1437737345695496, -0.3062533959746361 0.20416893064975739, -2.041689306497574 l-0.6125067919492722, -3.4708717465400696 -0.40833786129951477, -2.1437737345695496 l-1.020844653248787, -2.347942590713501 m-20.518977642059326, -1.020844653248787 l-0.5104223266243935, 1.7354358732700348 -2.8583648800849915, 3.98129403591156 l-1.7354358732700348, 3.0625340342521667 -1.4291824400424957, 1.5312670171260834 m-3.5729563236236572, -9.493855237960815 l1.32709801197052, 0.40833786129951477 5.30839204788208, 3.8792094588279724 l5.410476326942444, 5.716729760169983 m2.65419602394104, -4.695885181427002 l-6.227152347564697, -0.20416893064975739 -8.473010659217834, 0.3062533959746361 m5.920898914337158, -8.779264092445374 l0.6125067919492722, 1.4291824400424957 0.20416893064975739, 1.5312670171260834 l0.10208446532487869, 12.148051261901855 m24.194018840789795, -9.085517525672913 l-15.210585594177246, 0.5104223266243935 m8.473010659217834, -6.737574338912964 l0.0, 2.5521114468574524 0.9187601506710052, 7.656334638595581 l0.0, 7.4521660804748535 m-3.266702890396118, -6.839659214019775 l3.4708717465400696, -3.0625340342521667 4.083378612995148, -2.4500271677970886 m1.020844653248787, 7.043827772140503 l-2.1437737345695496, -3.4708717465400696 -5.410476326942444, -7.043827772140503 m-17.456443309783936, -1.5312670171260834 l0.9187601506710052, -0.20416893064975739 4.79796975851059, -4.287547469139099 l1.9396047294139862, -0.9187601506710052 2.5521114468574524, -0.40833786129951477 l2.2458581626415253, 0.10208446532487869 4.1854628920555115, 1.4291824400424957 l5.716729760169983, 4.083378612995148 m-10.9230375289917, -5.512561202049255 l2.041689306497574, -1.633351445198059 6.6354900598526, -3.5729563236236572 m-0.10208446532487869, -1.4291824400424957 l-0.9187601506710052, -0.10208446532487869 -4.900054335594177, -4.695885181427002 l-0.20416893064975739, -0.5104223266243935 " fill="none" stroke="black" stroke-width="1" /></svg>