<?xml version="1.0" encoding="utf-8" ?>
<svg baseProfile="full" height="41.646184250712395" version="1.1" width="59.40887954086065" xmlns="http://www.w3.org/2000/svg" xmlns:ev="http://www.w3.org/2001/xml-events" xmlns:xlink="http://www.w3.org/1999/xlink"><defs /><rect fill="white" height="41.646184250712395" width="59.40887954086065" x="0" y="0" /><path d="M17.86264318972826, 20.925176963210106 m-3.7771251797676086, -0.3062533959746361 l-1.5312670171260834, 0.6125067919492722 -1.1229290813207626, 1.1229290813207626 l-1.2250135838985443, 1.9396047294139862 -1.1229290813207626, 4.79796975851059 l0.10208446532487869, 3.8792094588279724 0.9187601506710052, 1.32709801197052 l1.32709801197052, 1.1229290813207626 3.5729563236236572, 0.6125067919492722 l2.1437737345695496, 0.0 2.347942590713501, -0.5104223266243935 l3.675040602684021, -2.5521114468574524 2.041689306497574, -2.5521114468574524 l0.3062533959746361, -1.5312670171260834 -0.20416893064975739, -3.1646183133125305 l-1.4291824400424957, -2.4500271677970886 -2.65419602394104, -1.4291824400424957 l-3.98129403591156, -1.1229290813207626 m25.41903018951416, -1.020844653248787 l-2.2458581626415253, 0.10208446532487869 -0.9187601506710052, 0.5104223266243935 l-1.9396047294139862, 2.2458581626415253 -1.7354358732700348, 4.389632046222687 l-0.3062533959746361, 6.022983193397522 0.7145912200212479, 1.633351445198059 l1.020844653248787, 1.1229290813207626 2.960449457168579, 0.9187601506710052 l3.5729563236236572, -0.10208446532487869 2.041689306497574, -1.020844653248787 l1.633351445198059, -1.633351445198059 1.4291824400424957, -2.041689306497574 l1.020844653248787, -2.041689306497574 1.020844653248787, -3.98129403591156 l0.0, -3.368787169456482 -0.9187601506710052, -1.2250135838985443 l-1.32709801197052, -1.020844653248787 -1.7354358732700348, -0.5104223266243935 l-3.98129403591156, 0.0 -3.368787169456482, 0.8166757225990295 m-34.60663318634033, 2.1437737345695496 l0.10208446532487869, -0.8166757225990295 1.020844653248787, -1.32709801197052 l1.7354358732700348, -1.1229290813207626 2.041689306497574, -0.8166757225990295 l3.368787169456482, -0.3062533959746361 3.266702890396118, 0.8166757225990295 l3.368787169456482, 1.633351445198059 4.389632046222687, 2.8583648800849915 l2.2458581626415253, 0.9187601506710052 0.7145912200212479, 0.0 l2.65419602394104, -1.5312670171260834 5.104222893714905, -0.6125067919492722 l1.9396047294139862, -1.4291824400424957 2.8583648800849915, -1.2250135838985443 l2.347942590713501, -0.6125067919492722 2.65419602394104, -0.20416893064975739 l1.32709801197052, 0.20416893064975739 2.65419602394104, 1.32709801197052 l2.5521114468574524, 2.1437737345695496 1.020844653248787, 1.5312670171260834 l2.041689306497574, 1.9396047294139862 m-10.412615537643433, -7.860503792762756 l-0.40833786129951477, -0.5104223266243935 0.0, -0.9187601506710052 l1.2250135838985443, -10.718868970870972 -2.041689306497574, 0.3062533959746361 l-0.10208446532487869, -0.8166757225990295 2.7562806010246277, -0.5104223266243935 l0.5104223266243935, 0.3062533959746361 0.0, 0.5104223266243935 l-0.7145912200212479, 0.40833786129951477 2.4500271677970886, -0.10208446532487869 m-26.23570680618286, 17.252274751663208 l1.4291824400424957, -4.4917163252830505 0.40833786129951477, -3.8792094588279724 l0.0, -4.593800902366638 -0.3062533959746361, -1.5312670171260834 l-0.9187601506710052, 2.041689306497574 -0.6125067919492722, 0.40833786129951477 l-0.8166757225990295, 0.0 -0.20416893064975739, -0.9187601506710052 l0.40833786129951477, -0.5104223266243935 0.6125067919492722, -0.10208446532487869 l1.1229290813207626, 0.3062533959746361 -0.40833786129951477, -0.7145912200212479 l0.40833786129951477, -0.6125067919492722 4.389632046222687, 0.0 " fill="none" stroke="black" stroke-width="1" /></svg>