<?xml version="1.0" encoding="utf-8" ?>
<svg baseProfile="full" height="29.498132579028606" version="1.1" width="43.68787206709385" xmlns="http://www.w3.org/2000/svg" xmlns:ev="http://www.w3.org/2001/xml-events" xmlns:xlink="http://www.w3.org/1999/xlink"><defs /><rect fill="white" height="29.498132579028606" width="43.68787206709385" x="0" y="0" /><path d="M19.495992995798588, 11.533405631780624 m0.0, 2.041689306497574 l0.6125067919492722, 1.1229290813207626 10.106362104415894, -2.347942590713501 l-6.941743493080139, -1.2250135838985443 -4.79796975851059, -0.20416893064975739 m11.739712953567505, 1.32709801197052 l-0.10208446532487869, -1.633351445198059 -3.5729563236236572, -3.7771251797676086 m3.368787169456482, 3.368787169456482 l8.779264092445374, 1.2250135838985443 m-19.702301025390625, -0.7145912200212479 l-0.5104223266243935, -0.40833786129951477 -0.6125067919492722, -1.7354358732700348 l0.3062533959746361, -0.5104223266243935 2.2458581626415253, -0.3062533959746361 l1.020844653248787, 0.40833786129951477 0.10208446532487869, 1.633351445198059 l-0.3062533959746361, 0.8166757225990295 m-2.65419602394104, -2.8583648800849915 l-0.3062533959746361, -1.020844653248787 0.5104223266243935, -0.20416893064975739 l0.6125067919492722, 0.10208446532487869 0.3062533959746361, 0.5104223266243935 l-0.5104223266243935, 0.40833786129951477 m0.9187601506710052, -0.10208446532487869 l-0.5104223266243935, -0.10208446532487869 0.10208446532487869, -0.5104223266243935 l0.5104223266243935, -0.3062533959746361 0.5104223266243935, 0.3062533959746361 l-0.10208446532487869, 0.7145912200212479 m-1.5312670171260834, -1.32709801197052 l0.0, -1.1229290813207626 0.5104223266243935, -0.10208446532487869 l0.5104223266243935, 0.20416893064975739 0.3062533959746361, 1.4291824400424957 m-1.020844653248787, -0.9187601506710052 l0.20416893064975739, 0.0 m-0.10208446532487869, -0.6125067919492722 l0.10208446532487869, 0.6125067919492722 m0.20416893064975739, 8.983432650566101 l-2.347942590713501, 0.0 -2.041689306497574, 0.6125067919492722 l-5.104222893714905, 0.7145912200212479 m7.554250359535217, -5.002138614654541 l-4.4917163252830505, 3.266702890396118 -1.7354358732700348, 0.8166757225990295 l-2.347942590713501, 0.40833786129951477 -1.7354358732700348, 0.7145912200212479 l-2.1437737345695496, 2.7562806010246277 -0.40833786129951477, 1.1229290813207626 l0.0, 2.041689306497574 0.8166757225990295, 1.32709801197052 l2.65419602394104, 0.7145912200212479 2.5521114468574524, 0.3062533959746361 l0.8166757225990295, -0.20416893064975739 2.5521114468574524, -3.368787169456482 l0.0, -1.2250135838985443 -1.2250135838985443, -2.960449457168579 l-0.6125067919492722, -0.6125067919492722 -2.960449457168579, -0.20416893064975739 m20.314807891845703, -3.368787169456482 l-0.7145912200212479, 0.5104223266243935 -0.9187601506710052, 1.7354358732700348 l-0.6125067919492722, 5.30839204788208 1.7354358732700348, 1.4291824400424957 l1.1229290813207626, 0.7145912200212479 0.5104223266243935, 0.0 l1.4291824400424957, -0.6125067919492722 1.32709801197052, -1.8375203013420105 l0.20416893064975739, -2.2458581626415253 -1.1229290813207626, -3.5729563236236572 l-1.8375203013420105, -0.6125067919492722 -1.5312670171260834, 0.10208446532487869 " fill="none" stroke="black" stroke-width="1" /></svg>