<?xml version="1.0" encoding="utf-8" ?>
<svg baseProfile="full" height="61.246400251984596" version="1.1" width="109.63444132357836" xmlns="http://www.w3.org/2000/svg" xmlns:ev="http://www.w3.org/2001/xml-events" xmlns:xlink="http://www.w3.org/1999/xlink"><defs /><rect fill="white" height="61.246400251984596" width="109.63444132357836" x="0" y="0" /><path d="M32.562811337411404, 22.86478031426668 m-4.389632046222687, -0.10208446532487869 l-3.7771251797676086, 0.7145912200212479 -3.0625340342521667, 1.020844653248787 l-1.4291824400424957, 2.1437737345695496 -0.20416893064975739, 2.7562806010246277 l0.6125067919492722, 4.1854628920555115 1.7354358732700348, 5.512561202049255 l1.8375203013420105, 5.002138614654541 1.1229290813207626, 1.633351445198059 l2.2458581626415253, 1.2250135838985443 2.8583648800849915, -0.40833786129951477 l3.4708717465400696, -1.8375203013420105 1.7354358732700348, -1.9396047294139862 l1.7354358732700348, -3.4708717465400696 0.6125067919492722, -3.5729563236236572 l-0.10208446532487869, -3.1646183133125305 -0.6125067919492722, -1.9396047294139862 l-0.9187601506710052, -1.2250135838985443 -1.4291824400424957, -0.8166757225990295 l-2.041689306497574, -0.3062533959746361 -2.347942590713501, 0.6125067919492722 m37.567081451416016, -2.2458581626415253 l-2.041689306497574, -0.3062533959746361 -4.389632046222687, 0.0 l-1.8375203013420105, 0.3062533959746361 -4.1854628920555115, 1.7354358732700348 l-1.32709801197052, 1.2250135838985443 -2.041689306497574, 2.7562806010246277 l-1.020844653248787, 2.347942590713501 -1.2250135838985443, 5.30839204788208 l-0.3062533959746361, 3.0625340342521667 0.40833786129951477, 4.900054335594177 l1.32709801197052, 4.287547469139099 2.1437737345695496, 2.8583648800849915 l3.5729563236236572, 1.020844653248787 6.941743493080139, 0.10208446532487869 l4.79796975851059, -1.4291824400424957 10.106362104415894, -4.1854628920555115 l9.902192950248718, -5.716729760169983 4.083378612995148, -2.7562806010246277 l6.227152347564697, -5.206307768821716 3.675040602684021, -4.1854628920555115 l1.8375203013420105, -3.368787169456482 0.20416893064975739, -2.7562806010246277 l-1.4291824400424957, -2.347942590713501 -3.4708717465400696, -1.633351445198059 l-5.818814635276794, -0.9187601506710052 -6.6354900598526, 0.40833786129951477 m-24.194018840789795, 7.043827772140503 l0.6125067919492722, 0.8166757225990295 6.227152347564697, 17.048105001449585 m8.473010659217834, -18.57937216758728 l-0.8166757225990295, 1.2250135838985443 -1.1229290813207626, 0.8166757225990295 l-7.4521660804748535, 2.7562806010246277 -2.347942590713501, 1.1229290813207626 l-2.2458581626415253, 1.633351445198059 -4.1854628920555115, 3.1646183133125305 l-3.0625340342521667, 2.960449457168579 -1.5312670171260834, 1.9396047294139862 l-0.6125067919492722, 1.4291824400424957 m7.554250359535217, -13.781402111053467 l5.30839204788208, 1.633351445198059 4.79796975851059, 2.65419602394104 l9.391770362854004, 7.758418917655945 9.59593951702118, 8.983432650566101 m-66.55907154083252, -27.66489028930664 l3.266702890396118, 22.35649824142456 0.3062533959746361, -0.8166757225990295 m6.1250680685043335, -9.28968608379364 l-8.779264092445374, -1.020844653248787 m-3.7771251797676086, -7.247996926307678 l7.96258807182312, 6.022983193397522 4.1854628920555115, 2.7562806010246277 l3.8792094588279724, 5.30839204788208 0.40833786129951477, 1.32709801197052 m0.40833786129951477, -37.26082801818848 l7.758418917655945, 9.085517525672913 0.7145912200212479, 3.0625340342521667 l1.8375203013420105, 3.266702890396118 m-10.61678409576416, -15.312669277191162 l0.10208446532487869, 5.30839204788208 -0.6125067919492722, 2.8583648800849915 l-1.1229290813207626, 2.8583648800849915 -2.2458581626415253, 2.8583648800849915 l-1.2250135838985443, 0.9187601506710052 -1.32709801197052, 0.40833786129951477 m13.57723355293274, -2.5521114468574524 l4.083378612995148, 3.675040602684021 2.65419602394104, 2.8583648800849915 l4.287547469139099, 3.266702890396118 m0.3062533959746361, -24.194018840789795 l-2.5521114468574524, -0.3062533959746361 -47.77553081512451, 0.0 l-1.9396047294139862, -0.3062533959746361 " fill="none" stroke="black" stroke-width="1" /></svg>