<?xml version="1.0" encoding="utf-8" ?>
<svg baseProfile="full" height="69.31107323616743" version="1.1" width="86.56334582716227" xmlns="http://www.w3.org/2000/svg" xmlns:ev="http://www.w3.org/2001/xml-events" xmlns:xlink="http://www.w3.org/1999/xlink"><defs /><rect fill="white" height="69.31107323616743" width="86.56334582716227" x="0" y="0" /><path d="M13.268841244280338, 41.137899979949 m-6.431320905685425, 1.2250135838985443 l-1.1229290813207626, 0.40833786129951477 -0.3062533959746361, 0.5104223266243935 l-0.40833786129951477, 2.2458581626415253 0.0, 8.677179217338562 l0.7145912200212479, 3.5729563236236572 0.6125067919492722, 1.2250135838985443 l0.9187601506710052, 0.9187601506710052 1.32709801197052, 0.40833786129951477 l4.083378612995148, -0.10208446532487869 2.041689306497574, -0.6125067919492722 l1.8375203013420105, -0.7145912200212479 2.5521114468574524, -1.9396047294139862 l1.020844653248787, -1.1229290813207626 0.9187601506710052, -2.041689306497574 l0.5104223266243935, -2.1437737345695496 0.0, -2.4500271677970886 l-0.5104223266243935, -1.2250135838985443 -1.5312670171260834, -1.8375203013420105 l-2.7562806010246277, -2.1437737345695496 -3.5729563236236572, -2.041689306497574 l-0.3062533959746361, 0.3062533959746361 m59.413156509399414, 6.839659214019775 l-0.3062533959746361, 0.6125067919492722 -3.1646183133125305, 2.960449457168579 l-1.32709801197052, 2.1437737345695496 0.10208446532487869, 2.65419602394104 l1.020844653248787, 2.1437737345695496 2.5521114468574524, 3.675040602684021 l1.9396047294139862, 1.020844653248787 2.4500271677970886, 0.0 l1.32709801197052, -0.7145912200212479 2.8583648800849915, -2.5521114468574524 l1.2250135838985443, -2.4500271677970886 0.6125067919492722, -2.347942590713501 l0.0, -1.633351445198059 -0.3062533959746361, -0.7145912200212479 l-2.5521114468574524, -2.7562806010246277 -2.4500271677970886, -1.4291824400424957 l-2.347942590713501, -0.9187601506710052 -1.633351445198059, 0.40833786129951477 l-0.3062533959746361, 0.8166757225990295 0.3062533959746361, 0.3062533959746361 m-54.30893421173096, -6.839659214019775 l3.368787169456482, -3.266702890396118 1.020844653248787, -2.65419602394104 l1.633351445198059, -2.2458581626415253 3.266702890396118, -2.960449457168579 l2.2458581626415253, -1.2250135838985443 9.59593951702118, 1.32709801197052 l6.941743493080139, 0.0 10.820952653884888, 1.633351445198059 l8.677179217338562, 1.9396047294139862 2.7562806010246277, 0.0 l4.389632046222687, 7.758418917655945 1.4291824400424957, 3.98129403591156 l0.7145912200212479, 1.1229290813207626 0.0, -0.5104223266243935 m-21.029398441314697, -15.312669277191162 l0.5104223266243935, -4.1854628920555115 0.0, -5.30839204788208 m2.2458581626415253, 0.3062533959746361 l-5.30839204788208, 0.20416893064975739 -1.1229290813207626, -0.5104223266243935 l-0.40833786129951477, -0.6125067919492722 -0.5104223266243935, -1.2250135838985443 l0.0, -1.1229290813207626 0.6125067919492722, -0.5104223266243935 l4.695885181427002, 0.10208446532487869 1.5312670171260834, 0.3062533959746361 l1.020844653248787, 0.7145912200212479 0.0, 1.1229290813207626 l-0.8166757225990295, 1.020844653248787 m-26.746129989624023, 7.96258807182312 l-0.20416893064975739, -4.389632046222687 -0.9187601506710052, -3.98129403591156 l0.0, -3.98129403591156 1.1229290813207626, -4.900054335594177 l0.10208446532487869, -2.347942590713501 -0.3062533959746361, -1.9396047294139862 l-0.9187601506710052, -2.2458581626415253 -0.3062533959746361, -2.5521114468574524 l-0.6125067919492722, 0.0 -4.287547469139099, 3.266702890396118 l-1.633351445198059, 1.9396047294139862 " fill="none" stroke="black" stroke-width="1" /></svg>