<?xml version="1.0" encoding="utf-8" ?>
<svg baseProfile="full" height="44.30038005113602" version="1.1" width="57.36719101667404" xmlns="http://www.w3.org/2000/svg" xmlns:ev="http://www.w3.org/2001/xml-events" xmlns:xlink="http://www.w3.org/1999/xlink"><defs /><rect fill="white" height="44.30038005113602" width="57.36719101667404" x="0" y="0" /><path d="M6.53126697987318, 34.094072841107845 m-0.9187601506710052, -1.7354358732700348 l0.0, -7.247996926307678 0.40833786129951477, -2.1437737345695496 l0.7145912200212479, -1.020844653248787 1.1229290813207626, -0.6125067919492722 l3.7771251797676086, -0.6125067919492722 5.410476326942444, 0.0 l1.2250135838985443, 0.40833786129951477 1.633351445198059, 1.5312670171260834 l1.633351445198059, 3.675040602684021 0.10208446532487869, 5.30839204788208 l-0.9187601506710052, 1.633351445198059 -3.7771251797676086, 4.593800902366638 l-4.287547469139099, 0.8166757225990295 -1.2250135838985443, -0.10208446532487869 l-4.695885181427002, -2.65419602394104 -1.7354358732700348, -2.7562806010246277 m33.687872886657715, -0.5104223266243935 l0.0, -4.593800902366638 0.3062533959746361, -1.020844653248787 l2.041689306497574, -2.1437737345695496 1.4291824400424957, -0.7145912200212479 l4.4917163252830505, -0.20416893064975739 0.8166757225990295, 0.3062533959746361 l3.266702890396118, 2.1437737345695496 0.5104223266243935, 0.5104223266243935 l0.8166757225990295, 1.9396047294139862 0.0, 8.677179217338562 l-3.4708717465400696, 1.4291824400424957 -4.695885181427002, 0.3062533959746361 l-1.633351445198059, -0.7145912200212479 -1.9396047294139862, -1.633351445198059 l-0.8166757225990295, -1.2250135838985443 -1.020844653248787, -2.347942590713501 l-0.40833786129951477, -1.8375203013420105 m-16.843936443328857, -4.593800902366638 l18.57937216758728, 0.10208446532487869 m-9.59593951702118, -0.7145912200212479 l-0.10208446532487869, -5.818814635276794 -3.266702890396118, -7.860503792762756 l-1.633351445198059, -2.65419602394104 -3.4708717465400696, 1.32709801197052 l6.1250680685043335, -2.8583648800849915 m9.085517525672913, 18.375203609466553 l0.10208446532487869, -16.94602131843567 0.40833786129951477, -0.5104223266243935 l2.1437737345695496, -0.5104223266243935 2.960449457168579, 0.10208446532487869 m-2.1437737345695496, -3.98129403591156 l0.5104223266243935, 0.10208446532487869 0.8166757225990295, 1.2250135838985443 l0.6125067919492722, 2.041689306497574 1.2250135838985443, 2.2458581626415253 " fill="none" stroke="black" stroke-width="1" /></svg>