<?xml version="1.0" encoding="utf-8" ?>
<svg baseProfile="full" height="31.029399558901787" version="1.1" width="41.85035217553377" xmlns="http://www.w3.org/2000/svg" xmlns:ev="http://www.w3.org/2001/xml-events" xmlns:xlink="http://www.w3.org/1999/xlink"><defs /><rect fill="white" height="31.029399558901787" width="41.85035217553377" x="0" y="0" /><path d="M14.289685748517513, 6.633351184427738 m0.40833786129951477, 6.533405780792236 l0.40833786129951477, 1.4291824400424957 0.5104223266243935, 0.3062533959746361 l4.79796975851059, 0.9187601506710052 4.900054335594177, 1.633351445198059 l6.737574338912964, 1.633351445198059 -0.5104223266243935, -5.104222893714905 l-3.266702890396118, -0.6125067919492722 -1.8375203013420105, -1.5312670171260834 l-0.5104223266243935, -1.020844653248787 3.266702890396118, -2.1437737345695496 l1.2250135838985443, -0.40833786129951477 1.7354358732700348, 0.0 l1.9396047294139862, 1.32709801197052 0.40833786129951477, 0.8166757225990295 l0.0, 1.2250135838985443 -0.6125067919492722, 1.020844653248787 l-0.7145912200212479, 0.5104223266243935 -1.8375203013420105, 0.10208446532487869 m-15.823091268539429, 1.32709801197052 l-1.4291824400424957, 4.1854628920555115 -0.20416893064975739, 1.8375203013420105 l-4.593800902366638, -0.20416893064975739 -1.8375203013420105, 0.40833786129951477 l-1.633351445198059, 1.020844653248787 -0.8166757225990295, 1.633351445198059 l0.0, 0.6125067919492722 1.020844653248787, 0.9187601506710052 l1.5312670171260834, 0.7145912200212479 9.187601804733276, 0.0 l1.5312670171260834, -1.1229290813207626 0.10208446532487869, -1.1229290813207626 l-4.083378612995148, -2.347942590713501 m17.966865301132202, -2.2458581626415253 l-0.5104223266243935, 0.8166757225990295 -0.10208446532487869, 1.7354358732700348 l-6.839659214019775, 0.9187601506710052 -0.40833786129951477, 0.5104223266243935 l1.8375203013420105, 2.65419602394104 4.287547469139099, 0.5104223266243935 l2.2458581626415253, -0.10208446532487869 1.2250135838985443, -0.40833786129951477 l1.9396047294139862, -2.1437737345695496 0.9187601506710052, -1.9396047294139862 l-0.10208446532487869, -0.7145912200212479 -0.7145912200212479, -0.3062533959746361 l-2.347942590713501, 0.0 -2.960449457168579, 0.9187601506710052 m-16.63976788520813, -15.108500719070435 l-3.5729563236236572, -1.020844653248787 -1.8375203013420105, -0.10208446532487869 m5.104222893714905, 0.5104223266243935 l6.941743493080139, -0.6125067919492722 " fill="none" stroke="black" stroke-width="1" /></svg>