<?xml version="1.0" encoding="utf-8" ?>
<svg baseProfile="full" height="24.700162671506405" version="1.1" width="38.99198807775974" xmlns="http://www.w3.org/2000/svg" xmlns:ev="http://www.w3.org/2001/xml-events" xmlns:xlink="http://www.w3.org/1999/xlink"><defs /><rect fill="white" height="24.700162671506405" width="38.99198807775974" x="0" y="0" /><path d="M10.308392606675625, 8.572956249117851 m-4.1854628920555115, -0.10208446532487869 l-0.7145912200212479, 1.8375203013420105 0.0, 4.287547469139099 l1.4291824400424957, 3.675040602684021 0.9187601506710052, 1.2250135838985443 l0.5104223266243935, 0.20416893064975739 2.65419602394104, -0.7145912200212479 l1.32709801197052, -2.1437737345695496 0.3062533959746361, -1.2250135838985443 l-0.3062533959746361, -4.900054335594177 -1.2250135838985443, -1.7354358732700348 l-1.2250135838985443, -0.40833786129951477 m17.762696743011475, 2.4500271677970886 l-0.5104223266243935, 0.10208446532487869 -1.2250135838985443, 1.633351445198059 l-0.6125067919492722, 2.4500271677970886 0.0, 1.4291824400424957 l1.32709801197052, 2.2458581626415253 0.5104223266243935, 0.5104223266243935 l3.8792094588279724, 0.3062533959746361 1.2250135838985443, -0.3062533959746361 l1.2250135838985443, -1.020844653248787 0.6125067919492722, -1.32709801197052 l-0.10208446532487869, -1.8375203013420105 -2.960449457168579, -4.79796975851059 l-1.5312670171260834, -0.6125067919492722 -2.2458581626415253, 1.633351445198059 m-14.393908977508545, 1.1229290813207626 l4.4917163252830505, 0.0 0.40833786129951477, -1.020844653248787 l0.5104223266243935, -0.40833786129951477 -0.40833786129951477, 2.65419602394104 l-1.020844653248787, 0.7145912200212479 1.2250135838985443, -1.9396047294139862 m0.8166757225990295, 0.10208446532487869 l6.737574338912964, 0.0 m-5.818814635276794, -0.7145912200212479 l1.7354358732700348, -0.8166757225990295 4.1854628920555115, -3.7771251797676086 l3.4708717465400696, -1.9396047294139862 -0.5104223266243935, -0.40833786129951477 l-4.083378612995148, 0.3062533959746361 m-15.414754152297974, 8.575094938278198 l0.10208446532487869, -0.7145912200212479 1.1229290813207626, -1.020844653248787 l0.5104223266243935, -1.020844653248787 0.5104223266243935, -1.2250135838985443 l0.0, -1.020844653248787 -1.4291824400424957, 4.4917163252830505 l-2.65419602394104, 4.900054335594177 0.0, -0.7145912200212479 m-2.2458581626415253, -6.839659214019775 l5.512561202049255, 3.368787169456482 1.633351445198059, 1.7354358732700348 " fill="none" stroke="black" stroke-width="1" /></svg>