<?xml version="1.0" encoding="utf-8" ?>
<svg baseProfile="full" height="44.606633223593235" version="1.1" width="64.92144256830215" xmlns="http://www.w3.org/2000/svg" xmlns:ev="http://www.w3.org/2001/xml-events" xmlns:xlink="http://www.w3.org/1999/xlink"><defs /><rect fill="white" height="44.606633223593235" width="64.92144256830215" x="0" y="0" /><path d="M15.718868561089039, 19.598078317940235 m-2.65419602394104, 0.0 l-2.960449457168579, 0.7145912200212479 -2.347942590713501, 1.633351445198059 l-2.2458581626415253, 4.287547469139099 -0.5104223266243935, 2.960449457168579 l0.20416893064975739, 3.5729563236236572 2.347942590713501, 4.79796975851059 l2.4500271677970886, 1.4291824400424957 2.7562806010246277, 0.6125067919492722 l1.32709801197052, -0.10208446532487869 1.8375203013420105, -0.20416893064975739 l3.5729563236236572, -1.32709801197052 2.7562806010246277, -2.347942590713501 l1.5312670171260834, -2.5521114468574524 0.3062533959746361, -1.8375203013420105 l-0.9187601506710052, -3.7771251797676086 -2.65419602394104, -4.1854628920555115 l-2.7562806010246277, -2.347942590713501 -2.4500271677970886, -0.7145912200212479 l-2.041689306497574, 0.9187601506710052 m41.03795528411865, -2.1437737345695496 l-2.1437737345695496, -0.5104223266243935 -1.8375203013420105, 0.10208446532487869 l-2.347942590713501, 0.8166757225990295 -2.2458581626415253, 1.2250135838985443 l-2.8583648800849915, 2.8583648800849915 -2.041689306497574, 3.368787169456482 l-0.6125067919492722, 2.5521114468574524 0.10208446532487869, 2.5521114468574524 l0.20416893064975739, 1.1229290813207626 1.633351445198059, 2.65419602394104 l2.7562806010246277, 1.8375203013420105 3.8792094588279724, 0.40833786129951477 l1.9396047294139862, -0.40833786129951477 2.7562806010246277, -1.2250135838985443 l4.287547469139099, -3.368787169456482 1.9396047294139862, -3.5729563236236572 l0.20416893064975739, -1.5312670171260834 -0.9187601506710052, -2.65419602394104 l-2.5521114468574524, -2.5521114468574524 -3.8792094588279724, -2.347942590713501 l-3.1646183133125305, -1.020844653248787 -2.1437737345695496, -0.10208446532487869 m-32.36077547073364, 0.0 l0.9187601506710052, -0.7145912200212479 4.4917163252830505, -7.4521660804748535 l1.633351445198059, -0.10208446532487869 7.656334638595581, 0.8166757225990295 l6.022983193397522, 0.0 7.758418917655945, -1.4291824400424957 l0.9187601506710052, 0.7145912200212479 0.40833786129951477, 1.020844653248787 l4.389632046222687, 5.716729760169983 0.40833786129951477, 1.020844653248787 l1.1229290813207626, 1.020844653248787 m-21.743991374969482, -8.370925784111023 l0.5104223266243935, -0.10208446532487869 0.40833786129951477, -2.347942590713501 l-0.20416893064975739, -2.7562806010246277 -0.5104223266243935, -0.5104223266243935 l-2.8583648800849915, 0.10208446532487869 8.473010659217834, 0.10208446532487869 l-2.347942590713501, -0.7145912200212479 -3.8792094588279724, -0.20416893064975739 l-1.7354358732700348, 0.3062533959746361 0.5104223266243935, 0.5104223266243935 l4.900054335594177, -0.20416893064975739 " fill="none" stroke="black" stroke-width="1" /></svg>