<?xml version="1.0" encoding="utf-8" ?>
<svg baseProfile="full" height="46.954575553536415" version="1.1" width="69.71941225230694" xmlns="http://www.w3.org/2000/svg" xmlns:ev="http://www.w3.org/2001/xml-events" xmlns:xlink="http://www.w3.org/1999/xlink"><defs /><rect fill="white" height="46.954575553536415" width="69.71941225230694" x="0" y="0" /><path d="M18.373066149652004, 14.391770511865616 m15.312669277191162, 0.6125067919492722 l13.781402111053467, 0.0 6.022983193397522, -0.40833786129951477 m-3.1646183133125305, 0.6125067919492722 l0.9187601506710052, 0.5104223266243935 1.4291824400424957, 1.633351445198059 l1.633351445198059, 3.368787169456482 0.40833786129951477, 1.5312670171260834 l0.0, 3.7771251797676086 m5.512561202049255, -6.431320905685425 l-5.104222893714905, 0.5104223266243935 -1.9396047294139862, 0.6125067919492722 l-3.368787169456482, 1.8375203013420105 -1.8375203013420105, 2.4500271677970886 l-1.5312670171260834, 4.083378612995148 -0.5104223266243935, 4.287547469139099 l0.10208446532487869, 1.4291824400424957 0.6125067919492722, 1.633351445198059 l2.2458581626415253, 1.9396047294139862 2.960449457168579, 1.2250135838985443 l2.347942590713501, 0.40833786129951477 4.083378612995148, 0.0 l1.9396047294139862, -1.32709801197052 1.32709801197052, -1.4291824400424957 l0.3062533959746361, -0.8166757225990295 1.020844653248787, -0.8166757225990295 l1.1229290813207626, -2.041689306497574 0.7145912200212479, -3.7771251797676086 l0.0, -12.556389570236206 -0.8166757225990295, -2.1437737345695496 l-0.5104223266243935, 0.0 -1.32709801197052, 0.7145912200212479 l-2.8583648800849915, 2.5521114468574524 m-39.50668811798096, -3.98129403591156 l0.40833786129951477, 2.1437737345695496 0.3062533959746361, 10.106362104415894 m5.512561202049255, -5.512561202049255 l-14.598078727722168, 1.5312670171260834 -3.266702890396118, 1.5312670171260834 l-1.5312670171260834, 1.5312670171260834 -1.5312670171260834, 3.5729563236236572 l0.0, 4.083378612995148 0.8166757225990295, 4.4917163252830505 l1.2250135838985443, 2.65419602394104 1.1229290813207626, 0.7145912200212479 l3.1646183133125305, 0.7145912200212479 5.206307768821716, 0.0 l7.554250359535217, -1.4291824400424957 1.9396047294139862, -2.041689306497574 l1.7354358732700348, -2.960449457168579 0.7145912200212479, -3.7771251797676086 l0.0, -2.5521114468574524 -0.5104223266243935, -2.8583648800849915 l-1.4291824400424957, -3.1646183133125305 -2.041689306497574, -2.1437737345695496 l-0.9187601506710052, -1.7354358732700348 -0.7145912200212479, -0.6125067919492722 m30.523254871368408, -4.695885181427002 l0.0, -6.533405780792236 m-0.20416893064975739, -0.6125067919492722 l-1.32709801197052, -0.8166757225990295 -0.9187601506710052, -1.020844653248787 " fill="none" stroke="black" stroke-width="1" /></svg>