<?xml version="1.0" encoding="utf-8" ?>
<svg baseProfile="full" height="28.98771047592163" version="1.1" width="33.785680159926414" xmlns="http://www.w3.org/2000/svg" xmlns:ev="http://www.w3.org/2001/xml-events" xmlns:xlink="http://www.w3.org/1999/xlink"><defs /><rect fill="white" height="28.98771047592163" width="33.785680159926414" x="0" y="0" /><path d="M8.164617232978344, 16.739713586866856 m-1.32709801197052, -2.5521114468574524 l-0.3062533959746361, -1.32709801197052 0.0, -1.7354358732700348 l0.8166757225990295, -4.695885181427002 m-0.9187601506710052, 8.677179217338562 l0.20416893064975739, -0.9187601506710052 -1.32709801197052, -2.960449457168579 l-0.20416893064975739, -2.041689306497574 m1.32709801197052, 5.716729760169983 l0.5104223266243935, 0.5104223266243935 4.593800902366638, 1.2250135838985443 l9.902192950248718, 0.0 1.633351445198059, -0.20416893064975739 l3.0625340342521667, -1.1229290813207626 m-15.006415843963623, 1.633351445198059 l-4.083378612995148, 0.10208446532487869 -0.6125067919492722, 1.7354358732700348 l0.20416893064975739, 2.4500271677970886 0.7145912200212479, 0.9187601506710052 l2.4500271677970886, 1.32709801197052 3.5729563236236572, 0.5104223266243935 l2.041689306497574, -0.40833786129951477 1.1229290813207626, -0.8166757225990295 l0.40833786129951477, -0.8166757225990295 0.10208446532487869, -2.1437737345695496 l-0.8166757225990295, -1.32709801197052 -1.32709801197052, -0.9187601506710052 l-0.7145912200212479, -0.40833786129951477 -1.9396047294139862, -0.20416893064975739 m12.250136137008667, -0.7145912200212479 l-1.7354358732700348, 0.40833786129951477 -1.1229290813207626, 1.1229290813207626 l-0.5104223266243935, 2.2458581626415253 0.40833786129951477, 1.1229290813207626 l1.1229290813207626, 0.6125067919492722 2.2458581626415253, 0.3062533959746361 l3.5729563236236572, 0.0 0.3062533959746361, -2.7562806010246277 l-0.9187601506710052, -2.1437737345695496 -1.020844653248787, -1.020844653248787 l-3.0625340342521667, -0.3062533959746361 m-9.085517525672913, 0.10208446532487869 l0.10208446532487869, -1.5312670171260834 m-1.633351445198059, -0.8166757225990295 l4.083378612995148, 0.0 1.020844653248787, -0.40833786129951477 l0.20416893064975739, -0.6125067919492722 -0.20416893064975739, -0.6125067919492722 l-0.5104223266243935, -0.3062533959746361 -4.79796975851059, 0.3062533959746361 l0.10208446532487869, 1.7354358732700348 m-5.716729760169983, -7.247996926307678 l0.3062533959746361, -0.5104223266243935 1.633351445198059, -0.9187601506710052 m-4.083378612995148, 6.022983193397522 l-0.20416893064975739, -4.79796975851059 " fill="none" stroke="black" stroke-width="1" /></svg>