<?xml version="1.0" encoding="utf-8" ?>
<svg baseProfile="full" height="42.973282150924206" version="1.1" width="66.75896234810352" xmlns="http://www.w3.org/2000/svg" xmlns:ev="http://www.w3.org/2001/xml-events" xmlns:xlink="http://www.w3.org/1999/xlink"><defs /><rect fill="white" height="42.973282150924206" width="66.75896234810352" x="0" y="0" /><path d="M22.864780761301517, 28.9898494631052 m-0.20416893064975739, -2.041689306497574 l-0.5104223266243935, -1.020844653248787 -0.9187601506710052, -0.6125067919492722 l-3.675040602684021, -1.2250135838985443 -5.614645481109619, -0.20416893064975739 l-3.368787169456482, 1.32709801197052 -0.9187601506710052, 0.9187601506710052 l-1.9396047294139862, 2.8583648800849915 -0.7145912200212479, 2.65419602394104 l0.20416893064975739, 1.5312670171260834 1.1229290813207626, 1.2250135838985443 l3.675040602684021, 1.5312670171260834 3.7771251797676086, 1.2250135838985443 l3.5729563236236572, 0.40833786129951477 4.79796975851059, 0.0 l2.347942590713501, -1.633351445198059 0.9187601506710052, -2.65419602394104 l0.0, -1.9396047294139862 -1.9396047294139862, -4.083378612995148 l-0.6125067919492722, -0.5104223266243935 m38.89418125152588, 2.65419602394104 l0.0, -1.020844653248787 -0.7145912200212479, -1.020844653248787 l-1.9396047294139862, -0.6125067919492722 -2.7562806010246277, 0.0 l-8.26884150505066, 2.347942590713501 -1.2250135838985443, 0.6125067919492722 l-1.4291824400424957, 1.633351445198059 -0.10208446532487869, 3.5729563236236572 l0.7145912200212479, 1.4291824400424957 1.2250135838985443, 0.8166757225990295 l2.4500271677970886, 0.6125067919492722 4.900054335594177, 0.20416893064975739 l1.9396047294139862, -0.3062533959746361 1.633351445198059, -0.7145912200212479 l1.8375203013420105, -2.041689306497574 1.2250135838985443, -2.65419602394104 l0.0, -1.1229290813207626 -0.5104223266243935, -1.5312670171260834 l-1.020844653248787, -1.1229290813207626 m-6.227152347564697, 5.002138614654541 l0.0, -0.10208446532487869 m-40.119194984436035, -1.7354358732700348 l0.0, 0.0 m0.10208446532487869, 0.0 l3.0625340342521667, -8.779264092445374 3.98129403591156, -5.002138614654541 l1.8375203013420105, -4.900054335594177 m-0.8166757225990295, -0.20416893064975739 l2.1437737345695496, -0.10208446532487869 m-1.9396047294139862, 0.0 l-0.40833786129951477, -1.1229290813207626 -2.8583648800849915, -4.389632046222687 l-0.5104223266243935, -2.1437737345695496 m5.104222893714905, 7.4521660804748535 l5.30839204788208, 0.0 9.698023796081543, 0.8166757225990295 l6.329236626625061, 0.0 5.30839204788208, -0.5104223266243935 m0.0, 0.0 l1.32709801197052, 2.960449457168579 1.5312670171260834, 4.695885181427002 l0.0, 1.9396047294139862 0.40833786129951477, 1.7354358732700348 l0.20416893064975739, 7.554250359535217 " fill="none" stroke="black" stroke-width="1" /></svg>