<?xml version="1.0" encoding="utf-8" ?>
<svg baseProfile="full" height="39.70657758414745" version="1.1" width="56.34634677320719" xmlns="http://www.w3.org/2000/svg" xmlns:ev="http://www.w3.org/2001/xml-events" xmlns:xlink="http://www.w3.org/1999/xlink"><defs /><rect fill="white" height="39.70657758414745" width="56.34634677320719" x="0" y="0" /><path d="M13.67717944085598, 17.250134386122227 m-1.020844653248787, -0.3062533959746361 l-0.9187601506710052, 0.20416893064975739 -3.266702890396118, 1.32709801197052 l-1.020844653248787, 0.7145912200212479 -1.4291824400424957, 1.9396047294139862 l-1.020844653248787, 2.347942590713501 0.10208446532487869, 2.5521114468574524 l1.020844653248787, 3.5729563236236572 2.1437737345695496, 2.041689306497574 l5.002138614654541, 3.0625340342521667 1.020844653248787, 0.0 l6.6354900598526, -3.98129403591156 1.633351445198059, -1.4291824400424957 l1.020844653248787, -1.7354358732700348 0.5104223266243935, -2.2458581626415253 l-1.5312670171260834, -3.675040602684021 -2.347942590713501, -2.5521114468574524 l-5.512561202049255, -1.8375203013420105 -2.2458581626415253, 0.0 m32.66702890396118, 1.1229290813207626 l-5.002138614654541, 0.0 -1.7354358732700348, 1.7354358732700348 l-3.368787169456482, 1.9396047294139862 -1.1229290813207626, 2.2458581626415253 l-0.20416893064975739, 2.8583648800849915 0.5104223266243935, 1.8375203013420105 l1.8375203013420105, 1.32709801197052 5.104222893714905, 2.65419602394104 l3.1646183133125305, 0.3062533959746361 0.8166757225990295, -0.3062533959746361 l3.266702890396118, -2.5521114468574524 2.960449457168579, -5.002138614654541 l0.0, -1.9396047294139862 -1.2250135838985443, -1.633351445198059 l-4.900054335594177, -3.4708717465400696 -5.30839204788208, -2.65419602394104 l-1.7354358732700348, -0.40833786129951477 m-18.375203609466553, 3.8792094588279724 l5.104222893714905, -0.3062533959746361 4.4917163252830505, 0.7145912200212479 l8.881348371505737, 0.10208446532487869 m-9.59593951702118, -0.6125067919492722 l0.7145912200212479, -13.57723355293274 m-1.32709801197052, 0.40833786129951477 l-0.40833786129951477, 0.6125067919492722 2.4500271677970886, 0.20416893064975739 l2.5521114468574524, 0.0 0.0, -0.6125067919492722 l-0.6125067919492722, -0.5104223266243935 -1.5312670171260834, 0.20416893064975739 l-2.041689306497574, 1.7354358732700348 0.0, 0.5104223266243935 l0.6125067919492722, 0.40833786129951477 1.5312670171260834, 0.20416893064975739 l0.3062533959746361, -0.6125067919492722 -0.3062533959746361, -1.7354358732700348 l-1.32709801197052, -0.3062533959746361 0.20416893064975739, 0.5104223266243935 l0.3062533959746361, 0.0 m17.048105001449585, 11.637629270553589 l-1.32709801197052, -13.168895244598389 " fill="none" stroke="black" stroke-width="1" /></svg>