<?xml version="1.0" encoding="utf-8" ?>
<svg baseProfile="full" height="33.07108856737614" version="1.1" width="61.55265275388956" xmlns="http://www.w3.org/2000/svg" xmlns:ev="http://www.w3.org/2001/xml-events" xmlns:xlink="http://www.w3.org/1999/xlink"><defs /><rect fill="white" height="33.07108856737614" width="61.55265275388956" x="0" y="0" /><path d="M15.820952579379082, 28.071088567376137 m-10.20844578742981, -4.1854628920555115 l-0.6125067919492722, -2.041689306497574 0.20416893064975739, -1.7354358732700348 l2.2458581626415253, -2.4500271677970886 4.1854628920555115, -1.9396047294139862 l1.633351445198059, -0.3062533959746361 3.8792094588279724, 0.10208446532487869 l2.7562806010246277, 0.7145912200212479 1.020844653248787, 0.6125067919492722 l0.8166757225990295, 1.4291824400424957 0.0, 2.8583648800849915 l-0.7145912200212479, 2.65419602394104 -1.5312670171260834, 2.960449457168579 l-1.1229290813207626, 0.9187601506710052 -1.4291824400424957, 0.10208446532487869 l-0.9187601506710052, -0.20416893064975739 -2.1437737345695496, -1.32709801197052 m36.95457458496094, -0.10208446532487869 l-2.2458581626415253, 0.3062533959746361 -3.7771251797676086, -1.4291824400424957 l-1.32709801197052, -1.9396047294139862 -0.10208446532487869, -3.7771251797676086 l2.1437737345695496, -2.347942590713501 2.7562806010246277, -1.5312670171260834 l7.247996926307678, 0.20416893064975739 0.9187601506710052, 1.2250135838985443 l-0.10208446532487869, 2.347942590713501 -3.98129403591156, 3.8792094588279724 l-1.7354358732700348, 1.1229290813207626 -2.041689306497574, 0.8166757225990295 m0.20416893064975739, -4.4917163252830505 l0.0, -0.20416893064975739 m1.020844653248787, -5.002138614654541 l-1.5312670171260834, 3.0625340342521667 m0.40833786129951477, 0.10208446532487869 l0.0, 1.32709801197052 m0.10208446532487869, 0.5104223266243935 l-0.20416893064975739, 4.287547469139099 m0.0, -4.4917163252830505 l7.96258807182312, -1.020844653248787 m-7.554250359535217, 1.4291824400424957 l-5.716729760169983, 0.3062533959746361 m-30.421171188354492, -0.3062533959746361 l0.0, 0.0 m0.8166757225990295, 0.10208446532487869 l1.633351445198059, 0.0 m0.40833786129951477, 0.0 l7.350081205368042, -0.10208446532487869 m-9.28968608379364, 0.10208446532487869 l-6.329236626625061, 0.20416893064975739 m6.431320905685425, -5.002138614654541 l-0.5104223266243935, 3.368787169456482 m1.1229290813207626, 1.8375203013420105 l-1.2250135838985443, 4.900054335594177 m8.473010659217834, -5.104222893714905 l0.5104223266243935, -0.3062533959746361 3.98129403591156, -0.5104223266243935 l16.435598134994507, -0.10208446532487869 m-9.902192950248718, -0.20416893064975739 l-0.20416893064975739, -1.2250135838985443 0.9187601506710052, -0.7145912200212479 l1.633351445198059, 0.0 0.0, 0.7145912200212479 l-1.2250135838985443, 0.8166757225990295 -1.1229290813207626, 0.10208446532487869 m-0.3062533959746361, -0.40833786129951477 l1.2250135838985443, -2.65419602394104 0.7145912200212479, -3.0625340342521667 m-0.5104223266243935, 3.1646183133125305 l-0.20416893064975739, 7.350081205368042 m-2.4500271677970886, -5.410476326942444 l0.0, 0.5104223266243935 0.3062533959746361, -0.6125067919492722 l0.40833786129951477, -2.8583648800849915 0.3062533959746361, -6.839659214019775 m0.0, -0.6125067919492722 l-4.083378612995148, 0.7145912200212479 -1.7354358732700348, -0.9187601506710052 l-0.20416893064975739, -0.6125067919492722 0.5104223266243935, -1.2250135838985443 l0.6125067919492722, -0.6125067919492722 0.9187601506710052, -0.3062533959746361 l1.4291824400424957, 0.0 2.960449457168579, 0.7145912200212479 l0.5104223266243935, 0.40833786129951477 0.10208446532487869, 0.6125067919492722 l-0.40833786129951477, 0.5104223266243935 -1.633351445198059, 0.7145912200212479 l-1.4291824400424957, 0.0 m-7.247996926307678, 12.352219820022583 l-0.6125067919492722, -0.6125067919492722 -0.6125067919492722, -1.4291824400424957 l-0.20416893064975739, -3.7771251797676086 " fill="none" stroke="black" stroke-width="1" /></svg>