<?xml version="1.0" encoding="utf-8" ?>
<svg baseProfile="full" height="52.26296707987785" version="1.1" width="68.69856648147106" xmlns="http://www.w3.org/2000/svg" xmlns:ev="http://www.w3.org/2001/xml-events" xmlns:xlink="http://www.w3.org/1999/xlink"><defs /><rect fill="white" height="52.26296707987785" width="68.69856648147106" x="0" y="0" /><path d="M61.24853923916817, 30.82736875861883 m-0.40833786129951477, -2.8583648800849915 l-0.8166757225990295, -1.2250135838985443 -1.020844653248787, -0.40833786129951477 l-1.32709801197052, -0.40833786129951477 -3.368787169456482, 0.0 l-1.8375203013420105, 0.3062533959746361 -1.8375203013420105, 0.9187601506710052 l-3.266702890396118, 2.960449457168579 -2.5521114468574524, 4.389632046222687 l-0.5104223266243935, 2.2458581626415253 -0.10208446532487869, 3.5729563236236572 l0.9187601506710052, 1.4291824400424957 1.7354358732700348, 1.32709801197052 l2.4500271677970886, 0.7145912200212479 2.8583648800849915, 0.10208446532487869 l2.960449457168579, -0.3062533959746361 2.8583648800849915, -1.2250135838985443 l2.4500271677970886, -1.633351445198059 1.8375203013420105, -1.8375203013420105 l1.020844653248787, -1.9396047294139862 0.40833786129951477, -3.1646183133125305 l-0.5104223266243935, -1.2250135838985443 -3.1646183133125305, -3.98129403591156 l-1.2250135838985443, -2.041689306497574 m-4.695885181427002, 0.5104223266243935 l0.20416893064975739, 5.512561202049255 -1.020844653248787, 5.410476326942444 l-0.10208446532487869, 6.022983193397522 m-7.860503792762756, -9.59593951702118 l7.656334638595581, 0.0 7.247996926307678, -0.9187601506710052 l1.9396047294139862, -0.40833786129951477 0.9187601506710052, -1.1229290813207626 m-2.347942590713501, -4.900054335594177 l-9.800108671188354, 12.454304695129395 -5.920898914337158, 6.533405780792236 m4.79796975851059, -17.252274751663208 l4.4917163252830505, 5.410476326942444 2.8583648800849915, 4.083378612995148 l2.041689306497574, 3.7771251797676086 m-10.514699220657349, -13.066811561584473 l-0.6125067919492722, -0.10208446532487869 -2.7562806010246277, -2.347942590713501 l-4.287547469139099, -2.65419602394104 -1.633351445198059, 0.0 l-6.941743493080139, 1.5312670171260834 -9.800108671188354, 0.6125067919492722 l0.6125067919492722, 1.633351445198059 0.10208446532487869, 3.8792094588279724 l-0.5104223266243935, 0.0 -1.1229290813207626, 0.7145912200212479 l-3.98129403591156, 3.7771251797676086 0.20416893064975739, -0.5104223266243935 m-1.9396047294139862, 1.4291824400424957 l-0.8166757225990295, -0.8166757225990295 -3.4708717465400696, -1.32709801197052 l-3.368787169456482, -0.20416893064975739 -1.32709801197052, 0.3062533959746361 l-1.633351445198059, 1.5312670171260834 -0.40833786129951477, 1.2250135838985443 l0.0, 4.389632046222687 0.6125067919492722, 1.4291824400424957 l0.9187601506710052, 1.1229290813207626 1.2250135838985443, 1.2250135838985443 l1.633351445198059, 0.8166757225990295 3.7771251797676086, 0.6125067919492722 l1.8375203013420105, 0.0 1.4291824400424957, -0.5104223266243935 l1.7354358732700348, -1.5312670171260834 0.40833786129951477, -3.98129403591156 l-2.041689306497574, -4.695885181427002 -0.9187601506710052, -1.020844653248787 m-3.266702890396118, -0.7145912200212479 l0.40833786129951477, 2.041689306497574 0.3062533959746361, 8.779264092445374 m-7.96258807182312, -6.329236626625061 l3.4708717465400696, 1.020844653248787 3.5729563236236572, 0.40833786129951477 l1.4291824400424957, 0.0 3.266702890396118, -0.8166757225990295 m-0.10208446532487869, -4.79796975851059 l-4.900054335594177, 6.6354900598526 -2.960449457168579, 3.368787169456482 m-1.2250135838985443, -9.59593951702118 l1.32709801197052, 3.675040602684021 1.7354358732700348, 2.2458581626415253 l2.8583648800849915, 2.5521114468574524 3.266702890396118, 1.5312670171260834 l1.633351445198059, 1.2250135838985443 m23.17317247390747, -23.78567934036255 l-0.40833786129951477, -0.5104223266243935 4.083378612995148, -5.614645481109619 l0.3062533959746361, -1.020844653248787 -5.002138614654541, -4.1854628920555115 l3.1646183133125305, 3.368787169456482 3.5729563236236572, 1.9396047294139862 l1.7354358732700348, -1.5312670171260834 2.5521114468574524, -3.368787169456482 m-9.493855237960815, -1.32709801197052 l-0.20416893064975739, -0.7145912200212479 0.9187601506710052, -1.633351445198059 l2.4500271677970886, -2.041689306497574 2.5521114468574524, -1.32709801197052 " fill="none" stroke="black" stroke-width="1" /></svg>