<?xml version="1.0" encoding="utf-8" ?>
<svg baseProfile="full" height="24.904331639409065" version="1.1" width="31.846075281500816" xmlns="http://www.w3.org/2000/svg" xmlns:ev="http://www.w3.org/2001/xml-events" xmlns:xlink="http://www.w3.org/1999/xlink"><defs /><rect fill="white" height="24.904331639409065" width="31.846075281500816" x="0" y="0" /><path d="M6.8375203385949135, 14.08551748842001 m-1.32709801197052, 0.8166757225990295 l-0.5104223266243935, 1.4291824400424957 0.0, 1.633351445198059 l0.40833786129951477, 0.6125067919492722 1.1229290813207626, 0.6125067919492722 l2.1437737345695496, -0.10208446532487869 0.7145912200212479, -0.3062533959746361 l1.2250135838985443, -1.9396047294139862 -0.10208446532487869, -3.0625340342521667 l-1.633351445198059, -2.4500271677970886 -1.2250135838985443, -0.10208446532487869 l-0.6125067919492722, 1.1229290813207626 -0.10208446532487869, 1.1229290813207626 m11.229290962219238, 1.8375203013420105 l-0.7145912200212479, 1.4291824400424957 0.3062533959746361, 1.8375203013420105 l1.2250135838985443, 1.1229290813207626 1.5312670171260834, 0.20416893064975739 l3.4708717465400696, -0.10208446532487869 1.5312670171260834, -0.6125067919492722 l0.5104223266243935, -0.40833786129951477 0.8166757225990295, -1.633351445198059 l0.0, -1.1229290813207626 -0.5104223266243935, -0.7145912200212479 l-2.2458581626415253, -1.4291824400424957 -2.1437737345695496, -0.7145912200212479 l-5.614645481109619, -0.3062533959746361 -0.20416893064975739, 0.40833786129951477 m-8.064672350883484, 2.960449457168579 l0.9187601506710052, -2.5521114468574524 1.020844653248787, -1.32709801197052 l-0.6125067919492722, 0.0 m11.33137583732605, 3.1646183133125305 l-2.347942590713501, -2.4500271677970886 -0.3062533959746361, -1.2250135838985443 m5.614645481109619, 0.5104223266243935 l-15.92517614364624, 0.10208446532487869 -1.5312670171260834, 0.3062533959746361 m17.150189876556396, -0.9187601506710052 l0.0, -4.083378612995148 -1.9396047294139862, -1.020844653248787 l-1.9396047294139862, -0.5104223266243935 m2.960449457168579, 0.8166757225990295 l3.0625340342521667, -2.041689306497574 " fill="none" stroke="black" stroke-width="1" /></svg>