<?xml version="1.0" encoding="utf-8" ?>
<svg baseProfile="full" height="37.869058921933174" version="1.1" width="37.46072147041559" xmlns="http://www.w3.org/2000/svg" xmlns:ev="http://www.w3.org/2001/xml-events" xmlns:xlink="http://www.w3.org/1999/xlink"><defs /><rect fill="white" height="37.869058921933174" width="37.46072147041559" x="0" y="0" /><path d="M12.452165819704533, 23.171034939587116 m-2.1437737345695496, -0.8166757225990295 l-2.041689306497574, -0.10208446532487869 -1.9396047294139862, 1.7354358732700348 l-1.2250135838985443, 2.7562806010246277 -0.10208446532487869, 2.8583648800849915 l0.8166757225990295, 1.633351445198059 0.6125067919492722, 0.7145912200212479 l1.4291824400424957, 0.7145912200212479 2.347942590713501, 0.20416893064975739 l0.8166757225990295, -0.3062533959746361 1.32709801197052, -1.2250135838985443 l0.5104223266243935, -2.4500271677970886 0.0, -1.7354358732700348 l-1.633351445198059, -2.960449457168579 -1.8375203013420105, -0.9187601506710052 l-1.32709801197052, 0.20416893064975739 m19.906470775604248, -1.2250135838985443 l-3.4708717465400696, -1.32709801197052 -1.7354358732700348, 0.0 l-1.633351445198059, 1.32709801197052 -1.633351445198059, 3.5729563236236572 l-0.40833786129951477, 3.675040602684021 0.5104223266243935, 1.8375203013420105 l0.6125067919492722, 0.6125067919492722 1.7354358732700348, 0.40833786129951477 l1.8375203013420105, -0.3062533959746361 2.8583648800849915, -2.5521114468574524 l1.5312670171260834, -2.65419602394104 0.10208446532487869, -2.4500271677970886 l-0.9187601506710052, -1.4291824400424957 -1.633351445198059, -0.9187601506710052 l-3.8792094588279724, -0.3062533959746361 m-11.535544395446777, 0.8166757225990295 l-0.7145912200212479, -0.5104223266243935 -0.10208446532487869, -0.5104223266243935 l-0.10208446532487869, -5.512561202049255 10.718868970870972, -0.8166757225990295 l4.083378612995148, 0.10208446532487869 1.2250135838985443, 1.020844653248787 l0.10208446532487869, 5.512561202049255 m0.6125067919492722, -6.533405780792236 l5.614645481109619, -4.083378612995148 m0.40833786129951477, 0.3062533959746361 l-0.5104223266243935, -0.10208446532487869 0.0, 4.593800902366638 m0.8166757225990295, -5.206307768821716 l-0.10208446532487869, -5.818814635276794 " fill="none" stroke="black" stroke-width="1" /></svg>