<?xml version="1.0" encoding="utf-8" ?>
<svg baseProfile="full" height="32.5606656819582" version="1.1" width="42.15660687536001" xmlns="http://www.w3.org/2000/svg" xmlns:ev="http://www.w3.org/2001/xml-events" xmlns:xlink="http://www.w3.org/1999/xlink"><defs /><rect fill="white" height="32.5606656819582" width="42.15660687536001" x="0" y="0" /><path d="M11.329236663877964, 16.63762789219618 m-4.1854628920555115, 1.2250135838985443 l-1.633351445198059, 1.8375203013420105 -0.5104223266243935, 2.041689306497574 l0.7145912200212479, 1.8375203013420105 1.7354358732700348, 1.32709801197052 l2.041689306497574, 0.5104223266243935 2.347942590713501, -0.5104223266243935 l2.1437737345695496, -1.9396047294139862 0.7145912200212479, -1.4291824400424957 l0.0, -1.8375203013420105 -0.8166757225990295, -1.5312670171260834 l-1.020844653248787, -0.7145912200212479 -2.1437737345695496, -0.3062533959746361 l-1.1229290813207626, 0.40833786129951477 m23.887765407562256, 2.7562806010246277 l-2.347942590713501, 1.020844653248787 -1.7354358732700348, 1.32709801197052 l-0.7145912200212479, 1.020844653248787 -0.20416893064975739, 1.2250135838985443 l0.6125067919492722, 1.4291824400424957 1.2250135838985443, 1.020844653248787 l2.65419602394104, 0.20416893064975739 1.9396047294139862, -0.5104223266243935 l2.1437737345695496, -1.9396047294139862 0.10208446532487869, -1.8375203013420105 l-1.633351445198059, -2.2458581626415253 -2.4500271677970886, -0.6125067919492722 m-21.53982162475586, -3.8792094588279724 l2.2458581626415253, -1.4291824400424957 2.4500271677970886, -2.347942590713501 l1.2250135838985443, 0.10208446532487869 3.5729563236236572, 0.9187601506710052 l8.473010659217834, 1.2250135838985443 1.32709801197052, 0.6125067919492722 l2.2458581626415253, 2.1437737345695496 1.633351445198059, 2.65419602394104 m-18.88562560081482, -7.758418917655945 l-1.4291824400424957, -5.002138614654541 m-2.5521114468574524, -0.40833786129951477 l3.7771251797676086, -0.10208446532487869 1.020844653248787, -0.5104223266243935 l1.7354358732700348, -1.633351445198059 m5.104222893714905, 9.493855237960815 l0.40833786129951477, -3.1646183133125305 0.5104223266243935, -1.1229290813207626 m-1.8375203013420105, -1.4291824400424957 l3.8792094588279724, 1.020844653248787 -3.368787169456482, 0.0 l4.287547469139099, 0.8166757225990295 " fill="none" stroke="black" stroke-width="1" /></svg>