<?xml version="1.0" encoding="utf-8" ?>
<svg baseProfile="full" height="34.908609203994274" version="1.1" width="34.80652444064617" xmlns="http://www.w3.org/2000/svg" xmlns:ev="http://www.w3.org/2001/xml-events" xmlns:xlink="http://www.w3.org/1999/xlink"><defs /><rect fill="white" height="34.908609203994274" width="34.80652444064617" x="0" y="0" /><path d="M6.633351407945156, 29.908609203994274 m-0.40833786129951477, -0.40833786129951477 l-0.5104223266243935, -1.9396047294139862 -0.7145912200212479, -5.410476326942444 l0.3062533959746361, -1.32709801197052 1.2250135838985443, -1.633351445198059 l0.7145912200212479, -0.3062533959746361 1.8375203013420105, 0.0 l2.041689306497574, 0.5104223266243935 0.8166757225990295, 0.5104223266243935 l2.1437737345695496, 2.5521114468574524 0.8166757225990295, 2.4500271677970886 l-0.3062533959746361, 1.1229290813207626 -1.020844653248787, 0.9187601506710052 l-3.0625340342521667, 1.5312670171260834 -3.0625340342521667, 0.5104223266243935 m14.598078727722168, -1.8375203013420105 l-1.5312670171260834, -1.9396047294139862 -0.40833786129951477, -1.2250135838985443 l-0.20416893064975739, -3.5729563236236572 0.9187601506710052, -1.9396047294139862 l3.1646183133125305, -0.6125067919492722 1.9396047294139862, 0.6125067919492722 l1.9396047294139862, 1.7354358732700348 1.9396047294139862, 2.65419602394104 l0.0, 1.020844653248787 -0.9187601506710052, 1.2250135838985443 l-1.4291824400424957, 0.8166757225990295 -2.2458581626415253, 1.2250135838985443 l-2.041689306497574, 0.6125067919492722 -1.32709801197052, 0.0 l-1.8375203013420105, -0.9187601506710052 m-12.250136137008667, -9.085517525672913 l0.3062533959746361, -3.98129403591156 0.7145912200212479, -0.3062533959746361 l3.98129403591156, -0.6125067919492722 4.389632046222687, -0.3062533959746361 l3.8792094588279724, 0.6125067919492722 2.5521114468574524, 0.9187601506710052 l0.8166757225990295, -0.20416893064975739 -0.20416893064975739, 3.7771251797676086 l0.3062533959746361, 1.2250135838985443 m-15.823091268539429, -5.818814635276794 l-0.40833786129951477, 0.10208446532487869 -1.020844653248787, -2.4500271677970886 l0.0, -4.1854628920555115 -0.40833786129951477, 0.10208446532487869 l0.40833786129951477, -0.40833786129951477 0.9187601506710052, -0.20416893064975739 l2.041689306497574, 0.0 1.2250135838985443, 0.7145912200212479 l0.40833786129951477, 1.1229290813207626 -0.6125067919492722, 1.4291824400424957 l-1.32709801197052, 0.7145912200212479 -2.347942590713501, -0.10208446532487869 l-1.020844653248787, -0.5104223266243935 0.0, -1.633351445198059 l0.7145912200212479, -0.6125067919492722 1.5312670171260834, -0.6125067919492722 l0.8166757225990295, 0.0 1.020844653248787, 0.40833786129951477 l0.6125067919492722, 1.020844653248787 0.0, 0.5104223266243935 l-0.20416893064975739, 0.5104223266243935 -0.6125067919492722, 0.3062533959746361 l-1.020844653248787, 0.10208446532487869 -1.8375203013420105, -0.7145912200212479 l-0.3062533959746361, -1.7354358732700348 0.20416893064975739, -1.2250135838985443 l0.20416893064975739, -0.5104223266243935 0.8166757225990295, -0.20416893064975739 l2.1437737345695496, 1.020844653248787 0.8166757225990295, 1.5312670171260834 l-0.10208446532487869, 0.40833786129951477 -0.9187601506710052, 0.5104223266243935 l-2.041689306497574, 0.20416893064975739 -0.20416893064975739, -1.2250135838985443 l0.20416893064975739, -0.5104223266243935 0.40833786129951477, 0.0 l0.20416893064975739, 0.6125067919492722 -0.40833786129951477, 0.40833786129951477 l-0.6125067919492722, 0.20416893064975739 -0.20416893064975739, -0.5104223266243935 l0.5104223266243935, -1.020844653248787 0.40833786129951477, -0.20416893064975739 l0.8166757225990295, 0.5104223266243935 -0.3062533959746361, 0.8166757225990295 m6.329236626625061, 4.1854628920555115 l-0.9187601506710052, 2.5521114468574524 0.0, 3.266702890396118 m-7.1459126472473145, 6.1250680685043335 l1.1229290813207626, 0.0 1.32709801197052, -1.633351445198059 " fill="none" stroke="black" stroke-width="1" /></svg>