<?xml version="1.0" encoding="utf-8" ?>
<svg baseProfile="full" height="40.62533803284168" version="1.1" width="61.55265424400568" xmlns="http://www.w3.org/2000/svg" xmlns:ev="http://www.w3.org/2001/xml-events" xmlns:xlink="http://www.w3.org/1999/xlink"><defs /><rect fill="white" height="40.62533803284168" width="61.55265424400568" x="0" y="0" /><path d="M20.312669575214386, 19.904330410063267 m-1.2250135838985443, -0.6125067919492722 l-2.041689306497574, -0.3062533959746361 -5.30839204788208, -0.20416893064975739 l-3.266702890396118, 1.4291824400424957 -2.1437737345695496, 2.1437737345695496 l-1.32709801197052, 2.5521114468574524 0.0, 4.287547469139099 l1.633351445198059, 3.368787169456482 2.65419602394104, 2.2458581626415253 l1.2250135838985443, 0.5104223266243935 2.8583648800849915, 0.20416893064975739 l1.7354358732700348, -0.3062533959746361 3.1646183133125305, -1.633351445198059 l2.8583648800849915, -2.5521114468574524 2.7562806010246277, -3.98129403591156 l0.5104223266243935, -1.7354358732700348 -0.10208446532487869, -1.7354358732700348 l-0.5104223266243935, -0.6125067919492722 -2.2458581626415253, -1.5312670171260834 l-3.0625340342521667, -1.1229290813207626 m2.2458581626415253, -0.9187601506710052 l-3.0625340342521667, 3.7771251797676086 -6.431320905685425, 6.431320905685425 l-3.266702890396118, 4.1854628920555115 m0.3062533959746361, -14.700162410736084 l1.9396047294139862, 3.0625340342521667 5.002138614654541, 10.61678409576416 l0.9187601506710052, 1.32709801197052 m32.0545220375061, -12.86264181137085 l-3.98129403591156, -1.2250135838985443 -3.98129403591156, -0.10208446532487869 l-1.1229290813207626, 0.20416893064975739 -2.960449457168579, 2.1437737345695496 l-1.8375203013420105, 2.7562806010246277 -0.8166757225990295, 3.368787169456482 l0.0, 2.041689306497574 0.6125067919492722, 2.960449457168579 l1.020844653248787, 1.9396047294139862 4.1854628920555115, 0.3062533959746361 l2.8583648800849915, -0.6125067919492722 3.8792094588279724, -2.4500271677970886 l5.818814635276794, -6.431320905685425 0.7145912200212479, -1.5312670171260834 l0.0, -1.5312670171260834 -0.6125067919492722, -0.9187601506710052 l-3.368787169456482, -2.2458581626415253 -2.2458581626415253, -0.8166757225990295 m2.4500271677970886, 1.8375203013420105 l-1.8375203013420105, 2.65419602394104 -5.002138614654541, 5.002138614654541 l-6.022983193397522, 6.839659214019775 m1.32709801197052, -14.087655544281006 l5.002138614654541, 9.187601804733276 m2.65419602394104, -10.61678409576416 l0.3062533959746361, -5.614645481109619 0.8166757225990295, -3.368787169456482 l1.1229290813207626, -2.1437737345695496 9.391770362854004, -2.5521114468574524 m-9.391770362854004, 2.2458581626415253 l0.6125067919492722, -3.4708717465400696 " fill="none" stroke="black" stroke-width="1" /></svg>