<?xml version="1.0" encoding="utf-8" ?>
<svg baseProfile="full" height="57.87761311978102" version="1.1" width="74.21112719923258" xmlns="http://www.w3.org/2000/svg" xmlns:ev="http://www.w3.org/2001/xml-events" xmlns:xlink="http://www.w3.org/1999/xlink"><defs /><rect fill="white" height="57.87761311978102" width="74.21112719923258" x="0" y="0" /><path d="M60.73811672627926, 41.85249123722315 m0.0, 0.0 m-0.5104223266243935, -11.229290962219238 l-2.2458581626415253, 3.7771251797676086 -8.881348371505737, 9.59593951702118 l-1.633351445198059, 3.266702890396118 -0.5104223266243935, 2.347942590713501 l4.593800902366638, -1.5312670171260834 9.59593951702118, -1.020844653248787 l2.65419602394104, -1.5312670171260834 3.0625340342521667, -3.4708717465400696 l1.8375203013420105, -3.4708717465400696 0.5104223266243935, -4.593800902366638 l-2.347942590713501, -3.266702890396118 -0.7145912200212479, -0.6125067919492722 l-3.1646183133125305, -0.20416893064975739 -3.7771251797676086, 2.65419602394104 l-3.1646183133125305, 3.0625340342521667 -0.6125067919492722, 0.20416893064975739 m1.020844653248787, 2.1437737345695496 l-1.8375203013420105, -0.20416893064975739 -5.206307768821716, 2.7562806010246277 l-5.920898914337158, 1.2250135838985443 -1.7354358732700348, -0.20416893064975739 l-2.65419602394104, -2.65419602394104 -3.7771251797676086, -2.960449457168579 l-1.4291824400424957, -0.7145912200212479 -2.7562806010246277, -0.6125067919492722 l-4.389632046222687, 0.10208446532487869 -5.30839204788208, 2.960449457168579 l-1.9396047294139862, 0.5104223266243935 -0.5104223266243935, -0.20416893064975739 m-10.004277229309082, -10.004277229309082 l-0.9187601506710052, 1.32709801197052 -1.7354358732700348, 5.716729760169983 l-0.40833786129951477, 3.0625340342521667 0.10208446532487869, 2.8583648800849915 l3.1646183133125305, 5.716729760169983 1.32709801197052, 1.7354358732700348 l4.389632046222687, 3.4708717465400696 4.287547469139099, 1.020844653248787 l1.7354358732700348, 0.0 1.32709801197052, -0.20416893064975739 l1.2250135838985443, -0.6125067919492722 2.347942590713501, -5.104222893714905 l2.041689306497574, -7.1459126472473145 0.5104223266243935, -2.960449457168579 l0.40833786129951477, -7.247996926307678 -0.40833786129951477, -2.041689306497574 l-0.6125067919492722, -1.1229290813207626 -0.6125067919492722, -0.6125067919492722 l-1.633351445198059, -0.7145912200212479 -4.4917163252830505, -0.10208446532487869 l-2.2458581626415253, 0.40833786129951477 -2.8583648800849915, 1.2250135838985443 l-1.9396047294139862, 1.32709801197052 -3.0625340342521667, 3.368787169456482 l-5.920898914337158, 10.20844578742981 m33.687872886657715, -3.4708717465400696 l0.40833786129951477, -7.758418917655945 0.7145912200212479, -5.410476326942444 l0.8166757225990295, -2.5521114468574524 m0.0, 0.0 l0.0, 0.0 m-3.4708717465400696, -1.9396047294139862 l8.473010659217834, 0.20416893064975739 3.368787169456482, -1.4291824400424957 l0.5104223266243935, -0.6125067919492722 0.7145912200212479, -2.347942590713501 l-0.20416893064975739, -4.4917163252830505 -0.9187601506710052, -2.1437737345695496 l-1.633351445198059, -2.4500271677970886 -0.8166757225990295, -0.9187601506710052 l-2.1437737345695496, -1.2250135838985443 -4.083378612995148, 0.0 l-3.368787169456482, 1.8375203013420105 -2.960449457168579, 3.1646183133125305 l-1.9396047294139862, 2.7562806010246277 -0.7145912200212479, 2.041689306497574 l0.20416893064975739, 1.633351445198059 3.266702890396118, 4.1854628920555115 l2.7562806010246277, -0.5104223266243935 1.633351445198059, 0.6125067919492722 l1.5312670171260834, 0.0 m10.106362104415894, 15.823091268539429 l2.8583648800849915, -11.127206087112427 2.041689306497574, -4.389632046222687 l1.4291824400424957, -5.104222893714905 0.3062533959746361, -0.20416893064975739 m-2.7562806010246277, -1.32709801197052 l0.9187601506710052, 1.020844653248787 1.633351445198059, 0.7145912200212479 l5.410476326942444, 1.633351445198059 3.4708717465400696, 0.5104223266243935 l1.9396047294139862, -4.287547469139099 -3.1646183133125305, -1.020844653248787 l-2.960449457168579, 0.20416893064975739 -1.1229290813207626, 0.5104223266243935 l-1.4291824400424957, 2.4500271677970886 -0.6125067919492722, 0.5104223266243935 l-1.8375203013420105, 0.40833786129951477 -1.4291824400424957, -0.10208446532487869 " fill="none" stroke="black" stroke-width="1" /></svg>