<?xml version="1.0" encoding="utf-8" ?>
<svg baseProfile="full" height="29.29396342486143" version="1.1" width="36.133622862398624" xmlns="http://www.w3.org/2000/svg" xmlns:ev="http://www.w3.org/2001/xml-events" xmlns:xlink="http://www.w3.org/1999/xlink"><defs /><rect fill="white" height="29.29396342486143" width="36.133622862398624" x="0" y="0" /><path d="M9.389631897211075, 18.985571190714836 m-0.10208446532487869, -0.40833786129951477 m2.960449457168579, -5.410476326942444 l-4.79796975851059, 0.10208446532487869 -1.2250135838985443, 0.40833786129951477 l-1.1229290813207626, 1.1229290813207626 -0.10208446532487869, 4.593800902366638 l0.3062533959746361, 1.9396047294139862 1.32709801197052, 2.347942590713501 l2.7562806010246277, 0.20416893064975739 1.4291824400424957, -0.8166757225990295 l0.8166757225990295, -1.2250135838985443 1.2250135838985443, -4.79796975851059 l-0.10208446532487869, -2.65419602394104 -0.40833786129951477, -0.6125067919492722 l-2.1437737345695496, -1.32709801197052 m19.19187903404236, 2.2458581626415253 l-0.9187601506710052, -1.8375203013420105 -1.5312670171260834, -1.4291824400424957 l-1.32709801197052, -0.40833786129951477 -2.041689306497574, 0.0 l-1.9396047294139862, 1.020844653248787 -1.4291824400424957, 1.633351445198059 l-1.1229290813207626, 4.79796975851059 0.0, 2.8583648800849915 l0.8166757225990295, 0.9187601506710052 6.1250680685043335, 2.041689306497574 l1.8375203013420105, 0.0 2.347942590713501, -1.1229290813207626 l0.8166757225990295, -1.8375203013420105 0.10208446532487869, -6.431320905685425 l-0.3062533959746361, -0.6125067919492722 -2.2458581626415253, -1.5312670171260834 l-2.041689306497574, 0.10208446532487869 m-1.633351445198059, 5.30839204788208 l0.0, 0.0 m0.0, -0.5104223266243935 l0.20416893064975739, 0.10208446532487869 m-15.618922710418701, 0.3062533959746361 l14.189740419387817, -0.3062533959746361 m2.347942590713501, 0.0 l-3.1646183133125305, -1.4291824400424957 -2.8583648800849915, -2.1437737345695496 l-1.4291824400424957, -1.9396047294139862 -1.5312670171260834, -1.2250135838985443 l-1.7354358732700348, -2.960449457168579 m-5.716729760169983, 9.187601804733276 l2.1437737345695496, -1.633351445198059 1.5312670171260834, -2.347942590713501 l1.2250135838985443, -4.900054335594177 m9.391770362854004, 8.064672350883484 l-1.1229290813207626, -5.002138614654541 0.0, -2.65419602394104 l1.2250135838985443, -3.7771251797676086 " fill="none" stroke="black" stroke-width="1" /></svg>