<?xml version="1.0" encoding="utf-8" ?>
<svg baseProfile="full" height="36.3377920165658" version="1.1" width="61.04223143309355" xmlns="http://www.w3.org/2000/svg" xmlns:ev="http://www.w3.org/2001/xml-events" xmlns:xlink="http://www.w3.org/1999/xlink"><defs /><rect fill="white" height="36.3377920165658" width="61.04223143309355" x="0" y="0" /><path d="M5, 21.741852685809135 m0.10208446532487869, -1.633351445198059 l1.020844653248787, -1.7354358732700348 2.2458581626415253, -1.2250135838985443 l3.8792094588279724, -0.40833786129951477 1.5312670171260834, 0.3062533959746361 l2.7562806010246277, 1.32709801197052 2.2458581626415253, 1.5312670171260834 l2.8583648800849915, 2.65419602394104 1.7354358732700348, 2.8583648800849915 l0.10208446532487869, 2.2458581626415253 -0.40833786129951477, 1.32709801197052 l-2.041689306497574, 1.4291824400424957 -1.9396047294139862, 0.7145912200212479 l-4.4917163252830505, 0.20416893064975739 -2.347942590713501, -1.4291824400424957 l-4.79796975851059, -4.389632046222687 -0.6125067919492722, -1.5312670171260834 l-0.3062533959746361, -2.65419602394104 m5.716729760169983, -4.900054335594177 l1.020844653248787, -1.1229290813207626 2.960449457168579, -6.1250680685043335 l1.32709801197052, -1.8375203013420105 2.347942590713501, 1.32709801197052 l2.2458581626415253, 2.5521114468574524 0.5104223266243935, 0.20416893064975739 l0.9187601506710052, -0.3062533959746361 m-5.920898914337158, -3.8792094588279724 l-0.6125067919492722, -1.2250135838985443 0.10208446532487869, -0.5104223266243935 l2.5521114468574524, -0.5104223266243935 m-5.410476326942444, 9.902192950248718 l34.91288661956787, 0.9187601506710052 -2.7562806010246277, 0.9187601506710052 l-0.7145912200212479, 1.32709801197052 -1.4291824400424957, 6.329236626625061 l0.10208446532487869, 2.8583648800849915 0.20416893064975739, 0.7145912200212479 l1.32709801197052, 1.4291824400424957 1.2250135838985443, 0.7145912200212479 l3.368787169456482, 1.020844653248787 1.2250135838985443, -0.3062533959746361 l2.8583648800849915, -2.960449457168579 1.32709801197052, -3.1646183133125305 l0.10208446532487869, -1.4291824400424957 -0.40833786129951477, -1.9396047294139862 l-1.2250135838985443, -2.7562806010246277 -0.5104223266243935, -0.5104223266243935 l-1.4291824400424957, -0.3062533959746361 -2.7562806010246277, -1.4291824400424957 m-14.802247285842896, -2.65419602394104 l0.0, -1.4291824400424957 0.40833786129951477, -0.9187601506710052 l1.1229290813207626, -0.5104223266243935 1.633351445198059, 0.20416893064975739 l-5.104222893714905, -0.5104223266243935 6.1250680685043335, -1.1229290813207626 " fill="none" stroke="black" stroke-width="1" /></svg>