<?xml version="1.0" encoding="utf-8" ?>
<svg baseProfile="full" height="27.048105224967003" version="1.1" width="39.80866249650717" xmlns="http://www.w3.org/2000/svg" xmlns:ev="http://www.w3.org/2001/xml-events" xmlns:xlink="http://www.w3.org/1999/xlink"><defs /><rect fill="white" height="27.048105224967003" width="39.80866249650717" x="0" y="0" /><path d="M29.091932363808155, 9.59380067884922 m-4.4917163252830505, 0.0 l-7.554250359535217, -1.9396047294139862 -3.368787169456482, -0.40833786129951477 l-0.10208446532487869, 4.79796975851059 -3.675040602684021, -0.10208446532487869 l-1.633351445198059, 0.6125067919492722 -1.2250135838985443, 1.7354358732700348 l-0.40833786129951477, 2.041689306497574 0.5104223266243935, 1.4291824400424957 l2.7562806010246277, 3.0625340342521667 2.2458581626415253, 0.40833786129951477 l2.1437737345695496, -1.1229290813207626 1.5312670171260834, -1.5312670171260834 l1.1229290813207626, -2.041689306497574 -0.20416893064975739, -2.5521114468574524 l-0.9187601506710052, -1.2250135838985443 -1.4291824400424957, -0.8166757225990295 m14.495993852615356, -2.4500271677970886 l0.9187601506710052, 0.9187601506710052 1.7354358732700348, 3.7771251797676086 l1.9396047294139862, 5.30839204788208 -0.5104223266243935, -1.1229290813207626 l-1.4291824400424957, -1.32709801197052 -2.65419602394104, -0.20416893064975739 l-0.6125067919492722, 0.10208446532487869 -0.10208446532487869, 0.6125067919492722 l0.5104223266243935, 2.5521114468574524 0.9187601506710052, 1.32709801197052 l1.020844653248787, 0.5104223266243935 3.8792094588279724, 0.10208446532487869 l0.3062533959746361, -0.6125067919492722 -0.3062533959746361, -1.633351445198059 l-0.8166757225990295, -1.1229290813207626 -1.5312670171260834, -0.6125067919492722 m-2.7562806010246277, -8.983432650566101 l2.4500271677970886, -2.8583648800849915 2.7562806010246277, 2.1437737345695496 m-2.1437737345695496, -1.633351445198059 l-2.4500271677970886, -1.7354358732700348 m-16.129344701766968, 7.554250359535217 l-1.2250135838985443, 1.5312670171260834 -2.347942590713501, 5.410476326942444 m-1.1229290813207626, -5.716729760169983 l4.593800902366638, 4.900054335594177 4.083378612995148, 3.266702890396118 m-8.064672350883484, -9.59593951702118 l0.6125067919492722, 0.20416893064975739 0.7145912200212479, 1.2250135838985443 l2.2458581626415253, 5.614645481109619 m1.020844653248787, -3.7771251797676086 l-2.5521114468574524, 0.3062533959746361 -6.839659214019775, 1.9396047294139862 " fill="none" stroke="black" stroke-width="1" /></svg>