<?xml version="1.0" encoding="utf-8" ?>
<svg baseProfile="full" height="30.51897741854191" version="1.1" width="39.706579223275185" xmlns="http://www.w3.org/2000/svg" xmlns:ev="http://www.w3.org/2001/xml-events" xmlns:xlink="http://www.w3.org/1999/xlink"><defs /><rect fill="white" height="30.51897741854191" width="39.706579223275185" x="0" y="0" /><path d="M5.918760187923908, 16.943882554769516 m-0.8166757225990295, 1.7354358732700348 l-0.10208446532487869, 2.4500271677970886 1.2250135838985443, 2.347942590713501 l1.2250135838985443, 1.1229290813207626 2.2458581626415253, 0.9187601506710052 l2.65419602394104, 0.0 1.2250135838985443, -0.6125067919492722 l1.4291824400424957, -1.32709801197052 0.9187601506710052, -1.8375203013420105 l0.3062533959746361, -1.633351445198059 0.0, -3.5729563236236572 l-0.10208446532487869, -0.5104223266243935 -1.020844653248787, -0.6125067919492722 l-4.695885181427002, 0.3062533959746361 -3.4708717465400696, 1.32709801197052 l-1.32709801197052, 1.1229290813207626 m2.960449457168579, -6.533405780792236 l2.041689306497574, 0.9187601506710052 6.1250680685043335, 0.7145912200212479 l9.28968608379364, 2.960449457168579 3.0625340342521667, 0.6125067919492722 m5.30839204788208, 0.3062533959746361 l-3.266702890396118, -1.4291824400424957 -2.5521114468574524, 0.0 l-1.7354358732700348, 0.40833786129951477 -2.960449457168579, 1.2250135838985443 l-1.32709801197052, 1.020844653248787 -0.40833786129951477, 1.2250135838985443 l0.0, 1.633351445198059 0.3062533959746361, 0.6125067919492722 l2.7562806010246277, 2.7562806010246277 1.9396047294139862, 0.9187601506710052 l1.8375203013420105, 0.0 3.675040602684021, -2.041689306497574 l1.2250135838985443, -0.9187601506710052 0.7145912200212479, -1.2250135838985443 l0.10208446532487869, -3.0625340342521667 -0.9187601506710052, -2.347942590713501 l-1.32709801197052, -1.4291824400424957 m-8.575094938278198, 1.020844653248787 l0.5104223266243935, -1.8375203013420105 0.0, -3.4708717465400696 m1.8375203013420105, 0.3062533959746361 l-5.206307768821716, -1.020844653248787 m-10.718868970870972, 5.104222893714905 l0.3062533959746361, -4.79796975851059 -0.7145912200212479, -4.79796975851059 " fill="none" stroke="black" stroke-width="1" /></svg>