<?xml version="1.0" encoding="utf-8" ?>
<svg baseProfile="full" height="47.362913489341736" version="1.1" width="61.34848412126303" xmlns="http://www.w3.org/2000/svg" xmlns:ev="http://www.w3.org/2001/xml-events" xmlns:xlink="http://www.w3.org/1999/xlink"><defs /><rect fill="white" height="47.362913489341736" width="61.34848412126303" x="0" y="0" /><path d="M17.556388042867184, 5 m-1.8375203013420105, 6.839659214019775 l0.10208446532487869, 1.1229290813207626 0.9187601506710052, 0.6125067919492722 l1.32709801197052, -0.20416893064975739 3.368787169456482, -1.4291824400424957 l6.1250680685043335, -3.7771251797676086 m-11.637629270553589, 6.227152347564697 l-1.2250135838985443, 1.7354358732700348 -2.347942590713501, 5.104222893714905 l-1.1229290813207626, 3.368787169456482 9.698023796081543, -0.3062533959746361 l7.247996926307678, 0.0 16.63976788520813, 0.9187601506710052 l-2.5521114468574524, 1.32709801197052 -1.2250135838985443, 1.4291824400424957 l-1.8375203013420105, 3.266702890396118 -0.5104223266243935, 2.1437737345695496 l0.10208446532487869, 2.7562806010246277 1.020844653248787, 2.7562806010246277 l1.633351445198059, 2.041689306497574 2.2458581626415253, 1.2250135838985443 l2.960449457168579, 0.0 1.9396047294139862, -0.9187601506710052 l2.041689306497574, -1.5312670171260834 3.368787169456482, -3.8792094588279724 l2.041689306497574, -4.1854628920555115 0.3062533959746361, -2.347942590713501 l-0.3062533959746361, -1.2250135838985443 -0.6125067919492722, -1.020844653248787 l-1.5312670171260834, -1.020844653248787 -2.347942590713501, -0.40833786129951477 l-3.8792094588279724, 1.2250135838985443 -2.7562806010246277, 2.041689306497574 l-1.4291824400424957, 1.8375203013420105 -1.2250135838985443, 3.1646183133125305 l-0.3062533959746361, 2.5521114468574524 0.20416893064975739, 1.2250135838985443 l1.1229290813207626, 1.020844653248787 1.5312670171260834, 0.0 l0.8166757225990295, -0.40833786129951477 2.347942590713501, -2.4500271677970886 l1.1229290813207626, -2.65419602394104 0.20416893064975739, -1.633351445198059 l-0.7145912200212479, -0.10208446532487869 -1.4291824400424957, 1.2250135838985443 m-33.78995656967163, -7.554250359535217 l-1.2250135838985443, 0.0 -2.2458581626415253, 1.020844653248787 l-1.9396047294139862, 2.041689306497574 -1.32709801197052, 1.9396047294139862 l-1.5312670171260834, 4.287547469139099 -0.10208446532487869, 2.1437737345695496 l0.3062533959746361, 1.9396047294139862 1.633351445198059, 2.347942590713501 l1.4291824400424957, 1.1229290813207626 1.8375203013420105, 0.40833786129951477 l2.041689306497574, -0.20416893064975739 1.7354358732700348, -0.8166757225990295 l1.8375203013420105, -1.32709801197052 1.4291824400424957, -1.8375203013420105 l0.8166757225990295, -2.347942590713501 0.20416893064975739, -2.2458581626415253 l-0.40833786129951477, -2.041689306497574 -0.8166757225990295, -1.4291824400424957 l-1.2250135838985443, -1.020844653248787 -1.4291824400424957, -0.40833786129951477 l-0.8166757225990295, 0.0 -1.9396047294139862, 0.8166757225990295 l-0.9187601506710052, 0.9187601506710052 -1.5312670171260834, 2.2458581626415253 l-0.6125067919492722, 2.347942590713501 0.0, 1.9396047294139862 l1.1229290813207626, 0.7145912200212479 1.4291824400424957, -0.6125067919492722 l1.5312670171260834, -2.041689306497574 1.020844653248787, -2.7562806010246277 l0.0, -1.020844653248787 -0.8166757225990295, -0.40833786129951477 l-0.9187601506710052, 0.7145912200212479 -0.5104223266243935, 0.9187601506710052 l0.0, 0.40833786129951477 0.5104223266243935, 0.3062533959746361 m15.618922710418701, -8.370925784111023 l1.32709801197052, -1.4291824400424957 4.389632046222687, -2.5521114468574524 l-0.7145912200212479, -0.9187601506710052 -1.5312670171260834, -1.020844653248787 l-3.675040602684021, -1.1229290813207626 0.0, 0.40833786129951477 l1.020844653248787, 0.7145912200212479 2.1437737345695496, 1.1229290813207626 l3.675040602684021, 0.10208446532487869 2.2458581626415253, -0.6125067919492722 l0.0, -1.020844653248787 -1.020844653248787, -0.9187601506710052 l-2.65419602394104, -0.8166757225990295 -3.98129403591156, -0.10208446532487869 l-1.633351445198059, 0.20416893064975739 1.5312670171260834, 1.1229290813207626 l1.8375203013420105, 0.6125067919492722 " fill="none" stroke="black" stroke-width="1" /></svg>