<?xml version="1.0" encoding="utf-8" ?>
<svg baseProfile="full" height="33.377341255545616" version="1.1" width="31.335653215646744" xmlns="http://www.w3.org/2000/svg" xmlns:ev="http://www.w3.org/2001/xml-events" xmlns:xlink="http://www.w3.org/1999/xlink"><defs /><rect fill="white" height="33.377341255545616" width="31.335653215646744" x="0" y="0" /><path d="M7.245858199894428, 17.964725717902184 m-1.32709801197052, 0.6125067919492722 l-0.8166757225990295, 2.1437737345695496 -0.10208446532487869, 3.266702890396118 l1.020844653248787, 2.4500271677970886 1.32709801197052, 0.8166757225990295 l1.5312670171260834, 0.20416893064975739 1.633351445198059, -0.40833786129951477 l2.1437737345695496, -1.4291824400424957 0.7145912200212479, -0.9187601506710052 l0.3062533959746361, -2.2458581626415253 -2.041689306497574, -2.960449457168579 l-2.4500271677970886, -1.5312670171260834 -0.9187601506710052, 0.0 l-1.9396047294139862, 1.020844653248787 m12.760558128356934, -0.5104223266243935 l-0.7145912200212479, 0.5104223266243935 -1.020844653248787, 1.5312670171260834 l-0.9187601506710052, 2.4500271677970886 -0.20416893064975739, 1.633351445198059 l0.20416893064975739, 1.9396047294139862 0.9187601506710052, 0.8166757225990295 l1.4291824400424957, 0.6125067919492722 3.0625340342521667, 0.40833786129951477 l2.65419602394104, -0.9187601506710052 1.32709801197052, -2.1437737345695496 l0.40833786129951477, -1.5312670171260834 0.10208446532487869, -2.7562806010246277 l-1.7354358732700348, -2.041689306497574 -2.347942590713501, -1.1229290813207626 l-1.2250135838985443, -0.20416893064975739 -3.7771251797676086, 0.3062533959746361 m-12.045966386795044, 1.4291824400424957 l4.593800902366638, 4.593800902366638 1.32709801197052, 0.8166757225990295 l1.1229290813207626, 0.20416893064975739 m-1.5312670171260834, -5.206307768821716 l-2.8583648800849915, 6.329236626625061 0.5104223266243935, -4.4917163252830505 m0.7145912200212479, -2.960449457168579 l-0.3062533959746361, 0.6125067919492722 0.0, 3.0625340342521667 l1.020844653248787, 4.695885181427002 m-3.266702890396118, -3.98129403591156 l3.5729563236236572, 0.20416893064975739 1.2250135838985443, -0.10208446532487869 l1.020844653248787, -0.5104223266243935 m4.79796975851059, -4.1854628920555115 l-0.40833786129951477, 1.1229290813207626 0.8166757225990295, 1.020844653248787 l2.347942590713501, 1.633351445198059 4.695885181427002, 4.1854628920555115 l0.5104223266243935, 0.10208446532487869 -0.3062533959746361, -1.020844653248787 m-1.2250135838985443, -7.043827772140503 l-4.4917163252830505, 8.473010659217834 -0.20416893064975739, 1.020844653248787 l0.40833786129951477, -1.8375203013420105 m1.2250135838985443, -6.737574338912964 l-0.20416893064975739, 1.8375203013420105 1.1229290813207626, 5.002138614654541 l0.20416893064975739, 0.5104223266243935 0.0, -0.8166757225990295 l-0.40833786129951477, -0.8166757225990295 m-10.9230375289917, -1.9396047294139862 l-0.7145912200212479, -0.6125067919492722 15.92517614364624, 0.10208446532487869 l-0.8166757225990295, -0.6125067919492722 m-15.51683783531189, -3.1646183133125305 l12.250136137008667, -0.9187601506710052 0.20416893064975739, -0.6125067919492722 l0.3062533959746361, -5.614645481109619 -0.7145912200212479, -0.10208446532487869 l-5.410476326942444, 3.4708717465400696 -6.533405780792236, 4.900054335594177 l-0.5104223266243935, -0.10208446532487869 -0.9187601506710052, -1.4291824400424957 l-0.5104223266243935, -5.410476326942444 1.2250135838985443, -3.8792094588279724 l2.041689306497574, -2.4500271677970886 3.1646183133125305, -1.7354358732700348 m-5.818814635276794, 10.106362104415894 l-0.5104223266243935, 0.20416893064975739 -0.10208446532487869, -0.5104223266243935 l1.5312670171260834, -2.65419602394104 1.1229290813207626, -1.1229290813207626 l4.4917163252830505, -2.5521114468574524 1.32709801197052, -0.40833786129951477 " fill="none" stroke="black" stroke-width="1" /></svg>