<?xml version="1.0" encoding="utf-8" ?>
<svg baseProfile="full" height="32.458582520484924" version="1.1" width="35.72528474032879" xmlns="http://www.w3.org/2000/svg" xmlns:ev="http://www.w3.org/2001/xml-events" xmlns:xlink="http://www.w3.org/1999/xlink"><defs /><rect fill="white" height="32.458582520484924" width="35.72528474032879" x="0" y="0" /><path d="M11.329236701130867, 18.78140315413475 m-5.30839204788208, 0.6125067919492722 l-0.40833786129951477, 0.6125067919492722 -0.6125067919492722, 2.041689306497574 l0.0, 2.347942590713501 1.633351445198059, 2.1437737345695496 l3.1646183133125305, 0.9187601506710052 3.1646183133125305, 0.0 l1.9396047294139862, -0.3062533959746361 1.633351445198059, -0.7145912200212479 l0.8166757225990295, -1.2250135838985443 0.5104223266243935, -2.65419602394104 l-0.8166757225990295, -1.7354358732700348 -1.8375203013420105, -1.2250135838985443 l-5.30839204788208, -1.4291824400424957 m-1.2250135838985443, 1.1229290813207626 l2.7562806010246277, 2.8583648800849915 2.347942590713501, 1.32709801197052 l0.6125067919492722, 0.9187601506710052 m-0.6125067919492722, -5.410476326942444 l-1.633351445198059, 2.5521114468574524 -0.6125067919492722, 1.8375203013420105 l-1.7354358732700348, 2.5521114468574524 m1.7354358732700348, -8.779264092445374 l0.0, -3.0625340342521667 1.4291824400424957, -1.8375203013420105 l1.32709801197052, -0.8166757225990295 2.041689306497574, -0.5104223266243935 l3.5729563236236572, 0.5104223266243935 2.960449457168579, 0.0 l2.1437737345695496, -0.5104223266243935 2.1437737345695496, 0.20416893064975739 l-1.2250135838985443, 8.983432650566101 m0.5104223266243935, -1.1229290813207626 l-2.041689306497574, 1.633351445198059 -0.6125067919492722, 0.9187601506710052 l-0.40833786129951477, 2.65419602394104 1.1229290813207626, 0.6125067919492722 l2.960449457168579, 0.6125067919492722 2.65419602394104, -1.5312670171260834 l0.40833786129951477, -0.5104223266243935 0.20416893064975739, -1.633351445198059 l-0.6125067919492722, -1.9396047294139862 -1.8375203013420105, -0.9187601506710052 l-1.9396047294139862, -0.10208446532487869 m-1.020844653248787, 1.32709801197052 l4.593800902366638, 3.0625340342521667 m-1.5312670171260834, -4.1854628920555115 l-3.98129403591156, 8.473010659217834 m-0.10208446532487869, -16.33351445198059 l0.0, -3.5729563236236572 0.40833786129951477, -1.4291824400424957 l1.2250135838985443, -1.1229290813207626 3.4708717465400696, 0.0 " fill="none" stroke="black" stroke-width="1" /></svg>