<?xml version="1.0" encoding="utf-8" ?>
<svg baseProfile="full" height="32.15232860296965" version="1.1" width="53.07964347302914" xmlns="http://www.w3.org/2000/svg" xmlns:ev="http://www.w3.org/2001/xml-events" xmlns:xlink="http://www.w3.org/1999/xlink"><defs /><rect fill="white" height="32.15232860296965" width="53.07964347302914" x="0" y="0" /><path d="M25.212724842131138, 17.8626424446702 m-3.0625340342521667, -1.1229290813207626 l-1.5312670171260834, 0.0 -2.5521114468574524, 0.7145912200212479 m-5.818814635276794, 8.26884150505066 l1.32709801197052, 0.8166757225990295 2.7562806010246277, 0.6125067919492722 l3.1646183133125305, -0.10208446532487869 3.7771251797676086, -1.1229290813207626 l2.7562806010246277, -1.633351445198059 1.1229290813207626, -1.1229290813207626 l0.9187601506710052, -1.633351445198059 -0.20416893064975739, -2.1437737345695496 l-1.4291824400424957, -1.1229290813207626 -2.347942590713501, -0.6125067919492722 l-2.7562806010246277, 0.3062533959746361 m-8.166757225990295, 8.677179217338562 l-1.020844653248787, 0.0 -0.3062533959746361, -0.5104223266243935 l2.1437737345695496, -4.695885181427002 2.7562806010246277, -3.5729563236236572 l2.1437737345695496, -1.8375203013420105 1.1229290813207626, -0.5104223266243935 m21.335651874542236, 1.5312670171260834 l-2.8583648800849915, 1.9396047294139862 -1.633351445198059, 1.7354358732700348 l-1.1229290813207626, 2.1437737345695496 0.10208446532487869, 2.4500271677970886 l1.020844653248787, 1.020844653248787 1.2250135838985443, 0.3062533959746361 l2.347942590713501, -0.10208446532487869 3.4708717465400696, -1.1229290813207626 l2.2458581626415253, -1.32709801197052 1.2250135838985443, -1.2250135838985443 l0.6125067919492722, -1.020844653248787 0.10208446532487869, -1.5312670171260834 l-1.020844653248787, -1.633351445198059 -1.8375203013420105, -1.020844653248787 l-3.7771251797676086, -0.40833786129951477 m-13.57723355293274, 1.4291824400424957 l1.633351445198059, 0.3062533959746361 8.26884150505066, -0.40833786129951477 m-15.92517614364624, -1.8375203013420105 l-2.2458581626415253, -3.368787169456482 -4.389632046222687, -3.98129403591156 l-3.368787169456482, -3.8792094588279724 m-6.839659214019775, 3.4708717465400696 l2.1437737345695496, -1.2250135838985443 6.839659214019775, -2.7562806010246277 m17.762696743011475, 13.57723355293274 l0.7145912200212479, -3.5729563236236572 0.3062533959746361, -4.695885181427002 m-3.98129403591156, 0.7145912200212479 l7.656334638595581, -0.3062533959746361 1.020844653248787, -0.5104223266243935 l0.20416893064975739, -0.5104223266243935 -0.40833786129951477, -0.5104223266243935 l-1.2250135838985443, -0.5104223266243935 -3.266702890396118, 0.0 l-2.041689306497574, 0.9187601506710052 -1.4291824400424957, 1.1229290813207626 l-0.5104223266243935, 0.9187601506710052 " fill="none" stroke="black" stroke-width="1" /></svg>