<?xml version="1.0" encoding="utf-8" ?>
<svg baseProfile="full" height="31.13148458302021" version="1.1" width="42.258690893650055" xmlns="http://www.w3.org/2000/svg" xmlns:ev="http://www.w3.org/2001/xml-events" xmlns:xlink="http://www.w3.org/1999/xlink"><defs /><rect fill="white" height="31.13148458302021" width="42.258690893650055" x="0" y="0" /><path d="M13.779263757169247, 17.250136099755764 m-2.4500271677970886, -1.32709801197052 l-3.1646183133125305, -0.9187601506710052 -1.9396047294139862, 0.3062533959746361 l-0.9187601506710052, 0.9187601506710052 -0.3062533959746361, 3.1646183133125305 l0.3062533959746361, 1.2250135838985443 1.2250135838985443, 2.1437737345695496 l1.5312670171260834, 1.5312670171260834 2.7562806010246277, 0.20416893064975739 l0.9187601506710052, -0.10208446532487869 2.1437737345695496, -1.020844653248787 l2.8583648800849915, -2.2458581626415253 2.041689306497574, -2.347942590713501 l0.20416893064975739, -0.6125067919492722 0.0, -0.5104223266243935 l-1.5312670171260834, -0.8166757225990295 -4.287547469139099, 0.0 l-1.32709801197052, 0.5104223266243935 m21.437737941741943, -0.10208446532487869 l-1.1229290813207626, 0.10208446532487869 -0.6125067919492722, 0.5104223266243935 l-1.1229290813207626, 1.9396047294139862 -1.020844653248787, 2.960449457168579 l-0.10208446532487869, 2.7562806010246277 1.32709801197052, 0.6125067919492722 l2.347942590713501, 0.0 2.5521114468574524, -1.020844653248787 l1.7354358732700348, -2.041689306497574 0.0, -0.9187601506710052 l-1.020844653248787, -2.5521114468574524 -1.1229290813207626, -1.1229290813207626 l-2.1437737345695496, -0.5104223266243935 m-18.068950176239014, -1.633351445198059 l1.1229290813207626, -1.9396047294139862 2.347942590713501, -2.7562806010246277 l1.633351445198059, -3.0625340342521667 0.5104223266243935, -1.7354358732700348 l6.431320905685425, 3.98129403591156 3.4708717465400696, 2.65419602394104 l3.368787169456482, 3.98129403591156 -0.3062533959746361, 0.40833786129951477 m-7.247996926307678, -4.900054335594177 l-2.960449457168579, -3.98129403591156 m-3.0625340342521667, -2.8583648800849915 l10.61678409576416, 0.5104223266243935 2.65419602394104, 0.6125067919492722 l0.8166757225990295, 1.7354358732700348 0.8166757225990295, 4.1854628920555115 l0.20416893064975739, 5.410476326942444 m-15.108500719070435, -12.760558128356934 l-1.020844653248787, -0.8166757225990295 " fill="none" stroke="black" stroke-width="1" /></svg>