<?xml version="1.0" encoding="utf-8" ?>
<svg baseProfile="full" height="32.86691974848509" version="1.1" width="43.892040736973286" xmlns="http://www.w3.org/2000/svg" xmlns:ev="http://www.w3.org/2001/xml-events" xmlns:xlink="http://www.w3.org/1999/xlink"><defs /><rect fill="white" height="32.86691974848509" width="43.892040736973286" x="0" y="0" /><path d="M12.554250210523605, 16.229290887713432 m-1.020844653248787, -0.40833786129951477 l-1.9396047294139862, 0.0 -0.9187601506710052, 0.5104223266243935 l-2.65419602394104, 2.4500271677970886 -1.020844653248787, 2.041689306497574 l0.0, 1.4291824400424957 2.2458581626415253, 2.7562806010246277 l1.9396047294139862, 1.4291824400424957 2.2458581626415253, 0.6125067919492722 l3.8792094588279724, 0.0 2.1437737345695496, -0.8166757225990295 l1.5312670171260834, -1.5312670171260834 0.7145912200212479, -2.1437737345695496 l0.0, -2.4500271677970886 -1.4291824400424957, -1.8375203013420105 l-1.9396047294139862, -1.2250135838985443 -3.1646183133125305, -0.7145912200212479 m21.335651874542236, 1.4291824400424957 l-3.0625340342521667, -0.20416893064975739 -2.347942590713501, 0.7145912200212479 l-1.7354358732700348, 1.5312670171260834 -0.6125067919492722, 1.4291824400424957 l0.0, 1.1229290813207626 0.40833786129951477, 1.020844653248787 l1.633351445198059, 2.4500271677970886 1.633351445198059, 1.633351445198059 l1.1229290813207626, 0.40833786129951477 1.32709801197052, 0.0 l1.1229290813207626, -0.10208446532487869 1.020844653248787, -0.5104223266243935 l3.1646183133125305, -2.960449457168579 0.5104223266243935, -1.020844653248787 l0.20416893064975739, -2.2458581626415253 -0.10208446532487869, -1.1229290813207626 l-1.2250135838985443, -1.9396047294139862 -1.32709801197052, -1.020844653248787 l-1.633351445198059, -0.3062533959746361 m-6.6354900598526, 1.7354358732700348 l-4.083378612995148, -4.900054335594177 -1.2250135838985443, -3.368787169456482 l-0.5104223266243935, -0.3062533959746361 -6.022983193397522, 6.533405780792236 m6.737574338912964, -7.1459126472473145 l0.9187601506710052, 0.10208446532487869 -1.633351445198059, -0.40833786129951477 l-2.7562806010246277, -0.10208446532487869 -0.5104223266243935, 0.3062533959746361 l0.7145912200212479, 0.6125067919492722 5.002138614654541, -0.10208446532487869 l0.40833786129951477, -0.5104223266243935 -0.8166757225990295, -0.40833786129951477 l-3.1646183133125305, -0.20416893064975739 -3.1646183133125305, 0.9187601506710052 l5.920898914337158, 0.0 -1.9396047294139862, -0.7145912200212479 m3.7771251797676086, 4.4917163252830505 l2.041689306497574, -3.1646183133125305 3.1646183133125305, -3.1646183133125305 l1.32709801197052, -1.8375203013420105 0.5104223266243935, 0.10208446532487869 " fill="none" stroke="black" stroke-width="1" /></svg>