<?xml version="1.0" encoding="utf-8" ?>
<svg baseProfile="full" height="36.541960164904594" version="1.1" width="72.57777556777" xmlns="http://www.w3.org/2000/svg" xmlns:ev="http://www.w3.org/2001/xml-events" xmlns:xlink="http://www.w3.org/1999/xlink"><defs /><rect fill="white" height="36.541960164904594" width="72.57777556777" x="0" y="0" /><path d="M7.756280191242695, 20.006415620446205 m2.65419602394104, -1.020844653248787 l3.8792094588279724, -0.20416893064975739 3.266702890396118, 2.2458581626415253 l1.633351445198059, 1.5312670171260834 1.2250135838985443, 2.4500271677970886 l-0.10208446532487869, 3.5729563236236572 -0.9187601506710052, 1.7354358732700348 l-2.1437737345695496, 1.020844653248787 -5.104222893714905, 0.20416893064975739 l-2.1437737345695496, -1.4291824400424957 -3.675040602684021, -4.593800902366638 l-1.32709801197052, -2.347942590713501 0.3062533959746361, -1.633351445198059 l1.2250135838985443, -1.2250135838985443 3.266702890396118, -1.633351445198059 m10.20844578742981, 4.79796975851059 l1.9396047294139862, -1.8375203013420105 2.960449457168579, -1.4291824400424957 l13.066811561584473, -3.98129403591156 4.389632046222687, -0.9187601506710052 m-22.458581924438477, 11.433459520339966 l12.86264181137085, -3.266702890396118 5.30839204788208, -2.2458581626415253 m-0.6125067919492722, -4.1854628920555115 l0.3062533959746361, 5.512561202049255 m-0.10208446532487869, -2.4500271677970886 l4.900054335594177, 1.9396047294139862 3.266702890396118, 0.7145912200212479 l8.677179217338562, 3.0625340342521667 m-14.189740419387817, -10.310530662536621 l2.2458581626415253, -0.40833786129951477 13.98557186126709, 0.20416893064975739 m1.4291824400424957, -2.1437737345695496 l-1.1229290813207626, 0.3062533959746361 -1.2250135838985443, 1.2250135838985443 l-1.020844653248787, 2.5521114468574524 -0.10208446532487869, 5.512561202049255 l0.3062533959746361, 2.041689306497574 0.9187601506710052, 3.368787169456482 l0.8166757225990295, 1.020844653248787 0.5104223266243935, 0.0 l1.020844653248787, -0.40833786129951477 4.389632046222687, -3.5729563236236572 l1.8375203013420105, -2.2458581626415253 2.8583648800849915, -4.695885181427002 l0.40833786129951477, -3.368787169456482 -0.20416893064975739, -0.7145912200212479 l-0.6125067919492722, -0.40833786129951477 -6.737574338912964, -1.5312670171260834 l-2.8583648800849915, -0.10208446532487869 -1.633351445198059, 1.32709801197052 m-18.681457042694092, 2.2458581626415253 l-0.9187601506710052, -6.022983193397522 m-0.40833786129951477, -0.10208446532487869 l1.1229290813207626, -0.10208446532487869 1.9396047294139862, -0.9187601506710052 l0.40833786129951477, -0.5104223266243935 0.10208446532487869, -1.1229290813207626 l-0.40833786129951477, -1.020844653248787 -1.1229290813207626, -0.6125067919492722 l-2.347942590713501, -0.3062533959746361 -1.5312670171260834, 1.633351445198059 l-0.6125067919492722, 1.020844653248787 -0.10208446532487869, 1.020844653248787 l3.4708717465400696, 0.40833786129951477 m17.150189876556396, 5.716729760169983 " fill="none" stroke="black" stroke-width="1" /></svg>