<?xml version="1.0" encoding="utf-8" ?>
<svg baseProfile="full" height="52.262966856360435" version="1.1" width="72.88403045386076" xmlns="http://www.w3.org/2000/svg" xmlns:ev="http://www.w3.org/2001/xml-events" xmlns:xlink="http://www.w3.org/1999/xlink"><defs /><rect fill="white" height="52.262966856360435" width="72.88403045386076" x="0" y="0" /><path d="M17.454303614795208, 26.233567632734776 m-0.6125067919492722, 0.10208446532487869 l-6.022983193397522, 6.329236626625061 -1.1229290813207626, 2.5521114468574524 l-0.5104223266243935, 3.5729563236236572 0.6125067919492722, 2.5521114468574524 l2.347942590713501, 4.287547469139099 3.266702890396118, 1.633351445198059 l4.083378612995148, -3.675040602684021 1.5312670171260834, -2.65419602394104 l1.020844653248787, -4.900054335594177 -0.20416893064975739, -2.5521114468574524 l-1.4291824400424957, -1.9396047294139862 -2.8583648800849915, -1.633351445198059 l-4.593800902366638, -1.9396047294139862 m29.808664321899414, -3.5729563236236572 l-0.5104223266243935, 0.5104223266243935 -0.6125067919492722, 2.041689306497574 l-1.1229290813207626, 7.656334638595581 -0.10208446532487869, 4.287547469139099 l0.8166757225990295, 1.7354358732700348 4.083378612995148, 3.0625340342521667 l1.1229290813207626, 0.5104223266243935 7.758418917655945, 0.6125067919492722 l4.4917163252830505, -1.4291824400424957 1.32709801197052, -1.020844653248787 l0.6125067919492722, -2.2458581626415253 0.0, -2.041689306497574 l-3.266702890396118, -7.350081205368042 -4.4917163252830505, -5.104222893714905 l-5.818814635276794, -3.4708717465400696 -0.8166757225990295, -0.40833786129951477 l-0.6125067919492722, 0.10208446532487869 -1.633351445198059, 2.041689306497574 m-38.996264934539795, -0.7145912200212479 l2.960449457168579, -1.4291824400424957 3.0625340342521667, -0.6125067919492722 l6.737574338912964, -0.5104223266243935 6.1250680685043335, -2.347942590713501 l21.131484508514404, -0.20416893064975739 5.512561202049255, -0.7145912200212479 l3.368787169456482, 0.0 0.5104223266243935, -0.40833786129951477 l2.041689306497574, -3.98129403591156 1.4291824400424957, -7.96258807182312 l0.0, 1.8375203013420105 m-4.695885181427002, 11.02512240409851 l0.6125067919492722, 0.40833786129951477 3.266702890396118, 0.0 l5.002138614654541, 1.1229290813207626 4.900054335594177, 1.633351445198059 l0.9187601506710052, 0.40833786129951477 -1.2250135838985443, 0.0 m-35.52539348602295, -3.675040602684021 l-0.6125067919492722, 0.10208446532487869 -1.9396047294139862, -1.1229290813207626 l-1.4291824400424957, -1.1229290813207626 -0.9187601506710052, -1.5312670171260834 l-0.10208446532487869, -2.65419602394104 0.9187601506710052, -1.7354358732700348 l1.9396047294139862, -2.1437737345695496 4.287547469139099, 0.0 l1.2250135838985443, 0.40833786129951477 5.206307768821716, 6.329236626625061 l0.3062533959746361, 1.1229290813207626 -0.20416893064975739, 1.5312670171260834 l-0.7145912200212479, 0.7145912200212479 -1.7354358732700348, 0.8166757225990295 l-1.5312670171260834, 0.3062533959746361 -6.329236626625061, 0.0 m1.2250135838985443, 13.373064994812012 l-1.9396047294139862, 0.6125067919492722 -0.8166757225990295, 2.8583648800849915 l0.3062533959746361, 2.2458581626415253 1.2250135838985443, 0.40833786129951477 l1.7354358732700348, -0.6125067919492722 0.40833786129951477, -1.633351445198059 l0.0, -2.7562806010246277 -0.8166757225990295, -1.7354358732700348 m-0.5104223266243935, 2.347942590713501 l0.8166757225990295, -0.6125067919492722 1.633351445198059, -2.4500271677970886 l0.9187601506710052, -2.4500271677970886 0.40833786129951477, -3.675040602684021 m0.8166757225990295, -2.347942590713501 l-1.4291824400424957, 1.020844653248787 -1.7354358732700348, 2.2458581626415253 l-0.10208446532487869, 0.9187601506710052 0.6125067919492722, 0.40833786129951477 l1.4291824400424957, 0.0 1.5312670171260834, -2.5521114468574524 l0.5104223266243935, -1.4291824400424957 0.0, -2.041689306497574 l-0.10208446532487869, -0.5104223266243935 -1.1229290813207626, -0.10208446532487869 m1.2250135838985443, -14.291825294494629 l-0.7145912200212479, 3.4708717465400696 " fill="none" stroke="black" stroke-width="1" /></svg>