<?xml version="1.0" encoding="utf-8" ?>
<svg baseProfile="full" height="60.429725125432014" version="1.1" width="60.42972292751074" xmlns="http://www.w3.org/2000/svg" xmlns:ev="http://www.w3.org/2001/xml-events" xmlns:xlink="http://www.w3.org/1999/xlink"><defs /><rect fill="white" height="60.429725125432014" width="60.42972292751074" x="0" y="0" /><path d="M14.698023870587349, 27.15232864022255 m-1.9396047294139862, 0.20416893064975739 l-1.9396047294139862, 0.7145912200212479 -2.041689306497574, 1.9396047294139862 l-1.8375203013420105, 2.65419602394104 -1.2250135838985443, 3.4708717465400696 l-0.7145912200212479, 3.98129403591156 0.0, 4.1854628920555115 l0.7145912200212479, 3.5729563236236572 1.32709801197052, 2.2458581626415253 l1.5312670171260834, 1.2250135838985443 2.8583648800849915, 1.020844653248787 l3.675040602684021, 0.40833786129951477 3.8792094588279724, 0.0 l3.0625340342521667, -1.32709801197052 1.7354358732700348, -2.347942590713501 l0.5104223266243935, -2.5521114468574524 0.10208446532487869, -2.7562806010246277 l-0.3062533959746361, -3.368787169456482 -1.2250135838985443, -3.368787169456482 l-2.347942590713501, -3.98129403591156 -2.960449457168579, -3.98129403591156 l-2.2458581626415253, -1.9396047294139862 -1.7354358732700348, -0.5104223266243935 l-1.2250135838985443, 0.10208446532487869 -1.1229290813207626, 1.32709801197052 l-0.5104223266243935, 2.2458581626415253 0.10208446532487869, 2.1437737345695496 m41.446290016174316, -3.368787169456482 l-2.5521114468574524, -1.1229290813207626 -2.1437737345695496, -0.40833786129951477 l-4.695885181427002, -0.10208446532487869 -2.1437737345695496, 0.7145912200212479 l-2.347942590713501, 1.7354358732700348 -1.9396047294139862, 1.9396047294139862 l-1.5312670171260834, 2.347942590713501 -0.8166757225990295, 2.8583648800849915 l-0.20416893064975739, 3.5729563236236572 0.10208446532487869, 3.7771251797676086 l0.9187601506710052, 3.368787169456482 1.7354358732700348, 2.8583648800849915 l2.041689306497574, 2.347942590713501 2.5521114468574524, 1.5312670171260834 l2.960449457168579, 0.8166757225990295 2.7562806010246277, 0.10208446532487869 l3.1646183133125305, -0.5104223266243935 2.2458581626415253, -1.5312670171260834 l1.633351445198059, -2.041689306497574 0.9187601506710052, -2.65419602394104 l0.40833786129951477, -3.0625340342521667 0.10208446532487869, -6.941743493080139 l-0.8166757225990295, -2.960449457168579 -1.020844653248787, -1.9396047294139862 l-1.4291824400424957, -1.5312670171260834 -5.002138614654541, -2.4500271677970886 l-3.1646183133125305, -1.1229290813207626 -2.4500271677970886, -0.20416893064975739 m-23.78567934036255, -10.412615537643433 l10.9230375289917, 6.1250680685043335 8.473010659217834, 6.227152347564697 l0.40833786129951477, -0.6125067919492722 0.10208446532487869, -9.698023796081543 l0.5104223266243935, -2.65419602394104 1.7354358732700348, -2.1437737345695496 l-2.347942590713501, -0.8166757225990295 -8.370925784111023, -0.5104223266243935 l-10.820952653884888, 0.0 0.3062533959746361, 1.1229290813207626 l-1.020844653248787, 1.5312670171260834 -3.368787169456482, 7.860503792762756 l-1.1229290813207626, 1.8375203013420105 m25.010693073272705, -12.760558128356934 l1.5312670171260834, -0.8166757225990295 5.002138614654541, -4.593800902366638 l3.98129403591156, -2.7562806010246277 -0.5104223266243935, -0.40833786129951477 " fill="none" stroke="black" stroke-width="1" /></svg>