<?xml version="1.0" encoding="utf-8" ?>
<svg baseProfile="full" height="31.94815929979086" version="1.1" width="66.04437083005905" xmlns="http://www.w3.org/2000/svg" xmlns:ev="http://www.w3.org/2001/xml-events" xmlns:xlink="http://www.w3.org/1999/xlink"><defs /><rect fill="white" height="31.94815929979086" width="66.04437083005905" x="0" y="0" /><path d="M45.42544785887003, 12.962587960064411 m-0.5104223266243935, 0.0 l-2.041689306497574, 2.960449457168579 -1.1229290813207626, 4.79796975851059 l0.9187601506710052, 3.8792094588279724 3.98129403591156, 2.1437737345695496 l7.554250359535217, 0.20416893064975739 3.0625340342521667, -0.3062533959746361 l1.32709801197052, -0.5104223266243935 1.32709801197052, -1.32709801197052 l1.1229290813207626, -2.960449457168579 0.0, -2.5521114468574524 l-0.40833786129951477, -1.1229290813207626 -2.65419602394104, -2.960449457168579 l-1.32709801197052, -0.9187601506710052 -4.695885181427002, -2.1437737345695496 l-3.266702890396118, -0.7145912200212479 -2.041689306497574, 0.0 l-1.5312670171260834, 0.40833786129951477 -1.32709801197052, 0.8166757225990295 l-0.8166757225990295, 1.020844653248787 m-31.135761737823486, -1.4291824400424957 l-2.041689306497574, 0.9187601506710052 -1.4291824400424957, 1.2250135838985443 l-1.8375203013420105, 2.1437737345695496 -1.5312670171260834, 2.8583648800849915 l0.20416893064975739, 2.65419602394104 3.266702890396118, 3.8792094588279724 l0.5104223266243935, 0.20416893064975739 1.020844653248787, -0.20416893064975739 l3.4708717465400696, -2.5521114468574524 4.389632046222687, -4.79796975851059 l0.8166757225990295, -1.9396047294139862 -0.20416893064975739, -2.8583648800849915 l-0.7145912200212479, -1.1229290813207626 -2.960449457168579, -1.1229290813207626 l-4.695885181427002, -0.10208446532487869 m1.1229290813207626, 4.79796975851059 l24.398186206817627, -0.20416893064975739 11.33137583732605, 1.4291824400424957 m-26.5419602394104, -2.041689306497574 l1.32709801197052, -3.98129403591156 1.32709801197052, -1.8375203013420105 l3.5729563236236572, -3.1646183133125305 m0.3062533959746361, 0.0 l3.5729563236236572, -0.20416893064975739 0.5104223266243935, -0.20416893064975739 l0.10208446532487869, -1.020844653248787 " fill="none" stroke="black" stroke-width="1" /></svg>