<?xml version="1.0" encoding="utf-8" ?>
<svg baseProfile="full" height="41.850352957844734" version="1.1" width="52.058798745274544" xmlns="http://www.w3.org/2000/svg" xmlns:ev="http://www.w3.org/2001/xml-events" xmlns:xlink="http://www.w3.org/1999/xlink"><defs /><rect fill="white" height="41.850352957844734" width="52.058798745274544" x="0" y="0" /><path d="M7.65419565141201, 23.783541917800903 m-1.4291824400424957, 4.695885181427002 l0.0, 2.8583648800849915 0.40833786129951477, 0.6125067919492722 l0.6125067919492722, 0.40833786129951477 3.675040602684021, -0.20416893064975739 l3.675040602684021, -2.041689306497574 0.6125067919492722, -1.2250135838985443 l0.0, -3.0625340342521667 -0.8166757225990295, -2.4500271677970886 l-2.041689306497574, -2.65419602394104 -1.020844653248787, -0.20416893064975739 m35.52539348602295, 5.512561202049255 l-2.2458581626415253, 1.4291824400424957 -5.30839204788208, 2.4500271677970886 l-2.65419602394104, 2.65419602394104 -0.40833786129951477, 2.2458581626415253 l0.20416893064975739, 0.8166757225990295 1.2250135838985443, 1.2250135838985443 l2.041689306497574, 0.0 1.633351445198059, -0.40833786129951477 l4.4917163252830505, -2.041689306497574 0.6125067919492722, -1.020844653248787 l0.6125067919492722, -2.2458581626415253 0.0, -3.675040602684021 l-2.4500271677970886, -3.0625340342521667 -1.2250135838985443, -1.020844653248787 l-1.633351445198059, -0.6125067919492722 m-29.60449457168579, -2.041689306497574 l3.0625340342521667, -1.4291824400424957 4.287547469139099, -2.65419602394104 l5.104222893714905, -4.083378612995148 1.8375203013420105, -0.6125067919492722 l2.041689306497574, 0.0 4.287547469139099, 1.4291824400424957 l3.675040602684021, 2.4500271677970886 1.8375203013420105, 2.041689306497574 l1.4291824400424957, 4.4917163252830505 1.2250135838985443, 1.020844653248787 l2.041689306497574, 0.40833786129951477 m-5.920898914337158, -8.166757225990295 l0.6125067919492722, 0.40833786129951477 0.8166757225990295, -0.20416893064975739 l2.65419602394104, -3.266702890396118 0.6125067919492722, -1.4291824400424957 l0.8166757225990295, -5.920898914337158 -1.8375203013420105, -0.20416893064975739 l-1.2250135838985443, 0.40833786129951477 2.8583648800849915, -0.40833786129951477 l4.287547469139099, 0.0 m-22.254412174224854, 7.1459126472473145 l0.6125067919492722, -0.40833786129951477 1.8375203013420105, -0.20416893064975739 l5.512561202049255, 0.0 0.6125067919492722, -0.20416893064975739 l0.0, -0.6125067919492722 -1.633351445198059, -1.8375203013420105 l-1.2250135838985443, -0.40833786129951477 -3.0625340342521667, -0.6125067919492722 l-3.266702890396118, 0.0 -0.20416893064975739, 1.2250135838985443 l0.8166757225990295, 1.020844653248787 1.8375203013420105, 0.6125067919492722 l2.2458581626415253, 0.0 m-18.57937216758728, 14.087655544281006 l0.0, 0.20416893064975739 m-2.4500271677970886, -1.633351445198059 l0.40833786129951477, -0.6125067919492722 3.266702890396118, -2.2458581626415253 l1.4291824400424957, -0.20416893064975739 m-2.65419602394104, 4.287547469139099 l2.65419602394104, -0.20416893064975739 m-2.65419602394104, -0.20416893064975739 l1.020844653248787, 4.083378612995148 0.0, 0.6125067919492722 l-0.40833786129951477, 0.0 m-0.6125067919492722, -4.083378612995148 l-4.900054335594177, -0.40833786129951477 " fill="none" stroke="black" stroke-width="1" /></svg>