<?xml version="1.0" encoding="utf-8" ?>
<svg baseProfile="full" height="46.34206857532263" version="1.1" width="30.41689231991768" xmlns="http://www.w3.org/2000/svg" xmlns:ev="http://www.w3.org/2001/xml-events" xmlns:xlink="http://www.w3.org/1999/xlink"><defs /><rect fill="white" height="46.34206857532263" width="30.41689231991768" x="0" y="0" /><path d="M23.375202268362045, 26.743990257382393 m-0.3062533959746361, -1.020844653248787 l-6.227152347564697, -0.9187601506710052 -7.247996926307678, 0.0 l-1.2250135838985443, 0.7145912200212479 -0.9187601506710052, 1.020844653248787 l-1.020844653248787, 2.041689306497574 -0.5104223266243935, 2.2458581626415253 l0.0, 1.8375203013420105 1.020844653248787, 2.041689306497574 l1.2250135838985443, 1.5312670171260834 2.65419602394104, 2.1437737345695496 l4.900054335594177, 2.65419602394104 1.5312670171260834, 0.3062533959746361 l3.266702890396118, 0.0 2.8583648800849915, -5.002138614654541 l1.1229290813207626, -3.4708717465400696 -0.7145912200212479, -6.431320905685425 l-0.9187601506710052, -0.9187601506710052 -1.32709801197052, 0.0 m0.0, 0.0 l-12.045966386795044, 10.310530662536621 -3.675040602684021, 2.5521114468574524 m19.60021734237671, -9.698023796081543 l-0.8166757225990295, 1.020844653248787 -7.247996926307678, 5.614645481109619 l-2.2458581626415253, 1.5312670171260834 -0.9187601506710052, 0.20416893064975739 m-0.40833786129951477, -12.250136137008667 l-0.8166757225990295, 1.633351445198059 -2.5521114468574524, 2.8583648800849915 l-5.410476326942444, 4.389632046222687 m12.148051261901855, -9.187601804733276 l1.020844653248787, -3.1646183133125305 1.1229290813207626, -5.410476326942444 l0.5104223266243935, -4.287547469139099 m0.0, -0.3062533959746361 l-4.1854628920555115, 0.8166757225990295 m4.1854628920555115, -1.1229290813207626 l2.347942590713501, -0.3062533959746361 m-2.4500271677970886, -0.3062533959746361 l0.8166757225990295, -5.410476326942444 " fill="none" stroke="black" stroke-width="1" /></svg>