<?xml version="1.0" encoding="utf-8" ?>
<svg baseProfile="full" height="56.550516560673714" version="1.1" width="65.84020085632801" xmlns="http://www.w3.org/2000/svg" xmlns:ev="http://www.w3.org/2001/xml-events" xmlns:xlink="http://www.w3.org/1999/xlink"><defs /><rect fill="white" height="56.550516560673714" width="65.84020085632801" x="0" y="0" /><path d="M16.53554428368807, 29.194019325077534 m-3.5729563236236572, 1.020844653248787 l-2.347942590713501, 1.32709801197052 -2.041689306497574, 1.7354358732700348 l-2.5521114468574524, 3.98129403591156 -0.7145912200212479, 2.65419602394104 l-0.3062533959746361, 2.65419602394104 0.6125067919492722, 3.368787169456482 l0.5104223266243935, 1.020844653248787 1.9396047294139862, 2.2458581626415253 l3.5729563236236572, 1.8375203013420105 4.695885181427002, 0.5104223266243935 l5.818814635276794, -1.5312670171260834 3.1646183133125305, -2.1437737345695496 l2.1437737345695496, -3.0625340342521667 0.6125067919492722, -3.675040602684021 l-0.5104223266243935, -2.4500271677970886 -1.1229290813207626, -2.65419602394104 l-2.4500271677970886, -3.1646183133125305 -3.1646183133125305, -2.4500271677970886 l-3.4708717465400696, -1.4291824400424957 -4.083378612995148, 0.10208446532487869 m33.78995656967163, 1.1229290813207626 l-3.1646183133125305, 1.633351445198059 -2.8583648800849915, 2.347942590713501 l-1.32709801197052, 1.7354358732700348 -1.4291824400424957, 3.368787169456482 l-0.40833786129951477, 3.98129403591156 0.8166757225990295, 2.4500271677970886 l1.1229290813207626, 1.9396047294139862 2.041689306497574, 1.633351445198059 l4.083378612995148, 1.020844653248787 2.8583648800849915, -0.10208446532487869 l3.266702890396118, -0.7145912200212479 4.1854628920555115, -2.1437737345695496 l2.041689306497574, -1.5312670171260834 1.4291824400424957, -2.041689306497574 l1.1229290813207626, -3.1646183133125305 0.0, -2.347942590713501 l-1.020844653248787, -3.1646183133125305 -2.041689306497574, -2.65419602394104 l-2.7562806010246277, -2.347942590713501 -3.1646183133125305, -1.1229290813207626 l-1.1229290813207626, -0.10208446532487869 -1.020844653248787, 0.0 l-2.347942590713501, 0.6125067919492722 m11.127206087112427, 0.10208446532487869 l-3.266702890396118, 0.0 -0.8166757225990295, -0.7145912200212479 l-0.5104223266243935, -6.329236626625061 -0.7145912200212479, -1.2250135838985443 l-2.2458581626415253, 0.7145912200212479 -2.041689306497574, 0.0 l-13.2709801197052, -1.2250135838985443 -9.902192950248718, -0.40833786129951477 l-1.1229290813207626, 0.3062533959746361 -0.5104223266243935, 0.6125067919492722 l-6.941743493080139, 10.20844578742981 m24.398186206817627, -9.187601804733276 l4.593800902366638, -3.98129403591156 6.431320905685425, -7.043827772140503 l-0.7145912200212479, -0.6125067919492722 -2.65419602394104, -0.6125067919492722 l-1.5312670171260834, 0.0 -1.4291824400424957, 0.6125067919492722 l-0.6125067919492722, 0.9187601506710052 0.40833786129951477, 0.7145912200212479 l2.041689306497574, 0.7145912200212479 3.675040602684021, -0.40833786129951477 l2.960449457168579, -1.5312670171260834 0.0, -0.9187601506710052 l-1.32709801197052, -0.6125067919492722 -3.4708717465400696, 0.10208446532487869 m-26.5419602394104, 10.820952653884888 l-1.1229290813207626, -6.533405780792236 -0.5104223266243935, -1.8375203013420105 l-0.9187601506710052, -1.4291824400424957 m-7.4521660804748535, 2.5521114468574524 l1.1229290813207626, 0.3062533959746361 2.4500271677970886, -0.40833786129951477 l4.389632046222687, -2.2458581626415253 2.8583648800849915, -2.2458581626415253 l1.2250135838985443, -1.5312670171260834 1.1229290813207626, -2.041689306497574 m-0.20416893064975739, -0.10208446532487869 l2.8583648800849915, 1.020844653248787 2.347942590713501, 0.0 m-19.60021734237671, 7.860503792762756 l5.818814635276794, 3.4708717465400696 " fill="none" stroke="black" stroke-width="1" /></svg>