<?xml version="1.0" encoding="utf-8" ?>
<svg baseProfile="full" height="31.94815944880247" version="1.1" width="47.4649989977479" xmlns="http://www.w3.org/2000/svg" xmlns:ev="http://www.w3.org/2001/xml-events" xmlns:xlink="http://www.w3.org/1999/xlink"><defs /><rect fill="white" height="31.94815944880247" width="47.4649989977479" x="0" y="0" /><path d="M11.431321240961552, 23.375202901661396 m-1.020844653248787, -0.20416893064975739 l-0.8166757225990295, -0.6125067919492722 -2.65419602394104, -3.368787169456482 l-0.8166757225990295, -1.5312670171260834 -1.020844653248787, -3.266702890396118 l-0.10208446532487869, -2.5521114468574524 0.10208446532487869, -0.5104223266243935 l1.4291824400424957, -1.020844653248787 3.8792094588279724, -0.8166757225990295 l3.368787169456482, 0.20416893064975739 1.5312670171260834, 1.020844653248787 l1.5312670171260834, 1.633351445198059 1.020844653248787, 2.4500271677970886 l0.10208446532487869, 5.512561202049255 -0.40833786129951477, 2.041689306497574 l-0.7145912200212479, 1.5312670171260834 -0.6125067919492722, 0.6125067919492722 l-1.32709801197052, 0.40833786129951477 -5.920898914337158, -0.10208446532487869 l-0.5104223266243935, -0.10208446532487869 0.10208446532487869, -0.3062533959746361 m29.808664321899414, 1.1229290813207626 l-4.900054335594177, 0.0 -2.2458581626415253, -1.020844653248787 l-1.633351445198059, -2.2458581626415253 -0.7145912200212479, -2.4500271677970886 l0.0, -2.8583648800849915 1.5312670171260834, -2.8583648800849915 l2.1437737345695496, -1.633351445198059 4.287547469139099, -1.020844653248787 l2.4500271677970886, 0.20416893064975739 1.020844653248787, 1.2250135838985443 l2.041689306497574, 5.410476326942444 0.10208446532487869, 3.1646183133125305 l-0.40833786129951477, 1.32709801197052 -2.041689306497574, 1.633351445198059 l-3.8792094588279724, 1.2250135838985443 -2.7562806010246277, 1.32709801197052 l0.0, -1.2250135838985443 m-1.7354358732700348, -1.633351445198059 l0.9187601506710052, -2.1437737345695496 4.900054335594177, -8.370925784111023 l2.65419602394104, -3.5729563236236572 m-9.187601804733276, 5.512561202049255 l7.043827772140503, 5.30839204788208 1.633351445198059, 2.1437737345695496 l0.9187601506710052, 0.7145912200212479 m-4.287547469139099, 1.020844653248787 l-1.1229290813207626, -8.064672350883484 0.20416893064975739, -3.4708717465400696 m-22.458581924438477, 10.61678409576416 l0.10208446532487869, -6.227152347564697 -1.1229290813207626, -7.860503792762756 m-5.920898914337158, 7.860503792762756 l10.514699220657349, -0.40833786129951477 0.7145912200212479, 0.20416893064975739 m0.40833786129951477, 3.4708717465400696 l-0.6125067919492722, -1.8375203013420105 -2.960449457168579, -4.900054335594177 l-2.2458581626415253, -2.5521114468574524 -2.1437737345695496, -1.020844653248787 m-0.6125067919492722, 9.800108671188354 l5.818814635276794, -5.512561202049255 3.0625340342521667, -3.4708717465400696 m0.10208446532487869, 0.3062533959746361 l4.4917163252830505, 0.6125067919492722 7.554250359535217, 0.40833786129951477 m-7.96258807182312, -0.8166757225990295 l2.960449457168579, -6.839659214019775 " fill="none" stroke="black" stroke-width="1" /></svg>