<?xml version="1.0" encoding="utf-8" ?>
<svg baseProfile="full" height="30.518977493047714" version="1.1" width="30.416891984641552" xmlns="http://www.w3.org/2000/svg" xmlns:ev="http://www.w3.org/2001/xml-events" xmlns:xlink="http://www.w3.org/1999/xlink"><defs /><rect fill="white" height="30.518977493047714" width="30.416891984641552" x="0" y="0" /><path d="M6.531267054378986, 18.781402818858624 m-0.8166757225990295, 0.3062533959746361 l-0.6125067919492722, 2.1437737345695496 0.0, 2.4500271677970886 l0.7145912200212479, 1.020844653248787 2.1437737345695496, 0.8166757225990295 l2.2458581626415253, 0.0 1.2250135838985443, -0.6125067919492722 l1.32709801197052, -1.9396047294139862 0.10208446532487869, -2.347942590713501 l-0.6125067919492722, -1.1229290813207626 -1.7354358732700348, -0.8166757225990295 l-2.1437737345695496, 0.0 -2.960449457168579, 0.5104223266243935 l-0.40833786129951477, 1.020844653248787 m15.51683783531189, -2.7562806010246277 l-0.9187601506710052, 0.40833786129951477 -1.4291824400424957, 1.633351445198059 l-1.1229290813207626, 1.9396047294139862 -0.20416893064975739, 2.347942590713501 l0.40833786129951477, 0.5104223266243935 0.9187601506710052, 0.20416893064975739 l3.266702890396118, -0.20416893064975739 1.5312670171260834, -0.9187601506710052 l0.8166757225990295, -1.9396047294139862 -0.10208446532487869, -2.7562806010246277 l-1.32709801197052, -1.5312670171260834 -2.041689306497574, -0.9187601506710052 l-1.020844653248787, 0.0 -1.1229290813207626, 0.7145912200212479 m-6.227152347564697, 5.104222893714905 l5.410476326942444, 0.20416893064975739 m-2.5521114468574524, 0.7145912200212479 l-0.10208446532487869, -10.004277229309082 m1.1229290813207626, -0.5104223266243935 l0.6125067919492722, -0.3062533959746361 5.716729760169983, 0.20416893064975739 l1.5312670171260834, -0.6125067919492722 -0.10208446532487869, -4.593800902366638 l-0.20416893064975739, -0.6125067919492722 -1.5312670171260834, -1.5312670171260834 m2.4500271677970886, 5.410476326942444 l-0.6125067919492722, 0.8166757225990295 0.20416893064975739, 2.8583648800849915 l1.5312670171260834, 2.4500271677970886 " fill="none" stroke="black" stroke-width="1" /></svg>