<?xml version="1.0" encoding="utf-8" ?>
<svg baseProfile="full" height="32.66275115311146" version="1.1" width="45.62747739255428" xmlns="http://www.w3.org/2000/svg" xmlns:ev="http://www.w3.org/2001/xml-events" xmlns:xlink="http://www.w3.org/1999/xlink"><defs /><rect fill="white" height="32.66275115311146" width="45.62747739255428" x="0" y="0" /><path d="M20.21058440208435, 11.533406041562557 m-0.9187601506710052, 3.8792094588279724 m-2.1437737345695496, -5.614645481109619 l2.4500271677970886, 1.5312670171260834 1.7354358732700348, 0.40833786129951477 l2.8583648800849915, 0.10208446532487869 0.40833786129951477, -0.5104223266243935 l-0.10208446532487869, -0.6125067919492722 -1.020844653248787, -0.9187601506710052 l-3.266702890396118, -1.1229290813207626 -2.65419602394104, 0.20416893064975739 l-0.6125067919492722, 0.5104223266243935 0.20416893064975739, 0.9187601506710052 m-2.7562806010246277, 3.8792094588279724 l7.247996926307678, 2.041689306497574 5.512561202049255, 0.6125067919492722 l4.389632046222687, 0.20416893064975739 2.7562806010246277, -0.8166757225990295 l-1.633351445198059, 0.40833786129951477 -1.633351445198059, 1.2250135838985443 l-1.020844653248787, 2.65419602394104 0.0, 3.266702890396118 l0.3062533959746361, 1.1229290813207626 1.2250135838985443, 1.633351445198059 l1.1229290813207626, 0.7145912200212479 2.041689306497574, 0.40833786129951477 l1.2250135838985443, 0.0 2.041689306497574, -0.6125067919492722 l2.4500271677970886, -4.593800902366638 0.20416893064975739, -2.1437737345695496 l-1.4291824400424957, -1.5312670171260834 -2.2458581626415253, -1.1229290813207626 l-3.266702890396118, -0.6125067919492722 0.0, -0.6125067919492722 l-0.6125067919492722, -1.020844653248787 m-1.633351445198059, 0.6125067919492722 l1.8375203013420105, -2.041689306497574 1.4291824400424957, -3.4708717465400696 l0.0, -4.389632046222687 -0.6125067919492722, -1.1229290813207626 l-1.020844653248787, 0.0 -0.8166757225990295, 0.6125067919492722 m2.4500271677970886, 1.020844653248787 l-0.40833786129951477, 0.6125067919492722 -1.8375203013420105, 1.020844653248787 l-2.5521114468574524, -0.40833786129951477 m-14.700162410736084, 6.737574338912964 l-1.2250135838985443, -0.6125067919492722 -1.7354358732700348, 0.0 l-4.083378612995148, 1.1229290813207626 -1.1229290813207626, 0.9187601506710052 l-1.1229290813207626, 1.633351445198059 -0.9187601506710052, 3.1646183133125305 l0.0, 1.7354358732700348 0.40833786129951477, 1.1229290813207626 l0.7145912200212479, 1.1229290813207626 0.8166757225990295, 0.5104223266243935 l1.32709801197052, 0.7145912200212479 2.4500271677970886, 0.6125067919492722 l3.7771251797676086, -0.10208446532487869 1.4291824400424957, -0.5104223266243935 l2.041689306497574, -2.8583648800849915 1.020844653248787, -4.083378612995148 l-0.20416893064975739, -2.347942590713501 -1.2250135838985443, -1.7354358732700348 l-1.5312670171260834, -0.6125067919492722 m5.410476326942444, 2.65419602394104 l-1.020844653248787, -0.20416893064975739 -0.8166757225990295, 0.6125067919492722 l-1.2250135838985443, 1.8375203013420105 -0.20416893064975739, 1.9396047294139862 l0.7145912200212479, 1.32709801197052 1.9396047294139862, 0.8166757225990295 l1.2250135838985443, -0.20416893064975739 0.6125067919492722, -1.633351445198059 " fill="none" stroke="black" stroke-width="1" /></svg>