<?xml version="1.0" encoding="utf-8" ?>
<svg baseProfile="full" height="67.26938363164663" version="1.1" width="110.7573615014553" xmlns="http://www.w3.org/2000/svg" xmlns:ev="http://www.w3.org/2001/xml-events" xmlns:xlink="http://www.w3.org/1999/xlink"><defs /><rect fill="white" height="67.26938363164663" width="110.7573615014553" x="0" y="0" /><path d="M19.904331415891647, 33.379480838775635 m-2.8583648800849915, 0.3062533959746361 l-2.7562806010246277, 1.32709801197052 -4.1854628920555115, 2.65419602394104 l-2.5521114468574524, 2.65419602394104 -2.1437737345695496, 3.7771251797676086 l-0.40833786129951477, 1.9396047294139862 0.10208446532487869, 1.5312670171260834 l1.8375203013420105, 2.2458581626415253 4.083378612995148, 2.4500271677970886 l2.041689306497574, 0.8166757225990295 3.1646183133125305, 1.2250135838985443 l9.59593951702118, 2.5521114468574524 3.8792094588279724, 0.9187601506710052 l1.7354358732700348, 0.10208446532487869 0.6125067919492722, -0.10208446532487869 l0.5104223266243935, -0.6125067919492722 1.020844653248787, -4.287547469139099 l-0.20416893064975739, -3.675040602684021 -0.40833786129951477, -1.633351445198059 l-1.4291824400424957, -3.0625340342521667 -2.7562806010246277, -3.4708717465400696 l-3.675040602684021, -3.368787169456482 -5.512561202049255, -3.5729563236236572 l-2.4500271677970886, -0.40833786129951477 m70.13202667236328, 3.98129403591156 l-6.6354900598526, 0.0 -4.593800902366638, 1.32709801197052 l-1.9396047294139862, 1.020844653248787 -1.32709801197052, 1.1229290813207626 l-0.7145912200212479, 3.368787169456482 0.0, 3.7771251797676086 l0.3062533959746361, 1.2250135838985443 1.8375203013420105, 3.4708717465400696 l1.9396047294139862, 2.2458581626415253 2.4500271677970886, 1.7354358732700348 l3.7771251797676086, 2.041689306497574 7.1459126472473145, 2.65419602394104 l4.4917163252830505, 0.6125067919492722 2.1437737345695496, -0.20416893064975739 l1.2250135838985443, -0.9187601506710052 1.7354358732700348, -3.1646183133125305 l1.1229290813207626, -6.227152347564697 0.0, -3.8792094588279724 l-0.9187601506710052, -3.266702890396118 -2.5521114468574524, -4.389632046222687 l-3.5729563236236572, -4.1854628920555115 -3.5729563236236572, -2.7562806010246277 l-4.1854628920555115, -1.8375203013420105 -1.32709801197052, -0.20416893064975739 l-1.32709801197052, 0.20416893064975739 m6.533405780792236, 4.79796975851059 l-0.5104223266243935, -0.3062533959746361 -67.78408527374268, 0.0 l-1.8375203013420105, -0.3062533959746361 m27.869057655334473, 1.1229290813207626 l0.6125067919492722, 0.20416893064975739 0.9187601506710052, 1.2250135838985443 l3.368787169456482, 2.8583648800849915 3.4708717465400696, 2.347942590713501 l2.347942590713501, 0.40833786129951477 1.4291824400424957, -0.5104223266243935 m-3.4708717465400696, -8.983432650566101 l-4.1854628920555115, -3.98129403591156 -2.2458581626415253, -1.5312670171260834 l-3.8792094588279724, -1.8375203013420105 -3.0625340342521667, -0.5104223266243935 l-1.9396047294139862, 0.10208446532487869 m41.446290016174316, 9.28968608379364 l0.40833786129951477, -5.002138614654541 m0.0, 0.0 l1.4291824400424957, -4.4917163252830505 2.1437737345695496, -3.98129403591156 l3.266702890396118, -4.695885181427002 2.041689306497574, -2.347942590713501 l5.818814635276794, -5.716729760169983 5.920898914337158, -3.5729563236236572 l2.8583648800849915, -1.020844653248787 " fill="none" stroke="black" stroke-width="1" /></svg>