<?xml version="1.0" encoding="utf-8" ?>
<svg baseProfile="full" height="86.15501016378403" version="1.1" width="127.70338587462902" xmlns="http://www.w3.org/2000/svg" xmlns:ev="http://www.w3.org/2001/xml-events" xmlns:xlink="http://www.w3.org/1999/xlink"><defs /><rect fill="white" height="86.15501016378403" width="127.70338587462902" x="0" y="0" /><path d="M22.55852784961462, 34.502410888671875 m-4.389632046222687, 1.8375203013420105 l-1.020844653248787, 0.9187601506710052 -4.287547469139099, 6.022983193397522 l-2.8583648800849915, 7.758418917655945 -4.083378612995148, 14.802247285842896 l-0.8166757225990295, 5.512561202049255 -0.10208446532487869, 3.368787169456482 l1.4291824400424957, 4.4917163252830505 4.4917163252830505, 1.9396047294139862 l7.043827772140503, -0.3062533959746361 7.350081205368042, -2.347942590713501 l2.7562806010246277, -2.041689306497574 2.7562806010246277, -2.960449457168579 l1.4291824400424957, -2.960449457168579 0.8166757225990295, -2.8583648800849915 l1.1229290813207626, -10.20844578742981 -0.5104223266243935, -7.656334638595581 l-0.7145912200212479, -2.2458581626415253 -0.8166757225990295, -1.7354358732700348 l-3.675040602684021, -4.4917163252830505 -5.002138614654541, -3.266702890396118 l-7.4521660804748535, -2.7562806010246277 m91.3655948638916, 9.28968608379364 l-2.960449457168579, 0.7145912200212479 -4.287547469139099, 1.633351445198059 l-2.1437737345695496, 1.7354358732700348 -2.2458581626415253, 3.98129403591156 l-0.5104223266243935, 3.5729563236236572 0.40833786129951477, 5.206307768821716 l2.1437737345695496, 7.656334638595581 1.5312670171260834, 2.7562806010246277 l5.512561202049255, 5.104222893714905 4.1854628920555115, 1.4291824400424957 l3.1646183133125305, 0.0 3.8792094588279724, -1.020844653248787 l3.4708717465400696, -3.266702890396118 1.4291824400424957, -2.347942590713501 l0.8166757225990295, -2.347942590713501 0.9187601506710052, -6.839659214019775 l-1.8375203013420105, -7.656334638595581 -2.5521114468574524, -5.410476326942444 l-2.2458581626415253, -2.960449457168579 -4.4917163252830505, -2.4500271677970886 l-3.8792094588279724, -1.32709801197052 m-89.52807426452637, 18.27311873435974 l3.8792094588279724, -5.410476326942444 5.716729760169983, -10.9230375289917 l7.758418917655945, -13.168895244598389 3.8792094588279724, -5.818814635276794 l18.88562560081482, -2.8583648800849915 10.61678409576416, 0.0 l15.210585594177246, -1.4291824400424957 5.818814635276794, -0.10208446532487869 l6.227152347564697, 8.166757225990295 6.431320905685425, 9.28968608379364 l4.1854628920555115, 9.391770362854004 7.247996926307678, 13.98557186126709 l1.2250135838985443, 3.7771251797676086 m-26.337790489196777, -46.856770515441895 l-0.10208446532487869, -2.8583648800849915 0.6125067919492722, -8.166757225990295 l-0.6125067919492722, -2.2458581626415253 -0.6125067919492722, -0.6125067919492722 l-1.633351445198059, -0.20416893064975739 0.3062533959746361, 0.5104223266243935 l1.4291824400424957, 0.10208446532487869 -1.5312670171260834, 0.10208446532487869 m-35.321223735809326, 18.068950176239014 l0.0, 0.0 m1.32709801197052, 1.4291824400424957 l0.9187601506710052, -4.4917163252830505 0.7145912200212479, -6.6354900598526 l-1.5312670171260834, -0.40833786129951477 -8.370925784111023, 0.40833786129951477 l3.1646183133125305, -1.4291824400424957 5.614645481109619, -1.7354358732700348 l6.227152347564697, -1.1229290813207626 " fill="none" stroke="black" stroke-width="1" /></svg>