<?xml version="1.0" encoding="utf-8" ?>
<svg baseProfile="full" height="44.81080260127783" version="1.1" width="66.45270928740501" xmlns="http://www.w3.org/2000/svg" xmlns:ev="http://www.w3.org/2001/xml-events" xmlns:xlink="http://www.w3.org/1999/xlink"><defs /><rect fill="white" height="44.81080260127783" width="66.45270928740501" x="0" y="0" /><path d="M15.208446457982063, 28.479427099227905 m-2.1437737345695496, 0.10208446532487869 l-4.083378612995148, 2.041689306497574 -2.1437737345695496, 1.7354358732700348 l-1.2250135838985443, 1.7354358732700348 -0.6125067919492722, 2.041689306497574 l0.0, 1.4291824400424957 0.6125067919492722, 1.2250135838985443 l1.8375203013420105, 0.6125067919492722 2.2458581626415253, 0.20416893064975739 l3.368787169456482, -0.20416893064975739 3.0625340342521667, -1.2250135838985443 l2.4500271677970886, -1.633351445198059 1.633351445198059, -1.8375203013420105 l0.8166757225990295, -1.8375203013420105 0.20416893064975739, -1.633351445198059 l-0.5104223266243935, -2.1437737345695496 -1.633351445198059, -1.32709801197052 l-2.2458581626415253, -0.6125067919492722 -2.4500271677970886, 0.0 l-1.8375203013420105, 0.7145912200212479 -0.5104223266243935, 0.8166757225990295 m43.794236183166504, -0.5104223266243935 l-2.041689306497574, -0.40833786129951477 -1.633351445198059, 0.20416893064975739 l-2.4500271677970886, 1.5312670171260834 -2.1437737345695496, 1.9396047294139862 l-1.633351445198059, 2.1437737345695496 -0.6125067919492722, 1.633351445198059 l0.0, 1.4291824400424957 0.8166757225990295, 1.633351445198059 l1.7354358732700348, 1.020844653248787 1.9396047294139862, 0.5104223266243935 l2.4500271677970886, 0.0 3.1646183133125305, -0.8166757225990295 l2.8583648800849915, -1.5312670171260834 2.2458581626415253, -1.8375203013420105 l0.9187601506710052, -1.5312670171260834 0.0, -1.5312670171260834 l-0.8166757225990295, -1.7354358732700348 -1.4291824400424957, -1.2250135838985443 l-1.8375203013420105, -0.9187601506710052 -2.2458581626415253, -0.5104223266243935 m-39.50668811798096, 4.389632046222687 l1.633351445198059, -3.4708717465400696 0.8166757225990295, -3.1646183133125305 l0.10208446532487869, -5.614645481109619 -1.020844653248787, -3.368787169456482 l-3.5729563236236572, 12.352219820022583 -0.5104223266243935, 2.5521114468574524 l0.20416893064975739, 0.7145912200212479 m4.389632046222687, -14.598078727722168 l-0.10208446532487869, -1.633351445198059 1.5312670171260834, -4.1854628920555115 l0.3062533959746361, -3.1646183133125305 m-5.30839204788208, -3.98129403591156 l3.98129403591156, 2.1437737345695496 5.410476326942444, 3.8792094588279724 l1.8375203013420105, 0.5104223266243935 m-6.839659214019775, 4.695885181427002 l1.9396047294139862, 1.1229290813207626 8.064672350883484, 3.1646183133125305 l9.187601804733276, 5.30839204788208 5.512561202049255, 1.9396047294139862 m-24.091932773590088, -11.637629270553589 l1.2250135838985443, -0.5104223266243935 18.98771047592163, 0.0 l6.737574338912964, -0.6125067919492722 m-0.9187601506710052, -3.5729563236236572 l-1.8375203013420105, 9.698023796081543 " fill="none" stroke="black" stroke-width="1" /></svg>