<?xml version="1.0" encoding="utf-8" ?>
<svg baseProfile="full" height="35.72528421878815" version="1.1" width="55.73383893817663" xmlns="http://www.w3.org/2000/svg" xmlns:ev="http://www.w3.org/2001/xml-events" xmlns:xlink="http://www.w3.org/1999/xlink"><defs /><rect fill="white" height="35.72528421878815" width="55.73383893817663" x="0" y="0" /><path d="M13.881348185241222, 16.94388147443533 m-2.65419602394104, -0.6125067919492722 l-2.347942590713501, 0.0 -2.347942590713501, 0.7145912200212479 l-1.020844653248787, 1.7354358732700348 -0.5104223266243935, 5.206307768821716 l0.8166757225990295, 2.7562806010246277 1.1229290813207626, 1.7354358732700348 l1.2250135838985443, 1.020844653248787 2.8583648800849915, 1.1229290813207626 l3.675040602684021, 0.10208446532487869 2.7562806010246277, -0.8166757225990295 l2.65419602394104, -1.2250135838985443 2.65419602394104, -2.041689306497574 l1.32709801197052, -2.7562806010246277 0.10208446532487869, -2.2458581626415253 l-1.020844653248787, -2.65419602394104 -1.8375203013420105, -1.4291824400424957 l-4.083378612995148, -1.020844653248787 -2.8583648800849915, 0.0 l-1.633351445198059, 0.5104223266243935 m11.739712953567505, 3.7771251797676086 l6.533405780792236, 0.0 4.79796975851059, -0.7145912200212479 m4.593800902366638, -3.98129403591156 l-2.2458581626415253, 0.10208446532487869 -1.5312670171260834, 0.8166757225990295 l-1.1229290813207626, 1.1229290813207626 -1.2250135838985443, 1.9396047294139862 l-0.40833786129951477, 1.633351445198059 0.10208446532487869, 1.7354358732700348 l0.5104223266243935, 1.2250135838985443 1.4291824400424957, 1.9396047294139862 l2.347942590713501, 1.7354358732700348 1.8375203013420105, 0.6125067919492722 l3.368787169456482, 0.40833786129951477 2.65419602394104, -0.10208446532487869 l1.5312670171260834, -0.7145912200212479 1.9396047294139862, -1.7354358732700348 l0.9187601506710052, -1.9396047294139862 0.20416893064975739, -2.8583648800849915 l-0.6125067919492722, -2.4500271677970886 -0.7145912200212479, -1.4291824400424957 l-1.2250135838985443, -1.9396047294139862 -1.4291824400424957, -1.4291824400424957 l-1.7354358732700348, -0.8166757225990295 -2.65419602394104, -0.3062533959746361 m-14.291825294494629, 6.533405780792236 l4.389632046222687, -8.26884150505066 -7.350081205368042, 1.9396047294139862 l7.350081205368042, -1.32709801197052 m8.983432650566101, 1.8375203013420105 l-0.6125067919492722, -9.391770362854004 -5.614645481109619, 0.5104223266243935 l11.433459520339966, -0.40833786129951477 -10.310530662536621, 0.10208446532487869 m-9.698023796081543, 7.860503792762756 l-0.5104223266243935, 0.20416893064975739 " fill="none" stroke="black" stroke-width="1" /></svg>