<?xml version="1.0" encoding="utf-8" ?>
<svg baseProfile="full" height="36.95029769092798" version="1.1" width="56.04009311646223" xmlns="http://www.w3.org/2000/svg" xmlns:ev="http://www.w3.org/2001/xml-events" xmlns:xlink="http://www.w3.org/1999/xlink"><defs /><rect fill="white" height="36.95029769092798" width="56.04009311646223" x="0" y="0" /><path d="M12.554250471293926, 11.941742822527885 m1.020844653248787, -0.40833786129951477 l2.041689306497574, 0.20416893064975739 3.675040602684021, 1.9396047294139862 l0.8166757225990295, 1.2250135838985443 0.7145912200212479, 4.389632046222687 l-0.20416893064975739, 3.5729563236236572 -0.8166757225990295, 3.4708717465400696 l-2.041689306497574, 2.8583648800849915 -1.5312670171260834, 1.020844653248787 l-1.32709801197052, 0.40833786129951477 -3.7771251797676086, 0.10208446532487869 l-2.960449457168579, -0.8166757225990295 -1.7354358732700348, -0.8166757225990295 l-0.9187601506710052, -1.32709801197052 -0.5104223266243935, -2.2458581626415253 l0.0, -2.1437737345695496 0.40833786129951477, -2.960449457168579 l2.2458581626415253, -3.1646183133125305 4.900054335594177, -4.593800902366638 l0.9187601506710052, -0.3062533959746361 m5.512561202049255, 1.32709801197052 l-5.716729760169983, 5.614645481109619 -2.8583648800849915, 3.7771251797676086 l-1.8375203013420105, 3.266702890396118 m9.085517525672913, 1.9396047294139862 l-5.512561202049255, -6.533405780792236 -1.633351445198059, -2.5521114468574524 l-0.5104223266243935, -1.7354358732700348 m3.8792094588279724, -6.6354900598526 l-0.8166757225990295, 13.475148677825928 0.20416893064975739, 4.287547469139099 m4.79796975851059, -8.064672350883484 l-7.656334638595581, 0.7145912200212479 -4.083378612995148, 0.0 m30.931591987609863, -7.247996926307678 l3.675040602684021, 0.0 3.7771251797676086, 0.7145912200212479 l3.266702890396118, 1.633351445198059 2.041689306497574, 1.5312670171260834 l0.6125067919492722, 0.9187601506710052 0.40833786129951477, 1.633351445198059 l0.0, 2.041689306497574 -1.4291824400424957, 3.98129403591156 l-2.347942590713501, 3.266702890396118 -1.4291824400424957, 1.1229290813207626 l-1.633351445198059, 0.6125067919492722 -3.266702890396118, 0.5104223266243935 l-5.206307768821716, -1.2250135838985443 -2.960449457168579, -1.5312670171260834 l-2.2458581626415253, -1.633351445198059 -1.2250135838985443, -1.2250135838985443 l-0.7145912200212479, -1.5312670171260834 0.0, -2.5521114468574524 l3.675040602684021, -5.002138614654541 2.041689306497574, -1.9396047294139862 l2.960449457168579, -2.041689306497574 1.8375203013420105, 0.0 m8.677179217338562, 4.900054335594177 l-5.818814635276794, 3.266702890396118 -8.779264092445374, 6.533405780792236 m13.781402111053467, 0.3062533959746361 l-3.7771251797676086, -1.633351445198059 -7.043827772140503, -5.104222893714905 l-3.1646183133125305, -1.8375203013420105 m7.860503792762756, 1.8375203013420105 l0.0, 0.8166757225990295 -1.2250135838985443, 2.4500271677970886 l-0.6125067919492722, 0.10208446532487869 -0.5104223266243935, -0.5104223266243935 l0.0, -0.40833786129951477 0.7145912200212479, -0.9187601506710052 l0.0, 0.40833786129951477 1.5312670171260834, -4.389632046222687 l0.40833786129951477, -2.1437737345695496 0.0, -2.7562806010246277 l-1.2250135838985443, -6.431320905685425 -1.5312670171260834, -2.7562806010246277 " fill="none" stroke="black" stroke-width="1" /></svg>