<?xml version="1.0" encoding="utf-8" ?>
<svg baseProfile="full" height="60.42972508817911" version="1.1" width="72.78194729238749" xmlns="http://www.w3.org/2000/svg" xmlns:ev="http://www.w3.org/2001/xml-events" xmlns:xlink="http://www.w3.org/1999/xlink"><defs /><rect fill="white" height="60.42972508817911" width="72.78194729238749" x="0" y="0" /><path d="M15.41261501610279, 36.5440995618701 m-0.8166757225990295, -0.8166757225990295 l-3.368787169456482, -0.10208446532487869 -4.1854628920555115, 0.9187601506710052 l-1.1229290813207626, 0.9187601506710052 -0.9187601506710052, 2.7562806010246277 l0.0, 10.412615537643433 1.7354358732700348, 1.9396047294139862 l4.1854628920555115, 0.7145912200212479 3.7771251797676086, 0.0 l2.1437737345695496, -1.5312670171260834 0.7145912200212479, -1.1229290813207626 l1.8375203013420105, -4.389632046222687 0.5104223266243935, -2.65419602394104 l0.0, -2.2458581626415253 -0.7145912200212479, -2.041689306497574 l-1.2250135838985443, -2.1437737345695496 -3.1646183133125305, -2.7562806010246277 m48.38803768157959, 1.2250135838985443 l-2.1437737345695496, 0.7145912200212479 -5.410476326942444, 4.79796975851059 l-1.32709801197052, 1.9396047294139862 0.10208446532487869, 4.593800902366638 l0.7145912200212479, 1.8375203013420105 2.8583648800849915, 3.98129403591156 l2.4500271677970886, 1.8375203013420105 2.041689306497574, 0.10208446532487869 l1.5312670171260834, -1.5312670171260834 2.7562806010246277, -5.206307768821716 l0.9187601506710052, -3.266702890396118 0.10208446532487869, -3.368787169456482 l-0.6125067919492722, -2.5521114468574524 -1.8375203013420105, -3.368787169456482 l-0.5104223266243935, -0.20416893064975739 -0.6125067919492722, 0.20416893064975739 m-3.4708717465400696, 7.96258807182312 l-0.9187601506710052, -0.6125067919492722 m-47.673444747924805, 0.5104223266243935 l-0.20416893064975739, 1.020844653248787 0.6125067919492722, -1.1229290813207626 l2.2458581626415253, -2.1437737345695496 6.737574338912964, -4.389632046222687 l3.368787169456482, -3.8792094588279724 4.4917163252830505, -3.8792094588279724 l5.920898914337158, 3.0625340342521667 2.1437737345695496, 1.4291824400424957 l4.695885181427002, 1.633351445198059 0.6125067919492722, 0.5104223266243935 l13.883486986160278, 3.675040602684021 4.083378612995148, 2.4500271677970886 l-0.3062533959746361, -0.7145912200212479 -2.1437737345695496, -1.1229290813207626 m-38.179588317871094, -11.943882703781128 l16.33351445198059, 0.8166757225990295 17.456443309783936, 0.20416893064975739 l1.633351445198059, -1.5312670171260834 2.5521114468574524, -6.941743493080139 m-1.32709801197052, -5.410476326942444 l-2.1437737345695496, 0.6125067919492722 -0.20416893064975739, 0.7145912200212479 l0.5104223266243935, 1.9396047294139862 0.9187601506710052, 1.32709801197052 l1.7354358732700348, 1.020844653248787 2.960449457168579, -1.2250135838985443 l0.20416893064975739, -0.5104223266243935 0.0, -1.633351445198059 l-0.7145912200212479, -1.2250135838985443 -1.8375203013420105, -1.1229290813207626 l-1.8375203013420105, -0.40833786129951477 m2.041689306497574, 0.20416893064975739 l2.65419602394104, -1.32709801197052 2.1437737345695496, -1.7354358732700348 l2.041689306497574, -3.5729563236236572 m-1.020844653248787, -3.7771251797676086 l-1.1229290813207626, 0.0 " fill="none" stroke="black" stroke-width="1" /></svg>