<?xml version="1.0" encoding="utf-8" ?>
<svg baseProfile="full" height="54.610911533236504" version="1.1" width="81.76537744700909" xmlns="http://www.w3.org/2000/svg" xmlns:ev="http://www.w3.org/2001/xml-events" xmlns:xlink="http://www.w3.org/1999/xlink"><defs /><rect fill="white" height="54.610911533236504" width="81.76537744700909" x="0" y="0" /><path d="M14.391771145164967, 34.706580117344856 m-0.8166757225990295, 0.8166757225990295 l-0.6125067919492722, 1.32709801197052 -0.40833786129951477, 1.9396047294139862 l0.0, 2.5521114468574524 1.32709801197052, 2.5521114468574524 l2.4500271677970886, 2.4500271677970886 3.4708717465400696, 2.041689306497574 l4.083378612995148, 1.2250135838985443 4.083378612995148, 0.0 l3.8792094588279724, -1.7354358732700348 3.266702890396118, -2.7562806010246277 l2.4500271677970886, -3.0625340342521667 1.1229290813207626, -3.1646183133125305 l0.10208446532487869, -3.1646183133125305 -1.633351445198059, -2.960449457168579 l-2.960449457168579, -2.2458581626415253 -3.675040602684021, -1.32709801197052 l-4.083378612995148, -0.5104223266243935 -3.4708717465400696, 0.10208446532487869 l-3.0625340342521667, 1.2250135838985443 -2.347942590713501, 1.8375203013420105 l-1.8375203013420105, 2.8583648800849915 -0.5104223266243935, 1.4291824400424957 m9.391770362854004, -3.1646183133125305 l-1.7354358732700348, -0.20416893064975739 -1.5312670171260834, 0.6125067919492722 l-1.633351445198059, 1.2250135838985443 -1.32709801197052, 1.8375203013420105 l-0.20416893064975739, 2.1437737345695496 0.9187601506710052, 2.4500271677970886 l2.1437737345695496, 2.1437737345695496 2.65419602394104, 1.32709801197052 l2.8583648800849915, 0.20416893064975739 2.7562806010246277, -1.1229290813207626 l2.4500271677970886, -2.347942590713501 1.5312670171260834, -2.65419602394104 l0.7145912200212479, -2.65419602394104 -0.10208446532487869, -2.041689306497574 l-1.5312670171260834, -1.8375203013420105 -2.1437737345695496, -1.020844653248787 l-2.4500271677970886, -0.10208446532487869 -2.4500271677970886, 0.7145912200212479 l-1.7354358732700348, 2.1437737345695496 m38.38375806808472, -2.4500271677970886 l-1.7354358732700348, 0.8166757225990295 -1.7354358732700348, 1.32709801197052 l-1.8375203013420105, 2.2458581626415253 -1.020844653248787, 2.7562806010246277 l-0.20416893064975739, 2.960449457168579 0.40833786129951477, 2.960449457168579 l1.633351445198059, 2.65419602394104 2.1437737345695496, 1.7354358732700348 l2.4500271677970886, 0.5104223266243935 2.960449457168579, -0.40833786129951477 l3.1646183133125305, -1.5312670171260834 3.368787169456482, -2.347942590713501 l2.5521114468574524, -2.7562806010246277 1.7354358732700348, -2.8583648800849915 l0.7145912200212479, -3.0625340342521667 -0.20416893064975739, -3.0625340342521667 l-1.4291824400424957, -2.65419602394104 -2.5521114468574524, -1.8375203013420105 l-3.266702890396118, -0.8166757225990295 -3.368787169456482, -0.10208446532487869 l-3.266702890396118, 1.1229290813207626 -2.960449457168579, 1.9396047294139862 l-2.041689306497574, 2.65419602394104 -0.6125067919492722, 2.5521114468574524 m9.59593951702118, -3.675040602684021 l-2.2458581626415253, 1.7354358732700348 -1.4291824400424957, 1.9396047294139862 l-1.020844653248787, 2.4500271677970886 -0.10208446532487869, 2.347942590713501 l0.6125067919492722, 2.041689306497574 1.8375203013420105, 1.4291824400424957 l2.7562806010246277, 0.20416893064975739 2.5521114468574524, -0.8166757225990295 l2.4500271677970886, -1.9396047294139862 1.633351445198059, -2.2458581626415253 l0.6125067919492722, -2.1437737345695496 -0.40833786129951477, -2.4500271677970886 l-1.8375203013420105, -2.2458581626415253 -2.5521114468574524, -1.5312670171260834 l-2.7562806010246277, -0.5104223266243935 -2.65419602394104, 0.20416893064975739 l-2.65419602394104, 1.4291824400424957 -1.7354358732700348, 1.633351445198059 l-1.020844653248787, 1.7354358732700348 0.0, 1.5312670171260834 m-26.133623123168945, -7.1459126472473145 l-3.675040602684021, -9.800108671188354 -2.65419602394104, -5.002138614654541 l-3.266702890396118, -4.083378612995148 -2.1437737345695496, -1.8375203013420105 l-2.65419602394104, -1.5312670171260834 m-10.9230375289917, 1.1229290813207626 l1.7354358732700348, -0.3062533959746361 16.63976788520813, -0.40833786129951477 m-7.247996926307678, -0.10208446532487869 l0.8166757225990295, -0.40833786129951477 16.94602131843567, -2.7562806010246277 l-2.347942590713501, 1.020844653248787 -6.329236626625061, 1.7354358732700348 l-4.287547469139099, 0.5104223266243935 -3.98129403591156, -0.10208446532487869 l-1.7354358732700348, -0.7145912200212479 -11.943882703781128, 0.20416893064975739 l-0.5104223266243935, -0.20416893064975739 0.7145912200212479, -0.3062533959746361 l1.7354358732700348, -0.20416893064975739 " fill="none" stroke="black" stroke-width="1" /></svg>