<?xml version="1.0" encoding="utf-8" ?>
<svg baseProfile="full" height="35.11277820914984" version="1.1" width="67.16730028390884" xmlns="http://www.w3.org/2000/svg" xmlns:ev="http://www.w3.org/2001/xml-events" xmlns:xlink="http://www.w3.org/1999/xlink"><defs /><rect fill="white" height="35.11277820914984" width="67.16730028390884" x="0" y="0" /><path d="M18.577233478426933, 16.331375651061535 m-1.2250135838985443, -0.3062533959746361 l-5.716729760169983, -0.10208446532487869 -2.4500271677970886, 0.6125067919492722 l-2.2458581626415253, 1.2250135838985443 -1.32709801197052, 1.8375203013420105 l-0.6125067919492722, 3.368787169456482 0.6125067919492722, 2.960449457168579 l1.7354358732700348, 2.7562806010246277 2.4500271677970886, 1.32709801197052 l4.287547469139099, -0.10208446532487869 4.389632046222687, -1.7354358732700348 l2.7562806010246277, -1.8375203013420105 2.1437737345695496, -2.8583648800849915 l0.5104223266243935, -2.347942590713501 0.0, -1.7354358732700348 l-1.1229290813207626, -2.2458581626415253 -1.8375203013420105, -2.2458581626415253 l-2.7562806010246277, -1.5312670171260834 m32.97328233718872, 4.1854628920555115 l-1.9396047294139862, 0.8166757225990295 -1.8375203013420105, 1.8375203013420105 l-1.4291824400424957, 2.1437737345695496 -0.6125067919492722, 2.041689306497574 l0.0, 2.347942590713501 1.32709801197052, 2.1437737345695496 l2.1437737345695496, 1.1229290813207626 1.9396047294139862, 0.10208446532487869 l1.32709801197052, -0.10208446532487869 3.368787169456482, -1.5312670171260834 l2.2458581626415253, -1.5312670171260834 1.7354358732700348, -1.7354358732700348 l2.2458581626415253, -3.675040602684021 0.40833786129951477, -1.32709801197052 l0.10208446532487869, -2.347942590713501 -0.40833786129951477, -0.8166757225990295 l-1.7354358732700348, -1.7354358732700348 -1.4291824400424957, -0.6125067919492722 l-2.347942590713501, -0.40833786129951477 -3.98129403591156, -0.10208446532487869 l-2.5521114468574524, 0.7145912200212479 m-25.112779140472412, 6.329236626625061 l4.593800902366638, -0.6125067919492722 14.802247285842896, -0.3062533959746361 l1.8375203013420105, -0.20416893064975739 0.0, -0.3062533959746361 m2.4500271677970886, -4.389632046222687 l-3.5729563236236572, -3.5729563236236572 -2.65419602394104, -3.8792094588279724 l-4.900054335594177, 0.20416893064975739 9.085517525672913, -2.65419602394104 l0.7145912200212479, -0.5104223266243935 m-23.683595657348633, 12.556389570236206 l2.5521114468574524, -4.4917163252830505 2.1437737345695496, -1.32709801197052 l0.5104223266243935, -0.10208446532487869 0.8166757225990295, 1.1229290813207626 l2.1437737345695496, 0.7145912200212479 11.637629270553589, 0.0 l0.0, 1.1229290813207626 -0.40833786129951477, 0.8166757225990295 l-3.5729563236236572, 4.79796975851059 -0.10208446532487869, 0.9187601506710052 m-5.30839204788208, -6.941743493080139 l-0.20416893064975739, 1.633351445198059 -1.4291824400424957, 4.083378612995148 l-0.10208446532487869, 0.5104223266243935 0.40833786129951477, 0.0 m6.839659214019775, -5.716729760169983 l2.65419602394104, -0.20416893064975739 5.104222893714905, -1.2250135838985443 " fill="none" stroke="black" stroke-width="1" /></svg>