<?xml version="1.0" encoding="utf-8" ?>
<svg baseProfile="full" height="31.539822034537792" version="1.1" width="50.7317016646266" xmlns="http://www.w3.org/2000/svg" xmlns:ev="http://www.w3.org/2001/xml-events" xmlns:xlink="http://www.w3.org/1999/xlink"><defs /><rect fill="white" height="31.539822034537792" width="50.7317016646266" x="0" y="0" /><path d="M21.333515755832195, 11.2271523848176 m-3.266702890396118, -1.32709801197052 l-3.368787169456482, -0.20416893064975739 -2.1437737345695496, 0.8166757225990295 l-2.2458581626415253, 1.32709801197052 -2.041689306497574, 1.8375203013420105 l-1.4291824400424957, 2.041689306497574 -0.9187601506710052, 2.4500271677970886 l-0.10208446532487869, 3.98129403591156 1.1229290813207626, 1.2250135838985443 l1.5312670171260834, 0.9187601506710052 1.9396047294139862, 0.6125067919492722 l3.7771251797676086, 0.20416893064975739 1.9396047294139862, -0.5104223266243935 l3.266702890396118, -3.1646183133125305 1.32709801197052, -3.1646183133125305 l0.20416893064975739, -2.347942590713501 -0.20416893064975739, -1.32709801197052 l-0.8166757225990295, -1.020844653248787 -1.5312670171260834, -0.9187601506710052 l-3.4708717465400696, -1.1229290813207626 -2.2458581626415253, -0.40833786129951477 l-0.10208446532487869, 0.20416893064975739 m27.562804222106934, 4.79796975851059 l-0.10208446532487869, -2.1437737345695496 -1.32709801197052, -0.5104223266243935 l-2.65419602394104, -0.10208446532487869 -1.633351445198059, 0.6125067919492722 l-1.5312670171260834, 1.4291824400424957 -1.32709801197052, 2.2458581626415253 l-0.5104223266243935, 2.4500271677970886 0.0, 2.2458581626415253 l0.5104223266243935, 1.8375203013420105 1.1229290813207626, 1.2250135838985443 l1.7354358732700348, 0.8166757225990295 4.083378612995148, 0.3062533959746361 l2.2458581626415253, -0.20416893064975739 1.9396047294139862, -0.7145912200212479 l1.5312670171260834, -0.8166757225990295 1.020844653248787, -1.1229290813207626 l0.5104223266243935, -2.2458581626415253 -0.5104223266243935, -1.2250135838985443 l-3.0625340342521667, -2.347942590713501 -4.900054335594177, -2.65419602394104 l-2.5521114468574524, -0.6125067919492722 m-23.275258541107178, -1.8375203013420105 l-0.3062533959746361, 1.020844653248787 0.8166757225990295, 4.79796975851059 l0.3062533959746361, 4.695885181427002 0.6125067919492722, 3.1646183133125305 l0.40833786129951477, 0.10208446532487869 m6.329236626625061, -11.943882703781128 l-2.347942590713501, 1.4291824400424957 -8.370925784111023, 3.266702890396118 l-1.8375203013420105, 1.1229290813207626 -1.2250135838985443, 1.2250135838985443 l-0.8166757225990295, 1.4291824400424957 m28.17531108856201, -8.575094938278198 l3.1646183133125305, 2.7562806010246277 1.7354358732700348, 3.1646183133125305 l1.4291824400424957, 4.4917163252830505 0.8166757225990295, 1.32709801197052 m1.633351445198059, -10.514699220657349 l0.10208446532487869, 0.7145912200212479 -0.5104223266243935, 1.1229290813207626 l-6.533405780792236, 6.839659214019775 -0.7145912200212479, 1.8375203013420105 m-19.089794158935547, -12.556389570236206 l1.020844653248787, -0.9187601506710052 4.389632046222687, -5.716729760169983 l1.2250135838985443, -0.9187601506710052 m17.048105001449585, 9.698023796081543 l-1.2250135838985443, -0.40833786129951477 0.10208446532487869, -5.002138614654541 l-1.32709801197052, -5.410476326942444 " fill="none" stroke="black" stroke-width="1" /></svg>