<?xml version="1.0" encoding="utf-8" ?>
<svg baseProfile="full" height="39.70657926052809" version="1.1" width="51.650460846722126" xmlns="http://www.w3.org/2000/svg" xmlns:ev="http://www.w3.org/2001/xml-events" xmlns:xlink="http://www.w3.org/1999/xlink"><defs /><rect fill="white" height="39.70657926052809" width="51.650460846722126" x="0" y="0" /><path d="M11.227152273058891, 17.55638897418976 m-3.4708717465400696, 1.1229290813207626 l-1.32709801197052, 1.2250135838985443 -1.020844653248787, 2.4500271677970886 l-0.40833786129951477, 3.98129403591156 0.7145912200212479, 1.5312670171260834 l2.041689306497574, 1.8375203013420105 2.8583648800849915, 1.2250135838985443 l3.0625340342521667, 0.3062533959746361 0.7145912200212479, -0.40833786129951477 l1.020844653248787, -2.2458581626415253 0.20416893064975739, -5.716729760169983 l-1.2250135838985443, -3.98129403591156 -1.1229290813207626, -1.7354358732700348 l-0.6125067919492722, 0.0 m28.379480838775635, 1.8375203013420105 l-3.266702890396118, 0.6125067919492722 -2.7562806010246277, 1.020844653248787 l-5.920898914337158, 3.266702890396118 -2.65419602394104, 2.4500271677970886 l-0.7145912200212479, 1.1229290813207626 -0.40833786129951477, 2.041689306497574 l0.3062533959746361, 1.32709801197052 0.9187601506710052, 1.1229290813207626 l2.041689306497574, 1.1229290813207626 3.1646183133125305, 1.020844653248787 l6.227152347564697, 0.6125067919492722 2.65419602394104, 0.0 l0.9187601506710052, -0.3062533959746361 1.2250135838985443, -1.020844653248787 l1.7354358732700348, -3.1646183133125305 0.6125067919492722, -2.960449457168579 l0.0, -2.347942590713501 -0.6125067919492722, -2.2458581626415253 l-1.020844653248787, -1.8375203013420105 -1.5312670171260834, -1.2250135838985443 l-0.6125067919492722, 0.0 m-33.5857892036438, -3.0625340342521667 l3.266702890396118, -0.20416893064975739 23.377342224121094, 0.20416893064975739 l12.250136137008667, 0.9187601506710052 m-23.17317247390747, 0.6125067919492722 l-1.633351445198059, 0.0 -0.3062533959746361, 0.5104223266243935 l-0.40833786129951477, 1.1229290813207626 -0.20416893064975739, 3.1646183133125305 l0.6125067919492722, 2.5521114468574524 0.8166757225990295, 1.020844653248787 l1.4291824400424957, 0.6125067919492722 1.2250135838985443, 0.0 l1.020844653248787, -0.5104223266243935 0.0, -4.287547469139099 l-1.5312670171260834, -2.7562806010246277 -1.1229290813207626, -1.020844653248787 l-2.041689306497574, -0.8166757225990295 m-7.758418917655945, -3.0625340342521667 l-0.9187601506710052, -7.247996926307678 m-6.941743493080139, -2.347942590713501 l1.2250135838985443, 0.3062533959746361 " fill="none" stroke="black" stroke-width="1" /></svg>