<?xml version="1.0" encoding="utf-8" ?>
<svg baseProfile="full" height="34.704440236091614" version="1.1" width="51.3442075625062" xmlns="http://www.w3.org/2000/svg" xmlns:ev="http://www.w3.org/2001/xml-events" xmlns:xlink="http://www.w3.org/1999/xlink"><defs /><rect fill="white" height="34.704440236091614" width="51.3442075625062" x="0" y="0" /><path d="M14.698024094104767, 15.1063621789217 m-1.5312670171260834, 0.20416893064975739 l-4.1854628920555115, 2.1437737345695496 -1.5312670171260834, 1.1229290813207626 l-1.633351445198059, 2.5521114468574524 -0.6125067919492722, 1.633351445198059 l-0.20416893064975739, 3.368787169456482 0.40833786129951477, 1.020844653248787 l1.020844653248787, 0.8166757225990295 3.1646183133125305, 1.1229290813207626 l7.656334638595581, 0.6125067919492722 3.7771251797676086, -1.1229290813207626 l1.8375203013420105, -1.8375203013420105 0.5104223266243935, -1.5312670171260834 l0.10208446532487869, -2.4500271677970886 -0.7145912200212479, -1.5312670171260834 l-3.4708717465400696, -4.695885181427002 -1.5312670171260834, -1.1229290813207626 l-2.65419602394104, -1.1229290813207626 m19.804385900497437, 3.1646183133125305 l1.5312670171260834, -0.3062533959746361 3.8792094588279724, 0.10208446532487869 l3.266702890396118, 0.7145912200212479 1.5312670171260834, 0.8166757225990295 l0.7145912200212479, 1.020844653248787 0.5104223266243935, 1.633351445198059 l0.0, 1.7354358732700348 -0.7145912200212479, 1.633351445198059 l-1.4291824400424957, 1.2250135838985443 -1.5312670171260834, 0.7145912200212479 l-1.7354358732700348, 0.40833786129951477 -2.2458581626415253, -0.10208446532487869 l-1.5312670171260834, -1.020844653248787 -0.9187601506710052, -1.1229290813207626 l-1.5312670171260834, -2.960449457168579 -0.9187601506710052, -3.675040602684021 l0.40833786129951477, -1.4291824400424957 m0.6125067919492722, 2.8583648800849915 l-1.5312670171260834, 0.7145912200212479 -2.65419602394104, 0.5104223266243935 l-7.860503792762756, 0.10208446532487869 m0.5104223266243935, -0.40833786129951477 l0.8166757225990295, -4.79796975851059 1.633351445198059, -4.593800902366638 l1.1229290813207626, 0.10208446532487869 3.368787169456482, 1.633351445198059 l2.1437737345695496, 1.8375203013420105 0.9187601506710052, 1.5312670171260834 l0.6125067919492722, 3.4708717465400696 m0.40833786129951477, -0.40833786129951477 l0.20416893064975739, -8.881348371505737 0.5104223266243935, -4.900054335594177 m-0.10208446532487869, 0.0 l-2.5521114468574524, 0.40833786129951477 2.347942590713501, 0.0 l4.79796975851059, -1.020844653248787 -2.960449457168579, 0.8166757225990295 l-6.227152347564697, 0.8166757225990295 m-5.002138614654541, 4.083378612995148 l-4.900054335594177, 0.20416893064975739 1.7354358732700348, -0.8166757225990295 l3.7771251797676086, -0.7145912200212479 -0.10208446532487869, -0.5104223266243935 l-1.1229290813207626, -0.40833786129951477 -2.041689306497574, 0.0 " fill="none" stroke="black" stroke-width="1" /></svg>