<?xml version="1.0" encoding="utf-8" ?>
<svg baseProfile="full" height="30.621061511337757" version="1.1" width="59.40888077020645" xmlns="http://www.w3.org/2000/svg" xmlns:ev="http://www.w3.org/2001/xml-events" xmlns:xlink="http://www.w3.org/1999/xlink"><defs /><rect fill="white" height="30.621061511337757" width="59.40888077020645" x="0" y="0" /><path d="M14.595939703285694, 14.698024205863476 m-0.5104223266243935, -0.5104223266243935 l-3.0625340342521667, -0.8166757225990295 -3.98129403591156, -0.10208446532487869 l-1.633351445198059, 2.65419602394104 -0.40833786129951477, 4.1854628920555115 l1.32709801197052, 1.7354358732700348 1.1229290813207626, 0.7145912200212479 l3.4708717465400696, 1.2250135838985443 4.1854628920555115, 0.7145912200212479 l1.4291824400424957, 0.0 1.7354358732700348, -0.7145912200212479 l0.5104223266243935, -1.1229290813207626 0.0, -1.7354358732700348 l-0.9187601506710052, -1.8375203013420105 -1.32709801197052, -1.633351445198059 l-2.5521114468574524, -1.2250135838985443 m37.056660652160645, 1.2250135838985443 l-1.32709801197052, -0.40833786129951477 -4.1854628920555115, 0.0 l-2.7562806010246277, 0.6125067919492722 -1.9396047294139862, 1.4291824400424957 l-0.3062533959746361, 0.8166757225990295 0.10208446532487869, 3.675040602684021 l1.4291824400424957, 1.1229290813207626 4.4917163252830505, 0.9187601506710052 l2.960449457168579, 0.0 2.1437737345695496, -1.020844653248787 l2.4500271677970886, -3.0625340342521667 0.3062533959746361, -1.7354358732700348 l-0.8166757225990295, -1.633351445198059 -2.960449457168579, -2.4500271677970886 m-33.5857892036438, -0.20416893064975739 l3.368787169456482, 0.40833786129951477 7.656334638595581, 0.0 l5.30839204788208, -2.5521114468574524 2.960449457168579, -2.8583648800849915 l0.6125067919492722, -1.2250135838985443 0.40833786129951477, 2.5521114468574524 l1.4291824400424957, 2.65419602394104 3.368787169456482, 3.5729563236236572 l1.32709801197052, 0.9187601506710052 0.3062533959746361, -0.40833786129951477 m-7.247996926307678, -9.698023796081543 l-3.98129403591156, -1.32709801197052 -0.9187601506710052, -1.020844653248787 l0.3062533959746361, -1.020844653248787 1.7354358732700348, -0.40833786129951477 l3.4708717465400696, -0.10208446532487869 1.9396047294139862, 0.6125067919492722 l1.020844653248787, 0.8166757225990295 -0.8166757225990295, 0.7145912200212479 l-3.4708717465400696, 0.7145912200212479 " fill="none" stroke="black" stroke-width="1" /></svg>