<?xml version="1.0" encoding="utf-8" ?>
<svg baseProfile="full" height="35.62320053577423" version="1.1" width="38.277397118508816" xmlns="http://www.w3.org/2000/svg" xmlns:ev="http://www.w3.org/2001/xml-events" xmlns:xlink="http://www.w3.org/1999/xlink"><defs /><rect fill="white" height="35.62320053577423" width="38.277397118508816" x="0" y="0" /><path d="M7.960449531674385, 20.108500868082047 m-1.5312670171260834, -0.10208446532487869 l-1.020844653248787, 0.8166757225990295 -0.40833786129951477, 1.32709801197052 l0.10208446532487869, 3.7771251797676086 0.8166757225990295, 1.7354358732700348 l1.8375203013420105, 2.2458581626415253 1.020844653248787, 0.0 l1.2250135838985443, -2.041689306497574 0.40833786129951477, -1.020844653248787 l0.10208446532487869, -2.041689306497574 -0.20416893064975739, -4.4917163252830505 l-0.7145912200212479, -2.7562806010246277 -0.7145912200212479, 0.9187601506710052 m20.825231075286865, 5.818814635276794 l-0.7145912200212479, -1.5312670171260834 -2.041689306497574, -1.5312670171260834 l-3.4708717465400696, 0.20416893064975739 -1.9396047294139862, 1.8375203013420105 l-0.40833786129951477, 0.9187601506710052 -0.40833786129951477, 2.1437737345695496 l0.0, 3.266702890396118 0.8166757225990295, 0.9187601506710052 l0.5104223266243935, 0.10208446532487869 8.881348371505737, 0.0 l1.2250135838985443, -0.8166757225990295 1.1229290813207626, -1.9396047294139862 l-0.3062533959746361, -3.0625340342521667 -1.020844653248787, -1.8375203013420105 l-1.5312670171260834, -1.4291824400424957 -0.5104223266243935, -0.40833786129951477 l-0.9187601506710052, 0.40833786129951477 m-2.4500271677970886, 2.960449457168579 l-0.20416893064975739, -11.841797828674316 0.5104223266243935, -1.2250135838985443 m-0.10208446532487869, 0.0 l-1.2250135838985443, -1.5312670171260834 -0.5104223266243935, -4.083378612995148 l-0.5104223266243935, -0.8166757225990295 m2.8583648800849915, 5.512561202049255 l1.1229290813207626, 0.6125067919492722 4.1854628920555115, 0.10208446532487869 m-6.533405780792236, 2.1437737345695496 l-9.698023796081543, 0.0 -9.28968608379364, -1.020844653248787 l-0.40833786129951477, 0.5104223266243935 0.7145912200212479, 1.8375203013420105 l0.40833786129951477, 2.347942590713501 0.20416893064975739, 6.6354900598526 " fill="none" stroke="black" stroke-width="1" /></svg>