<?xml version="1.0" encoding="utf-8" ?>
<svg baseProfile="full" height="39.60449427366257" version="1.1" width="67.06521436572075" xmlns="http://www.w3.org/2000/svg" xmlns:ev="http://www.w3.org/2001/xml-events" xmlns:xlink="http://www.w3.org/1999/xlink"><defs /><rect fill="white" height="39.60449427366257" width="67.06521436572075" x="0" y="0" /><path d="M24.906468465924263, 18.67931842803955 m-0.40833786129951477, -0.6125067919492722 l-2.4500271677970886, -1.020844653248787 -4.79796975851059, 0.0 l-2.7562806010246277, 0.8166757225990295 -3.266702890396118, 1.7354358732700348 l-0.6125067919492722, 3.98129403591156 0.0, 3.8792094588279724 l1.32709801197052, 3.0625340342521667 1.2250135838985443, 1.4291824400424957 l3.675040602684021, 1.8375203013420105 4.1854628920555115, 0.20416893064975739 l3.4708717465400696, -1.2250135838985443 1.32709801197052, -1.7354358732700348 l1.633351445198059, -3.7771251797676086 -0.10208446532487869, -4.083378612995148 l-0.8166757225990295, -1.9396047294139862 -1.9396047294139862, -2.7562806010246277 l-0.8166757225990295, -0.6125067919492722 m-2.8583648800849915, 4.900054335594177 l0.7145912200212479, -4.900054335594177 m-0.8166757225990295, 4.4917163252830505 l0.0, 6.533405780792236 -0.40833786129951477, 5.716729760169983 l-0.40833786129951477, -0.7145912200212479 m0.40833786129951477, -9.28968608379364 l-1.5312670171260834, 0.20416893064975739 -3.368787169456482, -0.6125067919492722 l-2.8583648800849915, -0.10208446532487869 m7.350081205368042, 0.40833786129951477 l3.7771251797676086, 0.9187601506710052 4.593800902366638, 0.0 l1.020844653248787, -0.40833786129951477 m24.194018840789795, -3.675040602684021 l-0.5104223266243935, -0.40833786129951477 -3.0625340342521667, -0.20416893064975739 l-2.5521114468574524, 1.4291824400424957 -1.2250135838985443, 1.8375203013420105 l-0.7145912200212479, 1.8375203013420105 -0.20416893064975739, 2.4500271677970886 l0.5104223266243935, 2.041689306497574 1.1229290813207626, 1.5312670171260834 l1.633351445198059, 0.8166757225990295 4.083378612995148, 0.10208446532487869 l1.633351445198059, -0.6125067919492722 0.8166757225990295, -1.2250135838985443 l0.40833786129951477, -2.2458581626415253 -0.40833786129951477, -4.900054335594177 l-0.40833786129951477, -1.2250135838985443 -0.8166757225990295, -1.020844653248787 l-0.6125067919492722, -0.6125067919492722 -1.32709801197052, -0.5104223266243935 m-0.7145912200212479, 0.8166757225990295 l-0.20416893064975739, 8.26884150505066 -0.3062533959746361, 0.6125067919492722 l0.0, 2.8583648800849915 0.3062533959746361, 1.2250135838985443 l-0.40833786129951477, -0.8166757225990295 m-4.083378612995148, -6.941743493080139 l0.5104223266243935, -0.3062533959746361 1.5312670171260834, 0.0 l3.4708717465400696, 0.5104223266243935 2.347942590713501, 0.0 m-49.40887928009033, -2.041689306497574 l0.0, -4.083378612995148 0.3062533959746361, -1.2250135838985443 l0.8166757225990295, -1.2250135838985443 1.2250135838985443, -0.8166757225990295 l2.5521114468574524, -0.8166757225990295 3.98129403591156, -0.40833786129951477 l6.6354900598526, 0.0 6.022983193397522, -1.020844653248787 l1.8375203013420105, 0.0 2.65419602394104, 1.32709801197052 l0.8166757225990295, 1.1229290813207626 0.5104223266243935, 2.1437737345695496 l-0.40833786129951477, 3.5729563236236572 0.3062533959746361, 0.6125067919492722 l2.5521114468574524, 1.2250135838985443 1.7354358732700348, 0.3062533959746361 l1.8375203013420105, -0.3062533959746361 5.512561202049255, -2.5521114468574524 l0.40833786129951477, -0.7145912200212479 3.8792094588279724, -2.8583648800849915 l3.7771251797676086, -1.633351445198059 2.1437737345695496, -0.20416893064975739 l1.633351445198059, 0.40833786129951477 0.6125067919492722, 0.5104223266243935 l2.8583648800849915, 4.4917163252830505 2.5521114468574524, 2.1437737345695496 l0.3062533959746361, 0.6125067919492722 -0.6125067919492722, 0.40833786129951477 l-0.6125067919492722, -0.20416893064975739 m-8.166757225990295, -8.779264092445374 l0.10208446532487869, -5.104222893714905 0.3062533959746361, -1.2250135838985443 l-0.3062533959746361, -5.30839204788208 m-3.368787169456482, 2.65419602394104 l9.391770362854004, 0.9187601506710052 " fill="none" stroke="black" stroke-width="1" /></svg>