<?xml version="1.0" encoding="utf-8" ?>
<svg baseProfile="full" height="22.86264307796955" version="1.1" width="55.42758651077747" xmlns="http://www.w3.org/2000/svg" xmlns:ev="http://www.w3.org/2001/xml-events" xmlns:xlink="http://www.w3.org/1999/xlink"><defs /><rect fill="white" height="22.86264307796955" width="55.42758651077747" x="0" y="0" /><path d="M12.55425039678812, 7.45002806186676 m-0.3062533959746361, -0.6125067919492722 l-1.7354358732700348, -0.10208446532487869 -2.4500271677970886, 0.9187601506710052 l-2.041689306497574, 2.2458581626415253 -1.020844653248787, 2.347942590713501 l0.20416893064975739, 1.9396047294139862 1.4291824400424957, 1.8375203013420105 l2.041689306497574, 1.32709801197052 2.65419602394104, 0.5104223266243935 l3.1646183133125305, -0.8166757225990295 2.2458581626415253, -1.1229290813207626 l1.5312670171260834, -1.9396047294139862 0.3062533959746361, -1.5312670171260834 l-0.20416893064975739, -1.4291824400424957 -1.020844653248787, -1.32709801197052 l-2.1437737345695496, -1.7354358732700348 -1.9396047294139862, -0.5104223266243935 m2.960449457168579, 0.10208446532487869 l-0.7145912200212479, 1.32709801197052 -5.920898914337158, 5.410476326942444 m-2.65419602394104, -5.512561202049255 l3.266702890396118, 1.9396047294139862 2.4500271677970886, 1.9396047294139862 l0.8166757225990295, 1.1229290813207626 0.6125067919492722, 0.10208446532487869 m3.8792094588279724, -1.5312670171260834 l-1.2250135838985443, -0.5104223266243935 -3.0625340342521667, -0.40833786129951477 l-7.043827772140503, 0.40833786129951477 m5.716729760169983, -4.389632046222687 l3.5729563236236572, -0.8166757225990295 4.900054335594177, -0.3062533959746361 l6.839659214019775, 0.40833786129951477 4.593800902366638, -0.20416893064975739 l4.79796975851059, -0.7145912200212479 7.350081205368042, -0.20416893064975739 m1.5312670171260834, 0.3062533959746361 l-0.6125067919492722, -0.3062533959746361 -1.5312670171260834, 0.3062533959746361 l-2.347942590713501, 1.633351445198059 -1.32709801197052, 1.633351445198059 l-0.6125067919492722, 2.1437737345695496 0.3062533959746361, 1.2250135838985443 l0.6125067919492722, 0.8166757225990295 1.2250135838985443, 0.7145912200212479 l2.65419602394104, 0.0 4.083378612995148, -1.4291824400424957 l1.633351445198059, -1.4291824400424957 0.40833786129951477, -1.32709801197052 l-0.6125067919492722, -1.5312670171260834 -3.0625340342521667, -2.7562806010246277 l-1.2250135838985443, -0.6125067919492722 -0.5104223266243935, 0.10208446532487869 m4.389632046222687, 2.1437737345695496 l-1.2250135838985443, 0.3062533959746361 -1.2250135838985443, 0.8166757225990295 l-6.1250680685043335, 5.512561202049255 m1.4291824400424957, -5.920898914337158 l2.2458581626415253, 1.8375203013420105 4.79796975851059, 3.0625340342521667 " fill="none" stroke="black" stroke-width="1" /></svg>