<?xml version="1.0" encoding="utf-8" ?>
<svg baseProfile="full" height="49.81294106692076" version="1.1" width="61.14431481808424" xmlns="http://www.w3.org/2000/svg" xmlns:ev="http://www.w3.org/2001/xml-events" xmlns:xlink="http://www.w3.org/1999/xlink"><defs /><rect fill="white" height="49.81294106692076" width="61.14431481808424" x="0" y="0" /><path d="M11.737574562430382, 43.179589956998825 m-1.2250135838985443, -0.10208446532487869 l-1.4291824400424957, -0.7145912200212479 -2.65419602394104, -2.4500271677970886 l-1.020844653248787, -2.4500271677970886 -0.40833786129951477, -3.4708717465400696 l0.0, -2.7562806010246277 0.6125067919492722, -1.633351445198059 l2.347942590713501, -2.8583648800849915 2.2458581626415253, -1.1229290813207626 l5.410476326942444, -0.20416893064975739 3.4708717465400696, 1.2250135838985443 l1.32709801197052, 0.9187601506710052 1.8375203013420105, 2.347942590713501 l0.8166757225990295, 2.8583648800849915 0.20416893064975739, 2.041689306497574 l-0.5104223266243935, 1.633351445198059 -3.368787169456482, 5.002138614654541 l-0.7145912200212479, 0.9187601506710052 -2.347942590713501, 1.7354358732700348 l-3.7771251797676086, 0.7145912200212479 -3.1646183133125305, 0.0 l-0.40833786129951477, -1.1229290813207626 m36.95457458496094, -2.347942590713501 l-2.4500271677970886, 0.0 -3.98129403591156, -1.2250135838985443 l-1.7354358732700348, -0.9187601506710052 -1.020844653248787, -1.2250135838985443 l-0.3062533959746361, -4.083378612995148 0.10208446532487869, -2.65419602394104 l1.633351445198059, -2.960449457168579 2.347942590713501, -2.5521114468574524 l1.5312670171260834, -1.1229290813207626 4.389632046222687, -2.041689306497574 l2.5521114468574524, 0.20416893064975739 5.614645481109619, 6.329236626625061 l1.1229290813207626, 1.5312670171260834 0.40833786129951477, 4.083378612995148 l-1.32709801197052, 2.65419602394104 -2.4500271677970886, 2.5521114468574524 l-1.5312670171260834, 1.1229290813207626 -2.2458581626415253, 0.9187601506710052 l-3.368787169456482, 0.6125067919492722 -2.2458581626415253, 0.20416893064975739 l-0.10208446532487869, -0.5104223266243935 m5.512561202049255, -10.412615537643433 l-6.737574338912964, -1.5312670171260834 -9.391770362854004, -0.3062533959746361 l-6.227152347564697, 0.0 -4.4917163252830505, 0.6125067919492722 l-5.410476326942444, 1.32709801197052 -0.3062533959746361, -0.5104223266243935 l5.30839204788208, -3.368787169456482 5.716729760169983, -1.8375203013420105 l6.227152347564697, -1.32709801197052 8.677179217338562, -1.32709801197052 l6.022983193397522, -0.3062533959746361 0.20416893064975739, -0.7145912200212479 l-0.3062533959746361, -2.65419602394104 0.0, -11.535544395446777 m-14.802247285842896, 17.660611867904663 l-1.8375203013420105, -4.287547469139099 -0.5104223266243935, -4.4917163252830505 l0.0, -4.593800902366638 m0.7145912200212479, 0.10208446532487869 l-5.716729760169983, -0.20416893064975739 -0.9187601506710052, -0.20416893064975739 l0.8166757225990295, -0.3062533959746361 5.614645481109619, -0.8166757225990295 l3.98129403591156, 0.3062533959746361 m11.739712953567505, -2.5521114468574524 l-0.40833786129951477, -1.8375203013420105 -0.7145912200212479, -0.8166757225990295 l-3.368787169456482, -1.32709801197052 " fill="none" stroke="black" stroke-width="1" /></svg>