<?xml version="1.0" encoding="utf-8" ?>
<svg baseProfile="full" height="43.07536594569683" version="1.1" width="59.91930279880762" xmlns="http://www.w3.org/2000/svg" xmlns:ev="http://www.w3.org/2001/xml-events" xmlns:xlink="http://www.w3.org/1999/xlink"><defs /><rect fill="white" height="43.07536594569683" width="59.91930279880762" x="0" y="0" /><path d="M20.925176441669464, 26.02940008044243 m-2.347942590713501, -1.1229290813207626 l-6.227152347564697, -1.5312670171260834 -2.960449457168579, 0.0 l-2.8583648800849915, 1.2250135838985443 -0.40833786129951477, 1.020844653248787 l0.0, 3.8792094588279724 1.020844653248787, 2.65419602394104 l1.1229290813207626, 1.1229290813207626 2.4500271677970886, 1.5312670171260834 l3.5729563236236572, 0.9187601506710052 2.960449457168579, -0.10208446532487869 l1.4291824400424957, -0.7145912200212479 1.8375203013420105, -2.8583648800849915 l1.020844653248787, -2.347942590713501 0.20416893064975739, -2.041689306497574 l-0.3062533959746361, -1.2250135838985443 -0.6125067919492722, -0.20416893064975739 l-0.3062533959746361, 0.20416893064975739 m-8.370925784111023, 6.227152347564697 l0.8166757225990295, -1.4291824400424957 0.5104223266243935, -3.0625340342521667 l0.3062533959746361, -6.022983193397522 m-6.1250680685043335, 1.8375203013420105 l7.350081205368042, 5.104222893714905 0.6125067919492722, 1.020844653248787 l2.65419602394104, 1.9396047294139862 4.79796975851059, 1.4291824400424957 l1.9396047294139862, 0.0 m-8.370925784111023, -9.187601804733276 l-1.1229290813207626, 2.8583648800849915 -1.5312670171260834, 1.2250135838985443 l-5.512561202049255, 2.8583648800849915 -1.7354358732700348, 0.5104223266243935 l-1.7354358732700348, -1.633351445198059 m10.310530662536621, -5.818814635276794 l0.10208446532487869, 7.96258807182312 1.32709801197052, 2.7562806010246277 l0.8166757225990295, 1.2250135838985443 1.633351445198059, 1.4291824400424957 l1.2250135838985443, 0.40833786129951477 1.1229290813207626, -0.10208446532487869 l1.4291824400424957, -0.7145912200212479 m28.073227405548096, -12.250136137008667 l-1.9396047294139862, -0.8166757225990295 -4.79796975851059, -0.9187601506710052 l-2.5521114468574524, 0.10208446532487869 -1.020844653248787, 0.5104223266243935 l-3.8792094588279724, 6.1250680685043335 -0.40833786129951477, 0.9187601506710052 l-0.10208446532487869, 2.1437737345695496 1.4291824400424957, 0.3062533959746361 l7.96258807182312, -1.7354358732700348 1.8375203013420105, -0.7145912200212479 l3.368787169456482, -2.1437737345695496 0.9187601506710052, -1.4291824400424957 l0.3062533959746361, -2.4500271677970886 -0.8166757225990295, -1.633351445198059 l-0.20416893064975739, -1.4291824400424957 -0.7145912200212479, 0.0 l-0.5104223266243935, 0.7145912200212479 m-7.043827772140503, 2.1437737345695496 l-4.1854628920555115, 5.512561202049255 -1.633351445198059, 3.5729563236236572 l1.32709801197052, -4.083378612995148 m2.8583648800849915, -2.041689306497574 l1.2250135838985443, 0.20416893064975739 1.9396047294139862, -0.20416893064975739 l5.512561202049255, -2.1437737345695496 1.1229290813207626, -0.7145912200212479 m-3.5729563236236572, -1.9396047294139862 l-1.2250135838985443, 0.6125067919492722 -1.9396047294139862, 1.633351445198059 l-1.8375203013420105, 2.1437737345695496 -0.7145912200212479, 2.1437737345695496 l-0.10208446532487869, 1.32709801197052 0.40833786129951477, 1.020844653248787 l0.7145912200212479, 0.0 m3.266702890396118, -9.59593951702118 l0.20416893064975739, -2.8583648800849915 -0.3062533959746361, -3.1646183133125305 l-0.5104223266243935, -1.7354358732700348 0.0, -1.7354358732700348 l0.7145912200212479, -0.6125067919492722 4.593800902366638, -1.5312670171260834 l1.2250135838985443, -0.7145912200212479 0.7145912200212479, -0.7145912200212479 l2.2458581626415253, -4.083378612995148 m-9.902192950248718, 7.4521660804748535 " fill="none" stroke="black" stroke-width="1" /></svg>