<?xml version="1.0" encoding="utf-8" ?>
<svg baseProfile="full" height="26.12934548407793" version="1.1" width="33.88776432722807" xmlns="http://www.w3.org/2000/svg" xmlns:ev="http://www.w3.org/2001/xml-events" xmlns:xlink="http://www.w3.org/1999/xlink"><defs /><rect fill="white" height="26.12934548407793" width="33.88776432722807" x="0" y="0" /><path d="M23.579372502863407, 5 m0.7145912200212479, 3.0625340342521667 l0.5104223266243935, 4.593800902366638 m-0.7145912200212479, 0.0 l-15.414754152297974, 0.5104223266243935 m-1.32709801197052, -0.20416893064975739 l-1.020844653248787, 0.20416893064975739 -0.9187601506710052, 1.020844653248787 l-0.40833786129951477, 1.1229290813207626 0.0, 1.633351445198059 l1.1229290813207626, 1.8375203013420105 1.020844653248787, 0.8166757225990295 l3.1646183133125305, 1.5312670171260834 0.8166757225990295, -1.8375203013420105 l-0.3062533959746361, -3.368787169456482 -0.8166757225990295, -1.1229290813207626 l-1.1229290813207626, -0.6125067919492722 -3.368787169456482, -1.020844653248787 m19.19187903404236, -0.20416893064975739 l-0.9187601506710052, 1.4291824400424957 -0.5104223266243935, 1.5312670171260834 l0.3062533959746361, 2.041689306497574 2.347942590713501, 1.4291824400424957 l2.347942590713501, 0.40833786129951477 0.5104223266243935, -1.020844653248787 l0.10208446532487869, -2.347942590713501 -1.020844653248787, -2.4500271677970886 l-1.020844653248787, -1.4291824400424957 -1.5312670171260834, -1.2250135838985443 l-0.6125067919492722, -0.10208446532487869 -0.40833786129951477, 0.40833786129951477 m1.020844653248787, 1.4291824400424957 l0.0, 1.8375203013420105 0.40833786129951477, 1.1229290813207626 l-1.633351445198059, 1.7354358732700348 m2.2458581626415253, -2.041689306497574 l1.9396047294139862, 2.041689306497574 0.6125067919492722, 1.020844653248787 l-0.3062533959746361, 0.0 m-21.948158740997314, -5.512561202049255 l1.9396047294139862, 3.5729563236236572 -1.020844653248787, 0.3062533959746361 l-0.3062533959746361, 0.7145912200212479 m1.7354358732700348, -1.32709801197052 l0.40833786129951477, 0.5104223266243935 " fill="none" stroke="black" stroke-width="1" /></svg>