<?xml version="1.0" encoding="utf-8" ?>
<svg baseProfile="full" height="36.644045412540436" version="1.1" width="59.00054167956114" xmlns="http://www.w3.org/2000/svg" xmlns:ev="http://www.w3.org/2001/xml-events" xmlns:xlink="http://www.w3.org/1999/xlink"><defs /><rect fill="white" height="36.644045412540436" width="59.00054167956114" x="0" y="0" /><path d="M11.125067807734013, 14.289686530828476 m-1.2250135838985443, 0.0 l-1.020844653248787, 1.020844653248787 -1.8375203013420105, 2.4500271677970886 l-0.6125067919492722, 1.4291824400424957 -1.32709801197052, 4.593800902366638 l-0.10208446532487869, 4.083378612995148 0.5104223266243935, 2.347942590713501 l1.5312670171260834, 1.2250135838985443 3.675040602684021, 0.20416893064975739 l0.9187601506710052, -0.10208446532487869 5.002138614654541, -2.5521114468574524 l2.65419602394104, -3.675040602684021 1.2250135838985443, -2.4500271677970886 l0.10208446532487869, -1.633351445198059 -2.041689306497574, -2.4500271677970886 l-2.1437737345695496, -1.020844653248787 -4.287547469139099, -1.020844653248787 l-3.0625340342521667, 0.0 m31.85035228729248, -0.8166757225990295 l-4.695885181427002, 0.10208446532487869 -0.6125067919492722, 0.7145912200212479 l-1.2250135838985443, 3.266702890396118 -0.6125067919492722, 4.083378612995148 l0.3062533959746361, 2.2458581626415253 1.5312670171260834, 2.7562806010246277 l2.041689306497574, 1.1229290813207626 2.8583648800849915, 0.0 l5.104222893714905, -1.1229290813207626 4.695885181427002, -2.7562806010246277 l3.0625340342521667, -3.4708717465400696 0.6125067919492722, -1.5312670171260834 l0.0, -1.2250135838985443 -0.8166757225990295, -1.5312670171260834 l-1.020844653248787, -0.9187601506710052 -1.020844653248787, -0.5104223266243935 l-6.1250680685043335, 0.40833786129951477 m-30.523254871368408, 4.083378612995148 l7.247996926307678, 0.0 0.8166757225990295, 0.40833786129951477 l3.368787169456482, 0.0 1.5312670171260834, 0.40833786129951477 l3.8792094588279724, 0.0 6.022983193397522, 0.6125067919492722 l11.841797828674316, 0.0 m-6.227152347564697, -7.1459126472473145 l-1.633351445198059, 0.0 -6.941743493080139, -3.675040602684021 l-2.8583648800849915, -0.40833786129951477 -1.8375203013420105, -1.020844653248787 l-1.2250135838985443, 0.0 -0.6125067919492722, 1.1229290813207626 l-2.041689306497574, 1.5312670171260834 -3.266702890396118, 3.675040602684021 l-3.266702890396118, 2.041689306497574 -2.041689306497574, 2.1437737345695496 l-2.4500271677970886, 1.1229290813207626 -2.4500271677970886, 0.40833786129951477 m13.883486986160278, -13.67931842803955 l7.554250359535217, -0.40833786129951477 -2.4500271677970886, -3.266702890396118 l-1.32709801197052, -0.5104223266243935 -0.5104223266243935, 0.10208446532487869 l-3.4708717465400696, 3.4708717465400696 " fill="none" stroke="black" stroke-width="1" /></svg>