<?xml version="1.0" encoding="utf-8" ?>
<svg baseProfile="full" height="39.502410255372524" version="1.1" width="43.27953424304724" xmlns="http://www.w3.org/2000/svg" xmlns:ev="http://www.w3.org/2001/xml-events" xmlns:xlink="http://www.w3.org/1999/xlink"><defs /><rect fill="white" height="39.502410255372524" width="43.27953424304724" x="0" y="0" /><path d="M15.514699816703796, 21.843937188386917 m-0.5104223266243935, -1.1229290813207626 l-1.633351445198059, -1.32709801197052 -0.6125067919492722, -0.3062533959746361 l-2.2458581626415253, 0.20416893064975739 -4.083378612995148, 2.5521114468574524 l-1.32709801197052, 2.65419602394104 -0.10208446532487869, 2.041689306497574 l1.2250135838985443, 2.960449457168579 2.1437737345695496, 1.8375203013420105 l1.5312670171260834, 0.40833786129951477 2.65419602394104, 0.10208446532487869 l3.1646183133125305, -1.020844653248787 1.633351445198059, -2.2458581626415253 l0.7145912200212479, -2.7562806010246277 0.0, -3.368787169456482 l-1.8375203013420105, -2.8583648800849915 -0.8166757225990295, -0.3062533959746361 m22.254412174224854, 8.064672350883484 l-5.512561202049255, -2.4500271677970886 -1.2250135838985443, -0.3062533959746361 l-1.32709801197052, 0.3062533959746361 -3.266702890396118, 3.7771251797676086 l-0.5104223266243935, 1.9396047294139862 0.20416893064975739, 1.4291824400424957 l2.1437737345695496, 2.2458581626415253 3.266702890396118, 0.20416893064975739 l2.4500271677970886, -1.020844653248787 1.5312670171260834, -1.32709801197052 l2.4500271677970886, -3.8792094588279724 0.40833786129951477, -1.7354358732700348 l-0.20416893064975739, -1.8375203013420105 -1.5312670171260834, -0.3062533959746361 m-22.458581924438477, -6.533405780792236 l4.083378612995148, 2.1437737345695496 10.20844578742981, 4.1854628920555115 l2.2458581626415253, 1.9396047294139862 m-4.4917163252830505, -3.266702890396118 l2.1437737345695496, -2.1437737345695496 2.960449457168579, -3.8792094588279724 m0.0, 0.0 l-1.1229290813207626, -0.6125067919492722 -0.7145912200212479, -1.5312670171260834 l0.5104223266243935, -0.5104223266243935 1.1229290813207626, 0.10208446532487869 l0.7145912200212479, 1.020844653248787 1.020844653248787, 2.65419602394104 l-1.020844653248787, -0.3062533959746361 -1.5312670171260834, -1.5312670171260834 m-2.347942590713501, 3.675040602684021 l-2.4500271677970886, -1.9396047294139862 -6.022983193397522, -3.0625340342521667 l-1.1229290813207626, -2.65419602394104 -0.5104223266243935, 0.5104223266243935 l-2.041689306497574, 5.614645481109619 4.287547469139099, -11.535544395446777 l0.3062533959746361, -1.7354358732700348 0.5104223266243935, 0.40833786129951477 " fill="none" stroke="black" stroke-width="1" /></svg>