<?xml version="1.0" encoding="utf-8" ?>
<svg baseProfile="full" height="26.333514042198658" version="1.1" width="35.52111577242613" xmlns="http://www.w3.org/2000/svg" xmlns:ev="http://www.w3.org/2001/xml-events" xmlns:xlink="http://www.w3.org/1999/xlink"><defs /><rect fill="white" height="26.333514042198658" width="35.52111577242613" x="0" y="0" /><path d="M25.518977157771587, 19.598078168928623 m-1.32709801197052, 0.20416893064975739 l-1.7354358732700348, -0.40833786129951477 -1.633351445198059, -2.4500271677970886 l-0.3062533959746361, -1.2250135838985443 0.10208446532487869, -1.8375203013420105 l0.9187601506710052, -1.633351445198059 1.32709801197052, -0.7145912200212479 l2.1437737345695496, -0.40833786129951477 2.8583648800849915, 0.20416893064975739 l1.633351445198059, 1.8375203013420105 1.020844653248787, 2.4500271677970886 l-0.40833786129951477, 1.1229290813207626 -1.7354358732700348, 1.7354358732700348 l-2.1437737345695496, 1.1229290813207626 -1.32709801197052, 0.20416893064975739 m-15.92517614364624, 1.5312670171260834 l-1.633351445198059, -0.20416893064975739 -1.633351445198059, -1.32709801197052 l-0.6125067919492722, -1.4291824400424957 -0.10208446532487869, -1.9396047294139862 l1.1229290813207626, -2.1437737345695496 1.1229290813207626, -0.5104223266243935 l2.347942590713501, 0.0 1.1229290813207626, 0.40833786129951477 l2.2458581626415253, 2.041689306497574 0.10208446532487869, 2.4500271677970886 l-1.7354358732700348, 2.041689306497574 -1.020844653248787, 0.40833786129951477 l-1.9396047294139862, -0.20416893064975739 -1.633351445198059, -0.7145912200212479 m16.435598134994507, -9.493855237960815 l0.10208446532487869, -1.8375203013420105 -0.40833786129951477, -2.041689306497574 m-2.65419602394104, -1.633351445198059 l1.5312670171260834, 1.020844653248787 2.1437737345695496, 0.10208446532487869 l0.5104223266243935, -0.5104223266243935 0.20416893064975739, -0.8166757225990295 m-1.633351445198059, 3.0625340342521667 l-1.4291824400424957, 0.6125067919492722 -2.5521114468574524, 0.40833786129951477 l-5.920898914337158, 0.40833786129951477 -2.347942590713501, 3.675040602684021 m2.2458581626415253, 2.7562806010246277 l3.1646183133125305, -2.347942590713501 2.2458581626415253, -0.10208446532487869 l1.633351445198059, 0.6125067919492722 m-2.8583648800849915, -0.8166757225990295 l-0.9187601506710052, -1.633351445198059 -0.3062533959746361, -1.8375203013420105 m-3.0625340342521667, 0.0 l-1.5312670171260834, -0.10208446532487869 -0.5104223266243935, -0.40833786129951477 l-0.9187601506710052, -1.2250135838985443 -0.5104223266243935, -1.8375203013420105 " fill="none" stroke="black" stroke-width="1" /></svg>