<?xml version="1.0" encoding="utf-8" ?>
<svg baseProfile="full" height="40.72742335498333" version="1.1" width="58.59220579266548" xmlns="http://www.w3.org/2000/svg" xmlns:ev="http://www.w3.org/2001/xml-events" xmlns:xlink="http://www.w3.org/1999/xlink"><defs /><rect fill="white" height="40.72742335498333" width="58.59220579266548" x="0" y="0" /><path d="M8.470871821045876, 23.5793724283576 m-2.041689306497574, 1.32709801197052 l-1.020844653248787, 1.1229290813207626 -0.40833786129951477, 1.1229290813207626 l0.10208446532487869, 1.2250135838985443 1.32709801197052, 2.5521114468574524 l1.2250135838985443, 0.8166757225990295 2.1437737345695496, 0.7145912200212479 l5.920898914337158, 0.3062533959746361 4.1854628920555115, -1.633351445198059 l1.2250135838985443, -1.4291824400424957 1.8375203013420105, -3.4708717465400696 l0.3062533959746361, -1.2250135838985443 -0.20416893064975739, -1.9396047294139862 l-1.32709801197052, -1.8375203013420105 -1.2250135838985443, -0.7145912200212479 l-1.8375203013420105, -0.6125067919492722 -3.7771251797676086, -0.5104223266243935 l-3.1646183133125305, 0.20416893064975739 -2.65419602394104, 0.9187601506710052 l-2.4500271677970886, 2.5521114468574524 m34.19829607009888, -0.7145912200212479 l-1.8375203013420105, 0.40833786129951477 -1.633351445198059, 1.2250135838985443 l-2.5521114468574524, 3.368787169456482 -0.8166757225990295, 2.1437737345695496 l-0.20416893064975739, 2.960449457168579 0.40833786129951477, 1.020844653248787 l1.2250135838985443, 0.9187601506710052 3.0625340342521667, 1.020844653248787 l3.368787169456482, 0.3062533959746361 3.0625340342521667, -0.40833786129951477 l2.960449457168579, -1.2250135838985443 2.1437737345695496, -1.32709801197052 l1.020844653248787, -1.1229290813207626 0.20416893064975739, -1.1229290813207626 l-0.20416893064975739, -1.4291824400424957 -1.1229290813207626, -1.7354358732700348 l-4.79796975851059, -4.083378612995148 -1.7354358732700348, -0.8166757225990295 l-3.7771251797676086, -0.40833786129951477 m-26.84821367263794, -1.9396047294139862 l0.7145912200212479, 7.554250359535217 -0.20416893064975739, 7.860503792762756 m-7.656334638595581, -9.59593951702118 l8.370925784111023, 0.7145912200212479 4.287547469139099, -1.020844653248787 l4.695885181427002, -0.5104223266243935 m10.106362104415894, 4.287547469139099 l4.4917163252830505, 0.7145912200212479 3.98129403591156, -0.8166757225990295 l4.79796975851059, -0.40833786129951477 7.247996926307678, 0.0 m-13.475148677825928, -9.493855237960815 l1.633351445198059, 9.187601804733276 0.8166757225990295, 2.5521114468574524 l0.0, 4.4917163252830505 m-2.4500271677970886, -12.964726686477661 l-1.2250135838985443, -11.535544395446777 0.0, -2.5521114468574524 l-0.8166757225990295, -1.633351445198059 -1.633351445198059, -1.633351445198059 l-0.7145912200212479, -0.3062533959746361 -3.98129403591156, 0.3062533959746361 l-6.431320905685425, 1.633351445198059 -7.860503792762756, 0.3062533959746361 l-1.633351445198059, 0.3062533959746361 -0.7145912200212479, 0.5104223266243935 l-1.020844653248787, 2.2458581626415253 -0.7145912200212479, 3.5729563236236572 l0.0, 1.7354358732700348 0.9187601506710052, 5.206307768821716 m-0.10208446532487869, -13.066811561584473 l-0.20416893064975739, -1.1229290813207626 " fill="none" stroke="black" stroke-width="1" /></svg>