<?xml version="1.0" encoding="utf-8" ?>
<svg baseProfile="full" height="44.30038031190634" version="1.1" width="49.20043312013149" xmlns="http://www.w3.org/2000/svg" xmlns:ev="http://www.w3.org/2001/xml-events" xmlns:xlink="http://www.w3.org/1999/xlink"><defs /><rect fill="white" height="44.30038031190634" width="49.20043312013149" x="0" y="0" /><path d="M17.352219857275486, 18.98557174950838 m-6.6354900598526, 1.5312670171260834 l-3.8792094588279724, 3.0625340342521667 -1.1229290813207626, 1.32709801197052 l-0.40833786129951477, 1.020844653248787 -0.3062533959746361, 6.1250680685043335 l1.020844653248787, 2.65419602394104 1.020844653248787, 1.633351445198059 l2.5521114468574524, 1.9396047294139862 3.1646183133125305, 0.20416893064975739 l1.020844653248787, -0.20416893064975739 4.4917163252830505, -2.5521114468574524 l1.8375203013420105, -3.0625340342521667 0.3062533959746361, -2.1437737345695496 l-0.8166757225990295, -3.0625340342521667 -1.020844653248787, -1.4291824400424957 l-2.1437737345695496, -1.9396047294139862 m24.091932773590088, 1.1229290813207626 l-4.4917163252830505, 2.041689306497574 -3.7771251797676086, 3.675040602684021 l-1.32709801197052, 4.083378612995148 0.0, 1.9396047294139862 l0.3062533959746361, 0.5104223266243935 2.960449457168579, 1.32709801197052 l3.8792094588279724, 0.5104223266243935 1.633351445198059, -0.7145912200212479 l1.5312670171260834, -1.2250135838985443 1.7354358732700348, -2.7562806010246277 l1.2250135838985443, -5.512561202049255 -0.9187601506710052, -2.041689306497574 l-2.2458581626415253, -1.020844653248787 m-20.92731475830078, 1.2250135838985443 l3.98129403591156, 0.3062533959746361 4.389632046222687, -0.10208446532487869 l2.4500271677970886, -0.6125067919492722 2.2458581626415253, 0.20416893064975739 m-20.92731475830078, -7.4521660804748535 l0.5104223266243935, -5.512561202049255 -0.10208446532487869, -4.1854628920555115 l-1.7354358732700348, 0.40833786129951477 -4.4917163252830505, -0.3062533959746361 l6.431320905685425, -0.7145912200212479 -4.900054335594177, -4.287547469139099 " fill="none" stroke="black" stroke-width="1" /></svg>