<?xml version="1.0" encoding="utf-8" ?>
<svg baseProfile="full" height="43.58578845858574" version="1.1" width="64.41101796925068" xmlns="http://www.w3.org/2000/svg" xmlns:ev="http://www.w3.org/2001/xml-events" xmlns:xlink="http://www.w3.org/1999/xlink"><defs /><rect fill="white" height="43.58578845858574" width="64.41101796925068" x="0" y="0" /><path d="M21.231429390609264, 12.043827474117279 m2.8583648800849915, -0.10208446532487869 l4.695885181427002, 0.5104223266243935 13.883486986160278, 0.10208446532487869 l7.758418917655945, 0.5104223266243935 m-0.10208446532487869, 0.3062533959746361 l0.0, 1.633351445198059 0.9187601506710052, 3.675040602684021 l2.4500271677970886, 5.920898914337158 3.1646183133125305, 6.227152347564697 l2.5521114468574524, 3.368787169456482 m-9.800108671188354, -21.948158740997314 l0.10208446532487869, 12.964726686477661 -0.5104223266243935, 0.6125067919492722 l-1.020844653248787, 3.8792094588279724 -0.10208446532487869, 4.1854628920555115 l0.40833786129951477, 1.633351445198059 1.7354358732700348, 1.633351445198059 l3.266702890396118, 1.1229290813207626 1.8375203013420105, 0.3062533959746361 l2.041689306497574, -0.10208446532487869 0.3062533959746361, -1.4291824400424957 l0.0, -3.0625340342521667 -0.40833786129951477, -1.4291824400424957 l-1.32709801197052, -2.2458581626415253 -4.389632046222687, -3.266702890396118 l-3.4708717465400696, -1.4291824400424957 m-26.03153705596924, -13.57723355293274 l-2.2458581626415253, 0.6125067919492722 -8.26884150505066, 3.7771251797676086 l-3.8792094588279724, 2.960449457168579 -1.633351445198059, 2.041689306497574 l-0.40833786129951477, 1.020844653248787 -0.5104223266243935, 2.2458581626415253 l-0.10208446532487869, 3.266702890396118 0.6125067919492722, 1.633351445198059 l0.9187601506710052, 0.9187601506710052 1.9396047294139862, 0.6125067919492722 l3.675040602684021, 0.0 3.4708717465400696, -1.633351445198059 l1.32709801197052, -1.1229290813207626 1.5312670171260834, -2.5521114468574524 l0.8166757225990295, -4.593800902366638 0.0, -5.512561202049255 l-0.3062533959746361, -0.5104223266243935 0.0, -1.1229290813207626 m28.685734272003174, -1.7354358732700348 l0.10208446532487869, -5.512561202049255 -0.7145912200212479, -0.40833786129951477 l-6.737574338912964, -1.4291824400424957 m3.675040602684021, 7.1459126472473145 l-1.020844653248787, -1.8375203013420105 -0.6125067919492722, -1.9396047294139862 l-5.818814635276794, -0.10208446532487869 m-12.352219820022583, 3.266702890396118 l0.0, -0.5104223266243935 1.1229290813207626, -1.8375203013420105 l4.389632046222687, -0.10208446532487869 " fill="none" stroke="black" stroke-width="1" /></svg>