<?xml version="1.0" encoding="utf-8" ?>
<svg baseProfile="full" height="30.11063937097788" version="1.1" width="47.87333481013775" xmlns="http://www.w3.org/2000/svg" xmlns:ev="http://www.w3.org/2001/xml-events" xmlns:xlink="http://www.w3.org/1999/xlink"><defs /><rect fill="white" height="30.11063937097788" width="47.87333481013775" x="0" y="0" /><path d="M14.187601543962955, 19.700162708759308 m0.3062533959746361, -1.9396047294139862 l-0.9187601506710052, -1.7354358732700348 -1.8375203013420105, -0.9187601506710052 l-2.2458581626415253, -0.10208446532487869 -1.020844653248787, 1.4291824400424957 l-2.347942590713501, 1.9396047294139862 -1.1229290813207626, 2.5521114468574524 l0.0, 1.1229290813207626 3.4708717465400696, 1.7354358732700348 l3.368787169456482, -0.10208446532487869 0.6125067919492722, -0.7145912200212479 l0.7145912200212479, -2.2458581626415253 0.10208446532487869, -1.4291824400424957 m27.256550788879395, -1.7354358732700348 l0.0, -0.5104223266243935 -2.960449457168579, -0.9187601506710052 l-2.1437737345695496, 0.20416893064975739 -0.3062533959746361, 5.512561202049255 l0.40833786129951477, 1.1229290813207626 2.4500271677970886, 0.9187601506710052 l1.020844653248787, 1.020844653248787 1.4291824400424957, 0.20416893064975739 l1.020844653248787, -0.9187601506710052 1.4291824400424957, -2.1437737345695496 l0.0, -3.98129403591156 -0.3062533959746361, -1.633351445198059 l-1.32709801197052, -0.7145912200212479 -1.2250135838985443, -0.10208446532487869 m-30.012831687927246, -5.818814635276794 l0.10208446532487869, -3.675040602684021 0.3062533959746361, -1.1229290813207626 l-0.20416893064975739, 8.575094938278198 0.40833786129951477, 4.900054335594177 l0.20416893064975739, 0.6125067919492722 0.0, -1.32709801197052 m-0.8166757225990295, -9.800108671188354 l6.022983193397522, 3.0625340342521667 4.287547469139099, 0.7145912200212479 l9.902192950248718, 2.960449457168579 5.920898914337158, 2.960449457168579 l2.2458581626415253, 1.7354358732700348 -0.7145912200212479, 0.0 m-0.3062533959746361, -0.10208446532487869 l-2.2458581626415253, 0.0 -5.614645481109619, -1.1229290813207626 l-4.389632046222687, -0.40833786129951477 -14.291825294494629, -0.10208446532487869 l0.10208446532487869, -0.5104223266243935 " fill="none" stroke="black" stroke-width="1" /></svg>