<?xml version="1.0" encoding="utf-8" ?>
<svg baseProfile="full" height="41.23784530907869" version="1.1" width="76.8653254956007" xmlns="http://www.w3.org/2000/svg" xmlns:ev="http://www.w3.org/2001/xml-events" xmlns:xlink="http://www.w3.org/1999/xlink"><defs /><rect fill="white" height="41.23784530907869" width="76.8653254956007" x="0" y="0" /><path d="M20.92517651617527, 12.656335234642029 m14.189740419387817, -0.20416893064975739 l17.150189876556396, -1.2250135838985443 2.8583648800849915, 5.104222893714905 l7.860503792762756, 8.983432650566101 1.1229290813207626, 1.5312670171260834 l-0.6125067919492722, 0.0 m-42.56922245025635, -14.802247285842896 l0.0, -3.0625340342521667 -0.5104223266243935, -2.5521114468574524 l0.20416893064975739, 6.431320905685425 -0.5104223266243935, -4.4917163252830505 m-2.4500271677970886, -2.347942590713501 l2.041689306497574, -0.40833786129951477 2.4500271677970886, 0.0 l0.5104223266243935, 0.20416893064975739 -0.5104223266243935, 0.3062533959746361 l-5.716729760169983, 0.10208446532487869 4.389632046222687, 0.20416893064975739 l-4.695885181427002, 0.0 6.329236626625061, -0.9187601506710052 m28.685734272003174, 5.30839204788208 l3.675040602684021, -4.695885181427002 0.40833786129951477, -1.1229290813207626 l-2.8583648800849915, 4.1854628920555115 0.0, -0.5104223266243935 l1.32709801197052, -2.041689306497574 -2.041689306497574, 1.2250135838985443 l-2.1437737345695496, -1.020844653248787 4.79796975851059, -1.020844653248787 l2.8583648800849915, -0.10208446532487869 -5.512561202049255, 0.20416893064975739 l-5.920898914337158, -0.5104223266243935 6.1250680685043335, 0.5104223266243935 l4.389632046222687, 0.0 -7.656334638595581, 0.0 l4.695885181427002, 0.0 -6.1250680685043335, 0.9187601506710052 l6.022983193397522, -0.9187601506710052 -5.104222893714905, 0.7145912200212479 l3.98129403591156, -0.10208446532487869 -4.4917163252830505, 1.633351445198059 l0.5104223266243935, -0.7145912200212479 1.8375203013420105, -0.8166757225990295 l-1.5312670171260834, 0.3062533959746361 1.8375203013420105, 0.0 l2.65419602394104, -0.5104223266243935 -1.32709801197052, 0.0 l3.98129403591156, -0.10208446532487869 -5.104222893714905, 0.9187601506710052 l4.083378612995148, -0.10208446532487869 -2.5521114468574524, 0.0 l1.9396047294139862, 0.20416893064975739 m-43.07964324951172, 17.048105001449585 l0.8166757225990295, -1.020844653248787 1.633351445198059, -0.5104223266243935 l2.7562806010246277, 0.0 1.1229290813207626, 0.3062533959746361 l1.7354358732700348, 1.32709801197052 0.7145912200212479, 1.020844653248787 l0.7145912200212479, 2.1437737345695496 -0.10208446532487869, 2.65419602394104 l-1.4291824400424957, 2.4500271677970886 -2.960449457168579, 2.4500271677970886 l-2.2458581626415253, 1.020844653248787 -3.266702890396118, 0.0 l-1.7354358732700348, -0.5104223266243935 -1.32709801197052, -0.8166757225990295 l-1.1229290813207626, -1.020844653248787 -0.9187601506710052, -1.4291824400424957 l-0.20416893064975739, -1.5312670171260834 0.10208446532487869, -1.4291824400424957 l0.8166757225990295, -2.4500271677970886 1.020844653248787, -2.347942590713501 l1.020844653248787, -1.4291824400424957 2.2458581626415253, -0.10208446532487869 l3.7771251797676086, 1.020844653248787 m47.77553081512451, 0.3062533959746361 l1.7354358732700348, -1.32709801197052 2.7562806010246277, -0.40833786129951477 l2.8583648800849915, 0.6125067919492722 1.4291824400424957, 1.1229290813207626 l0.8166757225990295, 1.32709801197052 0.5104223266243935, 2.8583648800849915 l-0.10208446532487869, 0.7145912200212479 -0.9187601506710052, 1.32709801197052 l-1.1229290813207626, 0.7145912200212479 -3.266702890396118, 0.7145912200212479 l-3.368787169456482, -0.3062533959746361 -2.041689306497574, -0.9187601506710052 l-1.2250135838985443, -1.9396047294139862 -0.5104223266243935, -3.0625340342521667 l0.8166757225990295, -1.633351445198059 2.4500271677970886, -1.5312670171260834 l2.347942590713501, -0.40833786129951477 1.8375203013420105, 0.10208446532487869 m-45.63175678253174, -8.983432650566101 l-2.960449457168579, 3.98129403591156 -2.7562806010246277, 4.287547469139099 l0.5104223266243935, -0.20416893064975739 -0.9187601506710052, 0.8166757225990295 l0.3062533959746361, -0.10208446532487869 m3.368787169456482, -3.4708717465400696 l13.475148677825928, -1.5312670171260834 10.004277229309082, -0.10208446532487869 l3.5729563236236572, 0.20416893064975739 16.94602131843567, 2.347942590713501 " fill="none" stroke="black" stroke-width="1" /></svg>