<?xml version="1.0" encoding="utf-8" ?>
<svg baseProfile="full" height="46.239984072744846" version="1.1" width="46.546237654984" xmlns="http://www.w3.org/2000/svg" xmlns:ev="http://www.w3.org/2001/xml-events" xmlns:xlink="http://www.w3.org/1999/xlink"><defs /><rect fill="white" height="46.239984072744846" width="46.546237654984" x="0" y="0" /><path d="M22.45644237846136, 28.989848345518112 m-5.002138614654541, -2.041689306497574 l-3.675040602684021, -0.20416893064975739 -4.1854628920555115, 1.32709801197052 l-1.633351445198059, 1.9396047294139862 -1.020844653248787, 3.1646183133125305 l0.10208446532487869, 1.2250135838985443 0.9187601506710052, 1.32709801197052 l3.5729563236236572, 2.8583648800849915 3.8792094588279724, 1.7354358732700348 l2.4500271677970886, 0.40833786129951477 2.1437737345695496, 0.10208446532487869 l1.8375203013420105, -0.5104223266243935 1.32709801197052, -1.2250135838985443 l0.6125067919492722, -1.633351445198059 0.10208446532487869, -1.7354358732700348 l-0.40833786129951477, -2.1437737345695496 -1.5312670171260834, -2.65419602394104 l-1.9396047294139862, -2.2458581626415253 m-5.818814635276794, 5.818814635276794 l0.0, 0.0 m27.3586368560791, -5.002138614654541 l-0.7145912200212479, -0.8166757225990295 -2.4500271677970886, -1.5312670171260834 l-2.2458581626415253, -0.3062533959746361 -4.695885181427002, 0.6125067919492722 l-2.960449457168579, 1.633351445198059 -0.7145912200212479, 1.2250135838985443 l-0.40833786129951477, 2.4500271677970886 0.8166757225990295, 2.347942590713501 l1.7354358732700348, 2.4500271677970886 2.5521114468574524, 2.4500271677970886 l1.9396047294139862, 1.020844653248787 1.7354358732700348, 0.20416893064975739 l2.041689306497574, -0.9187601506710052 1.633351445198059, -1.4291824400424957 l0.8166757225990295, -1.7354358732700348 0.0, -4.900054335594177 l-1.7354358732700348, -2.65419602394104 -3.0625340342521667, -2.5521114468574524 m-1.8375203013420105, 6.839659214019775 l-1.020844653248787, -5.614645481109619 m0.8166757225990295, 6.022983193397522 l1.1229290813207626, -1.020844653248787 3.8792094588279724, -2.347942590713501 m-4.083378612995148, 2.960449457168579 l0.40833786129951477, 1.020844653248787 1.7354358732700348, 2.041689306497574 l2.041689306497574, 1.8375203013420105 m-7.1459126472473145, -4.4917163252830505 l-3.8792094588279724, 2.041689306497574 m-11.841797828674316, -2.8583648800849915 l-3.4708717465400696, -4.4917163252830505 -3.0625340342521667, -2.4500271677970886 m7.043827772140503, 7.554250359535217 l4.389632046222687, -2.347942590713501 4.593800902366638, -1.2250135838985443 m-9.493855237960815, 2.65419602394104 l0.0, 0.5104223266243935 -1.020844653248787, 0.9187601506710052 l-4.695885181427002, 1.5312670171260834 m6.839659214019775, -1.4291824400424957 l5.206307768821716, 5.410476326942444 m-6.737574338912964, -14.904332160949707 l0.5104223266243935, -3.368787169456482 2.041689306497574, -2.347942590713501 l2.65419602394104, -1.4291824400424957 2.5521114468574524, 0.0 l6.6354900598526, 2.2458581626415253 3.266702890396118, 1.7354358732700348 l1.7354358732700348, 2.041689306497574 1.1229290813207626, 3.266702890396118 m-18.783540725708008, -8.677179217338562 l-7.247996926307678, -5.716729760169983 -1.020844653248787, -1.1229290813207626 l-4.083378612995148, -6.839659214019775 m24.29610252380371, 10.9230375289917 l-0.5104223266243935, 0.10208446532487869 -0.40833786129951477, 1.020844653248787 l-0.3062533959746361, 2.8583648800849915 " fill="none" stroke="black" stroke-width="1" /></svg>