<?xml version="1.0" encoding="utf-8" ?>
<svg baseProfile="full" height="53.79423499107361" version="1.1" width="53.07964418083429" xmlns="http://www.w3.org/2000/svg" xmlns:ev="http://www.w3.org/2001/xml-events" xmlns:xlink="http://www.w3.org/1999/xlink"><defs /><rect fill="white" height="53.79423499107361" width="53.07964418083429" x="0" y="0" /><path d="M13.77926405519247, 29.09193344414234 m-6.839659214019775, 5.512561202049255 l-1.633351445198059, 2.5521114468574524 -0.3062533959746361, 1.9396047294139862 l0.20416893064975739, 1.8375203013420105 1.020844653248787, 1.8375203013420105 l0.6125067919492722, 0.7145912200212479 1.8375203013420105, 1.020844653248787 l2.960449457168579, -0.20416893064975739 2.8583648800849915, -0.6125067919492722 l0.9187601506710052, -0.5104223266243935 1.633351445198059, -1.7354358732700348 l0.8166757225990295, -2.1437737345695496 0.10208446532487869, -1.020844653248787 l-0.6125067919492722, -3.0625340342521667 -2.041689306497574, -2.7562806010246277 l-5.104222893714905, -2.4500271677970886 m3.1646183133125305, 0.3062533959746361 l0.6125067919492722, -1.9396047294139862 2.7562806010246277, -5.30839204788208 l3.675040602684021, -2.2458581626415253 5.512561202049255, -0.20416893064975739 l5.002138614654541, 0.6125067919492722 10.412615537643433, -0.10208446532487869 l4.900054335594177, 3.368787169456482 -0.3062533959746361, -0.5104223266243935 l0.0, 14.291825294494629 -2.960449457168579, 0.0 l-7.554250359535217, -0.8166757225990295 -2.041689306497574, 0.10208446532487869 l-1.7354358732700348, 0.8166757225990295 -0.9187601506710052, 1.633351445198059 l-0.10208446532487869, 1.020844653248787 1.020844653248787, 2.960449457168579 l2.960449457168579, 2.65419602394104 3.5729563236236572, 1.633351445198059 l3.7771251797676086, 0.5104223266243935 1.9396047294139862, -0.20416893064975739 l2.7562806010246277, -1.7354358732700348 1.4291824400424957, -3.0625340342521667 l0.0, -2.041689306497574 -0.6125067919492722, -2.041689306497574 l-1.633351445198059, -1.7354358732700348 -3.8792094588279724, -2.2458581626415253 m-8.779264092445374, -14.700162410736084 l0.0, -12.250136137008667 m0.0, -0.3062533959746361 l8.881348371505737, 0.8166757225990295 m-19.396047592163086, 9.085517525672913 l-8.677179217338562, -5.30839204788208 -5.920898914337158, -4.389632046222687 m0.0, -0.10208446532487869 l0.10208446532487869, -0.5104223266243935 1.8375203013420105, -1.7354358732700348 l2.041689306497574, -1.2250135838985443 1.9396047294139862, -0.10208446532487869 l2.2458581626415253, 0.40833786129951477 " fill="none" stroke="black" stroke-width="1" /></svg>