<?xml version="1.0" encoding="utf-8" ?>
<svg baseProfile="full" height="51.85462985187769" version="1.1" width="72.06735406070948" xmlns="http://www.w3.org/2000/svg" xmlns:ev="http://www.w3.org/2001/xml-events" xmlns:xlink="http://www.w3.org/1999/xlink"><defs /><rect fill="white" height="51.85462985187769" width="72.06735406070948" x="0" y="0" /><path d="M22.66061209142208, 32.76697404682636 m-0.7145912200212479, -1.5312670171260834 l-1.1229290813207626, -1.020844653248787 -2.8583648800849915, -1.2250135838985443 l-4.900054335594177, -0.10208446532487869 -3.4708717465400696, 1.8375203013420105 l-1.4291824400424957, 1.1229290813207626 -1.32709801197052, 1.7354358732700348 l-1.020844653248787, 1.7354358732700348 -0.6125067919492722, 1.8375203013420105 l-0.20416893064975739, 4.900054335594177 0.5104223266243935, 1.32709801197052 l1.020844653248787, 1.020844653248787 4.79796975851059, 2.2458581626415253 l4.1854628920555115, 0.20416893064975739 2.347942590713501, -0.7145912200212479 l3.98129403591156, -2.041689306497574 3.0625340342521667, -2.5521114468574524 l1.2250135838985443, -1.32709801197052 1.2250135838985443, -2.1437737345695496 l0.10208446532487869, -2.2458581626415253 -0.3062533959746361, -0.9187601506710052 l-3.266702890396118, -2.7562806010246277 -4.1854628920555115, -1.4291824400424957 m47.367191314697266, 0.6125067919492722 l-0.7145912200212479, -1.633351445198059 -1.32709801197052, -1.32709801197052 l-1.633351445198059, -1.2250135838985443 -2.347942590713501, -0.9187601506710052 l-6.1250680685043335, -0.20416893064975739 -5.614645481109619, 2.5521114468574524 l-4.083378612995148, 3.7771251797676086 -2.041689306497574, 2.960449457168579 l0.10208446532487869, 4.083378612995148 0.5104223266243935, 1.020844653248787 l3.1646183133125305, 2.960449457168579 1.1229290813207626, 0.5104223266243935 l4.083378612995148, 0.6125067919492722 1.7354358732700348, 0.0 l2.960449457168579, -0.6125067919492722 3.266702890396118, -1.633351445198059 l2.8583648800849915, -2.960449457168579 1.1229290813207626, -2.347942590713501 l0.10208446532487869, -4.695885181427002 -2.041689306497574, -2.7562806010246277 l-1.2250135838985443, -0.9187601506710052 -2.7562806010246277, -1.2250135838985443 l-1.5312670171260834, -0.10208446532487869 m-38.58792781829834, 1.32709801197052 l4.593800902366638, 0.3062533959746361 10.20844578742981, -0.20416893064975739 l17.252274751663208, -2.4500271677970886 1.020844653248787, -0.20416893064975739 l-0.20416893064975739, -0.20416893064975739 m-18.98771047592163, 1.9396047294139862 l-3.368787169456482, -0.7145912200212479 -2.960449457168579, -1.5312670171260834 l-1.4291824400424957, -1.8375203013420105 -0.20416893064975739, -2.347942590713501 l0.3062533959746361, -1.8375203013420105 1.8375203013420105, -2.2458581626415253 l4.695885181427002, -2.2458581626415253 2.65419602394104, -0.7145912200212479 l2.960449457168579, 0.10208446532487869 0.7145912200212479, 0.40833786129951477 l1.2250135838985443, 1.32709801197052 0.9187601506710052, 2.2458581626415253 l0.20416893064975739, 3.0625340342521667 -0.40833786129951477, 2.041689306497574 l-1.5312670171260834, 2.5521114468574524 -0.9187601506710052, 1.020844653248787 l-0.3062533959746361, -0.10208446532487869 m-0.10208446532487869, -10.004277229309082 l-0.20416893064975739, 0.6125067919492722 1.020844653248787, -0.10208446532487869 l3.98129403591156, -0.8166757225990295 0.7145912200212479, -0.6125067919492722 l1.4291824400424957, -3.0625340342521667 0.5104223266243935, -4.389632046222687 l-0.3062533959746361, -3.0625340342521667 -0.10208446532487869, 0.5104223266243935 l-6.737574338912964, 1.5312670171260834 4.389632046222687, -0.20416893064975739 l10.9230375289917, -1.8375203013420105 -15.210585594177246, 1.7354358732700348 l12.454304695129395, -1.633351445198059 0.7145912200212479, -0.6125067919492722 l-1.5312670171260834, 0.0 -9.187601804733276, 2.041689306497574 l2.041689306497574, -0.6125067919492722 12.86264181137085, -1.4291824400424957 l-10.820952653884888, 1.2250135838985443 -4.593800902366638, 0.8166757225990295 l10.412615537643433, -1.7354358732700348 -3.266702890396118, 0.0 " fill="none" stroke="black" stroke-width="1" /></svg>