<?xml version="1.0" encoding="utf-8" ?>
<svg baseProfile="full" height="34.50027134269476" version="1.1" width="49.30251732468605" xmlns="http://www.w3.org/2000/svg" xmlns:ev="http://www.w3.org/2001/xml-events" xmlns:xlink="http://www.w3.org/1999/xlink"><defs /><rect fill="white" height="34.50027134269476" width="49.30251732468605" x="0" y="0" /><path d="M7.245858199894428, 17.964726984500885 m-2.1437737345695496, 3.4708717465400696 l-0.10208446532487869, 1.8375203013420105 2.347942590713501, 3.5729563236236572 l1.7354358732700348, 1.4291824400424957 1.633351445198059, 0.5104223266243935 l2.347942590713501, 0.20416893064975739 4.1854628920555115, -0.20416893064975739 l0.7145912200212479, -0.3062533959746361 0.6125067919492722, -0.8166757225990295 l0.5104223266243935, -1.633351445198059 0.0, -1.020844653248787 l-1.2250135838985443, -3.266702890396118 -1.7354358732700348, -2.960449457168579 l-1.1229290813207626, -0.9187601506710052 -1.32709801197052, -0.40833786129951477 l-1.8375203013420105, 0.0 -3.5729563236236572, 0.7145912200212479 l-1.7354358732700348, 2.4500271677970886 m27.256550788879395, 0.0 l-1.020844653248787, 2.7562806010246277 -0.10208446532487869, 2.7562806010246277 l1.020844653248787, 1.9396047294139862 1.32709801197052, 0.9187601506710052 l1.633351445198059, 0.5104223266243935 2.960449457168579, -0.20416893064975739 l0.9187601506710052, -0.3062533959746361 3.0625340342521667, -2.8583648800849915 l0.7145912200212479, -1.9396047294139862 0.0, -1.020844653248787 l-0.7145912200212479, -1.4291824400424957 -3.675040602684021, -3.5729563236236572 l-2.041689306497574, -0.9187601506710052 -2.4500271677970886, -0.20416893064975739 l-1.1229290813207626, 0.6125067919492722 -2.4500271677970886, 3.5729563236236572 l-0.3062533959746361, 1.1229290813207626 0.40833786129951477, 0.6125067919492722 m-19.60021734237671, -11.841797828674316 l-1.020844653248787, -6.1250680685043335 m0.0, 0.0 l0.0, 2.1437737345695496 -0.20416893064975739, -0.7145912200212479 m0.0, 0.0 l6.1250680685043335, -0.40833786129951477 1.1229290813207626, 0.6125067919492722 l3.5729563236236572, 3.266702890396118 3.4708717465400696, -1.8375203013420105 m-13.066811561584473, 3.8792094588279724 l-0.8166757225990295, 7.350081205368042 0.10208446532487869, 4.083378612995148 m1.1229290813207626, -11.535544395446777 l4.1854628920555115, 2.7562806010246277 1.8375203013420105, 2.347942590713501 l2.5521114468574524, 2.2458581626415253 1.1229290813207626, 1.7354358732700348 l1.1229290813207626, -0.3062533959746361 2.347942590713501, 0.10208446532487869 l1.8375203013420105, 0.8166757225990295 4.4917163252830505, 0.9187601506710052 l8.677179217338562, 0.5104223266243935 m0.0, 0.0 " fill="none" stroke="black" stroke-width="1" /></svg>