<?xml version="1.0" encoding="utf-8" ?>
<svg baseProfile="full" height="43.27953461557627" version="1.1" width="54.304656870663166" xmlns="http://www.w3.org/2000/svg" xmlns:ev="http://www.w3.org/2001/xml-events" xmlns:xlink="http://www.w3.org/1999/xlink"><defs /><rect fill="white" height="43.27953461557627" width="54.304656870663166" x="0" y="0" /><path d="M44.81294024735689, 22.966865673661232 m-0.10208446532487869, -0.9187601506710052 l-0.7145912200212479, -0.5104223266243935 -0.9187601506710052, -0.3062533959746361 l-3.4708717465400696, -0.3062533959746361 -1.32709801197052, 0.3062533959746361 l-1.9396047294139862, 1.4291824400424957 -1.9396047294139862, 2.5521114468574524 l-0.7145912200212479, 2.2458581626415253 -0.3062533959746361, 2.5521114468574524 l0.40833786129951477, 2.2458581626415253 1.32709801197052, 2.960449457168579 l3.5729563236236572, 2.4500271677970886 4.389632046222687, -1.2250135838985443 l3.8792094588279724, -2.5521114468574524 1.4291824400424957, -1.7354358732700348 l0.7145912200212479, -1.633351445198059 0.20416893064975739, -3.0625340342521667 l-0.3062533959746361, -1.1229290813207626 -1.32709801197052, -2.041689306497574 l-4.4917163252830505, -3.0625340342521667 -2.65419602394104, -0.10208446532487869 l-2.041689306497574, 0.6125067919492722 -0.8166757225990295, 0.6125067919492722 m-1.4291824400424957, 1.2250135838985443 l-0.7145912200212479, 0.40833786129951477 -3.266702890396118, 0.8166757225990295 l-6.941743493080139, 0.9187601506710052 -9.698023796081543, 0.40833786129951477 l-6.533405780792236, -0.40833786129951477 -1.4291824400424957, 0.5104223266243935 l-1.7354358732700348, 1.9396047294139862 -0.7145912200212479, 2.347942590713501 l-0.20416893064975739, 2.2458581626415253 0.9187601506710052, 3.5729563236236572 l1.9396047294139862, 1.8375203013420105 1.633351445198059, 0.10208446532487869 l2.960449457168579, -0.9187601506710052 1.020844653248787, -0.7145912200212479 l1.4291824400424957, -2.041689306497574 0.3062533959746361, -1.2250135838985443 l-0.20416893064975739, -2.8583648800849915 -1.2250135838985443, -2.2458581626415253 l-1.5312670171260834, -1.020844653248787 -4.083378612995148, -0.3062533959746361 l-2.1437737345695496, 0.3062533959746361 m26.133623123168945, -1.5312670171260834 l0.10208446532487869, -3.4708717465400696 -0.3062533959746361, -5.716729760169983 l-1.1229290813207626, -9.698023796081543 m-8.575094938278198, 0.0 l-0.40833786129951477, 0.3062533959746361 0.5104223266243935, 0.10208446532487869 l2.65419602394104, -0.10208446532487869 3.98129403591156, -0.8166757225990295 l9.800108671188354, -1.32709801197052 " fill="none" stroke="black" stroke-width="1" /></svg>