<?xml version="1.0" encoding="utf-8" ?>
<svg baseProfile="full" height="33.173173293471336" version="1.1" width="49.71085503697395" xmlns="http://www.w3.org/2000/svg" xmlns:ev="http://www.w3.org/2001/xml-events" xmlns:xlink="http://www.w3.org/1999/xlink"><defs /><rect fill="white" height="33.173173293471336" width="49.71085503697395" x="0" y="0" /><path d="M9.491716399788857, 16.53554406017065 m-2.347942590713501, 1.5312670171260834 l-1.5312670171260834, 2.041689306497574 -0.6125067919492722, 1.9396047294139862 l0.3062533959746361, 1.633351445198059 1.2250135838985443, 1.4291824400424957 l1.633351445198059, 1.2250135838985443 3.368787169456482, 0.8166757225990295 l3.266702890396118, 0.0 0.5104223266243935, -0.5104223266243935 l0.9187601506710052, -2.65419602394104 0.0, -3.675040602684021 l-0.40833786129951477, -0.7145912200212479 -1.4291824400424957, -1.633351445198059 l-4.083378612995148, -1.4291824400424957 -1.32709801197052, 0.20416893064975739 l-0.5104223266243935, 0.8166757225990295 m2.65419602394104, 4.083378612995148 l-0.5104223266243935, 0.20416893064975739 m0.5104223266243935, -4.593800902366638 l-0.20416893064975739, 3.5729563236236572 m0.7145912200212479, 0.6125067919492722 l1.8375203013420105, -0.40833786129951477 1.4291824400424957, -0.9187601506710052 m-2.65419602394104, 2.041689306497574 l1.8375203013420105, 3.1646183133125305 m-3.8792094588279724, -2.65419602394104 l-2.347942590713501, 2.65419602394104 -1.5312670171260834, 0.7145912200212479 m1.4291824400424957, -5.410476326942444 l-2.4500271677970886, 0.0 m32.871196269989014, -3.266702890396118 l-0.5104223266243935, 0.20416893064975739 -1.1229290813207626, 1.7354358732700348 l-0.20416893064975739, 1.5312670171260834 0.20416893064975739, 2.8583648800849915 l1.32709801197052, 2.65419602394104 1.7354358732700348, 1.8375203013420105 l1.9396047294139862, 0.0 1.4291824400424957, -0.40833786129951477 l1.1229290813207626, -1.9396047294139862 0.6125067919492722, -4.1854628920555115 l-0.5104223266243935, -1.4291824400424957 -1.2250135838985443, -1.633351445198059 l-2.041689306497574, -1.5312670171260834 -2.5521114468574524, -0.5104223266243935 l-0.5104223266243935, 0.6125067919492722 -0.3062533959746361, 1.8375203013420105 m2.7562806010246277, 4.1854628920555115 l0.0, -0.3062533959746361 m0.3062533959746361, -5.512561202049255 l0.0, 4.083378612995148 m0.7145912200212479, 0.10208446532487869 l1.7354358732700348, 0.0 m-2.65419602394104, 1.4291824400424957 l1.5312670171260834, 2.2458581626415253 m-2.7562806010246277, -2.041689306497574 l-2.347942590713501, 2.4500271677970886 m0.6125067919492722, -6.431320905685425 l1.7354358732700348, 1.4291824400424957 m-28.073227405548096, -4.083378612995148 l-0.7145912200212479, -5.512561202049255 6.329236626625061, -1.633351445198059 l5.30839204788208, -0.5104223266243935 4.4917163252830505, 0.0 l12.760558128356934, 1.7354358732700348 0.7145912200212479, 1.1229290813207626 l-0.10208446532487869, 6.533405780792236 m0.20416893064975739, -7.350081205368042 l-2.4500271677970886, -3.0625340342521667 -2.65419602394104, -1.7354358732700348 l-1.020844653248787, -1.1229290813207626 " fill="none" stroke="black" stroke-width="1" /></svg>