<?xml version="1.0" encoding="utf-8" ?>
<svg baseProfile="full" height="66.35062418878078" version="1.1" width="64.71727203577757" xmlns="http://www.w3.org/2000/svg" xmlns:ev="http://www.w3.org/2001/xml-events" xmlns:xlink="http://www.w3.org/1999/xlink"><defs /><rect fill="white" height="66.35062418878078" width="64.71727203577757" x="0" y="0" /><path d="M21.435598582029343, 37.87119776010513 m-3.5729563236236572, 0.20416893064975739 l-3.368787169456482, 1.1229290813207626 -4.389632046222687, 2.5521114468574524 l-3.368787169456482, 3.5729563236236572 -1.7354358732700348, 3.8792094588279724 l0.0, 2.7562806010246277 0.5104223266243935, 2.347942590713501 l1.9396047294139862, 2.1437737345695496 3.4708717465400696, 1.4291824400424957 l8.064672350883484, 0.20416893064975739 1.7354358732700348, -0.6125067919492722 l1.32709801197052, -1.32709801197052 1.020844653248787, -1.7354358732700348 l0.9187601506710052, -2.8583648800849915 0.3062533959746361, -6.839659214019775 l-1.1229290813207626, -5.002138614654541 -1.4291824400424957, -2.2458581626415253 l8.166757225990295, 1.633351445198059 11.841797828674316, 0.7145912200212479 l11.739712953567505, 0.10208446532487869 -4.593800902366638, 2.041689306497574 l-2.5521114468574524, 2.041689306497574 -1.9396047294139862, 2.960449457168579 l-0.20416893064975739, 1.633351445198059 0.10208446532487869, 3.8792094588279724 l1.020844653248787, 2.8583648800849915 1.633351445198059, 3.0625340342521667 l1.9396047294139862, 1.8375203013420105 1.7354358732700348, 0.8166757225990295 l1.633351445198059, 0.3062533959746361 1.8375203013420105, 0.0 l1.7354358732700348, -0.6125067919492722 2.8583648800849915, -2.4500271677970886 l1.020844653248787, -8.166757225990295 -0.10208446532487869, -3.7771251797676086 l-1.1229290813207626, -3.368787169456482 -1.9396047294139862, -3.0625340342521667 l-2.4500271677970886, -1.32709801197052 m-29.706578254699707, -0.6125067919492722 l-0.40833786129951477, -1.020844653248787 -0.10208446532487869, -9.085517525672913 l-1.020844653248787, -7.96258807182312 5.30839204788208, -5.206307768821716 l7.656334638595581, -9.698023796081543 m-11.33137583732605, 12.148051261901855 l-0.8166757225990295, -0.10208446532487869 -4.695885181427002, -2.1437737345695496 l-8.575094938278198, -4.287547469139099 -0.40833786129951477, -1.1229290813207626 m36.23998403549194, 31.135761737823486 l-0.5104223266243935, -0.7145912200212479 0.0, -17.864781618118286 l-0.5104223266243935, -2.4500271677970886 1.4291824400424957, 0.6125067919492722 l6.227152347564697, 0.40833786129951477 1.4291824400424957, -1.4291824400424957 l0.7145912200212479, -1.9396047294139862 -0.20416893064975739, -2.347942590713501 l-1.8375203013420105, -1.32709801197052 -3.7771251797676086, -0.8166757225990295 l-3.1646183133125305, 0.0 -1.7354358732700348, 0.5104223266243935 l-0.5104223266243935, 1.4291824400424957 0.20416893064975739, 4.083378612995148 l1.8375203013420105, 3.5729563236236572 1.5312670171260834, 0.9187601506710052 " fill="none" stroke="black" stroke-width="1" /></svg>