<?xml version="1.0" encoding="utf-8" ?>
<svg baseProfile="full" height="35.010692812502384" version="1.1" width="55.32550152391195" xmlns="http://www.w3.org/2000/svg" xmlns:ev="http://www.w3.org/2001/xml-events" xmlns:xlink="http://www.w3.org/1999/xlink"><defs /><rect fill="white" height="35.010692812502384" width="55.32550152391195" x="0" y="0" /><path d="M39.402463994920254, 26.437736600637436 m-1.020844653248787, -0.3062533959746361 l-0.7145912200212479, -1.020844653248787 -0.40833786129951477, -1.8375203013420105 l0.0, -3.4708717465400696 1.2250135838985443, -2.347942590713501 l1.8375203013420105, -1.8375203013420105 2.5521114468574524, -1.020844653248787 l1.5312670171260834, -0.10208446532487869 0.6125067919492722, 0.10208446532487869 l1.5312670171260834, 1.1229290813207626 1.2250135838985443, 1.5312670171260834 l1.4291824400424957, 2.65419602394104 1.1229290813207626, 3.368787169456482 l0.0, 2.2458581626415253 -0.6125067919492722, 1.1229290813207626 l-1.7354358732700348, 1.8375203013420105 -3.98129403591156, 1.5312670171260834 l-2.2458581626415253, 0.0 -1.5312670171260834, -0.5104223266243935 l-1.8375203013420105, -2.5521114468574524 m-32.46285915374756, 0.5104223266243935 l-0.6125067919492722, -1.020844653248787 -0.3062533959746361, -1.633351445198059 l0.0, -2.347942590713501 1.1229290813207626, -2.2458581626415253 l2.5521114468574524, -1.4291824400424957 3.1646183133125305, -1.020844653248787 l0.5104223266243935, 0.0 1.5312670171260834, 1.020844653248787 l0.9187601506710052, 2.041689306497574 0.40833786129951477, 3.266702890396118 l-0.3062533959746361, 1.633351445198059 -1.8375203013420105, 2.4500271677970886 l-2.5521114468574524, 1.2250135838985443 -2.65419602394104, 0.20416893064975739 l-2.041689306497574, -1.633351445198059 -0.8166757225990295, -1.633351445198059 m38.58792781829834, -3.98129403591156 l-0.5104223266243935, 0.10208446532487869 m-0.40833786129951477, 0.0 l-1.1229290813207626, -2.960449457168579 -0.10208446532487869, -3.368787169456482 m1.7354358732700348, 5.716729760169983 l1.2250135838985443, -2.2458581626415253 0.8166757225990295, -0.5104223266243935 m-1.5312670171260834, 2.041689306497574 l3.675040602684021, 1.5312670171260834 m-3.7771251797676086, 0.20416893064975739 l0.5104223266243935, -0.10208446532487869 1.32709801197052, 1.633351445198059 l1.020844653248787, 2.041689306497574 0.10208446532487869, 0.5104223266243935 l-0.3062533959746361, 0.40833786129951477 m-3.266702890396118, -3.98129403591156 l-1.32709801197052, 1.32709801197052 -2.5521114468574524, 1.2250135838985443 l-0.8166757225990295, 0.10208446532487869 m2.65419602394104, -4.287547469139099 l-3.7771251797676086, -1.32709801197052 m-28.17531108856201, 3.266702890396118 l0.3062533959746361, -0.7145912200212479 m-0.10208446532487869, 0.0 l3.0625340342521667, -2.65419602394104 0.3062533959746361, -0.7145912200212479 m-3.0625340342521667, 2.8583648800849915 l2.5521114468574524, 0.10208446532487869 0.20416893064975739, 0.5104223266243935 m-2.347942590713501, -0.10208446532487869 l1.633351445198059, 0.5104223266243935 0.6125067919492722, 1.5312670171260834 l-0.3062533959746361, 0.9187601506710052 m-1.7354358732700348, -1.7354358732700348 l0.40833786129951477, 1.7354358732700348 0.10208446532487869, 2.65419602394104 l-0.40833786129951477, 0.5104223266243935 -0.40833786129951477, -0.20416893064975739 m-0.20416893064975739, -5.206307768821716 l-1.020844653248787, 0.0 -1.1229290813207626, 0.8166757225990295 l-0.6125067919492722, 0.0 1.020844653248787, -0.10208446532487869 m1.633351445198059, -1.32709801197052 l-1.020844653248787, -2.1437737345695496 m-2.65419602394104, -1.2250135838985443 l0.10208446532487869, -0.6125067919492722 1.020844653248787, -0.3062533959746361 l3.4708717465400696, -2.2458581626415253 2.65419602394104, -0.9187601506710052 l1.633351445198059, -0.3062533959746361 21.437737941741943, -0.10208446532487869 l3.1646183133125305, -0.6125067919492722 6.1250680685043335, -2.65419602394104 l1.2250135838985443, -0.10208446532487869 m-2.8583648800849915, 1.2250135838985443 l-0.3062533959746361, -0.8166757225990295 0.0, -5.002138614654541 l-0.7145912200212479, -1.1229290813207626 m-4.287547469139099, 0.40833786129951477 l4.593800902366638, -1.1229290813207626 5.920898914337158, -0.40833786129951477 " fill="none" stroke="black" stroke-width="1" /></svg>