<?xml version="1.0" encoding="utf-8" ?>
<svg baseProfile="full" height="35.112777687609196" version="1.1" width="40.21700043231249" xmlns="http://www.w3.org/2000/svg" xmlns:ev="http://www.w3.org/2001/xml-events" xmlns:xlink="http://www.w3.org/1999/xlink"><defs /><rect fill="white" height="35.112777687609196" width="40.21700043231249" x="0" y="0" /><path d="M13.779262974858284, 21.231429502367973 m-2.2458581626415253, -0.10208446532487869 l-0.7145912200212479, 0.5104223266243935 -1.633351445198059, 2.347942590713501 l-0.7145912200212479, 2.8583648800849915 0.10208446532487869, 1.32709801197052 l1.020844653248787, 1.2250135838985443 1.32709801197052, 0.6125067919492722 l3.266702890396118, 0.10208446532487869 2.1437737345695496, -1.8375203013420105 l0.40833786129951477, -1.32709801197052 -0.3062533959746361, -2.65419602394104 l-2.960449457168579, -2.2458581626415253 -2.2458581626415253, -0.10208446532487869 l-0.6125067919492722, 0.40833786129951477 m13.98557186126709, -2.960449457168579 l-0.9187601506710052, -0.10208446532487869 -0.8166757225990295, 1.4291824400424957 l-0.40833786129951477, 5.30839204788208 1.1229290813207626, 1.5312670171260834 l0.8166757225990295, 0.20416893064975739 0.9187601506710052, -0.20416893064975739 l0.8166757225990295, -1.2250135838985443 0.40833786129951477, -1.8375203013420105 l0.10208446532487869, -4.083378612995148 -0.20416893064975739, -1.1229290813207626 l-0.5104223266243935, -0.40833786129951477 -0.9187601506710052, 0.0 m-20.008554458618164, 9.085517525672913 l5.104222893714905, 0.20416893064975739 0.9187601506710052, -0.3062533959746361 l0.6125067919492722, -1.32709801197052 0.0, -1.1229290813207626 l-0.8166757225990295, -2.7562806010246277 0.20416893064975739, -1.633351445198059 l0.9187601506710052, -0.6125067919492722 1.1229290813207626, -0.20416893064975739 l2.65419602394104, 0.0 1.1229290813207626, 0.6125067919492722 l1.2250135838985443, 1.7354358732700348 0.7145912200212479, 3.266702890396118 l0.3062533959746361, 0.6125067919492722 0.5104223266243935, 0.10208446532487869 l0.5104223266243935, -0.10208446532487869 2.347942590713501, -2.65419602394104 l0.0, -2.1437737345695496 1.4291824400424957, -2.4500271677970886 l3.7771251797676086, 0.0 2.8583648800849915, 2.041689306497574 l1.4291824400424957, 2.2458581626415253 m-25.521116256713867, 3.266702890396118 l0.0, -6.737574338912964 2.960449457168579, -0.8166757225990295 l3.4708717465400696, -0.20416893064975739 4.083378612995148, -1.7354358732700348 m-0.3062533959746361, -1.5312670171260834 l-0.6125067919492722, -1.1229290813207626 -0.8166757225990295, 0.7145912200212479 l-0.40833786129951477, 0.9187601506710052 -0.10208446532487869, 1.8375203013420105 l0.5104223266243935, -0.3062533959746361 1.8375203013420105, -4.083378612995148 l-2.1437737345695496, -0.10208446532487869 m2.960449457168579, 2.65419602394104 l0.0, 0.0 m0.0, 0.0 l-1.2250135838985443, 1.020844653248787 6.839659214019775, -0.9187601506710052 l7.1459126472473145, 0.3062533959746361 2.2458581626415253, 1.5312670171260834 l1.9396047294139862, 2.2458581626415253 m-4.79796975851059, -4.79796975851059 l1.7354358732700348, -4.593800902366638 0.20416893064975739, -2.960449457168579 l-2.4500271677970886, -2.2458581626415253 0.5104223266243935, -0.40833786129951477 l1.7354358732700348, 0.0 3.4708717465400696, 0.7145912200212479 l-2.5521114468574524, -1.020844653248787 -2.960449457168579, 0.10208446532487869 l-1.2250135838985443, 0.6125067919492722 m0.5104223266243935, -0.8166757225990295 l-1.2250135838985443, 0.20416893064975739 -1.2250135838985443, 1.020844653248787 l-0.7145912200212479, 1.2250135838985443 -0.10208446532487869, 1.1229290813207626 l0.6125067919492722, 0.40833786129951477 2.4500271677970886, 0.0 l3.368787169456482, -0.8166757225990295 " fill="none" stroke="black" stroke-width="1" /></svg>