<?xml version="1.0" encoding="utf-8" ?>
<svg baseProfile="full" height="29.49813261628151" version="1.1" width="66.86104595661163" xmlns="http://www.w3.org/2000/svg" xmlns:ev="http://www.w3.org/2001/xml-events" xmlns:xlink="http://www.w3.org/1999/xlink"><defs /><rect fill="white" height="29.49813261628151" width="66.86104595661163" x="0" y="0" /><path d="M7.654195167124271, 16.127206720411777 m-1.633351445198059, 1.4291824400424957 l-0.7145912200212479, 1.633351445198059 -0.20416893064975739, 2.347942590713501 l0.3062533959746361, 0.7145912200212479 1.8375203013420105, 0.8166757225990295 l3.0625340342521667, 0.10208446532487869 1.5312670171260834, -0.40833786129951477 l1.633351445198059, -0.9187601506710052 1.020844653248787, -1.633351445198059 l0.20416893064975739, -0.8166757225990295 0.0, -4.083378612995148 l-0.7145912200212479, -3.675040602684021 -0.9187601506710052, -2.65419602394104 l-0.5104223266243935, -0.6125067919492722 -1.8375203013420105, -0.10208446532487869 l-0.5104223266243935, 0.20416893064975739 -0.8166757225990295, 4.1854628920555115 l0.10208446532487869, 2.1437737345695496 m23.78567934036255, -0.6125067919492722 l-0.8166757225990295, 4.593800902366638 0.0, 3.4708717465400696 l0.9187601506710052, 1.5312670171260834 0.8166757225990295, 0.40833786129951477 l3.0625340342521667, 0.3062533959746361 1.5312670171260834, -0.8166757225990295 l2.1437737345695496, -1.9396047294139862 2.1437737345695496, -3.8792094588279724 l0.40833786129951477, -1.5312670171260834 0.0, -1.4291824400424957 l-1.633351445198059, -1.8375203013420105 -2.347942590713501, -1.633351445198059 l-1.9396047294139862, -0.6125067919492722 -1.9396047294139862, 0.20416893064975739 l-3.368787169456482, 1.9396047294139862 m3.368787169456482, 1.8375203013420105 l3.675040602684021, 5.716729760169983 m1.8375203013420105, -7.043827772140503 l-11.229290962219238, 9.493855237960815 m-21.641905307769775, -10.106362104415894 l4.287547469139099, 4.79796975851059 2.347942590713501, 1.32709801197052 m-0.10208446532487869, -5.104222893714905 l-4.79796975851059, 3.675040602684021 -5.002138614654541, 2.8583648800849915 m5.206307768821716, -11.535544395446777 l1.7354358732700348, -3.0625340342521667 1.5312670171260834, -0.8166757225990295 l11.841797828674316, 0.0 8.983432650566101, 1.4291824400424957 l6.737574338912964, 0.0 1.2250135838985443, 0.9187601506710052 l9.391770362854004, 0.20416893064975739 8.779264092445374, 1.4291824400424957 l1.4291824400424957, 0.0 " fill="none" stroke="black" stroke-width="1" /></svg>