<?xml version="1.0" encoding="utf-8" ?>
<svg baseProfile="full" height="34.90860942751169" version="1.1" width="71.96526758372784" xmlns="http://www.w3.org/2000/svg" xmlns:ev="http://www.w3.org/2001/xml-events" xmlns:xlink="http://www.w3.org/1999/xlink"><defs /><rect fill="white" height="34.90860942751169" width="71.96526758372784" x="0" y="0" /><path d="M17.658473551273346, 8.981294892728329 m-1.7354358732700348, -0.3062533959746361 l-3.5729563236236572, 0.5104223266243935 -1.8375203013420105, 1.1229290813207626 l-1.8375203013420105, 1.8375203013420105 -2.4500271677970886, 3.8792094588279724 l-1.020844653248787, 3.368787169456482 -0.20416893064975739, 2.5521114468574524 l0.20416893064975739, 1.32709801197052 1.7354358732700348, 2.5521114468574524 l2.7562806010246277, 2.347942590713501 3.675040602684021, 1.4291824400424957 l4.083378612995148, 0.0 2.1437737345695496, -0.9187601506710052 l3.0625340342521667, -2.65419602394104 2.65419602394104, -3.8792094588279724 l0.8166757225990295, -3.368787169456482 0.10208446532487869, -4.79796975851059 l-0.3062533959746361, -1.5312670171260834 -1.633351445198059, -2.347942590713501 l-1.1229290813207626, -0.8166757225990295 -2.347942590713501, -0.9187601506710052 l-5.512561202049255, -0.3062533959746361 -1.32709801197052, 0.20416893064975739 l-1.633351445198059, 1.2250135838985443 m53.90059471130371, 6.227152347564697 l-0.8166757225990295, -1.9396047294139862 -1.1229290813207626, -1.1229290813207626 l-2.041689306497574, -1.2250135838985443 -2.4500271677970886, -0.8166757225990295 l-3.4708717465400696, 0.0 -2.2458581626415253, 0.6125067919492722 l-2.041689306497574, 0.9187601506710052 -3.368787169456482, 2.65419602394104 l-2.2458581626415253, 2.960449457168579 -0.5104223266243935, 2.960449457168579 l0.3062533959746361, 1.9396047294139862 1.633351445198059, 3.1646183133125305 l2.5521114468574524, 2.5521114468574524 1.5312670171260834, 0.8166757225990295 l1.9396047294139862, 0.5104223266243935 5.512561202049255, 0.20416893064975739 l3.266702890396118, -1.2250135838985443 2.1437737345695496, -1.7354358732700348 l0.9187601506710052, -1.2250135838985443 0.6125067919492722, -1.4291824400424957 l0.6125067919492722, -3.0625340342521667 -0.10208446532487869, -2.65419602394104 l-0.5104223266243935, -1.32709801197052 -0.7145912200212479, -1.2250135838985443 l-1.8375203013420105, -1.633351445198059 -1.7354358732700348, -1.1229290813207626 l-1.7354358732700348, -0.6125067919492722 m-39.71085548400879, -5.30839204788208 l-0.3062533959746361, 1.9396047294139862 -5.104222893714905, 12.148051261901855 m0.9187601506710052, -16.33351445198059 l4.083378612995148, -0.10208446532487869 0.5104223266243935, 0.3062533959746361 l10.310530662536621, 0.5104223266243935 15.312669277191162, -0.3062533959746361 l0.5104223266243935, 1.633351445198059 3.266702890396118, 3.7771251797676086 l5.30839204788208, 7.247996926307678 1.4291824400424957, 1.1229290813207626 l0.8166757225990295, 1.1229290813207626 m-22.6627516746521, -14.291825294494629 l0.3062533959746361, 0.5104223266243935 0.0, 1.8375203013420105 " fill="none" stroke="black" stroke-width="1" /></svg>