<?xml version="1.0" encoding="utf-8" ?>
<svg baseProfile="full" height="44.30038023740053" version="1.1" width="59.20471254736185" xmlns="http://www.w3.org/2000/svg" xmlns:ev="http://www.w3.org/2001/xml-events" xmlns:xlink="http://www.w3.org/1999/xlink"><defs /><rect fill="white" height="44.30038023740053" width="59.20471254736185" x="0" y="0" /><path d="M7.756280526518822, 28.377342969179153 m-1.1229290813207626, 0.20416893064975739 l-0.8166757225990295, 1.1229290813207626 -0.6125067919492722, 1.8375203013420105 l-0.20416893064975739, 3.7771251797676086 0.20416893064975739, 1.633351445198059 l0.6125067919492722, 1.020844653248787 0.8166757225990295, 0.7145912200212479 l1.1229290813207626, 0.3062533959746361 2.8583648800849915, 0.20416893064975739 l2.347942590713501, -2.347942590713501 0.9187601506710052, -1.7354358732700348 l0.0, -0.9187601506710052 -1.2250135838985443, -2.041689306497574 l-2.5521114468574524, -2.041689306497574 -1.2250135838985443, -0.40833786129951477 l-0.8166757225990295, 0.8166757225990295 m2.1437737345695496, 1.2250135838985443 l1.2250135838985443, -2.960449457168579 2.347942590713501, -3.4708717465400696 l1.7354358732700348, -1.9396047294139862 1.5312670171260834, -2.7562806010246277 m17.558528184890747, 15.618922710418701 l1.4291824400424957, 0.9187601506710052 m11.127206087112427, -4.287547469139099 l-0.7145912200212479, -1.1229290813207626 -2.347942590713501, 1.2250135838985443 l-1.8375203013420105, 1.4291824400424957 -3.1646183133125305, 3.368787169456482 l-0.10208446532487869, 0.6125067919492722 0.6125067919492722, 0.20416893064975739 l3.5729563236236572, 0.7145912200212479 2.041689306497574, -0.10208446532487869 l0.8166757225990295, -0.6125067919492722 0.6125067919492722, -1.32709801197052 l0.9187601506710052, -4.287547469139099 0.10208446532487869, -2.2458581626415253 l-1.4291824400424957, 0.8166757225990295 -1.2250135838985443, 1.8375203013420105 m0.5104223266243935, -0.6125067919492722 l1.32709801197052, -2.960449457168579 4.900054335594177, -6.1250680685043335 l2.2458581626415253, -3.5729563236236572 m-38.48584175109863, 0.0 l5.818814635276794, 1.1229290813207626 13.168895244598389, 0.40833786129951477 l14.802247285842896, 2.1437737345695496 4.900054335594177, 0.20416893064975739 m-38.179588317871094, -3.98129403591156 l-1.020844653248787, -1.8375203013420105 0.0, -2.041689306497574 l2.041689306497574, -2.960449457168579 4.4917163252830505, -3.7771251797676086 l7.656334638595581, -4.389632046222687 0.40833786129951477, 0.5104223266243935 l-0.40833786129951477, 1.2250135838985443 -1.020844653248787, 1.4291824400424957 l-10.20844578742981, 11.33137583732605 -0.7145912200212479, 1.1229290813207626 l0.0, 0.8166757225990295 " fill="none" stroke="black" stroke-width="1" /></svg>