<?xml version="1.0" encoding="utf-8" ?>
<svg baseProfile="full" height="45.933730378746986" version="1.1" width="68.90273433178663" xmlns="http://www.w3.org/2000/svg" xmlns:ev="http://www.w3.org/2001/xml-events" xmlns:xlink="http://www.w3.org/1999/xlink"><defs /><rect fill="white" height="45.933730378746986" width="68.90273433178663" x="0" y="0" /><path d="M5.612504594027996, 12.55425039678812 m1.1229290813207626, -0.3062533959746361 l9.800108671188354, 1.7354358732700348 28.27739715576172, 2.2458581626415253 l5.512561202049255, 0.8166757225990295 0.20416893064975739, -0.7145912200212479 l-3.266702890396118, -7.860503792762756 -2.1437737345695496, -3.4708717465400696 m6.6354900598526, 12.658473253250122 l0.3062533959746361, -0.6125067919492722 0.0, -4.389632046222687 l3.368787169456482, -7.1459126472473145 m-5.104222893714905, 11.841797828674316 l0.5104223266243935, 3.266702890396118 0.0, 3.675040602684021 l3.4708717465400696, -0.10208446532487869 1.2250135838985443, 0.3062533959746361 l1.5312670171260834, 0.6125067919492722 3.1646183133125305, 2.041689306497574 l1.32709801197052, 1.1229290813207626 1.9396047294139862, 2.65419602394104 l0.40833786129951477, 3.7771251797676086 -0.7145912200212479, 1.2250135838985443 l-2.347942590713501, 2.2458581626415253 -3.4708717465400696, 1.633351445198059 l-4.083378612995148, 0.9187601506710052 -3.98129403591156, 0.0 l-1.633351445198059, -0.40833786129951477 -2.8583648800849915, -1.7354358732700348 l-1.020844653248787, -1.1229290813207626 -0.5104223266243935, -1.1229290813207626 l-0.3062533959746361, -1.32709801197052 0.10208446532487869, -2.960449457168579 l0.6125067919492722, -1.5312670171260834 1.8375203013420105, -2.8583648800849915 l2.4500271677970886, -2.2458581626415253 2.7562806010246277, -1.020844653248787 l1.2250135838985443, -0.10208446532487869 m-34.70871686935425, -9.59593951702118 l-0.10208446532487869, 8.370925784111023 0.6125067919492722, 5.410476326942444 l-1.8375203013420105, -0.40833786129951477 -3.8792094588279724, 0.20416893064975739 l-2.960449457168579, 1.2250135838985443 -1.32709801197052, 0.9187601506710052 l-2.041689306497574, 2.1437737345695496 -0.5104223266243935, 1.1229290813207626 l-0.20416893064975739, 2.2458581626415253 0.40833786129951477, 1.1229290813207626 l2.4500271677970886, 2.041689306497574 1.7354358732700348, 0.7145912200212479 l4.1854628920555115, 0.8166757225990295 4.287547469139099, -0.10208446532487869 l1.9396047294139862, -0.7145912200212479 3.368787169456482, -1.9396047294139862 l2.041689306497574, -2.4500271677970886 0.5104223266243935, -1.4291824400424957 l0.10208446532487869, -2.7562806010246277 -0.9187601506710052, -1.2250135838985443 l-1.32709801197052, -1.020844653248787 -3.5729563236236572, -1.32709801197052 l-5.410476326942444, -0.20416893064975739 -1.2250135838985443, 0.40833786129951477 m-0.3062533959746361, 1.5312670171260834 l0.5104223266243935, 4.695885181427002 1.7354358732700348, 6.839659214019775 m8.370925784111023, -10.820952653884888 l-1.5312670171260834, 0.40833786129951477 -4.593800902366638, 2.2458581626415253 l-9.698023796081543, 5.410476326942444 m1.8375203013420105, -7.554250359535217 l12.148051261901855, 9.59593951702118 m35.21914005279541, -14.495993852615356 l-4.593800902366638, 7.4521660804748535 -3.4708717465400696, 3.7771251797676086 l-1.8375203013420105, 1.5312670171260834 m-1.020844653248787, -9.698023796081543 l1.020844653248787, -0.3062533959746361 0.8166757225990295, 0.3062533959746361 l11.229290962219238, 8.677179217338562 m2.041689306497574, -3.5729563236236572 l-1.633351445198059, -0.9187601506710052 -5.30839204788208, -0.6125067919492722 l-6.533405780792236, -0.10208446532487869 -7.656334638595581, 0.6125067919492722 " fill="none" stroke="black" stroke-width="1" /></svg>