<?xml version="1.0" encoding="utf-8" ?>
<svg baseProfile="full" height="39.09407269209623" version="1.1" width="62.06307455897331" xmlns="http://www.w3.org/2000/svg" xmlns:ev="http://www.w3.org/2001/xml-events" xmlns:xlink="http://www.w3.org/1999/xlink"><defs /><rect fill="white" height="39.09407269209623" width="62.06307455897331" x="0" y="0" /><path d="M14.289686046540737, 10.614647008478642 m-1.633351445198059, -0.5104223266243935 l-1.9396047294139862, 0.10208446532487869 -2.5521114468574524, 0.7145912200212479 l-2.65419602394104, 1.4291824400424957 -0.3062533959746361, 1.5312670171260834 l0.3062533959746361, 4.593800902366638 1.4291824400424957, 6.533405780792236 l3.675040602684021, 4.1854628920555115 4.287547469139099, 2.7562806010246277 l1.8375203013420105, -1.020844653248787 3.98129403591156, -5.818814635276794 l0.40833786129951477, -1.020844653248787 -0.3062533959746361, -2.1437737345695496 l-0.9187601506710052, -2.8583648800849915 -3.0625340342521667, -5.104222893714905 l-1.4291824400424957, -1.8375203013420105 -1.32709801197052, -1.020844653248787 m37.26082801818848, 1.8375203013420105 l-10.718868970870972, -0.20416893064975739 -1.9396047294139862, 1.2250135838985443 l-0.7145912200212479, 2.347942590713501 -0.20416893064975739, 2.4500271677970886 l1.2250135838985443, 4.695885181427002 1.9396047294139862, 2.7562806010246277 l1.4291824400424957, 0.5104223266243935 4.79796975851059, 0.7145912200212479 l4.593800902366638, 0.3062533959746361 0.5104223266243935, -0.40833786129951477 l0.6125067919492722, -2.041689306497574 -0.3062533959746361, -3.4708717465400696 l-2.2458581626415253, -6.227152347564697 -1.4291824400424957, -1.7354358732700348 m-3.1646183133125305, -1.1229290813207626 l0.8166757225990295, 21.335651874542236 -1.020844653248787, -2.347942590713501 l-0.20416893064975739, -1.7354358732700348 m-6.022983193397522, -8.983432650566101 l11.433459520339966, -0.40833786129951477 6.329236626625061, 0.40833786129951477 m-46.65259838104248, -10.718868970870972 l1.4291824400424957, 1.8375203013420105 2.4500271677970886, 5.002138614654541 l1.2250135838985443, 4.1854628920555115 1.2250135838985443, 7.758418917655945 m-11.739712953567505, -6.737574338912964 l14.291825294494629, -1.5312670171260834 m-5.614645481109619, -9.800108671188354 l7.043827772140503, -1.2250135838985443 2.7562806010246277, -0.8166757225990295 l5.410476326942444, -0.5104223266243935 7.350081205368042, 0.7145912200212479 l5.002138614654541, 2.041689306497574 0.9187601506710052, 0.8166757225990295 m-28.27739715576172, -2.041689306497574 l0.20416893064975739, -5.002138614654541 " fill="none" stroke="black" stroke-width="1" /></svg>