<?xml version="1.0" encoding="utf-8" ?>
<svg baseProfile="full" height="55.835924707353115" version="1.1" width="56.7546845972538" xmlns="http://www.w3.org/2000/svg" xmlns:ev="http://www.w3.org/2001/xml-events" xmlns:xlink="http://www.w3.org/1999/xlink"><defs /><rect fill="white" height="55.835924707353115" width="56.7546845972538" x="0" y="0" /><path d="M44.60877072066069, 31.644044741988182 m0.20416893064975739, -1.020844653248787 l-0.7145912200212479, -2.5521114468574524 -3.266702890396118, -4.4917163252830505 l-2.5521114468574524, -1.7354358732700348 -0.20416893064975739, -0.7145912200212479 l-0.9187601506710052, -0.3062533959746361 -1.633351445198059, 0.0 l-0.6125067919492722, 0.3062533959746361 -1.2250135838985443, 1.633351445198059 l0.0, 1.020844653248787 -0.8166757225990295, 2.1437737345695496 l-0.8166757225990295, 8.779264092445374 0.20416893064975739, 4.287547469139099 l1.8375203013420105, 2.8583648800849915 1.7354358732700348, 1.020844653248787 l2.4500271677970886, 0.10208446532487869 6.6354900598526, -0.9187601506710052 l1.020844653248787, 0.3062533959746361 0.3062533959746361, -0.5104223266243935 l0.10208446532487869, -1.8375203013420105 -0.8166757225990295, -5.512561202049255 l-0.7145912200212479, -2.041689306497574 -0.5104223266243935, -3.368787169456482 m-32.564942836761475, -10.820952653884888 l-0.20416893064975739, 0.5104223266243935 -1.020844653248787, 0.5104223266243935 l-2.8583648800849915, 0.10208446532487869 -1.1229290813207626, 0.40833786129951477 l-0.7145912200212479, 0.40833786129951477 -0.6125067919492722, 0.9187601506710052 l-0.20416893064975739, 10.61678409576416 1.32709801197052, 5.920898914337158 l2.347942590713501, 5.920898914337158 1.7354358732700348, 2.347942590713501 l2.65419602394104, 2.7562806010246277 2.7562806010246277, 1.8375203013420105 l3.266702890396118, 0.3062533959746361 2.1437737345695496, -1.1229290813207626 l0.5104223266243935, -1.020844653248787 0.20416893064975739, -1.7354358732700348 l0.20416893064975739, -5.614645481109619 -0.5104223266243935, -1.9396047294139862 l-0.3062533959746361, -3.8792094588279724 -1.1229290813207626, -3.5729563236236572 l-1.9396047294139862, -3.98129403591156 -2.8583648800849915, -3.0625340342521667 l-0.10208446532487869, -0.5104223266243935 -2.347942590713501, -2.5521114468574524 l-0.10208446532487869, -0.5104223266243935 -2.4500271677970886, -1.9396047294139862 l-1.020844653248787, -0.40833786129951477 -1.020844653248787, 0.0 l0.0, 0.3062533959746361 m4.4917163252830505, 1.8375203013420105 l2.65419602394104, 0.3062533959746361 8.166757225990295, 3.368787169456482 l4.593800902366638, 0.5104223266243935 5.30839204788208, 1.32709801197052 l0.20416893064975739, -0.40833786129951477 m-12.148051261901855, -2.960449457168579 l-0.6125067919492722, -2.8583648800849915 -3.98129403591156, -8.166757225990295 l-0.20416893064975739, 0.5104223266243935 -1.9396047294139862, 0.5104223266243935 l-2.4500271677970886, -1.2250135838985443 -0.20416893064975739, -1.2250135838985443 l0.40833786129951477, -0.7145912200212479 1.1229290813207626, -0.6125067919492722 l1.1229290813207626, 0.0 0.5104223266243935, 0.3062533959746361 l1.020844653248787, 0.9187601506710052 0.5104223266243935, 1.1229290813207626 m8.26884150505066, 13.168895244598389 l2.347942590713501, -1.9396047294139862 2.7562806010246277, -0.7145912200212479 l5.614645481109619, -2.65419602394104 0.9187601506710052, -1.5312670171260834 l1.633351445198059, -1.5312670171260834 0.0, -0.5104223266243935 l2.347942590713501, -1.2250135838985443 2.4500271677970886, -1.8375203013420105 m-0.3062533959746361, 0.0 l4.083378612995148, 0.0 1.7354358732700348, -0.3062533959746361 l1.5312670171260834, -0.9187601506710052 0.5104223266243935, -0.5104223266243935 l0.10208446532487869, -0.7145912200212479 m-8.26884150505066, 1.9396047294139862 l-2.65419602394104, -3.368787169456482 -0.20416893064975739, -2.7562806010246277 l0.40833786129951477, -0.6125067919492722 m0.0, 0.0 l0.10208446532487869, 0.5104223266243935 -0.6125067919492722, 0.40833786129951477 l-0.10208446532487869, -1.2250135838985443 0.3062533959746361, -0.5104223266243935 l-0.3062533959746361, 1.4291824400424957 0.7145912200212479, -1.020844653248787 m11.229290962219238, 4.695885181427002 l-0.10208446532487869, 0.5104223266243935 -0.5104223266243935, -0.6125067919492722 l0.0, -0.5104223266243935 0.20416893064975739, 2.1437737345695496 l0.10208446532487869, -1.9396047294139862 0.5104223266243935, -0.9187601506710052 " fill="none" stroke="black" stroke-width="1" /></svg>