<?xml version="1.0" encoding="utf-8" ?>
<svg baseProfile="full" height="53.998402804136276" version="1.1" width="63.186006136238575" xmlns="http://www.w3.org/2000/svg" xmlns:ev="http://www.w3.org/2001/xml-events" xmlns:xlink="http://www.w3.org/1999/xlink"><defs /><rect fill="white" height="53.998402804136276" width="63.186006136238575" x="0" y="0" /><path d="M17.14805096387863, 20.414753034710884 m-1.2250135838985443, -0.3062533959746361 l-2.8583648800849915, 0.0 -1.9396047294139862, 1.020844653248787 l-1.32709801197052, 1.2250135838985443 -2.1437737345695496, 3.1646183133125305 l-1.020844653248787, 2.347942590713501 -0.9187601506710052, 2.65419602394104 l-0.7145912200212479, 4.4917163252830505 0.10208446532487869, 3.1646183133125305 l0.40833786129951477, 1.020844653248787 1.8375203013420105, 2.2458581626415253 l4.4917163252830505, 2.4500271677970886 3.266702890396118, 0.20416893064975739 l1.32709801197052, -0.5104223266243935 1.2250135838985443, -1.1229290813207626 l1.7354358732700348, -3.0625340342521667 1.32709801197052, -3.7771251797676086 l-0.20416893064975739, -3.7771251797676086 -1.020844653248787, -3.675040602684021 l-2.2458581626415253, -3.7771251797676086 -2.347942590713501, -2.347942590713501 l-2.1437737345695496, -0.8166757225990295 -1.1229290813207626, -0.10208446532487869 m34.60663318634033, 4.287547469139099 l-2.1437737345695496, 0.0 -1.8375203013420105, 0.7145912200212479 l-2.5521114468574524, 1.633351445198059 -4.083378612995148, 3.4708717465400696 l-2.4500271677970886, 3.4708717465400696 -0.5104223266243935, 1.2250135838985443 l-0.20416893064975739, 2.1437737345695496 0.0, 1.020844653248787 l1.020844653248787, 2.7562806010246277 2.8583648800849915, 3.5729563236236572 l1.7354358732700348, 1.5312670171260834 1.7354358732700348, 1.1229290813207626 l2.2458581626415253, 0.8166757225990295 3.0625340342521667, 0.10208446532487869 l1.2250135838985443, -0.5104223266243935 2.7562806010246277, -1.9396047294139862 l1.8375203013420105, -2.1437737345695496 1.8375203013420105, -3.368787169456482 l0.40833786129951477, -4.389632046222687 -1.1229290813207626, -2.347942590713501 l-1.8375203013420105, -2.4500271677970886 -2.2458581626415253, -1.9396047294139862 l-3.8792094588279724, -2.347942590713501 -4.695885181427002, -1.9396047294139862 m-30.931591987609863, -12.352219820022583 l5.716729760169983, 0.6125067919492722 3.0625340342521667, 0.9187601506710052 l2.347942590713501, 1.633351445198059 1.633351445198059, 1.9396047294139862 l3.98129403591156, 7.1459126472473145 0.5104223266243935, 1.5312670171260834 l0.40833786129951477, 7.860503792762756 0.40833786129951477, 1.020844653248787 l0.5104223266243935, -3.98129403591156 2.347942590713501, -8.881348371505737 l0.7145912200212479, -1.32709801197052 1.32709801197052, -1.020844653248787 l1.9396047294139862, -0.5104223266243935 1.8375203013420105, 0.0 l9.187601804733276, 1.633351445198059 13.2709801197052, 0.0 l0.5104223266243935, -0.3062533959746361 -1.32709801197052, -0.20416893064975739 l-2.7562806010246277, 0.0 m-37.97542095184326, -7.043827772140503 l0.6125067919492722, -2.1437737345695496 1.8375203013420105, -3.5729563236236572 l1.2250135838985443, -1.1229290813207626 3.1646183133125305, -1.5312670171260834 l2.5521114468574524, -0.6125067919492722 5.002138614654541, -0.3062533959746361 l4.389632046222687, 1.020844653248787 0.20416893064975739, 0.7145912200212479 m-18.98771047592163, 23.887765407562256 l-2.4500271677970886, 3.98129403591156 -4.083378612995148, 5.206307768821716 m-1.1229290813207626, -11.943882703781128 l8.575094938278198, 7.860503792762756 1.9396047294139862, 2.4500271677970886 l2.4500271677970886, 1.8375203013420105 " fill="none" stroke="black" stroke-width="1" /></svg>