<?xml version="1.0" encoding="utf-8" ?>
<svg baseProfile="full" height="49.60877172648907" version="1.1" width="53.385896645486355" xmlns="http://www.w3.org/2000/svg" xmlns:ev="http://www.w3.org/2001/xml-events" xmlns:xlink="http://www.w3.org/1999/xlink"><defs /><rect fill="white" height="49.60877172648907" width="53.385896645486355" x="0" y="0" /><path d="M16.433460116386414, 21.63976777344942 m-2.041689306497574, 0.20416893064975739 l-2.1437737345695496, 0.8166757225990295 -2.960449457168579, 2.1437737345695496 l-2.7562806010246277, 3.368787169456482 -1.5312670171260834, 3.98129403591156 l0.0, 4.389632046222687 0.9187601506710052, 2.2458581626415253 l1.2250135838985443, 1.9396047294139862 3.1646183133125305, 2.4500271677970886 l1.633351445198059, 0.6125067919492722 3.98129403591156, 0.10208446532487869 l1.7354358732700348, -1.2250135838985443 1.5312670171260834, -2.041689306497574 l1.1229290813207626, -2.65419602394104 0.8166757225990295, -3.1646183133125305 l0.5104223266243935, -3.1646183133125305 0.0, -3.1646183133125305 l-0.20416893064975739, -3.0625340342521667 -0.9187601506710052, -2.2458581626415253 l-0.9187601506710052, -1.1229290813207626 -1.1229290813207626, -0.6125067919492722 l-3.5729563236236572, -0.6125067919492722 m4.79796975851059, -1.1229290813207626 l-6.227152347564697, -0.9187601506710052 -6.022983193397522, 0.10208446532487869 m12.148051261901855, 1.020844653248787 l3.98129403591156, -0.10208446532487869 8.26884150505066, -1.4291824400424957 l7.96258807182312, 0.20416893064975739 3.8792094588279724, -0.7145912200212479 m-3.7771251797676086, 0.0 l-1.7354358732700348, 0.5104223266243935 -0.6125067919492722, 0.6125067919492722 l-1.7354358732700348, 3.675040602684021 -1.020844653248787, 5.410476326942444 l0.20416893064975739, 8.983432650566101 0.5104223266243935, 2.1437737345695496 l1.8375203013420105, 3.4708717465400696 1.32709801197052, 1.2250135838985443 l1.32709801197052, 0.6125067919492722 2.960449457168579, 0.10208446532487869 l1.4291824400424957, -0.7145912200212479 1.32709801197052, -1.32709801197052 l1.1229290813207626, -1.633351445198059 0.8166757225990295, -1.9396047294139862 l0.40833786129951477, -2.2458581626415253 0.3062533959746361, -6.022983193397522 l-0.10208446532487869, -3.4708717465400696 -0.7145912200212479, -2.960449457168579 l-0.8166757225990295, -1.9396047294139862 -1.020844653248787, -1.32709801197052 l-3.4708717465400696, -1.7354358732700348 -1.8375203013420105, -0.6125067919492722 l-1.9396047294139862, -0.20416893064975739 -1.633351445198059, 0.20416893064975739 l-0.8166757225990295, 0.5104223266243935 m3.98129403591156, -1.8375203013420105 l0.40833786129951477, -0.5104223266243935 0.3062533959746361, -6.533405780792236 l-4.900054335594177, -0.5104223266243935 5.716729760169983, 0.10208446532487869 l3.7771251797676086, -0.6125067919492722 -0.3062533959746361, 0.7145912200212479 l-1.5312670171260834, 1.1229290813207626 0.3062533959746361, -0.9187601506710052 l2.5521114468574524, -2.7562806010246277 1.7354358732700348, -2.4500271677970886 " fill="none" stroke="black" stroke-width="1" /></svg>