<?xml version="1.0" encoding="utf-8" ?>
<svg baseProfile="full" height="70.02566434442997" version="1.1" width="96.36345516890287" xmlns="http://www.w3.org/2000/svg" xmlns:ev="http://www.w3.org/2001/xml-events" xmlns:xlink="http://www.w3.org/1999/xlink"><defs /><rect fill="white" height="70.02566434442997" width="96.36345516890287" x="0" y="0" /><path d="M14.595939256250858, 65.02566434442997 m-2.8583648800849915, -2.4500271677970886 l-0.9187601506710052, -2.2458581626415253 -0.6125067919492722, -3.8792094588279724 l0.20416893064975739, -9.902192950248718 1.633351445198059, -5.512561202049255 l3.675040602684021, -6.839659214019775 1.2250135838985443, -1.5312670171260834 l1.4291824400424957, -1.1229290813207626 3.7771251797676086, -0.9187601506710052 l3.675040602684021, 0.10208446532487869 2.2458581626415253, 0.7145912200212479 l1.8375203013420105, 1.7354358732700348 3.675040602684021, 4.695885181427002 l2.4500271677970886, 4.593800902366638 0.3062533959746361, 5.818814635276794 l-0.40833786129951477, 1.7354358732700348 -1.32709801197052, 3.368787169456482 l-2.041689306497574, 2.7562806010246277 -1.020844653248787, 0.8166757225990295 l-3.368787169456482, 1.4291824400424957 -4.79796975851059, 0.6125067919492722 l-14.700162410736084, 0.0 -3.4708717465400696, -0.3062533959746361 l-0.20416893064975739, -0.6125067919492722 0.3062533959746361, -1.020844653248787 m22.764835357666016, -26.23570680618286 l1.1229290813207626, -4.389632046222687 1.5312670171260834, -3.0625340342521667 l1.32709801197052, -5.614645481109619 3.98129403591156, 2.347942590713501 l7.860503792762756, 2.1437737345695496 2.5521114468574524, 0.40833786129951477 l12.658473253250122, -0.10208446532487869 3.98129403591156, -0.5104223266243935 l1.633351445198059, -0.6125067919492722 1.5312670171260834, -6.941743493080139 l-5.512561202049255, 0.10208446532487869 -1.1229290813207626, -0.6125067919492722 l0.5104223266243935, -0.20416893064975739 6.329236626625061, 1.633351445198059 l3.98129403591156, -0.10208446532487869 2.347942590713501, -1.020844653248787 l1.7354358732700348, -2.041689306497574 -14.189740419387817, 0.10208446532487869 l-0.40833786129951477, 0.6125067919492722 0.0, 0.7145912200212479 l0.8166757225990295, 1.633351445198059 1.4291824400424957, 0.0 m2.347942590713501, 6.329236626625061 l0.20416893064975739, 1.32709801197052 5.002138614654541, 12.250136137008667 l0.20416893064975739, 1.8375203013420105 -0.3062533959746361, 1.7354358732700348 l-0.5104223266243935, 0.3062533959746361 -1.1229290813207626, 1.8375203013420105 l-1.2250135838985443, 2.8583648800849915 -0.8166757225990295, 5.716729760169983 l0.0, 2.347942590713501 1.7354358732700348, 3.7771251797676086 l1.020844653248787, 1.5312670171260834 2.347942590713501, 2.347942590713501 l2.041689306497574, 0.8166757225990295 2.347942590713501, -0.10208446532487869 l6.737574338912964, -4.083378612995148 4.083378612995148, -3.368787169456482 l3.266702890396118, -4.79796975851059 1.5312670171260834, -4.389632046222687 l0.3062533959746361, -4.389632046222687 -0.20416893064975739, -0.9187601506710052 l-1.4291824400424957, -2.041689306497574 -4.287547469139099, -3.7771251797676086 l-0.5104223266243935, -0.8166757225990295 -2.7562806010246277, -1.1229290813207626 l-2.5521114468574524, -0.10208446532487869 -1.8375203013420105, 0.5104223266243935 l-2.2458581626415253, 1.2250135838985443 -5.30839204788208, 4.083378612995148 l-1.4291824400424957, 1.8375203013420105 -0.6125067919492722, 1.32709801197052 l-1.4291824400424957, 4.389632046222687 0.20416893064975739, -2.347942590713501 m-35.117056369781494, -24.398186206817627 l-11.535544395446777, -0.10208446532487869 -5.818814635276794, -1.020844653248787 l2.8583648800849915, 0.20416893064975739 m14.598078727722168, 1.633351445198059 l2.041689306497574, -3.266702890396118 2.65419602394104, -2.7562806010246277 l5.716729760169983, -3.675040602684021 5.716729760169983, -3.0625340342521667 " fill="none" stroke="black" stroke-width="1" /></svg>