<?xml version="1.0" encoding="utf-8" ?>
<svg baseProfile="full" height="30.72314627468586" version="1.1" width="37.0523826032877" xmlns="http://www.w3.org/2000/svg" xmlns:ev="http://www.w3.org/2001/xml-events" xmlns:xlink="http://www.w3.org/1999/xlink"><defs /><rect fill="white" height="30.72314627468586" width="37.0523826032877" x="0" y="0" /><path d="M25.11063914746046, 17.454304695129395 m0.10208446532487869, -3.0625340342521667 l-1.020844653248787, -5.920898914337158 -0.8166757225990295, -1.8375203013420105 l-1.9396047294139862, -1.633351445198059 m4.79796975851059, 10.61678409576416 l1.1229290813207626, -2.7562806010246277 0.5104223266243935, -3.0625340342521667 l1.8375203013420105, -3.5729563236236572 0.9187601506710052, -0.9187601506710052 l0.5104223266243935, 0.0 0.9187601506710052, 1.020844653248787 l0.0, 0.6125067919492722 m-6.431320905685425, 9.085517525672913 l-0.6125067919492722, 1.1229290813207626 -4.083378612995148, 2.7562806010246277 l-2.65419602394104, 0.7145912200212479 -5.920898914337158, 0.0 l-1.9396047294139862, -0.7145912200212479 -3.266702890396118, -1.8375203013420105 l-2.1437737345695496, -2.960449457168579 m16.129344701766968, 5.818814635276794 l0.10208446532487869, 1.1229290813207626 1.32709801197052, 1.7354358732700348 l1.633351445198059, 1.32709801197052 1.32709801197052, 0.5104223266243935 l2.960449457168579, 0.10208446532487869 0.7145912200212479, -0.3062533959746361 l0.5104223266243935, -1.2250135838985443 0.20416893064975739, -3.0625340342521667 l-0.6125067919492722, -1.5312670171260834 -1.9396047294139862, -2.041689306497574 l-2.041689306497574, -1.5312670171260834 -3.368787169456482, -1.2250135838985443 m-15.312669277191162, 4.79796975851059 l0.3062533959746361, 2.1437737345695496 2.7562806010246277, 2.4500271677970886 l5.614645481109619, 0.0 0.6125067919492722, -0.3062533959746361 l0.40833786129951477, -0.7145912200212479 0.0, -1.7354358732700348 l-1.7354358732700348, -2.960449457168579 -1.32709801197052, -1.2250135838985443 m-1.5312670171260834, 2.5521114468574524 l-0.7145912200212479, -1.5312670171260834 0.0, -2.65419602394104 l1.32709801197052, -2.65419602394104 2.65419602394104, -1.8375203013420105 l4.1854628920555115, -0.20416893064975739 1.1229290813207626, 0.40833786129951477 l0.7145912200212479, 0.8166757225990295 1.020844653248787, 2.2458581626415253 l1.020844653248787, 6.022983193397522 0.0, 4.1854628920555115 " fill="none" stroke="black" stroke-width="1" /></svg>