<?xml version="1.0" encoding="utf-8" ?>
<svg baseProfile="full" height="31.23356893658638" version="1.1" width="53.7942348793149" xmlns="http://www.w3.org/2000/svg" xmlns:ev="http://www.w3.org/2001/xml-events" xmlns:xlink="http://www.w3.org/1999/xlink"><defs /><rect fill="white" height="31.23356893658638" width="53.7942348793149" x="0" y="0" /><path d="M11.737574748694897, 12.75841984897852 m-0.20416893064975739, -0.7145912200212479 l-0.8166757225990295, 0.0 -2.7562806010246277, 1.633351445198059 l-1.5312670171260834, 1.7354358732700348 -1.1229290813207626, 2.5521114468574524 l-0.3062533959746361, 4.083378612995148 1.32709801197052, 2.2458581626415253 l1.020844653248787, 0.9187601506710052 2.4500271677970886, 0.9187601506710052 l3.4708717465400696, 0.10208446532487869 1.633351445198059, -0.5104223266243935 l1.4291824400424957, -1.1229290813207626 1.020844653248787, -1.633351445198059 l0.6125067919492722, -1.7354358732700348 0.3062533959746361, -4.1854628920555115 l-0.10208446532487869, -1.8375203013420105 -0.5104223266243935, -1.5312670171260834 l-1.020844653248787, -1.1229290813207626 -2.65419602394104, -0.9187601506710052 l-2.4500271677970886, -0.10208446532487869 -0.7145912200212479, 0.7145912200212479 m34.60663318634033, 0.8166757225990295 l-0.8166757225990295, -0.40833786129951477 -1.4291824400424957, 0.0 l-2.7562806010246277, 0.8166757225990295 -2.8583648800849915, 2.5521114468574524 l-0.9187601506710052, 1.7354358732700348 -0.10208446532487869, 1.8375203013420105 l0.10208446532487869, 0.9187601506710052 0.8166757225990295, 0.6125067919492722 l1.1229290813207626, 0.40833786129951477 2.960449457168579, 0.10208446532487869 l1.7354358732700348, -0.40833786129951477 2.65419602394104, -1.7354358732700348 l1.9396047294139862, -2.1437737345695496 0.9187601506710052, -2.4500271677970886 l0.0, -1.9396047294139862 -0.6125067919492722, -0.9187601506710052 l-1.1229290813207626, -0.5104223266243935 m-27.562804222106934, 1.9396047294139862 l4.083378612995148, 0.0 5.614645481109619, -1.020844653248787 l3.0625340342521667, -0.20416893064975739 3.98129403591156, -0.9187601506710052 l3.0625340342521667, 2.2458581626415253 1.633351445198059, 1.633351445198059 l-1.1229290813207626, -1.9396047294139862 -1.9396047294139862, -1.633351445198059 l3.8792094588279724, 5.104222893714905 -3.5729563236236572, -6.1250680685043335 l-1.020844653248787, -1.020844653248787 0.5104223266243935, 2.1437737345695496 l-0.10208446532487869, -0.8166757225990295 -1.7354358732700348, -2.8583648800849915 l-0.3062533959746361, 1.7354358732700348 0.0, -3.5729563236236572 l0.10208446532487869, 3.8792094588279724 -0.40833786129951477, -5.104222893714905 l-0.20416893064975739, 3.5729563236236572 m0.3062533959746361, -1.5312670171260834 l-7.043827772140503, -1.1229290813207626 -4.593800902366638, 3.4708717465400696 l-4.1854628920555115, 2.4500271677970886 " fill="none" stroke="black" stroke-width="1" /></svg>