<?xml version="1.0" encoding="utf-8" ?>
<svg baseProfile="full" height="50.01711029559374" version="1.1" width="74.72155004739761" xmlns="http://www.w3.org/2000/svg" xmlns:ev="http://www.w3.org/2001/xml-events" xmlns:xlink="http://www.w3.org/1999/xlink"><defs /><rect fill="white" height="50.01711029559374" width="74.72155004739761" x="0" y="0" /><path d="M21.946020685136318, 25.51897745579481 m-6.737574338912964, -0.20416893064975739 l-4.4917163252830505, 1.7354358732700348 -2.7562806010246277, 1.5312670171260834 l-1.4291824400424957, 1.2250135838985443 -0.5104223266243935, 1.2250135838985443 l-0.6125067919492722, 1.7354358732700348 -0.40833786129951477, 2.7562806010246277 l0.10208446532487869, 4.900054335594177 1.2250135838985443, 1.5312670171260834 l1.7354358732700348, 1.32709801197052 1.8375203013420105, 0.8166757225990295 l4.4917163252830505, 0.9187601506710052 8.064672350883484, 0.0 l2.8583648800849915, -0.8166757225990295 3.1646183133125305, -1.5312670171260834 l1.7354358732700348, -1.9396047294139862 0.6125067919492722, -1.7354358732700348 l0.20416893064975739, -6.431320905685425 -1.32709801197052, -2.7562806010246277 l-1.32709801197052, -1.8375203013420105 -2.347942590713501, -2.041689306497574 l-1.8375203013420105, -0.5104223266243935 -5.614645481109619, 0.0 m38.2816743850708, -1.8375203013420105 l-3.8792094588279724, 0.0 -3.98129403591156, 1.1229290813207626 l-3.266702890396118, 2.041689306497574 -3.1646183133125305, 2.8583648800849915 l-1.2250135838985443, 2.7562806010246277 -0.40833786129951477, 2.960449457168579 l0.10208446532487869, 3.266702890396118 1.633351445198059, 2.1437737345695496 l1.7354358732700348, 0.9187601506710052 4.287547469139099, 1.4291824400424957 l4.083378612995148, 0.5104223266243935 5.002138614654541, -0.10208446532487869 l1.9396047294139862, -0.40833786129951477 6.6354900598526, -3.266702890396118 l2.65419602394104, -2.7562806010246277 0.7145912200212479, -2.1437737345695496 l0.0, -4.389632046222687 -1.9396047294139862, -4.593800902366638 l-2.041689306497574, -2.7562806010246277 -2.65419602394104, -1.4291824400424957 l-5.30839204788208, -1.5312670171260834 -2.65419602394104, 0.0 l-1.020844653248787, 0.10208446532487869 -2.8583648800849915, 1.8375203013420105 l-0.9187601506710052, 0.9187601506710052 -1.633351445198059, 3.368787169456482 m5.30839204788208, 6.6354900598526 l0.0, 0.0 m0.3062533959746361, 0.0 l-0.7145912200212479, -1.2250135838985443 -2.4500271677970886, -2.347942590713501 l-1.32709801197052, -2.1437737345695496 -6.329236626625061, -7.350081205368042 l-2.1437737345695496, -1.8375203013420105 -2.5521114468574524, -1.4291824400424957 m-21.437737941741943, 16.741851568222046 l5.104222893714905, -5.512561202049255 5.206307768821716, -6.839659214019775 l1.32709801197052, -1.1229290813207626 1.9396047294139862, -2.4500271677970886 l2.7562806010246277, -2.347942590713501 m-27.052383422851562, 2.041689306497574 l10.514699220657349, 0.0 10.412615537643433, -0.5104223266243935 l20.92731475830078, 0.0 14.700162410736084, -1.9396047294139862 l3.98129403591156, -0.9187601506710052 0.10208446532487869, -2.5521114468574524 l-1.633351445198059, -3.7771251797676086 m-4.1854628920555115, -0.8166757225990295 l5.002138614654541, -1.7354358732700348 " fill="none" stroke="black" stroke-width="1" /></svg>