<?xml version="1.0" encoding="utf-8" ?>
<svg baseProfile="full" height="41.33993037045002" version="1.1" width="67.88189120590687" xmlns="http://www.w3.org/2000/svg" xmlns:ev="http://www.w3.org/2001/xml-events" xmlns:xlink="http://www.w3.org/1999/xlink"><defs /><rect fill="white" height="41.33993037045002" width="67.88189120590687" x="0" y="0" /><path d="M18.475149013102055, 23.78354139626026 m-0.10208446532487869, -1.9396047294139862 l-1.2250135838985443, -1.9396047294139862 -0.7145912200212479, -0.40833786129951477 l-2.1437737345695496, 0.0 -1.633351445198059, 0.40833786129951477 l-5.410476326942444, 3.675040602684021 -1.633351445198059, 1.7354358732700348 l-0.6125067919492722, 2.4500271677970886 0.0, 2.8583648800849915 l1.020844653248787, 1.5312670171260834 2.2458581626415253, 2.347942590713501 l1.8375203013420105, 0.9187601506710052 1.5312670171260834, 0.7145912200212479 l1.5312670171260834, 0.20416893064975739 1.8375203013420105, 0.0 l0.7145912200212479, -0.40833786129951477 4.4917163252830505, -5.818814635276794 l0.40833786129951477, -1.4291824400424957 -0.10208446532487869, -3.266702890396118 l-1.2250135838985443, -2.960449457168579 -1.2250135838985443, -1.8375203013420105 l-0.5104223266243935, -2.1437737345695496 m2.2458581626415253, 4.1854628920555115 l32.36077547073364, -0.10208446532487869 m7.860503792762756, -0.7145912200212479 l-5.512561202049255, 0.20416893064975739 -2.65419602394104, 0.5104223266243935 l-1.4291824400424957, 0.7145912200212479 -1.32709801197052, 3.368787169456482 l-0.20416893064975739, 2.4500271677970886 0.10208446532487869, 2.7562806010246277 l0.8166757225990295, 1.9396047294139862 0.5104223266243935, 0.5104223266243935 l2.5521114468574524, 1.020844653248787 4.083378612995148, -0.10208446532487869 l1.4291824400424957, -0.6125067919492722 4.083378612995148, -4.1854628920555115 l0.40833786129951477, -0.8166757225990295 -0.20416893064975739, -4.593800902366638 l-0.5104223266243935, -1.1229290813207626 -1.4291824400424957, -1.7354358732700348 l-1.9396047294139862, -1.4291824400424957 m-6.431320905685425, -8.881348371505737 l-0.20416893064975739, 10.412615537643433 -0.20416893064975739, 0.7145912200212479 l-0.3062533959746361, -0.40833786129951477 m0.40833786129951477, -9.902192950248718 l8.064672350883484, -6.227152347564697 m-8.779264092445374, 4.4917163252830505 l-4.287547469139099, -4.1854628920555115 -1.2250135838985443, -1.7354358732700348 m-19.19187903404236, 16.94602131843567 l0.0, -2.960449457168579 0.8166757225990295, -4.900054335594177 l0.7145912200212479, -0.10208446532487869 2.041689306497574, 0.5104223266243935 l0.9187601506710052, 1.020844653248787 -0.3062533959746361, 0.5104223266243935 " fill="none" stroke="black" stroke-width="1" /></svg>