<?xml version="1.0" encoding="utf-8" ?>
<svg baseProfile="full" height="37.154467701911926" version="1.1" width="49.812939912080765" xmlns="http://www.w3.org/2000/svg" xmlns:ev="http://www.w3.org/2001/xml-events" xmlns:xlink="http://www.w3.org/1999/xlink"><defs /><rect fill="white" height="37.154467701911926" width="49.812939912080765" x="0" y="0" /><path d="M5, 5 m0.0, 1.2250135838985443 l0.6125067919492722, 0.40833786129951477 0.20416893064975739, 0.6125067919492722 l1.633351445198059, 1.633351445198059 3.675040602684021, 2.2458581626415253 l3.4708717465400696, 1.020844653248787 2.4500271677970886, 0.0 l2.8583648800849915, 0.6125067919492722 4.4917163252830505, 0.0 l1.2250135838985443, -1.4291824400424957 m-8.575094938278198, 1.2250135838985443 l-6.1250680685043335, 6.1250680685043335 -1.2250135838985443, 1.8375203013420105 l-1.2250135838985443, 2.2458581626415253 -0.8166757225990295, 2.4500271677970886 l-0.40833786129951477, 2.8583648800849915 1.4291824400424957, 1.633351445198059 l1.8375203013420105, 1.020844653248787 4.287547469139099, 0.8166757225990295 l4.4917163252830505, -0.20416893064975739 0.6125067919492722, -0.20416893064975739 l1.2250135838985443, -1.2250135838985443 0.8166757225990295, -1.633351445198059 l0.0, -3.0625340342521667 -1.2250135838985443, -1.8375203013420105 l-3.0625340342521667, -1.2250135838985443 -6.941743493080139, -0.20416893064975739 m-1.633351445198059, -1.4291824400424957 l9.187601804733276, 0.20416893064975739 3.4708717465400696, -0.40833786129951477 l10.820952653884888, 0.0 10.412615537643433, -1.2250135838985443 l1.2250135838985443, -0.40833786129951477 -3.4708717465400696, 0.40833786129951477 l-2.8583648800849915, 1.020844653248787 -1.2250135838985443, 1.020844653248787 l-1.020844653248787, 2.8583648800849915 0.0, 2.8583648800849915 l1.2250135838985443, 1.2250135838985443 2.2458581626415253, 1.2250135838985443 l2.8583648800849915, 0.20416893064975739 1.020844653248787, -0.20416893064975739 l1.633351445198059, -1.8375203013420105 0.20416893064975739, -2.8583648800849915 l-0.6125067919492722, -3.266702890396118 -1.633351445198059, -1.8375203013420105 l-1.4291824400424957, -0.8166757225990295 m-13.883486986160278, 0.40833786129951477 l4.287547469139099, 0.0 3.0625340342521667, -2.8583648800849915 l0.20416893064975739, -5.30839204788208 -0.40833786129951477, -1.4291824400424957 m-18.98771047592163, 17.762696743011475 l0.0, 0.0 m-1.020844653248787, -0.8166757225990295 l0.20416893064975739, -0.8166757225990295 0.8166757225990295, -0.40833786129951477 l0.20416893064975739, 1.2250135838985443 m-0.40833786129951477, 0.0 l0.6125067919492722, -0.8166757225990295 2.8583648800849915, -1.4291824400424957 l2.041689306497574, -0.6125067919492722 m-5.512561202049255, 2.2458581626415253 l1.4291824400424957, 1.020844653248787 3.4708717465400696, 1.2250135838985443 m-3.675040602684021, -1.4291824400424957 l0.40833786129951477, 2.8583648800849915 1.020844653248787, 2.65419602394104 " fill="none" stroke="black" stroke-width="1" /></svg>