<?xml version="1.0" encoding="utf-8" ?>
<svg baseProfile="full" height="41.64618358016014" version="1.1" width="55.42758535593748" xmlns="http://www.w3.org/2000/svg" xmlns:ev="http://www.w3.org/2001/xml-events" xmlns:xlink="http://www.w3.org/1999/xlink"><defs /><rect fill="white" height="41.64618358016014" width="55.42758535593748" x="0" y="0" /><path d="M13.677179366350174, 24.293963611125946 m-1.020844653248787, 0.0 l-2.7562806010246277, 0.6125067919492722 -1.4291824400424957, 0.8166757225990295 l-0.9187601506710052, 1.020844653248787 -1.8375203013420105, 2.347942590713501 l-0.7145912200212479, 1.633351445198059 0.10208446532487869, 1.1229290813207626 l0.8166757225990295, 1.4291824400424957 3.4708717465400696, 2.347942590713501 l2.5521114468574524, 0.8166757225990295 2.347942590713501, 0.20416893064975739 l1.8375203013420105, -0.20416893064975739 1.5312670171260834, -0.6125067919492722 l2.960449457168579, -2.041689306497574 1.1229290813207626, -1.4291824400424957 l0.9187601506710052, -3.266702890396118 0.10208446532487869, -3.368787169456482 l-0.7145912200212479, -1.633351445198059 -1.5312670171260834, -0.9187601506710052 l-3.0625340342521667, 0.0 -1.7354358732700348, 0.5104223266243935 l-2.4500271677970886, 1.633351445198059 -2.041689306497574, 3.0625340342521667 m2.5521114468574524, -3.5729563236236572 l0.5104223266243935, -2.4500271677970886 1.633351445198059, -4.287547469139099 l0.7145912200212479, -3.675040602684021 -1.5312670171260834, -3.4708717465400696 l-1.32709801197052, -1.2250135838985443 -0.7145912200212479, -1.2250135838985443 m2.8583648800849915, 4.79796975851059 l2.7562806010246277, 0.9187601506710052 3.8792094588279724, 0.5104223266243935 l5.30839204788208, 0.40833786129951477 8.983432650566101, 0.0 l1.8375203013420105, 0.3062533959746361 0.40833786129951477, -0.20416893064975739 l1.9396047294139862, -4.389632046222687 -0.9187601506710052, -0.40833786129951477 l-1.7354358732700348, 0.0 0.10208446532487869, 0.40833786129951477 l0.8166757225990295, 0.20416893064975739 3.4708717465400696, 0.40833786129951477 l-0.5104223266243935, -0.3062533959746361 -4.1854628920555115, 0.5104223266243935 m2.7562806010246277, 4.389632046222687 l0.6125067919492722, 2.960449457168579 1.32709801197052, 3.368787169456482 l-0.10208446532487869, 0.40833786129951477 -2.5521114468574524, 0.20416893064975739 l-1.633351445198059, 0.5104223266243935 -2.4500271677970886, 1.7354358732700348 l-0.5104223266243935, 0.7145912200212479 -0.5104223266243935, 1.7354358732700348 l0.5104223266243935, 2.2458581626415253 1.9396047294139862, 1.7354358732700348 l3.266702890396118, 2.041689306497574 4.695885181427002, 0.0 l2.041689306497574, -1.2250135838985443 1.7354358732700348, -1.633351445198059 l0.8166757225990295, -1.2250135838985443 0.40833786129951477, -1.7354358732700348 l-0.40833786129951477, -1.8375203013420105 -1.9396047294139862, -2.347942590713501 l-1.1229290813207626, -0.6125067919492722 -3.368787169456482, -0.7145912200212479 l-2.5521114468574524, -0.9187601506710052 m-28.27739715576172, -14.189740419387817 l-4.389632046222687, 1.4291824400424957 -0.7145912200212479, 0.3062533959746361 l0.7145912200212479, 0.10208446532487869 3.7771251797676086, -0.40833786129951477 l4.1854628920555115, -1.32709801197052 -0.5104223266243935, -0.20416893064975739 l-1.020844653248787, 0.10208446532487869 -6.227152347564697, 1.5312670171260834 l-1.1229290813207626, 0.10208446532487869 0.8166757225990295, -0.40833786129951477 l7.860503792762756, -1.4291824400424957 -8.26884150505066, 2.960449457168579 l0.8166757225990295, -0.8166757225990295 4.287547469139099, -2.1437737345695496 l4.389632046222687, -1.633351445198059 0.5104223266243935, -0.40833786129951477 l-3.0625340342521667, 0.7145912200212479 " fill="none" stroke="black" stroke-width="1" /></svg>