<?xml version="1.0" encoding="utf-8" ?>
<svg baseProfile="full" height="48.58792569488287" version="1.1" width="61.24640040099621" xmlns="http://www.w3.org/2000/svg" xmlns:ev="http://www.w3.org/2001/xml-events" xmlns:xlink="http://www.w3.org/1999/xlink"><defs /><rect fill="white" height="48.58792569488287" width="61.24640040099621" x="0" y="0" /><path d="M9.389631822705269, 27.764834351837635 m-0.7145912200212479, 0.0 l-1.1229290813207626, 1.1229290813207626 -2.347942590713501, 5.104222893714905 l-0.20416893064975739, 7.350081205368042 0.20416893064975739, 0.8166757225990295 l1.020844653248787, 1.4291824400424957 2.65419602394104, 0.0 l3.368787169456482, -0.8166757225990295 1.633351445198059, -0.7145912200212479 l1.32709801197052, -1.020844653248787 1.7354358732700348, -1.9396047294139862 l0.8166757225990295, -1.5312670171260834 1.020844653248787, -4.083378612995148 l0.0, -3.4708717465400696 -0.40833786129951477, -0.7145912200212479 l-1.9396047294139862, -2.65419602394104 -3.0625340342521667, -2.2458581626415253 l-2.347942590713501, -0.7145912200212479 -2.5521114468574524, 0.10208446532487869 l-0.5104223266243935, 0.5104223266243935 -0.8166757225990295, 2.041689306497574 m4.695885181427002, -1.32709801197052 l2.960449457168579, -5.512561202049255 0.6125067919492722, -0.3062533959746361 l10.310530662536621, 0.0 5.512561202049255, 0.6125067919492722 l9.59593951702118, 0.0 1.2250135838985443, 0.7145912200212479 l2.5521114468574524, 3.266702890396118 0.8166757225990295, 0.6125067919492722 l6.329236626625061, 8.473010659217834 m0.9187601506710052, -1.32709801197052 l-1.2250135838985443, 0.5104223266243935 -1.32709801197052, 1.633351445198059 l-0.8166757225990295, 2.4500271677970886 0.20416893064975739, 3.1646183133125305 l2.4500271677970886, 1.9396047294139862 2.4500271677970886, -0.10208446532487869 l1.1229290813207626, -0.8166757225990295 0.5104223266243935, -1.2250135838985443 l0.20416893064975739, -5.104222893714905 -0.8166757225990295, -1.9396047294139862 l-2.1437737345695496, -1.7354358732700348 -1.5312670171260834, -0.6125067919492722 l-1.633351445198059, -0.3062533959746361 -4.083378612995148, 0.0 m-20.723145008087158, -10.20844578742981 l0.3062533959746361, -1.633351445198059 0.0, -3.368787169456482 m0.0, -1.1229290813207626 l5.818814635276794, 0.0 -4.79796975851059, 0.3062533959746361 l-5.512561202049255, 0.8166757225990295 8.370925784111023, -0.6125067919492722 l5.614645481109619, 0.0 m4.79796975851059, 4.79796975851059 l1.5312670171260834, 0.0 0.40833786129951477, -0.5104223266243935 l3.368787169456482, -8.677179217338562 0.9187601506710052, -0.9187601506710052 m0.0, 0.0 l2.7562806010246277, 0.10208446532487869 3.8792094588279724, 0.9187601506710052 l1.2250135838985443, 0.8166757225990295 0.40833786129951477, 1.2250135838985443 l-1.633351445198059, -1.9396047294139862 -4.695885181427002, -4.1854628920555115 l-6.1250680685043335, -0.20416893064975739 -5.920898914337158, 0.8166757225990295 " fill="none" stroke="black" stroke-width="1" /></svg>