<?xml version="1.0" encoding="utf-8" ?>
<svg baseProfile="full" height="45.01497060060501" version="1.1" width="60.42972456663847" xmlns="http://www.w3.org/2000/svg" xmlns:ev="http://www.w3.org/2001/xml-events" xmlns:xlink="http://www.w3.org/1999/xlink"><defs /><rect fill="white" height="45.01497060060501" width="60.42972456663847" x="0" y="0" /><path d="M16.433458514511585, 22.456443160772324 m-0.5104223266243935, 0.20416893064975739 l-1.1229290813207626, 1.4291824400424957 -0.10208446532487869, 1.633351445198059 l0.0, 4.79796975851059 0.40833786129951477, 1.32709801197052 l1.1229290813207626, 1.020844653248787 1.8375203013420105, 1.020844653248787 l5.30839204788208, 0.6125067919492722 3.7771251797676086, 0.0 l3.1646183133125305, -0.3062533959746361 3.4708717465400696, -1.633351445198059 l1.5312670171260834, -1.32709801197052 0.7145912200212479, -1.2250135838985443 l0.10208446532487869, -5.614645481109619 -1.32709801197052, -2.7562806010246277 l-1.020844653248787, -1.2250135838985443 -1.2250135838985443, -0.8166757225990295 l-2.7562806010246277, -1.2250135838985443 -1.7354358732700348, -0.3062533959746361 l-4.389632046222687, 0.0 -0.7145912200212479, 0.3062533959746361 l-1.1229290813207626, 1.9396047294139862 -0.7145912200212479, 0.6125067919492722 l-3.98129403591156, 1.020844653248787 m35.72956323623657, -3.0625340342521667 l-5.614645481109619, 0.10208446532487869 -4.79796975851059, 1.7354358732700348 l-3.8792094588279724, 2.041689306497574 -2.8583648800849915, 2.8583648800849915 l-1.020844653248787, 1.5312670171260834 -0.7145912200212479, 3.266702890396118 l0.0, 1.4291824400424957 3.368787169456482, 4.900054335594177 l2.1437737345695496, 1.32709801197052 2.7562806010246277, 1.2250135838985443 l3.675040602684021, 0.7145912200212479 3.266702890396118, -0.10208446532487869 l1.7354358732700348, -0.6125067919492722 2.1437737345695496, -1.7354358732700348 l1.32709801197052, -1.5312670171260834 0.7145912200212479, -1.5312670171260834 l0.3062533959746361, -5.206307768821716 -2.1437737345695496, -4.4917163252830505 l-2.65419602394104, -2.65419602394104 -0.8166757225990295, -1.5312670171260834 m-12.454304695129395, 9.59593951702118 l15.51683783531189, 0.20416893064975739 m-6.6354900598526, -7.554250359535217 l0.0, 16.843936443328857 m-4.1854628920555115, -2.4500271677970886 l1.1229290813207626, -1.8375203013420105 10.9230375289917, -12.454304695129395 m-4.79796975851059, 14.189740419387817 l-2.4500271677970886, -2.1437737345695496 -4.695885181427002, -5.410476326942444 l-2.8583648800849915, -4.4917163252830505 m-21.335651874542236, 4.083378612995148 l10.718868970870972, -2.1437737345695496 6.941743493080139, -0.3062533959746361 m-10.514699220657349, -5.206307768821716 l0.8166757225990295, 4.79796975851059 0.5104223266243935, 6.533405780792236 m4.593800902366638, -14.700162410736084 l-0.7145912200212479, 2.1437737345695496 -7.4521660804748535, 12.454304695129395 m-0.8166757225990295, -11.943882703781128 l4.695885181427002, 6.737574338912964 m-21.743991374969482, -22.560665607452393 " fill="none" stroke="black" stroke-width="1" /></svg>