<?xml version="1.0" encoding="utf-8" ?>
<svg baseProfile="full" height="50.11919368058443" version="1.1" width="63.3901746571064" xmlns="http://www.w3.org/2000/svg" xmlns:ev="http://www.w3.org/2001/xml-events" xmlns:xlink="http://www.w3.org/1999/xlink"><defs /><rect fill="white" height="50.11919368058443" width="63.3901746571064" x="0" y="0" /><path d="M5, 14.08551748842001 m8.881348371505737, -4.389632046222687 l7.860503792762756, -4.389632046222687 1.2250135838985443, -0.3062533959746361 m-10.310530662536621, 6.227152347564697 l1.2250135838985443, 3.266702890396118 1.4291824400424957, 5.30839204788208 l0.5104223266243935, 2.960449457168579 0.3062533959746361, 6.839659214019775 l2.65419602394104, -0.8166757225990295 18.375203609466553, -0.8166757225990295 l21.23356819152832, -1.8375203013420105 m-21.23356819152832, 2.8583648800849915 l-0.20416893064975739, -1.2250135838985443 0.9187601506710052, -9.902192950248718 m-3.5729563236236572, 1.2250135838985443 l0.3062533959746361, -1.020844653248787 3.266702890396118, -1.5312670171260834 l3.8792094588279724, -0.3062533959746361 1.5312670171260834, 0.40833786129951477 l1.020844653248787, 0.8166757225990295 0.0, 0.5104223266243935 l-2.65419602394104, 1.2250135838985443 -8.473010659217834, 0.40833786129951477 l0.6125067919492722, -1.1229290813207626 1.633351445198059, -0.7145912200212479 l4.083378612995148, -0.9187601506710052 4.287547469139099, -0.10208446532487869 l-0.20416893064975739, 1.1229290813207626 -1.633351445198059, 0.8166757225990295 l-4.695885181427002, 1.020844653248787 -4.4917163252830505, 0.3062533959746361 l0.9187601506710052, -1.1229290813207626 1.8375203013420105, -0.7145912200212479 l4.1854628920555115, -0.6125067919492722 -0.40833786129951477, 0.6125067919492722 l-6.022983193397522, 2.5521114468574524 m-7.758418917655945, 12.045966386795044 l-0.20416893064975739, -0.9187601506710052 -0.7145912200212479, -0.6125067919492722 l-2.7562806010246277, -0.9187601506710052 -2.041689306497574, -0.10208446532487869 l-5.30839204788208, 0.7145912200212479 -1.5312670171260834, 1.32709801197052 l-0.9187601506710052, 5.716729760169983 0.6125067919492722, 3.368787169456482 l5.716729760169983, 3.7771251797676086 3.4708717465400696, -0.10208446532487869 l4.083378612995148, -3.5729563236236572 0.3062533959746361, -2.65419602394104 l-1.020844653248787, -4.900054335594177 -1.020844653248787, -1.4291824400424957 l-1.7354358732700348, -1.1229290813207626 m35.01497030258179, -0.6125067919492722 l-0.3062533959746361, -1.4291824400424957 -2.2458581626415253, -3.675040602684021 l-2.4500271677970886, -1.1229290813207626 -2.65419602394104, 0.0 l-4.593800902366638, 4.287547469139099 -1.020844653248787, 11.637629270553589 l2.1437737345695496, 2.5521114468574524 5.716729760169983, 0.9187601506710052 l2.1437737345695496, -1.9396047294139862 1.020844653248787, -5.920898914337158 l-0.10208446532487869, -2.7562806010246277 -0.9187601506710052, -2.960449457168579 l-0.5104223266243935, -0.7145912200212479 m-34.70871686935425, 1.4291824400424957 l-0.40833786129951477, 0.7145912200212479 0.0, 3.1646183133125305 l0.7145912200212479, 7.860503792762756 -0.20416893064975739, 1.7354358732700348 l-1.1229290813207626, -0.7145912200212479 m-5.410476326942444, -4.593800902366638 l5.920898914337158, 0.0 8.064672350883484, -1.5312670171260834 l1.32709801197052, -0.7145912200212479 m-14.700162410736084, -0.40833786129951477 l2.4500271677970886, 0.3062533959746361 4.900054335594177, 1.32709801197052 m-0.10208446532487869, -5.818814635276794 l-1.5312670171260834, 3.4708717465400696 -2.960449457168579, 4.389632046222687 l-2.5521114468574524, 2.65419602394104 " fill="none" stroke="black" stroke-width="1" /></svg>