<?xml version="1.0" encoding="utf-8" ?>
<svg baseProfile="full" height="44.81080196797848" version="1.1" width="55.63175532966852" xmlns="http://www.w3.org/2000/svg" xmlns:ev="http://www.w3.org/2001/xml-events" xmlns:xlink="http://www.w3.org/1999/xlink"><defs /><rect fill="white" height="44.81080196797848" width="55.63175532966852" x="0" y="0" /><path d="M10.002138540148735, 5.612506195902824 m2.347942590713501, 0.5104223266243935 l6.6354900598526, 0.6125067919492722 0.40833786129951477, 0.5104223266243935 l0.0, 1.8375203013420105 -0.7145912200212479, 3.98129403591156 l-3.4708717465400696, 9.187601804733276 m4.4917163252830505, -15.823091268539429 l3.0625340342521667, -0.5104223266243935 2.041689306497574, -0.8166757225990295 l2.4500271677970886, -0.10208446532487869 m-12.658473253250122, 17.762696743011475 l-1.8375203013420105, -0.7145912200212479 -2.7562806010246277, 0.0 l-2.041689306497574, 0.5104223266243935 -1.2250135838985443, 0.9187601506710052 l-1.020844653248787, 1.4291824400424957 -0.7145912200212479, 2.8583648800849915 l0.0, 2.4500271677970886 0.3062533959746361, 1.020844653248787 l1.633351445198059, 2.2458581626415253 3.4708717465400696, 2.041689306497574 l4.083378612995148, 0.3062533959746361 2.7562806010246277, -2.1437737345695496 l0.9187601506710052, -1.5312670171260834 0.8166757225990295, -2.7562806010246277 l-0.10208446532487869, -2.041689306497574 -0.6125067919492722, -1.1229290813207626 l-3.675040602684021, -3.266702890396118 m-0.10208446532487869, -0.10208446532487869 l6.329236626625061, -1.7354358732700348 16.53768301010132, -2.960449457168579 m-18.98771047592163, -2.65419602394104 l1.1229290813207626, -0.3062533959746361 8.166757225990295, 0.0 l9.493855237960815, 2.5521114468574524 1.2250135838985443, -1.4291824400424957 l1.5312670171260834, -0.40833786129951477 3.0625340342521667, 0.0 l0.20416893064975739, 1.1229290813207626 -2.2458581626415253, 1.4291824400424957 l-1.8375203013420105, 0.40833786129951477 -1.633351445198059, 0.0 l-0.6125067919492722, -0.40833786129951477 0.40833786129951477, -0.5104223266243935 l0.10208446532487869, 0.6125067919492722 2.65419602394104, 2.7562806010246277 l4.389632046222687, 2.7562806010246277 2.4500271677970886, 3.4708717465400696 m-5.206307768821716, -9.59593951702118 l5.410476326942444, -0.10208446532487869 2.1437737345695496, 0.5104223266243935 l0.3062533959746361, 0.5104223266243935 0.0, 1.2250135838985443 l-1.1229290813207626, 7.247996926307678 -0.5104223266243935, 0.3062533959746361 l-4.287547469139099, -2.4500271677970886 -4.593800902366638, -1.020844653248787 l-2.7562806010246277, 0.0 -1.1229290813207626, 1.32709801197052 l-0.6125067919492722, 2.7562806010246277 0.3062533959746361, 4.1854628920555115 l1.020844653248787, 1.9396047294139862 2.4500271677970886, 2.7562806010246277 l1.9396047294139862, 1.5312670171260834 1.5312670171260834, 0.6125067919492722 l3.4708717465400696, 0.5104223266243935 2.7562806010246277, 0.0 l1.2250135838985443, -0.40833786129951477 0.8166757225990295, -1.1229290813207626 l0.40833786129951477, -1.633351445198059 0.20416893064975739, -5.818814635276794 l-0.7145912200212479, -2.2458581626415253 -1.2250135838985443, -2.2458581626415253 l-1.020844653248787, -0.3062533959746361 " fill="none" stroke="black" stroke-width="1" /></svg>