<?xml version="1.0" encoding="utf-8" ?>
<svg baseProfile="full" height="39.91074826568365" version="1.1" width="74.51737880706787" xmlns="http://www.w3.org/2000/svg" xmlns:ev="http://www.w3.org/2001/xml-events" xmlns:xlink="http://www.w3.org/1999/xlink"><defs /><rect fill="white" height="39.91074826568365" width="74.51737880706787" x="0" y="0" /><path d="M12.145912498235703, 15.923038385808468 m-0.6125067919492722, 0.20416893064975739 l-1.5312670171260834, 2.1437737345695496 -2.960449457168579, 2.4500271677970886 l-0.7145912200212479, 1.020844653248787 -1.32709801197052, 3.7771251797676086 l0.10208446532487869, 3.5729563236236572 0.6125067919492722, 1.32709801197052 l1.633351445198059, 1.633351445198059 3.368787169456482, 2.347942590713501 l3.1646183133125305, 0.3062533959746361 4.593800902366638, -0.10208446532487869 l11.739712953567505, -5.002138614654541 0.40833786129951477, -0.6125067919492722 l0.5104223266243935, -2.65419602394104 0.20416893064975739, -4.593800902366638 l-0.10208446532487869, -0.7145912200212479 -1.020844653248787, -1.1229290813207626 l-5.206307768821716, -3.8792094588279724 -5.716729760169983, -0.7145912200212479 l-8.881348371505737, 0.0 m42.365050315856934, 2.347942590713501 l-3.0625340342521667, 0.3062533959746361 -5.104222893714905, 3.5729563236236572 l-0.6125067919492722, 0.8166757225990295 -0.8166757225990295, 3.0625340342521667 l0.0, 2.7562806010246277 0.40833786129951477, 1.4291824400424957 l0.5104223266243935, 0.8166757225990295 0.9187601506710052, 0.5104223266243935 l2.7562806010246277, 0.5104223266243935 7.860503792762756, -0.8166757225990295 l4.083378612995148, -1.020844653248787 1.2250135838985443, -0.9187601506710052 l1.9396047294139862, -2.7562806010246277 -0.10208446532487869, -4.79796975851059 l-1.5312670171260834, -3.7771251797676086 -1.1229290813207626, -0.6125067919492722 l-1.633351445198059, -0.3062533959746361 -6.533405780792236, -0.10208446532487869 l-1.5312670171260834, 0.7145912200212479 -1.9396047294139862, 2.2458581626415253 m0.10208446532487869, 0.40833786129951477 l1.1229290813207626, -0.10208446532487869 1.5312670171260834, 0.7145912200212479 l2.347942590713501, 2.347942590713501 3.5729563236236572, 1.9396047294139862 l2.347942590713501, 2.8583648800849915 m-0.9187601506710052, -9.085517525672913 l-0.6125067919492722, 0.20416893064975739 -1.32709801197052, 2.347942590713501 l-3.675040602684021, 4.083378612995148 -4.593800902366638, 6.431320905685425 l-3.4708717465400696, 3.4708717465400696 m8.166757225990295, -17.762696743011475 l0.40833786129951477, 5.002138614654541 0.0, 5.104222893714905 m-9.28968608379364, -2.7562806010246277 l2.8583648800849915, -0.7145912200212479 6.431320905685425, -0.9187601506710052 l16.02726101875305, 0.10208446532487869 m-20.518977642059326, -4.79796975851059 l-3.98129403591156, -0.3062533959746361 -9.391770362854004, -1.4291824400424957 l-11.943882703781128, -0.3062533959746361 m0.10208446532487869, -0.8166757225990295 l-0.5104223266243935, -4.389632046222687 -2.4500271677970886, -3.675040602684021 l-0.3062533959746361, -2.2458581626415253 m3.0625340342521667, 9.28968608379364 l0.5104223266243935, -0.20416893064975739 0.5104223266243935, -1.633351445198059 l0.5104223266243935, -7.1459126472473145 " fill="none" stroke="black" stroke-width="1" /></svg>