<?xml version="1.0" encoding="utf-8" ?>
<svg baseProfile="full" height="37.664889767766" version="1.1" width="38.175312392413616" xmlns="http://www.w3.org/2000/svg" xmlns:ev="http://www.w3.org/2001/xml-events" xmlns:xlink="http://www.w3.org/1999/xlink"><defs /><rect fill="white" height="37.664889767766" width="38.175312392413616" x="0" y="0" /><path d="M17.964726723730564, 24.498132690787315 m-1.32709801197052, -1.5312670171260834 l-2.65419602394104, -1.7354358732700348 -2.960449457168579, -0.7145912200212479 l-2.2458581626415253, 0.40833786129951477 -1.9396047294139862, 1.4291824400424957 l-1.32709801197052, 2.041689306497574 -0.5104223266243935, 3.1646183133125305 l0.9187601506710052, 2.041689306497574 3.0625340342521667, 2.4500271677970886 l2.65419602394104, 0.6125067919492722 2.7562806010246277, -0.40833786129951477 l3.368787169456482, -1.5312670171260834 1.32709801197052, -1.32709801197052 l0.40833786129951477, -3.675040602684021 -0.3062533959746361, -1.020844653248787 l-2.5521114468574524, -1.8375203013420105 m16.53768301010132, -0.5104223266243935 l0.0, -0.9187601506710052 -0.7145912200212479, -0.3062533959746361 l-1.4291824400424957, -0.20416893064975739 -1.9396047294139862, 0.40833786129951477 l-2.347942590713501, 1.9396047294139862 -1.4291824400424957, 2.1437737345695496 l-0.9187601506710052, 2.1437737345695496 0.20416893064975739, 1.8375203013420105 l0.40833786129951477, 1.020844653248787 1.2250135838985443, 1.633351445198059 l1.7354358732700348, 0.6125067919492722 3.266702890396118, -0.5104223266243935 l1.32709801197052, -0.8166757225990295 0.40833786129951477, -1.020844653248787 l0.20416893064975739, -3.0625340342521667 -0.3062533959746361, -2.8583648800849915 l-1.633351445198059, -1.9396047294139862 -1.7354358732700348, 0.0 m-15.721007585525513, -0.6125067919492722 l2.2458581626415253, -4.900054335594177 1.2250135838985443, -4.1854628920555115 l2.2458581626415253, -0.3062533959746361 5.410476326942444, 0.20416893064975739 l4.083378612995148, -0.40833786129951477 1.020844653248787, 0.0 l0.10208446532487869, 0.5104223266243935 -0.3062533959746361, 3.0625340342521667 l0.40833786129951477, 6.227152347564697 0.20416893064975739, 0.10208446532487869 m-13.373064994812012, -10.412615537643433 l0.6125067919492722, -5.206307768821716 1.9396047294139862, -0.7145912200212479 l6.737574338912964, -0.8166757225990295 m-7.656334638595581, 4.695885181427002 l-0.5104223266243935, 0.0 0.8166757225990295, -0.5104223266243935 l2.7562806010246277, -1.020844653248787 4.1854628920555115, -0.8166757225990295 m1.9396047294139862, 5.920898914337158 l0.9187601506710052, -4.389632046222687 -1.32709801197052, 0.0 l0.10208446532487869, -0.40833786129951477 2.347942590713501, -0.40833786129951477 l-0.10208446532487869, 0.6125067919492722 -1.32709801197052, 0.9187601506710052 l0.10208446532487869, -0.5104223266243935 1.4291824400424957, -0.7145912200212479 l-0.3062533959746361, -0.3062533959746361 " fill="none" stroke="black" stroke-width="1" /></svg>