<?xml version="1.0" encoding="utf-8" ?>
<svg baseProfile="full" height="39.80866301804781" version="1.1" width="33.88776462525129" xmlns="http://www.w3.org/2000/svg" xmlns:ev="http://www.w3.org/2001/xml-events" xmlns:xlink="http://www.w3.org/1999/xlink"><defs /><rect fill="white" height="39.80866301804781" width="33.88776462525129" x="0" y="0" /><path d="M9.185462929308414, 18.985571935772896 m16.23142957687378, 0.40833786129951477 m-16.63976788520813, 0.10208446532487869 l0.20416893064975739, 0.40833786129951477 0.0, 1.1229290813207626 l-1.7354358732700348, 9.493855237960815 -0.40833786129951477, 1.020844653248787 m16.63976788520813, -12.250136137008667 l1.1229290813207626, 1.020844653248787 1.5312670171260834, 5.410476326942444 m-16.23142957687378, 3.1646183133125305 l-0.5104223266243935, -0.40833786129951477 -1.4291824400424957, 0.0 l-1.2250135838985443, 0.10208446532487869 -0.9187601506710052, 0.5104223266243935 l-0.8166757225990295, 2.1437737345695496 0.10208446532487869, 0.9187601506710052 l1.020844653248787, 1.9396047294139862 1.020844653248787, 0.7145912200212479 l2.2458581626415253, -0.10208446532487869 1.4291824400424957, -0.8166757225990295 l1.5312670171260834, -2.5521114468574524 0.6125067919492722, -2.5521114468574524 l0.10208446532487869, -1.8375203013420105 -0.7145912200212479, -1.7354358732700348 l-1.1229290813207626, -0.3062533959746361 -2.1437737345695496, 1.1229290813207626 l-1.2250135838985443, 1.9396047294139862 -0.40833786129951477, 3.0625340342521667 m0.7145912200212479, -2.5521114468574524 l0.10208446532487869, 3.675040602684021 0.5104223266243935, 2.041689306497574 m-2.7562806010246277, -3.5729563236236572 l0.7145912200212479, 0.3062533959746361 2.960449457168579, 0.0 l1.8375203013420105, -0.20416893064975739 1.32709801197052, -0.5104223266243935 m-1.7354358732700348, -0.7145912200212479 l-2.1437737345695496, 0.5104223266243935 -1.2250135838985443, 0.8166757225990295 m19.29396390914917, -5.920898914337158 l-2.041689306497574, 0.40833786129951477 -1.2250135838985443, 0.7145912200212479 l-0.7145912200212479, 1.5312670171260834 -0.20416893064975739, 1.633351445198059 l0.0, 0.7145912200212479 1.8375203013420105, 2.5521114468574524 l1.5312670171260834, 0.8166757225990295 1.1229290813207626, 0.0 l0.5104223266243935, -0.40833786129951477 1.020844653248787, -3.675040602684021 l-0.20416893064975739, -3.266702890396118 -0.5104223266243935, -0.8166757225990295 l-0.8166757225990295, -0.5104223266243935 -1.9396047294139862, 0.5104223266243935 l-0.5104223266243935, 0.8166757225990295 m0.9187601506710052, -0.10208446532487869 l0.6125067919492722, 1.633351445198059 0.3062533959746361, 3.8792094588279724 l0.7145912200212479, 2.1437737345695496 m-3.675040602684021, -5.104222893714905 l3.675040602684021, 0.40833786129951477 1.4291824400424957, 0.5104223266243935 m-5.30839204788208, -9.800108671188354 l-0.20416893064975739, -9.902192950248718 0.3062533959746361, -0.5104223266243935 m-0.7145912200212479, 1.2250135838985443 l-1.9396047294139862, -4.79796975851059 -0.7145912200212479, -0.5104223266243935 l-2.041689306497574, 0.20416893064975739 -0.9187601506710052, 1.020844653248787 l-0.20416893064975739, 1.020844653248787 0.10208446532487869, 0.40833786129951477 l0.3062533959746361, 0.5104223266243935 2.4500271677970886, 1.5312670171260834 l3.8792094588279724, 1.7354358732700348 m-0.8166757225990295, -1.5312670171260834 l0.20416893064975739, -1.4291824400424957 " fill="none" stroke="black" stroke-width="1" /></svg>