<?xml version="1.0" encoding="utf-8" ?>
<svg baseProfile="full" height="33.58151130378246" version="1.1" width="82.99038786441088" xmlns="http://www.w3.org/2000/svg" xmlns:ev="http://www.w3.org/2001/xml-events" xmlns:xlink="http://www.w3.org/1999/xlink"><defs /><rect fill="white" height="33.58151130378246" width="82.99038786441088" x="0" y="0" /><path d="M7.24585797637701, 26.539822220802307 m-1.633351445198059, -4.083378612995148 l-0.40833786129951477, -2.8583648800849915 0.0, -3.266702890396118 l1.1229290813207626, -1.633351445198059 2.4500271677970886, -1.4291824400424957 l8.881348371505737, -3.7771251797676086 2.5521114468574524, 0.20416893064975739 l2.1437737345695496, 0.8166757225990295 4.287547469139099, 2.1437737345695496 l0.8166757225990295, 1.020844653248787 0.5104223266243935, 1.5312670171260834 l0.0, 1.633351445198059 -1.2250135838985443, 2.2458581626415253 l-4.1854628920555115, 4.1854628920555115 -2.041689306497574, 1.2250135838985443 l-1.9396047294139862, 1.8375203013420105 -2.2458581626415253, 1.2250135838985443 l-3.4708717465400696, 0.8166757225990295 -5.30839204788208, -0.7145912200212479 l-0.5104223266243935, -0.3062533959746361 -1.9396047294139862, -3.1646183133125305 l-0.10208446532487869, -1.32709801197052 m41.446290016174316, 3.368787169456482 l0.10208446532487869, -0.5104223266243935 -1.4291824400424957, -3.0625340342521667 l-0.20416893064975739, -1.7354358732700348 0.0, -4.287547469139099 l0.7145912200212479, -1.5312670171260834 3.0625340342521667, -1.7354358732700348 l4.79796975851059, -1.1229290813207626 3.368787169456482, -0.3062533959746361 l6.1250680685043335, 0.0 2.347942590713501, 0.8166757225990295 l1.9396047294139862, 3.266702890396118 0.7145912200212479, 2.347942590713501 l-0.10208446532487869, 2.4500271677970886 -0.3062533959746361, 0.5104223266243935 l-5.614645481109619, 2.8583648800849915 -5.716729760169983, 3.5729563236236572 l-2.5521114468574524, 0.8166757225990295 -8.370925784111023, -0.9187601506710052 l-0.5104223266243935, -0.20416893064975739 -0.20416893064975739, -1.1229290813207626 m2.2458581626415253, -10.412615537643433 l8.064672350883484, 5.410476326942444 4.593800902366638, 2.5521114468574524 l1.32709801197052, 0.40833786129951477 m-18.068950176239014, 0.7145912200212479 l6.839659214019775, 0.3062533959746361 5.002138614654541, -1.4291824400424957 l7.860503792762756, -3.675040602684021 1.8375203013420105, -1.2250135838985443 l5.716729760169983, -2.347942590713501 1.020844653248787, -0.7145912200212479 l-0.20416893064975739, -0.7145912200212479 m-59.20898914337158, -2.041689306497574 l2.041689306497574, 3.266702890396118 1.1229290813207626, 2.7562806010246277 l0.5104223266243935, 2.4500271677970886 3.4708717465400696, 6.6354900598526 m-13.066811561584473, -3.98129403591156 l8.26884150505066, -8.166757225990295 2.4500271677970886, -1.9396047294139862 l7.247996926307678, -4.083378612995148 m-16.02726101875305, 3.1646183133125305 l3.1646183133125305, -3.368787169456482 4.4917163252830505, -3.675040602684021 l2.041689306497574, -0.9187601506710052 1.633351445198059, -0.3062533959746361 l5.104222893714905, 2.5521114468574524 1.9396047294139862, 1.8375203013420105 l1.9396047294139862, 3.4708717465400696 2.2458581626415253, 5.920898914337158 l3.4708717465400696, -2.1437737345695496 14.802247285842896, -6.431320905685425 l6.022983193397522, -3.368787169456482 3.8792094588279724, -1.32709801197052 l3.0625340342521667, -0.10208446532487869 1.4291824400424957, 0.6125067919492722 l3.1646183133125305, 0.6125067919492722 8.575094938278198, 2.960449457168579 l1.2250135838985443, 1.2250135838985443 1.9396047294139862, 2.960449457168579 l0.20416893064975739, 1.020844653248787 -0.6125067919492722, 1.020844653248787 l-8.983432650566101, 4.1854628920555115 " fill="none" stroke="black" stroke-width="1" /></svg>