<?xml version="1.0" encoding="utf-8" ?>
<svg baseProfile="full" height="29.39604789018631" version="1.1" width="58.388037011027336" xmlns="http://www.w3.org/2000/svg" xmlns:ev="http://www.w3.org/2001/xml-events" xmlns:xlink="http://www.w3.org/1999/xlink"><defs /><rect fill="white" height="29.39604789018631" width="58.388037011027336" x="0" y="0" /><path d="M20.31266923993826, 10.20630743354559 m-2.041689306497574, -0.6125067919492722 l-3.368787169456482, 0.10208446532487869 -1.9396047294139862, 0.40833786129951477 l-3.368787169456482, 1.633351445198059 -1.1229290813207626, 0.8166757225990295 l-2.960449457168579, 3.5729563236236572 -0.5104223266243935, 1.5312670171260834 l0.20416893064975739, 2.5521114468574524 2.65419602394104, 1.9396047294139862 l7.1459126472473145, 2.041689306497574 1.8375203013420105, 0.20416893064975739 l2.960449457168579, -0.3062533959746361 1.8375203013420105, -0.8166757225990295 l1.4291824400424957, -1.32709801197052 0.6125067919492722, -0.9187601506710052 l2.1437737345695496, -6.431320905685425 -0.10208446532487869, -2.8583648800849915 l-0.6125067919492722, -0.8166757225990295 -1.1229290813207626, -0.7145912200212479 l-4.79796975851059, -0.10208446532487869 -2.347942590713501, 2.2458581626415253 l-3.1646183133125305, 3.7771251797676086 -3.1646183133125305, 4.79796975851059 l-1.633351445198059, 3.368787169456482 0.10208446532487869, -0.8166757225990295 m0.8166757225990295, -9.187601804733276 l12.760558128356934, 7.043827772140503 -0.10208446532487869, 0.3062533959746361 m-6.737574338912964, 2.65419602394104 l0.0, -1.8375203013420105 -1.2250135838985443, -6.737574338912964 l0.0, -3.98129403591156 -0.5104223266243935, -1.8375203013420105 m-8.26884150505066, 8.677179217338562 l7.043827772140503, -1.2250135838985443 7.4521660804748535, -2.5521114468574524 l5.920898914337158, -0.20416893064975739 m-16.23142957687378, -0.10208446532487869 l-1.5312670171260834, -0.7145912200212479 0.5104223266243935, -0.40833786129951477 m36.34207010269165, -0.5104223266243935 l-3.368787169456482, 0.8166757225990295 -3.7771251797676086, 2.041689306497574 l-1.020844653248787, 1.2250135838985443 -0.20416893064975739, 1.9396047294139862 l0.10208446532487869, 0.7145912200212479 2.347942590713501, 2.2458581626415253 l2.347942590713501, 0.8166757225990295 3.8792094588279724, -0.3062533959746361 l3.1646183133125305, -1.32709801197052 1.8375203013420105, -1.4291824400424957 l0.3062533959746361, -2.65419602394104 -2.041689306497574, -3.1646183133125305 l-2.5521114468574524, -1.8375203013420105 -1.2250135838985443, -0.10208446532487869 l-0.3062533959746361, 0.5104223266243935 1.32709801197052, 2.960449457168579 l0.40833786129951477, 1.9396047294139862 -0.20416893064975739, 4.695885181427002 m-8.473010659217834, -3.368787169456482 l15.618922710418701, -1.633351445198059 m-11.841797828674316, -2.2458581626415253 l4.083378612995148, 3.5729563236236572 2.041689306497574, 0.7145912200212479 l0.5104223266243935, 0.8166757225990295 m-8.166757225990295, 1.9396047294139862 l4.287547469139099, -2.2458581626415253 1.7354358732700348, -1.633351445198059 l0.6125067919492722, -1.32709801197052 2.1437737345695496, -1.633351445198059 m-12.352219820022583, 1.9396047294139862 l-10.106362104415894, -0.6125067919492722 m0.10208446532487869, -0.8166757225990295 l-0.9187601506710052, -0.20416893064975739 m5.512561202049255, 0.7145912200212479 l0.8166757225990295, -2.7562806010246277 0.0, -2.8583648800849915 l1.32709801197052, -4.287547469139099 -0.10208446532487869, 0.5104223266243935 l-0.5104223266243935, -0.6125067919492722 0.0, -0.6125067919492722 l0.5104223266243935, -0.3062533959746361 0.6125067919492722, 0.3062533959746361 l0.5104223266243935, 1.4291824400424957 -0.5104223266243935, -1.633351445198059 l1.4291824400424957, 1.32709801197052 0.6125067919492722, 2.041689306497574 l0.8166757225990295, 1.32709801197052 m5.104222893714905, 3.5729563236236572 l0.3062533959746361, -3.1646183133125305 " fill="none" stroke="black" stroke-width="1" /></svg>