<?xml version="1.0" encoding="utf-8" ?>
<svg baseProfile="full" height="45.93373205512762" version="1.1" width="73.90487622469664" xmlns="http://www.w3.org/2000/svg" xmlns:ev="http://www.w3.org/2001/xml-events" xmlns:xlink="http://www.w3.org/1999/xlink"><defs /><rect fill="white" height="45.93373205512762" width="73.90487622469664" x="0" y="0" /><path d="M13.77926368266344, 18.781401365995407 m-0.5104223266243935, -0.40833786129951477 l-1.2250135838985443, -0.10208446532487869 -3.675040602684021, 1.633351445198059 l-1.9396047294139862, 1.4291824400424957 -1.4291824400424957, 3.368787169456482 l0.0, 3.368787169456482 1.1229290813207626, 3.368787169456482 l1.9396047294139862, 2.65419602394104 1.32709801197052, 1.020844653248787 l5.30839204788208, 2.4500271677970886 3.5729563236236572, 0.7145912200212479 l3.7771251797676086, 0.0 0.8166757225990295, -0.3062533959746361 l1.32709801197052, -1.2250135838985443 0.8166757225990295, -1.4291824400424957 l1.633351445198059, -4.287547469139099 0.10208446532487869, -2.2458581626415253 l-1.1229290813207626, -2.5521114468574524 -5.410476326942444, -4.79796975851059 l-1.9396047294139862, -1.2250135838985443 -5.410476326942444, -1.633351445198059 m45.3255033493042, 5.512561202049255 l-1.7354358732700348, -0.3062533959746361 -3.266702890396118, 0.0 l-1.020844653248787, 0.3062533959746361 -4.287547469139099, 2.8583648800849915 l-1.7354358732700348, 2.2458581626415253 -0.7145912200212479, 2.4500271677970886 l0.3062533959746361, 3.4708717465400696 1.32709801197052, 2.2458581626415253 l0.7145912200212479, 0.6125067919492722 1.8375203013420105, 0.7145912200212479 l6.227152347564697, 0.10208446532487869 3.98129403591156, -0.9187601506710052 l5.30839204788208, -2.347942590713501 2.041689306497574, -1.4291824400424957 l0.5104223266243935, -0.9187601506710052 1.2250135838985443, -4.1854628920555115 l0.0, -2.8583648800849915 -0.6125067919492722, -0.40833786129951477 l-2.1437737345695496, -0.3062533959746361 -4.083378612995148, -1.2250135838985443 l-5.30839204788208, -0.3062533959746361 m-40.935869216918945, -4.389632046222687 l-0.10208446532487869, -4.1854628920555115 0.40833786129951477, -0.5104223266243935 l1.8375203013420105, -0.3062533959746361 29.09407138824463, 0.10208446532487869 l9.493855237960815, -0.6125067919492722 0.20416893064975739, 10.106362104415894 m-0.20416893064975739, -10.20844578742981 l-0.3062533959746361, -6.431320905685425 -2.5521114468574524, -0.7145912200212479 l2.5521114468574524, -0.10208446532487869 1.5312670171260834, -0.9187601506710052 l0.3062533959746361, -0.5104223266243935 -0.6125067919492722, -0.20416893064975739 l-1.4291824400424957, 1.1229290813207626 m-42.1608829498291, 22.35649824142456 l0.0, -0.5104223266243935 -0.9187601506710052, -1.1229290813207626 l-1.2250135838985443, -2.960449457168579 -1.7354358732700348, -2.65419602394104 l-0.3062533959746361, -1.1229290813207626 2.5521114468574524, 4.695885181427002 l2.7562806010246277, 3.5729563236236572 0.5104223266243935, -0.5104223266243935 l2.1437737345695496, -6.022983193397522 -4.389632046222687, 5.206307768821716 l-1.5312670171260834, 3.98129403591156 2.8583648800849915, -0.9187601506710052 l4.287547469139099, -2.1437737345695496 1.633351445198059, -0.3062533959746361 l3.7771251797676086, 0.0 -4.083378612995148, 1.020844653248787 l-2.8583648800849915, 1.9396047294139862 2.5521114468574524, 0.9187601506710052 l3.5729563236236572, 2.1437737345695496 1.5312670171260834, 1.633351445198059 l3.5729563236236572, 5.614645481109619 -1.020844653248787, -1.5312670171260834 l-5.716729760169983, -5.002138614654541 " fill="none" stroke="black" stroke-width="1" /></svg>