<?xml version="1.0" encoding="utf-8" ?>
<svg baseProfile="full" height="39.4003251940012" version="1.1" width="38.68573397397995" xmlns="http://www.w3.org/2000/svg" xmlns:ev="http://www.w3.org/2001/xml-events" xmlns:xlink="http://www.w3.org/1999/xlink"><defs /><rect fill="white" height="39.4003251940012" width="38.68573397397995" x="0" y="0" /><path d="M7.654196061193943, 16.637628562748432 m-0.6125067919492722, 0.0 l-0.8166757225990295, 0.9187601506710052 -1.1229290813207626, 3.266702890396118 l-0.10208446532487869, 1.7354358732700348 0.20416893064975739, 4.389632046222687 l0.8166757225990295, 2.5521114468574524 1.4291824400424957, 2.65419602394104 l1.633351445198059, 1.7354358732700348 1.7354358732700348, 0.5104223266243935 l1.7354358732700348, 0.0 1.633351445198059, -1.1229290813207626 l1.2250135838985443, -1.4291824400424957 0.9187601506710052, -1.7354358732700348 l0.40833786129951477, -2.5521114468574524 -0.10208446532487869, -5.30839204788208 l-0.8166757225990295, -1.8375203013420105 -1.2250135838985443, -1.32709801197052 l-2.7562806010246277, -1.020844653248787 -4.1854628920555115, 0.0 l-0.3062533959746361, 0.40833786129951477 m20.92731475830078, 1.2250135838985443 l-1.020844653248787, 0.5104223266243935 -1.1229290813207626, 1.9396047294139862 l-0.3062533959746361, 5.410476326942444 0.7145912200212479, 2.347942590713501 l0.9187601506710052, 1.633351445198059 2.4500271677970886, 1.4291824400424957 l1.32709801197052, 0.0 1.32709801197052, -0.6125067919492722 l1.020844653248787, -1.4291824400424957 0.10208446532487869, -5.410476326942444 l-1.7354358732700348, -4.695885181427002 -1.020844653248787, -1.020844653248787 l-1.7354358732700348, -0.6125067919492722 -2.8583648800849915, -0.10208446532487869 m-11.127206087112427, 0.6125067919492722 l6.941743493080139, -0.5104223266243935 7.860503792762756, 0.0 m-9.391770362854004, -0.8166757225990295 l0.20416893064975739, -3.675040602684021 -1.020844653248787, -4.695885181427002 m-3.0625340342521667, 1.8375203013420105 l6.737574338912964, -3.266702890396118 2.041689306497574, -0.6125067919492722 l0.0, 0.5104223266243935 -3.368787169456482, 2.2458581626415253 l-1.8375203013420105, 0.6125067919492722 -3.5729563236236572, 0.20416893064975739 m-3.266702890396118, 6.431320905685425 l-1.020844653248787, -1.2250135838985443 -0.8166757225990295, -8.064672350883484 l-0.7145912200212479, -2.1437737345695496 m-4.287547469139099, 0.7145912200212479 l2.1437737345695496, 0.10208446532487869 9.187601804733276, -2.041689306497574 l2.65419602394104, -0.3062533959746361 " fill="none" stroke="black" stroke-width="1" /></svg>