<?xml version="1.0" encoding="utf-8" ?>
<svg baseProfile="full" height="36.23570702970028" version="1.1" width="49.812940917909145" xmlns="http://www.w3.org/2000/svg" xmlns:ev="http://www.w3.org/2001/xml-events" xmlns:xlink="http://www.w3.org/1999/xlink"><defs /><rect fill="white" height="36.23570702970028" width="49.812940917909145" x="0" y="0" /><path d="M6.735435873270035, 22.966865561902523 m-1.7354358732700348, 5.002138614654541 l0.0, 2.960449457168579 1.1229290813207626, 0.3062533959746361 l2.1437737345695496, -0.10208446532487869 2.4500271677970886, -1.1229290813207626 l0.9187601506710052, -1.2250135838985443 -0.10208446532487869, -2.7562806010246277 l-0.7145912200212479, -1.32709801197052 -1.1229290813207626, -0.9187601506710052 l-1.8375203013420105, -0.5104223266243935 m34.60663318634033, 1.4291824400424957 l-2.5521114468574524, 0.40833786129951477 -1.1229290813207626, 0.9187601506710052 l-0.10208446532487869, 0.7145912200212479 0.10208446532487869, 1.9396047294139862 l0.8166757225990295, 1.32709801197052 2.8583648800849915, 0.40833786129951477 l0.7145912200212479, -0.5104223266243935 0.40833786129951477, -1.32709801197052 l0.0, -3.675040602684021 -0.8166757225990295, -1.1229290813207626 l-0.3062533959746361, 0.40833786129951477 m2.2458581626415253, 3.4708717465400696 l0.10208446532487869, -3.7771251797676086 -3.4708717465400696, -0.8166757225990295 l-3.4708717465400696, 0.6125067919492722 -5.920898914337158, 0.40833786129951477 l-12.964726686477661, 0.3062533959746361 -1.32709801197052, 0.3062533959746361 l-0.6125067919492722, 0.7145912200212479 -5.512561202049255, 0.6125067919492722 l0.10208446532487869, -0.5104223266243935 1.32709801197052, -0.9187601506710052 l9.187601804733276, -4.593800902366638 3.0625340342521667, -0.7145912200212479 l3.5729563236236572, -1.4291824400424957 4.695885181427002, -0.8166757225990295 l1.9396047294139862, 0.3062533959746361 2.65419602394104, 1.4291824400424957 l0.7145912200212479, 1.4291824400424957 0.40833786129951477, 2.5521114468574524 m0.0, -0.10208446532487869 l0.10208446532487869, -1.2250135838985443 -1.1229290813207626, -7.554250359535217 l-4.1854628920555115, 6.1250680685043335 3.266702890396118, -8.26884150505066 l3.5729563236236572, -6.737574338912964 m-19.702301025390625, 15.92517614364624 l0.9187601506710052, -0.9187601506710052 -0.40833786129951477, -2.4500271677970886 l1.7354358732700348, -0.20416893064975739 -0.6125067919492722, 0.3062533959746361 " fill="none" stroke="black" stroke-width="1" /></svg>