<?xml version="1.0" encoding="utf-8" ?>
<svg baseProfile="full" height="61.75682298839092" version="1.1" width="66.96313060820103" xmlns="http://www.w3.org/2000/svg" xmlns:ev="http://www.w3.org/2001/xml-events" xmlns:xlink="http://www.w3.org/1999/xlink"><defs /><rect fill="white" height="61.75682298839092" width="66.96313060820103" x="0" y="0" /><path d="M7.041689492762089, 54.71513345837593 m-0.7145912200212479, -0.5104223266243935 l-0.8166757225990295, -2.8583648800849915 -0.10208446532487869, -4.900054335594177 l1.7354358732700348, -3.1646183133125305 2.5521114468574524, -2.8583648800849915 l2.7562806010246277, -1.8375203013420105 2.4500271677970886, -0.9187601506710052 l3.266702890396118, -0.20416893064975739 2.347942590713501, 0.8166757225990295 l1.7354358732700348, 1.1229290813207626 1.4291824400424957, 2.1437737345695496 l0.8166757225990295, 2.65419602394104 0.3062533959746361, 2.960449457168579 l-0.40833786129951477, 2.7562806010246277 -0.5104223266243935, 1.32709801197052 l-1.7354358732700348, 2.4500271677970886 -2.2458581626415253, 1.9396047294139862 l-1.2250135838985443, 0.6125067919492722 -1.32709801197052, 0.5104223266243935 l-4.287547469139099, 0.0 -5.206307768821716, -1.633351445198059 l-2.4500271677970886, -1.633351445198059 -0.40833786129951477, -1.5312670171260834 l0.0, -1.8375203013420105 m7.1459126472473145, -11.229290962219238 l0.7145912200212479, -3.0625340342521667 2.4500271677970886, -6.1250680685043335 l3.7771251797676086, -8.166757225990295 0.20416893064975739, 0.3062533959746361 m-1.32709801197052, 15.51683783531189 l0.20416893064975739, -1.32709801197052 1.2250135838985443, -3.1646183133125305 l5.002138614654541, -10.820952653884888 m26.5419602394104, 29.706578254699707 l-0.7145912200212479, 0.7145912200212479 -2.65419602394104, -0.10208446532487869 l-2.1437737345695496, -1.32709801197052 -1.020844653248787, -1.8375203013420105 l-0.3062533959746361, -2.65419602394104 0.5104223266243935, -3.5729563236236572 l2.960449457168579, -3.675040602684021 2.7562806010246277, -1.32709801197052 l6.022983193397522, -0.3062533959746361 2.1437737345695496, 0.9187601506710052 l0.8166757225990295, 0.6125067919492722 1.633351445198059, 2.5521114468574524 l0.8166757225990295, 2.5521114468574524 0.10208446532487869, 1.32709801197052 l0.10208446532487869, 2.7562806010246277 -0.6125067919492722, 1.4291824400424957 l-2.1437737345695496, 2.2458581626415253 -4.287547469139099, 1.5312670171260834 l-4.083378612995148, -0.10208446532487869 -1.020844653248787, -0.3062533959746361 l-2.960449457168579, -1.633351445198059 -3.8792094588279724, -4.389632046222687 m12.556389570236206, -10.310530662536621 l-2.4500271677970886, -3.7771251797676086 -13.066811561584473, -12.045966386795044 m6.6354900598526, 20.212724208831787 l-3.0625340342521667, -4.4917163252830505 -8.575094938278198, -10.9230375289917 l-1.4291824400424957, -2.960449457168579 m-15.312669277191162, -2.1437737345695496 l5.716729760169983, -2.2458581626415253 3.1646183133125305, -0.7145912200212479 l4.389632046222687, 0.0 1.9396047294139862, 1.5312670171260834 l0.8166757225990295, 1.4291824400424957 -0.5104223266243935, 1.2250135838985443 l-1.633351445198059, 1.32709801197052 -4.287547469139099, 0.9187601506710052 l-5.614645481109619, -0.10208446532487869 -1.2250135838985443, -0.6125067919492722 l-1.020844653248787, -1.8375203013420105 m13.98557186126709, 1.9396047294139862 l0.40833786129951477, -0.7145912200212479 -0.8166757225990295, -3.5729563236236572 l-0.3062533959746361, -6.737574338912964 7.96258807182312, -0.20416893064975739 l-1.7354358732700348, 11.02512240409851 -3.5729563236236572, 0.0 m-1.4291824400424957, -11.229290962219238 l1.633351445198059, -2.1437737345695496 7.350081205368042, -5.002138614654541 " fill="none" stroke="black" stroke-width="1" /></svg>