<?xml version="1.0" encoding="utf-8" ?>
<svg baseProfile="full" height="40.42116917669773" version="1.1" width="57.673442251980305" xmlns="http://www.w3.org/2000/svg" xmlns:ev="http://www.w3.org/2001/xml-events" xmlns:xlink="http://www.w3.org/1999/xlink"><defs /><rect fill="white" height="40.42116917669773" width="57.673442251980305" x="0" y="0" /><path d="M17.045966684818268, 21.84393599629402 m-2.041689306497574, -1.2250135838985443 l-1.9396047294139862, -0.7145912200212479 -4.287547469139099, 0.3062533959746361 l-2.041689306497574, 1.9396047294139862 -1.32709801197052, 2.2458581626415253 l-0.40833786129951477, 2.2458581626415253 0.20416893064975739, 3.1646183133125305 l1.7354358732700348, 2.5521114468574524 2.1437737345695496, 1.8375203013420105 l2.2458581626415253, 0.8166757225990295 2.7562806010246277, 0.10208446532487869 l2.4500271677970886, -0.3062533959746361 1.8375203013420105, -1.4291824400424957 l1.020844653248787, -2.1437737345695496 0.10208446532487869, -2.7562806010246277 l-0.7145912200212479, -2.7562806010246277 -1.633351445198059, -1.8375203013420105 l-2.041689306497574, -1.32709801197052 -3.98129403591156, -1.020844653248787 l-3.1646183133125305, 0.3062533959746361 m40.5275297164917, 3.266702890396118 l-2.960449457168579, -0.6125067919492722 -2.041689306497574, 0.0 l-1.633351445198059, 1.1229290813207626 -1.8375203013420105, 2.1437737345695496 l-0.8166757225990295, 1.7354358732700348 -0.10208446532487869, 1.7354358732700348 l0.8166757225990295, 1.9396047294139862 2.4500271677970886, 1.5312670171260834 l2.8583648800849915, 0.7145912200212479 4.900054335594177, 0.0 l1.32709801197052, -0.6125067919492722 0.9187601506710052, -1.2250135838985443 l0.3062533959746361, -3.0625340342521667 -0.9187601506710052, -1.8375203013420105 l-1.633351445198059, -1.4291824400424957 -2.041689306497574, -1.1229290813207626 l-2.4500271677970886, -0.7145912200212479 -5.206307768821716, -0.8166757225990295 m-21.8460750579834, 4.695885181427002 l5.920898914337158, -1.1229290813207626 14.802247285842896, -0.6125067919492722 m1.020844653248787, -1.7354358732700348 l-0.10208446532487869, -0.9187601506710052 -0.8166757225990295, -0.9187601506710052 l-6.737574338912964, -6.329236626625061 -3.0625340342521667, -3.368787169456482 l-1.4291824400424957, -2.1437737345695496 -1.020844653248787, -0.8166757225990295 l0.3062533959746361, 14.598078727722168 m-0.6125067919492722, -15.312669277191162 l-8.473010659217834, 0.20416893064975739 -5.920898914337158, 0.8166757225990295 l-4.083378612995148, 0.8166757225990295 -0.40833786129951477, 0.5104223266243935 l0.10208446532487869, 0.40833786129951477 m-0.5104223266243935, -0.5104223266243935 l1.1229290813207626, 3.8792094588279724 1.4291824400424957, 3.368787169456482 l3.1646183133125305, 5.614645481109619 1.2250135838985443, 3.0625340342521667 l0.8166757225990295, 0.7145912200212479 m11.739712953567505, -18.27311873435974 l0.20416893064975739, -1.4291824400424957 1.8375203013420105, -4.79796975851059 " fill="none" stroke="black" stroke-width="1" /></svg>