<?xml version="1.0" encoding="utf-8" ?>
<svg baseProfile="full" height="34.29610174149275" version="1.1" width="40.31908642500639" xmlns="http://www.w3.org/2000/svg" xmlns:ev="http://www.w3.org/2001/xml-events" xmlns:xlink="http://www.w3.org/1999/xlink"><defs /><rect fill="white" height="34.29610174149275" width="40.31908642500639" x="0" y="0" /><path d="M10.818816162645817, 16.637628339231014 m-1.4291824400424957, 0.9187601506710052 l-1.8375203013420105, 1.9396047294139862 -1.2250135838985443, 3.1646183133125305 l-0.10208446532487869, 2.960449457168579 0.7145912200212479, 0.9187601506710052 l4.695885181427002, 2.7562806010246277 2.5521114468574524, -0.20416893064975739 l0.7145912200212479, -0.40833786129951477 2.1437737345695496, -2.8583648800849915 l-0.40833786129951477, -5.818814635276794 -3.5729563236236572, -2.8583648800849915 l-2.65419602394104, -0.7145912200212479 -0.5104223266243935, 0.3062533959746361 l0.8166757225990295, 0.40833786129951477 m18.783540725708008, 2.8583648800849915 l-2.1437737345695496, 3.0625340342521667 -0.20416893064975739, 1.4291824400424957 l0.40833786129951477, 1.4291824400424957 0.20416893064975739, 0.5104223266243935 l1.9396047294139862, 1.4291824400424957 3.1646183133125305, 0.6125067919492722 l0.6125067919492722, -0.10208446532487869 1.020844653248787, -0.9187601506710052 l0.8166757225990295, -1.9396047294139862 0.0, -2.2458581626415253 l-0.5104223266243935, -1.4291824400424957 -1.020844653248787, -1.32709801197052 l-1.9396047294139862, -1.020844653248787 -2.65419602394104, -0.10208446532487869 l-0.9187601506710052, 0.5104223266243935 m-23.275258541107178, -13.781402111053467 l1.020844653248787, 1.7354358732700348 0.7145912200212479, 0.6125067919492722 l2.8583648800849915, 1.4291824400424957 4.389632046222687, -0.20416893064975739 l1.020844653248787, -0.20416893064975739 2.5521114468574524, -1.9396047294139862 l0.40833786129951477, -1.2250135838985443 -0.10208446532487869, -1.32709801197052 m-5.30839204788208, 4.900054335594177 l-0.5104223266243935, 6.6354900598526 13.883486986160278, 1.32709801197052 l6.227152347564697, 1.32709801197052 m-8.779264092445374, -2.7562806010246277 l-2.4500271677970886, 0.0 -0.20416893064975739, 0.7145912200212479 l1.7354358732700348, 0.6125067919492722 1.7354358732700348, 0.0 l-0.40833786129951477, -0.9187601506710052 -0.9187601506710052, -0.3062533959746361 l-0.8166757225990295, 1.020844653248787 0.5104223266243935, 0.10208446532487869 l1.32709801197052, -0.5104223266243935 0.20416893064975739, -0.5104223266243935 l-0.9187601506710052, -0.3062533959746361 -0.3062533959746361, 0.8166757225990295 l0.40833786129951477, 0.5104223266243935 1.633351445198059, -0.5104223266243935 l0.5104223266243935, 0.40833786129951477 0.9187601506710052, -0.10208446532487869 l0.7145912200212479, -0.6125067919492722 -1.5312670171260834, -0.5104223266243935 l-0.8166757225990295, 1.020844653248787 2.5521114468574524, 0.5104223266243935 l1.633351445198059, -0.5104223266243935 -2.347942590713501, -0.6125067919492722 l-0.5104223266243935, 0.0 0.0, 0.40833786129951477 " fill="none" stroke="black" stroke-width="1" /></svg>