<?xml version="1.0" encoding="utf-8" ?>
<svg baseProfile="full" height="30.927315205335617" version="1.1" width="51.037955060601234" xmlns="http://www.w3.org/2000/svg" xmlns:ev="http://www.w3.org/2001/xml-events" xmlns:xlink="http://www.w3.org/1999/xlink"><defs /><rect fill="white" height="30.927315205335617" width="51.037955060601234" x="0" y="0" /><path d="M10.614645555615425, 16.331375911831856 m-3.5729563236236572, -0.10208446532487869 l-1.32709801197052, 1.4291824400424957 -0.7145912200212479, 3.1646183133125305 l0.10208446532487869, 2.5521114468574524 1.4291824400424957, 1.7354358732700348 l2.1437737345695496, 0.7145912200212479 4.4917163252830505, 0.10208446532487869 l4.593800902366638, -2.1437737345695496 -0.5104223266243935, -4.900054335594177 l-1.020844653248787, -1.32709801197052 -5.002138614654541, -2.960449457168579 l-2.8583648800849915, -0.10208446532487869 -0.9187601506710052, 0.8166757225990295 l0.0, 0.7145912200212479 m38.58792781829834, 3.266702890396118 l-9.187601804733276, -3.266702890396118 -1.633351445198059, 0.0 l-2.041689306497574, 1.4291824400424957 0.10208446532487869, 4.083378612995148 l7.4521660804748535, 3.1646183133125305 0.5104223266243935, -0.40833786129951477 l1.7354358732700348, -3.1646183133125305 0.10208446532487869, -1.9396047294139862 l-2.7562806010246277, -2.347942590713501 m-1.9396047294139862, -0.9187601506710052 l-0.7145912200212479, -5.002138614654541 3.1646183133125305, -0.3062533959746361 l1.4291824400424957, -0.9187601506710052 -0.40833786129951477, -0.8166757225990295 l-6.227152347564697, -0.20416893064975739 -3.7771251797676086, 0.7145912200212479 l0.9187601506710052, 0.9187601506710052 3.8792094588279724, 1.2250135838985443 l-3.5729563236236572, 1.2250135838985443 -1.1229290813207626, 1.4291824400424957 l-0.40833786129951477, 1.8375203013420105 0.7145912200212479, 2.347942590713501 l1.020844653248787, 0.8166757225990295 -14.189740419387817, 0.5104223266243935 l-1.2250135838985443, 0.0 -0.40833786129951477, -0.5104223266243935 m-7.554250359535217, -4.900054335594177 l0.9187601506710052, -6.227152347564697 1.32709801197052, 0.8166757225990295 l1.5312670171260834, 0.3062533959746361 m-2.7562806010246277, -1.2250135838985443 l-2.041689306497574, 2.1437737345695496 -0.40833786129951477, 0.6125067919492722 l0.20416893064975739, 0.5104223266243935 m2.7562806010246277, -3.4708717465400696 l2.347942590713501, -2.7562806010246277 1.7354358732700348, 0.6125067919492722 l1.1229290813207626, 1.32709801197052 m-7.656334638595581, 4.4917163252830505 l1.020844653248787, 0.3062533959746361 m0.0, 3.0625340342521667 l2.2458581626415253, 4.1854628920555115 1.633351445198059, 4.287547469139099 m1.1229290813207626, -6.431320905685425 l-0.3062533959746361, 0.8166757225990295 -2.347942590713501, 2.2458581626415253 l-4.4917163252830505, 3.5729563236236572 -0.3062533959746361, -0.6125067919492722 m-1.9396047294139862, -3.266702890396118 l7.4521660804748535, 2.5521114468574524 0.3062533959746361, -0.20416893064975739 m-1.2250135838985443, -5.818814635276794 l0.0, 7.1459126472473145 -0.6125067919492722, 2.347942590713501 l-0.3062533959746361, -0.3062533959746361 m24.90860939025879, -7.1459126472473145 " fill="none" stroke="black" stroke-width="1" /></svg>