<?xml version="1.0" encoding="utf-8" ?>
<svg baseProfile="full" height="31.437737084925175" version="1.1" width="46.137900948524475" xmlns="http://www.w3.org/2000/svg" xmlns:ev="http://www.w3.org/2001/xml-events" xmlns:xlink="http://www.w3.org/1999/xlink"><defs /><rect fill="white" height="31.437737084925175" width="46.137900948524475" x="0" y="0" /><path d="M10.81881444901228, 14.085517190396786 m-1.633351445198059, 0.0 l-1.4291824400424957, 0.40833786129951477 -1.5312670171260834, 1.020844653248787 l-1.1229290813207626, 1.9396047294139862 -0.10208446532487869, 1.9396047294139862 l0.3062533959746361, 1.633351445198059 1.020844653248787, 2.347942590713501 l1.1229290813207626, 1.4291824400424957 2.4500271677970886, 1.2250135838985443 l1.4291824400424957, 0.3062533959746361 1.7354358732700348, 0.10208446532487869 l1.1229290813207626, -0.3062533959746361 1.7354358732700348, -1.2250135838985443 l1.2250135838985443, -1.633351445198059 0.7145912200212479, -1.8375203013420105 l0.20416893064975739, -1.8375203013420105 -0.5104223266243935, -2.7562806010246277 l-0.7145912200212479, -1.633351445198059 -0.9187601506710052, -1.1229290813207626 l-2.041689306497574, -0.9187601506710052 -3.0625340342521667, 0.0 m23.887765407562256, 1.9396047294139862 l-1.7354358732700348, -0.10208446532487869 -1.1229290813207626, 0.9187601506710052 l-1.32709801197052, 1.9396047294139862 -0.3062533959746361, 2.2458581626415253 l0.5104223266243935, 2.4500271677970886 1.1229290813207626, 2.65419602394104 l1.1229290813207626, 0.9187601506710052 1.9396047294139862, 0.20416893064975739 l3.266702890396118, -1.2250135838985443 1.5312670171260834, -1.2250135838985443 l1.020844653248787, -1.7354358732700348 0.40833786129951477, -3.4708717465400696 l-0.6125067919492722, -1.8375203013420105 -1.020844653248787, -1.633351445198059 l-1.8375203013420105, -1.1229290813207626 -1.5312670171260834, 0.10208446532487869 l-1.8375203013420105, 0.7145912200212479 -0.6125067919492722, 0.8166757225990295 m-9.493855237960815, 2.5521114468574524 l-0.40833786129951477, 1.5312670171260834 0.5104223266243935, 0.20416893064975739 l0.40833786129951477, -0.7145912200212479 -0.10208446532487869, -1.2250135838985443 l-0.5104223266243935, -0.40833786129951477 -0.5104223266243935, 0.3062533959746361 l-0.10208446532487869, 1.020844653248787 0.9187601506710052, 0.8166757225990295 l0.5104223266243935, -0.3062533959746361 m-0.10208446532487869, 0.20416893064975739 l1.5312670171260834, 1.9396047294139862 -1.7354358732700348, 0.0 l0.0, 0.5104223266243935 0.5104223266243935, 0.5104223266243935 l1.5312670171260834, -0.5104223266243935 -0.20416893064975739, -0.5104223266243935 l-0.5104223266243935, 0.0 -0.40833786129951477, 0.5104223266243935 m-6.839659214019775, -4.287547469139099 l1.1229290813207626, 0.5104223266243935 4.083378612995148, 0.20416893064975739 m0.20416893064975739, -0.3062533959746361 l4.695885181427002, -0.3062533959746361 2.2458581626415253, -3.1646183133125305 l2.960449457168579, -2.4500271677970886 m-23.17317247390747, 7.554250359535217 l7.247996926307678, -9.28968608379364 2.041689306497574, -2.347942590713501 l1.2250135838985443, -1.1229290813207626 0.40833786129951477, 0.0 m14.087655544281006, 12.556389570236206 l-6.737574338912964, -7.043827772140503 -4.389632046222687, -3.0625340342521667 l-2.2458581626415253, -0.5104223266243935 m-14.087655544281006, 0.3062533959746361 l3.368787169456482, 4.1854628920555115 4.1854628920555115, 3.98129403591156 l0.10208446532487869, -0.5104223266243935 1.32709801197052, -0.5104223266243935 l17.966865301132202, 0.7145912200212479 -0.5104223266243935, -0.10208446532487869 l-0.3062533959746361, -0.6125067919492722 0.0, -1.4291824400424957 l0.9187601506710052, -4.4917163252830505 -0.6125067919492722, -0.10208446532487869 m-29.808664321899414, -5.512561202049255 l0.5104223266243935, 2.4500271677970886 1.1229290813207626, 0.6125067919492722 l4.593800902366638, 0.6125067919492722 " fill="none" stroke="black" stroke-width="1" /></svg>