<?xml version="1.0" encoding="utf-8" ?>
<svg baseProfile="full" height="24.70016248524189" version="1.1" width="38.99198837578297" xmlns="http://www.w3.org/2000/svg" xmlns:ev="http://www.w3.org/2001/xml-events" xmlns:xlink="http://www.w3.org/1999/xlink"><defs /><rect fill="white" height="24.70016248524189" width="38.99198837578297" x="0" y="0" /><path d="M13.575095012784004, 11.125067472457886 m-0.40833786129951477, -0.6125067919492722 l-3.0625340342521667, -0.8166757225990295 -1.8375203013420105, 0.20416893064975739 l-1.8375203013420105, 0.8166757225990295 -0.8166757225990295, 1.2250135838985443 l-0.6125067919492722, 1.8375203013420105 1.020844653248787, 2.4500271677970886 l1.020844653248787, 1.2250135838985443 1.8375203013420105, 1.633351445198059 l1.8375203013420105, 0.6125067919492722 1.8375203013420105, -0.20416893064975739 l1.020844653248787, -1.020844653248787 0.40833786129951477, -1.8375203013420105 l-0.20416893064975739, -3.0625340342521667 -0.8166757225990295, -2.4500271677970886 l-1.020844653248787, -1.8375203013420105 m0.0, 0.6125067919492722 l-0.6125067919492722, 1.8375203013420105 -1.8375203013420105, 3.0625340342521667 l-1.633351445198059, 1.020844653248787 -0.8166757225990295, 1.020844653248787 m-1.2250135838985443, -6.737574338912964 l3.0625340342521667, 3.8792094588279724 3.0625340342521667, 3.0625340342521667 l0.6125067919492722, 0.20416893064975739 -1.020844653248787, -0.20416893064975739 m-5.716729760169983, -2.8583648800849915 l7.1459126472473145, 0.20416893064975739 m-4.287547469139099, -4.083378612995148 l0.40833786129951477, 0.6125067919492722 -0.20416893064975739, 5.512561202049255 l0.6125067919492722, 2.2458581626415253 m3.0625340342521667, -9.187601804733276 l1.4291824400424957, -2.4500271677970886 0.6125067919492722, -0.20416893064975739 l1.4291824400424957, -1.633351445198059 1.2250135838985443, -0.20416893064975739 l5.512561202049255, 1.020844653248787 3.0625340342521667, 0.0 l3.266702890396118, 5.104222893714905 m3.8792094588279724, 1.2250135838985443 l-1.8375203013420105, -1.020844653248787 -3.0625340342521667, 0.0 l-0.6125067919492722, 0.6125067919492722 -0.8166757225990295, 3.0625340342521667 l0.6125067919492722, 1.8375203013420105 0.8166757225990295, 1.2250135838985443 l1.2250135838985443, 0.8166757225990295 1.2250135838985443, 0.20416893064975739 l2.041689306497574, -0.6125067919492722 1.4291824400424957, -3.675040602684021 l-1.2250135838985443, -2.4500271677970886 -1.633351445198059, 1.8375203013420105 l-2.2458581626415253, 3.675040602684021 m-2.2458581626415253, -6.1250680685043335 l2.2458581626415253, 2.2458581626415253 1.633351445198059, 3.266702890396118 l1.2250135838985443, 0.6125067919492722 " fill="none" stroke="black" stroke-width="1" /></svg>