<?xml version="1.0" encoding="utf-8" ?>
<svg baseProfile="full" height="31.64190661162138" version="1.1" width="60.42972378432751" xmlns="http://www.w3.org/2000/svg" xmlns:ev="http://www.w3.org/2001/xml-events" xmlns:xlink="http://www.w3.org/1999/xlink"><defs /><rect fill="white" height="31.64190661162138" width="60.42972378432751" x="0" y="0" /><path d="M9.389632120728493, 15.514700189232826 m0.5104223266243935, -0.40833786129951477 l3.5729563236236572, 0.0 3.368787169456482, 0.9187601506710052 l6.329236626625061, 0.8166757225990295 26.03153705596924, 0.8166757225990295 m-38.79209518432617, -2.1437737345695496 l-2.8583648800849915, 1.5312670171260834 -2.2458581626415253, 2.347942590713501 l-0.3062533959746361, 1.2250135838985443 0.10208446532487869, 3.1646183133125305 l1.1229290813207626, 1.8375203013420105 1.1229290813207626, 0.7145912200212479 l2.347942590713501, 0.3062533959746361 1.020844653248787, -0.10208446532487869 l1.020844653248787, -0.6125067919492722 1.2250135838985443, -2.1437737345695496 l0.20416893064975739, -3.368787169456482 -1.4291824400424957, -2.041689306497574 l-2.347942590713501, -1.4291824400424957 m38.179588317871094, 0.5104223266243935 l-0.8166757225990295, -0.10208446532487869 -3.5729563236236572, 2.2458581626415253 l-1.633351445198059, 2.2458581626415253 -0.10208446532487869, 1.32709801197052 l0.6125067919492722, 0.7145912200212479 2.2458581626415253, 1.1229290813207626 l2.1437737345695496, 0.10208446532487869 0.8166757225990295, -0.3062533959746361 l1.8375203013420105, -1.7354358732700348 0.5104223266243935, -1.633351445198059 l-0.3062533959746361, -1.7354358732700348 -1.32709801197052, -0.7145912200212479 m-0.9187601506710052, -1.5312670171260834 l1.633351445198059, -1.1229290813207626 2.2458581626415253, -2.5521114468574524 l4.4917163252830505, -2.960449457168579 m-28.685734272003174, 5.104222893714905 l-0.10208446532487869, 0.6125067919492722 0.7145912200212479, 0.9187601506710052 l0.8166757225990295, 0.7145912200212479 1.8375203013420105, 0.8166757225990295 l2.4500271677970886, 0.20416893064975739 1.633351445198059, -1.020844653248787 l0.7145912200212479, -1.020844653248787 0.10208446532487869, -0.8166757225990295 l-0.6125067919492722, -0.6125067919492722 -1.633351445198059, -0.7145912200212479 l-4.1854628920555115, -0.3062533959746361 m13.475148677825928, -8.166757225990295 l0.10208446532487869, -0.7145912200212479 -0.6125067919492722, -0.3062533959746361 l-3.4708717465400696, -0.20416893064975739 -2.041689306497574, 0.9187601506710052 l-1.7354358732700348, 1.32709801197052 -0.10208446532487869, 1.4291824400424957 l0.9187601506710052, 0.5104223266243935 2.7562806010246277, 0.3062533959746361 l0.7145912200212479, -0.10208446532487869 1.2250135838985443, -0.8166757225990295 l1.020844653248787, -2.5521114468574524 0.10208446532487869, -1.020844653248787 l-1.5312670171260834, -0.3062533959746361 m-2.8583648800849915, 4.1854628920555115 l-0.6125067919492722, 0.3062533959746361 -2.041689306497574, 2.347942590713501 l-3.0625340342521667, 5.614645481109619 2.041689306497574, 0.0 l5.002138614654541, 0.9187601506710052 0.10208446532487869, 0.5104223266243935 l-0.40833786129951477, 0.3062533959746361 m-5.920898914337158, -2.960449457168579 l-3.266702890396118, 4.695885181427002 m2.2458581626415253, -9.391770362854004 l8.370925784111023, 2.041689306497574 " fill="none" stroke="black" stroke-width="1" /></svg>