<?xml version="1.0" encoding="utf-8" ?>
<svg baseProfile="full" height="59.204713217914104" version="1.1" width="94.83218714594841" xmlns="http://www.w3.org/2000/svg" xmlns:ev="http://www.w3.org/2001/xml-events" xmlns:xlink="http://www.w3.org/1999/xlink"><defs /><rect fill="white" height="59.204713217914104" width="94.83218714594841" x="0" y="0" /><path d="M31.848213747143745, 19.08765558153391 m-0.20416893064975739, -1.020844653248787 l-1.633351445198059, -0.9187601506710052 -2.5521114468574524, 0.10208446532487869 l-3.266702890396118, 1.7354358732700348 -5.30839204788208, 4.083378612995148 l-6.329236626625061, 6.1250680685043335 -1.1229290813207626, 1.5312670171260834 l-5.002138614654541, 8.575094938278198 -1.020844653248787, 3.1646183133125305 l-0.40833786129951477, 7.860503792762756 0.7145912200212479, 0.9187601506710052 l1.4291824400424957, 0.8166757225990295 3.4708717465400696, 0.3062533959746361 l2.5521114468574524, -0.10208446532487869 3.0625340342521667, -1.5312670171260834 l3.0625340342521667, -2.347942590713501 5.30839204788208, -5.30839204788208 l2.347942590713501, -3.266702890396118 4.4917163252830505, -8.881348371505737 l3.675040602684021, -9.085517525672913 1.1229290813207626, -4.083378612995148 l1.7354358732700348, -8.064672350883484 0.0, -3.98129403591156 l-1.020844653248787, -0.7145912200212479 -1.020844653248787, 0.0 l-0.9187601506710052, 0.6125067919492722 -1.32709801197052, 3.0625340342521667 m-15.414754152297974, 27.052383422851562 l0.8166757225990295, -13.168895244598389 m-0.40833786129951477, 12.760558128356934 l-8.983432650566101, 3.1646183133125305 -4.695885181427002, 0.8166757225990295 m13.67931842803955, -4.4917163252830505 l1.020844653248787, 4.1854628920555115 0.0, 3.266702890396118 m-1.9396047294139862, -6.941743493080139 l6.1250680685043335, -1.020844653248787 8.779264092445374, -2.2458581626415253 m-1.32709801197052, -10.820952653884888 l16.129344701766968, 0.10208446532487869 3.675040602684021, -2.041689306497574 l4.1854628920555115, -1.1229290813207626 10.61678409576416, -0.10208446532487869 l2.8583648800849915, 1.020844653248787 1.7354358732700348, 1.8375203013420105 l2.041689306497574, 1.4291824400424957 0.5104223266243935, 0.5104223266243935 l0.20416893064975739, 1.7354358732700348 -0.20416893064975739, 0.8166757225990295 l-2.960449457168579, 4.083378612995148 -2.65419602394104, 4.389632046222687 l-0.5104223266243935, 0.3062533959746361 -2.7562806010246277, -0.10208446532487869 l-3.4708717465400696, -1.32709801197052 -7.860503792762756, -1.2250135838985443 l-5.206307768821716, 0.0 -3.8792094588279724, 1.2250135838985443 l-3.98129403591156, 0.40833786129951477 -1.7354358732700348, -1.32709801197052 l-2.1437737345695496, -0.5104223266243935 -3.8792094588279724, -0.40833786129951477 l-2.65419602394104, 0.20416893064975739 m41.752543449401855, -4.287547469139099 l1.8375203013420105, 0.10208446532487869 8.166757225990295, 1.8375203013420105 l4.695885181427002, 1.4291824400424957 2.960449457168579, 1.7354358732700348 l0.8166757225990295, 1.32709801197052 0.20416893064975739, 1.1229290813207626 l-0.20416893064975739, 5.920898914337158 -0.6125067919492722, 2.041689306497574 l-2.7562806010246277, 4.695885181427002 -3.4708717465400696, 2.960449457168579 l-8.370925784111023, 3.368787169456482 -5.30839204788208, 0.8166757225990295 l-3.0625340342521667, -0.20416893064975739 -0.8166757225990295, -0.20416893064975739 l-1.7354358732700348, -1.633351445198059 -1.633351445198059, -4.695885181427002 l0.5104223266243935, -3.0625340342521667 3.5729563236236572, -3.98129403591156 l1.2250135838985443, -2.347942590713501 1.4291824400424957, -4.79796975851059 l0.40833786129951477, -4.389632046222687 m11.02512240409851, -1.4291824400424957 l-0.5104223266243935, 7.4521660804748535 -1.020844653248787, 6.329236626625061 l-1.5312670171260834, 4.1854628920555115 " fill="none" stroke="black" stroke-width="1" /></svg>