<?xml version="1.0" encoding="utf-8" ?>
<svg baseProfile="full" height="50.52753150463104" version="1.1" width="76.86532229185104" xmlns="http://www.w3.org/2000/svg" xmlns:ev="http://www.w3.org/2001/xml-events" xmlns:xlink="http://www.w3.org/1999/xlink"><defs /><rect fill="white" height="50.52753150463104" width="76.86532229185104" x="0" y="0" /><path d="M25.008554682135582, 25.72314515709877 m-6.1250680685043335, 0.0 l-5.104222893714905, -1.8375203013420105 -1.9396047294139862, -0.20416893064975739 l-1.2250135838985443, 0.40833786129951477 -1.32709801197052, 1.2250135838985443 l-2.8583648800849915, 5.818814635276794 -1.020844653248787, 4.79796975851059 l-0.40833786129951477, 4.593800902366638 3.1646183133125305, 2.7562806010246277 l4.1854628920555115, 1.633351445198059 4.083378612995148, 0.6125067919492722 l2.2458581626415253, -0.20416893064975739 2.2458581626415253, -1.633351445198059 l2.65419602394104, -3.1646183133125305 0.5104223266243935, -1.7354358732700348 l-0.10208446532487869, -8.983432650566101 -1.2250135838985443, -4.695885181427002 m49.10262584686279, 10.61678409576416 l-2.1437737345695496, -4.287547469139099 -0.7145912200212479, -0.3062533959746361 l-7.758418917655945, -1.2250135838985443 -7.043827772140503, -0.10208446532487869 l-0.6125067919492722, 0.20416893064975739 -0.40833786129951477, 1.2250135838985443 l-1.020844653248787, 7.96258807182312 0.6125067919492722, 1.2250135838985443 l0.7145912200212479, 0.5104223266243935 2.7562806010246277, 1.1229290813207626 l5.410476326942444, 1.2250135838985443 3.5729563236236572, 0.10208446532487869 l2.65419602394104, -1.9396047294139862 2.041689306497574, -2.2458581626415253 l1.020844653248787, -3.5729563236236572 0.5104223266243935, -5.716729760169983 m-55.63603401184082, -5.818814635276794 l0.6125067919492722, -2.2458581626415253 1.020844653248787, -1.8375203013420105 l9.187601804733276, -15.006415843963623 4.695885181427002, 0.0 l20.11063814163208, 2.4500271677970886 6.022983193397522, 0.0 l0.5104223266243935, 0.10208446532487869 0.3062533959746361, 1.1229290813207626 l0.0, 2.1437737345695496 -3.5729563236236572, 4.79796975851059 l-3.368787169456482, 6.227152347564697 -1.9396047294139862, 2.65419602394104 l-4.79796975851059, 4.4917163252830505 -22.560665607452393, -0.20416893064975739 l-7.656334638595581, -0.5104223266243935 " fill="none" stroke="black" stroke-width="1" /></svg>