<?xml version="1.0" encoding="utf-8" ?>
<svg baseProfile="full" height="48.79209652543068" version="1.1" width="62.87975199520588" xmlns="http://www.w3.org/2000/svg" xmlns:ev="http://www.w3.org/2001/xml-events" xmlns:xlink="http://www.w3.org/1999/xlink"><defs /><rect fill="white" height="48.79209652543068" width="62.87975199520588" x="0" y="0" /><path d="M42.158744521439075, 18.78140266984701 m0.9187601506710052, 2.347942590713501 l7.247996926307678, 13.57723355293274 m-2.5521114468574524, 0.20416893064975739 l-0.3062533959746361, -0.8166757225990295 0.0, -3.0625340342521667 l0.7145912200212479, -1.4291824400424957 1.4291824400424957, -1.020844653248787 l2.960449457168579, -0.3062533959746361 2.1437737345695496, 0.9187601506710052 l1.020844653248787, 0.8166757225990295 1.32709801197052, 2.1437737345695496 l0.5104223266243935, 1.2250135838985443 0.3062533959746361, 2.5521114468574524 l0.0, 1.1229290813207626 -0.8166757225990295, 1.5312670171260834 l-2.347942590713501, 0.9187601506710052 -2.960449457168579, 0.0 l-3.675040602684021, -2.1437737345695496 -1.9396047294139862, -2.65419602394104 m-2.347942590713501, -15.312669277191162 l0.0, 0.0 m-1.8375203013420105, -0.10208446532487869 l-0.5104223266243935, -0.6125067919492722 -0.3062533959746361, -7.554250359535217 l0.0, -4.4917163252830505 0.3062533959746361, -0.20416893064975739 m-3.4708717465400696, -0.9187601506710052 l6.329236626625061, 0.10208446532487869 -5.614645481109619, -0.6125067919492722 l-2.2458581626415253, 0.5104223266243935 0.8166757225990295, -0.40833786129951477 l8.064672350883484, 0.3062533959746361 -0.5104223266243935, -0.3062533959746361 l-5.614645481109619, 0.0 -1.4291824400424957, 0.40833786129951477 l10.106362104415894, -0.10208446532487869 m-5.002138614654541, 13.57723355293274 l-2.041689306497574, -0.10208446532487869 -5.920898914337158, 0.9187601506710052 l-9.493855237960815, 0.5104223266243935 0.40833786129951477, 0.20416893064975739 m18.47728729248047, -2.041689306497574 l-1.8375203013420105, 1.7354358732700348 -3.98129403591156, 2.347942590713501 l-10.412615537643433, 4.79796975851059 -8.779264092445374, 3.4708717465400696 m-0.9187601506710052, 0.8166757225990295 l0.20416893064975739, -1.9396047294139862 2.4500271677970886, -4.4917163252830505 l3.0625340342521667, -4.1854628920555115 3.266702890396118, -3.4708717465400696 m-7.350081205368042, 12.556389570236206 l-6.431320905685425, 3.0625340342521667 m-3.8792094588279724, -6.227152347564697 l-0.9187601506710052, 0.7145912200212479 -1.1229290813207626, 1.7354358732700348 l-1.7354358732700348, 3.7771251797676086 -0.9187601506710052, 3.98129403591156 l0.10208446532487869, 3.8792094588279724 0.8166757225990295, 1.4291824400424957 l1.4291824400424957, 0.9187601506710052 1.8375203013420105, 0.40833786129951477 l2.960449457168579, -0.20416893064975739 2.7562806010246277, -1.7354358732700348 l2.4500271677970886, -2.960449457168579 2.041689306497574, -8.983432650566101 l0.0, -2.041689306497574 -0.40833786129951477, -0.9187601506710052 l-0.8166757225990295, -0.6125067919492722 -3.368787169456482, -0.9187601506710052 l-1.1229290813207626, 0.0 -1.020844653248787, 0.40833786129951477 " fill="none" stroke="black" stroke-width="1" /></svg>