<?xml version="1.0" encoding="utf-8" ?>
<svg baseProfile="full" height="41.03367671370506" version="1.1" width="68.29023025929928" xmlns="http://www.w3.org/2000/svg" xmlns:ev="http://www.w3.org/2001/xml-events" xmlns:xlink="http://www.w3.org/1999/xlink"><defs /><rect fill="white" height="41.03367671370506" width="68.29023025929928" x="0" y="0" /><path d="M22.76269719004631, 18.679317943751812 m-0.5104223266243935, -0.5104223266243935 l-3.675040602684021, 0.20416893064975739 -10.106362104415894, 4.287547469139099 l-2.4500271677970886, 0.40833786129951477 -0.20416893064975739, 2.1437737345695496 l0.40833786129951477, 1.4291824400424957 1.2250135838985443, 1.9396047294139862 l3.266702890396118, 2.65419602394104 7.1459126472473145, 3.5729563236236572 l2.960449457168579, 1.020844653248787 2.4500271677970886, 0.20416893064975739 l0.5104223266243935, -0.20416893064975739 1.32709801197052, -1.9396047294139862 l1.7354358732700348, -6.839659214019775 0.3062533959746361, -3.0625340342521667 l-0.7145912200212479, -1.7354358732700348 -0.8166757225990295, -1.020844653248787 l-3.368787169456482, -2.1437737345695496 -1.32709801197052, -0.10208446532487869 m33.89204263687134, -2.1437737345695496 l-8.983432650566101, 0.8166757225990295 -0.40833786129951477, 0.6125067919492722 l-1.32709801197052, 5.920898914337158 0.20416893064975739, 2.2458581626415253 l1.2250135838985443, 1.32709801197052 8.26884150505066, 3.266702890396118 l8.983432650566101, 2.1437737345695496 0.5104223266243935, 0.0 l0.0, -2.960449457168579 -3.98129403591156, -13.475148677825928 l-5.104222893714905, 1.2250135838985443 -1.5312670171260834, 0.0 l-0.20416893064975739, -1.32709801197052 m-47.46927738189697, -6.941743493080139 l3.98129403591156, 0.7145912200212479 9.59593951702118, 3.675040602684021 l5.30839204788208, 3.8792094588279724 3.7771251797676086, 2.041689306497574 l2.1437737345695496, 1.8375203013420105 1.633351445198059, 0.6125067919492722 l0.8166757225990295, 1.020844653248787 -0.10208446532487869, -5.920898914337158 l0.8166757225990295, -2.7562806010246277 0.9187601506710052, -1.2250135838985443 l1.9396047294139862, -0.5104223266243935 6.022983193397522, 0.0 l5.002138614654541, 1.32709801197052 m0.0, 0.0 l2.8583648800849915, -0.20416893064975739 0.6125067919492722, 0.40833786129951477 l2.1437737345695496, 0.40833786129951477 1.2250135838985443, -0.5104223266243935 l1.4291824400424957, -2.7562806010246277 1.7354358732700348, -5.104222893714905 l0.9187601506710052, -1.1229290813207626 1.4291824400424957, -0.5104223266243935 m-6.533405780792236, 8.677179217338562 l-0.40833786129951477, -1.1229290813207626 -3.266702890396118, -4.79796975851059 l-1.8375203013420105, -2.1437737345695496 -0.3062533959746361, 0.10208446532487869 " fill="none" stroke="black" stroke-width="1" /></svg>