<?xml version="1.0" encoding="utf-8" ?>
<svg baseProfile="full" height="31.948159337043762" version="1.1" width="33.98984830826521" xmlns="http://www.w3.org/2000/svg" xmlns:ev="http://www.w3.org/2001/xml-events" xmlns:xlink="http://www.w3.org/1999/xlink"><defs /><rect fill="white" height="31.948159337043762" width="33.98984830826521" x="0" y="0" /><path d="M11.227152608335018, 17.250135503709316 m-0.8166757225990295, -0.20416893064975739 l-1.633351445198059, 0.20416893064975739 -2.2458581626415253, 2.347942590713501 l-1.2250135838985443, 3.8792094588279724 0.20416893064975739, 1.7354358732700348 l1.1229290813207626, 1.2250135838985443 1.7354358732700348, 0.5104223266243935 l1.9396047294139862, 0.0 1.7354358732700348, -0.5104223266243935 l1.4291824400424957, -0.9187601506710052 1.020844653248787, -1.32709801197052 l0.3062533959746361, -1.2250135838985443 -0.3062533959746361, -2.65419602394104 l-1.5312670171260834, -1.633351445198059 -0.8166757225990295, -0.40833786129951477 l-2.2458581626415253, -0.20416893064975739 m15.51683783531189, -0.6125067919492722 l-1.5312670171260834, -0.10208446532487869 -1.1229290813207626, 2.347942590713501 l0.3062533959746361, 3.8792094588279724 0.40833786129951477, 1.5312670171260834 l1.9396047294139862, 1.5312670171260834 1.2250135838985443, -0.20416893064975739 l1.8375203013420105, -1.633351445198059 0.5104223266243935, -2.8583648800849915 l-0.40833786129951477, -2.8583648800849915 -0.5104223266243935, -0.9187601506710052 l-1.8375203013420105, -0.9187601506710052 -2.8583648800849915, -0.3062533959746361 l-2.8583648800849915, 0.0 m-11.229290962219238, -0.10208446532487869 l0.20416893064975739, -0.40833786129951477 2.1437737345695496, 0.40833786129951477 l3.266702890396118, 0.10208446532487869 9.902192950248718, -0.10208446532487869 l1.2250135838985443, 0.5104223266243935 -1.1229290813207626, 0.10208446532487869 m-15.92517614364624, 0.20416893064975739 l0.3062533959746361, -7.656334638595581 m-4.1854628920555115, 0.5104223266243935 l-0.10208446532487869, -0.7145912200212479 0.5104223266243935, -1.020844653248787 l1.8375203013420105, -1.4291824400424957 4.900054335594177, -2.2458581626415253 l0.7145912200212479, -0.10208446532487869 -0.6125067919492722, 0.6125067919492722 m9.391770362854004, 10.9230375289917 l0.10208446532487869, -0.9187601506710052 1.4291824400424957, -2.2458581626415253 l0.40833786129951477, -1.633351445198059 m-3.1646183133125305, -1.5312670171260834 l3.266702890396118, -0.20416893064975739 1.7354358732700348, -0.40833786129951477 l-2.65419602394104, 0.5104223266243935 -3.368787169456482, 1.8375203013420105 l5.920898914337158, -2.65419602394104 -6.1250680685043335, 1.9396047294139862 l3.5729563236236572, -0.20416893064975739 3.0625340342521667, -0.7145912200212479 l-6.1250680685043335, 0.6125067919492722 -0.5104223266243935, 0.10208446532487869 l0.40833786129951477, 0.40833786129951477 4.593800902366638, -1.1229290813207626 l1.8375203013420105, -0.7145912200212479 -1.32709801197052, 0.0 l-5.30839204788208, 1.5312670171260834 " fill="none" stroke="black" stroke-width="1" /></svg>