<?xml version="1.0" encoding="utf-8" ?>
<svg baseProfile="full" height="31.131484284996986" version="1.1" width="39.40032500773668" xmlns="http://www.w3.org/2000/svg" xmlns:ev="http://www.w3.org/2001/xml-events" xmlns:xlink="http://www.w3.org/1999/xlink"><defs /><rect fill="white" height="31.131484284996986" width="39.40032500773668" x="0" y="0" /><path d="M5.408337861299515, 20.516838803887367 m-0.40833786129951477, 0.5104223266243935 l0.0, 0.7145912200212479 0.5104223266243935, 1.2250135838985443 l1.8375203013420105, 1.7354358732700348 2.5521114468574524, 1.32709801197052 l3.8792094588279724, 0.10208446532487869 1.5312670171260834, -1.633351445198059 l0.7145912200212479, -2.2458581626415253 -0.10208446532487869, -2.347942590713501 l-1.2250135838985443, -2.041689306497574 -1.8375203013420105, -1.7354358732700348 l-1.7354358732700348, -1.1229290813207626 -0.9187601506710052, -0.3062533959746361 l-2.1437737345695496, 0.0 -0.9187601506710052, 0.6125067919492722 l-1.1229290813207626, 2.1437737345695496 -0.20416893064975739, 2.347942590713501 m20.621061325073242, -1.2250135838985443 l0.10208446532487869, 2.65419602394104 0.5104223266243935, 1.9396047294139862 l1.020844653248787, 1.5312670171260834 1.4291824400424957, 0.8166757225990295 l0.8166757225990295, 0.10208446532487869 1.633351445198059, -0.10208446532487869 l0.6125067919492722, -0.5104223266243935 1.1229290813207626, -1.5312670171260834 l0.40833786129951477, -1.2250135838985443 0.3062533959746361, -2.7562806010246277 l-0.3062533959746361, -2.347942590713501 -1.5312670171260834, -1.2250135838985443 l-1.020844653248787, -0.10208446532487869 -1.8375203013420105, 0.0 l-0.9187601506710052, 0.3062533959746361 -0.7145912200212479, 0.7145912200212479 m-17.456443309783936, 3.4708717465400696 l1.7354358732700348, -1.8375203013420105 4.083378612995148, -5.614645481109619 l7.554250359535217, -0.20416893064975739 2.347942590713501, 0.40833786129951477 l2.65419602394104, 5.206307768821716 1.7354358732700348, 2.2458581626415253 m-14.087655544281006, -7.247996926307678 l-0.6125067919492722, -0.3062533959746361 -6.227152347564697, -0.10208446532487869 l-0.40833786129951477, -1.5312670171260834 -2.5521114468574524, -4.79796975851059 m-1.8375203013420105, 4.695885181427002 l5.920898914337158, -6.227152347564697 m7.4521660804748535, 7.554250359535217 l0.3062533959746361, -5.818814635276794 m-3.1646183133125305, 1.5312670171260834 l-0.10208446532487869, -0.8166757225990295 1.1229290813207626, -0.20416893064975739 l7.96258807182312, -0.3062533959746361 0.40833786129951477, 0.5104223266243935 l-1.1229290813207626, 0.7145912200212479 -3.1646183133125305, 0.8166757225990295 l-5.410476326942444, 0.10208446532487869 " fill="none" stroke="black" stroke-width="1" /></svg>