<?xml version="1.0" encoding="utf-8" ?>
<svg baseProfile="full" height="41.54409993439913" version="1.1" width="67.26938482373953" xmlns="http://www.w3.org/2000/svg" xmlns:ev="http://www.w3.org/2001/xml-events" xmlns:xlink="http://www.w3.org/1999/xlink"><defs /><rect fill="white" height="41.54409993439913" width="67.26938482373953" x="0" y="0" /><path d="M55.22555943578482, 10.41047666221857 m-5.920898914337158, 0.10208446532487869 l-1.1229290813207626, 0.40833786129951477 -1.5312670171260834, 1.2250135838985443 l-0.7145912200212479, 1.5312670171260834 -0.7145912200212479, 3.368787169456482 l-0.40833786129951477, 5.30839204788208 -0.6125067919492722, 1.1229290813207626 l-1.1229290813207626, 0.8166757225990295 -4.389632046222687, 0.8166757225990295 l-12.556389570236206, -0.10208446532487869 -1.8375203013420105, 0.6125067919492722 l-2.2458581626415253, 2.1437737345695496 -0.40833786129951477, 1.7354358732700348 l0.6125067919492722, 0.6125067919492722 3.0625340342521667, 0.5104223266243935 l20.41689157485962, 0.10208446532487869 2.347942590713501, -0.6125067919492722 l0.9187601506710052, -1.1229290813207626 1.1229290813207626, -4.4917163252830505 l0.20416893064975739, -2.2458581626415253 0.8166757225990295, -2.347942590713501 l0.6125067919492722, -0.40833786129951477 3.4708717465400696, -0.5104223266243935 l4.287547469139099, -2.347942590713501 1.8375203013420105, -3.0625340342521667 l0.10208446532487869, -2.1437737345695496 -0.5104223266243935, -1.1229290813207626 l-1.1229290813207626, -0.7145912200212479 -1.5312670171260834, -0.40833786129951477 l-2.4500271677970886, 0.0 -3.0625340342521667, 0.7145912200212479 l-2.8583648800849915, 0.20416893064975739 -1.32709801197052, 0.6125067919492722 m-2.4500271677970886, 20.518977642059326 l-1.5312670171260834, -0.40833786129951477 -0.7145912200212479, 0.5104223266243935 l-0.7145912200212479, 1.633351445198059 -0.10208446532487869, 2.960449457168579 l2.2458581626415253, 0.6125067919492722 0.8166757225990295, -0.20416893064975739 l1.5312670171260834, -1.32709801197052 0.3062533959746361, -2.1437737345695496 l-1.020844653248787, -1.2250135838985443 -1.8375203013420105, -0.3062533959746361 m-17.150189876556396, -0.9187601506710052 l-2.7562806010246277, 0.0 -0.6125067919492722, 0.3062533959746361 l-1.4291824400424957, 1.1229290813207626 -0.3062533959746361, 1.32709801197052 l0.0, 1.1229290813207626 1.020844653248787, 1.1229290813207626 l3.4708717465400696, 0.20416893064975739 2.960449457168579, -1.5312670171260834 l0.40833786129951477, -0.5104223266243935 0.3062533959746361, -0.5104223266243935 l-0.6125067919492722, -2.041689306497574 -1.633351445198059, -0.5104223266243935 l-2.65419602394104, -0.10208446532487869 -1.4291824400424957, 1.4291824400424957 m23.17317247390747, -21.437737941741943 l-1.1229290813207626, 5.206307768821716 0.10208446532487869, 0.5104223266243935 l0.5104223266243935, 0.20416893064975739 5.716729760169983, 0.20416893064975739 l8.473010659217834, -1.9396047294139862 0.7145912200212479, -0.40833786129951477 m-35.117056369781494, 10.004277229309082 l-4.287547469139099, -0.20416893064975739 -1.020844653248787, -0.7145912200212479 l-0.9187601506710052, -1.4291824400424957 -0.20416893064975739, -3.4708717465400696 l0.20416893064975739, -0.9187601506710052 2.1437737345695496, -2.4500271677970886 l4.695885181427002, -2.8583648800849915 0.5104223266243935, -0.7145912200212479 l0.10208446532487869, -2.960449457168579 -0.3062533959746361, -1.5312670171260834 l-1.7354358732700348, -1.2250135838985443 -2.8583648800849915, -0.7145912200212479 l-1.4291824400424957, 0.0 -4.4917163252830505, 1.1229290813207626 l-0.8166757225990295, 0.5104223266243935 -0.8166757225990295, 2.2458581626415253 l-0.7145912200212479, 9.902192950248718 0.10208446532487869, 3.368787169456482 l0.3062533959746361, 0.7145912200212479 2.347942590713501, 1.8375203013420105 l3.8792094588279724, 1.7354358732700348 1.32709801197052, 0.10208446532487869 m-7.247996926307678, -19.60021734237671 l-1.4291824400424957, 0.7145912200212479 -2.4500271677970886, 0.40833786129951477 l0.7145912200212479, 2.347942590713501 1.9396047294139862, 3.675040602684021 m-5.716729760169983, -4.79796975851059 l-1.4291824400424957, -0.40833786129951477 -2.5521114468574524, -0.10208446532487869 m5.716729760169983, 3.8792094588279724 l-3.7771251797676086, 1.8375203013420105 m3.7771251797676086, -0.6125067919492722 l-1.633351445198059, 1.9396047294139862 -3.7771251797676086, 2.8583648800849915 m27.766973972320557, 5.716729760169983 l0.0, -6.1250680685043335 " fill="none" stroke="black" stroke-width="1" /></svg>