<?xml version="1.0" encoding="utf-8" ?>
<svg baseProfile="full" height="46.7504071071744" version="1.1" width="53.385897912085056" xmlns="http://www.w3.org/2000/svg" xmlns:ev="http://www.w3.org/2001/xml-events" xmlns:xlink="http://www.w3.org/1999/xlink"><defs /><rect fill="white" height="46.7504071071744" width="53.385897912085056" x="0" y="0" /><path d="M6.735435947775841, 24.906470999121666 m-1.5312670171260834, 3.1646183133125305 l-0.20416893064975739, 2.65419602394104 1.4291824400424957, 2.7562806010246277 l1.020844653248787, 0.9187601506710052 1.633351445198059, 0.9187601506710052 l2.8583648800849915, 0.9187601506710052 2.65419602394104, 0.10208446532487869 l3.98129403591156, -1.2250135838985443 2.041689306497574, -1.32709801197052 l1.4291824400424957, -2.4500271677970886 0.20416893064975739, -1.5312670171260834 l-0.40833786129951477, -3.5729563236236572 -1.1229290813207626, -2.7562806010246277 l-2.1437737345695496, -1.4291824400424957 -3.98129403591156, -0.8166757225990295 l-1.32709801197052, 0.0 -3.98129403591156, 1.5312670171260834 m36.03581666946411, 0.9187601506710052 l-4.083378612995148, -0.5104223266243935 -2.960449457168579, 0.6125067919492722 l-3.266702890396118, 1.4291824400424957 -1.7354358732700348, 1.4291824400424957 l-1.32709801197052, 2.2458581626415253 -0.20416893064975739, 3.4708717465400696 l0.9187601506710052, 3.5729563236236572 2.4500271677970886, 3.98129403591156 l2.1437737345695496, 1.7354358732700348 0.5104223266243935, 0.10208446532487869 l1.7354358732700348, -0.3062533959746361 2.7562806010246277, -1.633351445198059 l2.65419602394104, -3.0625340342521667 2.65419602394104, -4.900054335594177 l0.8166757225990295, -3.7771251797676086 0.0, -2.347942590713501 l-0.7145912200212479, -2.2458581626415253 -1.1229290813207626, -1.32709801197052 l-2.041689306497574, -0.6125067919492722 -3.98129403591156, -0.10208446532487869 l-4.593800902366638, 1.7354358732700348 m-16.53768301010132, 1.1229290813207626 l10.514699220657349, -0.7145912200212479 6.227152347564697, 0.20416893064975739 m-25.929453372955322, -13.2709801197052 l-0.40833786129951477, 6.941743493080139 0.8166757225990295, 5.104222893714905 m2.347942590713501, -13.57723355293274 l2.347942590713501, 0.0 4.593800902366638, 0.8166757225990295 l1.9396047294139862, -0.5104223266243935 1.2250135838985443, -0.8166757225990295 l-1.7354358732700348, -1.7354358732700348 -1.2250135838985443, -0.7145912200212479 l-3.5729563236236572, -1.020844653248787 -1.32709801197052, 0.0 l-0.5104223266243935, 0.3062533959746361 -0.6125067919492722, 1.32709801197052 l-0.10208446532487869, 2.2458581626415253 1.32709801197052, 2.65419602394104 l1.7354358732700348, 0.8166757225990295 1.633351445198059, 0.10208446532487869 l1.32709801197052, -0.5104223266243935 0.40833786129951477, -0.5104223266243935 l0.40833786129951477, -1.633351445198059 -0.40833786129951477, -2.347942590713501 l-0.5104223266243935, -1.1229290813207626 -1.1229290813207626, -0.8166757225990295 l-2.2458581626415253, -0.20416893064975739 -2.041689306497574, 0.6125067919492722 m6.329236626625061, 3.368787169456482 l2.041689306497574, 0.6125067919492722 7.043827772140503, 0.0 l4.083378612995148, 0.9187601506710052 0.9187601506710052, -0.20416893064975739 " fill="none" stroke="black" stroke-width="1" /></svg>