<?xml version="1.0" encoding="utf-8" ?>
<svg baseProfile="full" height="52.773390524089336" version="1.1" width="63.49225718528032" xmlns="http://www.w3.org/2000/svg" xmlns:ev="http://www.w3.org/2001/xml-events" xmlns:xlink="http://www.w3.org/1999/xlink"><defs /><rect fill="white" height="52.773390524089336" width="63.49225718528032" x="0" y="0" /><path d="M9.593800865113735, 27.05024480819702 m-0.5104223266243935, 0.0 l-1.020844653248787, 0.8166757225990295 -1.7354358732700348, 1.9396047294139862 l-1.32709801197052, 8.064672350883484 0.0, 3.368787169456482 l0.5104223266243935, 2.4500271677970886 0.40833786129951477, 1.020844653248787 l1.4291824400424957, 1.7354358732700348 2.960449457168579, 1.2250135838985443 l5.104222893714905, 0.10208446532487869 2.347942590713501, -0.5104223266243935 l3.7771251797676086, -1.32709801197052 1.9396047294139862, -1.1229290813207626 l0.6125067919492722, -0.5104223266243935 1.7354358732700348, -3.675040602684021 l-0.3062533959746361, -1.7354358732700348 -2.2458581626415253, -2.7562806010246277 l-6.1250680685043335, -4.389632046222687 -1.9396047294139862, -2.1437737345695496 l-3.1646183133125305, -1.4291824400424957 -2.7562806010246277, -0.40833786129951477 m42.058796882629395, 2.1437737345695496 l-1.8375203013420105, -0.10208446532487869 -2.5521114468574524, 1.32709801197052 l-3.368787169456482, 2.4500271677970886 -1.32709801197052, 1.9396047294139862 l-0.10208446532487869, 2.347942590713501 1.9396047294139862, 3.368787169456482 l2.4500271677970886, 1.4291824400424957 1.7354358732700348, 0.40833786129951477 l1.5312670171260834, -0.7145912200212479 2.041689306497574, -1.8375203013420105 l1.2250135838985443, -1.7354358732700348 0.9187601506710052, -2.7562806010246277 l0.0, -2.4500271677970886 -1.020844653248787, -1.633351445198059 l-1.9396047294139862, -1.7354358732700348 -3.1646183133125305, -0.20416893064975739 m-37.567081451416016, -3.0625340342521667 l4.1854628920555115, -0.6125067919492722 9.391770362854004, -0.10208446532487869 l1.2250135838985443, -0.3062533959746361 21.641905307769775, 0.0 l1.5312670171260834, 0.20416893064975739 1.9396047294139862, 0.8166757225990295 l0.7145912200212479, 0.5104223266243935 0.8166757225990295, 1.32709801197052 l-0.6125067919492722, 0.20416893064975739 m-20.621061325073242, -3.675040602684021 l-0.5104223266243935, -4.695885181427002 1.020844653248787, -0.40833786129951477 l2.5521114468574524, 0.10208446532487869 0.0, 1.020844653248787 l-0.40833786129951477, 0.5104223266243935 -0.7145912200212479, 0.3062533959746361 l-2.1437737345695496, -0.10208446532487869 m15.210585594177246, 3.0625340342521667 l-0.10208446532487869, -5.30839204788208 1.020844653248787, -6.839659214019775 l2.4500271677970886, -0.20416893064975739 9.59593951702118, -2.8583648800849915 l-0.5104223266243935, -0.3062533959746361 -5.410476326942444, 0.0 l-3.7771251797676086, 2.1437737345695496 -2.8583648800849915, 0.0 l-0.6125067919492722, -0.20416893064975739 -5.206307768821716, -6.533405780792236 l3.0625340342521667, 2.1437737345695496 1.4291824400424957, 2.5521114468574524 " fill="none" stroke="black" stroke-width="1" /></svg>