<?xml version="1.0" encoding="utf-8" ?>
<svg baseProfile="full" height="30.212724022567272" version="1.1" width="49.710855297744274" xmlns="http://www.w3.org/2000/svg" xmlns:ev="http://www.w3.org/2001/xml-events" xmlns:xlink="http://www.w3.org/1999/xlink"><defs /><rect fill="white" height="30.212724022567272" width="49.710855297744274" x="0" y="0" /><path d="M12.656334675848484, 16.73971328884363 m-2.347942590713501, -1.7354358732700348 l-1.633351445198059, -0.7145912200212479 -1.8375203013420105, 0.20416893064975739 l-1.32709801197052, 1.1229290813207626 -0.5104223266243935, 1.633351445198059 l0.10208446532487869, 1.32709801197052 0.5104223266243935, 1.4291824400424957 l1.9396047294139862, 3.0625340342521667 5.104222893714905, -2.65419602394104 l1.2250135838985443, -2.1437737345695496 0.0, -1.5312670171260834 l-1.020844653248787, -1.020844653248787 -2.5521114468574524, -0.5104223266243935 l-0.7145912200212479, 0.6125067919492722 m1.32709801197052, -0.7145912200212479 l1.4291824400424957, -1.9396047294139862 2.041689306497574, -0.8166757225990295 l5.30839204788208, 0.10208446532487869 7.758418917655945, 1.32709801197052 l14.393908977508545, 0.40833786129951477 m0.3062533959746361, 0.3062533959746361 l-0.6125067919492722, 5.512561202049255 m-1.633351445198059, -0.10208446532487869 l-1.5312670171260834, 0.7145912200212479 -0.5104223266243935, 1.1229290813207626 l0.10208446532487869, 1.2250135838985443 0.6125067919492722, 1.1229290813207626 l1.9396047294139862, 1.1229290813207626 0.7145912200212479, 0.0 l2.1437737345695496, -0.9187601506710052 0.9187601506710052, -0.9187601506710052 l-0.20416893064975739, -1.5312670171260834 -0.7145912200212479, -0.5104223266243935 l-2.1437737345695496, -1.020844653248787 -3.368787169456482, -0.7145912200212479 l-1.5312670171260834, 0.20416893064975739 0.10208446532487869, 0.7145912200212479 l1.020844653248787, 0.8166757225990295 m3.98129403591156, -7.1459126472473145 l0.40833786129951477, -1.32709801197052 0.10208446532487869, -2.4500271677970886 m1.1229290813207626, -1.32709801197052 l-1.020844653248787, 0.40833786129951477 0.40833786129951477, -0.5104223266243935 l-0.5104223266243935, 0.0 -0.20416893064975739, 1.020844653248787 l0.6125067919492722, 0.20416893064975739 1.2250135838985443, -0.40833786129951477 l0.40833786129951477, -0.5104223266243935 -0.40833786129951477, -0.5104223266243935 l-1.1229290813207626, 0.0 -1.020844653248787, 0.6125067919492722 l-0.20416893064975739, 0.5104223266243935 0.3062533959746361, 0.6125067919492722 l1.5312670171260834, 0.10208446532487869 1.2250135838985443, -0.5104223266243935 l0.40833786129951477, -0.6125067919492722 -0.5104223266243935, -1.1229290813207626 l-1.2250135838985443, -0.3062533959746361 -1.1229290813207626, 0.6125067919492722 l-0.20416893064975739, 1.020844653248787 1.4291824400424957, 0.10208446532487869 l0.5104223266243935, -0.40833786129951477 -0.10208446532487869, -1.1229290813207626 l-1.020844653248787, -0.6125067919492722 -1.1229290813207626, 0.6125067919492722 l-0.40833786129951477, 0.5104223266243935 0.10208446532487869, 0.5104223266243935 l1.4291824400424957, 0.5104223266243935 1.633351445198059, -0.3062533959746361 l0.40833786129951477, -0.5104223266243935 -0.20416893064975739, -0.6125067919492722 l-0.5104223266243935, -0.3062533959746361 -1.5312670171260834, 0.40833786129951477 l-0.5104223266243935, 0.5104223266243935 0.0, 0.5104223266243935 l1.32709801197052, -0.20416893064975739 0.7145912200212479, -0.8166757225990295 l-1.4291824400424957, -0.6125067919492722 -1.1229290813207626, 0.20416893064975739 l-0.3062533959746361, 0.5104223266243935 0.0, 0.5104223266243935 l0.6125067919492722, 0.40833786129951477 2.2458581626415253, 0.5104223266243935 l0.6125067919492722, -0.20416893064975739 0.20416893064975739, -0.5104223266243935 l-0.8166757225990295, -1.020844653248787 -1.32709801197052, -0.5104223266243935 l-0.5104223266243935, 0.0 -0.3062533959746361, 0.5104223266243935 l0.10208446532487869, 0.6125067919492722 0.5104223266243935, 0.10208446532487869 l-0.20416893064975739, -0.5104223266243935 m-24.704439640045166, 3.368787169456482 l3.368787169456482, -2.65419602394104 1.2250135838985443, -0.6125067919492722 l3.675040602684021, -0.7145912200212479 1.32709801197052, 0.20416893064975739 m-6.737574338912964, 0.6125067919492722 l1.1229290813207626, -1.7354358732700348 1.32709801197052, -0.9187601506710052 l2.65419602394104, -0.6125067919492722 1.4291824400424957, 0.0 m0.20416893064975739, -0.10208446532487869 l-0.10208446532487869, 0.5104223266243935 -0.10208446532487869, -0.5104223266243935 l-0.5104223266243935, -0.3062533959746361 -1.5312670171260834, 0.20416893064975739 l-0.40833786129951477, 0.6125067919492722 " fill="none" stroke="black" stroke-width="1" /></svg>