<?xml version="1.0" encoding="utf-8" ?>
<svg baseProfile="full" height="53.89631982892752" version="1.1" width="77.37574554979801" xmlns="http://www.w3.org/2000/svg" xmlns:ev="http://www.w3.org/2001/xml-events" xmlns:xlink="http://www.w3.org/1999/xlink"><defs /><rect fill="white" height="53.89631982892752" width="77.37574554979801" x="0" y="0" /><path d="M18.985571563243866, 21.639769226312637 m-4.4917163252830505, -0.5104223266243935 l-1.5312670171260834, 0.5104223266243935 -1.7354358732700348, 1.1229290813207626 l-1.633351445198059, 1.633351445198059 -2.960449457168579, 4.1854628920555115 l-1.633351445198059, 4.287547469139099 0.0, 7.247996926307678 l1.8375203013420105, 3.8792094588279724 1.4291824400424957, 1.7354358732700348 l1.9396047294139862, 1.4291824400424957 2.347942590713501, 0.6125067919492722 l2.8583648800849915, -0.10208446532487869 2.7562806010246277, -1.5312670171260834 l2.960449457168579, -2.2458581626415253 2.5521114468574524, -2.2458581626415253 l2.041689306497574, -2.347942590713501 1.2250135838985443, -2.5521114468574524 l0.6125067919492722, -2.4500271677970886 0.0, -2.7562806010246277 l-0.40833786129951477, -2.5521114468574524 -2.4500271677970886, -4.593800902366638 l-3.266702890396118, -3.1646183133125305 -3.266702890396118, -1.32709801197052 l-2.960449457168579, -0.20416893064975739 -1.4291824400424957, 0.8166757225990295 l-1.2250135838985443, 2.347942590713501 m-5.716729760169983, 2.4500271677970886 l4.900054335594177, 4.4917163252830505 2.65419602394104, 3.0625340342521667 l6.227152347564697, 8.370925784111023 2.041689306497574, 1.9396047294139862 m-2.5521114468574524, -22.764835357666016 l-0.8166757225990295, 4.389632046222687 -5.30839204788208, 20.11063814163208 l-0.20416893064975739, 2.1437737345695496 m1.020844653248787, -25.623199939727783 l0.20416893064975739, 14.189740419387817 0.40833786129951477, 2.65419602394104 l2.4500271677970886, 8.473010659217834 m-12.454304695129395, -8.473010659217834 l2.041689306497574, 0.0 1.9396047294139862, -0.5104223266243935 l9.902192950248718, -3.98129403591156 8.779264092445374, -2.960449457168579 m30.931591987609863, -9.187601804733276 l-0.3062533959746361, -1.633351445198059 -0.5104223266243935, -0.8166757225990295 l-0.9187601506710052, -0.5104223266243935 -4.593800902366638, -0.20416893064975739 l-3.7771251797676086, 1.1229290813207626 -1.9396047294139862, 1.020844653248787 l-1.7354358732700348, 1.4291824400424957 -1.4291824400424957, 1.8375203013420105 l-1.9396047294139862, 5.002138614654541 -0.6125067919492722, 6.329236626625061 l0.0, 3.7771251797676086 0.6125067919492722, 3.266702890396118 l1.1229290813207626, 2.7562806010246277 1.5312670171260834, 1.633351445198059 l2.041689306497574, 1.020844653248787 2.347942590713501, 0.6125067919492722 l4.900054335594177, 0.6125067919492722 7.758418917655945, -0.10208446532487869 l2.5521114468574524, -0.8166757225990295 4.389632046222687, -2.5521114468574524 l2.960449457168579, -3.368787169456482 0.7145912200212479, -1.7354358732700348 l0.20416893064975739, -3.8792094588279724 -0.3062533959746361, -2.2458581626415253 l-1.9396047294139862, -4.695885181427002 -2.65419602394104, -4.083378612995148 l-4.4917163252830505, -4.389632046222687 -1.8375203013420105, -0.9187601506710052 l-1.9396047294139862, -0.40833786129951477 -3.7771251797676086, 0.0 l-1.4291824400424957, 0.20416893064975739 -1.8375203013420105, 0.7145912200212479 l-0.40833786129951477, 0.5104223266243935 m3.368787169456482, -2.4500271677970886 l1.2250135838985443, 9.493855237960815 0.0, 16.33351445198059 l0.5104223266243935, 2.041689306497574 m-10.514699220657349, 0.40833786129951477 l2.1437737345695496, -2.041689306497574 3.266702890396118, -6.227152347564697 l2.2458581626415253, -3.5729563236236572 8.370925784111023, -10.412615537643433 l1.633351445198059, -2.65419602394104 m-22.764835357666016, 2.65419602394104 l7.96258807182312, 5.920898914337158 13.168895244598389, 10.820952653884888 l6.941743493080139, 4.900054335594177 0.6125067919492722, 0.5104223266243935 l-0.3062533959746361, 0.10208446532487869 m-29.09407138824463, -13.066811561584473 l4.900054335594177, -0.3062533959746361 13.67931842803955, -2.2458581626415253 l8.166757225990295, 0.0 2.7562806010246277, 0.7145912200212479 m-54.411020278930664, -12.148051261901855 l-0.10208446532487869, -1.32709801197052 1.8375203013420105, -3.5729563236236572 l3.266702890396118, -3.7771251797676086 2.347942590713501, -1.8375203013420105 l5.410476326942444, -3.0625340342521667 5.410476326942444, -1.32709801197052 l4.900054335594177, 0.0 4.593800902366638, 1.5312670171260834 l1.9396047294139862, 1.1229290813207626 3.1646183133125305, 2.4500271677970886 l1.32709801197052, 1.4291824400424957 3.98129403591156, 6.431320905685425 " fill="none" stroke="black" stroke-width="1" /></svg>