<?xml version="1.0" encoding="utf-8" ?>
<svg baseProfile="full" height="38.787818253040314" version="1.1" width="32.356497049331665" xmlns="http://www.w3.org/2000/svg" xmlns:ev="http://www.w3.org/2001/xml-events" xmlns:xlink="http://www.w3.org/1999/xlink"><defs /><rect fill="white" height="38.787818253040314" width="32.356497049331665" x="0" y="0" /><path d="M11.635490022599697, 20.312669202685356 m-2.041689306497574, 0.0 l-1.4291824400424957, 0.7145912200212479 -1.9396047294139862, 2.5521114468574524 l-0.7145912200212479, 2.1437737345695496 -0.5104223266243935, 4.79796975851059 l0.20416893064975739, 1.633351445198059 0.6125067919492722, 1.020844653248787 l1.1229290813207626, 0.6125067919492722 1.7354358732700348, 0.0 l1.7354358732700348, -0.8166757225990295 1.32709801197052, -1.8375203013420105 l1.1229290813207626, -2.347942590713501 0.40833786129951477, -2.347942590713501 l-0.6125067919492722, -3.4708717465400696 -0.8166757225990295, -1.1229290813207626 l-2.041689306497574, -0.8166757225990295 m10.514699220657349, -0.7145912200212479 l-0.9187601506710052, 0.7145912200212479 -0.6125067919492722, 1.020844653248787 l-0.3062533959746361, 3.368787169456482 0.3062533959746361, 4.79796975851059 l1.5312670171260834, 0.7145912200212479 1.5312670171260834, -0.20416893064975739 l1.5312670171260834, -0.8166757225990295 1.633351445198059, -1.633351445198059 l2.347942590713501, -4.083378612995148 -0.20416893064975739, -3.0625340342521667 l-1.1229290813207626, -1.1229290813207626 -1.5312670171260834, -0.7145912200212479 l-2.041689306497574, -0.40833786129951477 -1.7354358732700348, -0.20416893064975739 l-1.9396047294139862, 0.3062533959746361 m-7.656334638595581, 8.983432650566101 l0.5104223266243935, -1.1229290813207626 8.983432650566101, -13.57723355293274 l2.8583648800849915, -3.266702890396118 m-13.781402111053467, 0.10208446532487869 l7.758418917655945, 9.800108671188354 4.79796975851059, 6.941743493080139 m-12.556389570236206, -15.51683783531189 l6.737574338912964, -1.020844653248787 -4.79796975851059, 1.2250135838985443 l-2.347942590713501, 0.10208446532487869 0.10208446532487869, -0.8166757225990295 l2.8583648800849915, -1.633351445198059 1.2250135838985443, -0.3062533959746361 l-0.8166757225990295, 1.1229290813207626 m10.9230375289917, 0.9187601506710052 l-0.8166757225990295, -0.8166757225990295 -2.1437737345695496, -3.98129403591156 l-0.9187601506710052, -1.1229290813207626 m1.633351445198059, 1.9396047294139862 l-3.675040602684021, 0.40833786129951477 m4.4917163252830505, -1.020844653248787 l1.2250135838985443, 0.40833786129951477 2.8583648800849915, -0.5104223266243935 l1.1229290813207626, -0.8166757225990295 " fill="none" stroke="black" stroke-width="1" /></svg>