<?xml version="1.0" encoding="utf-8" ?>
<svg baseProfile="full" height="33.07108864188194" version="1.1" width="38.68573438376188" xmlns="http://www.w3.org/2000/svg" xmlns:ev="http://www.w3.org/2001/xml-events" xmlns:xlink="http://www.w3.org/1999/xlink"><defs /><rect fill="white" height="33.07108864188194" width="38.68573438376188" x="0" y="0" /><path d="M13.6771797016263, 18.78140263259411 m-0.7145912200212479, -2.8583648800849915 l-1.020844653248787, 0.40833786129951477 -1.8375203013420105, 2.8583648800849915 l-0.7145912200212479, 2.041689306497574 -0.10208446532487869, 3.368787169456482 l0.7145912200212479, 1.4291824400424957 1.1229290813207626, 1.1229290813207626 l1.32709801197052, 0.7145912200212479 2.65419602394104, 0.20416893064975739 l1.32709801197052, -0.6125067919492722 1.1229290813207626, -1.1229290813207626 l2.041689306497574, -3.7771251797676086 0.40833786129951477, -1.633351445198059 l-0.10208446532487869, -3.675040602684021 -1.020844653248787, -1.2250135838985443 l-1.5312670171260834, -0.6125067919492722 -4.593800902366638, 0.40833786129951477 l-2.347942590713501, 1.5312670171260834 -1.7354358732700348, 1.9396047294139862 m23.581511974334717, -5.716729760169983 l-1.633351445198059, -0.20416893064975739 -2.041689306497574, 1.1229290813207626 l-2.347942590713501, 2.2458581626415253 -1.7354358732700348, 3.4708717465400696 l-0.20416893064975739, 3.1646183133125305 0.5104223266243935, 1.4291824400424957 l1.9396047294139862, 1.8375203013420105 2.65419602394104, 0.6125067919492722 l2.8583648800849915, -2.7562806010246277 0.8166757225990295, -3.266702890396118 l0.0, -1.7354358732700348 -0.5104223266243935, -1.7354358732700348 l-2.041689306497574, -2.7562806010246277 -2.1437737345695496, -0.9187601506710052 l-1.5312670171260834, 0.0 m-12.760558128356934, 1.020844653248787 l4.593800902366638, 0.10208446532487869 4.4917163252830505, -0.40833786129951477 l10.514699220657349, -2.347942590713501 m-19.60021734237671, 2.5521114468574524 l-2.5521114468574524, -3.675040602684021 -2.041689306497574, -5.104222893714905 l-0.7145912200212479, -0.9187601506710052 m0.10208446532487869, 0.20416893064975739 l-1.020844653248787, -0.5104223266243935 -2.8583648800849915, 1.7354358732700348 " fill="none" stroke="black" stroke-width="1" /></svg>