<?xml version="1.0" encoding="utf-8" ?>
<svg baseProfile="full" height="37.358636409044266" version="1.1" width="56.7546833306551" xmlns="http://www.w3.org/2000/svg" xmlns:ev="http://www.w3.org/2001/xml-events" xmlns:xlink="http://www.w3.org/1999/xlink"><defs /><rect fill="white" height="37.358636409044266" width="56.7546833306551" x="0" y="0" /><path d="M12.35008142888546, 19.393909350037575 m-1.633351445198059, -1.9396047294139862 l-2.1437737345695496, 0.0 -1.5312670171260834, 0.7145912200212479 l-1.1229290813207626, 1.7354358732700348 -0.9187601506710052, 2.347942590713501 l0.0, 2.7562806010246277 1.2250135838985443, 2.65419602394104 l1.4291824400424957, 1.32709801197052 2.041689306497574, 0.40833786129951477 l2.4500271677970886, 0.0 1.633351445198059, -0.9187601506710052 l0.5104223266243935, -1.4291824400424957 0.0, -6.022983193397522 l-0.8166757225990295, -2.4500271677970886 -0.40833786129951477, -0.40833786129951477 m36.6483211517334, 1.2250135838985443 l-2.2458581626415253, -1.020844653248787 -2.65419602394104, 0.0 l-1.7354358732700348, 1.1229290813207626 -1.8375203013420105, 2.347942590713501 l-0.5104223266243935, 1.5312670171260834 0.0, 1.633351445198059 l0.8166757225990295, 3.4708717465400696 1.633351445198059, 2.65419602394104 l1.633351445198059, 1.020844653248787 4.083378612995148, 0.20416893064975739 l1.1229290813207626, -0.5104223266243935 0.9187601506710052, -1.020844653248787 l0.8166757225990295, -2.4500271677970886 0.0, -3.98129403591156 l-1.020844653248787, -3.0625340342521667 -2.4500271677970886, -3.4708717465400696 l-1.633351445198059, -1.32709801197052 m-31.54409885406494, 5.614645481109619 l6.431320905685425, 1.2250135838985443 18.375203609466553, 0.3062533959746361 l1.4291824400424957, -0.5104223266243935 m-8.26884150505066, 1.2250135838985443 l0.0, -11.841797828674316 m0.10208446532487869, -2.041689306497574 l-1.1229290813207626, 0.3062533959746361 -1.32709801197052, 1.32709801197052 l-0.40833786129951477, 0.7145912200212479 -0.10208446532487869, 1.633351445198059 l0.3062533959746361, 0.6125067919492722 2.4500271677970886, 0.20416893064975739 l1.32709801197052, -0.40833786129951477 1.020844653248787, -1.020844653248787 l0.3062533959746361, -1.1229290813207626 -1.020844653248787, -1.4291824400424957 l-2.5521114468574524, -0.40833786129951477 -0.6125067919492722, 0.8166757225990295 l0.10208446532487869, 1.32709801197052 0.40833786129951477, 0.6125067919492722 l1.633351445198059, 0.5104223266243935 1.633351445198059, -0.20416893064975739 l0.40833786129951477, -0.5104223266243935 0.0, -0.7145912200212479 l-2.2458581626415253, -1.1229290813207626 -0.7145912200212479, 0.0 l-1.1229290813207626, 0.6125067919492722 -0.20416893064975739, 1.4291824400424957 l0.3062533959746361, 0.6125067919492722 1.2250135838985443, 0.6125067919492722 l1.4291824400424957, 0.10208446532487869 0.20416893064975739, -0.6125067919492722 l-1.2250135838985443, -1.1229290813207626 m-17.456443309783936, 8.064672350883484 l0.0, -1.32709801197052 -1.2250135838985443, -4.1854628920555115 l-2.7562806010246277, -5.206307768821716 -0.7145912200212479, -2.5521114468574524 m0.0, 0.0 l0.3062533959746361, -0.5104223266243935 3.98129403591156, -1.9396047294139862 l0.6125067919492722, -0.6125067919492722 m-4.695885181427002, 3.368787169456482 l-0.5104223266243935, 1.5312670171260834 -0.10208446532487869, 3.8792094588279724 " fill="none" stroke="black" stroke-width="1" /></svg>