<?xml version="1.0" encoding="utf-8" ?>
<svg baseProfile="full" height="56.24426178634167" version="1.1" width="60.327641665935516" xmlns="http://www.w3.org/2000/svg" xmlns:ev="http://www.w3.org/2001/xml-events" xmlns:xlink="http://www.w3.org/1999/xlink"><defs /><rect fill="white" height="56.24426178634167" width="60.327641665935516" x="0" y="0" /><path d="M13.268841281533241, 49.202573001384735 m-0.8166757225990295, -0.10208446532487869 l-1.633351445198059, -1.020844653248787 -5.104222893714905, -2.2458581626415253 l-0.7145912200212479, -1.32709801197052 0.0, -4.593800902366638 l0.40833786129951477, -2.1437737345695496 1.32709801197052, -1.7354358732700348 l3.7771251797676086, -2.4500271677970886 3.368787169456482, -1.633351445198059 l9.800108671188354, -2.960449457168579 3.4708717465400696, 0.0 l1.020844653248787, 0.6125067919492722 1.8375203013420105, 3.4708717465400696 l0.40833786129951477, 3.8792094588279724 -0.20416893064975739, 5.002138614654541 l-1.2250135838985443, 2.960449457168579 -1.633351445198059, 2.2458581626415253 l-1.8375203013420105, 1.8375203013420105 -2.5521114468574524, 1.4291824400424957 l-2.5521114468574524, 0.7145912200212479 -3.7771251797676086, 0.10208446532487869 l-2.5521114468574524, -1.2250135838985443 -0.5104223266243935, -0.5104223266243935 l-0.10208446532487869, -1.1229290813207626 m30.523254871368408, -3.0625340342521667 l-0.10208446532487869, 2.347942590713501 -2.65419602394104, 1.7354358732700348 l-1.9396047294139862, 0.3062533959746361 -3.266702890396118, -3.5729563236236572 l-0.6125067919492722, -1.7354358732700348 -0.40833786129951477, -2.960449457168579 l0.10208446532487869, -5.614645481109619 1.9396047294139862, -4.083378612995148 l1.8375203013420105, -2.1437737345695496 3.7771251797676086, -1.8375203013420105 l5.818814635276794, -0.8166757225990295 3.7771251797676086, 0.0 l1.2250135838985443, 0.6125067919492722 1.32709801197052, 1.32709801197052 l0.40833786129951477, 1.020844653248787 -0.20416893064975739, 6.227152347564697 l-1.7354358732700348, 4.287547469139099 -1.32709801197052, 2.2458581626415253 l-2.347942590713501, 2.347942590713501 -3.675040602684021, 1.633351445198059 l-2.041689306497574, 0.10208446532487869 -3.8792094588279724, 0.9187601506710052 l-3.0625340342521667, -0.10208446532487869 m-18.57937216758728, -17.150189876556396 l0.10208446532487869, -5.716729760169983 -0.3062533959746361, 2.65419602394104 l0.20416893064975739, 8.473010659217834 1.020844653248787, 5.716729760169983 l0.3062533959746361, -2.7562806010246277 m0.40833786129951477, -13.781402111053467 l4.1854628920555115, 0.20416893064975739 2.960449457168579, 0.5104223266243935 l10.61678409576416, -0.10208446532487869 2.4500271677970886, -0.6125067919492722 l3.4708717465400696, -0.3062533959746361 2.2458581626415253, -0.7145912200212479 l2.041689306497574, -0.10208446532487869 3.4708717465400696, 0.0 l3.266702890396118, 0.8166757225990295 0.5104223266243935, 0.3062533959746361 l-0.40833786129951477, 2.2458581626415253 -2.8583648800849915, 9.28968608379364 l-2.7562806010246277, 6.6354900598526 -0.3062533959746361, 0.5104223266243935 l-0.6125067919492722, -0.20416893064975739 -0.8166757225990295, -2.041689306497574 m-29.298241138458252, -15.312669277191162 l0.40833786129951477, -0.6125067919492722 0.40833786129951477, -2.2458581626415253 l0.10208446532487869, -4.389632046222687 -0.9187601506710052, -8.26884150505066 l-0.20416893064975739, 0.40833786129951477 m3.0625340342521667, 4.79796975851059 l-1.2250135838985443, -0.20416893064975739 -1.633351445198059, -0.8166757225990295 l-1.5312670171260834, -1.2250135838985443 -2.041689306497574, -4.1854628920555115 l-0.10208446532487869, -1.633351445198059 0.40833786129951477, -0.8166757225990295 l2.347942590713501, -0.9187601506710052 7.656334638595581, -1.020844653248787 l3.0625340342521667, 0.0 1.8375203013420105, 0.5104223266243935 l3.0625340342521667, 2.2458581626415253 " fill="none" stroke="black" stroke-width="1" /></svg>