<?xml version="1.0" encoding="utf-8" ?>
<svg baseProfile="full" height="29.80438556522131" version="1.1" width="57.571360021829605" xmlns="http://www.w3.org/2000/svg" xmlns:ev="http://www.w3.org/2001/xml-events" xmlns:xlink="http://www.w3.org/1999/xlink"><defs /><rect fill="white" height="29.80438556522131" width="57.571360021829605" x="0" y="0" /><path d="M18.781402744352818, 6.327097341418266 m-2.1437737345695496, 0.5104223266243935 l-8.166757225990295, 4.900054335594177 -0.9187601506710052, 0.6125067919492722 l-1.1229290813207626, 1.9396047294139862 -0.5104223266243935, 5.104222893714905 l0.10208446532487869, 1.4291824400424957 0.5104223266243935, 1.020844653248787 l2.041689306497574, 0.9187601506710052 4.389632046222687, 0.10208446532487869 l1.1229290813207626, -0.40833786129951477 1.9396047294139862, -1.5312670171260834 l1.1229290813207626, -1.7354358732700348 1.9396047294139862, -4.4917163252830505 l0.9187601506710052, -3.675040602684021 0.10208446532487869, -1.8375203013420105 l-0.20416893064975739, -0.5104223266243935 -0.7145912200212479, -0.40833786129951477 l-1.9396047294139862, -0.9187601506710052 -0.8166757225990295, 0.0 l-2.4500271677970886, 3.266702890396118 m0.8166757225990295, -5.002138614654541 l-0.40833786129951477, 4.389632046222687 -0.5104223266243935, 2.1437737345695496 l-3.675040602684021, 11.841797828674316 m-5.206307768821716, -7.758418917655945 l10.412615537643433, 0.20416893064975739 2.041689306497574, 0.7145912200212479 l0.40833786129951477, 0.9187601506710052 m32.7691125869751, -6.022983193397522 l-1.633351445198059, -0.20416893064975739 -1.2250135838985443, 0.8166757225990295 l-4.389632046222687, 5.818814635276794 -0.5104223266243935, 1.8375203013420105 l0.20416893064975739, 2.041689306497574 2.041689306497574, 1.1229290813207626 l3.7771251797676086, -0.3062533959746361 1.2250135838985443, -1.020844653248787 l1.1229290813207626, -1.32709801197052 0.6125067919492722, -1.4291824400424957 l0.6125067919492722, -2.041689306497574 0.10208446532487869, -2.1437737345695496 l-0.5104223266243935, -1.020844653248787 -0.8166757225990295, -0.7145912200212479 l-1.020844653248787, -0.3062533959746361 -1.020844653248787, 0.0 l-1.32709801197052, 0.9187601506710052 0.0, 0.40833786129951477 m2.041689306497574, -3.0625340342521667 l-1.9396047294139862, 9.698023796081543 -0.20416893064975739, 3.675040602684021 m-3.675040602684021, -5.410476326942444 l6.839659214019775, -1.1229290813207626 m-0.5104223266243935, -5.716729760169983 l-0.8166757225990295, -2.1437737345695496 -3.1646183133125305, -2.7562806010246277 l-3.4708717465400696, -1.32709801197052 -5.104222893714905, -1.020844653248787 l-6.533405780792236, -0.3062533959746361 -8.064672350883484, 1.020844653248787 l-5.104222893714905, 1.1229290813207626 -2.8583648800849915, 1.1229290813207626 m34.70871686935425, 1.32709801197052 l-0.7145912200212479, -0.6125067919492722 -0.9187601506710052, -1.633351445198059 " fill="none" stroke="black" stroke-width="1" /></svg>