<?xml version="1.0" encoding="utf-8" ?>
<svg baseProfile="full" height="117.69910957664251" version="1.1" width="70.12774888426065" xmlns="http://www.w3.org/2000/svg" xmlns:ev="http://www.w3.org/2001/xml-events" xmlns:xlink="http://www.w3.org/1999/xlink"><defs /><rect fill="white" height="117.69910957664251" width="70.12774888426065" x="0" y="0" /><path d="M16.637628600001335, 71.45698513835669 m-3.1646183133125305, 0.5104223266243935 l-1.8375203013420105, 1.5312670171260834 -1.4291824400424957, 3.0625340342521667 l-0.9187601506710052, 3.5729563236236572 -1.2250135838985443, 6.839659214019775 l-0.9187601506710052, 11.02512240409851 0.0, 13.98557186126709 l0.10208446532487869, 0.5104223266243935 0.6125067919492722, 0.20416893064975739 l15.108500719070435, -10.9230375289917 0.9187601506710052, -0.9187601506710052 l0.5104223266243935, -1.32709801197052 1.4291824400424957, -7.758418917655945 l1.32709801197052, -12.760558128356934 -2.041689306497574, -0.40833786129951477 l-1.633351445198059, -1.020844653248787 -1.8375203013420105, -1.9396047294139862 l-3.266702890396118, -4.593800902366638 m35.627477169036865, 27.3586368560791 l-2.347942590713501, 1.1229290813207626 -0.40833786129951477, 0.5104223266243935 l1.1229290813207626, 1.1229290813207626 1.5312670171260834, 0.5104223266243935 l0.8166757225990295, -1.5312670171260834 0.5104223266243935, -0.3062533959746361 l-0.3062533959746361, -1.020844653248787 -1.4291824400424957, -0.3062533959746361 m-1.1229290813207626, 0.0 l-3.5729563236236572, -2.960449457168579 -0.5104223266243935, -1.1229290813207626 l-1.4291824400424957, -6.431320905685425 -0.7145912200212479, -1.1229290813207626 l-8.166757225990295, -3.8792094588279724 -7.554250359535217, -3.0625340342521667 l-2.1437737345695496, -0.5104223266243935 m-11.433459520339966, 9.698023796081543 l-1.5312670171260834, -0.40833786129951477 m0.0, -0.40833786129951477 l0.0, -3.5729563236236572 0.3062533959746361, -0.8166757225990295 l2.960449457168579, -4.593800902366638 1.32709801197052, -2.65419602394104 m-3.266702890396118, 9.391770362854004 l1.9396047294139862, 0.10208446532487869 0.8166757225990295, -0.40833786129951477 l6.022983193397522, -4.287547469139099 5.818814635276794, -3.266702890396118 l2.2458581626415253, -1.633351445198059 -2.7562806010246277, 2.65419602394104 m-13.781402111053467, 7.96258807182312 l1.8375203013420105, 3.0625340342521667 2.1437737345695496, 4.900054335594177 l0.9187601506710052, 1.1229290813207626 1.2250135838985443, 0.8166757225990295 l-0.10208446532487869, -0.6125067919492722 m-4.79796975851059, -6.533405780792236 l-0.5104223266243935, 0.10208446532487869 -1.1229290813207626, 1.5312670171260834 l-1.2250135838985443, 2.960449457168579 -2.2458581626415253, 3.368787169456482 l-0.7145912200212479, 2.5521114468574524 -4.1854628920555115, 3.675040602684021 l-2.960449457168579, 4.287547469139099 -0.20416893064975739, -0.8166757225990295 m11.535544395446777, -17.456443309783936 l-5.104222893714905, -0.8166757225990295 -2.041689306497574, -0.7145912200212479 m19.396047592163086, -10.004277229309082 l1.9396047294139862, -5.512561202049255 1.4291824400424957, -9.187601804733276 l0.0, -8.677179217338562 -0.3062533959746361, -1.633351445198059 l-0.40833786129951477, 0.5104223266243935 -0.3062533959746361, 2.2458581626415253 l0.5104223266243935, 0.3062533959746361 6.6354900598526, 0.0 m-10.310530662536621, 22.560665607452393 l35.21914005279541, -13.67931842803955 1.020844653248787, -1.1229290813207626 l0.9187601506710052, -1.8375203013420105 0.0, -0.6125067919492722 l-3.675040602684021, -1.5312670171260834 -0.5104223266243935, -1.020844653248787 l-0.20416893064975739, -12.352219820022583 -0.9187601506710052, -8.575094938278198 l-0.20416893064975739, -9.493855237960815 -1.2250135838985443, -14.087655544281006 l-1.4291824400424957, -9.902192950248718 -1.5312670171260834, 0.3062533959746361 l-2.1437737345695496, 3.5729563236236572 -0.6125067919492722, 3.266702890396118 l-0.10208446532487869, 12.250136137008667 -0.3062533959746361, 1.32709801197052 l-4.083378612995148, 2.1437737345695496 -3.266702890396118, 2.4500271677970886 l-11.739712953567505, 10.514699220657349 -3.8792094588279724, 4.900054335594177 l-1.4291824400424957, 4.083378612995148 3.8792094588279724, -1.1229290813207626 l5.206307768821716, -0.7145912200212479 18.783540725708008, 0.0 l0.0, 0.40833786129951477 " fill="none" stroke="black" stroke-width="1" /></svg>