<?xml version="1.0" encoding="utf-8" ?>
<svg baseProfile="full" height="20.923037379980087" version="1.1" width="34.80652444064617" xmlns="http://www.w3.org/2000/svg" xmlns:ev="http://www.w3.org/2001/xml-events" xmlns:xlink="http://www.w3.org/1999/xlink"><defs /><rect fill="white" height="20.923037379980087" width="34.80652444064617" x="0" y="0" /><path d="M11.227152161300182, 5.612506791949272 m-0.3062533959746361, -0.40833786129951477 l-1.8375203013420105, -0.20416893064975739 -1.9396047294139862, 0.7145912200212479 l-1.1229290813207626, 1.020844653248787 -0.6125067919492722, 1.1229290813207626 l-0.40833786129951477, 2.041689306497574 0.0, 1.7354358732700348 l0.3062533959746361, 1.020844653248787 1.2250135838985443, 1.4291824400424957 l1.5312670171260834, 0.5104223266243935 2.4500271677970886, 0.10208446532487869 l1.020844653248787, -0.5104223266243935 1.4291824400424957, -1.8375203013420105 l0.6125067919492722, -2.4500271677970886 -0.20416893064975739, -1.7354358732700348 l-1.5312670171260834, -1.5312670171260834 m15.006415843963623, 0.40833786129951477 l-2.2458581626415253, -0.5104223266243935 -2.347942590713501, 0.20416893064975739 l-1.32709801197052, 1.1229290813207626 -0.7145912200212479, 1.5312670171260834 l0.0, 2.2458581626415253 1.020844653248787, 2.5521114468574524 l0.8166757225990295, 0.8166757225990295 2.347942590713501, 0.9187601506710052 l2.041689306497574, -0.10208446532487869 2.347942590713501, -1.4291824400424957 l0.7145912200212479, -1.020844653248787 0.3062533959746361, -1.9396047294139862 l-0.8166757225990295, -1.5312670171260834 -1.020844653248787, -1.020844653248787 l-3.8792094588279724, -2.2458581626415253 m0.9187601506710052, 0.20416893064975739 l-0.40833786129951477, 0.7145912200212479 -0.5104223266243935, 3.8792094588279724 l-2.347942590713501, 2.1437737345695496 m2.960449457168579, -1.8375203013420105 l0.6125067919492722, 3.0625340342521667 m-0.40833786129951477, -2.2458581626415253 l3.8792094588279724, 1.1229290813207626 m-3.98129403591156, -1.5312670171260834 l2.8583648800849915, -1.9396047294139862 m-1.4291824400424957, -0.20416893064975739 l0.6125067919492722, -1.2250135838985443 m-3.266702890396118, 1.1229290813207626 l-0.6125067919492722, -1.7354358732700348 m-12.658473253250122, -1.1229290813207626 l-0.10208446532487869, 2.7562806010246277 m1.1229290813207626, 1.633351445198059 l-1.5312670171260834, -0.40833786129951477 -2.4500271677970886, 0.10208446532487869 m3.7771251797676086, -1.9396047294139862 l-2.7562806010246277, -1.1229290813207626 m-0.6125067919492722, 0.6125067919492722 l-1.2250135838985443, 1.2250135838985443 -0.5104223266243935, 1.7354358732700348 m3.7771251797676086, 1.4291824400424957 l0.5104223266243935, 0.20416893064975739 m1.2250135838985443, -1.8375203013420105 l0.5104223266243935, 0.0 m0.8166757225990295, -1.4291824400424957 l1.020844653248787, -0.8166757225990295 " fill="none" stroke="black" stroke-width="1" /></svg>