<?xml version="1.0" encoding="utf-8" ?>
<svg baseProfile="full" height="39.70657866448164" version="1.1" width="54.10048797726631" xmlns="http://www.w3.org/2000/svg" xmlns:ev="http://www.w3.org/2001/xml-events" xmlns:xlink="http://www.w3.org/1999/xlink"><defs /><rect fill="white" height="39.70657866448164" width="54.10048797726631" x="0" y="0" /><path d="M9.083378575742245, 33.787818402051926 m-0.6125067919492722, -0.40833786129951477 l-1.4291824400424957, -2.1437737345695496 -1.5312670171260834, -3.368787169456482 l-0.5104223266243935, -1.9396047294139862 0.0, -3.266702890396118 l0.9187601506710052, -2.5521114468574524 0.8166757225990295, -1.2250135838985443 l1.1229290813207626, -1.020844653248787 2.1437737345695496, -1.020844653248787 l3.5729563236236572, -0.8166757225990295 1.2250135838985443, 0.3062533959746361 l1.020844653248787, 0.8166757225990295 0.3062533959746361, 2.1437737345695496 l-0.3062533959746361, 2.8583648800849915 -1.020844653248787, 3.7771251797676086 l-1.5312670171260834, 3.368787169456482 -2.1437737345695496, 2.1437737345695496 l-4.389632046222687, 3.266702890396118 m37.873334884643555, -3.7771251797676086 l-2.1437737345695496, -0.3062533959746361 -6.329236626625061, -3.675040602684021 l-2.2458581626415253, -1.7354358732700348 -1.2250135838985443, -2.4500271677970886 l0.0, -1.4291824400424957 2.5521114468574524, -3.1646183133125305 l2.5521114468574524, -1.4291824400424957 3.266702890396118, -1.1229290813207626 l1.020844653248787, 0.0 2.7562806010246277, 1.5312670171260834 l1.4291824400424957, 1.4291824400424957 0.20416893064975739, 1.32709801197052 l0.0, 1.9396047294139862 -0.7145912200212479, 2.65419602394104 l-1.633351445198059, 3.4708717465400696 -2.2458581626415253, 3.4708717465400696 m-1.020844653248787, -7.350081205368042 l-2.960449457168579, -3.368787169456482 -5.410476326942444, -4.287547469139099 l-3.7771251797676086, -2.347942590713501 -1.32709801197052, 0.0 l-4.1854628920555115, -1.020844653248787 -1.020844653248787, 0.0 l-3.0625340342521667, 3.266702890396118 -5.104222893714905, 3.4708717465400696 l-3.98129403591156, 2.2458581626415253 m17.252274751663208, -8.473010659217834 l2.2458581626415253, 0.0 4.287547469139099, -1.5312670171260834 l5.920898914337158, -3.1646183133125305 3.0625340342521667, -2.041689306497574 m0.0, 0.0 l-5.002138614654541, -1.8375203013420105 m3.266702890396118, 0.6125067919492722 l8.064672350883484, 1.5312670171260834 m-26.746129989624023, 5.30839204788208 l5.104222893714905, -3.368787169456482 " fill="none" stroke="black" stroke-width="1" /></svg>