<?xml version="1.0" encoding="utf-8" ?>
<svg baseProfile="full" height="30.82523014396429" version="1.1" width="51.650460511446" xmlns="http://www.w3.org/2000/svg" xmlns:ev="http://www.w3.org/2001/xml-events" xmlns:xlink="http://www.w3.org/1999/xlink"><defs /><rect fill="white" height="30.82523014396429" width="51.650460511446" x="0" y="0" /><path d="M12.145912386476994, 15.820952951908112 m-1.5312670171260834, -0.40833786129951477 l-2.5521114468574524, 0.0 -1.32709801197052, 0.3062533959746361 l-1.020844653248787, 0.8166757225990295 -0.6125067919492722, 1.020844653248787 l-0.10208446532487869, 4.1854628920555115 1.020844653248787, 1.2250135838985443 l1.32709801197052, 1.020844653248787 2.5521114468574524, 0.9187601506710052 l2.7562806010246277, -0.40833786129951477 1.7354358732700348, -1.020844653248787 l0.6125067919492722, -2.2458581626415253 0.0, -2.5521114468574524 l-0.40833786129951477, -1.5312670171260834 -1.32709801197052, -1.5312670171260834 l-2.2458581626415253, -0.8166757225990295 m35.627477169036865, 2.5521114468574524 l-1.9396047294139862, -1.32709801197052 -2.4500271677970886, -0.5104223266243935 l-2.7562806010246277, -0.10208446532487869 -1.4291824400424957, 0.9187601506710052 l-1.8375203013420105, 2.7562806010246277 -0.40833786129951477, 2.4500271677970886 l0.20416893064975739, 2.8583648800849915 1.633351445198059, 1.4291824400424957 l5.104222893714905, 0.0 1.020844653248787, -0.7145912200212479 l1.32709801197052, -2.347942590713501 0.6125067919492722, -2.1437737345695496 l0.0, -3.266702890396118 -0.7145912200212479, -0.7145912200212479 m-29.91074800491333, 2.4500271677970886 l1.020844653248787, -0.7145912200212479 2.1437737345695496, -0.40833786129951477 l18.171035051345825, -0.10208446532487869 m-9.800108671188354, 0.20416893064975739 l-0.9187601506710052, -5.104222893714905 -0.5104223266243935, -0.3062533959746361 l-1.32709801197052, 0.6125067919492722 0.6125067919492722, 0.40833786129951477 l3.368787169456482, -1.1229290813207626 -1.5312670171260834, -0.6125067919492722 l-2.1437737345695496, 0.0 m-10.718868970870972, 3.1646183133125305 l-0.20416893064975739, -2.5521114468574524 -1.2250135838985443, -4.389632046222687 l-1.020844653248787, -1.633351445198059 -0.7145912200212479, 1.32709801197052 l-0.40833786129951477, 0.5104223266243935 -0.10208446532487869, -0.20416893064975739 m1.4291824400424957, -1.9396047294139862 l3.98129403591156, -1.2250135838985443 " fill="none" stroke="black" stroke-width="1" /></svg>