<?xml version="1.0" encoding="utf-8" ?>
<svg baseProfile="full" height="53.28381177037954" version="1.1" width="51.14003878086805" xmlns="http://www.w3.org/2000/svg" xmlns:ev="http://www.w3.org/2001/xml-events" xmlns:xlink="http://www.w3.org/1999/xlink"><defs /><rect fill="white" height="53.28381177037954" width="51.14003878086805" x="0" y="0" /><path d="M16.331375539302826, 29.091932885348797 m-1.020844653248787, -0.20416893064975739 l-1.2250135838985443, 0.20416893064975739 -3.266702890396118, 2.041689306497574 l-3.1646183133125305, 2.5521114468574524 -2.041689306497574, 3.266702890396118 l-0.5104223266243935, 1.9396047294139862 -0.10208446532487869, 4.1854628920555115 l0.6125067919492722, 1.7354358732700348 1.020844653248787, 1.32709801197052 l1.5312670171260834, 1.020844653248787 3.675040602684021, 1.1229290813207626 l1.9396047294139862, 0.0 2.2458581626415253, -0.5104223266243935 l2.1437737345695496, -1.1229290813207626 1.7354358732700348, -1.7354358732700348 l1.4291824400424957, -2.2458581626415253 1.020844653248787, -2.65419602394104 l0.6125067919492722, -5.512561202049255 -0.10208446532487869, -2.2458581626415253 l-0.8166757225990295, -1.9396047294139862 -2.65419602394104, -2.5521114468574524 l-1.633351445198059, -0.6125067919492722 -2.7562806010246277, -0.5104223266243935 l-1.2250135838985443, 0.0 -1.1229290813207626, 0.40833786129951477 m28.379480838775635, 0.6125067919492722 l-1.8375203013420105, 0.0 -1.32709801197052, 0.6125067919492722 l-3.368787169456482, 2.4500271677970886 -2.960449457168579, 3.0625340342521667 l-0.9187601506710052, 1.8375203013420105 -0.40833786129951477, 4.1854628920555115 l0.3062533959746361, 2.1437737345695496 1.633351445198059, 3.266702890396118 l1.2250135838985443, 1.5312670171260834 2.4500271677970886, 0.10208446532487869 l5.104222893714905, -2.960449457168579 1.8375203013420105, -2.041689306497574 l0.9187601506710052, -2.5521114468574524 0.3062533959746361, -3.7771251797676086 l-0.9187601506710052, -3.7771251797676086 -1.633351445198059, -3.4708717465400696 l-1.633351445198059, -1.633351445198059 m3.8792094588279724, -2.2458581626415253 l-3.5729563236236572, 1.020844653248787 -5.614645481109619, 1.020844653248787 l-14.087655544281006, 0.5104223266243935 -8.166757225990295, 1.020844653248787 l-3.368787169456482, 0.8166757225990295 m35.21914005279541, -4.900054335594177 l-0.8166757225990295, -0.8166757225990295 0.0, -1.633351445198059 l-1.633351445198059, -4.593800902366638 -0.5104223266243935, -5.410476326942444 l-1.633351445198059, -3.8792094588279724 -0.5104223266243935, -0.20416893064975739 l-1.020844653248787, 0.3062533959746361 -2.8583648800849915, 2.041689306497574 l2.4500271677970886, -1.2250135838985443 1.9396047294139862, -1.4291824400424957 l2.2458581626415253, -0.20416893064975739 4.389632046222687, -1.8375203013420105 m-20.008554458618164, 22.86691904067993 l-0.40833786129951477, -0.6125067919492722 0.0, -6.329236626625061 l-0.7145912200212479, -5.716729760169983 " fill="none" stroke="black" stroke-width="1" /></svg>