<?xml version="1.0" encoding="utf-8" ?>
<svg baseProfile="full" height="32.152328081429005" version="1.1" width="39.50240921229124" xmlns="http://www.w3.org/2000/svg" xmlns:ev="http://www.w3.org/2001/xml-events" xmlns:xlink="http://www.w3.org/1999/xlink"><defs /><rect fill="white" height="32.152328081429005" width="39.50240921229124" x="0" y="0" /><path d="M8.470871336758137, 11.227151788771152 m-1.1229290813207626, 0.0 l-0.7145912200212479, 0.9187601506710052 -0.7145912200212479, 1.8375203013420105 l-0.20416893064975739, 2.347942590713501 0.6125067919492722, 5.920898914337158 l5.30839204788208, 4.900054335594177 0.7145912200212479, 0.0 l5.410476326942444, -3.368787169456482 0.7145912200212479, -1.7354358732700348 l-0.3062533959746361, -5.614645481109619 -6.022983193397522, -5.104222893714905 l-1.9396047294139862, -0.3062533959746361 -2.65419602394104, 0.40833786129951477 m21.23356819152832, -1.2250135838985443 l-5.512561202049255, 3.266702890396118 -1.5312670171260834, 8.166757225990295 l6.1250680685043335, 2.960449457168579 0.9187601506710052, -0.20416893064975739 l3.8792094588279724, -1.633351445198059 1.5312670171260834, -2.65419602394104 l0.3062533959746361, -1.1229290813207626 -2.5521114468574524, -6.1250680685043335 l-5.002138614654541, -1.9396047294139862 m4.4917163252830505, 1.32709801197052 l-8.677179217338562, 9.391770362854004 -1.020844653248787, 1.8375203013420105 m2.65419602394104, -11.02512240409851 l0.5104223266243935, 1.1229290813207626 7.4521660804748535, 7.860503792762756 m-5.30839204788208, -11.02512240409851 l-0.40833786129951477, 2.2458581626415253 -0.10208446532487869, 10.61678409576416 m-4.900054335594177, -6.737574338912964 l1.7354358732700348, 0.10208446532487869 10.310530662536621, -0.7145912200212479 m-16.843936443328857, -2.7562806010246277 l-3.98129403591156, 2.65419602394104 -5.410476326942444, 6.1250680685043335 m0.0, -8.575094938278198 l8.779264092445374, 9.493855237960815 1.5312670171260834, 0.7145912200212479 m-5.818814635276794, -12.964726686477661 l0.0, 10.412615537643433 0.3062533959746361, 4.287547469139099 m-7.247996926307678, -8.881348371505737 l9.187601804733276, 0.9187601506710052 2.041689306497574, -0.10208446532487869 m11.433459520339966, -6.431320905685425 l-1.2250135838985443, -4.900054335594177 -0.9187601506710052, -0.9187601506710052 l-12.658473253250122, 0.20416893064975739 -0.20416893064975739, 2.4500271677970886 " fill="none" stroke="black" stroke-width="1" /></svg>