<?xml version="1.0" encoding="utf-8" ?>
<svg baseProfile="full" height="70.84234040230513" version="1.1" width="117.49494090676308" xmlns="http://www.w3.org/2000/svg" xmlns:ev="http://www.w3.org/2001/xml-events" xmlns:xlink="http://www.w3.org/1999/xlink"><defs /><rect fill="white" height="70.84234040230513" width="117.49494090676308" x="0" y="0" /><path d="M35.01283220946789, 35.01283302903175 m-5.30839204788208, -0.9187601506710052 l-6.941743493080139, -0.6125067919492722 -8.983432650566101, -0.10208446532487869 l-2.7562806010246277, 2.041689306497574 -4.287547469139099, 6.737574338912964 l-1.5312670171260834, 4.287547469139099 -0.20416893064975739, 5.206307768821716 l0.5104223266243935, 2.4500271677970886 1.4291824400424957, 2.4500271677970886 l2.7562806010246277, 2.041689306497574 4.083378612995148, 2.1437737345695496 l6.431320905685425, 2.2458581626415253 5.920898914337158, 1.5312670171260834 l11.02512240409851, 0.9187601506710052 5.614645481109619, 0.10208446532487869 l2.041689306497574, -0.6125067919492722 1.1229290813207626, -1.2250135838985443 l3.368787169456482, -8.473010659217834 0.9187601506710052, -4.083378612995148 l0.40833786129951477, -3.8792094588279724 -0.20416893064975739, -9.493855237960815 l-1.2250135838985443, -3.0625340342521667 -1.4291824400424957, -1.020844653248787 l-2.4500271677970886, -0.8166757225990295 -4.1854628920555115, 0.0 l-2.041689306497574, 0.40833786129951477 -6.737574338912964, 0.3062533959746361 l-1.9396047294139862, 1.2250135838985443 m70.13202667236328, 4.900054335594177 l-0.8166757225990295, -1.020844653248787 -3.98129403591156, -1.9396047294139862 l-2.1437737345695496, 0.5104223266243935 -1.7354358732700348, 1.9396047294139862 l-1.4291824400424957, 2.8583648800849915 -5.614645481109619, 8.677179217338562 l-1.4291824400424957, 3.0625340342521667 -0.9187601506710052, 3.1646183133125305 l-0.40833786129951477, 4.083378612995148 0.0, 2.5521114468574524 l1.1229290813207626, 1.9396047294139862 2.4500271677970886, 0.3062533959746361 l6.022983193397522, 0.0 4.900054335594177, -1.1229290813207626 l4.1854628920555115, -1.5312670171260834 3.7771251797676086, -2.8583648800849915 l2.2458581626415253, -2.65419602394104 3.0625340342521667, -4.4917163252830505 l1.633351445198059, -3.368787169456482 0.9187601506710052, -3.675040602684021 l0.10208446532487869, -3.7771251797676086 -0.6125067919492722, -1.4291824400424957 l-0.9187601506710052, -1.020844653248787 -4.79796975851059, -3.1646183133125305 l-1.2250135838985443, -0.40833786129951477 -4.1854628920555115, -2.4500271677970886 l-2.65419602394104, -0.6125067919492722 -2.960449457168579, 1.2250135838985443 m-68.19242000579834, -0.20416893064975739 l0.6125067919492722, -2.4500271677970886 0.0, -11.33137583732605 l-0.40833786129951477, -7.656334638595581 -0.9187601506710052, -5.818814635276794 l-0.6125067919492722, -0.20416893064975739 -6.6354900598526, 0.20416893064975739 l1.8375203013420105, -0.8166757225990295 2.65419602394104, -0.5104223266243935 l8.26884150505066, -0.7145912200212479 m-3.4708717465400696, 25.214862823486328 l2.5521114468574524, -0.7145912200212479 8.370925784111023, -0.40833786129951477 l3.368787169456482, 0.3062533959746361 4.083378612995148, 1.1229290813207626 l15.006415843963623, 1.2250135838985443 15.006415843963623, 0.0 l9.698023796081543, -1.2250135838985443 7.4521660804748535, -0.20416893064975739 l7.758418917655945, 1.7354358732700348 0.8166757225990295, 2.65419602394104 m-43.998403549194336, -5.206307768821716 " fill="none" stroke="black" stroke-width="1" /></svg>