<?xml version="1.0" encoding="utf-8" ?>
<svg baseProfile="full" height="41.952437832951546" version="1.1" width="53.48798085004091" xmlns="http://www.w3.org/2000/svg" xmlns:ev="http://www.w3.org/2001/xml-events" xmlns:xlink="http://www.w3.org/1999/xlink"><defs /><rect fill="white" height="41.952437832951546" width="53.48798085004091" x="0" y="0" /><path d="M11.839658915996552, 20.312670581042767 m-1.7354358732700348, 0.10208446532487869 l-1.4291824400424957, 0.9187601506710052 -1.020844653248787, 1.1229290813207626 l-1.9396047294139862, 3.675040602684021 -0.7145912200212479, 3.98129403591156 l0.10208446532487869, 2.4500271677970886 0.40833786129951477, 1.020844653248787 l2.7562806010246277, 2.5521114468574524 4.4917163252830505, 0.3062533959746361 l2.347942590713501, -0.40833786129951477 1.1229290813207626, -0.8166757225990295 l1.5312670171260834, -1.9396047294139862 0.8166757225990295, -3.0625340342521667 l-0.6125067919492722, -3.4708717465400696 -2.5521114468574524, -3.1646183133125305 l-2.65419602394104, -1.32709801197052 m20.723145008087158, 3.266702890396118 l-1.4291824400424957, 0.40833786129951477 -1.8375203013420105, 2.1437737345695496 l-0.5104223266243935, 1.020844653248787 -0.40833786129951477, 3.98129403591156 l1.020844653248787, 1.8375203013420105 5.206307768821716, 1.9396047294139862 l1.8375203013420105, 0.10208446532487869 4.287547469139099, -0.7145912200212479 l0.8166757225990295, -0.6125067919492722 0.7145912200212479, -0.7145912200212479 l0.3062533959746361, -2.1437737345695496 0.0, -1.5312670171260834 l-0.7145912200212479, -1.32709801197052 -1.32709801197052, -1.7354358732700348 l-1.7354358732700348, -1.32709801197052 -2.5521114468574524, -1.5312670171260834 l-2.347942590713501, -0.8166757225990295 -4.1854628920555115, -0.20416893064975739 l-1.8375203013420105, 0.3062533959746361 -0.9187601506710052, 0.5104223266243935 m-8.575094938278198, 2.5521114468574524 l11.33137583732605, 0.7145912200212479 m-16.741851568222046, -5.410476326942444 l-0.8166757225990295, 6.533405780792236 -0.6125067919492722, 3.4708717465400696 l-0.5104223266243935, 1.2250135838985443 m-5.920898914337158, -7.4521660804748535 l1.8375203013420105, 1.633351445198059 3.8792094588279724, 2.2458581626415253 l3.368787169456482, 1.5312670171260834 2.960449457168579, 0.8166757225990295 m20.92731475830078, -7.656334638595581 l-1.9396047294139862, 5.716729760169983 -2.7562806010246277, 4.4917163252830505 m-3.1646183133125305, -5.512561202049255 l5.104222893714905, 1.5312670171260834 6.022983193397522, 0.3062533959746361 m-16.23142957687378, -4.79796975851059 l-0.20416893064975739, -9.493855237960815 0.7145912200212479, -0.20416893064975739 l2.1437737345695496, 0.9187601506710052 5.104222893714905, 1.1229290813207626 l4.083378612995148, 0.0 0.3062533959746361, -0.5104223266243935 l-3.675040602684021, -7.860503792762756 2.347942590713501, 4.1854628920555115 l1.5312670171260834, 1.8375203013420105 1.8375203013420105, 1.7354358732700348 l3.266702890396118, 2.347942590713501 2.347942590713501, 1.1229290813207626 l0.10208446532487869, -1.9396047294139862 1.4291824400424957, -3.4708717465400696 l1.020844653248787, -1.633351445198059 0.10208446532487869, -0.8166757225990295 m-16.63976788520813, -4.287547469139099 l0.0, -0.8166757225990295 1.7354358732700348, -4.287547469139099 " fill="none" stroke="black" stroke-width="1" /></svg>