<?xml version="1.0" encoding="utf-8" ?>
<svg baseProfile="full" height="40.319085009396076" version="1.1" width="57.2651070356369" xmlns="http://www.w3.org/2000/svg" xmlns:ev="http://www.w3.org/2001/xml-events" xmlns:xlink="http://www.w3.org/1999/xlink"><defs /><rect fill="white" height="40.319085009396076" width="57.2651070356369" x="0" y="0" /><path d="M47.97755964100361, 13.983432166278362 m-1.4291824400424957, 0.5104223266243935 l-10.61678409576416, 1.2250135838985443 -1.2250135838985443, 0.6125067919492722 l0.0, 2.2458581626415253 0.40833786129951477, 1.7354358732700348 l1.5312670171260834, 3.368787169456482 2.1437737345695496, 3.368787169456482 l2.960449457168579, 1.1229290813207626 4.695885181427002, 0.10208446532487869 l3.8792094588279724, -2.8583648800849915 1.7354358732700348, -2.041689306497574 l0.20416893064975739, -2.8583648800849915 -3.5729563236236572, -3.8792094588279724 l-2.2458581626415253, -1.2250135838985443 -2.8583648800849915, -0.5104223266243935 m-32.36077547073364, 2.041689306497574 l-0.20416893064975739, 0.5104223266243935 -1.1229290813207626, 0.40833786129951477 l-3.675040602684021, 2.8583648800849915 -0.6125067919492722, 0.6125067919492722 l-0.6125067919492722, 1.5312670171260834 0.0, 2.4500271677970886 l0.6125067919492722, 2.347942590713501 1.8375203013420105, 3.98129403591156 l1.8375203013420105, 2.041689306497574 2.041689306497574, 1.4291824400424957 l0.8166757225990295, 0.20416893064975739 4.287547469139099, 0.0 l4.4917163252830505, -0.7145912200212479 1.5312670171260834, -1.5312670171260834 l0.5104223266243935, -1.020844653248787 0.10208446532487869, -5.410476326942444 l-1.020844653248787, -3.8792094588279724 -2.041689306497574, -2.7562806010246277 l-3.4708717465400696, -3.266702890396118 -3.98129403591156, -2.041689306497574 l-2.041689306497574, -0.6125067919492722 -1.1229290813207626, 0.0 l-0.7145912200212479, 0.6125067919492722 m2.347942590713501, 1.32709801197052 l1.020844653248787, 4.4917163252830505 0.7145912200212479, 9.28968608379364 m-7.247996926307678, -1.8375203013420105 l11.229290962219238, -0.20416893064975739 5.614645481109619, 0.5104223266243935 l4.79796975851059, 0.0 m-9.698023796081543, -8.677179217338562 l-2.1437737345695496, 2.1437737345695496 -0.9187601506710052, 1.5312670171260834 l-7.247996926307678, 8.677179217338562 m0.3062533959746361, -11.02512240409851 l1.5312670171260834, 0.0 1.2250135838985443, 0.6125067919492722 l4.900054335594177, 3.266702890396118 3.8792094588279724, 3.368787169456482 l5.410476326942444, 6.227152347564697 m16.435598134994507, -16.63976788520813 l-0.20416893064975739, 6.1250680685043335 1.2250135838985443, 4.593800902366638 l0.20416893064975739, 3.7771251797676086 0.7145912200212479, -0.40833786129951477 m9.391770362854004, -10.20844578742981 l-1.2250135838985443, 0.9187601506710052 -1.9396047294139862, 0.6125067919492722 l-5.002138614654541, 0.0 -10.004277229309082, -1.2250135838985443 m10.20844578742981, -6.1250680685043335 l-0.6125067919492722, 0.20416893064975739 -1.4291824400424957, 1.5312670171260834 l-0.9187601506710052, 1.633351445198059 -5.30839204788208, 6.533405780792236 m1.5312670171260834, -9.59593951702118 l2.8583648800849915, 3.98129403591156 4.389632046222687, 7.1459126472473145 l1.9396047294139862, 1.2250135838985443 m-10.718868970870972, -6.022983193397522 l-3.675040602684021, 0.5104223266243935 -7.860503792762756, 0.0 l0.40833786129951477, -0.5104223266243935 m13.67931842803955, -7.554250359535217 l0.0, -7.656334638595581 -0.6125067919492722, -1.633351445198059 m0.6125067919492722, -0.6125067919492722 l-4.083378612995148, 2.7562806010246277 " fill="none" stroke="black" stroke-width="1" /></svg>