<?xml version="1.0" encoding="utf-8" ?>
<svg baseProfile="full" height="34.60235636681318" version="1.1" width="52.46713671833277" xmlns="http://www.w3.org/2000/svg" xmlns:ev="http://www.w3.org/2001/xml-events" xmlns:xlink="http://www.w3.org/1999/xlink"><defs /><rect fill="white" height="34.60235636681318" width="52.46713671833277" x="0" y="0" /><path d="M34.604494981467724, 7.143774256110191 m-5.206307768821716, 0.0 l-4.900054335594177, 0.5104223266243935 -6.1250680685043335, 1.32709801197052 l-5.920898914337158, 2.1437737345695496 -2.4500271677970886, 1.5312670171260834 l-3.266702890396118, 3.675040602684021 -0.7145912200212479, 1.2250135838985443 l-0.9187601506710052, 3.266702890396118 -0.10208446532487869, 2.1437737345695496 l0.5104223266243935, 1.1229290813207626 0.6125067919492722, 1.1229290813207626 l2.1437737345695496, 2.041689306497574 3.368787169456482, 1.5312670171260834 l2.1437737345695496, 0.40833786129951477 4.79796975851059, 0.40833786129951477 l6.227152347564697, 0.0 3.5729563236236572, -0.6125067919492722 l1.633351445198059, -0.6125067919492722 1.8375203013420105, -1.32709801197052 l2.041689306497574, -3.266702890396118 1.5312670171260834, -6.022983193397522 l0.0, -2.347942590713501 -1.4291824400424957, -2.1437737345695496 l0.9187601506710052, -3.675040602684021 -1.7354358732700348, -3.266702890396118 m-7.4521660804748535, 8.779264092445374 l-1.2250135838985443, 0.8166757225990295 -4.900054335594177, 1.8375203013420105 l-2.65419602394104, 1.4291824400424957 -2.7562806010246277, 2.8583648800849915 l-1.7354358732700348, 2.5521114468574524 -2.2458581626415253, 1.9396047294139862 l4.79796975851059, -3.0625340342521667 m10.820952653884888, -8.779264092445374 l5.002138614654541, -3.266702890396118 3.368787169456482, -3.5729563236236572 m-9.698023796081543, 0.0 l-0.3062533959746361, 0.6125067919492722 0.0, 1.5312670171260834 l0.10208446532487869, 0.6125067919492722 0.5104223266243935, -0.10208446532487869 l0.20416893064975739, 0.5104223266243935 0.5104223266243935, 2.960449457168579 m0.10208446532487869, 1.4291824400424957 l1.32709801197052, 1.4291824400424957 2.8583648800849915, 5.716729760169983 l0.20416893064975739, 3.8792094588279724 -0.40833786129951477, -1.2250135838985443 m-4.593800902366638, -10.514699220657349 l-0.10208446532487869, -0.5104223266243935 -0.6125067919492722, -0.40833786129951477 l-8.473010659217834, -3.7771251797676086 -3.8792094588279724, -0.5104223266243935 l-3.8792094588279724, -0.10208446532487869 0.5104223266243935, 0.20416893064975739 m17.558528184890747, 5.206307768821716 l6.941743493080139, 2.2458581626415253 1.5312670171260834, 1.020844653248787 m-0.10208446532487869, -10.718868970870972 l1.8375203013420105, -0.8166757225990295 6.227152347564697, -1.5312670171260834 l4.900054335594177, 1.020844653248787 " fill="none" stroke="black" stroke-width="1" /></svg>