<?xml version="1.0" encoding="utf-8" ?>
<svg baseProfile="full" height="32.254412956535816" version="1.1" width="42.871196791529655" xmlns="http://www.w3.org/2000/svg" xmlns:ev="http://www.w3.org/2001/xml-events" xmlns:xlink="http://www.w3.org/1999/xlink"><defs /><rect fill="white" height="32.254412956535816" width="42.871196791529655" x="0" y="0" /><path d="M9.287547431886196, 19.802247025072575 m-3.7771251797676086, 0.3062533959746361 l1.020844653248787, 0.40833786129951477 -1.4291824400424957, 2.4500271677970886 l-0.10208446532487869, 2.4500271677970886 0.5104223266243935, 0.8166757225990295 l1.8375203013420105, 0.9187601506710052 3.4708717465400696, 0.10208446532487869 l1.32709801197052, -0.7145912200212479 1.5312670171260834, -1.7354358732700348 l0.40833786129951477, -2.65419602394104 -0.7145912200212479, -1.7354358732700348 l-1.7354358732700348, -1.5312670171260834 -1.4291824400424957, -0.10208446532487869 l-1.020844653248787, 0.9187601506710052 m21.335651874542236, -0.10208446532487869 l-1.5312670171260834, 1.32709801197052 -1.9396047294139862, 0.40833786129951477 l1.32709801197052, 0.5104223266243935 -0.10208446532487869, 1.633351445198059 l0.5104223266243935, 1.1229290813207626 2.8583648800849915, 1.2250135838985443 l2.8583648800849915, -0.3062533959746361 1.5312670171260834, -1.1229290813207626 l1.5312670171260834, -2.041689306497574 0.10208446532487869, -1.8375203013420105 l-1.1229290813207626, -0.9187601506710052 -2.041689306497574, -0.7145912200212479 l-4.287547469139099, -0.20416893064975739 m-21.23356819152832, 3.8792094588279724 l-0.3062533959746361, -0.5104223266243935 0.0, -1.32709801197052 l0.5104223266243935, -4.593800902366638 2.4500271677970886, -0.6125067919492722 l18.375203609466553, -2.4500271677970886 1.7354358732700348, 0.10208446532487869 l0.3062533959746361, 0.5104223266243935 0.5104223266243935, 1.32709801197052 l1.1229290813207626, 5.920898914337158 m-1.2250135838985443, -4.695885181427002 l-1.2250135838985443, -7.247996926307678 -4.695885181427002, -2.347942590713501 l-1.2250135838985443, -0.7145912200212479 0.40833786129951477, 0.0 m6.329236626625061, 1.9396047294139862 l2.8583648800849915, -1.9396047294139862 2.041689306497574, -0.9187601506710052 m-5.920898914337158, 3.5729563236236572 l-1.4291824400424957, -0.8166757225990295 -2.5521114468574524, 0.0 l-1.020844653248787, 0.40833786129951477 m5.30839204788208, 0.5104223266243935 l2.1437737345695496, -0.20416893064975739 4.389632046222687, -1.32709801197052 " fill="none" stroke="black" stroke-width="1" /></svg>