<?xml version="1.0" encoding="utf-8" ?>
<svg baseProfile="full" height="36.84821370989084" version="1.1" width="52.569221034646034" xmlns="http://www.w3.org/2000/svg" xmlns:ev="http://www.w3.org/2001/xml-events" xmlns:xlink="http://www.w3.org/1999/xlink"><defs /><rect fill="white" height="36.84821370989084" width="52.569221034646034" x="0" y="0" /><path d="M40.525393187999725, 17.76055783033371 m-1.9396047294139862, 0.0 l-0.7145912200212479, 0.3062533959746361 -2.041689306497574, 1.4291824400424957 l-0.5104223266243935, 0.7145912200212479 -1.5312670171260834, 2.7562806010246277 l-0.8166757225990295, 2.2458581626415253 -0.10208446532487869, 2.347942590713501 l0.3062533959746361, 0.8166757225990295 1.4291824400424957, 1.633351445198059 l1.9396047294139862, 1.1229290813207626 2.041689306497574, 0.7145912200212479 l2.65419602394104, 0.0 2.65419602394104, -1.020844653248787 l1.633351445198059, -1.1229290813207626 1.32709801197052, -1.4291824400424957 l0.6125067919492722, -1.633351445198059 0.10208446532487869, -1.8375203013420105 l-1.1229290813207626, -2.960449457168579 -1.4291824400424957, -1.633351445198059 l-4.083378612995148, -1.8375203013420105 m-0.6125067919492722, 7.350081205368042 l-2.7562806010246277, -2.347942590713501 -2.4500271677970886, -2.960449457168579 l-4.1854628920555115, -2.8583648800849915 m2.041689306497574, -4.083378612995148 l-3.7771251797676086, 3.8792094588279724 -7.96258807182312, 4.79796975851059 m11.229290962219238, -10.310530662536621 l-7.1459126472473145, 2.2458581626415253 -2.65419602394104, 0.40833786129951477 l-3.368787169456482, -0.10208446532487869 -0.40833786129951477, 0.5104223266243935 m2.960449457168579, 7.758418917655945 l-5.614645481109619, -6.227152347564697 -1.8375203013420105, -1.5312670171260834 l-1.1229290813207626, -0.3062533959746361 m4.900054335594177, -1.1229290813207626 l-2.5521114468574524, 2.1437737345695496 -4.389632046222687, 5.512561202049255 l-1.9396047294139862, 1.5312670171260834 m0.10208446532487869, -6.022983193397522 l-2.2458581626415253, 1.5312670171260834 -1.633351445198059, 3.1646183133125305 l-0.5104223266243935, 2.347942590713501 0.20416893064975739, 2.4500271677970886 l0.6125067919492722, 1.9396047294139862 1.32709801197052, 1.2250135838985443 l1.1229290813207626, 0.40833786129951477 2.041689306497574, 0.10208446532487869 l1.32709801197052, -0.40833786129951477 2.347942590713501, -2.2458581626415253 l2.041689306497574, -3.4708717465400696 -0.10208446532487869, -2.5521114468574524 l-1.1229290813207626, -2.041689306497574 -1.4291824400424957, -1.1229290813207626 l-2.8583648800849915, -1.020844653248787 m21.948158740997314, -5.104222893714905 l3.368787169456482, -2.4500271677970886 m0.20416893064975739, -0.20416893064975739 l-1.8375203013420105, 0.6125067919492722 -1.9396047294139862, -0.20416893064975739 l-4.4917163252830505, -1.633351445198059 -0.5104223266243935, -0.40833786129951477 l0.10208446532487869, -0.3062533959746361 m8.881348371505737, 1.5312670171260834 l0.9187601506710052, -1.1229290813207626 0.0, -1.020844653248787 l-1.1229290813207626, -1.633351445198059 " fill="none" stroke="black" stroke-width="1" /></svg>