<?xml version="1.0" encoding="utf-8" ?>
<svg baseProfile="full" height="44.1982951015234" version="1.1" width="68.69856350123882" xmlns="http://www.w3.org/2000/svg" xmlns:ev="http://www.w3.org/2001/xml-events" xmlns:xlink="http://www.w3.org/1999/xlink"><defs /><rect fill="white" height="44.1982951015234" width="68.69856350123882" x="0" y="0" /><path d="M54.20470852404833, 29.398186840116978 m1.7354358732700348, 0.0 l2.4500271677970886, 0.5104223266243935 3.8792094588279724, 2.2458581626415253 l1.32709801197052, 2.5521114468574524 0.10208446532487869, 2.347942590713501 l-0.3062533959746361, 0.8166757225990295 -1.8375203013420105, 1.1229290813207626 l-1.1229290813207626, 0.20416893064975739 -5.410476326942444, -0.10208446532487869 l-5.104222893714905, -1.5312670171260834 -2.2458581626415253, -1.2250135838985443 l-1.2250135838985443, -1.1229290813207626 -0.3062533959746361, -0.8166757225990295 l0.20416893064975739, -1.8375203013420105 1.7354358732700348, -2.1437737345695496 l4.389632046222687, -2.2458581626415253 1.7354358732700348, -0.40833786129951477 l0.8166757225990295, 0.10208446532487869 m-40.5275297164917, 0.10208446532487869 l1.2250135838985443, 0.20416893064975739 2.1437737345695496, 3.266702890396118 l0.10208446532487869, 1.8375203013420105 -0.8166757225990295, 0.8166757225990295 l-1.32709801197052, 0.40833786129951477 -4.287547469139099, -0.20416893064975739 l-4.4917163252830505, -1.5312670171260834 -1.5312670171260834, -1.32709801197052 l-0.5104223266243935, -2.5521114468574524 0.8166757225990295, -2.5521114468574524 l1.1229290813207626, -1.1229290813207626 4.083378612995148, -1.4291824400424957 l1.32709801197052, 0.10208446532487869 m0.0, 3.675040602684021 l7.758418917655945, -11.841797828674316 2.1437737345695496, -0.6125067919492722 l3.266702890396118, 0.0 17.558528184890747, 5.104222893714905 l3.7771251797676086, 1.4291824400424957 1.633351445198059, 2.7562806010246277 l2.041689306497574, 1.32709801197052 0.3062533959746361, 0.5104223266243935 l0.10208446532487869, 2.347942590713501 m-31.748268604278564, -13.781402111053467 l-0.20416893064975739, -2.7562806010246277 -1.2250135838985443, -4.593800902366638 l-2.8583648800849915, -0.10208446532487869 -2.4500271677970886, 0.3062533959746361 m5.818814635276794, -0.7145912200212479 l6.1250680685043335, -0.6125067919492722 2.5521114468574524, -0.5104223266243935 l1.8375203013420105, -0.8166757225990295 " fill="none" stroke="black" stroke-width="1" /></svg>