<?xml version="1.0" encoding="utf-8" ?>
<svg baseProfile="full" height="45.21914020180702" version="1.1" width="72.88402862846851" xmlns="http://www.w3.org/2000/svg" xmlns:ev="http://www.w3.org/2001/xml-events" xmlns:xlink="http://www.w3.org/1999/xlink"><defs /><rect fill="white" height="45.21914020180702" width="72.88402862846851" x="0" y="0" /><path d="M15.0042774528265, 17.658474184572697 m-1.7354358732700348, 0.6125067919492722 l-1.633351445198059, 1.020844653248787 -2.4500271677970886, 1.8375203013420105 l-2.2458581626415253, 2.2458581626415253 -0.9187601506710052, 1.9396047294139862 l-1.020844653248787, 4.287547469139099 0.3062533959746361, 3.8792094588279724 l1.020844653248787, 2.347942590713501 1.633351445198059, 2.1437737345695496 l3.1646183133125305, 1.9396047294139862 2.5521114468574524, 0.3062533959746361 l3.4708717465400696, -0.6125067919492722 3.5729563236236572, -1.8375203013420105 l5.512561202049255, -4.593800902366638 1.633351445198059, -2.7562806010246277 l0.20416893064975739, -2.7562806010246277 -0.7145912200212479, -2.65419602394104 l-2.1437737345695496, -4.083378612995148 -0.9187601506710052, -1.1229290813207626 l-2.7562806010246277, -1.9396047294139862 -2.8583648800849915, -1.2250135838985443 l-2.65419602394104, -0.7145912200212479 -2.347942590713501, -0.20416893064975739 l-3.98129403591156, 0.7145912200212479 m47.87761211395264, -1.8375203013420105 l-1.633351445198059, -0.40833786129951477 -2.960449457168579, 0.3062533959746361 l-1.7354358732700348, 0.7145912200212479 -1.7354358732700348, 1.4291824400424957 l-3.1646183133125305, 5.30839204788208 -1.633351445198059, 5.002138614654541 l-0.10208446532487869, 1.633351445198059 0.40833786129951477, 2.960449457168579 l1.7354358732700348, 3.98129403591156 2.347942590713501, 1.7354358732700348 l1.5312670171260834, 0.40833786129951477 3.368787169456482, -0.10208446532487869 l5.818814635276794, -2.1437737345695496 1.9396047294139862, -1.1229290813207626 l1.7354358732700348, -1.4291824400424957 2.7562806010246277, -3.266702890396118 l0.9187601506710052, -1.8375203013420105 0.7145912200212479, -4.287547469139099 l-0.7145912200212479, -3.98129403591156 -0.9187601506710052, -1.7354358732700348 l-1.2250135838985443, -1.4291824400424957 -2.8583648800849915, -1.8375203013420105 l-1.4291824400424957, -0.6125067919492722 -1.633351445198059, -0.20416893064975739 l-3.5729563236236572, 0.10208446532487869 -3.4708717465400696, 0.7145912200212479 l-6.329236626625061, 2.4500271677970886 m-28.78781795501709, -0.10208446532487869 l0.20416893064975739, -0.7145912200212479 1.5312670171260834, -1.32709801197052 l3.98129403591156, -4.593800902366638 3.0625340342521667, -5.206307768821716 m-1.8375203013420105, 4.4917163252830505 l24.398186206817627, -0.7145912200212479 10.9230375289917, -1.1229290813207626 m-5.920898914337158, 1.1229290813207626 l1.020844653248787, -0.7145912200212479 0.3062533959746361, 0.7145912200212479 l1.5312670171260834, 8.779264092445374 3.368787169456482, 9.28968608379364 " fill="none" stroke="black" stroke-width="1" /></svg>