<?xml version="1.0" encoding="utf-8" ?>
<svg baseProfile="full" height="33.17317359149456" version="1.1" width="57.9796989262104" xmlns="http://www.w3.org/2000/svg" xmlns:ev="http://www.w3.org/2001/xml-events" xmlns:xlink="http://www.w3.org/1999/xlink"><defs /><rect fill="white" height="33.17317359149456" width="57.9796989262104" x="0" y="0" /><path d="M9.083378463983536, 17.25013617426157 m-1.32709801197052, 0.5104223266243935 l-1.8375203013420105, 2.347942590713501 -0.9187601506710052, 2.4500271677970886 l0.10208446532487869, 2.5521114468574524 1.020844653248787, 1.2250135838985443 l1.9396047294139862, 1.1229290813207626 4.083378612995148, 0.7145912200212479 l1.32709801197052, -0.10208446532487869 2.4500271677970886, -0.7145912200212479 l2.7562806010246277, -1.5312670171260834 1.2250135838985443, -1.32709801197052 l0.6125067919492722, -1.2250135838985443 0.10208446532487869, -1.633351445198059 l-0.9187601506710052, -1.5312670171260834 -3.4708717465400696, -2.7562806010246277 l-2.65419602394104, -1.2250135838985443 -0.5104223266243935, -0.10208446532487869 l-0.5104223266243935, 0.5104223266243935 m33.89204263687134, -1.9396047294139862 l-2.041689306497574, 1.8375203013420105 -1.9396047294139862, 2.960449457168579 l-0.10208446532487869, 1.7354358732700348 0.8166757225990295, 1.32709801197052 l1.5312670171260834, 0.5104223266243935 3.5729563236236572, -0.20416893064975739 l2.5521114468574524, -0.7145912200212479 2.041689306497574, -1.633351445198059 l0.10208446532487869, -2.65419602394104 -0.9187601506710052, -1.7354358732700348 l-1.2250135838985443, -1.020844653248787 -2.347942590713501, -0.10208446532487869 l-2.7562806010246277, 1.1229290813207626 m-33.17744970321655, 6.1250680685043335 l17.048105001449585, -2.347942590713501 14.291825294494629, -0.6125067919492722 l4.900054335594177, -0.7145912200212479 m-33.27953577041626, 2.5521114468574524 l2.041689306497574, -1.32709801197052 10.9230375289917, -5.614645481109619 l6.533405780792236, -4.593800902366638 -1.020844653248787, -0.10208446532487869 m-11.02512240409851, -1.9396047294139862 l4.79796975851059, 2.347942590713501 2.4500271677970886, 1.5312670171260834 l2.4500271677970886, 2.2458581626415253 5.30839204788208, 2.8583648800849915 l3.1646183133125305, 2.1437737345695496 1.8375203013420105, 0.7145912200212479 l-2.1437737345695496, -1.2250135838985443 m-17.762696743011475, -13.066811561584473 l-1.020844653248787, 0.20416893064975739 -0.40833786129951477, 0.5104223266243935 l0.10208446532487869, 0.5104223266243935 1.2250135838985443, 0.5104223266243935 l3.1646183133125305, -0.10208446532487869 0.5104223266243935, -0.20416893064975739 l-0.40833786129951477, -0.6125067919492722 -1.020844653248787, -0.40833786129951477 l-1.32709801197052, 0.7145912200212479 " fill="none" stroke="black" stroke-width="1" /></svg>