<?xml version="1.0" encoding="utf-8" ?>
<svg baseProfile="full" height="28.78354135900736" version="1.1" width="46.64832163602114" xmlns="http://www.w3.org/2000/svg" xmlns:ev="http://www.w3.org/2001/xml-events" xmlns:xlink="http://www.w3.org/1999/xlink"><defs /><rect fill="white" height="28.78354135900736" width="46.64832163602114" x="0" y="0" /><path d="M10.410476550459862, 13.677179217338562 m-2.2458581626415253, 1.4291824400424957 l-2.4500271677970886, 2.4500271677970886 -0.7145912200212479, 1.633351445198059 l0.10208446532487869, 1.633351445198059 0.9187601506710052, 0.8166757225990295 l3.368787169456482, 0.3062533959746361 5.614645481109619, -2.65419602394104 l1.4291824400424957, -1.633351445198059 0.20416893064975739, -1.4291824400424957 l-7.043827772140503, -4.4917163252830505 m28.17531108856201, 3.266702890396118 l-1.2250135838985443, 0.40833786129951477 -2.8583648800849915, 2.4500271677970886 l-0.5104223266243935, 2.8583648800849915 0.0, 2.4500271677970886 l0.5104223266243935, 0.6125067919492722 3.7771251797676086, 0.0 l2.347942590713501, -1.2250135838985443 1.2250135838985443, -1.1229290813207626 l0.5104223266243935, -0.7145912200212479 0.10208446532487869, -0.8166757225990295 l-0.10208446532487869, -1.8375203013420105 -0.8166757225990295, -1.2250135838985443 l-4.1854628920555115, -2.5521114468574524 -2.5521114468574524, -0.8166757225990295 m-18.171035051345825, 3.5729563236236572 l7.350081205368042, -0.20416893064975739 9.493855237960815, 0.40833786129951477 m0.0, -0.10208446532487869 l3.4708717465400696, -1.1229290813207626 m-21.641905307769775, -11.02512240409851 l6.227152347564697, 2.65419602394104 5.920898914337158, 1.9396047294139862 l4.389632046222687, 3.368787169456482 1.5312670171260834, 1.4291824400424957 l1.020844653248787, 1.633351445198059 3.4708717465400696, 1.4291824400424957 l2.347942590713501, 0.10208446532487869 m-30.21700143814087, -5.512561202049255 l4.1854628920555115, -2.5521114468574524 1.9396047294139862, -0.8166757225990295 l0.9187601506710052, -1.020844653248787 " fill="none" stroke="black" stroke-width="1" /></svg>