<?xml version="1.0" encoding="utf-8" ?>
<svg baseProfile="full" height="44.402462877333164" version="1.1" width="52.05879930406809" xmlns="http://www.w3.org/2000/svg" xmlns:ev="http://www.w3.org/2001/xml-events" xmlns:xlink="http://www.w3.org/1999/xlink"><defs /><rect fill="white" height="44.402462877333164" width="52.05879930406809" x="0" y="0" /><path d="M8.777127005159855, 24.191877022385597 m-0.3062533959746361, -0.5104223266243935 l0.3062533959746361, -1.5312670171260834 1.633351445198059, -1.7354358732700348 l1.2250135838985443, -0.8166757225990295 3.1646183133125305, -1.020844653248787 l5.410476326942444, -0.10208446532487869 1.7354358732700348, 0.8166757225990295 l1.7354358732700348, 1.4291824400424957 1.4291824400424957, 1.9396047294139862 l1.020844653248787, 2.041689306497574 0.40833786129951477, 1.7354358732700348 l0.0, 3.4708717465400696 -1.9396047294139862, 3.0625340342521667 l-1.32709801197052, 1.32709801197052 -2.7562806010246277, 1.2250135838985443 l-4.287547469139099, 0.20416893064975739 -2.8583648800849915, -1.2250135838985443 l-2.041689306497574, -1.9396047294139862 -2.4500271677970886, -3.675040602684021 l-0.6125067919492722, -1.7354358732700348 -0.20416893064975739, -1.8375203013420105 l0.20416893064975739, -4.79796975851059 m7.758418917655945, -0.8166757225990295 l2.4500271677970886, 11.33137583732605 1.5312670171260834, 4.083378612995148 m-13.67931842803955, -7.247996926307678 l8.370925784111023, 0.6125067919492722 6.022983193397522, -0.10208446532487869 l6.1250680685043335, -1.1229290813207626 1.9396047294139862, -0.7145912200212479 m-20.212724208831787, -4.79796975851059 l3.4708717465400696, 2.4500271677970886 6.533405780792236, 7.1459126472473145 l3.266702890396118, 2.65419602394104 1.633351445198059, 0.8166757225990295 m-3.368787169456482, -13.57723355293274 l-3.0625340342521667, 4.900054335594177 -2.8583648800849915, 5.410476326942444 l-2.7562806010246277, 5.614645481109619 -0.40833786129951477, 2.2458581626415253 m27.562804222106934, -22.86691904067993 l-1.633351445198059, 1.5312670171260834 -1.1229290813207626, 1.8375203013420105 l-0.8166757225990295, 2.1437737345695496 -0.20416893064975739, 4.593800902366638 l0.7145912200212479, 2.2458581626415253 1.4291824400424957, 1.9396047294139862 l1.8375203013420105, 1.4291824400424957 1.8375203013420105, 0.3062533959746361 l2.041689306497574, -0.10208446532487869 1.5312670171260834, -0.9187601506710052 l0.9187601506710052, -1.2250135838985443 0.5104223266243935, -1.4291824400424957 l0.10208446532487869, -3.675040602684021 -0.8166757225990295, -2.347942590713501 l-1.2250135838985443, -1.7354358732700348 -1.5312670171260834, -1.4291824400424957 l-1.4291824400424957, -0.8166757225990295 -3.368787169456482, -0.9187601506710052 l-3.7771251797676086, -0.3062533959746361 m3.675040602684021, 0.9187601506710052 l1.5312670171260834, 2.347942590713501 2.4500271677970886, 7.656334638595581 l1.5312670171260834, 3.5729563236236572 m-10.514699220657349, -7.96258807182312 l3.368787169456482, 0.10208446532487869 5.206307768821716, -0.6125067919492722 l6.227152347564697, -2.5521114468574524 m-7.350081205368042, -3.0625340342521667 l-0.6125067919492722, 3.1646183133125305 0.0, 4.287547469139099 m1.633351445198059, -3.5729563236236572 l0.0, 11.02512240409851 m-5.104222893714905, -12.658473253250122 l0.6125067919492722, 1.633351445198059 1.4291824400424957, 1.9396047294139862 l2.347942590713501, 2.1437737345695496 6.1250680685043335, 3.675040602684021 m-28.685734272003174, -10.61678409576416 l3.7771251797676086, -1.1229290813207626 4.593800902366638, -0.20416893064975739 l3.1646183133125305, 0.40833786129951477 8.064672350883484, 1.9396047294139862 m-18.98771047592163, -2.65419602394104 l-5.818814635276794, -5.206307768821716 -2.7562806010246277, -3.675040602684021 l-0.5104223266243935, -0.10208446532487869 -1.5312670171260834, 1.020844653248787 l-2.4500271677970886, 2.4500271677970886 3.98129403591156, -2.960449457168579 l3.675040602684021, -3.98129403591156 " fill="none" stroke="black" stroke-width="1" /></svg>