<?xml version="1.0" encoding="utf-8" ?>
<svg baseProfile="full" height="23.985571563243866" version="1.1" width="33.78567971289158" xmlns="http://www.w3.org/2000/svg" xmlns:ev="http://www.w3.org/2001/xml-events" xmlns:xlink="http://www.w3.org/1999/xlink"><defs /><rect fill="white" height="23.985571563243866" width="33.78567971289158" x="0" y="0" /><path d="M18.373064622282982, 6.020844578742981 m5.716729760169983, 1.5312670171260834 l3.4708717465400696, -1.633351445198059 1.2250135838985443, -0.9187601506710052 m-5.30839204788208, 3.5729563236236572 l1.2250135838985443, 5.614645481109619 m0.10208446532487869, -0.10208446532487869 l-2.65419602394104, 0.0 -1.4291824400424957, 1.1229290813207626 l-0.6125067919492722, 1.32709801197052 0.0, 1.020844653248787 l0.5104223266243935, 1.1229290813207626 0.40833786129951477, 0.3062533959746361 l3.675040602684021, -0.10208446532487869 1.020844653248787, -0.20416893064975739 l0.8166757225990295, -0.6125067919492722 0.40833786129951477, -1.633351445198059 l-0.3062533959746361, -1.32709801197052 -1.2250135838985443, -0.8166757225990295 l-1.5312670171260834, -0.40833786129951477 m-0.9187601506710052, -3.5729563236236572 l-2.7562806010246277, -0.40833786129951477 -6.737574338912964, 0.0 l-0.6125067919492722, 0.20416893064975739 m6.329236626625061, 0.3062533959746361 l-7.656334638595581, 4.79796975851059 m1.020844653248787, -5.002138614654541 l-3.4708717465400696, 1.4291824400424957 m0.3062533959746361, -0.5104223266243935 l-1.2250135838985443, 0.10208446532487869 -2.347942590713501, 1.2250135838985443 l-0.8166757225990295, 1.9396047294139862 0.20416893064975739, 2.5521114468574524 l0.8166757225990295, 1.7354358732700348 2.8583648800849915, 0.10208446532487869 l1.633351445198059, -0.40833786129951477 1.633351445198059, -1.7354358732700348 l-0.20416893064975739, -2.65419602394104 -0.7145912200212479, -1.633351445198059 l-1.1229290813207626, -0.8166757225990295 -2.041689306497574, -0.40833786129951477 l-1.633351445198059, 0.40833786129951477 m7.4521660804748535, -2.8583648800849915 l0.6125067919492722, 0.8166757225990295 1.1229290813207626, 0.8166757225990295 l0.9187601506710052, -0.10208446532487869 0.10208446532487869, -0.8166757225990295 l-1.633351445198059, -0.8166757225990295 -0.7145912200212479, 0.6125067919492722 l0.0, 0.8166757225990295 1.020844653248787, -0.20416893064975739 l0.0, -0.40833786129951477 -1.4291824400424957, -0.20416893064975739 " fill="none" stroke="black" stroke-width="1" /></svg>