<?xml version="1.0" encoding="utf-8" ?>
<svg baseProfile="full" height="36.439875327050686" version="1.1" width="44.40246548503637" xmlns="http://www.w3.org/2000/svg" xmlns:ev="http://www.w3.org/2001/xml-events" xmlns:xlink="http://www.w3.org/1999/xlink"><defs /><rect fill="white" height="36.439875327050686" width="44.40246548503637" x="0" y="0" /><path d="M8.164618499577045, 20.823091007769108 m-3.0625340342521667, 0.0 l-0.10208446532487869, 2.960449457168579 0.5104223266243935, 1.633351445198059 l1.020844653248787, 1.5312670171260834 2.5521114468574524, 1.633351445198059 l3.1646183133125305, 1.2250135838985443 2.2458581626415253, 0.0 l1.5312670171260834, -1.633351445198059 0.7145912200212479, -1.9396047294139862 l0.0, -2.041689306497574 -2.4500271677970886, -1.9396047294139862 l-1.2250135838985443, -0.6125067919492722 -5.104222893714905, -1.020844653248787 m30.421171188354492, 2.8583648800849915 l-2.8583648800849915, -0.6125067919492722 -0.6125067919492722, 0.9187601506710052 l-0.8166757225990295, 4.389632046222687 0.0, 1.4291824400424957 l0.6125067919492722, 1.4291824400424957 -0.6125067919492722, 0.40833786129951477 l4.900054335594177, -1.8375203013420105 0.40833786129951477, -0.5104223266243935 l0.0, -2.960449457168579 -0.6125067919492722, -1.4291824400424957 l-4.083378612995148, -1.020844653248787 m-23.17317247390747, 4.083378612995148 l1.32709801197052, -6.533405780792236 0.7145912200212479, -6.1250680685043335 l0.7145912200212479, -1.8375203013420105 m22.96900510787964, 14.904332160949707 l-0.10208446532487869, -13.475148677825928 -0.40833786129951477, -0.7145912200212479 l-2.8583648800849915, -0.8166757225990295 -5.30839204788208, -0.8166757225990295 l-8.166757225990295, -0.3062533959746361 -3.8792094588279724, -0.5104223266243935 l-4.287547469139099, 0.10208446532487869 m-1.020844653248787, -0.40833786129951477 l-2.2458581626415253, 0.0 -2.041689306497574, -0.6125067919492722 l-1.020844653248787, -1.8375203013420105 0.3062533959746361, -1.7354358732700348 l1.7354358732700348, -1.5312670171260834 2.2458581626415253, -0.5104223266243935 l4.083378612995148, 0.10208446532487869 0.6125067919492722, 0.6125067919492722 " fill="none" stroke="black" stroke-width="1" /></svg>