<?xml version="1.0" encoding="utf-8" ?>
<svg baseProfile="full" height="93.70925966650248" version="1.1" width="143.9348168298602" xmlns="http://www.w3.org/2000/svg" xmlns:ev="http://www.w3.org/2001/xml-events" xmlns:xlink="http://www.w3.org/1999/xlink"><defs /><rect fill="white" height="93.70925966650248" width="143.9348168298602" x="0" y="0" /><path d="M101.87815621495247, 33.58364921063185 m0.0, 0.0 m-4.79796975851059, 2.7562806010246277 l-1.2250135838985443, 0.9187601506710052 -3.4708717465400696, 4.4917163252830505 l-1.32709801197052, 2.4500271677970886 -1.1229290813207626, 3.0625340342521667 l-1.1229290813207626, 5.30839204788208 0.0, 6.1250680685043335 l0.5104223266243935, 3.5729563236236572 0.8166757225990295, 3.98129403591156 l2.960449457168579, 8.26884150505066 4.389632046222687, 7.350081205368042 l4.1854628920555115, 3.7771251797676086 4.4917163252830505, 2.347942590713501 l3.0625340342521667, 0.7145912200212479 5.614645481109619, 0.0 l3.5729563236236572, -0.5104223266243935 6.1250680685043335, -2.1437737345695496 l5.410476326942444, -3.266702890396118 4.389632046222687, -5.206307768821716 l1.7354358732700348, -3.266702890396118 1.8375203013420105, -5.30839204788208 l1.020844653248787, -5.716729760169983 -0.40833786129951477, -6.227152347564697 l-1.2250135838985443, -5.716729760169983 -2.2458581626415253, -5.30839204788208 l-4.083378612995148, -5.614645481109619 -5.818814635276794, -5.002138614654541 l-10.718868970870972, -6.941743493080139 -14.802247285842896, -7.4521660804748535 l-17.048105001449585, -6.022983193397522 -18.068950176239014, -5.002138614654541 l-17.558528184890747, -3.368787169456482 -17.558528184890747, -1.633351445198059 l-13.475148677825928, 0.0 -10.61678409576416, 1.32709801197052 l-0.3062533959746361, 1.9396047294139862 0.0, 17.354358434677124 l1.8375203013420105, 3.98129403591156 3.98129403591156, 3.7771251797676086 l4.593800902366638, 3.368787169456482 13.475148677825928, 8.064672350883484 l8.26884150505066, 4.287547469139099 18.98771047592163, 8.473010659217834 l10.310530662536621, 3.8792094588279724 18.171035051345825, 6.022983193397522 l6.941743493080139, 1.4291824400424957 7.043827772140503, 1.020844653248787 l1.32709801197052, 0.0 0.0, -0.6125067919492722 l-3.8792094588279724, -1.32709801197052 -5.716729760169983, -0.9187601506710052 l-7.554250359535217, -0.7145912200212479 -18.98771047592163, 0.0 l-6.329236626625061, 0.6125067919492722 -3.0625340342521667, 0.7145912200212479 l-0.8166757225990295, 0.6125067919492722 -0.3062533959746361, 0.7145912200212479 l0.6125067919492722, 1.2250135838985443 1.1229290813207626, 0.8166757225990295 l1.8375203013420105, 0.7145912200212479 4.900054335594177, 0.9187601506710052 l6.1250680685043335, 0.0 -0.5104223266243935, 0.40833786129951477 l-3.7771251797676086, 0.9187601506710052 -4.389632046222687, 0.5104223266243935 l0.8166757225990295, 0.40833786129951477 4.593800902366638, 0.20416893064975739 l1.32709801197052, 0.0 0.20416893064975739, -0.3062533959746361 " fill="none" stroke="black" stroke-width="1" /></svg>