<?xml version="1.0" encoding="utf-8" ?>
<svg baseProfile="full" height="28.681456595659256" version="1.1" width="41.85035225003958" xmlns="http://www.w3.org/2000/svg" xmlns:ev="http://www.w3.org/2001/xml-events" xmlns:xlink="http://www.w3.org/1999/xlink"><defs /><rect fill="white" height="28.681456595659256" width="41.85035225003958" x="0" y="0" /><path d="M13.98343250155449, 10.20630769431591 m14.700162410736084, -2.2458581626415253 m-14.700162410736084, 2.1437737345695496 l-0.20416893064975739, -1.020844653248787 -1.9396047294139862, -3.5729563236236572 m-2.4500271677970886, 0.40833786129951477 l2.5521114468574524, -0.7145912200212479 3.368787169456482, -0.20416893064975739 m13.373064994812012, 2.960449457168579 l-1.5312670171260834, -0.9187601506710052 -0.8166757225990295, -0.9187601506710052 m-0.10208446532487869, -0.10208446532487869 l1.1229290813207626, -0.40833786129951477 5.002138614654541, -0.20416893064975739 m-6.533405780792236, 0.40833786129951477 l-0.20416893064975739, 0.5104223266243935 -2.4500271677970886, 1.8375203013420105 m-6.431320905685425, 1.7354358732700348 l-3.8792094588279724, 5.920898914337158 m0.0, 0.0 l-5.716729760169983, -2.041689306497574 -1.633351445198059, -0.10208446532487869 l-0.5104223266243935, 2.1437737345695496 0.10208446532487869, 3.8792094588279724 l0.9187601506710052, 2.1437737345695496 1.020844653248787, 0.8166757225990295 l1.020844653248787, 0.5104223266243935 2.4500271677970886, 0.0 l3.266702890396118, -0.8166757225990295 2.65419602394104, -1.5312670171260834 l1.32709801197052, -1.633351445198059 0.10208446532487869, -2.1437737345695496 l-0.6125067919492722, -1.32709801197052 -0.7145912200212479, -0.7145912200212479 l-1.8375203013420105, -1.020844653248787 -2.2458581626415253, -0.7145912200212479 l-2.7562806010246277, 0.10208446532487869 m15.312669277191162, -4.593800902366638 l2.65419602394104, 7.4521660804748535 m0.10208446532487869, 0.5104223266243935 l1.5312670171260834, -2.65419602394104 2.8583648800849915, -1.633351445198059 l1.1229290813207626, 0.20416893064975739 2.8583648800849915, 5.104222893714905 l0.7145912200212479, 2.041689306497574 0.0, 1.2250135838985443 l-0.6125067919492722, 1.1229290813207626 -1.2250135838985443, 0.9187601506710052 l-1.5312670171260834, 0.6125067919492722 -1.020844653248787, 0.0 l-1.5312670171260834, -1.32709801197052 -1.9396047294139862, -2.7562806010246277 l-0.20416893064975739, -1.020844653248787 0.9187601506710052, -1.4291824400424957 m-15.210585594177246, -2.2458581626415253 l8.677179217338562, -2.4500271677970886 2.2458581626415253, -1.633351445198059 l1.2250135838985443, -1.9396047294139862 " fill="none" stroke="black" stroke-width="1" /></svg>