<?xml version="1.0" encoding="utf-8" ?>
<svg baseProfile="full" height="19.49385531246662" version="1.1" width="28.375203907489777" xmlns="http://www.w3.org/2000/svg" xmlns:ev="http://www.w3.org/2001/xml-events" xmlns:xlink="http://www.w3.org/1999/xlink"><defs /><rect fill="white" height="19.49385531246662" width="28.375203907489777" x="0" y="0" /><path d="M22.456443943083286, 8.266703113913536 m0.0, 0.0 m-1.020844653248787, 0.10208446532487869 l-1.633351445198059, 0.20416893064975739 -1.5312670171260834, 1.7354358732700348 l0.3062533959746361, 1.5312670171260834 1.4291824400424957, 0.8166757225990295 l2.2458581626415253, 0.0 0.40833786129951477, -0.20416893064975739 l0.7145912200212479, -1.32709801197052 0.0, -1.2250135838985443 l-0.40833786129951477, -1.020844653248787 -1.8375203013420105, -0.7145912200212479 m-12.250136137008667, 0.8166757225990295 l-0.9187601506710052, -0.10208446532487869 -1.4291824400424957, 0.40833786129951477 l-1.5312670171260834, 1.8375203013420105 0.0, 1.9396047294139862 l0.5104223266243935, 0.7145912200212479 1.8375203013420105, 0.7145912200212479 l1.020844653248787, 0.0 1.4291824400424957, -1.1229290813207626 l0.6125067919492722, -1.5312670171260834 0.0, -1.020844653248787 l-0.7145912200212479, -0.9187601506710052 -1.1229290813207626, -0.7145912200212479 l-2.4500271677970886, -0.6125067919492722 m14.802247285842896, 1.32709801197052 l-0.7145912200212479, -4.1854628920555115 -0.40833786129951477, -0.20416893064975739 l-2.65419602394104, -0.10208446532487869 -2.960449457168579, 0.3062533959746361 l0.10208446532487869, 3.368787169456482 1.5312670171260834, 0.40833786129951477 l0.20416893064975739, 2.4500271677970886 m-2.65419602394104, -3.266702890396118 l-1.020844653248787, 1.8375203013420105 0.0, 0.9187601506710052 l0.5104223266243935, 1.32709801197052 m0.7145912200212479, -7.656334638595581 l-3.5729563236236572, 0.9187601506710052 -2.4500271677970886, 0.20416893064975739 l-1.633351445198059, 5.920898914337158 m12.964726686477661, -7.1459126472473145 l1.8375203013420105, 0.20416893064975739 " fill="none" stroke="black" stroke-width="1" /></svg>