<?xml version="1.0" encoding="utf-8" ?>
<svg baseProfile="full" height="45.014972388744354" version="1.1" width="74.61946427822113" xmlns="http://www.w3.org/2000/svg" xmlns:ev="http://www.w3.org/2001/xml-events" xmlns:xlink="http://www.w3.org/1999/xlink"><defs /><rect fill="white" height="45.014972388744354" width="74.61946427822113" x="0" y="0" /><path d="M14.902192763984203, 21.435600332915783 m-1.4291824400424957, -0.8166757225990295 l-1.020844653248787, -0.10208446532487869 -1.32709801197052, 0.0 l-2.347942590713501, 0.9187601506710052 -2.347942590713501, 2.1437737345695496 l-1.1229290813207626, 1.8375203013420105 -0.3062533959746361, 1.2250135838985443 l0.3062533959746361, 2.65419602394104 1.020844653248787, 2.5521114468574524 l1.633351445198059, 2.7562806010246277 2.347942590713501, 2.5521114468574524 l3.1646183133125305, 2.2458581626415253 2.960449457168579, 0.5104223266243935 l4.389632046222687, 0.10208446532487869 2.4500271677970886, -0.7145912200212479 l2.041689306497574, -1.2250135838985443 2.041689306497574, -2.1437737345695496 l1.1229290813207626, -1.7354358732700348 1.020844653248787, -3.368787169456482 l0.0, -1.4291824400424957 -0.7145912200212479, -2.041689306497574 l-0.8166757225990295, -1.4291824400424957 -2.960449457168579, -2.7562806010246277 l-5.614645481109619, -2.5521114468574524 -3.266702890396118, -0.3062533959746361 l-3.5729563236236572, 1.4291824400424957 m47.26510524749756, -1.2250135838985443 l-5.614645481109619, -0.20416893064975739 -3.4708717465400696, 2.65419602394104 l-0.9187601506710052, 3.266702890396118 0.0, 1.8375203013420105 l0.7145912200212479, 2.65419602394104 2.2458581626415253, 3.368787169456482 l3.4708717465400696, 2.8583648800849915 1.020844653248787, 0.3062533959746361 l4.287547469139099, 0.0 3.0625340342521667, -0.40833786129951477 l2.960449457168579, -2.1437737345695496 1.5312670171260834, -2.347942590713501 l0.5104223266243935, -5.716729760169983 -0.6125067919492722, -3.0625340342521667 l-0.9187601506710052, -2.4500271677970886 -0.7145912200212479, -0.8166757225990295 l-2.1437737345695496, -1.020844653248787 -1.020844653248787, -0.9187601506710052 l-1.7354358732700348, -0.6125067919492722 -2.8583648800849915, -0.10208446532487869 l-2.347942590713501, 0.6125067919492722 -3.1646183133125305, 1.633351445198059 l-1.5312670171260834, 1.32709801197052 -0.5104223266243935, 0.9187601506710052 m8.064672350883484, 7.96258807182312 l-3.7771251797676086, -2.8583648800849915 -1.5312670171260834, -1.7354358732700348 l-1.1229290813207626, -0.6125067919492722 -4.083378612995148, -4.4917163252830505 l-1.1229290813207626, -0.8166757225990295 -0.9187601506710052, -1.32709801197052 l-5.512561202049255, -5.206307768821716 -1.32709801197052, -0.8166757225990295 l-0.9187601506710052, -1.2250135838985443 -1.020844653248787, -0.6125067919492722 l-1.1229290813207626, -0.20416893064975739 -1.2250135838985443, 0.7145912200212479 l-3.4708717465400696, 3.8792094588279724 -5.206307768821716, 4.695885181427002 l-3.266702890396118, 2.2458581626415253 -3.266702890396118, 1.633351445198059 l-2.65419602394104, 1.9396047294139862 -4.79796975851059, 4.389632046222687 m23.17317247390747, -24.194018840789795 l-0.7145912200212479, 0.0 -6.1250680685043335, 2.4500271677970886 l-0.9187601506710052, 1.32709801197052 0.0, 0.5104223266243935 l0.6125067919492722, 0.8166757225990295 1.633351445198059, 0.9187601506710052 l3.368787169456482, 0.10208446532487869 4.083378612995148, -1.020844653248787 l3.1646183133125305, -1.32709801197052 0.9187601506710052, -1.2250135838985443 l0.3062533959746361, -0.6125067919492722 -0.7145912200212479, -1.020844653248787 l-1.5312670171260834, -1.1229290813207626 -1.8375203013420105, -0.3062533959746361 l-3.8792094588279724, 0.3062533959746361 -2.7562806010246277, 1.020844653248787 l-1.633351445198059, 1.32709801197052 -0.10208446532487869, 0.7145912200212479 l0.3062533959746361, 0.6125067919492722 0.8166757225990295, 0.8166757225990295 l1.2250135838985443, 0.40833786129951477 5.104222893714905, 0.3062533959746361 l2.041689306497574, -0.40833786129951477 1.5312670171260834, -0.7145912200212479 l0.8166757225990295, -0.8166757225990295 0.0, -0.5104223266243935 l-5.002138614654541, -1.1229290813207626 -5.002138614654541, 0.8166757225990295 l-0.7145912200212479, 0.6125067919492722 -0.10208446532487869, 0.7145912200212479 l0.5104223266243935, 0.40833786129951477 1.5312670171260834, 0.40833786129951477 l3.5729563236236572, 0.10208446532487869 2.4500271677970886, -0.6125067919492722 l3.4708717465400696, -1.7354358732700348 " fill="none" stroke="black" stroke-width="1" /></svg>