<?xml version="1.0" encoding="utf-8" ?>
<svg baseProfile="full" height="41.23784560710192" version="1.1" width="46.75040639936924" xmlns="http://www.w3.org/2000/svg" xmlns:ev="http://www.w3.org/2001/xml-events" xmlns:xlink="http://www.w3.org/1999/xlink"><defs /><rect fill="white" height="41.23784560710192" width="46.75040639936924" x="0" y="0" /><path d="M7.552111558616161, 27.05024380236864 m-1.2250135838985443, -0.3062533959746361 l-1.020844653248787, 2.347942590713501 0.0, 5.206307768821716 l0.8166757225990295, 1.633351445198059 0.7145912200212479, 0.3062533959746361 l3.4708717465400696, -0.20416893064975739 0.9187601506710052, -0.9187601506710052 l0.3062533959746361, -2.1437737345695496 -1.020844653248787, -2.5521114468574524 l-2.5521114468574524, -3.1646183133125305 -2.960449457168579, -2.4500271677970886 m4.1854628920555115, 4.287547469139099 l-0.20416893064975739, -11.637629270553589 4.900054335594177, 1.32709801197052 l14.087655544281006, 2.2458581626415253 9.493855237960815, 0.0 l0.5104223266243935, -0.3062533959746361 m0.0, 0.0 l-0.5104223266243935, 0.0 -0.3062533959746361, 0.5104223266243935 l-1.8375203013420105, 4.1854628920555115 -0.6125067919492722, 3.4708717465400696 l0.0, 1.5312670171260834 0.5104223266243935, 1.32709801197052 l1.7354358732700348, 1.020844653248787 1.32709801197052, -0.10208446532487869 l1.2250135838985443, -2.1437737345695496 0.3062533959746361, -1.9396047294139862 l-0.10208446532487869, -2.347942590713501 -1.1229290813207626, -3.8792094588279724 l-1.4291824400424957, -2.5521114468574524 -1.5312670171260834, -1.633351445198059 m1.633351445198059, 2.1437737345695496 l-0.8166757225990295, -6.227152347564697 -1.633351445198059, -8.677179217338562 m-1.9396047294139862, 1.020844653248787 l3.675040602684021, -0.7145912200212479 2.347942590713501, 0.0 l2.8583648800849915, -0.7145912200212479 -4.900054335594177, 1.1229290813207626 l-2.65419602394104, 1.32709801197052 -8.166757225990295, 0.7145912200212479 " fill="none" stroke="black" stroke-width="1" /></svg>