<?xml version="1.0" encoding="utf-8" ?>
<svg baseProfile="full" height="31.0293997451663" version="1.1" width="33.479426726698875" xmlns="http://www.w3.org/2000/svg" xmlns:ev="http://www.w3.org/2001/xml-events" xmlns:xlink="http://www.w3.org/1999/xlink"><defs /><rect fill="white" height="31.0293997451663" width="33.479426726698875" x="0" y="0" /><path d="M5.306253097951412, 16.025121994316578 m0.0, 6.1250680685043335 l1.5312670171260834, 2.7562806010246277 1.633351445198059, 1.1229290813207626 l1.5312670171260834, 0.0 2.347942590713501, -2.1437737345695496 l1.32709801197052, -2.347942590713501 0.6125067919492722, -2.8583648800849915 l-0.10208446532487869, -2.2458581626415253 -0.5104223266243935, -1.5312670171260834 l-0.7145912200212479, -0.7145912200212479 -0.5104223266243935, -0.3062533959746361 l-1.9396047294139862, -0.3062533959746361 -1.32709801197052, 0.20416893064975739 l-3.368787169456482, 1.7354358732700348 -0.8166757225990295, 1.4291824400424957 m18.068950176239014, -1.1229290813207626 l-0.6125067919492722, 6.431320905685425 0.10208446532487869, 0.6125067919492722 l2.041689306497574, 2.1437737345695496 1.32709801197052, -0.10208446532487869 l1.4291824400424957, -1.7354358732700348 0.6125067919492722, -1.7354358732700348 l0.5104223266243935, -4.900054335594177 -0.9187601506710052, -3.0625340342521667 l-2.2458581626415253, -0.9187601506710052 -1.5312670171260834, 0.0 l-1.8375203013420105, 0.40833786129951477 -0.7145912200212479, 0.5104223266243935 l-0.3062533959746361, 0.9187601506710052 m-7.350081205368042, 0.10208446532487869 l5.30839204788208, 0.40833786129951477 3.98129403591156, -0.7145912200212479 m-2.347942590713501, -0.40833786129951477 l1.2250135838985443, -2.1437737345695496 2.7562806010246277, -6.6354900598526 m-1.2250135838985443, 4.695885181427002 l-2.2458581626415253, -1.32709801197052 -3.675040602684021, -1.633351445198059 m-0.6125067919492722, 7.758418917655945 l-1.020844653248787, -2.347942590713501 0.0, -0.8166757225990295 m-0.40833786129951477, -2.347942590713501 l-1.020844653248787, 0.10208446532487869 -0.9187601506710052, 0.6125067919492722 l-0.10208446532487869, 1.4291824400424957 " fill="none" stroke="black" stroke-width="1" /></svg>