<?xml version="1.0" encoding="utf-8" ?>
<svg baseProfile="full" height="34.704440608620644" version="1.1" width="46.44415359944105" xmlns="http://www.w3.org/2000/svg" xmlns:ev="http://www.w3.org/2001/xml-events" xmlns:xlink="http://www.w3.org/1999/xlink"><defs /><rect fill="white" height="34.704440608620644" width="46.44415359944105" x="0" y="0" /><path d="M6.939604766666889, 19.80224773287773 m-1.4291824400424957, 3.1646183133125305 l-0.5104223266243935, 3.368787169456482 0.0, 2.7562806010246277 l1.9396047294139862, 0.6125067919492722 10.310530662536621, 0.0 l2.1437737345695496, -0.8166757225990295 0.3062533959746361, -1.020844653248787 l0.0, -2.5521114468574524 -0.5104223266243935, -1.633351445198059 l-1.1229290813207626, -1.5312670171260834 -2.7562806010246277, -1.9396047294139862 l-3.5729563236236572, -1.020844653248787 -2.8583648800849915, 0.0 l-2.1437737345695496, 2.7562806010246277 m26.84821367263794, -1.8375203013420105 l-1.020844653248787, 2.2458581626415253 0.0, 2.4500271677970886 l1.020844653248787, 1.2250135838985443 6.329236626625061, 0.6125067919492722 l1.020844653248787, -0.40833786129951477 0.3062533959746361, -0.5104223266243935 l0.0, -2.5521114468574524 -2.2458581626415253, -3.1646183133125305 l-1.633351445198059, -0.7145912200212479 -3.266702890396118, -0.10208446532487869 l-0.7145912200212479, 0.40833786129951477 -0.40833786129951477, 1.8375203013420105 m-15.51683783531189, 1.8375203013420105 l23.989849090576172, 0.0 -1.020844653248787, -0.3062533959746361 l-1.633351445198059, -1.32709801197052 -3.0625340342521667, -3.5729563236236572 l-2.2458581626415253, -3.675040602684021 -2.7562806010246277, -7.043827772140503 l-0.6125067919492722, -0.20416893064975739 -3.1646183133125305, 5.104222893714905 l-4.287547469139099, 10.820952653884888 m2.041689306497574, -16.02726101875305 l4.695885181427002, 0.9187601506710052 2.347942590713501, 0.0 l0.3062533959746361, -0.5104223266243935 -0.20416893064975739, -1.020844653248787 l-1.32709801197052, -1.4291824400424957 -2.5521114468574524, 0.0 l-2.1437737345695496, 2.041689306497574 -1.633351445198059, 0.10208446532487869 m2.4500271677970886, 5.206307768821716 l-6.431320905685425, 0.10208446532487869 " fill="none" stroke="black" stroke-width="1" /></svg>