<?xml version="1.0" encoding="utf-8" ?>
<svg baseProfile="full" height="30.62106143683195" version="1.1" width="34.500271156430244" xmlns="http://www.w3.org/2000/svg" xmlns:ev="http://www.w3.org/2001/xml-events" xmlns:xlink="http://www.w3.org/1999/xlink"><defs /><rect fill="white" height="30.62106143683195" width="34.500271156430244" x="0" y="0" /><path d="M11.125067695975304, 16.63762852549553 m-3.368787169456482, 0.3062533959746361 l-2.1437737345695496, 2.1437737345695496 -0.5104223266243935, 1.5312670171260834 l-0.10208446532487869, 2.4500271677970886 0.3062533959746361, 1.32709801197052 l1.2250135838985443, 1.2250135838985443 2.7562806010246277, -0.40833786129951477 l3.8792094588279724, -2.8583648800849915 0.40833786129951477, -2.041689306497574 l-0.10208446532487869, -1.9396047294139862 -0.5104223266243935, -0.9187601506710052 l-2.7562806010246277, -1.020844653248787 m13.883486986160278, 6.022983193397522 l-1.9396047294139862, -0.10208446532487869 -0.9187601506710052, -0.7145912200212479 l-0.9187601506710052, -1.32709801197052 -0.40833786129951477, -1.5312670171260834 l0.20416893064975739, -0.9187601506710052 1.7354358732700348, -1.5312670171260834 l2.7562806010246277, -0.7145912200212479 2.5521114468574524, 0.10208446532487869 l1.5312670171260834, 0.6125067919492722 0.7145912200212479, 1.1229290813207626 l0.10208446532487869, 1.32709801197052 -0.40833786129951477, 1.4291824400424957 l-2.7562806010246277, 2.960449457168579 -0.5104223266243935, 0.10208446532487869 l-2.7562806010246277, -1.020844653248787 -1.32709801197052, -1.2250135838985443 l-0.40833786129951477, -1.020844653248787 m-10.718868970870972, -3.8792094588279724 l0.5104223266243935, -3.1646183133125305 1.4291824400424957, -2.1437737345695496 l1.1229290813207626, -3.0625340342521667 m6.022983193397522, 1.32709801197052 l-0.10208446532487869, 0.40833786129951477 0.5104223266243935, 1.1229290813207626 l4.389632046222687, 2.65419602394104 0.6125067919492722, 1.1229290813207626 l0.40833786129951477, 2.2458581626415253 m-3.7771251797676086, -7.758418917655945 l-4.593800902366638, -0.10208446532487869 -6.839659214019775, 0.20416893064975739 l-2.7562806010246277, -0.3062533959746361 m-0.6125067919492722, -3.675040602684021 l0.9187601506710052, 3.5729563236236572 1.1229290813207626, 0.5104223266243935 l0.5104223266243935, 0.6125067919492722 m13.883486986160278, -1.7354358732700348 l0.3062533959746361, 0.9187601506710052 3.1646183133125305, 1.4291824400424957 " fill="none" stroke="black" stroke-width="1" /></svg>