<?xml version="1.0" encoding="utf-8" ?>
<svg baseProfile="full" height="37.46072117239237" version="1.1" width="50.52753187716007" xmlns="http://www.w3.org/2000/svg" xmlns:ev="http://www.w3.org/2001/xml-events" xmlns:xlink="http://www.w3.org/1999/xlink"><defs /><rect fill="white" height="37.46072117239237" width="50.52753187716007" x="0" y="0" /><path d="M11.227153018116951, 15.106362774968147 m-1.8375203013420105, 0.0 l-2.1437737345695496, 1.1229290813207626 -1.2250135838985443, 3.1646183133125305 l-0.3062533959746361, 3.98129403591156 0.5104223266243935, 2.4500271677970886 l1.5312670171260834, 2.7562806010246277 1.7354358732700348, 1.4291824400424957 l2.7562806010246277, 0.9187601506710052 2.5521114468574524, 0.10208446532487869 l1.4291824400424957, -0.3062533959746361 1.32709801197052, -0.6125067919492722 l2.2458581626415253, -1.7354358732700348 1.32709801197052, -2.4500271677970886 l0.0, -4.79796975851059 -1.32709801197052, -2.960449457168579 l-1.1229290813207626, -1.32709801197052 -2.1437737345695496, -1.5312670171260834 l-4.1854628920555115, -0.9187601506710052 -1.8375203013420105, 0.0 l-0.8166757225990295, 0.5104223266243935 m27.562804222106934, 2.8583648800849915 l-2.5521114468574524, -0.10208446532487869 -1.2250135838985443, 0.9187601506710052 l-0.8166757225990295, 1.9396047294139862 -0.40833786129951477, 2.960449457168579 l0.10208446532487869, 2.7562806010246277 0.6125067919492722, 2.5521114468574524 l0.9187601506710052, 1.8375203013420105 2.2458581626415253, 1.32709801197052 l3.1646183133125305, 0.5104223266243935 3.1646183133125305, -0.10208446532487869 l1.7354358732700348, -0.6125067919492722 0.8166757225990295, -1.32709801197052 l0.5104223266243935, -2.4500271677970886 0.0, -2.7562806010246277 l-0.40833786129951477, -1.633351445198059 -1.32709801197052, -2.5521114468574524 l-3.266702890396118, -1.020844653248787 -3.0625340342521667, -0.20416893064975739 m-5.104222893714905, 3.8792094588279724 l-2.8583648800849915, 0.0 -4.389632046222687, -1.020844653248787 l-4.083378612995148, -0.40833786129951477 m-5.410476326942444, -6.839659214019775 l-3.266702890396118, -8.166757225990295 -1.020844653248787, -1.4291824400424957 m0.0, 0.20416893064975739 l-4.900054335594177, -1.020844653248787 -1.4291824400424957, 0.0 m6.737574338912964, 0.8166757225990295 l8.779264092445374, 0.0 m0.5104223266243935, 11.33137583732605 l4.695885181427002, -2.7562806010246277 m8.575094938278198, 5.206307768821716 l-1.1229290813207626, -1.5312670171260834 -6.1250680685043335, -3.98129403591156 l-1.020844653248787, -1.32709801197052 m1.020844653248787, -1.1229290813207626 l-3.4708717465400696, -0.3062533959746361 -0.7145912200212479, 0.8166757225990295 " fill="none" stroke="black" stroke-width="1" /></svg>