<?xml version="1.0" encoding="utf-8" ?>
<svg baseProfile="full" height="30.314808413386345" version="1.1" width="27.558527663350105" xmlns="http://www.w3.org/2000/svg" xmlns:ev="http://www.w3.org/2001/xml-events" xmlns:xlink="http://www.w3.org/1999/xlink"><defs /><rect fill="white" height="30.314808413386345" width="27.558527663350105" x="0" y="0" /><path d="M16.433459855616093, 20.312669426202774 m-0.40833786129951477, -0.9187601506710052 l0.0, -4.287547469139099 1.020844653248787, -2.1437737345695496 l1.1229290813207626, -1.020844653248787 2.2458581626415253, 0.10208446532487869 l0.6125067919492722, 0.8166757225990295 1.2250135838985443, 2.65419602394104 l0.3062533959746361, 2.4500271677970886 -0.3062533959746361, 2.7562806010246277 l-1.2250135838985443, 1.5312670171260834 -3.0625340342521667, 0.20416893064975739 l-0.9187601506710052, -0.8166757225990295 -0.9187601506710052, -1.9396047294139862 l0.10208446532487869, -2.5521114468574524 m-1.1229290813207626, 1.5312670171260834 l0.0, 0.0 m1.32709801197052, 0.0 l-6.737574338912964, 0.9187601506710052 m-2.1437737345695496, 1.020844653248787 l-0.3062533959746361, -0.6125067919492722 0.0, -3.1646183133125305 l0.8166757225990295, -1.32709801197052 1.8375203013420105, -0.8166757225990295 l2.347942590713501, 0.0 0.7145912200212479, 0.40833786129951477 l0.5104223266243935, 1.7354358732700348 0.0, 3.675040602684021 l-0.3062533959746361, 1.9396047294139862 -0.7145912200212479, 1.4291824400424957 l-2.041689306497574, 1.32709801197052 -2.5521114468574524, 0.10208446532487869 l-1.5312670171260834, -1.1229290813207626 -1.020844653248787, -1.633351445198059 l-0.3062533959746361, -3.0625340342521667 0.7145912200212479, -1.5312670171260834 l3.8792094588279724, -2.5521114468574524 1.8375203013420105, -0.6125067919492722 l1.4291824400424957, 0.0 m2.041689306497574, 3.675040602684021 l0.10208446532487869, -8.779264092445374 m1.32709801197052, -0.7145912200212479 l2.960449457168579, -1.4291824400424957 m-2.2458581626415253, 1.020844653248787 l-2.2458581626415253, 1.32709801197052 m0.0, -0.8166757225990295 l-0.40833786129951477, -0.7145912200212479 0.0, -3.368787169456482 m0.0, 12.86264181137085 l-0.9187601506710052, -5.716729760169983 -1.32709801197052, -2.347942590713501 m-0.6125067919492722, -0.3062533959746361 l1.32709801197052, 0.0 1.32709801197052, 0.5104223266243935 m-2.4500271677970886, -0.5104223266243935 l-0.5104223266243935, -0.5104223266243935 0.0, -0.5104223266243935 l1.32709801197052, 0.0 1.020844653248787, 0.40833786129951477 m-0.9187601506710052, 0.5104223266243935 l1.633351445198059, -0.10208446532487869 0.0, 0.3062533959746361 " fill="none" stroke="black" stroke-width="1" /></svg>