<?xml version="1.0" encoding="utf-8" ?>
<svg baseProfile="full" height="48.281673453748226" version="1.1" width="55.529671385884285" xmlns="http://www.w3.org/2000/svg" xmlns:ev="http://www.w3.org/2001/xml-events" xmlns:xlink="http://www.w3.org/1999/xlink"><defs /><rect fill="white" height="48.281673453748226" width="55.529671385884285" x="0" y="0" /><path d="M17.55639012902975, 22.354359030723572 m-3.98129403591156, -0.20416893064975739 l-1.020844653248787, 0.40833786129951477 -1.020844653248787, 0.7145912200212479 l-3.8792094588279724, 4.1854628920555115 -1.2250135838985443, 2.8583648800849915 l0.0, 5.002138614654541 1.4291824400424957, 2.1437737345695496 l1.633351445198059, 0.40833786129951477 10.9230375289917, 0.20416893064975739 l1.5312670171260834, -0.8166757225990295 1.5312670171260834, -2.4500271677970886 l0.6125067919492722, -4.389632046222687 -1.1229290813207626, -1.9396047294139862 l-0.9187601506710052, -4.083378612995148 -0.5104223266243935, -0.40833786129951477 l-4.695885181427002, -0.40833786129951477 -0.8166757225990295, -1.5312670171260834 l-0.6125067919492722, 0.0 m13.57723355293274, 0.10208446532487869 l1.5312670171260834, 0.40833786129951477 3.5729563236236572, 1.8375203013420105 l7.043827772140503, 4.79796975851059 2.7562806010246277, 2.7562806010246277 l0.6125067919492722, 1.2250135838985443 0.10208446532487869, 3.98129403591156 l-0.8166757225990295, 1.8375203013420105 -1.020844653248787, 1.32709801197052 l-2.041689306497574, 2.041689306497574 -1.633351445198059, 0.9187601506710052 l-2.7562806010246277, 0.0 -1.633351445198059, -0.9187601506710052 l-1.2250135838985443, -1.32709801197052 -2.041689306497574, -3.7771251797676086 l-1.4291824400424957, -8.064672350883484 0.0, -2.7562806010246277 l0.5104223266243935, -3.4708717465400696 1.2250135838985443, -0.3062533959746361 m18.783540725708008, -0.8166757225990295 l-28.27739715576172, -0.3062533959746361 -7.247996926307678, -0.5104223266243935 l-8.983432650566101, 0.0 -1.020844653248787, -0.10208446532487869 l3.266702890396118, -0.20416893064975739 m35.01497030258179, 0.6125067919492722 l0.40833786129951477, -15.618922710418701 0.5104223266243935, -0.3062533959746361 l3.675040602684021, -0.20416893064975739 -6.941743493080139, -0.20416893064975739 l-1.633351445198059, 1.4291824400424957 -4.287547469139099, 2.5521114468574524 l-2.347942590713501, 0.9187601506710052 -3.266702890396118, 0.5104223266243935 l-0.7145912200212479, 0.0 3.266702890396118, -2.1437737345695496 l1.2250135838985443, -1.32709801197052 " fill="none" stroke="black" stroke-width="1" /></svg>