<?xml version="1.0" encoding="utf-8" ?>
<svg baseProfile="full" height="42.36077532172203" version="1.1" width="66.65687847882509" xmlns="http://www.w3.org/2000/svg" xmlns:ev="http://www.w3.org/2001/xml-events" xmlns:xlink="http://www.w3.org/1999/xlink"><defs /><rect fill="white" height="42.36077532172203" width="66.65687847882509" x="0" y="0" /><path d="M9.695885330438614, 19.18974068015814 m2.347942590713501, -0.10208446532487869 l-1.1229290813207626, 0.20416893064975739 -3.675040602684021, 1.8375203013420105 l-1.5312670171260834, 1.1229290813207626 -0.7145912200212479, 1.633351445198059 l0.0, 4.083378612995148 1.2250135838985443, 2.041689306497574 l1.7354358732700348, 1.9396047294139862 3.368787169456482, 1.5312670171260834 l4.695885181427002, 0.10208446532487869 2.5521114468574524, -0.9187601506710052 l1.9396047294139862, -1.7354358732700348 0.8166757225990295, -1.32709801197052 l1.5312670171260834, -5.818814635276794 0.20416893064975739, -3.1646183133125305 l-1.8375203013420105, -3.0625340342521667 -0.9187601506710052, -0.9187601506710052 l-2.5521114468574524, -1.5312670171260834 -1.4291824400424957, -0.20416893064975739 l-1.1229290813207626, -0.10208446532487869 0.0, 0.6125067919492722 l1.32709801197052, 0.7145912200212479 1.8375203013420105, 0.3062533959746361 l0.40833786129951477, 0.5104223266243935 -1.8375203013420105, 2.1437737345695496 l-1.7354358732700348, 3.0625340342521667 -1.633351445198059, 5.920898914337158 l-0.20416893064975739, -3.1646183133125305 -1.2250135838985443, -3.266702890396118 l-1.1229290813207626, -1.4291824400424957 -1.4291824400424957, -0.9187601506710052 l-0.40833786129951477, 0.7145912200212479 0.20416893064975739, 0.5104223266243935 l1.4291824400424957, 1.5312670171260834 1.32709801197052, 0.6125067919492722 l9.391770362854004, 2.960449457168579 0.0, -1.1229290813207626 l-0.5104223266243935, -1.633351445198059 -0.20416893064975739, -4.593800902366638 l-14.189740419387817, 9.800108671188354 m48.38803768157959, -4.287547469139099 l-0.3062533959746361, -1.1229290813207626 -0.6125067919492722, -0.20416893064975739 l-1.1229290813207626, -0.10208446532487869 -1.32709801197052, 0.6125067919492722 l-2.2458581626415253, 2.347942590713501 -1.32709801197052, 3.0625340342521667 l-0.20416893064975739, 4.287547469139099 0.5104223266243935, 1.1229290813207626 l1.633351445198059, 0.9187601506710052 2.8583648800849915, 0.5104223266243935 l2.5521114468574524, -0.40833786129951477 2.041689306497574, -0.7145912200212479 l2.5521114468574524, -1.633351445198059 1.4291824400424957, -1.7354358732700348 l0.20416893064975739, -2.65419602394104 -1.5312670171260834, -2.347942590713501 l-0.9187601506710052, -0.6125067919492722 -3.7771251797676086, -1.020844653248787 l-3.7771251797676086, -0.10208446532487869 m1.9396047294139862, 3.368787169456482 l-2.4500271677970886, 5.30839204788208 -1.633351445198059, 2.2458581626415253 l-1.2250135838985443, 2.4500271677970886 0.5104223266243935, -0.6125067919492722 l0.7145912200212479, -2.4500271677970886 0.0, -1.7354358732700348 l-0.6125067919492722, -2.5521114468574524 -0.8166757225990295, -1.8375203013420105 l3.5729563236236572, 0.7145912200212479 4.4917163252830505, 1.7354358732700348 l2.1437737345695496, 1.2250135838985443 0.10208446532487869, -1.2250135838985443 l-1.7354358732700348, -5.206307768821716 -1.2250135838985443, 0.6125067919492722 l-5.716729760169983, 4.900054335594177 -2.960449457168579, 3.1646183133125305 m-25.316946506500244, -12.250136137008667 l15.108500719070435, -3.4708717465400696 3.7771251797676086, -4.287547469139099 l1.020844653248787, 5.002138614654541 1.020844653248787, 3.266702890396118 l3.1646183133125305, 2.8583648800849915 1.7354358732700348, 0.8166757225990295 l2.041689306497574, 1.5312670171260834 m-9.902192950248718, -16.129344701766968 l0.6125067919492722, 0.5104223266243935 -0.5104223266243935, -0.10208446532487869 l-4.695885181427002, -1.8375203013420105 10.820952653884888, 5.614645481109619 l-0.3062533959746361, -0.8166757225990295 -3.368787169456482, -1.8375203013420105 l-6.1250680685043335, -1.7354358732700348 5.512561202049255, 2.4500271677970886 l4.79796975851059, 1.2250135838985443 -2.347942590713501, -3.368787169456482 l-2.347942590713501, -1.5312670171260834 -2.5521114468574524, -0.5104223266243935 l1.020844653248787, 1.8375203013420105 2.65419602394104, 1.4291824400424957 m-14.087655544281006, 6.737574338912964 l-5.30839204788208, -12.760558128356934 -0.6125067919492722, -1.2250135838985443 l-0.6125067919492722, -0.5104223266243935 " fill="none" stroke="black" stroke-width="1" /></svg>