<?xml version="1.0" encoding="utf-8" ?>
<svg baseProfile="full" height="28.8856253772974" version="1.1" width="50.935870334506035" xmlns="http://www.w3.org/2000/svg" xmlns:ev="http://www.w3.org/2001/xml-events" xmlns:xlink="http://www.w3.org/1999/xlink"><defs /><rect fill="white" height="28.8856253772974" width="50.935870334506035" x="0" y="0" /><path d="M8.87920942157507, 15.004277341067791 m28.583650588989258, -0.10208446532487869 l0.40833786129951477, -0.5104223266243935 0.10208446532487869, -9.28968608379364 l-2.65419602394104, 0.0 6.737574338912964, -0.10208446532487869 m-3.7771251797676086, 10.514699220657349 l-1.2250135838985443, 0.3062533959746361 -2.347942590713501, 2.7562806010246277 l-0.20416893064975739, 1.7354358732700348 0.6125067919492722, 2.041689306497574 l1.020844653248787, 1.020844653248787 1.2250135838985443, 0.40833786129951477 l5.920898914337158, 0.0 1.4291824400424957, -0.40833786129951477 l1.020844653248787, -0.9187601506710052 0.20416893064975739, -0.6125067919492722 l0.0, -2.8583648800849915 -0.40833786129951477, -0.5104223266243935 l-6.329236626625061, -1.8375203013420105 -2.041689306497574, 0.0 l-3.4708717465400696, 1.1229290813207626 m-22.35649824142456, -1.4291824400424957 l-3.8792094588279724, -0.20416893064975739 -1.4291824400424957, 1.020844653248787 l-1.020844653248787, 2.8583648800849915 0.0, 3.1646183133125305 l1.020844653248787, 0.7145912200212479 2.347942590713501, 0.0 l2.960449457168579, -1.020844653248787 1.633351445198059, -1.4291824400424957 l1.020844653248787, -1.7354358732700348 0.7145912200212479, -2.65419602394104 l0.0, -1.2250135838985443 -0.20416893064975739, -0.5104223266243935 l-0.6125067919492722, -0.3062533959746361 -5.206307768821716, 0.0 l-1.633351445198059, 0.5104223266243935 m8.881348371505737, -0.40833786129951477 l0.0, -6.1250680685043335 -1.633351445198059, 0.20416893064975739 l6.1250680685043335, -0.10208446532487869 " fill="none" stroke="black" stroke-width="1" /></svg>