<?xml version="1.0" encoding="utf-8" ?>
<svg baseProfile="full" height="50.6296169385314" version="1.1" width="103.40728804469109" xmlns="http://www.w3.org/2000/svg" xmlns:ev="http://www.w3.org/2001/xml-events" xmlns:xlink="http://www.w3.org/1999/xlink"><defs /><rect fill="white" height="50.6296169385314" width="103.40728804469109" x="0" y="0" /><path d="M19.087655805051327, 21.84393722563982 m-3.266702890396118, -1.1229290813207626 l-2.4500271677970886, 0.20416893064975739 -1.4291824400424957, 0.9187601506710052 l-5.104222893714905, 4.900054335594177 -1.5312670171260834, 2.5521114468574524 l-0.3062533959746361, 1.4291824400424957 0.0, 3.368787169456482 l1.2250135838985443, 2.960449457168579 2.65419602394104, 2.347942590713501 l3.4708717465400696, 1.1229290813207626 2.1437737345695496, 0.3062533959746361 l7.247996926307678, -0.10208446532487869 0.8166757225990295, -0.3062533959746361 l1.9396047294139862, -2.041689306497574 1.020844653248787, -2.65419602394104 l0.0, -4.695885181427002 -4.1854628920555115, -8.166757225990295 l-1.020844653248787, -1.4291824400424957 -2.5521114468574524, -1.4291824400424957 m65.6403112411499, 8.983432650566101 l-1.9396047294139862, -0.6125067919492722 -5.410476326942444, -0.10208446532487869 l-2.5521114468574524, 1.020844653248787 -3.4708717465400696, 2.960449457168579 l-3.266702890396118, 3.1646183133125305 -2.5521114468574524, 3.7771251797676086 l-0.6125067919492722, 1.7354358732700348 -0.10208446532487869, 3.5729563236236572 l0.9187601506710052, 1.1229290813207626 3.368787169456482, -0.8166757225990295 l11.433459520339966, -1.2250135838985443 1.2250135838985443, -0.5104223266243935 l2.041689306497574, -1.7354358732700348 1.020844653248787, -1.020844653248787 l1.2250135838985443, -2.041689306497574 0.3062533959746361, -1.7354358732700348 l-0.3062533959746361, -2.960449457168579 -3.675040602684021, -4.083378612995148 l-4.287547469139099, -2.4500271677970886 -2.7562806010246277, -1.020844653248787 l-4.083378612995148, -0.6125067919492722 m-51.75682067871094, 9.085517525672913 l18.88562560081482, 0.0 7.4521660804748535, 0.40833786129951477 l6.022983193397522, 0.8166757225990295 27.66489028930664, 0.40833786129951477 m-35.627477169036865, -1.5312670171260834 l2.65419602394104, -6.227152347564697 2.960449457168579, -9.493855237960815 l1.32709801197052, -2.1437737345695496 1.020844653248787, -0.40833786129951477 l5.002138614654541, 0.40833786129951477 12.352219820022583, 0.0 l0.3062533959746361, 0.6125067919492722 -0.10208446532487869, 6.941743493080139 l-4.593800902366638, 15.108500719070435 m4.389632046222687, -22.764835357666016 l5.614645481109619, -2.7562806010246277 3.0625340342521667, -0.7145912200212479 l8.26884150505066, -0.20416893064975739 m-0.8166757225990295, -0.6125067919492722 l-1.020844653248787, -6.1250680685043335 -0.5104223266243935, -0.40833786129951477 l-6.227152347564697, 0.20416893064975739 m6.329236626625061, -1.020844653248787 l15.823091268539429, 0.0 " fill="none" stroke="black" stroke-width="1" /></svg>