<?xml version="1.0" encoding="utf-8" ?>
<svg baseProfile="full" height="35.31694669276476" version="1.1" width="58.08178097009659" xmlns="http://www.w3.org/2000/svg" xmlns:ev="http://www.w3.org/2001/xml-events" xmlns:xlink="http://www.w3.org/1999/xlink"><defs /><rect fill="white" height="35.31694669276476" width="58.08178097009659" x="0" y="0" /><path d="M17.352219745516777, 13.57509519904852 m-3.675040602684021, 0.6125067919492722 l-2.2458581626415253, 1.2250135838985443 -2.5521114468574524, 2.1437737345695496 l-2.347942590713501, 3.0625340342521667 -0.7145912200212479, 1.1229290813207626 l-0.8166757225990295, 2.347942590713501 2.1437737345695496, 4.287547469139099 l3.1646183133125305, 0.9187601506710052 5.716729760169983, 0.0 l1.2250135838985443, -0.10208446532487869 1.633351445198059, -1.2250135838985443 l0.8166757225990295, -1.1229290813207626 0.9187601506710052, -2.7562806010246277 l0.10208446532487869, -3.0625340342521667 -0.3062533959746361, -1.2250135838985443 l-3.266702890396118, -5.206307768821716 0.5104223266243935, -0.20416893064975739 l3.266702890396118, -0.5104223266243935 21.641905307769775, -0.5104223266243935 l-1.7354358732700348, 1.1229290813207626 -2.960449457168579, 3.1646183133125305 l-2.65419602394104, 3.8792094588279724 -1.1229290813207626, 1.020844653248787 l-2.7562806010246277, 4.900054335594177 0.40833786129951477, 1.1229290813207626 l2.347942590713501, 1.4291824400424957 2.347942590713501, 0.3062533959746361 l3.98129403591156, -0.10208446532487869 2.347942590713501, -0.5104223266243935 l3.1646183133125305, -1.8375203013420105 1.020844653248787, -1.2250135838985443 l0.20416893064975739, -0.7145912200212479 0.3062533959746361, -3.4708717465400696 l-0.5104223266243935, -2.8583648800849915 -1.1229290813207626, -2.041689306497574 l-2.2458581626415253, -2.2458581626415253 -3.1646183133125305, -1.32709801197052 l-0.3062533959746361, -0.5104223266243935 0.6125067919492722, -1.2250135838985443 l5.818814635276794, -6.022983193397522 -6.6354900598526, -1.2250135838985443 l3.1646183133125305, 0.7145912200212479 3.266702890396118, 0.3062533959746361 l6.737574338912964, 2.041689306497574 m-27.562804222106934, 4.900054335594177 l-4.695885181427002, -1.2250135838985443 -3.266702890396118, -1.8375203013420105 l3.675040602684021, -0.40833786129951477 2.7562806010246277, -0.9187601506710052 l0.40833786129951477, -0.3062533959746361 0.0, -0.5104223266243935 l-2.041689306497574, -0.8166757225990295 -8.575094938278198, 1.2250135838985443 l-1.4291824400424957, 0.40833786129951477 -0.8166757225990295, 1.020844653248787 l0.8166757225990295, 0.7145912200212479 3.4708717465400696, -0.10208446532487869 l7.4521660804748535, -1.633351445198059 " fill="none" stroke="black" stroke-width="1" /></svg>