<?xml version="1.0" encoding="utf-8" ?>
<svg baseProfile="full" height="34.19401787221432" version="1.1" width="38.27739618718624" xmlns="http://www.w3.org/2000/svg" xmlns:ev="http://www.w3.org/2001/xml-events" xmlns:xlink="http://www.w3.org/1999/xlink"><defs /><rect fill="white" height="34.19401787221432" width="38.27739618718624" x="0" y="0" /><path d="M13.779263757169247, 15.820953026413918 m-2.2458581626415253, -0.6125067919492722 l-1.020844653248787, 0.10208446532487869 -2.347942590713501, 1.32709801197052 l-2.1437737345695496, 2.4500271677970886 -0.7145912200212479, 1.5312670171260834 l-0.3062533959746361, 3.7771251797676086 0.40833786129951477, 1.8375203013420105 l1.2250135838985443, 1.633351445198059 1.5312670171260834, 1.020844653248787 l3.5729563236236572, 0.3062533959746361 3.0625340342521667, -1.9396047294139862 l1.9396047294139862, -2.041689306497574 0.5104223266243935, -2.65419602394104 l-0.10208446532487869, -5.002138614654541 -0.5104223266243935, -1.2250135838985443 l-0.8166757225990295, -0.9187601506710052 -1.8375203013420105, -0.9187601506710052 l-1.5312670171260834, -0.10208446532487869 m-2.4500271677970886, 2.5521114468574524 l0.6125067919492722, 10.514699220657349 m-4.79796975851059, -2.1437737345695496 l2.5521114468574524, -1.1229290813207626 8.983432650566101, -2.5521114468574524 m-1.32709801197052, -5.30839204788208 l-1.020844653248787, 0.40833786129951477 -7.554250359535217, 8.983432650566101 m-1.1229290813207626, -7.043827772140503 l4.593800902366638, 4.900054335594177 1.5312670171260834, 1.2250135838985443 l1.020844653248787, 0.6125067919492722 1.8375203013420105, 0.40833786129951477 m11.229290962219238, -10.9230375289917 l-2.041689306497574, 1.5312670171260834 -0.8166757225990295, 1.4291824400424957 l-0.40833786129951477, 1.633351445198059 -0.10208446532487869, 4.695885181427002 l0.8166757225990295, 1.633351445198059 1.32709801197052, 1.32709801197052 l1.633351445198059, 0.6125067919492722 3.1646183133125305, -0.10208446532487869 l1.4291824400424957, -1.020844653248787 1.1229290813207626, -1.7354358732700348 l0.6125067919492722, -2.041689306497574 0.0, -2.4500271677970886 l-2.1437737345695496, -3.675040602684021 -2.960449457168579, -2.65419602394104 l-0.9187601506710052, -0.5104223266243935 -0.7145912200212479, 0.0 m0.40833786129951477, 1.633351445198059 l0.3062533959746361, 2.65419602394104 2.041689306497574, 8.983432650566101 m-6.431320905685425, -4.79796975851059 l3.675040602684021, -0.10208446532487869 2.7562806010246277, -0.7145912200212479 l2.2458581626415253, -1.2250135838985443 m-1.32709801197052, -3.266702890396118 l-3.368787169456482, 4.79796975851059 -2.5521114468574524, 2.347942590713501 m-0.9187601506710052, -6.839659214019775 l1.2250135838985443, 0.20416893064975739 6.1250680685043335, 6.839659214019775 l1.32709801197052, 0.8166757225990295 m-20.621061325073242, -9.187601804733276 l13.373064994812012, -1.9396047294139862 3.0625340342521667, 0.0 m-9.391770362854004, 0.5104223266243935 l-0.8166757225990295, -0.3062533959746361 -1.5312670171260834, -3.4708717465400696 l4.79796975851059, -2.041689306497574 0.5104223266243935, -1.2250135838985443 l-0.40833786129951477, -0.6125067919492722 -1.8375203013420105, -0.7145912200212479 l-3.7771251797676086, 0.10208446532487869 -1.2250135838985443, 0.40833786129951477 l-1.5312670171260834, 1.020844653248787 -0.7145912200212479, 1.633351445198059 l0.7145912200212479, 0.40833786129951477 3.266702890396118, 0.5104223266243935 m6.022983193397522, 4.79796975851059 l1.1229290813207626, -4.1854628920555115 2.4500271677970886, -3.675040602684021 l0.8166757225990295, -1.9396047294139862 " fill="none" stroke="black" stroke-width="1" /></svg>