<?xml version="1.0" encoding="utf-8" ?>
<svg baseProfile="full" height="27.76269681751728" version="1.1" width="46.648322716355324" xmlns="http://www.w3.org/2000/svg" xmlns:ev="http://www.w3.org/2001/xml-events" xmlns:xlink="http://www.w3.org/1999/xlink"><defs /><rect fill="white" height="27.76269681751728" width="46.648322716355324" x="0" y="0" /><path d="M12.145912684500217, 13.881348222494125 m-1.020844653248787, -0.7145912200212479 l-1.5312670171260834, 0.0 -0.5104223266243935, 1.020844653248787 l0.10208446532487869, 0.5104223266243935 0.6125067919492722, 0.3062533959746361 l2.5521114468574524, 0.0 -0.40833786129951477, -1.020844653248787 l-0.8166757225990295, -0.3062533959746361 m-1.633351445198059, 0.3062533959746361 l1.020844653248787, 0.5104223266243935 1.020844653248787, -0.3062533959746361 l-0.5104223266243935, -0.3062533959746361 -1.2250135838985443, 0.40833786129951477 l-0.20416893064975739, -0.5104223266243935 -0.40833786129951477, 3.5729563236236572 m0.0, 0.0 l-2.041689306497574, -1.32709801197052 -1.5312670171260834, -0.20416893064975739 l0.40833786129951477, 1.020844653248787 1.32709801197052, 1.5312670171260834 l1.1229290813207626, 0.40833786129951477 1.5312670171260834, -0.20416893064975739 l-0.10208446532487869, -0.5104223266243935 -2.5521114468574524, -1.9396047294139862 l-1.020844653248787, -0.10208446532487869 -1.2250135838985443, 1.5312670171260834 l-0.10208446532487869, 1.2250135838985443 1.633351445198059, 3.368787169456482 l1.2250135838985443, 0.5104223266243935 1.7354358732700348, 0.10208446532487869 l1.9396047294139862, -0.9187601506710052 0.20416893064975739, -1.633351445198059 l-3.5729563236236572, -2.7562806010246277 m4.083378612995148, -2.8583648800849915 l0.0, 0.0 m-2.2458581626415253, 0.6125067919492722 l4.083378612995148, 0.8166757225990295 11.841797828674316, 0.5104223266243935 l9.085517525672913, 0.0 6.6354900598526, -2.960449457168579 m-9.59593951702118, 3.675040602684021 l-2.7562806010246277, 0.10208446532487869 -1.020844653248787, 0.7145912200212479 l0.10208446532487869, 2.1437737345695496 0.9187601506710052, 1.633351445198059 l2.2458581626415253, 0.10208446532487869 1.5312670171260834, -1.4291824400424957 l-0.20416893064975739, -1.5312670171260834 -2.1437737345695496, -2.1437737345695496 m3.4708717465400696, 0.20416893064975739 l-0.3062533959746361, -0.8166757225990295 0.0, -9.28968608379364 m0.20416893064975739, 0.9187601506710052 l-0.8166757225990295, -1.5312670171260834 -0.3062533959746361, 0.6125067919492722 l0.8166757225990295, 0.6125067919492722 m-0.40833786129951477, 0.5104223266243935 l5.30839204788208, -3.0625340342521667 " fill="none" stroke="black" stroke-width="1" /></svg>