<?xml version="1.0" encoding="utf-8" ?>
<svg baseProfile="full" height="32.05024417489767" version="1.1" width="54.304658100008965" xmlns="http://www.w3.org/2000/svg" xmlns:ev="http://www.w3.org/2001/xml-events" xmlns:xlink="http://www.w3.org/1999/xlink"><defs /><rect fill="white" height="32.05024417489767" width="54.304658100008965" x="0" y="0" /><path d="M20.61892256140709, 12.656334154307842 m7.860503792762756, 0.0 l5.818814635276794, -1.4291824400424957 2.5521114468574524, -0.3062533959746361 l-1.020844653248787, 2.960449457168579 -1.32709801197052, 1.9396047294139862 l-2.8583648800849915, 2.4500271677970886 -5.614645481109619, 3.5729563236236572 l-1.633351445198059, 1.633351445198059 -0.5104223266243935, 0.10208446532487869 l-1.020844653248787, -0.7145912200212479 10.310530662536621, -6.941743493080139 l-0.40833786129951477, -0.5104223266243935 -3.8792094588279724, -0.10208446532487869 l-6.839659214019775, 1.32709801197052 -0.3062533959746361, -2.5521114468574524 m-0.7145912200212479, -1.4291824400424957 l-0.6125067919492722, -5.104222893714905 1.7354358732700348, 0.40833786129951477 l2.1437737345695496, -0.3062533959746361 1.633351445198059, -1.020844653248787 l0.40833786129951477, -0.5104223266243935 0.0, -0.6125067919492722 l-1.020844653248787, -0.5104223266243935 -4.79796975851059, 0.10208446532487869 l-0.9187601506710052, 0.8166757225990295 0.0, 0.5104223266243935 l0.8166757225990295, 0.9187601506710052 m-0.20416893064975739, 5.206307768821716 l-4.083378612995148, 0.10208446532487869 -5.410476326942444, 0.8166757225990295 l-2.2458581626415253, 1.020844653248787 -1.7354358732700348, 2.041689306497574 l-1.1229290813207626, 2.4500271677970886 -0.3062533959746361, 1.4291824400424957 l-0.3062533959746361, 1.8375203013420105 0.20416893064975739, 3.368787169456482 l1.7354358732700348, 1.020844653248787 2.1437737345695496, 0.40833786129951477 l2.347942590713501, -0.10208446532487869 2.2458581626415253, -1.32709801197052 l1.1229290813207626, -1.32709801197052 2.041689306497574, -4.900054335594177 l0.0, -4.1854628920555115 -0.40833786129951477, -1.1229290813207626 l-1.5312670171260834, -0.5104223266243935 -3.675040602684021, 0.0 l1.7354358732700348, 0.7145912200212479 m23.581511974334717, -3.675040602684021 l4.287547469139099, 0.10208446532487869 -0.6125067919492722, 3.8792094588279724 l5.920898914337158, 10.412615537643433 1.2250135838985443, -2.5521114468574524 l1.5312670171260834, -5.716729760169983 0.40833786129951477, -3.7771251797676086 l-1.020844653248787, -1.2250135838985443 -1.4291824400424957, -0.7145912200212479 l-1.7354358732700348, -0.40833786129951477 -3.675040602684021, 0.0 " fill="none" stroke="black" stroke-width="1" /></svg>