<?xml version="1.0" encoding="utf-8" ?>
<svg baseProfile="full" height="38.48156467080116" version="1.1" width="57.367190420627594" xmlns="http://www.w3.org/2000/svg" xmlns:ev="http://www.w3.org/2001/xml-events" xmlns:xlink="http://www.w3.org/1999/xlink"><defs /><rect fill="white" height="38.48156467080116" width="57.367190420627594" x="0" y="0" /><path d="M7.858364917337894, 21.53768263757229 m-1.4291824400424957, 0.6125067919492722 l-1.32709801197052, 2.960449457168579 -0.10208446532487869, 3.675040602684021 l0.3062533959746361, 1.1229290813207626 1.4291824400424957, 1.9396047294139862 l1.020844653248787, 0.7145912200212479 3.5729563236236572, 0.9187601506710052 l2.4500271677970886, -0.10208446532487869 3.266702890396118, -1.9396047294139862 l1.2250135838985443, -1.9396047294139862 0.3062533959746361, -4.1854628920555115 l-0.40833786129951477, -0.7145912200212479 -3.4708717465400696, -2.4500271677970886 l-2.4500271677970886, -0.8166757225990295 -3.1646183133125305, -0.10208446532487869 l-2.2458581626415253, 0.6125067919492722 m40.01710891723633, 1.1229290813207626 l-0.7145912200212479, -0.3062533959746361 -3.0625340342521667, 0.3062533959746361 l-0.9187601506710052, 0.5104223266243935 -1.1229290813207626, 1.7354358732700348 l-0.20416893064975739, 2.65419602394104 0.3062533959746361, 1.32709801197052 l1.633351445198059, 2.2458581626415253 1.9396047294139862, 1.2250135838985443 l2.4500271677970886, 0.20416893064975739 2.8583648800849915, -0.9187601506710052 l1.633351445198059, -2.2458581626415253 0.5104223266243935, -1.4291824400424957 l0.20416893064975739, -2.1437737345695496 -0.20416893064975739, -1.2250135838985443 l-1.633351445198059, -1.8375203013420105 -1.2250135838985443, -0.7145912200212479 l-2.8583648800849915, -0.7145912200212479 -3.1646183133125305, -0.10208446532487869 m-27.460720539093018, 1.4291824400424957 l10.106362104415894, -9.391770362854004 m0.0, 0.5104223266243935 l0.6125067919492722, -2.8583648800849915 0.7145912200212479, -1.020844653248787 m-2.2458581626415253, 3.1646183133125305 l5.206307768821716, 1.1229290813207626 m-11.02512240409851, 10.412615537643433 l10.9230375289917, -0.20416893064975739 13.781402111053467, -1.2250135838985443 m-1.8375203013420105, -0.40833786129951477 l-0.8166757225990295, -0.5104223266243935 -0.20416893064975739, -0.6125067919492722 l0.0, -5.206307768821716 m1.2250135838985443, -10.61678409576416 l-1.7354358732700348, -0.8166757225990295 -1.4291824400424957, 0.10208446532487869 l-0.7145912200212479, 0.7145912200212479 -0.3062533959746361, 2.5521114468574524 l0.6125067919492722, 1.32709801197052 1.020844653248787, 0.6125067919492722 l2.65419602394104, 0.20416893064975739 1.2250135838985443, -0.20416893064975739 l0.8166757225990295, -0.8166757225990295 0.40833786129951477, -0.7145912200212479 l0.0, -2.2458581626415253 -1.9396047294139862, -1.7354358732700348 l-0.8166757225990295, -0.10208446532487869 -0.20416893064975739, 0.6125067919492722 m-1.4291824400424957, 5.716729760169983 l0.20416893064975739, 4.389632046222687 m0.3062533959746361, -0.20416893064975739 l-6.839659214019775, 6.941743493080139 -0.5104223266243935, 1.020844653248787 " fill="none" stroke="black" stroke-width="1" /></svg>