<?xml version="1.0" encoding="utf-8" ?>
<svg baseProfile="full" height="34.398186802864075" version="1.1" width="38.4815651550889" xmlns="http://www.w3.org/2000/svg" xmlns:ev="http://www.w3.org/2001/xml-events" xmlns:xlink="http://www.w3.org/1999/xlink"><defs /><rect fill="white" height="34.398186802864075" width="38.4815651550889" x="0" y="0" /><path d="M8.266702815890312, 19.80224721133709 m-1.020844653248787, 1.020844653248787 l-2.2458581626415253, 4.79796975851059 0.10208446532487869, 0.7145912200212479 l1.32709801197052, 1.5312670171260834 2.8583648800849915, 1.1229290813207626 l1.633351445198059, 0.40833786129951477 1.5312670171260834, 0.0 l0.8166757225990295, -0.20416893064975739 1.9396047294139862, -1.8375203013420105 l1.633351445198059, -4.900054335594177 -0.10208446532487869, -2.4500271677970886 l-0.7145912200212479, -1.32709801197052 -2.347942590713501, -1.9396047294139862 l-1.2250135838985443, -0.40833786129951477 -1.7354358732700348, -0.10208446532487869 l-1.7354358732700348, 0.6125067919492722 -1.8375203013420105, 1.4291824400424957 l-0.8166757225990295, 1.1229290813207626 -0.5104223266243935, 1.5312670171260834 m4.79796975851059, -3.368787169456482 l10.514699220657349, 0.0 2.8583648800849915, 0.40833786129951477 l0.10208446532487869, 0.20416893064975739 m6.533405780792236, 0.8166757225990295 l-3.8792094588279724, 0.10208446532487869 -3.8792094588279724, 2.1437737345695496 l-1.2250135838985443, 1.4291824400424957 0.0, 1.5312670171260834 l1.020844653248787, 1.32709801197052 3.4708717465400696, 0.9187601506710052 l3.98129403591156, 0.3062533959746361 2.041689306497574, -0.7145912200212479 l0.8166757225990295, -1.1229290813207626 0.5104223266243935, -1.7354358732700348 l-0.10208446532487869, -3.0625340342521667 -1.32709801197052, -2.1437737345695496 l-1.2250135838985443, -0.8166757225990295 -2.7562806010246277, 0.0 l-3.1646183133125305, 0.7145912200212479 -3.1646183133125305, 1.5312670171260834 m6.022983193397522, -1.2250135838985443 l0.10208446532487869, -0.7145912200212479 -0.8166757225990295, -4.389632046222687 l-3.368787169456482, -2.347942590713501 -2.5521114468574524, -0.10208446532487869 l-1.633351445198059, 0.40833786129951477 m6.329236626625061, 0.7145912200212479 l2.347942590713501, -4.083378612995148 0.6125067919492722, -2.65419602394104 m-11.433459520339966, 11.943882703781128 l-1.7354358732700348, -3.98129403591156 " fill="none" stroke="black" stroke-width="1" /></svg>