<?xml version="1.0" encoding="utf-8" ?>
<svg baseProfile="full" height="29.089794643223286" version="1.1" width="44.50454827398062" xmlns="http://www.w3.org/2000/svg" xmlns:ev="http://www.w3.org/2001/xml-events" xmlns:xlink="http://www.w3.org/1999/xlink"><defs /><rect fill="white" height="29.089794643223286" width="44.50454827398062" x="0" y="0" /><path d="M9.900054261088371, 14.902193024754524 m-1.1229290813207626, -0.10208446532487869 l-1.1229290813207626, 0.5104223266243935 -2.4500271677970886, 2.8583648800849915 l-0.20416893064975739, 1.4291824400424957 0.3062533959746361, 1.2250135838985443 l1.4291824400424957, 2.1437737345695496 0.6125067919492722, 0.5104223266243935 l1.8375203013420105, 0.6125067919492722 2.5521114468574524, -0.20416893064975739 l3.266702890396118, -1.2250135838985443 2.041689306497574, -1.5312670171260834 l1.2250135838985443, -2.65419602394104 -0.20416893064975739, -1.5312670171260834 l-0.6125067919492722, -1.4291824400424957 -1.8375203013420105, -1.32709801197052 l-3.266702890396118, -1.020844653248787 -1.1229290813207626, 0.0 m-1.4291824400424957, 1.2250135838985443 l2.2458581626415253, 4.287547469139099 0.3062533959746361, -1.020844653248787 l3.1646183133125305, -3.5729563236236572 -0.3062533959746361, 0.5104223266243935 l-1.2250135838985443, 0.6125067919492722 m-1.633351445198059, 3.0625340342521667 l0.8166757225990295, 1.32709801197052 1.5312670171260834, 0.8166757225990295 l0.8166757225990295, 1.1229290813207626 -2.5521114468574524, -2.960449457168579 l-1.1229290813207626, -0.40833786129951477 -4.389632046222687, 4.389632046222687 m28.685734272003174, -8.166757225990295 l-0.3062533959746361, -0.5104223266243935 -0.5104223266243935, -0.10208446532487869 l-2.7562806010246277, 0.3062533959746361 -2.7562806010246277, 1.020844653248787 l-2.1437737345695496, 1.633351445198059 -0.40833786129951477, 1.1229290813207626 l0.5104223266243935, 1.9396047294139862 1.32709801197052, 1.4291824400424957 l1.4291824400424957, 0.6125067919492722 4.1854628920555115, -0.20416893064975739 l2.041689306497574, -0.5104223266243935 1.7354358732700348, -1.020844653248787 l0.9187601506710052, -1.4291824400424957 0.10208446532487869, -1.2250135838985443 l-0.8166757225990295, -1.4291824400424957 -4.1854628920555115, -1.8375203013420105 m-3.0625340342521667, 0.40833786129951477 l3.8792094588279724, 5.002138614654541 0.5104223266243935, 0.5104223266243935 l-0.6125067919492722, -1.1229290813207626 m-0.3062533959746361, -0.7145912200212479 l2.041689306497574, -1.9396047294139862 0.40833786129951477, -0.5104223266243935 l-0.5104223266243935, 0.10208446532487869 -2.65419602394104, 2.041689306497574 l-3.266702890396118, 1.633351445198059 -2.041689306497574, 1.5312670171260834 m-15.51683783531189, -8.575094938278198 l2.041689306497574, -0.8166757225990295 5.920898914337158, -4.287547469139099 l1.633351445198059, 0.10208446532487869 0.5104223266243935, -0.40833786129951477 l0.0, -1.2250135838985443 -0.5104223266243935, -0.7145912200212479 l-3.0625340342521667, -0.20416893064975739 4.389632046222687, 0.20416893064975739 l-3.266702890396118, 0.7145912200212479 2.65419602394104, -0.40833786129951477 l-3.98129403591156, 1.2250135838985443 1.020844653248787, 0.20416893064975739 l3.266702890396118, -0.7145912200212479 " fill="none" stroke="black" stroke-width="1" /></svg>