<?xml version="1.0" encoding="utf-8" ?>
<svg baseProfile="full" height="35.62320087105036" version="1.1" width="55.835923440754414" xmlns="http://www.w3.org/2000/svg" xmlns:ev="http://www.w3.org/2001/xml-events" xmlns:xlink="http://www.w3.org/1999/xlink"><defs /><rect fill="white" height="35.62320087105036" width="55.835923440754414" x="0" y="0" /><path d="M10.716728381812572, 11.431322433054447 m14.700162410736084, 0.20416893064975739 m0.5104223266243935, 0.10208446532487869 l0.40833786129951477, 1.020844653248787 0.3062533959746361, 2.7562806010246277 l0.20416893064975739, 8.370925784111023 m-15.006415843963623, -12.148051261901855 l2.2458581626415253, 2.7562806010246277 3.266702890396118, 2.960449457168579 l4.900054335594177, 3.1646183133125305 3.8792094588279724, 1.633351445198059 m0.9187601506710052, -9.800108671188354 l10.61678409576416, 7.758418917655945 2.4500271677970886, 1.1229290813207626 l0.7145912200212479, 0.0 m-13.168895244598389, 0.7145912200212479 l14.598078727722168, 0.10208446532487869 m-6.227152347564697, 5.30839204788208 l-1.7354358732700348, -2.8583648800849915 -0.5104223266243935, -3.7771251797676086 l0.8166757225990295, -1.7354358732700348 3.266702890396118, -2.5521114468574524 l2.65419602394104, -0.8166757225990295 3.7771251797676086, -0.5104223266243935 l1.5312670171260834, 0.0 1.4291824400424957, 0.6125067919492722 l1.020844653248787, 0.9187601506710052 0.9187601506710052, 1.5312670171260834 l1.5312670171260834, 3.8792094588279724 0.10208446532487869, 2.4500271677970886 l-0.6125067919492722, 1.8375203013420105 -1.020844653248787, 1.4291824400424957 l-1.4291824400424957, 1.1229290813207626 -2.5521114468574524, 1.32709801197052 l-4.1854628920555115, 0.3062533959746361 -1.2250135838985443, -0.7145912200212479 l-2.4500271677970886, -2.2458581626415253 -1.633351445198059, -2.960449457168579 m-10.9230375289917, -14.291825294494629 l0.5104223266243935, -1.1229290813207626 0.9187601506710052, -0.40833786129951477 l3.266702890396118, 0.0 0.6125067919492722, 0.3062533959746361 l0.10208446532487869, 0.5104223266243935 -0.8166757225990295, 0.9187601506710052 l-3.98129403591156, -0.10208446532487869 m-11.127206087112427, -5.512561202049255 l-3.98129403591156, 5.410476326942444 -2.1437737345695496, 3.7771251797676086 l-3.0625340342521667, 7.1459126472473145 -0.10208446532487869, -1.2250135838985443 m1.32709801197052, -14.904332160949707 l11.535544395446777, 0.10208446532487869 " fill="none" stroke="black" stroke-width="1" /></svg>