<?xml version="1.0" encoding="utf-8" ?>
<svg baseProfile="full" height="40.421170480549335" version="1.1" width="70.02566404640675" xmlns="http://www.w3.org/2000/svg" xmlns:ev="http://www.w3.org/2001/xml-events" xmlns:xlink="http://www.w3.org/1999/xlink"><defs /><rect fill="white" height="40.421170480549335" width="70.02566404640675" x="0" y="0" /><path d="M25.825230330228806, 15.514700040221214 m-2.041689306497574, -1.4291824400424957 l-3.675040602684021, -1.020844653248787 -7.043827772140503, 0.20416893064975739 l-4.900054335594177, 1.8375203013420105 -1.8375203013420105, 1.5312670171260834 l-0.7145912200212479, 1.2250135838985443 -0.40833786129951477, 1.8375203013420105 l-0.20416893064975739, 4.389632046222687 0.6125067919492722, 2.347942590713501 l2.2458581626415253, 4.1854628920555115 3.266702890396118, 3.266702890396118 l2.041689306497574, 1.020844653248787 1.9396047294139862, 0.5104223266243935 l2.65419602394104, 0.0 2.65419602394104, -0.7145912200212479 l4.593800902366638, -3.4708717465400696 2.960449457168579, -4.389632046222687 l0.6125067919492722, -1.7354358732700348 0.40833786129951477, -1.7354358732700348 l0.0, -4.083378612995148 -1.2250135838985443, -1.5312670171260834 l-1.633351445198059, -1.020844653248787 -3.0625340342521667, -0.8166757225990295 m35.627477169036865, 1.1229290813207626 l-1.4291824400424957, -0.7145912200212479 -2.041689306497574, -0.40833786129951477 l-5.716729760169983, 0.10208446532487869 -2.1437737345695496, 1.4291824400424957 l-2.041689306497574, 2.041689306497574 -1.8375203013420105, 2.4500271677970886 l-1.8375203013420105, 4.4917163252830505 -0.20416893064975739, 1.633351445198059 l0.0, 1.4291824400424957 1.32709801197052, 2.347942590713501 l1.32709801197052, 0.9187601506710052 2.347942590713501, 0.40833786129951477 l2.7562806010246277, 0.0 6.022983193397522, -1.020844653248787 l3.0625340342521667, -1.1229290813207626 4.593800902366638, -2.65419602394104 l2.1437737345695496, -2.65419602394104 0.0, -2.1437737345695496 l-0.6125067919492722, -0.9187601506710052 -3.98129403591156, -3.4708717465400696 l-2.347942590713501, -1.7354358732700348 -2.347942590713501, -1.2250135838985443 l-2.1437737345695496, -0.8166757225990295 -1.32709801197052, -0.10208446532487869 m-30.21700143814087, -0.8166757225990295 l13.98557186126709, 0.8166757225990295 12.352219820022583, 0.10208446532487869 l0.8166757225990295, -0.10208446532487869 0.10208446532487869, -0.3062533959746361 m-1.9396047294139862, 0.40833786129951477 l-0.7145912200212479, 0.10208446532487869 -0.7145912200212479, -0.40833786129951477 l-0.40833786129951477, -0.8166757225990295 -0.20416893064975739, -3.98129403591156 m0.6125067919492722, 0.20416893064975739 l-1.9396047294139862, -0.20416893064975739 -4.083378612995148, 0.3062533959746361 l-1.5312670171260834, -0.40833786129951477 0.0, -0.6125067919492722 l1.32709801197052, -0.6125067919492722 7.96258807182312, -0.5104223266243935 l-0.5104223266243935, 0.5104223266243935 -6.6354900598526, 1.1229290813207626 m-17.966865301132202, 4.389632046222687 l0.7145912200212479, -9.493855237960815 " fill="none" stroke="black" stroke-width="1" /></svg>