<?xml version="1.0" encoding="utf-8" ?>
<svg baseProfile="full" height="42.97328170388937" version="1.1" width="51.44629318267107" xmlns="http://www.w3.org/2000/svg" xmlns:ev="http://www.w3.org/2001/xml-events" xmlns:xlink="http://www.w3.org/1999/xlink"><defs /><rect fill="white" height="42.97328170388937" width="51.44629318267107" x="0" y="0" /><path d="M10.410476475954056, 22.96686563640833 m-2.347942590713501, 0.7145912200212479 l-2.65419602394104, 2.7562806010246277 -0.40833786129951477, 3.98129403591156 l0.40833786129951477, 2.2458581626415253 0.6125067919492722, 1.4291824400424957 l1.1229290813207626, 1.4291824400424957 1.8375203013420105, 1.5312670171260834 l2.960449457168579, 0.9187601506710052 1.9396047294139862, 0.0 l0.7145912200212479, -0.20416893064975739 2.65419602394104, -2.960449457168579 l2.041689306497574, -3.98129403591156 0.0, -2.4500271677970886 l-0.6125067919492722, -2.4500271677970886 -1.2250135838985443, -1.5312670171260834 l-1.7354358732700348, -0.9187601506710052 -4.900054335594177, -0.40833786129951477 l-0.8166757225990295, 0.10208446532487869 m9.085517525672913, 4.287547469139099 l10.820952653884888, -9.187601804733276 2.7562806010246277, -1.9396047294139862 l1.32709801197052, -1.7354358732700348 m-21.641905307769775, 8.370925784111023 l0.0, 0.0 m3.0625340342521667, 0.8166757225990295 l-1.32709801197052, -10.004277229309082 m-4.593800902366638, 1.1229290813207626 l6.329236626625061, -0.8166757225990295 11.637629270553589, -0.20416893064975739 l5.206307768821716, -0.6125067919492722 6.329236626625061, -0.20416893064975739 l2.4500271677970886, -0.5104223266243935 1.32709801197052, 0.0 l-0.5104223266243935, 0.3062533959746361 m-14.189740419387817, 2.041689306497574 l4.593800902366638, 4.695885181427002 1.8375203013420105, 1.2250135838985443 l1.7354358732700348, 1.7354358732700348 4.1854628920555115, 2.8583648800849915 l2.4500271677970886, 1.2250135838985443 m0.10208446532487869, -14.393908977508545 l-0.3062533959746361, -5.920898914337158 m3.7771251797676086, -1.32709801197052 l-7.4521660804748535, 0.8166757225990295 -6.022983193397522, 0.0 " fill="none" stroke="black" stroke-width="1" /></svg>