<?xml version="1.0" encoding="utf-8" ?>
<svg baseProfile="full" height="48.58792580664158" version="1.1" width="94.62801866233349" xmlns="http://www.w3.org/2000/svg" xmlns:ev="http://www.w3.org/2001/xml-events" xmlns:xlink="http://www.w3.org/1999/xlink"><defs /><rect fill="white" height="48.58792580664158" width="94.62801866233349" x="0" y="0" /><path d="M25.518974885344505, 19.598076716065407 m-3.98129403591156, -0.3062533959746361 l-4.083378612995148, 1.020844653248787 -4.083378612995148, 2.1437737345695496 l-3.5729563236236572, 2.960449457168579 -2.960449457168579, 4.389632046222687 l-0.7145912200212479, 2.041689306497574 -0.20416893064975739, 3.4708717465400696 l0.6125067919492722, 0.9187601506710052 0.6125067919492722, 2.041689306497574 l1.8375203013420105, 2.4500271677970886 2.041689306497574, 1.8375203013420105 l1.633351445198059, 0.7145912200212479 1.5312670171260834, 0.3062533959746361 l2.65419602394104, 0.0 7.4521660804748535, -2.2458581626415253 l3.266702890396118, -1.7354358732700348 2.041689306497574, -1.7354358732700348 l2.2458581626415253, -2.4500271677970886 1.2250135838985443, -2.5521114468574524 l0.40833786129951477, -3.5729563236236572 -0.7145912200212479, -2.4500271677970886 l-1.8375203013420105, -2.960449457168579 -1.8375203013420105, -1.8375203013420105 l-1.9396047294139862, -1.1229290813207626 -3.368787169456482, -1.020844653248787 l-1.9396047294139862, 0.0 m56.75896167755127, -2.65419602394104 l-0.6125067919492722, -0.3062533959746361 -1.7354358732700348, 0.0 l-2.5521114468574524, 0.5104223266243935 -3.368787169456482, 2.041689306497574 l-2.041689306497574, 2.1437737345695496 -2.65419602394104, 4.79796975851059 l-1.4291824400424957, 4.593800902366638 0.40833786129951477, 3.7771251797676086 l1.32709801197052, 2.65419602394104 2.347942590713501, 2.2458581626415253 l3.0625340342521667, 1.1229290813207626 3.5729563236236572, 0.40833786129951477 l3.675040602684021, -0.10208446532487869 2.2458581626415253, -0.40833786129951477 l5.716729760169983, -2.4500271677970886 2.65419602394104, -3.8792094588279724 l0.40833786129951477, -2.1437737345695496 0.0, -1.633351445198059 l-0.7145912200212479, -2.4500271677970886 -1.8375203013420105, -2.65419602394104 l-3.675040602684021, -3.368787169456482 -3.266702890396118, -1.633351445198059 l-2.7562806010246277, -0.7145912200212479 m-5.716729760169983, 1.8375203013420105 l11.739712953567505, 17.762696743011475 m-11.229290962219238, -0.6125067919492722 l0.0, -0.9187601506710052 1.4291824400424957, -3.1646183133125305 l5.002138614654541, -9.698023796081543 2.347942590713501, -3.675040602684021 m-2.960449457168579, -1.1229290813207626 l-3.266702890396118, 22.458581924438477 m-8.166757225990295, -12.148051261901855 l2.347942590713501, -0.8166757225990295 1.7354358732700348, -0.10208446532487869 l6.329236626625061, 0.3062533959746361 8.473010659217834, 1.2250135838985443 l2.960449457168579, 1.1229290813207626 m-76.35917663574219, -7.656334638595581 l5.716729760169983, 3.5729563236236572 5.920898914337158, 4.695885181427002 l4.083378612995148, 4.4917163252830505 0.3062533959746361, 1.8375203013420105 m-19.60021734237671, 2.041689306497574 l-0.3062533959746361, -0.40833786129951477 2.041689306497574, -2.960449457168579 l5.206307768821716, -5.716729760169983 7.043827772140503, -6.431320905685425 l3.0625340342521667, -2.1437737345695496 m-6.6354900598526, -2.5521114468574524 l-1.2250135838985443, 5.614645481109619 -0.8166757225990295, 6.1250680685043335 l-0.40833786129951477, 10.106362104415894 m-11.433459520339966, -9.187601804733276 l1.9396047294139862, -0.7145912200212479 4.695885181427002, -0.20416893064975739 l8.779264092445374, 0.5104223266243935 12.964726686477661, -0.3062533959746361 m-3.5729563236236572, -10.310530662536621 l2.041689306497574, -0.3062533959746361 2.4500271677970886, 0.0 l28.27739715576172, 0.9187601506710052 4.083378612995148, -0.40833786129951477 l2.65419602394104, -0.6125067919492722 m-28.583650588989258, 1.2250135838985443 l-0.3062533959746361, -1.5312670171260834 -0.20416893064975739, -6.1250680685043335 l0.3062533959746361, -4.083378612995148 0.6125067919492722, -1.8375203013420105 l1.8375203013420105, -2.347942590713501 2.347942590713501, -1.633351445198059 l2.5521114468574524, -0.9187601506710052 1.7354358732700348, 0.0 l1.5312670171260834, 0.7145912200212479 1.5312670171260834, 2.041689306497574 l0.40833786129951477, 2.1437737345695496 0.0, 1.633351445198059 l-4.1854628920555115, 13.168895244598389 m-33.381619453430176, -4.083378612995148 l-1.1229290813207626, -1.8375203013420105 1.020844653248787, -8.779264092445374 l-0.9187601506710052, -2.4500271677970886 -1.5312670171260834, -1.5312670171260834 " fill="none" stroke="black" stroke-width="1" /></svg>