<?xml version="1.0" encoding="utf-8" ?>
<svg baseProfile="full" height="52.87547539919615" version="1.1" width="72.06735391169786" xmlns="http://www.w3.org/2000/svg" xmlns:ev="http://www.w3.org/2001/xml-events" xmlns:xlink="http://www.w3.org/1999/xlink"><defs /><rect fill="white" height="52.87547539919615" width="72.06735391169786" x="0" y="0" /><path d="M13.473010323941708, 24.600217938423157 m-2.8583648800849915, 1.7354358732700348 l-2.347942590713501, 2.5521114468574524 -2.1437737345695496, 3.0625340342521667 l-1.020844653248787, 3.368787169456482 -0.10208446532487869, 3.4708717465400696 l0.40833786129951477, 3.266702890396118 1.7354358732700348, 2.5521114468574524 l2.4500271677970886, 1.7354358732700348 2.960449457168579, 1.2250135838985443 l3.266702890396118, 0.3062533959746361 3.4708717465400696, -0.20416893064975739 l3.4708717465400696, -1.4291824400424957 3.0625340342521667, -2.4500271677970886 l2.4500271677970886, -2.5521114468574524 1.633351445198059, -2.7562806010246277 l0.7145912200212479, -2.7562806010246277 0.0, -2.960449457168579 l-0.40833786129951477, -2.7562806010246277 -1.32709801197052, -2.041689306497574 l-1.7354358732700348, -1.633351445198059 -2.1437737345695496, -1.2250135838985443 l-4.900054335594177, -1.1229290813207626 -4.389632046222687, -0.20416893064975739 l0.0, 0.5104223266243935 3.368787169456482, 0.6125067919492722 l7.350081205368042, 0.0 14.802247285842896, -1.020844653248787 l15.414754152297974, -0.40833786129951477 -4.695885181427002, 0.10208446532487869 l-5.206307768821716, 4.79796975851059 -1.633351445198059, 2.4500271677970886 l-1.2250135838985443, 2.65419602394104 -0.5104223266243935, 2.5521114468574524 l0.0, 2.4500271677970886 1.020844653248787, 2.1437737345695496 l1.633351445198059, 1.7354358732700348 2.2458581626415253, 1.4291824400424957 l2.7562806010246277, 1.020844653248787 6.329236626625061, 0.3062533959746361 l3.1646183133125305, -0.9187601506710052 2.7562806010246277, -1.5312670171260834 l3.5729563236236572, -4.389632046222687 0.20416893064975739, -2.1437737345695496 l-2.041689306497574, -5.30839204788208 -2.1437737345695496, -2.2458581626415253 l-2.5521114468574524, -2.041689306497574 -3.1646183133125305, -1.633351445198059 l-6.839659214019775, -2.041689306497574 -3.675040602684021, -0.40833786129951477 m-27.256550788879395, 0.9187601506710052 l-0.6125067919492722, -0.6125067919492722 -0.10208446532487869, -1.32709801197052 l0.6125067919492722, -2.65419602394104 1.5312670171260834, -3.7771251797676086 l0.6125067919492722, -3.7771251797676086 -0.3062533959746361, -3.5729563236236572 l-1.32709801197052, -1.1229290813207626 -10.20844578742981, -0.8166757225990295 l2.5521114468574524, 0.8166757225990295 3.8792094588279724, 0.0 l22.764835357666016, -1.5312670171260834 " fill="none" stroke="black" stroke-width="1" /></svg>