<?xml version="1.0" encoding="utf-8" ?>
<svg baseProfile="full" height="26.639767587184906" version="1.1" width="28.477287366986275" xmlns="http://www.w3.org/2000/svg" xmlns:ev="http://www.w3.org/2001/xml-events" xmlns:xlink="http://www.w3.org/1999/xlink"><defs /><rect fill="white" height="26.639767587184906" width="28.477287366986275" x="0" y="0" /><path d="M20.925175733864307, 13.575095310807228 m-1.1229290813207626, 0.0 l-1.5312670171260834, 1.5312670171260834 -0.5104223266243935, 3.1646183133125305 l0.10208446532487869, 1.4291824400424957 0.6125067919492722, 1.1229290813207626 l0.8166757225990295, 0.6125067919492722 1.020844653248787, 0.10208446532487869 l2.041689306497574, -1.1229290813207626 0.6125067919492722, -1.1229290813207626 l0.5104223266243935, -2.7562806010246277 0.0, -1.1229290813207626 l-0.3062533959746361, -0.6125067919492722 -1.9396047294139862, -0.6125067919492722 l-5.716729760169983, 0.5104223266243935 m-8.064672350883484, -1.5312670171260834 l-0.9187601506710052, 0.0 -0.6125067919492722, 0.40833786129951477 l-0.5104223266243935, 1.1229290813207626 -0.40833786129951477, 2.8583648800849915 l0.10208446532487869, 1.32709801197052 1.4291824400424957, 2.347942590713501 l1.020844653248787, 0.40833786129951477 1.020844653248787, 0.0 l0.9187601506710052, -0.5104223266243935 0.6125067919492722, -0.8166757225990295 l0.40833786129951477, -2.1437737345695496 -0.8166757225990295, -1.7354358732700348 l-1.8375203013420105, -0.7145912200212479 -1.633351445198059, 0.0 l-0.8166757225990295, 0.3062533959746361 m5.104222893714905, 2.65419602394104 l4.287547469139099, -0.7145912200212479 2.960449457168579, -1.020844653248787 l0.20416893064975739, -0.40833786129951477 m0.0, -2.5521114468574524 l-0.6125067919492722, -7.1459126472473145 -4.695885181427002, 0.6125067919492722 l3.675040602684021, 0.0 0.10208446532487869, -1.32709801197052 l-1.633351445198059, -0.9187601506710052 -4.1854628920555115, -0.20416893064975739 m0.10208446532487869, 5.512561202049255 l0.8166757225990295, 6.533405780792236 m-2.2458581626415253, -6.227152347564697 l-3.4708717465400696, 0.0 2.4500271677970886, -0.5104223266243935 l3.266702890396118, -1.32709801197052 -2.960449457168579, 1.4291824400424957 l-1.9396047294139862, 1.633351445198059 " fill="none" stroke="black" stroke-width="1" /></svg>