<?xml version="1.0" encoding="utf-8" ?>
<svg baseProfile="full" height="24.802246540784836" version="1.1" width="35.82736939191818" xmlns="http://www.w3.org/2000/svg" xmlns:ev="http://www.w3.org/2001/xml-events" xmlns:xlink="http://www.w3.org/1999/xlink"><defs /><rect fill="white" height="24.802246540784836" width="35.82736939191818" x="0" y="0" /><path d="M9.185462929308414, 14.49385441839695 m-1.8375203013420105, 0.0 l-1.1229290813207626, 0.6125067919492722 -1.1229290813207626, 2.041689306497574 l-0.10208446532487869, 1.8375203013420105 0.7145912200212479, 0.5104223266243935 l1.8375203013420105, 0.3062533959746361 3.4708717465400696, -0.20416893064975739 l0.9187601506710052, -0.40833786129951477 1.5312670171260834, -1.4291824400424957 l0.6125067919492722, -2.2458581626415253 -1.020844653248787, -1.1229290813207626 l-2.2458581626415253, -0.9187601506710052 -2.347942590713501, -0.3062533959746361 m19.804385900497437, -0.3062533959746361 l-1.5312670171260834, 0.20416893064975739 -1.5312670171260834, 1.020844653248787 l-0.7145912200212479, 1.32709801197052 0.0, 2.041689306497574 l1.020844653248787, 1.020844653248787 1.5312670171260834, 0.3062533959746361 l1.633351445198059, -0.20416893064975739 1.7354358732700348, -0.8166757225990295 m-1.8375203013420105, -5.206307768821716 l1.633351445198059, 1.32709801197052 0.6125067919492722, 1.2250135838985443 l0.0, 1.32709801197052 -0.9187601506710052, 0.8166757225990295 m-18.068950176239014, -3.98129403591156 l4.287547469139099, -6.227152347564697 0.5104223266243935, -0.3062533959746361 l2.347942590713501, -0.20416893064975739 3.368787169456482, 0.0 l2.4500271677970886, 0.3062533959746361 0.40833786129951477, 0.5104223266243935 l1.4291824400424957, 6.1250680685043335 m-1.4291824400424957, -6.737574338912964 l1.32709801197052, -1.32709801197052 m-1.32709801197052, 1.5312670171260834 l2.1437737345695496, 1.020844653248787 m-10.412615537643433, -0.9187601506710052 l-0.10208446532487869, -0.6125067919492722 1.633351445198059, -1.4291824400424957 " fill="none" stroke="black" stroke-width="1" /></svg>