<?xml version="1.0" encoding="utf-8" ?>
<svg baseProfile="full" height="31.1314844340086" version="1.1" width="35.31694758683443" xmlns="http://www.w3.org/2000/svg" xmlns:ev="http://www.w3.org/2001/xml-events" xmlns:xlink="http://www.w3.org/1999/xlink"><defs /><rect fill="white" height="31.1314844340086" width="35.31694758683443" x="0" y="0" /><path d="M5, 5.714591220021248 m3.1646183133125305, -0.7145912200212479 l8.779264092445374, 0.10208446532487869 m-8.779264092445374, 1.1229290813207626 l1.2250135838985443, 9.085517525672913 0.9187601506710052, 2.8583648800849915 l0.5104223266243935, 0.3062533959746361 2.2458581626415253, 0.20416893064975739 l4.593800902366638, 0.0 8.881348371505737, -1.4291824400424957 m-15.414754152297974, 3.0625340342521667 l-0.7145912200212479, 0.20416893064975739 -2.8583648800849915, 2.347942590713501 l-0.9187601506710052, 1.5312670171260834 0.40833786129951477, 1.020844653248787 l3.266702890396118, 0.10208446532487869 1.7354358732700348, -0.40833786129951477 l1.5312670171260834, -1.1229290813207626 1.2250135838985443, -2.5521114468574524 l0.10208446532487869, -1.020844653248787 -0.10208446532487869, -1.020844653248787 l-1.1229290813207626, -0.7145912200212479 -1.7354358732700348, -0.40833786129951477 l-4.1854628920555115, 0.20416893064975739 -0.6125067919492722, 0.8166757225990295 l0.0, 0.7145912200212479 m19.906470775604248, -0.6125067919492722 l-0.9187601506710052, -0.5104223266243935 -3.7771251797676086, -0.5104223266243935 l-0.9187601506710052, 0.0 -0.9187601506710052, 0.5104223266243935 l-0.6125067919492722, 1.1229290813207626 -0.40833786129951477, 2.4500271677970886 l0.0, 1.4291824400424957 0.6125067919492722, 1.020844653248787 l1.2250135838985443, 0.8166757225990295 1.4291824400424957, 0.40833786129951477 l3.1646183133125305, 0.0 1.32709801197052, -0.7145912200212479 l2.041689306497574, -2.2458581626415253 1.020844653248787, -2.041689306497574 l0.0, -1.4291824400424957 -0.40833786129951477, -0.7145912200212479 l-2.041689306497574, -0.9187601506710052 -3.0625340342521667, -0.5104223266243935 m-7.350081205368042, 1.020844653248787 l-0.10208446532487869, 3.675040602684021 m-0.6125067919492722, 1.5312670171260834 l-2.347942590713501, -0.20416893064975739 3.7771251797676086, 0.20416893064975739 l-0.7145912200212479, -0.3062533959746361 -2.1437737345695496, -0.10208446532487869 l3.8792094588279724, -0.10208446532487869 -4.083378612995148, -0.3062533959746361 l-1.8375203013420105, 0.3062533959746361 -0.5104223266243935, 0.3062533959746361 l0.5104223266243935, 0.20416893064975739 3.5729563236236572, 0.0 l1.9396047294139862, -0.5104223266243935 -2.1437737345695496, -0.40833786129951477 l-2.347942590713501, 0.0 " fill="none" stroke="black" stroke-width="1" /></svg>