<?xml version="1.0" encoding="utf-8" ?>
<svg baseProfile="full" height="43.78995779901743" version="1.1" width="77.57991511374712" xmlns="http://www.w3.org/2000/svg" xmlns:ev="http://www.w3.org/2001/xml-events" xmlns:xlink="http://www.w3.org/1999/xlink"><defs /><rect fill="white" height="43.78995779901743" width="77.57991511374712" x="0" y="0" /><path d="M6.020844653248787, 22.966866232454777 m-0.6125067919492722, 0.9187601506710052 l-0.40833786129951477, 10.61678409576416 0.5104223266243935, 1.4291824400424957 l2.5521114468574524, 1.9396047294139862 1.8375203013420105, 0.7145912200212479 l2.041689306497574, 0.20416893064975739 2.041689306497574, -0.10208446532487869 l1.9396047294139862, -1.020844653248787 1.5312670171260834, -1.4291824400424957 l1.020844653248787, -2.041689306497574 0.0, -5.512561202049255 l-1.633351445198059, -4.1854628920555115 -1.5312670171260834, -1.1229290813207626 l-4.083378612995148, -0.20416893064975739 -4.900054335594177, 1.020844653248787 m10.310530662536621, 0.0 l5.818814635276794, -1.4291824400424957 4.900054335594177, -0.7145912200212479 l16.94602131843567, -0.20416893064975739 6.6354900598526, 0.40833786129951477 l3.1646183133125305, 0.5104223266243935 5.920898914337158, 1.2250135838985443 l6.839659214019775, 1.9396047294139862 m-48.28595161437988, 7.96258807182312 l8.983432650566101, 0.5104223266243935 12.454304695129395, -1.633351445198059 l11.02512240409851, -0.3062533959746361 0.40833786129951477, -0.3062533959746361 m18.27311873435974, -6.839659214019775 l-0.3062533959746361, -0.6125067919492722 -3.5729563236236572, -1.633351445198059 l-4.287547469139099, -0.5104223266243935 -2.65419602394104, 0.3062533959746361 l-4.79796975851059, 2.5521114468574524 -2.2458581626415253, 1.633351445198059 l-2.041689306497574, 2.041689306497574 -1.4291824400424957, 2.041689306497574 l-0.7145912200212479, 2.1437737345695496 -0.10208446532487869, 1.633351445198059 l0.8166757225990295, 1.4291824400424957 1.8375203013420105, 0.9187601506710052 l5.614645481109619, 0.10208446532487869 6.533405780792236, -1.633351445198059 l6.227152347564697, -2.7562806010246277 2.041689306497574, -1.633351445198059 l1.5312670171260834, -2.2458581626415253 0.40833786129951477, -2.2458581626415253 l-0.20416893064975739, -1.9396047294139862 -1.633351445198059, -1.32709801197052 l-2.5521114468574524, -0.6125067919492722 -6.533405780792236, -0.40833786129951477 m-47.77553081512451, -0.3062533959746361 l-0.10208446532487869, -0.6125067919492722 0.7145912200212479, -1.1229290813207626 l3.0625340342521667, -3.8792094588279724 4.287547469139099, -3.5729563236236572 l2.65419602394104, -1.633351445198059 6.6354900598526, -2.7562806010246277 l3.1646183133125305, -0.9187601506710052 3.368787169456482, -0.8166757225990295 l12.045966386795044, -1.9396047294139862 m-25.929453372955322, 18.98771047592163 l1.8375203013420105, -1.633351445198059 2.65419602394104, -1.633351445198059 l3.7771251797676086, -1.4291824400424957 4.287547469139099, -1.1229290813207626 m-13.67931842803955, -3.4708717465400696 l1.32709801197052, 2.4500271677970886 2.5521114468574524, 2.8583648800849915 l1.020844653248787, 2.1437737345695496 m-17.660611867904663, 10.514699220657349 l0.5104223266243935, -0.20416893064975739 0.20416893064975739, -0.7145912200212479 l0.20416893064975739, -2.5521114468574524 5.818814635276794, -8.881348371505737 m-5.716729760169983, 12.045966386795044 l-3.368787169456482, -1.32709801197052 -1.1229290813207626, -1.1229290813207626 l-0.8166757225990295, -1.2250135838985443 -0.3062533959746361, -2.2458581626415253 m4.695885181427002, 5.206307768821716 l-0.5104223266243935, 0.5104223266243935 -0.5104223266243935, 1.9396047294139862 l-0.6125067919492722, 4.083378612995148 m2.347942590713501, -6.1250680685043335 l0.7145912200212479, 1.8375203013420105 1.8375203013420105, 2.1437737345695496 l1.2250135838985443, 0.40833786129951477 1.9396047294139862, 0.10208446532487869 m-7.554250359535217, -2.5521114468574524 l0.6125067919492722, -0.9187601506710052 -0.20416893064975739, -8.26884150505066 m2.65419602394104, 7.758418917655945 l-1.4291824400424957, 0.10208446532487869 -1.633351445198059, -0.6125067919492722 l-2.5521114468574524, -1.8375203013420105 m5.410476326942444, 0.5104223266243935 l0.6125067919492722, 1.2250135838985443 2.1437737345695496, 1.7354358732700348 l2.8583648800849915, 1.32709801197052 " fill="none" stroke="black" stroke-width="1" /></svg>