<?xml version="1.0" encoding="utf-8" ?>
<svg baseProfile="full" height="49.81294084340334" version="1.1" width="66.2485370784998" xmlns="http://www.w3.org/2000/svg" xmlns:ev="http://www.w3.org/2001/xml-events" xmlns:xlink="http://www.w3.org/1999/xlink"><defs /><rect fill="white" height="49.81294084340334" width="66.2485370784998" x="0" y="0" /><path d="M21.639767438173294, 14.902192875742912 m-4.4917163252830505, -0.6125067919492722 l-4.900054335594177, -2.2458581626415253 -4.4917163252830505, -3.266702890396118 l-1.8375203013420105, -1.9396047294139862 -0.9187601506710052, -1.8375203013420105 m17.558528184890747, 9.59593951702118 l5.206307768821716, 0.8166757225990295 3.8792094588279724, 0.0 l2.65419602394104, -0.8166757225990295 2.8583648800849915, -1.4291824400424957 l2.65419602394104, -1.7354358732700348 3.8792094588279724, -3.266702890396118 m-20.518977642059326, 6.6354900598526 l-0.40833786129951477, 3.1646183133125305 1.020844653248787, 7.1459126472473145 l0.0, 3.0625340342521667 -0.40833786129951477, 2.4500271677970886 l25.7252836227417, -0.10208446532487869 11.229290962219238, -0.9187601506710052 l-1.1229290813207626, -0.20416893064975739 m-32.7691125869751, 1.9396047294139862 l-0.20416893064975739, -0.5104223266243935 -3.5729563236236572, -0.10208446532487869 l-1.4291824400424957, 0.3062533959746361 -1.633351445198059, 1.32709801197052 l-0.40833786129951477, 1.2250135838985443 -0.10208446532487869, 3.5729563236236572 l1.8375203013420105, 3.8792094588279724 1.4291824400424957, 1.7354358732700348 l3.1646183133125305, 1.7354358732700348 1.32709801197052, 0.3062533959746361 l2.8583648800849915, 0.0 5.614645481109619, -2.041689306497574 l3.7771251797676086, -2.5521114468574524 1.2250135838985443, -1.5312670171260834 l0.5104223266243935, -1.633351445198059 0.0, -1.5312670171260834 l-0.6125067919492722, -1.4291824400424957 -3.675040602684021, -2.347942590713501 l-4.083378612995148, -1.633351445198059 -3.8792094588279724, -0.8166757225990295 l-1.1229290813207626, 0.0 -0.8166757225990295, 0.5104223266243935 m27.562804222106934, 1.020844653248787 l-0.7145912200212479, -0.7145912200212479 -0.7145912200212479, 0.0 l-0.9187601506710052, 0.40833786129951477 -2.1437737345695496, 2.2458581626415253 l-2.1437737345695496, 3.7771251797676086 0.0, 2.1437737345695496 l2.041689306497574, 2.041689306497574 2.7562806010246277, 1.2250135838985443 l1.4291824400424957, 0.20416893064975739 2.4500271677970886, -0.20416893064975739 l2.2458581626415253, -1.020844653248787 1.9396047294139862, -1.9396047294139862 l0.6125067919492722, -1.2250135838985443 0.20416893064975739, -1.5312670171260834 l-0.40833786129951477, -2.4500271677970886 -2.7562806010246277, -2.4500271677970886 l-4.695885181427002, -3.266702890396118 m-5.920898914337158, -2.041689306497574 l0.3062533959746361, -0.9187601506710052 0.0, -4.593800902366638 l-0.5104223266243935, 3.368787169456482 0.0, 5.410476326942444 m3.8792094588279724, -11.127206087112427 l-10.310530662536621, 0.8166757225990295 4.1854628920555115, 0.6125067919492722 l9.085517525672913, 0.6125067919492722 -2.8583648800849915, -0.7145912200212479 l-7.96258807182312, 0.20416893064975739 7.247996926307678, 0.0 l3.4708717465400696, -0.3062533959746361 -4.083378612995148, -1.020844653248787 l-3.5729563236236572, 0.0 -1.5312670171260834, 0.20416893064975739 l-1.7354358732700348, 0.8166757225990295 0.8166757225990295, 0.3062533959746361 l4.1854628920555115, 0.0 4.695885181427002, -0.8166757225990295 l-0.8166757225990295, -0.5104223266243935 -1.633351445198059, -0.3062533959746361 l-6.022983193397522, 0.10208446532487869 -2.2458581626415253, 0.5104223266243935 l0.9187601506710052, 0.20416893064975739 10.106362104415894, -0.5104223266243935 l-3.4708717465400696, 0.0 -6.1250680685043335, 1.020844653248787 l4.900054335594177, -0.7145912200212479 3.98129403591156, -0.10208446532487869 l-0.5104223266243935, -0.6125067919492722 -3.1646183133125305, -0.5104223266243935 l-6.1250680685043335, 0.20416893064975739 2.041689306497574, 0.5104223266243935 l10.514699220657349, -0.3062533959746361 -7.4521660804748535, 0.3062533959746361 l-3.1646183133125305, 0.0 0.6125067919492722, -0.3062533959746361 l9.085517525672913, 0.9187601506710052 -3.368787169456482, -0.10208446532487869 l-2.4500271677970886, 0.5104223266243935 " fill="none" stroke="black" stroke-width="1" /></svg>