<?xml version="1.0" encoding="utf-8" ?>
<svg baseProfile="full" height="29.70230169594288" version="1.1" width="36.43987558782101" xmlns="http://www.w3.org/2000/svg" xmlns:ev="http://www.w3.org/2001/xml-events" xmlns:xlink="http://www.w3.org/1999/xlink"><defs /><rect fill="white" height="29.70230169594288" width="36.43987558782101" x="0" y="0" /><path d="M28.581510595977306, 14.595940001308918 m-1.8375203013420105, -0.9187601506710052 l-1.7354358732700348, 0.0 -1.4291824400424957, 0.3062533959746361 l-1.633351445198059, 1.2250135838985443 -1.2250135838985443, 1.9396047294139862 l-0.20416893064975739, 2.5521114468574524 0.3062533959746361, 1.32709801197052 l1.7354358732700348, 2.347942590713501 2.2458581626415253, 0.9187601506710052 l2.7562806010246277, 0.0 1.1229290813207626, -0.6125067919492722 l1.9396047294139862, -1.5312670171260834 0.8166757225990295, -1.9396047294139862 l-0.3062533959746361, -2.65419602394104 -1.8375203013420105, -2.5521114468574524 l-1.633351445198059, -0.9187601506710052 -2.7562806010246277, -0.40833786129951477 m-15.51683783531189, 1.7354358732700348 l-0.8166757225990295, -0.40833786129951477 -1.5312670171260834, 0.7145912200212479 l-1.32709801197052, 1.633351445198059 -0.6125067919492722, 1.4291824400424957 l-0.10208446532487869, 1.020844653248787 0.40833786129951477, 1.8375203013420105 l1.7354358732700348, 2.1437737345695496 3.0625340342521667, 0.9187601506710052 l2.8583648800849915, -0.3062533959746361 2.7562806010246277, -2.1437737345695496 l0.5104223266243935, -2.4500271677970886 -0.20416893064975739, -1.7354358732700348 l-1.633351445198059, -3.0625340342521667 -2.2458581626415253, -1.7354358732700348 l-2.2458581626415253, -0.6125067919492722 -1.4291824400424957, 0.20416893064975739 l-1.4291824400424957, 0.7145912200212479 m6.022983193397522, 2.4500271677970886 l0.9187601506710052, -0.3062533959746361 4.593800902366638, -0.5104223266243935 l6.022983193397522, 0.0 m-7.043827772140503, 0.3062533959746361 l-6.329236626625061, -6.737574338912964 -2.5521114468574524, -1.7354358732700348 m-2.7562806010246277, -0.10208446532487869 l6.1250680685043335, -1.020844653248787 m11.433459520339966, 7.96258807182312 l-0.3062533959746361, -1.5312670171260834 1.1229290813207626, -6.839659214019775 m-3.4708717465400696, -0.5104223266243935 l2.65419602394104, 0.0 5.512561202049255, 1.633351445198059 " fill="none" stroke="black" stroke-width="1" /></svg>