<?xml version="1.0" encoding="utf-8" ?>
<svg baseProfile="full" height="28.27311933040619" version="1.1" width="40.21700110286474" xmlns="http://www.w3.org/2000/svg" xmlns:ev="http://www.w3.org/2001/xml-events" xmlns:xlink="http://www.w3.org/1999/xlink"><defs /><rect fill="white" height="28.27311933040619" width="40.21700110286474" x="0" y="0" /><path d="M9.797969795763493, 16.22929122298956 m-1.020844653248787, -0.40833786129951477 l-2.041689306497574, 0.20416893064975739 -1.4291824400424957, 1.2250135838985443 l-0.3062533959746361, 1.020844653248787 1.1229290813207626, 3.0625340342521667 l1.7354358732700348, 1.4291824400424957 2.041689306497574, 0.5104223266243935 l2.960449457168579, -0.20416893064975739 2.2458581626415253, -1.020844653248787 l0.6125067919492722, -1.5312670171260834 0.0, -2.041689306497574 l-1.5312670171260834, -2.041689306497574 -1.5312670171260834, -0.8166757225990295 l-2.041689306497574, -0.20416893064975739 -2.2458581626415253, 0.8166757225990295 m1.32709801197052, 2.8583648800849915 l0.10208446532487869, 0.10208446532487869 m-3.5729563236236572, -2.2458581626415253 l4.1854628920555115, 2.2458581626415253 3.675040602684021, -2.1437737345695496 l-4.4917163252830505, 2.4500271677970886 -1.9396047294139862, 1.7354358732700348 l-0.10208446532487869, -0.5104223266243935 1.020844653248787, -2.041689306497574 l1.020844653248787, -0.40833786129951477 3.0625340342521667, 2.2458581626415253 l1.633351445198059, 1.633351445198059 m15.108500719070435, -6.431320905685425 l-2.1437737345695496, 0.10208446532487869 -3.266702890396118, 1.1229290813207626 l-0.10208446532487869, 1.5312670171260834 0.6125067919492722, 1.5312670171260834 l1.4291824400424957, 1.633351445198059 1.020844653248787, 0.6125067919492722 l1.1229290813207626, 0.40833786129951477 2.65419602394104, -0.20416893064975739 l1.8375203013420105, -0.8166757225990295 2.4500271677970886, -2.4500271677970886 l0.20416893064975739, -1.633351445198059 -1.2250135838985443, -2.1437737345695496 l-1.9396047294139862, -1.4291824400424957 -2.65419602394104, 0.0 l-2.65419602394104, 0.7145912200212479 -0.7145912200212479, 1.7354358732700348 m3.1646183133125305, 1.1229290813207626 l0.0, 0.3062533959746361 m3.266702890396118, -2.960449457168579 l-4.695885181427002, 5.614645481109619 -0.8166757225990295, -0.8166757225990295 l-0.3062533959746361, -2.65419602394104 -0.6125067919492722, -1.020844653248787 l1.1229290813207626, -0.10208446532487869 2.347942590713501, 0.7145912200212479 l3.266702890396118, 2.65419602394104 0.6125067919492722, 1.020844653248787 l-1.2250135838985443, -0.5104223266243935 m-21.8460750579834, -2.5521114468574524 l-0.5104223266243935, -3.7771251797676086 0.20416893064975739, -2.1437737345695496 l1.020844653248787, -0.7145912200212479 3.8792094588279724, -0.8166757225990295 l12.760558128356934, 1.020844653248787 1.633351445198059, -0.3062533959746361 l0.40833786129951477, 0.6125067919492722 0.40833786129951477, 4.695885181427002 m0.40833786129951477, -5.206307768821716 l-0.5104223266243935, -0.5104223266243935 m-0.40833786129951477, 0.7145912200212479 l1.32709801197052, -5.818814635276794 " fill="none" stroke="black" stroke-width="1" /></svg>