<?xml version="1.0" encoding="utf-8" ?>
<svg baseProfile="full" height="23.16889598965645" version="1.1" width="33.27525783330202" xmlns="http://www.w3.org/2000/svg" xmlns:ev="http://www.w3.org/2001/xml-events" xmlns:xlink="http://www.w3.org/1999/xlink"><defs /><rect fill="white" height="23.16889598965645" width="33.27525783330202" x="0" y="0" /><path d="M12.452165633440018, 11.431321501731873 m-1.1229290813207626, -0.9187601506710052 l-2.5521114468574524, -0.6125067919492722 -1.9396047294139862, 0.10208446532487869 l-0.8166757225990295, 0.8166757225990295 -1.020844653248787, 3.368787169456482 l0.40833786129951477, 2.7562806010246277 0.9187601506710052, 0.9187601506710052 l1.8375203013420105, 0.0 3.368787169456482, -1.5312670171260834 l1.32709801197052, -1.1229290813207626 1.7354358732700348, -2.4500271677970886 l0.10208446532487869, -2.041689306497574 -0.8166757225990295, -1.020844653248787 l-1.5312670171260834, 0.10208446532487869 -1.633351445198059, 0.6125067919492722 m17.558528184890747, 0.7145912200212479 l-1.020844653248787, -2.041689306497574 -1.4291824400424957, -0.8166757225990295 l-3.1646183133125305, 1.633351445198059 -1.4291824400424957, 1.4291824400424957 l-0.7145912200212479, 1.4291824400424957 0.0, 1.9396047294139862 l0.5104223266243935, 1.633351445198059 1.2250135838985443, 1.4291824400424957 l0.8166757225990295, 0.3062533959746361 1.8375203013420105, -0.3062533959746361 l2.5521114468574524, -2.2458581626415253 0.5104223266243935, -0.9187601506710052 l0.20416893064975739, -2.2458581626415253 -0.7145912200212479, -2.2458581626415253 l-1.32709801197052, -1.32709801197052 -0.5104223266243935, -0.10208446532487869 l-0.8166757225990295, 0.6125067919492722 m0.5104223266243935, 3.98129403591156 l-0.3062533959746361, -0.20416893064975739 m1.633351445198059, -4.695885181427002 l-1.020844653248787, 4.4917163252830505 m2.1437737345695496, -1.2250135838985443 l-1.2250135838985443, 0.7145912200212479 -0.6125067919492722, 1.1229290813207626 m0.5104223266243935, 1.1229290813207626 l0.5104223266243935, 1.8375203013420105 m-1.1229290813207626, -3.368787169456482 l-0.5104223266243935, 2.7562806010246277 m-1.2250135838985443, -2.041689306497574 l-2.2458581626415253, 1.1229290813207626 m3.5729563236236572, -2.041689306497574 l-4.083378612995148, 0.0 m3.0625340342521667, -2.2458581626415253 l-1.7354358732700348, -0.7145912200212479 m-13.781402111053467, 3.0625340342521667 l0.0, 0.0 m-0.40833786129951477, -0.5104223266243935 l1.020844653248787, -0.9187601506710052 4.1854628920555115, -2.041689306497574 m-3.4708717465400696, 3.0625340342521667 l2.1437737345695496, 0.40833786129951477 1.9396047294139862, 1.1229290813207626 m-4.1854628920555115, -1.020844653248787 l0.9187601506710052, 2.041689306497574 0.20416893064975739, 2.7562806010246277 m-3.368787169456482, -5.818814635276794 l0.5104223266243935, 0.8166757225990295 0.10208446532487869, 1.7354358732700348 l-0.40833786129951477, 2.347942590713501 -0.5104223266243935, 1.2250135838985443 m0.7145912200212479, -5.818814635276794 l-0.7145912200212479, 0.40833786129951477 -1.7354358732700348, 0.0 m3.675040602684021, -2.1437737345695496 l-0.8166757225990295, -0.7145912200212479 m5.818814635276794, 1.633351445198059 l3.4708717465400696, 0.6125067919492722 1.1229290813207626, 0.0 m-7.1459126472473145, -3.5729563236236572 l-0.3062533959746361, -0.40833786129951477 0.10208446532487869, -3.1646183133125305 " fill="none" stroke="black" stroke-width="1" /></svg>