<?xml version="1.0" encoding="utf-8" ?>
<svg baseProfile="full" height="52.67130505293608" version="1.1" width="60.021386072039604" xmlns="http://www.w3.org/2000/svg" xmlns:ev="http://www.w3.org/2001/xml-events" xmlns:xlink="http://www.w3.org/1999/xlink"><defs /><rect fill="white" height="52.67130505293608" width="60.021386072039604" x="0" y="0" /><path d="M25.314806699752808, 14.800107963383198 m-1.5312670171260834, -0.10208446532487869 l-0.6125067919492722, 0.40833786129951477 -1.020844653248787, 2.041689306497574 l-0.10208446532487869, 4.593800902366638 0.7145912200212479, 0.9187601506710052 l2.041689306497574, 0.0 2.041689306497574, -1.020844653248787 l1.5312670171260834, -0.3062533959746361 5.206307768821716, -0.10208446532487869 l0.20416893064975739, -1.020844653248787 -0.5104223266243935, -0.40833786129951477 l-3.5729563236236572, -2.2458581626415253 -4.083378612995148, -2.041689306497574 l-0.5104223266243935, 0.0 1.020844653248787, -0.20416893064975739 m7.554250359535217, 5.512561202049255 l3.0625340342521667, -0.6125067919492722 4.083378612995148, -0.10208446532487869 l2.65419602394104, -0.40833786129951477 m-0.10208446532487869, -0.20416893064975739 l0.3062533959746361, -2.041689306497574 -0.3062533959746361, -11.127206087112427 l-6.941743493080139, -0.8166757225990295 8.779264092445374, 0.0 l3.0625340342521667, -0.5104223266243935 -7.656334638595581, 0.20416893064975739 m-18.47728729248047, 17.354358434677124 l-0.9187601506710052, 2.65419602394104 -1.7354358732700348, 0.8166757225990295 l-9.391770362854004, 0.20416893064975739 0.0, 5.30839204788208 l0.3062533959746361, 1.633351445198059 -2.041689306497574, 0.10208446532487869 l-1.633351445198059, 0.7145912200212479 -1.2250135838985443, 2.347942590713501 l-0.40833786129951477, 1.633351445198059 -0.10208446532487869, 3.8792094588279724 l0.6125067919492722, 1.9396047294139862 1.32709801197052, 2.2458581626415253 l2.7562806010246277, 1.633351445198059 1.7354358732700348, -0.20416893064975739 l2.2458581626415253, -1.4291824400424957 1.7354358732700348, -2.2458581626415253 l0.7145912200212479, -2.960449457168579 0.0, -2.65419602394104 l-1.32709801197052, -2.2458581626415253 -1.1229290813207626, -1.1229290813207626 l-4.083378612995148, -2.8583648800849915 m33.48370313644409, -12.454304695129395 l-0.40833786129951477, 6.839659214019775 0.5104223266243935, 2.041689306497574 l0.6125067919492722, 0.5104223266243935 4.083378612995148, 0.9187601506710052 l2.65419602394104, 1.1229290813207626 1.020844653248787, 1.1229290813207626 l0.5104223266243935, 1.1229290813207626 0.20416893064975739, 1.5312670171260834 l-0.5104223266243935, 1.8375203013420105 m-0.10208446532487869, -0.10208446532487869 l-1.633351445198059, 0.10208446532487869 -1.7354358732700348, 1.5312670171260834 l-1.1229290813207626, 1.633351445198059 -1.2250135838985443, 3.0625340342521667 l-0.10208446532487869, 1.32709801197052 0.5104223266243935, 1.2250135838985443 l1.4291824400424957, 1.1229290813207626 1.1229290813207626, 0.40833786129951477 l2.1437737345695496, 0.40833786129951477 2.5521114468574524, -0.10208446532487869 l0.8166757225990295, -1.1229290813207626 0.6125067919492722, -1.9396047294139862 l-0.3062533959746361, -4.1854628920555115 -1.5312670171260834, -1.9396047294139862 l-2.960449457168579, -1.9396047294139862 " fill="none" stroke="black" stroke-width="1" /></svg>