<?xml version="1.0" encoding="utf-8" ?>
<svg baseProfile="full" height="33.479427061975" version="1.1" width="48.587927259504795" xmlns="http://www.w3.org/2000/svg" xmlns:ev="http://www.w3.org/2001/xml-events" xmlns:xlink="http://www.w3.org/1999/xlink"><defs /><rect fill="white" height="33.479427061975" width="48.587927259504795" x="0" y="0" /><path d="M5, 7.8583649918437 m1.9396047294139862, 1.2250135838985443 l3.1646183133125305, 0.3062533959746361 1.7354358732700348, -1.1229290813207626 l2.65419602394104, -3.266702890396118 m-2.960449457168579, 4.79796975851059 l0.5104223266243935, 3.0625340342521667 0.0, 5.818814635276794 m1.2250135838985443, -2.4500271677970886 l7.043827772140503, -1.4291824400424957 10.718868970870972, -1.32709801197052 l4.1854628920555115, 0.10208446532487869 1.7354358732700348, 0.7145912200212479 l1.7354358732700348, 1.633351445198059 m-0.10208446532487869, 0.10208446532487869 l-0.9187601506710052, 0.0 -2.960449457168579, 1.9396047294139862 l-1.4291824400424957, 1.5312670171260834 -0.7145912200212479, 1.7354358732700348 l-0.3062533959746361, 4.389632046222687 0.5104223266243935, 1.32709801197052 l1.633351445198059, 1.2250135838985443 1.5312670171260834, 0.3062533959746361 l2.65419602394104, -0.20416893064975739 2.4500271677970886, -1.4291824400424957 l1.2250135838985443, -1.633351445198059 1.2250135838985443, -2.5521114468574524 l0.10208446532487869, -2.1437737345695496 -0.40833786129951477, -1.32709801197052 l-1.32709801197052, -1.9396047294139862 -2.041689306497574, -1.1229290813207626 m-27.869057655334473, 2.7562806010246277 l-1.9396047294139862, 0.40833786129951477 -1.4291824400424957, 1.633351445198059 l-1.1229290813207626, 2.7562806010246277 0.10208446532487869, 2.7562806010246277 l1.020844653248787, 1.2250135838985443 0.9187601506710052, 0.40833786129951477 l4.287547469139099, 0.3062533959746361 0.9187601506710052, -0.5104223266243935 l1.020844653248787, -1.020844653248787 0.9187601506710052, -1.7354358732700348 l0.3062533959746361, -4.79796975851059 -2.347942590713501, -2.960449457168579 m6.6354900598526, -3.4708717465400696 l0.3062533959746361, -0.7145912200212479 2.960449457168579, -1.8375203013420105 l3.7771251797676086, -3.0625340342521667 0.7145912200212479, -0.9187601506710052 m-2.4500271677970886, -0.5104223266243935 l0.10208446532487869, -0.5104223266243935 5.512561202049255, -0.3062533959746361 l1.7354358732700348, -0.40833786129951477 -0.8166757225990295, 0.0 l-4.593800902366638, 1.2250135838985443 -1.2250135838985443, -0.10208446532487869 l-1.1229290813207626, -0.5104223266243935 8.370925784111023, 0.10208446532487869 l-1.9396047294139862, 0.3062533959746361 " fill="none" stroke="black" stroke-width="1" /></svg>