<?xml version="1.0" encoding="utf-8" ?>
<svg baseProfile="full" height="36.64404507726431" version="1.1" width="57.673444859683514" xmlns="http://www.w3.org/2000/svg" xmlns:ev="http://www.w3.org/2001/xml-events" xmlns:xlink="http://www.w3.org/1999/xlink"><defs /><rect fill="white" height="36.64404507726431" width="57.673444859683514" x="0" y="0" /><path d="M8.777125105261803, 18.57723344117403 m-2.1437737345695496, 0.9187601506710052 l-1.4291824400424957, 1.1229290813207626 -0.20416893064975739, 0.6125067919492722 l0.0, 2.960449457168579 1.633351445198059, 2.65419602394104 l1.7354358732700348, 1.020844653248787 2.65419602394104, 0.3062533959746361 l4.389632046222687, -1.7354358732700348 0.5104223266243935, -0.3062533959746361 l0.40833786129951477, -1.020844653248787 0.0, -0.6125067919492722 l-1.020844653248787, -2.041689306497574 -2.041689306497574, -2.347942590713501 l-1.4291824400424957, -1.32709801197052 -2.8583648800849915, -1.8375203013420105 m0.8166757225990295, 6.6354900598526 l1.7354358732700348, -0.10208446532487869 3.266702890396118, -1.1229290813207626 l2.1437737345695496, -1.2250135838985443 4.287547469139099, -1.2250135838985443 l2.041689306497574, -1.020844653248787 3.266702890396118, -0.20416893064975739 l3.1646183133125305, -1.32709801197052 2.041689306497574, -0.3062533959746361 l6.1250680685043335, -3.98129403591156 2.041689306497574, -0.8166757225990295 l-2.4500271677970886, -3.368787169456482 -0.9187601506710052, -3.368787169456482 l0.0, -0.5104223266243935 0.6125067919492722, 0.0 m2.8583648800849915, 6.329236626625061 l1.020844653248787, 0.7145912200212479 2.2458581626415253, 0.5104223266243935 l3.98129403591156, 1.9396047294139862 3.675040602684021, 1.2250135838985443 l1.7354358732700348, 0.20416893064975739 m-23.377342224121094, 1.9396047294139862 l1.4291824400424957, 1.633351445198059 1.4291824400424957, 3.0625340342521667 l0.9187601506710052, 1.2250135838985443 3.368787169456482, 3.5729563236236572 l-0.7145912200212479, -1.633351445198059 -1.1229290813207626, -1.020844653248787 l-1.020844653248787, -0.40833786129951477 -0.7145912200212479, 0.20416893064975739 l-1.5312670171260834, 1.5312670171260834 -0.3062533959746361, 0.6125067919492722 l0.20416893064975739, 1.633351445198059 1.5312670171260834, 2.041689306497574 l1.1229290813207626, 0.7145912200212479 2.1437737345695496, 0.5104223266243935 l3.0625340342521667, 0.10208446532487869 7.247996926307678, -0.9187601506710052 l1.2250135838985443, -0.6125067919492722 0.3062533959746361, -1.633351445198059 l-1.2250135838985443, -2.2458581626415253 -1.020844653248787, -0.9187601506710052 l-2.1437737345695496, -1.4291824400424957 -1.633351445198059, -0.6125067919492722 l-3.7771251797676086, -0.5104223266243935 -4.287547469139099, 0.0 l-1.5312670171260834, 0.6125067919492722 -1.633351445198059, 1.32709801197052 m-2.960449457168579, -7.350081205368042 l-2.65419602394104, 0.0 -5.002138614654541, -1.020844653248787 l-10.718868970870972, -0.7145912200212479 0.5104223266243935, 0.20416893064975739 l-0.5104223266243935, 2.347942590713501 m5.410476326942444, -2.65419602394104 l0.5104223266243935, 0.0 2.041689306497574, -1.5312670171260834 l1.5312670171260834, -0.3062533959746361 3.0625340342521667, 0.6125067919492722 l1.1229290813207626, 2.5521114468574524 -0.8166757225990295, -0.3062533959746361 m-1.633351445198059, -0.7145912200212479 l-2.7562806010246277, -0.7145912200212479 2.7562806010246277, -0.7145912200212479 l-2.5521114468574524, 0.5104223266243935 1.8375203013420105, 0.20416893064975739 l-3.7771251797676086, 0.0 0.5104223266243935, 0.40833786129951477 l1.020844653248787, 0.10208446532487869 2.65419602394104, -0.10208446532487869 " fill="none" stroke="black" stroke-width="1" /></svg>