<?xml version="1.0" encoding="utf-8" ?>
<svg baseProfile="full" height="28.27311910688877" version="1.1" width="39.19615611433983" xmlns="http://www.w3.org/2000/svg" xmlns:ev="http://www.w3.org/2001/xml-events" xmlns:xlink="http://www.w3.org/1999/xlink"><defs /><rect fill="white" height="28.27311910688877" width="39.19615611433983" x="0" y="0" /><path d="M9.2875474691391, 12.55425039678812 m-2.65419602394104, 0.3062533959746361 l-1.020844653248787, 0.8166757225990295 -0.6125067919492722, 2.2458581626415253 l0.20416893064975739, 1.633351445198059 1.020844653248787, 1.7354358732700348 l5.104222893714905, 3.1646183133125305 m-2.65419602394104, -10.106362104415894 l3.675040602684021, 1.9396047294139862 1.5312670171260834, 1.7354358732700348 l0.9187601506710052, 1.7354358732700348 0.0, 0.5104223266243935 l-1.020844653248787, 0.10208446532487869 -0.5104223266243935, 0.40833786129951477 l-0.5104223266243935, 1.633351445198059 -1.5312670171260834, 1.8375203013420105 m-5.104222893714905, -8.370925784111023 l14.087655544281006, -1.4291824400424957 8.881348371505737, 0.20416893064975739 l2.5521114468574524, 0.3062533959746361 0.7145912200212479, 0.40833786129951477 m0.0, 0.0 l-2.1437737345695496, 0.3062533959746361 -0.40833786129951477, 0.5104223266243935 l-1.2250135838985443, 6.227152347564697 0.0, 1.32709801197052 l1.5312670171260834, 1.2250135838985443 1.020844653248787, 0.3062533959746361 l3.0625340342521667, -2.960449457168579 -0.6125067919492722, -5.920898914337158 l-0.6125067919492722, -1.020844653248787 -1.1229290813207626, -0.7145912200212479 m-12.556389570236206, -0.40833786129951477 l-2.5521114468574524, -2.7562806010246277 -2.4500271677970886, -1.9396047294139862 l6.6354900598526, 4.79796975851059 0.5104223266243935, -0.40833786129951477 l1.4291824400424957, -3.5729563236236572 1.8375203013420105, -3.1646183133125305 l-0.5104223266243935, 0.20416893064975739 -3.1646183133125305, -0.40833786129951477 l-3.98129403591156, 1.32709801197052 -2.4500271677970886, 0.10208446532487869 " fill="none" stroke="black" stroke-width="1" /></svg>