<?xml version="1.0" encoding="utf-8" ?>
<svg baseProfile="full" height="30.00855464488268" version="1.1" width="39.60449490696192" xmlns="http://www.w3.org/2000/svg" xmlns:ev="http://www.w3.org/2001/xml-events" xmlns:xlink="http://www.w3.org/1999/xlink"><defs /><rect fill="white" height="30.00855464488268" width="39.60449490696192" x="0" y="0" /><path d="M32.76697464287281, 17.250135391950607 m-3.7771251797676086, -0.7145912200212479 l-3.368787169456482, 0.10208446532487869 -1.2250135838985443, 0.5104223266243935 l-1.5312670171260834, 2.5521114468574524 -0.10208446532487869, 2.7562806010246277 l0.9187601506710052, 1.2250135838985443 2.4500271677970886, 1.020844653248787 l1.7354358732700348, 0.3062533959746361 4.1854628920555115, -0.10208446532487869 l1.633351445198059, -1.32709801197052 0.7145912200212479, -1.32709801197052 l0.20416893064975739, -2.7562806010246277 -0.9187601506710052, -1.8375203013420105 l-2.041689306497574, -1.4291824400424957 -2.8583648800849915, -0.20416893064975739 m-14.598078727722168, -0.9187601506710052 l-6.839659214019775, 0.0 -1.1229290813207626, 0.40833786129951477 l-0.9187601506710052, 1.2250135838985443 -0.3062533959746361, 2.347942590713501 l0.8166757225990295, 2.1437737345695496 1.8375203013420105, 1.5312670171260834 l2.65419602394104, 1.020844653248787 1.7354358732700348, 0.20416893064975739 l1.4291824400424957, -1.4291824400424957 1.4291824400424957, -2.041689306497574 l0.7145912200212479, -2.2458581626415253 0.0, -1.020844653248787 l-0.5104223266243935, -1.020844653248787 -2.8583648800849915, -2.041689306497574 l-0.5104223266243935, -0.10208446532487869 -0.3062533959746361, 0.5104223266243935 m-0.5104223266243935, 3.368787169456482 l0.3062533959746361, -1.32709801197052 2.8583648800849915, -5.818814635276794 l8.779264092445374, -0.10208446532487869 1.5312670171260834, 0.5104223266243935 l3.4708717465400696, 7.1459126472473145 m-3.4708717465400696, -7.656334638595581 l0.0, -1.1229290813207626 1.1229290813207626, -3.675040602684021 m-1.5312670171260834, -0.9187601506710052 l1.32709801197052, 0.0 2.65419602394104, 1.020844653248787 l1.1229290813207626, 0.9187601506710052 0.40833786129951477, 0.9187601506710052 " fill="none" stroke="black" stroke-width="1" /></svg>