<?xml version="1.0" encoding="utf-8" ?>
<svg baseProfile="full" height="32.56066657602787" version="1.1" width="37.869059070944786" xmlns="http://www.w3.org/2000/svg" xmlns:ev="http://www.w3.org/2001/xml-events" xmlns:xlink="http://www.w3.org/1999/xlink"><defs /><rect fill="white" height="32.56066657602787" width="37.869059070944786" x="0" y="0" /><path d="M7.756280526518822, 12.758419699966908 m-1.020844653248787, 0.5104223266243935 l-1.020844653248787, 1.7354358732700348 -0.7145912200212479, 9.59593951702118 l0.5104223266243935, 0.6125067919492722 6.022983193397522, 0.40833786129951477 l4.083378612995148, -3.8792094588279724 0.20416893064975739, -0.7145912200212479 l-0.40833786129951477, -6.1250680685043335 -3.7771251797676086, -3.368787169456482 l-4.900054335594177, 0.8166757225990295 -1.4291824400424957, 1.32709801197052 m10.412615537643433, 5.002138614654541 l14.598078727722168, -0.7145912200212479 -1.9396047294139862, 1.2250135838985443 l-2.65419602394104, 3.368787169456482 -1.020844653248787, 1.9396047294139862 l0.3062533959746361, 2.8583648800849915 3.98129403591156, 0.20416893064975739 l1.32709801197052, -0.5104223266243935 1.8375203013420105, -1.7354358732700348 l0.7145912200212479, -1.7354358732700348 0.0, -2.041689306497574 l-0.10208446532487869, -2.4500271677970886 -0.9187601506710052, -2.347942590713501 l-1.7354358732700348, -0.6125067919492722 -1.4291824400424957, 0.40833786129951477 m-9.187601804733276, -6.227152347564697 l0.0, 8.370925784111023 m-2.2458581626415253, -7.96258807182312 l8.26884150505066, 0.20416893064975739 0.8166757225990295, -0.3062533959746361 l0.20416893064975739, -1.32709801197052 -1.2250135838985443, -2.2458581626415253 l-2.65419602394104, -0.9187601506710052 -3.8792094588279724, 0.6125067919492722 l-2.65419602394104, 2.4500271677970886 -0.10208446532487869, 0.40833786129951477 l1.4291824400424957, 2.347942590713501 m7.247996926307678, 2.960449457168579 l1.5312670171260834, -0.6125067919492722 3.8792094588279724, -4.287547469139099 l0.9187601506710052, -1.2250135838985443 0.3062533959746361, -1.8375203013420105 m0.7145912200212479, -1.020844653248787 l-0.9187601506710052, -0.20416893064975739 -1.4291824400424957, 0.40833786129951477 l-2.4500271677970886, 2.041689306497574 -0.5104223266243935, 1.020844653248787 l0.9187601506710052, 0.20416893064975739 1.7354358732700348, -0.8166757225990295 l1.7354358732700348, -1.5312670171260834 0.6125067919492722, -0.9187601506710052 l0.20416893064975739, -1.1229290813207626 " fill="none" stroke="black" stroke-width="1" /></svg>