<?xml version="1.0" encoding="utf-8" ?>
<svg baseProfile="full" height="41.85035228729248" version="1.1" width="65.6360325589776" xmlns="http://www.w3.org/2000/svg" xmlns:ev="http://www.w3.org/2001/xml-events" xmlns:xlink="http://www.w3.org/1999/xlink"><defs /><rect fill="white" height="41.85035228729248" width="65.6360325589776" x="0" y="0" /><path d="M17.760558128356934, 19.70016248524189 m0.0, -0.5104223266243935 l-0.6125067919492722, -0.3062533959746361 -2.041689306497574, -0.3062533959746361 l-3.266702890396118, 0.20416893064975739 -2.347942590713501, 0.7145912200212479 l-2.7562806010246277, 1.8375203013420105 -1.32709801197052, 2.7562806010246277 l-0.40833786129951477, 1.32709801197052 0.0, 1.9396047294139862 l0.9187601506710052, 2.8583648800849915 2.65419602394104, 2.4500271677970886 l2.4500271677970886, 1.020844653248787 1.9396047294139862, 0.10208446532487869 l2.1437737345695496, -0.40833786129951477 1.9396047294139862, -0.8166757225990295 l2.2458581626415253, -1.7354358732700348 1.2250135838985443, -1.5312670171260834 l0.5104223266243935, -1.2250135838985443 0.5104223266243935, -3.8792094588279724 l-1.1229290813207626, -3.675040602684021 -1.1229290813207626, -1.5312670171260834 l-1.633351445198059, -1.020844653248787 -1.5312670171260834, -0.3062533959746361 l-1.9396047294139862, 0.3062533959746361 -2.960449457168579, 1.8375203013420105 m1.5312670171260834, -1.7354358732700348 l-0.6125067919492722, 7.554250359535217 -0.20416893064975739, 8.881348371505737 m-6.941743493080139, -9.59593951702118 l1.9396047294139862, 0.3062533959746361 5.512561202049255, -0.5104223266243935 l5.002138614654541, 0.3062533959746361 6.022983193397522, -0.20416893064975739 m33.687872886657715, 5.818814635276794 l2.041689306497574, -1.4291824400424957 0.40833786129951477, -1.2250135838985443 l0.0, -1.4291824400424957 -1.1229290813207626, -1.633351445198059 l-1.9396047294139862, -1.9396047294139862 -2.1437737345695496, -1.2250135838985443 l-2.347942590713501, -0.9187601506710052 -3.368787169456482, -0.5104223266243935 l-1.5312670171260834, 0.20416893064975739 -2.960449457168579, 1.020844653248787 l-2.65419602394104, 1.8375203013420105 -1.8375203013420105, 2.347942590713501 l-0.7145912200212479, 1.8375203013420105 -0.10208446532487869, 1.8375203013420105 l0.40833786129951477, 1.8375203013420105 1.2250135838985443, 2.1437737345695496 l0.9187601506710052, 0.8166757225990295 2.347942590713501, 1.2250135838985443 l2.65419602394104, 0.7145912200212479 1.32709801197052, 0.0 l4.389632046222687, -0.9187601506710052 5.410476326942444, -2.7562806010246277 l1.1229290813207626, -1.2250135838985443 0.6125067919492722, -1.8375203013420105 l0.10208446532487869, -1.633351445198059 -0.40833786129951477, -1.8375203013420105 l-0.6125067919492722, -1.1229290813207626 -1.5312670171260834, -1.5312670171260834 l-3.266702890396118, -1.633351445198059 m-4.389632046222687, -1.2250135838985443 l-1.020844653248787, 6.533405780792236 -0.3062533959746361, 6.737574338912964 l-0.40833786129951477, 2.1437737345695496 -0.5104223266243935, 1.020844653248787 m-7.656334638595581, -8.677179217338562 l0.5104223266243935, 0.20416893064975739 5.104222893714905, -0.6125067919492722 l12.250136137008667, -0.10208446532487869 3.4708717465400696, -0.40833786129951477 m-46.44843101501465, -9.493855237960815 l1.020844653248787, 0.10208446532487869 0.8166757225990295, -1.2250135838985443 l3.8792094588279724, -9.698023796081543 1.32709801197052, -1.9396047294139862 m-2.4500271677970886, 3.7771251797676086 l0.6125067919492722, 0.3062533959746361 3.1646183133125305, -0.3062533959746361 l10.412615537643433, 0.3062533959746361 7.860503792762756, 0.7145912200212479 l3.98129403591156, 0.0 4.287547469139099, -0.6125067919492722 l1.32709801197052, 0.3062533959746361 m-1.5312670171260834, -0.40833786129951477 l-0.7145912200212479, 5.002138614654541 0.20416893064975739, 3.8792094588279724 l1.2250135838985443, 4.593800902366638 0.40833786129951477, 0.20416893064975739 " fill="none" stroke="black" stroke-width="1" /></svg>