<?xml version="1.0" encoding="utf-8" ?>
<svg baseProfile="full" height="35.010693073272705" version="1.1" width="48.28167453408241" xmlns="http://www.w3.org/2000/svg" xmlns:ev="http://www.w3.org/2001/xml-events" xmlns:xlink="http://www.w3.org/1999/xlink"><defs /><rect fill="white" height="35.010693073272705" width="48.28167453408241" x="0" y="0" /><path d="M14.493855088949203, 15.616784207522869 m-2.5521114468574524, -0.10208446532487869 l-1.5312670171260834, 0.5104223266243935 -2.7562806010246277, 1.633351445198059 l-1.8375203013420105, 2.5521114468574524 -0.8166757225990295, 2.2458581626415253 l0.0, 2.8583648800849915 0.6125067919492722, 1.4291824400424957 l2.041689306497574, 1.9396047294139862 2.041689306497574, 0.7145912200212479 l3.0625340342521667, 0.0 2.041689306497574, -0.8166757225990295 l1.4291824400424957, -9.187601804733276 0.0, -1.7354358732700348 l-1.1229290813207626, -1.7354358732700348 -2.960449457168579, -1.7354358732700348 m30.21700143814087, 5.206307768821716 l-2.8583648800849915, 0.10208446532487869 -4.695885181427002, 2.5521114468574524 l-2.041689306497574, 2.8583648800849915 -0.40833786129951477, 2.4500271677970886 l1.32709801197052, 1.5312670171260834 2.65419602394104, 1.1229290813207626 l3.5729563236236572, -0.10208446532487869 1.7354358732700348, -0.7145912200212479 l1.2250135838985443, -0.9187601506710052 0.40833786129951477, -2.5521114468574524 l0.0, -5.104222893714905 -0.40833786129951477, -1.1229290813207626 l-0.6125067919492722, -0.40833786129951477 m-5.30839204788208, 0.40833786129951477 l-0.9187601506710052, -2.8583648800849915 -1.4291824400424957, -1.4291824400424957 l-2.1437737345695496, -1.2250135838985443 -3.675040602684021, -0.8166757225990295 l-3.7771251797676086, 0.0 -3.1646183133125305, 0.40833786129951477 l-4.593800902366638, 2.2458581626415253 -1.9396047294139862, 0.5104223266243935 m17.762696743011475, -2.7562806010246277 l1.020844653248787, -4.900054335594177 0.9187601506710052, -1.7354358732700348 m-3.8792094588279724, -1.9396047294139862 l1.5312670171260834, 0.0 3.7771251797676086, 1.7354358732700348 l3.1646183133125305, 0.3062533959746361 " fill="none" stroke="black" stroke-width="1" /></svg>