<?xml version="1.0" encoding="utf-8" ?>
<svg baseProfile="full" height="24.70016248524189" version="1.1" width="36.031538136303425" xmlns="http://www.w3.org/2000/svg" xmlns:ev="http://www.w3.org/2001/xml-events" xmlns:xlink="http://www.w3.org/1999/xlink"><defs /><rect fill="white" height="24.70016248524189" width="36.031538136303425" x="0" y="0" /><path d="M12.452165819704533, 11.329236552119255 m-0.7145912200212479, -0.40833786129951477 l-1.8375203013420105, 0.0 -1.1229290813207626, 0.5104223266243935 l-2.4500271677970886, 2.347942590713501 -0.8166757225990295, 1.32709801197052 l-0.40833786129951477, 1.1229290813207626 -0.10208446532487869, 2.041689306497574 l0.5104223266243935, 0.7145912200212479 1.020844653248787, 0.5104223266243935 l1.4291824400424957, 0.20416893064975739 1.4291824400424957, 0.0 l1.4291824400424957, -0.5104223266243935 2.1437737345695496, -1.8375203013420105 l1.32709801197052, -1.8375203013420105 0.40833786129951477, -2.347942590713501 l-0.10208446532487869, -1.7354358732700348 -2.2458581626415253, -0.8166757225990295 l-0.9187601506710052, 0.0 -0.9187601506710052, 0.6125067919492722 m4.083378612995148, 2.65419602394104 l4.593800902366638, 0.0 7.96258807182312, -1.633351445198059 l-0.10208446532487869, -0.5104223266243935 -2.1437737345695496, -0.10208446532487869 l-0.8166757225990295, 0.3062533959746361 -1.1229290813207626, 1.633351445198059 l-0.3062533959746361, 1.9396047294139862 0.20416893064975739, 0.9187601506710052 l1.32709801197052, 1.020844653248787 2.960449457168579, 0.10208446532487869 l1.8375203013420105, -0.8166757225990295 0.8166757225990295, -0.7145912200212479 l1.1229290813207626, -1.9396047294139862 0.10208446532487869, -1.5312670171260834 l-1.32709801197052, -0.8166757225990295 -1.633351445198059, -0.20416893064975739 m-10.718868970870972, 2.7562806010246277 l-0.20416893064975739, -4.4917163252830505 -1.020844653248787, -0.3062533959746361 l-0.8166757225990295, -1.633351445198059 1.8375203013420105, 0.7145912200212479 l1.5312670171260834, 0.0 1.2250135838985443, -0.7145912200212479 m6.6354900598526, 3.98129403591156 l-0.7145912200212479, -5.002138614654541 -4.79796975851059, -0.40833786129951477 l7.350081205368042, -1.4291824400424957 " fill="none" stroke="black" stroke-width="1" /></svg>