<?xml version="1.0" encoding="utf-8" ?>
<svg baseProfile="full" height="51.75254497677088" version="1.1" width="86.76751427352428" xmlns="http://www.w3.org/2000/svg" xmlns:ev="http://www.w3.org/2001/xml-events" xmlns:xlink="http://www.w3.org/1999/xlink"><defs /><rect fill="white" height="51.75254497677088" width="86.76751427352428" x="0" y="0" /><path d="M12.96258807182312, 25.825230069458485 m-0.9187601506710052, 0.0 l-1.9396047294139862, 0.9187601506710052 -1.9396047294139862, 1.8375203013420105 l-1.5312670171260834, 2.2458581626415253 -1.2250135838985443, 3.5729563236236572 l-0.40833786129951477, 3.7771251797676086 0.0, 2.8583648800849915 l0.3062533959746361, 1.020844653248787 0.8166757225990295, 1.4291824400424957 l1.32709801197052, 1.32709801197052 4.4917163252830505, 1.32709801197052 l4.593800902366638, 0.6125067919492722 6.227152347564697, -0.10208446532487869 l2.65419602394104, -0.6125067919492722 3.0625340342521667, -1.2250135838985443 l1.2250135838985443, -0.8166757225990295 0.40833786129951477, -0.7145912200212479 l0.8166757225990295, -2.347942590713501 0.10208446532487869, -5.002138614654541 l-1.1229290813207626, -2.65419602394104 -3.7771251797676086, -4.287547469139099 l-5.818814635276794, -3.0625340342521667 -3.0625340342521667, -0.7145912200212479 l-5.104222893714905, -0.10208446532487869 -1.1229290813207626, 1.1229290813207626 m62.3736047744751, -0.5104223266243935 l-3.4708717465400696, 0.10208446532487869 -1.7354358732700348, 0.7145912200212479 l-4.287547469139099, 3.0625340342521667 -1.4291824400424957, 2.347942590713501 l-1.1229290813207626, 3.4708717465400696 0.0, 2.65419602394104 l0.3062533959746361, 0.8166757225990295 1.32709801197052, 1.32709801197052 l2.041689306497574, 1.2250135838985443 3.1646183133125305, 1.020844653248787 l4.1854628920555115, 0.6125067919492722 2.4500271677970886, -1.020844653248787 l3.0625340342521667, -2.1437737345695496 2.8583648800849915, -4.1854628920555115 l0.9187601506710052, -2.5521114468574524 0.10208446532487869, -2.4500271677970886 l-0.5104223266243935, -1.633351445198059 -2.2458581626415253, -2.7562806010246277 m-65.74239253997803, -1.5312670171260834 l15.721007585525513, 0.0 8.370925784111023, 1.2250135838985443 l17.354358434677124, -0.20416893064975739 14.291825294494629, -0.9187601506710052 m5.206307768821716, 0.20416893064975739 l-0.8166757225990295, -1.8375203013420105 -2.7562806010246277, -3.8792094588279724 l-4.4917163252830505, -5.410476326942444 -0.8166757225990295, -1.4291824400424957 l-0.9187601506710052, -3.266702890396118 m-0.10208446532487869, -0.3062533959746361 l0.40833786129951477, -0.6125067919492722 2.5521114468574524, -1.1229290813207626 l13.883486986160278, -2.2458581626415253 m-17.966865301132202, 4.287547469139099 l-6.839659214019775, 2.347942590713501 " fill="none" stroke="black" stroke-width="1" /></svg>