<?xml version="1.0" encoding="utf-8" ?>
<svg baseProfile="full" height="31.02939873933792" version="1.1" width="47.26082891225815" xmlns="http://www.w3.org/2000/svg" xmlns:ev="http://www.w3.org/2001/xml-events" xmlns:xlink="http://www.w3.org/1999/xlink"><defs /><rect fill="white" height="31.02939873933792" width="47.26082891225815" x="0" y="0" /><path d="M6.531266868114471, 14.187600873410702 m-1.32709801197052, 5.512561202049255 l0.3062533959746361, 4.4917163252830505 0.8166757225990295, 1.32709801197052 l1.020844653248787, 0.5104223266243935 3.266702890396118, -0.10208446532487869 l1.633351445198059, -0.8166757225990295 1.7354358732700348, -1.5312670171260834 l1.32709801197052, -1.7354358732700348 1.1229290813207626, -3.4708717465400696 l0.0, -2.041689306497574 -0.9187601506710052, -2.2458581626415253 l-2.4500271677970886, -2.347942590713501 -1.5312670171260834, -0.6125067919492722 l-1.633351445198059, 0.0 -1.633351445198059, 0.3062533959746361 l-2.5521114468574524, 1.633351445198059 -0.6125067919492722, 0.6125067919492722 l-0.10208446532487869, 1.1229290813207626 m32.46285915374756, -1.8375203013420105 l-1.7354358732700348, 1.020844653248787 -1.7354358732700348, 1.5312670171260834 l-0.8166757225990295, 2.8583648800849915 0.10208446532487869, 1.7354358732700348 l0.6125067919492722, 1.020844653248787 2.4500271677970886, 1.020844653248787 l2.65419602394104, 0.0 2.2458581626415253, -1.020844653248787 l0.7145912200212479, -1.020844653248787 0.3062533959746361, -2.8583648800849915 l-0.3062533959746361, -1.7354358732700348 -0.9187601506710052, -1.4291824400424957 l-1.1229290813207626, -0.9187601506710052 -3.7771251797676086, -0.20416893064975739 m-26.439876556396484, 3.7771251797676086 l11.229290962219238, 0.7145912200212479 1.1229290813207626, -0.20416893064975739 l5.002138614654541, -8.26884150505066 2.2458581626415253, -2.5521114468574524 m-17.252274751663208, 9.085517525672913 l3.1646183133125305, -5.002138614654541 1.9396047294139862, -2.2458581626415253 l1.2250135838985443, -0.9187601506710052 7.656334638595581, -1.5312670171260834 l7.758418917655945, -0.8166757225990295 2.8583648800849915, 7.860503792762756 l1.7354358732700348, 4.1854628920555115 0.8166757225990295, 1.2250135838985443 " fill="none" stroke="black" stroke-width="1" /></svg>