<?xml version="1.0" encoding="utf-8" ?>
<svg baseProfile="full" height="34.091933481395245" version="1.1" width="49.20043297111988" xmlns="http://www.w3.org/2000/svg" xmlns:ev="http://www.w3.org/2001/xml-events" xmlns:xlink="http://www.w3.org/1999/xlink"><defs /><rect fill="white" height="34.091933481395245" width="49.20043297111988" x="0" y="0" /><path d="M40.219138599932194, 18.47514934837818 m-5.716729760169983, 0.40833786129951477 l-4.593800902366638, 1.8375203013420105 -1.2250135838985443, 1.1229290813207626 l-0.8166757225990295, 1.7354358732700348 -0.10208446532487869, 2.347942590713501 l0.5104223266243935, 0.6125067919492722 3.0625340342521667, 1.32709801197052 l3.98129403591156, 0.3062533959746361 3.98129403591156, -1.020844653248787 l4.389632046222687, -1.9396047294139862 0.5104223266243935, -1.2250135838985443 l0.0, -2.7562806010246277 -2.347942590713501, -5.002138614654541 l-1.5312670171260834, -0.9187601506710052 -1.1229290813207626, 0.0 l-1.32709801197052, 0.7145912200212479 m-22.560665607452393, 0.20416893064975739 l-3.1646183133125305, 0.9187601506710052 -4.1854628920555115, 0.7145912200212479 l-1.633351445198059, 0.7145912200212479 -0.9187601506710052, 1.633351445198059 l-0.40833786129951477, 1.8375203013420105 0.0, 2.041689306497574 l0.6125067919492722, 1.5312670171260834 2.1437737345695496, 1.32709801197052 l3.368787169456482, 1.2250135838985443 6.431320905685425, 0.9187601506710052 l1.4291824400424957, -5.512561202049255 0.0, -1.7354358732700348 l-1.2250135838985443, -3.98129403591156 -0.9187601506710052, -1.7354358732700348 l-1.4291824400424957, -1.32709801197052 -1.1229290813207626, -0.5104223266243935 l-0.7145912200212479, 0.20416893064975739 m1.633351445198059, 1.5312670171260834 l7.247996926307678, -0.5104223266243935 5.920898914337158, 0.0 l5.512561202049255, 0.5104223266243935 7.96258807182312, 1.633351445198059 m-17.252274751663208, -2.960449457168579 l0.40833786129951477, -1.1229290813207626 0.40833786129951477, -5.614645481109619 m-2.1437737345695496, 0.20416893064975739 l0.20416893064975739, -1.5312670171260834 1.5312670171260834, -1.020844653248787 l1.633351445198059, -0.6125067919492722 " fill="none" stroke="black" stroke-width="1" /></svg>