<?xml version="1.0" encoding="utf-8" ?>
<svg baseProfile="full" height="40.01283194869757" version="1.1" width="43.89204125851393" xmlns="http://www.w3.org/2000/svg" xmlns:ev="http://www.w3.org/2001/xml-events" xmlns:xlink="http://www.w3.org/1999/xlink"><defs /><rect fill="white" height="40.01283194869757" width="43.89204125851393" x="0" y="0" /><path d="M9.0833780169487, 23.885626010596752 m-0.5104223266243935, 1.020844653248787 l-0.10208446532487869, 1.8375203013420105 0.8166757225990295, 5.410476326942444 l1.1229290813207626, 1.633351445198059 1.020844653248787, 0.7145912200212479 l1.9396047294139862, 0.20416893064975739 3.266702890396118, -0.7145912200212479 l2.2458581626415253, -2.4500271677970886 1.020844653248787, -2.2458581626415253 l0.40833786129951477, -2.041689306497574 0.0, -2.65419602394104 l-0.6125067919492722, -1.2250135838985443 -1.9396047294139862, -0.9187601506710052 l-3.8792094588279724, 0.0 -1.7354358732700348, 0.5104223266243935 l-0.6125067919492722, 0.3062533959746361 -1.5312670171260834, 2.5521114468574524 l-0.20416893064975739, 0.8166757225990295 0.3062533959746361, 1.7354358732700348 m16.63976788520813, -6.1250680685043335 l-2.4500271677970886, 1.32709801197052 -1.633351445198059, 1.7354358732700348 l-1.5312670171260834, 2.65419602394104 -0.40833786129951477, 2.7562806010246277 l0.7145912200212479, 1.8375203013420105 1.9396047294139862, 1.633351445198059 l2.8583648800849915, 0.8166757225990295 2.5521114468574524, -0.3062533959746361 l3.4708717465400696, -1.8375203013420105 1.7354358732700348, -2.347942590713501 l1.2250135838985443, -3.4708717465400696 -0.6125067919492722, -2.960449457168579 l-0.7145912200212479, -1.020844653248787 -1.4291824400424957, -1.020844653248787 l-1.8375203013420105, -0.8166757225990295 -2.2458581626415253, -0.40833786129951477 l-3.7771251797676086, 0.6125067919492722 -2.2458581626415253, 1.1229290813207626 l-1.1229290813207626, 1.2250135838985443 m-9.28968608379364, -4.695885181427002 l0.5104223266243935, 0.40833786129951477 2.5521114468574524, 0.8166757225990295 l5.818814635276794, 1.2250135838985443 3.8792094588279724, 0.0 l5.410476326942444, -0.6125067919492722 1.7354358732700348, 0.20416893064975739 l0.40833786129951477, -0.20416893064975739 1.1229290813207626, -2.1437737345695496 l2.2458581626415253, -5.30839204788208 1.020844653248787, -3.368787169456482 l-0.8166757225990295, -0.40833786129951477 -1.5312670171260834, -0.10208446532487869 l-3.7771251797676086, 0.5104223266243935 1.020844653248787, 0.3062533959746361 l3.0625340342521667, 0.0 3.98129403591156, -0.5104223266243935 l0.3062533959746361, -4.900054335594177 m-18.47728729248047, 17.456443309783936 l0.3062533959746361, -7.96258807182312 -2.347942590713501, 0.0 l6.941743493080139, 0.0 -4.389632046222687, -0.6125067919492722 l-3.1646183133125305, 0.0 -2.5521114468574524, 0.3062533959746361 m-1.020844653248787, 6.022983193397522 l-2.65419602394104, 0.10208446532487869 -6.533405780792236, 1.020844653248787 m6.1250680685043335, -0.40833786129951477 l-2.4500271677970886, 2.960449457168579 " fill="none" stroke="black" stroke-width="1" /></svg>