<?xml version="1.0" encoding="utf-8" ?>
<svg baseProfile="full" height="39.196154810488224" version="1.1" width="65.22769451141357" xmlns="http://www.w3.org/2000/svg" xmlns:ev="http://www.w3.org/2001/xml-events" xmlns:xlink="http://www.w3.org/1999/xlink"><defs /><rect fill="white" height="39.196154810488224" width="65.22769451141357" x="0" y="0" /><path d="M48.18172808736563, 17.760556116700172 m-2.041689306497574, 0.3062533959746361 l-4.083378612995148, 1.8375203013420105 -2.1437737345695496, 1.7354358732700348 l-1.020844653248787, 1.5312670171260834 -0.40833786129951477, 3.266702890396118 l0.6125067919492722, 1.8375203013420105 0.8166757225990295, 1.633351445198059 l2.347942590713501, 2.4500271677970886 2.4500271677970886, 1.1229290813207626 l2.8583648800849915, 0.7145912200212479 3.7771251797676086, 0.0 l2.2458581626415253, -0.6125067919492722 5.30839204788208, -3.368787169456482 l1.2250135838985443, -2.041689306497574 0.10208446532487869, -2.8583648800849915 l-0.9187601506710052, -2.5521114468574524 -2.347942590713501, -3.675040602684021 l-1.633351445198059, -1.7354358732700348 -2.8583648800849915, -2.2458581626415253 l-4.79796975851059, -2.041689306497574 -2.1437737345695496, -0.40833786129951477 l-4.4917163252830505, 0.10208446532487869 m-28.073227405548096, 4.1854628920555115 l-2.7562806010246277, 0.9187601506710052 -3.4708717465400696, 2.041689306497574 l-0.9187601506710052, 1.1229290813207626 -0.8166757225990295, 2.347942590713501 l0.20416893064975739, 2.041689306497574 0.6125067919492722, 1.1229290813207626 l2.2458581626415253, 2.5521114468574524 1.7354358732700348, 1.32709801197052 l2.960449457168579, 1.5312670171260834 2.65419602394104, 0.9187601506710052 l2.960449457168579, 0.5104223266243935 4.79796975851059, 0.0 l3.266702890396118, -0.7145912200212479 3.4708717465400696, -1.7354358732700348 l1.8375203013420105, -2.041689306497574 1.020844653248787, -2.347942590713501 l0.5104223266243935, -2.2458581626415253 0.10208446532487869, -3.4708717465400696 l-1.9396047294139862, -4.1854628920555115 -2.1437737345695496, -2.4500271677970886 l-4.900054335594177, -2.960449457168579 -6.227152347564697, -1.9396047294139862 l-5.206307768821716, -0.5104223266243935 -3.5729563236236572, 0.0 l-2.2458581626415253, 1.1229290813207626 -0.6125067919492722, 0.7145912200212479 m17.048105001449585, 9.59593951702118 l3.4708717465400696, 1.32709801197052 5.104222893714905, 0.9187601506710052 l7.656334638595581, 0.5104223266243935 7.758418917655945, 0.0 l-0.6125067919492722, 0.20416893064975739 m-11.943882703781128, -0.9187601506710052 l-0.20416893064975739, -15.51683783531189 m-2.4500271677970886, -0.8166757225990295 l2.041689306497574, 0.0 -0.5104223266243935, 0.10208446532487869 l-0.10208446532487869, 0.5104223266243935 0.6125067919492722, 0.20416893064975739 l3.4708717465400696, 0.20416893064975739 m2.65419602394104, 16.02726101875305 l1.7354358732700348, -7.758418917655945 0.3062533959746361, -8.064672350883484 m-0.20416893064975739, -1.4291824400424957 l0.6125067919492722, -0.20416893064975739 0.3062533959746361, -0.5104223266243935 " fill="none" stroke="black" stroke-width="1" /></svg>