<?xml version="1.0" encoding="utf-8" ?>
<svg baseProfile="full" height="31.335653327405453" version="1.1" width="44.50454901903868" xmlns="http://www.w3.org/2000/svg" xmlns:ev="http://www.w3.org/2001/xml-events" xmlns:xlink="http://www.w3.org/1999/xlink"><defs /><rect fill="white" height="31.335653327405453" width="44.50454901903868" x="0" y="0" /><path d="M18.883486837148666, 16.02512251585722 m-1.32709801197052, -1.1229290813207626 l-2.5521114468574524, -0.5104223266243935 -3.0625340342521667, 0.0 l-1.4291824400424957, 0.40833786129951477 -1.4291824400424957, 0.9187601506710052 l-1.32709801197052, 1.32709801197052 -2.347942590713501, 3.675040602684021 l-0.40833786129951477, 3.0625340342521667 0.5104223266243935, 1.4291824400424957 l1.2250135838985443, 0.8166757225990295 1.7354358732700348, 0.3062533959746361 l2.347942590713501, -0.20416893064975739 2.347942590713501, -1.1229290813207626 l1.9396047294139862, -1.5312670171260834 1.633351445198059, -1.9396047294139862 l1.32709801197052, -3.5729563236236572 0.0, -2.65419602394104 l-1.2250135838985443, -1.9396047294139862 m-2.8583648800849915, 3.7771251797676086 l-4.695885181427002, 5.104222893714905 -2.8583648800849915, 2.2458581626415253 m5.614645481109619, -7.656334638595581 l0.20416893064975739, 1.5312670171260834 0.8166757225990295, 1.32709801197052 l2.8583648800849915, 2.8583648800849915 m-2.65419602394104, -6.839659214019775 l3.8792094588279724, 3.266702890396118 m-3.4708717465400696, -2.960449457168579 l-5.002138614654541, 1.4291824400424957 m30.829508304595947, -1.5312670171260834 l-0.8166757225990295, -0.7145912200212479 -0.9187601506710052, -0.20416893064975739 l-3.0625340342521667, 0.20416893064975739 -2.8583648800849915, 1.633351445198059 l-1.32709801197052, 1.1229290813207626 -1.32709801197052, 1.7354358732700348 l-1.4291824400424957, 3.1646183133125305 -0.20416893064975739, 2.2458581626415253 l0.8166757225990295, 0.7145912200212479 2.7562806010246277, -0.3062533959746361 l2.347942590713501, -2.7562806010246277 1.4291824400424957, -3.266702890396118 l0.40833786129951477, -3.675040602684021 m-5.512561202049255, 6.022983193397522 l2.347942590713501, -3.675040602684021 0.8166757225990295, -0.7145912200212479 m-1.2250135838985443, 2.7562806010246277 l-0.8166757225990295, 1.633351445198059 -0.3062533959746361, 1.5312670171260834 l1.32709801197052, -0.40833786129951477 2.1437737345695496, -1.9396047294139862 l0.5104223266243935, -0.6125067919492722 -0.5104223266243935, 0.0 m0.3062533959746361, -4.083378612995148 l-11.02512240409851, -0.20416893064975739 -3.98129403591156, -0.6125067919492722 l-4.1854628920555115, -1.1229290813207626 m1.4291824400424957, 0.0 l-1.32709801197052, -2.1437737345695496 -1.7354358732700348, -7.247996926307678 " fill="none" stroke="black" stroke-width="1" /></svg>