<?xml version="1.0" encoding="utf-8" ?>
<svg baseProfile="full" height="44.708717092871666" version="1.1" width="65.32977901399136" xmlns="http://www.w3.org/2000/svg" xmlns:ev="http://www.w3.org/2001/xml-events" xmlns:xlink="http://www.w3.org/1999/xlink"><defs /><rect fill="white" height="44.708717092871666" width="65.32977901399136" x="0" y="0" /><path d="M16.127206571400166, 20.721006840467453 m-4.389632046222687, 2.5521114468574524 l-4.287547469139099, 4.083378612995148 -1.9396047294139862, 3.675040602684021 l-0.5104223266243935, 3.5729563236236572 0.20416893064975739, 1.633351445198059 l0.40833786129951477, 1.2250135838985443 0.9187601506710052, 1.020844653248787 l3.4708717465400696, 1.2250135838985443 5.30839204788208, -0.20416893064975739 l5.716729760169983, -2.4500271677970886 3.266702890396118, -3.266702890396118 l0.7145912200212479, -1.4291824400424957 0.7145912200212479, -3.266702890396118 l-0.3062533959746361, -3.1646183133125305 -0.5104223266243935, -1.2250135838985443 l-1.4291824400424957, -1.32709801197052 -5.104222893714905, -3.266702890396118 l-2.7562806010246277, -0.3062533959746361 -0.40833786129951477, 0.6125067919492722 l0.0, 0.9187601506710052 m1.020844653248787, -1.4291824400424957 l2.65419602394104, -3.98129403591156 2.4500271677970886, -1.9396047294139862 l16.53768301010132, 2.4500271677970886 14.087655544281006, -0.10208446532487869 l1.1229290813207626, 6.6354900598526 0.10208446532487869, 3.266702890396118 m-0.6125067919492722, -1.020844653248787 l-2.8583648800849915, 1.1229290813207626 -4.083378612995148, 2.65419602394104 l-1.2250135838985443, 1.633351445198059 -0.40833786129951477, 1.1229290813207626 l0.0, 1.9396047294139862 1.5312670171260834, 1.7354358732700348 l1.32709801197052, 0.9187601506710052 3.7771251797676086, 1.4291824400424957 l4.083378612995148, 0.5104223266243935 2.1437737345695496, -0.40833786129951477 l1.4291824400424957, -0.8166757225990295 1.1229290813207626, -1.1229290813207626 l0.7145912200212479, -2.2458581626415253 0.0, -2.5521114468574524 l-1.020844653248787, -2.041689306497574 -1.5312670171260834, -1.633351445198059 l-1.9396047294139862, -0.9187601506710052 -1.4291824400424957, -0.20416893064975739 l-0.6125067919492722, 0.20416893064975739 -0.7145912200212479, 0.8166757225990295 m-1.1229290813207626, -11.127206087112427 l0.5104223266243935, -0.6125067919492722 2.65419602394104, -1.32709801197052 l2.041689306497574, -1.633351445198059 0.3062533959746361, -2.8583648800849915 l-1.1229290813207626, -4.79796975851059 m-0.10208446532487869, 0.5104223266243935 l-4.695885181427002, 1.020844653248787 m5.30839204788208, -1.5312670171260834 l1.633351445198059, 2.4500271677970886 2.041689306497574, 2.1437737345695496 m-27.052383422851562, 6.022983193397522 l-2.65419602394104, 5.920898914337158 -1.4291824400424957, 2.4500271677970886 l-2.2458581626415253, 2.2458581626415253 -2.2458581626415253, 1.32709801197052 m16.94602131843567, -10.20844578742981 l0.20416893064975739, 1.2250135838985443 2.1437737345695496, 5.002138614654541 l2.4500271677970886, 4.695885181427002 1.9396047294139862, 2.8583648800849915 l2.65419602394104, 2.347942590713501 2.2458581626415253, 0.7145912200212479 l0.40833786129951477, -0.40833786129951477 m-16.129344701766968, -17.966865301132202 l-1.32709801197052, 12.250136137008667 " fill="none" stroke="black" stroke-width="1" /></svg>