<?xml version="1.0" encoding="utf-8" ?>
<svg baseProfile="full" height="25.00641629099846" version="1.1" width="38.58364872634411" xmlns="http://www.w3.org/2000/svg" xmlns:ev="http://www.w3.org/2001/xml-events" xmlns:xlink="http://www.w3.org/1999/xlink"><defs /><rect fill="white" height="25.00641629099846" width="38.58364872634411" x="0" y="0" /><path d="M5.612506791949272, 13.268841579556465 m-0.5104223266243935, 0.6125067919492722 l-0.10208446532487869, 1.1229290813207626 0.20416893064975739, 2.7562806010246277 l1.1229290813207626, 1.2250135838985443 1.32709801197052, 0.8166757225990295 l3.368787169456482, 0.20416893064975739 1.633351445198059, -0.8166757225990295 l1.633351445198059, -1.633351445198059 0.9187601506710052, -1.5312670171260834 l0.40833786129951477, -1.7354358732700348 0.0, -1.5312670171260834 l-0.40833786129951477, -1.2250135838985443 -1.2250135838985443, -1.020844653248787 l-1.5312670171260834, -0.40833786129951477 -1.633351445198059, 0.0 l-1.7354358732700348, 0.6125067919492722 -1.7354358732700348, 1.8375203013420105 l-1.1229290813207626, 2.041689306497574 m15.51683783531189, 1.7354358732700348 l-0.5104223266243935, 0.6125067919492722 -0.20416893064975739, 2.041689306497574 l0.7145912200212479, 0.6125067919492722 1.4291824400424957, 0.40833786129951477 l1.8375203013420105, 0.0 1.9396047294139862, -0.20416893064975739 l2.041689306497574, -0.9187601506710052 3.1646183133125305, -2.1437737345695496 l0.9187601506710052, -1.2250135838985443 0.5104223266243935, -1.2250135838985443 l0.0, -1.32709801197052 -0.40833786129951477, -1.020844653248787 l-1.32709801197052, -0.9187601506710052 -4.287547469139099, 0.10208446532487869 l-2.4500271677970886, 1.32709801197052 -2.2458581626415253, 2.041689306497574 m-9.493855237960815, -9.085517525672913 l-1.5312670171260834, 4.79796975851059 -0.40833786129951477, 3.0625340342521667 m4.695885181427002, -7.860503792762756 l12.964726686477661, -0.10208446532487869 m-0.9187601506710052, 0.9187601506710052 l-0.40833786129951477, 7.554250359535217 m-14.291825294494629, -8.370925784111023 l-3.0625340342521667, -0.40833786129951477 " fill="none" stroke="black" stroke-width="1" /></svg>