<?xml version="1.0" encoding="utf-8" ?>
<svg baseProfile="full" height="36.439875550568104" version="1.1" width="61.85890715569258" xmlns="http://www.w3.org/2000/svg" xmlns:ev="http://www.w3.org/2001/xml-events" xmlns:xlink="http://www.w3.org/1999/xlink"><defs /><rect fill="white" height="36.439875550568104" width="61.85890715569258" x="0" y="0" /><path d="M17.86264196038246, 6.735435612499714 m-5.002138614654541, -0.20416893064975739 l-1.9396047294139862, 1.1229290813207626 -5.104222893714905, 4.287547469139099 l-0.8166757225990295, 2.347942590713501 0.40833786129951477, 1.32709801197052 l1.32709801197052, 1.633351445198059 4.083378612995148, 3.675040602684021 l2.8583648800849915, 2.041689306497574 3.1646183133125305, 1.5312670171260834 l3.266702890396118, 0.7145912200212479 2.8583648800849915, 0.20416893064975739 l2.65419602394104, -0.6125067919492722 1.9396047294139862, -2.7562806010246277 l0.8166757225990295, -3.7771251797676086 -0.20416893064975739, -3.4708717465400696 l-1.8375203013420105, -3.266702890396118 -2.5521114468574524, -2.2458581626415253 l-5.512561202049255, -2.960449457168579 -2.65419602394104, -0.8166757225990295 l-2.4500271677970886, -0.3062533959746361 m38.38375806808472, 1.5312670171260834 l-0.10208446532487869, -1.2250135838985443 -1.4291824400424957, 0.20416893064975739 l-1.4291824400424957, 0.8166757225990295 -3.1646183133125305, 3.7771251797676086 l-1.5312670171260834, 2.8583648800849915 -1.1229290813207626, 3.0625340342521667 l-0.6125067919492722, 3.4708717465400696 -0.10208446532487869, 3.1646183133125305 l0.3062533959746361, 3.0625340342521667 1.5312670171260834, 2.5521114468574524 l2.041689306497574, 1.8375203013420105 2.347942590713501, 1.020844653248787 l2.4500271677970886, 0.10208446532487869 2.1437737345695496, -1.2250135838985443 l1.8375203013420105, -3.368787169456482 1.32709801197052, -5.104222893714905 l0.3062533959746361, -5.30839204788208 -0.3062533959746361, -4.593800902366638 l-1.32709801197052, -3.4708717465400696 -1.32709801197052, -1.9396047294139862 l-1.8375203013420105, -1.1229290813207626 -2.041689306497574, -0.3062533959746361 l-2.5521114468574524, 0.10208446532487869 -2.7562806010246277, 1.5312670171260834 m4.695885181427002, 20.314807891845703 l0.6125067919492722, -0.3062533959746361 1.1229290813207626, -11.229290962219238 l-0.10208446532487869, -8.473010659217834 -0.3062533959746361, -1.1229290813207626 l-0.40833786129951477, 0.0 m-1.4291824400424957, 11.433459520339966 l-5.410476326942444, 0.10208446532487869 -1.020844653248787, 0.6125067919492722 m7.758418917655945, -0.7145912200212479 l0.9187601506710052, 0.5104223266243935 2.1437737345695496, 3.5729563236236572 l2.65419602394104, 3.4708717465400696 m-5.614645481109619, -13.67931842803955 l-0.9187601506710052, -0.7145912200212479 -2.960449457168579, -0.5104223266243935 m7.1459126472473145, 3.98129403591156 l1.1229290813207626, -1.020844653248787 2.65419602394104, -1.4291824400424957 m-35.933730602264404, -3.1646183133125305 l-0.10208446532487869, 1.1229290813207626 -2.2458581626415253, 6.1250680685043335 l-1.4291824400424957, 5.512561202049255 m-0.7145912200212479, -8.26884150505066 l-2.7562806010246277, -0.9187601506710052 -6.1250680685043335, -0.3062533959746361 m10.514699220657349, 3.0625340342521667 l5.920898914337158, 3.5729563236236572 2.4500271677970886, 2.1437737345695496 m-6.227152347564697, -9.698023796081543 l-1.8375203013420105, -1.633351445198059 -2.5521114468574524, -0.7145912200212479 l-1.7354358732700348, -0.10208446532487869 m6.6354900598526, 3.4708717465400696 l5.104222893714905, -0.5104223266243935 2.8583648800849915, 0.0 l0.8166757225990295, 0.3062533959746361 " fill="none" stroke="black" stroke-width="1" /></svg>