<?xml version="1.0" encoding="utf-8" ?>
<svg baseProfile="full" height="47.362913116812706" version="1.1" width="64.61518663913012" xmlns="http://www.w3.org/2000/svg" xmlns:ev="http://www.w3.org/2001/xml-events" xmlns:xlink="http://www.w3.org/1999/xlink"><defs /><rect fill="white" height="47.362913116812706" width="64.61518663913012" x="0" y="0" /><path d="M7.8583649918437, 28.479426093399525 m0.20416893064975739, -4.287547469139099 l1.020844653248787, -2.1437737345695496 1.7354358732700348, -2.2458581626415253 l1.7354358732700348, -2.041689306497574 1.5312670171260834, -1.2250135838985443 l1.32709801197052, -0.7145912200212479 2.5521114468574524, 0.0 l1.4291824400424957, 0.40833786129951477 5.104222893714905, 3.5729563236236572 l1.5312670171260834, 1.7354358732700348 1.32709801197052, 3.266702890396118 l0.3062533959746361, 5.410476326942444 -1.32709801197052, 2.8583648800849915 l-2.2458581626415253, 3.266702890396118 -2.960449457168579, 2.960449457168579 l-2.041689306497574, 1.5312670171260834 -2.5521114468574524, 1.2250135838985443 l-3.98129403591156, 0.3062533959746361 -1.633351445198059, -0.9187601506710052 l-1.4291824400424957, -1.32709801197052 -2.5521114468574524, -3.368787169456482 l-1.1229290813207626, -2.1437737345695496 -0.8166757225990295, -3.266702890396118 l0.0, -1.5312670171260834 0.6125067919492722, -1.8375203013420105 m37.567081451416016, 7.1459126472473145 l-1.4291824400424957, -0.3062533959746361 -0.9187601506710052, -0.8166757225990295 l-0.8166757225990295, -0.9187601506710052 -1.32709801197052, -2.8583648800849915 l-0.10208446532487869, -4.79796975851059 0.20416893064975739, -1.1229290813207626 l1.1229290813207626, -1.2250135838985443 2.960449457168579, -2.2458581626415253 l4.593800902366638, -1.32709801197052 4.695885181427002, -0.10208446532487869 l2.2458581626415253, 0.7145912200212479 1.8375203013420105, 1.32709801197052 l2.5521114468574524, 2.7562806010246277 0.6125067919492722, 1.020844653248787 l0.20416893064975739, 1.1229290813207626 -0.3062533959746361, 3.1646183133125305 l-0.7145912200212479, 1.32709801197052 -2.2458581626415253, 2.2458581626415253 l-3.266702890396118, 2.041689306497574 -4.4917163252830505, 1.2250135838985443 l-1.1229290813207626, 0.0 -5.30839204788208, -2.041689306497574 m-23.071088790893555, -13.781402111053467 l0.0, 7.656334638595581 -0.7145912200212479, 5.614645481109619 l-1.020844653248787, 3.98129403591156 m-6.329236626625061, -8.473010659217834 l16.843936443328857, 0.0 m14.087655544281006, -2.1437737345695496 l17.354358434677124, 0.0 m-10.20844578742981, -5.002138614654541 l-0.20416893064975739, 13.67931842803955 m-23.683595657348633, -16.94602131843567 l2.8583648800849915, -2.8583648800849915 2.347942590713501, -1.8375203013420105 l0.5104223266243935, 0.3062533959746361 1.5312670171260834, 0.0 l2.8583648800849915, -0.5104223266243935 2.2458581626415253, 0.0 l0.6125067919492722, 1.9396047294139862 4.695885181427002, 6.329236626625061 m-12.760558128356934, -8.473010659217834 l-1.7354358732700348, -1.8375203013420105 -7.043827772140503, -5.716729760169983 l-1.4291824400424957, -1.020844653248787 -0.5104223266243935, -0.20416893064975739 l0.10208446532487869, 0.3062533959746361 " fill="none" stroke="black" stroke-width="1" /></svg>