<?xml version="1.0" encoding="utf-8" ?>
<svg baseProfile="full" height="43.68787303566933" version="1.1" width="59.510964564979076" xmlns="http://www.w3.org/2000/svg" xmlns:ev="http://www.w3.org/2001/xml-events" xmlns:xlink="http://www.w3.org/1999/xlink"><defs /><rect fill="white" height="43.68787303566933" width="59.510964564979076" x="0" y="0" /><path d="M13.779263831675053, 25.212723799049854 m0.5104223266243935, -1.4291824400424957 l0.0, -1.1229290813207626 -0.3062533959746361, -0.6125067919492722 l-1.020844653248787, -0.7145912200212479 -1.1229290813207626, -0.5104223266243935 l-1.633351445198059, -0.10208446532487869 -1.4291824400424957, 0.0 l-1.32709801197052, 0.5104223266243935 -1.2250135838985443, 1.020844653248787 l-1.1229290813207626, 2.65419602394104 -0.10208446532487869, 4.287547469139099 l0.3062533959746361, 2.2458581626415253 1.020844653248787, 2.4500271677970886 l1.32709801197052, 2.1437737345695496 2.1437737345695496, 2.2458581626415253 l0.9187601506710052, 0.40833786129951477 4.695885181427002, 0.0 l1.7354358732700348, -0.9187601506710052 1.32709801197052, -1.2250135838985443 l0.7145912200212479, -1.4291824400424957 0.20416893064975739, -3.1646183133125305 l-1.020844653248787, -2.1437737345695496 -3.0625340342521667, -4.1854628920555115 l-2.347942590713501, -2.5521114468574524 m32.0545220375061, 1.633351445198059 l-1.020844653248787, -0.6125067919492722 -3.7771251797676086, 0.10208446532487869 l-1.1229290813207626, 0.5104223266243935 -1.4291824400424957, 2.1437737345695496 l-0.7145912200212479, 3.266702890396118 0.0, 3.5729563236236572 l1.633351445198059, 3.368787169456482 1.8375203013420105, 1.2250135838985443 l2.2458581626415253, 0.0 2.2458581626415253, -1.633351445198059 l1.633351445198059, -2.347942590713501 0.7145912200212479, -2.7562806010246277 l0.0, -4.593800902366638 -2.2458581626415253, -2.2458581626415253 l-1.7354358732700348, -0.5104223266243935 m-23.989849090576172, 10.004277229309082 l12.658473253250122, -1.4291824400424957 5.30839204788208, -0.10208446532487869 m4.287547469139099, -8.881348371505737 l0.7145912200212479, -11.02512240409851 0.0, -5.818814635276794 m-0.6125067919492722, 0.10208446532487869 l-10.9230375289917, 3.5729563236236572 m11.229290962219238, -3.8792094588279724 l8.575094938278198, -1.4291824400424957 3.98129403591156, -0.3062533959746361 m-38.58792781829834, 20.518977642059326 l-0.3062533959746361, -1.1229290813207626 0.20416893064975739, -7.656334638595581 l-0.40833786129951477, -3.4708717465400696 0.0, -1.020844653248787 l0.3062533959746361, -0.3062533959746361 " fill="none" stroke="black" stroke-width="1" /></svg>