<?xml version="1.0" encoding="utf-8" ?>
<svg baseProfile="full" height="26.435598619282246" version="1.1" width="29.90646991878748" xmlns="http://www.w3.org/2000/svg" xmlns:ev="http://www.w3.org/2001/xml-events" xmlns:xlink="http://www.w3.org/1999/xlink"><defs /><rect fill="white" height="26.435598619282246" width="29.90646991878748" x="0" y="0" /><path d="M9.185463078320026, 12.35008142888546 m-2.4500271677970886, 1.8375203013420105 l-1.2250135838985443, 1.7354358732700348 -0.5104223266243935, 1.633351445198059 l0.6125067919492722, 1.2250135838985443 1.4291824400424957, 0.9187601506710052 l2.041689306497574, 0.5104223266243935 2.2458581626415253, -0.10208446532487869 l1.7354358732700348, -0.7145912200212479 0.8166757225990295, -0.9187601506710052 l0.10208446532487869, -1.5312670171260834 -0.7145912200212479, -3.0625340342521667 l-1.2250135838985443, -1.4291824400424957 -1.1229290813207626, -0.40833786129951477 l-2.347942590713501, 0.0 -1.020844653248787, 0.20416893064975739 l-0.10208446532487869, 0.3062533959746361 m2.7562806010246277, 0.0 l5.104222893714905, 0.20416893064975739 4.1854628920555115, 0.9187601506710052 l-1.633351445198059, 2.4500271677970886 -1.633351445198059, 3.4708717465400696 l0.3062533959746361, 0.8166757225990295 0.6125067919492722, 0.5104223266243935 l2.1437737345695496, 0.5104223266243935 2.8583648800849915, -0.5104223266243935 l1.8375203013420105, -1.020844653248787 0.7145912200212479, -1.1229290813207626 l0.20416893064975739, -1.8375203013420105 -0.40833786129951477, -1.32709801197052 l-0.6125067919492722, -0.6125067919492722 -2.347942590713501, -1.2250135838985443 l-2.041689306497574, -0.6125067919492722 -1.9396047294139862, 0.0 m-2.347942590713501, 0.20416893064975739 l4.389632046222687, -5.002138614654541 0.3062533959746361, -1.020844653248787 l-3.8792094588279724, -0.9187601506710052 7.350081205368042, 1.5312670171260834 m-12.556389570236206, 4.287547469139099 l-0.5104223266243935, -7.1459126472473145 -2.960449457168579, 0.0 l-1.633351445198059, 0.40833786129951477 m4.900054335594177, 0.8166757225990295 l1.4291824400424957, -0.7145912200212479 4.593800902366638, -0.6125067919492722 " fill="none" stroke="black" stroke-width="1" /></svg>