<?xml version="1.0" encoding="utf-8" ?>
<svg baseProfile="full" height="48.17958824336529" version="1.1" width="61.042230911552906" xmlns="http://www.w3.org/2000/svg" xmlns:ev="http://www.w3.org/2001/xml-events" xmlns:xlink="http://www.w3.org/1999/xlink"><defs /><rect fill="white" height="48.17958824336529" width="61.042230911552906" x="0" y="0" /><path d="M52.46927469968796, 42.15874295681715 m0.8166757225990295, -0.20416893064975739 l1.32709801197052, -1.2250135838985443 1.1229290813207626, -1.8375203013420105 l0.3062533959746361, -1.32709801197052 0.0, -4.1854628920555115 l-0.6125067919492722, -1.7354358732700348 -1.020844653248787, -1.32709801197052 l-3.675040602684021, -2.1437737345695496 -2.347942590713501, -0.40833786129951477 l-4.083378612995148, 0.20416893064975739 -1.020844653248787, 0.8166757225990295 l-0.5104223266243935, 1.020844653248787 -0.20416893064975739, 6.1250680685043335 l1.020844653248787, 2.65419602394104 1.1229290813207626, 1.7354358732700348 l1.2250135838985443, 1.1229290813207626 1.1229290813207626, 0.6125067919492722 l1.32709801197052, 0.20416893064975739 2.960449457168579, -0.10208446532487869 l1.7354358732700348, -0.8166757225990295 0.6125067919492722, -1.32709801197052 l-0.20416893064975739, -1.2250135838985443 m-38.179588317871094, 2.7562806010246277 l3.266702890396118, 0.0 0.8166757225990295, -0.6125067919492722 l1.020844653248787, -2.2458581626415253 0.10208446532487869, -3.98129403591156 l-0.5104223266243935, -2.65419602394104 -1.633351445198059, -2.2458581626415253 l-2.2458581626415253, -1.9396047294139862 -2.7562806010246277, -0.9187601506710052 l-3.0625340342521667, -0.10208446532487869 -2.7562806010246277, 0.6125067919492722 l-1.633351445198059, 2.2458581626415253 -0.7145912200212479, 2.65419602394104 l-0.20416893064975739, 2.2458581626415253 0.3062533959746361, 2.041689306497574 l1.9396047294139862, 4.287547469139099 1.32709801197052, 1.1229290813207626 l1.7354358732700348, 0.8166757225990295 1.633351445198059, 0.3062533959746361 l1.8375203013420105, -0.3062533959746361 3.1646183133125305, -2.2458581626415253 l1.2250135838985443, -0.5104223266243935 m25.41903018951416, -11.433459520339966 l-0.7145912200212479, -1.4291824400424957 -6.839659214019775, -6.431320905685425 l-1.7354358732700348, -1.5312670171260834 -0.5104223266243935, -0.10208446532487869 l-12.250136137008667, 0.3062533959746361 -0.3062533959746361, 0.5104223266243935 l0.20416893064975739, 1.8375203013420105 -0.5104223266243935, 0.8166757225990295 l-4.79796975851059, 6.1250680685043335 -0.3062533959746361, -0.20416893064975739 m17.966865301132202, -9.187601804733276 l5.818814635276794, -5.30839204788208 5.614645481109619, -6.329236626625061 m3.675040602684021, 2.041689306497574 l-0.40833786129951477, -0.7145912200212479 -1.7354358732700348, -1.32709801197052 l-4.1854628920555115, -2.65419602394104 -0.6125067919492722, -0.10208446532487869 m-13.883486986160278, 15.312669277191162 l0.0, 1.2250135838985443 1.1229290813207626, 4.1854628920555115 m1.4291824400424957, -0.10208446532487869 l0.7145912200212479, 0.0 -3.7771251797676086, 1.633351445198059 l1.2250135838985443, -0.9187601506710052 2.041689306497574, -0.7145912200212479 " fill="none" stroke="black" stroke-width="1" /></svg>