<?xml version="1.0" encoding="utf-8" ?>
<svg baseProfile="full" height="34.398185797035694" version="1.1" width="60.021385960280895" xmlns="http://www.w3.org/2000/svg" xmlns:ev="http://www.w3.org/2001/xml-events" xmlns:xlink="http://www.w3.org/1999/xlink"><defs /><rect fill="white" height="34.398185797035694" width="60.021385960280895" x="0" y="0" /><path d="M18.2709801197052, 13.166756220161915 m-6.737574338912964, 0.40833786129951477 l-3.266702890396118, 1.2250135838985443 -1.5312670171260834, 1.32709801197052 l-1.7354358732700348, 3.266702890396118 0.20416893064975739, 2.2458581626415253 l1.2250135838985443, 1.633351445198059 0.6125067919492722, 0.20416893064975739 l0.40833786129951477, 0.6125067919492722 2.8583648800849915, 1.2250135838985443 l5.716729760169983, 1.32709801197052 3.368787169456482, 0.0 l3.1646183133125305, -0.9187601506710052 2.041689306497574, -1.5312670171260834 l2.041689306497574, -2.7562806010246277 0.0, -2.1437737345695496 l-1.020844653248787, -1.633351445198059 -2.65419602394104, -2.041689306497574 l-4.900054335594177, -1.7354358732700348 m27.869057655334473, 2.4500271677970886 l-3.7771251797676086, 0.10208446532487869 -1.633351445198059, 0.5104223266243935 l-3.1646183133125305, 1.633351445198059 -1.1229290813207626, 1.1229290813207626 l-1.633351445198059, 2.8583648800849915 -0.5104223266243935, 2.960449457168579 l0.7145912200212479, 1.8375203013420105 1.633351445198059, 1.2250135838985443 l2.8583648800849915, 0.8166757225990295 2.4500271677970886, 0.0 l5.920898914337158, -0.8166757225990295 3.0625340342521667, -1.2250135838985443 l1.2250135838985443, -0.8166757225990295 2.4500271677970886, -3.1646183133125305 l0.6125067919492722, -2.1437737345695496 0.0, -1.1229290813207626 l-0.5104223266243935, -1.2250135838985443 -0.9187601506710052, -0.9187601506710052 l-3.675040602684021, -1.8375203013420105 -2.65419602394104, -0.8166757225990295 l-3.266702890396118, 0.3062533959746361 m-16.94602131843567, 4.593800902366638 l8.370925784111023, 0.8166757225990295 m-14.495993852615356, -6.737574338912964 l2.8583648800849915, -1.4291824400424957 4.083378612995148, -1.32709801197052 l4.083378612995148, -2.4500271677970886 m0.8166757225990295, 11.33137583732605 l0.8166757225990295, -1.5312670171260834 2.5521114468574524, -7.656334638595581 l0.3062533959746361, -0.20416893064975739 m-5.614645481109619, 0.0 l2.347942590713501, -6.022983193397522 m2.041689306497574, 5.614645481109619 l4.4917163252830505, -0.20416893064975739 -4.4917163252830505, 0.20416893064975739 " fill="none" stroke="black" stroke-width="1" /></svg>