<?xml version="1.0" encoding="utf-8" ?>
<svg baseProfile="full" height="51.24212361872196" version="1.1" width="66.04437083005905" xmlns="http://www.w3.org/2000/svg" xmlns:ev="http://www.w3.org/2001/xml-events" xmlns:xlink="http://www.w3.org/1999/xlink"><defs /><rect fill="white" height="51.24212361872196" width="66.04437083005905" x="0" y="0" /><path d="M11.431321501731873, 30.929454192519188 m-2.2458581626415253, 1.2250135838985443 l-1.5312670171260834, 2.1437737345695496 -0.5104223266243935, 1.8375203013420105 l-0.20416893064975739, 3.8792094588279724 0.3062533959746361, 1.633351445198059 l0.8166757225990295, 1.32709801197052 1.020844653248787, 1.2250135838985443 l1.5312670171260834, 1.020844653248787 3.0625340342521667, 1.020844653248787 l5.716729760169983, -0.3062533959746361 1.7354358732700348, -0.9187601506710052 l3.1646183133125305, -2.4500271677970886 2.2458581626415253, -3.8792094588279724 l0.5104223266243935, -2.2458581626415253 0.10208446532487869, -3.8792094588279724 l-0.6125067919492722, -1.633351445198059 -1.2250135838985443, -1.2250135838985443 l-1.633351445198059, -1.1229290813207626 -4.287547469139099, -1.020844653248787 l-2.4500271677970886, 0.0 -2.5521114468574524, 0.5104223266243935 l-4.4917163252830505, 1.9396047294139862 -1.8375203013420105, 1.4291824400424957 l-2.347942590713501, 2.8583648800849915 m11.739712953567505, -4.79796975851059 l0.20416893064975739, 9.698023796081543 -0.40833786129951477, 3.4708717465400696 m-6.022983193397522, -6.1250680685043335 l3.675040602684021, -0.40833786129951477 8.677179217338562, -2.4500271677970886 m25.521116256713867, -8.677179217338562 l-0.8166757225990295, 0.3062533959746361 -1.7354358732700348, 1.9396047294139862 l-2.1437737345695496, 4.1854628920555115 -0.5104223266243935, 2.2458581626415253 l-0.20416893064975739, 4.287547469139099 0.3062533959746361, 1.7354358732700348 l1.1229290813207626, 1.633351445198059 1.32709801197052, 1.32709801197052 l3.266702890396118, 1.633351445198059 3.368787169456482, 0.20416893064975739 l1.633351445198059, -0.5104223266243935 1.633351445198059, -1.1229290813207626 l1.5312670171260834, -1.5312670171260834 1.2250135838985443, -2.041689306497574 l1.7354358732700348, -4.593800902366638 0.20416893064975739, -4.287547469139099 l-0.8166757225990295, -1.4291824400424957 -1.4291824400424957, -1.32709801197052 l-1.4291824400424957, -0.7145912200212479 -1.9396047294139862, -0.5104223266243935 l-2.5521114468574524, -0.10208446532487869 m-0.5104223266243935, -0.40833786129951477 l-0.40833786129951477, 7.247996926307678 0.10208446532487869, 9.085517525672913 m-6.839659214019775, -8.26884150505066 l2.8583648800849915, 0.6125067919492722 6.533405780792236, -0.10208446532487869 l2.960449457168579, -0.6125067919492722 1.7354358732700348, -0.7145912200212479 m-14.598078727722168, -3.0625340342521667 l-8.779264092445374, -6.941743493080139 -2.65419602394104, -1.633351445198059 l-4.79796975851059, 2.2458581626415253 -7.247996926307678, 3.98129403591156 m-16.23142957687378, -8.473010659217834 l24.500272274017334, 0.9187601506710052 15.312669277191162, 0.10208446532487869 m-3.98129403591156, 0.0 l-0.6125067919492722, -15.312669277191162 " fill="none" stroke="black" stroke-width="1" /></svg>