<?xml version="1.0" encoding="utf-8" ?>
<svg baseProfile="full" height="36.54196038842201" version="1.1" width="46.23998489230871" xmlns="http://www.w3.org/2000/svg" xmlns:ev="http://www.w3.org/2001/xml-events" xmlns:xlink="http://www.w3.org/1999/xlink"><defs /><rect fill="white" height="36.54196038842201" width="46.23998489230871" x="0" y="0" /><path d="M14.289685934782028, 17.25013542920351 m-5.716729760169983, 0.10208446532487869 l-2.347942590713501, 2.2458581626415253 -1.2250135838985443, 2.5521114468574524 l0.0, 2.041689306497574 1.8375203013420105, 1.8375203013420105 l2.5521114468574524, 1.7354358732700348 2.041689306497574, 0.20416893064975739 l1.5312670171260834, -0.6125067919492722 1.32709801197052, -1.32709801197052 l0.40833786129951477, -3.5729563236236572 -0.8166757225990295, -2.5521114468574524 l-2.5521114468574524, -2.347942590713501 m29.60449457168579, 2.960449457168579 l-3.7771251797676086, -0.20416893064975739 -2.041689306497574, 0.8166757225990295 l-1.4291824400424957, 1.4291824400424957 -1.2250135838985443, 2.041689306497574 l-0.7145912200212479, 2.65419602394104 0.3062533959746361, 1.5312670171260834 l1.633351445198059, 1.5312670171260834 2.041689306497574, 1.2250135838985443 l1.5312670171260834, 0.0 2.1437737345695496, -1.633351445198059 l1.020844653248787, -1.020844653248787 0.8166757225990295, -1.633351445198059 l-0.10208446532487869, -3.1646183133125305 -0.9187601506710052, -2.8583648800849915 m-30.72742462158203, 0.6125067919492722 l-0.10208446532487869, -0.20416893064975739 m26.337790489196777, 4.083378612995148 l0.5104223266243935, 0.0 m-27.052383422851562, -3.98129403591156 l3.675040602684021, -2.7562806010246277 4.287547469139099, -4.389632046222687 l3.98129403591156, -0.10208446532487869 7.247996926307678, 1.1229290813207626 l3.1646183133125305, 0.5104223266243935 1.020844653248787, 0.7145912200212479 l3.4708717465400696, 6.839659214019775 0.8166757225990295, 2.4500271677970886 m-4.4917163252830505, -10.106362104415894 l1.020844653248787, -0.20416893064975739 1.4291824400424957, -1.4291824400424957 l0.5104223266243935, -1.633351445198059 0.5104223266243935, -5.002138614654541 m0.0, 0.0 l-1.633351445198059, -0.8166757225990295 -1.8375203013420105, -1.9396047294139862 m3.266702890396118, 1.9396047294139862 l0.6125067919492722, -0.10208446532487869 0.8166757225990295, -1.32709801197052 m-13.67931842803955, 9.085517525672913 l-0.9187601506710052, -2.041689306497574 " fill="none" stroke="black" stroke-width="1" /></svg>