<?xml version="1.0" encoding="utf-8" ?>
<svg baseProfile="full" height="35.92945348471403" version="1.1" width="46.95457551628351" xmlns="http://www.w3.org/2000/svg" xmlns:ev="http://www.w3.org/2001/xml-events" xmlns:xlink="http://www.w3.org/1999/xlink"><defs /><rect fill="white" height="35.92945348471403" width="46.95457551628351" x="0" y="0" /><path d="M11.329236440360546, 17.454304359853268 m0.0, -0.5104223266243935 l0.5104223266243935, -0.40833786129951477 3.4708717465400696, 0.10208446532487869 l2.7562806010246277, 0.7145912200212479 1.5312670171260834, 1.32709801197052 l0.8166757225990295, 1.2250135838985443 0.40833786129951477, 1.32709801197052 l0.0, 2.347942590713501 -0.6125067919492722, 1.9396047294139862 l-1.020844653248787, 1.633351445198059 -1.633351445198059, 1.5312670171260834 l-1.9396047294139862, 1.2250135838985443 -2.2458581626415253, 0.8166757225990295 l-1.7354358732700348, 0.20416893064975739 -1.2250135838985443, -0.40833786129951477 l-1.9396047294139862, -1.32709801197052 -1.9396047294139862, -2.4500271677970886 l-1.5312670171260834, -3.1646183133125305 0.0, -2.4500271677970886 l4.4917163252830505, -4.1854628920555115 0.6125067919492722, -0.3062533959746361 l2.1437737345695496, -0.10208446532487869 m21.8460750579834, 0.3062533959746361 l0.9187601506710052, -0.9187601506710052 1.1229290813207626, -0.10208446532487869 l3.4708717465400696, 2.4500271677970886 1.4291824400424957, 1.4291824400424957 l0.6125067919492722, 1.2250135838985443 0.3062533959746361, 3.368787169456482 l-1.32709801197052, 2.65419602394104 -0.9187601506710052, 1.020844653248787 l-4.593800902366638, 1.9396047294139862 -2.960449457168579, 0.5104223266243935 l-2.7562806010246277, 0.0 -1.2250135838985443, -0.20416893064975739 l-1.2250135838985443, -0.8166757225990295 -1.4291824400424957, -2.4500271677970886 l-0.5104223266243935, -2.041689306497574 0.0, -2.347942590713501 l0.5104223266243935, -1.9396047294139862 1.2250135838985443, -2.347942590713501 l1.633351445198059, -1.020844653248787 5.512561202049255, -0.3062533959746361 l1.020844653248787, -0.6125067919492722 m-22.86691904067993, 4.593800902366638 l1.1229290813207626, -0.6125067919492722 5.512561202049255, -6.431320905685425 l2.4500271677970886, -0.40833786129951477 7.758418917655945, -0.20416893064975739 l1.633351445198059, 1.32709801197052 1.9396047294139862, 3.1646183133125305 l2.65419602394104, 3.4708717465400696 m-7.656334638595581, -8.983432650566101 l2.2458581626415253, -0.3062533959746361 6.227152347564697, -5.206307768821716 l0.3062533959746361, -1.020844653248787 -0.8166757225990295, -0.7145912200212479 m-13.883486986160278, 8.26884150505066 l0.5104223266243935, -2.1437737345695496 0.0, -2.8583648800849915 l-1.633351445198059, -0.10208446532487869 -0.6125067919492722, -0.9187601506710052 m0.0, -1.2250135838985443 l2.2458581626415253, -0.5104223266243935 1.5312670171260834, 0.8166757225990295 l0.20416893064975739, 0.5104223266243935 -0.5104223266243935, 0.3062533959746361 l-1.633351445198059, 0.0 -1.2250135838985443, -0.6125067919492722 " fill="none" stroke="black" stroke-width="1" /></svg>