<?xml version="1.0" encoding="utf-8" ?>
<svg baseProfile="full" height="38.481564931571484" version="1.1" width="65.73811642825603" xmlns="http://www.w3.org/2000/svg" xmlns:ev="http://www.w3.org/2001/xml-events" xmlns:xlink="http://www.w3.org/1999/xlink"><defs /><rect fill="white" height="38.481564931571484" width="65.73811642825603" x="0" y="0" /><path d="M51.14217806607485, 10.104222744703293 m-5.512561202049255, 1.2250135838985443 l-1.4291824400424957, 0.6125067919492722 -1.2250135838985443, 1.020844653248787 l-1.020844653248787, 1.5312670171260834 -0.8166757225990295, 2.1437737345695496 l-0.9187601506710052, 2.65419602394104 -0.3062533959746361, 2.2458581626415253 l-0.10208446532487869, 2.5521114468574524 0.5104223266243935, 2.2458581626415253 l1.1229290813207626, 2.041689306497574 1.8375203013420105, 1.633351445198059 l2.1437737345695496, 0.7145912200212479 2.041689306497574, 0.10208446532487869 l1.7354358732700348, -0.40833786129951477 3.368787169456482, -2.4500271677970886 l2.347942590713501, -3.266702890396118 1.4291824400424957, -3.98129403591156 l0.3062533959746361, -4.593800902366638 -2.041689306497574, -2.4500271677970886 l-1.8375203013420105, -1.020844653248787 -2.8583648800849915, -0.9187601506710052 l-1.7354358732700348, -0.20416893064975739 m-4.4917163252830505, 2.4500271677970886 l1.4291824400424957, 2.5521114468574524 2.347942590713501, 3.0625340342521667 l7.758418917655945, 8.473010659217834 m-1.8375203013420105, -14.189740419387817 l-2.7562806010246277, 1.9396047294139862 -1.020844653248787, 1.2250135838985443 l-3.266702890396118, 4.695885181427002 -4.389632046222687, 8.064672350883484 l-1.2250135838985443, 1.8375203013420105 -0.3062533959746361, -0.8166757225990295 m7.860503792762756, -20.314807891845703 l-0.6125067919492722, 3.368787169456482 -0.5104223266243935, 6.227152347564697 l-0.3062533959746361, 13.373064994812012 m-9.085517525672913, -11.739712953567505 l7.4521660804748535, -0.5104223266243935 6.431320905685425, -1.633351445198059 l3.7771251797676086, -0.6125067919492722 2.960449457168579, -0.10208446532487869 l2.347942590713501, 0.5104223266243935 m-11.229290962219238, -8.370925784111023 l-7.350081205368042, -0.20416893064975739 -13.57723355293274, 1.020844653248787 l-6.839659214019775, 0.0 -5.716729760169983, -0.5104223266243935 l-7.043827772140503, 0.10208446532487869 -1.32709801197052, 0.9187601506710052 l-1.9396047294139862, 3.4708717465400696 -0.7145912200212479, 3.675040602684021 l0.0, 3.675040602684021 0.7145912200212479, 1.5312670171260834 l1.1229290813207626, 1.2250135838985443 1.7354358732700348, 1.1229290813207626 l1.8375203013420105, 0.7145912200212479 4.287547469139099, 0.10208446532487869 l2.1437737345695496, -0.8166757225990295 1.9396047294139862, -1.5312670171260834 l1.7354358732700348, -1.9396047294139862 1.1229290813207626, -2.041689306497574 l0.7145912200212479, -2.2458581626415253 0.10208446532487869, -4.695885181427002 l-1.7354358732700348, -3.266702890396118 -2.4500271677970886, -1.5312670171260834 l-1.7354358732700348, -0.20416893064975739 -1.8375203013420105, 0.0 l-1.7354358732700348, 0.40833786129951477 -2.347942590713501, 1.633351445198059 l-0.8166757225990295, 1.9396047294139862 m1.4291824400424957, -2.4500271677970886 l-0.6125067919492722, 1.1229290813207626 0.20416893064975739, 0.8166757225990295 l3.1646183133125305, 4.79796975851059 0.8166757225990295, 1.7354358732700348 l1.32709801197052, 3.98129403591156 3.4708717465400696, 7.554250359535217 l0.0, 1.1229290813207626 m1.7354358732700348, -22.152328491210938 l-2.8583648800849915, 1.5312670171260834 -4.287547469139099, 4.1854628920555115 l-5.716729760169983, 7.554250359535217 -1.7354358732700348, 3.1646183133125305 m5.716729760169983, -18.98771047592163 l1.5312670171260834, 1.9396047294139862 0.9187601506710052, 2.65419602394104 l0.6125067919492722, 17.558528184890747 m-7.758418917655945, -8.370925784111023 l6.022983193397522, -0.8166757225990295 4.389632046222687, -0.10208446532487869 l8.370925784111023, 1.4291824400424957 m-8.064672350883484, -8.473010659217834 l-1.4291824400424957, -0.6125067919492722 -0.9187601506710052, -1.32709801197052 l-0.6125067919492722, -2.4500271677970886 -0.10208446532487869, -3.98129403591156 " fill="none" stroke="black" stroke-width="1" /></svg>