<?xml version="1.0" encoding="utf-8" ?>
<svg baseProfile="full" height="32.458581291139126" version="1.1" width="41.6461842879653" xmlns="http://www.w3.org/2000/svg" xmlns:ev="http://www.w3.org/2001/xml-events" xmlns:xlink="http://www.w3.org/1999/xlink"><defs /><rect fill="white" height="32.458581291139126" width="41.6461842879653" x="0" y="0" /><path d="M7.858364917337894, 26.335652507841587 m-2.347942590713501, -4.287547469139099 l-0.5104223266243935, -1.8375203013420105 0.6125067919492722, -1.4291824400424957 l1.633351445198059, -1.4291824400424957 2.2458581626415253, -0.9187601506710052 l1.1229290813207626, -0.10208446532487869 2.960449457168579, 0.3062533959746361 l1.2250135838985443, 0.7145912200212479 0.9187601506710052, 1.2250135838985443 l0.8166757225990295, 2.4500271677970886 -0.40833786129951477, 2.347942590713501 l-1.2250135838985443, 1.4291824400424957 -1.8375203013420105, 1.1229290813207626 l-3.4708717465400696, 0.7145912200212479 -2.041689306497574, -1.8375203013420105 m20.518977642059326, 1.4291824400424957 l-2.5521114468574524, -3.266702890396118 -0.3062533959746361, -1.5312670171260834 l0.6125067919492722, -2.1437737345695496 1.1229290813207626, -1.020844653248787 l2.041689306497574, -0.9187601506710052 1.7354358732700348, 0.0 l1.32709801197052, 0.3062533959746361 3.4708717465400696, 1.9396047294139862 l0.7145912200212479, 0.7145912200212479 0.40833786129951477, 1.32709801197052 l-0.7145912200212479, 2.65419602394104 -2.347942590713501, 2.8583648800849915 l-1.5312670171260834, 0.3062533959746361 -2.7562806010246277, 0.0 l-1.2250135838985443, -0.20416893064975739 m-18.57937216758728, -7.758418917655945 l0.0, 0.0 m3.1646183133125305, -3.4708717465400696 l1.5312670171260834, -6.431320905685425 0.20416893064975739, -0.40833786129951477 l1.32709801197052, 0.0 m-0.8166757225990295, 0.0 l-1.2250135838985443, -1.5312670171260834 -0.10208446532487869, -2.5521114468574524 l0.5104223266243935, -0.10208446532487869 2.041689306497574, 0.6125067919492722 m-0.8166757225990295, 4.389632046222687 l0.9187601506710052, 0.6125067919492722 0.9187601506710052, -0.20416893064975739 m0.5104223266243935, 0.8166757225990295 l10.412615537643433, 0.0 0.5104223266243935, 0.20416893064975739 l0.6125067919492722, 1.020844653248787 1.7354358732700348, 4.287547469139099 m-3.368787169456482, -8.26884150505066 l-0.6125067919492722, 1.020844653248787 0.0, 1.1229290813207626 l1.1229290813207626, 0.20416893064975739 1.32709801197052, -0.3062533959746361 l0.8166757225990295, -1.4291824400424957 -0.10208446532487869, -0.9187601506710052 l-0.5104223266243935, -0.3062533959746361 -1.5312670171260834, 0.20416893064975739 " fill="none" stroke="black" stroke-width="1" /></svg>