<?xml version="1.0" encoding="utf-8" ?>
<svg baseProfile="full" height="39.70657981932163" version="1.1" width="67.065216191113" xmlns="http://www.w3.org/2000/svg" xmlns:ev="http://www.w3.org/2001/xml-events" xmlns:xlink="http://www.w3.org/1999/xlink"><defs /><rect fill="white" height="39.70657981932163" width="67.065216191113" x="0" y="0" /><path d="M11.83965913951397, 19.29182555526495 m0.6125067919492722, -1.1229290813207626 l1.2250135838985443, -1.1229290813207626 1.4291824400424957, -0.8166757225990295 l1.8375203013420105, -0.40833786129951477 1.633351445198059, 0.0 l0.8166757225990295, 0.40833786129951477 2.65419602394104, 2.7562806010246277 l1.7354358732700348, 3.7771251797676086 0.20416893064975739, 4.083378612995148 l-0.10208446532487869, 1.1229290813207626 -0.8166757225990295, 2.041689306497574 l-1.7354358732700348, 2.7562806010246277 -1.32709801197052, 1.1229290813207626 l-2.8583648800849915, 0.7145912200212479 -6.227152347564697, 0.10208446532487869 l-2.960449457168579, -1.32709801197052 -2.4500271677970886, -2.7562806010246277 l-0.3062533959746361, -0.7145912200212479 -0.20416893064975739, -3.1646183133125305 l0.20416893064975739, -1.4291824400424957 1.020844653248787, -2.347942590713501 l2.4500271677970886, -2.8583648800849915 2.347942590713501, -1.5312670171260834 l2.041689306497574, -0.40833786129951477 m1.8375203013420105, -1.020844653248787 l-0.10208446532487869, 8.677179217338562 0.8166757225990295, 6.227152347564697 m-10.514699220657349, -5.002138614654541 l9.391770362854004, 0.0 8.881348371505737, 0.5104223266243935 m-16.741851568222046, -6.839659214019775 l1.5312670171260834, 2.4500271677970886 2.8583648800849915, 2.960449457168579 l2.5521114468574524, 1.9396047294139862 3.368787169456482, 1.9396047294139862 l2.1437737345695496, 1.9396047294139862 0.10208446532487869, -0.6125067919492722 m27.97114372253418, -13.883486986160278 l0.3062533959746361, -0.5104223266243935 1.4291824400424957, -0.40833786129951477 l4.900054335594177, 0.0 4.287547469139099, 2.1437737345695496 l2.347942590713501, 2.5521114468574524 1.4291824400424957, 3.0625340342521667 l0.20416893064975739, 3.675040602684021 -1.633351445198059, 3.1646183133125305 l-2.1437737345695496, 1.7354358732700348 -2.041689306497574, 1.020844653248787 l-3.266702890396118, 0.8166757225990295 -4.083378612995148, 0.0 l-3.0625340342521667, -1.32709801197052 -1.4291824400424957, -1.4291824400424957 l-2.041689306497574, -3.4708717465400696 -0.5104223266243935, -1.32709801197052 l-0.3062533959746361, -2.7562806010246277 0.7145912200212479, -2.4500271677970886 l2.5521114468574524, -3.266702890396118 2.5521114468574524, -2.041689306497574 l1.7354358732700348, -0.5104223266243935 m3.675040602684021, 1.020844653248787 l1.4291824400424957, 14.087655544281006 m-10.310530662536621, -5.206307768821716 l15.414754152297974, 0.9187601506710052 m-15.92517614364624, -6.533405780792236 l2.7562806010246277, 2.2458581626415253 3.266702890396118, 3.5729563236236572 l5.716729760169983, 4.4917163252830505 m-8.26884150505066, 0.8166757225990295 l0.40833786129951477, -0.9187601506710052 3.675040602684021, -3.4708717465400696 l6.941743493080139, -4.1854628920555115 m-35.933730602264404, 0.7145912200212479 l12.964726686477661, -1.020844653248787 7.247996926307678, 0.0 l5.818814635276794, 0.8166757225990295 m-35.321223735809326, -6.737574338912964 l11.739712953567505, -3.675040602684021 6.227152347564697, -1.1229290813207626 l7.247996926307678, 0.20416893064975739 5.512561202049255, 0.9187601506710052 l2.960449457168579, 1.8375203013420105 1.020844653248787, 1.633351445198059 m-18.171035051345825, -4.4917163252830505 l-1.1229290813207626, -5.512561202049255 1.9396047294139862, 6.737574338912964 l-0.3062533959746361, -2.65419602394104 -1.020844653248787, -2.8583648800849915 l-1.9396047294139862, -1.2250135838985443 -4.1854628920555115, -0.5104223266243935 l1.4291824400424957, -0.40833786129951477 7.554250359535217, -0.6125067919492722 l-8.575094938278198, 3.675040602684021 " fill="none" stroke="black" stroke-width="1" /></svg>