<?xml version="1.0" encoding="utf-8" ?>
<svg baseProfile="full" height="27.966866120696068" version="1.1" width="49.09834861755371" xmlns="http://www.w3.org/2000/svg" xmlns:ev="http://www.w3.org/2001/xml-events" xmlns:xlink="http://www.w3.org/1999/xlink"><defs /><rect fill="white" height="27.966866120696068" width="49.09834861755371" x="0" y="0" /><path d="M11.227152198553085, 8.777125030755997 m5.614645481109619, -1.8375203013420105 l12.86264181137085, -1.9396047294139862 5.614645481109619, 0.0 l-0.20416893064975739, 4.083378612995148 -0.6125067919492722, 3.1646183133125305 m0.0, 0.8166757225990295 l-2.2458581626415253, 0.6125067919492722 -0.9187601506710052, 0.9187601506710052 l0.10208446532487869, 1.8375203013420105 0.9187601506710052, 3.266702890396118 l1.1229290813207626, 1.32709801197052 2.1437737345695496, 0.8166757225990295 l1.8375203013420105, 0.0 1.32709801197052, -0.3062533959746361 l0.7145912200212479, -0.6125067919492722 0.5104223266243935, -2.2458581626415253 l-0.20416893064975739, -2.65419602394104 -1.9396047294139862, -3.1646183133125305 l-1.633351445198059, -1.1229290813207626 -1.633351445198059, 0.10208446532487869 l-0.6125067919492722, 0.7145912200212479 m1.8375203013420105, -6.737574338912964 l4.1854628920555115, 5.512561202049255 m0.10208446532487869, -1.32709801197052 l-0.6125067919492722, 1.8375203013420105 0.0, 1.32709801197052 l0.5104223266243935, 1.32709801197052 2.1437737345695496, 0.8166757225990295 l1.020844653248787, -0.20416893064975739 0.9187601506710052, -1.4291824400424957 l0.0, -1.8375203013420105 -0.7145912200212479, -1.633351445198059 l-1.8375203013420105, -1.633351445198059 -1.4291824400424957, 0.0 l-1.7354358732700348, 0.9187601506710052 -0.8166757225990295, 1.7354358732700348 l0.0, 0.9187601506710052 m-26.03153705596924, -4.4917163252830505 l-1.7354358732700348, 3.5729563236236572 -1.020844653248787, 4.1854628920555115 m1.8375203013420105, -1.7354358732700348 l-2.041689306497574, 0.5104223266243935 -1.32709801197052, 1.020844653248787 l-1.1229290813207626, 1.8375203013420105 -0.20416893064975739, 1.7354358732700348 l0.9187601506710052, 2.041689306497574 1.8375203013420105, 1.8375203013420105 l2.5521114468574524, 0.3062533959746361 1.2250135838985443, -0.3062533959746361 l0.6125067919492722, -0.9187601506710052 0.0, -1.9396047294139862 l-1.2250135838985443, -3.98129403591156 -1.7354358732700348, -2.2458581626415253 l-0.9187601506710052, 0.0 -0.40833786129951477, 0.9187601506710052 m2.4500271677970886, -5.614645481109619 l0.8166757225990295, 3.368787169456482 0.6125067919492722, 0.9187601506710052 l0.40833786129951477, 0.0 -0.7145912200212479, 0.7145912200212479 l0.10208446532487869, 1.1229290813207626 1.9396047294139862, 3.0625340342521667 l0.8166757225990295, 0.5104223266243935 1.4291824400424957, 0.10208446532487869 l0.9187601506710052, -0.5104223266243935 0.3062533959746361, -0.7145912200212479 l0.3062533959746361, -3.1646183133125305 -0.40833786129951477, -2.1437737345695496 l-0.9187601506710052, -0.7145912200212479 -1.5312670171260834, -0.40833786129951477 l-2.1437737345695496, 0.10208446532487869 -0.40833786129951477, 0.20416893064975739 l0.20416893064975739, 0.3062533959746361 m-2.7562806010246277, 3.266702890396118 l0.0, 0.0 m-0.20416893064975739, 3.7771251797676086 l-0.8166757225990295, -4.1854628920555115 0.0, -1.5312670171260834 m0.3062533959746361, 7.96258807182312 l3.266702890396118, -1.633351445198059 m-3.368787169456482, 0.8166757225990295 l-3.0625340342521667, -0.6125067919492722 -1.32709801197052, -0.7145912200212479 " fill="none" stroke="black" stroke-width="1" /></svg>