<?xml version="1.0" encoding="utf-8" ?>
<svg baseProfile="full" height="36.031538024544716" version="1.1" width="44.6066327765584" xmlns="http://www.w3.org/2000/svg" xmlns:ev="http://www.w3.org/2001/xml-events" xmlns:xlink="http://www.w3.org/1999/xlink"><defs /><rect fill="white" height="36.031538024544716" width="44.6066327765584" x="0" y="0" /><path d="M12.452165745198727, 20.006416030228138 m-4.4917163252830505, 0.0 l-1.1229290813207626, 0.6125067919492722 -1.32709801197052, 2.1437737345695496 l-0.5104223266243935, 2.7562806010246277 0.20416893064975739, 2.5521114468574524 l1.020844653248787, 1.1229290813207626 2.5521114468574524, 1.32709801197052 l4.287547469139099, 0.5104223266243935 3.1646183133125305, -0.3062533959746361 l1.9396047294139862, -1.633351445198059 1.2250135838985443, -1.9396047294139862 l0.40833786129951477, -1.5312670171260834 -0.10208446532487869, -2.347942590713501 l-2.4500271677970886, -2.4500271677970886 -2.1437737345695496, -1.1229290813207626 l-2.347942590713501, -0.40833786129951477 -2.347942590713501, 0.10208446532487869 m3.266702890396118, -0.40833786129951477 l0.0, -6.941743493080139 -0.7145912200212479, -2.5521114468574524 l-7.350081205368042, -1.633351445198059 1.5312670171260834, -0.20416893064975739 l3.368787169456482, 1.020844653248787 3.8792094588279724, 0.6125067919492722 l6.941743493080139, -4.287547469139099 m-7.656334638595581, 8.983432650566101 l15.618922710418701, 0.5104223266243935 1.020844653248787, -0.9187601506710052 l0.40833786129951477, -1.2250135838985443 -0.3062533959746361, -0.5104223266243935 l-1.32709801197052, -0.40833786129951477 -2.8583648800849915, 0.10208446532487869 l-1.32709801197052, 0.5104223266243935 -0.5104223266243935, 0.6125067919492722 l-0.20416893064975739, 1.020844653248787 0.40833786129951477, 0.5104223266243935 l1.633351445198059, 0.40833786129951477 1.4291824400424957, -0.10208446532487869 m1.2250135838985443, 0.8166757225990295 l1.32709801197052, 1.1229290813207626 2.2458581626415253, 3.0625340342521667 l-3.7771251797676086, 1.2250135838985443 -1.2250135838985443, 1.4291824400424957 l-0.6125067919492722, 2.4500271677970886 0.20416893064975739, 2.1437737345695496 l0.9187601506710052, 1.020844653248787 1.7354358732700348, 0.8166757225990295 l4.4917163252830505, 0.8166757225990295 1.9396047294139862, -0.7145912200212479 l2.65419602394104, -2.041689306497574 0.8166757225990295, -2.2458581626415253 l-0.20416893064975739, -1.8375203013420105 -2.7562806010246277, -2.347942590713501 l-2.1437737345695496, -0.6125067919492722 -2.347942590713501, 0.10208446532487869 " fill="none" stroke="black" stroke-width="1" /></svg>