<?xml version="1.0" encoding="utf-8" ?>
<svg baseProfile="full" height="39.70657967031002" version="1.1" width="67.06521414220333" xmlns="http://www.w3.org/2000/svg" xmlns:ev="http://www.w3.org/2001/xml-events" xmlns:xlink="http://www.w3.org/1999/xlink"><defs /><rect fill="white" height="39.70657967031002" width="67.06521414220333" x="0" y="0" /><path d="M60.023524686694145, 20.618923902511597 m-8.166757225990295, -0.10208446532487869 l-8.779264092445374, 1.4291824400424957 -2.2458581626415253, 0.7145912200212479 l-1.020844653248787, 0.8166757225990295 -0.5104223266243935, 0.6125067919492722 l-0.7145912200212479, 2.1437737345695496 0.10208446532487869, 2.8583648800849915 l0.6125067919492722, 1.1229290813207626 2.2458581626415253, 1.8375203013420105 l2.7562806010246277, 1.020844653248787 5.512561202049255, 1.1229290813207626 l5.818814635276794, 0.5104223266243935 2.041689306497574, 0.0 l1.2250135838985443, -0.40833786129951477 1.633351445198059, -1.5312670171260834 l1.1229290813207626, -2.1437737345695496 0.40833786129951477, -3.98129403591156 l-1.1229290813207626, -2.7562806010246277 -0.9187601506710052, -1.2250135838985443 l-3.8792094588279724, -1.633351445198059 -2.041689306497574, -0.5104223266243935 l-0.8166757225990295, 0.10208446532487869 m-35.627477169036865, -0.5104223266243935 l-4.695885181427002, 0.5104223266243935 -3.98129403591156, 1.020844653248787 l-1.633351445198059, 0.9187601506710052 -1.9396047294139862, 1.9396047294139862 l-0.3062533959746361, 0.9187601506710052 -0.10208446532487869, 3.1646183133125305 l1.32709801197052, 2.5521114468574524 0.8166757225990295, 0.6125067919492722 l2.8583648800849915, 0.8166757225990295 3.1646183133125305, 0.10208446532487869 l1.9396047294139862, 0.0 1.7354358732700348, -1.020844653248787 l1.32709801197052, -1.5312670171260834 0.5104223266243935, -1.1229290813207626 l0.6125067919492722, -2.4500271677970886 0.0, -2.041689306497574 l-1.1229290813207626, -3.98129403591156 -0.5104223266243935, 0.0 l0.5104223266243935, -1.2250135838985443 1.020844653248787, -6.839659214019775 l0.5104223266243935, -0.3062533959746361 1.633351445198059, 0.0 l15.108500719070435, 2.5521114468574524 9.187601804733276, 0.0 l6.431320905685425, 0.6125067919492722 0.20416893064975739, 0.6125067919492722 l-0.8166757225990295, 4.695885181427002 m-32.15660572052002, -8.370925784111023 l0.0, -5.920898914337158 m-3.1646183133125305, 1.8375203013420105 l7.043827772140503, -3.1646183133125305 m23.071088790893555, 9.187601804733276 l-0.3062533959746361, -2.041689306497574 m-4.900054335594177, -0.9187601506710052 l6.941743493080139, 1.020844653248787 " fill="none" stroke="black" stroke-width="1" /></svg>