<?xml version="1.0" encoding="utf-8" ?>
<svg baseProfile="full" height="31.233568377792835" version="1.1" width="39.706578105688095" xmlns="http://www.w3.org/2000/svg" xmlns:ev="http://www.w3.org/2001/xml-events" xmlns:xlink="http://www.w3.org/1999/xlink"><defs /><rect fill="white" height="31.233568377792835" width="39.706578105688095" x="0" y="0" /><path d="M15.004277117550373, 13.575094938278198 m-2.041689306497574, 0.3062533959746361 l-2.5521114468574524, 1.32709801197052 -3.8792094588279724, 3.7771251797676086 l-1.4291824400424957, 2.4500271677970886 -0.10208446532487869, 2.347942590713501 l0.9187601506710052, 1.1229290813207626 2.65419602394104, 1.32709801197052 l1.7354358732700348, 0.0 1.5312670171260834, -0.5104223266243935 l1.32709801197052, -1.2250135838985443 1.9396047294139862, -3.4708717465400696 l0.6125067919492722, -3.5729563236236572 0.0, -2.1437737345695496 l-1.4291824400424957, -1.7354358732700348 -0.8166757225990295, 0.10208446532487869 m12.352219820022583, 0.6125067919492722 l-1.4291824400424957, 1.5312670171260834 -1.7354358732700348, 2.65419602394104 l-0.3062533959746361, 2.041689306497574 0.3062533959746361, 2.347942590713501 l1.4291824400424957, 1.8375203013420105 0.8166757225990295, 0.5104223266243935 l2.041689306497574, 0.40833786129951477 2.347942590713501, -0.20416893064975739 l1.020844653248787, -0.7145912200212479 1.633351445198059, -2.2458581626415253 l0.40833786129951477, -1.32709801197052 -0.20416893064975739, -3.675040602684021 l-1.5312670171260834, -1.9396047294139862 -1.020844653248787, -0.6125067919492722 l-3.675040602684021, -0.5104223266243935 -2.347942590713501, 0.7145912200212479 m-9.28968608379364, -2.041689306497574 l13.168895244598389, 1.2250135838985443 0.20416893064975739, 0.3062533959746361 m-2.2458581626415253, -1.1229290813207626 l0.7145912200212479, 0.3062533959746361 1.020844653248787, -0.20416893064975739 l3.7771251797676086, -2.4500271677970886 0.20416893064975739, -0.5104223266243935 l0.0, -3.266702890396118 -0.9187601506710052, -1.4291824400424957 l-1.5312670171260834, -0.9187601506710052 m2.8583648800849915, 2.4500271677970886 l1.8375203013420105, -0.7145912200212479 1.32709801197052, -1.2250135838985443 " fill="none" stroke="black" stroke-width="1" /></svg>