<?xml version="1.0" encoding="utf-8" ?>
<svg baseProfile="full" height="47.36291289329529" version="1.1" width="56.24426104128361" xmlns="http://www.w3.org/2000/svg" xmlns:ev="http://www.w3.org/2001/xml-events" xmlns:xlink="http://www.w3.org/1999/xlink"><defs /><rect fill="white" height="47.36291289329529" width="56.24426104128361" x="0" y="0" /><path d="M20.516838170588017, 19.087655283510685 m-1.4291824400424957, -0.40833786129951477 l-3.5729563236236572, 0.0 -1.4291824400424957, 0.3062533959746361 l-3.368787169456482, 1.8375203013420105 -1.7354358732700348, 1.2250135838985443 l-2.5521114468574524, 2.8583648800849915 -0.9187601506710052, 1.4291824400424957 l-0.5104223266243935, 2.5521114468574524 0.3062533959746361, 3.0625340342521667 l3.1646183133125305, 6.533405780792236 1.2250135838985443, 2.1437737345695496 l1.020844653248787, 1.1229290813207626 1.1229290813207626, 0.5104223266243935 l2.7562806010246277, 0.10208446532487869 3.1646183133125305, -1.1229290813207626 l2.8583648800849915, -2.1437737345695496 2.041689306497574, -2.347942590713501 l1.32709801197052, -2.5521114468574524 0.8166757225990295, -3.675040602684021 l0.5104223266243935, -6.941743493080139 -0.7145912200212479, -2.8583648800849915 l-1.32709801197052, -2.4500271677970886 -0.7145912200212479, -0.6125067919492722 l-1.2250135838985443, -0.20416893064975739 -0.6125067919492722, 0.40833786129951477 l-0.20416893064975739, 0.7145912200212479 m22.254412174224854, -1.633351445198059 l-4.287547469139099, 2.1437737345695496 -4.900054335594177, 1.633351445198059 l-0.7145912200212479, 4.083378612995148 0.10208446532487869, 7.554250359535217 l1.020844653248787, 3.5729563236236572 1.32709801197052, 1.5312670171260834 l1.633351445198059, 1.020844653248787 4.593800902366638, 1.020844653248787 l3.675040602684021, -0.3062533959746361 2.2458581626415253, -1.4291824400424957 l2.4500271677970886, -2.960449457168579 1.020844653248787, -1.9396047294139862 l0.3062533959746361, -3.0625340342521667 -0.20416893064975739, -1.020844653248787 l-1.1229290813207626, -1.7354358732700348 -4.389632046222687, -4.900054335594177 l-1.1229290813207626, -3.368787169456482 -2.1437737345695496, -0.9187601506710052 l-1.020844653248787, -1.1229290813207626 m-29.196157455444336, 1.2250135838985443 l-0.7145912200212479, 0.5104223266243935 1.9396047294139862, 0.3062533959746361 l7.758418917655945, 0.8166757225990295 4.593800902366638, 0.0 l7.1459126472473145, -0.7145912200212479 8.473010659217834, 0.0 l3.8792094588279724, -1.32709801197052 -0.10208446532487869, -0.6125067919492722 m-20.825231075286865, 2.4500271677970886 l-0.3062533959746361, -0.6125067919492722 0.3062533959746361, -2.347942590713501 l0.3062533959746361, -0.6125067919492722 1.2250135838985443, -0.9187601506710052 l2.4500271677970886, -0.7145912200212479 4.1854628920555115, 0.40833786129951477 l1.7354358732700348, -1.020844653248787 0.5104223266243935, 0.10208446532487869 l1.020844653248787, 1.32709801197052 2.4500271677970886, 4.287547469139099 m6.022983193397522, -1.7354358732700348 l0.0, -1.1229290813207626 1.32709801197052, -5.206307768821716 l1.8375203013420105, -4.083378612995148 0.40833786129951477, -2.1437737345695496 " fill="none" stroke="black" stroke-width="1" /></svg>