<?xml version="1.0" encoding="utf-8" ?>
<svg baseProfile="full" height="61.45056866109371" version="1.1" width="72.57777512073517" xmlns="http://www.w3.org/2000/svg" xmlns:ev="http://www.w3.org/2001/xml-events" xmlns:xlink="http://www.w3.org/1999/xlink"><defs /><rect fill="white" height="61.45056866109371" width="72.57777512073517" x="0" y="0" /><path d="M16.025122925639153, 56.45056866109371 m-2.5521114468574524, -0.10208446532487869 l-2.65419602394104, -0.6125067919492722 -2.2458581626415253, -1.2250135838985443 l-0.8166757225990295, -1.1229290813207626 -1.7354358732700348, -4.287547469139099 l-0.20416893064975739, -5.716729760169983 0.40833786129951477, -1.8375203013420105 l1.5312670171260834, -3.266702890396118 1.1229290813207626, -1.4291824400424957 l2.2458581626415253, -2.4500271677970886 2.960449457168579, -2.4500271677970886 l1.8375203013420105, -0.8166757225990295 2.4500271677970886, -0.40833786129951477 l3.675040602684021, 0.3062533959746361 2.5521114468574524, 0.9187601506710052 l1.32709801197052, 1.020844653248787 1.1229290813207626, 1.4291824400424957 l1.020844653248787, 3.4708717465400696 0.20416893064975739, 6.6354900598526 l-0.3062533959746361, 0.8166757225990295 -3.8792094588279724, 5.614645481109619 l-2.960449457168579, 3.0625340342521667 -3.4708717465400696, 1.2250135838985443 l-5.818814635276794, 0.0 m44.815077781677246, -3.98129403591156 l-5.410476326942444, -0.20416893064975739 -2.4500271677970886, -1.1229290813207626 l-4.287547469139099, -4.593800902366638 -1.633351445198059, -3.675040602684021 l-0.20416893064975739, -3.5729563236236572 0.8166757225990295, -2.5521114468574524 l2.960449457168579, -3.5729563236236572 3.8792094588279724, -2.5521114468574524 l2.7562806010246277, -1.020844653248787 3.7771251797676086, -0.3062533959746361 l2.347942590713501, 0.9187601506710052 2.5521114468574524, 1.7354358732700348 l1.2250135838985443, 0.9187601506710052 3.1646183133125305, 3.4708717465400696 l1.1229290813207626, 2.7562806010246277 0.3062533959746361, 3.5729563236236572 l-0.3062533959746361, 3.7771251797676086 -1.7354358732700348, 3.266702890396118 l-2.5521114468574524, 2.7562806010246277 -4.695885181427002, 2.65419602394104 l-5.206307768821716, 0.3062533959746361 -2.041689306497574, -0.3062533959746361 m-24.091932773590088, -18.47728729248047 l1.8375203013420105, -1.32709801197052 2.041689306497574, -3.0625340342521667 l4.287547469139099, -12.556389570236206 1.1229290813207626, -1.7354358732700348 m-0.7145912200212479, 3.4708717465400696 l0.3062533959746361, 1.4291824400424957 1.8375203013420105, 3.4708717465400696 l3.1646183133125305, 7.758418917655945 2.347942590713501, 3.5729563236236572 l0.9187601506710052, 0.8166757225990295 m-6.431320905685425, -18.783540725708008 l-5.818814635276794, -2.4500271677970886 -2.4500271677970886, -0.3062533959746361 l-2.347942590713501, 0.6125067919492722 -0.3062533959746361, 0.7145912200212479 l0.10208446532487869, 0.9187601506710052 2.7562806010246277, 1.9396047294139862 l1.7354358732700348, 0.5104223266243935 4.1854628920555115, -0.20416893064975739 l1.8375203013420105, -0.8166757225990295 1.7354358732700348, -1.4291824400424957 l0.5104223266243935, -0.7145912200212479 0.10208446532487869, -0.8166757225990295 l-3.368787169456482, -0.40833786129951477 -3.266702890396118, 0.7145912200212479 l-3.368787169456482, 1.5312670171260834 1.5312670171260834, -0.3062533959746361 l1.4291824400424957, -0.8166757225990295 -4.695885181427002, 0.3062533959746361 l1.1229290813207626, -0.8166757225990295 m0.7145912200212479, 14.495993852615356 l-0.7145912200212479, 0.10208446532487869 -1.1229290813207626, -0.7145912200212479 l-2.8583648800849915, -2.65419602394104 -2.960449457168579, -3.675040602684021 l-5.410476326942444, -8.370925784111023 -2.4500271677970886, -2.960449457168579 l-3.4708717465400696, 1.633351445198059 -5.818814635276794, 4.083378612995148 l5.512561202049255, -3.5729563236236572 7.4521660804748535, -5.512561202049255 l7.1459126472473145, -4.4917163252830505 " fill="none" stroke="black" stroke-width="1" /></svg>