<?xml version="1.0" encoding="utf-8" ?>
<svg baseProfile="full" height="49.20043330639601" version="1.1" width="88.70712045580149" xmlns="http://www.w3.org/2000/svg" xmlns:ev="http://www.w3.org/2001/xml-events" xmlns:xlink="http://www.w3.org/1999/xlink"><defs /><rect fill="white" height="49.20043330639601" width="88.70712045580149" x="0" y="0" /><path d="M12.145911417901516, 26.743989922106266 m2.960449457168579, -0.7145912200212479 l2.2458581626415253, -0.10208446532487869 2.7562806010246277, 0.0 l4.389632046222687, 0.6125067919492722 7.1459126472473145, 3.8792094588279724 l3.1646183133125305, 2.4500271677970886 0.7145912200212479, 1.1229290813207626 l0.0, 1.633351445198059 -0.5104223266243935, 0.8166757225990295 l-2.347942590713501, 1.9396047294139862 -2.7562806010246277, 1.2250135838985443 l-3.368787169456482, 0.9187601506710052 -4.593800902366638, 0.40833786129951477 l-6.022983193397522, 0.0 -5.410476326942444, -2.1437737345695496 l-5.104222893714905, -4.083378612995148 -0.40833786129951477, -1.020844653248787 l0.10208446532487869, -1.633351445198059 2.7562806010246277, -2.8583648800849915 l2.5521114468574524, -0.7145912200212479 4.287547469139099, 0.5104223266243935 m60.02566337585449, 5.818814635276794 l3.4708717465400696, 0.0 2.347942590713501, 0.40833786129951477 l-0.5104223266243935, 3.4708717465400696 -1.32709801197052, 2.347942590713501 l-3.675040602684021, 2.7562806010246277 -2.041689306497574, 0.40833786129951477 l-6.6354900598526, -0.10208446532487869 -3.8792094588279724, -1.1229290813207626 l-2.347942590713501, -1.4291824400424957 -0.5104223266243935, -0.7145912200212479 l-0.20416893064975739, -1.32709801197052 1.7354358732700348, -2.041689306497574 l0.8166757225990295, -0.3062533959746361 6.941743493080139, -0.20416893064975739 l14.802247285842896, -0.10208446532487869 m-50.83806037902832, -1.5312670171260834 l12.454304695129395, 0.0 13.883486986160278, 1.2250135838985443 m-12.964726686477661, -2.2458581626415253 l0.10208446532487869, -5.512561202049255 0.5104223266243935, -1.9396047294139862 l0.5104223266243935, -4.900054335594177 0.0, -2.347942590713501 l-0.7145912200212479, -3.368787169456482 -0.8166757225990295, -0.5104223266243935 l-5.206307768821716, -0.5104223266243935 -0.5104223266243935, 0.20416893064975739 l-0.20416893064975739, 1.020844653248787 0.6125067919492722, 0.8166757225990295 l1.020844653248787, 0.3062533959746361 5.410476326942444, 0.20416893064975739 m-1.020844653248787, -2.65419602394104 l6.022983193397522, 0.10208446532487869 0.0, 1.32709801197052 l-1.633351445198059, 0.6125067919492722 -3.675040602684021, 0.3062533959746361 m10.820952653884888, 18.681457042694092 l0.8166757225990295, -0.3062533959746361 2.5521114468574524, -2.4500271677970886 l4.083378612995148, -4.1854628920555115 1.4291824400424957, -2.1437737345695496 l3.98129403591156, -8.983432650566101 0.7145912200212479, -4.593800902366638 l1.1229290813207626, -3.8792094588279724 0.10208446532487869, -1.1229290813207626 l-0.6125067919492722, -0.9187601506710052 -5.716729760169983, -1.2250135838985443 l-3.675040602684021, -1.32709801197052 m5.716729760169983, 0.0 l2.041689306497574, 0.40833786129951477 3.5729563236236572, 1.5312670171260834 l8.26884150505066, 0.9187601506710052 " fill="none" stroke="black" stroke-width="1" /></svg>