<?xml version="1.0" encoding="utf-8" ?>
<svg baseProfile="full" height="26.027260832488537" version="1.1" width="40.62533888965845" xmlns="http://www.w3.org/2000/svg" xmlns:ev="http://www.w3.org/2001/xml-events" xmlns:xlink="http://www.w3.org/1999/xlink"><defs /><rect fill="white" height="26.027260832488537" width="40.62533888965845" x="0" y="0" /><path d="M27.764835096895695, 10.410476587712765 m3.7771251797676086, 1.1229290813207626 l2.4500271677970886, 1.2250135838985443 1.020844653248787, 1.1229290813207626 l0.5104223266243935, 2.041689306497574 0.10208446532487869, 1.1229290813207626 l-0.7145912200212479, 1.5312670171260834 -1.8375203013420105, 1.2250135838985443 l-1.5312670171260834, 0.40833786129951477 -2.2458581626415253, -0.20416893064975739 l-1.4291824400424957, -0.3062533959746361 -2.041689306497574, -1.020844653248787 l-2.347942590713501, -1.8375203013420105 -0.7145912200212479, -1.2250135838985443 l0.0, -1.020844653248787 2.347942590713501, -2.7562806010246277 l2.7562806010246277, -0.9187601506710052 m-15.721007585525513, 1.020844653248787 l3.0625340342521667, 1.32709801197052 0.5104223266243935, 0.6125067919492722 l0.3062533959746361, 1.1229290813207626 -0.10208446532487869, 3.266702890396118 l-0.7145912200212479, 1.1229290813207626 -0.9187601506710052, 0.5104223266243935 l-1.7354358732700348, 0.7145912200212479 -2.960449457168579, 0.40833786129951477 l-2.65419602394104, -1.1229290813207626 -1.1229290813207626, -0.9187601506710052 l-0.8166757225990295, -1.020844653248787 0.0, -1.1229290813207626 l0.7145912200212479, -2.1437737345695496 1.5312670171260834, -2.041689306497574 l2.65419602394104, -1.32709801197052 1.4291824400424957, 0.3062533959746361 m-3.0625340342521667, -0.3062533959746361 l2.041689306497574, 0.10208446532487869 3.266702890396118, -0.5104223266243935 l4.900054335594177, 0.10208446532487869 3.675040602684021, 0.40833786129951477 l3.266702890396118, 1.020844653248787 1.2250135838985443, 0.0 l2.65419602394104, -0.8166757225990295 m-10.718868970870972, -4.695885181427002 l0.3062533959746361, 4.695885181427002 m-2.4500271677970886, -3.7771251797676086 l3.7771251797676086, -0.7145912200212479 0.40833786129951477, -0.5104223266243935 l-0.40833786129951477, -1.5312670171260834 -1.020844653248787, -0.10208446532487869 l-2.4500271677970886, 2.1437737345695496 " fill="none" stroke="black" stroke-width="1" /></svg>