<?xml version="1.0" encoding="utf-8" ?>
<svg baseProfile="full" height="39.502409026026726" version="1.1" width="38.277395851910114" xmlns="http://www.w3.org/2000/svg" xmlns:ev="http://www.w3.org/2001/xml-events" xmlns:xlink="http://www.w3.org/1999/xlink"><defs /><rect fill="white" height="39.502409026026726" width="38.277395851910114" x="0" y="0" /><path d="M12.145912572741508, 23.273118138313293 m-2.65419602394104, 0.8166757225990295 l-3.0625340342521667, 1.9396047294139862 -1.2250135838985443, 2.347942590713501 l-0.20416893064975739, 1.5312670171260834 0.20416893064975739, 1.633351445198059 l1.7354358732700348, 1.8375203013420105 2.960449457168579, 1.1229290813207626 l3.5729563236236572, -0.10208446532487869 2.7562806010246277, -1.1229290813207626 l1.1229290813207626, -1.9396047294139862 0.20416893064975739, -1.633351445198059 l0.0, -1.5312670171260834 -1.2250135838985443, -2.2458581626415253 l-2.041689306497574, -1.4291824400424957 -1.633351445198059, -0.5104223266243935 l-2.347942590713501, 0.20416893064975739 -1.633351445198059, 1.5312670171260834 m21.641905307769775, -3.8792094588279724 l-2.4500271677970886, 0.10208446532487869 -1.4291824400424957, 0.7145912200212479 l-2.347942590713501, 2.1437737345695496 -0.9187601506710052, 1.8375203013420105 l0.10208446532487869, 1.4291824400424957 1.633351445198059, 2.5521114468574524 l1.633351445198059, 1.1229290813207626 1.633351445198059, 0.7145912200212479 l2.041689306497574, -0.20416893064975739 2.4500271677970886, -1.7354358732700348 l0.6125067919492722, -1.32709801197052 0.0, -2.5521114468574524 l-0.6125067919492722, -2.347942590713501 -2.347942590713501, -2.65419602394104 l-1.7354358732700348, -1.020844653248787 -0.8166757225990295, -0.10208446532487869 l-1.32709801197052, 0.3062533959746361 m-10.718868970870972, 5.614645481109619 l0.5104223266243935, -2.5521114468574524 1.5312670171260834, -3.8792094588279724 l0.9187601506710052, -3.368787169456482 m8.370925784111023, 5.818814635276794 l-7.247996926307678, -5.920898914337158 m-11.637629270553589, 0.5104223266243935 l14.802247285842896, -1.8375203013420105 5.30839204788208, -0.10208446532487869 l0.0, -1.2250135838985443 -1.7354358732700348, -3.98129403591156 l-1.020844653248787, -3.4708717465400696 m-3.5729563236236572, -1.1229290813207626 l3.675040602684021, 1.4291824400424957 2.4500271677970886, 0.5104223266243935 m1.5312670171260834, -2.2458581626415253 l-3.1646183133125305, 1.1229290813207626 m-12.86264181137085, 9.800108671188354 l-0.20416893064975739, -1.633351445198059 " fill="none" stroke="black" stroke-width="1" /></svg>