<?xml version="1.0" encoding="utf-8" ?>
<svg baseProfile="full" height="36.23570799827576" version="1.1" width="42.3607749119401" xmlns="http://www.w3.org/2000/svg" xmlns:ev="http://www.w3.org/2001/xml-events" xmlns:xlink="http://www.w3.org/1999/xlink"><defs /><rect fill="white" height="36.23570799827576" width="42.3607749119401" x="0" y="0" /><path d="M6.735435910522938, 29.704440869390965 m-0.8166757225990295, -0.6125067919492722 l-0.5104223266243935, -1.2250135838985443 -0.40833786129951477, -3.8792094588279724 l0.3062533959746361, -1.32709801197052 2.4500271677970886, -2.1437737345695496 l2.041689306497574, -1.1229290813207626 2.2458581626415253, -0.6125067919492722 l3.7771251797676086, -0.10208446532487869 2.1437737345695496, 1.2250135838985443 l0.40833786129951477, 1.020844653248787 0.10208446532487869, 2.8583648800849915 l-0.7145912200212479, 1.5312670171260834 -2.65419602394104, 2.960449457168579 l-1.633351445198059, 1.1229290813207626 -3.266702890396118, 0.8166757225990295 l-2.5521114468574524, 0.10208446532487869 -0.9187601506710052, -0.5104223266243935 l-0.5104223266243935, -0.9187601506710052 0.0, -1.1229290813207626 m20.92731475830078, 3.4708717465400696 l-1.020844653248787, -0.7145912200212479 -0.5104223266243935, -0.8166757225990295 l-0.10208446532487869, -1.020844653248787 0.40833786129951477, -3.266702890396118 l1.1229290813207626, -2.1437737345695496 1.5312670171260834, -1.8375203013420105 l2.041689306497574, -1.7354358732700348 3.7771251797676086, -1.2250135838985443 l1.4291824400424957, 0.0 0.9187601506710052, 0.40833786129951477 l0.5104223266243935, 1.020844653248787 0.10208446532487869, 1.5312670171260834 l-1.9396047294139862, 4.1854628920555115 -1.633351445198059, 1.5312670171260834 l-1.7354358732700348, 1.1229290813207626 -3.4708717465400696, 0.8166757225990295 l-2.4500271677970886, 0.0 -0.9187601506710052, -0.3062533959746361 l-0.8166757225990295, -0.8166757225990295 m-12.250136137008667, -9.902192950248718 l-1.2250135838985443, 5.614645481109619 -5.104222893714905, 5.920898914337158 m6.227152347564697, -7.4521660804748535 l1.633351445198059, 5.002138614654541 0.6125067919492722, 3.0625340342521667 m16.129344701766968, -11.02512240409851 l0.9187601506710052, 2.5521114468574524 0.8166757225990295, 1.1229290813207626 m3.368787169456482, -4.1854628920555115 l-1.4291824400424957, 2.041689306497574 -1.5312670171260834, 1.32709801197052 m-0.6125067919492722, 0.6125067919492722 l-0.8166757225990295, 4.083378612995148 -0.8166757225990295, 2.347942590713501 m2.65419602394104, -5.716729760169983 l1.32709801197052, 2.041689306497574 0.40833786129951477, 1.32709801197052 m-17.966865301132202, -20.518977642059326 l-3.368787169456482, -0.7145912200212479 -2.5521114468574524, 0.0 l-1.2250135838985443, 0.8166757225990295 -0.3062533959746361, 1.020844653248787 l1.633351445198059, 1.8375203013420105 1.7354358732700348, 0.5104223266243935 l3.266702890396118, 0.10208446532487869 2.7562806010246277, -1.633351445198059 l-0.20416893064975739, -0.6125067919492722 -2.5521114468574524, -2.041689306497574 l-1.2250135838985443, -0.5104223266243935 -1.020844653248787, 0.0 " fill="none" stroke="black" stroke-width="1" /></svg>