<?xml version="1.0" encoding="utf-8" ?>
<svg baseProfile="full" height="56.9588528573513" version="1.1" width="69.61732722818851" xmlns="http://www.w3.org/2000/svg" xmlns:ev="http://www.w3.org/2001/xml-events" xmlns:xlink="http://www.w3.org/1999/xlink"><defs /><rect fill="white" height="56.9588528573513" width="69.61732722818851" x="0" y="0" /><path d="M5, 46.24212294816971 m1.32709801197052, 1.9396047294139862 l2.1437737345695496, 1.4291824400424957 3.1646183133125305, 0.9187601506710052 l3.7771251797676086, -0.5104223266243935 3.675040602684021, -0.9187601506710052 l2.960449457168579, -1.9396047294139862 2.7562806010246277, -2.65419602394104 l2.2458581626415253, -3.8792094588279724 1.5312670171260834, -4.287547469139099 l0.6125067919492722, -3.7771251797676086 -0.9187601506710052, -3.0625340342521667 l-1.1229290813207626, -2.347942590713501 -2.347942590713501, -1.1229290813207626 l-2.7562806010246277, -0.5104223266243935 -5.716729760169983, 1.020844653248787 l-2.2458581626415253, 0.9187601506710052 -4.287547469139099, 3.266702890396118 l-2.2458581626415253, 5.206307768821716 -0.6125067919492722, 4.389632046222687 l-0.10208446532487869, 4.1854628920555115 m6.737574338912964, -2.041689306497574 l1.020844653248787, 1.1229290813207626 1.633351445198059, 0.40833786129951477 l2.041689306497574, -0.40833786129951477 1.32709801197052, -1.020844653248787 l1.32709801197052, -2.4500271677970886 0.6125067919492722, -2.1437737345695496 l-0.40833786129951477, -3.5729563236236572 -0.7145912200212479, -0.8166757225990295 l-1.1229290813207626, -0.40833786129951477 -2.7562806010246277, 0.5104223266243935 l-2.5521114468574524, 2.960449457168579 -0.7145912200212479, 1.7354358732700348 l-0.20416893064975739, 2.8583648800849915 m29.196157455444336, 2.2458581626415253 l0.10208446532487869, 2.7562806010246277 1.1229290813207626, 2.960449457168579 l2.8583648800849915, 1.7354358732700348 2.960449457168579, 0.9187601506710052 l3.675040602684021, 0.10208446532487869 3.368787169456482, -0.5104223266243935 l2.5521114468574524, -0.8166757225990295 1.9396047294139862, -1.32709801197052 l1.9396047294139862, -2.960449457168579 1.2250135838985443, -3.4708717465400696 l0.6125067919492722, -2.960449457168579 0.0, -3.7771251797676086 l-0.7145912200212479, -3.266702890396118 -1.32709801197052, -2.2458581626415253 l-1.9396047294139862, -2.4500271677970886 -2.1437737345695496, -1.4291824400424957 l-2.347942590713501, -1.020844653248787 -2.5521114468574524, -0.40833786129951477 l-2.041689306497574, 0.6125067919492722 -1.5312670171260834, 0.9187601506710052 l-2.1437737345695496, 2.1437737345695496 -2.7562806010246277, 3.675040602684021 l-1.32709801197052, 3.266702890396118 -1.020844653248787, 3.0625340342521667 l-0.8166757225990295, 5.30839204788208 m8.26884150505066, -1.32709801197052 l1.9396047294139862, 2.7562806010246277 2.4500271677970886, 1.7354358732700348 l2.4500271677970886, -0.3062533959746361 1.7354358732700348, -1.5312670171260834 l1.020844653248787, -2.8583648800849915 -0.10208446532487869, -2.4500271677970886 l-0.7145912200212479, -1.8375203013420105 -1.1229290813207626, -1.32709801197052 l-1.4291824400424957, -0.6125067919492722 -1.7354358732700348, 0.10208446532487869 l-2.2458581626415253, 0.5104223266243935 -2.041689306497574, 1.2250135838985443 l-1.9396047294139862, 1.9396047294139862 m-22.05024480819702, -11.841797828674316 l6.022983193397522, -0.7145912200212479 13.066811561584473, 0.20416893064975739 m-12.250136137008667, -0.6125067919492722 l-0.40833786129951477, -5.512561202049255 1.020844653248787, -16.129344701766968 l0.5104223266243935, -0.7145912200212479 m-1.7354358732700348, 0.10208446532487869 l3.8792094588279724, 0.20416893064975739 " fill="none" stroke="black" stroke-width="1" /></svg>