<?xml version="1.0" encoding="utf-8" ?>
<svg baseProfile="full" height="35.01069363206625" version="1.1" width="58.081781193614006" xmlns="http://www.w3.org/2000/svg" xmlns:ev="http://www.w3.org/2001/xml-events" xmlns:xlink="http://www.w3.org/1999/xlink"><defs /><rect fill="white" height="35.01069363206625" width="58.081781193614006" x="0" y="0" /><path d="M16.433459669351578, 16.025122702121735 m0.0, -1.5312670171260834 l-5.30839204788208, 0.0 -2.347942590713501, 0.7145912200212479 l-2.5521114468574524, 2.2458581626415253 -0.8166757225990295, 1.4291824400424957 l-0.40833786129951477, 2.2458581626415253 0.10208446532487869, 4.695885181427002 l0.8166757225990295, 0.9187601506710052 1.4291824400424957, 1.1229290813207626 l4.287547469139099, 1.020844653248787 4.1854628920555115, 0.10208446532487869 l6.227152347564697, -4.900054335594177 0.8166757225990295, -1.5312670171260834 l0.20416893064975739, -2.65419602394104 0.5104223266243935, -1.9396047294139862 l-0.3062533959746361, -1.32709801197052 -1.4291824400424957, -1.4291824400424957 l-1.020844653248787, -0.20416893064975739 -4.4917163252830505, 0.0 l-2.1437737345695496, -0.5104223266243935 0.7145912200212479, 0.7145912200212479 l1.1229290813207626, 0.40833786129951477 m31.237845420837402, -0.5104223266243935 l-0.7145912200212479, -0.5104223266243935 -3.368787169456482, 0.0 l-1.4291824400424957, 0.3062533959746361 -2.8583648800849915, 1.4291824400424957 l-1.8375203013420105, 1.5312670171260834 -1.4291824400424957, 1.9396047294139862 l-1.7354358732700348, 4.1854628920555115 -0.20416893064975739, 2.960449457168579 l0.6125067919492722, 0.9187601506710052 1.32709801197052, 1.020844653248787 l2.65419602394104, 0.7145912200212479 4.695885181427002, 0.40833786129951477 l3.1646183133125305, -0.10208446532487869 2.960449457168579, -1.7354358732700348 l2.4500271677970886, -3.5729563236236572 1.2250135838985443, -3.7771251797676086 l-0.20416893064975739, -1.7354358732700348 -3.98129403591156, -2.7562806010246277 l-2.960449457168579, -1.4291824400424957 -1.32709801197052, -0.10208446532487869 l-0.7145912200212479, 0.3062533959746361 m-29.808664321899414, -0.7145912200212479 l4.389632046222687, -0.10208446532487869 4.1854628920555115, -1.1229290813207626 l5.002138614654541, -0.40833786129951477 7.96258807182312, 0.0 l8.779264092445374, 1.32709801197052 m-1.7354358732700348, 0.40833786129951477 l-0.3062533959746361, -0.6125067919492722 -0.10208446532487869, -5.30839204788208 m-4.4917163252830505, -3.4708717465400696 l0.5104223266243935, -0.10208446532487869 5.410476326942444, 1.7354358732700348 l6.227152347564697, 0.7145912200212479 1.2250135838985443, 0.7145912200212479 l2.2458581626415253, 0.6125067919492722 " fill="none" stroke="black" stroke-width="1" /></svg>