<?xml version="1.0" encoding="utf-8" ?>
<svg baseProfile="full" height="45.62747646123171" version="1.1" width="65.73811616748571" xmlns="http://www.w3.org/2000/svg" xmlns:ev="http://www.w3.org/2001/xml-events" xmlns:xlink="http://www.w3.org/1999/xlink"><defs /><rect fill="white" height="45.62747646123171" width="65.73811616748571" x="0" y="0" /><path d="M28.88776235282421, 5 m0.0, 1.7354358732700348 l0.9187601506710052, 2.8583648800849915 0.3062533959746361, 5.818814635276794 l1.5312670171260834, 6.431320905685425 m-5.206307768821716, -2.7562806010246277 l1.9396047294139862, -2.1437737345695496 8.575094938278198, -2.5521114468574524 l1.9396047294139862, -0.9187601506710052 1.020844653248787, -1.32709801197052 l0.0, -1.1229290813207626 -0.8166757225990295, -1.2250135838985443 l-1.9396047294139862, -0.6125067919492722 -2.65419602394104, 0.0 l-3.4708717465400696, 0.5104223266243935 -5.818814635276794, 2.347942590713501 l-1.5312670171260834, 0.20416893064975739 0.20416893064975739, -1.5312670171260834 l3.0625340342521667, -2.4500271677970886 4.083378612995148, -2.5521114468574524 m24.806525707244873, 20.723145008087158 l-0.5104223266243935, -2.65419602394104 -0.6125067919492722, -1.2250135838985443 l-1.020844653248787, -0.8166757225990295 -1.2250135838985443, -0.6125067919492722 l-3.368787169456482, 0.10208446532487869 -4.4917163252830505, 2.65419602394104 l-3.5729563236236572, 3.266702890396118 -2.1437737345695496, 2.960449457168579 l-0.40833786129951477, 1.1229290813207626 0.0, 1.32709801197052 l0.20416893064975739, 1.020844653248787 0.7145912200212479, 1.1229290813207626 l2.041689306497574, 2.1437737345695496 3.675040602684021, 2.8583648800849915 l1.5312670171260834, 0.6125067919492722 1.8375203013420105, 0.20416893064975739 l5.818814635276794, 0.10208446532487869 1.5312670171260834, -0.3062533959746361 l1.5312670171260834, -0.9187601506710052 2.2458581626415253, -2.4500271677970886 l1.020844653248787, -3.1646183133125305 0.10208446532487869, -3.368787169456482 l-0.10208446532487869, -1.4291824400424957 -1.4291824400424957, -2.4500271677970886 l-1.9396047294139862, -1.7354358732700348 -1.9396047294139862, -1.020844653248787 m-17.354358434677124, 7.656334638595581 l-1.4291824400424957, -0.9187601506710052 -7.247996926307678, 0.10208446532487869 l-4.389632046222687, -0.9187601506710052 -3.8792094588279724, -1.2250135838985443 l-1.8375203013420105, 0.0 -6.6354900598526, 2.8583648800849915 m15.108500719070435, -6.941743493080139 l-1.020844653248787, -3.0625340342521667 -1.1229290813207626, -1.2250135838985443 l-1.7354358732700348, -1.1229290813207626 -2.1437737345695496, -0.7145912200212479 l-2.347942590713501, -0.40833786129951477 -5.206307768821716, 0.10208446532487869 l-5.30839204788208, 2.5521114468574524 -1.8375203013420105, 1.8375203013420105 l-1.020844653248787, 1.9396047294139862 -0.9187601506710052, 5.410476326942444 l0.0, 2.7562806010246277 0.6125067919492722, 2.2458581626415253 l1.1229290813207626, 1.7354358732700348 1.5312670171260834, 1.020844653248787 l4.593800902366638, 0.0 3.1646183133125305, -1.32709801197052 l2.8583648800849915, -1.8375203013420105 2.65419602394104, -2.4500271677970886 l2.1437737345695496, -2.65419602394104 1.2250135838985443, -2.5521114468574524 l0.0, -4.4917163252830505 -1.4291824400424957, -1.633351445198059 l-1.7354358732700348, -0.8166757225990295 -1.633351445198059, -0.20416893064975739 m11.02512240409851, -6.329236626625061 l0.3062533959746361, 3.0625340342521667 1.020844653248787, 4.4917163252830505 l0.3062533959746361, 8.881348371505737 " fill="none" stroke="black" stroke-width="1" /></svg>