<?xml version="1.0" encoding="utf-8" ?>
<svg baseProfile="full" height="34.194017089903355" version="1.1" width="45.83164658397436" xmlns="http://www.w3.org/2000/svg" xmlns:ev="http://www.w3.org/2001/xml-events" xmlns:xlink="http://www.w3.org/1999/xlink"><defs /><rect fill="white" height="34.194017089903355" width="45.83164658397436" x="0" y="0" /><path d="M8.981294073164463, 13.166756369173527 m-1.8375203013420105, 2.960449457168579 l-1.633351445198059, 4.4917163252830505 -0.5104223266243935, 4.593800902366638 l0.9187601506710052, 1.9396047294139862 1.32709801197052, 1.2250135838985443 l2.041689306497574, 0.8166757225990295 3.4708717465400696, 0.0 l1.9396047294139862, -1.633351445198059 1.5312670171260834, -2.65419602394104 l0.6125067919492722, -1.9396047294139862 -0.3062533959746361, -1.633351445198059 l-2.5521114468574524, -3.1646183133125305 -5.512561202049255, -3.675040602684021 l-1.2250135838985443, -0.5104223266243935 m1.1229290813207626, 1.633351445198059 l0.5104223266243935, 2.960449457168579 0.0, 4.4917163252830505 m-0.5104223266243935, -9.391770362854004 l11.229290962219238, 0.8166757225990295 4.900054335594177, -0.3062533959746361 l7.656334638595581, 0.20416893064975739 0.40833786129951477, 1.5312670171260834 l0.20416893064975739, 4.1854628920555115 m-0.6125067919492722, -5.104222893714905 l-2.65419602394104, 2.65419602394104 -1.633351445198059, 2.7562806010246277 l-0.10208446532487869, 2.8583648800849915 0.8166757225990295, 1.5312670171260834 l2.4500271677970886, 1.32709801197052 3.4708717465400696, 0.10208446532487869 l1.633351445198059, -0.20416893064975739 3.4708717465400696, -1.7354358732700348 l0.9187601506710052, -1.020844653248787 0.3062533959746361, -1.2250135838985443 l0.0, -1.9396047294139862 -1.1229290813207626, -1.7354358732700348 l-1.1229290813207626, -0.8166757225990295 -1.4291824400424957, -0.5104223266243935 l-5.30839204788208, -0.8166757225990295 -0.8166757225990295, -0.40833786129951477 m2.2458581626415253, -2.1437737345695496 l-1.020844653248787, 0.40833786129951477 0.0, -0.9187601506710052 l1.020844653248787, -2.7562806010246277 0.3062533959746361, -3.1646183133125305 l-4.389632046222687, 0.6125067919492722 m4.4917163252830505, -0.7145912200212479 l-0.20416893064975739, -0.5104223266243935 -1.4291824400424957, -0.9187601506710052 l-2.8583648800849915, -0.7145912200212479 " fill="none" stroke="black" stroke-width="1" /></svg>