<?xml version="1.0" encoding="utf-8" ?>
<svg baseProfile="full" height="58.49012054502964" version="1.1" width="62.87975184619427" xmlns="http://www.w3.org/2000/svg" xmlns:ev="http://www.w3.org/2001/xml-events" xmlns:xlink="http://www.w3.org/1999/xlink"><defs /><rect fill="white" height="58.49012054502964" width="62.87975184619427" x="0" y="0" /><path d="M55.32764047384262, 31.133623272180557 m-0.8166757225990295, -1.5312670171260834 l-2.1437737345695496, -1.9396047294139862 -3.266702890396118, -1.633351445198059 l-2.1437737345695496, -0.20416893064975739 -1.5312670171260834, 0.3062533959746361 l-3.4708717465400696, 1.7354358732700348 -2.347942590713501, 1.9396047294139862 l-1.1229290813207626, 1.633351445198059 -1.1229290813207626, 2.960449457168579 l-1.1229290813207626, 4.695885181427002 0.20416893064975739, 3.368787169456482 l1.2250135838985443, 3.4708717465400696 3.266702890396118, 4.083378612995148 l1.7354358732700348, 2.960449457168579 0.6125067919492722, 0.3062533959746361 l0.9187601506710052, 0.20416893064975739 3.368787169456482, -1.2250135838985443 l2.65419602394104, -1.7354358732700348 5.002138614654541, -4.287547469139099 l2.2458581626415253, -3.4708717465400696 0.40833786129951477, -3.5729563236236572 l-1.5312670171260834, -5.30839204788208 -0.5104223266243935, -1.2250135838985443 l-2.2458581626415253, -2.4500271677970886 -2.65419602394104, -1.4291824400424957 m-27.766973972320557, 2.2458581626415253 l0.0, -1.633351445198059 -0.40833786129951477, -1.4291824400424957 l-1.5312670171260834, -1.5312670171260834 -1.4291824400424957, -0.8166757225990295 l-2.5521114468574524, -0.10208446532487869 -6.227152347564697, 2.347942590713501 l-1.1229290813207626, 1.020844653248787 -1.4291824400424957, 2.5521114468574524 l-2.347942590713501, 2.4500271677970886 -0.6125067919492722, 1.32709801197052 l-0.5104223266243935, 3.675040602684021 0.5104223266243935, 4.287547469139099 l3.4708717465400696, 4.695885181427002 2.347942590713501, 1.4291824400424957 l5.512561202049255, 1.9396047294139862 2.347942590713501, 0.10208446532487869 l1.1229290813207626, -0.20416893064975739 1.7354358732700348, -0.9187601506710052 l1.020844653248787, -1.4291824400424957 0.6125067919492722, -1.9396047294139862 l0.9187601506710052, -4.79796975851059 0.20416893064975739, -3.98129403591156 l-1.4291824400424957, -6.839659214019775 -0.8166757225990295, -2.2458581626415253 l-1.32709801197052, -2.2458581626415253 m24.806525707244873, -0.6125067919492722 l-1.32709801197052, -2.041689306497574 -1.9396047294139862, -2.041689306497574 l-4.389632046222687, -4.1854628920555115 -2.1437737345695496, -1.4291824400424957 m0.3062533959746361, 0.6125067919492722 l2.041689306497574, -0.20416893064975739 6.839659214019775, 1.8375203013420105 l4.900054335594177, 0.10208446532487869 -0.40833786129951477, 0.20416893064975739 l-0.3062533959746361, 1.2250135838985443 -0.7145912200212479, 5.920898914337158 m1.020844653248787, 0.5104223266243935 l1.1229290813207626, -4.389632046222687 0.6125067919492722, -6.6354900598526 l-0.40833786129951477, -3.98129403591156 -1.9396047294139862, -3.4708717465400696 l-8.370925784111023, -3.1646183133125305 7.96258807182312, 9.085517525672913 l-4.083378612995148, -2.5521114468574524 -8.779264092445374, -4.4917163252830505 l4.389632046222687, 4.1854628920555115 5.410476326942444, 4.1854628920555115 l1.9396047294139862, 1.8375203013420105 -1.8375203013420105, -0.8166757225990295 " fill="none" stroke="black" stroke-width="1" /></svg>