<?xml version="1.0" encoding="utf-8" ?>
<svg baseProfile="full" height="31.13148346543312" version="1.1" width="37.05238316208124" xmlns="http://www.w3.org/2000/svg" xmlns:ev="http://www.w3.org/2001/xml-events" xmlns:xlink="http://www.w3.org/1999/xlink"><defs /><rect fill="white" height="31.13148346543312" width="37.05238316208124" x="0" y="0" /><path d="M21.4355992898345, 9.797969423234463 m-2.960449457168579, 0.9187601506710052 l-5.002138614654541, 2.7562806010246277 -6.227152347564697, 5.104222893714905 l-0.6125067919492722, 1.020844653248787 1.633351445198059, 0.0 l1.2250135838985443, 0.8166757225990295 1.4291824400424957, 0.10208446532487869 l8.370925784111023, -0.8166757225990295 0.5104223266243935, -0.3062533959746361 l0.8166757225990295, -6.6354900598526 1.020844653248787, -1.9396047294139862 m-15.210585594177246, 7.860503792762756 l-1.4291824400424957, 6.022983193397522 0.10208446532487869, 0.7145912200212479 l0.5104223266243935, 0.6125067919492722 0.9187601506710052, 0.10208446532487869 l3.8792094588279724, -1.2250135838985443 1.7354358732700348, -1.32709801197052 l0.40833786129951477, -1.32709801197052 -0.6125067919492722, -1.633351445198059 l-1.1229290813207626, -1.020844653248787 -1.9396047294139862, -1.020844653248787 l-2.041689306497574, 0.10208446532487869 m13.066811561584473, 1.32709801197052 l6.329236626625061, -0.40833786129951477 3.368787169456482, 0.3062533959746361 m1.5312670171260834, 0.10208446532487869 l-1.2250135838985443, 0.0 -1.2250135838985443, 1.2250135838985443 l-0.6125067919492722, 1.8375203013420105 0.0, 1.32709801197052 l1.1229290813207626, 0.40833786129951477 0.8166757225990295, -0.10208446532487869 l1.8375203013420105, -1.7354358732700348 0.20416893064975739, -1.8375203013420105 l-0.5104223266243935, -1.9396047294139862 -1.2250135838985443, -0.5104223266243935 l-0.9187601506710052, 0.10208446532487869 m1.020844653248787, 0.20416893064975739 l-6.022983193397522, -6.431320905685425 -2.8583648800849915, -1.8375203013420105 m0.20416893064975739, 0.6125067919492722 l7.1459126472473145, -3.8792094588279724 m1.020844653248787, -2.4500271677970886 l-0.7145912200212479, 2.4500271677970886 0.0, 1.2250135838985443 l1.1229290813207626, 0.9187601506710052 1.7354358732700348, -0.10208446532487869 " fill="none" stroke="black" stroke-width="1" /></svg>