<?xml version="1.0" encoding="utf-8" ?>
<svg baseProfile="full" height="51.752545051276684" version="1.1" width="56.85676831752062" xmlns="http://www.w3.org/2000/svg" xmlns:ev="http://www.w3.org/2001/xml-events" xmlns:xlink="http://www.w3.org/1999/xlink"><defs /><rect fill="white" height="51.752545051276684" width="56.85676831752062" x="0" y="0" /><path d="M49.20257344841957, 30.316946543753147 m0.5104223266243935, -0.5104223266243935 l0.0, -1.020844653248787 -0.6125067919492722, -0.6125067919492722 l-2.7562806010246277, -1.32709801197052 -3.266702890396118, -0.8166757225990295 l-3.675040602684021, -0.10208446532487869 -1.7354358732700348, 0.40833786129951477 l-1.5312670171260834, 0.8166757225990295 -1.32709801197052, 1.2250135838985443 l-2.2458581626415253, 2.8583648800849915 -0.8166757225990295, 1.633351445198059 l-1.32709801197052, 4.79796975851059 0.0, 3.0625340342521667 l1.4291824400424957, 2.5521114468574524 1.8375203013420105, 1.8375203013420105 l2.1437737345695496, 1.2250135838985443 2.2458581626415253, 0.40833786129951477 l2.4500271677970886, 0.0 3.8792094588279724, -1.32709801197052 l3.368787169456482, -2.4500271677970886 2.2458581626415253, -3.8792094588279724 l0.5104223266243935, -2.8583648800849915 0.10208446532487869, -4.1854628920555115 l-1.1229290813207626, -2.65419602394104 -1.5312670171260834, -0.8166757225990295 l-1.1229290813207626, 0.0 m-29.91074800491333, -3.98129403591156 l-5.410476326942444, -0.10208446532487869 -3.5729563236236572, 1.9396047294139862 l-0.9187601506710052, 1.1229290813207626 -1.020844653248787, 2.4500271677970886 l-0.3062533959746361, 5.920898914337158 0.20416893064975739, 1.32709801197052 l1.9396047294139862, 4.083378612995148 2.8583648800849915, 2.8583648800849915 l2.041689306497574, 1.1229290813207626 1.020844653248787, 0.20416893064975739 l4.1854628920555115, -0.10208446532487869 3.1646183133125305, -1.5312670171260834 l2.347942590713501, -2.4500271677970886 0.6125067919492722, -2.4500271677970886 l0.0, -3.4708717465400696 -0.9187601506710052, -3.1646183133125305 l-1.2250135838985443, -2.5521114468574524 -1.4291824400424957, -1.8375203013420105 l-1.7354358732700348, -1.2250135838985443 -5.512561202049255, -1.32709801197052 l-2.2458581626415253, 0.0 -0.6125067919492722, 0.7145912200212479 m-5.410476326942444, -0.10208446532487869 l0.5104223266243935, -0.3062533959746361 5.002138614654541, 0.10208446532487869 l6.6354900598526, 0.8166757225990295 5.818814635276794, 1.2250135838985443 l2.2458581626415253, 1.020844653248787 2.1437737345695496, 2.1437737345695496 l2.4500271677970886, -0.10208446532487869 5.716729760169983, -3.1646183133125305 l5.002138614654541, -1.1229290813207626 6.022983193397522, -0.10208446532487869 l5.30839204788208, 1.4291824400424957 m-4.695885181427002, -1.020844653248787 l0.9187601506710052, -4.593800902366638 0.0, -2.041689306497574 l-0.9187601506710052, -3.1646183133125305 -2.8583648800849915, -3.675040602684021 l-5.920898914337158, -4.593800902366638 m0.9187601506710052, -3.1646183133125305 l0.6125067919492722, -0.7145912200212479 -0.7145912200212479, 2.1437737345695496 l-2.960449457168579, 7.4521660804748535 2.041689306497574, -6.6354900598526 m-11.127206087112427, 22.458581924438477 l-0.6125067919492722, -10.106362104415894 m2.5521114468574524, -0.6125067919492722 l-6.941743493080139, -0.7145912200212479 -0.3062533959746361, -0.5104223266243935 l0.6125067919492722, -0.10208446532487869 3.98129403591156, 0.0 l2.347942590713501, 0.9187601506710052 0.6125067919492722, 0.9187601506710052 " fill="none" stroke="black" stroke-width="1" /></svg>