<?xml version="1.0" encoding="utf-8" ?>
<svg baseProfile="full" height="36.33779142051935" version="1.1" width="55.42758598923683" xmlns="http://www.w3.org/2000/svg" xmlns:ev="http://www.w3.org/2001/xml-events" xmlns:xlink="http://www.w3.org/1999/xlink"><defs /><rect fill="white" height="36.33779142051935" width="55.42758598923683" x="0" y="0" /><path d="M16.33137557655573, 18.985571525990963 m-1.020844653248787, -0.6125067919492722 l-2.1437737345695496, -0.40833786129951477 -2.2458581626415253, 0.10208446532487869 l-1.633351445198059, 0.7145912200212479 -3.5729563236236572, 2.8583648800849915 l-0.5104223266243935, 1.2250135838985443 -0.20416893064975739, 2.347942590713501 l1.2250135838985443, 2.347942590713501 1.020844653248787, 1.020844653248787 l1.633351445198059, 1.2250135838985443 2.347942590713501, 1.020844653248787 l2.65419602394104, 0.5104223266243935 2.4500271677970886, 0.0 l2.4500271677970886, -0.7145912200212479 0.7145912200212479, -1.1229290813207626 l0.10208446532487869, -1.020844653248787 0.0, -2.4500271677970886 l-0.5104223266243935, -2.2458581626415253 -1.4291824400424957, -2.1437737345695496 l-2.7562806010246277, -1.8375203013420105 m-2.8583648800849915, 3.4708717465400696 l2.4500271677970886, -2.65419602394104 7.96258807182312, -6.941743493080139 m-0.20416893064975739, -0.3062533959746361 l8.370925784111023, 0.6125067919492722 6.329236626625061, 0.0 m-14.598078727722168, -0.7145912200212479 l1.633351445198059, -3.8792094588279724 m0.0, -0.3062533959746361 l-1.020844653248787, -0.40833786129951477 -0.3062533959746361, -0.5104223266243935 l0.20416893064975739, -1.020844653248787 2.5521114468574524, 0.0 l0.5104223266243935, 0.3062533959746361 0.10208446532487869, 1.5312670171260834 l-1.4291824400424957, 0.10208446532487869 -2.041689306497574, -0.6125067919492722 m14.598078727722168, 5.614645481109619 l2.960449457168579, 2.65419602394104 3.98129403591156, 2.8583648800849915 m1.633351445198059, -1.020844653248787 l-4.287547469139099, 1.7354358732700348 -0.9187601506710052, 1.1229290813207626 l0.10208446532487869, 1.633351445198059 1.7354358732700348, 1.4291824400424957 l4.593800902366638, 1.1229290813207626 2.7562806010246277, -0.20416893064975739 l0.7145912200212479, -0.8166757225990295 0.0, -2.8583648800849915 l-0.5104223266243935, -1.8375203013420105 -1.5312670171260834, -1.2250135838985443 l-2.1437737345695496, -1.020844653248787 -3.5729563236236572, -0.5104223266243935 m-6.941743493080139, -4.287547469139099 l2.347942590713501, 0.0 1.020844653248787, -0.5104223266243935 l1.32709801197052, -2.041689306497574 2.041689306497574, -4.287547469139099 m-2.2458581626415253, -0.7145912200212479 l2.5521114468574524, 0.7145912200212479 6.533405780792236, 0.9187601506710052 l-9.698023796081543, -1.9396047294139862 " fill="none" stroke="black" stroke-width="1" /></svg>