<?xml version="1.0" encoding="utf-8" ?>
<svg baseProfile="full" height="45.83164554089308" version="1.1" width="57.775527238845825" xmlns="http://www.w3.org/2000/svg" xmlns:ev="http://www.w3.org/2001/xml-events" xmlns:xlink="http://www.w3.org/1999/xlink"><defs /><rect fill="white" height="45.83164554089308" width="57.775527238845825" x="0" y="0" /><path d="M5.81667598336935, 38.48370309919119 m1.4291824400424957, 0.8166757225990295 l1.2250135838985443, 0.0 7.247996926307678, -2.65419602394104 l1.32709801197052, -0.9187601506710052 0.6125067919492722, -1.020844653248787 l0.6125067919492722, -2.960449457168579 0.0, -2.960449457168579 l-1.2250135838985443, -2.65419602394104 -2.7562806010246277, -2.041689306497574 l-5.512561202049255, -2.4500271677970886 -2.2458581626415253, -0.3062533959746361 l-1.020844653248787, 1.7354358732700348 -0.3062533959746361, 1.9396047294139862 l-0.20416893064975739, 13.2709801197052 m34.19829607009888, -0.7145912200212479 l0.8166757225990295, 0.10208446532487869 1.32709801197052, 1.1229290813207626 l3.5729563236236572, 1.633351445198059 4.287547469139099, 0.40833786129951477 l0.9187601506710052, -0.10208446532487869 0.6125067919492722, -0.8166757225990295 l0.7145912200212479, -2.8583648800849915 0.0, -3.1646183133125305 l-0.7145912200212479, -2.65419602394104 -3.266702890396118, -6.941743493080139 l-1.2250135838985443, -0.40833786129951477 -5.410476326942444, 7.860503792762756 l0.0, 1.5312670171260834 0.9187601506710052, 3.5729563236236572 l0.0, 2.7562806010246277 -0.5104223266243935, 0.0 m7.656334638595581, -15.51683783531189 l-3.1646183133125305, 0.0 -3.1646183133125305, -0.7145912200212479 l-7.860503792762756, 0.0 -5.512561202049255, 0.7145912200212479 l-4.389632046222687, 0.0 -5.614645481109619, -1.633351445198059 l-5.002138614654541, -0.20416893064975739 -8.575094938278198, -2.8583648800849915 m42.97755718231201, 4.593800902366638 l0.10208446532487869, -2.7562806010246277 -0.40833786129951477, -4.1854628920555115 l-0.8166757225990295, -3.266702890396118 0.0, -2.041689306497574 l1.4291824400424957, -6.227152347564697 m3.368787169456482, 0.40833786129951477 l-6.941743493080139, -0.9187601506710052 -3.5729563236236572, 0.0 l-1.9396047294139862, 0.8166757225990295 0.0, -0.5104223266243935 m12.352219820022583, 0.10208446532487869 l0.10208446532487869, 2.2458581626415253 0.5104223266243935, 0.3062533959746361 l-0.7145912200212479, -1.7354358732700348 m0.0, -0.3062533959746361 " fill="none" stroke="black" stroke-width="1" /></svg>