<?xml version="1.0" encoding="utf-8" ?>
<svg baseProfile="full" height="32.66275022178888" version="1.1" width="45.219137631356716" xmlns="http://www.w3.org/2000/svg" xmlns:ev="http://www.w3.org/2001/xml-events" xmlns:xlink="http://www.w3.org/1999/xlink"><defs /><rect fill="white" height="32.66275022178888" width="45.219137631356716" x="0" y="0" /><path d="M11.941743530333042, 14.391770176589489 m-3.675040602684021, 1.7354358732700348 l-0.5104223266243935, 0.6125067919492722 -0.6125067919492722, 0.20416893064975739 l-1.5312670171260834, 2.347942590713501 -0.6125067919492722, 3.368787169456482 l0.40833786129951477, 2.2458581626415253 0.7145912200212479, 1.2250135838985443 l0.9187601506710052, 0.8166757225990295 2.2458581626415253, 0.7145912200212479 l3.5729563236236572, -0.40833786129951477 0.7145912200212479, -0.6125067919492722 l1.4291824400424957, -1.9396047294139862 0.9187601506710052, -1.9396047294139862 l0.9187601506710052, -4.287547469139099 0.0, -1.9396047294139862 l-0.3062533959746361, -1.1229290813207626 -1.2250135838985443, -1.2250135838985443 l-1.5312670171260834, 0.10208446532487869 -1.5312670171260834, 0.9187601506710052 m26.337790489196777, 2.4500271677970886 l-0.9187601506710052, -0.10208446532487869 -1.1229290813207626, 0.3062533959746361 l-2.347942590713501, 1.9396047294139862 -1.5312670171260834, 2.8583648800849915 l0.5104223266243935, 2.2458581626415253 1.9396047294139862, 1.5312670171260834 l1.4291824400424957, 0.3062533959746361 2.1437737345695496, -1.020844653248787 l0.8166757225990295, -1.020844653248787 0.40833786129951477, -1.2250135838985443 l0.0, -2.5521114468574524 -0.9187601506710052, -2.65419602394104 l-3.266702890396118, -3.7771251797676086 m-22.96900510787964, 0.3062533959746361 l-0.10208446532487869, -0.9187601506710052 0.3062533959746361, -0.5104223266243935 l-0.3062533959746361, -0.40833786129951477 0.7145912200212479, -1.32709801197052 l2.041689306497574, -1.633351445198059 0.8166757225990295, -1.7354358732700348 l0.9187601506710052, -0.9187601506710052 m20.314807891845703, 12.760558128356934 l-0.8166757225990295, -0.40833786129951477 -5.614645481109619, -5.104222893714905 l-1.8375203013420105, -1.1229290813207626 m-19.804385900497437, -8.26884150505066 l8.881348371505737, 1.4291824400424957 7.656334638595581, 0.10208446532487869 l7.860503792762756, -0.3062533959746361 5.818814635276794, -1.1229290813207626 l0.6125067919492722, -0.3062533959746361 m-9.085517525672913, 9.698023796081543 l-1.4291824400424957, -2.347942590713501 -2.4500271677970886, -2.347942590713501 l-2.041689306497574, -3.266702890396118 -0.20416893064975739, -0.9187601506710052 " fill="none" stroke="black" stroke-width="1" /></svg>