<?xml version="1.0" encoding="utf-8" ?>
<svg baseProfile="full" height="38.17531134933233" version="1.1" width="55.223417580127716" xmlns="http://www.w3.org/2000/svg" xmlns:ev="http://www.w3.org/2001/xml-events" xmlns:xlink="http://www.w3.org/1999/xlink"><defs /><rect fill="white" height="38.17531134933233" width="55.223417580127716" x="0" y="0" /><path d="M13.370925933122635, 19.802246540784836 m-2.347942590713501, 0.0 l-1.1229290813207626, 0.3062533959746361 -2.960449457168579, 2.7562806010246277 l-0.8166757225990295, 1.8375203013420105 -1.1229290813207626, 3.98129403591156 l0.10208446532487869, 3.266702890396118 3.266702890396118, 1.2250135838985443 l4.287547469139099, 0.0 3.8792094588279724, -1.4291824400424957 l2.041689306497574, -2.041689306497574 0.6125067919492722, -1.4291824400424957 l0.3062533959746361, -1.8375203013420105 -0.10208446532487869, -3.0625340342521667 l-0.7145912200212479, -1.1229290813207626 -0.9187601506710052, -0.9187601506710052 l-2.1437737345695496, -1.1229290813207626 -3.4708717465400696, -0.5104223266243935 m34.30037975311279, 0.3062533959746361 l-2.5521114468574524, -0.10208446532487869 -1.633351445198059, 1.1229290813207626 l-2.2458581626415253, 2.7562806010246277 -0.8166757225990295, 2.65419602394104 l0.0, 3.1646183133125305 1.2250135838985443, 1.7354358732700348 l0.7145912200212479, 0.6125067919492722 1.020844653248787, 0.3062533959746361 l3.266702890396118, 0.10208446532487869 1.1229290813207626, -0.40833786129951477 l2.4500271677970886, -2.1437737345695496 1.1229290813207626, -2.960449457168579 l0.10208446532487869, -3.8792094588279724 -0.8166757225990295, -1.020844653248787 l-1.020844653248787, -0.40833786129951477 -6.329236626625061, -1.2250135838985443 m-30.421171188354492, -0.6125067919492722 l3.368787169456482, -1.5312670171260834 1.7354358732700348, -1.4291824400424957 l1.8375203013420105, -0.3062533959746361 18.375203609466553, -0.10208446532487869 l1.2250135838985443, 0.40833786129951477 3.1646183133125305, 2.8583648800849915 l3.266702890396118, 2.041689306497574 m-17.048105001449585, -5.104222893714905 l-0.40833786129951477, 1.7354358732700348 0.0, 6.022983193397522 l-0.5104223266243935, -0.10208446532487869 -2.2458581626415253, 0.9187601506710052 l0.5104223266243935, 0.0 1.8375203013420105, -1.32709801197052 l-0.5104223266243935, 0.5104223266243935 0.40833786129951477, -0.6125067919492722 l-1.4291824400424957, -0.3062533959746361 -1.020844653248787, 0.6125067919492722 l-0.20416893064975739, 0.5104223266243935 1.5312670171260834, 0.6125067919492722 l0.5104223266243935, -0.3062533959746361 0.20416893064975739, -1.020844653248787 m2.2458581626415253, -1.020844653248787 l-0.5104223266243935, 0.40833786129951477 0.6125067919492722, 0.40833786129951477 l0.5104223266243935, 0.0 0.40833786129951477, -0.5104223266243935 m9.391770362854004, -5.614645481109619 l0.0, -5.716729760169983 -0.5104223266243935, -3.675040602684021 m-2.5521114468574524, 1.2250135838985443 l1.8375203013420105, -1.7354358732700348 3.7771251797676086, -2.5521114468574524 l-9.28968608379364, 5.30839204788208 2.65419602394104, -0.7145912200212479 l1.32709801197052, -1.020844653248787 " fill="none" stroke="black" stroke-width="1" /></svg>