<?xml version="1.0" encoding="utf-8" ?>
<svg baseProfile="full" height="40.9315924718976" version="1.1" width="66.24853804707527" xmlns="http://www.w3.org/2000/svg" xmlns:ev="http://www.w3.org/2001/xml-events" xmlns:xlink="http://www.w3.org/1999/xlink"><defs /><rect fill="white" height="40.9315924718976" width="66.24853804707527" x="0" y="0" /><path d="M14.80010662227869, 20.721007026731968 m-1.4291824400424957, -0.3062533959746361 l-3.0625340342521667, 0.20416893064975739 -2.041689306497574, 1.5312670171260834 l-2.65419602394104, 3.266702890396118 -0.20416893064975739, 2.347942590713501 l0.3062533959746361, 1.020844653248787 1.5312670171260834, 1.7354358732700348 l1.4291824400424957, 0.9187601506710052 4.287547469139099, 1.020844653248787 l5.818814635276794, 0.3062533959746361 1.633351445198059, -0.7145912200212479 l2.960449457168579, -2.960449457168579 0.5104223266243935, -1.32709801197052 l0.10208446532487869, -3.675040602684021 -1.32709801197052, -2.347942590713501 l-1.4291824400424957, -1.4291824400424957 -1.1229290813207626, -0.6125067919492722 l-2.347942590713501, 0.10208446532487869 m24.704439640045166, 4.389632046222687 l-2.2458581626415253, 0.9187601506710052 -1.4291824400424957, 1.32709801197052 l-1.1229290813207626, 2.65419602394104 0.10208446532487869, 4.593800902366638 l1.020844653248787, 1.32709801197052 1.2250135838985443, 0.6125067919492722 l7.043827772140503, 0.3062533959746361 3.368787169456482, -0.40833786129951477 l1.5312670171260834, -1.020844653248787 1.32709801197052, -1.633351445198059 l0.40833786129951477, -3.266702890396118 -0.20416893064975739, -2.4500271677970886 l-0.5104223266243935, -1.4291824400424957 -2.5521114468574524, -3.4708717465400696 l-3.1646183133125305, -2.960449457168579 -9.493855237960815, 3.0625340342521667 m-22.152328491210938, -2.2458581626415253 l16.94602131843567, 2.4500271677970886 13.98557186126709, 3.1646183133125305 l3.7771251797676086, 1.5312670171260834 8.26884150505066, 1.2250135838985443 l2.65419602394104, 0.0 -3.0625340342521667, -0.8166757225990295 m-30.012831687927246, -6.1250680685043335 l0.10208446532487869, -3.368787169456482 0.3062533959746361, -0.5104223266243935 l1.2250135838985443, 0.5104223266243935 0.10208446532487869, 1.5312670171260834 l0.6125067919492722, 1.5312670171260834 -2.347942590713501, 0.3062533959746361 l-0.10208446532487869, -0.6125067919492722 3.675040602684021, -1.7354358732700348 l0.5104223266243935, -0.8166757225990295 -1.2250135838985443, 1.2250135838985443 l-1.8375203013420105, 0.20416893064975739 -0.40833786129951477, 1.633351445198059 l2.041689306497574, 0.3062533959746361 1.1229290813207626, -1.2250135838985443 l0.0, -1.32709801197052 -0.10208446532487869, -0.5104223266243935 l-0.8166757225990295, 1.5312670171260834 -0.3062533959746361, -3.4708717465400696 l0.6125067919492722, -0.3062533959746361 1.1229290813207626, 0.40833786129951477 l0.8166757225990295, 1.2250135838985443 -0.7145912200212479, 1.1229290813207626 l-1.7354358732700348, 1.2250135838985443 -0.5104223266243935, 0.20416893064975739 l-0.8166757225990295, -2.960449457168579 -1.020844653248787, 1.7354358732700348 l-1.9396047294139862, 0.8166757225990295 m-8.064672350883484, 0.0 l0.3062533959746361, -0.5104223266243935 -0.3062533959746361, -13.066811561584473 l-13.475148677825928, -1.633351445198059 3.4708717465400696, 0.20416893064975739 l8.983432650566101, 1.9396047294139862 14.393908977508545, 4.083378612995148 l7.1459126472473145, 1.32709801197052 " fill="none" stroke="black" stroke-width="1" /></svg>