<?xml version="1.0" encoding="utf-8" ?>
<svg baseProfile="full" height="53.69214963167906" version="1.1" width="68.90273477882147" xmlns="http://www.w3.org/2000/svg" xmlns:ev="http://www.w3.org/2001/xml-events" xmlns:xlink="http://www.w3.org/1999/xlink"><defs /><rect fill="white" height="53.69214963167906" width="68.90273477882147" x="0" y="0" /><path d="M5.408337898552418, 47.87547390908003 m-0.3062533959746361, -11.739712953567505 l0.40833786129951477, -2.1437737345695496 0.8166757225990295, -1.5312670171260834 l2.1437737345695496, -0.7145912200212479 7.350081205368042, -0.10208446532487869 l8.677179217338562, 0.6125067919492722 2.4500271677970886, 0.5104223266243935 l0.40833786129951477, 0.5104223266243935 0.0, 2.5521114468574524 l-1.2250135838985443, 3.7771251797676086 -3.8792094588279724, 6.737574338912964 l-1.32709801197052, 1.5312670171260834 -2.1437737345695496, 0.7145912200212479 l-1.32709801197052, 0.10208446532487869 -7.247996926307678, 0.0 l-4.1854628920555115, -0.7145912200212479 -1.020844653248787, -0.9187601506710052 m10.004277229309082, -15.51683783531189 l0.5104223266243935, -2.5521114468574524 1.633351445198059, -3.98129403591156 l2.4500271677970886, -4.287547469139099 3.7771251797676086, -5.30839204788208 m20.723145008087158, 31.03367567062378 l-1.5312670171260834, -2.041689306497574 -1.8375203013420105, -3.7771251797676086 l-1.020844653248787, -2.960449457168579 -0.5104223266243935, -3.7771251797676086 l0.0, -1.8375203013420105 0.40833786129951477, -1.020844653248787 l2.5521114468574524, -0.10208446532487869 12.556389570236206, 3.368787169456482 l8.166757225990295, 3.0625340342521667 0.7145912200212479, 0.40833786129951477 l0.3062533959746361, 1.020844653248787 -1.020844653248787, 2.960449457168579 l-1.5312670171260834, 2.5521114468574524 -1.1229290813207626, 1.633351445198059 l-1.5312670171260834, 1.32709801197052 -2.041689306497574, 0.20416893064975739 l-8.677179217338562, -1.5312670171260834 -1.633351445198059, -0.8166757225990295 l-1.5312670171260834, -2.347942590713501 m6.227152347564697, -11.127206087112427 l-1.633351445198059, -0.3062533959746361 -3.266702890396118, -2.5521114468574524 l-10.514699220657349, -10.20844578742981 -1.5312670171260834, -1.9396047294139862 m-27.15446710586548, -0.3062533959746361 l5.512561202049255, -1.020844653248787 8.26884150505066, 0.7145912200212479 l10.412615537643433, -0.7145912200212479 14.087655544281006, 1.633351445198059 m-20.825231075286865, -1.5312670171260834 l-0.6125067919492722, -2.347942590713501 0.10208446532487869, -3.675040602684021 l-4.4917163252830505, -0.10208446532487869 -2.4500271677970886, -0.5104223266243935 l-3.368787169456482, -1.32709801197052 0.10208446532487869, -0.5104223266243935 l0.7145912200212479, -0.5104223266243935 2.4500271677970886, -1.020844653248787 l3.0625340342521667, -0.40833786129951477 9.59593951702118, 0.10208446532487869 l4.1854628920555115, 0.6125067919492722 3.4708717465400696, 1.4291824400424957 l-0.40833786129951477, 0.5104223266243935 -1.9396047294139862, 0.7145912200212479 l-2.4500271677970886, 0.40833786129951477 -8.166757225990295, -0.10208446532487869 " fill="none" stroke="black" stroke-width="1" /></svg>