<?xml version="1.0" encoding="utf-8" ?>
<svg baseProfile="full" height="29.804385863244534" version="1.1" width="30.518977344036102" xmlns="http://www.w3.org/2000/svg" xmlns:ev="http://www.w3.org/2001/xml-events" xmlns:xlink="http://www.w3.org/1999/xlink"><defs /><rect fill="white" height="29.804385863244534" width="30.518977344036102" x="0" y="0" /><path d="M6.531266123056412, 23.987710177898407 m1.32709801197052, 0.7145912200212479 l2.7562806010246277, 0.10208446532487869 0.5104223266243935, -0.40833786129951477 l0.40833786129951477, -1.7354358732700348 -0.10208446532487869, -1.1229290813207626 l-0.9187601506710052, -1.020844653248787 -0.9187601506710052, -0.5104223266243935 l-2.347942590713501, -0.10208446532487869 -0.9187601506710052, 0.6125067919492722 l-0.7145912200212479, 1.7354358732700348 0.0, 1.020844653248787 l0.9187601506710052, 0.7145912200212479 m12.454304695129395, -2.960449457168579 l0.7145912200212479, 0.9187601506710052 2.1437737345695496, 1.2250135838985443 l2.347942590713501, 0.5104223266243935 1.1229290813207626, -0.3062533959746361 l0.0, -2.1437737345695496 -0.7145912200212479, -1.32709801197052 l-1.1229290813207626, -1.1229290813207626 -1.1229290813207626, -0.40833786129951477 l-2.5521114468574524, -0.10208446532487869 -0.6125067919492722, 0.40833786129951477 l-0.3062533959746361, 1.2250135838985443 0.3062533959746361, 0.7145912200212479 l1.4291824400424957, 0.7145912200212479 m-11.739712953567505, -1.020844653248787 l-0.20416893064975739, -7.656334638595581 -3.675040602684021, -2.347942590713501 l3.7771251797676086, 1.9396047294139862 3.5729563236236572, -7.247996926307678 m-3.4708717465400696, 10.106362104415894 l3.8792094588279724, 0.0 6.839659214019775, -0.6125067919492722 l0.8166757225990295, 3.7771251797676086 m1.633351445198059, 2.960449457168579 l-0.20416893064975739, -1.8375203013420105 0.7145912200212479, 2.2458581626415253 l-1.7354358732700348, 0.3062533959746361 2.2458581626415253, 0.20416893064975739 l2.4500271677970886, 1.5312670171260834 m-3.0625340342521667, -3.98129403591156 l-0.5104223266243935, 0.10208446532487869 -0.8166757225990295, 1.020844653248787 l-0.5104223266243935, 1.7354358732700348 m-0.6125067919492722, -2.960449457168579 l2.960449457168579, 2.2458581626415253 m-2.1437737345695496, -2.65419602394104 l2.8583648800849915, 3.266702890396118 m-0.3062533959746361, -2.7562806010246277 l-0.3062533959746361, 0.6125067919492722 0.0, 1.7354358732700348 m-16.53768301010132, -0.5104223266243935 l2.8583648800849915, 2.5521114468574524 m-2.1437737345695496, -2.4500271677970886 l-0.10208446532487869, 1.2250135838985443 0.9187601506710052, 1.4291824400424957 m0.6125067919492722, -3.4708717465400696 l-0.10208446532487869, 3.266702890396118 " fill="none" stroke="black" stroke-width="1" /></svg>