<?xml version="1.0" encoding="utf-8" ?>
<svg baseProfile="full" height="34.90860976278782" version="1.1" width="38.2773956656456" xmlns="http://www.w3.org/2000/svg" xmlns:ev="http://www.w3.org/2001/xml-events" xmlns:xlink="http://www.w3.org/1999/xlink"><defs /><rect fill="white" height="34.90860976278782" width="38.2773956656456" x="0" y="0" /><path d="M7.654196098446846, 17.148052230477333 m-0.6125067919492722, -0.3062533959746361 l-2.041689306497574, 3.0625340342521667 0.0, 4.695885181427002 l1.9396047294139862, 2.65419602394104 1.2250135838985443, 0.8166757225990295 l1.4291824400424957, 0.20416893064975739 2.65419602394104, -0.10208446532487869 l2.041689306497574, -1.32709801197052 2.1437737345695496, -3.5729563236236572 l0.0, -2.65419602394104 -1.4291824400424957, -1.7354358732700348 l-2.5521114468574524, -1.7354358732700348 -2.65419602394104, -0.5104223266243935 l-1.633351445198059, 0.0 -1.020844653248787, 0.5104223266243935 m17.354358434677124, 1.7354358732700348 l-0.5104223266243935, -0.6125067919492722 -1.020844653248787, 0.40833786129951477 l-2.960449457168579, 2.8583648800849915 -0.3062533959746361, 1.1229290813207626 l0.20416893064975739, 3.8792094588279724 1.7354358732700348, 2.347942590713501 l2.4500271677970886, 1.020844653248787 4.593800902366638, -0.3062533959746361 l2.2458581626415253, -1.32709801197052 1.2250135838985443, -1.1229290813207626 l0.7145912200212479, -1.7354358732700348 0.10208446532487869, -2.4500271677970886 l-0.3062533959746361, -1.1229290813207626 -0.9187601506710052, -1.32709801197052 l-1.8375203013420105, -1.32709801197052 -3.0625340342521667, -1.32709801197052 l-2.8583648800849915, 0.10208446532487869 m-17.456443309783936, 0.40833786129951477 l1.2250135838985443, 1.9396047294139862 4.4917163252830505, 4.695885181427002 l1.32709801197052, 2.041689306497574 m-0.10208446532487869, -7.96258807182312 l-3.8792094588279724, 5.30839204788208 -1.5312670171260834, 3.0625340342521667 m2.960449457168579, -9.800108671188354 l-0.3062533959746361, 3.8792094588279724 0.6125067919492722, 4.4917163252830505 l0.3062533959746361, 1.32709801197052 0.10208446532487869, -0.40833786129951477 m-5.614645481109619, -3.675040602684021 l1.4291824400424957, -0.10208446532487869 4.900054335594177, 0.8166757225990295 l12.86264181137085, 0.40833786129951477 7.554250359535217, 0.20416893064975739 l0.40833786129951477, -0.5104223266243935 m-6.941743493080139, -4.900054335594177 l0.40833786129951477, 9.391770362854004 0.10208446532487869, 0.5104223266243935 l0.10208446532487869, -0.6125067919492722 m-5.206307768821716, -7.350081205368042 l7.860503792762756, 6.6354900598526 m-8.166757225990295, 0.20416893064975739 l5.614645481109619, -5.002138614654541 1.9396047294139862, -2.041689306497574 l0.0, -0.8166757225990295 m-17.456443309783936, -2.960449457168579 l7.043827772140503, 1.020844653248787 9.28968608379364, 0.20416893064975739 l-0.20416893064975739, -5.206307768821716 -14.802247285842896, 3.4708717465400696 l-2.7562806010246277, 0.0 -0.6125067919492722, -0.6125067919492722 l-0.6125067919492722, -2.041689306497574 -0.10208446532487869, -1.8375203013420105 l1.7354358732700348, -4.083378612995148 1.020844653248787, -0.8166757225990295 l3.98129403591156, -1.9396047294139862 1.633351445198059, -0.3062533959746361 l0.3062533959746361, 0.20416893064975739 m-9.085517525672913, 8.26884150505066 l0.5104223266243935, 0.0 2.4500271677970886, -2.7562806010246277 l2.4500271677970886, -1.5312670171260834 4.389632046222687, -0.5104223266243935 " fill="none" stroke="black" stroke-width="1" /></svg>