<?xml version="1.0" encoding="utf-8" ?>
<svg baseProfile="full" height="38.88990297913551" version="1.1" width="50.83378657698631" xmlns="http://www.w3.org/2000/svg" xmlns:ev="http://www.w3.org/2001/xml-events" xmlns:xlink="http://www.w3.org/1999/xlink"><defs /><rect fill="white" height="38.88990297913551" width="50.83378657698631" x="0" y="0" /><path d="M13.064672723412514, 20.10850068181753 m-2.4500271677970886, 0.0 l-1.7354358732700348, 0.8166757225990295 -2.4500271677970886, 1.9396047294139862 l-1.2250135838985443, 2.65419602394104 -0.20416893064975739, 3.0625340342521667 l0.6125067919492722, 0.8166757225990295 2.2458581626415253, 1.633351445198059 l1.5312670171260834, 0.6125067919492722 1.5312670171260834, 0.10208446532487869 l3.7771251797676086, 0.0 2.2458581626415253, -0.8166757225990295 l1.2250135838985443, -1.020844653248787 0.7145912200212479, -2.4500271677970886 l0.10208446532487869, -2.1437737345695496 -0.9187601506710052, -2.7562806010246277 l-1.020844653248787, -1.020844653248787 -1.32709801197052, -0.7145912200212479 l-2.960449457168579, -0.7145912200212479 m29.196157455444336, 2.1437737345695496 l-3.675040602684021, 0.0 -3.675040602684021, 1.4291824400424957 l-2.2458581626415253, 1.7354358732700348 -0.9187601506710052, 1.8375203013420105 l0.5104223266243935, 2.347942590713501 1.5312670171260834, 2.2458581626415253 l1.9396047294139862, 1.4291824400424957 1.5312670171260834, 0.6125067919492722 l3.7771251797676086, -0.20416893064975739 3.368787169456482, -2.8583648800849915 l1.1229290813207626, -1.633351445198059 0.6125067919492722, -1.8375203013420105 l-0.40833786129951477, -3.1646183133125305 -1.32709801197052, -1.1229290813207626 l-2.2458581626415253, -0.8166757225990295 -0.8166757225990295, -0.6125067919492722 m-23.071088790893555, 0.40833786129951477 l10.514699220657349, 1.633351445198059 6.1250680685043335, 0.0 m-18.375203609466553, -3.1646183133125305 l0.9187601506710052, -4.4917163252830505 1.1229290813207626, -8.473010659217834 l0.0, -2.347942590713501 m-3.0625340342521667, 0.10208446532487869 l8.677179217338562, -0.3062533959746361 m10.9230375289917, 18.57937216758728 l-0.20416893064975739, -5.818814635276794 " fill="none" stroke="black" stroke-width="1" /></svg>