<?xml version="1.0" encoding="utf-8" ?>
<svg baseProfile="full" height="53.18172823637724" version="1.1" width="67.26938501000404" xmlns="http://www.w3.org/2000/svg" xmlns:ev="http://www.w3.org/2001/xml-events" xmlns:xlink="http://www.w3.org/1999/xlink"><defs /><rect fill="white" height="53.18172823637724" width="67.26938501000404" x="0" y="0" /><path d="M10.81881433725357, 32.97114320099354 m-1.4291824400424957, 0.0 l-1.1229290813207626, 0.8166757225990295 -2.65419602394104, 4.287547469139099 l-0.6125067919492722, 3.7771251797676086 0.0, 2.5521114468574524 l0.9187601506710052, 1.633351445198059 3.4708717465400696, 1.633351445198059 l4.79796975851059, 0.5104223266243935 3.8792094588279724, -0.20416893064975739 l3.368787169456482, -1.020844653248787 0.5104223266243935, -0.5104223266243935 l0.20416893064975739, -6.227152347564697 -1.1229290813207626, -2.347942590713501 l-1.1229290813207626, -0.9187601506710052 -3.368787169456482, -1.7354358732700348 l-2.8583648800849915, -0.6125067919492722 -3.5729563236236572, -0.10208446532487869 m41.65046215057373, 0.10208446532487869 l-1.1229290813207626, 0.3062533959746361 -1.2250135838985443, 2.347942590713501 l-0.40833786129951477, 2.7562806010246277 0.20416893064975739, 6.227152347564697 l1.5312670171260834, 1.4291824400424957 8.166757225990295, 0.10208446532487869 l1.9396047294139862, -0.6125067919492722 1.32709801197052, -1.633351445198059 l0.10208446532487869, -3.7771251797676086 -2.041689306497574, -3.1646183133125305 l-1.020844653248787, -1.020844653248787 -4.1854628920555115, -2.041689306497574 l-2.8583648800849915, -0.7145912200212479 -2.041689306497574, 0.0 l-2.347942590713501, 1.32709801197052 m-31.748268604278564, -2.4500271677970886 l4.389632046222687, -2.4500271677970886 6.533405780792236, -4.79796975851059 l2.4500271677970886, -2.4500271677970886 1.32709801197052, -1.9396047294139862 m8.881348371505737, 0.6125067919492722 l2.5521114468574524, 2.347942590713501 9.493855237960815, 6.941743493080139 l2.8583648800849915, 1.4291824400424957 -1.1229290813207626, 0.0 m-31.237845420837402, -11.841797828674316 l6.022983193397522, 0.0 6.941743493080139, -0.5104223266243935 l13.883486986160278, -1.633351445198059 m-21.53982162475586, 0.5104223266243935 l-7.043827772140503, -7.247996926307678 -5.716729760169983, -7.656334638595581 " fill="none" stroke="black" stroke-width="1" /></svg>