<?xml version="1.0" encoding="utf-8" ?>
<svg baseProfile="full" height="27.456442639231682" version="1.1" width="33.37734159082174" xmlns="http://www.w3.org/2000/svg" xmlns:ev="http://www.w3.org/2001/xml-events" xmlns:xlink="http://www.w3.org/1999/xlink"><defs /><rect fill="white" height="27.456442639231682" width="33.37734159082174" x="0" y="0" /><path d="M6.8375203385949135, 13.57509434223175 m-1.32709801197052, 1.2250135838985443 l-0.5104223266243935, 1.32709801197052 0.10208446532487869, 3.1646183133125305 l0.8166757225990295, 1.020844653248787 1.5312670171260834, 1.32709801197052 l1.7354358732700348, 0.6125067919492722 3.266702890396118, 0.20416893064975739 l1.9396047294139862, -0.7145912200212479 0.6125067919492722, -0.6125067919492722 l0.7145912200212479, -1.633351445198059 0.0, -2.041689306497574 l-0.20416893064975739, -0.8166757225990295 -1.32709801197052, -1.4291824400424957 l-1.2250135838985443, -0.7145912200212479 -4.389632046222687, -0.7145912200212479 l-2.041689306497574, 0.20416893064975739 -0.6125067919492722, 0.5104223266243935 m19.396047592163086, -0.5104223266243935 l-1.8375203013420105, 1.2250135838985443 -0.20416893064975739, 2.347942590713501 l0.10208446532487869, 0.8166757225990295 2.041689306497574, 3.0625340342521667 l1.32709801197052, 0.40833786129951477 1.1229290813207626, -1.5312670171260834 l0.5104223266243935, -3.266702890396118 -0.10208446532487869, -2.65419602394104 l-0.5104223266243935, -0.6125067919492722 -1.5312670171260834, -0.6125067919492722 l-2.1437737345695496, -0.10208446532487869 m-13.57723355293274, 4.593800902366638 l-0.10208446532487869, -1.9396047294139862 0.7145912200212479, -4.79796975851059 l11.739712953567505, 0.0 2.347942590713501, 0.3062533959746361 l0.40833786129951477, 0.7145912200212479 0.10208446532487869, 6.533405780792236 m-7.247996926307678, -7.656334638595581 l-0.10208446532487869, -3.4708717465400696 m-6.737574338912964, 4.083378612995148 l-0.3062533959746361, -4.4917163252830505 m-0.7145912200212479, 0.7145912200212479 l-3.0625340342521667, 1.020844653248787 6.227152347564697, -3.675040602684021 " fill="none" stroke="black" stroke-width="1" /></svg>