<?xml version="1.0" encoding="utf-8" ?>
<svg baseProfile="full" height="66.7589608579874" version="1.1" width="86.05292573571205" xmlns="http://www.w3.org/2000/svg" xmlns:ev="http://www.w3.org/2001/xml-events" xmlns:xlink="http://www.w3.org/1999/xlink"><defs /><rect fill="white" height="66.7589608579874" width="86.05292573571205" x="0" y="0" /><path d="M30.419033244252205, 32.05238241702318 m-1.1229290813207626, 0.20416893064975739 l-7.350081205368042, 3.8792094588279724 -3.675040602684021, 2.8583648800849915 l-2.041689306497574, 2.1437737345695496 -0.6125067919492722, 1.2250135838985443 l-0.10208446532487869, 2.2458581626415253 1.9396047294139862, 5.716729760169983 l3.0625340342521667, 3.675040602684021 4.695885181427002, 2.041689306497574 l5.512561202049255, 0.10208446532487869 1.4291824400424957, -0.20416893064975739 l2.960449457168579, -1.1229290813207626 1.633351445198059, -1.633351445198059 l1.5312670171260834, -4.695885181427002 0.20416893064975739, -6.329236626625061 l-0.3062533959746361, -2.041689306497574 -2.65419602394104, -7.860503792762756 l-1.1229290813207626, -1.020844653248787 -2.1437737345695496, -0.6125067919492722 l-3.266702890396118, 1.2250135838985443 m42.058796882629395, -0.5104223266243935 l-1.633351445198059, 0.0 -3.8792094588279724, 1.5312670171260834 l-4.79796975851059, 3.368787169456482 -3.368787169456482, 4.083378612995148 l-3.0625340342521667, 6.227152347564697 -1.1229290813207626, 3.8792094588279724 l0.0, 4.389632046222687 0.8166757225990295, 2.5521114468574524 l1.32709801197052, 2.041689306497574 1.1229290813207626, 1.020844653248787 l2.8583648800849915, 1.020844653248787 4.287547469139099, 0.3062533959746361 l8.779264092445374, -2.4500271677970886 2.347942590713501, -1.2250135838985443 l1.2250135838985443, -1.5312670171260834 4.593800902366638, -10.004277229309082 l0.5104223266243935, -1.7354358732700348 -0.10208446532487869, -5.716729760169983 l-0.6125067919492722, -1.633351445198059 -0.9187601506710052, -1.32709801197052 l-2.5521114468574524, -2.041689306497574 -3.368787169456482, -0.9187601506710052 l-4.1854628920555115, -1.633351445198059 m11.739712953567505, 0.0 l-1.7354358732700348, -0.10208446532487869 -2.960449457168579, 0.8166757225990295 l-2.1437737345695496, 0.20416893064975739 -7.350081205368042, 0.10208446532487869 l-12.556389570236206, -2.041689306497574 -9.59593951702118, -0.9187601506710052 l-22.6627516746521, -1.2250135838985443 -1.5312670171260834, -3.7771251797676086 l-0.6125067919492722, -10.820952653884888 -0.6125067919492722, -3.4708717465400696 l-0.8166757225990295, -1.9396047294139862 m-1.1229290813207626, -3.368787169456482 l-0.20416893064975739, 0.5104223266243935 2.2458581626415253, 1.633351445198059 m-0.6125067919492722, 0.5104223266243935 l-0.7145912200212479, 0.7145912200212479 -2.8583648800849915, 5.104222893714905 l-1.32709801197052, 6.839659214019775 m5.002138614654541, -12.250136137008667 l0.20416893064975739, -1.020844653248787 16.94602131843567, 0.0 m-6.022983193397522, 25.521116256713867 l-3.4708717465400696, 15.108500719070435 -1.1229290813207626, 8.575094938278198 l-0.40833786129951477, 0.10208446532487869 m11.229290962219238, -13.066811561584473 l-16.02726101875305, -0.20416893064975739 -8.064672350883484, 0.5104223266243935 l-6.737574338912964, 1.2250135838985443 -0.40833786129951477, 0.5104223266243935 l1.4291824400424957, 0.3062533959746361 " fill="none" stroke="black" stroke-width="1" /></svg>