<?xml version="1.0" encoding="utf-8" ?>
<svg baseProfile="full" height="45.423308685421944" version="1.1" width="59.20471131801605" xmlns="http://www.w3.org/2000/svg" xmlns:ev="http://www.w3.org/2001/xml-events" xmlns:xlink="http://www.w3.org/1999/xlink"><defs /><rect fill="white" height="45.423308685421944" width="59.20471131801605" x="0" y="0" /><path d="M6.633351594209671, 22.25227426737547 m0.5104223266243935, -1.020844653248787 l2.8583648800849915, -1.1229290813207626 16.53768301010132, -0.10208446532487869 l3.675040602684021, -0.6125067919492722 16.53768301010132, 0.3062533959746361 l1.020844653248787, -0.7145912200212479 0.5104223266243935, -1.020844653248787 l0.10208446532487869, -10.004277229309082 0.20416893064975739, 0.6125067919492722 l-1.4291824400424957, 1.2250135838985443 -2.1437737345695496, 0.40833786129951477 l-1.020844653248787, 0.7145912200212479 0.20416893064975739, -0.5104223266243935 l3.98129403591156, -0.20416893064975739 0.7145912200212479, -2.041689306497574 l0.10208446532487869, -1.5312670171260834 -0.20416893064975739, -0.5104223266243935 l-1.1229290813207626, -0.6125067919492722 -4.593800902366638, -0.5104223266243935 m4.695885181427002, 13.2709801197052 l0.10208446532487869, 9.698023796081543 -0.40833786129951477, 3.0625340342521667 l-0.5104223266243935, 0.40833786129951477 -1.2250135838985443, -0.40833786129951477 l-2.1437737345695496, 0.0 -1.7354358732700348, 1.020844653248787 l-1.1229290813207626, 2.2458581626415253 0.10208446532487869, 3.266702890396118 l1.7354358732700348, 2.041689306497574 1.2250135838985443, 0.6125067919492722 l7.4521660804748535, 0.20416893064975739 1.7354358732700348, -0.7145912200212479 l1.1229290813207626, -2.347942590713501 0.10208446532487869, -3.1646183133125305 l-0.9187601506710052, -2.1437737345695496 -1.020844653248787, -1.32709801197052 l-1.2250135838985443, -0.9187601506710052 -2.960449457168579, -1.020844653248787 l-1.020844653248787, 0.0 -1.633351445198059, 0.9187601506710052 m-38.996264934539795, -7.96258807182312 l0.10208446532487869, 11.229290962219238 0.40833786129951477, 0.6125067919492722 l3.1646183133125305, -0.3062533959746361 0.20416893064975739, -2.1437737345695496 l-0.40833786129951477, -1.1229290813207626 -1.4291824400424957, -1.1229290813207626 l-2.2458581626415253, -0.10208446532487869 -1.1229290813207626, 0.7145912200212479 l-0.10208446532487869, 3.1646183133125305 1.4291824400424957, 1.2250135838985443 l1.32709801197052, -0.10208446532487869 m18.681457042694092, -15.108500719070435 l0.8166757225990295, -4.695885181427002 2.7562806010246277, 0.0 l0.5104223266243935, -0.3062533959746361 0.8166757225990295, -1.020844653248787 l0.0, -2.65419602394104 -0.9187601506710052, -1.1229290813207626 l-1.1229290813207626, -0.6125067919492722 -3.0625340342521667, 0.0 l-1.8375203013420105, 0.40833786129951477 -1.2250135838985443, 1.633351445198059 l0.3062533959746361, 1.2250135838985443 1.020844653248787, 0.8166757225990295 l1.2250135838985443, 0.7145912200212479 1.633351445198059, 0.20416893064975739 " fill="none" stroke="black" stroke-width="1" /></svg>