<?xml version="1.0" encoding="utf-8" ?>
<svg baseProfile="full" height="39.196156188845634" version="1.1" width="65.22769562900066" xmlns="http://www.w3.org/2000/svg" xmlns:ev="http://www.w3.org/2001/xml-events" xmlns:xlink="http://www.w3.org/1999/xlink"><defs /><rect fill="white" height="39.196156188845634" width="65.22769562900066" x="0" y="0" /><path d="M25.212723426520824, 21.129344925284386 m-0.10208446532487869, -0.8166757225990295 l-0.7145912200212479, -1.1229290813207626 -1.8375203013420105, -1.7354358732700348 l-2.347942590713501, -1.5312670171260834 -2.4500271677970886, -0.5104223266243935 l-4.4917163252830505, 0.5104223266243935 -3.1646183133125305, 1.9396047294139862 l-2.5521114468574524, 2.4500271677970886 -1.633351445198059, 2.1437737345695496 l-0.7145912200212479, 1.633351445198059 -0.20416893064975739, 2.4500271677970886 l0.5104223266243935, 1.633351445198059 0.9187601506710052, 1.4291824400424957 l1.7354358732700348, 1.4291824400424957 3.266702890396118, 1.5312670171260834 l2.4500271677970886, 0.7145912200212479 5.716729760169983, 0.10208446532487869 l4.083378612995148, -0.6125067919492722 3.8792094588279724, -2.041689306497574 l1.633351445198059, -1.5312670171260834 1.1229290813207626, -2.347942590713501 l0.20416893064975739, -2.2458581626415253 -0.5104223266243935, -2.347942590713501 l-0.9187601506710052, -1.5312670171260834 -1.633351445198059, -1.5312670171260834 l-3.675040602684021, -1.5312670171260834 -2.4500271677970886, -0.3062533959746361 l-1.633351445198059, 0.5104223266243935 -1.32709801197052, 1.5312670171260834 m41.65046215057373, 3.675040602684021 l0.20416893064975739, -1.1229290813207626 -1.32709801197052, -1.7354358732700348 l-1.7354358732700348, -1.1229290813207626 -1.7354358732700348, -0.5104223266243935 l-4.1854628920555115, -0.20416893064975739 -2.347942590713501, 0.40833786129951477 l-3.0625340342521667, 1.2250135838985443 -2.1437737345695496, 1.7354358732700348 l-1.020844653248787, 1.32709801197052 -0.9187601506710052, 3.1646183133125305 l0.0, 1.5312670171260834 0.6125067919492722, 2.7562806010246277 l1.32709801197052, 1.633351445198059 2.041689306497574, 1.32709801197052 l3.368787169456482, 0.7145912200212479 4.287547469139099, -0.40833786129951477 l3.675040602684021, -1.4291824400424957 1.8375203013420105, -1.4291824400424957 l1.020844653248787, -1.633351445198059 0.3062533959746361, -1.8375203013420105 l-0.20416893064975739, -1.5312670171260834 -1.1229290813207626, -2.8583648800849915 l-0.6125067919492722, -0.7145912200212479 -1.8375203013420105, -1.1229290813207626 m-4.79796975851059, 4.900054335594177 l-1.020844653248787, -0.6125067919492722 0.0, -0.5104223266243935 l1.020844653248787, -0.7145912200212479 -1.32709801197052, 0.20416893064975739 m-34.504549503326416, 2.2458581626415253 l-0.3062533959746361, -1.32709801197052 0.40833786129951477, -0.5104223266243935 l0.7145912200212479, -0.40833786129951477 1.4291824400424957, -0.10208446532487869 l-0.20416893064975739, 0.5104223266243935 -1.1229290813207626, 0.40833786129951477 l-0.6125067919492722, 0.0 -0.20416893064975739, -0.5104223266243935 m35.52539348602295, 1.8375203013420105 l-11.433459520339966, -1.32709801197052 -15.414754152297974, 0.5104223266243935 l-7.656334638595581, -0.20416893064975739 -1.020844653248787, 0.3062533959746361 l-1.020844653248787, -0.3062533959746361 -0.3062533959746361, -0.6125067919492722 l1.8375203013420105, -2.1437737345695496 6.839659214019775, -5.410476326942444 l8.473010659217834, -8.064672350883484 2.960449457168579, -2.2458581626415253 l0.5104223266243935, 0.20416893064975739 0.8166757225990295, 1.2250135838985443 l8.26884150505066, 8.370925784111023 3.1646183133125305, 4.4917163252830505 l1.9396047294139862, 3.98129403591156 m0.20416893064975739, 2.960449457168579 l0.3062533959746361, -6.022983193397522 1.32709801197052, -8.26884150505066 l1.9396047294139862, -9.085517525672913 " fill="none" stroke="black" stroke-width="1" /></svg>