<?xml version="1.0" encoding="utf-8" ?>
<svg baseProfile="full" height="32.56066765636206" version="1.1" width="38.37948001921177" xmlns="http://www.w3.org/2000/svg" xmlns:ev="http://www.w3.org/2001/xml-events" xmlns:xlink="http://www.w3.org/1999/xlink"><defs /><rect fill="white" height="32.56066765636206" width="38.37948001921177" x="0" y="0" /><path d="M5.714590586721897, 15.71886945515871 m-0.10208446532487869, 6.6354900598526 l0.20416893064975739, 1.1229290813207626 2.5521114468574524, 1.2250135838985443 l1.5312670171260834, 0.0 1.32709801197052, -0.40833786129951477 l0.5104223266243935, -1.1229290813207626 0.0, -5.002138614654541 l-0.6125067919492722, -1.4291824400424957 -2.960449457168579, -1.32709801197052 m2.4500271677970886, -0.3062533959746361 l-1.020844653248787, 1.4291824400424957 -0.5104223266243935, 1.7354358732700348 l-0.9187601506710052, 6.227152347564697 m-0.8166757225990295, -4.79796975851059 l2.041689306497574, 0.7145912200212479 6.1250680685043335, 0.6125067919492722 m17.048105001449585, -2.5521114468574524 l-1.5312670171260834, 0.20416893064975739 -2.65419602394104, 2.4500271677970886 l-1.7354358732700348, 3.0625340342521667 -0.3062533959746361, 1.2250135838985443 l-0.10208446532487869, 0.7145912200212479 0.6125067919492722, 1.32709801197052 l2.041689306497574, 0.10208446532487869 0.9187601506710052, -0.20416893064975739 l2.1437737345695496, -1.8375203013420105 0.6125067919492722, -1.1229290813207626 l0.8166757225990295, -3.0625340342521667 0.0, -2.2458581626415253 m-9.391770362854004, 6.839659214019775 l4.083378612995148, -1.5312670171260834 2.041689306497574, -0.20416893064975739 l1.7354358732700348, 0.10208446532487869 m-4.083378612995148, -3.98129403591156 l1.020844653248787, 1.2250135838985443 3.1646183133125305, 2.65419602394104 m-24.60235595703125, -9.085517525672913 l9.187601804733276, -5.30839204788208 2.7562806010246277, -1.020844653248787 l3.7771251797676086, -0.6125067919492722 m7.758418917655945, 12.86264181137085 l-2.7562806010246277, -2.7562806010246277 -2.5521114468574524, -3.4708717465400696 l-1.8375203013420105, -6.1250680685043335 -0.40833786129951477, -0.6125067919492722 l-4.1854628920555115, -3.0625340342521667 m2.1437737345695496, 2.65419602394104 l-5.716729760169983, 0.0 -10.514699220657349, -1.633351445198059 l6.329236626625061, -0.3062533959746361 8.473010659217834, 0.8166757225990295 l8.983432650566101, 2.347942590713501 0.9187601506710052, -0.20416893064975739 l0.9187601506710052, -0.8166757225990295 " fill="none" stroke="black" stroke-width="1" /></svg>