<?xml version="1.0" encoding="utf-8" ?>
<svg baseProfile="full" height="47.567083686590195" version="1.1" width="67.98397522419691" xmlns="http://www.w3.org/2000/svg" xmlns:ev="http://www.w3.org/2001/xml-events" xmlns:xlink="http://www.w3.org/1999/xlink"><defs /><rect fill="white" height="47.567083686590195" width="67.98397522419691" x="0" y="0" /><path d="M21.129345148801804, 22.86478191614151 m-0.6125067919492722, -0.6125067919492722 l-0.9187601506710052, -0.3062533959746361 -3.266702890396118, 0.10208446532487869 l-1.32709801197052, 0.5104223266243935 -5.30839204788208, 3.4708717465400696 l-1.9396047294139862, 2.1437737345695496 -2.1437737345695496, 4.389632046222687 l-0.6125067919492722, 4.083378612995148 0.20416893064975739, 1.020844653248787 l0.7145912200212479, 0.9187601506710052 2.4500271677970886, 1.633351445198059 l4.79796975851059, 0.7145912200212479 3.4708717465400696, 0.0 l1.633351445198059, -0.3062533959746361 3.98129403591156, -1.8375203013420105 l1.9396047294139862, -1.8375203013420105 0.3062533959746361, -2.960449457168579 l-0.5104223266243935, -3.4708717465400696 -1.9396047294139862, -4.695885181427002 l-2.7562806010246277, -3.8792094588279724 m5.512561202049255, 9.59593951702118 l2.347942590713501, -0.3062533959746361 5.818814635276794, 0.0 l6.1250680685043335, 0.7145912200212479 11.535544395446777, 0.40833786129951477 m7.656334638595581, -7.656334638595581 l-0.3062533959746361, -1.32709801197052 -0.8166757225990295, -1.2250135838985443 l-1.8375203013420105, -1.32709801197052 -1.8375203013420105, -0.40833786129951477 l-3.4708717465400696, 0.0 -1.633351445198059, 0.9187601506710052 l-1.5312670171260834, 1.4291824400424957 -1.4291824400424957, 2.8583648800849915 l-0.9187601506710052, 5.002138614654541 0.10208446532487869, 4.287547469139099 l1.1229290813207626, 2.65419602394104 0.9187601506710052, 1.2250135838985443 l0.9187601506710052, 1.1229290813207626 2.347942590713501, 1.7354358732700348 l2.5521114468574524, 0.8166757225990295 1.4291824400424957, 0.10208446532487869 l2.8583648800849915, 0.0 1.1229290813207626, -0.3062533959746361 l2.2458581626415253, -1.32709801197052 1.633351445198059, -1.7354358732700348 l1.1229290813207626, -3.5729563236236572 0.10208446532487869, -4.593800902366638 l-0.40833786129951477, -3.266702890396118 -1.9396047294139862, -4.1854628920555115 l-1.633351445198059, -1.9396047294139862 -1.7354358732700348, -1.1229290813207626 l-2.65419602394104, -0.6125067919492722 m0.9187601506710052, -1.1229290813207626 l-2.041689306497574, 8.26884150505066 -1.633351445198059, 3.98129403591156 l-2.4500271677970886, 4.593800902366638 -1.8375203013420105, 5.002138614654541 m-3.0625340342521667, -12.250136137008667 l2.1437737345695496, 0.9187601506710052 6.941743493080139, 4.1854628920555115 l7.656334638595581, 3.368787169456482 m-41.65046215057373, -14.802247285842896 l-0.6125067919492722, 0.20416893064975739 -1.4291824400424957, 1.4291824400424957 l-6.533405780792236, 11.33137583732605 -3.5729563236236572, 5.206307768821716 m-0.8166757225990295, -12.760558128356934 l0.8166757225990295, 0.10208446532487869 4.287547469139099, 2.4500271677970886 l9.698023796081543, 4.1854628920555115 m-0.9187601506710052, -12.556389570236206 l3.98129403591156, -4.287547469139099 9.28968608379364, -7.96258807182312 m-0.10208446532487869, 0.6125067919492722 l-1.7354358732700348, -1.8375203013420105 -5.206307768821716, -3.1646183133125305 l0.6125067919492722, 0.20416893064975739 7.1459126472473145, 6.227152347564697 l6.227152347564697, -0.6125067919492722 3.368787169456482, 0.0 " fill="none" stroke="black" stroke-width="1" /></svg>