<?xml version="1.0" encoding="utf-8" ?>
<svg baseProfile="full" height="34.091933853924274" version="1.1" width="41.33992984890938" xmlns="http://www.w3.org/2000/svg" xmlns:ev="http://www.w3.org/2001/xml-events" xmlns:xlink="http://www.w3.org/1999/xlink"><defs /><rect fill="white" height="34.091933853924274" width="41.33992984890938" x="0" y="0" /><path d="M9.593800939619541, 15.820953585207462 m-0.10208446532487869, -1.2250135838985443 l-0.6125067919492722, -0.5104223266243935 -1.633351445198059, 0.20416893064975739 l-1.020844653248787, 1.2250135838985443 -1.2250135838985443, 3.266702890396118 l0.10208446532487869, 4.695885181427002 1.1229290813207626, 2.4500271677970886 l1.9396047294139862, 2.041689306497574 2.4500271677970886, 1.020844653248787 l2.5521114468574524, 0.10208446532487869 2.4500271677970886, -0.5104223266243935 l2.041689306497574, -1.4291824400424957 1.5312670171260834, -1.7354358732700348 l0.7145912200212479, -1.7354358732700348 0.0, -2.041689306497574 l-0.5104223266243935, -1.9396047294139862 -1.32709801197052, -1.633351445198059 l-5.30839204788208, -3.5729563236236572 -1.32709801197052, -0.6125067919492722 l-1.633351445198059, -0.20416893064975739 m17.354358434677124, 0.8166757225990295 l-1.020844653248787, 0.7145912200212479 -2.8583648800849915, 4.79796975851059 l-0.5104223266243935, 2.041689306497574 0.10208446532487869, 3.675040602684021 l1.32709801197052, 1.633351445198059 1.8375203013420105, 1.020844653248787 l2.4500271677970886, 0.5104223266243935 1.8375203013420105, 0.0 l1.8375203013420105, -0.7145912200212479 2.2458581626415253, -1.633351445198059 l1.32709801197052, -1.5312670171260834 0.6125067919492722, -1.7354358732700348 l0.0, -1.8375203013420105 -0.40833786129951477, -1.7354358732700348 l-1.8375203013420105, -1.5312670171260834 -1.7354358732700348, -0.9187601506710052 l-6.431320905685425, -1.4291824400424957 -3.0625340342521667, -0.20416893064975739 m-16.741851568222046, -0.8166757225990295 l5.614645481109619, 6.431320905685425 6.022983193397522, 5.614645481109619 m-2.7562806010246277, -11.535544395446777 l-2.960449457168579, 5.920898914337158 -2.347942590713501, 4.083378612995148 l-1.5312670171260834, 1.9396047294139862 m-2.7562806010246277, -5.818814635276794 l7.4521660804748535, -0.8166757225990295 4.083378612995148, -1.020844653248787 m-5.410476326942444, -5.30839204788208 l0.10208446532487869, 1.7354358732700348 1.2250135838985443, 4.1854628920555115 l0.7145912200212479, 7.4521660804748535 0.40833786129951477, 0.8166757225990295 m11.535544395446777, -12.148051261901855 l6.941743493080139, 8.983432650566101 3.266702890396118, 2.2458581626415253 m-2.960449457168579, -10.106362104415894 l-6.941743493080139, 9.800108671188354 m-3.0625340342521667, -5.614645481109619 l2.8583648800849915, -0.10208446532487869 10.310530662536621, -1.8375203013420105 m-5.920898914337158, -2.65419602394104 l0.40833786129951477, 11.535544395446777 m-19.498132467269897, -14.700162410736084 l9.187601804733276, 1.020844653248787 6.329236626625061, 1.2250135838985443 m-14.904332160949707, -2.7562806010246277 l-0.40833786129951477, -0.8166757225990295 0.0, -2.7562806010246277 l0.10208446532487869, -1.1229290813207626 0.7145912200212479, -1.7354358732700348 l-3.1646183133125305, -0.10208446532487869 -1.9396047294139862, -1.1229290813207626 l0.20416893064975739, -0.5104223266243935 6.431320905685425, -0.20416893064975739 l2.2458581626415253, 0.6125067919492722 0.20416893064975739, 0.6125067919492722 l-0.7145912200212479, 0.40833786129951477 -6.022983193397522, 0.7145912200212479 m16.129344701766968, 8.677179217338562 " fill="none" stroke="black" stroke-width="1" /></svg>