<?xml version="1.0" encoding="utf-8" ?>
<svg baseProfile="full" height="51.24212313443422" version="1.1" width="78.80492821335793" xmlns="http://www.w3.org/2000/svg" xmlns:ev="http://www.w3.org/2001/xml-events" xmlns:xlink="http://www.w3.org/1999/xlink"><defs /><rect fill="white" height="51.24212313443422" width="78.80492821335793" x="0" y="0" /><path d="M6.73543605953455, 24.60021637380123 m2.65419602394104, -2.5521114468574524 l3.0625340342521667, -1.8375203013420105 2.960449457168579, -1.020844653248787 l4.389632046222687, -0.7145912200212479 2.5521114468574524, 0.5104223266243935 l3.5729563236236572, 1.5312670171260834 2.347942590713501, 1.4291824400424957 l3.98129403591156, 3.4708717465400696 1.020844653248787, 1.9396047294139862 l0.8166757225990295, 4.389632046222687 -0.40833786129951477, 3.368787169456482 l-0.6125067919492722, 1.2250135838985443 -1.020844653248787, 1.5312670171260834 l-3.5729563236236572, 2.7562806010246277 -3.675040602684021, 1.633351445198059 l-2.7562806010246277, 0.6125067919492722 -4.389632046222687, -0.3062533959746361 l-4.900054335594177, -1.8375203013420105 -2.8583648800849915, -1.7354358732700348 l-2.7562806010246277, -3.675040602684021 -1.8375203013420105, -4.695885181427002 l-0.3062533959746361, -1.7354358732700348 0.3062533959746361, -3.0625340342521667 l1.9396047294139862, -2.5521114468574524 2.8583648800849915, -2.4500271677970886 l2.347942590713501, -1.020844653248787 4.4917163252830505, -0.9187601506710052 l4.287547469139099, 0.0 4.083378612995148, 0.40833786129951477 l5.30839204788208, 1.2250135838985443 7.860503792762756, 0.3062533959746361 l11.229290962219238, -0.7145912200212479 5.30839204788208, -0.9187601506710052 l-3.675040602684021, 3.266702890396118 -1.9396047294139862, 2.65419602394104 l-1.4291824400424957, 2.7562806010246277 -1.2250135838985443, 3.8792094588279724 l0.3062533959746361, 3.4708717465400696 0.9187601506710052, 3.675040602684021 l0.9187601506710052, 2.2458581626415253 1.5312670171260834, 2.4500271677970886 l1.633351445198059, 1.32709801197052 1.4291824400424957, 0.7145912200212479 l2.8583648800849915, 0.6125067919492722 4.695885181427002, -0.10208446532487869 l2.1437737345695496, -0.6125067919492722 3.266702890396118, -2.2458581626415253 l3.675040602684021, -3.8792094588279724 3.0625340342521667, -5.920898914337158 l0.6125067919492722, -3.5729563236236572 -0.40833786129951477, -2.960449457168579 l-1.020844653248787, -2.1437737345695496 -0.9187601506710052, -0.8166757225990295 l-1.020844653248787, -1.633351445198059 -6.533405780792236, -3.675040602684021 l-3.368787169456482, -0.6125067919492722 -3.7771251797676086, 0.6125067919492722 l-1.5312670171260834, 0.8166757225990295 m-33.27953577041626, -1.2250135838985443 l-0.5104223266243935, -2.7562806010246277 -0.10208446532487869, -5.410476326942444 l-0.7145912200212479, -4.900054335594177 -1.7354358732700348, 0.6125067919492722 l-3.0625340342521667, 2.347942590713501 4.287547469139099, -3.1646183133125305 l1.2250135838985443, 0.10208446532487869 3.5729563236236572, 1.8375203013420105 l1.020844653248787, 1.020844653248787 0.5104223266243935, -0.20416893064975739 m13.2709801197052, 12.148051261901855 l-0.40833786129951477, -0.9187601506710052 -0.3062533959746361, -5.104222893714905 l-0.7145912200212479, -4.389632046222687 -1.2250135838985443, 0.8166757225990295 l-2.7562806010246277, 3.675040602684021 2.5521114468574524, -2.5521114468574524 l1.020844653248787, -1.5312670171260834 1.020844653248787, -0.6125067919492722 l0.5104223266243935, 0.0 1.020844653248787, 0.7145912200212479 l1.5312670171260834, 2.5521114468574524 1.020844653248787, 0.7145912200212479 l-1.8375203013420105, -1.9396047294139862 -1.5312670171260834, -1.020844653248787 l-1.5312670171260834, 0.10208446532487869 " fill="none" stroke="black" stroke-width="1" /></svg>