<?xml version="1.0" encoding="utf-8" ?>
<svg baseProfile="full" height="27.7626970410347" version="1.1" width="57.77552831918001" xmlns="http://www.w3.org/2000/svg" xmlns:ev="http://www.w3.org/2001/xml-events" xmlns:xlink="http://www.w3.org/1999/xlink"><defs /><rect fill="white" height="27.7626970410347" width="57.77552831918001" x="0" y="0" /><path d="M6.32709801197052, 22.252275198698044 m-1.1229290813207626, -0.10208446532487869 l-0.20416893064975739, -0.6125067919492722 0.0, -5.206307768821716 l1.4291824400424957, -2.7562806010246277 1.1229290813207626, -1.4291824400424957 l1.32709801197052, -0.9187601506710052 3.0625340342521667, -1.020844653248787 l2.8583648800849915, 0.0 1.633351445198059, 2.041689306497574 l0.7145912200212479, 4.083378612995148 0.0, 2.041689306497574 l-0.8166757225990295, 2.2458581626415253 -1.32709801197052, 1.2250135838985443 l-1.020844653248787, 0.40833786129951477 -6.6354900598526, 0.10208446532487869 l-1.1229290813207626, -2.1437737345695496 m35.01497030258179, -10.718868970870972 l-0.8166757225990295, 0.0 -0.8166757225990295, 0.7145912200212479 l-1.633351445198059, 3.1646183133125305 -0.20416893064975739, 4.695885181427002 l0.5104223266243935, 1.2250135838985443 3.0625340342521667, 2.7562806010246277 l1.633351445198059, 0.7145912200212479 7.96258807182312, -0.20416893064975739 l1.020844653248787, -0.8166757225990295 0.8166757225990295, -4.389632046222687 l0.0, -2.2458581626415253 -1.2250135838985443, -1.7354358732700348 l-1.5312670171260834, -1.1229290813207626 -4.287547469139099, -2.041689306497574 l-6.329236626625061, -0.20416893064975739 -0.8166757225990295, 0.3062533959746361 m7.554250359535217, 5.002138614654541 l-0.7145912200212479, -4.1854628920555115 -1.32709801197052, -3.1646183133125305 l-0.7145912200212479, -2.65419602394104 m5.410476326942444, 10.61678409576416 l0.0, -10.412615537643433 m-0.20416893064975739, -0.3062533959746361 l-10.20844578742981, -0.20416893064975739 -4.4917163252830505, 0.5104223266243935 l-18.171035051345825, 0.3062533959746361 -6.329236626625061, 0.6125067919492722 l-0.3062533959746361, 1.9396047294139862 0.9187601506710052, 6.737574338912964 m-0.10208446532487869, -7.656334638595581 l0.0, 1.7354358732700348 4.389632046222687, 5.206307768821716 l1.1229290813207626, 2.5521114468574524 " fill="none" stroke="black" stroke-width="1" /></svg>