<?xml version="1.0" encoding="utf-8" ?>
<svg baseProfile="full" height="56.04009252041578" version="1.1" width="75.02780269831419" xmlns="http://www.w3.org/2000/svg" xmlns:ev="http://www.w3.org/2001/xml-events" xmlns:xlink="http://www.w3.org/1999/xlink"><defs /><rect fill="white" height="56.04009252041578" width="75.02780269831419" x="0" y="0" /><path d="M21.231429427862167, 46.95671413093805 m-0.7145912200212479, 0.40833786129951477 l-2.041689306497574, 0.3062533959746361 -5.410476326942444, -0.10208446532487869 l-2.7562806010246277, -0.8166757225990295 -2.8583648800849915, -1.8375203013420105 l-1.8375203013420105, -2.8583648800849915 -0.40833786129951477, -1.32709801197052 l-0.20416893064975739, -5.920898914337158 0.6125067919492722, -2.347942590713501 l2.960449457168579, -4.083378612995148 4.1854628920555115, -3.4708717465400696 l3.0625340342521667, -0.7145912200212479 3.7771251797676086, 0.10208446532487869 l1.9396047294139862, 0.6125067919492722 3.7771251797676086, 2.2458581626415253 l1.7354358732700348, 2.65419602394104 1.020844653248787, 2.347942590713501 l0.9187601506710052, 5.104222893714905 0.0, 3.7771251797676086 l-0.10208446532487869, 1.32709801197052 -1.1229290813207626, 3.0625340342521667 l-1.9396047294139862, 2.4500271677970886 -2.7562806010246277, 1.9396047294139862 l-2.347942590713501, 1.1229290813207626 -3.266702890396118, 0.10208446532487869 m47.979698181152344, -6.533405780792236 l-0.6125067919492722, 0.5104223266243935 -1.633351445198059, 0.40833786129951477 l-5.920898914337158, 0.0 -4.389632046222687, -0.9187601506710052 l-5.512561202049255, -3.0625340342521667 -1.2250135838985443, -1.2250135838985443 l-1.020844653248787, -1.7354358732700348 -0.5104223266243935, -3.0625340342521667 l0.0, -4.287547469139099 1.32709801197052, -3.4708717465400696 l3.1646183133125305, -3.1646183133125305 1.633351445198059, -1.020844653248787 l3.368787169456482, -1.020844653248787 6.431320905685425, -0.20416893064975739 l2.347942590713501, 0.5104223266243935 3.266702890396118, 2.347942590713501 l1.4291824400424957, 1.633351445198059 2.1437737345695496, 4.287547469139099 l0.3062533959746361, 0.9187601506710052 0.0, 4.79796975851059 l-1.020844653248787, 2.2458581626415253 -1.8375203013420105, 2.5521114468574524 l-1.7354358732700348, 1.4291824400424957 -4.79796975851059, 2.960449457168579 l-2.347942590713501, 0.9187601506710052 -5.410476326942444, 1.32709801197052 l-3.8792094588279724, 0.0 m-27.15446710586548, -25.7252836227417 l2.5521114468574524, 2.1437737345695496 3.98129403591156, 4.4917163252830505 l5.002138614654541, 7.350081205368042 2.4500271677970886, 4.389632046222687 l0.5104223266243935, 0.20416893064975739 0.7145912200212479, -0.5104223266243935 l1.1229290813207626, -1.633351445198059 0.7145912200212479, -1.9396047294139862 l3.0625340342521667, -3.8792094588279724 2.4500271677970886, -4.287547469139099 l4.900054335594177, -5.206307768821716 3.8792094588279724, -5.104222893714905 l-5.716729760169983, 0.20416893064975739 -7.860503792762756, 1.1229290813207626 l-11.637629270553589, 0.5104223266243935 -5.104222893714905, 0.8166757225990295 l-5.410476326942444, 0.10208446532487869 m0.10208446532487869, 0.40833786129951477 l-7.247996926307678, -6.839659214019775 -0.6125067919492722, -1.5312670171260834 l0.0, -1.020844653248787 0.9187601506710052, -1.2250135838985443 l1.8375203013420105, -1.1229290813207626 6.329236626625061, -2.4500271677970886 l2.1437737345695496, -0.40833786129951477 3.368787169456482, -1.8375203013420105 l1.1229290813207626, -0.20416893064975739 m-8.779264092445374, 32.7691125869751 l-0.40833786129951477, -0.6125067919492722 -0.10208446532487869, -1.1229290813207626 l2.2458581626415253, 0.20416893064975739 0.7145912200212479, 0.8166757225990295 l-2.041689306497574, 0.7145912200212479 -1.5312670171260834, 0.0 m42.87547588348389, 0.10208446532487869 l-0.7145912200212479, -0.3062533959746361 -0.9187601506710052, -1.020844653248787 l-1.32709801197052, -3.7771251797676086 0.20416893064975739, -1.1229290813207626 l1.4291824400424957, -0.10208446532487869 1.32709801197052, 2.041689306497574 l-0.10208446532487869, 0.6125067919492722 -1.2250135838985443, 0.6125067919492722 l-2.65419602394104, 0.6125067919492722 " fill="none" stroke="black" stroke-width="1" /></svg>