<?xml version="1.0" encoding="utf-8" ?>
<svg baseProfile="full" height="56.04009285569191" version="1.1" width="60.53180903196335" xmlns="http://www.w3.org/2000/svg" xmlns:ev="http://www.w3.org/2001/xml-events" xmlns:xlink="http://www.w3.org/1999/xlink"><defs /><rect fill="white" height="56.04009285569191" width="60.53180903196335" x="0" y="0" /><path d="M21.63976762443781, 27.050243578851223 m-1.1229290813207626, -3.368787169456482 l-1.2250135838985443, -1.633351445198059 -2.347942590713501, -1.1229290813207626 l-3.7771251797676086, -0.3062533959746361 -1.633351445198059, 0.5104223266243935 l-1.020844653248787, 1.020844653248787 -2.4500271677970886, 3.0625340342521667 l-1.7354358732700348, 2.8583648800849915 -1.020844653248787, 2.7562806010246277 l-0.3062533959746361, 2.4500271677970886 0.10208446532487869, 4.083378612995148 l0.5104223266243935, 2.7562806010246277 1.4291824400424957, 4.287547469139099 l0.8166757225990295, 1.32709801197052 2.960449457168579, 3.1646183133125305 l3.368787169456482, 1.8375203013420105 5.104222893714905, 0.3062533959746361 l4.695885181427002, -1.9396047294139862 2.347942590713501, -1.633351445198059 l0.3062533959746361, -0.7145912200212479 0.20416893064975739, -2.2458581626415253 l-0.9187601506710052, -6.737574338912964 -3.5729563236236572, -8.370925784111023 l-2.1437737345695496, -2.65419602394104 -5.206307768821716, -3.98129403591156 m2.8583648800849915, 1.9396047294139862 l-3.1646183133125305, 9.28968608379364 -2.347942590713501, 10.514699220657349 l-0.8166757225990295, 2.1437737345695496 m-5.716729760169983, -21.23356819152832 l13.883486986160278, 15.721007585525513 2.2458581626415253, 3.368787169456482 l0.9187601506710052, 2.041689306497574 m-5.716729760169983, -25.929453372955322 l-0.5104223266243935, 18.375203609466553 0.20416893064975739, 3.1646183133125305 l1.7354358732700348, 5.818814635276794 m-12.964726686477661, -9.902192950248718 l11.433459520339966, -2.1437737345695496 9.902192950248718, -0.5104223266243935 m20.212724208831787, -11.943882703781128 l-1.8375203013420105, -0.8166757225990295 -2.8583648800849915, 0.20416893064975739 l-5.920898914337158, 3.98129403591156 -2.4500271677970886, 3.0625340342521667 l-0.40833786129951477, 4.79796975851059 0.7145912200212479, 3.8792094588279724 l0.7145912200212479, 1.7354358732700348 2.1437737345695496, 2.960449457168579 l2.347942590713501, 2.041689306497574 4.79796975851059, 1.633351445198059 l1.8375203013420105, 0.20416893064975739 5.206307768821716, -0.5104223266243935 l2.65419602394104, -2.2458581626415253 1.4291824400424957, -3.368787169456482 l-0.3062533959746361, -5.614645481109619 -3.4708717465400696, -5.410476326942444 l-2.8583648800849915, -2.960449457168579 m-4.79796975851059, -5.818814635276794 l0.40833786129951477, 3.368787169456482 -0.5104223266243935, 7.554250359535217 l0.20416893064975739, 10.514699220657349 0.6125067919492722, 1.5312670171260834 m-11.127206087112427, -9.493855237960815 l1.32709801197052, 0.40833786129951477 12.556389570236206, 0.6125067919492722 m-8.983432650566101, -9.187601804733276 l7.860503792762756, 9.28968608379364 4.287547469139099, 6.022983193397522 m-10.20844578742981, 0.6125067919492722 l-0.10208446532487869, -0.9187601506710052 6.329236626625061, -8.575094938278198 l2.7562806010246277, -4.695885181427002 m-33.78995656967163, -7.554250359535217 l0.7145912200212479, -0.40833786129951477 2.7562806010246277, 0.0 l6.839659214019775, -0.9187601506710052 25.41903018951416, -14.393908977508545 " fill="none" stroke="black" stroke-width="1" /></svg>