<?xml version="1.0" encoding="utf-8" ?>
<svg baseProfile="full" height="29.804386124014854" version="1.1" width="36.13362278789282" xmlns="http://www.w3.org/2000/svg" xmlns:ev="http://www.w3.org/2001/xml-events" xmlns:xlink="http://www.w3.org/1999/xlink"><defs /><rect fill="white" height="29.804386124014854" width="36.13362278789282" x="0" y="0" /><path d="M15.923037678003311, 11.839659474790096 m-1.2250135838985443, -1.4291824400424957 l-1.7354358732700348, -0.9187601506710052 -2.960449457168579, 0.10208446532487869 l-2.1437737345695496, 0.6125067919492722 -1.633351445198059, 0.9187601506710052 l-1.2250135838985443, 1.9396047294139862 0.8166757225990295, 3.266702890396118 l1.2250135838985443, 2.1437737345695496 2.347942590713501, 2.347942590713501 l1.9396047294139862, 1.020844653248787 1.020844653248787, 0.10208446532487869 l1.5312670171260834, -0.20416893064975739 0.7145912200212479, -0.5104223266243935 l2.65419602394104, -2.960449457168579 1.32709801197052, -2.347942590713501 l-0.10208446532487869, -1.4291824400424957 -0.40833786129951477, -0.6125067919492722 l-0.7145912200212479, -0.40833786129951477 -1.633351445198059, -0.3062533959746361 m9.493855237960815, 3.368787169456482 l-0.10208446532487869, -0.9187601506710052 -0.8166757225990295, -0.5104223266243935 l-2.4500271677970886, 0.20416893064975739 -2.8583648800849915, 1.4291824400424957 l-0.40833786129951477, 1.020844653248787 0.3062533959746361, 1.1229290813207626 l1.32709801197052, 2.2458581626415253 2.960449457168579, 2.8583648800849915 l3.1646183133125305, 0.8166757225990295 2.041689306497574, -0.3062533959746361 l1.020844653248787, -0.8166757225990295 1.5312670171260834, -3.0625340342521667 l0.20416893064975739, -2.2458581626415253 -0.8166757225990295, -1.7354358732700348 l-1.5312670171260834, -1.020844653248787 -2.041689306497574, -0.20416893064975739 l-2.1437737345695496, 0.5104223266243935 -1.2250135838985443, 0.8166757225990295 l0.0, 0.40833786129951477 m-6.839659214019775, -3.98129403591156 l7.656334638595581, 3.8792094588279724 m-3.98129403591156, -1.2250135838985443 l-0.3062533959746361, -2.347942590713501 0.10208446532487869, -2.65419602394104 l1.1229290813207626, -3.0625340342521667 m2.1437737345695496, -2.347942590713501 l-1.020844653248787, -0.40833786129951477 -1.8375203013420105, 0.20416893064975739 l-2.8583648800849915, 1.4291824400424957 -0.7145912200212479, 0.9187601506710052 l2.347942590713501, 0.7145912200212479 4.083378612995148, 0.0 l1.8375203013420105, -0.6125067919492722 -1.2250135838985443, -1.020844653248787 l-2.8583648800849915, -0.8166757225990295 -1.8375203013420105, 0.0 l-1.2250135838985443, 0.40833786129951477 0.0, 0.40833786129951477 l1.7354358732700348, 0.9187601506710052 2.4500271677970886, 0.40833786129951477 l2.041689306497574, 0.0 0.40833786129951477, -0.10208446532487869 l-0.10208446532487869, -0.40833786129951477 -3.98129403591156, -0.5104223266243935 l-1.020844653248787, 0.0 1.4291824400424957, 0.40833786129951477 l0.6125067919492722, -0.10208446532487869 m-1.9396047294139862, 2.347942590713501 l-0.8166757225990295, 0.9187601506710052 -3.266702890396118, 2.041689306497574 m2.5521114468574524, -0.9187601506710052 l-2.2458581626415253, -3.266702890396118 -0.3062533959746361, -1.020844653248787 " fill="none" stroke="black" stroke-width="1" /></svg>