<?xml version="1.0" encoding="utf-8" ?>
<svg baseProfile="full" height="40.72742331773043" version="1.1" width="59.40887972712517" xmlns="http://www.w3.org/2000/svg" xmlns:ev="http://www.w3.org/2001/xml-events" xmlns:xlink="http://www.w3.org/1999/xlink"><defs /><rect fill="white" height="40.72742331773043" width="59.40887972712517" x="0" y="0" /><path d="M11.22715212404728, 23.783540949225426 m-2.347942590713501, 1.7354358732700348 l-3.675040602684021, 3.98129403591156 -0.20416893064975739, 2.347942590713501 l0.5104223266243935, 1.32709801197052 0.6125067919492722, 0.6125067919492722 l2.1437737345695496, 0.9187601506710052 2.2458581626415253, 0.40833786129951477 l2.65419602394104, -0.3062533959746361 2.8583648800849915, -1.32709801197052 l3.0625340342521667, -3.1646183133125305 1.4291824400424957, -2.65419602394104 l0.0, -1.4291824400424957 -0.5104223266243935, -0.6125067919492722 l-1.8375203013420105, -1.2250135838985443 -3.5729563236236572, -0.9187601506710052 l-2.8583648800849915, 0.10208446532487869 0.20416893064975739, 0.7145912200212479 m40.32336235046387, 0.5104223266243935 l-1.9396047294139862, -0.8166757225990295 -1.7354358732700348, -0.10208446532487869 l-3.0625340342521667, 0.8166757225990295 -1.1229290813207626, 0.40833786129951477 l-2.1437737345695496, 1.5312670171260834 -1.32709801197052, 1.1229290813207626 l-1.1229290813207626, 1.5312670171260834 -0.40833786129951477, 1.7354358732700348 l0.20416893064975739, 1.020844653248787 1.2250135838985443, 1.7354358732700348 l1.5312670171260834, 1.020844653248787 2.4500271677970886, 0.8166757225990295 l2.960449457168579, 0.10208446532487869 3.266702890396118, -0.9187601506710052 l1.4291824400424957, -1.020844653248787 1.32709801197052, -1.5312670171260834 l0.6125067919492722, -2.1437737345695496 -0.6125067919492722, -1.5312670171260834 l-1.32709801197052, -1.2250135838985443 -3.0625340342521667, -2.2458581626415253 l-0.6125067919492722, -0.3062533959746361 -1.2250135838985443, 0.10208446532487869 m-30.012831687927246, 0.0 l0.40833786129951477, -0.6125067919492722 1.8375203013420105, -1.020844653248787 l4.593800902366638, -1.5312670171260834 4.695885181427002, -0.9187601506710052 l4.389632046222687, 0.0 7.247996926307678, 0.5104223266243935 l2.65419602394104, 0.8166757225990295 5.716729760169983, 3.266702890396118 m-33.48370313644409, -0.9187601506710052 l-1.32709801197052, -1.32709801197052 -0.5104223266243935, -1.8375203013420105 l0.0, -8.575094938278198 1.2250135838985443, -2.2458581626415253 l2.041689306497574, -1.9396047294139862 1.020844653248787, 0.10208446532487869 l2.1437737345695496, 1.32709801197052 m-6.329236626625061, 3.5729563236236572 l-5.30839204788208, -2.1437737345695496 -1.5312670171260834, -0.20416893064975739 l-0.10208446532487869, -0.5104223266243935 1.8375203013420105, -2.4500271677970886 l2.5521114468574524, -1.8375203013420105 2.960449457168579, -1.4291824400424957 m0.7145912200212479, 8.26884150505066 l0.10208446532487869, 0.5104223266243935 0.5104223266243935, 0.3062533959746361 l3.266702890396118, 0.9187601506710052 5.410476326942444, -0.5104223266243935 " fill="none" stroke="black" stroke-width="1" /></svg>