<?xml version="1.0" encoding="utf-8" ?>
<svg baseProfile="full" height="47.669167034327984" version="1.1" width="66.14645399153233" xmlns="http://www.w3.org/2000/svg" xmlns:ev="http://www.w3.org/2001/xml-events" xmlns:xlink="http://www.w3.org/1999/xlink"><defs /><rect fill="white" height="47.669167034327984" width="66.14645399153233" x="0" y="0" /><path d="M8.26670277863741, 29.50027145445347 m-2.2458581626415253, 1.2250135838985443 l-0.7145912200212479, 1.4291824400424957 -0.3062533959746361, 1.8375203013420105 l0.0, 1.7354358732700348 1.020844653248787, 2.8583648800849915 l1.9396047294139862, 2.2458581626415253 1.8375203013420105, 1.1229290813207626 l1.7354358732700348, 0.5104223266243935 3.8792094588279724, 0.20416893064975739 l3.1646183133125305, -1.1229290813207626 2.5521114468574524, -1.7354358732700348 l1.32709801197052, -2.2458581626415253 0.5104223266243935, -2.4500271677970886 l0.0, -1.7354358732700348 -1.633351445198059, -3.5729563236236572 l-1.5312670171260834, -1.5312670171260834 -1.633351445198059, -1.020844653248787 l-1.7354358732700348, -0.6125067919492722 -2.65419602394104, -0.20416893064975739 l-2.8583648800849915, 0.7145912200212479 -2.4500271677970886, 1.4291824400424957 l-2.041689306497574, 2.347942590713501 -0.20416893064975739, 0.7145912200212479 m30.829508304595947, -3.8792094588279724 l-2.1437737345695496, 0.0 -2.2458581626415253, 2.65419602394104 l-0.7145912200212479, 2.65419602394104 0.0, 2.1437737345695496 l1.1229290813207626, 1.9396047294139862 1.7354358732700348, 1.633351445198059 l1.4291824400424957, 0.8166757225990295 2.5521114468574524, 0.7145912200212479 l3.368787169456482, 0.20416893064975739 3.675040602684021, -1.633351445198059 l1.32709801197052, -1.2250135838985443 1.4291824400424957, -2.041689306497574 l0.7145912200212479, -2.960449457168579 0.0, -1.32709801197052 l-2.347942590713501, -3.1646183133125305 -2.347942590713501, -1.2250135838985443 l-3.5729563236236572, -0.20416893064975739 -6.227152347564697, 2.347942590713501 m-19.804385900497437, -0.8166757225990295 l0.0, -6.737574338912964 2.7562806010246277, -0.20416893064975739 l1.2250135838985443, 0.40833786129951477 6.022983193397522, 0.0 l5.920898914337158, -1.020844653248787 7.247996926307678, -0.40833786129951477 l4.1854628920555115, -0.8166757225990295 0.3062533959746361, 0.5104223266243935 l0.0, 7.96258807182312 0.40833786129951477, 1.1229290813207626 m-1.2250135838985443, -7.758418917655945 l1.633351445198059, -2.7562806010246277 1.8375203013420105, -4.593800902366638 l1.2250135838985443, -6.6354900598526 -9.391770362854004, -2.347942590713501 l1.5312670171260834, 0.0 1.9396047294139862, 1.4291824400424957 l5.512561202049255, 2.2458581626415253 11.127206087112427, 2.347942590713501 l3.8792094588279724, 1.1229290813207626 " fill="none" stroke="black" stroke-width="1" /></svg>