<?xml version="1.0" encoding="utf-8" ?>
<svg baseProfile="full" height="37.05238275229931" version="1.1" width="53.38589444756508" xmlns="http://www.w3.org/2000/svg" xmlns:ev="http://www.w3.org/2001/xml-events" xmlns:xlink="http://www.w3.org/1999/xlink"><defs /><rect fill="white" height="37.05238275229931" width="53.38589444756508" x="0" y="0" /><path d="M20.312667191028595, 10.30839093029499 m7.656334638595581, -0.8166757225990295 l5.206307768821716, 0.0 5.716729760169983, -1.020844653248787 l0.5104223266243935, 0.7145912200212479 0.3062533959746361, 4.1854628920555115 l1.1229290813207626, -0.3062533959746361 1.7354358732700348, 0.40833786129951477 l1.4291824400424957, 0.5104223266243935 2.1437737345695496, 1.5312670171260834 l1.2250135838985443, 1.5312670171260834 1.020844653248787, 2.8583648800849915 l0.0, 1.9396047294139862 -1.5312670171260834, 3.7771251797676086 l-2.4500271677970886, 2.65419602394104 -1.8375203013420105, 0.7145912200212479 l-5.716729760169983, -0.40833786129951477 -2.65419602394104, -1.1229290813207626 l-1.32709801197052, -1.5312670171260834 -1.020844653248787, -2.5521114468574524 l-0.10208446532487869, -2.8583648800849915 0.5104223266243935, -1.633351445198059 l1.4291824400424957, -2.1437737345695496 1.8375203013420105, -1.4291824400424957 l2.7562806010246277, -1.32709801197052 2.2458581626415253, 0.40833786129951477 l2.041689306497574, 1.1229290813207626 m-8.370925784111023, 0.6125067919492722 l6.1250680685043335, 5.30839204788208 4.593800902366638, 5.206307768821716 m0.5104223266243935, -12.148051261901855 l-2.1437737345695496, 3.4708717465400696 -6.6354900598526, 7.4521660804748535 l-1.32709801197052, 2.041689306497574 m3.98129403591156, -12.760558128356934 l0.8166757225990295, 16.02726101875305 0.8166757225990295, 1.32709801197052 m5.614645481109619, -10.514699220657349 l-9.698023796081543, 1.32709801197052 -6.533405780792236, 0.20416893064975739 m9.085517525672913, -12.045966386795044 l-5.410476326942444, 1.7354358732700348 -2.347942590713501, 0.20416893064975739 l-4.695885181427002, 1.2250135838985443 -3.368787169456482, 0.40833786129951477 m0.8166757225990295, -9.59593951702118 l-0.10208446532487869, 5.104222893714905 0.5104223266243935, 4.1854628920555115 l0.0, 1.32709801197052 -0.3062533959746361, 0.3062533959746361 m-4.287547469139099, -5.818814635276794 l-2.960449457168579, 3.1646183133125305 -3.7771251797676086, 3.368787169456482 l1.1229290813207626, 0.10208446532487869 2.4500271677970886, -0.9187601506710052 l2.960449457168579, -0.10208446532487869 3.7771251797676086, -0.9187601506710052 l-0.5104223266243935, 0.5104223266243935 m-13.475148677825928, 1.2250135838985443 l0.7145912200212479, -1.020844653248787 1.32709801197052, -1.020844653248787 l2.2458581626415253, -0.20416893064975739 2.4500271677970886, 0.3062533959746361 l2.960449457168579, 1.7354358732700348 3.4708717465400696, 4.083378612995148 l0.40833786129951477, 1.1229290813207626 0.20416893064975739, 3.4708717465400696 l-0.20416893064975739, 1.1229290813207626 -1.2250135838985443, 2.1437737345695496 l-2.65419602394104, 2.041689306497574 -4.1854628920555115, 0.40833786129951477 l-2.8583648800849915, -0.5104223266243935 -4.1854628920555115, -2.1437737345695496 l-2.041689306497574, -1.9396047294139862 -1.1229290813207626, -1.8375203013420105 l-0.10208446532487869, -1.1229290813207626 0.40833786129951477, -2.8583648800849915 l1.7354358732700348, -2.4500271677970886 1.7354358732700348, -1.32709801197052 l0.8166757225990295, -0.3062533959746361 2.960449457168579, 0.0 l2.347942590713501, 0.7145912200212479 m-7.96258807182312, 1.7354358732700348 l5.206307768821716, 1.8375203013420105 11.02512240409851, 6.1250680685043335 l0.5104223266243935, 0.10208446532487869 0.0, -0.6125067919492722 m-3.675040602684021, -7.4521660804748535 l-13.066811561584473, 8.779264092445374 -0.20416893064975739, -0.20416893064975739 m6.431320905685425, -11.229290962219238 l2.2458581626415253, 16.02726101875305 m2.4500271677970886, -9.698023796081543 l-1.5312670171260834, 0.0 " fill="none" stroke="black" stroke-width="1" /></svg>