<?xml version="1.0" encoding="utf-8" ?>
<svg baseProfile="full" height="18.47301058471203" version="1.1" width="26.946020536124706" xmlns="http://www.w3.org/2000/svg" xmlns:ev="http://www.w3.org/2001/xml-events" xmlns:xlink="http://www.w3.org/1999/xlink"><defs /><rect fill="white" height="18.47301058471203" width="26.946020536124706" x="0" y="0" /><path d="M11.635490283370018, 8.470871783792973 m-1.020844653248787, -0.8166757225990295 l-2.4500271677970886, -0.40833786129951477 -1.633351445198059, 0.6125067919492722 l-1.5312670171260834, 2.041689306497574 0.0, 0.8166757225990295 l1.32709801197052, 0.6125067919492722 2.8583648800849915, 0.10208446532487869 l0.9187601506710052, -0.5104223266243935 1.020844653248787, -1.1229290813207626 l0.8166757225990295, -2.347942590713501 m7.860503792762756, 0.8166757225990295 l-2.041689306497574, 0.0 -0.8166757225990295, 0.3062533959746361 l-0.8166757225990295, 1.1229290813207626 -0.10208446532487869, 1.7354358732700348 l0.3062533959746361, 0.40833786129951477 0.6125067919492722, 0.0 l0.9187601506710052, -0.7145912200212479 1.7354358732700348, -2.960449457168579 m-11.535544395446777, -0.9187601506710052 l0.5104223266243935, 2.1437737345695496 m-2.1437737345695496, -0.6125067919492722 l6.737574338912964, -0.20416893064975739 m-5.104222893714905, 0.40833786129951477 l-0.7145912200212479, 4.4917163252830505 m10.20844578742981, -2.041689306497574 l1.1229290813207626, -4.083378612995148 m-2.2458581626415253, 2.1437737345695496 l5.512561202049255, 0.5104223266243935 m-10.106362104415894, -4.287547469139099 l3.4708717465400696, -0.7145912200212479 1.9396047294139862, 0.0 l2.1437737345695496, 0.5104223266243935 2.041689306497574, 1.4291824400424957 m-2.960449457168579, -1.1229290813207626 l0.10208446532487869, 1.1229290813207626 -0.3062533959746361, 0.8166757225990295 m-5.614645481109619, -2.041689306497574 l-3.675040602684021, -0.7145912200212479 -0.40833786129951477, 0.10208446532487869 l-0.5104223266243935, 1.5312670171260834 " fill="none" stroke="black" stroke-width="1" /></svg>