<?xml version="1.0" encoding="utf-8" ?>
<svg baseProfile="full" height="33.58151126652956" version="1.1" width="30.41689157485962" xmlns="http://www.w3.org/2000/svg" xmlns:ev="http://www.w3.org/2001/xml-events" xmlns:xlink="http://www.w3.org/1999/xlink"><defs /><rect fill="white" height="33.58151126652956" width="30.41689157485962" x="0" y="0" /><path d="M9.797969684004784, 19.18974045664072 m-3.0625340342521667, 2.347942590713501 l-1.020844653248787, 1.4291824400424957 -0.3062533959746361, 1.4291824400424957 l0.40833786129951477, 1.633351445198059 1.2250135838985443, 1.2250135838985443 l1.2250135838985443, 0.5104223266243935 1.7354358732700348, 0.10208446532487869 l2.4500271677970886, -0.7145912200212479 0.5104223266243935, -0.5104223266243935 l0.40833786129951477, -1.2250135838985443 -0.9187601506710052, -3.266702890396118 l-1.7354358732700348, -3.1646183133125305 -0.9187601506710052, -0.6125067919492722 l-1.32709801197052, 0.6125067919492722 m12.250136137008667, -1.32709801197052 l-1.32709801197052, 0.9187601506710052 -3.368787169456482, 5.818814635276794 l-0.6125067919492722, 1.7354358732700348 0.0, 0.9187601506710052 l0.3062533959746361, 0.6125067919492722 1.8375203013420105, 0.8166757225990295 l2.347942590713501, 0.0 2.65419602394104, -0.8166757225990295 l1.4291824400424957, -1.2250135838985443 0.7145912200212479, -1.7354358732700348 l0.10208446532487869, -2.7562806010246277 -0.8166757225990295, -2.347942590713501 l-0.5104223266243935, -0.6125067919492722 -1.9396047294139862, 0.10208446532487869 m-9.800108671188354, 1.7354358732700348 l-4.593800902366638, 5.818814635276794 m0.0, -6.329236626625061 l3.8792094588279724, 4.4917163252830505 1.8375203013420105, 2.8583648800849915 m-0.10208446532487869, -3.98129403591156 l-2.347942590713501, 0.5104223266243935 -1.7354358732700348, 0.0 l-1.633351445198059, -0.5104223266243935 -2.041689306497574, -1.2250135838985443 m20.41689157485962, -1.8375203013420105 l-9.698023796081543, 7.96258807182312 m0.8166757225990295, -9.493855237960815 l3.98129403591156, 5.410476326942444 1.32709801197052, 3.266702890396118 m2.4500271677970886, -3.5729563236236572 l-2.5521114468574524, 0.0 -7.554250359535217, -1.32709801197052 l-1.32709801197052, -0.40833786129951477 m-5.716729760169983, -3.1646183133125305 l-0.3062533959746361, -1.4291824400424957 2.1437737345695496, -2.5521114468574524 l3.1646183133125305, -1.7354358732700348 2.1437737345695496, -0.20416893064975739 l4.4917163252830505, 1.020844653248787 2.960449457168579, 1.9396047294139862 l0.5104223266243935, 0.7145912200212479 0.10208446532487869, 1.2250135838985443 l-0.7145912200212479, 1.8375203013420105 m-10.004277229309082, -7.96258807182312 l2.041689306497574, -2.4500271677970886 0.40833786129951477, -1.020844653248787 m-2.960449457168579, 4.1854628920555115 l-0.8166757225990295, 0.9187601506710052 m3.1646183133125305, -4.79796975851059 l3.266702890396118, -0.9187601506710052 2.5521114468574524, -0.3062533959746361 l4.287547469139099, 0.20416893064975739 m-2.5521114468574524, -0.40833786129951477 l-4.4917163252830505, -2.5521114468574524 m3.8792094588279724, 2.960449457168579 l2.1437737345695496, 3.4708717465400696 1.1229290813207626, 2.960449457168579 m-1.2250135838985443, -8.166757225990295 l-2.5521114468574524, 1.8375203013420105 0.0, 0.6125067919492722 l0.6125067919492722, 0.3062533959746361 1.5312670171260834, 0.0 l0.6125067919492722, -0.3062533959746361 0.20416893064975739, -0.5104223266243935 l-0.10208446532487869, -0.5104223266243935 -2.1437737345695496, -2.1437737345695496 m-9.59593951702118, 12.148051261901855 l-3.675040602684021, -0.3062533959746361 -0.9187601506710052, -0.40833786129951477 l-0.40833786129951477, -0.8166757225990295 " fill="none" stroke="black" stroke-width="1" /></svg>