<?xml version="1.0" encoding="utf-8" ?>
<svg baseProfile="full" height="35.31694754958153" version="1.1" width="43.075365759432316" xmlns="http://www.w3.org/2000/svg" xmlns:ev="http://www.w3.org/2001/xml-events" xmlns:xlink="http://www.w3.org/1999/xlink"><defs /><rect fill="white" height="35.31694754958153" width="43.075365759432316" x="0" y="0" /><path d="M11.737574599683285, 30.316947549581528 m-0.7145912200212479, -0.10208446532487869 l-1.9396047294139862, -1.7354358732700348 -2.4500271677970886, -3.266702890396118 l-1.5312670171260834, -3.1646183133125305 -0.10208446532487869, -2.041689306497574 l1.1229290813207626, -1.32709801197052 3.1646183133125305, -2.1437737345695496 l1.5312670171260834, -0.5104223266243935 1.32709801197052, 0.10208446532487869 l2.1437737345695496, 1.9396047294139862 1.9396047294139862, 3.368787169456482 l1.020844653248787, 2.7562806010246277 0.6125067919492722, 3.675040602684021 l-1.020844653248787, 1.020844653248787 -6.6354900598526, 1.1229290813207626 m19.702301025390625, -2.4500271677970886 l-2.2458581626415253, -4.389632046222687 -0.40833786129951477, -2.960449457168579 l0.0, -1.9396047294139862 0.3062533959746361, -0.6125067919492722 l1.1229290813207626, -0.7145912200212479 3.266702890396118, -0.40833786129951477 l2.65419602394104, 0.5104223266243935 1.8375203013420105, 1.4291824400424957 l1.2250135838985443, 1.633351445198059 0.40833786129951477, 1.7354358732700348 l0.0, 2.041689306497574 -0.6125067919492722, 1.020844653248787 l-1.7354358732700348, 1.5312670171260834 -2.5521114468574524, -0.10208446532487869 m-6.533405780792236, -4.900054335594177 l-7.860503792762756, 0.7145912200212479 -3.266702890396118, -0.3062533959746361 m5.512561202049255, 0.10208446532487869 l-3.266702890396118, -4.593800902366638 -2.4500271677970886, -5.512561202049255 m0.6125067919492722, -0.10208446532487869 l-4.1854628920555115, -1.2250135838985443 -1.1229290813207626, -1.2250135838985443 l-0.10208446532487869, -1.1229290813207626 0.20416893064975739, -0.6125067919492722 l2.347942590713501, -1.7354358732700348 3.266702890396118, -0.8166757225990295 l1.2250135838985443, 1.32709801197052 0.3062533959746361, 1.2250135838985443 l-0.20416893064975739, 0.5104223266243935 -2.1437737345695496, 1.4291824400424957 l-1.5312670171260834, 0.3062533959746361 -0.3062533959746361, 1.5312670171260834 " fill="none" stroke="black" stroke-width="1" /></svg>