<?xml version="1.0" encoding="utf-8" ?>
<svg baseProfile="full" height="41.03367745876312" version="1.1" width="67.16729905456305" xmlns="http://www.w3.org/2000/svg" xmlns:ev="http://www.w3.org/2001/xml-events" xmlns:xlink="http://www.w3.org/1999/xlink"><defs /><rect fill="white" height="41.03367745876312" width="67.16729905456305" x="0" y="0" /><path d="M12.350081503391266, 13.268841989338398 m-1.7354358732700348, 0.5104223266243935 l-1.32709801197052, 1.32709801197052 -3.0625340342521667, 5.410476326942444 l-1.020844653248787, 2.347942590713501 -0.20416893064975739, 1.5312670171260834 l0.7145912200212479, 1.7354358732700348 2.8583648800849915, 3.368787169456482 l1.633351445198059, 1.32709801197052 3.0625340342521667, 1.1229290813207626 l3.1646183133125305, 0.6125067919492722 1.5312670171260834, -0.10208446532487869 l5.614645481109619, -1.2250135838985443 2.8583648800849915, -1.1229290813207626 l3.5729563236236572, -2.5521114468574524 0.40833786129951477, -2.347942590713501 l0.0, -6.6354900598526 -0.7145912200212479, -2.7562806010246277 l-0.7145912200212479, -1.020844653248787 -1.9396047294139862, -1.1229290813207626 l-3.5729563236236572, -0.9187601506710052 -5.104222893714905, 0.20416893064975739 l-3.5729563236236572, 1.020844653248787 m15.92517614364624, 7.4521660804748535 l5.002138614654541, 0.5104223266243935 3.5729563236236572, 0.0 l4.79796975851059, 1.32709801197052 3.266702890396118, 0.0 m7.96258807182312, -3.4708717465400696 l-2.1437737345695496, -1.5312670171260834 -2.7562806010246277, -0.7145912200212479 l-2.347942590713501, 1.633351445198059 -3.0625340342521667, 3.1646183133125305 l0.10208446532487869, 1.020844653248787 4.083378612995148, 8.473010659217834 l2.8583648800849915, 4.1854628920555115 2.347942590713501, -0.10208446532487869 l5.410476326942444, -1.8375203013420105 1.4291824400424957, -1.9396047294139862 l0.9187601506710052, -3.1646183133125305 -0.3062533959746361, -4.79796975851059 l-2.960449457168579, -5.818814635276794 -1.020844653248787, -0.6125067919492722 l-2.7562806010246277, 1.1229290813207626 -1.7354358732700348, -0.20416893064975739 m0.6125067919492722, 5.30839204788208 l-1.9396047294139862, 1.1229290813207626 -1.4291824400424957, 1.32709801197052 l-0.10208446532487869, 0.5104223266243935 0.5104223266243935, 1.2250135838985443 l3.1646183133125305, 5.002138614654541 1.5312670171260834, -0.6125067919492722 l3.8792094588279724, -6.533405780792236 -2.4500271677970886, -1.020844653248787 l-2.7562806010246277, -0.20416893064975739 m-0.5104223266243935, 2.1437737345695496 l1.020844653248787, -0.10208446532487869 -0.40833786129951477, -0.5104223266243935 l-1.2250135838985443, 0.10208446532487869 m-35.21914005279541, -6.6354900598526 l-3.7771251797676086, 2.1437737345695496 -0.6125067919492722, 1.020844653248787 l0.6125067919492722, 2.4500271677970886 0.6125067919492722, 1.1229290813207626 l0.9187601506710052, 1.1229290813207626 2.347942590713501, 1.7354358732700348 l2.1437737345695496, 0.10208446532487869 4.593800902366638, -0.9187601506710052 l3.98129403591156, -1.8375203013420105 1.020844653248787, -1.2250135838985443 l-3.98129403591156, -4.389632046222687 -2.1437737345695496, -1.633351445198059 l-1.633351445198059, 0.0 -2.041689306497574, 0.7145912200212479 m0.5104223266243935, 2.8583648800849915 l-0.6125067919492722, -0.40833786129951477 -0.3062533959746361, 0.5104223266243935 l0.5104223266243935, 0.3062533959746361 m21.53982162475586, -0.6125067919492722 l5.104222893714905, -8.881348371505737 3.4708717465400696, -4.900054335594177 l0.10208446532487869, -0.7145912200212479 m0.0, 0.0 l-6.737574338912964, -2.347942590713501 -5.614645481109619, -1.020844653248787 l5.716729760169983, 1.7354358732700348 6.022983193397522, 2.4500271677970886 l8.575094938278198, 2.1437737345695496 " fill="none" stroke="black" stroke-width="1" /></svg>