<?xml version="1.0" encoding="utf-8" ?>
<svg baseProfile="full" height="82.68413726240396" version="1.1" width="96.56762301921844" xmlns="http://www.w3.org/2000/svg" xmlns:ev="http://www.w3.org/2001/xml-events" xmlns:xlink="http://www.w3.org/1999/xlink"><defs /><rect fill="white" height="82.68413726240396" width="96.56762301921844" x="0" y="0" /><path d="M28.58151100575924, 52.571359537541866 m-2.5521114468574524, -1.8375203013420105 l-5.002138614654541, -1.633351445198059 -8.166757225990295, -0.10208446532487869 l-1.4291824400424957, 0.5104223266243935 -1.1229290813207626, 1.1229290813207626 l-4.389632046222687, 7.247996926307678 -0.9187601506710052, 3.8792094588279724 l0.0, 6.329236626625061 0.5104223266243935, 1.32709801197052 l2.5521114468574524, 3.1646183133125305 1.8375203013420105, 1.32709801197052 l3.98129403591156, 1.8375203013420105 5.002138614654541, 1.1229290813207626 l4.1854628920555115, -2.5521114468574524 2.041689306497574, -2.041689306497574 l1.2250135838985443, -4.1854628920555115 1.32709801197052, -3.1646183133125305 l0.3062533959746361, -2.8583648800849915 0.3062533959746361, -6.839659214019775 l-0.10208446532487869, -0.8166757225990295 -1.020844653248787, -1.633351445198059 l-0.20416893064975739, -1.32709801197052 m59.106903076171875, -22.152328491210938 l-2.960449457168579, -2.041689306497574 -1.7354358732700348, -0.8166757225990295 l-1.1229290813207626, -0.10208446532487869 -7.860503792762756, -2.65419602394104 l-6.022983193397522, -0.6125067919492722 -7.554250359535217, 0.10208446532487869 l-2.347942590713501, 0.6125067919492722 -5.716729760169983, 3.8792094588279724 l-5.512561202049255, 5.104222893714905 -2.347942590713501, 3.5729563236236572 l-2.1437737345695496, 6.737574338912964 -0.7145912200212479, 4.389632046222687 l0.0, 11.02512240409851 1.7354358732700348, 5.410476326942444 l3.368787169456482, 6.227152347564697 2.347942590713501, 3.0625340342521667 l5.104222893714905, 1.5312670171260834 2.2458581626415253, 1.1229290813207626 l7.4521660804748535, 1.8375203013420105 4.1854628920555115, -0.10208446532487869 l2.2458581626415253, -0.7145912200212479 3.266702890396118, -1.8375203013420105 l4.593800902366638, -3.368787169456482 2.8583648800849915, -2.4500271677970886 l4.593800902366638, -5.410476326942444 3.8792094588279724, -7.1459126472473145 l1.7354358732700348, -4.287547469139099 1.020844653248787, -3.675040602684021 l0.9187601506710052, -5.104222893714905 0.0, -7.350081205368042 l-0.5104223266243935, -1.5312670171260834 -0.9187601506710052, -1.4291824400424957 l-5.614645481109619, -4.083378612995148 m-17.150189876556396, 14.393908977508545 l0.0, -2.7562806010246277 -1.7354358732700348, -5.002138614654541 l-2.4500271677970886, -4.593800902366638 -4.1854628920555115, -5.614645481109619 l-6.329236626625061, -6.431320905685425 -6.431320905685425, -3.5729563236236572 m0.0, -0.10208446532487869 l0.10208446532487869, 1.5312670171260834 -0.5104223266243935, 1.633351445198059 l-0.9187601506710052, 1.7354358732700348 -1.633351445198059, 1.4291824400424957 l-2.7562806010246277, 1.2250135838985443 -1.1229290813207626, 0.0 l-3.98129403591156, 1.2250135838985443 -1.633351445198059, 0.10208446532487869 l-10.106362104415894, 2.8583648800849915 -2.4500271677970886, 1.2250135838985443 l-2.960449457168579, 2.65419602394104 -1.32709801197052, 2.5521114468574524 l-1.633351445198059, 6.431320905685425 -1.1229290813207626, 2.65419602394104 l-0.5104223266243935, 12.454304695129395 m-0.20416893064975739, 0.0 l0.0, 2.041689306497574 m34.30037975311279, -41.54837608337402 l-0.10208446532487869, -4.593800902366638 -0.6125067919492722, -5.104222893714905 l-0.5104223266243935, -0.40833786129951477 -2.347942590713501, 2.65419602394104 l1.32709801197052, -3.0625340342521667 1.2250135838985443, -0.20416893064975739 l-6.737574338912964, 0.0 m-6.839659214019775, 19.498132467269897 l0.40833786129951477, -2.8583648800849915 0.0, -3.0625340342521667 l-3.1646183133125305, 0.40833786129951477 2.041689306497574, -0.40833786129951477 l2.2458581626415253, -1.1229290813207626 -0.5104223266243935, 0.0 l-2.8583648800849915, 1.9396047294139862 m1.7354358732700348, 5.002138614654541 l-0.40833786129951477, 0.5104223266243935 0.0, 2.4500271677970886 l0.3062533959746361, 2.347942590713501 1.2250135838985443, 4.083378612995148 l-4.900054335594177, 1.633351445198059 m6.6354900598526, -11.02512240409851 l0.6125067919492722, 5.410476326942444 0.20416893064975739, -1.5312670171260834 " fill="none" stroke="black" stroke-width="1" /></svg>