<?xml version="1.0" encoding="utf-8" ?>
<svg baseProfile="full" height="26.537682712078094" version="1.1" width="41.95243615657091" xmlns="http://www.w3.org/2000/svg" xmlns:ev="http://www.w3.org/2001/xml-events" xmlns:xlink="http://www.w3.org/1999/xlink"><defs /><rect fill="white" height="26.537682712078094" width="41.95243615657091" x="0" y="0" /><path d="M16.331375241279602, 11.941743195056915 m-7.656334638595581, 0.0 l-1.8375203013420105, 0.7145912200212479 -1.4291824400424957, 1.32709801197052 l-0.40833786129951477, 2.65419602394104 0.8166757225990295, 1.7354358732700348 l2.1437737345695496, 1.7354358732700348 2.2458581626415253, 1.020844653248787 l2.5521114468574524, 0.40833786129951477 1.9396047294139862, -0.20416893064975739 l1.7354358732700348, -1.5312670171260834 1.2250135838985443, -2.041689306497574 l0.10208446532487869, -1.1229290813207626 -1.020844653248787, -1.1229290813207626 l-1.5312670171260834, -3.5729563236236572 -1.5312670171260834, -0.7145912200212479 m16.129344701766968, 1.020844653248787 l-0.9187601506710052, 2.4500271677970886 -0.5104223266243935, 3.0625340342521667 l0.5104223266243935, 1.1229290813207626 1.8375203013420105, 0.8166757225990295 l4.79796975851059, 0.6125067919492722 0.5104223266243935, -0.40833786129951477 l0.8166757225990295, -1.633351445198059 0.10208446532487869, -1.2250135838985443 l-0.5104223266243935, -1.633351445198059 -2.960449457168579, -2.8583648800849915 l-1.32709801197052, -0.6125067919492722 -1.633351445198059, -0.40833786129951477 l-3.266702890396118, 0.10208446532487869 m-13.883486986160278, 4.389632046222687 l2.960449457168579, -1.4291824400424957 3.5729563236236572, -3.4708717465400696 l1.5312670171260834, -0.6125067919492722 3.5729563236236572, 0.7145912200212479 l9.28968608379364, 0.20416893064975739 0.7145912200212479, 0.8166757225990295 l0.0, 2.1437737345695496 -0.20416893064975739, 0.5104223266243935 l-1.5312670171260834, 1.2250135838985443 -10.820952653884888, -0.5104223266243935 l-8.064672350883484, 0.10208446532487869 m0.0, 0.0 l-1.020844653248787, -8.983432650566101 -2.960449457168579, -1.7354358732700348 l4.1854628920555115, 0.40833786129951477 4.287547469139099, -0.20416893064975739 m6.6354900598526, 8.983432650566101 l-1.2250135838985443, 0.0 -1.7354358732700348, 0.5104223266243935 l-0.10208446532487869, 0.5104223266243935 2.2458581626415253, 0.8166757225990295 " fill="none" stroke="black" stroke-width="1" /></svg>