<?xml version="1.0" encoding="utf-8" ?>
<svg baseProfile="full" height="37.2565521299839" version="1.1" width="48.690012246370316" xmlns="http://www.w3.org/2000/svg" xmlns:ev="http://www.w3.org/2001/xml-events" xmlns:xlink="http://www.w3.org/1999/xlink"><defs /><rect fill="white" height="37.2565521299839" width="48.690012246370316" x="0" y="0" /><path d="M5.10208435356617, 25.62106154859066 m1.1229290813207626, -5.716729760169983 l1.1229290813207626, -2.4500271677970886 0.5104223266243935, -0.7145912200212479 l0.7145912200212479, -0.3062533959746361 3.0625340342521667, 0.10208446532487869 l3.8792094588279724, 2.960449457168579 1.020844653248787, 1.2250135838985443 l0.10208446532487869, 0.6125067919492722 -0.20416893064975739, 2.7562806010246277 l-0.9187601506710052, 1.2250135838985443 -3.7771251797676086, 2.4500271677970886 l-2.5521114468574524, 0.5104223266243935 -1.5312670171260834, 0.0 l-1.9396047294139862, -1.9396047294139862 -0.7145912200212479, -1.5312670171260834 l0.0, -3.1646183133125305 m0.6125067919492722, -2.8583648800849915 l1.32709801197052, 3.8792094588279724 1.32709801197052, 2.041689306497574 l1.1229290813207626, 0.6125067919492722 m-3.368787169456482, 0.40833786129951477 l1.633351445198059, -0.8166757225990295 4.389632046222687, -3.1646183133125305 l3.7771251797676086, -1.633351445198059 m7.860503792762756, 4.083378612995148 l6.941743493080139, -1.2250135838985443 9.085517525672913, 0.0 l1.9396047294139862, 0.5104223266243935 2.041689306497574, 1.4291824400424957 l-0.20416893064975739, 2.2458581626415253 -2.5521114468574524, 3.4708717465400696 l-3.7771251797676086, 1.633351445198059 -1.1229290813207626, 0.0 l-1.020844653248787, -0.9187601506710052 -2.65419602394104, -3.1646183133125305 l-1.32709801197052, -2.2458581626415253 0.0, -0.6125067919492722 l3.8792094588279724, -1.9396047294139862 m-0.40833786129951477, -0.7145912200212479 l3.368787169456482, -4.900054335594177 0.7145912200212479, -1.633351445198059 l0.7145912200212479, -5.512561202049255 0.0, -4.593800902366638 l-0.5104223266243935, -0.3062533959746361 -3.675040602684021, -0.10208446532487869 l-5.30839204788208, 0.8166757225990295 -9.800108671188354, -0.20416893064975739 l-2.347942590713501, -0.40833786129951477 -7.860503792762756, 0.20416893064975739 l-1.32709801197052, 2.347942590713501 -0.9187601506710052, 4.083378612995148 m14.393908977508545, -7.4521660804748535 l0.40833786129951477, 0.5104223266243935 2.65419602394104, 0.40833786129951477 l5.614645481109619, 0.20416893064975739 2.65419602394104, 0.5104223266243935 l-2.347942590713501, 0.20416893064975739 -7.043827772140503, -1.1229290813207626 l1.4291824400424957, -0.6125067919492722 2.041689306497574, -0.10208446532487869 " fill="none" stroke="black" stroke-width="1" /></svg>