<?xml version="1.0" encoding="utf-8" ?>
<svg baseProfile="full" height="45.32122429460287" version="1.1" width="50.73170121759176" xmlns="http://www.w3.org/2000/svg" xmlns:ev="http://www.w3.org/2001/xml-events" xmlns:xlink="http://www.w3.org/1999/xlink"><defs /><rect fill="white" height="45.32122429460287" width="50.73170121759176" x="0" y="0" /><path d="M22.660613246262074, 23.885625079274178 m-2.041689306497574, 11.535544395446777 l0.0, 0.0 m-7.1459126472473145, -18.783540725708008 l0.0, -0.10208446532487869 m-3.0625340342521667, 11.229290962219238 l1.7354358732700348, -0.40833786129951477 7.656334638595581, 0.10208446532487869 l1.1229290813207626, 2.65419602394104 0.0, 5.410476326942444 l-0.3062533959746361, 0.8166757225990295 -1.7354358732700348, 0.7145912200212479 l-12.556389570236206, 0.20416893064975739 -0.9187601506710052, -0.20416893064975739 l-0.40833786129951477, -0.5104223266243935 0.0, -2.8583648800849915 l1.32709801197052, -2.7562806010246277 2.7562806010246277, -1.4291824400424957 l0.40833786129951477, -0.5104223266243935 2.65419602394104, -0.6125067919492722 l1.32709801197052, -1.4291824400424957 m24.29610252380371, -0.9187601506710052 l4.593800902366638, 0.0 1.8375203013420105, 1.7354358732700348 l1.2250135838985443, 1.8375203013420105 0.3062533959746361, 0.9187601506710052 l0.0, 7.4521660804748535 -0.3062533959746361, 1.633351445198059 l-0.40833786129951477, 0.5104223266243935 -0.9187601506710052, 0.20416893064975739 l-1.7354358732700348, 0.0 -5.512561202049255, -2.347942590713501 l-1.4291824400424957, -1.8375203013420105 -0.7145912200212479, -1.7354358732700348 l-0.20416893064975739, -4.4917163252830505 0.40833786129951477, -0.8166757225990295 l1.633351445198059, -1.633351445198059 3.675040602684021, -1.7354358732700348 m0.0, 0.0 m-3.8792094588279724, 0.9187601506710052 l0.0, 0.0 m1.9396047294139862, 0.5104223266243935 l-1.020844653248787, -0.10208446532487869 -1.7354358732700348, -1.4291824400424957 l-4.593800902366638, -1.4291824400424957 -10.412615537643433, -0.20416893064975739 l-2.4500271677970886, 1.1229290813207626 -1.2250135838985443, 2.1437737345695496 m21.641905307769775, -2.4500271677970886 l0.0, 0.10208446532487869 m-1.4291824400424957, 2.4500271677970886 l-0.3062533959746361, -5.206307768821716 -0.7145912200212479, -2.4500271677970886 l0.0, -7.1459126472473145 -6.022983193397522, -0.10208446532487869 l0.10208446532487869, -0.6125067919492722 4.083378612995148, -1.32709801197052 l1.020844653248787, 0.10208446532487869 0.10208446532487869, 0.5104223266243935 l0.5104223266243935, 0.10208446532487869 2.5521114468574524, -3.368787169456482 l1.633351445198059, -1.4291824400424957 2.8583648800849915, -1.4291824400424957 " fill="none" stroke="black" stroke-width="1" /></svg>