<?xml version="1.0" encoding="utf-8" ?>
<svg baseProfile="full" height="31.64190575480461" version="1.1" width="44.09621022641659" xmlns="http://www.w3.org/2000/svg" xmlns:ev="http://www.w3.org/2001/xml-events" xmlns:xlink="http://www.w3.org/1999/xlink"><defs /><rect fill="white" height="31.64190575480461" width="44.09621022641659" x="0" y="0" /><path d="M11.533405557274818, 13.677178546786308 m-0.6125067919492722, -0.10208446532487869 l-1.32709801197052, 0.3062533959746361 -4.1854628920555115, 5.818814635276794 l-0.40833786129951477, 2.7562806010246277 0.10208446532487869, 1.633351445198059 l0.3062533959746361, 1.2250135838985443 0.7145912200212479, 1.32709801197052 l2.65419602394104, 0.0 2.041689306497574, -0.40833786129951477 l2.5521114468574524, -1.1229290813207626 1.4291824400424957, -2.4500271677970886 l0.9187601506710052, -2.347942590713501 0.10208446532487869, -3.0625340342521667 l-1.9396047294139862, -3.266702890396118 -1.1229290813207626, -1.1229290813207626 l-2.2458581626415253, -0.10208446532487869 -1.020844653248787, 1.2250135838985443 l-1.633351445198059, 4.083378612995148 m0.40833786129951477, 0.6125067919492722 l-0.8166757225990295, 3.4708717465400696 0.10208446532487869, 0.40833786129951477 l0.7145912200212479, 0.40833786129951477 1.020844653248787, -0.20416893064975739 l1.2250135838985443, -0.8166757225990295 1.020844653248787, -1.5312670171260834 l0.40833786129951477, -3.266702890396118 -1.1229290813207626, -0.10208446532487869 m25.316946506500244, -3.4708717465400696 l-4.593800902366638, 3.1646183133125305 -1.020844653248787, 1.32709801197052 l-0.5104223266243935, 1.633351445198059 0.0, 2.1437737345695496 l1.633351445198059, 1.2250135838985443 1.32709801197052, 0.20416893064975739 l3.7771251797676086, -1.1229290813207626 1.1229290813207626, -0.8166757225990295 l1.1229290813207626, -1.9396047294139862 0.10208446532487869, -1.7354358732700348 l-0.20416893064975739, -1.8375203013420105 -0.6125067919492722, -1.5312670171260834 l-1.32709801197052, -0.10208446532487869 -0.40833786129951477, 0.7145912200212479 m-2.041689306497574, 2.4500271677970886 l-0.20416893064975739, 0.7145912200212479 0.3062533959746361, 2.960449457168579 l0.5104223266243935, -0.20416893064975739 1.020844653248787, -1.8375203013420105 m-24.806525707244873, -6.737574338912964 l1.7354358732700348, -0.40833786129951477 4.4917163252830505, 0.0 l10.004277229309082, 1.32709801197052 7.758418917655945, -0.20416893064975739 m-24.29610252380371, -0.10208446532487869 l0.0, -5.104222893714905 -2.5521114468574524, -1.4291824400424957 l-0.40833786129951477, -0.6125067919492722 0.0, -0.7145912200212479 m3.5729563236236572, 2.1437737345695496 l2.4500271677970886, -0.8166757225990295 1.2250135838985443, -0.9187601506710052 " fill="none" stroke="black" stroke-width="1" /></svg>