<?xml version="1.0" encoding="utf-8" ?>
<svg baseProfile="full" height="33.173173666000366" version="1.1" width="43.27953591942787" xmlns="http://www.w3.org/2000/svg" xmlns:ev="http://www.w3.org/2001/xml-events" xmlns:xlink="http://www.w3.org/1999/xlink"><defs /><rect fill="white" height="33.173173666000366" width="43.27953591942787" x="0" y="0" /><path d="M14.800108447670937, 15.718869417905807 m-1.020844653248787, -1.7354358732700348 l-1.8375203013420105, -1.2250135838985443 -2.347942590713501, 0.10208446532487869 l-2.7562806010246277, 2.347942590713501 -1.1229290813207626, 1.5312670171260834 l-0.7145912200212479, 2.1437737345695496 0.0, 1.1229290813207626 l0.9187601506710052, 1.633351445198059 1.5312670171260834, 1.020844653248787 l4.900054335594177, 1.1229290813207626 3.5729563236236572, -0.3062533959746361 l0.40833786129951477, -0.5104223266243935 0.3062533959746361, -1.7354358732700348 l0.3062533959746361, -6.227152347564697 -0.8166757225990295, -1.8375203013420105 l-0.9187601506710052, -0.7145912200212479 m21.437737941741943, -1.32709801197052 l-1.2250135838985443, -0.3062533959746361 -3.368787169456482, 0.0 l-3.0625340342521667, 1.32709801197052 -1.633351445198059, 1.9396047294139862 l-0.8166757225990295, 1.9396047294139862 -0.20416893064975739, 1.633351445198059 l0.10208446532487869, 5.002138614654541 1.8375203013420105, 3.675040602684021 l1.8375203013420105, 1.2250135838985443 1.8375203013420105, 0.5104223266243935 l3.0625340342521667, 0.10208446532487869 1.2250135838985443, -0.5104223266243935 l1.1229290813207626, -1.32709801197052 0.6125067919492722, -1.5312670171260834 l0.3062533959746361, -2.7562806010246277 -0.3062533959746361, -3.0625340342521667 l-1.1229290813207626, -2.2458581626415253 -1.5312670171260834, -1.5312670171260834 l-3.675040602684021, -0.20416893064975739 m-6.1250680685043335, 4.1854628920555115 l-7.656334638595581, 0.0 -0.8166757225990295, -0.3062533959746361 m0.10208446532487869, 0.10208446532487869 l0.6125067919492722, -0.3062533959746361 5.30839204788208, -5.512561202049255 l3.98129403591156, -5.614645481109619 2.7562806010246277, -2.5521114468574524 " fill="none" stroke="black" stroke-width="1" /></svg>