<?xml version="1.0" encoding="utf-8" ?>
<svg baseProfile="full" height="40.114915892481804" version="1.1" width="57.77552865445614" xmlns="http://www.w3.org/2000/svg" xmlns:ev="http://www.w3.org/2001/xml-events" xmlns:xlink="http://www.w3.org/1999/xlink"><defs /><rect fill="white" height="40.114915892481804" width="57.77552865445614" x="0" y="0" /><path d="M19.189740121364594, 28.68359439074993 m-2.65419602394104, -3.4708717465400696 l-1.9396047294139862, -1.8375203013420105 -3.1646183133125305, -1.2250135838985443 l-2.8583648800849915, 0.40833786129951477 -1.9396047294139862, 1.7354358732700348 l-1.633351445198059, 5.512561202049255 0.10208446532487869, 3.266702890396118 l1.020844653248787, 1.633351445198059 2.1437737345695496, 0.40833786129951477 l5.920898914337158, -0.20416893064975739 1.9396047294139862, -0.6125067919492722 l1.8375203013420105, -1.1229290813207626 1.32709801197052, -1.7354358732700348 l0.5104223266243935, -2.8583648800849915 -1.5312670171260834, -1.633351445198059 l-1.32709801197052, -0.5104223266243935 m33.07536602020264, -4.1854628920555115 l-2.960449457168579, -0.10208446532487869 -3.1646183133125305, 2.347942590713501 l-0.8166757225990295, 2.1437737345695496 -0.6125067919492722, 3.7771251797676086 l1.2250135838985443, 2.8583648800849915 1.2250135838985443, 0.6125067919492722 l2.1437737345695496, 0.10208446532487869 3.675040602684021, -1.633351445198059 l1.2250135838985443, -1.7354358732700348 0.8166757225990295, -2.2458581626415253 l0.0, -1.7354358732700348 -0.5104223266243935, -1.7354358732700348 l-2.65419602394104, -3.675040602684021 -1.633351445198059, -1.020844653248787 l-2.1437737345695496, 0.0 -0.40833786129951477, 0.40833786129951477 m-32.15660572052002, 1.1229290813207626 l-1.4291824400424957, 2.1437737345695496 -1.4291824400424957, 3.0625340342521667 l-0.5104223266243935, 2.7562806010246277 0.0, -1.32709801197052 l2.041689306497574, -3.8792094588279724 1.9396047294139862, -5.512561202049255 m31.135761737823486, -2.2458581626415253 l2.8583648800849915, 7.247996926307678 1.1229290813207626, 5.002138614654541 l-0.40833786129951477, -2.960449457168579 m-3.98129403591156, -9.28968608379364 l-1.8375203013420105, 0.6125067919492722 -2.1437737345695496, 1.5312670171260834 l-2.1437737345695496, 4.083378612995148 0.20416893064975739, 5.920898914337158 m1.8375203013420105, -9.28968608379364 l0.10208446532487869, -1.1229290813207626 0.8166757225990295, -1.2250135838985443 m-1.020844653248787, 1.4291824400424957 l-0.20416893064975739, -2.960449457168579 -1.020844653248787, -3.675040602684021 l-0.10208446532487869, -2.347942590713501 -0.5104223266243935, -0.20416893064975739 l-2.347942590713501, 1.4291824400424957 -2.960449457168579, 0.8166757225990295 l1.4291824400424957, -0.6125067919492722 2.7562806010246277, -1.9396047294139862 l3.1646183133125305, -1.32709801197052 0.8166757225990295, -2.347942590713501 l0.5104223266243935, -0.5104223266243935 m-2.7562806010246277, 5.104222893714905 l-0.3062533959746361, 5.410476326942444 -2.1437737345695496, 3.4708717465400696 l-1.32709801197052, 1.1229290813207626 " fill="none" stroke="black" stroke-width="1" /></svg>