<?xml version="1.0" encoding="utf-8" ?>
<svg baseProfile="full" height="46.34206872433424" version="1.1" width="62.06307515501976" xmlns="http://www.w3.org/2000/svg" xmlns:ev="http://www.w3.org/2001/xml-events" xmlns:xlink="http://www.w3.org/1999/xlink"><defs /><rect fill="white" height="46.34206872433424" width="62.06307515501976" x="0" y="0" /><path d="M13.473010249435902, 26.335652321577072 m0.3062533959746361, -0.6125067919492722 l-1.1229290813207626, 0.5104223266243935 -3.368787169456482, 3.1646183133125305 l-3.1646183133125305, 3.98129403591156 -0.9187601506710052, 2.041689306497574 l-0.20416893064975739, 3.4708717465400696 1.2250135838985443, 1.32709801197052 l1.8375203013420105, 0.40833786129951477 2.5521114468574524, -0.20416893064975739 l2.4500271677970886, -1.32709801197052 2.347942590713501, -1.8375203013420105 l2.1437737345695496, -2.2458581626415253 1.633351445198059, -2.5521114468574524 l1.020844653248787, -2.347942590713501 0.40833786129951477, -4.1854628920555115 l-0.9187601506710052, -1.2250135838985443 -1.7354358732700348, -0.20416893064975739 l-2.4500271677970886, 0.7145912200212479 -1.9396047294139862, 1.5312670171260834 m35.21914005279541, -0.3062533959746361 l-0.20416893064975739, -1.7354358732700348 -0.5104223266243935, -0.5104223266243935 l-1.020844653248787, -0.40833786129951477 -1.7354358732700348, 0.0 l-2.4500271677970886, 0.9187601506710052 -2.1437737345695496, 1.5312670171260834 l-1.9396047294139862, 1.9396047294139862 -1.5312670171260834, 2.1437737345695496 l-1.1229290813207626, 2.5521114468574524 -0.7145912200212479, 3.266702890396118 l0.0, 2.7562806010246277 0.7145912200212479, 1.7354358732700348 l1.4291824400424957, 0.7145912200212479 1.9396047294139862, 0.0 l2.5521114468574524, -0.9187601506710052 2.347942590713501, -1.633351445198059 l2.1437737345695496, -2.347942590713501 1.7354358732700348, -2.5521114468574524 l0.9187601506710052, -2.4500271677970886 -0.20416893064975739, -2.347942590713501 l-1.7354358732700348, -0.40833786129951477 -1.9396047294139862, 0.0 m-27.97114372253418, -2.960449457168579 l-1.7354358732700348, -9.085517525672913 0.0, -1.8375203013420105 l1.4291824400424957, -0.20416893064975739 15.618922710418701, 0.0 l8.064672350883484, 1.1229290813207626 1.020844653248787, 0.6125067919492722 l1.1229290813207626, 1.5312670171260834 0.20416893064975739, 2.5521114468574524 l-0.40833786129951477, 4.900054335594177 m-0.9187601506710052, -10.514699220657349 l0.10208446532487869, -0.5104223266243935 2.1437737345695496, -1.5312670171260834 l10.412615537643433, -6.533405780792236 2.65419602394104, -1.2250135838985443 m-44.71299648284912, 26.439876556396484 l-1.32709801197052, 1.4291824400424957 -0.3062533959746361, 1.2250135838985443 l0.5104223266243935, -0.3062533959746361 0.6125067919492722, -1.7354358732700348 l5.920898914337158, -6.431320905685425 m-5.002138614654541, 5.206307768821716 l0.40833786129951477, 4.083378612995148 m-2.041689306497574, -1.2250135838985443 l-3.266702890396118, 5.30839204788208 m1.9396047294139862, -5.920898914337158 l-0.20416893064975739, -0.9187601506710052 -1.2250135838985443, -1.9396047294139862 m2.8583648800849915, 0.20416893064975739 l1.020844653248787, 2.041689306497574 1.32709801197052, 0.9187601506710052 " fill="none" stroke="black" stroke-width="1" /></svg>