<?xml version="1.0" encoding="utf-8" ?>
<svg baseProfile="full" height="51.344207748770714" version="1.1" width="47.771250791847706" xmlns="http://www.w3.org/2000/svg" xmlns:ev="http://www.w3.org/2001/xml-events" xmlns:xlink="http://www.w3.org/1999/xlink"><defs /><rect fill="white" height="51.344207748770714" width="47.771250791847706" x="0" y="0" /><path d="M7.245858199894428, 44.09834988415241 m-0.9187601506710052, -0.9187601506710052 l-1.2250135838985443, -3.1646183133125305 -0.10208446532487869, -3.0625340342521667 l1.4291824400424957, -4.593800902366638 1.7354358732700348, -2.4500271677970886 l2.4500271677970886, -1.1229290813207626 2.1437737345695496, 0.7145912200212479 l2.65419602394104, 3.98129403591156 0.6125067919492722, 2.8583648800849915 l-0.5104223266243935, 2.1437737345695496 -1.2250135838985443, 2.2458581626415253 l-1.9396047294139862, 2.960449457168579 -2.7562806010246277, 2.65419602394104 l-2.041689306497574, -0.20416893064975739 -0.8166757225990295, -1.5312670171260834 m28.17531108856201, -3.0625340342521667 l-0.7145912200212479, 0.10208446532487869 -2.8583648800849915, -1.7354358732700348 l-1.2250135838985443, -1.5312670171260834 0.0, -1.8375203013420105 l0.6125067919492722, -1.2250135838985443 1.633351445198059, -1.9396047294139862 l5.512561202049255, -1.32709801197052 3.675040602684021, 3.0625340342521667 l1.2250135838985443, 2.8583648800849915 0.0, 3.4708717465400696 l-0.8166757225990295, 1.4291824400424957 -2.2458581626415253, 1.32709801197052 l-2.5521114468574524, 0.3062533959746361 -7.860503792762756, -5.30839204788208 m-17.252274751663208, -4.083378612995148 l2.041689306497574, -10.61678409576416 2.960449457168579, -12.454304695129395 m-6.1250680685043335, -7.043827772140503 l3.1646183133125305, 5.512561202049255 2.5521114468574524, 3.5729563236236572 l2.041689306497574, 1.5312670171260834 0.8166757225990295, 0.0 l1.5312670171260834, -2.8583648800849915 m-6.227152347564697, 7.043827772140503 l12.352219820022583, -0.5104223266243935 m3.98129403591156, 16.63976788520813 l-2.1437737345695496, -6.329236626625061 -1.5312670171260834, -6.1250680685043335 l-0.5104223266243935, -5.206307768821716 m0.10208446532487869, 0.0 l-0.5104223266243935, -1.2250135838985443 1.32709801197052, -1.1229290813207626 l1.020844653248787, 0.0 0.40833786129951477, 0.6125067919492722 l-0.10208446532487869, 0.7145912200212479 -0.7145912200212479, 0.3062533959746361 l-1.2250135838985443, -0.20416893064975739 " fill="none" stroke="black" stroke-width="1" /></svg>