<?xml version="1.0" encoding="utf-8" ?>
<svg baseProfile="full" height="31.743990518152714" version="1.1" width="33.785679936409" xmlns="http://www.w3.org/2000/svg" xmlns:ev="http://www.w3.org/2001/xml-events" xmlns:xlink="http://www.w3.org/1999/xlink"><defs /><rect fill="white" height="31.743990518152714" width="33.785679936409" x="0" y="0" /><path d="M7.756280526518822, 20.82309179008007 m-2.1437737345695496, 0.5104223266243935 l-0.40833786129951477, 0.7145912200212479 -0.20416893064975739, 2.5521114468574524 l0.5104223266243935, 1.020844653248787 1.32709801197052, 0.9187601506710052 l3.1646183133125305, 0.20416893064975739 1.2250135838985443, -0.40833786129951477 l0.5104223266243935, -2.65419602394104 0.0, -1.020844653248787 l-0.5104223266243935, -1.32709801197052 -2.041689306497574, -1.5312670171260834 l-1.7354358732700348, -0.5104223266243935 0.0, 0.3062533959746361 m1.9396047294139862, 0.6125067919492722 l0.0, -2.4500271677970886 1.2250135838985443, -2.65419602394104 l2.1437737345695496, -3.266702890396118 5.716729760169983, 3.8792094588279724 l3.0625340342521667, 3.368787169456482 1.1229290813207626, 0.8166757225990295 l-0.9187601506710052, 1.020844653248787 0.3062533959746361, 1.32709801197052 l1.020844653248787, 2.041689306497574 1.5312670171260834, 1.5312670171260834 l1.633351445198059, 0.3062533959746361 2.1437737345695496, -2.4500271677970886 l0.40833786129951477, -2.4500271677970886 -0.6125067919492722, -1.1229290813207626 l-1.633351445198059, -0.20416893064975739 -3.675040602684021, 0.3062533959746361 l-0.40833786129951477, -0.40833786129951477 m-9.28968608379364, -7.554250359535217 l-0.3062533959746361, -1.8375203013420105 0.40833786129951477, -2.1437737345695496 m0.20416893064975739, -0.10208446532487869 l-0.9187601506710052, -0.8166757225990295 -1.020844653248787, 0.8166757225990295 l2.041689306497574, -1.4291824400424957 4.1854628920555115, 1.4291824400424957 m3.0625340342521667, 9.085517525672913 l0.0, -6.329236626625061 0.40833786129951477, -2.347942590713501 l0.9187601506710052, -2.5521114468574524 -0.7145912200212479, -0.5104223266243935 l-3.266702890396118, -0.5104223266243935 " fill="none" stroke="black" stroke-width="1" /></svg>