<?xml version="1.0" encoding="utf-8" ?>
<svg baseProfile="full" height="54.9171644076705" version="1.1" width="62.267246283590794" xmlns="http://www.w3.org/2000/svg" xmlns:ev="http://www.w3.org/2001/xml-events" xmlns:xlink="http://www.w3.org/1999/xlink"><defs /><rect fill="white" height="54.9171644076705" width="62.267246283590794" x="0" y="0" /><path d="M16.535544469952583, 23.68145562708378 m2.2458581626415253, -0.8166757225990295 l7.4521660804748535, -1.7354358732700348 15.006415843963623, -1.7354358732700348 l8.983432650566101, -0.40833786129951477 m-26.03153705596924, 2.041689306497574 l-7.1459126472473145, 12.964726686477661 -3.675040602684021, 9.28968608379364 l0.7145912200212479, -0.9187601506710052 m31.33992910385132, -21.8460750579834 l0.5104223266243935, 2.8583648800849915 1.2250135838985443, 3.675040602684021 l3.368787169456482, 8.166757225990295 2.2458581626415253, 3.4708717465400696 l1.7354358732700348, 5.002138614654541 -1.1229290813207626, -3.5729563236236572 m-17.456443309783936, -20.41689157485962 l0.0, -3.4708717465400696 1.9396047294139862, -2.347942590713501 l0.3062533959746361, -5.410476326942444 0.5104223266243935, -2.347942590713501 l1.9396047294139862, -1.1229290813207626 0.7145912200212479, 0.7145912200212479 l1.020844653248787, 2.4500271677970886 0.5104223266243935, 2.2458581626415253 l0.10208446532487869, 7.4521660804748535 -0.5104223266243935, -0.10208446532487869 m-24.398186206817627, -5.002138614654541 l4.79796975851059, 0.0 2.2458581626415253, -0.6125067919492722 m-3.1646183133125305, 0.6125067919492722 l0.0, 1.633351445198059 1.4291824400424957, 6.533405780792236 l-0.3062533959746361, 1.7354358732700348 -0.40833786129951477, -3.266702890396118 m-1.1229290813207626, -7.860503792762756 l0.10208446532487869, -1.1229290813207626 1.020844653248787, -0.6125067919492722 l1.020844653248787, 0.3062533959746361 0.7145912200212479, 1.8375203013420105 m-7.656334638595581, 26.439876556396484 l-0.6125067919492722, -0.40833786129951477 -3.7771251797676086, -0.10208446532487869 l-4.1854628920555115, 1.1229290813207626 -2.7562806010246277, 1.32709801197052 l-0.40833786129951477, 1.020844653248787 0.20416893064975739, 2.5521114468574524 l1.4291824400424957, 2.8583648800849915 7.350081205368042, 3.1646183133125305 l4.083378612995148, -3.7771251797676086 2.1437737345695496, -3.0625340342521667 l0.6125067919492722, -1.633351445198059 0.10208446532487869, -3.98129403591156 l-0.3062533959746361, -1.633351445198059 -0.8166757225990295, -1.2250135838985443 l-2.041689306497574, -1.2250135838985443 -3.98129403591156, -1.1229290813207626 l-1.633351445198059, 0.0 m43.181729316711426, 3.8792094588279724 l-4.389632046222687, 1.8375203013420105 -3.675040602684021, 2.5521114468574524 l-1.32709801197052, 1.633351445198059 -0.6125067919492722, 1.4291824400424957 l-0.40833786129951477, 2.2458581626415253 0.10208446532487869, 1.4291824400424957 l0.8166757225990295, 1.020844653248787 1.7354358732700348, 0.5104223266243935 l2.347942590713501, -0.10208446532487869 2.347942590713501, -0.6125067919492722 l1.7354358732700348, -0.7145912200212479 2.4500271677970886, -1.7354358732700348 l0.8166757225990295, -2.347942590713501 -0.10208446532487869, -2.2458581626415253 l-3.7771251797676086, -0.3062533959746361 " fill="none" stroke="black" stroke-width="1" /></svg>