<?xml version="1.0" encoding="utf-8" ?>
<svg baseProfile="full" height="40.31908493489027" version="1.1" width="84.31748729199171" xmlns="http://www.w3.org/2000/svg" xmlns:ev="http://www.w3.org/2001/xml-events" xmlns:xlink="http://www.w3.org/1999/xlink"><defs /><rect fill="white" height="40.31908493489027" width="84.31748729199171" x="0" y="0" /><path d="M23.37520383298397, 11.32923599332571 m-4.79796975851059, 0.20416893064975739 l-11.33137583732605, 2.1437737345695496 -1.020844653248787, 0.40833786129951477 l-0.8166757225990295, 1.7354358732700348 -0.40833786129951477, 2.4500271677970886 l0.0, 4.593800902366638 1.9396047294139862, 3.5729563236236572 l1.9396047294139862, 2.65419602394104 4.287547469139099, 2.4500271677970886 l5.002138614654541, 0.7145912200212479 4.389632046222687, 0.0 l1.2250135838985443, -1.020844653248787 2.65419602394104, -3.675040602684021 l1.633351445198059, -3.675040602684021 0.7145912200212479, -3.4708717465400696 l0.0, -5.614645481109619 -0.7145912200212479, -1.9396047294139862 l-1.5312670171260834, -1.020844653248787 -1.633351445198059, 0.0 l-1.7354358732700348, 0.6125067919492722 m43.89631748199463, 3.266702890396118 l1.8375203013420105, 1.1229290813207626 4.287547469139099, 1.32709801197052 l2.041689306497574, 1.633351445198059 1.9396047294139862, 3.368787169456482 l1.8375203013420105, 4.1854628920555115 0.3062533959746361, 5.104222893714905 l-0.20416893064975739, 1.2250135838985443 -2.4500271677970886, 1.2250135838985443 l-2.347942590713501, 0.40833786129951477 -6.839659214019775, 0.0 l-1.5312670171260834, -0.3062533959746361 -0.6125067919492722, -0.5104223266243935 l-1.633351445198059, -3.4708717465400696 -1.1229290813207626, -4.900054335594177 l-0.3062533959746361, -3.7771251797676086 0.7145912200212479, -1.020844653248787 l2.960449457168579, -0.7145912200212479 6.941743493080139, -2.4500271677970886 l-0.40833786129951477, -0.5104223266243935 m-3.675040602684021, 1.32709801197052 l-1.7354358732700348, -0.6125067919492722 -37.26082801818848, 0.0 l-4.695885181427002, -0.6125067919492722 -0.5104223266243935, -0.20416893064975739 l0.7145912200212479, -0.10208446532487869 m31.952435970306396, 1.1229290813207626 l3.7771251797676086, 3.8792094588279724 5.716729760169983, 2.8583648800849915 l1.8375203013420105, 1.7354358732700348 3.7771251797676086, 0.0 l-2.041689306497574, -0.3062533959746361 m-26.84821367263794, -8.370925784111023 l-1.9396047294139862, 0.0 -2.4500271677970886, 1.1229290813207626 l-9.493855237960815, 3.266702890396118 -3.266702890396118, 0.8166757225990295 l-8.26884150505066, 1.1229290813207626 -4.1854628920555115, 0.0 l3.675040602684021, -1.7354358732700348 m39.91502523422241, -5.614645481109619 l-8.575094938278198, -10.820952653884888 m-8.473010659217834, 11.943882703781128 l0.0, -1.020844653248787 2.960449457168579, -5.30839204788208 l1.2250135838985443, -5.614645481109619 3.266702890396118, -1.5312670171260834 l0.5104223266243935, 0.0 0.3062533959746361, 1.32709801197052 l-0.40833786129951477, 0.5104223266243935 -1.32709801197052, 0.10208446532487869 l-0.5104223266243935, -0.5104223266243935 0.0, -0.5104223266243935 l1.2250135838985443, 0.0 -0.40833786129951477, 0.5104223266243935 l-2.2458581626415253, 0.5104223266243935 " fill="none" stroke="black" stroke-width="1" /></svg>