<?xml version="1.0" encoding="utf-8" ?>
<svg baseProfile="full" height="42.156606167554855" version="1.1" width="98.4051438421011" xmlns="http://www.w3.org/2000/svg" xmlns:ev="http://www.w3.org/2001/xml-events" xmlns:xlink="http://www.w3.org/1999/xlink"><defs /><rect fill="white" height="42.156606167554855" width="98.4051438421011" x="0" y="0" /><path d="M29.500270821154118, 14.493855610489845 m-0.40833786129951477, 0.5104223266243935 l-4.083378612995148, 1.8375203013420105 -13.475148677825928, 7.350081205368042 l-4.593800902366638, 2.7562806010246277 -1.8375203013420105, 1.32709801197052 l-0.10208446532487869, 0.5104223266243935 3.98129403591156, 5.716729760169983 l4.083378612995148, 2.2458581626415253 2.7562806010246277, 0.40833786129951477 l5.410476326942444, -0.3062533959746361 5.716729760169983, -1.020844653248787 l3.7771251797676086, -1.2250135838985443 2.1437737345695496, -3.266702890396118 l1.7354358732700348, -5.614645481109619 -1.1229290813207626, -2.4500271677970886 l-1.633351445198059, -1.32709801197052 -1.020844653248787, -1.633351445198059 l-2.4500271677970886, -7.96258807182312 -0.7145912200212479, -1.1229290813207626 l-1.633351445198059, 0.10208446532487869 -0.8166757225990295, 6.227152347564697 m46.65259838104248, -2.7562806010246277 l-2.5521114468574524, 6.227152347564697 3.0625340342521667, 9.59593951702118 l0.9187601506710052, 1.8375203013420105 2.347942590713501, 2.347942590713501 l2.2458581626415253, 1.2250135838985443 2.1437737345695496, 0.20416893064975739 l5.818814635276794, -0.8166757225990295 2.65419602394104, -0.9187601506710052 l2.2458581626415253, -1.4291824400424957 2.65419602394104, -4.389632046222687 l-5.206307768821716, -8.473010659217834 -4.79796975851059, -3.98129403591156 l-6.941743493080139, -1.2250135838985443 -2.8583648800849915, 0.6125067919492722 l-3.8792094588279724, -0.3062533959746361 m2.7562806010246277, 0.5104223266243935 l-8.677179217338562, -5.002138614654541 -1.633351445198059, -2.4500271677970886 l-7.656334638595581, -3.368787169456482 0.10208446532487869, 0.5104223266243935 l-1.8375203013420105, 0.9187601506710052 -4.4917163252830505, 1.7354358732700348 l-2.7562806010246277, 0.7145912200212479 -6.227152347564697, 3.368787169456482 l-1.7354358732700348, 0.3062533959746361 -7.554250359535217, 4.4917163252830505 l-0.20416893064975739, -0.5104223266243935 1.2250135838985443, -0.7145912200212479 l11.02512240409851, -0.8166757225990295 14.087655544281006, 0.10208446532487869 l4.695885181427002, 0.7145912200212479 14.598078727722168, 0.3062533959746361 " fill="none" stroke="black" stroke-width="1" /></svg>