<?xml version="1.0" encoding="utf-8" ?>
<svg baseProfile="full" height="31.948159746825695" version="1.1" width="39.298240169882774" xmlns="http://www.w3.org/2000/svg" xmlns:ev="http://www.w3.org/2001/xml-events" xmlns:xlink="http://www.w3.org/1999/xlink"><defs /><rect fill="white" height="31.948159746825695" width="39.298240169882774" x="0" y="0" /><path d="M10.716730020940304, 18.781402744352818 m-1.8375203013420105, 0.0 l-3.0625340342521667, 1.9396047294139862 -0.7145912200212479, 1.9396047294139862 l-0.10208446532487869, 2.041689306497574 0.20416893064975739, 0.6125067919492722 l1.020844653248787, 1.020844653248787 1.5312670171260834, 0.5104223266243935 l4.593800902366638, 0.10208446532487869 2.4500271677970886, -0.8166757225990295 l1.020844653248787, -1.7354358732700348 0.5104223266243935, -1.9396047294139862 l0.0, -1.8375203013420105 -0.9187601506710052, -2.4500271677970886 l-0.7145912200212479, -0.5104223266243935 -4.900054335594177, 0.0 l-1.9396047294139862, 0.7145912200212479 -0.40833786129951477, 1.020844653248787 m20.723145008087158, -3.0625340342521667 l-1.4291824400424957, 0.8166757225990295 -1.1229290813207626, 1.32709801197052 l-1.020844653248787, 1.9396047294139862 0.20416893064975739, 2.347942590713501 l1.9396047294139862, 1.7354358732700348 1.633351445198059, 0.3062533959746361 l4.287547469139099, 0.0 1.32709801197052, -0.7145912200212479 l0.3062533959746361, -1.32709801197052 0.0, -3.0625340342521667 l-0.8166757225990295, -1.2250135838985443 -1.32709801197052, -0.9187601506710052 l-4.083378612995148, -1.1229290813207626 -2.7562806010246277, -0.10208446532487869 l-1.2250135838985443, 0.5104223266243935 m-12.964726686477661, 0.9187601506710052 l0.0, -0.5104223266243935 0.6125067919492722, -0.40833786129951477 l7.1459126472473145, -3.368787169456482 1.020844653248787, 0.0 l1.9396047294139862, 1.2250135838985443 5.30839204788208, 1.2250135838985443 m-8.473010659217834, -2.960449457168579 l-0.9187601506710052, -0.7145912200212479 0.0, -0.6125067919492722 l0.7145912200212479, -0.7145912200212479 1.4291824400424957, -0.5104223266243935 l0.7145912200212479, 0.6125067919492722 0.10208446532487869, 1.020844653248787 l-0.40833786129951477, 0.5104223266243935 -2.1437737345695496, 0.20416893064975739 l0.5104223266243935, -0.40833786129951477 0.10208446532487869, 0.5104223266243935 l4.900054335594177, 0.0 5.920898914337158, -1.2250135838985443 l-0.7145912200212479, -2.041689306497574 -0.10208446532487869, -2.1437737345695496 l-1.633351445198059, -1.9396047294139862 -0.10208446532487869, -0.5104223266243935 l1.2250135838985443, 1.633351445198059 1.020844653248787, -0.6125067919492722 " fill="none" stroke="black" stroke-width="1" /></svg>