<?xml version="1.0" encoding="utf-8" ?>
<svg baseProfile="full" height="39.91074774414301" version="1.1" width="69.51524190604687" xmlns="http://www.w3.org/2000/svg" xmlns:ev="http://www.w3.org/2001/xml-events" xmlns:xlink="http://www.w3.org/1999/xlink"><defs /><rect fill="white" height="39.91074774414301" width="69.51524190604687" x="0" y="0" /><path d="M19.90433134138584, 16.025122292339802 m-4.1854628920555115, -0.40833786129951477 l-3.1646183133125305, 0.3062533959746361 -2.041689306497574, 0.6125067919492722 l-2.5521114468574524, 1.5312670171260834 -1.4291824400424957, 1.4291824400424957 l-1.1229290813207626, 2.1437737345695496 -0.40833786129951477, 2.347942590713501 l0.10208446532487869, 1.633351445198059 0.7145912200212479, 2.8583648800849915 l0.9187601506710052, 1.4291824400424957 1.7354358732700348, 1.7354358732700348 l1.9396047294139862, 1.2250135838985443 2.041689306497574, 0.8166757225990295 l2.960449457168579, 0.6125067919492722 3.266702890396118, 0.10208446532487869 l2.8583648800849915, -0.7145912200212479 1.9396047294139862, -1.4291824400424957 l1.32709801197052, -2.041689306497574 0.7145912200212479, -2.2458581626415253 l0.3062533959746361, -3.5729563236236572 -0.7145912200212479, -2.5521114468574524 l-1.1229290813207626, -1.1229290813207626 -2.8583648800849915, -1.7354358732700348 l-1.1229290813207626, -1.5312670171260834 m0.5104223266243935, -0.7145912200212479 l2.960449457168579, -5.512561202049255 1.2250135838985443, -4.79796975851059 m0.0, 0.0 l-2.041689306497574, 0.6125067919492722 -1.7354358732700348, -0.5104223266243935 l-0.6125067919492722, 0.5104223266243935 -0.6125067919492722, 1.633351445198059 l0.7145912200212479, 0.9187601506710052 1.1229290813207626, 0.5104223266243935 m3.266702890396118, -3.5729563236236572 l1.020844653248787, -0.8166757225990295 -1.020844653248787, -0.7145912200212479 l0.10208446532487869, 0.5104223266243935 1.020844653248787, 0.9187601506710052 m-4.695885181427002, 9.800108671188354 l4.083378612995148, -0.3062533959746361 6.329236626625061, 0.10208446532487869 l6.227152347564697, -0.6125067919492722 5.206307768821716, 0.40833786129951477 l6.431320905685425, -0.3062533959746361 m0.0, 0.0 l-2.2458581626415253, 0.40833786129951477 -2.041689306497574, 0.9187601506710052 l-4.593800902366638, 3.4708717465400696 -1.633351445198059, 2.347942590713501 l-0.5104223266243935, 2.041689306497574 -0.10208446532487869, 2.1437737345695496 l0.8166757225990295, 3.1646183133125305 1.1229290813207626, 1.9396047294139862 l1.9396047294139862, 1.32709801197052 2.960449457168579, 1.1229290813207626 l2.65419602394104, 0.5104223266243935 5.002138614654541, -0.20416893064975739 l2.5521114468574524, -0.9187601506710052 2.1437737345695496, -1.32709801197052 l3.5729563236236572, -3.7771251797676086 2.4500271677970886, -4.287547469139099 l0.9187601506710052, -3.675040602684021 -0.3062533959746361, -2.347942590713501 l-0.6125067919492722, -1.2250135838985443 -2.041689306497574, -1.2250135838985443 l-1.2250135838985443, -0.3062533959746361 -7.656334638595581, -0.3062533959746361 l-4.389632046222687, 0.8166757225990295 -2.347942590713501, 0.0 m-12.045966386795044, 0.3062533959746361 " fill="none" stroke="black" stroke-width="1" /></svg>