<?xml version="1.0" encoding="utf-8" ?>
<svg baseProfile="full" height="31.335652247071266" version="1.1" width="46.03581517934799" xmlns="http://www.w3.org/2000/svg" xmlns:ev="http://www.w3.org/2001/xml-events" xmlns:xlink="http://www.w3.org/1999/xlink"><defs /><rect fill="white" height="31.335652247071266" width="46.03581517934799" x="0" y="0" /><path d="M24.191879220306873, 9.593800231814384 m-5.716729760169983, 2.1437737345695496 l-5.206307768821716, 4.900054335594177 -0.20416893064975739, 2.5521114468574524 l0.20416893064975739, 1.7354358732700348 0.8166757225990295, 2.4500271677970886 l1.7354358732700348, 1.5312670171260834 2.347942590713501, 1.4291824400424957 l2.041689306497574, 0.0 2.65419602394104, -0.6125067919492722 l2.960449457168579, -1.7354358732700348 1.7354358732700348, -2.1437737345695496 l1.020844653248787, -1.7354358732700348 0.3062533959746361, -1.32709801197052 l-0.10208446532487869, -3.4708717465400696 -0.5104223266243935, -1.4291824400424957 l-0.7145912200212479, -0.8166757225990295 -5.818814635276794, -2.8583648800849915 m-3.266702890396118, 5.818814635276794 l-0.8166757225990295, 1.32709801197052 -0.20416893064975739, 1.020844653248787 l0.0, 1.2250135838985443 0.40833786129951477, 1.8375203013420105 l1.32709801197052, 1.8375203013420105 2.7562806010246277, 1.633351445198059 l1.1229290813207626, 0.0 0.5104223266243935, -0.3062533959746361 l0.7145912200212479, -1.1229290813207626 0.40833786129951477, -2.4500271677970886 l-0.9187601506710052, -2.4500271677970886 -1.7354358732700348, -1.4291824400424957 l-2.4500271677970886, -1.020844653248787 -2.5521114468574524, 0.20416893064975739 l-1.32709801197052, 1.32709801197052 m11.433459520339966, 4.083378612995148 l0.3062533959746361, 0.40833786129951477 3.368787169456482, 1.633351445198059 l4.389632046222687, 1.32709801197052 m-7.043827772140503, -5.410476326942444 l9.698023796081543, 1.1229290813207626 3.1646183133125305, 0.7145912200212479 m-12.658473253250122, -5.512561202049255 l1.32709801197052, 0.3062533959746361 3.1646183133125305, -0.20416893064975739 l8.064672350883484, -1.1229290813207626 m-13.168895244598389, -0.9187601506710052 l1.9396047294139862, -3.368787169456482 1.633351445198059, -4.79796975851059 l0.7145912200212479, -0.9187601506710052 m-7.247996926307678, 10.106362104415894 l-0.10208446532487869, 0.8166757225990295 -0.9187601506710052, 0.0 l-1.32709801197052, -0.8166757225990295 -2.4500271677970886, -2.5521114468574524 l-2.2458581626415253, -3.675040602684021 m-0.5104223266243935, 6.227152347564697 l-4.79796975851059, -0.9187601506710052 -6.533405780792236, -0.8166757225990295 m6.941743493080139, 5.920898914337158 l-1.8375203013420105, 1.020844653248787 -6.022983193397522, 0.8166757225990295 " fill="none" stroke="black" stroke-width="1" /></svg>