<?xml version="1.0" encoding="utf-8" ?>
<svg baseProfile="full" height="44.19829476624727" version="1.1" width="66.14645417779684" xmlns="http://www.w3.org/2000/svg" xmlns:ev="http://www.w3.org/2001/xml-events" xmlns:xlink="http://www.w3.org/1999/xlink"><defs /><rect fill="white" height="44.19829476624727" width="66.14645417779684" x="0" y="0" /><path d="M24.498130977153778, 21.63976613432169 m-0.9187601506710052, -0.3062533959746361 l-3.7771251797676086, 0.10208446532487869 -6.737574338912964, 1.633351445198059 l-2.1437737345695496, 1.2250135838985443 -0.6125067919492722, 0.7145912200212479 l-0.8166757225990295, 1.7354358732700348 -0.20416893064975739, 1.633351445198059 l0.3062533959746361, 3.675040602684021 0.5104223266243935, 1.2250135838985443 l1.7354358732700348, 1.7354358732700348 1.5312670171260834, 0.7145912200212479 l2.347942590713501, 0.5104223266243935 5.716729760169983, 0.10208446532487869 l2.4500271677970886, -0.3062533959746361 3.98129403591156, -1.5312670171260834 l2.7562806010246277, -2.2458581626415253 0.9187601506710052, -1.5312670171260834 l1.1229290813207626, -3.368787169456482 0.10208446532487869, -3.7771251797676086 l-1.7354358732700348, -1.9396047294139862 -2.347942590713501, -1.020844653248787 l-1.5312670171260834, -0.20416893064975739 -3.1646183133125305, 0.20416893064975739 l-3.4708717465400696, 1.9396047294139862 m1.9396047294139862, -1.32709801197052 l-0.40833786129951477, 0.6125067919492722 -3.368787169456482, 12.556389570236206 l-0.7145912200212479, 1.2250135838985443 m-8.26884150505066, -6.941743493080139 l0.7145912200212479, 0.40833786129951477 5.104222893714905, 0.40833786129951477 l12.964726686477661, -0.20416893064975739 m24.90860939025879, -4.695885181427002 l-0.10208446532487869, -0.7145912200212479 -1.2250135838985443, -0.40833786129951477 l-3.7771251797676086, -0.10208446532487869 -2.960449457168579, 1.7354358732700348 l-4.1854628920555115, 4.389632046222687 -1.9396047294139862, 2.5521114468574524 l-2.65419602394104, 4.389632046222687 -0.7145912200212479, 2.7562806010246277 l6.839659214019775, 0.0 10.718868970870972, -1.5312670171260834 l3.0625340342521667, -0.9187601506710052 1.020844653248787, -0.9187601506710052 l0.9187601506710052, -1.1229290813207626 2.2458581626415253, -4.4917163252830505 l0.5104223266243935, -2.4500271677970886 -0.3062533959746361, -3.266702890396118 l-1.2250135838985443, -1.633351445198059 -2.4500271677970886, -1.020844653248787 l-4.900054335594177, 0.20416893064975739 -2.65419602394104, 1.020844653248787 m0.3062533959746361, -2.347942590713501 l0.0, 15.721007585525513 -0.5104223266243935, 2.041689306497574 m-8.983432650566101, -4.79796975851059 l1.4291824400424957, -1.2250135838985443 3.4708717465400696, -1.1229290813207626 l3.5729563236236572, -0.6125067919492722 6.431320905685425, -0.40833786129951477 l2.7562806010246277, -0.6125067919492722 0.5104223266243935, -0.20416893064975739 l0.0, -0.40833786129951477 m-26.5419602394104, -7.656334638595581 l3.266702890396118, 1.5312670171260834 8.575094938278198, 2.041689306497574 l1.633351445198059, 0.8166757225990295 m-7.1459126472473145, -5.002138614654541 l-0.40833786129951477, -0.6125067919492722 -0.5104223266243935, -14.189740419387817 l-0.5104223266243935, 0.40833786129951477 -17.354358434677124, 3.1646183133125305 l-3.1646183133125305, 1.020844653248787 -5.104222893714905, 0.40833786129951477 l-0.20416893064975739, -0.5104223266243935 0.5104223266243935, -0.40833786129951477 l-2.041689306497574, -1.2250135838985443 -2.347942590713501, -2.347942590713501 l-2.2458581626415253, -1.5312670171260834 0.8166757225990295, 0.10208446532487869 " fill="none" stroke="black" stroke-width="1" /></svg>