<?xml version="1.0" encoding="utf-8" ?>
<svg baseProfile="full" height="54.81507956981659" version="1.1" width="59.71513297408819" xmlns="http://www.w3.org/2000/svg" xmlns:ev="http://www.w3.org/2001/xml-events" xmlns:xlink="http://www.w3.org/1999/xlink"><defs /><rect fill="white" height="54.81507956981659" width="59.71513297408819" x="0" y="0" /><path d="M8.777125217020512, 32.25655201822519 m-1.2250135838985443, 1.020844653248787 l-2.041689306497574, 4.4917163252830505 -0.5104223266243935, 2.4500271677970886 l0.40833786129951477, 1.8375203013420105 2.041689306497574, 4.4917163252830505 l1.020844653248787, 1.4291824400424957 1.9396047294139862, 1.32709801197052 l1.2250135838985443, 0.5104223266243935 1.020844653248787, 0.0 l2.8583648800849915, -1.32709801197052 5.104222893714905, -5.512561202049255 l1.2250135838985443, -3.368787169456482 -0.10208446532487869, -3.266702890396118 l-1.1229290813207626, -2.65419602394104 -1.8375203013420105, -0.5104223266243935 l-2.7562806010246277, -2.1437737345695496 -2.4500271677970886, -0.40833786129951477 l-2.347942590713501, 0.20416893064975739 -2.1437737345695496, 0.9187601506710052 l-0.3062533959746361, 0.7145912200212479 m4.695885181427002, 7.043827772140503 l-0.5104223266243935, 0.40833786129951477 -0.3062533959746361, 1.020844653248787 l0.5104223266243935, 0.10208446532487869 0.40833786129951477, -0.5104223266243935 l-0.9187601506710052, -0.40833786129951477 m31.237845420837402, -4.083378612995148 l-0.3062533959746361, 2.347942590713501 0.20416893064975739, 2.2458581626415253 l3.266702890396118, 3.0625340342521667 1.2250135838985443, 0.3062533959746361 l2.7562806010246277, -0.8166757225990295 1.7354358732700348, -1.32709801197052 l1.8375203013420105, -4.695885181427002 0.10208446532487869, -3.5729563236236572 l-0.6125067919492722, -1.4291824400424957 -0.9187601506710052, -1.1229290813207626 l-2.1437737345695496, -1.8375203013420105 -1.7354358732700348, -0.6125067919492722 l-5.002138614654541, -0.3062533959746361 -1.8375203013420105, 1.633351445198059 l-0.7145912200212479, 1.32709801197052 0.0, 3.4708717465400696 l1.1229290813207626, 3.4708717465400696 m6.227152347564697, -1.1229290813207626 l-0.40833786129951477, -1.7354358732700348 -0.40833786129951477, 0.5104223266243935 l0.20416893064975739, 1.1229290813207626 0.5104223266243935, 0.20416893064975739 l-0.20416893064975739, -1.1229290813207626 -0.7145912200212479, -0.3062533959746361 m-36.03581666946411, -6.022983193397522 l-0.10208446532487869, -8.166757225990295 0.3062533959746361, 0.8166757225990295 l3.4708717465400696, 1.1229290813207626 9.698023796081543, 0.3062533959746361 l3.98129403591156, -0.10208446532487869 16.94602131843567, -2.2458581626415253 l0.5104223266243935, 6.6354900598526 0.3062533959746361, -0.6125067919492722 l-0.3062533959746361, -0.6125067919492722 -0.20416893064975739, -6.941743493080139 l-0.10208446532487869, 0.5104223266243935 2.1437737345695496, -2.4500271677970886 l2.2458581626415253, -1.8375203013420105 -1.4291824400424957, -2.8583648800849915 l-1.1229290813207626, -4.695885181427002 -0.10208446532487869, -3.5729563236236572 m-1.32709801197052, 14.700162410736084 l-2.4500271677970886, -1.2250135838985443 -3.98129403591156, -0.7145912200212479 l0.0, -0.8166757225990295 -0.9187601506710052, -2.5521114468574524 l-0.5104223266243935, -6.1250680685043335 -0.5104223266243935, -1.7354358732700348 m-14.700162410736084, 17.966865301132202 l0.40833786129951477, -1.4291824400424957 -0.3062533959746361, -3.0625340342521667 l-2.347942590713501, -0.3062533959746361 -1.020844653248787, 0.8166757225990295 l0.5104223266243935, 0.40833786129951477 2.7562806010246277, -0.10208446532487869 l1.2250135838985443, -1.020844653248787 -0.20416893064975739, -0.6125067919492722 l-1.5312670171260834, 0.0 -1.633351445198059, 0.5104223266243935 l0.10208446532487869, 0.6125067919492722 0.3062533959746361, 0.10208446532487869 " fill="none" stroke="black" stroke-width="1" /></svg>