<?xml version="1.0" encoding="utf-8" ?>
<svg baseProfile="full" height="43.381619565188885" version="1.1" width="55.01924812793732" xmlns="http://www.w3.org/2000/svg" xmlns:ev="http://www.w3.org/2001/xml-events" xmlns:xlink="http://www.w3.org/1999/xlink"><defs /><rect fill="white" height="43.381619565188885" width="55.01924812793732" x="0" y="0" /><path d="M42.46499810367823, 17.045967131853104 m-1.1229290813207626, 0.20416893064975739 l-2.960449457168579, 1.4291824400424957 -1.633351445198059, 1.5312670171260834 l-1.633351445198059, 2.347942590713501 -1.020844653248787, 5.104222893714905 l0.40833786129951477, 4.083378612995148 0.5104223266243935, 1.4291824400424957 l1.633351445198059, 2.347942590713501 2.8583648800849915, 1.8375203013420105 l2.2458581626415253, 0.3062533959746361 3.1646183133125305, -0.8166757225990295 l1.9396047294139862, -1.1229290813207626 1.32709801197052, -1.633351445198059 l1.2250135838985443, -2.2458581626415253 0.6125067919492722, -2.347942590713501 l0.0, -2.1437737345695496 -0.6125067919492722, -2.1437737345695496 l-1.020844653248787, -2.2458581626415253 -2.1437737345695496, -2.7562806010246277 l-1.9396047294139862, -1.4291824400424957 -3.8792094588279724, -1.7354358732700348 l-2.4500271677970886, -0.40833786129951477 -2.7562806010246277, 0.40833786129951477 m-19.498132467269897, 0.3062533959746361 l-2.1437737345695496, 0.10208446532487869 -2.2458581626415253, 0.9187601506710052 l-2.347942590713501, 2.041689306497574 -1.7354358732700348, 2.2458581626415253 l-1.4291824400424957, 2.7562806010246277 -0.8166757225990295, 6.022983193397522 l0.10208446532487869, 1.5312670171260834 0.7145912200212479, 2.347942590713501 l1.32709801197052, 2.1437737345695496 2.041689306497574, 0.9187601506710052 l1.8375203013420105, 0.0 2.7562806010246277, -0.7145912200212479 l2.960449457168579, -1.5312670171260834 2.347942590713501, -1.7354358732700348 l2.7562806010246277, -3.1646183133125305 1.4291824400424957, -3.7771251797676086 l0.0, -3.98129403591156 -0.7145912200212479, -1.8375203013420105 l-1.1229290813207626, -1.7354358732700348 -2.347942590713501, -2.041689306497574 l-2.7562806010246277, -1.5312670171260834 -3.675040602684021, -1.2250135838985443 m4.79796975851059, -9.28968608379364 l3.8792094588279724, 1.32709801197052 1.7354358732700348, -0.3062533959746361 l0.20416893064975739, -0.5104223266243935 -1.32709801197052, -0.8166757225990295 l-2.347942590713501, -0.5104223266243935 -2.5521114468574524, 0.0 l-2.347942590713501, 0.6125067919492722 -0.6125067919492722, 0.40833786129951477 l0.5104223266243935, 0.6125067919492722 2.7562806010246277, 0.8166757225990295 l2.4500271677970886, 0.3062533959746361 2.347942590713501, -0.20416893064975739 l-1.8375203013420105, -0.6125067919492722 -2.2458581626415253, -0.40833786129951477 l-3.266702890396118, 0.0 2.7562806010246277, 0.5104223266243935 l6.227152347564697, 0.10208446532487869 0.6125067919492722, -0.10208446532487869 l-5.512561202049255, -1.1229290813207626 -2.4500271677970886, 0.10208446532487869 l3.7771251797676086, 0.5104223266243935 2.65419602394104, -0.10208446532487869 l-1.4291824400424957, -0.20416893064975739 m-1.9396047294139862, 2.65419602394104 l-0.3062533959746361, 1.2250135838985443 1.020844653248787, 2.4500271677970886 " fill="none" stroke="black" stroke-width="1" /></svg>