<?xml version="1.0" encoding="utf-8" ?>
<svg baseProfile="full" height="48.48584312945604" version="1.1" width="79.72369067370892" xmlns="http://www.w3.org/2000/svg" xmlns:ev="http://www.w3.org/2001/xml-events" xmlns:xlink="http://www.w3.org/1999/xlink"><defs /><rect fill="white" height="48.48584312945604" width="79.72369067370892" x="0" y="0" /><path d="M6.837517395615578, 23.477288372814655 m5.512561202049255, 0.0 l6.431320905685425, -0.6125067919492722 3.4708717465400696, 0.0 l7.656334638595581, -1.32709801197052 4.389632046222687, -0.3062533959746361 l7.1459126472473145, -1.1229290813207626 12.148051261901855, 0.0 l7.4521660804748535, -0.9187601506710052 0.20416893064975739, 7.656334638595581 l0.6125067919492722, 1.8375203013420105 0.20416893064975739, 1.9396047294139862 l-2.8583648800849915, -1.4291824400424957 m-52.369327545166016, -6.022983193397522 l1.2250135838985443, 2.041689306497574 0.8166757225990295, 3.368787169456482 l0.8166757225990295, 1.1229290813207626 -1.9396047294139862, 0.40833786129951477 l-1.4291824400424957, 0.8166757225990295 -1.32709801197052, 1.633351445198059 l0.10208446532487869, 4.287547469139099 1.2250135838985443, 2.1437737345695496 l1.9396047294139862, 1.9396047294139862 3.266702890396118, 2.041689306497574 l3.266702890396118, 0.5104223266243935 1.1229290813207626, -1.020844653248787 l0.8166757225990295, -1.8375203013420105 0.3062533959746361, -3.368787169456482 l-1.1229290813207626, -1.9396047294139862 -3.0625340342521667, -3.1646183133125305 l-2.347942590713501, -0.8166757225990295 -1.5312670171260834, 0.10208446532487869 m2.041689306497574, 4.287547469139099 l2.8583648800849915, 2.1437737345695496 0.8166757225990295, 0.40833786129951477 l-0.6125067919492722, -0.6125067919492722 -0.8166757225990295, -0.20416893064975739 m49.00054454803467, -8.473010659217834 l-1.32709801197052, 0.7145912200212479 -1.8375203013420105, 1.9396047294139862 l-0.8166757225990295, 1.4291824400424957 -0.10208446532487869, 1.1229290813207626 l0.10208446532487869, 2.347942590713501 1.2250135838985443, 2.347942590713501 l1.2250135838985443, 1.2250135838985443 1.32709801197052, 0.5104223266243935 l6.6354900598526, 1.32709801197052 3.266702890396118, -0.10208446532487869 l1.5312670171260834, -1.020844653248787 0.8166757225990295, -1.5312670171260834 l0.40833786129951477, -4.389632046222687 -2.4500271677970886, -2.65419602394104 l-7.4521660804748535, -4.4917163252830505 -1.1229290813207626, -0.5104223266243935 l-1.5312670171260834, 0.0 -2.1437737345695496, 0.9187601506710052 m3.5729563236236572, 6.227152347564697 l0.3062533959746361, 1.32709801197052 0.5104223266243935, 0.40833786129951477 l2.1437737345695496, 0.5104223266243935 0.0, -0.7145912200212479 l-1.4291824400424957, -1.5312670171260834 -1.8375203013420105, -0.9187601506710052 m-2.5521114468574524, -14.598078727722168 l0.0, -2.2458581626415253 -1.7354358732700348, -4.4917163252830505 l-7.96258807182312, -2.2458581626415253 m7.758418917655945, 2.041689306497574 l1.020844653248787, -1.1229290813207626 3.98129403591156, -2.8583648800849915 l2.5521114468574524, -1.020844653248787 3.1646183133125305, -1.9396047294139862 " fill="none" stroke="black" stroke-width="1" /></svg>