<?xml version="1.0" encoding="utf-8" ?>
<svg baseProfile="full" height="41.748268865048885" version="1.1" width="49.915023893117905" xmlns="http://www.w3.org/2000/svg" xmlns:ev="http://www.w3.org/2001/xml-events" xmlns:xlink="http://www.w3.org/1999/xlink"><defs /><rect fill="white" height="41.748268865048885" width="49.915023893117905" x="0" y="0" /><path d="M11.329236663877964, 18.985571675002575 m-3.675040602684021, 0.3062533959746361 l-1.020844653248787, 0.3062533959746361 -1.32709801197052, 1.020844653248787 l-0.3062533959746361, 1.1229290813207626 0.3062533959746361, 3.0625340342521667 l1.7354358732700348, 2.8583648800849915 1.5312670171260834, 1.633351445198059 l2.65419602394104, 2.347942590713501 2.1437737345695496, 1.32709801197052 l3.4708717465400696, 1.2250135838985443 1.1229290813207626, -0.20416893064975739 l1.4291824400424957, -1.1229290813207626 0.6125067919492722, -1.8375203013420105 l0.10208446532487869, -4.1854628920555115 -0.3062533959746361, -2.347942590713501 l-0.9187601506710052, -2.5521114468574524 -1.7354358732700348, -1.4291824400424957 l-4.389632046222687, -1.8375203013420105 -1.633351445198059, -0.20416893064975739 m26.337790489196777, 4.695885181427002 l-3.675040602684021, 0.0 -1.5312670171260834, 1.020844653248787 l-1.1229290813207626, 2.041689306497574 0.20416893064975739, 2.960449457168579 l2.041689306497574, 3.266702890396118 2.347942590713501, 2.1437737345695496 l2.65419602394104, 1.5312670171260834 3.675040602684021, 0.6125067919492722 l0.7145912200212479, -0.10208446532487869 1.2250135838985443, -0.9187601506710052 l0.5104223266243935, -0.6125067919492722 0.40833786129951477, -1.633351445198059 l0.0, -3.266702890396118 -1.9396047294139862, -3.0625340342521667 l-1.5312670171260834, -1.2250135838985443 -2.347942590713501, -2.7562806010246277 l-2.1437737345695496, -0.40833786129951477 m-24.500272274017334, 1.4291824400424957 l5.104222893714905, -9.59593951702118 3.5729563236236572, -0.20416893064975739 l11.943882703781128, 1.7354358732700348 0.5104223266243935, 1.9396047294139862 l2.8583648800849915, 5.920898914337158 0.6125067919492722, 2.1437737345695496 l-0.20416893064975739, 0.3062533959746361 m-19.60021734237671, -12.454304695129395 l-0.20416893064975739, -8.473010659217834 m-1.8375203013420105, 0.0 l5.614645481109619, -0.5104223266243935 " fill="none" stroke="black" stroke-width="1" /></svg>