<?xml version="1.0" encoding="utf-8" ?>
<svg baseProfile="full" height="34.602356255054474" version="1.1" width="51.95671487599611" xmlns="http://www.w3.org/2000/svg" xmlns:ev="http://www.w3.org/2001/xml-events" xmlns:xlink="http://www.w3.org/1999/xlink"><defs /><rect fill="white" height="34.602356255054474" width="51.95671487599611" x="0" y="0" /><path d="M42.26082965731621, 15.616784803569317 m-0.6125067919492722, -0.9187601506710052 l-1.9396047294139862, 0.10208446532487869 -2.65419602394104, 0.8166757225990295 l-2.2458581626415253, 1.2250135838985443 -1.1229290813207626, 0.8166757225990295 l-1.5312670171260834, 1.8375203013420105 -1.020844653248787, 1.8375203013420105 l-0.5104223266243935, 1.7354358732700348 0.20416893064975739, 2.960449457168579 l1.7354358732700348, 2.65419602394104 1.8375203013420105, 0.9187601506710052 l4.593800902366638, 0.0 2.5521114468574524, -0.8166757225990295 l3.4708717465400696, -2.2458581626415253 1.32709801197052, -1.5312670171260834 l0.6125067919492722, -1.8375203013420105 0.0, -1.1229290813207626 l-0.5104223266243935, -1.32709801197052 -2.2458581626415253, -2.2458581626415253 l-2.65419602394104, -1.2250135838985443 -3.675040602684021, -0.7145912200212479 m-19.498132467269897, 5.104222893714905 l1.4291824400424957, -2.041689306497574 -0.3062533959746361, -1.32709801197052 l-1.020844653248787, -0.8166757225990295 -1.32709801197052, -0.40833786129951477 l-3.8792094588279724, 0.10208446532487869 -1.9396047294139862, 0.7145912200212479 l-2.347942590713501, 1.5312670171260834 -2.1437737345695496, 3.368787169456482 l0.10208446532487869, 2.65419602394104 1.1229290813207626, 1.8375203013420105 l1.020844653248787, 0.7145912200212479 1.4291824400424957, 0.7145912200212479 l1.8375203013420105, 0.40833786129951477 2.1437737345695496, -0.10208446532487869 l4.695885181427002, -1.32709801197052 4.695885181427002, -2.7562806010246277 l1.32709801197052, -1.2250135838985443 0.6125067919492722, -1.2250135838985443 m7.4521660804748535, -3.266702890396118 l-7.656334638595581, 2.5521114468574524 -1.7354358732700348, 1.020844653248787 l-0.7145912200212479, 0.8166757225990295 m-4.389632046222687, -7.4521660804748535 l0.10208446532487869, 0.5104223266243935 0.6125067919492722, 0.40833786129951477 l4.900054335594177, 2.7562806010246277 3.368787169456482, 1.32709801197052 l4.79796975851059, 1.32709801197052 m-11.02512240409851, -3.368787169456482 l-0.9187601506710052, -4.900054335594177 0.3062533959746361, -1.9396047294139862 m0.7145912200212479, -2.65419602394104 l1.2250135838985443, -0.20416893064975739 0.5104223266243935, -0.40833786129951477 l0.0, -0.5104223266243935 -0.5104223266243935, -0.40833786129951477 l-2.1437737345695496, 0.40833786129951477 -1.32709801197052, 1.5312670171260834 l-0.10208446532487869, 1.4291824400424957 0.40833786129951477, 0.5104223266243935 l1.1229290813207626, 0.0 1.2250135838985443, -0.7145912200212479 l0.40833786129951477, -0.5104223266243935 -0.3062533959746361, 0.0 m-10.718868970870972, 4.593800902366638 l-2.041689306497574, 0.10208446532487869 -2.041689306497574, -0.6125067919492722 l-1.7354358732700348, -1.9396047294139862 -0.6125067919492722, -2.347942590713501 l0.6125067919492722, -2.2458581626415253 0.8166757225990295, -1.1229290813207626 l2.5521114468574524, -2.041689306497574 1.1229290813207626, -0.10208446532487869 " fill="none" stroke="black" stroke-width="1" /></svg>