<?xml version="1.0" encoding="utf-8" ?>
<svg baseProfile="full" height="21.127206310629845" version="1.1" width="35.01069340854883" xmlns="http://www.w3.org/2000/svg" xmlns:ev="http://www.w3.org/2001/xml-events" xmlns:xlink="http://www.w3.org/1999/xlink"><defs /><rect fill="white" height="21.127206310629845" width="35.01069340854883" x="0" y="0" /><path d="M7.245858199894428, 7.450027242302895 m-1.7354358732700348, 1.4291824400424957 l-0.5104223266243935, 2.7562806010246277 0.6125067919492722, 1.9396047294139862 l1.020844653248787, 1.32709801197052 1.2250135838985443, 0.8166757225990295 l3.1646183133125305, 0.20416893064975739 1.2250135838985443, -0.6125067919492722 l0.9187601506710052, -1.2250135838985443 0.5104223266243935, -1.4291824400424957 l-0.10208446532487869, -3.266702890396118 -1.7354358732700348, -2.041689306497574 l-1.9396047294139862, -1.1229290813207626 -2.1437737345695496, -0.20416893064975739 l-0.8166757225990295, 0.6125067919492722 m5.410476326942444, 0.10208446532487869 l0.9187601506710052, -0.3062533959746361 9.59593951702118, 0.0 m-1.32709801197052, 1.4291824400424957 l-0.8166757225990295, 2.041689306497574 0.20416893064975739, 3.266702890396118 l1.8375203013420105, 1.9396047294139862 3.7771251797676086, 0.40833786129951477 l2.7562806010246277, -1.7354358732700348 0.6125067919492722, -1.5312670171260834 l0.10208446532487869, -1.633351445198059 -2.041689306497574, -3.675040602684021 l-1.32709801197052, -1.2250135838985443 -1.9396047294139862, -0.7145912200212479 l-2.2458581626415253, 0.0 -1.8375203013420105, 1.32709801197052 l-1.1229290813207626, 2.1437737345695496 m4.900054335594177, -2.347942590713501 l-0.3062533959746361, 1.1229290813207626 0.0, 5.410476326942444 l0.10208446532487869, 1.633351445198059 0.6125067919492722, 1.8375203013420105 m-4.79796975851059, -5.104222893714905 l9.085517525672913, 0.0 m-20.314807891845703, -2.2458581626415253 l-0.10208446532487869, 2.8583648800849915 0.7145912200212479, 3.98129403591156 m-4.287547469139099, -4.287547469139099 l4.900054335594177, -0.20416893064975739 3.5729563236236572, 0.3062533959746361 m-1.7354358732700348, -2.5521114468574524 l-3.8792094588279724, 4.900054335594177 m-1.4291824400424957, -5.920898914337158 l1.020844653248787, 1.32709801197052 5.104222893714905, 4.593800902366638 m13.475148677825928, -5.716729760169983 l-0.9187601506710052, 0.9187601506710052 -2.65419602394104, 4.083378612995148 m-1.7354358732700348, -4.389632046222687 l7.554250359535217, 6.839659214019775 " fill="none" stroke="black" stroke-width="1" /></svg>