<?xml version="1.0" encoding="utf-8" ?>
<svg baseProfile="full" height="39.91074785590172" version="1.1" width="55.73383845388889" xmlns="http://www.w3.org/2000/svg" xmlns:ev="http://www.w3.org/2001/xml-events" xmlns:xlink="http://www.w3.org/1999/xlink"><defs /><rect fill="white" height="39.91074785590172" width="55.73383845388889" x="0" y="0" /><path d="M12.554250322282314, 18.57723381370306 m-2.7562806010246277, 0.7145912200212479 l-2.1437737345695496, 1.9396047294139862 -2.347942590713501, 3.675040602684021 l-0.3062533959746361, 3.0625340342521667 1.020844653248787, 2.347942590713501 l1.8375203013420105, 2.2458581626415253 1.8375203013420105, 1.32709801197052 l1.9396047294139862, 0.8166757225990295 3.266702890396118, 0.20416893064975739 l1.633351445198059, -0.3062533959746361 4.1854628920555115, -1.9396047294139862 l2.4500271677970886, -1.9396047294139862 0.40833786129951477, -1.1229290813207626 l0.0, -2.2458581626415253 -0.5104223266243935, -2.4500271677970886 l-1.1229290813207626, -2.041689306497574 -3.0625340342521667, -2.5521114468574524 l-2.960449457168579, -0.7145912200212479 -3.1646183133125305, -0.3062533959746361 m33.48370313644409, 2.2458581626415253 l-4.1854628920555115, 0.0 -1.2250135838985443, 0.3062533959746361 l-2.041689306497574, 1.1229290813207626 -1.5312670171260834, 1.7354358732700348 l-1.2250135838985443, 2.8583648800849915 -0.10208446532487869, 1.9396047294139862 l0.9187601506710052, 2.65419602394104 1.8375203013420105, 1.7354358732700348 l3.1646183133125305, 1.020844653248787 1.5312670171260834, 0.0 l1.8375203013420105, -0.5104223266243935 2.960449457168579, -2.041689306497574 l1.7354358732700348, -2.2458581626415253 0.40833786129951477, -1.1229290813207626 l0.40833786129951477, -2.5521114468574524 0.0, -2.960449457168579 l-0.6125067919492722, -1.633351445198059 -0.5104223266243935, -0.5104223266243935 l-2.2458581626415253, -1.020844653248787 -3.4708717465400696, -0.40833786129951477 l-1.32709801197052, 0.3062533959746361 -0.8166757225990295, 0.6125067919492722 m-0.6125067919492722, 1.9396047294139862 l-0.20416893064975739, -5.716729760169983 -0.10208446532487869, -0.5104223266243935 l-0.5104223266243935, -0.10208446532487869 -5.920898914337158, 0.20416893064975739 l-8.26884150505066, -1.2250135838985443 -6.227152347564697, -1.32709801197052 l-2.5521114468574524, 5.002138614654541 m2.2458581626415253, -4.287547469139099 l1.633351445198059, -9.493855237960815 -0.5104223266243935, -0.3062533959746361 l-1.020844653248787, 0.10208446532487869 -0.8166757225990295, 0.9187601506710052 l-0.20416893064975739, 4.287547469139099 0.20416893064975739, -4.79796975851059 l5.002138614654541, 0.10208446532487869 1.7354358732700348, 0.40833786129951477 l1.32709801197052, 0.8166757225990295 m-15.823091268539429, 15.210585594177246 l1.9396047294139862, 2.2458581626415253 2.041689306497574, 3.8792094588279724 l2.1437737345695496, 2.8583648800849915 m-7.350081205368042, -1.8375203013420105 l9.800108671188354, -5.920898914337158 m-5.716729760169983, -4.389632046222687 l0.0, 7.350081205368042 -0.40833786129951477, 4.287547469139099 m-6.431320905685425, -5.716729760169983 l11.739712953567505, 1.7354358732700348 3.368787169456482, 1.020844653248787 " fill="none" stroke="black" stroke-width="1" /></svg>