<?xml version="1.0" encoding="utf-8" ?>
<svg baseProfile="full" height="23.066811002790928" version="1.1" width="31.131484359502792" xmlns="http://www.w3.org/2000/svg" xmlns:ev="http://www.w3.org/2001/xml-events" xmlns:xlink="http://www.w3.org/1999/xlink"><defs /><rect fill="white" height="23.066811002790928" width="31.131484359502792" x="0" y="0" /><path d="M8.77712607383728, 12.247996628284454 m-1.32709801197052, -0.10208446532487869 l-0.6125067919492722, 0.5104223266243935 -0.3062533959746361, 1.5312670171260834 l0.3062533959746361, 2.5521114468574524 1.4291824400424957, 1.2250135838985443 l2.2458581626415253, 0.10208446532487869 0.8166757225990295, -0.40833786129951477 l0.8166757225990295, -1.020844653248787 0.0, -1.8375203013420105 l-0.7145912200212479, -0.9187601506710052 -1.32709801197052, -1.2250135838985443 l-1.8375203013420105, -0.5104223266243935 m1.8375203013420105, 1.2250135838985443 l-0.7145912200212479, 2.041689306497574 -0.9187601506710052, 1.2250135838985443 l-0.6125067919492722, 0.20416893064975739 m-1.020844653248787, -4.083378612995148 l1.1229290813207626, 1.32709801197052 2.5521114468574524, 1.32709801197052 m0.9187601506710052, 0.10208446532487869 l5.716729760169983, 0.20416893064975739 3.368787169456482, -0.3062533959746361 l0.6125067919492722, -0.3062533959746361 m-0.6125067919492722, -0.10208446532487869 l0.5104223266243935, 1.32709801197052 1.8375203013420105, 1.32709801197052 l2.1437737345695496, 0.3062533959746361 0.8166757225990295, -0.20416893064975739 l0.3062533959746361, -0.8166757225990295 -0.40833786129951477, -1.633351445198059 l-0.8166757225990295, -0.7145912200212479 -1.9396047294139862, -0.7145912200212479 l-2.1437737345695496, -0.10208446532487869 m3.8792094588279724, 0.10208446532487869 l-0.7145912200212479, 0.6125067919492722 -1.020844653248787, 2.7562806010246277 l-0.3062533959746361, 0.10208446532487869 m-1.7354358732700348, -3.266702890396118 l1.633351445198059, 0.6125067919492722 1.5312670171260834, 1.32709801197052 l1.2250135838985443, 0.5104223266243935 m-3.0625340342521667, -0.3062533959746361 l2.960449457168579, -0.20416893064975739 0.6125067919492722, -0.3062533959746361 m-16.843936443328857, -3.675040602684021 l-0.8166757225990295, -6.737574338912964 -0.5104223266243935, -0.3062533959746361 l4.1854628920555115, 0.40833786129951477 -6.1250680685043335, 0.20416893064975739 l-0.7145912200212479, -0.40833786129951477 m16.843936443328857, 8.064672350883484 l-1.020844653248787, -4.593800902366638 " fill="none" stroke="black" stroke-width="1" /></svg>