<?xml version="1.0" encoding="utf-8" ?>
<svg baseProfile="full" height="46.34206868708134" version="1.1" width="73.19028358906507" xmlns="http://www.w3.org/2000/svg" xmlns:ev="http://www.w3.org/2001/xml-events" xmlns:xlink="http://www.w3.org/1999/xlink"><defs /><rect fill="white" height="46.34206868708134" width="73.19028358906507" x="0" y="0" /><path d="M22.45644334703684, 21.435598246753216 m-0.20416893064975739, -0.5104223266243935 l-3.8792094588279724, 0.10208446532487869 -3.8792094588279724, 1.5312670171260834 l-3.4708717465400696, 2.7562806010246277 -2.041689306497574, 3.7771251797676086 l-0.40833786129951477, 1.8375203013420105 -0.10208446532487869, 4.287547469139099 l1.020844653248787, 2.1437737345695496 3.368787169456482, 2.8583648800849915 l2.1437737345695496, 0.8166757225990295 2.347942590713501, 0.3062533959746361 l5.512561202049255, -0.3062533959746361 5.206307768821716, -2.2458581626415253 l2.1437737345695496, -1.5312670171260834 1.633351445198059, -1.7354358732700348 l1.9396047294139862, -3.368787169456482 0.20416893064975739, -3.7771251797676086 l-0.40833786129951477, -1.8375203013420105 -1.020844653248787, -1.633351445198059 l-1.4291824400424957, -1.4291824400424957 -3.368787169456482, -1.8375203013420105 l-1.9396047294139862, -0.40833786129951477 -3.98129403591156, -0.20416893064975739 l-1.8375203013420105, 0.40833786129951477 -1.4291824400424957, 0.9187601506710052 m5.818814635276794, 5.512561202049255 l-0.7145912200212479, -0.9187601506710052 -1.2250135838985443, -0.40833786129951477 l-1.020844653248787, 0.10208446532487869 -1.5312670171260834, 0.8166757225990295 l-1.32709801197052, 1.2250135838985443 -1.2250135838985443, 1.7354358732700348 l-1.020844653248787, 2.960449457168579 0.20416893064975739, 2.4500271677970886 l0.7145912200212479, 0.40833786129951477 1.32709801197052, 0.0 l1.7354358732700348, -0.5104223266243935 2.5521114468574524, -2.347942590713501 l0.6125067919492722, -1.2250135838985443 0.3062533959746361, -1.1229290813207626 l-0.3062533959746361, -2.1437737345695496 -0.6125067919492722, -0.9187601506710052 l-1.8375203013420105, -1.2250135838985443 m10.61678409576416, -2.65419602394104 l2.4500271677970886, 0.3062533959746361 9.698023796081543, -0.10208446532487869 l4.389632046222687, 0.9187601506710052 1.1229290813207626, -0.10208446532487869 m9.59593951702118, 0.20416893064975739 l-0.5104223266243935, -1.7354358732700348 -1.4291824400424957, -1.1229290813207626 l-2.7562806010246277, -0.3062533959746361 -1.7354358732700348, 0.3062533959746361 l-2.041689306497574, 1.32709801197052 -1.8375203013420105, 2.1437737345695496 l-1.8375203013420105, 3.1646183133125305 -1.2250135838985443, 3.266702890396118 l-0.40833786129951477, 2.960449457168579 0.10208446532487869, 2.041689306497574 l1.020844653248787, 1.4291824400424957 2.1437737345695496, 1.1229290813207626 l2.7562806010246277, 0.5104223266243935 3.0625340342521667, 0.0 l3.4708717465400696, -0.6125067919492722 3.266702890396118, -1.1229290813207626 l2.8583648800849915, -1.5312670171260834 2.2458581626415253, -1.7354358732700348 l2.041689306497574, -3.266702890396118 0.10208446532487869, -1.8375203013420105 l-0.40833786129951477, -1.8375203013420105 -3.675040602684021, -3.1646183133125305 l-2.5521114468574524, -1.020844653248787 -6.227152347564697, -0.7145912200212479 l-3.1646183133125305, 0.3062533959746361 -2.960449457168579, 1.5312670171260834 m11.127206087112427, 6.6354900598526 l-0.20416893064975739, -1.020844653248787 -1.4291824400424957, -1.020844653248787 l-4.4917163252830505, 0.10208446532487869 -1.9396047294139862, 1.8375203013420105 l-0.20416893064975739, 1.9396047294139862 0.7145912200212479, 0.8166757225990295 l1.8375203013420105, 0.10208446532487869 3.266702890396118, -1.020844653248787 l0.7145912200212479, -0.9187601506710052 0.40833786129951477, -2.041689306497574 l-0.6125067919492722, -0.7145912200212479 m-38.2816743850708, -9.187601804733276 l-0.9187601506710052, -0.20416893064975739 0.3062533959746361, -2.2458581626415253 l-0.10208446532487869, -2.4500271677970886 -3.1646183133125305, -3.266702890396118 l-3.5729563236236572, -2.2458581626415253 -3.1646183133125305, -0.8166757225990295 l-3.7771251797676086, -0.20416893064975739 m0.6125067919492722, -4.4917163252830505 l-0.3062533959746361, 0.5104223266243935 -1.020844653248787, 8.370925784111023 l0.0, -2.347942590713501 1.8375203013420105, -6.431320905685425 l-1.5312670171260834, 8.166757225990295 " fill="none" stroke="black" stroke-width="1" /></svg>