<?xml version="1.0" encoding="utf-8" ?>
<svg baseProfile="full" height="51.54837630689144" version="1.1" width="54.71299432218075" xmlns="http://www.w3.org/2000/svg" xmlns:ev="http://www.w3.org/2001/xml-events" xmlns:xlink="http://www.w3.org/1999/xlink"><defs /><rect fill="white" height="51.54837630689144" width="54.71299432218075" x="0" y="0" /><path d="M7.041689306497574, 45.52753176540136 m-0.8166757225990295, -0.20416893064975739 l-0.8166757225990295, -1.32709801197052 -0.40833786129951477, -4.79796975851059 l1.2250135838985443, -2.960449457168579 1.2250135838985443, -1.2250135838985443 l3.0625340342521667, -0.9187601506710052 5.410476326942444, -0.10208446532487869 l1.32709801197052, 0.40833786129951477 0.9187601506710052, 0.7145912200212479 l0.5104223266243935, 0.9187601506710052 0.20416893064975739, 2.5521114468574524 l-0.40833786129951477, 1.8375203013420105 -1.020844653248787, 1.633351445198059 l-2.4500271677970886, 2.7562806010246277 -1.4291824400424957, 0.9187601506710052 l-2.4500271677970886, 0.8166757225990295 -2.8583648800849915, 0.0 l-1.5312670171260834, -1.1229290813207626 -0.40833786129951477, -0.5104223266243935 l-0.10208446532487869, -0.9187601506710052 m34.70871686935425, -2.041689306497574 l-1.4291824400424957, 0.3062533959746361 -1.4291824400424957, -0.6125067919492722 l-0.8166757225990295, -1.020844653248787 -0.40833786129951477, -1.32709801197052 l-0.10208446532487869, -2.8583648800849915 0.6125067919492722, -1.32709801197052 l2.041689306497574, -1.633351445198059 2.4500271677970886, -0.5104223266243935 l2.8583648800849915, 0.10208446532487869 1.2250135838985443, 0.40833786129951477 l2.041689306497574, 1.4291824400424957 0.8166757225990295, 1.020844653248787 l0.5104223266243935, 0.9187601506710052 0.40833786129951477, 2.041689306497574 l-0.10208446532487869, 1.32709801197052 -0.8166757225990295, 1.1229290813207626 l-2.4500271677970886, 1.7354358732700348 -1.633351445198059, 0.40833786129951477 l-3.368787169456482, 0.10208446532487869 -1.32709801197052, -0.20416893064975739 l-0.7145912200212479, -0.5104223266243935 m-26.644043922424316, -9.493855237960815 l-0.3062533959746361, -0.6125067919492722 0.0, -9.391770362854004 l0.3062533959746361, -4.1854628920555115 0.5104223266243935, -0.40833786129951477 l17.150189876556396, -1.633351445198059 11.637629270553589, -0.20416893064975739 l1.8375203013420105, 0.40833786129951477 0.0, 2.7562806010246277 l-1.32709801197052, 13.57723355293274 m-17.354358434677124, -17.660611867904663 l0.20416893064975739, -9.800108671188354 m-3.4708717465400696, -0.9187601506710052 l7.758418917655945, 0.20416893064975739 -7.758418917655945, 1.1229290813207626 l-1.020844653248787, -0.10208446532487869 2.041689306497574, -0.6125067919492722 l3.5729563236236572, 0.0 1.020844653248787, 0.20416893064975739 l-1.4291824400424957, 0.40833786129951477 -1.020844653248787, 0.0 l-1.8375203013420105, -1.2250135838985443 1.020844653248787, -0.3062533959746361 l4.79796975851059, 0.0 -1.2250135838985443, 0.5104223266243935 l-7.350081205368042, 0.40833786129951477 7.554250359535217, 0.20416893064975739 l-2.1437737345695496, 0.6125067919492722 -3.5729563236236572, 0.20416893064975739 l1.4291824400424957, -0.6125067919492722 5.30839204788208, -0.40833786129951477 l-0.6125067919492722, 0.6125067919492722 -2.1437737345695496, 0.40833786129951477 l-3.266702890396118, 0.10208446532487869 3.266702890396118, -0.5104223266243935 l0.7145912200212479, 0.7145912200212479 -0.40833786129951477, 0.10208446532487869 " fill="none" stroke="black" stroke-width="1" /></svg>