<?xml version="1.0" encoding="utf-8" ?>
<svg baseProfile="full" height="41.033677123486996" version="1.1" width="44.3003785982728" xmlns="http://www.w3.org/2000/svg" xmlns:ev="http://www.w3.org/2001/xml-events" xmlns:xlink="http://www.w3.org/1999/xlink"><defs /><rect fill="white" height="41.033677123486996" width="44.3003785982728" x="0" y="0" /><path d="M9.797969684004784, 24.396048299968243 m-2.5521114468574524, -0.3062533959746361 l-0.6125067919492722, 0.40833786129951477 -1.2250135838985443, 1.5312670171260834 l-0.40833786129951477, 2.1437737345695496 0.0, 2.347942590713501 l0.20416893064975739, 1.2250135838985443 0.5104223266243935, 0.7145912200212479 l1.633351445198059, 1.32709801197052 2.2458581626415253, 0.20416893064975739 l1.5312670171260834, -1.633351445198059 0.5104223266243935, -2.4500271677970886 l0.0, -1.4291824400424957 -0.40833786129951477, -0.9187601506710052 l-1.633351445198059, -1.9396047294139862 m-3.266702890396118, -0.9187601506710052 l0.8166757225990295, 1.5312670171260834 1.8375203013420105, 5.512561202049255 l1.2250135838985443, 1.9396047294139862 m-0.8166757225990295, -6.839659214019775 l-3.266702890396118, 4.593800902366638 -0.20416893064975739, 1.2250135838985443 m16.53768301010132, 1.2250135838985443 l-1.633351445198059, -5.206307768821716 -0.20416893064975739, -4.389632046222687 l1.2250135838985443, -3.368787169456482 1.1229290813207626, -1.4291824400424957 l2.5521114468574524, -0.9187601506710052 1.7354358732700348, 0.0 l2.960449457168579, 0.9187601506710052 1.633351445198059, 0.9187601506710052 l1.8375203013420105, 2.1437737345695496 0.5104223266243935, 1.1229290813207626 l0.5104223266243935, 2.960449457168579 0.0, 1.9396047294139862 l-0.40833786129951477, 1.5312670171260834 -1.5312670171260834, 1.32709801197052 l-3.4708717465400696, 0.8166757225990295 -5.104222893714905, -0.3062533959746361 m-1.9396047294139862, -6.6354900598526 l1.5312670171260834, 1.2250135838985443 2.4500271677970886, 3.4708717465400696 l3.1646183133125305, 6.022983193397522 m-4.900054335594177, -4.695885181427002 l1.1229290813207626, -2.041689306497574 5.30839204788208, -5.920898914337158 l0.5104223266243935, -0.9187601506710052 m-24.60235595703125, 2.1437737345695496 l0.8166757225990295, -2.1437737345695496 1.7354358732700348, -7.4521660804748535 l3.5729563236236572, 0.6125067919492722 3.4708717465400696, 0.10208446532487869 l10.20844578742981, -1.633351445198059 1.8375203013420105, 0.0 l3.266702890396118, 1.4291824400424957 m-0.20416893064975739, -0.6125067919492722 l-0.20416893064975739, 3.368787169456482 m0.20416893064975739, -4.1854628920555115 l7.758418917655945, -6.533405780792236 m-0.7145912200212479, -2.5521114468574524 " fill="none" stroke="black" stroke-width="1" /></svg>