<?xml version="1.0" encoding="utf-8" ?>
<svg baseProfile="full" height="24.393909461796284" version="1.1" width="32.8669198974967" xmlns="http://www.w3.org/2000/svg" xmlns:ev="http://www.w3.org/2001/xml-events" xmlns:xlink="http://www.w3.org/1999/xlink"><defs /><rect fill="white" height="24.393909461796284" width="32.8669198974967" x="0" y="0" /><path d="M9.18546300381422, 13.064672760665417 m-1.633351445198059, -0.3062533959746361 l-1.4291824400424957, 0.8166757225990295 -0.8166757225990295, 1.1229290813207626 l-0.3062533959746361, 0.7145912200212479 0.0, 2.1437737345695496 l0.7145912200212479, 1.32709801197052 1.020844653248787, 0.5104223266243935 l2.347942590713501, -0.20416893064975739 2.960449457168579, -1.8375203013420105 l0.3062533959746361, -0.6125067919492722 -0.10208446532487869, -1.5312670171260834 l-1.1229290813207626, -1.2250135838985443 -2.1437737345695496, -1.020844653248787 m18.681457042694092, 1.7354358732700348 l-0.3062533959746361, -1.020844653248787 -1.633351445198059, -0.3062533959746361 l-1.633351445198059, 0.20416893064975739 -2.041689306497574, 2.2458581626415253 l-0.20416893064975739, 1.8375203013420105 0.3062533959746361, 0.6125067919492722 l3.7771251797676086, 0.20416893064975739 0.7145912200212479, -0.3062533959746361 l0.7145912200212479, -0.9187601506710052 0.5104223266243935, -1.633351445198059 l-0.10208446532487869, -1.1229290813207626 -1.1229290813207626, -1.020844653248787 l-0.9187601506710052, -0.10208446532487869 m-18.068950176239014, 2.1437737345695496 l0.7145912200212479, -1.7354358732700348 2.960449457168579, -2.960449457168579 l1.633351445198059, -2.347942590713501 m1.2250135838985443, -3.4708717465400696 l-1.7354358732700348, 0.6125067919492722 -0.7145912200212479, 0.7145912200212479 l-0.20416893064975739, 1.32709801197052 1.633351445198059, 0.40833786129951477 l1.2250135838985443, 0.0 0.5104223266243935, -0.8166757225990295 l0.0, -1.4291824400424957 -0.5104223266243935, -0.8166757225990295 m-8.166757225990295, 10.310530662536621 l2.5521114468574524, 0.3062533959746361 6.022983193397522, 0.0 l4.593800902366638, -0.6125067919492722 5.716729760169983, 0.0 l0.20416893064975739, -0.5104223266243935 -0.40833786129951477, -1.2250135838985443 l-3.266702890396118, -4.389632046222687 " fill="none" stroke="black" stroke-width="1" /></svg>