<?xml version="1.0" encoding="utf-8" ?>
<svg baseProfile="full" height="25.618922524154186" version="1.1" width="44.81080308556557" xmlns="http://www.w3.org/2000/svg" xmlns:ev="http://www.w3.org/2001/xml-events" xmlns:xlink="http://www.w3.org/1999/xlink"><defs /><rect fill="white" height="25.618922524154186" width="44.81080308556557" x="0" y="0" /><path d="M7.960449494421482, 12.860503271222115 m-1.020844653248787, -0.10208446532487869 l-1.32709801197052, 1.2250135838985443 -0.5104223266243935, 1.2250135838985443 l-0.10208446532487869, 1.9396047294139862 0.7145912200212479, 1.5312670171260834 l1.633351445198059, 1.32709801197052 2.1437737345695496, 0.6125067919492722 l1.7354358732700348, 0.0 1.4291824400424957, -0.7145912200212479 l1.633351445198059, -1.5312670171260834 0.6125067919492722, -1.9396047294139862 l-0.10208446532487869, -1.2250135838985443 -1.9396047294139862, -1.4291824400424957 l-2.65419602394104, -0.6125067919492722 -5.206307768821716, 0.10208446532487869 m29.808664321899414, -0.9187601506710052 l-1.2250135838985443, 0.0 -1.1229290813207626, 0.6125067919492722 l-0.5104223266243935, 1.2250135838985443 0.0, 2.8583648800849915 l1.5312670171260834, 0.6125067919492722 2.1437737345695496, 0.0 l1.4291824400424957, -0.3062533959746361 2.4500271677970886, -2.1437737345695496 l0.3062533959746361, -0.6125067919492722 -0.10208446532487869, -2.5521114468574524 l-5.104222893714905, -0.3062533959746361 m-24.500272274017334, -6.737574338912964 l-0.10208446532487869, 9.085517525672913 -0.3062533959746361, 0.5104223266243935 m0.9187601506710052, -8.779264092445374 l1.2250135838985443, 1.1229290813207626 1.633351445198059, 0.8166757225990295 l6.6354900598526, 1.4291824400424957 5.614645481109619, 1.8375203013420105 l10.20844578742981, 1.8375203013420105 m-25.214862823486328, 1.633351445198059 l28.379480838775635, -0.20416893064975739 m-10.106362104415894, -2.041689306497574 l0.5104223266243935, -5.512561202049255 m-2.8583648800849915, -1.633351445198059 l3.368787169456482, 0.40833786129951477 " fill="none" stroke="black" stroke-width="1" /></svg>