<?xml version="1.0" encoding="utf-8" ?>
<svg baseProfile="full" height="37.25655198097229" version="1.1" width="40.52325423806906" xmlns="http://www.w3.org/2000/svg" xmlns:ev="http://www.w3.org/2001/xml-events" xmlns:xlink="http://www.w3.org/1999/xlink"><defs /><rect fill="white" height="37.25655198097229" width="40.52325423806906" x="0" y="0" /><path d="M16.025121621787548, 19.598079100251198 m-3.5729563236236572, -1.2250135838985443 l-2.347942590713501, 1.1229290813207626 -2.041689306497574, 2.041689306497574 l-1.1229290813207626, 2.2458581626415253 0.0, 2.347942590713501 l2.65419602394104, 2.2458581626415253 6.227152347564697, 2.347942590713501 l0.8166757225990295, -0.3062533959746361 1.020844653248787, -1.2250135838985443 l1.020844653248787, -1.9396047294139862 1.020844653248787, -3.266702890396118 l-1.020844653248787, -1.2250135838985443 -0.8166757225990295, -2.4500271677970886 l-2.5521114468574524, -1.2250135838985443 m12.148051261901855, 5.614645481109619 l-3.266702890396118, -1.1229290813207626 -0.9187601506710052, 0.10208446532487869 l-1.020844653248787, 2.347942590713501 -0.7145912200212479, 2.8583648800849915 l6.431320905685425, 2.5521114468574524 3.0625340342521667, 0.8166757225990295 l0.8166757225990295, -0.8166757225990295 2.960449457168579, -6.941743493080139 l0.7145912200212479, -2.041689306497574 0.0, -1.020844653248787 l-5.206307768821716, -1.7354358732700348 -3.368787169456482, 1.5312670171260834 l-2.5521114468574524, 1.7354358732700348 m6.1250680685043335, -3.98129403591156 l-6.6354900598526, -2.65419602394104 m-7.350081205368042, 2.041689306497574 l0.3062533959746361, -1.633351445198059 1.020844653248787, -0.3062533959746361 l1.5312670171260834, 0.40833786129951477 2.041689306497574, -0.40833786129951477 l2.4500271677970886, 0.10208446532487869 2.65419602394104, -4.593800902366638 l0.9187601506710052, -2.960449457168579 0.5104223266243935, 0.0 l4.79796975851059, 2.041689306497574 m-5.30839204788208, -2.041689306497574 l-4.389632046222687, -1.633351445198059 m8.166757225990295, 2.8583648800849915 l-6.1250680685043335, -2.7562806010246277 m-18.375203609466553, -2.4500271677970886 l-0.5104223266243935, 0.20416893064975739 -1.2250135838985443, 2.4500271677970886 l0.40833786129951477, 0.40833786129951477 3.5729563236236572, 1.2250135838985443 " fill="none" stroke="black" stroke-width="1" /></svg>