<?xml version="1.0" encoding="utf-8" ?>
<svg baseProfile="full" height="126.63119894918054" version="1.1" width="112.70481166895479" xmlns="http://www.w3.org/2000/svg" xmlns:ev="http://www.w3.org/2001/xml-events" xmlns:xlink="http://www.w3.org/1999/xlink"><defs /><rect fill="white" height="126.63119894918054" width="112.70481166895479" x="0" y="0" /><path d="M54.3279899423942, 101.63119894918054 m-0.969264954328537, -3.7746822834014893 l-1.0489808022975922, -5.659343004226685 -0.3650606796145439, -4.563115239143372 l0.23927729576826096, -4.030614197254181 0.6804493069648743, -3.785610795021057 l1.452820748090744, -3.929600417613983 2.3390065133571625, -3.542131781578064 l3.272687792778015, -2.9919567704200745 4.498721063137054, -2.2487784922122955 l5.4660433530807495, -0.7923883199691772 5.902302861213684, 0.9693856537342072 l3.8414552807807922, 1.4703601598739624 2.941061556339264, 1.812819242477417 l2.249879091978073, 2.1155157685279846 1.5440070629119873, 2.6616281270980835 l1.3324162364006042, 5.825794339179993 -0.1260571274906397, 4.232800602912903 l-1.3389091193675995, 3.57340931892395 -3.0863720178604126, 3.4429094195365906 l-4.372064471244812, 2.6176896691322327 -5.1666659116744995, 1.6047027707099915 l-4.982579946517944, 0.5004005506634712 -4.526262283325195, -0.6364255398511887 l-4.195689260959625, -1.8834874033927917 -4.597581923007965, -3.7503215670585632 l-3.1673869490623474, -4.8086050152778625 -1.5155065059661865, -5.662035346031189 l0.05337366368621588, -3.6898797750473022 1.5732118487358093, -5.118662118911743 l1.9109655916690826, -3.1598705053329468 3.72005432844162, -3.769388496875763 l2.2078634798526764, -1.508621722459793 3.88884037733078, -1.618526577949524 l4.902437627315521, -0.7784492522478104 5.395888686180115, 0.5999817326664925 l2.904331386089325, 1.2844744324684143 3.2249701023101807, 3.657170832157135 l1.0284730046987534, 3.1957200169563293 -0.21018870174884796, 3.4836718440055847 l-1.591932624578476, 3.3200037479400635 -3.5607782006263733, 3.1544381380081177 l-4.434730410575867, 2.097061425447464 -4.668675363063812, 0.9823817014694214 l-4.314142167568207, -0.19888462498784065 -4.085200130939484, -1.537788063287735 l-3.518979847431183, -2.540771961212158 -1.5387548506259918, -2.0181693136692047 l-1.1840242892503738, -2.7676597237586975 -0.6148338317871094, -3.2507169246673584 l0.10687513276934624, -2.376960813999176 1.3919845223426819, -3.8020434975624084 l2.86700576543808, -3.9263948798179626 2.123946249485016, -2.243112474679947 l3.2510289549827576, -2.1512240171432495 2.1451179683208466, -0.8378572016954422 l2.0098210871219635, -0.44189542531967163 3.1610271334648132, 0.43867915868759155 l2.2947998344898224, 1.378960758447647 1.5310269594192505, 2.265387922525406 l1.1887679994106293, 5.492905378341675 -0.44582366943359375, 3.6538076400756836 l-1.7909526824951172, 2.9795822501182556 -3.4357750415802, 2.797967493534088 l-2.094500958919525, 1.0240567475557327 -3.5597029328346252, 0.7204905897378922 l-4.077075719833374, -0.15003797598183155 -4.062963128089905, -1.2915393710136414 l-2.161905914545059, -1.4818421006202698 -2.4358414113521576, -2.607068717479706 l-1.0851185768842697, -2.160106599330902 -0.8032760769128799, -2.7282583713531494 l-0.3688725084066391, -2.936757504940033 0.23260097950696945, -3.914569914340973 l1.2329716980457306, -3.792394697666168 2.3070402443408966, -3.3568450808525085 l3.2381197810173035, -2.673279047012329 3.938298225402832, -1.7718638479709625 l4.145388603210449, -0.3092768043279648 4.413687288761139, 1.6575053334236145 l2.4712449312210083, 2.004065215587616 1.3772419095039368, 2.5529280304908752 l0.23336470127105713, 2.8208965063095093 -1.1951857060194016, 3.071869909763336 l-1.5565352141857147, 2.0133814215660095 -3.538239300251007, 2.4527856707572937 l-4.4070205092430115, 1.7474651336669922 -4.442246854305267, 0.7989008724689484 l-4.372517466545105, -0.09980042465031147 -4.225895702838898, -1.0264887660741806 l-3.7878337502479553, -1.906629055738449 -1.6115061938762665, -1.6268198192119598 l-1.8273352086544037, -3.41420441865921 -1.2311448156833649, -4.722954332828522 l-0.19699273630976677, -4.779300391674042 0.8610870689153671, -4.196125268936157 l2.203591614961624, -3.555862307548523 3.3328992128372192, -2.7809253334999084 l4.1917484998703, -1.8029466271400452 4.714754819869995, -0.386839397251606 l4.7871994972229, 1.3438154757022858 2.837662994861603, 1.7803634703159332 l1.755053699016571, 2.1926382184028625 0.8473930507898331, 2.826383411884308 l-0.29990965500473976, 3.205215036869049 -1.8175669014453888, 3.0248847603797913 l-3.785479962825775, 3.1041887402534485 -4.520913064479828, 1.9863219559192657 l-4.676574766635895, 0.9179192036390305 -4.403731822967529, -0.03487193491309881 l-4.256282150745392, -1.04034885764122 -5.111225247383118, -2.14723140001297 l-3.566274642944336, -2.4190767109394073 -3.437519371509552, -3.484201729297638 l-2.300940304994583, -4.057327210903168 -1.0199762880802155, -4.216249883174896 l0.37221435457468033, -4.388793110847473 1.1283532530069351, -2.865445911884308 l2.926756739616394, -2.850954234600067 4.7019162774086, -2.1198926866054535 l5.477353930473328, -0.5937813594937325 3.3185237646102905, 0.29285795986652374 l4.4383543729782104, 1.9983725249767303 2.3602256178855896, 2.1332260966300964 l1.4309249818325043, 2.532281279563904 0.4703517258167267, 2.902844250202179 l-0.8000607788562775, 3.109692633152008 -1.3739439845085144, 2.068144828081131 l-3.5412099957466125, 2.5070682168006897 -4.302485287189484, 1.4833523333072662 " fill="none" stroke="black" stroke-width="1" /></svg>