<?xml version="1.0" encoding="utf-8" ?>
<svg baseProfile="full" height="102.23514353856444" version="1.1" width="92.73784431628883" xmlns="http://www.w3.org/2000/svg" xmlns:ev="http://www.w3.org/2001/xml-events" xmlns:xlink="http://www.w3.org/1999/xlink"><defs /><rect fill="white" height="102.23514353856444" width="92.73784431628883" x="0" y="0" /><path d="M30.791035071015358, 54.88174553029239 m7.644167542457581, -5.906856656074524 l4.053725004196167, -1.9689521193504333 3.5904422402381897, -0.9265657514333725 l5.906856656074524, 0.11582071892917156 2.0847728848457336, 0.6949242949485779 l4.053725004196167, 2.3164142668247223 1.7373107373714447, 1.505669355392456 l2.3164142668247223, 2.895517945289612 1.6214899718761444, 3.9379042387008667 l-0.34746214747428894, 5.791035890579224 -2.6638764142990112, 4.9802908301353455 l-2.6638764142990112, 3.9379042387008667 -2.3164142668247223, 2.3164142668247223 l-1.505669355392456, 0.8107449859380722 -8.339091539382935, 1.853131502866745 l-3.242979943752289, -0.11582071892917156 -6.601780652999878, -1.1582071334123611 l-3.5904422402381897, -0.9265657514333725 -2.548055648803711, -1.1582071334123611 l-3.4746214747428894, -2.200593650341034 -0.8107449859380722, -1.3898485898971558 l-0.6949242949485779, -3.1271594762802124 0.0, -6.949242949485779 l0.5791035667061806, -4.285366535186768 2.0847728848457336, -5.211932063102722 l1.3898485898971558, -1.3898485898971558 1.853131502866745, -1.1582071334123611 l2.200593650341034, -0.9265657514333725 2.3164142668247223, -0.46328287571668625 l5.096111297607422, -0.11582071892917156 2.200593650341034, 0.23164143785834312 l2.0847728848457336, 0.8107449859380722 m13.319382667541504, 3.4746214747428894 l-0.46328287571668625, -0.9265657514333725 0.11582071892917156, -1.9689521193504333 l1.853131502866745, -5.791035890579224 1.1582071334123611, -7.991629242897034 l1.3898485898971558, -2.0847728848457336 1.2740278244018555, -0.9265657514333725 l0.9265657514333725, -1.2740278244018555 1.9689521193504333, -0.23164143785834312 l0.5791035667061806, 0.9265657514333725 0.34746214747428894, 2.548055648803711 l0.46328287571668625, 5.3277528285980225 0.0, 6.601780652999878 l-0.11582071892917156, 2.4322350323200226 -1.6214899718761444, 8.223270773887634 l-0.23164143785834312, 0.6949242949485779 -0.11582071892917156, -0.46328287571668625 m-24.206528663635254, -8.570733070373535 l-1.9689521193504333, -3.011338710784912 -4.517008066177368, -4.864470064640045 l-2.6638764142990112, -3.70626300573349 -2.548055648803711, -4.285366535186768 l-3.358800709247589, -6.8334221839904785 -0.23164143785834312, 1.6214899718761444 l4.9802908301353455, 12.971919775009155 3.9379042387008667, 12.276996374130249 l0.34746214747428894, -0.23164143785834312 m2.0847728848457336, 5.791035890579224 l1.9689521193504333, -0.46328287571668625 3.1271594762802124, -1.853131502866745 l1.505669355392456, 3.011338710784912 0.5791035667061806, 2.0847728848457336 l0.0, 3.1271594762802124 -0.5791035667061806, 0.46328287571668625 l-1.7373107373714447, 0.0 -3.70626300573349, -3.242979943752289 l-0.8107449859380722, -1.9689521193504333 0.0, -1.505669355392456 l2.3164142668247223, -1.0423864424228668 m11.813713312149048, -0.6949242949485779 l3.1271594762802124, -0.23164143785834312 0.9265657514333725, 0.8107449859380722 l1.3898485898971558, 2.4322350323200226 0.46328287571668625, 3.358800709247589 l-0.11582071892917156, 0.5791035667061806 -3.1271594762802124, 0.0 l-3.4746214747428894, -1.9689521193504333 -0.6949242949485779, -1.2740278244018555 l-0.11582071892917156, -1.2740278244018555 3.011338710784912, -0.8107449859380722 m1.9689521193504333, 2.3164142668247223 l-0.11582071892917156, 0.5791035667061806 0.23164143785834312, -0.23164143785834312 m-15.05669355392456, -0.8107449859380722 l0.0, 0.0 m1.7373107373714447, 0.23164143785834312 l-1.0423864424228668, 0.34746214747428894 -0.8107449859380722, 1.2740278244018555 " fill="none" stroke="black" stroke-width="1" /></svg>